<svg xmlns="http://www.w3.org/2000/svg" width="1097" height="663" fill="none" viewBox="0 0 1097 663"><path fill="#fff" d="M0 0h1097v663H0z"/><path fill="#000" d="M198.354 124.646a.5.5 0 0 0-.708 0l-3.182 3.182a.502.502 0 0 0 .708.708l2.828-2.829 2.828 2.829a.502.502 0 0 0 .708-.708zm-.708 386.708a.5.5 0 0 0 .708 0l3.182-3.182a.502.502 0 0 0-.708-.708L198 510.293l-2.828-2.829a.502.502 0 0 0-.708.708zM198 125h-.5v386h1V125z"/><path stroke="#000" d="M194 124h8M194 512h8"/><path fill="#000" d="M92.116 315.455h2.61v1.035h-2.61zm-2.52-3.585h.975v2.595q0 1.05-.225 2.07-.21 1.02-.63 1.92-.405.9-.99 1.62t-1.32 1.17l-.78-.93q.69-.42 1.245-1.05t.93-1.41q.39-.795.585-1.65.21-.87.21-1.74zm.24 0h.96v2.55q0 .81.18 1.635.195.81.54 1.56.36.735.885 1.35t1.185 1.02l-.705.96q-.735-.45-1.305-1.14a7.1 7.1 0 0 1-.96-1.575 9 9 0 0 1-.585-1.86 10 10 0 0 1-.195-1.95zm7.275-1.275h1.2v13.575h-1.2zm-2.76.285h1.17v12.6h-1.17zm6.224 10.575h12.3v1.035h-12.3zm5.505-2.895h1.23v3.33h-1.23zm-4.005-6.96h9.27v4.11h-8.01v2.715h-1.23v-3.705h8.01v-2.1h-8.04zm.03 6.3h9.555v1.02h-9.555zm13.585 3.704a.92.92 0 0 1-.676-.282.92.92 0 0 1-.283-.676q0-.395.283-.677a.92.92 0 0 1 .676-.282q.395 0 .677.282a.92.92 0 0 1 .282.677.9.9 0 0 1-.133.479 1 1 0 0 1-.346.352.9.9 0 0 1-.48.127m0-5.518a.92.92 0 0 1-.676-.282.93.93 0 0 1-.283-.677q0-.394.283-.676a.92.92 0 0 1 .676-.283.92.92 0 0 1 .677.283.92.92 0 0 1 .282.676.9.9 0 0 1-.133.48 1 1 0 0 1-.346.351.9.9 0 0 1-.48.128m11.248-3.995V323h-1.321v-9.524h-.064l-2.664 1.768v-1.342l2.728-1.811zm6.759 11.058a4 4 0 0 1-1.342-.256 3.2 3.2 0 0 1-1.225-.825q-.555-.586-.89-1.582-.335-1.002-.335-2.514 0-1.449.271-2.568.272-1.123.789-1.891.516-.772 1.246-1.172a3.4 3.4 0 0 1 1.657-.399q.916 0 1.63.367.719.363 1.172 1.012.452.651.585 1.497h-1.299a2.4 2.4 0 0 0-.703-1.22q-.522-.484-1.385-.484-1.267 0-1.998 1.102-.724 1.103-.73 3.095h.086a3.19 3.19 0 0 1 2.684-1.449q.938 0 1.715.469.778.464 1.247 1.284.469.815.469 1.869 0 1.012-.453 1.854a3.45 3.45 0 0 1-1.273 1.332q-.815.49-1.918.479m0-1.172q.672 0 1.204-.335.538-.336.847-.901.315-.564.314-1.257 0-.676-.303-1.23a2.3 2.3 0 0 0-.826-.89 2.2 2.2 0 0 0-1.193-.33q-.507 0-.943.203a2.4 2.4 0 0 0-.767.543 2.6 2.6 0 0 0-.511.794 2.517 2.517 0 0 0 .958 3.057q.539.346 1.22.346m9.297 1.172q-1.204 0-2.051-.655-.847-.66-1.295-1.912-.447-1.257-.447-3.037 0-1.768.447-3.02.453-1.257 1.3-1.917.852-.666 2.046-.666 1.192 0 2.04.666.852.66 1.299 1.917.453 1.252.453 3.02 0 1.78-.447 3.037-.447 1.251-1.295 1.912-.846.655-2.05.655m0-1.172q1.193 0 1.853-1.15.661-1.15.661-3.282 0-1.416-.304-2.413-.298-.996-.863-1.518a1.9 1.9 0 0 0-1.347-.522q-1.183 0-1.849 1.167-.666 1.162-.666 3.286 0 1.418.299 2.408.298.991.857 1.508.565.516 1.359.516M153.05 323v-8.182h1.215v1.279h.106q.256-.655.826-1.018.57-.367 1.369-.367.81 0 1.348.367.543.363.847 1.018h.085q.314-.635.943-1.007.628-.378 1.507-.378 1.098 0 1.795.687.699.682.698 2.125V323h-1.257v-5.476q0-.906-.495-1.294a1.84 1.84 0 0 0-1.167-.389q-.863 0-1.337.522-.474.516-.474 1.31V323h-1.278v-5.604q0-.698-.453-1.124-.453-.43-1.167-.431-.49 0-.916.261-.42.26-.682.724-.255.459-.255 1.06V323zm13.038 0v-8.182h1.214v1.279h.107q.255-.655.825-1.018.57-.367 1.369-.367.81 0 1.348.367.543.363.847 1.018h.085q.315-.635.943-1.007.628-.378 1.507-.378 1.098 0 1.795.687.698.682.698 2.125V323h-1.257v-5.476q0-.906-.495-1.294a1.84 1.84 0 0 0-1.167-.389q-.863 0-1.337.522-.474.516-.474 1.31V323h-1.278v-5.604q0-.698-.453-1.124-.453-.43-1.167-.431-.49 0-.916.261-.42.26-.682.724-.255.459-.255 1.06V323zM911.207 315.455h2.61v1.035h-2.61zm-2.52-3.585h.975v2.595q0 1.05-.225 2.07-.21 1.02-.63 1.92-.405.9-.99 1.62t-1.32 1.17l-.78-.93q.69-.42 1.245-1.05t.93-1.41q.39-.795.585-1.65.21-.87.21-1.74zm.24 0h.96v2.55q0 .81.18 1.635.195.81.54 1.56.36.735.885 1.35t1.185 1.02l-.705.96q-.735-.45-1.305-1.14a7.1 7.1 0 0 1-.96-1.575 9 9 0 0 1-.585-1.86 10 10 0 0 1-.195-1.95zm7.275-1.275h1.2v13.575h-1.2zm-2.76.285h1.17v12.6h-1.17zm6.224 10.575h12.3v1.035h-12.3zm5.505-2.895h1.23v3.33h-1.23zm-4.005-6.96h9.27v4.11h-8.01v2.715h-1.23v-3.705h8.01v-2.1h-8.04zm.03 6.3h9.555v1.02h-9.555zm13.586 3.704a.92.92 0 0 1-.677-.282.92.92 0 0 1-.282-.676q0-.395.282-.677a.92.92 0 0 1 .677-.282q.394 0 .676.282a.92.92 0 0 1 .282.677.9.9 0 0 1-.133.479 1 1 0 0 1-.346.352.9.9 0 0 1-.479.127m0-5.518a.92.92 0 0 1-.677-.282.93.93 0 0 1-.282-.677q0-.394.282-.676a.92.92 0 0 1 .677-.283.92.92 0 0 1 .676.283.92.92 0 0 1 .282.676.994.994 0 0 1-.479.831.9.9 0 0 1-.479.128m11.247-3.995V323h-1.321v-9.524h-.064l-2.663 1.768v-1.342l2.727-1.811zm6.546 11.058q-.937 0-1.688-.373a3.13 3.13 0 0 1-1.204-1.022 2.8 2.8 0 0 1-.495-1.481h1.278q.075.74.671 1.225.603.479 1.438.479.672 0 1.194-.314.526-.314.825-.863.304-.554.304-1.252 0-.714-.314-1.273a2.3 2.3 0 0 0-.853-.889 2.4 2.4 0 0 0-1.241-.331 3.4 3.4 0 0 0-1.028.155 2.9 2.9 0 0 0-.868.399l-1.236-.149.661-5.369h5.667v1.172h-4.559l-.384 3.217h.064q.336-.266.842-.442a3.2 3.2 0 0 1 1.054-.176q1.002 0 1.785.48.787.474 1.236 1.299.452.826.452 1.886 0 1.044-.468 1.864a3.4 3.4 0 0 1-1.279 1.289q-.814.47-1.854.469m9.403 0q-1.054 0-1.88-.362-.82-.363-1.305-1.007a2.7 2.7 0 0 1-.522-1.507h1.342q.043.527.363.911.319.378.836.586a3 3 0 0 0 1.145.207q.703 0 1.247-.245.543-.244.852-.682.309-.436.309-1.012a1.9 1.9 0 0 0-.299-1.06q-.298-.463-.873-.724-.576-.261-1.406-.261h-.874v-1.172h.874a2.6 2.6 0 0 0 1.14-.234 1.84 1.84 0 0 0 .772-.661q.282-.426.282-1.001 0-.555-.245-.964a1.67 1.67 0 0 0-.692-.64 2.25 2.25 0 0 0-1.044-.229q-.565 0-1.066.208-.495.202-.809.591a1.54 1.54 0 0 0-.341.927h-1.279a2.6 2.6 0 0 1 .517-1.502 3.25 3.25 0 0 1 1.268-1.012 4.1 4.1 0 0 1 1.731-.362q1.013 0 1.737.41.725.405 1.113 1.071.389.665.389 1.438 0 .921-.485 1.571-.48.65-1.305.9v.086q1.033.17 1.614.879.58.702.581 1.741 0 .89-.485 1.598-.48.703-1.311 1.108-.83.405-1.891.405m6.466-.064a.92.92 0 0 1-.677-.282.92.92 0 0 1-.282-.677q0-.394.282-.676a.92.92 0 0 1 .677-.282q.394 0 .676.282a.92.92 0 0 1 .283.676.9.9 0 0 1-.134.48 1 1 0 0 1-.346.351.9.9 0 0 1-.479.128m3.193-.085v-.959l3.601-3.942a24 24 0 0 0 1.044-1.203q.41-.517.607-.97.203-.458.203-.959 0-.574-.277-.996a1.8 1.8 0 0 0-.746-.65 2.4 2.4 0 0 0-1.065-.229q-.628 0-1.098.261-.463.256-.719.719-.25.464-.25 1.087h-1.257q0-.959.442-1.683t1.204-1.129a3.6 3.6 0 0 1 1.72-.405q.959 0 1.699.405.74.404 1.162 1.092.42.687.42 1.528 0 .602-.218 1.178-.213.57-.746 1.273-.527.697-1.465 1.704l-2.45 2.621v.085h5.071V323zm13.322 0v-8.182h1.215v1.279h.106q.256-.655.826-1.018.57-.367 1.369-.367.81 0 1.347.367.544.363.847 1.018h.086q.313-.635.942-1.007.629-.378 1.508-.378 1.097 0 1.795.687.698.682.698 2.125V323h-1.257v-5.476q0-.906-.496-1.294a1.83 1.83 0 0 0-1.166-.389q-.863 0-1.337.522-.474.516-.474 1.31V323h-1.279v-5.604q0-.698-.452-1.124-.453-.43-1.167-.431-.49 0-.916.261a1.97 1.97 0 0 0-.682.724 2.13 2.13 0 0 0-.256 1.06V323zm13.037 0v-8.182h1.215v1.279h.106q.257-.655.823-1.018c.38-.245.84-.367 1.37-.367q.81 0 1.35.367c.36.242.64.581.85 1.018h.08c.21-.423.53-.759.94-1.007.42-.252.93-.378 1.51-.378q1.095 0 1.8.687.69.682.69 2.125V323h-1.25v-5.476c0-.604-.17-1.035-.5-1.294a1.83 1.83 0 0 0-1.16-.389c-.58 0-1.03.174-1.34.522q-.48.516-.48 1.31V323h-1.27v-5.604c0-.465-.15-.84-.46-1.124-.3-.287-.69-.431-1.16-.431-.33 0-.64.087-.92.261q-.42.26-.681.724-.255.459-.256 1.06V323zM885.354 132.146a.5.5 0 0 0-.708 0l-3.182 3.182a.502.502 0 0 0 .708.708l2.828-2.829 2.828 2.829a.502.502 0 0 0 .708-.708zm-.708 370.708a.5.5 0 0 0 .708 0l3.182-3.182a.502.502 0 0 0-.708-.708L885 501.793l-2.828-2.829a.502.502 0 0 0-.708.708zM885 132.5h-.5v370h1v-370z"/><path stroke="#000" d="M881 131.5h8.109M881 503.5h8.109"/><path fill="#000" d="M229.146 93.647a.5.5 0 0 0 0 .707l3.182 3.182a.501.501 0 0 0 .708-.708L230.207 94l2.829-2.828a.5.5 0 0 0-.708-.707zm119.708.706a.5.5 0 0 0 0-.707l-3.182-3.182a.501.501 0 0 0-.708.708L347.793 94l-2.829 2.828a.5.5 0 0 0 .708.707zM229.5 94v.5h119v-1h-119z"/><path stroke="#000" d="M228.5 90v8M349.5 90v8"/><path fill="#000" d="M256.059 57.595h1.245v13.56h-1.245zm.915 5.505h2.49v1.035h-2.49zm-4.38-4.05h1.215q0 1.935-.63 3.705-.63 1.755-1.98 3.255-1.35 1.485-3.555 2.58l-.69-.96q1.89-.945 3.135-2.205 1.26-1.275 1.875-2.82.63-1.56.63-3.36zm-5.01 0h5.64v1.035h-5.64zm13.094 9.405h12.3v1.035h-12.3zm5.505-2.895h1.23v3.33h-1.23zm-4.005-6.96h9.27v4.11h-8.01v2.715h-1.23V61.72h8.01v-2.1h-8.04zm.03 6.3h9.555v1.02h-9.555zm13.586 3.704a.93.93 0 0 1-.677-.282.92.92 0 0 1-.282-.676q0-.395.282-.677a.93.93 0 0 1 .677-.282q.394 0 .676.282a.92.92 0 0 1 .283.677.9.9 0 0 1-.134.479 1 1 0 0 1-.346.352.9.9 0 0 1-.479.127m0-5.518a.93.93 0 0 1-.677-.282.92.92 0 0 1-.282-.677q0-.394.282-.676a.93.93 0 0 1 .677-.283q.394 0 .676.283a.92.92 0 0 1 .283.676.9.9 0 0 1-.134.48 1 1 0 0 1-.346.351.9.9 0 0 1-.479.128m10.821 7.063a3.75 3.75 0 0 1-1.689-.373q-.75-.373-1.203-1.022a2.8 2.8 0 0 1-.496-1.481h1.279q.074.74.671 1.225.601.48 1.438.48.67 0 1.193-.315.528-.314.826-.863.303-.555.303-1.252 0-.714-.314-1.273a2.3 2.3 0 0 0-.852-.89 2.4 2.4 0 0 0-1.241-.33 3.4 3.4 0 0 0-1.028.155 2.9 2.9 0 0 0-.869.4l-1.235-.15.66-5.37h5.668v1.173h-4.56l-.383 3.217h.064q.335-.266.841-.442a3.2 3.2 0 0 1 1.055-.176q1 0 1.784.48.789.474 1.236 1.3.453.825.453 1.885 0 1.044-.469 1.864a3.43 3.43 0 0 1-1.278 1.29q-.816.468-1.854.468m9.275 0q-1.203 0-2.051-.655-.847-.66-1.294-1.912-.447-1.257-.447-3.036 0-1.77.447-3.02.453-1.258 1.3-1.918.852-.666 2.045-.666t2.04.666q.852.66 1.3 1.917.453 1.253.453 3.02 0 1.78-.448 3.037-.447 1.251-1.294 1.912-.847.655-2.051.655m0-1.172q1.193 0 1.854-1.15.66-1.15.66-3.281 0-1.418-.303-2.414-.299-.996-.863-1.518a1.9 1.9 0 0 0-1.348-.522q-1.182 0-1.848 1.167-.666 1.161-.666 3.287 0 1.416.298 2.407.298.99.858 1.508a1.94 1.94 0 0 0 1.358.516M305.947 70v-8.182h1.214v1.279h.107q.256-.655.826-1.018.57-.367 1.369-.367.81 0 1.347.367.544.362.847 1.018h.085q.315-.635.943-1.007.629-.378 1.508-.378 1.097 0 1.795.687.698.681.698 2.125V70h-1.258v-5.476q0-.906-.495-1.294a1.83 1.83 0 0 0-1.166-.39q-.864 0-1.337.523-.474.516-.475 1.31V70h-1.278v-5.604q0-.698-.453-1.124-.453-.43-1.166-.431-.49 0-.916.26a1.97 1.97 0 0 0-.682.725 2.13 2.13 0 0 0-.256 1.06V70zm13.037 0v-8.182h1.215v1.279h.106a2.06 2.06 0 0 1 .826-1.018q.57-.367 1.369-.367.81 0 1.347.367.544.362.847 1.018h.086q.313-.635.942-1.007.629-.378 1.508-.378 1.097 0 1.795.687.698.681.698 2.125V70h-1.257v-5.476q0-.906-.496-1.294a1.83 1.83 0 0 0-1.166-.39q-.864 0-1.337.523-.474.516-.474 1.31V70h-1.279v-5.604q0-.698-.453-1.124-.452-.43-1.166-.431-.49 0-.916.26a1.97 1.97 0 0 0-.682.725 2.13 2.13 0 0 0-.256 1.06V70zM219.735 553.47h12.3v1.02h-12.3zm5.505.63h1.23v5.055h-1.23zm-3.93-7.755h9.15v5.295h-9.15zm7.92 1.005h-6.705v3.3h6.705zm14.654-1.755h1.2v13.575h-1.2zm-5.895 5.55h3.42v1.005h-3.42zm3.075-5.19h1.17v12.525h-1.17zm-2.91 1.365h1.2q0 1.77-.51 3.405a9.1 9.1 0 0 1-1.62 3.03q-1.125 1.395-2.955 2.49l-.72-.9q1.59-.96 2.61-2.16a8.2 8.2 0 0 0 1.5-2.625q.495-1.425.495-3.015zm-4.02 0h4.485v1.02h-4.485zm-10.915 29.569q-.645 0-1.177-.314a2.44 2.44 0 0 1-.853-.852 2.3 2.3 0 0 1-.314-1.178q0-.65.314-1.177.32-.532.853-.847a2.24 2.24 0 0 1 1.177-.319q.65 0 1.177.319.532.315.847.847.32.528.319 1.177 0 .645-.319 1.178-.315.533-.847.852a2.26 2.26 0 0 1-1.177.314m9.758 3.111v-10.909h3.814q1.14 0 1.881.394.74.389 1.102 1.049.363.655.362 1.455 0 .702-.25 1.161-.245.458-.65.724a3 3 0 0 1-.868.394v.107q.5.031 1.007.352.505.32.847.916.34.596.34 1.459 0 .82-.372 1.476-.373.656-1.178 1.038-.804.384-2.093.384zm1.321-1.172h2.621q1.295 0 1.838-.501.548-.505.548-1.225 0-.554-.282-1.022a2.03 2.03 0 0 0-.804-.757q-.522-.288-1.236-.287h-2.685zm0-4.943h2.451q.596 0 1.076-.234.484-.235.767-.661.287-.426.287-1.001 0-.72-.5-1.22-.5-.506-1.588-.506h-2.493zm8.435 6.115v-10.909h6.584v1.172h-5.263v3.686h4.922v1.172h-4.922v3.707h5.348V580zm10.947 0-2.983-10.909h1.342l2.28 8.885h.106l2.323-8.885h1.491l2.323 8.885h.106l2.28-8.885h1.342L261.307 580h-1.363l-2.408-8.693h-.085L255.043 580zm15.751.149q-1.055 0-1.881-.362-.82-.362-1.305-1.007a2.7 2.7 0 0 1-.522-1.507h1.343q.042.527.362.911a2.1 2.1 0 0 0 .836.586 3 3 0 0 0 1.145.207q.704 0 1.247-.245.543-.244.852-.682.309-.436.309-1.012a1.9 1.9 0 0 0-.298-1.06q-.298-.463-.874-.724-.575-.261-1.406-.261h-.874v-1.172h.874a2.6 2.6 0 0 0 1.14-.234 1.84 1.84 0 0 0 .772-.661q.282-.426.282-1.001 0-.555-.245-.964a1.67 1.67 0 0 0-.692-.64 2.25 2.25 0 0 0-1.044-.229q-.566 0-1.065.208a2 2 0 0 0-.81.591 1.54 1.54 0 0 0-.341.927h-1.278a2.6 2.6 0 0 1 .516-1.502 3.25 3.25 0 0 1 1.268-1.012 4.1 4.1 0 0 1 1.731-.362q1.012 0 1.737.41.724.405 1.113 1.071t.389 1.438q0 .921-.485 1.571-.48.65-1.305.9v.086q1.034.17 1.614.879.58.702.581 1.741 0 .89-.485 1.598-.48.703-1.31 1.108-.832.405-1.891.405m10.573-6.189v1.171h-4.773v-1.171zm5.749 6.04h-3.367v-10.909h3.516q1.587 0 2.717.655 1.13.65 1.731 1.87.602 1.214.602 2.908 0 1.705-.607 2.935a4.33 4.33 0 0 1-1.769 1.886q-1.161.655-2.823.655m-2.046-1.172h1.961q1.353 0 2.242-.522a3.22 3.22 0 0 0 1.327-1.486q.436-.964.436-2.296 0-1.321-.431-2.274a3.2 3.2 0 0 0-1.289-1.471q-.858-.516-2.136-.516h-2.11zm9.461 1.172v-10.909h3.814q1.14 0 1.88.394.74.389 1.103 1.049.362.655.362 1.455 0 .702-.251 1.161-.245.458-.649.724a3 3 0 0 1-.869.394v.107q.501.031 1.007.352t.847.916.341 1.459q0 .82-.373 1.476t-1.177 1.038q-.804.384-2.094.384zm1.321-1.172h2.62q1.295 0 1.838-.501.549-.505.549-1.225 0-.554-.282-1.022a2.04 2.04 0 0 0-.805-.757q-.522-.288-1.236-.287h-2.684zm0-4.943h2.45q.596 0 1.076-.234.485-.235.767-.661.288-.426.288-1.001 0-.72-.501-1.22-.501-.506-1.587-.506h-2.493zm9.18 4.719a.92.92 0 0 1-.676-.282.92.92 0 0 1-.283-.676q0-.395.283-.677a.92.92 0 0 1 .676-.282q.395 0 .677.282a.92.92 0 0 1 .282.677.9.9 0 0 1-.133.479 1 1 0 0 1-.346.352.9.9 0 0 1-.48.127m0-5.518a.92.92 0 0 1-.676-.282.93.93 0 0 1-.283-.677q0-.394.283-.676a.92.92 0 0 1 .676-.283.92.92 0 0 1 .677.283.92.92 0 0 1 .282.676.9.9 0 0 1-.133.48 1 1 0 0 1-.346.351.9.9 0 0 1-.48.128m7.412 6.914v-.959l3.601-3.942a24 24 0 0 0 1.044-1.203q.41-.517.608-.97a2.4 2.4 0 0 0 .202-.959 1.77 1.77 0 0 0-.277-.996 1.8 1.8 0 0 0-.746-.65 2.4 2.4 0 0 0-1.065-.229q-.629 0-1.097.261-.463.256-.72.719-.25.464-.25 1.087h-1.257q0-.959.442-1.683t1.204-1.129a3.6 3.6 0 0 1 1.721-.405q.958 0 1.699.405.74.404 1.161 1.092.42.687.421 1.528 0 .602-.219 1.178-.213.57-.745 1.273-.528.698-1.465 1.704l-2.451 2.621v.085h5.072V580zm12.577.149q-1.098 0-1.939-.389-.837-.393-1.305-1.081a2.7 2.7 0 0 1-.464-1.577 2.9 2.9 0 0 1 1.028-2.264 2.3 2.3 0 0 1 1.082-.506v-.064a2.1 2.1 0 0 1-1.247-.878 2.67 2.67 0 0 1-.458-1.551 2.64 2.64 0 0 1 .421-1.486 2.97 2.97 0 0 1 1.172-1.033q.752-.378 1.71-.378.947 0 1.694.378.745.378 1.172 1.033.431.656.436 1.486a2.7 2.7 0 0 1-.474 1.551 2.1 2.1 0 0 1-1.23.878v.064q.591.107 1.065.506.474.395.757.986.282.586.287 1.278a2.75 2.75 0 0 1-.479 1.577q-.47.687-1.305 1.081-.831.39-1.923.389m0-1.172q.74 0 1.278-.239.538-.24.831-.677a1.8 1.8 0 0 0 .298-1.023 1.96 1.96 0 0 0-.319-1.092 2.2 2.2 0 0 0-.858-.745 2.7 2.7 0 0 0-1.23-.272q-.698 0-1.247.272a2.16 2.16 0 0 0-.857.745q-.309.474-.304 1.092-.005.586.282 1.023.293.437.837.677.543.239 1.289.239m0-5.177q.586 0 1.038-.235.459-.234.72-.655.26-.42.266-.985a1.8 1.8 0 0 0-.261-.964 1.7 1.7 0 0 0-.709-.64 2.3 2.3 0 0 0-1.054-.229q-.614 0-1.071.229a1.66 1.66 0 0 0-.708.64 1.77 1.77 0 0 0-.245.964q-.005.564.25.985.261.421.719.655t1.055.235m9.435 6.349q-1.055 0-1.881-.362-.82-.362-1.305-1.007a2.7 2.7 0 0 1-.522-1.507h1.343q.042.527.362.911a2.1 2.1 0 0 0 .836.586q.517.207 1.145.207.704 0 1.247-.245.543-.244.852-.682.309-.436.309-1.012a1.9 1.9 0 0 0-.298-1.06q-.298-.463-.874-.724-.575-.261-1.406-.261h-.874v-1.172h.874a2.6 2.6 0 0 0 1.14-.234q.495-.235.772-.661.283-.426.283-1.001 0-.555-.246-.964a1.67 1.67 0 0 0-.692-.64 2.25 2.25 0 0 0-1.044-.229q-.565 0-1.065.208-.496.202-.81.591a1.54 1.54 0 0 0-.341.927h-1.278a2.6 2.6 0 0 1 .516-1.502 3.26 3.26 0 0 1 1.268-1.012 4.1 4.1 0 0 1 1.731-.362q1.013 0 1.737.41.724.405 1.113 1.071t.389 1.438q0 .921-.485 1.571a2.45 2.45 0 0 1-1.305.9v.086q1.034.17 1.614.879.58.702.581 1.741 0 .89-.485 1.598-.48.703-1.31 1.108t-1.891.405m13.407 3.09q-.91 0-1.566-.235a3.3 3.3 0 0 1-1.092-.607 3.3 3.3 0 0 1-.687-.799l1.001-.703q.171.223.432.511.261.294.713.506.459.219 1.199.219.991 0 1.635-.48.645-.479.645-1.502v-1.662h-.107a7 7 0 0 1-.394.554q-.25.325-.724.581-.469.25-1.268.25a3.4 3.4 0 0 1-1.779-.469q-.783-.468-1.241-1.363-.453-.895-.453-2.174 0-1.256.442-2.189.442-.937 1.231-1.449.787-.516 1.821-.516.799 0 1.268.266.474.261.724.597.256.33.395.543h.127v-1.3h1.215v8.416q0 1.055-.479 1.716a2.74 2.74 0 0 1-1.279.974 4.8 4.8 0 0 1-1.779.315m-.043-4.496q.757 0 1.279-.346t.793-.996q.273-.65.272-1.556 0-.884-.266-1.561-.267-.676-.789-1.06-.522-.383-1.289-.383-.798 0-1.331.405-.527.405-.794 1.086a4.2 4.2 0 0 0-.261 1.513q0 .852.266 1.508.272.65.799 1.022.533.368 1.321.368m-123.238 20.146q-.645 0-1.177-.314a2.44 2.44 0 0 1-.853-.852 2.3 2.3 0 0 1-.314-1.178q0-.65.314-1.177.32-.532.853-.847a2.24 2.24 0 0 1 1.177-.319q.65 0 1.177.319.532.315.847.847.32.528.319 1.177 0 .645-.319 1.178-.315.533-.847.852a2.26 2.26 0 0 1-1.177.314m9.758 3.111v-10.909h3.814q1.14 0 1.881.394.74.389 1.102 1.049.363.655.362 1.455 0 .702-.25 1.161-.245.458-.65.724a3 3 0 0 1-.868.394v.107q.5.031 1.007.352.505.32.847.916.34.596.34 1.459 0 .82-.372 1.476-.373.656-1.178 1.038-.804.384-2.093.384zm1.321-1.172h2.621q1.295 0 1.838-.501.548-.505.548-1.225 0-.554-.282-1.022a2.03 2.03 0 0 0-.804-.757q-.522-.288-1.236-.287h-2.685zm0-4.943h2.451q.596 0 1.076-.234.484-.235.767-.661.287-.426.287-1.001 0-.72-.5-1.22-.5-.506-1.588-.506h-2.493zm8.435 6.115v-10.909h6.584v1.172h-5.263v3.686h4.922v1.172h-4.922v3.707h5.348V602zm10.947 0-2.983-10.909h1.342l2.28 8.885h.106l2.323-8.885h1.491l2.323 8.885h.106l2.28-8.885h1.342L261.307 602h-1.363l-2.408-8.693h-.085L255.043 602zm15.751.149q-1.055 0-1.881-.362-.82-.362-1.305-1.007a2.7 2.7 0 0 1-.522-1.507h1.343q.042.527.362.911a2.1 2.1 0 0 0 .836.586 3 3 0 0 0 1.145.207q.704 0 1.247-.245.543-.244.852-.682.309-.436.309-1.012a1.9 1.9 0 0 0-.298-1.06q-.298-.463-.874-.724-.575-.261-1.406-.261h-.874v-1.172h.874a2.6 2.6 0 0 0 1.14-.234 1.84 1.84 0 0 0 .772-.661q.282-.426.282-1.001 0-.555-.245-.964a1.67 1.67 0 0 0-.692-.64 2.25 2.25 0 0 0-1.044-.229q-.566 0-1.065.208a2 2 0 0 0-.81.591 1.54 1.54 0 0 0-.341.927h-1.278a2.6 2.6 0 0 1 .516-1.502 3.25 3.25 0 0 1 1.268-1.012 4.1 4.1 0 0 1 1.731-.362q1.012 0 1.737.41.724.405 1.113 1.071t.389 1.438q0 .921-.485 1.571-.48.65-1.305.9v.086q1.034.17 1.614.879.58.702.581 1.741 0 .89-.485 1.598-.48.703-1.31 1.108-.832.405-1.891.405m10.573-6.189v1.171h-4.773v-1.171zm2.83 6.04h-1.385l4.006-10.909h1.363L290.824 602h-1.385l-3.26-9.183h-.085zm.511-4.261h5.583v1.172h-5.583zm9.178 4.261v-10.909h3.686q1.284 0 2.099.463.82.458 1.214 1.241a3.8 3.8 0 0 1 .395 1.748 3.86 3.86 0 0 1-.395 1.752q-.389.789-1.203 1.257-.816.464-2.088.464h-2.642v-1.172h2.599q.879 0 1.412-.304a1.8 1.8 0 0 0 .772-.82q.245-.522.245-1.177 0-.656-.245-1.172a1.75 1.75 0 0 0-.778-.81q-.537-.298-1.427-.298h-2.323V602zm9.522 0v-10.909h3.814q1.14 0 1.88.394.74.389 1.103 1.049.362.655.362 1.455 0 .702-.251 1.161-.245.458-.649.724a3 3 0 0 1-.869.394v.107q.501.031 1.007.352t.847.916.341 1.459q0 .82-.373 1.476t-1.177 1.038q-.804.384-2.094.384zm1.321-1.172h2.62q1.295 0 1.838-.501.549-.505.549-1.225 0-.554-.283-1.022a2.03 2.03 0 0 0-.804-.757q-.522-.288-1.236-.287h-2.684zm0-4.943h2.45q.596 0 1.076-.234.485-.235.767-.661.288-.426.288-1.001 0-.72-.501-1.22-.501-.506-1.587-.506h-2.493zm9.18 4.719a.92.92 0 0 1-.676-.282.92.92 0 0 1-.283-.676q0-.395.283-.677a.92.92 0 0 1 .676-.282q.395 0 .677.282a.92.92 0 0 1 .282.677.9.9 0 0 1-.133.479 1 1 0 0 1-.346.352.9.9 0 0 1-.48.127m0-5.518a.92.92 0 0 1-.676-.282.93.93 0 0 1-.283-.677q0-.394.283-.676a.92.92 0 0 1 .676-.283.92.92 0 0 1 .677.283.92.92 0 0 1 .282.676.9.9 0 0 1-.133.48 1 1 0 0 1-.346.351.9.9 0 0 1-.48.128m7.412 6.914v-.959l3.601-3.942a24 24 0 0 0 1.044-1.203 4.4 4.4 0 0 0 .607-.97q.203-.458.203-.959a1.77 1.77 0 0 0-.277-.996 1.8 1.8 0 0 0-.746-.65 2.4 2.4 0 0 0-1.065-.229q-.629 0-1.097.261-.464.256-.72.719-.25.464-.25 1.087h-1.257q0-.959.442-1.683t1.204-1.129a3.6 3.6 0 0 1 1.72-.405q.96 0 1.7.405.74.404 1.161 1.092.42.687.421 1.528 0 .602-.219 1.178-.213.57-.745 1.273-.528.698-1.465 1.704l-2.451 2.621v.085h5.071V602zm12.555-11.058q.671.005 1.343.255t1.225.831q.554.576.889 1.572.336.996.336 2.498 0 1.454-.277 2.583-.272 1.125-.788 1.897a3.5 3.5 0 0 1-1.247 1.172q-.73.399-1.651.399-.916 0-1.635-.362a3.2 3.2 0 0 1-1.172-1.017 3.54 3.54 0 0 1-.581-1.519h1.3q.176.751.698 1.242.527.484 1.39.484 1.263 0 1.992-1.102.735-1.103.735-3.116h-.085a3.4 3.4 0 0 1-.708.772 3.2 3.2 0 0 1-.911.501 3.2 3.2 0 0 1-1.066.175 3.3 3.3 0 0 1-1.72-.463 3.5 3.5 0 0 1-1.247-1.284q-.463-.82-.463-1.875 0-1 .447-1.832a3.46 3.46 0 0 1 1.268-1.332q.82-.495 1.928-.479m0 1.172q-.67 0-1.209.335-.532.33-.847.895a2.5 2.5 0 0 0-.309 1.241q0 .682.299 1.241.303.554.825.885.527.324 1.199.325.505 0 .943-.198a2.4 2.4 0 0 0 .761-.548q.331-.352.517-.794.186-.447.186-.932 0-.64-.308-1.199a2.46 2.46 0 0 0-.842-.905 2.2 2.2 0 0 0-1.215-.346m9.723-1.023V602h-1.321v-9.524h-.064l-2.663 1.768v-1.342l2.727-1.811zm10.68 14.148q-.91 0-1.566-.235a3.3 3.3 0 0 1-1.092-.607 3.3 3.3 0 0 1-.687-.799l1.001-.703q.171.223.432.511.261.294.714.506.457.219 1.198.219.992 0 1.635-.48.645-.479.645-1.502v-1.662h-.107a7 7 0 0 1-.394.554q-.25.325-.724.581-.469.25-1.268.25a3.4 3.4 0 0 1-1.779-.469q-.783-.468-1.241-1.363-.453-.895-.453-2.174 0-1.256.442-2.189.442-.937 1.231-1.449.788-.516 1.821-.516.8 0 1.268.266.474.261.724.597.256.33.395.543h.127v-1.3h1.215v8.416q0 1.055-.479 1.716a2.74 2.74 0 0 1-1.279.974 4.8 4.8 0 0 1-1.779.315m-.043-4.496q.757 0 1.279-.346t.793-.996.272-1.556q0-.884-.266-1.561-.267-.676-.789-1.06-.522-.383-1.289-.383-.798 0-1.331.405-.527.405-.794 1.086a4.2 4.2 0 0 0-.261 1.513q0 .852.266 1.508.272.65.799 1.022.533.368 1.321.368"/><path fill="#fff" d="M327.54 507.44h.07s.32 3.43.32 3.49.03.39.07.49.2.3.42.37c0 0 .28.12.8.02l.19-.04c13.06-2.26 19.99-14.41 19.99-23.32V148.27c0-13.35-10.92-24.27-24.27-24.27h-72.86c-13.35 0-24.27 10.92-24.27 24.27v340.19c0 13.35 10.4 23.74 23.74 23.74h7.58c.49 0 5.08-.78 5.23-.8s1.45-.14 2.3-.14h16.99s.77 0 .93.01.96.06 1.26.11 3.47.54 3.53.55 1.16.18 1.21.19.43.06.71.06h12.61c.05 0 .66 0 .85-.17 0 0 .15-.12.19-.17s.12-.24.14-.45l.39-4.23v-.17h6.52s3.49.11 5.56-.34v.22c0 .03 0 .2.17.38 0 0 .05.05.16.12s.2.07.35.07h5.85c.08 0 .86-.01 1.1-.02s.94-.02 1.08-.02.82 0 1.08.04z"/><path stroke="#231815" stroke-linecap="round" stroke-linejoin="round" stroke-width=".25" d="m291.19 512.17.19.01M290.61 512.09l.28.04.3.04M288.7 511.8l1.91.29M260.09 512.09l4.42-.69M259.51 512.17l.3-.04.28-.04M259.32 512.18l.19-.01M228.03 487.91l.25 3.49.87 3.79 1.45 3.6 2.02 3.32 2.51 2.95 2.95 2.52 3.32 2.01 3.6 1.47 3.79.86 3.52.26M329.29 511.82l3.35-.84 3.55-1.48 3.27-2.02 2.91-2.52 2.48-2.94 1.98-3.3 1.44-3.57.85-3.75.25-3.49M304.06 512.18h.03l.27-.01.23-.03.19-.05.19-.09.17-.15.11-.22.02-.1M252.31 512.18h7.01M291.38 512.18h12.68"/><path stroke="#898989" stroke-linecap="round" stroke-linejoin="round" stroke-width=".25" d="m253.12 506.8.91.1 1.32.08.99.02"/><circle cx="253.12" cy="506.8" r=".125" fill="#898989"/><path stroke="#898989" stroke-linecap="round" stroke-linejoin="round" stroke-width=".25" d="m250.63 505.53.11.33.33.31.54.27.78.23.73.13M250.63 505.52v.01M250.63 502.87v2.65M259.08 507v.22M317.5 506.72l.85-.19.58-.23.38-.28.15-.38M259.45 506.99l-.07.01"/><path stroke="#231815" stroke-linecap="round" stroke-linejoin="round" stroke-width=".25" d="m254.03 502.6.6-.04 1.04-.03.67-.01"/><path stroke="#898989" stroke-linecap="round" stroke-linejoin="round" stroke-width=".25" d="M325.18 507.43h.07l.5-.02.48-.01h.44l.38.01.32.02.24.02M285.54 507.74l.36-.01.27-.04.22-.05.18-.08.14-.16.05-.17M317.5 506.72l-1.12.15-1.38.1-1.25.03M257.28 508.22l.2-.03.17-.04.14-.05.13-.09.1-.14.03-.13M324.26 507.45h.17l.56-.01.19-.01M260.3 507.74h25.24M318.37 507.45h5.89M256.34 507h3.04M286.46 507h27.29"/><path stroke="#231815" stroke-linecap="round" stroke-linejoin="round" stroke-width=".25" d="M256.34 502.52h57.41"/><path stroke="#898989" stroke-linecap="round" stroke-linejoin="round" stroke-width=".25" d="m313.75 502.52 1 .01 1.3.07 1.15.1.98.13.78.15.5.14M286.39 506.99l.07.01M259.08 507.23l.04.16.15.17.17.08.21.05.27.03.32.02h.06M287.79 507.74l-.04-.74M286.76 507.22V507M258.09 507l-.04.74"/><path stroke="#231815" stroke-linecap="round" stroke-linejoin="round" stroke-width=".25" d="m328.01 511.43.13.21.19.13.2.07.2.02h.23l.26-.03.07-.01"/><path stroke="#898989" stroke-linecap="round" stroke-linejoin="round" stroke-width=".25" d="m287.79 507.74.04.14.11.15.14.08.16.06.2.03.23.03"/><path stroke="#231815" stroke-linecap="round" stroke-linejoin="round" stroke-width=".25" d="m327.96 511.2.01.06M327.75 508.89l.21 2.31M327.71 508.49l.04.4M327.62 507.45l.09 1.04"/><path stroke="#898989" stroke-linecap="round" stroke-linejoin="round" stroke-width=".25" d="M317.76 506.66v.2M319.46 503.12v2.52"/><path stroke="#231815" stroke-linecap="round" stroke-linejoin="round" stroke-width=".25" d="M305.67 507.23V507"/><circle cx="319.46" cy="505.64" r=".125" fill="#898989"/><path stroke="#231815" stroke-linecap="round" stroke-linejoin="round" stroke-width=".25" d="m305.27 511.53.4-4.3"/><path stroke="#898989" stroke-linecap="round" stroke-linejoin="round" stroke-width=".25" d="m250.63 502.87.47-.06.65-.06.77-.06.89-.05.62-.04"/><path stroke="#231815" stroke-linecap="round" stroke-linejoin="round" stroke-width=".25" d="m327.97 511.26.04.17"/><path stroke="#898989" stroke-linecap="round" stroke-linejoin="round" stroke-width=".25" d="M317.76 506.86c0 .33.28.59.61.59"/><path stroke="#231815" stroke-linecap="round" stroke-linejoin="round" stroke-width=".25" d="m286.18 511.4 2.52.4M264.51 511.4l.61-.07.69-.05.73-.01M266.54 511.27h17.62M284.16 511.27l.72.01.69.05.61.07"/><path stroke="#000" stroke-linecap="round" stroke-linejoin="round" d="M327.54 507.44h.07s.32 3.43.32 3.49.03.39.07.49.2.3.42.37c0 0 .28.12.8.02l.19-.04c13.06-2.26 19.99-14.41 19.99-23.32V148.27c0-13.35-10.92-24.27-24.27-24.27h-72.86c-13.35 0-24.27 10.92-24.27 24.27v340.19c0 13.35 10.4 23.74 23.74 23.74h7.58c.49 0 5.08-.78 5.23-.8s1.45-.14 2.3-.14h16.99s.77 0 .93.01.96.06 1.26.11 3.47.54 3.53.55 1.16.18 1.21.19.43.06.71.06h12.61c.05 0 .66 0 .85-.17 0 0 .15-.12.19-.17s.12-.24.14-.45l.39-4.23v-.17h6.52s3.49.11 5.56-.34v.22c0 .03 0 .2.17.38 0 0 .05.05.16.12s.2.07.35.07h5.85c.08 0 .86-.01 1.1-.02s.94-.02 1.08-.02.82 0 1.08.04z"/><path stroke="#000" stroke-linecap="round" stroke-linejoin="round" stroke-width=".5" d="M323.06 142.65h-68.69c-10.852 0-19.65 8.798-19.65 19.65v311.55c0 10.852 8.798 19.65 19.65 19.65h68.69c10.852 0 19.65-8.798 19.65-19.65V162.3c0-10.852-8.798-19.65-19.65-19.65"/><path stroke="#898989" stroke-linecap="round" stroke-linejoin="round" stroke-width=".25" d="M324.27 140.66h-71.11c-11.228 0-20.33 9.102-20.33 20.33v314.55c0 11.228 9.102 20.33 20.33 20.33h71.11c11.228 0 20.33-9.102 20.33-20.33V160.99c0-11.228-9.102-20.33-20.33-20.33"/><path stroke="#000" stroke-linecap="round" stroke-linejoin="round" stroke-width=".5" d="M249.86 175.47a4.25 4.25 0 1 0 0-8.5 4.25 4.25 0 0 0 0 8.5M327.54 175.47a4.25 4.25 0 1 0 0-8.5 4.25 4.25 0 0 0 0 8.5"/><path fill="url(#a)" d="M325.63 205.45h-73.85v38.11h73.85z"/><path fill="#4c4948" d="M289.71 352.69c-1.23-.85-2.46-1.7-3.69-2.54-.6-.41-1-1.04-1.13-1.75s.02-1.44.43-2.04a2.717 2.717 0 0 1 3.78-.7l7.07 4.88a.66.66 0 1 1-.75 1.09c-2.35-1.63-4.71-3.25-7.07-4.87a1.4 1.4 0 0 0-2.17 1.41c.07.37.27.69.58.9 1.32.91 2.63 1.82 3.95 2.72.18.12.28.32.29.53.02.6.21 1.41.4 1.97.21.64.5 1.25.84 1.83.7 1.17 1.63 2.14 2.74 2.92.3.21.37.62.16.92-.12.18-.32.28-.54.28-.14 0-.27-.04-.38-.12a10.9 10.9 0 0 1-3.05-3.23c-.76-1.24-1.31-2.75-1.46-4.2"/><path fill="#4c4948" d="M285.23 360.84c-.64 0-1.22-.34-1.53-.9l-8.52-15.18a1.763 1.763 0 0 1 .67-2.4l8.79-4.95c.41-.23.88-.29 1.34-.16.45.13.83.42 1.06.83 1.3 2.32 2.61 4.64 3.91 6.96.09.15.11.33.06.5a.657.657 0 0 1-1.21.15c-1.3-2.32-2.61-4.64-3.91-6.96a.45.45 0 0 0-.26-.21.45.45 0 0 0-.34.04l-8.79 4.95a.44.44 0 0 0-.21.27c-.03.11-.02.23.04.33l8.52 15.18c.12.21.39.29.6.17 1.46-.83 2.91-1.67 4.36-2.5.32-.18.72-.07.9.24.09.15.11.33.06.5a.7.7 0 0 1-.31.4c-1.46.84-2.91 1.67-4.37 2.51-.26.15-.56.23-.86.23M293.21 343.05c-.79.15-1.58.29-2.37.44-.36.07-.7-.17-.77-.53a.65.65 0 0 1 .1-.49c.1-.14.25-.24.42-.27.9-.17 1.8-.33 2.7-.5.21-.04.42.03.57.17 2.71 2.57 5.42 5.14 8.12 7.71q.135.12.18.3c.39 1.39.47 3.36.37 4.79-.12 1.61-.47 3.18-1.05 4.69-.1.25-.34.42-.62.42a.684.684 0 0 1-.6-.4.62.62 0 0 1 0-.5c.99-2.56 1.31-5.77.69-8.47l-7.74-7.35z"/><path fill="#898989" d="M275.48 464.16v4.03c0 .26 0 .66-.21.88-.15.15-.4.23-.74.23h-1.08c-.18 0-.48 0-.7-.21-.18-.18-.27-.48-.27-.89v-4.03h-1.35v4.05c0 .4.1 2.42 2.01 2.42h1.77c.72 0 1.93-.32 1.93-2.43v-4.05zM268 466.53l-1.47-.18c-.35-.06-.67-.14-.67-.52 0-.6.17-.76 1.37-.76h.3c.71.03 1.36.1 2.17.32l.1.03v-.95c-.12-.24-1.23-.62-2.31-.61h-.3c-1.82 0-2.71.68-2.71 2.07 0 1.34 1.12 1.62 2.17 1.78l.65.09c.48.06.75.1.92.17.28.11.44.21.43.65 0 .74-.5.82-1.57.82h-.3c-.63 0-1.39-.18-2.2-.51l-.11-.05v.91c0 .37 1.11.83 2.36.83h.27c2.03 0 2.98-.69 2.98-2.16 0-1.42-1.06-1.78-2.1-1.94M281.45 463.85h-.2c-2.46 0-3.37.93-3.37 3.42v3.36h1.44v-3.36c0-1.89.42-2.21 1.68-2.21h.32c1.22 0 1.45.35 1.45 1.23 0 .54-.18 1.16-.67 1.16l-2.26-.04v.99l.07.01c.46.08 1.26.13 1.87.13 2.11 0 2.46-1.16 2.46-2.13 0-1.6-1.04-2.56-2.79-2.56M289.07 463.94c-.37-.06-1.25-.09-1.69-.09-.79 0-2.11.32-2.11 2.47v4.32h1.41v-4.23c0-1.14.2-1.25 1.09-1.26h1.29v-1.21zM293.42 469.39h-.27c-1.19 0-1.92-.14-1.92-2.11 0-1.88.42-2.2 1.69-2.2h.32c1.19 0 1.45.19 1.45 1.09 0 .45-.2.64-.67.64h-2.26v.95h.06c.45.09 1.26.14 1.88.14.92 0 2.45-.18 2.45-1.94s-1.51-2.1-2.78-2.1h-.2c-2.46 0-3.38.93-3.38 3.42 0 2.38.94 3.35 3.23 3.35h.17c1.45 0 2.68-.39 2.68-.84V469l-.1.03c-.84.22-1.5.36-2.36.36M305.64 466.36c0-1.17-.44-1.77-.92-2.08 0 0-.52-.39-1.44-.39-.45 0-.8.06-1.08.15a1.73 1.73 0 0 0-.8.47s-.49-.63-1.88-.62c-.61 0-1.04.17-1.26.28 0 0-.02 0-.02.01-.01 0-.02.01-.03.02-.91.49-1.03 1.61-1.03 2.17v4.27h1.28v-4.27c0-.64.13-1.24 1.09-1.24 1 0 1.19.45 1.19 1.24v4.27h1.32v-4.27c0-.85.35-1.25 1.1-1.25.82 0 1.18.38 1.18 1.25v4.27h1.29v-4.27zM309.42 465.1h.27c1.19 0 1.92.14 1.92 2.11 0 1.88-.42 2.2-1.69 2.2h-.32c-1.19 0-1.45-.19-1.45-1.09 0-.45.2-.64.67-.64h2.26v-.95h-.06c-.45-.09-1.26-.14-1.88-.14-.92 0-2.45.18-2.45 1.94s1.51 2.1 2.78 2.1h.2c2.46 0 3.38-.93 3.38-3.42 0-2.38-.94-3.35-3.23-3.35h-.17c-1.45 0-2.68.39-2.68.84v.79l.1-.03c.84-.22 1.5-.36 2.36-.36"/><path stroke="#000" stroke-linecap="round" stroke-linejoin="round" stroke-width=".5" d="M228 478.25c0 13.35 10.92 24.27 24.27 24.27h72.86c13.35 0 24.27-10.92 24.27-24.27M325.63 205.45h-73.85v38.11h73.85z"/><path stroke="#231815" stroke-linecap="round" stroke-linejoin="round" stroke-width=".5" d="M270.49 182.75c6.368 0 11.53-5.162 11.53-11.53s-5.162-11.53-11.53-11.53-11.53 5.162-11.53 11.53 5.162 11.53 11.53 11.53"/><path fill="#b5b5b6" stroke="#b5b5b6" stroke-miterlimit="10" stroke-width=".02" d="M270.49 173.48a2.26 2.26 0 1 0 0-4.52 2.26 2.26 0 0 0 0 4.52Z"/><path stroke="#231815" stroke-miterlimit="10" stroke-width=".25" d="M270.49 177.97a6.75 6.75 0 1 0 0-13.5 6.75 6.75 0 0 0 0 13.5Z"/><path stroke="#b5b5b6" stroke-miterlimit="10" stroke-width=".25" d="M270.49 178.9a7.68 7.68 0 1 0-.001-15.361 7.68 7.68 0 0 0 .001 15.361Z"/><path stroke="#231815" stroke-linecap="round" stroke-linejoin="round" stroke-width=".5" d="M306.91 182.75c6.368 0 11.53-5.162 11.53-11.53s-5.162-11.53-11.53-11.53-11.53 5.162-11.53 11.53 5.162 11.53 11.53 11.53"/><path fill="#b5b5b6" stroke="#b5b5b6" stroke-miterlimit="10" stroke-width=".02" d="M306.91 173.48a2.26 2.26 0 1 0 0-4.52 2.26 2.26 0 0 0 0 4.52Z"/><path stroke="#231815" stroke-miterlimit="10" stroke-width=".25" d="M306.91 177.97a6.75 6.75 0 1 0 0-13.5 6.75 6.75 0 0 0 0 13.5Z"/><path stroke="#b5b5b6" stroke-miterlimit="10" stroke-width=".25" d="M306.91 178.9a7.68 7.68 0 1 0 0-15.36 7.68 7.68 0 0 0 0 15.36Z"/><path stroke="#000" stroke-linecap="round" stroke-linejoin="round" stroke-width=".5" d="M325.79 488.23h-74.15c-6.52 0-12.31-3.23-15.89-8.16 2.62 7.78 9.98 13.42 18.61 13.42h68.7c8.63 0 15.99-5.65 18.61-13.42-3.58 4.93-9.37 8.16-15.89 8.16z"/><path stroke="#898989" stroke-linecap="round" stroke-linejoin="round" stroke-width=".25" d="M302.01 508.22H252.3a.42.42 0 0 0-.42.415c0 .229.188.415.42.415h49.71c.232 0 .42-.186.42-.415a.42.42 0 0 0-.42-.415"/><path fill="#000" d="M512.146 93.646a.5.5 0 0 0 0 .708l3.182 3.182a.501.501 0 0 0 .708-.708L513.207 94l2.829-2.828a.5.5 0 0 0-.708-.707zm81.708.708a.5.5 0 0 0 0-.707l-3.182-3.183a.501.501 0 0 0-.708.708L592.793 94l-2.829 2.828a.5.5 0 0 0 .708.707zM512.5 94v.5h81v-1h-81z"/><path stroke="#000" d="M511.5 90v8M594.5 90v8"/><path fill="#000" d="M502.516 62.635h9.06v1.02h-9.06zm-1.695 2.79h12.3v1.02h-12.3zm5.505.57h1.23v5.13h-1.23zm-3.81-7.605h8.88v1.02h-7.62v3.72h-1.26zm14.384.84h1.065q0 1.08-.105 2.22-.09 1.125-.345 2.25-.24 1.11-.705 2.19-.45 1.08-1.185 2.07l-.975-.57q.705-.9 1.14-1.875.45-.975.69-1.995.24-1.035.33-2.085.09-1.065.09-2.115zm-1.965 0h2.58v1.02h-2.58zm4.95 0h1.065q0 1.065-.075 2.28-.06 1.215-.285 2.49a13 13 0 0 1-.675 2.505 9.6 9.6 0 0 1-1.275 2.325l-.975-.57q.615-.81 1.02-1.695.42-.9.66-1.83.24-.945.36-1.86.12-.93.15-1.83t.03-1.725zm-1.485 0h2.145v1.02H518.4zm6.615-1.635h1.2V71.17h-1.2zm-4.695 5.325h2.445v1.035h-2.445zm2.19-4.965h1.17V70.48h-1.17zm7.24 10.65a.92.92 0 0 1-.676-.283.92.92 0 0 1-.282-.676q0-.395.282-.677a.92.92 0 0 1 .676-.282q.395 0 .677.282a.92.92 0 0 1 .282.677.997.997 0 0 1-.479.831.9.9 0 0 1-.48.127m0-5.52a.92.92 0 0 1-.676-.281.92.92 0 0 1-.282-.677q0-.394.282-.676a.92.92 0 0 1 .676-.283q.395 0 .677.283a.92.92 0 0 1 .282.676.997.997 0 0 1-.479.831.9.9 0 0 1-.48.128m11.099 7.064q-1.055 0-1.881-.362-.82-.362-1.305-1.007a2.7 2.7 0 0 1-.522-1.507h1.342q.043.527.363.91.32.38.836.586.516.208 1.145.208.703 0 1.247-.245.543-.244.852-.682.309-.436.309-1.012 0-.6-.298-1.06-.298-.463-.874-.724-.575-.261-1.406-.261h-.874V63.82h.874q.65 0 1.14-.234.495-.236.772-.66.282-.427.282-1.002 0-.555-.245-.964a1.67 1.67 0 0 0-.692-.64q-.443-.228-1.044-.229-.565 0-1.065.208a2 2 0 0 0-.81.591q-.314.384-.341.927h-1.278a2.6 2.6 0 0 1 .516-1.502q.485-.65 1.268-1.012a4.1 4.1 0 0 1 1.731-.362q1.012 0 1.737.41.725.405 1.113 1.07.389.667.389 1.439 0 .921-.485 1.571a2.46 2.46 0 0 1-1.305.9v.086q1.033.17 1.614.878.58.704.581 1.742 0 .89-.485 1.598-.48.704-1.31 1.108-.832.405-1.891.405m5.609-2.386v-1.087l4.794-7.585h.788v1.683h-.533l-3.622 5.732v.085h6.456v1.172zM551.593 70V59.091h1.257V70zm5.169.085a.92.92 0 0 1-.676-.282.92.92 0 0 1-.283-.677.92.92 0 0 1 .283-.676.92.92 0 0 1 .676-.282q.394 0 .677.282a.92.92 0 0 1 .282.676.9.9 0 0 1-.133.48 1 1 0 0 1-.347.351.9.9 0 0 1-.479.128m5.725-10.994V70h-1.321v-9.524h-.064l-2.663 1.768v-1.342l2.727-1.811zm6.546 11.058a3.74 3.74 0 0 1-1.688-.373 3.14 3.14 0 0 1-1.204-1.022 2.8 2.8 0 0 1-.495-1.481h1.278q.075.74.671 1.225.603.48 1.438.48a2.27 2.27 0 0 0 1.194-.315q.526-.314.825-.863.304-.555.304-1.252 0-.714-.314-1.273a2.3 2.3 0 0 0-.853-.89 2.4 2.4 0 0 0-1.241-.33 3.4 3.4 0 0 0-1.028.155 2.9 2.9 0 0 0-.868.4l-1.236-.15.661-5.37h5.667v1.173h-4.559l-.384 3.217h.064q.336-.266.842-.442a3.2 3.2 0 0 1 1.054-.176q1.002 0 1.785.48.788.474 1.236 1.3.452.825.452 1.885 0 1.044-.468 1.864a3.43 3.43 0 0 1-1.279 1.29q-.814.468-1.854.468M578.99 70v-8.182h1.215v1.279h.106a2.06 2.06 0 0 1 .826-1.018q.57-.367 1.369-.367.81 0 1.348.367.543.362.847 1.018h.085q.314-.635.943-1.007.628-.378 1.507-.378 1.098 0 1.795.687.698.681.698 2.125V70h-1.257v-5.476q0-.906-.495-1.294a1.84 1.84 0 0 0-1.167-.39q-.863 0-1.337.523-.474.516-.474 1.31V70h-1.278v-5.604q0-.698-.453-1.124-.453-.43-1.167-.431-.49 0-.916.26a1.97 1.97 0 0 0-.682.725q-.255.46-.255 1.06V70zm13.038 0v-8.182h1.214v1.279h.107q.255-.655.825-1.018.57-.367 1.369-.367.81 0 1.348.367.543.362.847 1.018h.085q.314-.635.943-1.007.628-.378 1.507-.378 1.098 0 1.795.687.698.681.698 2.125V70h-1.257v-5.476q0-.906-.495-1.294a1.84 1.84 0 0 0-1.167-.39q-.863 0-1.337.523-.474.516-.474 1.31V70h-1.278v-5.604q0-.698-.453-1.124-.453-.43-1.167-.431-.49 0-.916.26-.42.262-.682.725-.255.46-.255 1.06V70z"/><path stroke="#040000" stroke-miterlimit="2" d="M593.86 487.94V124M512.67 139.16l-1.62 2.43M512.67 497.05l-1.62-2.44M568.39 507.47l-55.57-10.32M593.86 512.2l-25.26-4.69M568.39 507.47l.21.04M511 494.48V141.72M593.86 512.2v-24.26M593.86 124l-81.04 15.05M511 494.48s.01.09.04.13M511.05 141.59s-.04.09-.04.13M512.82 139.05c-.06.01-.12.05-.16.1M512.67 497.05c.04.05.09.09.16.1"/><path fill="#000" d="M773.126 551.47h12.3v1.02h-12.3zm5.505.63h1.23v5.055h-1.23zm-3.93-7.755h9.15v5.295h-9.15zm7.92 1.005h-6.705v3.3h6.705zm14.654-1.755h1.2v13.575h-1.2zm-5.895 5.55h3.42v1.005h-3.42zm3.075-5.19h1.17v12.525h-1.17zm-2.91 1.365h1.2q0 1.77-.51 3.405a9.1 9.1 0 0 1-1.62 3.03q-1.125 1.395-2.955 2.49l-.72-.9q1.59-.96 2.61-2.16a8.2 8.2 0 0 0 1.5-2.625q.495-1.425.495-3.015zm-4.02 0h4.485v1.02h-4.485zm14.531 9.284a.92.92 0 0 1-.677-.282.92.92 0 0 1-.282-.676q0-.395.282-.677a.92.92 0 0 1 .677-.282q.394 0 .676.282a.92.92 0 0 1 .282.677.9.9 0 0 1-.133.479 1 1 0 0 1-.346.352.9.9 0 0 1-.479.127m0-5.518a.92.92 0 0 1-.677-.282.93.93 0 0 1-.282-.677q0-.394.282-.676a.92.92 0 0 1 .677-.283.92.92 0 0 1 .676.283.92.92 0 0 1 .282.676.994.994 0 0 1-.479.831.9.9 0 0 1-.479.128m11.098 7.063q-1.055 0-1.881-.362-.819-.362-1.305-1.007a2.7 2.7 0 0 1-.522-1.507h1.343q.042.527.362.911a2.1 2.1 0 0 0 .836.586q.517.207 1.145.207.704 0 1.247-.245.543-.244.852-.682.309-.436.309-1.012a1.9 1.9 0 0 0-.298-1.06q-.298-.463-.874-.724-.575-.261-1.406-.261h-.874v-1.172h.874a2.6 2.6 0 0 0 1.14-.234q.496-.235.772-.661.283-.426.283-1.001 0-.555-.245-.964a1.7 1.7 0 0 0-.693-.64 2.25 2.25 0 0 0-1.044-.229q-.565 0-1.065.208-.496.202-.81.591a1.55 1.55 0 0 0-.341.927h-1.278a2.6 2.6 0 0 1 .516-1.502 3.26 3.26 0 0 1 1.268-1.012 4.1 4.1 0 0 1 1.731-.362q1.013 0 1.737.41.724.405 1.113 1.071t.389 1.438q0 .921-.485 1.571a2.45 2.45 0 0 1-1.305.9v.086q1.034.17 1.614.879.58.702.581 1.741 0 .89-.485 1.598-.48.703-1.31 1.108-.832.405-1.891.405m9.487 0a4 4 0 0 1-1.343-.256 3.2 3.2 0 0 1-1.225-.825q-.554-.586-.889-1.582-.336-1.002-.336-2.514 0-1.449.272-2.568.272-1.123.788-1.891.517-.772 1.246-1.172a3.4 3.4 0 0 1 1.657-.399q.916 0 1.63.367.719.363 1.172 1.012.453.651.586 1.497h-1.3a2.4 2.4 0 0 0-.703-1.22q-.522-.484-1.385-.484-1.268 0-1.997 1.102-.725 1.103-.73 3.095h.085a3.2 3.2 0 0 1 1.625-1.273 3.2 3.2 0 0 1 1.06-.176q.937 0 1.715.469.778.463 1.246 1.284.47.815.469 1.869 0 1.012-.453 1.854a3.45 3.45 0 0 1-1.273 1.332q-.815.49-1.917.479m0-1.172q.67 0 1.203-.335.538-.336.847-.901.315-.564.315-1.257a2.5 2.5 0 0 0-.304-1.23 2.3 2.3 0 0 0-.826-.89 2.2 2.2 0 0 0-1.193-.33q-.505 0-.943.203a2.4 2.4 0 0 0-.767.543 2.6 2.6 0 0 0-.511.794 2.527 2.527 0 0 0 .117 2.146 2.5 2.5 0 0 0 .842.911q.537.346 1.22.346m13.28 4.262q-.91 0-1.566-.235a3.3 3.3 0 0 1-1.092-.607 3.4 3.4 0 0 1-.687-.799l1.002-.703q.17.223.431.511.261.294.714.506.458.219 1.198.219.991 0 1.636-.48.644-.479.644-1.502v-1.662h-.106a7 7 0 0 1-.394.554q-.25.325-.725.581-.468.25-1.268.25-.99 0-1.779-.469-.783-.468-1.241-1.363-.453-.895-.453-2.174 0-1.256.442-2.189.442-.937 1.231-1.449.788-.516 1.822-.516.799 0 1.267.266.474.261.725.597.255.33.394.543h.128v-1.3h1.214v8.416q0 1.055-.479 1.716a2.73 2.73 0 0 1-1.278.974 4.8 4.8 0 0 1-1.78.315m-.042-4.496q.756 0 1.278-.346t.794-.996.272-1.556q0-.884-.267-1.561a2.34 2.34 0 0 0-.788-1.06q-.522-.383-1.289-.383-.8 0-1.332.405-.527.405-.794 1.086a4.2 4.2 0 0 0-.261 1.513q0 .852.267 1.508.271.65.799 1.022.532.368 1.321.368m-87.84 14.655q0-2.014.522-3.702.528-1.695 1.503-3.116h1.108a7 7 0 0 0-.72 1.299 13 13 0 0 0-.58 1.689 16 16 0 0 0-.394 1.896 14 14 0 0 0-.139 1.934q0 1.267.245 2.573.246 1.304.661 2.423t.927 1.822h-1.108a11.6 11.6 0 0 1-1.503-3.111q-.522-1.694-.522-3.707m8.022-.948h1.245v3.225h-1.245zm.615-5.97q1.035 0 1.845.405.81.39 1.275 1.11t.465 1.68q0 .93-.465 1.665a3.17 3.17 0 0 1-1.275 1.125q-.81.39-1.845.39-1.05 0-1.86-.39a3.17 3.17 0 0 1-1.275-1.125 3.05 3.05 0 0 1-.465-1.665q0-.96.465-1.68t1.275-1.11q.81-.405 1.86-.405m0 1.065q-.69 0-1.23.27-.54.255-.855.735-.3.48-.3 1.125 0 .63.3 1.11.315.48.855.75t1.23.27 1.215-.27q.54-.27.84-.75.315-.48.315-1.11a2 2 0 0 0-1.155-1.86q-.525-.27-1.215-.27m5.13-1.95h1.23v13.575h-1.23zm.885 5.595h2.505v1.05h-2.505zm-10.035 5.04-.195-1.035 2.67-.03q1.455-.015 2.94-.105 1.5-.09 2.88-.27l.09.93q-1.425.24-2.91.36-1.485.105-2.895.135-1.395.015-2.58.015m23.684-10.635h1.245v13.59h-1.245zm-2.94 2.955h3.6v1.035h-3.6zm0 3.36h3.6v1.05h-3.6zm-3.48-5.145h1.02v2.43q0 1.125-.285 2.22a9.2 9.2 0 0 1-.795 2.025 7.6 7.6 0 0 1-1.185 1.68q-.675.735-1.485 1.17l-.78-.99q.75-.36 1.38-1.005.645-.645 1.125-1.47.48-.84.735-1.755.27-.93.27-1.875zm.255 0h1.005v2.43q0 .915.255 1.83.27.9.75 1.695t1.11 1.41q.645.615 1.38.975l-.75 1.005a5.8 5.8 0 0 1-1.515-1.125 8.3 8.3 0 0 1-1.185-1.635q-.495-.915-.78-1.98a8.8 8.8 0 0 1-.27-2.175zm14.972-.285h6.33v5.535h-6.33zm5.115.99h-3.9v3.555h3.9zm4.05-1.875h1.245v7.785h-1.245zm-3.69 9.405h1.065v.255q0 .735-.42 1.38-.405.63-1.125 1.155-.72.51-1.65.84a9.6 9.6 0 0 1-1.95.495l-.435-.96a8.7 8.7 0 0 0 2.61-.75q.57-.285.99-.63.435-.345.675-.735a1.5 1.5 0 0 0 .24-.795zm.195 0h1.08v.255q0 .48.36.96t.975.885q.63.39 1.425.675.81.285 1.695.39l-.435.96q-1.035-.15-1.95-.495a6.9 6.9 0 0 1-1.635-.87q-.705-.525-1.11-1.155-.405-.645-.405-1.35zm-4.17-.69h9.225v.96h-9.225zm3.99-1.32h1.26v1.755h-1.26zm13.443-7.185h1.23v1.275h6.57v-1.275h1.23v4.485h-9.03zm1.23 2.22v1.29h6.57v-1.29zm-2.85 3.57h12.255v1.005H802.46zm5.49-1.77h1.23v2.085h-1.23zm-4.005 3.885h9.195v3.03h-7.95v1.665h-1.215v-2.565h7.95v-1.185h-7.98zm.03 4.335h9.57v.975h-9.57zm13.859-5.13h9.315v1.005h-9.315zm-1.575 3.465h12.3v1.035h-12.3zm1.575-9.615h9.18v1.02h-7.92v5.43h-1.26zm.87 3.015h8.01v1.005h-8.01zm15.572 6.66h12.3v1.05h-12.3zm5.49-3.51h1.23v3.975h-1.23zm-4.41-6.03h10.065v1.02h-10.065zm.03 5.46h10.005v.99h-10.005zm2.07-4.65h1.245v4.815h-1.245zm4.62 0h1.23v4.815h-1.23zm15.284-2.115h1.245v8.175h-1.245zm.9 3.6h2.34v1.05h-2.34zm-8.175 5.34h8.52v4.455h-8.52zm7.29 1.005H851.3v2.43h6.075zm-9.27-8.505h8.01v1.005h-8.01zm4.005 1.68q.975 0 1.695.3.735.3 1.14.855.405.54.405 1.26 0 .735-.405 1.275t-1.14.84q-.72.3-1.695.3t-1.71-.3q-.72-.3-1.14-.84a2.07 2.07 0 0 1-.405-1.275q0-.72.405-1.26.42-.555 1.14-.855.735-.3 1.71-.3m0 .96q-.93 0-1.5.39-.555.39-.555 1.065t.555 1.08q.57.39 1.5.39.915 0 1.485-.39.57-.405.57-1.08t-.57-1.065q-.555-.39-1.485-.39m-.615-4.185h1.245v2.055h-1.245zm13.464 7.908q0 2.013-.527 3.707a11.4 11.4 0 0 1-1.497 3.111h-1.108q.384-.528.714-1.3.336-.767.586-1.683.25-.921.389-1.902a13.4 13.4 0 0 0-.101-4.506 15 15 0 0 0-.661-2.424q-.415-1.118-.927-1.821h1.108q.975 1.421 1.497 3.116.527 1.688.527 3.702M767.167 65.595h1.245v13.56h-1.245zm.915 5.505h2.49v1.035h-2.49zm-4.38-4.05h1.215q0 1.935-.63 3.705-.63 1.755-1.98 3.255-1.35 1.485-3.555 2.58l-.69-.96q1.89-.945 3.135-2.205 1.26-1.275 1.875-2.82.63-1.56.63-3.36zm-5.01 0h5.64v1.035h-5.64zm13.094 9.405h12.3v1.035h-12.3zm5.505-2.895h1.23v3.33h-1.23zm-4.005-6.96h9.27v4.11h-8.01v2.715h-1.23V69.72h8.01v-2.1h-8.04zm.03 6.3h9.555v1.02h-9.555zm13.586 3.704a.92.92 0 0 1-.677-.282.92.92 0 0 1-.282-.676q0-.395.282-.677a.92.92 0 0 1 .677-.282q.394 0 .676.282a.92.92 0 0 1 .283.677.9.9 0 0 1-.134.479 1 1 0 0 1-.346.352.9.9 0 0 1-.479.127m0-5.518a.92.92 0 0 1-.677-.282.92.92 0 0 1-.282-.677q0-.394.282-.676a.92.92 0 0 1 .677-.283q.394 0 .676.283a.92.92 0 0 1 .283.676.9.9 0 0 1-.134.48 1 1 0 0 1-.346.351.9.9 0 0 1-.479.128M798 78.149q-1.055 0-1.88-.362-.82-.362-1.305-1.007a2.7 2.7 0 0 1-.522-1.507h1.342q.042.527.362.91.32.38.836.586a3 3 0 0 0 1.146.208q.702 0 1.246-.245.543-.244.852-.682.309-.436.309-1.012 0-.6-.298-1.06-.298-.463-.874-.724-.575-.261-1.406-.261h-.873V71.82h.873q.65 0 1.14-.234.495-.236.772-.66.283-.427.283-1.002 0-.555-.245-.964a1.7 1.7 0 0 0-.693-.64q-.442-.228-1.044-.229-.564 0-1.065.208-.495.203-.81.591a1.55 1.55 0 0 0-.341.927h-1.278a2.6 2.6 0 0 1 .517-1.502q.484-.65 1.267-1.012a4.1 4.1 0 0 1 1.732-.362q1.011 0 1.736.41.725.405 1.113 1.07.39.667.389 1.439 0 .921-.485 1.571a2.45 2.45 0 0 1-1.305.9v.086q1.034.17 1.614.878.58.704.581 1.742 0 .89-.485 1.598a3.3 3.3 0 0 1-1.31 1.108q-.83.405-1.891.405m9.338-11.207q.671.005 1.342.255t1.225.831q.554.576.89 1.572t.335 2.498q0 1.454-.277 2.584-.272 1.123-.788 1.896a3.5 3.5 0 0 1-1.247 1.172q-.729.4-1.651.4-.916 0-1.635-.363a3.2 3.2 0 0 1-1.172-1.018 3.55 3.55 0 0 1-.581-1.518h1.3q.176.752.698 1.242.527.484 1.39.484 1.263 0 1.992-1.102.735-1.103.735-3.117h-.085a3.4 3.4 0 0 1-.708.773 3.13 3.13 0 0 1-1.976.676 3.3 3.3 0 0 1-1.721-.463 3.5 3.5 0 0 1-1.246-1.284q-.464-.82-.464-1.875 0-1 .448-1.832a3.45 3.45 0 0 1 1.267-1.332q.82-.495 1.929-.48m0 1.172a2.24 2.24 0 0 0-1.21.335q-.533.33-.846.895a2.5 2.5 0 0 0-.309 1.241q0 .683.298 1.241.303.554.826.885.527.325 1.198.325.506 0 .943-.198a2.5 2.5 0 0 0 .762-.548q.33-.353.516-.794.187-.447.187-.932a2.44 2.44 0 0 0-.309-1.199 2.46 2.46 0 0 0-.842-.905 2.2 2.2 0 0 0-1.214-.346m6.444 9.971a.92.92 0 0 1-.677-.282.92.92 0 0 1-.282-.677q0-.393.282-.676a.92.92 0 0 1 .677-.282q.394 0 .676.282a.92.92 0 0 1 .282.676.9.9 0 0 1-.133.48 1 1 0 0 1-.346.351.9.9 0 0 1-.479.128m2.937-2.322v-1.087l4.794-7.585h.789v1.683h-.533l-3.622 5.732v.085h6.456v1.172zM821.854 78V67.091h1.257V78zm8.985 0v-8.182h1.215v1.279h.106a2.06 2.06 0 0 1 .826-1.018q.57-.367 1.369-.367.81 0 1.347.367.544.362.847 1.018h.085q.315-.635.943-1.007.629-.378 1.508-.378 1.097 0 1.795.687.698.681.698 2.125V78h-1.257v-5.476q0-.905-.496-1.294a1.83 1.83 0 0 0-1.166-.39q-.864 0-1.337.523-.474.516-.474 1.31V78h-1.279v-5.604q0-.698-.453-1.124-.452-.43-1.166-.431-.49 0-.916.26a1.97 1.97 0 0 0-.682.725 2.13 2.13 0 0 0-.256 1.06V78zm13.037 0v-8.182h1.215v1.279h.106a2.06 2.06 0 0 1 .826-1.018q.57-.367 1.369-.367.81 0 1.347.367.544.362.847 1.018h.086q.313-.635.942-1.007.629-.378 1.508-.378 1.097 0 1.795.687.698.681.698 2.125V78h-1.257v-5.476q0-.905-.496-1.294a1.83 1.83 0 0 0-1.166-.39q-.863 0-1.337.523-.474.516-.474 1.31V78h-1.279v-5.604q0-.698-.453-1.124-.452-.43-1.166-.431-.49 0-.916.26a1.97 1.97 0 0 0-.682.725 2.13 2.13 0 0 0-.256 1.06V78zM760.146 101.693a.5.5 0 0 0 0 .707l3.182 3.182a.5.5 0 1 0 .708-.707l-2.829-2.828 2.829-2.828a.5.5 0 0 0-.708-.708zm94.708.707a.5.5 0 0 0 0-.707l-3.182-3.182a.501.501 0 0 0-.708.707l2.829 2.829-2.829 2.828a.5.5 0 0 0 .708.707zm-94.354-.353v.5h94v-1h-94z"/><path stroke="#000" d="M759.5 98v8.094M855.5 98v8.094"/><path stroke="#231815" stroke-linecap="round" stroke-linejoin="round" stroke-width=".5" d="M770.42 500.06h46.16M767.99 479.51v18.12M759 466.05c0 5.89 3.55 11.2 8.99 13.46M767.99 497.63c0 1.34 1.09 2.43 2.43 2.43M823.87 504.43h21.86M823.87 501.64h21.86M763.62 455.6h-3.89M850.1 455.6h3.89M763.62 453.17H759M850.1 453.17h4.62M790.58 451.27h-11.17M790.58 447.92h-11.17M779.41 444.75h11.17M807.47 442.84h4.25M851.32 438.59h3.4M759 438.59h3.4M779.41 437.05h11.17M761.43 435.66H759M854.72 435.66h-2.43M779.41 435h11.17M761.43 434.27H759M854.72 434.27h-2.43M790.58 433.58h-11.17M811.72 431.91h-4.25M790.58 431.52h-11.17M852.29 430.96h2.43M759 430.96h2.43M852.29 430.09h2.43M759 430.09h2.43M779.41 420.04h11.17M790.58 416.77h-11.17M790.58 413.96h-11.17M850.66 375.43h4.06M759 375.43h4.06M854.72 160.42v-13.84M854.72 466.05v-9.72M854.72 430.09v23.08M854.72 177.43v198M836.01 360.61h-58.3M843.29 397.36l3.8-19M852.29 185.93v-8.5M852.29 438.59v-8.5M851.93 375.43v-189.5M851.93 453.17v-14.58M850.1 453.17v2.43M850.1 417.94v19.44M850.1 162.85v21.87M845.73 480.3v24.13M845.73 258.82v92.07M842.81 402.13v8.52M839.66 136.62v-3.39M837.23 132v4.62M823.87 504.43v-2.79M812.33 239.38v-9.72M801.39 229.66v9.72M794.71 413.93v38.39M790.58 413.93v38.39M779.41 452.32v-38.39M776.49 136.62V132M775.28 452.32v-38.39M774.06 136.62v-3.39M770.9 410.65v-8.52M767.99 350.89v-92.07M763.62 184.72v-21.87M763.62 437.38v-19.44M763.62 455.6v-2.43M761.79 438.59v14.58M761.79 185.93v189.5M761.43 430.09v8.5M761.43 177.43v8.5M759 456.33v9.72M759 430.09v23.08M759 177.43v198M759 146.58v13.84M766.63 378.36l3.8 19M769.2 257.6h75.32M851.32 185.93h3.4M759 185.93h3.4M761.43 183H759M854.72 183h-2.43M761.43 181.61H759M854.72 181.61h-2.43M852.29 178.3h2.43M759 178.3h2.43M852.29 177.43h2.43M759 177.43h2.43M853.5 161.64h-2.18M760.21 161.64h2.19M837.23 136.62h2.43M774.06 136.62h2.43M837.23 134.79h-60.74M837.23 132h-60.74M843.29 397.36c-.31 1.57-.47 3.16-.47 4.76M846.42 479.2a14.58 14.58 0 0 0 8.3-13.15M836.01 360.61c5.37 0 9.72-4.35 9.72-9.72M811.72 442.84c3.02 0 5.47-2.45 5.47-5.47s-2.45-5.47-5.47-5.47M807.47 431.91c-3.02 0-5.47 2.45-5.47 5.47s2.45 5.47 5.47 5.47M850.1 417.94a3.64 3.64 0 0 0-3.64-3.64M850.66 375.43c-1.74 0-3.23 1.23-3.57 2.93M842.81 410.65a3.64 3.64 0 0 0 3.64 3.64M850.1 437.38c0 .67.54 1.21 1.21 1.21M846.42 479.2c-.42.2-.69.63-.69 1.1M854.72 456.33c0-.4-.33-.73-.73-.73M854.72 146.58c0-7.74-6.05-14.13-13.78-14.55M845.73 258.82c0-.67-.54-1.21-1.21-1.21M853.5 161.64c.67 0 1.21-.54 1.21-1.21M840.94 132.02h-.07c-.67 0-1.21.54-1.21 1.21M851.32 161.64c-.67 0-1.21.54-1.21 1.21M850.1 184.72c0 .67.54 1.21 1.21 1.21M770.9 402.13c0-1.6-.16-3.2-.47-4.76M767.99 350.89c0 5.37 4.35 9.72 9.72 9.72M767.26 414.3a3.64 3.64 0 0 0-3.64 3.64M766.63 378.36a3.65 3.65 0 0 0-3.57-2.93M767.26 414.3a3.64 3.64 0 0 0 3.64-3.64M794.71 413.93c0-1.14-.92-2.07-2.07-2.07s-2.07.92-2.07 2.07M790.58 452.32c0 1.14.92 2.07 2.07 2.07s2.07-.92 2.07-2.07M775.28 452.32c0 1.14.92 2.07 2.07 2.07s2.07-.92 2.07-2.07M779.41 413.93c0-1.14-.92-2.07-2.07-2.07s-2.07.92-2.07 2.07M762.4 438.59c.67 0 1.21-.54 1.21-1.21M759.73 455.6c-.4 0-.73.33-.73.73M772.78 132.02c-7.73.42-13.78 6.82-13.78 14.56M812.33 229.66c0-3.02-2.45-5.47-5.47-5.47s-5.47 2.45-5.47 5.47M801.39 239.38c0 3.02 2.45 5.47 5.47 5.47s5.47-2.45 5.47-5.47M769.2 257.6c-.67 0-1.21.54-1.21 1.21M774.06 133.23v-.07c-.04-.67-.61-1.18-1.28-1.15M759 160.42c0 .67.54 1.21 1.21 1.21M762.4 185.93c.67 0 1.21-.54 1.21-1.21M763.62 162.85c0-.67-.54-1.21-1.21-1.21M823.87 498.84v2.8M816.58 498.84v1.22M823.87 498.84a3.64 3.64 0 0 0-7.28 0M826.29 243.63a4.25 4.25 0 1 0 0-8.5 4.25 4.25 0 0 0 0 8.5M806.86 404.58c7.379 0 13.36-5.981 13.36-13.36s-5.981-13.36-13.36-13.36-13.36 5.982-13.36 13.36c0 7.379 5.981 13.36 13.36 13.36M806.86 464.83a4.25 4.25 0 1 0 0-8.5 4.25 4.25 0 0 0 0 8.5M787.42 243.63a4.25 4.25 0 1 0 0-8.5 4.25 4.25 0 0 0 0 8.5"/><path stroke="#231815" stroke-linecap="round" stroke-linejoin="round" d="M852.29 185.93v-8.5h2.43v198h-4.06c-1.74 0-3.23 1.23-3.57 2.93l-3.8 19.01c-.31 1.57-.47 3.16-.47 4.76v8.53a3.64 3.64 0 0 0 3.64 3.64 3.64 3.64 0 0 1 3.64 3.64v19.44c0 .67.54 1.21 1.21 1.21h.97v-8.5h2.43v23.08h-4.62v2.43h3.89c.4 0 .73.33.73.73v9.72c0 5.62-3.23 10.73-8.3 13.15-.42.2-.69.63-.69 1.1v24.13h-21.86v-5.58a3.64 3.64 0 0 0-7.28 0v1.21h-46.16c-1.34 0-2.43-1.09-2.43-2.43v-18.12a14.58 14.58 0 0 1-8.99-13.46v-9.72c0-.4.33-.73.73-.73h3.89v-2.43H759v-23.08h2.43v8.5h.97c.67 0 1.21-.54 1.21-1.21v-19.44a3.64 3.64 0 0 1 3.64-3.64 3.64 3.64 0 0 0 3.64-3.64v-8.53c0-1.6-.16-3.2-.47-4.76l-3.8-19.01a3.65 3.65 0 0 0-3.57-2.93H759v-198h2.43v8.5h.97c.67 0 1.21-.54 1.21-1.21v-21.86c0-.67-.54-1.21-1.21-1.21h-2.19c-.67 0-1.21-.54-1.21-1.21v-13.85c0-7.74 6.05-14.13 13.78-14.55.67-.04 1.24.48 1.28 1.15v3.45h2.43V132h60.74v4.62h2.43v-3.39c0-.67.54-1.21 1.21-1.21h.07c7.73.42 13.78 6.81 13.78 14.55v13.85c0 .67-.54 1.21-1.21 1.21h-2.19c-.67 0-1.21.54-1.21 1.21v21.86c0 .67.54 1.21 1.21 1.21h.97"/><defs><linearGradient id="a" x1="263.25" x2="312.07" y1="259.53" y2="192.34" gradientUnits="userSpaceOnUse"><stop stop-color="#bfbfbf"/><stop offset=".14" stop-color="#c2c2c2"/><stop offset=".27" stop-color="#cecece"/><stop offset=".4" stop-color="#e0e0e0"/><stop offset=".53" stop-color="#fbfbfb"/><stop offset=".54" stop-color="#e0e0e0"/><stop offset=".55" stop-color="#cdcdcd"/><stop offset=".56" stop-color="#ccc"/><stop offset="1" stop-color="#fff"/></linearGradient></defs></svg>