<svg width="37" height="140" viewBox="0 0 37 140" fill="none" xmlns="http://www.w3.org/2000/svg">
<g clip-path="url(#clip0_1944_157)">
<path d="M14.8692 137.946H32.2453" stroke="#231815" stroke-width="0.5" stroke-linecap="round" stroke-linejoin="round"/>
<path d="M33.1963 137.005V130.244" stroke="#231815" stroke-width="0.5" stroke-linecap="round" stroke-linejoin="round"/>
<path d="M33.1963 130.244C35.2711 129.389 36.5678 127.421 36.5678 125.196" stroke="#231815" stroke-width="0.5" stroke-linecap="round" stroke-linejoin="round"/>
<path d="M32.2453 137.946C32.764 137.946 33.1963 137.518 33.1963 137.005" stroke="#231815" stroke-width="0.5" stroke-linecap="round" stroke-linejoin="round"/>
<path d="M12.1028 138.545V137.518" stroke="#231815" stroke-width="0.5" stroke-linecap="round" stroke-linejoin="round"/>
<path d="M14.8692 137.947V137.518" stroke="#231815" stroke-width="0.5" stroke-linecap="round" stroke-linejoin="round"/>
<path d="M12.1028 137.518C12.1028 136.748 12.708 136.149 13.486 136.149C14.264 136.149 14.8692 136.748 14.8692 137.518" stroke="#231815" stroke-width="0.5" stroke-linecap="round" stroke-linejoin="round"/>
<path d="M23.514 97.2983C23.514 94.5599 21.2664 92.335 18.5 92.335C15.7337 92.335 13.486 94.5599 13.486 97.2983C13.486 100.037 15.7337 102.262 18.5 102.262C21.2664 102.262 23.514 100.037 23.514 97.2983Z" stroke="#231815" stroke-width="0.5" stroke-linecap="round" stroke-linejoin="round"/>
<path d="M29.0468 123.142C29.0468 122.8 28.701 122.457 28.3552 122.457C28.0094 122.457 27.6636 122.8 27.6636 123.142C27.6636 123.484 28.0094 123.826 28.3552 123.826C28.701 123.826 29.0468 123.484 29.0468 123.142Z" stroke="#231815" stroke-width="0.5" stroke-linecap="round" stroke-linejoin="round"/>
<path d="M19.3645 123.142C19.3645 122.8 19.0187 122.457 18.6729 122.457C18.3271 122.457 17.9813 122.8 17.9813 123.142C17.9813 123.484 18.3271 123.826 18.6729 123.826C19.0187 123.826 19.3645 123.484 19.3645 123.142Z" stroke="#231815" stroke-width="0.5" stroke-linecap="round" stroke-linejoin="round"/>
<path d="M3.80374 139.572H12.1028" stroke="#231815" stroke-width="0.5" stroke-linecap="round" stroke-linejoin="round"/>
<path d="M3.80374 138.545H12.1028" stroke="#231815" stroke-width="0.5" stroke-linecap="round" stroke-linejoin="round"/>
<path d="M36.3084 121.345H34.8388" stroke="#231815" stroke-width="0.5" stroke-linecap="round" stroke-linejoin="round"/>
<path d="M0.691589 121.345H2.16122" stroke="#231815" stroke-width="0.5" stroke-linecap="round" stroke-linejoin="round"/>
<path d="M36.5678 120.403H34.8388" stroke="#231815" stroke-width="0.5" stroke-linecap="round" stroke-linejoin="round"/>
<path d="M0.432251 120.403H2.16122" stroke="#231815" stroke-width="0.5" stroke-linecap="round" stroke-linejoin="round"/>
<path d="M28.8738 119.719H24.6378" stroke="#231815" stroke-width="0.5" stroke-linecap="round" stroke-linejoin="round"/>
<path d="M28.8738 118.435H24.6378" stroke="#231815" stroke-width="0.5" stroke-linecap="round" stroke-linejoin="round"/>
<path d="M24.6378 117.237H28.8738" stroke="#231815" stroke-width="0.5" stroke-linecap="round" stroke-linejoin="round"/>
<path d="M16.6846 116.553H18.2407" stroke="#231815" stroke-width="0.5" stroke-linecap="round" stroke-linejoin="round"/>
<path d="M0.432251 115.012H1.72898" stroke="#231815" stroke-width="0.5" stroke-linecap="round" stroke-linejoin="round"/>
<path d="M35.271 115.012H36.5678" stroke="#231815" stroke-width="0.5" stroke-linecap="round" stroke-linejoin="round"/>
<path d="M24.6378 114.413H28.8738" stroke="#231815" stroke-width="0.5" stroke-linecap="round" stroke-linejoin="round"/>
<path d="M36.5678 113.9H35.6168" stroke="#231815" stroke-width="0.5" stroke-linecap="round" stroke-linejoin="round"/>
<path d="M1.38319 113.9H0.432251" stroke="#231815" stroke-width="0.5" stroke-linecap="round" stroke-linejoin="round"/>
<path d="M24.6378 113.643H28.8738" stroke="#231815" stroke-width="0.5" stroke-linecap="round" stroke-linejoin="round"/>
<path d="M36.5678 113.386H35.6168" stroke="#231815" stroke-width="0.5" stroke-linecap="round" stroke-linejoin="round"/>
<path d="M1.38319 113.386H0.432251" stroke="#231815" stroke-width="0.5" stroke-linecap="round" stroke-linejoin="round"/>
<path d="M28.8738 113.13H24.6378" stroke="#231815" stroke-width="0.5" stroke-linecap="round" stroke-linejoin="round"/>
<path d="M18.2407 112.445H16.6846" stroke="#231815" stroke-width="0.5" stroke-linecap="round" stroke-linejoin="round"/>
<path d="M28.8738 112.359H24.6378" stroke="#231815" stroke-width="0.5" stroke-linecap="round" stroke-linejoin="round"/>
<path d="M0.432251 112.103H1.38319" stroke="#231815" stroke-width="0.5" stroke-linecap="round" stroke-linejoin="round"/>
<path d="M35.6168 112.103H36.5678" stroke="#231815" stroke-width="0.5" stroke-linecap="round" stroke-linejoin="round"/>
<path d="M0.432251 111.76H1.38319" stroke="#231815" stroke-width="0.5" stroke-linecap="round" stroke-linejoin="round"/>
<path d="M35.6168 111.76H36.5678" stroke="#231815" stroke-width="0.5" stroke-linecap="round" stroke-linejoin="round"/>
<path d="M24.6378 108.081H28.8738" stroke="#231815" stroke-width="0.5" stroke-linecap="round" stroke-linejoin="round"/>
<path d="M28.8738 106.797H24.6378" stroke="#231815" stroke-width="0.5" stroke-linecap="round" stroke-linejoin="round"/>
<path d="M28.8738 105.77H24.6378" stroke="#231815" stroke-width="0.5" stroke-linecap="round" stroke-linejoin="round"/>
<path d="M0.432251 91.3936H1.98833" stroke="#231815" stroke-width="0.5" stroke-linecap="round" stroke-linejoin="round"/>
<path d="M35.0117 91.3936H36.5678" stroke="#231815" stroke-width="0.5" stroke-linecap="round" stroke-linejoin="round"/>
<path d="M0.432251 5.90464V11.0391" stroke="#231815" stroke-width="0.5" stroke-linecap="round" stroke-linejoin="round"/>
<path d="M0.432251 121.601V125.196" stroke="#231815" stroke-width="0.5" stroke-linecap="round" stroke-linejoin="round"/>
<path d="M0.432251 120.403V111.76" stroke="#231815" stroke-width="0.5" stroke-linecap="round" stroke-linejoin="round"/>
<path d="M0.432251 91.3936V17.3716" stroke="#231815" stroke-width="0.5" stroke-linecap="round" stroke-linejoin="round"/>
<path d="M29.479 85.8313H7.52103" stroke="#231815" stroke-width="0.5" stroke-linecap="round" stroke-linejoin="round"/>
<path d="M3.28506 92.5061L4.75469 99.6088" stroke="#231815" stroke-width="0.5" stroke-linecap="round" stroke-linejoin="round"/>
<path d="M1.38318 17.3716V20.5379" stroke="#231815" stroke-width="0.5" stroke-linecap="round" stroke-linejoin="round"/>
<path d="M1.38318 111.76V115.012" stroke="#231815" stroke-width="0.5" stroke-linecap="round" stroke-linejoin="round"/>
<path d="M1.46964 20.5379V91.3936" stroke="#231815" stroke-width="0.5" stroke-linecap="round" stroke-linejoin="round"/>
<path d="M1.46964 115.012V120.403" stroke="#231815" stroke-width="0.5" stroke-linecap="round" stroke-linejoin="round"/>
<path d="M2.16122 121.345V120.403" stroke="#231815" stroke-width="0.5" stroke-linecap="round" stroke-linejoin="round"/>
<path d="M2.16122 114.499V107.225" stroke="#231815" stroke-width="0.5" stroke-linecap="round" stroke-linejoin="round"/>
<path d="M2.16122 20.11V11.9804" stroke="#231815" stroke-width="0.5" stroke-linecap="round" stroke-linejoin="round"/>
<path d="M3.80374 139.572V130.587" stroke="#231815" stroke-width="0.5" stroke-linecap="round" stroke-linejoin="round"/>
<path d="M3.80374 82.2372V47.8362" stroke="#231815" stroke-width="0.5" stroke-linecap="round" stroke-linejoin="round"/>
<path d="M4.92758 104.572V101.32" stroke="#231815" stroke-width="0.5" stroke-linecap="round" stroke-linejoin="round"/>
<path d="M6.13785 0.855743V2.13936" stroke="#231815" stroke-width="0.5" stroke-linecap="round" stroke-linejoin="round"/>
<path d="M7.00235 2.13936V0.427872" stroke="#231815" stroke-width="0.5" stroke-linecap="round" stroke-linejoin="round"/>
<path d="M12.1028 138.545V139.572" stroke="#231815" stroke-width="0.5" stroke-linecap="round" stroke-linejoin="round"/>
<path d="M16.4252 36.8826V40.5623" stroke="#231815" stroke-width="0.5" stroke-linecap="round" stroke-linejoin="round"/>
<path d="M20.5748 40.5623V36.8826" stroke="#231815" stroke-width="0.5" stroke-linecap="round" stroke-linejoin="round"/>
<path d="M23.0818 120.147V105.77" stroke="#231815" stroke-width="0.5" stroke-linecap="round" stroke-linejoin="round"/>
<path d="M24.6378 120.147V105.77" stroke="#231815" stroke-width="0.5" stroke-linecap="round" stroke-linejoin="round"/>
<path d="M28.8738 105.77V120.147" stroke="#231815" stroke-width="0.5" stroke-linecap="round" stroke-linejoin="round"/>
<path d="M29.9977 0.427872V2.13936" stroke="#231815" stroke-width="0.5" stroke-linecap="round" stroke-linejoin="round"/>
<path d="M30.4299 105.77V120.147" stroke="#231815" stroke-width="0.5" stroke-linecap="round" stroke-linejoin="round"/>
<path d="M30.8622 0.855743V2.13936" stroke="#231815" stroke-width="0.5" stroke-linecap="round" stroke-linejoin="round"/>
<path d="M32.0724 101.32V104.572" stroke="#231815" stroke-width="0.5" stroke-linecap="round" stroke-linejoin="round"/>
<path d="M33.1963 47.8362V82.2372" stroke="#231815" stroke-width="0.5" stroke-linecap="round" stroke-linejoin="round"/>
<path d="M34.8388 11.9804V20.11" stroke="#231815" stroke-width="0.5" stroke-linecap="round" stroke-linejoin="round"/>
<path d="M34.8388 107.225V114.499" stroke="#231815" stroke-width="0.5" stroke-linecap="round" stroke-linejoin="round"/>
<path d="M34.8388 120.403V121.345" stroke="#231815" stroke-width="0.5" stroke-linecap="round" stroke-linejoin="round"/>
<path d="M35.5304 120.403V115.012" stroke="#231815" stroke-width="0.5" stroke-linecap="round" stroke-linejoin="round"/>
<path d="M35.5304 91.3936V20.5379" stroke="#231815" stroke-width="0.5" stroke-linecap="round" stroke-linejoin="round"/>
<path d="M35.6168 115.012V111.76" stroke="#231815" stroke-width="0.5" stroke-linecap="round" stroke-linejoin="round"/>
<path d="M35.6168 20.5379V17.3716" stroke="#231815" stroke-width="0.5" stroke-linecap="round" stroke-linejoin="round"/>
<path d="M36.5677 125.196V121.601" stroke="#231815" stroke-width="0.5" stroke-linecap="round" stroke-linejoin="round"/>
<path d="M36.5677 120.403V111.76" stroke="#231815" stroke-width="0.5" stroke-linecap="round" stroke-linejoin="round"/>
<path d="M36.5677 91.3936V17.3716" stroke="#231815" stroke-width="0.5" stroke-linecap="round" stroke-linejoin="round"/>
<path d="M36.5677 11.0391V5.90464" stroke="#231815" stroke-width="0.5" stroke-linecap="round" stroke-linejoin="round"/>
<path d="M32.2453 99.6088L33.715 92.5061" stroke="#231815" stroke-width="0.5" stroke-linecap="round" stroke-linejoin="round"/>
<path d="M4.32245 47.3227H32.6776" stroke="#231815" stroke-width="0.5" stroke-linecap="round" stroke-linejoin="round"/>
<path d="M0.432251 20.5379H1.72898" stroke="#231815" stroke-width="0.5" stroke-linecap="round" stroke-linejoin="round"/>
<path d="M35.271 20.5379H36.5678" stroke="#231815" stroke-width="0.5" stroke-linecap="round" stroke-linejoin="round"/>
<path d="M36.5678 19.511H35.6168" stroke="#231815" stroke-width="0.5" stroke-linecap="round" stroke-linejoin="round"/>
<path d="M1.38319 19.511H0.432251" stroke="#231815" stroke-width="0.5" stroke-linecap="round" stroke-linejoin="round"/>
<path d="M36.5678 18.9976H35.6168" stroke="#231815" stroke-width="0.5" stroke-linecap="round" stroke-linejoin="round"/>
<path d="M1.38319 18.9976H0.432251" stroke="#231815" stroke-width="0.5" stroke-linecap="round" stroke-linejoin="round"/>
<path d="M0.432251 17.7139H1.38319" stroke="#231815" stroke-width="0.5" stroke-linecap="round" stroke-linejoin="round"/>
<path d="M35.6168 17.7139H36.5678" stroke="#231815" stroke-width="0.5" stroke-linecap="round" stroke-linejoin="round"/>
<path d="M0.432251 17.3716H1.38319" stroke="#231815" stroke-width="0.5" stroke-linecap="round" stroke-linejoin="round"/>
<path d="M35.6168 17.3716H36.5678" stroke="#231815" stroke-width="0.5" stroke-linecap="round" stroke-linejoin="round"/>
<path d="M1.72899 11.467H0.864502" stroke="#231815" stroke-width="0.5" stroke-linecap="round" stroke-linejoin="round"/>
<path d="M35.271 11.467H36.1355" stroke="#231815" stroke-width="0.5" stroke-linecap="round" stroke-linejoin="round"/>
<path d="M6.13785 2.13936H7.00233" stroke="#231815" stroke-width="0.5" stroke-linecap="round" stroke-linejoin="round"/>
<path d="M29.9977 2.13936H30.8622" stroke="#231815" stroke-width="0.5" stroke-linecap="round" stroke-linejoin="round"/>
<path d="M29.9977 1.45477H7.00235" stroke="#231815" stroke-width="0.5" stroke-linecap="round" stroke-linejoin="round"/>
<path d="M29.9977 0.427872H7.00235" stroke="#231815" stroke-width="0.5" stroke-linecap="round" stroke-linejoin="round"/>
<path d="M4.92757 101.32C4.92757 100.721 4.92757 100.122 4.75467 99.5232" stroke="#231815" stroke-width="0.5" stroke-linecap="round" stroke-linejoin="round"/>
<path d="M0.432251 125.196C0.432251 127.335 1.64253 129.218 3.5444 130.073" stroke="#231815" stroke-width="0.5" stroke-linecap="round" stroke-linejoin="round"/>
<path d="M4.92757 84.8044C5.61916 85.489 6.5701 85.8313 7.52103 85.8313M3.80374 82.2372C3.80374 83.1785 4.14954 84.1198 4.84112 84.8044" stroke="#231815" stroke-width="0.5" stroke-linecap="round" stroke-linejoin="round"/>
<path d="M16.6846 116.553C15.5608 116.553 14.6098 115.611 14.6098 114.499C14.6098 113.386 15.5608 112.445 16.6846 112.445" stroke="#231815" stroke-width="0.5" stroke-linecap="round" stroke-linejoin="round"/>
<path d="M18.2407 112.445C19.3645 112.445 20.3154 113.386 20.3154 114.499C20.3154 115.611 19.3645 116.553 18.2407 116.553" stroke="#231815" stroke-width="0.5" stroke-linecap="round" stroke-linejoin="round"/>
<path d="M3.5444 105.941C2.76636 105.941 2.16122 106.54 2.16122 107.311" stroke="#231815" stroke-width="0.5" stroke-linecap="round" stroke-linejoin="round"/>
<path d="M3.28506 92.5061C3.19862 91.9071 2.59347 91.3936 1.90189 91.3936" stroke="#231815" stroke-width="0.5" stroke-linecap="round" stroke-linejoin="round"/>
<path d="M3.5444 105.941C4.32244 105.941 4.92758 105.342 4.92758 104.572" stroke="#231815" stroke-width="0.5" stroke-linecap="round" stroke-linejoin="round"/>
<path d="M1.72897 115.013C1.98863 115.013 2.16174 114.841 2.16174 114.584" stroke="#231815" stroke-width="0.5" stroke-linecap="round" stroke-linejoin="round"/>
<path d="M3.80406 130.587C3.80406 130.416 3.71751 130.245 3.5444 130.159" stroke="#231815" stroke-width="0.5" stroke-linecap="round" stroke-linejoin="round"/>
<path d="M0.69191 121.345C0.518804 121.345 0.432251 121.43 0.432251 121.602" stroke="#231815" stroke-width="0.5" stroke-linecap="round" stroke-linejoin="round"/>
<path d="M5.61917 0.427872C2.67991 0.599021 0.432251 2.99511 0.432251 5.90464" stroke="#231815" stroke-width="0.5" stroke-linecap="round" stroke-linejoin="round"/>
<path d="M4.32296 47.3227C4.0633 47.3227 3.8902 47.4941 3.8902 47.7511" stroke="#231815" stroke-width="0.5" stroke-linecap="round" stroke-linejoin="round"/>
<path d="M0.432251 11.0391C0.432251 11.2962 0.605357 11.4675 0.865017 11.4675" stroke="#231815" stroke-width="0.5" stroke-linecap="round" stroke-linejoin="round"/>
<path d="M5.96538 0.599168C5.87883 0.51349 5.79228 0.427812 5.61917 0.51349M6.13849 0.856202C6.13849 0.770524 6.13849 0.599168 5.96538 0.51349" stroke="#231815" stroke-width="0.5" stroke-linecap="round" stroke-linejoin="round"/>
<path d="M2.16174 11.981C2.16174 11.7239 1.98863 11.5526 1.72897 11.5526" stroke="#231815" stroke-width="0.5" stroke-linecap="round" stroke-linejoin="round"/>
<path d="M1.72897 20.5384C1.98863 20.5384 2.16174 20.3671 2.16174 20.11" stroke="#231815" stroke-width="0.5" stroke-linecap="round" stroke-linejoin="round"/>
<path d="M32.2453 99.6088C32.1589 100.208 32.0724 100.807 32.0724 101.406" stroke="#231815" stroke-width="0.5" stroke-linecap="round" stroke-linejoin="round"/>
<path d="M29.479 85.8313C31.4673 85.8313 33.1098 84.2054 33.1098 82.2372" stroke="#231815" stroke-width="0.5" stroke-linecap="round" stroke-linejoin="round"/>
<path d="M34.8388 107.225C34.8388 106.455 34.2337 105.856 33.4556 105.856" stroke="#231815" stroke-width="0.5" stroke-linecap="round" stroke-linejoin="round"/>
<path d="M35.0117 91.3936C34.3201 91.3936 33.8014 91.8215 33.6285 92.5061" stroke="#231815" stroke-width="0.5" stroke-linecap="round" stroke-linejoin="round"/>
<path d="M32.0724 104.572C32.0724 105.342 32.6776 105.941 33.4556 105.941" stroke="#231815" stroke-width="0.5" stroke-linecap="round" stroke-linejoin="round"/>
<path d="M23.0818 105.77C23.0818 105.342 23.4276 105 23.8598 105C24.2921 105 24.6379 105.342 24.6379 105.77" stroke="#231815" stroke-width="0.5" stroke-linecap="round" stroke-linejoin="round"/>
<path d="M24.6379 120.147C24.6379 120.575 24.2921 120.917 23.8598 120.917C23.4276 120.917 23.0818 120.575 23.0818 120.147" stroke="#231815" stroke-width="0.5" stroke-linecap="round" stroke-linejoin="round"/>
<path d="M30.4299 120.147C30.4299 120.575 30.0841 120.917 29.6519 120.917C29.2196 120.917 28.8738 120.575 28.8738 120.147" stroke="#231815" stroke-width="0.5" stroke-linecap="round" stroke-linejoin="round"/>
<path d="M28.8738 105.77C28.8738 105.342 29.2196 105 29.6519 105C30.0841 105 30.4299 105.342 30.4299 105.77" stroke="#231815" stroke-width="0.5" stroke-linecap="round" stroke-linejoin="round"/>
<path d="M34.8388 114.499C34.8388 114.756 35.0119 114.927 35.2716 114.927" stroke="#231815" stroke-width="0.5" stroke-linecap="round" stroke-linejoin="round"/>
<path d="M36.5681 121.602C36.5681 121.43 36.4815 121.345 36.3084 121.345" stroke="#231815" stroke-width="0.5" stroke-linecap="round" stroke-linejoin="round"/>
<path d="M36.5678 5.90464C36.5678 2.99511 34.3201 0.599021 31.3809 0.427872" stroke="#231815" stroke-width="0.5" stroke-linecap="round" stroke-linejoin="round"/>
<path d="M18.5 34.9144C17.3762 34.9144 16.4252 35.8557 16.4252 36.9682M20.5748 36.8826C20.5748 35.7702 19.6238 34.8288 18.5 34.8288" stroke="#231815" stroke-width="0.5" stroke-linecap="round" stroke-linejoin="round"/>
<path d="M20.5748 40.5623C20.5748 41.6748 19.6238 42.6161 18.5 42.6161C17.3762 42.6161 16.4252 41.6748 16.4252 40.5623" stroke="#231815" stroke-width="0.5" stroke-linecap="round" stroke-linejoin="round"/>
<path d="M33.1968 47.8367C33.1968 47.5797 33.0237 47.4083 32.764 47.4083" stroke="#231815" stroke-width="0.5" stroke-linecap="round" stroke-linejoin="round"/>
<path d="M31.0353 0.599228C30.9487 0.684906 30.8622 0.770584 30.8622 0.94194M31.3815 0.427872C31.2949 0.427872 31.1218 0.427872 31.0353 0.51355" stroke="#231815" stroke-width="0.5" stroke-linecap="round" stroke-linejoin="round"/>
<path d="M36.1355 11.4675C36.3952 11.4675 36.5683 11.2962 36.5683 11.0391" stroke="#231815" stroke-width="0.5" stroke-linecap="round" stroke-linejoin="round"/>
<path d="M34.8388 20.11C34.8388 20.3671 35.0119 20.5384 35.2716 20.5384" stroke="#231815" stroke-width="0.5" stroke-linecap="round" stroke-linejoin="round"/>
<path d="M35.2716 11.467C35.0119 11.467 34.8388 11.6383 34.8388 11.8954" stroke="#231815" stroke-width="0.5" stroke-linecap="round" stroke-linejoin="round"/>
<path d="M33.1963 137.005V130.244" stroke="#231815" stroke-linecap="round" stroke-linejoin="round"/>
<path d="M33.1963 130.244C35.2711 129.389 36.5678 127.421 36.5678 125.196" stroke="#231815" stroke-linecap="round" stroke-linejoin="round"/>
<path d="M32.2453 137.946C32.764 137.946 33.1963 137.518 33.1963 137.005" stroke="#231815" stroke-linecap="round" stroke-linejoin="round"/>
<path d="M12.1028 138.545V137.518" stroke="#231815" stroke-linecap="round" stroke-linejoin="round"/>
<path d="M14.8692 137.947V137.518" stroke="#231815" stroke-linecap="round" stroke-linejoin="round"/>
<path d="M12.1028 137.518C12.1028 136.748 12.708 136.149 13.486 136.149C14.264 136.149 14.8692 136.748 14.8692 137.518" stroke="#231815" stroke-linecap="round" stroke-linejoin="round"/>
<path d="M3.80374 139.572H12.1028" stroke="#231815" stroke-linecap="round" stroke-linejoin="round"/>
<path d="M36.3084 121.345H34.8388" stroke="#231815" stroke-linecap="round" stroke-linejoin="round"/>
<path d="M0.691589 121.345H2.16122" stroke="#231815" stroke-linecap="round" stroke-linejoin="round"/>
<path d="M36.5678 120.403H34.8388" stroke="#231815" stroke-linecap="round" stroke-linejoin="round"/>
<path d="M0.432251 120.403H2.16122" stroke="#231815" stroke-linecap="round" stroke-linejoin="round"/>
<path d="M1.38318 115.012H1.72939" stroke="#231815" stroke-linecap="round" stroke-linejoin="round"/>
<path d="M35.271 115.012H35.6172" stroke="#231815" stroke-linecap="round" stroke-linejoin="round"/>
<path d="M0.432251 111.76H1.38319" stroke="#231815" stroke-linecap="round" stroke-linejoin="round"/>
<path d="M35.6168 111.76H36.5678" stroke="#231815" stroke-linecap="round" stroke-linejoin="round"/>
<path d="M0.432251 91.3936H1.98833" stroke="#231815" stroke-linecap="round" stroke-linejoin="round"/>
<path d="M35.0117 91.3936H36.5678" stroke="#231815" stroke-linecap="round" stroke-linejoin="round"/>
<path d="M0.432251 5.90464V11.0391" stroke="#231815" stroke-linecap="round" stroke-linejoin="round"/>
<path d="M0.432251 121.601V125.196" stroke="#231815" stroke-linecap="round" stroke-linejoin="round"/>
<path d="M0.432251 120.403V111.76" stroke="#231815" stroke-linecap="round" stroke-linejoin="round"/>
<path d="M0.432251 91.3936V17.3716" stroke="#231815" stroke-linecap="round" stroke-linejoin="round"/>
<path d="M3.28506 92.5061L4.75469 99.6088" stroke="#231815" stroke-linecap="round" stroke-linejoin="round"/>
<path d="M1.38318 17.3716V20.5379" stroke="#231815" stroke-linecap="round" stroke-linejoin="round"/>
<path d="M1.38318 111.76V115.012" stroke="#231815" stroke-linecap="round" stroke-linejoin="round"/>
<path d="M2.16122 121.345V120.403" stroke="#231815" stroke-linecap="round" stroke-linejoin="round"/>
<path d="M2.16122 114.499V107.225" stroke="#231815" stroke-linecap="round" stroke-linejoin="round"/>
<path d="M2.16122 20.11V11.9804" stroke="#231815" stroke-linecap="round" stroke-linejoin="round"/>
<path d="M3.80374 139.572V130.587" stroke="#231815" stroke-linecap="round" stroke-linejoin="round"/>
<path d="M4.92758 104.572V101.32" stroke="#231815" stroke-linecap="round" stroke-linejoin="round"/>
<path d="M6.13785 0.855743V2.13936" stroke="#231815" stroke-linecap="round" stroke-linejoin="round"/>
<path d="M7.00235 2.13936V0.427872" stroke="#231815" stroke-linecap="round" stroke-linejoin="round"/>
<path d="M12.1028 138.545V139.572" stroke="#231815" stroke-linecap="round" stroke-linejoin="round"/>
<path d="M29.9977 0.427872V2.13936" stroke="#231815" stroke-linecap="round" stroke-linejoin="round"/>
<path d="M30.8622 0.855743V2.13936" stroke="#231815" stroke-linecap="round" stroke-linejoin="round"/>
<path d="M32.0724 101.32V104.572" stroke="#231815" stroke-linecap="round" stroke-linejoin="round"/>
<path d="M34.8388 11.9804V20.11" stroke="#231815" stroke-linecap="round" stroke-linejoin="round"/>
<path d="M34.8388 107.225V114.499" stroke="#231815" stroke-linecap="round" stroke-linejoin="round"/>
<path d="M34.8388 120.403V121.345" stroke="#231815" stroke-linecap="round" stroke-linejoin="round"/>
<path d="M35.6168 115.012V111.76" stroke="#231815" stroke-linecap="round" stroke-linejoin="round"/>
<path d="M35.6168 20.5379V17.3716" stroke="#231815" stroke-linecap="round" stroke-linejoin="round"/>
<path d="M36.5677 125.196V121.601" stroke="#231815" stroke-linecap="round" stroke-linejoin="round"/>
<path d="M36.5677 120.403V111.76" stroke="#231815" stroke-linecap="round" stroke-linejoin="round"/>
<path d="M36.5677 91.3936V17.3716" stroke="#231815" stroke-linecap="round" stroke-linejoin="round"/>
<path d="M36.5677 11.0391V5.90464" stroke="#231815" stroke-linecap="round" stroke-linejoin="round"/>
<path d="M32.2453 99.6088L33.715 92.5061" stroke="#231815" stroke-linecap="round" stroke-linejoin="round"/>
<path d="M1.38318 20.5379H1.72939" stroke="#231815" stroke-linecap="round" stroke-linejoin="round"/>
<path d="M35.271 20.5379H35.6172" stroke="#231815" stroke-linecap="round" stroke-linejoin="round"/>
<path d="M0.432251 17.3716H1.38319" stroke="#231815" stroke-linecap="round" stroke-linejoin="round"/>
<path d="M35.6168 17.3716H36.5678" stroke="#231815" stroke-linecap="round" stroke-linejoin="round"/>
<path d="M1.72899 11.467H0.864502" stroke="#231815" stroke-linecap="round" stroke-linejoin="round"/>
<path d="M35.271 11.467H36.1355" stroke="#231815" stroke-linecap="round" stroke-linejoin="round"/>
<path d="M6.13785 2.13936H7.00233" stroke="#231815" stroke-linecap="round" stroke-linejoin="round"/>
<path d="M29.9977 2.13936H30.8622" stroke="#231815" stroke-linecap="round" stroke-linejoin="round"/>
<path d="M29.9977 0.427872H7.00235" stroke="#231815" stroke-linecap="round" stroke-linejoin="round"/>
<path d="M4.92757 101.32C4.92757 100.721 4.92757 100.122 4.75467 99.5232" stroke="#231815" stroke-linecap="round" stroke-linejoin="round"/>
<path d="M0.432251 125.196C0.432251 127.335 1.64253 129.218 3.5444 130.073" stroke="#231815" stroke-linecap="round" stroke-linejoin="round"/>
<path d="M3.5444 105.941C2.76636 105.941 2.16122 106.54 2.16122 107.311" stroke="#231815" stroke-linecap="round" stroke-linejoin="round"/>
<path d="M3.28506 92.5061C3.19862 91.9071 2.59347 91.3936 1.90189 91.3936" stroke="#231815" stroke-linecap="round" stroke-linejoin="round"/>
<path d="M3.5444 105.941C4.32244 105.941 4.92758 105.342 4.92758 104.572" stroke="#231815" stroke-linecap="round" stroke-linejoin="round"/>
<path d="M1.72897 115.013C1.98863 115.013 2.16174 114.841 2.16174 114.584" stroke="#231815" stroke-linecap="round" stroke-linejoin="round"/>
<path d="M3.80406 130.587C3.80406 130.416 3.71751 130.245 3.5444 130.159" stroke="#231815" stroke-linecap="round" stroke-linejoin="round"/>
<path d="M0.69191 121.345C0.518804 121.345 0.432251 121.43 0.432251 121.602" stroke="#231815" stroke-linecap="round" stroke-linejoin="round"/>
<path d="M5.61917 0.427872C2.67991 0.599021 0.432251 2.99511 0.432251 5.90464" stroke="#231815" stroke-linecap="round" stroke-linejoin="round"/>
<path d="M0.432251 11.0391C0.432251 11.2962 0.605357 11.4675 0.865017 11.4675" stroke="#231815" stroke-linecap="round" stroke-linejoin="round"/>
<path d="M5.96538 0.599168C5.87883 0.51349 5.79228 0.427812 5.61917 0.51349M6.13849 0.856202C6.13849 0.770524 6.13849 0.599168 5.96538 0.51349" stroke="#231815" stroke-linecap="round" stroke-linejoin="round"/>
<path d="M2.16174 11.981C2.16174 11.7239 1.98863 11.5526 1.72897 11.5526" stroke="#231815" stroke-linecap="round" stroke-linejoin="round"/>
<path d="M1.72897 20.5384C1.98863 20.5384 2.16174 20.3671 2.16174 20.11" stroke="#231815" stroke-linecap="round" stroke-linejoin="round"/>
<path d="M32.2453 99.6088C32.1589 100.208 32.0724 100.807 32.0724 101.406" stroke="#231815" stroke-linecap="round" stroke-linejoin="round"/>
<path d="M34.8388 107.225C34.8388 106.455 34.2337 105.856 33.4556 105.856" stroke="#231815" stroke-linecap="round" stroke-linejoin="round"/>
<path d="M35.0117 91.3936C34.3201 91.3936 33.8014 91.8215 33.6285 92.5061" stroke="#231815" stroke-linecap="round" stroke-linejoin="round"/>
<path d="M32.0724 104.572C32.0724 105.342 32.6776 105.941 33.4556 105.941" stroke="#231815" stroke-linecap="round" stroke-linejoin="round"/>
<path d="M34.8388 114.499C34.8388 114.756 35.0119 114.927 35.2716 114.927" stroke="#231815" stroke-linecap="round" stroke-linejoin="round"/>
<path d="M36.5681 121.602C36.5681 121.43 36.4815 121.345 36.3084 121.345" stroke="#231815" stroke-linecap="round" stroke-linejoin="round"/>
<path d="M36.5678 5.90464C36.5678 2.99511 34.3201 0.599021 31.3809 0.427872" stroke="#231815" stroke-linecap="round" stroke-linejoin="round"/>
<path d="M31.0353 0.599228C30.9487 0.684906 30.8622 0.770584 30.8622 0.94194M31.3815 0.427872C31.2949 0.427872 31.1218 0.427872 31.0353 0.51355" stroke="#231815" stroke-linecap="round" stroke-linejoin="round"/>
<path d="M36.1355 11.4675C36.3952 11.4675 36.5683 11.2962 36.5683 11.0391" stroke="#231815" stroke-linecap="round" stroke-linejoin="round"/>
<path d="M34.8388 20.11C34.8388 20.3671 35.0119 20.5384 35.2716 20.5384" stroke="#231815" stroke-linecap="round" stroke-linejoin="round"/>
<path d="M35.2716 11.467C35.0119 11.467 34.8388 11.6383 34.8388 11.8954" stroke="#231815" stroke-linecap="round" stroke-linejoin="round"/>
<path d="M14.8692 137.946H32.2453" stroke="#231815" stroke-linecap="round" stroke-linejoin="round"/>
</g>
<defs>
<clipPath id="clip0_1944_157">
<rect width="37" height="140" fill="white"/>
</clipPath>
</defs>
</svg>
