<svg xmlns="http://www.w3.org/2000/svg" width="1097" height="663" fill="none" viewBox="0 0 1097 663"><path fill="#fff" d="M0 0h1097v663H0z"/><path fill="#000" d="M212.735 567.47h12.3v1.02h-12.3zm5.505.63h1.23v5.055h-1.23zm-3.93-7.755h9.15v5.295h-9.15zm7.92 1.005h-6.705v3.3h6.705zm14.654-1.755h1.2v13.575h-1.2zm-5.895 5.55h3.42v1.005h-3.42zm3.075-5.19h1.17v12.525h-1.17zm-2.91 1.365h1.2q0 1.77-.51 3.405a9.1 9.1 0 0 1-1.62 3.03q-1.125 1.395-2.955 2.49l-.72-.9q1.59-.96 2.61-2.16a8.2 8.2 0 0 0 1.5-2.625q.495-1.425.495-3.015zm-4.02 0h4.485v1.02h-4.485zm14.53 9.284a.92.92 0 0 1-.676-.282.92.92 0 0 1-.282-.676q0-.395.282-.677a.92.92 0 0 1 .676-.282q.395 0 .677.282a.92.92 0 0 1 .282.677.9.9 0 0 1-.133.479 1 1 0 0 1-.346.352.9.9 0 0 1-.48.127m0-5.518a.92.92 0 0 1-.676-.282.93.93 0 0 1-.282-.677q0-.394.282-.676a.92.92 0 0 1 .676-.283.92.92 0 0 1 .677.283.92.92 0 0 1 .282.676.9.9 0 0 1-.133.48 1 1 0 0 1-.346.351.9.9 0 0 1-.48.128m7.413 6.914v-.959l3.6-3.942a24 24 0 0 0 1.044-1.203q.41-.517.608-.97.202-.458.202-.959a1.77 1.77 0 0 0-.277-.996 1.8 1.8 0 0 0-.746-.65 2.4 2.4 0 0 0-1.065-.229q-.629 0-1.097.261-.464.256-.719.719a2.25 2.25 0 0 0-.251 1.087h-1.257q0-.959.442-1.683t1.204-1.129a3.6 3.6 0 0 1 1.721-.405q.958 0 1.699.405.74.404 1.161 1.092.421.687.421 1.528 0 .602-.219 1.178-.213.57-.745 1.273-.528.698-1.465 1.704l-2.45 2.621v.085h5.071V572zm12.491.149q-.937 0-1.689-.373a3.13 3.13 0 0 1-1.204-1.022 2.8 2.8 0 0 1-.495-1.481h1.278q.075.74.671 1.225.602.479 1.439.479.67 0 1.193-.314.527-.314.825-.863.304-.554.304-1.252 0-.714-.314-1.273a2.3 2.3 0 0 0-.852-.889 2.4 2.4 0 0 0-1.242-.331 3.4 3.4 0 0 0-1.028.155 2.9 2.9 0 0 0-.868.399l-1.236-.149.661-5.369h5.667v1.172h-4.559l-.384 3.217h.064q.336-.266.842-.442a3.2 3.2 0 0 1 1.054-.176q1.002 0 1.785.48a3.35 3.35 0 0 1 1.236 1.299q.453.826.453 1.886 0 1.044-.469 1.864a3.4 3.4 0 0 1-1.279 1.289q-.815.47-1.853.469m9.126 0q-.937 0-1.689-.373a3.13 3.13 0 0 1-1.204-1.022 2.8 2.8 0 0 1-.495-1.481h1.278q.075.74.671 1.225.602.479 1.439.479.67 0 1.193-.314.527-.314.825-.863.304-.554.304-1.252 0-.714-.314-1.273a2.3 2.3 0 0 0-.852-.889 2.4 2.4 0 0 0-1.242-.331 3.4 3.4 0 0 0-1.028.155 2.9 2.9 0 0 0-.868.399l-1.236-.149.661-5.369h5.667v1.172h-4.559l-.384 3.217h.064q.335-.266.842-.442a3.2 3.2 0 0 1 1.054-.176q1.002 0 1.785.48.788.474 1.236 1.299.452.826.452 1.886 0 1.044-.468 1.864a3.4 3.4 0 0 1-1.279 1.289q-.815.47-1.853.469m13.259 3.09q-.91 0-1.566-.235a3.3 3.3 0 0 1-1.092-.607 3.3 3.3 0 0 1-.687-.799l1.001-.703q.171.223.432.511.261.294.714.506.458.219 1.198.219.991 0 1.635-.48.645-.479.645-1.502v-1.662h-.107a7 7 0 0 1-.394.554q-.25.325-.724.581-.469.25-1.268.25-.99 0-1.779-.469-.783-.468-1.241-1.363-.453-.895-.453-2.174 0-1.256.442-2.189.442-.937 1.231-1.449.787-.516 1.821-.516.8 0 1.268.266.474.261.725.597.255.33.394.543h.128v-1.3h1.214v8.416q0 1.055-.479 1.716a2.74 2.74 0 0 1-1.279.974 4.8 4.8 0 0 1-1.779.315m-.042-4.496q.756 0 1.278-.346t.794-.996.271-1.556q0-.884-.266-1.561-.267-.676-.788-1.06-.522-.383-1.289-.383-.8 0-1.332.405-.527.405-.794 1.086a4.2 4.2 0 0 0-.261 1.513q0 .852.266 1.508.273.65.799 1.022.534.368 1.322.368M191.146 97.646a.5.5 0 0 0 0 .708l3.182 3.182a.502.502 0 0 0 .708-.708L192.207 98l2.829-2.828a.5.5 0 0 0-.708-.707zm120.708.708a.5.5 0 0 0 0-.708l-3.182-3.181a.501.501 0 0 0-.708.707L310.793 98l-2.829 2.828a.502.502 0 0 0 .708.708zM191.5 98v.5h120v-1h-120z"/><path stroke="#000" d="M190.5 94v8M312.5 94v8"/><path fill="#000" d="M160.354 128.646a.5.5 0 0 0-.708 0l-3.182 3.182a.502.502 0 0 0 .708.708l2.828-2.829 2.828 2.829a.502.502 0 0 0 .708-.708zm-.708 398.708a.5.5 0 0 0 .708 0l3.182-3.182a.502.502 0 0 0-.708-.708L160 526.293l-2.828-2.829a.502.502 0 0 0-.708.708zM160 129h-.5v398h1V129z"/><path stroke="#000" d="M156 128h8M156 528h8"/><path fill="#000" d="M219.125 64.595h1.245v13.56h-1.245zm.915 5.505h2.49v1.035h-2.49zm-4.38-4.05h1.215q0 1.935-.63 3.705-.63 1.755-1.98 3.255-1.35 1.485-3.555 2.58l-.69-.96q1.89-.945 3.135-2.205 1.26-1.275 1.875-2.82.63-1.56.63-3.36zm-5.01 0h5.64v1.035h-5.64zm13.094 9.405h12.3v1.035h-12.3zm5.505-2.895h1.23v3.33h-1.23zm-4.005-6.96h9.27v4.11h-8.01v2.715h-1.23V68.72h8.01v-2.1h-8.04zm.03 6.3h9.555v1.02h-9.555zm13.586 3.704a.92.92 0 0 1-.677-.282.92.92 0 0 1-.282-.676q0-.395.282-.677a.92.92 0 0 1 .677-.282q.394 0 .676.282a.92.92 0 0 1 .283.677.9.9 0 0 1-.134.479 1 1 0 0 1-.346.352.9.9 0 0 1-.479.127m0-5.518a.92.92 0 0 1-.677-.282.92.92 0 0 1-.282-.677q0-.394.282-.676a.92.92 0 0 1 .677-.283q.394 0 .676.283a.92.92 0 0 1 .283.676.9.9 0 0 1-.134.48 1 1 0 0 1-.346.351.9.9 0 0 1-.479.128m10.821 7.063a3.75 3.75 0 0 1-1.689-.373q-.75-.373-1.203-1.022a2.8 2.8 0 0 1-.496-1.481h1.279q.074.74.671 1.225.601.48 1.438.48.67 0 1.193-.315.528-.314.826-.863.303-.555.303-1.252 0-.714-.314-1.273a2.3 2.3 0 0 0-.852-.89 2.4 2.4 0 0 0-1.241-.33 3.4 3.4 0 0 0-1.028.155 2.9 2.9 0 0 0-.869.4l-1.235-.15.66-5.37h5.668v1.173h-4.56l-.383 3.217h.063q.336-.266.842-.442a3.2 3.2 0 0 1 1.055-.176q1 0 1.784.48.789.474 1.236 1.3.453.825.453 1.885 0 1.044-.469 1.864a3.43 3.43 0 0 1-1.278 1.29q-.816.468-1.854.468m9.211 0q-1.097 0-1.939-.389-.836-.394-1.305-1.081a2.7 2.7 0 0 1-.463-1.577 2.9 2.9 0 0 1 .271-1.278q.277-.591.757-.986a2.3 2.3 0 0 1 1.081-.506v-.063a2.1 2.1 0 0 1-1.246-.88 2.66 2.66 0 0 1-.458-1.55 2.63 2.63 0 0 1 .42-1.486 2.96 2.96 0 0 1 1.172-1.033q.752-.378 1.71-.378.948 0 1.694.378t1.172 1.033q.431.656.437 1.487a2.7 2.7 0 0 1-.474 1.55 2.1 2.1 0 0 1-1.231.879v.063q.591.107 1.065.506.475.395.757.986.282.586.288 1.278a2.76 2.76 0 0 1-.48 1.577q-.468.688-1.305 1.081-.831.39-1.923.39m0-1.172q.74 0 1.279-.24.537-.24.831-.676a1.83 1.83 0 0 0 .298-1.023 1.96 1.96 0 0 0-.32-1.092 2.16 2.16 0 0 0-.857-.745 2.7 2.7 0 0 0-1.231-.272q-.698 0-1.246.272-.544.271-.858.745-.309.474-.304 1.092-.005.587.283 1.023.293.437.836.677t1.289.24m0-5.177q.586 0 1.039-.235.458-.234.719-.655.261-.42.266-.985-.004-.555-.261-.964a1.7 1.7 0 0 0-.708-.64 2.3 2.3 0 0 0-1.055-.229 2.4 2.4 0 0 0-1.071.23q-.457.223-.708.639a1.78 1.78 0 0 0-.245.964q-.006.565.25.985.261.421.719.655t1.055.235m9.989 6.2v-8.182h1.215v1.279h.106a2.06 2.06 0 0 1 .826-1.018q.57-.367 1.369-.367.81 0 1.347.367.544.362.847 1.018h.085q.315-.635.943-1.007.629-.378 1.508-.378 1.097 0 1.795.687.698.681.698 2.125V77h-1.257v-5.476q0-.905-.496-1.294a1.83 1.83 0 0 0-1.166-.39q-.864 0-1.337.523-.474.516-.474 1.31V77h-1.279v-5.604q0-.698-.453-1.124-.452-.43-1.166-.431-.49 0-.916.26a1.97 1.97 0 0 0-.682.725 2.13 2.13 0 0 0-.256 1.06V77zm13.037 0v-8.182h1.215v1.279h.106a2.06 2.06 0 0 1 .826-1.018q.57-.367 1.369-.367.81 0 1.347.367.544.362.847 1.018h.086q.314-.635.942-1.007.629-.378 1.508-.378 1.097 0 1.795.687.698.681.698 2.125V77H291.4v-5.476q0-.905-.496-1.294a1.83 1.83 0 0 0-1.166-.39q-.864 0-1.337.523-.474.516-.474 1.31V77h-1.279v-5.604q0-.698-.453-1.124-.452-.43-1.166-.431-.49 0-.916.26a1.97 1.97 0 0 0-.682.725 2.13 2.13 0 0 0-.256 1.06V77zM54.116 325.455h2.61v1.035h-2.61zm-2.52-3.585h.975v2.595q0 1.05-.225 2.07-.21 1.02-.63 1.92-.405.9-.99 1.62t-1.32 1.17l-.78-.93q.69-.42 1.245-1.05t.93-1.41q.39-.795.585-1.65.21-.87.21-1.74zm.24 0h.96v2.55q0 .81.18 1.635.195.81.54 1.56.36.735.885 1.35t1.185 1.02l-.705.96q-.735-.45-1.305-1.14a7.1 7.1 0 0 1-.96-1.575 9 9 0 0 1-.585-1.86 10 10 0 0 1-.195-1.95zm7.275-1.275h1.2v13.575h-1.2zm-2.76.285h1.17v12.6h-1.17zm6.224 10.575h12.3v1.035h-12.3zm5.505-2.895h1.23v3.33h-1.23zm-4.005-6.96h9.27v4.11h-8.01v2.715h-1.23v-3.705h8.01v-2.1h-8.04zm.03 6.3h9.555v1.02h-9.555zm13.585 3.704a.92.92 0 0 1-.676-.282.92.92 0 0 1-.282-.676q0-.395.282-.677a.92.92 0 0 1 .676-.282q.395 0 .677.282a.92.92 0 0 1 .282.677.9.9 0 0 1-.133.479 1 1 0 0 1-.346.352.9.9 0 0 1-.48.127m0-5.518a.92.92 0 0 1-.676-.282.93.93 0 0 1-.282-.677q0-.394.282-.676a.92.92 0 0 1 .676-.283.92.92 0 0 1 .677.283.92.92 0 0 1 .282.676.9.9 0 0 1-.133.48 1 1 0 0 1-.346.351.9.9 0 0 1-.48.128m11.248-3.995V333h-1.321v-9.524h-.064l-2.664 1.768v-1.342l2.728-1.811zm6.61-.149q.672.005 1.342.255.672.25 1.225.831.555.576.89 1.572.336.996.336 2.498 0 1.454-.277 2.583-.271 1.125-.789 1.897a3.5 3.5 0 0 1-1.246 1.172q-.73.399-1.651.399-.916 0-1.636-.362a3.2 3.2 0 0 1-1.172-1.017 3.55 3.55 0 0 1-.58-1.519h1.3q.176.752.697 1.242.528.484 1.39.484 1.263 0 1.993-1.102.735-1.103.735-3.116h-.085a3.4 3.4 0 0 1-.709.772 3.13 3.13 0 0 1-1.976.676 3.3 3.3 0 0 1-1.72-.463 3.5 3.5 0 0 1-1.247-1.284q-.463-.82-.463-1.875 0-1 .447-1.832a3.46 3.46 0 0 1 1.268-1.332q.82-.495 1.928-.479m0 1.172q-.67 0-1.21.335-.531.33-.846.895a2.5 2.5 0 0 0-.309 1.241q0 .682.298 1.241.304.554.826.885.528.324 1.198.325.507 0 .943-.198.437-.202.762-.548.33-.352.517-.794.186-.447.186-.932 0-.64-.309-1.199a2.46 2.46 0 0 0-.841-.905 2.2 2.2 0 0 0-1.215-.346m9.446 10.035q-1.204 0-2.051-.655-.847-.66-1.295-1.912-.447-1.257-.447-3.037 0-1.768.447-3.02.454-1.257 1.3-1.917.852-.666 2.046-.666 1.192 0 2.04.666.852.66 1.299 1.917.453 1.252.453 3.02 0 1.78-.447 3.037-.447 1.251-1.295 1.912-.847.655-2.05.655m0-1.172q1.193 0 1.853-1.15.661-1.15.661-3.282 0-1.416-.304-2.413-.298-.996-.863-1.518a1.9 1.9 0 0 0-1.347-.522q-1.183 0-1.849 1.167-.666 1.162-.666 3.286 0 1.418.299 2.408.298.991.857 1.508.566.516 1.359.516M115.05 333v-8.182h1.215v1.279h.106q.256-.655.826-1.018.57-.367 1.369-.367.81 0 1.348.367.543.363.847 1.018h.085q.314-.635.943-1.007.628-.378 1.507-.378 1.098 0 1.795.687.698.682.698 2.125V333h-1.257v-5.476q0-.906-.495-1.294a1.84 1.84 0 0 0-1.167-.389q-.863 0-1.337.522-.474.516-.474 1.31V333h-1.278v-5.604q0-.698-.453-1.124-.453-.43-1.167-.431-.49 0-.916.261-.42.26-.682.724-.255.459-.255 1.06V333zm13.038 0v-8.182h1.214v1.279h.107q.255-.655.825-1.018.57-.367 1.369-.367.81 0 1.348.367.543.363.847 1.018h.085q.315-.635.943-1.007.628-.378 1.507-.378 1.098 0 1.795.687.698.682.698 2.125V333h-1.257v-5.476q0-.906-.495-1.294a1.84 1.84 0 0 0-1.167-.389q-.863 0-1.337.522-.474.516-.474 1.31V333h-1.278v-5.604q0-.698-.453-1.124-.453-.43-1.167-.431-.49 0-.916.261-.42.26-.682.724-.255.459-.255 1.06V333z"/><g clip-path="url(#a)"><mask id="b" width="76" height="61" x="213" y="161" maskUnits="userSpaceOnUse" style="mask-type:luminance"><path fill="#fff" d="M285.721 161.421h-68.968a3.15 3.15 0 0 0-3.149 3.149v53.832a3.15 3.15 0 0 0 3.149 3.149h68.968a3.15 3.15 0 0 0 3.149-3.149V164.57a3.15 3.15 0 0 0-3.149-3.149"/></mask><g mask="url(#b)"><path fill="url(#c)" d="M288.87 161.421h-75.266v60.13h75.266z"/></g><path stroke="#000" stroke-linecap="round" stroke-linejoin="round" stroke-width=".5" d="M285.721 161.421h-68.968a3.15 3.15 0 0 0-3.149 3.149v53.832a3.15 3.15 0 0 0 3.149 3.149h68.968a3.15 3.15 0 0 0 3.149-3.149V164.57a3.15 3.15 0 0 0-3.149-3.149"/><path fill="gray" d="M274.334 149.79c0-2.638-1.245-3.171-3.252-3.171-2.008 0-2.497.615-2.497.778v.74l.089-.022c2-.444 3.356-.452 3.815-.037.156.141.489.452.489 1.749 0 1.296-.266 1.57-.363 1.674-.37.415-1.23.363-1.993.319h-.14c-.764-.045-.764-.615-.764-.956 0-.296.097-.652.556-.652h2.245v-.748s-.03-.008-.044-.015c-.282-.097-1.401-.267-1.645-.267-2.171 0-2.497 1.015-2.497 1.623 0 .644.207 1.155.608 1.533.822.763 2.163.682 2.222.674 1.037.075 1.852-.17 2.408-.74.919-.949.778-2.416.771-2.482M265.332 146.708h-.74c-.83 0-1.23.392-1.341.526-.438-.423-1.097-.526-1.327-.526h-.689c-1.785 0-1.978 1.585-1.978 2.274v3.934h1.208v-3.934c0-.608.126-1.171 1.037-1.171s1.126.43 1.126 1.171v3.934h1.245v-3.934c0-.808.326-1.185 1.045-1.185.77 0 1.111.363 1.111 1.185v3.934h1.215v-3.934c0-2.163-1.593-2.274-1.912-2.274M255.546 151.834h-.267c-1.126 0-1.808-.133-1.808-2s.4-2.082 1.6-2.082h.304c1.119 0 1.363.185 1.363 1.03 0 .422-.192.607-.637.607h-2.141v.889s.044 0 .067.008c.422.074 1.185.126 1.77.126.867 0 2.319-.208 2.319-1.601 0-1.822-1.43-2.215-2.622-2.215h-.186c-2.326 0-3.193.874-3.193 3.223s.882 3.171 3.053 3.171h.163c1.37 0 2.533-.363 2.533-.785v-.741s-.059.015-.096.022c-.8.207-1.415.333-2.23.333M251.619 146.729a14 14 0 0 0-1.534-.125c-.748 0-1.993.303-1.993 2.326v3.986h1.334v-3.897c0-1.074.192-1.186 1.037-1.186h1.223v-1.096s-.045 0-.06-.008M244.462 146.611h-.185c-2.327 0-3.186.874-3.186 3.223v3.089h1.356v-3.082c0-1.785.4-2.082 1.593-2.082h.303c1.156 0 1.364.423 1.364 1.237 0 .489-.163 1.015-.638 1.015h-2.141v.897s.037 0 .06.007c.429.074 1.192.126 1.77.126 1.919 0 2.327-1.096 2.327-2.015 0-1.511-.986-2.415-2.63-2.415M231.467 149.13c-.459-.059-.926-.111-1.393-.17-.333-.052-.63-.134-.63-.489 0-.564.163-.719 1.297-.719h.281c.66 0 1.29.096 2.045.304.03 0 .059.014.089.022v-.889c-.111-.222-1.156-.585-2.178-.585h-.282c-1.718 0-2.556.637-2.556 1.955s1.06 1.534 2.053 1.69l.615.089c.451.051.733.096.874.163.266.111.407.17.407.614 0 .697-.474.771-1.481.771h-.282c-.593 0-1.311-.17-2.082-.489-.037-.015-.067-.03-.104-.044v.859c0 .348 1.052.785 2.23.785h.26c1.926 0 2.815-.644 2.815-2.037s-1-1.682-1.978-1.837M238.542 146.87v3.808c0 .252 0 .623-.207.837-.148.149-.378.215-.697.215h-1.015c-.17 0-.459 0-.659-.207q-.253-.256-.252-.845v-3.808h-1.267v3.83c0 .386.089 2.29 1.89 2.29h1.674c.682 0 1.822-.297 1.822-2.29v-3.83h-1.289"/><path stroke="gray" stroke-miterlimit="10" stroke-width=".25" d="M237.438 416.083c8.343 4.26 19.374 4.26 27.606 0"/><path stroke="gray" stroke-linecap="round" stroke-linejoin="round" stroke-width=".25" d="M280.113 416.535a35.1 35.1 0 0 0 6.357-20.182c0-3.615-.549-7.105-1.564-10.394-3.022-15.848-16.936-27.828-33.665-27.828s-30.643 11.98-33.666 27.828a35.1 35.1 0 0 0-1.563 10.394 35.04 35.04 0 0 0 7.239 21.389"/><path stroke="#000" stroke-linecap="round" stroke-linejoin="round" stroke-width=".25" d="M291.671 392.404c0 22.33-18.1 40.43-40.43 40.43s-40.43-18.1-40.43-40.43 18.1-40.429 40.43-40.429 40.43 18.099 40.43 40.429"/><path stroke="#000" stroke-miterlimit="10" stroke-width=".5" d="M252.677 430.199c20.873-.798 37.147-18.367 36.349-39.24s-18.367-37.147-39.24-36.349-37.147 18.367-36.349 39.24 18.367 37.147 39.24 36.349Z"/><path stroke="gray" stroke-linecap="round" stroke-linejoin="round" stroke-width=".25" d="M272.363 417.461c1.038-.689 1.527-1.075 1.771-1.556 3.304-6.238 2.919-15.477.393-19.967v-8.327c-2.097-10.98-11.736-19.285-23.323-19.285h.059c-11.587 0-21.233 8.305-23.323 19.285v8.327c-2.526 4.49-2.911 13.729.393 19.967.252.481.741.867 1.771 1.556 11.646 6.808 31.035 6.971 42.252 0z"/><path stroke="#000" stroke-miterlimit="10" stroke-width=".5" d="M237.831 420.914c-3.726 0-4.971-.038-6.379-.919-1.207-.763-1.608-1.541-1.608-2.593l-.896-35.014c0-1.941 1.252-3.312 3.43-3.312h37.733c2.171 0 3.43 1.371 3.43 3.312l-.896 35.014c0 1.052-.4 1.837-1.608 2.593-1.4.881-2.645.919-6.379.919z"/><path fill="url(#d)" d="M237.616 415.698v-12.706h27.25v12.765l-3.601.83h-20.004z"/><path stroke="#000" stroke-linecap="round" stroke-linejoin="round" stroke-width=".25" d="M229.57 397.487c3.179-2.66 14.788-6.72 21.271-6.72h.8c6.483 0 18.092 4.06 21.271 6.72"/><path stroke="#000" stroke-miterlimit="10" stroke-width=".5" d="M232.134 413.749c.807.615 2.726 1.378 5.304 1.949 6.817 2.607 20.93 2.607 27.606 0 2.578-.571 4.504-1.334 5.304-1.949"/><path stroke="#000" stroke-linecap="round" stroke-linejoin="round" stroke-width=".25" d="M270.348 413.749c.289-.222.452-.682.497-1.178.311-3.438-.452-11.536-1.201-13.706-.422-1.208-2.652-2.638-4.675-3.194-4.378-1.2-8.838-1.933-13.321-1.933h-.8c-4.489 0-8.942.733-13.321 1.933-2.022.556-4.252 1.986-4.675 3.194-.755 2.163-1.518 10.268-1.2 13.706.045.496.208.963.497 1.178"/><path stroke="#000" stroke-miterlimit="10" stroke-width=".5" d="M237.616 415.698v-12.706h27.25v12.765"/><path stroke="#000" stroke-linecap="round" stroke-linejoin="round" stroke-width=".25" d="M261.265 416.586h-20.004M236.579 415.305v-13.558h29.324v13.602"/><path stroke="gray" stroke-miterlimit="10" stroke-width=".25" d="M266.814 414.956v-14.839c0-1.023-1.104-1.134-2.178-.852 0 0-3.415.541-4.601.541h-17.588c-1.178 0-4.601-.541-4.601-.541-1.074-.274-2.178-.171-2.178.852v14.839"/><path stroke="gray" stroke-miterlimit="10" stroke-width=".25" d="m242.447 399.798 4.364-.622c1.6-.296 7.119-.207 9.431.081l3.793.541"/><path fill="#000" d="M252.004 478.406a.53.53 0 0 1 .371-.052.45.45 0 0 1 .288.23c.06.111.082.244.052.363a.47.47 0 0 1-.229.288l-3.201 1.838c-.193.104-.415.17-.637.163a1.39 1.39 0 0 1-1.126-.659l-6.246-11.121a1.294 1.294 0 0 1 .489-1.756l6.453-3.623c.289-.163.652-.207.986-.118.326.088.615.326.77.607l2.867 5.105c.06.103.082.244.045.37a.48.48 0 0 1-.23.289.5.5 0 0 1-.37.045.48.48 0 0 1-.289-.23l-2.868-5.105a.34.34 0 0 0-.192-.155.35.35 0 0 0-.245.029l-6.453 3.623c-.133.074-.2.311-.126.437l6.246 11.121c.074.133.311.2.437.126l3.201-1.83zM260.124 480.465a.52.52 0 0 0 .452-.311c.585-1.511.837-3.156.8-4.786-.022-.734-.096-1.46-.296-2.156a.5.5 0 0 0-.134-.222l-5.964-5.653a.48.48 0 0 0-.422-.126l-1.985.363a.487.487 0 0 0-.393.563.49.49 0 0 0 .563.393l1.741-.326 5.675 5.386c.059.267.111.533.141.8.23 1.808.015 3.712-.645 5.408-.089.215.06.534.274.623a.5.5 0 0 0 .178.037"/><path fill="#000" d="M251.493 470.13a2.08 2.08 0 0 0-1.497-.318q-.388.068-.711.281a2 2 0 0 0-.57.548 2.2 2.2 0 0 0-.312.727 2.1 2.1 0 0 0-.014.77c.103.504.414.993.829 1.282l2.705 1.867q.045.466.17.933c.459 1.786 1.645 3.453 3.141 4.512a.53.53 0 0 0 .282.089.5.5 0 0 0 .222-.052.6.6 0 0 0 .178-.155.52.52 0 0 0 .081-.363.47.47 0 0 0-.2-.312 7.36 7.36 0 0 1-2.504-3.163c-.237-.571-.392-1.163-.407-1.771a.5.5 0 0 0-.208-.385l-2.897-1.993a1.05 1.05 0 0 1-.422-1.052 1.03 1.03 0 0 1 .459-.659.95.95 0 0 1 .371-.141 1.08 1.08 0 0 1 .77.163l5.187 3.571a.488.488 0 0 0 .755-.489.5.5 0 0 0-.2-.311l-5.186-3.571z"/><path stroke="#040000" stroke-linecap="round" stroke-linejoin="round" d="M291.108 128.371h-79.734c-11.6 0-21.004 9.403-21.004 21.003v357.252c0 11.6 9.404 21.004 21.004 21.004h79.734c11.6 0 21.004-9.404 21.004-21.004V149.374c0-11.6-9.404-21.003-21.004-21.003"/><path stroke="#040000" stroke-linecap="round" stroke-linejoin="round" stroke-width=".5" d="M287.136 137.928h-71.798c-9.857 0-17.848 7.99-17.848 17.847v339.211c0 9.858 7.991 17.848 17.848 17.848h71.798c9.857 0 17.848-7.99 17.848-17.848V155.775c0-9.857-7.991-17.847-17.848-17.847"/><path stroke="#040000" stroke-miterlimit="10" stroke-width=".5" d="M197.49 234.716h107.502"/><path stroke="#000" stroke-width=".5" d="M244.032 266.492c2.341 0 4.245-1.882 4.245-4.2v-4.831c0-2.319-1.896-4.201-4.245-4.201h-29.916c-2.342 0-4.246 1.882-4.246 4.201v4.831c0 2.318 1.897 4.2 4.246 4.2zM209.87 297.157v-4.83c0-2.319 1.897-4.201 4.246-4.201h15.276a4.225 4.225 0 0 1 4.238 4.223v4.808c0 2.319-1.896 4.201-4.245 4.201h-15.277c-2.341 0-4.245-1.882-4.245-4.201zM258.45 266.492c-2.341 0-4.246-1.882-4.246-4.2v-4.831c0-2.319 1.897-4.201 4.246-4.201h29.916c2.342 0 4.246 1.882 4.246 4.201v4.831c0 2.318-1.897 4.2-4.246 4.2zM239.357 297.157v-4.83c0-2.319 1.897-4.201 4.245-4.201h15.277a4.225 4.225 0 0 1 4.238 4.223v4.808c0 2.319-1.896 4.201-4.245 4.201h-15.277c-2.341 0-4.245-1.882-4.245-4.201zM268.852 297.157v-4.83c0-2.319 1.896-4.201 4.245-4.201h15.277a4.225 4.225 0 0 1 4.238 4.223v4.808c0 2.319-1.897 4.201-4.246 4.201h-15.277c-2.341 0-4.245-1.882-4.245-4.201zM229.392 270.693c2.342 0 4.246 1.882 4.246 4.201v4.83c0 2.319-1.897 4.201-4.246 4.201h-15.276c-2.342 0-4.246-1.882-4.246-4.201v-4.83c0-2.319 1.897-4.201 4.246-4.201zM214.116 336.216c-2.342 0-4.246-1.881-4.246-4.2v-4.831c0-2.319 1.897-4.201 4.246-4.201h15.276a4.225 4.225 0 0 1 4.238 4.223v4.809c0 2.319-1.896 4.2-4.245 4.2h-15.277zM214.116 318.783c-2.342 0-4.246-1.881-4.246-4.2v-4.831c0-2.319 1.897-4.201 4.246-4.201h15.276a4.225 4.225 0 0 1 4.238 4.223v4.809c0 2.319-1.896 4.2-4.245 4.2h-15.277zM243.603 318.783c-2.342 0-4.246-1.881-4.246-4.2v-4.831c0-2.319 1.897-4.201 4.246-4.201h15.276a4.225 4.225 0 0 1 4.238 4.223v4.809c0 2.319-1.896 4.2-4.245 4.2h-15.277zM243.603 336.216c-2.342 0-4.246-1.881-4.246-4.2v-4.831c0-2.319 1.897-4.201 4.246-4.201h15.276a4.225 4.225 0 0 1 4.238 4.223v4.809c0 2.319-1.896 4.2-4.245 4.2h-15.277zM258.879 270.693c2.342 0 4.246 1.882 4.246 4.201v4.83c0 2.319-1.897 4.201-4.246 4.201h-15.276c-2.342 0-4.246-1.882-4.246-4.201v-4.83c0-2.319 1.897-4.201 4.246-4.201zM273.097 318.783c-2.341 0-4.245-1.881-4.245-4.2v-4.831c0-2.319 1.896-4.201 4.245-4.201h15.277a4.225 4.225 0 0 1 4.238 4.223v4.809c0 2.319-1.897 4.2-4.246 4.2h-15.277zM273.097 336.216c-2.341 0-4.245-1.881-4.245-4.2v-4.831c0-2.319 1.896-4.201 4.245-4.201h15.277a4.225 4.225 0 0 1 4.238 4.223v4.809c0 2.319-1.897 4.2-4.246 4.2h-15.277zM288.374 270.693c2.341 0 4.245 1.882 4.245 4.201v4.83c0 2.319-1.897 4.201-4.245 4.201h-15.277c-2.341 0-4.245-1.882-4.245-4.201v-4.83c0-2.319 1.896-4.201 4.245-4.201z"/><path fill="#231815" d="M282.862 295.431a1.5 1.5 0 0 0-.304-.452 1.5 1.5 0 0 0-.452-.304 1.4 1.4 0 0 0-.556-.111h-.563a1.4 1.4 0 0 0-.541.111v-.526c0-.17.052-.319.149-.437a.49.49 0 0 1 .4-.178h.607c.141 0 .252.045.319.126a.74.74 0 0 1 .14.319h.912a1.6 1.6 0 0 0-.141-.512 1.35 1.35 0 0 0-1.222-.785h-.623q-.3 0-.555.111a1.5 1.5 0 0 0-.452.304c-.126.126-.23.282-.304.452a1.4 1.4 0 0 0-.111.556v2.119q0 .29.111.548c.074.17.178.318.304.452.126.126.281.229.452.303q.255.112.555.112h.563q.3 0 .556-.112a1.5 1.5 0 0 0 .452-.303c.126-.126.23-.282.304-.452q.111-.258.111-.548v-.238q0-.288-.111-.555m-.771.726c0 .17-.052.318-.148.437a.49.49 0 0 1-.4.178h-.548a.5.5 0 0 1-.393-.171.72.72 0 0 1-.163-.422v-.17c0-.171.052-.319.148-.437a.49.49 0 0 1 .4-.178h.548q.256 0 .401.178a.68.68 0 0 1 .148.437v.14zM287.218 295.135l-1.215 1.941h-.682l1.223-1.941-1.223-1.889h.682zM251.263 317.02l-1.956-1.208v-.674l1.956 1.208 1.912-1.208v.674zM252.834 312.479a1.2 1.2 0 0 0-.334-.4 1.227 1.227 0 0 0 .319-.86v-.215c0-.192-.03-.378-.089-.548a1.1 1.1 0 0 0-.267-.43 1.3 1.3 0 0 0-.414-.281 1.4 1.4 0 0 0-.541-.104h-.504q-.298.002-.541.104a1.2 1.2 0 0 0-.415.281 1.4 1.4 0 0 0-.267.43c-.066.17-.096.348-.096.548v.215q.002.256.082.467.075.212.229.378a1.13 1.13 0 0 0-.466.948v.319q.002.277.103.511.1.231.289.407c.126.119.267.2.43.267s.341.096.526.096h.733c.186 0 .363-.029.526-.096a1.5 1.5 0 0 0 .43-.267c.119-.111.215-.252.289-.407.074-.156.104-.326.104-.511v-.319c0-.2-.045-.378-.126-.533m-2.275-1.408a.77.77 0 0 1 .119-.437.42.42 0 0 1 .37-.185h.423c.081 0 .155.014.222.052a.43.43 0 0 1 .155.133.6.6 0 0 1 .089.2c.023.074.03.156.03.237v.111a.8.8 0 0 1-.119.437.34.34 0 0 1-.155.134.5.5 0 0 1-.222.051h-.423c-.17 0-.296-.059-.37-.185a.77.77 0 0 1-.119-.437zm1.571 2.156a.5.5 0 0 1-.178.407.65.65 0 0 1-.429.149h-.541a.65.65 0 0 1-.43-.149.5.5 0 0 1-.178-.407v-.089q0-.255.178-.422a.6.6 0 0 1 .43-.163h.541q.253-.002.429.163a.55.55 0 0 1 .178.422zM249.678 279.599c.34-.252.666-.519.978-.786.311-.266.615-.541.903-.807l.201-.2a.6.6 0 0 0 .133-.186 1 1 0 0 0 .081-.207c.015-.074.03-.163.03-.274a.6.6 0 0 0-.044-.23.7.7 0 0 0-.126-.192.6.6 0 0 0-.186-.126.6.6 0 0 0-.222-.045h-.407a.6.6 0 0 0-.23.045.5.5 0 0 0-.185.126.597.597 0 0 0-.171.422v.17h-.792v-.318q.002-.265.103-.497c.067-.155.163-.289.274-.407a1.35 1.35 0 0 1 .919-.378h.63q.269.002.504.104c.155.066.296.155.407.274.111.118.208.252.282.407q.101.232.103.497v.111c0 .148 0 .274-.022.393a1.28 1.28 0 0 1-.252.651c-.074.097-.17.208-.281.319-.282.259-.571.519-.867.771q-.454.387-.919.718h2.245v.726h-3.082v-1.081zM251.263 273.293l-1.956 1.208v.674l1.956-1.207 1.912 1.207v-.674zM282.328 276.161q.125.378.059.733a1.07 1.07 0 0 1-.377.623c-.015.014-.03.037-.045.051l.045.045c.133.133.229.274.289.437.177.437.177.867 0 1.304a1.333 1.333 0 0 1-.667.704 1.4 1.4 0 0 1-.334.111 2.5 2.5 0 0 1-.666.044h-.349a1.286 1.286 0 0 1-1.17-.785 1.2 1.2 0 0 1-.097-.496v-.141h.786c0 .081.015.155.037.222a.4.4 0 0 0 .141.193.6.6 0 0 0 .214.111c.082.03.163.044.252.052.089.007.171.007.237 0 .104-.008.2-.022.304-.037.104-.022.2-.06.282-.126a.53.53 0 0 0 .207-.341.86.86 0 0 0-.015-.437c-.066-.252-.244-.4-.533-.452a2 2 0 0 0-.467-.037h-.252v-.734h.252c.193 0 .341-.014.467-.037a.75.75 0 0 0 .333-.126.5.5 0 0 0 .141-.17.44.44 0 0 0 .052-.215.543.543 0 0 0-.193-.422.6.6 0 0 0-.222-.111 1.3 1.3 0 0 0-.304-.052c-.111 0-.222 0-.333.015a1.1 1.1 0 0 0-.311.096.56.56 0 0 0-.223.193.48.48 0 0 0-.088.289h-.786v-.149c0-.207.045-.385.134-.548s.2-.289.34-.393q.213-.155.482-.244a2 2 0 0 1 .548-.081h.423c.059 0 .125.007.185.014l.178.023q.153.033.318.111c.111.052.208.111.289.185.089.074.178.163.245.267.074.096.126.207.163.318zM282.284 310.945a1.1 1.1 0 0 0-.23-.43 1 1 0 0 0-.378-.281 1.3 1.3 0 0 0-.518-.104h-.852q-.298.002-.519.104a1.1 1.1 0 0 0-.378.281 1.2 1.2 0 0 0-.23.43c-.051.17-.074.348-.074.548v.637c0 .193.023.378.074.541.052.163.126.311.23.43a1.1 1.1 0 0 0 .378.281q.22.102.519.104h.985a93 93 0 0 0-.304 1.586h.815c.148-.764.296-1.527.437-2.297.074-.193.119-.408.119-.645v-.637q.002-.291-.074-.548m-.815 1.133c0 .171-.03.312-.089.408-.059.104-.178.148-.348.148h-.608c-.17 0-.281-.052-.348-.148a.8.8 0 0 1-.089-.408v-.54c0-.171.03-.312.089-.408.059-.104.178-.148.348-.148h.608c.17 0 .281.052.348.148a.8.8 0 0 1 .089.408zM225.37 331.297q.166.002.244-.097a.8.8 0 0 0 .119-.244h.733a1.2 1.2 0 0 1-.341.726 1.3 1.3 0 0 1-.333.222 1 1 0 0 1-.415.082h-.496a1.14 1.14 0 0 1-1.052-.697 1.1 1.1 0 0 1-.089-.444v-1.638a1.12 1.12 0 0 1 .333-.807 1.13 1.13 0 0 1 .808-.334h.496c.156 0 .289.03.422.082q.189.078.334.222a1.19 1.19 0 0 1 .34.734h-.733a.6.6 0 0 0-.111-.252c-.052-.067-.141-.104-.252-.104h-.489a.41.41 0 0 0-.326.148.53.53 0 0 0-.119.356v1.563c0 .141.038.252.119.356a.4.4 0 0 0 .326.148h.489zM222.117 329.548c.163 0 .319.03.459.089q.21.091.363.26.158.168.238.392c.059.148.088.319.088.497q-.001.254-.081.474a1.07 1.07 0 0 1-.563.63 1.1 1.1 0 0 1-.445.088h-1.807v-.726h1.593a.7.7 0 0 0 .222-.029.495.495 0 0 0 .311-.237.45.45 0 0 0 .044-.208.43.43 0 0 0-.148-.348.56.56 0 0 0-.37-.126h-.467q-.298 0-.541-.067a1.2 1.2 0 0 1-.415-.2.8.8 0 0 1-.259-.355 1.4 1.4 0 0 1-.096-.526 1.21 1.21 0 0 1 .281-.771.96.96 0 0 1 .748-.333h1.638v.763h-1.334c-.074 0-.148 0-.215.015a1 1 0 0 0-.177.052.34.34 0 0 0-.119.111.4.4 0 0 0-.044.2c0 .096.029.178.096.244a.36.36 0 0 0 .267.097h.711zM217.783 331.319h1.978v.659h-2.726v-3.912h2.726v.667h-1.978v.956h1.978v.667h-1.978zM252.849 327.904a1.4 1.4 0 0 0-.289-.422 1.5 1.5 0 0 0-.43-.289 1.25 1.25 0 0 0-.526-.104h-.734c-.185 0-.363.037-.526.104a1.367 1.367 0 0 0-.718.711 1.3 1.3 0 0 0-.104.518v2.238q.002.276.104.519.1.243.289.422c.118.118.266.215.429.289s.341.103.526.103h.734a1.4 1.4 0 0 0 .526-.103c.163-.074.304-.163.43-.289a1.5 1.5 0 0 0 .289-.422c.074-.163.103-.334.103-.519v-2.238a1.4 1.4 0 0 0-.103-.518m-.734 2.6a.5.5 0 0 1-.052.237.5.5 0 0 1-.133.193.7.7 0 0 1-.193.133.6.6 0 0 1-.237.052h-.541a.5.5 0 0 1-.237-.052.5.5 0 0 1-.192-.133.6.6 0 0 1-.134-.193.7.7 0 0 1-.044-.237v-1.941c0-.081.015-.163.044-.237a.5.5 0 0 1 .134-.192 1 1 0 0 1 .192-.134.5.5 0 0 1 .237-.052h.541q.125-.002.237.052a.6.6 0 0 1 .193.134.7.7 0 0 1 .133.192c.03.074.052.156.052.237zM220.094 310.182h3.312l-.874 4.815h-.926l.696-3.926h-1.289v.726h-.919zM215.286 295.135l1.223 1.941h.681l-1.222-1.941 1.222-1.889h-.681zM222.406 295.883v-3.156h-1.474l-1.601 3.156v.748h2.223v.971h.845v-.971h.755v-.748h-.755zm-.852 0h-1.297l1.297-2.497zM251.271 294.298c.259 0 .489.037.703.111q.312.113.534.326t.333.526a2.1 2.1 0 0 1 .119.711q.002.788-.43 1.23-.434.444-1.289.444a2.3 2.3 0 0 1-.696-.096 1.5 1.5 0 0 1-.534-.289 1.3 1.3 0 0 1-.341-.496q-.12-.298-.118-.697h.83q.001.345.192.556c.126.141.341.215.637.215q.41 0 .652-.222c.163-.149.237-.356.237-.63a1 1 0 0 0-.066-.393.68.68 0 0 0-.482-.4 1.4 1.4 0 0 0-.355-.044c-.312 0-.534.074-.675.222h-.844v-2.682h3.06v.859h-2.142v.897a.7.7 0 0 1 .304-.104c.134-.022.259-.03.393-.03zM230.756 258.721l.563-.889h.978v4.875h-.845v-3.986zM226.77 262.758h-.934v-4.867h3.394v.829h-2.46v1.186h2.46v.837h-2.46zM273.919 261.691c.341-.252.667-.518.978-.785.311-.274.615-.541.904-.808l.2-.2a.6.6 0 0 0 .133-.185 1 1 0 0 0 .082-.207c.015-.074.03-.163.03-.274a.6.6 0 0 0-.356-.549.6.6 0 0 0-.222-.044h-.408a.6.6 0 0 0-.229.044.587.587 0 0 0-.356.549v.17h-.793v-.319q.002-.264.104-.496a1.3 1.3 0 0 1 .696-.682 1.3 1.3 0 0 1 .504-.103h.63a1.3 1.3 0 0 1 .911.378 1.254 1.254 0 0 1 .385.903v.112c0 .148 0 .274-.022.392a1.28 1.28 0 0 1-.252.652c-.074.097-.17.208-.281.319q-.423.39-.867.77c-.296.252-.608.497-.919.719h2.245v.726h-3.082v-1.082zM270.674 262.78h-.933v-4.875h3.386v.837h-2.453v1.178h2.453v.838h-2.453zM280.365 328.763a1.1 1.1 0 0 0-.245-.363 1.12 1.12 0 0 0-.807-.334h-.452a1.14 1.14 0 0 0-1.052.697 1.1 1.1 0 0 0-.089.444v1.638a1.14 1.14 0 0 0 1.141 1.141h.452a1.136 1.136 0 0 0 1.141-1.141v-1.638q0-.232-.089-.444m-.622 2.037a.54.54 0 0 1-.119.356.4.4 0 0 1-.326.148h-.444a.41.41 0 0 1-.326-.148.53.53 0 0 1-.119-.356v-1.563c0-.141.037-.252.119-.356a.38.38 0 0 1 .326-.148h.444c.133 0 .245.052.326.148a.53.53 0 0 1 .119.356zM282.262 329.993c.244.333.496.659.74.993q.189.253.378.496c.126.163.245.326.371.489h-.771l-1.193-1.534h-.029v1.534h-.748v-3.919h.748v1.548h.029c.401-.518.793-1.03 1.193-1.548h.771l-1.489 1.933zM220.895 276.005l.629-.985h1.082v5.416h-.933v-4.431zM253.508 334.053h-4.534v-1.386h.511v.741h3.512v-.741h.511z"/></g><path fill="#000" d="M464.135 65.3h1.02v1.38q0 1.305-.465 2.43-.45 1.125-1.29 1.965a5.7 5.7 0 0 1-1.965 1.26l-.675-.99q1.035-.375 1.785-1.08.765-.705 1.17-1.62.42-.93.42-1.965zm.225 0h1.005v1.485q0 .675.24 1.335.24.645.675 1.2.45.555 1.05.99.6.42 1.335.675l-.66.975a5.7 5.7 0 0 1-1.905-1.17q-.825-.78-1.29-1.8a5.5 5.5 0 0 1-.45-2.205zm5.76-.705h1.245v8.235h-1.245zm.9 3.51h2.34v1.05h-2.34zm-3.975 5.085q1.38 0 2.37.3 1.005.285 1.545.84t.54 1.335-.54 1.335-1.545.84q-.99.3-2.37.3t-2.385-.3q-1.005-.285-1.545-.84t-.54-1.335.54-1.335 1.545-.84q1.005-.3 2.385-.3m0 .99q-1.005 0-1.74.18-.72.18-1.11.51t-.39.795q0 .48.39.81t1.11.51q.735.165 1.74.165t1.725-.165q.72-.18 1.11-.51t.39-.81q0-.465-.39-.795t-1.11-.51-1.725-.18m16.874-9.585h1.245v9.825h-1.245zm.855 4.02h2.4v1.035h-2.4zm-9.51 2.37h1.05q1.395 0 2.445-.03t1.935-.135 1.785-.285l.15 1.02a25.5 25.5 0 0 1-3.825.435q-1.065.03-2.49.03h-1.05zm0-5.22h5.985v1.02h-4.755v4.755h-1.23zm1.455 11.085h9.045v1.02h-9.045zm0-3.42h1.23v3.885h-1.23zm17.613-3.795h9.06v1.02h-9.06zm-1.695 2.79h12.3v1.02h-12.3zm5.505.57h1.23v5.13h-1.23zm-3.81-7.605h8.88v1.02h-7.62v3.72h-1.26zm14.384.84h1.065q0 1.08-.105 2.22-.09 1.125-.345 2.25-.24 1.11-.705 2.19-.45 1.08-1.185 2.07l-.975-.57q.705-.9 1.14-1.875.45-.975.69-1.995.24-1.035.33-2.085.09-1.065.09-2.115zm-1.965 0h2.58v1.02h-2.58zm4.95 0h1.065q0 1.065-.075 2.28-.06 1.215-.285 2.49a13 13 0 0 1-.675 2.505 9.6 9.6 0 0 1-1.275 2.325l-.975-.57q.615-.81 1.02-1.695.42-.9.66-1.83.24-.945.36-1.86.12-.93.15-1.83t.03-1.725zm-1.485 0h2.145v1.02h-2.145zm6.615-1.635h1.2V78.17h-1.2zm-4.695 5.325h2.445v1.035h-2.445zm2.19-4.965h1.17V77.48h-1.17zm7.24 10.65a.92.92 0 0 1-.676-.283.92.92 0 0 1-.283-.676q0-.395.283-.677a.92.92 0 0 1 .676-.282q.395 0 .677.282a.92.92 0 0 1 .282.677.997.997 0 0 1-.479.831.9.9 0 0 1-.48.127m0-5.52a.92.92 0 0 1-.676-.281.92.92 0 0 1-.283-.677q0-.394.283-.676a.92.92 0 0 1 .676-.283q.395 0 .677.283a.92.92 0 0 1 .282.676.997.997 0 0 1-.479.831.9.9 0 0 1-.48.128m11.098 7.064q-1.054 0-1.88-.362-.82-.362-1.305-1.007a2.7 2.7 0 0 1-.522-1.507h1.342q.043.527.363.91.319.38.836.586.516.208 1.145.208.703 0 1.247-.245.543-.244.852-.682.309-.436.309-1.012 0-.6-.298-1.06-.299-.463-.874-.724t-1.406-.261h-.874V70.82h.874q.65 0 1.14-.234.495-.236.772-.66.282-.427.282-1.002 0-.555-.245-.964a1.67 1.67 0 0 0-.692-.64q-.442-.228-1.044-.229-.565 0-1.066.208-.495.203-.809.591-.315.384-.341.927h-1.279a2.6 2.6 0 0 1 .517-1.502q.485-.65 1.268-1.012a4.1 4.1 0 0 1 1.731-.362q1.012 0 1.737.41.725.405 1.113 1.07.389.667.389 1.439 0 .921-.485 1.571a2.46 2.46 0 0 1-1.305.9v.086q1.034.17 1.614.878.58.704.581 1.742 0 .89-.485 1.598-.48.704-1.311 1.108-.83.405-1.891.405m5.609-2.386v-1.087l4.795-7.585h.788v1.683h-.533l-3.622 5.732v.085h6.456v1.172zM543.408 77V66.091h1.258V77zm5.17.085a.92.92 0 0 1-.676-.282.92.92 0 0 1-.283-.677.92.92 0 0 1 .283-.676.92.92 0 0 1 .676-.282q.394 0 .676.282a.92.92 0 0 1 .283.676.9.9 0 0 1-.133.48 1 1 0 0 1-.347.351.9.9 0 0 1-.479.128m6.435.064a4.1 4.1 0 0 1-1.343-.255 3.2 3.2 0 0 1-1.225-.826q-.554-.585-.889-1.582-.336-1.002-.336-2.514 0-1.449.272-2.568.272-1.125.788-1.89.517-.773 1.247-1.173a3.4 3.4 0 0 1 1.656-.4q.916 0 1.63.368.719.364 1.172 1.012.453.651.586 1.497h-1.3a2.4 2.4 0 0 0-.703-1.22q-.522-.484-1.385-.484-1.268 0-1.997 1.102-.725 1.103-.73 3.095h.085a3.2 3.2 0 0 1 2.685-1.449 3.26 3.26 0 0 1 1.715.469 3.46 3.46 0 0 1 1.246 1.284q.47.814.469 1.87 0 1.011-.453 1.853a3.44 3.44 0 0 1-1.273 1.332q-.815.489-1.917.48m0-1.172a2.2 2.2 0 0 0 1.203-.335q.538-.336.847-.9.315-.565.315-1.258 0-.675-.304-1.23a2.3 2.3 0 0 0-.826-.89 2.2 2.2 0 0 0-1.193-.33 2.2 2.2 0 0 0-.943.203 2.4 2.4 0 0 0-.767.543 2.6 2.6 0 0 0-.511.793 2.53 2.53 0 0 0 .117 2.147q.31.565.842.911.538.346 1.22.346M564.991 77v-8.182h1.214v1.279h.107q.255-.655.826-1.018.57-.367 1.369-.367.81 0 1.347.367.543.362.847 1.018h.085q.315-.635.943-1.007.629-.378 1.508-.378 1.097 0 1.795.687.698.681.698 2.125V77h-1.258v-5.476q0-.905-.495-1.294a1.83 1.83 0 0 0-1.166-.39q-.864 0-1.337.523-.475.516-.475 1.31V77h-1.278v-5.604q0-.698-.453-1.124-.452-.43-1.166-.431-.49 0-.916.26a1.97 1.97 0 0 0-.682.725 2.13 2.13 0 0 0-.256 1.06V77zm13.037 0v-8.182h1.214v1.279h.107q.255-.655.826-1.018.57-.367 1.369-.367.81 0 1.347.367.544.362.847 1.018h.085q.315-.635.943-1.007.629-.378 1.508-.378 1.097 0 1.795.687.698.681.698 2.125V77h-1.257v-5.476q0-.905-.496-1.294a1.83 1.83 0 0 0-1.166-.39q-.863 0-1.337.523-.474.516-.474 1.31V77h-1.279v-5.604q0-.698-.453-1.124-.452-.43-1.166-.431-.49 0-.916.26a1.97 1.97 0 0 0-.682.725 2.13 2.13 0 0 0-.256 1.06V77zM466.293 584.595h1.23v13.575h-1.23zm.945 5.58h2.505v1.05h-2.505zm-10.215-3.405h7.995v1.02h-7.995zm4.065 2.13q.96 0 1.695.405.75.405 1.17 1.11.435.69.435 1.605t-.435 1.62q-.42.705-1.17 1.11-.735.39-1.695.39t-1.71-.39a3.1 3.1 0 0 1-1.17-1.11q-.435-.705-.435-1.62t.435-1.605q.435-.705 1.17-1.11.75-.405 1.71-.405m0 1.035q-.615 0-1.095.27t-.765.735q-.27.465-.27 1.08t.27 1.095q.285.465.765.735.48.255 1.095.255.6 0 1.08-.255.48-.27.75-.735.285-.48.285-1.095t-.285-1.08q-.27-.465-.75-.735t-1.08-.27m-.645-5.175h1.245v2.46h-1.245zm19.738-.165h1.245v9.825h-1.245zm.855 4.02h2.4v1.035h-2.4zm-9.51 2.37h1.05q1.395 0 2.445-.03t1.935-.135 1.785-.285l.15 1.02a25.5 25.5 0 0 1-3.825.435q-1.065.03-2.49.03h-1.05zm0-5.22h5.985v1.02h-4.755v4.755h-1.23zm1.455 11.085h9.045v1.02h-9.045zm0-3.42h1.23v3.885h-1.23zm17.613-3.795h9.06v1.02h-9.06zm-1.695 2.79h12.3v1.02h-12.3zm5.505.57h1.23v5.13h-1.23zm-3.81-7.605h8.88v1.02h-7.62v3.72h-1.26zm14.384.84h1.065q0 1.08-.105 2.22-.09 1.125-.345 2.25-.24 1.11-.705 2.19-.45 1.08-1.185 2.07l-.975-.57q.705-.9 1.14-1.875.45-.975.69-1.995.24-1.035.33-2.085.09-1.065.09-2.115zm-1.965 0h2.58v1.02h-2.58zm4.95 0h1.065q0 1.065-.075 2.28-.06 1.215-.285 2.49a13 13 0 0 1-.675 2.505 9.6 9.6 0 0 1-1.275 2.325l-.975-.57q.615-.81 1.02-1.695.42-.9.66-1.83.24-.945.36-1.86.12-.93.15-1.83t.03-1.725zm-1.485 0h2.145v1.02h-2.145zm6.615-1.635h1.2v13.575h-1.2zm-4.695 5.325h2.445v1.035h-2.445zm2.19-4.965h1.17v12.525h-1.17zm7.24 10.649a.92.92 0 0 1-.676-.282.92.92 0 0 1-.282-.676q0-.395.282-.677a.92.92 0 0 1 .676-.282q.395 0 .677.282a.92.92 0 0 1 .282.677.9.9 0 0 1-.133.479 1 1 0 0 1-.346.352.9.9 0 0 1-.48.127m0-5.518a.92.92 0 0 1-.676-.282.93.93 0 0 1-.282-.677q0-.394.282-.676a.92.92 0 0 1 .676-.283.92.92 0 0 1 .677.283.92.92 0 0 1 .282.676.9.9 0 0 1-.133.48 1 1 0 0 1-.346.351.9.9 0 0 1-.48.128m7.157 4.677v-1.087l4.794-7.585h.788v1.683h-.532l-3.623 5.732v.085h6.456v1.172zM530.12 597v-10.909h1.257V597zm4.489-2.237v-1.087l4.794-7.585h.788v1.683h-.532l-3.623 5.732v.085h6.456v1.172zm5.135 2.237v-10.909h1.257V597zm8.985 0v-8.182h1.214v1.279h.107q.255-.655.825-1.018.57-.367 1.369-.367.81 0 1.348.367.543.363.847 1.018h.085q.315-.635.943-1.007.628-.378 1.507-.378 1.097 0 1.796.687.697.682.697 2.125V597h-1.257v-5.476q0-.906-.495-1.294a1.84 1.84 0 0 0-1.167-.389q-.863 0-1.337.522-.474.516-.474 1.31V597h-1.278v-5.604q0-.698-.453-1.124-.453-.43-1.167-.431-.49 0-.916.261-.42.26-.682.724-.255.459-.255 1.06V597zm13.037 0v-8.182h1.214v1.279h.107q.255-.655.825-1.018.57-.367 1.369-.367.81 0 1.348.367.543.363.847 1.018h.085q.315-.635.943-1.007.629-.378 1.508-.378 1.096 0 1.795.687.697.682.697 2.125V597h-1.257v-5.476q0-.906-.495-1.294a1.84 1.84 0 0 0-1.167-.389q-.863 0-1.337.522-.474.516-.474 1.31V597h-1.278v-5.604q0-.698-.453-1.124-.453-.43-1.166-.431-.49 0-.917.261-.42.26-.681.724a2.13 2.13 0 0 0-.256 1.06V597z"/><g clip-path="url(#e)"><path stroke="#221714" stroke-linecap="round" stroke-linejoin="round" d="m560.678 520.09 1.112-378.235"/><path stroke="#221714" stroke-linecap="round" stroke-linejoin="round" stroke-width=".5" d="M519.454 128.43a.21.21 0 0 0-.245.163v.029"/><path stroke="#221714" stroke-linecap="round" stroke-linejoin="round" d="m497.333 527.629 15.775-.059 16.035-1.275 13.091-1.964"/><path stroke="#9e9e9f" stroke-linecap="round" stroke-linejoin="round" stroke-width=".25" d="m497.267 524.998-.208-.015"/><path stroke="#221714" stroke-linecap="round" stroke-linejoin="round" stroke-width=".5" d="m560.685 520.09-5.189 1.342M555.496 521.432l.934-.23 4.255-1.112M550.893 522.551l-.252.052M550.707 522.588l-.066.015M469.023 515.895l.007-.008"/><circle cx="496.659" cy="527.533" r=".185" fill="#221714"/><circle cx="518.757" cy="128.371" r=".185" fill="#221714"/><path stroke="#221714" stroke-linecap="round" stroke-linejoin="round" stroke-width=".5" d="m472.789 431.119 4.27-77.147"/><circle cx="468.371" cy="514.716" r=".185" fill="#221714"/><path stroke="#221714" stroke-linecap="round" stroke-linejoin="round" d="m489.335 135.969-20.964 378.747M480.113 263.421l2.342-11.868M479.149 280.835l2.343-11.869M478.186 298.248l2.342-11.861M477.222 315.661l2.342-11.861M476.258 333.082l2.343-11.869"/><path stroke="#888" stroke-linecap="round" stroke-linejoin="round" stroke-width=".5" d="m496.926 527.348 22.068-398.755M497.133 527.407l22.069-398.784"/><path stroke="#221714" stroke-linecap="round" stroke-linejoin="round" d="m478.378 333.912-1.534-.081M479.342 316.499l-1.535-.082"/><path stroke="#221714" stroke-linecap="round" stroke-linejoin="round" stroke-width=".5" d="M557.29 520.995v.007M550.648 522.603v-.022"/><path stroke="#221714" stroke-linecap="round" stroke-linejoin="round" d="m480.306 299.085-1.535-.081M481.269 281.672l-1.534-.089M482.233 264.259l-1.535-.089"/><path stroke="#221714" stroke-linecap="round" stroke-linejoin="round" stroke-width=".5" d="m550.641 522.603.007-.022"/><circle cx="519.454" cy="128.43" r=".185" fill="#221714"/><path stroke="#221714" stroke-linecap="round" stroke-linejoin="round" stroke-width=".5" d="m497.333 527.629.008-.007"/><path stroke="#221714" stroke-linecap="round" stroke-linejoin="round" d="M490.195 134.842h-.008"/><path stroke="#888" stroke-linecap="round" stroke-linejoin="round" stroke-width=".25" d="m519.068 130.973-.207-.008"/><path stroke="#221714" stroke-linecap="round" stroke-linejoin="round" stroke-width=".5" d="M472.789 431.119c-.015.26.037.512.156.741M468.371 514.716c-.03.489.23.941.659 1.179"/><path stroke="#221714" stroke-linecap="round" stroke-linejoin="round" d="M468.371 514.716c-.03.482.23.941.652 1.179M561.79 141.855a210 210 0 0 0-42.336-13.425"/><path stroke="#221714" stroke-linecap="round" stroke-linejoin="round" stroke-width=".5" d="M477.296 353.252a1.5 1.5 0 0 0-.237.72"/><path stroke="#221714" stroke-linecap="round" stroke-linejoin="round" d="M476.258 333.082a.63.63 0 0 0 .497.741c.029 0 .059.007.089.007"/><path stroke="#221714" stroke-linecap="round" stroke-linejoin="round" stroke-width=".5" d="M497.133 527.422c0 .111.089.2.2.207"/><path stroke="#221714" stroke-linecap="round" stroke-linejoin="round" stroke-width=".5" d="M497.133 527.399c0 .119.082.215.2.223M496.659 527.533c.111.037.23-.03.259-.141 0-.015.008-.029.008-.052"/><path stroke="#221714" stroke-linecap="round" stroke-linejoin="round" stroke-width=".5" d="M496.659 527.533c.111.037.23-.03.259-.141 0-.015.008-.029.008-.052M550.893 522.551q1.156-.255 2.312-.533"/><path stroke="#221714" stroke-linecap="round" stroke-linejoin="round" d="M477.222 315.661a.63.63 0 0 0 .496.741c.03 0 .06.008.089.008M478.186 298.248a.63.63 0 0 0 .496.741c.03 0 .06.007.089.007M479.105 320.717a.63.63 0 0 0-.504.496M480.068 303.304a.63.63 0 0 0-.504.496M479.149 280.834a.633.633 0 0 0 .497.742c.029 0 .059.007.089.007M481.032 285.883a.63.63 0 0 0-.504.496M480.113 263.421a.633.633 0 0 0 .497.742c.029 0 .059.007.089.007M482.96 251.056a.63.63 0 0 0-.505.497M481.996 268.47a.63.63 0 0 0-.504.496M490.187 134.842c-.489.163-.83.608-.86 1.127"/><path stroke="#221714" stroke-linecap="round" stroke-linejoin="round" d="M490.195 134.842a1.25 1.25 0 0 0-.86 1.127M554.799 521.61l.556-.133M555.355 521.477l.534-.134M544.102 523.975c.793-.156 1.594-.311 2.387-.475"/><path stroke="#221714" stroke-linecap="round" stroke-linejoin="round" stroke-width=".5" d="M553.205 521.995q.803-.187 1.594-.385"/><path stroke="#221714" stroke-linecap="round" stroke-linejoin="round" d="M553.198 522.018c.534-.126 1.067-.26 1.601-.386M546.482 523.5c1.386-.281 2.78-.578 4.159-.889M557.29 521.002c1.134-.296 2.261-.6 3.395-.912"/><path stroke="#221714" stroke-linecap="round" stroke-linejoin="round" stroke-width=".5" d="M469.03 515.887a151.7 151.7 0 0 0 27.629 11.639"/><path stroke="#221714" stroke-linecap="round" stroke-linejoin="round" d="M469.023 515.895a147.7 147.7 0 0 0 27.628 11.645M518.757 128.371a152.6 152.6 0 0 0-28.562 6.471"/><path stroke="#221714" stroke-linecap="round" stroke-linejoin="round" stroke-width=".5" d="M518.994 128.593c0-.119-.081-.215-.2-.222h-.037"/><path stroke="#221714" stroke-linecap="round" stroke-linejoin="round" d="M555.889 521.343c.096-.022.2-.052.296-.074l.275-.067c.081-.022.163-.037.244-.059.067-.015.134-.037.208-.052l.163-.045q.033-.002.067-.014a.2.2 0 0 0 .052-.015c.014 0 .029 0 .044-.008.008 0 .022 0 .03-.007h.015M550.648 522.581h.052a.2.2 0 0 0 .067-.015c.029 0 .059-.015.089-.022l.111-.022c.044-.008.089-.022.133-.03.052-.015.104-.022.156-.037.059-.015.111-.03.17-.037l.393-.089c.148-.037.289-.067.438-.104q.231-.056.474-.111l.489-.111M542.234 524.323h.03q.024.002.037-.007c.022 0 .037 0 .052-.008.022 0 .044-.007.074-.015q.044-.001.089-.015c.037 0 .067-.014.104-.022.037 0 .074-.015.118-.022.089-.015.178-.037.275-.052.103-.022.214-.037.318-.059l.363-.067c.134-.022.275-.052.408-.074"/></g><path fill="#000" d="M490.146 97.647a.5.5 0 0 0 0 .707l3.182 3.182a.502.502 0 0 0 .708-.708L491.207 98l2.829-2.828a.5.5 0 0 0-.708-.707zm71.708.707a.5.5 0 0 0 0-.707l-3.182-3.183a.501.501 0 0 0-.708.708L560.793 98l-2.829 2.828a.502.502 0 0 0 .708.708zM490.5 98v.5h71v-1h-71z"/><path stroke="#000" d="M562.5 94v8M489.5 94v8"/><path fill="#000" d="M469.146 557.646a.5.5 0 0 0 0 .708l3.182 3.182a.502.502 0 0 0 .708-.708L470.207 558l2.829-2.828a.502.502 0 0 0-.708-.708zm92.708.708a.5.5 0 0 0 0-.708l-3.182-3.182a.502.502 0 0 0-.708.708l2.829 2.828-2.829 2.828a.502.502 0 0 0 .708.708zM469.5 558v.5h92v-1h-92z"/><path stroke="#000" d="M562.5 554v8M468.5 554v8"/><path fill="#000" d="M809.734 566.47h12.3v1.02h-12.3zm5.505.63h1.23v5.055h-1.23zm-3.93-7.755h9.15v5.295h-9.15zm7.92 1.005h-6.705v3.3h6.705zm14.654-1.755h1.2v13.575h-1.2zm-5.895 5.55h3.42v1.005h-3.42zm3.075-5.19h1.17v12.525h-1.17zm-2.91 1.365h1.2q0 1.77-.51 3.405a9.1 9.1 0 0 1-1.62 3.03q-1.125 1.395-2.955 2.49l-.72-.9q1.59-.96 2.61-2.16a8.2 8.2 0 0 0 1.5-2.625q.495-1.425.495-3.015zm-4.02 0h4.485v1.02h-4.485zm14.53 9.284a.92.92 0 0 1-.676-.282.92.92 0 0 1-.282-.676q0-.395.282-.677a.92.92 0 0 1 .676-.282q.395 0 .677.282a.92.92 0 0 1 .282.677.9.9 0 0 1-.133.479 1 1 0 0 1-.346.352.9.9 0 0 1-.48.127m0-5.518a.92.92 0 0 1-.676-.282.93.93 0 0 1-.282-.677q0-.394.282-.676a.92.92 0 0 1 .676-.283.92.92 0 0 1 .677.283.92.92 0 0 1 .282.676.9.9 0 0 1-.133.48 1 1 0 0 1-.346.351.9.9 0 0 1-.48.128m10.822 7.063q-.938 0-1.689-.373a3.13 3.13 0 0 1-1.204-1.022 2.8 2.8 0 0 1-.495-1.481h1.278q.075.74.671 1.225.602.479 1.439.479.67 0 1.193-.314.527-.314.825-.863.304-.554.304-1.252 0-.714-.314-1.273a2.3 2.3 0 0 0-.852-.889 2.4 2.4 0 0 0-1.242-.331 3.4 3.4 0 0 0-1.028.155 2.9 2.9 0 0 0-.868.399l-1.236-.149.661-5.369h5.667v1.172h-4.559l-.384 3.217h.064q.336-.266.842-.442a3.2 3.2 0 0 1 1.054-.176q1.002 0 1.785.48.788.474 1.236 1.299.453.826.452 1.886 0 1.044-.468 1.864a3.4 3.4 0 0 1-1.279 1.289q-.815.47-1.853.469m6.057-.149 4.88-9.652v-.085h-5.625v-1.172h6.988v1.236L856.927 571zm15.771 3.239q-.91 0-1.566-.235a3.3 3.3 0 0 1-1.092-.607 3.4 3.4 0 0 1-.687-.799l1.002-.703q.17.223.431.511.261.294.714.506.458.219 1.198.219.991 0 1.636-.48.644-.479.644-1.502v-1.662h-.106a7 7 0 0 1-.394.554q-.25.325-.725.581-.468.25-1.268.25-.99 0-1.779-.469-.782-.468-1.241-1.363-.453-.895-.453-2.174 0-1.256.443-2.189.441-.937 1.23-1.449.789-.516 1.822-.516.798 0 1.267.266.475.261.725.597.255.33.394.543h.128v-1.3h1.214v8.416q0 1.055-.479 1.716a2.73 2.73 0 0 1-1.278.974 4.8 4.8 0 0 1-1.78.315m-.042-4.496q.756 0 1.278-.346t.794-.996.272-1.556q0-.884-.267-1.561a2.34 2.34 0 0 0-.788-1.06q-.522-.383-1.289-.383-.8 0-1.332.405-.527.405-.793 1.086a4.2 4.2 0 0 0-.262 1.513q0 .852.267 1.508.271.65.799 1.022.532.368 1.321.368m-87.232 14.655q0-2.014.522-3.702.528-1.695 1.503-3.116h1.108a7 7 0 0 0-.72 1.299 13 13 0 0 0-.58 1.689 16 16 0 0 0-.394 1.896 14 14 0 0 0-.139 1.934q0 1.267.245 2.573.246 1.304.661 2.423t.927 1.822h-1.108a11.6 11.6 0 0 1-1.503-3.111q-.522-1.694-.522-3.707m8.022-.948h1.245v3.225h-1.245zm.615-5.97q1.035 0 1.845.405.81.39 1.275 1.11t.465 1.68q0 .93-.465 1.665a3.17 3.17 0 0 1-1.275 1.125q-.81.39-1.845.39-1.05 0-1.86-.39a3.17 3.17 0 0 1-1.275-1.125 3.05 3.05 0 0 1-.465-1.665q0-.96.465-1.68t1.275-1.11q.81-.405 1.86-.405m0 1.065q-.69 0-1.23.27-.54.255-.855.735-.3.48-.3 1.125 0 .63.3 1.11.315.48.855.75t1.23.27 1.215-.27q.54-.27.84-.75.315-.48.315-1.11a2 2 0 0 0-1.155-1.86q-.525-.27-1.215-.27m5.13-1.95h1.23v13.575h-1.23zm.885 5.595h2.505v1.05h-2.505zm-10.035 5.04-.195-1.035 2.67-.03q1.455-.015 2.94-.105 1.5-.09 2.88-.27l.09.93q-1.425.24-2.91.36-1.485.105-2.895.135-1.395.015-2.58.015m23.684-10.635h1.245v13.59h-1.245zm-2.94 2.955h3.6v1.035h-3.6zm0 3.36h3.6v1.05h-3.6zm-3.48-5.145h1.02v2.43q0 1.125-.285 2.22a9.2 9.2 0 0 1-.795 2.025 7.6 7.6 0 0 1-1.185 1.68q-.675.735-1.485 1.17l-.78-.99q.75-.36 1.38-1.005.645-.645 1.125-1.47.48-.84.735-1.755.27-.93.27-1.875zm.255 0h1.005v2.43q0 .915.255 1.83.27.9.75 1.695t1.11 1.41q.645.615 1.38.975l-.75 1.005a5.8 5.8 0 0 1-1.515-1.125 8.3 8.3 0 0 1-1.185-1.635q-.495-.915-.78-1.98a8.8 8.8 0 0 1-.27-2.175zm14.972-.285h6.33v5.535h-6.33zm5.115.99h-3.9v3.555h3.9zm4.05-1.875h1.245v7.785h-1.245zm-3.69 9.405h1.065v.255q0 .735-.42 1.38-.405.63-1.125 1.155-.72.51-1.65.84a9.6 9.6 0 0 1-1.95.495l-.435-.96a8.7 8.7 0 0 0 2.61-.75q.57-.285.99-.63.435-.345.675-.735a1.5 1.5 0 0 0 .24-.795zm.195 0h1.08v.255q0 .48.36.96t.975.885q.63.39 1.425.675.81.285 1.695.39l-.435.96q-1.035-.15-1.95-.495a6.9 6.9 0 0 1-1.635-.87q-.705-.525-1.11-1.155-.405-.645-.405-1.35zm-4.17-.69h9.225v.96h-9.225zm3.99-1.32h1.26v1.755h-1.26zm13.443-7.185h1.23v1.275h6.57v-1.275h1.23v4.485h-9.03zm1.23 2.22v1.29h6.57v-1.29zm-2.85 3.57h12.255v1.005H838.46zm5.49-1.77h1.23v2.085h-1.23zm-4.005 3.885h9.195v3.03h-7.95v1.665h-1.215v-2.565h7.95v-1.185h-7.98zm.03 4.335h9.57v.975h-9.57zm13.859-5.13h9.315v1.005h-9.315zm-1.575 3.465h12.3v1.035h-12.3zm1.575-9.615h9.18v1.02h-7.92v5.43h-1.26zm.87 3.015h8.01v1.005h-8.01zm15.572 6.66h12.3v1.05h-12.3zm5.49-3.51h1.23v3.975h-1.23zm-4.41-6.03h10.065v1.02h-10.065zm.03 5.46h10.005v.99h-10.005zm2.07-4.65h1.245v4.815h-1.245zm4.62 0h1.23v4.815h-1.23zm15.284-2.115h1.245v8.175h-1.245zm.9 3.6h2.34v1.05h-2.34zm-8.175 5.34h8.52v4.455h-8.52zm7.29 1.005H887.3v2.43h6.075zm-9.27-8.505h8.01v1.005h-8.01zm4.005 1.68q.975 0 1.695.3.735.3 1.14.855.405.54.405 1.26 0 .735-.405 1.275t-1.14.84q-.72.3-1.695.3t-1.71-.3q-.72-.3-1.14-.84a2.07 2.07 0 0 1-.405-1.275q0-.72.405-1.26.42-.555 1.14-.855.735-.3 1.71-.3m0 .96q-.93 0-1.5.39-.555.39-.555 1.065t.555 1.08q.57.39 1.5.39.915 0 1.485-.39.57-.405.57-1.08t-.57-1.065q-.555-.39-1.485-.39m-.615-4.185h1.245v2.055h-1.245zm13.464 7.908q0 2.013-.527 3.707a11.4 11.4 0 0 1-1.497 3.111h-1.108q.384-.528.714-1.3.336-.767.586-1.683.25-.921.389-1.902a13.4 13.4 0 0 0-.101-4.506 15 15 0 0 0-.661-2.424q-.415-1.118-.927-1.821h1.108q.975 1.421 1.497 3.116.527 1.688.527 3.702M804.015 64.595h1.245v13.56h-1.245zm.915 5.505h2.49v1.035h-2.49zm-4.38-4.05h1.215q0 1.935-.63 3.705-.63 1.755-1.98 3.255-1.35 1.485-3.555 2.58l-.69-.96q1.89-.945 3.135-2.205 1.26-1.275 1.875-2.82.63-1.56.63-3.36zm-5.01 0h5.64v1.035h-5.64zm13.094 9.405h12.3v1.035h-12.3zm5.505-2.895h1.23v3.33h-1.23zm-4.005-6.96h9.27v4.11h-8.01v2.715h-1.23V68.72h8.01v-2.1h-8.04zm.03 6.3h9.555v1.02h-9.555zm13.585 3.704a.92.92 0 0 1-.676-.282.92.92 0 0 1-.282-.676q0-.395.282-.677a.92.92 0 0 1 .676-.282q.395 0 .677.282a.92.92 0 0 1 .282.677.997.997 0 0 1-.479.831.9.9 0 0 1-.48.127m0-5.518a.92.92 0 0 1-.676-.282.92.92 0 0 1-.282-.677q0-.394.282-.676a.92.92 0 0 1 .676-.283q.395 0 .677.283a.92.92 0 0 1 .282.676.997.997 0 0 1-.479.831.9.9 0 0 1-.48.128m7.157 4.677v-1.087l4.794-7.585h.788v1.683h-.532l-3.623 5.732v.085h6.456v1.172zM836.041 77V66.091h1.257V77zm5.085 0 4.88-9.652v-.085h-5.625V66.09h6.988v1.236L842.511 77zm7.291.085a.92.92 0 0 1-.676-.282.92.92 0 0 1-.282-.677q0-.393.282-.676a.92.92 0 0 1 .676-.282q.395 0 .677.282a.92.92 0 0 1 .282.676.997.997 0 0 1-.479.831.9.9 0 0 1-.48.128m6.47.064q-1.054 0-1.881-.362-.82-.362-1.305-1.007a2.7 2.7 0 0 1-.522-1.507h1.343q.042.527.362.91.32.38.836.586.517.208 1.145.208.704 0 1.247-.245.543-.244.852-.682.309-.436.309-1.012 0-.6-.298-1.06-.298-.463-.874-.724-.575-.261-1.406-.261h-.874V70.82h.874q.65 0 1.14-.234.495-.236.772-.66.282-.427.282-1.002 0-.555-.245-.964a1.67 1.67 0 0 0-.692-.64q-.443-.228-1.044-.229-.565 0-1.065.208a2 2 0 0 0-.81.591q-.314.384-.341.927h-1.278a2.6 2.6 0 0 1 .516-1.502q.485-.65 1.268-1.012a4.1 4.1 0 0 1 1.731-.362q1.012 0 1.737.41.725.405 1.113 1.07.389.667.389 1.439 0 .921-.485 1.571a2.45 2.45 0 0 1-1.305.9v.086q1.033.17 1.614.878.58.704.581 1.742 0 .89-.485 1.598-.48.704-1.31 1.108-.832.405-1.891.405M864.991 77v-8.182h1.215v1.279h.106a2.06 2.06 0 0 1 .826-1.018q.57-.367 1.369-.367.81 0 1.348.367.543.362.847 1.018h.085q.314-.635.943-1.007.628-.378 1.507-.378 1.098 0 1.795.687.698.681.698 2.125V77h-1.257v-5.476q0-.905-.495-1.294a1.84 1.84 0 0 0-1.167-.39q-.863 0-1.337.523-.474.516-.474 1.31V77h-1.278v-5.604q0-.698-.453-1.124-.453-.43-1.167-.431-.49 0-.916.26a1.97 1.97 0 0 0-.682.725q-.255.46-.256 1.06V77zm13.037 0v-8.182h1.215v1.279h.107q.255-.655.825-1.018.57-.367 1.369-.367.81 0 1.348.367.543.362.847 1.018h.085q.314-.635.943-1.007.628-.378 1.507-.378 1.098 0 1.795.687.699.681.698 2.125V77h-1.257v-5.476q0-.905-.495-1.294a1.84 1.84 0 0 0-1.167-.39q-.863 0-1.337.523-.474.516-.474 1.31V77h-1.278v-5.604q0-.698-.453-1.124-.453-.43-1.167-.431-.49 0-.916.26-.42.262-.682.725-.255.46-.255 1.06V77zM950.229 324.455h2.61v1.035h-2.61zm-2.52-3.585h.975v2.595q0 1.05-.225 2.07-.21 1.02-.63 1.92-.405.9-.99 1.62t-1.32 1.17l-.78-.93q.69-.42 1.245-1.05t.93-1.41q.39-.795.585-1.65.21-.87.21-1.74zm.24 0h.96v2.55q0 .81.18 1.635.195.81.54 1.56.36.735.885 1.35t1.185 1.02l-.705.96q-.735-.45-1.305-1.14a7.1 7.1 0 0 1-.96-1.575 9 9 0 0 1-.585-1.86 10 10 0 0 1-.195-1.95zm7.275-1.275h1.2v13.575h-1.2zm-2.76.285h1.17v12.6h-1.17zm6.224 10.575h12.3v1.035h-12.3zm5.505-2.895h1.23v3.33h-1.23zm-4.005-6.96h9.27v4.11h-8.01v2.715h-1.23v-3.705h8.01v-2.1h-8.04zm.03 6.3h9.555v1.02h-9.555zm13.586 3.704a.92.92 0 0 1-.677-.282.92.92 0 0 1-.282-.676q0-.395.282-.677a.92.92 0 0 1 .677-.282q.394 0 .676.282a.92.92 0 0 1 .282.677.9.9 0 0 1-.133.479 1 1 0 0 1-.346.352.9.9 0 0 1-.479.127m0-5.518a.92.92 0 0 1-.677-.282.93.93 0 0 1-.282-.677q0-.394.282-.676a.92.92 0 0 1 .677-.283.92.92 0 0 1 .676.283.92.92 0 0 1 .282.676.994.994 0 0 1-.479.831.9.9 0 0 1-.479.128m11.247-3.995V332h-1.321v-9.524h-.064l-2.663 1.768v-1.342l2.727-1.811zm6.632 11.058q-1.098 0-1.939-.389-.837-.394-1.305-1.081a2.7 2.7 0 0 1-.464-1.577 2.9 2.9 0 0 1 1.028-2.264 2.3 2.3 0 0 1 1.082-.506v-.064a2.1 2.1 0 0 1-1.247-.878 2.67 2.67 0 0 1-.458-1.551 2.64 2.64 0 0 1 .421-1.486 2.97 2.97 0 0 1 1.172-1.033q.75-.378 1.71-.378.947 0 1.694.378.745.378 1.171 1.033.432.656.437 1.486a2.7 2.7 0 0 1-.474 1.551 2.1 2.1 0 0 1-1.23.878v.064q.591.107 1.065.506.474.395.756.986.283.586.288 1.278a2.76 2.76 0 0 1-.479 1.577q-.47.688-1.305 1.081-.831.39-1.923.389m0-1.172q.74 0 1.278-.239.539-.24.831-.677a1.8 1.8 0 0 0 .298-1.023 1.96 1.96 0 0 0-.319-1.092 2.2 2.2 0 0 0-.858-.745 2.7 2.7 0 0 0-1.23-.272q-.699 0-1.247.272a2.16 2.16 0 0 0-.857.745 1.9 1.9 0 0 0-.304 1.092q-.005.587.282 1.023.293.437.837.677.543.239 1.289.239m0-5.177q.586 0 1.038-.235.458-.234.719-.655.261-.42.267-.985a1.8 1.8 0 0 0-.261-.964 1.7 1.7 0 0 0-.709-.64 2.3 2.3 0 0 0-1.054-.229q-.613 0-1.071.229-.458.225-.708.64a1.77 1.77 0 0 0-.245.964q-.006.565.25.985.261.421.719.655t1.055.235m9.307 6.349q-1.202 0-2.051-.655-.847-.66-1.294-1.912-.448-1.257-.448-3.037 0-1.768.448-3.02.452-1.257 1.299-1.917c.568-.444 1.246-.666 2.046-.666q1.2 0 2.04.666c.57.44 1 1.079 1.3 1.917q.45 1.252.45 3.02 0 1.78-.45 3.037-.435 1.251-1.29 1.912c-.56.437-1.25.655-2.05.655m0-1.172c.8 0 1.41-.383 1.85-1.15q.66-1.15.66-3.282 0-1.416-.3-2.413c-.2-.664-.49-1.17-.86-1.518a1.92 1.92 0 0 0-1.35-.522q-1.184 0-1.849 1.167-.666 1.162-.665 3.286 0 1.418.298 2.408.299.991.857 1.508c.379.344.829.516 1.359.516m6.37 1.108a.9.9 0 0 1-.67-.282.92.92 0 0 1-.29-.677c0-.262.1-.488.29-.676a.9.9 0 0 1 .67-.282c.27 0 .49.094.68.282s.28.414.28.676c0 .174-.04.334-.13.48s-.2.263-.35.351a.9.9 0 0 1-.48.128m6.47.064c-.7 0-1.33-.121-1.88-.362-.54-.242-.98-.577-1.3-1.007a2.64 2.64 0 0 1-.52-1.507h1.34q.045.527.36.911.315.378.84.586.51.207 1.14.207c.47 0 .89-.081 1.25-.245s.64-.39.85-.682c.21-.291.31-.628.31-1.012q0-.601-.3-1.06a2 2 0 0 0-.87-.724q-.585-.261-1.41-.261h-.87v-1.172h.87q.645 0 1.14-.234a1.8 1.8 0 0 0 1.06-1.662c0-.37-.09-.691-.25-.964a1.64 1.64 0 0 0-.69-.64c-.3-.152-.64-.229-1.05-.229-.37 0-.73.07-1.06.208q-.495.202-.81.591c-.21.256-.32.565-.34.927h-1.28c.02-.572.19-1.072.52-1.502q.48-.65 1.26-1.012a4.1 4.1 0 0 1 1.74-.362c.67 0 1.25.136 1.73.41.48.27.86.627 1.11 1.071q.39.665.39 1.438 0 .921-.48 1.571c-.32.433-.76.733-1.31.9v.086q1.035.17 1.62.879c.38.468.58 1.049.58 1.741 0 .593-.16 1.126-.49 1.598-.32.469-.75.838-1.31 1.108q-.825.405-1.89.405m10.11-.149v-8.182h1.21v1.279h.11c.17-.437.44-.776.82-1.018.38-.245.84-.367 1.37-.367q.81 0 1.35.367c.36.242.65.581.85 1.018h.08c.21-.423.53-.759.95-1.007.41-.252.92-.378 1.5-.378q1.095 0 1.8.687c.46.454.7 1.163.7 2.125V332h-1.26v-5.476c0-.604-.17-1.035-.5-1.294a1.83 1.83 0 0 0-1.16-.389c-.58 0-1.02.174-1.34.522-.32.344-.47.781-.47 1.31V332h-1.28v-5.604c0-.465-.15-.84-.46-1.124-.3-.287-.69-.431-1.16-.431-.33 0-.63.087-.92.261-.28.174-.51.415-.68.724-.17.306-.26.659-.26 1.06V332zm13.03 0v-8.182h1.22v1.279h.11c.17-.437.44-.776.82-1.018.38-.245.84-.367 1.37-.367q.81 0 1.35.367.54.363.84 1.018h.09c.21-.423.52-.759.94-1.007.42-.252.92-.378 1.51-.378q1.095 0 1.8.687.69.682.69 2.125V332h-1.25v-5.476c0-.604-.17-1.035-.5-1.294a1.84 1.84 0 0 0-1.17-.389c-.57 0-1.02.174-1.33.522q-.48.516-.48 1.31V332h-1.28v-5.604q0-.698-.45-1.124c-.3-.287-.69-.431-1.16-.431-.33 0-.64.087-.92.261s-.51.415-.68.724c-.17.306-.26.659-.26 1.06V332zM678.364 312.091V323h-1.321v-9.524h-.064l-2.663 1.768v-1.342l2.727-1.811zM681.843 323l4.879-9.652v-.085h-5.625v-1.172h6.989v1.236L683.228 323zm12.063-10.909V323h-1.321v-9.524h-.064l-2.663 1.768v-1.342l2.727-1.811zm3.431 10.994a.92.92 0 0 1-.677-.282.92.92 0 0 1-.282-.677q0-.394.282-.676a.92.92 0 0 1 .677-.282q.394 0 .676.282a.92.92 0 0 1 .283.676.9.9 0 0 1-.134.48 1 1 0 0 1-.346.351.9.9 0 0 1-.479.128m6.383.064q-.937 0-1.689-.373a3.13 3.13 0 0 1-1.204-1.022 2.8 2.8 0 0 1-.495-1.481h1.278q.075.74.671 1.225.603.479 1.439.479.67 0 1.193-.314.526-.314.825-.863.304-.554.304-1.252 0-.714-.314-1.273a2.3 2.3 0 0 0-.853-.889 2.4 2.4 0 0 0-1.241-.331 3.4 3.4 0 0 0-1.028.155 2.9 2.9 0 0 0-.868.399l-1.236-.149.661-5.369h5.667v1.172h-4.559l-.384 3.217h.064q.336-.266.842-.442a3.2 3.2 0 0 1 1.054-.176q1.002 0 1.785.48.787.474 1.236 1.299.452.826.452 1.886 0 1.044-.468 1.864a3.4 3.4 0 0 1-1.279 1.289q-.815.47-1.853.469m9.956-.149v-8.182h1.215v1.279h.106q.256-.655.826-1.018.57-.367 1.369-.367.81 0 1.348.367.543.363.847 1.018h.085q.314-.635.943-1.007.628-.378 1.507-.378 1.098 0 1.795.687.698.682.698 2.125V323h-1.257v-5.476q0-.906-.495-1.294a1.84 1.84 0 0 0-1.167-.389q-.863 0-1.337.522-.474.516-.474 1.31V323h-1.278v-5.604q0-.698-.453-1.124-.453-.43-1.167-.431-.49 0-.916.261-.42.26-.682.724-.255.459-.255 1.06V323zm13.038 0v-8.182h1.214v1.279h.107q.255-.655.825-1.018.57-.367 1.369-.367.81 0 1.348.367.543.363.847 1.018h.085q.315-.635.943-1.007.628-.378 1.507-.378 1.098 0 1.795.687.698.682.698 2.125V323h-1.257v-5.476q0-.906-.495-1.294a1.84 1.84 0 0 0-1.167-.389q-.863 0-1.337.522-.474.516-.474 1.31V323h-1.278v-5.604q0-.698-.453-1.124-.453-.43-1.167-.431-.49 0-.916.261-.42.26-.682.724-.255.459-.255 1.06V323zM790.146 96.693a.5.5 0 0 0 0 .707l3.182 3.182a.5.5 0 1 0 .708-.707l-2.829-2.828 2.829-2.829a.5.5 0 0 0-.708-.707zm104.708.707a.5.5 0 0 0 0-.707l-3.182-3.182a.501.501 0 0 0-.708.707l2.829 2.829-2.829 2.828a.5.5 0 1 0 .708.707zM790.5 97.047v.5h104v-1h-104z"/><path stroke="#000" d="M789.5 93v8.094M895.5 93v8.094"/><path fill="#000" d="M924.353 127.646a.5.5 0 0 0-.707 0l-3.182 3.182a.5.5 0 0 0 .707.708l2.829-2.829 2.828 2.829a.5.5 0 0 0 .707-.708zm-.707 398.708a.5.5 0 0 0 .707 0l3.182-3.182a.5.5 0 1 0-.707-.708L924 525.293l-2.829-2.829a.5.5 0 0 0-.707.708zM924 128h-.5v398h1V128z"/><path stroke="#000" d="M920 126.5h8.109M920 526.5h8.109"/><g stroke-linecap="round" stroke-linejoin="round" clip-path="url(#f)"><path stroke="#9e9e9f" stroke-width=".5" d="M880.507 249.424h-11.076M869.431 244.659h11.076M814.082 249.424h-11.077M803.005 244.659h11.077"/><path stroke="#221714" d="M851.723 526.609h-19.934M800.24 507.121h31.549M851.723 507.121h31.55M789.391 467.268h6.42M887.701 467.268h6.421M789.391 467.268V152.855M795.811 467.268v35.424"/><path stroke="#9e9e9f" stroke-width=".5" d="M799.686 229.24v21.035M803.005 250.275v-10.904"/><path stroke="#221714" stroke-width=".5" d="M806.192 323.348V274.63"/><path stroke="#221714" d="M806.333 152.855v-25.464"/><path stroke="#9e9e9f" stroke-width=".5" d="M814.082 250.275v-10.904M817.401 250.275V229.24"/><path stroke="#221714" d="M831.789 526.609v-19.488"/><path stroke="#221714" stroke-width=".5" d="M836.781 432.501v-22.137M846.732 410.364v22.137"/><path stroke="#221714" d="M851.723 526.609v-19.488"/><path stroke="#221714" stroke-width=".5" d="M872.618 327.777h-61.997"/><path stroke="#9e9e9f" stroke-width=".5" d="M866.111 229.24v21.035M869.431 250.275v-10.904"/><path stroke="#221714" stroke-width=".5" d="M877.047 274.63v48.718"/><path stroke="#221714" d="M877.18 152.855v-25.464"/><path stroke="#9e9e9f" stroke-width=".5" d="M880.507 250.275v-10.904M883.827 250.275V229.24"/><path stroke="#221714" d="M887.701 502.692v-35.424M894.122 467.268V152.855"/><path stroke="#221714" stroke-width=".5" d="M810.621 270.201h61.997"/><path stroke="#9e9e9f" stroke-width=".5" d="M799.686 250.275h3.319M814.082 250.275h3.319M866.111 250.275h3.32M880.507 250.275h3.32"/><path stroke="#221714" stroke-width=".5" d="M852.825 241.972h-22.137"/><path stroke="#9e9e9f" stroke-width=".5" d="M879.398 238.27h-8.858M812.972 238.27h-8.857"/><path stroke="#221714" stroke-width=".5" d="M830.688 232.013h22.137"/><path stroke="#9e9e9f" stroke-width=".5" d="M880.507 225.92h-11.076M814.082 225.92h-11.077"/><path stroke="#221714" d="M806.333 152.855h-16.942M877.18 152.855h16.942M806.333 127.391h70.847"/><path stroke="#221714" stroke-width=".5" d="M806.192 323.348a4.43 4.43 0 0 0 4.429 4.429"/><path stroke="#221714" d="M795.811 502.692a4.43 4.43 0 0 0 4.429 4.429"/><path stroke="#221714" stroke-width=".5" d="M830.688 232.013a4.987 4.987 0 0 0-4.983 4.983 4.987 4.987 0 0 0 4.983 4.984M810.621 270.201a4.43 4.43 0 0 0-4.429 4.429"/><path stroke="#9e9e9f" stroke-width=".5" d="M803.005 225.92a3.317 3.317 0 0 0-3.319 3.32M817.401 229.24a3.317 3.317 0 0 0-3.319-3.32M814.081 239.371c0-.609-.492-1.109-1.109-1.109M804.115 238.27c-.61 0-1.11.492-1.11 1.109"/><path stroke="#221714" stroke-width=".5" d="M836.781 432.501a4.974 4.974 0 0 0 4.975 4.976 4.974 4.974 0 0 0 4.976-4.976M846.732 410.364a4.973 4.973 0 0 0-4.976-4.975 4.973 4.973 0 0 0-4.975 4.975M872.618 327.777a4.43 4.43 0 0 0 4.429-4.429"/><path stroke="#221714" d="M883.272 507.121a4.43 4.43 0 0 0 4.429-4.429"/><path stroke="#221714" stroke-width=".5" d="M852.825 241.972a4.987 4.987 0 0 0 4.983-4.984 4.987 4.987 0 0 0-4.983-4.983M877.047 274.63a4.43 4.43 0 0 0-4.429-4.429"/><path stroke="#9e9e9f" stroke-width=".5" d="M869.431 225.92a3.317 3.317 0 0 0-3.32 3.32M883.827 229.24a3.317 3.317 0 0 0-3.32-3.32M870.54 238.27c-.609 0-1.109.492-1.109 1.109M880.507 239.371c0-.609-.492-1.109-1.109-1.109"/><path stroke="#221714" stroke-width=".5" d="M804.669 467.268a3.873 3.873 0 0 1 3.874-3.874 3.874 3.874 0 1 1 0 7.749 3.874 3.874 0 0 1-3.874-3.875M804.669 190.497a3.873 3.873 0 0 1 3.874-3.874 3.874 3.874 0 1 1 0 7.748 3.873 3.873 0 0 1-3.874-3.874M871.095 467.268a3.873 3.873 0 0 1 3.874-3.874 3.874 3.874 0 1 1 0 7.749 3.874 3.874 0 0 1-3.874-3.875M871.095 190.497a3.873 3.873 0 0 1 3.874-3.874 3.874 3.874 0 1 1 0 7.748 3.873 3.873 0 0 1-3.874-3.874"/></g><path stroke="#000" d="M755 507.5h8.109"/><path fill="#000" d="M759.351 127.646a.5.5 0 0 0-.707 0l-3.182 3.182a.5.5 0 0 0 .707.708l2.829-2.829 2.828 2.829a.5.5 0 0 0 .707-.708zm-.705 379.208a.5.5 0 0 0 .707 0l3.182-3.182a.5.5 0 1 0-.707-.708L759 505.793l-2.829-2.829a.5.5 0 0 0-.707.708zM758.998 128h-.5l.002 378.5h1l-.002-378.5z"/><path stroke="#000" d="M755 126.5h8.109"/><defs><clipPath id="a"><path fill="#fff" d="M190 128h122.482v400H190z"/></clipPath><clipPath id="e"><path fill="#fff" d="M468 128h94.16v400H468z"/></clipPath><clipPath id="f"><path fill="#fff" d="M789 127h105.513v400H789z"/></clipPath><linearGradient id="c" x1="217.39" x2="285.092" y1="225.329" y2="157.635" gradientUnits="userSpaceOnUse"><stop stop-color="#bfbfbf"/><stop offset=".14" stop-color="#c2c2c2"/><stop offset=".27" stop-color="#cecece"/><stop offset=".4" stop-color="#e0e0e0"/><stop offset=".53" stop-color="#fbfbfb"/><stop offset=".54" stop-color="#e0e0e0"/><stop offset=".55" stop-color="#cdcdcd"/><stop offset=".56" stop-color="#ccc"/><stop offset="1" stop-color="#fff"/></linearGradient><linearGradient id="d" x1="247.618" x2="254.886" y1="419.335" y2="399.361" gradientUnits="userSpaceOnUse"><stop stop-color="#bfbfbf"/><stop offset=".12" stop-color="#c2c2c2"/><stop offset=".23" stop-color="#cecece"/><stop offset=".34" stop-color="#e0e0e0"/><stop offset=".44" stop-color="#fbfbfb"/><stop offset=".45" stop-color="#fff"/><stop offset=".46" stop-color="#d4d4d4"/><stop offset=".47" stop-color="#cdcdcd"/><stop offset=".48" stop-color="#ccc"/><stop offset="1" stop-color="#fff"/></linearGradient></defs></svg>