<svg width="263" height="272" viewBox="0 0 263 272" fill="none" xmlns="http://www.w3.org/2000/svg">
<path d="M9.35341 35.6464C9.15815 35.4512 8.84156 35.4512 8.6463 35.6464L5.46432 38.8284C5.26906 39.0237 5.26906 39.3403 5.46432 39.5355C5.65959 39.7308 5.97617 39.7308 6.17143 39.5355L8.99986 36.7071L11.8283 39.5355C12.0235 39.7308 12.3401 39.7308 12.5354 39.5355C12.7307 39.3403 12.7307 39.0237 12.5354 38.8284L9.35341 35.6464ZM8.64644 270.854C8.8417 271.049 9.15828 271.049 9.35354 270.854L12.5355 267.672C12.7308 267.476 12.7308 267.16 12.5355 266.964C12.3403 266.769 12.0237 266.769 11.8284 266.964L8.99999 269.793L6.17156 266.964C5.9763 266.769 5.65972 266.769 5.46445 266.964C5.26919 267.16 5.26919 267.476 5.46445 267.672L8.64644 270.854ZM8.99986 36L8.49986 36L8.49999 270.5L8.99999 270.5L9.49999 270.5L9.49986 36L8.99986 36Z" fill="black"/>
<line x1="5" y1="35.5" x2="13.1091" y2="35.5" stroke="black"/>
<line x1="5" y1="271.5" x2="13.1091" y2="271.5" stroke="black"/>
<ellipse cx="8.61591" cy="153.6" rx="8.61591" ry="8.59976" fill="black"/>
<path d="M5.01185 158.012V149.284H6.59282V152.979H10.6369V149.284H12.2221V158.012H10.6369V154.304H6.59282V158.012H5.01185Z" fill="white"/>
<g clip-path="url(#clip0_150_1357)">
<path d="M115.01 268.69H130.25" stroke="#231815" stroke-width="0.7" stroke-linecap="round" stroke-linejoin="round"/>
<path d="M174.77 268.26H190.02" stroke="#231815" stroke-width="0.7" stroke-linecap="round" stroke-linejoin="round"/>
<path d="M190.02 268.01H174.77" stroke="#231815" stroke-width="0.7" stroke-linecap="round" stroke-linejoin="round"/>
<path d="M130.34 267.21C130.34 266.25 129.56 265.47 128.6 265.47H128.16H117.17H116.75C115.79 265.47 115.01 266.25 115.01 267.2" stroke="#231815" stroke-width="0.7" stroke-linecap="round" stroke-linejoin="round"/>
<path d="M40.07 64.3601V77.9901" stroke="#231815" stroke-width="0.7" stroke-linecap="round" stroke-linejoin="round"/>
<path d="M40.07 213.65V227.28" stroke="#231815" stroke-width="0.7" stroke-linecap="round" stroke-linejoin="round"/>
<path d="M42.35 64.3601V77.9901" stroke="#231815" stroke-width="0.7" stroke-linecap="round" stroke-linejoin="round"/>
<path d="M42.35 213.65V227.28" stroke="#231815" stroke-width="0.7" stroke-linecap="round" stroke-linejoin="round"/>
<path d="M42.35 210.26V167.83" stroke="#231815" stroke-width="0.7" stroke-linecap="round" stroke-linejoin="round"/>
<path d="M42.35 123.46V81.3799" stroke="#231815" stroke-width="0.7" stroke-linecap="round" stroke-linejoin="round"/>
<path d="M42.61 227.28V213.65" stroke="#231815" stroke-width="0.7" stroke-linecap="round" stroke-linejoin="round"/>
<path d="M42.61 210.34V167.83" stroke="#231815" stroke-width="0.7" stroke-linecap="round" stroke-linejoin="round"/>
<path d="M42.61 123.55V81.3799" stroke="#231815" stroke-width="0.7" stroke-linecap="round" stroke-linejoin="round"/>
<path d="M42.61 77.9901V64.3601" stroke="#231815" stroke-width="0.7" stroke-linecap="round" stroke-linejoin="round"/>
<path d="M77.84 36.75V38.78" stroke="#231815" stroke-width="0.7" stroke-linecap="round" stroke-linejoin="round"/>
<path d="M83 38.78V41.83" stroke="#231815" stroke-width="0.7" stroke-linecap="round" stroke-linejoin="round"/>
<path d="M40.32 208.56H42.35" stroke="#231815" stroke-width="0.7" stroke-linecap="round" stroke-linejoin="round"/>
<path d="M254.39 208.56H256.42" stroke="#231815" stroke-width="0.7" stroke-linecap="round" stroke-linejoin="round"/>
<path d="M103.32 41.83V38.78" stroke="#231815" stroke-width="0.7" stroke-linecap="round" stroke-linejoin="round"/>
<path d="M108.49 38.78V36.75" stroke="#231815" stroke-width="0.7" stroke-linecap="round" stroke-linejoin="round"/>
<path d="M256.42 169.53H254.39" stroke="#231815" stroke-width="0.7" stroke-linecap="round" stroke-linejoin="round"/>
<path d="M42.35 169.53H40.32" stroke="#231815" stroke-width="0.7" stroke-linecap="round" stroke-linejoin="round"/>
<path d="M176.47 270.3V268.26" stroke="#231815" stroke-width="0.7" stroke-linecap="round" stroke-linejoin="round"/>
<path d="M40.32 121.77H42.35" stroke="#231815" stroke-width="0.7" stroke-linecap="round" stroke-linejoin="round"/>
<path d="M188.26 36.75V38.78" stroke="#231815" stroke-width="0.7" stroke-linecap="round" stroke-linejoin="round"/>
<path d="M188.32 270.3V268.26" stroke="#231815" stroke-width="0.7" stroke-linecap="round" stroke-linejoin="round"/>
<path d="M193.34 38.78V41.83" stroke="#231815" stroke-width="0.7" stroke-linecap="round" stroke-linejoin="round"/>
<path d="M254.39 99.75H256.42" stroke="#231815" stroke-width="0.7" stroke-linecap="round" stroke-linejoin="round"/>
<path d="M213.75 41.83V38.78" stroke="#231815" stroke-width="0.7" stroke-linecap="round" stroke-linejoin="round"/>
<path d="M218.83 38.78V36.75" stroke="#231815" stroke-width="0.7" stroke-linecap="round" stroke-linejoin="round"/>
<path d="M256.42 83.0701H254.39" stroke="#231815" stroke-width="0.7" stroke-linecap="round" stroke-linejoin="round"/>
<path d="M42.35 83.0701H40.32" stroke="#231815" stroke-width="0.7" stroke-linecap="round" stroke-linejoin="round"/>
<path d="M254.14 64.3601V77.9901" stroke="#231815" stroke-width="0.7" stroke-linecap="round" stroke-linejoin="round"/>
<path d="M254.14 81.3799V101.45" stroke="#231815" stroke-width="0.7" stroke-linecap="round" stroke-linejoin="round"/>
<path d="M254.14 167.83V210.34" stroke="#231815" stroke-width="0.7" stroke-linecap="round" stroke-linejoin="round"/>
<path d="M254.14 213.76V227.39" stroke="#231815" stroke-width="0.7" stroke-linecap="round" stroke-linejoin="round"/>
<path d="M254.39 227.39V213.76" stroke="#231815" stroke-width="0.7" stroke-linecap="round" stroke-linejoin="round"/>
<path d="M254.39 210.26V167.83" stroke="#231815" stroke-width="0.7" stroke-linecap="round" stroke-linejoin="round"/>
<path d="M254.39 101.45V81.3799" stroke="#231815" stroke-width="0.7" stroke-linecap="round" stroke-linejoin="round"/>
<path d="M254.39 77.9901V64.3601" stroke="#231815" stroke-width="0.7" stroke-linecap="round" stroke-linejoin="round"/>
<path d="M256.68 227.39V213.76" stroke="#231815" stroke-width="0.7" stroke-linecap="round" stroke-linejoin="round"/>
<path d="M256.68 77.9901V64.3601" stroke="#231815" stroke-width="0.7" stroke-linecap="round" stroke-linejoin="round"/>
<path d="M212.01 43.52H195.07" stroke="#231815" stroke-width="0.7" stroke-linecap="round" stroke-linejoin="round"/>
<path d="M101.63 43.52H84.69" stroke="#231815" stroke-width="0.7" stroke-linecap="round" stroke-linejoin="round"/>
<path d="M76.14 39.04H83" stroke="#231815" stroke-width="0.7" stroke-linecap="round" stroke-linejoin="round"/>
<path d="M103.32 39.04H110.18" stroke="#231815" stroke-width="0.7" stroke-linecap="round" stroke-linejoin="round"/>
<path d="M186.56 39.04H193.34" stroke="#231815" stroke-width="0.7" stroke-linecap="round" stroke-linejoin="round"/>
<path d="M213.75 39.04H220.52" stroke="#231815" stroke-width="0.7" stroke-linecap="round" stroke-linejoin="round"/>
<path d="M76.14 38.78H110.18" stroke="#231815" stroke-width="0.7" stroke-linecap="round" stroke-linejoin="round"/>
<path d="M186.56 38.78H220.52" stroke="#231815" stroke-width="0.7" stroke-linecap="round" stroke-linejoin="round"/>
<path d="M101.59 43.52C102.55 43.52 103.33 42.74 103.33 41.78" stroke="#231815" stroke-width="0.7" stroke-linecap="round" stroke-linejoin="round"/>
<path d="M83 41.79C83 42.75 83.78 43.53 84.74 43.53" stroke="#231815" stroke-width="0.7" stroke-linecap="round" stroke-linejoin="round"/>
<path d="M212.01 43.52C212.97 43.52 213.75 42.74 213.75 41.78" stroke="#231815" stroke-width="0.7" stroke-linecap="round" stroke-linejoin="round"/>
<path d="M193.34 41.79C193.34 42.75 194.12 43.53 195.08 43.53" stroke="#231815" stroke-width="0.7" stroke-linecap="round" stroke-linejoin="round"/>
<path d="M40.37 128.68V162.78C40.37 163.74 41.15 164.52 42.11 164.52H42.41C43.18 164.52 43.81 165.15 43.81 165.92V166.51C43.81 167.28 43.18 167.91 42.41 167.91H40.38V210.36H42.41C43.18 210.36 43.81 210.99 43.81 211.76V212.44C43.81 213.21 43.18 213.84 42.41 213.84H37.53C36.57 213.84 35.79 214.62 35.79 215.58V225.66C35.79 226.62 36.57 227.4 37.53 227.4H42.4C43.17 227.4 43.8 228.03 43.8 228.8V229.31C43.8 230.08 43.17 230.71 42.4 230.71H42.1C41.14 230.71 40.36 231.49 40.36 232.45V251.34C40.36 255.15 42.17 258.72 45.25 260.96H45.27C45.77 261.33 46.29 261.68 46.81 262L47.56 262.65L50.9 265.7L50.92 265.72C51.86 266.58 53.1 267.06 54.37 267.06H83.43C84.28 267.06 85.13 266.85 85.88 266.44L86.36 266.13C87.11 265.72 87.95 265.51 88.81 265.51H113.26C114.22 265.51 115 266.29 115 267.25V267.36V271.14H130.34V267.28C130.34 266.32 131.12 265.54 132.08 265.54H173C173.96 265.54 174.74 266.32 174.74 267.28V270.46H190.08V267.28C190.08 266.32 190.86 265.54 191.82 265.54H237.78C242.73 265.54 247.5 264.01 251.51 261.1L251.57 261.06C254.65 258.82 256.51 255.16 256.51 251.35V232.54C256.51 231.58 255.73 230.8 254.77 230.8H254.52C253.75 230.8 253.12 230.17 253.12 229.4V228.81C253.12 228.04 253.75 227.41 254.52 227.41H259.35C260.31 227.41 261.09 226.63 261.09 225.67V215.59C261.09 214.63 260.31 213.85 259.35 213.85H254.52C253.75 213.85 253.12 213.22 253.12 212.45V211.77C253.12 211 253.75 210.37 254.52 210.37H256.51V167.92H254.52C253.75 167.92 253.12 167.29 253.12 166.52V102.89C253.12 102.12 253.75 101.49 254.52 101.49H256.51V81.41H254.52C253.75 81.41 253.12 80.78 253.12 80.01V79.42C253.12 78.65 253.75 78.02 254.52 78.02H259.35C260.31 78.02 261.09 77.24 261.09 76.28V66.2C261.09 65.24 260.31 64.46 259.35 64.46H254.52C253.75 64.46 253.12 63.83 253.12 63.06V62.38C253.12 61.61 253.75 60.98 254.52 60.98H254.77C255.73 60.98 256.51 60.2 256.51 59.24V52.04C256.51 45.47 251.18 40.14 244.61 40.14H221.56C221.07 40.14 220.67 39.74 220.67 39.25V36.75H186.69V39.25C186.69 39.74 186.29 40.14 185.8 40.14H111.07C110.58 40.14 110.18 39.74 110.18 39.25V36.75H76.2V39.25C76.2 39.74 75.8 40.14 75.31 40.14H52.26C45.69 40.14 40.36 45.47 40.36 52.04V59.24C40.36 60.2 41.14 60.98 42.1 60.98H42.4C43.17 60.98 43.8 61.61 43.8 62.38V63.06C43.8 63.83 43.17 64.46 42.4 64.46H37.49C36.53 64.46 35.75 65.24 35.75 66.2V76.28C35.75 77.24 36.53 78.02 37.49 78.02H42.4C43.17 78.02 43.8 78.65 43.8 79.42V80.01C43.8 80.78 43.17 81.41 42.4 81.41H40.37V123.6H42.4C43.17 123.6 43.8 124.23 43.8 125V125.55C43.8 126.32 43.17 126.95 42.4 126.95H42.1C41.14 126.95 40.36 127.73 40.36 128.69" stroke="#231815" stroke-width="1.5" stroke-linecap="round" stroke-linejoin="round"/>
<path d="M184.19 252.38C181.92 252.38 180.08 254.22 180.08 256.49C180.08 258.76 181.92 260.6 184.19 260.6H190.97C193.24 260.6 195.08 258.76 195.08 256.49C195.08 254.22 193.24 252.38 190.97 252.38" stroke="#898989" stroke-width="0.7" stroke-linecap="round" stroke-linejoin="round"/>
<path d="M184.19 252.38H190.97" stroke="#898989" stroke-width="0.7" stroke-linecap="round" stroke-linejoin="round"/>
<path d="M63.41 46.49L59.18 53.86" stroke="#898989" stroke-width="0.7" stroke-linecap="round" stroke-linejoin="round"/>
<path d="M61.3 53.8601V62.4201" stroke="#898989" stroke-width="0.7" stroke-linecap="round" stroke-linejoin="round"/>
<path d="M65.62 62.4201V53.8601" stroke="#898989" stroke-width="0.7" stroke-linecap="round" stroke-linejoin="round"/>
<path d="M67.73 53.86L63.41 46.49" stroke="#898989" stroke-width="0.7" stroke-linecap="round" stroke-linejoin="round"/>
<path d="M61.3 62.4199H65.62" stroke="#898989" stroke-width="0.7" stroke-linecap="round" stroke-linejoin="round"/>
<path d="M59.18 53.8601H61.3" stroke="#898989" stroke-width="0.7" stroke-linecap="round" stroke-linejoin="round"/>
<path d="M65.62 53.8601H67.73" stroke="#898989" stroke-width="0.7" stroke-linecap="round" stroke-linejoin="round"/>
<path d="M79.6 262.8H78.75" stroke="#898989" stroke-width="0.7" stroke-linecap="round" stroke-linejoin="round"/>
<path d="M58.33 262.8H57.48" stroke="#898989" stroke-width="0.7" stroke-linecap="round" stroke-linejoin="round"/>
<path d="M77.14 261.7H59.94" stroke="#898989" stroke-width="0.7" stroke-linecap="round" stroke-linejoin="round"/>
<path d="M60.02 260.68H77.05" stroke="#898989" stroke-width="0.7" stroke-linecap="round" stroke-linejoin="round"/>
<path d="M60.02 257.04H77.05" stroke="#898989" stroke-width="0.7" stroke-linecap="round" stroke-linejoin="round"/>
<path d="M60.02 254.58H77.05" stroke="#898989" stroke-width="0.7" stroke-linecap="round" stroke-linejoin="round"/>
<path d="M55.79 261.11V220.35" stroke="#898989" stroke-width="0.7" stroke-linecap="round" stroke-linejoin="round"/>
<path d="M60.02 220.35V223.15" stroke="#898989" stroke-width="0.7" stroke-linecap="round" stroke-linejoin="round"/>
<path d="M60.02 223.15V260.68" stroke="#898989" stroke-width="0.7" stroke-linecap="round" stroke-linejoin="round"/>
<path d="M60.02 260.68V261.11" stroke="#898989" stroke-width="0.7" stroke-linecap="round" stroke-linejoin="round"/>
<path d="M62.9 245.22V239.46" stroke="#898989" stroke-width="0.7" stroke-linecap="round" stroke-linejoin="round"/>
<path d="M65.7 239.46V245.22" stroke="#898989" stroke-width="0.7" stroke-linecap="round" stroke-linejoin="round"/>
<path d="M71.46 247.84V236.91" stroke="#898989" stroke-width="0.7" stroke-linecap="round" stroke-linejoin="round"/>
<path d="M60.02 230.18H77.05" stroke="#898989" stroke-width="0.7" stroke-linecap="round" stroke-linejoin="round"/>
<path d="M74.26 236.91V247.84" stroke="#898989" stroke-width="0.7" stroke-linecap="round" stroke-linejoin="round"/>
<path d="M77.05 220.35V223.15" stroke="#898989" stroke-width="0.7" stroke-linecap="round" stroke-linejoin="round"/>
<path d="M77.05 223.15V260.68" stroke="#898989" stroke-width="0.7" stroke-linecap="round" stroke-linejoin="round"/>
<path d="M77.05 260.68V261.11" stroke="#898989" stroke-width="0.7" stroke-linecap="round" stroke-linejoin="round"/>
<path d="M81.29 220.35V261.11" stroke="#898989" stroke-width="0.7" stroke-linecap="round" stroke-linejoin="round"/>
<path d="M60.02 227.81H77.05" stroke="#898989" stroke-width="0.7" stroke-linecap="round" stroke-linejoin="round"/>
<path d="M60.02 224.08H77.05" stroke="#898989" stroke-width="0.7" stroke-linecap="round" stroke-linejoin="round"/>
<path d="M60.02 223.15H77.05" stroke="#898989" stroke-width="0.7" stroke-linecap="round" stroke-linejoin="round"/>
<path d="M57.48 218.66H58.33" stroke="#898989" stroke-width="0.7" stroke-linecap="round" stroke-linejoin="round"/>
<path d="M78.75 218.66H79.6" stroke="#898989" stroke-width="0.7" stroke-linecap="round" stroke-linejoin="round"/>
<path d="M70.53 233.87C70.53 232.82 69.68 231.96 68.62 231.96C67.56 231.96 66.71 232.81 66.71 233.87C66.71 234.93 67.56 235.78 68.62 235.78C69.68 235.78 70.53 234.93 70.53 233.87Z" stroke="#898989" stroke-width="0.7" stroke-linecap="round" stroke-linejoin="round"/>
<path d="M70.53 250.9C70.53 249.85 69.68 248.99 68.62 248.99C67.56 248.99 66.71 249.84 66.71 250.9C66.71 251.96 67.56 252.81 68.62 252.81C69.68 252.81 70.53 251.96 70.53 250.9Z" stroke="#898989" stroke-width="0.7" stroke-linecap="round" stroke-linejoin="round"/>
<path d="M78.79 218.66C77.83 218.66 77.05 219.44 77.05 220.4" stroke="#898989" stroke-width="0.7" stroke-linecap="round" stroke-linejoin="round"/>
<path d="M81.29 220.4C81.29 219.44 80.51 218.66 79.55 218.66" stroke="#898989" stroke-width="0.7" stroke-linecap="round" stroke-linejoin="round"/>
<path d="M60.02 220.4C60.02 219.44 59.24 218.66 58.28 218.66" stroke="#898989" stroke-width="0.7" stroke-linecap="round" stroke-linejoin="round"/>
<path d="M57.52 218.66C56.56 218.66 55.78 219.44 55.78 220.4" stroke="#898989" stroke-width="0.7" stroke-linecap="round" stroke-linejoin="round"/>
<path d="M55.79 261.06C55.79 262.02 56.57 262.8 57.53 262.8" stroke="#898989" stroke-width="0.7" stroke-linecap="round" stroke-linejoin="round"/>
<path d="M58.29 262.8C59.25 262.8 60.03 262.02 60.03 261.06" stroke="#898989" stroke-width="0.7" stroke-linecap="round" stroke-linejoin="round"/>
<path d="M77.05 261.06C77.05 262.02 77.83 262.8 78.79 262.8" stroke="#898989" stroke-width="0.7" stroke-linecap="round" stroke-linejoin="round"/>
<path d="M79.55 262.8C80.51 262.8 81.29 262.02 81.29 261.06" stroke="#898989" stroke-width="0.7" stroke-linecap="round" stroke-linejoin="round"/>
<path d="M74.26 236.92C74.26 236.15 73.63 235.52 72.86 235.52C72.09 235.52 71.46 236.15 71.46 236.92" stroke="#898989" stroke-width="0.7" stroke-linecap="round" stroke-linejoin="round"/>
<path d="M71.46 247.85C71.46 248.62 72.09 249.25 72.86 249.25C73.63 249.25 74.26 248.62 74.26 247.85" stroke="#898989" stroke-width="0.7" stroke-linecap="round" stroke-linejoin="round"/>
<path d="M62.9 245.22C62.9 245.99 63.53 246.62 64.3 246.62C65.07 246.62 65.7 245.99 65.7 245.22" stroke="#898989" stroke-width="0.7" stroke-linecap="round" stroke-linejoin="round"/>
<path d="M65.7 239.46C65.7 238.69 65.07 238.06 64.3 238.06C63.53 238.06 62.9 238.69 62.9 239.46" stroke="#898989" stroke-width="0.7" stroke-linecap="round" stroke-linejoin="round"/>
<path d="M105.27 118V111.22" stroke="#898989" stroke-width="0.7" stroke-linecap="round" stroke-linejoin="round"/>
<path d="M113.49 111.19V117.96" stroke="#898989" stroke-width="0.7" stroke-linecap="round" stroke-linejoin="round"/>
<path d="M113.49 111.18C113.49 108.91 111.65 107.07 109.38 107.07C107.11 107.07 105.27 108.91 105.27 111.18" stroke="#898989" stroke-width="0.7" stroke-linecap="round" stroke-linejoin="round"/>
<path d="M105.27 117.96C105.27 120.23 107.11 122.07 109.38 122.07C111.65 122.07 113.49 120.23 113.49 117.96" stroke="#898989" stroke-width="0.7" stroke-linecap="round" stroke-linejoin="round"/>
<path d="M101.63 84.4899C101.63 82.2199 99.79 80.3799 97.52 80.3799C95.25 80.3799 93.41 82.2199 93.41 84.4899C93.41 86.7599 95.25 88.5999 97.52 88.5999C99.79 88.5999 101.63 86.7599 101.63 84.4899Z" stroke="#898989" stroke-width="0.7" stroke-linecap="round" stroke-linejoin="round"/>
<path d="M151.87 260.6H145.01" stroke="#898989" stroke-width="0.7" stroke-linecap="round" stroke-linejoin="round"/>
<path d="M145.05 252.38H151.91" stroke="#898989" stroke-width="0.7" stroke-linecap="round" stroke-linejoin="round"/>
<path d="M145.05 252.38C142.78 252.38 140.94 254.22 140.94 256.49C140.94 258.76 142.78 260.6 145.05 260.6" stroke="#898989" stroke-width="0.7" stroke-linecap="round" stroke-linejoin="round"/>
<path d="M151.91 260.6C154.18 260.6 156.02 258.76 156.02 256.49C156.02 254.22 154.18 252.38 151.91 252.38" stroke="#898989" stroke-width="0.7" stroke-linecap="round" stroke-linejoin="round"/>
<path d="M170.51 247.64H112.72" stroke="#898989" stroke-width="0.7" stroke-linecap="round" stroke-linejoin="round"/>
<path d="M109.34 244.25V183.07" stroke="#898989" stroke-width="0.7" stroke-linecap="round" stroke-linejoin="round"/>
<path d="M112.72 179.6H170.51" stroke="#898989" stroke-width="0.7" stroke-linecap="round" stroke-linejoin="round"/>
<path d="M173.9 183.03V244.2" stroke="#898989" stroke-width="0.7" stroke-linecap="round" stroke-linejoin="round"/>
<path d="M109.34 244.2C109.34 246.1 110.88 247.63 112.77 247.63" stroke="#898989" stroke-width="0.7" stroke-linecap="round" stroke-linejoin="round"/>
<path d="M112.77 179.6C110.87 179.6 109.34 181.14 109.34 183.03" stroke="#898989" stroke-width="0.7" stroke-linecap="round" stroke-linejoin="round"/>
<path d="M170.47 247.64C172.37 247.64 173.9 246.1 173.9 244.21" stroke="#898989" stroke-width="0.7" stroke-linecap="round" stroke-linejoin="round"/>
<path d="M173.9 183.03C173.9 181.13 172.36 179.6 170.47 179.6" stroke="#898989" stroke-width="0.7" stroke-linecap="round" stroke-linejoin="round"/>
<path d="M144.33 118V111.22" stroke="#898989" stroke-width="0.7" stroke-linecap="round" stroke-linejoin="round"/>
<path d="M152.55 111.22V118" stroke="#898989" stroke-width="0.7" stroke-linecap="round" stroke-linejoin="round"/>
<path d="M152.55 111.18C152.55 108.91 150.71 107.07 148.44 107.07C146.17 107.07 144.33 108.91 144.33 111.18" stroke="#898989" stroke-width="0.7" stroke-linecap="round" stroke-linejoin="round"/>
<path d="M144.33 117.96C144.33 120.23 146.17 122.07 148.44 122.07C150.71 122.07 152.55 120.23 152.55 117.96" stroke="#898989" stroke-width="0.7" stroke-linecap="round" stroke-linejoin="round"/>
<path d="M101.63 204.3C101.63 202.03 99.79 200.19 97.52 200.19C95.25 200.19 93.41 202.03 93.41 204.3C93.41 206.57 95.25 208.41 97.52 208.41C99.79 208.41 101.63 206.57 101.63 204.3Z" stroke="#898989" stroke-width="0.7" stroke-linecap="round" stroke-linejoin="round"/>
<path d="M195.33 204.3C195.33 206.57 197.17 208.41 199.44 208.41C201.71 208.41 203.55 206.57 203.55 204.3C203.55 202.03 201.71 200.19 199.44 200.19C197.17 200.19 195.33 202.03 195.33 204.3Z" stroke="#898989" stroke-width="0.7" stroke-linecap="round" stroke-linejoin="round"/>
<path d="M199.44 88.5999C201.71 88.5999 203.55 86.7599 203.55 84.4899C203.55 82.2199 201.71 80.3799 199.44 80.3799C197.17 80.3799 195.33 82.2199 195.33 84.4899C195.33 86.7599 197.17 88.5999 199.44 88.5999Z" stroke="#898989" stroke-width="0.7" stroke-linecap="round" stroke-linejoin="round"/>
<path d="M109.38 260.6C107.11 260.6 105.27 258.76 105.27 256.49C105.27 254.22 107.11 252.38 109.38 252.38C111.65 252.38 113.49 254.22 113.49 256.49C113.49 258.76 111.65 260.6 109.38 260.6Z" stroke="#898989" stroke-width="0.7" stroke-linecap="round" stroke-linejoin="round"/>
<path d="M187.58 118.68C189.85 118.68 191.69 116.84 191.69 114.57C191.69 112.3 189.85 110.46 187.58 110.46C185.31 110.46 183.47 112.3 183.47 114.57C183.47 116.84 185.31 118.68 187.58 118.68Z" stroke="#898989" stroke-width="0.7" stroke-linecap="round" stroke-linejoin="round"/>
<path d="M229.46 47.0901H231.41V55.7301C231.41 57.2301 231.24 58.4301 230.91 59.3101C230.57 60.1901 229.97 60.9101 229.09 61.4701C228.21 62.0301 227.07 62.3001 225.65 62.3001C224.23 62.3001 223.14 62.0601 222.26 61.5801C221.38 61.1001 220.75 60.4001 220.38 59.4801C220 58.5701 219.82 57.3201 219.82 55.7301V47.0901H221.77V55.7201C221.77 57.0201 221.89 57.9801 222.13 58.5901C222.37 59.2101 222.78 59.6801 223.36 60.0101C223.94 60.3401 224.65 60.5101 225.49 60.5101C226.92 60.5101 227.95 60.1801 228.56 59.5201C229.17 58.8601 229.48 57.5901 229.48 55.7101V47.0801L229.46 47.0901Z" stroke="#898989" stroke-width="0.7" stroke-linecap="round" stroke-linejoin="round"/>
<path d="M233.8 62.0401V47.0801H239.36C240.34 47.0801 241.09 47.1301 241.6 47.2201C242.32 47.3401 242.93 47.5801 243.42 47.9201C243.91 48.2601 244.3 48.7401 244.6 49.3601C244.9 49.9801 245.05 50.6601 245.05 51.4001C245.05 52.6701 244.65 53.7501 243.85 54.6301C243.05 55.5101 241.61 55.9501 239.53 55.9501H235.75V62.0301H233.8V62.0401ZM235.75 54.2001H239.56C240.82 54.2001 241.72 53.9601 242.25 53.4901C242.78 53.0101 243.04 52.3401 243.04 51.4801C243.04 50.8501 242.88 50.3201 242.57 49.8701C242.26 49.4201 241.85 49.1301 241.34 48.9901C241.01 48.9001 240.4 48.8601 239.52 48.8601H235.75V54.2101V54.2001Z" stroke="#898989" stroke-width="0.7" stroke-linecap="round" stroke-linejoin="round"/>
</g>
<path d="M35.6601 8.69332C35.4648 8.88858 35.4648 9.20517 35.6601 9.40043L38.8421 12.5824C39.0373 12.7777 39.3539 12.7777 39.5492 12.5824C39.7444 12.3871 39.7444 12.0706 39.5492 11.8753L36.7207 9.04687L39.5492 6.21845C39.7444 6.02319 39.7444 5.7066 39.5492 5.51134C39.3539 5.31608 39.0373 5.31608 38.8421 5.51134L35.6601 8.69332ZM261.854 9.40043C262.049 9.20517 262.049 8.88858 261.854 8.69332L258.672 5.51134C258.476 5.31608 258.16 5.31608 257.964 5.51134C257.769 5.7066 257.769 6.02319 257.964 6.21845L260.793 9.04687L257.964 11.8753C257.769 12.0706 257.769 12.3871 257.964 12.5824C258.16 12.7777 258.476 12.7777 258.672 12.5824L261.854 9.40043ZM36.0136 9.04688L36.0136 9.54688L261.5 9.54687L261.5 9.04687L261.5 8.54687L36.0136 8.54687L36.0136 9.04688Z" fill="black"/>
<line x1="35.5" y1="5" x2="35.5" y2="13.0939" stroke="black"/>
<line x1="262.5" y1="5" x2="262.5" y2="13.0939" stroke="black"/>
<ellipse cx="148.616" cy="8.59976" rx="8.61591" ry="8.59976" fill="black"/>
<path d="M145.272 13.0117L142.809 4.28445H144.51L146.082 10.6978H146.163L147.842 4.28445H149.389L151.072 10.7021H151.149L152.721 4.28445H154.421L151.958 13.0117H150.399L148.652 6.88814H148.583L146.832 13.0117H145.272Z" fill="white"/>
<defs>
<clipPath id="clip0_150_1357">
<rect width="226.83" height="235.85" fill="white" transform="translate(35 36)"/>
</clipPath>
</defs>
</svg>
