<svg xmlns="http://www.w3.org/2000/svg" width="1097" height="698" fill="none" viewBox="0 0 1097 698"><path fill="#fff" d="M0 0h1097v698H0z"/><path fill="#000" d="M182.146 66.646a.5.5 0 0 0 0 .708l3.182 3.182a.501.501 0 0 0 .708-.708L183.207 67l2.829-2.828a.5.5 0 0 0-.708-.707zm232.708.708a.5.5 0 0 0 0-.708l-3.182-3.181a.501.501 0 0 0-.708.707L413.793 67l-2.829 2.828a.5.5 0 0 0 .708.707zM182.5 67v.5h232v-1h-232z"/><path stroke="#000" d="M181.5 63v8M415.5 63v8"/><path fill="#000" d="M150.647 581.854a.5.5 0 0 0 .707 0l3.182-3.182a.5.5 0 0 0-.707-.708L151 580.793l-2.828-2.829a.5.5 0 0 0-.707.708zm.706-483.708a.5.5 0 0 0-.707 0l-3.182 3.182a.502.502 0 0 0 .708.708L151 99.207l2.828 2.829a.5.5 0 0 0 .707-.708zM151 581.5h.5v-483h-1v483z"/><path stroke="#000" d="M147 582.5h8M147 97.5h8"/><path fill="#000" d="M942.646 576.854a.5.5 0 0 0 .707 0l3.182-3.182a.5.5 0 1 0-.707-.708L943 575.793l-2.828-2.829a.502.502 0 0 0-.708.708zm.708-474.708a.5.5 0 0 0-.707 0l-3.182 3.182a.5.5 0 0 0 .707.708l2.829-2.829 2.828 2.829a.5.5 0 0 0 .707-.708zM943 576.5h.5l.001-474h-1l-.001 474z"/><path stroke="#000" d="M939 577.5h8M939 101.5h8"/><path fill="#000" d="M705.146 71.646a.5.5 0 0 0 0 .708l3.182 3.182a.501.501 0 0 0 .708-.708L706.207 72l2.829-2.828a.5.5 0 0 0-.708-.707zm207.708.708a.5.5 0 0 0 0-.708l-3.182-3.181a.501.501 0 0 0-.708.707L911.793 72l-2.829 2.828a.5.5 0 0 0 .708.707zM705.5 72v.5h207v-1h-207z"/><path stroke="#000" d="M704.5 68v8M913.5 68v8"/><path fill="#000" d="M528.146 66.646a.5.5 0 0 0 0 .708l3.182 3.182a.501.501 0 0 0 .708-.708L529.207 67l2.829-2.828a.5.5 0 0 0-.708-.707zm63.708.708a.5.5 0 0 0 0-.708l-3.182-3.181a.501.501 0 0 0-.708.707L590.793 67l-2.829 2.828a.5.5 0 0 0 .708.707zM528.5 67v.5h63v-1h-63z"/><path stroke="#000" d="M527.5 63v8M592.5 63v8"/><path fill="#000" d="M713.046 612.47h12.3v1.02h-12.3zm5.505.63h1.23v5.055h-1.23zm-3.93-7.755h9.15v5.295h-9.15zm7.92 1.005h-6.705v3.3h6.705zm14.654-1.755h1.2v13.575h-1.2zm-5.895 5.55h3.42v1.005h-3.42zm3.075-5.19h1.17v12.525h-1.17zm-2.91 1.365h1.2q0 1.77-.51 3.405a9.1 9.1 0 0 1-1.62 3.03q-1.125 1.395-2.955 2.49l-.72-.9q1.59-.96 2.61-2.16a8.2 8.2 0 0 0 1.5-2.625q.495-1.425.495-3.015zm-4.02 0h4.485v1.02h-4.485zm14.53 9.284a.92.92 0 0 1-.676-.282.92.92 0 0 1-.282-.676q0-.395.282-.677a.92.92 0 0 1 .676-.282q.395 0 .677.282a.92.92 0 0 1 .282.677.9.9 0 0 1-.133.479 1 1 0 0 1-.346.352.9.9 0 0 1-.48.127m0-5.518a.92.92 0 0 1-.676-.282.93.93 0 0 1-.282-.677q0-.394.282-.676a.92.92 0 0 1 .676-.283.92.92 0 0 1 .677.283.92.92 0 0 1 .282.676.9.9 0 0 1-.133.48 1 1 0 0 1-.346.351.9.9 0 0 1-.48.128m10.886-4.144q.67.005 1.342.255.671.25 1.225.831.554.576.89 1.572t.335 2.498q0 1.454-.277 2.583-.272 1.125-.788 1.897a3.5 3.5 0 0 1-1.247 1.172q-.73.399-1.651.399-.917 0-1.635-.362a3.2 3.2 0 0 1-1.172-1.017 3.55 3.55 0 0 1-.581-1.519h1.3q.176.751.698 1.242.527.484 1.39.484 1.263 0 1.992-1.102.735-1.103.735-3.116h-.085a3.4 3.4 0 0 1-.708.772 3.14 3.14 0 0 1-1.976.676 3.3 3.3 0 0 1-1.721-.463 3.5 3.5 0 0 1-1.246-1.284q-.464-.82-.464-1.875 0-1 .448-1.832a3.45 3.45 0 0 1 1.267-1.332q.82-.495 1.929-.479m0 1.172q-.672 0-1.21.335-.532.33-.847.895a2.5 2.5 0 0 0-.308 1.241q0 .682.298 1.241.303.554.825.885.528.324 1.199.325.506 0 .943-.198.437-.202.762-.548.33-.352.516-.794.187-.447.187-.932 0-.64-.309-1.199a2.46 2.46 0 0 0-.842-.905 2.18 2.18 0 0 0-1.214-.346m9.445 10.035q-1.203 0-2.051-.655-.846-.66-1.294-1.912-.447-1.257-.447-3.037 0-1.768.447-3.02.453-1.257 1.3-1.917.852-.666 2.045-.666t2.04.666q.852.66 1.3 1.917.453 1.252.453 3.02 0 1.78-.448 3.037-.447 1.251-1.294 1.912-.847.655-2.051.655m0-1.172q1.194 0 1.854-1.15t.66-3.282q0-1.416-.303-2.413-.299-.996-.863-1.518a1.9 1.9 0 0 0-1.348-.522q-1.182 0-1.848 1.167-.666 1.162-.666 3.286 0 1.418.298 2.408.299.991.858 1.508.564.516 1.358.516m13.36 4.262q-.912 0-1.567-.235a3.3 3.3 0 0 1-1.091-.607 3.3 3.3 0 0 1-.688-.799l1.002-.703q.17.223.431.511.261.294.714.506.458.219 1.199.219.99 0 1.635-.48.644-.479.644-1.502v-1.662h-.106a7 7 0 0 1-.394.554q-.25.325-.725.581-.468.25-1.268.25-.99 0-1.779-.469-.783-.468-1.241-1.363-.453-.895-.453-2.174 0-1.256.443-2.189.441-.937 1.23-1.449.789-.516 1.822-.516.798 0 1.268.266.474.261.724.597.255.33.394.543h.128v-1.3h1.214v8.416q0 1.055-.479 1.716a2.73 2.73 0 0 1-1.278.974 4.8 4.8 0 0 1-1.779.315m-.043-4.496q.756 0 1.278-.346t.794-.996.272-1.556q0-.884-.267-1.561a2.34 2.34 0 0 0-.788-1.06q-.522-.383-1.289-.383-.8 0-1.332.405-.527.405-.793 1.086a4.2 4.2 0 0 0-.261 1.513q0 .852.266 1.508.271.65.799 1.022.532.368 1.321.368m10.547-3.345q0-2.014.522-3.702.527-1.695 1.502-3.116h1.108a7 7 0 0 0-.719 1.299q-.33.767-.581 1.689a16 16 0 0 0-.394 1.896 14 14 0 0 0-.138 1.934q0 1.267.245 2.573.245 1.304.66 2.423t.927 1.822h-1.108a11.5 11.5 0 0 1-1.502-3.111q-.522-1.694-.522-3.707m8.021-.948h1.245v3.225h-1.245zm.615-5.97q1.035 0 1.845.405.81.39 1.275 1.11t.465 1.68q0 .93-.465 1.665a3.17 3.17 0 0 1-1.275 1.125q-.81.39-1.845.39-1.05 0-1.86-.39a3.17 3.17 0 0 1-1.275-1.125 3.05 3.05 0 0 1-.465-1.665q0-.96.465-1.68t1.275-1.11q.81-.405 1.86-.405m0 1.065q-.69 0-1.23.27-.54.255-.855.735-.3.48-.3 1.125 0 .63.3 1.11.315.48.855.75t1.23.27 1.215-.27q.54-.27.84-.75.315-.48.315-1.11a2 2 0 0 0-1.155-1.86q-.525-.27-1.215-.27m5.13-1.95h1.23v13.575h-1.23zm.885 5.595h2.505v1.05h-2.505zm-10.035 5.04-.195-1.035 2.67-.03q1.455-.015 2.94-.105 1.5-.09 2.88-.27l.09.93q-1.425.24-2.91.36-1.485.105-2.895.135-1.395.015-2.58.015m23.684-10.635h1.245v13.59h-1.245zm-2.94 2.955h3.6v1.035h-3.6zm0 3.36h3.6v1.05h-3.6zm-3.48-5.145h1.02v2.43q0 1.125-.285 2.22a9.2 9.2 0 0 1-.795 2.025 7.6 7.6 0 0 1-1.185 1.68q-.675.735-1.485 1.17l-.78-.99q.75-.36 1.38-1.005.645-.645 1.125-1.47.48-.84.735-1.755.27-.93.27-1.875zm.255 0h1.005v2.43q0 .915.255 1.83.27.9.75 1.695t1.11 1.41q.645.615 1.38.975l-.75 1.005a5.8 5.8 0 0 1-1.515-1.125 8.3 8.3 0 0 1-1.185-1.635q-.495-.915-.78-1.98a8.8 8.8 0 0 1-.27-2.175zm14.973-.285h6.33v5.535h-6.33zm5.115.99h-3.9v3.555h3.9zm4.05-1.875h1.245v7.785h-1.245zm-3.69 9.405h1.065v.255q0 .735-.42 1.38-.405.63-1.125 1.155-.72.51-1.65.84a9.6 9.6 0 0 1-1.95.495l-.435-.96a8.7 8.7 0 0 0 2.61-.75q.57-.285.99-.63.435-.345.675-.735a1.5 1.5 0 0 0 .24-.795zm.195 0h1.08v.255q0 .48.36.96t.975.885q.63.39 1.425.675.81.285 1.695.39l-.435.96q-1.035-.15-1.95-.495a6.9 6.9 0 0 1-1.635-.87q-.705-.525-1.11-1.155-.405-.645-.405-1.35zm-4.17-.69h9.225v.96h-9.225zm3.99-1.32h1.26v1.755h-1.26zm13.442-7.185h1.23v1.275h6.57v-1.275h1.23v4.485h-9.03zm1.23 2.22v1.29h6.57v-1.29zm-2.85 3.57h12.255v1.005H840.59zm5.49-1.77h1.23v2.085h-1.23zm-4.005 3.885h9.195v3.03h-7.95v1.665h-1.215v-2.565h7.95v-1.185h-7.98zm.03 4.335h9.57v.975h-9.57zm13.859-5.13h9.315v1.005h-9.315zm-1.575 3.465h12.3v1.035h-12.3zm1.575-9.615h9.18v1.02h-7.92v5.43h-1.26zm.87 3.015h8.01v1.005h-8.01zm15.573 6.66h12.3v1.05h-12.3zm5.49-3.51h1.23v3.975h-1.23zm-4.41-6.03h10.065v1.02h-10.065zm.03 5.46h10.005v.99h-10.005zm2.07-4.65h1.245v4.815h-1.245zm4.62 0h1.23v4.815h-1.23zm15.284-2.115h1.245v8.175h-1.245zm.9 3.6h2.34v1.05h-2.34zm-8.175 5.34h8.52v4.455h-8.52zm7.29 1.005h-6.075v2.43h6.075zm-9.27-8.505h8.01v1.005h-8.01zm4.005 1.68q.975 0 1.695.3.735.3 1.14.855.405.54.405 1.26 0 .735-.405 1.275t-1.14.84q-.72.3-1.695.3t-1.71-.3q-.72-.3-1.14-.84a2.07 2.07 0 0 1-.405-1.275q0-.72.405-1.26.42-.555 1.14-.855.735-.3 1.71-.3m0 .96q-.93 0-1.5.39-.555.39-.555 1.065t.555 1.08q.57.39 1.5.39.915 0 1.485-.39.57-.405.57-1.08t-.57-1.065q-.555-.39-1.485-.39m-.615-4.185h1.245v2.055h-1.245zm13.464 7.908q0 2.013-.528 3.707a11.4 11.4 0 0 1-1.497 3.111h-1.107q.383-.528.713-1.3.336-.767.586-1.683a15 15 0 0 0 .389-1.902 13.4 13.4 0 0 0-.101-4.506 15 15 0 0 0-.661-2.424q-.416-1.118-.926-1.821h1.107q.975 1.421 1.497 3.116.528 1.688.528 3.702M512.784 35.635h9.06v1.02h-9.06zm-1.695 2.79h12.3v1.02h-12.3zm5.505.57h1.23v5.13h-1.23zm-3.81-7.605h8.88v1.02h-7.62v3.72h-1.26zm14.384.84h1.065q0 1.08-.105 2.22-.09 1.125-.345 2.25-.24 1.11-.705 2.19-.45 1.08-1.185 2.07l-.975-.57q.705-.9 1.14-1.875.45-.975.69-1.995.24-1.035.33-2.085.09-1.065.09-2.115zm-1.965 0h2.58v1.02h-2.58zm4.95 0h1.065q0 1.065-.075 2.28-.06 1.215-.285 2.49a13 13 0 0 1-.675 2.505 9.6 9.6 0 0 1-1.275 2.325l-.975-.57q.615-.81 1.02-1.695.42-.9.66-1.83.24-.945.36-1.86.12-.93.15-1.83t.03-1.725zm-1.485 0h2.145v1.02h-2.145zm6.615-1.635h1.2V44.17h-1.2zm-4.695 5.325h2.445v1.035h-2.445zm2.19-4.965h1.17V43.48h-1.17zm7.241 10.65a.93.93 0 0 1-.677-.283.92.92 0 0 1-.282-.676q0-.395.282-.677a.93.93 0 0 1 .677-.282q.394 0 .676.282a.92.92 0 0 1 .283.677.9.9 0 0 1-.133.479 1 1 0 0 1-.347.352.9.9 0 0 1-.479.127m0-5.52a.93.93 0 0 1-.677-.281.92.92 0 0 1-.282-.677q0-.394.282-.676a.93.93 0 0 1 .677-.283q.394 0 .676.283a.92.92 0 0 1 .283.676.9.9 0 0 1-.133.48 1 1 0 0 1-.347.351.9.9 0 0 1-.479.128M547.431 43v-.959l3.601-3.942q.633-.692 1.044-1.203.41-.517.607-.97.203-.458.203-.959 0-.575-.277-.996a1.8 1.8 0 0 0-.746-.65 2.4 2.4 0 0 0-1.066-.229 2.2 2.2 0 0 0-1.097.261 1.8 1.8 0 0 0-.719.72q-.25.462-.25 1.086h-1.257q0-.96.442-1.683.442-.725 1.204-1.13a3.6 3.6 0 0 1 1.72-.404q.959 0 1.699.405.74.404 1.162 1.092.42.687.42 1.528 0 .602-.218 1.178-.213.57-.746 1.273a23 23 0 0 1-1.465 1.704l-2.45 2.62v.086h5.071V43zm12.768.15q-1.055 0-1.88-.363-.82-.362-1.305-1.007a2.7 2.7 0 0 1-.522-1.507h1.342q.042.527.362.91.32.379.837.587t1.145.207q.703 0 1.246-.245a2.05 2.05 0 0 0 .853-.682q.308-.435.308-1.012 0-.6-.298-1.06-.298-.463-.873-.724-.576-.261-1.407-.261h-.873V36.82h.873q.651 0 1.14-.234a1.83 1.83 0 0 0 .773-.66q.282-.427.282-1.002 0-.555-.245-.964a1.67 1.67 0 0 0-.693-.64q-.441-.228-1.044-.229-.564 0-1.065.208-.495.203-.81.591a1.54 1.54 0 0 0-.34.927h-1.279a2.6 2.6 0 0 1 .517-1.502q.485-.65 1.268-1.012a4.1 4.1 0 0 1 1.731-.362q1.011 0 1.736.41.724.405 1.114 1.07.388.667.388 1.439 0 .921-.484 1.571a2.46 2.46 0 0 1-1.305.9v.086q1.033.17 1.614.879.58.703.58 1.741 0 .89-.485 1.598a3.3 3.3 0 0 1-1.31 1.108q-.83.405-1.891.405m6.465-.065a.92.92 0 0 1-.676-.282.92.92 0 0 1-.282-.677q0-.393.282-.676a.92.92 0 0 1 .676-.282q.395 0 .677.282a.92.92 0 0 1 .282.676.997.997 0 0 1-.479.831.9.9 0 0 1-.48.128m2.938-2.322v-1.087l4.794-7.585h.788v1.683h-.532l-3.622 5.732v.085h6.456v1.172zM574.737 43V32.091h1.257V43zm8.985 0v-8.182h1.214v1.279h.107q.255-.655.826-1.018.57-.367 1.368-.367.81 0 1.348.367.543.362.847 1.018h.085q.315-.635.943-1.007.629-.378 1.508-.378 1.096 0 1.795.687.697.681.697 2.125V43h-1.257v-5.476q0-.906-.495-1.294a1.83 1.83 0 0 0-1.167-.39q-.862 0-1.337.523-.474.516-.474 1.31V43h-1.278v-5.604q0-.698-.453-1.124-.453-.43-1.166-.431-.49 0-.917.26-.42.262-.681.725a2.13 2.13 0 0 0-.256 1.06V43zm13.037 0v-8.182h1.214v1.279h.107q.255-.655.826-1.018.57-.367 1.369-.367.81 0 1.347.367.543.362.847 1.018h.085q.315-.635.943-1.007.629-.378 1.508-.378 1.097 0 1.795.687.698.681.698 2.125V43h-1.257v-5.476q0-.906-.496-1.294a1.83 1.83 0 0 0-1.166-.39q-.863 0-1.337.523-.475.516-.475 1.31V43h-1.278v-5.604q0-.698-.453-1.124-.453-.43-1.166-.431-.49 0-.916.26a1.97 1.97 0 0 0-.682.725 2.13 2.13 0 0 0-.256 1.06V43zM259.129 30.595h1.245v13.56h-1.245zm.915 5.505h2.49v1.035h-2.49zm-4.38-4.05h1.215q0 1.935-.63 3.705-.63 1.755-1.98 3.255-1.35 1.485-3.555 2.58l-.69-.96q1.89-.945 3.135-2.205 1.26-1.275 1.875-2.82.63-1.56.63-3.36zm-5.01 0h5.64v1.035h-5.64zm13.094 9.405h12.3v1.035h-12.3zm5.505-2.895h1.23v3.33h-1.23zm-4.005-6.96h9.27v4.11h-8.01v2.715h-1.23V34.72h8.01v-2.1h-8.04zm.03 6.3h9.555v1.02h-9.555zm13.585 3.704a.92.92 0 0 1-.676-.282.92.92 0 0 1-.283-.676.92.92 0 0 1 .283-.677.92.92 0 0 1 .676-.282q.394 0 .677.282a.92.92 0 0 1 .282.677.997.997 0 0 1-.479.831.9.9 0 0 1-.48.127m0-5.518a.92.92 0 0 1-.676-.282.92.92 0 0 1-.283-.677.92.92 0 0 1 .283-.676.92.92 0 0 1 .676-.283q.394 0 .677.283a.92.92 0 0 1 .282.676.997.997 0 0 1-.479.831.9.9 0 0 1-.48.128m10.907 7.063q-1.098 0-1.939-.389-.837-.394-1.305-1.081a2.7 2.7 0 0 1-.464-1.577 2.9 2.9 0 0 1 1.028-2.264 2.3 2.3 0 0 1 1.082-.506v-.063a2.1 2.1 0 0 1-1.247-.88 2.66 2.66 0 0 1-.458-1.55 2.63 2.63 0 0 1 .421-1.486 2.96 2.96 0 0 1 1.172-1.033q.75-.378 1.71-.378.948 0 1.693.378t1.172 1.033q.432.655.437 1.486a2.7 2.7 0 0 1-.474 1.55 2.1 2.1 0 0 1-1.23.88v.063q.591.107 1.065.506.474.395.756.986.283.586.288 1.278a2.76 2.76 0 0 1-.479 1.577q-.47.688-1.305 1.081-.831.39-1.923.39m0-1.172q.74 0 1.278-.24a1.9 1.9 0 0 0 .831-.676q.293-.437.298-1.023a1.96 1.96 0 0 0-.319-1.092 2.2 2.2 0 0 0-.858-.745 2.7 2.7 0 0 0-1.23-.272q-.698 0-1.247.272-.543.271-.857.745a1.9 1.9 0 0 0-.304 1.092q-.006.586.282 1.023a1.9 1.9 0 0 0 .837.677q.543.24 1.289.24m0-5.177q.585 0 1.038-.235.458-.234.719-.655.261-.42.267-.985a1.83 1.83 0 0 0-.261-.964 1.7 1.7 0 0 0-.709-.64 2.3 2.3 0 0 0-1.054-.229q-.613 0-1.071.23-.458.223-.709.639a1.8 1.8 0 0 0-.245.964q-.005.564.251.985.26.421.719.655t1.055.235m5.748 6.2v-.959l3.601-3.942q.635-.692 1.044-1.203.41-.517.608-.97.202-.458.202-.959 0-.575-.277-.996a1.8 1.8 0 0 0-.746-.65 2.4 2.4 0 0 0-1.065-.229q-.629 0-1.097.261-.464.255-.72.72-.25.462-.25 1.086h-1.257q0-.96.442-1.683.442-.725 1.204-1.13a3.6 3.6 0 0 1 1.721-.404q.958 0 1.699.405.74.404 1.161 1.092.42.687.421 1.528 0 .602-.219 1.178-.213.57-.745 1.273-.528.698-1.465 1.704l-2.45 2.62v.086h5.071V43zm10.02.085a.93.93 0 0 1-.677-.282.92.92 0 0 1-.282-.677q0-.393.282-.676a.93.93 0 0 1 .677-.282q.394 0 .676.282a.92.92 0 0 1 .283.676.9.9 0 0 1-.133.48 1 1 0 0 1-.347.351.9.9 0 0 1-.479.128m6.383.064a3.75 3.75 0 0 1-1.689-.373 3.14 3.14 0 0 1-1.204-1.022 2.8 2.8 0 0 1-.495-1.481h1.278q.075.74.671 1.225.602.48 1.439.48.67 0 1.193-.315.527-.315.825-.863.304-.554.304-1.252 0-.714-.314-1.273a2.3 2.3 0 0 0-.852-.89 2.4 2.4 0 0 0-1.242-.33 3.4 3.4 0 0 0-1.028.155 2.9 2.9 0 0 0-.868.4l-1.236-.15.661-5.37h5.667v1.173h-4.559l-.384 3.217h.064q.336-.266.842-.442a3.2 3.2 0 0 1 1.055-.176q1 0 1.784.48.788.474 1.236 1.3.453.825.453 1.885 0 1.044-.469 1.864a3.4 3.4 0 0 1-1.279 1.29q-.815.468-1.853.468m9.957-.149v-8.182h1.214v1.279h.107q.255-.655.825-1.018.57-.367 1.369-.367.81 0 1.348.367.543.362.847 1.018h.085q.315-.635.943-1.007.628-.378 1.507-.378 1.098 0 1.795.687.698.681.698 2.125V43h-1.257v-5.476q0-.906-.495-1.294a1.83 1.83 0 0 0-1.167-.39q-.863 0-1.337.523-.474.516-.474 1.31V43h-1.278v-5.604q0-.698-.453-1.124-.453-.43-1.167-.431-.49 0-.916.26-.42.262-.682.725-.255.46-.255 1.06V43zm13.037 0v-8.182h1.214v1.279h.107q.255-.655.825-1.018.57-.367 1.369-.367.81 0 1.348.367.543.362.847 1.018h.085q.315-.635.943-1.007.629-.378 1.507-.378 1.098 0 1.796.687.697.681.697 2.125V43h-1.257v-5.476q0-.906-.495-1.294a1.83 1.83 0 0 0-1.167-.39q-.863 0-1.337.523-.474.516-.474 1.31V43h-1.278v-5.604q0-.698-.453-1.124-.453-.43-1.166-.431-.49 0-.917.26-.42.262-.681.725a2.13 2.13 0 0 0-.256 1.06V43zM770.29 35.595h1.245v13.56h-1.245zm.915 5.505h2.49v1.035h-2.49zm-4.38-4.05h1.215q0 1.935-.63 3.705-.63 1.755-1.98 3.255-1.35 1.485-3.555 2.58l-.69-.96q1.89-.945 3.135-2.205 1.26-1.275 1.875-2.82.63-1.56.63-3.36zm-5.01 0h5.64v1.035h-5.64zm13.094 9.405h12.3v1.035h-12.3zm5.505-2.895h1.23v3.33h-1.23zm-4.005-6.96h9.27v4.11h-8.01v2.715h-1.23V39.72h8.01v-2.1h-8.04zm.03 6.3h9.555v1.02h-9.555zm13.585 3.704a.92.92 0 0 1-.676-.282.92.92 0 0 1-.283-.676q0-.395.283-.677a.92.92 0 0 1 .676-.282q.395 0 .677.282a.92.92 0 0 1 .282.677.997.997 0 0 1-.479.831.9.9 0 0 1-.48.127m0-5.518a.92.92 0 0 1-.676-.282.92.92 0 0 1-.283-.677q0-.394.283-.676a.92.92 0 0 1 .676-.283q.395 0 .677.283a.92.92 0 0 1 .282.676.997.997 0 0 1-.479.831.9.9 0 0 1-.48.128M797.777 48l4.88-9.652v-.085h-5.625V37.09h6.988v1.236L799.162 48zm8.229 0v-.959l3.601-3.942q.633-.692 1.044-1.203.41-.517.607-.97.202-.458.202-.959 0-.575-.277-.996a1.8 1.8 0 0 0-.745-.65 2.4 2.4 0 0 0-1.066-.229q-.629 0-1.097.261-.464.255-.719.72a2.25 2.25 0 0 0-.251 1.086h-1.257q0-.96.442-1.683.442-.725 1.204-1.13a3.6 3.6 0 0 1 1.721-.404q.958 0 1.699.405.741.404 1.161 1.092.421.687.421 1.528 0 .602-.218 1.178-.213.57-.746 1.273-.528.698-1.465 1.704l-2.45 2.62v.086h5.071V48zm10.019.085a.92.92 0 0 1-.676-.282.92.92 0 0 1-.283-.677q0-.393.283-.676a.92.92 0 0 1 .676-.282q.395 0 .677.282a.92.92 0 0 1 .282.676.997.997 0 0 1-.479.831.9.9 0 0 1-.48.128m6.564-11.143a3.9 3.9 0 0 1 1.342.255q.671.25 1.226.831.553.576.889 1.572t.336 2.498q0 1.454-.277 2.584-.272 1.123-.789 1.896a3.5 3.5 0 0 1-1.246 1.172q-.73.4-1.651.4-.916 0-1.636-.363a3.2 3.2 0 0 1-1.172-1.017 3.55 3.55 0 0 1-.58-1.519h1.3q.175.752.697 1.242.528.484 1.391.484 1.261 0 1.992-1.102.735-1.102.735-3.117h-.085a3.3 3.3 0 0 1-.709.773 3.1 3.1 0 0 1-.911.5 3.2 3.2 0 0 1-1.065.176 3.3 3.3 0 0 1-1.721-.463 3.5 3.5 0 0 1-1.246-1.284q-.463-.82-.463-1.875 0-1 .447-1.832a3.46 3.46 0 0 1 1.268-1.332q.82-.495 1.928-.48m0 1.172q-.67 0-1.209.335-.533.33-.847.895a2.5 2.5 0 0 0-.309 1.241q0 .682.298 1.241.304.554.826.885.528.325 1.198.325.507 0 .943-.198a2.5 2.5 0 0 0 .762-.548 2.7 2.7 0 0 0 .517-.794q.186-.447.186-.932a2.44 2.44 0 0 0-.309-1.199 2.45 2.45 0 0 0-.841-.905 2.2 2.2 0 0 0-1.215-.346M832.716 48v-8.182h1.215v1.279h.107q.255-.655.825-1.018.57-.367 1.369-.367.81 0 1.348.367.543.362.847 1.018h.085q.314-.635.943-1.007.628-.378 1.507-.378 1.098 0 1.795.687.698.681.698 2.125V48h-1.257v-5.476q0-.906-.495-1.294a1.84 1.84 0 0 0-1.167-.39q-.863 0-1.337.523-.474.516-.474 1.31V48h-1.278v-5.604q0-.698-.453-1.124-.453-.43-1.167-.431-.49 0-.916.26-.42.262-.682.725-.255.46-.255 1.06V48zm13.038 0v-8.182h1.214v1.279h.107q.255-.655.825-1.018.57-.367 1.369-.367.81 0 1.348.367.543.362.847 1.018h.085q.315-.635.943-1.007.628-.378 1.507-.378 1.098 0 1.795.687.698.681.698 2.125V48h-1.257v-5.476q0-.906-.495-1.294a1.84 1.84 0 0 0-1.167-.39q-.863 0-1.337.523-.474.516-.474 1.31V48h-1.278v-5.604q0-.698-.453-1.124-.453-.43-1.167-.431-.49 0-.916.26-.42.262-.682.725-.255.46-.255 1.06V48zM48.213 338.455h2.61v1.035h-2.61zm-2.52-3.585h.975v2.595q0 1.05-.225 2.07-.21 1.02-.63 1.92-.405.9-.99 1.62t-1.32 1.17l-.78-.93q.69-.42 1.245-1.05t.93-1.41q.39-.795.585-1.65.21-.87.21-1.74zm.24 0h.96v2.55q0 .81.18 1.635.195.81.54 1.56.36.735.885 1.35t1.185 1.02l-.705.96q-.735-.45-1.305-1.14a7.1 7.1 0 0 1-.96-1.575 9 9 0 0 1-.585-1.86 10 10 0 0 1-.195-1.95zm7.275-1.275h1.2v13.575h-1.2zm-2.76.285h1.17v12.6h-1.17zm6.223 10.575h12.3v1.035h-12.3zm5.505-2.895h1.23v3.33h-1.23zm-4.005-6.96h9.27v4.11h-8.01v2.715h-1.23v-3.705h8.01v-2.1h-8.04zm.03 6.3h9.555v1.02h-9.555zm13.586 3.704a.92.92 0 0 1-.677-.282.92.92 0 0 1-.282-.676q0-.395.282-.677a.92.92 0 0 1 .677-.282q.394 0 .676.282a.92.92 0 0 1 .283.677.9.9 0 0 1-.133.479 1 1 0 0 1-.347.352.9.9 0 0 1-.479.127m0-5.518a.92.92 0 0 1-.677-.282.93.93 0 0 1-.282-.677q0-.394.282-.676a.92.92 0 0 1 .677-.283.92.92 0 0 1 .676.283.92.92 0 0 1 .283.676.9.9 0 0 1-.133.48 1 1 0 0 1-.347.351.9.9 0 0 1-.479.128m11.247-3.995V346h-1.32v-9.524h-.065l-2.663 1.768v-1.342l2.727-1.811zM86.513 346l4.879-9.652v-.085h-5.625v-1.172h6.989v1.236L87.898 346zm12.063-10.909V346h-1.32v-9.524h-.065l-2.663 1.768v-1.342l2.727-1.811zM105.954 346v-8.182h1.214v1.279h.107q.255-.655.825-1.018.57-.367 1.369-.367.81 0 1.348.367.543.363.847 1.018h.085q.315-.635.943-1.007.629-.378 1.508-.378 1.096 0 1.795.687.697.682.697 2.125V346h-1.257v-5.476q0-.906-.495-1.294a1.84 1.84 0 0 0-1.167-.389q-.863 0-1.337.522-.474.516-.474 1.31V346h-1.278v-5.604q0-.698-.453-1.124-.453-.43-1.166-.431-.49 0-.917.261-.42.26-.681.724a2.13 2.13 0 0 0-.256 1.06V346zm13.037 0v-8.182h1.214v1.279h.107q.256-.655.826-1.018.57-.367 1.369-.367.81 0 1.347.367.543.363.847 1.018h.085q.315-.635.943-1.007.629-.378 1.508-.378 1.097 0 1.795.687.698.682.698 2.125V346h-1.258v-5.476q0-.906-.495-1.294a1.83 1.83 0 0 0-1.166-.389q-.863 0-1.337.522-.475.516-.475 1.31V346h-1.278v-5.604q0-.698-.453-1.124-.453-.43-1.166-.431-.49 0-.916.261a1.97 1.97 0 0 0-.682.724 2.13 2.13 0 0 0-.256 1.06V346zM969.491 337.455h2.61v1.035h-2.61zm-2.52-3.585h.975v2.595q0 1.05-.225 2.07-.21 1.02-.63 1.92-.405.9-.99 1.62t-1.32 1.17l-.78-.93q.69-.42 1.245-1.05t.93-1.41q.39-.795.585-1.65.21-.87.21-1.74zm.24 0h.96v2.55q0 .81.18 1.635.195.81.54 1.56.36.735.885 1.35t1.185 1.02l-.705.96q-.735-.45-1.305-1.14a7.1 7.1 0 0 1-.96-1.575 9 9 0 0 1-.585-1.86 10 10 0 0 1-.195-1.95zm7.275-1.275h1.2v13.575h-1.2zm-2.76.285h1.17v12.6h-1.17zm6.224 10.575h12.3v1.035h-12.3zm5.505-2.895h1.23v3.33h-1.23zm-4.005-6.96h9.27v4.11h-8.01v2.715h-1.23v-3.705h8.01v-2.1h-8.04zm.03 6.3h9.555v1.02h-9.555zm13.586 3.704a.93.93 0 0 1-.677-.282.92.92 0 0 1-.282-.676q0-.395.282-.677a.93.93 0 0 1 .677-.282q.394 0 .676.282a.93.93 0 0 1 .283.677.9.9 0 0 1-.134.479 1 1 0 0 1-.346.352.9.9 0 0 1-.479.127m0-5.518a.93.93 0 0 1-.677-.282.93.93 0 0 1-.282-.677q0-.394.282-.676a.92.92 0 0 1 .677-.283q.394 0 .676.283a.92.92 0 0 1 .283.676.9.9 0 0 1-.134.48 1 1 0 0 1-.346.351.9.9 0 0 1-.479.128m11.244-3.995V345h-1.32v-9.524h-.06l-2.67 1.768v-1.342l2.73-1.811zm6.76 11.058a4.1 4.1 0 0 1-1.34-.256 3.1 3.1 0 0 1-1.22-.825c-.37-.391-.67-.918-.89-1.582-.23-.668-.34-1.506-.34-2.514q0-1.449.27-2.568c.18-.749.45-1.379.79-1.891.34-.515.76-.905 1.25-1.172a3.4 3.4 0 0 1 1.65-.399c.61 0 1.16.122 1.63.367.48.242.87.579 1.18 1.012.3.434.49.933.58 1.497h-1.3a2.4 2.4 0 0 0-.7-1.22c-.35-.323-.81-.484-1.39-.484-.84 0-1.51.367-1.99 1.102-.49.735-.73 1.767-.73 3.095h.08c.2-.302.44-.559.71-.772.28-.217.58-.384.92-.501.33-.117.68-.176 1.06-.176q.93 0 1.71.469c.52.309.93.737 1.25 1.284.31.543.47 1.166.47 1.869 0 .675-.15 1.293-.46 1.854-.3.558-.72 1.001-1.27 1.332q-.81.49-1.92.479m0-1.172c.45 0 .85-.112 1.21-.335q.54-.336.84-.901c.21-.376.32-.795.32-1.257 0-.451-.1-.861-.31-1.23a2.25 2.25 0 0 0-.82-.89c-.35-.22-.75-.33-1.19-.33-.34 0-.66.068-.95.203-.29.131-.54.312-.76.543a2.7 2.7 0 0 0-.52.794q-.18.441-.18.932 0 .65.3 1.214.315.565.84.911c.36.231.77.346 1.22.346m5.49-1.214v-1.087l4.79-7.585h.79v1.683h-.54l-3.62 5.732v.085h6.46v1.172zm5.13 2.237v-10.909h1.26V345zm8.98 0v-8.182h1.22v1.279h.11c.17-.437.44-.776.82-1.018.38-.245.84-.367 1.37-.367q.81 0 1.35.367c.36.242.64.581.85 1.018h.08c.21-.423.52-.759.94-1.007.42-.252.92-.378 1.51-.378q1.095 0 1.8.687.69.682.69 2.125V345h-1.25v-5.476c0-.604-.17-1.035-.5-1.294a1.84 1.84 0 0 0-1.17-.389c-.57 0-1.02.174-1.33.522q-.48.516-.48 1.31V345h-1.27v-5.604c0-.465-.16-.84-.46-1.124-.3-.287-.69-.431-1.16-.431-.33 0-.64.087-.92.261s-.51.415-.68.724c-.17.306-.26.659-.26 1.06V345zm13.04 0v-8.182h1.22v1.279h.1c.17-.437.45-.776.83-1.018.38-.245.84-.367 1.37-.367q.81 0 1.35.367.54.363.84 1.018h.09c.21-.423.52-.759.94-1.007.42-.252.92-.378 1.51-.378.73 0 1.33.229 1.79.687.47.454.7 1.163.7 2.125V345h-1.26v-5.476c0-.604-.16-1.035-.49-1.294a1.84 1.84 0 0 0-1.17-.389c-.57 0-1.02.174-1.34.522-.31.344-.47.781-.47 1.31V345h-1.28v-5.604q0-.698-.45-1.124-.45-.43-1.17-.431c-.32 0-.63.087-.91.261q-.42.26-.69.724c-.17.306-.25.659-.25 1.06V345zM227.735 614.47h12.3v1.02h-12.3zm5.505.63h1.23v5.055h-1.23zm-3.93-7.755h9.15v5.295h-9.15zm7.92 1.005h-6.705v3.3h6.705zm14.654-1.755h1.2v13.575h-1.2zm-5.895 5.55h3.42v1.005h-3.42zm3.075-5.19h1.17v12.525h-1.17zm-2.91 1.365h1.2q0 1.77-.51 3.405a9.1 9.1 0 0 1-1.62 3.03q-1.125 1.395-2.955 2.49l-.72-.9q1.59-.96 2.61-2.16a8.2 8.2 0 0 0 1.5-2.625q.495-1.425.495-3.015zm-4.02 0h4.485v1.02h-4.485zm-10.915 29.569q-.645 0-1.177-.314a2.44 2.44 0 0 1-.853-.852 2.3 2.3 0 0 1-.314-1.178q0-.65.314-1.177.32-.532.853-.847a2.24 2.24 0 0 1 1.177-.319q.65 0 1.177.319.532.315.847.847.32.528.319 1.177 0 .645-.319 1.178-.315.533-.847.852a2.26 2.26 0 0 1-1.177.314m9.758 3.111v-10.909h3.814q1.14 0 1.881.394.74.389 1.102 1.049.363.655.362 1.455 0 .702-.25 1.161-.245.458-.65.724a3 3 0 0 1-.868.394v.107q.5.031 1.007.352.505.32.847.916.34.596.34 1.459 0 .82-.372 1.476-.373.656-1.178 1.038-.804.384-2.093.384zm1.321-1.172h2.621q1.295 0 1.838-.501.548-.505.548-1.225 0-.554-.282-1.022a2.03 2.03 0 0 0-.804-.757q-.522-.288-1.236-.287h-2.685zm0-4.943h2.451q.596 0 1.076-.234.484-.235.767-.661.287-.426.287-1.001 0-.72-.5-1.22-.5-.506-1.588-.506h-2.493zm14.401-2.067a1.67 1.67 0 0 0-.778-1.257q-.682-.447-1.672-.447-.725 0-1.268.234a2 2 0 0 0-.842.645 1.55 1.55 0 0 0-.298.932q0 .436.208.751.213.309.543.516.33.202.693.336.362.128.665.208l1.108.298q.427.113.949.309.527.197 1.006.538.485.336.799.863.315.528.315 1.294 0 .885-.464 1.598-.458.714-1.342 1.135-.879.42-2.136.421-1.172 0-2.03-.378-.852-.379-1.342-1.055a3 3 0 0 1-.549-1.571h1.364q.053.617.416 1.022.367.4.926.597.566.192 1.215.192a3.6 3.6 0 0 0 1.358-.245q.601-.25.954-.693.351-.447.351-1.044 0-.543-.303-.884a2.2 2.2 0 0 0-.799-.554 8 8 0 0 0-1.071-.373l-1.342-.384q-1.279-.367-2.025-1.049-.745-.681-.745-1.784 0-.917.495-1.598a3.3 3.3 0 0 1 1.342-1.066q.847-.383 1.891-.383 1.054 0 1.875.378.82.373 1.3 1.023.485.65.511 1.475zm7.094 8.331q-1.055 0-1.88-.362-.82-.362-1.305-1.007a2.7 2.7 0 0 1-.523-1.507h1.343q.042.527.362.911a2.1 2.1 0 0 0 .836.586 3.1 3.1 0 0 0 1.146.207q.703 0 1.246-.245.543-.244.852-.682.309-.436.309-1.012a1.9 1.9 0 0 0-.298-1.06q-.298-.463-.874-.724-.575-.261-1.406-.261h-.873v-1.172h.873a2.6 2.6 0 0 0 1.14-.234q.496-.235.772-.661.283-.426.283-1.001 0-.555-.245-.964a1.7 1.7 0 0 0-.693-.64 2.25 2.25 0 0 0-1.044-.229q-.564 0-1.065.208-.495.202-.81.591a1.55 1.55 0 0 0-.341.927h-1.278a2.6 2.6 0 0 1 .517-1.502 3.25 3.25 0 0 1 1.267-1.012 4.1 4.1 0 0 1 1.731-.362q1.012 0 1.737.41.725.405 1.113 1.071.39.665.389 1.438 0 .921-.485 1.571a2.45 2.45 0 0 1-1.305.9v.086q1.034.17 1.614.879.58.702.581 1.741 0 .89-.485 1.598a3.3 3.3 0 0 1-1.31 1.108q-.83.405-1.891.405m10.573-6.189v1.171h-4.772v-1.171zm5.749 6.04h-3.366v-10.909h3.515q1.588 0 2.717.655 1.13.65 1.731 1.87.602 1.214.602 2.908 0 1.705-.607 2.935a4.33 4.33 0 0 1-1.769 1.886q-1.161.655-2.823.655m-2.045-1.172h1.96q1.353 0 2.243-.522a3.2 3.2 0 0 0 1.326-1.486q.437-.964.437-2.296 0-1.321-.432-2.274a3.18 3.18 0 0 0-1.289-1.471q-.858-.516-2.136-.516h-2.109zm9.46 1.172v-10.909h3.814q1.14 0 1.88.394.74.389 1.103 1.049.362.655.362 1.455 0 .702-.25 1.161a1.95 1.95 0 0 1-.65.724 3 3 0 0 1-.868.394v.107q.5.031 1.006.352.507.32.847.916.341.596.341 1.459 0 .82-.373 1.476t-1.177 1.038q-.804.384-2.093.384zm1.321-1.172h2.621q1.294 0 1.837-.501.549-.505.549-1.225 0-.554-.282-1.022a2.04 2.04 0 0 0-.805-.757q-.522-.288-1.235-.287h-2.685zm0-4.943h2.45q.597 0 1.076-.234.485-.235.767-.661.288-.426.288-1.001 0-.72-.501-1.22-.501-.506-1.587-.506h-2.493zm9.181 4.719a.92.92 0 0 1-.677-.282.92.92 0 0 1-.282-.676q0-.395.282-.677a.92.92 0 0 1 .677-.282q.393 0 .676.282a.92.92 0 0 1 .282.677.9.9 0 0 1-.133.479 1 1 0 0 1-.346.352.9.9 0 0 1-.479.127m0-5.518a.92.92 0 0 1-.677-.282.93.93 0 0 1-.282-.677q0-.394.282-.676a.92.92 0 0 1 .677-.283.92.92 0 0 1 .676.283.92.92 0 0 1 .282.676.994.994 0 0 1-.479.831.9.9 0 0 1-.479.128m11.098 7.063q-1.054 0-1.881-.362-.819-.362-1.305-1.007a2.7 2.7 0 0 1-.522-1.507h1.343q.042.527.362.911a2.1 2.1 0 0 0 .836.586q.517.207 1.145.207.704 0 1.247-.245.543-.244.852-.682.309-.436.309-1.012a1.9 1.9 0 0 0-.298-1.06q-.298-.463-.874-.724-.575-.261-1.406-.261h-.874v-1.172h.874a2.6 2.6 0 0 0 1.14-.234q.496-.235.772-.661.283-.426.283-1.001 0-.555-.245-.964a1.7 1.7 0 0 0-.693-.64 2.25 2.25 0 0 0-1.044-.229q-.564 0-1.065.208-.495.202-.81.591a1.55 1.55 0 0 0-.341.927h-1.278a2.6 2.6 0 0 1 .516-1.502 3.26 3.26 0 0 1 1.268-1.012 4.1 4.1 0 0 1 1.731-.362q1.013 0 1.737.41.725.405 1.113 1.071.389.665.389 1.438 0 .921-.485 1.571a2.45 2.45 0 0 1-1.305.9v.086q1.034.17 1.614.879.58.702.581 1.741 0 .89-.485 1.598a3.3 3.3 0 0 1-1.31 1.108q-.831.405-1.891.405m6.205-.149 4.88-9.652v-.085h-5.625v-1.172h6.988v1.236L316.72 641zm11.553.149q-1.204 0-2.051-.655-.847-.66-1.294-1.912-.448-1.257-.448-3.037 0-1.768.448-3.02.452-1.257 1.299-1.917.852-.666 2.046-.666t2.04.666q.852.66 1.3 1.917.452 1.252.452 3.02 0 1.78-.447 3.037-.447 1.251-1.295 1.912-.846.655-2.05.655m0-1.172q1.193 0 1.853-1.15.661-1.15.661-3.282 0-1.416-.304-2.413-.298-.996-.863-1.518a1.9 1.9 0 0 0-1.347-.522q-1.183 0-1.849 1.167-.666 1.162-.666 3.286 0 1.418.299 2.408.299.991.857 1.508.566.516 1.359.516m13.359 4.262q-.91 0-1.566-.235a3.3 3.3 0 0 1-1.092-.607 3.3 3.3 0 0 1-.687-.799l1.001-.703q.171.223.432.511.261.294.714.506.457.219 1.198.219.992 0 1.635-.48.645-.479.645-1.502v-1.662h-.107a7 7 0 0 1-.394.554q-.25.325-.724.581-.469.25-1.268.25a3.4 3.4 0 0 1-1.779-.469q-.783-.468-1.241-1.363-.453-.895-.453-2.174 0-1.256.442-2.189.442-.937 1.231-1.449.787-.516 1.821-.516.8 0 1.268.266.475.261.724.597.256.33.395.543h.128v-1.3h1.214v8.416q0 1.055-.479 1.716a2.74 2.74 0 0 1-1.279.974 4.8 4.8 0 0 1-1.779.315m-.043-4.496q.757 0 1.279-.346t.794-.996.271-1.556q0-.884-.266-1.561-.267-.676-.788-1.06-.522-.383-1.29-.383-.798 0-1.331.405-.527.405-.794 1.086a4.2 4.2 0 0 0-.261 1.513q0 .852.266 1.508.273.65.799 1.022.534.368 1.321.368m-108.985 20.146q-.645 0-1.177-.314a2.44 2.44 0 0 1-.853-.852 2.3 2.3 0 0 1-.314-1.178q0-.65.314-1.177.32-.532.853-.847a2.24 2.24 0 0 1 1.177-.319q.65 0 1.177.319.532.315.847.847.32.528.319 1.177 0 .645-.319 1.178-.315.533-.847.852a2.26 2.26 0 0 1-1.177.314m9.758 3.111v-10.909h3.814q1.14 0 1.881.394.74.389 1.102 1.049.363.655.362 1.455 0 .702-.25 1.161-.245.458-.65.724a3 3 0 0 1-.868.394v.107q.5.031 1.007.352.505.32.847.916.34.596.34 1.459 0 .82-.372 1.476-.373.656-1.178 1.038-.804.384-2.093.384zm1.321-1.172h2.621q1.295 0 1.838-.501.548-.505.548-1.225 0-.554-.282-1.022a2.03 2.03 0 0 0-.804-.757q-.522-.288-1.236-.287h-2.685zm0-4.943h2.451q.596 0 1.076-.234.484-.235.767-.661.287-.426.287-1.001 0-.72-.5-1.22-.5-.506-1.588-.506h-2.493zm14.401-2.067a1.67 1.67 0 0 0-.778-1.257q-.682-.447-1.672-.447-.725 0-1.268.234a2 2 0 0 0-.842.645 1.55 1.55 0 0 0-.298.932q0 .436.208.751.213.309.543.516.33.202.693.336.362.128.665.208l1.108.298q.427.113.949.309.527.197 1.006.538.485.336.799.863.315.528.315 1.294 0 .885-.464 1.598-.458.714-1.342 1.135-.879.42-2.136.421-1.172 0-2.03-.378-.852-.379-1.342-1.055a3 3 0 0 1-.549-1.571h1.364q.053.617.416 1.022.367.4.926.597.566.192 1.215.192a3.6 3.6 0 0 0 1.358-.245q.601-.25.954-.693.351-.447.351-1.044 0-.543-.303-.884a2.2 2.2 0 0 0-.799-.554 8 8 0 0 0-1.071-.373l-1.342-.384q-1.279-.367-2.025-1.049-.745-.681-.745-1.784 0-.917.495-1.598a3.3 3.3 0 0 1 1.342-1.066q.847-.383 1.891-.383 1.054 0 1.875.378.82.373 1.3 1.023.485.65.511 1.475zm7.094 8.331q-1.055 0-1.88-.362-.82-.362-1.305-1.007a2.7 2.7 0 0 1-.523-1.507h1.343q.042.527.362.911a2.1 2.1 0 0 0 .836.586 3.1 3.1 0 0 0 1.146.207q.703 0 1.246-.245.543-.244.852-.682.309-.436.309-1.012a1.9 1.9 0 0 0-.298-1.06q-.298-.463-.874-.724-.575-.261-1.406-.261h-.873v-1.172h.873a2.6 2.6 0 0 0 1.14-.234q.496-.235.772-.661.283-.426.283-1.001 0-.555-.245-.964a1.7 1.7 0 0 0-.693-.64 2.25 2.25 0 0 0-1.044-.229q-.564 0-1.065.208-.495.202-.81.591a1.55 1.55 0 0 0-.341.927h-1.278a2.6 2.6 0 0 1 .517-1.502 3.25 3.25 0 0 1 1.267-1.012 4.1 4.1 0 0 1 1.731-.362q1.012 0 1.737.41.725.405 1.113 1.071.39.665.389 1.438 0 .921-.485 1.571a2.45 2.45 0 0 1-1.305.9v.086q1.034.17 1.614.879.58.702.581 1.741 0 .89-.485 1.598a3.3 3.3 0 0 1-1.31 1.108q-.83.405-1.891.405m10.573-6.189v1.171h-4.772v-1.171zm2.83 6.04h-1.385l4.006-10.909h1.364L285.186 663h-1.385l-3.26-9.183h-.085zm.512-4.261h5.582v1.172h-5.582zm9.177 4.261v-10.909h3.687q1.283 0 2.098.463.82.458 1.215 1.241a3.8 3.8 0 0 1 .394 1.748 3.86 3.86 0 0 1-.394 1.752 2.93 2.93 0 0 1-1.204 1.257q-.815.464-2.088.464h-2.642v-1.172h2.599q.88 0 1.412-.304a1.8 1.8 0 0 0 .772-.82 2.7 2.7 0 0 0 .245-1.177q0-.656-.245-1.172a1.75 1.75 0 0 0-.778-.81q-.537-.298-1.427-.298h-2.323V663zm11.503 0-2.982-10.909h1.342l2.28 8.885h.106l2.323-8.885h1.491l2.323 8.885h.106l2.28-8.885h1.342L306.016 663h-1.363l-2.408-8.693h-.085L299.752 663zm12.257 0v-10.909h3.814q1.14 0 1.88.394.741.389 1.103 1.049.363.655.362 1.455 0 .702-.25 1.161-.245.458-.65.724a3 3 0 0 1-.868.394v.107q.5.031 1.007.352.505.32.847.916.34.596.34 1.459 0 .82-.372 1.476-.373.656-1.178 1.038-.804.384-2.093.384zm1.321-1.172h2.621q1.295 0 1.838-.501.548-.505.548-1.225 0-.554-.282-1.022a2.03 2.03 0 0 0-.804-.757q-.522-.288-1.236-.287h-2.685zm0-4.943h2.451q.596 0 1.076-.234.484-.235.767-.661.287-.426.287-1.001 0-.72-.5-1.22-.5-.506-1.588-.506h-2.493zm9.181 4.719a.93.93 0 0 1-.677-.282.92.92 0 0 1-.282-.676q0-.395.282-.677a.93.93 0 0 1 .677-.282q.394 0 .676.282a.92.92 0 0 1 .283.677.9.9 0 0 1-.134.479 1 1 0 0 1-.346.352.9.9 0 0 1-.479.127m0-5.518a.93.93 0 0 1-.677-.282.93.93 0 0 1-.282-.677q0-.394.282-.676a.92.92 0 0 1 .677-.283q.394 0 .676.283a.92.92 0 0 1 .283.676.9.9 0 0 1-.134.48 1 1 0 0 1-.346.351.9.9 0 0 1-.479.128m11.098 7.063q-1.055 0-1.88-.362-.82-.362-1.305-1.007a2.7 2.7 0 0 1-.522-1.507h1.342q.042.527.362.911a2.1 2.1 0 0 0 .836.586 3.1 3.1 0 0 0 1.146.207q.703 0 1.246-.245.543-.244.852-.682.309-.436.309-1.012a1.9 1.9 0 0 0-.298-1.06q-.299-.463-.873-.724-.576-.261-1.407-.261h-.873v-1.172h.873q.65 0 1.14-.234.495-.235.773-.661.282-.426.282-1.001 0-.555-.245-.964a1.7 1.7 0 0 0-.693-.64q-.441-.229-1.044-.229-.564 0-1.065.208-.495.202-.81.591a1.55 1.55 0 0 0-.341.927h-1.278a2.6 2.6 0 0 1 .517-1.502 3.25 3.25 0 0 1 1.267-1.012 4.1 4.1 0 0 1 1.732-.362q1.011 0 1.736.41.725.405 1.113 1.071.39.665.389 1.438 0 .921-.484 1.571-.48.65-1.305.9v.086q1.032.17 1.613.879.582.702.581 1.741 0 .89-.485 1.598a3.3 3.3 0 0 1-1.31 1.108q-.83.405-1.891.405m9.359 0q-1.097 0-1.939-.389-.835-.393-1.305-1.081a2.7 2.7 0 0 1-.463-1.577 2.9 2.9 0 0 1 .271-1.278q.277-.591.757-.986a2.3 2.3 0 0 1 1.081-.506v-.064a2.1 2.1 0 0 1-1.246-.878 2.67 2.67 0 0 1-.459-1.551 2.64 2.64 0 0 1 .421-1.486 2.97 2.97 0 0 1 1.172-1.033q.752-.378 1.71-.378.948 0 1.694.378t1.172 1.033q.43.656.437 1.486a2.7 2.7 0 0 1-.474 1.551 2.1 2.1 0 0 1-1.231.878v.064q.591.107 1.065.506.474.395.757.986.282.586.287 1.278a2.75 2.75 0 0 1-.479 1.577q-.468.687-1.305 1.081-.831.39-1.923.389m0-1.172q.741 0 1.278-.239.538-.24.831-.677.294-.437.299-1.023a1.96 1.96 0 0 0-.32-1.092 2.16 2.16 0 0 0-.857-.745 2.7 2.7 0 0 0-1.231-.272 2.8 2.8 0 0 0-1.246.272 2.17 2.17 0 0 0-.858.745q-.309.474-.304 1.092-.005.586.283 1.023.293.437.836.677.543.239 1.289.239m0-5.177q.586 0 1.039-.235a1.8 1.8 0 0 0 .719-.655q.261-.42.266-.985a1.8 1.8 0 0 0-.261-.964 1.7 1.7 0 0 0-.708-.64 2.3 2.3 0 0 0-1.055-.229 2.4 2.4 0 0 0-1.071.229 1.66 1.66 0 0 0-.708.64 1.77 1.77 0 0 0-.245.964q-.006.564.25.985.261.421.719.655t1.055.235m9.307 6.349q-1.203 0-2.051-.655-.846-.66-1.294-1.912-.447-1.257-.447-3.037 0-1.768.447-3.02.453-1.257 1.3-1.917.852-.666 2.045-.666t2.04.666q.853.66 1.3 1.917.453 1.252.453 3.02 0 1.78-.448 3.037-.447 1.251-1.294 1.912-.847.655-2.051.655m0-1.172q1.193 0 1.854-1.15.66-1.15.66-3.282 0-1.416-.303-2.413-.299-.996-.863-1.518a1.9 1.9 0 0 0-1.348-.522q-1.182 0-1.848 1.167-.666 1.162-.666 3.286 0 1.418.298 2.408.299.991.858 1.508.564.516 1.358.516m13.36 4.262q-.912 0-1.567-.235a3.3 3.3 0 0 1-1.092-.607 3.4 3.4 0 0 1-.687-.799l1.002-.703q.17.223.431.511.261.294.714.506.458.219 1.199.219.99 0 1.635-.48.644-.479.644-1.502v-1.662h-.106a7 7 0 0 1-.394.554q-.25.325-.725.581-.468.25-1.268.25-.99 0-1.779-.469-.783-.468-1.241-1.363-.453-.895-.453-2.174 0-1.256.443-2.189.441-.937 1.23-1.449.789-.516 1.822-.516.798 0 1.268.266.474.261.724.597.256.33.394.543h.128v-1.3h1.214v8.416q0 1.055-.479 1.716a2.73 2.73 0 0 1-1.278.974 4.8 4.8 0 0 1-1.779.315m-.043-4.496q.756 0 1.278-.346t.794-.996.272-1.556q0-.884-.267-1.561a2.34 2.34 0 0 0-.788-1.06q-.522-.383-1.289-.383-.8 0-1.332.405-.527.405-.793 1.086a4.2 4.2 0 0 0-.261 1.513q0 .852.266 1.508.271.65.799 1.022.532.368 1.321.368"/><path stroke="#231815" stroke-linecap="round" stroke-linejoin="round" stroke-width=".5" d="m559.48 582.22 13.14-1.4M559.41 580.9l13.06-1.39M559.03 573.87l21.67-2.32"/><path stroke="#231815" stroke-linecap="round" stroke-linejoin="round" d="m556.03 573.85.79.01M555.44 573.85l-1.48-.02M553.96 573.83l-1.43-.02M553.05 573.82l.6.01M552.16 573.8l.53.01M552.16 573.8l.53.01M552.16 573.8l-.94-.02M552.16 573.8l-.94-.02M550.23 573.76l.99.02M548.9 573.73l1.33.03M549.41 573.74l.34.01"/><circle cx="581.61" cy="561.48" r=".25" fill="#231815"/><path stroke="#231815" stroke-linecap="round" stroke-linejoin="round" stroke-width=".5" d="m558.76 98.13-.93 1.53M559.07 97.62l-.31.51"/><circle cx="558.09" cy="572.15" r=".25" fill="#231815"/><path stroke="#231815" stroke-linecap="round" stroke-linejoin="round" stroke-width=".5" d="m552.88 110.14-1.64 5.03M551.24 115.17l-1.29 5.47M549.98 550.92l1.41 5.8"/><path stroke="#231815" stroke-linecap="round" stroke-linejoin="round" d="M527 99.66v472.05"/><path stroke="#231815" stroke-linecap="round" stroke-linejoin="round" stroke-width=".5" d="M549.22 125.36v-.02M549.95 120.64l-.73 4.7M549.22 546.02l.76 4.9M549.22 546.01v.01M555 580.9l-.37-7.06M556.39 580.9l-.37-7.05M547.89 157.39v356.58"/><path stroke="#231815" stroke-linecap="round" stroke-linejoin="round" d="m590.64 258.45-1.09.55"/><path stroke="#231815" stroke-linecap="round" stroke-linejoin="round" stroke-width=".5" d="m556.39 580.9-.01 1.32"/><path stroke="#231815" stroke-linecap="round" stroke-linejoin="round" d="m589.55 412.37 1.09.55"/><path stroke="#231815" stroke-linecap="round" stroke-linejoin="round" stroke-width=".5" d="M581.95 565.68v4.49"/><path stroke="#231815" stroke-linecap="round" stroke-linejoin="round" d="M588.01 261.49v.74M588.01 409.14v.73"/><path stroke="#231815" stroke-linecap="round" stroke-linejoin="round" stroke-width=".5" d="m572.47 579.51.38-7.12M573.87 579.51l.38-7.27"/><path stroke="#231815" stroke-linecap="round" stroke-linejoin="round" d="M592.18 109.27v146.69M592.18 562.1V415.41M592.18 403.61V267.76M590.64 406.1l-1.09.55M589.55 264.72l1.09.55M567.29 569.91l24.29-7.01"/><path stroke="#231815" stroke-linecap="round" stroke-linejoin="round" stroke-width=".5" d="m582.95 116.24-.59-.28"/><path stroke="#231815" stroke-linecap="round" stroke-linejoin="round" d="m567.29 101.46 24.29 7.01"/><path stroke="#231815" stroke-linecap="round" stroke-linejoin="round" stroke-width=".5" d="M581.56 109.89h.01"/><path stroke="#231815" stroke-linecap="round" stroke-linejoin="round" d="m564.32 98.07-5.04-.54"/><path stroke="#231815" stroke-linecap="round" stroke-linejoin="round" stroke-width=".5" d="M555.42 581.82q.12.12.27.21M555.69 582.02c.06.03.11.06.17.09"/><path stroke="#231815" stroke-linecap="round" stroke-linejoin="round" stroke-width=".5" d="M555 580.9c.04.74.64 1.31 1.38 1.32"/><path stroke="#231815" stroke-linecap="round" stroke-linejoin="round" d="M527 571.71c0 .43.33.8.76.83M552.88 573.82h.7"/><path stroke="#231815" stroke-linecap="round" stroke-linejoin="round" stroke-width=".5" d="M583.93 554.37c-.32.14-.63.29-.95.44M572.62 580.82c.68-.07 1.21-.63 1.24-1.31M580.7 571.55a1.39 1.39 0 0 0 1.24-1.39"/><path stroke="#231815" stroke-linecap="round" stroke-linejoin="round" d="M591.58 562.9c.36-.1.6-.43.6-.8"/><path stroke="#231815" stroke-linecap="round" stroke-linejoin="round" stroke-width=".5" d="M591.58 552.04c.23-.07.43-.23.53-.45M549.04 544.28c0 .1.02.2.03.29M549.14 545.35c.02.22.05.44.07.66M548.94 543.08c.02.3.05.6.07.9M549.03 544.15s0 .09.01.14M549.08 544.7c.02.17.03.35.05.52M549.01 543.99c0 .05 0 .11.01.16M558.48 97.5c-10.25.02-20.5.46-30.71 1.33"/><path stroke="#231815" stroke-linecap="round" stroke-linejoin="round" d="M558.48 97.5c-10.25.02-20.5.46-30.71 1.33M590.64 406.1c.94-.47 1.54-1.44 1.54-2.49M592.18 415.41c0-1.06-.6-2.02-1.54-2.49M589.55 406.65c-.94.47-1.54 1.44-1.54 2.49M588.01 409.87c0 1.06.6 2.02 1.54 2.49"/><path stroke="#231815" stroke-linecap="round" stroke-linejoin="round" stroke-width=".5" d="M547.9 516.31c.05 8.21.35 16.41.89 24.6M547.89 513.97v2.34M548.79 540.91l.15 2.17M556.38 582.22c1.03 0 2.07.01 3.1 0M556.39 580.9c1.01 0 2.01.01 3.02 0M554.91 573.84c.37 0 .75 0 1.12.01"/><path stroke="#231815" stroke-linecap="round" stroke-linejoin="round" d="M554.93 573.84c.37 0 .73 0 1.1.01M527.76 572.54c7.2.61 14.42 1.01 21.65 1.2M551.22 573.78c.31 0 .63.01.94.02M556.82 573.86h2.22M589.55 259c-.94.47-1.54 1.44-1.54 2.49M588.01 262.23c0 1.06.6 2.02 1.54 2.49M590.64 258.45c.94-.47 1.54-1.44 1.54-2.49M592.18 267.76c0-1.06-.6-2.02-1.54-2.49"/><path stroke="#231815" stroke-linecap="round" stroke-linejoin="round" stroke-width=".5" d="M549.09 126.55c-.01.14-.03.28-.04.42M549 127.58c-.02.23-.04.47-.05.71M549.22 125.36l-.09.79M549.04 127.06c-.02.17-.03.35-.05.52M549.12 126.27c0 .09-.02.18-.03.27"/><path stroke="#231815" stroke-linecap="round" stroke-linejoin="round" d="M527.76 98.83c-.43.04-.76.4-.76.83M558.96 97.78a.56.56 0 0 0-.48-.28M559.28 97.53c-.08 0-.16.03-.21.1"/><path stroke="#231815" stroke-linecap="round" stroke-linejoin="round" stroke-width=".5" d="M592.11 119.78a.82.82 0 0 0-.53-.45"/><path stroke="#231815" stroke-linecap="round" stroke-linejoin="round" d="M592.18 109.27c0-.37-.25-.7-.6-.8"/><path stroke="#231815" stroke-linecap="round" stroke-linejoin="round" stroke-width=".5" d="M548.74 131.22c-.48 7.46-.76 14.93-.83 22.4M547.91 153.61c-.01 1.26-.02 2.52-.02 3.78M548.94 128.28c-.07.98-.14 1.96-.2 2.93"/><path stroke="#231815" stroke-linecap="round" stroke-linejoin="round" d="m553.48 573.83-.28-.01M553.2 573.82h-.14M553.06 573.82h-.17M552.6 573.81l.26.01M552.86 573.82h.02M552.88 573.82h.28M553.16 573.82l.39.01"/><path stroke="#231815" stroke-linecap="round" stroke-linejoin="round" stroke-width=".5" d="M555.42 581.82c-.12-.12-.22-.27-.3-.42M572.47 579.51c.09 0 .18 0 .27.01s.17 0 .26 0h.85M559.41 580.9c0 .09 0 .17.01.26s0 .17.01.25c0 .08 0 .15.01.23 0 .07 0 .13.01.2v.37M572.47 579.51c0 .09.02.17.03.26l.03.25c0 .08.02.15.02.23 0 .07.01.13.02.2 0 .05.01.11.02.16v.2M555 580.9h1.11c.09 0 .18 0 .27-.01"/><path stroke="#231815" stroke-linecap="round" stroke-linejoin="round" d="m548.74 573.72.16.01M552.75 573.81h.08M552.83 573.81l.08.01M553.16 573.82h.01M553.41 573.82l.14.01M553.55 573.83h.29M553.84 573.83l.33.01M548.74 573.72h-.27"/><path stroke="#231815" stroke-linecap="round" stroke-linejoin="round" stroke-width=".5" d="M592.11 119.78c.05.11.08.23.08.35M592.11 551.59c.05-.11.08-.23.08-.35M549.07 544.58l.01.12M549.13 545.22l.01.13M549.13 126.14l-.01.13M549.05 126.96l-.01.1M592.18 120.13s-.02-.1-.05-.14a.53.53 0 0 0-.24-.17 1.2 1.2 0 0 0-.38-.09M591.37 560.42s.05.07.07.11c.08.15.13.31.17.48M591.6 561.02l.03.18c.02.16.04.32.02.48M591.65 561.68s0 .04-.01.06c0 .05-.02.1-.05.14M549.25 546.01h-.03M592.18 551.24s-.02.1-.05.14c-.06.08-.14.13-.23.17-.12.05-.25.08-.37.09M592.18 110.26c0-.17-.06-.34-.16-.48a.8.8 0 0 0-.43-.29M592.18 110.26c0 .09-.02.18-.06.26-.04.09-.1.16-.18.22-.16.13-.37.2-.58.21M591.37 560.42c-1.65.31-3.31.58-4.98.78-.81.1-1.62.17-2.43.22s-1.57.07-2.36.05"/><path stroke="#231815" stroke-linecap="round" stroke-linejoin="round" stroke-width=".5" d="M592.18 561.11c0-.09-.02-.18-.06-.26a.55.55 0 0 0-.18-.22c-.16-.13-.37-.2-.58-.21M582.78 116.56c-.54-.26-1.07-.53-1.59-.82s-1.03-.6-1.52-.93q-.735-.495-1.38-1.08c-.43-.39-.8-.79-1.1-1.26-.14-.21-.26-.44-.35-.68-.08-.22-.13-.44-.15-.68-.01-.21 0-.42.07-.62s.15-.37.26-.53.26-.31.41-.43.33-.24.51-.34c.38-.21.79-.36 1.22-.47.45-.12.91-.2 1.37-.26.49-.06.97-.09 1.46-.1 1.03-.03 2.06.03 3.09.12 1.08.1 2.15.24 3.22.42a82 82 0 0 1 3.29.61M592.18 561.11c0 .17-.06.34-.16.48a.8.8 0 0 1-.43.29M591.52 119.73c-1.49-.42-2.97-.88-4.43-1.4s-2.91-1.09-4.31-1.76M583.93 554.37c1.23-.55 2.49-1.04 3.76-1.49q1.905-.675 3.84-1.23M591.59 561.87c-1.09.22-2.19.43-3.28.61s-2.13.32-3.21.42-2.05.15-3.07.12c-.49-.01-.97-.04-1.45-.1s-.91-.14-1.36-.26a5.2 5.2 0 0 1-1.2-.48c-.18-.1-.34-.22-.5-.35s-.28-.27-.39-.44a1.9 1.9 0 0 1-.24-.54c-.05-.2-.06-.42-.04-.62.02-.23.09-.46.17-.67.1-.24.22-.46.37-.68.31-.46.7-.87 1.11-1.24.44-.39.9-.74 1.39-1.07s1-.64 1.52-.93 1.05-.56 1.59-.82"/><path stroke="#231815" stroke-linecap="round" stroke-linejoin="round" stroke-width=".5" d="M581.57 109.89c.79-.02 1.58 0 2.37.05s1.63.13 2.44.22c1.67.2 3.34.47 5 .77M581.61 561.48l-.77-.04M580.84 561.44l-1.11-.14M579.73 561.3l-.95-.24M578.78 561.06l-.74-.34M578.04 560.72l-.44-.39M577.6 560.33l-.15-.4M577.45 559.93l.1-.54M577.55 559.39l.41-.7M577.96 558.69l.69-.74M578.65 557.95l.87-.73M579.52 557.22l1.02-.69M580.54 556.53l1.11-.65M557.83 99.66l-1.43 2.58M556.4 102.24l-1.72 3.53M554.68 105.77l-1.8 4.37M555.12 566.54l1.79 3.53M556.91 570.07l2.19 3.79M551.39 556.72l1.79 5.31M553.18 562.03l1.94 4.51M581.65 555.88l1.17-.6M582.82 555.28l.33-.16M583.15 555.12l2.11-.92M585.26 554.2l3.42-1.25M588.68 552.95l2.9-.91M582.36 115.96l-1.44-.77M580.92 115.19l-1.3-.83M579.62 114.36l-1.09-.87M578.53 113.49l-.8-.89M577.73 112.6l-.4-.82M577.33 111.78l.06-.59M577.39 111.19l.53-.53M577.92 110.66l1.05-.44M578.97 110.22l1.53-.26M580.5 109.96l1.07-.07M591.57 119.33l-2.9-.88M588.67 118.45l-3.48-1.24M585.19 117.21l-2.24-.97"/><path stroke="#231815" stroke-linecap="round" stroke-linejoin="round" d="m564.32 573.3-5.29.57"/><path stroke="#231815" stroke-linecap="round" stroke-linejoin="round" stroke-width=".5" d="M557.48 542.47v-.12M552.63 513.97V157.39M556.46 513.97v-.18M556.46 513.79V157.38"/><circle cx="565.68" cy="99.47" r=".25" fill="#231815"/><circle cx="565.68" cy="571.89" r=".25" fill="#231815"/><path stroke="#231815" stroke-linecap="round" stroke-linejoin="round" d="m565.77 99.95-.09-.48"/><path stroke="#231815" stroke-linecap="round" stroke-linejoin="round" stroke-width=".5" d="M567.29 569.91c-.9.26-1.54 1.05-1.61 1.98"/><path stroke="#231815" stroke-linecap="round" stroke-linejoin="round" d="M567.29 569.91c-.9.26-1.54 1.05-1.6 1.98M564.32 573.3c.73-.08 1.31-.67 1.36-1.41"/><path stroke="#231815" stroke-linecap="round" stroke-linejoin="round" stroke-width=".5" d="M561.02 558.31a54 54 0 0 0 2.8 6.05M560.82 557.79c.07.18.13.35.2.53M559.73 554.6c.33 1.07.69 2.14 1.09 3.19M557.82 545.76c.38 2.99 1.02 5.95 1.91 8.83M553.66 542.74c.08 1.09.19 2.18.32 3.27M553.99 546.01c.89 7.07 2.99 13.94 6.21 20.3M557.48 542.47q.105 1.53.3 3.06M552.63 513.97c0 9.6.35 19.2 1.04 28.77M556.46 513.97c0 9.47.34 18.93 1.02 28.37M557.78 125.86c-.12 1-.22 2.01-.29 3.02M558.94 107.68c-.21.48-.42.96-.62 1.44M560.19 105.06c-.44.86-.85 1.74-1.25 2.62M553.99 125.36c-.14 1.09-.24 2.17-.32 3.27M557.71 110.62a62.4 62.4 0 0 0-3.73 14.74M558.32 109.12q-.315.75-.6 1.5"/><path stroke="#231815" stroke-linecap="round" stroke-linejoin="round" d="M565.77 99.95c.04.13.09.26.16.39M565.92 100.34c.28.54.77.95 1.36 1.12M565.68 99.47c-.05-.74-.62-1.33-1.36-1.41"/><path stroke="#231815" stroke-linecap="round" stroke-linejoin="round" stroke-width=".5" d="M560.43 104.6c-.04.07-.07.14-.11.21M560.32 104.81c-.04.08-.08.16-.13.25M561.25 112.45c-.18.43-.35.87-.51 1.31M563.69 107.24c-.9 1.69-1.72 3.43-2.44 5.21M560.74 113.76c-.22.58-.42 1.16-.62 1.75M559.71 116.77c-.6 1.96-1.09 3.95-1.46 5.96M560.12 115.51c-.14.42-.28.84-.41 1.26M558.01 124.15c-.07.44-.13.88-.19 1.32M558.25 122.73c-.09.47-.17.94-.24 1.42M553.66 128.62c-.69 9.57-1.04 19.17-1.04 28.77M557.49 128.88c-.68 9.49-1.02 18.99-1.02 28.51M560.43 104.6c.25-.49.51-.97.77-1.45.24-.43.48-.86.73-1.29.22-.38.44-.75.67-1.12.19-.31.39-.63.59-.94.08-.13.17-.27.26-.4l.23-.35c.07-.1.13-.2.2-.3.05-.08.11-.17.17-.25.04-.07.09-.13.13-.19.02-.03.03-.05.05-.08.01-.02.03-.04.04-.06s.02-.03.03-.05c0-.01.02-.02.02-.03 0 0 .01-.01.01-.02M563.69 107.24c.23-.43.46-.85.7-1.27.22-.38.44-.76.66-1.13.2-.33.4-.66.61-.99.18-.28.35-.55.54-.83.15-.22.29-.44.44-.66.11-.16.22-.33.34-.49l.12-.18c.03-.04.06-.09.09-.13.02-.03.04-.05.06-.08 0-.01.02-.02.03-.03"/><circle cx="567.29" cy="101.46" r=".25" fill="#231815"/><path stroke="#231815" stroke-linecap="round" stroke-linejoin="round" stroke-width=".5" d="m557.78 125.86.04-.39M557.82 545.76l-.03-.23"/><circle cx="567.29" cy="569.91" r=".25" fill="#231815"/><path stroke="#231815" stroke-linecap="round" stroke-linejoin="round" stroke-width=".5" d="m567.29 569.91-.03-.03c-.02-.03-.04-.05-.06-.08l-.09-.12c-.04-.06-.08-.11-.12-.17-.11-.16-.22-.31-.32-.47-.14-.21-.28-.42-.43-.63-.17-.26-.35-.53-.51-.79-.2-.31-.39-.63-.59-.95q-.69-1.14-1.32-2.31M564.32 573.3c0-.01 0-.02-.02-.02 0-.01-.02-.02-.03-.04s-.02-.04-.04-.05c-.02-.02-.03-.04-.05-.07s-.04-.05-.06-.08c-.05-.07-.09-.14-.14-.21l-.18-.27c-.07-.11-.14-.21-.21-.32-.08-.12-.16-.25-.24-.37-.09-.14-.18-.28-.27-.43-.21-.33-.42-.67-.62-1.01-.24-.4-.48-.8-.71-1.2-.26-.46-.52-.91-.77-1.38-.28-.51-.55-1.02-.81-1.54M801.23 568.34h-8.59M784.33 568.34h-8.87M826.32 562.76h15.75M886.7 561.61h-82.6M772.6 561.61h-42.51M717.05 107.76l-8.49 9.7M912.77 531.55H901.9M714.88 531.55h-10.87M912.77 530.29h-2.86M706.88 530.29h-2.87M871.96 529.03h13.18M704.01 528.51h2.87M909.91 528.51h2.86M871.96 527.28h13.18M704.01 525.47h2.87M909.91 525.47h2.86M885.14 522.7h-13.18M885.14 520.5h-13.18M779.04 517.51h58.7M706.88 513.5h1.43M908.47 513.5h1.44M885.14 510.97h-13.18M885.14 508.55h-13.18M912.77 507.78h-2.86M706.88 507.78h-2.87M912.77 506.35h-2.86M706.88 506.35h-2.87M871.96 504.94h13.18M871.96 503.98h13.18M885.14 491.93h-13.18M885.14 489.74h-13.18M871.96 487.2h13.18M871.96 485.44h13.18M912.77 484.87h-4.3M704.01 484.87h4.3M912.77 483.61h-2.86M706.88 483.61h-2.87M704.01 478.97h2.87M909.91 478.97h2.86M704.01 475.93h2.87M909.91 475.93h2.86M837.74 445.92h-58.7M841.2 561.61l.87 1.15M724.46 556.96l-3.95-20.76M704.01 531.55v-25.2M704.01 484.87V154.12M704.01 132.64v-14.89M706.88 117.75v14.89M706.88 531.55v-25.2M706.88 484.87V154.12M707.31 484.87V161.28M707.31 132.64v-14.89M709.74 134.07v25.78M709.74 486.3v25.77M725.35 102v2.87M725.35 105.44v-.52M726.78 102v2.87M793.36 352h30.06M745.39 104.87v4.29M823.42 331.95h-30.06M770.45 454.51v54.41M771.88 149.82v14.32M774.03 109.16v-4.29M775.46 568.77v-4.29M791.93 333.38v17.18M801.23 564.48v4.29M844.9 280.12h-14.32M824.86 350.56v-17.18M826.32 562.76v.86M842.07 562.76v.86M842.75 104.87v4.29M844.9 280.12V265.8M846.33 508.92v-54.41M908.47 238.6h1.44M871.39 109.16v-4.29M871.96 529.68v-45.24M885.14 484.44v45.24M890 104.87V102M891.44 105.44v-.52M891.44 104.87V102M907.04 512.07V486.3M907.04 237.16v-54.4M907.04 159.85v-25.78M909.48 161.28v20.04M909.48 238.6v246.27M909.48 513.5v18.05M909.91 531.55v-25.2M909.91 484.87V154.12M909.91 132.64v-14.89M912.77 117.75v14.89M912.77 531.55v-25.2M912.77 484.87V154.12M908.47 181.32h1.44M896.28 536.2l-3.96 20.76M706.88 161.28h1.43M908.47 161.28h1.44M912.77 155.55h-2.86M706.88 155.55h-2.87M912.77 154.12h-2.86M706.88 154.12h-2.87M786.2 149.82h-14.32M827.2 561.61l-.88 1.15M704.01 132.64h4.3M908.47 132.64h4.3M704.01 131.21h2.87M909.91 131.21h2.86M912.77 119.18h-2.86M706.88 119.18h-2.87M912.77 117.75h-3.91M704.01 117.75h3.91M869.96 110.59h-25.77M772.6 110.59h-25.78M896.5 106.3h-4.2M724.49 106.3h-4.21M725.35 105.3h20.04M774.03 105.3h68.72M871.39 105.3h20.05M725.35 104.87h166.09M725.35 102h166.09"/><path stroke="#231815" stroke-linecap="round" stroke-linejoin="round" stroke-width=".25" d="m784.23 127.1-.72.36M779.93 130.94l-.35.18M784.41 128.19l.54-.18M778.5 130.57l.54-.18M779.04 134.23l-.54.18M793.71 130.75l1.08-.36M819.67 130.57l.53-.18M783.87 128.56l.54-.37M792.1 128.01l-.53.37M787.27 133.86l-.54.37M791.21 127.46l.72-.36M786.91 135.32l.72-.36M794.79 134.41l.36-.18M795.5 134.96l-.71.36M820.38 131.3l.72-.36M779.04 130.39l.36-.37M783.51 127.46l-.71.73M779.93 134.78l-.71.54M795.86 130.57l-.71.55M796.04 134.59l-.54.37M849.73 127.46l.72-.36M854.57 134.96l-.72.36M779.4 133.86l-.36.37M790.49 128.19l.72-.73M787.63 134.96l.72-.73M794.79 130.39l.36-.37M795.15 134.23l.35-.37M850.63 128.19l-.54.37M853.67 134.23l.54-.37M787.63 133.31l-.36.55M791.57 128.38l-.36.55M780.47 130.21l-.54.73M780.47 134.04l-.54.74M820.2 130.39l.36-.37M849.02 128.19l.71-.73M788.35 134.23l.35-.73M796.22 130.02l-.36.55M796.4 134.04l-.36.55M821.1 130.94l.54-.73M855.28 134.23l-.71.73M779.4 130.02l.18-.55M780.65 129.66l-.18.55M779.58 133.31l-.18.55M780.65 133.5l-.18.54M783.69 129.11l.18-.55M795.15 130.02l.35-.73M795.5 133.86l.18-.36M850.09 128.56l-.36.55M782.8 128.19l-.18.74M790.31 128.93l.18-.74M796.4 129.29l-.18.73M796.58 133.5l-.18.54M848.66 128.93l.36-.74M820.56 130.02l.18-.55M821.64 130.21l.17-.55M838.46 126.92l-2.86 8.59M834.88 134.41l2.51-7.49M774.03 135.51v-8.59M775.1 128.01v2.56M775.1 134.41v-2.74M779.58 132.76v.55M779.58 129.47v-.36M780.65 128.93v.73M780.65 132.58v.92M782.62 128.93v.73M783.69 129.47v-.36M787.63 132.76v.55M788.7 133.5v-.92M793 131.49v-.74M854.21 133.86l.18-.55M795.5 129.29v-.36M795.68 133.5v-.74M796.4 128.93v.36M796.58 132.76v.74M815.19 126.92v8.59M816.27 127.83v2.74M816.27 135.51v-3.84M848.48 129.84l.18-.91M855.46 133.31l-.18.92M849.73 129.11l-.17.73M820.74 129.47v-.54M821.81 129.66v-.73M823.42 135.51v-8.59M824.5 128.01v2.38M824.5 131.49v2.92M829.15 130.39v1.1M829.87 126.92v1.09M829.87 134.41v1.1M779.4 132.22l.18.54M780.47 132.03l.18.55M779.58 129.11l-.18-.55M782.08 133.13l.18.73M782.62 129.66l.18.73M848.48 132.58v-2.74M849.56 129.84v2.74M780.47 128.38l.18.55M783.33 133.68l-.17-.55M783.87 130.02l-.18-.55M788.17 128.93l-.18-.55M790.31 134.04l-.17-.54M796.4 132.03l.18.73M796.22 128.19l.18.74M782.26 133.86l.54.92M788.7 132.58l-.35-.73M786.91 128.56l.18.37M791.03 133.5l.18.36M795.68 132.76l-.35-.73M821.99 135.51l-1.61-4.21M819.31 131.67l1.43 3.84M820.74 128.93l-.18-.55M821.81 128.93l-.17-.55M848.66 133.5l-.18-.92M852.96 134.41l.71-.18M779.04 131.85l.36.37M783.87 134.23l-.54-.55M779.93 131.3l.54.73M779.93 127.65l.54.73M787.99 128.38l-.54-.73M787.27 132.22l.36.54M790.67 134.59l-.36-.55M796.04 131.49l.36.54M795.5 128.93l-.35-.55M832.37 126.92l2.51 7.49M834.16 135.51l-2.86-8.59M854.39 129.11l-.18-.55M849.56 132.58l.17.73M855.28 128.19l.18.92M851.35 128.01l-.72.18M794.79 135.32l-.72.19M786.73 134.23l-.71.18M784.95 126.92l-.72.18M853.85 135.32l-.89.19M850.45 127.1l.9-.18M793.89 134.59l.9-.18M786.02 135.51l.89-.19M779.22 135.32l-.9.19M793 127.83l-.9.18M782.8 134.78l.89.54M784.41 130.39l-.54-.37M791.21 134.96l-.54-.37M786.73 131.85l.54.37M779.22 127.1l.71.55M787.45 127.65l-.72-.55M779.4 128.56l-.36-.37M782.8 130.39l.71.73M788.35 131.85l-.72-.73M791.21 133.86l.36.37M786.56 128.19l.35.37M795.5 127.46l.72.73M821.64 128.38l-.54-.73M849.02 134.23l-.36-.73M791.93 127.1l1.25-.18M852.96 135.51h-1.61M835.6 135.51h-1.44M829.87 135.51h-6.45M794.07 135.51h-1.43M778.32 135.51h-4.29M784.59 135.51h1.43M815.19 135.51h1.08M820.74 135.51h1.25M792.82 134.59h1.07M786.02 134.41h-1.43M778.5 134.41h-3.4M824.5 134.41h5.37M851.35 134.41h1.61M790.14 133.5h.89M854.39 133.31h1.07M783.16 133.13h-1.08M775.1 131.67h3.4M784.95 131.67h1.07M816.27 131.67h3.04M829.15 131.49h-4.65M793.71 131.49H793M793 130.75h.71M786.02 130.57h-1.07M775.1 130.57h3.4M816.27 130.57h3.4M824.5 130.39h4.65M855.46 129.11h-1.07M791.21 128.93h-.9M787.09 128.93h1.08M852.96 128.01h-1.61M829.87 128.01h-5.37M778.5 128.01h-3.4M784.95 128.01h1.07M819.67 127.83h-3.4M793.71 127.83H793M819.49 126.92h-4.3M785.84 126.92h-.89M774.03 126.92h4.29M793.18 126.92h.36M823.42 126.92h6.45M831.3 126.92h1.07M837.39 126.92h1.07M851.35 126.92h1.61M793.54 126.92l1.25.18M794.79 131.67l-1.08-.18M783.69 135.32l.9.19M791.93 134.41l.89.18M786.91 130.75l-.89-.18M778.32 126.92l.9.18M786.73 127.1l-.89-.18M794.61 128.01l-.9-.18M851.35 135.51l-.9-.19M784.59 134.41l-.72-.18M792.64 135.51l-.71-.19M784.23 131.49l.72.18M786.02 131.67l.71.18M778.5 131.67l.54.18M784.95 130.57l-.54-.18M779.04 128.19l-.54-.18M786.02 128.01l.54.18M795.15 131.12l.89.37M779.58 131.12l.35.18M783.51 131.12l.72.37M791.93 135.32l-.72-.36M791.57 134.23l.36.18M787.63 131.12l-.72-.37M794.79 127.1l.71.36M795.33 132.03l-.54-.36M795.15 128.38l-.54-.37M821.1 127.65l-.72-.55M820.56 128.38l-.36-.37M849.73 134.96l-.71-.73M849.73 133.31l.36.55M820.38 127.1l-.89-.18M852.96 126.92l.89.18M850.63 134.23l.72.18M853.67 128.19l-.71-.18M820.2 128.01l-.53-.18M850.45 135.32l-.72-.36M853.85 127.1l.72.36M850.09 133.86l.54.37M854.21 128.56l-.54-.37M854.57 127.46l.71.73"/><path stroke="#231815" stroke-linecap="round" stroke-linejoin="round" stroke-width=".5" d="m908.22 117.46-8.48-9.7M779.04 445.92c-4.74 0-8.59 3.85-8.59 8.59M770.45 508.92c0 4.74 3.85 8.59 8.59 8.59M720.51 536.2a5.73 5.73 0 0 0-5.63-4.66M724.46 556.96c.51 2.7 2.88 4.66 5.63 4.66M804.1 561.61a2.86 2.86 0 0 0-2.86 2.86M775.46 564.48a2.86 2.86 0 0 0-2.86-2.86M791.93 350.56c0 .79.64 1.43 1.43 1.43M709.74 486.3c0-.79-.64-1.43-1.43-1.43M708.31 513.5c.79 0 1.43-.64 1.43-1.43M720.28 106.3c-1.24 0-2.42.53-3.23 1.47M793.36 331.95c-.79 0-1.43.64-1.43 1.43M745.39 109.16c0 .79.64 1.43 1.43 1.43M772.6 110.59c.79 0 1.43-.64 1.43-1.43M708.31 161.28c.79 0 1.43-.64 1.43-1.43M709.74 134.07c0-.79-.64-1.43-1.43-1.43M707.92 117.75c.25 0 .48-.11.65-.29M724.49 106.3c.47 0 .86-.38.86-.86M846.33 454.51c0-4.74-3.85-8.59-8.59-8.59M837.74 517.51c4.74 0 8.59-3.85 8.59-8.59M901.9 531.55c-2.75 0-5.11 1.95-5.63 4.66M886.7 561.61c2.75 0 5.11-1.95 5.63-4.66M885.14 529.68c0 1.34 1.09 2.43 2.43 2.43s2.43-1.09 2.43-2.43M890 484.44c0-1.34-1.09-2.43-2.43-2.43s-2.43 1.09-2.43 2.43M871.96 484.44c0-1.34-1.09-2.43-2.43-2.43s-2.43 1.09-2.43 2.43M867.1 529.68c0 1.34 1.09 2.43 2.43 2.43s2.43-1.09 2.43-2.43M823.42 352c.79 0 1.43-.64 1.43-1.43M908.47 484.87c-.79 0-1.43.64-1.43 1.43M907.04 512.07c0 .79.64 1.43 1.43 1.43M899.74 107.76a4.3 4.3 0 0 0-3.23-1.47M824.86 333.38c0-.79-.64-1.43-1.43-1.43M907.04 237.16c0 .79.64 1.43 1.43 1.43M908.47 181.32c-.79 0-1.43.64-1.43 1.43M869.96 110.59c.79 0 1.43-.64 1.43-1.43M842.75 109.16c0 .79.64 1.43 1.43 1.43M908.47 132.64c-.79 0-1.43.64-1.43 1.43M907.04 159.85c0 .79.64 1.43 1.43 1.43M908.22 117.46c.16.19.4.29.65.29M891.44 105.44c0 .47.38.86.86.86M796.36 578.22h-16.03M796.94 577.65h-17.19M779.75 573.35h17.19M780.33 572.78h16.03M779.75 573.35v4.3M796.94 573.35v4.3M796.94 573.35a.57.57 0 0 0-.57-.57M780.33 572.78a.57.57 0 0 0-.57.57M779.75 577.65c0 .32.26.57.57.57M796.36 578.22c.32 0 .57-.26.57-.57M801.23 571.64h-25.77M801.23 568.77h-25.77M802.66 555.17h11.46M814.12 542.28h-11.46M719.62 441.91h2.86M722.48 430.46h-2.86M775.46 571.64v-2.87M778.32 571.64v-2.87M798.37 571.64v-2.87M801.23 571.64v-2.87M801.95 303.89v11.45M814.83 315.34v-11.45M867.1 529.68v-45.24M890 484.44v45.24M802.66 542.28c-3.56 0-6.44 2.88-6.44 6.44s2.88 6.44 6.44 6.44M722.48 441.91a5.73 5.73 0 0 0 5.73-5.73c0-3.17-2.56-5.73-5.73-5.73M719.62 430.46a5.73 5.73 0 0 0-5.73 5.73c0 3.17 2.56 5.73 5.73 5.73M726.78 466.97a5.01 5.01 0 1 0 0-10.02 5.01 5.01 0 0 0 0 10.02M722.48 240.03a5.73 5.73 0 1 0 0-11.46 5.73 5.73 0 1 0 0 11.46M726.78 154.83a5.01 5.01 0 1 0 0-10.02 5.01 5.01 0 0 0 0 10.02M814.12 555.17c3.56 0 6.44-2.88 6.44-6.44s-2.88-6.44-6.44-6.44M894.3 441.92a5.73 5.73 0 1 0 0-11.46 5.73 5.73 0 0 0 0 11.46M890 466.97a5.01 5.01 0 1 0 0-10.02 5.01 5.01 0 0 0 0 10.02M808.39 540.13a5.01 5.01 0 1 0 0-10.02 5.01 5.01 0 0 0 0 10.02M801.95 315.34c0 3.56 2.88 6.44 6.44 6.44s6.44-2.88 6.44-6.44M814.83 303.89c0-3.56-2.88-6.44-6.44-6.44s-6.44 2.88-6.44 6.44M894.3 240.03a5.73 5.73 0 1 0 0-11.46 5.73 5.73 0 0 0 0 11.46M890 154.83a5.01 5.01 0 1 0 0-10.02 5.01 5.01 0 0 0 0 10.02M808.39 144.67a5.01 5.01 0 1 0 0-10.02 5.01 5.01 0 0 0 0 10.02M842.07 563.62h-15.75M784.62 572.78v-1.14M792.07 572.78v-1.14"/><path stroke="#231815" stroke-linecap="round" stroke-linejoin="round" stroke-width=".25" d="m784.54 568.13-.48-.49M784.54 566.7l-.48-.49M784.54 565.26l-.48-.48M784.54 563.83l-.48-.49M784.54 562.4l-.48-.49M784.54 560.97l-.48-.49M792.15 567.41l.48.49M784.22 559.21l-.03-.02M784.54 559.54l-.32-.33M792.15 565.98l.48.49M792.15 564.55l.48.49M792.15 563.12l.48.49M792.15 561.69l.48.48M792.15 560.25l.48.49M784.05 567.63l.01.01M784.06 566.21l-.01-.01M784.06 564.78l-.01-.02M784.06 563.34l-.01-.01M784.05 561.9l.01.01M784.06 560.48l-.01-.01M792.63 567.9l.01.01M792.63 566.47l.01.01M792.63 565.04l.01.01M792.63 563.61l.01.01M792.63 562.17l.01.02M792.63 560.74l.01.01M784.05 560.04v.43M784.05 561.47v.43M784.05 562.9v.43M784.05 564.33v.43M784.05 565.77v.43M784.05 567.2v.43M792.64 560.75v.43M792.64 562.19v.43M792.64 563.62v.43M792.64 565.05v.43M792.64 566.48v.43M792.64 567.91v.43M784.06 561.46l-.01.01M784.06 562.89l-.01.01M784.06 564.32l-.01.01M784.06 565.75l-.01.02M784.06 567.19l-.01.01M792.63 561.2l.01-.02M792.63 562.63l.01-.01M792.63 564.06l.01-.01M792.63 565.49l.01-.01M792.64 566.91l-.01.01M784.06 560.03l.5-.51M784.06 561.46l.5-.5M784.06 562.89l.5-.5M784.06 564.32l.5-.5M784.06 565.75l.5-.5M784.06 567.19l.5-.51M792.63 559.76l-.5.51M784.19 568.49l.37-.38M792.63 561.2l-.5.5M792.63 562.63l-.5.5M792.63 564.06l-.5.5M792.63 565.49l-.5.5M792.63 566.92l-.5.51M792.63 568.36l-.13.13M792.63 566.92s-.01 0-.02.01c-.01 0-.02 0-.04.01-.02 0-.03 0-.05.01-.02 0-.04 0-.06.01-.03 0-.05 0-.08.01-.03 0-.06 0-.09.01l-.23.03M784.63 561.78c.13-.01.26-.03.39-.04.16-.01.32-.03.48-.04.39-.03.77-.05 1.16-.07.22-.01.43-.02.65-.04s.45-.02.68-.04.46-.02.69-.04.45-.02.68-.04.44-.02.65-.04c.2-.01.41-.02.61-.04.18-.01.37-.02.55-.04.16-.01.32-.02.48-.04.07 0 .14-.01.21-.02.06 0 .12-.01.19-.02.05 0 .11-.01.16-.02.05 0 .09-.01.14-.02.04 0 .08-.01.11-.02.03 0 .06-.01.09-.02.02 0 .04-.01.06-.02h.03M784.05 561.9v-.01h.03c.01 0 .03-.01.05-.01s.04-.01.06-.01c.03 0 .05-.01.08-.01s.07-.01.1-.01l.25-.03M784.63 562.78c-.08 0-.15.02-.23.03-.03 0-.06 0-.09.01-.03 0-.05 0-.08.01-.02 0-.04 0-.06.01-.02 0-.03 0-.05.01-.01 0-.02 0-.04.01 0 0-.01 0-.02.01M792.64 562.19s0 .01-.01.02h-.12c-.03 0-.07.01-.1.02-.04 0-.08.01-.13.02-.05 0-.1.01-.15.02-.13.01-.25.03-.38.04-.16.01-.31.03-.47.04-.18.01-.37.03-.55.04-.2.01-.41.03-.61.04-.22.01-.44.03-.66.04s-.46.03-.69.04-.47.02-.7.04-.46.02-.69.04-.45.02-.67.04c-.4.02-.79.05-1.19.07-.16.01-.33.02-.49.04-.13.01-.27.02-.4.04M784.05 563.33v-.01s.02 0 .02-.01c.01 0 .02 0 .03-.01.01 0 .03 0 .04-.01.02 0 .04 0 .05-.01.02 0 .04 0 .06-.01.02 0 .05 0 .07-.01.06 0 .12-.02.17-.02.07 0 .14-.02.21-.02.08 0 .16-.02.24-.02.09 0 .18-.02.27-.02.1 0 .2-.01.3-.02.11 0 .22-.01.33-.02.24-.02.48-.03.72-.04.26-.02.52-.03.79-.04s.55-.03.82-.04.55-.03.83-.04.53-.03.8-.04c.25-.01.5-.03.74-.04.11 0 .23-.01.34-.02.11 0 .21-.01.32-.02.1 0 .19-.01.29-.02.09 0 .17-.01.26-.02.08 0 .15-.01.23-.02.06 0 .13-.01.19-.02.05 0 .11-.01.16-.02.04 0 .08-.01.12-.02.02 0 .03 0 .05-.01.01 0 .02 0 .04-.01 0 0 .02 0 .03-.01 0 0 .01 0 .02-.01M792.64 563.62v.01s-.02 0-.02.01c-.01 0-.02 0-.03.01-.01 0-.03 0-.04.01-.02 0-.04 0-.05.01-.02 0-.04 0-.06.01-.02 0-.05 0-.07.01-.06 0-.12.02-.17.02-.07 0-.14.02-.21.02-.08 0-.16.02-.24.02-.09 0-.18.02-.27.02-.1 0-.2.01-.3.02-.11 0-.22.01-.33.02-.24.02-.48.03-.72.04-.26.02-.52.03-.79.04s-.55.03-.82.04-.55.03-.83.04-.53.03-.8.04c-.25.01-.5.03-.74.04-.11 0-.23.01-.34.02-.11 0-.21.01-.32.02-.1 0-.19.01-.29.02-.09 0-.17.01-.26.02-.08 0-.15.01-.23.02-.06 0-.13.01-.19.02-.05 0-.11.01-.16.02-.04 0-.08.01-.12.02-.02 0-.03 0-.05.01-.01 0-.02 0-.04.01 0 0-.02 0-.03.01 0 0-.01 0-.02.01M792.13 565.99l-.01.01s-.02 0-.02.01c-.02 0-.05.02-.07.02-.03 0-.07.02-.1.02-.05 0-.09.02-.14.02-.06 0-.11.01-.17.02-.07 0-.13.01-.2.02-.07 0-.15.01-.22.02-.08 0-.17.01-.25.02-.19.02-.38.03-.56.04-.21.02-.42.03-.64.04-.23.01-.46.03-.69.04s-.47.03-.71.04-.47.03-.71.04-.46.03-.69.04c-.21.01-.42.03-.64.04-.19.01-.38.03-.56.04-.08 0-.17.01-.25.02-.07 0-.15.01-.22.02-.07 0-.13.01-.2.02-.06 0-.11.01-.17.02-.05 0-.09.01-.14.02-.03 0-.07.01-.1.02-.02 0-.05.01-.07.02 0 0-.02 0-.02.01 0 0-.01 0-.01.01M784.05 564.76v-.01s.02 0 .02-.01c.01 0 .02 0 .03-.01.01 0 .03 0 .04-.01.02 0 .04 0 .05-.01.02 0 .04 0 .06-.01.02 0 .05 0 .07-.01.06 0 .12-.02.17-.02.07 0 .14-.02.21-.02.08 0 .16-.02.24-.02.09 0 .18-.02.27-.02.1 0 .2-.01.3-.02.11 0 .22-.01.33-.02.24-.02.48-.03.72-.04.26-.02.52-.03.79-.04s.55-.03.82-.04.55-.03.83-.04.53-.03.8-.04c.25-.01.5-.03.74-.04.11 0 .23-.01.34-.02.11 0 .21-.01.32-.02.1 0 .19-.01.29-.02.09 0 .17-.01.26-.02.08 0 .15-.01.23-.02.06 0 .13-.01.19-.02.05 0 .11-.01.16-.02.04 0 .08-.01.12-.02.02 0 .03 0 .05-.01.01 0 .02 0 .04-.01 0 0 .02 0 .03-.01 0 0 .01 0 .02-.01M792.64 565.05v.01s-.02 0-.02.01c-.01 0-.02 0-.03.01-.01 0-.03 0-.04.01-.02 0-.04 0-.05.01-.02 0-.04 0-.06.01-.02 0-.05 0-.07.01-.06 0-.12.02-.17.02-.07 0-.14.02-.21.02-.08 0-.16.02-.24.02-.09 0-.18.02-.27.02-.1 0-.2.01-.3.02-.11 0-.22.01-.33.02-.24.02-.48.03-.72.04-.26.02-.52.03-.79.04s-.55.03-.82.04-.55.03-.83.04-.53.03-.8.04c-.25.01-.5.03-.74.04-.11 0-.23.01-.34.02-.11 0-.21.01-.32.02-.1 0-.19.01-.29.02-.09 0-.17.01-.26.02-.08 0-.15.01-.23.02-.06 0-.13.01-.19.02-.05 0-.11.01-.16.02-.04 0-.08.01-.12.02-.02 0-.03 0-.05.01-.01 0-.02 0-.04.01 0 0-.02 0-.03.01 0 0-.01 0-.02.01M784.05 566.2v-.01s.02 0 .02-.01c.01 0 .02 0 .03-.01.01 0 .03 0 .04-.01.02 0 .04 0 .05-.01.02 0 .04 0 .06-.01.02 0 .05 0 .07-.01.06 0 .12-.02.17-.02.07 0 .14-.02.21-.02.08 0 .16-.02.24-.02.09 0 .18-.02.27-.02.1 0 .2-.01.3-.02.11 0 .22-.01.33-.02.24-.02.48-.03.72-.04.26-.02.52-.03.79-.04s.55-.03.82-.04.55-.03.83-.04.53-.03.8-.04c.25-.01.5-.03.74-.04.11 0 .23-.01.34-.02.11 0 .21-.01.32-.02.1 0 .19-.01.29-.02.09 0 .17-.01.26-.02.08 0 .15-.01.23-.02.06 0 .13-.01.19-.02.05 0 .11-.01.16-.02.04 0 .08-.01.12-.02.02 0 .03 0 .05-.01.01 0 .02 0 .04-.01 0 0 .02 0 .03-.01 0 0 .01 0 .02-.01M792.64 566.48v.01s-.02 0-.02.01c-.01 0-.02 0-.03.01-.01 0-.03 0-.04.01-.02 0-.04 0-.05.01-.02 0-.04 0-.06.01-.02 0-.05 0-.07.01-.06 0-.12.02-.17.02-.07 0-.14.02-.21.02-.08 0-.16.02-.24.02-.09 0-.18.02-.27.02-.1 0-.2.01-.3.02-.11 0-.22.01-.33.02-.24.02-.48.03-.72.04-.26.02-.52.03-.79.04s-.55.03-.82.04-.55.03-.83.04-.53.03-.8.04c-.25.01-.5.03-.74.04-.11 0-.23.01-.34.02-.11 0-.21.01-.32.02-.1 0-.19.01-.29.02-.09 0-.17.01-.26.02-.08 0-.15.01-.23.02-.06 0-.13.01-.19.02-.05 0-.11.01-.16.02-.04 0-.08.01-.12.02-.02 0-.03 0-.05.01-.01 0-.02 0-.04.01 0 0-.02 0-.03.01 0 0-.01 0-.02.01M792.07 567.03c-.13.01-.27.03-.4.04-.16.01-.33.03-.49.04-.4.03-.79.05-1.19.07-.22.01-.45.03-.67.04s-.46.02-.69.04-.47.02-.7.04-.46.02-.69.04-.44.02-.66.04c-.2.01-.41.02-.61.04-.18.01-.37.02-.55.04-.16.01-.31.02-.47.04-.13.01-.25.02-.38.04-.05 0-.1.01-.15.02-.04 0-.08.01-.13.02-.03 0-.07.01-.1.02h-.12s-.01.01-.01.02M792.64 567.91v.01h-.03c-.01 0-.03.01-.05.01s-.04.01-.06.01c-.03 0-.05.01-.08.01s-.07.01-.1.01l-.25.03M792.13 564.56l-.01.01s-.02 0-.02.01c-.02 0-.05.02-.07.02-.03 0-.07.02-.1.02-.05 0-.09.02-.14.02-.06 0-.11.01-.17.02-.07 0-.13.01-.2.02-.07 0-.15.01-.22.02-.08 0-.17.01-.25.02l-.88.06-1.01.06-1.07.06-.53.03-.51.03-.48.03-.45.03-.4.03c-.12 0-.23.02-.34.03-.09 0-.19.02-.28.03-.04 0-.08.01-.12.02-.03 0-.07.01-.1.02-.03 0-.05.01-.08.02-.02 0-.04 0-.06.02-.02 0-.03 0-.04.02 0 0-.02 0-.03.02M785.06 562.28c-.07 0-.13.02-.2.03-.03 0-.05 0-.08.01-.02 0-.05 0-.07.01-.02 0-.04 0-.06.01-.02 0-.03 0-.04.01-.01 0-.02 0-.03.01 0 0-.01 0-.02.01M792.13 563.13l-.01.01s-.02 0-.02.01c-.02 0-.05.02-.07.02-.03 0-.07.02-.1.02-.05 0-.09.02-.14.02-.06 0-.11.01-.17.02-.07 0-.13.01-.2.02-.07 0-.15.01-.22.02-.08 0-.17.01-.25.02-.19.02-.38.03-.56.04-.21.02-.42.03-.64.04-.23.01-.46.03-.69.04s-.47.03-.71.04-.47.03-.71.04-.46.03-.69.04c-.21.01-.42.03-.64.04-.19.01-.38.03-.56.04-.08 0-.17.01-.25.02-.07 0-.15.01-.22.02-.07 0-.13.01-.2.02-.06 0-.11.01-.17.02-.05 0-.09.01-.14.02-.03 0-.07.01-.1.02-.02 0-.05.01-.07.02 0 0-.02 0-.02.01 0 0-.01 0-.01.01M792.13 567.43s-.01 0-.02.01c-.01 0-.02 0-.03.01-.01 0-.03 0-.04.01-.02 0-.04 0-.06.01-.02 0-.05 0-.07.01-.03 0-.05 0-.08.01-.07 0-.13.02-.2.03M792.64 560.75v.01s-.02 0-.02.01c-.01 0-.02 0-.03.01-.01 0-.03 0-.04.01-.02 0-.04 0-.05.01-.02 0-.04 0-.06.01-.02 0-.05 0-.07.01-.06 0-.12.02-.17.02-.07 0-.14.02-.21.02-.08 0-.16.02-.24.02-.09 0-.18.02-.27.02-.1 0-.2.01-.3.02-.11 0-.22.01-.33.02-.24.02-.48.03-.72.04-.26.02-.52.03-.79.04s-.55.03-.82.04-.55.03-.83.04-.53.03-.8.04c-.25.01-.5.03-.74.04-.11 0-.23.01-.34.02-.11 0-.21.01-.32.02-.1 0-.19.01-.29.02-.09 0-.17.01-.26.02-.08 0-.15.01-.23.02-.06 0-.13.01-.19.02-.05 0-.11.01-.16.02-.04 0-.08.01-.12.02-.02 0-.03 0-.05.01-.01 0-.02 0-.04.01 0 0-.02 0-.03.01 0 0-.01 0-.02.01M784.19 568.49h8.31M790.35 557.03h-4.01M792.64 559.32l-.5-.5M792.14 558.82l-1.79-1.79M792.14 558.82v.01M784.62 568.77v-.28M792.07 568.77v-.28M792.64 559.32v.43M784.19 559.18v.01M784.06 560.03l-.01.01M792.63 568.36l.01-.02M784.19 559.18l2.15-2.15M792.64 559.75v.01h-.01M791.63 567.53c-.11.01-.23.03-.34.04-.14.01-.28.03-.42.04-.34.03-.68.05-1.02.07-.19.01-.38.02-.57.04s-.4.02-.6.04-.4.02-.61.04-.4.02-.6.04-.38.02-.58.04c-.18.01-.36.02-.54.04-.16.01-.33.02-.49.04-.14.01-.28.02-.43.04-.06 0-.12.01-.19.02-.06 0-.11.01-.17.02-.05 0-.1.01-.15.02-.04 0-.08.01-.12.02-.03 0-.07.01-.1.02-.03 0-.05.01-.08.02-.02 0-.04.01-.05.02h-.03M792.07 568.03l-.3.03-.35.03-.83.06-.97.06-1.05.06-1.06.06-1.01.06-.9.06c-.24.02-.49.03-.73.06M791.82 568.49c.11 0 .22-.02.33-.03.04 0 .09-.01.13-.02.04 0 .08-.01.11-.02.03 0 .06-.01.09-.02.02 0 .05-.01.07-.02.02 0 .03 0 .05-.02h.03M792.64 559.32v.01s-.02 0-.02.01c-.01 0-.02 0-.03.01-.01 0-.03 0-.04.01-.02 0-.04 0-.05.01-.02 0-.04 0-.06.01-.02 0-.05 0-.07.01-.06 0-.12.02-.17.02-.07 0-.14.02-.21.02-.08 0-.16.02-.24.02-.09 0-.18.02-.27.02-.1 0-.2.01-.3.02-.11 0-.22.01-.33.02-.24.02-.48.03-.72.04-.26.02-.52.03-.79.04s-.55.03-.82.04-.55.03-.83.04-.53.03-.8.04c-.25.01-.5.03-.74.04-.11 0-.23.01-.34.02-.11 0-.21.01-.32.02-.1 0-.19.01-.29.02-.09 0-.17.01-.26.02-.08 0-.15.01-.23.02-.06 0-.13.01-.19.02-.05 0-.11.01-.16.02-.04 0-.08.01-.12.02-.02 0-.03 0-.05.01-.01 0-.02 0-.04.01 0 0-.02 0-.03.01 0 0-.01 0-.02.01M792.63 559.76s-.01 0-.02.01c0 0-.02 0-.03.01-.01 0-.02 0-.04.01-.02 0-.03 0-.05.01-.04 0-.08.02-.12.02-.05 0-.11.02-.16.02-.06 0-.13.02-.19.02-.08 0-.15.02-.23.02-.09 0-.17.02-.26.02-.1 0-.19.01-.29.02-.11 0-.21.01-.32.02-.11 0-.23.01-.34.02-.25.02-.5.03-.74.04-.27.02-.53.03-.8.04s-.55.03-.83.04-.55.03-.82.04-.52.03-.79.04c-.24.01-.48.03-.72.04-.11 0-.22.01-.33.02-.1 0-.2.01-.3.02-.09 0-.18.01-.27.02-.08 0-.16.01-.24.02-.07 0-.14.01-.21.02a1 1 0 0 0-.17.02c-.02 0-.05 0-.07.01-.02 0-.04 0-.06.01-.02 0-.04 0-.05.01-.01 0-.03 0-.04.01-.01 0-.02 0-.03.01 0 0-.02 0-.02.01v.01M792.13 561.7h-.03c-.02 0-.04.01-.05.02-.03 0-.05.01-.08.02-.03 0-.07.01-.1.02-.04 0-.08.01-.12.02-.05 0-.1.01-.15.02-.06 0-.11.01-.17.02-.06 0-.12.01-.19.02-.14.01-.28.03-.43.04-.16.01-.33.02-.49.04-.18.01-.36.02-.54.04-.19.01-.38.02-.58.04s-.4.02-.6.04-.4.02-.61.04-.4.02-.6.04-.38.02-.57.04c-.34.02-.68.05-1.02.07-.14.01-.28.02-.42.04-.11.01-.23.02-.34.04M792.13 558.84l-.01.01s-.02 0-.02.01c-.02 0-.05.02-.07.02-.03 0-.07.02-.1.02-.05 0-.09.02-.14.02-.06 0-.11.01-.17.02-.07 0-.13.01-.2.02-.07 0-.15.01-.22.02-.08 0-.17.01-.25.02-.19.02-.38.03-.56.04-.21.02-.42.03-.64.04-.23.01-.46.03-.69.04s-.47.03-.71.04-.47.03-.71.04-.46.03-.69.04c-.21.01-.42.03-.64.04-.19.01-.38.03-.56.04-.08 0-.17.01-.25.02-.07 0-.15.01-.22.02-.07 0-.13.01-.2.02-.06 0-.11.01-.17.02-.05 0-.09.01-.14.02-.03 0-.07.01-.1.02-.02 0-.05.01-.07.02 0 0-.02 0-.02.01 0 0-.01 0-.01.01M792.14 558.83h-.03"/><path stroke="#231815" stroke-linecap="round" stroke-linejoin="round" stroke-width=".25" d="M792.1 558.84s-.05 0-.07.01c-.04 0-.07 0-.11.01-.05 0-.09 0-.14.01-.06 0-.11 0-.17.01-.07 0-.13 0-.2.01-.08 0-.15 0-.23.01-.18 0-.36.02-.54.02-.21 0-.42.01-.62.02-.23 0-.46.01-.69.02-.24 0-.48.01-.72.02s-.49.01-.74.02-.48.01-.73.02-.46.01-.69.02c-.21 0-.42.01-.63.02-.1 0-.19 0-.29.01-.09 0-.18 0-.26.01-.08 0-.16 0-.24.01-.07 0-.14 0-.21.01-.06 0-.12 0-.18.01-.05 0-.1 0-.15.01-.04 0-.08 0-.12.01h-.17M792.13 560.27l-.01.01s-.02 0-.02.01c-.02 0-.05.02-.07.02-.03 0-.07.02-.1.02-.05 0-.09.02-.14.02-.06 0-.11.01-.17.02-.07 0-.13.01-.2.02-.07 0-.15.01-.22.02-.08 0-.17.01-.25.02l-.88.06-1.01.06-1.07.06-.53.03-.51.03-.48.03-.45.03-.4.03c-.12 0-.23.02-.34.03-.09 0-.19.02-.28.03-.04 0-.08.01-.12.02-.03 0-.07.01-.1.02-.03 0-.05.01-.08.02-.02 0-.04 0-.06.02-.02 0-.03 0-.04.02 0 0-.02 0-.03.02"/><path stroke="#231815" stroke-linecap="round" stroke-linejoin="round" d="M891.44 104.92v.52c0 .47.38.86.86.86h4.21c1.24 0 2.42.53 3.23 1.47l8.48 9.69c.16.19.4.29.65.29h3.91v14.89h-4.3c-.79 0-1.43.64-1.43 1.43v25.77c0 .79.64 1.43 1.43 1.43h1.43v-7.16h2.86v330.75h-4.3c-.79 0-1.43.64-1.43 1.43v25.77c0 .79.64 1.43 1.43 1.43h1.43v-7.16h2.86v25.2h-10.87c-2.75 0-5.11 1.95-5.63 4.66l-3.95 20.76a5.73 5.73 0 0 1-5.63 4.66h-45.5l.88 1.15v.86h-15.75v-.86l.88-1.15h-23.1a2.86 2.86 0 0 0-2.86 2.86v7.16h-9.16v1.15h4.3c.32 0 .57.26.57.57v4.3c0 .32-.26.57-.57.57h-16.04a.57.57 0 0 1-.57-.57v-4.3c0-.32.26-.57.57-.57h4.3v-1.15h-9.16v-7.16a2.86 2.86 0 0 0-2.86-2.86H730.1c-2.75 0-5.11-1.95-5.63-4.66l-3.95-20.76a5.73 5.73 0 0 0-5.63-4.66h-10.87v-25.2h2.86v7.16h1.43c.79 0 1.43-.64 1.43-1.43v-25.77c0-.79-.64-1.43-1.43-1.43h-4.3V154.12h2.86v7.16h1.43c.79 0 1.43-.64 1.43-1.43v-25.77c0-.79-.64-1.43-1.43-1.43H704v-14.89h3.91c.25 0 .48-.11.65-.29l8.48-9.69c.82-.93 1.99-1.47 3.23-1.47h4.21c.47 0 .86-.38.86-.86v-3.44h166.09v2.86"/><path fill="url(#a)" d="M395.21 174.31H200.64v344.58h194.57z"/><path stroke="#231815" stroke-linecap="round" stroke-linejoin="round" stroke-width=".5" d="M209.35 577.34h177.16M186.38 126.35v428.03M409.47 554.38V126.35M395.21 518.89H200.64M200.64 518.89V174.31M395.21 174.31v344.58M200.64 174.31h194.57M386.51 103.39H209.35M186.38 554.38c0 12.68 10.28 22.96 22.96 22.96M386.51 577.34c12.68 0 22.96-10.28 22.96-22.96"/><path stroke="#898989" stroke-linecap="round" stroke-linejoin="round" stroke-width=".5" d="M386.51 579.57H209.35M184.16 554.38V126.35M411.7 126.35v428.03M209.35 101.16h177.16M184.16 554.38c0 13.91 11.28 25.19 25.19 25.19M386.51 579.57c13.91 0 25.19-11.28 25.19-25.19M411.7 126.35c0-13.91-11.28-25.19-25.19-25.19M209.35 101.16c-13.91 0-25.19 11.28-25.19 25.19"/><path stroke="#231815" stroke-linecap="round" stroke-linejoin="round" stroke-width=".5" d="M209.35 103.39c-12.68 0-22.96 10.28-22.96 22.96M409.47 126.35c0-12.68-10.28-22.96-22.96-22.96M330.53 146.41c7.478 0 13.54-6.062 13.54-13.54s-6.062-13.54-13.54-13.54-13.54 6.062-13.54 13.54 6.062 13.54 13.54 13.54M265.33 146.41c7.478 0 13.54-6.062 13.54-13.54s-6.062-13.54-13.54-13.54-13.54 6.062-13.54 13.54 6.062 13.54 13.54 13.54"/><path stroke="#231815" stroke-linecap="round" stroke-linejoin="round" d="M295.08 582.72h84.75M379.83 582.72h6.81M209.35 582.72H293M181 126.35v428.03M414.86 554.38V126.35M386.51 98H209.35M389.27 582.59c.58-.06 1.15-.13 1.72-.22M390.99 582.37c.15-.02.29-.05.44-.07M388.83 582.63c.15-.01.29-.03.43-.04M387.66 582.7c.21 0 .41-.02.62-.03M388.28 582.67c.18-.01.37-.02.55-.04M391.43 582.29c.7-.12 1.4-.27 2.09-.45M387.16 582.72c.11 0 .23 0 .34-.01M386.64 582.72h.52M393.52 581.84c.82-.21 1.63-.46 2.43-.74M293 582.72h2.08M181 554.38c0 1.88.19 3.77.56 5.61s.91 3.6 1.63 5.32c1.41 3.36 3.47 6.46 6.05 9.05a28.6 28.6 0 0 0 9.06 6.12c1.73.73 3.53 1.29 5.37 1.67s3.77.57 5.67.57M395.95 581.11c2.73-.97 5.33-2.36 7.66-4.12s4.31-3.81 5.98-6.15 3-4.97 3.89-7.73 1.38-5.79 1.38-8.73M414.86 126.35c0-1.88-.19-3.77-.56-5.61s-.91-3.6-1.63-5.32a28.5 28.5 0 0 0-6.05-9.05 28.7 28.7 0 0 0-9.06-6.12c-1.73-.73-3.53-1.29-5.37-1.67s-3.77-.57-5.67-.57M209.35 98c-1.9 0-3.8.19-5.67.57s-3.64.93-5.37 1.67a28.6 28.6 0 0 0-9.06 6.12 28.3 28.3 0 0 0-6.05 9.05 27.7 27.7 0 0 0-1.63 5.32c-.36 1.82-.56 3.73-.56 5.61"/><path fill="#898989" fill-rule="evenodd" d="M282.96 545.17v-.7l.02-.14v-.14l.02-.14.02-.14.02-.14.02-.14.02-.14.03-.14.03-.14.03-.14.04-.14.04-.14.05-.13.05-.13.06-.13.06-.13.07-.13.07-.12.08-.12.08-.12.09-.11.09-.11.1-.1.1-.1.11-.09.11-.09.12-.08.12-.08.12-.07.13-.06.13-.06.13-.05.13-.05.13-.04.14-.04.14-.04.14-.03.14-.03.14-.03.14-.02.14-.02.14-.02h.14l.14-.03h.14l.14-.02h.14l.14-.01h.98l.14.02h.14l.14.03.14.02.14.03.14.03.14.03.14.04.13.04.13.05.13.05.13.06.13.06.12.07.12.07.12.08.11.08.11.09.11.09.1.1.1.1.09.11.09.11.08.12.07.12.07.12.06.13.06.13.05.13.05.13.04.14.04.14.03.14.02.14.02.14.02.14v.14l.02.14v.42l-.02.14-.02.14-.02.14-.03.14-.03.14-.04.14-.05.13-.05.13-.06.13-.07.12-.08.12-.08.12-.09.11-.1.1-.1.1-.11.09-.11.08-.12.08-.12.07-.13.07-.13.06-.13.05-.13.05-.14.04-.14.04-.14.03-.14.03-.14.02-.14.02-.14.02h-.14l-.14.02h-.98l-.14-.01h-.14l-.14-.01h-.14l-.14-.02h-.14l-.14-.02h-.14l-.14-.02h-.14l-.14-.03h-.14l-.14-.03-.14-.02-.14-.02-.05-.1v-.99l.07-.07h3.26l.14-.01.14-.04.13-.06.12-.08.1-.1.09-.11.07-.12.06-.13.05-.13.04-.14.03-.14.02-.14.02-.14v-.14l.01-.14v-.42l-.02-.14-.02-.14-.03-.14-.04-.14-.05-.13-.06-.13-.07-.12-.09-.11-.1-.1-.11-.09-.12-.08-.13-.06-.13-.05-.14-.04-.14-.03-.14-.03-.14-.02-.14-.02h-.14l-.14-.02h-1.27l-.14.02-.14.02-.14.02-.14.03-.14.04-.13.05-.13.06-.12.07-.11.08-.1.1-.09.11-.08.11-.07.12-.06.13-.05.13-.05.13-.04.14-.03.14-.03.14-.02.14-.02.14-.02.14v.14l-.03.14v.14l-.02.14v5.04l-.08.06h-1.7l-.05-.09v-4.45m-14.18-.85.14.02.14.02.14.03.14.03.14.03.14.04.14.04.14.04.13.05.13.05.13.06.13.06.12.07.12.07.12.08.11.09.11.09.1.1.09.11.09.11.08.12.07.12.06.13.05.13.04.14.04.14.03.14.02.14v.14l.02.14v.42l-.02.14-.02.14-.02.14-.03.14-.04.14-.04.13-.05.13-.06.13-.07.13-.07.12-.08.12-.09.11-.1.1-.1.1-.11.09-.11.09-.12.08-.12.07-.12.07-.13.06-.13.06-.13.05-.13.05-.14.04-.14.04-.14.03-.14.03-.14.03-.14.02-.14.02-.14.02-.14.02h-.14l-.14.02h-.14l-.14.01h-1.12l-.14-.01h-.14l-.14-.02-.14-.02-.14-.02-.14-.02-.14-.02-.14-.03-.14-.03-.14-.03-.14-.04-.14-.04-.14-.04-.13-.05-.13-.05-.13-.05-.13-.06-.13-.06-.12-.07-.12-.08-.11-.09-.09-.11-.04-.13v-1.12l.14.05.13.05.13.05.13.05.13.05.13.05.13.04.14.04.14.04.14.04.14.04.14.03.14.03.14.03.14.03.14.02.14.02.14.02.14.02h.14l.14.02h1.4l.14-.01h.14l.14-.03.14-.02.14-.03.14-.03.13-.04.13-.06.12-.07.11-.09.1-.1.08-.12.06-.13.04-.14.03-.14v-.14l.02-.14v-.14l-.02-.14-.03-.14-.04-.13-.07-.12-.09-.11-.11-.09-.12-.07-.13-.06-.13-.06-.13-.04-.14-.03-.14-.03-.14-.02-.14-.02-.14-.02-.14-.02-.14-.02-.14-.02-.14-.02-.14-.02-.14-.02-.14-.02-.14-.02-.14-.02-.14-.02-.14-.02-.14-.02-.14-.03-.14-.03-.14-.03-.14-.03-.14-.03-.14-.04-.14-.04-.13-.05-.13-.05-.13-.05-.13-.06-.13-.06-.12-.07-.12-.08-.11-.08-.11-.09-.1-.1-.09-.11-.09-.11-.08-.12-.07-.13-.06-.13-.05-.13-.04-.14-.03-.14-.02-.14v-.14l-.02-.14v-.42l.03-.14.02-.14.03-.14.04-.14.04-.14.05-.13.06-.13.07-.13.07-.12.08-.12.09-.11.1-.1.1-.1.11-.09.11-.08.12-.08.12-.07.13-.07.13-.06.13-.05.13-.05.13-.04.14-.04.14-.03.14-.03.14-.03.14-.02.14-.02.14-.02h.14l.14-.02h.14l.14-.01h1.12l.14.02h.14l.14.03.14.02.14.02.14.02.14.02.14.03.14.03.14.03.14.03.14.04.14.04.14.04.13.05.13.05.13.05.13.06.13.07.12.08.09.11v1.13l-.13-.03-.14-.04-.14-.04-.14-.03-.14-.03-.14-.03-.14-.03-.14-.03-.14-.03-.14-.03-.14-.02-.14-.02-.14-.02-.14-.02-.14-.02h-.14l-.14-.03h-.14l-.14-.02h-1.55l-.14.02h-.14l-.14.03-.14.02-.14.03-.14.04-.13.06-.12.07-.11.09-.09.11-.06.13-.04.14-.02.14v.14l-.02.14v.14l.04.14.06.13.08.11.11.09.12.07.13.06.14.04.14.03.14.03.14.02.14.02.14.02.14.02.14.02.14.02.14.02.14.02.14.02.14.02.14.02.14.02.14.02.14.02.23.03m10.25 3.58.09-.11.07-.12.06-.13.04-.13.03-.14.02-.14v-.14l.02-.14v-5.8l.02-.12h1.56l.11.03v5.95l-.01.14v.14l-.02.14-.02.14-.02.14-.03.14-.03.14-.03.14-.04.14-.04.13-.05.13-.06.13-.06.13-.07.12-.08.12-.08.12-.09.11-.1.1-.1.1-.11.09-.11.08-.12.08-.12.07-.13.06-.13.05-.13.04-.14.04-.14.03-.14.02h-.14l-.14.02h-2.97l-.14-.03-.14-.02-.14-.03-.14-.04-.13-.05-.13-.05-.13-.06-.12-.07-.12-.08-.11-.08-.11-.09-.1-.1-.1-.1-.09-.11-.08-.11-.08-.12-.07-.12-.07-.13-.06-.13-.06-.13-.05-.13-.05-.13-.04-.14-.04-.14-.03-.14-.03-.14-.02-.14-.02-.14-.02-.14v-.14l-.02-.14v-5.81l.11-.03h1.56l.03.11v5.67l.01.14v.14l.04.14.03.14.04.14.05.13.06.13.08.12.09.11.1.1.12.08.13.06.13.05.14.03.14.02h.14l.14.01h1.84l.14-.02.14-.02.14-.04.13-.05.13-.06.21-.15m36.55-6.41.09-.11.1-.1.11-.09.12-.08.12-.08.12-.07.13-.06.13-.05.13-.05.14-.04.14-.03.14-.03.14-.02h.14l.14-.02h1.55l.14.03.14.03.14.03.14.04.13.05.13.05.13.06.13.07.12.07.12.08.11.09.11.09.1.1.1.1.09.11.08.11.08.12.07.12.06.13.06.13.05.13.05.13.04.14.04.14.03.14.03.14.02.14.02.14v.14l.02.14v6.09l-.06.08h-1.56v-6.24l-.03-.14-.03-.14-.04-.14-.04-.13-.06-.13-.07-.12-.08-.12-.09-.11-.1-.1-.11-.09-.12-.07-.13-.06-.13-.05-.14-.04-.14-.03-.14-.02h-.14l-.14-.02h-.28l-.14.02-.14.02-.14.03-.13.05-.13.06-.12.07-.11.08-.1.1-.09.11-.08.12-.07.13-.05.13-.04.13-.03.14-.03.14-.02.14v.14l-.02.14v5.95l-.12.02h-1.54v-6.25l-.02-.14-.02-.14-.03-.14-.04-.14-.05-.13-.07-.13-.08-.12-.09-.11-.11-.09-.12-.08-.12-.07-.13-.05-.14-.04-.14-.03-.14-.02-.14-.02h-.14l-.14-.02h-.42l-.14.04-.14.03-.14.04-.13.05-.12.07-.12.08-.11.09-.09.11-.08.12-.07.12-.06.13-.04.13-.03.14-.02.14-.02.14v.14l-.02.14v5.95l-.1.04h-1.42l-.08-.06v-6.09l.02-.14v-.14l.03-.14.02-.14.03-.14.03-.14.03-.14.04-.14.04-.13.05-.13.06-.13.06-.13.07-.12.07-.12.08-.12.09-.11.09-.11.1-.1.11-.09.11-.09.12-.08.12-.07.13-.07.13-.06.13-.05.13-.04.14-.04.14-.03.14-.02.14-.02h.14l.14-.02h1.27l.14.02.14.02.14.03.14.03.14.04.14.04.13.05.13.05.13.06.13.07.12.07.12.08.11.09.2.19m16.33 3.75v.14l.01.14v.42l-.01.14v.14l-.03.14-.02.14-.02.14-.03.14-.03.14-.03.14-.04.14-.04.14-.04.13-.05.13-.05.13-.06.13-.06.13-.07.13-.07.12-.07.12-.08.12-.08.11-.09.11-.09.11-.1.1-.1.1-.11.09-.11.09-.11.08-.12.08-.12.07-.12.07-.13.06-.13.06-.13.05-.13.05-.13.05-.14.04-.14.04-.14.03-.14.03-.14.02-.14.02-.14.02h-.14l-.14.02h-.7l-.14-.01h-.42l-.14-.01h-.14l-.14-.02-.14-.02-.14-.02-.14-.02-.14-.03-.14-.03-.14-.03-.14-.04-.14-.04-.13-.05-.13-.05-.13-.05-.13-.06-.13-.06-.12-.07-.12-.07-.12-.08-.11-.09-.11-.09-.1-.1-.1-.1-.09-.11-.09-.11-.08-.12-.08-.12-.07-.12-.06-.13-.06-.13-.05-.13-.04-.14-.04-.14-.03-.14-.02-.14-.02-.14v-.14l-.02-.14v-.42l.03-.14.03-.14.04-.14.05-.13.06-.13.07-.12.08-.12.09-.11.09-.11.1-.1.11-.09.11-.08.12-.08.12-.07.13-.07.13-.06.13-.05.13-.05.14-.04.14-.04.14-.03.14-.03.14-.03.14-.02.14-.02.14-.02h.14l.14-.03h.14l.14-.02h.42l.14.01h.14l.14.03.14.02.14.02.14.02.14.02.14.02.14.02.14.02.14.02.14.02.14.02.14.02.14.03.14.03.14.03.14.03.07.09v.85l-.13.02h-3.4l-.14.01-.14.03-.13.05-.12.07-.11.09-.09.11-.07.12-.05.13-.03.14-.02.14v.42l.01.14.02.14.03.14.04.14.06.13.07.12.09.11.1.1.11.08.12.07.13.05.14.04.14.03.14.02h.14l.14.02h.14l.14.02h.14l.14.01h.98l.14-.02h.14l.14-.03.14-.02.14-.03.14-.04.13-.05.13-.06.12-.07.12-.08.11-.09.1-.1.09-.11.08-.12.06-.13.05-.13.05-.13.04-.14.03-.14.03-.14.02-.14.02-.14.02-.14v-.14l.03-.14v-.14l.02-.14v-.98l-.01-.14v-.14l-.02-.14-.02-.14-.02-.14-.02-.14-.03-.14-.03-.14-.03-.14-.04-.14-.05-.13-.05-.13-.06-.13-.07-.12-.08-.12-.09-.11-.1-.1-.11-.09-.12-.08-.12-.07-.13-.06-.13-.05-.14-.04-.14-.03-.14-.03-.14-.02-.14-.02h-.14l-.14-.02h-.14l-.14-.01h-.7l-.14.02h-.14l-.14.02h-.14l-.14.03-.14.02-.14.02-.14.02-.14.02-.14.02-.14.02-.14.02-.14.02-.14.02-.14.02-.14.03-.14.03-.14.03-.14.03-.14.03-.14.03-.14.03-.14.03h-.1v-1.01l.07-.12.09-.11.11-.09.12-.08.12-.07.13-.07.13-.06.13-.05.13-.05.14-.04.14-.04.14-.03.14-.03.14-.03.14-.02.14-.02.14-.02.14-.02.14-.02h.14l.14-.02h.14l.14-.02h.14l.14-.01h.98l.14.01h.14l.14.02h.14l.14.03.14.02.14.02.14.02.14.03.14.03.14.03.14.04.14.04.13.05.13.05.13.06.13.06.13.07.12.07.12.08.11.08.11.09.11.09.1.1.1.1.09.11.08.11.08.12.07.12.07.12.06.13.06.13.05.13.05.13.04.13.04.14.04.14.03.14.03.14.03.14.02.14.02.14.02.14v.14l.03.14v.14l.02.14v.14l.01.14v.31m-38.61-1.28v-.42l.02-.14v-.14l.03-.14.02-.14.03-.14.03-.14.04-.14.04-.14.05-.13.05-.13.06-.13.06-.13.07-.12.08-.12.08-.12.09-.11.1-.1.1-.1.11-.09.11-.09.12-.08.12-.07.13-.06.13-.06.13-.05.13-.04.14-.04.14-.03.14-.02.14-.02h.14l.14-.02h.7l.14.02h.14l.14.02h.14l.14.02h.14l.14.03.14.02.14.02.14.02.14.02.14.02.03.12V542l-.09.06h-1.98l-.14.01h-.14l-.14.03-.14.03-.13.04-.13.06-.12.08-.1.1-.08.12-.06.13-.05.13-.03.14-.03.14-.02.14v.14l-.02.14v6.23h-1.7l-.08-.06v-5.84m11.74.79h.14l.14-.02.14-.03.13-.04.13-.06.11-.09.09-.11.07-.12.05-.13.03-.14.02-.14v-.42l-.02-.14-.02-.14-.03-.14-.04-.14-.05-.13-.07-.13-.08-.11-.1-.1-.11-.08-.12-.07-.13-.05-.14-.04-.14-.03-.14-.02-.14-.02h-.14l-.14-.02h-.14l-.14-.01h-1.12l-.14.01h-.14l-.14.03-.14.02-.14.03-.14.04-.13.05-.13.06-.12.07-.12.08-.11.09-.1.1-.09.11-.08.12-.07.12-.06.13-.05.13-.04.14-.04.14-.03.14-.03.14-.02.14-.02.14-.02.14v.14l-.02.14v.14l-.01.14v.98l.01.14v.14l.02.14.02.14.02.14.02.14.03.14.03.14.04.14.05.13.05.13.06.13.07.12.08.12.09.11.1.1.11.09.11.08.12.07.13.06.13.05.13.04.14.04.14.03.14.02.14.02h.14l.14.02h.14l.14.01h1.26l.14-.01h.14l.14-.02h.14l.14-.03.14-.02.14-.02.14-.02.14-.02.14-.03.14-.03.14-.03.14-.03.14-.03.14-.03.14-.03.14-.03.14-.03.14-.04.14-.04.02.12v.85l-.03.14-.08.12-.1.1-.12.08-.12.07-.13.06-.13.06-.13.05-.13.05-.14.04-.14.04-.14.04-.14.03-.14.03-.14.03-.14.02-.14.02-.14.02-.14.02-.14.02h-.14l-.14.03h-.14l-.14.02h-.14l-.14.01h-.98l-.14-.01h-.14l-.14-.02h-.14l-.14-.03-.14-.02-.14-.02-.14-.03-.14-.03-.14-.03-.14-.04-.14-.04-.13-.05-.13-.05-.13-.05-.13-.06-.13-.06-.12-.07-.12-.08-.12-.08-.11-.09-.11-.09-.1-.1-.1-.1-.09-.11-.09-.11-.08-.12-.08-.12-.07-.12-.07-.13-.06-.13-.06-.13-.05-.13-.05-.13-.04-.14-.04-.14-.03-.14-.03-.14-.03-.14-.02-.14-.02-.14-.02-.14-.02-.14v-.14l-.02-.14v-.14l-.02-.14v-.98l.01-.14v-.14l.02-.14v-.14l.03-.14.02-.14.02-.14.02-.14.03-.14.03-.14.03-.14.04-.14.04-.14.04-.13.05-.13.05-.13.06-.13.06-.13.07-.12.07-.12.08-.12.09-.11.09-.11.1-.1.1-.1.11-.09.11-.09.11-.08.12-.08.12-.07.13-.07.13-.06.13-.06.13-.05.13-.05.14-.04.14-.04.14-.03.14-.03.14-.03.14-.02.14-.02.14-.02.14-.02h.14l.14-.02h.14l.14-.02h1.12l.14.01h.14l.14.02.14.02.14.02.14.02.14.03.14.03.14.03.14.04.13.04.13.05.13.05.13.06.13.06.12.07.12.07.12.08.11.09.11.09.1.1.1.1.09.11.08.11.08.12.07.12.06.13.06.13.05.13.04.13.04.14.03.14.03.14.02.14.02.14v.14l.02.14v.42l-.03.14-.03.14-.04.14-.05.13-.06.13-.07.13-.07.12-.08.11-.09.11-.1.1-.11.09-.11.09-.12.08-.12.07-.13.07-.13.06-.13.05-.13.05-.14.04-.14.04-.14.03-.14.03-.14.03-.14.02-.14.02-.14.02h-.14l-.14.02h-1.26l-.14-.01h-.14l-.14-.01h-.14l-.14-.02h-.14l-.14-.02h-.14l-.14-.02h-.14l-.14-.03-.14-.02-.14-.02-.13-.03v-1.13h.13l.14-.01h3.03z" clip-rule="evenodd"/><path stroke="#231815" stroke-linecap="round" stroke-linejoin="round" stroke-width=".5" d="M186.53 554.37c0 .64.03 1.27.08 1.91.38 4.5 2.88 8.56 6.74 10.91a29.04 29.04 0 0 0 15.15 4.26h178.87c5.35 0 10.59-1.47 15.15-4.26 3.86-2.36 6.36-6.41 6.74-10.91.05-.63.08-1.27.08-1.91"/><path fill="#b5b5b6" stroke="#b5b5b6" stroke-miterlimit="10" stroke-width=".05" d="M265.33 135.53a2.66 2.66 0 1 0 0-5.32 2.66 2.66 0 0 0 0 5.32Z"/><path stroke="#231815" stroke-miterlimit="10" stroke-width=".25" d="M265.33 140.8a7.93 7.93 0 0 0 7.93-7.93 7.93 7.93 0 0 0-7.93-7.93 7.93 7.93 0 0 0-7.93 7.93 7.93 7.93 0 0 0 7.93 7.93Z"/><path stroke="#b5b5b6" stroke-miterlimit="10" stroke-width=".25" d="M265.33 141.89a9.02 9.02 0 0 0 9.02-9.02 9.02 9.02 0 0 0-9.02-9.02 9.02 9.02 0 0 0-9.02 9.02 9.02 9.02 0 0 0 9.02 9.02Z"/><path fill="#b5b5b6" stroke="#b5b5b6" stroke-miterlimit="10" stroke-width=".05" d="M330.53 135.53a2.66 2.66 0 1 0 0-5.32 2.66 2.66 0 0 0 0 5.32Z"/><path stroke="#231815" stroke-miterlimit="10" stroke-width=".25" d="M330.53 140.8a7.93 7.93 0 1 0 0-15.86 7.93 7.93 0 0 0 0 15.86Z"/><path stroke="#b5b5b6" stroke-miterlimit="10" stroke-width=".25" d="M330.53 141.89a9.02 9.02 0 1 0 0-18.04 9.02 9.02 0 0 0 0 18.04Z"/><path stroke="#231815" stroke-miterlimit="10" stroke-width=".5" d="M229.9 130.06a6.68 6.68 0 1 0 0-13.36 6.68 6.68 0 0 0 0 13.36ZM229.9 148.89a6.68 6.68 0 1 0 0-13.36 6.68 6.68 0 0 0 0 13.36ZM365.96 130.06a6.68 6.68 0 1 0 0-13.36 6.68 6.68 0 0 0 0 13.36ZM365.96 148.89a6.68 6.68 0 1 0 0-13.36 6.68 6.68 0 0 0 0 13.36Z"/><path fill="#040000" d="M201.98 137.19a1.33 1.33 0 1 0 0-2.66 1.33 1.33 0 0 0 0 2.66"/><defs><linearGradient id="a" x1="163.14" x2="432.72" y1="481.39" y2="211.81" gradientUnits="userSpaceOnUse"><stop stop-color="#bfbfbf"/><stop offset=".14" stop-color="#c2c2c2"/><stop offset=".27" stop-color="#cecece"/><stop offset=".4" stop-color="#e0e0e0"/><stop offset=".53" stop-color="#fbfbfb"/><stop offset=".54" stop-color="#e0e0e0"/><stop offset=".55" stop-color="#cdcdcd"/><stop offset=".56" stop-color="#ccc"/><stop offset="1" stop-color="#fff"/></linearGradient></defs></svg>