<svg width="90" height="20" viewBox="0 0 90 20" fill="none" xmlns="http://www.w3.org/2000/svg">
<g clip-path="url(#clip0_632_1978)">
<path d="M89.32 8.16H0V10.93H89.32V8.16Z" fill="white"/>
<path d="M89.32 10.93H0" stroke="#231815" stroke-width="0.5" stroke-miterlimit="10"/>
<path d="M0 8.16H89.32" stroke="#231815" stroke-width="0.5" stroke-miterlimit="10"/>
<path d="M68.65 14.42C69.92 12 69.74 6.81 68.65 4.67C67.38 2.16 63.2 -0.209998 59.83 0.340002C56.47 0.890002 56.6 2.25 53.79 2.25H35.54C32.72 2.25 32.86 0.880002 29.5 0.340002C26.13 -0.209998 21.95 2.16 20.68 4.67C19.59 6.82 19.41 12 20.68 14.42C21.99 16.92 26.13 19.3 29.5 18.75C32.86 18.2 32.73 16.83 35.54 16.83H53.79C56.61 16.83 56.47 18.2 59.83 18.75C63.2 19.3 67.38 16.93 68.65 14.42Z" fill="white"/>
<path d="M46.81 16.86C46.15 16.49 45.63 13.35 45.63 9.55001C45.63 5.75001 46.15 2.61001 46.81 2.24001H43.68C43.02 2.62001 42.51 5.74001 42.51 9.55001C42.51 13.36 43.03 16.49 43.68 16.86H46.81Z" fill="#D71618"/>
<path d="M27.5 18.75C26.59 18.75 25.86 14.63 25.86 9.54C25.86 4.45 26.59 0.319999 27.5 0.319999C28.36 0.249999 29.25 0.239999 30.2 0.489999C29.38 0.959999 28.75 4.83 28.75 9.54C28.75 14.25 29.38 18.12 30.2 18.59C29.14 18.93 28.17 18.87 27.51 18.76L27.5 18.75Z" fill="#B35021"/>
<path d="M61.67 18.75C60.76 18.75 60.03 14.63 60.03 9.53999C60.03 4.44999 60.76 0.319992 61.67 0.319992C62.71 0.439992 63.47 0.639992 64.33 1.00999C63.56 1.44999 62.96 5.09999 62.96 9.52999C62.96 13.96 63.56 17.61 64.33 18.05C63.3 18.47 62.46 18.68 61.68 18.74L61.67 18.75Z" fill="#AC4E23"/>
<path d="M68.65 14.41C69.92 11.99 69.74 6.79999 68.65 4.65999C67.38 2.14999 63.2 -0.220007 59.83 0.329993C56.47 0.879993 56.6 2.23999 53.79 2.23999H35.54C32.72 2.23999 32.86 0.869993 29.5 0.329993C26.13 -0.220007 21.95 2.14999 20.68 4.65999C19.59 6.80999 19.41 11.99 20.68 14.41C21.99 16.91 26.13 19.29 29.5 18.74C32.86 18.19 32.73 16.82 35.54 16.82H53.79C56.61 16.82 56.47 18.19 59.83 18.74C63.2 19.29 67.38 16.92 68.65 14.41Z" stroke="black" stroke-width="0.5" stroke-miterlimit="10"/>
</g>
<defs>
<clipPath id="clip0_632_1978">
<rect width="90" height="20" fill="white"/>
</clipPath>
</defs>
</svg>
