<svg xmlns="http://www.w3.org/2000/svg" width="314" height="62" fill="none" viewBox="0 0 314 62"><g clip-path="url(#a)"><path stroke="#45b035" stroke-miterlimit="10" stroke-width="3" d="M293.96 30.53H23.27"/><path fill="#fff" stroke="#231815" stroke-miterlimit="10" stroke-width=".3" d="M248.37 26.92H68.87c-26.87 0-45.76-4.55-45.95-4.6l.71-2.91c.18.05 18.75 4.51 45.24 4.51h179.5c26.48 0 45.05-4.47 45.24-4.51l.71 2.91c-.19.05-19.08 4.6-45.95 4.6Z"/><path stroke="#e60012" stroke-miterlimit="10" stroke-width="3" d="M293.96 10.2s-17.7 10-45.59 10H68.87c-27.89 0-45.59-10-45.59-10"/><path stroke="#231815" stroke-miterlimit="10" stroke-width="3.53" d="M293.96 50.87s-17.7-13.81-45.59-13.81H68.87c-27.89 0-45.59 13.81-45.59 13.81"/><path fill="#fff" d="M.56 56.26h20.71v4.25h3.61V.56h-3.61v4.25H.56z"/><path stroke="#000" stroke-linecap="round" stroke-linejoin="round" stroke-width="1.11" d="M.56 56.26h20.71v4.25h3.61V.56h-3.61v4.25H.56z"/><path stroke="#000" stroke-linecap="round" stroke-linejoin="round" stroke-width=".37" d="M21.27 56.26V4.81"/><path stroke="#000" stroke-linecap="round" stroke-linejoin="round" stroke-width=".34" d="M4 52.14h3.46v-3.31H4zM4 12.25h3.46V8.94H4z"/><path fill="#fff" d="M313.31 4.81h-20.72V.56h-3.6v59.95h3.6v-4.25h20.72z"/><path stroke="#000" stroke-linecap="round" stroke-linejoin="round" stroke-width=".33" d="M309.86 16.07v3.17h-3.45v3.31h3.45v6.77h-3.45v3.31h3.45v6.48h-3.45v3.46h3.45v6.62h-3.45v3.31h3.45v3.76"/><path stroke="#000" stroke-linecap="round" stroke-linejoin="round" stroke-width="1.11" d="M313.31 4.81h-20.72V.56h-3.6v59.95h3.6v-4.25h20.72z"/><path stroke="#000" stroke-linecap="round" stroke-linejoin="round" stroke-width=".37" d="M292.59 4.81v51.45"/><path stroke="#000" stroke-linecap="round" stroke-linejoin="round" stroke-width=".33" d="M296.16 17.01h8.56v7.06h-8.56v3.45h8.56v6.76h-8.56v3.45h8.56v7.05h-8.56v3.31h8.56v6.9h-8.56v1.27M296.16 17v-3.45z"/><path stroke="#000" stroke-linecap="round" stroke-linejoin="round" stroke-width=".34" d="M296.18 13.54h8.52V6.48h-8.52"/><path stroke="#000" stroke-linecap="round" stroke-linejoin="round" stroke-width=".33" d="M296.16 4.83v1.65M309.86 4.81V9.3h-3.45v3.31h3.45v3.46"/><path fill="#231815" d="M251.96 17.76H59.6a1.36 1.36 0 0 0-1.36 1.36v19.39c0 .751.609 1.36 1.36 1.36h192.36a1.36 1.36 0 0 0 1.36-1.36V19.12a1.36 1.36 0 0 0-1.36-1.36"/></g><defs><clipPath id="a"><path fill="#fff" d="M0 0h313.87v61.07H0z"/></clipPath></defs></svg>