<svg xmlns="http://www.w3.org/2000/svg" width="212" height="450" fill="none" viewBox="0 0 212 450"><g clip-path="url(#a)"><path fill="#fff" d="M212 0H0v450h212z"/><path stroke="#040000" stroke-linecap="round" stroke-linejoin="round" d="m52.834 8.372-2.94 1.587-2.114 1.573"/><path stroke="#9fa0a0" stroke-linecap="round" stroke-linejoin="round" stroke-width=".5" d="m140.323 434.92-4.354.007-4.432.007-4.587.007M140.323 434.92l-13.373.021M127.006 432.854l13.26-.014M127.006 432.854l4.602-.007h4.396l4.262-.007M97.71 433.326h.692M113.598 433.326h.693M115.45 432.635h-.466M112.906 432.635H99.095M97.017 432.635h-.46M114.291 432.529h-.693M98.402 432.529h-.692M117.514 431.655H94.486"/><path stroke="#040000" stroke-linecap="round" stroke-linejoin="round" stroke-width=".5" d="M62.27 431.591h32.216M117.514 431.591h32.245M62.27 428.833h32.216M117.514 428.833h32.245M117.514 428.812H94.486M144.415 428.812h-21.6M111.209 428.791h-10.418M149.759 428.756h-4.609M122.123 428.756h-8.638M62.27 428.756h36.245M62.27 428.749h28.449M88.5 428.163H51.646M88.5 428.149H51.646"/><path stroke="#9fa0a0" stroke-linecap="round" stroke-linejoin="round" stroke-width=".5" d="M152.939 425.272h1.845M150.176 422.514h2.763M154.784 422.514h2.764M157.548 420.673h-2.764M152.939 420.673h-2.763"/><path stroke="#040000" stroke-linecap="round" stroke-linejoin="round" d="m44.614 14.621-1.767 2.384"/><path stroke="#040000" stroke-linecap="round" stroke-linejoin="round" stroke-width=".5" d="m51.739 421.244.078-.014M100.819 418.028h10.362"/><path stroke="#9fa0a0" stroke-linecap="round" stroke-linejoin="round" stroke-width=".5" d="M154.784 417.915h-1.845"/><path stroke="#040000" stroke-linecap="round" stroke-linejoin="round" stroke-width=".5" d="m160.184 421.23.078.014"/><path stroke="#040000" stroke-linecap="round" stroke-linejoin="round" d="m42.847 17.005-1.59 2.941-1.139 3.139-.678 3.28"/><path stroke="#040000" stroke-linecap="round" stroke-linejoin="round" stroke-width=".5" d="m50.954 387.325.233-.007"/><path stroke="#9fa0a0" stroke-linecap="round" stroke-linejoin="round" stroke-width=".5" d="M66.574 393.13H87.85M66.836 392.869h20.752"/><path stroke="#040000" stroke-linecap="round" stroke-linejoin="round" stroke-width=".5" d="M160.736 390.02h-4.941M51.845 390.006h-.58M160.792 387.304h-3.463M160.933 387.213h-3.576M161.046 387.325l-.233-.007M51.647 391.43 88.5 428.149M90.72 428.749l-38.875-38.743M51.265 43.194l-.05.148"/><path stroke="#9fa0a0" stroke-linecap="round" stroke-linejoin="round" stroke-width=".5" d="M104.848 345.077h2.304M104.848 344.837h2.304M66.843 333.115H87.58M87.842 332.586h-21.26"/><path stroke="#040000" stroke-linecap="round" stroke-linejoin="round" d="m39.249 420.609.007.113M39.249 29.334v77.776M39.249 390.647v29.962M39.27 29.27l-.035 127.212-.007 130.724.028 133.516M39.44 26.365l-.191 2.97"/><path stroke="#9fa0a0" stroke-linecap="round" stroke-linejoin="round" stroke-width=".5" d="M107.152 308.062h-2.304M107.152 307.822h-2.304M68.002 293.441h75.996"/><path stroke="#040000" stroke-linecap="round" stroke-linejoin="round" stroke-width=".5" d="m160.813 387.318-.021-.014M161.046 387.325l-.113-.112M51.265 390.006l-.05-.325M48.424 417.823V32.247M50.954 387.325V45.458M51.067 387.213V45.669M51.187 32.247v13.21M51.187 387.318v30.505M51.209 388.955v-1.651M51.209 45.493v-1.502M51.265 417.823v-27.817M51.265 43.194V32.247M51.647 428.149V391.43"/><path stroke="#9fa0a0" stroke-linecap="round" stroke-linejoin="round" stroke-width=".5" d="M53.95 125.356v1.834M53.95 254.056v1.833M56.255 27.677v1.84M56.714 122.598v2.758M56.714 127.19v2.758M56.714 251.298v2.758M56.714 255.889v2.758"/><path stroke="#040000" stroke-linecap="round" stroke-linejoin="round" stroke-width=".5" d="M58.022 427.916v-.007"/><path stroke="#9fa0a0" stroke-linecap="round" stroke-linejoin="round" stroke-width=".5" d="M58.56 258.647v-2.758M58.56 254.056v-2.758M58.56 129.948v-2.758M58.56 125.356v-2.758M59.019 24.919v2.758M59.019 29.518v2.757M60.8 151.7v-18.12M60.863 144.139v-10.742M60.863 32.275v-2.758M60.863 27.677v-2.758M61.323 255.889v-1.833M61.323 127.19v-1.834M60.8 151.7l.063-7.561M82.11 151.7l-.064-7.561M69.112 434.123v-.515M63.627 29.518v-1.841"/><path stroke="#040000" stroke-linecap="round" stroke-linejoin="round" stroke-width=".5" d="M64.001 188.898v-2.066M64.122 224.178v-35.28M64.122 186.832v-7.244"/><path stroke="#9fa0a0" stroke-linecap="round" stroke-linejoin="round" stroke-width=".5" d="M64.277 334.878v55.96M64.313 164.191v-23.91M64.546 335.407v55.163"/><path stroke="#040000" stroke-linecap="round" stroke-linejoin="round" stroke-width=".5" d="M66.85 224.637v-35.28M66.85 186.373v-7.702M68.002 21.315v22.422"/><path stroke="#9fa0a0" stroke-linecap="round" stroke-linejoin="round" stroke-width=".5" d="M68.002 249.831v43.61"/><path stroke="#040000" stroke-linecap="round" stroke-linejoin="round" stroke-width=".5" d="M75.643 231.069v2.3"/><path stroke="#9fa0a0" stroke-linecap="round" stroke-linejoin="round" stroke-width=".5" d="M78.597 164.191v-23.91"/><path stroke="#040000" stroke-linecap="round" stroke-linejoin="round" stroke-width=".5" d="M79.057 170.398v2.299M81.127 176.146v-1.827"/><path stroke="#9fa0a0" stroke-linecap="round" stroke-linejoin="round" stroke-width=".5" d="M82.046 133.397v10.742M82.11 133.58v18.12"/><path stroke="#040000" stroke-linecap="round" stroke-linejoin="round" stroke-width=".5" d="M82.74 26.167V18.48M83.199 174.319v1.827M63.86 224.178l.043-44.59M75.417 231.069l-.007 2.3M78.88 170.398v2.299M92.472 25.208l.198-3.844M160.933 45.67l.113-.212M160.792 45.493l.021-.035"/><path stroke="#9fa0a0" stroke-linecap="round" stroke-linejoin="round" stroke-width=".5" d="M56.714 258.647h1.845M153.441 258.647h1.845M53.95 255.889h2.764M58.56 255.889h2.763M150.678 255.889h2.763M155.286 255.889h2.764M158.05 254.056h-2.764M153.441 254.056h-2.763M61.323 254.056h-2.764M56.714 254.056h-2.763M155.286 251.298h-1.845M58.56 251.298h-1.846M143.998 249.831h-26.25M93.334 249.831H68.002"/><path stroke="#040000" stroke-linecap="round" stroke-linejoin="round" stroke-width=".5" d="m80.838 25.081-.198-3.844"/><path stroke="#9fa0a0" stroke-linecap="round" stroke-linejoin="round" stroke-width=".5" d="M97.017 431.662v-.007M112.913 431.662v-.007"/><path stroke="#040000" stroke-linecap="round" stroke-linejoin="round" stroke-width=".5" d="M85.503 18.48v7.687M87.807 26.167V18.48M88.5 428.149v.014"/><path stroke="#9fa0a0" stroke-linecap="round" stroke-linejoin="round" stroke-width=".5" d="M89.878 335.407v55.163M90.147 390.838v-55.96"/><path stroke="#040000" stroke-linecap="round" stroke-linejoin="round" stroke-width=".5" d="M90.57 18.48v7.687M90.72 428.756v-.007M94.486 431.655v-2.822M97.017 176.146v-1.827"/><path stroke="#9fa0a0" stroke-linecap="round" stroke-linejoin="round" stroke-width=".5" d="M97.695 314.96v22.979M97.942 314.96v22.979"/><path stroke="#040000" stroke-linecap="round" stroke-linejoin="round" stroke-width=".5" d="M98.515 428.756v-8.429"/><path stroke="#9fa0a0" stroke-linecap="round" stroke-linejoin="round" stroke-width=".5" d="M99.095 432.635v-.973"/><path stroke="#040000" stroke-linecap="round" stroke-linejoin="round" stroke-width=".5" d="M99.095 174.319v1.827"/><path stroke="#9fa0a0" stroke-linecap="round" stroke-linejoin="round" stroke-width=".5" d="M87.616 433.622v.522M97.017 431.662v.973"/><path stroke="#040000" stroke-linecap="round" stroke-linejoin="round" stroke-width=".5" d="m58.022 427.916-.014.078"/><path stroke="#9fa0a0" stroke-linecap="round" stroke-linejoin="round" stroke-width=".5" d="M117.747 249.831H93.334"/><path stroke="#040000" stroke-linecap="round" stroke-linejoin="round" stroke-width=".5" d="M82.555 240.506h46.89M82.555 240.267h46.89M143.312 229.003h-4.65M73.339 229.003h-4.651M68.688 228.735h74.625M112.913 176.146v-1.827M113.485 420.327v8.429"/><path stroke="#9fa0a0" stroke-linecap="round" stroke-linejoin="round" stroke-width=".5" d="M114.065 337.939V314.96M114.305 337.939V314.96M114.984 432.635v-.973"/><path stroke="#040000" stroke-linecap="round" stroke-linejoin="round" stroke-width=".5" d="M114.984 174.319v1.827M117.514 431.655v-2.822M121.43 26.02v-7.54M122.123 411.878v16.927M124.193 18.48v7.54M126.498 26.02v-7.54"/><path stroke="#9fa0a0" stroke-linecap="round" stroke-linejoin="round" stroke-width=".5" d="M112.913 431.662v.973M99.095 431.655v.007M114.984 431.655v.007"/><path stroke="#040000" stroke-linecap="round" stroke-linejoin="round" stroke-width=".5" d="m131.163 25.081.198-3.717M142.853 226.936H69.154M153.993 427.994l-.014-.078M119.528 25.081l-.197-3.717"/><path stroke="#9fa0a0" stroke-linecap="round" stroke-linejoin="round" stroke-width=".5" d="m143.072 434.102.007.014"/><path stroke="#040000" stroke-linecap="round" stroke-linejoin="round" stroke-width=".5" d="M133.121 172.697v-2.299M136.591 233.369v-2.3M128.802 176.146v-1.827M129.261 18.48v7.54"/><path stroke="#9fa0a0" stroke-linecap="round" stroke-linejoin="round" stroke-width=".5" d="M129.89 151.7v-18.12M129.954 144.139v-10.742"/><path stroke="#040000" stroke-linecap="round" stroke-linejoin="round" stroke-width=".5" d="M130.873 174.319v1.827M132.944 172.697v-2.299"/><path stroke="#9fa0a0" stroke-linecap="round" stroke-linejoin="round" stroke-width=".5" d="M133.41 164.191v-23.91"/><path stroke="#040000" stroke-linecap="round" stroke-linejoin="round" stroke-width=".5" d="M136.357 233.369v-2.3M143.998 21.315v22.422"/><path stroke="#9fa0a0" stroke-linecap="round" stroke-linejoin="round" stroke-width=".5" d="M143.998 293.441v-43.61"/><path stroke="#040000" stroke-linecap="round" stroke-linejoin="round" stroke-width=".5" d="M145.15 428.756v-16.815M145.15 178.671v7.702M145.15 189.357v35.28"/><path stroke="#9fa0a0" stroke-linecap="round" stroke-linejoin="round" stroke-width=".5" d="M147.688 164.191v-23.91"/><path stroke="#040000" stroke-linecap="round" stroke-linejoin="round" stroke-width=".5" d="M147.878 179.588v7.244M147.878 188.898v35.28"/><path stroke="#9fa0a0" stroke-linecap="round" stroke-linejoin="round" stroke-width=".5" d="m129.89 151.7.064-7.561M124.201 434.144v-.014"/><path stroke="#040000" stroke-linecap="round" stroke-linejoin="round" stroke-width=".5" d="M145.15 189.357h-1.611M66.85 189.357h1.612M64.001 188.898h4.46M143.539 188.898h4.46M64.001 186.832h4.46M143.539 186.832h4.46M145.15 186.373h-1.611M66.85 186.373h1.612M51.208 45.493l-.021-.035M51.067 45.67l-.113-.212"/><path stroke="#9fa0a0" stroke-linecap="round" stroke-linejoin="round" stroke-width=".5" d="m151.201 151.7-.057-7.561"/><path stroke="#040000" stroke-linecap="round" stroke-linejoin="round" stroke-width=".5" d="m148.098 179.588.042 44.59M147.999 188.898v-2.066"/><path stroke="#9fa0a0" stroke-linecap="round" stroke-linejoin="round" stroke-width=".5" d="M148.38 27.677v1.84M150.176 420.673v1.841M150.678 125.356v1.834M150.678 254.056v1.833M151.144 24.919v2.758M151.144 29.518v2.757M151.144 133.397v10.742M152.939 417.915v2.758M152.939 422.514v2.758M152.982 32.275v-2.758M152.982 27.677v-2.758M153.441 122.598v2.758M153.441 127.19v2.758M153.441 251.298v2.758M153.441 255.889v2.758M154.784 425.272v-2.758M154.784 420.673v-2.758M155.286 258.647v-2.758M155.286 254.056v-2.758M155.286 129.948v-2.758M155.286 125.356v-2.758M155.745 29.518v-1.841M157.548 422.514v-1.841M158.049 255.889v-1.833M158.049 127.19v-1.834"/><path stroke="#040000" stroke-linecap="round" stroke-linejoin="round" stroke-width=".5" d="M160.735 32.247v10.947M160.735 390.02v27.789M160.792 43.37v2.123M160.792 387.304v2.293M160.813 417.809v-30.491M160.813 45.458v-13.21M160.933 387.213V45.669M161.046 387.325V45.458M69.154 176.372h73.699M81.127 176.146h2.071M97.017 176.146h2.078M112.913 176.146h2.071M128.802 176.146h2.071M143.312 175.039h-12.439M128.802 175.039h-13.818M112.913 175.039H99.095M97.017 175.039H83.199M81.128 175.039h-12.44M68.688 174.82h8.065M135.248 174.82h8.065"/><path stroke="#9fa0a0" stroke-linecap="round" stroke-linejoin="round" stroke-width=".5" d="M65.005 165.2h12.9M134.096 165.2h12.899"/><path stroke="#040000" stroke-linecap="round" stroke-linejoin="round" d="m172.751 29.334-.198-2.997-.678-3.273-1.146-3.146"/><path stroke="#040000" stroke-linecap="round" stroke-linejoin="round" d="m172.73 29.27-.191-2.92-.657-3.237-1.131-3.138-1.591-2.963-2.021-2.708-2.396-2.391-2.721-2.003-2.969-1.58-3.145-1.122-3.244-.649-2.884-.183M172.751 107.074v-77.74M172.751 420.609v-29.962M172.751 420.722l.021-133.622-.007-130.724-.035-127.105M172.744 420.722l.007-.113"/><path stroke="#040000" stroke-linecap="round" stroke-linejoin="round" stroke-width=".5" d="m160.735 390.02.057-.423M50.954 387.325l.113-.112M51.187 387.318l.021-.014M85.962 163.507h40.076M126.038 163.338H85.962"/><path stroke="#9fa0a0" stroke-linecap="round" stroke-linejoin="round" stroke-width=".5" d="M65.005 160.975h12.9M134.096 160.975h12.899M151.2 151.7h-3.512M133.41 151.7h-3.52M82.11 151.7h-3.513M64.313 151.7H60.8M151.144 144.139h-3.456M133.41 144.139h-3.456M82.046 144.139h-3.449M64.313 144.139h-3.45M94.486 142.143h23.028M94.486 141.903h23.028M64.313 140.436h14.284M133.41 140.436h14.278M64.313 140.281h14.284M133.41 140.281h14.278M63.16 131.097h16.582M132.258 131.097h16.582M56.714 129.948h1.845M153.441 129.948h1.845M117.514 128.114H94.486M117.514 127.874H94.486M53.95 127.19h2.764M58.56 127.19h2.763M150.678 127.19h2.763M155.286 127.19h2.764M158.05 125.356h-2.764M153.441 125.356h-2.763M61.323 125.356h-2.764M56.714 125.356h-2.763M155.286 122.598h-1.845M58.56 122.598h-1.846"/><path stroke="#040000" stroke-linecap="round" stroke-linejoin="round" stroke-width=".5" d="m160.735 43.194.057.176M157.357 387.213l-.028.028M145.15 428.756l-.042.049"/><path stroke="#040000" stroke-linecap="round" stroke-linejoin="round" d="m170.73 19.918-1.591-2.934-2-2.68"/><path stroke="#040000" stroke-linecap="round" stroke-linejoin="round" stroke-width=".5" d="M50.954 45.458h.233M68.688 44.428h74.625M161.046 45.458h-.233M132.555 18.486l6.284-.007"/><path stroke="#9fa0a0" stroke-linecap="round" stroke-linejoin="round" stroke-width=".5" d="M59.019 32.275h1.844M151.144 32.275h1.838M56.255 29.518h2.764M60.863 29.518h2.764M148.38 29.518h2.764M152.982 29.518h2.764M155.746 27.677h-2.764M151.144 27.677h-2.764M63.627 27.677h-2.764M59.019 27.677h-2.764"/><path stroke="#040000" stroke-linecap="round" stroke-linejoin="round" stroke-width=".5" d="M81.99 26.167h9.33M120.681 26.167h9.33"/><path stroke="#9fa0a0" stroke-linecap="round" stroke-linejoin="round" stroke-width=".5" d="M152.982 24.919h-1.838M60.863 24.919H59.02"/><path stroke="#040000" stroke-linecap="round" stroke-linejoin="round" stroke-width=".5" d="M143.998 21.364H131.36M119.331 21.364H92.67M80.64 21.364H68.002M62.242 21.315h5.76M143.998 21.315h5.761M132.244 21.237h-.884M119.331 21.237H92.67M80.64 21.237h-.884M149.759 21.237H133.05M78.95 21.237H62.243M85.503 18.48h2.304M90.57 18.48h30.86M124.193 18.48h2.305M129.261 18.48h3.223M132.555 18.48h17.204M62.242 18.48h20.497"/><path stroke="#040000" stroke-linecap="round" stroke-linejoin="round" d="m164.171 11.49-2.086-1.545M62.277 6.355l-3.011.19-3.28.685-3.152 1.142"/><path stroke="#040000" stroke-linecap="round" stroke-linejoin="round" d="m62.22 6.376-2.919.19-3.25.656-3.146 1.129-2.969 1.587-2.714 2.01-2.389 2.391-2.014 2.708-1.584 2.963-1.13 3.138-.65 3.238-.184 2.885M134.188 6.376H62.221M149.78 6.376h-15.592M120.673 6.348H91.291l-29.014.007M149.723 6.355l-29.05-.007M152.699 6.545l-2.976-.19M162.086 9.945l-2.948-1.587-3.152-1.143-3.287-.67"/><path stroke="#040000" stroke-linecap="round" stroke-linejoin="round" stroke-width=".5" d="M58.008 427.994c1.35.557 2.799.846 4.262.839"/><path stroke="#040000" stroke-linecap="round" stroke-linejoin="round" stroke-width=".5" d="M58.022 427.916q.36.15.72.268M58.75 428.184c1.13.381 2.325.572 3.52.572M51.265 417.816c0 .938.127 1.876.368 2.786M51.739 421.244c-.198 3.527 2.516 6.545 6.05 6.743.07 0 .148 0 .22.007"/><path stroke="#040000" stroke-linecap="round" stroke-linejoin="round" stroke-width=".5" d="M51.81 421.597c0 3.442 2.763 6.256 6.219 6.319M52.205 254.972a5.427 5.427 0 0 1 5.435-5.423 5.427 5.427 0 0 1 5.436 5.423 5.427 5.427 0 0 1-5.436 5.424 5.427 5.427 0 0 1-5.435-5.424"/><path stroke="#9fa0a0" stroke-linecap="round" stroke-linejoin="round" stroke-width=".5" d="M52.453 254.972a5.174 5.174 0 0 1 5.18-5.17 5.174 5.174 0 0 1 5.181 5.17 5.174 5.174 0 0 1-5.18 5.17 5.174 5.174 0 0 1-5.181-5.17"/><path stroke="#040000" stroke-linecap="round" stroke-linejoin="round" stroke-width=".5" d="M64.122 224.178a4.56 4.56 0 0 0 4.566 4.557M66.85 224.637a2.3 2.3 0 0 0 2.304 2.299M75.643 231.069c0-.606-.24-1.192-.672-1.622"/><path stroke="#9fa0a0" stroke-linecap="round" stroke-linejoin="round" stroke-width=".5" d="M97.695 337.939c0 3.943 3.202 7.138 7.153 7.138M104.848 307.822c-3.951 0-7.153 3.195-7.153 7.138"/><path stroke="#040000" stroke-linecap="round" stroke-linejoin="round" stroke-width=".5" d="M75.643 233.369c0 3.808 3.095 6.898 6.912 6.898M79.36 21.237h-.403M52.205 126.273a5.427 5.427 0 0 1 5.435-5.424 5.427 5.427 0 0 1 5.436 5.424 5.427 5.427 0 0 1-5.436 5.424 5.427 5.427 0 0 1-5.435-5.424"/><path stroke="#9fa0a0" stroke-linecap="round" stroke-linejoin="round" stroke-width=".5" d="M52.453 126.273a5.174 5.174 0 0 1 5.18-5.17 5.174 5.174 0 0 1 5.181 5.17 5.174 5.174 0 0 1-5.18 5.17 5.174 5.174 0 0 1-5.181-5.17"/><path stroke="#040000" stroke-linecap="round" stroke-linejoin="round" stroke-width=".5" d="M68.688 175.039a4.56 4.56 0 0 0-4.566 4.556M69.154 176.372a2.3 2.3 0 0 0-2.304 2.299M78.385 174.319c.431-.43.672-1.015.672-1.622M68.461 189.357c.827 0 1.499-.67 1.499-1.496 0-.825-.672-1.495-1.499-1.495"/><path stroke="#040000" stroke-linecap="round" stroke-linejoin="round" stroke-width=".5" d="M68.461 188.898a1.04 1.04 0 0 0 1.04-1.037 1.04 1.04 0 0 0-1.04-1.036M54.502 28.6a5.427 5.427 0 0 1 5.435-5.423 5.427 5.427 0 0 1 5.436 5.424 5.427 5.427 0 0 1-5.436 5.424 5.427 5.427 0 0 1-5.435-5.424"/><path stroke="#9fa0a0" stroke-linecap="round" stroke-linejoin="round" stroke-width=".5" d="M54.757 28.6a5.174 5.174 0 0 1 5.18-5.17 5.174 5.174 0 0 1 5.182 5.17 5.174 5.174 0 0 1-5.181 5.17 5.174 5.174 0 0 1-5.181-5.17"/><path stroke="#040000" stroke-linecap="round" stroke-linejoin="round" stroke-width=".5" d="M68.002 43.737c0 .38.311.691.693.691M85.962 163.507c-3.816 0-6.912 3.089-6.912 6.898M79.36 21.237h.403"/><path stroke="#9fa0a0" stroke-linecap="round" stroke-linejoin="round" stroke-width=".5" d="M68.92 71.117c0-7.744 6.291-14.022 14.052-14.022s14.052 6.278 14.052 14.022S90.733 85.14 82.972 85.14s-14.051-6.277-14.051-14.022"/><path stroke="#040000" stroke-linecap="round" stroke-linejoin="round" stroke-width=".5" d="M80.838 25.081a1.15 1.15 0 0 0 1.152 1.086M91.32 26.167c.615 0 1.117-.48 1.152-1.086"/><path stroke="#9fa0a0" stroke-linecap="round" stroke-linejoin="round" stroke-width=".5" d="M107.152 345.077c3.951 0 7.153-3.195 7.153-7.138"/><path stroke="#040000" stroke-linecap="round" stroke-linejoin="round" stroke-width=".5" d="M122.123 411.878c0-.17-.029-.332-.064-.494M122.052 411.384a2.3 2.3 0 0 0-.198-.522"/><path stroke="#9fa0a0" stroke-linecap="round" stroke-linejoin="round" stroke-width=".5" d="M114.305 314.96c0-3.943-3.202-7.138-7.153-7.138"/><path stroke="#040000" stroke-linecap="round" stroke-linejoin="round" stroke-width=".5" d="M129.445 240.267c3.817 0 6.912-3.09 6.912-6.898M113.591 401.178a22.2 22.2 0 0 0 6.291 7.899M149.759 428.756c1.449 0 2.884-.289 4.219-.84M160.262 421.244c.367-1.107.551-2.264.551-3.428M153.993 427.994c3.541-.07 6.354-2.998 6.276-6.531 0-.071 0-.148-.007-.219"/><path stroke="#040000" stroke-linecap="round" stroke-linejoin="round" stroke-width=".5" d="M148.423 421.597a5.426 5.426 0 0 1 5.435-5.424 5.427 5.427 0 0 1 5.436 5.424 5.43 5.43 0 0 1-5.436 5.424 5.427 5.427 0 0 1-5.435-5.424"/><path stroke="#9fa0a0" stroke-linecap="round" stroke-linejoin="round" stroke-width=".5" d="M148.677 421.597a5.174 5.174 0 0 1 5.181-5.17 5.173 5.173 0 0 1 5.181 5.17 5.174 5.174 0 0 1-5.181 5.17 5.175 5.175 0 0 1-5.181-5.17"/><path stroke="#040000" stroke-linecap="round" stroke-linejoin="round" stroke-width=".5" d="M146.161 410.044a2.29 2.29 0 0 0-1.004 1.897M153.653 382.085c.036.07.078.134.135.19M148.932 254.972a5.426 5.426 0 0 1 5.435-5.423 5.426 5.426 0 0 1 5.435 5.423 5.426 5.426 0 0 1-5.435 5.424 5.426 5.426 0 0 1-5.435-5.424"/><path stroke="#9fa0a0" stroke-linecap="round" stroke-linejoin="round" stroke-width=".5" d="M149.186 254.972a5.174 5.174 0 0 1 5.181-5.17 5.174 5.174 0 0 1 5.181 5.17 5.173 5.173 0 0 1-5.181 5.17 5.173 5.173 0 0 1-5.181-5.17"/><path stroke="#040000" stroke-linecap="round" stroke-linejoin="round" stroke-width=".5" d="M143.312 228.735a4.56 4.56 0 0 0 4.566-4.557M142.853 226.936a2.3 2.3 0 0 0 2.304-2.299M137.029 229.454a2.3 2.3 0 0 0-.672 1.622M132.944 170.398c0-3.809-3.096-6.898-6.913-6.898M132.244 21.237h.403"/><path stroke="#9fa0a0" stroke-linecap="round" stroke-linejoin="round" stroke-width=".5" d="M114.984 71.117c0-7.744 6.29-14.022 14.051-14.022s14.052 6.278 14.052 14.022-6.291 14.022-14.052 14.022-14.051-6.277-14.051-14.022"/><path stroke="#040000" stroke-linecap="round" stroke-linejoin="round" stroke-width=".5" d="M130.01 26.167c.615 0 1.117-.48 1.152-1.086M119.528 25.081a1.15 1.15 0 0 0 1.152 1.086M133.05 21.237h-.403M148.932 126.273a5.426 5.426 0 0 1 5.435-5.424 5.426 5.426 0 0 1 5.435 5.424 5.426 5.426 0 0 1-5.435 5.424 5.426 5.426 0 0 1-5.435-5.424"/><path stroke="#9fa0a0" stroke-linecap="round" stroke-linejoin="round" stroke-width=".5" d="M149.186 126.273a5.174 5.174 0 0 1 5.181-5.17 5.174 5.174 0 0 1 5.181 5.17 5.173 5.173 0 0 1-5.181 5.17 5.173 5.173 0 0 1-5.181-5.17"/><path stroke="#040000" stroke-linecap="round" stroke-linejoin="round" stroke-width=".5" d="M147.878 179.588a4.56 4.56 0 0 0-4.566-4.556M145.15 178.671a2.3 2.3 0 0 0-2.304-2.299M132.944 172.697c0 .607.24 1.192.671 1.622M143.539 186.373c-.827 0-1.498.67-1.498 1.496 0 .825.671 1.495 1.498 1.495"/><path stroke="#040000" stroke-linecap="round" stroke-linejoin="round" stroke-width=".5" d="M143.539 186.832c-.573 0-1.039.465-1.039 1.036 0 .572.466 1.037 1.039 1.037M146.627 28.6a5.43 5.43 0 0 1 5.436-5.423 5.427 5.427 0 0 1 5.435 5.424 5.427 5.427 0 0 1-5.435 5.424 5.43 5.43 0 0 1-5.436-5.424"/><path stroke="#9fa0a0" stroke-linecap="round" stroke-linejoin="round" stroke-width=".5" d="M146.882 28.6a5.174 5.174 0 0 1 5.181-5.17 5.174 5.174 0 0 1 5.181 5.17 5.174 5.174 0 0 1-5.181 5.17 5.174 5.174 0 0 1-5.181-5.17"/><path stroke="#040000" stroke-linecap="round" stroke-linejoin="round" stroke-width=".5" d="M143.312 44.428c.382 0 .693-.31.693-.691"/><path stroke="#9fa0a0" stroke-linecap="round" stroke-linejoin="round" stroke-width=".5" d="m101.858 432.085.043-.021.078-.021c.035-.008.077-.015.113-.022l.148-.021c.134-.014.262-.028.396-.035.17-.014.346-.021.516-.028.205-.007.41-.021.615-.028l.7-.022c.254 0 .501-.007.756-.014.254-.007.523 0 .777 0M106 431.88h.777c.255 0 .502 0 .757.014.233 0 .466.015.7.022.204 0 .409.014.614.028.17.007.347.021.516.028.135.007.262.021.396.035.05 0 .099.014.149.021.035 0 .077.015.113.022.028 0 .049.014.077.021q.022 0 .043.021"/><path stroke="#9fa0a0" stroke-linecap="round" stroke-linejoin="round" stroke-width=".5" d="M106 432.318c-.544 0-1.088 0-1.64-.014-.247 0-.487-.015-.735-.022q-.318-.009-.636-.028-.138-.002-.276-.014c-.077 0-.162-.014-.24-.021-.071 0-.134-.014-.205-.021-.056 0-.113-.014-.162-.021-.043 0-.085-.015-.128-.022-.014 0-.028 0-.049-.014-.014 0-.021 0-.036-.014-.007 0-.021 0-.028-.014 0 0-.014 0-.014-.014v-.028M110.142 432.085v.028l-.014.014q-.009.002-.028.014c-.014 0-.021.007-.036.014q-.02.001-.049.015l-.127.021-.163.021-.205.021c-.078 0-.162.014-.24.021-.092 0-.184.014-.276.014q-.318.02-.636.028l-.735.022c-.544.014-1.089.014-1.64.014"/><path stroke="#040000" stroke-linecap="round" stroke-linejoin="round" stroke-width=".5" d="M121.967 411.052c.099.261.155.55.155.833"/><path stroke="#040000" stroke-linecap="round" stroke-linejoin="round" d="M172.744 420.722c0 1.496-.148 2.998-.445 4.472a23.4 23.4 0 0 1-1.308 4.302 23.151 23.151 0 0 1-4.983 7.441 22.4 22.4 0 0 1-3.484 2.85 22.8 22.8 0 0 1-3.973 2.116 23.6 23.6 0 0 1-4.311 1.305 23 23 0 0 1-4.481.437M149.773 443.645H62.235"/><path stroke="#9fa0a0" stroke-linecap="round" stroke-linejoin="round" stroke-width=".5" d="M71.882 432.783h12.963M124.201 434.13l.035-.451M143.044 433.665l.028.437"/><path stroke="#040000" stroke-linecap="round" stroke-linejoin="round" d="M62.228 443.645a23.4 23.4 0 0 1-4.482-.437 23.03 23.03 0 0 1-11.768-6.271 22.4 22.4 0 0 1-2.855-3.477 23 23 0 0 1-2.128-3.964 22.4 22.4 0 0 1-1.307-4.302 24 24 0 0 1-.446-4.472"/><path stroke="#9fa0a0" stroke-linecap="round" stroke-linejoin="round" stroke-width=".5" d="M140.266 432.84q.53 0 1.06.063c.163.021.318.049.474.078.141.028.276.063.417.105.113.036.233.078.339.127q.127.055.255.141c.106.078.212.184.226.311M124.236 433.679c.007-.127.113-.233.226-.31q.128-.087.254-.142.17-.073.34-.126a4 4 0 0 1 .417-.106c.155-.035.318-.057.473-.078a9 9 0 0 1 1.061-.063M84.845 432.79c.354 0 .714.021 1.067.064.163.021.319.049.481.077a4 4 0 0 1 .763.233c.085.042.17.085.255.141.106.078.212.191.212.317M69.112 433.608c0-.127.106-.232.212-.31.085-.063.17-.106.254-.141q.168-.074.347-.127a5.286 5.286 0 0 1 .898-.183 9 9 0 0 1 1.067-.064"/><path stroke="#040000" stroke-linecap="round" stroke-linejoin="round" stroke-width=".5" d="M155.717 390.02c.134 1.439.12 2.891-.035 4.323a21.3 21.3 0 0 1-.912 4.232 21 21 0 0 1-1.753 3.971 21.6 21.6 0 0 1-2.53 3.548M153.703 382.296a22 22 0 0 0-2.227-3.724 22.5 22.5 0 0 0-2.912-3.223 22 22 0 0 0-3.491-2.588 22.193 22.193 0 0 0-8.15-2.92 22.095 22.095 0 0 0-8.651.416 22.3 22.3 0 0 0-4.1 1.46 22.145 22.145 0 0 0-11.408 12.547 22 22 0 0 0-1.053 4.211c-.212 1.432-.283 2.885-.212 4.331a22 22 0 0 0 2.099 8.372M58.764 428.184a11.133 11.133 0 0 0 3.499.565M153.788 382.275a.7.7 0 0 0 .353.191.66.66 0 0 0 .403-.043.73.73 0 0 0 .311-.253.67.67 0 0 0 .113-.381M121.854 410.869a2.36 2.36 0 0 0-.735-.825M111.181 418.028c.297 0 .601.056.884.176.282.12.537.282.749.501s.382.466.502.748.176.578.176.881M98.515 420.327c0-.296.057-.599.177-.881s.29-.529.502-.748a2.25 2.25 0 0 1 .749-.501c.283-.12.579-.176.883-.176M149.759 18.48c.982 0 1.972.105 2.933.317a14 14 0 0 1 2.622.846c.799.346 1.562.769 2.276 1.263a13.5 13.5 0 0 1 1.944 1.615c.594.6 1.138 1.241 1.619 1.94a13.75 13.75 0 0 1 2.424 7.8M163.577 32.247v385.569M163.577 417.809c0 .981-.106 1.961-.311 2.92a13.6 13.6 0 0 1-.848 2.61 13.3 13.3 0 0 1-1.265 2.271 13.5 13.5 0 0 1-1.619 1.94 14.7 14.7 0 0 1-1.944 1.615c-.692.479-1.484.917-2.276 1.262-.841.367-1.724.656-2.622.847-.961.211-1.951.317-2.933.317M115.528 437.332H96.473M74.971 229.454a2.4 2.4 0 0 0-.784-.522 2.2 2.2 0 0 0-.855-.169M138.662 228.763c-.29 0-.58.063-.855.169-.29.12-.559.296-.785.522M133.615 174.319c.219.219.488.402.785.522.268.113.565.17.855.17M76.752 175.003c.29 0 .58-.063.856-.169.29-.12.558-.296.784-.522"/><path stroke="#9fa0a0" stroke-linecap="round" stroke-linejoin="round" stroke-width=".5" d="M84.867 434.941H81.48q-4.814-.002-9.626-.014"/><path stroke="#040000" stroke-linecap="round" stroke-linejoin="round" stroke-width=".5" d="M62.27 431.591c-.912 0-1.823-.084-2.714-.261a13.869 13.869 0 0 1-4.828-1.946 13 13 0 0 1-2.028-1.602 14.5 14.5 0 0 1-1.725-1.981 13.7 13.7 0 0 1-1.343-2.349 14.5 14.5 0 0 1-.89-2.68 13.8 13.8 0 0 1-.318-2.949M48.424 32.247c0-.98.106-1.96.31-2.92.199-.896.481-1.77.849-2.61q.52-1.194 1.265-2.27c.495-.72 1.018-1.34 1.619-1.94a13.702 13.702 0 0 1 4.22-2.878 13.7 13.7 0 0 1 2.622-.846c.96-.212 1.95-.318 2.933-.318"/><path stroke="#040000" stroke-linecap="round" stroke-linejoin="round" stroke-width=".5" d="M51.738 421.244q-.136-.414-.24-.839a11 11 0 0 1-.311-2.582M51.187 32.247a11.05 11.05 0 0 1 1.859-6.115q.604-.9 1.378-1.672a11 11 0 0 1 1.675-1.375c.601-.402 1.244-.74 1.909-1.016 1.336-.55 2.792-.839 4.233-.839M149.759 21.237c1.435 0 2.898.29 4.234.84q1.007.411 1.908 1.015c.601.402 1.166.86 1.675 1.376.509.514.975 1.072 1.378 1.671q.605.9 1.018 1.904a11.1 11.1 0 0 1 .841 4.211"/><path stroke="#9fa0a0" stroke-linecap="round" stroke-linejoin="round" stroke-width=".5" d="M126.95 434.941q-.543 0-1.074-.063a5 5 0 0 1-.481-.078 5 5 0 0 1-.417-.098c-.113-.036-.226-.071-.339-.12a2 2 0 0 1-.248-.134.6.6 0 0 1-.148-.148.3.3 0 0 1-.05-.156M87.616 434.144a.3.3 0 0 1-.05.156c-.035.063-.091.105-.148.148a1.3 1.3 0 0 1-.247.134c-.106.049-.22.084-.332.12-.135.042-.276.07-.417.098a9 9 0 0 1-.481.078 9 9 0 0 1-1.074.063M71.861 434.92c-.36 0-.714-.021-1.074-.063a6 6 0 0 1-.48-.078c-.142-.028-.276-.063-.418-.099-.113-.035-.226-.07-.332-.119a2 2 0 0 1-.247-.134c-.057-.043-.113-.085-.149-.149a.3.3 0 0 1-.05-.155"/><path stroke="#040000" stroke-linecap="round" stroke-linejoin="round" stroke-width=".5" d="M153.993 427.994a11 11 0 0 1-1.025.367c-1.039.31-2.128.479-3.209.479"/><path stroke="#9fa0a0" stroke-linecap="round" stroke-linejoin="round" stroke-width=".5" d="M94.486 127.874c-.466 0-.94.042-1.4.134a7 7 0 0 0-1.342.409 7.5 7.5 0 0 0-1.237.663 7.2 7.2 0 0 0-1.972 1.968c-.261.388-.48.804-.657 1.234a7.4 7.4 0 0 0-.41 1.34 7 7 0 0 0-.135 1.39c0 .465.043.931.135 1.389.092.459.226.91.41 1.341s.403.846.657 1.234a7.275 7.275 0 0 0 1.972 1.968c.389.261.806.479 1.237.663a7 7 0 0 0 1.343.409q.69.135 1.4.134M117.514 142.143c.467 0 .94-.043 1.4-.134a7 7 0 0 0 1.343-.409 7.5 7.5 0 0 0 1.236-.663 7.3 7.3 0 0 0 1.972-1.968 7.309 7.309 0 0 0 1.068-2.575c.092-.458.134-.924.134-1.389 0-.466-.042-.931-.134-1.39a7 7 0 0 0-.41-1.34 8 8 0 0 0-.658-1.234 6.8 6.8 0 0 0-.89-1.079 7.2 7.2 0 0 0-2.318-1.552 7 7 0 0 0-1.343-.409 7 7 0 0 0-1.4-.134M97.71 433.326a.68.68 0 0 1-.488-.204.72.72 0 0 1-.205-.487M99.095 432.635c0 .176-.078.36-.205.487a.7.7 0 0 1-.488.204M113.598 433.326a.68.68 0 0 1-.487-.204.72.72 0 0 1-.205-.487M114.984 432.635a.7.7 0 0 1-.205.487.7.7 0 0 1-.488.204"/><path stroke="#040000" stroke-linecap="round" stroke-linejoin="round" stroke-width=".5" d="M132.484 18.48s.05 0 .071.02M79.439 18.48h.042q.023 0 .035.02"/><path stroke="#9fa0a0" stroke-linecap="round" stroke-linejoin="round" stroke-width=".5" d="M112.913 431.676c0 .077.007.148.028.225s.042.156.078.226a1 1 0 0 0 .155.219.6.6 0 0 0 .141.106.6.6 0 0 0 .29.077M114.291 432.529a.6.6 0 0 0 .29-.077.7.7 0 0 0 .297-.325.9.9 0 0 0 .077-.226c.015-.077.029-.148.029-.225M97.017 431.676c0 .077.007.148.028.225s.042.156.078.226a1 1 0 0 0 .155.219.6.6 0 0 0 .141.106c.085.049.191.077.29.077M98.402 432.529a.6.6 0 0 0 .29-.077.7.7 0 0 0 .297-.325.9.9 0 0 0 .077-.226c.014-.077.028-.148.028-.225"/><path stroke="#040000" stroke-linecap="round" stroke-linejoin="round" stroke-width=".5" d="M96.472 437.332q-.89 0-1.781-.084a11 11 0 0 1-1.491-.247 5 5 0 0 1-.566-.176 3 3 0 0 1-.417-.198l-.148-.106c-.036-.035-.078-.07-.106-.113a.4.4 0 0 1-.085-.225M120.115 436.169a.4.4 0 0 1-.085.225.5.5 0 0 1-.106.113.5.5 0 0 1-.148.106 1.8 1.8 0 0 1-.417.198c-.184.07-.375.126-.565.176-.488.127-.99.197-1.492.247q-.89.084-1.781.084"/><path stroke="#9fa0a0" stroke-linecap="round" stroke-linejoin="round" stroke-width=".5" d="M100.141 71.124c0 1.115-.12 2.236-.34 3.336-.219 1.1-.55 2.173-.982 3.21a17.3 17.3 0 0 1-1.59 2.955 16.7 16.7 0 0 1-2.142 2.588 17.4 17.4 0 0 1-2.6 2.123c-.934.621-1.93 1.15-2.97 1.573a17 17 0 0 1-3.215.966 17.172 17.172 0 0 1-6.686-.007 17 17 0 0 1-3.217-.973 17.3 17.3 0 0 1-5.562-3.703 16.6 16.6 0 0 1-2.135-2.588 17.2 17.2 0 0 1-1.59-2.956 17 17 0 0 1-.983-3.209q-.328-1.65-.339-3.322"/><path stroke="#9fa0a0" stroke-linecap="round" stroke-linejoin="round" stroke-width=".5" d="M65.797 71.124c0-1.121.106-2.25.318-3.35a17.1 17.1 0 0 1 2.552-6.2 17.2 17.2 0 0 1 2.134-2.61 16.5 16.5 0 0 1 2.608-2.137 17.7 17.7 0 0 1 2.976-1.587c1.039-.43 2.12-.761 3.23-.98a17.4 17.4 0 0 1 3.357-.331c1.124 0 2.255.112 3.358.331 1.102.219 2.184.55 3.23.98s2.035.967 2.975 1.594 1.81 1.348 2.609 2.138 1.512 1.671 2.134 2.61a17.4 17.4 0 0 1 1.583 2.976 16.7 16.7 0 0 1 .969 3.23c.212 1.107.325 2.222.318 3.336M146.203 71.124a17.13 17.13 0 0 1-2.912 9.5 16.7 16.7 0 0 1-2.141 2.59 17.5 17.5 0 0 1-2.601 2.122 17 17 0 0 1-2.969 1.573 17 17 0 0 1-3.216.966 17.164 17.164 0 0 1-6.686-.007 17 17 0 0 1-3.216-.973 17.3 17.3 0 0 1-5.563-3.703 17.24 17.24 0 0 1-3.725-5.544 17 17 0 0 1-.982-3.209 17.5 17.5 0 0 1-.339-3.322"/><path stroke="#9fa0a0" stroke-linecap="round" stroke-linejoin="round" stroke-width=".5" d="M111.859 71.124c0-1.121.106-2.25.318-3.35a17.1 17.1 0 0 1 2.552-6.2 17 17 0 0 1 2.135-2.61 16.5 16.5 0 0 1 2.608-2.137 17.7 17.7 0 0 1 2.975-1.587 17 17 0 0 1 3.23-.98 17.4 17.4 0 0 1 3.358-.331c1.124 0 2.255.112 3.357.331s2.184.55 3.23.98 2.036.967 2.976 1.594a17.7 17.7 0 0 1 2.608 2.138 16.8 16.8 0 0 1 2.135 2.61 17.4 17.4 0 0 1 1.583 2.976q.648 1.568.968 3.23a17 17 0 0 1 .318 3.336M143.079 434.116a.3.3 0 0 1-.049.155.5.5 0 0 1-.149.148 1.2 1.2 0 0 1-.247.135 3.835 3.835 0 0 1-.756.218 10 10 0 0 1-.481.078 9 9 0 0 1-1.074.063"/><path stroke="#040000" stroke-linecap="round" stroke-linejoin="round" stroke-width=".5" d="M160.184 421.23a11 11 0 0 0 .551-3.421M160.736 32.247c0-1.425-.29-2.863-.834-4.182a10.924 10.924 0 0 0-4.036-4.909 11 11 0 0 0-1.895-1.009 11.2 11.2 0 0 0-4.198-.832M62.242 21.315c-1.428 0-2.87.289-4.199.832a10.93 10.93 0 0 0-3.555 2.37 10.6 10.6 0 0 0-1.364 1.657c-.396.6-.742 1.228-1.01 1.89a11.1 11.1 0 0 0-.835 4.183"/><path stroke="#9fa0a0" stroke-linecap="round" stroke-linejoin="round" stroke-width=".5" d="M81.905 132.607a2.3 2.3 0 0 0-2.163-1.503M150.995 132.607a2.3 2.3 0 0 0-2.162-1.503M63.16 131.097a2.3 2.3 0 0 0-2.162 1.503"/><path stroke="#040000" stroke-linecap="round" stroke-linejoin="round" stroke-width=".5" d="M155.879 120.687c-3.095-.832-6.276.994-7.11 4.077a5.79 5.79 0 0 0 4.085 7.095c.99.268 2.036.268 3.025 0M155.88 249.33c-3.124-.832-6.34 1.016-7.174 4.133a5.846 5.846 0 0 0 4.142 7.159 5.8 5.8 0 0 0 3.032 0M153.653 382.085a22 22 0 0 0-.735-1.39M152.925 380.695a22 22 0 0 0-3.802-4.887M149.115 375.808c-8.807-8.535-22.879-8.323-31.424.465a22.12 22.12 0 0 0-6.114 12.752M111.577 389.025a22 22 0 0 0-.162 2.617M111.415 391.642a22.4 22.4 0 0 0 .395 4.232M111.81 395.874q.009.063.028.127M111.832 396.008a22 22 0 0 0 1.661 5.078M146.161 410.044a22.15 22.15 0 0 0 9.415-14.784M155.576 395.26c.155-.959.247-1.932.275-2.906M155.851 392.347c.022-.776 0-1.551-.056-2.327"/><path stroke="#9fa0a0" stroke-linecap="round" stroke-linejoin="round" stroke-width=".5" d="M61.005 132.607a2.3 2.3 0 0 0-.142.797M132.258 131.097a2.3 2.3 0 0 0-2.304 2.3"/><path stroke="#040000" stroke-linecap="round" stroke-linejoin="round" stroke-width=".5" d="M133.12 170.398c0-3.901-3.173-7.06-7.082-7.06M85.962 163.338c-3.909 0-7.082 3.159-7.082 7.06M129.445 240.506c3.944 0 7.139-3.188 7.139-7.123M75.41 233.369a7.13 7.13 0 0 0 7.131 7.13"/><path stroke="#9fa0a0" stroke-linecap="round" stroke-linejoin="round" stroke-width=".5" d="M133.41 164.191c0 .557.311 1.009.693 1.009M146.995 165.2c.382 0 .693-.452.693-1.009M77.905 165.2c.382 0 .692-.452.692-1.009M64.313 164.191c0 .557.31 1.009.692 1.009M87.85 393.13a2.29 2.29 0 0 0 2.296-2.292M64.277 390.838a2.29 2.29 0 0 0 2.297 2.292M90.146 334.878a2.294 2.294 0 0 0-2.297-2.292M66.581 332.586a2.29 2.29 0 0 0-2.297 2.292"/><path stroke="#9fa0a0" stroke-linecap="round" stroke-linejoin="round" stroke-width=".5" d="M64.546 390.57a2.29 2.29 0 0 0 2.297 2.292M87.588 392.869a2.29 2.29 0 0 0 2.297-2.292M89.878 335.407a2.294 2.294 0 0 0-2.297-2.292M66.843 333.115a2.29 2.29 0 0 0-2.297 2.292M77.905 160.975c.382 0 .692-.431.692-.959M64.313 160.016c0 .528.31.959.692.959M133.41 160.016c0 .528.311.959.693.959M146.995 160.975c.382 0 .693-.431.693-.959M82.047 133.397c0-.268-.05-.543-.142-.797M151.144 133.397c0-.268-.05-.543-.142-.797"/><path stroke="#040000" stroke-linecap="round" stroke-linejoin="round" stroke-width=".5" d="M51.215 43.342s-.014.303-.014.656M51.209 388.955c0 .359 0 .677.014.719M122.123 428.805s.311.014.692.014M144.415 428.812c.375 0 .686 0 .693-.014M152.063 22.86a5.747 5.747 0 0 0-5.753 5.74c0 3.167 2.579 5.742 5.753 5.742s5.753-2.575 5.753-5.741c0-3.167-2.579-5.742-5.753-5.742M59.938 22.86a5.75 5.75 0 0 0-5.754 5.74c0 3.167 2.58 5.742 5.754 5.742s5.753-2.575 5.753-5.741c0-3.167-2.58-5.742-5.754-5.742M153.979 427.916c3.498-.063 6.283-2.948 6.212-6.432 0-.085 0-.162-.007-.247M159.796 421.597a5.92 5.92 0 0 0-5.938-5.918 5.923 5.923 0 0 0-5.93 5.918M133.121 172.697c0 1.171.954 2.123 2.127 2.123M76.752 174.82a2.127 2.127 0 0 0 2.128-2.123M68.688 174.82a4.79 4.79 0 0 0-4.793 4.775M63.86 224.178a4.826 4.826 0 0 0 4.828 4.825"/><path stroke="#9fa0a0" stroke-linecap="round" stroke-linejoin="round" stroke-width=".5" d="M115.45 432.635c2.545 0 4.602-.106 4.602-.24"/><path stroke="#040000" stroke-linecap="round" stroke-linejoin="round" stroke-width=".5" d="M75.417 231.069a2.08 2.08 0 0 0-2.071-2.073"/><path stroke="#9fa0a0" stroke-linecap="round" stroke-linejoin="round" stroke-width=".5" d="M91.949 432.395c0 .134 2.057.24 4.601.24"/><path stroke="#040000" stroke-linecap="round" stroke-linejoin="round" stroke-width=".5" d="M138.662 229.003a2.067 2.067 0 0 0-2.071 2.066M111.209 428.791c1.131 0 2.093-.014 2.276-.035M98.515 428.756c.184.021 1.145.035 2.276.035M143.312 229.003a4.825 4.825 0 0 0 4.828-4.818M148.098 179.588c0-2.638-2.149-4.775-4.792-4.775M51.81 421.59c0 3.442 2.763 6.256 6.219 6.319"/><path stroke="#9fa0a0" stroke-linecap="round" stroke-linejoin="round" stroke-width=".5" d="M97.942 337.939c0 3.809 3.096 6.898 6.913 6.898M107.152 344.837c3.817 0 6.913-3.089 6.913-6.898M114.065 314.96c0-3.809-3.096-6.898-6.913-6.898M104.848 308.062c-3.817 0-6.912 3.089-6.912 6.898M94.486 128.114c-3.817 0-6.912 3.089-6.912 6.898s3.096 6.898 6.912 6.898M117.514 141.903c3.817 0 6.913-3.089 6.913-6.898s-3.096-6.898-6.913-6.898"/><path stroke="#040000" stroke-linecap="round" stroke-linejoin="round" stroke-width=".5" d="M56.12 260.622c3.125.839 6.34-1.016 7.175-4.133a5.846 5.846 0 0 0-4.142-7.159 5.8 5.8 0 0 0-3.032 0M155.901 131.845a5.774 5.774 0 0 0 4.043-7.102 5.8 5.8 0 0 0-4.043-4.035M155.908 260.601a5.832 5.832 0 0 0 0-11.257M56.1 249.351a5.832 5.832 0 0 0 0 11.257M56.1 120.708a5.776 5.776 0 0 0-4.043 7.103 5.8 5.8 0 0 0 4.043 4.034M56.12 131.866a5.805 5.805 0 0 0 7.118-4.077 5.79 5.79 0 0 0-4.085-7.102 5.8 5.8 0 0 0-3.025 0M113.492 401.086a21.5 21.5 0 0 0 1.739 3.061M115.231 404.147q.15.222.311.445M115.542 404.592q.922 1.29 2.014 2.433M117.557 407.025a22 22 0 0 0 1.774 1.665M119.331 408.689q.856.72 1.788 1.355"/><path stroke="#9fa0a0" stroke-linecap="round" stroke-linejoin="round" stroke-width=".5" d="M131.332 398.843h4.608M135.94 396.085h-4.608M127.883 393.095h11.514M139.397 390.337h-11.514M131.332 387.354h4.608M135.94 384.596h-4.608"/><path stroke="#040000" stroke-linecap="round" stroke-linejoin="round" stroke-width=".5" d="M78.937 215.446a1.151 1.151 0 0 1 2.304 0 1.151 1.151 0 0 1-2.305 0"/><path stroke="#9fa0a0" stroke-linecap="round" stroke-linejoin="round" stroke-width=".5" d="M101.462 432.226h.05M101.512 431.965h-.05"/><path stroke="#040000" stroke-linecap="round" stroke-linejoin="round" stroke-width=".5" d="M81.283 232.91c0-.952.77-1.721 1.725-1.721a1.72 1.72 0 1 1 0 3.442 1.72 1.72 0 0 1-1.725-1.721M101.971 215.446a1.151 1.151 0 0 1 2.304 0 1.151 1.151 0 0 1-2.304 0M96.21 215.446c0-.634.517-1.149 1.153-1.149s1.152.515 1.152 1.149a1.151 1.151 0 0 1-2.304 0M90.458 215.446a1.151 1.151 0 0 1 2.304 0 1.151 1.151 0 0 1-2.305 0M84.697 215.446a1.151 1.151 0 0 1 2.304 0 1.151 1.151 0 0 1-2.304 0M84.697 170.856c0-.952.77-1.721 1.724-1.721a1.72 1.72 0 1 1 0 3.442 1.72 1.72 0 0 1-1.724-1.721M101.971 187.868a1.151 1.151 0 0 1 2.304 0 1.151 1.151 0 0 1-2.304 0M96.21 187.868c0-.634.517-1.149 1.153-1.149s1.152.515 1.152 1.149a1.151 1.151 0 0 1-2.304 0M90.458 187.868a1.151 1.151 0 0 1 2.304 0 1.151 1.151 0 0 1-2.305 0M84.697 187.868a1.151 1.151 0 0 1 2.304 0 1.151 1.151 0 0 1-2.304 0M78.937 187.868a1.151 1.151 0 0 1 2.304 0 1.151 1.151 0 0 1-2.305 0"/><path stroke="#9fa0a0" stroke-linecap="round" stroke-linejoin="round" stroke-width=".5" d="M110.488 432.233h.05M110.538 431.965h-.05M131.332 396.085c-.763 0-1.385.621-1.385 1.383s.622 1.382 1.385 1.382M131.332 384.596c-.763 0-1.385.621-1.385 1.382 0 .762.622 1.383 1.385 1.383M127.883 390.337c-.763 0-1.385.621-1.385 1.383 0 .761.622 1.382 1.385 1.382"/><path stroke="#040000" stroke-linecap="round" stroke-linejoin="round" stroke-width=".5" d="M127.261 232.91c0-.952.77-1.721 1.724-1.721a1.72 1.72 0 1 1 0 3.442 1.72 1.72 0 0 1-1.724-1.721M107.725 215.446a1.151 1.151 0 0 1 2.304 0 1.151 1.151 0 0 1-2.304 0M113.485 215.446c0-.634.516-1.149 1.152-1.149.637 0 1.153.515 1.153 1.149a1.151 1.151 0 0 1-2.305 0M119.246 215.446a1.151 1.151 0 0 1 2.304 0 1.151 1.151 0 0 1-2.304 0M124.999 215.446a1.151 1.151 0 0 1 2.304 0 1.151 1.151 0 0 1-2.304 0"/><path stroke="#9fa0a0" stroke-linecap="round" stroke-linejoin="round" stroke-width=".5" d="M135.94 398.843c.764 0 1.386-.62 1.386-1.382s-.622-1.383-1.386-1.383M135.94 387.354c.764 0 1.386-.621 1.386-1.383s-.622-1.382-1.386-1.382M139.397 393.095c.763 0 1.385-.621 1.385-1.383 0-.761-.622-1.382-1.385-1.382"/><path stroke="#040000" stroke-linecap="round" stroke-linejoin="round" stroke-width=".5" d="M130.76 215.446a1.151 1.151 0 0 1 2.304 0 1.151 1.151 0 0 1-2.304 0M123.847 170.856c0-.952.771-1.721 1.725-1.721a1.72 1.72 0 1 1 0 3.442 1.72 1.72 0 0 1-1.725-1.721M107.725 187.868a1.151 1.151 0 0 1 2.304 0 1.151 1.151 0 0 1-2.304 0M113.485 187.868c0-.634.516-1.149 1.152-1.149.637 0 1.153.515 1.153 1.149a1.151 1.151 0 0 1-2.305 0M119.246 187.868a1.151 1.151 0 0 1 2.304 0 1.151 1.151 0 0 1-2.304 0M124.999 187.868a1.151 1.151 0 0 1 2.304 0 1.151 1.151 0 0 1-2.304 0M130.76 187.868a1.151 1.151 0 0 1 2.304 0 1.151 1.151 0 0 1-2.304 0"/><path stroke="#9fa0a0" stroke-linecap="round" stroke-linejoin="round" stroke-width=".5" d="M100.819 432.099s0 .014.007.014a.06.06 0 0 0 .029.014c.042.014.077.028.12.035.063.015.134.022.198.036q.138.02.275.028M101.512 432.233c.275.028.551.042.82.056.36.022.713.036 1.074.043.862.028 1.725.035 2.594.035M111.181 432.099s0 .014-.007.014a.05.05 0 0 1-.028.014c-.042.014-.078.028-.12.035-.064.015-.134.022-.198.036q-.138.02-.276.028M110.488 432.233c-.275.028-.551.042-.82.056-.36.022-.714.036-1.074.043-.862.028-1.725.035-2.594.035M106 431.824c-.862 0-1.725.007-2.594.035-.361.014-.714.021-1.074.042-.276.015-.552.029-.82.057M101.463 431.965c-.092.007-.184.021-.276.028-.071.007-.134.021-.198.035a1 1 0 0 0-.12.036q-.02.002-.028.014s-.008.007-.008.014M106 431.824c.862 0 1.725.007 2.594.035.36.014.714.021 1.074.042.276.015.552.029.82.057M110.538 431.965c.092.007.184.021.276.028q.103.012.198.035a1 1 0 0 1 .12.036q.02.002.028.014s.007.007.007.014M110.489 432.099s-.015-.021-.022-.021a.2.2 0 0 0-.07-.021l-.12-.021-.17-.022M110.107 432c-.226-.028-.46-.042-.686-.056a24 24 0 0 0-.968-.043 71 71 0 0 0-2.446-.035M106 431.866c-.812 0-1.632.007-2.445.035l-.969.043c-.226.014-.459.028-.685.056M101.901 432c-.057 0-.113.014-.17.021-.042 0-.085.015-.12.022-.021 0-.05.014-.071.021-.014 0-.021.014-.021.021M101.512 432.099s.014.021.021.021a.2.2 0 0 0 .071.021l.12.021.169.022M101.901 432.191c.226.028.459.042.685.056.326.021.644.035.969.042.813.029 1.633.036 2.445.036"/><path stroke="#9fa0a0" stroke-linecap="round" stroke-linejoin="round" stroke-width=".5" d="M106 432.332c.813 0 1.633-.007 2.446-.036l.968-.042c.226-.014.459-.028.685-.056M110.107 432.191c.056 0 .113-.014.17-.021.042 0 .084-.015.12-.022.021 0 .049-.014.07-.021.015 0 .022-.014.022-.021"/><path stroke="#040000" stroke-linecap="round" stroke-linejoin="round" stroke-width=".5" d="M147.921 421.597a5.93 5.93 0 0 0 5.93 5.924c3.273 0 5.937-2.652 5.937-5.917M91.885 436.176l.064-4.585M120.052 431.591l.063 4.578"/><path stroke="#231815" stroke-linecap="round" stroke-linejoin="round" stroke-width=".5" d="M51.265 389.921h3.11M51.187 387.114h3.096M56.68 366.321h2.24M58.92 364.128h-2.24M56.68 341.536h2.24M58.92 339.336h-2.24M54.283 387.114l.029.028M56.68 316.751h2.24M58.92 314.551h-2.24M56.68 291.959h2.24M58.92 289.766h-2.24M56.68 267.174h2.24M58.92 264.974h-2.24M54.312 262.343h2.367M54.312 387.191v-125.56M56.68 262.343v2.631M56.68 267.174v22.592M56.68 291.959v22.592M56.68 316.751v22.585M56.68 341.536v22.592M56.68 366.321v21.301M58.92 366.321v-2.193M58.92 341.536v-2.2M58.92 316.751v-2.2M58.92 291.959v-2.193M58.92 267.174v-2.2M55.76 260.523a1.15 1.15 0 0 0-1.406.811 1 1 0 0 0-.042.297M54.375 389.921a2.296 2.296 0 0 0 2.297-2.299M152.755 366.399h2.241M154.996 364.205h-2.241M152.755 341.614h2.241M154.996 339.42h-2.241M152.755 316.829h2.241M154.996 314.628h-2.241M152.755 292.044h2.241M154.996 289.843h-2.241M152.755 267.252h2.241M154.996 265.059h-2.241M154.996 262.421h2.361M152.755 265.059v2.193M152.755 289.843v2.201M152.755 314.628v2.201M152.755 339.42v2.194M152.755 364.205v2.194M154.996 381.76v-15.361M154.996 364.205v-22.591M154.996 339.42v-22.591M154.996 314.628v-22.584M154.996 289.843v-22.591M154.996 265.059v-2.638M157.357 387.269V261.708M157.357 261.708a1.15 1.15 0 0 0-1.449-1.107M56.778 247.609H54.41M56.778 221.935h2.24M59.018 219.735h-2.24M54.41 248.321V133.072M56.778 133.841v10.157M56.778 146.657v22.591M56.778 171.9v22.591M56.778 197.15v22.585M56.778 221.935v25.674M59.019 221.935v-2.2M59.019 197.15v-2.659M59.019 171.9v-2.652M59.019 146.657v-2.659M56.778 197.15h2.24M59.018 194.491h-2.24M56.778 171.9h2.24M59.018 169.248h-2.24M56.778 146.657h2.24M59.018 143.998h-2.24M54.41 133.841h2.368M54.41 248.321c0 .635.516 1.15 1.152 1.15q.15 0 .297-.042M55.86 131.746c-.616-.197-1.245.233-1.414.967a1.6 1.6 0 0 0-.043.359M157.329 247.531h-2.361M152.727 221.865h2.241M154.968 219.664h-2.241M152.727 197.073h2.241M154.968 194.421h-2.241M152.727 171.83h2.241M154.968 169.171h-2.241"/><path stroke="#9fa0a0" stroke-linecap="round" stroke-linejoin="round" stroke-width=".5" d="M151.2 151.728h-3.512"/><path stroke="#231815" stroke-linecap="round" stroke-linejoin="round" stroke-width=".5" d="M152.727 146.586h2.241"/><path stroke="#9fa0a0" stroke-linecap="round" stroke-linejoin="round" stroke-width=".5" d="M151.144 144.167h-3.456"/><path stroke="#231815" stroke-linecap="round" stroke-linejoin="round" stroke-width=".5" d="M154.968 143.927h-2.241M154.968 133.771h2.361"/><path stroke="#9fa0a0" stroke-linecap="round" stroke-linejoin="round" stroke-width=".5" d="m151.201 151.728-.057-7.561"/><path stroke="#231815" stroke-linecap="round" stroke-linejoin="round" stroke-width=".5" d="M152.727 143.927v2.659M152.727 169.171v2.659M152.727 194.421v2.652M152.727 219.664v2.201M154.968 247.531v-25.666M154.968 219.664v-22.591M154.968 194.421V171.83M154.968 169.171v-22.585M154.968 143.927v-10.156M157.329 248.244V133.002M155.879 249.358a1.158 1.158 0 0 0 1.456-1.107M157.329 133.002a1.15 1.15 0 0 0-1.456-1.108"/><path stroke="#9fa0a0" stroke-linecap="round" stroke-linejoin="round" stroke-width=".5" d="M151.144 133.425c0-.268-.05-.543-.142-.797"/><path stroke="#231815" stroke-linecap="round" stroke-linejoin="round" stroke-width=".5" d="m54.615 118.966-.05.099M54.566 119.841v-.776"/><path stroke="#9fa0a0" stroke-linecap="round" stroke-linejoin="round" stroke-width=".5" d="M54.615 45.775v73.191"/><path stroke="#231815" stroke-linecap="round" stroke-linejoin="round" stroke-width=".5" d="M55.258 45.754v73.191M56.926 45.754v13.951M56.926 62.357v22.591M56.926 87.15v22.583M56.926 112.392v6.673M59.174 112.392v-2.659M59.174 87.15v-2.202M59.174 62.357v-2.652M56.927 119.065h-2.361M56.926 112.392h2.248M59.174 109.733h-2.248M56.926 87.15h2.248M59.174 84.949h-2.248M56.926 62.357h2.248M59.174 59.705h-2.248M51.103 45.754h4.156M51.166 43.455h3.463M54.566 119.841c0 .634.382 1.149.841 1.149.07 0 .148-.014.22-.042M56.927 45.754a2.307 2.307 0 0 0-2.298-2.306M157.237 118.987h-2.361M152.635 112.315h2.241M152.635 109.656v2.659M152.635 87.065V84.87M152.635 62.28v-2.652M154.876 109.656h-2.241M154.876 118.987v-6.672M154.876 109.656V87.064M154.876 84.87V62.28M154.876 59.628V45.676M156.551 118.867v-73.19M157.194 118.888v-73.19M157.237 119.763v-.776M152.635 87.065h2.241M154.876 84.87h-2.241M157.194 118.888l.043.099M152.635 62.28h2.241M154.876 59.628h-2.241M156.551 45.676h4.149M160.643 43.377h-3.47M157.173 43.377a2.3 2.3 0 0 0-2.297 2.306M155.788 120.701a1.156 1.156 0 0 0 1.456-1.107"/><path fill="#fff" stroke="#231815" stroke-linecap="round" stroke-linejoin="round" d="M106 325.25c55.029 0 99.639-44.515 99.639-99.428s-44.61-99.429-99.639-99.429-99.639 44.516-99.639 99.429S50.971 325.25 106 325.25"/><mask id="b" width="200" height="200" x="6" y="126" maskUnits="userSpaceOnUse" style="mask-type:luminance"><path fill="#fff" d="M106 325.25c55.029 0 99.639-44.515 99.639-99.428s-44.61-99.429-99.639-99.429-99.639 44.516-99.639 99.429S50.971 325.25 106 325.25"/></mask><g stroke-linecap="round" stroke-linejoin="round" stroke-width=".5" mask="url(#b)"><path stroke="#231815" d="M36.577 319.834h3.18M172.242 319.834h3.18M175.422 316.716h-3.18M39.758 316.716h-3.18M33.227 312.978h3.35M175.422 312.978h3.351"/><path stroke="#9fa0a0" d="M159.873 295.105H52.127"/><path stroke="#231815" d="M178.773 291.804h-3.351M36.577 291.804h-3.35M72.759 281.873h66.482M158.897 265.566h-6.594M59.697 265.566h-6.595M53.103 265.193h105.795M157.264 262.639H54.734M161.505 257.427h-1.632M50.494 257.427h1.633M36.577 255.41h3.18M172.242 255.41h3.18M175.422 252.292h-3.18M39.758 252.292h-3.18M33.227 292.813V129.426M36.577 130.519v14.396M36.577 148.681v32.029M36.577 184.476v32.021M36.577 220.264v32.028M36.577 255.41v36.394M36.577 312.978v3.738M39.758 319.834v-3.118M39.758 255.41v-3.118M39.758 220.264v-3.767M39.758 184.476v-3.766M39.758 148.681v-3.766"/><path stroke="#9fa0a0" d="M42.005 145.253v-15.228"/><path stroke="#231815" d="M46.635 258.732v-63.211"/><path stroke="#9fa0a0" d="M46.904 173.678v-33.891"/><path stroke="#231815" d="m46.26 258.732.057-63.211"/><path stroke="#9fa0a0" d="m41.92 155.974.085-10.721"/><path stroke="#231815" d="M36.577 220.264h3.18M172.242 220.264h3.18M175.422 216.497h-3.18M39.758 216.497h-3.18M50.494 196.17h2.283M55.393 190.958H158.24"/><path stroke="#9fa0a0" d="m72.13 155.974-.085-10.721"/><path stroke="#231815" d="M50.494 257.427V196.17M54.735 262.639v-2.609M55.393 190.958v2.61"/><path stroke="#9fa0a0" d="M67.147 173.678v-33.891M72.045 130.025v15.228"/><path stroke="#231815" d="m62.637 268.508-.007 3.258M67.55 182.487v3.259M158.898 189.061H53.103M53.103 188.75h11.429M147.468 188.75h11.429M36.577 184.476h3.18M172.242 184.476h3.18M175.422 180.71h-3.18M39.758 180.71h-3.18"/><path stroke="#9fa0a0" d="M47.879 175.109h18.285M145.835 175.109h18.286"/><path stroke="#231815" d="M134.406 172.471H77.593"/><path stroke="#9fa0a0" d="M47.879 169.128h18.285M145.835 169.128h18.286M170.079 155.974h-4.983M144.853 155.974h-4.983M72.13 155.974h-4.983M46.903 155.974H41.92"/><path stroke="#231815" d="M36.577 148.681h3.18M172.242 148.681h3.18"/><path stroke="#9fa0a0" d="M169.994 145.253h-4.898M144.853 145.253h-4.898M72.045 145.253h-4.898M46.904 145.253h-4.899"/><path stroke="#231815" d="M175.422 144.915h-3.18M39.758 144.915h-3.18"/><path stroke="#9fa0a0" d="M89.672 142.425h32.655M46.904 139.787h20.243M144.853 139.787h20.243"/><path stroke="#231815" d="M33.227 130.519h3.35M175.422 130.519h3.351"/><path stroke="#9fa0a0" d="M139.955 145.253v-15.228M139.87 155.974l.085-10.721M45.271 126.774h23.508M143.22 126.774h23.509M170.079 155.974l-.085-10.721"/><path stroke="#231815" d="M144.45 185.746v-3.259M149.369 271.766l-.007-3.258M165.683 195.521l.063 63.211"/><path stroke="#9fa0a0" d="M144.853 173.678v-33.891"/><path stroke="#231815" d="M157.265 262.639v-2.609M161.505 194.216v63.211"/><path stroke="#9fa0a0" d="M165.096 173.678v-33.891"/><path stroke="#231815" d="M165.372 195.521v63.211"/><path stroke="#9fa0a0" d="M169.994 130.025v15.228"/><path stroke="#231815" d="M172.242 144.915v3.766M172.242 180.71v3.766M172.242 216.497v3.767M172.242 252.292v3.118M172.242 316.716v3.118M175.422 316.716v-3.738M175.422 291.804V255.41M175.422 252.292v-32.028M175.422 216.497v-32.021M175.422 180.71v-32.029M175.422 144.915v-14.396M178.773 292.813V129.426M46.635 258.732c0 3.569 2.898 6.461 6.475 6.461M53.102 189.061c-3.576 0-6.474 2.891-6.474 6.46M33.842 302.391a3.592 3.592 0 0 1 7.181 0 3.592 3.592 0 0 1-7.181 0M54.735 260.03a2.61 2.61 0 0 0-2.615-2.61M52.777 196.17a2.61 2.61 0 0 0 2.615-2.61"/><path stroke="#231815" d="M50.006 260.03c0-1.171.947-2.116 2.12-2.116a2.115 2.115 0 1 1 0 4.232 2.116 2.116 0 0 1-2.12-2.116"/><path stroke="#231815" d="M50.091 260.03c0-1.122.912-2.032 2.036-2.032s2.035.91 2.035 2.032a2.034 2.034 0 0 1-2.035 2.031 2.034 2.034 0 0 1-2.036-2.031M33.227 292.813a1.63 1.63 0 0 0 2.057 1.573M35.284 310.403a1.636 1.636 0 0 0-2.057 1.573M35.284 127.853a1.63 1.63 0 0 0-2.057 1.566M165.372 195.521c0-3.569-2.898-6.46-6.475-6.46M158.897 265.193c3.577 0 6.475-2.892 6.475-6.461M170.977 302.391a3.587 3.587 0 0 1 3.59-3.583 3.59 3.59 0 0 1 3.591 3.583 3.591 3.591 0 0 1-7.181 0M161.506 194.216a3.263 3.263 0 0 0-3.266-3.258M159.873 257.427a2.61 2.61 0 0 0-2.616 2.61"/><path stroke="#231815" d="M157.752 260.03c0-1.171.948-2.116 2.121-2.116a2.115 2.115 0 1 1 0 4.232 2.117 2.117 0 0 1-2.121-2.116"/><path stroke="#231815" d="M157.837 260.03c0-1.122.912-2.032 2.036-2.032 1.123 0 2.035.91 2.035 2.032a2.034 2.034 0 0 1-2.035 2.031 2.034 2.034 0 0 1-2.036-2.031M176.716 294.386a1.635 1.635 0 0 0 2.057-1.573M178.773 311.976a1.632 1.632 0 0 0-2.057-1.573M178.773 129.426a1.63 1.63 0 0 0-2.057-1.573"/><path stroke="#9fa0a0" d="M89.673 122.196c-.665 0-1.33.064-1.98.198s-1.286.324-1.9.578a10.12 10.12 0 0 0-3.287 2.201c-.467.472-.891.98-1.259 1.53q-.55.827-.933 1.75a10.5 10.5 0 0 0-.58 1.897 9.7 9.7 0 0 0-.19 1.975c0 .663.064 1.326.19 1.975.128.649.326 1.283.58 1.897q.382.923.933 1.749c.368.55.792 1.065 1.258 1.531.467.465.983.888 1.534 1.262a9.7 9.7 0 0 0 1.753.938 10.6 10.6 0 0 0 1.901.579c.65.134 1.315.197 1.98.197M122.327 142.425c.665 0 1.329-.064 1.979-.198s1.287-.324 1.902-.578a10.064 10.064 0 0 0 3.286-2.201c.467-.472.891-.98 1.258-1.53.368-.55.679-1.136.933-1.749q.38-.923.58-1.898a9.8 9.8 0 0 0 .191-1.974 9.923 9.923 0 0 0-.771-3.873 10.1 10.1 0 0 0-2.191-3.279 10.5 10.5 0 0 0-1.534-1.263 9.7 9.7 0 0 0-1.752-.938 10.6 10.6 0 0 0-1.902-.578 10 10 0 0 0-1.979-.198M71.84 128.904a3.26 3.26 0 0 0-3.068-2.13M169.796 128.904a3.26 3.26 0 0 0-3.067-2.13M45.27 126.774a3.27 3.27 0 0 0-3.067 2.13"/><path stroke="#231815" d="M139.241 281.873c5.591 0 10.122-4.521 10.122-10.1v-.007M62.63 271.766c0 5.579 4.523 10.107 10.114 10.114h.007M144.45 182.487c0-5.53-4.502-10.016-10.044-10.016M77.593 172.471c-5.541 0-10.037 4.479-10.044 10.016M144.45 185.746a3.01 3.01 0 0 0 3.018 3.004M64.531 188.75a3.02 3.02 0 0 0 3.018-3.004M53.103 188.75c-3.747 0-6.786 3.033-6.793 6.771M46.26 258.732c0 3.773 3.06 6.834 6.842 6.841M62.637 268.508a2.934 2.934 0 0 0-2.933-2.935M152.303 265.566a2.935 2.935 0 0 0-2.941 2.934M158.897 265.566c3.782 0 6.849-3.061 6.849-6.834M165.683 195.521c0-3.738-3.04-6.771-6.793-6.771"/><path stroke="#9fa0a0" d="M144.853 173.678c0 .789.438 1.431.982 1.431M164.121 175.109c.544 0 .982-.642.982-1.431"/><path stroke="#231815" d="M176.716 294.386c-4.432-1.185-8.984 1.439-10.171 5.861-1.188 4.422 1.442 8.964 5.873 10.149a8.4 8.4 0 0 0 4.298 0M35.284 310.403c4.431 1.185 8.99-1.438 10.178-5.861 1.187-4.422-1.442-8.971-5.874-10.156a8.37 8.37 0 0 0-4.297 0"/><path stroke="#9fa0a0" d="M66.164 169.128c.544 0 .983-.606.983-1.361M46.904 167.767c0 .748.438 1.361.982 1.361M144.853 167.767c0 .748.438 1.361.982 1.361M164.121 169.128c.544 0 .982-.606.982-1.361M143.221 126.774a3.263 3.263 0 0 0-3.266 3.258M169.994 130.025c0-.38-.07-.761-.198-1.128M42.203 128.904c-.134.36-.198.741-.198 1.128M72.045 130.025c0-.38-.071-.761-.198-1.128M66.164 175.109c.544 0 .983-.642.983-1.431M46.904 173.678c0 .789.438 1.431.982 1.431"/><path stroke="#231815" d="M35.248 294.414a8.27 8.27 0 0 0-5.817 10.156 8.3 8.3 0 0 0 5.81 5.805M176.751 310.375c4.418-1.206 7.019-5.748 5.81-10.156a8.27 8.27 0 0 0-5.817-5.798M67.634 207.251c0-.903.728-1.63 1.633-1.63s1.633.727 1.633 1.63-.728 1.629-1.633 1.629a1.627 1.627 0 0 1-1.633-1.629M67.634 246.346c0-.902.728-1.629 1.633-1.629s1.633.727 1.633 1.629c0 .903-.728 1.63-1.633 1.63a1.63 1.63 0 0 1-1.633-1.63M70.963 271.11a2.444 2.444 0 0 1 2.446-2.44 2.444 2.444 0 0 1 2.445 2.44 2.444 2.444 0 0 1-2.445 2.441 2.444 2.444 0 0 1-2.446-2.441M83.961 246.346c0-.902.728-1.629 1.633-1.629s1.633.727 1.633 1.629c0 .903-.728 1.63-1.633 1.63a1.63 1.63 0 0 1-1.633-1.63M75.798 246.346c0-.902.728-1.629 1.633-1.629.904 0 1.632.727 1.632 1.629 0 .903-.728 1.63-1.632 1.63a1.63 1.63 0 0 1-1.633-1.63M75.798 183.136a2.444 2.444 0 0 1 2.445-2.441 2.444 2.444 0 0 1 2.446 2.441 2.444 2.444 0 0 1-2.446 2.44 2.444 2.444 0 0 1-2.445-2.44M83.961 207.251c0-.903.728-1.63 1.633-1.63s1.633.727 1.633 1.63-.728 1.629-1.633 1.629a1.627 1.627 0 0 1-1.633-1.629M75.798 207.251c0-.903.728-1.63 1.633-1.63.904 0 1.632.727 1.632 1.63s-.728 1.629-1.632 1.629a1.627 1.627 0 0 1-1.633-1.629M100.289 246.346c0-.902.728-1.629 1.632-1.629.905 0 1.633.727 1.633 1.629 0 .903-.728 1.63-1.633 1.63a1.63 1.63 0 0 1-1.632-1.63M100.289 207.251c0-.903.728-1.63 1.632-1.63.905 0 1.633.727 1.633 1.63s-.728 1.629-1.633 1.629a1.627 1.627 0 0 1-1.632-1.629M92.125 207.251c0-.903.728-1.63 1.633-1.63.904 0 1.633.727 1.633 1.63s-.729 1.629-1.633 1.629a1.627 1.627 0 0 1-1.633-1.629M136.138 271.11a2.444 2.444 0 0 1 2.446-2.44 2.443 2.443 0 0 1 2.445 2.44 2.444 2.444 0 0 1-2.445 2.441 2.445 2.445 0 0 1-2.446-2.441M131.304 183.136a2.444 2.444 0 0 1 2.445-2.441 2.445 2.445 0 0 1 2.446 2.441 2.444 2.444 0 0 1-2.446 2.44 2.443 2.443 0 0 1-2.445-2.44M108.453 207.251c0-.903.728-1.63 1.632-1.63.905 0 1.633.727 1.633 1.63s-.728 1.629-1.633 1.629a1.627 1.627 0 0 1-1.632-1.629M116.609 207.251c0-.903.728-1.63 1.633-1.63.904 0 1.632.727 1.632 1.63s-.728 1.629-1.632 1.629a1.63 1.63 0 0 1-1.633-1.629M124.772 207.251c0-.903.728-1.63 1.633-1.63s1.633.727 1.633 1.63-.728 1.629-1.633 1.629a1.63 1.63 0 0 1-1.633-1.629M141.1 207.251c0-.903.728-1.63 1.633-1.63s1.633.727 1.633 1.63-.728 1.629-1.633 1.629a1.63 1.63 0 0 1-1.633-1.629M108.453 246.346c0-.902.728-1.629 1.632-1.629.905 0 1.633.727 1.633 1.629 0 .903-.728 1.63-1.633 1.63a1.63 1.63 0 0 1-1.632-1.63M124.772 246.346c0-.902.728-1.629 1.633-1.629s1.633.727 1.633 1.629c0 .903-.728 1.63-1.633 1.63a1.63 1.63 0 0 1-1.633-1.63M132.936 246.346c0-.902.728-1.629 1.633-1.629.904 0 1.632.727 1.632 1.629 0 .903-.728 1.63-1.632 1.63a1.63 1.63 0 0 1-1.633-1.63M141.1 246.346c0-.902.728-1.629 1.633-1.629s1.633.727 1.633 1.629c0 .903-.728 1.63-1.633 1.63a1.63 1.63 0 0 1-1.633-1.63"/></g><path stroke="#924898" stroke-miterlimit="10" stroke-width="3" d="M69.182 246.311v39.209"/><path stroke="#b35021" stroke-miterlimit="10" stroke-width="3" d="M77.396 246.311v39.209"/><path stroke="#9fa0a0" stroke-miterlimit="10" stroke-width="2.83" d="M85.538 246.311v39.209"/><path stroke="#e60012" stroke-miterlimit="10" stroke-width="3" d="M142.747 164.36v42.982M77.396 164.36v42.982"/><path stroke="#45b035" stroke-miterlimit="10" stroke-width="3" d="M85.453 164.36v42.982M110.064 246.311v39.209"/><path stroke="#ffe100" stroke-miterlimit="10" stroke-width="3" d="M93.751 207.342V164.36"/><path fill="#fff" stroke="#231815" stroke-miterlimit="10" stroke-width=".28" d="M102.911 246.311h-2.12v39.209h2.12zM102.911 164.36h-2.12v43.004h2.12z"/><path fill="#231815" d="M143.496 217.887h-.601v-4.394l-1.201.486v-.599l1.703-.705h.092v5.212zM128.017 217.887h-3.067v-.473l1.618-1.996q.359-.457.495-.733c.092-.191.134-.381.134-.586 0-.268-.07-.493-.219-.663a.73.73 0 0 0-.594-.261c-.297 0-.523.092-.692.282q-.246.278-.248.776h-.593c0-.479.141-.86.417-1.156.275-.297.65-.445 1.116-.445.439 0 .778.127 1.032.381.255.254.382.593.382 1.009 0 .508-.297 1.121-.884 1.827l-1.251 1.509h2.347v.536zM117.662 214.967h.446c.282 0 .502-.085.664-.247s.24-.374.24-.642q-.001-.91-.819-.91a.82.82 0 0 0-.615.247q-.234.245-.234.649h-.593c0-.409.134-.755.41-1.023.268-.275.615-.409 1.032-.409q.657-.002 1.039.388c.254.261.374.621.374 1.079 0 .226-.063.445-.198.656a1.24 1.24 0 0 1-.537.473q.382.136.594.451.212.316.212.769c0 .466-.134.832-.41 1.107q-.412.41-1.067.409-.66-.002-1.075-.395c-.275-.26-.41-.613-.41-1.043h.601q-.001.412.24.656.243.244.644.246.434-.002.657-.246c.148-.17.226-.402.226-.72s-.085-.536-.247-.691c-.163-.155-.41-.247-.721-.247h-.445v-.536zM111.146 216.138h.65v.536h-.65v1.206h-.601v-1.206h-2.128v-.388l2.093-3.597h.636v3.449m-2.05 0h1.456v-2.547l-.071.142-1.385 2.398zM100.755 215.284l.241-2.588h2.396v.606h-1.895l-.141 1.418c.226-.148.488-.226.778-.226q.636 0 1.017.466.373.465.375 1.269c0 .536-.127.953-.389 1.263-.261.31-.622.458-1.088.458q-.617 0-1.011-.381-.392-.38-.445-1.057h.565c.036.296.135.521.283.67.148.148.36.225.608.225a.78.78 0 0 0 .65-.31q.233-.318.233-.868c0-.345-.085-.627-.254-.832a.83.83 0 0 0-.679-.317c-.261 0-.459.063-.608.19l-.155.141-.474-.134zM94.656 212.696v.557h-.107c-.459.007-.834.162-1.102.458-.276.297-.431.713-.474 1.242.248-.311.58-.473 1.011-.473s.735.162.976.48c.24.317.367.726.367 1.234 0 .536-.134.959-.396 1.284-.261.317-.615.479-1.053.479s-.813-.19-1.088-.571q-.415-.573-.417-1.474v-.254c0-.952.183-1.686.55-2.186.368-.508.913-.762 1.64-.776h.107zm-.778 2.334a.9.9 0 0 0-.565.205q-.257.2-.354.508v.24c0 .43.085.768.262 1.029.176.261.388.395.65.395.261 0 .48-.106.629-.324q.234-.33.233-.861 0-.529-.233-.867a.71.71 0 0 0-.622-.332zM87.192 213.07l-1.937 4.817h-.622l1.93-4.648h-2.53v-.543h3.159zM78.851 214.05c0 .261-.063.487-.183.691-.12.205-.29.36-.502.473q.369.18.58.508.21.338.211.761c0 .452-.134.804-.41 1.072q-.413.402-1.081.402c-.445 0-.813-.134-1.081-.402-.269-.268-.41-.62-.41-1.072q.001-.423.205-.761a1.4 1.4 0 0 1 .572-.515 1.3 1.3 0 0 1-.495-.473 1.3 1.3 0 0 1-.176-.691q0-.654.381-1.044c.255-.254.587-.388.997-.388q.615-.002.996.388c.255.254.382.607.382 1.044zm-.487 2.419c0-.289-.085-.529-.248-.712a.83.83 0 0 0-.65-.275.83.83 0 0 0-.643.268c-.163.183-.24.416-.24.712s.077.529.233.691q.233.254.657.254c.283 0 .495-.084.657-.254.156-.169.24-.402.24-.691zm-.891-3.301a.71.71 0 0 0-.565.24c-.142.162-.22.381-.22.656s.071.48.212.642a.72.72 0 0 0 .573.247c.24 0 .431-.085.573-.247q.211-.242.212-.642t-.22-.642a.7.7 0 0 0-.565-.247zM70.137 215.602a1.6 1.6 0 0 1-.446.395q-.256.148-.565.148c-.269 0-.502-.071-.707-.219a1.46 1.46 0 0 1-.466-.621 2.3 2.3 0 0 1-.163-.888c0-.346.057-.656.177-.938.12-.275.29-.494.509-.635a1.33 1.33 0 0 1 .763-.219q.691-.002 1.096.579.402.579.402 1.572v.191c0 1.008-.176 1.749-.537 2.207q-.54.7-1.633.713h-.113v-.557h.128c.487-.007.869-.148 1.13-.424.262-.275.41-.705.432-1.297zm-.92 0a.88.88 0 0 0 .552-.205q.253-.202.368-.501v-.261q0-.645-.255-1.058c-.17-.268-.382-.409-.643-.409a.74.74 0 0 0-.63.332c-.155.218-.24.515-.24.881 0 .367.078.649.227.875.155.226.36.346.615.346zM140.803 241.713h-.601l-.042-4.388-1.195.501v-.599l1.69-.727h.091l.05 5.213zM145.454 239.455c.007.769-.106 1.348-.34 1.721-.233.381-.6.572-1.109.572-.502 0-.87-.177-1.117-.536-.24-.367-.375-.91-.389-1.644v-.881c-.014-.762.099-1.333.332-1.7q.352-.562 1.117-.564c.502 0 .877.169 1.117.529q.36.528.382 1.65v.853zm-.601-.895c0-.557-.078-.967-.226-1.22q-.213-.383-.679-.374a.71.71 0 0 0-.664.388q-.204.383-.205 1.178v1.058q.02.837.24 1.241a.72.72 0 0 0 .672.395.69.69 0 0 0 .65-.381q.212-.38.212-1.192v-1.093M132.901 241.755h-.601v-4.394l-1.201.486v-.599l1.703-.713h.092v5.213zM136.598 241.755h-.601v-4.394l-1.202.486v-.599l1.704-.713h.092v5.213zM124.999 241.755h-.601v-4.394l-1.201.486v-.599l1.703-.713h.092v5.213zM129.813 241.755h-3.068v-.473l1.619-1.996c.24-.303.402-.55.494-.733q.137-.277.135-.586c0-.268-.071-.493-.22-.663a.73.73 0 0 0-.593-.261c-.297 0-.523.092-.693.282-.162.184-.247.445-.247.776h-.594c0-.479.141-.86.417-1.156q.415-.445 1.117-.445c.438 0 .777.127 1.032.381.254.254.381.593.381 1.009 0 .508-.296 1.121-.883 1.826l-1.251 1.51h2.346v.536zM108.347 241.755h-.601v-4.394l-1.202.486v-.599l1.704-.713h.092v5.213zM110.948 238.842h.445c.283 0 .502-.085.664-.247q.243-.242.241-.642-.002-.91-.82-.91a.82.82 0 0 0-.615.247q-.234.245-.233.649h-.594c0-.409.134-.755.41-1.023a1.42 1.42 0 0 1 1.032-.409q.657-.002 1.039.388c.254.261.374.621.374 1.079 0 .226-.063.445-.198.656a1.24 1.24 0 0 1-.537.473q.382.136.594.451.212.316.212.769c0 .466-.134.832-.41 1.107q-.412.41-1.067.409-.659-.002-1.075-.395c-.275-.26-.41-.613-.41-1.043h.601q-.002.412.241.656.241.244.643.246.435-.002.657-.246c.149-.17.226-.402.226-.713s-.085-.536-.247-.698c-.17-.162-.41-.247-.721-.247h-.445v-.536zM100.183 241.755h-.601v-4.394l-1.202.486v-.599l1.704-.713h.092v5.213zM104.43 240.013h.651v.536h-.651v1.206h-.6v-1.206h-2.128v-.388l2.092-3.597h.629v3.449zm-2.049 0h1.456v-2.547l-.071.142zM83.891 241.755h-.6v-4.394l-1.202.486v-.599l1.703-.713h.092v5.213zM85.906 239.152l.24-2.588h2.396v.606h-1.894l-.141 1.418q.34-.224.777-.226.636 0 1.018.466c.254.31.374.733.374 1.269s-.127.953-.388 1.263c-.262.31-.622.458-1.089.458q-.617 0-1.01-.381-.393-.38-.446-1.058h.566c.035.297.134.522.282.671.149.148.36.225.608.225a.78.78 0 0 0 .65-.31q.234-.318.234-.868c0-.345-.085-.627-.255-.832a.82.82 0 0 0-.678-.317c-.262 0-.46.063-.608.19l-.156.141-.473-.134zM76.102 241.684h-.6v-4.394l-1.202.487v-.6l1.703-.712h.092v5.212zM80.174 236.493v.557h-.106c-.46.007-.834.163-1.103.459-.276.296-.431.705-.474 1.241.248-.31.58-.472 1.011-.472s.735.162.976.479c.24.318.367.727.367 1.235 0 .536-.134.959-.396 1.283-.261.325-.615.48-1.053.48s-.813-.191-1.088-.571q-.416-.573-.417-1.475v-.253c0-.953.183-1.686.55-2.187q.55-.753 1.64-.776h.107zm-.778 2.342a.9.9 0 0 0-.565.204q-.257.201-.354.508v.24c0 .43.085.769.262 1.03.176.261.388.395.65.395a.74.74 0 0 0 .63-.325c.155-.218.232-.508.232-.86q0-.53-.233-.868a.71.71 0 0 0-.622-.331zM67.705 241.755h-.6v-4.394l-1.202.486v-.599l1.703-.713h.092v5.213zM72.469 236.938l-1.937 4.817h-.622l1.93-4.648h-2.53v-.543h3.159z"/><path stroke="#ffe100" stroke-miterlimit="10" stroke-width="3" d="M109.88 207.145v-42.989"/><path stroke="#45b035" stroke-miterlimit="10" stroke-width="3" d="M134.435 246.311v39.209"/><path stroke="#f08300" stroke-miterlimit="10" stroke-width="3" d="M126.299 246.311v39.209"/><path fill="#231815" d="M127.317 164.156h-2v42.869h2z"/><path stroke="#0b62aa" stroke-miterlimit="10" stroke-width="3" d="M118.242 207.088v-42.982"/><path stroke="#231815" stroke-miterlimit="10" stroke-width="3" d="M69.154 164.36v42.982"/><path stroke="#231815" stroke-miterlimit="10" d="M101.851 164.36v43.004M109.88 164.142v43.003"/><path stroke="#fff" stroke-miterlimit="10" stroke-width=".7" d="M118.242 164.106v43.004M126.321 164.106v43.004"/><path stroke="#fff" stroke-miterlimit="10" stroke-width=".8" d="M126.321 246.311v39.209M134.442 246.311v39.209"/><path stroke="#9fa0a0" stroke-miterlimit="10" stroke-width="3" d="M142.747 246.311v39.209"/><path stroke="#fff" stroke-miterlimit="10" stroke-width=".8" d="M142.747 246.311v39.209"/></g><defs><clipPath id="a"><path fill="#fff" d="M0 0h212v450H0z"/></clipPath></defs></svg>