<svg width="314" height="62" viewBox="0 0 314 62" fill="none" xmlns="http://www.w3.org/2000/svg">
<g clip-path="url(#clip0_810_2)">
<path d="M293.96 30.53H248.37H68.87H23.27" stroke="#45B035" stroke-width="3" stroke-miterlimit="10"/>
<path d="M248.37 26.92H68.87C42 26.92 23.11 22.37 22.92 22.32L23.63 19.41C23.81 19.46 42.38 23.92 68.87 23.92H248.37C274.85 23.92 293.42 19.45 293.61 19.41L294.32 22.32C294.13 22.37 275.24 26.92 248.37 26.92Z" fill="white" stroke="#231815" stroke-width="0.3" stroke-miterlimit="10"/>
<path d="M293.96 10.2C293.96 10.2 276.26 20.2 248.37 20.2H68.87C40.98 20.2 23.28 10.2 23.28 10.2" stroke="#E60012" stroke-width="3" stroke-miterlimit="10"/>
<path d="M293.96 50.87C293.96 50.87 276.26 37.06 248.37 37.06H68.87C40.98 37.06 23.28 50.87 23.28 50.87" stroke="#231815" stroke-width="3.53" stroke-miterlimit="10"/>
<path d="M0.559998 56.26H21.27V60.51H24.88V0.559998H21.27V4.81H0.559998V56.26Z" fill="white"/>
<path d="M0.559998 56.26H21.27V60.51H24.88V0.559998H21.27V4.81H0.559998V56.26Z" stroke="black" stroke-width="1.11" stroke-linecap="round" stroke-linejoin="round"/>
<path d="M21.27 56.26V4.81" stroke="black" stroke-width="0.37" stroke-linecap="round" stroke-linejoin="round"/>
<path d="M4.00002 52.14H7.46002V48.83H4.00002V52.14Z" stroke="black" stroke-width="0.34" stroke-linecap="round" stroke-linejoin="round"/>
<path d="M4.00002 12.25H7.46002V8.94H4.00002V12.25Z" stroke="black" stroke-width="0.34" stroke-linecap="round" stroke-linejoin="round"/>
<path d="M313.31 4.81H292.59V0.559998H288.99V60.51H292.59V56.26H313.31V4.81Z" fill="white"/>
<path d="M309.86 16.07V19.24H306.41V22.55H309.86V26.01V29.32H306.41V32.63H309.86V35.8V39.11H306.41V42.57H309.86V45.88V49.19H306.41V52.5H309.86V56.26" stroke="black" stroke-width="0.33" stroke-linecap="round" stroke-linejoin="round"/>
<path d="M313.31 4.81H292.59V0.559998H288.99V60.51H292.59V56.26H313.31V4.81Z" stroke="black" stroke-width="1.11" stroke-linecap="round" stroke-linejoin="round"/>
<path d="M292.59 4.81V56.26" stroke="black" stroke-width="0.37" stroke-linecap="round" stroke-linejoin="round"/>
<path d="M296.16 17.01H304.72V24.07H296.16V25.72V27.52H304.72V34.28H296.16V35.93V37.73H304.72V44.78H296.16V46.44V48.09H304.72V54.99H296.16V56.26" stroke="black" stroke-width="0.33" stroke-linecap="round" stroke-linejoin="round"/>
<path d="M296.16 17V13.55V17Z" stroke="black" stroke-width="0.33" stroke-linecap="round" stroke-linejoin="round"/>
<path d="M296.18 13.54H304.7V6.48004H296.18" stroke="black" stroke-width="0.34" stroke-linecap="round" stroke-linejoin="round"/>
<path d="M296.16 4.83002V6.48002" stroke="black" stroke-width="0.33" stroke-linecap="round" stroke-linejoin="round"/>
<path d="M309.86 4.81V9.3H306.41V12.61H309.86V16.07" stroke="black" stroke-width="0.33" stroke-linecap="round" stroke-linejoin="round"/>
<path d="M251.96 17.76H59.6C58.8489 17.76 58.24 18.3689 58.24 19.12V38.51C58.24 39.2611 58.8489 39.87 59.6 39.87H251.96C252.711 39.87 253.32 39.2611 253.32 38.51V19.12C253.32 18.3689 252.711 17.76 251.96 17.76Z" fill="#231815"/>
</g>
<defs>
<clipPath id="clip0_810_2">
<rect width="313.87" height="61.07" fill="white"/>
</clipPath>
</defs>
</svg>
