<svg xmlns="http://www.w3.org/2000/svg" width="146" height="317" fill="none" viewBox="0 0 146 317"><g clip-path="url(#a)"><path fill="#fff" d="M145.32 0H0v316.77h145.32z"/><path fill="#fff" d="M16.53 14.53H128.9s1.09-.06 1.13 1.65l.08.47.65.29v220.28l-.61.66-.19 1.22-.54.77.6.81.08 1.19.7.26v57.53l-.23.37-.55.12v1.31s-.17.79-2.21.79H16.08s-.91-.29-.88-1.14v-1.04l-.65-.28v-57.43l.13-.34.6-.19v-1.26l.61-.82-.6-.91-.09-1.1-.78-.5V17.07l.42-.4.48-.16v-1.14s.18-.91 1.21-.84"/><path fill="#898989" d="M73.61 215.47c-.02.08-.08.16-.15.2-.72.41-1.44.83-2.16 1.24-.13.07-.28.11-.43.11-.32 0-.61-.17-.76-.45-1.41-2.51-2.81-5.02-4.22-7.53a.9.9 0 0 1-.08-.66c.06-.22.21-.41.41-.53 1.45-.82 2.9-1.64 4.35-2.45.2-.11.44-.14.66-.08s.41.21.52.41c.64 1.15 1.29 2.3 1.93 3.45.04.08.05.16.03.25a.37.37 0 0 1-.15.2.33.33 0 0 1-.45-.13c-.64-1.15-1.29-2.3-1.93-3.45-.03-.05-.07-.09-.13-.1-.06-.02-.12 0-.17.02-1.45.82-2.9 1.64-4.35 2.45-.05.03-.09.08-.1.13-.02.06 0 .11.02.17 1.41 2.51 2.81 5.02 4.22 7.53.06.1.19.14.3.08.72-.41 1.44-.83 2.16-1.24.16-.09.36-.04.45.12.04.08.05.16.03.25z"/><path fill="#898989" d="M76.37 212.37c-.1.15-.31.19-.46.08l-3.5-2.42a.694.694 0 0 0-.97.18.73.73 0 0 0-.11.52c.03.18.14.34.29.45l1.95 1.35c.09.06.14.16.14.26 0 .3.1.7.2.98.1.32.25.62.42.91.35.58.81 1.06 1.35 1.45.07.05.12.13.13.21.01.09 0 .17-.06.24-.06.09-.16.14-.27.14a.33.33 0 0 1-.19-.06c-.61-.43-1.12-.96-1.51-1.6-.37-.61-.65-1.36-.72-2.08l-1.83-1.26c-.29-.2-.5-.52-.56-.87s.01-.72.21-1.01c.42-.61 1.26-.77 1.87-.35l3.5 2.42c.07.05.12.12.14.21s0 .17-.05.24z"/><path fill="#898989" d="M79.44 213.96c-.06.8-.23 1.58-.52 2.32-.05.13-.17.21-.3.21-.04 0-.08 0-.12-.02a.3.3 0 0 1-.18-.17.28.28 0 0 1 0-.25c.49-1.27.65-2.86.34-4.2l-3.83-3.65c-.39.07-.78.14-1.17.22a.32.32 0 0 1-.38-.26.32.32 0 0 1 .05-.25c.05-.07.12-.12.21-.14.45-.08.89-.17 1.34-.25.1-.02.21.01.28.08 1.34 1.28 2.68 2.55 4.02 3.83q.06.06.09.15c.2.69.23 1.67.18 2.37zM56.08 188.46c-.15.29-.38.5-.66.65-.51.27-1.18.32-1.74.32h-.24c-.37 0-.75-.05-1.1-.14a3.5 3.5 0 0 1-.54-.19c-.08-.04-.17-.09-.24-.14s-.17-.15-.17-.25v-.79s.06.03.09.04c.58.24 1.28.45 1.91.45h.26c.25 0 .59 0 .84-.06.15-.03.3-.09.4-.22.1-.12.12-.29.12-.44 0-.11 0-.26-.07-.36-.07-.11-.19-.16-.31-.21-.15-.07-.64-.12-.8-.15l-.57-.08c-.42-.06-.9-.16-1.27-.38-.44-.27-.62-.67-.62-1.17 0-.61.19-1.14.75-1.46.47-.27 1.08-.34 1.61-.34h.26c.34 0 .71.04 1.04.12.17.04.86.22.96.42v.82s-.06-.02-.08-.02c-.63-.17-1.22-.28-1.88-.28h-.26c-.22 0-.53 0-.75.05-.13.03-.28.08-.36.2-.07.11-.08.28-.08.41 0 .16.06.27.2.34.11.06.26.09.38.11.43.05.85.11 1.28.16.43.07.92.18 1.27.45.4.31.55.75.55 1.24 0 .31-.05.63-.19.9zM62.14 187.31c0 .48-.07 1.03-.35 1.44-.31.47-.79.66-1.33.66h-1.54c-.55 0-1.02-.2-1.34-.66-.28-.4-.4-.96-.4-1.44v-3.52h1.17v3.51c0 .26.04.58.24.78.17.17.39.19.61.19h.94c.21 0 .48-.04.64-.2.19-.19.19-.53.19-.77v-3.5h1.18v3.52zM65 187.5v-.82h1.97c.24 0 .39-.15.48-.35.08-.18.11-.39.11-.58 0-.31-.02-.71-.31-.92-.25-.19-.66-.22-.95-.22h-.28c-.24 0-.49 0-.72.08a.86.86 0 0 0-.55.47c-.18.38-.19.97-.19 1.37v2.83h-1.25v-2.84c0-.75.08-1.7.65-2.29.58-.59 1.52-.68 2.28-.68h.17c.61 0 1.25.14 1.73.55.5.43.69 1.04.69 1.68 0 .55-.16 1.09-.62 1.44-.43.32-1 .41-1.52.41-.46 0-1.18-.04-1.63-.12H65zM69.76 189.35v-3.67c0-.51.09-1.08.41-1.51.35-.46.88-.64 1.43-.64.36 0 1.06.06 1.41.11h.06v1.01h-1.12c-.24 0-.66-.02-.82.24-.13.21-.13.62-.13.85v3.59h-1.22zM77.67 185.08a.51.51 0 0 0-.31-.36c-.24-.11-.65-.12-.9-.12h-.28c-.24 0-.49 0-.72.08-.25.08-.44.22-.56.47-.18.37-.2.97-.2 1.37 0 .42.03 1.04.3 1.4.31.44.91.43 1.37.43h.24c.75 0 1.33-.12 2.05-.31.03 0 .06-.02.08-.02v.68c0 .06-.03.12-.06.17a.5.5 0 0 1-.13.12c-.08.06-.18.11-.28.15-.19.08-.41.14-.62.18-.4.08-.83.12-1.24.12h-.15c-.75 0-1.63-.11-2.18-.71-.53-.58-.63-1.47-.63-2.2s.09-1.7.66-2.29c.58-.59 1.53-.68 2.28-.68h.17c.57 0 1.22.09 1.7.44.54.38.72.97.72 1.6 0 .25-.05.5-.19.72-.13.22-.33.38-.56.49-.41.21-.94.27-1.39.27s-1.18-.04-1.63-.12h-.06v-.82h1.97c.15 0 .32-.02.44-.12.12-.11.15-.28.15-.43s0-.33-.05-.47zM87.38 189.35h-1.12v-3.62c0-.27-.04-.59-.23-.81-.2-.23-.51-.28-.79-.28s-.57.06-.76.3c-.17.22-.2.53-.2.79v3.62h-1.15v-3.62c0-.27-.02-.61-.22-.83s-.55-.25-.82-.25-.58.05-.76.29c-.17.22-.19.53-.19.79v3.62h-1.11v-3.62c0-.5.11-1.06.42-1.47.34-.46.85-.62 1.4-.62h.63c.4 0 .93.2 1.22.48.3-.35.8-.48 1.24-.48h.68c.52 0 1.04.23 1.36.65.31.41.4.95.4 1.44zM93.78 187.69c-.11.4-.3.77-.59 1.07-.59.61-1.42.74-2.21.68-.67.05-1.53-.15-2.04-.62-.4-.38-.56-.87-.56-1.41 0-.27.07-.53.22-.75s.37-.38.61-.49c.44-.2.99-.25 1.47-.25.25 0 1.28.16 1.51.24.01 0 .03.01.04.02v.68h-2.07c-.16 0-.3.04-.4.18-.09.12-.11.28-.11.42 0 .21 0 .43.13.61.13.19.36.25.57.26h.13c.44.03 1.46.13 1.83-.28.31-.34.33-1.13.33-1.55 0-.5-.04-1.22-.45-1.61-.63-.58-2.88-.1-3.51.03-.03 0-.05.01-.08.02v-.68c0-.05.04-.11.07-.15q.045-.06.12-.12a1 1 0 0 1 .28-.16c.19-.09.4-.14.6-.18.39-.08.83-.1 1.23-.1.75 0 1.7.07 2.29.64.59.58.7 1.52.7 2.28.04.38-.02.85-.12 1.21z"/><path fill="url(#b)" d="M109.75 47.88H35.57v123.17h74.18z"/><path stroke="#231815" stroke-linecap="round" stroke-linejoin="round" stroke-width=".75" d="m129.86 300.06.64-.03M127.49 302.22h1.41M16.42 302.22h1.41M126.79 302.21H18.53M56.86 297.2h31.6M52.87 292.77h-4.26M88.46 290.94h-31.6M48.61 290.66h4.26M129.85 237.68l.53-.05M21.31 240.05h7.43M30.21 240.05h84.9M116.58 240.05H124M128.9 239.85h-.88M17.3 239.85h-.88M130.03 238.72h-.89M16.18 238.72h-.9M129.56 241.99l.94.05M15.46 237.68l-.52-.05M120.71 234.75h-96.1M14.94 16.73v-.01"/><circle cx="14.55" cy="17.15" r=".375" fill="#231815"/><path stroke="#231815" stroke-linecap="round" stroke-linejoin="round" stroke-width=".75" d="M15.28 15.66v.85M15.28 237.84v.88M15.99 243.57v52.61M20.36 230.5V23.85"/><circle cx="14.55" cy="237.21" r=".375" fill="#231815"/><path stroke="#231815" stroke-linecap="round" stroke-linejoin="round" stroke-width=".75" d="M15.28 241.81v-.01M35.57 171.04V47.88M129.55 237.45l-.03-.02M129.55 237.45l-.03-.02M56.15 291.35v5.45M109.75 171.04H35.57M89.17 296.8v-5.45M109.75 47.88v123.16M130.03 241.8v.01"/><circle cx="130.77" cy="237.21" r=".375" fill="#231815"/><path stroke="#231815" stroke-linecap="round" stroke-linejoin="round" stroke-width=".75" d="M130.77 242.33v-.01"/><circle cx="130.77" cy="242.33" r=".375" fill="#231815"/><path stroke="#231815" stroke-linecap="round" stroke-linejoin="round" stroke-width=".75" d="M124.95 23.85V230.5M129.33 243.57v52.61M130.03 238.72v-.88M130.03 16.51v-.85"/><circle cx="130.77" cy="299.74" r=".375" fill="#231815"/><circle cx="130.77" cy="17.15" r=".375" fill="#231815"/><path stroke="#231815" stroke-linecap="round" stroke-linejoin="round" stroke-width=".75" d="M130.38 16.72v.01M15.76 16.91l.04.02M15.77 16.91l.03.02M35.57 47.88h74.18M15.46 16.68l-.52.04M24.61 19.61h96.1M128.9 14.53H16.41M129.85 16.68l.53.04M15.48 300.04s-.08.07-.11.11M15.36 300.15l-.05.05M20.36 230.5c0 2.35 1.9 4.25 4.25 4.25M15.8 237.43l-.2.14M15.28 238.72c0 .63.51 1.13 1.14 1.13M14.55 237.21c0 .22.17.4.39.42M15.86 298.04c-.11.57-.21 1.15-.3 1.72M15.95 16.17c.07.05.15.09.23.13M24.61 19.61c-2.35 0-4.25 1.9-4.25 4.25M15.6 16.79c.05.04.11.08.17.12M69.47 31.37c0-1.76 1.43-3.19 3.19-3.19s3.19 1.43 3.19 3.19-1.43 3.19-3.19 3.19-3.19-1.43-3.19-3.19M16.41 14.53c-.62 0-1.13.51-1.13 1.13M14.94 16.72c-.22.02-.39.2-.39.42M129.76 299.76c-.09-.57-.19-1.15-.3-1.72M129.9 300.1s-.04-.04-.06-.05M129.95 300.15s-.04-.04-.06-.05M130.01 300.21s-.03-.04-.05-.05M130.5 300.03c.15 0 .27-.13.27-.28M129.53 242l.18-.06M129.71 241.94c.05-.02.11-.04.16-.06M120.71 234.75c2.35 0 4.25-1.9 4.25-4.25M129.72 237.57c-.05-.04-.11-.08-.17-.12M129.86 241.88s.09-.04.14-.06M128.9 239.85c.63 0 1.14-.51 1.14-1.13M130.38 237.63c.22-.02.39-.2.39-.42M130.73 242.18a.3.3 0 0 0-.23-.14M129.14 16.31c.07-.04.15-.08.22-.13M124.95 23.85c0-2.35-1.9-4.25-4.25-4.25M129.52 16.93l.2-.14M130.03 15.66c0-.62-.51-1.13-1.13-1.13M130.77 17.15c0-.22-.17-.4-.39-.42M130.73 242.18s.04.09.04.14M56.86 290.94h-.32s-.02 0-.03.01h-.04l-.02.02-.02.02h-.01l-.02.02s0 .01-.01.02v.07M89.17 291.35v-.06l-.02-.02h-.03l-.02-.02h-.02s-.02 0-.03-.01-.02 0-.03-.01h-.35M88.46 297.2h.32s.02 0 .03-.01h.04l.02-.02.02-.02h.01l.02-.02s0-.01.01-.02v-.07M52.87 292.77h.69c.01 0 .03 0 .04-.01s.03 0 .04-.01.03 0 .04-.01.03 0 .04-.01h.12c.01 0 .02-.01.04-.02l.04-.02.04-.02.04-.02h.09s.02-.01.03-.02.02-.01.03-.02.02-.01.03-.02.02-.01.03-.02h.03l.01-.01.01-.01.01-.01s.01-.02.02-.02.01-.02.02-.02.01-.02.02-.02.01-.02.02-.02l.01-.01.01-.01.01-.01v-.03s0-.02.01-.02 0-.02.01-.02 0-.02.01-.02 0-.02.01-.02v-.42s0-.02-.01-.02 0-.02-.01-.02 0-.02-.01-.02 0-.02-.01-.02v-.03l-.01-.01-.01-.01-.01-.01s-.01-.02-.02-.02-.01-.02-.02-.02-.01-.02-.02-.02-.01-.02-.02-.02l-.01-.01-.01-.01-.01-.01-.01-.01-.01-.01-.01-.01s-.02-.01-.03-.02-.02-.01-.03-.02-.02-.01-.03-.02-.02-.01-.03-.02l-.01-.01-.01-.01-.01-.01H54c-.01 0-.02-.01-.03-.02s-.02-.01-.03-.02-.02-.01-.03-.02-.02-.01-.03-.02h-.12c-.01 0-.03 0-.04-.01s-.03 0-.04-.01-.03 0-.04-.01-.03 0-.04-.01h-.71M48.61 290.66h-.69c-.01 0-.03 0-.04.01s-.03 0-.04.01-.03 0-.04.01-.03 0-.04.01h-.12c-.01 0-.02.01-.04.02l-.04.02-.04.02-.04.02h-.09s-.02.01-.03.02-.02.01-.03.02-.02.01-.03.02-.02.01-.03.02h-.03l-.01.01-.01.01-.01.01s-.01.02-.02.02-.01.02-.02.02-.01.02-.02.02-.01.02-.02.02l-.01.01-.01.01-.01.01v.03s0 .02-.01.02 0 .02-.01.02 0 .02-.01.02 0 .02-.01.02v.42s0 .02.01.02 0 .02.01.02 0 .02.01.02 0 .02.01.02v.03l.01.01.01.01.01.01s.01.02.02.02.01.02.02.02.01.02.02.02.01.02.02.02l.01.01.01.01.01.01.01.01.01.01.01.01s.02.01.03.02.02.01.03.02.02.01.03.02.02.01.03.02l.01.01.01.01.01.01h.06c.01 0 .02.01.03.02s.02.01.03.02.02.01.03.02.02.01.03.02h.12c.01 0 .03 0 .04.01s.03 0 .04.01.03 0 .04.01.03 0 .04.01h.71M56.15 296.8v.06l.02.02h.03l.02.02h.02s.02 0 .03.01.02 0 .03.01h.35M129.33 243.57c0-.2 0-.39.02-.59 0-.17.02-.33.05-.5 0-.07.02-.13.03-.19 0-.05.02-.1.04-.15 0-.03.02-.06.04-.1 0-.02.02-.03.04-.04M129.46 298.04s-.01-.07-.02-.11c-.02-.13-.04-.26-.05-.4M129.39 297.53l-.03-.31c-.03-.35-.04-.7-.04-1.05M129.84 300.04s-.03-.06-.04-.09c-.02-.07-.03-.13-.04-.19M15.79 242s.03.02.04.04a.3.3 0 0 1 .04.1c.01.05.03.1.04.15l.03.19c.02.17.04.33.05.5.01.2.02.39.02.59M15.79 242s-.09-.03-.13-.05c-.11-.04-.23-.08-.34-.13M15.56 299.76c-.01.06-.02.13-.04.19 0 .03-.02.07-.04.09M15.99 296.18v.38c0 .35-.03.69-.06 1.04M15.92 297.6s0 .08-.01.12c-.01.11-.03.21-.05.32M18.53 302.21h-.7M127.49 302.22h-.7M15.6 237.57c-.06.04-.12.09-.17.14M15.43 237.71s-.1.09-.15.14M15.28 16.51l.07.07.24.21M129.72 16.79c.06-.04.12-.09.17-.14M129.89 16.65s.1-.09.15-.14M130.03 237.84l-.07-.07-.24-.21M129.36 16.18c.07-.04.13-.08.2-.13.17-.12.33-.24.48-.39M15.28 15.66s.09.09.14.13c.16.15.35.27.53.39M15.31 300.21s-.03.04-.03.06M130.01 241.82s.03-.01.03-.02"/><path stroke="#231815" stroke-linecap="round" stroke-linejoin="round" stroke-width=".75" d="M130.03 300.26s0-.04-.03-.06M15.28 241.8s.01.01.03.02M15.48 300.06l-.66-.03M22.62 288.18H122.7M15.75 241.99l-.93.05M127.82 241.19l.97-.05M126.76 240.05H18.56M128.02 239.85H17.3M129.14 238.72h-1.3M17.48 238.72h-1.3M16.53 241.14l.96.05M15.28 301.08v.05"/><circle cx="14.55" cy="299.74" r=".375" fill="#231815"/><path stroke="#231815" stroke-linecap="round" stroke-linejoin="round" stroke-width=".75" d="M14.55 17.15v220.06M14.55 242.33v57.41M15.28 301.08v-.82M15.28 241.81v-.82M18.1 18.34v218.68M14.55 242.32v.01M15.29 240.91l-.01.08M128.79 296.83l-5.03-9.58M21.56 287.25l-5.03 9.58M130.03 240.99v-.08M130.03 240.99v-.08M127.21 237.02V18.34M130.03 301.08v-.82M130.03 241.81v-.82M130.77 237.21V17.15M130.03 301.13v-.05M127.79 16.64l1-.23M16.53 16.41l1 .23M15.28 301.13c.01.28.13.55.33.75M15.62 301.88c.21.21.5.33.8.33M14.55 299.74c0 .15.12.28.27.28M16.01 241.1c.06 0 .12.01.17.02M16.42 239.85c-.3 0-.59.12-.8.33M15.78 299.56c-.06.33-.12.66-.17.99M15.97 298.59c-.07.32-.13.65-.19.97M16.08 298.09c-.04.17-.07.33-.1.5M16.18 297.62c-.03.15-.07.31-.1.46M129.71 300.55c-.05-.33-.11-.66-.17-.99M129.53 299.56c-.06-.33-.12-.65-.19-.97M129.34 298.59c-.03-.17-.07-.33-.1-.5M129.24 298.09c-.03-.15-.07-.31-.1-.46M129.7 301.88c.2-.2.32-.47.33-.75M128.9 302.22c.3 0 .59-.12.8-.33M129.14 241.12s.1-.01.15-.02M129.7 240.19c-.21-.21-.5-.33-.8-.33M14.82 242.04c-.07 0-.14.03-.19.09s-.08.12-.08.19M15.29 240.91c.02-.26.14-.53.33-.72M130.03 240.91c-.02-.26-.14-.53-.33-.72M15.31 241s.05 0 .07.01c.08.01.16.03.24.04M15.62 241.05s.06 0 .09.01c.1.01.2.03.3.04M129.28 241.11c.07 0 .14-.02.21-.03.17-.02.34-.05.51-.08M129.14 297.62a2.766 2.766 0 0 0-.35-.8M128.79 241.14h.11c.08 0 .16 0 .24-.02M16.53 296.83c-.04.06-.08.13-.11.2q-.15.285-.24.6M16.18 241.12h.06c.1 0 .19.01.29.01M18.56 240.05c-.14 0-.28.03-.41.09M18.15 240.14c-.19.09-.36.24-.48.42s-.18.41-.18.63M22.62 288.18a1.43 1.43 0 0 1-.69-.33c-.18-.16-.32-.37-.38-.6M122.7 288.18c.25-.04.49-.16.69-.33.18-.16.32-.37.38-.6M126.76 240.05c.14 0 .28.03.41.09M127.16 240.14c.19.09.36.24.48.42s.18.41.18.63M130.01 241h.03M15.29 240.99h.01M123.76 287.25c-.19-.37-.32-.77-.42-1.17-.13-.51-.2-1.02-.25-1.54-.05-.56-.05-1.13-.02-1.69.03-.53.09-1.06.2-1.59M123.27 281.26c1.29-6.08 2.22-12.25 2.85-18.44.68-6.63 1.03-13.3 1.08-19.96"/><path stroke="#231815" stroke-linecap="round" stroke-linejoin="round" stroke-width=".75" d="M127.21 242.85c0-.22.02-.44.05-.65.03-.18.07-.36.14-.54.03-.07.06-.14.09-.2.03-.05.06-.1.1-.15a.36.36 0 0 1 .23-.13M17.49 241.19c.09 0 .17.06.23.13.04.05.07.1.1.15.04.06.07.13.09.2.07.17.11.35.14.54.03.22.05.43.05.65M18.11 242.85c.05 6.66.4 13.33 1.08 19.96.64 6.19 1.56 12.36 2.85 18.44M22.04 281.26c.11.52.18 1.05.2 1.59.03.56.02 1.13-.02 1.69-.04.52-.12 1.03-.25 1.54-.1.4-.23.8-.42 1.17M16.18 16.31l.06.03c.09.03.19.05.29.07M128.79 16.41s.08-.02.11-.02c.08-.02.16-.04.24-.08M126.78 239.85a1.072 1.072 0 0 0 .76-.34c.1-.11.18-.23.23-.37s.08-.29.08-.43M18.54 239.85a1.072 1.072 0 0 1-.76-.34c-.1-.11-.18-.23-.23-.37s-.08-.29-.08-.43M17.53 16.64c.09.02.16.09.22.16.09.11.14.24.18.37.06.17.1.35.13.53.03.21.04.42.04.63"/><path stroke="#231815" stroke-linecap="round" stroke-linejoin="round" stroke-width=".75" d="M18.1 237.02c0 .22-.02.45-.05.67-.03.19-.07.37-.14.55-.03.07-.06.14-.1.21-.03.05-.06.1-.11.15-.06.07-.15.12-.23.12M127.84 238.72c-.09 0-.17-.06-.23-.12-.04-.05-.08-.1-.11-.15-.04-.07-.07-.14-.1-.21-.07-.18-.11-.36-.14-.55-.03-.22-.05-.45-.05-.67M127.21 18.34c0-.21.01-.42.04-.63.03-.18.07-.36.13-.53.04-.13.1-.25.18-.37.06-.07.13-.14.22-.16M15.99 235.87V18.48M129.33 235.87V18.48M130.77 299.74v-57.41M15.99 235.87c0 .19 0 .38-.02.57 0 .16-.02.33-.04.49 0 .06-.02.13-.03.19 0 .05-.02.1-.03.15 0 .03-.02.07-.04.1 0 .02-.02.04-.04.05M15.8 16.93s.03.03.04.05c.02.03.03.07.04.1l.03.15.03.19c.02.16.03.33.04.49.01.19.02.38.02.57M129.33 18.48c0-.19 0-.38.02-.57 0-.16.02-.33.04-.49 0-.06.02-.13.03-.19 0-.05.02-.1.03-.15 0-.03.02-.07.04-.1 0-.02.02-.04.04-.05M129.52 237.43s-.03-.03-.04-.05c-.02-.03-.03-.07-.04-.1l-.03-.15-.03-.19c-.02-.16-.03-.33-.04-.49-.01-.19-.02-.38-.02-.57"/></g><defs><linearGradient id="b" x1="23.32" x2="122" y1="158.8" y2="60.12" gradientUnits="userSpaceOnUse"><stop stop-color="#bfbfbf"/><stop offset=".14" stop-color="#c2c2c2"/><stop offset=".27" stop-color="#cecece"/><stop offset=".4" stop-color="#e0e0e0"/><stop offset=".53" stop-color="#fbfbfb"/><stop offset=".54" stop-color="#e0e0e0"/><stop offset=".55" stop-color="#cdcdcd"/><stop offset=".56" stop-color="#ccc"/><stop offset="1" stop-color="#fff"/></linearGradient><clipPath id="a"><path fill="#fff" d="M0 0h145.32v316.77H0z"/></clipPath></defs></svg>