<svg width="93" height="191" viewBox="0 0 93 191" fill="none" xmlns="http://www.w3.org/2000/svg">
<g clip-path="url(#clip0_632_748)">
<path d="M14.8991 174.314H15.7021C16.08 174.314 16.3516 174.369 16.517 174.483C16.6823 174.593 16.7689 174.77 16.7689 175.01C16.7689 175.176 16.7216 175.313 16.6311 175.424C16.5406 175.534 16.4067 175.601 16.2335 175.636V175.656C16.45 175.691 16.6075 175.77 16.7098 175.88C16.8122 175.99 16.8634 176.144 16.8634 176.329C16.8634 176.581 16.7768 176.778 16.6075 176.916C16.4382 177.053 16.1981 177.128 15.8871 177.128H14.8991V174.318V174.314ZM15.2534 175.506H15.773C15.9934 175.506 16.1548 175.471 16.2532 175.4C16.3516 175.329 16.4028 175.211 16.4028 175.046C16.4028 174.892 16.3477 174.782 16.2375 174.715C16.1273 174.648 15.9541 174.613 15.7179 174.613H15.2534V175.506ZM15.2534 175.805V176.825H15.8202C16.0446 176.825 16.2139 176.782 16.3201 176.695C16.4264 176.608 16.4855 176.475 16.4855 176.297C16.4855 176.12 16.4264 176.006 16.3123 175.924C16.1981 175.845 16.0249 175.805 15.7927 175.805H15.2534Z" fill="#231815"/>
<path d="M19.052 176.372C19.052 176.617 18.9654 176.809 18.7882 176.951C18.6111 177.093 18.367 177.164 18.0482 177.164C17.7136 177.164 17.4577 177.12 17.2767 177.03V176.691C17.3948 176.743 17.5247 176.782 17.6664 176.813C17.8081 176.845 17.9419 176.857 18.0639 176.857C18.2726 176.857 18.434 176.817 18.5402 176.735C18.6465 176.652 18.7016 176.542 18.7016 176.404C18.7016 176.31 18.682 176.235 18.6426 176.172C18.6032 176.109 18.5402 176.054 18.4497 176.002C18.3592 175.951 18.2214 175.888 18.0403 175.825C17.7805 175.731 17.5955 175.617 17.4814 175.491C17.3711 175.361 17.316 175.196 17.316 174.991C17.316 174.77 17.3987 174.597 17.564 174.467C17.7294 174.337 17.9459 174.274 18.2135 174.274C18.4812 174.274 18.7528 174.326 18.989 174.432L18.8788 174.735C18.6387 174.637 18.4143 174.585 18.2057 174.585C18.0403 174.585 17.9104 174.621 17.816 174.692C17.7215 174.763 17.6742 174.865 17.6742 174.995C17.6742 175.085 17.6939 175.164 17.7294 175.223C17.7648 175.282 17.8238 175.337 17.9065 175.388C17.9892 175.44 18.1151 175.495 18.2883 175.558C18.4969 175.636 18.6544 175.707 18.7567 175.782C18.8591 175.853 18.9339 175.936 18.9851 176.03C19.0323 176.124 19.0598 176.235 19.0598 176.369L19.052 176.372Z" fill="#231815"/>
<path d="M21.1776 174.971C21.1776 175.152 21.1264 175.298 21.028 175.412C20.9296 175.526 20.784 175.605 20.595 175.644V175.66C20.8194 175.688 20.9887 175.758 21.0989 175.877C21.2091 175.995 21.2642 176.14 21.2642 176.325C21.2642 176.593 21.1697 176.802 20.9847 176.943C20.7997 177.089 20.532 177.16 20.1856 177.16C20.0361 177.16 19.8983 177.148 19.7763 177.128C19.6542 177.109 19.5322 177.065 19.4141 177.01V176.687C19.5322 176.746 19.6621 176.794 19.796 176.825C19.9298 176.857 20.0636 176.872 20.1896 176.872C20.6619 176.872 20.9021 176.687 20.9021 176.317C20.9021 175.987 20.6383 175.821 20.1148 175.821H19.8432V175.526H20.1187C20.3392 175.526 20.5124 175.479 20.6344 175.384C20.7604 175.29 20.8194 175.16 20.8194 174.995C20.8194 174.861 20.7761 174.755 20.6856 174.68C20.595 174.605 20.4691 174.566 20.3116 174.566C20.1856 174.566 20.0715 174.581 19.9652 174.617C19.8589 174.652 19.7369 174.711 19.5991 174.802L19.4259 174.566C19.5401 174.475 19.6739 174.404 19.8235 174.353C19.9731 174.302 20.1345 174.274 20.3037 174.274C20.5793 174.274 20.7918 174.337 20.9454 174.463C21.0989 174.589 21.1737 174.759 21.1737 174.975L21.1776 174.971Z" fill="#231815"/>
<path d="M21.6461 176.219V175.912H22.5987V176.219H21.6461Z" fill="#231815"/>
<path d="M25.3856 175.691C25.3856 176.156 25.2596 176.51 25.0077 176.754C24.7558 176.998 24.3936 177.124 23.9173 177.124H23.134V174.314H24C24.4369 174.314 24.7754 174.432 25.0195 174.676C25.2635 174.916 25.3856 175.255 25.3856 175.691ZM25.0156 175.703C25.0156 175.345 24.929 175.073 24.7518 174.892C24.5747 174.707 24.3109 174.617 23.9527 174.617H23.4922V176.821H23.874C24.6337 176.821 25.0156 176.447 25.0156 175.703Z" fill="#231815"/>
<path d="M26.0115 174.314H26.8145C27.1924 174.314 27.464 174.369 27.6293 174.483C27.7946 174.593 27.8812 174.77 27.8812 175.011C27.8812 175.176 27.834 175.314 27.7435 175.424C27.6529 175.534 27.5191 175.601 27.3459 175.636V175.656C27.5624 175.691 27.7199 175.77 27.8222 175.88C27.9245 175.991 27.9757 176.144 27.9757 176.329C27.9757 176.581 27.8891 176.778 27.7199 176.916C27.5506 177.053 27.3105 177.128 26.9995 177.128H26.0115V174.318V174.314ZM26.3618 175.506H26.8814C27.1018 175.506 27.2632 175.471 27.3616 175.4C27.4601 175.329 27.5112 175.211 27.5112 175.046C27.5112 174.892 27.4561 174.782 27.3459 174.715C27.2357 174.648 27.0625 174.613 26.8263 174.613H26.3618V175.506ZM26.3618 175.806V176.825H26.9286C27.153 176.825 27.3223 176.782 27.4286 176.695C27.5348 176.609 27.5939 176.475 27.5939 176.298C27.5939 176.121 27.5348 176.006 27.4207 175.924C27.3065 175.845 27.1333 175.806 26.9011 175.806H26.3618Z" fill="#231815"/>
<path d="M14.8991 179.037H15.7021C16.08 179.037 16.3516 179.093 16.517 179.207C16.6823 179.317 16.7689 179.494 16.7689 179.734C16.7689 179.899 16.7216 180.037 16.6311 180.147C16.5406 180.258 16.4067 180.325 16.2335 180.36V180.38C16.45 180.415 16.6075 180.494 16.7098 180.604C16.8122 180.714 16.8634 180.868 16.8634 181.053C16.8634 181.305 16.7768 181.502 16.6075 181.639C16.4382 181.777 16.1981 181.852 15.8871 181.852H14.8991V179.041V179.037ZM15.2534 180.23H15.773C15.9934 180.23 16.1548 180.195 16.2532 180.124C16.3516 180.053 16.4028 179.935 16.4028 179.77C16.4028 179.616 16.3477 179.506 16.2375 179.439C16.1273 179.372 15.9541 179.337 15.7179 179.337H15.2534V180.23ZM15.2534 180.529V181.549H15.8202C16.0446 181.549 16.2139 181.506 16.3201 181.419C16.4264 181.332 16.4855 181.198 16.4855 181.021C16.4855 180.844 16.4264 180.73 16.3123 180.647C16.1981 180.569 16.0249 180.529 15.7927 180.529H15.2534Z" fill="#231815"/>
<path d="M19.052 181.096C19.052 181.34 18.9654 181.533 18.7882 181.675C18.6111 181.816 18.367 181.887 18.0482 181.887C17.7136 181.887 17.4577 181.844 17.2767 181.753V181.415C17.3948 181.466 17.5247 181.506 17.6664 181.537C17.8081 181.568 17.9419 181.58 18.0639 181.58C18.2726 181.58 18.434 181.541 18.5402 181.458C18.6465 181.376 18.7016 181.265 18.7016 181.128C18.7016 181.033 18.682 180.958 18.6426 180.895C18.6032 180.832 18.5402 180.777 18.4497 180.726C18.3592 180.675 18.2214 180.612 18.0403 180.549C17.7805 180.455 17.5955 180.34 17.4814 180.214C17.3711 180.084 17.316 179.919 17.316 179.714C17.316 179.494 17.3987 179.321 17.564 179.191C17.7294 179.061 17.9459 178.998 18.2135 178.998C18.4812 178.998 18.7528 179.049 18.989 179.155L18.8788 179.459C18.6387 179.36 18.4143 179.309 18.2057 179.309C18.0403 179.309 17.9104 179.344 17.816 179.415C17.7215 179.486 17.6742 179.588 17.6742 179.718C17.6742 179.809 17.6939 179.888 17.7294 179.947C17.7648 180.006 17.8238 180.061 17.9065 180.112C17.9892 180.163 18.1151 180.218 18.2883 180.281C18.4969 180.36 18.6544 180.431 18.7567 180.506C18.8591 180.577 18.9339 180.659 18.9851 180.754C19.0323 180.848 19.0598 180.958 19.0598 181.092L19.052 181.096Z" fill="#231815"/>
<path d="M21.1776 179.695C21.1776 179.876 21.1264 180.021 21.028 180.136C20.9296 180.25 20.784 180.329 20.595 180.368V180.384C20.8194 180.411 20.9887 180.482 21.0989 180.6C21.2091 180.718 21.2642 180.864 21.2642 181.049C21.2642 181.317 21.1697 181.525 20.9847 181.667C20.7997 181.813 20.532 181.883 20.1856 181.883C20.0361 181.883 19.8983 181.872 19.7763 181.852C19.6542 181.832 19.5322 181.789 19.4141 181.734V181.411C19.5322 181.47 19.6621 181.517 19.796 181.549C19.9298 181.58 20.0636 181.596 20.1896 181.596C20.6619 181.596 20.9021 181.411 20.9021 181.041C20.9021 180.71 20.6383 180.545 20.1148 180.545H19.8432V180.25H20.1187C20.3392 180.25 20.5124 180.203 20.6344 180.108C20.7604 180.014 20.8194 179.884 20.8194 179.718C20.8194 179.585 20.7761 179.478 20.6856 179.403C20.595 179.329 20.4691 179.289 20.3116 179.289C20.1856 179.289 20.0715 179.305 19.9652 179.341C19.8589 179.376 19.7369 179.435 19.5991 179.526L19.4259 179.289C19.5401 179.199 19.6739 179.128 19.8235 179.077C19.9731 179.026 20.1345 178.998 20.3037 178.998C20.5793 178.998 20.7918 179.061 20.9454 179.187C21.0989 179.313 21.1737 179.482 21.1737 179.699L21.1776 179.695Z" fill="#231815"/>
<path d="M21.6461 180.943V180.636H22.5987V180.943H21.6461Z" fill="#231815"/>
<path d="M24.8975 181.844L24.5589 180.974H23.4449L23.1103 181.844H22.7521L23.8504 179.022H24.1692L25.2635 181.844H24.8975ZM24.4566 180.663L24.1417 179.813L24.0078 179.392C23.9685 179.545 23.9291 179.687 23.8858 179.813L23.567 180.663H24.4566Z" fill="#231815"/>
<path d="M27.4522 179.864C27.4522 180.151 27.3538 180.372 27.1569 180.525C26.9601 180.679 26.6846 180.754 26.3303 180.754H26.0075V181.848H25.6533V179.037H26.3972C27.1018 179.037 27.4522 179.313 27.4522 179.864ZM26.0075 180.447H26.291C26.5704 180.447 26.7712 180.403 26.8972 180.313C27.0231 180.222 27.0861 180.077 27.0861 179.876C27.0861 179.695 27.0271 179.561 26.9129 179.47C26.7987 179.38 26.6137 179.337 26.3657 179.337H26.0075V180.447Z" fill="#231815"/>
<path d="M30.5146 181.844H30.1564L29.6093 180.002C29.5266 179.726 29.4794 179.541 29.4676 179.447C29.4479 179.592 29.4006 179.781 29.3337 180.014L28.8023 181.844H28.4441L27.7001 179.033H28.0701L28.5071 180.75C28.5661 180.974 28.6094 181.198 28.6409 181.419C28.6685 181.21 28.7196 180.978 28.7905 180.73L29.2865 179.033H29.6526L30.1682 180.742C30.2351 180.962 30.2863 181.191 30.3217 181.419C30.3414 181.242 30.3887 181.017 30.4595 180.746L30.8925 179.033H31.2625L30.5146 181.844Z" fill="#231815"/>
<path d="M31.6956 179.037H32.4986C32.8765 179.037 33.1481 179.093 33.3134 179.207C33.4787 179.317 33.5653 179.494 33.5653 179.734C33.5653 179.899 33.5181 180.037 33.4276 180.147C33.337 180.258 33.2032 180.325 33.03 180.36V180.38C33.2465 180.415 33.4039 180.494 33.5063 180.604C33.6086 180.714 33.6598 180.868 33.6598 181.053C33.6598 181.305 33.5732 181.502 33.4039 181.639C33.2347 181.777 32.9946 181.852 32.6836 181.852H31.6956V179.041V179.037ZM32.0498 180.23H32.5694C32.7899 180.23 32.9513 180.195 33.0497 180.124C33.1481 180.053 33.1992 179.935 33.1992 179.77C33.1992 179.616 33.1441 179.506 33.0339 179.439C32.9237 179.372 32.7505 179.337 32.5143 179.337H32.0498V180.23ZM32.0498 180.529V181.549H32.6167C32.841 181.549 33.0103 181.506 33.1166 181.419C33.2229 181.332 33.2819 181.198 33.2819 181.021C33.2819 180.844 33.2229 180.73 33.1087 180.647C32.9946 180.569 32.8214 180.529 32.5891 180.529H32.0498Z" fill="#231815"/>
<path d="M80.9945 190.902H11.258" stroke="#231815" stroke-width="0.5" stroke-linecap="round" stroke-linejoin="round" stroke-dasharray="5 6 5 6"/>
<path d="M0.0983887 179.746V11.258" stroke="#231815" stroke-width="0.5" stroke-linecap="round" stroke-linejoin="round" stroke-dasharray="5 6 5 6"/>
<path d="M92.1541 11.258V179.746" stroke="#231815" stroke-width="0.5" stroke-linecap="round" stroke-linejoin="round" stroke-dasharray="5 6 5 6"/>
<path d="M11.258 0.0984077H80.9945" stroke="#231815" stroke-width="0.5" stroke-linecap="round" stroke-linejoin="round" stroke-dasharray="5 6 5 6"/>
<path d="M0.0983887 179.746C0.0983887 185.91 5.09363 190.906 11.258 190.906" stroke="#231815" stroke-width="0.5" stroke-linecap="round" stroke-linejoin="round" stroke-dasharray="5 6 5 6"/>
<path d="M11.258 0.0984077C5.09363 0.0984077 0.0983887 5.09365 0.0983887 11.258" stroke="#231815" stroke-width="0.5" stroke-linecap="round" stroke-linejoin="round" stroke-dasharray="5 6 5 6"/>
<path d="M80.9945 190.902C87.1588 190.902 92.1541 185.906 92.1541 179.742" stroke="#231815" stroke-width="0.5" stroke-linecap="round" stroke-linejoin="round" stroke-dasharray="5 6 5 6"/>
<path d="M92.1541 11.258C92.1541 5.09365 87.1588 0.0984077 80.9945 0.0984077" stroke="#231815" stroke-width="0.5" stroke-linecap="round" stroke-linejoin="round" stroke-dasharray="5 6 5 6"/>
<path d="M87.399 182.068V186.454" stroke="#231815" stroke-width="0.83" stroke-linecap="round" stroke-linejoin="round"/>
<path d="M87.399 186.454H82.8446" stroke="#231815" stroke-width="0.83" stroke-linecap="round" stroke-linejoin="round"/>
<path d="M87.3675 182.068C87.1943 182.34 86.6747 183.056 85.541 183.545C84.4349 184.021 83.3878 184.005 82.9902 183.981" stroke="#231815" stroke-width="0.83" stroke-linecap="round" stroke-linejoin="round"/>
<path d="M82.9509 184.009C83.4705 184.714 83.5964 185.536 83.2815 186.052C83.2146 186.162 83.0847 186.324 82.8446 186.45" stroke="#231815" stroke-width="0.83" stroke-linecap="round" stroke-linejoin="round"/>
<path d="M87.3871 182.096C87.1509 182.73 86.6274 183.824 85.411 184.883C84.5018 185.678 83.5373 186.166 82.8603 186.449" stroke="#231815" stroke-width="0.83" stroke-linecap="round" stroke-linejoin="round"/>
<path d="M81.8251 178.376V176.593H82.4982C82.6163 176.593 82.7068 176.597 82.7698 176.609C82.8564 176.624 82.9312 176.652 82.9902 176.691C83.0493 176.731 83.0965 176.79 83.1319 176.865C83.1674 176.939 83.1871 177.018 83.1871 177.109C83.1871 177.258 83.1398 177.388 83.0414 177.494C82.943 177.601 82.7698 177.652 82.5179 177.652H82.0613V178.376H81.8251ZM82.0613 177.439H82.5218C82.6753 177.439 82.7816 177.412 82.8485 177.353C82.9115 177.294 82.943 177.215 82.943 177.113C82.943 177.038 82.9233 176.975 82.8879 176.92C82.8485 176.865 82.8013 176.833 82.7383 176.813C82.6989 176.802 82.6242 176.798 82.5179 176.798H82.0613V177.435V177.439Z" fill="#231815"/>
<path d="M83.4902 178.376V176.593H84.7813V176.802H83.7264V177.349H84.7144V177.557H83.7264V178.164H84.8207V178.372H83.4902V178.376Z" fill="#231815"/>
<path d="M85.1513 178.376V176.593H86.4424V176.802H85.3875V177.349H86.3755V177.557H85.3875V178.164H86.4818V178.372H85.1513V178.376Z" fill="#231815"/>
<path d="M86.8007 178.376V176.593H87.0368V178.167H87.9146V178.376H86.8007Z" fill="#231815"/>
<path d="M81.8329 181.368V179.585H82.0691V180.317H82.9942V179.585H83.2304V181.368H82.9942V180.525H82.0691V181.368H81.8329Z" fill="#231815"/>
<path d="M83.6279 181.368V179.585H84.9191V179.793H83.8641V180.34H84.8521V180.549H83.8641V181.155H84.9584V181.364H83.6279V181.368Z" fill="#231815"/>
<path d="M85.2891 181.368V179.585H86.0803C86.2377 179.585 86.3598 179.6 86.4424 179.632C86.5251 179.663 86.592 179.718 86.6392 179.801C86.6904 179.884 86.714 179.97 86.714 180.069C86.714 180.195 86.6747 180.301 86.592 180.388C86.5093 180.474 86.3834 180.529 86.2141 180.553C86.2771 180.584 86.3243 180.612 86.3558 180.643C86.4227 180.706 86.4897 180.785 86.5526 180.88L86.8636 181.364H86.5684L86.3322 180.994C86.2653 180.887 86.2062 180.805 86.1629 180.75C86.1196 180.691 86.0803 180.651 86.0448 180.632C86.0094 180.608 85.974 180.592 85.9386 180.584C85.911 180.577 85.8677 180.577 85.8087 180.577H85.5331V181.368H85.2969H85.2891ZM85.5252 180.368H86.033C86.1393 180.368 86.2259 180.356 86.285 180.336C86.344 180.313 86.3912 180.277 86.4227 180.23C86.4542 180.179 86.47 180.128 86.47 180.069C86.47 179.986 86.4385 179.915 86.3794 179.86C86.3165 179.805 86.222 179.777 86.0881 179.777H85.5252V180.368Z" fill="#231815"/>
<path d="M87.088 181.368V179.585H88.3791V179.793H87.3242V180.34H88.3122V180.549H87.3242V181.155H88.4185V181.364H87.088V181.368Z" fill="#231815"/>
<path d="M37.7497 100.495V100.834H35.7855C35.6123 100.834 35.4509 100.83 35.3013 100.818C35.3407 100.853 35.3761 100.893 35.4076 100.932C35.5178 101.062 35.6359 101.208 35.7618 101.361L35.5296 101.542L34.9391 100.783V100.495H37.7497Z" fill="#231815"/>
<path d="M36.5491 99.4246C35.4509 99.4246 34.8998 98.9955 34.8998 98.1374C34.8998 97.9878 34.9116 97.8736 34.9352 97.791H35.2304C35.1989 97.8894 35.1832 98.0035 35.1832 98.1295C35.1832 98.4286 35.2737 98.657 35.4548 98.8144C35.6359 98.9719 35.9232 99.0585 36.3208 99.0781V99.0545C36.1004 98.9128 35.9902 98.6924 35.9902 98.3893C35.9902 98.1374 36.0689 97.9366 36.2224 97.791C36.3759 97.6453 36.5845 97.5745 36.8443 97.5745C37.1356 97.5745 37.3639 97.6532 37.5332 97.8146C37.7025 97.976 37.7851 98.1925 37.7851 98.468C37.7851 98.6609 37.7379 98.8302 37.6395 98.9719C37.5411 99.1175 37.3994 99.2277 37.2104 99.3065C37.0215 99.3852 36.801 99.4246 36.5452 99.4246H36.5491ZM37.4978 98.472C37.4978 98.2948 37.4427 98.157 37.3285 98.0626C37.2144 97.9681 37.053 97.9169 36.8443 97.9169C36.6554 97.9169 36.5137 97.9642 36.4113 98.0586C36.3129 98.1531 36.2618 98.2869 36.2618 98.4641C36.2618 98.5743 36.2854 98.6766 36.3326 98.7711C36.3799 98.8656 36.4428 98.9364 36.5255 98.9955C36.6082 99.0506 36.6908 99.0781 36.7774 99.0781C36.9073 99.0781 37.0254 99.0506 37.1396 98.9994C37.2498 98.9483 37.3403 98.8774 37.4033 98.7869C37.4663 98.6963 37.4978 98.594 37.4978 98.4759V98.472Z" fill="#231815"/>
<path d="M37.1119 95.2166V95.626H37.7496V95.9606H37.1119V97.3068H36.8167L34.9233 95.9842V95.626H36.8009V95.2166H37.1119ZM36.8009 95.9606H35.9152C35.7381 95.9606 35.5334 95.9527 35.2933 95.9409V95.9566C35.3248 95.9724 35.376 95.996 35.4429 96.0314C35.5098 96.0668 35.561 96.0983 35.6003 96.1259L36.8009 96.9683V95.9606Z" fill="#231815"/>
<path d="M14.3244 27.3813C15.4027 27.3813 16.2768 26.5072 16.2768 25.4289C16.2768 24.3506 15.4027 23.4764 14.3244 23.4764C13.2461 23.4764 12.3719 24.3506 12.3719 25.4289C12.3719 26.5072 13.2461 27.3813 14.3244 27.3813Z" stroke="#9FA0A0" stroke-linecap="round" stroke-linejoin="round"/>
<path d="M43.8943 183.371H48.3582" stroke="#231815" stroke-linecap="round" stroke-linejoin="round"/>
<path d="M48.3582 178.349H43.8943" stroke="#231815" stroke-linecap="round" stroke-linejoin="round"/>
<path d="M43.8943 178.349C42.5087 178.349 41.3829 179.474 41.3829 180.86C41.3829 182.246 42.5087 183.371 43.8943 183.371" stroke="#231815" stroke-linecap="round" stroke-linejoin="round"/>
<path d="M48.3582 183.371C49.7438 183.371 50.8696 182.246 50.8696 180.86C50.8696 179.474 49.7438 178.349 48.3582 178.349" stroke="#231815" stroke-linecap="round" stroke-linejoin="round"/>
<path d="M43.6149 85.4583V89.9222" stroke="#231815" stroke-linecap="round" stroke-linejoin="round"/>
<path d="M48.6376 89.9222V85.4583" stroke="#231815" stroke-linecap="round" stroke-linejoin="round"/>
<path d="M43.6149 89.9222C43.6149 91.3078 44.7407 92.4336 46.1263 92.4336C47.5119 92.4336 48.6377 91.3078 48.6377 89.9222" stroke="#231815" stroke-linecap="round" stroke-linejoin="round"/>
<path d="M48.6377 85.4584C48.6377 84.0728 47.5119 82.947 46.1263 82.947C44.7407 82.947 43.6149 84.0728 43.6149 85.4584" stroke="#231815" stroke-linecap="round" stroke-linejoin="round"/>
<path d="M77.9281 27.3813C79.0064 27.3813 79.8805 26.5072 79.8805 25.4289C79.8805 24.3506 79.0064 23.4764 77.9281 23.4764C76.8498 23.4764 75.9756 24.3506 75.9756 25.4289C75.9756 26.5072 76.8498 27.3813 77.9281 27.3813Z" stroke="#9FA0A0" stroke-linecap="round" stroke-linejoin="round"/>
<path d="M34.6872 168.697H57.5614" stroke="#9FA0A0" stroke-linecap="round" stroke-linejoin="round"/>
<path d="M57.5614 140.804H34.6872" stroke="#9FA0A0" stroke-linecap="round" stroke-linejoin="round"/>
<path d="M31.3413 144.149V165.351" stroke="#9FA0A0" stroke-linecap="round" stroke-linejoin="round"/>
<path d="M60.9113 165.351V144.149" stroke="#9FA0A0" stroke-linecap="round" stroke-linejoin="round"/>
<path d="M31.3413 165.351C31.3413 167.201 32.8411 168.697 34.6872 168.697" stroke="#9FA0A0" stroke-linecap="round" stroke-linejoin="round"/>
<path d="M34.6872 140.804C32.8371 140.804 31.3413 142.303 31.3413 144.149" stroke="#9FA0A0" stroke-linecap="round" stroke-linejoin="round"/>
<path d="M57.5614 168.697C59.4115 168.697 60.9073 167.197 60.9073 165.351" stroke="#9FA0A0" stroke-linecap="round" stroke-linejoin="round"/>
<path d="M60.9112 144.149C60.9112 142.299 59.4115 140.804 57.5653 140.804" stroke="#9FA0A0" stroke-linecap="round" stroke-linejoin="round"/>
<path d="M39.71 96.9525V103.648" stroke="#9FA0A0" stroke-linecap="round" stroke-linejoin="round"/>
<path d="M40.2689 104.203H51.9835" stroke="#9FA0A0" stroke-linecap="round" stroke-linejoin="round"/>
<path d="M51.9835 96.3936H40.2689" stroke="#9FA0A0" stroke-linecap="round" stroke-linejoin="round"/>
<path d="M52.5425 103.648V96.9525" stroke="#9FA0A0" stroke-linecap="round" stroke-linejoin="round"/>
<path d="M39.71 103.648C39.71 103.955 39.958 104.207 40.2689 104.207" stroke="#9FA0A0" stroke-linecap="round" stroke-linejoin="round"/>
<path d="M40.2689 96.3936C39.9619 96.3936 39.71 96.6415 39.71 96.9525" stroke="#9FA0A0" stroke-linecap="round" stroke-linejoin="round"/>
<path d="M51.9835 104.203C52.2906 104.203 52.5425 103.955 52.5425 103.644" stroke="#9FA0A0" stroke-linecap="round" stroke-linejoin="round"/>
<path d="M52.5425 96.9525C52.5425 96.6455 52.2945 96.3936 51.9835 96.3936" stroke="#9FA0A0" stroke-linecap="round" stroke-linejoin="round"/>
<path d="M43.3354 189.788H33.2938" stroke="#231815" stroke-linecap="round" stroke-linejoin="round"/>
<path d="M33.2938 189.788V188.674" stroke="#231815" stroke-linecap="round" stroke-linejoin="round"/>
<path d="M43.3354 189.788V188.674" stroke="#231815" stroke-linecap="round" stroke-linejoin="round"/>
<path d="M76.637 185.883H44.4533" stroke="#231815" stroke-linecap="round" stroke-linejoin="round"/>
<path d="M32.1797 185.883H15.6155" stroke="#231815" stroke-linecap="round" stroke-linejoin="round"/>
<path d="M10.5337 9.03788L7.22717 12.8168" stroke="#231815" stroke-linecap="round" stroke-linejoin="round"/>
<path d="M86.7967 174.164H82.5612" stroke="#231815" stroke-linecap="round" stroke-linejoin="round"/>
<path d="M9.6874 174.164H5.45581" stroke="#231815" stroke-linecap="round" stroke-linejoin="round"/>
<path d="M6.56982 167.138H7.12879" stroke="#231815" stroke-linecap="round" stroke-linejoin="round"/>
<path d="M85.1238 167.138H85.6827" stroke="#231815" stroke-linecap="round" stroke-linejoin="round"/>
<path d="M86.7967 164.347H85.6827" stroke="#231815" stroke-linecap="round" stroke-linejoin="round"/>
<path d="M6.5698 164.347H5.45581" stroke="#231815" stroke-linecap="round" stroke-linejoin="round"/>
<path d="M86.7967 155.978H85.1238" stroke="#231815" stroke-linecap="round" stroke-linejoin="round"/>
<path d="M5.45581 155.978H7.12876" stroke="#231815" stroke-linecap="round" stroke-linejoin="round"/>
<path d="M13.423 184.068L11.8799 175.979" stroke="#231815" stroke-linecap="round" stroke-linejoin="round"/>
<path d="M5.45581 174.164V164.347" stroke="#231815" stroke-linecap="round" stroke-linejoin="round"/>
<path d="M5.45581 155.978V27.1018" stroke="#231815" stroke-linecap="round" stroke-linejoin="round"/>
<path d="M5.45581 18.7331V12.9309" stroke="#231815" stroke-linecap="round" stroke-linejoin="round"/>
<path d="M6.56982 167.138V164.347" stroke="#231815" stroke-linecap="round" stroke-linejoin="round"/>
<path d="M6.56982 29.8927V27.1018" stroke="#231815" stroke-linecap="round" stroke-linejoin="round"/>
<path d="M7.68774 19.2921V29.3337" stroke="#231815" stroke-linecap="round" stroke-linejoin="round"/>
<path d="M7.68774 156.537V166.579" stroke="#231815" stroke-linecap="round" stroke-linejoin="round"/>
<path d="M13.7654 6.79416V7.90814" stroke="#231815" stroke-linecap="round" stroke-linejoin="round"/>
<path d="M13.7654 8.13252V7.93176" stroke="#231815" stroke-linecap="round" stroke-linejoin="round"/>
<path d="M33.2938 188.674V186.997" stroke="#231815" stroke-linecap="round" stroke-linejoin="round"/>
<path d="M39.4305 8.35689V6.79416" stroke="#231815" stroke-linecap="round" stroke-linejoin="round"/>
<path d="M43.3354 186.997V188.674" stroke="#231815" stroke-linecap="round" stroke-linejoin="round"/>
<path d="M52.822 8.35689V6.79416" stroke="#231815" stroke-linecap="round" stroke-linejoin="round"/>
<path d="M78.4832 8.13252V7.93176" stroke="#231815" stroke-linecap="round" stroke-linejoin="round"/>
<path d="M78.4832 7.90814V6.79416" stroke="#231815" stroke-linecap="round" stroke-linejoin="round"/>
<path d="M84.5648 166.579V156.537" stroke="#231815" stroke-linecap="round" stroke-linejoin="round"/>
<path d="M84.5648 29.3337V19.2921" stroke="#231815" stroke-linecap="round" stroke-linejoin="round"/>
<path d="M85.6827 167.138V164.347" stroke="#231815" stroke-linecap="round" stroke-linejoin="round"/>
<path d="M86.7968 12.9309V18.7331" stroke="#231815" stroke-linecap="round" stroke-linejoin="round"/>
<path d="M86.7968 174.164V164.347" stroke="#231815" stroke-linecap="round" stroke-linejoin="round"/>
<path d="M86.7968 155.978V27.1018" stroke="#231815" stroke-linecap="round" stroke-linejoin="round"/>
<path d="M80.3726 175.979L78.8295 184.068" stroke="#231815" stroke-linecap="round" stroke-linejoin="round"/>
<path d="M6.56982 29.8927H7.12879" stroke="#231815" stroke-linecap="round" stroke-linejoin="round"/>
<path d="M85.1238 29.8927H85.6827" stroke="#231815" stroke-linecap="round" stroke-linejoin="round"/>
<path d="M86.7967 27.1018H85.6827" stroke="#231815" stroke-linecap="round" stroke-linejoin="round"/>
<path d="M6.5698 27.1018H5.45581" stroke="#231815" stroke-linecap="round" stroke-linejoin="round"/>
<path d="M5.45581 18.7331H7.12876" stroke="#231815" stroke-linecap="round" stroke-linejoin="round"/>
<path d="M85.1238 18.7331H86.7967" stroke="#231815" stroke-linecap="round" stroke-linejoin="round"/>
<path d="M86.7967 12.9309H85.2773" stroke="#231815" stroke-linecap="round" stroke-linejoin="round"/>
<path d="M5.45581 12.9309H6.97524" stroke="#231815" stroke-linecap="round" stroke-linejoin="round"/>
<path d="M85.0253 12.8168L81.7188 9.03788" stroke="#231815" stroke-linecap="round" stroke-linejoin="round"/>
<path d="M80.4592 8.46711H78.8177" stroke="#231815" stroke-linecap="round" stroke-linejoin="round"/>
<path d="M13.4309 8.46711H11.7933" stroke="#231815" stroke-linecap="round" stroke-linejoin="round"/>
<path d="M39.4305 8.35689H52.822" stroke="#231815" stroke-linecap="round" stroke-linejoin="round"/>
<path d="M13.7654 6.79416H39.4305" stroke="#231815" stroke-linecap="round" stroke-linejoin="round"/>
<path d="M52.822 6.79416H78.4831" stroke="#231815" stroke-linecap="round" stroke-linejoin="round"/>
<path d="M13.423 184.068C13.6237 185.119 14.5448 185.883 15.6155 185.883" stroke="#231815" stroke-linecap="round" stroke-linejoin="round"/>
<path d="M11.8799 175.979C11.6792 174.928 10.7581 174.164 9.68738 174.164" stroke="#231815" stroke-linecap="round" stroke-linejoin="round"/>
<path d="M44.4533 185.883C43.8353 185.883 43.3394 186.383 43.3394 186.997" stroke="#231815" stroke-linecap="round" stroke-linejoin="round"/>
<path d="M33.2937 186.997C33.2937 186.379 32.7938 185.883 32.1797 185.883" stroke="#231815" stroke-linecap="round" stroke-linejoin="round"/>
<path d="M7.68775 156.537C7.68775 156.23 7.43976 155.978 7.12878 155.978" stroke="#231815" stroke-linecap="round" stroke-linejoin="round"/>
<path d="M7.12878 167.138C7.43582 167.138 7.68775 166.89 7.68775 166.579" stroke="#231815" stroke-linecap="round" stroke-linejoin="round"/>
<path d="M11.7933 8.46711C11.3092 8.46711 10.8525 8.67574 10.5337 9.03788" stroke="#231815" stroke-linecap="round" stroke-linejoin="round"/>
<path d="M7.12878 29.8927C7.43582 29.8927 7.68775 29.6447 7.68775 29.3337" stroke="#231815" stroke-linecap="round" stroke-linejoin="round"/>
<path d="M7.68775 19.2921C7.68775 18.9851 7.43976 18.7331 7.12878 18.7331" stroke="#231815" stroke-linecap="round" stroke-linejoin="round"/>
<path d="M6.97522 12.9309C7.07363 12.9309 7.16417 12.8876 7.22715 12.8168" stroke="#231815" stroke-linecap="round" stroke-linejoin="round"/>
<path d="M13.4308 8.46711C13.6159 8.46711 13.7654 8.31753 13.7654 8.13252" stroke="#231815" stroke-linecap="round" stroke-linejoin="round"/>
<path d="M76.637 185.883C77.7077 185.883 78.6288 185.123 78.8295 184.068" stroke="#231815" stroke-linecap="round" stroke-linejoin="round"/>
<path d="M82.5612 174.164C81.4905 174.164 80.5694 174.924 80.3687 175.979" stroke="#231815" stroke-linecap="round" stroke-linejoin="round"/>
<path d="M85.1238 155.978C84.8167 155.978 84.5648 156.226 84.5648 156.537" stroke="#231815" stroke-linecap="round" stroke-linejoin="round"/>
<path d="M84.5648 166.579C84.5648 166.886 84.8128 167.138 85.1238 167.138" stroke="#231815" stroke-linecap="round" stroke-linejoin="round"/>
<path d="M81.7188 9.03788C81.4 8.67574 80.9433 8.46711 80.4592 8.46711" stroke="#231815" stroke-linecap="round" stroke-linejoin="round"/>
<path d="M85.1238 18.7331C84.8167 18.7331 84.5648 18.9811 84.5648 19.2921" stroke="#231815" stroke-linecap="round" stroke-linejoin="round"/>
<path d="M84.5648 29.3337C84.5648 29.6408 84.8128 29.8927 85.1238 29.8927" stroke="#231815" stroke-linecap="round" stroke-linejoin="round"/>
<path d="M85.0254 12.8168C85.0884 12.8876 85.1789 12.9309 85.2773 12.9309" stroke="#231815" stroke-linecap="round" stroke-linejoin="round"/>
<path d="M78.4832 8.13252C78.4832 8.31753 78.6327 8.46711 78.8177 8.46711" stroke="#231815" stroke-linecap="round" stroke-linejoin="round"/>
<path d="M85.6827 29.8927V27.1018" stroke="#231815" stroke-linecap="round" stroke-linejoin="round"/>
<path d="M36.3483 92.4336V7.96719" stroke="#231815" stroke-width="0.5" stroke-linecap="round" stroke-linejoin="round"/>
<path d="M37.0766 8.52222L36.3483 8.21124L35.6201 8.52222L36.3483 6.79416L37.0766 8.52222Z" fill="#231815"/>
<path d="M36.3483 188.611V103.924" stroke="#231815" stroke-width="0.5" stroke-linecap="round" stroke-linejoin="round"/>
<path d="M37.0766 188.06L36.3483 188.371L35.6201 188.06L36.3483 189.788L37.0766 188.06Z" fill="#231815"/>
<path d="M69.9569 100.133V100.472H67.9927C67.8195 100.472 67.6581 100.468 67.5085 100.456C67.5479 100.491 67.5833 100.531 67.6148 100.57C67.725 100.7 67.8431 100.842 67.9691 100.999L67.7368 101.18L67.1464 100.42V100.133H69.9569Z" fill="#231815"/>
<path d="M68.7564 99.0624C67.6581 99.0624 67.1071 98.6333 67.1071 97.7752C67.1071 97.6256 67.1189 97.5115 67.1425 97.4288H67.4377C67.4062 97.5272 67.3905 97.6414 67.3905 97.7673C67.3905 98.0665 67.481 98.2948 67.6621 98.4523C67.8432 98.6097 68.1305 98.6963 68.5281 98.716V98.6924C68.3076 98.5507 68.1974 98.3302 68.1974 98.0271C68.1974 97.7752 68.2762 97.5745 68.4297 97.4288C68.5832 97.2832 68.7918 97.2123 69.0516 97.2123C69.3429 97.2123 69.5712 97.291 69.7405 97.4524C69.9097 97.6138 69.9924 97.8303 69.9924 98.1059C69.9924 98.2987 69.9452 98.468 69.8468 98.6097C69.7484 98.7554 69.6066 98.8656 69.4177 98.9443C69.2288 99.023 69.0083 99.0624 68.7525 99.0624H68.7564ZM69.7051 98.1098C69.7051 97.9327 69.6499 97.7949 69.5358 97.7004C69.4216 97.6059 69.2602 97.5548 69.0516 97.5548C68.8627 97.5548 68.721 97.602 68.6186 97.6965C68.5202 97.791 68.469 97.9248 68.469 98.1019C68.469 98.2121 68.4927 98.3145 68.5399 98.409C68.5871 98.5034 68.6501 98.5782 68.7328 98.6333C68.8154 98.6884 68.8981 98.716 68.9847 98.716C69.1146 98.716 69.2327 98.6924 69.3468 98.6373C69.4571 98.5861 69.5476 98.5152 69.6106 98.4247C69.6736 98.3342 69.7051 98.2279 69.7051 98.1137V98.1098Z" fill="#231815"/>
<path d="M68.5477 94.9686C69.0358 94.9686 69.398 95.0473 69.6381 95.2008C69.8782 95.3544 69.9963 95.5905 69.9963 95.9055C69.9963 96.2204 69.8743 96.4408 69.6263 96.5982C69.3822 96.7557 69.0201 96.8344 68.5477 96.8344C68.0754 96.8344 67.6935 96.7596 67.4574 96.6061C67.2212 96.4526 67.1031 96.2204 67.1031 95.9015C67.1031 95.5827 67.2251 95.3662 67.4731 95.2048C67.7211 95.0434 68.0793 94.9647 68.5477 94.9647V94.9686ZM68.5477 96.488C68.9571 96.488 69.2484 96.4408 69.4295 96.3503C69.6106 96.2597 69.7011 96.1101 69.7011 95.9055C69.7011 95.7008 69.6066 95.5512 69.4216 95.4567C69.2366 95.3622 68.9453 95.3189 68.5477 95.3189C68.1502 95.3189 67.8628 95.3662 67.6778 95.4567C67.4928 95.5472 67.3983 95.6968 67.3983 95.9055C67.3983 96.1141 67.4889 96.2597 67.6699 96.3503C67.851 96.4408 68.1423 96.488 68.5477 96.488Z" fill="#231815"/>
<path d="M69.7444 94.4962C69.6617 94.4962 69.5948 94.4765 69.5476 94.4332C69.5003 94.3899 69.4807 94.3309 69.4807 94.2561C69.4807 94.1813 69.5043 94.1183 69.5476 94.075C69.5948 94.0317 69.6578 94.0081 69.7444 94.0081C69.831 94.0081 69.894 94.0317 69.9412 94.075C69.9884 94.1183 70.0121 94.1813 70.0121 94.2561C70.0121 94.3309 69.9884 94.3899 69.9412 94.4332C69.894 94.4765 69.8271 94.4962 69.7444 94.4962Z" fill="#231815"/>
<path d="M68.2326 92.6383C68.2326 92.343 68.3074 92.1147 68.453 91.9455C68.5987 91.7762 68.8034 91.6935 69.0592 91.6935C69.3505 91.6935 69.5788 91.788 69.7481 91.973C69.9134 92.158 69.9961 92.4178 69.9961 92.7445C69.9961 93.0713 69.9449 93.2996 69.8426 93.4728H69.5159C69.571 93.3783 69.6182 93.2641 69.6497 93.1303C69.6812 92.9965 69.7009 92.8666 69.7009 92.7406C69.7009 92.5202 69.6497 92.3509 69.5434 92.2289C69.4371 92.1069 69.2876 92.0478 69.0947 92.0478C68.7168 92.0478 68.5239 92.284 68.5239 92.7524C68.5239 92.902 68.5436 93.0634 68.5829 93.2327L68.4727 93.4059L67.1462 93.2996V91.8904H67.4611V93.0044L68.2759 93.0713C68.2444 92.9256 68.2326 92.78 68.2326 92.6383Z" fill="#231815"/>
<path d="M68.5556 89.3632V7.96719" stroke="#231815" stroke-width="0.5" stroke-linecap="round" stroke-linejoin="round"/>
<path d="M69.2838 8.52222L68.5556 8.21124L67.8274 8.52222L68.5556 6.79416L69.2838 8.52222Z" fill="#231815"/>
<path d="M68.5556 184.706V103.31" stroke="#231815" stroke-width="0.5" stroke-linecap="round" stroke-linejoin="round"/>
<path d="M69.2838 184.155L68.5556 184.466L67.8274 184.155L68.5556 185.883L69.2838 184.155Z" fill="#231815"/>
<path d="M42.6071 62.5879L43.7605 60.0922H42.245V59.7773H44.1305V60.045L42.989 62.5879H42.6071Z" fill="#231815"/>
<path d="M46.3703 62.5881H44.5123V62.3007L45.2484 61.5568C45.4689 61.3324 45.6184 61.171 45.6893 61.0765C45.7602 60.9821 45.8153 60.8876 45.8507 60.7971C45.8861 60.7065 45.9019 60.6121 45.9019 60.5058C45.9019 60.3562 45.8586 60.242 45.768 60.1594C45.6775 60.0767 45.5594 60.0334 45.4059 60.0334C45.2917 60.0334 45.1815 60.0531 45.0792 60.0925C44.9768 60.1318 44.8587 60.2027 44.7288 60.3011L44.5438 60.0688C44.8076 59.8484 45.0949 59.7382 45.4059 59.7382C45.6657 59.7382 45.8743 59.8051 46.0278 59.9389C46.1813 60.0728 46.2561 60.2538 46.2561 60.4861C46.2561 60.6081 46.2325 60.7262 46.1892 60.8443C46.1459 60.9585 46.079 61.0765 45.9885 61.1946C45.8979 61.3127 45.7483 61.4741 45.5358 61.6827L44.9493 62.2614V62.2771H46.3703V62.592V62.5881Z" fill="#231815"/>
<path d="M46.8545 62.3755C46.8545 62.2929 46.8742 62.226 46.9175 62.1787C46.9608 62.1315 47.0198 62.1118 47.0946 62.1118C47.1694 62.1118 47.2324 62.1354 47.2757 62.1787C47.319 62.226 47.3426 62.2889 47.3426 62.3755C47.3426 62.4621 47.3229 62.5251 47.2757 62.5724C47.2324 62.6196 47.1733 62.6432 47.0946 62.6432C47.0159 62.6432 46.9608 62.6196 46.9175 62.5724C46.8742 62.5251 46.8545 62.4582 46.8545 62.3755Z" fill="#231815"/>
<path d="M49.6729 60.9781C49.6729 62.0764 49.2438 62.6275 48.3818 62.6275C48.2322 62.6275 48.1141 62.6157 48.0275 62.5881V62.2929C48.1259 62.3283 48.2401 62.344 48.3739 62.344C48.5825 62.344 48.7557 62.3007 48.8896 62.2181C49.0273 62.1354 49.1297 62.0134 49.2005 61.852C49.2714 61.6906 49.3108 61.478 49.3226 61.2104H49.2989C49.1572 61.4269 48.9329 61.5371 48.6298 61.5371C48.3818 61.5371 48.185 61.4623 48.0393 61.3127C47.8937 61.1631 47.8228 60.9545 47.8228 60.6908C47.8228 60.3995 47.9055 60.1712 48.0669 59.998C48.2283 59.8248 48.4487 59.7421 48.7203 59.7421C48.9132 59.7421 49.0825 59.7893 49.2242 59.8878C49.3698 59.9862 49.48 60.1279 49.5548 60.3168C49.6335 60.5058 49.669 60.7262 49.669 60.9821L49.6729 60.9781ZM48.7203 60.0295C48.5471 60.0295 48.4093 60.0846 48.3109 60.1987C48.2125 60.3129 48.1653 60.4743 48.1653 60.6829C48.1653 60.8718 48.2125 61.0136 48.3031 61.112C48.3936 61.2104 48.5274 61.2615 48.7046 61.2615C48.8187 61.2615 48.925 61.2379 49.0195 61.1907C49.1139 61.1435 49.1887 61.0805 49.2438 61.0017C49.2989 60.923 49.3265 60.8364 49.3265 60.7498C49.3265 60.6199 49.3029 60.5018 49.2517 60.3916C49.2005 60.2814 49.1297 60.1909 49.0392 60.1279C48.9486 60.061 48.8423 60.0295 48.7242 60.0295H48.7203Z" fill="#231815"/>
<path d="M53.1015 61.1868H85.6237" stroke="#231815" stroke-width="0.5" stroke-linecap="round" stroke-linejoin="round"/>
<path d="M85.0687 61.915L85.3796 61.1868L85.0687 60.4585L86.7967 61.1868L85.0687 61.915Z" fill="#231815"/>
<path d="M46.1262 87.6903H57.5613" stroke="#231815" stroke-width="0.5" stroke-linecap="round" stroke-linejoin="round"/>
<path d="M46.1262 180.86H57.5613" stroke="#231815" stroke-width="0.5" stroke-linecap="round" stroke-linejoin="round"/>
<path d="M6.62885 61.1868H39.151" stroke="#231815" stroke-width="0.5" stroke-linecap="round" stroke-linejoin="round"/>
<path d="M7.18387 61.915L6.8729 61.1868L7.18387 60.4585L5.45581 61.1868L7.18387 61.915Z" fill="#231815"/>
<path d="M52.637 136.544C52.637 136.289 52.696 136.084 52.8141 135.93C52.9322 135.777 53.0975 135.702 53.3062 135.702C53.4479 135.702 53.5738 135.745 53.6841 135.832C53.7943 135.919 53.9006 136.052 53.995 136.241C54.1053 136.013 54.2194 135.852 54.3414 135.757C54.4595 135.663 54.5973 135.615 54.7548 135.615C54.987 135.615 55.1759 135.698 55.3137 135.863C55.4515 136.029 55.5223 136.253 55.5223 136.537C55.5223 136.836 55.4554 137.068 55.3255 137.233C55.1956 137.399 55.0067 137.477 54.7666 137.477C54.4477 137.477 54.1958 137.284 54.0147 136.895C53.9163 137.068 53.8061 137.194 53.6919 137.273C53.5778 137.351 53.4479 137.387 53.3022 137.387C53.0975 137.387 52.9362 137.312 52.8141 137.158C52.6921 137.005 52.6331 136.8 52.6331 136.548L52.637 136.544ZM52.9165 136.548C52.9165 136.698 52.9519 136.82 53.0228 136.91C53.0936 137.001 53.192 137.044 53.3219 137.044C53.4046 137.044 53.4754 137.029 53.5345 136.993C53.5935 136.958 53.6526 136.911 53.6998 136.844C53.747 136.777 53.8022 136.674 53.8651 136.529C53.7903 136.352 53.7116 136.23 53.625 136.155C53.5384 136.08 53.4361 136.044 53.3219 136.044C53.192 136.044 53.0936 136.092 53.0228 136.182C52.9519 136.273 52.9165 136.395 52.9165 136.548ZM54.7744 137.135C54.924 137.135 55.0382 137.084 55.1248 136.977C55.2074 136.871 55.2507 136.725 55.2507 136.54C55.2507 136.355 55.2074 136.214 55.1208 136.107C55.0342 136.001 54.9161 135.95 54.7626 135.95C54.6406 135.95 54.5304 136.001 54.4359 136.1C54.3414 136.198 54.247 136.367 54.1643 136.603C54.243 136.788 54.3336 136.926 54.428 137.009C54.5225 137.092 54.6406 137.135 54.7744 137.135Z" fill="#231815"/>
<path d="M53.3337 133.474C53.5148 133.474 53.6604 133.525 53.7746 133.624C53.8887 133.726 53.9675 133.868 54.0068 134.057H54.0226C54.0501 133.832 54.121 133.663 54.2391 133.553C54.3532 133.443 54.5028 133.387 54.6878 133.387C54.9555 133.387 55.1641 133.482 55.3058 133.667C55.4515 133.852 55.5223 134.12 55.5223 134.466C55.5223 134.616 55.5105 134.749 55.4908 134.875C55.4672 135.001 55.4278 135.119 55.3727 135.238H55.05C55.109 135.119 55.1562 134.99 55.1877 134.856C55.2192 134.722 55.235 134.588 55.235 134.462C55.235 133.986 55.05 133.75 54.6799 133.75C54.3493 133.75 54.1839 134.013 54.1839 134.537V134.808H53.8887V134.533C53.8887 134.312 53.8415 134.139 53.747 134.017C53.6525 133.891 53.5226 133.832 53.3573 133.832C53.2235 133.832 53.1172 133.876 53.0424 133.966C52.9676 134.057 52.9283 134.183 52.9283 134.34C52.9283 134.466 52.944 134.58 52.9794 134.686C53.0149 134.793 53.0739 134.915 53.1644 135.053L52.9283 135.226C52.8377 135.112 52.7669 134.978 52.7157 134.828C52.6645 134.679 52.637 134.517 52.637 134.348C52.637 134.072 52.6999 133.86 52.8259 133.706C52.9519 133.553 53.1211 133.478 53.3376 133.478L53.3337 133.474Z" fill="#231815"/>
<path d="M55.2744 132.884C55.1917 132.884 55.1248 132.864 55.0775 132.821C55.0303 132.777 55.0106 132.718 55.0106 132.643C55.0106 132.569 55.0342 132.506 55.0775 132.462C55.1248 132.419 55.1878 132.395 55.2744 132.395C55.361 132.395 55.4239 132.415 55.4712 132.462C55.5184 132.506 55.542 132.569 55.542 132.643C55.542 132.718 55.5184 132.777 55.4712 132.821C55.4239 132.864 55.357 132.884 55.2744 132.884Z" fill="#231815"/>
<path d="M53.7626 131.03C53.7626 130.734 53.8374 130.506 53.983 130.337C54.1287 130.167 54.3333 130.085 54.5892 130.085C54.8805 130.085 55.1088 130.179 55.2781 130.364C55.4434 130.549 55.5261 130.809 55.5261 131.136C55.5261 131.463 55.4749 131.691 55.3725 131.864H55.0458C55.1009 131.77 55.1482 131.655 55.1797 131.522C55.2112 131.388 55.2308 131.258 55.2308 131.132C55.2308 130.911 55.1797 130.742 55.0734 130.62C54.9671 130.498 54.8175 130.439 54.6246 130.439C54.2468 130.439 54.0539 130.675 54.0539 131.144C54.0539 131.293 54.0736 131.455 54.1129 131.624L54.0027 131.797L52.6761 131.691V130.282H52.9911V131.396L53.8059 131.463C53.7744 131.313 53.7626 131.171 53.7626 131.03Z" fill="#231815"/>
<path d="M54.0856 128.64V88.8869" stroke="#231815" stroke-width="0.51" stroke-linecap="round" stroke-linejoin="round"/>
<path d="M54.8296 89.4498L54.0856 89.1349L53.3416 89.4498L54.0856 87.6903L54.8296 89.4498Z" fill="#231815"/>
<path d="M54.0856 179.695V139.91" stroke="#231815" stroke-width="0.5" stroke-linecap="round" stroke-linejoin="round"/>
<path d="M54.8099 179.148L54.0856 179.455L53.3613 179.148L54.0856 180.86L54.8099 179.148Z" fill="#231815"/>
<path d="M11.5375 139.241H12.6515" stroke="#9FA0A0" stroke-linecap="round" stroke-linejoin="round"/>
<path d="M12.6515 134.777H11.5375" stroke="#9FA0A0" stroke-linecap="round" stroke-linejoin="round"/>
<path d="M11.5375 134.777C10.3054 134.777 9.30554 135.777 9.30554 137.009C9.30554 138.241 10.3054 139.241 11.5375 139.241" stroke="#9FA0A0" stroke-linecap="round" stroke-linejoin="round"/>
<path d="M12.6514 139.241C13.8835 139.241 14.8833 138.241 14.8833 137.009C14.8833 135.777 13.8835 134.777 12.6514 134.777" stroke="#9FA0A0" stroke-linecap="round" stroke-linejoin="round"/>
<path d="M14.3244 149.003C15.4027 149.003 16.2768 148.129 16.2768 147.051C16.2768 145.972 15.4027 145.098 14.3244 145.098C13.2461 145.098 12.3719 145.972 12.3719 147.051C12.3719 148.129 13.2461 149.003 14.3244 149.003Z" stroke="#9FA0A0" stroke-linecap="round" stroke-linejoin="round"/>
<path d="M12.6515 60.5766C13.8841 60.5766 14.8834 59.5774 14.8834 58.3447C14.8834 57.1121 13.8841 56.1128 12.6515 56.1128C11.4188 56.1128 10.4196 57.1121 10.4196 58.3447C10.4196 59.5774 11.4188 60.5766 12.6515 60.5766Z" stroke="#9FA0A0" stroke-linecap="round" stroke-linejoin="round"/>
<path d="M79.6011 139.241C80.8337 139.241 81.833 138.242 81.833 137.009C81.833 135.776 80.8337 134.777 79.6011 134.777C78.3684 134.777 77.3691 135.776 77.3691 137.009C77.3691 138.242 78.3684 139.241 79.6011 139.241Z" stroke="#9FA0A0" stroke-linecap="round" stroke-linejoin="round"/>
<path d="M77.9281 149.003C79.0064 149.003 79.8805 148.129 79.8805 147.051C79.8805 145.972 79.0064 145.098 77.9281 145.098C76.8498 145.098 75.9756 145.972 75.9756 147.051C75.9756 148.129 76.8498 149.003 77.9281 149.003Z" stroke="#9FA0A0" stroke-linecap="round" stroke-linejoin="round"/>
<path d="M79.6011 60.5766C80.8337 60.5766 81.833 59.5774 81.833 58.3447C81.833 57.1121 80.8337 56.1128 79.6011 56.1128C78.3684 56.1128 77.3691 57.1121 77.3691 58.3447C77.3691 59.5774 78.3684 60.5766 79.6011 60.5766Z" stroke="#9FA0A0" stroke-linecap="round" stroke-linejoin="round"/>
</g>
<defs>
<clipPath id="clip0_632_748">
<rect width="92.2525" height="191" fill="white"/>
</clipPath>
</defs>
</svg>
