<svg width="163" height="492" viewBox="0 0 163 492" fill="none" xmlns="http://www.w3.org/2000/svg">
<g clip-path="url(#clip0_607_2379)">
<path d="M162.92 0H0V491.46H162.92V0Z" fill="white"/>
<path d="M71.5 472.41C70.58 472.41 69.67 472.44 68.75 472.52C67.98 472.58 67.22 472.67 66.46 472.82C66.19 472.87 65.93 472.93 65.66 473.01C65.46 473.07 65.26 473.13 65.07 473.22C65 473.25 64.93 473.29 64.86 473.33C64.81 473.36 64.75 473.4 64.71 473.45C64.64 473.51 64.59 473.6 64.58 473.69L64.52 477.32H48.8C43.4 477.32 38.01 476.86 32.69 475.93C30.91 475.62 29.16 475.08 27.51 474.32C25.76 473.52 24.12 472.47 22.65 471.22C21.14 469.93 19.83 468.43 18.74 466.77C17.66 465.13 16.8 463.33 16.22 461.46C15.53 459.24 15.01 456.95 14.66 454.65C14.31 452.34 14.13 450.01 14.13 447.69V48.91C14.13 44.38 14.42 39.85 15.02 35.35C15.18 34.17 15.43 32.99 15.76 31.84C16.13 30.58 16.6 29.34 17.17 28.15C18.41 25.57 20.13 23.21 22.22 21.24C24.33 19.24 26.81 17.64 29.48 16.54C30.73 16.03 32.03 15.62 33.35 15.33C34.57 15.06 35.8 14.88 37.05 14.8C44.15 14.35 51.26 14.13 58.37 14.13H104.55C111.66 14.13 118.77 14.35 125.87 14.8C127.11 14.88 128.35 15.06 129.57 15.33C130.89 15.63 132.18 16.03 133.44 16.54C136.11 17.64 138.59 19.24 140.7 21.24C142.79 23.22 144.51 25.58 145.75 28.15C146.32 29.34 146.79 30.57 147.16 31.84C147.49 32.99 147.75 34.16 147.9 35.35C148.49 39.84 148.79 44.37 148.79 48.91V447.69C148.79 450.02 148.61 452.35 148.26 454.65C147.91 456.95 147.39 459.24 146.7 461.46C146.12 463.33 145.26 465.12 144.18 466.77C143.09 468.43 141.77 469.93 140.27 471.22C138.81 472.47 137.16 473.52 135.41 474.32C133.76 475.08 132.01 475.62 130.23 475.93C124.91 476.86 119.52 477.32 114.12 477.32H98.4L98.34 473.69C98.34 473.52 98.17 473.4 98.02 473.31C97.89 473.23 97.76 473.18 97.63 473.13C97.43 473.06 97.21 472.99 97.01 472.94C96.98 472.94 96.94 472.92 96.91 472.92C96.71 472.87 96.52 472.83 96.32 472.8C96.25 472.79 96.18 472.77 96.1 472.76C95.39 472.64 94.67 472.56 93.94 472.51C93.11 472.45 92.27 472.42 91.43 472.42" fill="white"/>
<path d="M71.5 472.41C70.58 472.41 69.67 472.44 68.75 472.52C67.98 472.58 67.22 472.67 66.46 472.82C66.19 472.87 65.93 472.93 65.66 473.01C65.46 473.07 65.26 473.13 65.07 473.22C65 473.25 64.93 473.29 64.86 473.33C64.81 473.36 64.75 473.4 64.71 473.45C64.64 473.51 64.59 473.6 64.58 473.69L64.52 477.32H48.8C43.4 477.32 38.01 476.86 32.69 475.93C30.91 475.62 29.16 475.08 27.51 474.32C25.76 473.52 24.12 472.47 22.65 471.22C21.14 469.93 19.83 468.43 18.74 466.77C17.66 465.13 16.8 463.33 16.22 461.46C15.53 459.24 15.01 456.95 14.66 454.65C14.31 452.34 14.13 450.01 14.13 447.69V48.91C14.13 44.38 14.42 39.85 15.02 35.35C15.18 34.17 15.43 32.99 15.76 31.84C16.13 30.58 16.6 29.34 17.17 28.15C18.41 25.57 20.13 23.21 22.22 21.24C24.33 19.24 26.81 17.64 29.48 16.54C30.73 16.03 32.03 15.62 33.35 15.33C34.57 15.06 35.8 14.88 37.05 14.8C44.15 14.35 51.26 14.13 58.37 14.13H104.55C111.66 14.13 118.77 14.35 125.87 14.8C127.11 14.88 128.35 15.06 129.57 15.33C130.89 15.63 132.18 16.03 133.44 16.54C136.11 17.64 138.59 19.24 140.7 21.24C142.79 23.22 144.51 25.58 145.75 28.15C146.32 29.34 146.79 30.57 147.16 31.84C147.49 32.99 147.75 34.16 147.9 35.35C148.49 39.84 148.79 44.37 148.79 48.91V447.69C148.79 450.02 148.61 452.35 148.26 454.65C147.91 456.95 147.39 459.24 146.7 461.46C146.12 463.33 145.26 465.12 144.18 466.77C143.09 468.43 141.77 469.93 140.27 471.22C138.81 472.47 137.16 473.52 135.41 474.32C133.76 475.08 132.01 475.62 130.23 475.93C124.91 476.86 119.52 477.32 114.12 477.32H98.4L98.34 473.69C98.34 473.52 98.17 473.4 98.02 473.31C97.89 473.23 97.76 473.18 97.63 473.13C97.43 473.06 97.21 472.99 97.01 472.94C96.98 472.94 96.94 472.92 96.91 472.92C96.71 472.87 96.52 472.83 96.32 472.8C96.25 472.79 96.18 472.77 96.1 472.76C95.39 472.64 94.67 472.56 93.94 472.51C93.11 472.45 92.27 472.42 91.43 472.42" stroke="#040000" stroke-width="0.5" stroke-linecap="round" stroke-linejoin="round"/>
<path d="M106.06 450.93H56.86" stroke="#040000" stroke-width="0.25" stroke-linecap="round" stroke-linejoin="round"/>
<path d="M24.24 430.15V60.38" stroke="#040000" stroke-width="0.25" stroke-linecap="round" stroke-linejoin="round"/>
<path d="M138.69 60.38V430.15" stroke="#040000" stroke-width="0.25" stroke-linecap="round" stroke-linejoin="round"/>
<path d="M52.47 40.39H110.45" stroke="#040000" stroke-width="0.25" stroke-linecap="round" stroke-linejoin="round"/>
<path d="M24.24 430.15C24.24 433.88 24.65 437.6 25.47 441.24" stroke="#040000" stroke-width="0.25" stroke-linecap="round" stroke-linejoin="round"/>
<path d="M137.46 441.24C138.27 437.6 138.68 433.88 138.69 430.15" stroke="#040000" stroke-width="0.25" stroke-linecap="round" stroke-linejoin="round"/>
<path d="M52.47 40.39C46.39 40.39 40.33 40.78 34.3 41.55" stroke="#040000" stroke-width="0.25" stroke-linecap="round" stroke-linejoin="round"/>
<path d="M128.62 41.55C122.59 40.78 116.52 40.39 110.45 40.39" stroke="#040000" stroke-width="0.25" stroke-linecap="round" stroke-linejoin="round"/>
<path d="M36.26 450.38C43.12 450.75 49.99 450.94 56.86 450.94" stroke="#040000" stroke-width="0.25" stroke-linecap="round" stroke-linejoin="round"/>
<path d="M36.06 452.99C42.9 453.38 49.76 453.57 56.61 453.57" stroke="#040000" stroke-width="0.25" stroke-linecap="round" stroke-linejoin="round"/>
<path d="M26.23 48.17C24.91 52.1 24.24 56.22 24.24 60.37" stroke="#040000" stroke-width="0.25" stroke-linecap="round" stroke-linejoin="round"/>
<path d="M34.3 41.55C30.56 42.03 27.43 44.6 26.23 48.18" stroke="#040000" stroke-width="0.25" stroke-linecap="round" stroke-linejoin="round"/>
<path d="M106.06 450.93C112.93 450.93 119.8 450.74 126.66 450.37" stroke="#040000" stroke-width="0.25" stroke-linecap="round" stroke-linejoin="round"/>
<path d="M106.31 453.57C113.17 453.57 120.02 453.38 126.86 452.99" stroke="#040000" stroke-width="0.25" stroke-linecap="round" stroke-linejoin="round"/>
<path d="M138.69 60.38C138.69 56.23 138.02 52.11 136.7 48.18" stroke="#040000" stroke-width="0.25" stroke-linecap="round" stroke-linejoin="round"/>
<path d="M136.69 48.17C135.49 44.6 132.36 42.02 128.62 41.54" stroke="#040000" stroke-width="0.25" stroke-linecap="round" stroke-linejoin="round"/>
<path d="M36.26 450.38C35 450.31 33.75 450.04 32.57 449.57C31.39 449.1 30.29 448.44 29.33 447.63C28.37 446.82 27.53 445.84 26.88 444.75C26.23 443.66 25.74 442.47 25.47 441.24" stroke="#040000" stroke-width="0.25" stroke-linecap="round" stroke-linejoin="round"/>
<path d="M137.46 441.24C137.18 442.47 136.71 443.66 136.05 444.75C135.39 445.84 134.56 446.81 133.6 447.63C132.64 448.45 131.54 449.11 130.36 449.57C129.18 450.03 127.92 450.31 126.67 450.38" stroke="#040000" stroke-width="0.25" stroke-linecap="round" stroke-linejoin="round"/>
<path d="M138.86 47C139.53 49.07 140.05 51.19 140.39 53.34C140.74 55.49 140.91 57.67 140.91 59.85" stroke="#040000" stroke-width="0.25" stroke-linecap="round" stroke-linejoin="round"/>
<path d="M140.91 59.85C140.91 183.45 140.89 307.05 140.89 430.64" stroke="#040000" stroke-width="0.25" stroke-linecap="round" stroke-linejoin="round"/>
<path d="M140.89 430.65C140.89 432.59 140.79 434.54 140.57 436.47C140.35 438.4 140.02 440.32 139.59 442.22" stroke="#040000" stroke-width="0.25" stroke-linecap="round" stroke-linejoin="round"/>
<path d="M139.59 442.21C139.26 443.66 138.69 445.06 137.92 446.34C137.15 447.62 136.17 448.76 135.03 449.73C133.89 450.7 132.6 451.47 131.21 452.02C129.82 452.57 128.35 452.9 126.86 452.99" stroke="#040000" stroke-width="0.25" stroke-linecap="round" stroke-linejoin="round"/>
<path d="M106.31 453.57H81.46" stroke="#040000" stroke-width="0.25" stroke-linecap="round" stroke-linejoin="round"/>
<path d="M81.46 453.57H56.61" stroke="#040000" stroke-width="0.25" stroke-linecap="round" stroke-linejoin="round"/>
<path d="M36.06 452.99C34.58 452.91 33.1 452.58 31.71 452.02C30.32 451.47 29.03 450.69 27.89 449.73C26.75 448.77 25.77 447.62 25 446.34C24.23 445.06 23.66 443.66 23.33 442.22" stroke="#040000" stroke-width="0.25" stroke-linecap="round" stroke-linejoin="round"/>
<path d="M23.33 442.21C22.9 440.32 22.57 438.4 22.35 436.46C22.13 434.52 22.03 432.58 22.03 430.64" stroke="#040000" stroke-width="0.25" stroke-linecap="round" stroke-linejoin="round"/>
<path d="M22.03 430.65C22.03 307.05 22.01 183.45 22.01 59.86" stroke="#040000" stroke-width="0.25" stroke-linecap="round" stroke-linejoin="round"/>
<path d="M22.01 59.85C22.01 57.67 22.18 55.5 22.53 53.34C22.88 51.18 23.39 49.07 24.06 47" stroke="#040000" stroke-width="0.25" stroke-linecap="round" stroke-linejoin="round"/>
<path d="M24.06 47C24.41 45.91 24.92 44.86 25.57 43.91C26.21 42.95 26.99 42.09 27.88 41.36C28.77 40.63 29.76 40.02 30.82 39.56C31.88 39.1 33 38.8 34.14 38.66" stroke="#040000" stroke-width="0.25" stroke-linecap="round" stroke-linejoin="round"/>
<path d="M34.14 38.66C37.21 38.28 40.3 38 43.39 37.81C46.48 37.62 49.58 37.51 52.67 37.51" stroke="#040000" stroke-width="0.25" stroke-linecap="round" stroke-linejoin="round"/>
<path d="M52.67 37.5H110.25" stroke="#040000" stroke-width="0.25" stroke-linecap="round" stroke-linejoin="round"/>
<path d="M110.25 37.5C113.35 37.5 116.44 37.61 119.53 37.8C122.62 37.99 125.71 38.27 128.78 38.65" stroke="#040000" stroke-width="0.25" stroke-linecap="round" stroke-linejoin="round"/>
<path d="M128.78 38.66C129.92 38.8 131.04 39.11 132.1 39.56C133.16 40.01 134.15 40.62 135.04 41.36C135.93 42.09 136.71 42.96 137.35 43.91C137.99 44.86 138.5 45.91 138.86 47" stroke="#040000" stroke-width="0.25" stroke-linecap="round" stroke-linejoin="round"/>
<path d="M114.11 477.32H98.39" stroke="#040000" stroke-linecap="round" stroke-linejoin="round"/>
<path d="M71.5 472.43H91.42" stroke="#040000" stroke-linecap="round" stroke-linejoin="round"/>
<path d="M71.5 472.41H91.42" stroke="#040000" stroke-linecap="round" stroke-linejoin="round"/>
<path d="M91.42 472.43L91.75 472.44L93 472.47L94.15 472.54L95.16 472.65L95.99 472.77L96.65 472.91L97.1 473.04L97.21 473.09" stroke="#040000" stroke-linecap="round" stroke-linejoin="round"/>
<path d="M106.06 451.33H56.86" stroke="#040000" stroke-width="0.25" stroke-linecap="round" stroke-linejoin="round"/>
<path d="M23.83 60.38V430.15" stroke="#040000" stroke-width="0.25" stroke-linecap="round" stroke-linejoin="round"/>
<path d="M71.5 472.41V472.43" stroke="#040000" stroke-linecap="round" stroke-linejoin="round"/>
<path d="M65.87 475.97L65.93 473.01" stroke="#040000" stroke-linecap="round" stroke-linejoin="round"/>
<path d="M97 473.01L97.05 475.97" stroke="#040000" stroke-linecap="round" stroke-linejoin="round"/>
<path d="M91.42 472.41V472.43" stroke="#040000" stroke-linecap="round" stroke-linejoin="round"/>
<path d="M139.09 430.15V60.38" stroke="#040000" stroke-width="0.25" stroke-linecap="round" stroke-linejoin="round"/>
<path d="M23.83 60.38H23.75" stroke="#040000" stroke-width="0.25" stroke-linecap="round" stroke-linejoin="round"/>
<path d="M107.04 63H55.88" stroke="#040000" stroke-width="0.25" stroke-linecap="round" stroke-linejoin="round"/>
<path d="M107.04 62.62H55.88" stroke="#040000" stroke-width="0.25" stroke-linecap="round" stroke-linejoin="round"/>
<path d="M55.88 59.91H107.04" stroke="#040000" stroke-width="0.25" stroke-linecap="round" stroke-linejoin="round"/>
<path d="M55.88 59.53H107.04" stroke="#040000" stroke-width="0.25" stroke-linecap="round" stroke-linejoin="round"/>
<path d="M110.45 39.99H52.47" stroke="#040000" stroke-width="0.25" stroke-linecap="round" stroke-linejoin="round"/>
<path d="M65.59 473.14H65.6L65.81 473.05L66.25 472.92L66.9 472.78L67.72 472.65L68.72 472.55L69.85 472.47L71.1 472.44L71.5 472.43" stroke="#040000" stroke-linecap="round" stroke-linejoin="round"/>
<path d="M23.83 430.15C23.83 433.91 24.25 437.66 25.07 441.33" stroke="#040000" stroke-width="0.25" stroke-linecap="round" stroke-linejoin="round"/>
<path d="M137.85 441.32C138.67 437.65 139.08 433.9 139.09 430.14" stroke="#040000" stroke-width="0.25" stroke-linecap="round" stroke-linejoin="round"/>
<path d="M97.09 472.96C97.03 472.94 96.96 472.93 96.9 472.91" stroke="#040000" stroke-linecap="round" stroke-linejoin="round"/>
<path d="M65.7 473.12C65.7 473.12 65.74 473.07 65.75 473.04" stroke="#040000" stroke-linecap="round" stroke-linejoin="round"/>
<path d="M52.47 39.99C46.38 39.99 40.29 40.38 34.25 41.15" stroke="#040000" stroke-width="0.25" stroke-linecap="round" stroke-linejoin="round"/>
<path d="M128.67 41.15C122.63 40.38 116.54 39.99 110.45 39.99" stroke="#040000" stroke-width="0.25" stroke-linecap="round" stroke-linejoin="round"/>
<path d="M36.24 450.78C43.11 451.15 49.98 451.34 56.86 451.34" stroke="#040000" stroke-width="0.25" stroke-linecap="round" stroke-linejoin="round"/>
<path d="M25.84 48.04C24.51 52.01 23.83 56.18 23.83 60.37" stroke="#040000" stroke-width="0.25" stroke-linecap="round" stroke-linejoin="round"/>
<path d="M34.25 41.15C30.36 41.65 27.09 44.33 25.84 48.05" stroke="#040000" stroke-width="0.25" stroke-linecap="round" stroke-linejoin="round"/>
<path d="M55.88 59.53C55.71 59.53 55.54 59.56 55.38 59.6" stroke="#040000" stroke-width="0.25" stroke-linecap="round" stroke-linejoin="round"/>
<path d="M55.37 59.61C54.45 59.89 53.94 60.86 54.21 61.77C54.43 62.5 55.11 63 55.87 63" stroke="#040000" stroke-width="0.25" stroke-linecap="round" stroke-linejoin="round"/>
<path d="M55.04 62.32C55.28 62.51 55.58 62.61 55.88 62.61" stroke="#040000" stroke-width="0.25" stroke-linecap="round" stroke-linejoin="round"/>
<path d="M55.4 60C54.7 60.26 54.35 61.04 54.61 61.74C54.7 61.97 54.84 62.17 55.04 62.32" stroke="#040000" stroke-width="0.25" stroke-linecap="round" stroke-linejoin="round"/>
<path d="M106.06 451.33C112.94 451.33 119.81 451.14 126.68 450.77" stroke="#040000" stroke-width="0.25" stroke-linecap="round" stroke-linejoin="round"/>
<path d="M139.09 60.38C139.09 56.19 138.41 52.02 137.08 48.05" stroke="#040000" stroke-width="0.25" stroke-linecap="round" stroke-linejoin="round"/>
<path d="M137.08 48.04C135.83 44.32 132.57 41.64 128.67 41.14" stroke="#040000" stroke-width="0.25" stroke-linecap="round" stroke-linejoin="round"/>
<path d="M107.53 59.6C107.37 59.55 107.21 59.53 107.04 59.53" stroke="#040000" stroke-width="0.25" stroke-linecap="round" stroke-linejoin="round"/>
<path d="M107.04 63C108 63 108.77 62.22 108.77 61.27C108.77 60.5 108.26 59.82 107.53 59.61" stroke="#040000" stroke-width="0.25" stroke-linecap="round" stroke-linejoin="round"/>
<path d="M107.46 59.98C107.32 59.94 107.18 59.91 107.04 59.91" stroke="#040000" stroke-width="0.25" stroke-linecap="round" stroke-linejoin="round"/>
<path d="M107.04 62.62C107.35 62.62 107.64 62.52 107.88 62.33" stroke="#040000" stroke-width="0.25" stroke-linecap="round" stroke-linejoin="round"/>
<path d="M107.88 62.32C108.47 61.86 108.56 61 108.1 60.42C107.93 60.21 107.71 60.06 107.46 59.97" stroke="#040000" stroke-width="0.25" stroke-linecap="round" stroke-linejoin="round"/>
<path d="M55.4 60C55.55 59.94 55.72 59.91 55.88 59.91" stroke="#040000" stroke-width="0.25" stroke-linecap="round" stroke-linejoin="round"/>
<path d="M64.53 477.32H48.81" stroke="#040000" stroke-linecap="round" stroke-linejoin="round"/>
<path d="M98.39 477.32C98.05 477.32 97.69 477.17 97.44 476.92C97.19 476.67 97.05 476.31 97.04 475.97" stroke="#040000" stroke-linecap="round" stroke-linejoin="round"/>
<path d="M65.87 475.97C65.87 476.31 65.72 476.67 65.47 476.92C65.22 477.17 64.86 477.32 64.52 477.32" stroke="#040000" stroke-linecap="round" stroke-linejoin="round"/>
<path d="M64.59 473.69C64.59 473.6 64.65 473.52 64.72 473.45C64.77 473.4 64.82 473.37 64.87 473.33C64.94 473.29 65.01 473.25 65.08 473.22C65.27 473.13 65.47 473.06 65.67 473.01C65.93 472.93 66.2 472.87 66.47 472.82" stroke="#040000" stroke-linecap="round" stroke-linejoin="round"/>
<path d="M66.46 472.81C67.21 472.66 67.98 472.57 68.75 472.51C69.66 472.44 70.58 472.4 71.5 472.4" stroke="#040000" stroke-linecap="round" stroke-linejoin="round"/>
<path d="M64.53 477.32L64.59 473.69" stroke="#040000" stroke-linecap="round" stroke-linejoin="round"/>
<path d="M64.59 473.69C64.8 473.69 65.02 473.64 65.21 473.54C65.4 473.44 65.57 473.3 65.69 473.12" stroke="#040000" stroke-linecap="round" stroke-linejoin="round"/>
<path d="M98.33 473.69C98.1 473.69 97.87 473.63 97.66 473.52C97.45 473.41 97.29 473.24 97.17 473.04" stroke="#040000" stroke-linecap="round" stroke-linejoin="round"/>
<path d="M98.33 473.69L98.39 477.32" stroke="#040000" stroke-linecap="round" stroke-linejoin="round"/>
<path d="M25.07 441.32C25.35 442.59 25.85 443.83 26.53 444.95C27.21 446.07 28.07 447.08 29.07 447.93C30.07 448.78 31.21 449.46 32.43 449.94C33.65 450.42 34.95 450.71 36.25 450.78" stroke="#040000" stroke-width="0.25" stroke-linecap="round" stroke-linejoin="round"/>
<path d="M126.68 450.78C127.98 450.71 129.28 450.43 130.5 449.94C131.72 449.45 132.86 448.77 133.86 447.93C134.86 447.09 135.72 446.07 136.4 444.95C137.08 443.83 137.57 442.6 137.86 441.32" stroke="#040000" stroke-width="0.25" stroke-linecap="round" stroke-linejoin="round"/>
<path d="M91.42 472.41C92.26 472.41 93.09 472.44 93.93 472.5C94.65 472.55 95.37 472.63 96.09 472.75" stroke="#040000" stroke-linecap="round" stroke-linejoin="round"/>
<path d="M96.09 472.75C96.16 472.76 96.23 472.77 96.31 472.79C96.51 472.83 96.71 472.87 96.9 472.91" stroke="#040000" stroke-linecap="round" stroke-linejoin="round"/>
<path d="M97.09 472.96C97.27 473.01 97.45 473.06 97.62 473.13C97.75 473.18 97.88 473.23 98.01 473.31C98.16 473.4 98.33 473.53 98.33 473.69" stroke="#040000" stroke-linecap="round" stroke-linejoin="round"/>
<path d="M148.78 447.69V48.91" stroke="#040000" stroke-linecap="round" stroke-linejoin="round"/>
<path d="M104.55 14.14H58.37" stroke="#040000" stroke-linecap="round" stroke-linejoin="round"/>
<path d="M125.88 14.8C118.78 14.36 111.67 14.13 104.56 14.13" stroke="#040000" stroke-linecap="round" stroke-linejoin="round"/>
<path d="M58.37 14.14C51.26 14.14 44.15 14.36 37.05 14.81" stroke="#040000" stroke-linecap="round" stroke-linejoin="round"/>
<path d="M32.7 475.93C38.02 476.86 43.41 477.32 48.81 477.32" stroke="#040000" stroke-linecap="round" stroke-linejoin="round"/>
<path d="M114.11 477.32C119.51 477.32 124.9 476.86 130.22 475.93" stroke="#040000" stroke-linecap="round" stroke-linejoin="round"/>
<path d="M148.78 48.91C148.78 44.38 148.48 39.85 147.89 35.35" stroke="#040000" stroke-linecap="round" stroke-linejoin="round"/>
<path d="M15.03 35.36C14.43 39.85 14.14 44.38 14.14 48.92" stroke="#040000" stroke-linecap="round" stroke-linejoin="round"/>
<path d="M146.69 461.46C147.38 459.24 147.9 456.95 148.25 454.65C148.6 452.35 148.78 450.01 148.78 447.69" stroke="#040000" stroke-linecap="round" stroke-linejoin="round"/>
<path d="M130.23 475.93C132.01 475.62 133.76 475.08 135.41 474.32C137.16 473.52 138.8 472.47 140.27 471.22C141.78 469.93 143.09 468.43 144.18 466.77C145.26 465.13 146.12 463.33 146.7 461.46" stroke="#040000" stroke-linecap="round" stroke-linejoin="round"/>
<path d="M16.23 461.46C16.81 463.33 17.67 465.12 18.75 466.77C19.84 468.43 21.16 469.93 22.66 471.22C24.16 472.51 25.77 473.52 27.52 474.32C29.17 475.08 30.92 475.62 32.7 475.93" stroke="#040000" stroke-linecap="round" stroke-linejoin="round"/>
<path d="M14.14 447.69C14.14 450.02 14.32 452.35 14.67 454.65C15.02 456.96 15.54 459.24 16.23 461.46" stroke="#040000" stroke-linecap="round" stroke-linejoin="round"/>
<path d="M14.14 48.91V447.69" stroke="#040000" stroke-linecap="round" stroke-linejoin="round"/>
<path d="M37.04 14.8C35.8 14.88 34.56 15.06 33.34 15.33C32.02 15.63 30.73 16.03 29.47 16.54C26.8 17.64 24.32 19.24 22.21 21.24C20.12 23.22 18.4 25.58 17.16 28.15C16.59 29.34 16.12 30.57 15.75 31.84C15.42 32.99 15.16 34.16 15.01 35.35" stroke="#040000" stroke-linecap="round" stroke-linejoin="round"/>
<path d="M147.89 35.36C147.73 34.18 147.48 33 147.15 31.85C146.78 30.59 146.31 29.35 145.74 28.16C144.5 25.58 142.78 23.22 140.69 21.25C138.58 19.25 136.1 17.65 133.43 16.55C132.18 16.04 130.88 15.63 129.56 15.34C128.34 15.07 127.11 14.89 125.86 14.81" stroke="#040000" stroke-linecap="round" stroke-linejoin="round"/>
<path d="M63.53 311.39C74.36 316.92 88.69 316.92 99.38 311.39" stroke="#808080" stroke-width="0.25" stroke-miterlimit="10"/>
<path d="M118.96 311.97C124.16 304.55 127.21 295.51 127.21 285.75C127.21 281.05 126.5 276.52 125.18 272.25C121.26 251.67 103.18 236.1 81.45 236.1C59.72 236.1 41.65 251.66 37.73 272.25C36.41 276.52 35.7 281.05 35.7 285.75C35.7 296.2 39.2 305.83 45.1 313.54" stroke="#808080" stroke-width="0.25" stroke-linecap="round" stroke-linejoin="round"/>
<path d="M133.97 280.64C133.97 309.64 110.46 333.15 81.46 333.15C52.46 333.15 28.95 309.64 28.95 280.64C28.95 251.64 52.46 228.13 81.46 228.13C110.46 228.13 133.97 251.64 133.97 280.64Z" stroke="black" stroke-width="0.25" stroke-linecap="round" stroke-linejoin="round"/>
<path d="M83.3221 329.736C110.436 328.699 131.576 305.879 130.539 278.765C129.502 251.651 106.681 230.511 79.5673 231.548C52.4534 232.585 31.3137 255.406 32.3506 282.52C33.3875 309.634 56.2082 330.773 83.3221 329.736Z" stroke="black" stroke-width="0.5" stroke-miterlimit="10"/>
<path d="M108.9 313.18C110.24 312.28 110.88 311.78 111.2 311.16C115.49 303.06 114.99 291.05 111.71 285.22V274.4C108.99 260.14 96.47 249.35 81.42 249.35H81.49C66.43 249.35 53.91 260.13 51.2 274.4V285.22C47.92 291.05 47.42 303.06 51.71 311.16C52.04 311.78 52.67 312.28 54.01 313.18C69.14 322.02 94.32 322.23 108.89 313.18H108.9Z" stroke="#808080" stroke-width="0.25" stroke-linecap="round" stroke-linejoin="round"/>
<path d="M64.04 317.66C59.2 317.66 57.58 317.61 55.76 316.46C54.19 315.47 53.67 314.45 53.67 313.09L52.51 267.61C52.51 265.09 54.14 263.31 56.96 263.31H105.97C108.79 263.31 110.42 265.09 110.42 267.61L109.26 313.09C109.26 314.46 108.74 315.47 107.17 316.46C105.35 317.61 103.73 317.66 98.89 317.66H64.05H64.04Z" stroke="black" stroke-width="0.5" stroke-miterlimit="10"/>
<path d="M63.76 310.88V294.39H99.16V310.97L94.48 312.05H68.49L63.76 310.88Z" fill="url(#paint0_linear_607_2379)"/>
<path d="M53.31 287.23C57.44 283.77 72.52 278.5 80.94 278.5H81.98C90.4 278.5 105.48 283.78 109.61 287.23" stroke="black" stroke-width="0.5" stroke-linecap="round" stroke-linejoin="round"/>
<path d="M56.64 308.36C57.68 309.16 60.18 310.15 63.53 310.89C72.38 314.28 90.72 314.28 99.38 310.89C102.73 310.15 105.23 309.16 106.27 308.36" stroke="black" stroke-width="0.5" stroke-miterlimit="10"/>
<path d="M106.28 308.36C106.65 308.08 106.87 307.47 106.92 306.83C107.33 302.37 106.33 291.84 105.36 289.03C104.82 287.46 101.91 285.6 99.29 284.88C93.6 283.32 87.81 282.37 81.98 282.37H80.94C75.11 282.37 69.32 283.32 63.63 284.88C61.01 285.6 58.1 287.46 57.56 289.03C56.58 291.84 55.59 302.37 56 306.83C56.06 307.48 56.27 308.08 56.64 308.36" stroke="black" stroke-width="0.5" stroke-linecap="round" stroke-linejoin="round"/>
<path d="M63.76 310.88V294.39H99.16V310.97" stroke="black" stroke-width="0.5" stroke-miterlimit="10"/>
<path d="M94.48 312.05H68.49" stroke="black" stroke-width="0.5" stroke-linecap="round" stroke-linejoin="round"/>
<path d="M62.41 310.38V292.77H100.51V310.44" stroke="black" stroke-width="0.5" stroke-linecap="round" stroke-linejoin="round"/>
<path d="M101.69 309.92V290.64C101.69 289.31 100.25 289.17 98.86 289.53C98.86 289.53 94.42 290.24 92.89 290.24H70.04C68.51 290.24 64.07 289.53 64.07 289.53C62.67 289.17 61.24 289.31 61.24 290.64V309.92" stroke="#808080" stroke-width="0.25" stroke-miterlimit="10"/>
<path d="M70.04 290.24L75.71 289.43C77.78 289.05 84.96 289.16 87.96 289.53L92.89 290.24" stroke="#808080" stroke-width="0.25" stroke-miterlimit="10"/>
<path d="M110.77 391.18C110.77 387.85 109.2 387.18 106.67 387.18C104.14 387.18 103.52 387.96 103.52 388.16V389.09C103.52 389.09 103.6 389.07 103.63 389.06C106.15 388.5 107.86 388.49 108.44 389.01C108.63 389.19 109.06 389.58 109.06 391.21C109.06 392.84 108.73 393.19 108.6 393.32C108.13 393.84 107.05 393.78 106.09 393.72C106.03 393.72 105.98 393.72 105.92 393.72C104.96 393.66 104.96 392.95 104.96 392.52C104.96 392.15 105.08 391.7 105.66 391.7H108.49V390.76C108.49 390.76 108.45 390.75 108.43 390.74C108.07 390.61 106.66 390.41 106.35 390.41C103.61 390.41 103.2 391.69 103.2 392.45C103.2 393.26 103.46 393.91 103.97 394.38C105.01 395.34 106.7 395.24 106.77 395.23C108.08 395.33 109.11 395.01 109.8 394.3C110.95 393.11 110.78 391.26 110.77 391.17" fill="#808080"/>
<path d="M99.43 387.3H98.5C97.46 387.3 96.95 387.8 96.81 387.96C96.25 387.43 95.42 387.3 95.14 387.3H94.28C92.03 387.3 91.79 389.3 91.79 390.17V395.13H93.32V390.17C93.32 389.4 93.48 388.7 94.62 388.7C95.76 388.7 96.04 389.24 96.04 390.17V395.13H97.61V390.17C97.61 389.15 98.03 388.68 98.93 388.68C99.9 388.68 100.33 389.14 100.33 390.17V395.13H101.86V390.17C101.86 387.44 99.85 387.3 99.45 387.3" fill="#808080"/>
<path d="M87.09 393.75H86.76C85.34 393.75 84.48 393.58 84.48 391.23C84.48 388.88 84.98 388.61 86.5 388.61H86.88C88.29 388.61 88.6 388.84 88.6 389.91C88.6 390.45 88.36 390.67 87.8 390.67H85.1V391.79C85.1 391.79 85.15 391.79 85.18 391.8C85.71 391.89 86.67 391.96 87.41 391.96C88.5 391.96 90.33 391.7 90.33 389.94C90.33 387.64 88.53 387.15 87.02 387.15H86.78C83.85 387.15 82.75 388.25 82.75 391.21C82.75 394.17 83.87 395.21 86.6 395.21H86.81C88.54 395.21 90 394.75 90 394.22V393.28C90 393.28 89.92 393.3 89.88 393.31C88.87 393.58 88.09 393.73 87.07 393.73" fill="#808080"/>
<path d="M82.14 387.33C81.7 387.26 80.73 387.17 80.21 387.17C79.27 387.17 77.7 387.55 77.7 390.1V395.12H79.38V390.21C79.38 388.86 79.62 388.72 80.69 388.72H82.23V387.34C82.23 387.34 82.18 387.34 82.15 387.33" fill="#808080"/>
<path d="M73.11 387.17H72.87C69.94 387.17 68.85 388.27 68.85 391.23V395.12H70.56V391.24C70.56 388.99 71.06 388.61 72.57 388.61H72.95C74.41 388.61 74.67 389.14 74.67 390.17C74.67 390.79 74.46 391.45 73.87 391.45H71.17V392.58C71.17 392.58 71.22 392.58 71.25 392.59C71.79 392.68 72.75 392.75 73.48 392.75C75.9 392.75 76.41 391.37 76.41 390.21C76.41 388.3 75.17 387.16 73.1 387.16" fill="#808080"/>
<path d="M56.74 390.35C56.16 390.28 55.57 390.21 54.99 390.14C54.57 390.07 54.2 389.97 54.2 389.52C54.2 388.81 54.41 388.61 55.84 388.61H56.2C57.03 388.61 57.82 388.73 58.78 388.99C58.82 388.99 58.86 389.01 58.9 389.02V387.92C58.9 387.92 58.9 387.91 58.9 387.9C58.76 387.62 57.44 387.16 56.15 387.16H55.79C53.62 387.16 52.57 387.96 52.57 389.62C52.57 391.28 53.9 391.55 55.16 391.75C55.42 391.79 55.68 391.83 55.94 391.86C56.51 391.93 56.87 391.98 57.04 392.06C57.37 392.2 57.56 392.28 57.56 392.84C57.56 393.72 56.96 393.81 55.69 393.81H55.33C54.58 393.81 53.67 393.6 52.71 393.2C52.67 393.19 52.62 393.17 52.58 393.15V394.23C52.58 394.67 53.9 395.22 55.39 395.22H55.72C58.15 395.22 59.27 394.4 59.27 392.65C59.27 390.9 58.01 390.53 56.78 390.34" fill="#808080"/>
<path d="M65.65 387.5C65.65 389.1 65.65 390.7 65.65 392.3C65.65 392.62 65.65 393.09 65.39 393.35C65.21 393.53 64.91 393.62 64.51 393.62H63.23C63.01 393.62 62.65 393.62 62.39 393.36C62.18 393.15 62.07 392.79 62.07 392.3V387.5H60.47V392.33C60.47 392.81 60.58 395.21 62.85 395.21H64.96C65.82 395.21 67.26 394.84 67.26 392.33V387.5H65.65Z" fill="#808080"/>
<path d="M82.36 118.42C81.18 117.61 80 116.79 78.82 115.98C78.25 115.58 77.86 114.98 77.74 114.3C77.62 113.62 77.76 112.92 78.16 112.34C78.98 111.15 80.6 110.85 81.79 111.67C84.05 113.23 86.31 114.79 88.57 116.35C88.86 116.55 88.93 116.94 88.73 117.23C88.53 117.52 88.14 117.59 87.85 117.39C85.59 115.83 83.33 114.27 81.07 112.71C80.46 112.29 79.62 112.44 79.2 113.05C79 113.35 78.92 113.71 78.99 114.06C79.05 114.41 79.25 114.72 79.55 114.92C80.81 115.79 82.07 116.66 83.34 117.53C83.51 117.64 83.61 117.83 83.61 118.04C83.63 118.62 83.81 119.39 83.99 119.93C84.19 120.54 84.46 121.13 84.8 121.69C85.47 122.81 86.36 123.74 87.42 124.49C87.71 124.69 87.77 125.09 87.57 125.37C87.45 125.54 87.26 125.64 87.05 125.64C86.92 125.64 86.79 125.6 86.68 125.52C85.5 124.69 84.51 123.65 83.75 122.42C83.03 121.23 82.49 119.78 82.35 118.39L82.36 118.42Z" fill="#4C4948"/>
<path d="M78.06 126.23C77.45 126.23 76.89 125.9 76.59 125.37C73.87 120.52 71.14 115.66 68.42 110.81C68.2 110.42 68.15 109.96 68.27 109.53C68.39 109.1 68.68 108.73 69.07 108.51C71.88 106.93 74.69 105.34 77.5 103.76C77.89 103.54 78.35 103.49 78.78 103.61C79.22 103.73 79.57 104.02 79.8 104.41C81.05 106.63 82.3 108.86 83.55 111.09C83.63 111.24 83.65 111.41 83.61 111.57C83.56 111.73 83.46 111.87 83.31 111.95C83 112.12 82.62 112.01 82.45 111.71C81.2 109.48 79.95 107.26 78.7 105.03C78.65 104.93 78.55 104.86 78.45 104.83C78.34 104.8 78.23 104.81 78.13 104.87C75.32 106.45 72.51 108.03 69.7 109.62C69.6 109.68 69.53 109.77 69.5 109.88C69.47 109.99 69.48 110.1 69.54 110.2C72.26 115.05 74.98 119.91 77.71 124.76C77.82 124.96 78.08 125.04 78.28 124.92C79.68 124.12 81.07 123.32 82.47 122.52C82.77 122.35 83.16 122.45 83.33 122.75C83.41 122.9 83.44 123.07 83.39 123.23C83.35 123.39 83.24 123.53 83.09 123.61C81.69 124.41 80.3 125.21 78.9 126.01C78.65 126.15 78.36 126.23 78.07 126.23H78.06Z" fill="#4C4948"/>
<path d="M85.72 109.16C84.96 109.3 84.2 109.44 83.44 109.58C83.1 109.64 82.77 109.42 82.7 109.07C82.67 108.9 82.7 108.73 82.8 108.6C82.9 108.46 83.04 108.37 83.21 108.34C84.07 108.18 84.94 108.02 85.8 107.86C86 107.82 86.2 107.88 86.35 108.02C88.95 110.49 91.55 112.95 94.14 115.42C94.22 115.5 94.28 115.6 94.31 115.71C94.69 117.04 94.76 118.93 94.66 120.3C94.55 121.84 94.21 123.36 93.65 124.8C93.56 125.04 93.32 125.2 93.06 125.2C92.98 125.2 92.9 125.18 92.83 125.16C92.67 125.1 92.55 124.98 92.48 124.82C92.41 124.67 92.41 124.49 92.48 124.34C93.43 121.88 93.74 118.8 93.14 116.22C90.67 113.87 88.19 111.52 85.72 109.17V109.16Z" fill="#4C4948"/>
</g>
<defs>
<linearGradient id="paint0_linear_607_2379" x1="76.75" y1="315.61" x2="86.19" y2="289.67" gradientUnits="userSpaceOnUse">
<stop stop-color="#BFBFBF"/>
<stop offset="0.12" stop-color="#C2C2C2"/>
<stop offset="0.23" stop-color="#CECECE"/>
<stop offset="0.34" stop-color="#E0E0E0"/>
<stop offset="0.44" stop-color="#FBFBFB"/>
<stop offset="0.45" stop-color="white"/>
<stop offset="0.46" stop-color="#D4D4D4"/>
<stop offset="0.47" stop-color="#CDCDCD"/>
<stop offset="0.48" stop-color="#CCCCCC"/>
<stop offset="1" stop-color="white"/>
</linearGradient>
<clipPath id="clip0_607_2379">
<rect width="162.92" height="491.46" fill="white"/>
</clipPath>
</defs>
</svg>
