<svg width="200" height="204" viewBox="0 0 200 204" fill="none" xmlns="http://www.w3.org/2000/svg">
<g clip-path="url(#clip0_81_3)">
<path d="M200 0H0V204H200V0Z" fill="white"/>
<path d="M165.803 13.3618H34.1967C22.6944 13.3618 13.37 22.6804 13.37 34.1756V169.809C13.37 181.304 22.6944 190.623 34.1967 190.623H165.803C177.306 190.623 186.63 181.304 186.63 169.809V34.1756C186.63 22.6804 177.306 13.3618 165.803 13.3618Z" fill="white"/>
<path d="M135.824 100.374V109.261" stroke="#B3B3B3" stroke-width="0.25"/>
<path d="M160.822 100.374V109.261" stroke="#B3B3B3" stroke-width="0.25"/>
<path d="M167.912 97.5486L164.657 98.8466C163.206 99.4269 160.654 99.9003 158.973 99.9003H137.703C136.023 99.9003 133.471 99.4269 132.019 98.8466L128.765 97.5486" stroke="#B3B3B3" stroke-width="0.25"/>
<path d="M102.789 32.786H31.0948C30.3944 32.786 29.8266 33.3534 29.8266 34.0534V87.47C29.8266 88.17 30.3944 88.7375 31.0948 88.7375H102.789C103.489 88.7375 104.057 88.17 104.057 87.47V34.0534C104.057 33.3534 103.489 32.786 102.789 32.786Z" fill="url(#paint0_linear_81_3)"/>
<path d="M186.63 156.967C186.63 168.435 177.294 177.78 165.803 177.78H34.1967C22.7214 177.78 13.37 168.45 13.37 156.967" stroke="black" stroke-width="0.1" stroke-miterlimit="10"/>
<path d="M165.803 13.3618H34.1967C22.6944 13.3618 13.37 22.6804 13.37 34.1756V169.809C13.37 181.304 22.6944 190.623 34.1967 190.623H165.803C177.306 190.623 186.63 181.304 186.63 169.809V34.1756C186.63 22.6804 177.306 13.3618 165.803 13.3618Z" stroke="black" stroke-width="0.5" stroke-linecap="round" stroke-linejoin="round"/>
<path d="M165.819 15.6982H34.1967C23.9856 15.6982 15.7078 23.9708 15.7078 34.1756V156.982C15.7078 167.187 23.9856 175.459 34.1967 175.459H165.819C176.03 175.459 184.307 167.187 184.307 156.982V34.1756C184.307 23.9708 176.03 15.6982 165.819 15.6982Z" stroke="black" stroke-width="0.25" stroke-linecap="round" stroke-linejoin="round"/>
<path d="M145.542 72.795H146.23C146.23 72.795 146.291 72.795 146.321 72.8255C146.963 73.4669 147.605 74.1082 148.247 74.7496C148.308 74.8107 148.369 74.8107 148.43 74.7496C149.072 74.1082 149.714 73.4669 150.355 72.8255C150.386 72.795 150.401 72.795 150.447 72.795H151.135C151.135 72.795 151.226 72.8561 151.18 72.9019C150.34 73.7418 149.515 74.5664 148.69 75.4062C148.644 75.4521 148.583 75.4826 148.506 75.4826H148.186C148.186 75.4826 148.063 75.4673 148.002 75.4062C147.162 74.5664 146.337 73.7418 145.496 72.9019C145.45 72.8561 145.466 72.795 145.542 72.795Z" fill="black"/>
<path d="M151.119 38.8637H150.432C150.432 38.8637 150.371 38.8637 150.34 38.8179C149.698 38.1765 149.056 37.5351 148.415 36.8938C148.354 36.8327 148.292 36.8327 148.231 36.8938C147.59 37.5351 146.948 38.1765 146.306 38.8179C146.276 38.8484 146.26 38.8637 146.214 38.8637H145.527C145.527 38.8637 145.435 38.8026 145.481 38.7568C146.321 37.9169 147.146 37.0923 147.987 36.2677C148.033 36.2219 148.094 36.1913 148.17 36.1913H148.491C148.491 36.1913 148.613 36.2066 148.674 36.2677C149.5 37.1076 150.34 37.9322 151.165 38.7568C151.211 38.8026 151.196 38.8637 151.119 38.8637Z" fill="black"/>
<path d="M146.795 54.0121C145.542 54.0121 145.16 54.9589 145.16 55.8751C145.16 56.7914 145.588 57.6618 146.719 57.6618C147.987 57.6465 148.338 56.7303 148.338 55.8293C148.338 54.9284 147.987 54.0274 146.78 54.0274L146.795 54.0121ZM146.795 57.219C146.077 57.219 145.802 56.5623 145.771 55.8751C145.741 55.188 145.97 54.4702 146.764 54.455C147.528 54.455 147.773 55.1269 147.788 55.8141C147.788 56.5012 147.59 57.1884 146.795 57.219Z" fill="black"/>
<path d="M150.187 55.5239L151.379 54.0579H150.707L149.484 55.6766V54.0579H148.934V57.616H149.484V56.3638L149.836 55.9362L150.905 57.616H151.517L150.187 55.5239Z" fill="black"/>
<path d="M165.299 53.0348C165.299 53.0348 165.36 52.9432 165.406 52.989C166.231 53.8136 167.072 54.6535 167.897 55.4781C167.958 55.5239 167.973 55.585 167.973 55.6614V55.982C167.973 55.982 167.958 56.1042 167.897 56.1653C167.072 56.9899 166.231 57.8298 165.406 58.6544C165.36 58.7002 165.299 58.6849 165.299 58.6086V57.9214C165.299 57.9214 165.299 57.8603 165.33 57.8298C165.971 57.1884 166.613 56.547 167.255 55.9057C167.316 55.8446 167.316 55.7835 167.255 55.7224C166.613 55.0811 165.971 54.4397 165.33 53.7983C165.299 53.7678 165.299 53.7373 165.299 53.7067V53.0195V53.0348Z" fill="black"/>
<path d="M134.525 83.9272C134.525 83.3011 135.029 82.7819 135.671 82.7819H161.005C161.632 82.7819 162.151 83.2859 162.151 83.9272C162.151 84.5686 161.647 85.0725 161.005 85.0725H135.671C135.045 85.0725 134.525 84.5686 134.525 83.9272Z" stroke="black" stroke-width="0.25"/>
<path d="M128.673 55.6614C128.673 55.6614 128.688 55.5392 128.749 55.4781C129.574 54.6535 130.415 53.8136 131.24 52.989C131.286 52.9432 131.347 52.9585 131.347 53.0348V53.722C131.347 53.722 131.347 53.7831 131.316 53.8136C130.675 54.455 130.033 55.0963 129.391 55.7377C129.33 55.7988 129.33 55.8599 129.391 55.9209C130.033 56.5623 130.675 57.2037 131.316 57.845C131.347 57.8756 131.347 57.8909 131.347 57.9367V58.6238C131.347 58.6238 131.286 58.7155 131.24 58.6697C130.415 57.8298 129.574 57.0052 128.749 56.1806C128.688 56.1347 128.673 56.0737 128.673 55.9973V55.6766V55.6614Z" fill="black"/>
<path d="M95.0875 106.818V103.947L94.5068 104.207L94.3846 103.794L95.1486 103.413H95.6376V106.818H95.0875Z" fill="black"/>
<path d="M93.5442 105.306H92.2301V106.818H91.6953V103.29H93.6359V103.764H92.2301V104.833H93.5595L93.5442 105.306Z" fill="black"/>
<path d="M94.568 125.372H95.989V125.83H93.7887V125.494C93.9109 125.372 94.0179 125.265 94.1401 125.143C94.354 124.929 94.5527 124.73 94.7666 124.517C94.9347 124.349 95.1028 124.165 95.2097 123.951C95.3014 123.784 95.3625 123.616 95.3625 123.417C95.3625 123.28 95.332 123.142 95.2556 123.051C95.2097 122.989 95.1333 122.928 95.0569 122.898C94.95 122.852 94.8277 122.837 94.7208 122.837C94.5527 122.837 94.3846 122.883 94.2471 122.959C94.1707 123.005 94.0943 123.051 94.0332 123.112C93.972 122.974 93.9109 122.852 93.8345 122.73C93.8804 122.684 93.9262 122.654 93.972 122.623C94.2318 122.44 94.5527 122.363 94.8888 122.379C95.0875 122.379 95.2861 122.424 95.4542 122.516C95.6528 122.638 95.8209 122.837 95.8973 123.066C95.989 123.371 95.9279 123.707 95.7904 123.997C95.6834 124.196 95.5459 124.379 95.4084 124.547C95.2556 124.73 95.0722 124.898 94.9041 125.066C94.8124 125.158 94.7055 125.265 94.5985 125.356" fill="black"/>
<path d="M91.894 124.303V125.83H91.3592V122.302H93.2997V122.776H91.894V123.845H93.2233L93.208 124.303H91.894Z" fill="black"/>
<path d="M95.2403 142.948C95.2403 142.948 95.3472 142.979 95.3931 142.994C95.5612 143.055 95.6987 143.177 95.8056 143.315C95.8973 143.452 95.9432 143.635 95.9432 143.803C95.9432 144.078 95.8056 144.338 95.6223 144.521C95.3931 144.735 95.0569 144.811 94.736 144.826C94.4304 144.826 94.1401 144.796 93.8956 144.658C93.8651 144.643 93.8192 144.613 93.7887 144.582C93.8498 144.445 93.8956 144.307 93.9568 144.17C94.079 144.246 94.2012 144.292 94.3388 144.338C94.568 144.399 94.8277 144.429 95.0416 144.322C95.225 144.231 95.3625 144.032 95.3778 143.819C95.3778 143.605 95.2556 143.391 95.0875 143.284C94.9347 143.192 94.7666 143.162 94.5832 143.162C94.5221 143.162 94.461 143.162 94.3846 143.162V142.734C94.3846 142.734 94.4304 142.734 94.461 142.734H94.5832C94.7666 142.734 94.9805 142.689 95.118 142.566C95.225 142.475 95.2861 142.353 95.2861 142.215C95.2861 142.124 95.2708 142.047 95.225 141.971C95.1333 141.818 94.9194 141.757 94.736 141.757C94.4916 141.757 94.2624 141.849 94.0637 141.971C94.0179 141.849 93.9568 141.711 93.9109 141.589C93.9873 141.543 94.0026 141.528 94.0179 141.513C94.3235 141.314 94.7208 141.268 95.0875 141.329C95.2861 141.36 95.4695 141.436 95.5917 141.559C95.7445 141.696 95.8362 141.91 95.8362 142.124C95.8362 142.307 95.7751 142.49 95.6681 142.627C95.5764 142.75 95.4389 142.841 95.2403 142.918" fill="black"/>
<path d="M93.3303 141.726H91.9245V142.795H93.2539V143.269H91.9245V144.781H91.405V141.268H93.3303V141.726Z" fill="black"/>
<path d="M95.6376 162.479V160.372H94.9958L93.5748 162.464V162.876H95.0875V163.793H95.6376V162.876H96.0501V162.479H95.6376ZM95.0875 162.479H94.0943L95.0875 160.967V162.479Z" fill="black"/>
<path d="M91.298 163.793H91.8176V162.265H93.1469V161.807H91.8176V160.723H93.2386V160.265H91.298V163.793Z" fill="black"/>
<path d="M76.2472 104.909C76.2472 104.909 76.3695 104.94 76.4306 104.97C76.614 105.046 76.782 105.169 76.9043 105.337C77.0112 105.505 77.0724 105.703 77.0724 105.902C77.0724 106.207 76.9196 106.528 76.7056 106.726C76.4459 106.971 76.0639 107.062 75.6972 107.077C75.361 107.077 75.0248 107.047 74.7345 106.879C74.6887 106.848 74.6428 106.833 74.6123 106.803C74.6734 106.65 74.7345 106.497 74.8109 106.329C74.9484 106.406 75.086 106.467 75.254 106.512C75.5138 106.589 75.8041 106.619 76.0486 106.482C76.2472 106.375 76.4153 106.146 76.4306 105.917C76.4306 105.673 76.2931 105.428 76.0944 105.306C75.9264 105.199 75.7277 105.169 75.5291 105.169C75.4527 105.169 75.3763 105.169 75.3152 105.169V104.68C75.3152 104.68 75.361 104.68 75.3916 104.68H75.5291C75.743 104.68 75.9875 104.634 76.1556 104.497C76.2625 104.39 76.3389 104.252 76.3542 104.1C76.3542 103.993 76.3389 103.901 76.2778 103.825C76.1708 103.657 75.9264 103.581 75.7124 103.581C75.4221 103.581 75.1776 103.687 74.9332 103.825C74.872 103.672 74.8109 103.535 74.7498 103.382C74.8262 103.321 74.8568 103.306 74.872 103.29C75.2235 103.061 75.6819 103 76.0944 103.092C76.3084 103.138 76.5223 103.214 76.6751 103.367C76.8432 103.535 76.9501 103.779 76.9654 104.008C76.9654 104.222 76.9043 104.42 76.782 104.573C76.6751 104.711 76.5223 104.817 76.2931 104.909" fill="black"/>
<path d="M76.8126 123.707C76.5681 123.493 76.2014 123.402 75.8958 123.417C75.5749 123.448 75.3304 123.6 75.1471 123.814C75.3304 122.974 75.8805 122.562 76.8126 122.562V122.058C76.6904 122.058 76.5681 122.058 76.4459 122.088C75.9722 122.15 75.4985 122.333 75.1471 122.669C74.6887 123.096 74.4747 123.784 74.49 124.44C74.49 124.883 74.6123 125.326 74.8873 125.631C75.1165 125.906 75.4679 126.074 75.8499 126.074C76.2014 126.074 76.5834 125.921 76.8279 125.662C77.0723 125.402 77.1793 125.051 77.1793 124.669C77.1793 124.318 77.0876 123.936 76.8126 123.707ZM76.3695 125.326C76.2472 125.494 76.0944 125.585 75.8805 125.585C75.636 125.585 75.4374 125.479 75.2999 125.28C75.1776 125.097 75.1165 124.852 75.1165 124.578C75.1165 124.501 75.1165 124.41 75.1623 124.349C75.2999 124.058 75.5291 123.921 75.8347 123.921C76.0486 123.921 76.2167 123.997 76.3542 124.15C76.4764 124.303 76.5376 124.501 76.5376 124.746C76.5376 124.99 76.4764 125.188 76.3695 125.341V125.326Z" fill="black"/>
<path d="M76.8126 141.513C76.7056 141.36 76.5528 141.238 76.3848 141.161C76.0486 140.994 75.6208 141.009 75.2846 141.161C75.0248 141.284 74.8109 141.482 74.6734 141.726C74.5206 142.017 74.4595 142.353 74.5206 142.689C74.597 143.024 74.8109 143.33 75.1165 143.498C75.4068 143.651 75.7736 143.666 76.0792 143.528C76.232 143.467 76.3695 143.36 76.4917 143.238C76.4917 143.33 76.4612 143.406 76.4306 143.498C76.3542 143.757 76.2014 144.002 75.9875 144.17C75.743 144.384 75.4068 144.49 75.0859 144.506C74.9943 144.506 74.9026 144.506 74.7956 144.506C74.7956 144.674 74.7956 144.857 74.7803 145.025C74.9637 145.025 75.1012 145.025 75.254 145.025C75.743 144.979 76.2319 144.75 76.5528 144.384C76.9654 143.941 77.1182 143.315 77.1182 142.689C77.1182 142.261 77.0265 141.833 76.782 141.513H76.8126ZM76.4612 142.78C76.4153 142.887 76.3084 142.979 76.1861 143.04C75.9875 143.147 75.7277 143.162 75.5443 143.086C75.4068 143.024 75.2999 142.902 75.2388 142.765C75.1624 142.597 75.1318 142.398 75.1471 142.215C75.1624 142.017 75.2235 141.818 75.3763 141.681C75.4832 141.589 75.6513 141.513 75.8041 141.513C76.018 141.513 76.232 141.635 76.3542 141.818C76.4764 142.001 76.507 142.23 76.507 142.459C76.507 142.582 76.507 142.689 76.4612 142.78Z" fill="black"/>
<path d="M76.6292 162.128C76.6292 161.823 76.6598 161.563 76.7515 161.334C76.8584 161.044 77.0571 160.799 77.3016 160.631C77.5308 160.479 77.7905 160.402 78.0656 160.402C78.1267 160.402 78.2031 160.402 78.2642 160.402C78.417 160.418 78.5545 160.464 78.692 160.54H78.7073V160.57L78.6462 160.799L78.5851 160.998V161.029L78.5545 161.013C78.4628 160.967 78.3712 160.937 78.2642 160.906C78.1878 160.906 78.1267 160.891 78.0503 160.891C77.9128 160.891 77.7905 160.922 77.6836 160.967C77.5308 161.044 77.3932 161.166 77.3168 161.334C77.2251 161.487 77.1793 161.685 77.164 161.929C77.1488 162.235 77.164 162.479 77.271 162.678C77.3474 162.846 77.4696 162.983 77.6224 163.06C77.7447 163.136 77.8975 163.166 78.0503 163.166C78.1114 163.166 78.1878 163.166 78.2642 163.151C78.3712 163.136 78.4781 163.105 78.5698 163.06H78.6004V163.044V163.09V163.121C78.6309 163.243 78.6615 163.35 78.6768 163.457V163.487H78.6615C78.524 163.548 78.3712 163.579 78.2031 163.609C78.1114 163.609 78.0197 163.625 77.928 163.625C77.6988 163.625 77.5002 163.579 77.3321 163.487C77.1029 163.365 76.9043 163.151 76.782 162.892C76.6751 162.678 76.6292 162.403 76.6292 162.082" fill="black"/>
<path d="M74.7192 163.457V163.426C74.7651 163.289 74.7956 163.151 74.8415 163.014V162.983L74.8568 162.968L74.8873 162.998C74.9179 163.014 74.9484 163.044 74.979 163.06C75.1318 163.136 75.2846 163.182 75.468 163.182C75.636 163.182 75.743 163.136 75.8194 163.06C75.8958 162.983 75.9416 162.861 75.9416 162.754C75.9416 162.678 75.9416 162.586 75.8958 162.525C75.85 162.449 75.7888 162.388 75.6819 162.327C75.6055 162.281 75.5444 162.25 75.468 162.22C75.4221 162.204 75.3763 162.174 75.3304 162.159C75.1012 162.052 74.9484 161.899 74.8568 161.731C74.7956 161.609 74.7498 161.456 74.7498 161.288C74.7498 161.12 74.7956 160.952 74.872 160.799C74.9484 160.662 75.0554 160.555 75.1929 160.479C75.3304 160.402 75.4985 160.357 75.7124 160.357H75.7277C75.8652 160.357 75.9722 160.372 76.0792 160.402C76.1708 160.433 76.2625 160.479 76.3389 160.525H76.3542V160.54V160.57L76.2931 160.738L76.232 160.937V160.983L76.2167 160.998L76.1861 160.967C76.0486 160.891 75.8958 160.845 75.7124 160.845H75.6819C75.5749 160.845 75.4221 160.861 75.3457 160.967C75.2999 161.029 75.2693 161.12 75.2846 161.227C75.2846 161.334 75.3152 161.441 75.361 161.502C75.4221 161.594 75.5291 161.639 75.6208 161.685C75.6972 161.716 75.7583 161.746 75.8194 161.777C75.9569 161.853 76.1403 161.96 76.2625 162.128C76.3695 162.281 76.4306 162.495 76.4306 162.693C76.4306 162.953 76.3389 163.197 76.1861 163.38C75.9722 163.625 75.6666 163.67 75.4374 163.67H75.4221C75.1624 163.67 74.9179 163.594 74.6887 163.457H74.6734V163.441L74.7192 163.457Z" fill="black"/>
<path d="M72.9009 160.448H72.9162H72.9468H74.3983H74.4289V160.479V160.891V160.922V160.937H74.3983H73.3746V161.792H74.3372H74.3678V161.807V161.823V162.235V162.265V162.281H74.3372H73.3746V163.121H74.4748H74.5053H74.5206V163.136V163.166V163.563V163.594V163.609H74.5053H74.4748H72.9468H72.9162H72.9009V163.594V163.563V160.479V160.448Z" fill="black"/>
<path d="M58.0946 160.021C57.0403 160.021 56.7194 161.059 56.7347 162.067C56.7347 163.06 57.0861 164.022 58.0487 164.022C59.1183 163.991 59.4087 162.998 59.4087 162.006C59.4087 161.013 59.1183 160.021 58.0946 160.021ZM58.0793 163.548C57.5751 163.548 57.3917 162.83 57.3764 162.067C57.3611 161.303 57.5139 160.525 58.064 160.509C58.5988 160.509 58.7516 161.242 58.7669 162.006C58.7669 162.754 58.6294 163.518 58.0793 163.548Z" fill="black"/>
<path d="M58.6752 142.918C59.0725 142.673 59.2711 142.383 59.2711 142.017C59.2711 140.673 56.8722 140.764 56.8722 142.093C56.8722 142.49 57.0861 142.78 57.4987 142.963C56.9944 143.177 56.7347 143.513 56.7347 144.002C56.7347 145.422 59.4087 145.422 59.4087 144.002C59.4087 143.483 59.1642 143.131 58.6752 142.933V142.918ZM57.4834 142.139C57.4375 141.818 57.6973 141.528 58.0182 141.513C58.8127 141.436 58.8586 142.429 58.1404 142.704C57.8195 142.612 57.5445 142.551 57.4834 142.139ZM58.5377 144.384C58.5377 144.384 58.3849 144.506 58.2932 144.536C58.2015 144.567 58.1099 144.582 58.0029 144.567C57.5751 144.506 57.3764 144.185 57.3764 143.88C57.3764 143.605 57.5292 143.33 57.9723 143.162C58.0182 143.162 58.0487 143.192 58.0946 143.192C58.2321 143.238 58.3849 143.284 58.4919 143.391C58.6294 143.498 58.7363 143.666 58.7516 143.849C58.7669 144.048 58.6905 144.246 58.5377 144.384Z" fill="black"/>
<path d="M57.7126 106.512H59.3323V107.047H56.8111V106.665C56.9486 106.528 57.0708 106.406 57.2083 106.268C57.4528 106.024 57.682 105.795 57.9265 105.55C58.1251 105.352 58.3085 105.138 58.446 104.894C58.553 104.711 58.6141 104.497 58.6141 104.283C58.6141 104.13 58.5835 103.978 58.5071 103.855C58.446 103.779 58.3696 103.718 58.2779 103.687C58.1557 103.626 58.0182 103.611 57.8959 103.626C57.7126 103.626 57.5139 103.687 57.3459 103.764C57.2542 103.81 57.1778 103.871 57.0861 103.932C57.0097 103.779 56.9333 103.642 56.8569 103.489C56.9027 103.443 56.9639 103.397 57.0097 103.367C57.3 103.168 57.682 103.077 58.0487 103.077C58.2779 103.077 58.5071 103.122 58.6905 103.245C58.9197 103.382 59.1031 103.611 59.1947 103.871C59.3017 104.222 59.2253 104.604 59.0725 104.94C58.9503 105.169 58.7975 105.382 58.6294 105.566C58.446 105.779 58.2474 105.978 58.0487 106.161C57.9418 106.268 57.8195 106.375 57.6973 106.497" fill="black"/>
<path d="M57.6362 123.493C57.7279 123.493 57.8195 123.493 57.9112 123.493C58.2474 123.493 58.5377 123.57 58.7822 123.722C59.1183 123.936 59.2864 124.272 59.2864 124.715C59.2864 125.097 59.1489 125.417 58.8739 125.662C58.5988 125.921 58.2474 126.044 57.8043 126.044C57.407 126.044 57.0861 125.967 56.8263 125.815C56.8722 125.647 56.918 125.494 56.9639 125.326C57.2236 125.463 57.4834 125.54 57.789 125.54C58.8891 125.54 59.0572 123.967 57.5598 123.967C57.3917 123.967 57.2083 123.967 57.0403 123.967C57.1167 123.341 57.1778 122.715 57.2542 122.088H59.1947V122.623H57.7126C57.682 122.913 57.6515 123.203 57.6209 123.493" fill="black"/>
<path d="M41.1796 124.517V122.119H40.4462L38.8265 124.501V124.975H40.5684V126.013H41.1949V124.975H41.6686V124.517H41.1949H41.1796ZM40.5684 124.517H39.4377L40.5684 122.791V124.517Z" fill="black"/>
<path d="M40.3392 107.001V103.733L39.6516 104.008L39.5141 103.55L40.4003 103.107H40.9657V107.001H40.3392Z" fill="black"/>
<path d="M40.8129 141.635H38.9946V141.1H41.5005V141.513L39.9267 144.994H39.2238L40.8129 141.635Z" fill="black"/>
<path d="M102.789 32.786H31.0948C30.3944 32.786 29.8266 33.3534 29.8266 34.0534V87.47C29.8266 88.17 30.3944 88.7375 31.0948 88.7375H102.789C103.489 88.7375 104.057 88.17 104.057 87.47V34.0534C104.057 33.3534 103.489 32.786 102.789 32.786Z" stroke="black" stroke-width="0.25" stroke-linecap="round" stroke-linejoin="round"/>
<path d="M164.55 158.662C164.55 156.814 163.679 156.432 162.274 156.432C160.868 156.432 160.516 156.86 160.516 156.982V157.501C160.516 157.501 160.562 157.501 160.578 157.501C161.983 157.196 162.931 157.18 163.252 157.47C163.359 157.577 163.588 157.791 163.588 158.692C163.588 159.593 163.404 159.792 163.328 159.868C163.068 160.158 162.457 160.128 161.938 160.097C161.907 160.097 161.876 160.097 161.846 160.097C161.311 160.066 161.311 159.669 161.311 159.425C161.311 159.211 161.372 158.967 161.708 158.967H163.282V158.448C163.282 158.448 163.267 158.448 163.252 158.448C163.053 158.371 162.274 158.265 162.09 158.265C160.562 158.265 160.333 158.982 160.333 159.395C160.333 159.853 160.471 160.204 160.761 160.464C161.342 160.998 162.274 160.937 162.32 160.937C163.053 160.998 163.618 160.815 164.016 160.418C164.657 159.761 164.566 158.723 164.55 158.677" fill="#898989"/>
<path d="M158.224 156.493H157.705C157.124 156.493 156.834 156.768 156.758 156.86C156.452 156.57 155.994 156.493 155.826 156.493H155.337C154.084 156.493 153.946 157.608 153.946 158.097V160.861H154.802V158.097C154.802 157.669 154.893 157.272 155.535 157.272C156.177 157.272 156.33 157.577 156.33 158.097V160.861H157.201V158.097C157.201 157.532 157.43 157.272 157.934 157.272C158.469 157.272 158.713 157.532 158.713 158.097V160.861H159.569V158.097C159.569 156.585 158.454 156.493 158.224 156.493Z" fill="#898989"/>
<path d="M151.348 160.097H151.165C150.371 160.097 149.897 160.005 149.897 158.692C149.897 157.379 150.172 157.226 151.028 157.226H151.242C152.036 157.226 152.204 157.348 152.204 157.944C152.204 158.249 152.067 158.371 151.761 158.371H150.264V158.998C150.264 158.998 150.294 158.998 150.309 158.998C150.6 159.043 151.135 159.089 151.562 159.089C152.174 159.089 153.197 158.936 153.197 157.959C153.197 156.676 152.189 156.402 151.348 156.402H151.211C149.576 156.402 148.965 157.012 148.965 158.662C148.965 160.311 149.591 160.891 151.104 160.891H151.226C152.189 160.891 152.999 160.631 152.999 160.341V159.822C152.999 159.822 152.953 159.822 152.938 159.837C152.372 159.99 151.944 160.066 151.364 160.066" fill="#898989"/>
<path d="M148.598 156.508C148.354 156.463 147.819 156.417 147.528 156.417C147.009 156.417 146.123 156.631 146.123 158.051V160.845H147.055V158.112C147.055 157.364 147.192 157.272 147.788 157.272H148.644V156.508C148.644 156.508 148.613 156.508 148.598 156.508Z" fill="#898989"/>
<path d="M143.556 156.432H143.418C141.783 156.432 141.172 157.043 141.172 158.692V160.861H142.119V158.692C142.119 157.44 142.394 157.226 143.235 157.226H143.449C144.259 157.226 144.411 157.516 144.411 158.097C144.411 158.448 144.289 158.814 143.968 158.814H142.471V159.44C142.471 159.44 142.501 159.44 142.517 159.44C142.822 159.486 143.357 159.532 143.754 159.532C145.099 159.532 145.389 158.768 145.389 158.112C145.389 157.043 144.702 156.417 143.54 156.417" fill="#898989"/>
<path d="M134.434 158.203C134.113 158.158 133.776 158.127 133.456 158.081C133.226 158.035 133.012 157.99 133.012 157.745C133.012 157.348 133.119 157.241 133.929 157.241H134.128C134.586 157.241 135.029 157.303 135.564 157.455C135.58 157.455 135.61 157.455 135.625 157.47V156.86C135.549 156.707 134.816 156.447 134.097 156.447H133.899C132.692 156.447 132.096 156.89 132.096 157.822C132.096 158.753 132.844 158.891 133.532 159.013C133.669 159.028 133.822 159.059 133.96 159.074C134.281 159.12 134.479 159.135 134.571 159.181C134.754 159.257 134.861 159.303 134.861 159.608C134.861 160.097 134.525 160.158 133.822 160.158H133.624C133.211 160.158 132.707 160.036 132.157 159.822C132.126 159.822 132.111 159.807 132.08 159.792V160.387C132.08 160.631 132.814 160.937 133.639 160.937H133.822C135.167 160.937 135.809 160.479 135.809 159.501C135.809 158.524 135.106 158.326 134.418 158.219" fill="#898989"/>
<path d="M139.399 156.615C139.399 157.501 139.399 158.402 139.399 159.288C139.399 159.456 139.399 159.731 139.247 159.868C139.14 159.975 138.987 160.021 138.758 160.021H138.04C137.917 160.021 137.719 160.021 137.581 159.883C137.459 159.761 137.398 159.563 137.398 159.288V156.615H136.512V159.303C136.512 159.578 136.573 160.906 137.841 160.906H139.017C139.491 160.906 140.301 160.693 140.301 159.303V156.615H139.399Z" fill="#898989"/>
<path d="M126.091 130.671L130.415 114.667C131.271 111.216 135.106 109.353 139.384 109.353H156.773C161.051 109.353 165.376 111.216 166.231 114.667L170.555 130.671" stroke="#B3B3B3" stroke-width="0.25"/>
<path d="M134.953 129.266L137.214 116.454C137.276 116.072 137.658 115.751 138.055 115.751H158.606C159.004 115.751 159.386 116.072 159.447 116.454L161.708 129.266" stroke="#808080" stroke-width="0.1"/>
<path d="M158.362 116.774L158.958 116.133" stroke="#808080" stroke-width="0.1"/>
<path d="M137.627 116.057L138.299 116.774" stroke="#808080" stroke-width="0.1"/>
<path d="M136.068 115.705L133.196 130.151C133.012 131.327 132.921 132.656 136.557 133.343C139.675 133.938 143.846 135.511 148.323 135.511C152.8 135.511 156.971 133.923 160.089 133.343C163.741 132.656 163.634 131.327 163.45 130.151L160.578 115.705C160.455 114.881 159.691 114.209 158.897 114.209H137.749C136.955 114.209 136.206 114.881 136.068 115.705Z" stroke="black" stroke-width="0.1"/>
<path d="M136.42 130.151H160.241L158.209 116.759H138.437L136.42 130.151Z" fill="url(#paint1_linear_81_3)"/>
<path d="M136.42 130.151H160.241L158.209 116.759H138.437L136.42 130.151Z" stroke="black" stroke-width="0.25"/>
<path d="M134.953 129.266C134.861 129.77 135.32 130.151 135.778 130.151H160.883C161.342 130.151 161.8 129.785 161.708 129.266" stroke="black" stroke-width="0.25" stroke-linecap="round" stroke-linejoin="round"/>
<path d="M132.294 93.4256H164.352C169.058 93.4256 172.893 97.2432 172.893 101.962V134C172.893 138.703 169.073 142.536 164.352 142.536H132.294C127.588 142.536 123.753 138.718 123.753 134V101.962C123.753 97.2585 127.573 93.4256 132.294 93.4256Z" stroke="black" stroke-width="0.1" stroke-linecap="round" stroke-linejoin="round"/>
<path d="M132.294 94.5098H164.352C168.462 94.5098 171.808 97.854 171.808 101.962V134C171.808 138.123 168.462 141.452 164.352 141.452H132.294C128.169 141.452 124.838 138.107 124.838 134V101.962C124.838 97.8388 128.184 94.5098 132.294 94.5098Z" stroke="#808080" stroke-width="0.1" stroke-linecap="round" stroke-linejoin="round"/>
<path d="M132.294 95.762H164.352C167.774 95.762 170.555 98.5412 170.555 101.962V134C170.555 137.42 167.774 140.199 164.352 140.199H132.294C128.872 140.199 126.091 137.42 126.091 134V101.962C126.091 98.5412 128.872 95.762 132.294 95.762Z" stroke="black" stroke-width="0.25" stroke-linecap="round" stroke-linejoin="round"/>
<path d="M138.758 134.412H127.16" stroke="#B3B3B3" stroke-width="0.25"/>
<path d="M169.486 134.412H157.705" stroke="#B3B3B3" stroke-width="0.25"/>
<path d="M38.1542 160.509H42.3256" stroke="black" stroke-width="0.17" stroke-miterlimit="10" stroke-linecap="round"/>
<path d="M38.1542 162.021H42.3256" stroke="black" stroke-width="0.17" stroke-miterlimit="10" stroke-linecap="round"/>
<path d="M38.1542 163.533H42.3256" stroke="black" stroke-width="0.17" stroke-miterlimit="10" stroke-linecap="round"/>
</g>
<defs>
<linearGradient id="paint0_linear_81_3" x1="34.762" y1="92.9216" x2="99.0818" y2="28.5623" gradientUnits="userSpaceOnUse">
<stop stop-color="#BFBFBF"/>
<stop offset="0.14" stop-color="#C2C2C2"/>
<stop offset="0.27" stop-color="#CECECE"/>
<stop offset="0.4" stop-color="#E0E0E0"/>
<stop offset="0.53" stop-color="#FBFBFB"/>
<stop offset="0.54" stop-color="#E0E0E0"/>
<stop offset="0.55" stop-color="#CDCDCD"/>
<stop offset="0.56" stop-color="#CCCCCC"/>
<stop offset="1" stop-color="white"/>
</linearGradient>
<linearGradient id="paint1_linear_81_3" x1="145.68" y1="133.511" x2="152.518" y2="114.695" gradientUnits="userSpaceOnUse">
<stop stop-color="#BFBFBF"/>
<stop offset="0.14" stop-color="#C2C2C2"/>
<stop offset="0.27" stop-color="#CECECE"/>
<stop offset="0.4" stop-color="#E0E0E0"/>
<stop offset="0.53" stop-color="#FBFBFB"/>
<stop offset="0.54" stop-color="#E0E0E0"/>
<stop offset="0.55" stop-color="#CDCDCD"/>
<stop offset="0.56" stop-color="#CCCCCC"/>
<stop offset="1" stop-color="white"/>
</linearGradient>
<clipPath id="clip0_81_3">
<rect width="200" height="204" fill="white"/>
</clipPath>
</defs>
</svg>
