<svg xmlns="http://www.w3.org/2000/svg" width="342" height="763" fill="none" viewBox="0 0 342 763"><g clip-path="url(#a)"><path fill="#fff" d="M0 0h341.637v762.656H0z"/><path fill="#fff" d="M42.479 1.029h257.728s35.712 1.457 40.364 40.771v690.667s-.517 25.843-40.794 29.125H41.466s-36.764-1.115-40.4-28.65V42.329S2.25 4.71 42.479 1.03"/><path stroke="#1a1311" stroke-linecap="round" stroke-linejoin="round" stroke-width=".709" d="m31.886 760.361.935.208M296.96 621.461H44.677M6.409 583.193V44.61M335.228 44.61v538.583"/><path fill="url(#b)" d="M305.039 135.177H36.598v428.655h268.441z"/><path stroke="#1a1311" stroke-linecap="round" stroke-linejoin="round" d="M36.598 563.832h268.441M36.598 135.177v428.655M305.039 563.832V135.177M305.039 135.177H36.598"/><path stroke="#1a1311" stroke-linecap="round" stroke-linejoin="round" stroke-width=".709" d="M44.677 6.343H296.96M6.409 583.193a38.266 38.266 0 0 0 38.268 38.268M44.677 6.343A38.27 38.27 0 0 0 6.409 44.61M296.96 621.461a38.28 38.28 0 0 0 27.06-11.209 38.27 38.27 0 0 0 11.208-27.059M335.228 44.61A38.265 38.265 0 0 0 296.96 6.343"/><path stroke="#1a1311" stroke-linecap="round" stroke-linejoin="round" stroke-width="1.5" d="M44.677 611.288H296.96M16.582 44.61v538.583M325.055 583.193V44.61M296.96 16.516H44.677M16.582 583.193a28.1 28.1 0 0 0 28.095 28.1M44.677 16.516A28.1 28.1 0 0 0 16.582 44.61M296.96 611.288a28.1 28.1 0 0 0 28.1-28.1M325.055 44.61a28.1 28.1 0 0 0-17.347-25.957 28.1 28.1 0 0 0-10.753-2.137"/><path stroke="#1a1311" stroke-linecap="round" stroke-linejoin="round" stroke-width=".709" d="M55.388 75.787v26.079M83.735 101.866V75.787M55.388 101.865a14.175 14.175 0 0 0 28.347 0M83.735 75.787a14.173 14.173 0 1 0-28.347 0M257.895 75.787v26.079M286.242 101.866V75.787M257.895 101.865a14.173 14.173 0 1 0 28.347 0M286.242 75.787a14.17 14.17 0 0 0-7.486-12.497 14.174 14.174 0 0 0-20.861 12.497M153.807 94.212c0-2.662-.523-5.297-1.541-7.757a20.267 20.267 0 0 0-38.979 8.557"/><path stroke="#1a1311" stroke-linecap="round" stroke-linejoin="round" stroke-width=".709" d="M113.287 95.012a20.27 20.27 0 0 0 34.723 13.386 20.27 20.27 0 0 0 5.797-14.186M228.358 94.212a20.266 20.266 0 0 0-20.268-20.41 20.27 20.27 0 0 0-18.765 12.61 20.3 20.3 0 0 0-1.502 7.8c0 .267 0 .533.016.8"/><path stroke="#1a1311" stroke-linecap="round" stroke-linejoin="round" stroke-width=".709" d="M187.839 95.012a20.2 20.2 0 0 0 3.386 10.443 20.273 20.273 0 0 0 33.73 0 20.26 20.26 0 0 0 3.4-11.243"/><path stroke="#1a1311" stroke-linecap="round" stroke-linejoin="round" stroke-width=".5" d="m56.938 32.459.887-.903M59.558 33.291l-.887.903M56.677 36.31l-.887.903M62.493 32.459l1.095-1.114M60.707 34.575l-.887.903M57.825 37.594l-.887.903M61.553 37.213l.887-.903M58.671 40.232l.887-.903M65.53 33.291l-1.095 1.114M56.677 42.348l-.887.903M66.555 34.364l-1.095 1.114M63.588 37.383l-1.095 1.114M69.522 31.345l-1.095 1.114M60.707 40.613l-.887.903M56.938 44.535l.887-.903M61.553 43.251l.887-.903M59.558 45.367l-.887.903M64.435 40.443l1.095-1.114M67.401 37.424l1.095-1.114M70.368 34.405l1.095-1.114M55.79 49.289l.887-.903M75.455 31.133l-1.303 1.326M72.489 34.364l-1.095 1.114M66.555 40.402l-1.095 1.114M62.493 44.535l1.095-1.114M68.427 38.497l1.095-1.114M59.82 47.554l.887-.903M57.825 49.67l-.887.903M62.44 48.386l-.887.903M58.671 52.308l.887-.903M65.53 45.367l-1.095 1.114M67.401 43.462l1.095-1.114M71.463 39.329l-1.095 1.114M73.335 37.424l1.095-1.114M76.302 34.617l1.303-1.326M80.086 32.459l1.303-1.326M74.152 38.497l1.303-1.326M78.422 34.152l-1.303 1.326M72.489 40.402l-1.095 1.114M69.522 43.421l-1.095 1.114M65.46 47.554l1.095-1.114M63.588 49.459l-1.095 1.114M64.435 52.519l1.095-1.114M68.496 48.386 67.401 49.5M70.368 46.48l1.095-1.113M73.335 43.462l1.095-1.114M83.538 33.291l-1.303 1.326M79.268 37.636l1.303-1.326M77.605 39.329l-1.303 1.326M87.322 31.133l-1.303 1.326M84.356 34.152l-1.303 1.326M81.389 37.171l-1.303 1.326M75.455 43.209l-1.303 1.326M78.422 40.19l-1.303 1.326M71.394 47.554l1.095-1.114M68.427 50.573l1.095-1.114M74.43 48.386 73.335 49.5M71.463 51.405l-1.095 1.114M88.169 34.617l1.303-1.326M82.235 40.655l1.303-1.326M79.268 43.674l1.303-1.326M76.302 46.693l1.303-1.326M85.202 37.636l1.303-1.326M88.778 35.477l1.511-1.537M93.256 30.921l-1.511 1.537M86.019 38.497l1.303-1.326M84.356 40.19l-1.303 1.326M80.086 44.535l1.303-1.326M74.152 50.573l1.303-1.326M77.119 47.554l1.303-1.326M89.472 39.329l-1.303 1.326M83.538 45.367l-1.303 1.326M80.571 48.386l-1.303 1.326M77.605 51.405l-1.303 1.326M85.202 43.674l1.303-1.326M92.647 36.31l-1.511 1.537M94.102 34.828l1.511-1.537M54.056 35.478l.887-.903M54.056 41.516l.887-.903M54.943 46.651l-.887.903M97.514 32.501l1.719-1.749M88.778 41.515l1.511-1.537M91.745 38.496l1.511-1.537M96.223 33.94l-1.511 1.537M87.322 43.209l-1.303 1.326M83.053 47.554l1.303-1.326M81.389 49.247l-1.303 1.326M88.169 46.693l1.303-1.326M82.235 52.73l1.303-1.325M86.505 48.386l-1.303 1.326M97.069 37.847l1.511-1.537M95.613 39.329l-1.511 1.537M92.647 42.348l-1.511 1.537M101.711 33.248l-1.719 1.749M103.447 32.501l1.719-1.749M99.233 36.79l-1.719 1.749M102.2 33.771l-1.719 1.749M90.289 46.016l-1.511 1.537M93.256 42.997l-1.511 1.537M96.223 39.978l-1.511 1.537M86.019 50.573l1.303-1.326M89.472 51.405l-1.303 1.326M97.069 43.885l1.511-1.537M91.136 49.923l1.511-1.537M94.102 46.904l1.511-1.537M99.992 41.035l1.719-1.749M107.645 33.248l-1.719 1.749M102.959 38.016l1.719-1.749M109.226 32.554l1.927-1.961M108.09 33.729l-1.719 1.749M97.47 44.535l1.719-1.749M105.166 36.79l-1.719 1.749M102.2 39.809l-1.719 1.749M91.745 50.572l1.511-1.537M94.712 47.553l1.511-1.537M98.58 48.386l-1.511 1.537M95.613 51.405l-1.511 1.537M105.926 41.035l1.719-1.749M102.959 44.054l1.719-1.75M101.755 45.367l-1.719 1.749M108.936 38.059l1.719-1.75M113.733 33.196l-1.927 1.96M117.086 30.593l-1.927 1.961M111.153 36.631l-1.927 1.961M112.193 35.573l1.927-1.961M103.447 44.577l1.719-1.749M99.233 48.866l-1.719 1.749M100.481 47.596l1.719-1.75M108.133 39.809l-1.719 1.749M99.992 53.11l1.719-1.748M107.645 45.324l-1.719 1.749M104.678 48.343l-1.719 1.749M108.893 44.054l1.719-1.75M116.7 36.215l-1.927 1.961M111.806 41.195l1.927-1.961M117.74 35.157l1.927-1.961M123.02 30.593l-1.927 1.961M120.053 33.612l-1.927 1.96M115.159 38.592l1.927-1.961M109.226 44.63l1.927-1.961M114.12 39.65l-1.927 1.961M106.414 47.596l1.719-1.75M105.926 53.11l1.719-1.748M110.612 48.343l-1.719 1.749M120.707 38.176l1.927-1.961M123.674 35.157l1.927-1.961M114.773 44.214l1.927-1.961M113.733 45.272l-1.927 1.961M119.667 39.234l-1.927 1.961M121.093 38.592l1.927-1.961M124.06 35.573l1.927-1.961M117.086 42.669l-1.927 1.96M118.126 41.611l1.927-1.961M111.153 48.707l-1.927 1.96M114.12 45.688l-1.927 1.961M127.027 32.554l1.927-1.961M131.534 33.196l-1.927 1.96M128.567 36.215l-1.927 1.961M125.601 39.234l-1.927 1.961M122.634 42.253l-1.927 1.96M111.806 53.27l1.927-1.96M114.773 50.252l1.927-1.961M117.74 47.233l1.927-1.961M134.887 30.593l-1.927 1.961M131.92 33.612l-1.927 1.96M125.987 39.65l-1.927 1.961M123.02 42.669l-1.927 1.96M118.126 47.649l1.927-1.961M115.159 50.668l1.927-1.961M128.954 36.631l-1.927 1.961M135.541 35.157l1.927-1.961M132.574 38.176l1.927-1.961M126.64 44.214l1.927-1.961M129.607 41.195l1.927-1.961M122.634 48.291l-1.927 1.961M123.674 47.233l1.927-1.961M119.667 51.31l-1.927 1.96M140.821 30.593l-1.927 1.961M135.927 35.573l1.927-1.961M129.993 41.611l1.927-1.961M132.96 38.592l1.927-1.961M125.987 45.688l-1.927 1.961M121.093 50.668l1.927-1.961M127.027 44.63l1.927-1.961M140.434 36.215l-1.927 1.961M137.468 39.234l-1.927 1.961M134.501 42.253l-1.927 1.96M131.534 45.272l-1.927 1.961M126.64 50.252l1.927-1.961M125.601 51.31l-1.927 1.96M141.474 35.157l1.927-1.961M144.827 32.554l1.927-1.961M143.787 33.612l-1.927 1.96M138.894 38.592l1.927-1.961M137.854 39.65l-1.927 1.961M134.887 42.669l-1.927 1.96M129.993 47.649l1.927-1.961M128.954 48.707l-1.927 1.96M149.335 33.196l-1.927 1.96M144.441 38.176l1.927-1.961M135.541 47.233l1.927-1.961M138.507 44.214l1.927-1.961M134.501 48.291l-1.927 1.961M129.607 53.27l1.927-1.96M143.401 39.234l-1.927 1.961M150.761 32.554l1.927-1.961M147.794 35.573l1.927-1.961M146.754 36.631l-1.927 1.961M140.821 42.669l-1.927 1.96M137.854 45.688l-1.927 1.961M141.86 41.611l1.927-1.961M132.96 50.668l1.927-1.961M105.166 48.866l-1.719 1.749M155.268 33.196l-1.927 1.96M152.301 36.215l-1.927 1.961M147.408 41.195l1.927-1.961M146.368 42.253l-1.927 1.96M137.468 51.31l-1.927 1.96M138.507 50.252l1.927-1.961M141.474 47.233l1.927-1.961M158.621 30.593l-1.927 1.961M155.654 33.612l-1.927 1.96M152.688 36.631l-1.927 1.961M149.721 39.65l-1.927 1.961M144.827 44.63l1.927-1.961M141.86 47.649l1.927-1.961M138.894 50.668l1.927-1.961M159.275 35.157l1.927-1.961M150.374 44.214l1.927-1.961M153.341 41.195l1.927-1.961M149.335 45.272l-1.927 1.961M146.368 48.291l-1.927 1.961M143.401 51.31l-1.927 1.96M156.308 38.176l1.927-1.961M164.555 30.593l-1.927 1.961M159.661 35.573l1.927-1.961M150.761 44.63l1.927-1.961M153.727 41.611l1.927-1.961M156.694 38.592l1.927-1.961M149.721 45.688l-1.927 1.961M146.754 48.707l-1.927 1.96M165.208 35.157l1.927-1.961M164.168 36.215l-1.927 1.961M161.202 39.234l-1.927 1.961M155.268 45.272l-1.927 1.961M150.374 50.252l1.927-1.961M147.408 53.27l1.927-1.96M158.235 42.253l-1.927 1.96M168.561 32.554l1.927-1.961M162.628 38.592l1.927-1.961M161.588 39.65l-1.927 1.961M158.621 42.669l-1.927 1.96M152.688 48.707l-1.927 1.96M153.727 47.649l1.927-1.961M167.521 33.612l-1.927 1.96M173.069 33.196l-1.927 1.96M167.135 39.234l-1.927 1.961M168.175 38.176l1.927-1.961M159.275 47.233l1.927-1.961M162.241 44.214l1.927-1.961M153.341 53.27l1.927-1.96M158.235 48.291l-1.927 1.961M174.495 32.554l1.927-1.961M171.528 35.573l1.927-1.961M170.488 36.631l-1.927 1.961M164.555 42.669l-1.927 1.96M161.588 45.688l-1.927 1.961M156.694 50.668l1.927-1.961M165.594 41.611l1.927-1.961M179.002 33.196l-1.927 1.96M176.035 36.215l-1.927 1.961M170.102 42.253l-1.927 1.96M171.142 41.195l1.927-1.961M165.208 47.233l1.927-1.961M161.202 51.31l-1.927 1.96M162.241 50.252l1.927-1.961M179.388 33.612l-1.927 1.96M176.422 36.631l-1.927 1.961M173.455 39.65l-1.927 1.961M168.561 44.63l1.927-1.961M162.628 50.668l1.927-1.961M165.594 47.649l1.927-1.961M180.428 32.554l1.927-1.961M184.936 33.196l-1.927 1.96M180.042 38.176l1.927-1.961M174.108 44.214l1.927-1.961M177.075 41.195l1.927-1.961M173.069 45.272l-1.927 1.961M170.102 48.291l-1.927 1.961M167.135 51.31l-1.927 1.96M188.289 30.593l-1.927 1.961M183.395 35.573l1.927-1.961M174.495 44.63l1.927-1.961M177.461 41.611l1.927-1.961M173.455 45.688l-1.927 1.961M170.488 48.707l-1.927 1.96M182.355 36.631l-1.927 1.961M188.942 35.157l1.927-1.961M187.903 36.215l-1.927 1.961M181.969 42.253l-1.927 1.96M183.009 41.195l1.927-1.961M179.002 45.272l-1.927 1.961M174.108 50.252l1.927-1.961M171.142 53.27l1.927-1.96M194.222 30.593l-1.927 1.961M191.255 33.612l-1.927 1.96M185.322 39.65l-1.927 1.961M186.362 38.592l1.927-1.961M176.422 48.707l-1.927 1.96M177.461 47.649l1.927-1.961M180.428 44.63l1.927-1.961M190.869 39.234l-1.927 1.961M191.909 38.176l1.927-1.961M184.936 45.272l-1.927 1.961M185.976 44.214l1.927-1.961M181.969 48.291l-1.927 1.961M177.075 53.27l1.927-1.96M194.876 35.157l1.927-1.961M198.229 32.554l1.927-1.961M195.262 35.573l1.927-1.961M189.328 41.611l1.927-1.961M192.295 38.592l1.927-1.961M188.289 42.669l-1.927 1.96M185.322 45.688l-1.927 1.961M182.355 48.707l-1.927 1.96M202.736 33.196l-1.927 1.96M199.77 36.215l-1.927 1.961M193.836 42.253l-1.927 1.96M188.942 47.233l1.927-1.961M183.009 53.27l1.927-1.96M185.976 50.252l1.927-1.961M196.803 39.234l-1.927 1.961M203.123 33.612l-1.927 1.96M200.156 36.631l-1.927 1.961M197.189 39.65l-1.927 1.961M194.222 42.669l-1.927 1.96M189.328 47.649l1.927-1.961M186.362 50.668l1.927-1.961M204.162 32.554l1.927-1.961M208.67 33.196l-1.927 1.96M203.776 38.176l1.927-1.961M200.809 41.195l1.927-1.961M197.843 44.214l1.927-1.961M193.836 48.291l-1.927 1.961M190.869 51.31l-1.927 1.96M194.876 47.233l1.927-1.961M212.023 30.593l-1.927 1.961M207.129 35.573l1.927-1.961M198.229 44.63l1.927-1.961M201.196 41.611l1.927-1.961M197.189 45.688l-1.927 1.961M192.295 50.668l1.927-1.961M206.089 36.631l-1.927 1.961M212.676 35.157l1.927-1.961M205.703 42.253l-1.927 1.96M206.743 41.195l1.927-1.961M202.736 45.272l-1.927 1.961M197.843 50.252l1.927-1.961M196.803 51.31l-1.927 1.96M211.637 36.215l-1.927 1.961M214.99 33.612l-1.927 1.96M216.029 32.554l1.927-1.961M209.056 39.65l-1.927 1.961M210.096 38.592l1.927-1.961M200.156 48.707l-1.927 1.96M201.196 47.649l1.927-1.961M204.162 44.63l1.927-1.961M220.537 33.196l-1.927 1.96M214.603 39.234l-1.927 1.961M215.643 38.176l1.927-1.961M208.67 45.272l-1.927 1.961M205.703 48.291l-1.927 1.961M200.809 53.27l1.927-1.96M209.71 44.214l1.927-1.961M221.963 32.554l1.927-1.961M217.956 36.631l-1.927 1.961M213.063 41.611l1.927-1.961M212.023 42.669l-1.927 1.96M209.056 45.688l-1.927 1.961M206.089 48.707l-1.927 1.96M218.996 35.573l1.927-1.961M226.47 33.196l-1.927 1.96M223.504 36.215l-1.927 1.961M218.61 41.195l1.927-1.961M217.57 42.253l-1.927 1.96M212.676 47.233l1.927-1.961M206.743 53.27l1.927-1.96M209.71 50.252l1.927-1.961M229.823 30.593l-1.927 1.961M226.857 33.612l-1.927 1.96M223.89 36.631l-1.927 1.961M213.063 47.649l1.927-1.961M216.029 44.63l1.927-1.961M210.096 50.668l1.927-1.961M220.923 39.65l-1.927 1.961M227.51 38.176l1.927-1.961M230.477 35.157l1.927-1.961M224.543 41.195l1.927-1.961M220.537 45.272l-1.927 1.961M221.577 44.214l1.927-1.961M217.57 48.291l-1.927 1.961M214.603 51.31l-1.927 1.96M227.896 38.592l1.927-1.961M221.963 44.63l1.927-1.961M224.93 41.611l1.927-1.961M217.956 48.707l-1.927 1.96M220.923 45.688l-1.927 1.961M230.975 35.478l1.719-1.749M235.704 30.752l-1.719 1.749M236.463 34.997l1.719-1.75M235.259 36.31l-1.719 1.749M232.404 39.234l-1.927 1.961M229.437 42.253l-1.927 1.96M226.47 45.272l-1.927 1.961M218.61 53.27l1.927-1.96M221.577 50.252l1.927-1.961M229.823 42.669l-1.927 1.96M223.89 48.707l-1.927 1.96M224.93 47.649l1.927-1.961M231.018 41.558l1.719-1.749M233.985 38.539l1.719-1.75M236.952 35.52l1.719-1.749M241.638 30.752l-1.719 1.749M235.216 42.305l-1.719 1.749M238.182 39.286l-1.719 1.749M241.149 36.267l-1.719 1.749M242.397 34.997l1.719-1.75M229.437 48.291l-1.927 1.961M230.477 47.233l1.927-1.961M224.543 53.27l1.927-1.96M227.896 50.668l1.927-1.961M235.704 42.828l-1.719 1.749M232.737 45.847l-1.719 1.749M236.952 41.558l1.719-1.749M239.919 38.539l1.719-1.75M243.05 35.477l1.511-1.537M246.017 32.458l1.511-1.537M249.885 33.291l-1.511 1.537M246.918 36.31l-1.511 1.537M233.497 50.092l1.719-1.749M236.463 47.073l1.719-1.749M244.116 39.286l-1.719 1.749M241.149 42.305l-1.719 1.749M232.404 51.31l-1.927 1.96M241.594 42.786l-1.719 1.749M233.985 50.615l1.719-1.749M238.671 45.847l-1.719 1.749M250.494 33.94l-1.511 1.537M243.05 41.515l1.511-1.537M247.528 36.959l-1.511 1.537M252.158 32.459l1.303-1.326M255.61 33.291l-1.303 1.326M248.374 40.866l1.511-1.537M251.341 37.847l1.511-1.537M246.918 42.348l-1.511 1.537M238.182 51.362l-1.719 1.749M239.43 50.092l1.719-1.749M242.44 47.116l1.719-1.75M239.919 50.615l1.719-1.749M250.494 39.978l-1.511 1.537M244.561 46.016l-1.511 1.537M246.017 44.534l1.511-1.537M259.395 31.133l-1.303 1.326M255.125 35.478l1.303-1.326M253.461 37.171l-1.303 1.326M258.577 36.31l-1.303 1.326M254.307 40.655l1.303-1.326M260.241 34.617l1.303-1.326M249.885 45.367l-1.511 1.537M251.341 43.885l1.511-1.537M245.407 49.923l1.511-1.537M244.116 51.362l-1.719 1.749M248.983 47.553l1.511-1.537M247.528 49.035l-1.511 1.537M264.025 32.459l1.303-1.326M258.092 38.497l1.303-1.326M255.125 41.516l1.303-1.326M252.158 44.535l1.303-1.326M261.058 35.478l1.303-1.326M267.477 33.291l-1.303 1.326M264.511 36.31l-1.303 1.326M258.577 42.348l-1.303 1.326M255.61 45.367l-1.303 1.326M261.544 39.329l-1.303 1.326M248.374 52.942l1.511-1.537M252.852 48.386l-1.511 1.537M265.328 37.171l-1.303 1.326M259.395 43.209l-1.303 1.326M256.428 46.228l-1.303 1.326M253.461 49.247l-1.303 1.326M261.058 41.516l1.303-1.326M270.167 32.459l1.095-1.114M267.2 35.478l1.095-1.114M273.203 33.291l-1.095 1.114M270.236 36.31l-1.095 1.114M266.174 40.655l1.303-1.326M264.511 42.348l-1.303 1.326M257.274 49.712l1.303-1.326M254.307 52.73l1.303-1.325M260.241 46.693l1.303-1.326M264.025 44.535l1.303-1.326M258.092 50.573l1.303-1.326M262.361 46.228l-1.303 1.326M277.195 31.345l-1.095 1.114M273.133 35.478l1.095-1.114M271.262 37.383l-1.095 1.114M267.2 41.516l1.095-1.114M270.236 42.348l-1.095 1.114M272.108 40.443l1.095-1.114M276.17 36.31l-1.095 1.114M278.041 34.405l1.095-1.114M267.477 45.367l-1.303 1.326M263.208 49.712l1.303-1.326M261.544 51.405l-1.303 1.326M265.328 49.247l-1.303 1.326M276.1 38.497l1.095-1.114M273.133 41.516l1.095-1.114M270.167 44.535l1.095-1.114M268.295 46.44l-1.095 1.114M282.959 31.556l-.887.903M279.19 35.478l.887-.903M283.805 34.194l.887-.903M281.81 36.31l-.887.903M273.203 45.367l-1.095 1.114M269.141 49.5l1.095-1.114M279.136 39.329l-1.095 1.114M276.17 42.348l-1.095 1.114M266.174 52.73l1.303-1.325M285.84 34.575l-.887.903M277.195 43.421l-1.095 1.114M274.228 46.44l-1.095 1.114M271.262 49.459l-1.095 1.114M282.072 38.497l.887-.903M279.19 41.516l.887-.903M286.687 37.213l.887-.903M284.692 39.329l-.887.903M281.81 42.348l-.887.903M272.108 52.519l1.095-1.114M275.075 49.5l1.095-1.114M278.041 46.48l1.095-1.113M285.84 40.613l-.887.903M276.1 50.573l1.095-1.114M282.959 43.632l-.887.903M280.077 46.651l-.887.903M286.687 43.251l.887-.903M283.805 46.27l.887-.903M280.923 49.289l.887-.903M279.136 51.405l-1.095 1.114M284.953 47.554l.887-.903M282.072 50.573l.887-.903M287.574 48.386l-.887.903M284.692 51.405l-.887.903M56.938 51.405l.887.903M54.056 48.386l.887.903M59.558 50.573l-.887-.903M56.677 47.554l-.887-.903M62.493 51.405l1.095 1.114M60.707 49.289l-.887-.903M57.825 46.27l-.887-.903M54.943 43.251l-.887-.903M61.553 46.651l.887.903M58.671 43.632l.887.903M65.53 50.573l-1.095-1.114M55.79 40.613l.887.903M63.588 46.48l-1.095-1.113M66.555 49.5l-1.095-1.114M59.82 42.348l.887.903M56.938 39.329l.887.903M54.943 37.213l-.887-.903M62.44 41.516l-.887-.903M59.558 38.497l-.887-.903M70.368 49.459l1.095 1.114M67.401 46.44l1.095 1.114M64.435 43.421l1.095 1.114M55.79 34.575l.887.903M75.455 52.73l-1.303-1.325M62.493 39.329l1.095 1.114M65.46 42.348l1.095 1.114M72.489 49.5l-1.095-1.114M59.82 36.31l.887.903M57.825 34.194l-.887-.903M62.44 35.478l-.887-.903M58.671 31.556l.887.903M73.335 46.44l1.095 1.114M71.463 44.535l-1.095-1.114M68.496 41.516l-1.095-1.114M65.53 38.497l-1.095-1.114M76.302 49.247l1.303 1.326M78.422 49.712l-1.303-1.326M80.086 51.405l1.303 1.326M74.152 45.367l1.303 1.326M63.588 34.405l-1.095-1.114M65.46 36.31l1.095 1.114M71.394 42.348l1.095 1.114M74.43 41.516l-1.095-1.114M70.368 37.383l1.095 1.114M68.496 35.478l-1.095-1.114M64.435 31.345l1.095 1.114M77.605 44.535l-1.303-1.326M83.538 50.573l-1.303-1.326M79.268 46.228l1.303 1.326M77.119 42.348l1.303 1.326M87.322 52.73l-1.303-1.325M84.356 49.712l-1.303-1.326M81.389 46.693l-1.303-1.326M75.455 40.655l-1.303-1.326M71.394 36.31l1.095 1.114M69.522 52.519l-1.095-1.114M68.427 45.367l1.095 1.114M69.522 40.443l-1.095-1.114M68.427 33.291l1.095 1.114M74.43 35.478l-1.095-1.114M71.463 32.459l-1.095-1.114M76.302 37.171l1.303 1.326M85.202 46.228l1.303 1.326M88.169 49.247l1.303 1.326M82.235 43.209l1.303 1.326M80.571 41.516l-1.303-1.326M93.256 52.942l-1.511-1.537M88.778 48.386l1.511 1.537M77.119 36.31l1.303 1.326M86.019 45.367l1.303 1.326M83.053 42.348l1.303 1.326M80.086 39.329l1.303 1.326M74.152 33.291l1.303 1.326M77.605 32.459l-1.303-1.326M86.505 41.516l-1.303-1.326M89.472 44.535l-1.303-1.326M83.538 38.497l-1.303-1.326M80.571 35.478l-1.303-1.326M92.647 47.553l-1.511-1.537M94.102 49.035l1.511 1.537M97.514 51.362l1.719 1.749M91.745 45.367l1.511 1.537M96.223 49.923l-1.511-1.537M90.289 43.885l-1.511-1.537M87.322 40.655l-1.303-1.326M83.053 36.31l1.303 1.326M81.389 34.617l-1.303-1.326M86.505 35.478l-1.303-1.326M88.169 37.171l1.303 1.326M82.235 31.133l1.303 1.326M91.136 39.978l1.511 1.537M95.613 44.534l-1.511-1.537M97.069 46.016l1.511 1.537M101.711 50.615l-1.719-1.749M99.189 47.116l-1.719-1.75M102.2 50.092l-1.719-1.749M103.447 51.362l1.719 1.749M93.256 40.866l-1.511-1.537M94.712 42.348l1.511 1.537M90.289 37.847l-1.511-1.537M86.019 33.291l1.303 1.326M89.472 32.459l-1.303-1.326M91.136 33.94l1.511 1.537M94.102 36.959l1.511 1.537M98.58 41.515l-1.511-1.537M102.959 45.847l1.719 1.749M107.645 50.615l-1.719-1.749M100.036 42.786l1.719 1.749M109.226 51.31l1.927 1.96M97.514 39.286l1.719 1.749M100.481 42.305l1.719 1.749M108.133 50.092l-1.719-1.749M105.166 47.073l-1.719-1.749M91.745 33.291l1.511 1.537M94.712 36.31l1.511 1.537M95.613 32.458l-1.511-1.537M98.58 35.477l-1.511-1.537M101.711 38.539l-1.719-1.75M105.926 42.828l1.719 1.749M104.678 41.558l-1.719-1.749M108.893 45.847l1.719 1.749M113.733 50.668l-1.927-1.961M112.193 48.291l1.927 1.961M117.086 53.27l-1.927-1.96M111.153 47.233l-1.927-1.961M99.233 34.997l-1.719-1.75M100.481 36.267l1.719 1.749M106.414 42.305l1.719 1.749M103.447 39.286l1.719 1.749M99.992 30.752l1.719 1.749M107.645 38.539l-1.719-1.75M104.678 35.52l-1.719-1.749M110.612 41.558l-1.719-1.749M117.74 48.707l1.927 1.96M116.7 47.649l-1.927-1.961M111.806 42.669l1.927 1.96M112.193 42.253l1.927 1.96M123.02 53.27l-1.927-1.96M120.053 50.252l-1.927-1.961M115.159 45.272l1.927 1.961M109.226 39.234l1.927 1.961M106.371 36.31l1.719 1.749M105.166 34.997l-1.719-1.75M105.926 30.752l1.719 1.749M110.655 35.478l-1.719-1.749M119.667 44.63l-1.927-1.961M123.674 48.707l1.927 1.96M120.707 45.688l1.927 1.961M116.7 41.611l-1.927-1.961M113.733 38.592l-1.927-1.961M114.12 38.176l-1.927-1.961M127.027 51.31l1.927 1.96M124.06 48.291l1.927 1.961M121.093 45.272l1.927 1.961M120.053 44.214l-1.927-1.961M117.086 41.195l-1.927-1.961M111.153 35.157l-1.927-1.961M117.74 36.631l1.927 1.961M131.534 50.668l-1.927-1.961M128.567 47.649l-1.927-1.961M125.601 44.63l-1.927-1.961M120.707 39.65l1.927 1.961M114.773 33.612l1.927 1.96M111.806 30.593l1.927 1.961M128.954 47.233l-1.927-1.961M134.887 53.27l-1.927-1.96M131.92 50.252l-1.927-1.961M124.06 42.253l1.927 1.96M123.02 41.195l-1.927-1.961M118.126 36.215l1.927 1.961M115.159 33.196l1.927 1.96M119.667 32.554l-1.927-1.961M135.541 48.707l1.927 1.96M132.574 45.688l1.927 1.961M129.607 42.669l1.927 1.96M128.567 41.611l-1.927-1.961M123.674 36.631l1.927 1.961M122.634 35.573l-1.927-1.961M127.027 39.234l1.927 1.961M135.927 48.291l1.927 1.961M140.821 53.27l-1.927-1.96M132.96 45.272l1.927 1.961M131.92 44.214l-1.927-1.961M125.987 38.176l-1.927-1.961M121.093 33.196l1.927 1.96M141.474 48.707l1.927 1.96M140.434 47.649l-1.927-1.961M137.468 44.63l-1.927-1.961M132.574 39.65l1.927 1.961M131.534 38.592l-1.927-1.961M126.64 33.612l1.927 1.96M125.601 32.554l-1.927-1.961M128.954 35.157l-1.927-1.961M144.827 51.31l1.927 1.96M143.787 50.252l-1.927-1.961M138.894 45.272l1.927 1.961M135.927 42.253l1.927 1.96M134.887 41.195l-1.927-1.961M129.993 36.215l1.927 1.961M143.401 44.63l-1.927-1.961M149.335 50.668l-1.927-1.961M144.441 45.688l1.927 1.961M140.434 41.611l-1.927-1.961M135.541 36.631l1.927 1.961M129.607 30.593l1.927 1.961M134.501 35.573l-1.927-1.961M150.761 51.31l1.927 1.96M147.794 48.291l1.927 1.961M146.754 47.233l-1.927-1.961M143.787 44.214l-1.927-1.961M140.821 41.195l-1.927-1.961M137.854 38.176l-1.927-1.961M132.96 33.196l1.927 1.96M141.474 36.631l1.927 1.961M155.268 50.668l-1.927-1.961M152.301 47.649l-1.927-1.961M144.441 39.65l1.927 1.961M147.408 42.669l1.927 1.96M138.507 33.612l1.927 1.96M137.468 32.554l-1.927-1.961M158.621 53.27l-1.927-1.96M155.654 50.252l-1.927-1.961M152.688 47.233l-1.927-1.961M147.794 42.253l1.927 1.96M144.827 39.234l1.927 1.961M138.894 33.196l1.927 1.96M141.86 36.215l1.927 1.961M143.401 32.554l-1.927-1.961M156.308 45.688l1.927 1.961M159.275 48.707l1.927 1.96M153.341 42.669l1.927 1.96M152.301 41.611l-1.927-1.961M149.335 38.592l-1.927-1.961M146.368 35.573l-1.927-1.961M164.555 53.27l-1.927-1.96M159.661 48.291l1.927 1.961M156.694 45.272l1.927 1.961M155.654 44.214l-1.927-1.961M150.761 39.234l1.927 1.961M149.721 38.176l-1.927-1.961M146.754 35.157l-1.927-1.961M156.308 39.65l1.927 1.961M165.208 48.707l1.927 1.96M164.168 47.649l-1.927-1.961M161.202 44.63l-1.927-1.961M155.268 38.592l-1.927-1.961M150.374 33.612l1.927 1.96M147.408 30.593l1.927 1.961M167.521 50.252l-1.927-1.961M168.561 51.31l1.927 1.96M159.661 42.253l1.927 1.96M162.628 45.272l1.927 1.961M158.621 41.195l-1.927-1.961M153.727 36.215l1.927 1.961M152.688 35.157l-1.927-1.961M158.235 35.573l-1.927-1.961M173.069 50.668l-1.927-1.961M168.175 45.688l1.927 1.961M167.135 44.63l-1.927-1.961M164.168 41.611l-1.927-1.961M159.275 36.631l1.927 1.961M153.341 30.593l1.927 1.961M167.521 44.214l-1.927-1.961M174.495 51.31l1.927 1.96M171.528 48.291l1.927 1.961M170.488 47.233l-1.927-1.961M164.555 41.195l-1.927-1.961M161.588 38.176l-1.927-1.961M156.694 33.196l1.927 1.96M179.002 50.668l-1.927-1.961M176.035 47.649l-1.927-1.961M171.142 42.669l1.927 1.96M168.175 39.65l1.927 1.961M165.208 36.631l1.927 1.961M162.241 33.612l1.927 1.96M161.202 32.554l-1.927-1.961M165.594 36.215l1.927 1.961M180.428 51.31l1.927 1.96M179.388 50.252l-1.927-1.961M176.422 47.233l-1.927-1.961M171.528 42.253l1.927 1.96M168.561 39.234l1.927 1.961M162.628 33.196l1.927 1.96M184.936 50.668l-1.927-1.961M180.042 45.688l1.927 1.961M177.075 42.669l1.927 1.96M176.035 41.611l-1.927-1.961M173.069 38.592l-1.927-1.961M170.102 35.573l-1.927-1.961M167.135 32.554l-1.927-1.961M182.355 47.233l-1.927-1.961M188.289 53.27l-1.927-1.96M183.395 48.291l1.927 1.961M179.388 44.214l-1.927-1.961M174.495 39.234l1.927 1.961M173.455 38.176l-1.927-1.961M170.488 35.157l-1.927-1.961M188.942 48.707l1.927 1.96M183.009 42.669l1.927 1.96M187.903 47.649l-1.927-1.961M180.042 39.65l1.927 1.961M174.108 33.612l1.927 1.96M179.002 38.592l-1.927-1.961M171.142 30.593l1.927 1.961M180.428 39.234l1.927 1.961M194.222 53.27l-1.927-1.96M191.255 50.252l-1.927-1.961M186.362 45.272l1.927 1.961M183.395 42.253l1.927 1.96M177.461 36.215l1.927 1.961M176.422 35.157l-1.927-1.961M194.876 48.707l1.927 1.96M191.909 45.688l1.927 1.961M190.869 44.63l-1.927-1.961M187.903 41.611l-1.927-1.961M184.936 38.592l-1.927-1.961M181.969 35.573l-1.927-1.961M177.075 30.593l1.927 1.961M182.355 35.157l-1.927-1.961M198.229 51.31l1.927 1.96M195.262 48.291l1.927 1.961M192.295 45.272l1.927 1.961M191.255 44.214l-1.927-1.961M188.289 41.195l-1.927-1.961M185.322 38.176l-1.927-1.961M196.803 44.63l-1.927-1.961M202.736 50.668l-1.927-1.961M199.77 47.649l-1.927-1.961M191.909 39.65l1.927 1.961M188.942 36.631l1.927 1.961M183.009 30.593l1.927 1.961M185.976 33.612l1.927 1.96M204.162 51.31l1.927 1.96M203.123 50.252l-1.927-1.961M200.156 47.233l-1.927-1.961M195.262 42.253l1.927 1.96M189.328 36.215l1.927 1.961M194.222 41.195l-1.927-1.961M186.362 33.196l1.927 1.96M194.876 36.631l1.927 1.961M203.776 45.688l1.927 1.961M208.67 50.668l-1.927-1.961M200.809 42.669l1.927 1.96M199.77 41.611l-1.927-1.961M193.836 35.573l-1.927-1.961M190.869 32.554l-1.927-1.961M206.089 47.233l-1.927-1.961M207.129 48.291l1.927 1.961M212.023 53.27l-1.927-1.96M198.229 39.234l1.927 1.961M203.123 44.214l-1.927-1.961M192.295 33.196l1.927 1.96M197.189 38.176l-1.927-1.961M196.803 32.554l-1.927-1.961M211.637 47.649l-1.927-1.961M212.676 48.707l1.927 1.96M203.776 39.65l1.927 1.961M206.743 42.669l1.927 1.96M197.843 33.612l1.927 1.96M202.736 38.592l-1.927-1.961M204.162 39.234l1.927 1.961M216.029 51.31l1.927 1.96M214.99 50.252l-1.927-1.961M207.129 42.253l1.927 1.96M210.096 45.272l1.927 1.961M201.196 36.215l1.927 1.961M200.156 35.157l-1.927-1.961M211.637 41.611l-1.927-1.961M220.537 50.668l-1.927-1.961M215.643 45.688l1.927 1.961M214.603 44.63l-1.927-1.961M208.67 38.592l-1.927-1.961M205.703 35.573l-1.927-1.961M200.809 30.593l1.927 1.961M206.089 35.157l-1.927-1.961M218.996 48.291l1.927 1.961M221.963 51.31l1.927 1.96M217.956 47.233l-1.927-1.961M214.99 44.214l-1.927-1.961M212.023 41.195l-1.927-1.961M209.056 38.176l-1.927-1.961M209.71 33.612l1.927 1.96M226.47 50.668l-1.927-1.961M218.61 42.669l1.927 1.96M223.504 47.649l-1.927-1.961M215.643 39.65l1.927 1.961M212.676 36.631l1.927 1.961M206.743 30.593l1.927 1.961M218.996 42.253l1.927 1.96M229.823 53.27l-1.927-1.96M226.857 50.252l-1.927-1.961M223.89 47.233l-1.927-1.961M213.063 36.215l1.927 1.961M216.029 39.234l1.927 1.961M210.096 33.196l1.927 1.96M227.51 45.688l1.927 1.961M230.477 48.707l1.927 1.96M224.543 42.669l1.927 1.96M223.504 41.611l-1.927-1.961M220.537 38.592l-1.927-1.961M217.57 35.573l-1.927-1.961M214.603 32.554l-1.927-1.961M220.923 38.176l-1.927-1.961M227.896 45.272l1.927 1.961M221.963 39.234l1.927 1.961M226.857 44.214l-1.927-1.961M217.956 35.157l-1.927-1.961M231.018 48.343l1.719 1.749M235.704 53.11l-1.719-1.748M236.463 48.866l1.719 1.749M235.216 47.596l-1.719-1.75M227.51 39.65l1.927 1.961M232.404 44.63l-1.927-1.961M218.61 30.593l1.927 1.961M221.577 33.612l1.927 1.96M226.47 38.592l-1.927-1.961M229.823 41.195l-1.927-1.961M224.93 36.215l1.927 1.961M223.89 35.157l-1.927-1.961M233.985 45.324l1.719 1.749M232.737 44.054l-1.719-1.75M236.952 48.343l1.719 1.749M241.638 53.11l-1.719-1.748M238.182 44.577l-1.719-1.749M241.149 47.596l-1.719-1.75M242.397 48.866l1.719 1.749M233.497 39.809l1.719 1.749M230.477 36.631l1.927 1.961M229.437 35.573l-1.927-1.961M224.543 30.593l1.927 1.961M227.896 33.196l1.927 1.96M232.694 38.059l-1.719-1.75M239.875 45.367l1.719 1.749M235.704 41.035l-1.719-1.749M238.671 44.054l-1.719-1.75M246.017 51.405l1.511 1.537M243.05 48.386l1.511 1.537M246.918 47.553l-1.511-1.537M249.885 50.572l-1.511-1.537M236.463 36.79l1.719 1.749M239.43 39.809l1.719 1.749M244.159 44.535l-1.719-1.749M233.54 33.729l1.719 1.749M232.404 32.554l-1.927-1.961M233.985 33.248l1.719 1.749M238.671 38.016l-1.719-1.749M241.638 41.035l-1.719-1.749M247.528 46.904l-1.511-1.537M250.494 49.923l-1.511-1.537M244.561 43.885l-1.511-1.537M252.158 51.405l1.303 1.326M255.61 50.573l-1.303-1.326M251.341 46.016l1.511 1.537M245.407 39.978l1.511 1.537M248.374 42.997l1.511 1.537M238.182 32.501l-1.719-1.749M242.397 36.79l1.719 1.749M239.43 33.771l1.719 1.749M239.919 33.248l1.719 1.749M246.017 39.329l1.511 1.537M248.983 42.348l1.511 1.537M244.561 37.847l-1.511-1.537M253.461 46.693l-1.303-1.326M259.395 52.73l-1.303-1.325M255.125 48.386l1.303 1.326M254.307 43.209l1.303 1.326M260.241 49.247l1.303 1.326M258.577 47.554l-1.303-1.326M252.852 41.515l-1.511-1.537M245.407 33.94l1.511 1.537M249.885 38.496l-1.511-1.537M244.116 32.501l-1.719-1.749M247.528 34.828l-1.511-1.537M248.983 36.31l1.511 1.537M252.158 39.329l1.303 1.326M261.058 48.386l1.303 1.326M264.025 51.405l1.303 1.326M258.092 45.367l1.303 1.326M256.428 43.674l-1.303-1.326M255.61 38.497l-1.303-1.326M261.544 44.535l-1.303-1.326M267.477 50.573l-1.303-1.326M264.511 47.554l-1.303-1.326M257.274 40.19l1.303 1.326M252.852 35.477l-1.511-1.537M248.374 30.921l1.511 1.537M253.461 34.617l-1.303-1.326M262.361 43.674l-1.303-1.326M265.328 46.693l-1.303-1.326M259.395 40.655l-1.303-1.326M256.428 37.636l-1.303-1.326M270.167 51.405l1.095 1.114M273.203 50.573l-1.095-1.114M270.236 47.554l-1.095-1.114M254.307 31.133l1.303 1.326M260.241 37.171l1.303 1.326M266.174 43.209l1.303 1.326M263.208 40.19l1.303 1.326M257.274 34.152l1.303 1.326M262.361 37.636l-1.303-1.326M264.025 39.329l1.303 1.326M258.092 33.291l1.303 1.326M271.262 46.48l-1.095-1.113M277.195 52.519l-1.095-1.114M273.133 48.386l1.095 1.114M278.041 49.459l1.095 1.114M276.17 47.554l-1.095-1.114M272.108 43.421l1.095 1.114M269.141 40.402l1.095 1.114M261.544 32.459l-1.303-1.326M267.477 38.497l-1.303-1.326M263.208 34.152l1.303 1.326M265.328 34.617l-1.303-1.326M270.167 39.329l1.095 1.114M276.1 45.367l1.095 1.114M274.228 43.462l-1.095-1.114M282.959 52.308l-.887-.903M279.19 48.386l.887.903M283.805 49.67l.887.903M281.81 47.554l-.887-.903M279.136 44.535l-1.095-1.114M275.075 40.402l1.095 1.114M273.203 38.497l-1.095-1.114M269.141 34.364l1.095 1.114M266.174 31.133l1.303 1.326M285.84 49.289l-.887-.903M271.262 34.405l-1.095-1.114M277.195 40.443l-1.095-1.114M274.228 37.424l-1.095-1.114M282.072 45.367l.887.903M280.077 43.251l-.887-.903M286.687 46.651l.887.903M284.692 44.535l-.887-.903M280.923 40.613l.887.903M278.041 37.383l1.095 1.114M275.075 34.364l1.095 1.114M272.108 31.345l1.095 1.114M284.953 42.348l.887.903M276.1 33.291l1.095 1.114M282.959 40.232l-.887-.903M280.077 37.213l-.887-.903M287.574 41.516l-.887-.903M283.805 37.594l.887.903M280.923 34.575l.887.903M279.136 32.459l-1.095-1.114M284.953 36.31l.887.903M282.072 33.291l.887.903M287.574 35.478l-.887-.903M284.692 32.459l-.887-.903M267.2 48.386l1.095 1.114M268.295 43.462l-1.095-1.114M268.295 37.424 267.2 36.31M101.755 45.367a.593.593 0 0 0 0-.832M239.875 44.535a.594.594 0 0 0 0 .832M173.455 44.214a.52.52 0 0 0 .653 0M176.035 42.253a.514.514 0 0 0 0-.642M174.108 39.65a.51.51 0 0 0-.653 0M171.528 41.611a.514.514 0 0 0 0 .642M173.455 50.252a.52.52 0 0 0 .653 0M176.035 48.29a.514.514 0 0 0 0-.641M174.108 45.688a.51.51 0 0 0-.653 0M171.528 47.649a.514.514 0 0 0 0 .642M173.455 33.612a.514.514 0 0 1 .653 0M176.035 35.573a.514.514 0 0 1 0 .642M174.108 38.176a.52.52 0 0 1-.653 0M171.528 36.215a.514.514 0 0 1 0-.642M174.495 50.668a.514.514 0 0 0 0 .642M176.422 53.271a.52.52 0 0 0 .653 0M179.002 51.31a.514.514 0 0 0 0-.642M177.075 48.707a.51.51 0 0 0-.653 0M174.495 45.272a.514.514 0 0 1 0-.642M176.422 42.669a.51.51 0 0 1 .653 0M179.002 44.63a.514.514 0 0 1 0 .642M177.075 47.233a.52.52 0 0 1-.653 0M174.495 38.592a.514.514 0 0 0 0 .642M176.422 41.195a.52.52 0 0 0 .653 0M179.002 39.234a.514.514 0 0 0 0-.642M177.075 36.63a.514.514 0 0 0-.653 0M174.495 33.2a.514.514 0 0 1 0-.642M176.422 30.593a.51.51 0 0 1 .653 0M179.002 32.554a.514.514 0 0 1 0 .642M177.075 35.157a.52.52 0 0 1-.653 0M180.042 44.214a.52.52 0 0 1-.654 0M177.466 42.253a.514.514 0 0 1 0-.642M179.388 39.65a.515.515 0 0 1 .654 0M181.966 41.611a.514.514 0 0 1 0 .642M180.042 50.252a.52.52 0 0 1-.654 0M177.466 48.29a.514.514 0 0 1 0-.641M179.388 45.688a.515.515 0 0 1 .654 0M181.966 47.649a.514.514 0 0 1 0 .642M180.042 33.612a.515.515 0 0 0-.654 0M177.466 35.573a.514.514 0 0 0 0 .642M179.388 38.176a.52.52 0 0 0 .654 0M181.966 36.215a.514.514 0 0 0 0-.642M197.189 44.214a.52.52 0 0 0 .654 0M199.766 42.253a.51.51 0 0 0 0-.642M197.843 39.65a.515.515 0 0 0-.654 0M195.266 41.611a.514.514 0 0 0 0 .642M197.189 50.252a.52.52 0 0 0 .654 0M199.766 48.29a.51.51 0 0 0 0-.641M197.843 45.688a.515.515 0 0 0-.654 0M195.266 47.649a.514.514 0 0 0 0 .642M197.189 33.612a.515.515 0 0 1 .654 0M199.766 35.573a.51.51 0 0 1 0 .642M197.843 38.176a.52.52 0 0 1-.654 0M195.266 36.215a.514.514 0 0 1 0-.642M198.229 50.668a.514.514 0 0 0 0 .642M200.156 53.271a.52.52 0 0 0 .653 0M202.736 51.31a.514.514 0 0 0 0-.642M200.809 48.707a.51.51 0 0 0-.653 0M198.229 45.272a.514.514 0 0 1 0-.642M200.156 42.669a.514.514 0 0 1 .653 0M202.736 44.63a.514.514 0 0 1 0 .642M200.809 47.233a.52.52 0 0 1-.653 0M198.229 38.592a.514.514 0 0 0 0 .642M200.156 41.195a.52.52 0 0 0 .653 0M202.736 39.234a.514.514 0 0 0 0-.642M200.809 36.63a.51.51 0 0 0-.653 0M198.229 33.2a.514.514 0 0 1 0-.642M200.156 30.593a.51.51 0 0 1 .653 0M202.736 32.554a.514.514 0 0 1 0 .642M200.809 35.157a.52.52 0 0 1-.653 0M203.776 44.214a.52.52 0 0 1-.654 0M201.196 42.253a.51.51 0 0 1 0-.642M203.122 39.65a.515.515 0 0 1 .654 0M205.703 41.611a.514.514 0 0 1 0 .642M203.776 50.252a.52.52 0 0 1-.654 0M201.196 48.29a.51.51 0 0 1 0-.641M203.122 45.688a.515.515 0 0 1 .654 0M205.703 47.649a.514.514 0 0 1 0 .642M203.776 33.612a.515.515 0 0 0-.654 0M201.196 35.573a.51.51 0 0 0 0 .642M203.122 38.176a.52.52 0 0 0 .654 0M205.703 36.215a.514.514 0 0 0 0-.642M191.909 44.214a.52.52 0 0 1-.654 0M189.328 42.253a.514.514 0 0 1 0-.642M191.255 39.65a.515.515 0 0 1 .654 0M193.836 41.611a.514.514 0 0 1 0 .642M191.909 50.252a.52.52 0 0 1-.654 0M189.328 48.29a.514.514 0 0 1 0-.641M191.255 45.688a.515.515 0 0 1 .654 0M193.836 47.649a.514.514 0 0 1 0 .642M196.803 50.668a.514.514 0 0 1 0 .642M194.876 53.271a.52.52 0 0 1-.654 0M192.295 51.31a.514.514 0 0 1 0-.642M194.222 48.707a.515.515 0 0 1 .654 0M196.803 45.272a.514.514 0 0 0 0-.642M194.876 42.669a.515.515 0 0 0-.654 0M192.295 44.63a.514.514 0 0 0 0 .642M194.222 47.233a.52.52 0 0 0 .654 0M196.803 38.592a.514.514 0 0 1 0 .642M194.876 41.195a.52.52 0 0 1-.654 0M192.295 39.234a.514.514 0 0 1 0-.642M194.222 36.63a.515.515 0 0 1 .654 0M191.909 33.612a.515.515 0 0 0-.654 0M189.328 35.573a.514.514 0 0 0 0 .642M191.255 38.176a.52.52 0 0 0 .654 0M193.836 36.215a.514.514 0 0 0 0-.642M196.803 33.2a.514.514 0 0 0 0-.642M194.876 30.593a.515.515 0 0 0-.654 0M192.295 32.554a.514.514 0 0 0 0 .642M194.222 35.157a.52.52 0 0 0 .654 0M190.866 50.668a.514.514 0 0 1 0 .642M188.942 53.271a.52.52 0 0 1-.653 0M186.366 51.31a.514.514 0 0 1 0-.642M188.289 48.707a.51.51 0 0 1 .653 0M190.866 45.272a.514.514 0 0 0 0-.642M188.942 42.669a.514.514 0 0 0-.653 0M186.366 44.63a.514.514 0 0 0 0 .642M188.289 47.233a.52.52 0 0 0 .653 0M190.866 38.592a.514.514 0 0 1 0 .642M188.942 41.195a.52.52 0 0 1-.653 0M186.366 39.234a.514.514 0 0 1 0-.642M188.289 36.63a.51.51 0 0 1 .653 0M190.866 33.2a.514.514 0 0 0 0-.642M188.942 30.593a.51.51 0 0 0-.653 0M186.366 32.554a.514.514 0 0 0 0 .642M188.289 35.157a.52.52 0 0 0 .653 0M185.322 44.214a.52.52 0 0 0 .654 0M187.902 42.253a.51.51 0 0 0 0-.642M185.976 39.65a.515.515 0 0 0-.654 0M183.395 41.611a.514.514 0 0 0 0 .642M185.322 50.252a.52.52 0 0 0 .654 0M187.902 48.29a.51.51 0 0 0 0-.641M185.976 45.688a.515.515 0 0 0-.654 0M183.395 47.649a.514.514 0 0 0 0 .642M180.428 50.668a.514.514 0 0 0 0 .642M182.355 53.271a.52.52 0 0 0 .654 0M184.936 51.31a.514.514 0 0 0 0-.642M183.009 48.707a.515.515 0 0 0-.654 0M180.428 45.272a.514.514 0 0 1 0-.642M182.355 42.669a.515.515 0 0 1 .654 0M184.936 44.63a.514.514 0 0 1 0 .642M183.009 47.233a.52.52 0 0 1-.654 0M180.428 38.592a.514.514 0 0 0 0 .642M182.355 41.195a.52.52 0 0 0 .654 0M184.936 39.234a.514.514 0 0 0 0-.642M183.009 36.63a.515.515 0 0 0-.654 0M185.322 33.612a.515.515 0 0 1 .654 0M187.902 35.573a.51.51 0 0 1 0 .642M185.976 38.176a.52.52 0 0 1-.654 0M183.395 36.215a.514.514 0 0 1 0-.642M180.428 33.2a.514.514 0 0 1 0-.642M182.355 30.593a.515.515 0 0 1 .654 0M184.936 32.554a.514.514 0 0 1 0 .642M183.009 35.157a.52.52 0 0 1-.654 0M215.643 44.214a.52.52 0 0 1-.654 0M213.066 42.253a.51.51 0 0 1 0-.642M214.989 39.65a.515.515 0 0 1 .654 0M217.566 41.611a.514.514 0 0 1 0 .642M215.643 50.252a.52.52 0 0 1-.654 0M213.066 48.29a.51.51 0 0 1 0-.641M214.989 45.688a.515.515 0 0 1 .654 0M217.566 47.649a.514.514 0 0 1 0 .642M215.643 33.612a.515.515 0 0 0-.654 0M213.066 35.573a.51.51 0 0 0 0 .642M214.989 38.176a.52.52 0 0 0 .654 0M217.566 36.215a.514.514 0 0 0 0-.642M214.603 50.668a.514.514 0 0 1 0 .642M212.676 53.271a.52.52 0 0 1-.653 0M210.096 51.31a.514.514 0 0 1 0-.642M212.023 48.707a.51.51 0 0 1 .653 0M214.603 45.272a.514.514 0 0 0 0-.642M212.676 42.669a.51.51 0 0 0-.653 0M210.096 44.63a.514.514 0 0 0 0 .642M212.023 47.233a.52.52 0 0 0 .653 0M214.603 38.592a.514.514 0 0 1 0 .642M212.676 41.195a.52.52 0 0 1-.653 0M210.096 39.234a.514.514 0 0 1 0-.642M212.023 36.63a.514.514 0 0 1 .653 0M214.603 33.2a.514.514 0 0 0 0-.642M212.676 30.593a.51.51 0 0 0-.653 0M210.096 32.554a.514.514 0 0 0 0 .642M212.023 35.157a.52.52 0 0 0 .653 0M209.056 44.214a.52.52 0 0 0 .654 0M211.636 42.253a.51.51 0 0 0 0-.642M209.71 39.65a.515.515 0 0 0-.654 0M207.129 41.611a.514.514 0 0 0 0 .642M209.056 50.252a.52.52 0 0 0 .654 0M211.636 48.29a.51.51 0 0 0 0-.641M209.71 45.688a.515.515 0 0 0-.654 0M207.129 47.649a.514.514 0 0 0 0 .642M204.166 50.668a.514.514 0 0 0 0 .642M206.089 53.271a.52.52 0 0 0 .654 0M208.666 51.31a.514.514 0 0 0 0-.642M206.743 48.707a.515.515 0 0 0-.654 0M204.166 45.272a.514.514 0 0 1 0-.642M206.089 42.669a.515.515 0 0 1 .654 0M208.666 44.63a.514.514 0 0 1 0 .642M206.743 47.233a.52.52 0 0 1-.654 0M204.166 38.592a.514.514 0 0 0 0 .642M206.089 41.195a.52.52 0 0 0 .654 0M208.666 39.234a.514.514 0 0 0 0-.642M206.743 36.63a.515.515 0 0 0-.654 0M209.056 33.612a.515.515 0 0 1 .654 0M211.636 35.573a.51.51 0 0 1 0 .642M209.71 38.176a.52.52 0 0 1-.654 0M207.129 36.215a.514.514 0 0 1 0-.642M204.166 33.2a.514.514 0 0 1 0-.642M206.089 30.593a.515.515 0 0 1 .654 0M208.666 32.554a.514.514 0 0 1 0 .642M206.743 35.157a.52.52 0 0 1-.654 0M220.923 44.214a.52.52 0 0 0 .654 0M223.504 42.253a.514.514 0 0 0 0-.642M221.577 39.65a.515.515 0 0 0-.654 0M218.996 41.611a.514.514 0 0 0 0 .642M220.923 50.252a.52.52 0 0 0 .654 0M223.504 48.29a.514.514 0 0 0 0-.641M221.577 45.688a.515.515 0 0 0-.654 0M218.996 47.649a.514.514 0 0 0 0 .642M216.029 50.668a.514.514 0 0 0 0 .642M217.956 53.271a.52.52 0 0 0 .654 0M220.537 51.31a.514.514 0 0 0 0-.642M218.61 48.707a.515.515 0 0 0-.654 0M216.029 45.272a.514.514 0 0 1 0-.642M217.956 42.669a.515.515 0 0 1 .654 0M220.537 44.63a.514.514 0 0 1 0 .642M218.61 47.233a.52.52 0 0 1-.654 0M216.029 38.592a.514.514 0 0 0 0 .642M217.956 41.195a.52.52 0 0 0 .654 0M220.537 39.234a.514.514 0 0 0 0-.642M218.61 36.63a.515.515 0 0 0-.654 0M220.923 33.612a.515.515 0 0 1 .654 0M223.504 35.573a.514.514 0 0 1 0 .642M221.577 38.176a.52.52 0 0 1-.654 0M218.996 36.215a.514.514 0 0 1 0-.642M216.029 33.2a.514.514 0 0 1 0-.642M217.956 30.593a.515.515 0 0 1 .654 0M220.537 32.554a.514.514 0 0 1 0 .642M218.61 35.157a.52.52 0 0 1-.654 0M221.966 50.668a.514.514 0 0 0 0 .642M223.89 53.271a.52.52 0 0 0 .653 0M226.466 51.31a.514.514 0 0 0 0-.642M224.543 48.707a.51.51 0 0 0-.653 0M221.966 45.272a.514.514 0 0 1 0-.642M223.89 42.669a.514.514 0 0 1 .653 0M226.466 44.63a.514.514 0 0 1 0 .642M224.543 47.233a.52.52 0 0 1-.653 0M221.966 38.592a.514.514 0 0 0 0 .642M223.89 41.195a.52.52 0 0 0 .653 0M226.466 39.234a.514.514 0 0 0 0-.642M224.543 36.63a.51.51 0 0 0-.653 0M221.966 33.2a.514.514 0 0 1 0-.642M223.89 30.593a.51.51 0 0 1 .653 0M226.466 32.554a.514.514 0 0 1 0 .642M224.543 35.157a.52.52 0 0 1-.653 0M227.51 44.214a.52.52 0 0 1-.653 0M224.93 42.253a.514.514 0 0 1 0-.642M226.857 39.65a.51.51 0 0 1 .653 0M229.437 41.611a.514.514 0 0 1 0 .642M301.095 40.02q.18-.163.34-.346.18-.163.339-.345a.594.594 0 0 0 0-.832 4 4 0 0 0-.339-.346 4 4 0 0 0-.34-.345.59.59 0 0 0-.846 0M301.095 43.844q.18.162.34.345.18.163.339.346a.594.594 0 0 1 0 .832q-.16.181-.339.345-.16.183-.34.346a.59.59 0 0 1-.423.177.6.6 0 0 1-.423-.177l-.042-.036M297.366 49.077a4 4 0 0 1-.339-.346 4 4 0 0 1-.34-.345.594.594 0 0 1 0-.832q.16-.184.34-.346.159-.183.339-.345a.59.59 0 0 1 .653-.132q.11.047.194.132M297.366 40.825q-.18.162-.339.345-.18.162-.34.346a.594.594 0 0 0 0 .832q.16.181.34.345.159.183.339.346a.6.6 0 0 0 .847 0l.043-.039M297.366 34.787q-.18.162-.339.345-.18.163-.34.346a.594.594 0 0 0 0 .832q.16.181.34.345.159.183.339.345a.6.6 0 0 0 .847 0l.042-.036M295.332 40.02q.18-.163.339-.346a4 4 0 0 0 .34-.345.594.594 0 0 0 0-.832 4 4 0 0 0-.34-.346 4 4 0 0 0-.339-.345.59.59 0 0 0-.653-.132.6.6 0 0 0-.194.132M295.332 43.844q.18.162.339.345.18.163.34.346a.594.594 0 0 1 0 .832 4 4 0 0 1-.34.345 4 4 0 0 1-.339.346.6.6 0 0 1-.847 0l-.042-.036M295.332 33.982a4 4 0 0 0 .339-.346 4 4 0 0 0 .34-.345.594.594 0 0 0 0-.832 4 4 0 0 0-.34-.346 4 4 0 0 0-.339-.345.59.59 0 0 0-.653-.132.6.6 0 0 0-.194.132M295.332 49.882q.18.162.339.345.18.163.34.346a.594.594 0 0 1 0 .832 4 4 0 0 1-.34.345 4 4 0 0 1-.339.346.6.6 0 0 1-.847 0l-.042-.036M292.45 34.787q.18.162.34.345.18.163.339.346a.594.594 0 0 1 0 .832q-.16.181-.339.345-.16.183-.34.346a.59.59 0 0 1-.423.177.6.6 0 0 1-.423-.177l-.042-.036M292.45 40.825q.18.162.34.345.18.163.339.346a.594.594 0 0 1 0 .832q-.16.181-.339.345-.16.183-.34.346a.59.59 0 0 1-.652.13.6.6 0 0 1-.194-.13l-.038-.039M292.45 49.077q.18-.163.34-.346.179-.163.339-.345a.594.594 0 0 0 0-.832 4 4 0 0 0-.339-.346 4 4 0 0 0-.34-.345.59.59 0 0 0-.846 0l-.042.035M290.247 33.291q-.16.182-.339.345-.16.183-.34.346a.59.59 0 0 1-.423.177.6.6 0 0 1-.423-.177 4 4 0 0 1-.34-.346 5 5 0 0 1-.339-.345.594.594 0 0 1 0-.832M290.247 38.5a4 4 0 0 0-.339-.346 4 4 0 0 0-.34-.345.59.59 0 0 0-.652-.132.6.6 0 0 0-.194.132 4 4 0 0 0-.34.345 4 4 0 0 0-.339.346.594.594 0 0 0 0 .832M290.247 50.573a4 4 0 0 0-.339-.346 4 4 0 0 0-.34-.345.59.59 0 0 0-.652-.132.6.6 0 0 0-.194.132 4 4 0 0 0-.34.345 4 4 0 0 0-.339.346.594.594 0 0 0 0 .832M290.247 45.367q-.16.181-.339.345-.16.183-.34.346a.59.59 0 0 1-.423.177.6.6 0 0 1-.423-.177 4 4 0 0 1-.34-.346 5 5 0 0 1-.339-.345.594.594 0 0 1 0-.832M286.687 34.575a.67.67 0 0 0-.847 0M284.953 35.478a.67.67 0 0 0 0 .832M285.84 37.212a.67.67 0 0 0 .847 0M287.574 36.31a.67.67 0 0 0 0-.832M286.687 40.613a.67.67 0 0 0-.847 0M284.953 41.516a.67.67 0 0 0 0 .832M285.84 43.25a.67.67 0 0 0 .847 0M287.574 42.348a.67.67 0 0 0 0-.832M286.687 49.288a.67.67 0 0 1-.847 0M284.953 48.386a.67.67 0 0 1 0-.832M285.84 46.65a.67.67 0 0 1 .847 0M287.574 47.554a.67.67 0 0 1 0 .832M284.692 33.291a.67.67 0 0 0 0-.832M283.805 31.556a.67.67 0 0 0-.846 0M282.072 32.459a.66.66 0 0 0 0 .832M282.959 34.193a.67.67 0 0 0 .846 0M284.692 38.5a.67.67 0 0 1 0 .832M283.805 40.231a.67.67 0 0 1-.846 0M282.072 39.329a.66.66 0 0 1 0-.832M282.959 37.594a.67.67 0 0 1 .846 0M284.692 50.573a.67.67 0 0 1 0 .832M283.805 52.307a.67.67 0 0 1-.846 0M282.072 51.4a.66.66 0 0 1 0-.832M282.959 49.67a.67.67 0 0 1 .846 0M284.692 45.367a.67.67 0 0 0 0-.832M283.805 43.632a.67.67 0 0 0-.846 0M282.072 44.535a.66.66 0 0 0 0 .832M282.959 46.269a.67.67 0 0 0 .846 0M280.077 34.575a.67.67 0 0 1 .846 0M281.81 35.478a.66.66 0 0 1 0 .832M280.923 37.212a.67.67 0 0 1-.846 0M279.19 36.31a.66.66 0 0 1 0-.832M280.077 40.613a.67.67 0 0 1 .846 0M281.81 41.516a.66.66 0 0 1 0 .832M280.923 43.25a.67.67 0 0 1-.846 0M279.19 42.348a.66.66 0 0 1 0-.832M280.077 49.288a.67.67 0 0 0 .846 0M281.81 48.386a.66.66 0 0 0 0-.832M280.923 46.65a.67.67 0 0 0-.846 0M279.19 47.554a.66.66 0 0 0 0 .832M279.136 33.291a.66.66 0 0 0 0-.832M278.041 31.345a.666.666 0 0 0-.846 0M276.1 32.459a.67.67 0 0 0 0 .832M277.195 34.4a.67.67 0 0 0 .846 0M279.136 38.5a.66.66 0 0 1 0 .832M278.041 40.443a.67.67 0 0 1-.846 0M276.1 39.329a.67.67 0 0 1 0-.832M277.195 37.383a.666.666 0 0 1 .846 0M279.136 50.573a.66.66 0 0 1 0 .832M278.041 52.519a.67.67 0 0 1-.846 0M276.1 51.4a.67.67 0 0 1 0-.832M277.195 49.459a.666.666 0 0 1 .846 0M279.136 45.367a.66.66 0 0 0 0-.832M278.041 43.421a.666.666 0 0 0-.846 0M276.1 44.535a.67.67 0 0 0 0 .832M277.195 46.481a.67.67 0 0 0 .846 0M239.919 51.362a.6.6 0 0 1 0-.746M241.637 48.866a.6.6 0 0 1 .76 0M244.116 50.616a.6.6 0 0 1 0 .746M242.397 53.111a.6.6 0 0 1-.76 0M233.497 45.847a.6.6 0 0 0-.76 0M231.018 47.6a.6.6 0 0 0 0 .746M232.737 50.092a.6.6 0 0 0 .76 0M235.216 48.343a.6.6 0 0 0 0-.746M235.704 48.866a.6.6 0 0 1 .759 0M238.182 50.616a.6.6 0 0 1 0 .746M236.466 53.111a.6.6 0 0 1-.759 0M233.985 51.362a.6.6 0 0 1 0-.746M235.704 47.073a.6.6 0 0 0 .759 0M238.182 45.324a.6.6 0 0 0 0-.746M236.466 42.828a.6.6 0 0 0-.759 0M233.985 44.578a.6.6 0 0 0 0 .746M241.149 48.343a.6.6 0 0 0 0-.746M239.43 45.847a.6.6 0 0 0-.759 0M236.952 47.6a.6.6 0 0 0 0 .746M238.666 50.092a.6.6 0 0 0 .759 0M241.149 41.559a.6.6 0 0 1 0 .746M239.43 44.054a.6.6 0 0 1-.759 0M236.952 42.305a.6.6 0 0 1 0-.746M238.666 39.809a.6.6 0 0 1 .759 0M239.919 39.286a.6.6 0 0 1 0-.746M241.637 36.79a.6.6 0 0 1 .76 0M244.116 38.54a.6.6 0 0 1 0 .746M242.397 41.035a.6.6 0 0 1-.76 0M241.149 35.521a.6.6 0 0 1 0 .746M239.43 38.016a.6.6 0 0 1-.759 0M236.952 36.267a.6.6 0 0 1 0-.746M238.666 33.771a.6.6 0 0 1 .759 0M239.919 32.5a.6.6 0 0 0 0 .746M241.637 35a.6.6 0 0 0 .76 0M244.116 33.248a.6.6 0 0 0 0-.746M242.397 30.752a.6.6 0 0 0-.76 0M233.497 44.054a.6.6 0 0 1-.76 0M231.018 42.305a.6.6 0 0 1 0-.746M232.737 39.809a.6.6 0 0 1 .76 0M235.216 41.559a.6.6 0 0 1 0 .746M235.704 36.79a.6.6 0 0 1 .759 0M238.182 38.54a.6.6 0 0 1 0 .746M236.466 41.035a.6.6 0 0 1-.759 0M233.985 39.286a.6.6 0 0 1 0-.746M235.704 35a.6.6 0 0 0 .759 0M238.182 33.248a.6.6 0 0 0 0-.746M236.466 30.752a.6.6 0 0 0-.759 0M233.985 32.5a.6.6 0 0 0 0 .746M227.51 50.252a.52.52 0 0 1-.653 0M224.93 48.29a.514.514 0 0 1 0-.641M226.857 45.688a.51.51 0 0 1 .653 0M229.437 47.649a.514.514 0 0 1 0 .642M232.404 50.668a.514.514 0 0 1 0 .642M230.477 53.271a.52.52 0 0 1-.654 0M227.896 51.31a.514.514 0 0 1 0-.642M229.823 48.707a.515.515 0 0 1 .654 0M232.404 45.272a.514.514 0 0 0 0-.642M230.477 42.669a.515.515 0 0 0-.654 0M227.896 44.63a.514.514 0 0 0 0 .642M229.823 47.233a.52.52 0 0 0 .654 0M232.404 38.592a.514.514 0 0 1 0 .642M230.477 41.195a.52.52 0 0 1-.654 0M227.896 39.234a.514.514 0 0 1 0-.642M229.823 36.63a.515.515 0 0 1 .654 0M227.51 33.612a.514.514 0 0 0-.653 0M224.93 35.573a.514.514 0 0 0 0 .642M226.857 38.176a.52.52 0 0 0 .653 0M229.437 36.215a.514.514 0 0 0 0-.642M232.404 33.2a.514.514 0 0 0 0-.642M230.477 30.593a.515.515 0 0 0-.654 0M227.896 32.554a.514.514 0 0 0 0 .642M229.823 35.157a.52.52 0 0 0 .654 0M246.017 33.291a.66.66 0 0 1 0-.832M247.527 30.921a.67.67 0 0 1 .847 0M249.885 32.459a.67.67 0 0 1 0 .832M248.374 34.828a.67.67 0 0 1-.847 0M266.174 34.617a.67.67 0 0 1-.846 0M264.025 33.291a.67.67 0 0 1 0-.832M265.328 31.133a.67.67 0 0 1 .846 0M267.477 32.459a.66.66 0 0 1 0 .832M270.166 33.291a.66.66 0 0 1 0-.832M271.266 31.345a.666.666 0 0 1 .846 0M273.203 32.459a.67.67 0 0 1 0 .832M272.108 34.4a.67.67 0 0 1-.846 0M233.54 38.059a.67.67 0 0 1-.846 0M230.975 36.31a.66.66 0 0 1 0-.832M232.694 33.729a.666.666 0 0 1 .846 0M235.259 35.478a.67.67 0 0 1 0 .832M246.918 35.478a.67.67 0 0 1 0 .832M245.407 37.847a.67.67 0 0 1-.846 0M243.05 36.31a.66.66 0 0 1 0-.832M244.561 33.94a.67.67 0 0 1 .846 0M251.341 33.94a.67.67 0 0 0-.847 0M248.983 35.478a.67.67 0 0 0 0 .832M250.494 37.847a.67.67 0 0 0 .847 0M252.852 36.31a.67.67 0 0 0 0-.832M258.577 35.478a.67.67 0 0 1 0 .832M257.274 37.636a.67.67 0 0 1-.846 0M255.125 36.31a.66.66 0 0 1 0-.832M256.428 34.152a.67.67 0 0 1 .846 0M263.208 37.636a.67.67 0 0 1-.847 0M261.058 36.31a.67.67 0 0 1 0-.832M262.366 34.152a.67.67 0 0 1 .847 0M264.511 35.478a.67.67 0 0 1 0 .832M270.236 35.478a.66.66 0 0 1 0 .832M269.141 37.424a.67.67 0 0 1-.846 0M267.2 36.31a.67.67 0 0 1 0-.832M268.295 34.364a.666.666 0 0 1 .846 0M276.166 35.478a.67.67 0 0 1 0 .832M275.075 37.424a.67.67 0 0 1-.847 0M273.133 36.31a.67.67 0 0 1 0-.832M274.228 34.364a.67.67 0 0 1 .847 0M259.395 34.617a.67.67 0 0 0 .846 0M261.544 33.291a.67.67 0 0 0 0-.832M260.241 31.133a.67.67 0 0 0-.846 0M258.092 32.459a.66.66 0 0 0 0 .832M246.918 41.516a.67.67 0 0 1 0 .832M245.407 43.885a.67.67 0 0 1-.846 0M243.05 42.348a.66.66 0 0 1 0-.832M244.561 39.978a.67.67 0 0 1 .846 0M246.017 38.5a.66.66 0 0 0 0 .832M247.527 40.866a.67.67 0 0 0 .847 0M249.885 39.329a.67.67 0 0 0 0-.832M248.374 36.959a.67.67 0 0 0-.847 0M251.341 39.978a.67.67 0 0 0-.847 0M248.983 41.516a.67.67 0 0 0 0 .832M250.494 43.885a.67.67 0 0 0 .847 0M252.852 42.348a.67.67 0 0 0 0-.832M258.577 41.516a.67.67 0 0 1 0 .832M257.274 43.674a.67.67 0 0 1-.846 0M255.125 42.348a.66.66 0 0 1 0-.832M256.428 40.19a.67.67 0 0 1 .846 0M263.208 43.674a.67.67 0 0 1-.847 0M261.058 42.348a.67.67 0 0 1 0-.832M262.366 40.19a.67.67 0 0 1 .847 0M264.511 41.516a.67.67 0 0 1 0 .832M266.174 37.171a.67.67 0 0 0-.846 0M264.025 38.5a.67.67 0 0 0 0 .832M265.328 40.655a.67.67 0 0 0 .846 0M267.477 39.329a.66.66 0 0 0 0-.832M270.236 41.516a.66.66 0 0 1 0 .832M269.141 43.462a.67.67 0 0 1-.846 0M267.2 42.348a.67.67 0 0 1 0-.832M268.295 40.4a.666.666 0 0 1 .846 0M270.166 38.5a.66.66 0 0 0 0 .832M271.266 40.443a.67.67 0 0 0 .846 0M273.203 39.329a.67.67 0 0 0 0-.832M272.108 37.383a.666.666 0 0 0-.846 0M276.166 41.516a.67.67 0 0 1 0 .832M275.075 43.462a.67.67 0 0 1-.847 0M273.133 42.348a.67.67 0 0 1 0-.832M274.228 40.4a.67.67 0 0 1 .847 0M259.395 37.171a.67.67 0 0 1 .846 0M261.544 38.5a.67.67 0 0 1 0 .832M260.241 40.655a.67.67 0 0 1-.846 0M258.092 39.329a.66.66 0 0 1 0-.832M246.017 50.573a.66.66 0 0 0 0 .832M247.527 52.942a.67.67 0 0 0 .847 0M249.885 51.4a.67.67 0 0 0 0-.832M248.374 49.035a.67.67 0 0 0-.847 0M266.174 49.247a.67.67 0 0 0-.846 0M264.025 50.573a.67.67 0 0 0 0 .832M265.328 52.731a.67.67 0 0 0 .846 0M267.477 51.4a.66.66 0 0 0 0-.832M270.166 50.573a.66.66 0 0 0 0 .832M271.266 52.519a.67.67 0 0 0 .846 0M273.203 51.4a.67.67 0 0 0 0-.832M272.108 49.459a.666.666 0 0 0-.846 0M246.918 48.386a.67.67 0 0 0 0-.832M245.407 46.016a.67.67 0 0 0-.846 0M243.05 47.554a.66.66 0 0 0 0 .832M244.561 49.923a.67.67 0 0 0 .846 0M251.341 49.923a.67.67 0 0 1-.847 0M248.983 48.386a.67.67 0 0 1 0-.832M250.494 46.016a.67.67 0 0 1 .847 0M252.852 47.554a.67.67 0 0 1 0 .832M263.208 46.228a.67.67 0 0 0-.847 0M261.058 47.554a.67.67 0 0 0 0 .832M262.366 49.712a.67.67 0 0 0 .847 0M264.511 48.386a.67.67 0 0 0 0-.832M270.236 48.386a.66.66 0 0 0 0-.832M269.141 46.44a.666.666 0 0 0-.846 0M267.2 47.554a.67.67 0 0 0 0 .832M268.295 49.5a.67.67 0 0 0 .846 0M276.166 48.386a.67.67 0 0 0 0-.832M275.075 46.44a.67.67 0 0 0-.847 0M273.133 47.554a.67.67 0 0 0 0 .832M274.228 49.5a.67.67 0 0 0 .847 0M259.395 49.247a.67.67 0 0 1 .846 0M261.544 50.573a.67.67 0 0 1 0 .832M260.241 52.731a.67.67 0 0 1-.846 0M258.092 51.4a.66.66 0 0 1 0-.832M241.594 47.116a.67.67 0 0 0 .846 0M244.159 45.367a.66.66 0 0 0 0-.832M242.44 42.786a.666.666 0 0 0-.846 0M246.017 45.367a.66.66 0 0 1 0-.832M247.527 43a.67.67 0 0 1 .847 0M249.885 44.535a.67.67 0 0 1 0 .832M248.374 46.9a.67.67 0 0 1-.847 0M266.174 46.693a.67.67 0 0 1-.846 0M264.025 45.367a.67.67 0 0 1 0-.832M265.328 43.209a.67.67 0 0 1 .846 0M267.477 44.535a.66.66 0 0 1 0 .832M270.166 45.367a.66.66 0 0 1 0-.832M271.266 43.421a.666.666 0 0 1 .846 0M273.203 44.535a.67.67 0 0 1 0 .832M272.108 46.481a.67.67 0 0 1-.846 0M259.395 46.693a.67.67 0 0 0 .846 0M261.544 45.367a.67.67 0 0 0 0-.832M260.241 43.209a.67.67 0 0 0-.846 0M258.092 44.535a.66.66 0 0 0 0 .832M258.577 48.386a.67.67 0 0 0 0-.832M257.274 46.228a.67.67 0 0 0-.846 0M255.125 47.554a.66.66 0 0 0 0 .832M256.428 49.712a.67.67 0 0 0 .846 0M254.307 34.617a.67.67 0 0 1-.846 0M252.158 33.291a.67.67 0 0 1 0-.832M253.466 31.133a.67.67 0 0 1 .846 0M255.61 32.459a.66.66 0 0 1 0 .832M254.307 37.171a.67.67 0 0 0-.846 0M252.158 38.5a.67.67 0 0 0 0 .832M253.466 40.655a.67.67 0 0 0 .846 0M255.61 39.329a.66.66 0 0 0 0-.832M254.307 49.247a.67.67 0 0 0-.846 0M252.158 50.573a.67.67 0 0 0 0 .832M253.466 52.731a.67.67 0 0 0 .846 0M255.61 51.4a.66.66 0 0 0 0-.832M254.307 46.693a.67.67 0 0 1-.846 0M252.158 45.367a.67.67 0 0 1 0-.832M253.466 43.209a.67.67 0 0 1 .846 0M255.61 44.535a.66.66 0 0 1 0 .832M168.561 50.668a.514.514 0 0 0 0 .642M170.488 53.271a.52.52 0 0 0 .654 0M173.066 51.31a.514.514 0 0 0 0-.642M171.142 48.707a.515.515 0 0 0-.654 0M168.561 45.272a.514.514 0 0 1 0-.642M170.488 42.669a.515.515 0 0 1 .654 0M173.066 44.63a.514.514 0 0 1 0 .642M171.142 47.233a.52.52 0 0 1-.654 0M168.561 38.592a.514.514 0 0 0 0 .642M170.488 41.195a.52.52 0 0 0 .654 0M173.066 39.234a.514.514 0 0 0 0-.642M171.142 36.63a.515.515 0 0 0-.654 0M168.561 33.2a.514.514 0 0 1 0-.642M170.488 30.593a.515.515 0 0 1 .654 0M173.066 32.554a.514.514 0 0 1 0 .642M171.142 35.157a.52.52 0 0 1-.654 0M168.175 44.214a.52.52 0 0 1-.654 0M165.594 42.253a.514.514 0 0 1 0-.642M167.521 39.65a.515.515 0 0 1 .654 0M170.102 41.611a.514.514 0 0 1 0 .642M168.175 50.252a.52.52 0 0 1-.654 0M165.594 48.29a.514.514 0 0 1 0-.641M167.521 45.688a.515.515 0 0 1 .654 0M170.102 47.649a.514.514 0 0 1 0 .642M168.175 33.612a.515.515 0 0 0-.654 0M165.594 35.573a.514.514 0 0 0 0 .642M167.521 38.176a.52.52 0 0 0 .654 0M170.102 36.215a.514.514 0 0 0 0-.642M167.135 50.668a.514.514 0 0 1 0 .642M165.208 53.271a.52.52 0 0 1-.653 0M162.628 51.31a.514.514 0 0 1 0-.642M164.555 48.707a.51.51 0 0 1 .653 0M167.135 45.272a.514.514 0 0 0 0-.642M165.208 42.669a.51.51 0 0 0-.653 0M162.628 44.63a.514.514 0 0 0 0 .642M164.555 47.233a.52.52 0 0 0 .653 0M167.135 38.592a.514.514 0 0 1 0 .642M165.208 41.195a.52.52 0 0 1-.653 0M162.628 39.234a.514.514 0 0 1 0-.642M164.555 36.63a.514.514 0 0 1 .653 0M167.135 33.2a.514.514 0 0 0 0-.642M165.208 30.593a.51.51 0 0 0-.653 0M162.628 32.554a.514.514 0 0 0 0 .642M164.555 35.157a.52.52 0 0 0 .653 0M161.588 44.214a.52.52 0 0 0 .653 0M164.166 42.253a.514.514 0 0 0 0-.642M162.241 39.65a.51.51 0 0 0-.653 0M159.666 41.611a.514.514 0 0 0 0 .642M161.588 50.252a.52.52 0 0 0 .653 0M164.166 48.29a.514.514 0 0 0 0-.641M162.241 45.688a.51.51 0 0 0-.653 0M159.666 47.649a.514.514 0 0 0 0 .642M161.588 33.612a.514.514 0 0 1 .653 0M164.166 35.573a.514.514 0 0 1 0 .642M162.241 38.176a.52.52 0 0 1-.653 0M159.666 36.215a.514.514 0 0 1 0-.642M144.441 44.214a.52.52 0 0 1-.654 0M141.86 42.253a.514.514 0 0 1 0-.642M143.787 39.65a.515.515 0 0 1 .654 0M146.366 41.611a.514.514 0 0 1 0 .642M144.441 50.252a.52.52 0 0 1-.654 0M141.86 48.29a.514.514 0 0 1 0-.641M143.787 45.688a.515.515 0 0 1 .654 0M146.366 47.649a.514.514 0 0 1 0 .642M144.441 33.612a.515.515 0 0 0-.654 0M141.86 35.573a.514.514 0 0 0 0 .642M143.787 38.176a.52.52 0 0 0 .654 0M146.366 36.215a.514.514 0 0 0 0-.642M143.401 50.668a.514.514 0 0 1 0 .642M141.474 53.271a.52.52 0 0 1-.654 0M138.894 51.31a.51.51 0 0 1 0-.642M140.82 48.707a.515.515 0 0 1 .654 0M143.401 45.272a.514.514 0 0 0 0-.642M141.474 42.669a.515.515 0 0 0-.654 0M138.894 44.63a.51.51 0 0 0 0 .642M140.82 47.233a.52.52 0 0 0 .654 0M143.401 38.592a.514.514 0 0 1 0 .642M141.474 41.195a.52.52 0 0 1-.654 0M138.894 39.234a.51.51 0 0 1 0-.642M140.82 36.63a.515.515 0 0 1 .654 0M143.401 33.2a.514.514 0 0 0 0-.642M141.474 30.593a.515.515 0 0 0-.654 0M138.894 32.554a.51.51 0 0 0 0 .642M140.82 35.157a.52.52 0 0 0 .654 0M137.854 44.214a.52.52 0 0 0 .653 0M140.434 42.253a.514.514 0 0 0 0-.642M138.507 39.65a.51.51 0 0 0-.653 0M135.927 41.611a.514.514 0 0 0 0 .642M137.854 50.252a.52.52 0 0 0 .653 0M140.434 48.29a.514.514 0 0 0 0-.641M138.507 45.688a.51.51 0 0 0-.653 0M135.927 47.649a.514.514 0 0 0 0 .642M137.854 33.612a.514.514 0 0 1 .653 0M140.434 35.573a.514.514 0 0 1 0 .642M138.507 38.176a.52.52 0 0 1-.653 0M135.927 36.215a.514.514 0 0 1 0-.642M149.721 44.214a.52.52 0 0 0 .653 0M152.301 42.253a.514.514 0 0 0 0-.642M150.374 39.65a.51.51 0 0 0-.653 0M147.794 41.611a.514.514 0 0 0 0 .642M149.721 50.252a.52.52 0 0 0 .653 0M152.301 48.29a.514.514 0 0 0 0-.641M150.374 45.688a.51.51 0 0 0-.653 0M147.794 47.649a.514.514 0 0 0 0 .642M144.827 50.668a.514.514 0 0 0 0 .642M146.754 53.271a.52.52 0 0 0 .654 0M149.335 51.31a.514.514 0 0 0 0-.642M147.408 48.707a.515.515 0 0 0-.654 0M144.827 45.272a.514.514 0 0 1 0-.642M146.754 42.669a.515.515 0 0 1 .654 0M149.335 44.63a.514.514 0 0 1 0 .642M147.408 47.233a.52.52 0 0 1-.654 0M144.827 38.592a.514.514 0 0 0 0 .642M146.754 41.195a.52.52 0 0 0 .654 0M149.335 39.234a.514.514 0 0 0 0-.642M147.408 36.63a.515.515 0 0 0-.654 0M149.721 33.612a.514.514 0 0 1 .653 0M152.301 35.573a.514.514 0 0 1 0 .642M150.374 38.176a.52.52 0 0 1-.653 0M147.794 36.215a.514.514 0 0 1 0-.642M144.827 33.2a.514.514 0 0 1 0-.642M146.754 30.593a.515.515 0 0 1 .654 0M149.335 32.554a.514.514 0 0 1 0 .642M147.408 35.157a.52.52 0 0 1-.654 0M150.766 50.668a.514.514 0 0 0 0 .642M152.687 53.271a.52.52 0 0 0 .654 0M155.266 51.31a.514.514 0 0 0 0-.642M153.341 48.707a.515.515 0 0 0-.654 0M150.766 45.272a.514.514 0 0 1 0-.642M152.687 42.669a.515.515 0 0 1 .654 0M155.266 44.63a.514.514 0 0 1 0 .642M153.341 47.233a.52.52 0 0 1-.654 0M150.766 38.592a.514.514 0 0 0 0 .642M152.687 41.195a.52.52 0 0 0 .654 0M155.266 39.234a.514.514 0 0 0 0-.642M153.341 36.63a.515.515 0 0 0-.654 0M150.766 33.2a.514.514 0 0 1 0-.642M152.687 30.593a.515.515 0 0 1 .654 0M155.266 32.554a.514.514 0 0 1 0 .642M153.341 35.157a.52.52 0 0 1-.654 0M156.308 44.214a.52.52 0 0 1-.654 0M153.727 42.253a.514.514 0 0 1 0-.642M155.654 39.65a.515.515 0 0 1 .654 0M158.235 41.611a.514.514 0 0 1 0 .642M156.308 50.252a.52.52 0 0 1-.654 0M153.727 48.29a.514.514 0 0 1 0-.641M155.654 45.688a.515.515 0 0 1 .654 0M158.235 47.649a.514.514 0 0 1 0 .642M161.202 50.668a.514.514 0 0 1 0 .642M159.275 53.271a.52.52 0 0 1-.654 0M156.694 51.31a.514.514 0 0 1 0-.642M158.621 48.707a.515.515 0 0 1 .654 0M161.202 45.272a.514.514 0 0 0 0-.642M159.275 42.669a.515.515 0 0 0-.654 0M156.694 44.63a.514.514 0 0 0 0 .642M158.621 47.233a.52.52 0 0 0 .654 0M161.202 38.592a.514.514 0 0 1 0 .642M159.275 41.195a.52.52 0 0 1-.654 0M156.694 39.234a.514.514 0 0 1 0-.642M158.621 36.63a.515.515 0 0 1 .654 0M156.308 33.612a.515.515 0 0 0-.654 0M153.727 35.573a.514.514 0 0 0 0 .642M155.654 38.176a.52.52 0 0 0 .654 0M158.235 36.215a.514.514 0 0 0 0-.642M161.202 33.2a.514.514 0 0 0 0-.642M159.275 30.593a.515.515 0 0 0-.654 0M156.694 32.554a.514.514 0 0 0 0 .642M158.621 35.157a.52.52 0 0 0 .654 0M125.987 44.214a.52.52 0 0 0 .653 0M128.566 42.253a.514.514 0 0 0 0-.642M126.64 39.65a.51.51 0 0 0-.653 0M124.06 41.611a.514.514 0 0 0 0 .642M125.987 50.252a.52.52 0 0 0 .653 0M128.566 48.29a.514.514 0 0 0 0-.641M126.64 45.688a.514.514 0 0 0-.653 0M124.06 47.649a.514.514 0 0 0 0 .642M125.987 33.612a.51.51 0 0 1 .653 0M128.566 35.573a.514.514 0 0 1 0 .642M126.64 38.176a.52.52 0 0 1-.653 0M124.06 36.215a.514.514 0 0 1 0-.642M127.027 50.668a.51.51 0 0 0 0 .642M128.953 53.271a.52.52 0 0 0 .654 0M131.534 51.31a.514.514 0 0 0 0-.642M129.607 48.707a.515.515 0 0 0-.654 0M127.027 45.272a.51.51 0 0 1 0-.642M128.953 42.669a.515.515 0 0 1 .654 0M131.534 44.63a.514.514 0 0 1 0 .642M129.607 47.233a.52.52 0 0 1-.654 0M127.027 38.592a.51.51 0 0 0 0 .642M128.953 41.195a.52.52 0 0 0 .654 0M131.534 39.234a.514.514 0 0 0 0-.642M129.607 36.63a.515.515 0 0 0-.654 0M127.027 33.2a.51.51 0 0 1 0-.642M128.953 30.593a.515.515 0 0 1 .654 0M131.534 32.554a.514.514 0 0 1 0 .642M129.607 35.157a.52.52 0 0 1-.654 0M132.574 44.214a.52.52 0 0 1-.654 0M129.993 42.253a.514.514 0 0 1 0-.642M131.92 39.65a.515.515 0 0 1 .654 0M134.501 41.611a.514.514 0 0 1 0 .642M132.574 50.252a.52.52 0 0 1-.654 0M129.993 48.29a.514.514 0 0 1 0-.641M131.92 45.688a.515.515 0 0 1 .654 0M134.501 47.649a.514.514 0 0 1 0 .642M137.466 50.668a.51.51 0 0 1 0 .642M135.541 53.271a.52.52 0 0 1-.654 0M132.96 51.31a.514.514 0 0 1 0-.642M134.887 48.707a.515.515 0 0 1 .654 0M137.466 45.272a.51.51 0 0 0 0-.642M135.541 42.669a.515.515 0 0 0-.654 0M132.96 44.63a.514.514 0 0 0 0 .642M134.887 47.233a.52.52 0 0 0 .654 0M137.466 38.592a.51.51 0 0 1 0 .642M135.541 41.195a.52.52 0 0 1-.654 0M132.96 39.234a.514.514 0 0 1 0-.642M134.887 36.63a.515.515 0 0 1 .654 0M132.574 33.612a.515.515 0 0 0-.654 0M129.993 35.573a.514.514 0 0 0 0 .642M131.92 38.176a.52.52 0 0 0 .654 0M134.501 36.215a.514.514 0 0 0 0-.642M137.466 33.2a.51.51 0 0 0 0-.642M135.541 30.593a.515.515 0 0 0-.654 0M132.96 32.554a.514.514 0 0 0 0 .642M134.887 35.157a.52.52 0 0 0 .654 0M120.707 44.214a.52.52 0 0 1-.654 0M118.126 42.253a.514.514 0 0 1 0-.642M120.053 39.65a.515.515 0 0 1 .654 0M122.634 41.611a.514.514 0 0 1 0 .642M120.707 50.252a.52.52 0 0 1-.654 0M118.126 48.29a.514.514 0 0 1 0-.641M120.053 45.688a.515.515 0 0 1 .654 0M122.634 47.649a.514.514 0 0 1 0 .642M125.6 50.668a.51.51 0 0 1 0 .642M123.674 53.271a.52.52 0 0 1-.654 0M121.093 51.31a.514.514 0 0 1 0-.642M123.02 48.707a.515.515 0 0 1 .654 0M125.6 45.272a.51.51 0 0 0 0-.642M123.674 42.669a.515.515 0 0 0-.654 0M121.093 44.63a.514.514 0 0 0 0 .642M123.02 47.233a.52.52 0 0 0 .654 0M125.6 38.592a.51.51 0 0 1 0 .642M123.674 41.195a.52.52 0 0 1-.654 0M121.093 39.234a.514.514 0 0 1 0-.642M123.02 36.63a.515.515 0 0 1 .654 0M120.707 33.612a.515.515 0 0 0-.654 0M118.126 35.573a.514.514 0 0 0 0 .642M120.053 38.176a.52.52 0 0 0 .654 0M122.634 36.215a.514.514 0 0 0 0-.642M125.6 33.2a.51.51 0 0 0 0-.642M123.674 30.593a.515.515 0 0 0-.654 0M121.093 32.554a.514.514 0 0 0 0 .642M123.02 35.157a.52.52 0 0 0 .654 0M119.666 50.668a.514.514 0 0 1 0 .642M117.74 53.271a.52.52 0 0 1-.654 0M115.159 51.31a.514.514 0 0 1 0-.642M117.086 48.707a.515.515 0 0 1 .654 0M119.666 45.272a.514.514 0 0 0 0-.642M117.74 42.669a.515.515 0 0 0-.654 0M115.159 44.63a.514.514 0 0 0 0 .642M117.086 47.233a.52.52 0 0 0 .654 0M119.666 38.592a.514.514 0 0 1 0 .642M117.74 41.195a.52.52 0 0 1-.654 0M115.159 39.234a.514.514 0 0 1 0-.642M117.086 36.63a.515.515 0 0 1 .654 0M119.666 33.2a.514.514 0 0 0 0-.642M117.74 30.593a.515.515 0 0 0-.654 0M115.159 32.554a.514.514 0 0 0 0 .642M117.086 35.157a.52.52 0 0 0 .654 0M114.12 44.214a.52.52 0 0 0 .653 0M116.7 42.253a.514.514 0 0 0 0-.642M114.773 39.65a.51.51 0 0 0-.653 0M112.193 41.611a.514.514 0 0 0 0 .642M40.534 40.02a4 4 0 0 1-.339-.346 5 5 0 0 1-.34-.345.594.594 0 0 1 0-.832 4 4 0 0 1 .34-.346q.16-.183.339-.345a.593.593 0 0 1 .847 0l.042.035M40.534 43.844q-.18.162-.339.345a4 4 0 0 0-.34.346.594.594 0 0 0 0 .832q.16.181.34.345.16.183.339.346a.6.6 0 0 0 .847 0l.042-.036M44.266 49.077q.18-.163.339-.346.18-.163.34-.345a.594.594 0 0 0 0-.832 4 4 0 0 0-.34-.346 4 4 0 0 0-.339-.345.593.593 0 0 0-.847 0M44.266 40.825q.18.162.339.345.18.163.34.346a.594.594 0 0 1 0 .832q-.16.181-.34.345-.16.183-.339.346a.6.6 0 0 1-.847 0L43.374 43M44.266 34.787q.18.162.339.345.18.163.34.346a.594.594 0 0 1 0 .832q-.16.181-.34.345-.16.181-.339.345a.6.6 0 0 1-.847 0l-.042-.036M46.298 40.02a4 4 0 0 1-.34-.346 4 4 0 0 1-.339-.345.594.594 0 0 1 0-.832q.16-.183.339-.346.16-.183.34-.345a.593.593 0 0 1 .846 0M46.298 43.844q-.18.162-.34.345-.18.163-.339.346a.594.594 0 0 0 0 .832q.16.181.339.345.16.183.34.346a.593.593 0 0 0 .846 0l.042-.036M46.298 33.982a4 4 0 0 1-.34-.346 4 4 0 0 1-.339-.345.594.594 0 0 1 0-.832q.16-.183.339-.346.16-.183.34-.345a.59.59 0 0 1 .846 0M46.298 49.882q-.18.162-.34.345-.18.163-.339.346a.594.594 0 0 0 0 .832q.16.181.339.345.16.183.34.346a.594.594 0 0 0 .846 0l.042-.036M49.18 34.787a4 4 0 0 0-.34.345q-.18.163-.339.346a.7.7 0 0 0-.171.416c.01.153.07.3.171.416q.16.181.339.345.16.183.34.346a.593.593 0 0 0 .846 0l.04-.036M49.18 40.825q-.18.162-.34.345a4 4 0 0 0-.339.346.59.59 0 0 0 0 .832q.16.181.339.345.16.183.34.346a.595.595 0 0 0 .846 0l.04-.039M49.18 49.077a4 4 0 0 1-.34-.346 4 4 0 0 1-.339-.345.59.59 0 0 1 0-.832q.16-.183.339-.346.16-.183.34-.345a.59.59 0 0 1 .846 0M51.382 33.291q.16.181.34.345.16.183.339.346a.6.6 0 0 0 .847 0 4 4 0 0 0 .339-.346q.18-.163.34-.345a.594.594 0 0 0 0-.832M51.382 38.5a4 4 0 0 1 .34-.346q.16-.183.339-.345a.593.593 0 0 1 .847 0q.18.162.339.345.18.163.34.346a.594.594 0 0 1 0 .832M51.382 50.573a4 4 0 0 1 .34-.346q.16-.183.339-.345a.593.593 0 0 1 .847 0q.18.162.339.345.18.163.34.346a.594.594 0 0 1 0 .832l-.035.042M51.382 45.367q.16.181.34.345.16.183.339.346a.6.6 0 0 0 .847 0 4 4 0 0 0 .339-.346q.18-.163.34-.345a.594.594 0 0 0 0-.832M54.943 34.575a.67.67 0 0 1 .847 0M56.677 35.478a.67.67 0 0 1 0 .832M55.79 37.212a.67.67 0 0 1-.847 0M54.056 36.31a.67.67 0 0 1 0-.832M54.943 40.613a.67.67 0 0 1 .847 0M56.677 41.516a.67.67 0 0 1 0 .832M55.79 43.25a.67.67 0 0 1-.847 0M54.056 42.348a.67.67 0 0 1 0-.832M54.943 49.288a.67.67 0 0 0 .847 0M56.677 48.386a.67.67 0 0 0 0-.832M55.79 46.65a.67.67 0 0 0-.847 0M54.056 47.554a.67.67 0 0 0 0 .832M56.938 33.291a.666.666 0 0 1 0-.832M57.825 31.556a.67.67 0 0 1 .846 0M59.558 32.459a.665.665 0 0 1 0 .832M58.666 34.193a.67.67 0 0 1-.846 0M56.938 38.5a.666.666 0 0 0 0 .832M57.825 40.231a.67.67 0 0 0 .846 0M59.558 39.329a.665.665 0 0 0 0-.832M58.666 37.594a.67.67 0 0 0-.846 0M56.938 50.573a.67.67 0 0 0 0 .832M57.825 52.307a.67.67 0 0 0 .846 0M59.558 51.4a.665.665 0 0 0 0-.832M58.666 49.67a.67.67 0 0 0-.846 0M56.938 45.367a.67.67 0 0 1 0-.832M57.825 43.632a.67.67 0 0 1 .846 0M59.558 44.535a.665.665 0 0 1 0 .832M58.666 46.269a.67.67 0 0 1-.846 0M61.553 34.575a.67.67 0 0 0-.846 0M59.82 35.478a.665.665 0 0 0 0 .832M60.707 37.212a.67.67 0 0 0 .846 0M62.44 36.31a.67.67 0 0 0 0-.832M61.553 40.613a.67.67 0 0 0-.846 0M59.82 41.516a.665.665 0 0 0 0 .832M60.707 43.25a.67.67 0 0 0 .846 0M62.44 42.348a.67.67 0 0 0 0-.832M61.553 49.288a.67.67 0 0 1-.846 0M59.82 48.386a.665.665 0 0 1 0-.832M60.707 46.65a.67.67 0 0 1 .846 0M62.44 47.554a.67.67 0 0 1 0 .832M62.493 33.291a.67.67 0 0 1 0-.832M63.588 31.345a.67.67 0 0 1 .847 0M65.53 32.459a.67.67 0 0 1 0 .832M64.435 34.4a.67.67 0 0 1-.847 0M62.493 38.5a.67.67 0 0 0 0 .832M63.588 40.443a.67.67 0 0 0 .847 0M65.53 39.329a.67.67 0 0 0 0-.832M64.435 37.383a.67.67 0 0 0-.847 0M62.493 50.573a.67.67 0 0 0 0 .832M63.588 52.519a.67.67 0 0 0 .847 0M65.53 51.4a.67.67 0 0 0 0-.832M64.435 49.459a.67.67 0 0 0-.847 0M62.493 45.367a.67.67 0 0 1 0-.832M63.588 43.42a.67.67 0 0 1 .847 0M65.53 44.535a.67.67 0 0 1 0 .832M64.435 46.481a.67.67 0 0 1-.847 0M101.711 51.362a.6.6 0 0 0 0-.746M99.992 48.866a.6.6 0 0 0-.759 0M97.514 50.616a.6.6 0 0 0 0 .746M99.233 53.111a.6.6 0 0 0 .759 0M108.133 45.847a.6.6 0 0 1 .76 0M110.612 47.6a.6.6 0 0 1 0 .746M108.893 50.092a.6.6 0 0 1-.76 0M106.414 48.343a.6.6 0 0 1 0-.746M105.926 48.866a.6.6 0 0 0-.76 0M103.447 50.616a.6.6 0 0 0 0 .746M105.166 53.111a.6.6 0 0 0 .76 0M107.645 51.362a.6.6 0 0 0 0-.746M105.926 47.073a.6.6 0 0 1-.76 0M103.447 45.324a.6.6 0 0 1 0-.746M105.166 42.828a.6.6 0 0 1 .76 0M107.645 44.578a.6.6 0 0 1 0 .746M100.481 48.343a.6.6 0 0 1 0-.746M102.2 45.847a.6.6 0 0 1 .759 0M104.678 47.6a.6.6 0 0 1 0 .746M102.959 50.092a.6.6 0 0 1-.759 0M100.481 41.559a.6.6 0 0 0 0 .746M102.2 44.054a.6.6 0 0 0 .759 0M104.678 42.305a.6.6 0 0 0 0-.746M102.959 39.809a.6.6 0 0 0-.759 0M101.711 39.286a.6.6 0 0 0 0-.746M99.992 36.79a.6.6 0 0 0-.759 0M97.514 38.54a.6.6 0 0 0 0 .746M99.233 41.035a.6.6 0 0 0 .759 0M100.481 35.521a.6.6 0 0 0 0 .746M102.2 38.016a.6.6 0 0 0 .759 0M104.678 36.267a.6.6 0 0 0 0-.746M102.959 33.771a.6.6 0 0 0-.759 0M101.711 32.5a.6.6 0 0 1 0 .746M99.992 35a.6.6 0 0 1-.759 0M97.514 33.248a.6.6 0 0 1 0-.746M99.233 30.752a.6.6 0 0 1 .759 0M108.133 44.054a.6.6 0 0 0 .76 0M110.612 42.305a.6.6 0 0 0 0-.746M108.893 39.809a.6.6 0 0 0-.76 0M106.414 41.559a.6.6 0 0 0 0 .746M105.926 36.79a.6.6 0 0 0-.76 0M103.447 38.54a.6.6 0 0 0 0 .746M105.166 41.035a.6.6 0 0 0 .76 0M107.645 39.286a.6.6 0 0 0 0-.746M105.926 35a.6.6 0 0 1-.76 0M103.447 33.248a.6.6 0 0 1 0-.746M105.166 30.752a.6.6 0 0 1 .76 0M107.645 32.5a.6.6 0 0 1 0 .746M114.12 50.252a.52.52 0 0 0 .653 0M116.7 48.29a.514.514 0 0 0 0-.641M114.773 45.688a.514.514 0 0 0-.653 0M112.193 47.649a.514.514 0 0 0 0 .642M109.226 50.668a.514.514 0 0 0 0 .642M111.153 53.271a.52.52 0 0 0 .653 0M113.733 51.31a.514.514 0 0 0 0-.642M111.806 48.707a.51.51 0 0 0-.653 0M109.226 45.272a.514.514 0 0 1 0-.642M111.153 42.669a.514.514 0 0 1 .653 0M113.733 44.63a.514.514 0 0 1 0 .642M111.806 47.233a.52.52 0 0 1-.653 0M109.226 38.592a.514.514 0 0 0 0 .642M111.153 41.195a.52.52 0 0 0 .653 0M113.733 39.234a.514.514 0 0 0 0-.642M111.806 36.63a.51.51 0 0 0-.653 0M114.12 33.612a.51.51 0 0 1 .653 0M116.7 35.573a.514.514 0 0 1 0 .642M114.773 38.176a.52.52 0 0 1-.653 0M112.193 36.215a.514.514 0 0 1 0-.642M109.226 33.2a.514.514 0 0 1 0-.642M111.153 30.593a.51.51 0 0 1 .653 0M113.733 32.554a.514.514 0 0 1 0 .642M111.806 35.157a.52.52 0 0 1-.653 0M95.613 33.291a.665.665 0 0 0 0-.832M94.102 30.921a.67.67 0 0 0-.846 0M91.745 32.459a.67.67 0 0 0 0 .832M93.256 34.828a.67.67 0 0 0 .846 0M75.455 34.617a.67.67 0 0 0 .847 0M77.605 33.291a.67.67 0 0 0 0-.832M76.302 31.133a.67.67 0 0 0-.847 0M74.152 32.459a.67.67 0 0 0 0 .832M71.466 33.291a.665.665 0 0 0 0-.832M70.366 31.345a.666.666 0 0 0-.846 0M68.427 32.459a.666.666 0 0 0 0 .832M69.522 34.4a.67.67 0 0 0 .846 0M108.09 38.059a.67.67 0 0 0 .846 0M110.655 36.31a.67.67 0 0 0 0-.832M108.936 33.729a.666.666 0 0 0-.846 0M106.371 35.478a.66.66 0 0 0 0 .832M94.712 35.478a.665.665 0 0 0 0 .832M96.223 37.847a.67.67 0 0 0 .846 0M98.58 36.31a.67.67 0 0 0 0-.832M97.066 33.94a.67.67 0 0 0-.846 0M90.289 33.94a.67.67 0 0 1 .847 0M92.646 35.478a.665.665 0 0 1 0 .832M91.136 37.847a.67.67 0 0 1-.847 0M88.778 36.31a.67.67 0 0 1 0-.832M83.053 35.478a.665.665 0 0 0 0 .832M84.356 37.636a.67.67 0 0 0 .846 0M86.505 36.31a.67.67 0 0 0 0-.832M85.202 34.152a.67.67 0 0 0-.846 0M78.422 37.636a.67.67 0 0 0 .846 0M80.566 36.31a.665.665 0 0 0 0-.832M79.266 34.152a.67.67 0 0 0-.846 0M77.119 35.478a.67.67 0 0 0 0 .832M71.394 35.478a.665.665 0 0 0 0 .832M72.489 37.424a.67.67 0 0 0 .846 0M74.43 36.31a.67.67 0 0 0 0-.832M73.335 34.364a.666.666 0 0 0-.846 0M65.46 35.478a.67.67 0 0 0 0 .832M66.555 37.424a.67.67 0 0 0 .846 0M68.496 36.31a.665.665 0 0 0 0-.832M67.401 34.364a.666.666 0 0 0-.846 0M82.235 34.617a.67.67 0 0 1-.846 0M80.086 33.291a.67.67 0 0 1 0-.832M81.389 31.133a.67.67 0 0 1 .846 0M83.538 32.459a.665.665 0 0 1 0 .832M94.712 41.516a.665.665 0 0 0 0 .832M96.223 43.885a.67.67 0 0 0 .846 0M98.58 42.348a.67.67 0 0 0 0-.832M97.066 39.978a.67.67 0 0 0-.846 0M95.613 38.5a.665.665 0 0 1 0 .832M94.102 40.866a.67.67 0 0 1-.846 0M91.745 39.329a.67.67 0 0 1 0-.832M93.256 36.959a.67.67 0 0 1 .846 0M90.289 39.978a.67.67 0 0 1 .847 0M92.646 41.516a.665.665 0 0 1 0 .832M91.136 43.885a.67.67 0 0 1-.847 0M88.778 42.348a.67.67 0 0 1 0-.832M83.053 41.516a.665.665 0 0 0 0 .832M84.356 43.674a.67.67 0 0 0 .846 0M86.505 42.348a.67.67 0 0 0 0-.832M85.202 40.19a.67.67 0 0 0-.846 0M78.422 43.674a.67.67 0 0 0 .846 0M80.566 42.348a.665.665 0 0 0 0-.832M79.266 40.19a.67.67 0 0 0-.846 0M77.119 41.516a.67.67 0 0 0 0 .832M75.455 37.171a.67.67 0 0 1 .847 0M77.605 38.5a.67.67 0 0 1 0 .832M76.302 40.655a.67.67 0 0 1-.847 0M74.152 39.329a.67.67 0 0 1 0-.832M71.394 41.516a.665.665 0 0 0 0 .832M72.489 43.462a.67.67 0 0 0 .846 0M74.43 42.348a.67.67 0 0 0 0-.832M73.335 40.4a.666.666 0 0 0-.846 0M71.466 38.5a.665.665 0 0 1 0 .832M70.366 40.443a.67.67 0 0 1-.846 0M68.427 39.329a.665.665 0 0 1 0-.832M69.522 37.383a.666.666 0 0 1 .846 0M65.46 41.516a.67.67 0 0 0 0 .832M66.555 43.462a.67.67 0 0 0 .846 0M68.496 42.348a.665.665 0 0 0 0-.832M67.401 40.4a.666.666 0 0 0-.846 0M82.235 37.171a.67.67 0 0 0-.846 0M80.086 38.5a.67.67 0 0 0 0 .832M81.389 40.655a.67.67 0 0 0 .846 0M83.538 39.329a.665.665 0 0 0 0-.832M95.613 50.573a.665.665 0 0 1 0 .832M94.102 52.942a.67.67 0 0 1-.846 0M91.745 51.4a.67.67 0 0 1 0-.832M93.256 49.035a.67.67 0 0 1 .846 0M75.455 49.247a.67.67 0 0 1 .847 0M77.605 50.573a.67.67 0 0 1 0 .832M76.302 52.731a.67.67 0 0 1-.847 0M74.152 51.4a.67.67 0 0 1 0-.832M71.466 50.573a.665.665 0 0 1 0 .832M70.366 52.519a.67.67 0 0 1-.846 0M68.427 51.4a.67.67 0 0 1 0-.832M69.522 49.459a.666.666 0 0 1 .846 0M94.712 48.386a.665.665 0 0 1 0-.832M96.223 46.016a.67.67 0 0 1 .846 0M98.58 47.554a.67.67 0 0 1 0 .832M97.066 49.923a.67.67 0 0 1-.846 0M90.289 49.923a.67.67 0 0 0 .847 0M92.646 48.386a.665.665 0 0 0 0-.832M91.136 46.016a.67.67 0 0 0-.847 0M88.778 47.554a.67.67 0 0 0 0 .832M78.422 46.228a.67.67 0 0 1 .846 0M80.566 47.554a.665.665 0 0 1 0 .832M79.266 49.712a.67.67 0 0 1-.846 0M77.119 48.386a.67.67 0 0 1 0-.832M71.394 48.386a.665.665 0 0 1 0-.832M72.489 46.44a.666.666 0 0 1 .846 0M74.43 47.554a.67.67 0 0 1 0 .832M73.335 49.5a.67.67 0 0 1-.846 0M65.46 48.386a.67.67 0 0 1 0-.832M66.555 46.44a.666.666 0 0 1 .846 0M68.496 47.554a.665.665 0 0 1 0 .832M67.401 49.5a.67.67 0 0 1-.846 0M82.235 49.247a.67.67 0 0 0-.846 0M80.086 50.573a.67.67 0 0 0 0 .832M81.389 52.731a.67.67 0 0 0 .846 0M83.538 51.4a.665.665 0 0 0 0-.832M100.036 47.116a.67.67 0 0 1-.847 0M97.466 45.367a.67.67 0 0 1 0-.832M99.189 42.786a.67.67 0 0 1 .847 0M95.613 45.367a.665.665 0 0 0 0-.832M94.102 43a.67.67 0 0 0-.846 0M91.745 44.535a.67.67 0 0 0 0 .832M93.256 46.9a.67.67 0 0 0 .846 0M75.455 46.693a.67.67 0 0 0 .847 0M77.605 45.367a.67.67 0 0 0 0-.832M76.302 43.209a.67.67 0 0 0-.847 0M74.152 44.535a.67.67 0 0 0 0 .832M71.466 45.367a.665.665 0 0 0 0-.832M70.366 43.421a.666.666 0 0 0-.846 0M68.427 44.535a.67.67 0 0 0 0 .832M69.522 46.481a.67.67 0 0 0 .846 0M82.235 46.693a.67.67 0 0 1-.846 0M80.086 45.367a.67.67 0 0 1 0-.832M81.389 43.209a.67.67 0 0 1 .846 0M83.538 44.535a.665.665 0 0 1 0 .832M83.053 48.386a.665.665 0 0 1 0-.832M84.356 46.228a.67.67 0 0 1 .846 0M86.505 47.554a.67.67 0 0 1 0 .832M85.202 49.712a.67.67 0 0 1-.846 0M87.322 34.617a.67.67 0 0 0 .847 0M89.472 33.291a.67.67 0 0 0 0-.832M88.166 31.133a.67.67 0 0 0-.847 0M86.019 32.459a.67.67 0 0 0 0 .832M87.322 37.171a.67.67 0 0 1 .847 0M89.472 38.5a.67.67 0 0 1 0 .832M88.166 40.655a.67.67 0 0 1-.847 0M86.019 39.329a.67.67 0 0 1 0-.832M87.322 49.247a.67.67 0 0 1 .847 0M89.472 50.573a.67.67 0 0 1 0 .832M88.166 52.731a.67.67 0 0 1-.847 0M86.019 51.4a.67.67 0 0 1 0-.832M87.322 46.693a.67.67 0 0 0 .847 0M89.472 45.367a.67.67 0 0 0 0-.832M88.166 43.209a.67.67 0 0 0-.847 0M86.019 44.535a.67.67 0 0 0 0 .832"/><path stroke="#1a1311" stroke-linecap="round" stroke-linejoin="round" stroke-width=".5" d="M300.249 37.806a4 4 0 0 0-.34.345 4 4 0 0 0-.339.346.594.594 0 0 0 0 .832q.16.181.339.345.16.183.34.346a.59.59 0 0 0 .423.177.6.6 0 0 0 .423-.177M300.207 46.022c-.109-.1-.2-.209-.3-.31a5 5 0 0 1-.339-.345.594.594 0 0 1 0-.832q.16-.183.339-.346a4 4 0 0 1 .34-.345.59.59 0 0 1 .652-.132q.11.047.194.132M298.214 46.863q.18.162.339.345.18.163.34.346a.594.594 0 0 1 0 .832q-.16.182-.34.345-.16.183-.339.346a.6.6 0 0 1-.847 0M298.256 43c.109-.1.2-.209.3-.31q.18-.163.34-.345a.594.594 0 0 0 0-.832 4 4 0 0 0-.34-.346 4 4 0 0 0-.339-.345.59.59 0 0 0-.653-.132.6.6 0 0 0-.194.132M298.256 36.965c.109-.1.2-.21.3-.31q.18-.163.34-.345a.594.594 0 0 0 0-.832 4 4 0 0 0-.34-.346 4 4 0 0 0-.339-.345.59.59 0 0 0-.653-.132.6.6 0 0 0-.194.132M294.485 37.806q-.18.162-.339.345-.18.163-.34.346a.594.594 0 0 0 0 .832q.16.181.34.345.159.183.339.346a.6.6 0 0 0 .847 0M294.443 46.022c-.109-.1-.2-.21-.3-.31a4 4 0 0 1-.34-.345.594.594 0 0 1 0-.832q.16-.183.34-.346.159-.183.339-.345a.59.59 0 0 1 .653-.132q.11.047.194.132M294.485 31.768q-.18.162-.339.345a4 4 0 0 0-.34.346.594.594 0 0 0 0 .832q.16.181.34.345.159.183.339.346a.6.6 0 0 0 .847 0M294.443 52.06c-.109-.1-.2-.209-.3-.31a4 4 0 0 1-.34-.345.594.594 0 0 1 0-.832q.16-.183.34-.346.159-.183.339-.345a.59.59 0 0 1 .653-.132q.11.047.194.132M291.566 36.965c-.11-.1-.2-.209-.3-.31a4 4 0 0 1-.339-.345.72.72 0 0 1-.171-.416c.01-.154.07-.3.171-.416a4 4 0 0 1 .339-.346q.16-.183.34-.345a.59.59 0 0 1 .652-.132q.11.047.194.132M291.566 43c-.11-.1-.2-.209-.3-.31a4 4 0 0 1-.339-.345.59.59 0 0 1 0-.832q.159-.183.339-.346.16-.183.34-.345a.59.59 0 0 1 .846 0M291.566 46.9c-.11.1-.2.209-.3.31q-.18.163-.339.346a.59.59 0 0 0 0 .832q.16.182.339.345.16.184.34.346a.59.59 0 0 0 .423.177.6.6 0 0 0 .423-.177M288.043 32.459a4 4 0 0 1 .339-.346 4 4 0 0 1 .34-.345.59.59 0 0 1 .652-.132q.11.047.194.132.18.162.34.345.18.163.339.346a.594.594 0 0 1 0 .832M288.043 39.329q.16.181.339.345.16.183.34.346a.59.59 0 0 0 .423.177.6.6 0 0 0 .423-.177q.18-.163.34-.346.18-.163.339-.345a.594.594 0 0 0 0-.832M288.043 51.4q.16.181.339.345.16.183.34.346a.59.59 0 0 0 .423.177.6.6 0 0 0 .423-.177q.18-.163.34-.346.18-.163.339-.345a.594.594 0 0 0 0-.832M288.043 44.535q.16-.183.339-.346a4 4 0 0 1 .34-.345.59.59 0 0 1 .652-.132q.11.047.194.132.18.162.34.345.18.162.339.346a.594.594 0 0 1 0 .832M41.423 37.84c.109.1.2.21.3.31q.18.164.34.347a.594.594 0 0 1 0 .832q-.16.181-.34.345-.16.183-.339.346a.6.6 0 0 1-.847 0M41.423 46.022c.109-.1.2-.21.3-.31q.18-.163.34-.345a.594.594 0 0 0 0-.832 4 4 0 0 0-.34-.346 4 4 0 0 0-.339-.345.593.593 0 0 0-.847 0M43.416 46.863q-.18.162-.339.345a4 4 0 0 0-.34.346.594.594 0 0 0 0 .832q.16.182.34.345.16.183.339.346a.6.6 0 0 0 .847 0M43.374 43c-.109-.1-.2-.209-.3-.31a5 5 0 0 1-.34-.345.594.594 0 0 1 0-.832 4 4 0 0 1 .34-.346q.16-.183.339-.345a.593.593 0 0 1 .847 0M43.374 36.965c-.109-.1-.2-.21-.3-.31a5 5 0 0 1-.34-.345.594.594 0 0 1 0-.832q.16-.183.34-.346.16-.183.339-.345a.593.593 0 0 1 .847 0M47.144 37.806q.18.162.34.345.18.163.339.346a.59.59 0 0 1 0 .832q-.16.181-.339.345-.16.183-.34.346a.594.594 0 0 1-.846 0M47.186 46.022c.11-.1.2-.209.3-.31q.18-.163.339-.345a.59.59 0 0 0 0-.832 4 4 0 0 0-.339-.346 4 4 0 0 0-.34-.345.59.59 0 0 0-.846 0M47.144 31.768q.18.162.34.345.18.163.339.346a.59.59 0 0 1 0 .832q-.16.182-.339.345-.16.183-.34.346a.594.594 0 0 1-.846 0M47.186 52.06c.11-.1.2-.21.3-.31q.18-.163.339-.345a.59.59 0 0 0 0-.832 4 4 0 0 0-.339-.346 4 4 0 0 0-.34-.345.59.59 0 0 0-.846 0M50.066 36.965c.109-.1.2-.209.3-.31q.18-.163.339-.345a.594.594 0 0 0 0-.832 4 4 0 0 0-.339-.346 4 4 0 0 0-.34-.345.59.59 0 0 0-.846 0M50.066 43c.109-.1.2-.209.3-.31q.18-.163.339-.345a.594.594 0 0 0 0-.832 4 4 0 0 0-.339-.346 4 4 0 0 0-.34-.345.59.59 0 0 0-.846 0M50.026 46.863a4 4 0 0 1 .34.345q.18.163.339.346a.594.594 0 0 1 0 .832q-.16.182-.339.345a4 4 0 0 1-.34.346.594.594 0 0 1-.846 0M53.587 32.459a4 4 0 0 0-.34-.346 4 4 0 0 0-.339-.345.59.59 0 0 0-.847 0q-.18.162-.339.345a4 4 0 0 0-.34.346.594.594 0 0 0 0 .832M53.587 39.329q-.16.181-.34.345-.16.183-.339.346a.6.6 0 0 1-.847 0 4 4 0 0 1-.339-.346 4 4 0 0 1-.34-.345.594.594 0 0 1 0-.832M53.552 51.447c-.1.11-.205.2-.305.3q-.16.183-.339.346a.6.6 0 0 1-.847 0 4 4 0 0 1-.339-.346 4 4 0 0 1-.34-.345.594.594 0 0 1 0-.832M53.587 44.535a4 4 0 0 0-.34-.346 4 4 0 0 0-.339-.345.59.59 0 0 0-.847 0q-.18.162-.339.345-.18.163-.34.346a.594.594 0 0 0 0 .832"/><path stroke="#8e8e8f" stroke-linecap="round" stroke-linejoin="round" stroke-width=".709" d="m268.068 662.673-2.828.001M188.091 662.673l2.829.001M5.413 662.673h182.678M268.068 662.673h68.157"/><path stroke="#1a1311" stroke-linecap="round" stroke-linejoin="round" stroke-width=".709" d="M44.528 744.268h252.581M5.413 44.61v672.011M336.225 716.621V44.61M296.96 5.346H44.677M297.109 744.268a53.3 53.3 0 0 0 14.972-2.1 42.7 42.7 0 0 0 12.691-5.994 32.6 32.6 0 0 0 4.866-4.191 26.5 26.5 0 0 0 3.612-4.782 22.2 22.2 0 0 0 2.222-5.186 20 20 0 0 0 .753-5.392M5.413 716.621c.01 2.419.45 4.817 1.3 7.081a24 24 0 0 0 3.822 6.609M10.54 730.311a35.85 35.85 0 0 0 14.336 10.22 48.5 48.5 0 0 0 9.478 2.787c3.354.633 6.76.952 10.174.95M336.225 44.61A39.27 39.27 0 0 0 296.96 5.346M44.677 5.346A39.263 39.263 0 0 0 5.413 44.61"/><path stroke="#8e8e8f" stroke-linecap="round" stroke-linejoin="round" stroke-width=".5" d="M203.701 651.698h48.756M203.701 663.217v-11.519M203.701 644.555v7.144M192.246 663.211l.007-3.856M192.141 717.585l.105-54.375M263.911 663.217l.105 54.368M263.904 659.355l.007 3.863M252.456 644.555v7.144M252.457 663.217v-11.519M192.253 659.355a1 1 0 0 0-.224-.24 1.8 1.8 0 0 0-1.1-.362M265.233 658.753q-.208 0-.411.045a1.46 1.46 0 0 0-.918.557M192.253 659.355a6.35 6.35 0 0 1 .916-3.168 7.5 7.5 0 0 1 2.539-2.5 10.6 10.6 0 0 1 1.749-.841 17 17 0 0 1 1.961-.607 17.8 17.8 0 0 1 4.283-.544M193.228 660.535a3.965 3.965 0 0 1-.975-1.18M193.874 661.107c-.154-.126-.3-.259-.45-.393M252.457 651.7c1.439.009 2.871.211 4.257.6 1.294.336 2.532.862 3.672 1.561a8.15 8.15 0 0 1 2.55 2.438c.596.91.931 1.967.968 3.054M263.904 659.355q-.165.254-.355.491-.628.758-1.376 1.4"/><path stroke="#1a1311" stroke-linecap="round" stroke-linejoin="round" stroke-width=".709" d="M199.041 722.021h58.079M192.8 718.965q.053.056.108.11M261.334 720.567q.223-.135.431-.292M192.14 718.09q.097.173.212.335M263.866 718.332q.077-.118.148-.242M257.12 722.021a5 5 0 0 0 1.167-.153 9 9 0 0 0 1.094-.337c.679-.26 1.333-.583 1.953-.964M194.825 720.567q.935.572 1.957.966.534.202 1.091.334c.382.097.774.148 1.168.154M203.701 644.555h48.756M190.919 662.674l.006-3.907M265.234 658.75l.006 3.924M265.334 717.464c-.024.335-.022.672-.049 1.006a7 7 0 0 1-.157 1c-.151.674-.37 1.33-.655 1.959a11.7 11.7 0 0 1-1.067 1.866q-.646.93-1.442 1.736a12.5 12.5 0 0 1-1.841 1.534c-.709.483-1.464.893-2.254 1.226a13.9 13.9 0 0 1-5.413 1.1M265.24 662.674l.094 54.79M190.826 717.46q.058-27.393.093-54.786M203.701 728.889c-1.86-.001-3.7-.379-5.41-1.112a12.9 12.9 0 0 1-4.1-2.767 14 14 0 0 1-1.473-1.725q-.642-.876-1.113-1.855a8.7 8.7 0 0 1-.67-1.958 6.6 6.6 0 0 1-.131-1 10 10 0 0 1 .018-1.008M252.456 728.89h-48.755M252.456 644.555c1.969-.008 3.916.42 5.7 1.253a11.6 11.6 0 0 1 4.324 3.551c.531.714.991 1.479 1.373 2.283.368.768.669 1.566.9 2.386.434 1.534.597 3.132.48 4.722M190.925 658.767a13.1 13.1 0 0 1 .686-4.661 18 18 0 0 1 .955-2.348c.382-.793.828-1.555 1.333-2.276a12 12 0 0 1 1.82-2.047 11 11 0 0 1 2.347-1.585 12.7 12.7 0 0 1 5.634-1.295M263.866 718.332c-.266.382-.579.73-.93 1.036a9 9 0 0 1-1.174.907M264.014 718.089a1 1 0 0 1 .214-.256 1.7 1.7 0 0 1 1.106-.373"/><path stroke="#1a1311" stroke-linecap="round" stroke-linejoin="round" stroke-width=".709" d="M190.823 717.459q.21-.001.417.044a1.37 1.37 0 0 1 .9.59M192.352 718.425q.204.287.448.54M194.822 720.564a8 8 0 0 1-1.029-.725c-.3-.245-.6-.5-.885-.764"/><path stroke="#1a1311" stroke-linecap="round" stroke-linejoin="round" stroke-width="2" d="m27.855 759.404 2.723.693M32.821 760.57l3.311.537 3.371.349 3.409.156M30.578 760.098l2.785.561M310.945 760.124l2.725-.688 2.652-.817 2.566-.943 2.469-1.064 2.36-1.181 2.241-1.292 2.113-1.4 1.975-1.5 1.828-1.588 1.673-1.674 1.51-1.752 1.339-1.823 1.161-1.884.978-1.938.791-1.982.6-2.016.406-2.04.209-2.056M308.159 760.679l2.786-.555M305.719 761.078l3.312-.55.823-.187M298.931 761.607l3.414-.168 3.374-.361M1.092 732.411l.2 2.056.4 2.041.592 2.017.782 1.983.97 1.939 1.153 1.886 1.331 1.825 1.5 1.755 1.666 1.677 1.822 1.591 1.969 1.5 2.107 1.4 2.236 1.3 2.355 1.186 2.464 1.069 2.562.948 2.649.822M1.066 731.354l.026 1.057M340.541 732.494l.03-1.14M296.96 1H44.677M1.125 42.356a43 43 0 0 0-.059 2.254M44.677 1q-1.1 0-2.2.056M299.215 1.059A43 43 0 0 0 296.96 1M340.571 44.61q0-1.1-.056-2.2M340.515 42.412a43.6 43.6 0 0 0-41.3-41.353M42.479 1.056a43.61 43.61 0 0 0-41.354 41.3M340.571 731.338V44.61M1.067 44.61v686.728M298.708 761.619H42.912"/><path fill="#8e8e8f" d="M145.372 580.157h-2.847v8.478a2.67 2.67 0 0 1-.462 1.854 2.18 2.18 0 0 1-1.547.484h-2.26a1.94 1.94 0 0 1-1.474-.454 2.69 2.69 0 0 1-.57-1.878v-8.484h-2.828v8.525a6.46 6.46 0 0 0 .956 3.491 3.7 3.7 0 0 0 3.247 1.6h3.728a3.65 3.65 0 0 0 3.217-1.6 6.44 6.44 0 0 0 .84-3.493zM215.166 593.833a6.55 6.55 0 0 0 5.359-1.649 6 6 0 0 0 1.432-2.584c.263-.956.36-1.95.289-2.939 0-1.833-.255-4.115-1.69-5.509s-3.726-1.557-5.553-1.557a15.7 15.7 0 0 0-2.973.25 6.8 6.8 0 0 0-1.464.447 3.2 3.2 0 0 0-.673.4q-.158.124-.284.279a.7.7 0 0 0-.166.361v1.649l.2-.044c1.517-.333 6.96-1.477 8.494-.084.995.928 1.087 2.678 1.087 3.884 0 1-.048 2.909-.8 3.741-.9 1.006-3.362.766-4.433.7l-.31-.018a1.74 1.74 0 0 1-1.381-.634 2.5 2.5 0 0 1-.321-1.485 1.76 1.76 0 0 1 .267-1.024 1.13 1.13 0 0 1 .968-.429h5v-1.655l-.107-.038a22 22 0 0 0-3.663-.591 8.8 8.8 0 0 0-3.553.617c-.59.25-1.101.658-1.475 1.179a3.15 3.15 0 0 0-.536 1.811 4.5 4.5 0 0 0 1.351 3.415 7 7 0 0 0 4.935 1.507M152.445 589.166c1.306.185 2.624.279 3.943.281a6.08 6.08 0 0 0 3.672-.991 4.18 4.18 0 0 0 1.5-3.492 5.16 5.16 0 0 0-1.667-4.062 6.35 6.35 0 0 0-4.187-1.328h-.416c-1.828 0-4.119.216-5.514 1.654-1.378 1.419-1.583 3.718-1.583 5.531v6.87h3.021v-6.859c-.06-1.127.1-2.255.469-3.321.6-1.267 1.944-1.321 3.085-1.321h.678a3.97 3.97 0 0 1 2.3.528 2.69 2.69 0 0 1 .743 2.237c.01.485-.078.966-.257 1.416a1.242 1.242 0 0 1-1.164.847h-4.761v1.988zM171.796 579.872l-.136-.022a29 29 0 0 0-3.413-.276 4.15 4.15 0 0 0-1.912.351c-.6.268-1.128.674-1.54 1.186a6.1 6.1 0 0 0-.985 3.647v8.871h2.962v-8.677a4.55 4.55 0 0 1 .321-2.047c.392-.629 1.408-.592 1.988-.592h2.715zM185.366 590.464c-1.613.48-3.286.73-4.969.744h-.578c-1.1 0-2.549.005-3.312-1.053a6.24 6.24 0 0 1-.723-3.4 8.6 8.6 0 0 1 .476-3.323c.6-1.257 1.958-1.308 3.093-1.308h.677a6.1 6.1 0 0 1 2.183.278 1.27 1.27 0 0 1 .741.881q.135.565.119 1.144a1.37 1.37 0 0 1-.355 1.046 1.6 1.6 0 0 1-1.064.3h-4.764v1.983l.134.023a28 28 0 0 0 3.952.283 7.8 7.8 0 0 0 3.367-.648 3.05 3.05 0 0 0 1.8-2.917 4.48 4.48 0 0 0-1.739-3.868 7.14 7.14 0 0 0-4.108-1.062h-.421c-1.828 0-4.121.216-5.52 1.65-1.384 1.419-1.59 3.719-1.59 5.535 0 1.77.229 3.932 1.518 5.336 1.335 1.454 3.467 1.723 5.277 1.723h.367a15.6 15.6 0 0 0 3.008-.28 8.4 8.4 0 0 0 1.49-.43q.353-.14.668-.352a1.5 1.5 0 0 0 .321-.291.66.66 0 0 0 .157-.4v-1.648zM206.466 584.862a5.76 5.76 0 0 0-.979-3.5 4.12 4.12 0 0 0-3.28-1.563h-1.649a3.984 3.984 0 0 0-2.994 1.164 4.73 4.73 0 0 0-2.953-1.164h-1.531a4 4 0 0 0-1.877.336c-.59.261-1.108.66-1.51 1.164a6 6 0 0 0-1.01 3.561v8.767h2.692v-8.767c-.055-.67.108-1.34.465-1.91a2.24 2.24 0 0 1 1.84-.7 2.7 2.7 0 0 1 1.975.609 2.94 2.94 0 0 1 .533 2v8.767h2.771v-8.767a3.15 3.15 0 0 1 .5-1.9 2.2 2.2 0 0 1 1.828-.73 2.47 2.47 0 0 1 1.921.676c.412.566.61 1.259.559 1.957v8.767h2.7zM124.904 593.818a9.5 9.5 0 0 0 4.213-.783 3.6 3.6 0 0 0 1.6-1.566 4.8 4.8 0 0 0 .461-2.189 3.53 3.53 0 0 0-1.321-2.991 6.84 6.84 0 0 0-3.084-1.094l-3.089-.387a3.1 3.1 0 0 1-.924-.259.86.86 0 0 1-.482-.829 1.9 1.9 0 0 1 .195-.982 1.3 1.3 0 0 1 .876-.488q.902-.143 1.816-.122h.632c1.543.013 3.076.239 4.557.672l.205.057v-1.95l-.018-.034c-.247-.487-1.911-.914-2.328-1.008a11.7 11.7 0 0 0-2.52-.291h-.627a7.94 7.94 0 0 0-3.89.812 3.77 3.77 0 0 0-1.807 3.536 3.1 3.1 0 0 0 .351 1.627c.265.499.663.916 1.149 1.204.955.5 1.996.815 3.068.928l1.374.194c.656.057 1.305.174 1.939.351.294.084.554.259.742.5.13.274.188.576.17.878.022.379-.084.755-.3 1.067a1.64 1.64 0 0 1-.977.523c-.671.11-1.352.155-2.032.136h-.63a12.7 12.7 0 0 1-4.633-1.083l-.225-.095v1.91c0 .25.242.475.415.608q.271.202.577.345a7 7 0 0 0 1.3.465c.873.224 1.771.337 2.672.337z"/><path fill="url(#c)" d="M250.335 673.17h-44.967v43.997h44.967z"/><path stroke="#000" stroke-linecap="round" stroke-linejoin="round" stroke-width=".7" d="M250.335 673.17h-44.967v43.997h44.967z"/><path stroke="gray" stroke-linecap="round" stroke-linejoin="round" stroke-width=".2" d="M252.054 670.682H203.65v48.404h48.404z"/><path stroke="#1a1311" stroke-linecap="round" stroke-linejoin="round" stroke-width=".709" d="M201.319 663.391h53.519M193.173 662.013q-.012.381-.02.761M193.153 662.774q-.015.753-.019 1.505M263.032 664.279q0-1.134-.041-2.266M262.46 661.39q.083 0 .163.019M262.623 661.409a.47.47 0 0 1 .225.139.6.6 0 0 1 .123.287M262.966 661.835q.017.088.02.178M193.173 662.013a.76.76 0 0 1 .108-.419.47.47 0 0 1 .275-.189M193.556 661.405a.7.7 0 0 1 .144-.015M194.814 720.567a4.4 4.4 0 0 1-.667-.507 3.8 3.8 0 0 1-1.248-2.262M192.899 717.8a2 2 0 0 1-.012-.211M263.257 717.587c0 .062 0 .125-.01.187a2.8 2.8 0 0 1-.152.646M263.095 718.42a4 4 0 0 1-.236.533 4.3 4.3 0 0 1-1.094 1.322M193.134 664.279l-.247 53.308M263.257 717.587l-.225-53.308M261.828 661.54q.084-.033.172-.062.223-.08.46-.088M260.886 661.987l.247-.128q.342-.178.7-.319M201.319 663.391q-.81 0-1.615-.089a12.5 12.5 0 0 1-4.433-1.315M260.886 661.987q-.664.345-1.367.6a13.7 13.7 0 0 1-4.681.8"/><path stroke="#1a1311" stroke-linecap="round" stroke-linejoin="round" stroke-width=".709" d="M193.7 661.39q.106.001.211.022M193.911 661.412q.329.073.634.217.37.167.725.358"/><path fill="#8e8e8f" d="m97.935 703.328-4.631-2.671a2.86 2.86 0 0 1-1.42-1.839 2.5 2.5 0 0 1 .545-2.142 3.864 3.864 0 0 1 4.756-.733q4.441 2.559 8.881 5.122a.64.64 0 0 1 .221.175.64.64 0 0 1 .118.537.6.6 0 0 1-.126.252.94.94 0 0 1-1.154.178l-8.88-5.121a1.99 1.99 0 0 0-2.451.377 1.29 1.29 0 0 0-.28 1.1 1.48 1.48 0 0 0 .731.947l4.959 2.861a.67.67 0 0 1 .36.555c.06.713.23 1.413.502 2.074a9 9 0 0 0 1.056 1.925 11.15 11.15 0 0 0 3.437 3.07.62.62 0 0 1 .331.715.6.6 0 0 1-.131.25.88.88 0 0 1-.676.294.93.93 0 0 1-.478-.128 12.7 12.7 0 0 1-3.832-3.393 9.76 9.76 0 0 1-1.838-4.405"/><path fill="#8e8e8f" d="M92.3 711.885a2.3 2.3 0 0 1-1.928-.942l-10.7-15.941a1.58 1.58 0 0 1-.2-1.4 1.93 1.93 0 0 1 1.046-1.113l11.045-5.2a2.6 2.6 0 0 1 1.677-.168c.537.115 1.01.429 1.326.879l4.909 7.313a.58.58 0 0 1 .077.526.74.74 0 0 1-.391.418.919.919 0 0 1-1.13-.265l-4.91-7.312a.54.54 0 0 0-.332-.22.66.66 0 0 0-.421.041l-11.045 5.2a.5.5 0 0 0-.26.279.39.39 0 0 0 .049.351l10.7 15.94a.61.61 0 0 0 .751.176q2.744-1.314 5.481-2.629a.924.924 0 0 1 1.133.257.59.59 0 0 1 .079.526.71.71 0 0 1-.386.421l-5.489 2.633c-.34.154-.708.233-1.081.23M102.334 693.194l-2.981.459a.83.83 0 0 1-.964-.555.6.6 0 0 1 .131-.52.87.87 0 0 1 .533-.288q1.7-.264 3.4-.524a.94.94 0 0 1 .719.178l10.205 8.1a.67.67 0 0 1 .228.313c.466 1.633.622 3.339.461 5.03a14.7 14.7 0 0 1-1.321 4.924.836.836 0 0 1-.773.443 1 1 0 0 1-.3-.047.8.8 0 0 1-.459-.369.58.58 0 0 1-.012-.531 13.42 13.42 0 0 0 .862-8.895z"/><path fill="#a6a7a7" stroke="#a6a7a7" stroke-miterlimit="10" stroke-width=".088" d="M133.539 99.175a4.963 4.963 0 1 0 0-9.926 4.963 4.963 0 0 0 0 9.926Z"/><path stroke="#1a1311" stroke-miterlimit="10" stroke-width="1.044" d="M133.54 109.008c8.172 0 14.796-6.624 14.796-14.796s-6.624-14.796-14.796-14.796-14.796 6.624-14.796 14.796 6.624 14.796 14.796 14.796Z"/><path stroke="#a6a7a7" stroke-miterlimit="10" stroke-width="1.188" d="M133.539 111.049c9.299 0 16.837-7.538 16.837-16.837s-7.538-16.837-16.837-16.837-16.837 7.538-16.837 16.837 7.538 16.837 16.837 16.837Z"/><path fill="#a6a7a7" stroke="#a6a7a7" stroke-miterlimit="10" stroke-width=".088" d="M208.09 99.175a4.963 4.963 0 1 0 0-9.926 4.963 4.963 0 0 0 0 9.926Z"/><path stroke="#1a1311" stroke-miterlimit="10" stroke-width="1.044" d="M208.091 109.008c8.172 0 14.796-6.624 14.796-14.796s-6.624-14.796-14.796-14.796-14.796 6.624-14.796 14.796 6.624 14.796 14.796 14.796Z"/><path stroke="#a6a7a7" stroke-miterlimit="10" stroke-width="1.188" d="M208.09 111.049c9.299 0 16.837-7.538 16.837-16.837s-7.538-16.837-16.837-16.837-16.837 7.538-16.837 16.837 7.538 16.837 16.837 16.837Z"/></g><defs><linearGradient id="b" x1="-3.4" x2="417.198" y1="523.967" y2="358.787" gradientUnits="userSpaceOnUse"><stop stop-color="#bfbfbf"/><stop offset=".141" stop-color="#c2c2c2"/><stop offset=".272" stop-color="#cecece"/><stop offset=".4" stop-color="#e0e0e0"/><stop offset=".526" stop-color="#fbfbfb"/><stop offset=".54" stop-color="#fff"/><stop offset=".542" stop-color="#f1f1f1"/><stop offset=".544" stop-color="#e0e0e0"/><stop offset=".547" stop-color="#d4d4d4"/><stop offset=".551" stop-color="#cdcdcd"/><stop offset=".563" stop-color="#ccc"/><stop offset="1" stop-color="#fff"/></linearGradient><linearGradient id="c" x1="218.139" x2="236.825" y1="721.831" y2="668.249" gradientUnits="userSpaceOnUse"><stop stop-color="#bfbfbf"/><stop offset=".118" stop-color="#c2c2c2"/><stop offset=".229" stop-color="#cecece"/><stop offset=".337" stop-color="#e0e0e0"/><stop offset=".442" stop-color="#fbfbfb"/><stop offset=".455" stop-color="#fff"/><stop offset=".456" stop-color="#f1f1f1"/><stop offset=".46" stop-color="#e0e0e0"/><stop offset=".464" stop-color="#d4d4d4"/><stop offset=".469" stop-color="#cdcdcd"/><stop offset=".485" stop-color="#ccc"/><stop offset="1" stop-color="#fff"/></linearGradient><clipPath id="a"><path fill="#fff" d="M0 0h341.637v762.656H0z"/></clipPath></defs></svg>