<svg xmlns="http://www.w3.org/2000/svg" width="300" height="81" fill="none" viewBox="0 0 300 81"><path fill="#fff" d="M300 0H0v81h300z"/><path fill="#fff" stroke="#231815" stroke-miterlimit="10" stroke-width=".27" d="M30.204 61.951v2.818H211.27V61.95z"/><path fill="#fff" stroke="#231815" stroke-miterlimit="10" stroke-width=".28" d="M30.3 18.461v2.818h203.018V18.46z"/><path fill="#e68011" d="M30.196 57.842v2.818h181.066v-2.818z"/><path fill="#231815" d="M30.196 53.74v2.819h181.066V53.74z"/><path fill="#f4d923" d="M30.204 49.632v2.817H211.27v-2.817z"/><path fill="#727171" d="M30.204 45.522v2.818h198.851v-2.818z"/><path fill="#591f7d" d="M30.196 41.413v2.818h197.688v-2.818z"/><path fill="#8b1c21" d="M30.204 37.32v2.818h199.198V37.32z"/><path fill="#fff" stroke="#231815" stroke-miterlimit="10" stroke-width=".28" d="M30.196 33.203v2.817H230.54v-2.817z"/><path stroke="#231815" stroke-miterlimit="10" stroke-width=".74" d="M30.196 34.616H230.54"/><path stroke="#0068b7" stroke-miterlimit="10" stroke-width="2.6" d="M88.872 24.774a2.445 2.445 0 0 1 2.446 2.447 2.45 2.45 0 0 0 2.446 2.446M98.64 24.774a2.445 2.445 0 0 1 2.447 2.447 2.45 2.45 0 0 0 2.446 2.446M79.095 24.774a2.445 2.445 0 0 1 2.446 2.447 2.45 2.45 0 0 0 2.447 2.446M69.44 24.774a2.445 2.445 0 0 1 2.446 2.447 2.45 2.45 0 0 0 2.446 2.446M59.671 24.774a2.445 2.445 0 0 1 2.446 2.447 2.445 2.445 0 0 0 2.447 2.446M49.903 24.774a2.445 2.445 0 0 1 2.446 2.447 2.445 2.445 0 0 0 2.446 2.446M30.26 23.216h8.897M39.157 23.216c1.615 0 2.93 1.445 2.93 3.221s1.317 3.221 2.931 3.221"/><path stroke="#ffe100" stroke-miterlimit="10" stroke-width="2.6" d="M98.43 29.659a2.445 2.445 0 0 0 2.447-2.447 2.445 2.445 0 0 1 2.446-2.446"/><path stroke="#ffe100" stroke-miterlimit="10" stroke-width="2.6" d="M93.546 24.774a2.445 2.445 0 0 1 2.446 2.447 2.445 2.445 0 0 0 2.447 2.446M88.654 29.659a2.445 2.445 0 0 0 2.446-2.447 2.45 2.45 0 0 1 2.446-2.446"/><path stroke="#ffe100" stroke-miterlimit="10" stroke-width="2.6" d="M83.77 24.774a2.445 2.445 0 0 1 2.446 2.447 2.45 2.45 0 0 0 2.446 2.446"/><path stroke="#ffe100" stroke-miterlimit="10" stroke-width="2.6" d="M78.885 29.659a2.445 2.445 0 0 0 2.447-2.447 2.45 2.45 0 0 1 2.446-2.446"/><path stroke="#ffe100" stroke-miterlimit="10" stroke-width="2.6" d="M74.001 24.774a2.445 2.445 0 0 1 2.446 2.447 2.445 2.445 0 0 0 2.446 2.446"/><path stroke="#ffe100" stroke-miterlimit="10" stroke-width="2.6" d="M69.117 29.659a2.444 2.444 0 0 0 2.446-2.447 2.445 2.445 0 0 1 2.446-2.446M30.3 31.031h8.994M59.348 29.659a2.445 2.445 0 0 0 2.446-2.447 2.445 2.445 0 0 1 2.447-2.446"/><path stroke="#ffe100" stroke-miterlimit="10" stroke-width="2.6" d="M54.464 24.774a2.445 2.445 0 0 1 2.446 2.447 2.445 2.445 0 0 0 2.446 2.446M64.233 24.774a2.445 2.445 0 0 1 2.446 2.447 2.444 2.444 0 0 0 2.446 2.446"/><path stroke="#ffe100" stroke-miterlimit="10" stroke-width="2.6" d="M49.58 29.659a2.444 2.444 0 0 0 2.446-2.447 2.445 2.445 0 0 1 2.446-2.446"/><path stroke="#0068b7" stroke-miterlimit="10" stroke-width="2.6" d="M54.787 29.659a2.444 2.444 0 0 0 2.446-2.447 2.445 2.445 0 0 1 2.446-2.446M64.555 29.659a2.445 2.445 0 0 0 2.447-2.447 2.45 2.45 0 0 1 2.446-2.446M74.211 29.659a2.444 2.444 0 0 0 2.446-2.447 2.45 2.45 0 0 1 2.446-2.446M83.98 29.659a2.445 2.445 0 0 0 2.446-2.447 2.445 2.445 0 0 1 2.446-2.446M93.756 29.659a2.444 2.444 0 0 0 2.446-2.447 2.45 2.45 0 0 1 2.447-2.446"/><path stroke="#ffe100" stroke-miterlimit="10" stroke-width="2.6" d="M44.687 24.774a2.445 2.445 0 0 1 2.447 2.447 2.444 2.444 0 0 0 2.446 2.446M39.294 31.031c1.494 0 2.697-1.397 2.697-3.124s1.21-3.125 2.696-3.125"/><path stroke="#fff" stroke-miterlimit="10" stroke-width=".92" d="m103.686 28.254-2.607 3.108M100.174 23.878l-2.155 2.567M93.861 28.254l-2.608 3.108M90.462 23.814l-2.155 2.567M84.15 28.197l-2.609 3.108M80.807 23.725l-2.156 2.567M74.494 28.1l-2.608 3.109M70.917 23.902l-2.156 2.568M64.604 28.286l-2.608 3.108M61.262 23.846l-2.148 2.567M54.956 28.222 52.35 31.33"/><path stroke="#0068b7" stroke-miterlimit="10" stroke-width="2.6" d="M45.018 29.659a2.445 2.445 0 0 0 2.447-2.447 2.445 2.445 0 0 1 2.446-2.446"/><path stroke="#fff" stroke-miterlimit="10" stroke-width=".92" d="m51.59 23.765-2.148 2.567M45.285 28.149l-2.608 3.108M40.602 21.811l-2.607 3.109M34.951 21.811l-2.608 3.109"/><mask id="a" width="6" height="8" x="98" y="23" maskUnits="userSpaceOnUse" style="mask-type:luminance"><path fill="#fff" d="M98.43 30.7v-2.099c.767 0 1.397-.622 1.397-1.389a3.497 3.497 0 0 1 3.496-3.495v2.099c-.767 0-1.389.621-1.389 1.388a3.497 3.497 0 0 1-3.495 3.496z"/></mask><g mask="url(#a)"><path stroke="#040000" stroke-miterlimit="10" stroke-width=".92" d="m104.97 23.814-2.002 2.39"/></g><mask id="b" width="6" height="8" x="88" y="23" maskUnits="userSpaceOnUse" style="mask-type:luminance"><path fill="#fff" d="M88.654 30.7v-2.099c.767 0 1.397-.622 1.397-1.389a3.497 3.497 0 0 1 3.495-3.495v2.099c-.767 0-1.388.621-1.388 1.388a3.497 3.497 0 0 1-3.496 3.496z"/></mask><g mask="url(#b)"><path stroke="#040000" stroke-miterlimit="10" stroke-width=".92" d="m95.201 23.814-2.002 2.39"/></g><mask id="c" width="6" height="8" x="93" y="23" maskUnits="userSpaceOnUse" style="mask-type:luminance"><path fill="#fff" d="M98.43 30.7a3.497 3.497 0 0 1-3.495-3.496 1.39 1.39 0 0 0-1.397-1.388v-2.1a3.497 3.497 0 0 1 3.496 3.496c0 .767.621 1.389 1.388 1.389V30.7z"/></mask><g mask="url(#c)"><path stroke="#040000" stroke-miterlimit="10" stroke-width=".92" d="m95.201 23.814-2.002 2.39"/></g><mask id="d" width="6" height="8" x="78" y="23" maskUnits="userSpaceOnUse" style="mask-type:luminance"><path fill="#fff" d="M78.885 30.7v-2.099c.767 0 1.397-.622 1.397-1.389a3.497 3.497 0 0 1 3.496-3.495v2.099c-.767 0-1.389.621-1.389 1.388a3.497 3.497 0 0 1-3.496 3.496z"/></mask><g mask="url(#d)"><path stroke="#040000" stroke-miterlimit="10" stroke-width=".92" d="m85.433 23.814-2.01 2.39"/></g><mask id="e" width="6" height="8" x="83" y="23" maskUnits="userSpaceOnUse" style="mask-type:luminance"><path fill="#fff" d="M88.662 30.7a3.497 3.497 0 0 1-3.496-3.496 1.39 1.39 0 0 0-1.396-1.388v-2.1a3.497 3.497 0 0 1 3.495 3.496c0 .767.622 1.389 1.389 1.389V30.7z"/></mask><g mask="url(#e)"><path stroke="#040000" stroke-miterlimit="10" stroke-width=".92" d="m85.433 23.814-2.01 2.39"/></g><mask id="f" width="6" height="8" x="69" y="23" maskUnits="userSpaceOnUse" style="mask-type:luminance"><path fill="#fff" d="M69.117 30.7v-2.099c.767 0 1.396-.622 1.396-1.389a3.497 3.497 0 0 1 3.496-3.495v2.099c-.767 0-1.388.621-1.388 1.388a3.497 3.497 0 0 1-3.496 3.496z"/></mask><g mask="url(#f)"><path stroke="#040000" stroke-miterlimit="10" stroke-width=".92" d="m75.664 23.814-2.01 2.39"/></g><mask id="g" width="6" height="8" x="73" y="23" maskUnits="userSpaceOnUse" style="mask-type:luminance"><path fill="#fff" d="M78.885 30.7a3.497 3.497 0 0 1-3.495-3.496 1.39 1.39 0 0 0-1.397-1.388v-2.1a3.497 3.497 0 0 1 3.496 3.496c0 .767.621 1.389 1.388 1.389V30.7z"/></mask><g mask="url(#g)"><path stroke="#040000" stroke-miterlimit="10" stroke-width=".92" d="m75.664 23.814-2.01 2.39"/></g><mask id="h" width="6" height="8" x="59" y="23" maskUnits="userSpaceOnUse" style="mask-type:luminance"><path fill="#fff" d="M59.348 30.7v-2.099c.767 0 1.397-.622 1.397-1.389a3.497 3.497 0 0 1 3.496-3.495v2.099c-.767 0-1.389.621-1.389 1.388a3.497 3.497 0 0 1-3.496 3.496z"/></mask><g mask="url(#h)"><path stroke="#040000" stroke-miterlimit="10" stroke-width=".92" d="m65.888 23.814-2.003 2.39"/></g><mask id="i" width="6" height="8" x="64" y="23" maskUnits="userSpaceOnUse" style="mask-type:luminance"><path fill="#fff" d="M69.117 30.7a3.497 3.497 0 0 1-3.496-3.496 1.39 1.39 0 0 0-1.397-1.388v-2.1a3.497 3.497 0 0 1 3.496 3.496c0 .767.622 1.389 1.389 1.389V30.7z"/></mask><g mask="url(#i)"><path stroke="#040000" stroke-miterlimit="10" stroke-width=".92" d="m65.888 23.814-2.003 2.39"/></g><mask id="j" width="6" height="8" x="49" y="23" maskUnits="userSpaceOnUse" style="mask-type:luminance"><path fill="#fff" d="M49.58 30.7v-2.099c.767 0 1.396-.622 1.396-1.389a3.497 3.497 0 0 1 3.496-3.495v2.099c-.767 0-1.389.621-1.389 1.388a3.497 3.497 0 0 1-3.495 3.496z"/></mask><g mask="url(#j)"><path stroke="#040000" stroke-miterlimit="10" stroke-width=".92" d="m56.119 23.814-2.002 2.39"/></g><mask id="k" width="6" height="8" x="54" y="23" maskUnits="userSpaceOnUse" style="mask-type:luminance"><path fill="#fff" d="M59.348 30.7a3.497 3.497 0 0 1-3.495-3.496 1.39 1.39 0 0 0-1.397-1.388v-2.1a3.497 3.497 0 0 1 3.496 3.496c0 .767.621 1.389 1.388 1.389V30.7z"/></mask><g mask="url(#k)"><path stroke="#040000" stroke-miterlimit="10" stroke-width=".92" d="m56.119 23.814-2.002 2.39"/></g><mask id="l" width="6" height="8" x="39" y="23" maskUnits="userSpaceOnUse" style="mask-type:luminance"><path fill="#fff" d="M39.803 30.7v-2.099c.767 0 1.397-.622 1.397-1.389a3.497 3.497 0 0 1 3.495-3.495v2.099c-.767 0-1.388.621-1.388 1.388A3.497 3.497 0 0 1 39.81 30.7z"/></mask><g mask="url(#l)"><path stroke="#040000" stroke-miterlimit="10" stroke-width=".92" d="m46.35 23.814-2.002 2.39"/></g><mask id="m" width="6" height="8" x="44" y="23" maskUnits="userSpaceOnUse" style="mask-type:luminance"><path fill="#fff" d="M49.58 30.7a3.497 3.497 0 0 1-3.496-3.496 1.39 1.39 0 0 0-1.397-1.388v-2.1a3.497 3.497 0 0 1 3.496 3.496c0 .767.622 1.389 1.389 1.389V30.7z"/></mask><g mask="url(#m)"><path stroke="#040000" stroke-miterlimit="10" stroke-width=".92" d="m46.35 23.814-2.002 2.39"/></g><mask id="n" width="6" height="8" x="93" y="23" maskUnits="userSpaceOnUse" style="mask-type:luminance"><path fill="#fff" d="M98.43 30.708a3.497 3.497 0 0 1-3.495-3.496c0-.767-.622-1.388-1.389-1.388v-2.1a3.497 3.497 0 0 1 3.496 3.496c0 .767.622 1.389 1.388 1.389z"/></mask><g mask="url(#n)"><path stroke="#040000" stroke-miterlimit="10" stroke-width=".92" d="m98.971 27.794-2.607 3.108"/></g><mask id="o" width="6" height="8" x="98" y="23" maskUnits="userSpaceOnUse" style="mask-type:luminance"><path fill="#fff" d="M98.43 30.708V28.61c.767 0 1.39-.622 1.39-1.389a3.497 3.497 0 0 1 3.495-3.495v2.099c-.767 0-1.389.621-1.389 1.388a3.497 3.497 0 0 1-3.496 3.496"/></mask><g mask="url(#o)"><path stroke="#040000" stroke-miterlimit="10" stroke-width=".92" d="m98.971 27.794-2.607 3.108"/></g><mask id="p" width="6" height="8" x="83" y="23" maskUnits="userSpaceOnUse" style="mask-type:luminance"><path fill="#fff" d="M88.654 30.708a3.497 3.497 0 0 1-3.496-3.496c0-.767-.621-1.388-1.388-1.388v-2.1a3.497 3.497 0 0 1 3.495 3.496c0 .767.622 1.389 1.389 1.389z"/></mask><g mask="url(#p)"><path stroke="#040000" stroke-miterlimit="10" stroke-width=".92" d="m89.203 27.794-2.608 3.108"/></g><mask id="q" width="6" height="8" x="88" y="23" maskUnits="userSpaceOnUse" style="mask-type:luminance"><path fill="#fff" d="M88.654 30.708V28.61c.767 0 1.389-.622 1.389-1.389a3.497 3.497 0 0 1 3.495-3.495v2.099c-.767 0-1.388.621-1.388 1.388a3.497 3.497 0 0 1-3.496 3.496"/></mask><g mask="url(#q)"><path stroke="#040000" stroke-miterlimit="10" stroke-width=".92" d="m89.203 27.794-2.608 3.108"/></g><mask id="r" width="5" height="8" x="74" y="23" maskUnits="userSpaceOnUse" style="mask-type:luminance"><path fill="#fff" d="M78.885 30.708a3.497 3.497 0 0 1-3.495-3.496c0-.767-.622-1.388-1.389-1.388v-2.1a3.497 3.497 0 0 1 3.496 3.496c0 .767.621 1.389 1.388 1.389z"/></mask><g mask="url(#r)"><path stroke="#040000" stroke-miterlimit="10" stroke-width=".92" d="m79.434 27.794-2.607 3.108"/></g><mask id="s" width="6" height="8" x="78" y="23" maskUnits="userSpaceOnUse" style="mask-type:luminance"><path fill="#fff" d="M78.885 30.708V28.61c.767 0 1.389-.622 1.389-1.389a3.497 3.497 0 0 1 3.496-3.495v2.099c-.767 0-1.389.621-1.389 1.388a3.497 3.497 0 0 1-3.496 3.496"/></mask><g mask="url(#s)"><path stroke="#040000" stroke-miterlimit="10" stroke-width=".92" d="m79.434 27.794-2.607 3.108"/></g><path stroke="#0068b7" stroke-miterlimit="10" stroke-width="2.6" d="M118.178 24.774a2.445 2.445 0 0 1 2.446 2.447 2.45 2.45 0 0 0 2.446 2.446M127.946 24.774a2.445 2.445 0 0 1 2.446 2.447 2.45 2.45 0 0 0 2.447 2.446M108.409 24.774a2.445 2.445 0 0 1 2.446 2.447 2.45 2.45 0 0 0 2.446 2.446"/><path stroke="#ffe100" stroke-miterlimit="10" stroke-width="2.6" d="M127.736 29.659a2.445 2.445 0 0 0 2.446-2.447 2.445 2.445 0 0 1 2.447-2.446"/><path stroke="#ffe100" stroke-miterlimit="10" stroke-width="2.6" d="M122.852 24.774a2.445 2.445 0 0 1 2.446 2.447 2.45 2.45 0 0 0 2.446 2.446"/><path stroke="#ffe100" stroke-miterlimit="10" stroke-width="2.6" d="M117.968 29.659a2.445 2.445 0 0 0 2.446-2.447 2.45 2.45 0 0 1 2.446-2.446"/><path stroke="#ffe100" stroke-miterlimit="10" stroke-width="2.6" d="M113.083 24.774a2.445 2.445 0 0 1 2.447 2.447 2.45 2.45 0 0 0 2.446 2.446"/><path stroke="#ffe100" stroke-miterlimit="10" stroke-width="2.6" d="M108.199 29.659a2.445 2.445 0 0 0 2.446-2.447 2.445 2.445 0 0 1 2.446-2.446"/><path stroke="#ffe100" stroke-miterlimit="10" stroke-width="2.6" d="M103.315 24.774a2.445 2.445 0 0 1 2.446 2.447 2.444 2.444 0 0 0 2.446 2.446"/><path stroke="#0068b7" stroke-miterlimit="10" stroke-width="2.6" d="M103.525 29.659a2.445 2.445 0 0 0 2.446-2.447 2.445 2.445 0 0 1 2.446-2.446M113.293 29.659a2.444 2.444 0 0 0 2.446-2.447 2.445 2.445 0 0 1 2.447-2.446M123.062 29.659a2.445 2.445 0 0 0 2.446-2.447 2.445 2.445 0 0 1 2.446-2.446"/><path stroke="#fff" stroke-miterlimit="10" stroke-width=".92" d="m129.488 23.878-2.155 2.567M123.175 28.254l-2.608 3.108M119.768 23.814l-2.147 2.567M113.463 28.197l-2.608 3.108M110.112 23.725l-2.147 2.567"/><mask id="t" width="6" height="8" x="127" y="23" maskUnits="userSpaceOnUse" style="mask-type:luminance"><path fill="#fff" d="M127.736 30.7v-2.099c.767 0 1.397-.622 1.397-1.389a3.497 3.497 0 0 1 3.496-3.495v2.099c-.767 0-1.389.621-1.389 1.388a3.497 3.497 0 0 1-3.496 3.496z"/></mask><g mask="url(#t)"><path stroke="#040000" stroke-miterlimit="10" stroke-width=".92" d="m134.284 23.814-2.003 2.39"/></g><mask id="u" width="6" height="8" x="117" y="23" maskUnits="userSpaceOnUse" style="mask-type:luminance"><path fill="#fff" d="M117.968 30.7v-2.099c.767 0 1.396-.622 1.396-1.389a3.5 3.5 0 0 1 3.496-3.495v2.099c-.767 0-1.389.621-1.389 1.388a3.497 3.497 0 0 1-3.495 3.496z"/></mask><g mask="url(#u)"><path stroke="#040000" stroke-miterlimit="10" stroke-width=".92" d="m124.515 23.814-2.01 2.39"/></g><mask id="v" width="6" height="8" x="122" y="23" maskUnits="userSpaceOnUse" style="mask-type:luminance"><path fill="#fff" d="M127.736 30.7a3.497 3.497 0 0 1-3.495-3.496 1.39 1.39 0 0 0-1.397-1.388v-2.1a3.5 3.5 0 0 1 3.496 3.496c0 .767.621 1.389 1.388 1.389V30.7z"/></mask><g mask="url(#v)"><path stroke="#040000" stroke-miterlimit="10" stroke-width=".92" d="m124.515 23.814-2.01 2.39"/></g><mask id="w" width="6" height="8" x="108" y="23" maskUnits="userSpaceOnUse" style="mask-type:luminance"><path fill="#fff" d="M108.199 30.7v-2.099c.767 0 1.397-.622 1.397-1.389a3.497 3.497 0 0 1 3.495-3.495v2.099c-.766 0-1.388.621-1.388 1.388a3.497 3.497 0 0 1-3.496 3.496z"/></mask><g mask="url(#w)"><path stroke="#040000" stroke-miterlimit="10" stroke-width=".92" d="m114.746 23.814-2.01 2.39"/></g><mask id="x" width="5" height="8" x="113" y="23" maskUnits="userSpaceOnUse" style="mask-type:luminance"><path fill="#fff" d="M117.968 30.7a3.497 3.497 0 0 1-3.496-3.496 1.39 1.39 0 0 0-1.397-1.388v-2.1a3.497 3.497 0 0 1 3.496 3.496c0 .767.622 1.389 1.389 1.389V30.7z"/></mask><g mask="url(#x)"><path stroke="#040000" stroke-miterlimit="10" stroke-width=".92" d="m114.746 23.814-2.01 2.39"/></g><mask id="y" width="6" height="8" x="103" y="23" maskUnits="userSpaceOnUse" style="mask-type:luminance"><path fill="#fff" d="M108.199 30.7a3.5 3.5 0 0 1-3.496-3.496 1.39 1.39 0 0 0-1.396-1.388v-2.1a3.497 3.497 0 0 1 3.495 3.496c0 .767.622 1.389 1.389 1.389V30.7z"/></mask><g mask="url(#y)"><path stroke="#040000" stroke-miterlimit="10" stroke-width=".92" d="m104.97 23.814-2.002 2.39"/></g><mask id="z" width="6" height="8" x="122" y="23" maskUnits="userSpaceOnUse" style="mask-type:luminance"><path fill="#fff" d="M127.736 30.708a3.497 3.497 0 0 1-3.495-3.496c0-.767-.622-1.388-1.389-1.388v-2.1a3.5 3.5 0 0 1 3.496 3.496c0 .767.621 1.389 1.388 1.389z"/></mask><g mask="url(#z)"><path stroke="#040000" stroke-miterlimit="10" stroke-width=".92" d="m128.285 27.794-2.607 3.108"/></g><mask id="A" width="6" height="8" x="127" y="23" maskUnits="userSpaceOnUse" style="mask-type:luminance"><path fill="#fff" d="M127.736 30.708V28.61c.767 0 1.389-.622 1.389-1.389a3.497 3.497 0 0 1 3.496-3.495v2.099c-.767 0-1.389.621-1.389 1.388a3.497 3.497 0 0 1-3.496 3.496"/></mask><g mask="url(#A)"><path stroke="#040000" stroke-miterlimit="10" stroke-width=".92" d="m128.285 27.794-2.607 3.108"/></g><mask id="B" width="5" height="8" x="113" y="23" maskUnits="userSpaceOnUse" style="mask-type:luminance"><path fill="#fff" d="M117.968 30.708a3.497 3.497 0 0 1-3.496-3.496c0-.767-.622-1.388-1.389-1.388v-2.1a3.497 3.497 0 0 1 3.496 3.496c0 .767.622 1.389 1.389 1.389z"/></mask><g mask="url(#B)"><path stroke="#040000" stroke-miterlimit="10" stroke-width=".92" d="m118.517 27.794-2.608 3.108"/></g><mask id="C" width="6" height="8" x="117" y="23" maskUnits="userSpaceOnUse" style="mask-type:luminance"><path fill="#fff" d="M117.968 30.708V28.61c.767 0 1.388-.622 1.388-1.389a3.497 3.497 0 0 1 3.496-3.495v2.099c-.767 0-1.389.621-1.389 1.388a3.497 3.497 0 0 1-3.495 3.496"/></mask><g mask="url(#C)"><path stroke="#040000" stroke-miterlimit="10" stroke-width=".92" d="m118.517 27.794-2.608 3.108"/></g><mask id="D" width="6" height="8" x="103" y="23" maskUnits="userSpaceOnUse" style="mask-type:luminance"><path fill="#fff" d="M108.199 30.708a3.5 3.5 0 0 1-3.496-3.496c0-.767-.621-1.388-1.388-1.388v-2.1a3.5 3.5 0 0 1 3.496 3.496c0 .767.621 1.389 1.388 1.389z"/></mask><g mask="url(#D)"><path stroke="#040000" stroke-miterlimit="10" stroke-width=".92" d="m108.748 27.794-2.608 3.108"/></g><mask id="E" width="6" height="8" x="108" y="23" maskUnits="userSpaceOnUse" style="mask-type:luminance"><path fill="#fff" d="M108.199 30.708V28.61c.767 0 1.389-.622 1.389-1.389a3.497 3.497 0 0 1 3.495-3.495v2.099c-.767 0-1.388.621-1.388 1.388a3.497 3.497 0 0 1-3.496 3.496"/></mask><g mask="url(#E)"><path stroke="#040000" stroke-miterlimit="10" stroke-width=".92" d="m108.748 27.794-2.608 3.108"/></g><path stroke="#0068b7" stroke-miterlimit="10" stroke-width="2.6" d="M147.491 24.774a2.445 2.445 0 0 1 2.447 2.447 2.45 2.45 0 0 0 2.446 2.446M157.26 24.774a2.445 2.445 0 0 1 2.446 2.447 2.444 2.444 0 0 0 2.446 2.446M137.723 24.774a2.445 2.445 0 0 1 2.446 2.447 2.444 2.444 0 0 0 2.446 2.446"/><path stroke="#ffe100" stroke-miterlimit="10" stroke-width="2.6" d="M157.05 29.659a2.445 2.445 0 0 0 2.446-2.447 2.445 2.445 0 0 1 2.446-2.446"/><path stroke="#ffe100" stroke-miterlimit="10" stroke-width="2.6" d="M152.166 24.774a2.445 2.445 0 0 1 2.446 2.447 2.444 2.444 0 0 0 2.446 2.446"/><path stroke="#ffe100" stroke-miterlimit="10" stroke-width="2.6" d="M147.281 29.659a2.445 2.445 0 0 0 2.447-2.447 2.45 2.45 0 0 1 2.446-2.446"/><path stroke="#ffe100" stroke-miterlimit="10" stroke-width="2.6" d="M142.397 24.774a2.445 2.445 0 0 1 2.446 2.447 2.45 2.45 0 0 0 2.447 2.446"/><path stroke="#ffe100" stroke-miterlimit="10" stroke-width="2.6" d="M137.513 29.659a2.445 2.445 0 0 0 2.446-2.447 2.45 2.45 0 0 1 2.446-2.446"/><path stroke="#ffe100" stroke-miterlimit="10" stroke-width="2.6" d="M132.629 24.774a2.445 2.445 0 0 1 2.446 2.447 2.444 2.444 0 0 0 2.446 2.446"/><path stroke="#0068b7" stroke-miterlimit="10" stroke-width="2.6" d="M132.839 29.659a2.445 2.445 0 0 0 2.446-2.447 2.45 2.45 0 0 1 2.446-2.446M142.607 29.659a2.445 2.445 0 0 0 2.446-2.447 2.45 2.45 0 0 1 2.446-2.446M152.376 29.659a2.445 2.445 0 0 0 2.446-2.447 2.45 2.45 0 0 1 2.446-2.446"/><path stroke="#fff" stroke-miterlimit="10" stroke-width=".92" d="m162.314 28.254-2.608 3.108M158.802 23.878l-2.156 2.567M152.489 28.254l-2.608 3.108M149.082 23.814l-2.156 2.567M142.769 28.197l-2.608 3.108M139.426 23.725l-2.155 2.567"/><mask id="F" width="5" height="8" x="157" y="23" maskUnits="userSpaceOnUse" style="mask-type:luminance"><path fill="#fff" d="M157.05 30.7v-2.099c.767 0 1.397-.622 1.397-1.389a3.497 3.497 0 0 1 3.495-3.495v2.099c-.767 0-1.388.621-1.388 1.388a3.497 3.497 0 0 1-3.496 3.496z"/></mask><g mask="url(#F)"><path stroke="#040000" stroke-miterlimit="10" stroke-width=".92" d="m163.597 23.814-2.01 2.39"/></g><mask id="G" width="6" height="8" x="147" y="23" maskUnits="userSpaceOnUse" style="mask-type:luminance"><path fill="#fff" d="M147.281 30.7v-2.099c.767 0 1.397-.622 1.397-1.389a3.497 3.497 0 0 1 3.496-3.495v2.099c-.767 0-1.389.621-1.389 1.388a3.497 3.497 0 0 1-3.495 3.496z"/></mask><g mask="url(#G)"><path stroke="#040000" stroke-miterlimit="10" stroke-width=".92" d="m153.829 23.814-2.01 2.39"/></g><mask id="H" width="6" height="8" x="152" y="23" maskUnits="userSpaceOnUse" style="mask-type:luminance"><path fill="#fff" d="M157.05 30.7a3.5 3.5 0 0 1-3.496-3.496 1.39 1.39 0 0 0-1.396-1.388v-2.1a3.497 3.497 0 0 1 3.495 3.496c0 .767.622 1.389 1.389 1.389V30.7z"/></mask><g mask="url(#H)"><path stroke="#040000" stroke-miterlimit="10" stroke-width=".92" d="m153.829 23.814-2.01 2.39"/></g><mask id="I" width="6" height="8" x="137" y="23" maskUnits="userSpaceOnUse" style="mask-type:luminance"><path fill="#fff" d="M137.513 30.7v-2.099c.767 0 1.397-.622 1.397-1.389a3.497 3.497 0 0 1 3.495-3.495v2.099c-.767 0-1.388.621-1.388 1.388a3.5 3.5 0 0 1-3.496 3.496z"/></mask><g mask="url(#I)"><path stroke="#040000" stroke-miterlimit="10" stroke-width=".92" d="m144.052 23.814-2.002 2.39"/></g><mask id="J" width="6" height="8" x="142" y="23" maskUnits="userSpaceOnUse" style="mask-type:luminance"><path fill="#fff" d="M147.281 30.7a3.497 3.497 0 0 1-3.495-3.496 1.39 1.39 0 0 0-1.397-1.388v-2.1a3.497 3.497 0 0 1 3.496 3.496c0 .767.621 1.389 1.388 1.389V30.7z"/></mask><g mask="url(#J)"><path stroke="#040000" stroke-miterlimit="10" stroke-width=".92" d="m144.052 23.814-2.002 2.39"/></g><mask id="K" width="6" height="8" x="132" y="23" maskUnits="userSpaceOnUse" style="mask-type:luminance"><path fill="#fff" d="M137.513 30.7a3.497 3.497 0 0 1-3.496-3.496 1.39 1.39 0 0 0-1.396-1.388v-2.1a3.497 3.497 0 0 1 3.495 3.496c0 .767.622 1.389 1.389 1.389V30.7z"/></mask><g mask="url(#K)"><path stroke="#040000" stroke-miterlimit="10" stroke-width=".92" d="m134.284 23.814-2.003 2.39"/></g><mask id="L" width="6" height="8" x="152" y="23" maskUnits="userSpaceOnUse" style="mask-type:luminance"><path fill="#fff" d="M157.05 30.708a3.5 3.5 0 0 1-3.496-3.496c0-.767-.621-1.388-1.388-1.388v-2.1a3.497 3.497 0 0 1 3.495 3.496c0 .767.622 1.389 1.389 1.389z"/></mask><g mask="url(#L)"><path stroke="#040000" stroke-miterlimit="10" stroke-width=".92" d="m157.599 27.794-2.608 3.108"/></g><mask id="M" width="5" height="8" x="157" y="23" maskUnits="userSpaceOnUse" style="mask-type:luminance"><path fill="#fff" d="M157.05 30.708V28.61c.767 0 1.389-.622 1.389-1.389a3.497 3.497 0 0 1 3.495-3.495v2.099c-.767 0-1.388.621-1.388 1.388a3.497 3.497 0 0 1-3.496 3.496"/></mask><g mask="url(#M)"><path stroke="#040000" stroke-miterlimit="10" stroke-width=".92" d="m157.599 27.794-2.608 3.108"/></g><mask id="N" width="6" height="8" x="142" y="23" maskUnits="userSpaceOnUse" style="mask-type:luminance"><path fill="#fff" d="M147.281 30.708a3.497 3.497 0 0 1-3.495-3.496c0-.767-.622-1.388-1.389-1.388v-2.1a3.497 3.497 0 0 1 3.496 3.496c0 .767.622 1.389 1.388 1.389z"/></mask><g mask="url(#N)"><path stroke="#040000" stroke-miterlimit="10" stroke-width=".92" d="m147.83 27.794-2.607 3.108"/></g><mask id="O" width="6" height="8" x="147" y="23" maskUnits="userSpaceOnUse" style="mask-type:luminance"><path fill="#fff" d="M147.281 30.708V28.61c.767 0 1.389-.622 1.389-1.389a3.497 3.497 0 0 1 3.496-3.495v2.099c-.767 0-1.389.621-1.389 1.388a3.497 3.497 0 0 1-3.496 3.496"/></mask><g mask="url(#O)"><path stroke="#040000" stroke-miterlimit="10" stroke-width=".92" d="m147.83 27.794-2.607 3.108"/></g><mask id="P" width="6" height="8" x="132" y="23" maskUnits="userSpaceOnUse" style="mask-type:luminance"><path fill="#fff" d="M137.513 30.708a3.497 3.497 0 0 1-3.496-3.496c0-.767-.621-1.388-1.388-1.388v-2.1a3.497 3.497 0 0 1 3.495 3.496c0 .767.622 1.389 1.389 1.389z"/></mask><g mask="url(#P)"><path stroke="#040000" stroke-miterlimit="10" stroke-width=".92" d="m138.054 27.794-2.608 3.108"/></g><mask id="Q" width="6" height="8" x="137" y="23" maskUnits="userSpaceOnUse" style="mask-type:luminance"><path fill="#fff" d="M137.513 30.708V28.61c.767 0 1.388-.622 1.388-1.389a3.5 3.5 0 0 1 3.496-3.495v2.099c-.767 0-1.388.621-1.388 1.388a3.5 3.5 0 0 1-3.496 3.496"/></mask><g mask="url(#Q)"><path stroke="#040000" stroke-miterlimit="10" stroke-width=".92" d="m138.054 27.794-2.608 3.108"/></g><path stroke="#0068b7" stroke-miterlimit="10" stroke-width="2.6" d="M176.805 24.774a2.445 2.445 0 0 1 2.446 2.447 2.45 2.45 0 0 0 2.447 2.446M186.574 24.774a2.445 2.445 0 0 1 2.446 2.447 2.444 2.444 0 0 0 2.446 2.446M167.029 24.774a2.445 2.445 0 0 1 2.446 2.447 2.444 2.444 0 0 0 2.446 2.446"/><path stroke="#ffe100" stroke-miterlimit="10" stroke-width="2.6" d="M186.364 29.659a2.445 2.445 0 0 0 2.446-2.447 2.445 2.445 0 0 1 2.446-2.446"/><path stroke="#ffe100" stroke-miterlimit="10" stroke-width="2.6" d="M181.479 24.774a2.445 2.445 0 0 1 2.447 2.447 2.444 2.444 0 0 0 2.446 2.446"/><path stroke="#ffe100" stroke-miterlimit="10" stroke-width="2.6" d="M176.595 29.659a2.445 2.445 0 0 0 2.446-2.447 2.445 2.445 0 0 1 2.447-2.446M171.703 24.774a2.445 2.445 0 0 1 2.446 2.447 2.45 2.45 0 0 0 2.446 2.446"/><path stroke="#ffe100" stroke-miterlimit="10" stroke-width="2.6" d="M166.819 29.659a2.445 2.445 0 0 0 2.446-2.447 2.445 2.445 0 0 1 2.446-2.446"/><path stroke="#ffe100" stroke-miterlimit="10" stroke-width="2.6" d="M161.934 24.774a2.445 2.445 0 0 1 2.447 2.447 2.444 2.444 0 0 0 2.446 2.446"/><path stroke="#0068b7" stroke-miterlimit="10" stroke-width="2.6" d="M162.144 29.659a2.445 2.445 0 0 0 2.446-2.447 2.45 2.45 0 0 1 2.447-2.446M171.921 29.659a2.445 2.445 0 0 0 2.446-2.447 2.445 2.445 0 0 1 2.446-2.446M181.689 29.659a2.445 2.445 0 0 0 2.447-2.447 2.445 2.445 0 0 1 2.446-2.446"/><path stroke="#fff" stroke-miterlimit="10" stroke-width=".92" d="m188.108 23.878-2.156 2.567M181.794 28.254l-2.599 3.108M178.396 23.814l-2.156 2.567M172.082 28.197l-2.607 3.108M168.74 23.725l-2.156 2.567"/><mask id="R" width="6" height="8" x="186" y="23" maskUnits="userSpaceOnUse" style="mask-type:luminance"><path fill="#fff" d="M186.364 30.7v-2.099c.767 0 1.397-.622 1.397-1.389a3.497 3.497 0 0 1 3.495-3.495v2.099c-.767 0-1.388.621-1.388 1.388a3.5 3.5 0 0 1-3.496 3.496z"/></mask><g mask="url(#R)"><path stroke="#040000" stroke-miterlimit="10" stroke-width=".92" d="m192.911 23.814-2.01 2.39"/></g><mask id="S" width="6" height="8" x="176" y="23" maskUnits="userSpaceOnUse" style="mask-type:luminance"><path fill="#fff" d="M176.595 30.7v-2.099c.767 0 1.397-.622 1.397-1.389a3.497 3.497 0 0 1 3.496-3.495v2.099c-.767 0-1.389.621-1.389 1.388a3.497 3.497 0 0 1-3.496 3.496z"/></mask><g mask="url(#S)"><path stroke="#040000" stroke-miterlimit="10" stroke-width=".92" d="m183.134 23.814-2.002 2.39"/></g><mask id="T" width="6" height="8" x="181" y="23" maskUnits="userSpaceOnUse" style="mask-type:luminance"><path fill="#fff" d="M186.364 30.7a3.497 3.497 0 0 1-3.496-3.496 1.39 1.39 0 0 0-1.397-1.388v-2.1a3.497 3.497 0 0 1 3.496 3.496c0 .767.622 1.389 1.389 1.389V30.7z"/></mask><g mask="url(#T)"><path stroke="#040000" stroke-miterlimit="10" stroke-width=".92" d="m183.135 23.814-2.003 2.39"/></g><mask id="U" width="6" height="8" x="166" y="23" maskUnits="userSpaceOnUse" style="mask-type:luminance"><path fill="#fff" d="M166.819 30.7v-2.099c.767 0 1.396-.622 1.396-1.389a3.497 3.497 0 0 1 3.496-3.495v2.099c-.767 0-1.389.621-1.389 1.388a3.497 3.497 0 0 1-3.495 3.496z"/></mask><g mask="url(#U)"><path stroke="#040000" stroke-miterlimit="10" stroke-width=".92" d="m173.366 23.814-2.002 2.39"/></g><mask id="V" width="6" height="8" x="171" y="23" maskUnits="userSpaceOnUse" style="mask-type:luminance"><path fill="#fff" d="M176.595 30.7a3.497 3.497 0 0 1-3.495-3.496 1.39 1.39 0 0 0-1.397-1.388v-2.1a3.5 3.5 0 0 1 3.496 3.496c0 .767.621 1.389 1.388 1.389V30.7z"/></mask><g mask="url(#V)"><path stroke="#040000" stroke-miterlimit="10" stroke-width=".92" d="m173.366 23.814-2.002 2.39"/></g><mask id="W" width="6" height="8" x="161" y="23" maskUnits="userSpaceOnUse" style="mask-type:luminance"><path fill="#fff" d="M166.819 30.7a3.497 3.497 0 0 1-3.496-3.496 1.39 1.39 0 0 0-1.397-1.388v-2.1a3.497 3.497 0 0 1 3.496 3.496c0 .767.622 1.389 1.389 1.389V30.7z"/></mask><g mask="url(#W)"><path stroke="#040000" stroke-miterlimit="10" stroke-width=".92" d="m163.597 23.814-2.01 2.39"/></g><mask id="X" width="6" height="8" x="181" y="23" maskUnits="userSpaceOnUse" style="mask-type:luminance"><path fill="#fff" d="M186.364 30.708a3.497 3.497 0 0 1-3.496-3.496c0-.767-.622-1.388-1.389-1.388v-2.1a3.497 3.497 0 0 1 3.496 3.496c0 .767.622 1.389 1.389 1.389z"/></mask><g mask="url(#X)"><path stroke="#040000" stroke-miterlimit="10" stroke-width=".92" d="m186.913 27.794-2.608 3.108"/></g><mask id="Y" width="6" height="8" x="186" y="23" maskUnits="userSpaceOnUse" style="mask-type:luminance"><path fill="#fff" d="M186.364 30.708V28.61c.767 0 1.388-.622 1.388-1.389a3.5 3.5 0 0 1 3.496-3.495v2.099c-.767 0-1.388.621-1.388 1.388a3.5 3.5 0 0 1-3.496 3.496"/></mask><g mask="url(#Y)"><path stroke="#040000" stroke-miterlimit="10" stroke-width=".92" d="m186.913 27.794-2.608 3.108"/></g><mask id="Z" width="6" height="8" x="171" y="23" maskUnits="userSpaceOnUse" style="mask-type:luminance"><path fill="#fff" d="M176.595 30.708a3.497 3.497 0 0 1-3.495-3.496c0-.767-.622-1.388-1.389-1.388v-2.1a3.5 3.5 0 0 1 3.496 3.496c0 .767.621 1.389 1.388 1.389z"/></mask><g mask="url(#Z)"><path stroke="#040000" stroke-miterlimit="10" stroke-width=".92" d="m177.136 27.794-2.607 3.108"/></g><mask id="aa" width="6" height="8" x="176" y="23" maskUnits="userSpaceOnUse" style="mask-type:luminance"><path fill="#fff" d="M176.595 30.708V28.61c.767 0 1.389-.622 1.389-1.389a3.497 3.497 0 0 1 3.495-3.495v2.099c-.766 0-1.388.621-1.388 1.388a3.497 3.497 0 0 1-3.496 3.496"/></mask><g mask="url(#aa)"><path stroke="#040000" stroke-miterlimit="10" stroke-width=".92" d="m177.136 27.794-2.608 3.108"/></g><mask id="ab" width="6" height="8" x="161" y="23" maskUnits="userSpaceOnUse" style="mask-type:luminance"><path fill="#fff" d="M166.819 30.708a3.497 3.497 0 0 1-3.496-3.496c0-.767-.622-1.388-1.389-1.388v-2.1a3.497 3.497 0 0 1 3.496 3.496c0 .767.622 1.389 1.389 1.389z"/></mask><g mask="url(#ab)"><path stroke="#040000" stroke-miterlimit="10" stroke-width=".92" d="m167.368 27.794-2.608 3.108"/></g><mask id="ac" width="6" height="8" x="166" y="23" maskUnits="userSpaceOnUse" style="mask-type:luminance"><path fill="#fff" d="M166.819 30.708V28.61c.767 0 1.388-.622 1.388-1.389a3.497 3.497 0 0 1 3.496-3.495v2.099c-.767 0-1.389.621-1.389 1.388a3.497 3.497 0 0 1-3.495 3.496"/></mask><g mask="url(#ac)"><path stroke="#040000" stroke-miterlimit="10" stroke-width=".92" d="m167.368 27.794-2.608 3.108"/></g><mask id="ad" width="6" height="8" x="64" y="23" maskUnits="userSpaceOnUse" style="mask-type:luminance"><path fill="#fff" d="M69.117 30.708a3.497 3.497 0 0 1-3.496-3.496c0-.767-.622-1.388-1.388-1.388v-2.1a3.497 3.497 0 0 1 3.495 3.496c0 .767.622 1.389 1.389 1.389z"/></mask><g mask="url(#ad)"><path stroke="#040000" stroke-miterlimit="10" stroke-width=".92" d="m69.666 27.794-2.608 3.108"/></g><mask id="ae" width="6" height="8" x="69" y="23" maskUnits="userSpaceOnUse" style="mask-type:luminance"><path fill="#fff" d="M69.117 30.708V28.61c.767 0 1.388-.622 1.388-1.389a3.497 3.497 0 0 1 3.496-3.495v2.099c-.767 0-1.389.621-1.389 1.388a3.497 3.497 0 0 1-3.495 3.496"/></mask><g mask="url(#ae)"><path stroke="#040000" stroke-miterlimit="10" stroke-width=".92" d="m69.666 27.794-2.608 3.108"/></g><mask id="af" width="6" height="8" x="54" y="23" maskUnits="userSpaceOnUse" style="mask-type:luminance"><path fill="#fff" d="M59.348 30.708a3.497 3.497 0 0 1-3.495-3.496c0-.767-.622-1.388-1.39-1.388v-2.1a3.497 3.497 0 0 1 3.497 3.496c0 .767.621 1.389 1.388 1.389z"/></mask><g mask="url(#af)"><path stroke="#040000" stroke-miterlimit="10" stroke-width=".92" d="m59.897 27.794-2.607 3.108"/></g><mask id="ag" width="6" height="8" x="59" y="23" maskUnits="userSpaceOnUse" style="mask-type:luminance"><path fill="#fff" d="M59.348 30.708V28.61c.767 0 1.389-.622 1.389-1.389a3.497 3.497 0 0 1 3.496-3.495v2.099c-.768 0-1.39.621-1.39 1.388a3.497 3.497 0 0 1-3.495 3.496"/></mask><g mask="url(#ag)"><path stroke="#040000" stroke-miterlimit="10" stroke-width=".92" d="m59.897 27.794-2.607 3.108"/></g><mask id="ah" width="6" height="8" x="44" y="23" maskUnits="userSpaceOnUse" style="mask-type:luminance"><path fill="#fff" d="M49.58 30.708a3.497 3.497 0 0 1-3.496-3.496c0-.767-.622-1.388-1.389-1.388v-2.1a3.497 3.497 0 0 1 3.496 3.496c0 .767.622 1.389 1.389 1.389z"/></mask><g mask="url(#ah)"><path stroke="#040000" stroke-miterlimit="10" stroke-width=".92" d="m50.12 27.794-2.607 3.108"/></g><mask id="ai" width="6" height="8" x="49" y="23" maskUnits="userSpaceOnUse" style="mask-type:luminance"><path fill="#fff" d="M49.58 30.708V28.61c.767 0 1.388-.622 1.388-1.389a3.497 3.497 0 0 1 3.496-3.495v2.099c-.767 0-1.389.621-1.389 1.388a3.497 3.497 0 0 1-3.495 3.496"/></mask><g mask="url(#ai)"><path stroke="#040000" stroke-miterlimit="10" stroke-width=".92" d="m50.12 27.794-2.607 3.108"/></g><mask id="aj" width="10" height="4" x="30" y="29" maskUnits="userSpaceOnUse" style="mask-type:luminance"><path fill="#fff" d="M39.56 29.981h-9.364v2.1h9.365z"/></mask><g stroke="#040000" stroke-miterlimit="10" stroke-width=".92" mask="url(#aj)"><path d="m33.87 28.722-3.876 4.618M39.262 28.722l-3.875 4.618"/></g><path stroke="#fff" stroke-miterlimit="10" stroke-width=".92" d="m133 28.254-2.608 3.108"/><path stroke="#0068b7" stroke-miterlimit="10" stroke-width="2.6" d="M196.342 24.774a2.444 2.444 0 0 1 2.446 2.447 2.45 2.45 0 0 0 2.447 2.446"/><path stroke="#ffe100" stroke-miterlimit="10" stroke-width="2.6" d="M196.132 29.659a2.445 2.445 0 0 0 2.447-2.447 2.445 2.445 0 0 1 2.446-2.446"/><path stroke="#ffe100" stroke-miterlimit="10" stroke-width="2.6" d="M191.248 24.774a2.445 2.445 0 0 1 2.446 2.447 2.45 2.45 0 0 0 2.446 2.446"/><path stroke="#0068b7" stroke-miterlimit="10" stroke-width="2.6" d="M191.458 29.659a2.445 2.445 0 0 0 2.446-2.447 2.445 2.445 0 0 1 2.446-2.446"/><path stroke="#fff" stroke-miterlimit="10" stroke-width=".92" d="m197.876 23.878-2.147 2.567"/><mask id="ak" width="6" height="8" x="196" y="23" maskUnits="userSpaceOnUse" style="mask-type:luminance"><path fill="#fff" d="M196.132 30.7v-2.099c.767 0 1.397-.622 1.397-1.389a3.497 3.497 0 0 1 3.496-3.495v2.099c-.767 0-1.389.621-1.389 1.388a3.497 3.497 0 0 1-3.496 3.496z"/></mask><g mask="url(#ak)"><path stroke="#040000" stroke-miterlimit="10" stroke-width=".92" d="m202.68 23.814-2.011 2.39"/></g><mask id="al" width="6" height="8" x="191" y="23" maskUnits="userSpaceOnUse" style="mask-type:luminance"><path fill="#fff" d="M196.132 30.7a3.497 3.497 0 0 1-3.495-3.496 1.39 1.39 0 0 0-1.397-1.388v-2.1a3.497 3.497 0 0 1 3.496 3.496c0 .767.621 1.389 1.388 1.389V30.7z"/></mask><g mask="url(#al)"><path stroke="#040000" stroke-miterlimit="10" stroke-width=".92" d="m192.911 23.814-2.01 2.39"/></g><mask id="am" width="6" height="8" x="191" y="23" maskUnits="userSpaceOnUse" style="mask-type:luminance"><path fill="#fff" d="M196.132 30.708a3.497 3.497 0 0 1-3.495-3.496c0-.767-.622-1.388-1.389-1.388v-2.1a3.497 3.497 0 0 1 3.496 3.496c0 .767.621 1.389 1.388 1.389z"/></mask><g mask="url(#am)"><path stroke="#040000" stroke-miterlimit="10" stroke-width=".92" d="m196.681 27.794-2.607 3.108"/></g><mask id="an" width="6" height="8" x="196" y="23" maskUnits="userSpaceOnUse" style="mask-type:luminance"><path fill="#fff" d="M196.132 30.708V28.61c.767 0 1.389-.622 1.389-1.389a3.497 3.497 0 0 1 3.496-3.495v2.099c-.767 0-1.389.621-1.389 1.388a3.497 3.497 0 0 1-3.496 3.496"/></mask><g mask="url(#an)"><path stroke="#040000" stroke-miterlimit="10" stroke-width=".92" d="m196.681 27.794-2.607 3.108"/></g><path stroke="#0068b7" stroke-miterlimit="10" stroke-width="2.6" d="M215.888 24.774a2.445 2.445 0 0 1 2.446 2.447 2.45 2.45 0 0 0 2.446 2.446M225.656 24.774a2.445 2.445 0 0 1 2.446 2.447 2.45 2.45 0 0 0 2.446 2.446M206.111 24.774a2.445 2.445 0 0 1 2.446 2.447 2.444 2.444 0 0 0 2.446 2.446"/><path stroke="#ffe100" stroke-miterlimit="10" stroke-width="2.6" d="M225.446 29.659a2.445 2.445 0 0 0 2.446-2.447 2.445 2.445 0 0 1 2.447-2.446"/><path stroke="#ffe100" stroke-miterlimit="10" stroke-width="2.6" d="M220.562 24.774a2.445 2.445 0 0 1 2.446 2.447 2.444 2.444 0 0 0 2.446 2.446"/><path stroke="#ffe100" stroke-miterlimit="10" stroke-width="2.6" d="M215.678 29.659a2.445 2.445 0 0 0 2.446-2.447 2.45 2.45 0 0 1 2.446-2.446M210.785 24.774a2.445 2.445 0 0 1 2.446 2.447 2.45 2.45 0 0 0 2.447 2.446"/><path stroke="#ffe100" stroke-miterlimit="10" stroke-width="2.6" d="M205.901 29.659a2.445 2.445 0 0 0 2.446-2.447 2.445 2.445 0 0 1 2.446-2.446"/><path stroke="#ffe100" stroke-miterlimit="10" stroke-width="2.6" d="M201.017 24.774a2.445 2.445 0 0 1 2.446 2.447 2.45 2.45 0 0 0 2.446 2.446"/><path stroke="#0068b7" stroke-miterlimit="10" stroke-width="2.6" d="M201.227 29.659a2.445 2.445 0 0 0 2.446-2.447 2.45 2.45 0 0 1 2.446-2.446M210.995 29.659a2.445 2.445 0 0 0 2.446-2.447 2.445 2.445 0 0 1 2.446-2.446M220.772 29.659a2.445 2.445 0 0 0 2.446-2.447 2.445 2.445 0 0 1 2.446-2.446"/><path stroke="#fff" stroke-miterlimit="10" stroke-width=".92" d="m230.702 28.254-2.608 3.108M227.19 23.878l-2.156 2.567M220.877 28.254l-2.608 3.108M217.478 23.814l-2.156 2.567M211.165 28.197l-2.608 3.108M207.822 23.725l-2.155 2.567"/><mask id="ao" width="6" height="8" x="225" y="23" maskUnits="userSpaceOnUse" style="mask-type:luminance"><path fill="#fff" d="M225.446 30.7v-2.099c.767 0 1.397-.622 1.397-1.389a3.497 3.497 0 0 1 3.496-3.495v2.099c-.767 0-1.389.621-1.389 1.388a3.497 3.497 0 0 1-3.496 3.496z"/></mask><g mask="url(#ao)"><path stroke="#040000" stroke-miterlimit="10" stroke-width=".92" d="m231.985 23.814-2.002 2.39"/></g><mask id="ap" width="6" height="8" x="215" y="23" maskUnits="userSpaceOnUse" style="mask-type:luminance"><path fill="#fff" d="M215.67 30.7v-2.099c.767 0 1.396-.622 1.396-1.389a3.497 3.497 0 0 1 3.496-3.495v2.099c-.767 0-1.389.621-1.389 1.388a3.497 3.497 0 0 1-3.495 3.496z"/></mask><g mask="url(#ap)"><path stroke="#040000" stroke-miterlimit="10" stroke-width=".92" d="m222.217 23.814-2.002 2.39"/></g><mask id="aq" width="6" height="8" x="220" y="23" maskUnits="userSpaceOnUse" style="mask-type:luminance"><path fill="#fff" d="M225.446 30.7a3.497 3.497 0 0 1-3.495-3.496 1.39 1.39 0 0 0-1.397-1.388v-2.1a3.5 3.5 0 0 1 3.496 3.496c0 .767.621 1.389 1.388 1.389V30.7z"/></mask><g mask="url(#aq)"><path stroke="#040000" stroke-miterlimit="10" stroke-width=".92" d="m222.217 23.814-2.002 2.39"/></g><mask id="ar" width="6" height="8" x="205" y="23" maskUnits="userSpaceOnUse" style="mask-type:luminance"><path fill="#fff" d="M205.901 30.7v-2.099c.767 0 1.397-.622 1.397-1.389a3.497 3.497 0 0 1 3.495-3.495v2.099c-.767 0-1.388.621-1.388 1.388a3.497 3.497 0 0 1-3.496 3.496z"/></mask><g mask="url(#ar)"><path stroke="#040000" stroke-miterlimit="10" stroke-width=".92" d="m212.448 23.814-2.01 2.39"/></g><mask id="as" width="6" height="8" x="210" y="23" maskUnits="userSpaceOnUse" style="mask-type:luminance"><path fill="#fff" d="M215.678 30.7a3.497 3.497 0 0 1-3.496-3.496 1.39 1.39 0 0 0-1.397-1.388v-2.1a3.497 3.497 0 0 1 3.496 3.496c0 .767.622 1.389 1.389 1.389V30.7z"/></mask><g mask="url(#as)"><path stroke="#040000" stroke-miterlimit="10" stroke-width=".92" d="m212.448 23.814-2.01 2.39"/></g><mask id="at" width="5" height="8" x="201" y="23" maskUnits="userSpaceOnUse" style="mask-type:luminance"><path fill="#fff" d="M205.901 30.7a3.497 3.497 0 0 1-3.496-3.496 1.39 1.39 0 0 0-1.396-1.388v-2.1a3.497 3.497 0 0 1 3.495 3.496c0 .767.622 1.389 1.389 1.389V30.7z"/></mask><g mask="url(#at)"><path stroke="#040000" stroke-miterlimit="10" stroke-width=".92" d="m202.68 23.814-2.011 2.39"/></g><mask id="au" width="6" height="8" x="220" y="23" maskUnits="userSpaceOnUse" style="mask-type:luminance"><path fill="#fff" d="M225.446 30.708a3.5 3.5 0 0 1-3.496-3.496c0-.767-.621-1.388-1.388-1.388v-2.1a3.5 3.5 0 0 1 3.496 3.496c0 .767.621 1.389 1.388 1.389z"/></mask><g mask="url(#au)"><path stroke="#040000" stroke-miterlimit="10" stroke-width=".92" d="m225.995 27.794-2.607 3.108"/></g><mask id="av" width="6" height="8" x="225" y="23" maskUnits="userSpaceOnUse" style="mask-type:luminance"><path fill="#fff" d="M225.446 30.708V28.61c.767 0 1.389-.622 1.389-1.389a3.497 3.497 0 0 1 3.495-3.495v2.099c-.767 0-1.388.621-1.388 1.388a3.497 3.497 0 0 1-3.496 3.496"/></mask><g mask="url(#av)"><path stroke="#040000" stroke-miterlimit="10" stroke-width=".92" d="m225.995 27.794-2.607 3.108"/></g><mask id="aw" width="6" height="8" x="210" y="23" maskUnits="userSpaceOnUse" style="mask-type:luminance"><path fill="#fff" d="M215.678 30.708a3.497 3.497 0 0 1-3.496-3.496c0-.767-.622-1.388-1.389-1.388v-2.1a3.497 3.497 0 0 1 3.496 3.496c0 .767.622 1.389 1.389 1.389z"/></mask><g mask="url(#aw)"><path stroke="#040000" stroke-miterlimit="10" stroke-width=".92" d="m216.218 27.794-2.607 3.108"/></g><mask id="ax" width="6" height="8" x="215" y="23" maskUnits="userSpaceOnUse" style="mask-type:luminance"><path fill="#fff" d="M215.678 30.708V28.61c.767 0 1.388-.622 1.388-1.389a3.497 3.497 0 0 1 3.496-3.495v2.099c-.767 0-1.389.621-1.389 1.388a3.497 3.497 0 0 1-3.495 3.496"/></mask><g mask="url(#ax)"><path stroke="#040000" stroke-miterlimit="10" stroke-width=".92" d="m216.218 27.794-2.607 3.108"/></g><mask id="ay" width="5" height="8" x="201" y="23" maskUnits="userSpaceOnUse" style="mask-type:luminance"><path fill="#fff" d="M205.901 30.708a3.497 3.497 0 0 1-3.496-3.496c0-.767-.621-1.388-1.388-1.388v-2.1a3.497 3.497 0 0 1 3.495 3.496c0 .767.622 1.389 1.389 1.389z"/></mask><g mask="url(#ay)"><path stroke="#040000" stroke-miterlimit="10" stroke-width=".92" d="m206.45 27.794-2.608 3.108"/></g><mask id="az" width="6" height="8" x="205" y="23" maskUnits="userSpaceOnUse" style="mask-type:luminance"><path fill="#fff" d="M205.901 30.708V28.61c.767 0 1.389-.622 1.389-1.389a3.497 3.497 0 0 1 3.495-3.495v2.099c-.767 0-1.388.621-1.388 1.388a3.5 3.5 0 0 1-3.496 3.496"/></mask><g mask="url(#az)"><path stroke="#040000" stroke-miterlimit="10" stroke-width=".92" d="m206.45 27.794-2.608 3.108"/></g><path stroke="#ffe100" stroke-miterlimit="10" stroke-width="2.6" d="M230.33 24.774a2.445 2.445 0 0 1 2.447 2.447 2.444 2.444 0 0 0 2.446 2.446"/><path stroke="#0068b7" stroke-miterlimit="10" stroke-width="2.6" d="M230.54 29.659a2.445 2.445 0 0 0 2.447-2.447 2.45 2.45 0 0 1 2.446-2.446"/><mask id="aA" width="6" height="8" x="230" y="23" maskUnits="userSpaceOnUse" style="mask-type:luminance"><path fill="#fff" d="M235.215 30.7a3.497 3.497 0 0 1-3.496-3.496 1.39 1.39 0 0 0-1.397-1.388v-2.1a3.497 3.497 0 0 1 3.496 3.496c0 .767.622 1.389 1.389 1.389V30.7z"/></mask><g mask="url(#aA)"><path stroke="#040000" stroke-miterlimit="10" stroke-width=".92" d="m231.985 23.814-2.002 2.39"/></g><mask id="aB" width="6" height="8" x="230" y="23" maskUnits="userSpaceOnUse" style="mask-type:luminance"><path fill="#fff" d="M235.215 30.708a3.497 3.497 0 0 1-3.496-3.496c0-.767-.622-1.388-1.389-1.388v-2.1a3.497 3.497 0 0 1 3.496 3.496c0 .767.622 1.389 1.389 1.389z"/></mask><g mask="url(#aB)"><path stroke="#040000" stroke-miterlimit="10" stroke-width=".92" d="m235.764 27.794-2.608 3.108"/></g><path stroke="#fff" stroke-miterlimit="10" stroke-width=".92" d="m201.396 28.254-2.608 3.108M191.619 28.254l-2.607 3.108"/><path stroke="#000" stroke-linecap="round" stroke-linejoin="round" stroke-width=".86" d="M16.778 15.886v52.37h12.86v-52.37z"/><path fill="#fff" stroke="#231815" stroke-miterlimit="10" stroke-width=".86" d="M13.008 18.485v47.18h12.505v-47.18z"/><path stroke="#000" stroke-linecap="round" stroke-linejoin="round" stroke-width=".43" d="M23.85 65.552v-.67h-3.463v-2.858h3.463v-1.397h-3.463v-2.736h3.463v-1.405h-3.463v-2.858h3.463v-1.332h-3.463v-2.801h3.463v-.662"/><path stroke="#000" stroke-linecap="round" stroke-linejoin="round" stroke-width=".43" d="M23.85 48.954v-.67h-3.463v-2.858h3.463v-1.397h-3.463v-2.737h3.463v-1.397h-3.463v-2.858h3.463v-1.34h-3.463v-2.793h3.463v-.67M23.85 32.234v-.67h-3.463v-2.858h3.463v-1.397h-3.463v-2.736h3.463v-1.397h-3.463v-2.858h3.463v-1.34M13.008 60.36v1.293h4.602V60.36zM13 22.74v1.292h4.602V22.74z"/><path fill="#fff" stroke="#231815" stroke-miterlimit="10" stroke-width=".86" d="M25.643 16.951V67.2h4.714V16.95z"/><path fill="#fff" d="M221.531 49.05h-10.269v16.324h10.269z"/><path stroke="#000" stroke-miterlimit="10" stroke-width=".19" d="M218.003 52.853h-2.35v8.719h2.35z"/><path stroke="#000" stroke-miterlimit="10" stroke-width=".67" d="M221.531 49.05h-10.269v16.324h10.269z"/><path stroke="#000" stroke-miterlimit="10" stroke-width=".19" d="M221.531 49.05h-2.398v2.398h2.398zM221.531 62.977h-2.398v2.397h2.398z"/><path fill="#000" d="M77.804 49.05v16.324h87.069V49.05z"/><path fill="#dd7c1a" d="M235.215 20.972v2.817h45.549v-2.817z"/><path fill="#f4d923" d="M231.558 42.68v2.818h48.019v-2.817z"/><path fill="#727171" d="M235.005 25.202v2.818h45.686v-2.818z"/><path stroke="#fff" stroke-miterlimit="10" stroke-width=".74" d="M234.666 22.385h44.83M234.666 26.615h44.83"/><path fill="#231815" d="M231.219 38.305v2.818h48.431v-2.818z"/><path fill="#149243" d="M233.318 33.937v2.818h47.074v-2.818z"/><path fill="#8b1c21" d="M235.215 29.57v2.817h45.549V29.57z"/><path stroke="#231815" stroke-miterlimit="10" stroke-width=".76" d="M231.937 44.085h47.002"/><path stroke="#000" stroke-linecap="round" stroke-linejoin="round" stroke-width=".67" d="M284.905 47.63V18.8h-7.08v28.83z"/><path fill="#fff" stroke="#231815" stroke-miterlimit="10" stroke-width=".67" d="M286.98 46.193V20.22h-6.886v25.972z"/><path stroke="#000" stroke-linecap="round" stroke-linejoin="round" stroke-width=".31" d="M281.014 20.326v.912h2.947v2.43h-2.947v1.187h2.947v2.333h-2.947v1.187h2.947v2.43h-2.947v1.138h2.947v2.382h-2.947v.565M281.014 34.89v.565h2.947v2.438h-2.947v1.187h2.947v2.325h-2.947v1.187h2.947v2.43h-2.947v1.138"/><path fill="#fff" stroke="#231815" stroke-miterlimit="10" stroke-width=".67" d="M280.029 47.04V19.381h-2.6v27.66z"/><path fill="#fff" d="m228.361 53.499 7.201.411s-7.928-9.954 0-21.151c0 0 8.259-8.3 0-20.24h-7.201s8.226 8.219.452 19.828-.452 21.152-.452 21.152"/><path fill="#231815" d="M232.583 22.804c0 5.361-1.913 8.074-3.77 10.69-1.825 2.575-3.544 5.005-3.544 9.978s1.719 7.403 3.544 9.978l.016.024a.607.607 0 0 1-.121.832.56.56 0 0 1-.799-.121l-.017-.024c-1.848-2.616-3.77-5.329-3.77-10.69s1.914-8.072 3.77-10.688c1.825-2.576 3.545-5.006 3.545-9.979s-1.76-7.451-3.456-9.857a.61.61 0 0 1 .121-.831.563.563 0 0 1 .8.12c1.727 2.439 3.681 5.208 3.681 10.568M239.784 22.804c0 5.361-1.913 8.074-3.77 10.69-1.825 2.575-3.544 5.005-3.544 9.978s1.719 7.403 3.544 9.978l.016.024a.607.607 0 0 1-.121.832.56.56 0 0 1-.799-.121l-.016-.024c-1.849-2.616-3.771-5.329-3.771-10.69s1.914-8.072 3.771-10.688c1.824-2.576 3.544-5.006 3.544-9.979s-1.76-7.451-3.456-9.857a.61.61 0 0 1 .122-.831.56.56 0 0 1 .799.12c1.727 2.439 3.681 5.208 3.681 10.568"/><path stroke="#000" stroke-linecap="round" stroke-linejoin="round" stroke-width=".33" d="M283.896 41.615v1.066h3.189v-1.066zM283.904 23.79v1.065h3.189v-1.066z"/></svg>