<svg xmlns="http://www.w3.org/2000/svg" width="72" height="190" fill="none" viewBox="0 0 72 190"><path fill="#fff" d="M72 0H0v190h72z"/><path stroke="#898989" stroke-linecap="round" stroke-linejoin="round" stroke-width=".5" d="M36.156 15.048c-4.054-.037-8.11.124-12.145.479M36.156 17.531a122 122 0 0 0-11.927.47M48.302 15.527q-6.062-.541-12.146-.479M48.084 18c-3.965-.35-7.944-.512-11.928-.469M14.519 120.866v-93.39M14.788 120.856v-93.36M16.769 120.856v-93.36M17.005 27.477v93.389"/><path stroke="#231815" stroke-linecap="round" stroke-linejoin="round" stroke-width=".5" d="M23.807 17.403v-1.241M48.505 17.403v-1.241"/><path stroke="#898989" stroke-linecap="round" stroke-linejoin="round" stroke-width=".5" d="M55.307 120.866v-93.39M55.544 120.856v-93.36M57.53 27.496v93.36M57.794 27.477v93.389"/><path stroke="#231815" stroke-linecap="round" stroke-linejoin="round" stroke-width=".5" d="m20.942 18.545.004.01M20.217 16.707l-.005-.005"/><path stroke="#898989" stroke-linecap="round" stroke-linejoin="round" stroke-width=".5" d="M14.992 124.737h-.01"/><path stroke="#231815" stroke-linecap="round" stroke-linejoin="round" stroke-width=".5" d="m24.044 15.802.1-.01M48.169 15.788l.1.009M48.169 15.788l.1.009"/><path stroke="#898989" stroke-linecap="round" stroke-linejoin="round" stroke-width=".5" d="M57.595 124.77q.2-1.948.2-3.904M57.33 124.737q.2-1.934.199-3.881M55.36 124.533c.123-1.223.189-2.45.189-3.677M55.123 124.519q.184-1.82.184-3.653M20.108 131.887c1.25.492 2.563.805 3.903.923M20.212 131.65c1.227.483 2.515.791 3.832.909M20.942 129.806a11.6 11.6 0 0 0 3.278.778M21.022 129.579c1.028.408 2.108.663 3.207.758M14.717 124.77a8.6 8.6 0 0 0 5.39 7.117"/><path stroke="#898989" stroke-linecap="round" stroke-linejoin="round" stroke-width=".5" d="M14.983 124.737a8.36 8.36 0 0 0 5.23 6.913M16.958 124.533a6.36 6.36 0 0 0 3.988 5.269"/><path stroke="#898989" stroke-linecap="round" stroke-linejoin="round" stroke-width=".5" d="M17.19 124.519a6.11 6.11 0 0 0 3.832 5.06"/><path stroke="#231815" stroke-linecap="round" stroke-linejoin="round" stroke-width=".5" d="M36.156 15.323c-4.007-.038-8.019.119-12.012.47M36.156 17.299c-3.983-.038-7.967.119-11.936.474"/><path stroke="#898989" stroke-linecap="round" stroke-linejoin="round" stroke-width=".5" d="M24.011 132.81q6.061.542 12.145.479M24.044 132.555c4.026.36 8.072.516 12.112.478M24.22 130.579c3.969.35 7.953.512 11.936.474M24.229 130.337c3.965.351 7.944.512 11.927.469M57.794 27.477q0-1.955-.199-3.905M57.529 27.496c0-1.294-.066-2.592-.199-3.881M55.544 27.496a35 35 0 0 0-.19-3.677M55.307 27.477c0-1.218-.061-2.44-.184-3.654M24.011 15.527c-1.34.118-2.653.431-3.903.924M24.044 15.802c-1.312.118-2.6.422-3.827.905M24.21 17.773c-1.123.1-2.222.36-3.268.777M24.23 18c-1.1.1-2.18.356-3.208.758M20.108 16.45a8.59 8.59 0 0 0-5.39 7.118"/><path stroke="#898989" stroke-linecap="round" stroke-linejoin="round" stroke-width=".5" d="M20.212 16.702a8.34 8.34 0 0 0-5.23 6.913M20.942 18.545a6.36 6.36 0 0 0-3.989 5.269"/><path stroke="#898989" stroke-linecap="round" stroke-linejoin="round" stroke-width=".5" d="M21.022 18.763a6.11 6.11 0 0 0-3.832 5.06"/><path stroke="#231815" stroke-linecap="round" stroke-linejoin="round" stroke-width=".5" d="M24.144 15.792c-.033 0-.062.01-.095.02M24.049 15.816a.37.37 0 0 0-.218.213M48.169 15.792c-3.993-.35-8.005-.507-12.013-.469M48.093 17.768a122 122 0 0 0-11.937-.474"/><path stroke="#898989" stroke-linecap="round" stroke-linejoin="round" stroke-width=".5" d="M14.519 120.866q0 1.956.198 3.904M14.788 120.856c0 1.294.067 2.592.2 3.881M16.769 120.856q-.002 1.841.189 3.677M17.005 120.866c0 1.217.062 2.44.185 3.653M48.302 132.81a14 14 0 0 0 3.903-.923M48.269 132.555a13.7 13.7 0 0 0 3.832-.91M48.093 130.579c1.123-.1 2.227-.36 3.278-.777M48.084 130.337a11.7 11.7 0 0 0 3.207-.758M52.205 131.887a8.6 8.6 0 0 0 5.39-7.117"/><path stroke="#898989" stroke-linecap="round" stroke-linejoin="round" stroke-width=".5" d="M52.1 131.65a8.34 8.34 0 0 0 5.23-6.913M51.371 129.806a6.36 6.36 0 0 0 3.988-5.268"/><path stroke="#898989" stroke-linecap="round" stroke-linejoin="round" stroke-width=".5" d="M51.29 129.579a6.11 6.11 0 0 0 3.833-5.06M36.156 133.294c4.055.038 8.11-.123 12.145-.479M36.156 133.038c4.04.038 8.086-.123 12.112-.479M36.156 131.053c3.984.038 7.968-.119 11.937-.474M36.156 130.806c3.98.038 7.963-.118 11.928-.469M14.718 23.572a38 38 0 0 0-.2 3.905M14.983 23.615a38 38 0 0 0-.2 3.88M16.958 23.814a37 37 0 0 0-.19 3.677M17.19 23.824a36 36 0 0 0-.185 3.653M52.205 16.45a14 14 0 0 0-3.904-.923M52.1 16.702a13.8 13.8 0 0 0-3.831-.91M51.371 18.545a11.8 11.8 0 0 0-3.269-.777M51.29 18.763a11.4 11.4 0 0 0-3.206-.758M57.595 23.572a8.59 8.59 0 0 0-5.39-7.116"/><path stroke="#898989" stroke-linecap="round" stroke-linejoin="round" stroke-width=".5" d="M57.33 23.615a8.35 8.35 0 0 0-5.23-6.913M55.36 23.814a6.36 6.36 0 0 0-3.989-5.269"/><path stroke="#898989" stroke-linecap="round" stroke-linejoin="round" stroke-width=".5" d="M55.123 23.823a6.11 6.11 0 0 0-3.832-5.06"/><path stroke="#231815" stroke-linecap="round" stroke-linejoin="round" d="M65.643 166.537a28 28 0 0 1-.137 2.179c-.038.379-.08.763-.133 1.142a25 25 0 0 1-.18 1.151c-.132.73-.303 1.455-.535 2.161q-.161.5-.365.986c-.137.322-.28.63-.436.938a14.7 14.7 0 0 1-2.534 3.534 15.244 15.244 0 0 1-3.581 2.777q-.497.279-1.009.521-.511.24-1.037.446-.526.205-1.075.369a17 17 0 0 1-1.123.294c-.379.085-.786.175-1.18.251q-.624.123-1.25.232a43 43 0 0 1-2.724.384c-.492.057-.98.104-1.473.147s-1.028.09-1.544.133c-1.1.085-2.198.156-3.302.213q-1.828.093-3.661.123-1.982.037-3.965.009a113.607 113.607 0 0 1-10.156-.597 56 56 0 0 1-2.676-.355q-1.2-.192-2.387-.455-.554-.12-1.1-.27a15 15 0 0 1-1.065-.332c-.35-.123-.71-.265-1.061-.416a16 16 0 0 1-1.033-.498 13 13 0 0 1-.985-.569c-.322-.203-.63-.412-.933-.634a16 16 0 0 1-1.734-1.479 15 15 0 0 1-1.487-1.696 14 14 0 0 1-1.166-1.815 13.5 13.5 0 0 1-.848-1.881 12 12 0 0 1-.312-1 17 17 0 0 1-.251-1.061 24 24 0 0 1-.2-1.123 31 31 0 0 1-.15-1.151 33 33 0 0 1-.2-3.137v-.9c0-.303.005-.583.01-.872.004-.289 0-.592 0-.891v-6.126q.001-2.474-.005-4.947-.001-2.89-.01-5.78.001-3.385-.004-6.762c0-2.644-.005-5.292-.01-7.936q.001-4.668-.004-9.344V82.709c0-5.387 0-10.77.01-16.157q0-6.44.009-12.873 0-5.203.009-10.405-.001-2.239.005-4.483v-4.074q-.001-1.864.004-3.72c0-1.132.01-2.27 0-3.402-.004-1.033-.023-2.066-.004-3.094.014-.924.052-1.848.132-2.767"/><path stroke="#231815" stroke-linecap="round" stroke-linejoin="round" d="M36.156 5.686c1.734 0 3.472.038 5.201.114a98 98 0 0 1 2.336.127 113 113 0 0 1 4.239.351 46.234 46.234 0 0 1 4.519.692c.275.057.53.109.796.166a18 18 0 0 1 1.535.402c.516.162 1.023.356 1.52.569q.744.321 1.445.72c.469.266.914.55 1.35.858a15.8 15.8 0 0 1 2.43 2.137c.36.388.7.8 1.018 1.227.318.426.592.843.858 1.284a13.4 13.4 0 0 1 1.226 2.677c.152.464.29.976.403 1.473.118.531.213 1.067.294 1.607.085.587.147 1.175.199 1.767q.08.959.109 1.924.013.493.019.985c.004.327 0 .664 0 .99 0 .328-.005.673-.01 1.01s-.005.696-.005 1.042q-.001 1.103.005 2.204c0 .776 0 1.558.005 2.335V43.15q-.001 3.206.005 6.411c0 2.402.004 4.81.009 7.212q-.001 4.065.005 8.13v43.364q-.001 9.36-.01 18.72c0 2.478 0 4.961-.004 7.439q.001 3.242-.005 6.477c0 1.891 0 3.786-.005 5.677q.001 2.5-.005 5.003.001 2.21-.004 4.421v9.002c0 .531 0 1.014-.005 1.521"/><path stroke="#231815" stroke-linecap="round" stroke-linejoin="round" stroke-width=".5" d="M24.21 17.773a.4.4 0 0 1-.237-.057M23.978 17.711a.373.373 0 0 1-.17-.308M48.505 17.403a.4.4 0 0 1-.042.176.4.4 0 0 1-.123.132M48.34 17.711a.38.38 0 0 1-.238.057M48.169 15.792c.043 0 .09.014.133.038M48.302 15.83a.4.4 0 0 1 .108.08M48.41 15.91a.4.4 0 0 1 .072.114M48.482 16.024c.014.043.023.09.023.133M23.807 16.162q.002-.07.024-.133"/><path stroke="#231815" stroke-linecap="round" stroke-linejoin="round" d="M6.793 21.724a28 28 0 0 1 .284-2.24q.085-.513.199-1.024a14 14 0 0 1 .545-1.876c.109-.299.227-.583.355-.872q.193-.436.421-.848a15.01 15.01 0 0 1 1.682-2.478 16 16 0 0 1 2.24-2.185c.275-.218.55-.426.839-.62.289-.195.573-.384.872-.56q.447-.264.909-.502a16 16 0 0 1 1.937-.829c.332-.118.668-.218 1.005-.313.336-.094.686-.175 1.037-.256.35-.08.72-.156 1.08-.222.36-.067.758-.142 1.137-.209a49 49 0 0 1 2.458-.346 88 88 0 0 1 2.705-.26 121 121 0 0 1 9.663-.398"/><path stroke="#9fa0a0" stroke-linecap="round" stroke-linejoin="round" stroke-width=".5" d="M36.156 6.562q2.595 0 5.182.114 1.164.05 2.326.128a110 110 0 0 1 4.216.35q.945.1 1.89.233.874.127 1.748.289c.27.052.54.1.81.156.27.057.516.104.772.161s.497.114.744.176q.367.093.73.208.73.23 1.434.535a14.4 14.4 0 0 1 2.625 1.479 14.6 14.6 0 0 1 3.24 3.15c.298.399.554.787.8 1.2s.455.8.644 1.222c.19.422.356.834.498 1.265s.27.91.374 1.374c.114.507.204 1.023.28 1.54q.121.855.194 1.715.077.931.104 1.862.013.483.019.967c.004.322 0 .658 0 .985s-.005.678-.01 1.014c-.004.337-.004.697-.004 1.047 0 .735 0 1.474.004 2.208q-.001 1.171.005 2.341V43.09q-.001 3.208.005 6.415 0 3.61.01 7.221c0 2.715 0 5.425.004 8.14v43.416c0 6.25-.005 12.495-.01 18.744q.001 3.725-.004 7.449c0 2.16 0 4.325-.005 6.486q.001 2.843-.005 5.686.001 2.504-.004 5.008c0 1.478 0 2.952-.005 4.43v9.012c0 .531 0 1.009-.005 1.516"/><path stroke="#9fa0a0" stroke-linecap="round" stroke-linejoin="round" stroke-width=".5" d="M64.767 166.603c-.005.346-.02.696-.043 1.042-.024.346-.052.706-.09 1.057q-.056.554-.128 1.109c-.047.369-.104.744-.17 1.113a15 15 0 0 1-.502 2.023c-.1.308-.214.616-.342.915q-.19.446-.402.872a13 13 0 0 1-1.028 1.686 14.096 14.096 0 0 1-1.345 1.621 14.6 14.6 0 0 1-7.375 4.141c-.38.09-.763.166-1.147.242q-.61.12-1.227.227a46.338 46.338 0 0 1-2.681.379 80 80 0 0 1-2.989.275c-.511.038-1.07.081-1.61.114s-1.123.066-1.682.094c-1.212.062-2.43.1-3.642.124a115.574 115.574 0 0 1-11.094-.313c-.99-.076-1.98-.156-2.965-.265a47.397 47.397 0 0 1-3.846-.564 46 46 0 0 1-1.133-.232c-.35-.081-.7-.162-1.051-.256a13.303 13.303 0 0 1-1.999-.702 14.609 14.609 0 0 1-2.776-1.592 14.339 14.339 0 0 1-1.63-1.388 14.4 14.4 0 0 1-1.397-1.592 13.5 13.5 0 0 1-1.09-1.691 11.6 11.6 0 0 1-.786-1.744 13 13 0 0 1-.293-.929 18 18 0 0 1-.427-2.07c-.057-.36-.104-.744-.147-1.118a28 28 0 0 1-.165-2.104 31 31 0 0 1-.029-.943v-.891c0-.294.005-.583.01-.876.004-.294 0-.593 0-.891v-6.131c0-1.654 0-3.303-.005-4.956q-.001-2.893-.01-5.786c0-2.255 0-4.515-.004-6.771q-.001-3.972-.01-7.945c-.004-6.8-.01-13.604-.01-20.403V82.695c0-5.226 0-10.784.01-16.176q.001-6.446.01-12.893.001-5.21.01-10.419-.001-2.243.004-4.487v-4.084q-.001-1.863.005-3.724c0-1.137.01-2.275 0-3.412-.005-1.033-.024-2.066-.005-3.099.014-.895.052-1.79.128-2.681M7.66 21.724q.09-1.088.274-2.17c.11-.63.242-1.26.422-1.876a11 11 0 0 1 .28-.848c.103-.28.212-.54.33-.806a14 14 0 0 1 .853-1.577 14 14 0 0 1 1.118-1.53A14.77 14.77 0 0 1 15.5 9.291c.289-.147.592-.29.895-.417.303-.128.616-.252.929-.36.312-.11.634-.204.952-.294s.658-.166.99-.242q.525-.113 1.051-.218a47.425 47.425 0 0 1 2.302-.389c.398-.056.83-.108 1.246-.156a86 86 0 0 1 2.681-.26q1.464-.12 2.928-.204a122.183 122.183 0 0 1 6.698-.19"/><path fill="#898989" d="M29.335 157.316h-.753v2.246c0 .147 0 .37-.123.488q-.13.128-.407.128h-.597c-.1 0-.27 0-.389-.123q-.15-.15-.151-.498v-2.246h-.749v2.256c0 .223.052 1.345 1.109 1.345h.985c.403 0 1.07-.175 1.07-1.345v-2.256zM33.612 158.586c0-.891-.578-1.426-1.544-1.426h-.109c-1.364 0-1.875.516-1.875 1.9v1.819h.8v-1.814c0-1.052.237-1.228.938-1.228h.18c.677 0 .8.247.8.73 0 .289-.099.597-.374.597h-1.255v.526s.024 0 .033.005c.251.042.701.071 1.042.071 1.128 0 1.364-.645 1.364-1.185zM36.313 157.24s-.024 0-.038-.004a8 8 0 0 0-.9-.071c-.436 0-1.17.18-1.17 1.369v2.345h.781v-2.298c0-.635.119-.696.611-.696h.715zM39.898 160.041c-.469.123-.833.194-1.312.194h-.151c-.664 0-1.066-.081-1.066-1.175s.237-1.227.942-1.227h.18c.664 0 .8.109.8.606 0 .251-.113.356-.373.356h-1.255v.525s.023 0 .037.005c.251.043.697.076 1.042.076.512 0 1.365-.123 1.365-.943 0-1.075-.839-1.303-1.544-1.303h-.11c-1.368 0-1.88.517-1.88 1.9s.521 1.867 1.795 1.867h.1c.805 0 1.487-.213 1.487-.464v-.436s-.038.009-.052.014zM45.469 158.558c0-1.275-.938-1.337-1.123-1.337h-.436c-.487 0-.724.233-.79.308-.256-.246-.645-.308-.777-.308h-.403c-1.047 0-1.16.939-1.16 1.337v2.321h.71v-2.321c0-.36.07-.687.606-.687.535 0 .663.251.663.687v2.321h.73v-2.321c0-.474.194-.697.616-.697.454 0 .653.213.653.697v2.321h.715v-2.321zM49.178 160.496c.54-.555.46-1.422.455-1.46 0-1.554-.735-1.867-1.914-1.867-1.18 0-1.468.36-1.468.46v.436s.033-.005.052-.01c1.179-.26 1.975-.265 2.245-.023.09.085.284.27.284 1.028s-.156.924-.213.99c-.218.242-.725.213-1.17.185h-.085c-.45-.029-.45-.36-.45-.559 0-.175.056-.384.326-.384h1.322v-.441s-.019-.004-.028-.009c-.166-.062-.825-.156-.967-.156-1.279 0-1.468.597-1.468.952q0 .57.355.905c.483.45 1.27.403 1.303.398.61.043 1.09-.1 1.416-.436zM25.588 159.728c0-.791-.587-.99-1.16-1.08-.27-.034-.545-.067-.815-.105-.199-.033-.37-.075-.37-.289 0-.331.095-.421.763-.421h.166a4.4 4.4 0 0 1 1.255.194v-.526c-.066-.133-.682-.341-1.279-.341h-.165c-1.01 0-1.502.374-1.502 1.151s.62.905 1.208.995c.123.014.241.033.365.052.265.034.43.057.511.095.156.066.242.1.242.365 0 .412-.28.455-.872.455h-.166c-.35 0-.772-.1-1.222-.284a.3.3 0 0 0-.057-.024v.502c0 .204.616.464 1.308.464h.151c1.132 0 1.658-.383 1.658-1.203z"/></svg>