<svg xmlns="http://www.w3.org/2000/svg" width="277" height="71" fill="none" viewBox="0 0 277 71"><g clip-path="url(#a)"><path fill="#fff" d="M276.75 0H0v70.08h276.75z"/><path stroke="#000" stroke-linecap="round" stroke-linejoin="round" stroke-width=".5" d="M265.01 52.27H11.74v6.08h253.27zM125.55 31.2h-7.24M118.31 38.38h7.24M118.31 31.2l-.45.1c-2.05.93-2.1 6 0 7.02l.45.05M125.55 38.38l.45-.05c2.1-.95 2.1-6.11 0-7.02l-.45-.1M142.68 31.2h-7.24M135.44 38.38h7.24M135.44 31.2l-.45.1c-2.05.93-2.1 6 0 7.02l.45.05M142.68 38.38l.45-.05c2.1-.95 2.1-6.11 0-7.02l-.45-.1M158.58 31.23h-7.25M151.33 38.4h7.25M151.33 31.23l-.45.1c-2.05.93-2.1 6 0 7.02l.45.05M158.58 38.4l.45-.05c2.1-.95 2.1-6.11 0-7.02l-.45-.1M175.71 31.23h-7.25M168.46 38.4h7.25M168.46 31.23l-.45.1c-2.05.93-2.1 6 0 7.02l.45.05M175.71 38.4l.45-.05c2.1-.95 2.1-6.11 0-7.02l-.45-.1M191 31.2h-7.25M183.75 38.38H191M183.75 31.2l-.45.1c-2.05.93-2.1 6 0 7.02l.45.05M191 38.38l.45-.05c2.1-.95 2.1-6.11 0-7.02l-.45-.1M208.13 31.2h-7.25M200.88 38.38h7.25M200.88 31.2l-.45.1c-2.05.93-2.1 6 0 7.02l.45.05M208.13 38.38l.45-.05c2.1-.95 2.1-6.11 0-7.02l-.45-.1M224.55 31.2h-7.24M217.31 38.38h7.24M217.31 31.2l-.45.1c-2.05.93-2.1 6 0 7.02l.45.05M224.55 38.38l.45-.05c2.1-.95 2.1-6.11 0-7.02l-.45-.1M241.69 31.2h-7.25M234.44 38.38h7.25M234.44 31.2l-.45.1c-2.05.93-2.1 6 0 7.02l.45.05M241.69 38.38l.45-.05c2.1-.95 2.1-6.11 0-7.02l-.45-.1M257.16 31.2h-7.24M249.92 38.38h7.24M249.92 31.2l-.45.1c-2.05.93-2.1 6 0 7.02l.45.05M257.16 38.38l.45-.05c2.1-.95 2.1-6.11 0-7.02l-.45-.1M91.95 31.48h-7.24M84.71 38.65h7.24M84.71 31.48l-.45.1c-2.05.93-2.1 6 0 7.02l.45.05M91.95 38.65l.45-.05c2.1-.95 2.1-6.11 0-7.02l-.45-.1M109.08 31.48h-7.24M101.84 38.65h7.24M101.84 31.48l-.45.1c-2.05.93-2.1 6 0 7.02l.45.05M109.08 38.65l.45-.05c2.1-.95 2.1-6.11 0-7.02l-.45-.1M58.48 31.2h-7.25M51.23 38.38h7.25M51.23 31.2l-.45.1c-2.05.93-2.1 6 0 7.02l.45.05M58.48 38.38l.45-.05c2.1-.95 2.1-6.11 0-7.02l-.45-.1M75.61 31.2h-7.24M68.37 38.38h7.24M68.37 31.2l-.45.1c-2.05.93-2.1 6 0 7.02l.45.05M75.61 38.38l.45-.05c2.1-.95 2.1-6.11 0-7.02l-.45-.1M25.45 31.48h-7.24M18.21 38.65h7.24M18.21 31.48l-.45.1c-2.05.93-2.1 6 0 7.02l.45.05M25.45 38.65l.45-.05c2.1-.95 2.1-6.11 0-7.02l-.45-.1M42.59 31.48h-7.25M35.34 38.65h7.25M35.34 31.48l-.45.1c-2.05.93-2.1 6 0 7.02l.45.05M42.59 38.65l.45-.05c2.1-.95 2.1-6.11 0-7.02l-.45-.1"/><path stroke="#000" stroke-linecap="round" stroke-linejoin="round" d="M265.01 11.77H11.74v46.57h253.27z"/><path stroke="#000" stroke-linecap="round" stroke-linejoin="round" stroke-width=".5" d="M265.01 11.54H11.74v6.08h253.27zM265.01 25.4H11.74v2.66h253.27zM265.01 41.51H11.74v2.66h253.27z"/></g><defs><clipPath id="a"><path fill="#fff" d="M0 0h276.75v70.08H0z"/></clipPath></defs></svg>