<svg width="75" height="66" viewBox="0 0 75 66" fill="none" xmlns="http://www.w3.org/2000/svg">
<path d="M4.08381 9.30842V2.02081C4.08381 2.02081 16.5671 -0.395934 26.4106 2.20767V9.42054L29.4698 16.895V43.4917C29.4698 43.4917 26.0899 44.5879 18.6764 44.5506L9.8197 44.4758C9.8197 44.4758 1.70311 44.2018 1.01234 43.4917V16.8826L4.08381 9.30842Z" fill="white"/>
<path d="M1.01251 43.0931V16.8826" stroke="black" stroke-width="0.5" stroke-miterlimit="10"/>
<path d="M1 16.9822L4.08381 9.30843" stroke="black" stroke-width="0.5" stroke-miterlimit="10"/>
<path d="M4.08381 9.30842V2.20767" stroke="black" stroke-width="0.5" stroke-miterlimit="10"/>
<path d="M29.4821 43.0931V16.8826" stroke="black" stroke-width="0.5" stroke-miterlimit="10"/>
<path d="M29.4821 16.9448L26.4106 9.30843" stroke="black" stroke-width="0.5" stroke-miterlimit="10"/>
<path d="M26.4106 9.30842V2.02081" stroke="black" stroke-width="0.5" stroke-miterlimit="10"/>
<path d="M1.01251 16.8826H29.4823" stroke="black" stroke-width="0.3" stroke-miterlimit="10"/>
<path d="M4.08381 9.30843H26.4106" stroke="black" stroke-width="0.3" stroke-miterlimit="10"/>
<path d="M4.08381 2.22014V2.17031C4.08381 1.55989 9.07959 1.07405 15.2472 1.07405C21.4148 1.07405 26.4106 1.55989 26.4106 2.17031" stroke="black" stroke-width="0.5" stroke-miterlimit="10"/>
<path d="M1.01217 16.895V43.4917C1.01217 44.0772 7.37715 44.5506 15.247 44.5506C23.1169 44.5506 29.4819 44.0772 29.4819 43.4917V16.895" stroke="black" stroke-width="0.5" stroke-miterlimit="10"/>
<path d="M35.7114 9.30842V2.02081C35.7114 2.02081 48.1947 -0.395934 58.0382 2.20767V9.42054L61.0973 16.895V43.4917C61.0973 43.4917 57.7175 44.5879 50.304 44.5506L41.4473 44.4758C41.4473 44.4758 33.3307 44.2018 32.6399 43.4917V16.8826L35.7114 9.30842Z" fill="white"/>
<path d="M32.6401 43.0931V16.8826" stroke="black" stroke-width="0.5" stroke-miterlimit="10"/>
<path d="M32.6276 16.9822L35.7114 9.30843" stroke="black" stroke-width="0.5" stroke-miterlimit="10"/>
<path d="M35.7114 9.30842V2.20767" stroke="black" stroke-width="0.5" stroke-miterlimit="10"/>
<path d="M61.0973 43.0931V16.8826" stroke="black" stroke-width="0.5" stroke-miterlimit="10"/>
<path d="M61.0973 16.9448L58.0382 9.30843" stroke="black" stroke-width="0.5" stroke-miterlimit="10"/>
<path d="M58.0382 9.30842V2.02081" stroke="black" stroke-width="0.5" stroke-miterlimit="10"/>
<path d="M32.6401 16.8826H61.0975" stroke="black" stroke-width="0.3" stroke-miterlimit="10"/>
<path d="M35.7114 9.30843H58.0382" stroke="black" stroke-width="0.3" stroke-miterlimit="10"/>
<path d="M35.7114 2.22014V2.17031C35.7114 1.55989 40.7072 1.07405 46.8748 1.07405C53.0424 1.07405 58.0382 1.55989 58.0382 2.17031" stroke="black" stroke-width="0.5" stroke-miterlimit="10"/>
<path d="M32.6397 16.895V43.4917C32.6397 44.0772 39.0047 44.5506 46.8746 44.5506C54.7445 44.5506 61.1095 44.0772 61.1095 43.4917V16.895" stroke="black" stroke-width="0.5" stroke-miterlimit="10"/>
<path d="M15.2595 29.6265V22.3389C15.2595 22.3389 27.7428 19.9222 37.5863 22.5258V29.7386L40.6455 37.2131V63.8098C40.6455 63.8098 37.2656 64.906 29.8521 64.8687L20.9954 64.7939C20.9954 64.7939 12.8788 64.5199 12.1881 63.8098V37.2007L15.2595 29.6265Z" fill="white"/>
<path d="M12.1882 63.4111V37.2007" stroke="black" stroke-width="0.5" stroke-miterlimit="10"/>
<path d="M12.1757 37.3003L15.2595 29.6265" stroke="black" stroke-width="0.5" stroke-miterlimit="10"/>
<path d="M15.2595 29.6265V22.5258" stroke="black" stroke-width="0.5" stroke-miterlimit="10"/>
<path d="M40.6455 63.4111V37.2007" stroke="black" stroke-width="0.5" stroke-miterlimit="10"/>
<path d="M40.6455 37.2629L37.5863 29.6265" stroke="black" stroke-width="0.5" stroke-miterlimit="10"/>
<path d="M37.5863 29.6265V22.3389" stroke="black" stroke-width="0.5" stroke-miterlimit="10"/>
<path d="M12.1882 37.2007H40.6457" stroke="black" stroke-width="0.3" stroke-miterlimit="10"/>
<path d="M15.2595 29.6265H37.5863" stroke="black" stroke-width="0.3" stroke-miterlimit="10"/>
<path d="M15.2595 22.5382V22.4884C15.2595 21.878 20.2553 21.3922 26.4229 21.3922C32.5906 21.3922 37.5863 21.878 37.5863 22.4884" stroke="black" stroke-width="0.5" stroke-miterlimit="10"/>
<path d="M12.1879 37.2131V63.8098C12.1879 64.3953 18.5529 64.8687 26.4228 64.8687C34.2927 64.8687 40.6577 64.3953 40.6577 63.8098V37.2131" stroke="black" stroke-width="0.5" stroke-miterlimit="10"/>
<path d="M48.8731 29.2404L49.1198 21.9528C49.1198 21.9528 61.6771 19.9596 71.4343 22.912L71.1876 30.1124L74 37.6866L73.0995 64.2583C73.0995 64.2583 69.6827 65.2425 62.2815 64.9435L53.4371 64.5573C53.4371 64.5573 45.3329 63.9967 44.6668 63.2742L45.5673 36.69L48.8854 29.2279L48.8731 29.2404Z" fill="white"/>
<path d="M44.667 62.9004L45.5551 36.7149" stroke="black" stroke-width="0.5" stroke-miterlimit="10"/>
<path d="M45.5303 36.8145L48.8731 29.2404" stroke="black" stroke-width="0.5" stroke-miterlimit="10"/>
<path d="M48.8731 29.2404L49.1198 22.1521" stroke="black" stroke-width="0.5" stroke-miterlimit="10"/>
<path d="M73.1119 63.8846L74 37.699" stroke="black" stroke-width="0.5" stroke-miterlimit="10"/>
<path d="M74 37.7613L71.1876 30.0128" stroke="black" stroke-width="0.5" stroke-miterlimit="10"/>
<path d="M71.1876 30.0127L71.4343 22.7376" stroke="black" stroke-width="0.5" stroke-miterlimit="10"/>
<path d="M45.5549 36.7149L74 37.699" stroke="black" stroke-width="0.3" stroke-miterlimit="10"/>
<path d="M48.8731 29.2404L71.1876 30.0127" stroke="black" stroke-width="0.3" stroke-miterlimit="10"/>
<path d="M49.1198 22.1646V22.1147C49.1445 21.5168 54.1526 21.1929 60.3202 21.4047C66.4878 21.6164 71.4589 22.2767 71.4343 22.8871" stroke="black" stroke-width="0.5" stroke-miterlimit="10"/>
<path d="M45.5549 36.7273L44.6544 63.2991C44.6298 63.8846 50.9824 64.5822 58.84 64.8438C66.6975 65.1179 73.0749 64.8563 73.0995 64.2708L74 37.699" stroke="black" stroke-width="0.5" stroke-miterlimit="10"/>
</svg>
