<svg xmlns="http://www.w3.org/2000/svg" width="200" height="202" fill="none" viewBox="0 0 200 202"><g clip-path="url(#a)"><path fill="#fff" d="M200 0H0v202h200z"/><path stroke="#231815" stroke-linecap="round" stroke-linejoin="round" stroke-width=".5" d="M22.299 85.139v24.496c0 .689.552 1.24 1.241 1.24h.215a1.01 1.01 0 0 1 1.011 1.01v.429a1.01 1.01 0 0 1-1.011 1.011h-1.456v30.497h1.456a1.01 1.01 0 0 1 1.011 1.01v.49a1.01 1.01 0 0 1-1.011 1.011h-3.51c-.69 0-1.241.551-1.241 1.24v7.242c0 .689.551 1.24 1.241 1.24h3.51a1.01 1.01 0 0 1 1.011 1.01v.368a1.01 1.01 0 0 1-1.011 1.01h-.215c-.69 0-1.241.551-1.241 1.24v13.58a8.53 8.53 0 0 0 3.51 6.905c.352.276.735.52 1.103.75l.536.475 2.406 2.189h.016c.674.628 1.563.98 2.482.98h20.905c.613 0 1.226-.153 1.762-.444l.337-.23a3.7 3.7 0 0 1 1.763-.444h17.578c.69 0 1.242.551 1.242 1.24v2.787h11.034V184.7c0-.689.552-1.24 1.257-1.24h29.425c.69 0 1.242.566 1.242 1.255v2.281h11.034v-2.281c0-.689.552-1.24 1.241-1.24h33.058a16.8 16.8 0 0 0 9.87-3.185l.046-.03a8.67 8.67 0 0 0 3.555-6.982V159.76c0-.689-.552-1.24-1.241-1.24h-.184a1.01 1.01 0 0 1-1.012-1.011v-.429c0-.551.445-1.01 1.012-1.01h3.479c.689 0 1.241-.551 1.241-1.24v-7.242c0-.689-.552-1.24-1.241-1.24h-3.479a1.01 1.01 0 0 1-1.012-1.01v-.49c0-.551.445-1.011 1.012-1.011h1.425V113.34h-1.425a1.01 1.01 0 0 1-1.012-1.011V66.614c0-.551.445-1.01 1.012-1.01h1.425V51.18h-1.425a1.01 1.01 0 0 1-1.012-1.01v-.429c0-.551.445-1.01 1.012-1.01h3.479c.689 0 1.241-.551 1.241-1.24V40.25c0-.689-.552-1.24-1.241-1.24h-3.479a1.01 1.01 0 0 1-1.012-1.01v-.49c0-.552.445-1.011 1.012-1.011h.184c.689 0 1.241-.551 1.241-1.24v-5.175c0-4.715-3.831-8.558-8.567-8.558h-16.567a.65.65 0 0 1-.644-.643v-1.791h-24.429v1.79a.647.647 0 0 1-.643.644H73.119a.647.647 0 0 1-.644-.643v-1.791H48.046v1.79a.647.647 0 0 1-.644.644H30.835c-4.72 0-8.567 3.827-8.567 8.558v5.175c0 .689.552 1.24 1.242 1.24h.214a1.01 1.01 0 0 1 1.012 1.01V38a1.01 1.01 0 0 1-1.012 1.01h-3.54c-.69 0-1.242.552-1.242 1.241v7.242c0 .689.552 1.24 1.242 1.24h3.54a1.01 1.01 0 0 1 1.012 1.01v.429a1.01 1.01 0 0 1-1.012 1.01h-1.456v30.314h1.456a1.01 1.01 0 0 1 1.012 1.01v.399a1.01 1.01 0 0 1-1.012 1.01h-.214c-.69 0-1.242.551-1.242 1.24"/><path stroke="#898989" stroke-linecap="round" stroke-linejoin="round" stroke-width=".25" d="M125.716 173.998a2.96 2.96 0 0 0-2.957 2.955 2.95 2.95 0 0 0 2.957 2.955h4.874a2.96 2.96 0 0 0 2.958-2.955 2.95 2.95 0 0 0-2.958-2.955M125.716 173.998h4.874M38.866 26.104l-3.05 5.297M37.349 31.4v6.155M40.445 37.555v-6.154M41.977 31.4l-3.111-5.296M37.349 37.555h3.096M35.816 31.4h1.533M40.445 31.4h1.532M52.935 20.561v2.159c0 .689.552 1.24 1.241 1.24H66.36c.69 0 1.242-.551 1.242-1.24v-2.159M52.935 20.561h14.682M132.383 20.561v2.159c0 .689.552 1.24 1.242 1.24h12.183c.69 0 1.242-.551 1.242-1.24v-2.159M132.383 20.561h14.682M50.498 181.485H49.9M35.218 181.485h-.613M48.736 180.704H36.368M36.43 179.969h12.244M36.43 177.351h12.244M36.43 175.59h12.244M33.38 180.275v-29.273M36.43 151.002v2.006M36.43 153.008v26.961M36.43 179.969v.306M38.498 168.869v-4.149M40.506 164.72v4.149M44.659 170.737v-7.854M36.43 158.06h12.244M46.667 162.883v7.854M48.674 151.002v2.006M48.674 153.008v26.961M48.674 179.969v.306M51.724 151.002v29.273M36.43 156.361h12.244M36.43 153.682h12.244M36.43 153.008h12.244M34.605 149.778h.613M49.9 149.778h.598M43.985 160.709c0-.75-.613-1.363-1.364-1.363s-1.364.613-1.364 1.363.613 1.363 1.364 1.363c.75 0 1.364-.613 1.364-1.363M43.985 172.942c0-.751-.613-1.363-1.364-1.363s-1.364.612-1.364 1.363c0 .75.613 1.362 1.364 1.362.75 0 1.364-.612 1.364-1.362M49.931 149.778c-.69 0-1.241.551-1.241 1.24M51.724 151.033c0-.689-.552-1.24-1.241-1.24M36.43 151.033c0-.689-.553-1.24-1.242-1.24M34.636 149.778c-.69 0-1.241.551-1.241 1.24M33.38 180.245c0 .688.551 1.24 1.24 1.24M35.188 181.485c.69 0 1.241-.552 1.241-1.24M48.674 180.245c0 .688.552 1.24 1.242 1.24M50.468 181.485c.69 0 1.24-.552 1.24-1.24M46.667 162.898a1.01 1.01 0 0 0-1.012-1.01 1 1 0 0 0-1.011 1.01M44.659 170.752a1.01 1.01 0 0 0 1.011 1.011 1 1 0 0 0 1.012-1.011M38.498 168.869a1.01 1.01 0 0 0 1.012 1.011 1 1 0 0 0 1.011-1.011M40.506 164.72a1.01 1.01 0 0 0-1.012-1.01 1 1 0 0 0-1.011 1.01M68.966 77.469V72.6M74.881 72.585v4.868M74.881 72.57a2.96 2.96 0 0 0-2.958-2.955 2.95 2.95 0 0 0-2.957 2.954M68.966 77.438a2.96 2.96 0 0 0 2.957 2.955 2.95 2.95 0 0 0 2.958-2.955M66.345 53.401a2.96 2.96 0 0 0-2.958-2.955 2.95 2.95 0 0 0-2.958 2.955 2.95 2.95 0 0 0 2.958 2.955 2.95 2.95 0 0 0 2.958-2.955M102.467 179.908h-4.934M97.563 173.998h4.935M97.563 173.998a2.96 2.96 0 0 0-2.958 2.955 2.95 2.95 0 0 0 2.958 2.955M102.498 179.908a2.96 2.96 0 0 0 2.958-2.955 2.95 2.95 0 0 0-2.958-2.955M115.877 170.599H74.33M71.893 168.165v-43.94M74.33 121.73h41.547M118.314 124.195v43.939M71.893 168.134a2.464 2.464 0 0 0 2.467 2.465M74.36 121.73a2.464 2.464 0 0 0-2.467 2.465M115.847 170.599a2.464 2.464 0 0 0 2.467-2.465M118.314 124.195a2.464 2.464 0 0 0-2.467-2.465M97.058 77.469V72.6M102.958 72.6v4.869M102.958 72.57A2.96 2.96 0 0 0 100 69.614a2.95 2.95 0 0 0-2.958 2.954M97.058 77.438a2.96 2.96 0 0 0 2.957 2.955 2.95 2.95 0 0 0 2.958-2.955"/><path fill="#231815" stroke="#231815" stroke-miterlimit="10" stroke-width=".1" d="M170.345 188.91h-2.207s-.107-.046-.107-.107.046-.107.107-.107h2.207s.107.046.107.107a.105.105 0 0 1-.107.107Zm-4.797 0h-2.146s-.107-.046-.107-.107.046-.107.107-.107h2.146s.107.046.107.107a.105.105 0 0 1-.107.107Zm-4.72 0h-2.146s-.107-.046-.107-.107.046-.107.107-.107h2.146s.107.046.107.107a.105.105 0 0 1-.107.107Zm-4.705 0h-2.146s-.107-.046-.107-.107.046-.107.107-.107h2.146s.107.046.107.107a.105.105 0 0 1-.107.107Zm-4.721 0h-2.145s-.108-.046-.108-.107.046-.107.108-.107h2.145s.108.046.108.107a.105.105 0 0 1-.108.107Zm-4.72 0h-2.146s-.107-.046-.107-.107.046-.107.107-.107h2.146s.107.046.107.107a.105.105 0 0 1-.107.107Zm-4.72 0h-2.146s-.107-.046-.107-.107.046-.107.107-.107h2.146s.107.046.107.107a.105.105 0 0 1-.107.107Zm-4.721 0h-2.145s-.107-.046-.107-.107.045-.107.107-.107h2.145s.108.046.108.107a.105.105 0 0 1-.108.107Zm-4.72 0h-2.146s-.107-.046-.107-.107.046-.107.107-.107h2.146s.107.046.107.107a.105.105 0 0 1-.107.107Zm-4.72 0h-2.146s-.107-.046-.107-.107.046-.107.107-.107h2.146s.107.046.107.107a.105.105 0 0 1-.107.107Zm-4.721 0h-2.145s-.107-.046-.107-.107.046-.107.107-.107h2.145s.108.046.108.107a.105.105 0 0 1-.108.107Zm-4.72 0h-2.145s-.108-.046-.108-.107.046-.107.108-.107h2.145s.107.046.107.107a.105.105 0 0 1-.107.107Zm-4.72 0h-2.146s-.107-.046-.107-.107.046-.107.107-.107h2.146s.107.046.107.107a.105.105 0 0 1-.107.107Zm-4.72 0h-2.146s-.107-.046-.107-.107.046-.107.107-.107h2.146s.107.046.107.107a.105.105 0 0 1-.107.107Zm-4.721 0h-2.145s-.108-.046-.108-.107.046-.107.108-.107h2.145s.108.046.108.107a.105.105 0 0 1-.108.107Zm-4.72 0h-2.146s-.107-.046-.107-.107.046-.107.107-.107h2.146s.107.046.107.107a.105.105 0 0 1-.107.107Zm-4.72 0h-2.146s-.107-.046-.107-.107.046-.107.107-.107h2.146s.107.046.107.107a.105.105 0 0 1-.107.107Zm-4.72 0h-2.146s-.108-.046-.108-.107.046-.107.108-.107h2.145s.108.046.108.107a.105.105 0 0 1-.108.107Zm-4.721 0h-2.146s-.107-.046-.107-.107.046-.107.107-.107h2.146s.107.046.107.107a.105.105 0 0 1-.107.107Zm-4.72 0h-2.146s-.107-.046-.107-.107.046-.107.107-.107h2.146s.107.046.107.107a.105.105 0 0 1-.107.107Zm-4.72 0h-2.146s-.108-.046-.108-.107.047-.107.108-.107h2.145s.108.046.108.107a.105.105 0 0 1-.108.107Zm-4.72 0H69.01s-.107-.046-.107-.107.046-.107.108-.107h2.145s.107.046.107.107a.105.105 0 0 1-.107.107Zm-4.721 0H64.29s-.107-.046-.107-.107.046-.107.107-.107h2.146s.107.046.107.107a.105.105 0 0 1-.107.107Zm-4.72 0H59.57s-.107-.046-.107-.107.046-.107.107-.107h2.146s.107.046.107.107a.105.105 0 0 1-.107.107Zm-4.72 0H54.85s-.108-.046-.108-.107.046-.107.108-.107h2.145s.107.046.107.107a.105.105 0 0 1-.107.107Zm-4.721 0H50.13s-.107-.046-.107-.107.046-.107.107-.107h2.146s.107.046.107.107a.105.105 0 0 1-.107.107Zm-4.72 0H45.41s-.107-.046-.107-.107.046-.107.107-.107h2.146s.107.046.107.107a.105.105 0 0 1-.107.107Zm-4.72 0H40.69s-.108-.046-.108-.107.046-.107.108-.107h2.145s.108.046.108.107a.105.105 0 0 1-.108.107Zm-4.721 0h-2.146s-.107-.046-.107-.107.046-.107.107-.107h2.146s.107.046.107.107a.105.105 0 0 1-.107.107Zm-4.72 0h-2.146s-.107-.046-.107-.107.046-.107.107-.107h2.146s.107.046.107.107a.105.105 0 0 1-.107.107Zm-4.72-.046c-.721-.046-1.441-.138-2.146-.276-.062 0-.092-.061-.092-.122s.061-.092.122-.092c.69.138 1.41.23 2.115.276.062 0 .108.061.108.107a.105.105 0 0 1-.108.107Zm144.229-.168s-.092-.031-.107-.092c0-.061.031-.107.092-.123a16 16 0 0 0 2.069-.474c.061-.016.122 0 .138.076.015.061 0 .123-.077.138-.69.199-1.394.367-2.099.49h-.016zM24.077 187.9h-.031a16 16 0 0 1-1.977-.873c-.046-.031-.077-.092-.046-.153.03-.046.092-.077.138-.046.628.321 1.287.612 1.946.857.062.015.092.077.062.138a.12.12 0 0 1-.108.077zm153.318-.613s-.077-.015-.092-.061c-.031-.046 0-.123.046-.138a17 17 0 0 0 1.854-1.041c.046-.031.123-.015.153.031a.12.12 0 0 1-.03.153q-.897.597-1.885 1.056zm-157.456-1.623s-.046 0-.062-.015a16 16 0 0 1-1.655-1.393c-.046-.046-.046-.107 0-.153s.107-.046.153 0c.506.49 1.058.949 1.625 1.378.046.03.061.107.015.153-.015.03-.061.046-.092.046zm161.348-.995s-.061 0-.076-.031c-.046-.045-.031-.107 0-.153a17 17 0 0 0 1.486-1.515.103.103 0 0 1 .154 0c.046.046.046.107 0 .153-.46.536-.981 1.056-1.502 1.546a.12.12 0 0 1-.077.031zm-164.705-2.296s-.06 0-.092-.046a17 17 0 0 1-1.195-1.792c-.03-.046 0-.122.046-.153.046-.03.123 0 .153.046.353.613.751 1.21 1.18 1.776.031.046.031.123-.015.153-.015 0-.046.016-.061.016zm167.725-1.317s-.046 0-.062-.015c-.046-.031-.061-.092-.03-.153.367-.598.705-1.241.996-1.884.03-.061.092-.076.138-.046.061.031.076.092.061.138a17 17 0 0 1-1.012 1.899c-.015.03-.061.046-.091.046zM14.299 178.27s-.077-.031-.107-.077a17 17 0 0 1-.644-2.052c0-.061.015-.122.076-.122.062 0 .123.015.123.076.169.689.383 1.378.629 2.037.015.061 0 .122-.062.138h-.046zm171.893-1.516h-.031c-.061-.015-.092-.077-.077-.138a16 16 0 0 0 .429-2.082c0-.061.062-.092.123-.092s.107.061.092.122a17 17 0 0 1-.429 2.113c0 .046-.061.077-.107.077Zm-172.92-3.062s-.107-.046-.107-.092c-.03-.429-.046-.857-.046-1.271v-.872s.046-.108.107-.108.107.046.107.108v.872c0 .414.016.842.046 1.256a.13.13 0 0 1-.092.122zm173.502-1.592s-.107-.046-.107-.108v-2.143s.046-.107.107-.107.107.046.107.107v2.143s-.046.108-.107.108Zm-173.563-3.124s-.107-.046-.107-.107v-2.143s.045-.107.107-.107c.061 0 .107.046.107.107v2.143s-.046.107-.107.107Zm173.563-1.592s-.107-.046-.107-.107v-2.143s.046-.108.107-.108.107.046.107.108v2.143s-.046.107-.107.107Zm-173.563-3.123s-.107-.046-.107-.107v-2.144s.045-.107.107-.107c.061 0 .107.046.107.107v2.144s-.046.107-.107.107Zm173.563-1.592s-.107-.046-.107-.108v-2.143s.046-.107.107-.107.107.046.107.107v2.143s-.046.108-.107.108Zm-173.563-3.124s-.107-.046-.107-.107v-2.143s.045-.107.107-.107c.061 0 .107.046.107.107v2.143s-.046.107-.107.107Zm173.563-1.592s-.107-.046-.107-.107v-2.143s.046-.108.107-.108.107.046.107.108v2.143s-.046.107-.107.107ZM13.211 154.83s-.107-.046-.107-.107v-2.144s.045-.107.107-.107c.061 0 .107.046.107.107v2.144s-.046.107-.107.107Zm173.563-1.592s-.107-.046-.107-.107v-2.144s.046-.107.107-.107.107.046.107.107v2.144s-.046.107-.107.107Zm-173.563-3.124s-.107-.045-.107-.107v-2.143s.045-.107.107-.107c.061 0 .107.046.107.107v2.143s-.046.107-.107.107Zm173.563-1.592s-.107-.046-.107-.107v-2.143s.046-.108.107-.108.107.046.107.108v2.143s-.046.107-.107.107Zm-173.563-3.123s-.107-.046-.107-.107v-2.144s.045-.107.107-.107c.061 0 .107.046.107.107v2.144s-.046.107-.107.107Zm173.563-1.592s-.107-.046-.107-.107v-2.144s.046-.107.107-.107.107.046.107.107v2.144s-.046.107-.107.107Zm-173.563-3.124s-.107-.045-.107-.107v-2.143s.045-.107.107-.107c.061 0 .107.046.107.107v2.143s-.046.107-.107.107Zm173.563-1.592s-.107-.046-.107-.107v-2.143s.046-.107.107-.107.107.045.107.107v2.143s-.046.107-.107.107Zm-173.563-3.123s-.107-.046-.107-.107v-2.144s.045-.107.107-.107c.061 0 .107.046.107.107v2.144s-.046.107-.107.107Zm173.563-1.592s-.107-.046-.107-.107v-2.144s.046-.107.107-.107.107.046.107.107v2.144s-.046.107-.107.107Zm-173.563-3.123s-.107-.046-.107-.108v-2.143s.045-.107.107-.107c.061 0 .107.046.107.107v2.143s-.046.108-.107.108Zm173.563-1.593s-.107-.046-.107-.107v-2.143s.046-.107.107-.107.107.045.107.107v2.143s-.046.107-.107.107Zm-173.563-3.123s-.107-.046-.107-.107v-2.144s.045-.107.107-.107c.061 0 .107.046.107.107v2.144s-.046.107-.107.107Zm173.563-1.592s-.107-.046-.107-.107v-2.144s.046-.107.107-.107.107.046.107.107v2.144s-.046.107-.107.107Zm-173.563-3.123s-.107-.046-.107-.108v-2.143s.045-.107.107-.107c.061 0 .107.046.107.107v2.143s-.046.108-.107.108Zm173.563-1.593s-.107-.046-.107-.107v-2.143s.046-.107.107-.107.107.046.107.107v2.143s-.046.107-.107.107Zm-173.563-3.123s-.107-.046-.107-.107v-2.143s.045-.108.107-.108c.061 0 .107.046.107.108v2.143s-.046.107-.107.107Zm173.563-1.592s-.107-.046-.107-.107v-2.144s.046-.107.107-.107.107.046.107.107v2.144s-.046.107-.107.107Zm-173.563-3.123s-.107-.046-.107-.108v-2.143s.045-.107.107-.107c.061 0 .107.046.107.107v2.143s-.046.108-.107.108Zm173.563-1.593s-.107-.046-.107-.107v-2.143s.046-.107.107-.107.107.046.107.107v2.143s-.046.107-.107.107Zm-173.563-3.123s-.107-.046-.107-.107v-2.143s.045-.108.107-.108c.061 0 .107.046.107.108v2.143s-.046.107-.107.107Zm173.563-1.592s-.107-.046-.107-.107v-2.144s.046-.107.107-.107.107.046.107.107v2.144s-.046.107-.107.107ZM13.211 102.96s-.107-.046-.107-.107v-2.144s.045-.107.107-.107c.061 0 .107.046.107.107v2.144s-.046.107-.107.107Zm173.563-1.593s-.107-.045-.107-.107v-2.143s.046-.107.107-.107.107.046.107.107v2.143s-.046.107-.107.107ZM13.211 98.244s-.107-.046-.107-.107v-2.143s.045-.108.107-.108c.061 0 .107.046.107.108v2.143s-.046.107-.107.107Zm173.563-1.592s-.107-.046-.107-.107V94.4s.046-.107.107-.107.107.046.107.107v2.144s-.046.107-.107.107ZM13.211 93.529s-.107-.046-.107-.107v-2.144s.045-.107.107-.107c.061 0 .107.046.107.107v2.144s-.046.107-.107.107Zm173.563-1.593s-.107-.045-.107-.107v-2.143s.046-.107.107-.107.107.046.107.107v2.143s-.046.108-.107.108ZM13.211 88.813s-.107-.046-.107-.107v-2.143s.045-.108.107-.108c.061 0 .107.046.107.108v2.143s-.046.107-.107.107Zm173.563-1.592s-.107-.046-.107-.107V84.97s.046-.107.107-.107.107.046.107.107v2.144s-.046.107-.107.107ZM13.211 84.098s-.107-.046-.107-.107v-2.144s.045-.107.107-.107c.061 0 .107.046.107.107v2.144s-.046.107-.107.107Zm173.563-1.593s-.107-.045-.107-.107v-2.143s.046-.107.107-.107.107.046.107.107v2.143s-.046.108-.107.108ZM13.211 79.383s-.107-.046-.107-.107v-2.143s.045-.107.107-.107c.061 0 .107.045.107.107v2.143s-.046.107-.107.107Zm173.563-1.592s-.107-.046-.107-.107v-2.144s.046-.107.107-.107.107.046.107.108v2.143s-.046.107-.107.107ZM13.211 74.667s-.107-.046-.107-.107v-2.144s.045-.107.107-.107c.061 0 .107.046.107.107v2.144s-.046.107-.107.107Zm173.563-1.592s-.107-.046-.107-.108v-2.143s.046-.107.107-.107.107.046.107.107v2.143s-.046.108-.107.108ZM13.211 69.95s-.107-.046-.107-.107v-2.143s.045-.107.107-.107c.061 0 .107.046.107.107v2.143s-.046.107-.107.107Zm173.563-1.592s-.107-.046-.107-.107v-2.143s.046-.108.107-.108.107.046.107.108v2.143s-.046.107-.107.107ZM13.211 65.236s-.107-.046-.107-.107v-2.144s.045-.107.107-.107c.061 0 .107.046.107.107v2.144s-.046.107-.107.107Zm173.563-1.592s-.107-.046-.107-.108v-2.143s.046-.107.107-.107.107.046.107.107v2.143s-.046.108-.107.108ZM13.211 60.52s-.107-.046-.107-.107V58.27s.045-.107.107-.107c.061 0 .107.046.107.107v2.143s-.046.107-.107.107Zm173.563-1.592s-.107-.046-.107-.107v-2.143s.046-.108.107-.108.107.046.107.108v2.143s-.046.107-.107.107ZM13.211 55.805s-.107-.046-.107-.107v-2.144s.045-.107.107-.107c.061 0 .107.046.107.107v2.144s-.046.107-.107.107Zm173.563-1.592s-.107-.046-.107-.108v-2.143s.046-.107.107-.107.107.046.107.107v2.143s-.046.108-.107.108ZM13.211 51.089s-.107-.045-.107-.107V48.84s.045-.107.107-.107c.061 0 .107.046.107.107v2.143s-.046.107-.107.107Zm173.563-1.592s-.107-.046-.107-.107v-2.143s.046-.108.107-.108.107.046.107.108v2.143s-.046.107-.107.107ZM13.211 46.374s-.107-.046-.107-.107v-2.144s.045-.107.107-.107c.061 0 .107.046.107.107v2.144s-.046.107-.107.107Zm173.563-1.592s-.107-.046-.107-.107V42.53s.046-.107.107-.107.107.046.107.107v2.144s-.046.107-.107.107ZM13.211 41.659s-.107-.046-.107-.108v-2.143s.045-.107.107-.107c.061 0 .107.046.107.107v2.143s-.046.107-.107.107Zm173.563-1.593s-.107-.046-.107-.107v-2.143s.046-.108.107-.108.107.046.107.108v2.143s-.046.107-.107.107ZM13.211 36.943s-.107-.046-.107-.107v-2.144s.045-.107.107-.107c.061 0 .107.046.107.107v2.144s-.046.107-.107.107Zm173.563-1.592s-.107-.046-.107-.107V33.1s.046-.107.107-.107.107.046.107.107v2.144s-.046.107-.107.107ZM13.211 32.228s-.107-.046-.107-.108v-2.143s.045-.107.107-.107c.061 0 .107.046.107.107v2.143s-.046.108-.107.108Zm173.563-1.593s-.107-.046-.107-.107v-.842q0-.643-.046-1.286c0-.061.046-.107.092-.122.061 0 .107.046.122.091.031.43.046.873.046 1.302v.842s-.046.107-.107.107zM13.379 27.527c-.061 0-.107-.06-.092-.122.092-.704.246-1.424.445-2.113.015-.061.076-.092.138-.076.061.015.092.076.076.137a16 16 0 0 0-.429 2.082c0 .062-.061.092-.107.092zm172.935-1.561s-.092-.03-.107-.077a19 19 0 0 0-.628-2.036c-.016-.061 0-.123.061-.138s.122 0 .138.061c.26.674.475 1.363.643 2.052 0 .061-.015.122-.076.122h-.031zM14.682 23.01h-.046c-.061-.03-.077-.092-.046-.138a15 15 0 0 1 1.027-1.898c.03-.046.092-.062.153-.03.046.03.061.09.03.152-.367.597-.72 1.24-1.01 1.868-.016.046-.062.061-.093.061zm169.9-1.409s-.076-.015-.092-.06a17 17 0 0 0-1.18-1.777c-.03-.046-.03-.122.016-.153.046-.03.122-.03.153.015a17 17 0 0 1 1.195 1.792c.031.046 0 .122-.046.153h-.061zM17.226 19.061s-.046 0-.077-.03c-.046-.047-.046-.108 0-.154.476-.536.981-1.056 1.518-1.53.046-.047.107-.031.153 0 .046.045.03.106 0 .152-.521.475-1.027.98-1.487 1.516-.015.03-.046.03-.076.03zm164.444-1.164s-.061 0-.076-.03c-.506-.49-1.058-.95-1.625-1.378-.046-.03-.061-.107-.015-.153.031-.046.107-.061.153-.016.583.43 1.134.888 1.655 1.394.046.046.046.107 0 .153a.12.12 0 0 1-.076.03zM20.766 15.968s-.076-.015-.092-.046a.12.12 0 0 1 .031-.153c.598-.398 1.241-.75 1.885-1.056.046-.03.123 0 .138.046.03.061 0 .122-.046.138-.644.306-1.257.658-1.854 1.04-.016 0-.046.016-.062.016zm157.088-.811h-.046a18 18 0 0 0-1.946-.857c-.061-.016-.092-.077-.061-.138.03-.062.076-.092.138-.062q1.011.367 1.977.873c.046.03.076.092.046.138-.016.03-.062.061-.092.061zM25.027 13.993s-.092-.03-.108-.076c-.015-.062.016-.123.077-.138.69-.199 1.395-.367 2.1-.475.061 0 .107.031.122.092 0 .061-.03.107-.092.123a16 16 0 0 0-2.068.474zm148.383-.382h-.015a16 16 0 0 0-2.115-.276c-.062 0-.108-.061-.108-.107 0-.061.062-.107.108-.107.72.046 1.44.137 2.145.275.062 0 .092.061.092.123 0 .046-.061.092-.107.092Zm-4.705-.307h-2.146s-.107-.046-.107-.107.046-.107.107-.107h2.146s.107.046.107.107a.105.105 0 0 1-.107.107Zm-4.72 0h-2.146s-.107-.046-.107-.107.046-.107.107-.107h2.146s.107.046.107.107a.105.105 0 0 1-.107.107Zm-4.721 0h-2.145s-.108-.046-.108-.107.046-.107.108-.107h2.145s.108.046.108.107a.105.105 0 0 1-.108.107Zm-4.72 0h-2.146s-.107-.046-.107-.107.046-.107.107-.107h2.146s.107.046.107.107a.105.105 0 0 1-.107.107Zm-4.72 0h-2.146s-.107-.046-.107-.107.046-.107.107-.107h2.146s.107.046.107.107a.105.105 0 0 1-.107.107Zm-4.721 0h-2.145s-.107-.046-.107-.107.046-.107.107-.107h2.145s.108.046.108.107a.105.105 0 0 1-.108.107Zm-4.72 0h-2.145s-.108-.046-.108-.107.046-.107.108-.107h2.145s.107.046.107.107a.105.105 0 0 1-.107.107Zm-4.705 0h-2.145s-.108-.046-.108-.107.046-.107.108-.107h2.145s.107.046.107.107a.105.105 0 0 1-.107.107Zm-4.72 0h-2.146s-.107-.046-.107-.107.046-.107.107-.107h2.146s.107.046.107.107a.105.105 0 0 1-.107.107Zm-4.72 0h-2.146s-.107-.046-.107-.107.046-.107.107-.107h2.146s.107.046.107.107a.105.105 0 0 1-.107.107Zm-4.721 0h-2.145s-.108-.046-.108-.107.046-.107.108-.107h2.145s.108.046.108.107a.105.105 0 0 1-.108.107Zm-4.72 0h-2.146s-.107-.046-.107-.107.046-.107.107-.107h2.146s.107.046.107.107a.105.105 0 0 1-.107.107Zm-4.72 0h-2.146s-.107-.046-.107-.107.046-.107.107-.107h2.146s.107.046.107.107a.105.105 0 0 1-.107.107Zm-4.721 0h-2.145s-.108-.046-.108-.107.046-.107.108-.107h2.145s.108.046.108.107a.105.105 0 0 1-.108.107Zm-4.72 0h-2.146s-.107-.046-.107-.107.046-.107.107-.107h2.146s.107.046.107.107a.105.105 0 0 1-.107.107Zm-4.72 0H95.77s-.107-.046-.107-.107.046-.107.107-.107h2.146s.107.046.107.107a.105.105 0 0 1-.107.107Zm-4.72 0H91.05s-.108-.046-.108-.107.047-.107.108-.107h2.145s.108.046.108.107a.105.105 0 0 1-.108.107Zm-4.72 0h-2.147s-.107-.046-.107-.107.046-.107.108-.107h2.145s.107.046.107.107a.105.105 0 0 1-.107.107Zm-4.721 0h-2.146s-.107-.046-.107-.107.046-.107.107-.107h2.146s.107.046.107.107a.105.105 0 0 1-.107.107Zm-4.72 0h-2.146s-.107-.046-.107-.107.046-.107.107-.107h2.145s.108.046.108.107a.105.105 0 0 1-.108.107Zm-4.72 0h-2.146s-.108-.046-.108-.107.046-.107.108-.107h2.145s.108.046.108.107a.105.105 0 0 1-.108.107Zm-4.721 0h-2.146s-.107-.046-.107-.107.046-.107.107-.107h2.146s.107.046.107.107a.105.105 0 0 1-.107.107Zm-4.72 0h-2.146s-.107-.046-.107-.107.046-.107.107-.107h2.146s.107.046.107.107a.105.105 0 0 1-.107.107Zm-4.72 0h-2.146s-.108-.046-.108-.107.046-.107.108-.107h2.145s.108.046.108.107a.105.105 0 0 1-.108.107Zm-4.721 0h-2.146s-.107-.046-.107-.107.046-.107.107-.107h2.146s.107.046.107.107a.105.105 0 0 1-.107.107Zm-4.72 0h-2.146s-.107-.046-.107-.107.046-.107.107-.107h2.146s.107.046.107.107a.105.105 0 0 1-.107.107Zm-4.72 0h-2.146s-.108-.046-.108-.107.046-.107.108-.107h2.145s.108.046.108.107a.105.105 0 0 1-.108.107Zm-4.721 0h-2.146s-.107-.046-.107-.107.046-.107.107-.107h2.146s.107.046.107.107a.105.105 0 0 1-.107.107Zm-4.72 0h-2.146s-.107-.046-.107-.107.046-.107.107-.107h2.146s.107.046.107.107a.105.105 0 0 1-.107.107Zm-4.72 0h-2.146s-.108-.046-.108-.107.047-.107.108-.107h2.145s.108.046.108.107a.105.105 0 0 1-.108.107Z"/><path stroke="#231815" stroke-linecap="round" stroke-linejoin="round" stroke-width=".12" d="M184.015 172.804v4.777M184.015 177.581h-4.965M183.985 172.804c-.184.291-.751 1.072-1.993 1.607a6.2 6.2 0 0 1-2.789.475M179.172 174.917c.567.765.705 1.668.368 2.22-.076.122-.214.29-.475.428"/><path stroke="#231815" stroke-linecap="round" stroke-linejoin="round" stroke-width=".12" d="M184 172.834c-.261.689-.828 1.884-2.161 3.032a10.8 10.8 0 0 1-2.789 1.715"/><path fill="#231815" d="M179.034 167.461v-1.945h.736c.123 0 .23 0 .291.016a.7.7 0 0 1 .246.091.46.46 0 0 1 .153.184.5.5 0 0 1 .061.26.56.56 0 0 1-.153.414c-.107.107-.291.168-.567.168h-.506v.796h-.261zm.261-1.011h.506c.168 0 .291-.03.352-.092.077-.061.108-.153.108-.26a.35.35 0 0 0-.062-.214.25.25 0 0 0-.168-.107c-.046 0-.123-.016-.246-.016h-.49zM180.858 167.461v-1.945h1.41v.23h-1.149v.597h1.073v.23h-1.073v.658h1.195v.23zM182.667 167.461v-1.945h1.41v.23h-1.15v.597H184v.23h-1.073v.658h1.196v.23zM184.46 167.461v-1.945h.26v1.715h.951v.23zM179.05 170.722v-1.945h.26v.796h1.012v-.796h.26v1.945h-.26v-.919h-1.012v.919zM181.011 170.722v-1.945h1.41v.23h-1.149v.597h1.073v.23h-1.073v.658h1.195v.23zM182.82 170.722v-1.945h.858c.169 0 .307.016.399.046a.36.36 0 0 1 .214.184.5.5 0 0 1 .077.291c0 .138-.046.26-.138.352q-.138.138-.414.184c.061.03.123.061.153.092.077.076.154.153.215.26l.337.536h-.322l-.26-.398c-.077-.123-.138-.199-.184-.261-.046-.061-.092-.107-.138-.122-.046-.031-.077-.046-.123-.046h-.429v.857h-.26zm.26-1.087h.552c.123 0 .215 0 .276-.031s.123-.061.153-.122a.35.35 0 0 0 .046-.169.27.27 0 0 0-.107-.229q-.092-.093-.322-.092h-.613v.643zM184.782 170.722v-1.945h1.41v.23h-1.15v.597h1.073v.23h-1.073v.658h1.196v.23zM149.609 165.991h.797c.368 0 .644.061.797.168s.245.291.245.521a.6.6 0 0 1-.138.413c-.092.107-.214.169-.398.215.214.061.368.122.475.245.107.107.153.26.153.444a.72.72 0 0 1-.26.581c-.169.138-.399.215-.705.215h-.981v-2.771zm.337 1.179h.506c.215 0 .368-.031.475-.107a.43.43 0 0 0 .153-.353c0-.153-.061-.26-.168-.321s-.276-.107-.506-.107h-.46zm0 .291v1.01h.552c.23 0 .383-.046.491-.122.107-.092.153-.215.153-.383 0-.169-.062-.291-.169-.368-.107-.076-.276-.122-.506-.122h-.536zM153.701 168.012a.7.7 0 0 1-.26.566c-.169.138-.414.215-.721.215-.322 0-.582-.046-.766-.123v-.337c.123.046.245.092.383.123.138.03.276.046.399.046.199 0 .367-.046.459-.123.108-.076.154-.183.154-.321a.37.37 0 0 0-.062-.23c-.046-.061-.107-.107-.184-.168-.091-.046-.229-.107-.398-.184-.261-.092-.444-.199-.552-.337a.73.73 0 0 1-.168-.49c0-.214.076-.383.245-.52q.252-.184.644-.184c.26 0 .536.046.766.153l-.107.306c-.246-.092-.46-.153-.659-.153-.169 0-.292.031-.384.107a.36.36 0 0 0-.137.291c0 .092.015.169.061.23.03.061.092.107.168.168.077.046.2.107.384.169.199.076.352.153.459.214a.9.9 0 0 1 .23.245c.061.092.077.199.077.337zM155.893 168.747h-1.839v-.291l.72-.735a4 4 0 0 0 .429-.475.883.883 0 0 0 .199-.566.45.45 0 0 0-.122-.337.5.5 0 0 0-.353-.122.8.8 0 0 0-.322.061 1.6 1.6 0 0 0-.337.199l-.184-.23c.261-.214.537-.321.843-.321.261 0 .46.061.613.199.153.137.23.306.23.536a.9.9 0 0 1-.061.352 1.3 1.3 0 0 1-.199.336c-.092.108-.23.276-.445.475l-.582.567h1.394v.306zM158.207 168.747l-.337-.858h-1.104l-.337.858h-.352l1.088-2.787h.322l1.088 2.787zm-.429-1.164-.307-.842-.138-.413c-.03.153-.076.291-.122.413l-.322.842h.889M158.728 167.859v-.306h.935v.306zM162.621 167.369c0 .444-.108.796-.338 1.041-.229.26-.536.383-.934.383-.399 0-.721-.123-.951-.368s-.337-.597-.337-1.056.108-.796.337-1.041.537-.368.951-.368.72.123.934.383c.23.26.338.597.338 1.041zm-2.192 0c0 .367.077.643.23.842.153.184.383.291.674.291s.521-.092.675-.291c.153-.184.23-.475.23-.842 0-.368-.077-.643-.23-.842s-.384-.276-.675-.276-.536.092-.689.291q-.23.275-.23.827zM165.456 167.338c0 .459-.123.812-.368 1.041-.245.245-.613.368-1.073.368h-.766v-2.771h.858c.429 0 .767.122 1.012.352.245.245.352.566.352 1.01zm-.368.015c0-.352-.092-.612-.26-.796-.169-.183-.445-.275-.782-.275h-.46v2.174h.383c.751 0 1.119-.368 1.119-1.103M167.831 166.802c0 .291-.092.506-.291.643-.199.138-.46.23-.812.23h-.322v1.072h-.352v-2.771h.735c.69 0 1.042.275 1.042.811zm-1.425.582h.276q.414 0 .598-.138c.122-.092.184-.229.184-.428a.49.49 0 0 0-.169-.398c-.123-.092-.291-.138-.536-.138h-.353v1.102M168.414 165.991h.797c.368 0 .643.061.797.168.153.107.245.291.245.521a.6.6 0 0 1-.138.413c-.092.107-.215.169-.399.215.215.061.368.122.476.245.107.107.153.26.153.444a.72.72 0 0 1-.261.581c-.168.138-.398.215-.705.215h-.981v-2.771zm.352 1.179h.506c.215 0 .368-.031.475-.107a.43.43 0 0 0 .153-.353c0-.153-.061-.26-.168-.321s-.276-.107-.506-.107h-.46zm0 .291v1.01h.552c.23 0 .383-.046.49-.122.108-.092.154-.215.154-.383 0-.169-.062-.291-.169-.368-.107-.076-.276-.122-.506-.122h-.536zM149.609 170.645h.797c.368 0 .644.061.797.169.153.107.245.29.245.52a.6.6 0 0 1-.138.413c-.092.108-.214.169-.398.215.214.061.368.122.475.245.107.107.153.26.153.444a.72.72 0 0 1-.26.582c-.169.137-.399.214-.705.214h-.981v-2.771zm.337 1.164h.506c.215 0 .368-.031.475-.107a.43.43 0 0 0 .153-.353c0-.153-.061-.26-.168-.321s-.276-.107-.506-.107h-.46zm0 .291v1.01h.552c.23 0 .383-.046.491-.122.107-.092.153-.215.153-.383 0-.169-.062-.291-.169-.368-.107-.076-.276-.122-.506-.122h-.536zM153.701 172.666a.7.7 0 0 1-.26.567c-.169.137-.414.214-.721.214-.322 0-.582-.046-.766-.123v-.336c.123.045.245.091.383.122s.276.046.399.046c.199 0 .367-.046.459-.123.108-.076.154-.183.154-.321a.37.37 0 0 0-.062-.23c-.046-.061-.107-.107-.184-.168-.091-.046-.229-.107-.398-.184-.261-.092-.444-.199-.552-.337a.73.73 0 0 1-.168-.49.63.63 0 0 1 .245-.52q.252-.184.644-.184c.26 0 .536.046.766.153l-.107.307c-.246-.092-.46-.154-.659-.154-.169 0-.292.031-.384.108a.35.35 0 0 0-.137.29c0 .092.015.169.061.23.03.061.092.107.168.169.077.045.2.107.384.168.199.076.352.153.459.214a.9.9 0 0 1 .23.245c.061.092.077.199.077.337zM155.893 173.401h-1.839v-.291l.72-.735c.215-.214.368-.383.429-.474a.883.883 0 0 0 .199-.567.45.45 0 0 0-.122-.337.5.5 0 0 0-.353-.122.8.8 0 0 0-.322.061 1.6 1.6 0 0 0-.337.199l-.184-.23c.261-.214.537-.321.843-.321.261 0 .46.061.613.199s.23.306.23.536a.9.9 0 0 1-.061.352c-.046.107-.107.23-.199.337s-.23.275-.445.474l-.582.567h1.394v.306zM158.207 173.401l-.337-.857h-1.104l-.337.857h-.352l1.088-2.786h.322l1.088 2.786zm-.429-1.164-.307-.842-.138-.413c-.03.153-.076.291-.122.413l-.322.842h.889M158.728 172.513v-.306h.935v.306zM162.621 172.023c0 .444-.108.796-.338 1.041-.229.26-.536.383-.934.383-.399 0-.721-.123-.951-.368s-.337-.597-.337-1.056.108-.796.337-1.041.537-.367.951-.367.72.122.934.382c.23.261.338.597.338 1.041zm-2.192 0c0 .367.077.643.23.842.153.184.383.291.674.291s.521-.092.675-.291c.153-.184.23-.475.23-.842s-.077-.643-.23-.842-.384-.276-.675-.276-.536.092-.689.291q-.23.276-.23.827zM164.966 173.401l-.338-.857h-1.103l-.337.857h-.353l1.088-2.786h.322l1.088 2.786zm-.43-1.164-.306-.842-.138-.413a3 3 0 0 1-.123.413l-.321.842h.888M167.494 171.457c0 .29-.092.505-.291.643-.199.137-.46.229-.812.229h-.322v1.072h-.353v-2.771h.736c.69 0 1.042.275 1.042.811zm-1.425.566h.276q.414 0 .598-.138c.122-.092.183-.229.183-.428a.49.49 0 0 0-.168-.398c-.123-.092-.291-.138-.537-.138h-.352v1.102M170.498 173.401h-.352l-.537-1.807a6 6 0 0 1-.138-.551 3 3 0 0 1-.138.567l-.521 1.806h-.352l-.736-2.771h.368l.429 1.684c.061.215.107.444.138.659.031-.199.077-.429.153-.674l.491-1.669h.367l.506 1.684a5 5 0 0 1 .153.659c.016-.169.062-.398.138-.659l.43-1.684h.367l-.735 2.771zM171.663 170.645h.797c.368 0 .643.061.797.169.153.107.245.29.245.52a.6.6 0 0 1-.138.413c-.092.108-.215.169-.398.215.214.061.367.122.475.245.107.107.153.26.153.444a.72.72 0 0 1-.261.582c-.168.137-.398.214-.705.214h-.98v-2.771zm.352 1.164h.506c.215 0 .368-.031.475-.107a.43.43 0 0 0 .153-.353c0-.153-.061-.26-.168-.321s-.276-.107-.506-.107h-.46zm0 .291v1.01h.552c.23 0 .383-.046.49-.122.108-.092.154-.215.154-.383 0-.169-.062-.291-.169-.368-.107-.076-.276-.122-.506-.122H172z"/><path stroke="#231815" stroke-linecap="round" stroke-linejoin="round" stroke-width=".1" d="M71.923 95.014V81.327M128.153 172.911v-13.335M71.923 172.911v-13.335M100 88.507v-7.18M59.341 53.401h-7.188"/><path stroke="#898989" stroke-linecap="round" stroke-linejoin="round" stroke-width=".25" d="M66.345 139.459a2.96 2.96 0 0 0-2.958-2.955 2.95 2.95 0 0 0-2.958 2.955 2.95 2.95 0 0 0 2.958 2.955 2.95 2.95 0 0 0 2.958-2.955"/><path stroke="#231815" stroke-linecap="round" stroke-linejoin="round" stroke-width=".1" d="M59.341 139.459h-7.188"/><path stroke="#898989" stroke-linecap="round" stroke-linejoin="round" stroke-width=".25" d="M133.732 139.459a2.96 2.96 0 0 0 2.958 2.955 2.95 2.95 0 0 0 2.958-2.955 2.95 2.95 0 0 0-2.958-2.955 2.95 2.95 0 0 0-2.958 2.955"/><path stroke="#231815" stroke-linecap="round" stroke-linejoin="round" stroke-width=".1" d="M140.736 139.459h7.187M134.636 176.953h13.287"/><path stroke="#898989" stroke-linecap="round" stroke-linejoin="round" stroke-width=".25" d="M136.69 56.356a2.96 2.96 0 0 0 2.958-2.955 2.95 2.95 0 0 0-2.958-2.955 2.95 2.95 0 0 0-2.958 2.955 2.95 2.95 0 0 0 2.958 2.955"/><path stroke="#231815" stroke-linecap="round" stroke-linejoin="round" stroke-width=".1" d="M140.552 53.401h7.203M72.797 168.119h8.72"/><path fill="#231815" d="m73.241 168.685-.245-.566.245-.566-1.348.566z"/><path stroke="#231815" stroke-linecap="round" stroke-linejoin="round" stroke-width=".1" d="M99.08 168.119h-8.643"/><path fill="#231815" d="m98.651 167.553.23.566-.23.566 1.334-.566zM85.87 169.711H83.83v-.321l.813-.812c.245-.245.398-.428.475-.52.076-.107.138-.199.168-.306.031-.108.062-.199.062-.322 0-.168-.046-.291-.138-.383s-.23-.138-.399-.138a.9.9 0 0 0-.352.062 1.8 1.8 0 0 0-.383.229l-.2-.26c.292-.245.598-.367.95-.367.292 0 .506.076.675.214s.245.352.245.597c0 .138-.03.26-.076.383-.047.122-.123.26-.215.383-.092.122-.26.306-.49.535l-.644.628 1.548.015v.383M88.215 167.353c0 .2-.062.353-.169.49a.84.84 0 0 1-.475.261c.245.046.429.122.552.26a.67.67 0 0 1 .183.49c0 .291-.107.52-.306.674-.2.153-.49.244-.874.244-.168 0-.306 0-.444-.03-.138-.031-.276-.061-.398-.123v-.352c.137.061.275.107.413.153.154.031.291.046.43.046.52 0 .781-.199.781-.612 0-.368-.291-.536-.858-.536h-.307v-.321h.307c.245 0 .429-.046.567-.154a.5.5 0 0 0 .2-.428c0-.153-.047-.261-.154-.337-.092-.077-.23-.123-.414-.123-.138 0-.26.016-.383.062-.123.03-.245.107-.399.199l-.183-.261a1.1 1.1 0 0 1 .444-.229c.169-.061.337-.092.521-.092.306 0 .536.061.705.199a.67.67 0 0 1 .245.551z"/><path stroke="#231815" stroke-linecap="round" stroke-linejoin="round" stroke-width=".1" d="M72.828 84.91h8.674"/><path fill="#231815" d="m73.272 85.476-.245-.567.245-.566-1.349.566z"/><path stroke="#231815" stroke-linecap="round" stroke-linejoin="round" stroke-width=".1" d="M99.08 84.91h-8.659"/><path fill="#231815" d="m98.651 84.343.23.566-.23.567 1.334-.567zM85.854 86.501h-2.038v-.321l.812-.812c.246-.244.399-.428.475-.52.077-.107.138-.2.169-.306.03-.107.061-.2.061-.322 0-.168-.046-.29-.138-.382-.091-.092-.23-.138-.398-.138a.9.9 0 0 0-.352.06 1.8 1.8 0 0 0-.384.23l-.199-.26c.291-.245.598-.367.95-.367.291 0 .506.076.675.214.168.138.245.352.245.597 0 .138-.03.26-.077.383-.046.123-.122.26-.214.383-.092.122-.26.306-.49.536l-.644.627 1.547.016v.382M88.2 84.144a.76.76 0 0 1-.17.49.84.84 0 0 1-.475.26c.246.046.43.122.552.26a.67.67 0 0 1 .184.49c0 .291-.107.52-.306.674-.2.153-.49.245-.874.245-.169 0-.306 0-.444-.03-.138-.032-.276-.062-.399-.123v-.353c.138.062.276.108.414.154.153.03.291.046.43.046.52 0 .78-.2.78-.613 0-.367-.29-.536-.858-.536h-.306v-.321h.306c.246 0 .43-.046.567-.153a.5.5 0 0 0 .2-.43c0-.152-.046-.26-.154-.336-.092-.076-.23-.122-.413-.122-.138 0-.26.015-.383.06-.123.032-.246.108-.399.2l-.184-.26a1.1 1.1 0 0 1 .445-.23c.168-.061.337-.092.52-.092.307 0 .537.061.706.2a.67.67 0 0 1 .245.55z"/><path stroke="#231815" stroke-linecap="round" stroke-linejoin="round" stroke-width=".1" d="M72.828 92.396h22.758"/><path fill="#231815" d="m73.272 92.962-.245-.566.245-.567-1.349.567z"/><path stroke="#231815" stroke-linecap="round" stroke-linejoin="round" stroke-width=".1" d="M127.234 92.396h-22.728"/><path fill="#231815" d="m126.805 91.83.245.566-.245.566 1.348-.566zM100.077 93.284h-.445v.704h-.368v-.704h-1.47v-.322l1.455-2.067h.398v2.052h.445v.337zm-.828-.337v-.965c0-.183 0-.413.03-.689h-.015s-.046.092-.076.169c-.03.076-.077.122-.108.168l-.92 1.317h1.104zM100.398 92.671c0-1.21.476-1.806 1.41-1.806.169 0 .292 0 .384.046v.321a1.4 1.4 0 0 0-.368-.046c-.322 0-.583.107-.751.306-.169.2-.276.521-.291.95h.03q.23-.368.736-.368c.276 0 .49.077.659.26a.98.98 0 0 1 .245.674c0 .322-.092.567-.26.75-.169.184-.414.276-.721.276a.93.93 0 0 1-.551-.153 1.07 1.07 0 0 1-.368-.475c-.092-.199-.123-.444-.123-.735zm1.043 1.041c.199 0 .352-.06.444-.183.107-.123.153-.306.153-.536 0-.2-.046-.368-.153-.475a.59.59 0 0 0-.444-.168c-.123 0-.23.03-.338.076a.56.56 0 0 0-.245.215.5.5 0 0 0-.092.275c0 .138.031.276.077.398a.9.9 0 0 0 .23.291.55.55 0 0 0 .337.107z"/><path stroke="#231815" stroke-linecap="round" stroke-linejoin="round" stroke-width=".1" d="M72.828 162.408h22.758"/><path fill="#231815" d="m73.272 162.975-.245-.567.245-.566-1.349.566z"/><path stroke="#231815" stroke-linecap="round" stroke-linejoin="round" stroke-width=".1" d="M127.234 162.408h-22.728"/><path fill="#231815" d="m126.805 161.842.245.566-.245.567 1.348-.567zM100.077 163.312h-.445v.704h-.368v-.704h-1.47v-.322l1.455-2.067h.398v2.052h.445v.337zm-.828-.337v-.965c0-.183 0-.413.03-.689h-.015s-.046.092-.076.169c-.03.076-.077.122-.108.168l-.92 1.317h1.104zM100.398 162.699c0-1.209.476-1.806 1.41-1.806.169 0 .292 0 .384.046v.321a1.3 1.3 0 0 0-.368-.046c-.322 0-.583.107-.751.306s-.276.521-.291.95h.03q.23-.368.736-.368c.276 0 .49.077.659.26a.98.98 0 0 1 .245.674c0 .322-.092.567-.26.75-.169.184-.414.276-.721.276a.93.93 0 0 1-.551-.153 1.07 1.07 0 0 1-.368-.475c-.092-.199-.123-.444-.123-.735zm1.043 1.041c.199 0 .352-.061.444-.183.107-.123.153-.307.153-.536 0-.199-.046-.368-.153-.475a.59.59 0 0 0-.444-.168.8.8 0 0 0-.338.076.56.56 0 0 0-.245.215.5.5 0 0 0-.092.275c0 .138.031.276.077.398a.9.9 0 0 0 .23.291.55.55 0 0 0 .337.107z"/><path stroke="#231815" stroke-linecap="round" stroke-linejoin="round" stroke-width=".1" d="M63.387 64.516v-7.18M136.69 64.516v-7.18M64.307 60.934H95.57"/><path fill="#231815" d="m64.736 61.5-.246-.566.246-.567-1.349.567z"/><path stroke="#231815" stroke-linecap="round" stroke-linejoin="round" stroke-width=".1" d="M135.77 60.934h-31.28"/><path fill="#231815" d="m135.341 60.367.245.567-.245.566 1.349-.566zM97.931 61.21c0-1.21.475-1.807 1.41-1.807.169 0 .291 0 .383.046v.321a1.3 1.3 0 0 0-.368-.046c-.322 0-.582.107-.75.307-.17.199-.276.52-.292.949h.03q.231-.368.737-.368c.275 0 .49.077.659.26a.98.98 0 0 1 .245.674c0 .322-.092.567-.26.75-.17.184-.415.276-.721.276a.93.93 0 0 1-.552-.153 1.07 1.07 0 0 1-.368-.475c-.092-.199-.122-.444-.122-.735zm1.042 1.04c.2 0 .353-.06.445-.183.107-.123.153-.306.153-.536 0-.2-.046-.368-.153-.475a.6.6 0 0 0-.445-.168c-.122 0-.23.03-.337.076a.56.56 0 0 0-.245.215.5.5 0 0 0-.092.275c0 .138.03.276.076.398a.9.9 0 0 0 .23.291.55.55 0 0 0 .337.107zM102.406 60.98c0 .536-.092.934-.26 1.194-.169.26-.43.398-.767.398a.88.88 0 0 1-.766-.398c-.169-.276-.261-.658-.261-1.179 0-.52.077-.934.246-1.194s.429-.383.766-.383a.88.88 0 0 1 .766.398c.169.276.261.658.261 1.179zm-1.67 0c0 .444.046.765.153.964.107.2.26.291.49.291s.383-.107.491-.306c.107-.2.153-.52.153-.965s-.046-.75-.153-.949c-.108-.199-.261-.306-.491-.306a.51.51 0 0 0-.49.29c-.107.2-.153.521-.153.965z"/><path stroke="#231815" stroke-linecap="round" stroke-linejoin="round" stroke-width=".1" d="M144.23 74.131v-3.583"/><path fill="#231815" d="m144.797 73.702-.567.23-.567-.23.567 1.332z"/><path stroke="#231815" stroke-linecap="round" stroke-linejoin="round" stroke-width=".1" d="M144.199 54.32v3.123"/><path fill="#231815" d="m143.632 54.749.567-.245.567.245-.567-1.348zM145.824 66.843v.368h-2.146c-.184 0-.368 0-.536-.016l.122.123c.123.138.246.306.384.475l-.261.199-.644-.827v-.322zM145.824 65.328l-2.728-1.271v1.653h-.353v-2.066h.291l2.79 1.255v.429M145.594 63.138c-.092 0-.169-.015-.215-.06a.26.26 0 0 1-.076-.2c0-.092.03-.153.076-.199a.3.3 0 0 1 .215-.077c.092 0 .168.031.214.077a.26.26 0 0 1 .077.2.27.27 0 0 1-.077.198c-.046.046-.122.061-.214.061M145.824 61.715l-2.728-1.271v1.653h-.353v-2.066h.291l2.79 1.255v.429"/><path stroke="#231815" stroke-linecap="round" stroke-linejoin="round" stroke-width=".1" d="M144.23 138.555v-24.771"/><path fill="#231815" d="m144.797 138.127-.567.229-.567-.229.567 1.332z"/><path stroke="#231815" stroke-linecap="round" stroke-linejoin="round" stroke-width=".1" d="M144.199 75.953v24.741"/><path fill="#231815" d="m143.632 76.382.567-.23.567.23-.567-1.348zM143.939 110.431c0-.322.076-.582.245-.766a.85.85 0 0 1 .659-.275c.322 0 .567.107.751.306s.276.49.276.842-.062.613-.169.796h-.352c.061-.107.107-.229.153-.383.031-.137.061-.29.061-.428 0-.245-.061-.429-.168-.567-.123-.137-.276-.199-.491-.199-.414 0-.628.261-.628.766 0 .168.015.337.061.52l-.122.184-1.456-.122v-1.547h.352v1.21l.889.076a2.6 2.6 0 0 1-.046-.474zM145.824 106.925v2.036h-.322l-.812-.811c-.246-.245-.429-.398-.521-.475a1 1 0 0 0-.307-.168c-.107-.031-.199-.061-.322-.061-.168 0-.291.045-.383.137s-.138.23-.138.398c0 .123.016.245.061.352.046.108.123.245.23.383l-.26.199c-.245-.291-.368-.597-.368-.949 0-.291.077-.505.215-.674.137-.168.352-.245.597-.245.138 0 .261.031.383.077.123.046.261.122.384.214.122.092.306.261.536.49l.628.643h.016v-1.546h.383M145.594 106.389c-.092 0-.169-.015-.215-.061a.26.26 0 0 1-.076-.199c0-.092.03-.153.076-.199a.3.3 0 0 1 .215-.077c.092 0 .168.031.214.077a.26.26 0 0 1 .077.199.26.26 0 0 1-.077.199c-.046.046-.122.061-.214.061M142.697 104.307c0-.276.062-.505.2-.674.122-.168.306-.245.536-.245q.23 0 .414.138c.122.092.23.245.337.444.123-.245.245-.429.383-.536a.67.67 0 0 1 .46-.153c.26 0 .46.092.613.276q.23.275.23.735c0 .321-.077.581-.215.765s-.352.276-.613.276q-.528 0-.827-.643a1.4 1.4 0 0 1-.353.413.7.7 0 0 1-.429.123.64.64 0 0 1-.536-.245c-.138-.169-.2-.383-.2-.674m.307.015a.65.65 0 0 0 .122.398.4.4 0 0 0 .322.153.37.37 0 0 0 .23-.061.6.6 0 0 0 .184-.168c.061-.077.107-.184.184-.337a1.3 1.3 0 0 0-.261-.413c-.092-.092-.199-.123-.337-.123s-.245.046-.322.153a.62.62 0 0 0-.122.398m2.038.643a.48.48 0 0 0 .383-.168.76.76 0 0 0 .138-.475.76.76 0 0 0-.138-.474c-.092-.123-.23-.169-.398-.169a.51.51 0 0 0-.368.169c-.107.107-.199.291-.306.551.091.199.183.352.291.444a.56.56 0 0 0 .383.138z"/><path stroke="#231815" stroke-linecap="round" stroke-linejoin="round" stroke-width=".1" d="M144.23 176.05v-11.299"/><path fill="#231815" d="m144.797 175.621-.567.23-.567-.23.567 1.332z"/><path stroke="#231815" stroke-linecap="round" stroke-linejoin="round" stroke-width=".1" d="M144.199 140.377v11.284"/><path fill="#231815" d="m143.632 140.806.567-.245.567.245-.567-1.347zM143.464 160.464c.199 0 .352.061.49.168a.84.84 0 0 1 .261.475h.015q.046-.368.23-.551a.67.67 0 0 1 .49-.184c.291 0 .521.107.675.306.153.199.245.49.245.873 0 .168 0 .306-.031.444s-.061.276-.123.398h-.352c.061-.138.107-.276.153-.413.031-.153.046-.291.046-.429 0-.521-.199-.781-.613-.781-.368 0-.536.291-.536.858v.306h-.322v-.306c0-.245-.046-.429-.153-.567a.5.5 0 0 0-.429-.199c-.154 0-.261.046-.338.153-.076.092-.122.23-.122.414 0 .137.015.26.061.382.031.123.107.245.199.398l-.26.184a1.1 1.1 0 0 1-.23-.444 1.5 1.5 0 0 1-.092-.52c0-.307.061-.536.199-.705a.67.67 0 0 1 .552-.245zM144.276 157.877c.536 0 .935.091 1.195.26.261.168.399.429.399.765a.88.88 0 0 1-.399.766c-.276.168-.659.26-1.18.26s-.935-.076-1.195-.245c-.261-.168-.383-.428-.383-.765a.88.88 0 0 1 .398-.766c.276-.168.659-.26 1.18-.26zm0 1.668c.444 0 .766-.046.965-.153.2-.107.292-.26.292-.49s-.108-.382-.307-.49-.521-.153-.965-.153c-.445 0-.751.046-.951.153-.199.108-.306.261-.306.49 0 .23.092.383.291.49s.521.153.966.153zM145.594 157.356c-.092 0-.169-.015-.215-.061a.26.26 0 0 1-.076-.199c0-.092.03-.153.076-.199a.3.3 0 0 1 .215-.077c.092 0 .168.031.214.077a.26.26 0 0 1 .077.199.26.26 0 0 1-.077.199c-.046.046-.122.061-.214.061M145.824 155.932l-2.728-1.27v1.653h-.353v-2.067h.291l2.79 1.256v.428"/><path stroke="#231815" stroke-linecap="round" stroke-linejoin="round" stroke-width=".1" d="M55.74 138.555v-35.58"/><path fill="#231815" d="m56.322 138.127-.583.229-.567-.229.568 1.332z"/><path stroke="#231815" stroke-linecap="round" stroke-linejoin="round" stroke-width=".1" d="M55.709 54.32v35.565"/><path fill="#231815" d="m55.142 54.749.567-.245.582.245-.582-1.348zM57.333 100.235l-2.728-1.271v1.653h-.352V98.55h.291l2.79 1.256v.429M55.8 96.1c.537 0 .936.093 1.196.261s.399.429.399.766a.88.88 0 0 1-.399.765c-.276.169-.659.26-1.18.26s-.935-.076-1.195-.245-.384-.428-.384-.765a.88.88 0 0 1 .399-.766c.276-.168.659-.26 1.18-.26zm0 1.67c.445 0 .767-.046.966-.153.2-.108.291-.26.291-.49s-.107-.383-.306-.49c-.2-.108-.521-.153-.966-.153s-.75.046-.95.153-.306.26-.306.49.092.382.29.49c.2.107.522.153.966.153zM57.103 95.58c-.092 0-.168-.015-.214-.061a.26.26 0 0 1-.077-.199c0-.092.03-.153.077-.199a.3.3 0 0 1 .214-.077c.092 0 .169.031.215.077a.26.26 0 0 1 .077.199c0 .092-.031.153-.077.199s-.123.061-.215.061M55.448 93.56c0-.322.077-.582.245-.766a.85.85 0 0 1 .66-.276c.321 0 .566.107.75.306.184.2.276.49.276.843 0 .352-.061.612-.168.796h-.353c.062-.107.108-.23.154-.383.03-.138.06-.291.06-.429 0-.245-.06-.428-.168-.566-.122-.138-.276-.2-.49-.2-.414 0-.629.261-.629.766 0 .169.016.337.062.52l-.123.184-1.456-.122v-1.546h.353v1.21l.889.076a2.6 2.6 0 0 1-.046-.475z"/><path stroke="#231815" stroke-linecap="round" stroke-linejoin="round" stroke-width=".1" d="M73.042 19.107h8.935M78.39 186.46v-69.323"/><path fill="#231815" d="m78.958 186.032-.567.229-.567-.229.567 1.347z"/><path stroke="#231815" stroke-linecap="round" stroke-linejoin="round" stroke-width=".1" d="M78.36 19.934V101"/><path fill="#231815" d="m77.793 20.362.567-.245.567.245-.567-1.347zM79.985 113.156v.368h-2.146c-.184 0-.368 0-.536-.016l.122.123c.123.138.246.306.383.474l-.26.199-.644-.826v-.322zM77.625 110.094c.199 0 .352.061.49.169a.84.84 0 0 1 .26.474h.016q.045-.368.23-.551a.67.67 0 0 1 .49-.184c.291 0 .521.107.674.306.154.2.246.49.246.873 0 .169 0 .306-.031.444-.03.138-.061.276-.123.398h-.352c.061-.138.107-.275.153-.413.03-.153.046-.291.046-.429 0-.52-.2-.781-.613-.781-.368 0-.536.291-.536.858v.306h-.322v-.306c0-.245-.046-.429-.153-.567a.5.5 0 0 0-.43-.199c-.153 0-.26.046-.337.153-.076.092-.122.23-.122.414 0 .137.015.26.061.382.03.123.107.245.2.398l-.261.184a1.1 1.1 0 0 1-.23-.444 1.5 1.5 0 0 1-.092-.52c0-.307.061-.536.2-.705a.67.67 0 0 1 .55-.245zM79.985 109.176l-2.728-1.271v1.653h-.353v-2.067h.291l2.79 1.256v.429M79.74 106.986c-.093 0-.17-.015-.215-.061a.26.26 0 0 1-.077-.199c0-.092.031-.153.077-.199a.3.3 0 0 1 .215-.077c.091 0 .168.031.214.077a.26.26 0 0 1 .077.199c0 .092-.031.153-.077.199s-.123.061-.214.061M78.222 103.894c1.211 0 1.809.474 1.809 1.408 0 .169 0 .291-.046.383h-.322a1 1 0 0 0 .061-.383c0-.23-.046-.413-.138-.566a.86.86 0 0 0-.398-.337 2.1 2.1 0 0 0-.705-.138v.031c.245.153.352.398.352.735 0 .275-.076.489-.245.643a1 1 0 0 1-.69.245c-.321 0-.567-.092-.766-.261-.184-.183-.276-.413-.276-.719 0-.215.062-.398.153-.551.108-.154.261-.276.476-.368.199-.092.444-.122.72-.122zm-1.042 1.056c0 .184.061.337.184.444s.306.153.521.153c.2 0 .368-.046.475-.153a.59.59 0 0 0 .169-.444.9.9 0 0 0-.077-.352.56.56 0 0 0-.214-.245.5.5 0 0 0-.276-.092 1.2 1.2 0 0 0-.399.077.9.9 0 0 0-.29.229.54.54 0 0 0-.108.352z"/><path stroke="#231815" stroke-linecap="round" stroke-linejoin="round" stroke-width=".1" d="M32.015 187.777v-78.709"/><path fill="#231815" d="m32.582 187.348-.567.245-.567-.245.567 1.348z"/><path stroke="#231815" stroke-linecap="round" stroke-linejoin="round" stroke-width=".1" d="M31.985 14.177v78.755"/><path fill="#231815" d="m31.418 14.606.567-.23.567.23-.567-1.348zM33.61 103.281v.368h-2.146c-.184 0-.368 0-.537-.016l.123.123c.122.138.245.306.383.474l-.26.199-.644-.826v-.322zM32.92 99.959v.444h.704v.367h-.704v1.47h-.322l-2.07-1.454v-.398h2.054v-.444h.338zm-.353.827h-.965c-.184 0-.414 0-.69-.031 0 0 .092.061.169.107.076.046.122.077.168.107l1.318.919zM32.92 97.51v.443h.704v.368h-.704v1.47h-.322l-2.07-1.455v-.398h2.054v-.444h.338zm-.353.81h-.965c-.184 0-.414 0-.69-.03 0 0 .092.061.169.107.076.046.122.077.168.107l1.318.92z"/><path stroke="#231815" stroke-linecap="round" stroke-linejoin="round" stroke-width=".1" d="M19.893 43.71h72.015"/><path fill="#231815" d="m20.322 44.277-.245-.567.245-.582-1.349.582z"/><path stroke="#231815" stroke-linecap="round" stroke-linejoin="round" stroke-width=".1" d="M180.092 43.68h-72.031"/><path fill="#231815" d="m179.663 43.098.245.581-.245.567 1.348-.567zM96.107 45.318h-.367v-2.144c0-.184 0-.367.015-.536l-.123.123c-.138.122-.306.245-.475.383l-.2-.26.829-.644h.321zM99.157 42.96c0 .199-.061.352-.168.49a.84.84 0 0 1-.476.26c.246.046.43.123.552.26a.67.67 0 0 1 .184.49c0 .291-.107.52-.306.674-.2.153-.49.245-.874.245-.169 0-.306 0-.445-.03-.137-.031-.275-.062-.398-.123v-.352c.138.06.276.107.414.153.153.03.291.046.429.046.521 0 .782-.2.782-.613 0-.367-.292-.536-.859-.536h-.306v-.321h.306c.246 0 .43-.046.567-.153a.5.5 0 0 0 .2-.429c0-.153-.046-.26-.154-.337-.092-.076-.23-.122-.413-.122-.138 0-.26.015-.383.061-.123.03-.246.107-.399.199l-.184-.26c.123-.107.276-.184.445-.23.168-.061.337-.092.52-.092.307 0 .537.061.706.2a.67.67 0 0 1 .245.55zM101.747 45.318h-2.038v-.322l.812-.811c.245-.245.399-.429.475-.52.077-.108.138-.2.169-.307.03-.107.061-.2.061-.322 0-.168-.046-.29-.138-.382s-.23-.138-.398-.138a.9.9 0 0 0-.353.061 1.8 1.8 0 0 0-.383.23l-.2-.26c.292-.245.599-.368.951-.368.291 0 .506.077.674.214.169.138.246.352.246.597 0 .138-.031.26-.077.383s-.123.26-.215.383c-.092.122-.26.306-.49.536l-.644.627 1.548.016v.382M102.284 45.088c0-.092.015-.169.061-.214a.26.26 0 0 1 .199-.077c.092 0 .153.03.199.077a.3.3 0 0 1 .077.214.3.3 0 0 1-.077.214.26.26 0 0 1-.199.077.26.26 0 0 1-.199-.077c-.046-.046-.061-.122-.061-.214M103.356 44c0-1.209.475-1.806 1.41-1.806.169 0 .292 0 .383.046v.322a1.3 1.3 0 0 0-.367-.046c-.322 0-.583.107-.751.306-.169.2-.276.52-.291.95h.03q.23-.369.736-.368c.276 0 .49.076.659.26a.98.98 0 0 1 .245.674c0 .321-.092.566-.261.75-.168.184-.413.276-.72.276a.94.94 0 0 1-.552-.154 1.07 1.07 0 0 1-.367-.474c-.092-.2-.123-.444-.123-.735zm1.043 1.042c.199 0 .352-.061.444-.184.107-.122.153-.306.153-.536 0-.199-.046-.367-.153-.474a.59.59 0 0 0-.444-.169c-.123 0-.23.031-.338.077a.56.56 0 0 0-.245.214.5.5 0 0 0-.092.276c0 .138.031.275.077.398a.9.9 0 0 0 .23.29.55.55 0 0 0 .337.108z"/><path stroke="#231815" stroke-linecap="round" stroke-linejoin="round" stroke-width=".1" d="M14.13 128.282h77.793"/><path fill="#231815" d="m14.56 128.849-.246-.567.245-.566-1.348.566z"/><path stroke="#231815" stroke-linecap="round" stroke-linejoin="round" stroke-width=".1" d="M185.854 128.252h-77.777"/><path fill="#231815" d="m185.425 127.685.246.567-.246.566 1.349-.566zM97.916 129.905h-.368v-2.143c0-.184 0-.368.015-.536l-.122.122c-.138.123-.307.245-.475.383l-.2-.26.828-.643h.322zM101.226 129.201h-.444v.704h-.368v-.704h-1.471v-.322l1.456-2.066h.398v2.051h.444v.337zm-.812-.337v-.964c0-.184 0-.414.03-.689h-.015s-.046.092-.076.168c-.031.077-.077.123-.108.169l-.92 1.316h1.104zM103.556 129.905h-2.039v-.321l.813-.812c.245-.245.398-.428.475-.52.076-.107.138-.199.168-.306.031-.108.062-.199.062-.322 0-.168-.046-.291-.138-.383s-.23-.137-.399-.137a.9.9 0 0 0-.352.061 1.8 1.8 0 0 0-.384.229l-.199-.26c.291-.245.598-.367.95-.367.292 0 .506.076.675.214.168.138.245.352.245.597 0 .138-.031.26-.077.383-.046.122-.122.26-.214.383a6 6 0 0 1-.491.535l-.643.628 1.548.015v.383"/><path stroke="#898989" stroke-linecap="round" stroke-linejoin="round" stroke-width=".25" d="M71.923 179.908a2.96 2.96 0 0 1-2.957-2.955 2.95 2.95 0 0 1 2.957-2.955 2.95 2.95 0 0 1 2.958 2.955 2.95 2.95 0 0 1-2.958 2.955"/><path stroke="#231815" stroke-linecap="round" stroke-linejoin="round" stroke-width=".1" d="M100.031 172.911v-7.18M148.169 75.004h-16.108"/><path stroke="#898989" stroke-linecap="round" stroke-linejoin="round" stroke-width=".25" d="M128.153 77.959a2.96 2.96 0 0 0 2.958-2.955 2.95 2.95 0 0 0-2.958-2.955 2.95 2.95 0 0 0-2.958 2.955 2.95 2.95 0 0 0 2.958 2.954"/><path stroke="#231815" stroke-linecap="round" stroke-linejoin="round" stroke-width=".1" d="M128.153 95.014V78.923"/><path stroke="#898989" stroke-linecap="round" stroke-linejoin="round" stroke-width=".25" d="M158.268 26.532h1.41v6.2q0 1.632-.368 2.573c-.245.627-.674 1.148-1.302 1.546q-.943.597-2.483.597c-1.027 0-1.809-.168-2.437-.52s-1.088-.842-1.349-1.5c-.275-.659-.398-1.562-.398-2.695v-6.2h1.41v6.2c0 .934.092 1.623.26 2.067.169.444.46.78.889 1.025.414.245.92.352 1.533.352 1.027 0 1.762-.23 2.207-.704s.659-1.378.659-2.74v-6.2zM161.395 37.28V26.532h4c.705 0 1.241.03 1.609.107.521.092.95.26 1.303.506.352.245.628.597.842 1.04q.322.668.322 1.47c0 .919-.291 1.685-.858 2.328-.567.627-1.609.949-3.111.949h-2.713v4.363h-1.41zm1.394-5.634h2.744c.904 0 1.547-.169 1.931-.52.383-.338.567-.828.567-1.44 0-.444-.108-.827-.337-1.148-.23-.322-.522-.536-.889-.628-.23-.061-.675-.092-1.303-.092h-2.713v3.843z"/></g><defs><clipPath id="a"><path fill="#fff" d="M0 0h200v202H0z"/></clipPath></defs></svg>