<svg width="134" height="450" viewBox="0 0 134 450" fill="none" xmlns="http://www.w3.org/2000/svg">
<g clip-path="url(#clip0_607_2618)">
<path d="M133.98 0H0V449.99H133.98V0Z" fill="white"/>
<path d="M13.94 193.83V204.23" stroke="#231815" stroke-width="0.71" stroke-linecap="round" stroke-linejoin="round"/>
<path d="M54.33 436.05H79.65" stroke="#231815" stroke-linecap="round" stroke-linejoin="round"/>
<path d="M13.94 409.26H46.25" stroke="#231815" stroke-linecap="round" stroke-linejoin="round"/>
<path d="M87.73 409.26H120.04" stroke="#231815" stroke-linecap="round" stroke-linejoin="round"/>
<path d="M100.65 357.29H33.33" stroke="#231815" stroke-width="0.5" stroke-linecap="round" stroke-linejoin="round"/>
<path d="M33.33 330.36H100.65" stroke="#231815" stroke-width="0.5" stroke-linecap="round" stroke-linejoin="round"/>
<path d="M77.76 316.89H56.22" stroke="#231815" stroke-width="0.5" stroke-linecap="round" stroke-linejoin="round"/>
<path d="M56.22 304.77H77.76" stroke="#231815" stroke-width="0.5" stroke-linecap="round" stroke-linejoin="round"/>
<path d="M13.94 409.26V30.1" stroke="#231815" stroke-linecap="round" stroke-linejoin="round"/>
<path d="M26.6 199.35V123.54" stroke="#231815" stroke-width="0.5" stroke-linecap="round" stroke-linejoin="round"/>
<path d="M27.94 351.9V335.74" stroke="#231815" stroke-width="0.5" stroke-linecap="round" stroke-linejoin="round"/>
<path d="M28.75 28.75V16.63" stroke="#231815" stroke-linecap="round" stroke-linejoin="round"/>
<path d="M54.33 436.05V417.34" stroke="#231815" stroke-linecap="round" stroke-linejoin="round"/>
<path d="M60.93 96.75V75.2" stroke="#231815" stroke-width="0.5" stroke-linecap="round" stroke-linejoin="round"/>
<path d="M73.05 75.2V96.75" stroke="#231815" stroke-width="0.5" stroke-linecap="round" stroke-linejoin="round"/>
<path d="M79.65 417.34V436.05" stroke="#231815" stroke-linecap="round" stroke-linejoin="round"/>
<path d="M96.61 210.12H37.37" stroke="#231815" stroke-width="0.5" stroke-linecap="round" stroke-linejoin="round"/>
<path d="M105.23 28.75V16.63" stroke="#231815" stroke-linecap="round" stroke-linejoin="round"/>
<path d="M106.04 335.74V351.9" stroke="#231815" stroke-width="0.5" stroke-linecap="round" stroke-linejoin="round"/>
<path d="M107.38 123.54V199.35" stroke="#231815" stroke-width="0.5" stroke-linecap="round" stroke-linejoin="round"/>
<path d="M120.04 409.26V30.1" stroke="#231815" stroke-linecap="round" stroke-linejoin="round"/>
<path d="M37.37 112.77H96.61" stroke="#231815" stroke-width="0.5" stroke-linecap="round" stroke-linejoin="round"/>
<path d="M13.94 30.1H27.4" stroke="#231815" stroke-linecap="round" stroke-linejoin="round"/>
<path d="M106.57 30.1H120.04" stroke="#231815" stroke-linecap="round" stroke-linejoin="round"/>
<path d="M102.54 13.94H31.44" stroke="#231815" stroke-linecap="round" stroke-linejoin="round"/>
<path d="M54.33 417.34C54.33 412.88 50.71 409.26 46.25 409.26" stroke="#231815" stroke-linecap="round" stroke-linejoin="round"/>
<path d="M56.22 304.77C52.87 304.77 50.16 307.48 50.16 310.83C50.16 314.18 52.87 316.89 56.22 316.89" stroke="#231815" stroke-width="0.5" stroke-linecap="round" stroke-linejoin="round"/>
<path d="M33.33 330.36C30.36 330.36 27.94 332.77 27.94 335.75" stroke="#231815" stroke-width="0.5" stroke-linecap="round" stroke-linejoin="round"/>
<path d="M27.94 351.9C27.94 354.87 30.35 357.29 33.33 357.29" stroke="#231815" stroke-width="0.5" stroke-linecap="round" stroke-linejoin="round"/>
<path d="M37.37 112.77C31.42 112.77 26.6 117.59 26.6 123.54" stroke="#231815" stroke-width="0.5" stroke-linecap="round" stroke-linejoin="round"/>
<path d="M26.6 199.35C26.6 205.3 31.42 210.12 37.37 210.12" stroke="#231815" stroke-width="0.5" stroke-linecap="round" stroke-linejoin="round"/>
<path d="M60.93 96.75C60.93 100.1 63.64 102.81 66.99 102.81C70.34 102.81 73.05 100.1 73.05 96.75" stroke="#231815" stroke-width="0.5" stroke-linecap="round" stroke-linejoin="round"/>
<path d="M73.05 75.2C73.05 71.85 70.34 69.14 66.99 69.14C63.64 69.14 60.93 71.85 60.93 75.2" stroke="#231815" stroke-width="0.5" stroke-linecap="round" stroke-linejoin="round"/>
<path d="M31.44 13.94C29.95 13.94 28.75 15.15 28.75 16.63" stroke="#231815" stroke-linecap="round" stroke-linejoin="round"/>
<path d="M27.4 30.1C28.14 30.1 28.75 29.5 28.75 28.75" stroke="#231815" stroke-linecap="round" stroke-linejoin="round"/>
<path d="M87.73 409.26C83.27 409.26 79.65 412.88 79.65 417.34" stroke="#231815" stroke-linecap="round" stroke-linejoin="round"/>
<path d="M77.76 316.89C81.11 316.89 83.82 314.18 83.82 310.83C83.82 307.48 81.11 304.77 77.76 304.77" stroke="#231815" stroke-width="0.5" stroke-linecap="round" stroke-linejoin="round"/>
<path d="M100.65 357.29C103.62 357.29 106.04 354.88 106.04 351.9" stroke="#231815" stroke-width="0.5" stroke-linecap="round" stroke-linejoin="round"/>
<path d="M106.04 335.74C106.04 332.77 103.63 330.35 100.65 330.35" stroke="#231815" stroke-width="0.5" stroke-linecap="round" stroke-linejoin="round"/>
<path d="M107.38 123.54C107.38 117.59 102.56 112.77 96.61 112.77" stroke="#231815" stroke-width="0.5" stroke-linecap="round" stroke-linejoin="round"/>
<path d="M96.61 210.12C102.56 210.12 107.38 205.3 107.38 199.35" stroke="#231815" stroke-width="0.5" stroke-linecap="round" stroke-linejoin="round"/>
<path d="M105.23 16.63C105.23 15.14 104.02 13.94 102.54 13.94" stroke="#231815" stroke-linecap="round" stroke-linejoin="round"/>
<path d="M105.23 28.75C105.23 29.49 105.83 30.1 106.58 30.1" stroke="#231815" stroke-linecap="round" stroke-linejoin="round"/>
</g>
<defs>
<clipPath id="clip0_607_2618">
<rect width="133.98" height="449.99" fill="white"/>
</clipPath>
</defs>
</svg>
