<svg xmlns="http://www.w3.org/2000/svg" width="113" height="243" fill="none" viewBox="0 0 113 243"><g clip-path="url(#a)"><path fill="#fff" d="M113 0H0v243h113z"/><path stroke="#231815" stroke-linecap="round" stroke-linejoin="round" stroke-width=".25" d="M53 233.01h-4.2M44.74 233.01h-4.33M65.26 230.29h7.7M94.76 229.73H54.4M39.01 229.73H18.24M11.87 7.97l-4.15 4.74M107.5 215.03h-5.31M10.81 215.03H5.5M107.5 214.42h-1.4M6.9 214.42H5.5M87.56 213.81H94M5.5 213.55h1.4M106.1 213.55h1.4M87.56 212.95H94M5.5 212.07h1.4M106.1 212.07h1.4M94 210.71h-6.44M94 209.64h-6.44M42.16 208.18h28.68M6.9 206.22h.7M105.4 206.22h.7M94 204.98h-6.44M94 203.8h-6.44M107.5 203.42h-1.4M6.9 203.42H5.5M107.5 202.72h-1.4M6.9 202.72H5.5M87.56 202.04H94M87.56 201.56H94M94 195.68h-6.44M94 194.61h-6.44M87.56 193.37H94M87.56 192.51H94M107.5 192.23h-2.1M5.5 192.23h2.1M107.5 191.61h-1.4M6.9 191.61H5.5M5.5 189.35h1.4M106.1 189.35h1.4M5.5 187.86h1.4M106.1 187.86h1.4M70.84 173.2H42.16M72.53 229.73l.43.56M15.49 227.45l-1.93-10.14M5.5 215.03v-12.31M5.5 192.23V30.62M5.5 20.13v-7.28M6.9 12.85v7.28M6.9 215.03v-12.31M6.9 192.23V30.62M7.11 192.23V34.12M7.11 20.13v-7.28M8.3 20.83v12.59M8.3 192.93v12.59M15.92 5.16v1.4M15.92 6.84v-.25M16.62 5.16v1.4M49.15 127.31h14.7M25.72 6.56v2.1M63.85 117.51h-14.7M37.96 177.4v26.58M38.66 28.52v7M39.71 8.66v-2.1M40.41 233.22v-2.09M48.45 118.21v8.4M53 231.13v2.09M74.34 92.19h-7M64.55 126.61v-8.4M65.26 230.29v.42M72.96 230.29v.42M73.29 6.56v2.1M74.34 92.19v-7M75.04 203.98V177.4M105.4 71.9h.7M87.28 8.66v-2.1M87.56 214.13v-22.11M94 192.02v22.11M96.38 6.56v-1.4M97.08 6.84v-.25M97.08 6.56v-1.4M104.7 205.52v-12.59M104.7 71.2V44.62M104.7 33.42V20.83M105.89 34.12v9.8M105.89 71.9v120.33M105.89 206.22v8.81M106.1 215.03v-12.31M106.1 192.23V30.62M106.1 20.13v-7.28M107.5 12.85v7.28M107.5 215.03v-12.31M107.5 192.23V30.62M105.4 43.92h.7M99.44 217.31l-1.93 10.14M6.9 34.12h.7M105.4 34.12h.7M107.5 31.32h-1.4M6.9 31.32H5.5M107.5 30.62h-1.4M6.9 30.62H5.5M45.66 28.52h-7M65.69 229.73l-.43.56M5.5 20.13h2.1M105.4 20.13h2.1M5.5 19.43h1.4M106.1 19.43h1.4M107.5 13.55h-1.4M6.9 13.55H5.5M107.5 12.85h-1.91M5.5 12.85h1.91M86.58 9.36H73.99M39.01 9.36H26.42M99.55 7.26H97.5M15.5 7.26h-2.05M15.92 6.77h9.8M39.71 6.77h33.58M87.28 6.77h9.8M15.92 6.56h81.16M15.92 5.16h81.16"/><path stroke="#231815" stroke-linecap="round" stroke-linejoin="round" stroke-width=".15" d="m44.69 17.42-.35.18M42.6 19.3l-.18.09M44.78 17.96l.26-.09M41.9 19.12l.26-.09M42.16 20.9l-.26.09M49.33 19.21l.52-.18M62.01 19.12l.26-.09M44.52 18.14l.26-.18M48.54 17.87l-.26.18M46.18 20.73l-.26.17M48.1 17.6l.35-.18M46.01 21.44l.35-.18M49.85 20.99l.18-.09M50.2 21.26l-.35.18M62.36 19.47l.35-.17M42.16 19.03l.17-.18M44.34 17.6l-.35.36M42.6 21.17l-.35.27M50.38 19.12l-.35.27M50.47 21.08l-.27.18M76.7 17.6l.35-.18M79.06 21.26l-.35.18M42.33 20.73l-.17.17M47.76 17.96l.34-.36M46.36 21.26l.35-.36M49.85 19.03l.18-.18M50.03 20.9l.17-.17M77.14 17.96l-.26.18M78.62 20.9l.27-.17M46.36 20.46l-.18.27M48.28 18.05l-.18.26M42.86 18.94l-.26.36M42.86 20.81l-.26.36M62.27 19.03l.18-.18M76.35 17.96l.35-.36M46.71 20.9l.17-.35M50.55 18.85l-.17.27M50.64 20.81l-.17.27M62.71 19.3l.26-.36M79.41 20.9l-.35.36M42.33 18.85l.09-.27M42.95 18.67l-.09.27M42.42 20.46l-.09.27M42.95 20.55l-.09.26M44.43 18.4l.09-.26M50.03 18.85l.17-.36M50.2 20.73l.09-.18M76.88 18.14l-.18.26M43.99 17.96l-.08.35M47.67 18.31l.09-.35M50.64 18.49l-.09.36M50.73 20.55l-.09.26M76.18 18.31l.17-.35M62.45 18.85l.08-.27M62.97 18.94l.09-.27M71.19 17.33l-1.4 4.2M69.44 20.99l1.23-3.66M39.71 21.53v-4.2M40.23 17.87v1.25M40.23 20.99v-1.34M42.42 20.19v.27M42.42 18.58v-.18M42.95 18.31v.36M42.95 20.1v.45M43.91 18.31v.36M44.43 18.58v-.18M46.36 20.19v.27M46.88 20.55v-.45M48.98 19.56v-.35M78.89 20.73l.08-.27M50.2 18.49v-.18M50.29 20.55v-.36M50.64 18.31v.18M50.73 20.19v.36M59.82 17.33v4.2M60.35 17.78v1.34M60.35 21.53v-1.88M76.09 18.76l.09-.45M79.5 20.46l-.09.44M76.7 18.4l-.09.36M62.53 18.58v-.27M63.06 18.67v-.36M63.85 21.53v-4.2M64.37 17.87v1.16M64.37 19.56v1.43M66.64 19.03v.53M66.99 17.33v.54M66.99 20.99v.54M42.33 19.92l.09.27M42.86 19.83l.09.27M42.42 18.4l-.09-.26M43.65 20.37l.08.36M43.91 18.67l.08.36M76.09 20.1v-1.34M76.61 18.76v1.34M42.86 18.05l.09.26M44.26 20.64l-.09-.27M44.52 18.85l-.09-.27M46.62 18.31l-.09-.26M47.67 20.81l-.09-.26M50.64 19.83l.09.36M50.55 17.96l.09.35M43.73 20.73l.26.44M46.88 20.1l-.17-.36M46.01 18.14l.08.17M48.02 20.55l.08.18M50.29 20.19l-.17-.36M63.15 21.53l-.79-2.06M61.83 19.65l.7 1.88M62.53 18.31l-.08-.26M63.06 18.31l-.09-.26M76.18 20.55l-.09-.45M78.27 20.99l.35-.09M42.16 19.74l.17.18M44.52 20.9l-.26-.26M42.6 19.47l.26.36M42.6 17.69l.26.36M46.53 18.05l-.26-.36M46.18 19.92l.18.27M47.84 21.08l-.17-.27M50.47 19.56l.17.27M50.2 18.31l-.17-.26M68.22 17.33l1.22 3.66M69.09 21.53l-1.4-4.2M78.97 18.4l-.08-.26M76.61 20.1l.09.36M79.41 17.96l.09.44M77.49 17.87l-.35.09M49.85 21.44l-.35.09M45.92 20.9l-.35.09M45.04 17.33l-.35.09M78.71 21.44l-.44.09M77.05 17.42l.44-.09M49.42 21.08l.43-.09M45.57 21.53l.44-.09M42.25 21.44l-.44.09M48.98 17.78l-.44.09M43.99 21.17l.44.27M44.78 19.03l-.26-.18M48.1 21.26l-.26-.18M45.92 19.74l.26.18M42.25 17.42l.35.27M46.27 17.69l-.35-.27M42.33 18.14l-.17-.18M43.99 19.03l.35.36M46.71 19.74l-.35-.35M48.1 20.73l.18.17M45.83 17.96l.18.18M50.2 17.6l.35.36M62.97 18.05l-.26-.36M76.35 20.9l-.17-.35M48.45 17.42l.62-.09M78.27 21.53h-.78M69.79 21.53h-.7M66.99 21.53h-3.14M49.5 21.53h-.7M41.81 21.53h-2.1M44.87 21.53h.7M59.82 21.53h.53M62.53 21.53h.62M48.89 21.08h.53M45.57 20.99h-.7M41.9 20.99h-1.67M64.37 20.99h2.62M77.49 20.99h.78M47.58 20.55h.44M78.97 20.46h.53M44.17 20.37h-.52M40.23 19.65h1.67M45.04 19.65h.53M60.35 19.65h1.48M66.64 19.56h-2.27M49.33 19.56h-.35M48.98 19.21h.35M45.57 19.12h-.53M40.23 19.12h1.67M60.35 19.12h1.66M64.37 19.03h2.27M79.5 18.4h-.53M48.1 18.31h-.43M46.09 18.31h.53M78.27 17.87h-.78M66.99 17.87h-2.62M41.9 17.87h-1.67M45.04 17.87h.53M62.01 17.78h-1.66M49.33 17.78h-.35M61.92 17.33h-2.1M45.48 17.33h-.44M39.71 17.33h2.1M49.07 17.33h.17M63.85 17.33h3.14M67.69 17.33h.53M70.67 17.33h.52M77.49 17.33h.78M49.24 17.33l.61.09M49.85 19.65l-.52-.09M44.43 21.44l.44.09M48.45 20.99l.44.09M46.01 19.21l-.44-.09M41.81 17.33l.44.09M45.92 17.42l-.44-.09M49.77 17.87l-.44-.09M77.49 21.53l-.44-.09M44.87 20.99l-.35-.09M48.8 21.53l-.35-.09M44.69 19.56l.35.09M45.57 19.65l.35.09M41.9 19.65l.26.09M45.04 19.12l-.26-.09M42.16 17.96l-.26-.09M45.57 17.87l.26.09M50.03 19.39l.44.17M42.42 19.39l.18.08M44.34 19.39l.35.17M48.45 21.44l-.35-.18M48.28 20.9l.17.09M46.36 19.39l-.35-.18M49.85 17.42l.35.18M50.12 19.83l-.27-.18M50.03 18.05l-.26-.18M62.71 17.69l-.35-.27M62.45 18.05l-.18-.18M76.7 21.26l-.35-.36M76.7 20.46l.18.27M62.36 17.42l-.44-.09M78.27 17.33l.44.09M77.14 20.9l.35.09M78.62 17.96l-.35-.09M62.27 17.87l-.26-.09M77.05 21.44l-.35-.18M78.71 17.42l.35.18M76.88 20.73l.26.17M78.89 18.14l-.27-.18M79.06 17.6l.35.36"/><path stroke="#231815" stroke-linecap="round" stroke-linejoin="round" stroke-width=".25" d="m105.28 12.71-4.15-4.74M42.16 173.2a4.2 4.2 0 0 0-4.2 4.2M37.96 203.98a4.2 4.2 0 0 0 4.2 4.2M13.56 217.31a2.8 2.8 0 0 0-2.75-2.27M15.49 227.45a2.8 2.8 0 0 0 2.75 2.27M54.4 229.73c-.77 0-1.4.63-1.4 1.4M40.41 231.13c0-.77-.63-1.4-1.4-1.4M48.45 126.61c0 .39.31.7.7.7M8.3 192.93c0-.39-.31-.7-.7-.7M7.6 206.22c.39 0 .7-.31.7-.7M13.45 7.26c-.61 0-1.18.26-1.58.72M49.15 117.51c-.39 0-.7.31-.7.7M25.72 8.66c0 .39.31.7.7.7M39.01 9.36c.39 0 .7-.31.7-.7M7.6 34.12c.39 0 .7-.31.7-.7M8.3 20.83c0-.39-.31-.7-.7-.7M7.41 12.85c.12 0 .24-.05.32-.14M15.5 7.26c.23 0 .42-.19.42-.42M75.04 177.4a4.2 4.2 0 0 0-4.2-4.2M70.84 208.18a4.2 4.2 0 0 0 4.2-4.2M102.19 215.03c-1.34 0-2.5.95-2.75 2.27M94.76 229.73c1.34 0 2.5-.95 2.75-2.27M94 214.13c0 .66.53 1.19 1.19 1.19s1.19-.53 1.19-1.19M96.38 192.02c0-.66-.53-1.19-1.19-1.19s-1.19.53-1.19 1.19M87.56 192.02c0-.66-.53-1.19-1.19-1.19s-1.19.53-1.19 1.19M85.18 214.13c0 .66.53 1.19 1.19 1.19s1.19-.53 1.19-1.19M63.85 127.31c.39 0 .7-.31.7-.7M105.4 192.23c-.39 0-.7.31-.7.7M104.7 205.52c0 .39.31.7.7.7M101.13 7.97c-.4-.46-.97-.72-1.58-.72M64.55 118.21c0-.39-.31-.7-.7-.7M104.7 71.2c0 .39.31.7.7.7M105.4 43.92c-.39 0-.7.31-.7.7M86.58 9.36c.39 0 .7-.31.7-.7M73.29 8.66c0 .39.31.7.7.7M105.4 20.13c-.39 0-.7.31-.7.7M104.7 33.42c0 .39.31.7.7.7M105.28 12.71c.08.09.19.14.32.14M97.08 6.84c0 .23.19.42.42.42M50.62 237.84h-7.83M50.9 237.56h-8.39M42.51 235.46h8.39M42.79 235.18h7.83M42.51 235.46v2.1M50.9 235.46v2.1M50.9 235.46c0-.15-.13-.28-.28-.28M42.79 235.18c-.15 0-.28.13-.28.28M42.51 237.56c0 .15.13.28.28.28M50.62 237.84c.15 0 .28-.13.28-.28M53 234.62H40.41M53 233.22H40.41M53.7 226.58h5.6M59.3 220.28h-5.6M13.13 171.24h1.39M14.52 165.64h-1.39M40.41 234.62v-1.4M41.81 234.62v-1.4M51.6 234.62v-1.4M53 234.62v-1.4M53.35 103.8v5.6M59.65 109.4v-5.6M85.18 214.13v-22.11M96.38 192.02v22.11M53.7 220.28a3.15 3.15 0 1 0 0 6.3M14.52 171.24c1.55 0 2.8-1.25 2.8-2.8s-1.25-2.8-2.8-2.8M13.13 165.64c-1.55 0-2.8 1.25-2.8 2.8s1.25 2.8 2.8 2.8M16.62 183.48a2.45 2.45 0 1 0 0-4.9 2.45 2.45 0 0 0 0 4.9M14.52 72.6a2.8 2.8 0 1 0 0-5.6 2.8 2.8 0 0 0 0 5.6M16.62 30.97a2.45 2.45 0 1 0 0-4.9 2.45 2.45 0 0 0 0 4.9M59.3 226.58a3.15 3.15 0 1 0 0-6.3M98.48 171.24a2.8 2.8 0 1 0-.001-5.601 2.8 2.8 0 0 0 0 5.601M96.38 183.48a2.45 2.45 0 1 0 0-4.9 2.45 2.45 0 0 0 0 4.9M56.5 219.23a2.45 2.45 0 1 0 0-4.9 2.45 2.45 0 0 0 0 4.9M53.35 109.4a3.15 3.15 0 1 0 6.3 0M59.65 103.8a3.15 3.15 0 1 0-6.3 0M98.48 72.6a2.8 2.8 0 1 0 0-5.6 2.8 2.8 0 0 0 0 5.6M96.38 30.97a2.45 2.45 0 1 0 0-4.9 2.45 2.45 0 0 0 0 4.9M56.5 26.01a2.45 2.45 0 1 0 0-4.9 2.45 2.45 0 0 0 0 4.9M72.96 230.71h-7.7M44.89 235.18v-.56M48.52 235.18v-.56"/><path stroke="#231815" stroke-linecap="round" stroke-linejoin="round" stroke-width=".15" d="m44.85 232.91-.24-.24M44.85 232.21l-.24-.24M44.85 231.51l-.24-.24M44.85 230.81l-.24-.24M44.85 230.11l-.24-.24M44.85 229.41l-.24-.24M48.56 232.56l.24.24M44.69 228.55l-.01-.01M44.85 228.71l-.16-.16M48.56 231.86l.24.24M48.56 231.16l.24.24M48.56 230.46l.24.24M48.56 229.76l.24.24M48.56 229.06l.24.24M44.61 232.66v.01"/><circle cx="44.61" cy="231.97" r=".075" fill="#231815"/><circle cx="44.61" cy="231.27" r=".075" fill="#231815"/><circle cx="44.61" cy="230.57" r=".075" fill="#231815"/><circle cx="44.61" cy="229.87" r=".075" fill="#231815"/><circle cx="44.61" cy="229.17" r=".075" fill="#231815"/><circle cx="48.8" cy="232.8" r=".075" fill="#231815"/><circle cx="48.8" cy="232.1" r=".075" fill="#231815"/><path stroke="#231815" stroke-linecap="round" stroke-linejoin="round" stroke-width=".15" d="M48.8 231.4v.01M48.8 230.7v.01M48.8 230v.01M48.8 229.3v.01M44.61 228.96v.21M44.61 229.66v.21M44.61 230.36v.21M44.61 231.06v.21M44.61 231.76v.21M44.61 232.45v.21M48.8 229.31v.21M48.8 230.01v.21M48.8 230.71v.21M48.8 231.41v.21M48.8 232.1v.21M48.8 232.8v.21M44.61 229.65v.01M44.61 230.35v.01M44.61 231.05v.01M44.61 231.75v.01"/><circle cx="44.61" cy="232.45" r=".075" fill="#231815"/><circle cx="48.8" cy="229.52" r=".075" fill="#231815"/><circle cx="48.8" cy="230.22" r=".075" fill="#231815"/><circle cx="48.8" cy="230.92" r=".075" fill="#231815"/><circle cx="48.8" cy="231.62" r=".075" fill="#231815"/><path stroke="#231815" stroke-linecap="round" stroke-linejoin="round" stroke-width=".15" d="M48.8 232.31v.01M44.61 228.95l.25-.24M44.61 229.65l.25-.25M44.61 230.35l.25-.25M44.61 231.05l.25-.25M44.61 231.75l.25-.25M44.61 232.45l.25-.25M48.8 228.82l-.24.25M44.67 233.08l.19-.18M48.8 229.52l-.24.25M48.8 230.22l-.24.25M48.8 230.92l-.24.25M48.8 231.62l-.24.25M48.8 232.32l-.24.25M48.8 233.02l-.06.06M48.8 232.32h-.17c-.04 0-.07 0-.11.01M44.89 229.81c.06 0 .13-.01.19-.02.08 0 .15-.01.23-.02.19-.01.38-.02.57-.04.11 0 .21-.01.32-.02s.22-.01.33-.02.22-.01.34-.02.22-.01.33-.02.21-.01.32-.02c.1 0 .2-.01.3-.02.09 0 .18-.01.27-.02.08 0 .16-.01.24-.02h.47M44.61 229.87h.14c.04 0 .08-.01.12-.01M44.89 230.3s-.07 0-.11.01h-.17M48.8 230.01h-.23c-.06 0-.12.01-.19.02-.08 0-.15.01-.23.02-.09 0-.18.01-.27.02-.1 0-.2.01-.3.02-.11 0-.22.01-.32.02s-.22.01-.34.02-.23.01-.34.02-.23.01-.34.02-.22.01-.33.02c-.19.01-.39.02-.58.04-.08 0-.16.01-.24.02-.07 0-.13.01-.2.02M44.61 230.57h.15c.03 0 .06 0 .09-.01.03 0 .07 0 .1-.01.04 0 .08 0 .12-.01.04 0 .09 0 .13-.01.05 0 .1 0 .15-.01.05 0 .11 0 .16-.01.12 0 .24-.01.35-.02.13 0 .26-.01.38-.02s.27-.01.4-.02.27-.01.4-.02.26-.01.39-.02c.12 0 .24-.01.36-.02.06 0 .11 0 .17-.01.05 0 .1 0 .16-.01.05 0 .09 0 .14-.01.04 0 .08 0 .13-.01.04 0 .07 0 .11-.01.03 0 .06 0 .09-.01.03 0 .05 0 .08-.01.02 0 .04 0 .06-.01h.05M48.8 230.71h-.15c-.03 0-.06 0-.09.01-.03 0-.07 0-.1.01-.04 0-.08 0-.12.01-.04 0-.09 0-.13.01-.05 0-.1 0-.15.01-.05 0-.11 0-.16.01-.12 0-.24.01-.35.02-.13 0-.26.01-.38.02s-.27.01-.4.02-.27.01-.4.02-.26.01-.39.02c-.12 0-.24.01-.36.02-.06 0-.11 0-.17.01-.05 0-.1 0-.16.01-.05 0-.09 0-.14.01-.04 0-.08 0-.13.01-.04 0-.07 0-.11.01-.03 0-.06 0-.09.01-.03 0-.05 0-.08.01-.02 0-.04 0-.06.01h-.05M48.56 231.87h-.01c-.01 0-.02 0-.04.01-.02 0-.03 0-.05.01-.02 0-.04 0-.07.01-.03 0-.05 0-.08.01-.03 0-.06 0-.1.01-.04 0-.07 0-.11.01-.04 0-.08 0-.12.01-.09 0-.18.01-.28.02-.1 0-.21.01-.31.02-.11 0-.22.01-.34.02s-.23.01-.35.02-.23.01-.35.02-.22.01-.34.02c-.1 0-.21.01-.31.02-.09 0-.18.01-.28.02-.04 0-.08 0-.12.01-.04 0-.07 0-.11.01-.03 0-.06 0-.1.01-.03 0-.05 0-.08.01-.02 0-.04 0-.07.01-.02 0-.03 0-.05.01-.01 0-.02 0-.04.01h-.01M44.61 231.27h.15c.03 0 .06 0 .09-.01.03 0 .07 0 .1-.01.04 0 .08 0 .12-.01.04 0 .09 0 .13-.01.05 0 .1 0 .15-.01.05 0 .11 0 .16-.01.12 0 .24-.01.35-.02.13 0 .26-.01.38-.02s.27-.01.4-.02.27-.01.4-.02.26-.01.39-.02c.12 0 .24-.01.36-.02.06 0 .11 0 .17-.01.05 0 .1 0 .16-.01.05 0 .09 0 .14-.01.04 0 .08 0 .13-.01.04 0 .07 0 .11-.01.03 0 .06 0 .09-.01.03 0 .05 0 .08-.01.02 0 .04 0 .06-.01h.05M48.8 231.41h-.15c-.03 0-.06 0-.09.01-.03 0-.07 0-.1.01-.04 0-.08 0-.12.01-.04 0-.09 0-.13.01-.05 0-.1 0-.15.01-.05 0-.11 0-.16.01-.12 0-.24.01-.35.02-.13 0-.26.01-.38.02s-.27.01-.4.02-.27.01-.4.02-.26.01-.39.02c-.12 0-.24.01-.36.02-.06 0-.11 0-.17.01-.05 0-.1 0-.16.01-.05 0-.09 0-.14.01-.04 0-.08 0-.13.01-.04 0-.07 0-.11.01-.03 0-.06 0-.09.01-.03 0-.05 0-.08.01-.02 0-.04 0-.06.01h-.05M44.61 231.97h.15c.03 0 .06 0 .09-.01.03 0 .07 0 .1-.01.04 0 .08 0 .12-.01.04 0 .09 0 .13-.01.05 0 .1 0 .15-.01.05 0 .11 0 .16-.01.12 0 .24-.01.35-.02.13 0 .26-.01.38-.02s.27-.01.4-.02.27-.01.4-.02.26-.01.39-.02c.12 0 .24-.01.36-.02.06 0 .11 0 .17-.01.05 0 .1 0 .16-.01.05 0 .09 0 .14-.01.04 0 .08 0 .13-.01.04 0 .07 0 .11-.01.03 0 .06 0 .09-.01.03 0 .05 0 .08-.01.02 0 .04 0 .06-.01h.05M48.8 232.1h-.15c-.03 0-.06 0-.09.01-.03 0-.07 0-.1.01-.04 0-.08 0-.12.01-.04 0-.09 0-.13.01-.05 0-.1 0-.15.01-.05 0-.11 0-.16.01-.12 0-.24.01-.35.02-.13 0-.26.01-.38.02s-.27.01-.4.02-.27.01-.4.02-.26.01-.39.02c-.12 0-.24.01-.36.02-.06 0-.11 0-.17.01-.05 0-.1 0-.16.01-.05 0-.09 0-.14.01-.04 0-.08 0-.13.01-.04 0-.07 0-.11.01-.03 0-.06 0-.09.01-.03 0-.05 0-.08.01-.02 0-.04 0-.06.01h-.05M48.52 232.37c-.06 0-.13.01-.2.02-.08 0-.16.01-.24.02-.19.01-.39.03-.58.04-.11 0-.22.01-.33.02s-.23.01-.34.02-.23.01-.34.02-.22.01-.34.02-.22.01-.32.02c-.1 0-.2.01-.3.02-.09 0-.18.01-.27.02-.08 0-.15.01-.23.02-.06 0-.12.01-.19.02h-.23M48.8 232.8h-.14c-.04 0-.08.01-.12.01M48.56 231.17h-.01c-.01 0-.02 0-.04.01-.02 0-.03 0-.05.01-.02 0-.04 0-.07.01-.03 0-.05 0-.08.01-.03 0-.06 0-.1.01-.04 0-.07 0-.11.01-.04 0-.08 0-.12.01l-.43.03-.5.03-.52.03c-.09 0-.17.01-.26.02s-.17.01-.25.02c-.08 0-.16.01-.24.02-.07 0-.15.01-.22.02-.07 0-.13.01-.2.02-.06 0-.11.01-.17.02-.05 0-.09 0-.14.02h-.21M45.1 230.05s-.06 0-.1.01h-.14M48.56 230.47h-.01c-.01 0-.02 0-.04.01-.02 0-.03 0-.05.01-.02 0-.04 0-.07.01-.03 0-.05 0-.08.01-.03 0-.06 0-.1.01-.04 0-.07 0-.11.01-.04 0-.08 0-.12.01-.09 0-.18.01-.28.02-.1 0-.21.01-.31.02-.11 0-.22.01-.34.02s-.23.01-.35.02-.23.01-.35.02-.22.01-.34.02c-.1 0-.21.01-.31.02-.09 0-.18.01-.28.02-.04 0-.08 0-.12.01-.04 0-.07 0-.11.01-.03 0-.06 0-.1.01-.03 0-.05 0-.08.01-.02 0-.04 0-.07.01-.02 0-.03 0-.05.01-.01 0-.02 0-.04.01h-.01M48.56 232.57h-.14c-.03 0-.06 0-.1.01M48.8 229.31h-.15c-.03 0-.06 0-.09.01-.03 0-.07 0-.1.01-.04 0-.08 0-.12.01-.04 0-.09 0-.13.01-.05 0-.1 0-.15.01-.05 0-.11 0-.16.01-.12 0-.24.01-.35.02-.13 0-.26.01-.38.02s-.27.01-.4.02-.27.01-.4.02-.26.01-.39.02c-.12 0-.24.01-.36.02-.06 0-.11 0-.17.01-.05 0-.1 0-.16.01-.05 0-.09 0-.14.01-.04 0-.08 0-.13.01-.04 0-.07 0-.11.01-.03 0-.06 0-.09.01-.03 0-.05 0-.08.01-.02 0-.04 0-.06.01h-.05M44.67 233.08h4.07M47.69 227.49h-1.96M48.8 228.61l-.24-.25M48.56 228.36l-.87-.87M48.56 228.36v.01M44.89 233.22v-.14M48.52 233.22v-.14M48.8 228.61v.21"/><circle cx="44.68" cy="228.54" r=".075" fill="#231815"/><path stroke="#231815" stroke-linecap="round" stroke-linejoin="round" stroke-width=".15" d="M44.61 228.95v.01M48.8 233.02v-.01M44.68 228.54l1.05-1.05M48.31 232.62c-.06 0-.11.01-.17.02-.07 0-.14.01-.2.02-.17.01-.33.02-.5.04-.09 0-.19.01-.28.02s-.19.01-.29.02-.2.01-.3.02-.2.01-.29.02-.19.01-.28.02c-.09 0-.18.01-.26.02-.08 0-.16.01-.24.02-.07 0-.14.01-.21.02h-.42M48.52 232.86s-.1 0-.14.01c-.06 0-.11 0-.17.01l-.41.03c-.16 0-.32.02-.47.03-.17 0-.34.02-.51.03l-.52.03-.49.03c-.15 0-.29.02-.44.03-.12 0-.24.02-.36.03M48.4 233.08c.05 0 .11 0 .16-.02h.23M48.8 228.61h-.15c-.03 0-.06 0-.09.01-.03 0-.07 0-.1.01-.04 0-.08 0-.12.01-.04 0-.09 0-.13.01-.05 0-.1 0-.15.01-.05 0-.11 0-.16.01-.12 0-.24.01-.35.02-.13 0-.26.01-.38.02s-.27.01-.4.02-.27.01-.4.02-.26.01-.39.02c-.12 0-.24.01-.36.02-.06 0-.11 0-.17.01-.05 0-.1 0-.16.01-.05 0-.09 0-.14.01-.04 0-.08 0-.13.01-.04 0-.07 0-.11.01-.03 0-.06 0-.09.01-.03 0-.05 0-.08.01-.02 0-.04 0-.06.01h-.05M48.8 228.82h-.05c-.02 0-.04 0-.06.01-.03 0-.05 0-.08.01-.03 0-.06 0-.09.01-.04 0-.07 0-.11.01-.04 0-.08 0-.13.01-.05 0-.09 0-.14.01-.05 0-.1 0-.16.01-.06 0-.11 0-.17.01-.12 0-.24.01-.36.02-.13 0-.26.01-.39.02s-.27.01-.4.02-.27.01-.4.02-.26.01-.38.02c-.12 0-.24.01-.35.02-.05 0-.11 0-.16.01-.05 0-.1 0-.15.01-.04 0-.09 0-.13.01-.04 0-.08 0-.12.01-.03 0-.07 0-.1.01-.03 0-.06 0-.09.01h-.15M48.56 229.77h-.42c-.07 0-.14.01-.21.02-.08 0-.16.01-.24.02-.09 0-.18.01-.26.02-.09 0-.19.01-.28.02s-.2.01-.29.02-.2.01-.3.02-.19.01-.29.02-.19.01-.28.02c-.17.01-.33.02-.5.04-.07 0-.14.01-.2.02-.06 0-.11.01-.17.02M48.56 228.37h-.01c-.01 0-.02 0-.04.01-.02 0-.03 0-.05.01-.02 0-.04 0-.07.01-.03 0-.05 0-.08.01-.03 0-.06 0-.1.01-.04 0-.07 0-.11.01-.04 0-.08 0-.12.01-.09 0-.18.01-.28.02-.1 0-.21.01-.31.02-.11 0-.22.01-.34.02s-.23.01-.35.02-.23.01-.35.02-.22.01-.34.02c-.1 0-.21.01-.31.02-.09 0-.18.01-.28.02-.04 0-.08 0-.12.01-.04 0-.07 0-.11.01-.03 0-.06 0-.1.01-.03 0-.05 0-.08.01-.02 0-.04 0-.07.01-.02 0-.03 0-.05.01-.01 0-.02 0-.04.01h-.01M48.56 228.37h-.01"/><path stroke="#231815" stroke-linecap="round" stroke-linejoin="round" stroke-width=".15" d="M48.54 228.37h-.44c-.09 0-.18 0-.26.01-.1 0-.2 0-.3.01-.11 0-.22 0-.34.01-.12 0-.24 0-.35.01s-.24 0-.36.01-.24 0-.35.01-.22 0-.34.01c-.1 0-.2 0-.31.01h-.79M48.56 229.07h-.01c-.01 0-.02 0-.04.01-.02 0-.03 0-.05.01-.02 0-.04 0-.07.01-.03 0-.05 0-.08.01-.03 0-.06 0-.1.01-.04 0-.07 0-.11.01-.04 0-.08 0-.12.01l-.43.03-.5.03-.52.03c-.09 0-.17.01-.26.02s-.17.01-.25.02c-.08 0-.16.01-.24.02-.07 0-.15.01-.22.02-.07 0-.13.01-.2.02-.06 0-.11.01-.17.02-.05 0-.09 0-.14.02h-.21"/><path stroke="#231815" stroke-linecap="round" stroke-linejoin="round" stroke-width=".5" d="M97.08 6.59v.25c0 .23.19.42.42.42h2.06c.61 0 1.18.26 1.58.72l4.14 4.74c.08.09.19.14.32.14h1.91v7.28h-2.1c-.39 0-.7.31-.7.7v12.59c0 .39.31.7.7.7h.7v-3.5h1.4v161.6h-2.1c-.39 0-.7.31-.7.7v12.59c0 .39.31.7.7.7h.7v-3.5h1.4v12.31h-5.31c-1.34 0-2.5.95-2.75 2.27l-1.93 10.14a2.8 2.8 0 0 1-2.75 2.27H72.54l.43.56v.42h-7.7v-.42l.43-.56H54.41c-.77 0-1.4.63-1.4 1.4v3.5h-4.48v.56h2.1c.15 0 .28.13.28.28v2.1c0 .15-.13.28-.28.28h-7.84c-.15 0-.28-.13-.28-.28v-2.1c0-.15.13-.28.28-.28h2.1v-.56h-4.48v-3.5c0-.77-.63-1.4-1.4-1.4H18.24c-1.34 0-2.5-.95-2.75-2.27l-1.93-10.14a2.8 2.8 0 0 0-2.75-2.27H5.5v-12.31h1.4v3.5h.7c.39 0 .7-.31.7-.7v-12.59c0-.39-.31-.7-.7-.7H5.5V30.62h1.4v3.5h.7c.39 0 .7-.31.7-.7V20.83c0-.39-.31-.7-.7-.7H5.5v-7.28h1.91c.12 0 .24-.05.32-.14l4.14-4.74c.4-.46.97-.72 1.58-.72h2.06c.23 0 .42-.19.42-.42V5.15h81.15v1.4"/></g><defs><clipPath id="a"><path fill="#fff" d="M0 0h113v243H0z"/></clipPath></defs></svg>