<svg width="62" height="56" viewBox="0 0 62 56" fill="none" xmlns="http://www.w3.org/2000/svg">
<g clip-path="url(#clip0_50_1378)">
<path d="M9.27 6.28L12.97 2.2L12.93 1.12C12.89 -0.169995 0.189998 -0.0199955 0.249998 1.55L0.289998 2.63L4.26 6.45L6.07 44.68L7.92 51.86C8.1 52.47 8.66 52.41 8.76 51.83L10.11 44.54L9.27 6.27V6.28Z" fill="white"/>
<path d="M7.91998 5.5L9.51998 1.77" stroke="#B3B3B3" stroke-width="0.3" stroke-linecap="round" stroke-linejoin="round"/>
<path d="M4.95001 5.6L2.60001 2.14" stroke="#B3B3B3" stroke-width="0.3" stroke-linecap="round" stroke-linejoin="round"/>
<path d="M4.26001 6.45001C4.24001 5.83001 9.25001 5.77001 9.27001 6.28001" stroke="black" stroke-width="0.3" stroke-linecap="round" stroke-linejoin="round"/>
<path d="M0.290003 2.63001C0.240003 1.05001 12.93 0.910007 12.97 2.19001" stroke="black" stroke-width="0.3" stroke-linecap="round" stroke-linejoin="round"/>
<mask id="mask0_50_1378" style="mask-type:luminance" maskUnits="userSpaceOnUse" x="0" y="0" width="13" height="53">
<path d="M9.27 6.28L12.97 2.2L12.93 1.12C12.89 -0.169995 0.189998 -0.0199955 0.249998 1.55L0.289998 2.63L4.26 6.45L6.07 44.68L7.92 51.86C8.1 52.47 8.66 52.41 8.76 51.83L10.11 44.54L9.27 6.27V6.28Z" fill="white"/>
</mask>
<g mask="url(#mask0_50_1378)">
<path d="M4.16 9.55001C4.27 7.29001 8.56 6.61001 9.59 7.36001" stroke="#999999" stroke-width="0.3" stroke-linecap="round" stroke-linejoin="round"/>
<path d="M4.26999 12.25C4.37999 10 8.63999 9.34001 9.66999 10.07" stroke="#999999" stroke-width="0.3" stroke-linecap="round" stroke-linejoin="round"/>
<path d="M4.38 14.96C4.49 12.73 8.72 12.07 9.74 12.8" stroke="#999999" stroke-width="0.3" stroke-linecap="round" stroke-linejoin="round"/>
<path d="M4.48999 17.67C4.59999 15.45 8.79999 14.8 9.80999 15.53" stroke="#999999" stroke-width="0.3" stroke-linecap="round" stroke-linejoin="round"/>
<path d="M4.60001 20.38C4.71001 18.18 8.88001 17.53 9.88001 18.25" stroke="#999999" stroke-width="0.3" stroke-linecap="round" stroke-linejoin="round"/>
<path d="M4.70001 23.08C4.81001 20.89 8.95001 20.25 9.94001 20.97" stroke="#999999" stroke-width="0.3" stroke-linecap="round" stroke-linejoin="round"/>
<path d="M4.81 25.79C4.92 23.62 9.03 22.98 10.02 23.69" stroke="#999999" stroke-width="0.3" stroke-linecap="round" stroke-linejoin="round"/>
<path d="M4.92001 28.5C5.03001 26.35 9.11001 25.71 10.09 26.42" stroke="#999999" stroke-width="0.3" stroke-linecap="round" stroke-linejoin="round"/>
<path d="M5.03 31.21C5.14 29.07 9.19 28.44 10.16 29.14" stroke="#999999" stroke-width="0.3" stroke-linecap="round" stroke-linejoin="round"/>
<path d="M5.14001 33.91C5.25001 31.79 9.26001 31.16 10.23 31.86" stroke="#999999" stroke-width="0.3" stroke-linecap="round" stroke-linejoin="round"/>
<path d="M5.25 36.62C5.36 34.51 9.35 33.89 10.3 34.58" stroke="#999999" stroke-width="0.3" stroke-linecap="round" stroke-linejoin="round"/>
<path d="M5.36002 39.33C5.47002 37.24 9.42002 36.62 10.38 37.31" stroke="#999999" stroke-width="0.3" stroke-linecap="round" stroke-linejoin="round"/>
<path d="M5.45999 42.04C5.56999 39.97 9.48999 39.35 10.44 40.03" stroke="#999999" stroke-width="0.3" stroke-linecap="round" stroke-linejoin="round"/>
<path d="M5.57001 44.74C5.67001 42.68 9.57001 42.07 10.51 42.75" stroke="#999999" stroke-width="0.3" stroke-linecap="round" stroke-linejoin="round"/>
<path d="M6.19 47.09C6.28 45.34 9.47 44.77 10.46 45.26" stroke="#999999" stroke-width="0.3" stroke-linecap="round" stroke-linejoin="round"/>
<path d="M6.76001 49.18C6.83001 47.79 9.45001 47.38 10.09 47.84" stroke="#999999" stroke-width="0.3" stroke-linecap="round" stroke-linejoin="round"/>
<path d="M7.37 51.5C7.42 50.61 8.87 50.25 9.59 50.38" stroke="#999999" stroke-width="0.3" stroke-linecap="round" stroke-linejoin="round"/>
</g>
<path d="M9.27 6.28L12.97 2.2L12.93 1.12C12.89 -0.169995 0.189998 -0.0199955 0.249998 1.55L0.289998 2.63L4.26 6.45L6.07 44.68L7.92 51.86C8.1 52.47 8.66 52.41 8.76 51.83L10.11 44.54L9.27 6.27V6.28Z" stroke="black" stroke-width="0.5" stroke-linecap="round" stroke-linejoin="round"/>
<path d="M24.57 10.9L29.07 7.73L29.27 6.67C29.51 5.4 17.09 2.77 16.8 4.32L16.6 5.38L19.64 9.98L13.03 47.68L13.26 55.1C13.3 55.73 13.86 55.8 14.09 55.25L17 48.43L24.57 10.91V10.9Z" fill="white"/>
<path d="M23.43 9.84L25.8 6.55" stroke="#B3B3B3" stroke-width="0.3" stroke-linecap="round" stroke-linejoin="round"/>
<path d="M20.5 9.28001L18.96 5.40001" stroke="#B3B3B3" stroke-width="0.3" stroke-linecap="round" stroke-linejoin="round"/>
<path d="M19.64 9.97C19.76 9.36 24.66 10.4 24.57 10.9" stroke="black" stroke-width="0.3" stroke-linecap="round" stroke-linejoin="round"/>
<path d="M16.6 5.37C16.89 3.82 29.31 6.46 29.07 7.72" stroke="black" stroke-width="0.3" stroke-linecap="round" stroke-linejoin="round"/>
<mask id="mask1_50_1378" style="mask-type:luminance" maskUnits="userSpaceOnUse" x="13" y="3" width="17" height="53">
<path d="M24.57 10.9L29.07 7.73L29.27 6.67C29.51 5.4 17.09 2.77 16.8 4.32L16.6 5.38L19.64 9.98L13.03 47.68L13.26 55.1C13.3 55.73 13.86 55.8 14.09 55.25L17 48.43L24.57 10.91V10.9Z" fill="white"/>
</mask>
<g mask="url(#mask1_50_1378)">
<path d="M18.87 12.97C19.48 10.79 23.81 11.07 24.65 12.02" stroke="#999999" stroke-width="0.3" stroke-linecap="round" stroke-linejoin="round"/>
<path d="M18.38 15.63C18.98 13.46 23.28 13.74 24.12 14.69" stroke="#999999" stroke-width="0.3" stroke-linecap="round" stroke-linejoin="round"/>
<path d="M17.89 18.3C18.49 16.15 22.76 16.43 23.59 17.37" stroke="#999999" stroke-width="0.3" stroke-linecap="round" stroke-linejoin="round"/>
<path d="M17.41 20.97C18 18.83 22.24 19.11 23.07 20.04" stroke="#999999" stroke-width="0.3" stroke-linecap="round" stroke-linejoin="round"/>
<path d="M16.92 23.63C17.51 21.51 21.72 21.78 22.54 22.71" stroke="#999999" stroke-width="0.3" stroke-linecap="round" stroke-linejoin="round"/>
<path d="M16.43 26.3C17.02 24.19 21.2 24.47 22.01 25.39" stroke="#999999" stroke-width="0.3" stroke-linecap="round" stroke-linejoin="round"/>
<path d="M15.95 28.96C16.53 26.87 20.68 27.14 21.49 28.05" stroke="#999999" stroke-width="0.3" stroke-linecap="round" stroke-linejoin="round"/>
<path d="M15.46 31.63C16.04 29.55 20.16 29.82 20.96 30.73" stroke="#999999" stroke-width="0.3" stroke-linecap="round" stroke-linejoin="round"/>
<path d="M14.97 34.29C15.54 32.23 19.63 32.5 20.43 33.4" stroke="#999999" stroke-width="0.3" stroke-linecap="round" stroke-linejoin="round"/>
<path d="M14.48 36.96C15.05 34.91 19.11 35.18 19.9 36.07" stroke="#999999" stroke-width="0.3" stroke-linecap="round" stroke-linejoin="round"/>
<path d="M14 39.62C14.57 37.59 18.59 37.85 19.38 38.74" stroke="#999999" stroke-width="0.3" stroke-linecap="round" stroke-linejoin="round"/>
<path d="M13.51 42.29C14.07 40.27 18.07 40.54 18.85 41.41" stroke="#999999" stroke-width="0.3" stroke-linecap="round" stroke-linejoin="round"/>
<path d="M13.02 44.96C13.58 42.96 17.54 43.22 18.32 44.09" stroke="#999999" stroke-width="0.3" stroke-linecap="round" stroke-linejoin="round"/>
<path d="M12.54 47.62C13.09 45.63 17.03 45.89 17.8 46.76" stroke="#999999" stroke-width="0.3" stroke-linecap="round" stroke-linejoin="round"/>
<path d="M12.63 50.04C13.1 48.35 16.34 48.49 17.2 49.19" stroke="#999999" stroke-width="0.3" stroke-linecap="round" stroke-linejoin="round"/>
<path d="M12.73 52.21C13.1 50.87 15.75 51.05 16.27 51.63" stroke="#999999" stroke-width="0.3" stroke-linecap="round" stroke-linejoin="round"/>
<path d="M12.81 54.61C13.05 53.75 14.55 53.72 15.22 54" stroke="#999999" stroke-width="0.3" stroke-linecap="round" stroke-linejoin="round"/>
</g>
<path d="M24.57 10.9L29.07 7.73L29.27 6.67C29.51 5.4 17.09 2.77 16.8 4.32L16.6 5.38L19.64 9.98L13.03 47.68L13.26 55.1C13.3 55.73 13.86 55.8 14.09 55.25L17 48.43L24.57 10.91V10.9Z" stroke="black" stroke-width="0.5" stroke-linecap="round" stroke-linejoin="round"/>
<path d="M41.44 6.28L45.14 2.2L45.1 1.12C45.05 -0.17 32.36 -0.0200002 32.42 1.56L32.46 2.64L36.43 6.46L38.24 44.69L40.09 51.87C40.27 52.48 40.83 52.42 40.93 51.84L42.28 44.55L41.44 6.28Z" fill="white"/>
<path d="M40.1 5.5L41.69 1.77" stroke="#B3B3B3" stroke-width="0.3" stroke-linecap="round" stroke-linejoin="round"/>
<path d="M37.12 5.6L34.77 2.14" stroke="#B3B3B3" stroke-width="0.3" stroke-linecap="round" stroke-linejoin="round"/>
<path d="M36.43 6.45C36.41 5.83 41.42 5.77 41.44 6.28" stroke="black" stroke-width="0.3" stroke-linecap="round" stroke-linejoin="round"/>
<path d="M32.46 2.63001C32.41 1.05001 45.1 0.910007 45.14 2.19001" stroke="black" stroke-width="0.3" stroke-linecap="round" stroke-linejoin="round"/>
<mask id="mask2_50_1378" style="mask-type:luminance" maskUnits="userSpaceOnUse" x="32" y="0" width="14" height="53">
<path d="M41.44 6.28L45.14 2.2L45.1 1.12C45.05 -0.17 32.36 -0.0200002 32.42 1.56L32.46 2.64L36.43 6.46L38.24 44.69L40.09 51.87C40.27 52.48 40.83 52.42 40.93 51.84L42.28 44.55L41.44 6.28Z" fill="white"/>
</mask>
<g mask="url(#mask2_50_1378)">
<path d="M36.33 9.54999C36.44 7.28999 40.73 6.60999 41.76 7.35999" stroke="#999999" stroke-width="0.3" stroke-linecap="round" stroke-linejoin="round"/>
<path d="M36.44 12.25C36.55 9.99999 40.81 9.33999 41.84 10.07" stroke="#999999" stroke-width="0.3" stroke-linecap="round" stroke-linejoin="round"/>
<path d="M36.55 14.96C36.66 12.73 40.89 12.07 41.91 12.8" stroke="#999999" stroke-width="0.3" stroke-linecap="round" stroke-linejoin="round"/>
<path d="M36.66 17.67C36.77 15.45 40.97 14.8 41.98 15.53" stroke="#999999" stroke-width="0.3" stroke-linecap="round" stroke-linejoin="round"/>
<path d="M36.77 20.38C36.88 18.18 41.05 17.53 42.05 18.25" stroke="#999999" stroke-width="0.3" stroke-linecap="round" stroke-linejoin="round"/>
<path d="M36.88 23.08C36.99 20.89 41.13 20.25 42.12 20.97" stroke="#999999" stroke-width="0.3" stroke-linecap="round" stroke-linejoin="round"/>
<path d="M36.99 25.79C37.1 23.62 41.21 22.98 42.2 23.69" stroke="#999999" stroke-width="0.3" stroke-linecap="round" stroke-linejoin="round"/>
<path d="M37.09 28.5C37.2 26.35 41.28 25.71 42.26 26.42" stroke="#999999" stroke-width="0.3" stroke-linecap="round" stroke-linejoin="round"/>
<path d="M37.2 31.21C37.31 29.07 41.36 28.44 42.33 29.14" stroke="#999999" stroke-width="0.3" stroke-linecap="round" stroke-linejoin="round"/>
<path d="M37.31 33.91C37.42 31.79 41.43 31.16 42.4 31.86" stroke="#999999" stroke-width="0.3" stroke-linecap="round" stroke-linejoin="round"/>
<path d="M37.42 36.62C37.53 34.51 41.52 33.89 42.47 34.58" stroke="#999999" stroke-width="0.3" stroke-linecap="round" stroke-linejoin="round"/>
<path d="M37.53 39.33C37.64 37.24 41.59 36.62 42.55 37.31" stroke="#999999" stroke-width="0.3" stroke-linecap="round" stroke-linejoin="round"/>
<path d="M37.64 42.04C37.75 39.97 41.67 39.35 42.62 40.03" stroke="#999999" stroke-width="0.3" stroke-linecap="round" stroke-linejoin="round"/>
<path d="M37.75 44.74C37.85 42.68 41.75 42.07 42.69 42.75" stroke="#999999" stroke-width="0.3" stroke-linecap="round" stroke-linejoin="round"/>
<path d="M38.37 47.09C38.46 45.34 41.65 44.77 42.64 45.26" stroke="#999999" stroke-width="0.3" stroke-linecap="round" stroke-linejoin="round"/>
<path d="M38.94 49.18C39.01 47.79 41.63 47.38 42.27 47.84" stroke="#999999" stroke-width="0.3" stroke-linecap="round" stroke-linejoin="round"/>
<path d="M39.55 51.5C39.6 50.61 41.05 50.25 41.77 50.38" stroke="#999999" stroke-width="0.3" stroke-linecap="round" stroke-linejoin="round"/>
</g>
<path d="M41.44 6.28L45.14 2.2L45.1 1.12C45.05 -0.17 32.36 -0.0200002 32.42 1.56L32.46 2.64L36.43 6.46L38.24 44.69L40.09 51.87C40.27 52.48 40.83 52.42 40.93 51.84L42.28 44.55L41.44 6.28Z" stroke="black" stroke-width="0.5" stroke-linecap="round" stroke-linejoin="round"/>
<path d="M56.74 10.9L61.24 7.73L61.44 6.67C61.68 5.4 49.26 2.77 48.97 4.32L48.77 5.38L51.81 9.98L45.2 47.68L45.43 55.1C45.47 55.73 46.03 55.8 46.26 55.25L49.17 48.43L56.74 10.91V10.9Z" fill="white"/>
<path d="M55.6 9.84L57.97 6.55" stroke="#B3B3B3" stroke-width="0.3" stroke-linecap="round" stroke-linejoin="round"/>
<path d="M52.67 9.27999L51.14 5.39999" stroke="#B3B3B3" stroke-width="0.3" stroke-linecap="round" stroke-linejoin="round"/>
<path d="M51.82 9.97C51.94 9.36 56.84 10.4 56.75 10.9" stroke="black" stroke-width="0.3" stroke-linecap="round" stroke-linejoin="round"/>
<path d="M48.78 5.37C49.07 3.82 61.49 6.46 61.25 7.72" stroke="black" stroke-width="0.3" stroke-linecap="round" stroke-linejoin="round"/>
<mask id="mask3_50_1378" style="mask-type:luminance" maskUnits="userSpaceOnUse" x="45" y="3" width="17" height="53">
<path d="M56.74 10.9L61.24 7.73L61.44 6.67C61.68 5.4 49.26 2.77 48.97 4.32L48.77 5.38L51.81 9.98L45.2 47.68L45.43 55.1C45.47 55.73 46.03 55.8 46.26 55.25L49.17 48.43L56.74 10.91V10.9Z" fill="white"/>
</mask>
<g mask="url(#mask3_50_1378)">
<path d="M51.04 12.97C51.65 10.79 55.98 11.07 56.82 12.02" stroke="#999999" stroke-width="0.3" stroke-linecap="round" stroke-linejoin="round"/>
<path d="M50.55 15.63C51.15 13.46 55.45 13.74 56.29 14.69" stroke="#999999" stroke-width="0.3" stroke-linecap="round" stroke-linejoin="round"/>
<path d="M50.07 18.3C50.67 16.15 54.94 16.43 55.77 17.37" stroke="#999999" stroke-width="0.3" stroke-linecap="round" stroke-linejoin="round"/>
<path d="M49.58 20.97C50.17 18.83 54.41 19.11 55.24 20.04" stroke="#999999" stroke-width="0.3" stroke-linecap="round" stroke-linejoin="round"/>
<path d="M49.09 23.63C49.68 21.51 53.89 21.78 54.71 22.71" stroke="#999999" stroke-width="0.3" stroke-linecap="round" stroke-linejoin="round"/>
<path d="M48.61 26.3C49.2 24.19 53.38 24.47 54.19 25.39" stroke="#999999" stroke-width="0.3" stroke-linecap="round" stroke-linejoin="round"/>
<path d="M48.12 28.96C48.7 26.87 52.85 27.14 53.66 28.05" stroke="#999999" stroke-width="0.3" stroke-linecap="round" stroke-linejoin="round"/>
<path d="M47.63 31.63C48.21 29.55 52.33 29.82 53.13 30.73" stroke="#999999" stroke-width="0.3" stroke-linecap="round" stroke-linejoin="round"/>
<path d="M47.15 34.29C47.72 32.23 51.81 32.5 52.61 33.4" stroke="#999999" stroke-width="0.3" stroke-linecap="round" stroke-linejoin="round"/>
<path d="M46.66 36.96C47.23 34.91 51.29 35.18 52.08 36.07" stroke="#999999" stroke-width="0.3" stroke-linecap="round" stroke-linejoin="round"/>
<path d="M46.17 39.62C46.74 37.59 50.76 37.85 51.55 38.74" stroke="#999999" stroke-width="0.3" stroke-linecap="round" stroke-linejoin="round"/>
<path d="M45.69 42.29C46.25 40.27 50.25 40.54 51.03 41.41" stroke="#999999" stroke-width="0.3" stroke-linecap="round" stroke-linejoin="round"/>
<path d="M45.2 44.96C45.76 42.96 49.72 43.22 50.5 44.09" stroke="#999999" stroke-width="0.3" stroke-linecap="round" stroke-linejoin="round"/>
<path d="M44.71 47.62C45.26 45.63 49.2 45.89 49.97 46.76" stroke="#999999" stroke-width="0.3" stroke-linecap="round" stroke-linejoin="round"/>
<path d="M44.8 50.04C45.27 48.35 48.51 48.49 49.37 49.19" stroke="#999999" stroke-width="0.3" stroke-linecap="round" stroke-linejoin="round"/>
<path d="M44.9 52.21C45.27 50.87 47.92 51.05 48.44 51.63" stroke="#999999" stroke-width="0.3" stroke-linecap="round" stroke-linejoin="round"/>
<path d="M44.99 54.61C45.23 53.75 46.73 53.72 47.4 54" stroke="#999999" stroke-width="0.3" stroke-linecap="round" stroke-linejoin="round"/>
</g>
<path d="M56.74 10.9L61.24 7.73L61.44 6.67C61.68 5.4 49.26 2.77 48.97 4.32L48.77 5.38L51.81 9.98L45.2 47.68L45.43 55.1C45.47 55.73 46.03 55.8 46.26 55.25L49.17 48.43L56.74 10.91V10.9Z" stroke="black" stroke-width="0.5" stroke-linecap="round" stroke-linejoin="round"/>
</g>
<defs>
<clipPath id="clip0_50_1378">
<rect width="61.7" height="55.86" fill="white"/>
</clipPath>
</defs>
</svg>
