<svg width="484" height="717" viewBox="0 0 484 717" fill="none" xmlns="http://www.w3.org/2000/svg">
<g clip-path="url(#clip0_273_2475)">
<rect width="483.89" height="716.756" fill="white"/>
<path d="M26.087 249.882V486.575" stroke="#1D1D1B" stroke-width="1.5" stroke-miterlimit="2"/>
<path d="M26.087 486.575H347.819" stroke="#1D1D1B" stroke-width="1.5" stroke-miterlimit="2"/>
<path d="M347.819 249.882H26.087" stroke="#1D1D1B" stroke-width="1.5" stroke-miterlimit="2"/>
<path d="M347.819 486.575V249.882" stroke="#1D1D1B" stroke-width="1.5" stroke-miterlimit="2"/>
<path d="M15.173 709.51H468.716" stroke="#9D9D9C" stroke-miterlimit="2"/>
<path d="M4.41101 18.433V698.748" stroke="#9D9D9C" stroke-miterlimit="2"/>
<path d="M479.479 698.748V18.433" stroke="#9D9D9C" stroke-miterlimit="2"/>
<path d="M468.716 7.671H15.173" stroke="#9D9D9C" stroke-miterlimit="2"/>
<path d="M468.717 709.51C471.571 709.51 474.309 708.376 476.327 706.358C478.345 704.34 479.479 701.602 479.479 698.748" stroke="#9D9D9C" stroke-miterlimit="2"/>
<path d="M4.41101 698.748C4.41101 701.602 5.54486 704.34 7.56313 706.358C9.58139 708.376 12.3188 709.51 15.173 709.51" stroke="#9D9D9C" stroke-miterlimit="2"/>
<path d="M15.173 7.671C12.3188 7.671 9.58139 8.80485 7.56313 10.8231C5.54486 12.8414 4.41101 15.5787 4.41101 18.433" stroke="#9D9D9C" stroke-miterlimit="2"/>
<path d="M479.479 18.433C479.479 15.5787 478.345 12.8414 476.327 10.8231C474.309 8.80485 471.571 7.671 468.717 7.671" stroke="#9D9D9C" stroke-miterlimit="2"/>
<path d="M15.173 703H468.716" stroke="#1D1D1B" stroke-width="1.5" stroke-miterlimit="2"/>
<path d="M10.921 18.433V698.748" stroke="#1D1D1B" stroke-width="1.5" stroke-miterlimit="2"/>
<path d="M472.969 698.748V18.433" stroke="#1D1D1B" stroke-width="1.5" stroke-miterlimit="2"/>
<path d="M468.716 14.181H15.173" stroke="#1D1D1B" stroke-width="1.5" stroke-miterlimit="2"/>
<path d="M10.921 18.433C10.921 17.8747 11.0311 17.3218 11.2449 16.806C11.4587 16.2902 11.772 15.8216 12.167 15.427C12.5616 15.032 13.0302 14.7186 13.546 14.5048C14.0618 14.291 14.6147 14.181 15.173 14.181" stroke="#1D1D1B" stroke-width="1.5" stroke-miterlimit="2"/>
<path d="M15.173 703C14.0456 703 12.9643 702.552 12.167 701.755C11.772 701.36 11.4587 700.891 11.2449 700.375C11.0311 699.86 10.9211 699.307 10.921 698.748" stroke="#1D1D1B" stroke-width="1.5" stroke-miterlimit="2"/>
<path d="M468.717 703C469.845 703 470.926 702.552 471.724 701.755C472.521 700.957 472.969 699.876 472.969 698.748" stroke="#1D1D1B" stroke-width="1.5" stroke-miterlimit="2"/>
<path d="M468.717 14.181C469.275 14.181 469.828 14.291 470.344 14.5048C470.86 14.7186 471.328 15.032 471.723 15.427C472.118 15.8216 472.431 16.2902 472.645 16.806C472.859 17.3218 472.969 17.8747 472.969 18.433" stroke="#1D1D1B" stroke-width="1.5" stroke-miterlimit="2"/>
<path d="M457.379 379.851C457.379 379.29 457.213 378.742 456.902 378.276C456.59 377.809 456.148 377.446 455.63 377.231C455.112 377.016 454.542 376.96 453.992 377.069C453.442 377.179 452.936 377.449 452.54 377.845C452.143 378.241 451.873 378.747 451.764 379.297C451.654 379.847 451.71 380.417 451.925 380.935C452.139 381.453 452.503 381.896 452.969 382.207C453.435 382.519 453.983 382.685 454.544 382.685C455.296 382.685 456.017 382.386 456.548 381.855C457.08 381.324 457.379 380.603 457.379 379.851Z" stroke="#1D1D1B" stroke-width="1.5" stroke-miterlimit="2"/>
<path d="M456.879 379.851C456.879 379.388 456.742 378.936 456.485 378.551C456.228 378.166 455.863 377.867 455.436 377.689C455.008 377.512 454.538 377.466 454.084 377.556C453.63 377.646 453.214 377.869 452.886 378.196C452.559 378.523 452.336 378.94 452.246 379.393C452.156 379.847 452.202 380.317 452.379 380.745C452.556 381.172 452.856 381.538 453.24 381.795C453.625 382.052 454.077 382.189 454.54 382.189C455.16 382.189 455.755 381.943 456.193 381.504C456.632 381.066 456.879 380.471 456.879 379.851Z" stroke="#1D1D1B" stroke-width="1.5" stroke-miterlimit="2"/>
<path d="M461.63 715.756H413.441" stroke="#1D1D1B" stroke-width="2" stroke-miterlimit="2"/>
<path d="M412.024 712.921V714.338" stroke="#1D1D1B" stroke-width="2" stroke-miterlimit="2"/>
<path d="M463.047 712.921V714.338" stroke="#1D1D1B" stroke-width="2" stroke-miterlimit="2"/>
<path d="M461.63 715.756C462.006 715.756 462.366 715.607 462.632 715.341C462.898 715.075 463.047 714.715 463.047 714.339" stroke="#1D1D1B" stroke-width="2" stroke-miterlimit="2"/>
<path d="M412.024 714.339C412.024 714.715 412.173 715.075 412.439 715.341C412.705 715.607 413.065 715.756 413.441 715.756" stroke="#1D1D1B" stroke-width="2" stroke-miterlimit="2"/>
<path d="M94.543 715.756H46.354" stroke="#1D1D1B" stroke-width="2" stroke-miterlimit="2"/>
<path d="M44.937 712.921V714.338" stroke="#1D1D1B" stroke-width="2" stroke-miterlimit="2"/>
<path d="M95.961 712.921V714.338" stroke="#1D1D1B" stroke-width="2" stroke-miterlimit="2"/>
<path d="M94.543 715.756C94.9189 715.756 95.2795 715.607 95.5454 715.341C95.8113 715.075 95.9608 714.715 95.961 714.339" stroke="#1D1D1B" stroke-width="2" stroke-miterlimit="2"/>
<path d="M44.937 714.339C44.9373 714.715 45.0867 715.075 45.3523 715.341C45.618 715.606 45.9783 715.756 46.354 715.756" stroke="#1D1D1B" stroke-width="2" stroke-miterlimit="2"/>
<path d="M412.024 3.834V2.417" stroke="#1D1D1B" stroke-width="2" stroke-miterlimit="2"/>
<path d="M463.047 3.834V2.417" stroke="#1D1D1B" stroke-width="2" stroke-miterlimit="2"/>
<path d="M413.441 1H461.63" stroke="#1D1D1B" stroke-width="2" stroke-miterlimit="2"/>
<path d="M463.047 2.417C463.047 2.04119 462.898 1.68077 462.632 1.41503C462.366 1.14929 462.006 1 461.63 1" stroke="#1D1D1B" stroke-width="2" stroke-miterlimit="2"/>
<path d="M413.441 1C413.065 1 412.705 1.14929 412.439 1.41503C412.173 1.68077 412.024 2.04119 412.024 2.417" stroke="#1D1D1B" stroke-width="2" stroke-miterlimit="2"/>
<path d="M417.693 4.26V3.835" stroke="#1D1D1B" stroke-width="0.283" stroke-miterlimit="2"/>
<path d="M457.378 4.26V3.835" stroke="#1D1D1B" stroke-width="0.283" stroke-miterlimit="2"/>
<path d="M15.173 712.921H468.716" stroke="#1D1D1B" stroke-width="2" stroke-miterlimit="2"/>
<path d="M1 698.748V18.433" stroke="#1D1D1B" stroke-width="2" stroke-miterlimit="2"/>
<path d="M482.89 698.748V18.433" stroke="#1D1D1B" stroke-width="2" stroke-miterlimit="2"/>
<path d="M15.173 4.26H468.716" stroke="#1D1D1B" stroke-width="2" stroke-miterlimit="2"/>
<path d="M1 698.748C1 702.507 2.49322 706.112 5.15118 708.77C7.80913 711.428 11.4141 712.921 15.173 712.921" stroke="#1D1D1B" stroke-width="2" stroke-miterlimit="2"/>
<path d="M15.173 4.26C11.4141 4.26 7.80913 5.75322 5.15118 8.41118C2.49322 11.0691 1 14.6741 1 18.433" stroke="#1D1D1B" stroke-width="2" stroke-miterlimit="2"/>
<path d="M482.89 18.433C482.89 14.6741 481.397 11.0691 478.739 8.41118C476.081 5.75322 472.476 4.26 468.717 4.26" stroke="#1D1D1B" stroke-width="2" stroke-miterlimit="2"/>
<path d="M468.717 712.921C472.476 712.921 476.081 711.428 478.739 708.77C481.397 706.112 482.89 702.507 482.89 698.748" stroke="#1D1D1B" stroke-width="2" stroke-miterlimit="2"/>
<path d="M463.048 3.835H412.024" stroke="#1D1D1B" stroke-width="0.283" stroke-miterlimit="2"/>
<path d="M44.937 3.834V2.417" stroke="#1D1D1B" stroke-width="2" stroke-miterlimit="2"/>
<path d="M95.961 3.834V2.417" stroke="#1D1D1B" stroke-width="2" stroke-miterlimit="2"/>
<path d="M46.354 1H94.543" stroke="#1D1D1B" stroke-width="2" stroke-miterlimit="2"/>
<path d="M95.961 2.417C95.9608 2.0411 95.8113 1.68068 95.5454 1.41497C95.2795 1.14926 94.9189 1 94.543 1" stroke="#1D1D1B" stroke-width="2" stroke-miterlimit="2"/>
<path d="M46.354 1C45.9783 1.00026 45.618 1.14964 45.3523 1.41532C45.0867 1.681 44.9373 2.04127 44.937 2.417" stroke="#1D1D1B" stroke-width="2" stroke-miterlimit="2"/>
<path d="M50.606 4.26V3.835" stroke="#1D1D1B" stroke-width="0.283" stroke-miterlimit="2"/>
<path d="M90.291 4.26V3.835" stroke="#1D1D1B" stroke-width="0.283" stroke-miterlimit="2"/>
<path d="M95.961 3.835H44.937" stroke="#1D1D1B" stroke-width="0.283" stroke-miterlimit="2"/>
<path d="M61.236 448.591C61.236 447.75 60.9866 446.928 60.5194 446.229C60.0522 445.53 59.3881 444.984 58.6112 444.663C57.8342 444.341 56.9793 444.257 56.1545 444.421C55.3297 444.585 54.572 444.99 53.9774 445.584C53.3827 446.179 52.9778 446.937 52.8137 447.761C52.6496 448.586 52.7338 449.441 53.0557 450.218C53.3775 450.995 53.9225 451.659 54.6217 452.126C55.3209 452.594 56.143 452.843 56.984 452.843C57.5424 452.843 58.0954 452.733 58.6113 452.52C59.1273 452.306 59.596 451.993 59.9909 451.598C60.3858 451.203 60.699 450.734 60.9126 450.218C61.1262 449.702 61.2361 449.149 61.236 448.591Z" stroke="#1D1D1B" stroke-width="1.5" stroke-miterlimit="2"/>
<path d="M88.874 448.591C88.874 447.75 88.6246 446.928 88.1574 446.229C87.6902 445.53 87.0261 444.984 86.2492 444.663C85.4722 444.341 84.6173 444.257 83.7925 444.421C82.9677 444.585 82.21 444.99 81.6154 445.584C81.0207 446.179 80.6158 446.937 80.4517 447.761C80.2876 448.586 80.3718 449.441 80.6937 450.218C81.0155 450.995 81.5605 451.659 82.2597 452.126C82.959 452.594 83.781 452.843 84.622 452.843C85.7497 452.843 86.8312 452.395 87.6286 451.598C88.426 450.8 88.874 449.719 88.874 448.591Z" stroke="#1D1D1B" stroke-width="1.5" stroke-miterlimit="2"/>
<path d="M50.174 470.366V461.813" stroke="#1D1D1B" stroke-width="0.5" stroke-miterlimit="2" stroke-linecap="round"/>
<path d="M51.074 462.713V469.467" stroke="#1D1D1B" stroke-width="0.5" stroke-miterlimit="2" stroke-linecap="round"/>
<path d="M52.088 466.476V465.576" stroke="#1D1D1B" stroke-width="0.5" stroke-miterlimit="2" stroke-linecap="round"/>
<path d="M52.451 461.813V461.076" stroke="#1D1D1B" stroke-width="0.5" stroke-miterlimit="2" stroke-linecap="round"/>
<path d="M53.232 467.621V466.476" stroke="#1D1D1B" stroke-width="0.5" stroke-miterlimit="2" stroke-linecap="round"/>
<path d="M53.232 465.577V464.432" stroke="#1D1D1B" stroke-width="0.5" stroke-miterlimit="2" stroke-linecap="round"/>
<path d="M54.132 464.432V465.577" stroke="#1D1D1B" stroke-width="0.5" stroke-miterlimit="2" stroke-linecap="round"/>
<path d="M54.132 466.476V467.621" stroke="#1D1D1B" stroke-width="0.5" stroke-miterlimit="2" stroke-linecap="round"/>
<path d="M54.991 461.076V461.813" stroke="#1D1D1B" stroke-width="0.5" stroke-miterlimit="2" stroke-linecap="round"/>
<path d="M55.276 465.576V466.476" stroke="#1D1D1B" stroke-width="0.5" stroke-miterlimit="2" stroke-linecap="round"/>
<path d="M81.706 461.944L84.58 470.367" stroke="#1D1D1B" stroke-width="0.5" stroke-miterlimit="2"/>
<path d="M82.294 466.867L81.022 463.129" stroke="#1D1D1B" stroke-width="0.5" stroke-miterlimit="2" stroke-linecap="round"/>
<path d="M83.419 470.366L82.519 467.717" stroke="#1D1D1B" stroke-width="0.5" stroke-miterlimit="2"/>
<path d="M58.65 466.476V465.576" stroke="#1D1D1B" stroke-width="0.5" stroke-miterlimit="2" stroke-linecap="round"/>
<path d="M58.875 461.813V461.076" stroke="#1D1D1B" stroke-width="0.5" stroke-miterlimit="2" stroke-linecap="round"/>
<path d="M61.553 461.076V461.813" stroke="#1D1D1B" stroke-width="0.5" stroke-miterlimit="2" stroke-linecap="round"/>
<path d="M61.839 465.576V466.476" stroke="#1D1D1B" stroke-width="0.5" stroke-miterlimit="2" stroke-linecap="round"/>
<path d="M62.93 469.467V462.713" stroke="#1D1D1B" stroke-width="0.5" stroke-miterlimit="2" stroke-linecap="round"/>
<path d="M63.83 461.813V470.366" stroke="#1D1D1B" stroke-width="0.5" stroke-miterlimit="2" stroke-linecap="round"/>
<path d="M84.581 470.367H83.419" stroke="#1D1D1B" stroke-width="0.5" stroke-miterlimit="2" stroke-linecap="round"/>
<path d="M78.658 470.367H77.533" stroke="#1D1D1B" stroke-width="0.5" stroke-miterlimit="2" stroke-linecap="round"/>
<path d="M63.83 470.367H50.174" stroke="#1D1D1B" stroke-width="0.5" stroke-miterlimit="2" stroke-linecap="round"/>
<path d="M51.074 469.467H62.93" stroke="#1D1D1B" stroke-width="0.5" stroke-miterlimit="2" stroke-linecap="round"/>
<path d="M82.519 467.717H79.532" stroke="#1D1D1B" stroke-width="0.5" stroke-miterlimit="2" stroke-linecap="round"/>
<path d="M54.132 467.621H53.232" stroke="#1D1D1B" stroke-width="0.5" stroke-miterlimit="2" stroke-linecap="round"/>
<path d="M79.757 466.868H82.294" stroke="#1D1D1B" stroke-width="0.5" stroke-miterlimit="2"/>
<path d="M61.839 466.476H58.65" stroke="#1D1D1B" stroke-width="0.5" stroke-miterlimit="2" stroke-linecap="round"/>
<path d="M55.277 466.476H54.132" stroke="#1D1D1B" stroke-width="0.5" stroke-miterlimit="2" stroke-linecap="round"/>
<path d="M53.232 466.476H52.088" stroke="#1D1D1B" stroke-width="0.5" stroke-miterlimit="2" stroke-linecap="round"/>
<path d="M52.088 465.576H53.232" stroke="#1D1D1B" stroke-width="0.5" stroke-miterlimit="2" stroke-linecap="round"/>
<path d="M54.132 465.576H55.277" stroke="#1D1D1B" stroke-width="0.5" stroke-miterlimit="2" stroke-linecap="round"/>
<path d="M58.65 465.576H61.839" stroke="#1D1D1B" stroke-width="0.5" stroke-miterlimit="2" stroke-linecap="round"/>
<path d="M53.232 464.432H54.132" stroke="#1D1D1B" stroke-width="0.5" stroke-miterlimit="2" stroke-linecap="round"/>
<path d="M62.93 462.713H51.074" stroke="#1D1D1B" stroke-width="0.5" stroke-miterlimit="2" stroke-linecap="round"/>
<path d="M80.394 461.944H81.706" stroke="#1D1D1B" stroke-width="0.5" stroke-miterlimit="2" stroke-linecap="round"/>
<path d="M50.174 461.813H52.451" stroke="#1D1D1B" stroke-width="0.5" stroke-miterlimit="2" stroke-linecap="round"/>
<path d="M54.991 461.813H58.874" stroke="#1D1D1B" stroke-width="0.5" stroke-miterlimit="2" stroke-linecap="round"/>
<path d="M61.553 461.813H63.83" stroke="#1D1D1B" stroke-width="0.5" stroke-miterlimit="2" stroke-linecap="round"/>
<path d="M52.451 461.076H54.992" stroke="#1D1D1B" stroke-width="0.5" stroke-miterlimit="2" stroke-linecap="round"/>
<path d="M58.875 461.076H61.554" stroke="#1D1D1B" stroke-width="0.5" stroke-miterlimit="2" stroke-linecap="round"/>
<path d="M91.293 469.23L91.518 470.092" stroke="#1D1D1B" stroke-width="0.5" stroke-miterlimit="2" stroke-linecap="round"/>
<path d="M91.53 462.181L91.268 463.068" stroke="#1D1D1B" stroke-width="0.5" stroke-miterlimit="2" stroke-linecap="round"/>
<path d="M79.532 467.717L78.657 470.366" stroke="#1D1D1B" stroke-width="0.5" stroke-miterlimit="2"/>
<path d="M81.022 463.129L79.757 466.867" stroke="#1D1D1B" stroke-width="0.5" stroke-miterlimit="2" stroke-linecap="round"/>
<path d="M77.533 470.367L80.395 461.944" stroke="#1D1D1B" stroke-width="0.5" stroke-miterlimit="2"/>
<path d="M89.294 470.492H89.457L89.632 470.486L89.805 470.476L89.976 470.462L90.145 470.444L90.312 470.422L90.477 470.396L90.64 470.367L90.779 470.339L90.909 470.309L91.028 470.278L91.139 470.245L91.239 470.21L91.339 470.173L91.431 470.134L91.518 470.093" stroke="#1D1D1B" stroke-width="0.5" stroke-miterlimit="2"/>
<path d="M91.293 469.23L91.179 469.282L91.057 469.33L90.927 469.375L90.787 469.416L90.636 469.454L90.49 469.485L90.309 469.517L90.127 469.543L90.013 469.556L89.875 469.568L89.695 469.578H89.517H89.443L89.272 469.572L89.106 469.56L88.945 469.542L88.789 469.518L88.7 469.501L88.553 469.468L88.412 469.43L88.276 469.387L88.146 469.339H88.138L88.01 469.284L87.885 469.223L87.763 469.157L87.645 469.085L87.531 469.008L87.422 468.927L87.322 468.842L87.222 468.753L87.13 468.66L87.043 468.56L86.96 468.46L86.881 468.352L86.806 468.238L86.765 468.171L86.697 468.049L86.633 467.922L86.574 467.79L86.52 467.653L86.498 467.592L86.452 467.449L86.411 467.3L86.375 467.146L86.345 466.987L86.336 466.931L86.313 466.764L86.296 466.592V466.571L86.286 466.394V466.211V466.156V465.971L86.297 465.79V465.751L86.315 465.578L86.339 465.41L86.354 465.325L86.386 465.165L86.424 465.011L86.467 464.862L86.515 464.718L86.544 464.639L86.6 464.502L86.661 464.37L86.727 464.243L86.798 464.122L86.845 464.047L86.923 463.934L87.005 463.826L87.091 463.726L87.181 463.626L87.276 463.534L87.376 463.445L87.482 463.36L87.593 463.279L87.709 463.203L87.83 463.132L87.954 463.066L88.082 463.006L88.102 462.997" stroke="#1D1D1B" stroke-width="0.5" stroke-miterlimit="2"/>
<path d="M91.531 462.181L91.444 462.138L91.353 462.098L91.253 462.06L91.153 462.025L91.053 461.992L90.942 461.962L90.825 461.934L90.701 461.909L90.569 461.886L90.427 461.865L90.273 461.847H90.245H90.203L90.032 461.832L89.863 461.822L89.696 461.816H89.53" stroke="#1D1D1B" stroke-width="0.5" stroke-miterlimit="2"/>
<path d="M89.531 461.806H89.441L89.235 461.813L89.035 461.828L88.835 461.85L88.641 461.879L88.451 461.915L88.266 461.958L88.086 462.007L87.911 462.063L87.742 462.125L87.671 462.154L87.506 462.227L87.344 462.306L87.186 462.392L87.033 462.484L86.885 462.584L86.743 462.684L86.606 462.793L86.476 462.907L86.352 463.025L86.234 463.149L86.121 463.279L86.013 463.415L85.913 463.556L85.839 463.667L85.747 463.817L85.66 463.973L85.579 464.134L85.505 464.299L85.456 464.421L85.393 464.593L85.337 464.771L85.287 464.953L85.244 465.14L85.217 465.277L85.186 465.471L85.162 465.671L85.155 465.742L85.141 465.942L85.135 466.151V466.302L85.141 466.516L85.155 466.727L85.162 466.804L85.186 467.004L85.216 467.204L85.244 467.352L85.286 467.538L85.335 467.718L85.39 467.892L85.451 468.06L85.502 468.185L85.574 468.345L85.652 468.5L85.736 468.649L85.825 468.792L85.896 468.892L85.996 469.026L86.096 469.154L86.206 469.276L86.321 469.392L86.441 469.503L86.568 469.609L86.701 469.709L86.84 469.809L86.985 469.9L87.136 469.985L87.291 470.064L87.451 470.137L87.615 470.203L87.641 470.213L87.808 470.271L87.981 470.322L88.159 470.367L88.342 470.405L88.53 470.436L88.723 470.46L88.923 470.477L89.123 470.487H89.292" stroke="#1D1D1B" stroke-width="0.5" stroke-miterlimit="2"/>
<path d="M67.624 361.502V366.202" stroke="#9D9D9C" stroke-width="1.468" stroke-miterlimit="2" stroke-linecap="round"/>
<path d="M93.398 344.886V340.315" stroke="#9D9D9C" stroke-width="1.5" stroke-miterlimit="2" stroke-linecap="round"/>
<path d="M99.9041 338.666V358.3" stroke="#9D9D9C" stroke-width="1.5" stroke-miterlimit="2"/>
<path d="M120.958 338.666L120.963 358.192" stroke="#9D9D9C" stroke-width="1.5" stroke-miterlimit="2"/>
<path d="M106.418 358.205V338.666" stroke="#9D9D9C" stroke-width="1.5" stroke-miterlimit="2"/>
<path d="M127.514 358.3V338.666" stroke="#9D9D9C" stroke-width="1.5" stroke-miterlimit="2"/>
<path d="M134.018 353.871V369.693" stroke="#9D9D9C" stroke-width="1.5" stroke-miterlimit="2"/>
<path d="M140.975 369.694V353.896" stroke="#9D9D9C" stroke-width="1.5" stroke-miterlimit="2"/>
<path d="M143.492 354.049V360.062" stroke="#9D9D9C" stroke-width="1.5" stroke-miterlimit="2"/>
<path d="M93.398 340.393L93.355 340.315" stroke="#9D9D9C" stroke-width="1.5" stroke-miterlimit="2"/>
<path d="M169.978 349.263V369.694" stroke="#9D9D9C" stroke-width="1.5" stroke-miterlimit="2"/>
<path d="M176.799 369.694V349.71" stroke="#9D9D9C" stroke-width="1.5" stroke-miterlimit="2"/>
<path d="M188.37 344.388V337.642" stroke="#9D9D9C" stroke-width="1.466" stroke-miterlimit="2"/>
<path d="M200.111 350.869V356.184" stroke="#9D9D9C" stroke-width="1.5" stroke-miterlimit="2"/>
<path d="M220.1 362.279L219.63 362.405" stroke="#9D9D9C" stroke-width="1.5" stroke-miterlimit="2"/>
<path d="M275.066 345.169L275.518 345.068" stroke="#9D9D9C" stroke-width="1.5" stroke-miterlimit="2"/>
<path d="M79.046 370.129H80.375" stroke="#9D9D9C" stroke-width="1.5" stroke-miterlimit="2"/>
<path d="M206.258 370.129H207.104" stroke="#9D9D9C" stroke-width="1.5" stroke-miterlimit="2"/>
<path d="M109.586 370.034H118.17" stroke="#9D9D9C" stroke-width="1.5" stroke-miterlimit="2"/>
<path d="M133.271 369.694H141.726" stroke="#9D9D9C" stroke-width="1.5" stroke-miterlimit="2"/>
<path d="M169.235 369.694H177.531" stroke="#9D9D9C" stroke-width="1.5" stroke-miterlimit="2"/>
<path d="M226.526 369.694H234.207" stroke="#9D9D9C" stroke-width="1.5" stroke-miterlimit="2"/>
<path d="M243.79 369.694H251.665" stroke="#9D9D9C" stroke-width="1.5" stroke-miterlimit="2"/>
<path d="M261.239 369.694H268.957" stroke="#9D9D9C" stroke-width="1.5" stroke-miterlimit="2"/>
<path d="M80.262 364.401H78.811" stroke="#9D9D9C" stroke-width="1.5" stroke-miterlimit="2"/>
<path d="M208.188 364.118H206.857" stroke="#9D9D9C" stroke-width="1.5" stroke-miterlimit="2"/>
<path d="M116.338 363.576H111.125" stroke="#9D9D9C" stroke-width="1.5" stroke-miterlimit="2"/>
<path d="M283.735 355.785H295.249" stroke="#9D9D9C" stroke-width="1.5" stroke-miterlimit="2"/>
<path d="M154.455 354.784H143.492" stroke="#9D9D9C" stroke-width="1.5" stroke-miterlimit="2"/>
<path d="M211.082 351.616H200.111" stroke="#9D9D9C" stroke-width="1.5" stroke-miterlimit="2"/>
<path d="M285.523 364.052L284.81 364.012" stroke="#9D9D9C" stroke-width="1.5" stroke-miterlimit="2"/>
<path d="M84.678 350.27L77.564 349.378" stroke="#9D9D9C" stroke-width="1.5" stroke-miterlimit="2"/>
<path d="M78.142 355.995L81.306 356.44" stroke="#9D9D9C" stroke-width="1.5" stroke-miterlimit="2"/>
<path d="M143.492 359.366L143.804 359.416" stroke="#9D9D9C" stroke-width="1.5" stroke-miterlimit="2"/>
<path d="M92.925 344.754L93.398 344.885" stroke="#9D9D9C" stroke-width="1.5" stroke-miterlimit="2"/>
<path d="M220.1 366.196V362.279" stroke="#9D9D9C" stroke-width="1.5" stroke-linecap="round" stroke-linejoin="round"/>
<path d="M227.262 349.503V369.694" stroke="#9D9D9C" stroke-width="1.5" stroke-miterlimit="2"/>
<path d="M233.464 369.694V349.503" stroke="#9D9D9C" stroke-width="1.5" stroke-miterlimit="2"/>
<path d="M244.547 349.503V369.694" stroke="#9D9D9C" stroke-width="1.5" stroke-miterlimit="2"/>
<path d="M250.93 369.694V349.503" stroke="#9D9D9C" stroke-width="1.5" stroke-miterlimit="2"/>
<path d="M182.117 343.632H188.371" stroke="#9D9D9C" stroke-width="1.5" stroke-miterlimit="2"/>
<path d="M80.975 343.205H82.429" stroke="#9D9D9C" stroke-width="1.5" stroke-miterlimit="2"/>
<path d="M149.162 343.205H150.724" stroke="#9D9D9C" stroke-width="1.5" stroke-miterlimit="2"/>
<path d="M205.784 343.205H207.343" stroke="#9D9D9C" stroke-width="1.5" stroke-miterlimit="2"/>
<path d="M128.272 338.666H120.216" stroke="#9D9D9C" stroke-width="1.5" stroke-miterlimit="2"/>
<path d="M107.158 338.666H99.142" stroke="#9D9D9C" stroke-width="1.5" stroke-miterlimit="2"/>
<path d="M258.41 337.849H254.611" stroke="#9D9D9C" stroke-width="1.5" stroke-miterlimit="2"/>
<path d="M240.916 337.849H237.39" stroke="#9D9D9C" stroke-width="1.5" stroke-miterlimit="2"/>
<path d="M207.952 337.324H206.984" stroke="#9D9D9C" stroke-width="1.5" stroke-miterlimit="2"/>
<path d="M151.32 337.324H150.362" stroke="#9D9D9C" stroke-width="1.5" stroke-miterlimit="2"/>
<path d="M82.19 337.324H80.743" stroke="#9D9D9C" stroke-width="1.5" stroke-miterlimit="2"/>
<path d="M295.249 351.973L295.003 351.886" stroke="#9D9D9C" stroke-width="1.5" stroke-miterlimit="2"/>
<path d="M261.994 349.503V369.694" stroke="#9D9D9C" stroke-width="1.5" stroke-miterlimit="2"/>
<path d="M268.218 369.694V349.503" stroke="#9D9D9C" stroke-width="1.5" stroke-miterlimit="2"/>
<path d="M275.066 341.371V345.169" stroke="#9D9D9C" stroke-width="1.5" stroke-miterlimit="2" stroke-linecap="round"/>
<path d="M295.249 355.785V351.973" stroke="#9D9D9C" stroke-width="1.5" stroke-miterlimit="2" stroke-linecap="round"/>
<path d="M304.551 353.646V353.176L304.528 352.168L304.483 351.236L304.417 350.365L304.33 349.544L304.223 348.767L304.095 348.028L303.948 347.328L303.781 346.655L303.595 346.01L303.389 345.391L303.266 345.056L303.038 344.493L302.795 343.962L302.538 343.462L302.268 342.991L301.984 342.548L301.823 342.317L301.507 341.899L301.172 341.499L300.819 341.121L300.451 340.765L300.069 340.432L299.669 340.12L299.245 339.82L298.796 339.538L298.323 339.272L297.823 339.023L297.667 338.95L297.141 338.725L296.586 338.516L295.999 338.324L295.377 338.148L294.816 338.011L294.116 337.865L293.376 337.737L293.228 337.714L292.428 337.607L291.573 337.519H291.541L290.615 337.451L289.753 337.409L288.823 337.383L287.87 337.375L286.898 337.384L285.974 337.411L285.256 337.445L284.266 337.513L283.627 337.571L282.739 337.671L282.181 337.749L281.381 337.881L281.159 337.923L280.441 338.073L279.772 338.238L279.144 338.418L279.019 338.457L278.464 338.646L277.953 338.846L277.478 339.058L277.42 339.086L277.006 339.3L276.638 339.517L276.311 339.738L276.09 339.907L275.821 340.14L275.569 340.393L275.423 340.559L275.284 340.745L275.184 340.915L275.116 341.074L275.077 341.226L275.064 341.373" stroke="#9D9D9C" stroke-width="1.5" stroke-miterlimit="2"/>
<path d="M288.245 370.165L288.859 370.203L289.53 370.228L290.181 370.234L290.814 370.222L291.43 370.193L292.03 370.147L292.15 370.135L292.727 370.069L293.287 369.987L293.829 369.887L294.355 369.774L294.865 369.646L295.359 369.503L295.559 369.44L296.037 369.275L296.502 369.096L296.953 368.902L297.39 368.695L297.812 368.475L298.219 368.242L298.319 368.179L298.712 367.927L299.093 367.661L299.462 367.381L299.819 367.086L300.166 366.775L300.502 366.449L300.585 366.365L300.906 366.022L301.215 365.664L301.405 365.429L301.693 365.048L301.969 364.648L302.106 364.44L302.363 364.023L302.609 363.589L302.843 363.139L303.064 362.674L303.192 362.382L303.392 361.893L303.578 361.388L303.75 360.866L303.908 360.328L303.915 360.304L304.058 359.748L304.186 359.179L304.297 358.597L304.344 358.32L304.431 357.72L304.501 357.108L304.554 356.487L304.589 355.857L304.606 355.218V355.1V354.565L304.587 354.084L304.554 353.645" stroke="#9D9D9C" stroke-width="1.5" stroke-miterlimit="2"/>
<path d="M273.753 358.833V358.995L273.765 359.456L273.791 359.905L273.83 360.342L273.882 360.767L273.947 361.18L273.987 361.395L274.072 361.795L274.172 362.182L274.281 362.558L274.402 362.924L274.535 363.279L274.622 363.491L274.776 363.835L274.942 364.171L275.12 364.498L275.309 364.815L275.509 365.121L275.721 365.421L275.946 365.712L276.14 365.946L276.388 366.223L276.648 366.492L276.867 366.703L277.148 366.955L277.448 367.2L277.689 367.387L278.01 367.619L278.344 367.843L278.556 367.977L278.911 368.187L279.281 368.387L279.665 368.579L280.065 368.762L280.385 368.898L280.81 369.065L281.249 369.222L281.703 369.369L282.173 369.505L282.246 369.525L282.734 369.649L283.234 369.761L283.746 369.861L284.03 369.91L284.561 369.991L285.103 370.058L285.655 370.112L286.218 370.152L286.792 370.179H286.941H286.987L287.458 370.185L287.873 370.178L288.251 370.159" stroke="#9D9D9C" stroke-width="1.5" stroke-miterlimit="2"/>
<path d="M286.567 350.524H286.479L285.82 350.531L285.202 350.549L284.617 350.577L284.06 350.615L283.527 350.663L283.015 350.72L282.521 350.787L282.044 350.863L281.582 350.949L281.134 351.049L280.699 351.149L280.275 351.263L279.862 351.386L279.483 351.511L279.107 351.647L278.749 351.789L278.407 351.936L278.081 352.089L277.77 352.248L277.47 352.413L277.188 352.583L276.92 352.759L276.665 352.94L276.423 353.127L276.193 353.319L275.975 353.519L275.765 353.726L275.565 353.942L275.523 353.989L275.331 354.215L275.149 354.449L274.977 354.69L274.816 354.937L274.666 355.189L274.528 355.445L274.401 355.704L274.286 355.966L274.186 356.23L274.095 356.498L274.014 356.774L273.943 357.058L273.883 357.35L273.834 357.65L273.796 357.957L273.769 358.27L273.754 358.589V358.837" stroke="#9D9D9C" stroke-width="1.5" stroke-miterlimit="2"/>
<path d="M295.003 351.886L294.812 351.821L294.612 351.759L294.392 351.698L294.151 351.638L293.879 351.577L293.557 351.511L293.257 351.453L292.68 351.345L291.964 351.216L291.317 351.105L290.717 351.005L290.117 350.915L289.439 350.815L288.623 350.706L288.215 350.653L287.848 350.607L287.527 350.57L287.254 350.544L287.009 350.526L286.784 350.516H286.573" stroke="#9D9D9C" stroke-width="1.5" stroke-miterlimit="2"/>
<path d="M280.89 359.132V358.993L280.895 358.831L280.904 358.675L280.917 358.524L280.933 358.378L280.953 358.236L280.976 358.098L281.003 357.964L281.013 357.919L281.043 357.793L281.076 357.673L281.111 357.558L281.149 357.448L281.189 357.348L281.232 357.248L281.277 357.148L281.325 357.056L281.375 356.968L281.428 356.884L281.484 356.802L281.544 356.722L281.607 356.645L281.674 356.57L281.744 356.498L281.816 356.43L281.891 356.365L281.968 356.303L282.047 356.245L282.127 356.191L282.209 356.141L282.292 356.095L282.377 356.053L282.465 356.014L282.557 355.977L282.657 355.943L282.757 355.912L282.857 355.885L282.964 355.861L283.075 355.84L283.19 355.822L283.31 355.808L283.434 355.797L283.562 355.79H283.694H283.731" stroke="#9D9D9C" stroke-width="1.5" stroke-miterlimit="2"/>
<path d="M284.81 364.012L284.72 364.006L284.527 363.99L284.343 363.97L284.167 363.947L283.999 363.92L283.838 363.889L283.683 363.855L283.535 363.817L283.393 363.776L283.257 363.731L283.126 363.683L283 363.632L282.879 363.578L282.763 363.521L282.652 363.461L282.545 363.397L282.445 363.329L282.345 363.256L282.245 363.179L282.145 363.097L282.045 363.011L281.953 362.921L281.864 362.827L281.809 362.766L281.727 362.666L281.649 362.566L281.575 362.466L281.506 362.36L281.441 362.252L281.381 362.142L281.326 362.03L281.274 361.914L281.225 361.793L281.179 361.665L281.137 361.533L281.098 361.395L281.062 361.25L281.029 361.098L281 360.939L280.974 360.771L280.952 360.599L280.933 360.409L280.917 360.209L280.905 359.993L280.897 359.755V359.484V359.151V359.136" stroke="#9D9D9C" stroke-width="1.5" stroke-miterlimit="2"/>
<path d="M295.733 362.435L295.616 362.56L295.492 362.68L295.36 362.796L295.221 362.908L295.074 363.015L294.919 363.115L294.755 363.215L294.583 363.31L294.401 363.4L294.209 363.486L294.009 363.568L293.796 363.646L293.571 363.719L293.334 363.788L293.083 363.852L292.818 363.911L292.537 363.966L292.237 364.016L291.917 364.061L291.574 364.101L291.384 364.12L290.992 364.154L290.592 364.18L290.179 364.199L289.752 364.211H289.306H288.834L288.328 364.199L287.771 364.178L287.131 364.146L286.319 364.099L285.527 364.051" stroke="#9D9D9C" stroke-width="1.5" stroke-miterlimit="2"/>
<path d="M297.585 353.82V354.056L297.579 354.596L297.567 355.113L297.549 355.613L297.524 356.092L297.494 356.555L297.458 357.003L297.416 357.439L297.368 357.863L297.337 358.108L297.288 358.458L297.236 358.781L297.181 359.081L297.123 359.366L297.061 359.637L296.995 359.896L296.925 360.145L296.85 360.385L296.775 360.604L296.695 360.819L296.612 361.019L296.526 361.212L296.437 361.395L296.345 361.569L296.25 361.734L296.15 361.89L296.05 362.038L295.95 362.178L295.844 362.311L295.735 362.436" stroke="#9D9D9C" stroke-width="1.5" stroke-miterlimit="2"/>
<path d="M295.079 344.873L295.249 345.036L295.408 345.197L295.552 345.353L295.683 345.504L295.802 345.652L295.915 345.804L296.025 345.964L296.131 346.132L296.231 346.309L296.331 346.495L296.431 346.695L296.525 346.901L296.616 347.118L296.704 347.347L296.789 347.589L296.872 347.846L296.953 348.12L296.998 348.285L297.077 348.593L297.15 348.909L297.217 349.233L297.279 349.566L297.335 349.908L297.385 350.261L297.43 350.626L297.469 351.005L297.502 351.4L297.53 351.813L297.552 352.248L297.568 352.71L297.578 353.21V353.754V353.829" stroke="#9D9D9C" stroke-width="1.5" stroke-miterlimit="2"/>
<path d="M275.518 345.065L275.804 345.003L277.065 344.736L278.259 344.498L279.399 344.286L280.499 344.097L281.557 343.93L282.582 343.783L283.331 343.683L284.248 343.577L285.12 343.491L285.954 343.423L286.754 343.372L287.527 343.338L288.274 343.32H289.018L289.601 343.333L290.142 343.36L290.652 343.399L291.137 343.451L291.601 343.516L292.048 343.593L292.481 343.683L292.816 343.764L293.163 343.864L293.479 343.964L293.768 344.073L294.034 344.188L294.279 344.31L294.505 344.439L294.714 344.575L294.907 344.718L295.085 344.869" stroke="#9D9D9C" stroke-width="1.5" stroke-miterlimit="2"/>
<path d="M82.43 343.205H82.818L83.358 343.215L83.892 343.233L84.42 343.259L84.942 343.294L85.464 343.337L85.993 343.389L86.53 343.45L87.075 343.521L87.628 343.601L88.19 343.691L88.762 343.791L89.344 343.901L89.937 344.022L90.537 344.154L91.154 344.297L91.785 344.452L92.431 344.619L92.919 344.751" stroke="#9D9D9C" stroke-width="1.5" stroke-miterlimit="2"/>
<path d="M93.355 340.315L93.312 340.24L93.259 340.166L93.195 340.091L93.117 340.014L93.023 339.933L92.923 339.855L92.766 339.744L92.595 339.634L92.407 339.524L92.195 339.409L92.101 339.361L91.826 339.227L91.536 339.096L91.23 338.968L90.906 338.842L90.56 338.717L90.189 338.593L89.789 338.468L89.518 338.388L89.042 338.255L88.562 338.13L88.077 338.014L87.588 337.906L87.095 337.806L86.595 337.715L86.095 337.633H86.064H86.044L85.544 337.561L85.044 337.499L84.554 337.447L84.07 337.405L83.591 337.372L83.118 337.349L82.651 337.335H82.19" stroke="#9D9D9C" stroke-width="1.5" stroke-miterlimit="2"/>
<path d="M80.743 337.324H80.323L79.671 337.337L79.057 337.361L78.474 337.396L77.917 337.442L77.383 337.499L76.868 337.566L76.368 337.644L75.887 337.732L75.42 337.832L74.966 337.941L74.584 338.041L74.166 338.165L73.766 338.296L73.383 338.435L73.017 338.581L72.667 338.735L72.332 338.896L72.012 339.064L71.706 339.238L71.414 339.419L71.135 339.607L70.869 339.802L70.802 339.854L70.548 340.06L70.304 340.275L70.071 340.498L69.85 340.728L69.64 340.964L69.44 341.206L69.253 341.456L69.075 341.716L68.906 341.986L68.747 342.265L68.598 342.553L68.46 342.853L68.425 342.932L68.301 343.232L68.186 343.548L68.081 343.876L67.981 344.216L67.896 344.568L67.821 344.932L67.757 345.308L67.704 345.697L67.663 346.097L67.633 346.512L67.616 346.939L67.611 347.333" stroke="#9D9D9C" stroke-width="1.5" stroke-miterlimit="2"/>
<path d="M67.624 347.336V347.345L67.63 347.681L67.646 348.011L67.672 348.334L67.708 348.649L67.754 348.956L67.809 349.256L67.873 349.545L67.946 349.825L68.027 350.096L68.116 350.357L68.216 350.609L68.316 350.851L68.428 351.084L68.548 351.307L68.677 351.525L68.817 351.741L68.969 351.954L69.132 352.165L69.306 352.372L69.491 352.572L69.691 352.772L69.898 352.972L70.116 353.162L70.344 353.347L70.581 353.526L70.827 353.698L70.973 353.798L71.232 353.958L71.503 354.113L71.786 354.263L72.086 354.408L72.398 354.548L72.727 354.684L73.074 354.816L73.442 354.945L73.835 355.071L74.258 355.196L74.352 355.222L74.823 355.347L75.323 355.468L75.847 355.585L76.407 355.699L77.014 355.812L77.687 355.927L78.146 356" stroke="#9D9D9C" stroke-width="1.5" stroke-miterlimit="2"/>
<path d="M81.305 356.441L81.437 356.458L81.887 356.516L82.337 356.575L82.787 356.636L83.237 356.699L83.688 356.765L84.14 356.834L84.34 356.866L84.556 356.902L84.739 356.936L84.903 356.97L85.052 357.005L85.19 357.041L85.32 357.079L85.442 357.119L85.558 357.161L85.668 357.205L85.773 357.251" stroke="#9D9D9C" stroke-width="1.5" stroke-miterlimit="2"/>
<path d="M85.772 357.251L85.902 357.306L86.108 357.394L86.272 357.467L86.413 357.533L86.538 357.596L86.651 357.657L86.751 357.716L86.845 357.775L86.932 357.834L87.012 357.893L87.086 357.952L87.154 358.011L87.217 358.071L87.275 358.132L87.328 358.194L87.378 358.258L87.426 358.326L87.472 358.398L87.515 358.474L87.556 358.554L87.595 358.639L87.632 358.729L87.666 358.824L87.698 358.924L87.727 359.03L87.754 359.142L87.778 359.261L87.8 359.386L87.819 359.519L87.835 359.66L87.848 359.81L87.858 359.971L87.865 360.144V360.333V360.427" stroke="#9D9D9C" stroke-width="1.5" stroke-miterlimit="2"/>
<path d="M87.871 360.426V360.443V360.663L87.861 360.87L87.846 361.07L87.825 361.256L87.799 361.432L87.768 361.599L87.732 361.758L87.691 361.909L87.645 362.053L87.594 362.19L87.539 362.32L87.479 362.444L87.415 362.562L87.345 362.677L87.269 362.789L87.207 362.872L87.121 362.972L87.03 363.072L86.93 363.172L86.83 363.261L86.73 363.345L86.619 363.426L86.5 363.504L86.373 363.58L86.238 363.653L86.094 363.723L86.013 363.759L85.855 363.824L85.688 363.886L85.511 363.944L85.323 363.999L85.123 364.051L84.951 364.09L84.717 364.137L84.469 364.18L84.204 364.219L83.918 364.255L83.641 364.284L83.286 364.315L82.912 364.341L82.512 364.362L82.083 364.378L81.611 364.39L81.073 364.397H80.412H80.268" stroke="#9D9D9C" stroke-width="1.5" stroke-miterlimit="2"/>
<path d="M78.811 364.401H78.411L78.011 364.386L77.599 364.361L77.179 364.326L76.75 364.28L76.312 364.223L75.865 364.155L75.407 364.076L74.938 363.985L74.456 363.885L73.956 363.768L73.643 363.689L73.122 363.55L72.596 363.399L72.064 363.237L71.526 363.063L70.982 362.876L70.431 362.676L69.873 362.464L69.307 362.238L68.732 361.998L68.148 361.744L67.786 361.581" stroke="#9D9D9C" stroke-width="1.5" stroke-miterlimit="2" stroke-linecap="round"/>
<path d="M67.624 366.086V366.186L67.638 366.286L67.662 366.386L67.696 366.486L67.741 366.586L67.797 366.686L67.865 366.792L67.947 366.901L68.047 367.013L68.159 367.129L68.288 367.25L68.436 367.376L68.558 367.476L68.751 367.619L68.951 367.755L69.161 367.887L69.387 368.017L69.637 368.151H69.645L69.937 368.297L70.248 368.441L70.578 368.583L70.927 368.724L71.069 368.779L71.446 368.916L71.833 369.047L72.233 369.171L72.641 369.288L73.061 369.399L73.494 369.499L73.942 369.599L74.405 369.691L74.714 369.747L75.129 369.816L75.621 369.889L76.113 369.952L76.605 370.006L77.096 370.05L77.586 370.084L78.075 370.108L78.562 370.123H79.047" stroke="#9D9D9C" stroke-width="1.5" stroke-miterlimit="2"/>
<path d="M80.379 370.129H80.679L81.438 370.118L82.147 370.095L82.816 370.06L83.453 370.014L84.062 369.956L84.647 369.887L85.211 369.807L85.757 369.716L86.286 369.616L86.8 369.502L87.2 369.402L87.668 369.274L88.113 369.139L88.537 368.996L88.937 368.845L89.323 368.687L89.692 368.521L90.044 368.348L90.38 368.167L90.701 367.979L91.007 367.779L91.299 367.579L91.378 367.521L91.656 367.306L91.922 367.083L92.175 366.852L92.415 366.614L92.642 366.37L92.855 366.12L93.055 365.861L93.248 365.591L93.43 365.311L93.602 365.021L93.763 364.721L93.912 364.413L93.954 364.32L94.087 364.003L94.21 363.673L94.323 363.331L94.423 362.976L94.514 362.608L94.594 362.226L94.663 361.826L94.72 361.417L94.765 360.993L94.797 360.555L94.816 360.103L94.822 359.673" stroke="#9D9D9C" stroke-width="1.5" stroke-miterlimit="2"/>
<path d="M94.823 359.677V359.434L94.811 359.061L94.789 358.699L94.757 358.347L94.715 358.006L94.664 357.676L94.604 357.357L94.535 357.048L94.457 356.748L94.371 356.46L94.277 356.182L94.177 355.913L94.067 355.654L93.949 355.404L93.821 355.159L93.682 354.917L93.532 354.678L93.371 354.442L93.2 354.21L93.019 353.983L92.828 353.761L92.628 353.545L92.419 353.336L92.201 353.136L91.975 352.942L91.742 352.756L91.642 352.677L91.4 352.504L91.147 352.337L90.881 352.175L90.602 352.018L90.31 351.865L90.003 351.717L89.68 351.573L89.34 351.434L88.981 351.299L88.601 351.167L88.389 351.098L87.97 350.97L87.534 350.848L87.077 350.732L86.597 350.621L86.089 350.515L85.546 350.415L84.958 350.315L84.687 350.272" stroke="#9D9D9C" stroke-width="1.5" stroke-miterlimit="2"/>
<path d="M77.564 349.378L77.343 349.341L77.102 349.298L76.887 349.256L76.687 349.214L76.504 349.171L76.331 349.126H76.32L76.169 349.083L76.033 349.04L75.907 348.997L75.79 348.953L75.68 348.908L75.58 348.861L75.48 348.812L75.387 348.761L75.299 348.708H75.293L75.208 348.653L75.127 348.595L75.05 348.535L74.979 348.465L74.91 348.401L74.846 348.336L74.786 348.27L74.73 348.203L74.679 348.135L74.632 348.066L74.589 347.996L74.55 347.924L74.514 347.848L74.479 347.765L74.448 347.682L74.42 347.595L74.396 347.505L74.375 347.411L74.357 347.311L74.343 347.211L74.332 347.111L74.325 347.004V346.895V346.873" stroke="#9D9D9C" stroke-width="1.5" stroke-miterlimit="2"/>
<path d="M74.327 346.873V346.741V346.496L74.336 346.277L74.35 346.077L74.369 345.888L74.384 345.764L74.408 345.608L74.436 345.464L74.467 345.329L74.502 345.203L74.541 345.084L74.56 345.031L74.606 344.919L74.656 344.813L74.709 344.713L74.766 344.618L74.826 344.529L74.889 344.446L74.957 344.367L75.031 344.289L75.112 344.214L75.199 344.141L75.292 344.071L75.392 344.003L75.463 343.959L75.572 343.897L75.688 343.838L75.811 343.782L75.943 343.728L76.086 343.676L76.241 343.626L76.309 343.606L76.487 343.558L76.676 343.513L76.876 343.471L77.093 343.432L77.33 343.395L77.475 343.375L77.767 343.339L78.067 343.307L78.386 343.28L78.723 343.257L79.082 343.239L79.469 343.225L79.896 343.215L80.384 343.21H80.965" stroke="#9D9D9C" stroke-width="1.5" stroke-miterlimit="2"/>
<path d="M99.9041 358.3L99.9101 358.73L99.9281 359.168L99.9591 359.614L100.002 360.069L100.058 360.533L100.121 360.962V360.983L100.2 361.444L100.287 361.886L100.387 362.311L100.487 362.72L100.599 363.115L100.72 363.496L100.849 363.865L100.986 364.222L101.132 364.568L101.286 364.903L101.444 365.22L101.616 365.538L101.796 365.847L101.984 366.147L102.184 366.434L102.384 366.71L102.592 366.974L102.806 367.226L103.025 367.466L103.249 367.693L103.477 367.908L103.709 368.108L103.945 368.298L104.185 368.476L104.432 368.644L104.688 368.804L104.954 368.956L105.229 369.099L105.512 369.233L105.803 369.357L106.103 369.471L106.409 369.571L106.525 369.607L106.839 369.696L107.162 369.775L107.494 369.844L107.836 369.902L108.187 369.95L108.548 369.987L108.918 370.013L109.298 370.028H109.588" stroke="#9D9D9C" stroke-width="1.5" stroke-miterlimit="2"/>
<path d="M118.17 370.034H118.356L118.729 370.023L119.093 370L119.449 369.966L119.796 369.921L120.135 369.866L120.465 369.8L120.787 369.724L121.101 369.638L121.18 369.614L121.488 369.514L121.788 369.403L122.088 369.282L122.377 369.151L122.658 369.011L122.931 368.862L123.195 368.704L123.449 368.538L123.693 368.365L123.927 368.184L124.151 367.996L124.367 367.796L124.578 367.588L124.784 367.368L124.984 367.136L125.184 366.892L125.374 366.636L125.558 366.368L125.736 366.088L125.907 365.796L126.071 365.496L126.228 365.182L126.377 364.857L126.517 364.522L126.549 364.44L126.678 364.094L126.798 363.738L126.909 363.371L127.009 362.992L127.102 362.601L127.186 362.201L127.261 361.783L127.327 361.35L127.383 360.901L127.43 360.433L127.467 359.945L127.494 359.434L127.511 358.897L127.517 358.328V358.303" stroke="#9D9D9C" stroke-width="1.5" stroke-miterlimit="2"/>
<path d="M120.963 358.192V358.334V358.707L120.957 359.018L120.947 359.294L120.933 359.546L120.915 359.78L120.892 360L120.865 360.209L120.834 360.409L120.829 360.439L120.795 360.622L120.757 360.793L120.716 360.955L120.672 361.109L120.624 361.255L120.573 361.395L120.518 361.529L120.482 361.61L120.421 361.736L120.356 361.857L120.288 361.973L120.217 362.083L120.143 362.183L120.066 362.283L119.986 362.376L119.904 362.463L119.818 362.547L119.726 362.628L119.626 362.707L119.526 362.783L119.417 362.857L119.302 362.928L119.181 362.996L119.053 363.061L118.919 363.123L118.779 363.182L118.632 363.238L118.479 363.29L118.456 363.297L118.296 363.345L118.131 363.388L117.961 363.427L117.785 363.461L117.603 363.491L117.414 363.517L117.214 363.538L117.007 363.554L116.789 363.566L116.558 363.573H116.339" stroke="#9D9D9C" stroke-width="1.5" stroke-miterlimit="2"/>
<path d="M111.125 363.576H110.846L110.601 363.57L110.382 363.56L110.182 363.546L109.996 363.528L109.821 363.505L109.655 363.478L109.497 363.447L109.413 363.428L109.263 363.39L109.118 363.348L108.977 363.301L108.841 363.25L108.71 363.195L108.584 363.136L108.492 363.089L108.371 363.022L108.254 362.95L108.141 362.874L108.032 362.794L107.932 362.71L107.832 362.623L107.732 362.532L107.641 362.438L107.552 362.338L107.466 362.232L107.382 362.12L107.301 362.002L107.223 361.879L107.16 361.771L107.088 361.637L107.019 361.497L106.953 361.351L106.89 361.198L106.83 361.038L106.773 360.871L106.749 360.793L106.697 360.613L106.649 360.428L106.606 360.237L106.567 360.037L106.532 359.837L106.502 359.625L106.476 359.405L106.455 359.176L106.439 358.937L106.427 358.687L106.42 358.425V358.21" stroke="#9D9D9C" stroke-width="1.5" stroke-miterlimit="2"/>
<path d="M140.979 353.896V353.565L140.985 352.813L140.999 352.169L141.02 351.59L141.049 351.057L141.086 350.557L141.131 350.084L141.184 349.632L141.245 349.197L141.315 348.777L141.393 348.369L141.469 348.02L141.552 347.681L141.639 347.367L141.73 347.075L141.83 346.802L141.93 346.546L142.035 346.305L142.145 346.078L142.26 345.864L142.38 345.664L142.505 345.474L142.636 345.294L142.772 345.125L142.917 344.962L143.071 344.805L143.179 344.705L143.346 344.561L143.519 344.425L143.698 344.299L143.881 344.182L144.069 344.075L144.269 343.975L144.48 343.875L144.704 343.785L144.942 343.701L145.195 343.623L145.301 343.593L145.578 343.523L145.869 343.46L146.178 343.404L146.507 343.355L146.863 343.313L147.056 343.294L147.47 343.261L147.911 343.236L148.387 343.219L148.913 343.211H149.171" stroke="#9D9D9C" stroke-width="1.5" stroke-miterlimit="2"/>
<path d="M150.723 343.205H151.142L151.536 343.213L151.891 343.227L152.218 343.246L152.524 343.271L152.813 343.302L153.088 343.338L153.351 343.38L153.604 343.427L153.848 343.48L154.084 343.539L154.313 343.604L154.335 343.61L154.553 343.68L154.761 343.754L154.961 343.832L155.149 343.914L155.328 344L155.497 344.089L155.657 344.182L155.809 344.282L155.952 344.382L156.087 344.482L156.214 344.587L156.333 344.696L156.445 344.808L156.552 344.925L156.652 345.049L156.752 345.18L156.847 345.318L156.937 345.462L157.022 345.612L157.07 345.704L157.146 345.863L157.218 346.03L157.286 346.206L157.349 346.392L157.408 346.592L157.463 346.801L157.514 347.024L157.56 347.256L157.6 347.499L157.635 347.754L157.664 348.023L157.687 348.308L157.705 348.614L157.717 348.947L157.724 349.319V349.579" stroke="#9D9D9C" stroke-width="1.5" stroke-miterlimit="2"/>
<path d="M157.727 349.574V349.717L157.722 349.947L157.712 350.173L157.697 350.395L157.678 350.614L157.654 350.829L157.626 351.04L157.593 351.247L157.556 351.447L157.541 351.521L157.5 351.711L157.456 351.893L157.409 352.067L157.359 352.234L157.306 352.395L157.25 352.55L157.191 352.7L157.129 352.845L157.064 352.985L156.996 353.12L156.949 353.207L156.877 353.332L156.803 353.451L156.728 353.564L156.651 353.671L156.572 353.771L156.492 353.866L156.411 353.955L156.328 354.039L156.244 354.117L156.159 354.19L156.072 354.258L155.984 354.321L155.893 354.38L155.793 354.436L155.693 354.488L155.593 354.537L155.487 354.582L155.378 354.623L155.267 354.659L155.154 354.691L155.039 354.718L154.923 354.741H154.915L154.798 354.758L154.681 354.77L154.565 354.777H154.45" stroke="#9D9D9C" stroke-width="1.5" stroke-miterlimit="2"/>
<path d="M143.492 359.365L143.954 359.442L144.436 359.514L144.942 359.582L145.476 359.646L146.045 359.707L146.66 359.765L147.339 359.821L147.891 359.862L148.647 359.914L149.435 359.961L150.182 359.998L150.896 360.026L151.582 360.046L152.244 360.058H152.885" stroke="#9D9D9C" stroke-width="1.5" stroke-miterlimit="2" stroke-linecap="round"/>
<path d="M152.886 360.065H153.259L153.959 360.046L154.621 360.009L155.246 359.955L155.84 359.884L156.406 359.796L156.947 359.696L157.465 359.576L157.965 359.44L158.442 359.288L158.901 359.121L158.941 359.106L159.385 358.921L159.812 358.721L160.222 358.506L160.613 358.278L160.984 358.037L161.335 357.785L161.666 357.522L161.976 357.25L162.266 356.968L162.535 356.678L162.789 356.378L163.031 356.055L163.261 355.713L163.478 355.353L163.678 354.975L163.866 354.581L164.038 354.172L164.193 353.749L164.318 353.355L164.438 352.912L164.538 352.451L164.624 351.971L164.683 351.551L164.738 351.028L164.774 350.484L164.791 349.917V349.754L164.784 349.243L164.757 348.662L164.71 348.092L164.643 347.534L164.557 346.988V346.972L164.457 346.447L164.336 345.942L164.199 345.455L164.046 344.986L163.877 344.534L163.688 344.089L163.68 344.072L163.471 343.636L163.244 343.21L162.999 342.796L162.738 342.396L162.461 342.01L162.17 341.64L161.87 341.286L161.553 340.95L161.225 340.633L160.883 340.333L160.522 340.042L160.142 339.763L159.742 339.496L159.324 339.242L158.888 339.001L158.434 338.774L157.963 338.562L157.475 338.362L156.985 338.186L156.468 338.023L155.935 337.876L155.384 337.746L154.815 337.633L154.228 337.533L153.621 337.456L152.994 337.397L152.346 337.357L151.675 337.337H151.317" stroke="#9D9D9C" stroke-width="1.5" stroke-miterlimit="2"/>
<path d="M150.362 337.324H150.2L149.322 337.335L148.495 337.363L147.71 337.407L146.96 337.466L146.24 337.54L145.723 337.605L145.077 337.705L144.464 337.814L143.879 337.936L143.32 338.07L142.783 338.217L142.647 338.257L142.147 338.418L141.667 338.59L141.209 338.772L140.773 338.965L140.357 339.165L139.957 339.379L139.757 339.493L139.379 339.728L139.016 339.975L138.668 340.234L138.336 340.504L138.02 340.784L137.72 341.074L137.434 341.374L137.157 341.694L136.89 342.03L136.634 342.383L136.389 342.751L136.157 343.134L136.045 343.334L135.833 343.734L135.633 344.157L135.442 344.6L135.261 345.065L135.091 345.553L134.932 346.066L134.896 346.192L134.75 346.739L134.617 347.309L134.496 347.909L134.388 348.534L134.288 349.193L134.226 349.698L134.152 350.431L134.093 351.195L134.05 351.995L134.023 352.838L134.012 353.738V353.876" stroke="#9D9D9C" stroke-width="1.5" stroke-miterlimit="2"/>
<path d="M188.37 338.065L187.927 337.989L187.461 337.917L186.961 337.847L186.429 337.779L185.848 337.712L185.193 337.644L184.411 337.569L183.965 337.528L183.26 337.467L182.646 337.42L182.09 337.384L181.575 337.357L181.091 337.338L180.632 337.327H180.193" stroke="#9D9D9C" stroke-width="1.5" stroke-miterlimit="2" stroke-linecap="round"/>
<path d="M180.197 337.324H180.044L179.629 337.334L179.224 337.356L178.824 337.39L178.438 337.435L178.061 337.492L177.694 337.56L177.335 337.638L176.985 337.727L176.9 337.751L176.558 337.851L176.224 337.964L175.898 338.088L175.581 338.221L175.274 338.364L174.974 338.515L174.687 338.675L174.411 338.843L174.146 339.019L173.892 339.202L173.649 339.393L173.414 339.593L173.184 339.805L172.959 340.03L172.739 340.267L172.525 340.516L172.317 340.777L172.117 341.05L171.923 341.334L171.736 341.634L171.558 341.94L171.388 342.256L171.227 342.581L171.076 342.915L171.033 343.015L170.895 343.358L170.767 343.712L170.648 344.077L170.538 344.454L170.438 344.843L170.347 345.243L170.265 345.659L170.193 346.09L170.131 346.537L170.079 347.002L170.037 347.486L170.006 347.991L169.985 348.52L169.976 349.076V349.262" stroke="#9D9D9C" stroke-width="1.5" stroke-miterlimit="2"/>
<path d="M176.799 349.71V349.526V349.026L176.805 348.626L176.815 348.282L176.83 347.97L176.85 347.68L176.874 347.407L176.903 347.147L176.937 346.898L176.976 346.658L177.02 346.425L177.037 346.343L177.083 346.143L177.131 345.958L177.181 345.787L177.234 345.628L177.29 345.48L177.348 345.342L177.409 345.213L177.473 345.092L177.54 344.979L177.61 344.873L177.683 344.773L177.759 344.68L177.838 344.593L177.922 344.51L178.012 344.43L178.112 344.353L178.212 344.28L178.32 344.211L178.433 344.146L178.539 344.091L178.659 344.036L178.786 343.984L178.921 343.936L179.066 343.891L179.222 343.849L179.391 343.81L179.467 343.794L179.667 343.759L179.874 343.728L180.096 343.701L180.336 343.678L180.602 343.659H180.654L180.972 343.643L181.319 343.632L181.709 343.626H182.122" stroke="#9D9D9C" stroke-width="1.5" stroke-miterlimit="2"/>
<path d="M206.979 337.324L206.064 337.332L205.025 337.364L204.068 337.419L203.176 337.497L202.338 337.597L201.545 337.719L200.791 337.863L200.072 338.028L199.384 338.214L198.748 338.414L198.148 338.632L197.583 338.865L197.052 339.114L196.552 339.379L196.452 339.434L195.976 339.725L195.523 340.036L195.093 340.366L194.693 340.712L194.315 341.074L193.957 341.456L193.614 341.865L193.287 342.299L192.978 342.758L192.689 343.241L192.637 343.335L192.372 343.843L192.124 344.381L191.893 344.952L191.679 345.557L191.479 346.197L191.299 346.881L191.138 347.604L191.087 347.865L190.952 348.653L190.837 349.49L190.813 349.697L190.724 350.607L190.658 351.573L190.651 351.697L190.612 352.743V352.762L190.599 353.871L190.612 354.933V354.949L190.652 355.955L190.658 356.063L190.725 356.999L190.815 357.883L190.837 358.061L190.953 358.881L191.09 359.657L191.136 359.883L191.299 360.6L191.481 361.28L191.653 361.837L191.869 362.448L192.102 363.025L192.352 363.571L192.619 364.087L192.631 364.109L192.92 364.602L193.228 365.072L193.554 365.517L193.897 365.936L194.255 366.329L194.634 366.701L195.034 367.057L195.462 367.396L195.912 367.715L196.382 368.015L196.408 368.031L196.898 368.305L197.417 368.562L197.968 368.803L198.552 369.027L199.11 369.215L199.763 369.406L200.446 369.575L201.161 369.723L201.912 369.849L202.704 369.949L203.542 370.03L204.434 370.087L205.392 370.12L206.245 370.129" stroke="#9D9D9C" stroke-width="1.5" stroke-miterlimit="2"/>
<path d="M207.103 370.129H207.625L208.278 370.115L208.927 370.09L209.572 370.055L210.213 370.009L210.849 369.953L211.48 369.886L212.106 369.809L212.326 369.779L212.898 369.695L213.439 369.605L213.954 369.505L214.447 369.405L214.92 369.296L215.376 369.181L215.817 369.059L216.244 368.93L216.374 368.888L216.774 368.753L217.152 368.615L217.51 368.473L217.848 368.328L217.984 368.266L218.239 368.143L218.467 368.023L218.677 367.901L218.877 367.775L219.065 367.643L219.217 367.525L219.372 367.394L219.51 367.264L219.632 367.136L219.738 367.011L219.829 366.888L219.905 366.768L219.968 366.65L220.018 366.534L220.056 366.42L220.083 366.308L220.099 366.197L220.104 366.087" stroke="#9D9D9C" stroke-width="1.5" stroke-miterlimit="2"/>
<path d="M219.63 362.405L219.43 362.459L218.545 362.688L217.755 362.888L217.029 363.06L216.35 363.213L215.708 363.349L215.095 363.47L214.507 363.577L213.939 363.672L213.37 363.758L212.797 363.835L212.221 363.903L211.643 363.962L211.063 364.012L210.481 364.053L209.897 364.084L209.311 364.106L208.724 364.119H208.191" stroke="#9D9D9C" stroke-width="1.5" stroke-miterlimit="2"/>
<path d="M206.857 364.118H206.492L205.857 364.11L205.301 364.094L204.801 364.07L204.454 364.047L204.042 364.011L203.661 363.968L203.305 363.918L202.969 363.86L202.7 363.806L202.4 363.737L202.122 363.661L201.859 363.579L201.61 363.49L201.373 363.39L201.223 363.323L201.001 363.214L200.788 363.098L200.588 362.975L200.396 362.846L200.214 362.711L200.043 362.571L199.879 362.423L199.719 362.264L199.563 362.094L199.412 361.912L199.265 361.718L199.122 361.512L198.984 361.293L198.851 361.062L198.723 360.818L198.601 360.561L198.484 360.29L198.374 360.006L198.274 359.706L198.207 359.494L198.115 359.176L198.031 358.846L197.954 358.5L197.884 358.136L197.821 357.748L197.763 357.33L197.729 357.046L197.679 356.546L197.638 356.03L197.606 355.492L197.583 354.93L197.57 354.341V353.859" stroke="#9D9D9C" stroke-width="1.5" stroke-miterlimit="2"/>
<path d="M197.563 353.871V353.52L197.569 352.773L197.583 352.133L197.605 351.558L197.634 351.028L197.671 350.528L197.716 350.057L197.769 349.607L197.831 349.175L197.901 348.757L197.979 348.352L198.056 348.001L198.139 347.664L198.226 347.351L198.317 347.06L198.417 346.787L198.517 346.531L198.623 346.291L198.733 346.065L198.848 345.852L198.968 345.652L199.094 345.462L199.225 345.283L199.361 345.114L199.506 344.952L199.66 344.796L199.822 344.647L199.936 344.547L200.11 344.411L200.289 344.285L200.473 344.168L200.662 344.061L200.862 343.961L201.074 343.861L201.299 343.771L201.538 343.687L201.792 343.609L201.898 343.58L202.176 343.51L202.469 343.447L202.779 343.391L203.11 343.342L203.467 343.3L203.66 343.281L204.076 343.248L204.519 343.223L204.998 343.206L205.527 343.198H205.785" stroke="#9D9D9C" stroke-width="1.5" stroke-miterlimit="2"/>
<path d="M207.343 343.205H207.6H208.126L208.568 343.213L208.962 343.226L209.324 343.244L209.663 343.268L209.984 343.297L210.29 343.331L210.585 343.37L210.87 343.415L211.055 343.448L211.288 343.495L211.501 343.544L211.701 343.596L211.885 343.651L212.057 343.709L212.218 343.771L212.37 343.836L212.513 343.905L212.648 343.977L212.776 344.053L212.897 344.132L213.011 344.215L213.121 344.304L213.202 344.375L213.302 344.475L213.402 344.575L213.493 344.682L213.578 344.792L213.656 344.905L213.728 345.022L213.797 345.146L213.862 345.278L213.924 345.418L213.982 345.567L214.036 345.726L214.069 345.832L214.118 346.009L214.162 346.195L214.201 346.395L214.236 346.604L214.267 346.829L214.289 347.029L214.313 347.297L214.331 347.581L214.344 347.881L214.351 348.213V348.504" stroke="#9D9D9C" stroke-width="1.5" stroke-miterlimit="2"/>
<path d="M214.35 348.51V348.635V348.798L214.342 348.949L214.331 349.091L214.317 349.225L214.3 349.352L214.28 349.473L214.256 349.589L214.229 349.701L214.199 349.809L214.166 349.909L214.146 349.967L214.108 350.067L214.066 350.167L214.021 350.261L213.974 350.352L213.924 350.439L213.872 350.522L213.817 350.601L213.76 350.676L213.702 350.747L213.642 350.814L213.58 350.876L213.516 350.935L213.448 350.992L213.376 351.047L213.3 351.1L213.22 351.15L213.136 351.198L213.048 351.244L212.955 351.288L212.855 351.329L212.755 351.368L212.648 351.404L212.536 351.438L212.418 351.469L212.295 351.498L212.166 351.524L212.031 351.547L211.89 351.567L211.743 351.583L211.59 351.596L211.43 351.605L211.264 351.611H211.091H211.079" stroke="#9D9D9C" stroke-width="1.5" stroke-miterlimit="2"/>
<path d="M200.111 355.998L200.559 356.098L201.027 356.189L201.517 356.275L202.035 356.356L202.587 356.432L203.187 356.505L203.843 356.576L204.498 356.639L205.265 356.705L206.054 356.764L206.804 356.811L207.522 356.847L208.212 356.872L208.879 356.887H209.525" stroke="#9D9D9C" stroke-width="1.5" stroke-linecap="round" stroke-linejoin="round"/>
<path d="M209.52 356.889H209.62L210.173 356.881L210.714 356.862L211.244 356.833L211.763 356.793L212.272 356.743L212.772 356.682L213.261 356.611L213.434 356.583L213.884 356.503L214.311 356.416L214.717 356.322L215.105 356.222L215.477 356.114L215.835 355.999L216.179 355.876L216.511 355.746L216.832 355.608L217.142 355.463L217.225 355.422L217.525 355.267L217.812 355.105L218.088 354.936L218.353 354.761L218.606 354.58L218.847 354.394L219.076 354.203L219.292 354.003L219.492 353.803L219.684 353.603L219.864 353.396L220.032 353.186L220.188 352.973L220.335 352.753L220.474 352.524L220.605 352.287L220.727 352.042L220.84 351.789L220.94 351.529L221.033 351.263L221.09 351.079L221.166 350.804L221.233 350.521L221.29 350.229L221.337 349.929L221.374 349.62L221.4 349.302L221.415 348.975V348.675" stroke="#9D9D9C" stroke-width="1.5" stroke-miterlimit="2"/>
<path d="M221.418 348.679V348.542L221.407 348.065L221.383 347.598L221.346 347.142L221.296 346.698L221.234 346.266L221.16 345.847L221.074 345.44L220.974 345.046L220.866 344.665L220.748 344.296L220.619 343.94L220.48 343.596L220.332 343.265L220.179 342.945L220.029 342.668L219.848 342.361L219.655 342.061L219.455 341.771L219.241 341.49L219.017 341.219L218.783 340.959L218.539 340.708L218.282 340.464L218.012 340.228L217.73 339.999L217.436 339.779L217.131 339.568L216.995 339.479L216.674 339.279L216.34 339.09L215.992 338.909L215.63 338.736L215.253 338.572L214.862 338.416L214.455 338.269L214.033 338.131L213.594 338.003L213.139 337.884L212.667 337.775H212.654L212.164 337.675L211.664 337.588L211.147 337.513L210.615 337.45L210.066 337.399L209.498 337.36L208.91 337.334L208.298 337.32H207.961" stroke="#9D9D9C" stroke-width="1.5" stroke-miterlimit="2"/>
<path d="M247.717 340.53L247.566 340.389L247.409 340.25L247.246 340.114L247.077 339.98L246.902 339.849L246.721 339.721L246.534 339.596L246.341 339.474L246.141 339.354L245.936 339.238L245.725 339.125L245.508 339.016L245.285 338.91L245.056 338.81L244.822 338.71L244.583 338.616L244.338 338.526L244.089 338.44L243.918 338.385L243.661 338.307L243.402 338.234L243.14 338.167L242.876 338.105L242.608 338.048L242.337 337.997L242.16 337.967H242.141L241.899 337.93L241.678 337.901L241.472 337.88L241.278 337.865L241.094 337.856H240.918" stroke="#9D9D9C" stroke-width="1.5" stroke-miterlimit="2" stroke-linecap="round"/>
<path d="M237.39 337.849H237.044L236.635 337.865L236.235 337.893L235.843 337.932L235.46 337.982L235.087 338.043L234.725 338.114L234.373 338.195L234.032 338.286L233.702 338.386L233.383 338.495L233.075 338.614L232.775 338.741L232.489 338.877L232.213 339.021L231.948 339.173L231.689 339.335L231.434 339.51L231.183 339.697L230.936 339.897L230.694 340.108L230.457 340.33L230.227 340.563L230.003 340.807L229.786 341.062L229.577 341.326L229.377 341.599L229.186 341.881L229.005 342.17L228.895 342.357L228.731 342.657L228.575 342.968L228.426 343.291L228.285 343.625L228.152 343.972L228.027 344.332L227.91 344.706L227.802 345.094L227.702 345.494L227.61 345.914L227.556 346.194L227.479 346.644L227.413 347.1L227.359 347.562L227.316 348.03L227.285 348.503L227.266 348.982L227.259 349.466V349.494" stroke="#9D9D9C" stroke-width="1.5" stroke-miterlimit="2"/>
<path d="M233.464 349.503V349.403V349.064L233.473 348.756L233.487 348.471L233.506 348.203L233.53 347.949L233.559 347.706L233.593 347.473L233.632 347.248L233.662 347.095L233.707 346.895L233.756 346.702L233.809 346.518L233.866 346.344L233.926 346.178L233.99 346.02L234.057 345.869L234.128 345.726L234.202 345.589L234.28 345.459L234.362 345.335L234.449 345.214L234.542 345.095L234.642 344.979L234.747 344.866L234.858 344.756L234.975 344.649L235.097 344.549L235.224 344.449L235.356 344.354L235.492 344.264L235.632 344.179L235.776 344.099L235.818 344.077L235.965 344.005L236.115 343.939L236.27 343.877L236.431 343.82L236.598 343.768L236.771 343.72L236.951 343.677L237.139 343.638L237.339 343.604L237.544 343.575L237.759 343.551L237.985 343.532L238.224 343.518L238.478 343.509H238.75H238.766" stroke="#9D9D9C" stroke-width="1.5" stroke-miterlimit="2"/>
<path d="M238.771 343.501H238.894L239.206 343.506L239.495 343.516L239.766 343.532L240.022 343.553L240.266 343.579L240.498 343.61L240.72 343.646L240.934 343.687L241.139 343.733L241.339 343.784L241.53 343.84L241.714 343.901L241.838 343.946L242.006 344.012L242.165 344.082L242.316 344.155L242.459 344.231L242.595 344.311L242.724 344.394L242.85 344.483L242.972 344.577L243.047 344.639L243.162 344.739L243.272 344.846L243.372 344.956L243.472 345.07L243.565 345.187L243.653 345.31L243.738 345.439L243.819 345.574L243.896 345.715L243.969 345.863L244.038 346.017L244.103 346.179L244.164 346.348L244.221 346.526L244.274 346.712L244.322 346.912L244.366 347.117L244.406 347.333L244.441 347.56L244.471 347.8L244.497 348.054L244.518 348.325L244.534 348.615L244.545 348.928L244.551 349.273V349.503" stroke="#9D9D9C" stroke-width="1.5" stroke-miterlimit="2"/>
<path d="M250.93 349.503V349.403V349.108L250.941 348.825L250.957 348.553L250.979 348.291L251.006 348.039L251.038 347.797L251.075 347.565L251.117 347.342L251.163 347.128L251.214 346.922L251.269 346.722L251.328 346.533L251.391 346.352L251.458 346.178L251.529 346.011L251.604 345.852L251.683 345.699L251.765 345.553L251.851 345.413L251.94 345.28L252.033 345.153L252.133 345.031L252.233 344.915L252.338 344.803L252.45 344.694L252.568 344.588L252.692 344.488L252.821 344.388L252.956 344.288L253.096 344.197L253.241 344.11L253.39 344.028L253.543 343.951L253.7 343.88L253.86 343.815L253.903 343.799L254.066 343.741L254.234 343.688L254.408 343.64L254.588 343.597L254.775 343.559L254.97 343.526L255.17 343.498L255.382 343.475L255.604 343.457L255.838 343.444L256.085 343.437H256.277" stroke="#9D9D9C" stroke-width="1.5" stroke-miterlimit="2"/>
<path d="M256.279 343.439H256.435L256.713 343.445L256.973 343.457L257.218 343.474L257.451 343.496L257.673 343.524L257.886 343.557L258.086 343.595L258.286 343.638L258.476 343.686L258.659 343.739L258.837 343.797L258.9 343.819L259.073 343.885L259.242 343.956L259.406 344.032L259.565 344.113L259.718 344.199L259.866 344.289L260.007 344.383L260.142 344.483L260.27 344.583L260.392 344.683L260.507 344.789L260.615 344.898L260.715 345.011L260.815 345.13L260.915 345.255L261.008 345.386L261.097 345.524L261.183 345.669L261.265 345.82L261.343 345.979L261.418 346.145L261.489 346.318L261.556 346.499L261.619 346.688L261.677 346.888L261.731 347.094L261.78 347.308L261.825 347.531L261.865 347.763L261.9 348.004L261.929 348.254L261.953 348.514L261.971 348.783L261.984 349.061L261.99 349.348V349.505" stroke="#9D9D9C" stroke-width="1.5" stroke-miterlimit="2"/>
<path d="M268.218 349.503L268.213 349.029L268.197 348.534L268.169 348.054L268.131 347.588L268.082 347.136L268.023 346.698L267.954 346.273L267.875 345.861L267.786 345.461L267.686 345.075L267.579 344.701L267.463 344.339L267.338 343.988L267.205 343.648L267.064 343.319L266.914 343.001L266.852 342.877L266.689 342.571L266.518 342.271L266.338 341.984L266.151 341.707L265.956 341.44L265.756 341.184L265.547 340.938L265.329 340.7L265.102 340.47L264.866 340.248L264.699 340.101L264.449 339.895L264.192 339.695L263.928 339.509L263.658 339.333L263.378 339.165L263.088 339.005L262.788 338.854L262.479 338.712L262.161 338.579L261.835 338.455L261.501 338.341L261.16 338.241L260.812 338.148L260.634 338.105L260.457 338.066L260.107 337.998L259.76 337.942L259.417 337.899L259.077 337.868L258.741 337.85L258.41 337.844" stroke="#9D9D9C" stroke-width="1.5" stroke-miterlimit="2"/>
<path d="M254.611 337.849H254.365L254.091 337.857L253.822 337.87L253.558 337.889L253.299 337.913L253.044 337.943L252.793 337.978L252.546 338.019L252.303 338.065L252.063 338.116L251.826 338.172L251.766 338.187L251.532 338.25L251.301 338.319L251.074 338.393L250.85 338.471L250.63 338.554L250.415 338.642L250.205 338.734L250 338.834L249.8 338.934L249.605 339.034L249.416 339.142L249.232 339.253L249.054 339.368L248.882 339.486L248.716 339.607L248.556 339.731L248.401 339.857L248.252 339.986L248.109 340.118L247.972 340.252L247.841 340.388L247.716 340.527" stroke="#9D9D9C" stroke-width="1.5" stroke-miterlimit="2"/>
<path d="M88.107 462.998L88.207 462.955H88.219L88.319 462.917L88.427 462.882L88.538 462.85L88.653 462.822L88.771 462.797L88.853 462.782L88.977 462.763L89.104 462.747L89.234 462.735L89.367 462.727H89.503H89.653H89.792L89.93 462.736L90.067 462.749L90.131 462.756L90.264 462.774L90.394 462.796L90.522 462.822L90.622 462.844L90.741 462.875L90.855 462.909L90.965 462.946L91.07 462.985L91.17 463.027L91.27 463.072" stroke="#1D1D1B" stroke-width="0.5" stroke-miterlimit="2"/>
</g>
<defs>
<clipPath id="clip0_273_2475">
<rect width="483.89" height="716.756" fill="white"/>
</clipPath>
</defs>
</svg>
