<svg width="299" height="416" viewBox="0 0 299 416" fill="none" xmlns="http://www.w3.org/2000/svg">
<g clip-path="url(#clip0_640_84819)">
<path d="M298.64 0H0V415.07H298.64V0Z" fill="white"/>
<path d="M41.3901 153.29V271.63" stroke="#1D1D1B" stroke-width="0.75" stroke-miterlimit="2"/>
<path d="M41.3901 271.63H202.26" stroke="#1D1D1B" stroke-width="0.75" stroke-miterlimit="2"/>
<path d="M202.26 153.29H41.3901" stroke="#1D1D1B" stroke-width="0.75" stroke-miterlimit="2"/>
<path d="M202.26 271.63V153.29" stroke="#1D1D1B" stroke-width="0.75" stroke-miterlimit="2"/>
<path d="M35.9299 383.1H262.7" stroke="#9D9D9C" stroke-width="0.5" stroke-miterlimit="2"/>
<path d="M30.55 37.5599V377.72" stroke="#9D9D9C" stroke-width="0.5" stroke-miterlimit="2"/>
<path d="M268.09 377.72V37.5599" stroke="#9D9D9C" stroke-width="0.5" stroke-miterlimit="2"/>
<path d="M262.7 32.1799H35.9299" stroke="#9D9D9C" stroke-width="0.5" stroke-miterlimit="2"/>
<path d="M262.7 383.1C265.67 383.1 268.08 380.69 268.08 377.72" stroke="#9D9D9C" stroke-width="0.5" stroke-miterlimit="2"/>
<path d="M30.55 377.72C30.55 380.69 32.96 383.1 35.93 383.1" stroke="#9D9D9C" stroke-width="0.5" stroke-miterlimit="2"/>
<path d="M35.93 32.1799C32.96 32.1799 30.55 34.5899 30.55 37.5599" stroke="#9D9D9C" stroke-width="0.5" stroke-miterlimit="2"/>
<path d="M268.09 37.5599C268.09 34.5899 265.68 32.1799 262.71 32.1799" stroke="#9D9D9C" stroke-width="0.5" stroke-miterlimit="2"/>
<path d="M35.9302 379.85H262.7" stroke="#1D1D1B" stroke-width="0.75" stroke-miterlimit="2"/>
<path d="M33.8101 37.5599V377.72" stroke="#1D1D1B" stroke-width="0.75" stroke-miterlimit="2"/>
<path d="M264.83 377.72V37.5599" stroke="#1D1D1B" stroke-width="0.75" stroke-miterlimit="2"/>
<path d="M262.7 35.4399H35.9302" stroke="#1D1D1B" stroke-width="0.75" stroke-miterlimit="2"/>
<path d="M33.8101 37.5599C33.8101 36.9999 34.0301 36.4599 34.4301 36.0599C34.8301 35.6599 35.3701 35.4399 35.9301 35.4399" stroke="#1D1D1B" stroke-width="0.75" stroke-miterlimit="2"/>
<path d="M35.9301 379.84C35.3701 379.84 34.8301 379.62 34.4301 379.22C34.0301 378.82 33.8101 378.28 33.8101 377.72" stroke="#1D1D1B" stroke-width="0.75" stroke-miterlimit="2"/>
<path d="M262.7 379.85C263.87 379.85 264.83 378.9 264.83 377.72" stroke="#1D1D1B" stroke-width="0.75" stroke-miterlimit="2"/>
<path d="M262.71 35.4399C263.27 35.4399 263.81 35.6599 264.21 36.0599C264.61 36.4599 264.83 36.9999 264.83 37.5599" stroke="#1D1D1B" stroke-width="0.75" stroke-miterlimit="2"/>
<path d="M257.04 218.27C257.04 217.49 256.41 216.85 255.62 216.85C254.83 216.85 254.2 217.48 254.2 218.27C254.2 219.06 254.83 219.69 255.62 219.69C256.41 219.69 257.04 219.06 257.04 218.27Z" stroke="#1D1D1B" stroke-width="0.75" stroke-miterlimit="2"/>
<path d="M256.79 218.27C256.79 217.62 256.27 217.1 255.62 217.1C254.97 217.1 254.45 217.62 254.45 218.27C254.45 218.92 254.97 219.44 255.62 219.44C256.27 219.44 256.79 218.92 256.79 218.27Z" stroke="#1D1D1B" stroke-width="0.75" stroke-miterlimit="2"/>
<path d="M259.16 386.22H235.07" stroke="#1D1D1B" stroke-miterlimit="2"/>
<path d="M234.36 384.81V385.52" stroke="#1D1D1B" stroke-miterlimit="2"/>
<path d="M259.87 384.81V385.52" stroke="#1D1D1B" stroke-miterlimit="2"/>
<path d="M259.16 386.22C259.55 386.22 259.87 385.9 259.87 385.51" stroke="#1D1D1B" stroke-miterlimit="2"/>
<path d="M234.36 385.52C234.36 385.91 234.68 386.23 235.07 386.23" stroke="#1D1D1B" stroke-miterlimit="2"/>
<path d="M75.62 386.22H51.52" stroke="#1D1D1B" stroke-miterlimit="2"/>
<path d="M50.8101 384.81V385.52" stroke="#1D1D1B" stroke-miterlimit="2"/>
<path d="M76.3301 384.81V385.52" stroke="#1D1D1B" stroke-miterlimit="2"/>
<path d="M75.6201 386.22C76.0101 386.22 76.3301 385.9 76.3301 385.51" stroke="#1D1D1B" stroke-miterlimit="2"/>
<path d="M50.8101 385.52C50.8101 385.91 51.1301 386.23 51.5201 386.23" stroke="#1D1D1B" stroke-miterlimit="2"/>
<path d="M234.36 30.2599V29.5599" stroke="#1D1D1B" stroke-miterlimit="2"/>
<path d="M259.87 30.2599V29.5599" stroke="#1D1D1B" stroke-miterlimit="2"/>
<path d="M235.07 28.85H259.16" stroke="#1D1D1B" stroke-miterlimit="2"/>
<path d="M259.87 29.56C259.87 29.17 259.55 28.85 259.16 28.85" stroke="#1D1D1B" stroke-miterlimit="2"/>
<path d="M235.07 28.85C234.68 28.85 234.36 29.17 234.36 29.56" stroke="#1D1D1B" stroke-miterlimit="2"/>
<path d="M237.19 30.48V30.26" stroke="#1D1D1B" stroke-width="0.14" stroke-miterlimit="2"/>
<path d="M257.04 30.48V30.26" stroke="#1D1D1B" stroke-width="0.14" stroke-miterlimit="2"/>
<path d="M35.9302 384.81H262.7" stroke="#1D1D1B" stroke-miterlimit="2"/>
<path d="M28.8501 377.72V37.5601" stroke="#1D1D1B" stroke-miterlimit="2"/>
<path d="M269.79 377.72V37.5601" stroke="#1D1D1B" stroke-miterlimit="2"/>
<path d="M35.9302 30.48H262.7" stroke="#1D1D1B" stroke-miterlimit="2"/>
<path d="M28.8501 377.72C28.8501 381.63 32.0201 384.81 35.9401 384.81" stroke="#1D1D1B" stroke-miterlimit="2"/>
<path d="M35.9301 30.48C32.0201 30.48 28.8401 33.65 28.8401 37.57" stroke="#1D1D1B" stroke-miterlimit="2"/>
<path d="M269.79 37.56C269.79 33.65 266.62 30.47 262.7 30.47" stroke="#1D1D1B" stroke-miterlimit="2"/>
<path d="M262.7 384.81C266.61 384.81 269.79 381.64 269.79 377.72" stroke="#1D1D1B" stroke-miterlimit="2"/>
<path d="M259.87 30.26H234.36" stroke="#1D1D1B" stroke-width="0.14" stroke-miterlimit="2"/>
<path d="M50.8101 30.2599V29.5599" stroke="#1D1D1B" stroke-miterlimit="2"/>
<path d="M76.3301 30.2599V29.5599" stroke="#1D1D1B" stroke-miterlimit="2"/>
<path d="M51.52 28.85H75.62" stroke="#1D1D1B" stroke-miterlimit="2"/>
<path d="M76.3301 29.56C76.3301 29.17 76.0101 28.85 75.6201 28.85" stroke="#1D1D1B" stroke-miterlimit="2"/>
<path d="M51.5201 28.85C51.1301 28.85 50.8101 29.17 50.8101 29.56" stroke="#1D1D1B" stroke-miterlimit="2"/>
<path d="M53.6501 30.48V30.26" stroke="#1D1D1B" stroke-width="0.14" stroke-miterlimit="2"/>
<path d="M73.49 30.48V30.26" stroke="#1D1D1B" stroke-width="0.14" stroke-miterlimit="2"/>
<path d="M76.3301 30.26H50.8101" stroke="#1D1D1B" stroke-width="0.14" stroke-miterlimit="2"/>
<path d="M58.9602 252.64C58.9602 251.47 58.0102 250.51 56.8302 250.51C55.6502 250.51 54.7002 251.46 54.7002 252.64C54.7002 253.82 55.6502 254.77 56.8302 254.77C58.0102 254.77 58.9602 253.82 58.9602 252.64Z" stroke="#1D1D1B" stroke-width="0.75" stroke-miterlimit="2"/>
<path d="M72.78 252.64C72.78 251.47 71.83 250.51 70.65 250.51C69.47 250.51 68.52 251.46 68.52 252.64C68.52 253.82 69.47 254.77 70.65 254.77C71.83 254.77 72.78 253.82 72.78 252.64Z" stroke="#1D1D1B" stroke-width="0.75" stroke-miterlimit="2"/>
<path d="M53.4302 263.53V259.25" stroke="#1D1D1B" stroke-width="0.25" stroke-miterlimit="2" stroke-linecap="round"/>
<path d="M53.8801 259.7V263.08" stroke="#1D1D1B" stroke-width="0.25" stroke-miterlimit="2" stroke-linecap="round"/>
<path d="M54.3901 261.58V261.13" stroke="#1D1D1B" stroke-width="0.25" stroke-miterlimit="2" stroke-linecap="round"/>
<path d="M54.5701 259.25V258.88" stroke="#1D1D1B" stroke-width="0.25" stroke-miterlimit="2" stroke-linecap="round"/>
<path d="M54.9602 262.16V261.58" stroke="#1D1D1B" stroke-width="0.25" stroke-miterlimit="2" stroke-linecap="round"/>
<path d="M54.9602 261.13V260.56" stroke="#1D1D1B" stroke-width="0.25" stroke-miterlimit="2" stroke-linecap="round"/>
<path d="M55.4102 260.56V261.13" stroke="#1D1D1B" stroke-width="0.25" stroke-miterlimit="2" stroke-linecap="round"/>
<path d="M55.4102 261.58V262.16" stroke="#1D1D1B" stroke-width="0.25" stroke-miterlimit="2" stroke-linecap="round"/>
<path d="M55.8401 258.88V259.25" stroke="#1D1D1B" stroke-width="0.25" stroke-miterlimit="2" stroke-linecap="round"/>
<path d="M55.98 261.13V261.58" stroke="#1D1D1B" stroke-width="0.25" stroke-miterlimit="2" stroke-linecap="round"/>
<path d="M69.2002 259.32L70.6402 263.53" stroke="#1D1D1B" stroke-width="0.25" stroke-miterlimit="2"/>
<path d="M69.4901 261.78L68.8601 259.91" stroke="#1D1D1B" stroke-width="0.25" stroke-miterlimit="2" stroke-linecap="round"/>
<path d="M70.0601 263.53L69.6101 262.21" stroke="#1D1D1B" stroke-width="0.25" stroke-miterlimit="2"/>
<path d="M57.6702 261.58V261.13" stroke="#1D1D1B" stroke-width="0.25" stroke-miterlimit="2" stroke-linecap="round"/>
<path d="M57.78 259.25V258.88" stroke="#1D1D1B" stroke-width="0.25" stroke-miterlimit="2" stroke-linecap="round"/>
<path d="M59.1201 258.88V259.25" stroke="#1D1D1B" stroke-width="0.25" stroke-miterlimit="2" stroke-linecap="round"/>
<path d="M59.27 261.13V261.58" stroke="#1D1D1B" stroke-width="0.25" stroke-miterlimit="2" stroke-linecap="round"/>
<path d="M59.8101 263.08V259.7" stroke="#1D1D1B" stroke-width="0.25" stroke-miterlimit="2" stroke-linecap="round"/>
<path d="M60.26 259.25V263.53" stroke="#1D1D1B" stroke-width="0.25" stroke-miterlimit="2" stroke-linecap="round"/>
<path d="M70.6401 263.53H70.0601" stroke="#1D1D1B" stroke-width="0.25" stroke-miterlimit="2" stroke-linecap="round"/>
<path d="M67.6801 263.53H67.1101" stroke="#1D1D1B" stroke-width="0.25" stroke-miterlimit="2" stroke-linecap="round"/>
<path d="M60.2602 263.53H53.4302" stroke="#1D1D1B" stroke-width="0.25" stroke-miterlimit="2" stroke-linecap="round"/>
<path d="M53.8801 263.08H59.8101" stroke="#1D1D1B" stroke-width="0.25" stroke-miterlimit="2" stroke-linecap="round"/>
<path d="M69.6101 262.21H68.1101" stroke="#1D1D1B" stroke-width="0.25" stroke-miterlimit="2" stroke-linecap="round"/>
<path d="M55.4102 262.16H54.9602" stroke="#1D1D1B" stroke-width="0.25" stroke-miterlimit="2" stroke-linecap="round"/>
<path d="M68.22 261.78H69.49" stroke="#1D1D1B" stroke-width="0.25" stroke-miterlimit="2"/>
<path d="M59.2702 261.58H57.6702" stroke="#1D1D1B" stroke-width="0.25" stroke-miterlimit="2" stroke-linecap="round"/>
<path d="M55.9802 261.58H55.4102" stroke="#1D1D1B" stroke-width="0.25" stroke-miterlimit="2" stroke-linecap="round"/>
<path d="M54.9601 261.58H54.3901" stroke="#1D1D1B" stroke-width="0.25" stroke-miterlimit="2" stroke-linecap="round"/>
<path d="M54.3901 261.13H54.9601" stroke="#1D1D1B" stroke-width="0.25" stroke-miterlimit="2" stroke-linecap="round"/>
<path d="M55.4102 261.13H55.9802" stroke="#1D1D1B" stroke-width="0.25" stroke-miterlimit="2" stroke-linecap="round"/>
<path d="M57.6702 261.13H59.2702" stroke="#1D1D1B" stroke-width="0.25" stroke-miterlimit="2" stroke-linecap="round"/>
<path d="M54.9602 260.56H55.4102" stroke="#1D1D1B" stroke-width="0.25" stroke-miterlimit="2" stroke-linecap="round"/>
<path d="M59.8101 259.7H53.8801" stroke="#1D1D1B" stroke-width="0.25" stroke-miterlimit="2" stroke-linecap="round"/>
<path d="M68.54 259.32H69.2" stroke="#1D1D1B" stroke-width="0.25" stroke-miterlimit="2" stroke-linecap="round"/>
<path d="M53.4302 259.25H54.5702" stroke="#1D1D1B" stroke-width="0.25" stroke-miterlimit="2" stroke-linecap="round"/>
<path d="M55.8401 259.25H57.7801" stroke="#1D1D1B" stroke-width="0.25" stroke-miterlimit="2" stroke-linecap="round"/>
<path d="M59.1201 259.25H60.2601" stroke="#1D1D1B" stroke-width="0.25" stroke-miterlimit="2" stroke-linecap="round"/>
<path d="M54.5701 258.88H55.8401" stroke="#1D1D1B" stroke-width="0.25" stroke-miterlimit="2" stroke-linecap="round"/>
<path d="M57.78 258.88H59.12" stroke="#1D1D1B" stroke-width="0.25" stroke-miterlimit="2" stroke-linecap="round"/>
<path d="M73.99 262.96L74.11 263.39" stroke="#1D1D1B" stroke-width="0.25" stroke-miterlimit="2" stroke-linecap="round"/>
<path d="M74.11 259.44L73.98 259.88" stroke="#1D1D1B" stroke-width="0.25" stroke-miterlimit="2" stroke-linecap="round"/>
<path d="M68.1102 262.21L67.6802 263.53" stroke="#1D1D1B" stroke-width="0.25" stroke-miterlimit="2"/>
<path d="M68.86 259.91L68.22 261.78" stroke="#1D1D1B" stroke-width="0.25" stroke-miterlimit="2" stroke-linecap="round"/>
<path d="M67.1101 263.53L68.5401 259.32" stroke="#1D1D1B" stroke-width="0.25" stroke-miterlimit="2"/>
<path d="M72.99 263.59H73.07H73.16L73.25 263.58H73.33L73.42 263.57L73.5 263.56L73.58 263.54L73.67 263.53L73.74 263.52L73.8 263.5L73.86 263.48L73.92 263.47L73.97 263.45L74.02 263.43L74.06 263.41L74.11 263.39" stroke="#1D1D1B" stroke-width="0.25" stroke-miterlimit="2"/>
<path d="M73.99 262.96L73.94 262.99L73.88 263.01L73.81 263.03L73.74 263.05L73.66 263.07L73.59 263.09L73.5 263.1L73.41 263.12H73.35L73.28 263.13H73.19L73.11 263.14H73.07L72.98 263.13H72.9L72.82 263.12L72.74 263.11L72.7 263.1L72.62 263.08L72.55 263.06L72.49 263.04L72.42 263.02L72.35 262.99L72.29 262.96L72.23 262.92L72.17 262.89L72.11 262.85L72.06 262.81L72.01 262.77L71.96 262.72L71.91 262.68L71.87 262.63L71.83 262.58L71.79 262.52L71.75 262.47L71.73 262.43L71.7 262.37L71.66 262.31L71.63 262.24L71.61 262.17L71.6 262.14L71.57 262.07L71.55 262L71.53 261.92L71.52 261.84L71.51 261.81L71.5 261.73V261.64L71.49 261.63V261.54V261.45V261.44V261.42V261.33L71.5 261.24V261.22L71.51 261.13L71.52 261.05V261.01L71.54 260.93L71.56 260.85L71.58 260.78L71.61 260.7L71.62 260.67L71.65 260.6L71.68 260.53L71.71 260.47L71.75 260.41L71.77 260.37L71.81 260.31L71.85 260.26L71.89 260.21L71.94 260.16L71.99 260.11L72.04 260.07L72.09 260.03L72.15 259.99L72.2 259.95L72.26 259.91L72.33 259.88L72.39 259.85H72.4" stroke="#1D1D1B" stroke-width="0.25" stroke-miterlimit="2"/>
<path d="M74.1101 259.44L74.0701 259.42L74.0201 259.4L73.9801 259.38L73.9301 259.36L73.8701 259.34L73.8201 259.33L73.7601 259.31L73.7001 259.3L73.6301 259.29L73.5601 259.28L73.4801 259.27H73.4701H73.4501L73.3601 259.26L73.2801 259.25H73.2001H73.1101" stroke="#1D1D1B" stroke-width="0.25" stroke-miterlimit="2"/>
<path d="M73.1102 259.25H73.0702H72.9602L72.8602 259.26L72.7602 259.27L72.6702 259.29L72.5702 259.3L72.4802 259.33L72.3902 259.35L72.3002 259.38L72.2202 259.41L72.1802 259.42L72.1002 259.46L72.0201 259.5L71.9402 259.54L71.8602 259.59L71.7902 259.64L71.7202 259.69L71.6502 259.74L71.5802 259.8L71.5201 259.86L71.4602 259.92L71.4102 259.99L71.3502 260.06L71.3002 260.13L71.2602 260.18L71.2202 260.26L71.1702 260.34L71.1301 260.42L71.1002 260.5L71.0702 260.56L71.0402 260.65L71.0102 260.73L70.9902 260.83L70.9702 260.92L70.9501 260.99L70.9402 261.08L70.9302 261.18L70.9202 261.22V261.32L70.9102 261.43V261.46V261.5L70.9202 261.61V261.71L70.9302 261.75L70.9402 261.85L70.9501 261.95L70.9702 262.02L70.9902 262.12L71.0102 262.21L71.0402 262.29L71.0702 262.38L71.1002 262.44L71.1301 262.52L71.1702 262.6L71.2102 262.67L71.2602 262.74L71.2902 262.79L71.3401 262.86L71.4002 262.93L71.4501 262.99L71.5102 263.04L71.5702 263.1L71.6301 263.15L71.7001 263.2L71.7701 263.25L71.8401 263.3L71.9202 263.34L71.9902 263.38L72.0702 263.42L72.1502 263.45H72.1702L72.2502 263.48L72.3401 263.51L72.4302 263.53L72.5201 263.55L72.6102 263.57L72.7102 263.58L72.8102 263.59H72.9102H72.9902" stroke="#1D1D1B" stroke-width="0.25" stroke-miterlimit="2"/>
<path d="M62.1602 209.1V211.45" stroke="#9D9D9C" stroke-width="0.73" stroke-miterlimit="2" stroke-linecap="round"/>
<path d="M75.05 200.79V198.5" stroke="#9D9D9C" stroke-width="0.75" stroke-miterlimit="2" stroke-linecap="round"/>
<path d="M78.3 197.68V207.5" stroke="#9D9D9C" stroke-width="0.75" stroke-miterlimit="2"/>
<path d="M88.8301 197.68V207.44" stroke="#9D9D9C" stroke-width="0.75" stroke-miterlimit="2"/>
<path d="M81.5601 207.45V197.68" stroke="#9D9D9C" stroke-width="0.75" stroke-miterlimit="2"/>
<path d="M92.1001 207.5V197.68" stroke="#9D9D9C" stroke-width="0.75" stroke-miterlimit="2"/>
<path d="M95.3601 205.28V213.19" stroke="#9D9D9C" stroke-width="0.75" stroke-miterlimit="2"/>
<path d="M98.8301 213.19V205.29" stroke="#9D9D9C" stroke-width="0.75" stroke-miterlimit="2"/>
<path d="M100.09 205.37V208.38" stroke="#9D9D9C" stroke-width="0.75" stroke-miterlimit="2"/>
<path d="M75.0503 198.54L75.0203 198.5" stroke="#9D9D9C" stroke-width="0.75" stroke-miterlimit="2"/>
<path d="M113.34 202.98V213.19" stroke="#9D9D9C" stroke-width="0.75" stroke-miterlimit="2"/>
<path d="M116.75 213.19V203.2" stroke="#9D9D9C" stroke-width="0.75" stroke-miterlimit="2"/>
<path d="M122.53 200.54V197.17" stroke="#9D9D9C" stroke-width="0.73" stroke-miterlimit="2"/>
<path d="M128.4 203.78V206.44" stroke="#9D9D9C" stroke-width="0.75" stroke-miterlimit="2"/>
<path d="M138.4 209.49L138.16 209.55" stroke="#9D9D9C" stroke-width="0.75" stroke-miterlimit="2"/>
<path d="M165.88 200.93L166.11 200.88" stroke="#9D9D9C" stroke-width="0.75" stroke-miterlimit="2"/>
<path d="M67.8701 213.41H68.5301" stroke="#9D9D9C" stroke-width="0.75" stroke-miterlimit="2"/>
<path d="M131.48 213.41H131.9" stroke="#9D9D9C" stroke-width="0.75" stroke-miterlimit="2"/>
<path d="M83.1401 213.36H87.4301" stroke="#9D9D9C" stroke-width="0.75" stroke-miterlimit="2"/>
<path d="M94.9802 213.19H99.2102" stroke="#9D9D9C" stroke-width="0.75" stroke-miterlimit="2"/>
<path d="M112.96 213.19H117.11" stroke="#9D9D9C" stroke-width="0.75" stroke-miterlimit="2"/>
<path d="M141.61 213.19H145.45" stroke="#9D9D9C" stroke-width="0.75" stroke-miterlimit="2"/>
<path d="M150.24 213.19H154.18" stroke="#9D9D9C" stroke-width="0.75" stroke-miterlimit="2"/>
<path d="M158.97 213.19H162.82" stroke="#9D9D9C" stroke-width="0.75" stroke-miterlimit="2"/>
<path d="M68.4802 210.55H67.7502" stroke="#9D9D9C" stroke-width="0.75" stroke-miterlimit="2"/>
<path d="M132.44 210.41H131.77" stroke="#9D9D9C" stroke-width="0.75" stroke-miterlimit="2"/>
<path d="M86.5201 210.13H83.9102" stroke="#9D9D9C" stroke-width="0.75" stroke-miterlimit="2"/>
<path d="M170.21 206.24H175.97" stroke="#9D9D9C" stroke-width="0.75" stroke-miterlimit="2"/>
<path d="M105.57 205.74H100.09" stroke="#9D9D9C" stroke-width="0.75" stroke-miterlimit="2"/>
<path d="M133.89 204.15H128.4" stroke="#9D9D9C" stroke-width="0.75" stroke-miterlimit="2"/>
<path d="M171.11 210.37L170.75 210.35" stroke="#9D9D9C" stroke-width="0.75" stroke-miterlimit="2"/>
<path d="M70.6901 203.48L67.1301 203.04" stroke="#9D9D9C" stroke-width="0.75" stroke-miterlimit="2"/>
<path d="M67.4202 206.34L69.0002 206.57" stroke="#9D9D9C" stroke-width="0.75" stroke-miterlimit="2"/>
<path d="M100.09 208.03L100.25 208.05" stroke="#9D9D9C" stroke-width="0.75" stroke-miterlimit="2"/>
<path d="M74.8101 200.72L75.0501 200.79" stroke="#9D9D9C" stroke-width="0.75" stroke-miterlimit="2"/>
<path d="M138.4 211.44V209.49" stroke="#9D9D9C" stroke-width="0.75" stroke-linecap="round" stroke-linejoin="round"/>
<path d="M141.98 203.1V213.19" stroke="#9D9D9C" stroke-width="0.75" stroke-miterlimit="2"/>
<path d="M145.08 213.19V203.1" stroke="#9D9D9C" stroke-width="0.75" stroke-miterlimit="2"/>
<path d="M150.62 203.1V213.19" stroke="#9D9D9C" stroke-width="0.75" stroke-miterlimit="2"/>
<path d="M153.81 213.19V203.1" stroke="#9D9D9C" stroke-width="0.75" stroke-miterlimit="2"/>
<path d="M119.4 200.16H122.53" stroke="#9D9D9C" stroke-width="0.75" stroke-miterlimit="2"/>
<path d="M68.8301 199.95H69.5601" stroke="#9D9D9C" stroke-width="0.75" stroke-miterlimit="2"/>
<path d="M102.93 199.95H103.71" stroke="#9D9D9C" stroke-width="0.75" stroke-miterlimit="2"/>
<path d="M131.24 199.95H132.02" stroke="#9D9D9C" stroke-width="0.75" stroke-miterlimit="2"/>
<path d="M92.4802 197.68H88.4502" stroke="#9D9D9C" stroke-width="0.75" stroke-miterlimit="2"/>
<path d="M81.9302 197.68H77.9202" stroke="#9D9D9C" stroke-width="0.75" stroke-miterlimit="2"/>
<path d="M157.55 197.27H155.65" stroke="#9D9D9C" stroke-width="0.75" stroke-miterlimit="2"/>
<path d="M148.8 197.27H147.04" stroke="#9D9D9C" stroke-width="0.75" stroke-miterlimit="2"/>
<path d="M132.32 197.01H131.84" stroke="#9D9D9C" stroke-width="0.75" stroke-miterlimit="2"/>
<path d="M104.01 197.01H103.53" stroke="#9D9D9C" stroke-width="0.75" stroke-miterlimit="2"/>
<path d="M69.4402 197.01H68.7202" stroke="#9D9D9C" stroke-width="0.75" stroke-miterlimit="2"/>
<path d="M175.97 204.33L175.85 204.29" stroke="#9D9D9C" stroke-width="0.75" stroke-miterlimit="2"/>
<path d="M159.34 203.1V213.19" stroke="#9D9D9C" stroke-width="0.75" stroke-miterlimit="2"/>
<path d="M162.46 213.19V203.1" stroke="#9D9D9C" stroke-width="0.75" stroke-miterlimit="2"/>
<path d="M165.88 199.03V200.93" stroke="#9D9D9C" stroke-width="0.75" stroke-miterlimit="2" stroke-linecap="round"/>
<path d="M175.97 206.24V204.33" stroke="#9D9D9C" stroke-width="0.75" stroke-miterlimit="2" stroke-linecap="round"/>
<path d="M180.62 205.17V204.93L180.61 204.43L180.59 203.96L180.55 203.53L180.51 203.12L180.46 202.73L180.39 202.36L180.32 202.01L180.24 201.67L180.14 201.35L180.04 201.04L179.98 200.87L179.86 200.59L179.74 200.33L179.61 200.08L179.48 199.84L179.34 199.62L179.26 199.5L179.1 199.29L178.93 199.09L178.75 198.91L178.57 198.73L178.38 198.56L178.18 198.41L177.97 198.26L177.74 198.12L177.51 197.98L177.26 197.86L177.18 197.82L176.92 197.71L176.64 197.6L176.35 197.51L176.04 197.42L175.76 197.35L175.41 197.28L175.04 197.21L174.96 197.2L174.56 197.15L174.13 197.11L174.12 197.1L173.65 197.07L173.22 197.05L172.76 197.04L172.28 197.03L171.8 197.04L171.33 197.05L170.98 197.07L170.48 197.1L170.16 197.13L169.72 197.18L169.44 197.22L169.04 197.29L168.93 197.31L168.57 197.38L168.23 197.46L167.92 197.55L167.86 197.57L167.58 197.67L167.32 197.77L167.09 197.87L167.06 197.89L166.85 198L166.67 198.1L166.5 198.21L166.39 198.3L166.26 198.42L166.13 198.54L166.06 198.63L165.99 198.72L165.94 198.8L165.91 198.88L165.89 198.96L165.88 199.03" stroke="#9D9D9C" stroke-width="0.75" stroke-miterlimit="2"/>
<path d="M172.47 213.43L172.78 213.45L173.11 213.46H173.44H173.75L174.06 213.44L174.36 213.42L174.42 213.41L174.71 213.38L174.99 213.34L175.26 213.29L175.52 213.23L175.78 213.17L176.03 213.1L176.13 213.07L176.36 212.98L176.6 212.89L176.82 212.8L177.04 212.69L177.25 212.58L177.46 212.47L177.51 212.44L177.7 212.31L177.89 212.18L178.08 212.04L178.26 211.89L178.43 211.73L178.6 211.57L178.64 211.53L178.8 211.36L178.95 211.18L179.05 211.06L179.19 210.87L179.33 210.67L179.4 210.57L179.53 210.36L179.65 210.14L179.77 209.92L179.88 209.69L179.94 209.54L180.04 209.3L180.14 209.04L180.22 208.78L180.3 208.51V208.5L180.38 208.22L180.44 207.94L180.5 207.65L180.52 207.51L180.56 207.21L180.6 206.9L180.62 206.59L180.64 206.28L180.65 205.96V205.9V205.63L180.64 205.39L180.62 205.17" stroke="#9D9D9C" stroke-width="0.75" stroke-miterlimit="2"/>
<path d="M165.22 207.76V207.84L165.23 208.07L165.24 208.3L165.26 208.52L165.29 208.73L165.32 208.94L165.34 209.04L165.38 209.24L165.43 209.44L165.49 209.62L165.55 209.81L165.61 209.98L165.66 210.09L165.73 210.26L165.82 210.43L165.91 210.59L166 210.75L166.1 210.91L166.21 211.05L166.32 211.2L166.42 211.32L166.54 211.46L166.67 211.59L166.78 211.69L166.92 211.82L167.07 211.94L167.19 212.04L167.35 212.15L167.52 212.27L167.62 212.33L167.8 212.44L167.98 212.54L168.18 212.63L168.38 212.73L168.53 212.79L168.75 212.88L168.97 212.96L169.19 213.03L169.43 213.1L169.47 213.11L169.71 213.17L169.96 213.23L170.22 213.28L170.36 213.3L170.62 213.34L170.89 213.37L171.17 213.4L171.45 213.42L171.74 213.43L171.81 213.44H171.84H172.07H172.28L172.47 213.43" stroke="#9D9D9C" stroke-width="0.75" stroke-miterlimit="2"/>
<path d="M171.63 203.61H171.59H171.26L170.95 203.62L170.66 203.63L170.38 203.65L170.11 203.68L169.85 203.71L169.61 203.74L169.37 203.78L169.14 203.82L168.91 203.87L168.7 203.92L168.48 203.98L168.28 204.04L168.09 204.1L167.9 204.17L167.72 204.24L167.55 204.31L167.39 204.39L167.23 204.47L167.08 204.55L166.94 204.64L166.81 204.73L166.68 204.82L166.56 204.91L166.45 205L166.34 205.1L166.23 205.21L166.13 205.32L166.11 205.34L166.01 205.45L165.92 205.57L165.84 205.69L165.76 205.81L165.68 205.94L165.61 206.07L165.55 206.2L165.49 206.33L165.44 206.46L165.39 206.59L165.35 206.73L165.32 206.87L165.29 207.02L165.26 207.17L165.25 207.32L165.23 207.48L165.22 207.64V207.76" stroke="#9D9D9C" stroke-width="0.75" stroke-miterlimit="2"/>
<path d="M175.85 204.29L175.75 204.26L175.65 204.23L175.54 204.2L175.42 204.17L175.28 204.14L175.12 204.1L174.97 204.07L174.68 204.02L174.33 203.96L174 203.9L173.7 203.85L173.4 203.81L173.06 203.76L172.66 203.7L172.45 203.68L172.27 203.66L172.11 203.64L171.97 203.62H171.85L171.74 203.61H171.63" stroke="#9D9D9C" stroke-width="0.75" stroke-miterlimit="2"/>
<path d="M168.79 207.91V207.84V207.76L168.8 207.68L168.81 207.61V207.54L168.82 207.46L168.84 207.4L168.85 207.33V207.31L168.87 207.24L168.88 207.18L168.9 207.13L168.92 207.07L168.94 207.02L168.96 206.97L168.99 206.92L169.01 206.87L169.03 206.83L169.06 206.79L169.09 206.75L169.12 206.71L169.15 206.67L169.19 206.63L169.22 206.59L169.26 206.56L169.29 206.53L169.33 206.5L169.37 206.47L169.41 206.44L169.45 206.42L169.49 206.39L169.54 206.37L169.58 206.35L169.63 206.33L169.68 206.32L169.73 206.3L169.78 206.29L169.83 206.28L169.89 206.27L169.94 206.26L170 206.25L170.07 206.24H170.13H170.2H170.21" stroke="#9D9D9C" stroke-width="0.75" stroke-miterlimit="2"/>
<path d="M170.75 210.35H170.71L170.61 210.34L170.52 210.33L170.43 210.32L170.35 210.31L170.26 210.29L170.19 210.27L170.11 210.26L170.04 210.23L169.97 210.21L169.91 210.19L169.85 210.16L169.79 210.14L169.73 210.11L169.67 210.08L169.62 210.04L169.57 210.01L169.52 209.97L169.46 209.94L169.42 209.9L169.37 209.85L169.32 209.81L169.28 209.76L169.25 209.73L169.21 209.68L169.17 209.63L169.13 209.58L169.1 209.52L169.07 209.47L169.04 209.42L169.01 209.36L168.98 209.3L168.96 209.24L168.94 209.18L168.91 209.11L168.89 209.04L168.88 208.97L168.86 208.89L168.85 208.81L168.83 208.73L168.82 208.64L168.81 208.55L168.8 208.45V208.34L168.79 208.22V208.09V207.92V207.91" stroke="#9D9D9C" stroke-width="0.75" stroke-miterlimit="2"/>
<path d="M176.21 209.56L176.15 209.63L176.09 209.69L176.03 209.74L175.96 209.8L175.88 209.85L175.81 209.91L175.72 209.95L175.64 210L175.55 210.05L175.45 210.09L175.35 210.13L175.24 210.17L175.13 210.21L175.01 210.24L174.89 210.27L174.75 210.3L174.61 210.33L174.46 210.35L174.3 210.38L174.13 210.4L174.04 210.41L173.84 210.42L173.64 210.44L173.43 210.45H173.22H173H172.76H172.51L172.23 210.44L171.91 210.42L171.5 210.4L171.11 210.37" stroke="#9D9D9C" stroke-width="0.75" stroke-miterlimit="2"/>
<path d="M177.14 205.26V205.37V205.64L177.13 205.9L177.12 206.15L177.11 206.39L177.09 206.62L177.07 206.85L177.05 207.06L177.03 207.28L177.01 207.4L176.99 207.57L176.96 207.73L176.94 207.89L176.91 208.03L176.88 208.16L176.84 208.29L176.81 208.42L176.77 208.54L176.73 208.65L176.69 208.75L176.65 208.86L176.61 208.95L176.56 209.04L176.52 209.13L176.47 209.21L176.42 209.29L176.37 209.36L176.32 209.43L176.27 209.5L176.21 209.56" stroke="#9D9D9C" stroke-width="0.75" stroke-miterlimit="2"/>
<path d="M175.89 200.78L175.97 200.86L176.05 200.95L176.12 201.02L176.19 201.1L176.25 201.17L176.31 201.25L176.36 201.33L176.41 201.41L176.47 201.5L176.52 201.59L176.56 201.69L176.61 201.79L176.66 201.9L176.7 202.02L176.74 202.14L176.78 202.27L176.82 202.4L176.85 202.49L176.89 202.64L176.92 202.8L176.96 202.96L176.99 203.13L177.02 203.3L177.04 203.47L177.06 203.66L177.08 203.85L177.1 204.04L177.11 204.25L177.12 204.47L177.13 204.7L177.14 204.95V205.22V205.26" stroke="#9D9D9C" stroke-width="0.75" stroke-miterlimit="2"/>
<path d="M166.11 200.88L166.25 200.85L166.88 200.72L167.48 200.6L168.05 200.49L168.59 200.4L169.12 200.31L169.64 200.24L170.01 200.19L170.47 200.14L170.9 200.09L171.32 200.06L171.72 200.03L172.11 200.02L172.48 200.01H172.53H172.85H173.15L173.42 200.03L173.67 200.05L173.91 200.07L174.15 200.11L174.37 200.15L174.59 200.19L174.75 200.23L174.93 200.28L175.09 200.33L175.23 200.38L175.36 200.44L175.48 200.5L175.6 200.57L175.7 200.64L175.8 200.71L175.89 200.78" stroke="#9D9D9C" stroke-width="0.75" stroke-miterlimit="2"/>
<path d="M69.5601 199.95H69.7601L70.0301 199.96H70.2901L70.5601 199.98L70.8201 199.99L71.0801 200.02L71.3401 200.04L71.6101 200.07L71.8801 200.11L72.1601 200.15L72.4401 200.19L72.7301 200.24L73.0201 200.3L73.3201 200.36L73.6201 200.42L73.9301 200.5L74.2401 200.57L74.5601 200.66L74.8101 200.72" stroke="#9D9D9C" stroke-width="0.75" stroke-miterlimit="2"/>
<path d="M75.0202 198.5L75.0002 198.47L74.9802 198.43L74.9402 198.39L74.9102 198.35L74.8602 198.31L74.8102 198.27L74.7302 198.22L74.6402 198.16L74.5502 198.11L74.4402 198.05L74.4002 198.03L74.2602 197.96L74.1102 197.89L73.9602 197.83L73.8002 197.77L73.6302 197.7L73.4402 197.64L73.2402 197.58L73.1002 197.54L72.8702 197.47L72.6302 197.41L72.3802 197.35L72.1402 197.3L71.8902 197.25L71.6402 197.2L71.3902 197.16H71.3802H71.3702L71.1202 197.12L70.8702 197.09L70.6202 197.07L70.3802 197.05L70.1402 197.03L69.9102 197.02L69.6702 197.01H69.4402" stroke="#9D9D9C" stroke-width="0.75" stroke-miterlimit="2"/>
<path d="M68.7202 197.01H68.5102L68.1802 197.02L67.8802 197.03L67.5802 197.05L67.3102 197.07L67.0402 197.1L66.7802 197.13L66.5302 197.17L66.2902 197.21L66.0602 197.26L65.8302 197.32L65.6402 197.37L65.4302 197.43L65.2302 197.5L65.0402 197.56L64.8602 197.64L64.6802 197.71L64.5102 197.79L64.3502 197.88L64.2002 197.97L64.0602 198.06L63.9202 198.15L63.7802 198.25L63.7502 198.27L63.6202 198.38L63.5002 198.48L63.3802 198.6L63.2702 198.71L63.1702 198.83L63.0702 198.95L62.9802 199.08L62.8902 199.21L62.8002 199.34L62.7202 199.48L62.6502 199.62L62.5802 199.77L62.5602 199.81L62.5002 199.96L62.4402 200.12L62.3902 200.29L62.3402 200.46L62.3002 200.63L62.2602 200.81L62.2302 201L62.2102 201.2L62.1802 201.4L62.1702 201.6L62.1602 201.82V202.01" stroke="#9D9D9C" stroke-width="0.75" stroke-miterlimit="2"/>
<path d="M62.1602 202.01V202.02V202.19L62.1702 202.35L62.1802 202.51L62.2002 202.67L62.2202 202.83L62.2502 202.97L62.2802 203.12L62.3202 203.26L62.3602 203.39L62.4102 203.52L62.4502 203.65L62.5102 203.77L62.5602 203.89L62.6202 204L62.6902 204.11L62.7602 204.22L62.8302 204.32L62.9102 204.43L63.0002 204.53L63.0902 204.63L63.1902 204.73L63.3002 204.83L63.4002 204.93L63.5202 205.02L63.6402 205.11L63.7602 205.2L63.8302 205.24L63.9602 205.32L64.1002 205.4L64.2402 205.48L64.3902 205.55L64.5502 205.62L64.7102 205.69L64.8802 205.75L65.0702 205.82L65.2602 205.88L65.4802 205.94L65.5202 205.95L65.7602 206.02L66.0102 206.08L66.2702 206.14L66.5502 206.19L66.8502 206.25L67.1902 206.31L67.4202 206.34" stroke="#9D9D9C" stroke-width="0.75" stroke-miterlimit="2"/>
<path d="M69.0002 206.57L69.0702 206.58L69.2902 206.6L69.5202 206.63L69.7402 206.66L69.9602 206.7L70.1902 206.73L70.4202 206.76L70.5202 206.78L70.6202 206.8L70.7202 206.81L70.8002 206.83L70.8702 206.85L70.9402 206.87L71.0102 206.89L71.0702 206.91L71.1202 206.93L71.1802 206.95L71.2302 206.97" stroke="#9D9D9C" stroke-width="0.75" stroke-miterlimit="2"/>
<path d="M71.2302 206.97L71.3002 207L71.4002 207.04L71.4802 207.08L71.5502 207.11L71.6202 207.14L71.6702 207.17L71.7202 207.2L71.7702 207.23L71.8102 207.26L71.8502 207.29L71.8902 207.32L71.9302 207.35L71.9602 207.38L71.9902 207.41L72.0102 207.44L72.0402 207.47L72.0602 207.51L72.0802 207.54L72.1102 207.58L72.1302 207.62L72.1502 207.66L72.1602 207.71L72.1802 207.76L72.2002 207.81L72.2102 207.86L72.2302 207.92L72.2402 207.98L72.2502 208.04L72.2602 208.11L72.2702 208.18V208.25L72.2802 208.33V208.42V208.51V208.56" stroke="#9D9D9C" stroke-width="0.75" stroke-miterlimit="2"/>
<path d="M72.2802 208.56V208.57V208.68V208.78L72.2702 208.88L72.2602 208.97L72.2402 209.06L72.2302 209.14L72.2102 209.22L72.1902 209.3L72.1702 209.37L72.1402 209.44L72.1102 209.51L72.0802 209.57L72.0502 209.63L72.0202 209.68L71.9802 209.74L71.9502 209.78L71.9002 209.83L71.8602 209.88L71.8102 209.93L71.7602 209.98L71.7102 210.02L71.6502 210.06L71.5902 210.1L71.5302 210.14L71.4602 210.17L71.3902 210.21L71.3502 210.23L71.2702 210.26L71.1902 210.29L71.1002 210.32L71.0002 210.35L70.9002 210.37L70.8202 210.39L70.7002 210.41L70.5802 210.44L70.4402 210.46L70.3002 210.47L70.1602 210.49L69.9902 210.5L69.8002 210.52L69.6002 210.53L69.3902 210.54H69.1502L68.8802 210.55H68.5502H68.4802" stroke="#9D9D9C" stroke-width="0.75" stroke-miterlimit="2"/>
<path d="M67.7502 210.55L67.5502 210.54H67.3502L67.1502 210.52L66.9402 210.51L66.7202 210.48L66.5002 210.46L66.2802 210.42L66.0502 210.38L65.8102 210.34L65.5702 210.28L65.3302 210.23L65.1702 210.19L64.9102 210.12L64.6502 210.04L64.3802 209.96L64.1102 209.87L63.8402 209.78L63.5602 209.68L63.2902 209.57L63.0002 209.46L62.7102 209.34L62.4202 209.21L62.2402 209.13" stroke="#9D9D9C" stroke-width="0.75" stroke-miterlimit="2" stroke-linecap="round"/>
<path d="M62.1602 211.39V211.44L62.1702 211.49L62.1802 211.54L62.2002 211.59L62.2202 211.64L62.2502 211.69L62.2802 211.74L62.3202 211.8L62.3702 211.85L62.4302 211.91L62.4902 211.97L62.5602 212.03L62.6302 212.08L62.7202 212.15L62.8202 212.22L62.9302 212.29L63.0402 212.35L63.1602 212.42H63.1702L63.3102 212.49L63.4702 212.57L63.6302 212.64L63.8102 212.71L63.8802 212.73L64.0702 212.8L64.2602 212.87L64.4602 212.93L64.6702 212.99L64.8802 213.05L65.0902 213.1L65.3202 213.15L65.5502 213.19L65.7002 213.22L65.9102 213.26L66.1602 213.29L66.4002 213.32L66.6502 213.35L66.8902 213.37L67.1402 213.39L67.3802 213.4L67.6302 213.41H67.8702" stroke="#9D9D9C" stroke-width="0.75" stroke-miterlimit="2"/>
<path d="M68.5303 213.41H68.6803L69.0603 213.4L69.4203 213.39L69.7503 213.38L70.0703 213.35L70.3703 213.32L70.6703 213.29L70.9503 213.25L71.2203 213.2L71.4903 213.15L71.7403 213.1L71.9403 213.05L72.1803 212.98L72.4003 212.91L72.6103 212.84L72.8103 212.77L73.0103 212.69L73.1903 212.61L73.3703 212.52L73.5403 212.43L73.7003 212.33L73.8503 212.24L73.9903 212.14L74.0303 212.11L74.1703 212L74.3103 211.89L74.4303 211.77L74.5503 211.65L74.6703 211.53L74.7703 211.41L74.8703 211.28L74.9703 211.14L75.0603 211L75.1503 210.86L75.2303 210.71L75.3003 210.55L75.3203 210.51L75.3903 210.35L75.4503 210.18L75.5103 210.01L75.5603 209.83L75.6003 209.65L75.6403 209.46L75.6803 209.26L75.7103 209.06L75.7303 208.84L75.7503 208.63L75.7603 208.4V208.18" stroke="#9D9D9C" stroke-width="0.75" stroke-miterlimit="2"/>
<path d="M75.7602 208.18V208.06L75.7502 207.88L75.7402 207.7L75.7202 207.52L75.7002 207.35L75.6802 207.18L75.6502 207.02L75.6102 206.87L75.5702 206.72L75.5302 206.58L75.4802 206.44L75.4302 206.3L75.3802 206.17L75.3202 206.05L75.2502 205.93L75.1802 205.8L75.1102 205.69L75.0302 205.57L74.9402 205.45L74.8502 205.34L74.7602 205.23L74.6602 205.12L74.5502 205.02L74.4402 204.91L74.3302 204.82L74.2102 204.72L74.1602 204.68L74.0402 204.6L73.9102 204.51L73.7802 204.43L73.6402 204.36L73.5002 204.28L73.3402 204.2L73.1802 204.13L73.0102 204.06L72.8302 204L72.6402 203.93L72.5402 203.9L72.3302 203.83L72.1102 203.77L71.8802 203.71L71.6402 203.66L71.3902 203.6L71.1102 203.55L70.8202 203.5L70.6902 203.48" stroke="#9D9D9C" stroke-width="0.75" stroke-miterlimit="2"/>
<path d="M67.1302 203.04L67.0202 203.02L66.9003 203L66.7903 202.97L66.6903 202.95L66.6003 202.93L66.5103 202.91L66.4303 202.89L66.3603 202.86L66.3003 202.84L66.2402 202.82L66.1903 202.8L66.1403 202.77L66.0902 202.75L66.0403 202.73L66.0003 202.7H65.9902L65.9502 202.67L65.9103 202.64L65.8703 202.61L65.8402 202.58L65.8003 202.55L65.7702 202.52L65.7402 202.48L65.7103 202.45L65.6903 202.41L65.6603 202.38L65.6403 202.34L65.6203 202.31L65.6003 202.27L65.5902 202.23L65.5703 202.19L65.5602 202.15L65.5503 202.1L65.5403 202.05L65.5303 202L65.5202 201.95L65.5103 201.9V201.85V201.79V201.78" stroke="#9D9D9C" stroke-width="0.75" stroke-miterlimit="2"/>
<path d="M65.5103 201.78V201.72V201.59L65.5202 201.49V201.38L65.5303 201.29L65.5403 201.23L65.5503 201.15L65.5703 201.08L65.5803 201.01L65.6003 200.95L65.6203 200.89L65.6302 200.86L65.6503 200.81L65.6803 200.75L65.7002 200.7L65.7303 200.65L65.7603 200.61L65.7903 200.57L65.8303 200.53L65.8703 200.49L65.9103 200.45L65.9502 200.42L66.0003 200.38L66.0503 200.35L66.0803 200.32L66.1403 200.29L66.1903 200.26L66.2503 200.24L66.3203 200.21L66.3903 200.18L66.4703 200.16L66.5003 200.15L66.5902 200.12L66.6903 200.1L66.7903 200.08L66.9003 200.06L67.0103 200.04L67.0902 200.03L67.2303 200.01L67.3903 200L67.5403 199.99L67.7103 199.97L67.8903 199.96H68.0902L68.3003 199.95H68.5403H68.8303" stroke="#9D9D9C" stroke-width="0.75" stroke-miterlimit="2"/>
<path d="M78.3 207.5V207.71L78.31 207.93L78.33 208.15L78.35 208.38L78.38 208.61L78.41 208.83V208.84L78.45 209.07L78.49 209.29L78.54 209.5L78.59 209.71L78.65 209.9L78.71 210.09L78.77 210.28L78.84 210.46L78.91 210.63L78.99 210.8L79.07 210.96L79.16 211.12L79.25 211.27L79.34 211.42L79.44 211.56L79.54 211.7L79.64 211.83L79.75 211.96L79.86 212.08L79.97 212.19L80.08 212.3L80.2 212.4L80.32 212.5L80.44 212.58L80.56 212.67L80.69 212.75L80.82 212.82L80.96 212.9L81.1 212.96L81.25 213.02L81.4 213.08L81.55 213.13L81.61 213.15L81.77 213.2L81.93 213.24L82.09 213.27L82.26 213.3L82.44 213.32L82.62 213.34L82.8 213.35L82.99 213.36H83.14" stroke="#9D9D9C" stroke-width="0.75" stroke-miterlimit="2"/>
<path d="M87.4302 213.36H87.5202H87.7102L87.8902 213.35L88.0702 213.33L88.2402 213.31L88.4102 213.28L88.5802 213.25L88.7402 213.21L88.9002 213.16L88.9402 213.15L89.0902 213.1L89.2402 213.05L89.3902 212.99L89.5302 212.92L89.6802 212.85L89.8102 212.78L89.9402 212.7L90.0702 212.61L90.1902 212.53L90.3102 212.44L90.4202 212.34L90.5302 212.25L90.6302 212.14L90.7402 212.03L90.8402 211.92L90.9402 211.79L91.0302 211.67L91.1202 211.53L91.2102 211.39L91.3002 211.25L91.3802 211.09L91.4602 210.94L91.5302 210.77L91.6002 210.61L91.6202 210.57L91.6802 210.39L91.7402 210.22L91.8002 210.03L91.8502 209.84L91.9002 209.65L91.9402 209.45L91.9802 209.24L92.0102 209.02L92.0402 208.8L92.0602 208.56L92.0802 208.32L92.0902 208.06L92.1002 207.79V207.51V207.5" stroke="#9D9D9C" stroke-width="0.75" stroke-miterlimit="2"/>
<path d="M88.8303 207.44V207.51V207.7L88.8203 207.86V207.99L88.8103 208.12L88.8003 208.24L88.7903 208.35L88.7803 208.45L88.7603 208.55V208.56L88.7403 208.66L88.7203 208.74L88.7003 208.82L88.6803 208.9L88.6603 208.97L88.6303 209.04L88.6003 209.11L88.5903 209.15L88.5603 209.21L88.5203 209.27L88.4903 209.33L88.4503 209.39L88.4203 209.44L88.3803 209.49L88.3403 209.53L88.3003 209.58L88.2503 209.62L88.2103 209.66L88.1603 209.7L88.1103 209.74L88.0503 209.77L88.0003 209.81L87.9303 209.84L87.8703 209.88L87.8003 209.91L87.7303 209.94L87.6603 209.97L87.5803 209.99L87.5703 210L87.4903 210.02L87.4103 210.04L87.3303 210.06L87.2403 210.08L87.1503 210.09L87.0503 210.11L86.9503 210.12H86.8503L86.7403 210.13H86.6203H86.5203" stroke="#9D9D9C" stroke-width="0.75" stroke-miterlimit="2"/>
<path d="M83.9101 210.13H83.7701H83.6501H83.5401L83.4401 210.12L83.3401 210.11L83.2601 210.1L83.1701 210.08L83.0901 210.07L83.0501 210.06L82.9801 210.04L82.9001 210.02L82.8301 210L82.7701 209.97L82.7001 209.94L82.6401 209.91L82.5901 209.89L82.5301 209.86L82.4701 209.82L82.4201 209.78L82.3601 209.74L82.3101 209.7L82.2601 209.66L82.2101 209.61L82.1701 209.56L82.1201 209.51L82.0801 209.46L82.0401 209.41L82.0001 209.35L81.9601 209.28L81.9301 209.23L81.8901 209.16L81.8601 209.09L81.8201 209.02L81.7901 208.94L81.7601 208.86L81.7301 208.78L81.7201 208.74L81.6901 208.65L81.6701 208.56L81.6501 208.46L81.6301 208.36L81.6101 208.26L81.6001 208.16L81.5801 208.05L81.5701 207.93V207.81L81.5601 207.69V207.56V207.45" stroke="#9D9D9C" stroke-width="0.75" stroke-miterlimit="2"/>
<path d="M98.8301 205.29V205.13L98.8401 204.75V204.43L98.8501 204.14L98.8701 203.87L98.8901 203.62L98.9101 203.39L98.9401 203.16L98.9701 202.94L99.0001 202.73L99.0401 202.53L99.0801 202.35L99.1201 202.19L99.1601 202.03L99.2101 201.88L99.2601 201.75L99.3101 201.62L99.3601 201.5L99.4201 201.38L99.4701 201.28L99.5301 201.18L99.6001 201.08L99.6601 200.99L99.7301 200.91L99.8001 200.82L99.8801 200.75L99.9301 200.7L100.02 200.62L100.1 200.56L100.19 200.49L100.28 200.43L100.38 200.38L100.48 200.33L100.58 200.28L100.69 200.24L100.81 200.19L100.94 200.16L100.99 200.14L101.13 200.11L101.28 200.07L101.43 200.05L101.6 200.02L101.77 200L101.87 199.99L102.08 199.97L102.3 199.96L102.54 199.95H102.8H102.93" stroke="#9D9D9C" stroke-width="0.75" stroke-miterlimit="2"/>
<path d="M103.71 199.95H103.92H104.11L104.29 199.96L104.46 199.97L104.61 199.98L104.75 200L104.89 200.02L105.02 200.04L105.15 200.06L105.27 200.09L105.39 200.12L105.5 200.15H105.52L105.62 200.19L105.73 200.22L105.83 200.26L105.92 200.3L106.01 200.35L106.09 200.39L106.18 200.44L106.25 200.49L106.32 200.54L106.39 200.59L106.45 200.64L106.51 200.69L106.57 200.75L106.62 200.81L106.67 200.87L106.72 200.94L106.77 201L106.82 201.08L106.86 201.15L106.88 201.2L106.92 201.28L106.96 201.36L106.99 201.45L107.02 201.54L107.05 201.64L107.08 201.74L107.1 201.86L107.13 201.97L107.15 202.09L107.16 202.22L107.18 202.36L107.19 202.5L107.2 202.65L107.21 202.82V203V203.13" stroke="#9D9D9C" stroke-width="0.75" stroke-miterlimit="2"/>
<path d="M107.21 203.13V203.2V203.32L107.2 203.43L107.19 203.54L107.18 203.65L107.17 203.76L107.16 203.87L107.14 203.97L107.12 204.07V204.11L107.1 204.2L107.07 204.29L107.05 204.38L107.03 204.47L107 204.55L106.97 204.62L106.94 204.7L106.91 204.77L106.88 204.84L106.84 204.91L106.82 204.95L106.79 205.01L106.75 205.07L106.71 205.13L106.67 205.18L106.63 205.23L106.59 205.28L106.55 205.33L106.51 205.37L106.47 205.41L106.43 205.44L106.38 205.48L106.34 205.51L106.29 205.54L106.25 205.57L106.2 205.59L106.15 205.62L106.09 205.64L106.04 205.66L105.98 205.68L105.93 205.69L105.87 205.71L105.81 205.72L105.75 205.73H105.69L105.63 205.74H105.57" stroke="#9D9D9C" stroke-width="0.75" stroke-miterlimit="2"/>
<path d="M100.09 208.03L100.32 208.07L100.56 208.1L100.82 208.14L101.08 208.17L101.37 208.2L101.68 208.23L102.02 208.26L102.29 208.28L102.67 208.3L103.06 208.33L103.44 208.35L103.8 208.36L104.14 208.37L104.47 208.38H104.79" stroke="#9D9D9C" stroke-width="0.75" stroke-miterlimit="2" stroke-linecap="round"/>
<path d="M104.79 208.38H104.98L105.33 208.37L105.66 208.35L105.97 208.32L106.27 208.29L106.55 208.24L106.82 208.19L107.08 208.13L107.33 208.06L107.57 207.99L107.8 207.9L107.82 207.89L108.04 207.8L108.25 207.7L108.46 207.59L108.65 207.48L108.84 207.36L109.01 207.23L109.18 207.1L109.33 206.97L109.48 206.82L109.61 206.68L109.74 206.53L109.86 206.37L109.98 206.19L110.09 206.01L110.19 205.83L110.28 205.63L110.37 205.42L110.45 205.21L110.51 205.02L110.57 204.79L110.62 204.56L110.66 204.32L110.69 204.11L110.72 203.85L110.74 203.58L110.75 203.3V203.22L110.74 202.96L110.73 202.67L110.71 202.38L110.67 202.11L110.63 201.83V201.82L110.58 201.56L110.52 201.31L110.45 201.07L110.37 200.83L110.29 200.61L110.19 200.38V200.37L110.09 200.16L109.97 199.94L109.85 199.74L109.72 199.54L109.58 199.34L109.43 199.16L109.28 198.98L109.12 198.81L108.96 198.65L108.79 198.5L108.61 198.36L108.42 198.22L108.22 198.09L108.01 197.96L107.79 197.84L107.56 197.72L107.33 197.62L107.09 197.52L106.84 197.43L106.58 197.35L106.32 197.28L106.04 197.21L105.76 197.16L105.46 197.11L105.16 197.07L104.84 197.04L104.52 197.02L104.19 197.01H104.01" stroke="#9D9D9C" stroke-width="0.75" stroke-miterlimit="2"/>
<path d="M103.53 197.01H103.45H103.01L102.59 197.03L102.2 197.05L101.83 197.08L101.47 197.12L101.21 197.15L100.88 197.2L100.58 197.25L100.29 197.31L100.01 197.38L99.7401 197.45L99.6701 197.47L99.4201 197.55L99.1801 197.64L98.9501 197.73L98.7301 197.83L98.5201 197.93L98.3201 198.04L98.2301 198.09L98.0401 198.21L97.8601 198.33L97.6801 198.46L97.5201 198.6L97.3601 198.74L97.2101 198.88L97.0601 199.03L96.9301 199.19L96.7901 199.36L96.6601 199.54L96.5401 199.72L96.4301 199.91L96.3701 200.01L96.2601 200.22L96.1601 200.43L96.0701 200.65L95.9801 200.88L95.8901 201.13L95.8101 201.38L95.7901 201.44L95.7201 201.72L95.6601 202L95.5901 202.3L95.5401 202.61L95.4901 202.94L95.4601 203.19L95.4301 203.56L95.4001 203.94L95.3701 204.34L95.3601 204.77V205.21V205.28" stroke="#9D9D9C" stroke-width="0.75" stroke-miterlimit="2"/>
<path d="M122.53 197.38L122.31 197.34L122.08 197.3L121.83 197.27L121.56 197.24L121.27 197.2L120.95 197.17L120.55 197.13L120.33 197.11L119.98 197.08L119.67 197.06L119.39 197.04L119.14 197.02H118.89L118.66 197.01H118.44" stroke="#9D9D9C" stroke-width="0.75" stroke-miterlimit="2" stroke-linecap="round"/>
<path d="M118.44 197.01H118.37H118.16L117.96 197.03L117.76 197.04L117.57 197.06L117.38 197.09L117.2 197.13L117.02 197.17L116.84 197.21L116.8 197.22L116.63 197.27L116.46 197.33L116.3 197.39L116.14 197.46L115.99 197.53L115.84 197.61L115.69 197.69L115.56 197.77L115.42 197.86L115.3 197.95L115.17 198.04L115.06 198.14L114.94 198.25L114.83 198.36L114.72 198.48L114.61 198.61L114.51 198.74L114.41 198.87L114.31 199.02L114.22 199.16L114.13 199.32L114.04 199.47L113.96 199.64L113.89 199.8L113.87 199.85L113.8 200.02L113.73 200.2L113.67 200.38L113.62 200.57L113.57 200.77L113.52 200.97L113.48 201.18L113.44 201.39L113.41 201.62L113.39 201.85L113.37 202.09L113.35 202.34L113.34 202.61V202.88V202.98" stroke="#9D9D9C" stroke-width="0.75" stroke-miterlimit="2"/>
<path d="M116.75 203.2V203.11V202.86V202.66L116.76 202.49V202.34L116.77 202.19L116.78 202.05L116.8 201.92L116.82 201.8L116.84 201.68L116.86 201.56L116.87 201.52L116.89 201.42L116.91 201.33L116.94 201.24L116.97 201.16L116.99 201.09L117.02 201.02L117.05 200.96L117.08 200.9L117.12 200.84L117.15 200.79L117.19 200.74L117.23 200.69L117.27 200.65L117.31 200.61L117.35 200.57L117.4 200.53L117.45 200.49L117.51 200.46L117.56 200.42L117.62 200.4L117.68 200.37L117.74 200.34L117.81 200.32L117.88 200.3L117.96 200.28L118.04 200.26L118.08 200.25L118.18 200.23L118.28 200.22L118.39 200.2L118.51 200.19L118.65 200.18H118.67L118.83 200.17H119L119.2 200.16H119.4" stroke="#9D9D9C" stroke-width="0.75" stroke-miterlimit="2"/>
<path d="M131.84 197.01H131.38L130.86 197.03L130.38 197.06L129.94 197.09L129.52 197.14L129.12 197.21L128.74 197.28L128.39 197.36L128.04 197.45L127.72 197.55L127.42 197.66L127.14 197.78L126.87 197.9L126.62 198.04L126.58 198.06L126.34 198.21L126.11 198.36L125.9 198.53L125.7 198.7L125.51 198.88L125.33 199.07L125.16 199.28L124.99 199.5L124.84 199.73L124.69 199.97L124.67 200.01L124.54 200.27L124.41 200.54L124.3 200.82L124.19 201.12L124.09 201.44L124 201.79L123.92 202.15L123.89 202.28L123.83 202.67L123.77 203.09L123.76 203.19L123.71 203.65L123.68 204.13V204.2L123.66 204.72V204.73L123.65 205.28L123.66 205.81V205.82L123.68 206.32V206.38L123.71 206.85L123.76 207.29L123.77 207.38L123.83 207.79L123.9 208.18L123.92 208.29L124 208.65L124.09 208.99L124.18 209.27L124.29 209.57L124.4 209.86L124.53 210.13L124.66 210.39L124.67 210.4L124.81 210.65L124.96 210.88L125.13 211.11L125.3 211.31L125.48 211.51L125.67 211.7L125.87 211.88L126.08 212.04L126.31 212.2L126.54 212.35L126.56 212.36L126.8 212.5L127.06 212.63L127.34 212.75L127.63 212.86L127.91 212.95L128.23 213.05L128.58 213.13L128.93 213.21L129.31 213.27L129.7 213.32L130.12 213.36L130.57 213.39L131.05 213.41H131.48" stroke="#9D9D9C" stroke-width="0.75" stroke-miterlimit="2"/>
<path d="M131.9 213.41H132.16L132.49 213.4L132.81 213.39L133.13 213.37L133.45 213.35L133.77 213.32L134.09 213.29L134.4 213.25L134.51 213.23L134.79 213.19L135.07 213.15L135.32 213.1L135.57 213.05L135.81 212.99L136.03 212.94L136.25 212.88L136.47 212.81L136.53 212.79L136.73 212.72L136.92 212.65L137.1 212.58L137.27 212.51L137.34 212.48L137.46 212.42L137.58 212.36L137.68 212.3L137.78 212.23L137.88 212.17L137.95 212.11L138.03 212.04L138.1 211.98L138.16 211.91L138.21 211.85L138.26 211.79L138.3 211.73L138.33 211.67L138.35 211.61L138.37 211.56L138.39 211.5V211.44L138.4 211.39" stroke="#9D9D9C" stroke-width="0.75" stroke-miterlimit="2"/>
<path d="M138.16 209.55L138.06 209.58L137.62 209.69L137.22 209.79L136.86 209.88L136.52 209.95L136.2 210.02L135.89 210.08L135.6 210.13L135.31 210.18L135.03 210.22L134.74 210.26L134.46 210.3L134.17 210.32L133.88 210.35L133.58 210.37L133.29 210.39L133 210.4H132.71L132.44 210.41" stroke="#9D9D9C" stroke-width="0.75" stroke-miterlimit="2"/>
<path d="M131.77 210.41L131.59 210.4H131.27L131 210.39L130.74 210.38L130.57 210.37L130.37 210.35L130.17 210.33L130 210.31L129.83 210.28L129.69 210.25L129.55 210.22L129.41 210.18L129.28 210.14L129.15 210.09L129.03 210.04L128.96 210.01L128.85 209.96L128.74 209.9L128.64 209.84L128.54 209.77L128.45 209.71L128.37 209.64L128.29 209.56L128.21 209.48L128.13 209.4L128.05 209.31L127.98 209.21L127.91 209.11L127.84 209L127.77 208.88L127.71 208.76L127.65 208.63L127.59 208.49L127.53 208.35L127.48 208.2L127.45 208.1L127.4 207.94L127.36 207.77L127.32 207.6L127.29 207.42L127.25 207.23L127.23 207.02L127.21 206.87L127.18 206.63L127.16 206.37L127.15 206.1L127.14 205.82L127.13 205.52V205.28" stroke="#9D9D9C" stroke-width="0.75" stroke-miterlimit="2"/>
<path d="M127.13 205.28V205.11V204.73L127.14 204.41L127.15 204.13L127.16 203.86L127.18 203.61L127.21 203.38L127.23 203.15L127.26 202.94L127.3 202.73L127.34 202.52L127.37 202.35L127.42 202.18L127.46 202.02L127.51 201.88L127.55 201.74L127.6 201.61L127.66 201.49L127.71 201.38L127.77 201.27L127.83 201.17L127.89 201.08L127.96 200.99L128.03 200.9L128.1 200.82L128.18 200.75L128.26 200.67L128.31 200.62L128.4 200.55L128.49 200.49L128.58 200.43L128.68 200.38L128.78 200.33L128.88 200.28L129 200.24L129.12 200.19L129.24 200.16L129.29 200.14L129.43 200.11L129.58 200.07L129.74 200.05L129.9 200.02L130.08 200L130.18 199.99L130.38 199.97L130.61 199.96L130.84 199.95H131.11H131.24" stroke="#9D9D9C" stroke-width="0.75" stroke-miterlimit="2"/>
<path d="M132.02 199.95H132.15H132.41L132.63 199.96H132.83L133.01 199.97L133.18 199.98L133.34 200L133.49 200.01L133.64 200.03L133.78 200.06L133.87 200.07L133.99 200.1L134.1 200.12L134.2 200.15L134.29 200.17L134.37 200.2L134.45 200.23L134.53 200.27L134.6 200.3L134.67 200.34L134.73 200.38L134.79 200.42L134.85 200.46L134.91 200.5L134.95 200.54L135 200.59L135.05 200.64L135.09 200.69L135.13 200.75L135.17 200.8L135.21 200.86L135.24 200.92L135.28 200.99L135.31 201.06L135.34 201.13L135.36 201.21L135.38 201.27L135.4 201.36L135.43 201.45L135.45 201.55L135.46 201.65L135.48 201.76L135.49 201.86L135.5 202L135.51 202.14L135.52 202.29V202.46V202.6" stroke="#9D9D9C" stroke-width="0.75" stroke-miterlimit="2"/>
<path d="M135.52 202.6V202.66V202.75V202.82L135.51 202.89L135.5 202.96L135.49 203.02L135.48 203.08L135.47 203.14L135.46 203.2L135.44 203.25L135.43 203.3L135.42 203.33L135.4 203.38L135.38 203.43L135.36 203.48L135.33 203.52L135.31 203.57L135.28 203.61L135.25 203.65L135.22 203.69L135.2 203.72L135.17 203.75L135.13 203.79L135.1 203.82L135.07 203.84L135.03 203.87L134.99 203.9L134.95 203.92L134.91 203.95L134.87 203.97L134.82 203.99L134.77 204.01L134.72 204.03L134.67 204.05L134.61 204.07L134.55 204.08L134.49 204.1L134.43 204.11L134.36 204.12L134.29 204.13L134.22 204.14L134.14 204.15H134.06H133.98H133.89" stroke="#9D9D9C" stroke-width="0.75" stroke-miterlimit="2"/>
<path d="M128.4 206.35L128.63 206.39L128.86 206.44L129.1 206.48L129.36 206.52L129.64 206.56L129.94 206.6L130.27 206.63L130.59 206.66L130.98 206.7L131.37 206.73L131.75 206.75L132.11 206.77L132.45 206.78L132.78 206.79H133.11" stroke="#9D9D9C" stroke-width="0.75" stroke-linecap="round" stroke-linejoin="round"/>
<path d="M133.11 206.79H133.15H133.43L133.7 206.78L133.97 206.76L134.23 206.74L134.48 206.72L134.73 206.69L134.97 206.65L135.06 206.64L135.29 206.6L135.5 206.55L135.7 206.51L135.9 206.46L136.08 206.4L136.26 206.35L136.43 206.28L136.6 206.22L136.76 206.15L136.91 206.08L136.96 206.06L137.1 205.98L137.25 205.9L137.39 205.81L137.52 205.73L137.65 205.64L137.77 205.54L137.88 205.45L137.99 205.35L138.09 205.25L138.19 205.15L138.28 205.05L138.36 204.94L138.44 204.83L138.51 204.72L138.58 204.61L138.65 204.49L138.71 204.37L138.76 204.24L138.82 204.11L138.86 203.98L138.89 203.89L138.93 203.75L138.96 203.61L138.99 203.46L139.01 203.31L139.03 203.16L139.05 203V202.84L139.06 202.69" stroke="#9D9D9C" stroke-width="0.75" stroke-miterlimit="2"/>
<path d="M139.06 202.69V202.62L139.05 202.38L139.04 202.15L139.02 201.92L138.99 201.7L138.96 201.48L138.93 201.27L138.88 201.07L138.84 200.87L138.78 200.68L138.72 200.49L138.66 200.32L138.59 200.14L138.51 199.98L138.44 199.82L138.36 199.68L138.27 199.53L138.17 199.38L138.07 199.23L137.96 199.09L137.85 198.96L137.74 198.83L137.61 198.7L137.48 198.58L137.35 198.46L137.21 198.35L137.06 198.24L136.91 198.13L136.84 198.09L136.68 197.99L136.51 197.89L136.34 197.8L136.16 197.72L135.97 197.63L135.77 197.56L135.57 197.48L135.36 197.41L135.14 197.35L134.91 197.29L134.68 197.24H134.67L134.43 197.19L134.17 197.14L133.92 197.11L133.65 197.07L133.37 197.05L133.09 197.03L132.8 197.02L132.49 197.01H132.32" stroke="#9D9D9C" stroke-width="0.75" stroke-miterlimit="2"/>
<path d="M152.2 198.61L152.13 198.54L152.05 198.47L151.97 198.4L151.88 198.34L151.8 198.27L151.71 198.21L151.61 198.14L151.52 198.08L151.42 198.02L151.31 197.96L151.21 197.91L151.1 197.85L150.99 197.8L150.87 197.75L150.76 197.7L150.64 197.65L150.51 197.61L150.39 197.57L150.3 197.54L150.18 197.5L150.05 197.46L149.92 197.43L149.78 197.4L149.65 197.37L149.51 197.34L149.43 197.33H149.42L149.3 197.31L149.18 197.29L149.08 197.28H148.98L148.89 197.27H148.8" stroke="#9D9D9C" stroke-width="0.75" stroke-miterlimit="2" stroke-linecap="round"/>
<path d="M147.04 197.27H146.87L146.66 197.28L146.46 197.29L146.27 197.31L146.08 197.34L145.89 197.37L145.71 197.41L145.53 197.45L145.36 197.49L145.2 197.54L145.04 197.6L144.88 197.66L144.73 197.72L144.59 197.79L144.45 197.86L144.32 197.93L144.19 198.02L144.06 198.1L143.94 198.2L143.82 198.3L143.69 198.4L143.58 198.51L143.46 198.63L143.35 198.75L143.24 198.88L143.14 199.01L143.04 199.15L142.94 199.29L142.85 199.43L142.8 199.53L142.71 199.68L142.63 199.83L142.56 199.99L142.49 200.16L142.42 200.33L142.36 200.51L142.3 200.7L142.25 200.9L142.2 201.1L142.15 201.31L142.13 201.45L142.09 201.67L142.05 201.9L142.03 202.13L142.01 202.37L141.99 202.6L141.98 202.84V203.08V203.1" stroke="#9D9D9C" stroke-width="0.75" stroke-miterlimit="2"/>
<path d="M145.08 203.1V203.05V202.88L145.09 202.73V202.58L145.1 202.45L145.11 202.32L145.13 202.2L145.15 202.08L145.17 201.97L145.18 201.9L145.2 201.79L145.23 201.7L145.25 201.6L145.28 201.52L145.31 201.43L145.34 201.36L145.38 201.28L145.41 201.21L145.45 201.14L145.49 201.07L145.53 201.01L145.57 200.95L145.62 200.89L145.67 200.83L145.72 200.78L145.78 200.72L145.84 200.67L145.9 200.62L145.96 200.57L146.03 200.52L146.1 200.48L146.17 200.43L146.24 200.39L146.26 200.38L146.33 200.35L146.41 200.31L146.49 200.28L146.57 200.25L146.65 200.23L146.74 200.2L146.83 200.18L146.92 200.16L147.02 200.15L147.12 200.13L147.23 200.12L147.34 200.11L147.46 200.1H147.59H147.72H147.73" stroke="#9D9D9C" stroke-width="0.75" stroke-miterlimit="2"/>
<path d="M147.73 200.1H147.79H147.95H148.09L148.23 200.11L148.36 200.12L148.48 200.14L148.6 200.15L148.71 200.17L148.81 200.19L148.92 200.21L149.01 200.24L149.11 200.27L149.2 200.3L149.26 200.32L149.35 200.35L149.43 200.39L149.5 200.42L149.57 200.46L149.64 200.5L149.71 200.54L149.77 200.59L149.83 200.64L149.87 200.67L149.93 200.72L149.98 200.77L150.03 200.83L150.08 200.88L150.13 200.94L150.17 201L150.21 201.07L150.25 201.14L150.29 201.21L150.33 201.28L150.36 201.36L150.4 201.44L150.43 201.52L150.46 201.61L150.48 201.7L150.51 201.8L150.53 201.9L150.55 202.01L150.56 202.13L150.58 202.25L150.59 202.37L150.6 202.51L150.61 202.65L150.62 202.81V202.98V203.1" stroke="#9D9D9C" stroke-width="0.75" stroke-miterlimit="2"/>
<path d="M153.81 203.1V203.05V202.9L153.82 202.76L153.83 202.62L153.84 202.49L153.85 202.37L153.87 202.25L153.89 202.13L153.91 202.02L153.93 201.91L153.96 201.81L153.98 201.71L154.01 201.61L154.05 201.52L154.08 201.44L154.11 201.35L154.15 201.27L154.19 201.2L154.23 201.13L154.28 201.06L154.32 200.99L154.37 200.92L154.41 200.86L154.46 200.81L154.52 200.75L154.57 200.7L154.63 200.64L154.69 200.59L154.76 200.54L154.83 200.49L154.9 200.45L154.97 200.4L155.04 200.36L155.12 200.33L155.2 200.29L155.28 200.26L155.3 200.25L155.38 200.22L155.46 200.19L155.55 200.17L155.64 200.15L155.74 200.13L155.83 200.11L155.93 200.1L156.04 200.09L156.15 200.08L156.27 200.07H156.39H156.49" stroke="#9D9D9C" stroke-width="0.75" stroke-miterlimit="2"/>
<path d="M156.49 200.07H156.57H156.7L156.83 200.08H156.96L157.07 200.09L157.18 200.11L157.29 200.13L157.39 200.14L157.49 200.17L157.59 200.19L157.68 200.22L157.77 200.24L157.8 200.26L157.88 200.29L157.97 200.32L158.05 200.36L158.13 200.4L158.21 200.45L158.28 200.49L158.35 200.54L158.42 200.59L158.48 200.64L158.54 200.69L158.6 200.74L158.66 200.8L158.71 200.85L158.76 200.91L158.81 200.97L158.85 201.04L158.9 201.11L158.94 201.18L158.98 201.26L159.02 201.34L159.06 201.42L159.09 201.51L159.13 201.6L159.16 201.69L159.19 201.79L159.21 201.89L159.24 202L159.26 202.11L159.28 202.23L159.3 202.35L159.31 202.47L159.32 202.6L159.33 202.74L159.34 202.88V203.02V203.1" stroke="#9D9D9C" stroke-width="0.75" stroke-miterlimit="2"/>
<path d="M162.46 203.1L162.45 202.86L162.44 202.61L162.43 202.37L162.41 202.14L162.39 201.91L162.36 201.7L162.32 201.48L162.28 201.28L162.24 201.08L162.19 200.88L162.14 200.7L162.08 200.52L162.02 200.34L161.95 200.17L161.88 200.01L161.8 199.85L161.77 199.79L161.69 199.63L161.61 199.48L161.52 199.34L161.42 199.2L161.33 199.07L161.22 198.94L161.12 198.82L161.01 198.7L160.9 198.58L160.78 198.47L160.7 198.4L160.57 198.3L160.44 198.2L160.31 198.1L160.18 198.02L160.04 197.93L159.89 197.85L159.74 197.78L159.59 197.71L159.43 197.64L159.26 197.58L159.1 197.52L158.93 197.47L158.75 197.42L158.66 197.4L158.58 197.38L158.4 197.35L158.23 197.32L158.05 197.3L157.89 197.28L157.72 197.27H157.55" stroke="#9D9D9C" stroke-width="0.75" stroke-miterlimit="2"/>
<path d="M155.65 197.27H155.53L155.39 197.28H155.26L155.13 197.29L155 197.3L154.87 197.32L154.74 197.34L154.62 197.36L154.5 197.38L154.38 197.41L154.26 197.43L154.23 197.44L154.11 197.47L154 197.51L153.88 197.54L153.77 197.58L153.66 197.62L153.55 197.67L153.45 197.71L153.35 197.76L153.25 197.81L153.15 197.87L153.05 197.92L152.96 197.97L152.87 198.03L152.79 198.09L152.7 198.15L152.62 198.21L152.55 198.28L152.47 198.34L152.4 198.41L152.33 198.47L152.27 198.54L152.2 198.61" stroke="#9D9D9C" stroke-width="0.75" stroke-miterlimit="2"/>
<path d="M72.4001 259.85L72.4501 259.82H72.4601L72.5101 259.8L72.5601 259.79L72.6201 259.77L72.6801 259.76L72.7401 259.74H72.7801L72.8401 259.73L72.9001 259.72L72.9701 259.71H73.0301H73.1001H73.1301H73.1801H73.2501H73.3101L73.3801 259.72H73.4101L73.4801 259.73L73.5501 259.74L73.6101 259.76L73.6601 259.77L73.7201 259.78L73.7701 259.8L73.8301 259.82L73.8801 259.84L73.9301 259.86L73.9801 259.88" stroke="#1D1D1B" stroke-width="0.25" stroke-miterlimit="2"/>
</g>
<defs>
<clipPath id="clip0_640_84819">
<rect width="298.64" height="415.07" fill="white"/>
</clipPath>
</defs>
</svg>
