<svg width="57" height="200" viewBox="0 0 57 200" fill="none" xmlns="http://www.w3.org/2000/svg">
<g clip-path="url(#clip0_256_2)">
<path d="M57 0H0V200H57V0Z" fill="white"/>
<path d="M47.0909 62.4582H41.7803" stroke="#9FA0A0" stroke-width="0.5" stroke-linecap="round" stroke-linejoin="round"/>
<path d="M41.7803 60.1523H47.0909" stroke="#9FA0A0" stroke-width="0.5" stroke-linecap="round" stroke-linejoin="round"/>
<path d="M15.2198 62.4582H9.90918" stroke="#9FA0A0" stroke-width="0.5" stroke-linecap="round" stroke-linejoin="round"/>
<path d="M9.90918 60.1523H15.2198" stroke="#9FA0A0" stroke-width="0.5" stroke-linecap="round" stroke-linejoin="round"/>
<path d="M8.31641 52.6943V62.874" stroke="#9FA0A0" stroke-width="0.5" stroke-linecap="round" stroke-linejoin="round"/>
<path d="M9.90918 62.874V57.597" stroke="#9FA0A0" stroke-width="0.5" stroke-linecap="round" stroke-linejoin="round"/>
<path d="M11.4346 98.2328V74.6603" stroke="#231815" stroke-width="0.5" stroke-linecap="round" stroke-linejoin="round"/>
<path d="M15.2197 62.874V57.597" stroke="#9FA0A0" stroke-width="0.5" stroke-linecap="round" stroke-linejoin="round"/>
<path d="M16.8125 62.874V52.6943" stroke="#9FA0A0" stroke-width="0.5" stroke-linecap="round" stroke-linejoin="round"/>
<path d="M26.1108 151.059V140.343" stroke="#231815" stroke-width="0.5" stroke-linecap="round" stroke-linejoin="round"/>
<path d="M30.8892 140.343V151.059" stroke="#231815" stroke-width="0.5" stroke-linecap="round" stroke-linejoin="round"/>
<path d="M43.3057 100.376H13.5596" stroke="#231815" stroke-width="0.5" stroke-linecap="round" stroke-linejoin="round"/>
<path d="M40.1836 52.6943V62.874" stroke="#9FA0A0" stroke-width="0.5" stroke-linecap="round" stroke-linejoin="round"/>
<path d="M41.7803 62.874V57.597" stroke="#9FA0A0" stroke-width="0.5" stroke-linecap="round" stroke-linejoin="round"/>
<path d="M45.4307 74.6603V98.2328" stroke="#231815" stroke-width="0.5" stroke-linecap="round" stroke-linejoin="round"/>
<path d="M47.0908 62.874V57.597" stroke="#9FA0A0" stroke-width="0.5" stroke-linecap="round" stroke-linejoin="round"/>
<path d="M48.6836 62.874V52.6943" stroke="#9FA0A0" stroke-width="0.5" stroke-linecap="round" stroke-linejoin="round"/>
<path d="M13.5596 72.517H43.3057" stroke="#231815" stroke-width="0.5" stroke-linecap="round" stroke-linejoin="round"/>
<path d="M8.31641 62.874H9.90921" stroke="#9FA0A0" stroke-width="0.5" stroke-linecap="round" stroke-linejoin="round"/>
<path d="M15.2197 62.874H16.8125" stroke="#9FA0A0" stroke-width="0.5" stroke-linecap="round" stroke-linejoin="round"/>
<path d="M40.1836 62.874H41.7801" stroke="#9FA0A0" stroke-width="0.5" stroke-linecap="round" stroke-linejoin="round"/>
<path d="M47.0908 62.874H48.6836" stroke="#9FA0A0" stroke-width="0.5" stroke-linecap="round" stroke-linejoin="round"/>
<path d="M33.8125 58.8558H23.1875" stroke="#231815" stroke-width="0.5" stroke-linecap="round" stroke-linejoin="round"/>
<path d="M46.5586 57.0602H42.3086" stroke="#9FA0A0" stroke-width="0.5" stroke-linecap="round" stroke-linejoin="round"/>
<path d="M14.6875 57.0602H10.4375" stroke="#9FA0A0" stroke-width="0.5" stroke-linecap="round" stroke-linejoin="round"/>
<path d="M23.1875 54.0324H33.8125" stroke="#231815" stroke-width="0.5" stroke-linecap="round" stroke-linejoin="round"/>
<path d="M47.0909 51.0878H41.7803" stroke="#9FA0A0" stroke-width="0.5" stroke-linecap="round" stroke-linejoin="round"/>
<path d="M15.2198 51.0878H9.90918" stroke="#9FA0A0" stroke-width="0.5" stroke-linecap="round" stroke-linejoin="round"/>
<path d="M11.4346 98.2328C11.4346 99.416 12.3865 100.376 13.5596 100.376" stroke="#231815" stroke-width="0.5" stroke-linecap="round" stroke-linejoin="round"/>
<path d="M23.1875 54.0324C21.8683 54.0324 20.7964 55.1135 20.7964 56.4441C20.7964 57.7747 21.8683 58.8558 23.1875 58.8558" stroke="#231815" stroke-width="0.5" stroke-linecap="round" stroke-linejoin="round"/>
<path d="M13.5596 72.517C12.3865 72.517 11.4346 73.4771 11.4346 74.6603" stroke="#231815" stroke-width="0.5" stroke-linecap="round" stroke-linejoin="round"/>
<path d="M9.90921 51.0878C9.02848 51.0878 8.31641 51.806 8.31641 52.6943" stroke="#9FA0A0" stroke-width="0.5" stroke-linecap="round" stroke-linejoin="round"/>
<path d="M16.8125 52.6943C16.8125 51.806 16.1005 51.0878 15.2197 51.0878" stroke="#9FA0A0" stroke-width="0.5" stroke-linecap="round" stroke-linejoin="round"/>
<path d="M15.2197 57.597C15.2197 57.3022 14.9836 57.0602 14.6875 57.0602" stroke="#9FA0A0" stroke-width="0.5" stroke-linecap="round" stroke-linejoin="round"/>
<path d="M10.4375 57.0602C10.1451 57.0602 9.90527 57.2984 9.90527 57.597" stroke="#9FA0A0" stroke-width="0.5" stroke-linecap="round" stroke-linejoin="round"/>
<path d="M26.1108 151.059C26.1108 152.39 27.179 153.467 28.4982 153.467C29.8174 153.467 30.8855 152.39 30.8855 151.059" stroke="#231815" stroke-width="0.5" stroke-linecap="round" stroke-linejoin="round"/>
<path d="M30.8894 140.343C30.8894 139.012 29.8213 137.935 28.5021 137.935C27.1829 137.935 26.1147 139.012 26.1147 140.343" stroke="#231815" stroke-width="0.5" stroke-linecap="round" stroke-linejoin="round"/>
<path d="M43.3057 100.376C44.4787 100.376 45.4307 99.416 45.4307 98.2328" stroke="#231815" stroke-width="0.5" stroke-linecap="round" stroke-linejoin="round"/>
<path d="M33.2803 196.598H23.7197" stroke="#231815" stroke-linecap="round" stroke-linejoin="round"/>
<path d="M8.57861 187.17H23.7196" stroke="#231815" stroke-linecap="round" stroke-linejoin="round"/>
<path d="M33.2803 187.17H48.4176" stroke="#231815" stroke-linecap="round" stroke-linejoin="round"/>
<path d="M3.37305 167.881H6.45372" stroke="#231815" stroke-linecap="round" stroke-linejoin="round"/>
<path d="M50.5425 167.881H53.6232" stroke="#231815" stroke-linecap="round" stroke-linejoin="round"/>
<path d="M3.37305 167.881V15.7252" stroke="#231815" stroke-linecap="round" stroke-linejoin="round"/>
<path d="M6.45361 167.881V185.027" stroke="#231815" stroke-linecap="round" stroke-linejoin="round"/>
<path d="M11.502 15.7251V3.4021" stroke="#231815" stroke-linecap="round" stroke-linejoin="round"/>
<path d="M23.7197 196.598V187.17" stroke="#231815" stroke-linecap="round" stroke-linejoin="round"/>
<path d="M33.2803 196.598V187.17" stroke="#231815" stroke-linecap="round" stroke-linejoin="round"/>
<path d="M45.498 15.7251V3.4021" stroke="#231815" stroke-linecap="round" stroke-linejoin="round"/>
<path d="M50.5425 185.027V167.881" stroke="#231815" stroke-linecap="round" stroke-linejoin="round"/>
<path d="M53.6235 167.881V15.7252" stroke="#231815" stroke-linecap="round" stroke-linejoin="round"/>
<path d="M11.502 15.7252H3.37305" stroke="#231815" stroke-linecap="round" stroke-linejoin="round"/>
<path d="M45.498 15.7252H53.6232" stroke="#231815" stroke-linecap="round" stroke-linejoin="round"/>
<path d="M11.502 3.4021H45.4981" stroke="#231815" stroke-linecap="round" stroke-linejoin="round"/>
<path d="M6.45361 185.027C6.45361 186.21 7.40555 187.17 8.57861 187.17" stroke="#231815" stroke-linecap="round" stroke-linejoin="round"/>
<path d="M48.4175 187.17C49.5905 187.17 50.5425 186.21 50.5425 185.027" stroke="#231815" stroke-linecap="round" stroke-linejoin="round"/>
<path d="M33.8125 58.8558C35.1317 58.8558 36.2036 57.7747 36.2036 56.4441C36.2036 55.1135 35.1317 54.0324 33.8125 54.0324" stroke="#231815" stroke-width="0.5" stroke-linecap="round" stroke-linejoin="round"/>
<path d="M45.4307 74.6603C45.4307 73.4771 44.4787 72.517 43.3057 72.517" stroke="#231815" stroke-width="0.5" stroke-linecap="round" stroke-linejoin="round"/>
<path d="M41.7803 51.0878C40.8996 51.0878 40.1875 51.806 40.1875 52.6943" stroke="#9FA0A0" stroke-width="0.5" stroke-linecap="round" stroke-linejoin="round"/>
<path d="M48.6836 52.6943C48.6836 51.806 47.9715 51.0878 47.0908 51.0878" stroke="#9FA0A0" stroke-width="0.5" stroke-linecap="round" stroke-linejoin="round"/>
<path d="M42.3086 57.0602C42.0162 57.0602 41.7764 57.2984 41.7764 57.597" stroke="#9FA0A0" stroke-width="0.5" stroke-linecap="round" stroke-linejoin="round"/>
<path d="M47.0908 57.597C47.0908 57.3022 46.8547 57.0602 46.5586 57.0602" stroke="#9FA0A0" stroke-width="0.5" stroke-linecap="round" stroke-linejoin="round"/>
<path d="M10.7036 167.881C10.7036 166.845 11.5356 166.006 12.5625 166.006C13.5894 166.006 14.4214 166.845 14.4214 167.881C14.4214 168.916 13.5894 169.756 12.5625 169.756C11.5356 169.756 10.7036 168.916 10.7036 167.881Z" stroke="#231815" stroke-width="0.5" stroke-linecap="round" stroke-linejoin="round"/>
<path d="M10.7036 33.9413C10.7036 32.9056 11.5356 32.0664 12.5625 32.0664C13.5894 32.0664 14.4214 32.9056 14.4214 33.9413C14.4214 34.9771 13.5894 35.8162 12.5625 35.8162C11.5356 35.8162 10.7036 34.9771 10.7036 33.9413Z" stroke="#231815" stroke-width="0.5" stroke-linecap="round" stroke-linejoin="round"/>
<path d="M42.5747 167.881C42.5747 166.845 43.4067 166.006 44.4336 166.006C45.4605 166.006 46.2925 166.845 46.2925 167.881C46.2925 168.916 45.4605 169.756 44.4336 169.756C43.4067 169.756 42.5747 168.916 42.5747 167.881Z" stroke="#231815" stroke-width="0.5" stroke-linecap="round" stroke-linejoin="round"/>
<path d="M42.5747 33.9413C42.5747 32.9056 43.4067 32.0664 44.4336 32.0664C45.4605 32.0664 46.2925 32.9056 46.2925 33.9413C46.2925 34.9771 45.4605 35.8162 44.4336 35.8162C43.4067 35.8162 42.5747 34.9771 42.5747 33.9413Z" stroke="#231815" stroke-width="0.5" stroke-linecap="round" stroke-linejoin="round"/>
</g>
<defs>
<clipPath id="clip0_256_2">
<rect width="57" height="200" fill="white"/>
</clipPath>
</defs>
</svg>
