<svg width="150" height="250" viewBox="0 0 150 250" fill="none" xmlns="http://www.w3.org/2000/svg">
<rect width="150" height="250" fill="white"/>
<g clip-path="url(#clip0_72_104)">
<path d="M43.8992 204.314H44.7022C45.0801 204.314 45.3517 204.369 45.517 204.483C45.6823 204.593 45.7689 204.77 45.7689 205.01C45.7689 205.176 45.7217 205.313 45.6312 205.424C45.5406 205.534 45.4068 205.601 45.2336 205.636V205.656C45.4501 205.691 45.6076 205.77 45.7099 205.88C45.8122 205.99 45.8634 206.144 45.8634 206.329C45.8634 206.581 45.7768 206.778 45.6075 206.916C45.4383 207.053 45.1982 207.128 44.8872 207.128H43.8992V204.318V204.314ZM44.2534 205.506H44.773C44.9935 205.506 45.1549 205.471 45.2533 205.4C45.3517 205.329 45.4029 205.211 45.4029 205.046C45.4029 204.892 45.3478 204.782 45.2375 204.715C45.1273 204.648 44.9541 204.613 44.7179 204.613H44.2534V205.506ZM44.2534 205.805V206.825H44.8203C45.0447 206.825 45.2139 206.782 45.3202 206.695C45.4265 206.608 45.4855 206.475 45.4855 206.297C45.4855 206.12 45.4265 206.006 45.3123 205.924C45.1982 205.845 45.025 205.805 44.7927 205.805H44.2534Z" fill="#231815"/>
<path d="M48.052 206.372C48.052 206.617 47.9654 206.809 47.7883 206.951C47.6112 207.093 47.3671 207.164 47.0483 207.164C46.7137 207.164 46.4578 207.12 46.2767 207.03V206.691C46.3948 206.743 46.5247 206.782 46.6664 206.813C46.8081 206.845 46.942 206.857 47.064 206.857C47.2726 206.857 47.434 206.817 47.5403 206.735C47.6466 206.652 47.7017 206.542 47.7017 206.404C47.7017 206.31 47.682 206.235 47.6427 206.172C47.6033 206.109 47.5403 206.054 47.4498 206.002C47.3592 205.951 47.2215 205.888 47.0404 205.825C46.7806 205.731 46.5956 205.617 46.4814 205.491C46.3712 205.361 46.3161 205.196 46.3161 204.991C46.3161 204.77 46.3988 204.597 46.5641 204.467C46.7294 204.337 46.9459 204.274 47.2136 204.274C47.4813 204.274 47.7529 204.326 47.9891 204.432L47.8788 204.735C47.6387 204.637 47.4143 204.585 47.2057 204.585C47.0404 204.585 46.9105 204.621 46.816 204.692C46.7215 204.763 46.6743 204.865 46.6743 204.995C46.6743 205.085 46.694 205.164 46.7294 205.223C46.7648 205.282 46.8239 205.337 46.9066 205.388C46.9892 205.44 47.1152 205.495 47.2884 205.558C47.497 205.636 47.6545 205.707 47.7568 205.782C47.8592 205.853 47.9339 205.936 47.9851 206.03C48.0323 206.124 48.0599 206.235 48.0599 206.369L48.052 206.372Z" fill="#231815"/>
<path d="M50.1777 204.971C50.1777 205.152 50.1265 205.298 50.0281 205.412C49.9297 205.526 49.784 205.605 49.5951 205.644V205.66C49.8195 205.688 49.9887 205.758 50.0989 205.877C50.2092 205.995 50.2643 206.14 50.2643 206.325C50.2643 206.593 50.1698 206.802 49.9848 206.943C49.7998 207.089 49.5321 207.16 49.1857 207.16C49.0361 207.16 48.8984 207.148 48.7763 207.128C48.6543 207.109 48.5323 207.065 48.4142 207.01V206.687C48.5323 206.746 48.6622 206.794 48.796 206.825C48.9298 206.857 49.0637 206.872 49.1896 206.872C49.662 206.872 49.9021 206.687 49.9021 206.317C49.9021 205.987 49.6384 205.821 49.1149 205.821H48.8432V205.526H49.1188C49.3392 205.526 49.5124 205.479 49.6345 205.384C49.7604 205.29 49.8195 205.16 49.8195 204.995C49.8195 204.861 49.7762 204.755 49.6856 204.68C49.5951 204.605 49.4691 204.566 49.3117 204.566C49.1857 204.566 49.0716 204.581 48.9653 204.617C48.859 204.652 48.737 204.711 48.5992 204.802L48.426 204.566C48.5401 204.475 48.674 204.404 48.8236 204.353C48.9731 204.302 49.1345 204.274 49.3038 204.274C49.5793 204.274 49.7919 204.337 49.9454 204.463C50.0989 204.589 50.1737 204.759 50.1737 204.975L50.1777 204.971Z" fill="#231815"/>
<path d="M50.6461 206.219V205.912H51.5987V206.219H50.6461Z" fill="#231815"/>
<path d="M54.3856 205.691C54.3856 206.156 54.2597 206.51 54.0077 206.754C53.7558 206.998 53.3937 207.124 52.9174 207.124H52.134V204.314H53C53.437 204.314 53.7755 204.432 54.0195 204.676C54.2636 204.916 54.3856 205.255 54.3856 205.691ZM54.0156 205.703C54.0156 205.345 53.929 205.073 53.7519 204.892C53.5747 204.707 53.311 204.617 52.9528 204.617H52.4922V206.821H52.8741C53.6338 206.821 54.0156 206.447 54.0156 205.703Z" fill="#231815"/>
<path d="M55.0115 204.314H55.8145C56.1924 204.314 56.464 204.369 56.6293 204.483C56.7946 204.593 56.8812 204.77 56.8812 205.011C56.8812 205.176 56.834 205.314 56.7435 205.424C56.6529 205.534 56.5191 205.601 56.3459 205.636V205.656C56.5624 205.691 56.7199 205.77 56.8222 205.88C56.9245 205.991 56.9757 206.144 56.9757 206.329C56.9757 206.581 56.8891 206.778 56.7199 206.916C56.5506 207.053 56.3105 207.128 55.9995 207.128H55.0115V204.318V204.314ZM55.3618 205.506H55.8814C56.1018 205.506 56.2632 205.471 56.3616 205.4C56.4601 205.329 56.5112 205.211 56.5112 205.046C56.5112 204.892 56.4561 204.782 56.3459 204.715C56.2357 204.648 56.0625 204.613 55.8263 204.613H55.3618V205.506ZM55.3618 205.806V206.825H55.9286C56.153 206.825 56.3223 206.782 56.4286 206.695C56.5348 206.609 56.5939 206.475 56.5939 206.298C56.5939 206.121 56.5348 206.006 56.4207 205.924C56.3065 205.845 56.1333 205.806 55.9011 205.806H55.3618Z" fill="#231815"/>
<path d="M43.8992 209.037H44.7022C45.0801 209.037 45.3517 209.093 45.517 209.207C45.6823 209.317 45.7689 209.494 45.7689 209.734C45.7689 209.899 45.7217 210.037 45.6312 210.147C45.5406 210.258 45.4068 210.325 45.2336 210.36V210.38C45.4501 210.415 45.6076 210.494 45.7099 210.604C45.8122 210.714 45.8634 210.868 45.8634 211.053C45.8634 211.305 45.7768 211.502 45.6075 211.639C45.4383 211.777 45.1982 211.852 44.8872 211.852H43.8992V209.041V209.037ZM44.2534 210.23H44.773C44.9935 210.23 45.1549 210.195 45.2533 210.124C45.3517 210.053 45.4029 209.935 45.4029 209.77C45.4029 209.616 45.3478 209.506 45.2375 209.439C45.1273 209.372 44.9541 209.337 44.7179 209.337H44.2534V210.23ZM44.2534 210.529V211.549H44.8203C45.0447 211.549 45.2139 211.506 45.3202 211.419C45.4265 211.332 45.4855 211.198 45.4855 211.021C45.4855 210.844 45.4265 210.73 45.3123 210.647C45.1982 210.569 45.025 210.529 44.7927 210.529H44.2534Z" fill="#231815"/>
<path d="M48.052 211.096C48.052 211.34 47.9654 211.533 47.7883 211.675C47.6112 211.816 47.3671 211.887 47.0483 211.887C46.7137 211.887 46.4578 211.844 46.2767 211.753V211.415C46.3948 211.466 46.5247 211.506 46.6664 211.537C46.8081 211.568 46.942 211.58 47.064 211.58C47.2726 211.58 47.434 211.541 47.5403 211.458C47.6466 211.376 47.7017 211.265 47.7017 211.128C47.7017 211.033 47.682 210.958 47.6427 210.895C47.6033 210.832 47.5403 210.777 47.4498 210.726C47.3592 210.675 47.2215 210.612 47.0404 210.549C46.7806 210.455 46.5956 210.34 46.4814 210.214C46.3712 210.084 46.3161 209.919 46.3161 209.714C46.3161 209.494 46.3988 209.321 46.5641 209.191C46.7294 209.061 46.9459 208.998 47.2136 208.998C47.4813 208.998 47.7529 209.049 47.9891 209.155L47.8788 209.459C47.6387 209.36 47.4143 209.309 47.2057 209.309C47.0404 209.309 46.9105 209.344 46.816 209.415C46.7215 209.486 46.6743 209.588 46.6743 209.718C46.6743 209.809 46.694 209.888 46.7294 209.947C46.7648 210.006 46.8239 210.061 46.9066 210.112C46.9892 210.163 47.1152 210.218 47.2884 210.281C47.497 210.36 47.6545 210.431 47.7568 210.506C47.8592 210.577 47.9339 210.659 47.9851 210.754C48.0323 210.848 48.0599 210.958 48.0599 211.092L48.052 211.096Z" fill="#231815"/>
<path d="M50.1777 209.695C50.1777 209.876 50.1265 210.021 50.0281 210.136C49.9297 210.25 49.784 210.329 49.5951 210.368V210.384C49.8195 210.411 49.9887 210.482 50.0989 210.6C50.2092 210.718 50.2643 210.864 50.2643 211.049C50.2643 211.317 50.1698 211.525 49.9848 211.667C49.7998 211.813 49.5321 211.883 49.1857 211.883C49.0361 211.883 48.8984 211.872 48.7763 211.852C48.6543 211.832 48.5323 211.789 48.4142 211.734V211.411C48.5323 211.47 48.6622 211.517 48.796 211.549C48.9298 211.58 49.0637 211.596 49.1896 211.596C49.662 211.596 49.9021 211.411 49.9021 211.041C49.9021 210.71 49.6384 210.545 49.1149 210.545H48.8432V210.25H49.1188C49.3392 210.25 49.5124 210.203 49.6345 210.108C49.7604 210.014 49.8195 209.884 49.8195 209.718C49.8195 209.585 49.7762 209.478 49.6856 209.403C49.5951 209.329 49.4691 209.289 49.3117 209.289C49.1857 209.289 49.0716 209.305 48.9653 209.341C48.859 209.376 48.737 209.435 48.5992 209.526L48.426 209.289C48.5401 209.199 48.674 209.128 48.8236 209.077C48.9731 209.026 49.1345 208.998 49.3038 208.998C49.5793 208.998 49.7919 209.061 49.9454 209.187C50.0989 209.313 50.1737 209.482 50.1737 209.699L50.1777 209.695Z" fill="#231815"/>
<path d="M50.6461 210.943V210.636H51.5987V210.943H50.6461Z" fill="#231815"/>
<path d="M53.8975 211.844L53.559 210.974H52.445L52.1104 211.844H51.7522L52.8504 209.022H53.1693L54.2636 211.844H53.8975ZM53.4566 210.663L53.1417 209.813L53.0079 209.392C52.9685 209.545 52.9292 209.687 52.8859 209.813L52.567 210.663H53.4566Z" fill="#231815"/>
<path d="M56.4522 209.864C56.4522 210.151 56.3538 210.372 56.157 210.525C55.9602 210.679 55.6846 210.754 55.3304 210.754H55.0076V211.848H54.6533V209.037H55.3973C56.1019 209.037 56.4522 209.313 56.4522 209.864ZM55.0076 210.447H55.291C55.5705 210.447 55.7712 210.403 55.8972 210.313C56.0232 210.222 56.0862 210.077 56.0862 209.876C56.0862 209.695 56.0271 209.561 55.913 209.47C55.7988 209.38 55.6138 209.337 55.3658 209.337H55.0076V210.447Z" fill="#231815"/>
<path d="M59.5147 211.844H59.1565L58.6093 210.002C58.5267 209.726 58.4794 209.541 58.4676 209.447C58.4479 209.592 58.4007 209.781 58.3338 210.014L57.8024 211.844H57.4442L56.7002 209.033H57.0702L57.5071 210.75C57.5662 210.974 57.6095 211.198 57.641 211.419C57.6685 211.21 57.7197 210.978 57.7906 210.73L58.2865 209.033H58.6526L59.1683 210.742C59.2352 210.962 59.2864 211.191 59.3218 211.419C59.3415 211.242 59.3887 211.017 59.4596 210.746L59.8926 209.033H60.2626L59.5147 211.844Z" fill="#231815"/>
<path d="M60.6956 209.037H61.4986C61.8765 209.037 62.1481 209.093 62.3134 209.207C62.4787 209.317 62.5653 209.494 62.5653 209.734C62.5653 209.899 62.5181 210.037 62.4276 210.147C62.337 210.258 62.2032 210.325 62.03 210.36V210.38C62.2465 210.415 62.4039 210.494 62.5063 210.604C62.6086 210.714 62.6598 210.868 62.6598 211.053C62.6598 211.305 62.5732 211.502 62.4039 211.639C62.2347 211.777 61.9946 211.852 61.6836 211.852H60.6956V209.041V209.037ZM61.0498 210.23H61.5694C61.7899 210.23 61.9513 210.195 62.0497 210.124C62.1481 210.053 62.1992 209.935 62.1992 209.77C62.1992 209.616 62.1441 209.506 62.0339 209.439C61.9237 209.372 61.7505 209.337 61.5143 209.337H61.0498V210.23ZM61.0498 210.529V211.549H61.6167C61.841 211.549 62.0103 211.506 62.1166 211.419C62.2229 211.332 62.2819 211.198 62.2819 211.021C62.2819 210.844 62.2229 210.73 62.1087 210.647C61.9946 210.569 61.8214 210.529 61.5891 210.529H61.0498Z" fill="#231815"/>
<path d="M109.994 220.902H40.2579" stroke="#231815" stroke-width="0.5" stroke-linecap="round" stroke-linejoin="round" stroke-dasharray="5 6 5 6"/>
<path d="M29.0984 209.746V41.258" stroke="#231815" stroke-width="0.5" stroke-linecap="round" stroke-linejoin="round" stroke-dasharray="5 6 5 6"/>
<path d="M121.154 41.258V209.746" stroke="#231815" stroke-width="0.5" stroke-linecap="round" stroke-linejoin="round" stroke-dasharray="5 6 5 6"/>
<path d="M40.2579 30.0984H109.994" stroke="#231815" stroke-width="0.5" stroke-linecap="round" stroke-linejoin="round" stroke-dasharray="5 6 5 6"/>
<path d="M29.0984 209.746C29.0984 215.91 34.0936 220.906 40.258 220.906" stroke="#231815" stroke-width="0.5" stroke-linecap="round" stroke-linejoin="round" stroke-dasharray="5 6 5 6"/>
<path d="M40.258 30.0984C34.0936 30.0984 29.0984 35.0936 29.0984 41.258" stroke="#231815" stroke-width="0.5" stroke-linecap="round" stroke-linejoin="round" stroke-dasharray="5 6 5 6"/>
<path d="M109.995 220.902C116.159 220.902 121.154 215.906 121.154 209.742" stroke="#231815" stroke-width="0.5" stroke-linecap="round" stroke-linejoin="round" stroke-dasharray="5 6 5 6"/>
<path d="M121.154 41.258C121.154 35.0936 116.159 30.0984 109.995 30.0984" stroke="#231815" stroke-width="0.5" stroke-linecap="round" stroke-linejoin="round" stroke-dasharray="5 6 5 6"/>
<path d="M116.399 212.068V216.454" stroke="#231815" stroke-width="0.83" stroke-linecap="round" stroke-linejoin="round"/>
<path d="M116.399 216.454H111.845" stroke="#231815" stroke-width="0.83" stroke-linecap="round" stroke-linejoin="round"/>
<path d="M116.367 212.068C116.194 212.34 115.675 213.056 114.541 213.545C113.435 214.021 112.388 214.005 111.99 213.981" stroke="#231815" stroke-width="0.83" stroke-linecap="round" stroke-linejoin="round"/>
<path d="M111.951 214.009C112.47 214.714 112.596 215.536 112.282 216.052C112.215 216.162 112.085 216.324 111.845 216.45" stroke="#231815" stroke-width="0.83" stroke-linecap="round" stroke-linejoin="round"/>
<path d="M116.387 212.096C116.151 212.73 115.627 213.824 114.411 214.883C113.502 215.678 112.537 216.166 111.86 216.449" stroke="#231815" stroke-width="0.83" stroke-linecap="round" stroke-linejoin="round"/>
<path d="M110.825 208.376V206.593H111.498C111.616 206.593 111.707 206.597 111.77 206.609C111.856 206.624 111.931 206.652 111.99 206.691C112.049 206.731 112.097 206.79 112.132 206.865C112.167 206.939 112.187 207.018 112.187 207.109C112.187 207.258 112.14 207.388 112.041 207.494C111.943 207.601 111.77 207.652 111.518 207.652H111.061V208.376H110.825ZM111.061 207.439H111.522C111.675 207.439 111.782 207.412 111.849 207.353C111.912 207.294 111.943 207.215 111.943 207.113C111.943 207.038 111.923 206.975 111.888 206.92C111.849 206.865 111.801 206.833 111.738 206.813C111.699 206.802 111.624 206.798 111.518 206.798H111.061V207.435V207.439Z" fill="#231815"/>
<path d="M112.49 208.376V206.593H113.781V206.802H112.726V207.349H113.714V207.557H112.726V208.164H113.821V208.372H112.49V208.376Z" fill="#231815"/>
<path d="M114.151 208.376V206.593H115.442V206.802H114.388V207.349H115.376V207.557H114.388V208.164H115.482V208.372H114.151V208.376Z" fill="#231815"/>
<path d="M115.801 208.376V206.593H116.037V208.167H116.915V208.376H115.801Z" fill="#231815"/>
<path d="M110.833 211.368V209.585H111.069V210.317H111.994V209.585H112.23V211.368H111.994V210.525H111.069V211.368H110.833Z" fill="#231815"/>
<path d="M112.628 211.368V209.585H113.919V209.793H112.864V210.34H113.852V210.549H112.864V211.155H113.958V211.364H112.628V211.368Z" fill="#231815"/>
<path d="M114.289 211.368V209.585H115.08C115.238 209.585 115.36 209.6 115.442 209.632C115.525 209.663 115.592 209.718 115.639 209.801C115.69 209.884 115.714 209.97 115.714 210.069C115.714 210.195 115.675 210.301 115.592 210.388C115.509 210.474 115.383 210.529 115.214 210.553C115.277 210.584 115.324 210.612 115.356 210.643C115.423 210.706 115.49 210.785 115.553 210.88L115.864 211.364H115.568L115.332 210.994C115.265 210.887 115.206 210.805 115.163 210.75C115.12 210.691 115.08 210.651 115.045 210.632C115.009 210.608 114.974 210.592 114.939 210.584C114.911 210.577 114.868 210.577 114.809 210.577H114.533V211.368H114.297H114.289ZM114.525 210.368H115.033C115.139 210.368 115.226 210.356 115.285 210.336C115.344 210.313 115.391 210.277 115.423 210.23C115.454 210.179 115.47 210.128 115.47 210.069C115.47 209.986 115.438 209.915 115.379 209.86C115.316 209.805 115.222 209.777 115.088 209.777H114.525V210.368Z" fill="#231815"/>
<path d="M116.088 211.368V209.585H117.379V209.793H116.324V210.34H117.312V210.549H116.324V211.155H117.418V211.364H116.088V211.368Z" fill="#231815"/>
<path d="M66.7496 130.495V130.834H64.7854C64.6122 130.834 64.4508 130.83 64.3012 130.818C64.3406 130.853 64.376 130.893 64.4075 130.932C64.5177 131.062 64.6358 131.208 64.7618 131.361L64.5295 131.542L63.9391 130.783V130.495H66.7496Z" fill="#231815"/>
<path d="M65.5491 129.425C64.4509 129.425 63.8998 128.995 63.8998 128.137C63.8998 127.988 63.9116 127.874 63.9352 127.791H64.2304C64.1989 127.889 64.1832 128.004 64.1832 128.129C64.1832 128.429 64.2737 128.657 64.4548 128.814C64.6359 128.972 64.9232 129.058 65.3208 129.078V129.055C65.1004 128.913 64.9902 128.692 64.9902 128.389C64.9902 128.137 65.0689 127.937 65.2224 127.791C65.3759 127.645 65.5845 127.574 65.8443 127.574C66.1356 127.574 66.3639 127.653 66.5332 127.815C66.7025 127.976 66.7851 128.192 66.7851 128.468C66.7851 128.661 66.7379 128.83 66.6395 128.972C66.5411 129.118 66.3994 129.228 66.2104 129.306C66.0215 129.385 65.801 129.425 65.5452 129.425H65.5491ZM66.4978 128.472C66.4978 128.295 66.4427 128.157 66.3285 128.063C66.2144 127.968 66.053 127.917 65.8443 127.917C65.6554 127.917 65.5137 127.964 65.4113 128.059C65.3129 128.153 65.2618 128.287 65.2618 128.464C65.2618 128.574 65.2854 128.677 65.3326 128.771C65.3799 128.866 65.4428 128.936 65.5255 128.995C65.6082 129.051 65.6908 129.078 65.7774 129.078C65.9073 129.078 66.0254 129.051 66.1396 128.999C66.2498 128.948 66.3403 128.877 66.4033 128.787C66.4663 128.696 66.4978 128.594 66.4978 128.476V128.472Z" fill="#231815"/>
<path d="M66.1118 125.217V125.626H66.7495V125.961H66.1118V127.307H65.8166L63.9232 125.984V125.626H65.8009V125.217H66.1118ZM65.8009 125.961H64.9152C64.738 125.961 64.5334 125.953 64.2932 125.941V125.957C64.3247 125.972 64.3759 125.996 64.4428 126.031C64.5097 126.067 64.5609 126.098 64.6003 126.126L65.8009 126.968V125.961Z" fill="#231815"/>
<path d="M43.3244 57.3813C44.4027 57.3813 45.2768 56.5072 45.2768 55.4289C45.2768 54.3506 44.4027 53.4764 43.3244 53.4764C42.2461 53.4764 41.3719 54.3506 41.3719 55.4289C41.3719 56.5072 42.2461 57.3813 43.3244 57.3813Z" stroke="#9FA0A0" stroke-linecap="round" stroke-linejoin="round"/>
<path d="M72.8943 213.371H77.3581" stroke="#231815" stroke-linecap="round" stroke-linejoin="round"/>
<path d="M77.3581 208.349H72.8943" stroke="#231815" stroke-linecap="round" stroke-linejoin="round"/>
<path d="M72.8943 208.349C71.5087 208.349 70.3829 209.474 70.3829 210.86C70.3829 212.246 71.5087 213.371 72.8943 213.371" stroke="#231815" stroke-linecap="round" stroke-linejoin="round"/>
<path d="M77.3582 213.371C78.7438 213.371 79.8696 212.246 79.8696 210.86C79.8696 209.474 78.7438 208.349 77.3582 208.349" stroke="#231815" stroke-linecap="round" stroke-linejoin="round"/>
<path d="M72.6149 115.458V119.922" stroke="#231815" stroke-linecap="round" stroke-linejoin="round"/>
<path d="M77.6377 119.922V115.458" stroke="#231815" stroke-linecap="round" stroke-linejoin="round"/>
<path d="M72.6149 119.922C72.6149 121.308 73.7407 122.434 75.1263 122.434C76.5119 122.434 77.6377 121.308 77.6377 119.922" stroke="#231815" stroke-linecap="round" stroke-linejoin="round"/>
<path d="M77.6377 115.458C77.6377 114.073 76.5119 112.947 75.1263 112.947C73.7407 112.947 72.6149 114.073 72.6149 115.458" stroke="#231815" stroke-linecap="round" stroke-linejoin="round"/>
<path d="M106.928 57.3813C108.006 57.3813 108.881 56.5072 108.881 55.4289C108.881 54.3506 108.006 53.4764 106.928 53.4764C105.85 53.4764 104.976 54.3506 104.976 55.4289C104.976 56.5072 105.85 57.3813 106.928 57.3813Z" stroke="#9FA0A0" stroke-linecap="round" stroke-linejoin="round"/>
<path d="M63.6873 198.697H86.5614" stroke="#9FA0A0" stroke-linecap="round" stroke-linejoin="round"/>
<path d="M86.5614 170.804H63.6873" stroke="#9FA0A0" stroke-linecap="round" stroke-linejoin="round"/>
<path d="M60.3413 174.149V195.351" stroke="#9FA0A0" stroke-linecap="round" stroke-linejoin="round"/>
<path d="M89.9113 195.351V174.149" stroke="#9FA0A0" stroke-linecap="round" stroke-linejoin="round"/>
<path d="M60.3413 195.351C60.3413 197.201 61.8411 198.697 63.6872 198.697" stroke="#9FA0A0" stroke-linecap="round" stroke-linejoin="round"/>
<path d="M63.6872 170.804C61.8371 170.804 60.3413 172.303 60.3413 174.149" stroke="#9FA0A0" stroke-linecap="round" stroke-linejoin="round"/>
<path d="M86.5614 198.697C88.4115 198.697 89.9073 197.197 89.9073 195.351" stroke="#9FA0A0" stroke-linecap="round" stroke-linejoin="round"/>
<path d="M89.9112 174.149C89.9112 172.299 88.4115 170.804 86.5653 170.804" stroke="#9FA0A0" stroke-linecap="round" stroke-linejoin="round"/>
<path d="M68.71 126.953V133.648" stroke="#9FA0A0" stroke-linecap="round" stroke-linejoin="round"/>
<path d="M69.2689 134.203H80.9835" stroke="#9FA0A0" stroke-linecap="round" stroke-linejoin="round"/>
<path d="M80.9835 126.394H69.2689" stroke="#9FA0A0" stroke-linecap="round" stroke-linejoin="round"/>
<path d="M81.5425 133.648V126.953" stroke="#9FA0A0" stroke-linecap="round" stroke-linejoin="round"/>
<path d="M68.71 133.648C68.71 133.955 68.958 134.207 69.2689 134.207" stroke="#9FA0A0" stroke-linecap="round" stroke-linejoin="round"/>
<path d="M69.2689 126.394C68.9619 126.394 68.71 126.642 68.71 126.953" stroke="#9FA0A0" stroke-linecap="round" stroke-linejoin="round"/>
<path d="M80.9835 134.203C81.2906 134.203 81.5425 133.955 81.5425 133.644" stroke="#9FA0A0" stroke-linecap="round" stroke-linejoin="round"/>
<path d="M81.5425 126.953C81.5425 126.645 81.2945 126.394 80.9835 126.394" stroke="#9FA0A0" stroke-linecap="round" stroke-linejoin="round"/>
<path d="M72.3354 219.788H62.2937" stroke="#231815" stroke-linecap="round" stroke-linejoin="round"/>
<path d="M62.2937 219.788V218.674" stroke="#231815" stroke-linecap="round" stroke-linejoin="round"/>
<path d="M72.3354 219.788V218.674" stroke="#231815" stroke-linecap="round" stroke-linejoin="round"/>
<path d="M105.637 215.883H73.4534" stroke="#231815" stroke-linecap="round" stroke-linejoin="round"/>
<path d="M61.1798 215.883H44.6156" stroke="#231815" stroke-linecap="round" stroke-linejoin="round"/>
<path d="M39.5337 39.0379L36.2272 42.8168" stroke="#231815" stroke-linecap="round" stroke-linejoin="round"/>
<path d="M115.797 204.164H111.561" stroke="#231815" stroke-linecap="round" stroke-linejoin="round"/>
<path d="M38.6874 204.164H34.4558" stroke="#231815" stroke-linecap="round" stroke-linejoin="round"/>
<path d="M35.5698 197.138H36.1288" stroke="#231815" stroke-linecap="round" stroke-linejoin="round"/>
<path d="M114.124 197.138H114.683" stroke="#231815" stroke-linecap="round" stroke-linejoin="round"/>
<path d="M115.797 194.347H114.683" stroke="#231815" stroke-linecap="round" stroke-linejoin="round"/>
<path d="M35.5698 194.347H34.4558" stroke="#231815" stroke-linecap="round" stroke-linejoin="round"/>
<path d="M115.797 185.978H114.124" stroke="#231815" stroke-linecap="round" stroke-linejoin="round"/>
<path d="M34.4558 185.978H36.1288" stroke="#231815" stroke-linecap="round" stroke-linejoin="round"/>
<path d="M42.4231 214.068L40.88 205.979" stroke="#231815" stroke-linecap="round" stroke-linejoin="round"/>
<path d="M34.4558 204.164V194.347" stroke="#231815" stroke-linecap="round" stroke-linejoin="round"/>
<path d="M34.4558 185.978V57.1018" stroke="#231815" stroke-linecap="round" stroke-linejoin="round"/>
<path d="M34.4558 48.7331V42.9309" stroke="#231815" stroke-linecap="round" stroke-linejoin="round"/>
<path d="M35.5698 197.138V194.347" stroke="#231815" stroke-linecap="round" stroke-linejoin="round"/>
<path d="M35.5698 59.8927V57.1018" stroke="#231815" stroke-linecap="round" stroke-linejoin="round"/>
<path d="M36.6877 49.2921V59.3338" stroke="#231815" stroke-linecap="round" stroke-linejoin="round"/>
<path d="M36.6877 186.537V196.579" stroke="#231815" stroke-linecap="round" stroke-linejoin="round"/>
<path d="M42.7655 36.7942V37.9081" stroke="#231815" stroke-linecap="round" stroke-linejoin="round"/>
<path d="M42.7655 38.1325V37.9318" stroke="#231815" stroke-linecap="round" stroke-linejoin="round"/>
<path d="M62.2937 218.674V216.997" stroke="#231815" stroke-linecap="round" stroke-linejoin="round"/>
<path d="M68.4305 38.3569V36.7942" stroke="#231815" stroke-linecap="round" stroke-linejoin="round"/>
<path d="M72.3354 216.997V218.674" stroke="#231815" stroke-linecap="round" stroke-linejoin="round"/>
<path d="M81.822 38.3569V36.7942" stroke="#231815" stroke-linecap="round" stroke-linejoin="round"/>
<path d="M107.483 38.1325V37.9318" stroke="#231815" stroke-linecap="round" stroke-linejoin="round"/>
<path d="M107.483 37.9081V36.7942" stroke="#231815" stroke-linecap="round" stroke-linejoin="round"/>
<path d="M113.565 196.579V186.537" stroke="#231815" stroke-linecap="round" stroke-linejoin="round"/>
<path d="M113.565 59.3338V49.2921" stroke="#231815" stroke-linecap="round" stroke-linejoin="round"/>
<path d="M114.683 197.138V194.347" stroke="#231815" stroke-linecap="round" stroke-linejoin="round"/>
<path d="M115.797 42.9309V48.7331" stroke="#231815" stroke-linecap="round" stroke-linejoin="round"/>
<path d="M115.797 204.164V194.347" stroke="#231815" stroke-linecap="round" stroke-linejoin="round"/>
<path d="M115.797 185.978V57.1018" stroke="#231815" stroke-linecap="round" stroke-linejoin="round"/>
<path d="M109.373 205.979L107.83 214.068" stroke="#231815" stroke-linecap="round" stroke-linejoin="round"/>
<path d="M35.5698 59.8927H36.1288" stroke="#231815" stroke-linecap="round" stroke-linejoin="round"/>
<path d="M114.124 59.8927H114.683" stroke="#231815" stroke-linecap="round" stroke-linejoin="round"/>
<path d="M115.797 57.1018H114.683" stroke="#231815" stroke-linecap="round" stroke-linejoin="round"/>
<path d="M35.5698 57.1018H34.4558" stroke="#231815" stroke-linecap="round" stroke-linejoin="round"/>
<path d="M34.4558 48.7331H36.1288" stroke="#231815" stroke-linecap="round" stroke-linejoin="round"/>
<path d="M114.124 48.7331H115.797" stroke="#231815" stroke-linecap="round" stroke-linejoin="round"/>
<path d="M115.797 42.9309H114.277" stroke="#231815" stroke-linecap="round" stroke-linejoin="round"/>
<path d="M34.4558 42.9309H35.9752" stroke="#231815" stroke-linecap="round" stroke-linejoin="round"/>
<path d="M114.025 42.8168L110.719 39.0379" stroke="#231815" stroke-linecap="round" stroke-linejoin="round"/>
<path d="M109.459 38.4671H107.818" stroke="#231815" stroke-linecap="round" stroke-linejoin="round"/>
<path d="M42.4309 38.4671H40.7933" stroke="#231815" stroke-linecap="round" stroke-linejoin="round"/>
<path d="M68.4305 38.3569H81.822" stroke="#231815" stroke-linecap="round" stroke-linejoin="round"/>
<path d="M42.7655 36.7942H68.4306" stroke="#231815" stroke-linecap="round" stroke-linejoin="round"/>
<path d="M81.822 36.7942H107.483" stroke="#231815" stroke-linecap="round" stroke-linejoin="round"/>
<path d="M42.423 214.068C42.6237 215.119 43.5448 215.883 44.6155 215.883" stroke="#231815" stroke-linecap="round" stroke-linejoin="round"/>
<path d="M40.8799 205.979C40.6792 204.928 39.7581 204.164 38.6874 204.164" stroke="#231815" stroke-linecap="round" stroke-linejoin="round"/>
<path d="M73.4533 215.883C72.8353 215.883 72.3394 216.383 72.3394 216.997" stroke="#231815" stroke-linecap="round" stroke-linejoin="round"/>
<path d="M62.2938 216.997C62.2938 216.379 61.7939 215.883 61.1798 215.883" stroke="#231815" stroke-linecap="round" stroke-linejoin="round"/>
<path d="M36.6877 186.537C36.6877 186.23 36.4398 185.978 36.1288 185.978" stroke="#231815" stroke-linecap="round" stroke-linejoin="round"/>
<path d="M36.1288 197.138C36.4358 197.138 36.6877 196.89 36.6877 196.579" stroke="#231815" stroke-linecap="round" stroke-linejoin="round"/>
<path d="M40.7933 38.4671C40.3092 38.4671 39.8525 38.6757 39.5337 39.0379" stroke="#231815" stroke-linecap="round" stroke-linejoin="round"/>
<path d="M36.1288 59.8927C36.4358 59.8927 36.6877 59.6447 36.6877 59.3337" stroke="#231815" stroke-linecap="round" stroke-linejoin="round"/>
<path d="M36.6877 49.2921C36.6877 48.9851 36.4398 48.7331 36.1288 48.7331" stroke="#231815" stroke-linecap="round" stroke-linejoin="round"/>
<path d="M35.9752 42.9309C36.0736 42.9309 36.1642 42.8876 36.2271 42.8168" stroke="#231815" stroke-linecap="round" stroke-linejoin="round"/>
<path d="M42.4309 38.4671C42.6159 38.4671 42.7655 38.3175 42.7655 38.1325" stroke="#231815" stroke-linecap="round" stroke-linejoin="round"/>
<path d="M105.637 215.883C106.708 215.883 107.629 215.123 107.83 214.068" stroke="#231815" stroke-linecap="round" stroke-linejoin="round"/>
<path d="M111.561 204.164C110.491 204.164 109.569 204.924 109.369 205.979" stroke="#231815" stroke-linecap="round" stroke-linejoin="round"/>
<path d="M114.124 185.978C113.817 185.978 113.565 186.226 113.565 186.537" stroke="#231815" stroke-linecap="round" stroke-linejoin="round"/>
<path d="M113.565 196.579C113.565 196.886 113.813 197.138 114.124 197.138" stroke="#231815" stroke-linecap="round" stroke-linejoin="round"/>
<path d="M110.719 39.0379C110.4 38.6757 109.943 38.4671 109.459 38.4671" stroke="#231815" stroke-linecap="round" stroke-linejoin="round"/>
<path d="M114.124 48.7331C113.817 48.7331 113.565 48.9811 113.565 49.2921" stroke="#231815" stroke-linecap="round" stroke-linejoin="round"/>
<path d="M113.565 59.3337C113.565 59.6408 113.813 59.8927 114.124 59.8927" stroke="#231815" stroke-linecap="round" stroke-linejoin="round"/>
<path d="M114.025 42.8168C114.088 42.8876 114.179 42.9309 114.277 42.9309" stroke="#231815" stroke-linecap="round" stroke-linejoin="round"/>
<path d="M107.483 38.1325C107.483 38.3175 107.633 38.4671 107.818 38.4671" stroke="#231815" stroke-linecap="round" stroke-linejoin="round"/>
<path d="M114.683 59.8927V57.1018" stroke="#231815" stroke-linecap="round" stroke-linejoin="round"/>
<path d="M65.3484 122.434V37.9672" stroke="#231815" stroke-width="0.5" stroke-linecap="round" stroke-linejoin="round"/>
<path d="M66.0766 38.5222L65.3483 38.2112L64.6201 38.5222L65.3483 36.7942L66.0766 38.5222Z" fill="#231815"/>
<path d="M65.3484 218.611V133.924" stroke="#231815" stroke-width="0.5" stroke-linecap="round" stroke-linejoin="round"/>
<path d="M66.0766 218.06L65.3483 218.371L64.6201 218.06L65.3483 219.788L66.0766 218.06Z" fill="#231815"/>
<path d="M98.957 130.133V130.472H96.9928C96.8196 130.472 96.6582 130.468 96.5086 130.456C96.548 130.491 96.5834 130.531 96.6149 130.57C96.7251 130.7 96.8432 130.842 96.9692 130.999L96.7369 131.18L96.1465 130.42V130.133H98.957Z" fill="#231815"/>
<path d="M97.7564 129.062C96.6581 129.062 96.1071 128.633 96.1071 127.775C96.1071 127.626 96.1189 127.511 96.1425 127.429H96.4377C96.4062 127.527 96.3905 127.641 96.3905 127.767C96.3905 128.066 96.481 128.295 96.6621 128.452C96.8432 128.61 97.1305 128.696 97.5281 128.716V128.692C97.3076 128.551 97.1974 128.33 97.1974 128.027C97.1974 127.775 97.2762 127.574 97.4297 127.429C97.5832 127.283 97.7918 127.212 98.0516 127.212C98.3429 127.212 98.5712 127.291 98.7405 127.452C98.9097 127.614 98.9924 127.83 98.9924 128.106C98.9924 128.299 98.9452 128.468 98.8468 128.61C98.7484 128.755 98.6066 128.866 98.4177 128.944C98.2288 129.023 98.0083 129.062 97.7525 129.062H97.7564ZM98.7051 128.11C98.7051 127.933 98.6499 127.795 98.5358 127.7C98.4216 127.606 98.2602 127.555 98.0516 127.555C97.8627 127.555 97.721 127.602 97.6186 127.696C97.5202 127.791 97.469 127.925 97.469 128.102C97.469 128.212 97.4927 128.314 97.5399 128.409C97.5871 128.503 97.6501 128.578 97.7328 128.633C97.8154 128.688 97.8981 128.716 97.9847 128.716C98.1146 128.716 98.2327 128.692 98.3468 128.637C98.4571 128.586 98.5476 128.515 98.6106 128.425C98.6736 128.334 98.7051 128.228 98.7051 128.114V128.11Z" fill="#231815"/>
<path d="M97.5478 124.969C98.0359 124.969 98.398 125.047 98.6382 125.201C98.8783 125.354 98.9964 125.591 98.9964 125.905C98.9964 126.22 98.8743 126.441 98.6264 126.598C98.3823 126.756 98.0202 126.834 97.5478 126.834C97.0754 126.834 96.6936 126.76 96.4574 126.606C96.2212 126.453 96.1031 126.22 96.1031 125.902C96.1031 125.583 96.2252 125.366 96.4732 125.205C96.7212 125.043 97.0794 124.965 97.5478 124.965V124.969ZM97.5478 126.488C97.9572 126.488 98.2485 126.441 98.4295 126.35C98.6106 126.26 98.7011 126.11 98.7011 125.905C98.7011 125.701 98.6067 125.551 98.4217 125.457C98.2367 125.362 97.9454 125.319 97.5478 125.319C97.1502 125.319 96.8629 125.366 96.6779 125.457C96.4928 125.547 96.3984 125.697 96.3984 125.905C96.3984 126.114 96.4889 126.26 96.67 126.35C96.8511 126.441 97.1423 126.488 97.5478 126.488Z" fill="#231815"/>
<path d="M98.7444 124.496C98.6618 124.496 98.5949 124.477 98.5476 124.433C98.5004 124.39 98.4807 124.331 98.4807 124.256C98.4807 124.181 98.5043 124.118 98.5476 124.075C98.5949 124.032 98.6578 124.008 98.7444 124.008C98.831 124.008 98.894 124.032 98.9413 124.075C98.9885 124.118 99.0121 124.181 99.0121 124.256C99.0121 124.331 98.9885 124.39 98.9413 124.433C98.894 124.477 98.8271 124.496 98.7444 124.496Z" fill="#231815"/>
<path d="M97.2327 122.638C97.2327 122.343 97.3075 122.115 97.4531 121.945C97.5988 121.776 97.8034 121.694 98.0593 121.694C98.3506 121.694 98.5789 121.788 98.7482 121.973C98.9135 122.158 98.9962 122.418 98.9962 122.745C98.9962 123.071 98.945 123.3 98.8426 123.473H98.5159C98.571 123.378 98.6183 123.264 98.6498 123.13C98.6813 122.996 98.7009 122.867 98.7009 122.741C98.7009 122.52 98.6498 122.351 98.5435 122.229C98.4372 122.107 98.2876 122.048 98.0947 122.048C97.7168 122.048 97.524 122.284 97.524 122.752C97.524 122.902 97.5436 123.063 97.583 123.233L97.4728 123.406L96.1462 123.3V121.89H96.4612V123.004L97.276 123.071C97.2445 122.926 97.2327 122.78 97.2327 122.638Z" fill="#231815"/>
<path d="M97.5557 119.363V37.9672" stroke="#231815" stroke-width="0.5" stroke-linecap="round" stroke-linejoin="round"/>
<path d="M98.2838 38.5222L97.5556 38.2112L96.8274 38.5222L97.5556 36.7942L98.2838 38.5222Z" fill="#231815"/>
<path d="M97.5557 214.706V133.31" stroke="#231815" stroke-width="0.5" stroke-linecap="round" stroke-linejoin="round"/>
<path d="M98.2838 214.155L97.5556 214.466L96.8274 214.155L97.5556 215.883L98.2838 214.155Z" fill="#231815"/>
<path d="M71.6071 92.5879L72.7605 90.0922H71.245V89.7773H73.1305V90.045L71.989 92.5879H71.6071Z" fill="#231815"/>
<path d="M75.3703 92.5881H73.5123V92.3007L74.2484 91.5568C74.4689 91.3324 74.6184 91.171 74.6893 91.0765C74.7602 90.9821 74.8153 90.8876 74.8507 90.7971C74.8861 90.7065 74.9019 90.6121 74.9019 90.5058C74.9019 90.3562 74.8586 90.242 74.768 90.1594C74.6775 90.0767 74.5594 90.0334 74.4059 90.0334C74.2917 90.0334 74.1815 90.0531 74.0792 90.0925C73.9768 90.1318 73.8587 90.2027 73.7288 90.3011L73.5438 90.0688C73.8076 89.8484 74.0949 89.7382 74.4059 89.7382C74.6657 89.7382 74.8743 89.8051 75.0278 89.9389C75.1813 90.0728 75.2561 90.2538 75.2561 90.4861C75.2561 90.6081 75.2325 90.7262 75.1892 90.8443C75.1459 90.9585 75.079 91.0765 74.9885 91.1946C74.8979 91.3127 74.7483 91.4741 74.5358 91.6827L73.9493 92.2614V92.2771H75.3703V92.592V92.5881Z" fill="#231815"/>
<path d="M75.8545 92.3755C75.8545 92.2929 75.8742 92.226 75.9175 92.1787C75.9608 92.1315 76.0198 92.1118 76.0946 92.1118C76.1694 92.1118 76.2324 92.1354 76.2757 92.1787C76.319 92.226 76.3426 92.2889 76.3426 92.3755C76.3426 92.4621 76.3229 92.5251 76.2757 92.5724C76.2324 92.6196 76.1733 92.6432 76.0946 92.6432C76.0159 92.6432 75.9608 92.6196 75.9175 92.5724C75.8742 92.5251 75.8545 92.4582 75.8545 92.3755Z" fill="#231815"/>
<path d="M78.673 90.9781C78.673 92.0764 78.2439 92.6275 77.3818 92.6275C77.2323 92.6275 77.1142 92.6157 77.0276 92.5881V92.2929C77.126 92.3283 77.2401 92.344 77.374 92.344C77.5826 92.344 77.7558 92.3007 77.8896 92.2181C78.0274 92.1354 78.1297 92.0134 78.2006 91.852C78.2715 91.6906 78.3108 91.478 78.3226 91.2104H78.299C78.1573 91.4269 77.9329 91.5371 77.6298 91.5371C77.3818 91.5371 77.185 91.4623 77.0394 91.3127C76.8937 91.1631 76.8229 90.9545 76.8229 90.6908C76.8229 90.3995 76.9055 90.1712 77.0669 89.998C77.2283 89.8248 77.4488 89.7421 77.7204 89.7421C77.9132 89.7421 78.0825 89.7893 78.2242 89.8878C78.3699 89.9862 78.4801 90.1279 78.5549 90.3168C78.6336 90.5058 78.669 90.7262 78.669 90.9821L78.673 90.9781ZM77.7204 90.0295C77.5472 90.0295 77.4094 90.0846 77.311 90.1987C77.2126 90.3129 77.1653 90.4743 77.1653 90.6829C77.1653 90.8718 77.2126 91.0136 77.3031 91.112C77.3936 91.2104 77.5275 91.2615 77.7046 91.2615C77.8188 91.2615 77.9251 91.2379 78.0195 91.1907C78.114 91.1435 78.1888 91.0805 78.2439 91.0017C78.299 90.923 78.3266 90.8364 78.3266 90.7498C78.3266 90.6199 78.3029 90.5018 78.2518 90.3916C78.2006 90.2814 78.1297 90.1909 78.0392 90.1279C77.9487 90.061 77.8424 90.0295 77.7243 90.0295H77.7204Z" fill="#231815"/>
<path d="M82.1014 91.1868H114.624" stroke="#231815" stroke-width="0.5" stroke-linecap="round" stroke-linejoin="round"/>
<path d="M114.069 91.915L114.38 91.1868L114.069 90.4585L115.797 91.1868L114.069 91.915Z" fill="#231815"/>
<path d="M75.1262 117.69H86.5613" stroke="#231815" stroke-width="0.5" stroke-linecap="round" stroke-linejoin="round"/>
<path d="M75.1262 210.86H86.5613" stroke="#231815" stroke-width="0.5" stroke-linecap="round" stroke-linejoin="round"/>
<path d="M35.6289 91.1868H68.1511" stroke="#231815" stroke-width="0.5" stroke-linecap="round" stroke-linejoin="round"/>
<path d="M36.1839 91.915L35.8729 91.1868L36.1839 90.4585L34.4558 91.1868L36.1839 91.915Z" fill="#231815"/>
<path d="M81.637 166.544C81.637 166.289 81.696 166.084 81.8141 165.93C81.9322 165.777 82.0975 165.702 82.3062 165.702C82.4479 165.702 82.5738 165.745 82.6841 165.832C82.7943 165.919 82.9006 166.052 82.995 166.241C83.1053 166.013 83.2194 165.852 83.3414 165.757C83.4595 165.663 83.5973 165.615 83.7548 165.615C83.987 165.615 84.1759 165.698 84.3137 165.863C84.4515 166.029 84.5223 166.253 84.5223 166.537C84.5223 166.836 84.4554 167.068 84.3255 167.233C84.1956 167.399 84.0067 167.477 83.7666 167.477C83.4477 167.477 83.1958 167.284 83.0147 166.895C82.9163 167.068 82.8061 167.194 82.6919 167.273C82.5778 167.351 82.4479 167.387 82.3022 167.387C82.0975 167.387 81.9362 167.312 81.8141 167.158C81.6921 167.005 81.6331 166.8 81.6331 166.548L81.637 166.544ZM81.9165 166.548C81.9165 166.698 81.9519 166.82 82.0228 166.91C82.0936 167.001 82.192 167.044 82.3219 167.044C82.4046 167.044 82.4754 167.029 82.5345 166.993C82.5935 166.958 82.6526 166.911 82.6998 166.844C82.747 166.777 82.8022 166.674 82.8651 166.529C82.7903 166.352 82.7116 166.23 82.625 166.155C82.5384 166.08 82.4361 166.044 82.3219 166.044C82.192 166.044 82.0936 166.092 82.0228 166.182C81.9519 166.273 81.9165 166.395 81.9165 166.548ZM83.7744 167.135C83.924 167.135 84.0382 167.084 84.1248 166.977C84.2074 166.871 84.2507 166.725 84.2507 166.54C84.2507 166.355 84.2074 166.214 84.1208 166.107C84.0342 166.001 83.9161 165.95 83.7626 165.95C83.6406 165.95 83.5304 166.001 83.4359 166.1C83.3414 166.198 83.247 166.367 83.1643 166.603C83.243 166.788 83.3336 166.926 83.428 167.009C83.5225 167.092 83.6406 167.135 83.7744 167.135Z" fill="#231815"/>
<path d="M82.3337 163.474C82.5148 163.474 82.6604 163.525 82.7746 163.624C82.8887 163.726 82.9675 163.868 83.0068 164.057H83.0226C83.0501 163.832 83.121 163.663 83.2391 163.553C83.3532 163.443 83.5028 163.387 83.6878 163.387C83.9555 163.387 84.1641 163.482 84.3058 163.667C84.4515 163.852 84.5223 164.12 84.5223 164.466C84.5223 164.616 84.5105 164.749 84.4908 164.875C84.4672 165.001 84.4278 165.119 84.3727 165.238H84.05C84.109 165.119 84.1562 164.99 84.1877 164.856C84.2192 164.722 84.235 164.588 84.235 164.462C84.235 163.986 84.05 163.75 83.6799 163.75C83.3493 163.75 83.1839 164.013 83.1839 164.537V164.808H82.8887V164.533C82.8887 164.312 82.8415 164.139 82.747 164.017C82.6525 163.891 82.5226 163.832 82.3573 163.832C82.2235 163.832 82.1172 163.876 82.0424 163.966C81.9676 164.057 81.9283 164.183 81.9283 164.34C81.9283 164.466 81.944 164.58 81.9794 164.686C82.0149 164.793 82.0739 164.915 82.1644 165.053L81.9283 165.226C81.8377 165.112 81.7669 164.978 81.7157 164.828C81.6645 164.679 81.637 164.517 81.637 164.348C81.637 164.072 81.6999 163.86 81.8259 163.706C81.9519 163.553 82.1211 163.478 82.3376 163.478L82.3337 163.474Z" fill="#231815"/>
<path d="M84.2744 162.884C84.1917 162.884 84.1248 162.864 84.0775 162.821C84.0303 162.777 84.0106 162.718 84.0106 162.643C84.0106 162.569 84.0342 162.506 84.0775 162.462C84.1248 162.419 84.1878 162.395 84.2744 162.395C84.361 162.395 84.4239 162.415 84.4712 162.462C84.5184 162.506 84.542 162.569 84.542 162.643C84.542 162.718 84.5184 162.777 84.4712 162.821C84.4239 162.864 84.357 162.884 84.2744 162.884Z" fill="#231815"/>
<path d="M82.7626 161.03C82.7626 160.734 82.8374 160.506 82.983 160.337C83.1287 160.167 83.3333 160.085 83.5892 160.085C83.8805 160.085 84.1088 160.179 84.2781 160.364C84.4434 160.549 84.5261 160.809 84.5261 161.136C84.5261 161.463 84.4749 161.691 84.3725 161.864H84.0458C84.1009 161.77 84.1482 161.655 84.1797 161.522C84.2112 161.388 84.2308 161.258 84.2308 161.132C84.2308 160.911 84.1797 160.742 84.0734 160.62C83.9671 160.498 83.8175 160.439 83.6246 160.439C83.2468 160.439 83.0539 160.675 83.0539 161.144C83.0539 161.293 83.0736 161.455 83.1129 161.624L83.0027 161.797L81.6761 161.691V160.282H81.9911V161.396L82.8059 161.463C82.7744 161.313 82.7626 161.171 82.7626 161.03Z" fill="#231815"/>
<path d="M83.0856 158.64V118.887" stroke="#231815" stroke-width="0.51" stroke-linecap="round" stroke-linejoin="round"/>
<path d="M83.8295 119.45L83.0855 119.135L82.3416 119.45L83.0855 117.69L83.8295 119.45Z" fill="#231815"/>
<path d="M83.0856 209.695V169.91" stroke="#231815" stroke-width="0.5" stroke-linecap="round" stroke-linejoin="round"/>
<path d="M83.8099 209.148L83.0856 209.455L82.3613 209.148L83.0856 210.86L83.8099 209.148Z" fill="#231815"/>
<path d="M40.5375 169.241H41.6515" stroke="#9FA0A0" stroke-linecap="round" stroke-linejoin="round"/>
<path d="M41.6515 164.777H40.5375" stroke="#9FA0A0" stroke-linecap="round" stroke-linejoin="round"/>
<path d="M40.5375 164.777C39.3054 164.777 38.3055 165.777 38.3055 167.009C38.3055 168.241 39.3054 169.241 40.5375 169.241" stroke="#9FA0A0" stroke-linecap="round" stroke-linejoin="round"/>
<path d="M41.6515 169.241C42.8836 169.241 43.8834 168.241 43.8834 167.009C43.8834 165.777 42.8836 164.777 41.6515 164.777" stroke="#9FA0A0" stroke-linecap="round" stroke-linejoin="round"/>
<path d="M43.3244 179.003C44.4027 179.003 45.2768 178.129 45.2768 177.051C45.2768 175.972 44.4027 175.098 43.3244 175.098C42.2461 175.098 41.3719 175.972 41.3719 177.051C41.3719 178.129 42.2461 179.003 43.3244 179.003Z" stroke="#9FA0A0" stroke-linecap="round" stroke-linejoin="round"/>
<path d="M41.6515 90.5766C42.8841 90.5766 43.8834 89.5774 43.8834 88.3447C43.8834 87.1121 42.8841 86.1128 41.6515 86.1128C40.4188 86.1128 39.4196 87.1121 39.4196 88.3447C39.4196 89.5774 40.4188 90.5766 41.6515 90.5766Z" stroke="#9FA0A0" stroke-linecap="round" stroke-linejoin="round"/>
<path d="M108.601 169.241C109.834 169.241 110.833 168.242 110.833 167.009C110.833 165.776 109.834 164.777 108.601 164.777C107.368 164.777 106.369 165.776 106.369 167.009C106.369 168.242 107.368 169.241 108.601 169.241Z" stroke="#9FA0A0" stroke-linecap="round" stroke-linejoin="round"/>
<path d="M106.928 179.003C108.006 179.003 108.881 178.129 108.881 177.051C108.881 175.972 108.006 175.098 106.928 175.098C105.85 175.098 104.976 175.972 104.976 177.051C104.976 178.129 105.85 179.003 106.928 179.003Z" stroke="#9FA0A0" stroke-linecap="round" stroke-linejoin="round"/>
<path d="M108.601 90.5766C109.834 90.5766 110.833 89.5774 110.833 88.3447C110.833 87.1121 109.834 86.1128 108.601 86.1128C107.368 86.1128 106.369 87.1121 106.369 88.3447C106.369 89.5774 107.368 90.5766 108.601 90.5766Z" stroke="#9FA0A0" stroke-linecap="round" stroke-linejoin="round"/>
</g>
<defs>
<clipPath id="clip0_72_104">
<rect width="92.2525" height="191" fill="white" transform="translate(29 30)"/>
</clipPath>
</defs>
</svg>
