<svg xmlns="http://www.w3.org/2000/svg" width="200" height="166" fill="none" viewBox="0 0 200 166"><g clip-path="url(#a)"><path fill="#fff" d="M200 0H0v166h200z"/><path stroke="#231815" stroke-linecap="round" stroke-linejoin="round" stroke-width=".2" d="M19.696 120.049v-7.243M185.026 152.629h-6.204M186.63 151.544h-3.27M180.487 151.544h-1.253M177.202 151.529H28.115M168.905 150.52H28.115M149.133 148.885h-13.676M33.754 148.885h28.71M73.757 148.885h50.408M177.416 148.824h-26.893M179.937 148.106h3.973M135.457 147.739h11.155M135.457 146.287h9.642M82.757 141.764h33.845M177.187 150.535l-7.029-.015M43.365 94.04l-.016-3.453M22.431 145.844v-24.893M22.431 111.904v-11.323M22.431 73.38V41.719M22.431 120.951v-9.047M23.485 145.89v-45.263M23.485 73.426v-6.83M23.485 48.503v-6.74M24.586 66.596V48.503M25.075 25.077v3.04M25.075 41.718V73.38M25.075 100.581v39.609M26.939 136.553V28.362M28.574 134.918V29.982M30.01 31.434v102.048M32.18 32.197v84.414M33.754 145.844v3.041M33.754 114.502V34.306M41.821 94.04v-3.713M25.075 140.19h3.04M114.921 140.083H84.453M114.157 139.777H85.201M177.599 139.594h-27.076M177.63 138.142h-27.107M136.771 137.959h-20.169M82.757 137.959H28.39M135.213 136.339h-18.611M82.757 136.339H29.949M31.462 134.887h51.295M116.602 134.887H133.7M177.89 128.729h-27.367M177.936 127.293h-27.413M85.201 124.42h28.956M85.201 123.946h28.956M61.41 123.488h20.445M117.503 123.488h.734M84.453 123.304h30.468M116.113 121.914H63.519M22.431 120.951h-1.818M146.551 119.148h-7.595M138.956 120.599h6.219M52.67 94.04v-3.453M61.991 90.327v3.714M61.41 117.513v5.975M62.465 148.885v-3.041M62.984 116.856v4.523M51.142 90.587v3.454M60.463 90.587v3.454M170.876 116.443l6.464-.031M179.937 118.781h3.973M150.523 118.063h27.749M32.18 116.611h28.329M119.138 116.611h13.844M151.792 116.458h16.319M151.792 115.358h24.555M179.586 115.343h7.044M130.858 115.037h-12.392M61.166 115.037H34.304M178.822 114.258h6.204M20.613 111.904h1.818M73.757 145.844v3.041M82.757 141.764v-17.375M84.453 140.083v-16.779M85.201 139.777v-15.831M41.821 94.04h1.544M51.142 94.04h1.528M60.463 94.04h1.528M43.35 90.587h7.792M52.67 90.587h7.793M60.723 89.059H43.09M178.226 152.4l-1.024-.871M22.507 66.596h2.078M138.941 120.599l-.718-.733M114.157 139.777v-15.831M114.921 123.304v16.779M116.602 141.764v-17.375M116.663 121.379v-4.523M118.237 123.488v-5.975M124.165 145.844v3.041M131.408 34.306v80.196M132.982 116.611V32.198M24.586 48.503h-2.079M34.304 33.756h96.554M132.982 32.197H32.18M133.776 30.012H31.4M185.622 114.472l1.008.871M135.152 133.482V31.434M135.457 148.885v-3.041M136.603 29.982v104.936M138.223 136.553v-16.687M138.223 119.866v-91.52M140.087 106.617v-6.036M140.087 73.38V41.719M140.087 28.118v-3.041M141.691 41.764v31.662M141.691 100.627v5.715M142.746 41.718V73.38M142.746 100.581v5.715M146.551 144.881v-22.876M148.002 146.333v-25.779M149.133 118.017v30.868M150.523 118.063v9.23M150.523 128.729v9.413M150.523 139.594v9.23M138.223 119.866l.718-.718M30.025 28.576h105.127M28.39 26.94h108.381M140.087 25.077h-43.9M68.974 25.077h-43.9M19.07 23.533h49.904M96.188 23.533h49.904M120.07 22.433h-7.854M146.092 22.433h-24.83M111.04 22.433H96.188M19.07 22.433h49.904M178.226 114.472l-1.008.871M179.937 148.106v-29.325M183.91 148.106v-29.325M185.622 152.4l1.008-.856M28.849 140.236a6 6 0 0 0-.734-.046M33.754 145.844q0-.367-.046-.733M73.757 145.844c0-.183 0-.382-.031-.565M62.495 145.279c-.015.183-.03.382-.03.565M68.103 147.647a1.803 1.803 0 1 0 0-3.606 1.803 1.803 0 0 0 0 3.606M28.115 147.647a1.803 1.803 0 1 0 0-3.606 1.803 1.803 0 0 0 0 3.606M111.04 22.433h1.176M22.431 100.581a9.06 9.06 0 0 0-5.562-8.359M22.431 41.718a9.06 9.06 0 0 0-5.562-8.36M68.974 22.433a9.06 9.06 0 0 0 8.358-5.562M87.83 16.87a9.07 9.07 0 0 0 8.358 5.563M16.87 81.724a9.07 9.07 0 0 0 5.561-8.359"/><path stroke="#231815" stroke-linecap="round" stroke-linejoin="round" stroke-width=".2" d="M19.07 22.433a5.683 5.683 0 0 0-2.2 10.926M87.83 16.87c-1.208-2.903-4.554-4.263-7.442-3.056a5.7 5.7 0 0 0-3.056 3.057M16.87 81.724c-2.904 1.207-4.264 4.554-3.057 7.442a5.7 5.7 0 0 0 3.056 3.056M19.07 88.784a1.803 1.803 0 1 0 0-3.606 1.803 1.803 0 0 0 0 3.606"/><path stroke="#231815" stroke-linecap="round" stroke-linejoin="round" stroke-width=".2" d="M19.07 29.92a1.803 1.803 0 1 0 0-3.605 1.803 1.803 0 0 0 0 3.606M82.588 20.874a1.803 1.803 0 1 0 0-3.606 1.803 1.803 0 0 0 0 3.606M61.41 117.513a.903.903 0 0 0-.901-.902M82.757 124.389a.903.903 0 0 0-.902-.901M19.696 120.049c0 .505.412.902.901.902M20.613 111.904a.904.904 0 0 0-.902.902M135.457 145.844c0-.183 0-.382-.03-.565M124.196 145.279a7 7 0 0 0-.031.565M129.804 147.647a1.803 1.803 0 1 0 0-3.607 1.803 1.803 0 0 0 0 3.607M178.226 152.4a.92.92 0 0 0 .596.214M185.026 152.629a.95.95 0 0 0 .596-.214M120.07 22.433h1.177M148.506 117.849c.214.061.428.122.642.168M140.087 106.617c0 .214 0 .443.015.657M147.269 117.406c.397.168.81.305 1.237.428M142.746 73.38a9.06 9.06 0 0 0 5.562 8.36M148.292 92.222a9.07 9.07 0 0 0-5.561 8.359M148.292 33.359a9.07 9.07 0 0 0-5.561 8.359M148.292 33.359c2.904-1.207 4.264-4.554 3.056-7.442a5.68 5.68 0 0 0-5.241-3.484"/><path stroke="#231815" stroke-linecap="round" stroke-linejoin="round" stroke-width=".2" d="M148.292 92.222c2.904-1.207 4.264-4.554 3.056-7.442a5.7 5.7 0 0 0-3.056-3.056M146.092 88.784a1.803 1.803 0 1 0 0-3.606 1.803 1.803 0 0 0 0 3.606M146.092 29.92a1.803 1.803 0 1 0 0-3.605 1.803 1.803 0 0 0 0 3.606M117.503 123.488a.9.9 0 0 0-.901.901M119.138 116.611a.903.903 0 0 0-.901.902M177.187 150.535s.107.077.153.123M185.622 114.472a.92.92 0 0 0-.596-.214M178.822 114.258a.95.95 0 0 0-.596.214M168.111 116.458h2.75M28.314 137.959q-.275 0-.55-.092a1.06 1.06 0 0 1-.459-.305 1.4 1.4 0 0 1-.29-.474 1.7 1.7 0 0 1-.092-.55M138.223 136.553q0 .275-.092.55a1.2 1.2 0 0 1-.29.474c-.138.137-.29.229-.458.306a1.3 1.3 0 0 1-.535.091M136.848 26.94c.183 0 .366.031.535.092.168.062.336.169.458.306.122.138.229.29.29.474q.092.275.092.55M26.939 28.347q0-.276.091-.55c.061-.184.153-.337.29-.474.138-.138.291-.23.46-.306.167-.076.35-.091.534-.091M28.115 151.529a5.9 5.9 0 0 1-2.185-.428 5.5 5.5 0 0 1-1.849-1.238 5.8 5.8 0 0 1-1.237-1.849 5.6 5.6 0 0 1-.428-2.17M142.746 106.296c0 1.177.229 2.369.687 3.469a9.1 9.1 0 0 0 1.972 2.934 9.1 9.1 0 0 0 2.933 1.971c1.1.459 2.292.688 3.469.688M177.233 115.327h-.336M176.897 115.343h-.566"/><path stroke="#231815" stroke-linecap="round" stroke-linejoin="round" stroke-width=".2" d="M28.115 150.52a4.8 4.8 0 0 1-1.787-.351 4.7 4.7 0 0 1-1.513-1.024 4.7 4.7 0 0 1-1.009-1.528 4.6 4.6 0 0 1-.336-1.727M179.586 115.343c-.413 0-.81.153-1.177.351a6.3 6.3 0 0 0-1.069.718M68.974 25.077c1.39 0 2.78-.245 4.095-.734a11.9 11.9 0 0 0 3.575-2.124M180.487 151.544a5.7 5.7 0 0 0 1.437.199c.489 0 .978-.077 1.436-.199M177.34 150.673c.29.229.58.428.917.596.305.153.626.275.962.275M22.34 33.16a7 7 0 0 0 1.145-.962c.352-.367.627-.78.871-1.208.245-.427.428-.901.55-1.39.123-.49.184-.978.184-1.483M25.075 41.718c0-1.39-.245-2.781-.734-4.096a11.9 11.9 0 0 0-2.124-3.575M22.217 81.052a11.9 11.9 0 0 0 2.124-3.576c.489-1.314.733-2.705.733-4.096M22.34 81.938q.618.413 1.145.963c.352.366.627.779.871 1.207.245.428.428.901.55 1.39a6.06 6.06 0 0 1 0 2.965 5.7 5.7 0 0 1-.55 1.39 6.2 6.2 0 0 1-.87 1.208 5.8 5.8 0 0 1-1.147.963M25.075 100.581c0-1.39-.245-2.781-.734-4.095a11.9 11.9 0 0 0-2.124-3.576M33.708 145.095a5.5 5.5 0 0 0-.535-1.757 6.1 6.1 0 0 0-1.07-1.498 5.3 5.3 0 0 0-1.497-1.069 5.6 5.6 0 0 0-1.757-.535M73.726 145.279a5.4 5.4 0 0 0-.58-1.987 5.5 5.5 0 0 0-1.254-1.635 5.8 5.8 0 0 0-1.757-1.085 5.8 5.8 0 0 0-2.032-.367c-.688 0-1.39.123-2.032.367a5.8 5.8 0 0 0-1.757 1.085 5.4 5.4 0 0 0-1.253 1.635 6 6 0 0 0-.581 1.987M135.427 145.279a5.4 5.4 0 0 0-.581-1.987 5.5 5.5 0 0 0-1.253-1.635 5.8 5.8 0 0 0-1.757-1.085 5.8 5.8 0 0 0-2.032-.367c-.688 0-1.391.123-2.033.367a5.9 5.9 0 0 0-1.757 1.085 5.45 5.45 0 0 0-1.253 1.635 6 6 0 0 0-.58 1.987M140.102 107.274c.061 1.085.275 2.17.627 3.194a11.9 11.9 0 0 0 1.497 2.903 11.4 11.4 0 0 0 2.231 2.384 11.4 11.4 0 0 0 2.812 1.666M22.492 66.596V48.503M142.96 92.91a11.9 11.9 0 0 0-2.124 3.576 11.8 11.8 0 0 0-.734 4.095M142.822 92.008a7 7 0 0 1-1.146-.962 6 6 0 0 1-.871-1.208 5.5 5.5 0 0 1-.55-1.39 6.1 6.1 0 0 1 0-2.965c.122-.489.306-.947.55-1.39.245-.444.535-.84.871-1.208a5.8 5.8 0 0 1 1.146-.962M140.087 73.38c0 1.391.245 2.782.734 4.096a11.9 11.9 0 0 0 2.123 3.576M142.96 34.047a11.9 11.9 0 0 0-2.124 3.575 11.8 11.8 0 0 0-.734 4.096M140.087 28.118c0 .489.061.993.183 1.482.123.489.306.947.551 1.39.244.444.534.84.871 1.208q.504.55 1.146.962M88.517 22.219a11.9 11.9 0 0 0 3.576 2.124c1.314.489 2.704.733 4.095.733M23.485 100.627a10 10 0 0 0-.427-2.919 10 10 0 0 0-1.284-2.705c-.565-.825-1.222-1.574-2.002-2.2a10.2 10.2 0 0 0-2.49-1.498M17.282 91.305a4.5 4.5 0 0 1-1.162-.703 4.4 4.4 0 0 1-.901-1.008 5.3 5.3 0 0 1-.58-1.223 4.4 4.4 0 0 1-.2-1.344c0-.459.062-.902.2-1.345a4.7 4.7 0 0 1 .58-1.223c.244-.366.565-.718.917-1.008a4.2 4.2 0 0 1 1.16-.688M17.282 82.748a10.3 10.3 0 0 0 2.52-1.513 10.2 10.2 0 0 0 2.003-2.216c.55-.825.977-1.742 1.268-2.705.29-.962.412-1.91.412-2.888M177.218 115.343h.794M23.485 41.764a10 10 0 0 0-.427-2.92 10 10 0 0 0-1.284-2.704c-.565-.825-1.222-1.574-2.002-2.2a10.2 10.2 0 0 0-2.49-1.498M17.282 32.442a4.5 4.5 0 0 1-1.345-.856 4.5 4.5 0 0 1-.963-1.253 4.8 4.8 0 0 1-.489-1.513 4.6 4.6 0 0 1 .046-1.589c.107-.52.306-1.024.58-1.482a4.6 4.6 0 0 1 1.04-1.192 4.8 4.8 0 0 1 1.39-.78 4.4 4.4 0 0 1 1.528-.26M68.974 23.533c.978 0 1.971-.137 2.903-.428.932-.29 1.88-.718 2.705-1.268a10.2 10.2 0 0 0 2.215-2.002 9.6 9.6 0 0 0 1.498-2.506M78.31 17.329c.168-.413.413-.81.703-1.162.29-.35.626-.657 1.008-.901a5.3 5.3 0 0 1 1.223-.58 4.4 4.4 0 0 1 1.344-.2c.459 0 .902.062 1.345.2.443.137.856.335 1.222.58.367.244.719.565 1.009.917.29.351.52.733.688 1.161M86.852 17.329c.382.901.886 1.757 1.512 2.521a10 10 0 0 0 2.231 2.002c.84.55 1.742.978 2.705 1.268.962.29 1.91.413 2.888.413M170.158 150.52h-1.253M146.092 23.533c.535 0 1.07.092 1.559.275s.962.443 1.375.78c.412.336.764.748 1.039 1.191s.474.963.565 1.498c.092.535.123 1.07.031 1.59-.092.519-.26 1.038-.504 1.497a4.8 4.8 0 0 1-.978 1.253 4.4 4.4 0 0 1-1.314.825M147.895 32.442c-.901.382-1.757.886-2.521 1.513a10.2 10.2 0 0 0-2.002 2.216c-.55.825-.978 1.742-1.268 2.705a9.9 9.9 0 0 0-.413 2.888M141.691 73.426c0 .978.138 1.972.428 2.919.291.948.718 1.88 1.284 2.705.565.825 1.222 1.574 2.002 2.2a10 10 0 0 0 2.505 1.498M77.546 22.341q.413.62.963 1.146c.366.352.779.627 1.207.871.428.245.901.428 1.39.55a6.06 6.06 0 0 0 2.965 0 5.7 5.7 0 0 0 1.39-.55 6.2 6.2 0 0 0 1.207-.87q.55-.505.963-1.147M22.217 34.047a.66.66 0 0 1-.153-.474c.016-.168.138-.321.275-.413M76.645 22.219a.66.66 0 0 1 .473-.153c.168.015.321.138.413.275"/><path stroke="#231815" stroke-linecap="round" stroke-linejoin="round" stroke-width=".2" d="M87.616 22.341c.091-.137.244-.26.412-.275a.66.66 0 0 1 .474.153M142.822 33.16c.138.092.26.245.275.413a.65.65 0 0 1-.153.474M142.96 81.052a.66.66 0 0 1 .153.473c-.016.168-.138.321-.275.413M142.822 92.008c.138.092.26.245.275.413a.65.65 0 0 1-.153.474M22.217 92.91a.66.66 0 0 1-.153-.474c.016-.168.138-.32.275-.412M22.34 81.938c-.138-.092-.26-.245-.276-.413a.66.66 0 0 1 .153-.473M147.895 82.748c.413.168.81.412 1.161.703.352.29.657.626.902 1.008.244.382.443.795.581 1.223s.198.886.198 1.345-.061.901-.198 1.344a4.8 4.8 0 0 1-.581 1.223 4.8 4.8 0 0 1-.917 1.008c-.351.29-.733.52-1.161.688M147.895 91.305c-.901.382-1.757.887-2.521 1.513a10.2 10.2 0 0 0-2.002 2.216 10.2 10.2 0 0 0-1.268 2.705 9.9 9.9 0 0 0-.413 2.888M178.027 115.389c-.061.091-.122.168-.183.259-.168.245-.336.505-.489.764M141.691 106.342c0 1.314.26 2.659.764 3.882a10.3 10.3 0 0 0 2.231 3.3 9.8 9.8 0 0 0 3.347 2.201 10.2 10.2 0 0 0 3.759.718M145.099 146.287c.871 0 1.452-.565 1.452-1.406M148.002 120.554c0-.856-.581-1.406-1.451-1.406M30.01 133.482c0 .855.58 1.405 1.451 1.405M31.4 30.012c-.84 0-1.375.55-1.375 1.406M135.152 31.434c0-.856-.535-1.406-1.376-1.406M133.7 134.887c.871 0 1.452-.565 1.452-1.405M28.314 137.959h.076M146.612 147.739c.84 0 1.375-.55 1.375-1.406M136.771 137.959h.077M136.848 26.94h-.077M28.39 26.94h-.076M146.55 122.005c0-.855-.534-1.406-1.375-1.406M30.025 28.576c-.87 0-1.451.565-1.451 1.406M136.603 29.982c0-.856-.58-1.406-1.451-1.406M135.213 136.339c.84 0 1.375-.55 1.375-1.406M28.574 134.918c0 .856.534 1.406 1.375 1.406M178.272 118.063a1116 1116 0 0 0-.352 9.23M177.89 128.729c-.092 3.041-.184 6.174-.26 9.413M177.599 139.594c-.061 3.01-.122 6.097-.168 9.23M183.36 151.544c-.26-1.574-.519-2.72-.795-3.438M181.282 148.106c-.275.718-.535 1.864-.795 3.438M43.09 89.059c-.703 0-1.269.565-1.269 1.268M61.991 90.327c0-.703-.565-1.268-1.268-1.268M62.984 121.379c0 .305.245.55.55.55M131.408 34.306a.544.544 0 0 0-.535-.55M34.304 33.756a.535.535 0 0 0-.535.55M118.466 115.037a1.83 1.83 0 0 0-1.818 1.803M62.984 116.856c0-.994-.81-1.804-1.803-1.804M116.113 121.914c.305 0 .55-.245.55-.55M130.858 115.037c.306 0 .55-.244.55-.55M33.754 114.502c0 .306.244.55.55.55M186.63 115.343v36.201"/><path stroke="#231815" stroke-linecap="round" stroke-linejoin="round" stroke-width=".5" d="M19.696 120.049v-7.243M185.026 152.629h-6.204M177.202 151.529H28.115M22.431 145.844v-24.893M22.431 111.904v-11.323M22.431 73.38V41.719M22.431 120.951h-1.818M151.792 115.358h24.555M178.822 114.258h6.204M20.613 111.904h1.818M178.226 152.4l-1.024-.871M185.622 114.472l1.008.871M142.746 41.718V73.38M142.746 100.581v5.715M120.07 22.433h-7.854M146.092 22.433h-24.83M111.04 22.433H96.188M19.07 22.433h49.904M178.226 114.472l-.993.855M185.622 152.4l1.008-.856M111.04 22.433h1.176M22.431 100.581a9.06 9.06 0 0 0-5.562-8.359M22.431 41.718a9.06 9.06 0 0 0-5.562-8.36M68.974 22.433a9.06 9.06 0 0 0 8.358-5.562M87.83 16.87a9.07 9.07 0 0 0 8.358 5.563M16.87 81.724a9.07 9.07 0 0 0 5.561-8.359"/><path stroke="#231815" stroke-linecap="round" stroke-linejoin="round" stroke-width=".5" d="M19.07 22.433a5.683 5.683 0 0 0-2.2 10.926M87.83 16.87c-1.208-2.903-4.554-4.263-7.442-3.056a5.7 5.7 0 0 0-3.056 3.057M16.87 81.724c-2.904 1.207-4.264 4.554-3.057 7.442a5.7 5.7 0 0 0 3.056 3.056M19.696 120.049c0 .505.412.902.901.902M20.613 111.904a.904.904 0 0 0-.902.902M178.226 152.4a.92.92 0 0 0 .596.214M185.026 152.629a.95.95 0 0 0 .596-.214M120.07 22.433h1.177M142.746 73.38a9.06 9.06 0 0 0 5.562 8.36M148.292 92.222a9.07 9.07 0 0 0-5.561 8.359M148.292 33.359a9.07 9.07 0 0 0-5.561 8.359M148.292 33.359c2.904-1.207 4.264-4.554 3.056-7.442a5.68 5.68 0 0 0-5.241-3.484"/><path stroke="#231815" stroke-linecap="round" stroke-linejoin="round" stroke-width=".5" d="M148.292 92.222c2.904-1.207 4.264-4.554 3.056-7.442a5.7 5.7 0 0 0-3.056-3.056M185.622 114.472a.92.92 0 0 0-.596-.214M178.822 114.258a.95.95 0 0 0-.596.214M28.115 151.529a5.9 5.9 0 0 1-2.185-.428 5.5 5.5 0 0 1-1.849-1.238 5.8 5.8 0 0 1-1.237-1.849 5.6 5.6 0 0 1-.428-2.17M142.746 106.296c0 1.177.229 2.369.687 3.469a9.1 9.1 0 0 0 1.972 2.934 9.1 9.1 0 0 0 2.933 1.971c1.1.459 2.292.688 3.469.688M177.233 115.327h-.336M176.897 115.343h-.566M186.63 115.343v36.201"/></g><defs><clipPath id="a"><path fill="#fff" d="M0 0h200v166H0z"/></clipPath></defs></svg>