<svg xmlns="http://www.w3.org/2000/svg" width="128" height="246" fill="none" viewBox="0 0 128 246"><g clip-path="url(#a)"><path fill="#fff" d="M127.74 0H0v245.14h127.74z"/><path stroke="#231815" stroke-linecap="round" stroke-linejoin="round" stroke-width=".75" d="m16.84 22.29 5.34-5.33M106.82 218.19h-30.9M51.82 218.19H20.93M111.71 211.11h-1.35M14.55 211.11h2.83M111.78 211.11h1.41M56.93 223.11l-2.84-3.78M14.55 211.11V171M14.55 161.78V22.46M15.97 211.11V171M15.97 161.78V22.46M17.1 173.12v-10.63M18.09 211.81v3.55M22.34 16.56v-1.9M111.48 29.84l1.3-1.3M15.97 173.83h.42M111.35 173.83h.43M113.19 171h-1.41M15.97 171h-1.42M57.49 229.39v-4.58M14.55 161.78h1.84M111.35 161.78h1.84M70.25 224.81v4.58M90.09 14.66v1.42M90.09 16.15v.41M101.15 23.31v-1.56M109.65 215.36v-3.55M110.64 162.49v10.63M111.07 32.52v-1.68M111.78 211.11V171M111.78 161.78V33.09M113.19 23.24v4.3M113.19 171v40.11M113.19 161.78V33.09M113.19 23.17v-1.42M73.65 219.33l-2.83 3.78M96.76 23.46l-6.5-6.5M111.63 33.09h1.56M100.58 23.88h-2.81M113.19 23.17h-12.04M15.97 22.46h-1.42M16.04 22.46h.4M101.15 21.75h12.04M22.34 16.08h67.75M22.34 14.66h67.75M57.49 224.81c0-.61-.2-1.21-.57-1.7M54.09 219.33a2.86 2.86 0 0 0-2.27-1.13M18.09 215.36c0 1.57 1.27 2.83 2.83 2.83M17.1 162.49c0-.39-.32-.71-.71-.71M16.39 173.83c.39 0 .71-.32.71-.71M18.09 211.81c0-.39-.32-.71-.71-.71"/><path stroke="#231815" stroke-linecap="round" stroke-linejoin="round" stroke-width=".5" d="M23.62 208.98h-2.41M21.21 196.22h2.41M20.64 208.41v-11.62M24.19 196.79v11.62M24.19 196.79a.57.57 0 0 0-.57-.57M23.62 208.98c.31 0 .57-.25.57-.57M20.64 208.41c0 .31.25.57.57.57M21.21 196.22a.57.57 0 0 0-.57.57"/><path stroke="#231815" stroke-linecap="round" stroke-linejoin="round" stroke-width=".75" d="M22.18 16.96a.56.56 0 0 0 .17-.4M16.44 22.46c.15 0 .29-.06.4-.17"/><path stroke="#231815" stroke-linecap="round" stroke-linejoin="round" stroke-width=".5" d="M18.52 38.33v11.63M15.97 50.52h1.98M15.97 37.77h1.98M18.52 38.33a.57.57 0 0 0-.57-.57M17.95 50.52c.31 0 .57-.25.57-.57M31.98 16.65v-.57M54.66 16.65v-.57M54.09 17.22H32.55M31.98 16.65c0 .31.25.57.57.57M54.09 17.22c.31 0 .57-.25.57-.57"/><path stroke="#231815" stroke-linecap="round" stroke-linejoin="round" stroke-width=".75" d="M75.92 218.19c-.89 0-1.73.42-2.27 1.13M70.82 223.11c-.37.49-.57 1.09-.57 1.7M106.82 218.19c1.57 0 2.83-1.27 2.83-2.83M110.64 173.12c0 .39.32.71.71.71M111.35 161.78c-.39 0-.71.32-.71.71"/><path stroke="#231815" stroke-linecap="round" stroke-linejoin="round" stroke-width=".5" d="M109.93 154.27h1.85M109.93 131.59h1.85M109.23 153.56V132.3M109.23 153.56c0 .39.32.71.71.71M109.93 131.59c-.39 0-.71.32-.71.71"/><path stroke="#231815" stroke-linecap="round" stroke-linejoin="round" stroke-width=".75" d="M110.36 211.11c-.39 0-.71.32-.71.71"/><path stroke="#231815" stroke-linecap="round" stroke-linejoin="round" stroke-width=".5" d="M106.53 208.98h-2.41M104.12 196.22h2.41M103.56 208.41v-11.62M107.1 196.79v11.62M107.1 196.79a.57.57 0 0 0-.57-.57M106.53 208.98c.31 0 .57-.25.57-.57M103.56 208.41c0 .31.25.57.57.57M104.12 196.22a.57.57 0 0 0-.57.57M39.07 91.91v44.62M43.32 140.78h41.1M88.67 136.53V91.91M84.42 87.66h-41.1M39.07 136.53c0 2.35 1.9 4.25 4.25 4.25M43.32 87.66c-2.35 0-4.25 1.9-4.25 4.25M84.42 140.78c2.35 0 4.25-1.9 4.25-4.25M88.67 91.91c0-2.35-1.9-4.25-4.25-4.25"/><path stroke="#231815" stroke-linecap="round" stroke-linejoin="round" stroke-width=".75" d="M96.76 23.46c.27.27.63.42 1 .42M111.48 29.84c-.27.27-.42.63-.42 1M112.78 28.54c.27-.27.42-.63.42-1M111.07 32.52c0 .31.25.57.57.57M100.58 23.88c.31 0 .57-.25.57-.57M90.09 16.56c0 .15.06.29.17.4"/><path stroke="#231815" stroke-linecap="round" stroke-linejoin="round" stroke-width=".5" d="M109.23 49.96V38.33M109.79 50.52h1.99M109.79 37.77h1.99M109.79 37.77a.57.57 0 0 0-.57.57M109.23 49.96c0 .31.25.57.57.57M103.98 23.74v-.57M110.36 23.74v-.57M109.79 24.3h-5.24M109.79 24.3c.31 0 .57-.25.57-.57M103.98 23.74c0 .31.25.57.57.57"/><path stroke="#231815" stroke-linecap="round" stroke-linejoin="round" stroke-width=".75" d="M70.25 230.81H57.49M70.25 229.39H57.49M57.49 230.81v-1.42M70.25 230.81v-1.42"/><path stroke="#231815" stroke-linecap="round" stroke-linejoin="round" stroke-width=".5" d="M91.51 186.6h7.09M91.51 162.4h7.09M88.67 187.49v-25.98M91.51 187.49v-5.16M91.51 165.89v-4.38M98.6 161.51v4.38M98.6 182.33v5.16M101.43 161.51v25.98M91.51 161.51c0-.78-.63-1.42-1.42-1.42s-1.42.63-1.42 1.42M88.67 187.49c0 .78.63 1.42 1.42 1.42s1.42-.63 1.42-1.42M98.6 187.49c0 .78.63 1.42 1.42 1.42s1.42-.63 1.42-1.42M101.43 161.51c0-.78-.63-1.42-1.42-1.42s-1.42.63-1.42 1.42M91.51 181.25h7.09M91.51 176.28h7.09M91.51 172.25h7.09M91.51 166.98h7.09M91.51 165.89v16.44M98.6 165.89v16.44M60.68 167.03v11.34M67.06 178.37v-11.34M67.06 167.03c0-1.76-1.43-3.19-3.19-3.19s-3.19 1.43-3.19 3.19M60.68 178.37c0 1.76 1.43 3.19 3.19 3.19s3.19-1.43 3.19-3.19M27.8 195.37c0-1.14.92-2.06 2.06-2.06s2.06.92 2.06 2.06-.92 2.06-2.06 2.06-2.06-.92-2.06-2.06M61.82 155.69c0-1.14.92-2.06 2.06-2.06s2.06.92 2.06 2.06-.92 2.06-2.06 2.06-2.06-.92-2.06-2.06M31.63 63.56a2.48 2.48 0 1 1 4.96 0 2.48 2.48 0 0 1-4.96 0M32.05 56.48c0-1.14.92-2.06 2.06-2.06s2.06.92 2.06 2.06-.92 2.06-2.06 2.06-2.06-.92-2.06-2.06M95.83 195.37c0-1.14.92-2.06 2.06-2.06s2.06.92 2.06 2.06-.92 2.06-2.06 2.06-2.06-.92-2.06-2.06M58.2 59.66h11.34M69.54 53.29H58.2M58.2 53.29c-1.76 0-3.19 1.43-3.19 3.19s1.43 3.19 3.19 3.19M69.54 59.66c1.76 0 3.19-1.43 3.19-3.19s-1.43-3.19-3.19-3.19M91.15 63.56a2.48 2.48 0 1 1 4.96 0 2.48 2.48 0 0 1-4.96 0M91.58 56.48c0-1.14.92-2.06 2.06-2.06s2.06.92 2.06 2.06-.92 2.06-2.06 2.06-2.06-.92-2.06-2.06"/></g><defs><clipPath id="a"><path fill="#fff" d="M0 0h127.74v245.14H0z"/></clipPath></defs></svg>