<svg width="183" height="557" viewBox="0 0 183 557" fill="none" xmlns="http://www.w3.org/2000/svg">
<g clip-path="url(#clip0_256_139)">
<path d="M182.37 0H0V556.67H182.37V0Z" fill="white"/>
<path d="M141.13 187.01H126.96" stroke="#9FA0A0" stroke-width="0.5" stroke-linecap="round" stroke-linejoin="round"/>
<path d="M126.96 180.91H141.13" stroke="#9FA0A0" stroke-width="0.5" stroke-linecap="round" stroke-linejoin="round"/>
<path d="M56.0899 187.01H41.9199" stroke="#9FA0A0" stroke-width="0.5" stroke-linecap="round" stroke-linejoin="round"/>
<path d="M41.9199 180.91H56.0899" stroke="#9FA0A0" stroke-width="0.5" stroke-linecap="round" stroke-linejoin="round"/>
<path d="M104.28 541.87H78.77" stroke="#231815" stroke-linecap="round" stroke-linejoin="round"/>
<path d="M38.3701 516.92H78.7701" stroke="#231815" stroke-linecap="round" stroke-linejoin="round"/>
<path d="M104.28 516.92H144.67" stroke="#231815" stroke-linecap="round" stroke-linejoin="round"/>
<path d="M24.48 465.9H32.7" stroke="#231815" stroke-linecap="round" stroke-linejoin="round"/>
<path d="M150.34 465.9H158.56" stroke="#231815" stroke-linecap="round" stroke-linejoin="round"/>
<path d="M24.48 465.9V63.38" stroke="#231815" stroke-linecap="round" stroke-linejoin="round"/>
<path d="M32.7002 465.9V511.26" stroke="#231815" stroke-linecap="round" stroke-linejoin="round"/>
<path d="M37.6602 161.18V188.11" stroke="#9FA0A0" stroke-width="0.5" stroke-linecap="round" stroke-linejoin="round"/>
<path d="M41.9199 188.11V174.15" stroke="#9FA0A0" stroke-width="0.5" stroke-linecap="round" stroke-linejoin="round"/>
<path d="M45.9902 281.65V219.29" stroke="#231815" stroke-width="0.5" stroke-linecap="round" stroke-linejoin="round"/>
<path d="M46.1699 63.38V30.78" stroke="#231815" stroke-linecap="round" stroke-linejoin="round"/>
<path d="M56.0898 188.11V174.15" stroke="#9FA0A0" stroke-width="0.5" stroke-linecap="round" stroke-linejoin="round"/>
<path d="M60.3398 188.11V161.18" stroke="#9FA0A0" stroke-width="0.5" stroke-linecap="round" stroke-linejoin="round"/>
<path d="M78.77 541.87V516.92" stroke="#231815" stroke-linecap="round" stroke-linejoin="round"/>
<path d="M85.1499 421.4V393.05" stroke="#231815" stroke-width="0.5" stroke-linecap="round" stroke-linejoin="round"/>
<path d="M97.8999 393.05V421.4" stroke="#231815" stroke-width="0.5" stroke-linecap="round" stroke-linejoin="round"/>
<path d="M104.28 541.87V516.92" stroke="#231815" stroke-linecap="round" stroke-linejoin="round"/>
<path d="M131.03 287.32H51.6602" stroke="#231815" stroke-width="0.5" stroke-linecap="round" stroke-linejoin="round"/>
<path d="M122.7 161.18V188.11" stroke="#9FA0A0" stroke-width="0.5" stroke-linecap="round" stroke-linejoin="round"/>
<path d="M126.96 188.11V174.15" stroke="#9FA0A0" stroke-width="0.5" stroke-linecap="round" stroke-linejoin="round"/>
<path d="M136.7 219.29V281.65" stroke="#231815" stroke-width="0.5" stroke-linecap="round" stroke-linejoin="round"/>
<path d="M136.88 63.38V30.78" stroke="#231815" stroke-linecap="round" stroke-linejoin="round"/>
<path d="M141.13 188.11V174.15" stroke="#9FA0A0" stroke-width="0.5" stroke-linecap="round" stroke-linejoin="round"/>
<path d="M145.38 188.11V161.18" stroke="#9FA0A0" stroke-width="0.5" stroke-linecap="round" stroke-linejoin="round"/>
<path d="M150.34 511.26V465.9" stroke="#231815" stroke-linecap="round" stroke-linejoin="round"/>
<path d="M158.56 465.9V63.38" stroke="#231815" stroke-linecap="round" stroke-linejoin="round"/>
<path d="M51.6602 213.62H131.03" stroke="#231815" stroke-width="0.5" stroke-linecap="round" stroke-linejoin="round"/>
<path d="M37.6602 188.11H41.9202" stroke="#9FA0A0" stroke-width="0.5" stroke-linecap="round" stroke-linejoin="round"/>
<path d="M56.0898 188.11H60.3398" stroke="#9FA0A0" stroke-width="0.5" stroke-linecap="round" stroke-linejoin="round"/>
<path d="M122.7 188.11H126.96" stroke="#9FA0A0" stroke-width="0.5" stroke-linecap="round" stroke-linejoin="round"/>
<path d="M141.13 188.11H145.38" stroke="#9FA0A0" stroke-width="0.5" stroke-linecap="round" stroke-linejoin="round"/>
<path d="M105.7 177.48H77.3501" stroke="#231815" stroke-width="0.5" stroke-linecap="round" stroke-linejoin="round"/>
<path d="M139.71 172.73H128.37" stroke="#9FA0A0" stroke-width="0.5" stroke-linecap="round" stroke-linejoin="round"/>
<path d="M54.6701 172.73H43.3301" stroke="#9FA0A0" stroke-width="0.5" stroke-linecap="round" stroke-linejoin="round"/>
<path d="M77.3501 164.72H105.7" stroke="#231815" stroke-width="0.5" stroke-linecap="round" stroke-linejoin="round"/>
<path d="M141.13 156.92H126.96" stroke="#9FA0A0" stroke-width="0.5" stroke-linecap="round" stroke-linejoin="round"/>
<path d="M56.0899 156.92H41.9199" stroke="#9FA0A0" stroke-width="0.5" stroke-linecap="round" stroke-linejoin="round"/>
<path d="M46.17 63.38H24.48" stroke="#231815" stroke-linecap="round" stroke-linejoin="round"/>
<path d="M136.88 63.38H158.56" stroke="#231815" stroke-linecap="round" stroke-linejoin="round"/>
<path d="M46.1699 30.78H136.88" stroke="#231815" stroke-linecap="round" stroke-linejoin="round"/>
<path d="M45.9902 281.65C45.9902 284.78 48.5302 287.32 51.6602 287.32" stroke="#231815" stroke-width="0.5" stroke-linecap="round" stroke-linejoin="round"/>
<path d="M32.7002 511.26C32.7002 514.39 35.2402 516.93 38.3702 516.93" stroke="#231815" stroke-linecap="round" stroke-linejoin="round"/>
<path d="M77.3502 164.72C73.8302 164.72 70.9702 167.58 70.9702 171.1C70.9702 174.62 73.8302 177.48 77.3502 177.48" stroke="#231815" stroke-width="0.5" stroke-linecap="round" stroke-linejoin="round"/>
<path d="M51.6602 213.62C48.5302 213.62 45.9902 216.16 45.9902 219.29" stroke="#231815" stroke-width="0.5" stroke-linecap="round" stroke-linejoin="round"/>
<path d="M41.9199 156.92C39.5699 156.92 37.6699 158.82 37.6699 161.17" stroke="#9FA0A0" stroke-width="0.5" stroke-linecap="round" stroke-linejoin="round"/>
<path d="M60.3398 161.18C60.3398 158.83 58.4398 156.93 56.0898 156.93" stroke="#9FA0A0" stroke-width="0.5" stroke-linecap="round" stroke-linejoin="round"/>
<path d="M56.0899 174.15C56.0899 173.37 55.4599 172.73 54.6699 172.73" stroke="#9FA0A0" stroke-width="0.5" stroke-linecap="round" stroke-linejoin="round"/>
<path d="M43.3302 172.73C42.5502 172.73 41.9102 173.36 41.9102 174.15" stroke="#9FA0A0" stroke-width="0.5" stroke-linecap="round" stroke-linejoin="round"/>
<path d="M85.1499 421.4C85.1499 424.92 87.9999 427.77 91.5199 427.77C95.0399 427.77 97.8899 424.92 97.8899 421.4" stroke="#231815" stroke-width="0.5" stroke-linecap="round" stroke-linejoin="round"/>
<path d="M97.9002 393.05C97.9002 389.53 95.0502 386.68 91.5302 386.68C88.0102 386.68 85.1602 389.53 85.1602 393.05" stroke="#231815" stroke-width="0.5" stroke-linecap="round" stroke-linejoin="round"/>
<path d="M131.03 287.32C134.16 287.32 136.7 284.78 136.7 281.65" stroke="#231815" stroke-width="0.5" stroke-linecap="round" stroke-linejoin="round"/>
<path d="M144.67 516.92C147.8 516.92 150.34 514.38 150.34 511.25" stroke="#231815" stroke-linecap="round" stroke-linejoin="round"/>
<path d="M105.7 177.48C109.22 177.48 112.08 174.62 112.08 171.1C112.08 167.58 109.22 164.72 105.7 164.72" stroke="#231815" stroke-width="0.5" stroke-linecap="round" stroke-linejoin="round"/>
<path d="M136.7 219.29C136.7 216.16 134.16 213.62 131.03 213.62" stroke="#231815" stroke-width="0.5" stroke-linecap="round" stroke-linejoin="round"/>
<path d="M126.96 156.92C124.61 156.92 122.71 158.82 122.71 161.17" stroke="#9FA0A0" stroke-width="0.5" stroke-linecap="round" stroke-linejoin="round"/>
<path d="M145.38 161.18C145.38 158.83 143.48 156.93 141.13 156.93" stroke="#9FA0A0" stroke-width="0.5" stroke-linecap="round" stroke-linejoin="round"/>
<path d="M128.37 172.73C127.59 172.73 126.95 173.36 126.95 174.15" stroke="#9FA0A0" stroke-width="0.5" stroke-linecap="round" stroke-linejoin="round"/>
<path d="M141.13 174.15C141.13 173.37 140.5 172.73 139.71 172.73" stroke="#9FA0A0" stroke-width="0.5" stroke-linecap="round" stroke-linejoin="round"/>
<path d="M44.04 465.9C44.04 463.16 46.26 460.94 49 460.94C51.74 460.94 53.96 463.16 53.96 465.9C53.96 468.64 51.74 470.86 49 470.86C46.26 470.86 44.04 468.64 44.04 465.9Z" stroke="#231815" stroke-width="0.5" stroke-linecap="round" stroke-linejoin="round"/>
<path d="M44.04 111.57C44.04 108.83 46.26 106.61 49 106.61C51.74 106.61 53.96 108.83 53.96 111.57C53.96 114.31 51.74 116.53 49 116.53C46.26 116.53 44.04 114.31 44.04 111.57Z" stroke="#231815" stroke-width="0.5" stroke-linecap="round" stroke-linejoin="round"/>
<path d="M129.08 465.9C129.08 463.16 131.3 460.94 134.04 460.94C136.78 460.94 139 463.16 139 465.9C139 468.64 136.78 470.86 134.04 470.86C131.3 470.86 129.08 468.64 129.08 465.9Z" stroke="#231815" stroke-width="0.5" stroke-linecap="round" stroke-linejoin="round"/>
<path d="M129.08 111.57C129.08 108.83 131.3 106.61 134.04 106.61C136.78 106.61 139 108.83 139 111.57C139 114.31 136.78 116.53 134.04 116.53C131.3 116.53 129.08 114.31 129.08 111.57Z" stroke="#231815" stroke-width="0.5" stroke-linecap="round" stroke-linejoin="round"/>
<path d="M162.35 526.48V527.9" stroke="#231815" stroke-width="0.43" stroke-linecap="round" stroke-linejoin="bevel"/>
<path d="M162.35 529.48V531.84" stroke="#231815" stroke-width="0.43" stroke-linecap="round" stroke-linejoin="bevel" stroke-dasharray="1.58 1.58"/>
<path d="M162.35 532.63V534.05" stroke="#231815" stroke-width="0.43" stroke-linecap="round" stroke-linejoin="bevel"/>
<path d="M162.35 534.05H160.94" stroke="#231815" stroke-width="0.43" stroke-linecap="round" stroke-linejoin="bevel"/>
<path d="M159.26 534.05H156.74" stroke="#231815" stroke-width="0.43" stroke-linecap="round" stroke-linejoin="bevel" stroke-dasharray="1.68 1.68"/>
<path d="M155.9 534.05H154.48" stroke="#231815" stroke-width="0.43" stroke-linecap="round" stroke-linejoin="bevel"/>
<path d="M162.3 526.48C162 526.95 161.1 528.19 159.15 529.03C157.24 529.85 155.43 529.82 154.74 529.78" stroke="#231815" stroke-width="0.43" stroke-linecap="round" stroke-linejoin="bevel"/>
<path d="M154.67 529.83C155.57 531.05 155.79 532.47 155.24 533.36C155.12 533.55 154.9 533.83 154.48 534.05" stroke="#231815" stroke-width="0.43" stroke-linecap="round" stroke-linejoin="bevel"/>
<path d="M162.33 526.52C161.92 527.61 161.02 529.5 158.91 531.34C157.34 532.71 155.67 533.56 154.5 534.05" stroke="#231815" stroke-width="0.43"/>
<path d="M140.87 529.25V526.39H141.95C142.14 526.39 142.28 526.39 142.39 526.42C142.53 526.44 142.65 526.49 142.74 526.55C142.83 526.62 142.91 526.71 142.97 526.83C143.03 526.95 143.06 527.08 143.06 527.22C143.06 527.46 142.98 527.67 142.83 527.84C142.67 528.01 142.4 528.09 141.99 528.09H141.26V529.25H140.88H140.87ZM141.25 527.75H141.99C142.24 527.75 142.41 527.7 142.51 527.61C142.61 527.52 142.66 527.39 142.66 527.23C142.66 527.11 142.63 527.01 142.57 526.92C142.51 526.83 142.43 526.78 142.33 526.75C142.27 526.73 142.15 526.72 141.98 526.72H141.25V527.74V527.75Z" fill="#231815"/>
<path d="M143.54 529.25V526.39H145.61V526.73H143.92V527.61H145.5V527.95H143.92V528.92H145.68V529.26H143.54V529.25Z" fill="#231815"/>
<path d="M146.21 529.25V526.39H148.28V526.73H146.59V527.61H148.17V527.95H146.59V528.92H148.35V529.26H146.21V529.25Z" fill="#231815"/>
<path d="M148.86 529.25V526.39H149.24V528.92H150.65V529.26H148.86V529.25Z" fill="#231815"/>
<path d="M140.88 534.05V531.19H141.26V532.37H142.75V531.19H143.13V534.05H142.75V532.7H141.26V534.05H140.88Z" fill="#231815"/>
<path d="M143.76 534.05V531.19H145.83V531.53H144.14V532.41H145.72V532.75H144.14V533.72H145.9V534.06H143.76V534.05Z" fill="#231815"/>
<path d="M146.43 534.05V531.19H147.7C147.95 531.19 148.15 531.22 148.28 531.27C148.41 531.32 148.52 531.41 148.6 531.54C148.68 531.67 148.72 531.81 148.72 531.97C148.72 532.17 148.65 532.34 148.52 532.48C148.39 532.62 148.19 532.71 147.91 532.75C148.01 532.8 148.09 532.85 148.14 532.89C148.25 532.99 148.36 533.12 148.45 533.27L148.95 534.05H148.47L148.09 533.45C147.98 533.28 147.89 533.15 147.82 533.06C147.75 532.97 147.68 532.9 147.63 532.87C147.57 532.83 147.52 532.81 147.46 532.79C147.42 532.79 147.35 532.78 147.25 532.78H146.81V534.05H146.43ZM146.81 532.45H147.62C147.79 532.45 147.93 532.43 148.03 532.4C148.13 532.36 148.2 532.31 148.25 532.23C148.3 532.15 148.33 532.06 148.33 531.97C148.33 531.83 148.28 531.72 148.18 531.64C148.08 531.55 147.93 531.51 147.71 531.51H146.8V532.46L146.81 532.45Z" fill="#231815"/>
<path d="M149.32 534.05V531.19H151.39V531.53H149.7V532.41H151.28V532.75H149.7V533.72H151.46V534.06H149.32V534.05Z" fill="#231815"/>
<path d="M69.4497 537.79V521" stroke="black" stroke-width="0.5" stroke-linecap="round" stroke-linejoin="round"/>
<path d="M69.4499 536.9L67.6499 535.8L67.6099 535.86L68.7799 538.8C69.0099 539.82 69.2299 540.85 69.4599 541.87C69.6899 540.85 69.9099 539.82 70.1399 538.8L71.3099 535.86L71.2799 535.8L69.4699 536.9H69.4499Z" fill="black"/>
<path d="M69.4499 521.9L67.6499 523L67.6099 522.94L68.7799 520C69.0099 518.98 69.2299 517.95 69.4599 516.93C69.6899 517.95 69.9099 518.98 70.1399 520L71.3099 522.94L71.2799 523L69.4699 521.9H69.4499Z" fill="black"/>
<path d="M75.6302 541.87H31.9902" stroke="black" stroke-width="0.5" stroke-linecap="round" stroke-linejoin="round"/>
<path d="M62.0499 531.69C62.4199 531.69 62.7499 531.79 63.0299 532C63.3099 532.21 63.5199 532.49 63.6599 532.83C63.7999 532.43 64.0199 532.1 64.3299 531.86C64.6399 531.62 64.9899 531.49 65.3899 531.49C66.0399 531.49 66.5499 531.7 66.9099 532.13C67.2699 532.56 67.4499 533.1 67.4499 533.75C67.4499 534.45 67.2699 535.02 66.9099 535.46C66.5499 535.9 66.0499 536.12 65.3899 536.12C64.9899 536.12 64.6399 536 64.3299 535.75C64.0299 535.5 63.7999 535.16 63.6599 534.74C63.5199 535.1 63.3099 535.39 63.0299 535.6C62.7499 535.81 62.4199 535.92 62.0499 535.92C61.4299 535.92 60.9499 535.72 60.6199 535.32C60.2899 534.92 60.1299 534.4 60.1299 533.76C60.1299 533.15 60.2999 532.66 60.6299 532.27C60.9599 531.88 61.4299 531.69 62.0499 531.69ZM62.0699 532.65C61.7299 532.65 61.4499 532.76 61.2299 532.97C61.0099 533.18 60.8999 533.45 60.8999 533.76C60.8999 534.11 61.0099 534.39 61.2199 534.62C61.4299 534.84 61.7199 534.96 62.0799 534.96C62.4399 534.96 62.7299 534.85 62.9599 534.62C63.1899 534.39 63.2999 534.1 63.2999 533.76C63.2999 533.44 63.1899 533.18 62.9599 532.97C62.7399 532.76 62.4399 532.65 62.0799 532.65H62.0699ZM65.3699 532.45C64.9799 532.45 64.6599 532.58 64.4099 532.83C64.1599 533.08 64.0299 533.39 64.0299 533.76C64.0299 534.16 64.1499 534.5 64.4099 534.76C64.6599 535.02 64.9799 535.16 65.3699 535.16C65.7599 535.16 66.0899 535.03 66.3299 534.77C66.5699 534.51 66.6899 534.17 66.6899 533.76C66.6899 533.39 66.5699 533.08 66.3299 532.83C66.0899 532.58 65.7699 532.46 65.3699 532.46V532.45Z" fill="#231815"/>
<path d="M67.3499 529.24V530.2H66.3599V529.24H67.3499Z" fill="#231815"/>
<path d="M62.0499 523.38C62.4199 523.38 62.7499 523.48 63.0299 523.69C63.3099 523.9 63.5199 524.18 63.6599 524.52C63.7999 524.12 64.0199 523.79 64.3299 523.55C64.6399 523.31 64.9899 523.18 65.3899 523.18C66.0399 523.18 66.5499 523.39 66.9099 523.82C67.2699 524.25 67.4499 524.79 67.4499 525.44C67.4499 526.14 67.2699 526.71 66.9099 527.15C66.5499 527.59 66.0499 527.81 65.3899 527.81C64.9899 527.81 64.6399 527.69 64.3299 527.44C64.0299 527.19 63.7999 526.85 63.6599 526.43C63.5199 526.79 63.3099 527.08 63.0299 527.29C62.7499 527.5 62.4199 527.61 62.0499 527.61C61.4299 527.61 60.9499 527.41 60.6199 527.01C60.2899 526.61 60.1299 526.09 60.1299 525.45C60.1299 524.84 60.2999 524.35 60.6299 523.96C60.9599 523.57 61.4299 523.38 62.0499 523.38ZM62.0699 524.34C61.7299 524.34 61.4499 524.45 61.2299 524.66C61.0099 524.87 60.8999 525.14 60.8999 525.45C60.8999 525.8 61.0099 526.08 61.2199 526.31C61.4299 526.53 61.7199 526.65 62.0799 526.65C62.4399 526.65 62.7299 526.54 62.9599 526.31C63.1899 526.08 63.2999 525.79 63.2999 525.45C63.2999 525.13 63.1899 524.87 62.9599 524.66C62.7399 524.45 62.4399 524.34 62.0799 524.34H62.0699ZM65.3699 524.14C64.9799 524.14 64.6599 524.27 64.4099 524.52C64.1599 524.77 64.0299 525.08 64.0299 525.45C64.0299 525.85 64.1499 526.19 64.4099 526.45C64.6599 526.71 64.9799 526.85 65.3699 526.85C65.7599 526.85 66.0899 526.72 66.3299 526.46C66.5699 526.2 66.6899 525.86 66.6899 525.45C66.6899 525.08 66.5699 524.77 66.3299 524.52C66.0899 524.27 65.7699 524.15 65.3699 524.15V524.14Z" fill="#231815"/>
<path d="M82.8398 521.68H100.2" stroke="black" stroke-width="0.5" stroke-linecap="round" stroke-linejoin="round"/>
<path d="M83.74 521.68L84.84 519.88L84.78 519.84L81.84 521.01C80.82 521.24 79.79 521.46 78.77 521.69C79.79 521.92 80.82 522.14 81.84 522.37L84.78 523.54L84.84 523.51L83.74 521.7V521.68Z" fill="black"/>
<path d="M99.31 521.68L98.21 519.88L98.27 519.84L101.21 521.01C102.23 521.24 103.26 521.46 104.28 521.69C103.26 521.92 102.23 522.14 101.21 522.37L98.27 523.54L98.21 523.51L99.31 521.7V521.68Z" fill="black"/>
<path d="M146.85 58.89V34.86" stroke="black" stroke-width="0.5" stroke-linecap="round" stroke-linejoin="round"/>
<path d="M146.85 57.99L145.05 56.89L145.01 56.95L146.18 59.89C146.41 60.91 146.63 61.94 146.86 62.96C147.09 61.94 147.31 60.91 147.54 59.89L148.71 56.95L148.68 56.89L146.87 57.99H146.85Z" fill="black"/>
<path d="M146.85 35.76L145.05 36.86L145.01 36.8L146.18 33.86C146.41 32.84 146.63 31.81 146.86 30.79C147.09 31.81 147.31 32.84 147.54 33.86L148.71 36.8L148.68 36.86L146.87 35.76H146.85Z" fill="black"/>
<path d="M93.9002 514.09C93.9002 514.46 93.8002 514.79 93.5902 515.07C93.3802 515.35 93.1002 515.56 92.7602 515.7C93.1602 515.84 93.4902 516.06 93.7302 516.37C93.9702 516.68 94.1002 517.03 94.1002 517.43C94.1002 518.08 93.8902 518.59 93.4602 518.95C93.0302 519.31 92.4902 519.49 91.8402 519.49C91.1402 519.49 90.5702 519.31 90.1302 518.95C89.6902 518.59 89.4702 518.09 89.4702 517.43C89.4702 517.03 89.5902 516.68 89.8402 516.37C90.0902 516.06 90.4302 515.84 90.8502 515.7C90.4902 515.56 90.2002 515.35 89.9902 515.07C89.7802 514.79 89.6702 514.46 89.6702 514.09C89.6702 513.47 89.8702 512.99 90.2702 512.66C90.6702 512.33 91.1902 512.17 91.8302 512.17C92.4402 512.17 92.9302 512.34 93.3202 512.67C93.7102 513 93.9002 513.48 93.9002 514.09ZM93.1402 517.41C93.1402 517.02 93.0102 516.7 92.7602 516.45C92.5102 516.2 92.2002 516.07 91.8302 516.07C91.4302 516.07 91.0902 516.19 90.8302 516.45C90.5702 516.71 90.4302 517.02 90.4302 517.41C90.4302 517.8 90.5602 518.13 90.8202 518.37C91.0802 518.61 91.4202 518.73 91.8302 518.73C92.2002 518.73 92.5102 518.61 92.7602 518.37C93.0102 518.13 93.1302 517.81 93.1302 517.41H93.1402ZM92.9402 514.1C92.9402 513.76 92.8302 513.48 92.6202 513.26C92.4102 513.04 92.1402 512.93 91.8302 512.93C91.4802 512.93 91.2002 513.04 90.9702 513.25C90.7502 513.46 90.6302 513.75 90.6302 514.11C90.6302 514.47 90.7402 514.76 90.9702 514.99C91.2002 515.22 91.4902 515.33 91.8302 515.33C92.1502 515.33 92.4102 515.22 92.6202 514.99C92.8302 514.77 92.9402 514.47 92.9402 514.11V514.1Z" fill="#231815"/>
<path d="M109.02 534.05V525.52H111.8C112.69 525.52 113.39 525.71 113.89 526.1C114.39 526.49 114.65 527.06 114.65 527.83C114.65 528.2 114.54 528.53 114.31 528.82C114.08 529.11 113.78 529.33 113.41 529.49C113.97 529.57 114.41 529.81 114.74 530.22C115.07 530.63 115.23 531.1 115.23 531.66C115.23 532.44 114.98 533.04 114.47 533.45C113.96 533.86 113.27 534.07 112.41 534.07H109.03L109.02 534.05ZM110.18 529.15H112.05C112.48 529.15 112.83 529.03 113.1 528.8C113.37 528.57 113.5 528.23 113.5 527.81C113.5 527.35 113.35 527 113.06 526.78C112.77 526.56 112.35 526.44 111.8 526.44H110.17V529.16L110.18 529.15ZM110.18 530.05V533.15H112.41C112.94 533.15 113.35 533.02 113.64 532.76C113.93 532.5 114.08 532.13 114.08 531.66C114.08 531.19 113.93 530.81 113.63 530.52C113.33 530.23 112.93 530.08 112.43 530.06H110.19L110.18 530.05Z" fill="#231815"/>
<path d="M117.8 533.15H121.96V534.05H116.65V525.52H117.8V533.15Z" fill="#231815"/>
<path d="M129.7 534.05H128.55L124.44 527.53H124.4V534.05H123.25V525.52H124.4L128.51 532.03H128.55V525.52H129.7V534.05Z" fill="#231815"/>
<path d="M136.88 534.05H131.58V533.26L134.26 530.07C134.74 529.49 135.06 529.03 135.23 528.69C135.4 528.35 135.48 528 135.48 527.66C135.48 527.27 135.36 526.94 135.13 526.69C134.9 526.44 134.58 526.31 134.17 526.31C133.67 526.31 133.28 526.46 133.02 526.77C132.76 527.08 132.62 527.46 132.62 527.92H131.51V527.88C131.48 527.18 131.71 526.6 132.2 526.11C132.69 525.62 133.34 525.39 134.17 525.39C134.93 525.39 135.53 525.6 135.97 526.02C136.41 526.44 136.63 526.99 136.63 527.65C136.63 528.1 136.51 528.54 136.26 528.97C136.01 529.4 135.63 529.94 135.13 530.59L132.98 533.11V533.14H136.88V534.04V534.05Z" fill="#231815"/>
<path d="M62.67 19.19H61.26V23H60.68V19.19H59.29V18.74H62.66V19.19H62.67Z" fill="#231815"/>
<path d="M63.7702 20.26C63.8802 20.11 64.0102 19.99 64.1702 19.9C64.3302 19.81 64.5102 19.77 64.7002 19.77C65.0402 19.77 65.3002 19.87 65.4902 20.07C65.6802 20.27 65.7702 20.59 65.7702 21.01V23H65.1902V21.01C65.1902 20.75 65.1302 20.55 65.0202 20.43C64.9102 20.31 64.7402 20.24 64.5202 20.24C64.3502 20.24 64.2002 20.27 64.0702 20.34C63.9402 20.41 63.8402 20.5 63.7602 20.62V23H63.1802V18.43H63.7602V20.26H63.7702Z" fill="#231815"/>
<path d="M67.9202 23.07C67.4602 23.07 67.1102 22.92 66.8502 22.63C66.6002 22.34 66.4702 21.96 66.4702 21.48V21.35C66.4702 20.89 66.6002 20.52 66.8602 20.22C67.1202 19.92 67.4402 19.77 67.8202 19.77C68.2402 19.77 68.5602 19.9 68.7702 20.17C68.9802 20.44 69.0902 20.78 69.0902 21.22V21.52H67.0502C67.0502 21.85 67.1202 22.11 67.2602 22.31C67.4002 22.51 67.6202 22.61 67.9002 22.61C68.1002 22.61 68.2702 22.58 68.4102 22.53C68.5602 22.47 68.6802 22.4 68.7902 22.3L69.0202 22.68C68.9102 22.79 68.7602 22.88 68.5702 22.96C68.3802 23.04 68.1602 23.07 67.9002 23.07H67.9202ZM67.8302 20.23C67.6302 20.23 67.4602 20.31 67.3302 20.46C67.2002 20.62 67.1202 20.81 67.0902 21.06L68.5202 21.07V21.02C68.5202 20.79 68.4602 20.6 68.3502 20.45C68.2402 20.3 68.0602 20.22 67.8302 20.22V20.23Z" fill="#231815"/>
<path d="M72.0402 19.07V19.83H72.6402V20.26H72.0402V22.18C72.0402 22.33 72.0702 22.43 72.1302 22.49C72.1902 22.55 72.2702 22.58 72.3702 22.58C72.4002 22.58 72.4402 22.58 72.4802 22.57C72.5202 22.56 72.5602 22.55 72.5802 22.54L72.6602 22.94C72.6602 22.94 72.5502 23 72.4702 23.03C72.3902 23.06 72.3002 23.06 72.2202 23.06C71.9902 23.06 71.8002 22.99 71.6602 22.85C71.5202 22.71 71.4502 22.49 71.4502 22.18V20.26H70.9502V19.83H71.4502V19.07H72.0302H72.0402Z" fill="#231815"/>
<path d="M73.1199 21.39C73.1199 20.92 73.2499 20.54 73.4999 20.23C73.7499 19.92 74.0999 19.77 74.5299 19.77C74.9599 19.77 75.3199 19.92 75.5699 20.22C75.8299 20.52 75.9499 20.91 75.9499 21.38V21.44C75.9499 21.91 75.8199 22.3 75.5699 22.6C75.3199 22.9 74.9699 23.05 74.5299 23.05C74.0899 23.05 73.7499 22.9 73.4899 22.6C73.2399 22.3 73.1099 21.91 73.1099 21.44V21.38L73.1199 21.39ZM73.6999 21.46C73.6999 21.8 73.7699 22.07 73.9099 22.29C74.0499 22.51 74.2599 22.62 74.5399 22.62C74.8199 22.62 75.0199 22.51 75.1699 22.29C75.3199 22.07 75.3799 21.79 75.3799 21.46V21.4C75.3799 21.07 75.3099 20.79 75.1599 20.57C75.0199 20.35 74.8099 20.24 74.5299 20.24C74.2499 20.24 74.0499 20.35 73.9099 20.57C73.7699 20.79 73.6999 21.07 73.6999 21.4V21.46Z" fill="#231815"/>
<path d="M77.29 23.01H76.71V18.44H77.29V23.01Z" fill="#231815"/>
<path d="M79.49 23.07C79.03 23.07 78.68 22.92 78.42 22.63C78.17 22.34 78.04 21.96 78.04 21.48V21.35C78.04 20.89 78.17 20.52 78.43 20.22C78.69 19.92 79.01 19.77 79.39 19.77C79.81 19.77 80.13 19.9 80.34 20.17C80.55 20.44 80.66 20.78 80.66 21.22V21.52H78.62C78.62 21.85 78.69 22.11 78.83 22.31C78.97 22.51 79.19 22.61 79.47 22.61C79.67 22.61 79.84 22.58 79.98 22.53C80.13 22.47 80.25 22.4 80.36 22.3L80.59 22.68C80.48 22.79 80.33 22.88 80.14 22.96C79.95 23.04 79.73 23.07 79.47 23.07H79.49ZM79.4 20.23C79.2 20.23 79.03 20.31 78.9 20.46C78.77 20.62 78.69 20.81 78.66 21.06L80.09 21.07V21.02C80.09 20.79 80.03 20.6 79.92 20.45C79.81 20.3 79.63 20.22 79.4 20.22V20.23Z" fill="#231815"/>
<path d="M82.8198 20.35L82.5198 20.33C82.3698 20.33 82.2398 20.37 82.1398 20.44C82.0298 20.51 81.9498 20.61 81.8998 20.74V23H81.3198V19.83H81.8398L81.8998 20.29C81.9898 20.13 82.0998 20 82.2298 19.91C82.3598 19.82 82.5098 19.77 82.6898 19.77C82.7298 19.77 82.7698 19.77 82.8098 19.78C82.8498 19.79 82.8798 19.79 82.9098 19.8L82.8298 20.34L82.8198 20.35Z" fill="#231815"/>
<path d="M85.3698 23.01C85.3498 22.91 85.3298 22.83 85.3298 22.76C85.3198 22.69 85.3098 22.61 85.3098 22.54C85.1998 22.69 85.0598 22.82 84.8898 22.92C84.7198 23.02 84.5298 23.07 84.3298 23.07C83.9998 23.07 83.7498 22.99 83.5798 22.82C83.4098 22.65 83.3198 22.42 83.3198 22.12C83.3198 21.82 83.4398 21.58 83.6898 21.41C83.9398 21.24 84.2698 21.15 84.6898 21.15H85.3198V20.84C85.3198 20.65 85.2598 20.51 85.1498 20.4C85.0398 20.29 84.8798 20.24 84.6698 20.24C84.4798 20.24 84.3298 20.29 84.2198 20.38C84.1098 20.47 84.0498 20.59 84.0498 20.72H83.4998V20.71C83.4898 20.48 83.5898 20.27 83.8198 20.08C84.0498 19.89 84.3498 19.79 84.7098 19.79C85.0698 19.79 85.3598 19.88 85.5798 20.06C85.7998 20.24 85.9098 20.51 85.9098 20.85V22.38C85.9098 22.49 85.9098 22.6 85.9298 22.71C85.9498 22.82 85.9598 22.92 85.9898 23.02H85.3998L85.3698 23.01ZM84.4098 22.58C84.6198 22.58 84.8098 22.53 84.9798 22.42C85.1498 22.31 85.2598 22.19 85.3098 22.05V21.53H84.6598C84.4298 21.53 84.2398 21.59 84.0998 21.71C83.9598 21.83 83.8898 21.96 83.8898 22.12C83.8898 22.26 83.9298 22.37 84.0198 22.45C84.1098 22.53 84.2398 22.57 84.4098 22.57V22.58Z" fill="#231815"/>
<path d="M87.2402 19.84L87.2802 20.31C87.3902 20.14 87.5202 20.01 87.6802 19.92C87.8402 19.83 88.0202 19.78 88.2202 19.78C88.5602 19.78 88.8302 19.88 89.0102 20.08C89.1902 20.28 89.2902 20.59 89.2902 21.01V23.01H88.7102V21.02C88.7102 20.74 88.6502 20.54 88.5402 20.43C88.4302 20.32 88.2602 20.25 88.0402 20.25C87.8602 20.25 87.7102 20.29 87.5902 20.36C87.4702 20.43 87.3702 20.53 87.3002 20.66V23.01H86.7202V19.84H87.2402Z" fill="#231815"/>
<path d="M91.3903 22.62C91.5703 22.62 91.7203 22.56 91.8603 22.44C92.0003 22.32 92.0602 22.18 92.0602 22H92.5803V22.02C92.6003 22.29 92.4802 22.54 92.2402 22.75C92.0002 22.96 91.7203 23.07 91.4003 23.07C90.9503 23.07 90.6103 22.92 90.3703 22.62C90.1303 22.32 90.0103 21.94 90.0103 21.49V21.37C90.0103 20.92 90.1303 20.55 90.3703 20.24C90.6103 19.94 90.9603 19.78 91.4003 19.78C91.7503 19.78 92.0402 19.89 92.2702 20.11C92.5002 20.33 92.6003 20.6 92.6003 20.92V20.94H92.0703C92.0703 20.75 92.0102 20.58 91.8802 20.45C91.7602 20.31 91.6003 20.25 91.4003 20.25C91.1203 20.25 90.9103 20.36 90.7803 20.58C90.6503 20.8 90.5902 21.07 90.5902 21.38V21.5C90.5902 21.82 90.6503 22.09 90.7803 22.31C90.9103 22.53 91.1103 22.64 91.4003 22.64L91.3903 22.62Z" fill="#231815"/>
<path d="M94.5799 23.07C94.1199 23.07 93.7699 22.92 93.5099 22.63C93.2599 22.34 93.1299 21.96 93.1299 21.48V21.35C93.1299 20.89 93.2599 20.52 93.5199 20.22C93.7799 19.92 94.0999 19.77 94.4799 19.77C94.8999 19.77 95.2199 19.9 95.4299 20.17C95.6399 20.44 95.7499 20.78 95.7499 21.22V21.52H93.7099C93.7099 21.85 93.7799 22.11 93.9199 22.31C94.0599 22.51 94.2799 22.61 94.5599 22.61C94.7599 22.61 94.9299 22.58 95.0699 22.53C95.2199 22.47 95.3399 22.4 95.4499 22.3L95.6799 22.68C95.5699 22.79 95.4199 22.88 95.2299 22.96C95.0399 23.04 94.8199 23.07 94.5599 23.07H94.5799ZM94.4899 20.23C94.2899 20.23 94.1199 20.31 93.9899 20.46C93.8599 20.62 93.7799 20.81 93.7499 21.06L95.1799 21.07V21.02C95.1799 20.79 95.1199 20.6 95.0099 20.45C94.8999 20.3 94.7199 20.22 94.4899 20.22V20.23Z" fill="#231815"/>
<path d="M98.5302 19.02H97.9502V18.43H98.5302V19.02ZM98.5302 23.01H97.9502V19.84H98.5302V23.01Z" fill="#231815"/>
<path d="M101.26 22.15C101.26 22.02 101.21 21.92 101.12 21.84C101.02 21.76 100.84 21.69 100.57 21.63C100.2 21.55 99.91 21.44 99.71 21.29C99.51 21.14 99.41 20.95 99.41 20.71C99.41 20.45 99.52 20.23 99.74 20.05C99.96 19.87 100.24 19.77 100.59 19.77C100.94 19.77 101.24 19.87 101.46 20.06C101.68 20.25 101.79 20.48 101.78 20.74V20.76H101.22C101.22 20.62 101.16 20.5 101.04 20.39C100.92 20.28 100.77 20.22 100.58 20.22C100.38 20.22 100.22 20.27 100.12 20.36C100.02 20.45 99.97 20.56 99.97 20.69C99.97 20.82 100.01 20.91 100.1 20.98C100.19 21.05 100.37 21.11 100.64 21.17C101.03 21.25 101.32 21.37 101.52 21.52C101.72 21.67 101.82 21.87 101.82 22.11C101.82 22.39 101.71 22.62 101.48 22.8C101.25 22.98 100.95 23.07 100.59 23.07C100.19 23.07 99.87 22.97 99.63 22.76C99.39 22.55 99.29 22.32 99.3 22.04V22.02H99.86C99.86 22.23 99.95 22.37 100.09 22.47C100.23 22.57 100.4 22.61 100.59 22.61C100.8 22.61 100.96 22.57 101.07 22.48C101.19 22.39 101.24 22.28 101.24 22.15H101.26Z" fill="#231815"/>
<path d="M105.55 20.5H106.6V20.95H105.55V22.16H105.03V20.95H103.91V20.5H105.03V19.3H105.55V20.5ZM106.47 22.99H104.02V22.54H106.47V22.99Z" fill="#231815"/>
<path d="M109.89 21.5C109.89 21.98 109.77 22.36 109.52 22.65C109.27 22.93 108.94 23.07 108.53 23.07C108.12 23.07 107.79 22.93 107.54 22.65C107.29 22.37 107.17 21.99 107.17 21.5V20.25C107.17 19.77 107.29 19.39 107.54 19.11C107.78 18.83 108.11 18.69 108.53 18.69C108.95 18.69 109.27 18.83 109.52 19.11C109.77 19.39 109.89 19.77 109.89 20.25V21.5ZM109.31 20.13C109.31 19.82 109.24 19.58 109.1 19.4C108.96 19.22 108.77 19.13 108.52 19.13C108.27 19.13 108.08 19.22 107.95 19.4C107.82 19.58 107.75 19.82 107.75 20.13V21.62C107.75 21.93 107.82 22.17 107.96 22.35C108.1 22.53 108.29 22.62 108.54 22.62C108.79 22.62 108.98 22.53 109.12 22.35C109.26 22.17 109.32 21.93 109.32 21.62V20.13H109.31Z" fill="#231815"/>
<path d="M111.27 23.01H110.69V22.42H111.27V23.01Z" fill="#231815"/>
<path d="M113.52 20.58C113.78 20.58 113.96 20.52 114.07 20.39C114.18 20.26 114.23 20.08 114.23 19.85C114.23 19.64 114.17 19.46 114.06 19.33C113.94 19.2 113.77 19.13 113.54 19.13C113.31 19.13 113.13 19.2 112.99 19.34C112.85 19.48 112.77 19.65 112.77 19.86H112.22V19.84C112.2 19.52 112.32 19.25 112.57 19.02C112.82 18.79 113.14 18.68 113.54 18.68C113.94 18.68 114.25 18.78 114.47 18.98C114.69 19.18 114.81 19.47 114.81 19.86C114.81 20.06 114.76 20.24 114.65 20.4C114.54 20.56 114.4 20.69 114.21 20.78C114.42 20.87 114.59 21 114.7 21.17C114.81 21.34 114.87 21.56 114.87 21.8C114.87 22.19 114.75 22.5 114.5 22.72C114.25 22.94 113.93 23.05 113.54 23.05C113.18 23.05 112.86 22.94 112.58 22.73C112.3 22.52 112.17 22.23 112.18 21.88V21.86H112.74C112.74 22.07 112.81 22.24 112.96 22.38C113.11 22.52 113.3 22.59 113.54 22.59C113.78 22.59 113.96 22.52 114.09 22.37C114.22 22.22 114.29 22.03 114.29 21.8C114.29 21.53 114.23 21.33 114.1 21.2C113.98 21.07 113.78 21 113.52 21H113.05V20.55H113.52V20.58Z" fill="#231815"/>
<path d="M116.14 19.84L116.18 20.26C116.28 20.11 116.41 19.99 116.57 19.91C116.73 19.83 116.91 19.79 117.13 19.79C117.35 19.79 117.52 19.84 117.67 19.94C117.82 20.04 117.93 20.18 118.01 20.38C118.11 20.2 118.24 20.06 118.41 19.95C118.57 19.85 118.76 19.79 118.98 19.79C119.3 19.79 119.56 19.9 119.74 20.12C119.92 20.34 120.02 20.68 120.02 21.12V23.02H119.44V21.12C119.44 20.81 119.39 20.59 119.28 20.46C119.17 20.33 119.01 20.27 118.8 20.27C118.6 20.27 118.44 20.34 118.32 20.48C118.2 20.62 118.13 20.79 118.11 21V23.04H117.53V21.14C117.53 20.84 117.47 20.63 117.36 20.49C117.25 20.35 117.09 20.28 116.88 20.28C116.7 20.28 116.56 20.32 116.45 20.39C116.34 20.46 116.25 20.56 116.19 20.69V23.04H115.61V19.87H116.13L116.14 19.84Z" fill="#231815"/>
<path d="M121.38 19.84L121.42 20.26C121.52 20.11 121.65 19.99 121.81 19.91C121.97 19.83 122.15 19.79 122.37 19.79C122.59 19.79 122.76 19.84 122.91 19.94C123.06 20.04 123.17 20.18 123.25 20.38C123.35 20.2 123.48 20.06 123.65 19.95C123.81 19.85 124 19.79 124.22 19.79C124.54 19.79 124.8 19.9 124.98 20.12C125.16 20.34 125.26 20.68 125.26 21.12V23.02H124.68V21.12C124.68 20.81 124.63 20.59 124.52 20.46C124.41 20.33 124.25 20.27 124.04 20.27C123.84 20.27 123.68 20.34 123.56 20.48C123.44 20.62 123.37 20.79 123.35 21V23.04H122.77V21.14C122.77 20.84 122.71 20.63 122.6 20.49C122.49 20.35 122.33 20.28 122.12 20.28C121.94 20.28 121.8 20.32 121.69 20.39C121.58 20.46 121.49 20.56 121.43 20.69V23.04H120.85V19.87H121.37L121.38 19.84Z" fill="#231815"/>
<path d="M126.74 23.01H126.16V22.42H126.74V23.01Z" fill="#231815"/>
<path d="M65.5698 284.48V175.17" stroke="black" stroke-width="0.5" stroke-linecap="round" stroke-linejoin="round"/>
<path d="M65.57 176.07L63.77 177.17L63.73 177.11L64.9 174.17C65.13 173.15 65.35 172.12 65.58 171.1C65.81 172.12 66.03 173.15 66.26 174.17L67.43 177.11L67.4 177.17L65.59 176.07H65.57Z" fill="black"/>
<path d="M65.5698 403.15V315.09" stroke="black" stroke-width="0.5" stroke-linecap="round" stroke-linejoin="round"/>
<path d="M65.57 402.25L63.77 401.15L63.73 401.21L64.9 404.15C65.13 405.17 65.35 406.2 65.58 407.22C65.81 406.2 66.03 405.17 66.26 404.15L67.43 401.21L67.4 401.15L65.59 402.25H65.57Z" fill="black"/>
<path d="M80.18 47.08H50.25" stroke="black" stroke-width="0.5" stroke-linecap="round" stroke-linejoin="round"/>
<path d="M51.1399 47.08L52.2399 48.88L52.1799 48.92L49.2399 47.75C48.2199 47.52 47.1899 47.3 46.1699 47.07C47.1899 46.84 48.2199 46.62 49.2399 46.39L52.1799 45.22L52.2399 45.25L51.1399 47.06V47.08Z" fill="black"/>
<path d="M132.8 47.08H102.86" stroke="black" stroke-width="0.5" stroke-linecap="round" stroke-linejoin="round"/>
<path d="M131.9 47.08L130.8 48.88L130.86 48.92L133.8 47.75C134.82 47.52 135.85 47.3 136.87 47.07C135.85 46.84 134.82 46.62 133.8 46.39L130.86 45.22L130.8 45.25L131.9 47.06V47.08Z" fill="black"/>
<path d="M91.5202 171.1H56.9502" stroke="black" stroke-width="0.5" stroke-linecap="round" stroke-linejoin="round"/>
<path d="M91.5202 407.22H56.9502" stroke="black" stroke-width="0.5" stroke-linecap="round" stroke-linejoin="round"/>
<path d="M146.85 281.65V461.82" stroke="black" stroke-width="0.5" stroke-linecap="round" stroke-linejoin="round"/>
<path d="M146.85 460.93L148.65 459.83L148.69 459.89L147.52 462.83C147.29 463.85 147.07 464.88 146.84 465.9C146.61 464.88 146.39 463.85 146.16 462.83L144.99 459.89L145.02 459.83L146.83 460.93H146.85Z" fill="black"/>
<path d="M146.85 67.46V248.17" stroke="black" stroke-width="0.5" stroke-linecap="round" stroke-linejoin="round"/>
<path d="M146.85 68.35L148.65 69.45L148.69 69.39L147.52 66.45C147.29 65.43 147.07 64.4 146.84 63.38C146.61 64.4 146.39 65.43 146.16 66.45L144.99 69.39L145.02 69.45L146.83 68.35H146.85Z" fill="black"/>
<path d="M36.0698 286.67V537.79" stroke="black" stroke-width="0.5" stroke-linecap="round" stroke-linejoin="round"/>
<path d="M36.07 536.9L37.87 535.8L37.91 535.86L36.74 538.8C36.51 539.82 36.29 540.85 36.06 541.87C35.83 540.85 35.61 539.82 35.38 538.8L34.21 535.86L34.24 535.8L36.05 536.9H36.07Z" fill="black"/>
<path d="M36.0698 34.86V250.35" stroke="black" stroke-width="0.5" stroke-linecap="round" stroke-linejoin="round"/>
<path d="M36.07 35.76L37.87 36.86L37.91 36.8L36.74 33.86C36.51 32.84 36.29 31.81 36.06 30.79C35.83 31.81 35.61 32.84 35.38 33.86L34.21 36.8L34.24 36.86L36.05 35.76H36.07Z" fill="black"/>
<path d="M117.2 315.09V461.82" stroke="black" stroke-width="0.5" stroke-linecap="round" stroke-linejoin="round"/>
<path d="M117.2 460.93L119 459.83L119.04 459.89L117.87 462.83C117.64 463.85 117.42 464.88 117.19 465.9C116.96 464.88 116.74 463.85 116.51 462.83L115.34 459.89L115.37 459.83L117.18 460.93H117.2Z" fill="black"/>
<path d="M117.2 115.65V284.48" stroke="black" stroke-width="0.5" stroke-linecap="round" stroke-linejoin="round"/>
<path d="M117.2 116.54L119 117.64L119.04 117.58L117.87 114.64C117.64 113.62 117.42 112.59 117.19 111.57C116.96 112.59 116.74 113.62 116.51 114.64L115.34 117.58L115.37 117.64L117.18 116.54H117.2Z" fill="black"/>
<path d="M38.9501 277.01V277.92H32.9301L33.6001 279.74H32.7801L31.8101 277.15V277.01H38.9501Z" fill="#231815"/>
<path d="M33.7 270.05C34.06 270.05 34.37 270.14 34.65 270.33C34.93 270.52 35.14 270.77 35.3 271.09C35.46 270.72 35.69 270.42 36 270.21C36.31 269.99 36.65 269.89 37.04 269.89C37.66 269.89 38.15 270.1 38.51 270.51C38.88 270.93 39.06 271.47 39.06 272.15C39.06 272.83 38.88 273.38 38.51 273.79C38.14 274.2 37.65 274.41 37.04 274.41C36.66 274.41 36.31 274.31 36 274.1C35.69 273.89 35.46 273.6 35.3 273.23C35.14 273.55 34.93 273.79 34.65 273.98C34.37 274.16 34.06 274.25 33.71 274.25C33.11 274.25 32.64 274.06 32.28 273.67C31.92 273.28 31.75 272.78 31.75 272.15C31.75 271.52 31.93 271.02 32.28 270.63C32.63 270.24 33.11 270.05 33.71 270.05H33.7ZM32.49 272.15C32.49 272.5 32.6 272.79 32.82 273.01C33.04 273.23 33.34 273.34 33.72 273.34C34.1 273.34 34.37 273.23 34.6 273.02C34.82 272.8 34.93 272.51 34.93 272.15C34.93 271.79 34.82 271.5 34.6 271.28C34.38 271.06 34.08 270.96 33.72 270.96C33.36 270.96 33.06 271.07 32.84 271.3C32.61 271.52 32.5 271.81 32.5 272.15H32.49ZM37.01 270.79C36.61 270.79 36.29 270.92 36.04 271.17C35.79 271.42 35.66 271.75 35.66 272.16C35.66 272.57 35.78 272.89 36.03 273.14C36.28 273.39 36.6 273.51 37.01 273.51C37.42 273.51 37.73 273.39 37.96 273.15C38.19 272.91 38.31 272.58 38.31 272.15C38.31 271.72 38.19 271.39 37.96 271.15C37.73 270.91 37.41 270.79 37.01 270.79Z" fill="#231815"/>
<path d="M35.92 264.29C36.98 264.29 37.76 264.47 38.28 264.83C38.79 265.19 39.05 265.76 39.05 266.52C39.05 267.28 38.8 267.84 38.3 268.2C37.8 268.56 37.05 268.75 36.05 268.77H34.84C33.8 268.77 33.02 268.59 32.51 268.23C32 267.87 31.75 267.3 31.75 266.53C31.75 265.76 32 265.2 32.49 264.84C32.98 264.48 33.74 264.29 34.76 264.28H35.93L35.92 264.29ZM34.69 265.19C33.93 265.19 33.37 265.3 33.02 265.51C32.67 265.72 32.49 266.07 32.49 266.53C32.49 266.99 32.66 267.33 33.01 267.54C33.36 267.75 33.89 267.86 34.62 267.87H36.07C36.84 267.87 37.41 267.76 37.77 267.54C38.13 267.32 38.32 266.98 38.32 266.53C38.32 266.08 38.15 265.75 37.8 265.54C37.46 265.32 36.91 265.21 36.17 265.2H34.69V265.19Z" fill="#231815"/>
<path d="M38.4802 263.02C38.3202 263.02 38.1902 262.97 38.0902 262.88C37.9902 262.79 37.9302 262.65 37.9302 262.46C37.9302 262.27 37.9802 262.13 38.0902 262.04C38.1902 261.94 38.3202 261.9 38.4802 261.9C38.6402 261.9 38.7602 261.95 38.8602 262.04C38.9602 262.14 39.0102 262.28 39.0102 262.46C39.0102 262.64 38.9602 262.78 38.8602 262.88C38.7602 262.97 38.6302 263.02 38.4802 263.02Z" fill="#231815"/>
<path d="M34.96 259.19V258.51C34.96 258.08 34.84 257.75 34.62 257.5C34.4 257.26 34.11 257.13 33.74 257.13C32.91 257.13 32.49 257.55 32.49 258.38C32.49 258.77 32.6 259.08 32.82 259.32C33.04 259.55 33.34 259.67 33.71 259.67V260.57C33.15 260.57 32.68 260.36 32.31 259.95C31.94 259.54 31.75 259.01 31.75 258.38C31.75 257.71 31.93 257.18 32.28 256.8C32.64 256.42 33.13 256.23 33.76 256.23C34.07 256.23 34.37 256.33 34.66 256.53C34.95 256.73 35.17 257 35.31 257.35C35.43 256.96 35.64 256.66 35.93 256.44C36.22 256.23 36.57 256.12 36.98 256.12C37.62 256.12 38.12 256.33 38.5 256.74C38.88 257.16 39.06 257.7 39.06 258.37C39.06 259.04 38.88 259.58 38.52 260C38.16 260.42 37.68 260.63 37.09 260.63V259.72C37.47 259.72 37.76 259.6 37.99 259.35C38.22 259.1 38.33 258.78 38.33 258.37C38.33 257.93 38.22 257.6 37.99 257.37C37.76 257.14 37.44 257.02 37.01 257.02C36.58 257.02 36.28 257.15 36.06 257.4C35.84 257.65 35.73 258.02 35.72 258.5V259.18H34.98L34.96 259.19Z" fill="#231815"/>
<path d="M150.34 270.67V271.58H144.32L144.99 273.4H144.17L143.2 270.81V270.67H150.34Z" fill="#231815"/>
<path d="M147.95 264.21V263.22H148.69V264.21H150.34V265.12H148.69V268.36H148.16L143.23 265.18V264.22H147.95V264.21ZM147.95 267.33V265.12H144.46L144.66 265.23L147.95 267.33Z" fill="#231815"/>
<path d="M150.34 257.75V262.41H149.69L146.96 259.95C146.55 259.59 146.21 259.33 145.95 259.2C145.69 259.07 145.42 258.99 145.15 258.99C144.78 258.99 144.47 259.1 144.24 259.33C144 259.55 143.88 259.85 143.88 260.23C143.88 260.68 144.01 261.03 144.26 261.28C144.52 261.53 144.87 261.65 145.33 261.65V262.55C144.68 262.55 144.15 262.34 143.74 261.92C143.34 261.5 143.13 260.93 143.13 260.23C143.13 259.57 143.3 259.05 143.65 258.66C144 258.27 144.46 258.08 145.03 258.08C145.73 258.08 146.56 258.53 147.53 259.42L149.6 261.32V257.75H150.34Z" fill="#231815"/>
<path d="M120.41 306.98V307.89H114.39L115.06 309.71H114.24L113.27 307.12V306.98H120.41Z" fill="#231815"/>
<path d="M120.41 299.68V304.34H119.76L117.03 301.88C116.62 301.51 116.28 301.26 116.02 301.13C115.76 300.99 115.49 300.92 115.22 300.92C114.85 300.92 114.54 301.03 114.31 301.26C114.07 301.48 113.95 301.78 113.95 302.16C113.95 302.61 114.08 302.96 114.33 303.21C114.59 303.46 114.94 303.58 115.4 303.58V304.48C114.75 304.48 114.22 304.27 113.81 303.85C113.41 303.43 113.2 302.87 113.2 302.16C113.2 301.5 113.37 300.98 113.72 300.59C114.07 300.2 114.53 300.01 115.1 300.01C115.8 300.01 116.63 300.46 117.6 301.35L119.66 303.25V299.68H120.4H120.41Z" fill="#231815"/>
<path d="M116.84 298.3L113.3 297.94V294.3H114.13V297.18L116.07 297.39C115.86 297.04 115.76 296.65 115.76 296.2C115.76 295.55 115.97 295.04 116.4 294.66C116.83 294.28 117.41 294.09 118.14 294.09C118.87 294.09 119.45 294.29 119.87 294.68C120.29 295.07 120.5 295.63 120.5 296.34C120.5 296.97 120.33 297.48 119.98 297.88C119.63 298.28 119.15 298.5 118.53 298.56V297.71C118.94 297.66 119.24 297.51 119.45 297.28C119.66 297.05 119.76 296.74 119.76 296.35C119.76 295.93 119.62 295.6 119.33 295.36C119.04 295.12 118.65 295 118.14 295C117.66 295 117.28 295.13 116.99 295.39C116.7 295.65 116.56 295.99 116.56 296.42C116.56 296.81 116.65 297.12 116.82 297.35L117.02 297.59L116.83 298.31L116.84 298.3Z" fill="#231815"/>
<path d="M88.2501 46.21H88.9301C89.3601 46.21 89.6901 46.09 89.9401 45.87C90.1901 45.65 90.3101 45.36 90.3101 44.99C90.3101 44.16 89.8901 43.74 89.0601 43.74C88.6701 43.74 88.3601 43.85 88.1201 44.07C87.8901 44.29 87.7701 44.59 87.7701 44.96H86.8701C86.8701 44.4 87.0801 43.93 87.4901 43.56C87.9001 43.19 88.4301 43 89.0601 43C89.7301 43 90.2601 43.18 90.6401 43.53C91.0201 43.88 91.2101 44.38 91.2101 45.01C91.2101 45.32 91.1101 45.62 90.9101 45.91C90.7101 46.2 90.4401 46.42 90.0901 46.56C90.4801 46.68 90.7801 46.89 91.0001 47.18C91.2101 47.47 91.3201 47.82 91.3201 48.23C91.3201 48.87 91.1101 49.37 90.7001 49.75C90.2801 50.12 89.7401 50.31 89.0701 50.31C88.4001 50.31 87.8601 50.13 87.4401 49.77C87.0201 49.41 86.8101 48.93 86.8101 48.34H87.7201C87.7201 48.71 87.8401 49.01 88.0901 49.24C88.3401 49.47 88.6601 49.58 89.0701 49.58C89.5101 49.58 89.8401 49.47 90.0701 49.24C90.3001 49.01 90.4201 48.68 90.4201 48.26C90.4201 47.84 90.2901 47.53 90.0401 47.31C89.7901 47.09 89.4201 46.97 88.9401 46.97H88.2601V46.23L88.2501 46.21Z" fill="#231815"/>
<path d="M97.2102 50.21H92.5502V49.56L95.0102 46.83C95.3702 46.42 95.6302 46.08 95.7602 45.82C95.9002 45.56 95.9702 45.29 95.9702 45.02C95.9702 44.65 95.8601 44.34 95.6301 44.11C95.4001 43.88 95.1102 43.75 94.7302 43.75C94.2802 43.75 93.9302 43.88 93.6802 44.13C93.4302 44.38 93.3102 44.74 93.3102 45.2H92.4102C92.4102 44.55 92.6202 44.02 93.0402 43.61C93.4602 43.21 94.0302 43 94.7302 43C95.3902 43 95.9102 43.17 96.3002 43.52C96.6802 43.87 96.8801 44.33 96.8801 44.9C96.8801 45.6 96.4302 46.43 95.5402 47.4L93.6402 49.47H97.2102V50.21Z" fill="#231815"/>
<path d="M157.72 53.51V54.42H151.7L152.37 56.24H151.55L150.58 53.65V53.51H157.72Z" fill="#231815"/>
<path d="M157.72 47.89V48.8H151.7L152.37 50.62H151.55L150.58 48.03V47.89H157.72Z" fill="#231815"/>
<path d="M157.25 45.13C157.09 45.13 156.96 45.08 156.86 44.99C156.76 44.9 156.7 44.76 156.7 44.57C156.7 44.38 156.75 44.24 156.86 44.15C156.96 44.05 157.09 44.01 157.25 44.01C157.41 44.01 157.52 44.06 157.63 44.15C157.73 44.25 157.78 44.39 157.78 44.57C157.78 44.75 157.73 44.89 157.63 44.99C157.53 45.08 157.4 45.13 157.25 45.13Z" fill="#231815"/>
<path d="M154.16 42.2L150.62 41.84V38.2H151.45V41.08L153.39 41.29C153.18 40.94 153.08 40.55 153.08 40.1C153.08 39.45 153.29 38.94 153.72 38.56C154.15 38.18 154.73 37.99 155.46 37.99C156.19 37.99 156.77 38.19 157.19 38.58C157.61 38.98 157.82 39.53 157.82 40.24C157.82 40.87 157.65 41.38 157.3 41.78C156.95 42.18 156.47 42.4 155.85 42.46V41.61C156.26 41.55 156.56 41.41 156.77 41.18C156.98 40.95 157.08 40.64 157.08 40.25C157.08 39.83 156.94 39.5 156.65 39.26C156.36 39.02 155.97 38.9 155.46 38.9C154.98 38.9 154.6 39.03 154.31 39.29C154.02 39.55 153.88 39.89 153.88 40.32C153.88 40.71 153.97 41.02 154.14 41.25L154.34 41.49L154.15 42.21L154.16 42.2Z" fill="#231815"/>
<path d="M63.8001 305.64C64.1601 305.64 64.4701 305.73 64.7501 305.92C65.0301 306.11 65.2401 306.36 65.4001 306.68C65.5601 306.31 65.7901 306.01 66.1001 305.8C66.4101 305.58 66.7501 305.47 67.1401 305.47C67.7601 305.47 68.2501 305.68 68.6101 306.09C68.9801 306.51 69.1601 307.05 69.1601 307.73C69.1601 308.41 68.9801 308.96 68.6101 309.37C68.2401 309.78 67.7501 309.99 67.1401 309.99C66.7601 309.99 66.4101 309.89 66.1001 309.67C65.7901 309.46 65.5601 309.17 65.4001 308.8C65.2401 309.12 65.0301 309.36 64.7501 309.55C64.4701 309.73 64.1601 309.82 63.8101 309.82C63.2101 309.82 62.7401 309.63 62.3801 309.24C62.0201 308.85 61.8501 308.35 61.8501 307.72C61.8501 307.09 62.0301 306.59 62.3801 306.2C62.7301 305.81 63.2101 305.62 63.8101 305.62L63.8001 305.64ZM62.5901 307.73C62.5901 308.09 62.7001 308.37 62.9201 308.59C63.1401 308.81 63.4401 308.92 63.8201 308.92C64.2001 308.92 64.4701 308.81 64.7001 308.6C64.9201 308.38 65.0301 308.09 65.0301 307.73C65.0301 307.37 64.9201 307.08 64.7001 306.86C64.4801 306.64 64.1801 306.54 63.8201 306.54C63.4601 306.54 63.1601 306.65 62.9401 306.88C62.7101 307.1 62.6001 307.39 62.6001 307.73H62.5901ZM67.1201 306.38C66.7201 306.38 66.4001 306.51 66.1501 306.76C65.9001 307.01 65.7701 307.34 65.7701 307.75C65.7701 308.16 65.8901 308.48 66.1401 308.73C66.3901 308.98 66.7101 309.1 67.1201 309.1C67.5301 309.1 67.8401 308.98 68.0701 308.74C68.3001 308.5 68.4201 308.17 68.4201 307.74C68.4201 307.31 68.3001 306.98 68.0701 306.74C67.8401 306.5 67.5201 306.38 67.1201 306.38Z" fill="#231815"/>
<path d="M65.0601 303.02V302.34C65.0601 301.91 64.9401 301.58 64.7201 301.33C64.5001 301.09 64.2101 300.96 63.8401 300.96C63.0101 300.96 62.5901 301.38 62.5901 302.21C62.5901 302.6 62.7001 302.91 62.9201 303.15C63.1401 303.38 63.4401 303.5 63.8101 303.5V304.4C63.2501 304.4 62.7801 304.19 62.4101 303.78C62.0401 303.37 61.8501 302.84 61.8501 302.21C61.8501 301.54 62.0301 301.01 62.3801 300.63C62.7401 300.25 63.2301 300.06 63.8601 300.06C64.1701 300.06 64.4701 300.16 64.7601 300.36C65.0501 300.56 65.2701 300.83 65.4101 301.18C65.5301 300.79 65.7401 300.49 66.0301 300.27C66.3201 300.06 66.6701 299.95 67.0801 299.95C67.7201 299.95 68.2201 300.16 68.6001 300.57C68.9801 300.99 69.1601 301.53 69.1601 302.2C69.1601 302.87 68.9801 303.41 68.6201 303.83C68.2601 304.25 67.7801 304.46 67.1901 304.46V303.55C67.5701 303.55 67.8601 303.43 68.0901 303.18C68.3201 302.93 68.4301 302.61 68.4301 302.2C68.4301 301.76 68.3201 301.43 68.0901 301.2C67.8601 300.97 67.5401 300.85 67.1101 300.85C66.6801 300.85 66.3801 300.98 66.1601 301.23C65.9401 301.48 65.8301 301.85 65.8201 302.33V303.01H65.0801L65.0601 303.02Z" fill="#231815"/>
<path d="M68.5803 298.61C68.4203 298.61 68.2903 298.56 68.1903 298.47C68.0903 298.38 68.0303 298.24 68.0303 298.05C68.0303 297.86 68.0803 297.72 68.1903 297.63C68.2903 297.53 68.4203 297.49 68.5803 297.49C68.7403 297.49 68.8603 297.54 68.9603 297.63C69.0603 297.73 69.1103 297.87 69.1103 298.05C69.1103 298.23 69.0603 298.38 68.9603 298.47C68.8603 298.56 68.7303 298.61 68.5803 298.61Z" fill="#231815"/>
<path d="M65.0601 294.77V294.09C65.0601 293.66 64.9401 293.33 64.7201 293.08C64.5001 292.84 64.2101 292.71 63.8401 292.71C63.0101 292.71 62.5901 293.13 62.5901 293.96C62.5901 294.35 62.7001 294.66 62.9201 294.89C63.1401 295.12 63.4401 295.24 63.8101 295.24V296.14C63.2501 296.14 62.7801 295.93 62.4101 295.52C62.0401 295.11 61.8501 294.59 61.8501 293.95C61.8501 293.28 62.0301 292.75 62.3801 292.37C62.7401 291.99 63.2301 291.8 63.8601 291.8C64.1701 291.8 64.4701 291.9 64.7601 292.1C65.0501 292.3 65.2701 292.57 65.4101 292.92C65.5301 292.53 65.7401 292.23 66.0301 292.01C66.3201 291.8 66.6701 291.69 67.0801 291.69C67.7201 291.69 68.2201 291.9 68.6001 292.31C68.9801 292.73 69.1601 293.27 69.1601 293.94C69.1601 294.61 68.9801 295.15 68.6201 295.57C68.2601 295.99 67.7801 296.2 67.1901 296.2V295.29C67.5701 295.29 67.8601 295.17 68.0901 294.92C68.3201 294.67 68.4301 294.35 68.4301 293.94C68.4301 293.5 68.3201 293.17 68.0901 292.94C67.8601 292.71 67.5401 292.59 67.1101 292.59C66.6801 292.59 66.3801 292.72 66.1601 292.97C65.9401 293.22 65.8301 293.59 65.8201 294.07V294.75H65.0801L65.0601 294.77Z" fill="#231815"/>
<path d="M140.24 30.78H158.56" stroke="black" stroke-width="0.5" stroke-linecap="round" stroke-linejoin="round"/>
<path d="M24.1602 30.78H42.4902" stroke="black" stroke-width="0.5" stroke-linecap="round" stroke-linejoin="round"/>
<path d="M112.07 111.57H134.04" stroke="black" stroke-width="0.5" stroke-linecap="round" stroke-linejoin="round"/>
<path d="M112.07 465.9H148.49" stroke="black" stroke-width="0.5" stroke-linecap="round" stroke-linejoin="round"/>
<path d="M145.27 9.01001C147.11 9.02001 148.95 9.21001 150.75 9.58001C152.55 9.95001 154.32 10.49 156.01 11.2C157.7 11.91 159.33 12.78 160.86 13.81C162.39 14.84 163.81 16.01 165.11 17.31C166.41 18.61 167.58 20.04 168.6 21.57C169.62 23.1 170.49 24.72 171.2 26.42C171.91 28.12 172.44 29.88 172.81 31.68C173.18 33.48 173.36 35.32 173.36 37.15" stroke="#231815" stroke-linecap="round" stroke-linejoin="round" stroke-dasharray="8.5 8.5"/>
<path d="M173.36 193.73L173.32 37.19" stroke="#231815" stroke-linecap="round" stroke-linejoin="round" stroke-dasharray="8.5 8.5"/>
<path d="M173.34 519.28L173.37 354.71L173.36 193.73" stroke="#231815" stroke-linecap="round" stroke-linejoin="round" stroke-dasharray="8.5 8.5"/>
<path d="M9.04977 37.19L9.00977 196.16" stroke="#231815" stroke-linecap="round" stroke-linejoin="round" stroke-dasharray="8.5 8.5"/>
<path d="M145.25 547.62L147.6 547.52L150.47 547.11L153.36 546.38L156.21 545.32L158.95 543.93L161.51 542.28L163.83 540.4L165.61 538.67" stroke="#231815" stroke-linecap="round" stroke-linejoin="round" stroke-dasharray="8.5 8.5"/>
<path d="M37.1201 547.62L73.0501 547.67H109.35L145.25 547.62" stroke="#231815" stroke-linecap="round" stroke-linejoin="round" stroke-dasharray="8.5 8.5"/>
<path d="M16.7798 538.68L18.5498 540.41L20.8598 542.27L23.3898 543.92L26.1098 545.3L28.9498 546.36L31.8398 547.1L34.7498 547.51L37.1198 547.62" stroke="#231815" stroke-linecap="round" stroke-linejoin="round" stroke-dasharray="8.5 8.5"/>
<path d="M173.36 37.19V37.2" stroke="#231815" stroke-linecap="round" stroke-linejoin="round" stroke-dasharray="8.5 8.5"/>
<path d="M9.03 519.28L9 353.04" stroke="#231815" stroke-linecap="round" stroke-linejoin="round" stroke-dasharray="8.5 8.5"/>
<path d="M9.01 193.86L9 354.85" stroke="#231815" stroke-linecap="round" stroke-linejoin="round" stroke-dasharray="8.5 8.5"/>
<path d="M9.02979 482.24V519.09" stroke="#231815" stroke-linecap="round" stroke-linejoin="round" stroke-dasharray="8.5 8.5"/>
<path d="M9.06006 37.2V37.13" stroke="#231815" stroke-linecap="round" stroke-linejoin="round" stroke-dasharray="8.5 8.5"/>
<path d="M173.36 37.13V37.2" stroke="#231815" stroke-linecap="round" stroke-linejoin="round" stroke-dasharray="8.5 8.5"/>
<path d="M173.36 190.68V195.97" stroke="#231815" stroke-linecap="round" stroke-linejoin="round" stroke-dasharray="8.5 8.5"/>
<path d="M9.0498 37.19L9.0598 37.2" stroke="#231815" stroke-linecap="round" stroke-linejoin="round" stroke-dasharray="8.5 8.5"/>
<path d="M37.2999 9.01001C37.2399 9.01001 37.1799 9.01001 37.1299 9.01001" stroke="#231815" stroke-linecap="round" stroke-linejoin="round" stroke-dasharray="8.5 8.5"/>
<path d="M145.22 9.01001C145.17 9.01001 145.12 9.01001 145.07 9.01001" stroke="#231815" stroke-linecap="round" stroke-linejoin="round" stroke-dasharray="8.5 8.5"/>
<path d="M16.78 538.68C15.55 537.39 14.45 535.97 13.49 534.47C12.53 532.97 11.71 531.37 11.05 529.72C10.39 528.07 9.89004 526.35 9.55004 524.59C9.21004 522.83 9.04004 521.05 9.04004 519.27" stroke="#231815" stroke-linecap="round" stroke-linejoin="round" stroke-dasharray="8.5 8.5"/>
<path d="M173.34 519.28C173.34 521.06 173.17 522.84 172.83 524.59C172.49 526.34 171.99 528.06 171.33 529.71C170.67 531.36 169.85 532.96 168.89 534.46C167.93 535.96 166.83 537.38 165.6 538.67" stroke="#231815" stroke-linecap="round" stroke-linejoin="round" stroke-dasharray="8.5 8.5"/>
<path d="M91.1899 9L145.07 9.01" stroke="#231815" stroke-linecap="round" stroke-linejoin="round" stroke-dasharray="8.5 8.5"/>
<path d="M9.02979 519.09V493.7" stroke="#231815" stroke-linecap="round" stroke-linejoin="round" stroke-dasharray="8.5 8.5"/>
<path d="M9.06006 37.13C9.06006 35.3 9.25006 33.46 9.61006 31.66C9.97006 29.86 10.5101 28.1 11.2101 26.4C11.9101 24.7 12.7901 23.08 13.8101 21.55C14.8301 20.02 16.0001 18.59 17.3001 17.29C18.6001 15.99 20.0201 14.82 21.5501 13.79C23.0801 12.76 24.7001 11.89 26.4001 11.18C28.1001 10.47 29.8601 9.92999 31.6601 9.55999C33.4601 9.18999 35.3001 8.99999 37.1401 8.98999" stroke="#231815" stroke-linecap="round" stroke-linejoin="round" stroke-dasharray="8.5 8.5"/>
<path d="M37.2998 9.01L91.1898 9" stroke="#231815" stroke-linecap="round" stroke-linejoin="round" stroke-dasharray="8.5 8.5"/>
</g>
<defs>
<clipPath id="clip0_256_139">
<rect width="182.37" height="556.67" fill="white"/>
</clipPath>
</defs>
</svg>
