<svg xmlns="http://www.w3.org/2000/svg" width="341" height="762" fill="none" viewBox="0 0 341 762"><g clip-path="url(#a)"><path fill="#fff" d="M0 0h340.543v761.638H0z"/><path stroke="#1a1311" stroke-dasharray="6 5 6 5" stroke-linecap="round" stroke-linejoin="round" d="M.521 44.114v686.728M340.025 730.842V44.114M28.942 759.324l-1.633-.416-2.649-.822-2.562-.948-2.464-1.069-2.355-1.186-2.236-1.3-2.107-1.4-1.969-1.5-1.824-1.589-1.666-1.677-1.5-1.755-1.331-1.825-1.156-1.886-.97-1.939-.783-1.983-.592-2.017-.4-2.041-.2-2.056M32.275 760.073l-3.232-.72M35.586 760.611l-3.311-.537M42.366 761.115l-3.409-.156-3.371-.349M43.407 761.124l-1.041-.009M297.139 761.123H43.407M298.385 761.111l-1.246.013M308.485 760.032l-3.312.55-3.374.361-3.414.168M311.804 759.275l-3.319.757M339.995 731.998l-.209 2.056-.406 2.04-.6 2.016-.791 1.982-.978 1.938-1.161 1.884-1.339 1.823-1.51 1.752-1.673 1.674-1.828 1.588-1.975 1.5-2.113 1.4-2.241 1.292-2.36 1.181-2.469 1.064-2.566.943-2.652.817-1.328.335M340.025 730.858l-.03 1.14M296.414.504H44.131M.546 731.915l-.026-1.057M298.076.536q.3.01.593.027M339.969 41.916q.02.38.032.761M296.414.504q.831 0 1.662.032M340.001 42.677q.012.366.018.732M340.02 43.404q.006.353.006.705M.552 42.453q.012-.302.027-.593M41.933.56q.38-.02.76-.032M.52 44.114q0-.83.031-1.661M42.693.528q.367-.012.733-.018M43.426.51q.352-.006.705-.006"/><path stroke="#1a1311" stroke-dasharray="6 5 6 5" stroke-linecap="round" stroke-linejoin="round" d="M339.969 41.916a43.6 43.6 0 0 0-41.3-41.353M41.933.56A43.61 43.61 0 0 0 .579 41.86"/><path stroke="#1a1311" stroke-linecap="round" stroke-linejoin="round" d="M210.638 642.278H80.244M80.244 548.735h130.394M71.74 633.773v-76.535M219.142 557.238v76.535M71.74 633.774a8.5 8.5 0 0 0 8.5 8.5M80.244 548.735a8.5 8.5 0 0 0-8.5 8.5M219.142 557.239a8.5 8.5 0 0 0-8.5-8.5M210.638 642.278a8.5 8.5 0 0 0 8.5-8.5"/><path stroke="#1a1311" stroke-linecap="round" stroke-linejoin="round" stroke-width="1.5" d="M170.273 743.475h-34.016M258.714 711.585h-79.937M127.753 711.585H81.832M306.052 569.853h-4.819M30.808 569.853h8.504M306.336 569.853h3.402M30.808 569.853V98.026M30.808 86.687v-41.67M39.312 89.522v8.504M39.312 669.066v-99.213M51.218 39.349v-8.504M136.257 743.475v-4.101M136.257 739.79v-19.701M170.273 743.475v-23.386M289.328 34.53v4.819M289.328 34.247v-3.402M301.233 569.853v99.213M301.233 98.026v-8.504M309.737 45.018v41.669M309.737 569.853V98.026M34.21 98.026h-3.402M34.493 98.026h4.819M301.233 98.026h8.504M306.902 89.522h-5.669M33.643 89.522h5.669M304.068 39.349h-14.74M51.217 39.349h-14.74M51.218 30.845h238.11M39.312 669.065a42.52 42.52 0 0 0 42.52 42.52M136.257 720.089a8.5 8.5 0 0 0-5.247-7.853 8.5 8.5 0 0 0-3.253-.647M36.477 39.349a5.67 5.67 0 0 0-5.669 5.669M30.808 86.687a2.835 2.835 0 0 0 2.835 2.835M258.714 711.585a42.52 42.52 0 0 0 42.519-42.52M178.777 711.585a8.5 8.5 0 0 0-8.5 8.5M309.737 45.018a5.67 5.67 0 0 0-5.669-5.669M306.903 89.522a2.836 2.836 0 0 0 2.834-2.835"/><path stroke="#8e8e8f" stroke-linecap="round" stroke-linejoin="round" stroke-width=".7" d="M269.485 497.711h22.677M263.816 482.12h34.016M260.981 524.64v-39.685M266.651 500.546v7.784M294.997 500.546v7.784M300.666 484.955v39.685M263.82 482.12c-.752 0-1.473.299-2.004.831a2.83 2.83 0 0 0-.831 2.004M300.666 484.955a2.835 2.835 0 0 0-2.834-2.835M294.997 500.546c0-.752-.299-1.473-.83-2.005a2.84 2.84 0 0 0-2.005-.83M269.485 497.711a2.83 2.83 0 0 0-2.004.83 2.845 2.845 0 0 0-.83 2.005M300.666 524.64h-5.669M266.65 524.64h-5.669M266.651 522.486h28.346M266.651 514.958h28.346M266.651 508.33v16.31M294.997 508.33v16.31"/><path stroke="#1a1311" stroke-linecap="round" stroke-linejoin="round" d="M98.698 426.845a6.376 6.376 0 0 1 7.622-6.255 6.378 6.378 0 1 1-7.622 6.255M110.746 669.349H99.407M99.407 656.593h11.339M99.407 656.593a6.37 6.37 0 0 0-4.51 1.868 6.37 6.37 0 0 0-1.868 4.51 6.38 6.38 0 0 0 6.378 6.378M110.745 669.349a6.4 6.4 0 0 0 4.51-1.868 6.39 6.39 0 0 0 1.868-4.51 6.4 6.4 0 0 0-1.868-4.51 6.37 6.37 0 0 0-4.51-1.868M98.698 171.727v-11.339M111.454 160.388v11.339M111.454 160.388a6.378 6.378 0 1 0-12.756 0M98.698 171.727a6.378 6.378 0 1 0 12.756 0M163.895 432.515v-11.339M176.651 421.176v11.339M163.895 432.514a6.378 6.378 0 1 0 12.756 0M176.651 421.176a6.378 6.378 0 1 0-12.756 0M229.092 432.515v-11.339M241.848 421.176v11.339M229.092 432.514a6.378 6.378 0 1 0 12.756 0M241.848 421.176a6.378 6.378 0 1 0-12.756 0M175.942 669.349h-11.339M164.603 656.593h11.339M164.603 656.593a6.37 6.37 0 0 0-4.51 1.868 6.39 6.39 0 0 0-1.868 4.51 6.4 6.4 0 0 0 1.868 4.51 6.39 6.39 0 0 0 4.51 1.868M175.942 669.349a6.4 6.4 0 0 0 4.51-1.868 6.37 6.37 0 0 0 1.382-6.951 6.37 6.37 0 0 0-3.451-3.451 6.4 6.4 0 0 0-2.441-.486M229.092 662.971a6.37 6.37 0 0 1 3.937-5.892 6.374 6.374 0 0 1 8.696 4.648 6.377 6.377 0 1 1-12.633 1.244M241.139 172.435H229.8M229.8 159.679h11.339M241.139 172.435a6.378 6.378 0 1 0 0-12.756M229.8 159.679a6.378 6.378 0 1 0 0 12.756"/><path stroke="#8e8e8f" stroke-linecap="round" stroke-linejoin="round" stroke-width=".7" d="M39.879 524.64v-39.685M45.548 500.546v7.784M71.06 497.711H48.383M73.895 500.546v7.784M79.564 484.955v39.685M42.714 482.12H76.73M42.714 482.12a2.837 2.837 0 0 0-2.835 2.835M79.564 484.955a2.836 2.836 0 0 0-2.835-2.835M73.895 500.546a2.836 2.836 0 0 0-2.835-2.835M48.383 497.711a2.837 2.837 0 0 0-2.835 2.835M79.564 524.64h-5.669M45.548 524.64h-5.669M73.894 522.486H45.548M73.894 514.958H45.548M73.895 508.33v16.31M45.548 508.33v16.31"/><path stroke="#1a1311" stroke-miterlimit="10" d="M327.157 729.457v13.475M327.157 742.932h-14.008M327.062 729.456a12.3 12.3 0 0 1-5.611 4.548 17.75 17.75 0 0 1-7.845 1.344M313.476 735.424c1.6 2.167 1.986 4.7 1.019 6.283a3.35 3.35 0 0 1-1.346 1.225"/><path stroke="#1a1311" stroke-miterlimit="10" d="M327.114 729.536a21.14 21.14 0 0 1-6.079 8.575 29.3 29.3 0 0 1-7.844 4.821"/><path fill="#1a1311" d="M288.92 734.39v-5.1h1.922q.389-.009.775.049c.225.032.44.113.63.238.177.126.317.295.408.492a1.66 1.66 0 0 1-.259 1.8 2 2 0 0 1-1.495.45h-1.306v2.072zm.675-2.673h1.317c.328.031.657-.055.928-.243a.87.87 0 0 0 .275-.685.9.9 0 0 0-.162-.548.75.75 0 0 0-.426-.3 2.8 2.8 0 0 0-.629-.045h-1.3zM293.678 734.39v-5.1h3.685v.6h-3.011v1.56h2.819v.6h-2.819v1.735h3.129v.6zM298.426 734.39v-5.1h3.685v.6H299.1v1.56h2.82v.6h-2.82v1.735h3.129v.6zM303.132 734.39v-5.1h.675v4.495h2.513v.6zM288.937 742.932v-5.1h.674v2.093h2.649v-2.093h.674v5.1h-.674v-2.4h-2.649v2.4zM294.071 742.932v-5.1h3.684v.6h-3.01v1.561h2.819v.6h-2.819v1.734h3.128v.6zM298.82 742.932v-5.1h2.26c.351-.015.701.031 1.036.137.238.093.438.264.566.485.141.232.215.498.212.769.009.339-.117.668-.351.914-.297.276-.68.442-1.084.472q.22.1.406.254.322.304.56.678l.886 1.387h-.848l-.674-1.06q-.298-.46-.487-.7a1.5 1.5 0 0 0-.342-.341 1 1 0 0 0-.308-.136 2 2 0 0 0-.375-.024h-.782v2.263zm.675-2.847h1.449c.245.007.489-.026.723-.1a.77.77 0 0 0 .4-.3.83.83 0 0 0 .136-.457.77.77 0 0 0-.262-.6 1.23 1.23 0 0 0-.829-.233h-1.622zM303.96 742.932v-5.1h3.684v.6h-3.01v1.561h2.819v.6h-2.819v1.734h3.128v.6zM219.979 740.384v-10.182h6.105v1.094h-4.872v3.44h4.415v1.094h-4.415v4.554zm13.785-7.636a1.56 1.56 0 0 0-.726-1.174q-.637-.417-1.561-.417-.676 0-1.183.219a1.9 1.9 0 0 0-.786.601 1.45 1.45 0 0 0-.278.87q0 .408.194.701.198.288.507.482.308.19.646.314.338.119.622.193l1.034.279q.397.104.885.288.492.184.939.502.453.314.746.806t.293 1.208q0 .825-.432 1.491-.428.666-1.253 1.059-.82.393-1.994.393-1.093 0-1.894-.353-.795-.352-1.253-.984a2.8 2.8 0 0 1-.512-1.467h1.273q.05.577.388.955.343.373.865.556.527.18 1.133.179.707 0 1.268-.228.562-.234.89-.647.328-.417.328-.974 0-.507-.283-.825a2.1 2.1 0 0 0-.746-.517 8 8 0 0 0-.999-.348l-1.253-.358q-1.194-.344-1.889-.98t-.696-1.665q0-.855.462-1.492a3.1 3.1 0 0 1 1.253-.994 4.2 4.2 0 0 1 1.765-.358q.984 0 1.75.353.765.348 1.213.955.452.606.477 1.377zm3.359 7.636v-10.182h6.106v1.094h-4.873v3.44h4.415v1.094h-4.415v4.554zm8.038 0v-.895l3.361-3.679q.591-.646.975-1.123.383-.483.566-.905.189-.428.189-.895 0-.537-.258-.93a1.67 1.67 0 0 0-.696-.606 2.25 2.25 0 0 0-.995-.214q-.586 0-1.024.243-.432.24-.671.672a2.1 2.1 0 0 0-.234 1.014h-1.173q0-.895.413-1.571a2.86 2.86 0 0 1 1.123-1.054 3.4 3.4 0 0 1 1.606-.378q.895 0 1.586.378.691.377 1.084 1.019t.393 1.427q0 .562-.204 1.099-.2.531-.696 1.188-.492.65-1.367 1.591l-2.287 2.446v.079h4.733v1.094zm12.872-5.638v1.094h-4.455v-1.094zm10.814.547q0 1.611-.581 2.784-.582 1.174-1.596 1.81t-2.317.636-2.317-.636-1.596-1.81-.581-2.784.581-2.784q.582-1.173 1.596-1.81 1.014-.636 2.317-.636 1.302 0 2.317.636 1.014.637 1.596 1.81.58 1.173.581 2.784m-1.193 0q0-1.323-.442-2.232-.438-.91-1.189-1.377a3.1 3.1 0 0 0-1.67-.468q-.925 0-1.676.468-.745.467-1.188 1.377-.437.909-.437 2.232t.437 2.232q.442.91 1.188 1.377a3.1 3.1 0 0 0 1.676.468q.924 0 1.67-.468.751-.466 1.189-1.377.442-.909.442-2.232m6.408 5.091h-3.142v-10.182h3.282q1.48 0 2.535.612a4 4 0 0 1 1.616 1.745q.562 1.133.562 2.714 0 1.591-.567 2.74a4.04 4.04 0 0 1-1.651 1.76q-1.083.61-2.635.611m-1.909-1.094h1.83q1.262 0 2.093-.487a3 3 0 0 0 1.238-1.387q.407-.9.407-2.143 0-1.233-.402-2.123a2.98 2.98 0 0 0-1.203-1.372q-.801-.482-1.994-.482h-1.969zm8.83 1.094v-10.182h3.559q1.065 0 1.755.368.691.363 1.03.98.338.611.338 1.357 0 .656-.234 1.084-.228.427-.607.676a2.8 2.8 0 0 1-.81.368v.099q.468.03.94.328t.79.855.318 1.362q0 .766-.348 1.378-.348.61-1.098.969-.751.358-1.954.358zm1.233-1.094h2.446q1.208 0 1.715-.467a1.5 1.5 0 0 0 .512-1.144q0-.516-.263-.954a1.9 1.9 0 0 0-.751-.706q-.487-.268-1.154-.268h-2.505zm0-4.613h2.287q.557 0 1.004-.219.453-.218.716-.617.268-.397.268-.934 0-.671-.467-1.139-.467-.472-1.482-.472h-2.326z"/></g><defs><clipPath id="a"><path fill="#fff" d="M0 0h340.543v761.638H0z"/></clipPath></defs></svg>