<svg width="200" height="207" viewBox="0 0 200 207" fill="none" xmlns="http://www.w3.org/2000/svg">
<g clip-path="url(#clip0_81_75)">
<path d="M200 0H0V207H200V0Z" fill="white"/>
<path d="M74.3219 191.761H86.0417" stroke="#231815" stroke-width="0.25" stroke-linecap="round" stroke-linejoin="round"/>
<path d="M120.269 191.44H131.989" stroke="#231815" stroke-width="0.25" stroke-linecap="round" stroke-linejoin="round"/>
<path d="M131.989 191.242H120.269" stroke="#231815" stroke-width="0.25" stroke-linecap="round" stroke-linejoin="round"/>
<path d="M86.1028 190.63C86.1028 189.896 85.5069 189.3 84.7735 189.3H84.4373H75.9875H75.6666C74.9331 189.3 74.3372 189.896 74.3372 190.63" stroke="#231815" stroke-width="0.25" stroke-linecap="round" stroke-linejoin="round"/>
<path d="M16.701 34.6197V45.105" stroke="#231815" stroke-width="0.25" stroke-linecap="round" stroke-linejoin="round"/>
<path d="M16.701 149.438V159.923" stroke="#231815" stroke-width="0.25" stroke-linecap="round" stroke-linejoin="round"/>
<path d="M18.4583 34.6197V45.105" stroke="#231815" stroke-width="0.25" stroke-linecap="round" stroke-linejoin="round"/>
<path d="M18.4583 149.438V159.923" stroke="#231815" stroke-width="0.25" stroke-linecap="round" stroke-linejoin="round"/>
<path d="M18.4583 146.824V114.207" stroke="#231815" stroke-width="0.25" stroke-linecap="round" stroke-linejoin="round"/>
<path d="M18.4583 80.0763V47.7034" stroke="#231815" stroke-width="0.25" stroke-linecap="round" stroke-linejoin="round"/>
<path d="M18.6569 159.923V149.438" stroke="#231815" stroke-width="0.25" stroke-linecap="round" stroke-linejoin="round"/>
<path d="M18.6569 146.901V114.207" stroke="#231815" stroke-width="0.25" stroke-linecap="round" stroke-linejoin="round"/>
<path d="M18.6569 80.1374V47.7034" stroke="#231815" stroke-width="0.25" stroke-linecap="round" stroke-linejoin="round"/>
<path d="M18.6569 45.105V34.6197" stroke="#231815" stroke-width="0.25" stroke-linecap="round" stroke-linejoin="round"/>
<path d="M45.7331 13.3741V14.9484" stroke="#231815" stroke-width="0.25" stroke-linecap="round" stroke-linejoin="round"/>
<path d="M49.7058 14.9484V17.2869" stroke="#231815" stroke-width="0.25" stroke-linecap="round" stroke-linejoin="round"/>
<path d="M16.8844 145.525H18.4582" stroke="#231815" stroke-width="0.25" stroke-linecap="round" stroke-linejoin="round"/>
<path d="M181.481 145.525H183.054" stroke="#231815" stroke-width="0.25" stroke-linecap="round" stroke-linejoin="round"/>
<path d="M65.3373 17.2869V14.9484" stroke="#231815" stroke-width="0.25" stroke-linecap="round" stroke-linejoin="round"/>
<path d="M69.3101 14.9484V13.3741" stroke="#231815" stroke-width="0.25" stroke-linecap="round" stroke-linejoin="round"/>
<path d="M183.054 115.506H181.481" stroke="#231815" stroke-width="0.25" stroke-linecap="round" stroke-linejoin="round"/>
<path d="M18.4582 115.506H16.8844" stroke="#231815" stroke-width="0.25" stroke-linecap="round" stroke-linejoin="round"/>
<path d="M121.568 192.999V191.44" stroke="#231815" stroke-width="0.25" stroke-linecap="round" stroke-linejoin="round"/>
<path d="M16.8844 78.7771H18.4582" stroke="#231815" stroke-width="0.25" stroke-linecap="round" stroke-linejoin="round"/>
<path d="M130.644 13.3741V14.9484" stroke="#231815" stroke-width="0.25" stroke-linecap="round" stroke-linejoin="round"/>
<path d="M130.69 192.999V191.44" stroke="#231815" stroke-width="0.25" stroke-linecap="round" stroke-linejoin="round"/>
<path d="M134.54 14.9484V17.2869" stroke="#231815" stroke-width="0.25" stroke-linecap="round" stroke-linejoin="round"/>
<path d="M181.481 61.8417H183.054" stroke="#231815" stroke-width="0.25" stroke-linecap="round" stroke-linejoin="round"/>
<path d="M150.233 17.2869V14.9484" stroke="#231815" stroke-width="0.25" stroke-linecap="round" stroke-linejoin="round"/>
<path d="M154.145 14.9484V13.3741" stroke="#231815" stroke-width="0.25" stroke-linecap="round" stroke-linejoin="round"/>
<path d="M183.054 49.0026H181.481" stroke="#231815" stroke-width="0.25" stroke-linecap="round" stroke-linejoin="round"/>
<path d="M18.4582 49.0026H16.8844" stroke="#231815" stroke-width="0.25" stroke-linecap="round" stroke-linejoin="round"/>
<path d="M181.297 34.6197V45.105" stroke="#231815" stroke-width="0.25" stroke-linecap="round" stroke-linejoin="round"/>
<path d="M181.297 47.7034V63.1409" stroke="#231815" stroke-width="0.25" stroke-linecap="round" stroke-linejoin="round"/>
<path d="M181.297 114.207V146.901" stroke="#231815" stroke-width="0.25" stroke-linecap="round" stroke-linejoin="round"/>
<path d="M181.297 149.514V160" stroke="#231815" stroke-width="0.25" stroke-linecap="round" stroke-linejoin="round"/>
<path d="M181.481 160V149.514" stroke="#231815" stroke-width="0.25" stroke-linecap="round" stroke-linejoin="round"/>
<path d="M181.481 146.824V114.207" stroke="#231815" stroke-width="0.25" stroke-linecap="round" stroke-linejoin="round"/>
<path d="M181.481 63.1409V47.7034" stroke="#231815" stroke-width="0.25" stroke-linecap="round" stroke-linejoin="round"/>
<path d="M181.481 45.105V34.6197" stroke="#231815" stroke-width="0.25" stroke-linecap="round" stroke-linejoin="round"/>
<path d="M183.253 160V149.514" stroke="#231815" stroke-width="0.25" stroke-linecap="round" stroke-linejoin="round"/>
<path d="M183.253 45.105V34.6197" stroke="#231815" stroke-width="0.25" stroke-linecap="round" stroke-linejoin="round"/>
<path d="M148.904 18.5861H135.885" stroke="#231815" stroke-width="0.25" stroke-linecap="round" stroke-linejoin="round"/>
<path d="M64.0385 18.5861H51.0046" stroke="#231815" stroke-width="0.25" stroke-linecap="round" stroke-linejoin="round"/>
<path d="M44.4343 15.1318H49.7059" stroke="#231815" stroke-width="0.25" stroke-linecap="round" stroke-linejoin="round"/>
<path d="M65.3373 15.1318H70.6089" stroke="#231815" stroke-width="0.25" stroke-linecap="round" stroke-linejoin="round"/>
<path d="M129.33 15.1318H134.54" stroke="#231815" stroke-width="0.25" stroke-linecap="round" stroke-linejoin="round"/>
<path d="M150.233 15.1318H155.444" stroke="#231815" stroke-width="0.25" stroke-linecap="round" stroke-linejoin="round"/>
<path d="M44.4343 14.9484H70.6089" stroke="#231815" stroke-width="0.25" stroke-linecap="round" stroke-linejoin="round"/>
<path d="M129.33 14.9484H155.443" stroke="#231815" stroke-width="0.25" stroke-linecap="round" stroke-linejoin="round"/>
<path d="M63.9926 18.5861C64.7261 18.5861 65.322 17.99 65.322 17.2564" stroke="#231815" stroke-width="0.25" stroke-linecap="round" stroke-linejoin="round"/>
<path d="M49.7058 17.2564C49.7058 17.99 50.3018 18.5861 51.0352 18.5861" stroke="#231815" stroke-width="0.25" stroke-linecap="round" stroke-linejoin="round"/>
<path d="M148.904 18.5861C149.637 18.5861 150.233 17.99 150.233 17.2564" stroke="#231815" stroke-width="0.25" stroke-linecap="round" stroke-linejoin="round"/>
<path d="M134.54 17.2564C134.54 17.99 135.136 18.5861 135.87 18.5861" stroke="#231815" stroke-width="0.25" stroke-linecap="round" stroke-linejoin="round"/>
<path d="M16.9302 84.0809V110.309C16.9302 111.043 17.5262 111.639 18.2596 111.639H18.4888C19.0847 111.639 19.5584 112.113 19.5584 112.709V113.168C19.5584 113.764 19.0847 114.237 18.4888 114.237H16.9302V146.885H18.4888C19.0847 146.885 19.5584 147.359 19.5584 147.955V148.475C19.5584 149.071 19.0847 149.545 18.4888 149.545H14.7452C14.0118 149.545 13.4158 150.141 13.4158 150.875V158.624C13.4158 159.358 14.0118 159.954 14.7452 159.954H18.4888C19.0847 159.954 19.5584 160.428 19.5584 161.024V161.421C19.5584 162.017 19.0847 162.491 18.4888 162.491H18.2596C17.5262 162.491 16.9302 163.087 16.9302 163.821V178.357C16.9302 181.291 18.3207 184.027 20.6891 185.754C21.0711 186.045 21.4684 186.305 21.881 186.549L22.4616 187.054L25.0286 189.392H25.0439C25.7774 190.065 26.7094 190.431 27.7026 190.431H50.042C50.6991 190.431 51.3408 190.263 51.9215 189.958L52.2882 189.713C52.8688 189.392 53.5106 189.239 54.1676 189.239H72.962C73.6955 189.239 74.2914 189.835 74.2914 190.569V190.645V193.55H86.0875V190.584C86.0875 189.851 86.6835 189.255 87.4169 189.255H118.878C119.612 189.255 120.208 189.851 120.208 190.6V193.045H132.004V190.6C132.004 189.866 132.6 189.27 133.333 189.27H168.676C172.481 189.27 176.148 188.093 179.234 185.861L179.28 185.831C181.649 184.104 183.085 181.291 183.085 178.357V163.897C183.085 163.164 182.489 162.568 181.756 162.568H181.557C180.961 162.568 180.487 162.094 180.487 161.498V161.039C180.487 160.443 180.961 159.969 181.557 159.969H185.27C186.004 159.969 186.599 159.373 186.599 158.639V150.89C186.599 150.156 186.004 149.56 185.27 149.56H181.557C180.961 149.56 180.487 149.086 180.487 148.49V147.971C180.487 147.375 180.961 146.901 181.557 146.901H183.085V114.253H181.557C180.961 114.253 180.487 113.779 180.487 113.183V64.2414C180.487 63.6453 180.961 63.1715 181.557 63.1715H183.085V47.734H181.557C180.961 47.734 180.487 47.2601 180.487 46.664V46.2055C180.487 45.6094 180.961 45.1356 181.557 45.1356H185.27C186.004 45.1356 186.599 44.5395 186.599 43.8058V36.0565C186.599 35.3228 186.004 34.7267 185.27 34.7267H181.557C180.961 34.7267 180.487 34.2529 180.487 33.6568V33.1371C180.487 32.541 180.961 32.0672 181.557 32.0672H181.756C182.489 32.0672 183.085 31.4711 183.085 30.7374V25.2044C183.085 20.1452 178.99 16.0489 173.932 16.0489H156.207C155.825 16.0489 155.52 15.7432 155.52 15.3611V13.4352H129.391V15.3611C129.391 15.7432 129.085 16.0489 128.703 16.0489H71.2507C70.8687 16.0489 70.5631 15.7432 70.5631 15.3611V13.4352H44.4343V15.3611C44.4343 15.7432 44.1286 16.0489 43.7466 16.0489H26.0218C20.9642 16.0489 16.8691 20.1452 16.8691 25.2044V30.7374C16.8691 31.4711 17.465 32.0672 18.1985 32.0672H18.4277C19.0236 32.0672 19.4973 32.541 19.4973 33.1371V33.6568C19.4973 34.2529 19.0236 34.7267 18.4277 34.7267H14.6535C13.9201 34.7267 13.3242 35.3228 13.3242 36.0565V43.8058C13.3242 44.5395 13.9201 45.1356 14.6535 45.1356H18.4277C19.0236 45.1356 19.4973 45.6094 19.4973 46.2055V46.664C19.4973 47.2601 19.0236 47.734 18.4277 47.734H16.8691V80.1833H18.4277C19.0236 80.1833 19.4973 80.6571 19.4973 81.2532V81.6812C19.4973 82.2773 19.0236 82.7511 18.4277 82.7511H18.1985C17.465 82.7511 16.8691 83.3472 16.8691 84.0809" stroke="#231815" stroke-width="0.5" stroke-linecap="round" stroke-linejoin="round"/>
<path d="M127.512 179.228C125.77 179.228 124.349 180.649 124.349 182.392C124.349 184.134 125.77 185.556 127.512 185.556H132.722C134.464 185.556 135.885 184.134 135.885 182.392C135.885 180.649 134.464 179.228 132.722 179.228" stroke="#898989" stroke-width="0.25" stroke-linecap="round" stroke-linejoin="round"/>
<path d="M127.512 179.228H132.722" stroke="#898989" stroke-width="0.25" stroke-linecap="round" stroke-linejoin="round"/>
<path d="M34.6398 20.8788L31.3851 26.5494" stroke="#898989" stroke-width="0.25" stroke-linecap="round" stroke-linejoin="round"/>
<path d="M33.0201 26.5494V33.1218" stroke="#898989" stroke-width="0.25" stroke-linecap="round" stroke-linejoin="round"/>
<path d="M36.3358 33.1218V26.5494" stroke="#898989" stroke-width="0.25" stroke-linecap="round" stroke-linejoin="round"/>
<path d="M37.9708 26.5494L34.6398 20.8788" stroke="#898989" stroke-width="0.25" stroke-linecap="round" stroke-linejoin="round"/>
<path d="M33.0201 33.1218H36.3358" stroke="#898989" stroke-width="0.25" stroke-linecap="round" stroke-linejoin="round"/>
<path d="M31.3851 26.5494H33.0201" stroke="#898989" stroke-width="0.25" stroke-linecap="round" stroke-linejoin="round"/>
<path d="M36.3358 26.5494H37.9708" stroke="#898989" stroke-width="0.25" stroke-linecap="round" stroke-linejoin="round"/>
<path d="M47.093 187.237H46.4359" stroke="#898989" stroke-width="0.25" stroke-linecap="round" stroke-linejoin="round"/>
<path d="M30.7434 187.237H30.0863" stroke="#898989" stroke-width="0.25" stroke-linecap="round" stroke-linejoin="round"/>
<path d="M45.1983 186.396H31.981" stroke="#898989" stroke-width="0.25" stroke-linecap="round" stroke-linejoin="round"/>
<path d="M32.0422 185.617H45.1371" stroke="#898989" stroke-width="0.25" stroke-linecap="round" stroke-linejoin="round"/>
<path d="M32.0422 182.804H45.1371" stroke="#898989" stroke-width="0.25" stroke-linecap="round" stroke-linejoin="round"/>
<path d="M32.0422 180.924H45.1371" stroke="#898989" stroke-width="0.25" stroke-linecap="round" stroke-linejoin="round"/>
<path d="M28.7875 185.938V154.589" stroke="#898989" stroke-width="0.25" stroke-linecap="round" stroke-linejoin="round"/>
<path d="M32.0422 154.589V156.744" stroke="#898989" stroke-width="0.25" stroke-linecap="round" stroke-linejoin="round"/>
<path d="M32.0422 156.744V185.617" stroke="#898989" stroke-width="0.25" stroke-linecap="round" stroke-linejoin="round"/>
<path d="M32.0422 185.617V185.938" stroke="#898989" stroke-width="0.25" stroke-linecap="round" stroke-linejoin="round"/>
<path d="M34.2578 173.725V169.293" stroke="#898989" stroke-width="0.25" stroke-linecap="round" stroke-linejoin="round"/>
<path d="M36.4122 169.293V173.725" stroke="#898989" stroke-width="0.25" stroke-linecap="round" stroke-linejoin="round"/>
<path d="M40.8282 175.728V167.321" stroke="#898989" stroke-width="0.25" stroke-linecap="round" stroke-linejoin="round"/>
<path d="M32.0422 162.155H45.1371" stroke="#898989" stroke-width="0.25" stroke-linecap="round" stroke-linejoin="round"/>
<path d="M42.9827 167.321V175.728" stroke="#898989" stroke-width="0.25" stroke-linecap="round" stroke-linejoin="round"/>
<path d="M45.1371 154.589V156.744" stroke="#898989" stroke-width="0.25" stroke-linecap="round" stroke-linejoin="round"/>
<path d="M45.1371 156.744V185.617" stroke="#898989" stroke-width="0.25" stroke-linecap="round" stroke-linejoin="round"/>
<path d="M45.1371 185.617V185.938" stroke="#898989" stroke-width="0.25" stroke-linecap="round" stroke-linejoin="round"/>
<path d="M48.3918 154.589V185.938" stroke="#898989" stroke-width="0.25" stroke-linecap="round" stroke-linejoin="round"/>
<path d="M32.0422 160.321H45.1371" stroke="#898989" stroke-width="0.25" stroke-linecap="round" stroke-linejoin="round"/>
<path d="M32.0422 157.462H45.1371" stroke="#898989" stroke-width="0.25" stroke-linecap="round" stroke-linejoin="round"/>
<path d="M32.0422 156.744H45.1371" stroke="#898989" stroke-width="0.25" stroke-linecap="round" stroke-linejoin="round"/>
<path d="M30.0863 153.29H30.7434" stroke="#898989" stroke-width="0.25" stroke-linecap="round" stroke-linejoin="round"/>
<path d="M46.4359 153.29H47.093" stroke="#898989" stroke-width="0.25" stroke-linecap="round" stroke-linejoin="round"/>
<path d="M40.1253 164.983C40.1253 164.172 39.4682 163.515 38.6584 163.515C37.8486 163.515 37.1915 164.172 37.1915 164.983C37.1915 165.793 37.8486 166.45 38.6584 166.45C39.4682 166.45 40.1253 165.793 40.1253 164.983Z" stroke="#898989" stroke-width="0.25" stroke-linecap="round" stroke-linejoin="round"/>
<path d="M40.1253 178.081C40.1253 177.271 39.4682 176.614 38.6584 176.614C37.8486 176.614 37.1915 177.271 37.1915 178.081C37.1915 178.892 37.8486 179.549 38.6584 179.549C39.4682 179.549 40.1253 178.892 40.1253 178.081Z" stroke="#898989" stroke-width="0.25" stroke-linecap="round" stroke-linejoin="round"/>
<path d="M46.4665 153.29C45.7331 153.29 45.1371 153.886 45.1371 154.62" stroke="#898989" stroke-width="0.25" stroke-linecap="round" stroke-linejoin="round"/>
<path d="M48.3918 154.62C48.3918 153.886 47.7958 153.29 47.0624 153.29" stroke="#898989" stroke-width="0.25" stroke-linecap="round" stroke-linejoin="round"/>
<path d="M32.0422 154.62C32.0422 153.886 31.4462 153.29 30.7128 153.29" stroke="#898989" stroke-width="0.25" stroke-linecap="round" stroke-linejoin="round"/>
<path d="M30.1169 153.29C29.3835 153.29 28.7875 153.886 28.7875 154.62" stroke="#898989" stroke-width="0.25" stroke-linecap="round" stroke-linejoin="round"/>
<path d="M28.7875 185.907C28.7875 186.641 29.3835 187.237 30.1169 187.237" stroke="#898989" stroke-width="0.25" stroke-linecap="round" stroke-linejoin="round"/>
<path d="M30.7128 187.237C31.4462 187.237 32.0422 186.641 32.0422 185.907" stroke="#898989" stroke-width="0.25" stroke-linecap="round" stroke-linejoin="round"/>
<path d="M45.1371 185.907C45.1371 186.641 45.7331 187.237 46.4665 187.237" stroke="#898989" stroke-width="0.25" stroke-linecap="round" stroke-linejoin="round"/>
<path d="M47.0624 187.237C47.7958 187.237 48.3918 186.641 48.3918 185.907" stroke="#898989" stroke-width="0.25" stroke-linecap="round" stroke-linejoin="round"/>
<path d="M42.9826 167.336C42.9826 166.74 42.509 166.266 41.913 166.266C41.3171 166.266 40.8434 166.74 40.8434 167.336" stroke="#898989" stroke-width="0.25" stroke-linecap="round" stroke-linejoin="round"/>
<path d="M40.8282 175.743C40.8282 176.339 41.3018 176.813 41.8978 176.813C42.4937 176.813 42.9674 176.339 42.9674 175.743" stroke="#898989" stroke-width="0.25" stroke-linecap="round" stroke-linejoin="round"/>
<path d="M34.2578 173.725C34.2578 174.321 34.7314 174.795 35.3274 174.795C35.9233 174.795 36.397 174.321 36.397 173.725" stroke="#898989" stroke-width="0.25" stroke-linecap="round" stroke-linejoin="round"/>
<path d="M36.4122 169.293C36.4122 168.697 35.9386 168.223 35.3426 168.223C34.7467 168.223 34.273 168.697 34.273 169.293" stroke="#898989" stroke-width="0.25" stroke-linecap="round" stroke-linejoin="round"/>
<path d="M66.8347 75.873V70.6609" stroke="#898989" stroke-width="0.25" stroke-linecap="round" stroke-linejoin="round"/>
<path d="M73.1454 70.6304V75.8424" stroke="#898989" stroke-width="0.25" stroke-linecap="round" stroke-linejoin="round"/>
<path d="M73.1454 70.6304C73.1454 68.8879 71.7243 67.4664 69.9824 67.4664C68.2405 67.4664 66.8195 68.8879 66.8195 70.6304" stroke="#898989" stroke-width="0.25" stroke-linecap="round" stroke-linejoin="round"/>
<path d="M66.8347 75.8424C66.8347 77.5849 68.2558 79.0064 69.9977 79.0064C71.7396 79.0064 73.1607 77.5849 73.1607 75.8424" stroke="#898989" stroke-width="0.25" stroke-linecap="round" stroke-linejoin="round"/>
<path d="M64.0232 50.1031C64.0232 48.3606 62.6022 46.9392 60.8603 46.9392C59.1183 46.9392 57.6973 48.3606 57.6973 50.1031C57.6973 51.8455 59.1183 53.267 60.8603 53.267C62.6022 53.267 64.0232 51.8455 64.0232 50.1031Z" stroke="#898989" stroke-width="0.25" stroke-linecap="round" stroke-linejoin="round"/>
<path d="M102.651 185.54H97.3795" stroke="#898989" stroke-width="0.25" stroke-linecap="round" stroke-linejoin="round"/>
<path d="M97.41 179.228H102.697" stroke="#898989" stroke-width="0.25" stroke-linecap="round" stroke-linejoin="round"/>
<path d="M97.41 179.228C95.6681 179.228 94.2471 180.649 94.2471 182.392C94.2471 184.134 95.6681 185.556 97.41 185.556" stroke="#898989" stroke-width="0.25" stroke-linecap="round" stroke-linejoin="round"/>
<path d="M102.697 185.54C104.439 185.54 105.86 184.119 105.86 182.376C105.86 180.634 104.439 179.213 102.697 179.213" stroke="#898989" stroke-width="0.25" stroke-linecap="round" stroke-linejoin="round"/>
<path d="M116.984 175.575H72.5648" stroke="#898989" stroke-width="0.25" stroke-linecap="round" stroke-linejoin="round"/>
<path d="M69.9518 172.976V125.915" stroke="#898989" stroke-width="0.25" stroke-linecap="round" stroke-linejoin="round"/>
<path d="M72.5648 123.255H116.984" stroke="#898989" stroke-width="0.25" stroke-linecap="round" stroke-linejoin="round"/>
<path d="M119.597 125.884V172.931" stroke="#898989" stroke-width="0.25" stroke-linecap="round" stroke-linejoin="round"/>
<path d="M69.9518 172.931C69.9518 174.383 71.1284 175.575 72.5953 175.575" stroke="#898989" stroke-width="0.25" stroke-linecap="round" stroke-linejoin="round"/>
<path d="M72.5953 123.255C71.1437 123.255 69.9518 124.432 69.9518 125.9" stroke="#898989" stroke-width="0.25" stroke-linecap="round" stroke-linejoin="round"/>
<path d="M116.953 175.575C118.405 175.575 119.597 174.398 119.597 172.931" stroke="#898989" stroke-width="0.25" stroke-linecap="round" stroke-linejoin="round"/>
<path d="M119.597 125.884C119.597 124.432 118.42 123.24 116.953 123.24" stroke="#898989" stroke-width="0.25" stroke-linecap="round" stroke-linejoin="round"/>
<path d="M96.86 75.873V70.6609" stroke="#898989" stroke-width="0.25" stroke-linecap="round" stroke-linejoin="round"/>
<path d="M103.186 70.6609V75.873" stroke="#898989" stroke-width="0.25" stroke-linecap="round" stroke-linejoin="round"/>
<path d="M103.186 70.6304C103.186 68.8879 101.765 67.4664 100.023 67.4664C98.281 67.4664 96.86 68.8879 96.86 70.6304" stroke="#898989" stroke-width="0.25" stroke-linecap="round" stroke-linejoin="round"/>
<path d="M96.86 75.8424C96.86 77.5849 98.281 79.0064 100.023 79.0064C101.765 79.0064 103.186 77.5849 103.186 75.8424" stroke="#898989" stroke-width="0.25" stroke-linecap="round" stroke-linejoin="round"/>
<path d="M64.0232 142.239C64.0232 140.496 62.6022 139.075 60.8603 139.075C59.1183 139.075 57.6973 140.496 57.6973 142.239C57.6973 143.981 59.1183 145.403 60.8603 145.403C62.6022 145.403 64.0232 143.981 64.0232 142.239Z" stroke="#898989" stroke-width="0.25" stroke-linecap="round" stroke-linejoin="round"/>
<path d="M136.084 142.239C136.084 143.981 137.505 145.403 139.247 145.403C140.989 145.403 142.41 143.981 142.41 142.239C142.41 140.496 140.989 139.075 139.247 139.075C137.505 139.075 136.084 140.496 136.084 142.239Z" stroke="#898989" stroke-width="0.25" stroke-linecap="round" stroke-linejoin="round"/>
<path d="M139.231 53.267C140.973 53.267 142.394 51.8455 142.394 50.1031C142.394 48.3606 140.973 46.9392 139.231 46.9392C137.489 46.9392 136.068 48.3606 136.068 50.1031C136.068 51.8455 137.489 53.267 139.231 53.267Z" stroke="#898989" stroke-width="0.25" stroke-linecap="round" stroke-linejoin="round"/>
<path d="M69.9824 185.54C68.2405 185.54 66.8195 184.119 66.8195 182.376C66.8195 180.634 68.2405 179.213 69.9824 179.213C71.7243 179.213 73.1454 180.634 73.1454 182.376C73.1454 184.119 71.7243 185.54 69.9824 185.54Z" stroke="#898989" stroke-width="0.25" stroke-linecap="round" stroke-linejoin="round"/>
<path d="M130.109 76.3927C131.851 76.3927 133.272 74.9712 133.272 73.2288C133.272 71.4863 131.851 70.0648 130.109 70.0648C128.367 70.0648 126.946 71.4863 126.946 73.2288C126.946 74.9712 128.367 76.3927 130.109 76.3927Z" stroke="#898989" stroke-width="0.25" stroke-linecap="round" stroke-linejoin="round"/>
<path d="M162.32 21.3374H163.817V27.9862C163.817 29.1478 163.695 30.0649 163.435 30.7374C163.175 31.41 162.717 31.9755 162.044 32.4035C161.372 32.8314 160.486 33.0454 159.401 33.0454C158.316 33.0454 157.476 32.862 156.788 32.4952C156.116 32.1283 155.627 31.5934 155.337 30.875C155.046 30.1719 154.909 29.209 154.909 27.9862V21.3374H156.406V27.9709C156.406 28.9644 156.498 29.7134 156.681 30.1872C156.865 30.661 157.185 31.0278 157.629 31.2877C158.072 31.5475 158.622 31.6698 159.264 31.6698C160.364 31.6698 161.158 31.41 161.617 30.9056C162.09 30.4012 162.32 29.423 162.32 27.9862V21.3527V21.3374Z" stroke="#898989" stroke-width="0.25" stroke-linecap="round" stroke-linejoin="round"/>
<path d="M165.651 32.8314V21.3221H169.929C170.678 21.3221 171.258 21.3527 171.656 21.4291C172.206 21.5208 172.679 21.7042 173.061 21.964C173.443 22.2239 173.734 22.5907 173.963 23.0798C174.192 23.5536 174.314 24.0733 174.314 24.6541C174.314 25.6324 174.009 26.4577 173.398 27.1303C172.786 27.8028 171.671 28.139 170.066 28.139H167.163V32.8161H165.666L165.651 32.8314ZM167.148 26.794H170.082C171.044 26.794 171.732 26.6106 172.145 26.2437C172.557 25.8769 172.756 25.3572 172.756 24.7C172.756 24.2262 172.634 23.8135 172.389 23.4619C172.145 23.1257 171.839 22.8964 171.442 22.7894C171.182 22.7283 170.723 22.6824 170.036 22.6824H167.133V26.794H167.148Z" stroke="#898989" stroke-width="0.25" stroke-linecap="round" stroke-linejoin="round"/>
</g>
<defs>
<clipPath id="clip0_81_75">
<rect width="200" height="207" fill="white"/>
</clipPath>
</defs>
</svg>
