<svg xmlns="http://www.w3.org/2000/svg" width="86" height="77" fill="none" viewBox="0 0 86 77"><g clip-path="url(#a)"><path fill="#fff" fill-rule="evenodd" d="M68.87 45.14h13.19c1.46 0 2.64 1.18 2.64 2.64v25.67c0 1.46-1.18 2.65-2.64 2.65H16.33C7.59 76.1.5 69.17.5 60.62s7.09-15.48 15.83-15.48h52.53" clip-rule="evenodd"/><path stroke="#000" stroke-miterlimit="10" stroke-width=".5" d="M23.29 60.62c0 2.49-1.89 4.5-4.21 4.5h-4.72c-2.33 0-4.21-2.01-4.21-4.5 0-2.48 1.89-4.5 4.21-4.5h4.72c2.33 0 4.21 2.01 4.21 4.5Z" clip-rule="evenodd"/><path stroke="#000" stroke-miterlimit="10" d="M68.87 45.14h13.19c1.46 0 2.64 1.18 2.64 2.64v25.67c0 1.46-1.18 2.65-2.64 2.65H16.33C7.59 76.1.5 69.17.5 60.62s7.09-15.48 15.83-15.48h52.53"/><path stroke="#000" stroke-miterlimit="10" stroke-width=".5" d="M64.59 60.62c0 1.86-1.51 3.37-3.37 3.37s-3.37-1.51-3.37-3.37 1.51-3.37 3.37-3.37 3.37 1.51 3.37 3.37ZM77.49 60.62c0 1.3-1.06 2.36-2.36 2.36s-2.36-1.06-2.36-2.36 1.05-2.36 2.36-2.36 2.36 1.05 2.36 2.36Z" clip-rule="evenodd"/><path fill="#fff" fill-rule="evenodd" d="M68.87.5h13.19c1.46 0 2.64 1.18 2.64 2.64v25.67c0 1.46-1.18 2.65-2.64 2.65H16.33C7.59 31.46.5 24.53.5 15.98S7.59.5 16.33.5h52.53" clip-rule="evenodd"/><path stroke="#000" stroke-miterlimit="10" stroke-width=".5" d="M23.29 15.98c0 2.49-1.89 4.5-4.21 4.5h-4.72c-2.33 0-4.21-2.01-4.21-4.5 0-2.48 1.89-4.5 4.21-4.5h4.72c2.33 0 4.21 2.01 4.21 4.5Z" clip-rule="evenodd"/><path stroke="#000" stroke-miterlimit="10" d="M68.87.5h13.19c1.46 0 2.64 1.18 2.64 2.64v25.67c0 1.46-1.18 2.65-2.64 2.65H16.33C7.59 31.46.5 24.53.5 15.98S7.59.5 16.33.5h52.53"/><path stroke="#000" stroke-miterlimit="10" stroke-width=".5" d="M64.59 15.98c0 1.86-1.51 3.37-3.37 3.37s-3.37-1.51-3.37-3.37 1.51-3.37 3.37-3.37 3.37 1.51 3.37 3.37ZM77.49 15.98c0 1.3-1.06 2.36-2.36 2.36s-2.36-1.06-2.36-2.36 1.05-2.36 2.36-2.36 2.36 1.05 2.36 2.36Z" clip-rule="evenodd"/></g><defs><clipPath id="a"><path fill="#fff" d="M0 0h85.2v76.6H0z"/></clipPath></defs></svg>