<svg xmlns="http://www.w3.org/2000/svg" width="130" height="16" fill="none" viewBox="0 0 130 16"><g clip-path="url(#a)"><path fill="#fff" d="M130 5.622H0v4.756h130z"/><mask id="b" width="31" height="16" x="49" y="0" maskUnits="userSpaceOnUse" style="mask-type:luminance"><path fill="#fff" d="M50.52.314c-.511 0-.92 3.438-.92 7.68s.409 7.68.92 7.68h28.283c.51 0 .92-3.439.92-7.68 0-4.242-.41-7.68-.92-7.68z"/></mask><g mask="url(#b)"><path fill="#fff" d="M79.736.314H49.6v15.372h30.136z"/></g><path stroke="#231815" stroke-miterlimit="10" stroke-width=".5" d="M78.815.314H50.533c-.511 0-.92 3.438-.92 7.68s.409 7.68.92 7.68h28.282c.512 0 .92-3.439.92-7.68 0-4.242-.408-7.68-.92-7.68Z"/><path stroke="#231815" stroke-linecap="round" stroke-linejoin="round" stroke-width=".3" d="M53.076.314c-.511 0-.92 3.438-.92 7.68s.409 7.68.92 7.68h2.3c-.51 0-.92-3.439-.92-7.68 0-4.242.41-7.68.92-7.68z"/><path stroke="#231815" stroke-miterlimit="10" stroke-width=".5" d="M0 10.353h49.651c.115 3.087.473 5.32.882 5.32h28.295c.41 0 .754-2.233.882-5.32h50.316M130 5.597H79.684c-.127-3.062-.472-5.283-.869-5.283H50.52c-.409 0-.754 2.22-.869 5.283H0"/></g><defs><clipPath id="a"><path fill="#fff" d="M0 0h130v16H0z"/></clipPath></defs></svg>