<svg xmlns="http://www.w3.org/2000/svg" width="141" height="283" fill="none" viewBox="0 0 141 283"><path fill="#fff" d="M140.92 0H0v282.43h140.92z"/><path stroke="#231815" stroke-linecap="round" stroke-linejoin="round" stroke-width=".5" d="M67.63 267.86H54.02M54.02 266.5h13.61M119.45 256.86H71.03M50.62 256.86H21.48M93.14 247.23H40.98M116.9 243.08h-12.47M104.43 241.37h12.47M104.43 237.46h12.47M104.43 235.76h12.47M113.95 233.72h-1.13M108.51 233.72h-1.13M107.38 226.92h1.13M112.82 226.92h1.13M116.9 224.88h-12.47M104.43 223.18h12.47M14.68 211.62v-11.34M14.68 188.94V41.54M14.68 37.01V20.34M16.04 211.62v-11.34M16.04 188.94V41.54M104.43 219.26h12.47M104.43 217.56h12.47M14.68 211.62h3.4M122.85 211.62h3.4M14.68 210.49h1.36M124.89 210.49h1.36M18.08 38.14v3.4M18.08 188.94v14.74M18.08 211.62v41.84M22.84 18.07v-3.4M23.98 14.67v1.36M27.94 48.91v198.43M40.98 209.81h52.16M16.04 203.68h2.04M122.85 203.68h2.04M126.25 200.85h-1.36M16.04 200.85h-1.36M126.25 200.28h-1.36M16.04 200.28h-1.36M29.08 16.14v1.59M33.61 247.34V48.91M37.58 243.82v-30.61M14.68 188.94h3.4M122.85 188.94h3.4M43.82 17.73v-1.7M14.68 187.81h1.36M124.89 187.81h1.36M52.89 90.53v5.67M53.12 96.2v-5.45M54.02 267.86v-1.36M54.02 266.39v-6.13M56.29 267.86v-1.36M58.56 90.75v-.22M63.09 16.14v1.59M65.36 267.86v-1.36M67.63 267.86v-7.6M77.83 17.73v-1.7M82.37 125.45v.23M87.81 120.01v5.44M88.04 125.68v-5.67M96.54 213.21v30.61M97.11 16.14v1.59M82.37 125.68h5.67M87.81 125.45h-5.44M105.56 219.26v3.92M105.56 237.46v3.91M106.81 233.15v-5.67M107.31 48.91v158.74M107.83 219.26v3.92M107.83 237.46v3.91M109.08 227.48v5.67M111.85 17.73v-1.7M112.25 233.15v-5.67M112.98 207.65V48.91M113.5 241.37v-3.91M113.5 223.18v-3.92M114.52 227.48v5.67M88.04 120.01h-.23M115.77 241.37v-3.91M115.77 223.18v-3.92M116.95 16.03v-1.36M118.09 16.14v1.93M118.09 16.03v-1.36M122.85 253.46v-41.84M122.85 203.68v-14.74M122.85 41.54v-3.4M124.89 211.62v-11.34M124.89 188.94V41.54M126.25 20.34v16.67M126.25 211.62v-11.34M126.25 188.94V41.54M52.89 96.2h.23M53.12 90.75h5.44M58.56 90.53h-5.67M126.25 42.68h-1.36M16.04 42.68h-1.36M16.04 41.54h-1.36M16.15 41.54h1.93M122.85 41.54h3.4M125.12 38.14h-2.27M15.81 38.14h2.27M110.72 18.87H98.24M76.7 18.87H64.23M42.68 18.87H30.21M123.98 18.07h-5.89M22.84 18.07h-5.89M22.84 16.03h95.25M22.84 14.67h95.25M54.02 260.26c0-1.88-1.52-3.4-3.4-3.4M37.58 243.82c0 1.88 1.52 3.4 3.4 3.4M40.98 209.81c-1.88 0-3.4 1.52-3.4 3.4M18.08 253.46c0 1.88 1.52 3.4 3.4 3.4M27.94 247.34c0 1.57 1.27 2.83 2.83 2.83s2.83-1.27 2.83-2.83M33.61 48.91c0-1.57-1.27-2.83-2.83-2.83s-2.83 1.27-2.83 2.83M16.95 18.07c-1.25 0-2.27 1.02-2.27 2.27M63.09 17.73c0 .63.51 1.13 1.13 1.13M42.68 18.87c.63 0 1.13-.51 1.13-1.13M29.08 17.73c0 .63.51 1.13 1.13 1.13M14.68 37.01c0 .63.51 1.13 1.13 1.13M71.03 256.86c-1.88 0-3.4 1.52-3.4 3.4M96.54 213.21c0-1.88-1.52-3.4-3.4-3.4M93.14 247.23c1.88 0 3.4-1.52 3.4-3.4M119.45 256.86c1.88 0 3.4-1.52 3.4-3.4M107.31 207.65c0 1.57 1.27 2.83 2.83 2.83s2.83-1.27 2.83-2.83M116.9 237.46a.85.85 0 1 0 0-1.7M104.43 235.76a.85.85 0 1 0 0 1.7M104.43 241.37a.85.85 0 1 0 0 1.7M116.9 243.08a.85.85 0 1 0 0-1.7M104.43 223.18a.85.85 0 1 0 0 1.7M116.9 224.88a.85.85 0 1 0 0-1.7M116.9 219.26a.85.85 0 1 0 0-1.7M104.43 217.56a.85.85 0 1 0 0 1.7M109.08 227.48a.57.57 0 0 0-.57-.57M107.38 226.92a.57.57 0 0 0-.57.57M106.81 233.15c0 .31.25.57.57.57M108.51 233.72c.31 0 .57-.25.57-.57M112.25 233.15c0 .31.25.57.57.57M113.95 233.72c.31 0 .57-.25.57-.57M112.82 226.92a.57.57 0 0 0-.57.57M114.52 227.48a.57.57 0 0 0-.57-.57M112.98 48.91c0-1.57-1.27-2.83-2.83-2.83s-2.83 1.27-2.83 2.83M126.25 20.34c0-1.25-1.02-2.27-2.27-2.27M110.72 18.87c.63 0 1.13-.51 1.13-1.13M97.11 17.73c0 .63.51 1.13 1.13 1.13M76.7 18.87c.63 0 1.13-.51 1.13-1.13M125.12 38.14c.63 0 1.13-.51 1.13-1.13M72.73 254.6H68.2M46.65 254.6h-4.53M42.12 249.49h4.53M68.2 249.49h4.53M41.83 81.28v-4.53M46.94 76.75v4.53M67.91 159.86v-4.53M73.01 155.33v4.53M93.99 159.86v-4.53M99.09 155.33v4.53M98.81 81.57h-4.54M94.27 76.47h4.54M44.38 160.14a2.55 2.55 0 1 0 0-5.1 2.55 2.55 0 0 0 0 5.1M42.12 249.49c-1.41 0-2.55 1.14-2.55 2.55s1.14 2.55 2.55 2.55M46.65 254.6c1.41 0 2.55-1.14 2.55-2.55s-1.14-2.55-2.55-2.55M68.2 249.49c-1.41 0-2.55 1.14-2.55 2.55s1.14 2.55 2.55 2.55M22.84 213.43a1.81 1.81 0 1 0 0-3.62 1.81 1.81 0 0 0 0 3.62M22.84 220.5a.94.94 0 1 0 0-1.88.94.94 0 0 0 0 1.88M46.94 76.75c0-1.41-1.14-2.55-2.55-2.55s-2.55 1.14-2.55 2.55M41.83 81.28c0 1.41 1.14 2.55 2.55 2.55s2.55-1.14 2.55-2.55M29.64 27.48a1.81 1.81 0 1 0 0-3.62 1.81 1.81 0 0 0 0 3.62M29.64 34.55a.94.94 0 1 0 0-1.88.94.94 0 0 0 0 1.88M67.91 159.86c0 1.41 1.14 2.55 2.55 2.55s2.55-1.14 2.55-2.55M73.01 155.33c0-1.41-1.14-2.55-2.55-2.55s-2.55 1.14-2.55 2.55M93.99 159.86c0 1.41 1.14 2.55 2.55 2.55s2.55-1.14 2.55-2.55M99.09 155.33c0-1.41-1.14-2.55-2.55-2.55s-2.55 1.14-2.55 2.55M72.73 254.6c1.41 0 2.55-1.14 2.55-2.55s-1.14-2.55-2.55-2.55M96.54 254.59a2.55 2.55 0 1 0 0-5.1 2.55 2.55 0 0 0 0 5.1M118.09 213.43a1.81 1.81 0 1 0 0-3.62 1.81 1.81 0 0 0 0 3.62M98.81 81.57c1.41 0 2.55-1.14 2.55-2.55s-1.14-2.55-2.55-2.55M94.27 76.47c-1.41 0-2.55 1.14-2.55 2.55s1.14 2.55 2.55 2.55M111.28 27.48a1.81 1.81 0 1 0 0-3.62 1.81 1.81 0 0 0 0 3.62M111.28 34.55a.94.94 0 1 0 0-1.88.94.94 0 0 0 0 1.88"/><path stroke="#231815" stroke-linecap="round" stroke-linejoin="round" d="M67.63 267.86H54.02M119.45 256.86H71.03M50.62 256.86H21.48M14.68 211.62v-11.34M14.68 188.94V41.54M14.68 37.01V20.34M16.04 203.68v-3.4M14.68 211.62h3.4M122.85 211.62h3.4M18.08 38.14v3.4M18.08 188.94v14.74M18.08 211.62v41.84M22.84 18.07v-3.4M16.04 203.68h2.04M122.85 203.68h2.04M126.25 200.28h-1.36M16.04 200.28h-1.36M14.68 188.94h3.4M122.85 188.94h3.4M54.02 267.86v-1.36M54.02 266.39v-6.13M67.63 267.86v-7.6M118.09 16.14v1.93M118.09 16.03v-1.36M122.85 253.46v-41.84M122.85 203.68v-14.74M122.85 41.54v-3.4M124.89 203.68v-3.4M126.25 20.34v16.67M126.25 211.62v-11.34M126.25 188.94V41.54M16.04 41.54h-1.36M16.15 41.54h1.93M122.85 41.54h3.4M125.12 38.14h-2.27M15.81 38.14h2.27M123.98 18.07h-5.89M22.84 18.07h-5.89M22.84 14.67h95.25M54.02 260.26c0-1.88-1.52-3.4-3.4-3.4M18.08 253.46c0 1.88 1.52 3.4 3.4 3.4M16.95 18.07c-1.25 0-2.27 1.02-2.27 2.27M14.68 37.01c0 .63.51 1.13 1.13 1.13M71.03 256.86c-1.88 0-3.4 1.52-3.4 3.4M119.45 256.86c1.88 0 3.4-1.52 3.4-3.4M126.25 20.34c0-1.25-1.02-2.27-2.27-2.27M125.12 38.14c.63 0 1.13-.51 1.13-1.13"/></svg>