<svg xmlns="http://www.w3.org/2000/svg" width="87" height="200" fill="none" viewBox="0 0 87 200"><g clip-path="url(#a)"><path fill="#fff" d="M86.04 0H0v199.43h86.04z"/><path fill="#fff" d="m71.14 24.9-.19-1.04-.27-.98-.38-.99-.45-.92-.57-.93-.62-.82-.69-.75-.75-.69-.87-.66-.87-.54-.91-.45-.99-.38-.99-.28-.36-.08c-.48-.09-.97-.16-1.45-.19l-5.22-.28-5.22-.18-5.22-.09h-1.74l-5.43.04-5.42.15-5.42.25-1.81.11h-.06c-.24.02-.49.04-.73.07h-.03c-.25.03-.5.08-.75.13l-1.01.26-.96.34-.94.44-.88.51-.86.61-.77.66-.7.73-.64.79-.58.88-.48.9-.4.93-.31.99-.22.99-.05.35c-.07.51-.11 1.03-.11 1.55v146.16l.05 1.12.14 1.01.26 1.09.36 1.05.46 1.02.5.89.64.92.72.85.63.63.85.72.72.51.76.46 1 .49 1.04.39 1.21.32c.54.11 1.1.19 1.65.22 0 0 .01.01.02.01 0 0 .02 0 .03-.01l5.24.26 5.24.17 5.25.07h1.75l5.06-.05 5.06-.14 5.06-.22 1.68-.09c.52-.03 1.03-.1 1.53-.19l1.09-.26 1.02-.35 1.02-.46.93-.53.88-.62.18.11-.13-.16.82-.7.75-.77.68-.84.21-.29.21.05-.17-.11.57-.92.48-.96.27-.66.33-1.06.23-1.05.06-.38c.07-.51.1-1.03.1-1.54V26.37c0-.49-.03-.98-.1-1.47z"/><path stroke="#231815" stroke-linecap="round" stroke-linejoin="round" stroke-width=".5" d="M17.85 170.58v-.08M14.67 26.54v145.82M16.6 26.54v144.09M17.85 170.5V26.48M68.19 26.54v143.97M69.44 170.63V26.54M71.37 26.54v145.82"/><path fill="#727171" d="M47.66 129.68c0-.42-.02-.74-.32-1.03-.2-.2-.45-.32-.68-.48-.87-.55-1.74-1.11-2.61-1.66-.02-.16.04-3.61-.04-3.68a.89.89 0 0 0-.7-.61H38.9c-.33.02-.64.26-.76.58-.07.19-.05.4-.05.59v7.73c0 .08.02.17.05.25.1.31.38.54.7.59h3.61c.06.83.57 1.62 1.28 2.03v1.97h.61v-2.36c-.8-.17-1.4-.95-1.47-1.75-.04-.54.24-1.06.61-1.43-.49-.79-.98-1.58-1.47-2.36-.22-.3.12-.69.45-.51.05.03.1.07.13.13.19.32.39.64.58.95l1.65 2.7c.17-.1.34-.21.52-.32-.48-.78-.95-1.56-1.43-2.34v-1.52c.84.53 1.69 1.07 2.52 1.6.08.05.17.1.24.16.18.14.31.35.36.57.01.05.02.1.02.16.01.06 0 6.26 0 6.32h.61zm-4.1-1.51c-.1-.16-.2-.32-.3-.49-.09-.15-.18-.32-.33-.42-.6-.45-1.46.07-1.33.81.06.32.3.56.45.84.31.49.62.99.92 1.48-.25.32-.43.69-.5 1.09-.35-.01-3.41.02-3.67-.01a.37.37 0 0 1-.2-.12v-.01s0-.01-.01-.02a.4.4 0 0 1-.07-.26v-7.98a.3.3 0 0 1 .06-.18s.01-.02.02-.03c.07-.1.19-.15.31-.16.08.01 4.29-.02 4.36.01.08.02.15.06.2.12v.02s0 .01.01.02c.03.05.06.11.06.18v5.11z"/><path stroke="#898989" stroke-linecap="round" stroke-linejoin="round" stroke-width=".5" d="m64.28 53.76-.01-.01v-.07l-.01-.03v-.02l-.01-.03v-.02l-.01-.01v-.02l-.01-.01v-.02l-.01-.01v-.02l-.01-.02-.01-.01-.03-.07-.01-.01v-.01l-.01-.01-.01-.01v-.01l-.01-.01-.01-.01v-.01l-.01-.01-.01-.01-.01-.01v-.01l-.01-.01-.01-.01-.01-.01-.01-.02-.01-.01-.01-.01-.01-.01-.01-.01-.02-.02h-.01l-.01-.01v-.01l-.01-.01-.01-.01h-.01l-.01-.01-.01-.01-.01-.01h-.01l-.01-.01-.02-.02h-.02l-.01-.01-.01-.01h-.01l-.01-.01h-.01l-.01-.01-.03-.02h-.02l-.02-.01-.01-.01h-.01l-.01-.01h-.03l-.01-.01-.08-.02h-.02l-.01-.01h-.04l-.02-.01H51.26v2.83h10.18v10.19h2.84V53.76M21.76 53.76v-.04l.01-.01v-.06l.01-.01v-.01l.01-.03v-.02l.01-.01v-.03l.01-.02.01-.01v-.02l.01-.02.01-.01.03-.07v-.01l.01-.01.01-.01v-.01l.01-.01.01-.01v-.01l.01-.01.01-.01.01-.01v-.01l.01-.01.01-.01.01-.01.01-.01.01-.02.01-.01.01-.01.01-.01.01-.01.01-.02h.01l.01-.01.01-.01.01-.01.01-.01h.01l.01-.01.01-.01.01-.01h.01l.01-.01.02-.02h.01l.01-.01.01-.01h.01l.02-.01h.01l.01-.01.03-.02h.01l.03-.01.01-.01h.01l.01-.01h.03l.01-.01.07-.02h.03l.01-.01h.04l.01-.01h12.23v2.83H24.59v10.19h-2.83V53.76M64.28 92.9l-.01.01v.06l-.01.03v.03l-.01.02v.03l-.01.01v.01l-.01.01v.03l-.01.01v.01l-.01.02-.01.02-.03.06-.01.01v.02l-.01.01-.01.01v.01l-.01.01-.01.01v.01l-.01.01-.01.01-.01.01v.01l-.01.01-.01.01-.01.01-.01.02-.01.01-.01.01h-.01l-.01.01-.02.02-.01.01-.01.01v.01h-.01l-.01.01-.01.01-.01.01h-.01l-.01.01-.01.01-.01.01-.02.01-.02.01h-.01l-.01.01-.01.01h-.01l-.01.01h-.01l-.03.02-.02.01-.02.01h-.01l-.01.01h-.01l-.02.01h-.02l-.08.02-.02.01h-.03l-.01.01h-.08l-.01.01H51.26V90.9h10.18V80.72h2.84V92.9M21.76 92.9v.04l.01.01V93l.01.01v.02l.01.02v.03l.01.01v.02l.01.03.01.01v.01l.01.02.01.02.03.06v.01l.01.02.01.01v.01l.01.01.01.01v.01l.01.01.01.01.01.01v.01l.01.01.01.01.01.01.01.01.01.02.01.01.01.01h.01l.01.01.01.02.01.01.01.01.01.01h.01l.01.01.01.01.01.01h.01l.01.01.01.01.01.01.02.01.01.01h.01l.01.01.01.01h.02l.01.01h.01l.03.02.01.01.03.01h.01l.01.01h.01l.01.01h.03l.07.02.03.01h.02l.02.01h.08l.01.01h12.16V90.9H24.59V80.72h-2.83V92.9"/><path fill="#c9caca" d="m58.89 73.07-.01-.25v-.25l-.02-.25-.02-.25-.02-.25-.02-.24-.03-.25-.03-.24-.04-.25-.04-.24-.04-.24-.05-.24-.05-.24-.06-.23-.05-.24-.07-.23-.06-.24-.07-.23-.07-.23-.08-.23-.07-.22-.09-.23-.08-.22-.09-.22-.09-.22-.09-.22-.1-.22-.1-.22-.11-.21-.1-.21-.11-.21-.12-.21-.12-.21-.11-.2-.13-.2-.12-.2-.13-.2-.13-.2-.13-.19-.14-.19-.14-.19-.14-.19-.15-.19-.14-.18-.15-.18-.16-.18-.15-.18-.16-.17-.16-.17-.16-.17-.17-.17-.16-.16-.17-.16-.18-.16-.17-.16-.18-.16-.18-.15-.18-.15-.18-.14-.19-.15-.19-.14-.19-.14-.19-.13-.2-.14-.19-.13-.2-.12-.2-.13-.21-.12-.2-.12-.21-.11-.2-.12-.22-.11-.21-.1-.21-.11-.22-.09-.21-.1-.22-.1-.22-.09-.23-.08-.22-.09-.23-.08-.22-.08-.23-.07-.23-.07-.23-.07-.24-.06-.23-.06-.24-.06-.24-.05-.23-.05-.24-.05-.25-.04-.24-.04-.24-.04-.25-.03-.24-.03-.25-.02-.25-.02-.25-.02-.25-.01-.25-.01-.25-.01h-.25l-.26.01h-.25l-.25.01-.25.02-.25.02-.25.02-.24.03-.25.03-.24.03-.25.04-.24.04-.24.04-.24.05-.24.05-.23.06-.24.06-.23.06-.23.06-.23.07-.23.08-.23.07-.23.08-.22.08-.23.09-.22.09-.22.09-.22.1-.21.09-.22.11-.21.1-.21.11-.21.11-.21.11-.2.12-.21.12-.2.12-.2.13-.2.13-.19.13-.2.13-.19.14-.19.14-.19.14-.18.15-.18.15-.18.15-.18.15-.18.16-.17.16-.17.16-.17.16-.17.17-.16.16-.16.17-.16.18-.16.17-.15.18-.15.18-.15.18-.15.19-.14.18-.14.19-.14.19-.14.2-.13.19-.13.2-.12.2-.13.2-.12.2-.12.21-.11.21-.11.2-.11.21-.11.22-.1.21-.1.22-.09.22-.1.22-.09.22-.08.22-.09.22-.08.23-.07.23-.08.23-.07.23-.06.23-.07.23-.06.24-.05.23-.06.24-.05.24-.04.24-.04.24-.04.25-.03.24-.04.24-.02.25-.03.25-.02.25-.01.25-.01.25-.01.25v.76l.01.25.01.25.01.25.02.25.03.24.02.25.04.25.03.24.04.24.04.24.04.24.05.24.06.24.05.24.06.23.07.24.06.23.07.23.08.23.07.23.08.22.09.23.08.22.09.22.1.22.09.22.1.21.1.22.11.21.11.21.11.21.11.21.12.2.12.21.13.2.12.2.13.19.13.2.14.19.14.19.14.19.14.19.15.18.15.18.15.19.15.17.16.18.16.17.16.17.16.17.17.17.17.16.17.16.17.16.18.15.18.16.18.15.18.15.18.14.19.14.19.14.19.14.2.13.19.14.2.13.2.12.2.12.21.12.2.12.21.12.21.11.21.1.21.11.22.1.21.1.22.09.22.1.22.09.23.08.22.09.23.07.23.08.23.07.23.07.23.07.23.06.24.06.23.05.24.06.24.04.24.05.24.04.25.04.24.03.25.03.24.03.25.02.25.02.25.01.25.01.25.01h.76l.25-.01.25-.02.25-.01.25-.02.25-.03.24-.03.25-.03.24-.03.24-.04.25-.04.24-.05.23-.05.24-.05.24-.06.23-.06.24-.07.23-.06.23-.07.23-.08.22-.08.23-.08.22-.08.23-.09.22-.09.22-.09.21-.1.22-.1.21-.1.21-.11.22-.11.2-.11.21-.12.2-.12.21-.12.2-.12.2-.13.19-.13.2-.13.19-.14.19-.14.19-.14.19-.14.18-.15.18-.15.18-.15.18-.15.17-.16.18-.16.17-.16.16-.17.17-.16.16-.17.16-.17.16-.18.15-.18.16-.17.15-.19.14-.18.15-.18.14-.19.14-.19.14-.19.13-.2.13-.19.13-.2.12-.2.13-.21.11-.2.12-.21.12-.2.11-.21.1-.22.11-.21.1-.21.1-.22.09-.22.09-.22.09-.22.08-.23.09-.22.07-.23.08-.23.07-.23.07-.23.06-.23.07-.24.05-.23.06-.24.05-.24.05-.24.04-.24.04-.24.04-.24.03-.25.03-.24.02-.25.02-.25.02-.25.02-.25v-.25l.01-.25v-.51"/><path fill="#727171" d="M39.5 51.85v.76h7.04v-.76zM40.26 49.47h1.62v-.76h-1.51l-.02.01h-.02l-.07.01h-.02l-.01.01-.04.01h-.02l-.03.01-.01.01h-.01l-.03.01-.01.01h-.01l-.02.01-.03.01-.01.01-.02.01h-.01l-.03.02-.01.01-.01.01-.01.01h-.01l-.03.02-.02.01-.02.02-.01.01-.01.01-.01.01-.01.01h-.01l-.01.01v.01l-.01.01-.01.01-.01.01-.01.01-.01.01-.01.01-.01.01v.01l-.02.02-.01.01-.01.01v.01l-.01.01-.01.02-.01.01v.01l-.01.01-.01.01v.01l-.01.01v.01l-.01.02-.01.01v.01l-.01.01v.02l-.01.01v.01l-.01.01v.01l-.01.02v.01l-.01.01v.03l-.01.01v.03l-.01.01v.03l-.01.01v.05l-.01.02v1.53h.76zM46.54 49.63v-.04l-.01-.03v-.03l-.01-.05v-.03l-.01-.01v-.03l-.01-.01v-.02l-.01-.01-.02-.06v-.01l-.01-.01v-.02l-.01-.01v-.01l-.01-.01-.01-.02v-.01l-.01-.01-.01-.01-.01-.02-.01-.01v-.01l-.01-.02-.01-.01-.01-.01v-.01l-.01-.01-.01-.01-.01-.01-.01-.02-.01-.01-.01-.01-.01-.01-.01-.01-.01-.01-.02-.02-.01-.01-.01-.01-.01-.01-.01-.01-.01-.01-.05-.03-.01-.01-.01-.01h-.01l-.01-.01-.07-.04-.01-.01-.01-.01h-.01L46 48.8h-.02l-.01-.01h-.01l-.01-.01-.03-.01h-.01l-.01-.01h-.02l-.01-.01h-.02l-.02-.01h-.02l-.02-.01h-.02l-.06-.01h-.02l-.02-.01h-1.51v.76h1.62v1.62h.76v-1.46M45.78 54.99h-1.62v.76h1.53l.02-.01.07-.01h.03l.04-.01.01-.01h.01l.03-.01h.01l.01-.01.03-.01h.01l.01-.01h.01l.04-.02.01-.01h.01l.02-.01.03-.02.01-.01h.01l.01-.01.01-.01.02-.01.03-.02.02-.02.01-.01h.01l.01-.01.01-.01.01-.01v-.01l.01-.01.01-.01.01-.01.01-.01.01-.01.01-.01.01-.01.01-.01v-.01l.02-.02.01-.01.01-.01v-.01l.01-.01.01-.01v-.01l.01-.01.01-.01v-.02l.01-.01.01-.01v-.01l.01-.01.01-.01v-.02l.01-.01v-.01l.01-.01v-.02l.01-.01v-.01l.01-.01v-.03l.01-.01v-.01l.01-.02v-.02l.01-.02v-.04l.01-.01v-.05l.01-.02v-1.52h-.76zM40.26 53.37h-.76v1.54l.01.01v.01l.01.06v.02l.01.02v.02l.01.02v.02l.03.06v.02l.01.01v.01l.01.01v.02l.01.01.01.01v.01l.01.01v.01l.02.03.01.01v.01l.01.01.01.01v.01l.01.01.01.01.01.01.01.01.01.02.01.01.01.01.01.01.01.01.01.01.01.02.01.01.01.01.01.01.01.01h.01l.01.01.04.04h.02l.01.01.01.01.01.01.07.04h.01l.01.01.01.01h.01l.01.01h.02l.01.01h.01l.03.01.01.01h.01l.01.01h.03l.01.01h.03l.01.01h.03l.01.01h.06l.02.01h1.53v-.76h-1.62z"/><path stroke="#898989" stroke-linecap="round" stroke-linejoin="round" stroke-width=".5" d="m33.41 27.49.01-.01M33.43 27.46v-.01"/><circle cx="33.42" cy="27.48" r=".25" fill="#898989"/><path stroke="#898989" stroke-linecap="round" stroke-linejoin="round" stroke-width=".5" d="M33.42 27.48v-.01M33.42 27.47l.01-.01M33.43 27.45l.01-.02M33.44 27.43v-.01M33.44 27.42l.01-.02M33.46 27.4v-.01"/><circle cx="33.44" cy="27.43" r=".25" fill="#898989"/><path stroke="#898989" stroke-linecap="round" stroke-linejoin="round" stroke-width=".5" d="m33.46 27.39.01-.01M33.47 27.37l.01-.01M33.45 27.4h.01M33.47 27.38v-.01"/><circle cx="33.47" cy="27.37" r=".25" fill="#898989"/><path stroke="#898989" stroke-linecap="round" stroke-linejoin="round" stroke-width=".5" d="M33.48 27.36v-.01M33.48 27.35l.01-.01M33.49 27.34l.01-.01"/><circle cx="33.5" cy="27.33" r=".25" fill="#898989"/><path stroke="#898989" stroke-linecap="round" stroke-linejoin="round" stroke-width=".5" d="m33.5 27.33.02-.02"/><circle cx="33.52" cy="27.31" r=".25" fill="#898989"/><path stroke="#898989" stroke-linecap="round" stroke-linejoin="round" stroke-width=".5" d="m33.53 27.3.01-.01M33.55 27.27h.01M33.52 27.31l.01-.01M33.54 27.29l.01-.02M33.56 27.27v-.01M33.56 27.26h.01M33.57 27.26l.01-.01M33.58 27.25l.01-.01M33.59 27.24l.01-.01M33.6 27.23l.01-.01M33.62 27.22v-.01"/><circle cx="33.6" cy="27.23" r=".25" fill="#898989"/><path stroke="#898989" stroke-linecap="round" stroke-linejoin="round" stroke-width=".5" d="M33.61 27.22h.01M33.62 27.21l.02-.01M33.64 27.2h.01"/><circle cx="33.65" cy="27.2" r=".25" fill="#898989"/><path stroke="#898989" stroke-linecap="round" stroke-linejoin="round" stroke-width=".5" d="m33.65 27.2.02-.02M33.67 27.18h.01M33.69 27.17h.01M33.39 27.6v-.02M33.39 27.58v-.02M33.4 27.55v-.01M33.39 27.56l.01-.01"/><circle cx="33.4" cy="27.53" r=".25" fill="#898989"/><path stroke="#898989" stroke-linecap="round" stroke-linejoin="round" stroke-width=".5" d="M33.4 27.54v-.01M33.4 27.52l.01-.01M33.41 27.5v-.01M33.4 27.53v-.01M33.41 27.51v-.01M52.56 28l-.01.01M52.6 27.92v.01M52.57 27.98v.01M52.6 27.93l-.01.01M52.58 27.96l-.01.01M52.59 27.95l-.01.01"/><circle cx="52.58" cy="27.96" r=".25" fill="#898989"/><path stroke="#898989" stroke-linecap="round" stroke-linejoin="round" stroke-width=".5" d="M52.54 28.02v.01M52.57 27.97v.01M52.57 27.99l-.01.01"/><circle cx="52.5" cy="28.07" r=".25" fill="#898989"/><path stroke="#898989" stroke-linecap="round" stroke-linejoin="round" stroke-width=".5" d="m52.55 28.01-.01.01M52.52 28.05l-.01.01M52.54 28.03l-.02.01M52.52 28.04v.01M52.46 28.1v.01M52.51 28.06l-.01.01M52.5 28.07l-.02.02M52.44 28.12l-.02.02M52.48 28.09l-.02.01M52.46 28.11l-.01.01M52.41 28.15h-.01"/><circle cx="52.34" cy="28.19" r=".25" fill="#898989"/><path stroke="#898989" stroke-linecap="round" stroke-linejoin="round" stroke-width=".5" d="M52.45 28.12h-.01"/><circle cx="52.37" cy="28.17" r=".25" fill="#898989"/><path stroke="#898989" stroke-linecap="round" stroke-linejoin="round" stroke-width=".5" d="M52.39 28.16h-.01M52.42 28.14l-.01.01M52.4 28.15v.01M52.4 28.16h-.01M52.36 28.18h-.01M52.38 28.16l-.01.01M33.68 27.18l.01-.01M33.7 27.17h.01M33.71 27.17l.01-.01M33.72 27.16l.02-.01M33.74 27.15h.01"/><circle cx="33.75" cy="27.15" r=".25" fill="#898989"/><path stroke="#898989" stroke-linecap="round" stroke-linejoin="round" stroke-width=".5" d="M33.76 27.14h.01M33.79 27.14l.01-.01M33.38 27.67v-.02M33.38 27.65v-.01M33.38 27.64v-.01M33.38 27.63v-.01M33.38 27.62l.01-.01M33.39 27.61v-.01"/><circle cx="33.39" cy="27.6" r=".25" fill="#898989"/><path stroke="#898989" stroke-linecap="round" stroke-linejoin="round" stroke-width=".5" d="M52.62 27.87v.01M52.63 27.85v.01M52.64 27.81v.01M52.64 27.83l-.01.01M52.61 27.89v.01M52.63 27.86l-.01.01M52.63 27.84v.01M52.59 27.94v.01M52.62 27.88l-.01.01M52.61 27.9l-.01.02"/><circle cx="52.6" cy="27.93" r=".25" fill="#898989"/><path stroke="#898989" stroke-linecap="round" stroke-linejoin="round" stroke-width=".5" d="m52.37 28.17-.01.01M52.27 28.22h-.01M52.35 28.18l-.01.01M52.3 28.2l-.02.01M52.34 28.19l-.03.01M52.31 28.2h-.01M52.22 28.23h-.01M52.25 28.22l-.01.01M52.26 28.22h-.01M33.38 27.74v-.01M33.38 27.73v-.01M33.38 27.72v-.01M33.38 27.71v-.01"/><circle cx="33.38" cy="27.7" r=".25" fill="#898989"/><path stroke="#898989" stroke-linecap="round" stroke-linejoin="round" stroke-width=".5" d="M33.38 27.7v-.01M33.38 27.69v-.02M52.64 27.79v.01M52.66 27.71l-.01.02M52.65 27.77v.01M52.65 27.74v.02"/><circle cx="52.65" cy="27.78" r=".25" fill="#898989"/><path stroke="#898989" stroke-linecap="round" stroke-linejoin="round" stroke-width=".5" d="M52.65 27.76v.01M52.65 27.78l-.01.01"/><circle cx="52.63" cy="27.84" r=".25" fill="#898989"/><path stroke="#898989" stroke-linecap="round" stroke-linejoin="round" stroke-width=".5" d="M52.64 27.82v.01M52.64 27.8v.01M33.39 27.75l-.01-.01M52.65 27.73v.01M52.66 27.63v.01M52.66 27.65v.06M33.4 27.81l-.01-.02M33.39 27.79v-.01M33.39 27.78v-.01M33.39 27.77v-.02M33.4 27.84v-.01M33.41 27.86v-.01M33.41 27.85l-.01-.01M33.4 27.82v-.01M33.4 27.83v-.01M52.64 27.54v.01M52.65 27.57v.01M52.66 27.64v.01M52.65 27.58l.01.05M33.43 27.91v-.01M33.43 27.9h-.01M33.42 27.89v-.01M33.42 27.88l-.01-.01M33.41 27.87v-.01M33.42 27.9v-.01"/><circle cx="33.41" cy="27.85" r=".25" fill="#898989"/><path stroke="#898989" stroke-linecap="round" stroke-linejoin="round" stroke-width=".5" d="M52.63 27.5v.01M52.64 27.56l.01.01M52.64 27.53v.01M33.45 27.96v-.01M33.45 27.95v-.01M33.44 27.94v-.01M33.44 27.93l-.01-.01M33.43 27.92v-.01M52.63 27.51l.01.01"/><circle cx="52.62" cy="27.47" r=".25" fill="#898989"/><circle cx="52.65" cy="27.58" r=".25" fill="#898989"/><path stroke="#898989" stroke-linecap="round" stroke-linejoin="round" stroke-width=".5" d="M52.64 27.55v.01M52.62 27.48v.01"/><circle cx="52.63" cy="27.51" r=".25" fill="#898989"/><path stroke="#898989" stroke-linecap="round" stroke-linejoin="round" stroke-width=".5" d="M52.64 27.52v.01M33.47 27.98l-.01-.01M33.46 27.97l-.01-.01M33.49 28.01l-.01-.01M33.45 27.94h-.01M33.47 27.99v-.01"/><circle cx="33.46" cy="27.97" r=".25" fill="#898989"/><path stroke="#898989" stroke-linecap="round" stroke-linejoin="round" stroke-width=".5" d="m52.59 27.42.01.01M52.58 27.39v.01M52.62 27.49l.01.01M52.62 27.47v.01M52.6 27.43l.02.04M33.51 28.04l-.01-.01M33.5 28.03v-.01M33.5 28.02l-.01-.01M33.48 28v-.01M33.48 27.99h-.01"/><circle cx="52.6" cy="27.43" r=".25" fill="#898989"/><path stroke="#898989" stroke-linecap="round" stroke-linejoin="round" stroke-width=".5" d="m52.58 27.4.01.02M52.57 27.38l.01.01M33.52 28.05l-.01-.01M33.56 28.09h-.01M33.54 28.08v-.01"/><circle cx="33.53" cy="28.06" r=".25" fill="#898989"/><path stroke="#898989" stroke-linecap="round" stroke-linejoin="round" stroke-width=".5" d="m33.53 28.06-.01-.01M52.56 27.36v.01M52.53 27.32l.01.01"/><circle cx="52.58" cy="27.39" r=".25" fill="#898989"/><path stroke="#898989" stroke-linecap="round" stroke-linejoin="round" stroke-width=".5" d="m52.55 27.34.01.02M52.56 27.37l.01.01M33.59 28.12l-.02-.02M33.57 28.1l-.01-.01M33.55 28.09v-.01M33.55 28.08h-.01M33.54 28.07l-.01-.01M52.54 27.33l.01.01M52.5 27.28l.01.02M52.52 27.3l.01.02M33.64 28.16v-.01M33.61 28.13h-.01M33.62 28.14h-.01"/><circle cx="33.59" cy="28.12" r=".25" fill="#898989"/><path stroke="#898989" stroke-linecap="round" stroke-linejoin="round" stroke-width=".5" d="m52.46 27.25.01.01M52.51 27.3h.01M52.47 27.26l.02.02M33.69 28.18h-.01M33.68 28.18l-.02-.01M33.66 28.17l-.01-.01M33.65 28.16h-.01M33.64 28.15l-.02-.01M33.61 28.14v-.01M33.6 28.13l-.01-.01M52.49 27.28h.01M52.43 27.22l.01.01"/><circle cx="52.47" cy="27.26" r=".25" fill="#898989"/><path stroke="#898989" stroke-linecap="round" stroke-linejoin="round" stroke-width=".5" d="m52.45 27.24.01.01M33.71 28.19h-.01M52.35 27.17v.01M52.44 27.23l.01.01"/><circle cx="52.38" cy="27.19" r=".25" fill="#898989"/><path stroke="#898989" stroke-linecap="round" stroke-linejoin="round" stroke-width=".5" d="m52.41 27.21.02.01M52.39 27.2l.02.01"/><circle cx="52.41" cy="27.21" r=".25" fill="#898989"/><path stroke="#898989" stroke-linecap="round" stroke-linejoin="round" stroke-width=".5" d="m33.77 28.22-.01-.01M33.76 28.21h-.01M33.74 28.21v-.01M33.74 28.2h-.01M33.72 28.2l-.01-.01M33.73 28.2h-.01"/><circle cx="33.7" cy="28.19" r=".25" fill="#898989"/><path stroke="#898989" stroke-linecap="round" stroke-linejoin="round" stroke-width=".5" d="m33.7 28.19-.01-.01"/><circle cx="33.66" cy="28.17" r=".25" fill="#898989"/><path stroke="#898989" stroke-linecap="round" stroke-linejoin="round" stroke-width=".5" d="m52.32 27.16.01.01M52.38 27.19l.01.01M52.36 27.18l.02.01M33.8 28.23l-.02-.01M33.78 28.22h-.01M33.75 28.21h-.01M52.26 27.14h.01M52.35 27.18h.01M52.27 27.14l.02.01M52.33 27.17h.02M52.3 27.15l.02.01M52.29 27.15h.01M52.18 27.12h.01M52.2 27.12h.01M52.24 27.13h.01M52.21 27.12l.02.01M33.86 28.24h-.01M33.84 28.23h-.04"/><circle cx="52.27" cy="27.14" r=".25" fill="#898989"/><path stroke="#898989" stroke-linecap="round" stroke-linejoin="round" stroke-width=".5" d="M52.23 27.13h.01M52.25 27.13l.01.01M52.11 27.11h.01M33.92 28.25l-.02-.01M52.19 27.12h.01"/><circle cx="52.13" cy="27.11" r=".25" fill="#898989"/><path stroke="#898989" stroke-linecap="round" stroke-linejoin="round" stroke-width=".5" d="M52.17 27.12h.01M52.14 27.11l.02.01M33.89 28.24h-.03M33.85 28.24l-.01-.01"/><circle cx="52.21" cy="27.12" r=".25" fill="#898989"/><path stroke="#898989" stroke-linecap="round" stroke-linejoin="round" stroke-width=".5" d="M52.16 27.12h.01M52.11 28.25H33.92M52.13 28.24h-.01M52.15 28.24h-.01M33.9 28.24h-.01M33.88 27.11h.01M52.13 27.11h.01M33.91 27.11h.02M52.12 27.11h.01M33.94 27.11h18.17M52.24 28.23h-.02"/><circle cx="52.25" cy="28.22" r=".25" fill="#898989"/><path stroke="#898989" stroke-linecap="round" stroke-linejoin="round" stroke-width=".5" d="m52.2 28.23-.01.01M52.28 28.21l-.01.01M52.18 28.24h-.01"/><circle cx="52.19" cy="28.24" r=".25" fill="#898989"/><path stroke="#898989" stroke-linecap="round" stroke-linejoin="round" stroke-width=".5" d="M33.81 27.13h.01M33.84 27.12h.02M33.87 27.12l.01-.01M52.17 28.24h-.02M52.19 28.24h-.01M52.14 28.24h-.01M52.12 28.24l-.01.01M52.21 28.23h-.01M33.89 27.11h.02M33.93 27.11h.01M33.75 27.15l.01-.01M33.77 27.14h.02M33.82 27.13l.01-.01M33.8 27.13h.01M33.86 27.12h.01M33.83 27.12h.01"/><path stroke="#231815" stroke-linecap="round" stroke-linejoin="round" stroke-width=".5" d="M60.53 18.39c-11.66-.72-23.36-.72-35.03 0M25.82 184.24h.06M24.15 184.02c.55.12 1.11.19 1.67.23M25.82 184.24h.06M17.85 170.51c0 4.37 3.4 7.99 7.77 8.26M25.61 178.77c11.59.72 23.22.72 34.81 0M25.31 15.22h-.06M25.25 15.23c-.51.03-1.03.1-1.53.21M14.78 24.96c-.07.52-.11 1.05-.11 1.58"/><path stroke="#231815" stroke-linecap="round" stroke-linejoin="round" stroke-width=".5" d="M25.25 15.23c-.51.03-1.03.1-1.53.21M25.31 15.22h-.06M25.43 17.14a9.416 9.416 0 0 0-8.83 9.4"/><path stroke="#231815" stroke-linecap="round" stroke-linejoin="round" stroke-width=".5" d="M25.51 18.39c-4.3.27-7.66 3.84-7.66 8.15M60.16 184.25c.52-.03 1.04-.1 1.56-.2M71.26 173.93c.07-.52.1-1.04.1-1.57M60.43 178.77c4.36-.27 7.77-3.89 7.77-8.26M71.37 26.54c0-.5-.03-.99-.1-1.49M62.21 15.41c-.49-.1-.98-.16-1.48-.19M69.44 26.54c0-4.97-3.87-9.09-8.83-9.4"/><path stroke="#231815" stroke-linecap="round" stroke-linejoin="round" stroke-width=".5" d="M68.19 26.54c0-4.31-3.35-7.88-7.66-8.15M25.88 184.25l.88.05 1.74.09 1.74.08.87.04 1.74.06 1.75.06 1.74.05 1.75.03 1.75.02 1.74.02h1.75M43.33 184.75h.84l1.68-.01 1.68-.02.85-.02 1.68-.03 1.69-.05 1.68-.05 1.68-.07 1.69-.07 1.68-.09 1.68-.09M24.15 184.02l-.14-.03-.37-.09-.36-.1-.36-.11-.36-.12-.35-.13-.35-.15-.34-.15-.34-.17-.34-.18-.33-.18-.12-.08-.32-.2-.31-.21-.12-.08-.3-.23-.3-.23-.29-.25-.28-.25-.27-.26-.1-.1-.27-.28-.25-.28-.24-.29-.23-.29-.23-.31-.21-.31-.21-.32-.07-.12-.19-.33-.07-.12-.18-.34-.16-.34-.16-.34-.14-.35-.13-.35-.12-.36-.11-.36-.1-.37-.08-.37-.08-.37-.02-.14-.03-.14-.05-.37-.04-.38-.03-.37-.02-.38-.01-.38M23.72 15.44l-.34.07h-.02l-.33.09-.33.1-.33.1-.32.12-.32.12-.02.01-.32.14-.31.14-.31.15-.3.17-.3.17-.29.18-.29.19-.28.2-.03.03-.27.2-.27.22-.26.23-.26.23-.24.24-.24.24-.23.26-.22.26-.22.26-.21.28-.19.28-.2.29-.02.03-.18.29-.17.3-.16.31-.16.3-.14.32-.13.31-.13.32v.02l-.12.33-.1.32-.1.33-.08.34-.08.33-.06.34v.02l-.06.34M60.73 15.22l-.87-.05-1.74-.1-1.73-.08-.87-.04-1.74-.07-1.73-.06-1.74-.05-1.74-.04-1.74-.03-1.74-.02-1.74-.01M43.35 14.67h-.9l-1.8.01-1.81.02-.9.02-1.81.04-1.8.05-1.81.06-1.8.07-1.81.08-1.8.1-1.8.1M62.21 15.41l.34.07.03.01.33.08.34.1.33.1.33.11.32.13.03.01.32.14.32.14.31.15.3.17.3.17.3.18.29.19.28.2.06.04.27.21.27.22.27.22.25.24.25.24.24.24.23.26.23.26.21.27.21.28.2.28.2.29.03.06.18.29.18.3.16.31.15.31.15.31.13.32.12.33.12.32.01.04.1.33.09.33.09.34.07.34.06.34.01.03.05.34M14.67 97.73v74.63M71.26 173.93l-.05.36-.01.03-.06.36-.08.36-.09.35-.09.35-.11.35-.12.34-.02.04-.13.34-.14.33-.15.33-.16.33-.17.32-.18.32-.19.31-.2.3-.02.03-.03.04-.21.3-.22.29-.23.28-.23.27-.25.27-.25.26-.26.25-.27.25-.28.23-.28.23-.03.03-.03.02-.3.22-.29.21-.31.2-.31.19-.31.18-.33.17-.32.16-.33.15-.04.01-.34.14-.34.13-.34.12-.35.11-.35.09-.35.09-.04.01-.35.07M16.6 170.63v.31l.02.32.02.22.03.31.04.32.06.31.06.3.08.31.08.31.07.21.1.3.11.29.12.29.13.29.1.2.15.28.15.27.17.27.17.27.18.25.19.25.14.18.21.24.21.23.22.23.23.22.16.14.24.21.25.2.25.19.26.18.27.17.27.16.19.11.28.15.28.14.29.13.29.12.21.08.3.1.3.09.3.08.31.08.31.06.31.05.22.03.31.04.32.02M25.56 180.14l2.77.16 2.8.13 2.83.11.32.01.34.01 2.82.07 2.8.04 2.78.01 2.78-.01 2.8-.04 2.82-.07.33-.01.33-.01 2.83-.11 2.8-.13 2.77-.16M60.48 180.14l.32-.02.31-.04.22-.03.31-.05.31-.06.31-.08.3-.08.3-.09.3-.1.21-.08.29-.12.29-.13.28-.14.28-.15.19-.11.27-.16.27-.17.26-.18.25-.19.25-.2.24-.21.16-.14.23-.22.22-.23.21-.23.21-.24.13-.18.2-.25.18-.26.17-.26.17-.27.15-.27.15-.28.1-.2.13-.29.12-.29.11-.29.1-.3.07-.21.08-.31.08-.31.06-.3.06-.31.04-.32.03-.31.02-.22.02-.32v-.31M60.61 17.14l-2.8-.16-2.81-.13-2.83-.1-.35-.01-.35-.02-2.83-.07-2.82-.04-2.8-.01-2.8.01-2.82.04-2.83.07-.35.02-.35.01-2.83.1-2.81.13-2.8.16"/><path fill="#898989" d="M36.97 166.44v1.84c0 .12 0 .3-.1.4-.07.07-.18.1-.33.11h-.49c-.08 0-.22 0-.32-.1-.08-.08-.12-.22-.12-.41v-1.84H35v1.85c0 .18.05 1.1.91 1.1h.81c.33 0 .88-.15.88-1.1v-1.85h-.63M33.56 167.53l-.67-.08c-.16-.03-.3-.06-.3-.24 0-.27.08-.34.62-.35h.14c.32.02.62.04.99.14h.04v-.41c-.06-.12-.56-.29-1.05-.29h-.14c-.83 0-1.23.31-1.23.94 0 .61.51.74.99.81l.3.04c.22.03.34.04.42.08.13.05.2.1.2.3 0 .34-.23.37-.71.37h-.14c-.29 0-.63-.08-1-.23l-.05-.02v.41c0 .17.51.38 1.07.38h.12c.93 0 1.36-.31 1.36-.98 0-.65-.48-.81-.95-.88M39.69 166.3h-.09c-1.12 0-1.54.42-1.53 1.56v1.53h.66v-1.53c0-.86.19-1.01.77-1.01h.15c.56 0 .66.16.66.56 0 .25-.08.53-.31.53l-1.03-.02v.45H39c.21.03.57.06.85.06.96 0 1.12-.53 1.12-.97 0-.73-.48-1.17-1.27-1.17M43.16 166.34c-.17-.03-.57-.04-.77-.04-.36 0-.96.15-.96 1.12v1.97h.64v-1.93c0-.52.09-.57.5-.57h.59zM45.14 168.83h-.13c-.54 0-.87-.06-.87-.96 0-.86.19-1 .77-1h.15c.54 0 .66.09.66.5 0 .2-.09.29-.31.29h-1.03v.43h.03c.2.04.57.07.86.07.42 0 1.12-.08 1.12-.88s-.69-.96-1.27-.96h-.09c-1.12 0-1.54.42-1.54 1.56 0 1.09.43 1.53 1.47 1.53h.08c.66 0 1.22-.18 1.22-.38v-.36l-.04.01c-.38.1-.68.16-1.08.16M50.71 167.44c0-.53-.2-.81-.42-.95 0 0-.24-.18-.66-.18-.2 0-.37.03-.49.07-.17.05-.28.13-.34.19l-.03.03s-.22-.29-.85-.28c-.28 0-.47.08-.57.13h-.03c-.41.22-.47.73-.47.99v1.94h.59v-1.94c0-.29.06-.56.5-.56.45 0 .54.21.54.56v1.94h.6v-1.94c0-.39.16-.57.5-.57.37 0 .54.18.54.57v1.94h.59zM52.42 166.87h.13c.54 0 .87.06.87.96 0 .86-.19 1-.77 1h-.15c-.54 0-.66-.09-.66-.5 0-.2.09-.29.31-.29h1.03v-.43h-.03c-.2-.04-.57-.07-.86-.07-.42 0-1.12.08-1.12.88s.69.96 1.27.96h.09c1.12 0 1.54-.42 1.54-1.56 0-1.09-.43-1.53-1.47-1.53h-.08c-.66 0-1.22.18-1.22.38v.36l.04-.01c.38-.1.68-.16 1.08-.16"/><path stroke="#231815" stroke-linecap="round" stroke-linejoin="round" d="M14.67 26.54v145.82M71.37 26.54v145.82M25.82 184.24h.06M24.15 184.02c.55.12 1.11.19 1.67.23M25.82 184.24h.06M25.31 15.22h-.06M25.25 15.23c-.51.03-1.03.1-1.53.21M14.78 24.96c-.07.52-.11 1.05-.11 1.58"/><path stroke="#231815" stroke-linecap="round" stroke-linejoin="round" d="M25.25 15.23c-.51.03-1.03.1-1.53.21M25.31 15.22h-.06M60.16 184.25c.52-.03 1.04-.1 1.56-.2M71.26 173.93c.07-.52.1-1.04.1-1.57M71.37 26.54c0-.5-.03-.99-.1-1.49M62.21 15.41c-.49-.1-.98-.16-1.48-.19M25.88 184.25l.88.05 1.74.09 1.74.08.87.04 1.74.06 1.75.06 1.74.05 1.75.03 1.75.02 1.74.02h1.75M43.33 184.75h.84l1.68-.01 1.68-.02.85-.02 1.68-.03 1.69-.05 1.68-.05 1.68-.07 1.69-.07 1.68-.09 1.68-.09M24.15 184.02l-.14-.03-.37-.09-.36-.1-.36-.11-.36-.12-.35-.13-.35-.15-.34-.15-.34-.17-.34-.18-.33-.18-.12-.08-.32-.2-.31-.21-.12-.08-.3-.23-.3-.23-.29-.25-.28-.25-.27-.26-.1-.1-.27-.28-.25-.28-.24-.29-.23-.29-.23-.31-.21-.31-.21-.32-.07-.12-.19-.33-.07-.12-.18-.34-.16-.34-.16-.34-.14-.35-.13-.36-.12-.35-.11-.36-.1-.37-.08-.37-.08-.37-.02-.14-.03-.14-.05-.37-.04-.38-.03-.38-.02-.37-.01-.38M23.72 15.44l-.34.07h-.02l-.33.09-.33.1-.33.1-.32.12-.32.12-.02.01-.32.14-.31.14-.31.15-.3.17-.3.17-.29.18-.29.19-.28.2-.03.03-.27.2-.27.22-.26.23-.26.23-.24.24-.24.24-.23.26-.22.26-.22.26-.21.28-.19.28-.2.29-.02.03-.18.29-.17.3-.16.31-.16.3-.14.32-.13.31-.13.32v.02l-.12.33-.1.32-.1.33-.08.34-.08.33-.06.34v.02l-.06.34M60.73 15.22l-.87-.05-1.74-.1-1.73-.08-.87-.04-1.74-.07-1.73-.06-1.74-.05-1.74-.04-1.74-.03-1.74-.02-1.74-.01M43.35 14.67h-.9l-1.8.01-1.81.02-.9.02-1.81.04-1.8.05-1.81.06-1.8.07-1.81.08-1.8.1-1.8.1M62.21 15.41l.34.08h.03l.33.08.34.1.33.1.33.12.32.12.03.01.32.14.32.14.31.15.3.17.3.17.3.18.29.19.28.2.06.04.27.21.27.22.27.22.25.24.25.24.24.24.23.26.23.26.21.27.21.28.2.28.2.29.03.06.18.29.18.31.16.3.15.31.15.31.13.32.12.33.12.32.01.04.1.33.09.33.09.34.07.34.06.34.01.03.05.34M14.67 97.73v74.63"/><path stroke="#231815" stroke-linecap="round" stroke-linejoin="round" d="m71.26 173.93-.05.36-.01.03-.06.36-.08.36-.09.35-.09.35-.11.35-.12.34-.02.04-.13.34-.14.33-.15.33-.16.33-.17.32-.18.32-.19.31-.2.3-.02.03-.03.04-.21.3-.22.29-.23.28-.23.27-.25.27-.25.26-.26.25-.27.25-.28.23-.28.23-.03.03-.03.02-.3.22-.29.21-.31.2-.31.19-.31.18-.33.17-.32.16-.33.15-.04.01-.34.14-.34.13-.34.12-.35.11-.35.09-.35.09-.04.01-.35.07"/></g><defs><clipPath id="a"><path fill="#fff" d="M0 0h86.04v199.43H0z"/></clipPath></defs></svg>