<svg xmlns="http://www.w3.org/2000/svg" width="134" height="450" fill="none" viewBox="0 0 134 450"><g clip-path="url(#a)"><path fill="#fff" d="M133.98 0H0v449.99h133.98z"/><path stroke="#231815" stroke-linecap="round" stroke-linejoin="round" stroke-width=".71" d="M13.94 193.83v10.4"/><path stroke="#231815" stroke-linecap="round" stroke-linejoin="round" d="M54.33 436.05h25.32M13.94 409.26h32.31M87.73 409.26h32.31"/><path stroke="#231815" stroke-linecap="round" stroke-linejoin="round" stroke-width=".5" d="M100.65 357.29H33.33M33.33 330.36h67.32M77.76 316.89H56.22M56.22 304.77h21.54"/><path stroke="#231815" stroke-linecap="round" stroke-linejoin="round" d="M13.94 409.26V30.1"/><path stroke="#231815" stroke-linecap="round" stroke-linejoin="round" stroke-width=".5" d="M26.6 199.35v-75.81M27.94 351.9v-16.16"/><path stroke="#231815" stroke-linecap="round" stroke-linejoin="round" d="M28.75 28.75V16.63M54.33 436.05v-18.71"/><path stroke="#231815" stroke-linecap="round" stroke-linejoin="round" stroke-width=".5" d="M60.93 96.75V75.2M73.05 75.2v21.55"/><path stroke="#231815" stroke-linecap="round" stroke-linejoin="round" d="M79.65 417.34v18.71"/><path stroke="#231815" stroke-linecap="round" stroke-linejoin="round" stroke-width=".5" d="M96.61 210.12H37.37"/><path stroke="#231815" stroke-linecap="round" stroke-linejoin="round" d="M105.23 28.75V16.63"/><path stroke="#231815" stroke-linecap="round" stroke-linejoin="round" stroke-width=".5" d="M106.04 335.74v16.16M107.38 123.54v75.81"/><path stroke="#231815" stroke-linecap="round" stroke-linejoin="round" d="M120.04 409.26V30.1"/><path stroke="#231815" stroke-linecap="round" stroke-linejoin="round" stroke-width=".5" d="M37.37 112.77h59.24"/><path stroke="#231815" stroke-linecap="round" stroke-linejoin="round" d="M13.94 30.1H27.4M106.57 30.1h13.47M102.54 13.94h-71.1M54.33 417.34c0-4.46-3.62-8.08-8.08-8.08"/><path stroke="#231815" stroke-linecap="round" stroke-linejoin="round" stroke-width=".5" d="M56.22 304.77c-3.35 0-6.06 2.71-6.06 6.06s2.71 6.06 6.06 6.06M33.33 330.36c-2.97 0-5.39 2.41-5.39 5.39M27.94 351.9c0 2.97 2.41 5.39 5.39 5.39M37.37 112.77c-5.95 0-10.77 4.82-10.77 10.77M26.6 199.35c0 5.95 4.82 10.77 10.77 10.77M60.93 96.75c0 3.35 2.71 6.06 6.06 6.06s6.06-2.71 6.06-6.06M73.05 75.2c0-3.35-2.71-6.06-6.06-6.06s-6.06 2.71-6.06 6.06"/><path stroke="#231815" stroke-linecap="round" stroke-linejoin="round" d="M31.44 13.94a2.69 2.69 0 0 0-2.69 2.69M27.4 30.1c.74 0 1.35-.6 1.35-1.35M87.73 409.26c-4.46 0-8.08 3.62-8.08 8.08"/><path stroke="#231815" stroke-linecap="round" stroke-linejoin="round" stroke-width=".5" d="M77.76 316.89c3.35 0 6.06-2.71 6.06-6.06s-2.71-6.06-6.06-6.06M100.65 357.29c2.97 0 5.39-2.41 5.39-5.39M106.04 335.74c0-2.97-2.41-5.39-5.39-5.39M107.38 123.54c0-5.95-4.82-10.77-10.77-10.77M96.61 210.12c5.95 0 10.77-4.82 10.77-10.77"/><path stroke="#231815" stroke-linecap="round" stroke-linejoin="round" d="M105.23 16.63a2.69 2.69 0 0 0-2.69-2.69M105.23 28.75c0 .74.6 1.35 1.35 1.35"/></g><defs><clipPath id="a"><path fill="#fff" d="M0 0h133.98v449.99H0z"/></clipPath></defs></svg>