<svg xmlns="http://www.w3.org/2000/svg" width="112" height="140" fill="none" viewBox="0 0 112 140"><g stroke="#1a1311" stroke-linecap="round" stroke-linejoin="round" clip-path="url(#a)"><path stroke-width=".5" d="M6.013 131.801v-1.834M6.013 69.452v-1.834M6.013 9.669V7.835M7.846 133.635v-1.834M7.846 129.967v-1.834M7.846 71.285V69.45M7.846 67.618v-1.834M7.846 11.503V9.669M7.846 7.835V6.001M9.68 6.001v1.834M9.68 9.669v1.834M9.68 65.784v1.834M9.68 69.45v1.835M9.68 128.133v1.834M9.68 131.801v1.834M11.514 7.835v1.834M11.514 67.618v1.834M11.514 129.967v1.834"/><path d="M12.248 22.357V54.93M12.248 82.139v35.14M12.463 22.732V54.93M8.763 139.136h60.516"/><path stroke-width=".5" d="M70.196 133.635h-1.834M9.68 133.635H7.846M72.03 131.801h-1.834M68.362 131.801h-1.834M11.514 131.801H9.68M7.847 131.801H6.013M6.013 129.967h1.834M9.68 129.967h1.834M66.528 129.967h1.834M70.196 129.967h1.834M7.846 128.133H9.68M68.362 128.133h1.834"/><path d="M82.884 127.4h12.252"/><path stroke-width=".5" d="M103.205 88.981h-1.834M66.528 131.801v-1.834M68.362 133.635v-1.834M68.362 129.967v-1.834M70.196 128.133v1.834M70.196 131.801v1.834M105.039 87.148h-1.834M101.371 87.148h-1.834M99.537 85.314h1.834M103.205 85.314h1.834M101.371 83.48h1.834M72.03 129.967v1.834M9.68 71.285H7.846M11.514 69.45H9.68M7.847 69.45H6.013M6.013 67.618h1.834M9.68 67.618h1.834M87.801 9.669V7.835M89.634 11.503V9.669M89.634 7.835V6.001M91.468 6.001v1.834M91.468 9.669v1.834M93.302 7.835v1.834M7.846 65.784H9.68"/><path d="M98.588 57.489v-31.09M98.803 123.733V99.836M98.803 72.626V8.752"/><path stroke-width=".5" d="M99.537 87.148v-1.834M101.371 88.982v-1.834M101.371 85.314V83.48M103.205 83.48v1.834M103.205 87.148v1.834M105.038 85.314v1.834M91.468 11.503h-1.834M9.68 11.503H7.846M93.302 9.669h-1.834M89.635 9.669h-1.834M11.514 9.669H9.68M7.847 9.669H6.013M6.013 7.835h1.834M9.68 7.835h1.834M87.801 7.835h1.834M91.468 7.835h1.834M7.846 6.001H9.68M89.634 6.001h1.834"/><path d="M90.551.5H8.763M7.553 122.721a8.25 8.25 0 0 0-7.021 8.77 8.25 8.25 0 0 0 8.231 7.645"/><path stroke-width=".5" d="M3.116 130.884a5.649 5.649 0 1 1 11.298 0 5.649 5.649 0 0 1-11.298 0"/><path d="M7.553 122.721a5.5 5.5 0 0 0 4.695-5.442M12.248 82.139A5.5 5.5 0 0 0 7.553 76.7M22.517 31.858a9.17 9.17 0 0 0-10.054-9.126M9.083 60.147a9.17 9.17 0 0 0 13.434-8.117M8.763.5a8.252 8.252 0 0 0-1.21 16.415M7.553 60.372a8.252 8.252 0 0 0 0 16.325"/><path d="M9.083 60.147a5.72 5.72 0 0 0 3.38-5.217"/><path stroke-width=".5" d="M3.116 8.752a5.648 5.648 0 1 1 11.296 0 5.648 5.648 0 0 1-11.296 0M3.116 68.534a5.648 5.648 0 1 1 11.297 0 5.648 5.648 0 0 1-11.297 0"/><path d="M12.248 22.357a5.5 5.5 0 0 0-4.695-5.442M7.553 60.372a5.5 5.5 0 0 0 4.695-5.442M103.498 94.394a8.251 8.251 0 0 0 0-16.326M69.279 139.136a8.25 8.25 0 0 0 8.163-7.042"/><path stroke-width=".5" d="M96.64 86.231a5.648 5.648 0 1 1 11.296-.002 5.648 5.648 0 0 1-11.296.002M63.631 130.884a5.65 5.65 0 1 1 11.298 0 5.65 5.65 0 0 1-11.298 0"/><path d="M98.803 72.626a5.5 5.5 0 0 0 4.695 5.442M103.498 94.394a5.5 5.5 0 0 0-4.695 5.442M82.884 127.4a5.5 5.5 0 0 0-5.442 4.694M95.136 127.4a3.667 3.667 0 0 0 3.667-3.668M98.588 26.4a9.17 9.17 0 0 0-10.054 9.126M88.534 48.362a9.17 9.17 0 0 0 10.054 9.127M98.803 8.752A8.25 8.25 0 0 0 90.551.5"/><path stroke-width=".5" d="M84.904 8.752a5.648 5.648 0 1 1 11.297 0 5.648 5.648 0 0 1-11.297 0"/><path d="M22.517 52.03V31.858M46.356 31.858V52.03M64.695 52.03V31.858M88.534 35.526v12.837M46.356 52.03a9.17 9.17 0 0 0 18.339 0M64.695 31.858a9.17 9.17 0 0 0-18.339 0"/><path stroke-width=".5" d="M4.91 130.884a3.85 3.85 0 0 1 2.377-3.558 3.851 3.851 0 1 1-2.377 3.558M4.91 8.752a3.851 3.851 0 1 1 7.702-.006 3.851 3.851 0 0 1-7.702.006M4.91 68.534a3.85 3.85 0 1 1 7.702 0 3.85 3.85 0 0 1-7.702 0M65.428 130.884a3.853 3.853 0 0 1 4.602-3.777 3.85 3.85 0 1 1-4.602 3.777M98.437 86.23a3.851 3.851 0 1 1 7.703.001 3.851 3.851 0 0 1-7.703 0M86.7 8.752a3.851 3.851 0 1 1 7.702-.006 3.851 3.851 0 0 1-7.702.006"/></g><defs><clipPath id="a"><path fill="#fff" d="M0 0h111.05v139.636H0z"/></clipPath></defs></svg>