<svg width="15" height="56" viewBox="0 0 15 56" fill="none" xmlns="http://www.w3.org/2000/svg">
<g clip-path="url(#clip0_50_1092)">
<path d="M7.23 52.72L6.27 54.48C5.91 55.11 5.16 55.06 4.71 54.4L1.86 50.07L1.88 46.21L2.53 45.38V43.81L1.9 43.06L1.93 38.44L2.58 37.62V36.05L1.95 35.3L1.98 30.66L2.63 29.84V28.27L2 27.52V26.64L2.02 24.13H3.09C4.09 24.14 4.06 22.27 3.09 22.27H2.21L0.259998 16.6L2.8 16.51L2.07 15.42L2.15 0.260002L12.91 0.320002L12.85 11.62L12.18 12.42V14.43L12.83 15.09V16.67L14.62 16.68L12.61 22.32H11.73C10.77 22.31 10.72 24.18 11.73 24.18H12.15V25.96L12.79 26.7L12.76 31.99L12.11 32.73V34.3L12.74 35.13L12.71 39.77L12.06 40.51V42.08L12.69 42.91L12.65 50.13L9.76 54.43C9.3 55.08 8.56 55.12 8.2 54.49L7.26 52.72" fill="white"/>
<path d="M9.51 54.2L11.38 50.01L11.4 46.19L9.65 46.18L9.66 43.14L11.42 43.15L11.44 38.43L9.69 38.42L9.71 35.37L11.46 35.38L11.49 30.67L9.73 30.66L9.75 27.62L11.5 27.63L11.52 24.36L11.69 24.17L12.11 24.18L12.1 25.95L12.75 26.69L12.72 31.98L12.07 32.72L12.06 34.29L12.7 35.12L12.67 39.76L12.02 40.51V42.08L12.66 42.91L12.62 50.13L9.72 54.43L9.51 54.2Z" fill="#E6E6E6"/>
<path d="M6.94 52.14L7.12 19.02C7.12 18.86 7.25 18.73 7.41 18.73C7.57 18.73 7.7 18.86 7.7 19.02L7.52 52.14C7.52 52.3 7.39 52.43 7.23 52.43C7.07 52.43 6.94 52.3 6.94 52.14Z" fill="#B3B3B3"/>
<path d="M7.14 15.55L7.17 10.34C7.17 10.18 7.3 10.05 7.46 10.05C7.62 10.05 7.75 10.18 7.75 10.34L7.72 15.55C7.72 15.71 7.59 15.84 7.43 15.84C7.27 15.84 7.14 15.71 7.14 15.55Z" fill="#B3B3B3"/>
<path d="M5.67 27.6H6.5L6.48 30.65L5.66 30.64" fill="#E6E6E6"/>
<path d="M5.63 35.35H6.45L6.44 38.4L5.61 38.39" fill="#E6E6E6"/>
<path d="M5.59 43.12H6.41L6.39 46.16H5.57" fill="#E6E6E6"/>
<path d="M2.74 27.58L6.5 27.6L6.48 30.65L2.72 30.62" stroke="#666666" stroke-width="0.3" stroke-linecap="round" stroke-linejoin="round"/>
<path d="M3.6 16.51L11.92 16.55" stroke="#666666" stroke-width="0.3" stroke-linecap="round" stroke-linejoin="round"/>
<path d="M2.7 35.33L6.45 35.35L6.44 38.4L2.68 38.38" stroke="#666666" stroke-width="0.3" stroke-linecap="round" stroke-linejoin="round"/>
<path d="M2.65 43.1L6.41 43.12L6.39 46.16L2.64 46.14" stroke="#666666" stroke-width="0.3" stroke-linecap="round" stroke-linejoin="round"/>
<path d="M9.51 54.2L11.38 50.01L11.4 46.19L9.65 46.18L9.66 43.14L11.42 43.15L11.44 38.43L9.69 38.42L9.71 35.37L11.46 35.38L11.49 30.67L9.73 30.66L9.75 27.62L11.5 27.63L11.52 24.36" stroke="#666666" stroke-width="0.3" stroke-linecap="round" stroke-linejoin="round"/>
<path d="M7.23 52.72L6.27 54.48C5.91 55.11 5.16 55.06 4.71 54.4L1.86 50.07L1.88 46.21L2.53 45.38V43.81L1.9 43.06L1.93 38.44L2.58 37.62V36.05L1.95 35.3L1.98 30.66L2.63 29.84V28.27L2 27.52V26.64L2.02 24.13H3.09C4.09 24.14 4.06 22.27 3.09 22.27H2.21L0.259998 16.6L2.8 16.51L2.07 15.42L2.15 0.260002L12.91 0.320002L12.85 11.62L12.18 12.42V14.43L12.83 15.09V16.67L14.62 16.68L12.61 22.32H11.73C10.77 22.31 10.72 24.18 11.73 24.18H12.15V25.96L12.79 26.7L12.76 31.99L12.11 32.73V34.3L12.74 35.13L12.71 39.77L12.06 40.51V42.08L12.69 42.91L12.65 50.13L9.76 54.43C9.3 55.08 8.56 55.12 8.2 54.49L7.26 52.72" stroke="black" stroke-width="0.5" stroke-linecap="round" stroke-linejoin="round"/>
</g>
<defs>
<clipPath id="clip0_50_1092">
<rect width="14.85" height="55.19" fill="white"/>
</clipPath>
</defs>
</svg>
