<svg width="229" height="261" viewBox="0 0 229 261" fill="none" xmlns="http://www.w3.org/2000/svg">
<g clip-path="url(#clip0_482_9858)">
<path d="M228.57 0H0V260.51H228.57V0Z" fill="white"/>
<path d="M14.56 41.83L14.45 41.95L14.42 42.11" stroke="#231815" stroke-width="0.5" stroke-linecap="round" stroke-linejoin="round" stroke-dasharray="14.17 14.17 14.17 14.17 14.17 14.17"/>
<path d="M17.93 14.42L16.74 15.6" stroke="#231815" stroke-width="0.5" stroke-linecap="round" stroke-linejoin="round" stroke-dasharray="1.67 1.67"/>
<path d="M14.42 226.21L14.58 228.27L14.68 228.83" stroke="#231815" stroke-width="0.5" stroke-linecap="round" stroke-linejoin="round" stroke-dasharray="2.63 2.63"/>
<path d="M14.53 41.18V41.2" stroke="#231815" stroke-width="0.5" stroke-linecap="round" stroke-linejoin="round" stroke-dasharray="14.17 14.17 14.17 14.17 14.17 14.17"/>
<path d="M16.7399 15.6L16.1299 22.66" stroke="#231815" stroke-width="0.5" stroke-linecap="round" stroke-linejoin="round"/>
<path d="M15.93 24.95L15.24 32.97" stroke="#231815" stroke-width="0.5" stroke-linecap="round" stroke-linejoin="round" stroke-dasharray="2.3 2.3 2.3 2.3"/>
<path d="M15.14 34.12L14.53 41.18" stroke="#231815" stroke-width="0.5" stroke-linecap="round" stroke-linejoin="round"/>
<path d="M22.37 240.67L21.53 240.13L18.72 237.71L16.56 234.76" stroke="#231815" stroke-width="0.5" stroke-linecap="round" stroke-linejoin="round" stroke-dasharray="8.37 8.37"/>
<path d="M14.42 42.11V49.19" stroke="#231815" stroke-width="0.5" stroke-linecap="round" stroke-linejoin="round"/>
<path d="M14.42 64.64V118.71" stroke="#231815" stroke-width="0.5" stroke-linecap="round" stroke-linejoin="round" stroke-dasharray="15.45 15.45 15.45 15.45"/>
<path d="M14.42 126.43V211.39" stroke="#231815" stroke-width="0.5" stroke-linecap="round" stroke-linejoin="round" stroke-dasharray="15.45 15.45 15.45 15.45 15.45 15.45"/>
<path d="M14.42 219.12V226.21" stroke="#231815" stroke-width="0.5" stroke-linecap="round" stroke-linejoin="round"/>
<path d="M14.53 41.2V41.86" stroke="#231815" stroke-width="0.5" stroke-linecap="round" stroke-linejoin="round" stroke-dasharray="14.17 14.17 14.17 14.17 14.17 14.17"/>
<path d="M211.83 15.6L212.44 22.66" stroke="#231815" stroke-width="0.5" stroke-linecap="round" stroke-linejoin="round"/>
<path d="M212.63 24.95L213.33 32.97" stroke="#231815" stroke-width="0.5" stroke-linecap="round" stroke-linejoin="round" stroke-dasharray="2.3 2.3 2.3 2.3"/>
<path d="M213.43 34.12L214.04 41.18" stroke="#231815" stroke-width="0.5" stroke-linecap="round" stroke-linejoin="round"/>
<path d="M214.04 41.2V41.18" stroke="#231815" stroke-width="0.5" stroke-linecap="round" stroke-linejoin="round" stroke-dasharray="14.17 14.17 14.17 14.17 14.17 14.17"/>
<path d="M214.04 41.86V41.2" stroke="#231815" stroke-width="0.5" stroke-linecap="round" stroke-linejoin="round" stroke-dasharray="14.17 14.17 14.17 14.17 14.17 14.17"/>
<path d="M214.15 226.21V219.12" stroke="#231815" stroke-width="0.5" stroke-linecap="round" stroke-linejoin="round"/>
<path d="M214.15 203.67V149.6" stroke="#231815" stroke-width="0.5" stroke-linecap="round" stroke-linejoin="round" stroke-dasharray="15.45 15.45 15.45 15.45"/>
<path d="M214.15 141.88V56.92" stroke="#231815" stroke-width="0.5" stroke-linecap="round" stroke-linejoin="round" stroke-dasharray="15.45 15.45 15.45 15.45 15.45 15.45"/>
<path d="M214.15 49.19V42.11" stroke="#231815" stroke-width="0.5" stroke-linecap="round" stroke-linejoin="round"/>
<path d="M214.15 42.11L214.12 41.95" stroke="#231815" stroke-width="0.5" stroke-linecap="round" stroke-linejoin="round" stroke-dasharray="14.17 14.17 14.17 14.17 14.17 14.17"/>
<path d="M213.53 230.66L213.35 231.45" stroke="#231815" stroke-width="0.5" stroke-linecap="round" stroke-linejoin="round" stroke-dasharray="0.81 0.81"/>
<path d="M213.35 231.45L212.02 234.75L209.86 237.7L207.05 240.12L206.19 240.67" stroke="#231815" stroke-width="0.5" stroke-linecap="round" stroke-linejoin="round" stroke-dasharray="11.94 11.94"/>
<path d="M210.64 14.42L211.83 15.6" stroke="#231815" stroke-width="0.5" stroke-linecap="round" stroke-linejoin="round" stroke-dasharray="1.67 1.67"/>
<path d="M208.89 14.46H201.8" stroke="#231815" stroke-width="0.5" stroke-linecap="round" stroke-linejoin="round"/>
<path d="M185.89 14.46H130.2" stroke="#231815" stroke-width="0.5" stroke-linecap="round" stroke-linejoin="round" stroke-dasharray="15.91 15.91 15.91 15.91"/>
<path d="M122.24 14.46H34.72" stroke="#231815" stroke-width="0.5" stroke-linecap="round" stroke-linejoin="round" stroke-dasharray="15.91 15.91 15.91 15.91 15.91 15.91"/>
<path d="M26.77 14.46H19.68" stroke="#231815" stroke-width="0.5" stroke-linecap="round" stroke-linejoin="round"/>
<path d="M210.64 14.42H209.21" stroke="#231815" stroke-width="0.5" stroke-linecap="round" stroke-linejoin="round" stroke-dasharray="1.43 1.43"/>
<path d="M19.36 14.42H17.93" stroke="#231815" stroke-width="0.5" stroke-linecap="round" stroke-linejoin="round" stroke-dasharray="14.17 14.17 14.17 14.17 14.17 14.17"/>
<path d="M22.37 240.67L24.86 242.03" stroke="#231815" stroke-width="0.5" stroke-linecap="round" stroke-linejoin="round"/>
<path d="M29.61 243.96L32.33 244.75" stroke="#231815" stroke-width="0.5" stroke-linecap="round" stroke-linejoin="round"/>
<path d="M32.33 244.75L32.55 244.81" stroke="#231815" stroke-width="0.5" stroke-linecap="round" stroke-linejoin="round" stroke-dasharray="0.23 0.23"/>
<path d="M32.55 244.81L35.23 245.32L35.34 245.33" stroke="#231815" stroke-width="0.5" stroke-linecap="round" stroke-linejoin="round"/>
<path d="M37.88 245.62L38.81 245.72L40.7 245.8" stroke="#231815" stroke-width="0.5" stroke-linecap="round" stroke-linejoin="round"/>
<path d="M196.02 244.81L196.24 244.75" stroke="#231815" stroke-width="0.5" stroke-linecap="round" stroke-linejoin="round" stroke-dasharray="0.23 0.23"/>
<circle cx="187.87" cy="245.8" r="0.25" fill="#231815"/>
<path d="M114.28 245.74L121.37 245.79" stroke="#231815" stroke-width="0.5" stroke-linecap="round" stroke-linejoin="round"/>
<path d="M133.25 245.87L139.91 245.92L165.02 246.08L174.85 245.96" stroke="#231815" stroke-width="0.5" stroke-linecap="round" stroke-linejoin="round" stroke-dasharray="11.88 11.88 11.88 11.88"/>
<path d="M180.79 245.89L187.87 245.8" stroke="#231815" stroke-width="0.5" stroke-linecap="round" stroke-linejoin="round"/>
<path d="M40.7 245.8L47.78 245.89" stroke="#231815" stroke-width="0.5" stroke-linecap="round" stroke-linejoin="round"/>
<path d="M59.66 246.04L63.46 246.08L88.57 245.92L101.26 245.83" stroke="#231815" stroke-width="0.5" stroke-linecap="round" stroke-linejoin="round" stroke-dasharray="11.88 11.88 11.88 11.88"/>
<path d="M107.2 245.79L114.28 245.74" stroke="#231815" stroke-width="0.5" stroke-linecap="round" stroke-linejoin="round"/>
<circle cx="40.7" cy="245.8" r="0.25" fill="#231815"/>
<path d="M213.53 230.66L213.89 228.83" stroke="#231815" stroke-width="0.5" stroke-linecap="round" stroke-linejoin="round" stroke-dasharray="1.87 1.87"/>
<path d="M196.24 244.75L199.54 243.79L203.35 242.22L206.2 240.67" stroke="#231815" stroke-width="0.5" stroke-linecap="round" stroke-linejoin="round"/>
<path d="M55.81 52.88L51.56 60.24" stroke="#231815" stroke-width="0.5" stroke-linecap="round" stroke-linejoin="round"/>
<path d="M42.42 127.16V99.74" stroke="#231815" stroke-linecap="round" stroke-linejoin="round"/>
<path d="M42.42 85.56V36.67" stroke="#231815" stroke-linecap="round" stroke-linejoin="round"/>
<path d="M56.72 63.22L60.97 55.85" stroke="#231815" stroke-width="0.5" stroke-linecap="round" stroke-linejoin="round"/>
<path d="M124.2 179.25H138.38" stroke="#231815" stroke-linecap="round" stroke-linejoin="round"/>
<path d="M47.67 86.98V98.32" stroke="#231815" stroke-linecap="round" stroke-linejoin="round"/>
<path d="M71.27 172.02H121.37" stroke="#231815" stroke-linecap="round" stroke-linejoin="round"/>
<path d="M141.21 172.02H157.3" stroke="#231815" stroke-linecap="round" stroke-linejoin="round"/>
<path d="M69.97 171.18L51.62 129.69" stroke="#231815" stroke-linecap="round" stroke-linejoin="round"/>
<path d="M56.17 31.85V33.55" stroke="#231815" stroke-linecap="round" stroke-linejoin="round"/>
<path d="M56.17 33.55V33.83" stroke="#231815" stroke-linecap="round" stroke-linejoin="round"/>
<path d="M51.51 116.84L55.84 124.32" stroke="#231815" stroke-width="0.5" stroke-linecap="round" stroke-linejoin="round"/>
<path d="M60.99 121.35L56.67 113.86" stroke="#231815" stroke-width="0.5" stroke-linecap="round" stroke-linejoin="round"/>
<path d="M81.68 75.64V133.75" stroke="#231815" stroke-width="0.5" stroke-linecap="round" stroke-linejoin="round"/>
<path d="M84.52 136.59H144.05" stroke="#231815" stroke-width="0.5" stroke-linecap="round" stroke-linejoin="round"/>
<path d="M186.14 127.16H184.44" stroke="#231815" stroke-linecap="round" stroke-linejoin="round"/>
<path d="M184.44 127.16H180.83" stroke="#231815" stroke-linecap="round" stroke-linejoin="round"/>
<path d="M47.73 127.16H44.13" stroke="#231815" stroke-linecap="round" stroke-linejoin="round"/>
<path d="M42.42 127.16H44.13" stroke="#231815" stroke-linecap="round" stroke-linejoin="round"/>
<path d="M124.2 174.86V177.55" stroke="#231815" stroke-linecap="round" stroke-linejoin="round"/>
<path d="M124.2 179.25V177.55" stroke="#231815" stroke-linecap="round" stroke-linejoin="round"/>
<path d="M186.14 99.74H184.44" stroke="#231815" stroke-linecap="round" stroke-linejoin="round"/>
<path d="M184.44 99.74H182.31" stroke="#231815" stroke-linecap="round" stroke-linejoin="round"/>
<path d="M44.13 99.74H42.42" stroke="#231815" stroke-linecap="round" stroke-linejoin="round"/>
<path d="M44.13 99.74H46.25" stroke="#231815" stroke-linecap="round" stroke-linejoin="round"/>
<path d="M138.38 179.25V177.55" stroke="#231815" stroke-linecap="round" stroke-linejoin="round"/>
<path d="M138.38 177.55V174.86" stroke="#231815" stroke-linecap="round" stroke-linejoin="round"/>
<path d="M184.44 85.56H182.31" stroke="#231815" stroke-linecap="round" stroke-linejoin="round"/>
<path d="M42.42 85.56H44.13" stroke="#231815" stroke-linecap="round" stroke-linejoin="round"/>
<path d="M44.13 85.56H46.25" stroke="#231815" stroke-linecap="round" stroke-linejoin="round"/>
<path d="M184.44 85.56H186.14" stroke="#231815" stroke-linecap="round" stroke-linejoin="round"/>
<path d="M146.88 133.75V75.64" stroke="#231815" stroke-width="0.5" stroke-linecap="round" stroke-linejoin="round"/>
<path d="M144.05 72.81H84.52" stroke="#231815" stroke-width="0.5" stroke-linecap="round" stroke-linejoin="round"/>
<path d="M172.39 31.85V33.55" stroke="#231815" stroke-linecap="round" stroke-linejoin="round"/>
<path d="M172.39 33.55V33.83" stroke="#231815" stroke-linecap="round" stroke-linejoin="round"/>
<path d="M180.9 98.32V86.98" stroke="#231815" stroke-linecap="round" stroke-linejoin="round"/>
<path d="M158.59 171.18L176.94 129.69" stroke="#231815" stroke-linecap="round" stroke-linejoin="round"/>
<path d="M186.14 127.16V99.74" stroke="#231815" stroke-linecap="round" stroke-linejoin="round"/>
<path d="M186.14 85.56V36.67" stroke="#231815" stroke-linecap="round" stroke-linejoin="round"/>
<path d="M186.14 36.67H184.44" stroke="#231815" stroke-linecap="round" stroke-linejoin="round"/>
<path d="M42.42 36.67H44.13" stroke="#231815" stroke-linecap="round" stroke-linejoin="round"/>
<path d="M44.13 36.67H53.34" stroke="#231815" stroke-linecap="round" stroke-linejoin="round"/>
<path d="M175.23 36.67H184.44" stroke="#231815" stroke-linecap="round" stroke-linejoin="round"/>
<path d="M56.17 31.85H172.39" stroke="#231815" stroke-linecap="round" stroke-linejoin="round"/>
<path d="M51.62 129.69C50.94 128.15 49.41 127.16 47.73 127.16" stroke="#231815" stroke-linecap="round" stroke-linejoin="round"/>
<path d="M55.84 124.32C56.66 125.74 58.48 126.23 59.91 125.41C61.34 124.59 61.82 122.77 61 121.34" stroke="#231815" stroke-width="0.5" stroke-linecap="round" stroke-linejoin="round"/>
<path d="M56.67 113.86C55.85 112.44 54.03 111.95 52.6 112.77C51.17 113.59 50.69 115.41 51.51 116.84" stroke="#231815" stroke-width="0.5" stroke-linecap="round" stroke-linejoin="round"/>
<path d="M81.68 133.75C81.68 135.32 82.95 136.58 84.51 136.58" stroke="#231815" stroke-width="0.5" stroke-linecap="round" stroke-linejoin="round"/>
<path d="M69.97 171.18C70.2 171.69 70.71 172.02 71.27 172.02" stroke="#231815" stroke-linecap="round" stroke-linejoin="round"/>
<path d="M60.97 55.85C61.79 54.43 61.3 52.61 59.88 51.78C58.46 50.95 56.64 51.45 55.81 52.87" stroke="#231815" stroke-width="0.5" stroke-linecap="round" stroke-linejoin="round"/>
<path d="M51.56 60.24C50.74 61.66 51.23 63.48 52.65 64.31C54.07 65.14 55.89 64.64 56.72 63.22" stroke="#231815" stroke-width="0.5" stroke-linecap="round" stroke-linejoin="round"/>
<path d="M84.52 72.81C82.95 72.81 81.69 74.08 81.69 75.64" stroke="#231815" stroke-width="0.5" stroke-linecap="round" stroke-linejoin="round"/>
<path d="M53.34 36.67C54.91 36.67 56.17 35.4 56.17 33.84" stroke="#231815" stroke-linecap="round" stroke-linejoin="round"/>
<path d="M46.25 99.74C47.03 99.74 47.67 99.11 47.67 98.32" stroke="#231815" stroke-linecap="round" stroke-linejoin="round"/>
<path d="M47.67 86.98C47.67 86.2 47.04 85.56 46.25 85.56" stroke="#231815" stroke-linecap="round" stroke-linejoin="round"/>
<path d="M180.83 127.16C179.15 127.16 177.62 128.15 176.94 129.69" stroke="#231815" stroke-linecap="round" stroke-linejoin="round"/>
<path d="M124.2 174.86C124.2 173.29 122.93 172.03 121.37 172.03" stroke="#231815" stroke-linecap="round" stroke-linejoin="round"/>
<path d="M141.21 172.02C139.64 172.02 138.38 173.29 138.38 174.85" stroke="#231815" stroke-linecap="round" stroke-linejoin="round"/>
<path d="M144.05 136.59C145.62 136.59 146.88 135.32 146.88 133.76" stroke="#231815" stroke-width="0.5" stroke-linecap="round" stroke-linejoin="round"/>
<path d="M157.3 172.02C157.86 172.02 158.37 171.69 158.6 171.18" stroke="#231815" stroke-linecap="round" stroke-linejoin="round"/>
<path d="M165.87 76.39C165.87 74.75 167.2 73.41 168.85 73.41C170.5 73.41 171.83 74.74 171.83 76.39C171.83 78.04 170.5 79.37 168.85 79.37C167.2 79.37 165.87 78.04 165.87 76.39Z" stroke="#231815" stroke-width="0.5" stroke-linecap="round" stroke-linejoin="round"/>
<path d="M146.88 75.64C146.88 74.07 145.61 72.81 144.05 72.81" stroke="#231815" stroke-width="0.5" stroke-linecap="round" stroke-linejoin="round"/>
<path d="M172.39 33.83C172.39 35.4 173.66 36.66 175.22 36.66" stroke="#231815" stroke-linecap="round" stroke-linejoin="round"/>
<path d="M182.31 85.56C181.53 85.56 180.89 86.19 180.89 86.98" stroke="#231815" stroke-linecap="round" stroke-linejoin="round"/>
<path d="M180.9 98.32C180.9 99.1 181.53 99.74 182.32 99.74" stroke="#231815" stroke-linecap="round" stroke-linejoin="round"/>
<path d="M78.85 164.23H84.52" stroke="#231815" stroke-width="0.5" stroke-linecap="round" stroke-linejoin="round"/>
<path d="M111.45 164.23H117.12" stroke="#231815" stroke-width="0.5" stroke-linecap="round" stroke-linejoin="round"/>
<path d="M117.12 157.85H111.45" stroke="#231815" stroke-width="0.5" stroke-linecap="round" stroke-linejoin="round"/>
<path d="M84.52 157.85H78.85" stroke="#231815" stroke-width="0.5" stroke-linecap="round" stroke-linejoin="round"/>
<path d="M111.09 40.14V45.81" stroke="#231815" stroke-width="0.5" stroke-linecap="round" stroke-linejoin="round"/>
<path d="M117.47 45.81V40.14" stroke="#231815" stroke-width="0.5" stroke-linecap="round" stroke-linejoin="round"/>
<path d="M143.69 40.14V45.81" stroke="#231815" stroke-width="0.5" stroke-linecap="round" stroke-linejoin="round"/>
<path d="M150.07 45.81V40.14" stroke="#231815" stroke-width="0.5" stroke-linecap="round" stroke-linejoin="round"/>
<path d="M78.85 157.85C77.09 157.85 75.66 159.28 75.66 161.04C75.66 162.8 77.09 164.23 78.85 164.23" stroke="#231815" stroke-width="0.5" stroke-linecap="round" stroke-linejoin="round"/>
<path d="M84.52 164.23C86.28 164.23 87.71 162.8 87.71 161.04C87.71 159.28 86.28 157.85 84.52 157.85" stroke="#231815" stroke-width="0.5" stroke-linecap="round" stroke-linejoin="round"/>
<path d="M111.45 157.85C109.69 157.85 108.26 159.28 108.26 161.04C108.26 162.8 109.69 164.23 111.45 164.23" stroke="#231815" stroke-width="0.5" stroke-linecap="round" stroke-linejoin="round"/>
<path d="M70.39 143.67C70.39 142.91 71.01 142.29 71.77 142.29C72.53 142.29 73.15 142.91 73.15 143.67C73.15 144.43 72.53 145.05 71.77 145.05C71.01 145.05 70.39 144.43 70.39 143.67Z" stroke="#231815" stroke-width="0.5" stroke-linecap="round" stroke-linejoin="round"/>
<path d="M71.62 143.67C71.62 143.59 71.68 143.53 71.76 143.53C71.84 143.53 71.9 143.59 71.9 143.67C71.9 143.75 71.84 143.81 71.76 143.81C71.68 143.81 71.62 143.75 71.62 143.67Z" stroke="#231815" stroke-width="0.5" stroke-linecap="round" stroke-linejoin="round"/>
<path d="M78.5 42.97C78.5 41.21 79.93 39.78 81.69 39.78C83.45 39.78 84.88 41.21 84.88 42.97C84.88 44.73 83.45 46.16 81.69 46.16C79.93 46.16 78.5 44.73 78.5 42.97Z" stroke="#231815" stroke-width="0.5" stroke-linecap="round" stroke-linejoin="round"/>
<path d="M47.71 45.88C47.71 45.12 48.33 44.5 49.09 44.5C49.85 44.5 50.47 45.12 50.47 45.88C50.47 46.64 49.85 47.26 49.09 47.26C48.33 47.26 47.71 46.64 47.71 45.88Z" stroke="#231815" stroke-width="0.5" stroke-linecap="round" stroke-linejoin="round"/>
<path d="M48.94 45.88C48.94 45.8 49 45.74 49.08 45.74C49.16 45.74 49.22 45.8 49.22 45.88C49.22 45.96 49.16 46.02 49.08 46.02C49 46.02 48.94 45.96 48.94 45.88Z" stroke="#231815" stroke-width="0.5" stroke-linecap="round" stroke-linejoin="round"/>
<path d="M143.69 161.04C143.69 159.28 145.12 157.85 146.88 157.85C148.64 157.85 150.07 159.28 150.07 161.04C150.07 162.8 148.64 164.23 146.88 164.23C145.12 164.23 143.69 162.8 143.69 161.04Z" stroke="#231815" stroke-width="0.5" stroke-linecap="round" stroke-linejoin="round"/>
<path d="M117.12 164.23C118.88 164.23 120.31 162.8 120.31 161.04C120.31 159.28 118.88 157.85 117.12 157.85" stroke="#231815" stroke-width="0.5" stroke-linecap="round" stroke-linejoin="round"/>
<path d="M155.43 143.67C155.43 142.91 156.05 142.29 156.81 142.29C157.57 142.29 158.19 142.91 158.19 143.67C158.19 144.43 157.57 145.05 156.81 145.05C156.05 145.05 155.43 144.43 155.43 143.67Z" stroke="#231815" stroke-width="0.5" stroke-linecap="round" stroke-linejoin="round"/>
<path d="M156.66 143.67C156.66 143.59 156.72 143.53 156.8 143.53C156.88 143.53 156.94 143.59 156.94 143.67C156.94 143.75 156.88 143.81 156.8 143.81C156.72 143.81 156.66 143.75 156.66 143.67Z" stroke="#231815" stroke-width="0.5" stroke-linecap="round" stroke-linejoin="round"/>
<path d="M111.09 45.81C111.09 47.57 112.52 49 114.28 49C116.04 49 117.47 47.57 117.47 45.81" stroke="#231815" stroke-width="0.5" stroke-linecap="round" stroke-linejoin="round"/>
<path d="M117.47 40.14C117.47 38.38 116.04 36.95 114.28 36.95C112.52 36.95 111.09 38.38 111.09 40.14" stroke="#231815" stroke-width="0.5" stroke-linecap="round" stroke-linejoin="round"/>
<path d="M143.69 45.81C143.69 47.57 145.12 49 146.88 49C148.64 49 150.07 47.57 150.07 45.81" stroke="#231815" stroke-width="0.5" stroke-linecap="round" stroke-linejoin="round"/>
<path d="M150.07 40.14C150.07 38.38 148.64 36.95 146.88 36.95C145.12 36.95 143.69 38.38 143.69 40.14" stroke="#231815" stroke-width="0.5" stroke-linecap="round" stroke-linejoin="round"/>
<path d="M178.1 45.88C178.1 45.12 178.72 44.5 179.48 44.5C180.24 44.5 180.86 45.12 180.86 45.88C180.86 46.64 180.24 47.26 179.48 47.26C178.72 47.26 178.1 46.64 178.1 45.88Z" stroke="#231815" stroke-width="0.5" stroke-linecap="round" stroke-linejoin="round"/>
<path d="M179.34 45.88C179.34 45.8 179.4 45.74 179.48 45.74C179.56 45.74 179.62 45.8 179.62 45.88C179.62 45.96 179.56 46.02 179.48 46.02C179.4 46.02 179.34 45.96 179.34 45.88Z" stroke="#231815" stroke-width="0.5" stroke-linecap="round" stroke-linejoin="round"/>
<path d="M66.53 161H73.84" stroke="#231815" stroke-width="0.5" stroke-linecap="round" stroke-linejoin="round"/>
<path d="M33.28 127.16H39.92" stroke="#231815" stroke-width="0.5" stroke-linecap="round" stroke-linejoin="round"/>
<path d="M33.28 36.68H39.92" stroke="#231815" stroke-width="0.5" stroke-linecap="round" stroke-linejoin="round"/>
<path d="M46.32 31.88H53.99" stroke="#231815" stroke-width="0.5" stroke-linecap="round" stroke-linejoin="round"/>
<path d="M50.82 36.67V44.22" stroke="#231815" stroke-width="0.5" stroke-linecap="round" stroke-linejoin="round"/>
<path d="M65.52 42.87H76.09" stroke="#231815" stroke-width="0.5" stroke-linecap="round" stroke-linejoin="round"/>
<path d="M68.7999 45.95V91.41" stroke="#231815" stroke-width="0.5" stroke-linecap="round" stroke-linejoin="round"/>
<path d="M66.95 47.36L68.8 46.57L70.66 47.36L68.8 42.97L66.95 47.36Z" fill="#231815"/>
<path d="M68.7999 105.24V158" stroke="#231815" stroke-width="0.5" stroke-linecap="round" stroke-linejoin="round"/>
<path d="M66.95 156.6L68.8 157.38L70.66 156.6L68.8 160.99L66.95 156.6Z" fill="#231815"/>
<path d="M108.67 184.41H85.51" stroke="#231815" stroke-width="0.5" stroke-linecap="round" stroke-linejoin="round"/>
<path d="M86.4 184.41L87.5 186.21L87.44 186.25L84.5 185.08C83.48 184.85 82.45 184.63 81.43 184.4C82.45 184.17 83.48 183.95 84.5 183.72L87.44 182.55L87.5 182.58L86.4 184.39V184.41Z" fill="#231815"/>
<path d="M117.71 184.41H142.43" stroke="#231815" stroke-width="0.5" stroke-linecap="round" stroke-linejoin="round"/>
<path d="M141.54 184.41L140.44 182.61L140.5 182.57L143.44 183.74C144.46 183.97 145.49 184.19 146.51 184.42C145.49 184.65 144.46 184.87 143.44 185.1L140.5 186.27L140.44 186.24L141.54 184.43V184.41Z" fill="#231815"/>
<path d="M67.92 100.51C68.11 100.51 68.27 100.56 68.41 100.67C68.55 100.78 68.66 100.91 68.73 101.09C68.8 100.89 68.91 100.73 69.06 100.6C69.21 100.47 69.39 100.42 69.59 100.42C69.92 100.42 70.17 100.53 70.35 100.74C70.53 100.95 70.62 101.22 70.62 101.55C70.62 101.9 70.53 102.18 70.35 102.4C70.17 102.62 69.92 102.73 69.59 102.73C69.39 102.73 69.21 102.67 69.06 102.54C68.91 102.41 68.79 102.25 68.72 102.04C68.65 102.22 68.55 102.37 68.41 102.47C68.27 102.57 68.11 102.63 67.92 102.63C67.61 102.63 67.37 102.53 67.21 102.33C67.05 102.13 66.96 101.87 66.96 101.55C66.96 101.25 67.04 101 67.21 100.8C67.38 100.6 67.61 100.51 67.92 100.51ZM69.58 100.89C69.39 100.89 69.23 100.95 69.1 101.08C68.97 101.21 68.91 101.36 68.91 101.55C68.91 101.75 68.97 101.92 69.1 102.05C69.23 102.18 69.38 102.25 69.58 102.25C69.78 102.25 69.94 102.18 70.06 102.05C70.18 101.92 70.24 101.75 70.24 101.54C70.24 101.35 70.18 101.2 70.06 101.07C69.94 100.94 69.78 100.88 69.58 100.88V100.89ZM67.93 100.99C67.76 100.99 67.62 101.04 67.51 101.15C67.4 101.26 67.34 101.39 67.34 101.55C67.34 101.72 67.39 101.87 67.5 101.98C67.61 102.09 67.75 102.15 67.93 102.15C68.11 102.15 68.26 102.09 68.37 101.98C68.48 101.87 68.54 101.72 68.54 101.55C68.54 101.39 68.48 101.26 68.37 101.16C68.26 101.06 68.11 101 67.93 101V100.99Z" fill="#231815"/>
<path d="M68.55 98.75C68.55 98.54 68.5 98.38 68.39 98.29C68.28 98.2 68.13 98.16 67.94 98.16C67.76 98.16 67.62 98.21 67.51 98.31C67.4 98.41 67.35 98.55 67.35 98.74C67.35 98.93 67.41 99.08 67.52 99.2C67.63 99.32 67.78 99.38 67.95 99.38V99.84H67.94C67.67 99.86 67.45 99.75 67.26 99.54C67.07 99.33 66.98 99.06 66.98 98.73C66.98 98.4 67.06 98.14 67.23 97.95C67.4 97.76 67.64 97.67 67.97 97.67C68.14 97.67 68.29 97.71 68.42 97.8C68.55 97.89 68.66 98.01 68.74 98.16C68.81 97.98 68.92 97.84 69.07 97.75C69.22 97.66 69.39 97.61 69.6 97.61C69.93 97.61 70.18 97.71 70.37 97.92C70.56 98.13 70.65 98.39 70.65 98.72C70.65 99.02 70.56 99.29 70.38 99.52C70.2 99.75 69.97 99.86 69.67 99.85H69.66V99.39C69.83 99.39 69.98 99.33 70.1 99.2C70.22 99.07 70.28 98.91 70.28 98.72C70.28 98.53 70.22 98.37 70.1 98.26C69.98 98.15 69.82 98.09 69.63 98.09C69.41 98.09 69.24 98.14 69.13 98.25C69.02 98.36 68.96 98.52 68.96 98.74V99.14H68.59V98.74L68.55 98.75Z" fill="#231815"/>
<path d="M70.57 96.47V96.95H70.08V96.47H70.57Z" fill="#231815"/>
<path d="M68.55 94.6C68.55 94.39 68.5 94.23 68.39 94.14C68.28 94.05 68.13 94.01 67.94 94.01C67.76 94.01 67.62 94.06 67.51 94.16C67.4 94.26 67.35 94.4 67.35 94.59C67.35 94.78 67.41 94.93 67.52 95.05C67.63 95.17 67.78 95.23 67.95 95.23V95.69H67.94C67.67 95.71 67.45 95.6 67.26 95.39C67.07 95.18 66.98 94.91 66.98 94.58C66.98 94.25 67.06 93.99 67.23 93.8C67.4 93.61 67.64 93.52 67.97 93.52C68.14 93.52 68.29 93.56 68.42 93.65C68.55 93.74 68.66 93.86 68.74 94.01C68.81 93.83 68.92 93.69 69.07 93.6C69.22 93.51 69.39 93.46 69.6 93.46C69.93 93.46 70.18 93.56 70.37 93.77C70.56 93.98 70.65 94.24 70.65 94.57C70.65 94.87 70.56 95.14 70.38 95.37C70.2 95.6 69.97 95.71 69.67 95.7H69.66V95.24C69.83 95.24 69.98 95.18 70.1 95.05C70.22 94.92 70.28 94.76 70.28 94.57C70.28 94.38 70.22 94.22 70.1 94.11C69.98 94 69.82 93.94 69.63 93.94C69.41 93.94 69.24 93.99 69.13 94.1C69.02 94.21 68.96 94.37 68.96 94.59V94.99H68.59V94.59L68.55 94.6Z" fill="#231815"/>
<path d="M133.43 36.28V91.89" stroke="#231815" stroke-width="0.5" stroke-linecap="round" stroke-linejoin="round"/>
<path d="M133.43 37.17L135.23 38.27L135.27 38.21L134.1 35.27C133.87 34.25 133.65 33.22 133.42 32.2C133.19 33.22 132.97 34.25 132.74 35.27L131.57 38.21L131.6 38.27L133.41 37.17H133.43Z" fill="#231815"/>
<path d="M133.43 103.77V174.79" stroke="#231815" stroke-width="0.5" stroke-linecap="round" stroke-linejoin="round"/>
<path d="M133.43 173.89L135.23 172.79L135.27 172.85L134.1 175.79C133.87 176.81 133.65 177.84 133.42 178.86C133.19 177.84 132.97 176.81 132.74 175.79L131.57 172.85L131.6 172.79L133.41 173.89H133.43Z" fill="#231815"/>
<path d="M135.01 100.65V101.13H131.9V101.9H131.54L131.41 100.64H135.02L135.01 100.65Z" fill="#231815"/>
<path d="M133.76 97.03C134.16 97.03 134.48 97.13 134.71 97.34C134.94 97.55 135.06 97.82 135.06 98.16C135.06 98.5 134.94 98.78 134.71 98.98C134.48 99.18 134.16 99.29 133.76 99.29H132.72C132.32 99.29 132 99.19 131.77 98.98C131.54 98.77 131.42 98.5 131.42 98.16C131.42 97.82 131.54 97.54 131.77 97.33C132 97.12 132.32 97.02 132.72 97.02H133.76V97.03ZM132.61 97.51C132.35 97.51 132.15 97.57 132 97.68C131.85 97.79 131.78 97.96 131.78 98.16C131.78 98.36 131.85 98.53 132 98.64C132.15 98.75 132.35 98.81 132.61 98.81H133.85C134.11 98.81 134.31 98.75 134.46 98.64C134.61 98.53 134.68 98.37 134.68 98.16C134.68 97.95 134.61 97.79 134.46 97.68C134.31 97.57 134.11 97.51 133.85 97.51H132.61Z" fill="#231815"/>
<path d="M133.81 94.57V94.08H134.19V94.57H135.01V95.05H134.19V96.58H133.92L131.46 95.08V94.57H133.82H133.81ZM133.81 96.06V95.05H132.14L132.26 95.11L133.81 96.06Z" fill="#231815"/>
<path d="M81.33 187.51V166.07" stroke="#231815" stroke-width="0.5" stroke-linecap="round" stroke-linejoin="round"/>
<path d="M146.85 187.51V166.07" stroke="#231815" stroke-width="0.5" stroke-linecap="round" stroke-linejoin="round"/>
<path d="M112.64 184.94H113.13V185.32H112.64V186.14H112.16V185.32H110.63V185.05L112.13 182.59H112.64V184.95V184.94ZM111.15 184.94H112.16V183.27H112.15L112.1 183.39L111.15 184.94Z" fill="#231815"/>
<path d="M114.84 182.53C114.98 182.53 115.12 182.54 115.26 182.57C115.4 182.6 115.51 182.63 115.6 182.67L115.5 183.04C115.41 183 115.31 182.97 115.21 182.94C115.11 182.91 114.99 182.9 114.85 182.9C114.63 182.9 114.45 183 114.31 183.19C114.17 183.38 114.1 183.62 114.1 183.91V184.19C114.2 184.09 114.32 184.01 114.45 183.96C114.58 183.91 114.73 183.87 114.89 183.87C115.2 183.87 115.44 183.97 115.62 184.18C115.8 184.39 115.89 184.65 115.89 184.99C115.89 185.35 115.79 185.65 115.59 185.86C115.39 186.07 115.12 186.19 114.78 186.19C114.44 186.19 114.18 186.07 113.95 185.82C113.72 185.57 113.62 185.23 113.62 184.8V183.98C113.62 183.56 113.74 183.22 113.98 182.95C114.22 182.68 114.51 182.54 114.86 182.54L114.84 182.53ZM114.73 184.23C114.58 184.23 114.45 184.26 114.34 184.33C114.23 184.4 114.15 184.48 114.09 184.59V184.84C114.09 185.14 114.16 185.38 114.29 185.55C114.42 185.72 114.58 185.81 114.77 185.81C114.97 185.81 115.12 185.73 115.23 185.58C115.34 185.43 115.39 185.23 115.39 184.99C115.39 184.76 115.33 184.57 115.22 184.44C115.11 184.31 114.94 184.23 114.73 184.23Z" fill="#231815"/>
<path d="M108.92 25.31H60.33" stroke="#231815" stroke-width="0.5" stroke-linecap="round" stroke-linejoin="round"/>
<path d="M61.23 25.31L62.33 27.11L62.27 27.15L59.33 25.98C58.31 25.75 57.28 25.53 56.26 25.3C57.28 25.07 58.31 24.85 59.33 24.62L62.27 23.45L62.33 23.48L61.23 25.29V25.31Z" fill="#231815"/>
<path d="M119.17 25.24H168.26" stroke="#231815" stroke-width="0.5" stroke-linecap="round" stroke-linejoin="round"/>
<path d="M167.36 25.24L166.26 23.44L166.32 23.4L169.26 24.57C170.28 24.8 171.31 25.02 172.33 25.25C171.31 25.48 170.28 25.7 169.26 25.93L166.32 27.1L166.26 27.07L167.36 25.26V25.24Z" fill="#231815"/>
<path d="M36.8 39.95V70.37" stroke="#231815" stroke-width="0.5" stroke-linecap="round" stroke-linejoin="round"/>
<path d="M34.95 41.36L36.8 40.57L38.66 41.36L36.8 36.97L34.95 41.36Z" fill="#231815"/>
<path d="M36.8 87.18V123.69" stroke="#231815" stroke-width="0.5" stroke-linecap="round" stroke-linejoin="round"/>
<path d="M34.95 122.29L36.8 123.08L38.66 122.29L36.8 126.68L34.95 122.29Z" fill="#231815"/>
<path d="M34.74 83.33C34.74 83.19 34.75 83.05 34.78 82.91C34.81 82.77 34.84 82.66 34.88 82.57L35.25 82.67C35.21 82.76 35.18 82.86 35.15 82.96C35.12 83.06 35.11 83.18 35.11 83.32C35.11 83.54 35.21 83.72 35.4 83.86C35.59 84 35.83 84.07 36.12 84.07H36.4C36.3 83.97 36.22 83.85 36.17 83.72C36.12 83.59 36.08 83.44 36.08 83.28C36.08 82.97 36.18 82.73 36.39 82.55C36.6 82.37 36.86 82.28 37.2 82.28C37.56 82.28 37.86 82.38 38.07 82.58C38.28 82.78 38.4 83.05 38.4 83.39C38.4 83.73 38.28 83.99 38.03 84.22C37.78 84.45 37.44 84.55 37.01 84.55H36.19C35.77 84.55 35.43 84.43 35.16 84.19C34.89 83.95 34.75 83.66 34.75 83.31L34.74 83.33ZM36.44 83.44C36.44 83.59 36.47 83.72 36.54 83.83C36.61 83.94 36.69 84.02 36.8 84.08H37.05C37.35 84.08 37.59 84.01 37.76 83.88C37.93 83.75 38.02 83.59 38.02 83.4C38.02 83.2 37.94 83.05 37.79 82.94C37.64 82.83 37.44 82.78 37.2 82.78C36.97 82.78 36.78 82.84 36.65 82.95C36.52 83.06 36.44 83.23 36.44 83.44Z" fill="#231815"/>
<path d="M36.32 80.66C36.32 80.45 36.27 80.29 36.16 80.2C36.05 80.11 35.9 80.07 35.71 80.07C35.53 80.07 35.39 80.12 35.28 80.22C35.17 80.32 35.12 80.46 35.12 80.65C35.12 80.84 35.18 80.99 35.29 81.11C35.4 81.23 35.55 81.29 35.72 81.29V81.75H35.71C35.44 81.77 35.22 81.66 35.03 81.45C34.84 81.24 34.75 80.97 34.75 80.64C34.75 80.31 34.83 80.05 35 79.86C35.17 79.67 35.41 79.58 35.74 79.58C35.91 79.58 36.06 79.62 36.19 79.71C36.32 79.8 36.43 79.92 36.51 80.07C36.58 79.89 36.69 79.75 36.84 79.66C36.99 79.57 37.16 79.52 37.37 79.52C37.7 79.52 37.95 79.62 38.14 79.83C38.33 80.04 38.42 80.3 38.42 80.63C38.42 80.93 38.33 81.2 38.15 81.43C37.97 81.66 37.74 81.77 37.44 81.76H37.43V81.3C37.6 81.3 37.75 81.24 37.87 81.11C37.99 80.98 38.05 80.82 38.05 80.63C38.05 80.44 37.99 80.28 37.87 80.17C37.75 80.06 37.59 80 37.4 80C37.18 80 37.01 80.05 36.9 80.16C36.79 80.27 36.73 80.43 36.73 80.65V81.05H36.36V80.65L36.32 80.66Z" fill="#231815"/>
<path d="M38.34 78.39V78.87H37.85V78.39H38.34Z" fill="#231815"/>
<path d="M35.7 75.46C35.89 75.46 36.05 75.51 36.19 75.62C36.33 75.73 36.44 75.86 36.51 76.04C36.58 75.84 36.69 75.68 36.84 75.55C36.99 75.42 37.17 75.37 37.37 75.37C37.7 75.37 37.95 75.48 38.13 75.69C38.31 75.9 38.4 76.17 38.4 76.5C38.4 76.85 38.31 77.13 38.13 77.35C37.95 77.57 37.7 77.68 37.37 77.68C37.17 77.68 36.99 77.62 36.84 77.49C36.69 77.36 36.57 77.2 36.5 76.99C36.43 77.17 36.33 77.32 36.19 77.42C36.05 77.52 35.89 77.58 35.7 77.58C35.39 77.58 35.15 77.48 34.99 77.28C34.83 77.08 34.74 76.82 34.74 76.5C34.74 76.2 34.82 75.95 34.99 75.75C35.16 75.55 35.39 75.46 35.7 75.46ZM37.36 75.84C37.17 75.84 37.01 75.9 36.88 76.03C36.75 76.16 36.69 76.31 36.69 76.5C36.69 76.7 36.75 76.87 36.88 77C37.01 77.13 37.16 77.2 37.36 77.2C37.56 77.2 37.72 77.13 37.84 77C37.96 76.87 38.02 76.7 38.02 76.49C38.02 76.3 37.96 76.15 37.84 76.02C37.72 75.89 37.56 75.83 37.36 75.83V75.84ZM35.7 75.94C35.53 75.94 35.39 75.99 35.28 76.1C35.17 76.21 35.11 76.34 35.11 76.5C35.11 76.67 35.16 76.82 35.27 76.93C35.38 77.04 35.52 77.1 35.7 77.1C35.88 77.1 36.03 77.04 36.14 76.93C36.25 76.82 36.31 76.67 36.31 76.5C36.31 76.34 36.25 76.21 36.14 76.11C36.03 76.01 35.88 75.95 35.7 75.95V75.94Z" fill="#231815"/>
<path d="M36.76 74.68L34.78 74.47V72.69H35.21V74.06L36.23 74.17C36.17 74.09 36.13 74.01 36.09 73.92C36.05 73.83 36.03 73.72 36.03 73.6C36.03 73.27 36.13 73.01 36.34 72.83C36.55 72.65 36.84 72.55 37.2 72.55C37.56 72.55 37.84 72.65 38.06 72.84C38.28 73.03 38.38 73.31 38.38 73.68C38.38 73.98 38.3 74.23 38.13 74.43C37.96 74.63 37.72 74.73 37.4 74.72H37.39V74.28C37.58 74.28 37.73 74.22 37.84 74.11C37.95 74 38 73.85 38 73.68C38 73.48 37.93 73.32 37.79 73.21C37.65 73.1 37.45 73.04 37.2 73.04C36.97 73.04 36.79 73.1 36.65 73.21C36.51 73.32 36.44 73.48 36.44 73.68C36.44 73.87 36.47 74.01 36.53 74.09C36.59 74.17 36.67 74.24 36.79 74.28L36.75 74.68H36.76Z" fill="#231815"/>
<path d="M48.95 36.25L50.7999 35.47L52.66 36.25L50.7999 31.86L48.95 36.25Z" fill="#231815"/>
<path d="M48.95 32.3L50.7999 33.09L52.66 32.3L50.7999 36.69L48.95 32.3Z" fill="#231815"/>
<path d="M53.64 38.9C53.64 39.11 53.69 39.27 53.8 39.36C53.91 39.45 54.06 39.49 54.25 39.49C54.43 39.49 54.57 39.44 54.68 39.34C54.79 39.24 54.84 39.1 54.84 38.91C54.84 38.72 54.78 38.57 54.67 38.45C54.56 38.33 54.41 38.27 54.24 38.27V37.81H54.25C54.52 37.79 54.74 37.9 54.93 38.11C55.12 38.32 55.21 38.59 55.21 38.92C55.21 39.25 55.13 39.51 54.96 39.7C54.79 39.89 54.55 39.98 54.22 39.98C54.05 39.98 53.9 39.94 53.77 39.85C53.64 39.76 53.53 39.64 53.45 39.49C53.38 39.67 53.27 39.81 53.12 39.9C52.97 39.99 52.8 40.04 52.59 40.04C52.26 40.04 52.01 39.94 51.82 39.73C51.63 39.52 51.54 39.26 51.54 38.93C51.54 38.63 51.63 38.36 51.81 38.13C51.99 37.9 52.22 37.79 52.52 37.8H52.53V38.26C52.36 38.26 52.21 38.32 52.09 38.45C51.97 38.58 51.91 38.74 51.91 38.93C51.91 39.12 51.97 39.28 52.09 39.39C52.21 39.5 52.37 39.56 52.56 39.56C52.78 39.56 52.95 39.51 53.06 39.4C53.17 39.29 53.23 39.13 53.23 38.91V38.51H53.6V38.91L53.64 38.9Z" fill="#231815"/>
<path d="M51.62 41.18V40.7H52.11V41.18H51.62Z" fill="#231815"/>
<path d="M52.81 43.82V44.31H52.43V43.82H51.61V43.34H52.43V41.81H52.7L55.16 43.31V43.82H52.8H52.81ZM52.81 42.33V43.34H54.48L54.36 43.28L52.81 42.33Z" fill="#231815"/>
<path d="M56.17 29.7V21.55" stroke="#231815" stroke-width="0.5" stroke-linecap="round" stroke-linejoin="round"/>
<path d="M172.33 29.7V21.55" stroke="#231815" stroke-width="0.5" stroke-linecap="round" stroke-linejoin="round"/>
<path d="M113.89 24.2C113.89 24.39 113.84 24.55 113.73 24.69C113.62 24.83 113.49 24.94 113.31 25.01C113.51 25.08 113.67 25.19 113.8 25.34C113.93 25.49 113.98 25.67 113.98 25.87C113.98 26.2 113.87 26.45 113.66 26.63C113.45 26.81 113.18 26.9 112.85 26.9C112.5 26.9 112.22 26.81 112 26.63C111.78 26.45 111.67 26.2 111.67 25.87C111.67 25.67 111.73 25.49 111.86 25.34C111.99 25.19 112.15 25.07 112.36 25C112.18 24.93 112.03 24.83 111.93 24.69C111.83 24.55 111.77 24.39 111.77 24.2C111.77 23.89 111.87 23.65 112.07 23.49C112.27 23.33 112.53 23.24 112.85 23.24C113.15 23.24 113.4 23.32 113.6 23.49C113.8 23.66 113.89 23.89 113.89 24.2ZM113.5 25.86C113.5 25.67 113.44 25.51 113.31 25.38C113.18 25.25 113.03 25.19 112.84 25.19C112.64 25.19 112.47 25.25 112.34 25.38C112.21 25.51 112.14 25.66 112.14 25.86C112.14 26.06 112.21 26.22 112.34 26.34C112.47 26.46 112.64 26.52 112.85 26.52C113.04 26.52 113.19 26.46 113.32 26.34C113.45 26.22 113.51 26.06 113.51 25.86H113.5ZM113.4 24.21C113.4 24.04 113.35 23.9 113.24 23.79C113.13 23.68 113 23.62 112.84 23.62C112.67 23.62 112.52 23.67 112.41 23.78C112.3 23.89 112.24 24.03 112.24 24.21C112.24 24.39 112.3 24.54 112.41 24.65C112.52 24.76 112.67 24.82 112.84 24.82C113 24.82 113.13 24.76 113.23 24.65C113.33 24.54 113.39 24.39 113.39 24.21H113.4Z" fill="#231815"/>
<path d="M116.81 26.84H114.6V26.51L115.72 25.18C115.92 24.94 116.05 24.75 116.12 24.61C116.19 24.47 116.23 24.32 116.23 24.18C116.23 24.02 116.18 23.88 116.09 23.78C116 23.68 115.86 23.62 115.69 23.62C115.48 23.62 115.32 23.68 115.21 23.81C115.1 23.94 115.05 24.1 115.05 24.29H114.58C114.58 23.99 114.67 23.74 114.87 23.54C115.07 23.34 115.35 23.24 115.69 23.24C116.01 23.24 116.26 23.33 116.44 23.5C116.62 23.67 116.71 23.9 116.71 24.18C116.71 24.37 116.66 24.55 116.55 24.73C116.44 24.91 116.29 25.13 116.08 25.4L115.18 26.45L116.8 26.46V26.84H116.81Z" fill="#231815"/>
<path d="M106.18 109.15H46.73" stroke="#231815" stroke-width="0.5" stroke-linecap="round" stroke-linejoin="round"/>
<path d="M47.62 109.15L48.72 110.95L48.66 110.99L45.72 109.82C44.7 109.59 43.67 109.37 42.65 109.14C43.67 108.91 44.7 108.69 45.72 108.46L48.66 107.29L48.72 107.32L47.62 109.13V109.15Z" fill="#231815"/>
<path d="M121.71 109.07H181.79" stroke="#231815" stroke-width="0.5" stroke-linecap="round" stroke-linejoin="round"/>
<path d="M180.89 109.07L179.79 107.27L179.85 107.23L182.79 108.4C183.81 108.63 184.84 108.85 185.86 109.08C184.84 109.31 183.81 109.53 182.79 109.76L179.85 110.93L179.79 110.9L180.89 109.09V109.07Z" fill="#231815"/>
<path d="M109.32 110.59H108.84V107.48H108.07V107.12L109.33 106.99V110.6L109.32 110.59Z" fill="#231815"/>
<path d="M112.94 109.34C112.94 109.74 112.84 110.06 112.63 110.29C112.42 110.52 112.15 110.64 111.81 110.64C111.47 110.64 111.19 110.52 110.99 110.29C110.79 110.06 110.68 109.74 110.68 109.34V108.3C110.68 107.9 110.78 107.58 110.99 107.35C111.2 107.12 111.47 107 111.81 107C112.15 107 112.43 107.12 112.64 107.35C112.85 107.58 112.95 107.9 112.95 108.3V109.34H112.94ZM112.46 108.19C112.46 107.93 112.4 107.73 112.29 107.58C112.18 107.43 112.01 107.36 111.81 107.36C111.61 107.36 111.44 107.43 111.33 107.58C111.22 107.73 111.16 107.93 111.16 108.19V109.43C111.16 109.69 111.22 109.89 111.33 110.04C111.44 110.19 111.6 110.26 111.81 110.26C112.02 110.26 112.18 110.19 112.29 110.04C112.4 109.89 112.46 109.69 112.46 109.43V108.19Z" fill="#231815"/>
<path d="M114.95 110.59H114.47V107.48H113.7V107.12L114.96 106.99V110.6L114.95 110.59Z" fill="#231815"/>
<path d="M116.91 110.59H116.43V110.1H116.91V110.59Z" fill="#231815"/>
<path d="M119.55 109.4H120.04V109.78H119.55V110.6H119.07V109.78H117.54V109.51L119.04 107.05H119.55V109.41V109.4ZM118.06 109.4H119.07V107.73H119.06L119.01 107.85L118.06 109.4Z" fill="#231815"/>
<path d="M204.05 230.68V232.1" stroke="#231815" stroke-width="0.57" stroke-linecap="round" stroke-linejoin="bevel"/>
<path d="M204.05 233.69V236.09" stroke="#231815" stroke-width="0.57" stroke-linecap="round" stroke-linejoin="bevel" stroke-dasharray="1.59 1.59"/>
<path d="M204.05 236.88V238.3" stroke="#231815" stroke-width="0.57" stroke-linecap="round" stroke-linejoin="bevel"/>
<path d="M204.05 238.3H202.64" stroke="#231815" stroke-width="0.57" stroke-linecap="round" stroke-linejoin="bevel"/>
<path d="M199.45 238.3H198.03" stroke="#231815" stroke-width="0.57" stroke-linecap="round" stroke-linejoin="bevel"/>
<path d="M204.01 230.68C203.78 231.15 203.09 232.4 201.6 233.25C200.14 234.08 198.75 234.05 198.23 234.01" stroke="#231815" stroke-width="0.57" stroke-linecap="round" stroke-linejoin="bevel"/>
<path d="M198.17 234.05C198.86 235.28 199.02 236.71 198.61 237.6C198.52 237.79 198.35 238.07 198.03 238.29" stroke="#231815" stroke-width="0.57" stroke-linecap="round" stroke-linejoin="bevel"/>
<path d="M204.03 230.73C203.72 231.83 203.02 233.73 201.42 235.58C200.22 236.96 198.94 237.81 198.05 238.31" stroke="#231815" stroke-width="0.57"/>
<path d="M191.22 236.14V234.71H191.76C191.86 234.71 191.93 234.71 191.98 234.72C192.05 234.73 192.11 234.75 192.16 234.79C192.21 234.82 192.25 234.87 192.27 234.93C192.3 234.99 192.31 235.05 192.31 235.13C192.31 235.25 192.27 235.35 192.19 235.44C192.11 235.52 191.97 235.57 191.77 235.57H191.4V236.15H191.21L191.22 236.14ZM191.41 235.39H191.78C191.9 235.39 191.99 235.37 192.04 235.32C192.09 235.27 192.12 235.21 192.12 235.13C192.12 235.07 192.1 235.02 192.07 234.98C192.04 234.94 192 234.91 191.95 234.9C191.92 234.9 191.86 234.89 191.77 234.89H191.4V235.4L191.41 235.39Z" fill="#231815"/>
<path d="M192.56 236.14V234.71H193.6V234.88H192.75V235.32H193.54V235.49H192.75V235.98H193.63V236.15H192.56V236.14Z" fill="#231815"/>
<path d="M193.89 236.14V234.71H194.93V234.88H194.08V235.32H194.87V235.49H194.08V235.98H194.96V236.15H193.89V236.14Z" fill="#231815"/>
<path d="M195.21 236.14V234.71H195.4V235.97H196.11V236.14H195.22H195.21Z" fill="#231815"/>
<path d="M191.23 238.54V237.11H191.42V237.7H192.16V237.11H192.35V238.54H192.16V237.87H191.42V238.54H191.23Z" fill="#231815"/>
<path d="M192.67 238.54V237.11H193.71V237.28H192.86V237.72H193.65V237.89H192.86V238.38H193.74V238.55H192.67V238.54Z" fill="#231815"/>
<path d="M194 238.54V237.11H194.63C194.76 237.11 194.85 237.12 194.92 237.15C194.99 237.18 195.04 237.22 195.08 237.29C195.12 237.35 195.14 237.43 195.14 237.51C195.14 237.61 195.11 237.7 195.04 237.77C194.97 237.84 194.87 237.88 194.74 237.9C194.79 237.92 194.83 237.95 194.85 237.97C194.91 238.02 194.96 238.08 195.01 238.16L195.26 238.55H195.02L194.83 238.25C194.77 238.16 194.73 238.1 194.69 238.05C194.65 238 194.62 237.97 194.59 237.95C194.56 237.93 194.53 237.92 194.5 237.91C194.48 237.91 194.44 237.91 194.39 237.91H194.17V238.55H193.98L194 238.54ZM194.19 237.74H194.6C194.69 237.74 194.75 237.74 194.8 237.71C194.85 237.69 194.89 237.66 194.91 237.62C194.94 237.58 194.95 237.54 194.95 237.49C194.95 237.42 194.93 237.37 194.88 237.32C194.83 237.28 194.75 237.25 194.65 237.25H194.2V237.72L194.19 237.74Z" fill="#231815"/>
<path d="M195.45 238.54V237.11H196.49V237.28H195.64V237.72H196.43V237.89H195.64V238.38H196.52V238.55H195.45V238.54Z" fill="#231815"/>
<path d="M181.1 236.5H179.3V238.39H178.72V234.12H181.39V234.57H179.29V236.04H181.09V236.49L181.1 236.5Z" fill="#231815"/>
<path d="M184.31 237.31C184.31 237.12 184.24 236.95 184.1 236.82C183.96 236.69 183.72 236.58 183.37 236.49C182.94 236.38 182.6 236.22 182.35 236.02C182.1 235.82 181.99 235.55 181.99 235.23C181.99 234.9 182.12 234.62 182.38 234.4C182.64 234.18 182.98 234.07 183.4 234.07C183.85 234.07 184.21 234.2 184.47 234.45C184.73 234.7 184.87 235 184.86 235.34V235.36H184.3C184.3 235.12 184.22 234.92 184.05 234.76C183.88 234.6 183.66 234.52 183.4 234.52C183.14 234.52 182.92 234.59 182.78 234.72C182.64 234.85 182.56 235.02 182.56 235.23C182.56 235.42 182.64 235.57 182.8 235.69C182.96 235.81 183.21 235.92 183.57 236.02C184 236.13 184.33 236.3 184.55 236.51C184.77 236.72 184.89 236.99 184.89 237.31C184.89 237.65 184.75 237.93 184.48 238.14C184.21 238.35 183.86 238.45 183.42 238.45C183.01 238.45 182.64 238.33 182.33 238.1C182.02 237.87 181.86 237.56 181.87 237.17V237.15H182.43C182.43 237.42 182.53 237.62 182.73 237.77C182.93 237.92 183.16 237.99 183.42 237.99C183.69 237.99 183.91 237.93 184.07 237.81C184.23 237.69 184.31 237.52 184.31 237.31Z" fill="#231815"/>
<path d="M188.39 238.39H185.74V237.99L187.08 236.39C187.32 236.1 187.48 235.87 187.56 235.7C187.64 235.53 187.69 235.36 187.69 235.18C187.69 234.98 187.63 234.82 187.52 234.7C187.41 234.58 187.25 234.51 187.04 234.51C186.79 234.51 186.6 234.59 186.46 234.74C186.32 234.89 186.26 235.09 186.26 235.32H185.7V235.3C185.68 234.95 185.8 234.66 186.04 234.42C186.28 234.18 186.61 234.06 187.03 234.06C187.41 234.06 187.71 234.17 187.93 234.38C188.15 234.59 188.26 234.86 188.26 235.2C188.26 235.42 188.2 235.64 188.07 235.86C187.94 236.08 187.76 236.34 187.5 236.67L186.42 237.93L188.36 237.94V238.39H188.39Z" fill="#231815"/>
</g>
<defs>
<clipPath id="clip0_482_9858">
<rect width="228.57" height="260.51" fill="white"/>
</clipPath>
</defs>
</svg>
