<svg xmlns="http://www.w3.org/2000/svg" width="99" height="150" fill="none" viewBox="0 0 99 150"><path fill="#fff" d="M99 0H0v150h99z"/><path stroke="gray" stroke-miterlimit="2" stroke-width=".5" d="M7.615 124.022h1.153M89.816 124.022h1.152M45.84 142.007v-1.154M52.744 142.007v-1.154M19.125 8.136V9.29M8.768 18.05H7.615M79.454 9.29V8.136M90.968 18.05h-1.152M21.029 27.275c0 .503-.229.981-.615 1.296-.386.32-.893.448-1.386.346M80.896 27.275a1.67 1.67 0 1 0-3.34 0 1.67 1.67 0 1 0 3.34 0ZM80.896 119.522a1.67 1.67 0 1 0-3.34 0 1.67 1.67 0 1 0 3.34 0Z"/><path stroke="gray" stroke-miterlimit="2" stroke-width=".5" d="M21.029 27.275a1.67 1.67 0 1 0-3.341 0 1.67 1.67 0 1 0 3.34 0ZM21.029 119.522a1.67 1.67 0 1 0-3.341 0 1.67 1.67 0 1 0 3.34 0Z"/><path stroke="#000" stroke-miterlimit="2" d="m17.495 11.476-7.58 5.42M54.47 142.007H44.108"/><path stroke="#000" stroke-miterlimit="2" stroke-width=".5" d="M44.108 140.853H54.47"/><path stroke="#000" stroke-linecap="round" stroke-miterlimit="2" d="m9.915 125.171 10.748 7.693M24.014 133.937h20.094"/><path stroke="#000" stroke-miterlimit="2" d="M54.47 133.937h20.1M7.615 125.171V16.897"/><path stroke="#000" stroke-miterlimit="2" stroke-width=".5" d="M8.768 125.171V16.897"/><path stroke="#000" stroke-linecap="round" stroke-miterlimit="2" d="M7.615 125.171h2.3M88.664 125.171h2.305"/><path stroke="#000" stroke-miterlimit="2" d="M17.977 10.54V8.137"/><path stroke="#000" stroke-linecap="round" stroke-miterlimit="2" stroke-width=".5" d="M26.263 9.29v1.729"/><path stroke="#000" stroke-miterlimit="2" stroke-width=".5" d="M30.873 100.266V53.451M64.604 103.378H33.98"/><path stroke="#000" stroke-linecap="round" stroke-miterlimit="2" stroke-width=".5" d="M37.777 11.019v-1.73"/><path stroke="#000" stroke-linecap="round" stroke-miterlimit="2" d="M44.108 142.007v-8.07"/><path stroke="#000" stroke-miterlimit="2" stroke-width=".5" d="M46.703 120.676v-9.223"/><path stroke="gray" stroke-miterlimit="2" stroke-width=".5" d="M73.814 83.415h3.452M73.814 82.998h3.452"/><path stroke="#000" stroke-miterlimit="2" stroke-width=".5" d="M51.88 111.453v9.223"/><path stroke="#000" stroke-linecap="round" stroke-miterlimit="2" d="M54.47 142.007v-8.07"/><path stroke="gray" stroke-miterlimit="2" stroke-width=".5" d="M77.266 81.239h-3.453M77.266 80.405h-3.453M77.266 80.232h-3.453M77.266 79.393h-3.453M77.266 77.639h-3.453M77.266 77.217h-3.453"/><path stroke="#000" stroke-linecap="round" stroke-miterlimit="2" stroke-width=".5" d="M60.806 9.29v1.729"/><path stroke="#000" stroke-miterlimit="2" stroke-width=".5" d="M67.71 53.45v46.816"/><path stroke="gray" stroke-miterlimit="2" stroke-width=".5" d="M72.087 83.486v-6.34"/><path stroke="#000" stroke-linecap="round" stroke-miterlimit="2" stroke-width=".5" d="M72.315 11.019v-1.73"/><path stroke="gray" stroke-miterlimit="2" stroke-width=".5" d="M73.814 83.486v-6.34M77.266 83.486v-6.34M78.997 77.146v6.34"/><path stroke="#000" stroke-linecap="round" stroke-miterlimit="2" d="M80.606 10.54V8.137"/><path stroke="#000" stroke-miterlimit="2" stroke-width=".5" d="M33.98 50.339h30.624M89.816 125.171V16.897"/><path stroke="#000" stroke-linecap="round" stroke-miterlimit="2" d="M90.968 125.171V16.897M77.916 132.864l10.747-7.693"/><path stroke="#000" stroke-miterlimit="2" stroke-width=".5" d="M53.897 24.107h-9.21M44.687 18.915h9.21"/><path stroke="#000" stroke-linecap="round" stroke-miterlimit="2" d="M7.615 16.897h2.3M88.664 16.897h2.305"/><path stroke="#000" stroke-miterlimit="2" stroke-width=".5" d="M72.316 11.019h-11.51M37.777 11.019H26.263M17.977 9.29h62.629"/><path stroke="#000" stroke-linecap="round" stroke-miterlimit="2" d="M17.977 8.136h62.629"/><path stroke="#000" stroke-miterlimit="2" d="m88.663 16.897-7.575-5.42M74.57 133.937a5.76 5.76 0 0 0 3.346-1.073M20.663 132.864a5.76 5.76 0 0 0 3.346 1.073"/><path stroke="#000" stroke-miterlimit="2" stroke-width=".5" d="M33.98 50.339a3.11 3.11 0 0 0-3.107 3.112M67.711 53.45a3.11 3.11 0 0 0-3.107-3.111M64.604 103.378a3.11 3.11 0 0 0 3.107-3.112M30.873 100.266a3.11 3.11 0 0 0 3.107 3.112M49.292 108.854a2.59 2.59 0 0 0-2.59 2.593m5.18.006a2.59 2.59 0 0 0-2.59-2.594M51.881 120.676a2.589 2.589 0 1 1-5.178 0M42.098 21.514a2.59 2.59 0 0 0 2.589 2.593m0-5.192a2.59 2.59 0 0 0-2.59 2.593M53.897 18.915c1.431 0 2.589 1.16 2.589 2.593m0 .006a2.59 2.59 0 0 1-2.59 2.593"/><path stroke="#000" stroke-miterlimit="2" d="M80.606 10.54c0 .372.178.723.483.941M17.495 11.476a1.15 1.15 0 0 0 .482-.94"/><path stroke="gray" stroke-miterlimit="2" stroke-width=".5" d="M72.087 77.146a.863.863 0 1 1 1.726 0M72.95 84.356a.863.863 0 0 0 .863-.864m-1.726-.005c0 .477.386.864.863.864M78.134 84.356a.863.863 0 0 0 .863-.864m-1.731-.005c0 .477.385.864.863.864M77.27 77.146a.863.863 0 1 1 1.727 0"/></svg>