<svg xmlns="http://www.w3.org/2000/svg" width="66" height="200" fill="none" viewBox="0 0 66 200"><g clip-path="url(#a)"><path fill="#fff" d="M66 0H0v200h66z"/><path stroke="#9fa0a0" stroke-linecap="round" stroke-linejoin="round" stroke-width=".5" d="M51.075 67.189h-5.128M45.947 64.997h5.128M20.299 67.189h-5.128M15.17 64.997H20.3"/><path stroke="#231815" stroke-linecap="round" stroke-linejoin="round" d="M37.74 194.683h-9.233M13.886 185.719h14.621M37.74 185.719h14.616M8.86 167.388h2.974M54.409 167.388h2.974M8.86 167.388V22.771M11.835 167.388v16.297"/><path stroke="#9fa0a0" stroke-linecap="round" stroke-linejoin="round" stroke-width=".5" d="M13.63 57.909v9.675M15.17 67.584v-5.016"/><path stroke="#231815" stroke-linecap="round" stroke-linejoin="round" stroke-width=".5" d="M16.644 101.191V78.786"/><path stroke="#231815" stroke-linecap="round" stroke-linejoin="round" d="M16.709 22.771V11.06"/><path stroke="#9fa0a0" stroke-linecap="round" stroke-linejoin="round" stroke-width=".5" d="M20.3 67.584v-5.016M21.837 67.584V57.91"/><path stroke="#231815" stroke-linecap="round" stroke-linejoin="round" d="M28.507 194.683v-8.964"/><path stroke="#231815" stroke-linecap="round" stroke-linejoin="round" stroke-width=".5" d="M30.816 151.4v-10.185M35.43 141.215V151.4"/><path stroke="#231815" stroke-linecap="round" stroke-linejoin="round" d="M37.74 194.683v-8.964"/><path stroke="#231815" stroke-linecap="round" stroke-linejoin="round" stroke-width=".5" d="M47.42 103.228H18.696"/><path stroke="#9fa0a0" stroke-linecap="round" stroke-linejoin="round" stroke-width=".5" d="M44.406 57.909v9.675M45.947 67.584v-5.016"/><path stroke="#231815" stroke-linecap="round" stroke-linejoin="round" stroke-width=".5" d="M49.472 78.786v22.405"/><path stroke="#231815" stroke-linecap="round" stroke-linejoin="round" d="M49.537 22.771V11.06"/><path stroke="#9fa0a0" stroke-linecap="round" stroke-linejoin="round" stroke-width=".5" d="M51.075 67.584v-5.016M52.613 67.584V57.91"/><path stroke="#231815" stroke-linecap="round" stroke-linejoin="round" d="M54.409 183.685v-16.297M57.383 167.388V22.771"/><path stroke="#231815" stroke-linecap="round" stroke-linejoin="round" stroke-width=".5" d="M18.696 76.75H47.42"/><path stroke="#9fa0a0" stroke-linecap="round" stroke-linejoin="round" stroke-width=".5" d="M13.63 67.584h1.541M20.3 67.584h1.537M44.406 67.584h1.541M51.075 67.584h1.538"/><path stroke="#231815" stroke-linecap="round" stroke-linejoin="round" stroke-width=".5" d="M38.253 63.765h-10.26"/><path stroke="#9fa0a0" stroke-linecap="round" stroke-linejoin="round" stroke-width=".5" d="M50.562 62.058h-4.104M19.786 62.058h-4.104"/><path stroke="#231815" stroke-linecap="round" stroke-linejoin="round" stroke-width=".5" d="M27.993 59.18h10.26"/><path stroke="#9fa0a0" stroke-linecap="round" stroke-linejoin="round" stroke-width=".5" d="M51.075 56.378h-5.128M20.299 56.378h-5.128"/><path stroke="#231815" stroke-linecap="round" stroke-linejoin="round" d="M16.709 22.771h-7.85M49.537 22.771h7.846M16.709 11.059h32.828"/><path stroke="#231815" stroke-linecap="round" stroke-linejoin="round" stroke-width=".5" d="M16.644 101.191c0 1.125.92 2.037 2.052 2.037"/><path stroke="#231815" stroke-linecap="round" stroke-linejoin="round" d="M11.835 183.685c0 1.125.919 2.037 2.051 2.037"/><path stroke="#231815" stroke-linecap="round" stroke-linejoin="round" stroke-width=".5" d="M27.994 59.18a2.3 2.3 0 0 0-2.31 2.293 2.3 2.3 0 0 0 2.31 2.292M18.696 76.75a2.045 2.045 0 0 0-2.052 2.036"/><path stroke="#9fa0a0" stroke-linecap="round" stroke-linejoin="round" stroke-width=".5" d="M15.17 56.378c-.85 0-1.537.683-1.537 1.527M21.837 57.909c0-.845-.687-1.527-1.538-1.527M20.3 62.569c0-.28-.229-.51-.515-.51M15.681 62.058a.51.51 0 0 0-.513.51"/><path stroke="#231815" stroke-linecap="round" stroke-linejoin="round" stroke-width=".5" d="M30.816 151.4a2.296 2.296 0 0 0 2.305 2.289 2.296 2.296 0 0 0 2.305-2.289M35.43 141.215a2.296 2.296 0 0 0-2.305-2.289 2.296 2.296 0 0 0-2.305 2.289M47.42 103.228a2.045 2.045 0 0 0 2.052-2.037"/><path stroke="#231815" stroke-linecap="round" stroke-linejoin="round" d="M52.356 185.719a2.045 2.045 0 0 0 2.052-2.037"/><path stroke="#231815" stroke-linecap="round" stroke-linejoin="round" stroke-width=".5" d="M38.253 63.765a2.3 2.3 0 0 0 2.31-2.292 2.3 2.3 0 0 0-2.31-2.292M49.472 78.786c0-1.124-.919-2.037-2.052-2.037"/><path stroke="#9fa0a0" stroke-linecap="round" stroke-linejoin="round" stroke-width=".5" d="M45.947 56.378c-.85 0-1.538.683-1.538 1.527M52.613 57.909c0-.845-.687-1.527-1.538-1.527M46.458 62.058a.51.51 0 0 0-.514.51M51.075 62.569c0-.28-.228-.51-.514-.51"/><path stroke="#231815" stroke-linecap="round" stroke-linejoin="round" stroke-width=".5" d="M15.939 167.388c0-.984.803-1.782 1.794-1.782.992 0 1.796.798 1.796 1.782 0 .985-.804 1.782-1.796 1.782a1.79 1.79 0 0 1-1.795-1.782M15.939 40.085c0-.985.803-1.782 1.794-1.782.992 0 1.796.797 1.796 1.782 0 .984-.804 1.782-1.796 1.782a1.79 1.79 0 0 1-1.795-1.782M46.714 167.388c0-.984.804-1.782 1.795-1.782.992 0 1.795.798 1.795 1.782 0 .985-.803 1.782-1.795 1.782a1.79 1.79 0 0 1-1.795-1.782M46.714 40.085c0-.985.804-1.782 1.795-1.782.992 0 1.795.797 1.795 1.782 0 .984-.803 1.782-1.795 1.782a1.79 1.79 0 0 1-1.795-1.782"/><path stroke="#231815" stroke-linecap="round" stroke-linejoin="bevel" stroke-width=".43" d="M58.755 189.153v.511"/><path stroke="#231815" stroke-dasharray="1.58 1.58" stroke-linecap="round" stroke-linejoin="bevel" stroke-width=".43" d="M58.755 190.231v.848"/><path stroke="#231815" stroke-linecap="round" stroke-linejoin="bevel" stroke-width=".43" d="M58.755 191.363v.51M58.755 191.873h-.51"/><path stroke="#231815" stroke-dasharray="1.68 1.68" stroke-linecap="round" stroke-linejoin="bevel" stroke-width=".43" d="M57.637 191.873h-.912"/><path stroke="#231815" stroke-linecap="round" stroke-linejoin="bevel" stroke-width=".43" d="M56.42 191.873h-.513M58.737 189.153c-.109.169-.434.615-1.14.917a3.65 3.65 0 0 1-1.596.269M55.976 190.357c.325.438.405.949.206 1.268a.7.7 0 0 1-.275.248"/><path stroke="#231815" stroke-width=".43" d="M58.748 189.168c-.149.391-.474 1.071-1.238 1.732a6 6 0 0 1-1.596.973"/><path fill="#231815" d="M50.981 190.149v-1.028h.391c.07 0 .12 0 .16.011q.077.012.126.047a.3.3 0 0 1 .083.1q.033.065.033.14a.33.33 0 0 1-.083.223c-.058.061-.156.09-.304.09h-.264v.417h-.142m.138-.539h.268q.135 0 .188-.051a.17.17 0 0 0 .054-.136.2.2 0 0 0-.032-.111.15.15 0 0 0-.087-.062.5.5 0 0 0-.127-.01h-.264v.37M51.948 190.149v-1.028h.749v.122h-.612v.316h.572v.123h-.572v.348h.637v.122h-.774zM52.914 190.149v-1.028h.75v.122h-.612v.316h.571v.123h-.571v.348h.636v.122h-.774zM53.873 190.149v-1.028h.138v.909h.51v.122h-.648zM50.985 191.873v-1.027h.137v.424h.54v-.424h.137v1.027h-.137v-.485h-.54v.485zM52.027 191.873v-1.027h.75v.122h-.612v.316h.572v.122h-.572v.349h.637v.122h-.775zM52.994 191.873v-1.027h.46q.137 0 .21.028a.24.24 0 0 1 .115.097.3.3 0 0 1 .043.155.26.26 0 0 1-.072.183.36.36 0 0 1-.22.097.5.5 0 0 1 .082.05q.062.055.113.137l.18.28h-.173l-.138-.215a2 2 0 0 0-.097-.141.3.3 0 0 0-.07-.068.3.3 0 0 0-.06-.029q-.022-.001-.077-.003h-.159v.456zm.137-.575h.293a.5.5 0 0 0 .149-.018.15.15 0 0 0 .08-.061.2.2 0 0 0 .028-.093q0-.075-.054-.119c-.036-.032-.09-.046-.17-.046h-.33v.341zM54.04 191.873v-1.027h.749v.122h-.612v.316h.572v.122h-.572v.349h.637v.122h-.774z"/><path stroke="#000" stroke-linecap="round" stroke-linejoin="round" stroke-width=".5" d="M25.134 193.217v-6.032"/><path fill="#000" d="m25.134 192.897-.651-.395-.015.021.424 1.057q.123.55.246 1.103.123-.552.246-1.103l.423-1.057-.01-.021-.656.395zM25.134 187.508l-.651.395-.015-.021.424-1.057q.123-.55.246-1.103.123.552.246 1.103l.423 1.057-.01.021-.656-.395z"/><path stroke="#000" stroke-linecap="round" stroke-linejoin="round" stroke-width=".5" d="M27.371 194.683H11.578"/><path fill="#231815" d="M22.456 191.025q.201-.001.355.112a.7.7 0 0 1 .228.298.74.74 0 0 1 .242-.349.6.6 0 0 1 .384-.133q.354 0 .55.23.195.233.195.582 0 .378-.195.615-.193.237-.55.237a.6.6 0 0 1-.384-.133.8.8 0 0 1-.242-.363.7.7 0 0 1-.228.309.6.6 0 0 1-.355.115q-.337 0-.517-.216-.179-.215-.178-.56.001-.327.181-.535.179-.21.514-.209m.007.345a.43.43 0 0 0-.304.115.38.38 0 0 0-.12.284c0 .126.04.226.117.309a.42.42 0 0 0 .31.122q.195.001.32-.122a.42.42 0 0 0 .122-.309.37.37 0 0 0-.123-.284.45.45 0 0 0-.318-.115zm1.195-.072a.473.473 0 0 0-.485.471.484.484 0 0 0 .485.503c.14 0 .26-.047.347-.14a.52.52 0 0 0 .13-.363.46.46 0 0 0-.13-.334.46.46 0 0 0-.347-.133zM24.374 190.145v.345h-.358v-.345zM22.456 188.04q.201 0 .355.111a.7.7 0 0 1 .228.298.74.74 0 0 1 .242-.348.6.6 0 0 1 .384-.133q.354-.001.55.23a.87.87 0 0 1 .195.582q0 .377-.195.614-.193.237-.55.237a.6.6 0 0 1-.384-.133.8.8 0 0 1-.242-.363.7.7 0 0 1-.228.309.58.58 0 0 1-.355.115q-.337 0-.517-.215-.179-.216-.178-.561.001-.327.181-.535.179-.209.514-.208m.007.345a.43.43 0 0 0-.304.114.38.38 0 0 0-.12.284q0 .188.117.309a.42.42 0 0 0 .31.122q.195.001.32-.122a.42.42 0 0 0 .122-.309.37.37 0 0 0-.123-.284.45.45 0 0 0-.318-.114zm1.195-.072a.47.47 0 0 0-.348.136.45.45 0 0 0-.137.334q-.002.217.137.36.136.141.348.143c.14 0 .26-.046.347-.14a.5.5 0 0 0 .13-.363.46.46 0 0 0-.13-.334.46.46 0 0 0-.347-.133z"/><path stroke="#000" stroke-linecap="round" stroke-linejoin="round" stroke-width=".5" d="M29.98 187.429h6.283"/><path fill="#000" d="m30.306 187.429.398-.647-.022-.014-1.064.42q-.555.123-1.11.244c.369.083.741.162 1.11.245l1.064.42.022-.011-.398-.65zM35.94 187.429l-.398-.647.022-.014 1.064.42q.556.123 1.111.244c-.369.083-.742.162-1.11.245l-1.065.42-.022-.011.399-.65z"/><path stroke="#000" stroke-linecap="round" stroke-linejoin="round" stroke-width=".5" d="M53.146 21.158v-8.634"/><path fill="#000" d="m53.145 20.835-.651-.396-.014.022.423 1.056q.123.552.246 1.103.123-.55.246-1.103l.423-1.056-.01-.021-.655.395zM53.145 12.848l-.651.395-.014-.021.423-1.057q.123-.55.246-1.103.123.552.246 1.103l.423 1.057-.01.021-.655-.395z"/><path fill="#231815" d="M33.983 184.702a.57.57 0 0 1-.113.352.7.7 0 0 1-.3.226.75.75 0 0 1 .351.241.6.6 0 0 1 .134.381q.001.351-.232.546a.9.9 0 0 1-.586.194q-.38 0-.619-.194-.239-.192-.239-.546 0-.215.134-.381a.8.8 0 0 1 .366-.241.7.7 0 0 1-.311-.226.57.57 0 0 1-.116-.352q0-.335.217-.514.217-.176.565-.176.329 0 .539.18c.14.118.21.291.21.51m-.275 1.193a.47.47 0 0 0-.474-.482.5.5 0 0 0-.362.137.46.46 0 0 0-.145.345c0 .14.047.258.141.345a.52.52 0 0 0 .365.129.47.47 0 0 0 .337-.129.46.46 0 0 0 .134-.345zm-.073-1.19a.42.42 0 0 0-.116-.301.38.38 0 0 0-.285-.119.45.45 0 0 0-.312.115.4.4 0 0 0-.123.309q0 .193.123.316a.42.42 0 0 0 .312.122q.173.001.285-.122a.44.44 0 0 0 .116-.316zM39.455 191.873v-3.064h1.006q.484-.001.756.208.273.209.275.621 0 .2-.123.356a.8.8 0 0 1-.326.241.73.73 0 0 1 .482.262c.12.147.177.316.177.517q.001.422-.275.644-.278.221-.746.222h-1.223zm.42-1.76h.676a.57.57 0 0 0 .38-.126c.098-.083.145-.205.145-.356 0-.165-.054-.291-.16-.37q-.156-.12-.455-.122h-.59v.977zm0 .323v1.114h.806q.288 0 .446-.14a.5.5 0 0 0 .159-.396.54.54 0 0 0-.163-.409.64.64 0 0 0-.434-.165h-.811zM42.632 191.55h1.506v.323h-1.922v-3.064h.416zM46.939 191.873h-.416l-1.488-2.342h-.014v2.342h-.416v-3.064h.416l1.487 2.338h.015v-2.338h.416zM49.537 191.873H47.62v-.284l.97-1.146q.26-.312.351-.496a.8.8 0 0 0 .09-.37.5.5 0 0 0-.126-.348.45.45 0 0 0-.348-.137c-.18 0-.322.054-.416.166a.62.62 0 0 0-.145.413h-.401v-.015a.8.8 0 0 1 .25-.635c.177-.177.412-.259.712-.259q.413 0 .652.226.239.228.239.586 0 .242-.134.474-.136.233-.41.582l-.777.905v.011h1.411v.327M22.68 6.895h-.51v1.368h-.21V6.895h-.503v-.162h1.22v.162zM23.079 7.28a.45.45 0 0 1 .145-.13.4.4 0 0 1 .191-.047q.184 0 .286.108.103.11.102.338v.714h-.21V7.55q-.001-.143-.062-.209a.24.24 0 0 0-.18-.068.34.34 0 0 0-.164.036.3.3 0 0 0-.112.1v.855h-.21V6.622h.21v.657zM24.58 8.289a.5.5 0 0 1-.386-.158.6.6 0 0 1-.138-.414v-.046a.6.6 0 0 1 .141-.406.44.44 0 0 1 .348-.162q.229 0 .343.144c.076.097.116.219.116.377v.108h-.738a.5.5 0 0 0 .076.284q.077.107.232.107.108 0 .184-.028a.4.4 0 0 0 .138-.083l.083.137a.5.5 0 0 1-.163.1.6.6 0 0 1-.242.04zm-.032-1.02a.23.23 0 0 0-.18.082.4.4 0 0 0-.087.215l.517.004v-.018a.34.34 0 0 0-.061-.205q-.062-.082-.189-.082zM26.072 6.852v.273h.217v.154h-.217v.69q0 .08.032.111.033.033.087.033.018.001.04-.004c.014-.004.029-.007.036-.01l.03.143s-.04.022-.07.032a.3.3 0 0 1-.09.011.28.28 0 0 1-.203-.075q-.075-.075-.076-.241v-.69h-.18v-.154h.18v-.273h.214M26.463 7.685c0-.169.047-.305.137-.417a.46.46 0 0 1 .373-.165c.155 0 .286.054.376.162a.6.6 0 0 1 .138.416v.022a.63.63 0 0 1-.138.417.47.47 0 0 1-.376.161.47.47 0 0 1-.377-.161.63.63 0 0 1-.137-.417v-.022zm.21.025q0 .182.076.298.075.12.228.119c.1 0 .173-.04.227-.119a.5.5 0 0 0 .076-.298V7.69a.5.5 0 0 0-.08-.299.25.25 0 0 0-.227-.118.25.25 0 0 0-.224.118.55.55 0 0 0-.076.299zM27.972 8.267h-.21V6.625h.21zM28.768 8.289a.5.5 0 0 1-.387-.158.6.6 0 0 1-.138-.414v-.046a.6.6 0 0 1 .141-.406.44.44 0 0 1 .348-.162q.229 0 .344.144c.075.097.115.219.115.377v.108h-.738a.5.5 0 0 0 .076.284q.077.107.232.107.108 0 .184-.028a.4.4 0 0 0 .138-.083l.083.137a.5.5 0 0 1-.163.1.6.6 0 0 1-.242.04zm-.033-1.02a.23.23 0 0 0-.18.082.4.4 0 0 0-.087.215l.517.004v-.018a.34.34 0 0 0-.061-.205q-.061-.082-.189-.082zM29.973 7.311l-.108-.007a.24.24 0 0 0-.138.04.2.2 0 0 0-.087.108v.812h-.21v-1.14h.188l.022.166a.4.4 0 0 1 .12-.137.28.28 0 0 1 .21-.046q.02.003.036.007l-.03.194zM30.896 8.267q-.014-.053-.015-.09a1 1 0 0 1-.007-.079q-.06.081-.152.137a.4.4 0 0 1-.203.054q-.18 0-.271-.09a.34.34 0 0 1-.094-.252.29.29 0 0 1 .134-.255.63.63 0 0 1 .362-.093h.228v-.112a.2.2 0 0 0-.062-.158q-.06-.059-.174-.057a.25.25 0 0 0-.162.05.16.16 0 0 0-.062.122h-.199v-.003q-.008-.124.116-.227a.5.5 0 0 1 .322-.104q.195 0 .315.097.12.1.12.284v.55q-.001.06.006.118c.008.04.011.076.022.112h-.213zm-.348-.154a.37.37 0 0 0 .207-.058.28.28 0 0 0 .119-.133v-.187h-.235a.3.3 0 0 0-.203.065q-.076.063-.076.147 0 .075.047.119.05.043.141.043zM31.573 7.128l.014.169a.395.395 0 0 1 .34-.19q.186 0 .286.107.1.109.101.334v.719h-.21v-.715q0-.151-.061-.212a.25.25 0 0 0-.181-.065.3.3 0 0 0-.163.04.3.3 0 0 0-.105.108v.844h-.21V7.128zM33.075 8.127q.095 0 .17-.065a.2.2 0 0 0 .072-.158h.188v.007c.008.097-.036.187-.123.263a.45.45 0 0 1-.304.115.45.45 0 0 1-.373-.162.63.63 0 0 1-.13-.406v-.043q0-.241.13-.406a.46.46 0 0 1 .373-.165q.19 0 .315.118c.083.08.12.176.12.291v.007h-.192a.24.24 0 0 0-.07-.176.22.22 0 0 0-.173-.072q-.153 0-.224.119a.55.55 0 0 0-.069.287v.044a.56.56 0 0 0 .069.29q.07.12.224.12zM34.229 8.289a.5.5 0 0 1-.387-.158.6.6 0 0 1-.138-.414v-.046a.6.6 0 0 1 .141-.406.44.44 0 0 1 .348-.162q.23 0 .343.144c.076.097.116.219.116.377v.108h-.738a.5.5 0 0 0 .076.284c.05.071.13.107.232.107q.108 0 .184-.028a.4.4 0 0 0 .138-.083l.083.137a.5.5 0 0 1-.163.1.6.6 0 0 1-.242.04zm-.033-1.02a.23.23 0 0 0-.18.082.4.4 0 0 0-.087.215l.517.004v-.018a.34.34 0 0 0-.061-.205q-.062-.082-.189-.082zM35.659 6.834h-.21v-.212h.21zm0 1.433h-.21V7.128h.21zM36.647 7.958a.14.14 0 0 0-.051-.111.5.5 0 0 0-.2-.076.8.8 0 0 1-.31-.122.25.25 0 0 1-.109-.208q0-.141.12-.237.118-.1.307-.101c.127 0 .235.036.315.104a.3.3 0 0 1 .116.245v.007h-.203a.18.18 0 0 0-.065-.133.24.24 0 0 0-.166-.061q-.11.001-.167.05a.15.15 0 0 0-.054.119q-.001.068.047.104a.6.6 0 0 0 .195.068.8.8 0 0 1 .319.126.25.25 0 0 1 .108.212q0 .15-.123.248a.5.5 0 0 1-.322.097.5.5 0 0 1-.347-.112.31.31 0 0 1-.12-.258V7.91h.203c0 .076.032.126.083.162.05.036.112.05.181.05q.114.001.174-.046a.14.14 0 0 0 .061-.119zM38.199 7.365h.38v.162h-.38v.435h-.188v-.435h-.406v-.162h.406v-.43h.188zm.333.895h-.887v-.162h.887zM39.77 7.725a.6.6 0 0 1-.134.413q-.135.15-.359.15a.46.46 0 0 1-.358-.15q-.135-.15-.134-.413v-.45q0-.258.134-.41.13-.15.358-.15c.152 0 .268.05.359.15q.134.152.133.41zm-.21-.493a.4.4 0 0 0-.076-.262.25.25 0 0 0-.21-.097.24.24 0 0 0-.207.097.44.44 0 0 0-.072.262v.536q0 .165.076.262a.25.25 0 0 0 .21.097.25.25 0 0 0 .21-.097.4.4 0 0 0 .072-.262v-.536zM40.269 8.267h-.21v-.212h.21zM41.083 7.394q.14 0 .2-.068a.3.3 0 0 0 .057-.194.3.3 0 0 0-.061-.187.24.24 0 0 0-.189-.072.27.27 0 0 0-.199.076.25.25 0 0 0-.08.186h-.198v-.007a.35.35 0 0 1 .127-.294.5.5 0 0 1 .35-.123q.217 0 .337.108.121.107.123.316a.33.33 0 0 1-.058.194.4.4 0 0 1-.159.137.4.4 0 0 1 .177.14c.04.061.062.14.062.226q0 .211-.134.33a.5.5 0 0 1-.348.12.57.57 0 0 1-.347-.115.35.35 0 0 1-.145-.306v-.007h.203q-.001.111.08.187.08.075.21.075.128.001.199-.079a.3.3 0 0 0 .072-.205q0-.145-.069-.215c-.043-.047-.116-.072-.21-.072h-.17v-.162h.17zM42.032 7.128l.014.151a.37.37 0 0 1 .141-.126.44.44 0 0 1 .203-.043c.08 0 .141.018.195.054a.33.33 0 0 1 .123.158.4.4 0 0 1 .145-.154.4.4 0 0 1 .206-.058q.175 0 .276.119.099.12.1.36v.682h-.21v-.683q.002-.167-.057-.237t-.174-.068a.22.22 0 0 0-.173.075.32.32 0 0 0-.076.187v.733h-.21v-.683q-.001-.16-.062-.233-.06-.075-.173-.076a.3.3 0 0 0-.156.04.25.25 0 0 0-.094.108v.844h-.21V7.139h.188zM43.928 7.128l.015.151a.36.36 0 0 1 .14-.126.44.44 0 0 1 .203-.043c.08 0 .142.018.196.054a.33.33 0 0 1 .123.158.4.4 0 0 1 .145-.154.4.4 0 0 1 .206-.058q.176 0 .275.119.1.12.101.36v.682h-.21v-.683q0-.167-.057-.237-.06-.07-.174-.068a.22.22 0 0 0-.174.075.32.32 0 0 0-.076.187v.733h-.21v-.683q0-.16-.061-.233-.06-.075-.174-.076a.3.3 0 0 0-.156.04.25.25 0 0 0-.094.108v.844h-.21V7.139h.189zM45.868 8.267h-.21v-.212h.21z"/><path stroke="#000" stroke-linecap="round" stroke-linejoin="round" stroke-width=".5" d="M23.73 102.208V62.935"/><path fill="#000" d="m23.73 63.258-.652.396-.014-.022.423-1.056c.084-.367.163-.737.247-1.103.083.366.162.736.246 1.103l.423 1.056-.01.022-.656-.396z"/><path stroke="#000" stroke-linecap="round" stroke-linejoin="round" stroke-width=".5" d="M23.73 144.844v-31.639"/><path fill="#000" d="m23.73 144.52-.652-.395-.014.021.423 1.057c.084.366.163.736.247 1.103.083-.367.162-.737.246-1.103l.423-1.057-.01-.021-.656.395z"/><path stroke="#000" stroke-linecap="round" stroke-linejoin="round" stroke-width=".5" d="M29.017 16.915H18.186"/><path fill="#000" d="m18.508 16.915.398.647-.022.014-1.064-.42q-.556-.122-1.111-.245.556-.121 1.111-.244l1.064-.42.022.01-.398.65z"/><path stroke="#000" stroke-linecap="round" stroke-linejoin="round" stroke-width=".5" d="M48.06 16.915H37.227"/><path fill="#000" d="m47.735 16.915-.398.647.022.014 1.064-.42q.555-.122 1.11-.245-.555-.121-1.11-.244l-1.064-.42-.022.01.398.65z"/><path stroke="#000" stroke-linecap="round" stroke-linejoin="round" stroke-width=".5" d="M33.121 61.473h-12.51M33.121 146.306h-12.51M53.146 101.191v64.731"/><path fill="#000" d="m53.145 165.603.652-.396.014.022-.423 1.056c-.084.367-.163.737-.246 1.103-.084-.366-.163-.736-.246-1.103l-.424-1.056.011-.022.655.396z"/><path stroke="#000" stroke-linecap="round" stroke-linejoin="round" stroke-width=".5" d="M53.146 24.237v64.925"/><path fill="#000" d="m53.145 24.557.652.395.014-.022-.423-1.056c-.084-.366-.163-.736-.246-1.103-.084.367-.163.737-.246 1.103l-.424 1.056.011.022.655-.395z"/><path stroke="#000" stroke-linecap="round" stroke-linejoin="round" stroke-width=".5" d="M13.054 102.995v90.222"/><path fill="#000" d="m13.054 192.897.651-.395.015.021-.424 1.057c-.083.366-.162.736-.246 1.103q-.123-.552-.246-1.103l-.423-1.057.01-.021.656.395z"/><path stroke="#000" stroke-linecap="round" stroke-linejoin="round" stroke-width=".5" d="M13.054 12.525v77.42"/><path fill="#000" d="m13.054 12.848.651.395.015-.021-.424-1.057c-.083-.366-.162-.736-.246-1.103q-.123.552-.246 1.103l-.423 1.057.01.021.656-.395z"/><path stroke="#000" stroke-linecap="round" stroke-linejoin="round" stroke-width=".5" d="M42.416 113.205v52.717"/><path fill="#000" d="m42.415 165.603.652-.396.014.022-.423 1.056q-.123.552-.246 1.103c-.084-.366-.163-.736-.246-1.103l-.424-1.056.011-.022.655.396z"/><path stroke="#000" stroke-linecap="round" stroke-linejoin="round" stroke-width=".5" d="M42.416 41.55v60.658"/><path fill="#000" d="m42.415 41.87.652.396.014-.022-.423-1.056q-.123-.552-.246-1.103c-.084.366-.163.736-.246 1.103l-.424 1.056.011.022.655-.395z"/><path fill="#231815" d="M14.096 99.524v.327h-2.178l.242.654h-.297l-.35-.93v-.051zM12.196 97.023q.194 0 .344.101a.7.7 0 0 1 .236.273.7.7 0 0 1 .253-.316.63.63 0 0 1 .376-.115q.337 0 .532.223.2.224.2.589 0 .367-.2.59a.69.69 0 0 1-.532.222.66.66 0 0 1-.376-.112.7.7 0 0 1-.254-.312.7.7 0 0 1-.235.27.6.6 0 0 1-.34.096.67.67 0 0 1-.518-.208q-.193-.209-.191-.546a.78.78 0 0 1 .191-.546q.19-.21.518-.209zm-.437.755q0 .19.119.309.12.118.326.118c.137 0 .235-.04.318-.114a.42.42 0 0 0 .12-.313.42.42 0 0 0-.12-.313.43.43 0 0 0-.318-.115c-.13 0-.24.04-.319.123a.4.4 0 0 0-.123.305zm1.635-.489a.48.48 0 0 0-.35.137.48.48 0 0 0-.138.355.47.47 0 0 0 .134.353q.133.133.354.132c.149 0 .26-.043.344-.129a.5.5 0 0 0 .127-.36.5.5 0 0 0-.127-.358.46.46 0 0 0-.344-.13M13 94.954q.573 0 .854.194.278.196.279.607 0 .41-.272.604-.27.194-.814.205h-.438q-.566 0-.843-.194-.276-.196-.275-.611 0-.415.268-.607.267-.195.821-.202h.424zm-.445.323q-.413.001-.605.115c-.126.076-.191.202-.191.367q-.001.248.188.363.188.113.582.118h.525q.42 0 .615-.118a.4.4 0 0 0 .2-.363q0-.243-.189-.356-.186-.118-.59-.122h-.535zM13.926 94.498a.2.2 0 0 1-.141-.05c-.036-.033-.058-.083-.058-.151q-.001-.103.058-.151a.2.2 0 0 1 .141-.05c.058 0 .101.017.138.05a.2.2 0 0 1 .054.15.2.2 0 0 1-.054.151.2.2 0 0 1-.138.05M12.652 93.122v-.245a.53.53 0 0 0-.123-.362.41.41 0 0 0-.318-.133q-.451 0-.453.449 0 .209.12.337a.43.43 0 0 0 .322.126v.324a.66.66 0 0 1-.507-.223.8.8 0 0 1-.202-.564q.001-.362.191-.568.195-.205.536-.205a.637.637 0 0 1 .561.402.63.63 0 0 1 .225-.326.64.64 0 0 1 .38-.115q.345 0 .55.222.204.225.202.586 0 .36-.195.586a.65.65 0 0 1-.518.226v-.327a.42.42 0 0 0 .326-.133.5.5 0 0 0 .123-.352q0-.236-.123-.36a.48.48 0 0 0-.355-.125c-.155 0-.264.047-.344.137q-.119.135-.123.395v.244h-.267zM54.409 97.246v.327H52.23l.242.654h-.296l-.351-.93v-.05zM53.544 94.925v-.355h.267v.355h.598v.327h-.598v1.164h-.191l-1.785-1.142v-.345h1.709zm0 1.121v-.794H52.28l.072.04zM54.409 92.604v1.675h-.236l-.988-.884a2 2 0 0 0-.365-.27.66.66 0 0 0-.29-.075.45.45 0 0 0-.329.122.42.42 0 0 0-.13.323q.001.243.137.378.14.134.388.132v.324a.77.77 0 0 1-.576-.226q-.219-.228-.22-.608-.002-.355.188-.564a.64.64 0 0 1 .499-.208q.379.001.905.481l.749.683v-1.283zM43.577 110.292v.327h-2.179l.242.653h-.296l-.351-.93v-.05zM43.577 107.669v1.674h-.236l-.988-.884a1.8 1.8 0 0 0-.365-.269.6.6 0 0 0-.29-.076.45.45 0 0 0-.329.123.41.41 0 0 0-.13.323q.001.243.137.377.14.134.388.133v.323a.77.77 0 0 1-.576-.226q-.219-.226-.22-.607c0-.237.06-.424.188-.564a.64.64 0 0 1 .499-.209q.379.001.905.482l.745.683v-1.283h.272M42.285 107.173l-1.282-.129v-1.308h.3v1.035l.703.075a.8.8 0 0 1-.112-.427q0-.35.231-.554.234-.204.63-.204.397 0 .626.211.228.213.228.597a.8.8 0 0 1-.188.553c-.127.144-.3.223-.525.245v-.306a.52.52 0 0 0 .333-.154.48.48 0 0 0 .112-.335q.001-.225-.155-.355t-.431-.13a.6.6 0 0 0-.416.141.47.47 0 0 0-.156.37q.001.21.094.334l.073.086-.07.259zM31.938 16.602h.246a.53.53 0 0 0 .366-.122.4.4 0 0 0 .134-.316q0-.448-.453-.449a.48.48 0 0 0-.34.119.42.42 0 0 0-.127.32h-.325a.65.65 0 0 1 .224-.504.83.83 0 0 1 .568-.2q.365 0 .572.19c.138.125.206.305.206.531a.56.56 0 0 1-.108.324.64.64 0 0 1-.297.233q.21.066.33.223.114.156.115.377-.001.343-.224.546a.86.86 0 0 1-.59.201q-.363 0-.59-.194a.64.64 0 0 1-.228-.513h.33q-.001.199.133.323a.5.5 0 0 0 .355.122q.239 0 .362-.122a.48.48 0 0 0 .127-.352q-.002-.224-.138-.341-.136-.122-.398-.123h-.246v-.265zM35.181 18.04h-1.686v-.234l.89-.98c.13-.148.224-.27.271-.364a.6.6 0 0 0 .076-.287.44.44 0 0 0-.123-.327.44.44 0 0 0-.326-.13.52.52 0 0 0-.38.137q-.134.136-.133.384h-.326a.76.76 0 0 1 .228-.57q.23-.219.611-.22.359-.001.569.187c.137.126.21.29.21.496q-.001.376-.485.898l-.688.744h1.292zM57.08 19.225v.327H54.9l.243.654h-.297l-.35-.93v-.051zM57.08 17.206v.327H54.9l.243.654h-.297l-.35-.93v-.051zM56.909 16.214a.2.2 0 0 1-.141-.05c-.036-.032-.058-.083-.058-.15q-.001-.104.058-.152a.2.2 0 0 1 .141-.05c.058 0 .098.018.138.05a.2.2 0 0 1 .054.151.2.2 0 0 1-.054.151.2.2 0 0 1-.138.05M55.79 15.162l-1.28-.13v-1.307h.3v1.034l.702.076a.8.8 0 0 1-.112-.428q-.001-.35.232-.553.233-.205.63-.205.397.001.626.212.227.215.227.596.001.34-.188.554-.188.214-.524.244v-.305a.54.54 0 0 0 .333-.155.47.47 0 0 0 .112-.334q0-.226-.156-.356t-.43-.129a.6.6 0 0 0-.417.14.47.47 0 0 0-.155.37q0 .21.094.334l.072.086-.069.26zM23.09 109.81q.193 0 .343.101a.7.7 0 0 1 .236.273.7.7 0 0 1 .253-.316.63.63 0 0 1 .376-.119q.337.001.532.223.2.225.2.589 0 .367-.2.589a.68.68 0 0 1-.532.223.64.64 0 0 1-.376-.115.7.7 0 0 1-.253-.313.7.7 0 0 1-.236.27.6.6 0 0 1-.34.097.67.67 0 0 1-.517-.208c-.13-.141-.192-.32-.192-.547a.78.78 0 0 1 .192-.546q.19-.209.517-.208zm-.438.751q0 .192.119.309.12.119.326.119c.137 0 .235-.04.318-.115a.42.42 0 0 0 .12-.313.42.42 0 0 0-.12-.313.43.43 0 0 0-.318-.114.423.423 0 0 0-.442.427zm1.639-.485a.48.48 0 0 0-.351.137.48.48 0 0 0-.138.355q0 .22.134.352.134.134.355.133c.148 0 .26-.043.344-.129a.5.5 0 0 0 .127-.359.5.5 0 0 0-.127-.36.46.46 0 0 0-.344-.129M23.546 108.869v-.244a.52.52 0 0 0-.124-.363.41.41 0 0 0-.318-.133q-.451.001-.452.449 0 .209.119.338.12.124.322.125v.324a.66.66 0 0 1-.506-.223.8.8 0 0 1-.203-.564q0-.362.192-.568.194-.204.535-.205.168 0 .326.108a.64.64 0 0 1 .235.295.63.63 0 0 1 .224-.327.63.63 0 0 1 .38-.115q.346 0 .55.223c.138.151.203.345.203.585q0 .36-.195.586a.65.65 0 0 1-.518.226v-.327a.42.42 0 0 0 .326-.133.5.5 0 0 0 .123-.352q0-.236-.123-.359a.48.48 0 0 0-.355-.126c-.155 0-.264.047-.343.137q-.12.135-.123.395v.244h-.268zM24.82 107.284a.2.2 0 0 1-.142-.05c-.036-.032-.058-.083-.058-.151q-.001-.102.058-.151c.036-.036.083-.05.141-.05q.085.001.138.05a.2.2 0 0 1 .054.151c0 .065-.018.119-.054.151a.2.2 0 0 1-.138.05M23.546 105.905v-.245a.52.52 0 0 0-.124-.362.41.41 0 0 0-.318-.133q-.451.001-.452.449 0 .21.119.334.12.125.322.126v.323a.66.66 0 0 1-.506-.223.8.8 0 0 1-.203-.564q0-.362.192-.567.194-.205.535-.205.168 0 .326.108a.63.63 0 0 1 .235.294.63.63 0 0 1 .224-.327.64.64 0 0 1 .38-.115q.346.001.55.223c.138.151.203.345.203.586q0 .36-.195.585a.65.65 0 0 1-.518.227v-.327a.42.42 0 0 0 .326-.133.5.5 0 0 0 .123-.352q0-.236-.123-.36a.48.48 0 0 0-.355-.125c-.155 0-.264.046-.343.136q-.12.136-.123.395v.245h-.268z"/><path stroke="#000" stroke-linecap="round" stroke-linejoin="round" stroke-width=".5" d="M50.753 11.059h6.63M8.744 11.059h6.633M40.559 40.085h7.95M40.559 167.388h13.18"/><path stroke="#231815" stroke-dasharray="8.5 8.5" stroke-linecap="round" stroke-linejoin="round" d="M52.574 3.237a10.309 10.309 0 0 1 5.642 1.725q.83.556 1.538 1.257c.47.467.894.981 1.263 1.53q.555.826.94 1.743c.258.611.45 1.243.584 1.89a9.7 9.7 0 0 1 .199 1.965M62.74 69.603l-.015-56.241M62.732 186.567l.011-59.127-.003-57.837M3.275 13.362l-.014 57.114M52.566 196.749l.85-.036 1.04-.148 1.045-.262 1.032-.381.992-.499.926-.593.84-.675.644-.622M13.434 196.749l13.003.018h13.137l12.993-.018M6.073 193.537l.64.621.836.668.916.593.984.496 1.028.381 1.046.266 1.053.147.858.04M62.74 13.362v.004M3.268 186.567l-.01-59.727M3.26 69.65l-.003 57.84M3.268 173.259v13.239M3.279 13.365v-.025M62.74 13.34v.025M62.74 68.507v1.901M3.275 13.362l.005.004M13.499 3.237h-.062M52.556 3.237h-.054M6.073 193.537A10.177 10.177 0 0 1 4 190.317a10 10 0 0 1-.727-3.754M62.732 186.567a10.132 10.132 0 0 1-2.801 6.966M33.002 3.234l19.5.003M3.268 186.498v-9.122M3.279 13.34c0-.657.069-1.319.199-1.965s.326-1.28.579-1.89.572-1.193.94-1.742c.37-.55.793-1.064 1.264-1.531q.706-.701 1.538-1.257t1.755-.938q.924-.383 1.904-.582a10.2 10.2 0 0 1 1.983-.205M13.499 3.237l19.503-.003"/></g><defs><clipPath id="a"><path fill="#fff" d="M0 0h66v200H0z"/></clipPath></defs></svg>