<svg xmlns="http://www.w3.org/2000/svg" width="65" height="200" fill="none" viewBox="0 0 65 200"><g clip-path="url(#a)"><path fill="#fff" d="M65 0H0v200h65z"/><mask id="b" width="37" height="30" x="14" y="19" maskUnits="userSpaceOnUse" style="mask-type:luminance"><path fill="#fff" d="M49.093 19.253H15.907a1.52 1.52 0 0 0-1.515 1.526v26.094a1.52 1.52 0 0 0 1.515 1.526h33.186a1.52 1.52 0 0 0 1.515-1.526V20.779a1.52 1.52 0 0 0-1.515-1.526"/></mask><g mask="url(#b)"><path fill="url(#c)" d="M50.608 19.253H14.392v29.146h36.216z"/></g><path stroke="#000" stroke-linecap="round" stroke-linejoin="round" stroke-width=".5" d="M49.093 19.253H15.907a1.52 1.52 0 0 0-1.515 1.526v26.094a1.52 1.52 0 0 0 1.515 1.526h33.186a1.52 1.52 0 0 0 1.515-1.526V20.779a1.52 1.52 0 0 0-1.515-1.526"/><path fill="gray" d="M43.61 13.618c0-1.278-.599-1.537-1.565-1.537s-1.201.298-1.201.377v.36l.043-.011c.962-.216 1.615-.22 1.836-.018.075.068.235.219.235.847 0 .629-.128.761-.175.812-.178.2-.592.176-.959.154h-.067c-.368-.021-.368-.298-.368-.463 0-.144.047-.316.268-.316h1.08v-.363l-.022-.007a5 5 0 0 0-.791-.13c-1.044 0-1.201.493-1.201.787 0 .313.1.56.292.744.396.37 1.041.33 1.07.326.499.036.89-.082 1.158-.359.442-.46.374-1.17.37-1.203M39.283 12.124h-.357c-.4 0-.592.19-.645.255-.21-.205-.528-.255-.638-.255h-.332c-.859 0-.952.769-.952 1.103v1.907h.581v-1.907c0-.295.061-.568.5-.568.438 0 .541.208.541.568v1.907h.6v-1.907c0-.392.156-.575.502-.575.37 0 .535.176.535.575v1.907h.584v-1.907c0-1.049-.766-1.103-.92-1.103M34.573 14.606h-.128c-.542 0-.87-.065-.87-.97s.192-1.01.77-1.01h.146c.538 0 .656.09.656.5 0 .205-.093.295-.307.295h-1.03v.43s.021 0 .032.004c.203.036.57.061.852.061.417 0 1.116-.1 1.116-.776 0-.883-.688-1.073-1.262-1.073h-.09c-1.118 0-1.536.423-1.536 1.562 0 1.138.425 1.537 1.47 1.537h.078c.66 0 1.219-.176 1.219-.38v-.36l-.047.01c-.385.101-.68.162-1.073.162M32.684 12.135a7 7 0 0 0-.738-.061c-.36 0-.96.147-.96 1.127v1.933h.642v-1.89c0-.52.093-.574.5-.574h.588v-.531s-.022 0-.029-.004M29.236 12.074h-.089c-1.12 0-1.533.424-1.533 1.562v1.498h.653V13.64c0-.866.192-1.01.766-1.01h.146c.556 0 .656.205.656.6 0 .237-.078.492-.306.492h-1.03v.435s.017 0 .028.003c.207.036.574.061.852.061.923 0 1.12-.531 1.12-.976 0-.733-.475-1.171-1.266-1.171M22.984 13.299c-.222-.03-.446-.054-.67-.083-.161-.025-.304-.065-.304-.237 0-.273.079-.348.624-.348h.136c.317 0 .62.046.983.147.015 0 .029.007.043.01v-.43c-.053-.108-.556-.284-1.048-.284h-.135c-.827 0-1.23.309-1.23.948 0 .64.51.743.987.819l.296.043c.218.025.353.046.42.079.13.054.197.082.197.298 0 .338-.228.373-.713.373h-.136c-.285 0-.63-.082-1.001-.237l-.05-.021v.416c0 .17.506.381 1.073.381h.125c.927 0 1.354-.312 1.354-.988s-.48-.815-.951-.89M26.388 12.203v1.846c0 .122 0 .302-.1.406q-.106.106-.335.104h-.488c-.082 0-.221 0-.318-.1q-.122-.125-.12-.41v-1.846h-.61v1.857c0 .186.042 1.11.909 1.11h.805c.328 0 .877-.144.877-1.11v-1.857h-.62"/><path stroke="gray" stroke-miterlimit="10" stroke-width=".25" d="M25.86 142.698c4.015 2.065 9.323 2.065 13.283 0"/><path stroke="gray" stroke-linecap="round" stroke-linejoin="round" stroke-width=".25" d="M46.391 142.914a17.1 17.1 0 0 0 3.059-9.783c0-1.752-.264-3.444-.753-5.038-1.454-7.682-8.149-13.489-16.199-13.489s-14.744 5.807-16.199 13.489a17.1 17.1 0 0 0-.752 5.038c0 3.9 1.297 7.495 3.483 10.368"/><path stroke="#000" stroke-linecap="round" stroke-linejoin="round" stroke-width=".25" d="M51.953 131.221c0 10.824-8.71 19.597-19.455 19.597s-19.454-8.773-19.454-19.597 8.71-19.598 19.454-19.598 19.455 8.774 19.455 19.598"/><path stroke="#000" stroke-miterlimit="10" stroke-width=".5" d="M33.189 149.544c10.043-.387 17.874-8.903 17.49-19.021s-8.838-18.006-18.881-17.619-17.875 8.903-17.49 19.021c.383 10.117 8.837 18.006 18.88 17.619Z"/><path stroke="gray" stroke-linecap="round" stroke-linejoin="round" stroke-width=".25" d="M42.666 143.363c.499-.334.734-.521.852-.755 1.59-3.023 1.404-7.502.189-9.678v-4.037c-1.01-5.322-5.647-9.348-11.223-9.348h.029c-5.576 0-10.217 4.026-11.223 9.348v4.037c-1.215 2.176-1.4 6.655.19 9.678.12.234.356.421.851.755 5.604 3.3 14.934 3.379 20.331 0z"/><path stroke="#000" stroke-miterlimit="10" stroke-width=".5" d="M26.046 145.036c-1.793 0-2.392-.018-3.07-.445-.58-.37-.773-.747-.773-1.257l-.431-16.972c0-.941.602-1.606 1.65-1.606h18.156c1.045 0 1.651.665 1.651 1.606l-.431 16.972c0 .51-.193.89-.774 1.257-.674.427-1.273.445-3.07.445z"/><path fill="url(#d)" d="M25.942 142.508v-6.156h13.112v6.188l-1.729.402h-9.629z"/><path stroke="#000" stroke-linecap="round" stroke-linejoin="round" stroke-width=".25" d="M22.074 133.681c1.53-1.29 7.116-3.258 10.235-3.258h.385c3.12 0 8.706 1.968 10.235 3.258"/><path stroke="#000" stroke-miterlimit="10" stroke-width=".5" d="M23.308 141.563c.388.298 1.311.668 2.552.945 3.28 1.264 10.071 1.264 13.283 0 1.24-.277 2.168-.647 2.553-.945"/><path stroke="#000" stroke-linecap="round" stroke-linejoin="round" stroke-width=".25" d="M41.692 141.563c.14-.107.218-.33.239-.571.15-1.666-.217-5.591-.578-6.643-.203-.586-1.276-1.279-2.249-1.548-2.107-.582-4.253-.938-6.41-.938h-.385c-2.16 0-4.303.356-6.41.938-.973.269-2.046.962-2.25 1.548-.363 1.048-.73 4.977-.577 6.643.022.241.1.467.24.571"/><path stroke="#000" stroke-miterlimit="10" stroke-width=".5" d="M25.942 142.508v-6.156h13.112v6.188"/><path stroke="#000" stroke-linecap="round" stroke-linejoin="round" stroke-width=".25" d="M37.325 142.942h-9.629M25.443 142.317v-6.572h14.114v6.598"/><path stroke="gray" stroke-miterlimit="10" stroke-width=".25" d="M39.992 142.149v-7.194c0-.495-.531-.549-1.048-.413 0 0-1.644.263-2.214.263h-8.463c-.567 0-2.214-.263-2.214-.263-.517-.132-1.048-.082-1.048.413v7.194"/><path stroke="gray" stroke-miterlimit="10" stroke-width=".25" d="m28.267 134.805 2.1-.302c.77-.144 3.425-.101 4.538.039l1.825.263"/><path fill="#000" d="M32.865 172.908a.25.25 0 0 1 .179-.025c.06.014.11.057.139.111.028.054.039.118.025.176a.23.23 0 0 1-.11.14l-1.54.891a.6.6 0 0 1-.308.079.67.67 0 0 1-.541-.32l-3.006-5.391a.63.63 0 0 1 .236-.851l3.105-1.756c.139-.079.313-.1.474-.057a.63.63 0 0 1 .37.294l1.38 2.475a.231.231 0 0 1-.09.319.23.23 0 0 1-.317-.09l-1.379-2.474a.16.16 0 0 0-.092-.075.17.17 0 0 0-.118.014l-3.105 1.756c-.064.036-.097.151-.06.212l3.005 5.39c.035.065.15.097.21.062l1.54-.887zM36.776 173.902c.09 0 .186-.068.218-.15.281-.733.403-1.53.385-2.32a4.3 4.3 0 0 0-.143-1.045.26.26 0 0 0-.064-.108l-2.87-2.74a.23.23 0 0 0-.203-.061l-.955.176a.24.24 0 0 0-.19.273c.011.061.047.115.097.15.05.036.114.051.175.04l.837-.158 2.731 2.611q.045.193.068.388c.11.876.007 1.799-.31 2.621-.043.104.028.259.132.302a.2.2 0 0 0 .085.018"/><path fill="#000" d="M32.623 168.893a1 1 0 0 0-.72-.155.958.958 0 0 0-.767.754 1 1 0 0 0-.007.374c.05.244.2.481.4.621l1.3.905q.023.226.083.453a3.98 3.98 0 0 0 1.511 2.187c.04.025.086.043.136.043a.2.2 0 0 0 .107-.025.3.3 0 0 0 .085-.076.25.25 0 0 0 .04-.176.23.23 0 0 0-.097-.15 3.57 3.57 0 0 1-1.205-1.534 2.4 2.4 0 0 1-.196-.858.24.24 0 0 0-.1-.187l-1.393-.966a.506.506 0 0 1-.125-.693.5.5 0 0 1 .142-.137.45.45 0 0 1 .179-.068.52.52 0 0 1 .37.079l2.496 1.731c.05.032.114.047.174.036a.24.24 0 0 0 .19-.273.25.25 0 0 0-.097-.151l-2.495-1.731z"/><path stroke="#040000" stroke-linecap="round" stroke-linejoin="round" d="M51.681 3.232H13.315C7.733 3.232 3.21 7.79 3.21 13.413v173.17c0 5.623 4.524 10.181 10.106 10.181h38.366c5.582 0 10.107-4.558 10.107-10.181V13.413c0-5.623-4.525-10.18-10.107-10.18"/><path stroke="#040000" stroke-linecap="round" stroke-linejoin="round" stroke-width=".5" d="M49.774 7.865H15.226c-4.743 0-8.588 3.873-8.588 8.651v164.425c0 4.778 3.845 8.652 8.588 8.652h34.548c4.743 0 8.588-3.874 8.588-8.652V16.516c0-4.778-3.845-8.651-8.588-8.651"/><path stroke="#040000" stroke-miterlimit="10" stroke-width=".5" d="M6.638 54.785h51.724"/><path stroke="#000" stroke-width=".5" d="M29.03 70.184a2.04 2.04 0 0 0 2.042-2.037v-2.341a2.04 2.04 0 0 0-2.043-2.036H14.634a2.04 2.04 0 0 0-2.043 2.036v2.341c0 1.125.913 2.037 2.043 2.037zM12.592 85.048v-2.342c0-1.124.912-2.036 2.042-2.036h7.351c1.134 0 2.04.92 2.04 2.047v2.331a2.04 2.04 0 0 1-2.043 2.036H14.63a2.04 2.04 0 0 1-2.043-2.036zM35.97 70.184a2.04 2.04 0 0 1-2.042-2.037v-2.341c0-1.124.912-2.036 2.043-2.036h14.395a2.04 2.04 0 0 1 2.042 2.036v2.341a2.04 2.04 0 0 1-2.042 2.037zM26.783 85.048v-2.342c0-1.124.913-2.036 2.043-2.036h7.351c1.134 0 2.04.92 2.04 2.047v2.331a2.04 2.04 0 0 1-2.044 2.036h-7.35a2.04 2.04 0 0 1-2.043-2.036zM40.972 85.048v-2.342c0-1.124.913-2.036 2.043-2.036h7.351c1.134 0 2.04.92 2.04 2.047v2.331a2.04 2.04 0 0 1-2.044 2.036h-7.35a2.04 2.04 0 0 1-2.043-2.036zM21.985 72.22a2.04 2.04 0 0 1 2.043 2.036v2.342a2.04 2.04 0 0 1-2.043 2.036h-7.351a2.04 2.04 0 0 1-2.043-2.036v-2.342c0-1.124.913-2.036 2.043-2.036zM14.634 103.981a2.04 2.04 0 0 1-2.043-2.036v-2.342c0-1.124.913-2.036 2.043-2.036h7.351c1.134 0 2.04.92 2.04 2.047v2.331a2.04 2.04 0 0 1-2.044 2.036h-7.35zM14.634 95.534a2.04 2.04 0 0 1-2.043-2.036v-2.341c0-1.124.913-2.037 2.043-2.037h7.351c1.134 0 2.04.92 2.04 2.047v2.331a2.04 2.04 0 0 1-2.044 2.036h-7.35zM28.823 95.534a2.04 2.04 0 0 1-2.043-2.036v-2.341c0-1.124.912-2.037 2.043-2.037h7.35c1.134 0 2.04.92 2.04 2.047v2.331a2.04 2.04 0 0 1-2.043 2.036h-7.351zM28.823 103.981a2.04 2.04 0 0 1-2.043-2.036v-2.342c0-1.124.912-2.036 2.043-2.036h7.35c1.134 0 2.04.92 2.04 2.047v2.331a2.04 2.04 0 0 1-2.043 2.036h-7.351zM36.174 72.22a2.04 2.04 0 0 1 2.042 2.036v2.342a2.04 2.04 0 0 1-2.043 2.036h-7.35a2.04 2.04 0 0 1-2.043-2.036v-2.342c0-1.124.912-2.036 2.043-2.036zM43.015 95.534a2.04 2.04 0 0 1-2.043-2.036v-2.341c0-1.124.913-2.037 2.043-2.037h7.35c1.134 0 2.04.92 2.04 2.047v2.331a2.04 2.04 0 0 1-2.043 2.036h-7.35zM43.015 103.981a2.04 2.04 0 0 1-2.043-2.036v-2.342c0-1.124.913-2.036 2.043-2.036h7.35c1.134 0 2.04.92 2.04 2.047v2.331a2.04 2.04 0 0 1-2.043 2.036h-7.35zM50.366 72.22a2.04 2.04 0 0 1 2.043 2.036v2.342a2.04 2.04 0 0 1-2.043 2.036h-7.351a2.04 2.04 0 0 1-2.043-2.036v-2.342c0-1.124.913-2.036 2.043-2.036z"/><path fill="#231815" d="M47.713 84.215a.7.7 0 0 0-.146-.22.7.7 0 0 0-.217-.147.7.7 0 0 0-.268-.053h-.27a.7.7 0 0 0-.26.053v-.254a.33.33 0 0 1 .07-.212.23.23 0 0 1 .193-.087h.292q.103.001.154.061a.36.36 0 0 1 .067.155h.439a.8.8 0 0 0-.068-.248.66.66 0 0 0-.339-.33.6.6 0 0 0-.25-.05h-.299a.7.7 0 0 0-.267.053.7.7 0 0 0-.217.147.7.7 0 0 0-.147.22.7.7 0 0 0-.053.269v1.027q0 .14.053.266a.8.8 0 0 0 .147.219q.092.092.217.147a.7.7 0 0 0 .267.054h.271a.7.7 0 0 0 .268-.054.7.7 0 0 0 .217-.147.7.7 0 0 0 .146-.22.7.7 0 0 0 .054-.265v-.115a.7.7 0 0 0-.054-.27m-.37.352a.33.33 0 0 1-.072.212.23.23 0 0 1-.192.086h-.264a.25.25 0 0 1-.189-.083.35.35 0 0 1-.078-.204v-.083a.33.33 0 0 1 .07-.212.23.23 0 0 1 .193-.086h.264q.123 0 .193.086a.33.33 0 0 1 .071.212v.068zM49.813 84.071l-.588.937h-.328l.588-.937-.588-.916h.328zM32.513 94.676l-.945-.585v-.327l.945.585.92-.585v.327zM33.265 92.478a.6.6 0 0 0-.16-.194.598.598 0 0 0 .153-.417v-.103a.8.8 0 0 0-.043-.266.54.54 0 0 0-.129-.209.6.6 0 0 0-.2-.136.7.7 0 0 0-.26-.05h-.242a.7.7 0 0 0-.26.05.6.6 0 0 0-.2.136.68.68 0 0 0-.174.475v.104q0 .123.039.226.036.103.11.183a.54.54 0 0 0-.164.194.6.6 0 0 0-.06.266v.154q.001.135.05.248.048.112.139.198a.661.661 0 0 0 .46.176h.353a.66.66 0 0 0 .46-.177.7.7 0 0 0 .139-.197.6.6 0 0 0 .05-.248v-.154a.55.55 0 0 0-.061-.259m-1.095-.686c0-.082.018-.15.057-.212a.2.2 0 0 1 .179-.09h.203q.059 0 .107.026a.2.2 0 0 1 .075.064.406.406 0 0 1 .057.212v.054a.4.4 0 0 1-.057.212.17.17 0 0 1-.075.065.24.24 0 0 1-.107.025h-.203q-.124 0-.179-.09a.4.4 0 0 1-.057-.212zm.756 1.049q0 .125-.086.198a.32.32 0 0 1-.206.071h-.26a.32.32 0 0 1-.207-.072.24.24 0 0 1-.086-.197v-.043a.27.27 0 0 1 .086-.205.29.29 0 0 1 .206-.079h.26q.123-.001.207.08a.27.27 0 0 1 .086.204zM31.75 76.537q.245-.186.47-.381.226-.196.435-.392l.096-.096a.3.3 0 0 0 .065-.09.5.5 0 0 0 .039-.1.7.7 0 0 0 .014-.134.3.3 0 0 0-.082-.204.27.27 0 0 0-.196-.083h-.196a.3.3 0 0 0-.11.022.279.279 0 0 0-.15.154.3.3 0 0 0-.022.111v.083h-.381v-.155q.001-.128.05-.24a.7.7 0 0 1 .132-.198.65.65 0 0 1 .442-.183h.303a.6.6 0 0 1 .438.183q.082.086.136.198.049.112.05.24v.054c0 .072 0 .133-.011.19a.65.65 0 0 1-.121.317q-.055.071-.136.154-.202.19-.417.374-.218.187-.442.348h1.08v.352h-1.483v-.524zM32.513 73.484l-.945.582v.327l.945-.586.92.586v-.327zM47.46 74.87q.06.183.029.356a.52.52 0 0 1-.182.302l-.022.025.022.021q.096.095.139.212a.8.8 0 0 1 0 .632.637.637 0 0 1-.32.341.7.7 0 0 1-.161.054 1.2 1.2 0 0 1-.321.022h-.168a.612.612 0 0 1-.61-.621v-.069h.379q.001.06.017.108.024.06.068.093a.458.458 0 0 0 .225.079.6.6 0 0 0 .114 0q.073-.005.146-.018a.3.3 0 0 0 .135-.06.26.26 0 0 0 .1-.166.4.4 0 0 0-.007-.212q-.048-.182-.257-.219a1 1 0 0 0-.224-.018h-.121v-.355h.12c.093 0 .165-.007.225-.018a.4.4 0 0 0 .16-.061.3.3 0 0 0 .069-.083.2.2 0 0 0 .024-.104.263.263 0 0 0-.093-.205.3.3 0 0 0-.106-.054.6.6 0 0 0-.146-.025q-.08-.002-.16.007a.5.5 0 0 0-.15.047.3.3 0 0 0-.107.094.23.23 0 0 0-.043.14h-.378v-.072q0-.149.064-.266a.6.6 0 0 1 .164-.19.83.83 0 0 1 .496-.158h.203q.044 0 .089.007l.086.01a.7.7 0 0 1 .292.144.6.6 0 0 1 .117.13q.053.071.079.154zM47.436 91.731a.55.55 0 0 0-.11-.208.5.5 0 0 0-.183-.136.6.6 0 0 0-.25-.05h-.41a.6.6 0 0 0-.249.05.53.53 0 0 0-.292.344 1 1 0 0 0-.036.266v.309q-.002.142.036.262.036.12.11.208a.5.5 0 0 0 .182.137q.107.049.25.05h.474q-.076.382-.146.769h.392q.107-.554.21-1.114a.9.9 0 0 0 .057-.312v-.309a1 1 0 0 0-.035-.266m-.389.55q0 .125-.043.197t-.167.072h-.293c-.082 0-.135-.025-.167-.072a.4.4 0 0 1-.043-.197v-.263q0-.125.043-.197.043-.074.167-.072h.293c.082 0 .135.025.167.072q.043.074.043.198zM20.05 101.6q.08.001.117-.047a.4.4 0 0 0 .057-.118h.353a.6.6 0 0 1-.164.352.6.6 0 0 1-.16.107.5.5 0 0 1-.2.04h-.239a.54.54 0 0 1-.388-.162.552.552 0 0 1-.16-.391v-.794a.55.55 0 0 1 .548-.553h.239c.075 0 .139.015.203.04q.09.038.16.107a.598.598 0 0 1 .164.356h-.352a.3.3 0 0 0-.054-.122q-.039-.049-.121-.05h-.235a.2.2 0 0 0-.157.071.26.26 0 0 0-.057.173v.758c0 .068.018.122.057.172.04.047.089.072.157.072h.235zM18.485 100.752a.6.6 0 0 1 .22.044.543.543 0 0 1 .289.316.69.69 0 0 1 .004.47.51.51 0 0 1-.271.305.5.5 0 0 1-.214.043h-.87v-.352h.767a.3.3 0 0 0 .107-.014.2.2 0 0 0 .089-.043.2.2 0 0 0 .06-.072.2.2 0 0 0 .022-.1.21.21 0 0 0-.072-.169.27.27 0 0 0-.178-.061h-.224a1 1 0 0 1-.26-.033.6.6 0 0 1-.2-.097.4.4 0 0 1-.125-.172.68.68 0 0 1-.01-.456.6.6 0 0 1 .099-.172.46.46 0 0 1 .36-.162h.788v.37h-.642a.5.5 0 0 0-.189.032.2.2 0 0 0-.057.054.2.2 0 0 0-.021.097q-.001.07.046.119a.17.17 0 0 0 .128.046h.343zM16.403 101.607h.948v.32h-1.308v-1.896h1.308v.326h-.948v.46h.948v.323h-.948zM33.272 99.952a.7.7 0 0 0-.139-.205.7.7 0 0 0-.207-.14.6.6 0 0 0-.253-.05h-.353a.7.7 0 0 0-.253.05.668.668 0 0 0-.346.345.7.7 0 0 0-.05.251v1.085a.7.7 0 0 0 .05.251.6.6 0 0 0 .14.205.7.7 0 0 0 .206.14.6.6 0 0 0 .253.05h.353a.7.7 0 0 0 .253-.05.7.7 0 0 0 .207-.14.7.7 0 0 0 .14-.205.6.6 0 0 0 .049-.251v-1.085a.7.7 0 0 0-.05-.251m-.35 1.264a.3.3 0 0 1-.024.115.24.24 0 0 1-.064.093.4.4 0 0 1-.093.065.3.3 0 0 1-.114.025h-.26a.25.25 0 0 1-.114-.025.25.25 0 0 1-.093-.065.3.3 0 0 1-.064-.093.3.3 0 0 1-.022-.115v-.941q0-.06.022-.115a.25.25 0 0 1 .064-.094.4.4 0 0 1 .093-.064.25.25 0 0 1 .114-.025h.26a.3.3 0 0 1 .27.183.3.3 0 0 1 .026.115zM17.515 91.361h1.59l-.418 2.338h-.445l.335-1.907h-.624v.356h-.438zM15.201 84.071l.585.937h.328l-.588-.937.588-.916h-.328zM18.624 84.43V82.9h-.71l-.77 1.53v.363h1.07v.47h.406v-.47h.364v-.363h-.364zm-.407 0h-.624l.624-1.21zM32.513 83.665q.185 0 .338.054.15.055.257.158a.65.65 0 0 1 .16.255q.056.15.057.345.001.381-.206.596-.21.216-.62.216-.184 0-.336-.047a.7.7 0 0 1-.256-.14.64.64 0 0 1-.164-.24.9.9 0 0 1-.057-.338h.399q0 .165.093.269.092.103.306.104a.44.44 0 0 0 .314-.108q.116-.107.114-.305 0-.114-.032-.19a.33.33 0 0 0-.232-.194.7.7 0 0 0-.171-.022q-.224 0-.324.108h-.407v-1.3h1.473v.417h-1.03v.434a.3.3 0 0 1 .145-.05q.094-.014.19-.014zM22.641 66.42l.275-.43h.467v2.359h-.403V66.42zM20.727 68.377h-.45v-2.363h1.63v.406h-1.18v.571h1.18v.406h-1.18zM43.41 67.86q.246-.185.471-.38.226-.199.435-.392l.096-.097a.3.3 0 0 0 .064-.09.5.5 0 0 0 .054-.233.3.3 0 0 0-.082-.205.272.272 0 0 0-.196-.083h-.196a.265.265 0 0 0-.2.083.296.296 0 0 0-.082.205v.082h-.381v-.154a.6.6 0 0 1 .185-.438.6.6 0 0 1 .2-.133.6.6 0 0 1 .242-.05h.303a.6.6 0 0 1 .242.05.646.646 0 0 1 .331.33q.05.113.05.241v.054c0 .072 0 .133-.01.19a.66.66 0 0 1-.121.316q-.055.071-.136.155-.202.189-.417.373a7 7 0 0 1-.442.349h1.08v.352h-1.483v-.525zM41.85 68.385h-.45V66.02h1.633v.406h-1.184v.575h1.184v.402h-1.184zM46.516 100.368a.54.54 0 0 0-.506-.337h-.218a.54.54 0 0 0-.388.161.54.54 0 0 0-.16.392v.793a.55.55 0 0 0 .334.51.5.5 0 0 0 .214.043h.218a.54.54 0 0 0 .388-.161.56.56 0 0 0 .16-.392v-.793a.6.6 0 0 0-.042-.216m-.3.991a.27.27 0 0 1-.057.173.2.2 0 0 1-.157.072h-.213a.2.2 0 0 1-.157-.072.26.26 0 0 1-.057-.173v-.757c0-.069.017-.123.057-.173q.057-.073.157-.072h.213a.2.2 0 0 1 .157.072q.059.07.057.173zM47.429 100.968q.177.24.356.481.09.124.182.241l.178.237h-.37l-.575-.744h-.014v.744h-.36v-1.9h.36v.751h.014l.574-.751h.371l-.716.937zM17.896 74.799l.307-.478h.517v2.621h-.446V74.8zM33.589 102.932h-2.182v-.671h.246v.359h1.69v-.359h.246z"/></g><defs><linearGradient id="c" x1="16.213" x2="49.026" y1="50.234" y2="17.659" gradientUnits="userSpaceOnUse"><stop stop-color="#bfbfbf"/><stop offset=".14" stop-color="#c2c2c2"/><stop offset=".27" stop-color="#cecece"/><stop offset=".4" stop-color="#e0e0e0"/><stop offset=".53" stop-color="#fbfbfb"/><stop offset=".54" stop-color="#e0e0e0"/><stop offset=".55" stop-color="#cdcdcd"/><stop offset=".56" stop-color="#ccc"/><stop offset="1" stop-color="#fff"/></linearGradient><linearGradient id="d" x1="30.755" x2="34.298" y1="144.271" y2="134.606" gradientUnits="userSpaceOnUse"><stop stop-color="#bfbfbf"/><stop offset=".12" stop-color="#c2c2c2"/><stop offset=".23" stop-color="#cecece"/><stop offset=".34" stop-color="#e0e0e0"/><stop offset=".44" stop-color="#fbfbfb"/><stop offset=".45" stop-color="#fff"/><stop offset=".46" stop-color="#d4d4d4"/><stop offset=".47" stop-color="#cdcdcd"/><stop offset=".48" stop-color="#ccc"/><stop offset="1" stop-color="#fff"/></linearGradient><clipPath id="a"><path fill="#fff" d="M0 0h65v200H0z"/></clipPath></defs></svg>