<svg width="172" height="495" viewBox="0 0 172 495" fill="none" xmlns="http://www.w3.org/2000/svg">
<path d="M171.3 0H0V494.13H171.3V0Z" fill="white"/>
<path d="M155.49 40.91L153.35 35.18L150.29 30.67L145.55 26.27L140.06 22.73L128.99 18.54L117.91 16.34L105.4 15.35L89.66 14.79L74.07 14.98L64.61 15.41L54.19 16.23L43.89 18.09L35.1 20.87L27.54 24.88L20.86 30.67L17.98 34.82L15.81 40.26L14.72 47.99L14.65 415.84V445.12L15.63 453.57L18.82 461.2L24.03 467.05L30.97 471.8L38.14 474.83L46.96 477.2L53.31 478.26L61.07 478.95L72.73 479.57L73.23 477.42L74.15 477.26L97.5 477.32L98.11 479.45L108.72 479.04L119.57 478.02L127.48 476.44L135.84 473.81L143.18 470L148.47 465.83L151.34 462.62L154.02 458.07L155.46 453.83L156.2 449.42L156.46 445.61L156.4 47.66L155.49 40.91Z" fill="white"/>
<path d="M92.17 477.03H92.33L92.94 477.02H93.53H94.1L94.63 477.03L95.13 477.04L95.6 477.05L96.02 477.07L96.42 477.09L96.77 477.12L97.08 477.15L97.35 477.17L97.58 477.21L97.76 477.24L97.91 477.27L98 477.3H98.02" stroke="#231815" stroke-linecap="round" stroke-linejoin="round"/>
<path d="M79.12 477.03L83.3 477.09H87.95L92.17 477.03" stroke="#231815" stroke-linecap="round" stroke-linejoin="round"/>
<path d="M26.09 436.59V57.77" stroke="#231815" stroke-width="0.5" stroke-linecap="round" stroke-linejoin="round"/>
<path d="M28.05 436.59V57.77" stroke="#231815" stroke-width="0.5" stroke-linecap="round" stroke-linejoin="round"/>
<path d="M73.24 479.03L73.27 477.27" stroke="#231815" stroke-linecap="round" stroke-linejoin="round"/>
<path d="M98.02 477.27L98.05 479.03" stroke="#231815" stroke-linecap="round" stroke-linejoin="round"/>
<path d="M143.24 57.77V436.59" stroke="#231815" stroke-width="0.5" stroke-linecap="round" stroke-linejoin="round"/>
<path d="M145.2 436.59V57.77" stroke="#231815" stroke-width="0.5" stroke-linecap="round" stroke-linejoin="round"/>
<path d="M113.44 63.27H57.85" stroke="#231815" stroke-width="0.5" stroke-linecap="round" stroke-linejoin="round"/>
<path d="M57.85 57.01H113.44" stroke="#231815" stroke-width="0.5" stroke-linecap="round" stroke-linejoin="round"/>
<path d="M73.26 477.32L73.3 477.3L73.4 477.27L73.54 477.24L73.73 477.21L73.95 477.18L74.22 477.15L74.53 477.12L74.87 477.09L75.26 477.07L75.69 477.05L76.15 477.04L76.64 477.03L77.17 477.02H77.73H78.32L78.93 477.03H79.12" stroke="#231815" stroke-linecap="round" stroke-linejoin="round"/>
<path d="M145.13 444.11C145.18 441.61 145.2 439.1 145.2 436.59" stroke="#231815" stroke-width="0.5" stroke-linecap="round" stroke-linejoin="round"/>
<path d="M143.17 444.06C143.22 441.57 143.24 439.08 143.24 436.59" stroke="#231815" stroke-width="0.5" stroke-linecap="round" stroke-linejoin="round"/>
<path d="M39.86 460.32C45.78 462.37 51.94 463.66 58.19 464.17" stroke="#231815" stroke-width="0.5" stroke-linecap="round" stroke-linejoin="round"/>
<path d="M40.34 458.13C46.12 460.12 52.12 461.37 58.21 461.86" stroke="#231815" stroke-width="0.5" stroke-linecap="round" stroke-linejoin="round"/>
<path d="M31.12 455.11C33.64 457.43 36.62 459.2 39.86 460.32" stroke="#231815" stroke-width="0.5" stroke-linecap="round" stroke-linejoin="round"/>
<path d="M32.36 453.4C34.67 455.51 37.38 457.12 40.34 458.13" stroke="#231815" stroke-width="0.5" stroke-linecap="round" stroke-linejoin="round"/>
<path d="M26.16 444.11C26.24 448.3 28.04 452.28 31.12 455.11" stroke="#231815" stroke-width="0.5" stroke-linecap="round" stroke-linejoin="round"/>
<path d="M145.2 57.77C145.2 55.26 145.18 52.76 145.13 50.25" stroke="#231815" stroke-width="0.5" stroke-linecap="round" stroke-linejoin="round"/>
<path d="M143.24 57.7701C143.24 55.2801 143.22 52.79 143.17 50.3" stroke="#231815" stroke-width="0.5" stroke-linecap="round" stroke-linejoin="round"/>
<path d="M58.19 30.1801C51.94 30.6901 45.79 31.9901 39.86 34.0301" stroke="#231815" stroke-width="0.5" stroke-linecap="round" stroke-linejoin="round"/>
<path d="M58.21 32.4901C52.12 32.9801 46.12 34.2401 40.34 36.2201" stroke="#231815" stroke-width="0.5" stroke-linecap="round" stroke-linejoin="round"/>
<path d="M39.86 34.04C36.62 35.16 33.65 36.93 31.12 39.25" stroke="#231815" stroke-width="0.5" stroke-linecap="round" stroke-linejoin="round"/>
<path d="M40.34 36.22C37.39 37.23 34.67 38.84 32.36 40.95" stroke="#231815" stroke-width="0.5" stroke-linecap="round" stroke-linejoin="round"/>
<path d="M31.12 39.25C28.03 42.09 26.24 46.06 26.16 50.25" stroke="#231815" stroke-width="0.5" stroke-linecap="round" stroke-linejoin="round"/>
<path d="M32.36 40.95C29.72 43.35 28.19 46.73 28.12 50.29" stroke="#231815" stroke-width="0.5" stroke-linecap="round" stroke-linejoin="round"/>
<path d="M54.92 60.94C55 61.09 55.1 61.23 55.22 61.35" stroke="#231815" stroke-width="0.5" stroke-linecap="round" stroke-linejoin="round"/>
<path d="M57.85 57C57.39 57 56.96 57.18 56.63 57.5" stroke="#231815" stroke-width="0.5" stroke-linecap="round" stroke-linejoin="round"/>
<path d="M56.64 62.77C56.96 63.09 57.4 63.27 57.86 63.27" stroke="#231815" stroke-width="0.5" stroke-linecap="round" stroke-linejoin="round"/>
<path d="M55.22 58.9301C54.69 59.4601 54.56 60.2801 54.92 60.9501" stroke="#231815" stroke-width="0.5" stroke-linecap="round" stroke-linejoin="round"/>
<path d="M131.43 460.32C134.67 459.2 137.64 457.43 140.17 455.11" stroke="#231815" stroke-width="0.5" stroke-linecap="round" stroke-linejoin="round"/>
<path d="M130.95 458.13C133.9 457.12 136.62 455.51 138.93 453.4" stroke="#231815" stroke-width="0.5" stroke-linecap="round" stroke-linejoin="round"/>
<path d="M140.17 455.11C143.26 452.27 145.05 448.3 145.13 444.11" stroke="#231815" stroke-width="0.5" stroke-linecap="round" stroke-linejoin="round"/>
<path d="M138.93 453.4C141.57 451 143.1 447.62 143.17 444.06" stroke="#231815" stroke-width="0.5" stroke-linecap="round" stroke-linejoin="round"/>
<path d="M113.08 32.49C94.82 31.01 76.47 31.01 58.21 32.49" stroke="#231815" stroke-width="0.5" stroke-linecap="round" stroke-linejoin="round"/>
<path d="M113.1 30.18C94.83 28.69 76.46 28.69 58.18 30.18" stroke="#231815" stroke-width="0.5" stroke-linecap="round" stroke-linejoin="round"/>
<path d="M113.1 464.17C119.35 463.66 125.5 462.36 131.43 460.32" stroke="#231815" stroke-width="0.5" stroke-linecap="round" stroke-linejoin="round"/>
<path d="M113.08 461.87C119.17 461.38 125.17 460.12 130.95 458.14" stroke="#231815" stroke-width="0.5" stroke-linecap="round" stroke-linejoin="round"/>
<path d="M26.09 436.59C26.09 439.1 26.11 441.6 26.16 444.11" stroke="#231815" stroke-width="0.5" stroke-linecap="round" stroke-linejoin="round"/>
<path d="M28.05 436.59C28.05 439.08 28.07 441.57 28.12 444.06" stroke="#231815" stroke-width="0.5" stroke-linecap="round" stroke-linejoin="round"/>
<path d="M58.21 461.87C76.47 463.35 94.82 463.35 113.08 461.87" stroke="#231815" stroke-width="0.5" stroke-linecap="round" stroke-linejoin="round"/>
<path d="M58.19 464.17C76.46 465.66 94.83 465.66 113.11 464.17" stroke="#231815" stroke-width="0.5" stroke-linecap="round" stroke-linejoin="round"/>
<path d="M131.43 34.04C125.51 31.99 119.35 30.7 113.1 30.19" stroke="#231815" stroke-width="0.5" stroke-linecap="round" stroke-linejoin="round"/>
<path d="M130.95 36.2201C125.17 34.2301 119.17 32.9801 113.08 32.4901" stroke="#231815" stroke-width="0.5" stroke-linecap="round" stroke-linejoin="round"/>
<path d="M140.17 39.25C137.65 36.93 134.67 35.16 131.43 34.04" stroke="#231815" stroke-width="0.5" stroke-linecap="round" stroke-linejoin="round"/>
<path d="M138.93 40.95C136.62 38.84 133.91 37.23 130.95 36.22" stroke="#231815" stroke-width="0.5" stroke-linecap="round" stroke-linejoin="round"/>
<path d="M145.13 50.25C145.05 46.06 143.25 42.08 140.17 39.25" stroke="#231815" stroke-width="0.5" stroke-linecap="round" stroke-linejoin="round"/>
<path d="M116.38 59.33C116.3 59.18 116.2 59.04 116.08 58.92" stroke="#231815" stroke-width="0.5" stroke-linecap="round" stroke-linejoin="round"/>
<path d="M113.44 63.27C113.9 63.27 114.33 63.09 114.66 62.77" stroke="#231815" stroke-width="0.5" stroke-linecap="round" stroke-linejoin="round"/>
<path d="M114.66 57.51C114.34 57.19 113.9 57.01 113.44 57.01" stroke="#231815" stroke-width="0.5" stroke-linecap="round" stroke-linejoin="round"/>
<path d="M116.07 61.35C116.6 60.82 116.73 60 116.37 59.33" stroke="#231815" stroke-width="0.5" stroke-linecap="round" stroke-linejoin="round"/>
<path d="M26.16 50.25C26.11 52.75 26.09 55.26 26.09 57.77" stroke="#231815" stroke-width="0.5" stroke-linecap="round" stroke-linejoin="round"/>
<path d="M28.12 50.3C28.07 52.79 28.05 55.2801 28.05 57.7701" stroke="#231815" stroke-width="0.5" stroke-linecap="round" stroke-linejoin="round"/>
<path d="M156.62 234.42C156.62 227.34 156.62 220.27 156.62 213.19C156.62 206.11 156.62 199.04 156.62 191.96C156.62 184.88 156.62 177.81 156.62 170.73C156.62 163.65 156.62 156.58 156.62 149.5C156.62 145.96 156.62 142.42 156.62 138.89C156.62 135.35 156.62 131.81 156.62 128.28C156.62 124.74 156.62 121.2 156.62 117.67C156.62 114.13 156.62 110.59 156.62 107.06C156.62 103.52 156.62 99.98 156.62 96.45C156.62 92.91 156.62 89.37 156.62 85.84C156.62 82.3 156.62 78.76 156.62 75.23C156.62 71.69 156.62 68.15 156.62 64.62C156.62 62.85 156.62 61.08 156.62 59.31C156.62 57.54 156.62 55.77 156.62 54C156.62 53.12 156.62 52.23 156.62 51.35C156.62 50.47 156.59 49.58 156.55 48.7C156.51 47.82 156.45 46.93 156.37 46.05C156.29 45.17 156.18 44.29 156.05 43.41C155.92 42.53 155.77 41.66 155.57 40.8C155.37 39.94 155.13 39.09 154.84 38.25C154.55 37.41 154.2 36.6 153.81 35.8C153.42 35 153 34.23 152.53 33.47C152.06 32.71 151.55 31.99 151 31.3C150.45 30.61 149.86 29.94 149.24 29.31C148.62 28.68 147.97 28.08 147.3 27.5C146.63 26.92 145.93 26.37 145.23 25.84C144.53 25.31 143.8 24.8 143.05 24.32C142.3 23.84 141.55 23.38 140.78 22.95C140.01 22.52 139.22 22.11 138.42 21.73C137.62 21.35 136.81 21 135.98 20.68C135.15 20.36 134.32 20.06 133.49 19.77C132.65 19.49 131.81 19.22 130.96 18.96C130.11 18.7 129.26 18.47 128.41 18.24C127.56 18.01 126.7 17.8 125.83 17.6C124.96 17.4 124.1 17.22 123.23 17.05C122.36 16.88 121.49 16.72 120.62 16.58C119.75 16.44 118.87 16.31 117.99 16.2C117.11 16.09 116.23 16 115.35 15.91C114.47 15.82 113.59 15.76 112.71 15.69C111.83 15.62 110.95 15.56 110.06 15.5C109.17 15.44 108.3 15.38 107.41 15.33C106.52 15.28 105.64 15.22 104.76 15.17C102.99 15.07 101.23 14.99 99.46 14.92C97.69 14.85 95.92 14.79 94.16 14.75C90.62 14.66 87.09 14.63 83.55 14.65C81.78 14.66 80.01 14.69 78.24 14.72C76.47 14.75 74.7 14.81 72.94 14.87C71.18 14.93 69.4 15.01 67.64 15.1C65.87 15.19 64.11 15.29 62.34 15.41C60.57 15.52 58.81 15.65 57.05 15.81C55.29 15.97 53.53 16.15 51.78 16.4C50.9 16.52 50.03 16.67 49.16 16.82C48.29 16.98 47.42 17.15 46.56 17.34C45.7 17.53 44.83 17.73 43.97 17.94C43.11 18.15 42.26 18.38 41.4 18.62C39.7 19.1 38.01 19.64 36.35 20.26C34.69 20.88 33.06 21.58 31.49 22.4C29.92 23.22 28.41 24.15 26.96 25.17C25.51 26.19 24.13 27.31 22.84 28.52" stroke="#231815" stroke-linecap="round" stroke-linejoin="round"/>
<path d="M98.49 479.45C99.98 479.4 101.47 479.33 102.96 479.26C104.45 479.19 105.94 479.1 107.43 479.01C108.92 478.92 110.41 478.82 111.9 478.71C113.39 478.6 114.88 478.48 116.36 478.33C117.1 478.25 117.84 478.17 118.58 478.07C119.32 477.97 120.06 477.86 120.79 477.74C121.52 477.62 122.26 477.49 122.99 477.35C123.72 477.21 124.45 477.06 125.18 476.9C125.91 476.74 126.64 476.57 127.36 476.39C128.08 476.21 128.8 476.02 129.52 475.81C130.24 475.6 130.95 475.4 131.67 475.17C132.39 474.94 133.09 474.72 133.8 474.48C134.51 474.24 135.21 473.98 135.9 473.71C136.59 473.44 137.28 473.15 137.96 472.84C138.64 472.53 139.31 472.2 139.97 471.85C140.63 471.5 141.28 471.13 141.92 470.75C143.2 469.98 144.43 469.14 145.62 468.23C146.21 467.78 146.79 467.31 147.36 466.82C147.93 466.33 148.48 465.83 149.01 465.3C149.54 464.77 150.05 464.23 150.53 463.66C151.01 463.09 151.47 462.5 151.89 461.88C152.31 461.26 152.71 460.63 153.08 459.98C153.45 459.33 153.79 458.66 154.09 457.98C154.4 457.3 154.67 456.6 154.91 455.9C155.15 455.19 155.35 454.47 155.53 453.75C155.71 453.03 155.85 452.29 155.97 451.55C156.09 450.81 156.19 450.07 156.27 449.33C156.43 447.85 156.51 446.35 156.56 444.86C156.61 443.37 156.62 441.88 156.62 440.38C156.62 438.89 156.62 437.4 156.62 435.9C156.62 434.4 156.62 432.92 156.62 431.42C156.62 429.93 156.62 428.44 156.62 426.94C156.62 425.44 156.62 423.96 156.62 422.46C156.62 419.48 156.62 416.49 156.62 413.51C156.62 410.53 156.62 407.54 156.62 404.56C156.62 401.58 156.62 398.59 156.62 395.61C156.62 392.63 156.62 389.64 156.62 386.66C156.62 383.68 156.62 380.69 156.62 377.71C156.62 371.74 156.62 365.77 156.62 359.8C156.62 353.83 156.62 347.86 156.62 341.89C156.62 335.92 156.62 329.95 156.62 323.98C156.62 318.01 156.62 312.04 156.62 306.07C156.62 300.1 156.62 294.13 156.62 288.16C156.62 282.19 156.62 276.22 156.62 270.25C156.62 258.31 156.62 246.37 156.62 234.44" stroke="#231815" stroke-linecap="round" stroke-linejoin="round"/>
<path d="M22.84 28.55C21.89 29.44 21 30.4 20.19 31.43C19.38 32.46 18.67 33.56 18.05 34.7C17.74 35.27 17.45 35.86 17.18 36.45C16.91 37.04 16.67 37.65 16.45 38.27C16.23 38.89 16.04 39.51 15.87 40.14C15.7 40.77 15.57 41.41 15.45 42.05C15.33 42.69 15.24 43.34 15.16 43.98C15.08 44.62 15 45.27 14.94 45.92C14.88 46.57 14.82 47.22 14.78 47.87C14.74 48.52 14.71 49.17 14.69 49.82C14.65 51.12 14.66 52.42 14.66 53.72C14.66 55.02 14.66 56.32 14.66 57.62C14.66 58.92 14.66 60.2201 14.66 61.5201C14.66 62.8201 14.66 64.11 14.66 65.41C14.66 66.71 14.66 68 14.66 69.3C14.66 70.6 14.66 71.89 14.66 73.19C14.66 75.78 14.66 78.3601 14.66 80.9501C14.66 83.5401 14.66 86.1201 14.66 88.7001C14.66 91.2801 14.66 93.86 14.66 96.44C14.66 99.02 14.66 101.59 14.66 104.16C14.66 109.3 14.66 114.43 14.66 119.57C14.66 124.69 14.66 129.82 14.66 134.94C14.66 140.06 14.66 145.16 14.66 150.27C14.66 155.37 14.66 160.47 14.66 165.58C14.66 170.69 14.66 175.77 14.66 180.87C14.66 191.05 14.66 201.24 14.66 211.42C14.66 221.61 14.66 231.81 14.66 242C14.66 252.22 14.66 262.44 14.66 272.65C14.66 282.9 14.66 293.16 14.66 303.41C14.66 308.55 14.66 313.69 14.66 318.83C14.66 323.97 14.66 329.13 14.66 334.28C14.66 339.44 14.66 344.6 14.66 349.76C14.66 354.93 14.66 360.1 14.66 365.26C14.66 370.44 14.66 375.61 14.66 380.79C14.66 385.97 14.66 391.15 14.66 396.34C14.66 398.93 14.66 401.53 14.66 404.12C14.66 406.71 14.66 409.31 14.66 411.9C14.66 414.5 14.66 417.09 14.66 419.69C14.66 422.29 14.66 424.88 14.66 427.48C14.66 428.78 14.66 430.08 14.66 431.37C14.66 432.67 14.66 433.97 14.66 435.27C14.66 436.57 14.66 437.87 14.66 439.17C14.66 439.82 14.66 440.47 14.66 441.12C14.66 441.77 14.66 442.42 14.66 443.07C14.66 443.72 14.68 444.37 14.7 445.02C14.72 445.67 14.76 446.32 14.81 446.97C14.86 447.62 14.91 448.26 14.98 448.91C15.05 449.56 15.12 450.2 15.21 450.84C15.3 451.48 15.4 452.13 15.53 452.76C15.66 453.39 15.81 454.03 15.98 454.65C16.15 455.27 16.36 455.89 16.59 456.5C16.82 457.11 17.07 457.71 17.34 458.3C17.89 459.48 18.54 460.61 19.27 461.68C20 462.75 20.82 463.77 21.71 464.71C22.16 465.18 22.62 465.63 23.1 466.07C23.58 466.51 24.07 466.93 24.57 467.35C25.57 468.18 26.62 468.95 27.69 469.68C28.77 470.4 29.88 471.08 31.02 471.7C32.16 472.32 33.34 472.88 34.53 473.38C35.72 473.88 36.95 474.32 38.18 474.73C39.41 475.14 40.66 475.52 41.91 475.86C43.16 476.21 44.42 476.53 45.69 476.81C46.96 477.1 48.23 477.35 49.51 477.58C50.79 477.81 52.07 478 53.36 478.16C54.65 478.32 55.94 478.44 57.23 478.55C58.52 478.66 59.82 478.75 61.11 478.84C62.4 478.93 63.7 479.01 64.99 479.09C66.28 479.17 67.58 479.24 68.88 479.3C70.18 479.36 71.47 479.42 72.77 479.46" stroke="#231815" stroke-linecap="round" stroke-linejoin="round"/>
<path d="M73.24 479.03C73.24 479.14 73.19 479.25 73.11 479.33C73.03 479.41 72.91 479.45 72.8 479.45" stroke="#231815" stroke-linecap="round" stroke-linejoin="round"/>
<path d="M98.49 479.45C98.38 479.45 98.26 479.41 98.18 479.33C98.1 479.25 98.05 479.14 98.05 479.03" stroke="#231815" stroke-linecap="round" stroke-linejoin="round"/>
<path d="M28.71 36.27C29.32 35.73 29.96 35.21 30.62 34.73C31.28 34.25 31.96 33.79 32.65 33.36C33.35 32.93 34.06 32.54 34.79 32.17C35.52 31.8 36.27 31.47 37.03 31.17C37.79 30.87 38.56 30.61 39.34 30.36C40.12 30.11 40.9 29.88 41.69 29.66C42.48 29.44 43.27 29.23 44.06 29.04C44.85 28.85 45.65 28.66 46.45 28.49C48.05 28.15 49.67 27.85 51.29 27.61C52.92 27.37 54.55 27.17 56.19 27.03C57.83 26.89 59.48 26.79 61.13 26.69C62.78 26.59 64.43 26.51 66.08 26.43C67.73 26.35 69.39 26.29 71.05 26.23C72.71 26.17 74.37 26.13 76.02 26.09C77.68 26.05 79.34 26.02 81 26.01C82.66 25.99 84.32 25.98 85.98 25.98C89.3 25.98 92.62 26.03 95.94 26.11C97.6 26.15 99.26 26.2 100.91 26.26C102.56 26.32 104.22 26.39 105.87 26.47C107.52 26.55 109.17 26.64 110.82 26.74C112.47 26.84 114.11 26.94 115.75 27.1C116.57 27.18 117.39 27.27 118.2 27.37C119.02 27.47 119.83 27.59 120.64 27.72C121.45 27.85 122.26 27.99 123.07 28.15C123.88 28.3 124.68 28.47 125.48 28.65C126.28 28.83 127.08 29.02 127.87 29.22C128.66 29.42 129.45 29.64 130.24 29.87C131.81 30.32 133.37 30.81 134.88 31.45C135.63 31.77 136.37 32.12 137.09 32.5C137.81 32.88 138.52 33.3 139.2 33.74C139.88 34.18 140.55 34.66 141.2 35.16C141.85 35.66 142.47 36.19 143.06 36.76C143.65 37.33 144.21 37.93 144.72 38.58C145.23 39.22 145.7 39.9 146.12 40.61C146.54 41.32 146.92 42.06 147.24 42.82C147.56 43.58 147.83 44.37 148.05 45.17C148.27 45.97 148.43 46.79 148.53 47.61C148.58 48.02 148.62 48.44 148.64 48.85C148.66 49.26 148.68 49.68 148.69 50.09C148.7 50.5 148.71 50.92 148.72 51.34C148.73 51.76 148.74 52.17 148.75 52.59C148.77 53.42 148.78 54.25 148.78 55.08C148.78 55.91 148.78 56.74 148.78 57.57C148.78 58.4 148.78 59.23 148.78 60.06C148.78 61.72 148.78 63.38 148.78 65.04C148.78 66.7 148.78 68.36 148.78 70.02C148.78 71.68 148.78 73.34 148.78 75C148.78 76.66 148.78 78.32 148.78 79.98C148.78 81.64 148.78 83.3 148.78 84.96C148.78 88.28 148.78 91.6 148.78 94.93C148.78 98.25 148.78 101.57 148.78 104.9C148.78 108.22 148.78 111.54 148.78 114.87C148.78 118.2 148.78 121.51 148.78 124.84C148.78 128.16 148.78 131.48 148.78 134.81C148.78 141.45 148.78 148.1 148.78 154.74C148.78 161.38 148.78 168.03 148.78 174.67C148.78 181.31 148.78 187.96 148.78 194.6C148.78 201.24 148.78 207.89 148.78 214.53C148.78 221.17 148.78 227.82 148.78 234.46" stroke="#9FA0A0" stroke-linecap="round" stroke-linejoin="round"/>
<path d="M148.78 234.42C148.78 242.12 148.78 249.82 148.78 257.52C148.78 265.22 148.78 272.92 148.78 280.62C148.78 288.32 148.78 296.02 148.78 303.72C148.78 311.42 148.78 319.12 148.78 326.82C148.78 330.67 148.78 334.52 148.78 338.37C148.78 342.22 148.78 346.07 148.78 349.92C148.78 353.77 148.78 357.62 148.78 361.47C148.78 365.32 148.78 369.17 148.78 373.02C148.78 376.87 148.78 380.72 148.78 384.57C148.78 388.42 148.78 392.27 148.78 396.12C148.78 399.97 148.78 403.82 148.78 407.67C148.78 409.59 148.78 411.52 148.78 413.44C148.78 415.36 148.78 417.29 148.78 419.21C148.78 421.13 148.78 423.06 148.78 424.98C148.78 426.9 148.78 428.83 148.78 430.75C148.78 431.71 148.78 432.67 148.78 433.64C148.78 434.61 148.78 435.56 148.77 436.53C148.77 437.01 148.77 437.49 148.76 437.97C148.75 438.45 148.76 438.93 148.74 439.41C148.72 439.89 148.73 440.37 148.72 440.85C148.71 441.33 148.7 441.81 148.68 442.29C148.66 442.77 148.65 443.25 148.63 443.73C148.61 444.21 148.6 444.69 148.57 445.17C148.54 445.65 148.51 446.13 148.46 446.61C148.41 447.09 148.34 447.56 148.25 448.04C148.07 448.98 147.81 449.91 147.48 450.81C147.15 451.71 146.75 452.58 146.28 453.42C145.81 454.26 145.28 455.05 144.69 455.8C144.1 456.55 143.45 457.24 142.75 457.89C142.05 458.54 141.32 459.14 140.55 459.7C139.78 460.26 139 460.78 138.18 461.27C137.36 461.76 136.53 462.2 135.67 462.6C134.81 463 133.93 463.35 133.03 463.66C132.13 463.97 131.23 464.24 130.32 464.5C129.41 464.76 128.49 465.01 127.58 465.24C126.67 465.47 125.74 465.69 124.81 465.88C123.88 466.07 122.95 466.26 122.01 466.43C121.07 466.6 120.13 466.75 119.19 466.88C118.25 467.01 117.3 467.13 116.35 467.23C114.45 467.43 112.54 467.55 110.63 467.66C108.72 467.77 106.8 467.87 104.89 467.96C102.98 468.05 101.05 468.13 99.14 468.19C97.22 468.25 95.3 468.3 93.37 468.33C91.45 468.36 89.52 468.39 87.6 468.4C85.68 468.4 83.75 468.4 81.83 468.39C79.91 468.37 77.98 468.34 76.06 468.3C74.14 468.26 72.22 468.2 70.3 468.13C68.38 468.06 66.47 467.97 64.55 467.87C63.59 467.82 62.64 467.77 61.68 467.72C60.72 467.67 59.77 467.61 58.82 467.55C57.87 467.49 56.91 467.42 55.96 467.34C55.01 467.26 54.06 467.15 53.11 467.03C52.16 466.91 51.22 466.77 50.28 466.62C49.34 466.47 48.41 466.3 47.47 466.11C46.54 465.92 45.61 465.72 44.69 465.5C43.77 465.28 42.85 465.05 41.94 464.8C41.48 464.67 41.03 464.55 40.57 464.41C40.11 464.27 39.66 464.14 39.21 464C38.31 463.71 37.41 463.4 36.54 463.04C35.67 462.68 34.81 462.27 33.98 461.82C33.15 461.37 32.34 460.87 31.56 460.34C30.78 459.81 30.02 459.24 29.29 458.63C28.56 458.02 27.87 457.36 27.24 456.66C26.6 455.95 26.02 455.19 25.51 454.39C25 453.59 24.54 452.74 24.15 451.87C23.76 451 23.45 450.08 23.21 449.15C23.09 448.69 22.99 448.22 22.9 447.74C22.81 447.26 22.75 446.79 22.71 446.31C22.67 445.83 22.64 445.35 22.62 444.87C22.6 444.39 22.58 443.91 22.57 443.43C22.56 442.95 22.54 442.47 22.52 441.99C22.5 441.51 22.5 441.03 22.49 440.55C22.47 439.59 22.46 438.63 22.45 437.66C22.45 436.7 22.44 435.74 22.44 434.77" stroke="#9FA0A0" stroke-linecap="round" stroke-linejoin="round"/>
<path d="M32.36 453.4C31.06 452.21 29.99 450.74 29.26 449.12C28.54 447.53 28.15 445.78 28.12 444.05" stroke="#231815" stroke-width="0.5" stroke-linecap="round" stroke-linejoin="round"/>
<path d="M138.93 40.95C140.23 42.14 141.3 43.61 142.03 45.23C142.75 46.82 143.14 48.57 143.17 50.3" stroke="#231815" stroke-width="0.5" stroke-linecap="round" stroke-linejoin="round"/>
<path d="M55.22 58.92L56.64 57.51" stroke="#231815" stroke-width="0.5" stroke-linecap="round" stroke-linejoin="round"/>
<path d="M56.64 62.77L55.22 61.35" stroke="#231815" stroke-width="0.5" stroke-linecap="round" stroke-linejoin="round"/>
<path d="M116.07 61.35L114.65 62.77" stroke="#231815" stroke-width="0.5" stroke-linecap="round" stroke-linejoin="round"/>
<path d="M114.65 57.51L116.07 58.92" stroke="#231815" stroke-width="0.5" stroke-linecap="round" stroke-linejoin="round"/>
<path d="M22.47 434.75C22.47 432.66 22.47 430.58 22.47 428.49C22.47 426.4 22.47 424.32 22.47 422.23C22.47 418.06 22.47 413.89 22.47 409.72C22.47 405.55 22.47 401.38 22.47 397.21C22.47 393.04 22.47 388.87 22.47 384.7C22.47 376.36 22.47 368.02 22.47 359.68C22.47 351.34 22.47 343 22.47 334.66C22.47 326.32 22.47 317.98 22.47 309.64C22.47 301.3 22.47 292.96 22.47 284.62C22.47 276.28 22.47 267.94 22.47 259.6C22.47 251.26 22.47 242.92 22.47 234.58C22.47 226.24 22.47 217.9 22.47 209.56C22.47 201.22 22.47 192.88 22.47 184.54C22.47 176.2 22.47 167.86 22.47 159.52C22.47 151.18 22.47 142.84 22.47 134.5C22.47 130.33 22.47 126.16 22.47 121.99C22.47 117.82 22.47 113.65 22.47 109.48C22.47 105.31 22.47 101.14 22.47 96.97C22.47 94.88 22.47 92.8 22.47 90.71C22.47 88.62 22.47 86.54 22.47 84.45C22.47 82.36 22.47 80.28 22.47 78.19C22.47 76.1 22.47 74.02 22.47 71.93C22.47 69.84 22.47 67.76 22.47 65.67C22.47 64.63 22.47 63.58 22.47 62.54C22.47 61.5 22.47 60.45 22.47 59.41C22.47 58.37 22.47 57.32 22.47 56.28C22.47 55.76 22.47 55.24 22.48 54.72C22.49 54.2 22.49 53.68 22.5 53.16C22.51 52.64 22.52 52.12 22.54 51.6C22.56 51.08 22.56 50.56 22.58 50.04C22.6 49.52 22.61 49 22.65 48.48C22.69 47.96 22.75 47.44 22.83 46.93C22.99 45.9 23.25 44.89 23.59 43.91C23.93 42.93 24.35 41.98 24.85 41.07C25.35 40.16 25.92 39.3 26.57 38.49C27.22 37.69 27.93 36.94 28.7 36.26" stroke="#9FA0A0" stroke-linecap="round" stroke-linejoin="round"/>
<path d="M84.6 146.81C83.36 145.95 82.12 145.1 80.88 144.24C80.28 143.82 79.87 143.19 79.74 142.47C79.61 141.75 79.76 141.01 80.18 140.41C81.04 139.16 82.75 138.85 84 139.71C86.38 141.35 88.76 142.99 91.14 144.63C91.44 144.84 91.52 145.25 91.31 145.56C91.1 145.86 90.69 145.94 90.38 145.73C88 144.09 85.62 142.45 83.25 140.81C82.61 140.37 81.72 140.53 81.28 141.17C81.07 141.48 80.99 141.86 81.06 142.23C81.13 142.6 81.34 142.93 81.65 143.14C82.98 144.06 84.31 144.97 85.63 145.89C85.81 146.01 85.91 146.21 85.92 146.42C85.94 147.03 86.13 147.84 86.32 148.41C86.53 149.06 86.82 149.68 87.17 150.26C87.87 151.44 88.81 152.42 89.93 153.21C90.23 153.42 90.3 153.84 90.09 154.14C89.96 154.32 89.76 154.42 89.55 154.42C89.41 154.42 89.28 154.38 89.17 154.3C87.93 153.42 86.88 152.34 86.09 151.04C85.33 149.79 84.77 148.27 84.62 146.8L84.6 146.81Z" fill="#4C4948"/>
<path d="M80.07 155.04C79.43 155.04 78.84 154.7 78.52 154.13C75.65 149.02 72.79 143.92 69.92 138.81C69.69 138.4 69.63 137.92 69.76 137.46C69.89 137.01 70.19 136.62 70.6 136.39C73.56 134.73 76.52 133.06 79.47 131.39C79.88 131.16 80.36 131.1 80.82 131.23C81.28 131.36 81.66 131.66 81.89 132.07C83.2 134.41 84.52 136.75 85.83 139.1C85.92 139.26 85.94 139.44 85.89 139.61C85.84 139.78 85.73 139.92 85.58 140.01C85.26 140.19 84.85 140.08 84.67 139.76C83.36 137.42 82.04 135.07 80.73 132.73C80.67 132.63 80.58 132.55 80.46 132.52C80.35 132.49 80.23 132.5 80.12 132.56C77.16 134.22 74.2 135.89 71.25 137.55C71.15 137.61 71.07 137.71 71.04 137.82C71.01 137.93 71.02 138.05 71.08 138.16C73.95 143.27 76.81 148.37 79.68 153.48C79.8 153.69 80.07 153.77 80.28 153.65C81.75 152.81 83.22 151.97 84.68 151.12C85 150.94 85.41 151.05 85.59 151.37C85.68 151.53 85.7 151.7 85.65 151.88C85.6 152.05 85.49 152.2 85.34 152.28C83.87 153.12 82.4 153.97 80.93 154.81C80.66 154.96 80.36 155.04 80.06 155.04H80.07Z" fill="#4C4948"/>
<path d="M88.13 137.07C87.33 137.22 86.53 137.36 85.73 137.51C85.37 137.58 85.02 137.34 84.96 136.98C84.93 136.8 84.96 136.63 85.07 136.48C85.17 136.33 85.32 136.24 85.5 136.2C86.41 136.03 87.32 135.86 88.23 135.7C88.44 135.66 88.65 135.73 88.81 135.87C91.54 138.47 94.28 141.06 97.01 143.66C97.1 143.74 97.16 143.85 97.19 143.96C97.59 145.36 97.67 147.35 97.56 148.79C97.44 150.41 97.09 152.01 96.5 153.52C96.4 153.78 96.15 153.95 95.88 153.95C95.8 153.95 95.72 153.93 95.64 153.9C95.47 153.83 95.34 153.71 95.27 153.55C95.2 153.39 95.19 153.21 95.27 153.04C96.27 150.45 96.6 147.21 95.96 144.49C93.36 142.02 90.75 139.54 88.15 137.07H88.13Z" fill="#4C4948"/>
<path d="M66.88 315.67C78.28 321.49 93.36 321.49 104.61 315.67" stroke="#808080" stroke-width="0.25" stroke-miterlimit="10"/>
<path d="M125.21 316.29C130.68 308.48 133.89 298.96 133.89 288.7C133.89 283.75 133.14 278.98 131.76 274.49C127.63 252.83 108.61 236.45 85.75 236.45C62.89 236.45 43.86 252.83 39.74 274.49C38.35 278.98 37.61 283.75 37.61 288.7C37.61 299.7 41.3 309.83 47.5 317.94" stroke="#808080" stroke-width="0.25" stroke-linecap="round" stroke-linejoin="round"/>
<path d="M141.01 283.31C141.01 313.83 116.27 338.57 85.75 338.57C55.23 338.57 30.49 313.83 30.49 283.31C30.49 252.79 55.23 228.05 85.75 228.05C116.27 228.05 141.01 252.79 141.01 283.31Z" stroke="black" stroke-width="0.25" stroke-linecap="round" stroke-linejoin="round"/>
<path d="M87.7079 334.972C116.24 333.881 138.486 309.867 137.394 281.334C136.303 252.802 112.289 230.557 83.7566 231.648C55.2243 232.739 32.9789 256.753 34.07 285.286C35.1611 313.818 59.1756 336.063 87.7079 334.972Z" stroke="black" stroke-width="0.5" stroke-miterlimit="10"/>
<path d="M114.63 317.56C116.04 316.62 116.71 316.09 117.06 315.43C121.57 306.9 121.05 294.27 117.6 288.13V276.75C114.74 261.74 101.56 250.39 85.72 250.39H85.8C69.96 250.39 56.78 261.74 53.92 276.75V288.13C50.47 294.27 49.94 306.9 54.46 315.43C54.81 316.08 55.47 316.61 56.89 317.56C72.81 326.86 99.31 327.09 114.64 317.56H114.63Z" stroke="#808080" stroke-width="0.25" stroke-linecap="round" stroke-linejoin="round"/>
<path d="M67.42 322.28C62.32 322.28 60.62 322.23 58.7 321.02C57.05 319.98 56.5 318.91 56.5 317.47L55.28 269.61C55.28 266.96 57 265.09 59.97 265.09H111.55C114.52 265.09 116.24 266.96 116.24 269.61L115.02 317.47C115.02 318.91 114.47 319.98 112.82 321.02C110.9 322.23 109.2 322.28 104.1 322.28H67.43H67.42Z" stroke="black" stroke-width="0.5" stroke-miterlimit="10"/>
<path d="M67.12 315.14V297.78H104.37V315.23L99.45 316.37H72.1L67.12 315.14Z" fill="url(#paint0_linear_580_2275)"/>
<path d="M56.13 290.25C60.47 286.61 76.35 281.06 85.21 281.06H86.3C95.16 281.06 111.03 286.61 115.37 290.25" stroke="black" stroke-width="0.5" stroke-linecap="round" stroke-linejoin="round"/>
<path d="M59.63 312.48C60.73 313.32 63.35 314.36 66.88 315.14C76.19 318.71 95.49 318.71 104.61 315.14C108.14 314.36 110.76 313.32 111.86 312.48" stroke="black" stroke-width="0.5" stroke-miterlimit="10"/>
<path d="M111.86 312.48C112.25 312.18 112.48 311.55 112.54 310.87C112.97 306.17 111.92 295.1 110.9 292.14C110.33 290.49 107.27 288.53 104.51 287.77C98.52 286.13 92.43 285.13 86.3 285.13H85.21C79.08 285.13 72.98 286.13 67 287.77C64.24 288.53 61.18 290.49 60.61 292.14C59.58 295.1 58.54 306.17 58.97 310.87C59.03 311.55 59.26 312.18 59.65 312.48" stroke="black" stroke-width="0.5" stroke-linecap="round" stroke-linejoin="round"/>
<path d="M67.12 315.14V297.78H104.37V315.23" stroke="black" stroke-width="0.5" stroke-miterlimit="10"/>
<path d="M99.45 316.37H72.1" stroke="black" stroke-width="0.5" stroke-linecap="round" stroke-linejoin="round"/>
<path d="M65.7 314.61V296.08H105.8V314.67" stroke="black" stroke-width="0.5" stroke-linecap="round" stroke-linejoin="round"/>
<path d="M107.04 314.13V293.84C107.04 292.44 105.53 292.29 104.06 292.67C104.06 292.67 99.39 293.41 97.78 293.41H73.74C72.12 293.41 67.46 292.67 67.46 292.67C65.99 292.29 64.48 292.44 64.48 293.84V314.13" stroke="#808080" stroke-width="0.25" stroke-miterlimit="10"/>
<path d="M73.73 293.42L79.69 292.57C81.87 292.16 89.42 292.28 92.58 292.68L97.77 293.42" stroke="#808080" stroke-width="0.25" stroke-miterlimit="10"/>
<path d="M68.97 386.65C68.97 386.99 68.97 387.54 68.66 387.85C68.45 388.06 68.11 388.17 67.65 388.17H66.27C66.03 388.17 65.61 388.17 65.3 387.86C65.05 387.61 64.93 387.2 64.93 386.65V381.58H63.41V386.67C63.41 387.37 63.63 389.67 65.87 389.67H68.14C69.04 389.67 70.51 389.28 70.51 386.67V381.58H68.97V386.64V386.65Z" fill="#9FA0A0"/>
<path d="M59.49 384.65L57.61 384.41C57.26 384.35 56.67 384.26 56.67 383.65C56.67 382.78 57.02 382.58 58.53 382.58H58.91C59.82 382.58 60.68 382.71 61.71 382.99C61.71 382.63 61.71 381.96 61.71 381.96C61.58 381.71 60.21 381.22 58.85 381.22H58.47C56.2 381.22 55.1 382.05 55.1 383.77C55.1 385.49 56.49 385.76 57.8 385.96L58.64 386.08C59.26 386.16 59.64 386.21 59.85 386.3C60.22 386.45 60.46 386.55 60.46 387.23C60.46 388.31 59.66 388.38 58.35 388.38H57.97C57.12 388.38 56.13 388.14 55.11 387.71V388.72C55.11 389.09 56.45 389.69 58.03 389.69H58.38C60.92 389.69 62.1 388.84 62.1 387.03C62.1 385.22 60.79 384.84 59.5 384.64L59.49 384.65Z" fill="#9FA0A0"/>
<path d="M76.67 381.23H76.42C73.34 381.23 72.2 382.39 72.2 385.51V389.59H73.84C73.84 388.69 73.84 385.51 73.84 385.51C73.84 383.03 74.42 382.59 76.1 382.59H76.51C78.15 382.59 78.46 383.22 78.46 384.37C78.46 385.08 78.21 385.85 77.5 385.85H74.53V386.88C75.14 386.98 76.34 387.05 77.08 387.05C79.6 387.05 80.13 385.62 80.13 384.42C80.13 382.43 78.83 381.24 76.66 381.24L76.67 381.23Z" fill="#9FA0A0"/>
<path d="M81.48 384.29V389.59H83.09V384.41C83.09 382.91 83.39 382.71 84.59 382.71H86.14V381.41C85.68 381.34 84.65 381.24 84.08 381.24C83.11 381.24 81.48 381.64 81.48 384.3V384.29Z" fill="#9FA0A0"/>
<path d="M92.02 385.01H89.05V386.04C89.66 386.14 90.86 386.21 91.61 386.21C92.75 386.21 94.66 385.94 94.66 384.14C94.66 381.74 92.78 381.24 91.2 381.24H90.94C87.86 381.24 86.71 382.4 86.71 385.52C86.71 388.64 87.88 389.72 90.75 389.72H90.97C92.88 389.72 94.31 389.21 94.31 388.75V387.87C93.21 388.16 92.36 388.33 91.26 388.33H90.91C89.37 388.33 88.35 388.13 88.35 385.52C88.35 382.91 88.95 382.6 90.62 382.6H91.03C92.6 382.6 92.98 382.89 92.98 384.1C92.98 384.73 92.67 385.02 92.02 385.02V385.01Z" fill="#9FA0A0"/>
<path d="M104.31 381.37H103.31C102.05 381.37 101.5 382.11 101.5 382.11C100.94 381.51 100.01 381.37 99.69 381.37H98.76C96.34 381.37 96.18 383.63 96.18 384.35V389.59H97.62V384.35C97.62 383.68 97.7 382.66 99.12 382.66C100.54 382.66 100.75 383.41 100.75 384.35V389.59H102.24V384.35C102.24 383.3 102.64 382.65 103.75 382.65C104.86 382.65 105.36 383.21 105.36 384.35V389.59H106.81V384.35C106.81 381.37 104.55 381.37 104.32 381.37H104.31Z" fill="#9FA0A0"/>
<path d="M116.18 385.46C116.18 381.99 114.63 381.25 111.87 381.25C109.11 381.25 108.58 382.05 108.58 382.21V383.09C112.79 382.16 113.64 382.88 113.84 383.06C114.04 383.25 114.53 383.66 114.53 385.5C114.53 387.34 114.13 387.72 114 387.86C113.45 388.47 112.18 388.36 111.05 388.29C109.92 388.22 109.92 387.35 109.92 386.9C109.92 386.45 110.09 385.92 110.77 385.92H113.88V385.08C113.52 384.95 111.84 384.73 111.52 384.73C108.71 384.73 108.23 385.97 108.23 386.83C108.23 389.99 111.95 389.73 111.95 389.73C116.64 390.07 116.17 385.47 116.17 385.47L116.18 385.46Z" fill="#9FA0A0"/>
<defs>
<linearGradient id="paint0_linear_580_2275" x1="80.79" y1="320.12" x2="90.73" y2="292.82" gradientUnits="userSpaceOnUse">
<stop stop-color="#BFBFBF"/>
<stop offset="0.12" stop-color="#C2C2C2"/>
<stop offset="0.23" stop-color="#CECECE"/>
<stop offset="0.34" stop-color="#E0E0E0"/>
<stop offset="0.44" stop-color="#FBFBFB"/>
<stop offset="0.45" stop-color="white"/>
<stop offset="0.46" stop-color="#D4D4D4"/>
<stop offset="0.47" stop-color="#CDCDCD"/>
<stop offset="0.48" stop-color="#CCCCCC"/>
<stop offset="1" stop-color="white"/>
</linearGradient>
</defs>
</svg>
