<svg width="102" height="13" viewBox="0 0 102 13" fill="none" xmlns="http://www.w3.org/2000/svg">
<g clip-path="url(#clip0_632_1975)">
<mask id="mask0_632_1975" style="mask-type:luminance" maskUnits="userSpaceOnUse" x="38" y="0" width="25" height="13">
<path d="M39.53 0.25C39.13 0.25 38.81 2.99 38.81 6.37C38.81 9.75 39.13 12.49 39.53 12.49H61.66C62.06 12.49 62.38 9.75 62.38 6.37C62.38 2.99 62.06 0.25 61.66 0.25H39.53Z" fill="white"/>
</mask>
<g mask="url(#mask0_632_1975)">
<path d="M62.39 0.25H38.81V12.5H62.39V0.25Z" fill="white"/>
</g>
<path d="M61.67 0.25H39.54C39.14 0.25 38.82 2.99 38.82 6.37C38.82 9.75 39.14 12.49 39.54 12.49H61.67C62.07 12.49 62.39 9.75 62.39 6.37C62.39 2.99 62.07 0.25 61.67 0.25Z" stroke="#231815" stroke-width="0.5" stroke-miterlimit="10"/>
<path d="M41.53 0.25C41.13 0.25 40.81 2.99 40.81 6.37C40.81 9.75 41.13 12.49 41.53 12.49H43.33C42.93 12.49 42.61 9.75 42.61 6.37C42.61 2.99 42.93 0.25 43.33 0.25H41.53Z" stroke="#231815" stroke-width="0.3" stroke-linecap="round" stroke-linejoin="round"/>
<path d="M0 8.25H38.85C38.94 10.71 39.22 12.49 39.54 12.49H61.68C62 12.49 62.27 10.71 62.37 8.25H101.74M101.72 4.46H62.35C62.25 2.02 61.98 0.25 61.67 0.25H39.53C39.21 0.25 38.94 2.02 38.85 4.46H0" stroke="#231815" stroke-width="0.5" stroke-miterlimit="10"/>
</g>
<defs>
<clipPath id="clip0_632_1975">
<rect width="101.72" height="12.75" fill="white"/>
</clipPath>
</defs>
</svg>
