<svg width="287" height="241" viewBox="0 0 287 241" fill="none" xmlns="http://www.w3.org/2000/svg">
<g clip-path="url(#clip0_923_9060)">
<path d="M286.39 0H0V240.99H286.39V0Z" fill="white"/>
<path d="M261.24 168.84H250.36" stroke="black" stroke-width="0.42" stroke-linecap="round" stroke-linejoin="round"/>
<path d="M261.24 162.4H249.98" stroke="black" stroke-width="0.42" stroke-linecap="round" stroke-linejoin="round"/>
<path d="M261.24 155.77H250.56" stroke="black" stroke-width="0.42" stroke-linecap="round" stroke-linejoin="round"/>
<path d="M261.24 149.24H250.36" stroke="black" stroke-width="0.42" stroke-linecap="round" stroke-linejoin="round"/>
<path d="M250.37 168.84H24.2" stroke="#727171" stroke-width="2.39" stroke-linecap="square" stroke-linejoin="round"/>
<path d="M250.37 162.4H24.2" stroke="#231815" stroke-width="2.39" stroke-linecap="square" stroke-linejoin="round"/>
<path d="M250.37 149.24H24.2" stroke="#45B035" stroke-width="2.39" stroke-linecap="square" stroke-linejoin="round"/>
<path d="M250.86 154.57C250.86 154.57 250.87 154.57 250.88 154.57C251.21 154.57 251.48 155.11 251.48 155.77C251.48 156.43 251.21 156.97 250.88 156.97C250.88 156.97 250.87 156.97 250.86 156.97H23.63V154.58H250.86V154.57Z" fill="white" stroke="#231815" stroke-width="0.15" stroke-linecap="round" stroke-linejoin="round"/>
<path d="M8.85999 172.07H21.93V174.25H24.2V143.54H21.93V145.71H8.85999V172.07Z" fill="white"/>
<path d="M19.75 172.07V171.02H14.35V166.57H19.75V165.53V164.39H14.35V160.13H19.75V159.09V157.95H14.35V153.5H19.75V152.46V151.42H14.35V147.06H19.75V146.02" stroke="black" stroke-width="0.21" stroke-linecap="round" stroke-linejoin="round"/>
<path d="M11.03 172.07V169.98H13.21V167.8H11.03V165.53V163.35H13.21V161.17H11.03V159.09V156.91H13.21V154.64H11.03V152.46V150.28H13.21V148.1H11.03V146.02" stroke="black" stroke-width="0.21" stroke-linecap="round" stroke-linejoin="round"/>
<path d="M8.85999 172.07H21.93V174.25H24.2V143.54H21.93V145.71H8.85999V172.07Z" stroke="black" stroke-width="0.63" stroke-linecap="round" stroke-linejoin="round"/>
<path d="M21.9299 172.07V145.71" stroke="black" stroke-width="0.21" stroke-linecap="round" stroke-linejoin="round"/>
<path d="M276.56 168.84H261.67" stroke="#727171" stroke-width="2.39" stroke-linecap="square" stroke-linejoin="round"/>
<path d="M276.56 162.4H261.67" stroke="#231815" stroke-width="2.39" stroke-linecap="square" stroke-linejoin="round"/>
<path d="M276.56 149.24H261.67" stroke="#45B035" stroke-width="2.39" stroke-linecap="square" stroke-linejoin="round"/>
<path d="M277.6 154.57C277.63 154.57 277.65 155.11 277.65 155.77C277.65 156.43 277.63 156.97 277.6 156.97H260.58V154.58H277.6V154.57Z" fill="white" stroke="#231815" stroke-width="0.15" stroke-linecap="round" stroke-linejoin="round"/>
<path d="M261.24 133.4H250.35" stroke="black" stroke-width="0.42" stroke-linecap="round" stroke-linejoin="round"/>
<path d="M261.24 126.45H250.35" stroke="black" stroke-width="0.42" stroke-linecap="round" stroke-linejoin="round"/>
<path d="M277.75 126.45H260.47" stroke="#231815" stroke-width="2.39" stroke-linejoin="round"/>
<path d="M277.75 133.4H260.47" stroke="#727171" stroke-width="2.39" stroke-linejoin="round"/>
<path d="M35.45 126.45C33.53 126.45 31.98 128 31.98 129.92" stroke="#727171" stroke-width="2.39" stroke-miterlimit="10"/>
<path d="M31.98 129.92C31.98 131.84 30.42 133.39 28.5 133.39" stroke="#727171" stroke-width="2.39" stroke-miterlimit="10"/>
<path d="M31.98 129.92C31.98 128 30.42 126.45 28.5 126.45" stroke="#231815" stroke-width="2.39" stroke-miterlimit="10"/>
<path d="M35.45 133.4C33.53 133.4 31.98 131.85 31.98 129.93" stroke="#231815" stroke-width="2.39" stroke-miterlimit="10"/>
<path d="M42.4 126.45C40.48 126.45 38.9199 128 38.9199 129.92C38.9199 131.84 37.36 133.39 35.45 133.39" stroke="#231815" stroke-width="2.39" stroke-miterlimit="10"/>
<path d="M42.4 133.4C40.48 133.4 38.9199 131.85 38.9199 129.93C38.9199 128.01 37.36 126.46 35.45 126.46" stroke="#727171" stroke-width="2.39" stroke-miterlimit="10"/>
<path d="M49.35 126.45C47.43 126.45 45.87 128 45.87 129.92C45.87 131.84 44.31 133.39 42.4 133.39" stroke="#727171" stroke-width="2.39" stroke-miterlimit="10"/>
<path d="M49.35 133.4C47.43 133.4 45.87 131.85 45.87 129.93C45.87 128.01 44.31 126.46 42.4 126.46" stroke="#231815" stroke-width="2.39" stroke-miterlimit="10"/>
<path d="M56.3 126.45C54.38 126.45 52.82 128 52.82 129.92C52.82 131.84 51.26 133.39 49.35 133.39" stroke="#231815" stroke-width="2.39" stroke-miterlimit="10"/>
<path d="M56.3 133.4C54.38 133.4 52.82 131.85 52.82 129.93C52.82 128.01 51.26 126.46 49.35 126.46" stroke="#727171" stroke-width="2.39" stroke-miterlimit="10"/>
<path d="M63.2599 126.45C61.3399 126.45 59.7799 128 59.7799 129.92C59.7799 131.84 58.2199 133.39 56.3099 133.39" stroke="#727171" stroke-width="2.39" stroke-miterlimit="10"/>
<path d="M63.2599 133.4C61.3399 133.4 59.7799 131.85 59.7799 129.93C59.7799 128.01 58.2199 126.46 56.3099 126.46" stroke="#231815" stroke-width="2.39" stroke-miterlimit="10"/>
<path d="M70.21 126.45C68.29 126.45 66.73 128 66.73 129.92C66.73 131.84 65.17 133.39 63.26 133.39" stroke="#231815" stroke-width="2.39" stroke-miterlimit="10"/>
<path d="M70.21 133.4C68.29 133.4 66.73 131.85 66.73 129.93C66.73 128.01 65.17 126.46 63.26 126.46" stroke="#727171" stroke-width="2.39" stroke-miterlimit="10"/>
<path d="M77.16 126.45C75.24 126.45 73.68 128 73.68 129.92C73.68 131.84 72.12 133.39 70.21 133.39" stroke="#727171" stroke-width="2.39" stroke-miterlimit="10"/>
<path d="M77.16 133.4C75.24 133.4 73.68 131.85 73.68 129.93C73.68 128.01 72.12 126.46 70.21 126.46" stroke="#231815" stroke-width="2.39" stroke-miterlimit="10"/>
<path d="M84.11 126.45C82.19 126.45 80.63 128 80.63 129.92C80.63 131.84 79.07 133.39 77.16 133.39" stroke="#231815" stroke-width="2.39" stroke-miterlimit="10"/>
<path d="M84.11 133.4C82.19 133.4 80.63 131.85 80.63 129.93C80.63 128.01 79.07 126.46 77.16 126.46" stroke="#727171" stroke-width="2.39" stroke-miterlimit="10"/>
<path d="M91.06 126.45C89.14 126.45 87.58 128 87.58 129.92C87.58 131.84 86.02 133.39 84.11 133.39" stroke="#727171" stroke-width="2.39" stroke-miterlimit="10"/>
<path d="M91.06 133.4C89.14 133.4 87.58 131.85 87.58 129.93C87.58 128.01 86.02 126.46 84.11 126.46" stroke="#231815" stroke-width="2.39" stroke-miterlimit="10"/>
<path d="M98.0099 126.45C96.0899 126.45 94.5299 128 94.5299 129.92C94.5299 131.84 92.9699 133.39 91.0599 133.39" stroke="#231815" stroke-width="2.39" stroke-miterlimit="10"/>
<path d="M98.0099 133.4C96.0899 133.4 94.5299 131.85 94.5299 129.93C94.5299 128.01 92.9699 126.46 91.0599 126.46" stroke="#727171" stroke-width="2.39" stroke-miterlimit="10"/>
<path d="M104.96 126.45C103.04 126.45 101.48 128 101.48 129.92C101.48 131.84 99.92 133.39 98.01 133.39" stroke="#727171" stroke-width="2.39" stroke-miterlimit="10"/>
<path d="M104.96 133.4C103.04 133.4 101.48 131.85 101.48 129.93C101.48 128.01 99.92 126.46 98.01 126.46" stroke="#231815" stroke-width="2.39" stroke-miterlimit="10"/>
<path d="M111.91 126.45C109.99 126.45 108.43 128 108.43 129.92C108.43 131.84 106.87 133.39 104.96 133.39" stroke="#231815" stroke-width="2.39" stroke-miterlimit="10"/>
<path d="M111.91 133.4C109.99 133.4 108.43 131.85 108.43 129.93C108.43 128.01 106.87 126.46 104.96 126.46" stroke="#727171" stroke-width="2.39" stroke-miterlimit="10"/>
<path d="M118.86 126.45C116.94 126.45 115.38 128 115.38 129.92C115.38 131.84 113.82 133.39 111.91 133.39" stroke="#727171" stroke-width="2.39" stroke-miterlimit="10"/>
<path d="M118.86 133.4C116.94 133.4 115.38 131.85 115.38 129.93C115.38 128.01 113.82 126.46 111.91 126.46" stroke="#231815" stroke-width="2.39" stroke-miterlimit="10"/>
<path d="M181.42 126.45C179.5 126.45 177.94 128 177.94 129.92C177.94 131.84 176.38 133.39 174.47 133.39" stroke="#231815" stroke-width="2.39" stroke-miterlimit="10"/>
<path d="M181.42 133.4C179.5 133.4 177.94 131.85 177.94 129.93C177.94 128.01 176.38 126.46 174.47 126.46" stroke="#727171" stroke-width="2.39" stroke-miterlimit="10"/>
<path d="M188.37 126.45C186.45 126.45 184.89 128 184.89 129.92C184.89 131.84 183.33 133.39 181.42 133.39" stroke="#727171" stroke-width="2.39" stroke-miterlimit="10"/>
<path d="M188.37 133.4C186.45 133.4 184.89 131.85 184.89 129.93C184.89 128.01 183.33 126.46 181.42 126.46" stroke="#231815" stroke-width="2.39" stroke-miterlimit="10"/>
<path d="M167.52 126.45C165.6 126.45 164.04 128 164.04 129.92C164.04 131.84 162.48 133.39 160.57 133.39" stroke="#231815" stroke-width="2.39" stroke-miterlimit="10"/>
<path d="M167.52 133.4C165.6 133.4 164.04 131.85 164.04 129.93C164.04 128.01 162.48 126.46 160.57 126.46" stroke="#727171" stroke-width="2.39" stroke-miterlimit="10"/>
<path d="M174.47 126.45C172.55 126.45 170.99 128 170.99 129.92C170.99 131.84 169.43 133.39 167.52 133.39" stroke="#727171" stroke-width="2.39" stroke-miterlimit="10"/>
<path d="M174.47 133.4C172.55 133.4 170.99 131.85 170.99 129.93C170.99 128.01 169.43 126.46 167.52 126.46" stroke="#231815" stroke-width="2.39" stroke-miterlimit="10"/>
<path d="M153.62 126.45C151.7 126.45 150.14 128 150.14 129.92C150.14 131.84 148.58 133.39 146.67 133.39" stroke="#231815" stroke-width="2.39" stroke-miterlimit="10"/>
<path d="M153.62 133.4C151.7 133.4 150.14 131.85 150.14 129.93C150.14 128.01 148.58 126.46 146.67 126.46" stroke="#727171" stroke-width="2.39" stroke-miterlimit="10"/>
<path d="M160.57 126.45C158.65 126.45 157.09 128 157.09 129.92C157.09 131.84 155.53 133.39 153.62 133.39" stroke="#727171" stroke-width="2.39" stroke-miterlimit="10"/>
<path d="M160.57 133.4C158.65 133.4 157.09 131.85 157.09 129.93C157.09 128.01 155.53 126.46 153.62 126.46" stroke="#231815" stroke-width="2.39" stroke-miterlimit="10"/>
<path d="M125.81 126.45C123.89 126.45 122.33 128 122.33 129.92C122.33 131.84 120.77 133.39 118.86 133.39" stroke="#231815" stroke-width="2.39" stroke-miterlimit="10"/>
<path d="M125.81 133.4C123.89 133.4 122.33 131.85 122.33 129.93C122.33 128.01 120.77 126.46 118.86 126.46" stroke="#727171" stroke-width="2.39" stroke-miterlimit="10"/>
<path d="M132.76 126.45C130.84 126.45 129.28 128 129.28 129.92C129.28 131.84 127.72 133.39 125.81 133.39" stroke="#727171" stroke-width="2.39" stroke-miterlimit="10"/>
<path d="M132.76 133.4C130.84 133.4 129.28 131.85 129.28 129.93C129.28 128.01 127.72 126.46 125.81 126.46" stroke="#231815" stroke-width="2.39" stroke-miterlimit="10"/>
<path d="M139.72 126.45C137.8 126.45 136.24 128 136.24 129.92C136.24 131.84 134.68 133.39 132.77 133.39" stroke="#231815" stroke-width="2.39" stroke-miterlimit="10"/>
<path d="M139.72 133.4C137.8 133.4 136.24 131.85 136.24 129.93C136.24 128.01 134.68 126.46 132.77 126.46" stroke="#727171" stroke-width="2.39" stroke-miterlimit="10"/>
<path d="M146.67 126.45C144.75 126.45 143.19 128 143.19 129.92C143.19 131.84 141.63 133.39 139.72 133.39" stroke="#727171" stroke-width="2.39" stroke-miterlimit="10"/>
<path d="M146.67 133.4C144.75 133.4 143.19 131.85 143.19 129.93C143.19 128.01 141.63 126.46 139.72 126.46" stroke="#231815" stroke-width="2.39" stroke-miterlimit="10"/>
<path d="M195.32 126.45C193.4 126.45 191.84 128 191.84 129.92C191.84 131.84 190.28 133.39 188.37 133.39" stroke="#231815" stroke-width="2.39" stroke-miterlimit="10"/>
<path d="M195.32 133.4C193.4 133.4 191.84 131.85 191.84 129.93C191.84 128.01 190.28 126.46 188.37 126.46" stroke="#727171" stroke-width="2.39" stroke-miterlimit="10"/>
<path d="M202.27 126.45C200.35 126.45 198.79 128 198.79 129.92C198.79 131.84 197.23 133.39 195.32 133.39" stroke="#727171" stroke-width="2.39" stroke-miterlimit="10"/>
<path d="M202.27 133.4C200.35 133.4 198.79 131.85 198.79 129.93C198.79 128.01 197.23 126.46 195.32 126.46" stroke="#231815" stroke-width="2.39" stroke-miterlimit="10"/>
<path d="M209.22 126.45C207.3 126.45 205.74 128 205.74 129.92C205.74 131.84 204.18 133.39 202.27 133.39" stroke="#231815" stroke-width="2.39" stroke-miterlimit="10"/>
<path d="M209.22 133.4C207.3 133.4 205.74 131.85 205.74 129.93C205.74 128.01 204.18 126.46 202.27 126.46" stroke="#727171" stroke-width="2.39" stroke-miterlimit="10"/>
<path d="M216.18 126.45C214.26 126.45 212.7 128 212.7 129.92C212.7 131.84 211.14 133.39 209.23 133.39" stroke="#727171" stroke-width="2.39" stroke-miterlimit="10"/>
<path d="M216.18 133.4C214.26 133.4 212.7 131.85 212.7 129.93C212.7 128.01 211.14 126.46 209.23 126.46" stroke="#231815" stroke-width="2.39" stroke-miterlimit="10"/>
<path d="M223.13 126.45C221.21 126.45 219.65 128 219.65 129.92C219.65 131.84 218.09 133.39 216.18 133.39" stroke="#231815" stroke-width="2.39" stroke-miterlimit="10"/>
<path d="M223.13 133.4C221.21 133.4 219.65 131.85 219.65 129.93C219.65 128.01 218.09 126.46 216.18 126.46" stroke="#727171" stroke-width="2.39" stroke-miterlimit="10"/>
<path d="M230.08 126.45C228.16 126.45 226.6 128 226.6 129.92C226.6 131.84 225.04 133.39 223.13 133.39" stroke="#727171" stroke-width="2.39" stroke-miterlimit="10"/>
<path d="M230.08 133.4C228.16 133.4 226.6 131.85 226.6 129.93C226.6 128.01 225.04 126.46 223.13 126.46" stroke="#231815" stroke-width="2.39" stroke-miterlimit="10"/>
<path d="M237.03 126.45C235.11 126.45 233.55 128 233.55 129.92C233.55 131.84 231.99 133.39 230.08 133.39" stroke="#231815" stroke-width="2.39" stroke-miterlimit="10"/>
<path d="M237.03 133.4C235.11 133.4 233.55 131.85 233.55 129.93C233.55 128.01 231.99 126.46 230.08 126.46" stroke="#727171" stroke-width="2.39" stroke-miterlimit="10"/>
<path d="M28.5 126.45H24.2" stroke="#231815" stroke-width="2.39" stroke-miterlimit="10"/>
<path d="M28.54 133.4H24.2" stroke="#727171" stroke-width="2.39" stroke-miterlimit="10"/>
<path d="M251.55 126.45H237.03" stroke="#231815" stroke-width="2.39" stroke-miterlimit="10"/>
<path d="M251.55 133.4H237.03" stroke="#727171" stroke-width="2.39" stroke-miterlimit="10"/>
<path d="M261.24 120.06H250.35" stroke="black" stroke-width="0.42" stroke-linecap="round" stroke-linejoin="round"/>
<path d="M261.24 113.11H250.35" stroke="black" stroke-width="0.42" stroke-linecap="round" stroke-linejoin="round"/>
<path d="M277.75 113.11H260.47" stroke="#0068B7" stroke-width="2.39" stroke-linejoin="round"/>
<path d="M277.75 120.06H260.47" stroke="#FFE100" stroke-width="2.39" stroke-linejoin="round"/>
<path d="M35.45 113.11C33.53 113.11 31.98 114.66 31.98 116.58" stroke="#FFE100" stroke-width="2.39" stroke-miterlimit="10"/>
<path d="M31.98 116.59C31.98 118.51 30.42 120.06 28.5 120.06" stroke="#FFE100" stroke-width="2.39" stroke-miterlimit="10"/>
<path d="M31.98 116.59C31.98 114.67 30.42 113.12 28.5 113.12" stroke="#0068B7" stroke-width="2.39" stroke-miterlimit="10"/>
<path d="M35.45 120.06C33.53 120.06 31.98 118.51 31.98 116.59" stroke="#0068B7" stroke-width="2.39" stroke-miterlimit="10"/>
<path d="M42.4 113.11C40.48 113.11 38.9199 114.66 38.9199 116.58C38.9199 118.5 37.36 120.05 35.45 120.05" stroke="#0068B7" stroke-width="2.39" stroke-miterlimit="10"/>
<path d="M42.4 120.06C40.48 120.06 38.9199 118.51 38.9199 116.59C38.9199 114.67 37.36 113.12 35.45 113.12" stroke="#FFE100" stroke-width="2.39" stroke-miterlimit="10"/>
<path d="M49.35 113.11C47.43 113.11 45.87 114.66 45.87 116.58C45.87 118.5 44.31 120.05 42.4 120.05" stroke="#FFE100" stroke-width="2.39" stroke-miterlimit="10"/>
<path d="M49.35 120.06C47.43 120.06 45.87 118.51 45.87 116.59C45.87 114.67 44.31 113.12 42.4 113.12" stroke="#0068B7" stroke-width="2.39" stroke-miterlimit="10"/>
<path d="M56.3 113.11C54.38 113.11 52.82 114.66 52.82 116.58C52.82 118.5 51.26 120.05 49.35 120.05" stroke="#0068B7" stroke-width="2.39" stroke-miterlimit="10"/>
<path d="M56.3 120.06C54.38 120.06 52.82 118.51 52.82 116.59C52.82 114.67 51.26 113.12 49.35 113.12" stroke="#FFE100" stroke-width="2.39" stroke-miterlimit="10"/>
<path d="M63.2599 113.11C61.3399 113.11 59.7799 114.66 59.7799 116.58C59.7799 118.5 58.2199 120.05 56.3099 120.05" stroke="#FFE100" stroke-width="2.39" stroke-miterlimit="10"/>
<path d="M63.2599 120.06C61.3399 120.06 59.7799 118.51 59.7799 116.59C59.7799 114.67 58.2199 113.12 56.3099 113.12" stroke="#0068B7" stroke-width="2.39" stroke-miterlimit="10"/>
<path d="M70.21 113.11C68.29 113.11 66.73 114.66 66.73 116.58C66.73 118.5 65.17 120.05 63.26 120.05" stroke="#0068B7" stroke-width="2.39" stroke-miterlimit="10"/>
<path d="M70.21 120.06C68.29 120.06 66.73 118.51 66.73 116.59C66.73 114.67 65.17 113.12 63.26 113.12" stroke="#FFE100" stroke-width="2.39" stroke-miterlimit="10"/>
<path d="M77.16 113.11C75.24 113.11 73.68 114.66 73.68 116.58C73.68 118.5 72.12 120.05 70.21 120.05" stroke="#FFE100" stroke-width="2.39" stroke-miterlimit="10"/>
<path d="M77.16 120.06C75.24 120.06 73.68 118.51 73.68 116.59C73.68 114.67 72.12 113.12 70.21 113.12" stroke="#0068B7" stroke-width="2.39" stroke-miterlimit="10"/>
<path d="M84.11 113.11C82.19 113.11 80.63 114.66 80.63 116.58C80.63 118.5 79.07 120.05 77.16 120.05" stroke="#0068B7" stroke-width="2.39" stroke-miterlimit="10"/>
<path d="M84.11 120.06C82.19 120.06 80.63 118.51 80.63 116.59C80.63 114.67 79.07 113.12 77.16 113.12" stroke="#FFE100" stroke-width="2.39" stroke-miterlimit="10"/>
<path d="M91.06 113.11C89.14 113.11 87.58 114.66 87.58 116.58C87.58 118.5 86.02 120.05 84.11 120.05" stroke="#FFE100" stroke-width="2.39" stroke-miterlimit="10"/>
<path d="M91.06 120.06C89.14 120.06 87.58 118.51 87.58 116.59C87.58 114.67 86.02 113.12 84.11 113.12" stroke="#0068B7" stroke-width="2.39" stroke-miterlimit="10"/>
<path d="M98.0099 113.11C96.0899 113.11 94.5299 114.66 94.5299 116.58C94.5299 118.5 92.9699 120.05 91.0599 120.05" stroke="#0068B7" stroke-width="2.39" stroke-miterlimit="10"/>
<path d="M98.0099 120.06C96.0899 120.06 94.5299 118.51 94.5299 116.59C94.5299 114.67 92.9699 113.12 91.0599 113.12" stroke="#FFE100" stroke-width="2.39" stroke-miterlimit="10"/>
<path d="M104.96 113.11C103.04 113.11 101.48 114.66 101.48 116.58C101.48 118.5 99.92 120.05 98.01 120.05" stroke="#FFE100" stroke-width="2.39" stroke-miterlimit="10"/>
<path d="M104.96 120.06C103.04 120.06 101.48 118.51 101.48 116.59C101.48 114.67 99.92 113.12 98.01 113.12" stroke="#0068B7" stroke-width="2.39" stroke-miterlimit="10"/>
<path d="M111.91 113.11C109.99 113.11 108.43 114.66 108.43 116.58C108.43 118.5 106.87 120.05 104.96 120.05" stroke="#0068B7" stroke-width="2.39" stroke-miterlimit="10"/>
<path d="M111.91 120.06C109.99 120.06 108.43 118.51 108.43 116.59C108.43 114.67 106.87 113.12 104.96 113.12" stroke="#FFE100" stroke-width="2.39" stroke-miterlimit="10"/>
<path d="M118.86 113.11C116.94 113.11 115.38 114.66 115.38 116.58C115.38 118.5 113.82 120.05 111.91 120.05" stroke="#FFE100" stroke-width="2.39" stroke-miterlimit="10"/>
<path d="M118.86 120.06C116.94 120.06 115.38 118.51 115.38 116.59C115.38 114.67 113.82 113.12 111.91 113.12" stroke="#0068B7" stroke-width="2.39" stroke-miterlimit="10"/>
<path d="M181.42 113.11C179.5 113.11 177.94 114.66 177.94 116.58C177.94 118.5 176.38 120.05 174.47 120.05" stroke="#0068B7" stroke-width="2.39" stroke-miterlimit="10"/>
<path d="M181.42 120.06C179.5 120.06 177.94 118.51 177.94 116.59C177.94 114.67 176.38 113.12 174.47 113.12" stroke="#FFE100" stroke-width="2.39" stroke-miterlimit="10"/>
<path d="M188.37 113.11C186.45 113.11 184.89 114.66 184.89 116.58C184.89 118.5 183.33 120.05 181.42 120.05" stroke="#FFE100" stroke-width="2.39" stroke-miterlimit="10"/>
<path d="M188.37 120.06C186.45 120.06 184.89 118.51 184.89 116.59C184.89 114.67 183.33 113.12 181.42 113.12" stroke="#0068B7" stroke-width="2.39" stroke-miterlimit="10"/>
<path d="M167.52 113.11C165.6 113.11 164.04 114.66 164.04 116.58C164.04 118.5 162.48 120.05 160.57 120.05" stroke="#0068B7" stroke-width="2.39" stroke-miterlimit="10"/>
<path d="M167.52 120.06C165.6 120.06 164.04 118.51 164.04 116.59C164.04 114.67 162.48 113.12 160.57 113.12" stroke="#FFE100" stroke-width="2.39" stroke-miterlimit="10"/>
<path d="M174.47 113.11C172.55 113.11 170.99 114.66 170.99 116.58C170.99 118.5 169.43 120.05 167.52 120.05" stroke="#FFE100" stroke-width="2.39" stroke-miterlimit="10"/>
<path d="M174.47 120.06C172.55 120.06 170.99 118.51 170.99 116.59C170.99 114.67 169.43 113.12 167.52 113.12" stroke="#0068B7" stroke-width="2.39" stroke-miterlimit="10"/>
<path d="M153.62 113.11C151.7 113.11 150.14 114.66 150.14 116.58C150.14 118.5 148.58 120.05 146.67 120.05" stroke="#0068B7" stroke-width="2.39" stroke-miterlimit="10"/>
<path d="M153.62 120.06C151.7 120.06 150.14 118.51 150.14 116.59C150.14 114.67 148.58 113.12 146.67 113.12" stroke="#FFE100" stroke-width="2.39" stroke-miterlimit="10"/>
<path d="M160.57 113.11C158.65 113.11 157.09 114.66 157.09 116.58C157.09 118.5 155.53 120.05 153.62 120.05" stroke="#FFE100" stroke-width="2.39" stroke-miterlimit="10"/>
<path d="M160.57 120.06C158.65 120.06 157.09 118.51 157.09 116.59C157.09 114.67 155.53 113.12 153.62 113.12" stroke="#0068B7" stroke-width="2.39" stroke-miterlimit="10"/>
<path d="M125.81 113.11C123.89 113.11 122.33 114.66 122.33 116.58C122.33 118.5 120.77 120.05 118.86 120.05" stroke="#0068B7" stroke-width="2.39" stroke-miterlimit="10"/>
<path d="M125.81 120.06C123.89 120.06 122.33 118.51 122.33 116.59C122.33 114.67 120.77 113.12 118.86 113.12" stroke="#FFE100" stroke-width="2.39" stroke-miterlimit="10"/>
<path d="M132.76 113.11C130.84 113.11 129.28 114.66 129.28 116.58C129.28 118.5 127.72 120.05 125.81 120.05" stroke="#FFE100" stroke-width="2.39" stroke-miterlimit="10"/>
<path d="M132.76 120.06C130.84 120.06 129.28 118.51 129.28 116.59C129.28 114.67 127.72 113.12 125.81 113.12" stroke="#0068B7" stroke-width="2.39" stroke-miterlimit="10"/>
<path d="M139.72 113.11C137.8 113.11 136.24 114.66 136.24 116.58C136.24 118.5 134.68 120.05 132.77 120.05" stroke="#0068B7" stroke-width="2.39" stroke-miterlimit="10"/>
<path d="M139.72 120.06C137.8 120.06 136.24 118.51 136.24 116.59C136.24 114.67 134.68 113.12 132.77 113.12" stroke="#FFE100" stroke-width="2.39" stroke-miterlimit="10"/>
<path d="M146.67 113.11C144.75 113.11 143.19 114.66 143.19 116.58C143.19 118.5 141.63 120.05 139.72 120.05" stroke="#FFE100" stroke-width="2.39" stroke-miterlimit="10"/>
<path d="M146.67 120.06C144.75 120.06 143.19 118.51 143.19 116.59C143.19 114.67 141.63 113.12 139.72 113.12" stroke="#0068B7" stroke-width="2.39" stroke-miterlimit="10"/>
<path d="M195.32 113.11C193.4 113.11 191.84 114.66 191.84 116.58C191.84 118.5 190.28 120.05 188.37 120.05" stroke="#0068B7" stroke-width="2.39" stroke-miterlimit="10"/>
<path d="M195.32 120.06C193.4 120.06 191.84 118.51 191.84 116.59C191.84 114.67 190.28 113.12 188.37 113.12" stroke="#FFE100" stroke-width="2.39" stroke-miterlimit="10"/>
<path d="M202.27 113.11C200.35 113.11 198.79 114.66 198.79 116.58C198.79 118.5 197.23 120.05 195.32 120.05" stroke="#FFE100" stroke-width="2.39" stroke-miterlimit="10"/>
<path d="M202.27 120.06C200.35 120.06 198.79 118.51 198.79 116.59C198.79 114.67 197.23 113.12 195.32 113.12" stroke="#0068B7" stroke-width="2.39" stroke-miterlimit="10"/>
<path d="M209.22 113.11C207.3 113.11 205.74 114.66 205.74 116.58C205.74 118.5 204.18 120.05 202.27 120.05" stroke="#0068B7" stroke-width="2.39" stroke-miterlimit="10"/>
<path d="M209.22 120.06C207.3 120.06 205.74 118.51 205.74 116.59C205.74 114.67 204.18 113.12 202.27 113.12" stroke="#FFE100" stroke-width="2.39" stroke-miterlimit="10"/>
<path d="M216.18 113.11C214.26 113.11 212.7 114.66 212.7 116.58C212.7 118.5 211.14 120.05 209.23 120.05" stroke="#FFE100" stroke-width="2.39" stroke-miterlimit="10"/>
<path d="M216.18 120.06C214.26 120.06 212.7 118.51 212.7 116.59C212.7 114.67 211.14 113.12 209.23 113.12" stroke="#0068B7" stroke-width="2.39" stroke-miterlimit="10"/>
<path d="M223.13 113.11C221.21 113.11 219.65 114.66 219.65 116.58C219.65 118.5 218.09 120.05 216.18 120.05" stroke="#0068B7" stroke-width="2.39" stroke-miterlimit="10"/>
<path d="M223.13 120.06C221.21 120.06 219.65 118.51 219.65 116.59C219.65 114.67 218.09 113.12 216.18 113.12" stroke="#FFE100" stroke-width="2.39" stroke-miterlimit="10"/>
<path d="M230.08 113.11C228.16 113.11 226.6 114.66 226.6 116.58C226.6 118.5 225.04 120.05 223.13 120.05" stroke="#FFE100" stroke-width="2.39" stroke-miterlimit="10"/>
<path d="M230.08 120.06C228.16 120.06 226.6 118.51 226.6 116.59C226.6 114.67 225.04 113.12 223.13 113.12" stroke="#0068B7" stroke-width="2.39" stroke-miterlimit="10"/>
<path d="M237.03 113.11C235.11 113.11 233.55 114.66 233.55 116.58C233.55 118.5 231.99 120.05 230.08 120.05" stroke="#0068B7" stroke-width="2.39" stroke-miterlimit="10"/>
<path d="M237.03 120.06C235.11 120.06 233.55 118.51 233.55 116.59C233.55 114.67 231.99 113.12 230.08 113.12" stroke="#FFE100" stroke-width="2.39" stroke-miterlimit="10"/>
<path d="M28.5 113.11H24.2" stroke="#0068B7" stroke-width="2.39" stroke-miterlimit="10"/>
<path d="M28.54 120.06H24.2" stroke="#FFE100" stroke-width="2.39" stroke-miterlimit="10"/>
<path d="M251.55 113.11H237.03" stroke="#0068B7" stroke-width="2.39" stroke-miterlimit="10"/>
<path d="M251.55 120.06H237.03" stroke="#FFE100" stroke-width="2.39" stroke-miterlimit="10"/>
<path d="M8.85999 136.36H21.93V138.54H24.2V107.83H21.93V110.01H8.85999V136.36Z" fill="white"/>
<path d="M19.75 136.36V135.32H14.35V130.86H19.75V129.82V128.68H14.35V124.42H19.75V123.38V122.24H14.35V117.79H19.75V116.75V115.71H14.35V111.35H19.75V110.31" stroke="black" stroke-width="0.21" stroke-linecap="round" stroke-linejoin="round"/>
<path d="M11.03 136.36V134.27H13.21V132.09H11.03V129.82V127.64H13.21V125.46H11.03V123.38V121.2H13.21V118.93H11.03V116.75V114.57H13.21V112.39H11.03V110.31" stroke="black" stroke-width="0.21" stroke-linecap="round" stroke-linejoin="round"/>
<path d="M8.85999 136.36H21.93V138.54H24.2V107.83H21.93V110.01H8.85999V136.36Z" stroke="black" stroke-width="0.63" stroke-linecap="round" stroke-linejoin="round"/>
<path d="M21.9299 136.36V110.01" stroke="black" stroke-width="0.21" stroke-linecap="round" stroke-linejoin="round"/>
<path d="M261.69 83.7H250.81" stroke="black" stroke-width="0.42" stroke-linecap="round" stroke-linejoin="round"/>
<path d="M250.35 83.7999H24.65" stroke="#F08300" stroke-width="2.39" stroke-linecap="square" stroke-linejoin="round"/>
<path d="M277.75 83.7999H260.47" stroke="#F08300" stroke-width="2.39" stroke-miterlimit="10"/>
<path d="M261.69 96.76H250.81" stroke="black" stroke-width="0.42" stroke-linecap="round" stroke-linejoin="round"/>
<path d="M250.35 96.76H24.65" stroke="#727171" stroke-width="2.39" stroke-linecap="square" stroke-linejoin="round"/>
<path d="M277.75 96.76H260.47" stroke="#727171" stroke-width="2.39" stroke-linejoin="round"/>
<path d="M261.69 90.25H250.43" stroke="black" stroke-width="0.42" stroke-linecap="round" stroke-linejoin="round"/>
<path d="M250.35 90.25H24.65" stroke="#231815" stroke-width="2.39" stroke-linecap="square" stroke-linejoin="round"/>
<path d="M277.75 90.25H260.47" stroke="#231815" stroke-width="2.39" stroke-linejoin="round"/>
<path d="M261.69 77.25H250.81" stroke="black" stroke-width="0.42" stroke-linecap="round" stroke-linejoin="round"/>
<path d="M250.35 77.25H24.65" stroke="#FFE100" stroke-width="2.39" stroke-linecap="square" stroke-linejoin="round"/>
<path d="M277.75 77.25H260.47" stroke="#FFE100" stroke-width="2.39" stroke-linejoin="round"/>
<path d="M261.69 70.74H250.81" stroke="black" stroke-width="0.42" stroke-linecap="round" stroke-linejoin="round"/>
<path d="M250.33 70.74H24.65" stroke="#E60012" stroke-width="2.39" stroke-linecap="square" stroke-linejoin="round"/>
<path d="M277.75 70.74H260.47" stroke="#E60012" stroke-width="2.39" stroke-linejoin="round"/>
<path d="M8.85999 100.15H21.93V102.83H24.2V65H21.93V67.68H8.85999V100.15Z" fill="white"/>
<path d="M11.03 93.04V91.04H13.21V88.95H11.03V86.77V84.68H13.21V82.59H11.03V80.59V78.5H13.21V76.32H11.03V74.23V72.14H13.21V70.05H11.03V68.05" stroke="black" stroke-width="0.21" stroke-linecap="round" stroke-linejoin="round"/>
<path d="M8.85999 100.15H21.93V102.83H24.2V65H21.93V67.68H8.85999V100.15Z" stroke="black" stroke-width="0.7" stroke-linecap="round" stroke-linejoin="round"/>
<path d="M21.9299 100.15V67.6801" stroke="black" stroke-width="0.23" stroke-linecap="round" stroke-linejoin="round"/>
<path d="M19.68 92.4499H14.28V87.9999H19.68V86.9499V85.8199H14.28V81.5499H19.68V80.5099V79.3799H14.28V74.9199H19.68V73.8799V72.8399H14.28V68.4799H19.68V67.4399" stroke="black" stroke-width="0.21" stroke-linecap="round" stroke-linejoin="round"/>
<path d="M19.6801 92.45V94.63V92.45Z" stroke="black" stroke-width="0.21" stroke-linecap="round" stroke-linejoin="round"/>
<path d="M19.67 94.6399H14.29V99.0899H19.67" stroke="black" stroke-width="0.21" stroke-linecap="round" stroke-linejoin="round"/>
<path d="M19.6801 100.13V99.09" stroke="black" stroke-width="0.21" stroke-linecap="round" stroke-linejoin="round"/>
<path d="M11.03 100.15V97.31H13.21V95.22H11.03V93.04" stroke="black" stroke-width="0.21" stroke-linecap="round" stroke-linejoin="round"/>
<path d="M261.23 197.81H250.34" stroke="black" stroke-width="0.42" stroke-linecap="round" stroke-linejoin="round"/>
<path d="M276.56 197.9H261.67" stroke="#727171" stroke-width="2.39" stroke-miterlimit="10" stroke-linecap="square"/>
<path d="M261.23 190.9H250.34" stroke="black" stroke-width="0.42" stroke-linecap="round" stroke-linejoin="round"/>
<path d="M276.56 190.9H261.67" stroke="#231815" stroke-width="2.39" stroke-miterlimit="10" stroke-linecap="square"/>
<path d="M261.23 184.56H250.34" stroke="black" stroke-width="0.42" stroke-linecap="round" stroke-linejoin="round"/>
<path d="M250.35 184.56H24.2" stroke="#E60012" stroke-width="2.39" stroke-linecap="square" stroke-linejoin="round"/>
<path d="M276.56 184.56H261.67" stroke="#E60012" stroke-width="2.39" stroke-miterlimit="10" stroke-linecap="square"/>
<path d="M251.55 184.56H24.2" stroke="#231815" stroke-width="0.56" stroke-linejoin="round"/>
<path d="M277.75 184.56H260.47" stroke="#231815" stroke-width="0.56" stroke-miterlimit="10"/>
<path d="M35.45 190.9C33.53 190.9 31.98 192.45 31.98 194.37" stroke="#727171" stroke-width="2.39" stroke-miterlimit="10"/>
<path d="M31.98 194.38C31.98 196.3 30.42 197.85 28.5 197.85" stroke="#727171" stroke-width="2.39" stroke-miterlimit="10"/>
<path d="M31.98 194.38C31.98 192.46 30.42 190.91 28.5 190.91" stroke="#231815" stroke-width="2.39" stroke-miterlimit="10"/>
<path d="M35.45 197.85C33.53 197.85 31.98 196.3 31.98 194.38" stroke="#231815" stroke-width="2.39" stroke-miterlimit="10"/>
<path d="M42.4 190.9C40.48 190.9 38.9199 192.45 38.9199 194.37C38.9199 196.29 37.36 197.84 35.45 197.84" stroke="#231815" stroke-width="2.39" stroke-miterlimit="10"/>
<path d="M42.4 197.85C40.48 197.85 38.9199 196.3 38.9199 194.38C38.9199 192.46 37.36 190.91 35.45 190.91" stroke="#727171" stroke-width="2.39" stroke-miterlimit="10"/>
<path d="M49.3499 190.9C47.4299 190.9 45.8699 192.45 45.8699 194.37C45.8699 196.29 44.3099 197.84 42.3999 197.84" stroke="#727171" stroke-width="2.39" stroke-miterlimit="10"/>
<path d="M49.3499 197.85C47.4299 197.85 45.8699 196.3 45.8699 194.38C45.8699 192.46 44.3099 190.91 42.3999 190.91" stroke="#231815" stroke-width="2.39" stroke-miterlimit="10"/>
<path d="M56.3 190.9C54.38 190.9 52.82 192.45 52.82 194.37C52.82 196.29 51.26 197.84 49.35 197.84" stroke="#231815" stroke-width="2.39" stroke-miterlimit="10"/>
<path d="M56.3 197.85C54.38 197.85 52.82 196.3 52.82 194.38C52.82 192.46 51.26 190.91 49.35 190.91" stroke="#727171" stroke-width="2.39" stroke-miterlimit="10"/>
<path d="M63.2499 190.9C61.3299 190.9 59.7699 192.45 59.7699 194.37C59.7699 196.29 58.2099 197.84 56.2999 197.84" stroke="#727171" stroke-width="2.39" stroke-miterlimit="10"/>
<path d="M63.2499 197.85C61.3299 197.85 59.7699 196.3 59.7699 194.38C59.7699 192.46 58.2099 190.91 56.2999 190.91" stroke="#231815" stroke-width="2.39" stroke-miterlimit="10"/>
<path d="M70.2 190.9C68.28 190.9 66.72 192.45 66.72 194.37C66.72 196.29 65.16 197.84 63.25 197.84" stroke="#231815" stroke-width="2.39" stroke-miterlimit="10"/>
<path d="M70.2 197.85C68.28 197.85 66.72 196.3 66.72 194.38C66.72 192.46 65.16 190.91 63.25 190.91" stroke="#727171" stroke-width="2.39" stroke-miterlimit="10"/>
<path d="M77.16 190.9C75.24 190.9 73.68 192.45 73.68 194.37C73.68 196.29 72.12 197.84 70.21 197.84" stroke="#727171" stroke-width="2.39" stroke-miterlimit="10"/>
<path d="M77.16 197.85C75.24 197.85 73.68 196.3 73.68 194.38C73.68 192.46 72.12 190.91 70.21 190.91" stroke="#231815" stroke-width="2.39" stroke-miterlimit="10"/>
<path d="M84.1099 190.9C82.1899 190.9 80.6299 192.45 80.6299 194.37C80.6299 196.29 79.0699 197.84 77.1599 197.84" stroke="#231815" stroke-width="2.39" stroke-miterlimit="10"/>
<path d="M84.1099 197.85C82.1899 197.85 80.6299 196.3 80.6299 194.38C80.6299 192.46 79.0699 190.91 77.1599 190.91" stroke="#727171" stroke-width="2.39" stroke-miterlimit="10"/>
<path d="M91.06 190.9C89.14 190.9 87.58 192.45 87.58 194.37C87.58 196.29 86.02 197.84 84.11 197.84" stroke="#727171" stroke-width="2.39" stroke-miterlimit="10"/>
<path d="M91.06 197.85C89.14 197.85 87.58 196.3 87.58 194.38C87.58 192.46 86.02 190.91 84.11 190.91" stroke="#231815" stroke-width="2.39" stroke-miterlimit="10"/>
<path d="M98.0099 190.9C96.0899 190.9 94.5299 192.45 94.5299 194.37C94.5299 196.29 92.9699 197.84 91.0599 197.84" stroke="#231815" stroke-width="2.39" stroke-miterlimit="10"/>
<path d="M98.0099 197.85C96.0899 197.85 94.5299 196.3 94.5299 194.38C94.5299 192.46 92.9699 190.91 91.0599 190.91" stroke="#727171" stroke-width="2.39" stroke-miterlimit="10"/>
<path d="M104.96 190.9C103.04 190.9 101.48 192.45 101.48 194.37C101.48 196.29 99.92 197.84 98.01 197.84" stroke="#727171" stroke-width="2.39" stroke-miterlimit="10"/>
<path d="M104.96 197.85C103.04 197.85 101.48 196.3 101.48 194.38C101.48 192.46 99.92 190.91 98.01 190.91" stroke="#231815" stroke-width="2.39" stroke-miterlimit="10"/>
<path d="M111.91 190.9C109.99 190.9 108.43 192.45 108.43 194.37C108.43 196.29 106.87 197.84 104.96 197.84" stroke="#231815" stroke-width="2.39" stroke-miterlimit="10"/>
<path d="M111.91 197.85C109.99 197.85 108.43 196.3 108.43 194.38C108.43 192.46 106.87 190.91 104.96 190.91" stroke="#727171" stroke-width="2.39" stroke-miterlimit="10"/>
<path d="M118.86 190.9C116.94 190.9 115.38 192.45 115.38 194.37C115.38 196.29 113.82 197.84 111.91 197.84" stroke="#727171" stroke-width="2.39" stroke-miterlimit="10"/>
<path d="M118.86 197.85C116.94 197.85 115.38 196.3 115.38 194.38C115.38 192.46 113.82 190.91 111.91 190.91" stroke="#231815" stroke-width="2.39" stroke-miterlimit="10"/>
<path d="M181.41 190.9C179.49 190.9 177.93 192.45 177.93 194.37C177.93 196.29 176.37 197.84 174.46 197.84" stroke="#231815" stroke-width="2.39" stroke-miterlimit="10"/>
<path d="M181.41 197.85C179.49 197.85 177.93 196.3 177.93 194.38C177.93 192.46 176.37 190.91 174.46 190.91" stroke="#727171" stroke-width="2.39" stroke-miterlimit="10"/>
<path d="M188.37 190.9C186.45 190.9 184.89 192.45 184.89 194.37C184.89 196.29 183.33 197.84 181.42 197.84" stroke="#727171" stroke-width="2.39" stroke-miterlimit="10"/>
<path d="M188.37 197.85C186.45 197.85 184.89 196.3 184.89 194.38C184.89 192.46 183.33 190.91 181.42 190.91" stroke="#231815" stroke-width="2.39" stroke-miterlimit="10"/>
<path d="M167.51 190.9C165.59 190.9 164.03 192.45 164.03 194.37C164.03 196.29 162.47 197.84 160.56 197.84" stroke="#231815" stroke-width="2.39" stroke-miterlimit="10"/>
<path d="M167.51 197.85C165.59 197.85 164.03 196.3 164.03 194.38C164.03 192.46 162.47 190.91 160.56 190.91" stroke="#727171" stroke-width="2.39" stroke-miterlimit="10"/>
<path d="M174.46 190.9C172.54 190.9 170.98 192.45 170.98 194.37C170.98 196.29 169.42 197.84 167.51 197.84" stroke="#727171" stroke-width="2.39" stroke-miterlimit="10"/>
<path d="M174.46 197.85C172.54 197.85 170.98 196.3 170.98 194.38C170.98 192.46 169.42 190.91 167.51 190.91" stroke="#231815" stroke-width="2.39" stroke-miterlimit="10"/>
<path d="M153.61 190.9C151.69 190.9 150.13 192.45 150.13 194.37C150.13 196.29 148.57 197.84 146.66 197.84" stroke="#231815" stroke-width="2.39" stroke-miterlimit="10"/>
<path d="M153.61 197.85C151.69 197.85 150.13 196.3 150.13 194.38C150.13 192.46 148.57 190.91 146.66 190.91" stroke="#727171" stroke-width="2.39" stroke-miterlimit="10"/>
<path d="M160.56 190.9C158.64 190.9 157.08 192.45 157.08 194.37C157.08 196.29 155.52 197.84 153.61 197.84" stroke="#727171" stroke-width="2.39" stroke-miterlimit="10"/>
<path d="M160.56 197.85C158.64 197.85 157.08 196.3 157.08 194.38C157.08 192.46 155.52 190.91 153.61 190.91" stroke="#231815" stroke-width="2.39" stroke-miterlimit="10"/>
<path d="M125.81 190.9C123.89 190.9 122.33 192.45 122.33 194.37C122.33 196.29 120.77 197.84 118.86 197.84" stroke="#231815" stroke-width="2.39" stroke-miterlimit="10"/>
<path d="M125.81 197.85C123.89 197.85 122.33 196.3 122.33 194.38C122.33 192.46 120.77 190.91 118.86 190.91" stroke="#727171" stroke-width="2.39" stroke-miterlimit="10"/>
<path d="M132.76 190.9C130.84 190.9 129.28 192.45 129.28 194.37C129.28 196.29 127.72 197.84 125.81 197.84" stroke="#727171" stroke-width="2.39" stroke-miterlimit="10"/>
<path d="M132.76 197.85C130.84 197.85 129.28 196.3 129.28 194.38C129.28 192.46 127.72 190.91 125.81 190.91" stroke="#231815" stroke-width="2.39" stroke-miterlimit="10"/>
<path d="M139.71 190.9C137.79 190.9 136.23 192.45 136.23 194.37C136.23 196.29 134.67 197.84 132.76 197.84" stroke="#231815" stroke-width="2.39" stroke-miterlimit="10"/>
<path d="M139.71 197.85C137.79 197.85 136.23 196.3 136.23 194.38C136.23 192.46 134.67 190.91 132.76 190.91" stroke="#727171" stroke-width="2.39" stroke-miterlimit="10"/>
<path d="M146.66 190.9C144.74 190.9 143.18 192.45 143.18 194.37C143.18 196.29 141.62 197.84 139.71 197.84" stroke="#727171" stroke-width="2.39" stroke-miterlimit="10"/>
<path d="M146.66 197.85C144.74 197.85 143.18 196.3 143.18 194.38C143.18 192.46 141.62 190.91 139.71 190.91" stroke="#231815" stroke-width="2.39" stroke-miterlimit="10"/>
<path d="M195.32 190.9C193.4 190.9 191.84 192.45 191.84 194.37C191.84 196.29 190.28 197.84 188.37 197.84" stroke="#231815" stroke-width="2.39" stroke-miterlimit="10"/>
<path d="M195.32 197.85C193.4 197.85 191.84 196.3 191.84 194.38C191.84 192.46 190.28 190.91 188.37 190.91" stroke="#727171" stroke-width="2.39" stroke-miterlimit="10"/>
<path d="M202.27 190.9C200.35 190.9 198.79 192.45 198.79 194.37C198.79 196.29 197.23 197.84 195.32 197.84" stroke="#727171" stroke-width="2.39" stroke-miterlimit="10"/>
<path d="M202.27 197.85C200.35 197.85 198.79 196.3 198.79 194.38C198.79 192.46 197.23 190.91 195.32 190.91" stroke="#231815" stroke-width="2.39" stroke-miterlimit="10"/>
<path d="M209.22 190.9C207.3 190.9 205.74 192.45 205.74 194.37C205.74 196.29 204.18 197.84 202.27 197.84" stroke="#231815" stroke-width="2.39" stroke-miterlimit="10"/>
<path d="M209.22 197.85C207.3 197.85 205.74 196.3 205.74 194.38C205.74 192.46 204.18 190.91 202.27 190.91" stroke="#727171" stroke-width="2.39" stroke-miterlimit="10"/>
<path d="M216.17 190.9C214.25 190.9 212.69 192.45 212.69 194.37C212.69 196.29 211.13 197.84 209.22 197.84" stroke="#727171" stroke-width="2.39" stroke-miterlimit="10"/>
<path d="M216.17 197.85C214.25 197.85 212.69 196.3 212.69 194.38C212.69 192.46 211.13 190.91 209.22 190.91" stroke="#231815" stroke-width="2.39" stroke-miterlimit="10"/>
<path d="M223.12 190.9C221.2 190.9 219.64 192.45 219.64 194.37C219.64 196.29 218.08 197.84 216.17 197.84" stroke="#231815" stroke-width="2.39" stroke-miterlimit="10"/>
<path d="M223.12 197.85C221.2 197.85 219.64 196.3 219.64 194.38C219.64 192.46 218.08 190.91 216.17 190.91" stroke="#727171" stroke-width="2.39" stroke-miterlimit="10"/>
<path d="M230.07 190.9C228.15 190.9 226.59 192.45 226.59 194.37C226.59 196.29 225.03 197.84 223.12 197.84" stroke="#727171" stroke-width="2.39" stroke-miterlimit="10"/>
<path d="M230.07 197.85C228.15 197.85 226.59 196.3 226.59 194.38C226.59 192.46 225.03 190.91 223.12 190.91" stroke="#231815" stroke-width="2.39" stroke-miterlimit="10"/>
<path d="M237.02 190.9C235.1 190.9 233.54 192.45 233.54 194.37C233.54 196.29 231.98 197.84 230.07 197.84" stroke="#231815" stroke-width="2.39" stroke-miterlimit="10"/>
<path d="M237.02 197.85C235.1 197.85 233.54 196.3 233.54 194.38C233.54 192.46 231.98 190.91 230.07 190.91" stroke="#727171" stroke-width="2.39" stroke-miterlimit="10"/>
<path d="M28.5 190.9H24.2" stroke="#231815" stroke-width="2.39" stroke-miterlimit="10"/>
<path d="M28.54 197.85H24.2" stroke="#727171" stroke-width="2.39" stroke-miterlimit="10"/>
<path d="M251.55 190.9H237.02" stroke="#231815" stroke-width="2.39" stroke-miterlimit="10"/>
<path d="M251.55 197.85H237.02" stroke="#727171" stroke-width="2.39" stroke-miterlimit="10"/>
<path d="M24.2099 179.25H21.9299V203.21H24.2099V179.25Z" fill="white"/>
<path d="M24.2099 179.25H21.9299V203.21H24.2099V179.25Z" stroke="white" stroke-width="0.1" stroke-linecap="round" stroke-linejoin="round"/>
<path d="M21.93 201.03V203.21H24.2V179.25H21.93V181.33H8.85999V201.03H21.93Z" fill="white"/>
<path d="M19.75 201.03V199.89H14.35V195.54H19.75V194.49V193.45H14.35V189H19.75V187.96" stroke="black" stroke-width="0.21" stroke-linecap="round" stroke-linejoin="round"/>
<path d="M11.03 201.03V198.85H13.21V196.67H11.03V194.49V192.22H13.21V190.14H11.03V187.96" stroke="black" stroke-width="0.21" stroke-linecap="round" stroke-linejoin="round"/>
<path d="M19.75 187.96V186.92H14.35V182.56H19.75V181.33" stroke="black" stroke-width="0.21" stroke-linecap="round" stroke-linejoin="round"/>
<path d="M11.03 187.96V185.78H13.21V183.6H11.03V181.33" stroke="black" stroke-width="0.21" stroke-linecap="round" stroke-linejoin="round"/>
<path d="M21.9299 181.33V201.03" stroke="black" stroke-width="0.21" stroke-linecap="round" stroke-linejoin="round"/>
<path d="M21.93 201.03V203.21H24.2V179.25H21.93V181.33H8.85999V201.03H21.93Z" stroke="black" stroke-width="0.63" stroke-linecap="round" stroke-linejoin="round"/>
<path d="M261.23 226.77H250.34" stroke="black" stroke-width="0.42" stroke-linecap="round" stroke-linejoin="round"/>
<path d="M276.56 226.86H261.67" stroke="#727171" stroke-width="2.39" stroke-miterlimit="10" stroke-linecap="square"/>
<path d="M261.23 219.87H250.34" stroke="black" stroke-width="0.42" stroke-linecap="round" stroke-linejoin="round"/>
<path d="M276.56 219.87H261.67" stroke="#231815" stroke-width="2.39" stroke-miterlimit="10" stroke-linecap="square"/>
<path d="M261.23 213.52H250.34" stroke="black" stroke-width="0.42" stroke-linecap="round" stroke-linejoin="round"/>
<path d="M250.35 213.52H24.2" stroke="#E60012" stroke-width="2.39" stroke-linecap="square" stroke-linejoin="round"/>
<path d="M276.56 213.52H261.67" stroke="#E60012" stroke-width="2.39" stroke-miterlimit="10" stroke-linecap="square"/>
<path d="M251.55 213.52H24.2" stroke="#231815" stroke-width="0.56" stroke-linejoin="round"/>
<path d="M277.75 213.52H260.47" stroke="#231815" stroke-width="0.56" stroke-miterlimit="10"/>
<path d="M35.45 219.87C33.53 219.87 31.98 221.42 31.98 223.34" stroke="#727171" stroke-width="2.39" stroke-miterlimit="10"/>
<path d="M31.98 223.34C31.98 225.26 30.42 226.81 28.5 226.81" stroke="#727171" stroke-width="2.39" stroke-miterlimit="10"/>
<path d="M31.98 223.34C31.98 221.42 30.42 219.87 28.5 219.87" stroke="#231815" stroke-width="2.39" stroke-miterlimit="10"/>
<path d="M35.45 226.82C33.53 226.82 31.98 225.27 31.98 223.35" stroke="#231815" stroke-width="2.39" stroke-miterlimit="10"/>
<path d="M42.4 219.87C40.48 219.87 38.9199 221.42 38.9199 223.34C38.9199 225.26 37.36 226.81 35.45 226.81" stroke="#231815" stroke-width="2.39" stroke-miterlimit="10"/>
<path d="M42.4 226.82C40.48 226.82 38.9199 225.27 38.9199 223.35C38.9199 221.43 37.36 219.88 35.45 219.88" stroke="#727171" stroke-width="2.39" stroke-miterlimit="10"/>
<path d="M49.3499 219.87C47.4299 219.87 45.8699 221.42 45.8699 223.34C45.8699 225.26 44.3099 226.81 42.3999 226.81" stroke="#727171" stroke-width="2.39" stroke-miterlimit="10"/>
<path d="M49.3499 226.82C47.4299 226.82 45.8699 225.27 45.8699 223.35C45.8699 221.43 44.3099 219.88 42.3999 219.88" stroke="#231815" stroke-width="2.39" stroke-miterlimit="10"/>
<path d="M56.3 219.87C54.38 219.87 52.82 221.42 52.82 223.34C52.82 225.26 51.26 226.81 49.35 226.81" stroke="#231815" stroke-width="2.39" stroke-miterlimit="10"/>
<path d="M56.3 226.82C54.38 226.82 52.82 225.27 52.82 223.35C52.82 221.43 51.26 219.88 49.35 219.88" stroke="#727171" stroke-width="2.39" stroke-miterlimit="10"/>
<path d="M63.2499 219.87C61.3299 219.87 59.7699 221.42 59.7699 223.34C59.7699 225.26 58.2099 226.81 56.2999 226.81" stroke="#727171" stroke-width="2.39" stroke-miterlimit="10"/>
<path d="M63.2499 226.82C61.3299 226.82 59.7699 225.27 59.7699 223.35C59.7699 221.43 58.2099 219.88 56.2999 219.88" stroke="#231815" stroke-width="2.39" stroke-miterlimit="10"/>
<path d="M70.2 219.87C68.28 219.87 66.72 221.42 66.72 223.34C66.72 225.26 65.16 226.81 63.25 226.81" stroke="#231815" stroke-width="2.39" stroke-miterlimit="10"/>
<path d="M70.2 226.82C68.28 226.82 66.72 225.27 66.72 223.35C66.72 221.43 65.16 219.88 63.25 219.88" stroke="#727171" stroke-width="2.39" stroke-miterlimit="10"/>
<path d="M77.16 219.87C75.24 219.87 73.68 221.42 73.68 223.34C73.68 225.26 72.12 226.81 70.21 226.81" stroke="#727171" stroke-width="2.39" stroke-miterlimit="10"/>
<path d="M77.16 226.82C75.24 226.82 73.68 225.27 73.68 223.35C73.68 221.43 72.12 219.88 70.21 219.88" stroke="#231815" stroke-width="2.39" stroke-miterlimit="10"/>
<path d="M84.1099 219.87C82.1899 219.87 80.6299 221.42 80.6299 223.34C80.6299 225.26 79.0699 226.81 77.1599 226.81" stroke="#231815" stroke-width="2.39" stroke-miterlimit="10"/>
<path d="M84.1099 226.82C82.1899 226.82 80.6299 225.27 80.6299 223.35C80.6299 221.43 79.0699 219.88 77.1599 219.88" stroke="#727171" stroke-width="2.39" stroke-miterlimit="10"/>
<path d="M91.06 219.87C89.14 219.87 87.58 221.42 87.58 223.34C87.58 225.26 86.02 226.81 84.11 226.81" stroke="#727171" stroke-width="2.39" stroke-miterlimit="10"/>
<path d="M91.06 226.82C89.14 226.82 87.58 225.27 87.58 223.35C87.58 221.43 86.02 219.88 84.11 219.88" stroke="#231815" stroke-width="2.39" stroke-miterlimit="10"/>
<path d="M98.0099 219.87C96.0899 219.87 94.5299 221.42 94.5299 223.34C94.5299 225.26 92.9699 226.81 91.0599 226.81" stroke="#231815" stroke-width="2.39" stroke-miterlimit="10"/>
<path d="M98.0099 226.82C96.0899 226.82 94.5299 225.27 94.5299 223.35C94.5299 221.43 92.9699 219.88 91.0599 219.88" stroke="#727171" stroke-width="2.39" stroke-miterlimit="10"/>
<path d="M104.96 219.87C103.04 219.87 101.48 221.42 101.48 223.34C101.48 225.26 99.92 226.81 98.01 226.81" stroke="#727171" stroke-width="2.39" stroke-miterlimit="10"/>
<path d="M104.96 226.82C103.04 226.82 101.48 225.27 101.48 223.35C101.48 221.43 99.92 219.88 98.01 219.88" stroke="#231815" stroke-width="2.39" stroke-miterlimit="10"/>
<path d="M111.91 219.87C109.99 219.87 108.43 221.42 108.43 223.34C108.43 225.26 106.87 226.81 104.96 226.81" stroke="#231815" stroke-width="2.39" stroke-miterlimit="10"/>
<path d="M111.91 226.82C109.99 226.82 108.43 225.27 108.43 223.35C108.43 221.43 106.87 219.88 104.96 219.88" stroke="#727171" stroke-width="2.39" stroke-miterlimit="10"/>
<path d="M118.86 219.87C116.94 219.87 115.38 221.42 115.38 223.34C115.38 225.26 113.82 226.81 111.91 226.81" stroke="#727171" stroke-width="2.39" stroke-miterlimit="10"/>
<path d="M118.86 226.82C116.94 226.82 115.38 225.27 115.38 223.35C115.38 221.43 113.82 219.88 111.91 219.88" stroke="#231815" stroke-width="2.39" stroke-miterlimit="10"/>
<path d="M181.41 219.87C179.49 219.87 177.93 221.42 177.93 223.34C177.93 225.26 176.37 226.81 174.46 226.81" stroke="#231815" stroke-width="2.39" stroke-miterlimit="10"/>
<path d="M181.41 226.82C179.49 226.82 177.93 225.27 177.93 223.35C177.93 221.43 176.37 219.88 174.46 219.88" stroke="#727171" stroke-width="2.39" stroke-miterlimit="10"/>
<path d="M188.37 219.87C186.45 219.87 184.89 221.42 184.89 223.34C184.89 225.26 183.33 226.81 181.42 226.81" stroke="#727171" stroke-width="2.39" stroke-miterlimit="10"/>
<path d="M188.37 226.82C186.45 226.82 184.89 225.27 184.89 223.35C184.89 221.43 183.33 219.88 181.42 219.88" stroke="#231815" stroke-width="2.39" stroke-miterlimit="10"/>
<path d="M167.51 219.87C165.59 219.87 164.03 221.42 164.03 223.34C164.03 225.26 162.47 226.81 160.56 226.81" stroke="#231815" stroke-width="2.39" stroke-miterlimit="10"/>
<path d="M167.51 226.82C165.59 226.82 164.03 225.27 164.03 223.35C164.03 221.43 162.47 219.88 160.56 219.88" stroke="#727171" stroke-width="2.39" stroke-miterlimit="10"/>
<path d="M174.46 219.87C172.54 219.87 170.98 221.42 170.98 223.34C170.98 225.26 169.42 226.81 167.51 226.81" stroke="#727171" stroke-width="2.39" stroke-miterlimit="10"/>
<path d="M174.46 226.82C172.54 226.82 170.98 225.27 170.98 223.35C170.98 221.43 169.42 219.88 167.51 219.88" stroke="#231815" stroke-width="2.39" stroke-miterlimit="10"/>
<path d="M153.61 219.87C151.69 219.87 150.13 221.42 150.13 223.34C150.13 225.26 148.57 226.81 146.66 226.81" stroke="#231815" stroke-width="2.39" stroke-miterlimit="10"/>
<path d="M153.61 226.82C151.69 226.82 150.13 225.27 150.13 223.35C150.13 221.43 148.57 219.88 146.66 219.88" stroke="#727171" stroke-width="2.39" stroke-miterlimit="10"/>
<path d="M160.56 219.87C158.64 219.87 157.08 221.42 157.08 223.34C157.08 225.26 155.52 226.81 153.61 226.81" stroke="#727171" stroke-width="2.39" stroke-miterlimit="10"/>
<path d="M160.56 226.82C158.64 226.82 157.08 225.27 157.08 223.35C157.08 221.43 155.52 219.88 153.61 219.88" stroke="#231815" stroke-width="2.39" stroke-miterlimit="10"/>
<path d="M125.81 219.87C123.89 219.87 122.33 221.42 122.33 223.34C122.33 225.26 120.77 226.81 118.86 226.81" stroke="#231815" stroke-width="2.39" stroke-miterlimit="10"/>
<path d="M125.81 226.82C123.89 226.82 122.33 225.27 122.33 223.35C122.33 221.43 120.77 219.88 118.86 219.88" stroke="#727171" stroke-width="2.39" stroke-miterlimit="10"/>
<path d="M132.76 219.87C130.84 219.87 129.28 221.42 129.28 223.34C129.28 225.26 127.72 226.81 125.81 226.81" stroke="#727171" stroke-width="2.39" stroke-miterlimit="10"/>
<path d="M132.76 226.82C130.84 226.82 129.28 225.27 129.28 223.35C129.28 221.43 127.72 219.88 125.81 219.88" stroke="#231815" stroke-width="2.39" stroke-miterlimit="10"/>
<path d="M139.71 219.87C137.79 219.87 136.23 221.42 136.23 223.34C136.23 225.26 134.67 226.81 132.76 226.81" stroke="#231815" stroke-width="2.39" stroke-miterlimit="10"/>
<path d="M139.71 226.82C137.79 226.82 136.23 225.27 136.23 223.35C136.23 221.43 134.67 219.88 132.76 219.88" stroke="#727171" stroke-width="2.39" stroke-miterlimit="10"/>
<path d="M146.66 219.87C144.74 219.87 143.18 221.42 143.18 223.34C143.18 225.26 141.62 226.81 139.71 226.81" stroke="#727171" stroke-width="2.39" stroke-miterlimit="10"/>
<path d="M146.66 226.82C144.74 226.82 143.18 225.27 143.18 223.35C143.18 221.43 141.62 219.88 139.71 219.88" stroke="#231815" stroke-width="2.39" stroke-miterlimit="10"/>
<path d="M195.32 219.87C193.4 219.87 191.84 221.42 191.84 223.34C191.84 225.26 190.28 226.81 188.37 226.81" stroke="#231815" stroke-width="2.39" stroke-miterlimit="10"/>
<path d="M195.32 226.82C193.4 226.82 191.84 225.27 191.84 223.35C191.84 221.43 190.28 219.88 188.37 219.88" stroke="#727171" stroke-width="2.39" stroke-miterlimit="10"/>
<path d="M202.27 219.87C200.35 219.87 198.79 221.42 198.79 223.34C198.79 225.26 197.23 226.81 195.32 226.81" stroke="#727171" stroke-width="2.39" stroke-miterlimit="10"/>
<path d="M202.27 226.82C200.35 226.82 198.79 225.27 198.79 223.35C198.79 221.43 197.23 219.88 195.32 219.88" stroke="#231815" stroke-width="2.39" stroke-miterlimit="10"/>
<path d="M209.22 219.87C207.3 219.87 205.74 221.42 205.74 223.34C205.74 225.26 204.18 226.81 202.27 226.81" stroke="#231815" stroke-width="2.39" stroke-miterlimit="10"/>
<path d="M209.22 226.82C207.3 226.82 205.74 225.27 205.74 223.35C205.74 221.43 204.18 219.88 202.27 219.88" stroke="#727171" stroke-width="2.39" stroke-miterlimit="10"/>
<path d="M216.17 219.87C214.25 219.87 212.69 221.42 212.69 223.34C212.69 225.26 211.13 226.81 209.22 226.81" stroke="#727171" stroke-width="2.39" stroke-miterlimit="10"/>
<path d="M216.17 226.82C214.25 226.82 212.69 225.27 212.69 223.35C212.69 221.43 211.13 219.88 209.22 219.88" stroke="#231815" stroke-width="2.39" stroke-miterlimit="10"/>
<path d="M223.12 219.87C221.2 219.87 219.64 221.42 219.64 223.34C219.64 225.26 218.08 226.81 216.17 226.81" stroke="#231815" stroke-width="2.39" stroke-miterlimit="10"/>
<path d="M223.12 226.82C221.2 226.82 219.64 225.27 219.64 223.35C219.64 221.43 218.08 219.88 216.17 219.88" stroke="#727171" stroke-width="2.39" stroke-miterlimit="10"/>
<path d="M230.07 219.87C228.15 219.87 226.59 221.42 226.59 223.34C226.59 225.26 225.03 226.81 223.12 226.81" stroke="#727171" stroke-width="2.39" stroke-miterlimit="10"/>
<path d="M230.07 226.82C228.15 226.82 226.59 225.27 226.59 223.35C226.59 221.43 225.03 219.88 223.12 219.88" stroke="#231815" stroke-width="2.39" stroke-miterlimit="10"/>
<path d="M237.02 219.87C235.1 219.87 233.54 221.42 233.54 223.34C233.54 225.26 231.98 226.81 230.07 226.81" stroke="#231815" stroke-width="2.39" stroke-miterlimit="10"/>
<path d="M237.02 226.82C235.1 226.82 233.54 225.27 233.54 223.35C233.54 221.43 231.98 219.88 230.07 219.88" stroke="#727171" stroke-width="2.39" stroke-miterlimit="10"/>
<path d="M28.5 219.87H24.2" stroke="#231815" stroke-width="2.39" stroke-miterlimit="10"/>
<path d="M28.54 226.82H24.2" stroke="#727171" stroke-width="2.39" stroke-miterlimit="10"/>
<path d="M251.55 219.87H237.02" stroke="#231815" stroke-width="2.39" stroke-miterlimit="10"/>
<path d="M251.55 226.82H237.02" stroke="#727171" stroke-width="2.39" stroke-miterlimit="10"/>
<path d="M24.2099 208.21H21.9299V232.17H24.2099V208.21Z" fill="white"/>
<path d="M24.2099 208.21H21.9299V232.17H24.2099V208.21Z" stroke="white" stroke-width="0.1" stroke-linecap="round" stroke-linejoin="round"/>
<path d="M21.93 230V232.17H24.2V208.21H21.93V210.29H8.85999V230H21.93Z" fill="white"/>
<path d="M19.75 230V228.86H14.35V224.5H19.75V223.46V222.42H14.35V217.97H19.75V216.92" stroke="black" stroke-width="0.21" stroke-linecap="round" stroke-linejoin="round"/>
<path d="M11.03 230V227.82H13.21V225.64H11.03V223.46V221.19H13.21V219.1H11.03V216.92" stroke="black" stroke-width="0.21" stroke-linecap="round" stroke-linejoin="round"/>
<path d="M19.75 216.92V215.88H14.35V211.52H19.75V210.29" stroke="black" stroke-width="0.21" stroke-linecap="round" stroke-linejoin="round"/>
<path d="M11.03 216.92V214.74H13.21V212.57H11.03V210.29" stroke="black" stroke-width="0.21" stroke-linecap="round" stroke-linejoin="round"/>
<path d="M21.9299 210.29V230" stroke="black" stroke-width="0.21" stroke-linecap="round" stroke-linejoin="round"/>
<path d="M21.93 230V232.17H24.2V208.21H21.93V210.29H8.85999V230H21.93Z" stroke="black" stroke-width="0.63" stroke-linecap="round" stroke-linejoin="round"/>
<path d="M261.23 55.1001H250.34" stroke="black" stroke-width="0.42" stroke-linecap="round" stroke-linejoin="round"/>
<path d="M261.23 48.5701H250.34" stroke="black" stroke-width="0.42" stroke-linecap="round" stroke-linejoin="round"/>
<path d="M261.82 42.03H250.55" stroke="black" stroke-width="0.42" stroke-linecap="round" stroke-linejoin="round"/>
<path d="M250.35 55.2001H24.2" stroke="#F08300" stroke-width="2.39" stroke-linecap="square" stroke-linejoin="round"/>
<path d="M250.35 48.5701H24.2" stroke="#0068B7" stroke-width="2.39" stroke-linecap="square" stroke-linejoin="round"/>
<path d="M250.86 40.8401C250.86 40.8401 250.87 40.8401 250.88 40.8401C251.21 40.8401 251.48 41.3801 251.48 42.0401C251.48 42.7001 251.21 43.2401 250.88 43.2401C250.88 43.2401 250.87 43.2401 250.86 43.2401H23.63V40.8501H250.86V40.8401Z" fill="white" stroke="#231815" stroke-width="0.15" stroke-linecap="square" stroke-linejoin="round"/>
<path d="M276.56 55.2001H261.67" stroke="#F08300" stroke-width="2.39" stroke-miterlimit="10" stroke-linecap="square"/>
<path d="M276.56 48.5701H261.67" stroke="#0068B7" stroke-width="2.39" stroke-miterlimit="10" stroke-linecap="square"/>
<path d="M277.64 40.8401C277.67 40.8401 277.69 41.3801 277.69 42.0401C277.69 42.7001 277.67 43.2401 277.64 43.2401H260.54V40.8501H277.64V40.8401Z" fill="white" stroke="#231815" stroke-width="0.15" stroke-linecap="round" stroke-linejoin="round"/>
<path d="M24.2099 36.04H21.9299V60H24.2099V36.04Z" fill="white"/>
<path d="M24.2099 36.04H21.9299V60H24.2099V36.04Z" stroke="white" stroke-width="0.06" stroke-linecap="round" stroke-linejoin="round"/>
<path d="M21.93 57.82V60H24.2V36.04H21.93V38.12H8.85999V57.82H21.93Z" fill="white"/>
<path d="M19.75 57.82V56.68H14.35V52.33H19.75V51.28V50.24H14.35V45.79H19.75V44.75" stroke="black" stroke-width="0.21" stroke-linecap="round" stroke-linejoin="round"/>
<path d="M11.03 57.82V55.64H13.21V53.46H11.03V51.28V49.01H13.21V46.93H11.03V44.75" stroke="black" stroke-width="0.21" stroke-linecap="round" stroke-linejoin="round"/>
<path d="M19.75 44.75V43.71H14.35V39.35H19.75V38.12" stroke="black" stroke-width="0.21" stroke-linecap="round" stroke-linejoin="round"/>
<path d="M11.03 44.75V42.57H13.21V40.39H11.03V38.12" stroke="black" stroke-width="0.21" stroke-linecap="round" stroke-linejoin="round"/>
<path d="M21.9299 38.12V57.82" stroke="black" stroke-width="0.21" stroke-linecap="round" stroke-linejoin="round"/>
<path d="M21.93 57.82V60H24.2V36.04H21.93V38.12H8.85999V57.82H21.93Z" stroke="black" stroke-width="0.63" stroke-linecap="round" stroke-linejoin="round"/>
<path d="M247.11 18.8799H24.17" stroke="#E60012" stroke-width="2.39" stroke-linejoin="round"/>
<path d="M247.11 25.59H24.17" stroke="#231815" stroke-width="2.39" stroke-linejoin="round"/>
<path d="M22.98 18.8799H247.11" stroke="white" stroke-width="0.56" stroke-miterlimit="10"/>
<path d="M22.98 25.59H247.11" stroke="white" stroke-width="0.56" stroke-miterlimit="10"/>
<path d="M24.17 13.4299H21.9V31.0299H24.17V13.4299Z" fill="white"/>
<path d="M24.17 13.4299H21.9V31.0299H24.17V13.4299Z" stroke="white" stroke-width="0.06" stroke-linecap="round" stroke-linejoin="round"/>
<path d="M21.9 15.6099V13.4299H24.17V31.0399H21.9V28.9599H8.85999V15.6099H21.9Z" fill="white"/>
<path d="M19.73 15.61V16.74H14.34V21.09H19.73V22.13V23.17H14.34V27.62H19.73V28.65" stroke="black" stroke-width="0.21" stroke-linecap="round" stroke-linejoin="round"/>
<path d="M11.03 15.61V17.78H13.2V19.96H11.03V22.13V24.4H13.2V26.48H11.03V28.65" stroke="black" stroke-width="0.21" stroke-linecap="round" stroke-linejoin="round"/>
<path d="M21.9 28.96V15.61" stroke="black" stroke-width="0.21" stroke-linecap="round" stroke-linejoin="round"/>
<path d="M21.9 15.6099V13.4299H24.17V31.0399H21.9V28.9599H8.85999V15.6099H21.9Z" stroke="black" stroke-width="0.63" stroke-linecap="round" stroke-linejoin="round"/>
<path d="M257.14 13.5H247.11V30.97H257.14" stroke="black" stroke-width="0.21" stroke-linecap="round" stroke-linejoin="round"/>
<path d="M257.14 30.9699C258.65 30.9699 259.88 32.1999 259.88 33.7099V35.6499H277.57V32.3499C277.57 31.5799 276.95 30.9599 276.18 30.9599H273.87V13.5099H276.18C276.95 13.5099 277.57 12.8899 277.57 12.1199V8.81995H259.88V10.7599C259.88 12.2699 258.65 13.4999 257.14 13.4999" stroke="black" stroke-width="0.21" stroke-linecap="round" stroke-linejoin="round"/>
<path d="M261.49 15.6799H256.68V18.1299H261.49V15.6799Z" stroke="black" stroke-width="0.21" stroke-linecap="round" stroke-linejoin="round"/>
<path d="M261.49 21.0099H256.68V23.4599H261.49V21.0099Z" stroke="black" stroke-width="0.21" stroke-linecap="round" stroke-linejoin="round"/>
<path d="M261.49 26.34H256.68V28.79H261.49V26.34Z" stroke="black" stroke-width="0.21" stroke-linecap="round" stroke-linejoin="round"/>
<path d="M248.53 13.5V30.97" stroke="black" stroke-width="0.21" stroke-linecap="round" stroke-linejoin="round"/>
<path d="M273.87 30.96V13.51H274.62L273.45 12.35H272.09L270.32 13.52H262.74V20.77V23.78V31.03H270.32L272.09 32.19H273.45L274.69 30.96H273.87Z" stroke="black" stroke-width="0.21" stroke-linecap="round" stroke-linejoin="round"/>
<path d="M262.74 15.5199H270.51C271.28 15.5199 271.91 16.1499 271.91 16.9199C271.91 17.6899 271.28 18.3199 270.51 18.3199H262.74" stroke="black" stroke-width="0.21" stroke-linecap="round" stroke-linejoin="round"/>
<path d="M262.74 26.1499H270.51C271.28 26.1499 271.91 26.7799 271.91 27.5499C271.91 28.3199 271.28 28.9499 270.51 28.9499H262.74" stroke="black" stroke-width="0.21" stroke-linecap="round" stroke-linejoin="round"/>
<path d="M276.18 8.81995H259.87V10.7599C259.87 12.2699 258.64 13.4999 257.13 13.4999H247.11V30.9799H257.13C258.64 30.9799 259.87 32.2099 259.87 33.7199V35.6599H277.56V32.3599C277.56 31.5899 276.94 30.9699 276.17 30.9699H273.86V13.5099H274.61H276.17C276.94 13.5099 277.56 12.8899 277.56 12.1199V8.81995H276.17H276.18Z" stroke="black" stroke-width="0.63" stroke-linecap="round" stroke-linejoin="round"/>
</g>
<defs>
<clipPath id="clip0_923_9060">
<rect width="286.39" height="240.99" fill="white"/>
</clipPath>
</defs>
</svg>
