<svg width="66" height="200" viewBox="0 0 66 200" fill="none" xmlns="http://www.w3.org/2000/svg">
<g clip-path="url(#clip0_256_139)">
<path d="M66 0H0V200H66V0Z" fill="white"/>
<path d="M51.0754 67.1889H45.9473" stroke="#9FA0A0" stroke-width="0.5" stroke-linecap="round" stroke-linejoin="round"/>
<path d="M45.9473 64.9973H51.0754" stroke="#9FA0A0" stroke-width="0.5" stroke-linecap="round" stroke-linejoin="round"/>
<path d="M20.299 67.1889H15.1709" stroke="#9FA0A0" stroke-width="0.5" stroke-linecap="round" stroke-linejoin="round"/>
<path d="M15.1709 64.9973H20.299" stroke="#9FA0A0" stroke-width="0.5" stroke-linecap="round" stroke-linejoin="round"/>
<path d="M37.7394 194.683H28.5073" stroke="#231815" stroke-linecap="round" stroke-linejoin="round"/>
<path d="M13.8862 185.719H28.5071" stroke="#231815" stroke-linecap="round" stroke-linejoin="round"/>
<path d="M37.7393 185.719H52.3565" stroke="#231815" stroke-linecap="round" stroke-linejoin="round"/>
<path d="M8.85938 167.388H11.8342" stroke="#231815" stroke-linecap="round" stroke-linejoin="round"/>
<path d="M54.4087 167.388H57.3835" stroke="#231815" stroke-linecap="round" stroke-linejoin="round"/>
<path d="M8.85938 167.388V22.7712" stroke="#231815" stroke-linecap="round" stroke-linejoin="round"/>
<path d="M11.8345 167.388V183.685" stroke="#231815" stroke-linecap="round" stroke-linejoin="round"/>
<path d="M13.6294 57.9087V67.5841" stroke="#9FA0A0" stroke-width="0.5" stroke-linecap="round" stroke-linejoin="round"/>
<path d="M15.1709 67.5841V62.5685" stroke="#9FA0A0" stroke-width="0.5" stroke-linecap="round" stroke-linejoin="round"/>
<path d="M16.644 101.191V78.7864" stroke="#231815" stroke-width="0.5" stroke-linecap="round" stroke-linejoin="round"/>
<path d="M16.709 22.7712V11.0587" stroke="#231815" stroke-linecap="round" stroke-linejoin="round"/>
<path d="M20.2993 67.5841V62.5685" stroke="#9FA0A0" stroke-width="0.5" stroke-linecap="round" stroke-linejoin="round"/>
<path d="M21.8374 67.5841V57.9087" stroke="#9FA0A0" stroke-width="0.5" stroke-linecap="round" stroke-linejoin="round"/>
<path d="M28.5073 194.683V185.719" stroke="#231815" stroke-linecap="round" stroke-linejoin="round"/>
<path d="M30.8159 151.4V141.215" stroke="#231815" stroke-width="0.5" stroke-linecap="round" stroke-linejoin="round"/>
<path d="M35.4302 141.215V151.4" stroke="#231815" stroke-width="0.5" stroke-linecap="round" stroke-linejoin="round"/>
<path d="M37.7393 194.683V185.719" stroke="#231815" stroke-linecap="round" stroke-linejoin="round"/>
<path d="M47.4204 103.228H18.6963" stroke="#231815" stroke-width="0.5" stroke-linecap="round" stroke-linejoin="round"/>
<path d="M44.4058 57.9087V67.5841" stroke="#9FA0A0" stroke-width="0.5" stroke-linecap="round" stroke-linejoin="round"/>
<path d="M45.9473 67.5841V62.5685" stroke="#9FA0A0" stroke-width="0.5" stroke-linecap="round" stroke-linejoin="round"/>
<path d="M49.4722 78.7864V101.191" stroke="#231815" stroke-width="0.5" stroke-linecap="round" stroke-linejoin="round"/>
<path d="M49.5371 22.7712V11.0587" stroke="#231815" stroke-linecap="round" stroke-linejoin="round"/>
<path d="M51.0752 67.5841V62.5685" stroke="#9FA0A0" stroke-width="0.5" stroke-linecap="round" stroke-linejoin="round"/>
<path d="M52.6133 67.5841V57.9087" stroke="#9FA0A0" stroke-width="0.5" stroke-linecap="round" stroke-linejoin="round"/>
<path d="M54.4087 183.685V167.388" stroke="#231815" stroke-linecap="round" stroke-linejoin="round"/>
<path d="M57.3833 167.388V22.7712" stroke="#231815" stroke-linecap="round" stroke-linejoin="round"/>
<path d="M18.6963 76.7493H47.4204" stroke="#231815" stroke-width="0.5" stroke-linecap="round" stroke-linejoin="round"/>
<path d="M13.6294 67.5841H15.1711" stroke="#9FA0A0" stroke-width="0.5" stroke-linecap="round" stroke-linejoin="round"/>
<path d="M20.2993 67.5841H21.8374" stroke="#9FA0A0" stroke-width="0.5" stroke-linecap="round" stroke-linejoin="round"/>
<path d="M44.4058 67.5841H45.9475" stroke="#9FA0A0" stroke-width="0.5" stroke-linecap="round" stroke-linejoin="round"/>
<path d="M51.0752 67.5841H52.6133" stroke="#9FA0A0" stroke-width="0.5" stroke-linecap="round" stroke-linejoin="round"/>
<path d="M38.2531 63.765H27.9932" stroke="#231815" stroke-width="0.5" stroke-linecap="round" stroke-linejoin="round"/>
<path d="M50.5615 62.0583H46.4575" stroke="#9FA0A0" stroke-width="0.5" stroke-linecap="round" stroke-linejoin="round"/>
<path d="M19.7856 62.0583H15.6816" stroke="#9FA0A0" stroke-width="0.5" stroke-linecap="round" stroke-linejoin="round"/>
<path d="M27.9932 59.1805H38.2531" stroke="#231815" stroke-width="0.5" stroke-linecap="round" stroke-linejoin="round"/>
<path d="M51.0754 56.3782H45.9473" stroke="#9FA0A0" stroke-width="0.5" stroke-linecap="round" stroke-linejoin="round"/>
<path d="M20.299 56.3782H15.1709" stroke="#9FA0A0" stroke-width="0.5" stroke-linecap="round" stroke-linejoin="round"/>
<path d="M16.709 22.7712H8.85938" stroke="#231815" stroke-linecap="round" stroke-linejoin="round"/>
<path d="M49.5371 22.7712H57.3831" stroke="#231815" stroke-linecap="round" stroke-linejoin="round"/>
<path d="M16.709 11.0587H49.5371" stroke="#231815" stroke-linecap="round" stroke-linejoin="round"/>
<path d="M16.644 101.191C16.644 102.316 17.5633 103.228 18.696 103.228" stroke="#231815" stroke-width="0.5" stroke-linecap="round" stroke-linejoin="round"/>
<path d="M11.8345 183.685C11.8345 184.81 12.7537 185.722 13.8865 185.722" stroke="#231815" stroke-linecap="round" stroke-linejoin="round"/>
<path d="M27.9935 59.1805C26.7196 59.1805 25.6846 60.2081 25.6846 61.4727C25.6846 62.7374 26.7196 63.7649 27.9935 63.7649" stroke="#231815" stroke-width="0.5" stroke-linecap="round" stroke-linejoin="round"/>
<path d="M18.696 76.7493C17.5633 76.7493 16.644 77.6618 16.644 78.7864" stroke="#231815" stroke-width="0.5" stroke-linecap="round" stroke-linejoin="round"/>
<path d="M15.1709 56.3782C14.3204 56.3782 13.6328 57.0608 13.6328 57.9051" stroke="#9FA0A0" stroke-width="0.5" stroke-linecap="round" stroke-linejoin="round"/>
<path d="M21.8374 57.9087C21.8374 57.0644 21.1498 56.3818 20.2993 56.3818" stroke="#9FA0A0" stroke-width="0.5" stroke-linecap="round" stroke-linejoin="round"/>
<path d="M20.2991 62.5685C20.2991 62.2883 20.0711 62.0583 19.7852 62.0583" stroke="#9FA0A0" stroke-width="0.5" stroke-linecap="round" stroke-linejoin="round"/>
<path d="M15.6814 62.0583C15.3991 62.0583 15.1675 62.2847 15.1675 62.5685" stroke="#9FA0A0" stroke-width="0.5" stroke-linecap="round" stroke-linejoin="round"/>
<path d="M30.8159 151.4C30.8159 152.665 31.8473 153.689 33.1212 153.689C34.3951 153.689 35.4265 152.665 35.4265 151.4" stroke="#231815" stroke-width="0.5" stroke-linecap="round" stroke-linejoin="round"/>
<path d="M35.4305 141.215C35.4305 139.95 34.399 138.926 33.1251 138.926C31.8512 138.926 30.8198 139.95 30.8198 141.215" stroke="#231815" stroke-width="0.5" stroke-linecap="round" stroke-linejoin="round"/>
<path d="M47.4204 103.228C48.5532 103.228 49.4724 102.316 49.4724 101.191" stroke="#231815" stroke-width="0.5" stroke-linecap="round" stroke-linejoin="round"/>
<path d="M52.3564 185.719C53.4892 185.719 54.4084 184.806 54.4084 183.682" stroke="#231815" stroke-linecap="round" stroke-linejoin="round"/>
<path d="M38.2534 63.7649C39.5273 63.7649 40.5624 62.7374 40.5624 61.4727C40.5624 60.2081 39.5273 59.1805 38.2534 59.1805" stroke="#231815" stroke-width="0.5" stroke-linecap="round" stroke-linejoin="round"/>
<path d="M49.4724 78.7864C49.4724 77.6618 48.5532 76.7493 47.4204 76.7493" stroke="#231815" stroke-width="0.5" stroke-linecap="round" stroke-linejoin="round"/>
<path d="M45.9473 56.3782C45.0968 56.3782 44.4092 57.0608 44.4092 57.9051" stroke="#9FA0A0" stroke-width="0.5" stroke-linecap="round" stroke-linejoin="round"/>
<path d="M52.6133 57.9087C52.6133 57.0644 51.9257 56.3818 51.0752 56.3818" stroke="#9FA0A0" stroke-width="0.5" stroke-linecap="round" stroke-linejoin="round"/>
<path d="M46.4577 62.0583C46.1755 62.0583 45.9438 62.2847 45.9438 62.5685" stroke="#9FA0A0" stroke-width="0.5" stroke-linecap="round" stroke-linejoin="round"/>
<path d="M51.0754 62.5685C51.0754 62.2883 50.8474 62.0583 50.5615 62.0583" stroke="#9FA0A0" stroke-width="0.5" stroke-linecap="round" stroke-linejoin="round"/>
<path d="M15.9385 167.388C15.9385 166.404 16.7419 165.606 17.7335 165.606C18.7251 165.606 19.5285 166.404 19.5285 167.388C19.5285 168.373 18.7251 169.17 17.7335 169.17C16.7419 169.17 15.9385 168.373 15.9385 167.388Z" stroke="#231815" stroke-width="0.5" stroke-linecap="round" stroke-linejoin="round"/>
<path d="M15.9385 40.0849C15.9385 39.1005 16.7419 38.3029 17.7335 38.3029C18.7251 38.3029 19.5285 39.1005 19.5285 40.0849C19.5285 41.0693 18.7251 41.8669 17.7335 41.8669C16.7419 41.8669 15.9385 41.0693 15.9385 40.0849Z" stroke="#231815" stroke-width="0.5" stroke-linecap="round" stroke-linejoin="round"/>
<path d="M46.7144 167.388C46.7144 166.404 47.5178 165.606 48.5094 165.606C49.501 165.606 50.3044 166.404 50.3044 167.388C50.3044 168.373 49.501 169.17 48.5094 169.17C47.5178 169.17 46.7144 168.373 46.7144 167.388Z" stroke="#231815" stroke-width="0.5" stroke-linecap="round" stroke-linejoin="round"/>
<path d="M46.7144 40.0849C46.7144 39.1005 47.5178 38.3029 48.5094 38.3029C49.501 38.3029 50.3044 39.1005 50.3044 40.0849C50.3044 41.0693 49.501 41.8669 48.5094 41.8669C47.5178 41.8669 46.7144 41.0693 46.7144 40.0849Z" stroke="#231815" stroke-width="0.5" stroke-linecap="round" stroke-linejoin="round"/>
<path d="M58.7549 189.153V189.664" stroke="#231815" stroke-width="0.43" stroke-linecap="round" stroke-linejoin="bevel"/>
<path d="M58.7549 190.231V191.079" stroke="#231815" stroke-width="0.43" stroke-linecap="round" stroke-linejoin="bevel" stroke-dasharray="1.58 1.58"/>
<path d="M58.7549 191.363V191.873" stroke="#231815" stroke-width="0.43" stroke-linecap="round" stroke-linejoin="bevel"/>
<path d="M58.7549 191.873H58.2446" stroke="#231815" stroke-width="0.43" stroke-linecap="round" stroke-linejoin="bevel"/>
<path d="M57.6366 191.873H56.7246" stroke="#231815" stroke-width="0.43" stroke-linecap="round" stroke-linejoin="bevel" stroke-dasharray="1.68 1.68"/>
<path d="M56.4206 191.873H55.9067" stroke="#231815" stroke-width="0.43" stroke-linecap="round" stroke-linejoin="bevel"/>
<path d="M58.737 189.153C58.6284 189.322 58.3027 189.768 57.597 190.07C56.9057 190.364 56.2507 190.353 56.001 190.339" stroke="#231815" stroke-width="0.43" stroke-linecap="round" stroke-linejoin="bevel"/>
<path d="M55.9755 190.357C56.3012 190.795 56.3808 191.306 56.1818 191.625C56.1384 191.694 56.0587 191.794 55.9067 191.873" stroke="#231815" stroke-width="0.43" stroke-linecap="round" stroke-linejoin="bevel"/>
<path d="M58.7478 189.168C58.5994 189.559 58.2737 190.239 57.5101 190.9C56.9419 191.392 56.3375 191.697 55.9141 191.873" stroke="#231815" stroke-width="0.43"/>
<path d="M50.9814 190.149V189.121H51.3723C51.4411 189.121 51.4917 189.121 51.5315 189.132C51.5822 189.139 51.6256 189.157 51.6582 189.179C51.6908 189.204 51.7197 189.236 51.7414 189.279C51.7632 189.322 51.774 189.369 51.774 189.419C51.774 189.506 51.7451 189.581 51.6908 189.642C51.6329 189.703 51.5352 189.732 51.3868 189.732H51.1226V190.149H50.9851H50.9814ZM51.119 189.61H51.3868C51.4773 189.61 51.5388 189.592 51.575 189.559C51.6112 189.527 51.6293 189.48 51.6293 189.423C51.6293 189.38 51.6184 189.344 51.5967 189.312C51.575 189.279 51.546 189.261 51.5098 189.25C51.4881 189.243 51.4447 189.24 51.3832 189.24H51.119V189.606V189.61Z" fill="#231815"/>
<path d="M51.9478 190.149V189.121H52.6969V189.243H52.0853V189.559H52.6571V189.682H52.0853V190.03H52.7222V190.152H51.9478V190.149Z" fill="#231815"/>
<path d="M52.9141 190.149V189.121H53.6632V189.243H53.0516V189.559H53.6234V189.682H53.0516V190.03H53.6885V190.152H52.9141V190.149Z" fill="#231815"/>
<path d="M53.873 190.149V189.121H54.0106V190.03H54.5208V190.152H53.873V190.149Z" fill="#231815"/>
<path d="M50.9849 191.873V190.846H51.1224V191.27H51.6616V190.846H51.7991V191.873H51.6616V191.388H51.1224V191.873H50.9849Z" fill="#231815"/>
<path d="M52.0273 191.873V190.846H52.7765V190.968H52.1649V191.284H52.7367V191.406H52.1649V191.755H52.8018V191.877H52.0273V191.873Z" fill="#231815"/>
<path d="M52.9937 191.873V190.846H53.4533C53.5437 190.846 53.6161 190.856 53.6632 190.874C53.7102 190.892 53.75 190.925 53.779 190.971C53.8079 191.018 53.8224 191.068 53.8224 191.126C53.8224 191.198 53.7971 191.259 53.75 191.309C53.703 191.359 53.6306 191.392 53.5293 191.406C53.5655 191.424 53.5944 191.442 53.6125 191.456C53.6523 191.492 53.6921 191.539 53.7247 191.593L53.9056 191.873H53.7319L53.5944 191.658C53.5546 191.597 53.522 191.55 53.4967 191.517C53.4714 191.485 53.446 191.46 53.4279 191.449C53.4062 191.435 53.3881 191.428 53.3664 191.42C53.3519 191.42 53.3266 191.417 53.2904 191.417H53.1312V191.873H52.9937ZM53.1312 191.298H53.4243C53.4858 191.298 53.5365 191.291 53.5727 191.28C53.6089 191.266 53.6342 191.248 53.6523 191.219C53.6704 191.191 53.6813 191.158 53.6813 191.126C53.6813 191.076 53.6632 191.036 53.627 191.007C53.5908 190.975 53.5365 190.961 53.4569 190.961H53.1276V191.302L53.1312 191.298Z" fill="#231815"/>
<path d="M54.0396 191.873V190.846H54.7887V190.968H54.1771V191.284H54.7489V191.406H54.1771V191.755H54.814V191.877H54.0396V191.873Z" fill="#231815"/>
<path d="M25.1343 193.217V187.185" stroke="black" stroke-width="0.5" stroke-linecap="round" stroke-linejoin="round"/>
<path d="M25.1342 192.897L24.4827 192.502L24.4683 192.523L24.8917 193.58C24.9749 193.946 25.0545 194.316 25.1378 194.683C25.221 194.316 25.3006 193.946 25.3839 193.58L25.8073 192.523L25.7964 192.502L25.1414 192.897H25.1342Z" fill="black"/>
<path d="M25.1342 187.508L24.4827 187.903L24.4683 187.882L24.8917 186.825C24.9749 186.459 25.0545 186.089 25.1378 185.722C25.221 186.089 25.3006 186.459 25.3839 186.825L25.8073 187.882L25.7964 187.903L25.1414 187.508H25.1342Z" fill="black"/>
<path d="M27.371 194.683H11.5776" stroke="black" stroke-width="0.5" stroke-linecap="round" stroke-linejoin="round"/>
<path d="M22.4561 191.025C22.59 191.025 22.7094 191.061 22.8107 191.137C22.9121 191.212 22.9881 191.313 23.0387 191.435C23.0894 191.291 23.169 191.173 23.2812 191.086C23.3934 191 23.5201 190.953 23.6648 190.953C23.9001 190.953 24.0846 191.029 24.2149 191.183C24.3452 191.338 24.4103 191.532 24.4103 191.765C24.4103 192.017 24.3452 192.222 24.2149 192.38C24.0846 192.538 23.9037 192.617 23.6648 192.617C23.5201 192.617 23.3934 192.574 23.2812 192.484C23.1726 192.394 23.0894 192.272 23.0387 192.121C22.9881 192.25 22.9121 192.355 22.8107 192.43C22.7094 192.505 22.59 192.545 22.4561 192.545C22.2317 192.545 22.058 192.473 21.9386 192.329C21.8191 192.186 21.7612 191.999 21.7612 191.769C21.7612 191.55 21.8228 191.374 21.9422 191.234C22.0616 191.093 22.2317 191.025 22.4561 191.025ZM22.4633 191.37C22.3403 191.37 22.2389 191.41 22.1593 191.485C22.0797 191.561 22.0399 191.658 22.0399 191.769C22.0399 191.895 22.0797 191.995 22.1557 192.078C22.2317 192.157 22.3367 192.2 22.4669 192.2C22.5972 192.2 22.7022 192.161 22.7854 192.078C22.8686 191.995 22.9085 191.891 22.9085 191.769C22.9085 191.654 22.8686 191.561 22.7854 191.485C22.7058 191.41 22.5972 191.37 22.4669 191.37H22.4633ZM23.6576 191.298C23.5165 191.298 23.4006 191.345 23.3102 191.435C23.2197 191.525 23.1726 191.636 23.1726 191.769C23.1726 191.913 23.2161 192.035 23.3102 192.128C23.4006 192.222 23.5165 192.272 23.6576 192.272C23.7987 192.272 23.9182 192.225 24.005 192.132C24.0919 192.038 24.1353 191.916 24.1353 191.769C24.1353 191.636 24.0919 191.525 24.005 191.435C23.9182 191.345 23.8024 191.302 23.6576 191.302V191.298Z" fill="#231815"/>
<path d="M24.3744 190.145V190.49H24.0161V190.145H24.3744Z" fill="#231815"/>
<path d="M22.4561 188.04C22.59 188.04 22.7094 188.076 22.8107 188.151C22.9121 188.226 22.9881 188.327 23.0387 188.449C23.0894 188.306 23.169 188.187 23.2812 188.101C23.3934 188.014 23.5201 187.968 23.6648 187.968C23.9001 187.968 24.0846 188.043 24.2149 188.198C24.3452 188.352 24.4103 188.546 24.4103 188.78C24.4103 189.031 24.3452 189.236 24.2149 189.394C24.0846 189.552 23.9037 189.631 23.6648 189.631C23.5201 189.631 23.3934 189.588 23.2812 189.498C23.1726 189.408 23.0894 189.286 23.0387 189.135C22.9881 189.265 22.9121 189.369 22.8107 189.444C22.7094 189.52 22.59 189.559 22.4561 189.559C22.2317 189.559 22.058 189.488 21.9386 189.344C21.8191 189.2 21.7612 189.013 21.7612 188.783C21.7612 188.564 21.8228 188.388 21.9422 188.248C22.0616 188.108 22.2317 188.04 22.4561 188.04ZM22.4633 188.385C22.3403 188.385 22.2389 188.424 22.1593 188.499C22.0797 188.575 22.0399 188.672 22.0399 188.783C22.0399 188.909 22.0797 189.01 22.1557 189.092C22.2317 189.171 22.3367 189.214 22.4669 189.214C22.5972 189.214 22.7022 189.175 22.7854 189.092C22.8686 189.01 22.9085 188.905 22.9085 188.783C22.9085 188.668 22.8686 188.575 22.7854 188.499C22.7058 188.424 22.5972 188.385 22.4669 188.385H22.4633ZM23.6576 188.313C23.5165 188.313 23.4006 188.359 23.3102 188.449C23.2197 188.539 23.1726 188.65 23.1726 188.783C23.1726 188.927 23.2161 189.049 23.3102 189.143C23.4006 189.236 23.5165 189.286 23.6576 189.286C23.7987 189.286 23.9182 189.24 24.005 189.146C24.0919 189.053 24.1353 188.931 24.1353 188.783C24.1353 188.65 24.0919 188.539 24.005 188.449C23.9182 188.359 23.8024 188.316 23.6576 188.316V188.313Z" fill="#231815"/>
<path d="M29.9805 187.429H36.2631" stroke="black" stroke-width="0.5" stroke-linecap="round" stroke-linejoin="round"/>
<path d="M30.306 187.429L30.7041 186.782L30.6824 186.768L29.6184 187.188C29.2492 187.271 28.8765 187.35 28.5073 187.432C28.8765 187.515 29.2492 187.594 29.6184 187.677L30.6824 188.097L30.7041 188.086L30.306 187.436V187.429Z" fill="black"/>
<path d="M35.9406 187.429L35.5425 186.782L35.5642 186.768L36.6282 187.188C36.9973 187.271 37.3701 187.35 37.7392 187.432C37.3701 187.515 36.9973 187.594 36.6282 187.677L35.5642 188.097L35.5425 188.086L35.9406 187.436V187.429Z" fill="black"/>
<path d="M53.1455 21.158V12.5245" stroke="black" stroke-width="0.5" stroke-linecap="round" stroke-linejoin="round"/>
<path d="M53.1454 20.8347L52.494 20.4395L52.4795 20.461L52.9029 21.5173C52.9862 21.8838 53.0658 22.2538 53.149 22.6203C53.2322 22.2538 53.3119 21.8838 53.3951 21.5173L53.8185 20.461L53.8077 20.4395L53.1526 20.8347H53.1454Z" fill="black"/>
<path d="M53.1454 12.8479L52.494 13.2431L52.4795 13.2215L52.9029 12.1652C52.9862 11.7988 53.0658 11.4287 53.149 11.0623C53.2322 11.4287 53.3119 11.7988 53.3951 12.1652L53.8185 13.2215L53.8077 13.2431L53.1526 12.8479H53.1454Z" fill="black"/>
<path d="M33.9826 184.702C33.9826 184.835 33.9464 184.953 33.8704 185.054C33.7944 185.155 33.6931 185.23 33.5701 185.28C33.7148 185.331 33.8342 185.41 33.9211 185.521C34.008 185.632 34.055 185.758 34.055 185.902C34.055 186.135 33.979 186.319 33.8234 186.448C33.6678 186.577 33.4723 186.642 33.2371 186.642C32.9838 186.642 32.7775 186.577 32.6182 186.448C32.459 186.319 32.3794 186.139 32.3794 185.902C32.3794 185.758 32.4228 185.632 32.5133 185.521C32.6038 185.41 32.7268 185.331 32.8788 185.28C32.7485 185.23 32.6436 185.155 32.5676 185.054C32.4916 184.953 32.4518 184.835 32.4518 184.702C32.4518 184.479 32.5242 184.307 32.6689 184.188C32.8137 184.07 33.0019 184.012 33.2335 184.012C33.4542 184.012 33.6316 184.073 33.7727 184.192C33.9139 184.31 33.9826 184.483 33.9826 184.702ZM33.7076 185.895C33.7076 185.755 33.6605 185.64 33.5701 185.55C33.4796 185.46 33.3674 185.413 33.2335 185.413C33.0887 185.413 32.9657 185.456 32.8716 185.55C32.7775 185.643 32.7268 185.755 32.7268 185.895C32.7268 186.035 32.7739 186.153 32.868 186.24C32.9621 186.326 33.0851 186.369 33.2335 186.369C33.3674 186.369 33.4796 186.326 33.5701 186.24C33.6605 186.153 33.704 186.038 33.704 185.895H33.7076ZM33.6352 184.705C33.6352 184.583 33.5954 184.483 33.5194 184.404C33.4434 184.325 33.3457 184.285 33.2335 184.285C33.1068 184.285 33.0055 184.325 32.9222 184.4C32.8426 184.476 32.7992 184.58 32.7992 184.709C32.7992 184.838 32.839 184.943 32.9222 185.025C33.0055 185.108 33.1104 185.147 33.2335 185.147C33.3493 185.147 33.4434 185.108 33.5194 185.025C33.5954 184.946 33.6352 184.838 33.6352 184.709V184.705Z" fill="#231815"/>
<path d="M39.4546 191.873V188.809H40.4607C40.7828 188.809 41.0361 188.877 41.2171 189.017C41.398 189.157 41.4921 189.362 41.4921 189.638C41.4921 189.771 41.4523 189.89 41.3691 189.994C41.2858 190.098 41.1772 190.177 41.0433 190.235C41.246 190.264 41.4052 190.35 41.5247 190.497C41.6441 190.644 41.702 190.813 41.702 191.014C41.702 191.295 41.6115 191.51 41.427 191.658C41.2424 191.805 40.9927 191.88 40.6814 191.88H39.4582L39.4546 191.873ZM39.8744 190.113H40.5512C40.7068 190.113 40.8334 190.07 40.9311 189.987C41.0289 189.904 41.0759 189.782 41.0759 189.631C41.0759 189.466 41.0216 189.34 40.9167 189.261C40.8117 189.182 40.6597 189.139 40.4607 189.139H39.8708V190.116L39.8744 190.113ZM39.8744 190.436V191.55H40.6814C40.8732 191.55 41.0216 191.503 41.1266 191.41C41.2315 191.316 41.2858 191.183 41.2858 191.014C41.2858 190.846 41.2315 190.709 41.123 190.605C41.0144 190.501 40.8696 190.447 40.6887 190.44H39.878L39.8744 190.436Z" fill="#231815"/>
<path d="M42.632 191.55H44.1375V191.873H42.2158V188.809H42.632V191.55Z" fill="#231815"/>
<path d="M46.9388 191.873H46.5226L45.0352 189.531H45.0207V191.873H44.6045V188.809H45.0207L46.5081 191.147H46.5226V188.809H46.9388V191.873Z" fill="#231815"/>
<path d="M49.5371 191.873H47.619V191.589L48.5889 190.443C48.7627 190.235 48.8785 190.07 48.94 189.947C49.0015 189.825 49.0305 189.7 49.0305 189.577C49.0305 189.437 48.987 189.319 48.9038 189.229C48.8206 189.139 48.7048 189.092 48.5564 189.092C48.3754 189.092 48.2343 189.146 48.1402 189.258C48.0461 189.369 47.9954 189.506 47.9954 189.671H47.5937V189.656C47.5829 189.405 47.6661 189.197 47.8434 189.021C48.0208 188.844 48.256 188.762 48.5564 188.762C48.8314 188.762 49.0486 188.837 49.2078 188.988C49.367 189.139 49.4467 189.337 49.4467 189.574C49.4467 189.735 49.4032 189.894 49.3127 190.048C49.2223 190.203 49.0848 190.397 48.9038 190.63L48.1257 191.535V191.546H49.5371V191.87V191.873Z" fill="#231815"/>
<path d="M22.6807 6.89459H22.1705V8.26344H21.9606V6.89459H21.4575V6.73291H22.6771V6.89459H22.6807Z" fill="#231815"/>
<path d="M23.0788 7.27906C23.1186 7.22517 23.1656 7.18206 23.2235 7.14972C23.2814 7.11739 23.3466 7.10302 23.4153 7.10302C23.5384 7.10302 23.6325 7.13894 23.7012 7.2108C23.77 7.28266 23.8026 7.39763 23.8026 7.54852V8.26349H23.5927V7.54852C23.5927 7.45511 23.5709 7.38325 23.5311 7.34014C23.4913 7.29703 23.4298 7.27188 23.3502 7.27188C23.2887 7.27188 23.2344 7.28266 23.1873 7.30781C23.1403 7.33295 23.1041 7.36529 23.0751 7.4084V8.26349H22.8652V6.62158H23.0751V7.27906H23.0788Z" fill="#231815"/>
<path d="M24.5809 8.28865C24.4144 8.28865 24.2878 8.23476 24.1937 8.13057C24.1032 8.02637 24.0562 7.88985 24.0562 7.71739V7.67069C24.0562 7.50542 24.1032 7.37249 24.1973 7.2647C24.2914 7.15692 24.4072 7.10303 24.5447 7.10303C24.6967 7.10303 24.8125 7.14973 24.8885 7.24674C24.9645 7.34374 25.0043 7.4659 25.0043 7.62398V7.73177H24.2661C24.2661 7.85033 24.2914 7.94374 24.3421 8.0156C24.3927 8.08745 24.4723 8.12338 24.5737 8.12338C24.6461 8.12338 24.7076 8.1126 24.7582 8.09464C24.8125 8.07308 24.856 8.04793 24.8958 8.012L24.979 8.14853C24.9392 8.18805 24.8849 8.22039 24.8161 8.24913C24.7474 8.27787 24.6678 8.28865 24.5737 8.28865H24.5809ZM24.5483 7.2683C24.476 7.2683 24.4144 7.29704 24.3674 7.35093C24.3203 7.40841 24.2914 7.47668 24.2805 7.5665L24.798 7.57009V7.55213C24.798 7.46949 24.7763 7.40123 24.7365 7.34734C24.6967 7.29345 24.6316 7.2647 24.5483 7.2647V7.2683Z" fill="#231815"/>
<path d="M26.0717 6.85156V7.12461H26.2889V7.27911H26.0717V7.96892C26.0717 8.02281 26.0826 8.05874 26.1043 8.0803C26.126 8.10185 26.155 8.11263 26.1911 8.11263C26.202 8.11263 26.2165 8.11263 26.231 8.10904C26.2454 8.10545 26.2599 8.10185 26.2671 8.09826L26.2961 8.24197C26.2961 8.24197 26.2563 8.26353 26.2273 8.27431C26.1984 8.28509 26.1658 8.28509 26.1369 8.28509C26.0536 8.28509 25.9849 8.25994 25.9342 8.20964C25.8835 8.15934 25.8582 8.0803 25.8582 7.96892V7.27911H25.6772V7.12461H25.8582V6.85156H26.0681H26.0717Z" fill="#231815"/>
<path d="M26.4626 7.68506C26.4626 7.5162 26.5097 7.37967 26.6001 7.2683C26.6906 7.15692 26.8173 7.10303 26.9729 7.10303C27.1285 7.10303 27.2588 7.15692 27.3493 7.2647C27.4434 7.37249 27.4868 7.51261 27.4868 7.68147V7.70302C27.4868 7.87189 27.4397 8.012 27.3493 8.11979C27.2588 8.22757 27.1321 8.28146 26.9729 8.28146C26.8136 8.28146 26.6906 8.22757 26.5965 8.11979C26.506 8.012 26.459 7.87189 26.459 7.70302V7.68147L26.4626 7.68506ZM26.6725 7.71021C26.6725 7.83236 26.6978 7.92937 26.7485 8.00841C26.7992 8.08745 26.8752 8.12697 26.9765 8.12697C27.0778 8.12697 27.1502 8.08745 27.2045 8.00841C27.2588 7.92937 27.2805 7.82877 27.2805 7.71021V7.68865C27.2805 7.57009 27.2552 7.46949 27.2009 7.39045C27.1502 7.31141 27.0742 7.27189 26.9729 7.27189C26.8716 7.27189 26.7992 7.31141 26.7485 7.39045C26.6978 7.46949 26.6725 7.57009 26.6725 7.68865V7.71021Z" fill="#231815"/>
<path d="M27.9716 8.26703H27.7617V6.62512H27.9716V8.26703Z" fill="#231815"/>
<path d="M28.7679 8.28865C28.6014 8.28865 28.4748 8.23476 28.3807 8.13057C28.2902 8.02637 28.2432 7.88985 28.2432 7.71739V7.67069C28.2432 7.50542 28.2902 7.37249 28.3843 7.2647C28.4784 7.15692 28.5942 7.10303 28.7317 7.10303C28.8837 7.10303 28.9995 7.14973 29.0755 7.24674C29.1515 7.34374 29.1913 7.4659 29.1913 7.62398V7.73177H28.4531C28.4531 7.85033 28.4784 7.94374 28.5291 8.0156C28.5797 8.08745 28.6594 8.12338 28.7607 8.12338C28.8331 8.12338 28.8946 8.1126 28.9453 8.09464C28.9995 8.07308 29.043 8.04793 29.0828 8.012L29.166 8.14853C29.1262 8.18805 29.0719 8.22039 29.0032 8.24913C28.9344 8.27787 28.8548 8.28865 28.7607 8.28865H28.7679ZM28.7354 7.2683C28.663 7.2683 28.6014 7.29704 28.5544 7.35093C28.5074 7.40841 28.4784 7.47668 28.4675 7.5665L28.9851 7.57009V7.55213C28.9851 7.46949 28.9633 7.40123 28.9235 7.34734C28.8837 7.29345 28.8186 7.2647 28.7354 7.2647V7.2683Z" fill="#231815"/>
<path d="M29.973 7.31141L29.8645 7.30422C29.8102 7.30422 29.7631 7.31859 29.7269 7.34374C29.6871 7.36889 29.6582 7.40482 29.6401 7.45153V8.2635H29.4302V7.12458H29.6184L29.6401 7.28985C29.6727 7.23237 29.7125 7.18566 29.7595 7.15333C29.8066 7.12099 29.8608 7.10303 29.926 7.10303C29.9405 7.10303 29.9549 7.10303 29.9694 7.10662C29.9839 7.11021 29.9947 7.11021 30.0056 7.11381L29.9766 7.30782L29.973 7.31141Z" fill="#231815"/>
<path d="M30.8957 8.26711C30.8885 8.23118 30.8812 8.20244 30.8812 8.17729C30.8776 8.15214 30.874 8.1234 30.874 8.09825C30.8342 8.15214 30.7835 8.19885 30.722 8.23477C30.6605 8.2707 30.5917 8.28867 30.5193 8.28867C30.3999 8.28867 30.3094 8.25992 30.2479 8.19885C30.1864 8.13777 30.1538 8.05513 30.1538 7.94735C30.1538 7.83957 30.1972 7.75334 30.2877 7.69226C30.3782 7.63118 30.4976 7.59885 30.6496 7.59885H30.8776V7.48747C30.8776 7.41921 30.8559 7.36891 30.8161 7.32939C30.7763 7.28987 30.7184 7.2719 30.6424 7.2719C30.5736 7.2719 30.5193 7.28987 30.4795 7.3222C30.4397 7.35454 30.418 7.39765 30.418 7.44436H30.219V7.44077C30.2153 7.35813 30.2515 7.28268 30.3348 7.21442C30.418 7.14616 30.5266 7.11023 30.6569 7.11023C30.7871 7.11023 30.8921 7.14256 30.9717 7.20723C31.0513 7.2719 31.0911 7.36891 31.0911 7.49107V8.04076C31.0911 8.08028 31.0911 8.1198 31.0984 8.15932C31.1056 8.19885 31.1092 8.23477 31.1201 8.2707H30.9066L30.8957 8.26711ZM30.5483 8.11262C30.6243 8.11262 30.693 8.09465 30.7546 8.05513C30.8161 8.01561 30.8559 7.9725 30.874 7.9222V7.73538H30.6388C30.5555 7.73538 30.4868 7.75693 30.4361 7.80005C30.3854 7.84316 30.3601 7.88987 30.3601 7.94735C30.3601 7.99765 30.3746 8.03717 30.4071 8.06591C30.4397 8.09465 30.4868 8.10903 30.5483 8.10903V8.11262Z" fill="#231815"/>
<path d="M31.5725 7.12812L31.5869 7.29698C31.6268 7.23591 31.6738 7.1892 31.7317 7.15687C31.7896 7.12453 31.8547 7.10657 31.9271 7.10657C32.0502 7.10657 32.1479 7.1425 32.213 7.21435C32.2782 7.28621 32.3144 7.39758 32.3144 7.54848V8.26704H32.1045V7.55207C32.1045 7.45148 32.0827 7.37962 32.0429 7.3401C32.0031 7.30058 31.9416 7.27543 31.862 7.27543C31.7968 7.27543 31.7426 7.2898 31.6991 7.31495C31.6557 7.3401 31.6195 7.37603 31.5942 7.42273V8.26704H31.3843V7.12812H31.5725Z" fill="#231815"/>
<path d="M33.0746 8.12692C33.1398 8.12692 33.194 8.10536 33.2447 8.06225C33.2954 8.01914 33.3171 7.96884 33.3171 7.90417H33.5053V7.91135C33.5125 8.00836 33.4691 8.09818 33.3822 8.17363C33.2954 8.24908 33.194 8.2886 33.0782 8.2886C32.9154 8.2886 32.7923 8.2347 32.7055 8.12692C32.6186 8.01914 32.5752 7.88261 32.5752 7.72093V7.67782C32.5752 7.51615 32.6186 7.38321 32.7055 7.27184C32.7923 7.16405 32.919 7.10657 33.0782 7.10657C33.2049 7.10657 33.3099 7.14609 33.3931 7.22513C33.4763 7.30417 33.5125 7.40118 33.5125 7.51615V7.52333H33.3207C33.3207 7.45507 33.299 7.39399 33.2519 7.34728C33.2085 7.29699 33.1506 7.27543 33.0782 7.27543C32.9769 7.27543 32.9009 7.31495 32.8539 7.39399C32.8068 7.47303 32.7851 7.57004 32.7851 7.68141V7.72453C32.7851 7.8395 32.8068 7.9365 32.8539 8.01554C32.9009 8.09459 32.9733 8.13411 33.0782 8.13411L33.0746 8.12692Z" fill="#231815"/>
<path d="M34.2289 8.28865C34.0624 8.28865 33.9357 8.23476 33.8416 8.13057C33.7512 8.02637 33.7041 7.88985 33.7041 7.71739V7.67069C33.7041 7.50542 33.7511 7.37249 33.8452 7.2647C33.9393 7.15692 34.0551 7.10303 34.1927 7.10303C34.3447 7.10303 34.4605 7.14973 34.5365 7.24674C34.6125 7.34374 34.6523 7.4659 34.6523 7.62398V7.73177H33.914C33.914 7.85033 33.9393 7.94374 33.99 8.0156C34.0407 8.08745 34.1203 8.12338 34.2216 8.12338C34.294 8.12338 34.3555 8.1126 34.4062 8.09464C34.4605 8.07308 34.5039 8.04793 34.5437 8.012L34.627 8.14853C34.5871 8.18805 34.5329 8.22039 34.4641 8.24913C34.3953 8.27787 34.3157 8.28865 34.2216 8.28865H34.2289ZM34.1963 7.2683C34.1239 7.2683 34.0624 7.29704 34.0153 7.35093C33.9683 7.40841 33.9393 7.47668 33.9285 7.5665L34.446 7.57009V7.55213C34.446 7.46949 34.4243 7.40123 34.3845 7.34734C34.3447 7.29345 34.2795 7.2647 34.1963 7.2647V7.2683Z" fill="#231815"/>
<path d="M35.6586 6.83356H35.4487V6.62158H35.6586V6.83356ZM35.6586 8.26708H35.4487V7.12817H35.6586V8.26708Z" fill="#231815"/>
<path d="M36.6466 7.95811C36.6466 7.91141 36.6285 7.87548 36.5959 7.84674C36.5597 7.81799 36.4946 7.79284 36.3969 7.77129C36.263 7.74254 36.158 7.70302 36.0856 7.64913C36.0133 7.59524 35.9771 7.52698 35.9771 7.44075C35.9771 7.34734 36.0169 7.2683 36.0965 7.20363C36.1761 7.13895 36.2774 7.10303 36.4041 7.10303C36.5308 7.10303 36.6393 7.13895 36.719 7.20722C36.7986 7.27548 36.8384 7.35812 36.8348 7.45153V7.45871H36.6321C36.6321 7.40841 36.6104 7.3653 36.567 7.32578C36.5235 7.28626 36.4693 7.2647 36.4005 7.2647C36.3281 7.2647 36.2702 7.28267 36.234 7.315C36.1978 7.34734 36.1797 7.38686 36.1797 7.43356C36.1797 7.48027 36.1942 7.51261 36.2268 7.53776C36.2593 7.5629 36.3245 7.58446 36.4222 7.60602C36.5633 7.63476 36.6683 7.67787 36.7407 7.73177C36.8131 7.78566 36.8492 7.85751 36.8492 7.94374C36.8492 8.04434 36.8094 8.12697 36.7262 8.19164C36.643 8.25631 36.5344 8.28865 36.4041 8.28865C36.2593 8.28865 36.1435 8.25272 36.0567 8.17727C35.9698 8.10182 35.9336 8.01919 35.9373 7.91859V7.91141H36.1399C36.1399 7.98685 36.1725 8.03715 36.2232 8.07308C36.2738 8.10901 36.3353 8.12338 36.4041 8.12338C36.4801 8.12338 36.538 8.10901 36.5778 8.07667C36.6213 8.04434 36.6393 8.00482 36.6393 7.95811H36.6466Z" fill="#231815"/>
<path d="M38.199 7.36534H38.579V7.52702H38.199V7.96174H38.0108V7.52702H37.6055V7.36534H38.0108V6.9342H38.199V7.36534ZM38.5319 8.25994H37.6453V8.09827H38.5319V8.25994Z" fill="#231815"/>
<path d="M39.7695 7.72454C39.7695 7.89699 39.7261 8.03352 39.6356 8.13771C39.5451 8.23831 39.4257 8.28861 39.2773 8.28861C39.129 8.28861 39.0095 8.23831 38.9191 8.13771C38.8286 8.03711 38.7852 7.90059 38.7852 7.72454V7.27544C38.7852 7.10299 38.8286 6.96646 38.9191 6.86586C39.0059 6.76526 39.1253 6.71497 39.2773 6.71497C39.4293 6.71497 39.5451 6.76526 39.6356 6.86586C39.7261 6.96646 39.7695 7.10299 39.7695 7.27544V7.72454ZM39.5596 7.23233C39.5596 7.12095 39.5343 7.03472 39.4836 6.97005C39.433 6.90538 39.3642 6.87305 39.2737 6.87305C39.1832 6.87305 39.1145 6.90538 39.0674 6.97005C39.0204 7.03472 38.9951 7.12095 38.9951 7.23233V7.76765C38.9951 7.87903 39.0204 7.96526 39.0711 8.02993C39.1217 8.0946 39.1905 8.12693 39.281 8.12693C39.3714 8.12693 39.4402 8.0946 39.4909 8.02993C39.5415 7.96526 39.5632 7.87903 39.5632 7.76765V7.23233H39.5596Z" fill="#231815"/>
<path d="M40.269 8.26703H40.0591V8.05505H40.269V8.26703Z" fill="#231815"/>
<path d="M41.0833 7.39406C41.1774 7.39406 41.2425 7.3725 41.2823 7.32579C41.3221 7.27909 41.3402 7.21442 41.3402 7.13178C41.3402 7.05633 41.3185 6.99166 41.2787 6.94496C41.2353 6.89825 41.1738 6.8731 41.0905 6.8731C41.0073 6.8731 40.9421 6.89825 40.8915 6.94855C40.8408 6.99885 40.8119 7.05993 40.8119 7.13538H40.6128V7.12819C40.6056 7.01322 40.649 6.91622 40.7395 6.83358C40.83 6.75095 40.9458 6.71143 41.0905 6.71143C41.2353 6.71143 41.3475 6.74735 41.4271 6.81921C41.5067 6.89107 41.5501 6.99526 41.5501 7.13538C41.5501 7.20723 41.532 7.2719 41.4922 7.32939C41.4524 7.38687 41.4018 7.43358 41.333 7.46591C41.409 7.49825 41.4705 7.54495 41.5103 7.60603C41.5501 7.66711 41.5719 7.74615 41.5719 7.83238C41.5719 7.9725 41.5284 8.08387 41.4379 8.16291C41.3475 8.24196 41.2317 8.28148 41.0905 8.28148C40.9602 8.28148 40.8444 8.24196 40.7431 8.16651C40.6418 8.09106 40.5947 7.98687 40.5983 7.86112V7.85393H40.801C40.801 7.92938 40.8263 7.99046 40.8806 8.04076C40.9349 8.09106 41.0037 8.11621 41.0905 8.11621C41.1774 8.11621 41.2425 8.09106 41.2896 8.03717C41.3366 7.98327 41.362 7.91501 41.362 7.83238C41.362 7.73537 41.3402 7.66352 41.2932 7.61681C41.2498 7.5701 41.1774 7.54495 41.0833 7.54495H40.9132V7.38328H41.0833V7.39406Z" fill="#231815"/>
<path d="M42.0317 7.12819L42.0461 7.27909C42.0823 7.2252 42.1294 7.18208 42.1873 7.15334C42.2452 7.1246 42.3103 7.11023 42.3899 7.11023C42.4696 7.11023 42.5311 7.12819 42.5854 7.16412C42.6396 7.20005 42.6795 7.25035 42.7084 7.3222C42.7446 7.25753 42.7916 7.20723 42.8532 7.16771C42.9111 7.13179 42.9798 7.11023 43.0595 7.11023C43.1753 7.11023 43.2694 7.14975 43.3345 7.22879C43.3996 7.30783 43.4358 7.42999 43.4358 7.58807V8.2707H43.2259V7.58807C43.2259 7.47669 43.2078 7.39765 43.168 7.35095C43.1282 7.30424 43.0703 7.28268 42.9943 7.28268C42.9219 7.28268 42.864 7.30783 42.8206 7.35813C42.7772 7.40843 42.7518 7.46951 42.7446 7.54496V8.27789H42.5347V7.59526C42.5347 7.48747 42.513 7.41202 42.4732 7.36172C42.4334 7.31143 42.3755 7.28628 42.2995 7.28628C42.2343 7.28628 42.1836 7.30065 42.1438 7.3258C42.104 7.35095 42.0715 7.38687 42.0497 7.43358V8.27789H41.8398V7.13897H42.028L42.0317 7.12819Z" fill="#231815"/>
<path d="M43.9281 7.12819L43.9426 7.27909C43.9788 7.2252 44.0258 7.18208 44.0838 7.15334C44.1417 7.1246 44.2068 7.11023 44.2864 7.11023C44.366 7.11023 44.4276 7.12819 44.4818 7.16412C44.5361 7.20005 44.5759 7.25035 44.6049 7.3222C44.6411 7.25753 44.6881 7.20723 44.7497 7.16771C44.8076 7.13179 44.8763 7.11023 44.9559 7.11023C45.0717 7.11023 45.1658 7.14975 45.231 7.22879C45.2961 7.30783 45.3323 7.42999 45.3323 7.58807V8.2707H45.1224V7.58807C45.1224 7.47669 45.1043 7.39765 45.0645 7.35095C45.0247 7.30424 44.9668 7.28268 44.8908 7.28268C44.8184 7.28268 44.7605 7.30783 44.7171 7.35813C44.6737 7.40843 44.6483 7.46951 44.6411 7.54496V8.27789H44.4312V7.59526C44.4312 7.48747 44.4095 7.41202 44.3697 7.36172C44.3298 7.31143 44.2719 7.28628 44.1959 7.28628C44.1308 7.28628 44.0801 7.30065 44.0403 7.3258C44.0005 7.35095 43.9679 7.38687 43.9462 7.43358V8.27789H43.7363V7.13897H43.9245L43.9281 7.12819Z" fill="#231815"/>
<path d="M45.8676 8.26703H45.6577V8.05505H45.8676V8.26703Z" fill="#231815"/>
<path d="M23.73 102.208V62.9351" stroke="black" stroke-width="0.5" stroke-linecap="round" stroke-linejoin="round"/>
<path d="M23.7299 63.2584L23.0784 63.6536L23.064 63.632L23.4874 62.5758C23.5706 62.2093 23.6502 61.8392 23.7335 61.4728C23.8167 61.8392 23.8963 62.2093 23.9796 62.5758L24.403 63.632L24.3921 63.6536L23.7371 63.2584H23.7299Z" fill="black"/>
<path d="M23.73 144.844V113.205" stroke="black" stroke-width="0.5" stroke-linecap="round" stroke-linejoin="round"/>
<path d="M23.7299 144.52L23.0784 144.125L23.064 144.146L23.4874 145.203C23.5706 145.569 23.6502 145.939 23.7335 146.306C23.8167 145.939 23.8963 145.569 23.9796 145.203L24.403 144.146L24.3921 144.125L23.7371 144.52H23.7299Z" fill="black"/>
<path d="M29.0173 16.9149H18.1855" stroke="black" stroke-width="0.5" stroke-linecap="round" stroke-linejoin="round"/>
<path d="M18.5076 16.9149L18.9057 17.5616L18.884 17.576L17.82 17.1556C17.4509 17.073 17.0781 16.9939 16.709 16.9113C17.0781 16.8287 17.4509 16.7496 17.82 16.667L18.884 16.2466L18.9057 16.2574L18.5076 16.9077V16.9149Z" fill="black"/>
<path d="M48.0609 16.9149H37.2256" stroke="black" stroke-width="0.5" stroke-linecap="round" stroke-linejoin="round"/>
<path d="M47.735 16.9149L47.3369 17.5616L47.3586 17.576L48.4226 17.1556C48.7918 17.073 49.1645 16.9939 49.5337 16.9113C49.1645 16.8287 48.7918 16.7496 48.4226 16.667L47.3586 16.2466L47.3369 16.2574L47.735 16.9077V16.9149Z" fill="black"/>
<path d="M33.1213 61.4728H20.6104" stroke="black" stroke-width="0.5" stroke-linecap="round" stroke-linejoin="round"/>
<path d="M33.1213 146.306H20.6104" stroke="black" stroke-width="0.5" stroke-linecap="round" stroke-linejoin="round"/>
<path d="M53.1455 101.191V165.922" stroke="black" stroke-width="0.5" stroke-linecap="round" stroke-linejoin="round"/>
<path d="M53.1453 165.603L53.7967 165.207L53.8112 165.229L53.3878 166.285C53.3045 166.652 53.2249 167.022 53.1417 167.388C53.0584 167.022 52.9788 166.652 52.8956 166.285L52.4722 165.229L52.483 165.207L53.1381 165.603H53.1453Z" fill="black"/>
<path d="M53.1455 24.2371V89.1624" stroke="black" stroke-width="0.5" stroke-linecap="round" stroke-linejoin="round"/>
<path d="M53.1453 24.5568L53.7967 24.952L53.8112 24.9304L53.3878 23.8742C53.3045 23.5077 53.2249 23.1376 53.1417 22.7712C53.0584 23.1376 52.9788 23.5077 52.8956 23.8742L52.4722 24.9304L52.483 24.952L53.1381 24.5568H53.1453Z" fill="black"/>
<path d="M13.0542 102.995V193.217" stroke="black" stroke-width="0.5" stroke-linecap="round" stroke-linejoin="round"/>
<path d="M13.054 192.897L13.7054 192.502L13.7199 192.523L13.2965 193.58C13.2132 193.946 13.1336 194.316 13.0504 194.683C12.9671 194.316 12.8875 193.946 12.8043 193.58L12.3809 192.523L12.3917 192.502L13.0468 192.897H13.054Z" fill="black"/>
<path d="M13.0542 12.5245V89.9456" stroke="black" stroke-width="0.5" stroke-linecap="round" stroke-linejoin="round"/>
<path d="M13.054 12.8479L13.7054 13.2431L13.7199 13.2215L13.2965 12.1652C13.2132 11.7988 13.1336 11.4287 13.0504 11.0623C12.9671 11.4287 12.8875 11.7988 12.8043 12.1652L12.3809 13.2215L12.3917 13.2431L13.0468 12.8479H13.054Z" fill="black"/>
<path d="M42.4155 113.205V165.922" stroke="black" stroke-width="0.5" stroke-linecap="round" stroke-linejoin="round"/>
<path d="M42.4153 165.603L43.0667 165.207L43.0812 165.229L42.6578 166.285C42.5746 166.652 42.4949 167.022 42.4117 167.388C42.3285 167.022 42.2489 166.652 42.1656 166.285L41.7422 165.229L41.753 165.207L42.4081 165.603H42.4153Z" fill="black"/>
<path d="M42.4155 41.5507V102.208" stroke="black" stroke-width="0.5" stroke-linecap="round" stroke-linejoin="round"/>
<path d="M42.4153 41.8705L43.0667 42.2657L43.0812 42.2441L42.6578 41.1878C42.5746 40.8214 42.4949 40.4513 42.4117 40.0848C42.3285 40.4513 42.2489 40.8214 42.1656 41.1878L41.7422 42.2441L41.753 42.2657L42.4081 41.8705H42.4153Z" fill="black"/>
<path d="M14.0962 99.524V99.851H11.9175L12.16 100.505H11.8633L11.5122 99.5743V99.524H14.0962Z" fill="#231815"/>
<path d="M12.1964 97.0234C12.3267 97.0234 12.4389 97.0558 12.5402 97.124C12.6416 97.1923 12.7176 97.2821 12.7755 97.3971C12.8334 97.2641 12.9166 97.1564 13.0288 97.0809C13.141 97.0019 13.264 96.9659 13.4052 96.9659C13.6296 96.9659 13.8069 97.0414 13.9372 97.1887C14.0711 97.3396 14.1362 97.5336 14.1362 97.7779C14.1362 98.0222 14.0711 98.2198 13.9372 98.3671C13.8033 98.5144 13.6259 98.5899 13.4052 98.5899C13.2677 98.5899 13.141 98.554 13.0288 98.4785C12.9166 98.4031 12.8334 98.2989 12.7755 98.1659C12.7176 98.2809 12.6416 98.3671 12.5402 98.4354C12.4389 98.5001 12.3267 98.5324 12.2 98.5324C11.9829 98.5324 11.8128 98.4641 11.6825 98.324C11.5522 98.1839 11.4907 98.0043 11.4907 97.7779C11.4907 97.5516 11.5559 97.3719 11.6825 97.2318C11.8092 97.0917 11.9829 97.0234 12.2 97.0234H12.1964ZM11.7585 97.7779C11.7585 97.9037 11.7983 98.0079 11.878 98.0869C11.9576 98.1659 12.0661 98.2054 12.2037 98.2054C12.3412 98.2054 12.4389 98.1659 12.5221 98.0905C12.6018 98.0114 12.6416 97.9072 12.6416 97.7779C12.6416 97.6486 12.6018 97.5444 12.5221 97.4653C12.4425 97.3863 12.334 97.3504 12.2037 97.3504C12.0734 97.3504 11.9648 97.3899 11.8852 97.4725C11.802 97.5516 11.7621 97.6558 11.7621 97.7779H11.7585ZM13.3943 97.2893C13.2496 97.2893 13.1338 97.336 13.0433 97.4258C12.9528 97.5156 12.9058 97.6342 12.9058 97.7815C12.9058 97.9288 12.9492 98.0438 13.0397 98.1336C13.1301 98.2234 13.2459 98.2665 13.3943 98.2665C13.5427 98.2665 13.6549 98.2234 13.7381 98.1372C13.8214 98.051 13.8648 97.9324 13.8648 97.7779C13.8648 97.6234 13.8214 97.5049 13.7381 97.4186C13.6549 97.3324 13.5391 97.2893 13.3943 97.2893Z" fill="#231815"/>
<path d="M12.9999 94.954C13.3835 94.954 13.6658 95.0186 13.8539 95.148C14.0385 95.2773 14.1326 95.4821 14.1326 95.7552C14.1326 96.0282 14.0421 96.2294 13.8612 96.3588C13.6802 96.4881 13.4088 96.5564 13.0469 96.5635H12.609C12.2326 96.5635 11.9503 96.4989 11.7658 96.3695C11.5812 96.2402 11.4907 96.0354 11.4907 95.7588C11.4907 95.4821 11.5812 95.2809 11.7585 95.1516C11.9359 95.0222 12.2109 94.954 12.58 94.9504H13.0035L12.9999 94.954ZM12.5547 95.2773C12.2797 95.2773 12.077 95.3168 11.9503 95.3923C11.8237 95.4677 11.7585 95.5935 11.7585 95.7588C11.7585 95.924 11.8201 96.0462 11.9467 96.1216C12.0734 96.1971 12.2652 96.2366 12.5294 96.2402H13.0541C13.3328 96.2402 13.5391 96.2007 13.6694 96.1216C13.7997 96.0426 13.8684 95.9204 13.8684 95.7588C13.8684 95.5971 13.8069 95.4785 13.6802 95.4031C13.5572 95.324 13.3581 95.2845 13.0903 95.2809H12.5547V95.2773Z" fill="#231815"/>
<path d="M13.9261 94.4977C13.8682 94.4977 13.8211 94.4798 13.785 94.4474C13.7488 94.4151 13.7271 94.3648 13.7271 94.2965C13.7271 94.2283 13.7451 94.178 13.785 94.1456C13.8211 94.1097 13.8682 94.0953 13.9261 94.0953C13.984 94.0953 14.0274 94.1133 14.0636 94.1456C14.0998 94.1816 14.1179 94.2319 14.1179 94.2965C14.1179 94.3612 14.0998 94.4115 14.0636 94.4474C14.0274 94.4798 13.9804 94.4977 13.9261 94.4977Z" fill="#231815"/>
<path d="M12.6524 93.1217V92.8774C12.6524 92.7229 12.609 92.6043 12.5294 92.5145C12.4498 92.4283 12.3448 92.3816 12.2109 92.3816C11.9105 92.3816 11.7585 92.5324 11.7585 92.8307C11.7585 92.9708 11.7983 93.0821 11.878 93.1684C11.9576 93.251 12.0661 93.2941 12.2 93.2941V93.6175C11.9974 93.6175 11.8273 93.542 11.6934 93.3947C11.5595 93.2474 11.4907 93.057 11.4907 92.8307C11.4907 92.5899 11.5559 92.3995 11.6825 92.263C11.8128 92.1265 11.9901 92.0582 12.2181 92.0582C12.3303 92.0582 12.4389 92.0941 12.5439 92.166C12.6488 92.2378 12.7284 92.3348 12.7791 92.4606C12.8225 92.3205 12.8985 92.2127 13.0035 92.1336C13.1084 92.0582 13.2351 92.0187 13.3835 92.0187C13.6151 92.0187 13.796 92.0941 13.9336 92.2414C14.0711 92.3923 14.1362 92.5863 14.1362 92.8271C14.1362 93.0678 14.0711 93.2618 13.9408 93.4127C13.8105 93.5636 13.6368 93.639 13.4233 93.639V93.3121C13.5608 93.3121 13.6658 93.269 13.749 93.1792C13.8322 93.0893 13.872 92.9744 13.872 92.8271C13.872 92.669 13.8322 92.5504 13.749 92.4678C13.6658 92.3851 13.5499 92.342 13.3943 92.342C13.2387 92.342 13.1301 92.3887 13.0505 92.4786C12.9709 92.5684 12.9311 92.7013 12.9275 92.8738V93.1181H12.6597L12.6524 93.1217Z" fill="#231815"/>
<path d="M54.4087 97.2462V97.5732H52.23L52.4725 98.227H52.1758L51.8247 97.2965V97.2462H54.4087Z" fill="#231815"/>
<path d="M53.5436 94.9253V94.5696H53.8114V94.9253H54.4086V95.2522H53.8114V96.4163H53.6196L51.8354 95.2738V94.9289H53.5436V94.9253ZM53.5436 96.0462V95.2522H52.2806L52.353 95.2917L53.5436 96.0462Z" fill="#231815"/>
<path d="M54.4086 92.6043V94.2786H54.1734L53.1854 93.3947C53.037 93.2654 52.914 93.172 52.8199 93.1253C52.7258 93.0786 52.6281 93.0498 52.5304 93.0498C52.3965 93.0498 52.2843 93.0893 52.201 93.172C52.1142 93.251 52.0707 93.3588 52.0707 93.4953C52.0707 93.657 52.1178 93.7827 52.2083 93.8726C52.3024 93.9624 52.429 94.0055 52.5955 94.0055V94.3288C52.3603 94.3288 52.1685 94.2534 52.0201 94.1025C51.8753 93.9516 51.7993 93.7468 51.7993 93.4953C51.7993 93.2582 51.8608 93.0714 51.9875 92.9313C52.1142 92.7911 52.2806 92.7229 52.4869 92.7229C52.7403 92.7229 53.0406 92.8846 53.3917 93.2043L54.1408 93.8869V92.6043H54.4086Z" fill="#231815"/>
<path d="M43.5767 110.292V110.619H41.398L41.6405 111.272H41.3437L40.9927 110.342V110.292H43.5767Z" fill="#231815"/>
<path d="M43.5766 107.669V109.343H43.3414L42.3534 108.459C42.205 108.326 42.0819 108.237 41.9878 108.19C41.8938 108.14 41.796 108.114 41.6983 108.114C41.5644 108.114 41.4522 108.154 41.369 108.237C41.2821 108.316 41.2387 108.423 41.2387 108.56C41.2387 108.722 41.2858 108.847 41.3762 108.937C41.4703 109.027 41.597 109.07 41.7635 109.07V109.393C41.5282 109.393 41.3364 109.318 41.188 109.167C41.0433 109.016 40.9673 108.815 40.9673 108.56C40.9673 108.323 41.0288 108.136 41.1555 107.996C41.2821 107.856 41.4486 107.787 41.6549 107.787C41.9082 107.787 42.2086 107.949 42.5597 108.269L43.3052 108.952V107.669H43.573H43.5766Z" fill="#231815"/>
<path d="M42.2845 107.173L41.0034 107.044V105.736H41.3038V106.771L42.0059 106.846C41.9299 106.72 41.8937 106.58 41.8937 106.419C41.8937 106.185 41.9697 106.002 42.1253 105.865C42.2809 105.729 42.4908 105.661 42.755 105.661C43.0192 105.661 43.2291 105.732 43.3811 105.872C43.5331 106.013 43.6091 106.214 43.6091 106.469C43.6091 106.695 43.5476 106.878 43.4209 107.022C43.2943 107.166 43.1205 107.245 42.8962 107.267V106.961C43.0445 106.943 43.1531 106.889 43.2291 106.807C43.3051 106.724 43.3413 106.613 43.3413 106.472C43.3413 106.322 43.2906 106.203 43.1857 106.117C43.0807 106.031 42.9396 105.987 42.755 105.987C42.5813 105.987 42.4438 106.034 42.3388 106.128C42.2339 106.221 42.1832 106.343 42.1832 106.498C42.1832 106.638 42.2158 106.749 42.2773 106.832L42.3497 106.918L42.2809 107.177L42.2845 107.173Z" fill="#231815"/>
<path d="M31.9381 16.6024H32.1842C32.3398 16.6024 32.4593 16.5593 32.5497 16.4802C32.6402 16.4012 32.6836 16.297 32.6836 16.1641C32.6836 15.8659 32.5316 15.715 32.2313 15.715C32.0901 15.715 31.9779 15.7545 31.8911 15.8335C31.8078 15.9126 31.7644 16.0204 31.7644 16.1533H31.4387C31.4387 15.9521 31.5147 15.7832 31.6631 15.6503C31.8115 15.5174 32.0033 15.4491 32.2313 15.4491C32.4737 15.4491 32.6656 15.5138 32.8031 15.6395C32.9406 15.7653 33.0094 15.9449 33.0094 16.1712C33.0094 16.2826 32.9732 16.3904 32.9008 16.4946C32.8284 16.5988 32.7307 16.6778 32.604 16.7281C32.7452 16.7712 32.8537 16.8467 32.9334 16.9509C33.0094 17.0551 33.0492 17.1808 33.0492 17.3281C33.0492 17.5581 32.9732 17.7377 32.8248 17.8742C32.6728 18.0072 32.4774 18.0754 32.2349 18.0754C31.9924 18.0754 31.797 18.0108 31.645 17.8814C31.493 17.7521 31.417 17.5796 31.417 17.3676H31.7463C31.7463 17.5006 31.7898 17.6084 31.8802 17.691C31.9707 17.7736 32.0865 17.8132 32.2349 17.8132C32.3941 17.8132 32.5136 17.7736 32.5968 17.691C32.68 17.6084 32.7235 17.4898 32.7235 17.3389C32.7235 17.188 32.6764 17.0766 32.5859 16.9976C32.4955 16.9185 32.3616 16.8754 32.1878 16.8754H31.9418V16.6096L31.9381 16.6024Z" fill="#231815"/>
<path d="M35.181 18.0395H33.4945V17.806L34.3848 16.8251C34.5151 16.6778 34.6092 16.5557 34.6562 16.4623C34.7069 16.3689 34.7322 16.2718 34.7322 16.1748C34.7322 16.0419 34.6924 15.9305 34.6092 15.8479C34.5259 15.7653 34.421 15.7186 34.2835 15.7186C34.1206 15.7186 33.9939 15.7653 33.9035 15.8551C33.813 15.9449 33.7696 16.0742 33.7696 16.2395H33.4438C33.4438 16.006 33.5198 15.8156 33.6718 15.6683C33.8238 15.5245 34.0301 15.4491 34.2835 15.4491C34.5223 15.4491 34.7105 15.5102 34.8516 15.6359C34.9892 15.7617 35.0615 15.9269 35.0615 16.1317C35.0615 16.3832 34.8987 16.6814 34.5766 17.0299L33.889 17.7736H35.181V18.0395Z" fill="#231815"/>
<path d="M57.0791 19.225V19.552H54.9004L55.1429 20.2059H54.8462L54.4951 19.2753V19.225H57.0791Z" fill="#231815"/>
<path d="M57.0791 17.2059V17.5329H54.9004L55.1429 18.1868H54.8462L54.4951 17.2562V17.2059H57.0791Z" fill="#231815"/>
<path d="M56.909 16.2143C56.8511 16.2143 56.8041 16.1963 56.7679 16.164C56.7317 16.1316 56.71 16.0813 56.71 16.0131C56.71 15.9448 56.7281 15.8945 56.7679 15.8622C56.8041 15.8263 56.8511 15.8119 56.909 15.8119C56.9669 15.8119 57.0067 15.8299 57.0465 15.8622C57.0827 15.8981 57.1008 15.9484 57.1008 16.0131C57.1008 16.0778 57.0827 16.1281 57.0465 16.164C57.0103 16.1963 56.9633 16.2143 56.909 16.2143Z" fill="#231815"/>
<path d="M55.7909 15.1616L54.5098 15.0323V13.7245H54.8101V14.7592L55.5122 14.8347C55.4362 14.7089 55.4 14.5688 55.4 14.4071C55.4 14.1736 55.476 13.9904 55.6317 13.8538C55.7873 13.7173 55.9972 13.649 56.2614 13.649C56.5256 13.649 56.7355 13.7209 56.8875 13.861C57.0395 14.0047 57.1155 14.2023 57.1155 14.4574C57.1155 14.6838 57.0539 14.867 56.9273 15.0107C56.8006 15.1544 56.6269 15.2335 56.4025 15.255V14.9496C56.5509 14.9281 56.6595 14.8778 56.7355 14.7951C56.8115 14.7125 56.8477 14.6011 56.8477 14.461C56.8477 14.3101 56.797 14.1916 56.692 14.1053C56.5871 14.0191 56.4459 13.976 56.2614 13.976C56.0877 13.976 55.9501 14.0227 55.8452 14.1161C55.7402 14.2095 55.6896 14.3317 55.6896 14.4862C55.6896 14.6263 55.7221 14.7377 55.7837 14.8203L55.856 14.9065L55.7873 15.1652L55.7909 15.1616Z" fill="#231815"/>
<path d="M23.0895 109.81C23.2198 109.81 23.332 109.843 23.4333 109.911C23.5346 109.979 23.6106 110.069 23.6685 110.184C23.7264 110.051 23.8097 109.943 23.9219 109.868C24.0341 109.789 24.1571 109.749 24.2982 109.749C24.5226 109.749 24.7 109.825 24.8302 109.972C24.9641 110.123 25.0293 110.317 25.0293 110.561C25.0293 110.805 24.9641 111.003 24.8302 111.15C24.6963 111.298 24.519 111.373 24.2982 111.373C24.1607 111.373 24.0341 111.337 23.9219 111.258C23.8097 111.183 23.7264 111.078 23.6685 110.945C23.6106 111.06 23.5346 111.147 23.4333 111.215C23.332 111.28 23.2198 111.312 23.0931 111.312C22.876 111.312 22.7059 111.244 22.5756 111.104C22.4453 110.963 22.3838 110.784 22.3838 110.557C22.3838 110.331 22.4489 110.151 22.5756 110.011C22.7023 109.871 22.876 109.803 23.0931 109.803L23.0895 109.81ZM22.6516 110.561C22.6516 110.69 22.6914 110.791 22.771 110.87C22.8506 110.949 22.9592 110.989 23.0967 110.989C23.2343 110.989 23.332 110.949 23.4152 110.874C23.4948 110.795 23.5346 110.69 23.5346 110.561C23.5346 110.432 23.4948 110.328 23.4152 110.248C23.3356 110.169 23.227 110.134 23.0967 110.134C22.9665 110.134 22.8579 110.173 22.7783 110.256C22.695 110.335 22.6552 110.439 22.6552 110.561H22.6516ZM24.291 110.076C24.1463 110.076 24.0304 110.123 23.94 110.213C23.8495 110.302 23.8024 110.421 23.8024 110.568C23.8024 110.716 23.8459 110.831 23.9363 110.92C24.0268 111.01 24.1426 111.053 24.291 111.053C24.4394 111.053 24.5516 111.01 24.6348 110.924C24.7181 110.838 24.7615 110.719 24.7615 110.565C24.7615 110.41 24.7181 110.292 24.6348 110.205C24.5516 110.119 24.4358 110.076 24.291 110.076Z" fill="#231815"/>
<path d="M23.5455 108.869V108.625C23.5455 108.47 23.5021 108.351 23.4224 108.262C23.3428 108.175 23.2379 108.129 23.104 108.129C22.8036 108.129 22.6516 108.28 22.6516 108.578C22.6516 108.718 22.6914 108.829 22.771 108.916C22.8506 108.998 22.9592 109.041 23.0931 109.041V109.365C22.8905 109.365 22.7204 109.289 22.5865 109.142C22.4526 108.995 22.3838 108.804 22.3838 108.578C22.3838 108.337 22.4489 108.147 22.5756 108.01C22.7059 107.874 22.8832 107.805 23.1112 107.805C23.2234 107.805 23.332 107.841 23.4369 107.913C23.5419 107.985 23.6215 108.082 23.6722 108.208C23.7156 108.068 23.7916 107.96 23.8965 107.881C24.0015 107.805 24.1282 107.766 24.2765 107.766C24.5082 107.766 24.6891 107.841 24.8266 107.989C24.9641 108.14 25.0293 108.334 25.0293 108.574C25.0293 108.815 24.9641 109.009 24.8339 109.16C24.7036 109.311 24.5299 109.386 24.3163 109.386V109.059C24.4539 109.059 24.5588 109.016 24.6421 108.926C24.7253 108.837 24.7651 108.722 24.7651 108.574C24.7651 108.416 24.7253 108.298 24.6421 108.215C24.5588 108.132 24.443 108.089 24.2874 108.089C24.1318 108.089 24.0232 108.136 23.9436 108.226C23.864 108.316 23.8242 108.448 23.8205 108.621V108.865H23.5527L23.5455 108.869Z" fill="#231815"/>
<path d="M24.8192 107.284C24.7613 107.284 24.7142 107.266 24.678 107.234C24.6418 107.202 24.6201 107.151 24.6201 107.083C24.6201 107.015 24.6382 106.965 24.678 106.932C24.7142 106.896 24.7613 106.882 24.8192 106.882C24.8771 106.882 24.9205 106.9 24.9567 106.932C24.9929 106.968 25.011 107.019 25.011 107.083C25.011 107.148 24.9929 107.202 24.9567 107.234C24.9205 107.266 24.8734 107.284 24.8192 107.284Z" fill="#231815"/>
<path d="M23.5455 105.905V105.66C23.5455 105.506 23.5021 105.387 23.4224 105.298C23.3428 105.211 23.2379 105.165 23.104 105.165C22.8036 105.165 22.6516 105.316 22.6516 105.614C22.6516 105.754 22.6914 105.865 22.771 105.948C22.8506 106.031 22.9592 106.074 23.0931 106.074V106.397C22.8905 106.397 22.7204 106.322 22.5865 106.174C22.4526 106.027 22.3838 105.84 22.3838 105.61C22.3838 105.369 22.4489 105.179 22.5756 105.043C22.7059 104.906 22.8832 104.838 23.1112 104.838C23.2234 104.838 23.332 104.874 23.4369 104.946C23.5419 105.017 23.6215 105.114 23.6722 105.24C23.7156 105.1 23.7916 104.992 23.8965 104.913C24.0015 104.838 24.1282 104.798 24.2765 104.798C24.5082 104.798 24.6891 104.874 24.8266 105.021C24.9641 105.172 25.0293 105.366 25.0293 105.607C25.0293 105.847 24.9641 106.041 24.8339 106.192C24.7036 106.343 24.5299 106.419 24.3163 106.419V106.092C24.4539 106.092 24.5588 106.049 24.6421 105.959C24.7253 105.869 24.7651 105.754 24.7651 105.607C24.7651 105.449 24.7253 105.33 24.6421 105.247C24.5588 105.165 24.443 105.122 24.2874 105.122C24.1318 105.122 24.0232 105.168 23.9436 105.258C23.864 105.348 23.8242 105.481 23.8205 105.653V105.898H23.5527L23.5455 105.905Z" fill="#231815"/>
<path d="M50.7534 11.0587H57.3835" stroke="black" stroke-width="0.5" stroke-linecap="round" stroke-linejoin="round"/>
<path d="M8.74365 11.0587H15.3773" stroke="black" stroke-width="0.5" stroke-linecap="round" stroke-linejoin="round"/>
<path d="M40.5586 40.0848H48.5096" stroke="black" stroke-width="0.5" stroke-linecap="round" stroke-linejoin="round"/>
<path d="M40.5586 167.388H53.7391" stroke="black" stroke-width="0.5" stroke-linecap="round" stroke-linejoin="round"/>
<path d="M52.5737 3.23718C53.2396 3.24078 53.9055 3.30904 54.5569 3.44197C55.2084 3.57491 55.8489 3.76892 56.4606 4.024C57.0722 4.27909 57.6621 4.59167 58.2158 4.96172C58.7695 5.33178 59.2834 5.75214 59.7539 6.2192C60.2243 6.68626 60.6478 7.20003 61.0169 7.74973C61.386 8.29943 61.7009 8.88146 61.9578 9.49224C62.2148 10.103 62.4066 10.7353 62.5405 11.382C62.6744 12.0287 62.7395 12.6898 62.7395 13.3473" stroke="#231815" stroke-linecap="round" stroke-linejoin="round" stroke-dasharray="8.5 8.5"/>
<path d="M62.7396 69.6033L62.7251 13.3617" stroke="#231815" stroke-linecap="round" stroke-linejoin="round" stroke-dasharray="8.5 8.5"/>
<path d="M62.7324 186.567L62.7433 127.44L62.7397 69.6032" stroke="#231815" stroke-linecap="round" stroke-linejoin="round" stroke-dasharray="8.5 8.5"/>
<path d="M3.27522 13.3617L3.26074 70.4763" stroke="#231815" stroke-linecap="round" stroke-linejoin="round" stroke-dasharray="8.5 8.5"/>
<path d="M52.5664 196.749L53.4169 196.713L54.4555 196.565L55.5014 196.303L56.5329 195.922L57.5245 195.423L58.4509 194.83L59.2905 194.155L59.9347 193.533" stroke="#231815" stroke-linecap="round" stroke-linejoin="round" stroke-dasharray="8.5 8.5"/>
<path d="M13.4341 196.749L26.4372 196.767H39.5742L52.5665 196.749" stroke="#231815" stroke-linecap="round" stroke-linejoin="round" stroke-dasharray="8.5 8.5"/>
<path d="M6.07275 193.537L6.71332 194.158L7.54931 194.826L8.46492 195.419L9.4493 195.915L10.4771 196.296L11.523 196.562L12.5761 196.709L13.4338 196.749" stroke="#231815" stroke-linecap="round" stroke-linejoin="round" stroke-dasharray="8.5 8.5"/>
<path d="M62.7393 13.3617V13.366" stroke="#231815" stroke-linecap="round" stroke-linejoin="round" stroke-dasharray="8.5 8.5"/>
<path d="M3.26818 186.567L3.25732 126.84" stroke="#231815" stroke-linecap="round" stroke-linejoin="round" stroke-dasharray="8.5 8.5"/>
<path d="M3.26094 69.65L3.25732 127.49" stroke="#231815" stroke-linecap="round" stroke-linejoin="round" stroke-dasharray="8.5 8.5"/>
<path d="M3.26807 173.259V186.498" stroke="#231815" stroke-linecap="round" stroke-linejoin="round" stroke-dasharray="8.5 8.5"/>
<path d="M3.27881 13.3652V13.3401" stroke="#231815" stroke-linecap="round" stroke-linejoin="round" stroke-dasharray="8.5 8.5"/>
<path d="M62.7393 13.3401V13.3652" stroke="#231815" stroke-linecap="round" stroke-linejoin="round" stroke-dasharray="8.5 8.5"/>
<path d="M62.7393 68.5074V70.408" stroke="#231815" stroke-linecap="round" stroke-linejoin="round" stroke-dasharray="8.5 8.5"/>
<path d="M3.27539 13.3617L3.27972 13.366" stroke="#231815" stroke-linecap="round" stroke-linejoin="round" stroke-dasharray="8.5 8.5"/>
<path d="M13.499 3.23718C13.4773 3.23718 13.4556 3.23718 13.4375 3.23718" stroke="#231815" stroke-linecap="round" stroke-linejoin="round" stroke-dasharray="8.5 8.5"/>
<path d="M52.5557 3.23718C52.5377 3.23718 52.5196 3.23718 52.5015 3.23718" stroke="#231815" stroke-linecap="round" stroke-linejoin="round" stroke-dasharray="8.5 8.5"/>
<path d="M6.07309 193.537C5.62795 193.073 5.22986 192.563 4.88244 192.024C4.53501 191.485 4.23825 190.91 3.9994 190.317C3.76054 189.725 3.57959 189.107 3.45654 188.474C3.3335 187.842 3.27197 187.203 3.27197 186.563" stroke="#231815" stroke-linecap="round" stroke-linejoin="round" stroke-dasharray="8.5 8.5"/>
<path d="M62.7323 186.567C62.7323 187.206 62.6707 187.846 62.5477 188.474C62.4247 189.103 62.2437 189.721 62.0048 190.314C61.766 190.907 61.4692 191.482 61.1218 192.021C60.7744 192.559 60.3763 193.07 59.9312 193.533" stroke="#231815" stroke-linecap="round" stroke-linejoin="round" stroke-dasharray="8.5 8.5"/>
<path d="M33.002 3.23352L52.5012 3.23711" stroke="#231815" stroke-linecap="round" stroke-linejoin="round" stroke-dasharray="8.5 8.5"/>
<path d="M3.26807 186.498V177.376" stroke="#231815" stroke-linecap="round" stroke-linejoin="round" stroke-dasharray="8.5 8.5"/>
<path d="M3.27881 13.3401C3.27881 12.6826 3.34757 12.0215 3.47785 11.3748C3.60814 10.7281 3.80357 10.0958 4.0569 9.48503C4.31023 8.87426 4.6287 8.29223 4.99784 7.74253C5.36698 7.19283 5.79041 6.67906 6.26088 6.212C6.73135 5.74494 7.24525 5.32458 7.79896 4.95452C8.35267 4.58446 8.93895 4.27189 9.55418 4.0168C10.1694 3.76171 10.8064 3.5677 11.4578 3.43477C12.1092 3.30184 12.7751 3.23357 13.441 3.22998" stroke="#231815" stroke-linecap="round" stroke-linejoin="round" stroke-dasharray="8.5 8.5"/>
<path d="M13.499 3.23711L33.0019 3.23352" stroke="#231815" stroke-linecap="round" stroke-linejoin="round" stroke-dasharray="8.5 8.5"/>
</g>
<defs>
<clipPath id="clip0_256_139">
<rect width="66" height="200" fill="white"/>
</clipPath>
</defs>
</svg>
