<svg xmlns="http://www.w3.org/2000/svg" width="70" height="63" fill="none" viewBox="0 0 70 63"><g stroke-linecap="round" stroke-miterlimit="10" clip-path="url(#a)"><path fill="#fff" stroke="#1a1311" stroke-width=".5" d="M15.15 39.91a15.7 15.7 0 0 1-3.101-.433c-.614-.15-1.117-.314-1.961-.59a46 46 0 0 1-2.297-.809 18.8 18.8 0 0 1-4.075-2.29V9.682l.136-3.749C3.852 2.785 8.91.236 15.146.236S26.44 2.788 26.44 5.933l.144 3.24v26.615a6.75 6.75 0 0 1-2.04 1.775q-.864.466-1.78.818c-.247.103-1.387.576-2.268.847a18.6 18.6 0 0 1-5.346.682Z"/><path stroke="#8e8e8f" stroke-width=".3" d="M8.875 6.522c.549-1.494 3.15-2.63 6.276-2.63s5.726 1.133 6.276 2.63"/><path stroke="#8e8e8f" stroke-width=".3" d="M9.258 7.172c.962-1.164 3.237-1.98 5.892-1.98s4.913.81 5.881 1.966"/><path stroke="#8e8e8f" stroke-width=".3" d="M10.03 7.857a9.47 9.47 0 0 1 5.12-1.298 9.47 9.47 0 0 1 5.12 1.298"/><path stroke="#8e8e8f" stroke-width=".3" d="M11.073 8.411a10.7 10.7 0 0 1 4.077-.747 10.8 10.8 0 0 1 4.06.74"/><path stroke="#1a1311" stroke-width=".5" d="M3.716 9.682v26.106M26.584 9.173v26.615"/><path stroke="#767676" stroke-width=".3" d="M15.15 13.803a18.8 18.8 0 0 0-4.075-2.29 46 46 0 0 0-2.297-.808c-.843-.28-1.348-.44-1.96-.59a15.6 15.6 0 0 0-3.102-.433M15.15 13.803a20.6 20.6 0 0 1 6.14-3.064M23.125 10.018a5 5 0 0 1 3.46-.841"/><path stroke="#1a1311" stroke-width=".5" d="M3.852 5.933 3.716 9.68M26.44 5.933l.144 3.24M3.716 35.787c1.258.93 2.626 1.7 4.075 2.291.833.33 2.036.724 2.297.809.843.28 1.347.44 1.96.59a15.7 15.7 0 0 0 3.102.432M15.15 39.91a18.6 18.6 0 0 0 5.345-.68c.88-.27 2.02-.747 2.268-.846q.916-.352 1.78-.819a6.75 6.75 0 0 0 2.04-1.774M15.146 11.632c6.238 0 11.295-2.552 11.295-5.7 0-3.147-5.057-5.699-11.295-5.699S3.852 2.785 3.852 5.933c0 3.147 5.057 5.7 11.294 5.7Z"/><path stroke="#1a1311" stroke-width=".3" d="M15.15 9.154c3.525 0 6.382-1.442 6.382-3.221s-2.857-3.221-6.382-3.221-6.382 1.442-6.382 3.22c0 1.78 2.857 3.222 6.382 3.222ZM15.15 13.803V39.91"/><path fill="#fff" stroke="#1a1311" stroke-width=".5" d="M36.827 41.126a15.7 15.7 0 0 1-3.102-.432c-.613-.15-1.117-.315-1.96-.59a46 46 0 0 1-2.297-.809 18.8 18.8 0 0 1-4.075-2.29V10.9l.136-3.75c0-3.146 5.058-5.696 11.294-5.696S48.117 4.006 48.117 7.15l.145 3.24v26.615a6.8 6.8 0 0 1-2.041 1.775 15 15 0 0 1-1.78.819c-.248.102-1.388.575-2.268.846-1.74.486-3.54.716-5.346.681Z"/><path stroke="#8e8e8f" stroke-width=".3" d="M30.551 7.74c.55-1.494 3.15-2.632 6.277-2.632 3.125 0 5.726 1.134 6.276 2.63"/><path stroke="#8e8e8f" stroke-width=".3" d="M30.935 8.39c.962-1.164 3.238-1.982 5.892-1.982s4.912.81 5.88 1.967"/><path stroke="#8e8e8f" stroke-width=".3" d="M31.707 9.073a9.47 9.47 0 0 1 5.12-1.297 9.46 9.46 0 0 1 5.12 1.298"/><path stroke="#8e8e8f" stroke-width=".3" d="M32.75 9.628a11.56 11.56 0 0 1 8.137-.006"/><path stroke="#1a1311" stroke-width=".5" d="M25.393 10.9v26.105M48.262 10.39v26.615"/><path stroke="#767676" stroke-width=".3" d="M36.827 15.021a18.8 18.8 0 0 0-4.075-2.29 46 46 0 0 0-2.297-.81c-.843-.28-1.347-.44-1.96-.59a15.7 15.7 0 0 0-3.102-.432M36.827 15.021a20.6 20.6 0 0 1 6.14-3.063M44.801 11.234a5 5 0 0 1 3.46-.84"/><path stroke="#1a1311" stroke-width=".5" d="m25.529 7.15-.136 3.748M48.117 7.15l.144 3.24M25.393 37.005a18.8 18.8 0 0 0 4.075 2.29c.832.33 2.036.724 2.297.809.843.275 1.347.44 1.96.59a15.7 15.7 0 0 0 3.102.432M36.827 41.126a18.5 18.5 0 0 0 5.345-.679c.88-.27 2.02-.747 2.268-.846a15 15 0 0 0 1.78-.819 6.8 6.8 0 0 0 2.04-1.774M36.823 12.849c6.238 0 11.294-2.552 11.294-5.7 0-3.147-5.056-5.699-11.294-5.699s-11.295 2.552-11.295 5.7c0 3.147 5.057 5.699 11.295 5.699Z"/><path stroke="#1a1311" stroke-width=".3" d="M36.827 10.37c3.524 0 6.382-1.442 6.382-3.22 0-1.78-2.858-3.221-6.382-3.221-3.525 0-6.382 1.442-6.382 3.22 0 1.78 2.857 3.222 6.382 3.222ZM36.827 15.021v26.106"/><path fill="#fff" stroke="#1a1311" stroke-width=".5" d="M58.237 47.107a15.7 15.7 0 0 1-3.102-.432c-.612-.15-1.116-.315-1.96-.59a45 45 0 0 1-2.297-.81 18.8 18.8 0 0 1-4.075-2.29V16.879l.136-3.749c0-3.148 5.058-5.696 11.294-5.696s11.294 2.551 11.294 5.696l.145 3.24v26.615a6.8 6.8 0 0 1-2.041 1.774q-.864.468-1.78.82c-.247.102-1.387.575-2.268.845a18.6 18.6 0 0 1-5.346.683Z"/><path stroke="#8e8e8f" stroke-width=".3" d="M51.962 13.72c.549-1.495 3.15-2.631 6.276-2.631s5.726 1.133 6.276 2.63"/><path stroke="#8e8e8f" stroke-width=".3" d="M52.345 14.37c.962-1.164 3.237-1.982 5.892-1.982s4.913.811 5.881 1.967"/><path stroke="#8e8e8f" stroke-width=".3" d="M53.113 15.054a9.47 9.47 0 0 1 5.12-1.297 9.47 9.47 0 0 1 5.12 1.297"/><path stroke="#8e8e8f" stroke-width=".3" d="M54.16 15.609a11.57 11.57 0 0 1 8.137-.008"/><path stroke="#1a1311" stroke-width=".5" d="M46.803 16.879v26.106M69.672 16.37v26.615"/><path stroke="#767676" stroke-width=".3" d="M58.237 21a18.8 18.8 0 0 0-4.075-2.29c-.832-.33-2.035-.723-2.297-.809-.843-.274-1.347-.44-1.96-.59a15.7 15.7 0 0 0-3.102-.432M58.237 21a20.6 20.6 0 0 1 6.14-3.061M66.212 17.214a5 5 0 0 1 3.46-.84"/><path stroke="#1a1311" stroke-width=".5" d="m46.939 13.13-.136 3.749M69.527 13.13l.144 3.24M46.803 42.985a18.8 18.8 0 0 0 4.075 2.29c.833.33 2.036.724 2.297.81.843.28 1.348.439 1.96.59 1.017.246 2.056.391 3.102.432M58.237 47.107a18.6 18.6 0 0 0 5.345-.68c.88-.27 2.02-.747 2.268-.846q.916-.352 1.78-.82a6.8 6.8 0 0 0 2.041-1.774M58.233 18.83c6.238 0 11.295-2.552 11.295-5.7s-5.057-5.7-11.295-5.7-11.294 2.552-11.294 5.7 5.057 5.7 11.294 5.7Z"/><path stroke="#1a1311" stroke-width=".3" d="M58.237 16.35c3.525 0 6.382-1.441 6.382-3.22s-2.857-3.22-6.382-3.22-6.382 1.441-6.382 3.22 2.857 3.22 6.382 3.22ZM58.237 21v26.107"/><path fill="#fff" stroke="#1a1311" stroke-width=".5" d="M32.831 54.951a15.7 15.7 0 0 1-3.101-.432c-.613-.15-1.117-.315-1.96-.59a45 45 0 0 1-2.298-.81 18.8 18.8 0 0 1-4.075-2.29V24.723l.136-3.748c0-3.148 5.059-5.697 11.295-5.697s11.292 2.549 11.292 5.697l.145 3.24v26.614a6.8 6.8 0 0 1-2.04 1.775 15 15 0 0 1-1.78.819c-.248.102-1.388.576-2.269.846a18.6 18.6 0 0 1-5.345.682Z"/><path stroke="#8e8e8f" stroke-width=".3" d="M26.556 21.564c.549-1.494 3.15-2.63 6.276-2.63s5.727 1.133 6.277 2.63"/><path stroke="#8e8e8f" stroke-width=".3" d="M26.94 22.214c.961-1.164 3.237-1.982 5.891-1.982s4.913.812 5.881 1.968"/><path stroke="#8e8e8f" stroke-width=".3" d="M27.712 22.898a9.47 9.47 0 0 1 5.12-1.297 9.47 9.47 0 0 1 5.12 1.297"/><path stroke="#8e8e8f" stroke-width=".3" d="M28.757 23.453a11.57 11.57 0 0 1 8.137-.008"/><path stroke="#1a1311" stroke-width=".5" d="M21.397 24.723v26.106M44.266 24.214v26.615"/><path stroke="#767676" stroke-width=".3" d="M32.831 28.845a18.8 18.8 0 0 0-4.075-2.29c-.832-.331-2.035-.724-2.296-.81-.844-.274-1.348-.44-1.961-.59a15.7 15.7 0 0 0-3.102-.432M32.831 28.845a20.6 20.6 0 0 1 6.137-3.062M40.806 25.058a5 5 0 0 1 3.46-.84"/><path stroke="#1a1311" stroke-width=".5" d="m21.533 20.975-.136 3.748M44.121 20.975l.144 3.239M21.397 50.829a18.8 18.8 0 0 0 4.075 2.29c.833.331 2.036.724 2.297.81.843.275 1.348.44 1.96.59 1.018.247 2.057.392 3.102.432M32.831 54.951a18.6 18.6 0 0 0 5.345-.68c.881-.27 2.021-.747 2.268-.846a15 15 0 0 0 1.78-.819 6.8 6.8 0 0 0 2.041-1.774M32.828 26.674c6.237 0 11.294-2.552 11.294-5.7 0-3.147-5.057-5.699-11.294-5.699-6.238 0-11.295 2.552-11.295 5.7 0 3.147 5.057 5.699 11.295 5.699Z"/><path stroke="#1a1311" stroke-width=".3" d="M32.831 24.195c3.525 0 6.383-1.442 6.383-3.22 0-1.78-2.858-3.221-6.383-3.221s-6.382 1.442-6.382 3.22c0 1.78 2.858 3.221 6.382 3.221ZM32.831 28.845v26.106"/><path fill="#fff" stroke="#1a1311" stroke-width=".5" d="M11.76 55.232a15.7 15.7 0 0 1-3.1-.432c-.613-.15-1.117-.315-1.96-.59-.262-.086-1.465-.478-2.298-.81a18.8 18.8 0 0 1-4.075-2.29V25.004l.14-3.748c0-3.148 5.059-5.697 11.295-5.697s11.293 2.551 11.293 5.697l.146 3.24V51.11a6.8 6.8 0 0 1-2.042 1.775q-.862.468-1.78.819c-.247.102-1.387.576-2.267.846a18.6 18.6 0 0 1-5.351.682Z"/><path stroke="#8e8e8f" stroke-width=".3" d="M5.486 21.845c.549-1.494 3.15-2.632 6.276-2.632s5.726 1.135 6.276 2.632"/><path stroke="#8e8e8f" stroke-width=".3" d="M5.869 22.495c.962-1.164 3.238-1.982 5.892-1.982s4.912.812 5.88 1.967"/><path stroke="#8e8e8f" stroke-width=".3" d="M6.642 23.178a9.47 9.47 0 0 1 5.119-1.297 9.47 9.47 0 0 1 5.12 1.298"/><path stroke="#8e8e8f" stroke-width=".3" d="M7.68 23.733a10.75 10.75 0 0 1 4.076-.747 10.8 10.8 0 0 1 4.06.736"/><path stroke="#1a1311" stroke-width=".5" d="M.327 25.004V51.11M23.196 24.495V51.11"/><path stroke="#767676" stroke-width=".3" d="M11.76 29.126a18.8 18.8 0 0 0-4.074-2.29c-.833-.331-2.036-.723-2.297-.81-.843-.28-1.347-.44-1.96-.59a15.7 15.7 0 0 0-3.102-.432M11.76 29.126a20.7 20.7 0 0 1 6.141-3.062M19.736 25.34a5 5 0 0 1 3.46-.841"/><path stroke="#1a1311" stroke-width=".5" d="m.463 21.256-.136 3.748M23.05 21.256l.145 3.24M.327 51.11a18.8 18.8 0 0 0 4.075 2.29c.833.331 2.036.724 2.298.81.843.28 1.347.44 1.96.59a15.7 15.7 0 0 0 3.1.432M11.76 55.232a18.6 18.6 0 0 0 5.346-.68c.88-.27 2.02-.747 2.268-.846q.916-.35 1.78-.819a6.8 6.8 0 0 0 2.041-1.774M11.757 26.955c6.238 0 11.295-2.552 11.295-5.7 0-3.147-5.057-5.699-11.295-5.699S.463 18.108.463 21.256c0 3.147 5.056 5.699 11.294 5.699Z"/><path stroke="#1a1311" stroke-width=".3" d="M11.761 24.476c3.525 0 6.382-1.442 6.382-3.22 0-1.78-2.857-3.221-6.382-3.221s-6.382 1.442-6.382 3.22c0 1.78 2.857 3.221 6.382 3.221ZM11.76 29.126v26.106"/><path fill="#fff" stroke="#1a1311" stroke-width=".5" d="M52.16 62.756a15.7 15.7 0 0 1-3.101-.433c-.613-.15-1.117-.315-1.96-.59a46 46 0 0 1-2.298-.809 18.8 18.8 0 0 1-4.075-2.29V32.53l.136-3.75c0-3.146 5.059-5.696 11.295-5.696s11.293 2.553 11.293 5.697l.145 3.24v26.615a6.8 6.8 0 0 1-2.04 1.775q-.865.466-1.78.819c-.248.102-1.388.575-2.268.846a18.6 18.6 0 0 1-5.347.68Z"/><path stroke="#8e8e8f" stroke-width=".3" d="M45.885 29.37c.549-1.493 3.15-2.63 6.276-2.63s5.727 1.133 6.277 2.63"/><path stroke="#8e8e8f" stroke-width=".3" d="M46.268 30.02c.962-1.164 3.238-1.98 5.892-1.98s4.913.81 5.881 1.966"/><path stroke="#8e8e8f" stroke-width=".3" d="M47.041 30.704a9.47 9.47 0 0 1 5.12-1.297 9.47 9.47 0 0 1 5.12 1.297"/><path stroke="#8e8e8f" stroke-width=".3" d="M48.085 31.26a11.56 11.56 0 0 1 8.135-.008"/><path stroke="#1a1311" stroke-width=".5" d="M40.726 32.53v26.106M63.595 32.021v26.615"/><path stroke="#767676" stroke-width=".3" d="M52.16 36.652a18.8 18.8 0 0 0-4.074-2.29 46 46 0 0 0-2.297-.81c-.843-.28-1.347-.44-1.961-.59a15.7 15.7 0 0 0-3.102-.432M52.16 36.652a20.6 20.6 0 0 1 6.14-3.063M60.139 32.865a5 5 0 0 1 3.46-.84"/><path stroke="#1a1311" stroke-width=".5" d="m40.862 28.78-.136 3.75M63.45 28.78l.144 3.24M40.726 58.635c1.258.93 2.627 1.7 4.075 2.29.833.332 2.037.725 2.297.81.843.275 1.348.44 1.96.59 1.018.247 2.057.392 3.102.432M52.16 62.755a18.6 18.6 0 0 0 5.346-.679c.88-.27 2.02-.747 2.267-.846a15 15 0 0 0 1.78-.819 6.8 6.8 0 0 0 2.041-1.774M52.157 34.48c6.237 0 11.294-2.552 11.294-5.7 0-3.147-5.057-5.699-11.294-5.699-6.238 0-11.295 2.552-11.295 5.7 0 3.147 5.057 5.699 11.295 5.699Z"/><path stroke="#1a1311" stroke-width=".3" d="M52.16 32.002c3.525 0 6.383-1.443 6.383-3.221 0-1.78-2.858-3.221-6.383-3.221s-6.382 1.442-6.382 3.22c0 1.78 2.858 3.221 6.382 3.221ZM52.16 36.652v26.106"/></g><defs><clipPath id="a"><path fill="#fff" d="M0 0h70v63H0z"/></clipPath></defs></svg>