<svg xmlns="http://www.w3.org/2000/svg" width="200" height="207" fill="none" viewBox="0 0 200 207"><g clip-path="url(#a)"><path fill="#fff" d="M200 0H0v207h200z"/><path stroke="#231815" stroke-linecap="round" stroke-linejoin="round" stroke-width=".25" d="M74.322 191.761h11.72M120.269 191.44h11.72M131.989 191.242h-11.72M86.103 190.63a1.33 1.33 0 0 0-1.33-1.33h-9.106a1.33 1.33 0 0 0-1.33 1.33M16.701 34.62v10.485M16.701 149.438v10.485M18.458 34.62v10.485M18.458 149.438v10.485M18.458 146.824v-32.617M18.458 80.076V47.703M18.657 159.923v-10.485M18.657 146.901v-32.694M18.657 80.137V47.703M18.657 45.105V34.62M45.733 13.374v1.574M49.706 14.948v2.339M16.884 145.525h1.574M181.481 145.525h1.573M65.337 17.287v-2.339M69.31 14.948v-1.574M183.054 115.506h-1.573M18.458 115.506h-1.574M121.568 192.999v-1.559M16.884 78.777h1.574M130.644 13.374v1.574M130.69 192.999v-1.559M134.54 14.948v2.339M181.481 61.842h1.573M150.233 17.287v-2.339M154.145 14.948v-1.574M183.054 49.003h-1.573M18.458 49.003h-1.574M181.297 34.62v10.485M181.297 47.703v15.438M181.297 114.207v32.694M181.297 149.514V160M181.481 160v-10.486M181.481 146.824v-32.617M181.481 63.14V47.704M181.481 45.105V34.62M183.253 160v-10.486M183.253 45.105V34.62M148.904 18.586h-13.019M64.039 18.586H51.005M44.434 15.132h5.272M65.337 15.132h5.272M129.33 15.132h5.21M150.233 15.132h5.211M44.434 14.948H70.61M129.33 14.948h26.113M63.993 18.586a1.33 1.33 0 0 0 1.329-1.33M49.706 17.256c0 .734.596 1.33 1.33 1.33M148.904 18.586a1.33 1.33 0 0 0 1.329-1.33M134.54 17.256c0 .734.596 1.33 1.33 1.33"/><path stroke="#231815" stroke-linecap="round" stroke-linejoin="round" stroke-width=".5" d="M16.93 84.08v26.229c0 .734.596 1.33 1.33 1.33h.229c.596 0 1.07.474 1.07 1.07v.459c0 .596-.474 1.069-1.07 1.069H16.93v32.648h1.559c.596 0 1.07.474 1.07 1.07v.52c0 .596-.474 1.07-1.07 1.07h-3.744a1.33 1.33 0 0 0-1.33 1.33v7.749c0 .734.597 1.33 1.33 1.33h3.744c.596 0 1.07.474 1.07 1.07v.397c0 .596-.474 1.07-1.07 1.07h-.23a1.33 1.33 0 0 0-1.329 1.33v14.536c0 2.934 1.39 5.67 3.76 7.397.381.291.778.551 1.191.795l.58.505 2.568 2.338h.015a3.9 3.9 0 0 0 2.659 1.039h22.339c.657 0 1.299-.168 1.88-.473l.366-.245a3.86 3.86 0 0 1 1.88-.474h18.794c.733 0 1.33.596 1.33 1.33v2.981h11.796v-2.966a1.33 1.33 0 0 1 1.329-1.329h31.461c.734 0 1.33.596 1.33 1.345v2.445h11.796V190.6c0-.734.596-1.33 1.329-1.33h35.343c3.805 0 7.472-1.177 10.558-3.409l.046-.03a9.32 9.32 0 0 0 3.805-7.474v-14.46a1.33 1.33 0 0 0-1.329-1.329h-.199c-.596 0-1.07-.474-1.07-1.07v-.459c0-.596.474-1.07 1.07-1.07h3.713a1.33 1.33 0 0 0 1.329-1.33v-7.749a1.33 1.33 0 0 0-1.329-1.33h-3.713c-.596 0-1.07-.474-1.07-1.07v-.519c0-.596.474-1.07 1.07-1.07h1.528v-32.648h-1.528c-.596 0-1.07-.474-1.07-1.07V64.241c0-.596.474-1.07 1.07-1.07h1.528V47.735h-1.528c-.596 0-1.07-.474-1.07-1.07v-.459c0-.596.474-1.07 1.07-1.07h3.713a1.33 1.33 0 0 0 1.329-1.33v-7.748a1.33 1.33 0 0 0-1.329-1.33h-3.713c-.596 0-1.07-.474-1.07-1.07v-.52c0-.596.474-1.07 1.07-1.07h.199a1.33 1.33 0 0 0 1.329-1.33v-5.533a9.15 9.15 0 0 0-9.153-9.155h-17.725a.684.684 0 0 1-.687-.688v-1.926h-26.129v1.926a.685.685 0 0 1-.688.688H71.251a.685.685 0 0 1-.688-.688v-1.926H44.434v1.926a.685.685 0 0 1-.687.688H26.022a9.15 9.15 0 0 0-9.153 9.155v5.533c0 .734.596 1.33 1.33 1.33h.229c.596 0 1.07.474 1.07 1.07v.52c0 .596-.474 1.07-1.07 1.07h-3.775a1.33 1.33 0 0 0-1.329 1.33v7.749c0 .733.596 1.33 1.33 1.33h3.774c.596 0 1.07.473 1.07 1.07v.458c0 .596-.474 1.07-1.07 1.07h-1.559v32.45h1.559c.596 0 1.07.473 1.07 1.07v.427c0 .596-.474 1.07-1.07 1.07h-.23a1.33 1.33 0 0 0-1.329 1.33"/><path stroke="#898989" stroke-linecap="round" stroke-linejoin="round" stroke-width=".25" d="M127.512 179.228a3.17 3.17 0 0 0-3.163 3.164 3.17 3.17 0 0 0 3.163 3.164h5.21a3.17 3.17 0 0 0 3.163-3.164 3.17 3.17 0 0 0-3.163-3.164M127.512 179.228h5.21M34.64 20.879l-3.255 5.67M33.02 26.55v6.572M36.336 33.122v-6.573M37.97 26.55l-3.33-5.671M33.02 33.122h3.316M31.385 26.55h1.635M36.336 26.55h1.635M47.093 187.237h-.657M30.743 187.237h-.657M45.198 186.396H31.981M32.042 185.617h13.095M32.042 182.804h13.095M32.042 180.924h13.095M28.788 185.938v-31.349M32.042 154.589v2.155M32.042 156.744v28.873M32.042 185.617v.321M34.258 173.725v-4.432M36.412 169.293v4.432M40.828 175.728v-8.407M32.042 162.155h13.095M42.983 167.321v8.407M45.137 154.589v2.155M45.137 156.744v28.873M45.137 185.617v.321M48.392 154.589v31.349M32.042 160.321h13.095M32.042 157.462h13.095M32.042 156.744h13.095M30.086 153.29h.657M46.436 153.29h.657M40.125 164.983a1.468 1.468 0 1 0-2.935-.001 1.468 1.468 0 0 0 2.935.001M40.125 178.081a1.467 1.467 0 1 0-2.934 0 1.467 1.467 0 0 0 2.934 0M46.467 153.29a1.33 1.33 0 0 0-1.33 1.33M48.392 154.62a1.33 1.33 0 0 0-1.33-1.33M32.042 154.62a1.33 1.33 0 0 0-1.33-1.33M30.117 153.29a1.33 1.33 0 0 0-1.33 1.33M28.788 185.907c0 .734.596 1.33 1.329 1.33M30.713 187.237a1.33 1.33 0 0 0 1.33-1.33M45.137 185.907c0 .734.596 1.33 1.33 1.33M47.062 187.237a1.33 1.33 0 0 0 1.33-1.33M42.983 167.336c0-.596-.474-1.07-1.07-1.07s-1.07.474-1.07 1.07M40.828 175.743c0 .596.474 1.07 1.07 1.07s1.07-.474 1.07-1.07M34.258 173.725c0 .596.473 1.07 1.07 1.07.595 0 1.069-.474 1.069-1.07M36.412 169.293c0-.596-.473-1.07-1.07-1.07-.595 0-1.069.474-1.069 1.07M66.835 75.873v-5.212M73.145 70.63v5.212M73.145 70.63a3.17 3.17 0 0 0-3.163-3.164 3.17 3.17 0 0 0-3.162 3.164M66.835 75.842a3.17 3.17 0 0 0 3.163 3.164 3.17 3.17 0 0 0 3.163-3.164M64.023 50.103a3.17 3.17 0 0 0-3.163-3.164 3.17 3.17 0 0 0-3.163 3.164 3.17 3.17 0 0 0 3.163 3.164 3.17 3.17 0 0 0 3.163-3.164M102.651 185.54h-5.272M97.41 179.228h5.287M97.41 179.228a3.17 3.17 0 0 0-3.163 3.164 3.17 3.17 0 0 0 3.163 3.164M102.697 185.54a3.17 3.17 0 0 0 3.163-3.164 3.17 3.17 0 0 0-3.163-3.163M116.984 175.575h-44.42M69.952 172.976v-47.061M72.565 123.255h44.419M119.597 125.884v47.047M69.952 172.931a2.645 2.645 0 0 0 2.643 2.644M72.595 123.255a2.645 2.645 0 0 0-2.643 2.645M116.953 175.575a2.645 2.645 0 0 0 2.644-2.644M119.597 125.884a2.645 2.645 0 0 0-2.644-2.644M96.86 75.873v-5.212M103.186 70.66v5.213M103.186 70.63a3.17 3.17 0 0 0-3.163-3.164 3.17 3.17 0 0 0-3.163 3.164M96.86 75.842a3.17 3.17 0 0 0 3.163 3.164 3.17 3.17 0 0 0 3.163-3.164M64.023 142.239a3.17 3.17 0 0 0-3.163-3.164 3.17 3.17 0 0 0-3.163 3.164 3.17 3.17 0 0 0 3.163 3.164 3.17 3.17 0 0 0 3.163-3.164M136.084 142.239a3.17 3.17 0 0 0 3.163 3.164 3.17 3.17 0 0 0 3.163-3.164 3.17 3.17 0 0 0-3.163-3.164 3.17 3.17 0 0 0-3.163 3.164M139.231 53.267a3.17 3.17 0 0 0 3.163-3.164 3.17 3.17 0 0 0-3.163-3.164 3.17 3.17 0 0 0-3.163 3.164 3.17 3.17 0 0 0 3.163 3.164M69.982 185.54a3.17 3.17 0 0 1-3.162-3.164 3.17 3.17 0 0 1 3.162-3.163 3.17 3.17 0 0 1 3.163 3.163 3.17 3.17 0 0 1-3.163 3.164M130.109 76.393a3.17 3.17 0 0 0 3.163-3.164 3.17 3.17 0 0 0-3.163-3.164 3.17 3.17 0 0 0-3.163 3.164 3.17 3.17 0 0 0 3.163 3.164M162.32 21.337h1.497v6.65c0 1.16-.122 2.078-.382 2.75s-.718 1.239-1.391 1.667c-.672.427-1.558.641-2.643.641s-1.925-.183-2.613-.55a3.14 3.14 0 0 1-1.451-1.62c-.291-.703-.428-1.666-.428-2.889v-6.649h1.497v6.634c0 .993.092 1.742.275 2.216s.504.84.948 1.1.993.383 1.635.383c1.1 0 1.894-.26 2.353-.764.473-.505.703-1.483.703-2.92v-6.649M165.651 32.831V21.322h4.278c.749 0 1.329.03 1.727.107.55.092 1.023.275 1.405.535s.673.627.902 1.116c.229.474.351.993.351 1.574q0 1.467-.916 2.476c-.612.673-1.727 1.009-3.332 1.009h-2.903v4.677h-1.497zm1.497-6.037h2.934q1.443 0 2.063-.55c.412-.367.611-.887.611-1.544q0-.71-.367-1.238a1.68 1.68 0 0 0-.947-.673c-.26-.06-.719-.107-1.406-.107h-2.903v4.112z"/></g><defs><clipPath id="a"><path fill="#fff" d="M0 0h200v207H0z"/></clipPath></defs></svg>