<svg xmlns="http://www.w3.org/2000/svg" width="141" height="84" fill="none" viewBox="0 0 141 84"><g clip-path="url(#a)"><path fill="#fff" d="m10.71 78.96-1.44 2.63c-.55.95-1.67.87-2.34-.11l-4.27-6.5.03-5.79.98-1.24V65.6l-.95-1.13.04-6.93.98-1.24v-2.35l-.95-1.13.04-6.97.98-1.24v-2.35l-.95-1.13v-1.32l.03-3.76h1.6c1.5.02 1.45-2.79.01-2.79H3.17l-2.92-8.5 3.81-.13L2.96 23 3.08.25l16.13.09-.09 16.95-1.01 1.21-.02 3.02 1 .99v2.36l2.68.02-3.02 8.46h-1.33c-1.44-.02-1.52 2.79-.01 2.8h.63l-.01 2.67.96 1.11-.04 7.93-.98 1.12v2.35l.95 1.25-.04 6.96-.98 1.12v2.35l.95 1.25-.06 10.83-4.34 6.45c-.68.98-1.8 1.04-2.34.09l-1.41-2.65"/><path fill="#e6e6e6" d="m14.13 81.18 2.81-6.29.03-5.73-2.62-.01.02-4.57 2.63.02.04-7.09-2.63-.01.03-4.57 2.62.02.04-7.07-2.63-.01.03-4.57 2.63.02.02-4.9.26-.28h.64l-.02 2.66.96 1.11-.04 7.93-.98 1.12-.01 2.35.96 1.25-.03 6.96-.98 1.12-.01 2.35.96 1.25-.06 10.83-4.34 6.45z"/><path fill="#b3b3b3" d="m10.28 78.08.27-49.69a.435.435 0 0 1 .87.01l-.27 49.68c0 .24-.2.43-.43.43-.24 0-.43-.2-.43-.44zM10.59 23.19l.04-7.81a.435.435 0 0 1 .87 0l-.04 7.81a.435.435 0 0 1-.87-.01z"/><path fill="#e6e6e6" d="m8.38 41.27 1.24.01-.03 4.56H8.36M8.32 52.9h1.23l-.02 4.57-1.24-.01M8.26 64.55l1.23.01-.02 4.56H8.23"/><path stroke="#666" stroke-linecap="round" stroke-linejoin="round" stroke-width=".3" d="m3.98 41.24 5.64.04-.03 4.56-5.63-.03M5.28 24.64l12.47.07M3.92 52.87l5.63.03-.02 4.57-5.64-.03M3.86 64.52l5.63.04-.02 4.56-5.64-.03M14.13 81.18l2.81-6.29.03-5.73-2.62-.01.02-4.57 2.63.02.04-7.09-2.63-.01.03-4.57 2.62.02.04-7.07-2.63-.01.03-4.57 2.63.02.02-4.9"/><path stroke="#000" stroke-linecap="round" stroke-linejoin="round" stroke-width=".5" d="m10.71 78.96-1.44 2.63c-.55.95-1.67.87-2.34-.11l-4.27-6.5.03-5.79.98-1.24V65.6l-.95-1.13.04-6.93.98-1.24v-2.35l-.95-1.13.04-6.97.98-1.24v-2.35l-.95-1.13v-1.32l.03-3.76h1.6c1.5.02 1.45-2.79.01-2.79H3.17l-2.92-8.5 3.81-.13L2.96 23 3.08.25l16.13.09-.09 16.95-1.01 1.21-.02 3.02 1 .99v2.36l2.68.02-3.02 8.46h-1.33c-1.44-.02-1.52 2.79-.01 2.8h.63l-.01 2.67.96 1.11-.04 7.93-.98 1.12v2.35l.95 1.25-.04 6.96-.98 1.12v2.35l.95 1.25-.06 10.83-4.34 6.45c-.68.98-1.8 1.04-2.34.09l-1.41-2.65"/><path fill="#fff" d="m22.44 80.3-1.93 2.3c-.72.82-1.8.53-2.27-.57l-2.9-7.21 1.17-5.67 1.2-1.02.48-2.3-.72-1.3 1.41-6.79 1.2-1.02.48-2.3-.72-1.29 1.41-6.82 1.2-1.02.48-2.3-.72-1.3.27-1.29.76-3.69 1.57.33c1.47.3 1.98-2.45.57-2.74l-1.3-.27-1.19-8.91 3.76.62-.76-1.82 4.59-22.28 15.8 3.27-3.43 16.6-1.23.98-.61 2.95.78 1.17-.48 2.31 2.64.55-4.63 7.7-1.3-.27c-1.41-.29-2.04 2.44-.57 2.74l.62.13-.54 2.61.73 1.27-1.61 7.77-1.18.9-.48 2.3.7 1.41-1.41 6.82-1.18.9-.48 2.3.7 1.42-2.19 10.6-5.53 5.47c-.86.82-1.97.66-2.31-.37l-.86-2.88"/><path fill="#e6e6e6" d="m25.36 83.15 3.99-5.6 1.16-5.61-2.57-.54.92-4.47 2.58.54 1.43-6.94L30.3 60l.92-4.48 2.58.54 1.43-6.92-2.57-.53.92-4.47 2.57.53 1-4.8.31-.22.62.12-.54 2.61.72 1.28-1.6 7.76-1.18.91-.48 2.3.7 1.41-1.41 6.82-1.18.9-.48 2.31.7 1.41-2.19 10.61-5.53 5.46z"/><path fill="#b3b3b3" d="M22.19 79.36 32.26 30.7c.05-.23.28-.39.51-.34s.39.28.34.51L23.04 79.52c-.05.24-.28.39-.51.34a.44.44 0 0 1-.34-.51zM33.32 25.61l1.58-7.65c.05-.23.28-.39.51-.34s.39.28.34.51l-1.58 7.65c-.05.23-.28.39-.51.34a.447.447 0 0 1-.34-.51"/><path fill="#e6e6e6" d="m27.59 42.9 1.21.25-.92 4.47-1.21-.25M25.24 54.28l1.2.25-.92 4.48-1.21-.25M22.87 65.69l1.21.25-.92 4.48-1.21-.25"/><path stroke="#666" stroke-linecap="round" stroke-linejoin="round" stroke-width=".3" d="m23.28 42 5.52 1.15-.92 4.47-5.52-1.14M27.83 25.98l12.21 2.53M20.93 53.39l5.51 1.14-.92 4.48L20 57.86M18.57 64.8l5.51 1.14-.92 4.48-5.52-1.15M25.36 83.15l3.99-5.6 1.16-5.61-2.57-.54.92-4.47 2.58.54 1.43-6.94L30.3 60l.92-4.48 2.58.54 1.43-6.92-2.57-.53.92-4.47 2.57.53 1-4.8"/><path stroke="#000" stroke-linecap="round" stroke-linejoin="round" stroke-width=".5" d="m22.44 80.3-1.93 2.3c-.72.82-1.8.53-2.27-.57l-2.9-7.21 1.17-5.67 1.2-1.02.48-2.3-.72-1.3 1.41-6.79 1.2-1.02.48-2.3-.72-1.29 1.41-6.82 1.2-1.02.48-2.3-.72-1.3.27-1.29.76-3.69 1.57.33c1.47.3 1.98-2.45.57-2.74l-1.3-.27-1.19-8.91 3.76.62-.76-1.82 4.59-22.28 15.8 3.27-3.43 16.6-1.23.98-.61 2.95.78 1.17-.48 2.31 2.64.55-4.63 7.7-1.3-.27c-1.41-.29-2.04 2.44-.57 2.74l.62.13-.54 2.61.73 1.27-1.61 7.77-1.18.9-.48 2.3.7 1.41-1.41 6.82-1.18.9-.48 2.3.7 1.42-2.19 10.6-5.53 5.47c-.86.82-1.97.66-2.31-.37l-.86-2.88"/><path fill="#fff" d="m59.41 78.96-1.44 2.63c-.55.95-1.67.87-2.34-.11l-4.27-6.5.03-5.79.98-1.24V65.6l-.95-1.13.04-6.93.98-1.24v-2.35l-.95-1.13.04-6.97.98-1.24v-2.35l-.95-1.13v-1.32l.03-3.76h1.6c1.5.02 1.45-2.79.01-2.79h-1.33l-2.92-8.5 3.81-.13-1.1-1.63.13-22.74 16.13.09-.09 16.95-1.01 1.21-.02 3.02 1 .99v2.36l2.68.02-3.02 8.46h-1.33c-1.44-.02-1.52 2.79-.01 2.8h.63l-.01 2.67.96 1.11-.04 7.93-.98 1.12v2.35l.95 1.25-.04 6.96-.98 1.12v2.35l.95 1.25-.06 10.83-4.34 6.45c-.68.98-1.8 1.04-2.34.09l-1.41-2.65"/><path fill="#e6e6e6" d="m62.83 81.18 2.81-6.29.03-5.73-2.63-.01.03-4.57 2.62.02.04-7.09-2.63-.01.03-4.57 2.63.02.04-7.07-2.63-.01.02-4.57 2.63.02.03-4.9.26-.28h.63l-.01 2.66.96 1.11-.04 7.93-.98 1.12-.01 2.35.96 1.25-.04 6.96-.97 1.12-.02 2.35.96 1.25-.05 10.83-4.35 6.45z"/><path fill="#b3b3b3" d="m58.98 78.08.27-49.69a.435.435 0 0 1 .87.01l-.27 49.68c0 .24-.2.43-.43.43-.24 0-.43-.2-.43-.44zM59.28 23.19l.04-7.81a.435.435 0 0 1 .87 0l-.04 7.81a.435.435 0 0 1-.87-.01z"/><path fill="#e6e6e6" d="m57.08 41.27 1.23.01-.02 4.56h-1.24M57.01 52.9h1.24l-.03 4.57-1.23-.01M56.95 64.55l1.24.01-.03 4.56h-1.23"/><path stroke="#666" stroke-linecap="round" stroke-linejoin="round" stroke-width=".3" d="m52.68 41.24 5.63.04-.02 4.56-5.64-.03M53.97 24.64l12.48.07M52.61 52.87l5.64.03-.03 4.57-5.63-.03M52.55 64.52l5.64.04-.03 4.56-5.64-.03M62.83 81.18l2.81-6.29.03-5.73-2.63-.01.03-4.57 2.62.02.04-7.09-2.63-.01.03-4.57 2.63.02.04-7.07-2.63-.01.02-4.57 2.63.02.03-4.9"/><path stroke="#000" stroke-linecap="round" stroke-linejoin="round" stroke-width=".5" d="m59.41 78.96-1.44 2.63c-.55.95-1.67.87-2.34-.11l-4.27-6.5.03-5.79.98-1.24V65.6l-.95-1.13.04-6.93.98-1.24v-2.35l-.95-1.13.04-6.97.98-1.24v-2.35l-.95-1.13v-1.32l.03-3.76h1.6c1.5.02 1.45-2.79.01-2.79h-1.33l-2.92-8.5 3.81-.13-1.1-1.63.13-22.74 16.13.09-.09 16.95-1.01 1.21-.02 3.02 1 .99v2.36l2.68.02-3.02 8.46h-1.33c-1.44-.02-1.52 2.79-.01 2.8h.63l-.01 2.67.96 1.11-.04 7.93-.98 1.12v2.35l.95 1.25-.04 6.96-.98 1.12v2.35l.95 1.25-.06 10.83-4.34 6.45c-.68.98-1.8 1.04-2.34.09l-1.41-2.65"/><path fill="#fff" d="m71.13 80.3-1.93 2.3c-.72.82-1.8.53-2.27-.57l-2.9-7.21 1.17-5.67 1.2-1.02.48-2.3-.72-1.3 1.41-6.79 1.2-1.02.48-2.3-.72-1.29 1.41-6.82 1.2-1.02.48-2.3-.72-1.3.27-1.29.76-3.69 1.57.33c1.47.3 1.98-2.45.57-2.74l-1.3-.27-1.19-8.91 3.76.62-.76-1.82 4.61-22.27 15.8 3.27-3.43 16.6-1.23.98-.61 2.95.78 1.17-.48 2.31 2.64.55-4.63 7.7-1.3-.27c-1.41-.29-2.04 2.44-.57 2.74l.62.13-.54 2.61.73 1.27-1.61 7.77-1.18.9-.48 2.3.7 1.41-1.41 6.82-1.18.9-.48 2.3.7 1.42-2.19 10.6-5.53 5.47c-.86.82-1.97.66-2.31-.37l-.86-2.88"/><path fill="#e6e6e6" d="m74.05 83.15 3.99-5.6 1.17-5.61-2.58-.54.93-4.47 2.57.54 1.44-6.94-2.58-.53.93-4.48 2.57.54 1.43-6.92-2.57-.53.93-4.47 2.57.53.99-4.8.31-.22.62.12-.54 2.61.73 1.28-1.61 7.76-1.18.91-.48 2.3.7 1.41-1.41 6.82-1.17.9-.48 2.31.7 1.41-2.2 10.61-5.53 5.46z"/><path fill="#b3b3b3" d="M70.89 79.36 80.96 30.7c.05-.23.28-.39.51-.34s.39.28.34.51L71.74 79.52c-.05.24-.28.39-.51.34a.44.44 0 0 1-.34-.51zM82.01 25.61l1.58-7.65c.05-.23.28-.39.51-.34s.39.28.34.51l-1.58 7.65c-.05.23-.28.39-.51.34a.447.447 0 0 1-.34-.51"/><path fill="#e6e6e6" d="m76.29 42.9 1.21.25-.93 4.47-1.21-.25M73.93 54.28l1.21.25-.93 4.48-1.21-.25M71.57 65.69l1.21.25-.93 4.48-1.21-.25"/><path stroke="#666" stroke-linecap="round" stroke-linejoin="round" stroke-width=".3" d="m71.98 42 5.52 1.15-.93 4.47-5.52-1.14M76.52 25.98l12.22 2.53M69.62 53.39l5.52 1.14-.93 4.48-5.52-1.15M67.26 64.8l5.52 1.14-.93 4.48-5.52-1.15M74.05 83.15l3.99-5.6 1.17-5.61-2.58-.54.93-4.47 2.57.54 1.44-6.94-2.58-.53.93-4.48 2.57.54 1.43-6.92-2.57-.53.93-4.47 2.57.53.99-4.8"/><path stroke="#000" stroke-linecap="round" stroke-linejoin="round" stroke-width=".5" d="m71.13 80.3-1.93 2.3c-.72.82-1.8.53-2.27-.57l-2.9-7.21 1.17-5.67 1.2-1.02.48-2.3-.72-1.3 1.41-6.79 1.2-1.02.48-2.3-.72-1.29 1.41-6.82 1.2-1.02.48-2.3-.72-1.3.27-1.29.76-3.69 1.57.33c1.47.3 1.98-2.45.57-2.74l-1.3-.27-1.19-8.91 3.76.62-.76-1.82 4.61-22.27 15.8 3.27-3.43 16.6-1.23.98-.61 2.95.78 1.17-.48 2.31 2.64.55-4.63 7.7-1.3-.27c-1.41-.29-2.04 2.44-.57 2.74l.62.13-.54 2.61.73 1.27-1.61 7.77-1.18.9-.48 2.3.7 1.41-1.41 6.82-1.18.9-.48 2.3.7 1.42-2.19 10.6-5.53 5.47c-.86.82-1.97.66-2.31-.37l-.86-2.88"/><path fill="#fff" d="m105.46 78.96-1.44 2.63c-.55.95-1.67.87-2.34-.11l-4.27-6.5.03-5.79.98-1.24V65.6l-.95-1.13.04-6.93.98-1.24v-2.35l-.95-1.13.04-6.97.98-1.24v-2.35l-.95-1.13v-1.32l.03-3.76h1.6c1.5.02 1.45-2.79.01-2.79h-1.33L95 24.76l3.81-.13-1.1-1.63.13-22.74 16.13.09-.09 16.95-1.01 1.21-.02 3.02 1 .99v2.36l2.68.02-3.02 8.46h-1.33c-1.44-.02-1.52 2.79-.01 2.8h.63l-.01 2.67.96 1.11-.04 7.93-.98 1.12v2.35l.95 1.25-.04 6.96-.98 1.12v2.35l.95 1.25-.06 10.83-4.34 6.45c-.68.98-1.8 1.04-2.34.09l-1.41-2.65"/><path fill="#e6e6e6" d="m108.88 81.18 2.81-6.29.03-5.73-2.63-.01.03-4.57 2.62.02.04-7.09-2.63-.01.03-4.57 2.63.02.04-7.07-2.63-.01.02-4.57 2.63.02.03-4.9.26-.28h.63l-.01 2.66.96 1.11-.04 7.93-.98 1.12-.01 2.35.96 1.25-.04 6.96-.97 1.12-.02 2.35.96 1.25-.05 10.83-4.35 6.45z"/><path fill="#b3b3b3" d="m105.03 78.08.27-49.69a.435.435 0 0 1 .87.01l-.27 49.68c0 .24-.2.43-.43.43-.24 0-.43-.2-.43-.44zM105.33 23.19l.04-7.81a.435.435 0 0 1 .87 0l-.04 7.81a.435.435 0 0 1-.87-.01z"/><path fill="#e6e6e6" d="m103.13 41.27 1.23.01-.02 4.56h-1.24M103.06 52.9h1.24l-.03 4.57-1.23-.01M103 64.55l1.24.01-.03 4.56h-1.23"/><path stroke="#666" stroke-linecap="round" stroke-linejoin="round" stroke-width=".3" d="m98.73 41.24 5.63.04-.02 4.56-5.64-.03M100.02 24.64l12.48.07M98.66 52.87l5.64.03-.03 4.57-5.63-.03M98.6 64.52l5.64.04-.03 4.56-5.64-.03M108.88 81.18l2.81-6.29.03-5.73-2.63-.01.03-4.57 2.62.02.04-7.09-2.63-.01.03-4.57 2.63.02.04-7.07-2.63-.01.02-4.57 2.63.02.03-4.9"/><path stroke="#000" stroke-linecap="round" stroke-linejoin="round" stroke-width=".5" d="m105.46 78.96-1.44 2.63c-.55.95-1.67.87-2.34-.11l-4.27-6.5.03-5.79.98-1.24V65.6l-.95-1.13.04-6.93.98-1.24v-2.35l-.95-1.13.04-6.97.98-1.24v-2.35l-.95-1.13v-1.32l.03-3.76h1.6c1.5.02 1.45-2.79.01-2.79h-1.33L95 24.76l3.81-.13-1.1-1.63.13-22.74 16.13.09-.09 16.95-1.01 1.21-.02 3.02 1 .99v2.36l2.68.02-3.02 8.46h-1.33c-1.44-.02-1.52 2.79-.01 2.8h.63l-.01 2.67.96 1.11-.04 7.93-.98 1.12v2.35l.95 1.25-.04 6.96-.98 1.12v2.35l.95 1.25-.06 10.83-4.34 6.45c-.68.98-1.8 1.04-2.34.09l-1.41-2.65"/><path fill="#fff" d="m117.18 80.3-1.93 2.3c-.72.82-1.8.53-2.27-.57l-2.9-7.21 1.17-5.67 1.2-1.02.48-2.3-.72-1.3 1.41-6.79 1.2-1.02.48-2.3-.72-1.29 1.41-6.82 1.2-1.02.48-2.3-.72-1.3.27-1.29.76-3.69 1.57.33c1.47.3 1.98-2.45.57-2.74l-1.3-.27-1.19-8.91 3.76.62-.76-1.82 4.61-22.27 15.8 3.27-3.43 16.6-1.23.98-.61 2.95.78 1.17-.48 2.31 2.64.55-4.63 7.7-1.3-.27c-1.41-.29-2.04 2.44-.57 2.74l.62.13-.54 2.61.73 1.27-1.61 7.77-1.18.9-.48 2.3.7 1.41-1.41 6.82-1.18.9-.48 2.3.7 1.42-2.19 10.6-5.53 5.47c-.86.82-1.97.66-2.31-.37l-.86-2.88"/><path fill="#e6e6e6" d="m120.1 83.15 3.99-5.6 1.17-5.61-2.58-.54.93-4.47 2.57.54 1.44-6.94-2.58-.53.93-4.48 2.57.54 1.43-6.92-2.57-.53.93-4.47 2.57.53.99-4.8.31-.22.62.12-.54 2.61.73 1.28-1.61 7.76-1.18.91-.48 2.3.7 1.41-1.41 6.82-1.17.9-.48 2.31.7 1.41-2.2 10.61-5.53 5.46z"/><path fill="#b3b3b3" d="m116.94 79.36 10.07-48.66c.05-.23.28-.39.51-.34s.39.28.34.51l-10.07 48.65c-.05.24-.28.39-.51.34a.44.44 0 0 1-.34-.51zM128.06 25.61l1.58-7.65c.05-.23.28-.39.51-.34s.39.28.34.51l-1.58 7.65c-.05.23-.28.39-.51.34a.447.447 0 0 1-.34-.51"/><path fill="#e6e6e6" d="m122.34 42.9 1.21.25-.93 4.47-1.21-.25M119.98 54.28l1.21.25-.93 4.48-1.21-.25M117.62 65.69l1.21.25-.93 4.48-1.21-.25"/><path stroke="#666" stroke-linecap="round" stroke-linejoin="round" stroke-width=".3" d="m118.03 42 5.52 1.15-.93 4.47-5.52-1.14M122.57 25.98l12.22 2.53M115.67 53.39l5.52 1.14-.93 4.48-5.52-1.15M113.31 64.8l5.52 1.14-.93 4.48-5.52-1.15M120.1 83.15l3.99-5.6 1.17-5.61-2.58-.54.93-4.47 2.57.54 1.44-6.94-2.58-.53.93-4.48 2.57.54 1.43-6.92-2.57-.53.93-4.47 2.57.53.99-4.8"/><path stroke="#000" stroke-linecap="round" stroke-linejoin="round" stroke-width=".5" d="m117.18 80.3-1.93 2.3c-.72.82-1.8.53-2.27-.57l-2.9-7.21 1.17-5.67 1.2-1.02.48-2.3-.72-1.3 1.41-6.79 1.2-1.02.48-2.3-.72-1.29 1.41-6.82 1.2-1.02.48-2.3-.72-1.3.27-1.29.76-3.69 1.57.33c1.47.3 1.98-2.45.57-2.74l-1.3-.27-1.19-8.91 3.76.62-.76-1.82 4.61-22.27 15.8 3.27-3.43 16.6-1.23.98-.61 2.95.78 1.17-.48 2.31 2.64.55-4.63 7.7-1.3-.27c-1.41-.29-2.04 2.44-.57 2.74l.62.13-.54 2.61.73 1.27-1.61 7.77-1.18.9-.48 2.3.7 1.41-1.41 6.82-1.18.9-.48 2.3.7 1.42-2.19 10.6-5.53 5.47c-.86.82-1.97.66-2.31-.37l-.86-2.88"/></g><defs><clipPath id="a"><path fill="#fff" d="M0 0h141v84H0z"/></clipPath></defs></svg>