<svg width="114" height="117" viewBox="0 0 114 117" fill="none" xmlns="http://www.w3.org/2000/svg">
<g clip-path="url(#clip0_1193_2)">
<path d="M100.01 0.25H13.88C6.35236 0.25 0.25 6.35236 0.25 13.88V102.7C0.25 110.228 6.35236 116.33 13.88 116.33H100.01C107.538 116.33 113.64 110.228 113.64 102.7V13.88C113.64 6.35236 107.538 0.25 100.01 0.25Z" fill="white"/>
<path d="M80.39 57.22V63.05" stroke="#B3B3B3" stroke-width="0.25"/>
<path d="M96.75 57.22V63.05" stroke="#B3B3B3" stroke-width="0.25"/>
<path d="M101.38 55.37L99.25 56.22C98.3 56.6 96.63 56.91 95.53 56.91H81.61C80.51 56.91 78.84 56.6 77.89 56.22L75.76 55.37" stroke="#B3B3B3" stroke-width="0.25"/>
<path d="M58.77 12.97H11.85C11.3916 12.97 11.02 13.3416 11.02 13.8V48.78C11.02 49.2384 11.3916 49.61 11.85 49.61H58.77C59.2284 49.61 59.6 49.2384 59.6 48.78V13.8C59.6 13.3416 59.2284 12.97 58.77 12.97Z" fill="url(#paint0_linear_1193_2)"/>
<path d="M113.64 94.29C113.64 101.8 107.53 107.92 100.01 107.92H13.88C6.37 107.92 0.25 101.81 0.25 94.29" stroke="black" stroke-width="0.1" stroke-miterlimit="10"/>
<path d="M100.01 0.25H13.88C6.35236 0.25 0.25 6.35236 0.25 13.88V102.7C0.25 110.228 6.35236 116.33 13.88 116.33H100.01C107.538 116.33 113.64 110.228 113.64 102.7V13.88C113.64 6.35236 107.538 0.25 100.01 0.25Z" stroke="black" stroke-width="0.5" stroke-linecap="round" stroke-linejoin="round"/>
<path d="M100.01 1.77H13.87C7.18737 1.77 1.77002 7.18735 1.77002 13.87V94.29C1.77002 100.973 7.18737 106.39 13.87 106.39H100.01C106.693 106.39 112.11 100.973 112.11 94.29V13.87C112.11 7.18735 106.693 1.77 100.01 1.77Z" stroke="black" stroke-width="0.25" stroke-linecap="round" stroke-linejoin="round"/>
<path d="M86.74 39.16H87.19C87.19 39.16 87.23 39.16 87.25 39.18C87.67 39.6 88.09 40.02 88.51 40.44C88.55 40.48 88.59 40.48 88.63 40.44C89.05 40.02 89.47 39.6 89.89 39.18C89.91 39.16 89.92 39.16 89.95 39.16H90.4C90.4 39.16 90.46 39.2 90.43 39.23C89.88 39.78 89.34 40.32 88.8 40.87C88.77 40.9 88.73 40.92 88.68 40.92H88.47C88.47 40.92 88.39 40.91 88.35 40.87C87.8 40.32 87.26 39.78 86.71 39.23C86.68 39.2 86.69 39.16 86.74 39.16Z" fill="black"/>
<path d="M90.3901 16.94H89.9401C89.9401 16.94 89.9 16.94 89.88 16.91C89.46 16.49 89.0401 16.07 88.6201 15.65C88.5801 15.61 88.5401 15.61 88.5001 15.65C88.0801 16.07 87.6601 16.49 87.2401 16.91C87.2201 16.93 87.2101 16.94 87.1801 16.94H86.7301C86.7301 16.94 86.67 16.9 86.7 16.87C87.25 16.32 87.79 15.78 88.34 15.24C88.37 15.21 88.4101 15.19 88.4601 15.19H88.6701C88.6701 15.19 88.7501 15.2 88.7901 15.24C89.3301 15.79 89.8801 16.33 90.4201 16.87C90.4501 16.9 90.4401 16.94 90.3901 16.94Z" fill="black"/>
<path d="M87.57 26.87C86.75 26.87 86.5 27.49 86.5 28.09C86.5 28.69 86.78 29.26 87.52 29.26C88.35 29.25 88.58 28.65 88.58 28.06C88.58 27.47 88.35 26.88 87.56 26.88L87.57 26.87ZM87.56 28.96C87.09 28.96 86.91 28.53 86.89 28.08C86.87 27.63 87.02 27.16 87.54 27.15C88.04 27.15 88.2 27.59 88.21 28.04C88.21 28.49 88.08 28.94 87.56 28.96Z" fill="black"/>
<path d="M89.79 27.85L90.57 26.9H90.13L89.33 27.96V26.9H88.97V29.22H89.33V28.41L89.56 28.13L90.25 29.22H90.65L89.79 27.85Z" fill="black"/>
<path d="M99.6801 26.23C99.6801 26.23 99.7201 26.17 99.7501 26.2C100.29 26.74 100.84 27.29 101.38 27.83C101.42 27.86 101.43 27.9 101.43 27.95V28.16C101.43 28.16 101.42 28.24 101.38 28.28C100.84 28.82 100.29 29.37 99.7501 29.91C99.7201 29.94 99.6801 29.93 99.6801 29.88V29.43C99.6801 29.43 99.6801 29.39 99.7001 29.37C100.12 28.95 100.54 28.53 100.96 28.11C101 28.07 101 28.03 100.96 27.99C100.54 27.57 100.12 27.15 99.7001 26.73C99.6801 26.71 99.6801 26.69 99.6801 26.67V26.22V26.23Z" fill="black"/>
<path d="M79.53 46.46C79.53 46.05 79.86 45.71 80.28 45.71H96.86C97.27 45.71 97.61 46.04 97.61 46.46C97.61 46.88 97.28 47.21 96.86 47.21H80.28C79.87 47.21 79.53 46.88 79.53 46.46Z" stroke="black" stroke-width="0.25"/>
<path d="M75.7 27.95C75.7 27.95 75.71 27.87 75.75 27.83C76.29 27.29 76.84 26.74 77.38 26.2C77.41 26.17 77.45 26.18 77.45 26.23V26.68C77.45 26.68 77.45 26.72 77.43 26.74C77.01 27.16 76.59 27.58 76.17 28C76.13 28.04 76.13 28.08 76.17 28.12C76.59 28.54 77.01 28.96 77.43 29.38C77.45 29.4 77.45 29.41 77.45 29.44V29.89C77.45 29.89 77.41 29.95 77.38 29.92C76.84 29.37 76.29 28.83 75.75 28.29C75.71 28.26 75.7 28.22 75.7 28.17V27.96V27.95Z" fill="black"/>
<path d="M53.73 61.45V59.57L53.34 59.73L53.26 59.47L53.77 59.21H54.09V61.45H53.73Z" fill="black"/>
<path d="M52.72 60.45H51.86V61.45H51.51V59.14H52.78V59.45H51.86V60.15H52.72V60.45Z" fill="black"/>
<path d="M53.38 73.59H54.31V73.89H52.87V73.67C52.95 73.59 53.02 73.52 53.1 73.44C53.24 73.3 53.37 73.17 53.51 73.03C53.62 72.92 53.73 72.8 53.8 72.66C53.86 72.55 53.9 72.44 53.9 72.31C53.9 72.22 53.88 72.13 53.83 72.07C53.8 72.03 53.75 71.99 53.7 71.97C53.63 71.94 53.55 71.93 53.48 71.93C53.37 71.93 53.26 71.96 53.17 72.01C53.12 72.04 53.07 72.07 53.03 72.11C52.99 72.02 52.95 71.94 52.9 71.86C52.93 71.83 52.96 71.81 52.99 71.79C53.16 71.67 53.37 71.62 53.59 71.63C53.72 71.63 53.85 71.66 53.96 71.72C54.09 71.8 54.2 71.93 54.25 72.08C54.31 72.28 54.27 72.5 54.18 72.69C54.11 72.82 54.02 72.94 53.93 73.05C53.83 73.17 53.71 73.28 53.6 73.39C53.54 73.45 53.47 73.52 53.4 73.58" fill="black"/>
<path d="M51.64 72.9V73.9H51.29V71.59H52.56V71.89H51.64V72.6H52.5V72.9H51.64Z" fill="black"/>
<path d="M53.8201 85.1C53.8201 85.1 53.8901 85.12 53.9201 85.13C54.0301 85.17 54.1201 85.25 54.1901 85.34C54.2501 85.43 54.2801 85.55 54.2801 85.66C54.2801 85.84 54.1901 86.01 54.0701 86.13C53.9201 86.27 53.7001 86.32 53.4901 86.33C53.2901 86.33 53.1001 86.31 52.9401 86.22C52.9201 86.21 52.8901 86.19 52.8701 86.17C52.9101 86.08 52.9401 85.99 52.9801 85.9C53.0601 85.95 53.1401 85.98 53.2301 86.01C53.3801 86.05 53.5501 86.07 53.6901 86C53.8101 85.94 53.9001 85.81 53.9101 85.67C53.9101 85.53 53.8301 85.39 53.7201 85.32C53.6201 85.26 53.5101 85.24 53.3901 85.24C53.3501 85.24 53.3101 85.24 53.2601 85.24V84.96C53.2601 84.96 53.2901 84.96 53.3101 84.96H53.3901C53.5101 84.96 53.6501 84.93 53.7401 84.85C53.8101 84.79 53.8501 84.71 53.8501 84.62C53.8501 84.56 53.8401 84.51 53.8101 84.46C53.7501 84.36 53.6101 84.32 53.4901 84.32C53.3301 84.32 53.1801 84.38 53.0501 84.46C53.0201 84.38 52.9801 84.29 52.9501 84.21C53.0001 84.18 53.0101 84.17 53.0201 84.16C53.2201 84.03 53.4801 84 53.7201 84.04C53.8501 84.06 53.9701 84.11 54.0501 84.19C54.1501 84.28 54.2101 84.42 54.2101 84.56C54.2101 84.68 54.1701 84.8 54.1001 84.89C54.0401 84.97 53.9501 85.03 53.8201 85.08" fill="black"/>
<path d="M52.5801 84.31H51.6601V85.01H52.5301L52.5201 85.31H51.6601V86.31H51.3101V84H52.5801V84.31Z" fill="black"/>
<path d="M54.09 97.9V96.52H53.67L52.74 97.89V98.16H53.73V98.76H54.09V98.16H54.36V97.9H54.09ZM53.73 97.9H53.08L53.73 96.91V97.9Z" fill="black"/>
<path d="M51.24 98.75H51.59V97.76H52.46V97.45H51.59V96.75H52.51V96.45H51.24V98.75Z" fill="black"/>
<path d="M41.4 60.2C41.4 60.2 41.48 60.22 41.52 60.24C41.64 60.29 41.75 60.37 41.83 60.48C41.9 60.59 41.94 60.72 41.94 60.85C41.94 61.05 41.84 61.26 41.7 61.39C41.53 61.55 41.28 61.61 41.04 61.62C40.82 61.62 40.6 61.6 40.41 61.49C40.38 61.47 40.35 61.46 40.33 61.44C40.37 61.34 40.41 61.24 40.46 61.13C40.55 61.18 40.64 61.22 40.75 61.25C40.92 61.3 41.11 61.32 41.27 61.23C41.4 61.16 41.51 61.01 41.52 60.86C41.52 60.7 41.43 60.54 41.3 60.46C41.19 60.39 41.06 60.37 40.93 60.37C40.88 60.37 40.83 60.37 40.79 60.37V60.05C40.79 60.05 40.82 60.05 40.84 60.05H40.93C41.07 60.05 41.23 60.02 41.34 59.93C41.41 59.86 41.46 59.77 41.47 59.67C41.47 59.6 41.46 59.54 41.42 59.49C41.35 59.38 41.19 59.33 41.05 59.33C40.86 59.33 40.7 59.4 40.54 59.49C40.5 59.39 40.46 59.3 40.42 59.2C40.47 59.16 40.49 59.15 40.5 59.14C40.73 58.99 41.03 58.95 41.3 59.01C41.44 59.04 41.58 59.09 41.68 59.19C41.79 59.3 41.86 59.46 41.87 59.61C41.87 59.75 41.83 59.88 41.75 59.98C41.68 60.07 41.58 60.14 41.43 60.2" fill="black"/>
<path d="M41.76 72.51C41.6 72.37 41.36 72.31 41.16 72.32C40.95 72.34 40.79 72.44 40.67 72.58C40.79 72.03 41.15 71.76 41.76 71.76V71.43C41.68 71.43 41.6 71.43 41.52 71.45C41.21 71.49 40.9 71.61 40.67 71.83C40.37 72.11 40.23 72.56 40.24 72.99C40.24 73.28 40.32 73.57 40.5 73.77C40.65 73.95 40.88 74.06 41.13 74.06C41.36 74.06 41.61 73.96 41.77 73.79C41.93 73.62 42 73.39 42 73.14C42 72.91 41.94 72.66 41.76 72.51ZM41.47 73.57C41.39 73.68 41.29 73.74 41.15 73.74C40.99 73.74 40.86 73.67 40.77 73.54C40.69 73.42 40.65 73.26 40.65 73.08C40.65 73.03 40.65 72.97 40.68 72.93C40.77 72.74 40.92 72.65 41.12 72.65C41.26 72.65 41.37 72.7 41.46 72.8C41.54 72.9 41.58 73.03 41.58 73.19C41.58 73.35 41.54 73.48 41.47 73.58V73.57Z" fill="black"/>
<path d="M41.76 84.17C41.69 84.07 41.59 83.99 41.48 83.94C41.26 83.83 40.98 83.84 40.76 83.94C40.59 84.02 40.45 84.15 40.36 84.31C40.26 84.5 40.22 84.72 40.26 84.94C40.31 85.16 40.45 85.36 40.65 85.47C40.84 85.57 41.08 85.58 41.28 85.49C41.38 85.45 41.47 85.38 41.55 85.3C41.55 85.36 41.53 85.41 41.51 85.47C41.46 85.64 41.36 85.8 41.22 85.91C41.06 86.05 40.84 86.12 40.63 86.13C40.57 86.13 40.51 86.13 40.44 86.13C40.44 86.24 40.44 86.36 40.43 86.47C40.55 86.47 40.64 86.47 40.74 86.47C41.06 86.44 41.38 86.29 41.59 86.05C41.86 85.76 41.96 85.35 41.96 84.94C41.96 84.66 41.9 84.38 41.74 84.17H41.76ZM41.54 85C41.51 85.07 41.44 85.13 41.36 85.17C41.23 85.24 41.06 85.25 40.94 85.2C40.85 85.16 40.78 85.08 40.74 84.99C40.69 84.88 40.67 84.75 40.68 84.63C40.69 84.5 40.73 84.37 40.83 84.28C40.9 84.22 41.01 84.17 41.11 84.17C41.25 84.17 41.39 84.25 41.47 84.37C41.55 84.49 41.57 84.64 41.57 84.79C41.57 84.87 41.57 84.94 41.54 85Z" fill="black"/>
<path d="M41.6499 97.66C41.6499 97.46 41.6699 97.29 41.7299 97.14C41.7999 96.95 41.9299 96.79 42.0899 96.68C42.2399 96.58 42.4099 96.53 42.5899 96.53C42.6299 96.53 42.6799 96.53 42.7199 96.53C42.8199 96.54 42.9099 96.57 42.9999 96.62H43.0099V96.64L42.9699 96.79L42.9299 96.92V96.94L42.9099 96.93C42.8499 96.9 42.7899 96.88 42.7199 96.86C42.6699 96.86 42.6299 96.85 42.5799 96.85C42.4899 96.85 42.4099 96.87 42.3399 96.9C42.2399 96.95 42.1499 97.03 42.0999 97.14C42.0399 97.24 42.0099 97.37 41.9999 97.53C41.9899 97.73 41.9999 97.89 42.0699 98.02C42.1199 98.13 42.1999 98.22 42.2999 98.27C42.3799 98.32 42.4799 98.34 42.5799 98.34C42.6199 98.34 42.6699 98.34 42.7199 98.33C42.7899 98.32 42.8599 98.3 42.9199 98.27H42.9399V98.26V98.29V98.31C42.9599 98.39 42.9799 98.46 42.9899 98.53V98.55H42.9799C42.8899 98.59 42.7899 98.61 42.6799 98.63C42.6199 98.63 42.5599 98.64 42.4999 98.64C42.3499 98.64 42.2199 98.61 42.1099 98.55C41.9599 98.47 41.8299 98.33 41.7499 98.16C41.6799 98.02 41.6499 97.84 41.6499 97.63" fill="black"/>
<path d="M40.4 98.54V98.52C40.43 98.43 40.45 98.34 40.48 98.25V98.23L40.49 98.22L40.51 98.24C40.53 98.25 40.55 98.27 40.57 98.28C40.67 98.33 40.77 98.36 40.89 98.36C41 98.36 41.07 98.33 41.12 98.28C41.17 98.23 41.2 98.15 41.2 98.08C41.2 98.03 41.2 97.97 41.17 97.93C41.14 97.88 41.1 97.84 41.03 97.8C40.98 97.77 40.94 97.75 40.89 97.73C40.86 97.72 40.83 97.7 40.8 97.69C40.65 97.62 40.55 97.52 40.49 97.41C40.45 97.33 40.42 97.23 40.42 97.12C40.42 97.01 40.45 96.9 40.5 96.8C40.55 96.71 40.62 96.64 40.71 96.59C40.8 96.54 40.91 96.51 41.05 96.51H41.06C41.15 96.51 41.22 96.52 41.29 96.54C41.35 96.56 41.41 96.59 41.46 96.62H41.47V96.63V96.65L41.43 96.76L41.39 96.89V96.92L41.38 96.93L41.36 96.91C41.27 96.86 41.17 96.83 41.05 96.83H41.03C40.96 96.83 40.86 96.84 40.81 96.91C40.78 96.95 40.76 97.01 40.77 97.08C40.77 97.15 40.79 97.22 40.82 97.26C40.86 97.32 40.93 97.35 40.99 97.38C41.04 97.4 41.08 97.42 41.12 97.44C41.21 97.49 41.33 97.56 41.41 97.67C41.48 97.77 41.52 97.91 41.52 98.04C41.52 98.21 41.46 98.37 41.36 98.49C41.22 98.65 41.02 98.68 40.87 98.68H40.86C40.69 98.68 40.53 98.63 40.38 98.54H40.37V98.53L40.4 98.54Z" fill="black"/>
<path d="M39.21 96.56H39.22H39.24H40.19H40.2H40.21V96.57V96.59V96.86V96.87V96.88H40.2H40.19H39.52V97.44H40.15H40.16H40.17V97.45V97.47V97.74V97.76H40.16H40.14H39.52V98.32H40.24H40.25H40.26V98.33V98.34V98.61V98.63V98.64H40.25H40.24H39.24H39.22H39.21V98.63V98.61V96.59V96.57V96.56Z" fill="black"/>
<path d="M29.52 96.29C28.83 96.29 28.62 96.97 28.63 97.63C28.63 98.28 28.86 98.91 29.49 98.91C30.19 98.89 30.38 98.24 30.38 97.59C30.38 96.94 30.19 96.29 29.52 96.29ZM29.51 98.59C29.18 98.59 29.06 98.12 29.05 97.62C29.04 97.12 29.14 96.61 29.5 96.6C29.85 96.6 29.95 97.08 29.96 97.58C29.96 98.07 29.87 98.57 29.51 98.59Z" fill="black"/>
<path d="M29.89 85.08C30.15 84.92 30.28 84.73 30.28 84.49C30.28 83.61 28.71 83.67 28.71 84.54C28.71 84.8 28.85 84.99 29.12 85.11C28.79 85.25 28.62 85.47 28.62 85.79C28.62 86.72 30.37 86.72 30.37 85.79C30.37 85.45 30.21 85.22 29.89 85.09V85.08ZM29.11 84.58C29.08 84.37 29.25 84.18 29.46 84.17C29.98 84.12 30.01 84.77 29.54 84.95C29.33 84.89 29.15 84.85 29.11 84.58ZM29.81 86.05C29.81 86.05 29.71 86.13 29.65 86.15C29.59 86.17 29.53 86.18 29.46 86.17C29.18 86.13 29.05 85.92 29.05 85.72C29.05 85.54 29.15 85.36 29.44 85.25C29.47 85.25 29.49 85.27 29.52 85.27C29.61 85.3 29.71 85.33 29.78 85.4C29.87 85.47 29.94 85.58 29.95 85.7C29.96 85.83 29.91 85.96 29.81 86.05Z" fill="black"/>
<path d="M29.2701 61.24H30.3301V61.59H28.6801V61.34C28.7701 61.25 28.8501 61.17 28.9401 61.08C29.1001 60.92 29.2501 60.77 29.4101 60.61C29.5401 60.48 29.6601 60.34 29.7501 60.18C29.8201 60.06 29.8601 59.92 29.8601 59.78C29.8601 59.68 29.8401 59.58 29.7901 59.5C29.7501 59.45 29.7001 59.41 29.6401 59.39C29.5601 59.35 29.4701 59.34 29.3901 59.35C29.2701 59.35 29.1401 59.39 29.0301 59.44C28.9701 59.47 28.9201 59.51 28.8601 59.55C28.8101 59.45 28.7601 59.36 28.7101 59.26C28.7401 59.23 28.7801 59.2 28.8101 59.18C29.0001 59.05 29.2501 58.99 29.4901 58.99C29.6401 58.99 29.7901 59.02 29.9101 59.1C30.0601 59.19 30.1801 59.34 30.2401 59.51C30.3101 59.74 30.2601 59.99 30.1601 60.21C30.0801 60.36 29.9801 60.5 29.8701 60.62C29.7501 60.76 29.6201 60.89 29.4901 61.01C29.4201 61.08 29.3401 61.15 29.2601 61.23" fill="black"/>
<path d="M29.2199 72.37C29.2799 72.37 29.3399 72.37 29.3999 72.37C29.6199 72.37 29.8099 72.42 29.9699 72.52C30.1899 72.66 30.2999 72.88 30.2999 73.17C30.2999 73.42 30.2099 73.63 30.0299 73.79C29.8499 73.96 29.6199 74.04 29.3299 74.04C29.0699 74.04 28.8599 73.99 28.6899 73.89C28.7199 73.78 28.7499 73.68 28.7799 73.57C28.9499 73.66 29.1199 73.71 29.3199 73.71C30.0399 73.71 30.1499 72.68 29.1699 72.68C29.0599 72.68 28.9399 72.68 28.8299 72.68C28.8799 72.27 28.9199 71.86 28.9699 71.45H30.2399V71.8H29.2699C29.2499 71.99 29.2299 72.18 29.2099 72.37" fill="black"/>
<path d="M18.45 73.04V71.47H17.97L16.91 73.03V73.34H18.05V74.02H18.46V73.34H18.77V73.04H18.46H18.45ZM18.04 73.04H17.3L18.04 71.91V73.04Z" fill="black"/>
<path d="M17.89 61.57V59.43L17.45 59.61L17.36 59.31L17.94 59.02H18.3V61.57H17.89Z" fill="black"/>
<path d="M18.21 84.24H17.01V83.89H18.65V84.17L17.63 86.45H17.16L18.21 84.24Z" fill="black"/>
<path d="M58.77 12.97H11.85C11.3916 12.97 11.02 13.3416 11.02 13.8V48.78C11.02 49.2384 11.3916 49.61 11.85 49.61H58.77C59.2284 49.61 59.6 49.2384 59.6 48.78V13.8C59.6 13.3416 59.2284 12.97 58.77 12.97Z" stroke="black" stroke-width="0.25" stroke-linecap="round" stroke-linejoin="round"/>
<path d="M99.18 95.4C99.18 94.19 98.61 93.94 97.69 93.94C96.77 93.94 96.54 94.22 96.54 94.3V94.64C96.54 94.64 96.57 94.64 96.58 94.64C97.5 94.44 98.12 94.43 98.33 94.62C98.4 94.69 98.55 94.83 98.55 95.42C98.55 96.01 98.43 96.14 98.38 96.19C98.21 96.38 97.81 96.36 97.47 96.34C97.45 96.34 97.43 96.34 97.41 96.34C97.06 96.32 97.06 96.06 97.06 95.9C97.06 95.76 97.1 95.6 97.32 95.6H98.35V95.26C98.35 95.26 98.34 95.26 98.33 95.26C98.2 95.21 97.69 95.14 97.57 95.14C96.57 95.14 96.42 95.61 96.42 95.88C96.42 96.18 96.51 96.41 96.7 96.58C97.08 96.93 97.69 96.89 97.72 96.89C98.2 96.93 98.57 96.81 98.83 96.55C99.25 96.12 99.19 95.44 99.18 95.41" fill="#898989"/>
<path d="M95.05 93.98H94.71C94.33 93.98 94.14 94.16 94.09 94.22C93.89 94.03 93.59 93.98 93.48 93.98H93.16C92.34 93.98 92.25 94.71 92.25 95.03V96.84H92.81V95.03C92.81 94.75 92.87 94.49 93.29 94.49C93.71 94.49 93.81 94.69 93.81 95.03V96.84H94.38V95.03C94.38 94.66 94.53 94.49 94.86 94.49C95.21 94.49 95.37 94.66 95.37 95.03V96.84H95.93V95.03C95.93 94.04 95.2 93.98 95.05 93.98Z" fill="#898989"/>
<path d="M90.55 96.34H90.43C89.91 96.34 89.6 96.28 89.6 95.42C89.6 94.56 89.78 94.46 90.34 94.46H90.48C91 94.46 91.11 94.54 91.11 94.93C91.11 95.13 91.02 95.21 90.82 95.21H89.84V95.62C89.84 95.62 89.86 95.62 89.87 95.62C90.06 95.65 90.41 95.68 90.69 95.68C91.09 95.68 91.76 95.58 91.76 94.94C91.76 94.1 91.1 93.92 90.55 93.92H90.46C89.39 93.92 88.99 94.32 88.99 95.4C88.99 96.48 89.4 96.86 90.39 96.86H90.47C91.1 96.86 91.63 96.69 91.63 96.5V96.16C91.63 96.16 91.6 96.16 91.59 96.17C91.22 96.27 90.94 96.32 90.56 96.32" fill="#898989"/>
<path d="M88.74 93.99C88.58 93.96 88.23 93.93 88.04 93.93C87.7 93.93 87.12 94.07 87.12 95V96.83H87.73V95.04C87.73 94.55 87.82 94.49 88.21 94.49H88.77V93.99C88.77 93.99 88.75 93.99 88.74 93.99Z" fill="#898989"/>
<path d="M85.45 93.93H85.36C84.29 93.93 83.89 94.33 83.89 95.41V96.83H84.51V95.41C84.51 94.59 84.69 94.45 85.24 94.45H85.38C85.91 94.45 86.01 94.64 86.01 95.02C86.01 95.25 85.93 95.49 85.72 95.49H84.74V95.9C84.74 95.9 84.76 95.9 84.77 95.9C84.97 95.93 85.32 95.96 85.58 95.96C86.46 95.96 86.65 95.46 86.65 95.03C86.65 94.33 86.2 93.92 85.44 93.92" fill="#898989"/>
<path d="M79.4799 95.09C79.2699 95.06 79.0499 95.04 78.8399 95.01C78.6899 94.98 78.5499 94.95 78.5499 94.79C78.5499 94.53 78.6199 94.46 79.1499 94.46H79.2799C79.5799 94.46 79.8699 94.5 80.2199 94.6C80.2299 94.6 80.2499 94.6 80.2599 94.61V94.21C80.2099 94.11 79.7299 93.94 79.2599 93.94H79.1299C78.3399 93.94 77.9499 94.23 77.9499 94.84C77.9499 95.45 78.4399 95.54 78.8899 95.62C78.9799 95.63 79.0799 95.65 79.1699 95.66C79.3799 95.69 79.5099 95.7 79.5699 95.73C79.6899 95.78 79.7599 95.81 79.7599 96.01C79.7599 96.33 79.5399 96.37 79.0799 96.37H78.9499C78.6799 96.37 78.3499 96.29 77.9899 96.15C77.9699 96.15 77.9599 96.14 77.9399 96.13V96.52C77.9399 96.68 78.4199 96.88 78.9599 96.88H79.0799C79.9599 96.88 80.3799 96.58 80.3799 95.94C80.3799 95.3 79.9199 95.17 79.4699 95.1" fill="#898989"/>
<path d="M82.73 94.05C82.73 94.63 82.73 95.22 82.73 95.8C82.73 95.91 82.73 96.09 82.63 96.18C82.56 96.25 82.46 96.28 82.31 96.28H81.84C81.76 96.28 81.63 96.28 81.54 96.19C81.46 96.11 81.42 95.98 81.42 95.8V94.05H80.84V95.81C80.84 95.99 80.88 96.86 81.71 96.86H82.48C82.79 96.86 83.32 96.72 83.32 95.81V94.05H82.73Z" fill="#898989"/>
<path d="M74.01 77.06L76.84 66.58C77.4 64.32 79.91 63.1 82.71 63.1H94.09C96.89 63.1 99.72 64.32 100.28 66.58L103.11 77.06" stroke="#B3B3B3" stroke-width="0.25"/>
<path d="M79.8101 76.15L81.2901 67.76C81.3301 67.51 81.5801 67.3 81.8401 67.3H95.2901C95.5501 67.3 95.8001 67.51 95.8401 67.76L97.3201 76.15" stroke="#808080" stroke-width="0.1"/>
<path d="M95.13 67.97L95.53 67.55" stroke="#808080" stroke-width="0.1"/>
<path d="M81.5701 67.5L82.0101 67.97" stroke="#808080" stroke-width="0.1"/>
<path d="M80.55 67.26L78.67 76.72C78.55 77.49 78.49 78.36 80.87 78.81C82.91 79.2 85.64 80.23 88.57 80.23C91.5 80.23 94.23 79.19 96.27 78.81C98.66 78.36 98.59 77.49 98.47 76.72L96.59 67.26C96.51 66.72 96.01 66.28 95.49 66.28H81.65C81.13 66.28 80.64 66.72 80.55 67.26Z" stroke="black" stroke-width="0.1"/>
<path d="M80.77 76.72H96.37L95.04 67.96H82.1L80.77 76.72Z" fill="url(#paint1_linear_1193_2)"/>
<path d="M80.77 76.72H96.37L95.04 67.96H82.1L80.77 76.72Z" stroke="black" stroke-width="0.25"/>
<path d="M79.81 76.15C79.75 76.48 80.05 76.73 80.35 76.73H96.78C97.08 76.73 97.38 76.49 97.32 76.15" stroke="black" stroke-width="0.25" stroke-linecap="round" stroke-linejoin="round"/>
<path d="M78.08 52.68H99.06C102.14 52.68 104.65 55.18 104.65 58.27V79.25C104.65 82.33 102.15 84.84 99.06 84.84H78.08C75 84.84 72.49 82.34 72.49 79.25V58.27C72.49 55.19 74.99 52.68 78.08 52.68Z" stroke="black" stroke-width="0.1" stroke-linecap="round" stroke-linejoin="round"/>
<path d="M78.08 53.38H99.06C101.75 53.38 103.94 55.57 103.94 58.26V79.24C103.94 81.94 101.75 84.12 99.06 84.12H78.08C75.38 84.12 73.2 81.93 73.2 79.24V58.26C73.2 55.56 75.39 53.38 78.08 53.38Z" stroke="#808080" stroke-width="0.1" stroke-linecap="round" stroke-linejoin="round"/>
<path d="M78.08 54.21H99.06C101.3 54.21 103.12 56.03 103.12 58.27V79.25C103.12 81.49 101.3 83.31 99.06 83.31H78.08C75.84 83.31 74.02 81.49 74.02 79.25V58.27C74.02 56.03 75.84 54.21 78.08 54.21Z" stroke="black" stroke-width="0.25" stroke-linecap="round" stroke-linejoin="round"/>
<path d="M82.3 79.52H74.72" stroke="#B3B3B3" stroke-width="0.25"/>
<path d="M102.42 79.52H94.71" stroke="#B3B3B3" stroke-width="0.25"/>
<path d="M16.47 96.61H19.2" stroke="black" stroke-width="0.17" stroke-miterlimit="10" stroke-linecap="round"/>
<path d="M16.47 97.6H19.2" stroke="black" stroke-width="0.17" stroke-miterlimit="10" stroke-linecap="round"/>
<path d="M16.47 98.59H19.2" stroke="black" stroke-width="0.17" stroke-miterlimit="10" stroke-linecap="round"/>
</g>
<defs>
<linearGradient id="paint0_linear_1193_2" x1="14.24" y1="52.35" x2="56.37" y2="10.22" gradientUnits="userSpaceOnUse">
<stop stop-color="#BFBFBF"/>
<stop offset="0.14" stop-color="#C2C2C2"/>
<stop offset="0.27" stop-color="#CECECE"/>
<stop offset="0.4" stop-color="#E0E0E0"/>
<stop offset="0.53" stop-color="#FBFBFB"/>
<stop offset="0.54" stop-color="#E0E0E0"/>
<stop offset="0.55" stop-color="#CDCDCD"/>
<stop offset="0.56" stop-color="#CCCCCC"/>
<stop offset="1" stop-color="white"/>
</linearGradient>
<linearGradient id="paint1_linear_1193_2" x1="86.83" y1="78.93" x2="91.32" y2="66.6" gradientUnits="userSpaceOnUse">
<stop stop-color="#BFBFBF"/>
<stop offset="0.14" stop-color="#C2C2C2"/>
<stop offset="0.27" stop-color="#CECECE"/>
<stop offset="0.4" stop-color="#E0E0E0"/>
<stop offset="0.53" stop-color="#FBFBFB"/>
<stop offset="0.54" stop-color="#E0E0E0"/>
<stop offset="0.55" stop-color="#CDCDCD"/>
<stop offset="0.56" stop-color="#CCCCCC"/>
<stop offset="1" stop-color="white"/>
</linearGradient>
<clipPath id="clip0_1193_2">
<rect width="113.89" height="116.58" fill="white"/>
</clipPath>
</defs>
</svg>
