<svg xmlns="http://www.w3.org/2000/svg" width="371" height="108" fill="none" viewBox="0 0 371 108"><g clip-path="url(#a)"><path fill="#fff" d="M370.85 0H0v107.46h370.85z"/><path fill="url(#b)" stroke="#000" stroke-miterlimit="10" d="M137.06 93.96H13.92l18.79-41.71h85.55z"/><path fill="gray" d="M57.28 64.01c-13.88 0-15.77 18.37 1.38 18.37h50.64l-6.02-18.37z"/><path fill="#fff" d="M150.79 13.42c-10.85 5.5-31.23 15.4-40.56 19.13-10.9 4.36-14.12 5.03-20.39 7.65-1.77.74-7.31 3.49-11.09 5.45-8.56 2.19-21.03 6.34-26.42 9.17-5.6 2.94-6.17 5.23-4.08 8.89C52.83 80.1 71.57 80.4 81.9 78.93c12.59-1.8 30.16-6.97 37.49-12.3 9.7-1.26 20.54-4.38 31.4-9.4"/><path stroke="#000" stroke-miterlimit="10" d="M150.79 13.42c-10.85 5.5-31.23 15.4-40.56 19.13-10.9 4.36-14.12 5.03-20.39 7.65-1.77.74-7.31 3.49-11.09 5.45-8.56 2.19-21.03 6.34-26.42 9.17-5.6 2.94-6.17 5.23-4.08 8.89C52.83 80.1 71.57 80.4 81.9 78.93c12.59-1.8 30.16-6.97 37.49-12.3 9.7-1.26 20.54-4.38 31.4-9.4"/><path stroke="#000" stroke-miterlimit="10" stroke-width=".6" d="M119.39 66.65c.24-1.81-.73-5.95-.73-5.95M78.75 45.67c2.52 4.87 2.31 11.48-4.25 14.55-4.55 2.13-11.91 5.23-17.73 6.27-2.59.46-6.06.05-8.52-2.76M107.67 36.13c2.83 2.16 4.86 4.91 6.16 9.83"/><path fill="url(#c)" stroke="#000" stroke-miterlimit="10" d="M336.44 93.96H213.3l18.79-41.71h85.55z"/><path fill="gray" d="M256.66 64.01c-13.88 0-15.77 18.37 1.38 18.37h50.64l-6.02-18.37z"/><path fill="#fff" d="M357.91 30.21c-11.82 2.89-33.92 7.89-43.86 9.4-11.6 1.76-14.89 1.68-21.6 2.81-1.89.32-7.91 1.74-12.04 2.79-8.83.18-21.92 1.39-27.81 2.92-6.12 1.59-7.19 3.69-5.99 7.73.73 17 18.91 21.56 29.3 22.48 12.67 1.11 30.96.08 39.31-3.44 9.73.98 20.99.4 32.72-2"/><path stroke="#000" stroke-miterlimit="10" d="M357.91 30.21c-11.82 2.89-33.92 7.89-43.86 9.4-11.6 1.76-14.89 1.68-21.6 2.81-1.89.32-7.91 1.74-12.04 2.79-8.83.18-21.92 1.39-27.81 2.92-6.12 1.59-7.19 3.69-5.99 7.73.73 17 18.91 21.56 29.3 22.48 12.67 1.11 30.96.08 39.31-3.44 9.73.98 20.99.4 32.72-2"/><path stroke="#000" stroke-miterlimit="10" stroke-width=".6" d="M315.22 74.89c.65-1.71.65-5.96.65-5.96M280.42 45.21c1.34 5.31-.36 11.71-7.46 13.21-4.91 1.04-12.79 2.39-18.69 2.07-2.63-.14-5.91-1.32-7.66-4.62M310.75 42.51c2.26 2.75 3.61 5.89 3.76 10.97"/><path fill="#9fa0a0" d="M201.12 52.87 187.4 39.75v7.77h-14.75v10.69h14.75v7.78z"/></g><defs><linearGradient id="b" x1="13.92" x2="137.06" y1="73.1" y2="73.1" gradientUnits="userSpaceOnUse"><stop stop-color="#bfbfbf"/><stop offset=".57" stop-color="#fff"/></linearGradient><linearGradient id="c" x1="213.3" x2="336.44" y1="0" y2="0" gradientUnits="userSpaceOnUse"><stop stop-color="#bfbfbf"/><stop offset=".57" stop-color="#fff"/></linearGradient><clipPath id="a"><path fill="#fff" d="M0 0h370.85v107.46H0z"/></clipPath></defs></svg>