<svg width="11" height="8" viewBox="0 0 11 8" fill="none" xmlns="http://www.w3.org/2000/svg">
<g clip-path="url(#clip0_94_2)">
<path d="M10.3765 1.19019H0.623519C0.279188 1.19019 0 0.921738 0 0.590642C0 0.259545 0.279188 -0.00891113 0.623519 -0.00891113H10.3858C10.7301 -0.00891113 11.0093 0.259545 11.0093 0.590642C11.0093 0.921738 10.7301 1.19019 10.3858 1.19019H10.3765Z" fill="black"/>
<path d="M10.3765 4.5995H0.623519C0.279188 4.5995 0 4.33104 0 3.99994C0 3.66885 0.279188 3.40039 0.623519 3.40039H10.3858C10.7301 3.40039 11.0093 3.66885 11.0093 3.99994C11.0093 4.33104 10.7301 4.5995 10.3858 4.5995H10.3765Z" fill="black"/>
<path d="M10.3765 8.00001H0.623519C0.279188 8.00001 0 7.73155 0 7.40046C0 7.06936 0.279188 6.8009 0.623519 6.8009H10.3858C10.7301 6.8009 11.0093 7.06936 11.0093 7.40046C11.0093 7.73155 10.7301 8.00001 10.3858 8.00001H10.3765Z" fill="black"/>
</g>
<defs>
<clipPath id="clip0_94_2">
<rect width="11" height="8" fill="white"/>
</clipPath>
</defs>
</svg>
