<svg xmlns="http://www.w3.org/2000/svg" width="461" height="485" fill="none" viewBox="0 0 461 485"><g clip-path="url(#a)"><path fill="#fff" d="M460.33 0H0v484.2h460.33z"/><path stroke="#000" stroke-linecap="round" stroke-linejoin="round" d="M334.94 307.38h21.73M334.94 304.89h21.73M344.53 146.13l-9.79 6.85M348.67 231.32h7.97M334.49 220.33l8.55 5.76M332.67 110.56v13.76M332.67 203.14v13.75M334.74 152.98v15.53M334.94 307.38v-2.49M338.87 209.55v-6.21M338.87 116.97v-6.21M344.53 101.24v18.01M344.53 211.97v-18.63M344.53 146.13v-9.41M344.53 211.97h-2.07M342.46 211.97l-3.59-2.42M338.87 203.34l-1.44-2.27M347.98 92.14v2.48M337.43 201.07h-2.69M356.67 304.89v-73.57"/><path stroke="#b3b3b3" stroke-linecap="round" stroke-linejoin="round" stroke-width=".5" d="M356.67 229.2v-36.11"/><path stroke="#000" stroke-linecap="round" stroke-linejoin="round" d="M356.67 191.27v-20.69"/><path stroke="#b3b3b3" stroke-linecap="round" stroke-linejoin="round" stroke-width=".5" d="M356.67 168.42v-67.78"/><path stroke="#000" stroke-linecap="round" stroke-linejoin="round" d="M356.67 99.18v-4.56M359.16 304.89V94.62M346.6 191.27h10.02M336.8 170.58h19.87M338.87 110.76l-1.44-2.27M334.49 127.75l8.21 5.54M342.25 119.25l-3.38-2.28M344.53 119.25h-2.28M337.43 108.49h-2.69M346.6 99.18h10.09M347.98 94.62h8.69M347.98 92.14h8.69M344.7 228.35c-.27-.92-.86-1.72-1.66-2.26M344.53 136.72c0-1.38-.68-2.66-1.82-3.43M332.67 216.89c0 1.38.68 2.66 1.82 3.43M344.7 228.35a4.15 4.15 0 0 0 3.97 2.97M332.67 124.32c0 1.38.68 2.66 1.82 3.43M356.67 307.38a2.48 2.48 0 0 0 2.48-2.48M359.16 94.62a2.48 2.48 0 0 0-2.48-2.48M334.74 201.07c-1.14 0-2.07.93-2.07 2.07M334.74 168.51c0 1.14.93 2.07 2.07 2.07M334.74 108.49c-1.14 0-2.07.93-2.07 2.07M346.6 99.18c-1.14 0-2.07.93-2.07 2.07M346.6 191.27c-1.14 0-2.07.93-2.07 2.07M359.57 112.42v.4M359.57 255.22v.41M359.16 257.94c.27-.74.41-1.52.41-2.3M359.57 255.22c0-.79-.14-1.57-.41-2.3M359.16 115.14c.27-.74.41-1.52.41-2.3M359.57 112.42c0-.79-.14-1.57-.41-2.3"/><path stroke="#000" stroke-linecap="round" stroke-linejoin="round" stroke-width=".5" d="M360.2 48.46v299.52"/><path stroke="#000" stroke-linecap="round" stroke-linejoin="round" d="M351.43 311.92h-11.17"/><path stroke="#b3b3b3" stroke-linecap="round" stroke-linejoin="round" stroke-width=".25" d="M351.43 310.35h-11.17"/><path stroke="#000" stroke-linecap="round" stroke-linejoin="round" d="M340.67 303.64h9.15M343.05 303.23h5.59M343.05 303.23v-.81M343.36 303.64v-.42M348.33 303.64v-.42M348.64 303.23v-.84M349.82 304.47v-.83M339.63 311.3c0 .34.28.62.62.62M351.43 311.92c.34 0 .62-.28.62-.62M339.63 311.3v-3.52M340.67 304.47v-.83M352.05 311.3v-3.52M342.74 293.01v9.37h6.21v-9.37"/><path stroke="#000" stroke-linecap="round" stroke-linejoin="round" d="M342.75 293.02c.51-1.3 1.71-2.21 3.1-2.21s2.59.91 3.1 2.21"/><path stroke="#999" stroke-linecap="round" stroke-linejoin="round" stroke-width=".5" d="M350.1 301.16c-.39.7-6.66-.07-8.07-.55M350.05 299.3c-.39.7-6.66-.07-8.07-.55M350.01 297.43c-.39.7-6.66-.07-8.07-.55M349.96 295.57c-.39.7-6.66-.07-8.07-.55M349.92 293.71c-.39.7-6.66-.07-8.07-.55"/><path fill="#231815" d="M338.72 332.45c-.98-1.11-1.51-2.4-1.53-3.75-.08-3.9 4.1-7.15 9.32-7.26s9.53 2.97 9.61 6.87c.02 1.08-.27 2.13-.88 3.11l-1.56-.97c.41-.67.61-1.38.6-2.1-.06-2.88-3.53-5.16-7.73-5.07s-7.58 2.5-7.52 5.39c.02.91.39 1.8 1.07 2.57l-1.38 1.22z"/><path fill="#231815" d="m356.98 332.27-5.6 2.89.92-6.23z"/><path stroke="#231815" stroke-miterlimit="10" stroke-width=".5" d="m348.61 388.14.01-58.28-1.83-4.13-1.99.05-2.12 4.08v58.28"/><path stroke="#231815" stroke-miterlimit="10" stroke-width=".25" d="m347.95 339.81-1.58-5.03-.01-7.86 1.58 3.22zM343.5 339.81l1.58-5.03.01-7.86-1.58 3.22z"/><path fill="#fff" d="M353.46 386.22c.42 2.61-1.76 3.55-7.83 3.55s-8.1-.92-7.83-3.55c.14-1.38 3.5-2.79 7.83-2.79s7.61 1.41 7.83 2.79"/><path stroke="#231815" stroke-miterlimit="10" stroke-width=".5" d="M353.46 386.22c.42 2.61-1.76 3.55-7.83 3.55s-8.1-.92-7.83-3.55c.14-1.38 3.5-2.79 7.83-2.79s7.61 1.41 7.83 2.79Z"/><path stroke="#9fa0a0" stroke-miterlimit="10" stroke-width=".25" d="M338.46 387.38c0-1.28 3.21-2.56 7.18-2.56s7.18 1.28 7.18 2.56"/><path fill="#fff" d="M352.2 389.38c0 1.17-2.94 2.12-6.57 2.12s-6.57-.95-6.57-2.12 2.94-2.12 6.57-2.12 6.57.95 6.57 2.12"/><path stroke="#231815" stroke-miterlimit="10" stroke-width=".5" d="M352.2 389.38c0 1.17-2.94 2.12-6.57 2.12s-6.57-.95-6.57-2.12 2.94-2.12 6.57-2.12 6.57.95 6.57 2.12Z"/><path fill="#fff" d="M337.81 393.08c0-1.6 1.27-4.02 7.83-4.02s7.83 2.41 7.83 4.02v40.15c0 1.39-3.51 2.52-7.83 2.52s-7.83-1.13-7.83-2.52z"/><path stroke="#231815" stroke-miterlimit="10" stroke-width=".5" d="M337.81 393.08c0-1.6 1.27-4.02 7.83-4.02s7.83 2.41 7.83 4.02v40.15c0 1.39-3.51 2.52-7.83 2.52s-7.83-1.13-7.83-2.52z"/><path stroke="#9fa0a0" stroke-miterlimit="10" stroke-width=".25" d="M346.88 426.54a1.25 1.25 0 0 1-2.5 0v-33.21a1.25 1.25 0 0 1 2.5 0M351.5 427.27a1.25 1.25 0 0 1-2.5 0v-33.21a1.25 1.25 0 0 1 2.5 0M342.27 427.27a1.25 1.25 0 0 1-2.5 0v-33.21a1.25 1.25 0 0 1 2.5 0"/><path fill="#fff" d="m137.45 405.47-4.26-.54-5.86-.99-5.75-1.26-4.86-2.29s-.02 0-.04-.01a.42.42 0 0 1-.14-.57l.27-.46-.35-.21-.11.18s-.06.08-.09.11c-.18.15-.45.12-.58-.07l-14.77-18.72-.77-3.34 165.64-275.7c4.8-8 12.59-13.76 21.64-16.02l69.89-17.42v227.66l-46.02 8.11-5.86 1.04a161.38 161.38 0 0 0-110.34 75.84l-12.59 20.95-12.48 3.05-12.04 1.44-11.4.07-9.12-.84z"/><path stroke="#000" stroke-linecap="round" stroke-linejoin="round" stroke-width="1.42" d="m121.57 402.68 2.93.62M116.72 400.39l4.85 2.29M116.46 399.14l.35.21h.01M100.9 380.64l14.77 18.72M100.9 380.64l-.77-3.34M100.13 377.3l165.65-275.7M311.29 303.93l46.02-8.11M357.31 295.82V68.16M357.31 68.16l-69.89 17.42M116.54 399.81c-.12.2-.05.45.14.57.01 0 .03.01.04.01M115.67 399.36c.14.18.4.21.58.07.04-.03.07-.07.09-.11M287.42 85.58a35.17 35.17 0 0 0-21.64 16.02M121.57 402.68l5.75 1.27 5.86.98 4.26.55M157.97 406.25l12.04-1.44M146.58 406.31l11.39-.06M137.45 405.47l9.12.84h.01M170.01 404.81l12.48-3.05M305.43 304.97l5.86-1.04M137.57 405.28l-.12.19M137.45 405.47l-.01.01M182.49 401.76l12.6-20.96M305.43 304.97a161.38 161.38 0 0 0-110.34 75.84"/><path stroke="#b3b3b3" stroke-linecap="round" stroke-linejoin="round" d="m200.46 317.13 9.45 9.56 8.36 8.87 7.35 8.25M281.59 138.81 267.61 275.7M266.86 104.81l9.09 27.4M277.12 133.64l3.71 2.25M135.97 380.47l4.67 1.41 4.64 1.27 4.58 1.11M130.48 377.4l3.95 2.39M112.98 361.27l16.15 15.18M144.58 365.84l4.41 2 4.36 1.86 4.29 1.72M150.85 384.48l14.42 2.83 12.95 1.62 11.73.41M158.77 371.81l10.36 3.15 9.36 2.57 8.56 2.05 7.85 1.52"/><path stroke="#000" stroke-linecap="round" stroke-linejoin="round" stroke-width=".71" d="m121.57 402.69 2.93.61"/><path stroke="#000" stroke-linecap="round" stroke-linejoin="round" d="m116.72 400.4 4.85 2.29"/><path stroke="#000" stroke-linecap="round" stroke-linejoin="round" stroke-width=".25" d="m116.46 399.14.36.21"/><path stroke="#000" stroke-linecap="round" stroke-linejoin="round" d="m100.9 380.64 14.77 18.72"/><path stroke="#b3b3b3" stroke-linecap="round" stroke-linejoin="round" stroke-width=".5" d="m129.53 376.69-.4-.24"/><path stroke="#000" stroke-linecap="round" stroke-linejoin="round" stroke-width=".5" d="m176.82 396.15.17.11.46.49.2.56-.03.58-.21.6-.35.58-.47.54-.56.52-.64.49-.7.44-.73.4"/><path stroke="#000" stroke-linecap="round" stroke-linejoin="round" d="m100.9 380.64-.77-3.34"/><path stroke="#000" stroke-linecap="round" stroke-linejoin="round" stroke-width=".5" d="m165.04 403-.42-.61.19-.83.73-1.05 1.21-1.18 1.64-1.22M276.82 92.22l2.56-1.63 2.71-1.38 2.82-1.14 2.92-.87M100.9 380.64l.08-.16.24-.46.4-.73.55-1 .7-1.26.83-1.5.97-1.71 1.07-1.91 1.18-2.07 1.25-2.2 1.32-2.31 1.37-2.39 1.39-2.4M112.25 360.54l.09-.16.1-.16"/><path stroke="#000" stroke-linecap="round" stroke-linejoin="round" d="m100.13 377.3 165.65-275.7"/><path stroke="#000" stroke-linecap="round" stroke-linejoin="round" stroke-width=".5" d="m267.28 102.5 1.95-2.93 2.26-2.71 2.54-2.46 2.79-2.18"/><path stroke="#000" stroke-linecap="round" stroke-linejoin="round" d="m311.29 303.93 46.02-8.11"/><path stroke="#000" stroke-linecap="round" stroke-linejoin="round" stroke-width=".5" d="m266.77 103.36.25-.43.26-.43M112.44 360.22l154.33-256.86"/><path stroke="#000" stroke-linecap="round" stroke-linejoin="round" d="m281.58 136.37 1.46-1.92 1.71-1.49 1.87-1.06 1.9-.68"/><path stroke="#000" stroke-linecap="round" stroke-linejoin="round" stroke-width=".5" d="m357.31 258.49-16.42 2.9-15.75 2.75-15.52 2.72M239.33 289.6l-1.12-.76M238.21 288.84l-1.29-1.05-1.08-1.07-.86-1.1-.65-1.1-.46-1.11-.23-1.08v-1.04l.24-.95.42-.77"/><path stroke="#000" stroke-linecap="round" stroke-linejoin="round" stroke-width=".25" d="M276.26 133.17 116.35 399.32M276.62 133.39 116.54 399.81"/><path stroke="#000" stroke-linecap="round" stroke-linejoin="round" d="m121.57 402.69 160.02-266.32"/><path stroke="#000" stroke-linecap="round" stroke-linejoin="round" stroke-width=".5" d="m247.48 280.44 1.63 1.03 1.84 1.37M250.95 282.84l1.25 1.1 1.03 1.09.83 1.11.61 1.12M234.3 279.57l.56-.6.76-.52.89-.38 1.02-.23 1.13-.1 1.22.05 1.31.19 1.4.34 1.49.5 1.59.67 1.81.95M254.95 289.43l.03-1.07-.31-1.1M254.95 289.43l-.43 1.04-.77.79M253.75 291.26l-1.13.64-1.41.42-1.52.2-1.67-.01-1.77-.22-1.87-.44-1.98-.68-2.06-.99-1.01-.58M238.21 288.84l-5.96 3.24-5.86 3.51-5.68 3.77-5.47 3.99-5.24 4.22-5.05 4.42-4.91 4.67"/><path stroke="#000" stroke-linecap="round" stroke-linejoin="round" stroke-width=".5" d="m253.91 281.87-1 .29-.99.33-.97.35"/><path stroke="#b3b3b3" stroke-linecap="round" stroke-linejoin="round" d="m319.32 124.93-3.69 47.29-3.65 46.73-3.64 46.37"/><path stroke="#000" stroke-linecap="round" stroke-linejoin="round" stroke-width=".5" d="m168.39 398.11 1.98-1.13 1.87-.75 1.62-.39 1.35-.09 1.04.16.57.24M173.96 401.46l-2.24.94-2.25.61-2.01.3-1.52-.03-.9-.28"/><path stroke="#000" stroke-linecap="round" stroke-linejoin="round" d="m288.53 131.24 68.78-17.15"/><path stroke="#000" stroke-linecap="round" stroke-linejoin="round" stroke-width=".25" d="m357.31 108.12-70.19 17.49M357.31 107.69l-70.29 17.52"/><path stroke="#000" stroke-linecap="round" stroke-linejoin="round" d="M357.31 295.82V68.16"/><path stroke="#000" stroke-linecap="round" stroke-linejoin="round" stroke-width=".5" d="m287.86 87.2 69.45-17.32"/><path stroke="#000" stroke-linecap="round" stroke-linejoin="round" stroke-width=".25" d="M287.83 87.2h.03"/><path stroke="#000" stroke-linecap="round" stroke-linejoin="round" d="m357.31 68.16-69.89 17.42"/><path stroke="#000" stroke-linecap="round" stroke-linejoin="round" stroke-width=".5" d="M116.54 399.81c-.12.2-.05.45.14.57.01 0 .02.01.04.02"/><path stroke="#000" stroke-linecap="round" stroke-linejoin="round" stroke-width=".85" d="M115.67 399.36a.413.413 0 0 0 .68-.04"/><path stroke="#000" stroke-linecap="round" stroke-linejoin="round" d="M287.42 85.58a35.22 35.22 0 0 0-21.65 16.02"/><path stroke="#000" stroke-linecap="round" stroke-linejoin="round" stroke-width=".25" d="M287.02 125.21c-4.5 1.12-8.37 3.99-10.76 7.96"/><path stroke="#000" stroke-linecap="round" stroke-linejoin="round" stroke-width=".25" d="M287.12 125.61c-4.39 1.1-8.17 3.89-10.5 7.77"/><path stroke="#000" stroke-linecap="round" stroke-linejoin="round" d="m121.57 402.69 5.76 1.26 5.85.99 4.27.54M157.97 406.25l12.04-1.44M146.57 406.31l11.4-.06M137.45 405.47l9.12.84M170.01 404.81l12.48-3.05M305.42 304.96l5.87-1.03"/><path stroke="#000" stroke-linecap="round" stroke-linejoin="round" stroke-width=".5" d="m303.92 267.88-9.94 2.03-9.83 2.35-10.25 2.86M306.81 267.36l-.97.17-.96.17-.96.18M309.62 266.86l-2.81.5M137.56 405.28l-.11.19v.01M163.8 362.56l-26.24 42.72M165.72 359.48l-.63 1.01-.64 1.02-.65 1.05M137.45 405.47v.01M200.04 316.66l-5.22 5.38-4.52 4.92-3.92 4.5-3.47 4.17-3.16 3.96-2.98 3.89-2.87 3.91-2.8 3.98-2.73 4.03-2.65 4.08"/><path stroke="#b3b3b3" stroke-linecap="round" stroke-linejoin="round" d="m267.61 278.46 1.39 12.9.68 11.92-.05 11.23"/><path stroke="#000" stroke-linecap="round" stroke-linejoin="round" d="m182.49 401.76 12.59-20.96"/><path stroke="#000" stroke-linecap="round" stroke-linejoin="round" stroke-width=".5" d="m267.61 277.07-4.66 1.55-4.64 1.62-4.4 1.63M273.9 275.12l-1.81.56-1.65.48-1.5.42-1.33.49"/><path stroke="#b3b3b3" stroke-linecap="round" stroke-linejoin="round" d="m308.34 268.4.82 9.62.55 8.86.28 8.38-.02 7.35"/><path stroke="#000" stroke-linecap="round" stroke-linejoin="round" d="M305.42 304.96a161.45 161.45 0 0 0-110.34 75.84"/></g><defs><clipPath id="a"><path fill="#fff" d="M0 0h460.33v484.2H0z"/></clipPath></defs></svg>