<svg xmlns="http://www.w3.org/2000/svg" width="115" height="186" fill="none" viewBox="0 0 115 186"><g clip-path="url(#a)"><path fill="#fff" d="M114.39 0H0v185.12h114.39z"/><path stroke="#231815" stroke-linecap="round" stroke-linejoin="round" stroke-width=".5" d="M46.65 71.95a3.06 3.06 0 1 0-6.12 0 3.06 3.06 0 0 0 6.12 0"/><path stroke="#231815" stroke-linecap="round" stroke-linejoin="round" stroke-width=".5" d="M47.84 71.95c0-2.35-1.9-4.25-4.25-4.25s-4.25 1.9-4.25 4.25 1.9 4.25 4.25 4.25 4.25-1.9 4.25-4.25M14.67 24.41l.12 1.45M14.79 25.86l3.26 56.66M14.67 24.41l.12-1.45M14.79 22.96 17.07 15M53.32 68.55l-.04 14.11M78.33 81l-1.4-14.07M67.44 79.6l-.91-10.37M72.59 82.54l.26-2.94"/><circle cx="60.43" cy="82.66" r=".25" fill="#231815"/><path stroke="#231815" stroke-linecap="round" stroke-linejoin="round" stroke-width=".5" d="m99.71 24.41-.12-1.45M99.59 25.86l-3.25 56.66M99.71 24.41l-.12 1.45M99.59 22.96 97.32 15M53.58 83h42.25M18.56 83h15.08M82.09 81.3H72.7M53.29 80.45H33.92M62.18 79.6h10.67M77.89 66.93H60.75M99.71 24.41H14.67M96.83 14.63H17.56M18.05 82.52c.02.27.24.48.51.48M17.56 14.63c-.23 0-.43.15-.49.37M72.08 83c.26 0 .49-.2.51-.47M64.88 67.09s-.05-.01-.07-.02M64.81 67.07s-.03 0-.05-.01M64.76 67.06c-.07-.02-.15-.03-.22-.05M64.54 67.01l-.16-.03M64.38 66.98s-.31-.05-.34-.05M66.53 69.2c-.03-.25-.08-.49-.17-.73M66.36 68.47c-.18-.47-.47-.88-.85-1.2M66.53 69.23v-.04M95.83 83c.27 0 .49-.21.51-.48M78.33 81c.02.17.16.31.34.31M97.32 15a.504.504 0 0 0-.49-.37M62.18 79.6l-.05-.01-.06-.01-.05-.01-.05-.02-.05-.01-.05-.02-.05-.02-.05-.02-.05-.02-.05-.03-.05-.02-.04-.03-.05-.03-.05-.03-.04-.03-.04-.03-.05-.04-.03-.03-.04-.04-.04-.04-.04-.04-.04-.04-.03-.04-.03-.04-.04-.05-.03-.04-.02-.04-.03-.05-.03-.05-.02-.05-.03-.04-.02-.05-.02-.05-.02-.06-.01-.05-.02-.05-.01-.05-.01-.06-.01-.05-.01-.05-.01-.05v-.06l-.01-.05V66.93M80.59 66.57h-.01l-.04.02-.05.01-.04.01-.05.02-.04.01-.05.01-.05.02-.05.01-.05.01-.05.01M80.11 66.7l-.14.03-.13.02-.14.03-.14.02-.14.02-.13.02-.14.02-.14.01-.14.02-.14.01-.14.01-.13.01h-.15l-.14.01h-.28M81.15 66.23l-.01.01-.01.02-.01.01-.02.02-.01.02h-.01l-.02.02-.02.02-.03.02-.03.02-.01.01-.04.02-.04.02-.04.02-.04.02-.05.02-.05.03-.06.02-.06.02M81.59 65.42l-.04.08-.04.08-.05.08-.04.08-.05.08-.04.08-.04.08-.05.09-.04.08-.05.08M60.39 65.42h21.2M33.59 83h.07l.02-.01.02-.01h.03l.02-.01.02-.01.01-.02.02-.01.02-.01.01-.02.02-.01.01-.02.02-.02.01-.02.01-.02.01-.02v-.02h.01v-.02l.01-.02v-.07M53.62 83h-.06l-.03-.01-.02-.01h-.02l-.02-.01-.02-.01-.02-.02-.02-.01-.01-.01-.02-.02-.01-.01-.02-.02-.01-.02-.01-.02-.01-.02-.01-.02-.01-.02-.01-.02v-.02l-.01-.03v-.04M33.93 82.5l-.01-1.39v-1.4l-.01-1.39v-1.4l-.01-1.4v-2.79l-.01-1.39v-1.4l-.01-1.39M33.93 82.66v-.16"/><path stroke="#231815" stroke-linecap="round" stroke-linejoin="round" stroke-width=".5" d="m33.88 68.55.01-.19v-.18l.02-.18.02-.16.02-.18.04-.18.03-.16.04-.18.05-.17.06-.18.06-.17.06-.17.08-.17.07-.16.09-.17.09-.16.06-.11.1-.15.1-.15.11-.15.12-.15.11-.14.13-.14.12-.13.13-.12.14-.13.14-.11.14-.12.15-.11.15-.1.16-.1.11-.07.16-.09.16-.08.17-.08.16-.08.17-.06.17-.07.18-.05.18-.05.17-.05.16-.03.18-.03.18-.03.15-.02.19-.01.18-.01.18-.01M39.33 63.06h3.41l.85-.01h4.25M47.84 63.05h.18l.19.01.18.02.16.01.18.03.18.03.16.04.18.04.18.05.17.06.17.06.17.07.17.07.17.08.16.08.16.09.12.07.15.1.16.11.14.11.15.11.14.12.14.12.13.13.12.13.13.14.11.14.12.14.11.15.1.16.1.15.07.11.09.17.08.16.08.17.07.17.07.17.06.17.06.17.05.18.04.18.03.16.03.18.03.18.02.15.01.19.01.18v.19M60.33 82.66v.06l-.01.02v.03l-.01.02-.01.02-.01.02-.01.02-.02.02-.01.02-.01.01-.02.02-.02.01-.01.01-.02.01-.02.01-.02.01-.02.01h-.01l-.02.01-.02.01h-.07M60.06 65.78v-.09l.01-.02.01-.02v-.02l.01-.01v-.02l.02-.02.01-.02.01-.01.01-.02.02-.01.01-.02.01-.01.02-.01.02-.01.02-.01.01-.01.02-.01.02-.01h.05l.01-.01h.04M64.88 67.09l.03.01.07.01.06.02.03.01.06.01.07.02.06.02.06.02.06.02.07.02.06.01M81.59 65.42l.03.01h.04l.02.01h.03l.02.01.02.01.01.01.02.01.02.02.02.01.01.02.01.01.02.02.01.02.01.02.01.02.01.02.01.01v.02M81.91 65.67l.01.01v.05l.01.01v.04M82.1 82.67v.04l.01.02v.02l.01.02v.01l.01.02.01.02.01.02.01.01.01.02.02.02.01.01.02.02.01.01.02.01.02.02.02.01.02.01h.02l.03.01.02.01h.06M60.33 82.66l-.02-1.69-.03-1.69-.03-1.69-.03-1.69-.02-1.68-.03-1.69-.03-1.69-.03-1.69-.02-1.69-.03-1.68M81.93 65.78l.01 1.68.02 1.69.02 1.69.02 1.69.01 1.69.02 1.69.02 1.69.02 1.69.01 1.69.02 1.69M35.43 36.67l.01-1.97M78.91 50.77l-.12.98M31.29 37.3l.14-.08M31.48 54.17l-.19-.11M75.45 54.66l-.45.03M75 36.67l.63.05M32.22 54.5c.39.13.8.19 1.21.19M31.48 54.17c.23.13.48.24.74.33M33.43 36.67c-.17 0-.33.01-.5.03M32.93 36.7c-.53.07-1.05.25-1.51.52M36.29 33.85l17.49.03M75.45 54.66a3.92 3.92 0 0 0 3.34-2.91M78.9 40.57c0-1.91-1.39-3.54-3.27-3.85M31.29 54.06 31.2 54l-.09-.07-.09-.06-.08-.07-.08-.07-.08-.07-.08-.08-.08-.07-.07-.08-.07-.08-.07-.08-.07-.09-.07-.08-.06-.09-.06-.09-.06-.09-.05-.1-.06-.09-.05-.1-.04-.09-.05-.1-.04-.1-.04-.1-.04-.1-.03-.11-.03-.1-.03-.1-.02-.11-.03-.1-.02-.11-.01-.11-.02-.11-.01-.1v-.11l-.01-.11v-.11M29.52 40.57v-.11l.01-.11v-.1l.02-.11.01-.11.02-.11.01-.1.03-.11.02-.1.03-.1.03-.11.03-.1.04-.1.04-.1.04-.1.05-.1.04-.09.05-.1.06-.09.05-.1.06-.09.06-.08.06-.09.06-.09.07-.08.07-.08.07-.08.08-.08.07-.08.08-.07.08-.07.08-.07.09-.07.08-.06.09-.07.09-.06M75 54.69h-2.08l-4.16-.01H43.82l-2.07.01h-8.32M53.78 33.88h.11l.03.01h.02l.04.01.03.01.03.01.04.01.03.01.03.01.03.02.03.02.03.01.03.02.02.01.03.03.02.02.03.02.02.02.03.03.02.03.02.02.02.02.02.03.01.03.02.03.02.03.01.03.02.03.01.03.01.03.01.04.01.03.01.04v.02l.01.03v.1M35.44 34.7v-.11l.01-.03v-.02l.01-.04.01-.03.01-.03.01-.04.01-.03.02-.03.01-.03.02-.03.02-.03.02-.03.02-.03.01-.01.02-.03.02-.03.03-.02.02-.03.03-.02.03-.02.02-.02.02-.01.03-.02.03-.02.03-.02.03-.01.03-.02.04-.01.03-.01.03-.01.04-.01h.03l.02-.01h.04l.03-.01h.07"/><path stroke="#231815" stroke-linecap="round" stroke-linejoin="round" stroke-width=".5" d="M54.63 34.72v.2l.01.19v1.57M78.9 40.57l.01 1.02v9.18M29.51 50.77v-4.08l.01-1.02v-5.1M33.43 36.67h2M54.64 36.68h10.18l2.04-.01H75M34.59 36.67l-.01-1.2M55.44 35.47v1.21M64.05 29.77c-10.77 0-21.54 0-32.31.04M30.68 34.81h.86M31.73 29.8c-.05 0-.11 0-.16.01M34.58 35.47c0-.35-.29-.64-.64-.64M56.05 34.86c-.34 0-.61.27-.61.61M64.05 29.77c.29 0 .57.12.78.33m0-.01c.21.21.32.49.32.78M33.94 34.83l-.24-.01h-2.16"/><path stroke="#231815" stroke-linecap="round" stroke-linejoin="round" stroke-width=".5" d="M30.67 30.87v-.07l.01-.04v-.04l.01-.03v-.04l.01-.04.01-.04.01-.03.02-.04.01-.04.02-.03.01-.04.02-.03.02-.03.01-.03.03-.03.02-.03.02-.03.03-.03.02-.03.03-.03.03-.03.02-.02.03-.02.03-.03.03-.02.03-.02.03-.02.04-.02.03-.02.03-.02.04-.01.04-.02.03-.01.03-.01.04-.01.04-.01.03-.01.04-.01M65.15 30.87v1.2l-.01.4v2.38M65.14 34.85h-.91l-.91.01h-7.27M30.68 34.81v-2.36l-.01-.39v-1.19M21.75 83.01c.13.97.96 1.7 1.94 1.7M90.7 84.7c.98 0 1.81-.73 1.94-1.7"/><path fill="#fff" d="M51.24 69.31c0-1.83-1.49-3.32-3.32-3.32h-8.67c-1.83 0-3.32 1.49-3.32 3.32v15.48h15.31z"/><path stroke="#231815" stroke-linecap="round" stroke-linejoin="round" stroke-width=".5" d="M51.24 84.7V69.4M51.24 69.4c0-1.88-1.52-3.4-3.4-3.4M35.93 84.7V69.4M39.33 65.99h8.51M39.33 65.99c-1.88 0-3.4 1.52-3.4 3.4M23.69 84.7H90.7"/><path stroke="#040000" stroke-miterlimit="2" stroke-width=".5" d="M46.14 71.95c0-1.41-1.14-2.55-2.55-2.55s-2.55 1.14-2.55 2.55 1.14 2.55 2.55 2.55 2.55-1.14 2.55-2.55Z"/><path fill="#fff" d="M45.92 71.36h-4.57v6.19h4.57z"/><path stroke="#000" stroke-linecap="round" stroke-linejoin="round" stroke-width=".5" d="M45.92 76.2v-4.84M41.35 71.36v4.76"/><path fill="#fff" d="m38.57 78.02-.07 1.71v.38l.03.24s.08.38.18.57.35.73 1.04 1.28 1.71 1.01 2.99 1.19 2.27-.02 2.49-.06.63-.13.98-.27.48-.18.93-.45.84-.66.96-.81.28-.34.45-.76.16-.81.16-.81l.06-1.26.02-.68s-.01-.27-.1-.57c0 0-.14-.46-.38-.78 0 0-.26-.38-.65-.71s-.93-.65-1.53-.89-1.3-.41-2.23-.47-1.85.12-2.24.21-1.07.32-1.77.79c0 0-.39.29-.72.65 0 0-.29.33-.44.72 0 0-.16.42-.18.79z"/><path stroke="#000" stroke-linecap="round" stroke-linejoin="round" stroke-width=".5" d="M43.87 77.86c.09.04.19.07.28.1.28.1.56.19.84.28M42.92 79.66l.24-.42c.25-.45.49-.91.71-1.37M40.69 78.65a20.788 20.788 0 0 0 2.23 1.01M39.75 80.12c.08-.11.16-.22.23-.33.25-.37.48-.75.71-1.13M41.06 82.26c.08-.08.15-.16.23-.25.25-.28.48-.58.7-.89M44.99 78.24c.09.03.19.06.28.08.28.08.56.15.84.22M45.17 80.33l.57.12c.56.11 1.12.19 1.69.23M43.3 82.94c-.09-.02-.19-.04-.28-.07-.28-.07-.57-.15-.84-.23M44.23 81.8c-.08.11-.16.21-.23.32-.22.28-.44.56-.69.82M46.49 82.15c-.19-.01-.37-.03-.56-.05-.57-.07-1.14-.17-1.7-.3"/><path stroke="#000" stroke-linecap="round" stroke-linejoin="round" stroke-width=".5" d="M47.43 80.68c-.08.13-.16.27-.24.4-.22.36-.45.72-.7 1.07M42.18 82.64c-.09-.03-.19-.06-.28-.09-.28-.09-.56-.19-.84-.29M46.12 78.54c-.08.16-.16.32-.24.47q-.345.675-.72 1.32M41.98 81.12c-.19-.07-.38-.15-.57-.22-.57-.23-1.12-.5-1.67-.78M38.49 79.85l.08-1.83M48.71 80.31l.09-1.83M41.63 83.15c-.45-.14-.9-.32-1.31-.56-.37-.22-.72-.47-1.02-.79-.26-.28-.48-.59-.63-.94a2.2 2.2 0 0 1-.18-1.01M48.79 78.49c0-.17 0-.34-.03-.51s-.08-.34-.15-.5c-.15-.35-.37-.67-.63-.95-.3-.31-.65-.57-1.02-.79-.41-.24-.85-.42-1.31-.56"/><path stroke="#000" stroke-linecap="round" stroke-linejoin="round" stroke-width=".5" d="M41.63 83.15c.39.12.78.2 1.18.25s.82.07 1.24.06.81-.06 1.21-.14.75-.18 1.11-.33c.33-.13.65-.3.95-.5.27-.18.52-.39.73-.64.19-.22.36-.47.47-.74.11-.25.17-.53.19-.8M38.57 78.02c.01-.27.08-.55.19-.8.12-.27.28-.52.47-.74.21-.24.46-.46.73-.64.3-.2.62-.37.95-.5q.54-.21 1.11-.33c.4-.08.8-.13 1.21-.14s.83 0 1.24.06.8.13 1.18.25M38.49 79.85c.01-.27.08-.55.19-.8.11-.27.28-.52.47-.74.21-.25.46-.46.73-.64.3-.2.62-.37.95-.5q.54-.21 1.11-.33c.4-.08.8-.13 1.21-.14s.83 0 1.24.06.8.13 1.18.25M48.71 80.31c0-.17 0-.34-.03-.51s-.08-.34-.15-.5c-.15-.35-.37-.67-.63-.94-.3-.31-.65-.57-1.02-.79-.41-.24-.85-.42-1.31-.56M38.49 79.85l.08-1.83M48.71 80.31l.09-1.83M41.63 83.15c-.45-.14-.9-.32-1.31-.56-.37-.22-.72-.47-1.02-.79-.26-.28-.48-.59-.63-.94a2.2 2.2 0 0 1-.18-1.01M48.79 78.49c0-.17 0-.34-.03-.51s-.08-.34-.15-.5c-.15-.35-.37-.67-.63-.95-.3-.31-.65-.57-1.02-.79-.41-.24-.85-.42-1.31-.56"/><path stroke="#000" stroke-linecap="round" stroke-linejoin="round" stroke-width=".5" d="M41.63 83.15c.39.12.78.2 1.18.25s.82.07 1.24.06.81-.06 1.21-.14.75-.18 1.11-.33c.33-.13.65-.3.95-.5.27-.18.52-.39.73-.64.19-.22.36-.47.47-.74.11-.25.17-.53.19-.8M38.57 78.02c.01-.27.08-.55.19-.8.12-.27.28-.52.47-.74.21-.24.46-.46.73-.64.3-.2.62-.37.95-.5q.54-.21 1.11-.33c.4-.08.8-.13 1.21-.14s.83 0 1.24.06.8.13 1.18.25"/><path fill="#fff" d="m41.48 133.33.02-38.34 1.51-2.91 1.42-.04 1.3 2.95-.02 38.19s2.57.46 3.59 1.98c0 0 .23 1.45-1.13 1.93 0 0 .21.24-.12 1.04 0 0 1.05.59 1.08 1.55v29.14s-.95 1.82-5.93 1.62c0 0-4.67.05-5.2-1.79v-28.92s.11-1.15 1.19-1.64c0 0-.52-.46-.37-1.06 0 0-1.13-.74-.72-2.19 0 0 .82-1.23 3.38-1.52z"/><path fill="#8b1e33" d="M38.17 96.84c-.7-.79-1.07-1.71-1.09-2.67-.06-2.78 2.92-5.1 6.64-5.17 3.72-.08 6.79 2.12 6.84 4.9.02.77-.19 1.52-.62 2.21l-1.11-.69c.29-.48.44-.98.43-1.5-.04-2.05-2.51-3.68-5.51-3.61-3 .06-5.4 1.78-5.36 3.84.01.65.28 1.28.77 1.83l-.98.87z"/><path fill="#8b1e33" d="m51.18 96.71-3.99 2.06.66-4.44z"/><path stroke="#231815" stroke-miterlimit="10" d="m45.71 136.53.02-41.54-1.31-2.95-1.41.04-1.51 2.91-.02 41.53"/><path stroke="#231815" stroke-linecap="round" stroke-linejoin="round" stroke-width=".25" d="m45.05 102.31-1.13-3.59v-5.6l1.12 2.3zM42.18 102.31l1.13-3.59.01-5.6-1.13 2.29z"/><path fill="#fff" d="M49.16 135.16c.3 1.86-1.26 2.53-5.58 2.53-4.33 0-5.77-.66-5.58-2.53.1-.99 2.5-1.99 5.58-1.99s5.42 1.01 5.58 1.99"/><path stroke="#231815" stroke-miterlimit="10" d="M49.16 135.16c.3 1.86-1.26 2.53-5.58 2.53-4.33 0-5.77-.66-5.58-2.53.1-.99 2.5-1.99 5.58-1.99s5.42 1.01 5.58 1.99Z"/><path stroke="#9fa0a0" stroke-linecap="round" stroke-linejoin="round" stroke-width=".25" d="M38.47 135.98c0-.91 2.29-1.82 5.12-1.82 2.82 0 5.12.91 5.12 1.82"/><path fill="#fff" d="M48.27 137.4c0 .83-2.1 1.51-4.68 1.51s-4.68-.68-4.68-1.51 2.1-1.51 4.68-1.51c2.59 0 4.68.68 4.68 1.51"/><path stroke="#231815" stroke-miterlimit="10" d="M48.27 137.4c0 .83-2.1 1.51-4.68 1.51s-4.68-.68-4.68-1.51 2.1-1.51 4.68-1.51c2.59 0 4.68.68 4.68 1.51Z"/><path fill="#fff" d="M38.01 140.04c0-1.14.91-2.86 5.58-2.86s5.58 1.72 5.58 2.87v28.61c-.01.99-2.51 1.8-5.59 1.79-3.08 0-5.58-.81-5.58-1.8v-28.61z"/><path stroke="#231815" stroke-miterlimit="10" d="M38.01 140.04c0-1.14.91-2.86 5.58-2.86s5.58 1.72 5.58 2.87v28.61c-.01.99-2.51 1.8-5.59 1.79-3.08 0-5.58-.81-5.58-1.8v-28.61z"/><path stroke="#9fa0a0" stroke-linecap="round" stroke-linejoin="round" stroke-width=".25" d="M44.47 163.89c0 .49-.4.89-.89.89s-.89-.4-.89-.89v-23.66a.9.9 0 0 1 .9-.89c.49 0 .89.4.89.89M47.75 164.41c0 .49-.4.89-.89.89s-.89-.4-.89-.89v-23.66a.9.9 0 0 1 .9-.89c.49 0 .89.4.89.89M41.18 164.41c0 .49-.4.89-.89.89s-.89-.4-.89-.89v-23.66a.9.9 0 0 1 .9-.89c.49 0 .89.4.89.89"/><path stroke="#231815" stroke-linecap="round" stroke-linejoin="round" d="m14.67 24.45.12 1.45M14.79 25.9l3.26 56.66M14.67 24.45l.12-1.44M14.79 23.01l2.28-7.97M99.71 24.45l-.12-1.44M99.59 25.9l-3.25 56.66M99.71 24.45l-.12 1.45M99.59 23.01l-2.27-7.97M96.83 14.67H17.56M18.05 82.56c.02.27.24.48.51.48h3.19M17.56 14.67c-.23 0-.43.15-.49.37M96.34 82.56c-.02.27-.24.48-.51.48h-3.2M97.32 15.04a.504.504 0 0 0-.49-.37M21.75 83.05c.13.97.96 1.7 1.94 1.7M90.7 84.75c.98 0 1.81-.73 1.94-1.7M23.69 84.75H90.7"/></g><defs><clipPath id="a"><path fill="#fff" d="M0 0h114.39v185.12H0z"/></clipPath></defs></svg>