<svg width="483" height="348" viewBox="0 0 483 348" fill="none" xmlns="http://www.w3.org/2000/svg">
<g clip-path="url(#clip0_483_13173)">
<path d="M483 0H0V348H483V0Z" fill="white"/>
<path d="M282.78 208.63C282.78 208.63 281.85 208.57 280.68 208.33C279.51 208.09 279.5 206.57 279.5 206.57L279.01 190.1L281.4 189.67L278.35 122.05C278.35 122.05 274.4 121.14 272.35 120.9C270.3 120.66 270.53 120.26 269.94 120.11C269.44 119.98 268.71 118.74 268.51 118.38C268.53 118.17 268.52 117.51 268.45 115.69C268.3 111.88 265.41 111 265.41 111L174.23 89.2901C174.23 89.2901 172.89 88.9901 171.45 89.7201C170.01 90.4401 169.79 91.8501 169.79 91.8501V95.5701C169.79 95.8401 169.34 95.8801 169.34 95.8801C169.34 95.8801 164.14 94.7501 162.79 94.4701C161.44 94.1901 159.63 94.4401 159.63 94.4401L150.74 95.8001C149.74 95.9501 149.65 97.7901 149.65 97.7901C149.65 97.7901 150.23 114 150.26 114.71C150.29 115.43 149.51 115.34 149.51 115.34L147.68 114.19L147.51 108.97C147.51 108.97 146.73 105.92 146.21 105.46C145.69 105 144.47 104.95 144.47 104.95C144.47 104.95 142.7 104.98 141.77 105.34C140.84 105.7 140.98 107 140.98 107L141.59 122.82L141.84 123.79C141.84 123.79 149.02 128.15 149.98 128.71C150.94 129.27 151.2 130.37 151.2 130.37C151.2 130.37 152.66 159.18 152.76 160.68C152.86 162.18 153.24 162.45 153.24 162.45L155.4 163.06C155.4 163.06 162.63 161.45 164.17 161.46C165.71 161.46 166.64 163.09 166.64 163.09L167.31 180.23L167.16 180.69L164.51 180.53C164.51 180.53 157.13 182.04 155.54 182.36C153.95 182.68 153.97 184.13 153.97 184.13L154.56 202.4H153.96L151.62 201.02L150.93 192.47L150.45 191.84L149.3 191.21C149.3 191.21 148.71 190.39 147.05 191.07C145.39 191.75 145.46 193.69 145.46 193.69C145.46 193.69 145.82 207.81 145.95 208.99C146.08 210.17 146.73 210.45 146.73 210.45C146.73 210.45 153.93 215.18 155.23 216.14C156.53 217.1 156.65 218.85 156.65 218.85L158.11 219.6L166.57 218.52C171.12 218.49 172.39 222.23 172.39 222.23L191.28 285.06C191.28 285.06 232.21 294.64 232.95 294.81C233.69 294.97 233.78 295.18 234.38 295.68C234.99 296.18 235.82 298.03 235.82 298.03L235.76 303.26C235.76 303.26 226.73 305.22 224.89 305.47C223.04 305.72 222.54 306.75 222.54 306.75C222.54 306.75 222.61 308.81 222.58 309.23C222.54 309.65 223.16 310.04 223.16 310.04C223.16 310.04 226.68 311.08 227.96 311.44C229.23 311.79 232.99 311.99 232.99 311.99C234.48 312.3 248.11 308.58 248.11 308.58L249.87 307.5V300.19C249.87 299.47 250.96 299.27 250.96 299.27L263.63 302.22L265.83 302L278.55 247.58L284.33 246.4L282.78 208.64V208.63ZM235.61 306.57C235.61 306.57 235.24 307.23 233.2 307.27C231.15 307.3 230.06 306.62 230.37 306.35C230.37 306.35 230.65 305.6 233.26 305.65C235.88 305.7 235.61 306.58 235.61 306.58V306.57ZM244.62 118.37C244.76 115.14 245.82 115.45 245.82 115.45C248.47 116.5 248.51 120.52 248.51 120.52V129.92L247.81 131C244.9 130.09 244.63 126.94 244.63 126.94C244.63 126.94 244.47 121.6 244.61 118.37H244.62ZM217.73 112.13C217.87 108.9 218.93 109.21 218.93 109.21C221.58 110.26 221.62 114.28 221.62 114.28V123.68L220.92 124.76C218.01 123.85 217.74 120.7 217.74 120.7C217.74 120.7 217.58 115.36 217.72 112.13H217.73ZM183.33 125.03C182.7 126.76 181.23 125.14 181.23 125.14C181.23 125.14 179.68 123.45 179.6 119.81C179.52 116.16 180.79 116.12 180.79 116.12C180.79 116.12 181.68 115.75 182.59 117.41C183.5 119.07 183.76 121.66 183.76 121.66C183.76 121.66 183.96 123.31 183.33 125.04V125.03ZM191.29 215.33C190.66 217.06 189.19 215.44 189.19 215.44C189.19 215.44 187.64 213.75 187.56 210.11C187.48 206.46 188.75 206.42 188.75 206.42C188.75 206.42 189.64 206.05 190.55 207.71C191.46 209.37 191.72 211.96 191.72 211.96C191.72 211.96 191.92 213.61 191.29 215.34V215.33ZM194.23 114.08C193.69 115.59 192.44 114.17 192.44 114.17C192.44 114.17 191.12 112.7 191.05 109.52C190.98 106.34 192.07 106.3 192.07 106.3C192.07 106.3 192.83 105.98 193.6 107.43C194.37 108.88 194.6 111.14 194.6 111.14C194.6 111.14 194.77 112.58 194.23 114.08ZM204.27 276.4C203.51 276.45 201.64 276.11 201.64 276.11C198.03 275.45 197.23 272.97 197.23 272.97C195.84 268.43 197.79 267.42 197.79 267.42C202.04 267.28 204.1 270.49 204.1 270.49C206.35 274.23 204.27 276.4 204.27 276.4ZM231.21 283.15C230.45 283.2 228.58 282.86 228.58 282.86C224.97 282.2 224.17 279.72 224.17 279.72C222.78 275.18 224.73 274.17 224.73 274.17C228.98 274.03 231.04 277.24 231.04 277.24C233.29 280.98 231.21 283.15 231.21 283.15ZM251.23 250.78C250.47 251.26 202.39 239.13 202.39 239.13C202.39 239.13 200.36 238.37 200.22 236C200.07 233.63 195.9 155.71 195.9 155.71C195.9 155.71 195.24 152.05 198.29 152.37L245.36 163.3C245.36 163.3 248.27 164.6 248.53 168.38C248.79 172.16 252.06 249.14 252.06 249.14C252.06 249.14 251.99 250.3 251.24 250.78H251.23ZM256.17 286.65C256.08 289.05 255.13 289.24 255.13 289.24C253.7 289.5 252.92 286.16 252.92 286.16C251.86 281.1 253.81 280.9 253.81 280.9C254.8 280.94 255.38 282.51 255.38 282.51C255.38 282.51 256.25 284.25 256.16 286.65H256.17ZM258.11 135.11L258.43 142.69C257.18 142.15 256.89 139.54 256.89 139.54C256.32 134.86 258.11 135.11 258.11 135.11ZM261.48 232.37C260.85 234.1 259.38 232.48 259.38 232.48C259.38 232.48 257.83 230.79 257.75 227.15C257.67 223.5 258.94 223.46 258.94 223.46C258.94 223.46 259.83 223.09 260.74 224.75C261.65 226.41 261.91 229 261.91 229C261.91 229 262.11 230.65 261.48 232.38V232.37Z" fill="white"/>
<path d="M278.35 122.04L272.61 124.07V130.71L269.2 131.31V143.68L267.65 143.8L264.84 142.19L264.66 134.36C264.12 132.33 261.67 132.99 261.67 132.99C259.82 133.23 259.88 135.5 259.88 135.5L260.3 149.43C260.54 152.66 261.67 152.72 261.67 152.72L270.16 158.34L270.46 168.68L263.53 176.33L264.19 192.47L281.41 189.72L278.36 122.05L271.17 120.68C269.22 120.19 268.46 118.28 268.46 118.28V115.5C268.33 114.11 267.68 112.9 267.68 112.9C267.01 111.55 265.39 110.99 265.39 110.99L174.24 89.29C170.25 88.93 169.8 91.85 169.8 91.85V95.57C169.44 96.11 168.86 95.79 168.86 95.79L163.03 94.49C160.79 94.18 159.26 94.49 159.26 94.49L150.74 95.79C150.74 95.79 149.53 95.98 149.65 98.38L150.25 114.52C150.25 114.52 150.42 115.52 149.31 115.31" stroke="#231815" stroke-width="0.5" stroke-miterlimit="10" stroke-linecap="round"/>
<path d="M279.01 190.09L279.48 205.73C279.48 205.73 279.36 207.58 280.08 208.06C280.8 208.54 282.71 208.66 282.71 208.66L284.32 246.38L277.27 247.81C277.27 247.81 274.76 247.51 274.28 245.12C274.28 245.12 273.98 244.34 272.91 243.69L265.32 239.03L264.42 236.82L264.06 221.58C264.06 221.58 264 219.97 265.79 219.37C265.79 219.37 267.94 218.95 268.54 220.63L268.9 221.53L269.08 228.76L271.71 230.31H273.26L272.9 212.5C272.9 212.5 273.14 211.07 274.51 210.65L282.7 208.68" stroke="#231815" stroke-width="0.5" stroke-miterlimit="10" stroke-linecap="round"/>
<path d="M278.54 247.56L265.82 301.98L263.62 302.2L250.53 299.15C250.53 299.15 247.97 298.52 247.62 301.62V306.15L235.83 303.24V298.04C235.83 298.04 234.84 295.04 232.65 294.72L191.28 285.04L172.48 222.45C172.48 222.45 171.19 218.56 166.56 218.5L158.1 219.58C158.1 219.58 157.11 216.26 155.65 215.69L147.55 210.16C147.55 210.16 147.16 209.53 147.16 208.79C147.16 208.05 146.62 193.76 146.62 193.76C146.62 193.76 147.01 191.13 149.01 191.34C149.01 191.34 150.5 191.4 150.92 192.48L151.61 201.03L153.88 202.46L155.73 202.31L155.37 184.68C155.37 184.68 155.25 183.25 156.54 182.62L164.49 181.16L166.43 181.28C166.43 181.28 167.21 181.13 167.3 180.14C167.39 179.15 166.61 163.1 166.61 163.1C166.61 163.1 165.47 161.1 163.38 161.52L155.37 163.07C155.37 163.07 154.65 163.19 154.35 161.99C154.05 160.79 152.8 131.08 152.8 131.08C152.8 131.08 152.5 129.41 151.31 128.93C150.12 128.45 143.72 124.27 143.72 124.27C143.72 124.27 143.06 124.15 142.97 122.57L142.1 107.18C142.1 107.18 141.86 106.46 143.24 105.57C143.24 105.57 145.39 104.67 146.29 105.57L147.49 108.86L147.67 114.3L149.94 115.73L150.51 115.85C150.51 115.85 151.5 116.01 151.65 115.42L151.09 98.23C151.09 98.23 151.22 96.84 152.3 96.54L159.68 95.46C159.68 95.46 161.23 95.25 162.07 95.46C162.91 95.67 167.69 96.75 167.69 96.75C167.69 96.75 169.54 96.78 169.78 95.58" stroke="#231815" stroke-width="0.5" stroke-miterlimit="10" stroke-linecap="round"/>
<path d="M160.47 95.3701L163.4 161.5" stroke="#231815" stroke-width="0.5" stroke-miterlimit="10" stroke-linecap="round"/>
<path d="M164.5 181.13L166.56 218.5" stroke="#231815" stroke-width="0.5" stroke-miterlimit="10" stroke-linecap="round"/>
<path d="M235.83 303.23L224.31 305.62C224.31 305.62 222.8 305.99 222.62 306.68C222.56 306.91 222.65 307.18 222.99 307.47L227.53 308.73C227.53 308.73 232.76 309.81 235.82 308.73L247.61 306.14V308.67" stroke="#231815" stroke-width="0.5" stroke-miterlimit="10" stroke-linecap="round"/>
<path d="M222.62 306.68V309.21C222.62 309.21 222.34 309.6 223.32 310.11L227.33 311.25C227.33 311.25 228.85 311.79 232.29 311.94C232.29 311.94 233.69 312.15 236.24 311.52L248.11 308.56L249.87 307.48V300.13C249.87 300.13 250.17 299.27 251.2 299.31" stroke="#231815" stroke-width="0.5" stroke-miterlimit="10" stroke-linecap="round"/>
<path d="M171.17 89.8801C171.17 89.8801 171.23 89.3501 174.58 90.1801L263.65 111.82C263.65 111.82 265.74 112.19 266.21 116.18C266.21 116.18 266.05 119.07 267.58 120.26C267.58 120.26 268.27 121.04 270.45 121.43L274.87 122.19L270.68 123.51L270.72 130.37L267.07 130.93V142.77C267.07 142.77 266.87 143.18 266.53 143.15" stroke="#231815" stroke-width="0.5" stroke-miterlimit="10" stroke-linecap="round"/>
<path d="M267.06 130.94L269.2 131.31" stroke="#231815" stroke-width="0.5" stroke-miterlimit="10" stroke-linecap="round"/>
<path d="M270.67 123.52L272.61 124.08" stroke="#231815" stroke-width="0.5" stroke-miterlimit="10" stroke-linecap="round"/>
<path d="M264.18 192.46L262.69 191.8L261.94 176.2L269.05 168.37C269.05 168.37 268.84 160.36 268.78 159.31C268.72 158.26 268.45 157.94 268.45 157.94L260.17 152.44C258.82 151.6 258.65 150.35 258.65 150.35L258.2 135.02C258.2 135.02 258.35 133.11 260.29 132.69C260.29 132.69 261.39 132.36 263.26 132.97" stroke="#231815" stroke-width="0.5" stroke-miterlimit="10" stroke-linecap="round"/>
<path d="M261.94 176.2L263.52 176.32" stroke="#231815" stroke-width="0.5" stroke-miterlimit="10" stroke-linecap="round"/>
<path d="M269.05 168.37L270.46 168.67" stroke="#231815" stroke-width="0.5" stroke-miterlimit="10" stroke-linecap="round"/>
<path d="M268.61 158.27L270.16 158.33" stroke="#231815" stroke-width="0.5" stroke-miterlimit="10" stroke-linecap="round"/>
<path d="M280.8 208.36L272.77 210.11C272.77 210.11 271.38 210.47 271.34 212.26L271.83 229.21C271.83 229.21 271.85 229.93 271.2 230" stroke="#231815" stroke-width="0.5" stroke-miterlimit="10" stroke-linecap="round"/>
<path d="M277.13 190.39L277.58 206.3C277.58 206.3 277.89 208.5 278.95 208.77" stroke="#231815" stroke-width="0.5" stroke-miterlimit="10" stroke-linecap="round"/>
<path d="M155.39 163.05L153.43 162.5C153.43 162.5 152.94 162.72 152.76 160.84C152.58 158.96 151.24 130.58 151.24 130.58C151.24 130.58 151.06 129.16 149.49 128.44L142.11 123.99C142.11 123.99 141.6 124.03 141.56 122.42C141.52 120.81 140.98 107.22 140.98 107.22C140.98 107.22 140.85 105.56 141.88 105.29C142.91 105.02 143.97 104.74 145.28 105.15" stroke="#231815" stroke-width="0.5" stroke-miterlimit="10" stroke-linecap="round"/>
<path d="M158.11 219.57L156.65 218.82C156.65 218.82 156.59 217.33 155.39 216.25C154.19 215.17 146.84 210.45 146.84 210.45C146.84 210.45 146.12 210.45 145.88 208.54C145.64 206.63 145.46 193.6 145.46 193.6C145.46 193.6 145.46 192.16 146.77 191.23C146.77 191.23 147.54 190.61 148.73 190.88L149.88 191.52" stroke="#231815" stroke-width="0.5" stroke-miterlimit="10" stroke-linecap="round"/>
<path d="M154.56 202.39L153.97 184.33C153.97 184.33 153.84 182.94 155.27 182.4L164.51 180.52L167.16 180.68" stroke="#231815" stroke-width="0.5" stroke-miterlimit="10" stroke-linecap="round"/>
<path d="M266.22 219.32L264.31 219.18C264.31 219.18 262.52 219.42 262.46 220.97L262.82 236.39C262.82 236.39 263.48 238.54 264.61 239.44L272.8 244.46C272.8 244.46 273.22 245 273.4 245.83C273.4 245.83 274.21 248.06 276.84 247.71L263.64 302.19" stroke="#231815" stroke-width="0.5" stroke-miterlimit="10" stroke-linecap="round"/>
<path d="M193.82 155.76C193.82 155.76 193.1 151.93 196.45 151.93L245.35 163.29C245.35 163.29 248.16 164.55 248.52 168.37L252.05 249.13C252.05 249.13 251.93 251.46 249.54 251.34L200.16 239.68C200.16 239.68 197.77 238.96 197.65 234.48L193.82 155.75V155.76Z" stroke="#231815" stroke-width="0.5" stroke-miterlimit="10" stroke-linecap="round"/>
<path d="M198.71 152.46C198.71 152.46 195.73 151.58 195.85 155.04L200.15 235.38C200.15 235.38 200.15 238.61 202.66 239.21L251.27 250.79" stroke="#231815" stroke-width="0.5" stroke-miterlimit="10" stroke-linecap="round"/>
<path d="M182.464 125.819C183.538 125.648 184.062 123.329 183.633 120.641C183.204 117.952 181.986 115.911 180.911 116.082C179.837 116.254 179.313 118.572 179.742 121.261C180.171 123.95 181.389 125.991 182.464 125.819Z" stroke="#231815" stroke-width="0.5" stroke-miterlimit="10"/>
<path d="M181.27 116.1L180.13 115.92C180.13 115.92 178.55 116.19 178.13 117.86C177.71 119.53 177.68 122.61 179.24 124.76C180.8 126.91 182.63 126.78 183.33 125.02" stroke="#231815" stroke-width="0.5" stroke-linecap="round" stroke-linejoin="round"/>
<path d="M190.386 216.134C191.46 215.962 191.984 213.644 191.555 210.955C191.126 208.266 189.908 206.225 188.833 206.397C187.759 206.568 187.235 208.887 187.664 211.576C188.093 214.264 189.311 216.305 190.386 216.134Z" stroke="#231815" stroke-width="0.5" stroke-miterlimit="10"/>
<path d="M189.21 206.4L188.07 206.22C188.07 206.22 186.49 206.49 186.07 208.16C185.65 209.83 185.62 212.91 187.18 215.06C188.74 217.21 190.57 217.08 191.27 215.32" stroke="#231815" stroke-width="0.5" stroke-linecap="round" stroke-linejoin="round"/>
<path d="M260.603 233.184C261.678 233.013 262.201 230.694 261.772 228.005C261.343 225.317 260.125 223.276 259.05 223.447C257.976 223.618 257.453 225.937 257.881 228.626C258.31 231.315 259.529 233.355 260.603 233.184Z" stroke="#231815" stroke-width="0.5" stroke-miterlimit="10"/>
<path d="M259.43 223.44L258.29 223.26C258.29 223.26 256.71 223.53 256.29 225.2C255.87 226.87 255.84 229.95 257.4 232.1C258.96 234.25 260.79 234.12 261.49 232.36" stroke="#231815" stroke-width="0.5" stroke-linecap="round" stroke-linejoin="round"/>
<path d="M255.039 289.272C255.944 289.131 256.387 287.149 256.027 284.846C255.668 282.544 254.642 280.792 253.736 280.933C252.83 281.075 252.387 283.056 252.747 285.359C253.107 287.662 254.133 289.414 255.039 289.272Z" stroke="#231815" stroke-width="0.5" stroke-miterlimit="10"/>
<path d="M254.05 280.93L253.08 280.78C253.08 280.78 251.75 281.01 251.4 282.44C251.05 283.87 251.02 286.51 252.33 288.35C253.64 290.19 255.19 290.08 255.78 288.58" stroke="#231815" stroke-width="0.5" stroke-linecap="round" stroke-linejoin="round"/>
<path d="M193.478 114.679C194.383 114.537 194.826 112.556 194.466 110.253C194.106 107.95 193.08 106.198 192.175 106.34C191.269 106.481 190.826 108.463 191.186 110.766C191.546 113.068 192.572 114.82 193.478 114.679Z" stroke="#231815" stroke-width="0.5" stroke-miterlimit="10"/>
<path d="M192.48 106.35L191.51 106.2C191.51 106.2 190.18 106.43 189.83 107.86C189.48 109.29 189.45 111.93 190.76 113.77C192.07 115.61 193.62 115.5 194.21 114" stroke="#231815" stroke-width="0.5" stroke-linecap="round" stroke-linejoin="round"/>
<path d="M216.11 111.25C216.11 111.25 216.38 109.1 218.53 109.1C218.53 109.1 221.31 109.32 221.62 114.35V123.68C221.62 123.68 220.77 125.7 219.29 125.47C219.29 125.47 216.42 124.8 216.11 120.9C215.8 117 216.11 111.26 216.11 111.26V111.25Z" stroke="#231815" stroke-width="0.5" stroke-linecap="round" stroke-linejoin="round"/>
<path d="M220.92 124.75C217.98 123.95 217.72 120.53 217.72 120.53V112.64C217.72 112.64 217.59 108.92 219.07 109.26" stroke="#231815" stroke-width="0.5" stroke-linecap="round" stroke-linejoin="round"/>
<path d="M242.95 117.48C242.95 117.48 243.22 115.33 245.37 115.33C245.37 115.33 248.15 115.55 248.46 120.58V129.91C248.46 129.91 247.61 131.93 246.13 131.7C246.13 131.7 243.26 131.03 242.95 127.13C242.64 123.23 242.95 117.49 242.95 117.49V117.48Z" stroke="#231815" stroke-width="0.5" stroke-linecap="round" stroke-linejoin="round"/>
<path d="M247.76 130.98C244.82 130.18 244.56 126.76 244.56 126.76V118.87C244.56 118.87 244.43 115.15 245.91 115.49" stroke="#231815" stroke-width="0.5" stroke-linecap="round" stroke-linejoin="round"/>
<path d="M232.99 307.27C234.437 307.27 235.61 306.903 235.61 306.45C235.61 305.997 234.437 305.63 232.99 305.63C231.543 305.63 230.37 305.997 230.37 306.45C230.37 306.903 231.543 307.27 232.99 307.27Z" stroke="#231815" stroke-width="0.5" stroke-linecap="round" stroke-linejoin="round"/>
<path d="M164.8 109.96C165.446 109.96 165.97 109.239 165.97 108.35C165.97 107.461 165.446 106.74 164.8 106.74C164.154 106.74 163.63 107.461 163.63 108.35C163.63 109.239 164.154 109.96 164.8 109.96Z" stroke="#9FA0A0" stroke-width="0.5" stroke-miterlimit="10"/>
<path d="M190.74 248.54C191.353 248.54 191.85 247.716 191.85 246.7C191.85 245.684 191.353 244.86 190.74 244.86C190.127 244.86 189.63 245.684 189.63 246.7C189.63 247.716 190.127 248.54 190.74 248.54Z" stroke="#9FA0A0" stroke-width="0.5" stroke-miterlimit="10"/>
<path d="M260.95 265.03C261.563 265.03 262.06 264.247 262.06 263.28C262.06 262.314 261.563 261.53 260.95 261.53C260.337 261.53 259.84 262.314 259.84 263.28C259.84 264.247 260.337 265.03 260.95 265.03Z" stroke="#9FA0A0" stroke-width="0.5" stroke-miterlimit="10"/>
<path d="M194.87 272.27C194.87 272.27 193.32 265.4 200.61 267.88C200.61 267.88 205.24 269.37 205.12 274.04C205 278.71 199.93 276.64 199.93 276.64C199.93 276.64 195.47 275.56 194.87 272.28V272.27Z" stroke="#231815" stroke-width="0.5" stroke-miterlimit="10"/>
<path d="M198.01 267.33C198.01 267.33 196.55 267.51 196.78 271.1C197.01 274.69 200.02 276.32 204.26 276.4" stroke="#231815" stroke-width="0.5" stroke-miterlimit="10"/>
<path d="M221.78 279.06C221.78 279.06 220.23 272.19 227.52 274.67C227.52 274.67 232.15 276.16 232.03 280.83C231.91 285.5 226.84 283.43 226.84 283.43C226.84 283.43 222.38 282.35 221.78 279.07V279.06Z" stroke="#231815" stroke-width="0.5" stroke-miterlimit="10"/>
<path d="M224.91 274.12C224.91 274.12 223.45 274.3 223.68 277.89C223.91 281.48 226.92 283.11 231.16 283.19" stroke="#231815" stroke-width="0.5" stroke-miterlimit="10"/>
<path d="M258.06 135.1C258.06 135.1 256.45 134.77 256.89 139.52C256.89 139.52 257.28 142.06 258.21 142.57" stroke="#231815" stroke-width="0.5" stroke-miterlimit="10" stroke-linecap="round"/>
<path d="M258.2 134.03C258.2 134.03 254.11 133.97 255.09 140.1C255.09 140.1 255.99 143.84 258.32 144.7" stroke="#231815" stroke-width="0.5" stroke-miterlimit="10" stroke-linecap="round"/>
<path d="M440.38 72.4301L437.86 70.1901L314.69 40.3401C313.18 40.0901 311.29 40.3401 311.29 40.3401L290.19 44.6201L414.26 74.7801L418.09 77.5201" stroke="#231815" stroke-width="0.5" stroke-linecap="round" stroke-linejoin="round"/>
<path d="M287.29 48.0301V52.3101L294.15 191.16L307.37 194.18L312.94 216.57C312.94 216.57 313.51 218.5 314.36 219.33C315.21 220.16 402.4 239.9 402.4 239.9C402.4 239.9 401.74 238.2 401.74 237.26C401.74 236.32 405.23 217.42 405.23 217.42L418.08 220.54L411.09 81.8701C411.12 81.4701 409.72 80.3801 409.61 80.0201L288.98 50.9201L287.28 48.0201C287.28 48.0201 288.26 44.8401 290.18 44.6201" stroke="#231815" stroke-width="0.5" stroke-linecap="round" stroke-linejoin="round"/>
<path d="M312.95 216.57L401.74 237.26L403.54 237.57L408.45 236.82V239.02L403.54 239.9" stroke="#231815" stroke-width="0.5" stroke-linecap="round" stroke-linejoin="round"/>
<path d="M418.08 77.5302L424.69 220.35C424.69 220.35 441.13 218.37 442.73 215.91C444.34 213.45 446.98 212.51 446.89 204.2L440.37 72.4302L418.08 77.5302Z" stroke="#231815" stroke-width="0.5" stroke-linecap="round" stroke-linejoin="round"/>
<path d="M418.08 220.54L424.44 220.35" stroke="#231815" stroke-width="0.5" stroke-linecap="round" stroke-linejoin="round"/>
<path d="M428.03 67.61C428.03 67.61 427.53 60.38 422.74 57.51C417.95 54.64 335.33 36.12 335.33 36.12C335.33 36.12 331.81 35.35 328.88 37.88" stroke="#231815" stroke-width="0.5" stroke-linecap="round" stroke-linejoin="round"/>
<path d="M423.05 66.5999C423.05 66.5999 423.38 61.9999 418.09 61.2499L331.44 40.7199C331.44 40.7199 327.47 39.7099 326.91 43.2999V40.7799C328.8 35.7399 333.08 36.9999 333.08 36.9999L418.09 57.4999C425.77 59.4899 425.97 67.2999 425.97 67.2999" stroke="#231815" stroke-width="0.5" stroke-linecap="round" stroke-linejoin="round"/>
<path d="M406.69 217.77L403.54 237.26V239.9H402.4" stroke="#231815" stroke-width="0.5" stroke-linecap="round" stroke-linejoin="round"/>
<path d="M403.78 235.75L408.45 236.82" stroke="#231815" stroke-width="0.5" stroke-linecap="round" stroke-linejoin="round"/>
<path d="M318.08 127.56L316.82 96.8302C316.82 96.8302 316.35 92.5002 323.01 94.2002L381.94 108.48C381.94 108.48 385.66 109.74 385.97 115.22L387.23 143.94C387.23 143.94 387.1 147.34 388.55 148.85C388.55 148.85 393.34 153.51 394.15 158.93C394.97 164.35 392.76 168 392.76 168C392.76 168 392.07 169.76 384.51 172.72C384.51 172.72 381.42 173.35 380.61 176.94L380.48 182.8C380.48 182.8 379.79 186.07 377.02 186.7L334.26 177.19C334.26 177.19 329.29 174.8 328.53 167.87C328.53 167.87 328.97 162.64 326.2 160.69C323.43 158.74 314.93 149.61 314.93 149.61C314.93 149.61 312.22 147.22 312.91 139.79C312.91 139.79 312.78 134.75 316.31 132.61C316.31 132.61 317.38 132.17 317.76 131.35C318.14 130.53 318.07 127.57 318.07 127.57L318.08 127.56Z" stroke="#231815" stroke-width="0.5" stroke-linecap="round" stroke-linejoin="round"/>
<path d="M333.1 223.99V227.53L336.28 228.24C336.28 228.24 336.56 226.3 340.25 226.78C340.25 226.78 343.51 227.49 343.98 230.27L367.08 235.61C367.08 235.61 368.12 232.97 371.57 234.1C371.57 234.1 374.45 235.09 374.59 237.69L395.75 242.46C395.75 242.46 396.36 239.86 400.1 240.71C400.1 240.71 402.93 241.51 403.36 244.35L409.22 245.29L408.25 218.15" stroke="#231815" stroke-width="0.5" stroke-linecap="round" stroke-linejoin="round"/>
<path d="M409.2 245.29L421.86 242.97L421.06 220.44" stroke="#231815" stroke-width="0.5" stroke-linecap="round" stroke-linejoin="round"/>
<path d="M336.28 228.24L341.05 227.03" stroke="#231815" stroke-width="0.5" stroke-linecap="round" stroke-linejoin="round"/>
<path d="M367.08 235.61L372.23 234.4" stroke="#231815" stroke-width="0.5" stroke-linecap="round" stroke-linejoin="round"/>
<path d="M395.74 242.45L400.62 240.91" stroke="#231815" stroke-width="0.5" stroke-linecap="round" stroke-linejoin="round"/>
<path d="M344.5 230.39L347.06 239.91C347.06 239.91 348.95 245.29 353.86 246.14L418.09 261.35C418.09 261.35 422.53 262.58 423.76 256.44L430.67 219.49" stroke="#231815" stroke-width="0.5" stroke-linecap="round" stroke-linejoin="round"/>
<path d="M419.91 261.34C419.91 261.34 423.84 262.47 425.83 256.05L433.07 219.05" stroke="#231815" stroke-width="0.5" stroke-linecap="round" stroke-linejoin="round"/>
<path d="M348.64 231.34C348.64 231.34 349.38 235.17 351.84 236.28C351.84 236.28 354.55 237.32 357.44 237.26C357.44 237.26 358.89 237.19 359.2 235.75V233.79" stroke="#231815" stroke-width="0.5" stroke-linecap="round" stroke-linejoin="round"/>
<path d="M350.6 231.8C350.6 231.8 350.26 236.37 358.76 236.63" stroke="#231815" stroke-width="0.5" stroke-linecap="round" stroke-linejoin="round"/>
<path d="M379.82 238.86C379.82 238.86 379.42 240.06 380.11 241.68C380.11 241.68 380.55 242.8 382.75 243.49L386.97 244.43C386.97 244.43 388.67 245.06 390.06 243.11L390.34 241.23" stroke="#231815" stroke-width="0.5" stroke-linecap="round" stroke-linejoin="round"/>
<path d="M381.58 239.26C381.58 239.26 380.58 243.33 389.54 243.73" stroke="#231815" stroke-width="0.5" stroke-linecap="round" stroke-linejoin="round"/>
<path d="M410.72 245.01V247.65C410.72 247.65 410.86 250.34 413.46 250.81C413.46 250.81 415.07 251.28 415.96 249.77V244" stroke="#231815" stroke-width="0.5" stroke-linecap="round" stroke-linejoin="round"/>
<path d="M412.31 244.72C412.31 244.72 411.52 249.78 415.53 250.11" stroke="#231815" stroke-width="0.5" stroke-linecap="round" stroke-linejoin="round"/>
<path d="M442.12 152.712C442.316 149.947 440.545 147.568 438.165 147.4C435.785 147.231 433.697 149.336 433.501 152.102C433.306 154.867 435.076 157.246 437.456 157.414C439.836 157.583 441.924 155.478 442.12 152.712Z" stroke="#231815" stroke-width="0.5" stroke-linecap="round" stroke-linejoin="round"/>
<path d="M436.81 157.3C436.81 157.3 431.4 157.11 431.69 151.53C431.69 151.53 431.7 148.51 434.25 147.52C434.25 147.52 434.68 147.08 438.17 147.4" stroke="#231815" stroke-width="0.5" stroke-linecap="round" stroke-linejoin="round"/>
<path d="M438.123 206.108C438.255 205.045 437.683 204.098 436.844 203.994C436.006 203.889 435.218 204.666 435.086 205.73C434.954 206.793 435.526 207.739 436.364 207.844C437.203 207.948 437.99 207.171 438.123 206.108Z" stroke="#231815" stroke-width="0.5" stroke-linecap="round" stroke-linejoin="round"/>
<path d="M439.611 206.293C439.86 204.293 438.716 202.503 437.055 202.297C435.395 202.09 433.847 203.544 433.597 205.544C433.348 207.544 434.493 209.334 436.153 209.541C437.814 209.747 439.362 208.293 439.611 206.293Z" stroke="#231815" stroke-width="0.5" stroke-linecap="round" stroke-linejoin="round"/>
<path d="M442.93 206.537C443.508 201.9 440.919 197.761 437.149 197.291C433.378 196.821 429.853 200.199 429.276 204.836C428.698 209.472 431.287 213.612 435.057 214.081C438.828 214.551 442.353 211.173 442.93 206.537Z" stroke="#231815" stroke-width="0.5" stroke-linecap="round" stroke-linejoin="round"/>
<path d="M445.451 206.851C446.236 200.543 442.688 194.908 437.526 194.265C432.363 193.622 427.541 198.214 426.755 204.522C425.969 210.83 429.518 216.465 434.68 217.108C439.843 217.751 444.665 213.159 445.451 206.851Z" stroke="#231815" stroke-width="0.5" stroke-linecap="round" stroke-linejoin="round"/>
<path d="M433.72 216.92C433.72 216.92 422.62 216.54 424.45 202.88C424.45 202.88 425.27 196.77 431.63 194.19C431.63 194.19 433.86 192.9 439.23 194.68" stroke="#231815" stroke-width="0.5" stroke-linecap="round" stroke-linejoin="round"/>
<path d="M434.61 99.1099C437.924 99.1099 440.61 95.6536 440.61 91.3899C440.61 87.1263 437.924 83.6699 434.61 83.6699C431.296 83.6699 428.61 87.1263 428.61 91.3899C428.61 95.6536 431.296 99.1099 434.61 99.1099Z" stroke="#231815" stroke-width="0.5" stroke-linecap="round" stroke-linejoin="round"/>
<path d="M434.95 99.1C434.95 99.1 428.01 99.68 426.82 93.31C425.64 86.93 430.55 84.29 430.55 84.29C430.55 84.29 432.56 82.74 436.02 83.89" stroke="#231815" stroke-width="0.5" stroke-linecap="round" stroke-linejoin="round"/>
<path d="M436.22 94.6298C437.474 94.6298 438.49 93.2598 438.49 91.5698C438.49 89.8798 437.474 88.5098 436.22 88.5098C434.966 88.5098 433.95 89.8798 433.95 91.5698C433.95 93.2598 434.966 94.6298 436.22 94.6298Z" stroke="#231815" stroke-width="0.5" stroke-linecap="round" stroke-linejoin="round"/>
<path d="M436.22 88.5098C436.22 88.5098 434.51 87.9498 433.39 89.2498C432.28 90.5498 432.78 92.7698 432.78 92.7698C432.78 92.7698 433.02 93.9798 433.94 94.6198C434.86 95.2598 436.21 94.6198 436.21 94.6198C435.45 96.0098 433.94 95.3098 433.94 95.3098C433.94 95.3098 432.18 94.5498 432.12 91.3798C432.06 88.2098 433.94 88.0698 433.94 88.0698L434.09 87.2398C434.09 87.2398 434.37 85.1598 432.3 86.2298C430.16 87.3398 429.6 90.8598 429.72 90.9698C429.3 94.2498 431.62 97.4298 434.28 97.7698C436.94 98.1098 439.44 95.7298 439.86 92.4398C439.86 92.4398 440.3 89.6298 439.23 87.9298C438.16 86.2298 438.22 88.4898 438.22 88.4898L438.08 89.8298" stroke="#231815" stroke-width="0.5" stroke-linecap="round" stroke-linejoin="round"/>
<path d="M431.88 98.7602C430.69 99.1802 430.99 101.84 430.99 101.84V110.25C430.05 113.21 426.63 113.59 426.63 113.59C422.4 113.72 421.48 109.94 421.48 109.94L420.35 90.1002C420.35 90.1002 420.1 86.7602 423.37 85.7502L429.64 84.9302" stroke="#231815" stroke-width="0.5" stroke-linecap="round" stroke-linejoin="round"/>
<path d="M428.97 85.5498L423.75 86.2498C423.75 86.2498 421.48 87.0298 421.48 90.0098L422.68 109.61C422.68 109.61 423.71 113.67 428.23 113.12" stroke="#231815" stroke-width="0.5" stroke-linecap="round" stroke-linejoin="round"/>
<path d="M427.53 87.5498L424.44 88.0198C424.44 88.0198 423.12 88.5898 423.24 90.4798L424.44 107.92C424.44 107.92 424.82 110.63 427.08 110.63C427.08 110.63 428.84 110.88 429.47 108.93L429.22 100.55C429.22 100.55 428.94 98.6398 429.71 97.8198" stroke="#231815" stroke-width="0.5" stroke-linecap="round" stroke-linejoin="round"/>
<path d="M423.55 94.9199C423.55 94.9199 424.03 96.6099 425.54 96.8499C427.05 97.0899 426.34 94.9299 427.29 94.9199" stroke="#231815" stroke-width="0.5" stroke-linecap="round" stroke-linejoin="round"/>
<path d="M425.55 96.8501C425.55 96.8501 425.1 96.8501 425.23 99.0901L425.78 106.62C425.78 106.62 426.03 108.3 424.44 107.91" stroke="#231815" stroke-width="0.5" stroke-linecap="round" stroke-linejoin="round"/>
<path d="M320.79 93.8002C320.79 93.8002 318.43 93.3002 318.71 98.5902L320.22 127.97C320.22 127.97 320.46 131.75 318.69 132.6C318.69 132.6 315.6 133.26 314.94 137.32C314.28 141.38 314.94 144.4 314.94 144.4C314.94 144.4 315.22 147.99 319.29 151.77C323.35 155.55 328.07 159.52 328.07 159.52C328.07 159.52 330.62 162.45 330.81 167.08C330.81 167.08 330.62 172.09 334.12 175.3C334.12 175.3 335.63 176.72 340.35 177.57L378.36 186.12" stroke="#231815" stroke-width="0.5" stroke-linecap="round" stroke-linejoin="round"/>
<path d="M386.72 132.35L325.14 118.19L322.59 110.21" stroke="#231815" stroke-width="0.5" stroke-linecap="round" stroke-linejoin="round"/>
<path d="M323.76 94.3799V106.9C323.76 106.9 322.87 111.62 319.47 113.28" stroke="#231815" stroke-width="0.5" stroke-linecap="round" stroke-linejoin="round"/>
<path d="M323.76 102.41L386.03 116.73" stroke="#231815" stroke-width="0.5" stroke-linecap="round" stroke-linejoin="round"/>
<path d="M326.6 118.53L328.07 159.52" stroke="#231815" stroke-width="0.5" stroke-linecap="round" stroke-linejoin="round"/>
<path d="M328.93 119.06L330.55 164.99" stroke="#231815" stroke-width="0.5" stroke-linecap="round" stroke-linejoin="round"/>
<path d="M349.62 123.82C349.62 123.82 358.39 133.48 357.76 141.16C357.13 148.84 354.66 150.35 354.66 150.35C354.66 150.35 350.33 154.54 350.08 157.3C349.83 160.06 349.07 165.47 351.59 169.75C351.59 169.75 353.48 172.52 356.25 173.02C359.02 173.52 380.58 178.69 380.58 178.69" stroke="#231815" stroke-width="0.5" stroke-linecap="round" stroke-linejoin="round"/>
<path d="M352.69 124.53C352.69 124.53 359.02 131.34 359.65 138.52C360.28 145.7 357.38 149.6 357.38 149.6C357.38 149.6 354.36 152.94 353.16 154.26C351.96 155.58 350.3 167.97 355.05 170.88C359.8 173.79 380.58 177.37 380.58 177.37" stroke="#231815" stroke-width="0.5" stroke-linecap="round" stroke-linejoin="round"/>
<path d="M352.005 144.926C353.291 144.71 353.91 142.018 353.389 138.914C352.868 135.809 351.403 133.467 350.118 133.683C348.832 133.899 348.213 136.59 348.734 139.695C349.255 142.8 350.72 145.141 352.005 144.926Z" stroke="#231815" stroke-width="0.5" stroke-linecap="round" stroke-linejoin="round"/>
<path d="M350.56 133.73L349.19 133.52C349.19 133.52 347.3 133.83 346.8 135.76C346.3 137.69 346.26 141.24 348.12 143.73C349.98 146.22 352.18 146.07 353.01 144.04" stroke="#231815" stroke-width="0.5" stroke-linecap="round" stroke-linejoin="round"/>
<path d="M308.343 84.153C309.412 84.0814 310.166 82.3482 310.028 80.2818C309.89 78.2153 308.911 76.5982 307.842 76.6697C306.773 76.7413 306.018 78.4745 306.157 80.5409C306.295 82.6074 307.274 84.2245 308.343 84.153Z" stroke="#231815" stroke-width="0.5" stroke-linecap="round" stroke-linejoin="round"/>
<path d="M308.573 85.5004C310.099 85.3982 311.184 83.0327 310.995 80.2168C310.807 77.4009 309.416 75.2011 307.89 75.3033C306.364 75.4054 305.279 77.771 305.468 80.5869C305.656 83.4027 307.046 85.6026 308.573 85.5004Z" stroke="#231815" stroke-width="0.5" stroke-linecap="round" stroke-linejoin="round"/>
<path d="M307.88 75.2998H309.52C309.52 75.2998 311.79 75.4798 312.42 79.2898C312.42 79.2898 312.73 81.4698 312.11 83.4198C311.49 85.3698 308.95 85.4098 308.95 85.4098" stroke="#231815" stroke-width="0.5" stroke-linecap="round" stroke-linejoin="round"/>
<path d="M389.703 103.299C390.799 103.225 391.572 101.449 391.43 99.3334C391.287 97.2174 390.282 95.5621 389.186 95.6361C388.089 95.71 387.316 97.4853 387.459 99.6013C387.601 101.717 388.606 103.373 389.703 103.299Z" stroke="#231815" stroke-width="0.5" stroke-linecap="round" stroke-linejoin="round"/>
<path d="M389.935 104.676C391.5 104.571 392.611 102.149 392.417 99.2669C392.222 96.385 390.796 94.1344 389.231 94.24C387.666 94.3456 386.555 96.7674 386.75 99.6493C386.944 102.531 388.37 104.782 389.935 104.676Z" stroke="#231815" stroke-width="0.5" stroke-linecap="round" stroke-linejoin="round"/>
<path d="M389.23 94.27H390.91C390.91 94.27 393.24 94.45 393.89 98.36C393.89 98.36 394.21 100.59 393.57 102.59C392.92 104.59 390.33 104.63 390.33 104.63" stroke="#231815" stroke-width="0.5" stroke-linecap="round" stroke-linejoin="round"/>
<path d="M390.68 197.171C391.777 197.097 392.55 195.321 392.407 193.205C392.265 191.089 391.26 189.434 390.163 189.508C389.067 189.582 388.294 191.357 388.436 193.473C388.579 195.589 389.584 197.245 390.68 197.171Z" stroke="#231815" stroke-width="0.5" stroke-linecap="round" stroke-linejoin="round"/>
<path d="M390.913 198.558C392.478 198.452 393.589 196.031 393.394 193.149C393.2 190.267 391.774 188.016 390.209 188.122C388.644 188.227 387.533 190.649 387.727 193.531C387.922 196.413 389.348 198.664 390.913 198.558Z" stroke="#231815" stroke-width="0.5" stroke-linecap="round" stroke-linejoin="round"/>
<path d="M390.2 188.15H391.88C391.88 188.15 394.21 188.33 394.86 192.24C394.86 192.24 395.18 194.47 394.54 196.47C393.89 198.47 391.3 198.51 391.3 198.51" stroke="#231815" stroke-width="0.5" stroke-linecap="round" stroke-linejoin="round"/>
<path d="M316.683 179.352C317.752 179.281 318.507 177.547 318.368 175.481C318.23 173.415 317.251 171.797 316.182 171.869C315.113 171.941 314.359 173.674 314.497 175.74C314.635 177.807 315.614 179.424 316.683 179.352Z" stroke="#231815" stroke-width="0.5" stroke-linecap="round" stroke-linejoin="round"/>
<path d="M316.903 180.701C318.43 180.598 319.514 178.233 319.326 175.417C319.137 172.601 317.747 170.401 316.22 170.503C314.694 170.606 313.609 172.971 313.798 175.787C313.986 178.603 315.377 180.803 316.903 180.701Z" stroke="#231815" stroke-width="0.5" stroke-linecap="round" stroke-linejoin="round"/>
<path d="M316.23 170.5H317.87C317.87 170.5 320.14 170.68 320.77 174.49C320.77 174.49 321.08 176.67 320.46 178.62C319.83 180.57 317.3 180.61 317.3 180.61" stroke="#231815" stroke-width="0.5" stroke-linecap="round" stroke-linejoin="round"/>
<path d="M328.63 200.32L329.2 214.96C329.2 214.96 329.2 216.19 330.33 216.57C331.46 216.95 339.87 219.06 339.87 219.06C339.87 219.06 342.51 219.69 342.23 213.93C341.95 208.17 342.25 207.13 342.25 207.13C342.25 207.13 342.13 202.78 338.26 202.31C334.39 201.84 328.63 200.33 328.63 200.33V200.32Z" stroke="#231815" stroke-width="0.5" stroke-linecap="round" stroke-linejoin="round"/>
<path d="M375.11 210.81C375.11 210.81 370.99 209.87 371.16 214.49C371.33 219.12 371.62 222.42 371.62 222.42C371.62 222.42 372 227.07 375.11 227.63C378.23 228.18 384.56 229.32 384.56 229.32V212.88L375.11 210.8V210.81Z" stroke="#231815" stroke-width="0.5" stroke-linecap="round" stroke-linejoin="round"/>
<path d="M350.06 179.75C350.06 179.75 355.5 174.57 358.79 181.71" stroke="#231815" stroke-width="0.5" stroke-linecap="round" stroke-linejoin="round"/>
<path d="M346.5 178.7C346.5 178.7 350.41 173.88 356.03 175.44C361.65 177 362.32 182.51 362.32 182.51" stroke="#231815" stroke-width="0.5" stroke-linecap="round" stroke-linejoin="round"/>
<path d="M344.12 178.41C344.12 178.41 348.76 172.83 354.42 175.15" stroke="#231815" stroke-width="0.5" stroke-linecap="round" stroke-linejoin="round"/>
<path d="M342 177.93C342 177.93 345.54 172.6 351.53 174.58" stroke="#231815" stroke-width="0.5" stroke-linecap="round" stroke-linejoin="round"/>
<path d="M340.01 177.37C340.01 177.37 343.5 172.38 348.7 174.14" stroke="#231815" stroke-width="0.5" stroke-linecap="round" stroke-linejoin="round"/>
<path d="M353.57 177.98C353.57 177.98 355.63 178.74 356.3 181.15" stroke="#231815" stroke-width="0.5" stroke-linecap="round" stroke-linejoin="round"/>
<path d="M351.87 178.53C351.87 178.53 352.82 177.92 354.14 180.67" stroke="#231815" stroke-width="0.5" stroke-linecap="round" stroke-linejoin="round"/>
<path d="M351.05 178.99C351.05 178.99 351.79 179.16 351.88 180.01" stroke="#231815" stroke-width="0.5" stroke-linecap="round" stroke-linejoin="round"/>
<path d="M293.13 170.5C293.13 170.5 290.22 175.01 293.6 180.02" stroke="#231815" stroke-width="0.5" stroke-linecap="round" stroke-linejoin="round"/>
<path d="M411.09 81.8698L418.08 77.5298" stroke="#231815" stroke-width="0.5" stroke-linecap="round" stroke-linejoin="round"/>
<path d="M42.66 162.37L42.96 162.28C42.98 161.93 43.19 161.69 43.34 161.64C43.52 161.58 43.78 161.69 44.07 161.92L44.36 161.85C44.38 161.5 44.59 161.26 44.74 161.21C44.92 161.15 45.18 161.26 45.47 161.49L45.76 161.42C45.78 161.07 45.99 160.83 46.14 160.78C46.32 160.72 46.58 160.83 46.87 161.06L47.16 160.99C47.18 160.64 47.39 160.4 47.54 160.35C47.72 160.29 47.98 160.4 48.27 160.63L48.56 160.56C48.58 160.21 48.79 159.97 48.94 159.92C49.12 159.86 49.38 159.97 49.67 160.2H49.68L50.3 160.02C50.76 160.09 52.27 160.74 52.62 161.9C52.98 163.08 52.26 164.47 51.74 164.75L51.56 164.8C51.51 165.18 51.39 165.43 51.21 165.49C51.05 165.54 50.73 165.43 50.47 165.13L50.17 165.22C50.12 165.6 50 165.85 49.82 165.91C49.66 165.96 49.34 165.85 49.08 165.55L48.78 165.64C48.73 166.02 48.61 166.27 48.43 166.33C48.27 166.38 47.95 166.27 47.69 165.97L47.39 166.06C47.34 166.44 47.22 166.69 47.04 166.75C46.88 166.8 46.56 166.69 46.3 166.39L46 166.48C45.95 166.86 45.83 167.11 45.65 167.17C45.49 167.22 45.17 167.11 44.91 166.81L44.15 167.04" fill="white"/>
<path d="M42.66 162.37L42.96 162.28C42.98 161.93 43.19 161.69 43.34 161.64C43.52 161.58 43.78 161.69 44.07 161.92L44.36 161.85C44.38 161.5 44.59 161.26 44.74 161.21C44.92 161.15 45.18 161.26 45.47 161.49L45.76 161.42C45.78 161.07 45.99 160.83 46.14 160.78C46.32 160.72 46.58 160.83 46.87 161.06L47.16 160.99C47.18 160.64 47.39 160.4 47.54 160.35C47.72 160.29 47.98 160.4 48.27 160.63L48.56 160.56C48.58 160.21 48.79 159.97 48.94 159.92C49.12 159.86 49.38 159.97 49.67 160.2H49.68L50.3 160.02C50.76 160.09 52.27 160.74 52.62 161.9C52.98 163.08 52.26 164.47 51.74 164.75L51.56 164.8C51.51 165.18 51.39 165.43 51.21 165.49C51.05 165.54 50.73 165.43 50.47 165.13L50.17 165.22C50.12 165.6 50 165.85 49.82 165.91C49.66 165.96 49.34 165.85 49.08 165.55L48.78 165.64C48.73 166.02 48.61 166.27 48.43 166.33C48.27 166.38 47.95 166.27 47.69 165.97L47.39 166.06C47.34 166.44 47.22 166.69 47.04 166.75C46.88 166.8 46.56 166.69 46.3 166.39L46 166.48C45.95 166.86 45.83 167.11 45.65 167.17C45.49 167.22 45.17 167.11 44.91 166.81L44.15 167.04" stroke="black" stroke-width="0.6" stroke-linecap="round" stroke-linejoin="round"/>
<path d="M43.39 170.91C42.46 171.7 41.49 172.01 40.28 171.78C39.02 171.54 37.51 169.5 36.67 166.77C35.83 164.04 35.95 161.49 36.87 160.59C37.54 159.95 38.74 159.43 39.83 159.58C41.12 159.78 42.73 161.81 43.6 164.66C44.47 167.51 44.33 170.02 43.39 170.91Z" fill="white" stroke="black" stroke-width="0.6" stroke-linecap="round" stroke-linejoin="round"/>
<path d="M37 160.49C37.11 160.41 37.22 160.35 37.34 160.32C38.68 159.91 40.55 162.15 41.52 165.31C42.49 168.47 42.18 171.37 40.84 171.77C40.72 171.81 40.6 171.82 40.47 171.82" stroke="black" stroke-width="0.2" stroke-linecap="round" stroke-linejoin="round"/>
<path d="M49.66 160.23C50.15 160.63 50.72 161.39 51.12 162.35C51.52 163.3 51.64 164.23 51.56 164.83" stroke="black" stroke-width="0.2" stroke-linecap="round" stroke-linejoin="round"/>
<path d="M48.73 160.53C49.09 160.41 49.9 161.32 50.42 162.57C50.94 163.83 51.02 164.99 50.65 165.11" stroke="black" stroke-width="0.2" stroke-linecap="round" stroke-linejoin="round"/>
<path d="M48.26 160.65C48.75 161.05 49.31 161.81 49.72 162.77C50.12 163.72 50.24 164.65 50.16 165.25" stroke="black" stroke-width="0.2" stroke-linecap="round" stroke-linejoin="round"/>
<path d="M47.33 160.95C47.69 160.83 48.5 161.74 49.02 162.99C49.54 164.25 49.62 165.41 49.25 165.53" stroke="black" stroke-width="0.2" stroke-linecap="round" stroke-linejoin="round"/>
<path d="M46.87 161.08C47.36 161.48 47.92 162.24 48.33 163.2C48.73 164.16 48.85 165.08 48.77 165.68" stroke="black" stroke-width="0.2" stroke-linecap="round" stroke-linejoin="round"/>
<path d="M45.93 161.38C46.29 161.26 47.1 162.17 47.62 163.42C48.14 164.68 48.22 165.84 47.85 165.96" stroke="black" stroke-width="0.2" stroke-linecap="round" stroke-linejoin="round"/>
<path d="M45.47 161.5C45.96 161.9 46.53 162.66 46.93 163.62C47.33 164.58 47.45 165.5 47.37 166.1" stroke="black" stroke-width="0.2" stroke-linecap="round" stroke-linejoin="round"/>
<path d="M44.53 161.8C44.89 161.68 45.7 162.59 46.22 163.84C46.74 165.1 46.82 166.26 46.45 166.38" stroke="black" stroke-width="0.2" stroke-linecap="round" stroke-linejoin="round"/>
<path d="M44.07 161.93C44.56 162.33 45.13 163.09 45.53 164.05C45.93 165 46.05 165.93 45.97 166.53" stroke="black" stroke-width="0.2" stroke-linecap="round" stroke-linejoin="round"/>
<path d="M43.13 162.23C43.49 162.11 44.3 163.02 44.82 164.27C45.34 165.53 45.42 166.69 45.05 166.81" stroke="black" stroke-width="0.2" stroke-linecap="round" stroke-linejoin="round"/>
<path d="M37.76 162.46L38.87 164.3C38.91 164.36 38.95 164.41 38.98 164.43L40.08 165.25C40.23 165.36 40.37 165.75 40.33 165.94L40.03 167.29C40.03 167.29 40.03 167.4 40.03 167.47L40.37 169.6C40.42 169.89 40.28 169.94 40.13 169.69L39.02 167.85C38.98 167.79 38.94 167.74 38.91 167.72L37.81 166.9C37.66 166.79 37.52 166.4 37.56 166.21L37.86 164.86C37.86 164.86 37.86 164.75 37.86 164.68L37.52 162.55C37.47 162.26 37.61 162.21 37.76 162.46Z" stroke="black" stroke-width="0.2" stroke-linecap="round" stroke-linejoin="round"/>
<path d="M238.93 102.46L302.86 82.0801" stroke="#231815" stroke-width="0.4" stroke-miterlimit="10"/>
<path d="M302.26 84.1L307.93 80.46L301.2 80.78L302.26 84.1Z" fill="#231815"/>
<path d="M54.43 161.21L175.36 122.82" stroke="#231815" stroke-width="0.4" stroke-miterlimit="10"/>
<path d="M174.76 124.84L180.43 121.21L173.7 121.52L174.76 124.84Z" fill="#231815"/>
<path d="M124.02 180.95L124.32 180.86C124.34 180.51 124.55 180.27 124.7 180.22C124.88 180.16 125.14 180.27 125.43 180.5L125.72 180.43C125.74 180.08 125.95 179.84 126.1 179.79C126.28 179.73 126.54 179.84 126.83 180.07L127.12 180C127.14 179.65 127.35 179.41 127.5 179.36C127.68 179.3 127.94 179.41 128.23 179.64L128.52 179.57C128.54 179.22 128.75 178.98 128.9 178.93C129.08 178.87 129.34 178.98 129.63 179.21L129.92 179.14C129.94 178.79 130.15 178.55 130.3 178.5C130.48 178.44 130.74 178.55 131.03 178.78H131.04L131.66 178.6C132.12 178.67 133.63 179.32 133.98 180.48C134.34 181.66 133.62 183.05 133.1 183.33L132.92 183.38C132.87 183.76 132.75 184.01 132.57 184.07C132.41 184.12 132.09 184.01 131.83 183.71L131.53 183.8C131.48 184.18 131.36 184.43 131.18 184.49C131.02 184.54 130.7 184.43 130.44 184.13L130.14 184.22C130.09 184.6 129.97 184.85 129.79 184.91C129.63 184.96 129.31 184.85 129.05 184.55L128.75 184.64C128.7 185.02 128.58 185.27 128.4 185.33C128.24 185.38 127.92 185.27 127.66 184.97L127.36 185.06C127.31 185.44 127.19 185.69 127.01 185.75C126.85 185.8 126.53 185.69 126.27 185.39L125.51 185.62" fill="white"/>
<path d="M124.02 180.95L124.32 180.86C124.34 180.51 124.55 180.27 124.7 180.22C124.88 180.16 125.14 180.27 125.43 180.5L125.72 180.43C125.74 180.08 125.95 179.84 126.1 179.79C126.28 179.73 126.54 179.84 126.83 180.07L127.12 180C127.14 179.65 127.35 179.41 127.5 179.36C127.68 179.3 127.94 179.41 128.23 179.64L128.52 179.57C128.54 179.22 128.75 178.98 128.9 178.93C129.08 178.87 129.34 178.98 129.63 179.21L129.92 179.14C129.94 178.79 130.15 178.55 130.3 178.5C130.48 178.44 130.74 178.55 131.03 178.78H131.04L131.66 178.6C132.12 178.67 133.63 179.32 133.98 180.48C134.34 181.66 133.62 183.05 133.1 183.33L132.92 183.38C132.87 183.76 132.75 184.01 132.57 184.07C132.41 184.12 132.09 184.01 131.83 183.71L131.53 183.8C131.48 184.18 131.36 184.43 131.18 184.49C131.02 184.54 130.7 184.43 130.44 184.13L130.14 184.22C130.09 184.6 129.97 184.85 129.79 184.91C129.63 184.96 129.31 184.85 129.05 184.55L128.75 184.64C128.7 185.02 128.58 185.27 128.4 185.33C128.24 185.38 127.92 185.27 127.66 184.97L127.36 185.06C127.31 185.44 127.19 185.69 127.01 185.75C126.85 185.8 126.53 185.69 126.27 185.39L125.51 185.62" stroke="black" stroke-width="0.6" stroke-linecap="round" stroke-linejoin="round"/>
<path d="M124.75 189.5C123.82 190.29 122.85 190.6 121.64 190.37C120.38 190.13 118.87 188.09 118.03 185.36C117.19 182.63 117.31 180.08 118.23 179.18C118.9 178.54 120.1 178.02 121.19 178.17C122.48 178.37 124.09 180.4 124.96 183.25C125.83 186.1 125.69 188.61 124.75 189.5Z" fill="white" stroke="black" stroke-width="0.6" stroke-linecap="round" stroke-linejoin="round"/>
<path d="M118.37 179.07C118.48 178.99 118.59 178.93 118.71 178.9C120.05 178.49 121.92 180.73 122.89 183.89C123.86 187.05 123.55 189.95 122.21 190.35C122.09 190.39 121.97 190.4 121.84 190.4" stroke="black" stroke-width="0.2" stroke-linecap="round" stroke-linejoin="round"/>
<path d="M131.03 178.81C131.52 179.21 132.09 179.97 132.49 180.93C132.89 181.88 133.01 182.81 132.93 183.41" stroke="black" stroke-width="0.2" stroke-linecap="round" stroke-linejoin="round"/>
<path d="M130.09 179.11C130.45 178.99 131.26 179.9 131.78 181.15C132.3 182.41 132.38 183.57 132.01 183.69" stroke="black" stroke-width="0.2" stroke-linecap="round" stroke-linejoin="round"/>
<path d="M129.63 179.23C130.12 179.63 130.68 180.39 131.09 181.35C131.49 182.3 131.61 183.23 131.53 183.83" stroke="black" stroke-width="0.2" stroke-linecap="round" stroke-linejoin="round"/>
<path d="M128.7 179.53C129.06 179.41 129.87 180.32 130.39 181.57C130.91 182.83 130.99 183.99 130.62 184.11" stroke="black" stroke-width="0.2" stroke-linecap="round" stroke-linejoin="round"/>
<path d="M128.23 179.66C128.72 180.06 129.28 180.82 129.69 181.78C130.09 182.74 130.21 183.66 130.13 184.26" stroke="black" stroke-width="0.2" stroke-linecap="round" stroke-linejoin="round"/>
<path d="M127.3 179.96C127.66 179.84 128.47 180.75 128.99 182C129.51 183.26 129.59 184.42 129.22 184.54" stroke="black" stroke-width="0.2" stroke-linecap="round" stroke-linejoin="round"/>
<path d="M126.83 180.08C127.32 180.48 127.89 181.24 128.29 182.2C128.69 183.16 128.81 184.08 128.73 184.68" stroke="black" stroke-width="0.2" stroke-linecap="round" stroke-linejoin="round"/>
<path d="M125.9 180.38C126.26 180.26 127.07 181.17 127.59 182.42C128.11 183.68 128.19 184.84 127.82 184.96" stroke="black" stroke-width="0.2" stroke-linecap="round" stroke-linejoin="round"/>
<path d="M125.43 180.51C125.92 180.91 126.49 181.67 126.89 182.63C127.29 183.58 127.41 184.51 127.33 185.11" stroke="black" stroke-width="0.2" stroke-linecap="round" stroke-linejoin="round"/>
<path d="M124.5 180.81C124.86 180.69 125.67 181.6 126.19 182.85C126.71 184.11 126.79 185.27 126.42 185.39" stroke="black" stroke-width="0.2" stroke-linecap="round" stroke-linejoin="round"/>
<path d="M119.13 181.04L120.24 182.88C120.28 182.94 120.32 182.99 120.35 183.01L121.45 183.83C121.6 183.94 121.74 184.33 121.7 184.52L121.4 185.87C121.4 185.87 121.4 185.98 121.4 186.05L121.74 188.18C121.79 188.47 121.65 188.52 121.5 188.27L120.39 186.43C120.35 186.37 120.31 186.32 120.28 186.3L119.18 185.48C119.03 185.37 118.89 184.98 118.93 184.79L119.23 183.44C119.23 183.44 119.23 183.33 119.23 183.26L118.89 181.13C118.84 180.84 118.98 180.79 119.13 181.04Z" stroke="black" stroke-width="0.2" stroke-linecap="round" stroke-linejoin="round"/>
<path d="M282.93 133.46L384.24 100.68" stroke="#231815" stroke-width="0.4" stroke-miterlimit="10"/>
<path d="M383.64 102.71L389.29 99.0498L382.57 99.3898L383.64 102.71Z" fill="#231815"/>
<path d="M135.79 179.8L251.86 143.07" stroke="#231815" stroke-width="0.4" stroke-miterlimit="10"/>
<path d="M251.25 145.09L256.93 141.46L250.2 141.77L251.25 145.09Z" fill="#231815"/>
<path d="M51.01 253.83L51.31 253.74C51.33 253.39 51.54 253.15 51.69 253.1C51.87 253.04 52.13 253.15 52.42 253.38L52.71 253.31C52.73 252.96 52.94 252.72 53.09 252.67C53.27 252.61 53.53 252.72 53.82 252.95L54.11 252.88C54.13 252.53 54.34 252.29 54.49 252.24C54.67 252.18 54.93 252.29 55.22 252.52L55.51 252.45C55.53 252.1 55.74 251.86 55.89 251.81C56.07 251.75 56.33 251.86 56.62 252.09L56.91 252.02C56.93 251.67 57.14 251.43 57.29 251.38C57.47 251.32 57.73 251.43 58.02 251.66H58.03L58.65 251.48C59.11 251.55 60.62 252.2 60.97 253.36C61.33 254.54 60.61 255.93 60.09 256.21L59.91 256.26C59.86 256.64 59.74 256.89 59.56 256.95C59.4 257 59.08 256.89 58.82 256.59L58.52 256.68C58.47 257.06 58.35 257.31 58.17 257.37C58.01 257.42 57.69 257.31 57.43 257.01L57.13 257.1C57.08 257.48 56.96 257.73 56.78 257.79C56.62 257.84 56.3 257.73 56.04 257.43L55.74 257.52C55.69 257.9 55.57 258.15 55.39 258.21C55.23 258.26 54.91 258.15 54.65 257.85L54.35 257.94C54.3 258.32 54.18 258.57 54 258.63C53.84 258.68 53.52 258.57 53.26 258.27L52.5 258.5" fill="white"/>
<path d="M51.01 253.83L51.31 253.74C51.33 253.39 51.54 253.15 51.69 253.1C51.87 253.04 52.13 253.15 52.42 253.38L52.71 253.31C52.73 252.96 52.94 252.72 53.09 252.67C53.27 252.61 53.53 252.72 53.82 252.95L54.11 252.88C54.13 252.53 54.34 252.29 54.49 252.24C54.67 252.18 54.93 252.29 55.22 252.52L55.51 252.45C55.53 252.1 55.74 251.86 55.89 251.81C56.07 251.75 56.33 251.86 56.62 252.09L56.91 252.02C56.93 251.67 57.14 251.43 57.29 251.38C57.47 251.32 57.73 251.43 58.02 251.66H58.03L58.65 251.48C59.11 251.55 60.62 252.2 60.97 253.36C61.33 254.54 60.61 255.93 60.09 256.21L59.91 256.26C59.86 256.64 59.74 256.89 59.56 256.95C59.4 257 59.08 256.89 58.82 256.59L58.52 256.68C58.47 257.06 58.35 257.31 58.17 257.37C58.01 257.42 57.69 257.31 57.43 257.01L57.13 257.1C57.08 257.48 56.96 257.73 56.78 257.79C56.62 257.84 56.3 257.73 56.04 257.43L55.74 257.52C55.69 257.9 55.57 258.15 55.39 258.21C55.23 258.26 54.91 258.15 54.65 257.85L54.35 257.94C54.3 258.32 54.18 258.57 54 258.63C53.84 258.68 53.52 258.57 53.26 258.27L52.5 258.5" stroke="black" stroke-width="0.6" stroke-linecap="round" stroke-linejoin="round"/>
<path d="M51.74 262.37C50.81 263.16 49.84 263.47 48.63 263.24C47.37 263 45.86 260.96 45.02 258.23C44.18 255.49 44.3 252.95 45.22 252.05C45.89 251.41 47.09 250.89 48.18 251.04C49.47 251.24 51.08 253.27 51.95 256.12C52.82 258.97 52.68 261.48 51.74 262.37Z" fill="white" stroke="black" stroke-width="0.6" stroke-linecap="round" stroke-linejoin="round"/>
<path d="M45.35 251.94C45.46 251.86 45.57 251.8 45.69 251.77C47.03 251.36 48.9 253.6 49.87 256.76C50.84 259.92 50.53 262.82 49.19 263.22C49.07 263.26 48.95 263.27 48.82 263.27" stroke="black" stroke-width="0.2" stroke-linecap="round" stroke-linejoin="round"/>
<path d="M58.01 251.68C58.5 252.08 59.07 252.84 59.47 253.8C59.87 254.75 59.99 255.68 59.91 256.28" stroke="black" stroke-width="0.2" stroke-linecap="round" stroke-linejoin="round"/>
<path d="M57.08 251.98C57.44 251.86 58.25 252.77 58.77 254.02C59.29 255.28 59.37 256.44 59 256.56" stroke="black" stroke-width="0.2" stroke-linecap="round" stroke-linejoin="round"/>
<path d="M56.61 252.11C57.1 252.51 57.66 253.27 58.07 254.23C58.47 255.18 58.59 256.11 58.51 256.71" stroke="black" stroke-width="0.2" stroke-linecap="round" stroke-linejoin="round"/>
<path d="M55.68 252.41C56.04 252.29 56.85 253.2 57.37 254.45C57.89 255.71 57.97 256.87 57.6 256.99" stroke="black" stroke-width="0.2" stroke-linecap="round" stroke-linejoin="round"/>
<path d="M55.21 252.53C55.7 252.93 56.26 253.69 56.67 254.65C57.07 255.61 57.19 256.53 57.11 257.13" stroke="black" stroke-width="0.2" stroke-linecap="round" stroke-linejoin="round"/>
<path d="M54.28 252.83C54.64 252.71 55.45 253.62 55.97 254.87C56.49 256.13 56.57 257.29 56.2 257.41" stroke="black" stroke-width="0.2" stroke-linecap="round" stroke-linejoin="round"/>
<path d="M53.82 252.96C54.31 253.36 54.88 254.12 55.28 255.08C55.68 256.04 55.8 256.96 55.72 257.56" stroke="black" stroke-width="0.2" stroke-linecap="round" stroke-linejoin="round"/>
<path d="M52.88 253.26C53.24 253.14 54.05 254.05 54.57 255.3C55.09 256.56 55.17 257.72 54.8 257.84" stroke="black" stroke-width="0.2" stroke-linecap="round" stroke-linejoin="round"/>
<path d="M52.42 253.38C52.91 253.78 53.48 254.54 53.88 255.5C54.28 256.45 54.4 257.38 54.32 257.98" stroke="black" stroke-width="0.2" stroke-linecap="round" stroke-linejoin="round"/>
<path d="M51.48 253.68C51.84 253.56 52.65 254.47 53.17 255.72C53.69 256.98 53.77 258.14 53.4 258.26" stroke="black" stroke-width="0.2" stroke-linecap="round" stroke-linejoin="round"/>
<path d="M46.11 253.92L47.22 255.76C47.26 255.82 47.3 255.87 47.33 255.89L48.43 256.71C48.58 256.82 48.72 257.21 48.68 257.4L48.38 258.75C48.38 258.75 48.38 258.86 48.38 258.93L48.72 261.06C48.77 261.35 48.63 261.4 48.48 261.15L47.37 259.31C47.33 259.25 47.29 259.2 47.26 259.18L46.16 258.36C46.01 258.25 45.87 257.86 45.91 257.67L46.21 256.32C46.21 256.32 46.21 256.21 46.21 256.14L45.87 254.01C45.82 253.72 45.96 253.67 46.11 253.92Z" stroke="black" stroke-width="0.2" stroke-linecap="round" stroke-linejoin="round"/>
<path d="M62.78 252.67L183.71 214.28" stroke="#231815" stroke-width="0.4" stroke-miterlimit="10"/>
<path d="M183.1 216.3L188.78 212.67L182.05 212.98L183.1 216.3Z" fill="#231815"/>
<path d="M125.37 267.41L125.67 267.32C125.69 266.97 125.9 266.73 126.05 266.68C126.23 266.62 126.49 266.73 126.78 266.96L127.07 266.89C127.09 266.54 127.3 266.3 127.45 266.25C127.63 266.19 127.89 266.3 128.18 266.53L128.47 266.46C128.49 266.11 128.7 265.87 128.85 265.82C129.03 265.76 129.29 265.87 129.58 266.1L129.87 266.03C129.89 265.68 130.1 265.44 130.25 265.39C130.43 265.33 130.69 265.44 130.98 265.67L131.27 265.6C131.29 265.25 131.5 265.01 131.65 264.96C131.83 264.9 132.09 265.01 132.38 265.24H132.39L133.01 265.06C133.47 265.13 134.98 265.78 135.33 266.94C135.69 268.12 134.97 269.51 134.45 269.79L134.27 269.84C134.22 270.22 134.1 270.47 133.92 270.53C133.76 270.58 133.44 270.47 133.18 270.17L132.88 270.26C132.83 270.64 132.71 270.89 132.53 270.95C132.37 271 132.05 270.89 131.79 270.59L131.49 270.68C131.44 271.06 131.32 271.31 131.14 271.37C130.98 271.42 130.66 271.31 130.4 271.01L130.1 271.1C130.05 271.48 129.93 271.73 129.75 271.79C129.59 271.84 129.27 271.73 129.01 271.43L128.71 271.52C128.66 271.9 128.54 272.15 128.36 272.21C128.2 272.26 127.88 272.15 127.62 271.85L126.86 272.08" fill="white"/>
<path d="M125.37 267.41L125.67 267.32C125.69 266.97 125.9 266.73 126.05 266.68C126.23 266.62 126.49 266.73 126.78 266.96L127.07 266.89C127.09 266.54 127.3 266.3 127.45 266.25C127.63 266.19 127.89 266.3 128.18 266.53L128.47 266.46C128.49 266.11 128.7 265.87 128.85 265.82C129.03 265.76 129.29 265.87 129.58 266.1L129.87 266.03C129.89 265.68 130.1 265.44 130.25 265.39C130.43 265.33 130.69 265.44 130.98 265.67L131.27 265.6C131.29 265.25 131.5 265.01 131.65 264.96C131.83 264.9 132.09 265.01 132.38 265.24H132.39L133.01 265.06C133.47 265.13 134.98 265.78 135.33 266.94C135.69 268.12 134.97 269.51 134.45 269.79L134.27 269.84C134.22 270.22 134.1 270.47 133.92 270.53C133.76 270.58 133.44 270.47 133.18 270.17L132.88 270.26C132.83 270.64 132.71 270.89 132.53 270.95C132.37 271 132.05 270.89 131.79 270.59L131.49 270.68C131.44 271.06 131.32 271.31 131.14 271.37C130.98 271.42 130.66 271.31 130.4 271.01L130.1 271.1C130.05 271.48 129.93 271.73 129.75 271.79C129.59 271.84 129.27 271.73 129.01 271.43L128.71 271.52C128.66 271.9 128.54 272.15 128.36 272.21C128.2 272.26 127.88 272.15 127.62 271.85L126.86 272.08" stroke="black" stroke-width="0.6" stroke-linecap="round" stroke-linejoin="round"/>
<path d="M126.1 275.95C125.17 276.74 124.2 277.05 122.99 276.82C121.73 276.58 120.22 274.54 119.38 271.81C118.54 269.08 118.66 266.53 119.58 265.63C120.25 264.99 121.45 264.47 122.54 264.62C123.83 264.82 125.44 266.85 126.31 269.7C127.18 272.55 127.04 275.06 126.1 275.95Z" fill="white" stroke="black" stroke-width="0.6" stroke-linecap="round" stroke-linejoin="round"/>
<path d="M119.72 265.52C119.83 265.44 119.94 265.38 120.06 265.35C121.4 264.94 123.27 267.18 124.24 270.34C125.21 273.5 124.9 276.4 123.56 276.8C123.44 276.84 123.32 276.85 123.19 276.85" stroke="black" stroke-width="0.2" stroke-linecap="round" stroke-linejoin="round"/>
<path d="M132.38 265.26C132.87 265.66 133.44 266.42 133.84 267.38C134.24 268.33 134.36 269.26 134.28 269.86" stroke="black" stroke-width="0.2" stroke-linecap="round" stroke-linejoin="round"/>
<path d="M131.44 265.56C131.8 265.44 132.61 266.35 133.13 267.6C133.65 268.86 133.73 270.02 133.36 270.14" stroke="black" stroke-width="0.2" stroke-linecap="round" stroke-linejoin="round"/>
<path d="M130.98 265.69C131.47 266.09 132.03 266.85 132.44 267.81C132.84 268.76 132.96 269.69 132.88 270.29" stroke="black" stroke-width="0.2" stroke-linecap="round" stroke-linejoin="round"/>
<path d="M130.04 265.99C130.4 265.87 131.21 266.78 131.73 268.03C132.25 269.29 132.33 270.45 131.96 270.57" stroke="black" stroke-width="0.2" stroke-linecap="round" stroke-linejoin="round"/>
<path d="M129.58 266.11C130.07 266.51 130.63 267.27 131.04 268.23C131.44 269.19 131.56 270.11 131.48 270.71" stroke="black" stroke-width="0.2" stroke-linecap="round" stroke-linejoin="round"/>
<path d="M128.65 266.42C129.01 266.3 129.82 267.21 130.34 268.46C130.86 269.72 130.94 270.88 130.57 271" stroke="black" stroke-width="0.2" stroke-linecap="round" stroke-linejoin="round"/>
<path d="M128.18 266.54C128.67 266.94 129.24 267.7 129.64 268.66C130.04 269.62 130.16 270.54 130.08 271.14" stroke="black" stroke-width="0.2" stroke-linecap="round" stroke-linejoin="round"/>
<path d="M127.25 266.84C127.61 266.72 128.42 267.63 128.94 268.88C129.46 270.14 129.54 271.3 129.17 271.42" stroke="black" stroke-width="0.2" stroke-linecap="round" stroke-linejoin="round"/>
<path d="M126.78 266.97C127.27 267.37 127.84 268.13 128.24 269.09C128.64 270.04 128.76 270.97 128.68 271.57" stroke="black" stroke-width="0.2" stroke-linecap="round" stroke-linejoin="round"/>
<path d="M125.85 267.27C126.21 267.15 127.02 268.06 127.54 269.31C128.06 270.57 128.14 271.73 127.77 271.85" stroke="black" stroke-width="0.2" stroke-linecap="round" stroke-linejoin="round"/>
<path d="M120.47 267.5L121.58 269.34C121.62 269.4 121.66 269.45 121.69 269.47L122.79 270.29C122.94 270.4 123.08 270.79 123.04 270.98L122.74 272.33C122.74 272.33 122.74 272.44 122.74 272.51L123.08 274.64C123.13 274.93 122.99 274.98 122.84 274.73L121.73 272.89C121.69 272.83 121.65 272.78 121.62 272.76L120.52 271.94C120.37 271.83 120.23 271.44 120.27 271.25L120.57 269.9C120.57 269.9 120.57 269.79 120.57 269.72L120.23 267.59C120.18 267.3 120.32 267.25 120.47 267.5Z" stroke="black" stroke-width="0.2" stroke-linecap="round" stroke-linejoin="round"/>
<path d="M285.93 225.46L384.56 195.07" stroke="#231815" stroke-width="0.4" stroke-miterlimit="10"/>
<path d="M383.94 197.09L389.64 193.5L382.91 193.75L383.94 197.09Z" fill="#231815"/>
<path d="M137.14 266.25L254.85 230.03" stroke="#231815" stroke-width="0.4" stroke-miterlimit="10"/>
<path d="M254.22 232.04L259.93 228.46L253.2 228.71L254.22 232.04Z" fill="#231815"/>
<path d="M283.93 184.46L310.6 176.17" stroke="#231815" stroke-width="0.4" stroke-miterlimit="10"/>
<path d="M309.98 178.19L315.68 174.59L308.95 174.86L309.98 178.19Z" fill="#231815"/>
<path d="M201.68 210.59L246.93 196.46" stroke="#231815" stroke-width="0.4" stroke-miterlimit="10"/>
</g>
<defs>
<clipPath id="clip0_483_13173">
<rect width="483" height="348" fill="white"/>
</clipPath>
</defs>
</svg>
