<svg xmlns="http://www.w3.org/2000/svg" width="296" height="285" fill="none" viewBox="0 0 296 285"><g clip-path="url(#a)"><path fill="#fff" d="M295.26 0H0v284.46h295.26z"/><path stroke="#231815" stroke-linecap="round" stroke-linejoin="round" stroke-width="1.5" d="M128.05 142.23h46.17"/><path fill="#231815" d="m170.85 146.68 1.88-4.45-1.88-4.44 10.53 4.44z"/><path stroke="#231815" stroke-linecap="round" stroke-linejoin="round" stroke-width=".5" d="M239.17 261.93h-15.3M239.17 259.97h-15.3M221.69 258.52h2.18M239.17 258.52h29.39M260.43 246.02h-30.61M274.7 255.91l-.12.12M209.67 234.97h3.4M280.59 234.97h-3.4M229.82 203.5h30.61M280.59 33.11v11.37M280.59 47.88v187.09M278.63 47.88v187.09M277.19 234.97v14.93M277.19 47.88v-1.7M268.94 212.01v25.51M267.24 29.09v27.47M264.35 56.56V29.09M213.07 163.71h-3.4M256.52 56.56V29.09M255.33 24.24v.85M253.63 56.56V29.09M253.63 25.09V22.8M250.23 22.8v3.74M248.95 177.74v13.6M213.07 146.7h-3.4M241.3 191.34v-13.6M239.17 261.93v-3.41M231.52 26.54V22.8M228.12 22.8v2.29M226.42 24.57v.52M223.87 261.93v-3.41M221.32 237.52v-25.51M221.15 167.53V79.94M217.74 79.94v87.59M213.07 46.18v1.7M213.07 83.77v17.01M213.07 146.7v17.01M213.07 249.9v-14.93M211.62 234.97v-71.26M211.62 146.7v-45.92M211.62 83.77V47.88M209.67 234.97v-71.26M209.67 146.7v-45.92M209.67 83.77V47.88M209.67 44.48V33.11M213.07 100.78h-3.4M213.07 83.77h-3.4M264.35 53.25h-7.83M264.35 50.9h-7.83M247.76 48.9h-9.44M264.35 48.11h-7.83M280.59 47.88h-3.4M213.07 47.88h-3.4M215.68 256.03l-.12-.12M211.37 46.18h1.7M278.89 46.18h-1.7M256.52 44.25h7.83M256.52 42.81h7.83M264.35 41.8h-7.83M238.32 41.25h9.44M264.35 40.36h-7.83M264.35 33.56h-7.83M264.35 31.85h-7.83M264.35 29.45h-7.83M249.72 27.05h-17.69M255.33 25.09h-1.7M228.12 25.09h-1.7M228.12 24.75h3.4M250.23 24.75h3.4M250.23 24.5h-18.71M253.63 22.8h-25.51M219 23.18c1.88-.12 3.76-.22 5.64-.31M257.08 22.54c4.73.13 9.45.35 14.17.64M209.67 33.11c0-5.26 4.09-9.6 9.33-9.93M271.26 23.18c5.25.33 9.33 4.67 9.33 9.93M221.32 212.01a8.5 8.5 0 0 1 8.5-8.5M229.82 246.02a8.5 8.5 0 0 1-8.5-8.5M268.94 237.52a8.5 8.5 0 0 1-8.5 8.5M260.43 203.5a8.5 8.5 0 0 1 8.5 8.5M277.19 249.9a8.5 8.5 0 0 1-2.49 6.01M274.58 256.03a8.52 8.52 0 0 1-6.01 2.49M221.69 258.52a8.5 8.5 0 0 1-6.01-2.49M215.56 255.91a8.52 8.52 0 0 1-2.49-6.01M247.76 48.9a3.83 3.83 0 0 0 3.83-3.83m0 .01a3.83 3.83 0 0 0-3.83-3.83M234.5 45.08a3.83 3.83 0 0 1 3.83-3.83m-.01 7.65a3.83 3.83 0 0 1-3.83-3.83M241.3 191.34a3.83 3.83 0 0 0 7.66 0M248.95 177.74a3.83 3.83 0 0 0-3.83-3.83m.01 0a3.83 3.83 0 0 0-3.83 3.83M211.37 46.18c-.94 0-1.7-.76-1.7-1.7"/><path stroke="#231815" stroke-linecap="round" stroke-linejoin="round" stroke-width=".5" d="M226.42 24.57c0-.47-.19-.91-.53-1.23s-.79-.49-1.26-.47M257.08 22.54a1.705 1.705 0 0 0-1.75 1.7M280.59 44.48c0 .94-.76 1.7-1.7 1.7M217.74 167.53c0 .94.76 1.7 1.7 1.7m.01 0c.94 0 1.7-.76 1.7-1.7M221.15 79.94c0-.94-.76-1.7-1.7-1.7s-1.7.76-1.7 1.7M256.52 29.09c0-.8-.65-1.45-1.45-1.45m.01 0c-.8 0-1.45.65-1.45 1.45M253.63 56.56c0 .8.65 1.45 1.45 1.45m0-.01c.8 0 1.45-.65 1.45-1.45M264.35 56.56c0 .8.65 1.45 1.45 1.45m-.01-.01c.8 0 1.45-.65 1.45-1.45M267.24 29.09a1.451 1.451 0 0 0-2.9 0M250.23 26.54c0 .28-.23.51-.51.51M232.03 27.05c-.28 0-.51-.23-.51-.51"/><path stroke="#231815" stroke-linecap="round" stroke-linejoin="round" d="M239.17 261.93h-15.3M221.69 258.52h2.18M239.17 258.52h29.39M260.43 246.02h-30.61M274.7 255.91l-.12.12M209.67 234.97h3.4M280.59 234.97h-3.4M229.82 203.5h30.61M280.59 33.11v11.37M280.59 47.88v187.09M277.19 234.97v14.93M277.19 47.88v-1.7M268.94 212.01v25.51M213.07 163.71h-3.4M255.33 24.24v.85M253.63 25.09V22.8M248.95 177.74v13.6M213.07 146.7h-3.4M241.3 191.34v-13.6M239.17 261.93v-3.41M228.12 22.8v2.29M226.42 24.57v.52M223.87 261.93v-3.41M221.32 237.52v-25.51M221.15 167.53V79.94M217.74 79.94v87.59M213.07 46.18v1.7M213.07 83.77v17.01M213.07 146.7v17.01M213.07 249.9v-14.93M209.67 234.97v-71.26M209.67 146.7v-45.92M209.67 83.77V47.88M209.67 44.48V33.11M213.07 100.78h-3.4M213.07 83.77h-3.4M280.59 47.88h-3.4M213.07 47.88h-3.4M215.68 256.03l-.12-.12M211.37 46.18h1.7M278.89 46.18h-1.7M255.33 25.09h-1.7M228.12 25.09h-1.7M253.63 22.8h-25.51M219 23.18c1.88-.12 3.76-.22 5.64-.31M257.08 22.54c4.73.13 9.45.35 14.17.64M209.67 33.11c0-5.26 4.09-9.6 9.33-9.93M271.26 23.18c5.25.33 9.33 4.67 9.33 9.93M221.32 212.01a8.5 8.5 0 0 1 8.5-8.5M229.82 246.02a8.5 8.5 0 0 1-8.5-8.5M268.94 237.52a8.5 8.5 0 0 1-8.5 8.5M260.43 203.5a8.5 8.5 0 0 1 8.5 8.5M277.19 249.9a8.5 8.5 0 0 1-2.49 6.01M274.58 256.03a8.52 8.52 0 0 1-6.01 2.49M221.69 258.52a8.5 8.5 0 0 1-6.01-2.49M215.56 255.91a8.52 8.52 0 0 1-2.49-6.01M241.3 191.34a3.83 3.83 0 0 0 7.66 0M248.95 177.74a3.83 3.83 0 0 0-3.83-3.83m.01 0a3.83 3.83 0 0 0-3.83 3.83M211.37 46.18c-.94 0-1.7-.76-1.7-1.7"/><path stroke="#231815" stroke-linecap="round" stroke-linejoin="round" d="M226.42 24.57c0-.47-.19-.91-.53-1.23s-.79-.49-1.26-.47M257.08 22.54a1.705 1.705 0 0 0-1.75 1.7M280.59 44.48c0 .94-.76 1.7-1.7 1.7M217.74 167.53c0 .94.76 1.7 1.7 1.7m.01 0c.94 0 1.7-.76 1.7-1.7M221.15 79.94c0-.94-.76-1.7-1.7-1.7s-1.7.76-1.7 1.7M247.76 48.9h-9.44M238.32 41.25h9.44M247.76 48.9a3.83 3.83 0 0 0 3.83-3.83m0 .01a3.83 3.83 0 0 0-3.83-3.83M234.5 45.08a3.83 3.83 0 0 1 3.83-3.83m-.01 7.65a3.83 3.83 0 0 1-3.83-3.83"/><path fill="#fff" stroke="#231815" stroke-linecap="round" stroke-linejoin="round" stroke-width=".5" d="M247.3 45.08c0-2.35-1.9-4.25-4.25-4.25s-4.25 1.9-4.25 4.25 1.9 4.25 4.25 4.25 4.25-1.9 4.25-4.25"/><path stroke="#231815" stroke-linecap="round" stroke-linejoin="round" stroke-width=".5" d="M240.49 45.93v-1.7M242.19 47.63v-1.7M242.19 44.23v-1.71M243.89 42.52v1.71M243.89 45.93v1.7M245.6 44.23v1.7M243.89 47.63h-1.7M245.6 45.93h-1.71M242.19 45.93h-1.7M240.49 44.23h1.7M243.89 44.23h1.71M242.19 42.52h1.7"/><path fill="#fff" stroke="#231815" stroke-linecap="round" stroke-linejoin="round" stroke-width=".5" d="M249.38 177.74c0-2.35-1.9-4.25-4.25-4.25s-4.25 1.9-4.25 4.25 1.9 4.25 4.25 4.25 4.25-1.9 4.25-4.25"/><path stroke="#231815" stroke-linecap="round" stroke-linejoin="round" stroke-width=".5" d="M242.58 178.59v-1.7M244.28 180.29v-1.7M244.28 176.89v-1.7M245.98 175.19v1.7M245.98 178.59v1.7M247.68 176.89v1.7M245.98 180.29h-1.7M247.68 178.59h-1.7M244.28 178.59h-1.7M242.58 176.89h1.7M245.98 176.89h1.7M244.28 175.19h1.7"/><path fill="#fff" d="m99.37 30.01-.28-1.56-.41-1.48-.57-1.48-.68-1.37-.86-1.4-.93-1.22-1.03-1.13-1.13-1.03-1.31-.99-1.31-.8-1.37-.68-1.48-.57-1.48-.41-.54-.12c-.72-.14-1.45-.23-2.18-.28l-7.83-.42-7.83-.27-7.84-.13H57.7l-8.14.06-8.14.22-8.13.38-2.71.16h-.08c-.37.02-.73.06-1.1.11h-.04c-.38.05-.75.12-1.12.19l-1.51.39-1.44.51-1.41.65-1.32.76-1.29.92-1.15 1-1.05 1.09-.95 1.19-.87 1.32-.72 1.34-.59 1.4-.47 1.48-.33 1.49-.08.53c-.11.76-.16 1.55-.16 2.33v219.25l.08 1.68.21 1.52.38 1.64.53 1.58.68 1.53.75 1.34.95 1.38 1.08 1.28.94.94 1.28 1.08 1.08.77 1.14.69 1.5.74 1.56.59 1.82.48c.81.17 1.65.28 2.47.34 0 0 .02.02.03.02s.02-.01.04-.02l7.86.39 7.86.25 7.87.11h2.62l7.59-.07 7.59-.21 7.58-.34 2.53-.14c.78-.05 1.55-.14 2.3-.29l1.63-.39 1.52-.52 1.52-.69 1.4-.8 1.32-.93.27.17-.19-.23 1.23-1.06 1.12-1.15 1.01-1.25.31-.44.31.08-.25-.17.85-1.38.71-1.44.4-1 .5-1.59.34-1.58.09-.58q.15-1.155.15-2.31V32.21c0-.73-.05-1.47-.15-2.2z"/><path stroke="#231815" stroke-linecap="round" stroke-linejoin="round" stroke-width=".5" d="m19.44 248.53-.01-.12M14.67 32.47v218.74M17.56 32.47V248.6M19.43 248.41V32.38M94.95 32.47v215.96M96.83 248.6V32.47M99.71 32.47v218.74"/><path fill="#727171" d="M64.18 187.23c0-.62-.06-1.15-.5-1.59-.28-.28-.63-.46-.96-.67-1.33-.84-2.66-1.69-3.98-2.53-.03-.24.08-5.5-.07-5.56-.15-.46-.58-.81-1.04-.88h-6.68c-.49.04-.95.38-1.12.85-.11.27-.09.57-.09.85v11.65c0 .14.03.28.08.41.16.45.57.79 1.04.86h5.49c.1 1.25.86 2.43 1.92 3.04v2.96h.91v-3.54c-1.18-.25-2.07-1.39-2.19-2.57-.08-.83.34-1.62.91-2.19l-1.65-2.64c-.18-.28-.35-.57-.53-.85a.7.7 0 0 1-.13-.3c-.06-.43.44-.75.8-.51.06.04.12.09.16.16.29.47.57.94.86 1.41.83 1.37 1.67 2.73 2.5 4.1.26-.16.52-.32.78-.47-.72-1.17-1.43-2.34-2.15-3.51v-2.28c1.26.8 2.53 1.61 3.78 2.4.13.08.25.16.37.25.27.21.46.51.54.84.02.08.03.15.04.23.02.09 0 9.4 0 9.49h.91zM58 184.92c-.15-.25-.3-.49-.45-.74-.14-.24-.28-.5-.53-.65-.89-.62-2.12.13-1.97 1.21.07.47.44.86.66 1.27.47.75.93 1.5 1.4 2.24-.37.48-.65 1.04-.75 1.63-.52-.02-5.12.03-5.51-.02a.64.64 0 0 1-.3-.19s0-.01-.01-.02c0 0-.01-.02-.02-.02a.66.66 0 0 1-.11-.39v-11.96c0-.1.04-.19.09-.27 0 0 .02-.03.03-.04.11-.15.28-.23.46-.24.13.02 6.42-.03 6.54.02.12.03.23.09.3.19 0 0 0 .01.01.02 0 0 0 .01.01.02a.622.622 0 0 1 .11.29c.01.12 0 7.54 0 7.66z"/><path stroke="#898989" stroke-linecap="round" stroke-linejoin="round" stroke-width=".5" d="M89.08 73.3v-.02l-.01-.02v-.06l-.01-.02v-.03l-.01-.02v-.02l-.01-.04v-.02l-.01-.02-.01-.02v-.02l-.01-.01-.01-.04-.01-.02v-.02l-.02-.03v-.02l-.05-.1-.01-.02-.01-.01-.01-.02-.01-.02-.01-.01-.01-.02-.01-.01-.01-.02-.01-.01-.02-.02-.01-.01-.01-.02-.01-.01-.01-.02-.01-.01-.03-.03-.01-.01-.01-.02-.02-.01-.01-.01-.03-.03-.01-.01-.01-.02-.02-.01-.01-.01-.02-.01-.01-.01-.02-.02-.01-.01-.02-.01-.01-.01-.02-.01-.03-.02-.02-.01-.01-.01-.02-.01-.01-.01-.02-.01-.02-.01-.01-.01-.05-.02-.02-.01-.04-.01-.01-.01-.02-.01-.02-.01h-.02l-.02-.01-.01-.01-.12-.03h-.03l-.02-.01h-.04l-.02-.01h-.06l-.04-.01H69.55v4.25h15.28v15.28h4.25V73.3M25.31 73.3v-.08l.01-.02v-.02l.01-.03v-.04l.01-.04.01-.02v-.02l.01-.02v-.02l.01-.01.01-.04.01-.02.01-.02.01-.03.01-.02.05-.1.01-.02.01-.01.01-.02v-.02l.01-.01.01-.02.02-.01.01-.02.01-.01.01-.02.01-.01.01-.02.01-.01.01-.02.02-.01.02-.03.01-.01.02-.02.01-.01.01-.01.03-.03.01-.01.02-.02.01-.01.02-.01.01-.01.02-.01.01-.02.01-.01.02-.01.02-.01.01-.01.03-.02.02-.01.01-.01.02-.01.02-.01.01-.01.02-.01.02-.01.05-.02.01-.01.04-.01.02-.01.01-.01.02-.01h.02l.02-.01.02-.01.11-.03h.04l.02-.01h.03l.02-.01h.06l.04-.01h18.26v4.25H29.55v15.28H25.3V73.34zM89.08 132.01v.02l-.01.02v.06l-.01.02v.03l-.01.02v.02l-.01.04v.02l-.01.02-.01.02v.01l-.01.02-.01.04-.01.02v.01l-.02.04v.02l-.05.1-.01.01-.01.02-.01.02-.01.01-.01.02-.01.02-.01.01-.01.02-.01.01-.02.02-.01.01-.01.02-.01.01-.01.02-.01.01-.03.03-.01.01-.01.02-.02.01-.01.01-.03.03-.01.01-.01.02-.02.01-.01.01-.02.01-.01.01-.02.01-.01.01-.02.02-.01.01-.02.01-.03.02-.02.01-.01.01-.02.01-.01.01-.02.01-.02.01-.01.01-.05.02-.02.01-.04.01-.01.01-.02.01-.02.01h-.02l-.02.01h-.01l-.12.03-.03.01-.02.01h-.04l-.02.01h-.06l-.04.01H69.55v-4.25h15.28v-15.28h4.25v18.27M25.31 132.01v.08l.01.02v.02l.01.03v.04l.01.04.01.02v.02l.01.02v.01l.01.02.01.04.01.02.01.01.01.04.01.02.05.1.01.01.01.02.01.02v.01l.01.02.01.02.02.01.01.02.01.01.01.02.01.01.01.02.01.01.01.02.02.01.02.03.01.01.02.02.01.01.01.01.03.03.01.01.02.02.01.01.02.01.01.01.02.01.01.01.01.01.02.02.02.01.01.01.03.02.02.01.01.01.02.01.02.01.01.01.02.01.02.01.05.02.01.01.04.01.02.01.01.01.02.01h.02l.02.01h.02l.11.03.04.01.02.01h.03l.02.01h.06l.04.01h18.26v-4.25H29.55v-15.28H25.3v18.23z"/><path fill="#c9caca" d="m81 102.28-.01-.38-.01-.38-.02-.37-.03-.38-.03-.37-.04-.37-.04-.37-.05-.37-.06-.36-.06-.36-.06-.36-.07-.37-.08-.35-.08-.36-.09-.35-.09-.35-.1-.35-.1-.35-.11-.34-.11-.35-.12-.34-.12-.34-.13-.33-.13-.33-.14-.33-.14-.33-.15-.33-.15-.32-.15-.32-.16-.32-.17-.31-.17-.32-.17-.3-.18-.31-.19-.3-.18-.3-.2-.3-.19-.29-.2-.3-.21-.28-.21-.29-.21-.28-.22-.28-.22-.27-.22-.28-.23-.26-.23-.27-.24-.26-.24-.26-.25-.25-.24-.25-.25-.25-.26-.24-.26-.24-.26-.24-.27-.23-.26-.23-.28-.22-.27-.22-.28-.22-.29-.21-.28-.21-.29-.2-.29-.2-.3-.2-.29-.19-.31-.18-.3-.19-.31-.17-.31-.18-.31-.16-.32-.17-.31-.16-.32-.15-.33-.15-.32-.15-.33-.14-.33-.14-.34-.13-.33-.12-.34-.13-.34-.11-.34-.11-.35-.11-.35-.1-.35-.1-.35-.09-.35-.08-.36-.08-.36-.08-.36-.07-.36-.06-.36-.06-.37-.05-.37-.05-.36-.04-.38-.04-.37-.03-.37-.02-.38-.02-.37-.02h-.38l-.38-.01-.38.01-.38.01-.38.02-.37.02-.37.03-.38.03-.37.04-.36.04-.37.05-.36.06-.37.06-.36.07-.36.07-.35.08-.36.08-.35.09-.35.09-.35.1-.35.1-.34.11-.34.12-.34.11-.34.13-.34.13-.33.13-.33.14-.33.14-.32.15-.32.15-.32.16-.32.16-.31.17-.32.17-.3.18-.31.18-.3.18-.3.19-.3.19-.29.2-.29.2-.29.21-.28.21-.28.21-.28.22-.28.22-.27.22-.26.24-.27.23-.26.24-.26.24-.25.24-.25.25-.24.25-.25.26-.23.26-.24.26-.23.27-.23.27-.22.27-.22.28-.21.28-.22.28-.2.29-.2.29-.2.29-.2.3-.19.3-.18.3-.18.3-.18.31-.17.31-.17.31-.16.32-.16.32-.16.32-.14.32-.15.33-.14.33-.13.33-.13.34-.13.33-.12.34-.11.34-.11.35-.11.34-.1.35-.09.35-.09.36-.09.35-.08.36-.07.35-.07.37-.06.36-.06.36-.05.37-.05.36-.04.37-.03.38-.03.37-.02.37-.02.38-.01.38-.01.38v.37l.01.38.01.38.02.38.02.37.03.37.03.38.04.36.05.37.05.37.06.36.06.37.07.36.07.35.08.36.09.36.09.35.09.35.1.35.11.34.11.35.11.34.12.34.13.33.13.34.13.33.14.33.15.33.14.32.16.32.16.32.16.32.17.31.17.31.18.31.18.3.18.3.19.3.2.3.2.29.2.29.2.29.22.28.21.28.22.28.22.27.23.27.23.27.24.26.23.26.25.26.24.25.25.25.25.24.26.24.26.24.27.23.26.23.27.23.28.22.28.22.28.21.28.21.29.21.29.2.29.2.3.19.3.19.3.18.31.18.3.18.32.17.31.17.32.16.32.16.32.15.32.15.33.14.33.14.33.13.34.13.34.13.34.11.34.12.34.11.35.1.35.1.35.09.35.09.36.08.35.08.36.07.36.07.37.06.36.06.37.05.36.04.37.04.38.04.37.02.37.02.38.02.38.01.38.01.38-.01h.38l.37-.02.38-.02.37-.02.37-.03.38-.04.36-.04.37-.05.37-.05.36-.06.36-.06.36-.07.36-.08.36-.08.35-.08.35-.09.35-.1.35-.1.35-.11.34-.11.34-.11.34-.13.33-.12.34-.13.33-.14.33-.14.32-.15.33-.15.32-.15.31-.16.32-.16.31-.17.31-.18.31-.18.3-.18.31-.18.29-.19.3-.2.29-.2.29-.2.28-.21.29-.21.28-.22.27-.22.28-.22.26-.23.27-.23.26-.24.26-.24.26-.24.25-.25.24-.25.25-.25.24-.26.24-.26.23-.27.23-.26.22-.28.22-.27.22-.28.21-.28.21-.28.21-.29.2-.29.19-.3.2-.3.18-.3.19-.3.18-.31.17-.31.17-.31.17-.31.16-.32.15-.32.15-.32.15-.33.14-.33.14-.33.13-.33.13-.34.12-.33.12-.34.11-.35.11-.34.1-.35.1-.35.09-.35.09-.35.08-.36.08-.36.07-.35.06-.37.06-.36.06-.36.05-.37.04-.37.04-.37.03-.37.03-.38.02-.37.01-.38.01-.38v-.75"/><path fill="#727171" d="M51.91 70.44v1.14h10.56v-1.14zM53.05 66.87h2.43v-1.14h-2.25l-.02.01h-.06l-.1.02h-.02l-.02.01-.06.01-.02.01h-.02l-.04.02h-.01l-.02.01-.04.02h-.02l-.02.01-.02.01-.05.03-.02.01h-.01l-.02.01-.05.03-.02.01-.02.02-.01.01-.02.01-.03.02-.03.02-.03.03-.02.01-.01.01-.02.02-.01.01-.02.01-.01.02-.01.01-.02.02-.01.01-.01.01-.02.02-.01.01-.01.02-.02.01-.01.02-.02.03-.01.02-.02.01-.01.02-.01.01-.01.02-.01.02-.01.01-.01.02-.01.02-.01.02-.01.01-.01.02-.01.02-.01.02v.02l-.01.01-.01.02-.01.02-.01.02v.02l-.01.02-.01.01v.02l-.01.02-.01.02v.02l-.01.02v.02l-.01.02v.02l-.01.02v.04l-.01.02v.04l-.01.02v.08l-.01.02v2.22h1.14zM62.47 67.1V67l-.01-.02v-.02l-.01-.08-.01-.02v-.02l-.01-.02v-.02l-.01-.02v-.02l-.01-.02v-.02l-.04-.09-.01-.02v-.02l-.01-.02-.01-.01-.01-.02-.01-.02-.01-.02-.01-.02v-.01l-.01-.02-.03-.04-.01-.01-.01-.02-.01-.02-.01-.01-.01-.02-.01-.01-.01-.02-.01-.02-.02-.01-.02-.03-.01-.02-.02-.01-.01-.02-.01-.01-.02-.01-.02-.03-.02-.02-.01-.01-.02-.01-.01-.02-.02-.01-.01-.01-.06-.05-.02-.01-.02-.01-.01-.01-.02-.01-.1-.07h-.02l-.02-.01-.01-.01-.02-.01-.02-.01-.02-.01-.02-.01h-.01l-.04-.02-.02-.01h-.02l-.02-.01-.02-.01h-.02l-.02-.01h-.02l-.02-.01h-.01l-.03-.01h-.03l-.09-.02h-.06l-.02-.01h-2.24v1.14h2.42v2.43h1.14v-2.2M61.33 75.15h-2.42v1.14h2.26l.02-.01h.04l.11-.02h.02l.02-.01.05-.01.02-.01h.02l.04-.02h.02l.02-.01.04-.01.01-.01.02-.01.02-.01.05-.02.02-.01.02-.01.02-.01.05-.03.01-.01.02-.01.02-.01.01-.01.04-.03.03-.02.03-.03.01-.01.02-.01.01-.02.02-.01.01-.01.02-.02.01-.01.01-.01.02-.02.01-.01.01-.02.02-.01.01-.02.01-.01.01-.02.03-.03.01-.01.01-.02.01-.02.01-.01.01-.02.01-.02.02-.01.01-.02.01-.02.01-.01v-.02l.01-.02.01-.02.01-.01.01-.02.01-.02.01-.02v-.02l.01-.02.01-.01.01-.02v-.02l.01-.02.01-.02v-.02l.01-.02v-.02l.01-.02v-.02l.01-.02v-.02l.01-.02v-.04l.01-.02v-.04l.01-.02v-2.3h-1.14zM53.05 72.72h-1.14v2.22l.01.02v.08l.01.02.01.08v.02l.01.02v.02l.01.02v.02l.01.02v.02l.01.02.03.09.01.02.01.02.01.02.01.02v.02l.01.01.01.02.01.02.01.02.01.01.02.04.01.01.01.02.01.02.01.01.02.02.01.02.01.01.01.02.01.01.03.03.01.02.01.01.02.02.01.01.01.02.03.02.02.02.01.01.01.01.02.02.01.01.02.01.06.05.02.01.01.02.02.01.01.01.11.06.01.01.02.01.02.01h.02l.02.01.01.01.02.01.02.01.04.01.02.01h.01l.02.01.02.01h.02l.02.01h.02l.02.01h.02l.02.01h.02l.02.01.08.01h.04l.02.01h2.27v-1.14h-2.43z"/><path stroke="#898989" stroke-linecap="round" stroke-linejoin="round" stroke-width=".5" d="m42.78 33.9.01-.01M42.8 33.85l.01-.01M42.79 33.89v-.01M42.79 33.88l.01-.02M42.8 33.86v-.01M42.81 33.84l.01-.02M42.82 33.8l.01-.01M42.83 33.79l.01-.02M42.85 33.76v-.01M42.82 33.82v-.02M42.85 33.75l.01-.01M42.87 33.71l.01-.01M42.84 33.77l.01-.01M42.86 33.74l.01-.02M42.87 33.72v-.01M42.88 33.7l.01-.01M42.89 33.69l.01-.02M42.9 33.67l.01-.01M42.91 33.66l.01-.01M42.92 33.65l.02-.02M42.94 33.63l.01-.01M42.95 33.61l.02-.02M42.99 33.58l.01-.01M42.95 33.62v-.01M42.97 33.59l.02-.01M43 33.57l.01-.01M43.01 33.56l.01-.01M43.02 33.55l.01-.01M43.03 33.54l.02-.02M43.05 33.52l.01-.01M43.07 33.51l.01-.01M43.09 33.49l.01-.01M43.06 33.51h.01M43.08 33.5l.01-.01M43.1 33.48l.02-.01M43.12 33.47l.01-.01M43.13 33.46h.01M43.14 33.46l.04-.02M43.18 33.44l.01-.01M43.2 33.42h.01M42.74 34.06l.01-.03M42.75 34.03V34M42.76 33.99v-.01M42.75 34l.01-.01M42.76 33.96l.01-.01M42.76 33.98v-.02M42.77 33.94v-.01M42.78 33.91v-.01M42.77 33.95v-.01M42.77 33.93l.01-.02M71.5 34.66l-.01.02M71.57 34.54l-.01.01M71.52 34.63l-.01.01M71.56 34.56l-.01.02M71.53 34.61v.01M71.55 34.59l-.01.01M71.54 34.6l-.01.01M71.47 34.7v.01M71.53 34.62l-.01.01M71.51 34.64l-.01.02M71.42 34.76l-.01.01M71.49 34.68l-.02.02M71.44 34.74l-.01.02M71.47 34.71l-.02.02M71.45 34.73l-.01.01M71.36 34.82l-.01.01M71.43 34.76h-.01M71.41 34.77l-.03.03M71.32 34.85l-.02.02M71.38 34.8l-.02.02M71.35 34.83l-.02.01M71.28 34.88l-.01.01M71.18 34.94l-.01.01M71.33 34.84l-.01.01M71.22 34.92h-.01M71.25 34.9l-.01.01M71.3 34.87l-.02.01M71.27 34.89l-.01.01M71.26 34.9h-.01M71.2 34.93l-.01.01M71.24 34.91l-.02.01M43.19 33.43l.01-.01M43.21 33.42l.01-.01M43.22 33.41l.03-.01M43.25 33.4l.02-.01M43.27 33.39h.01M43.28 33.39l.01-.01M43.31 33.38l.01-.01M43.35 33.37l.01-.01M42.74 34.17v-.03M42.74 34.14v-.02M42.74 34.12v-.01M42.74 34.11v-.01M42.74 34.1v-.02M42.74 34.08v-.01M42.74 34.07v-.01M71.6 34.47v.01M71.61 34.44l-.01.01M71.63 34.38l-.01.01M71.62 34.41v.01M71.58 34.5v.02M71.6 34.45v.02M71.61 34.43v.01M71.55 34.58v.01M71.6 34.48l-.02.02M71.58 34.52l-.01.02M71.56 34.55v.01M71.21 34.92l-.01.01M71.07 34.99h-.01M71.19 34.94h-.01M71.12 34.97l-.04.01M71.17 34.95l-.04.01M71.13 34.96l-.01.01M70.99 35.01h-.01M71.03 35h-.01M71.06 34.99l-.01.01M42.74 34.27v-.01M42.74 34.26v-.01M42.74 34.25v-.02M42.74 34.23v-.01M42.74 34.22v-.01M42.74 34.21v-.02M42.74 34.19v-.02M71.63 34.35v.02M71.65 34.23l-.01.03M71.64 34.31v.02M71.64 34.27v.03M71.64 34.33l-.01.01M71.64 34.3v.01M71.63 34.34v.01M71.62 34.42l-.01.01M71.62 34.39v.02M71.63 34.37v.01M42.74 34.29v-.02M71.64 34.26v.01M71.65 34.11v.01M71.65 34.13v.1M42.76 34.38l-.01-.04M42.75 34.34v-.01M42.75 34.33v-.01M42.75 34.32l-.01-.03M42.77 34.42v-.01M42.78 34.46v-.02M42.77 34.43v-.01M42.76 34.39v-.01M42.77 34.41l-.01-.02M71.62 33.97l.01.02M71.63 34.01v.02M71.65 34.12v.01M71.64 34.04l.01.07M42.81 34.53l-.01-.01M42.8 34.52v-.01M42.79 34.49v-.01M42.79 34.48v-.01M42.79 34.47l-.01-.01M42.8 34.51l-.01-.02M42.78 34.44l-.01-.01M71.61 33.91v.01M71.63 34v.01M71.62 33.96v.01M42.85 34.6l-.01-.01M42.84 34.59l-.01-.01M42.83 34.57l-.01-.02M42.82 34.55v-.01M42.82 34.54l-.01-.01M71.61 33.94l.01.01M71.59 33.86v.01M71.63 34.03l.01.01M71.63 33.99V34M71.6 33.89v.01M71.61 33.92v.02M71.62 33.95v.01M42.87 34.63l-.01-.01M42.85 34.61v-.01M42.89 34.68v-.01M42.83 34.58v-.01M42.87 34.65v-.02M42.86 34.62l-.01-.01M71.55 33.79l.01.01M71.54 33.76v.01M71.6 33.9l.01.01M71.59 33.87l.01.02M71.57 33.81l.02.05M42.93 34.73l-.01-.02M42.92 34.71l-.01-.01M42.91 34.7l-.02-.02M42.89 34.67l-.01-.01M42.88 34.66l-.01-.01M71.56 33.8l.01.01M71.54 33.77l.01.02M71.52 33.73l.01.02M42.94 34.74l-.01-.01M43.01 34.8l-.01-.01M42.98 34.78l-.01-.01M42.96 34.76l-.01-.01M42.95 34.75l-.01-.01M71.5 33.7l.01.01M71.46 33.65l.01.01M71.53 33.75l.01.01M71.49 33.68l.01.02M71.51 33.71l.01.02M43.04 34.84l-.02-.02M43.02 34.82l-.01-.02M43 34.79l-.01-.01M42.99 34.78h-.01M42.97 34.77l-.01-.01M71.47 33.66l.02.02M71.41 33.59l.02.02M71.44 33.62l.02.03M43.13 34.9l-.01-.01M43.07 34.86l-.01-.01M43.1 34.88l-.02-.01M43.05 34.85l-.01-.01M71.36 33.54v.01M71.43 33.61l.01.01M71.37 33.55l.03.03M43.2 34.94l-.02-.01M43.18 34.93l-.02-.01M43.15 34.91h-.01M43.14 34.91l-.01-.01M43.12 34.89l-.02-.01M43.08 34.87l-.01-.01M43.06 34.85h-.01M71.4 33.58l.01.01M71.3 33.5l.02.01M71.36 33.55h.01M71.33 33.52l.03.02M43.23 34.95h-.01M71.18 33.42l.01.01M71.32 33.51l.01.01M71.23 33.45h.01M71.28 33.48l.02.02M71.25 33.46l.02.01M71.27 33.47l.01.01M43.32 34.99l-.02-.01M43.3 34.98h-.01M43.28 34.98l-.01-.01M43.27 34.97l-.02-.01M43.24 34.96l-.01-.01M43.25 34.96h-.01M43.22 34.95l-.01-.01M43.21 34.94h-.01M43.16 34.92l-.01-.01M71.15 33.41h.01M71.24 33.45l.01.01M71.21 33.43l.02.02M43.37 35l-.04-.01M43.33 34.99h-.01M43.29 34.98h-.01M71.05 33.37h.01M71.19 33.43h.02M71.07 33.38l.03.01M71.16 33.41l.02.01M71.11 33.39l.04.02M71.1 33.39h.01M70.93 33.34h.02M70.96 33.35h.01M71.02 33.36h.02M70.98 33.35l.03.01M43.46 35.02h-.02M43.42 35.02l-.05-.02M71.06 33.37l.01.01M71.01 33.36h.01M71.04 33.36l.01.01M70.82 33.33h.02M43.54 35.03h-.03M70.95 33.34l.01.01M70.85 33.33h.02M70.92 33.34h.01M70.88 33.33l.03.01M43.5 35.03l-.04-.01M43.44 35.02h-.02M70.97 33.35h.01M70.91 33.34h.01M70.83 35.03H43.54M70.86 35.03h-.01M70.89 35.03h-.02M43.51 35.03h-.01M43.49 33.34h.01M70.87 33.33h.01M43.53 33.33h.03M70.84 33.33h.01M43.57 33.33h27.25M71.02 35l-.03.01M71.05 35h-.02M70.97 35.01l-.02.01M71.08 34.98l-.01.01M70.93 35.02h-.02M70.95 35.02h-.01M43.38 33.35h.02M43.42 33.35l.03-.01M43.46 33.34h.03M70.91 35.02l-.02.01M70.94 35.02h-.01M70.87 35.03h-.01M70.85 35.03h-.02M70.98 35.01h-.01M43.5 33.34l.03-.01M43.56 33.33h.01M43.29 33.38h.02M43.32 33.37h.03M43.4 33.35h.01M43.36 33.36l.02-.01M43.45 33.34h.01M43.41 33.35h.01"/><path stroke="#231815" stroke-linecap="round" stroke-linejoin="round" stroke-width=".5" d="M83.46 20.25c-17.5-1.09-35.04-1.09-52.54 0M31.4 269.03h.08M28.89 268.69c.83.17 1.67.29 2.51.34M31.4 269.03h.08M19.44 248.43c0 6.56 5.1 11.99 11.65 12.39M31.08 260.82c17.39 1.08 34.83 1.08 52.22 0M30.63 15.5h-.09M30.54 15.5c-.77.05-1.54.16-2.3.31M14.84 30.1c-.11.78-.17 1.58-.17 2.37"/><path stroke="#231815" stroke-linecap="round" stroke-linejoin="round" stroke-width=".5" d="M30.54 15.5c-.77.05-1.54.16-2.3.31M30.63 15.5h-.09M30.81 18.38c-7.44.46-13.25 6.63-13.25 14.09"/><path stroke="#231815" stroke-linecap="round" stroke-linejoin="round" stroke-width=".5" d="M30.92 20.25c-6.46.4-11.49 5.75-11.49 12.22M82.9 269.04c.78-.05 1.56-.14 2.34-.29M99.56 253.56c.1-.78.16-1.56.16-2.35M83.3 260.82c6.55-.4 11.65-5.83 11.65-12.39M99.71 32.47c0-.75-.05-1.49-.15-2.23M85.98 15.78c-.73-.14-1.47-.24-2.22-.29M96.83 32.47c0-7.46-5.8-13.63-13.25-14.09"/><path stroke="#231815" stroke-linecap="round" stroke-linejoin="round" stroke-width=".5" d="M94.95 32.47c0-6.47-5.03-11.82-11.49-12.22M31.48 269.04l1.32.07 2.61.14 2.62.12 1.3.06 2.61.1 2.62.08 2.62.07 2.62.05 2.62.04 2.61.02h2.62M57.65 269.79h1.26l2.53-.02 2.52-.03 1.27-.02 2.53-.06 2.52-.06 2.53-.09 2.52-.09 2.53-.12 2.52-.12 2.52-.14M28.89 268.69l-.21-.04-.55-.14-.55-.14-.54-.17-.54-.18-.53-.2-.52-.22-.51-.23-.51-.25-.5-.26-.5-.29-.18-.11-.48-.3-.47-.32-.18-.12-.45-.34-.45-.35-.43-.37-.42-.38-.41-.39-.15-.15-.39-.41-.38-.42-.37-.44-.35-.44-.33-.46-.32-.47-.31-.47-.11-.19-.29-.49-.1-.19-.27-.5-.25-.51-.23-.52-.21-.52-.2-.53-.18-.53-.16-.55-.15-.54-.13-.56-.11-.55-.04-.21-.03-.21-.08-.56-.07-.57-.04-.56-.03-.57-.01-.56M28.24 15.82l-.51.11-.02.01-.5.12-.5.15-.49.16-.49.17-.48.19-.03.01-.47.2-.47.22-.46.23-.45.24-.45.26-.44.28-.43.28-.42.3-.05.04-.41.31-.4.33-.39.33-.38.35-.37.36-.36.37-.34.38-.33.39-.33.4-.31.41-.3.42-.29.44-.03.04-.27.44-.26.45-.24.46-.23.46-.21.47-.21.47-.18.48-.01.03-.18.49-.15.49-.14.49-.13.5-.11.51-.1.51v.02l-.08.51M83.76 15.5l-1.31-.08-2.6-.15-2.61-.13-1.29-.06-2.61-.1-2.61-.09-2.61-.08-2.6-.06-2.61-.04-2.61-.03-2.61-.01M57.69 14.67h-1.35l-2.7.02-2.71.03-1.36.02-2.71.06-2.71.07-2.7.09-2.71.11-2.71.13-2.7.14-2.7.16M85.98 15.78l.51.11.04.01.51.13.5.14.49.15.49.17.49.19.05.02.48.2.47.21.46.23.46.25.45.25.44.28.44.28.42.3.09.06.41.32.41.32.39.34.39.35.37.36.36.37.35.39.33.39.33.4.31.42.3.42.29.44.06.08.27.45.26.45.24.46.23.46.22.48.2.47.18.49.17.49.02.05.16.49.13.5.13.51.11.51.09.51.01.04.07.52M14.67 139.26v111.95M99.56 253.56l-.08.54-.01.05-.1.54-.12.53-.13.53-.14.53-.16.52-.18.51-.02.06-.2.51-.21.5-.23.5-.24.48-.26.48-.27.48-.28.47-.3.45-.04.05-.03.05-.32.45-.33.43-.34.43-.36.41-.36.4-.38.39-.39.38-.4.36-.42.36-.43.34-.05.04-.04.03-.44.33-.45.31-.46.3-.46.29-.47.27-.48.25-.49.24-.5.23-.06.02-.5.21-.51.19-.52.18-.52.16-.52.15-.54.13-.05.01-.53.11M17.56 248.6l.01.48.02.47.03.33.05.47.06.47.08.47.1.46.11.46.13.46.1.32.15.44.17.45.18.43.2.43.14.3.22.42.24.41.25.41.26.39.27.39.29.37.21.26.3.36.32.35.33.34.34.33.25.23.36.3.37.3.38.28.38.27.4.26.41.25.28.16.42.22.43.21.43.2.44.18.31.11.45.16.45.14.46.12.46.11.46.09.47.08.33.05.47.05.47.04M31 262.88l4.16.23 4.2.2 4.24.16.49.01.5.02 4.23.1 4.21.07 4.16.02 4.17-.02 4.2-.07 4.24-.1.5-.02.49-.01 4.23-.16 4.2-.2 4.17-.23"/><path stroke="#231815" stroke-linecap="round" stroke-linejoin="round" stroke-width=".5" d="m83.39 262.88.47-.04.47-.05.33-.05.46-.08.47-.09.46-.11.46-.12.45-.14.45-.16.31-.11.43-.18.44-.2.42-.21.42-.22.29-.16.4-.25.4-.26.39-.27.38-.28.37-.3.36-.31.24-.22.35-.33.33-.34.31-.35.31-.36.21-.26.29-.37.27-.39.26-.39.25-.41.23-.41.22-.42.15-.3.2-.43.18-.43.16-.45.16-.44.1-.32.12-.46.11-.46.1-.46.08-.47.07-.47.05-.47.02-.33.03-.47.01-.48M83.58 18.38l-4.2-.24-4.22-.2-4.24-.16-.53-.01-.52-.02-4.25-.11-4.22-.06-4.21-.02-4.2.02-4.23.06-4.24.11-.53.02-.52.01-4.25.16-4.22.2-4.19.24"/><path fill="#898989" d="M48.12 242.33v2.75c0 .18 0 .45-.15.6-.1.1-.27.16-.5.16h-.73c-.12 0-.33 0-.48-.15-.12-.12-.19-.33-.19-.61v-2.75h-.92v2.77c0 .28.07 1.65 1.37 1.65h1.21c.49 0 1.32-.22 1.32-1.66v-2.77h-.93zM43.01 243.95l-1-.12c-.24-.04-.46-.1-.46-.35 0-.41.12-.52.94-.52h.21c.48.02.93.07 1.48.22l.07.02v-.64c-.08-.16-.84-.42-1.57-.42h-.2c-1.24 0-1.85.46-1.85 1.41 0 .91.77 1.11 1.48 1.22l.45.06c.33.04.51.07.63.11.19.08.3.14.3.45 0 .51-.34.56-1.07.56h-.2c-.43 0-.95-.12-1.5-.35l-.07-.03v.62c0 .25.76.57 1.61.57h.19c1.39 0 2.04-.47 2.04-1.48 0-.97-.72-1.22-1.43-1.32M52.2 242.12h-.14c-1.68 0-2.3.63-2.3 2.34v2.3h.98v-2.29c0-1.29.28-1.51 1.15-1.51h.22c.83 0 .99.24.99.84 0 .37-.12.79-.46.79l-1.55-.03v.67h.04c.31.05.86.09 1.28.09 1.44 0 1.68-.79 1.68-1.46 0-1.1-.71-1.75-1.9-1.75M57.4 242.18c-.25-.04-.85-.06-1.15-.06-.54 0-1.44.22-1.44 1.68v2.95h.96v-2.89c0-.78.14-.86.75-.86h.88v-.83zM60.37 245.9h-.19c-.82 0-1.31-.1-1.31-1.44 0-1.29.29-1.5 1.16-1.51h.22c.81 0 .99.13.99.75 0 .31-.14.44-.46.44h-1.55v.65h.04c.31.06.86.1 1.28.1.63 0 1.68-.12 1.68-1.32s-1.03-1.44-1.9-1.43h-.14c-1.68 0-2.31.63-2.31 2.34 0 1.63.64 2.29 2.21 2.29h.12c.99 0 1.83-.26 1.83-.57v-.54l-.07.02c-.58.15-1.03.24-1.61.24M68.72 243.83c0-.8-.3-1.21-.63-1.42 0 0-.35-.27-.98-.27-.31 0-.55.04-.74.1a1.1 1.1 0 0 0-.54.32s-.33-.43-1.28-.43c-.41 0-.71.11-.86.19h-.02s-.02 0-.02.01c-.62.34-.7 1.1-.7 1.48v2.92h.88v-2.92c0-.44.09-.85.74-.85.68 0 .81.31.82.85v2.92h.9v-2.92c0-.58.24-.86.75-.86.56 0 .81.26.81.85v2.92h.88v-2.92zM71.3 242.97h.19c.82 0 1.31.1 1.31 1.44 0 1.29-.29 1.5-1.16 1.51h-.22c-.81 0-.99-.13-.99-.75 0-.31.14-.44.46-.44h1.55v-.65h-.04c-.31-.06-.86-.1-1.28-.1-.63 0-1.68.12-1.68 1.32s1.03 1.44 1.9 1.43h.14c1.68 0 2.31-.63 2.31-2.34 0-1.63-.64-2.29-2.21-2.29h-.12c-.99 0-1.83.26-1.83.57v.54l.07-.02c.58-.15 1.03-.24 1.61-.24"/><path stroke="#231815" stroke-linecap="round" stroke-linejoin="round" d="M14.67 32.47v218.74M99.71 32.47v218.74M31.4 269.03h.08M28.89 268.69c.83.17 1.67.29 2.51.34M31.4 269.03h.08M30.63 15.5h-.09M30.54 15.5c-.77.05-1.54.16-2.3.31M14.84 30.1c-.11.78-.17 1.58-.17 2.37"/><path stroke="#231815" stroke-linecap="round" stroke-linejoin="round" d="M30.54 15.5c-.77.05-1.54.16-2.3.31M30.63 15.5h-.09M82.9 269.04c.78-.05 1.56-.14 2.34-.29M99.56 253.56c.1-.78.16-1.56.16-2.35M99.71 32.47c0-.75-.05-1.49-.15-2.23M85.98 15.78c-.73-.14-1.47-.24-2.22-.29M31.48 269.04l1.32.07 2.61.14 2.62.12 1.3.06 2.61.1 2.62.08 2.62.07 2.62.05 2.62.04 2.61.02h2.62M57.65 269.79h1.26l2.53-.02 2.52-.03 1.27-.02 2.53-.06 2.52-.06 2.53-.09 2.52-.1 2.53-.11 2.52-.12 2.52-.14M28.89 268.69l-.21-.04-.55-.14-.55-.14-.54-.17-.54-.18-.53-.2-.52-.22-.51-.23-.51-.25-.5-.26-.5-.29-.18-.11-.48-.3-.47-.32-.18-.12-.45-.34-.45-.35-.43-.37-.42-.38-.41-.39-.15-.15-.39-.41-.38-.43-.37-.43-.35-.44-.33-.46-.32-.47-.31-.47-.11-.19-.29-.49-.1-.19-.27-.5-.25-.51-.23-.52-.21-.52-.2-.53-.18-.53-.16-.55-.15-.54-.13-.56-.11-.55-.04-.21-.03-.21-.08-.56-.07-.57-.04-.56-.03-.57-.01-.56M28.24 15.82l-.51.11-.02.01-.5.12-.5.15-.49.16-.49.17-.48.19-.03.01-.47.2-.47.22-.46.23-.45.24-.45.26-.43.28-.44.28-.42.3-.05.04-.41.31-.4.33-.39.33-.38.35-.37.36-.36.37-.34.38-.33.39-.33.4-.31.41-.3.42-.29.44-.03.04-.27.44-.26.45-.24.46-.23.46-.21.47-.21.47-.18.48-.01.03-.17.49-.16.49-.14.49-.13.51-.11.5-.1.51v.02l-.08.51M83.76 15.5l-1.31-.08-2.6-.15-2.61-.13-1.29-.06-2.61-.1-2.61-.09-2.61-.08-2.6-.06-2.61-.04-2.61-.03-2.61-.01M57.69 14.67h-1.35l-2.7.02-2.71.03-1.36.02-2.71.06-2.71.07-2.7.09-2.71.11-2.71.13-2.7.14-2.7.16M85.98 15.78l.51.11.04.01.51.13.5.14.49.15.49.17.49.19.05.02.48.2.47.21.46.23.46.25.45.25.44.28.44.28.42.3.09.06.41.32.41.32.39.34.39.35.37.36.36.37.35.39.33.39.33.4.31.42.3.42.29.44.06.08.27.45.26.45.24.46.23.46.22.48.2.47.18.49.17.49.02.05.16.49.13.5.13.51.11.51.09.51.01.05.07.51M14.67 139.26v111.95M99.56 253.56l-.08.54-.01.05-.1.54-.12.53-.13.53-.14.53-.16.52-.18.51-.02.06-.2.51-.21.5-.23.5-.24.48-.26.48-.27.48-.28.47-.3.45-.04.05-.03.05-.32.45-.33.43-.34.43-.36.41-.36.4-.38.39-.39.38-.4.36-.42.36-.43.34-.05.04-.04.03-.44.33-.45.31-.46.3-.46.29-.47.27-.48.25-.49.24-.5.23-.06.02-.5.21-.51.19-.52.18-.52.16-.52.15-.54.13-.05.01-.53.11"/></g><defs><clipPath id="a"><path fill="#fff" d="M0 0h295.26v284.46H0z"/></clipPath></defs></svg>