<svg width="280" height="542" viewBox="0 0 280 542" fill="none" xmlns="http://www.w3.org/2000/svg">
<g clip-path="url(#clip0_355_1153)">
<path d="M280 0H0V542H280V0Z" fill="white"/>
<path d="M153.226 444.162C152.586 443.432 152.242 442.588 152.218 441.703C152.168 439.145 154.906 437.014 158.324 436.941C161.742 436.867 164.57 438.891 164.628 441.449C164.644 442.162 164.447 442.842 164.054 443.481L163.029 442.85C163.3 442.408 163.431 441.949 163.423 441.473C163.382 439.58 161.111 438.088 158.357 438.146C155.603 438.203 153.39 439.785 153.431 441.678C153.447 442.268 153.685 442.858 154.136 443.367L153.234 444.162H153.226Z" fill="#231815"/>
<path d="M165.193 444.039L161.529 445.932L162.128 441.85L165.193 444.039Z" fill="#231815"/>
<path d="M159.71 480.676V442.465L158.513 439.752L157.21 439.785L155.816 442.465V480.676" stroke="#231815" stroke-width="0.5" stroke-miterlimit="10"/>
<path d="M159.275 448.981L158.242 445.686L158.234 440.531L159.267 442.645L159.275 448.981Z" stroke="#231815" stroke-width="0.25" stroke-miterlimit="10"/>
<path d="M156.357 448.981L157.39 445.686L157.398 440.531L156.365 442.645L156.357 448.981Z" stroke="#231815" stroke-width="0.25" stroke-miterlimit="10"/>
<path d="M162.89 479.413C163.161 481.126 161.734 481.741 157.759 481.741C153.783 481.741 152.447 481.135 152.627 479.413C152.726 478.504 154.923 477.586 157.759 477.586C160.595 477.586 162.751 478.512 162.89 479.413Z" fill="white"/>
<path d="M162.89 479.413C163.161 481.126 161.734 481.741 157.759 481.741C153.783 481.741 152.447 481.135 152.627 479.413C152.726 478.504 154.923 477.586 157.759 477.586C160.595 477.586 162.751 478.512 162.89 479.413Z" stroke="#231815" stroke-width="0.5" stroke-miterlimit="10"/>
<path d="M153.054 480.184C153.054 479.348 155.16 478.504 157.759 478.504C160.357 478.504 162.464 479.34 162.464 480.184" stroke="#9F9E9F" stroke-width="0.25" stroke-miterlimit="10"/>
<path d="M162.062 481.487C162.062 482.249 160.136 482.872 157.751 482.872C155.365 482.872 153.439 482.249 153.439 481.487C153.439 480.725 155.365 480.102 157.751 480.102C160.136 480.102 162.062 480.725 162.062 481.487Z" fill="white"/>
<path d="M162.062 481.487C162.062 482.249 160.136 482.872 157.751 482.872C155.365 482.872 153.439 482.249 153.439 481.487C153.439 480.725 155.365 480.102 157.751 480.102C160.136 480.102 162.062 480.725 162.062 481.487Z" stroke="#231815" stroke-width="0.5" stroke-miterlimit="10"/>
<path d="M152.627 483.913C152.627 482.864 153.464 481.282 157.759 481.282C162.054 481.282 162.89 482.864 162.89 483.913V510.24C162.89 511.149 160.595 511.895 157.759 511.895C154.923 511.895 152.627 511.157 152.627 510.24V483.913Z" fill="white"/>
<path d="M152.627 483.913C152.627 482.864 153.464 481.282 157.759 481.282C162.054 481.282 162.89 482.864 162.89 483.913V510.24C162.89 511.149 160.595 511.895 157.759 511.895C154.923 511.895 152.627 511.157 152.627 510.24V483.913Z" stroke="#231815" stroke-width="0.5" stroke-miterlimit="10"/>
<path d="M158.578 505.855C158.578 506.305 158.21 506.674 157.759 506.674C157.308 506.674 156.939 506.305 156.939 505.855V484.077C156.939 483.626 157.308 483.258 157.759 483.258C158.21 483.258 158.578 483.626 158.578 484.077" stroke="#9F9E9F" stroke-width="0.25" stroke-miterlimit="10"/>
<path d="M161.603 506.338C161.603 506.789 161.234 507.158 160.783 507.158C160.333 507.158 159.964 506.789 159.964 506.338V484.561C159.964 484.11 160.333 483.741 160.783 483.741C161.234 483.741 161.603 484.11 161.603 484.561" stroke="#9F9E9F" stroke-width="0.25" stroke-miterlimit="10"/>
<path d="M155.554 506.338C155.554 506.789 155.185 507.158 154.734 507.158C154.283 507.158 153.914 506.789 153.914 506.338V484.561C153.914 484.11 154.283 483.741 154.734 483.741C155.185 483.741 155.554 484.11 155.554 484.561" stroke="#9F9E9F" stroke-width="0.25" stroke-miterlimit="10"/>
<path d="M172.628 30.1129V460.423" stroke="black" stroke-width="0.5" stroke-linecap="round" stroke-linejoin="round"/>
<path d="M161.71 426.138H154.39" stroke="black" stroke-width="0.5" stroke-linecap="round" stroke-linejoin="round"/>
<path d="M161.71 425.105H154.39" stroke="#B3B3B3" stroke-width="0.25" stroke-linecap="round" stroke-linejoin="round"/>
<path d="M154.808 420.114H160.808" stroke="black" stroke-width="0.5" stroke-linecap="round" stroke-linejoin="round"/>
<path d="M155.89 419.844H159.554" stroke="black" stroke-width="0.5" stroke-linecap="round" stroke-linejoin="round"/>
<path d="M155.89 419.843V419.311" stroke="black" stroke-width="0.5" stroke-linecap="round" stroke-linejoin="round"/>
<path d="M156.095 420.114V419.835" stroke="black" stroke-width="0.5" stroke-linecap="round" stroke-linejoin="round"/>
<path d="M159.349 420.114V419.835" stroke="black" stroke-width="0.5" stroke-linecap="round" stroke-linejoin="round"/>
<path d="M159.554 419.843V419.294" stroke="black" stroke-width="0.5" stroke-linecap="round" stroke-linejoin="round"/>
<path d="M160.808 420.655V420.114" stroke="black" stroke-width="0.5" stroke-linecap="round" stroke-linejoin="round"/>
<path d="M153.98 425.728C153.98 425.95 154.16 426.138 154.39 426.138" stroke="black" stroke-width="0.5" stroke-linecap="round" stroke-linejoin="round"/>
<path d="M161.718 426.138C161.939 426.138 162.128 425.958 162.128 425.728" stroke="black" stroke-width="0.5" stroke-linecap="round" stroke-linejoin="round"/>
<path d="M153.98 425.728V423.425" stroke="black" stroke-width="0.5" stroke-linecap="round" stroke-linejoin="round"/>
<path d="M154.808 420.655V420.114" stroke="black" stroke-width="0.5" stroke-linecap="round" stroke-linejoin="round"/>
<path d="M162.12 425.728V423.425" stroke="black" stroke-width="0.5" stroke-linecap="round" stroke-linejoin="round"/>
<path d="M155.685 413.139V419.286H159.759V413.139" stroke="black" stroke-width="0.5" stroke-linecap="round" stroke-linejoin="round"/>
<path d="M155.693 413.147C156.029 412.295 156.816 411.696 157.726 411.696C158.636 411.696 159.423 412.295 159.759 413.147" stroke="black" stroke-width="0.5" stroke-linecap="round" stroke-linejoin="round"/>
<path d="M160.513 418.483C160.259 418.942 156.152 418.434 155.218 418.122" stroke="#999999" stroke-width="0.25" stroke-linecap="round" stroke-linejoin="round"/>
<path d="M160.48 417.262C160.226 417.721 156.119 417.212 155.185 416.901" stroke="#999999" stroke-width="0.25" stroke-linecap="round" stroke-linejoin="round"/>
<path d="M160.447 416.04C160.193 416.499 156.087 415.991 155.152 415.68" stroke="#999999" stroke-width="0.25" stroke-linecap="round" stroke-linejoin="round"/>
<path d="M160.423 414.819C160.169 415.278 156.062 414.77 155.128 414.458" stroke="#999999" stroke-width="0.25" stroke-linecap="round" stroke-linejoin="round"/>
<path d="M160.39 413.598C160.136 414.057 156.029 413.549 155.095 413.237" stroke="#999999" stroke-width="0.25" stroke-linecap="round" stroke-linejoin="round"/>
<path d="M169.579 423.056H150.062" stroke="#231815" stroke-linecap="round" stroke-linejoin="round"/>
<path d="M169.579 421.196H150.062" stroke="#231815" stroke-linecap="round" stroke-linejoin="round"/>
<path d="M164.652 316.366H171.997" stroke="#231815" stroke-linecap="round" stroke-linejoin="round"/>
<path d="M171.997 267.484H166.931" stroke="#231815" stroke-linecap="round" stroke-linejoin="round"/>
<path d="M164.652 263.763H166.095" stroke="#231815" stroke-linecap="round" stroke-linejoin="round"/>
<path d="M167.021 251.681H171.997" stroke="#231815" stroke-linecap="round" stroke-linejoin="round"/>
<path d="M166.644 264.271L166.931 267.484" stroke="#231815" stroke-linecap="round" stroke-linejoin="round"/>
<path d="M162.792 204.66V248.403" stroke="#231815" stroke-linecap="round" stroke-linejoin="round"/>
<path d="M162.792 265.623V314.506" stroke="#231815" stroke-linecap="round" stroke-linejoin="round"/>
<path d="M162.792 179.432V70.8318" stroke="#231815" stroke-linecap="round" stroke-linejoin="round"/>
<path d="M162.792 69.9056V68.045" stroke="#231815" stroke-linecap="round" stroke-linejoin="round"/>
<path d="M162.792 60.611V58.7505" stroke="#231815" stroke-linecap="round" stroke-linejoin="round"/>
<path d="M164.841 258.501V263.763" stroke="#231815" stroke-linecap="round" stroke-linejoin="round"/>
<path d="M169.579 241.83H171.997" stroke="#231815" stroke-linecap="round" stroke-linejoin="round"/>
<path d="M171.997 240.904H170.136" stroke="#231815" stroke-linecap="round" stroke-linejoin="round"/>
<path d="M163.693 249.993L166.07 251.419" stroke="#231815" stroke-linecap="round" stroke-linejoin="round"/>
<path d="M166.693 264.271V258.501" stroke="#231815" stroke-linecap="round" stroke-linejoin="round"/>
<path d="M167.349 202.799V173.063" stroke="#231815" stroke-linecap="round" stroke-linejoin="round"/>
<path d="M168.644 240.903V213.02" stroke="#231815" stroke-linecap="round" stroke-linejoin="round"/>
<path d="M168.644 105.035V89.7897" stroke="#231815" stroke-linecap="round" stroke-linejoin="round"/>
<path d="M169.39 396.656V316.366" stroke="#231815" stroke-linecap="round" stroke-linejoin="round"/>
<path d="M169.39 82.913V73.2496" stroke="#231815" stroke-linecap="round" stroke-linejoin="round"/>
<path d="M170.136 420.639V316.366" stroke="#231815" stroke-linecap="round" stroke-linejoin="round"/>
<path d="M170.136 267.484V251.681" stroke="#231815" stroke-linecap="round" stroke-linejoin="round"/>
<path d="M170.136 241.83V212.094" stroke="#231815" stroke-linecap="round" stroke-linejoin="round"/>
<path d="M170.136 105.78V89.052" stroke="#231815" stroke-linecap="round" stroke-linejoin="round"/>
<path d="M170.136 82.913V69.9957" stroke="#231815" stroke-linecap="round" stroke-linejoin="round"/>
<path d="M170.136 68.045V60.7012" stroke="#231815" stroke-linecap="round" stroke-linejoin="round"/>
<path d="M171.997 420.638V60.7012" stroke="#231815" stroke-linecap="round" stroke-linejoin="round"/>
<path d="M169.603 253.632L165.505 257.075" stroke="#231815" stroke-linecap="round" stroke-linejoin="round"/>
<path d="M166.693 258.501L170.136 255.616" stroke="#231815" stroke-linecap="round" stroke-linejoin="round"/>
<path d="M171.997 213.02H170.136" stroke="#231815" stroke-linecap="round" stroke-linejoin="round"/>
<path d="M171.997 212.094H169.579" stroke="#231815" stroke-linecap="round" stroke-linejoin="round"/>
<path d="M164.652 202.799H167.349" stroke="#231815" stroke-linecap="round" stroke-linejoin="round"/>
<path d="M164.324 181.268L167.349 181.8" stroke="#231815" stroke-linecap="round" stroke-linejoin="round"/>
<path d="M164.324 172.531L167.349 173.063" stroke="#231815" stroke-linecap="round" stroke-linejoin="round"/>
<path d="M169.39 105.781H171.997" stroke="#231815" stroke-linecap="round" stroke-linejoin="round"/>
<path d="M171.997 105.035H170.136" stroke="#231815" stroke-linecap="round" stroke-linejoin="round"/>
<path d="M171.997 89.7897H170.136" stroke="#231815" stroke-linecap="round" stroke-linejoin="round"/>
<path d="M171.997 89.052H169.39" stroke="#231815" stroke-linecap="round" stroke-linejoin="round"/>
<path d="M164.652 82.913H171.997" stroke="#231815" stroke-linecap="round" stroke-linejoin="round"/>
<path d="M170.038 69.9056H162.792" stroke="#231815" stroke-linecap="round" stroke-linejoin="round"/>
<path d="M162.792 68.045H170.038" stroke="#231815" stroke-linecap="round" stroke-linejoin="round"/>
<path d="M170.038 60.6111H162.792" stroke="#231815" stroke-linecap="round" stroke-linejoin="round"/>
<path d="M162.792 58.7505H170.038" stroke="#231815" stroke-linecap="round" stroke-linejoin="round"/>
<path d="M169.579 423.056C170.915 423.056 171.997 421.974 171.997 420.638" stroke="#231815" stroke-linecap="round" stroke-linejoin="round"/>
<path d="M171.997 60.7012C171.997 59.6193 171.12 58.7505 170.046 58.7505" stroke="#231815" stroke-linecap="round" stroke-linejoin="round"/>
<path d="M171.997 69.9957C171.997 68.9138 171.12 68.045 170.046 68.045" stroke="#231815" stroke-linecap="round" stroke-linejoin="round"/>
<path d="M169.39 396.656C169.39 397.238 169.669 397.796 170.136 398.14" stroke="#231815" stroke-linecap="round" stroke-linejoin="round"/>
<path d="M170.136 71.7661C169.669 72.1186 169.39 72.6677 169.39 73.2496" stroke="#231815" stroke-linecap="round" stroke-linejoin="round"/>
<path d="M164.652 263.763C163.628 263.763 162.792 264.599 162.792 265.623" stroke="#231815" stroke-linecap="round" stroke-linejoin="round"/>
<path d="M162.792 314.506C162.792 315.53 163.628 316.366 164.652 316.366" stroke="#231815" stroke-linecap="round" stroke-linejoin="round"/>
<path d="M162.792 248.403C162.792 249.059 163.136 249.657 163.693 249.993" stroke="#231815" stroke-linecap="round" stroke-linejoin="round"/>
<path d="M164.652 202.799C163.628 202.799 162.792 203.635 162.792 204.66" stroke="#231815" stroke-linecap="round" stroke-linejoin="round"/>
<path d="M162.792 170.703C162.792 171.604 163.439 172.375 164.324 172.53" stroke="#231815" stroke-linecap="round" stroke-linejoin="round"/>
<path d="M164.652 82.913C163.628 82.913 162.792 83.749 162.792 84.7735" stroke="#231815" stroke-linecap="round" stroke-linejoin="round"/>
<path d="M166.07 251.419C166.357 251.591 166.693 251.681 167.029 251.681" stroke="#231815" stroke-linecap="round" stroke-linejoin="round"/>
<path d="M163.054 69.8892C162.882 70.176 162.792 70.5039 162.792 70.8317" stroke="#231815" stroke-linecap="round" stroke-linejoin="round"/>
<path d="M162.792 179.432C162.792 180.333 163.439 181.104 164.324 181.259" stroke="#231815" stroke-linecap="round" stroke-linejoin="round"/>
<path d="M165.505 257.074C165.087 257.427 164.841 257.951 164.841 258.501" stroke="#231815" stroke-linecap="round" stroke-linejoin="round"/>
<path d="M169.603 253.632C169.825 253.444 169.989 253.198 170.071 252.919" stroke="#231815" stroke-linecap="round" stroke-linejoin="round"/>
<path d="M168.644 240.904C168.644 241.42 169.062 241.83 169.571 241.83" stroke="#231815" stroke-linecap="round" stroke-linejoin="round"/>
<path d="M169.579 212.094C169.062 212.094 168.652 212.512 168.652 213.02" stroke="#231815" stroke-linecap="round" stroke-linejoin="round"/>
<path d="M169.39 89.052C168.98 89.052 168.644 89.388 168.644 89.7979" stroke="#231815" stroke-linecap="round" stroke-linejoin="round"/>
<path d="M168.644 105.035C168.644 105.444 168.98 105.781 169.39 105.781" stroke="#231815" stroke-linecap="round" stroke-linejoin="round"/>
<path d="M166.644 264.271C166.62 263.984 166.382 263.763 166.087 263.763" stroke="#231815" stroke-linecap="round" stroke-linejoin="round"/>
<path d="M169.579 421.196C169.89 421.196 170.136 420.95 170.136 420.638" stroke="#231815" stroke-linecap="round" stroke-linejoin="round"/>
<path d="M170.136 60.7012C170.136 60.6521 170.095 60.6111 170.046 60.6111" stroke="#231815" stroke-linecap="round" stroke-linejoin="round"/>
<path d="M170.136 69.9958C170.136 69.9466 170.095 69.9056 170.046 69.9056" stroke="#231815" stroke-linecap="round" stroke-linejoin="round"/>
<path d="M150.062 423.056H147.832" stroke="#231815" stroke-linecap="round" stroke-linejoin="round"/>
<path d="M150.062 421.196H147.832" stroke="#231815" stroke-linecap="round" stroke-linejoin="round"/>
<path d="M147.832 423.056V421.196" stroke="#231815" stroke-linecap="round" stroke-linejoin="round"/>
<path d="M125.823 48.5957L141.021 47.3007L160.857 48.9317L169.603 52.3004C169.603 52.3004 170.579 52.8659 170.579 55.4313V336.382C170.579 336.382 170.415 338.767 167.546 339.439V346.266L170.398 347.381V419.958L160.997 423.581L141.168 424.565L136.922 424.171L110.102 405.664C110.102 405.664 106.782 402.418 107.47 399.492L107.954 397.255C107.954 397.255 116.118 384.78 119.381 369.56L120.651 363.724L121.594 357.782L121.971 354.397L122.413 346.356C122.413 346.356 122.684 343.734 125.413 342.889C125.413 342.889 122.397 341.684 122.413 338.996V52.3004C122.413 52.3004 122.692 48.8661 125.823 48.5957Z" fill="white"/>
<path d="M152.8 49.7511V340.717" stroke="#9F9E9F" stroke-width="0.5" stroke-linecap="round" stroke-linejoin="round"/>
<path d="M152.8 422.491V344.881" stroke="#9F9E9F" stroke-width="0.5" stroke-linecap="round" stroke-linejoin="round"/>
<path d="M152.439 343.397C152.504 343.397 152.562 343.455 152.603 343.52C152.636 343.569 152.652 343.61 152.668 343.66C152.693 343.717 152.709 343.782 152.726 343.848C152.767 344.004 152.783 344.168 152.8 344.323C152.816 344.512 152.816 344.7 152.8 344.889" stroke="#9F9E9F" stroke-width="0.5" stroke-linecap="round" stroke-linejoin="round"/>
<path d="M152.8 422.491C152.808 422.679 152.8 422.868 152.8 423.056C152.791 423.22 152.767 423.376 152.726 423.532C152.709 423.597 152.693 423.655 152.668 423.72C152.652 423.769 152.627 423.81 152.603 423.86C152.562 423.917 152.513 423.974 152.439 423.982" stroke="#9F9E9F" stroke-width="0.5" stroke-linecap="round" stroke-linejoin="round"/>
<path d="M152.8 49.7511C152.816 49.5626 152.816 49.3822 152.808 49.1937C152.808 49.038 152.783 48.8741 152.75 48.7184C152.734 48.6528 152.718 48.5954 152.701 48.538C152.685 48.4889 152.668 48.4479 152.636 48.3987C152.603 48.3413 152.545 48.284 152.48 48.2758" stroke="#9F9E9F" stroke-width="0.5" stroke-linecap="round" stroke-linejoin="round"/>
<path d="M152.8 340.717C152.808 340.906 152.8 341.094 152.8 341.283C152.791 341.447 152.767 341.602 152.726 341.758C152.709 341.824 152.693 341.881 152.668 341.946C152.652 341.996 152.627 342.037 152.603 342.086C152.562 342.143 152.513 342.201 152.439 342.209" stroke="#9F9E9F" stroke-width="0.5" stroke-linecap="round" stroke-linejoin="round"/>
<path d="M141.021 424.581L152.431 423.982" stroke="#231815" stroke-linecap="round" stroke-linejoin="round"/>
<path d="M141.07 421.786L147.619 421.442" stroke="#231815" stroke-linecap="round" stroke-linejoin="round"/>
<path d="M137.947 421.507L141.07 421.786" stroke="#231815" stroke-linecap="round" stroke-linejoin="round"/>
<path d="M133.84 418.942L137.037 421.179" stroke="#231815" stroke-linecap="round" stroke-linejoin="round"/>
<path d="M140.947 345.586L134.447 345.815" stroke="#231815" stroke-linecap="round" stroke-linejoin="round"/>
<path d="M147.619 345.938L140.947 345.586" stroke="#231815" stroke-linecap="round" stroke-linejoin="round"/>
<path d="M141.021 342.799L144.857 342.996" stroke="#231815" stroke-linecap="round" stroke-linejoin="round"/>
<path d="M141.176 339.996L147.685 339.422" stroke="#231815" stroke-linecap="round" stroke-linejoin="round"/>
<path d="M141.406 342.774L152.439 342.201" stroke="#231815" stroke-linecap="round" stroke-linejoin="round"/>
<path d="M141.021 342.799L129.528 342.996" stroke="#231815" stroke-linecap="round" stroke-linejoin="round"/>
<path d="M140.644 342.799H131.02" stroke="#231815" stroke-linecap="round" stroke-linejoin="round"/>
<path d="M134.348 339.422L140.857 339.996" stroke="#231815" stroke-linecap="round" stroke-linejoin="round"/>
<path d="M132.651 52.4886V337.57" stroke="#231815" stroke-linecap="round" stroke-linejoin="round"/>
<path d="M132.651 347.667V416.655" stroke="#231815" stroke-linecap="round" stroke-linejoin="round"/>
<path d="M141.021 342.422V340.004" stroke="#231815" stroke-linecap="round" stroke-linejoin="round"/>
<path d="M141.021 50.0708V47.6775" stroke="#231815" stroke-linecap="round" stroke-linejoin="round"/>
<path d="M149.381 419.581V347.791" stroke="#231815" stroke-linecap="round" stroke-linejoin="round"/>
<path d="M149.381 337.57V52.4886" stroke="#231815" stroke-linecap="round" stroke-linejoin="round"/>
<path d="M167.546 339.447L167.784 346.364" stroke="#231815" stroke-linecap="round" stroke-linejoin="round"/>
<path d="M170.571 336.39V328.341" stroke="#231815" stroke-linecap="round" stroke-linejoin="round"/>
<path d="M170.571 325.653V239.125" stroke="#231815" stroke-linecap="round" stroke-linejoin="round"/>
<path d="M170.571 236.436V149.909" stroke="#231815" stroke-linecap="round" stroke-linejoin="round"/>
<path d="M170.571 147.221V60.6931" stroke="#231815" stroke-linecap="round" stroke-linejoin="round"/>
<path d="M170.571 58.0047V54.4148" stroke="#231815" stroke-linecap="round" stroke-linejoin="round"/>
<path d="M140.857 50.0708L134.348 50.6363" stroke="#231815" stroke-linecap="round" stroke-linejoin="round"/>
<path d="M147.685 50.6363L141.176 50.0708" stroke="#231815" stroke-linecap="round" stroke-linejoin="round"/>
<path d="M151.39 48.1774L141.422 47.3004" stroke="#231815" stroke-linecap="round" stroke-linejoin="round"/>
<path d="M140.611 47.3004L130.889 48.1528" stroke="#231815" stroke-linecap="round" stroke-linejoin="round"/>
<path d="M132.651 416.655C132.651 417.565 133.094 418.417 133.84 418.942" stroke="#231815" stroke-linecap="round" stroke-linejoin="round"/>
<path d="M137.037 421.179C137.307 421.368 137.619 421.483 137.938 421.507" stroke="#231815" stroke-linecap="round" stroke-linejoin="round"/>
<path d="M147.619 421.442C148.603 421.393 149.381 420.573 149.381 419.589" stroke="#231815" stroke-linecap="round" stroke-linejoin="round"/>
<path d="M170.431 419.967C170.53 419.819 170.579 419.647 170.579 419.467" stroke="#231815" stroke-linecap="round" stroke-linejoin="round"/>
<path d="M134.447 345.815C133.447 345.848 132.651 346.668 132.651 347.676" stroke="#231815" stroke-linecap="round" stroke-linejoin="round"/>
<path d="M132.651 337.57C132.651 338.537 133.389 339.34 134.348 339.422" stroke="#231815" stroke-linecap="round" stroke-linejoin="round"/>
<path d="M149.381 347.79C149.381 346.799 148.611 345.987 147.619 345.938" stroke="#231815" stroke-linecap="round" stroke-linejoin="round"/>
<path d="M147.685 339.422C148.644 339.34 149.381 338.537 149.381 337.57" stroke="#231815" stroke-linecap="round" stroke-linejoin="round"/>
<path d="M140.857 339.996C140.963 340.004 141.07 340.004 141.184 339.996" stroke="#231815" stroke-linecap="round" stroke-linejoin="round"/>
<path d="M140.643 342.799C140.848 342.799 141.012 342.635 141.012 342.43" stroke="#231815" stroke-linecap="round" stroke-linejoin="round"/>
<path d="M141.021 342.406C141.021 342.61 141.184 342.774 141.389 342.774H141.406" stroke="#231815" stroke-linecap="round" stroke-linejoin="round"/>
<path d="M134.348 50.6364C133.389 50.7183 132.651 51.5215 132.651 52.4887" stroke="#231815" stroke-linecap="round" stroke-linejoin="round"/>
<path d="M141.176 50.0707C141.07 50.0625 140.963 50.0625 140.857 50.0707" stroke="#231815" stroke-linecap="round" stroke-linejoin="round"/>
<path d="M141.021 47.6774C141.021 47.4725 140.857 47.3086 140.652 47.3086C140.643 47.3086 140.627 47.3086 140.619 47.3086" stroke="#231815" stroke-linecap="round" stroke-linejoin="round"/>
<path d="M141.422 47.3004C141.217 47.284 141.037 47.4316 141.021 47.6365C141.021 47.6447 141.021 47.6611 141.021 47.6693" stroke="#231815" stroke-linecap="round" stroke-linejoin="round"/>
<path d="M149.381 52.4887C149.381 51.5215 148.644 50.7183 147.685 50.6364" stroke="#231815" stroke-linecap="round" stroke-linejoin="round"/>
<path d="M170.571 348.077C170.571 347.88 170.505 347.692 170.39 347.528" stroke="#231815" stroke-linecap="round" stroke-linejoin="round"/>
<path d="M170.316 53.2345C170.251 53.087 170.169 52.9477 170.079 52.8165" stroke="#231815" stroke-linecap="round" stroke-linejoin="round"/>
<path d="M170.571 58.0048C170.571 58.1113 170.571 58.2261 170.571 58.3326C170.571 58.6687 170.562 59.0047 170.562 59.3489" stroke="#231815" stroke-linecap="round" stroke-linejoin="round"/>
<path d="M170.562 59.3489C170.562 59.4636 170.562 59.5784 170.562 59.6931C170.562 60.0292 170.571 60.3652 170.571 60.6931" stroke="#231815" stroke-linecap="round" stroke-linejoin="round"/>
<path d="M170.571 147.221C170.571 147.327 170.571 147.442 170.571 147.549C170.571 147.885 170.562 148.221 170.562 148.565" stroke="#231815" stroke-linecap="round" stroke-linejoin="round"/>
<path d="M170.562 148.565C170.562 148.679 170.562 148.794 170.562 148.909C170.562 149.245 170.571 149.581 170.571 149.909" stroke="#231815" stroke-linecap="round" stroke-linejoin="round"/>
<path d="M170.571 236.437C170.571 236.543 170.571 236.658 170.571 236.764C170.571 237.1 170.562 237.436 170.562 237.781" stroke="#231815" stroke-linecap="round" stroke-linejoin="round"/>
<path d="M170.562 237.781C170.562 237.896 170.562 238.01 170.562 238.125C170.562 238.461 170.571 238.797 170.571 239.125" stroke="#231815" stroke-linecap="round" stroke-linejoin="round"/>
<path d="M170.571 325.652C170.571 325.759 170.571 325.874 170.571 325.98C170.571 326.316 170.562 326.652 170.562 326.997" stroke="#231815" stroke-linecap="round" stroke-linejoin="round"/>
<path d="M170.562 326.997C170.562 327.111 170.562 327.226 170.562 327.341C170.562 327.677 170.571 328.013 170.571 328.341" stroke="#231815" stroke-linecap="round" stroke-linejoin="round"/>
<path d="M141.021 424.581L159.882 423.589" stroke="#231815" stroke-linecap="round" stroke-linejoin="round"/>
<path d="M141.021 424.581L137.455 424.27" stroke="#231815" stroke-linecap="round" stroke-linejoin="round"/>
<path d="M135.643 423.606L110.733 406.164" stroke="#231815" stroke-linecap="round" stroke-linejoin="round"/>
<path d="M141.021 342.799L159.8 343.782" stroke="#231815" stroke-linecap="round" stroke-linejoin="round"/>
<path d="M151.341 342.258L159.882 341.807" stroke="#231815" stroke-linecap="round" stroke-linejoin="round"/>
<path d="M126.061 343.061L141.021 342.799" stroke="#231815" stroke-linecap="round" stroke-linejoin="round"/>
<path d="M131.02 342.799H126.151" stroke="#231815" stroke-linecap="round" stroke-linejoin="round"/>
<path d="M162.661 344.389L169.98 347.217" stroke="#231815" stroke-linecap="round" stroke-linejoin="round"/>
<path d="M122.43 339.078V52.3002" stroke="#231815" stroke-linecap="round" stroke-linejoin="round"/>
<path d="M141.021 342.808V342.799" stroke="#231815" stroke-linecap="round" stroke-linejoin="round"/>
<ellipse cx="141.021" cy="342.799" rx="0.409848" ry="0.409811" fill="#231815"/>
<path d="M170.571 419.467V348.077" stroke="#231815" stroke-linecap="round" stroke-linejoin="round"/>
<path d="M162.595 341.258L168.743 339.004" stroke="#231815" stroke-linecap="round" stroke-linejoin="round"/>
<path d="M168.751 51.8001L162.447 49.4724" stroke="#231815" stroke-linecap="round" stroke-linejoin="round"/>
<path d="M162.595 423.04L169.964 420.344" stroke="#231815" stroke-linecap="round" stroke-linejoin="round"/>
<path d="M160.038 48.9315L151.39 48.1775" stroke="#231815" stroke-linecap="round" stroke-linejoin="round"/>
<path d="M125.823 48.5954L130.889 48.1528" stroke="#231815" stroke-linecap="round" stroke-linejoin="round"/>
<path d="M108.561 396.353C106.626 399.689 107.577 403.951 110.733 406.164" stroke="#231815" stroke-linecap="round" stroke-linejoin="round"/>
<path d="M135.643 423.605C136.176 423.982 136.799 424.204 137.455 424.261" stroke="#231815" stroke-linecap="round" stroke-linejoin="round"/>
<path d="M159.882 423.589C160.808 423.54 161.718 423.351 162.587 423.04" stroke="#231815" stroke-linecap="round" stroke-linejoin="round"/>
<path d="M169.964 420.343C170.333 420.212 170.571 419.86 170.571 419.475" stroke="#231815" stroke-linecap="round" stroke-linejoin="round"/>
<path d="M108.561 396.353C117.299 381.239 122.069 364.158 122.413 346.7" stroke="#231815" stroke-linecap="round" stroke-linejoin="round"/>
<path d="M126.061 343.061C124.061 343.094 122.446 344.709 122.405 346.7" stroke="#231815" stroke-linecap="round" stroke-linejoin="round"/>
<path d="M122.43 339.078C122.43 341.127 124.094 342.799 126.151 342.799" stroke="#231815" stroke-linecap="round" stroke-linejoin="round"/>
<path d="M162.66 344.389C161.742 344.037 160.783 343.832 159.8 343.782" stroke="#231815" stroke-linecap="round" stroke-linejoin="round"/>
<path d="M159.882 341.807C160.808 341.758 161.718 341.57 162.587 341.258" stroke="#231815" stroke-linecap="round" stroke-linejoin="round"/>
<path d="M125.823 48.5955C123.905 48.7594 122.43 50.374 122.43 52.3002" stroke="#231815" stroke-linecap="round" stroke-linejoin="round"/>
<path d="M162.447 49.4725C161.669 49.1856 160.865 49.0053 160.037 48.9315" stroke="#231815" stroke-linecap="round" stroke-linejoin="round"/>
<path d="M170.571 348.077C170.571 347.692 170.333 347.348 169.972 347.208" stroke="#231815" stroke-linecap="round" stroke-linejoin="round"/>
<path d="M168.743 339.004C169.841 338.602 170.571 337.553 170.571 336.389" stroke="#231815" stroke-linecap="round" stroke-linejoin="round"/>
<path d="M170.571 54.4148C170.571 53.2509 169.841 52.2018 168.751 51.8002" stroke="#231815" stroke-linecap="round" stroke-linejoin="round"/>
<path d="M170.571 348.094C170.571 347.922 170.521 347.741 170.423 347.594C170.325 347.446 170.177 347.332 170.021 347.258" stroke="#231815" stroke-linecap="round" stroke-linejoin="round"/>
<path d="M169.98 347.217C169.98 347.217 170.013 347.241 170.021 347.266" stroke="#231815" stroke-linecap="round" stroke-linejoin="round"/>
<path d="M170.005 420.294C170.112 420.245 170.218 420.179 170.3 420.097" stroke="#231815" stroke-linecap="round" stroke-linejoin="round"/>
<path d="M170.308 420.098C170.39 420.016 170.464 419.909 170.505 419.802" stroke="#231815" stroke-linecap="round" stroke-linejoin="round"/>
<path d="M170.505 419.803C170.554 419.696 170.579 419.573 170.579 419.458" stroke="#231815" stroke-linecap="round" stroke-linejoin="round"/>
<path d="M170.005 420.294C170.005 420.294 170.005 420.302 169.997 420.311C169.997 420.327 169.98 420.335 169.964 420.343" stroke="#231815" stroke-linecap="round" stroke-linejoin="round"/>
</g>
<defs>
<clipPath id="clip0_355_1153">
<rect width="280" height="542" fill="white"/>
</clipPath>
</defs>
</svg>
