<svg width="342" height="662" viewBox="0 0 342 662" fill="none" xmlns="http://www.w3.org/2000/svg">
<g clip-path="url(#clip0_355_768)">
<path d="M341.59 0H0V661.28H341.59V0Z" fill="white"/>
<path d="M251.43 68.7202V593.74" stroke="black" stroke-width="0.5" stroke-linecap="round" stroke-linejoin="round"/>
<path d="M225.36 319.65L221.56 300.86L217.29 305.76L199.89 290.59L193.11 298.36L210.5 313.54L206.23 318.44L225.36 319.65Z" fill="black"/>
<path d="M231.07 544.22H235.54" stroke="black" stroke-width="0.5" stroke-linecap="round" stroke-linejoin="round"/>
<path d="M231.07 544.22V543.58" stroke="black" stroke-width="0.5" stroke-linecap="round" stroke-linejoin="round"/>
<path d="M231.31 544.56V544.22" stroke="black" stroke-width="0.5" stroke-linecap="round" stroke-linejoin="round"/>
<path d="M235.29 544.56V544.22" stroke="black" stroke-width="0.5" stroke-linecap="round" stroke-linejoin="round"/>
<path d="M235.54 544.22V543.55" stroke="black" stroke-width="0.5" stroke-linecap="round" stroke-linejoin="round"/>
<path d="M229.64 544.75H236.96" stroke="black" stroke-width="0.5" stroke-linecap="round" stroke-linejoin="round"/>
<path d="M236.96 545.42V544.75" stroke="black" stroke-width="0.5" stroke-linecap="round" stroke-linejoin="round"/>
<path d="M229.64 545.42V544.75" stroke="black" stroke-width="0.5" stroke-linecap="round" stroke-linejoin="round"/>
<path d="M237.77 551.91H228.83" stroke="black" stroke-width="0.5" stroke-linecap="round" stroke-linejoin="round"/>
<path d="M237.77 550.65H228.83" stroke="#B3B3B3" stroke-width="0.25" stroke-linecap="round" stroke-linejoin="round"/>
<path d="M228.33 551.41C228.33 551.68 228.55 551.91 228.83 551.91" stroke="black" stroke-width="0.5" stroke-linecap="round" stroke-linejoin="round"/>
<path d="M237.77 551.91C238.04 551.91 238.27 551.69 238.27 551.41" stroke="black" stroke-width="0.5" stroke-linecap="round" stroke-linejoin="round"/>
<path d="M228.33 551.41V548.6" stroke="black" stroke-width="0.5" stroke-linecap="round" stroke-linejoin="round"/>
<path d="M238.27 551.41V548.6" stroke="black" stroke-width="0.5" stroke-linecap="round" stroke-linejoin="round"/>
<path d="M230.82 536.05V543.55H235.78V536.05" stroke="black" stroke-width="0.5" stroke-linecap="round" stroke-linejoin="round"/>
<path d="M230.82 536.06C231.23 535.02 232.19 534.29 233.3 534.29C234.41 534.29 235.37 535.02 235.78 536.06" stroke="black" stroke-width="0.5" stroke-linecap="round" stroke-linejoin="round"/>
<path d="M235.99 542.04C235.73 542.51 231.55 541.99 230.61 541.67" stroke="#999999" stroke-width="0.21" stroke-linecap="round" stroke-linejoin="round"/>
<path d="M235.99 540.8C235.73 541.27 231.55 540.75 230.61 540.43" stroke="#999999" stroke-width="0.21" stroke-linecap="round" stroke-linejoin="round"/>
<path d="M235.99 539.56C235.73 540.03 231.55 539.51 230.61 539.19" stroke="#999999" stroke-width="0.21" stroke-linecap="round" stroke-linejoin="round"/>
<path d="M235.99 538.32C235.73 538.79 231.55 538.27 230.61 537.95" stroke="#999999" stroke-width="0.21" stroke-linecap="round" stroke-linejoin="round"/>
<path d="M235.99 537.07C235.73 537.54 231.55 537.02 230.61 536.7" stroke="#999999" stroke-width="0.21" stroke-linecap="round" stroke-linejoin="round"/>
<path d="M247.71 548.14H223.9" stroke="#231815" stroke-linecap="round" stroke-linejoin="round"/>
<path d="M247.71 545.88H223.9" stroke="#231815" stroke-linecap="round" stroke-linejoin="round"/>
<path d="M241.7 417.98H250.66" stroke="#231815" stroke-linecap="round" stroke-linejoin="round"/>
<path d="M250.66 358.34H244.48" stroke="#231815" stroke-linecap="round" stroke-linejoin="round"/>
<path d="M241.7 353.8H243.46" stroke="#231815" stroke-linecap="round" stroke-linejoin="round"/>
<path d="M244.59 339.06H250.66" stroke="#231815" stroke-linecap="round" stroke-linejoin="round"/>
<path d="M244.13 354.42L244.48 358.34" stroke="#231815" stroke-linecap="round" stroke-linejoin="round"/>
<path d="M239.43 281.69V335.06" stroke="#231815" stroke-linecap="round" stroke-linejoin="round"/>
<path d="M239.43 356.07V415.71" stroke="#231815" stroke-linecap="round" stroke-linejoin="round"/>
<path d="M239.43 250.91V118.41" stroke="#231815" stroke-linecap="round" stroke-linejoin="round"/>
<path d="M239.43 117.28V115.01" stroke="#231815" stroke-linecap="round" stroke-linejoin="round"/>
<path d="M239.43 105.94V103.67" stroke="#231815" stroke-linecap="round" stroke-linejoin="round"/>
<path d="M241.93 347.38V353.8" stroke="#231815" stroke-linecap="round" stroke-linejoin="round"/>
<path d="M247.71 327.04H250.66" stroke="#231815" stroke-linecap="round" stroke-linejoin="round"/>
<path d="M250.66 325.91H248.39" stroke="#231815" stroke-linecap="round" stroke-linejoin="round"/>
<path d="M240.53 337L243.43 338.74" stroke="#231815" stroke-linecap="round" stroke-linejoin="round"/>
<path d="M244.19 354.42V347.38" stroke="#231815" stroke-linecap="round" stroke-linejoin="round"/>
<path d="M244.99 279.42V243.14" stroke="#231815" stroke-linecap="round" stroke-linejoin="round"/>
<path d="M246.57 325.91V291.89" stroke="#231815" stroke-linecap="round" stroke-linejoin="round"/>
<path d="M246.57 160.14V141.54" stroke="#231815" stroke-linecap="round" stroke-linejoin="round"/>
<path d="M247.48 515.94V417.98" stroke="#231815" stroke-linecap="round" stroke-linejoin="round"/>
<path d="M247.48 133.15V121.36" stroke="#231815" stroke-linecap="round" stroke-linejoin="round"/>
<path d="M248.39 545.2V417.98" stroke="#231815" stroke-linecap="round" stroke-linejoin="round"/>
<path d="M248.39 358.34V339.06" stroke="#231815" stroke-linecap="round" stroke-linejoin="round"/>
<path d="M248.39 327.04V290.76" stroke="#231815" stroke-linecap="round" stroke-linejoin="round"/>
<path d="M248.39 161.05V140.64" stroke="#231815" stroke-linecap="round" stroke-linejoin="round"/>
<path d="M248.39 133.15V117.39" stroke="#231815" stroke-linecap="round" stroke-linejoin="round"/>
<path d="M248.39 115.01V106.05" stroke="#231815" stroke-linecap="round" stroke-linejoin="round"/>
<path d="M250.66 545.2V106.05" stroke="#231815" stroke-linecap="round" stroke-linejoin="round"/>
<path d="M247.74 341.44L242.74 345.64" stroke="#231815" stroke-linecap="round" stroke-linejoin="round"/>
<path d="M244.19 347.38L248.39 343.85" stroke="#231815" stroke-linecap="round" stroke-linejoin="round"/>
<path d="M250.66 291.89H248.39" stroke="#231815" stroke-linecap="round" stroke-linejoin="round"/>
<path d="M250.66 290.76H247.71" stroke="#231815" stroke-linecap="round" stroke-linejoin="round"/>
<path d="M241.7 279.42H244.99" stroke="#231815" stroke-linecap="round" stroke-linejoin="round"/>
<path d="M241.31 253.15L244.99 253.79" stroke="#231815" stroke-linecap="round" stroke-linejoin="round"/>
<path d="M241.31 242.49L244.99 243.14" stroke="#231815" stroke-linecap="round" stroke-linejoin="round"/>
<path d="M247.48 161.05H250.66" stroke="#231815" stroke-linecap="round" stroke-linejoin="round"/>
<path d="M250.66 160.14H248.39" stroke="#231815" stroke-linecap="round" stroke-linejoin="round"/>
<path d="M250.66 141.54H248.39" stroke="#231815" stroke-linecap="round" stroke-linejoin="round"/>
<path d="M250.66 140.64H247.48" stroke="#231815" stroke-linecap="round" stroke-linejoin="round"/>
<path d="M241.7 133.15H250.66" stroke="#231815" stroke-linecap="round" stroke-linejoin="round"/>
<path d="M248.28 117.28H239.43" stroke="#231815" stroke-linecap="round" stroke-linejoin="round"/>
<path d="M239.43 115.01H248.28" stroke="#231815" stroke-linecap="round" stroke-linejoin="round"/>
<path d="M248.28 105.94H239.43" stroke="#231815" stroke-linecap="round" stroke-linejoin="round"/>
<path d="M239.43 103.67H248.28" stroke="#231815" stroke-linecap="round" stroke-linejoin="round"/>
<path d="M247.71 548.14C249.34 548.14 250.66 546.82 250.66 545.19" stroke="#231815" stroke-linecap="round" stroke-linejoin="round"/>
<path d="M250.66 106.05C250.66 104.73 249.59 103.67 248.28 103.67" stroke="#231815" stroke-linecap="round" stroke-linejoin="round"/>
<path d="M250.66 117.39C250.66 116.07 249.59 115.01 248.28 115.01" stroke="#231815" stroke-linecap="round" stroke-linejoin="round"/>
<path d="M247.48 515.94C247.48 516.65 247.82 517.33 248.39 517.75" stroke="#231815" stroke-linecap="round" stroke-linejoin="round"/>
<path d="M248.39 119.55C247.82 119.98 247.48 120.65 247.48 121.36" stroke="#231815" stroke-linecap="round" stroke-linejoin="round"/>
<path d="M241.7 353.8C240.45 353.8 239.43 354.82 239.43 356.07" stroke="#231815" stroke-linecap="round" stroke-linejoin="round"/>
<path d="M239.43 415.71C239.43 416.96 240.45 417.98 241.7 417.98" stroke="#231815" stroke-linecap="round" stroke-linejoin="round"/>
<path d="M239.43 335.06C239.43 335.86 239.85 336.59 240.53 337" stroke="#231815" stroke-linecap="round" stroke-linejoin="round"/>
<path d="M241.7 279.42C240.45 279.42 239.43 280.44 239.43 281.69" stroke="#231815" stroke-linecap="round" stroke-linejoin="round"/>
<path d="M239.43 240.25C239.43 241.35 240.22 242.29 241.3 242.48" stroke="#231815" stroke-linecap="round" stroke-linejoin="round"/>
<path d="M241.7 133.15C240.45 133.15 239.43 134.17 239.43 135.42" stroke="#231815" stroke-linecap="round" stroke-linejoin="round"/>
<path d="M243.43 338.74C243.78 338.95 244.19 339.06 244.6 339.06" stroke="#231815" stroke-linecap="round" stroke-linejoin="round"/>
<path d="M239.75 117.26C239.54 117.61 239.43 118.01 239.43 118.41" stroke="#231815" stroke-linecap="round" stroke-linejoin="round"/>
<path d="M239.43 250.91C239.43 252.01 240.22 252.95 241.3 253.14" stroke="#231815" stroke-linecap="round" stroke-linejoin="round"/>
<path d="M242.74 345.64C242.23 346.07 241.93 346.71 241.93 347.38" stroke="#231815" stroke-linecap="round" stroke-linejoin="round"/>
<path d="M247.74 341.44C248.01 341.21 248.21 340.91 248.31 340.57" stroke="#231815" stroke-linecap="round" stroke-linejoin="round"/>
<path d="M246.57 325.91C246.57 326.54 247.08 327.04 247.7 327.04" stroke="#231815" stroke-linecap="round" stroke-linejoin="round"/>
<path d="M247.71 290.76C247.08 290.76 246.58 291.27 246.58 291.89" stroke="#231815" stroke-linecap="round" stroke-linejoin="round"/>
<path d="M247.48 140.64C246.98 140.64 246.57 141.05 246.57 141.55" stroke="#231815" stroke-linecap="round" stroke-linejoin="round"/>
<path d="M246.57 160.14C246.57 160.64 246.98 161.05 247.48 161.05" stroke="#231815" stroke-linecap="round" stroke-linejoin="round"/>
<path d="M244.13 354.42C244.1 354.07 243.81 353.8 243.45 353.8" stroke="#231815" stroke-linecap="round" stroke-linejoin="round"/>
<path d="M247.71 545.88C248.09 545.88 248.39 545.58 248.39 545.2" stroke="#231815" stroke-linecap="round" stroke-linejoin="round"/>
<path d="M248.39 106.05C248.39 105.99 248.34 105.94 248.28 105.94" stroke="#231815" stroke-linecap="round" stroke-linejoin="round"/>
<path d="M248.39 117.39C248.39 117.33 248.34 117.28 248.28 117.28" stroke="#231815" stroke-linecap="round" stroke-linejoin="round"/>
<path d="M223.9 548.14H221.18" stroke="#231815" stroke-linecap="round" stroke-linejoin="round"/>
<path d="M223.9 545.88H221.18" stroke="#231815" stroke-linecap="round" stroke-linejoin="round"/>
<path d="M221.18 548.14V545.88" stroke="#231815" stroke-linecap="round" stroke-linejoin="round"/>
<path d="M145.36 70.54V425.53" stroke="#9FA0A0" stroke-width="0.5" stroke-linecap="round" stroke-linejoin="round"/>
<path d="M145.36 525.31V430.61" stroke="#9FA0A0" stroke-width="0.5" stroke-linecap="round" stroke-linejoin="round"/>
<path d="M144.92 428.8C145 428.8 145.07 428.87 145.12 428.95C145.16 429.01 145.18 429.06 145.2 429.12C145.23 429.19 145.25 429.27 145.27 429.35C145.32 429.54 145.34 429.74 145.36 429.93C145.38 430.16 145.38 430.39 145.36 430.62" stroke="#9FA0A0" stroke-width="0.5" stroke-linecap="round" stroke-linejoin="round"/>
<path d="M145.36 525.31C145.37 525.54 145.36 525.77 145.36 526C145.35 526.2 145.32 526.39 145.27 526.58C145.25 526.66 145.23 526.73 145.2 526.81C145.18 526.87 145.15 526.92 145.12 526.98C145.07 527.05 145.01 527.12 144.92 527.13" stroke="#9FA0A0" stroke-width="0.5" stroke-linecap="round" stroke-linejoin="round"/>
<path d="M145.36 70.54C145.38 70.31 145.38 70.09 145.37 69.86C145.37 69.67 145.34 69.47 145.3 69.28C145.28 69.2 145.26 69.13 145.24 69.06C145.22 69 145.2 68.95 145.16 68.89C145.12 68.82 145.05 68.75 144.97 68.74" stroke="#9FA0A0" stroke-width="0.5" stroke-linecap="round" stroke-linejoin="round"/>
<path d="M145.36 425.53C145.37 425.76 145.36 425.99 145.36 426.22C145.35 426.42 145.32 426.61 145.27 426.8C145.25 426.88 145.23 426.95 145.2 427.03C145.18 427.09 145.15 427.14 145.12 427.2C145.07 427.27 145.01 427.34 144.92 427.35" stroke="#9FA0A0" stroke-width="0.5" stroke-linecap="round" stroke-linejoin="round"/>
<path d="M130.98 527.85L144.91 527.12" stroke="#231815" stroke-linecap="round" stroke-linejoin="round"/>
<path d="M131.04 524.44L139.04 524.02" stroke="#231815" stroke-linecap="round" stroke-linejoin="round"/>
<path d="M127.23 524.11L131.04 524.44" stroke="#231815" stroke-linecap="round" stroke-linejoin="round"/>
<path d="M122.23 520.98L126.13 523.71" stroke="#231815" stroke-linecap="round" stroke-linejoin="round"/>
<path d="M130.89 431.47L122.97 431.75" stroke="#231815" stroke-linecap="round" stroke-linejoin="round"/>
<path d="M139.04 431.9L130.89 431.47" stroke="#231815" stroke-linecap="round" stroke-linejoin="round"/>
<path d="M130.98 428.07L135.67 428.32" stroke="#231815" stroke-linecap="round" stroke-linejoin="round"/>
<path d="M131.18 424.65L139.12 423.96" stroke="#231815" stroke-linecap="round" stroke-linejoin="round"/>
<path d="M131.46 428.05L144.92 427.34" stroke="#231815" stroke-linecap="round" stroke-linejoin="round"/>
<path d="M130.98 428.07L116.97 428.32" stroke="#231815" stroke-linecap="round" stroke-linejoin="round"/>
<path d="M130.53 428.07H118.79" stroke="#231815" stroke-linecap="round" stroke-linejoin="round"/>
<path d="M122.85 423.96L130.79 424.65" stroke="#231815" stroke-linecap="round" stroke-linejoin="round"/>
<path d="M120.78 73.8801V421.7" stroke="#231815" stroke-linecap="round" stroke-linejoin="round"/>
<path d="M120.78 434.02V518.19" stroke="#231815" stroke-linecap="round" stroke-linejoin="round"/>
<path d="M130.98 427.62V424.66" stroke="#231815" stroke-linecap="round" stroke-linejoin="round"/>
<path d="M130.98 70.92V68" stroke="#231815" stroke-linecap="round" stroke-linejoin="round"/>
<path d="M141.19 521.76V434.16" stroke="#231815" stroke-linecap="round" stroke-linejoin="round"/>
<path d="M141.19 421.7V73.8801" stroke="#231815" stroke-linecap="round" stroke-linejoin="round"/>
<path d="M163.34 423.99L163.63 432.43" stroke="#231815" stroke-linecap="round" stroke-linejoin="round"/>
<path d="M167.04 420.25V410.43" stroke="#231815" stroke-linecap="round" stroke-linejoin="round"/>
<path d="M167.04 407.16V301.58" stroke="#231815" stroke-linecap="round" stroke-linejoin="round"/>
<path d="M167.04 298.31V192.73" stroke="#231815" stroke-linecap="round" stroke-linejoin="round"/>
<path d="M167.04 189.46V83.8801" stroke="#231815" stroke-linecap="round" stroke-linejoin="round"/>
<path d="M167.04 80.6102V76.2202" stroke="#231815" stroke-linecap="round" stroke-linejoin="round"/>
<path d="M130.79 70.9202L122.85 71.6202" stroke="#231815" stroke-linecap="round" stroke-linejoin="round"/>
<path d="M139.12 71.6202L131.18 70.9202" stroke="#231815" stroke-linecap="round" stroke-linejoin="round"/>
<path d="M143.64 68.61L131.48 67.55" stroke="#231815" stroke-linecap="round" stroke-linejoin="round"/>
<path d="M130.49 67.55L118.63 68.59" stroke="#231815" stroke-linecap="round" stroke-linejoin="round"/>
<path d="M120.78 518.19C120.78 519.3 121.32 520.34 122.23 520.98" stroke="#231815" stroke-linecap="round" stroke-linejoin="round"/>
<path d="M126.13 523.71C126.46 523.94 126.84 524.08 127.23 524.11" stroke="#231815" stroke-linecap="round" stroke-linejoin="round"/>
<path d="M139.04 524.02C140.24 523.96 141.19 522.96 141.19 521.76" stroke="#231815" stroke-linecap="round" stroke-linejoin="round"/>
<path d="M166.86 522.23C166.98 522.05 167.04 521.84 167.04 521.62" stroke="#231815" stroke-linecap="round" stroke-linejoin="round"/>
<path d="M122.97 431.75C121.75 431.79 120.78 432.79 120.78 434.02" stroke="#231815" stroke-linecap="round" stroke-linejoin="round"/>
<path d="M120.78 421.7C120.78 422.88 121.68 423.86 122.85 423.96" stroke="#231815" stroke-linecap="round" stroke-linejoin="round"/>
<path d="M141.19 434.16C141.19 432.95 140.25 431.96 139.04 431.9" stroke="#231815" stroke-linecap="round" stroke-linejoin="round"/>
<path d="M139.12 423.96C140.29 423.86 141.19 422.88 141.19 421.7" stroke="#231815" stroke-linecap="round" stroke-linejoin="round"/>
<path d="M130.79 424.65C130.92 424.66 131.05 424.66 131.19 424.65" stroke="#231815" stroke-linecap="round" stroke-linejoin="round"/>
<path d="M130.53 428.07C130.78 428.07 130.98 427.87 130.98 427.62" stroke="#231815" stroke-linecap="round" stroke-linejoin="round"/>
<path d="M130.98 427.59C130.98 427.84 131.18 428.04 131.43 428.04H131.45" stroke="#231815" stroke-linecap="round" stroke-linejoin="round"/>
<path d="M122.85 71.6201C121.68 71.7201 120.78 72.7001 120.78 73.8801" stroke="#231815" stroke-linecap="round" stroke-linejoin="round"/>
<path d="M131.18 70.9201C131.05 70.9101 130.92 70.9101 130.79 70.9201" stroke="#231815" stroke-linecap="round" stroke-linejoin="round"/>
<path d="M130.98 68C130.98 67.75 130.78 67.55 130.53 67.55C130.52 67.55 130.5 67.55 130.49 67.55" stroke="#231815" stroke-linecap="round" stroke-linejoin="round"/>
<path d="M131.48 67.5501C131.23 67.5301 131.01 67.7101 130.99 67.9601C130.99 67.9701 130.99 67.9901 130.99 68.0001" stroke="#231815" stroke-linecap="round" stroke-linejoin="round"/>
<path d="M141.19 73.8801C141.19 72.7001 140.29 71.7201 139.12 71.6201" stroke="#231815" stroke-linecap="round" stroke-linejoin="round"/>
<path d="M167.04 434.52C167.04 434.28 166.96 434.05 166.82 433.85" stroke="#231815" stroke-linecap="round" stroke-linejoin="round"/>
<path d="M166.72 74.79C166.64 74.61 166.54 74.44 166.43 74.28" stroke="#231815" stroke-linecap="round" stroke-linejoin="round"/>
<path d="M167.04 80.6101C167.04 80.7401 167.04 80.8801 167.04 81.0101C167.04 81.4201 167.03 81.8301 167.03 82.2501" stroke="#231815" stroke-linecap="round" stroke-linejoin="round"/>
<path d="M167.02 82.24C167.02 82.38 167.02 82.52 167.02 82.66C167.02 83.07 167.03 83.48 167.03 83.88" stroke="#231815" stroke-linecap="round" stroke-linejoin="round"/>
<path d="M167.04 189.46C167.04 189.59 167.04 189.73 167.04 189.86C167.04 190.27 167.03 190.68 167.03 191.1" stroke="#231815" stroke-linecap="round" stroke-linejoin="round"/>
<path d="M167.02 191.1C167.02 191.24 167.02 191.38 167.02 191.52C167.02 191.93 167.03 192.34 167.03 192.74" stroke="#231815" stroke-linecap="round" stroke-linejoin="round"/>
<path d="M167.04 298.31C167.04 298.44 167.04 298.58 167.04 298.71C167.04 299.12 167.03 299.53 167.03 299.95" stroke="#231815" stroke-linecap="round" stroke-linejoin="round"/>
<path d="M167.02 299.95C167.02 300.09 167.02 300.23 167.02 300.37C167.02 300.78 167.03 301.19 167.03 301.59" stroke="#231815" stroke-linecap="round" stroke-linejoin="round"/>
<path d="M167.04 407.16C167.04 407.29 167.04 407.43 167.04 407.56C167.04 407.97 167.03 408.38 167.03 408.8" stroke="#231815" stroke-linecap="round" stroke-linejoin="round"/>
<path d="M167.02 408.8C167.02 408.94 167.02 409.08 167.02 409.22C167.02 409.63 167.03 410.04 167.03 410.44" stroke="#231815" stroke-linecap="round" stroke-linejoin="round"/>
<path d="M130.98 527.85L154 526.64" stroke="#231815" stroke-linecap="round" stroke-linejoin="round"/>
<path d="M130.98 527.85L126.63 527.47" stroke="#231815" stroke-linecap="round" stroke-linejoin="round"/>
<path d="M124.43 526.67L94.03 505.38" stroke="#231815" stroke-linecap="round" stroke-linejoin="round"/>
<path d="M130.98 428.07L153.9 429.27" stroke="#231815" stroke-linecap="round" stroke-linejoin="round"/>
<path d="M143.58 427.41L154 426.87" stroke="#231815" stroke-linecap="round" stroke-linejoin="round"/>
<path d="M112.74 428.39L130.98 428.07" stroke="#231815" stroke-linecap="round" stroke-linejoin="round"/>
<path d="M118.79 428.07H112.84" stroke="#231815" stroke-linecap="round" stroke-linejoin="round"/>
<path d="M157.39 430.02L166.31 433.46" stroke="#231815" stroke-linecap="round" stroke-linejoin="round"/>
<path d="M108.31 423.54V73.6401" stroke="#231815" stroke-linecap="round" stroke-linejoin="round"/>
<path d="M130.98 428.09V428.07" stroke="#231815" stroke-linecap="round" stroke-linejoin="round"/>
<circle cx="130.98" cy="428.07" r="0.5" fill="#231815"/>
<path d="M167.04 521.62V434.52" stroke="#231815" stroke-linecap="round" stroke-linejoin="round"/>
<path d="M157.3 426.19L164.81 423.45" stroke="#231815" stroke-linecap="round" stroke-linejoin="round"/>
<path d="M164.82 73.0302L157.13 70.1902" stroke="#231815" stroke-linecap="round" stroke-linejoin="round"/>
<path d="M157.3 525.97L166.3 522.68" stroke="#231815" stroke-linecap="round" stroke-linejoin="round"/>
<path d="M154.19 69.5301L143.64 68.6101" stroke="#231815" stroke-linecap="round" stroke-linejoin="round"/>
<path d="M112.45 69.1301L118.63 68.5901" stroke="#231815" stroke-linecap="round" stroke-linejoin="round"/>
<path d="M91.38 493.41C89.02 497.48 90.18 502.68 94.03 505.38" stroke="#231815" stroke-linecap="round" stroke-linejoin="round"/>
<path d="M124.43 526.67C125.08 527.13 125.84 527.4 126.64 527.47" stroke="#231815" stroke-linecap="round" stroke-linejoin="round"/>
<path d="M154 526.64C155.13 526.58 156.24 526.35 157.3 525.97" stroke="#231815" stroke-linecap="round" stroke-linejoin="round"/>
<path d="M166.3 522.68C166.75 522.52 167.04 522.09 167.04 521.62" stroke="#231815" stroke-linecap="round" stroke-linejoin="round"/>
<path d="M91.38 493.41C102.04 474.97 107.86 454.13 108.28 432.83" stroke="#231815" stroke-linecap="round" stroke-linejoin="round"/>
<path d="M112.74 428.39C110.3 428.43 108.33 430.4 108.28 432.83" stroke="#231815" stroke-linecap="round" stroke-linejoin="round"/>
<path d="M108.31 423.54C108.31 426.04 110.34 428.08 112.85 428.08" stroke="#231815" stroke-linecap="round" stroke-linejoin="round"/>
<path d="M157.39 430.02C156.27 429.59 155.1 429.34 153.9 429.28" stroke="#231815" stroke-linecap="round" stroke-linejoin="round"/>
<path d="M154 426.87C155.13 426.81 156.24 426.58 157.3 426.2" stroke="#231815" stroke-linecap="round" stroke-linejoin="round"/>
<path d="M112.45 69.1301C110.11 69.3301 108.31 71.3001 108.31 73.6501" stroke="#231815" stroke-linecap="round" stroke-linejoin="round"/>
<path d="M157.13 70.19C156.18 69.84 155.2 69.62 154.19 69.53" stroke="#231815" stroke-linecap="round" stroke-linejoin="round"/>
<path d="M167.04 434.52C167.04 434.05 166.75 433.63 166.31 433.46" stroke="#231815" stroke-linecap="round" stroke-linejoin="round"/>
<path d="M164.81 423.45C166.15 422.96 167.04 421.68 167.04 420.26" stroke="#231815" stroke-linecap="round" stroke-linejoin="round"/>
<path d="M167.04 76.22C167.04 74.8 166.15 73.52 164.82 73.03" stroke="#231815" stroke-linecap="round" stroke-linejoin="round"/>
<path d="M167.04 434.53C167.04 434.32 166.98 434.1 166.86 433.92C166.74 433.74 166.56 433.6 166.37 433.51" stroke="#231815" stroke-linecap="round" stroke-linejoin="round"/>
<path d="M166.31 433.46C166.31 433.46 166.35 433.49 166.36 433.52" stroke="#231815" stroke-linecap="round" stroke-linejoin="round"/>
<path d="M166.35 522.62C166.48 522.56 166.61 522.48 166.71 522.38" stroke="#231815" stroke-linecap="round" stroke-linejoin="round"/>
<path d="M166.71 522.38C166.81 522.28 166.9 522.15 166.95 522.02" stroke="#231815" stroke-linecap="round" stroke-linejoin="round"/>
<path d="M166.95 522.02C167.01 521.89 167.04 521.74 167.04 521.6" stroke="#231815" stroke-linecap="round" stroke-linejoin="round"/>
<path d="M166.35 522.62C166.35 522.62 166.35 522.63 166.34 522.64C166.34 522.66 166.32 522.67 166.3 522.68" stroke="#231815" stroke-linecap="round" stroke-linejoin="round"/>
</g>
<defs>
<clipPath id="clip0_355_768">
<rect width="341.59" height="661.28" fill="white"/>
</clipPath>
</defs>
</svg>
