<svg width="200" height="370" viewBox="0 0 200 370" fill="none" xmlns="http://www.w3.org/2000/svg">
<path d="M200 0H0V370H200V0Z" fill="white"/>
<path d="M157.734 330.69H145.275" stroke="#231815" stroke-width="0.5" stroke-linecap="round" stroke-linejoin="round"/>
<path d="M145.275 329.084H157.734" stroke="#231815" stroke-width="0.5" stroke-linecap="round" stroke-linejoin="round"/>
<path d="M158.055 316.585H159.649" stroke="#231815" stroke-width="0.5" stroke-linecap="round" stroke-linejoin="round"/>
<path d="M158.055 313.379H159.649" stroke="#231815" stroke-width="0.5" stroke-linecap="round" stroke-linejoin="round"/>
<path d="M159.649 287.741H155.339" stroke="#231815" stroke-width="0.5" stroke-linecap="round" stroke-linejoin="round"/>
<path d="M159.66 121.068L159.644 121.085" stroke="#231815" stroke-width="0.5" stroke-linecap="round" stroke-linejoin="round"/>
<path d="M159.66 254.573L159.644 254.561" stroke="#231815" stroke-width="0.5" stroke-linecap="round" stroke-linejoin="round"/>
<path d="M145.275 329.084V330.69" stroke="#231815" stroke-width="0.5" stroke-linecap="round" stroke-linejoin="round"/>
<path d="M153.231 126.626V121.996" stroke="#231815" stroke-width="0.5" stroke-linecap="round" stroke-linejoin="round"/>
<path d="M153.259 43.3516V41.7517" stroke="#231815" stroke-width="0.5" stroke-linecap="round" stroke-linejoin="round"/>
<path d="M154.06 286.458V61.465" stroke="#231815" stroke-width="0.5" stroke-linecap="round" stroke-linejoin="round"/>
<path d="M157.733 287.741V60.1817" stroke="#C9CACA" stroke-width="0.5" stroke-linecap="round" stroke-linejoin="round"/>
<path d="M158.055 328.762V287.741" stroke="#231815" stroke-width="0.5" stroke-linecap="round" stroke-linejoin="round"/>
<path d="M158.055 60.1817V43.6739" stroke="#231815" stroke-width="0.5" stroke-linecap="round" stroke-linejoin="round"/>
<path d="M159.649 328.762V43.6739" stroke="#231815" stroke-width="0.5" stroke-linecap="round" stroke-linejoin="round"/>
<path d="M160.128 65.9482V67.2315" stroke="#231815" stroke-width="0.5" stroke-linecap="round" stroke-linejoin="round"/>
<path d="M160.128 200.56V201.844" stroke="#231815" stroke-width="0.5" stroke-linecap="round" stroke-linejoin="round"/>
<path d="M160.128 306.329V307.613" stroke="#231815" stroke-width="0.5" stroke-linecap="round" stroke-linejoin="round"/>
<path d="M159.66 254.561L159.644 254.573" stroke="#231815" stroke-width="0.5" stroke-linecap="round" stroke-linejoin="round"/>
<path d="M159.66 121.085L159.644 121.068" stroke="#231815" stroke-width="0.5" stroke-linecap="round" stroke-linejoin="round"/>
<path d="M154.06 121.996H153.231" stroke="#231815" stroke-width="0.5" stroke-linecap="round" stroke-linejoin="round"/>
<path d="M159.649 60.1817H155.339" stroke="#231815" stroke-width="0.5" stroke-linecap="round" stroke-linejoin="round"/>
<path d="M153.259 43.3516H157.733" stroke="#231815" stroke-width="0.5" stroke-linecap="round" stroke-linejoin="round"/>
<path d="M153.259 41.7517H157.733" stroke="#231815" stroke-width="0.5" stroke-linecap="round" stroke-linejoin="round"/>
<path d="M159.649 203.285C159.959 202.867 160.128 202.364 160.128 201.844" stroke="#231815" stroke-width="0.5" stroke-linecap="round" stroke-linejoin="round"/>
<path d="M160.128 200.561C160.128 200.04 159.959 199.532 159.649 199.119" stroke="#231815" stroke-width="0.5" stroke-linecap="round" stroke-linejoin="round"/>
<path d="M160.128 306.329C160.128 305.809 159.959 305.3 159.649 304.888" stroke="#231815" stroke-width="0.5" stroke-linecap="round" stroke-linejoin="round"/>
<path d="M159.649 309.054C159.959 308.636 160.128 308.133 160.128 307.613" stroke="#231815" stroke-width="0.5" stroke-linecap="round" stroke-linejoin="round"/>
<path d="M159.649 68.6731C159.959 68.2547 160.128 67.7516 160.128 67.2315" stroke="#231815" stroke-width="0.5" stroke-linecap="round" stroke-linejoin="round"/>
<path d="M160.128 65.9482C160.128 65.428 159.959 64.9192 159.649 64.5065" stroke="#231815" stroke-width="0.5" stroke-linecap="round" stroke-linejoin="round"/>
<path d="M157.733 330.69C158.793 330.69 159.649 329.83 159.649 328.768" stroke="#231815" stroke-width="0.5" stroke-linecap="round" stroke-linejoin="round"/>
<path d="M159.649 43.6739C159.649 42.6111 158.793 41.7517 157.733 41.7517" stroke="#231815" stroke-width="0.5" stroke-linecap="round" stroke-linejoin="round"/>
<path d="M153.231 126.626C153.231 127.208 153.547 127.745 154.054 128.028" stroke="#231815" stroke-width="0.5" stroke-linecap="round" stroke-linejoin="round"/>
<path d="M154.06 286.458C154.06 287.164 154.634 287.741 155.339 287.741" stroke="#231815" stroke-width="0.5" stroke-linecap="round" stroke-linejoin="round"/>
<path d="M155.339 60.1817C154.634 60.1817 154.06 60.7584 154.06 61.465" stroke="#231815" stroke-width="0.5" stroke-linecap="round" stroke-linejoin="round"/>
<path d="M157.733 329.084C157.908 329.084 158.055 328.943 158.055 328.762" stroke="#231815" stroke-width="0.5" stroke-linecap="round" stroke-linejoin="round"/>
<path d="M158.055 43.6739C158.055 43.4986 157.914 43.3516 157.733 43.3516" stroke="#231815" stroke-width="0.5" stroke-linecap="round" stroke-linejoin="round"/>
<path d="M160.128 23.8136V355.107" stroke="black" stroke-width="0.5" stroke-linecap="round" stroke-linejoin="round"/>
<path d="M155.124 333.025H148.831" stroke="black" stroke-width="0.5" stroke-linecap="round" stroke-linejoin="round"/>
<path d="M155.124 332.137H148.831" stroke="#B3B3B3" stroke-width="0.25" stroke-linecap="round" stroke-linejoin="round"/>
<path d="M149.062 328.615H154.217" stroke="black" stroke-width="0.5" stroke-linecap="round" stroke-linejoin="round"/>
<path d="M150.403 328.383H153.553" stroke="black" stroke-width="0.5" stroke-linecap="round" stroke-linejoin="round"/>
<path d="M150.403 328.383V327.925" stroke="black" stroke-width="0.5" stroke-linecap="round" stroke-linejoin="round"/>
<path d="M150.577 328.615V328.378" stroke="black" stroke-width="0.5" stroke-linecap="round" stroke-linejoin="round"/>
<path d="M153.378 328.615V328.378" stroke="black" stroke-width="0.5" stroke-linecap="round" stroke-linejoin="round"/>
<path d="M153.552 328.383V327.908" stroke="black" stroke-width="0.5" stroke-linecap="round" stroke-linejoin="round"/>
<path d="M154.217 329.084V328.615" stroke="black" stroke-width="0.5" stroke-linecap="round" stroke-linejoin="round"/>
<path d="M148.481 332.674C148.481 332.866 148.639 333.025 148.831 333.025" stroke="black" stroke-width="0.5" stroke-linecap="round" stroke-linejoin="round"/>
<path d="M155.125 333.025C155.316 333.025 155.474 332.866 155.474 332.674" stroke="black" stroke-width="0.5" stroke-linecap="round" stroke-linejoin="round"/>
<path d="M148.481 332.674V330.69" stroke="black" stroke-width="0.5" stroke-linecap="round" stroke-linejoin="round"/>
<path d="M149.062 329.084V328.615" stroke="black" stroke-width="0.5" stroke-linecap="round" stroke-linejoin="round"/>
<path d="M155.474 332.674V330.69" stroke="black" stroke-width="0.5" stroke-linecap="round" stroke-linejoin="round"/>
<path d="M150.233 322.611V327.903H153.727V322.611" stroke="black" stroke-width="0.5" stroke-linecap="round" stroke-linejoin="round"/>
<path d="M150.233 322.611C150.521 321.876 151.197 321.362 151.98 321.362C152.763 321.362 153.44 321.876 153.727 322.611" stroke="black" stroke-width="0.5" stroke-linecap="round" stroke-linejoin="round"/>
<path d="M153.829 326.693C153.66 326.998 150.955 326.659 150.341 326.455" stroke="#999999" stroke-width="0.5" stroke-linecap="round" stroke-linejoin="round"/>
<path d="M153.812 325.884C153.643 326.19 150.938 325.85 150.324 325.647" stroke="#999999" stroke-width="0.5" stroke-linecap="round" stroke-linejoin="round"/>
<path d="M153.795 325.076C153.626 325.381 150.921 325.042 150.307 324.839" stroke="#999999" stroke-width="0.5" stroke-linecap="round" stroke-linejoin="round"/>
<path d="M153.772 324.267C153.603 324.573 150.898 324.234 150.284 324.03" stroke="#999999" stroke-width="0.5" stroke-linecap="round" stroke-linejoin="round"/>
<path d="M153.755 323.465C153.586 323.77 150.882 323.431 150.268 323.227" stroke="#999999" stroke-width="0.5" stroke-linecap="round" stroke-linejoin="round"/>
<path d="M141.77 180.819L139.094 167.539L136.085 171.005L123.829 160.275L119.051 165.77L131.307 176.494L128.292 179.96L141.77 180.819Z" fill="black"/>
<path d="M109.298 313.882L110.143 25.4248" stroke="#231815" stroke-linecap="round" stroke-linejoin="round"/>
<path d="M77.9638 15.1866C77.8793 15.1696 77.7947 15.2261 77.7778 15.3109C77.7778 15.3166 77.7778 15.3279 77.7778 15.3336" stroke="#231815" stroke-width="0.5" stroke-linecap="round" stroke-linejoin="round"/>
<path d="M61.1553 319.626L73.1402 319.581L85.3279 318.614L95.2787 317.11" stroke="#231815" stroke-linecap="round" stroke-linejoin="round"/>
<path d="M61.0992 317.625L60.9414 317.613" stroke="#9FA0A0" stroke-width="0.25" stroke-linecap="round" stroke-linejoin="round"/>
<path d="M109.303 313.882L105.365 314.9" stroke="#231815" stroke-width="0.5" stroke-linecap="round" stroke-linejoin="round"/>
<path d="M105.365 314.9L106.075 314.725L109.303 313.882" stroke="#231815" stroke-width="0.5" stroke-linecap="round" stroke-linejoin="round"/>
<path d="M101.86 315.754L101.674 315.793" stroke="#231815" stroke-width="0.5" stroke-linecap="round" stroke-linejoin="round"/>
<path d="M101.719 315.787L101.674 315.793" stroke="#231815" stroke-width="0.5" stroke-linecap="round" stroke-linejoin="round"/>
<ellipse cx="39.6365" cy="310.677" rx="0.140866" ry="0.141334" fill="#231815"/>
<ellipse cx="60.637" cy="319.553" rx="0.140866" ry="0.141334" fill="#231815"/>
<ellipse cx="77.4338" cy="15.1413" rx="0.140866" ry="0.141334" fill="#231815"/>
<path d="M42.4937 246.025L45.7392 187.196" stroke="#231815" stroke-width="0.5" stroke-linecap="round" stroke-linejoin="round"/>
<ellipse cx="39.1409" cy="309.778" rx="0.140866" ry="0.141334" fill="#231815"/>
<path d="M55.0698 20.9417L39.1406 309.778" stroke="#231815" stroke-linecap="round" stroke-linejoin="round"/>
<path d="M48.0659 118.134L49.8465 109.089" stroke="#231815" stroke-linecap="round" stroke-linejoin="round"/>
<path d="M47.3335 131.414L49.114 122.369" stroke="#231815" stroke-linecap="round" stroke-linejoin="round"/>
<path d="M46.6011 144.7L48.3816 135.649" stroke="#231815" stroke-linecap="round" stroke-linejoin="round"/>
<path d="M45.8687 157.979L47.6492 148.928" stroke="#231815" stroke-linecap="round" stroke-linejoin="round"/>
<path d="M45.1362 171.259L46.9168 162.208" stroke="#231815" stroke-linecap="round" stroke-linejoin="round"/>
<path d="M60.8457 319.411L77.6144 15.3109" stroke="#898989" stroke-width="0.5" stroke-linecap="round" stroke-linejoin="round"/>
<path d="M61.0034 319.456L77.7721 15.3392" stroke="#898989" stroke-width="0.5" stroke-linecap="round" stroke-linejoin="round"/>
<path d="M46.7421 171.898L45.5757 171.83" stroke="#231815" stroke-linecap="round" stroke-linejoin="round"/>
<path d="M47.4745 158.618L46.3081 158.55" stroke="#231815" stroke-linecap="round" stroke-linejoin="round"/>
<path d="M106.723 314.566V314.572" stroke="#231815" stroke-width="0.5" stroke-linecap="round" stroke-linejoin="round"/>
<path d="M101.674 315.793V315.782" stroke="#231815" stroke-width="0.5" stroke-linecap="round" stroke-linejoin="round"/>
<path d="M48.2069 145.333L47.0405 145.271" stroke="#231815" stroke-linecap="round" stroke-linejoin="round"/>
<path d="M48.9393 132.053L47.7729 131.991" stroke="#231815" stroke-linecap="round" stroke-linejoin="round"/>
<path d="M49.6722 118.773L48.5059 118.711" stroke="#231815" stroke-linecap="round" stroke-linejoin="round"/>
<path d="M101.674 315.793V315.782" stroke="#231815" stroke-width="0.5" stroke-linecap="round" stroke-linejoin="round"/>
<ellipse cx="77.9636" cy="15.1866" rx="0.140866" ry="0.141334" fill="#231815"/>
<ellipse cx="61.1555" cy="319.626" rx="0.140866" ry="0.141334" fill="#231815"/>
<ellipse cx="55.7236" cy="20.0824" rx="0.281733" ry="0.282668" fill="#231815"/>
<path d="M77.6763 17.1257L77.5186 17.12" stroke="#898989" stroke-width="0.25" stroke-linecap="round" stroke-linejoin="round"/>
<path d="M42.4936 246.025C42.4823 246.223 42.5218 246.415 42.6119 246.59" stroke="#231815" stroke-width="0.5" stroke-linecap="round" stroke-linejoin="round"/>
<path d="M39.1409 309.778C39.1184 310.151 39.3156 310.496 39.6424 310.677" stroke="#231815" stroke-width="0.5" stroke-linecap="round" stroke-linejoin="round"/>
<path d="M39.1409 309.778C39.1184 310.145 39.3156 310.496 39.6368 310.677" stroke="#231815" stroke-linecap="round" stroke-linejoin="round"/>
<path d="M110.143 25.4248C99.8089 20.8852 89.0186 17.4479 77.9634 15.1866" stroke="#231815" stroke-linecap="round" stroke-linejoin="round"/>
<path d="M45.9196 186.642C45.8125 186.806 45.7505 186.998 45.7393 187.19" stroke="#231815" stroke-width="0.5" stroke-linecap="round" stroke-linejoin="round"/>
<path d="M45.1359 171.259C45.0852 171.519 45.2543 171.774 45.5135 171.824C45.536 171.824 45.5585 171.83 45.5811 171.83" stroke="#231815" stroke-linecap="round" stroke-linejoin="round"/>
<path d="M60.9976 319.468C60.9976 319.553 61.0652 319.62 61.1497 319.626" stroke="#231815" stroke-width="0.5" stroke-linecap="round" stroke-linejoin="round"/>
<path d="M61.0034 319.456C61.0034 319.547 61.0654 319.62 61.1556 319.626" stroke="#231815" stroke-width="0.5" stroke-linecap="round" stroke-linejoin="round"/>
<path d="M60.6372 319.553C60.7217 319.581 60.8119 319.53 60.8344 319.445C60.8344 319.434 60.8401 319.423 60.8401 319.406" stroke="#231815" stroke-width="0.5" stroke-linecap="round" stroke-linejoin="round"/>
<path d="M60.6372 319.553C60.7217 319.581 60.8119 319.53 60.8344 319.445C60.8344 319.434 60.8401 319.423 60.8401 319.406" stroke="#231815" stroke-width="0.5" stroke-linecap="round" stroke-linejoin="round"/>
<path d="M101.86 315.754C102.446 315.623 103.032 315.488 103.618 315.346" stroke="#231815" stroke-width="0.5" stroke-linecap="round" stroke-linejoin="round"/>
<path d="M45.8689 157.979C45.8181 158.239 45.9872 158.494 46.2464 158.545C46.2689 158.545 46.2914 158.55 46.314 158.55" stroke="#231815" stroke-linecap="round" stroke-linejoin="round"/>
<path d="M46.6013 144.7C46.5506 144.96 46.7196 145.214 46.9788 145.265C47.0013 145.265 47.0239 145.271 47.0464 145.271" stroke="#231815" stroke-linecap="round" stroke-linejoin="round"/>
<path d="M47.2943 161.829C47.1027 161.863 46.9506 162.016 46.9111 162.208" stroke="#231815" stroke-linecap="round" stroke-linejoin="round"/>
<path d="M48.0267 148.55C47.8351 148.583 47.683 148.736 47.6436 148.928" stroke="#231815" stroke-linecap="round" stroke-linejoin="round"/>
<path d="M47.3337 131.414C47.283 131.674 47.452 131.929 47.7112 131.979C47.7338 131.979 47.7563 131.985 47.7788 131.985" stroke="#231815" stroke-linecap="round" stroke-linejoin="round"/>
<path d="M48.7591 135.27C48.5676 135.304 48.4154 135.456 48.376 135.649" stroke="#231815" stroke-linecap="round" stroke-linejoin="round"/>
<path d="M48.0661 118.134C48.0154 118.394 48.1844 118.649 48.4436 118.7C48.4662 118.7 48.4887 118.705 48.5113 118.705" stroke="#231815" stroke-linecap="round" stroke-linejoin="round"/>
<path d="M50.2245 108.705C50.0329 108.738 49.8808 108.891 49.8413 109.083" stroke="#231815" stroke-linecap="round" stroke-linejoin="round"/>
<path d="M49.4916 121.99C49.3 122.024 49.1478 122.177 49.1084 122.369" stroke="#231815" stroke-linecap="round" stroke-linejoin="round"/>
<path d="M55.7234 20.0824C55.3516 20.2067 55.0924 20.546 55.0698 20.9417" stroke="#231815" stroke-linecap="round" stroke-linejoin="round"/>
<path d="M55.7234 20.0824C55.3516 20.2067 55.0867 20.546 55.0698 20.9417" stroke="#231815" stroke-linecap="round" stroke-linejoin="round"/>
<path d="M104.835 315.041C104.976 315.007 105.117 314.973 105.258 314.939" stroke="#231815" stroke-linecap="round" stroke-linejoin="round"/>
<path d="M105.252 314.934C105.388 314.9 105.523 314.866 105.658 314.832" stroke="#231815" stroke-linecap="round" stroke-linejoin="round"/>
<path d="M96.6987 316.839C97.3016 316.72 97.9102 316.602 98.5131 316.477" stroke="#231815" stroke-linecap="round" stroke-linejoin="round"/>
<path d="M103.618 315.33C104.024 315.233 104.43 315.137 104.83 315.036" stroke="#231815" stroke-width="0.5" stroke-linecap="round" stroke-linejoin="round"/>
<path d="M103.618 315.347C104.024 315.25 104.43 315.149 104.835 315.053" stroke="#231815" stroke-linecap="round" stroke-linejoin="round"/>
<path d="M98.5132 316.477C99.5669 316.262 100.626 316.036 101.674 315.799" stroke="#231815" stroke-linecap="round" stroke-linejoin="round"/>
<path d="M106.723 314.572C107.585 314.346 108.441 314.114 109.303 313.877" stroke="#231815" stroke-linecap="round" stroke-linejoin="round"/>
<path d="M39.6367 310.677C46.325 314.323 53.3627 317.297 60.6371 319.553" stroke="#231815" stroke-width="0.5" stroke-linecap="round" stroke-linejoin="round"/>
<path d="M39.6367 310.677C46.3194 314.346 53.3571 317.32 60.6371 319.558" stroke="#231815" stroke-linecap="round" stroke-linejoin="round"/>
<path d="M77.4339 15.1413C70.0582 16.0854 62.7839 17.7362 55.7236 20.0767" stroke="#231815" stroke-linecap="round" stroke-linejoin="round"/>
<path d="M77.6144 15.3109C77.6144 15.2205 77.5524 15.147 77.4623 15.1413C77.451 15.1413 77.4454 15.1413 77.4341 15.1413" stroke="#231815" stroke-width="0.5" stroke-linecap="round" stroke-linejoin="round"/>
<path d="M105.658 314.838C105.731 314.821 105.81 314.798 105.883 314.781C105.951 314.764 106.024 314.747 106.092 314.73C106.154 314.713 106.216 314.702 106.278 314.685C106.328 314.674 106.379 314.657 106.435 314.645C106.475 314.634 106.52 314.623 106.559 314.612C106.576 314.612 106.593 314.606 106.61 314.6C106.621 314.6 106.638 314.595 106.649 314.589C106.661 314.589 106.672 314.589 106.683 314.583C106.689 314.583 106.7 314.583 106.706 314.578C106.706 314.578 106.711 314.578 106.717 314.578" stroke="#231815" stroke-linecap="round" stroke-linejoin="round"/>
<path d="M101.674 315.782C101.674 315.782 101.68 315.782 101.686 315.782C101.686 315.782 101.691 315.782 101.697 315.782C101.702 315.782 101.708 315.782 101.714 315.782C101.731 315.782 101.748 315.776 101.764 315.77C101.787 315.77 101.81 315.759 101.832 315.754C101.86 315.748 101.888 315.742 101.917 315.737C101.95 315.731 101.984 315.72 102.018 315.714C102.057 315.703 102.097 315.697 102.136 315.686C102.181 315.674 102.221 315.663 102.266 315.657C102.367 315.635 102.463 315.612 102.565 315.59C102.677 315.561 102.784 315.539 102.897 315.51C103.015 315.482 103.134 315.454 103.258 315.426C103.382 315.397 103.506 315.369 103.63 315.341" stroke="#231815" stroke-linecap="round" stroke-linejoin="round"/>
<path d="M95.2788 317.11C95.2788 317.11 95.2788 317.11 95.2844 317.11C95.2844 317.11 95.2844 317.11 95.2901 317.11C95.2901 317.11 95.2957 317.11 95.3013 317.11C95.3126 317.11 95.3239 317.11 95.3295 317.105C95.3464 317.105 95.3577 317.105 95.369 317.099C95.3859 317.099 95.4028 317.093 95.4253 317.088C95.4478 317.088 95.4704 317.082 95.4929 317.076C95.5211 317.076 95.5436 317.065 95.5718 317.059C95.6 317.059 95.6282 317.048 95.662 317.043C95.7296 317.031 95.7972 317.014 95.8704 317.003C95.9493 316.986 96.0339 316.975 96.1127 316.958C96.2029 316.941 96.2987 316.924 96.3888 316.907C96.4903 316.89 96.5973 316.867 96.6987 316.85" stroke="#231815" stroke-linecap="round" stroke-linejoin="round"/>
</svg>
