<svg xmlns="http://www.w3.org/2000/svg" width="219" height="151" fill="none" viewBox="0 0 219 151"><g clip-path="url(#a)"><path fill="#fff" d="M218.67 0H0v150.72h218.67z"/><path stroke="#231815" stroke-linecap="round" stroke-linejoin="round" stroke-width=".5" d="m56.88 89.79-.17-1.86M62.71 89.79l.16-1.86M45.47 92.1l4.15-3.48M38.15 93.17h4.39M62.25 90.2h-4.92M72.32 90.6l1.79 1.5M42.54 93.17c1.07 0 2.11-.38 2.93-1.07M56.88 89.79c.02.24.22.42.45.42M62.25 90.2c.24 0 .43-.18.45-.42M74.11 92.1c.82.69 1.86 1.07 2.93 1.07M101.94 78.36c0-1.89-1.53-3.42-3.42-3.42s-3.42 1.53-3.42 3.42 1.53 3.42 3.42 3.42 3.42-1.53 3.42-3.42M69.96 88.62l2.36 1.98M51.53 87.93h16.53M69.96 88.62c-.53-.45-1.21-.69-1.9-.69M51.53 87.93c-.7 0-1.37.25-1.9.69"/><path stroke="#231815" stroke-linecap="round" stroke-linejoin="round" stroke-width=".5" d="M102.97 78.36c0-2.45-1.99-4.44-4.44-4.44s-4.44 1.99-4.44 4.44 1.99 4.44 4.44 4.44 4.44-1.99 4.44-4.44M109.15 90.89H87.89M87.88 91.8l.4-22.59M95.95 69.24h10.59M109.17 91.8l1.39 1.37M108.82 71.48l.35 20.32M86.49 93.17l1.39-1.37M108.82 71.48a2.284 2.284 0 0 0-2.28-2.24M38.6 74.1c0-.63.51-1.14 1.14-1.14h3.65c.63 0 1.14-.5 1.14-1.13M38.6 74.1v4.56c0 1.3 1.05 2.34 2.34 2.34h40.74c1.3 0 2.34-1.05 2.34-2.34V74.1M84.02 74.1c0-.63-.51-1.14-1.14-1.14H71.64c-.63 0-1.14-.5-1.14-1.13"/><path stroke="#231815" stroke-linecap="round" stroke-linejoin="round" d="M38.15 93.17H15.37l2.46-75.8c0-.07.04-.14.1-.18l2.67-1.78c.04-.03.13-.04.13-.04h103.2c.05 0 .13.04.13.04l2.67 1.78c.06.04.1.11.1.18l2.46 75.8H42.95m86.34 0H15.37"/><path stroke="#231815" stroke-linecap="round" stroke-linejoin="round" stroke-width=".5" d="M95.84 69.21H70.5M101.19 50.19v13.67M41.95 44.83h53.89M36.6 63.86V50.19M41.95 44.83a5.35 5.35 0 0 0-5.35 5.35M95.84 69.21c2.96 0 5.35-2.4 5.35-5.35M101.19 50.19c0-2.96-2.4-5.35-5.35-5.35M36.6 63.86c0 2.96 2.4 5.35 5.35 5.35h2.57v2.95c0 .53.43.96.96.96h24.05c.53 0 .96-.43.96-.96v-2.95"/><path fill="#fff" d="M203.31 130.03h-98.69c-1.86 0-3.38-1.51-3.38-3.38v-21.88l-1.49-1.53h-2.56l-1.28 1.53v21.88c0 4.8 3.91 8.71 8.71 8.71h98.69"/><path stroke="#231815" stroke-linecap="round" stroke-linejoin="round" stroke-width=".5" d="M203.31 130.03h-98.69c-1.86 0-3.38-1.51-3.38-3.38v-21.88l-1.49-1.53h-2.56l-1.28 1.53v21.88c0 4.8 3.91 8.71 8.71 8.71h98.69"/><path stroke="#9fa0a0" stroke-linecap="round" stroke-linejoin="round" stroke-width=".25" d="M203.31 132.01h-98.59c-3 0-5.44-2.44-5.44-5.44v-22.03"/><path stroke="#9fa0a0" stroke-linecap="round" stroke-linejoin="round" stroke-width=".25" d="M97.74 104.54v21.86c0 3.92 3.21 7.14 7.14 7.14h98.43"/><path fill="#231815" d="m105.33 115.58-1.27 7.5 6.83-3.35-1.9-1.42c.62-1.07.94-2.2.94-3.39 0-4.71-5.13-8.54-11.43-8.54s-11.43 3.83-11.43 8.54c0 1.63.61 3.21 1.76 4.57l1.7-1.44c-.81-.95-1.23-2.04-1.23-3.13 0-3.48 4.13-6.32 9.21-6.32s9.21 2.83 9.21 6.32c0 .7-.18 1.39-.51 2.05l-1.88-1.4z"/><path fill="#fff" d="M95.2 78.37v6.73c-2.9 1.02-4.92 3.33-4.92 6.03 0 3.64 3.69 6.59 8.24 6.59s8.24-2.95 8.24-6.59c0-2.7-2.03-5.02-4.93-6.04v-6.73"/><path stroke="#231815" stroke-linecap="round" stroke-linejoin="round" stroke-width=".5" d="M95.2 78.37v6.73c-2.9 1.02-4.92 3.33-4.92 6.03 0 3.64 3.69 6.59 8.24 6.59s8.24-2.95 8.24-6.59c0-2.7-2.03-5.02-4.93-6.04v-6.73"/><path stroke="#231815" stroke-linecap="round" stroke-linejoin="round" stroke-width=".25" d="M95.2 85.1c1.01-.36 2.14-.56 3.32-.56s2.3.2 3.31.55"/><path fill="#9fa0a0" stroke="#231815" stroke-linecap="round" stroke-linejoin="round" stroke-width=".25" d="M102.25 90v3.81l-3.74 1.9-3.73-1.9V90l3.73-1.9z"/><path stroke="#231815" stroke-linecap="round" stroke-linejoin="round" stroke-width=".25" d="M90.43 92.43c0-3.7 3.62-6.71 8.08-6.71s8.08 3.01 8.08 6.71"/></g><defs><clipPath id="a"><path fill="#fff" d="M0 0h218.67v150.72H0z"/></clipPath></defs></svg>