<svg xmlns="http://www.w3.org/2000/svg" width="405" height="400" fill="none" viewBox="0 0 405 400"><g clip-path="url(#a)"><path fill="#fff" d="M404.59 0H0v399.89h404.59z"/><path stroke="#231815" stroke-linecap="round" stroke-linejoin="round" stroke-width="2" d="M173.19 199.94h70.25"/><path fill="#231815" d="m238.94 205.87 2.52-5.93-2.52-5.92 14.05 5.92z"/><path stroke="#231815" stroke-linecap="round" stroke-linejoin="round" stroke-width=".5" d="M306.54 378.16h45.24M304.16 358.02v17.76M295.35 344.82c0 5.77 3.48 10.98 8.81 13.19M304.16 375.78c0 1.31 1.07 2.38 2.38 2.38M358.92 382.44h21.43M358.92 379.71h21.43M299.87 334.59h-3.81M384.63 334.59h3.81M299.87 332.21h-4.52M384.63 332.21h4.53M326.3 330.35h-10.95M326.3 327.06h-10.95M315.35 323.95h10.95M342.85 322.09h4.16M385.82 317.92h3.34M295.35 317.92h3.33M315.35 316.41h10.95M297.73 315.05h-2.38M389.16 315.05h-2.38M315.35 314.39h10.95M297.73 313.68h-2.38M389.16 313.68h-2.38M326.3 313h-10.95M347.01 311.37h-4.16M326.3 310.99h-10.95M386.78 310.43h2.38M295.35 310.43h2.38M386.78 309.59h2.38M295.35 309.59h2.38M315.35 299.74h10.95M326.3 296.54h-10.95M326.3 293.78h-10.95M385.18 256.01h3.98M295.35 256.01h3.97M389.16 45.3V31.73M389.16 344.82v-9.52M389.16 309.59v22.62M389.16 61.97v194.04M370.82 241.49h-57.14M377.95 277.51l3.73-18.62M386.78 70.3v-8.33M386.78 317.92v-8.33M386.42 256.01V70.3M386.42 332.21v-14.29M384.63 332.21v2.38M384.63 297.68v19.05M384.63 47.68v21.43M380.35 358.79v23.65M380.35 141.73v90.24M377.49 282.18v8.36M374.39 21.97v-3.32M372.01 17.44v4.53M358.92 382.44v-2.73M347.61 122.68v-9.52M336.89 113.16v9.52M330.35 293.75v37.62M326.3 293.75v37.62M315.35 331.37v-37.62M312.49 21.97v-4.53M311.3 331.37v-37.62M310.11 21.97v-3.32M307.01 290.54v-8.36M304.16 231.97v-90.24M299.87 69.11V47.68M299.87 316.73v-19.05M299.87 334.59v-2.38M298.08 317.92v14.29M298.08 70.3v185.71M297.73 309.59v8.33M297.73 61.97v8.33M295.35 335.3v9.52M295.35 309.59v22.62M295.35 61.97v194.04M295.35 31.73V45.3M302.83 258.89l3.72 18.62M305.35 140.54h73.81M385.82 70.3h3.34M295.35 70.3h3.33M297.73 67.43h-2.38M389.16 67.43h-2.38M297.73 66.06h-2.38M389.16 66.06h-2.38M386.78 62.82h2.38M295.35 62.82h2.38M386.78 61.97h2.38M295.35 61.97h2.38M387.97 46.49h-2.15M296.54 46.49h2.14M372.01 21.97h2.38M310.11 21.97h2.38M372.01 20.18h-59.52M372.01 17.44h-59.52M377.95 277.51c-.31 1.54-.46 3.1-.46 4.67M381.02 357.72c4.97-2.37 8.13-7.39 8.13-12.89M370.82 241.49c5.26 0 9.52-4.26 9.52-9.52M347.01 322.09a5.36 5.36 0 0 0 0-10.72M342.85 311.37a5.36 5.36 0 0 0 0 10.72M384.63 297.68c0-1.97-1.6-3.57-3.57-3.57M385.18 256.01c-1.7 0-3.17 1.2-3.5 2.87M377.49 290.54c0 1.97 1.6 3.57 3.57 3.57M384.63 316.73c0 .66.53 1.19 1.19 1.19M381.02 357.72c-.41.2-.68.62-.68 1.07M389.16 335.3c0-.39-.32-.71-.71-.71M389.16 31.73c0-7.59-5.93-13.85-13.51-14.26M380.35 141.73c0-.66-.53-1.19-1.19-1.19M387.97 46.49c.66 0 1.19-.53 1.19-1.19M375.65 17.46h-.06c-.66 0-1.19.53-1.19 1.19M385.82 46.49c-.66 0-1.19.53-1.19 1.19M384.63 69.11c0 .66.53 1.19 1.19 1.19M307.01 282.18c0-1.57-.15-3.13-.46-4.67M304.16 231.97c0 5.26 4.26 9.52 9.52 9.52M303.44 294.11c-1.97 0-3.57 1.6-3.57 3.57M302.83 258.89a3.566 3.566 0 0 0-3.5-2.87M303.44 294.11c1.97 0 3.57-1.6 3.57-3.57M330.35 293.75c0-1.12-.91-2.02-2.02-2.02s-2.02.91-2.02 2.02M326.3 331.37c0 1.12.91 2.02 2.02 2.02s2.02-.91 2.02-2.02M311.3 331.37c0 1.12.91 2.02 2.02 2.02s2.02-.91 2.02-2.02M315.35 293.75c0-1.12-.91-2.02-2.02-2.02s-2.02.91-2.02 2.02M298.68 317.92c.66 0 1.19-.53 1.19-1.19M296.06 334.59c-.39 0-.71.32-.71.71M308.85 17.46c-7.58.41-13.51 6.68-13.51 14.26M347.61 113.16a5.36 5.36 0 0 0-10.72 0M336.89 122.68a5.36 5.36 0 0 0 10.72 0M305.35 140.54c-.66 0-1.19.53-1.19 1.19M310.11 18.65v-.06c-.04-.66-.6-1.16-1.25-1.12M295.35 45.3c0 .66.53 1.19 1.19 1.19M298.68 70.3c.66 0 1.19-.53 1.19-1.19M299.87 47.68c0-.66-.53-1.19-1.19-1.19M358.92 376.97v2.74M351.78 376.97v1.19M358.92 376.97c0-1.97-1.6-3.57-3.57-3.57s-3.57 1.6-3.57 3.57M361.3 126.85a4.17 4.17 0 1 0 0-8.34 4.17 4.17 0 0 0 0 8.34M342.25 284.59c7.235 0 13.1-5.865 13.1-13.1s-5.865-13.1-13.1-13.1-13.1 5.865-13.1 13.1 5.865 13.1 13.1 13.1M342.25 343.64a4.17 4.17 0 1 0 0-8.34 4.17 4.17 0 0 0 0 8.34M323.2 126.85a4.17 4.17 0 1 0 0-8.34 4.17 4.17 0 0 0 0 8.34"/><path stroke="#231815" stroke-linecap="round" stroke-linejoin="round" d="M386.78 70.3v-8.33h2.38v194.05h-3.98c-1.7 0-3.17 1.2-3.5 2.87l-3.73 18.63c-.31 1.54-.46 3.1-.46 4.67v8.36c0 1.97 1.6 3.57 3.57 3.57s3.57 1.6 3.57 3.57v19.05c0 .66.53 1.19 1.19 1.19h.95v-8.33h2.38v22.62h-4.52v2.38h3.81c.39 0 .71.32.71.71v9.52c0 5.51-3.16 10.52-8.13 12.89-.41.2-.68.62-.68 1.07v23.65h-21.43v-5.48c0-1.97-1.6-3.57-3.57-3.57s-3.57 1.6-3.57 3.57v1.19h-45.24c-1.31 0-2.38-1.07-2.38-2.38v-17.76a14.29 14.29 0 0 1-8.81-13.19v-9.52c0-.39.32-.71.71-.71h3.81v-2.38h-4.52v-22.62h2.38v8.33h.95c.66 0 1.19-.53 1.19-1.19v-19.05c0-1.97 1.6-3.57 3.57-3.57s3.57-1.6 3.57-3.57v-8.36c0-1.57-.15-3.13-.46-4.67l-3.73-18.63a3.566 3.566 0 0 0-3.5-2.87h-3.98V61.97h2.38v8.33h.95c.66 0 1.19-.53 1.19-1.19V47.68c0-.66-.53-1.19-1.19-1.19h-2.14c-.66 0-1.19-.53-1.19-1.19V31.73c0-7.59 5.93-13.85 13.51-14.26.66-.04 1.22.47 1.25 1.12v3.37h2.38v-4.52h59.52v4.52h2.38v-3.31c0-.66.53-1.19 1.19-1.19h.06c7.58.41 13.51 6.68 13.51 14.26v13.57c0 .66-.53 1.19-1.19 1.19h-2.14c-.66 0-1.19.53-1.19 1.19V69.1c0 .66.53 1.19 1.19 1.19h.95"/><path fill="#fff" stroke="#231815" stroke-linecap="round" stroke-linejoin="round" stroke-width=".75" d="M335.89 114.17c0-3.51 2.85-6.36 6.36-6.36s6.36 2.85 6.36 6.36-2.85 6.36-6.36 6.36-6.36-2.85-6.36-6.36"/><path stroke="#231815" stroke-linecap="round" stroke-linejoin="round" stroke-width=".75" d="M346.07 115.45v-2.55M343.52 117.99v-2.54M343.52 112.9v-2.54M340.98 110.36v2.54M340.98 115.45v2.54M338.43 112.9v2.55M340.98 117.99h2.54M338.43 115.45h2.55M343.52 115.45h2.55M346.07 112.9h-2.55M340.98 112.9h-2.55M343.52 110.36h-2.54"/><path fill="#fff" stroke="#231815" stroke-linecap="round" stroke-linejoin="round" stroke-width=".75" d="M338.57 316.71c0-3.51 2.85-6.36 6.36-6.36s6.36 2.85 6.36 6.36-2.85 6.36-6.36 6.36-6.36-2.85-6.36-6.36"/><path stroke="#231815" stroke-linecap="round" stroke-linejoin="round" stroke-width=".75" d="M348.75 317.99v-2.55M346.2 320.53v-2.54M346.2 315.44v-2.54M343.66 312.9v2.54M343.66 317.99v2.54M341.11 315.44v2.55M343.66 320.53h2.54M341.11 317.99h2.55M346.2 317.99h2.55M348.75 315.44h-2.55M343.66 315.44h-2.55M346.2 312.9h-2.54"/><path fill="#fff" d="M110.06 379.92h.07s.3 3.26.31 3.32.03.37.07.46.19.28.4.35c0 0 .27.11.76.02l.18-.04c12.41-2.15 19-13.69 19-22.17V38.51c0-12.69-10.38-23.07-23.07-23.07H38.51c-12.69 0-23.07 10.38-23.07 23.07v323.36c0 12.69 9.88 22.57 22.57 22.57h7.2c.46 0 4.83-.74 4.97-.76a26 26 0 0 1 2.19-.13h16.15s.74 0 .88.01.91.06 1.2.1 3.3.51 3.36.52 1.1.17 1.15.18.41.06.67.06h11.99c.05 0 .63 0 .81-.16 0 0 .14-.11.18-.16s.11-.23.13-.42.38-4.02.38-4.02v-.17h6.2s3.32.1 5.29-.32v.21c0 .03 0 .19.16.36 0 0 .05.05.15.11s.19.07.33.07h5.57c.08 0 .82 0 1.04-.02s.9-.02 1.02-.02.78 0 1.02.04z"/><path stroke="#231815" stroke-linecap="round" stroke-linejoin="round" stroke-width=".5" d="m75.5 384.41.18.01M74.95 384.34l.26.04.29.03M73.14 384.06l1.81.28M45.94 384.34l4.2-.66M45.39 384.41l.28-.03.27-.04M45.21 384.42l.18-.01M15.46 361.35l.24 3.32.83 3.6 1.38 3.42 1.91 3.16 2.4 2.8 2.8 2.4 3.16 1.91 3.42 1.39 3.6.83 3.34.24M111.71 384.07l3.19-.79 3.37-1.41 3.11-1.92 2.77-2.39 2.36-2.8 1.88-3.13 1.37-3.4.81-3.57.24-3.31M87.73 384.42h.04l.25-.01.22-.03.18-.04.18-.09.16-.15.1-.2.02-.1M38.54 384.42h6.67M75.68 384.42h12.05"/><path stroke="#898989" stroke-linecap="round" stroke-linejoin="round" stroke-width=".5" d="m39.31 379.3.87.1 1.25.08.95.01"/><circle cx="39.31" cy="379.3" r=".25" fill="#898989"/><path stroke="#898989" stroke-linecap="round" stroke-linejoin="round" stroke-width=".5" d="m36.95 378.1.1.31.32.3.51.25.74.22.69.12M36.95 378.09v.01M36.95 375.57v2.52M44.98 379.49v.21M100.51 379.23l.81-.19.55-.2.36-.27.14-.36M45.33 379.49h-.06"/><path stroke="#231815" stroke-linecap="round" stroke-linejoin="round" stroke-width=".5" d="m40.18 375.31.58-.03.98-.04h.64"/><path stroke="#898989" stroke-linecap="round" stroke-linejoin="round" stroke-width=".5" d="M107.81 379.9h.06l.48-.01.46-.01h.78l.3.02.23.02M70.14 380.2l.33-.01.26-.03.21-.05.17-.08.14-.16.04-.16M100.51 379.23l-1.06.14-1.32.1-1.18.02M43.27 380.65l.19-.02.16-.04.13-.05.13-.08.09-.14.03-.12M106.94 379.92h.16l.52-.01.19-.01M46.14 380.2h24M101.33 379.92h5.61M42.38 379.49h2.89M71.01 379.49h25.94"/><path stroke="#231815" stroke-linecap="round" stroke-linejoin="round" stroke-width=".5" d="M42.38 375.24h54.57"/><path stroke="#898989" stroke-linecap="round" stroke-linejoin="round" stroke-width=".5" d="m96.95 375.24.94.01 1.24.06 1.1.1.93.12.74.15.47.13M70.94 379.49h.07M44.98 379.71l.04.16.14.15.16.08.21.05.25.03.31.02h.05M72.27 380.2l-.04-.71M71.29 379.7v-.21M44.04 379.49l-.04.71"/><path stroke="#231815" stroke-linecap="round" stroke-linejoin="round" stroke-width=".5" d="m110.5 383.71.12.19.18.13.19.07.19.02.22-.01.25-.03.06-.01"/><path stroke="#898989" stroke-linecap="round" stroke-linejoin="round" stroke-width=".5" d="m72.27 380.2.03.13.11.14.13.09.16.04.19.04.22.02"/><path stroke="#231815" stroke-linecap="round" stroke-linejoin="round" stroke-width=".5" d="M110.46 383.49v.06M110.25 381.29l.21 2.2M110.22 380.91l.03.38M110.13 379.93l.09.98"/><path stroke="#898989" stroke-linecap="round" stroke-linejoin="round" stroke-width=".5" d="m100.75 379.17.01.19M102.37 375.81v2.39"/><path stroke="#231815" stroke-linecap="round" stroke-linejoin="round" stroke-width=".5" d="M89.27 379.71v-.22"/><path stroke="#898989" stroke-linecap="round" stroke-linejoin="round" stroke-width=".5" d="M102.37 378.2v.01"/><path stroke="#231815" stroke-linecap="round" stroke-linejoin="round" stroke-width=".5" d="m88.88 383.8.39-4.09"/><path stroke="#898989" stroke-linecap="round" stroke-linejoin="round" stroke-width=".5" d="m36.95 375.57.45-.06.61-.05.74-.06.84-.05.59-.04"/><path stroke="#231815" stroke-linecap="round" stroke-linejoin="round" stroke-width=".5" d="m110.46 383.55.04.16"/><path stroke="#898989" stroke-linecap="round" stroke-linejoin="round" stroke-width=".5" d="M100.76 379.36c0 .31.26.56.58.56"/><path stroke="#231815" stroke-linecap="round" stroke-linejoin="round" stroke-width=".5" d="m70.74 383.68 2.4.38M50.14 383.68l.59-.07.65-.04.69-.02M52.07 383.55h16.75M68.82 383.55l.68.02.66.04.58.07"/><path stroke="#000" stroke-linecap="round" stroke-linejoin="round" stroke-width=".5" d="M105.8 33.17H40.49c-10.311 0-18.67 8.359-18.67 18.67v296.15c0 10.311 8.359 18.67 18.67 18.67h65.31c10.311 0 18.67-8.359 18.67-18.67V51.84c0-10.311-8.359-18.67-18.67-18.67"/><path stroke="#898989" stroke-linecap="round" stroke-linejoin="round" stroke-width=".5" d="M106.94 31.28H39.36c-10.676 0-19.33 8.654-19.33 19.33v298.98c0 10.676 8.654 19.33 19.33 19.33h67.58c10.676 0 19.33-8.654 19.33-19.33V50.61c0-10.676-8.654-19.33-19.33-19.33"/><path stroke="#000" stroke-linecap="round" stroke-linejoin="round" stroke-width=".5" d="M36.21 64.36a4.04 4.04 0 1 0 0-8.08 4.04 4.04 0 0 0 0 8.08M110.06 64.36a4.04 4.04 0 1 0 0-8.08 4.04 4.04 0 0 0 0 8.08"/><path fill="url(#b)" d="M108.24 92.86h-70.2v36.23h70.2z"/><path fill="#4c4948" d="M74.1 230.12c-1.17-.81-2.34-1.61-3.5-2.42-.57-.39-.95-.99-1.07-1.66-.12-.68.02-1.37.41-1.94a2.586 2.586 0 0 1 3.6-.66c2.24 1.54 4.48 3.09 6.72 4.64a.626.626 0 0 1-.71 1.03c-2.24-1.54-4.48-3.09-6.72-4.63a1.33 1.33 0 0 0-2.06 1.34c.06.35.26.66.55.86 1.25.86 2.5 1.73 3.75 2.59.17.11.27.3.27.5.01.57.2 1.34.38 1.88.2.61.47 1.19.8 1.74.66 1.11 1.55 2.03 2.6 2.78.28.2.35.59.15.87-.12.17-.31.27-.51.27a.6.6 0 0 1-.36-.12c-1.17-.82-2.15-1.85-2.9-3.07-.72-1.18-1.25-2.61-1.39-3.99z"/><path fill="#4c4948" d="M69.84 237.86c-.61 0-1.16-.32-1.46-.85-2.7-4.81-5.4-9.62-8.09-14.42-.22-.39-.27-.84-.15-1.27s.4-.79.79-1.01c2.78-1.57 5.57-3.14 8.35-4.7.39-.22.84-.27 1.27-.15s.79.4 1.01.79c1.24 2.2 2.48 4.41 3.71 6.62.08.15.1.32.06.48a.625.625 0 0 1-1.15.14c-1.24-2.21-2.48-4.41-3.71-6.62a.39.39 0 0 0-.25-.2.4.4 0 0 0-.32.04c-2.78 1.57-5.57 3.13-8.35 4.7-.1.06-.17.15-.2.25a.4.4 0 0 0 .04.32c2.7 4.81 5.39 9.62 8.09 14.42.11.2.37.27.57.16 1.38-.79 2.76-1.59 4.15-2.38.3-.17.68-.07.86.23q.12.225.06.48c-.04.16-.15.3-.29.38-1.38.79-2.77 1.59-4.15 2.38-.25.14-.53.22-.82.22zM77.43 220.95c-.75.14-1.5.28-2.26.42a.626.626 0 0 1-.23-1.23c.86-.16 1.71-.32 2.57-.47.2-.04.4.02.54.16l7.72 7.33c.08.08.14.17.17.28.37 1.32.45 3.19.35 4.55-.11 1.53-.44 3.03-1 4.46a.628.628 0 0 1-1.16.03.57.57 0 0 1 0-.48c.94-2.43 1.25-5.49.65-8.05-2.45-2.33-4.9-4.66-7.36-6.99z"/><path fill="#898989" d="M60.57 338.77v3.83c0 .25 0 .63-.2.84-.14.15-.38.22-.7.22h-1.02c-.17 0-.46 0-.67-.2-.17-.17-.26-.46-.26-.85v-3.83h-1.28v3.85c0 .38.1 2.3 1.91 2.3h1.68c.68 0 1.83-.3 1.83-2.31v-3.85zM53.46 341.03l-1.4-.17c-.34-.05-.64-.13-.64-.49 0-.57.16-.72 1.3-.72h.29c.67.03 1.3.09 2.06.3l.09.03v-.9c-.11-.23-1.16-.59-2.19-.58h-.28c-1.73 0-2.57.65-2.57 1.97 0 1.27 1.07 1.54 2.07 1.7l.62.09c.45.06.72.09.88.16.27.11.42.2.41.62 0 .7-.48.78-1.49.78h-.28c-.6 0-1.32-.17-2.09-.49l-.1-.04v.86c0 .35 1.06.79 2.24.79h.26c1.93 0 2.83-.65 2.83-2.05 0-1.35-1.01-1.69-1.99-1.84M66.24 338.48h-.19c-2.34 0-3.21.88-3.2 3.25v3.19h1.37v-3.19c0-1.8.4-2.1 1.6-2.1h.31c1.16 0 1.38.34 1.38 1.17 0 .51-.17 1.1-.64 1.11l-2.15-.04v.94h.06c.43.07 1.2.12 1.78.12 2.01 0 2.34-1.1 2.34-2.03 0-1.53-.99-2.43-2.65-2.43M73.48 338.56c-.35-.06-1.18-.09-1.61-.09-.75 0-2 .31-2 2.34v4.11h1.34v-4.02c0-1.08.19-1.19 1.04-1.19h1.23zM77.62 343.75h-.26c-1.13 0-1.82-.13-1.83-2.01 0-1.79.4-2.09 1.61-2.09h.31c1.13 0 1.38.18 1.38 1.04 0 .43-.19.61-.64.61h-2.15v.9h.06c.43.08 1.19.14 1.79.14.87 0 2.33-.17 2.33-1.84s-1.44-2-2.64-2h-.19c-2.34 0-3.21.88-3.21 3.25 0 2.27.89 3.19 3.07 3.19h.17c1.38 0 2.55-.37 2.55-.8v-.75l-.09.02c-.8.21-1.43.34-2.24.34M89.24 340.86c0-1.11-.42-1.68-.87-1.98 0 0-.49-.37-1.37-.37-.43 0-.76.06-1.02.14a1.6 1.6 0 0 0-.76.45s-.46-.6-1.78-.59c-.58 0-.98.16-1.2.27 0 0-.01 0-.02.01-.01 0-.02.01-.03.02-.86.47-.98 1.53-.98 2.06v4.06h1.22v-4.06c0-.61.12-1.18 1.04-1.18.95 0 1.13.43 1.13 1.18v4.06h1.26v-4.06c0-.81.33-1.19 1.04-1.19.77 0 1.12.37 1.12 1.19v4.06h1.23v-4.06zM92.83 339.67h.26c1.13 0 1.82.13 1.83 2.01 0 1.79-.4 2.09-1.61 2.09H93c-1.13 0-1.38-.18-1.38-1.04 0-.43.19-.61.64-.61h2.15v-.9h-.06c-.43-.08-1.19-.14-1.79-.14-.87 0-2.33.17-2.33 1.84s1.44 2 2.64 2h.19c2.34 0 3.21-.88 3.21-3.25 0-2.27-.89-3.19-3.07-3.19h-.17c-1.38 0-2.55.37-2.55.8v.75l.09-.02c.8-.21 1.43-.34 2.24-.34"/><path stroke="#000" stroke-linecap="round" stroke-linejoin="round" stroke-width=".5" d="M15.44 352.17c0 12.69 10.38 23.07 23.07 23.07h69.26c12.69 0 23.07-10.38 23.07-23.07M108.24 92.86h-70.2v36.23h70.2z"/><path stroke="#231815" stroke-linecap="round" stroke-linejoin="round" stroke-width=".5" d="M55.83 71.28c6.053 0 10.96-4.907 10.96-10.96s-4.907-10.96-10.96-10.96-10.96 4.907-10.96 10.96 4.907 10.96 10.96 10.96"/><path fill="#b5b5b6" stroke="#b5b5b6" stroke-linecap="round" stroke-linejoin="round" stroke-width=".04" d="M55.83 62.47a2.15 2.15 0 1 0 0-4.3 2.15 2.15 0 0 0 0 4.3"/><path stroke="#231815" stroke-linecap="round" stroke-linejoin="round" stroke-width=".5" d="M55.83 66.74a6.42 6.42 0 1 0 0-12.84 6.42 6.42 0 0 0 0 12.84"/><path stroke="#b5b5b6" stroke-linecap="round" stroke-linejoin="round" stroke-width=".5" d="M55.83 67.62a7.3 7.3 0 1 0 0-14.6 7.3 7.3 0 0 0 0 14.6"/><path stroke="#231815" stroke-linecap="round" stroke-linejoin="round" stroke-width=".5" d="M90.44 71.28c6.053 0 10.96-4.907 10.96-10.96s-4.907-10.96-10.96-10.96-10.96 4.907-10.96 10.96 4.907 10.96 10.96 10.96"/><path fill="#b5b5b6" stroke="#b5b5b6" stroke-linecap="round" stroke-linejoin="round" stroke-width=".04" d="M90.44 62.47a2.15 2.15 0 1 0 0-4.3 2.15 2.15 0 0 0 0 4.3"/><path stroke="#231815" stroke-linecap="round" stroke-linejoin="round" stroke-width=".5" d="M90.44 66.74a6.42 6.42 0 1 0 0-12.84 6.42 6.42 0 0 0 0 12.84"/><path stroke="#b5b5b6" stroke-linecap="round" stroke-linejoin="round" stroke-width=".5" d="M90.44 67.62a7.3 7.3 0 1 0 0-14.6 7.3 7.3 0 0 0 0 14.6"/><path stroke="#000" stroke-linecap="round" stroke-linejoin="round" stroke-width=".5" d="M108.39 361.65H37.91c-6.2 0-11.7-3.07-15.1-7.75 2.49 7.39 9.49 12.76 17.69 12.76h65.3c8.2 0 15.2-5.37 17.69-12.76-3.4 4.68-8.9 7.75-15.1 7.75"/><path stroke="#898989" stroke-linecap="round" stroke-linejoin="round" stroke-width=".5" d="M85.78 380.65H38.53c-.221 0-.4.177-.4.395s.179.395.4.395h47.25c.22 0 .4-.177.4-.395a.4.4 0 0 0-.4-.395"/><path stroke="#000" stroke-linecap="round" stroke-linejoin="round" d="M110.06 379.92h.07s.3 3.26.31 3.32.03.37.07.46.19.28.4.35c0 0 .27.11.76.02l.18-.04c12.41-2.15 19-13.69 19-22.17V38.51c0-12.69-10.38-23.07-23.07-23.07H38.51c-12.69 0-23.07 10.38-23.07 23.07v323.36c0 12.69 9.88 22.57 22.57 22.57h7.2c.46 0 4.83-.74 4.97-.76a26 26 0 0 1 2.19-.13h16.15s.74 0 .88.01.91.06 1.2.1 3.3.51 3.36.52 1.1.17 1.15.18.41.06.67.06h11.99c.05 0 .63 0 .81-.16 0 0 .14-.11.18-.16s.11-.23.13-.42.38-4.02.38-4.02v-.17h6.2s3.32.1 5.29-.32v.21c0 .03 0 .19.16.36 0 0 .05.05.15.11s.19.07.33.07h5.57c.08 0 .82 0 1.04-.02s.9-.02 1.02-.02.78 0 1.02.04z"/></g><defs><linearGradient id="b" x1="48.95" x2="95.35" y1="144.27" y2="80.4" gradientUnits="userSpaceOnUse"><stop stop-color="#bfbfbf"/><stop offset=".14" stop-color="#c2c2c2"/><stop offset=".27" stop-color="#cecece"/><stop offset=".4" stop-color="#e0e0e0"/><stop offset=".53" stop-color="#fbfbfb"/><stop offset=".54" stop-color="#e0e0e0"/><stop offset=".55" stop-color="#cdcdcd"/><stop offset=".56" stop-color="#ccc"/><stop offset="1" stop-color="#fff"/></linearGradient><clipPath id="a"><path fill="#fff" d="M0 0h404.59v399.89H0z"/></clipPath></defs></svg>