<?xml version="1.0" encoding="UTF-8"?>
<svg id="_레이어_1" data-name="레이어_1" xmlns="http://www.w3.org/2000/svg" version="1.1" xmlns:xlink="http://www.w3.org/1999/xlink" viewBox="0 0 315 392">
  <!-- Generator: Adobe Illustrator 30.5.1, SVG Export Plug-In . SVG Version: 2.1.4 Build 3)  -->
  <defs>
    <style>
      .st0, .st1, .st2, .st3 {
        fill: none;
      }

      .st0, .st4, .st5, .st2, .st3 {
        stroke-linecap: round;
        stroke-linejoin: round;
      }

      .st0, .st5 {
        stroke: #932340;
      }

      .st0, .st5, .st2 {
        stroke-width: .5px;
      }

      .st1 {
        stroke: #a42444;
        stroke-dasharray: 4 4;
        stroke-miterlimit: 10;
      }

      .st1, .st4 {
        stroke-width: 2px;
      }

      .st6, .st4, .st5 {
        fill: #fff;
      }

      .st4 {
        stroke: #fff;
      }

      .st7 {
        clip-path: url(#clippath-1);
      }

      .st8 {
        fill: #a42444;
      }

      .st2, .st3 {
        stroke: #231815;
      }

      .st9 {
        clip-path: url(#clippath);
      }
    </style>
    <clipPath id="clippath">
      <path class="st0" d="M55.85,181.61l-3.94,3.92h-1.34c-.54,0-.99-2.9-1-6.49,0-3.58.43-6.49.97-6.49h1.34s3.96,3.9,3.96,3.9l37.04.21c.47,0,1.23.11,1.69.25l6.1,1.78c.45.13.83.24.83.24,0,0-.37.11-.83.25l-6.09,1.81c-.45.13-1.21.25-1.69.25l-37.04.37Z"/>
    </clipPath>
    <clipPath id="clippath-1">
      <path class="st0" d="M55.85,330.66l-3.94,3.92h-1.34c-.54,0-.99-2.9-1-6.49,0-3.58.43-6.49.97-6.49h1.34s3.96,3.9,3.96,3.9l37.04.21c.47,0,1.23.11,1.69.25l6.1,1.78c.45.13.83.24.83.24,0,0-.37.11-.83.25l-6.09,1.81c-.45.13-1.21.25-1.69.25l-37.04.37Z"/>
    </clipPath>
  </defs>
  <rect class="st6" width="315" height="392"/>
  <g>
    <g id="LINE">
      <line class="st3" x1="195.91" y1="342.36" x2="179.85" y2="342.36"/>
    </g>
    <g id="LINE1" data-name="LINE">
      <line class="st3" x1="179.85" y1="342.36" x2="179.85" y2="340.58"/>
    </g>
    <g id="LINE2" data-name="LINE">
      <line class="st3" x1="195.91" y1="342.36" x2="195.91" y2="340.58"/>
    </g>
    <g id="LINE3" data-name="LINE">
      <line class="st3" x1="143.44" y1="53.23" x2="138.15" y2="59.27"/>
    </g>
    <g id="LINE4" data-name="LINE">
      <line class="st3" x1="249.18" y1="336.12" x2="197.7" y2="336.12"/>
    </g>
    <g id="LINE5" data-name="LINE">
      <line class="st3" x1="178.06" y1="336.12" x2="151.56" y2="336.12"/>
    </g>
    <g id="LINE6" data-name="LINE">
      <line class="st3" x1="265.43" y1="317.38" x2="258.66" y2="317.38"/>
    </g>
    <g id="LINE7" data-name="LINE">
      <line class="st3" x1="142.09" y1="317.38" x2="135.31" y2="317.38"/>
    </g>
    <g id="LINE8" data-name="LINE">
      <line class="st3" x1="137.1" y1="306.13" x2="137.99" y2="306.13"/>
    </g>
    <g id="LINE9" data-name="LINE">
      <line class="st3" x1="262.76" y1="306.13" x2="263.65" y2="306.13"/>
    </g>
    <g id="LINE10" data-name="LINE">
      <line class="st3" x1="265.43" y1="301.67" x2="263.65" y2="301.67"/>
    </g>
    <g id="LINE11" data-name="LINE">
      <line class="st3" x1="137.1" y1="301.67" x2="135.31" y2="301.67"/>
    </g>
    <g id="LINE12" data-name="LINE">
      <line class="st3" x1="265.43" y1="288.28" x2="262.76" y2="288.28"/>
    </g>
    <g id="LINE13" data-name="LINE">
      <line class="st3" x1="135.31" y1="288.28" x2="137.99" y2="288.28"/>
    </g>
    <g id="LINE14" data-name="LINE">
      <line class="st3" x1="148.06" y1="333.22" x2="145.59" y2="320.28"/>
    </g>
    <g id="LINE15" data-name="LINE">
      <line class="st3" x1="135.31" y1="317.38" x2="135.31" y2="301.67"/>
    </g>
    <g id="LINE16" data-name="LINE">
      <line class="st3" x1="135.31" y1="288.28" x2="135.31" y2="82.12"/>
    </g>
    <g id="LINE17" data-name="LINE">
      <line class="st3" x1="135.31" y1="68.73" x2="135.31" y2="59.45"/>
    </g>
    <g id="LINE18" data-name="LINE">
      <line class="st3" x1="137.1" y1="306.13" x2="137.1" y2="301.67"/>
    </g>
    <g id="LINE19" data-name="LINE">
      <line class="st3" x1="137.1" y1="86.58" x2="137.1" y2="82.12"/>
    </g>
    <g id="LINE20" data-name="LINE">
      <line class="st3" x1="138.88" y1="69.63" x2="138.88" y2="85.69"/>
    </g>
    <g id="LINE21" data-name="LINE">
      <line class="st3" x1="138.88" y1="289.17" x2="138.88" y2="305.24"/>
    </g>
    <g id="LINE22" data-name="LINE">
      <line class="st3" x1="148.61" y1="49.64" x2="148.61" y2="51.42"/>
    </g>
    <g id="LINE23" data-name="LINE">
      <line class="st3" x1="148.61" y1="51.78" x2="148.61" y2="51.46"/>
    </g>
    <g id="LINE24" data-name="LINE">
      <line class="st3" x1="179.85" y1="340.58" x2="179.85" y2="337.9"/>
    </g>
    <g id="LINE25" data-name="LINE">
      <line class="st3" x1="195.91" y1="337.9" x2="195.91" y2="340.58"/>
    </g>
    <g id="LINE26" data-name="LINE">
      <line class="st3" x1="252.14" y1="51.78" x2="252.14" y2="51.46"/>
    </g>
    <g id="LINE27" data-name="LINE">
      <line class="st3" x1="252.14" y1="51.42" x2="252.14" y2="49.64"/>
    </g>
    <g id="LINE28" data-name="LINE">
      <line class="st3" x1="261.86" y1="305.24" x2="261.86" y2="289.17"/>
    </g>
    <g id="LINE29" data-name="LINE">
      <line class="st3" x1="261.86" y1="85.69" x2="261.86" y2="69.63"/>
    </g>
    <g id="LINE30" data-name="LINE">
      <line class="st3" x1="263.65" y1="306.13" x2="263.65" y2="301.67"/>
    </g>
    <g id="LINE31" data-name="LINE">
      <line class="st3" x1="263.65" y1="86.58" x2="263.65" y2="82.12"/>
    </g>
    <g id="LINE32" data-name="LINE">
      <line class="st3" x1="265.43" y1="59.45" x2="265.43" y2="68.73"/>
    </g>
    <g id="LINE33" data-name="LINE">
      <line class="st3" x1="265.43" y1="317.38" x2="265.43" y2="301.67"/>
    </g>
    <g id="LINE34" data-name="LINE">
      <line class="st3" x1="265.43" y1="288.28" x2="265.43" y2="82.12"/>
    </g>
    <g id="LINE35" data-name="LINE">
      <line class="st3" x1="255.15" y1="320.28" x2="252.69" y2="333.22"/>
    </g>
    <g id="LINE36" data-name="LINE">
      <line class="st3" x1="137.1" y1="86.58" x2="137.99" y2="86.58"/>
    </g>
    <g id="LINE37" data-name="LINE">
      <line class="st3" x1="262.76" y1="86.58" x2="263.65" y2="86.58"/>
    </g>
    <g id="LINE38" data-name="LINE">
      <line class="st3" x1="265.43" y1="82.12" x2="263.65" y2="82.12"/>
    </g>
    <g id="LINE39" data-name="LINE">
      <line class="st3" x1="137.1" y1="82.12" x2="135.31" y2="82.12"/>
    </g>
    <g id="LINE40" data-name="LINE">
      <line class="st3" x1="135.31" y1="68.73" x2="137.99" y2="68.73"/>
    </g>
    <g id="LINE41" data-name="LINE">
      <line class="st3" x1="262.76" y1="68.73" x2="265.43" y2="68.73"/>
    </g>
    <g id="LINE42" data-name="LINE">
      <line class="st3" x1="265.43" y1="59.45" x2="263" y2="59.45"/>
    </g>
    <g id="LINE43" data-name="LINE">
      <line class="st3" x1="135.31" y1="59.45" x2="137.75" y2="59.45"/>
    </g>
    <g id="LINE44" data-name="LINE">
      <line class="st3" x1="262.6" y1="59.27" x2="257.31" y2="53.23"/>
    </g>
    <g id="LINE45" data-name="LINE">
      <line class="st3" x1="255.29" y1="52.31" x2="252.67" y2="52.31"/>
    </g>
    <g id="LINE46" data-name="LINE">
      <line class="st3" x1="148.07" y1="52.31" x2="145.45" y2="52.31"/>
    </g>
    <g id="LINE47" data-name="LINE">
      <line class="st3" x1="148.61" y1="49.64" x2="252.14" y2="49.64"/>
    </g>
    <g id="ARC">
      <path class="st3" d="M148.06,333.22c.32,1.68,1.79,2.9,3.51,2.9"/>
    </g>
    <g id="ARC1" data-name="ARC">
      <path class="st3" d="M145.59,320.28c-.32-1.68-1.79-2.9-3.51-2.9"/>
    </g>
    <g id="ARC2" data-name="ARC">
      <path class="st3" d="M197.7,336.12c-.99,0-1.78.8-1.78,1.78"/>
    </g>
    <g id="ARC3" data-name="ARC">
      <path class="st3" d="M179.85,337.9c0-.99-.8-1.78-1.78-1.78"/>
    </g>
    <g id="ARC4" data-name="ARC">
      <path class="st3" d="M138.88,289.17c0-.49-.4-.89-.89-.89"/>
    </g>
    <g id="ARC5" data-name="ARC">
      <path class="st3" d="M137.99,306.13c.49,0,.89-.4.89-.89"/>
    </g>
    <g id="ARC6" data-name="ARC">
      <path class="st3" d="M145.45,52.31c-.77,0-1.51.33-2.01.91"/>
    </g>
    <g id="ARC7" data-name="ARC">
      <path class="st3" d="M137.99,86.58c.49,0,.89-.4.89-.89"/>
    </g>
    <g id="ARC8" data-name="ARC">
      <path class="st3" d="M138.88,69.63c0-.49-.4-.89-.89-.89"/>
    </g>
    <g id="ARC9" data-name="ARC">
      <path class="st3" d="M137.75,59.45c.15,0,.3-.07.4-.18"/>
    </g>
    <g id="ARC10" data-name="ARC">
      <path class="st3" d="M148.07,52.31c.3,0,.54-.24.54-.54"/>
    </g>
    <g id="ARC11" data-name="ARC">
      <path class="st3" d="M249.18,336.12c1.71,0,3.19-1.22,3.51-2.9"/>
    </g>
    <g id="ARC12" data-name="ARC">
      <path class="st3" d="M258.66,317.38c-1.71,0-3.19,1.22-3.51,2.9"/>
    </g>
    <g id="ARC13" data-name="ARC">
      <path class="st3" d="M262.76,288.28c-.49,0-.89.4-.89.89"/>
    </g>
    <g id="ARC14" data-name="ARC">
      <path class="st3" d="M261.86,305.24c0,.49.4.89.89.89"/>
    </g>
    <g id="ARC15" data-name="ARC">
      <path class="st3" d="M257.31,53.23c-.51-.58-1.24-.91-2.01-.91"/>
    </g>
    <g id="ARC16" data-name="ARC">
      <path class="st3" d="M262.76,68.73c-.49,0-.89.4-.89.89"/>
    </g>
    <g id="ARC17" data-name="ARC">
      <path class="st3" d="M261.86,85.69c0,.49.4.89.89.89"/>
    </g>
    <g id="ARC18" data-name="ARC">
      <path class="st3" d="M262.6,59.27c.1.12.25.18.4.18"/>
    </g>
    <g id="ARC19" data-name="ARC">
      <path class="st3" d="M252.14,51.78c0,.3.24.54.54.54"/>
    </g>
  </g>
  <g>
    <g id="LINE48" data-name="LINE">
      <line class="st2" x1="196.8" y1="332.1" x2="203.94" y2="332.1"/>
    </g>
    <g id="LINE49" data-name="LINE">
      <line class="st2" x1="203.94" y1="324.07" x2="196.8" y2="324.07"/>
    </g>
    <g id="LINE50" data-name="LINE">
      <line class="st2" x1="196.36" y1="175.47" x2="196.36" y2="182.61"/>
    </g>
    <g id="LINE51" data-name="LINE">
      <line class="st2" x1="204.39" y1="182.61" x2="204.39" y2="175.47"/>
    </g>
    <g id="ARC20" data-name="ARC">
      <path class="st2" d="M196.8,324.07c-2.22,0-4.02,1.8-4.02,4.02s1.8,4.02,4.02,4.02"/>
    </g>
    <g id="CIRCLE">
      <circle class="st2" cx="149.5" cy="79.44" r="3.12"/>
    </g>
    <g id="ARC21" data-name="ARC">
      <path class="st2" d="M203.94,332.1c2.22,0,4.02-1.8,4.02-4.02s-1.8-4.02-4.02-4.02"/>
    </g>
    <g id="ARC22" data-name="ARC">
      <path class="st2" d="M196.36,182.61c0,2.22,1.8,4.02,4.02,4.02s4.02-1.8,4.02-4.02"/>
    </g>
    <g id="ARC23" data-name="ARC">
      <path class="st2" d="M204.39,175.47c0-2.22-1.8-4.02-4.02-4.02s-4.02,1.8-4.02,4.02"/>
    </g>
    <g id="CIRCLE1" data-name="CIRCLE">
      <circle class="st2" cx="251.24" cy="79.44" r="3.12"/>
    </g>
    <g id="LINE52" data-name="LINE">
      <line class="st2" x1="161.1" y1="51.42" x2="161.1" y2="54.1"/>
    </g>
    <g id="LINE53" data-name="LINE">
      <line class="st2" x1="178.95" y1="54.1" x2="178.95" y2="51.42"/>
    </g>
    <g id="LINE54" data-name="LINE">
      <line class="st2" x1="221.79" y1="51.42" x2="221.79" y2="54.1"/>
    </g>
    <g id="LINE55" data-name="LINE">
      <line class="st2" x1="239.64" y1="54.1" x2="239.64" y2="51.42"/>
    </g>
    <g id="LINE56" data-name="LINE">
      <line class="st2" x1="238.75" y1="54.99" x2="222.68" y2="54.99"/>
    </g>
    <g id="LINE57" data-name="LINE">
      <line class="st2" x1="178.06" y1="54.99" x2="162" y2="54.99"/>
    </g>
    <g id="ARC24" data-name="ARC">
      <path class="st2" d="M161.1,54.1c0,.49.4.89.89.89"/>
    </g>
    <g id="ARC25" data-name="ARC">
      <path class="st2" d="M178.06,54.99c.49,0,.89-.4.89-.89"/>
    </g>
    <g>
      <g id="LINE58" data-name="LINE">
        <line class="st2" x1="182.08" y1="308.63" x2="218.67" y2="308.63"/>
      </g>
      <g id="LINE59" data-name="LINE">
        <line class="st2" x1="218.67" y1="264.01" x2="182.08" y2="264.01"/>
      </g>
      <g id="LINE60" data-name="LINE">
        <line class="st2" x1="176.72" y1="269.36" x2="176.72" y2="303.27"/>
      </g>
      <g id="LINE61" data-name="LINE">
        <line class="st2" x1="224.02" y1="303.27" x2="224.02" y2="269.36"/>
      </g>
      <g id="ARC26" data-name="ARC">
        <path class="st2" d="M176.72,303.27c0,2.96,2.4,5.35,5.35,5.35"/>
      </g>
      <g id="ARC27" data-name="ARC">
        <path class="st2" d="M182.08,264.01c-2.96,0-5.35,2.4-5.35,5.35"/>
      </g>
      <g id="ARC28" data-name="ARC">
        <path class="st2" d="M218.67,308.63c2.96,0,5.35-2.4,5.35-5.35"/>
      </g>
      <g id="ARC29" data-name="ARC">
        <path class="st2" d="M224.02,269.36c0-2.96-2.4-5.35-5.35-5.35"/>
      </g>
    </g>
    <g>
      <g id="LINE62" data-name="LINE">
        <line class="st2" x1="236.96" y1="316.22" x2="236.96" y2="288.01"/>
      </g>
      <g id="LINE63" data-name="LINE">
        <line class="st2" x1="251.24" y1="288.01" x2="251.24" y2="316.22"/>
      </g>
      <g id="LINE64" data-name="LINE">
        <line class="st2" x1="240" y1="315.67" x2="248.21" y2="315.67"/>
      </g>
      <g id="LINE65" data-name="LINE">
        <line class="st2" x1="248.21" y1="310.65" x2="240" y2="310.65"/>
      </g>
      <g id="LINE66" data-name="LINE">
        <line class="st2" x1="248.21" y1="305" x2="240" y2="305"/>
      </g>
      <g id="LINE67" data-name="LINE">
        <line class="st2" x1="240" y1="300.13" x2="248.21" y2="300.13"/>
      </g>
      <g id="LINE68" data-name="LINE">
        <line class="st2" x1="248.21" y1="292.68" x2="240" y2="292.68"/>
      </g>
      <g id="LINE69" data-name="LINE">
        <line class="st2" x1="240" y1="288.64" x2="248.21" y2="288.64"/>
      </g>
      <g id="LINE70" data-name="LINE">
        <line class="st2" x1="240" y1="316.22" x2="240" y2="288.01"/>
      </g>
      <g id="LINE71" data-name="LINE">
        <line class="st2" x1="248.21" y1="288.01" x2="248.21" y2="316.22"/>
      </g>
      <g id="ARC30" data-name="ARC">
        <path class="st2" d="M240,288.01c0-.84-.68-1.52-1.52-1.52s-1.52.68-1.52,1.52"/>
      </g>
      <g id="ARC31" data-name="ARC">
        <path class="st2" d="M236.96,316.22c0,.84.68,1.52,1.52,1.52s1.52-.68,1.52-1.52"/>
      </g>
      <g id="ARC32" data-name="ARC">
        <path class="st2" d="M248.21,316.22c0,.84.68,1.52,1.52,1.52s1.52-.68,1.52-1.52"/>
      </g>
      <g id="ARC33" data-name="ARC">
        <path class="st2" d="M251.24,288.01c0-.84-.68-1.52-1.52-1.52s-1.52.68-1.52,1.52"/>
      </g>
    </g>
    <g>
      <g id="LINE72" data-name="LINE">
        <line class="st2" x1="190.11" y1="193.86" x2="190.11" y2="204.57"/>
      </g>
      <g id="LINE73" data-name="LINE">
        <line class="st2" x1="191" y1="205.46" x2="209.74" y2="205.46"/>
      </g>
      <g id="LINE74" data-name="LINE">
        <line class="st2" x1="210.64" y1="204.57" x2="210.64" y2="193.86"/>
      </g>
      <g id="LINE75" data-name="LINE">
        <line class="st2" x1="209.74" y1="192.97" x2="191" y2="192.97"/>
      </g>
      <g id="ARC34" data-name="ARC">
        <path class="st2" d="M190.11,204.57c0,.49.4.89.89.89"/>
      </g>
      <g id="ARC35" data-name="ARC">
        <path class="st2" d="M191,192.97c-.49,0-.89.4-.89.89"/>
      </g>
      <g id="ARC36" data-name="ARC">
        <path class="st2" d="M209.74,205.46c.49,0,.89-.4.89-.89"/>
      </g>
      <g id="ARC37" data-name="ARC">
        <path class="st2" d="M210.64,193.86c0-.49-.4-.89-.89-.89"/>
      </g>
    </g>
    <g id="ARC38" data-name="ARC">
      <path class="st2" d="M238.75,54.99c.49,0,.89-.4.89-.89"/>
    </g>
    <g id="ARC39" data-name="ARC">
      <path class="st2" d="M221.79,54.1c0,.49.4.89.89.89"/>
    </g>
    <g>
      <g id="LINE76" data-name="LINE">
        <line class="st2" x1="195.91" y1="342.36" x2="179.85" y2="342.36"/>
      </g>
      <g id="LINE77" data-name="LINE">
        <line class="st2" x1="195.91" y1="340.58" x2="179.85" y2="340.58"/>
      </g>
      <g id="LINE78" data-name="LINE">
        <line class="st2" x1="179.85" y1="342.36" x2="179.85" y2="340.58"/>
      </g>
      <g id="LINE79" data-name="LINE">
        <line class="st2" x1="195.91" y1="342.36" x2="195.91" y2="340.58"/>
      </g>
      <g id="LINE80" data-name="LINE">
        <line class="st2" x1="143.44" y1="53.23" x2="138.15" y2="59.27"/>
      </g>
      <g id="LINE81" data-name="LINE">
        <line class="st2" x1="249.18" y1="336.12" x2="197.7" y2="336.12"/>
      </g>
      <g id="LINE82" data-name="LINE">
        <line class="st2" x1="178.06" y1="336.12" x2="151.56" y2="336.12"/>
      </g>
      <g id="LINE83" data-name="LINE">
        <line class="st2" x1="265.43" y1="317.38" x2="258.66" y2="317.38"/>
      </g>
      <g id="LINE84" data-name="LINE">
        <line class="st2" x1="142.09" y1="317.38" x2="135.31" y2="317.38"/>
      </g>
      <g id="LINE85" data-name="LINE">
        <line class="st2" x1="137.1" y1="306.13" x2="137.99" y2="306.13"/>
      </g>
      <g id="LINE86" data-name="LINE">
        <line class="st2" x1="262.76" y1="306.13" x2="263.65" y2="306.13"/>
      </g>
      <g id="LINE87" data-name="LINE">
        <line class="st2" x1="265.43" y1="301.67" x2="263.65" y2="301.67"/>
      </g>
      <g id="LINE88" data-name="LINE">
        <line class="st2" x1="137.1" y1="301.67" x2="135.31" y2="301.67"/>
      </g>
      <g id="LINE89" data-name="LINE">
        <line class="st2" x1="265.43" y1="288.28" x2="262.76" y2="288.28"/>
      </g>
      <g id="LINE90" data-name="LINE">
        <line class="st2" x1="135.31" y1="288.28" x2="137.99" y2="288.28"/>
      </g>
      <g id="LINE91" data-name="LINE">
        <line class="st2" x1="148.06" y1="333.22" x2="145.59" y2="320.28"/>
      </g>
      <g id="LINE92" data-name="LINE">
        <line class="st2" x1="135.31" y1="317.38" x2="135.31" y2="301.67"/>
      </g>
      <g id="LINE93" data-name="LINE">
        <line class="st2" x1="135.31" y1="288.28" x2="135.31" y2="82.12"/>
      </g>
      <g id="LINE94" data-name="LINE">
        <line class="st2" x1="135.31" y1="68.73" x2="135.31" y2="59.45"/>
      </g>
      <g id="LINE95" data-name="LINE">
        <line class="st2" x1="137.1" y1="59.45" x2="137.1" y2="68.73"/>
      </g>
      <g id="LINE96" data-name="LINE">
        <line class="st2" x1="137.1" y1="317.38" x2="137.1" y2="301.67"/>
      </g>
      <g id="LINE97" data-name="LINE">
        <line class="st2" x1="137.1" y1="288.28" x2="137.1" y2="82.12"/>
      </g>
      <g id="LINE98" data-name="LINE">
        <line class="st2" x1="138.88" y1="69.63" x2="138.88" y2="85.69"/>
      </g>
      <g id="LINE99" data-name="LINE">
        <line class="st2" x1="138.88" y1="289.17" x2="138.88" y2="305.24"/>
      </g>
      <g id="LINE100" data-name="LINE">
        <line class="st2" x1="148.61" y1="49.64" x2="148.61" y2="51.42"/>
      </g>
      <g id="LINE101" data-name="LINE">
        <line class="st2" x1="148.61" y1="51.78" x2="148.61" y2="51.46"/>
      </g>
      <g id="LINE102" data-name="LINE">
        <line class="st2" x1="179.85" y1="340.58" x2="179.85" y2="337.9"/>
      </g>
      <g id="LINE103" data-name="LINE">
        <line class="st2" x1="195.91" y1="337.9" x2="195.91" y2="340.58"/>
      </g>
      <g id="LINE104" data-name="LINE">
        <line class="st2" x1="252.14" y1="51.78" x2="252.14" y2="51.46"/>
      </g>
      <g id="LINE105" data-name="LINE">
        <line class="st2" x1="252.14" y1="51.42" x2="252.14" y2="49.64"/>
      </g>
      <g id="LINE106" data-name="LINE">
        <line class="st2" x1="261.86" y1="305.24" x2="261.86" y2="289.17"/>
      </g>
      <g id="LINE107" data-name="LINE">
        <line class="st2" x1="261.86" y1="133.88" x2="261.86" y2="99.97"/>
      </g>
      <g id="LINE108" data-name="LINE">
        <line class="st2" x1="261.86" y1="85.69" x2="261.86" y2="69.63"/>
      </g>
      <g id="LINE109" data-name="LINE">
        <line class="st2" x1="263.65" y1="317.38" x2="263.65" y2="301.67"/>
      </g>
      <g id="LINE110" data-name="LINE">
        <line class="st2" x1="263.65" y1="288.28" x2="263.65" y2="82.12"/>
      </g>
      <g id="LINE111" data-name="LINE">
        <line class="st2" x1="263.65" y1="68.73" x2="263.65" y2="59.45"/>
      </g>
      <g id="LINE112" data-name="LINE">
        <line class="st2" x1="265.43" y1="59.45" x2="265.43" y2="68.73"/>
      </g>
      <g id="LINE113" data-name="LINE">
        <line class="st2" x1="265.43" y1="317.38" x2="265.43" y2="301.67"/>
      </g>
      <g id="LINE114" data-name="LINE">
        <line class="st2" x1="265.43" y1="288.28" x2="265.43" y2="82.12"/>
      </g>
      <g id="LINE115" data-name="LINE">
        <line class="st2" x1="262.76" y1="134.78" x2="263.65" y2="134.78"/>
      </g>
      <g id="LINE116" data-name="LINE">
        <line class="st2" x1="255.15" y1="320.28" x2="252.69" y2="333.22"/>
      </g>
      <g id="LINE117" data-name="LINE">
        <line class="st2" x1="262.76" y1="99.08" x2="263.65" y2="99.08"/>
      </g>
      <g id="LINE118" data-name="LINE">
        <line class="st2" x1="137.1" y1="86.58" x2="137.99" y2="86.58"/>
      </g>
      <g id="LINE119" data-name="LINE">
        <line class="st2" x1="262.76" y1="86.58" x2="263.65" y2="86.58"/>
      </g>
      <g id="LINE120" data-name="LINE">
        <line class="st2" x1="265.43" y1="82.12" x2="263.65" y2="82.12"/>
      </g>
      <g id="LINE121" data-name="LINE">
        <line class="st2" x1="137.1" y1="82.12" x2="135.31" y2="82.12"/>
      </g>
      <g id="LINE122" data-name="LINE">
        <line class="st2" x1="135.31" y1="68.73" x2="137.99" y2="68.73"/>
      </g>
      <g id="LINE123" data-name="LINE">
        <line class="st2" x1="262.76" y1="68.73" x2="265.43" y2="68.73"/>
      </g>
      <g id="LINE124" data-name="LINE">
        <line class="st2" x1="265.43" y1="59.45" x2="263" y2="59.45"/>
      </g>
      <g id="LINE125" data-name="LINE">
        <line class="st2" x1="135.31" y1="59.45" x2="137.75" y2="59.45"/>
      </g>
      <g id="LINE126" data-name="LINE">
        <line class="st2" x1="262.6" y1="59.27" x2="257.31" y2="53.23"/>
      </g>
      <g id="LINE127" data-name="LINE">
        <line class="st2" x1="255.29" y1="52.31" x2="252.67" y2="52.31"/>
      </g>
      <g id="LINE128" data-name="LINE">
        <line class="st2" x1="148.07" y1="52.31" x2="145.45" y2="52.31"/>
      </g>
      <g id="LINE129" data-name="LINE">
        <line class="st2" x1="148.61" y1="51.42" x2="252.14" y2="51.42"/>
      </g>
      <g id="LINE130" data-name="LINE">
        <line class="st2" x1="148.61" y1="49.64" x2="252.14" y2="49.64"/>
      </g>
      <g id="ARC40" data-name="ARC">
        <path class="st2" d="M148.06,333.22c.32,1.68,1.79,2.9,3.51,2.9"/>
      </g>
      <g id="ARC41" data-name="ARC">
        <path class="st2" d="M145.59,320.28c-.32-1.68-1.79-2.9-3.51-2.9"/>
      </g>
      <g id="ARC42" data-name="ARC">
        <path class="st2" d="M197.7,336.12c-.99,0-1.78.8-1.78,1.78"/>
      </g>
      <g id="ARC43" data-name="ARC">
        <path class="st2" d="M179.85,337.9c0-.99-.8-1.78-1.78-1.78"/>
      </g>
      <g id="ARC44" data-name="ARC">
        <path class="st2" d="M138.88,289.17c0-.49-.4-.89-.89-.89"/>
      </g>
      <g id="ARC45" data-name="ARC">
        <path class="st2" d="M137.99,306.13c.49,0,.89-.4.89-.89"/>
      </g>
      <g id="ARC46" data-name="ARC">
        <path class="st2" d="M145.45,52.31c-.77,0-1.51.33-2.01.91"/>
      </g>
      <g id="ARC47" data-name="ARC">
        <path class="st2" d="M137.99,86.58c.49,0,.89-.4.89-.89"/>
      </g>
      <g id="ARC48" data-name="ARC">
        <path class="st2" d="M138.88,69.63c0-.49-.4-.89-.89-.89"/>
      </g>
      <g id="ARC49" data-name="ARC">
        <path class="st2" d="M137.75,59.45c.15,0,.3-.07.4-.18"/>
      </g>
      <g id="ARC50" data-name="ARC">
        <path class="st2" d="M148.07,52.31c.3,0,.54-.24.54-.54"/>
      </g>
      <g id="ARC51" data-name="ARC">
        <path class="st2" d="M249.18,336.12c1.71,0,3.19-1.22,3.51-2.9"/>
      </g>
      <g id="ARC52" data-name="ARC">
        <path class="st2" d="M258.66,317.38c-1.71,0-3.19,1.22-3.51,2.9"/>
      </g>
      <g id="ARC53" data-name="ARC">
        <path class="st2" d="M262.76,288.28c-.49,0-.89.4-.89.89"/>
      </g>
      <g id="ARC54" data-name="ARC">
        <path class="st2" d="M261.86,305.24c0,.49.4.89.89.89"/>
      </g>
      <g id="ARC55" data-name="ARC">
        <path class="st2" d="M257.31,53.23c-.51-.58-1.24-.91-2.01-.91"/>
      </g>
      <g id="ARC56" data-name="ARC">
        <path class="st2" d="M261.86,133.88c0,.49.4.89.89.89"/>
      </g>
      <g id="ARC57" data-name="ARC">
        <path class="st2" d="M262.76,99.08c-.49,0-.89.4-.89.89"/>
      </g>
      <g id="ARC58" data-name="ARC">
        <path class="st2" d="M262.76,68.73c-.49,0-.89.4-.89.89"/>
      </g>
      <g id="ARC59" data-name="ARC">
        <path class="st2" d="M261.86,85.69c0,.49.4.89.89.89"/>
      </g>
      <g id="ARC60" data-name="ARC">
        <path class="st2" d="M262.6,59.27c.1.12.25.18.4.18"/>
      </g>
      <g id="ARC61" data-name="ARC">
        <path class="st2" d="M252.14,51.78c0,.3.24.54.54.54"/>
      </g>
    </g>
    <g id="LINE131" data-name="LINE">
      <line class="st2" x1="145.04" y1="261.51" x2="146.82" y2="261.51"/>
    </g>
    <g id="LINE132" data-name="LINE">
      <line class="st2" x1="146.82" y1="254.37" x2="145.04" y2="254.37"/>
    </g>
    <g id="ARC62" data-name="ARC">
      <path class="st2" d="M145.04,254.37c-1.97,0-3.57,1.6-3.57,3.57s1.6,3.57,3.57,3.57"/>
    </g>
    <g id="ARC63" data-name="ARC">
      <path class="st2" d="M146.82,261.51c1.97,0,3.57-1.6,3.57-3.57s-1.6-3.57-3.57-3.57"/>
    </g>
    <g id="CIRCLE2" data-name="CIRCLE">
      <circle class="st2" cx="149.5" cy="274" r="3.12"/>
    </g>
    <g id="CIRCLE3" data-name="CIRCLE">
      <circle class="st2" cx="146.82" cy="132.1" r="3.57"/>
    </g>
    <g id="CIRCLE4" data-name="CIRCLE">
      <circle class="st2" cx="253.92" cy="257.94" r="3.57"/>
    </g>
    <g id="CIRCLE5" data-name="CIRCLE">
      <circle class="st2" cx="251.24" cy="274" r="3.12"/>
    </g>
    <g id="CIRCLE6" data-name="CIRCLE">
      <circle class="st2" cx="253.92" cy="132.1" r="3.57"/>
    </g>
  </g>
  <g>
    <g>
      <path class="st5" d="M55.85,181.61l-3.94,3.92h-1.34c-.54,0-.99-2.9-1-6.49,0-3.58.43-6.49.97-6.49h1.34s3.96,3.9,3.96,3.9l37.04.21c.47,0,1.23.11,1.69.25l6.1,1.78c.45.13.83.24.83.24,0,0-.37.11-.83.25l-6.09,1.81c-.45.13-1.21.25-1.69.25l-37.04.37Z"/>
      <g>
        <g class="st9">
          <g>
            <path class="st0" d="M58.09,181.61c-.34,0-.87-1.15-1.17-2.58-.31-1.42-.28-2.58.06-2.58"/>
            <path class="st0" d="M60.45,181.6c-.34,0-.87-1.15-1.17-2.58-.31-1.42-.28-2.58.06-2.58"/>
            <path class="st0" d="M62.81,181.6c-.34,0-.87-1.15-1.17-2.58-.31-1.42-.28-2.58.06-2.58"/>
            <path class="st0" d="M65.18,181.59c-.34,0-.87-1.15-1.17-2.58-.31-1.42-.28-2.58.06-2.58"/>
            <path class="st0" d="M67.54,181.59c-.34,0-.87-1.15-1.17-2.58-.31-1.42-.28-2.58.06-2.58"/>
            <path class="st0" d="M69.91,181.58c-.34,0-.87-1.15-1.17-2.58-.31-1.42-.28-2.58.06-2.58"/>
            <path class="st0" d="M72.27,181.58c-.34,0-.87-1.15-1.17-2.58-.31-1.42-.28-2.58.06-2.58"/>
            <path class="st0" d="M74.64,181.57c-.34,0-.87-1.15-1.17-2.58-.31-1.42-.28-2.58.06-2.58"/>
            <path class="st0" d="M77,181.57c-.34,0-.87-1.15-1.17-2.58-.31-1.42-.28-2.58.06-2.58"/>
            <path class="st0" d="M79.36,181.56c-.34,0-.87-1.15-1.17-2.58-.31-1.42-.28-2.58.06-2.58"/>
            <path class="st0" d="M81.73,181.56c-.34,0-.87-1.15-1.17-2.58-.31-1.42-.28-2.58.06-2.58"/>
            <path class="st0" d="M84.09,181.55c-.34,0-.87-1.15-1.17-2.58-.31-1.42-.28-2.58.06-2.58"/>
            <path class="st0" d="M86.46,181.55c-.34,0-.87-1.15-1.17-2.58-.3-1.42-.28-2.58.06-2.58"/>
            <path class="st0" d="M88.82,181.54c-.34,0-.87-1.15-1.17-2.58-.31-1.42-.28-2.58.06-2.58"/>
            <path class="st0" d="M91.18,181.54c-.34,0-.87-1.15-1.17-2.58-.31-1.42-.28-2.58.06-2.58"/>
            <path class="st0" d="M93.55,181.53c-.34,0-.87-1.15-1.17-2.58-.31-1.42-.28-2.58.06-2.58"/>
            <path class="st0" d="M95.91,181.53c-.34,0-.87-1.15-1.17-2.58-.31-1.42-.28-2.58.06-2.58"/>
            <path class="st0" d="M98.28,181.52c-.34,0-.87-1.15-1.17-2.58-.31-1.42-.28-2.58.06-2.58"/>
          </g>
        </g>
        <path class="st0" d="M55.85,181.61l-3.94,3.92h-1.34c-.54,0-.99-2.9-1-6.49,0-3.58.43-6.49.97-6.49h1.34s3.96,3.9,3.96,3.9l37.04.21c.47,0,1.23.11,1.69.25l6.1,1.78c.45.13.83.24.83.24,0,0-.37.11-.83.25l-6.09,1.81c-.45.13-1.21.25-1.69.25l-37.04.37Z"/>
      </g>
      <g>
        <path class="st0" d="M55.85,181.61l-3.94,3.92h-1.34c-.54,0-.99-2.9-1-6.49,0-3.58.43-6.49.97-6.49h1.34s3.96,3.9,3.96,3.9l37.04.21c.47,0,1.23.11,1.69.25l6.1,1.78c.45.13.83.24.83.24,0,0-.37.11-.83.25l-6.09,1.81c-.45.13-1.21.25-1.69.25l-37.04.37Z"/>
        <path class="st0" d="M51.91,185.53c-.54,0-.99-2.9-1-6.49,0-3.58.43-6.49.97-6.49"/>
        <line class="st0" x1="55.84" y1="176.45" x2="55.85" y2="181.61"/>
      </g>
    </g>
    <g>
      <rect class="st4" x="103.55" y="178.04" width="88.46" height="2"/>
      <polygon class="st4" points="188.08 184.23 190.29 179.04 188.08 173.86 200.37 179.04 188.08 184.23"/>
    </g>
    <g>
      <line class="st1" x1="103.55" y1="179.04" x2="192.02" y2="179.04"/>
      <polygon class="st8" points="188.08 184.23 190.29 179.04 188.08 173.86 200.37 179.04 188.08 184.23"/>
    </g>
  </g>
  <g>
    <g>
      <path class="st5" d="M55.85,330.66l-3.94,3.92h-1.34c-.54,0-.99-2.9-1-6.49,0-3.58.43-6.49.97-6.49h1.34s3.96,3.9,3.96,3.9l37.04.21c.47,0,1.23.11,1.69.25l6.1,1.78c.45.13.83.24.83.24,0,0-.37.11-.83.25l-6.09,1.81c-.45.13-1.21.25-1.69.25l-37.04.37Z"/>
      <g>
        <g class="st7">
          <g>
            <path class="st0" d="M58.09,330.65c-.34,0-.87-1.15-1.17-2.58-.31-1.42-.28-2.58.06-2.58"/>
            <path class="st0" d="M60.45,330.65c-.34,0-.87-1.15-1.17-2.58-.31-1.42-.28-2.58.06-2.58"/>
            <path class="st0" d="M62.81,330.64c-.34,0-.87-1.15-1.17-2.58-.31-1.42-.28-2.58.06-2.58"/>
            <path class="st0" d="M65.18,330.64c-.34,0-.87-1.15-1.17-2.58-.31-1.42-.28-2.58.06-2.58"/>
            <path class="st0" d="M67.54,330.63c-.34,0-.87-1.15-1.17-2.58-.31-1.42-.28-2.58.06-2.58"/>
            <path class="st0" d="M69.91,330.62c-.34,0-.87-1.15-1.17-2.58-.31-1.42-.28-2.58.06-2.58"/>
            <path class="st0" d="M72.27,330.62c-.34,0-.87-1.15-1.17-2.58-.31-1.42-.28-2.58.06-2.58"/>
            <path class="st0" d="M74.64,330.61c-.34,0-.87-1.15-1.17-2.58-.31-1.42-.28-2.58.06-2.58"/>
            <path class="st0" d="M77,330.61c-.34,0-.87-1.15-1.17-2.58-.31-1.42-.28-2.58.06-2.58"/>
            <path class="st0" d="M79.36,330.6c-.34,0-.87-1.15-1.17-2.58-.31-1.42-.28-2.58.06-2.58"/>
            <path class="st0" d="M81.73,330.6c-.34,0-.87-1.15-1.17-2.58-.31-1.42-.28-2.58.06-2.58"/>
            <path class="st0" d="M84.09,330.59c-.34,0-.87-1.15-1.17-2.58-.31-1.42-.28-2.58.06-2.58"/>
            <path class="st0" d="M86.46,330.59c-.34,0-.87-1.15-1.17-2.58-.3-1.42-.28-2.58.06-2.58"/>
            <path class="st0" d="M88.82,330.58c-.34,0-.87-1.15-1.17-2.58-.31-1.42-.28-2.58.06-2.58"/>
            <path class="st0" d="M91.18,330.58c-.34,0-.87-1.15-1.17-2.58-.31-1.42-.28-2.58.06-2.58"/>
            <path class="st0" d="M93.55,330.57c-.34,0-.87-1.15-1.17-2.58-.31-1.42-.28-2.58.06-2.58"/>
            <path class="st0" d="M95.91,330.57c-.34,0-.87-1.15-1.17-2.58-.31-1.42-.28-2.58.06-2.58"/>
            <path class="st0" d="M98.28,330.56c-.34,0-.87-1.15-1.17-2.58-.31-1.42-.28-2.58.06-2.58"/>
          </g>
        </g>
        <path class="st0" d="M55.85,330.66l-3.94,3.92h-1.34c-.54,0-.99-2.9-1-6.49,0-3.58.43-6.49.97-6.49h1.34s3.96,3.9,3.96,3.9l37.04.21c.47,0,1.23.11,1.69.25l6.1,1.78c.45.13.83.24.83.24,0,0-.37.11-.83.25l-6.09,1.81c-.45.13-1.21.25-1.69.25l-37.04.37Z"/>
      </g>
      <g>
        <path class="st0" d="M55.85,330.66l-3.94,3.92h-1.34c-.54,0-.99-2.9-1-6.49,0-3.58.43-6.49.97-6.49h1.34s3.96,3.9,3.96,3.9l37.04.21c.47,0,1.23.11,1.69.25l6.1,1.78c.45.13.83.24.83.24,0,0-.37.11-.83.25l-6.09,1.81c-.45.13-1.21.25-1.69.25l-37.04.37Z"/>
        <path class="st0" d="M51.91,334.58c-.54,0-.99-2.9-1-6.49,0-3.58.43-6.49.97-6.49"/>
        <line class="st0" x1="55.84" y1="325.5" x2="55.85" y2="330.66"/>
      </g>
    </g>
    <g>
      <rect class="st4" x="103.55" y="327.08" width="88.46" height="2"/>
      <polygon class="st4" points="188.08 333.27 190.29 328.09 188.08 322.9 200.37 328.09 188.08 333.27"/>
    </g>
    <g>
      <line class="st1" x1="103.55" y1="328.09" x2="192.02" y2="328.09"/>
      <polygon class="st8" points="188.08 333.27 190.29 328.09 188.08 322.9 200.37 328.09 188.08 333.27"/>
    </g>
  </g>
</svg>