<svg xmlns="http://www.w3.org/2000/svg" width="300" height="242" fill="none" viewBox="0 0 300 242"><path fill="#fff" d="M300 0H0v242h300z"/><path stroke="#000" stroke-miterlimit="10" d="M26.64 24.65h246.72M26.64 217.35h246.72"/><path fill="url(#a)" d="M96.59 74.5H42.11v96.48h54.48z"/><path stroke="#231815" stroke-linecap="round" stroke-linejoin="round" stroke-width=".25" d="M44.55 187.35h49.61M38.12 61.08v119.84M100.59 180.92V61.08M96.59 170.99H42.11M42.11 170.99V74.5M96.59 74.5v96.49M42.11 74.5h54.48M94.16 54.65H44.55M38.12 180.92c0 3.55 2.88 6.43 6.43 6.43M94.16 187.35c3.55 0 6.43-2.88 6.43-6.43"/><path stroke="#898989" stroke-linecap="round" stroke-linejoin="round" stroke-width=".25" d="M94.16 187.98H44.55M37.5 180.92V61.08M101.21 61.08v119.84M44.55 54.02h49.61M37.5 180.92c0 3.9 3.16 7.05 7.05 7.05M94.16 187.98c3.9 0 7.051-3.16 7.051-7.05M101.211 61.08c0-3.9-3.16-7.05-7.05-7.05M44.55 54.02c-3.9 0-7.05 3.16-7.05 7.05"/><path stroke="#231815" stroke-linecap="round" stroke-linejoin="round" stroke-width=".25" d="M44.55 54.65c-3.55 0-6.43 2.88-6.43 6.43M100.59 61.08c0-3.55-2.88-6.43-6.43-6.43M78.48 66.69a3.79 3.79 0 1 0 0-7.58 3.79 3.79 0 0 0 0 7.58M60.23 66.69a3.79 3.79 0 1 0 0-7.58 3.79 3.79 0 0 0 0 7.58"/><path stroke="#231815" stroke-linecap="round" stroke-linejoin="round" stroke-width=".5" d="M68.56 188.86h23.73M92.29 188.86h1.9M44.55 188.86h23.42M36.61 61.08v119.84M102.09 180.92V61.08M94.16 53.14H44.55M94.93 188.82l.48-.06M95.41 188.76s.08-.01.12-.02M94.81 188.83s.08 0 .12-.01M94.48 188.85h.17M94.65 188.85c.05 0 .1 0 .16-.01M95.53 188.74c.2-.03.39-.08.58-.13M94.34 188.86h.1M94.19 188.86h.15M96.12 188.61c.23-.06.46-.13.68-.21M67.97 188.86h.59M36.61 180.92c0 .53.05 1.05.16 1.57s.26 1.01.46 1.49c.39.94.97 1.81 1.69 2.53s1.59 1.31 2.54 1.71c.48.21.99.36 1.5.47s1.06.16 1.59.16M96.8 188.41a7.9 7.9 0 0 0 3.81-2.87c.46-.65.84-1.39 1.09-2.16s.39-1.62.39-2.44M102.09 61.08c0-.53-.05-1.05-.16-1.57s-.26-1.01-.46-1.49c-.39-.94-.97-1.81-1.7-2.53a8.1 8.1 0 0 0-2.54-1.71 8 8 0 0 0-1.5-.47c-.51-.11-1.06-.16-1.59-.16M44.55 53.14c-.53 0-1.07.05-1.59.16s-1.02.26-1.5.47c-.94.4-1.81.99-2.54 1.71s-1.3 1.59-1.69 2.53c-.2.48-.35.98-.46 1.49s-.16 1.05-.16 1.57"/><path fill="#898989" fill-rule="evenodd" d="M65.16 178.35c-.01-.6.16-1.18.83-1.29.42-.06.9-.1 1.27.15.42.29.51 1 .17 1.38-.39.36-1.04.23-1.53.19-.04-.09 0-.21-.01-.3l.02-.02h.67c.13 0 .28.03.39-.05.18-.17.16-.45.11-.67-.12-.37-.6-.29-.91-.28-.52.02-.5.62-.5 1.01v1.15l-.02.02h-.48c-.03-.14 0-.31-.01-.46v-.81m-3.96-.29c.28.04.6.13.74.4.18.38.04.92-.38 1.07-.22.09-.47.11-.7.11-.24 0-.48-.02-.71-.09-.36-.12-.33-.18-.32-.53.33.14.68.22 1.04.21.16 0 .32 0 .47-.06.17-.08.18-.3.13-.45-.05-.11-.19-.15-.3-.17-.67-.1-1.57-.11-1.3-1.05.13-.41.62-.5.99-.49.22 0 .45.01.67.07.12.04.27.07.36.16v.32c-.45-.12-.95-.19-1.41-.09-.17.05-.22.3-.11.43.09.09.22.09.33.11l.5.06m2.86.99c.16-.2.08-.49.1-.73 0-.41-.01-.82 0-1.22.15 0 .32-.01.47 0v1.19c0 .37.05.8-.21 1.11-.22.27-.58.22-.89.22-.29 0-.64.04-.86-.2-.29-.3-.26-.74-.26-1.13v-1.19c.15-.02.31 0 .47 0 .02.39 0 .79 0 1.18.01.23-.04.49.06.7.1.2.35.16.54.17.19 0 .41.04.57-.1m10.24-1.8c.17-.2.44-.24.69-.23.17 0 .35 0 .51.06.5.2.47.8.46 1.25v1.23l-.02.02h-.44v-1.27c0-.4.07-.9-.49-.89-.55-.02-.49.5-.49.89v1.27c-.15.01-.31 0-.47 0v-1.27c0-.41.09-.89-.48-.89-.57-.02-.49.47-.49.88v1.27c-.14.03-.29 0-.43.01l-.02-.02v-1.23c0-.45-.04-1.05.45-1.26.15-.06.31-.07.47-.06.26-.01.54.04.73.23m4.6 1.06c.05.7-.32 1.32-1.08 1.33-.38 0-.79 0-1.1-.24-.3-.24-.42-.76-.15-1.06.43-.38 1.08-.26 1.6-.16l.02.03v.24c-.24.01-.47 0-.71 0-.14.01-.3-.03-.43.05-.14.12-.12.36-.06.52.07.16.26.18.41.18.74.05.98-.05.98-.84 0-.32-.01-.77-.37-.88-.49-.13-1 .02-1.48.09-.01-.3-.02-.37.29-.47.39-.12.82-.11 1.22-.06.68.09.87.67.86 1.28m-10.81-.37c0-.99.64-1.03 1.45-.9.02.13 0 .26 0 .39l-.02.02c-.24 0-.48-.02-.71.02-.21.05-.21.29-.22.46v1.67h-.48l-.02-.02zm3.28.22c.26.01.32-.19.29-.41 0-.19-.14-.32-.33-.33-.35-.02-.91-.11-1.05.32-.1.36-.16 1.22.26 1.39.17.07.37.06.55.07.33 0 .66-.05.98-.14 0 .1.01.21 0 .31-.13.17-.38.19-.57.23-.47.05-1.02.09-1.42-.21-.34-.28-.37-.76-.37-1.17s.11-.9.52-1.09c.26-.13.56-.15.85-.15.51-.02 1.06.2 1.1.78.11.94-1.13.8-1.74.72v-.32h.93" clip-rule="evenodd"/><path stroke="#231815" stroke-linecap="round" stroke-linejoin="round" stroke-width=".25" d="M38.16 180.92c0 .18 0 .36.02.53.11 1.26.81 2.4 1.89 3.06 1.28.78 2.75 1.19 4.24 1.19h50.08c1.5 0 2.96-.41 4.24-1.19a3.98 3.98 0 0 0 1.89-3.06c.01-.18.02-.36.02-.53"/><path fill="#b5b5b6" stroke="#b5b5b6" stroke-miterlimit="10" stroke-width=".02" d="M60.23 63.64a.74.74 0 1 0 0-1.48.74.74 0 0 0 0 1.48Z"/><path stroke="#231815" stroke-miterlimit="10" stroke-width=".25" d="M60.23 65.12a2.22 2.22 0 1 0 0-4.44 2.22 2.22 0 0 0 0 4.44Z"/><path stroke="#b5b5b6" stroke-miterlimit="10" stroke-width=".25" d="M60.23 65.43a2.53 2.53 0 1 0 0-5.06 2.53 2.53 0 0 0 0 5.06Z"/><path fill="#b5b5b6" stroke="#b5b5b6" stroke-miterlimit="10" stroke-width=".02" d="M78.48 63.64a.74.74 0 1 0 0-1.48.74.74 0 0 0 0 1.48Z"/><path stroke="#231815" stroke-miterlimit="10" stroke-width=".25" d="M78.48 65.12a2.22 2.22 0 1 0 0-4.44 2.22 2.22 0 0 0 0 4.44Z"/><path stroke="#b5b5b6" stroke-miterlimit="10" stroke-width=".25" d="M78.48 65.43a2.53 2.53 0 1 0 0-5.06 2.53 2.53 0 0 0 0 5.06Z"/><path stroke="#231815" stroke-miterlimit="10" stroke-width=".25" d="M50.3 62.11a1.87 1.87 0 1 0 0-3.74 1.87 1.87 0 0 0 0 3.74ZM50.3 67.39a1.87 1.87 0 1 0 0-3.74 1.87 1.87 0 0 0 0 3.74ZM88.4 62.11a1.87 1.87 0 1 0 0-3.74 1.87 1.87 0 0 0 0 3.74ZM88.4 67.39a1.87 1.87 0 1 0 0-3.74 1.87 1.87 0 0 0 0 3.74Z"/><path fill="#040000" d="M42.49 64.11a.37.37 0 1 0 0-.74.37.37 0 0 0 0 .74"/><path fill="url(#b)" d="M257.98 74.5H203.5v96.48h54.48z"/><path stroke="#231815" stroke-linecap="round" stroke-linejoin="round" stroke-width=".25" d="M205.94 187.35h49.61M199.51 61.08v119.84M261.98 180.92V61.08M257.98 170.99H203.5M203.5 170.99V74.5M257.98 74.5v96.49M203.5 74.5h54.48M255.55 54.65h-49.61M199.51 180.92c0 3.55 2.88 6.43 6.43 6.43M255.55 187.35c3.55 0 6.43-2.88 6.43-6.43"/><path stroke="#898989" stroke-linecap="round" stroke-linejoin="round" stroke-width=".25" d="M255.55 187.98h-49.61M198.89 180.92V61.08M262.6 61.08v119.84M205.94 54.02h49.61M198.89 180.92c0 3.9 3.16 7.05 7.05 7.05M255.55 187.98c3.9 0 7.05-3.16 7.05-7.05M262.6 61.08c0-3.9-3.16-7.05-7.05-7.05M205.94 54.02c-3.9 0-7.05 3.16-7.05 7.05"/><path stroke="#231815" stroke-linecap="round" stroke-linejoin="round" stroke-width=".25" d="M205.94 54.65c-3.55 0-6.43 2.88-6.43 6.43M261.98 61.08c0-3.55-2.88-6.43-6.43-6.43M239.87 66.69a3.79 3.79 0 1 0 0-7.58 3.79 3.79 0 0 0 0 7.58M221.62 66.69a3.79 3.79 0 1 0 0-7.58 3.79 3.79 0 0 0 0 7.58"/><path stroke="#231815" stroke-linecap="round" stroke-linejoin="round" stroke-width=".5" d="M229.95 188.86h23.73M253.68 188.86h1.9M205.94 188.86h23.42M198 61.08v119.84M263.48 180.92V61.08M255.55 53.14h-49.61M256.32 188.82l.48-.06M256.8 188.76s.08-.01.12-.02M256.2 188.83s.08 0 .12-.01M255.87 188.85h.17M256.04 188.85c.05 0 .1 0 .16-.01M256.92 188.74c.2-.03.39-.08.58-.13M255.73 188.86h.1M255.58 188.86h.15M257.51 188.61c.23-.06.46-.13.68-.21M229.36 188.86h.59M198 180.92c0 .53.05 1.05.16 1.57s.26 1.01.46 1.49c.39.94.97 1.81 1.69 2.53s1.59 1.31 2.54 1.71c.48.21.99.36 1.5.47s1.06.16 1.59.16M258.19 188.41a7.9 7.9 0 0 0 3.81-2.87c.46-.65.84-1.39 1.09-2.16s.39-1.62.39-2.44M263.48 61.08c0-.53-.05-1.05-.16-1.57s-.26-1.01-.46-1.49c-.39-.94-.97-1.81-1.7-2.53a8.1 8.1 0 0 0-2.54-1.71 8 8 0 0 0-1.5-.47c-.51-.11-1.06-.16-1.59-.16M205.94 53.14c-.53 0-1.07.05-1.59.16s-1.02.26-1.5.47c-.94.4-1.81.99-2.54 1.71s-1.3 1.59-1.69 2.53c-.2.48-.35.98-.46 1.49s-.16 1.05-.16 1.57"/><path fill="#898989" fill-rule="evenodd" d="M226.55 178.35c-.01-.6.16-1.18.83-1.29.42-.06.9-.1 1.27.15.42.29.51 1 .17 1.38-.39.36-1.04.23-1.53.19-.04-.09 0-.21-.01-.3l.02-.02h.67c.13 0 .28.03.39-.05.18-.17.16-.45.11-.67-.12-.37-.6-.29-.91-.28-.52.02-.5.62-.5 1.01v1.15l-.02.02h-.48c-.03-.14 0-.31-.01-.46v-.81m-3.96-.29c.28.04.6.13.74.4.18.38.04.92-.38 1.07-.22.09-.47.11-.7.11-.24 0-.48-.02-.71-.09-.36-.12-.33-.18-.32-.53.33.14.68.22 1.04.21.16 0 .32 0 .47-.06.17-.08.18-.3.13-.45-.05-.11-.19-.15-.3-.17-.67-.1-1.57-.11-1.3-1.05.13-.41.62-.5.99-.49.22 0 .45.01.67.07.12.04.27.07.36.16v.32c-.45-.12-.95-.19-1.41-.09-.17.05-.22.3-.11.43.09.09.22.09.33.11l.5.06m2.86.99c.16-.2.08-.49.1-.73 0-.41-.01-.82 0-1.22.15 0 .32-.01.47 0v1.19c0 .37.05.8-.21 1.11-.22.27-.58.22-.89.22-.29 0-.64.04-.86-.2-.29-.3-.26-.74-.26-1.13v-1.19c.15-.02.31 0 .47 0 .02.39 0 .79 0 1.18.01.23-.04.49.06.7.1.2.35.16.54.17.19 0 .41.04.57-.1m10.24-1.8c.17-.2.44-.24.69-.23.17 0 .35 0 .51.06.5.2.47.8.46 1.25v1.23l-.02.02h-.44v-1.27c0-.4.07-.9-.49-.89-.55-.02-.49.5-.49.89v1.27c-.15.01-.31 0-.47 0v-1.27c0-.41.09-.89-.48-.89-.57-.02-.49.47-.49.88v1.27c-.14.03-.29 0-.43.01l-.02-.02v-1.23c0-.45-.04-1.05.45-1.26.15-.06.31-.07.47-.06.26-.01.54.04.73.23m4.6 1.06c.05.7-.32 1.32-1.08 1.33-.38 0-.79 0-1.1-.24-.3-.24-.42-.76-.15-1.06.43-.38 1.08-.26 1.6-.16l.02.03v.24c-.24.01-.47 0-.71 0-.14.01-.3-.03-.43.05-.14.12-.12.36-.06.52.07.16.26.18.41.18.74.05.98-.05.98-.84 0-.32-.01-.77-.37-.88-.49-.13-1 .02-1.48.09-.01-.3-.02-.37.29-.47.39-.12.82-.11 1.22-.06.68.09.87.67.86 1.28m-10.81-.37c0-.99.64-1.03 1.45-.9.02.13 0 .26 0 .39l-.02.02c-.24 0-.48-.02-.71.02-.21.05-.21.29-.22.46v1.67h-.48l-.02-.02zm3.28.22c.26.01.32-.19.29-.41 0-.19-.14-.32-.33-.33-.35-.02-.91-.11-1.05.32-.1.36-.16 1.22.26 1.39.17.07.37.06.55.07.33 0 .66-.05.98-.14 0 .1.01.21 0 .31-.13.17-.38.19-.57.23-.47.05-1.02.09-1.42-.21-.34-.28-.37-.76-.37-1.17s.11-.9.52-1.09c.26-.13.56-.15.85-.15.51-.02 1.06.2 1.1.78.11.94-1.13.8-1.74.72v-.32h.93" clip-rule="evenodd"/><path stroke="#231815" stroke-linecap="round" stroke-linejoin="round" stroke-width=".25" d="M199.55 180.92c0 .18 0 .36.02.53.11 1.26.81 2.4 1.89 3.06 1.28.78 2.75 1.19 4.24 1.19h50.08c1.5 0 2.96-.41 4.24-1.19a3.98 3.98 0 0 0 1.89-3.06c.01-.18.02-.36.02-.53"/><path fill="#b5b5b6" stroke="#b5b5b6" stroke-miterlimit="10" stroke-width=".02" d="M221.62 63.64a.74.74 0 1 0 0-1.48.74.74 0 0 0 0 1.48Z"/><path stroke="#231815" stroke-miterlimit="10" stroke-width=".25" d="M221.62 65.12a2.22 2.22 0 1 0 0-4.44 2.22 2.22 0 0 0 0 4.44Z"/><path stroke="#b5b5b6" stroke-miterlimit="10" stroke-width=".25" d="M221.62 65.43a2.53 2.53 0 1 0 0-5.06 2.53 2.53 0 0 0 0 5.06Z"/><path fill="#b5b5b6" stroke="#b5b5b6" stroke-miterlimit="10" stroke-width=".02" d="M239.87 63.64a.74.74 0 1 0 0-1.48.74.74 0 0 0 0 1.48Z"/><path stroke="#231815" stroke-miterlimit="10" stroke-width=".25" d="M239.87 65.12a2.22 2.22 0 1 0 0-4.44 2.22 2.22 0 0 0 0 4.44Z"/><path stroke="#b5b5b6" stroke-miterlimit="10" stroke-width=".25" d="M239.87 65.43a2.53 2.53 0 1 0 0-5.06 2.53 2.53 0 0 0 0 5.06Z"/><path stroke="#231815" stroke-miterlimit="10" stroke-width=".25" d="M211.69 62.11a1.87 1.87 0 1 0 0-3.74 1.87 1.87 0 0 0 0 3.74ZM211.69 67.39a1.87 1.87 0 1 0 0-3.74 1.87 1.87 0 0 0 0 3.74ZM249.79 62.11a1.87 1.87 0 1 0 0-3.74 1.87 1.87 0 0 0 0 3.74ZM249.79 67.39a1.87 1.87 0 1 0 0-3.74 1.87 1.87 0 0 0 0 3.74Z"/><path fill="#040000" d="M203.88 64.11a.37.37 0 1 0 0-.74.37.37 0 0 0 0 .74"/><path stroke="#000" stroke-miterlimit="10" d="M120.05 121h59.9"/><path fill="#000" d="m122.86 124.7-1.58-3.7 1.58-3.7-8.78 3.7zM177.14 124.7l1.58-3.7-1.58-3.7 8.78 3.7z"/><path fill="#231815" d="M33.56 31.75h1.16v2.07h3.42v-2.07h1.15v6.06h-5.73zm1.16 2.99v2.11h3.42v-2.11zm.18 4.46h8.46v4.47H42.2v-3.51h-7.29v-.95zm4.04-6.18h3.64v.95h-3.64zm0 2.58h3.67v.95h-3.67zm3.26-4.61h1.16v7.53H42.2zM127.49 112.65c-.53 0-1-.07-1.41-.2s-.76-.3-1.07-.52-.57-.45-.8-.7l.66-.83c.3.31.65.58 1.06.82s.9.36 1.48.36c.41 0 .77-.08 1.08-.22s.56-.36.74-.64.27-.6.27-.97c0-.4-.1-.75-.3-1.04s-.53-.52-1-.69-1.1-.25-1.89-.25v-.99c.71 0 1.27-.08 1.68-.25.41-.16.71-.39.89-.67s.27-.6.27-.94c0-.49-.15-.87-.46-1.16-.31-.28-.73-.43-1.27-.43-.41 0-.8.1-1.15.29-.36.19-.68.44-.97.73l-.69-.81c.39-.35.82-.65 1.28-.89s.99-.36 1.57-.36 1.09.1 1.55.29c.45.2.81.48 1.06.86.26.38.38.83.38 1.36 0 .61-.17 1.11-.5 1.5-.34.39-.77.69-1.32.88v.06c.4.1.76.27 1.09.49s.59.51.78.85c.2.34.29.74.29 1.21q0 .9-.45 1.53c-.3.42-.7.74-1.19.97s-1.05.34-1.67.34zM135.47 112.65q-.99 0-1.71-.6c-.48-.4-.84-.99-1.1-1.76s-.38-1.72-.38-2.84.13-2.05.38-2.81c.26-.77.62-1.34 1.1-1.74.48-.39 1.05-.59 1.71-.59s1.23.2 1.71.59.84.97 1.1 1.74c.26.76.38 1.7.38 2.81s-.13 2.07-.38 2.84c-.26.78-.62 1.36-1.1 1.76s-1.04.6-1.71.6m0-1.03c.39 0 .74-.14 1.03-.43s.52-.74.69-1.36c.16-.62.24-1.41.24-2.38q0-1.455-.24-2.37c-.16-.61-.39-1.05-.69-1.33-.29-.28-.64-.42-1.03-.42s-.72.14-1.02.42-.53.72-.69 1.33-.25 1.4-.25 2.37.08 1.76.25 2.38.39 1.07.69 1.36.64.43 1.02.43M143.24 112.65q-.99 0-1.71-.6c-.48-.4-.84-.99-1.1-1.76s-.38-1.72-.38-2.84.13-2.05.38-2.81c.26-.77.62-1.34 1.1-1.74.48-.39 1.05-.59 1.71-.59s1.23.2 1.71.59.84.97 1.1 1.74c.26.76.38 1.7.38 2.81s-.13 2.07-.38 2.84c-.26.78-.62 1.36-1.1 1.76s-1.04.6-1.71.6m0-1.03c.39 0 .74-.14 1.03-.43s.52-.74.69-1.36c.16-.62.24-1.41.24-2.38q0-1.455-.24-2.37c-.16-.61-.39-1.05-.69-1.33-.29-.28-.64-.42-1.03-.42s-.72.14-1.02.42-.53.72-.69 1.33-.25 1.4-.25 2.37.08 1.76.25 2.38.39 1.07.69 1.36.64.43 1.02.43M151.55 112.47v-7.6h1.05l.13 1.11h.03c.34-.36.7-.67 1.1-.92s.82-.38 1.27-.38c.59 0 1.04.13 1.37.39s.57.62.73 1.06c.4-.43.8-.78 1.21-1.05s.84-.41 1.31-.41c.78 0 1.35.25 1.73.76q.57.765.57 2.22v4.82h-1.27v-4.65c0-.72-.11-1.24-.34-1.55-.23-.32-.59-.48-1.07-.48-.29 0-.59.1-.9.29s-.65.48-1.01.88v5.52h-1.27v-4.65c0-.72-.11-1.24-.34-1.55s-.59-.48-1.07-.48c-.29 0-.59.1-.91.29s-.65.48-.99.88v5.52h-1.29zM164.51 112.47v-7.6h1.05l.13 1.11h.03c.34-.36.7-.67 1.1-.92s.82-.38 1.27-.38c.59 0 1.04.13 1.37.39s.57.62.73 1.06c.4-.43.8-.78 1.21-1.05s.84-.41 1.31-.41c.78 0 1.35.25 1.73.76q.57.765.57 2.22v4.82h-1.27v-4.65c0-.72-.11-1.24-.34-1.55-.23-.32-.59-.48-1.07-.48-.29 0-.59.1-.9.29s-.65.48-1.01.88v5.52h-1.27v-4.65c0-.72-.11-1.24-.34-1.55s-.59-.48-1.07-.48c-.29 0-.59.1-.91.29s-.65.48-.99.88v5.52h-1.29z"/><defs><linearGradient id="a" x1="31.61" x2="107.09" y1="160.49" y2="85.01" gradientUnits="userSpaceOnUse"><stop stop-color="#bfbfbf"/><stop offset=".14" stop-color="#c2c2c2"/><stop offset=".27" stop-color="#cecece"/><stop offset=".4" stop-color="#e0e0e0"/><stop offset=".53" stop-color="#fbfbfb"/><stop offset=".54" stop-color="#e0e0e0"/><stop offset=".55" stop-color="#cdcdcd"/><stop offset=".56" stop-color="#ccc"/><stop offset="1" stop-color="#fff"/></linearGradient><linearGradient id="b" x1="193" x2="268.48" y1="160.49" y2="85.01" gradientUnits="userSpaceOnUse"><stop stop-color="#bfbfbf"/><stop offset=".14" stop-color="#c2c2c2"/><stop offset=".27" stop-color="#cecece"/><stop offset=".4" stop-color="#e0e0e0"/><stop offset=".53" stop-color="#fbfbfb"/><stop offset=".54" stop-color="#e0e0e0"/><stop offset=".55" stop-color="#cdcdcd"/><stop offset=".56" stop-color="#ccc"/><stop offset="1" stop-color="#fff"/></linearGradient></defs></svg>