<svg width="39" height="350" viewBox="0 0 39 350" fill="none" xmlns="http://www.w3.org/2000/svg">
<g clip-path="url(#clip0_635_10503)">
<path d="M23.5806 278.753H21.9734" stroke="#231815" stroke-linecap="round" stroke-linejoin="round"/>
<path d="M23.5806 277.142H21.9734" stroke="#231815" stroke-linecap="round" stroke-linejoin="round"/>
<path d="M21.9734 278.753V277.142" stroke="#231815" stroke-linecap="round" stroke-linejoin="round"/>
<path d="M36.8646 278.753H23.5806" stroke="#231815" stroke-linecap="round" stroke-linejoin="round"/>
<path d="M36.8646 277.142H23.5806" stroke="#231815" stroke-linecap="round" stroke-linejoin="round"/>
<path d="M34.8825 256.239H38.716" stroke="#231815" stroke-linecap="round" stroke-linejoin="round"/>
<path d="M34.6894 246.113H38.716" stroke="#231815" stroke-linecap="round" stroke-linejoin="round"/>
<path d="M32.2757 242.092H33.3036" stroke="#231815" stroke-linecap="round" stroke-linejoin="round"/>
<path d="M36.4954 230.032H38.716" stroke="#231815" stroke-linecap="round" stroke-linejoin="round"/>
<path d="M32.1791 254.537L33.1787 255.535" stroke="#231815" stroke-linecap="round" stroke-linejoin="round"/>
<path d="M32.1791 226.719L34.7859 229.323" stroke="#231815" stroke-linecap="round" stroke-linejoin="round"/>
<path d="M34.6894 246.113L34.0987 242.755" stroke="#231815" stroke-linecap="round" stroke-linejoin="round"/>
<path d="M31.4692 24.6924V31.4484" stroke="#231815" stroke-linecap="round" stroke-linejoin="round"/>
<path d="M31.4692 252.83V242.897" stroke="#231815" stroke-linecap="round" stroke-linejoin="round"/>
<path d="M31.4692 225.012V45.1135" stroke="#231815" stroke-linecap="round" stroke-linejoin="round"/>
<path d="M31.4692 16.6544V15.0491" stroke="#231815" stroke-linecap="round" stroke-linejoin="round"/>
<path d="M34.3657 233.997V240.707" stroke="#231815" stroke-width="0.7" stroke-linecap="round" stroke-linejoin="round"/>
<path d="M34.9336 246.113V245.092" stroke="#231815" stroke-linecap="round" stroke-linejoin="round"/>
<path d="M35.4959 90.9416V60.3894" stroke="#231815" stroke-linecap="round" stroke-linejoin="round"/>
<path d="M35.9786 240.707V233.997" stroke="#231815" stroke-width="0.7" stroke-linecap="round" stroke-linejoin="round"/>
<path d="M36.8646 91.7471V59.5896" stroke="#231815" stroke-linecap="round" stroke-linejoin="round"/>
<path d="M37.1031 276.904V256.239" stroke="#231815" stroke-linecap="round" stroke-linejoin="round"/>
<path d="M37.1031 246.113V230.032" stroke="#231815" stroke-linecap="round" stroke-linejoin="round"/>
<path d="M37.1031 48.3298V32.2539" stroke="#231815" stroke-linecap="round" stroke-linejoin="round"/>
<path d="M37.1031 23.8924V16.8982" stroke="#231815" stroke-linecap="round" stroke-linejoin="round"/>
<path d="M38.716 276.904V16.8982" stroke="#231815" stroke-linecap="round" stroke-linejoin="round"/>
<path d="M34.6894 48.3298L34.0987 44.9773" stroke="#231815" stroke-linecap="round" stroke-linejoin="round"/>
<path d="M35.2346 243.731L35.3766 243.43" stroke="#231815" stroke-width="0.7" stroke-linecap="round" stroke-linejoin="round"/>
<path d="M38.716 91.7471H36.3023" stroke="#231815" stroke-linecap="round" stroke-linejoin="round"/>
<path d="M36.6431 231.336L34.945 232.766" stroke="#231815" stroke-width="0.7" stroke-linecap="round" stroke-linejoin="round"/>
<path d="M35.9786 233.997L37.1031 233.055" stroke="#231815" stroke-width="0.7" stroke-linecap="round" stroke-linejoin="round"/>
<path d="M38.716 59.5896H36.3023" stroke="#231815" stroke-linecap="round" stroke-linejoin="round"/>
<path d="M34.6894 48.3298H38.716" stroke="#231815" stroke-linecap="round" stroke-linejoin="round"/>
<path d="M32.2757 44.3135H33.3036" stroke="#231815" stroke-linecap="round" stroke-linejoin="round"/>
<path d="M32.2757 32.2539H38.716" stroke="#231815" stroke-linecap="round" stroke-linejoin="round"/>
<path d="M32.2757 23.8926H38.716" stroke="#231815" stroke-linecap="round" stroke-linejoin="round"/>
<path d="M36.8646 16.6543H31.4692" stroke="#231815" stroke-linecap="round" stroke-linejoin="round"/>
<path d="M31.4692 15.0491H36.8646" stroke="#231815" stroke-linecap="round" stroke-linejoin="round"/>
<path d="M35.3766 243.43C35.7741 242.579 35.9786 241.649 35.9786 240.713" stroke="#231815" stroke-width="0.7" stroke-linecap="round" stroke-linejoin="round"/>
<path d="M34.0079 242.534C34.2464 241.955 34.3657 241.337 34.3657 240.713" stroke="#231815" stroke-width="0.7" stroke-linecap="round" stroke-linejoin="round"/>
<path d="M35.2346 243.731C35.0358 244.156 34.9336 244.622 34.9336 245.092" stroke="#231815" stroke-width="0.7" stroke-linecap="round" stroke-linejoin="round"/>
<path d="M33.1787 255.535C33.633 255.989 34.2464 256.244 34.8882 256.244" stroke="#231815" stroke-linecap="round" stroke-linejoin="round"/>
<path d="M31.4692 252.83C31.4692 253.471 31.7248 254.083 32.1791 254.537" stroke="#231815" stroke-linecap="round" stroke-linejoin="round"/>
<path d="M34.7859 229.323C35.2403 229.777 35.8537 230.032 36.4954 230.032" stroke="#231815" stroke-linecap="round" stroke-linejoin="round"/>
<path d="M31.4692 225.012C31.4692 225.653 31.7248 226.265 32.1791 226.719" stroke="#231815" stroke-linecap="round" stroke-linejoin="round"/>
<path d="M36.8646 278.753C37.8869 278.753 38.716 277.925 38.716 276.904" stroke="#231815" stroke-linecap="round" stroke-linejoin="round"/>
<path d="M38.716 16.8983C38.716 15.8773 37.8869 15.0491 36.8646 15.0491" stroke="#231815" stroke-linecap="round" stroke-linejoin="round"/>
<path d="M34.945 232.766C34.5815 233.072 34.3714 233.52 34.3714 233.997" stroke="#231815" stroke-width="0.7" stroke-linecap="round" stroke-linejoin="round"/>
<path d="M36.6431 231.336C36.9327 231.092 37.1031 230.729 37.1031 230.349" stroke="#231815" stroke-width="0.7" stroke-linecap="round" stroke-linejoin="round"/>
<path d="M32.2757 23.8926C31.8327 23.8926 31.4692 24.2499 31.4692 24.6981" stroke="#231815" stroke-linecap="round" stroke-linejoin="round"/>
<path d="M31.4692 31.4482C31.4692 31.8907 31.827 32.2537 32.2757 32.2537" stroke="#231815" stroke-linecap="round" stroke-linejoin="round"/>
<path d="M32.2757 242.092C31.8327 242.092 31.4692 242.449 31.4692 242.897" stroke="#231815" stroke-linecap="round" stroke-linejoin="round"/>
<path d="M34.0987 242.755C34.0306 242.37 33.6955 242.092 33.3036 242.092" stroke="#231815" stroke-linecap="round" stroke-linejoin="round"/>
<path d="M32.2757 44.3135C31.8327 44.3135 31.4692 44.6708 31.4692 45.119" stroke="#231815" stroke-linecap="round" stroke-linejoin="round"/>
<path d="M34.0987 44.9772C34.0306 44.5914 33.6955 44.3135 33.3036 44.3135" stroke="#231815" stroke-linecap="round" stroke-linejoin="round"/>
<path d="M35.4959 90.9417C35.4959 91.3841 35.8537 91.7471 36.3023 91.7471" stroke="#231815" stroke-linecap="round" stroke-linejoin="round"/>
<path d="M36.3023 59.5896C35.8593 59.5896 35.4959 59.947 35.4959 60.3951" stroke="#231815" stroke-linecap="round" stroke-linejoin="round"/>
<path d="M36.8646 277.142C36.9952 277.142 37.1088 277.034 37.1088 276.898" stroke="#231815" stroke-linecap="round" stroke-linejoin="round"/>
<path d="M37.1031 16.8982C37.1031 16.7677 36.9952 16.6543 36.8589 16.6543" stroke="#231815" stroke-linecap="round" stroke-linejoin="round"/>
<path d="M22.7969 291.233C22.2403 290.603 21.9393 289.871 21.9279 289.105C21.8825 286.893 24.2564 285.05 27.2211 284.987C30.1857 284.925 32.6335 286.672 32.6789 288.884C32.6903 289.497 32.5256 290.092 32.1791 290.648L31.2931 290.098C31.526 289.718 31.6396 289.315 31.6339 288.907C31.5998 287.273 29.6291 285.98 27.2438 286.031C24.8585 286.082 22.9388 287.449 22.9729 289.088C22.9843 289.605 23.1944 290.11 23.5806 290.546L22.7969 291.238V291.233Z" fill="#231815"/>
<path d="M33.1673 291.13L29.9869 292.77L30.5094 289.236L33.1673 291.13Z" fill="#231815"/>
<path d="M28.4137 322.823V289.764L27.3744 287.421L26.2499 287.449L25.0459 289.764V322.823" stroke="#231815" stroke-width="0.6" stroke-miterlimit="10"/>
<path d="M28.0389 295.408L27.1415 292.555L27.1359 288.096L28.0332 289.922L28.0389 295.408Z" stroke="#231815" stroke-width="0.28" stroke-miterlimit="10"/>
<path d="M25.5116 295.408L26.4089 292.555L26.4146 288.096L25.5172 289.922L25.5116 295.408Z" stroke="#231815" stroke-width="0.28" stroke-miterlimit="10"/>
<path d="M31.1682 321.734C31.4067 323.215 30.1686 323.748 26.7213 323.748C23.2739 323.748 22.121 323.226 22.2744 321.734C22.3539 320.951 24.2621 320.151 26.7213 320.151C29.1804 320.151 31.0432 320.951 31.1682 321.734Z" fill="white"/>
<path d="M31.1682 321.734C31.4067 323.215 30.1686 323.748 26.7213 323.748C23.2739 323.748 22.121 323.226 22.2744 321.734C22.3539 320.951 24.2621 320.151 26.7213 320.151C29.1804 320.151 31.0432 320.951 31.1682 321.734Z" stroke="#231815" stroke-width="0.6" stroke-miterlimit="10"/>
<path d="M22.6435 322.392C22.6435 321.666 24.4666 320.94 26.7213 320.94C28.976 320.94 30.799 321.666 30.799 322.392" stroke="#9FA0A0" stroke-width="0.2" stroke-miterlimit="10"/>
<path d="M30.4526 323.527C30.4526 324.19 28.7829 324.729 26.7213 324.729C24.6597 324.729 22.9899 324.19 22.9899 323.527C22.9899 322.863 24.6597 322.324 26.7213 322.324C28.7829 322.324 30.4526 322.863 30.4526 323.527Z" fill="white"/>
<path d="M30.4526 323.527C30.4526 324.19 28.7829 324.729 26.7213 324.729C24.6597 324.729 22.9899 324.19 22.9899 323.527C22.9899 322.863 24.6597 322.324 26.7213 322.324C28.7829 322.324 30.4526 322.863 30.4526 323.527Z" stroke="#231815" stroke-width="0.6" stroke-miterlimit="10"/>
<path d="M22.28 325.625C22.28 324.718 23.0013 323.345 26.727 323.345C30.4526 323.345 31.1739 324.712 31.1739 325.625V348.4C31.1739 349.189 29.1804 349.83 26.727 349.83C24.2735 349.83 22.28 349.189 22.28 348.4V325.625Z" fill="white"/>
<path d="M22.28 325.625C22.28 324.718 23.0013 323.345 26.727 323.345C30.4526 323.345 31.1739 324.712 31.1739 325.625V348.4C31.1739 349.189 29.1804 349.83 26.727 349.83C24.2735 349.83 22.28 349.189 22.28 348.4V325.625Z" stroke="#231815" stroke-width="0.6" stroke-miterlimit="10"/>
<path d="M27.4312 344.606C27.4312 344.997 27.1131 345.315 26.7213 345.315C26.3294 345.315 26.0114 344.997 26.0114 344.606V325.767C26.0114 325.376 26.3294 325.058 26.7213 325.058C27.1131 325.058 27.4312 325.376 27.4312 325.767" stroke="#9FA0A0" stroke-width="0.2" stroke-miterlimit="10"/>
<path d="M30.055 345.02C30.055 345.411 29.737 345.729 29.3451 345.729C28.9533 345.729 28.6352 345.411 28.6352 345.02V326.181C28.6352 325.79 28.9533 325.472 29.3451 325.472C29.737 325.472 30.055 325.79 30.055 326.181" stroke="#9FA0A0" stroke-width="0.2" stroke-miterlimit="10"/>
<path d="M24.813 345.02C24.813 345.411 24.495 345.729 24.1031 345.729C23.7112 345.729 23.3932 345.411 23.3932 345.02V326.181C23.3932 325.79 23.7112 325.472 24.1031 325.472C24.495 325.472 24.813 325.79 24.813 326.181" stroke="#9FA0A0" stroke-width="0.2" stroke-miterlimit="10"/>
<path d="M32.412 281.573H26.0681" stroke="black" stroke-width="1.13" stroke-linecap="round" stroke-linejoin="round"/>
<path d="M32.412 280.676H26.0681" stroke="#B3B3B3" stroke-width="0.28" stroke-linecap="round" stroke-linejoin="round"/>
<path d="M26.4316 276.354H31.6282" stroke="black" stroke-width="1.13" stroke-linecap="round" stroke-linejoin="round"/>
<path d="M27.3687 276.121H30.5435" stroke="black" stroke-width="1.13" stroke-linecap="round" stroke-linejoin="round"/>
<path d="M27.3687 276.121V275.662" stroke="black" stroke-width="1.13" stroke-linecap="round" stroke-linejoin="round"/>
<path d="M27.5448 276.354V276.115" stroke="black" stroke-width="1.13" stroke-linecap="round" stroke-linejoin="round"/>
<path d="M30.3674 276.354V276.115" stroke="black" stroke-width="1.13" stroke-linecap="round" stroke-linejoin="round"/>
<path d="M30.5435 276.121V275.645" stroke="black" stroke-width="1.13" stroke-linecap="round" stroke-linejoin="round"/>
<path d="M31.6282 276.825V276.354" stroke="black" stroke-width="1.13" stroke-linecap="round" stroke-linejoin="round"/>
<path d="M25.716 281.221C25.716 281.414 25.8751 281.572 26.0682 281.572" stroke="black" stroke-width="1.13" stroke-linecap="round" stroke-linejoin="round"/>
<path d="M32.412 281.572C32.6051 281.572 32.7641 281.414 32.7641 281.221" stroke="black" stroke-width="1.13" stroke-linecap="round" stroke-linejoin="round"/>
<path d="M25.716 281.221V279.224" stroke="black" stroke-width="1.13" stroke-linecap="round" stroke-linejoin="round"/>
<path d="M26.4316 276.825V276.354" stroke="black" stroke-width="1.13" stroke-linecap="round" stroke-linejoin="round"/>
<path d="M32.7698 281.221V279.224" stroke="black" stroke-width="1.13" stroke-linecap="round" stroke-linejoin="round"/>
<path d="M27.1927 270.33V275.639H30.7195V270.33" stroke="black" stroke-width="1.13" stroke-linecap="round" stroke-linejoin="round"/>
<path d="M27.1982 270.33C27.4879 269.592 28.1694 269.076 28.9588 269.076C29.7483 269.076 30.4298 269.592 30.7194 270.33" stroke="black" stroke-width="1.13" stroke-linecap="round" stroke-linejoin="round"/>
<path d="M31.3727 274.947C31.1512 275.344 27.5902 274.907 26.7894 274.635" stroke="#999999" stroke-width="0.57" stroke-linecap="round" stroke-linejoin="round"/>
<path d="M31.3443 273.892C31.1228 274.289 27.5618 273.852 26.761 273.58" stroke="#999999" stroke-width="0.57" stroke-linecap="round" stroke-linejoin="round"/>
<path d="M31.3215 272.837C31.1 273.234 27.5391 272.797 26.7383 272.525" stroke="#999999" stroke-width="0.57" stroke-linecap="round" stroke-linejoin="round"/>
<path d="M31.2931 271.776C31.0716 272.173 27.5107 271.736 26.7099 271.464" stroke="#999999" stroke-width="0.57" stroke-linecap="round" stroke-linejoin="round"/>
<path d="M31.2704 270.721C31.0489 271.118 27.488 270.681 26.6872 270.409" stroke="#999999" stroke-width="0.57" stroke-linecap="round" stroke-linejoin="round"/>
<path d="M0.636086 1.57121C0.636086 1.57121 9.59808 0.527471 19.1053 0.635249L22.8139 0.890512C22.8139 0.890512 22.6833 2.51285 24.2905 2.97233L38.1992 7.12461V92.479C38.1992 92.479 38.2333 93.2221 37.0349 93.6248C35.8366 94.0276 35.8252 94.8444 35.8252 94.8444C35.8252 94.8444 35.3311 96.2682 36.8475 97.1475C36.8475 97.1475 38.2446 97.3971 38.2446 99.8873V177.969C38.2446 177.969 38.2276 178.44 36.927 178.905C36.927 178.905 35.6833 178.991 35.8309 180.868C35.8309 180.868 35.8707 182.161 37.3587 182.621C37.3587 182.621 38.1367 182.473 38.2503 184.425V268.724L32.3325 270.795V273.177C32.3325 273.177 32.2132 274.397 31.0489 274.385L27.8799 274.584L27.6584 278.776C27.6584 278.776 27.5902 279.513 26.5679 279.672L19.3495 280.347H17.5605C17.5605 280.347 16.8336 280.285 16.7086 279.536L16.5496 275.764L1.20402 274.856C1.20402 274.856 0.579292 275.196 0.579292 273.591L0.636086 1.57121Z" fill="white"/>
<path d="M19.3381 280.353L26.9371 279.542" stroke="#231815" stroke-linecap="round" stroke-linejoin="round"/>
<path d="M19.2984 279.587L26.8519 278.781" stroke="#231815" stroke-width="0.5" stroke-linecap="round" stroke-linejoin="round"/>
<path d="M19.0826 275.525L31.6055 274.192" stroke="#231815" stroke-linecap="round" stroke-linejoin="round"/>
<path d="M17.3504 275.52L17.799 275.525" stroke="#231815" stroke-width="2" stroke-linecap="round" stroke-linejoin="round"/>
<path d="M17.0039 275.514L16.1463 275.508" stroke="#231815" stroke-width="2" stroke-linecap="round" stroke-linejoin="round"/>
<path d="M16.1463 275.508L15.3228 275.497" stroke="#231815" stroke-width="2" stroke-linecap="round" stroke-linejoin="round"/>
<path d="M15.6239 275.497L15.9703 275.503" stroke="#231815" stroke-width="2" stroke-linecap="round" stroke-linejoin="round"/>
<path d="M15.1127 275.491L15.4137 275.497" stroke="#231815" stroke-width="2" stroke-linecap="round" stroke-linejoin="round"/>
<path d="M15.1127 275.491L15.4137 275.497" stroke="#231815" stroke-width="2" stroke-linecap="round" stroke-linejoin="round"/>
<path d="M15.1127 275.491L14.5675 275.48" stroke="#231815" stroke-width="2" stroke-linecap="round" stroke-linejoin="round"/>
<path d="M15.1127 275.491L14.5675 275.48" stroke="#231815" stroke-width="2" stroke-linecap="round" stroke-linejoin="round"/>
<path d="M13.9939 275.469L14.5675 275.48" stroke="#231815" stroke-width="2" stroke-linecap="round" stroke-linejoin="round"/>
<path d="M13.2272 275.446L13.9939 275.469" stroke="#231815" stroke-width="2" stroke-linecap="round" stroke-linejoin="round"/>
<path d="M13.5225 275.457L13.7156 275.463" stroke="#231815" stroke-width="2" stroke-linecap="round" stroke-linejoin="round"/>
<ellipse cx="32.128" cy="268.378" rx="0.283967" ry="0.283626" fill="#231815"/>
<path d="M18.9236 0.930176L18.3897 1.81509" stroke="#231815" stroke-linecap="round" stroke-linejoin="round"/>
<path d="M19.1053 0.640869L18.9236 0.930168" stroke="#231815" stroke-linecap="round" stroke-linejoin="round"/>
<ellipse cx="18.5374" cy="274.533" rx="0.283967" ry="0.283626" fill="#231815"/>
<path d="M15.5273 7.86206L14.5789 10.7607" stroke="#231815" stroke-linecap="round" stroke-linejoin="round"/>
<path d="M14.5789 10.7607L13.8292 13.926" stroke="#231815" stroke-linecap="round" stroke-linejoin="round"/>
<path d="M13.8519 262.28L14.664 265.632" stroke="#231815" stroke-linecap="round" stroke-linejoin="round"/>
<path d="M0.567932 1.81519V274.283" stroke="#231815" stroke-width="2" stroke-linecap="round" stroke-linejoin="round"/>
<path d="M13.4089 16.6486V16.6375" stroke="#231815" stroke-linecap="round" stroke-linejoin="round"/>
<path d="M13.8292 13.926L13.4089 16.6375" stroke="#231815" stroke-linecap="round" stroke-linejoin="round"/>
<path d="M13.4089 259.455L13.8519 262.28" stroke="#231815" stroke-linecap="round" stroke-linejoin="round"/>
<path d="M13.4089 259.449V259.455" stroke="#231815" stroke-linecap="round" stroke-linejoin="round"/>
<path d="M16.7484 279.587L16.5382 275.514" stroke="#231815" stroke-linecap="round" stroke-linejoin="round"/>
<path d="M17.5548 279.587L17.339 275.52" stroke="#231815" stroke-width="0.5" stroke-linecap="round" stroke-linejoin="round"/>
<path d="M12.6422 35.1355V240.957" stroke="#231815" stroke-linecap="round" stroke-linejoin="round"/>
<path d="M37.3473 93.4717L36.7169 93.7837" stroke="#231815" stroke-width="2" stroke-linecap="round" stroke-linejoin="round"/>
<path d="M17.5548 279.587L17.5491 280.347" stroke="#231815" stroke-width="0.5" stroke-linecap="round" stroke-linejoin="round"/>
<path d="M36.7169 182.309L37.3473 182.626" stroke="#231815" stroke-width="2" stroke-linecap="round" stroke-linejoin="round"/>
<path d="M32.3211 270.8V273.393" stroke="#231815" stroke-linecap="round" stroke-linejoin="round"/>
<path d="M35.8253 95.2244V95.6498" stroke="#231815" stroke-width="2" stroke-linecap="round" stroke-linejoin="round"/>
<path d="M35.8253 180.448V180.868" stroke="#231815" stroke-width="2" stroke-linecap="round" stroke-linejoin="round"/>
<path d="M26.8519 278.781L27.062 274.675" stroke="#231815" stroke-width="0.5" stroke-linecap="round" stroke-linejoin="round"/>
<path d="M27.6527 278.781L27.8742 274.589" stroke="#231815" stroke-linecap="round" stroke-linejoin="round"/>
<path d="M38.239 7.36279V92.0308" stroke="#231815" stroke-width="2" stroke-linecap="round" stroke-linejoin="round"/>
<path d="M38.239 268.735V184.062" stroke="#231815" stroke-width="2" stroke-linecap="round" stroke-linejoin="round"/>
<path d="M38.239 177.255V98.8435" stroke="#231815" stroke-width="2" stroke-linecap="round" stroke-linejoin="round"/>
<path d="M37.3473 178.69L36.7169 179.008" stroke="#231815" stroke-width="2" stroke-linecap="round" stroke-linejoin="round"/>
<path d="M36.7169 97.085L37.3473 97.4026" stroke="#231815" stroke-width="2" stroke-linecap="round" stroke-linejoin="round"/>
<path d="M23.8532 273.245L37.8925 269.195" stroke="#231815" stroke-width="2" stroke-linecap="round" stroke-linejoin="round"/>
<path d="M32.9004 11.3847L32.5653 11.2202" stroke="#231815" stroke-linecap="round" stroke-linejoin="round"/>
<path d="M23.8532 2.85327L37.8925 6.89778" stroke="#231815" stroke-width="2" stroke-linecap="round" stroke-linejoin="round"/>
<path d="M32.0996 7.72021H32.1052" stroke="#231815" stroke-linecap="round" stroke-linejoin="round"/>
<path d="M22.138 0.890545L19.2245 0.584229" stroke="#231815" stroke-width="2" stroke-linecap="round" stroke-linejoin="round"/>
<path d="M16.9926 280.115C17.038 280.16 17.0948 280.2 17.1516 280.234" stroke="#231815" stroke-linecap="round" stroke-linejoin="round"/>
<path d="M17.1459 280.234C17.18 280.251 17.2141 280.268 17.2481 280.285" stroke="#231815" stroke-linecap="round" stroke-linejoin="round"/>
<path d="M16.7484 279.587C16.7711 280.012 17.1232 280.347 17.5492 280.347" stroke="#231815" stroke-linecap="round" stroke-linejoin="round"/>
<path d="M0.567932 274.283C0.567932 274.533 0.76103 274.743 1.01092 274.765" stroke="#231815" stroke-width="2" stroke-linecap="round" stroke-linejoin="round"/>
<path d="M15.5273 275.497C15.6636 275.497 15.7942 275.497 15.9305 275.497" stroke="#231815" stroke-width="2" stroke-linecap="round" stroke-linejoin="round"/>
<path d="M33.4683 264.271C33.2866 264.35 33.1048 264.435 32.9231 264.526" stroke="#231815" stroke-linecap="round" stroke-linejoin="round"/>
<path d="M26.9371 279.542C27.329 279.502 27.6356 279.179 27.6527 278.781" stroke="#231815" stroke-linecap="round" stroke-linejoin="round"/>
<path d="M31.6055 274.192C32.0144 274.147 32.3268 273.807 32.3268 273.393" stroke="#231815" stroke-linecap="round" stroke-linejoin="round"/>
<path d="M37.8925 269.195C38.097 269.132 38.239 268.945 38.239 268.73" stroke="#231815" stroke-width="2" stroke-linecap="round" stroke-linejoin="round"/>
<path d="M37.8925 262.932C38.0288 262.893 38.1367 262.796 38.1992 262.671" stroke="#231815" stroke-linecap="round" stroke-linejoin="round"/>
<path d="M13.3067 258.451C13.3067 258.508 13.318 258.565 13.3237 258.621" stroke="#231815" stroke-linecap="round" stroke-linejoin="round"/>
<path d="M13.3692 259.069C13.3805 259.194 13.3976 259.319 13.4089 259.449" stroke="#231815" stroke-linecap="round" stroke-linejoin="round"/>
<path d="M13.2499 257.759C13.2613 257.935 13.2783 258.105 13.2896 258.281" stroke="#231815" stroke-linecap="round" stroke-linejoin="round"/>
<path d="M13.301 258.372C13.301 258.372 13.301 258.423 13.3067 258.451" stroke="#231815" stroke-linecap="round" stroke-linejoin="round"/>
<path d="M13.3294 258.695C13.3408 258.797 13.3521 258.894 13.3578 258.996" stroke="#231815" stroke-linecap="round" stroke-linejoin="round"/>
<path d="M13.2896 258.281C13.2896 258.309 13.2896 258.343 13.2953 258.372" stroke="#231815" stroke-linecap="round" stroke-linejoin="round"/>
<path d="M18.7588 0.567139C12.8353 0.578484 6.91176 0.833747 1.01093 1.33293" stroke="#231815" stroke-linecap="round" stroke-linejoin="round"/>
<path d="M18.7588 0.567139C12.8353 0.578484 6.91176 0.833747 1.01093 1.33293" stroke="#231815" stroke-width="2" stroke-linecap="round" stroke-linejoin="round"/>
<path d="M37.3473 178.69C37.8925 178.418 38.239 177.862 38.239 177.249" stroke="#231815" stroke-width="2" stroke-linecap="round" stroke-linejoin="round"/>
<path d="M38.239 184.062C38.239 183.455 37.8925 182.893 37.3473 182.621" stroke="#231815" stroke-width="2" stroke-linecap="round" stroke-linejoin="round"/>
<path d="M36.7169 179.008C36.1717 179.28 35.8253 179.836 35.8253 180.448" stroke="#231815" stroke-width="2" stroke-linecap="round" stroke-linejoin="round"/>
<path d="M35.8253 180.868C35.8253 181.475 36.1717 182.037 36.7169 182.309" stroke="#231815" stroke-width="2" stroke-linecap="round" stroke-linejoin="round"/>
<path d="M12.6479 242.307C12.6763 247.044 12.8466 251.78 13.1647 256.505" stroke="#231815" stroke-linecap="round" stroke-linejoin="round"/>
<path d="M12.6422 240.957C12.6422 241.405 12.6422 241.859 12.6422 242.307" stroke="#231815" stroke-linecap="round" stroke-linejoin="round"/>
<path d="M13.159 256.505C13.1874 256.925 13.2158 257.345 13.2442 257.759" stroke="#231815" stroke-linecap="round" stroke-linejoin="round"/>
<path d="M17.5491 280.347C18.1455 280.347 18.7418 280.353 19.3381 280.347" stroke="#231815" stroke-linecap="round" stroke-linejoin="round"/>
<path d="M17.5548 279.587C18.1341 279.587 18.7191 279.593 19.2984 279.587" stroke="#231815" stroke-width="0.5" stroke-linecap="round" stroke-linejoin="round"/>
<path d="M16.6973 275.514C16.9131 275.514 17.1289 275.514 17.3447 275.52" stroke="#231815" stroke-linecap="round" stroke-linejoin="round"/>
<path d="M16.7143 275.514C16.9244 275.514 17.1402 275.514 17.3504 275.52" stroke="#231815" stroke-width="2" stroke-linecap="round" stroke-linejoin="round"/>
<path d="M1.01093 274.76C5.17388 275.111 9.34819 275.344 13.5225 275.452" stroke="#231815" stroke-width="2" stroke-linecap="round" stroke-linejoin="round"/>
<path d="M14.5675 275.48C14.7492 275.48 14.931 275.486 15.1127 275.491" stroke="#231815" stroke-width="2" stroke-linecap="round" stroke-linejoin="round"/>
<path d="M17.799 275.525C18.225 275.525 18.6509 275.525 19.0769 275.525" stroke="#231815" stroke-width="2" stroke-linecap="round" stroke-linejoin="round"/>
<path d="M36.7169 93.7837C36.1717 94.056 35.8253 94.6119 35.8253 95.2245" stroke="#231815" stroke-width="2" stroke-linecap="round" stroke-linejoin="round"/>
<path d="M35.8253 95.6499C35.8253 96.2569 36.1717 96.8184 36.7169 97.0907" stroke="#231815" stroke-width="2" stroke-linecap="round" stroke-linejoin="round"/>
<path d="M37.3473 93.4716C37.8925 93.1993 38.239 92.6434 38.239 92.0308" stroke="#231815" stroke-width="2" stroke-linecap="round" stroke-linejoin="round"/>
<path d="M38.239 98.8434C38.239 98.2364 37.8925 97.6749 37.3473 97.4026" stroke="#231815" stroke-width="2" stroke-linecap="round" stroke-linejoin="round"/>
<path d="M13.3351 17.3352C13.3294 17.4146 13.318 17.494 13.3124 17.5735" stroke="#231815" stroke-linecap="round" stroke-linejoin="round"/>
<path d="M13.2783 17.925C13.2669 18.0612 13.2556 18.1973 13.2442 18.3335" stroke="#231815" stroke-linecap="round" stroke-linejoin="round"/>
<path d="M13.4089 16.6487C13.3919 16.8018 13.3748 16.9493 13.3578 17.1025" stroke="#231815" stroke-linecap="round" stroke-linejoin="round"/>
<path d="M13.3067 17.6245C13.2953 17.7266 13.2896 17.8231 13.2783 17.9252" stroke="#231815" stroke-linecap="round" stroke-linejoin="round"/>
<path d="M13.3521 17.1763C13.3521 17.2273 13.3408 17.284 13.3351 17.3351" stroke="#231815" stroke-linecap="round" stroke-linejoin="round"/>
<path d="M1.01092 1.33301C0.76103 1.3557 0.567932 1.56558 0.567932 1.81517" stroke="#231815" stroke-width="2" stroke-linecap="round" stroke-linejoin="round"/>
<path d="M19.0371 0.725969C18.9803 0.623864 18.8724 0.567139 18.7589 0.567139" stroke="#231815" stroke-width="2" stroke-linecap="round" stroke-linejoin="round"/>
<path d="M19.2246 0.584229C19.1791 0.584229 19.128 0.601246 19.1053 0.640954" stroke="#231815" stroke-width="2" stroke-linecap="round" stroke-linejoin="round"/>
<path d="M38.1935 13.4267C38.1367 13.2962 38.0231 13.1998 37.8868 13.1658" stroke="#231815" stroke-linecap="round" stroke-linejoin="round"/>
<path d="M38.239 7.36285C38.239 7.1473 38.097 6.9601 37.8925 6.89771" stroke="#231815" stroke-width="2" stroke-linecap="round" stroke-linejoin="round"/>
<path d="M13.1306 20.0295C12.8523 24.335 12.6933 28.6461 12.6479 32.9572" stroke="#231815" stroke-linecap="round" stroke-linejoin="round"/>
<path d="M12.6536 32.9573C12.6479 33.6834 12.6422 34.4094 12.6422 35.1412" stroke="#231815" stroke-linecap="round" stroke-linejoin="round"/>
<path d="M13.2499 18.3335C13.2101 18.8951 13.1704 19.4623 13.1363 20.0296" stroke="#231815" stroke-linecap="round" stroke-linejoin="round"/>
<path d="M15.8737 275.503H15.7147" stroke="#231815" stroke-width="2" stroke-linecap="round" stroke-linejoin="round"/>
<path d="M15.7147 275.503L15.6295 275.497" stroke="#231815" stroke-width="2" stroke-linecap="round" stroke-linejoin="round"/>
<path d="M15.6295 275.497H15.5273" stroke="#231815" stroke-width="2" stroke-linecap="round" stroke-linejoin="round"/>
<path d="M15.3683 275.497H15.5103" stroke="#231815" stroke-width="2" stroke-linecap="round" stroke-linejoin="round"/>
<path d="M15.5103 275.497H15.527" stroke="#231815" stroke-width="2" stroke-linecap="round" stroke-linejoin="round"/>
<path d="M15.5273 275.497L15.6863 275.503" stroke="#231815" stroke-width="2" stroke-linecap="round" stroke-linejoin="round"/>
<path d="M15.6863 275.503H15.9135" stroke="#231815" stroke-width="2" stroke-linecap="round" stroke-linejoin="round"/>
<path d="M16.9926 280.115C16.9187 280.046 16.8619 279.961 16.8222 279.871" stroke="#231815" stroke-linecap="round" stroke-linejoin="round"/>
<path d="M26.8519 278.781C26.903 278.781 26.9541 278.781 27.0109 278.787C27.0677 278.793 27.1131 278.787 27.1643 278.787C27.2097 278.787 27.2551 278.787 27.3006 278.787C27.3403 278.787 27.3801 278.787 27.4198 278.787C27.4539 278.787 27.488 278.787 27.5221 278.787C27.5448 278.787 27.5732 278.787 27.5959 278.787C27.6073 278.787 27.6129 278.787 27.6243 278.787C27.63 278.787 27.6356 278.787 27.6413 278.787C27.6413 278.787 27.647 278.787 27.6527 278.787" stroke="#231815" stroke-width="0.5" stroke-linecap="round" stroke-linejoin="round"/>
<path d="M19.2984 279.587C19.2984 279.638 19.2984 279.689 19.3041 279.74C19.3097 279.791 19.3041 279.836 19.3097 279.882C19.3097 279.927 19.3097 279.967 19.3154 280.012C19.3154 280.052 19.3154 280.086 19.3211 280.126C19.3211 280.143 19.3211 280.16 19.3211 280.177C19.3211 280.194 19.3211 280.205 19.3211 280.222C19.3211 280.234 19.3211 280.245 19.3211 280.262C19.3211 280.273 19.3211 280.285 19.3211 280.296C19.3211 280.302 19.3211 280.313 19.3211 280.319C19.3211 280.324 19.3211 280.33 19.3211 280.336C19.3211 280.336 19.3211 280.336 19.3211 280.341" stroke="#231815" stroke-width="0.5" stroke-linecap="round" stroke-linejoin="round"/>
<path d="M26.8519 278.781C26.8519 278.833 26.8633 278.884 26.8689 278.929C26.8746 278.974 26.8803 279.025 26.886 279.071C26.886 279.116 26.8973 279.156 26.903 279.201C26.903 279.241 26.9087 279.275 26.9144 279.315C26.9144 279.343 26.9201 279.377 26.9257 279.405C26.9257 279.417 26.9257 279.428 26.9257 279.445C26.9257 279.457 26.9257 279.468 26.9257 279.479C26.9257 279.485 26.9257 279.496 26.9257 279.502C26.9257 279.508 26.9257 279.513 26.9257 279.519C26.9257 279.519 26.9257 279.519 26.9257 279.525" stroke="#231815" stroke-width="0.5" stroke-linecap="round" stroke-linejoin="round"/>
<path d="M16.7484 279.587C16.7484 279.587 16.754 279.587 16.7597 279.587C16.7654 279.587 16.7711 279.587 16.7768 279.587C16.7881 279.587 16.7938 279.587 16.8052 279.587C16.8279 279.587 16.8563 279.587 16.879 279.587C16.9131 279.587 16.9471 279.587 16.9812 279.587C17.021 279.587 17.0607 279.587 17.1005 279.587C17.1459 279.587 17.1914 279.587 17.2368 279.587C17.2879 279.587 17.339 279.587 17.3901 279.587C17.4412 279.587 17.4924 279.587 17.5492 279.581" stroke="#231815" stroke-width="0.5" stroke-linecap="round" stroke-linejoin="round"/>
<path d="M13.1306 275.446H13.2272" stroke="#231815" stroke-width="2" stroke-linecap="round" stroke-linejoin="round"/>
<path d="M15.4478 275.497H15.4989" stroke="#231815" stroke-width="2" stroke-linecap="round" stroke-linejoin="round"/>
<path d="M15.4989 275.497H15.5443" stroke="#231815" stroke-width="2" stroke-linecap="round" stroke-linejoin="round"/>
<path d="M15.6863 275.503H15.6919" stroke="#231815" stroke-width="2" stroke-linecap="round" stroke-linejoin="round"/>
<path d="M15.834 275.503H15.9135" stroke="#231815" stroke-width="2" stroke-linecap="round" stroke-linejoin="round"/>
<path d="M15.9135 275.503L16.0782 275.508" stroke="#231815" stroke-width="2" stroke-linecap="round" stroke-linejoin="round"/>
<path d="M16.0782 275.508H16.2713" stroke="#231815" stroke-width="2" stroke-linecap="round" stroke-linejoin="round"/>
<path d="M13.1306 275.446L12.9773 275.44" stroke="#231815" stroke-width="2" stroke-linecap="round" stroke-linejoin="round"/>
<path d="M38.1935 13.4268C38.2219 13.4892 38.239 13.5572 38.239 13.631" stroke="#231815" stroke-linecap="round" stroke-linejoin="round"/>
<path d="M38.1935 262.666C38.2219 262.603 38.239 262.535 38.239 262.467" stroke="#231815" stroke-linecap="round" stroke-linejoin="round"/>
<path d="M13.3237 258.621L13.3294 258.695" stroke="#231815" stroke-linecap="round" stroke-linejoin="round"/>
<path d="M13.3578 258.996L13.3692 259.069" stroke="#231815" stroke-linecap="round" stroke-linejoin="round"/>
<path d="M13.3578 17.1025L13.3521 17.1763" stroke="#231815" stroke-linecap="round" stroke-linejoin="round"/>
<path d="M13.3124 17.5732L13.3067 17.6243" stroke="#231815" stroke-linecap="round" stroke-linejoin="round"/>
<path d="M38.239 13.6308C38.239 13.6308 38.2276 13.5741 38.2106 13.5514C38.1765 13.506 38.1254 13.472 38.0743 13.4493C38.0061 13.4209 37.9323 13.4039 37.8585 13.3926" stroke="#231815" stroke-linecap="round" stroke-linejoin="round"/>
<path d="M37.7676 267.771C37.7676 267.771 37.796 267.816 37.8073 267.839C37.8528 267.924 37.8812 268.021 37.9039 268.117" stroke="#231815" stroke-linecap="round" stroke-linejoin="round"/>
<path d="M37.9039 268.111C37.9096 268.145 37.9152 268.179 37.9209 268.213C37.9323 268.304 37.9436 268.401 37.9323 268.491" stroke="#231815" stroke-linecap="round" stroke-linejoin="round"/>
<path d="M37.9323 268.491C37.9323 268.491 37.9323 268.514 37.9266 268.525C37.9209 268.554 37.9152 268.582 37.8982 268.605" stroke="#231815" stroke-linecap="round" stroke-linejoin="round"/>
<path d="M13.4313 259.449C13.4313 259.449 13.4202 259.449 13.4146 259.449" stroke="#231815" stroke-linecap="round" stroke-linejoin="round"/>
<path d="M38.239 262.467C38.239 262.467 38.2276 262.524 38.2106 262.547C38.1765 262.592 38.1254 262.626 38.0743 262.649C38.0061 262.677 37.9323 262.694 37.8585 262.706" stroke="#231815" stroke-linecap="round" stroke-linejoin="round"/>
<path d="M38.239 7.92995C38.239 7.83351 38.2049 7.73141 38.1424 7.65767C38.08 7.58392 37.9891 7.52153 37.8925 7.49316" stroke="#231815" stroke-linecap="round" stroke-linejoin="round"/>
<path d="M38.239 7.93018C38.239 7.98123 38.2276 8.03228 38.2049 8.07766C38.1822 8.12871 38.1481 8.16842 38.1027 8.20246C38.0118 8.28187 37.8868 8.32158 37.7676 8.32158" stroke="#231815" stroke-linecap="round" stroke-linejoin="round"/>
<path d="M37.7676 267.771C36.8135 267.947 35.8536 268.106 34.8938 268.219C34.4281 268.276 33.9624 268.321 33.491 268.35C33.0197 268.378 32.5824 268.389 32.128 268.378" stroke="#231815" stroke-linecap="round" stroke-linejoin="round"/>
<path d="M38.239 268.162C38.239 268.111 38.2276 268.06 38.2049 268.015C38.1822 267.964 38.1481 267.924 38.1027 267.89C38.0118 267.811 37.8868 267.771 37.7676 267.771" stroke="#231815" stroke-linecap="round" stroke-linejoin="round"/>
<path d="M32.8038 11.5718C32.4915 11.4243 32.1848 11.2655 31.8838 11.0953C31.5828 10.9251 31.2875 10.7493 31.0035 10.5564C30.7195 10.3635 30.4526 10.1593 30.2027 9.93243C29.9528 9.70553 29.7427 9.47863 29.5666 9.20635C29.4871 9.08155 29.419 8.95109 29.3678 8.81495C29.3224 8.69015 29.2883 8.55968 29.2827 8.42354C29.277 8.30442 29.2883 8.17962 29.3224 8.06617C29.3565 7.95272 29.4076 7.85062 29.4758 7.75986C29.5439 7.6691 29.6234 7.58401 29.7143 7.51027C29.8052 7.43652 29.9074 7.36845 30.0096 7.31173C30.2311 7.19261 30.4696 7.10185 30.7139 7.03945C30.9751 6.97138 31.242 6.92032 31.5033 6.89196C31.7816 6.85793 32.0655 6.84091 32.3495 6.83524C32.9458 6.81822 33.5422 6.85225 34.1328 6.90331C34.7575 6.96003 35.3766 7.04512 35.99 7.14155C36.6033 7.23799 37.2621 7.36278 37.8925 7.49325" stroke="#231815" stroke-linecap="round" stroke-linejoin="round"/>
<path d="M38.239 268.163C38.239 268.259 38.2049 268.361 38.1424 268.435C38.08 268.509 37.9891 268.571 37.8925 268.599" stroke="#231815" stroke-linecap="round" stroke-linejoin="round"/>
<path d="M37.8585 13.3983C36.9952 13.1544 36.1433 12.8878 35.2971 12.5872C34.4509 12.2865 33.616 11.9575 32.8038 11.5718" stroke="#231815" stroke-linecap="round" stroke-linejoin="round"/>
<path d="M33.4683 264.271C34.1782 263.953 34.9052 263.67 35.6435 263.414C36.3818 263.159 37.1201 262.921 37.8641 262.7" stroke="#231815" stroke-linecap="round" stroke-linejoin="round"/>
<path d="M37.8982 268.605C37.2678 268.735 36.6374 268.854 36.0013 268.957C35.3652 269.059 34.7689 269.138 34.1499 269.195C33.5308 269.252 32.9685 269.28 32.3722 269.263C32.0939 269.257 31.81 269.235 31.5317 269.201C31.2534 269.166 31.0035 269.121 30.7479 269.047C30.5094 268.979 30.2709 268.894 30.055 268.769C29.9528 268.713 29.8563 268.645 29.7654 268.571C29.6745 268.497 29.6007 268.412 29.5382 268.316C29.4758 268.219 29.4246 268.117 29.3962 268.004C29.3678 267.884 29.3565 267.765 29.3735 267.641C29.3849 267.504 29.4246 267.374 29.4758 267.249C29.5326 267.113 29.6064 266.983 29.6859 266.858C29.8676 266.591 30.0891 266.353 30.3277 266.137C30.5775 265.91 30.8502 265.706 31.1284 265.519C31.4067 265.332 31.7077 265.15 32.0031 264.98C32.2984 264.81 32.6108 264.657 32.9231 264.504" stroke="#231815" stroke-linecap="round" stroke-linejoin="round"/>
<path d="M32.1053 7.72017C32.5596 7.70882 33.0197 7.72017 33.474 7.74853C33.9284 7.77689 34.4168 7.82227 34.8825 7.879C35.848 7.99245 36.8135 8.15128 37.7676 8.32713" stroke="#231815" stroke-linecap="round" stroke-linejoin="round"/>
<path d="M32.128 268.378L31.685 268.355" stroke="#231815" stroke-linecap="round" stroke-linejoin="round"/>
<path d="M31.685 268.355L31.0376 268.27" stroke="#231815" stroke-linecap="round" stroke-linejoin="round"/>
<path d="M31.0376 268.27L30.4924 268.134" stroke="#231815" stroke-linecap="round" stroke-linejoin="round"/>
<path d="M30.4924 268.134L30.0664 267.941" stroke="#231815" stroke-linecap="round" stroke-linejoin="round"/>
<path d="M30.0664 267.941L29.8108 267.714" stroke="#231815" stroke-linecap="round" stroke-linejoin="round"/>
<path d="M29.8108 267.714L29.7256 267.482" stroke="#231815" stroke-linecap="round" stroke-linejoin="round"/>
<path d="M29.7256 267.482L29.7824 267.17" stroke="#231815" stroke-linecap="round" stroke-linejoin="round"/>
<path d="M29.7824 267.17L30.021 266.767" stroke="#231815" stroke-linecap="round" stroke-linejoin="round"/>
<path d="M30.021 266.767L30.4128 266.342" stroke="#231815" stroke-linecap="round" stroke-linejoin="round"/>
<path d="M30.4128 266.342L30.924 265.922" stroke="#231815" stroke-linecap="round" stroke-linejoin="round"/>
<path d="M30.924 265.922L31.509 265.519" stroke="#231815" stroke-linecap="round" stroke-linejoin="round"/>
<path d="M31.509 265.519L32.1507 265.15" stroke="#231815" stroke-linecap="round" stroke-linejoin="round"/>
<path d="M18.3897 1.81519L17.5605 3.30706" stroke="#231815" stroke-linecap="round" stroke-linejoin="round"/>
<path d="M17.5605 3.30688L16.5609 5.34332" stroke="#231815" stroke-linecap="round" stroke-linejoin="round"/>
<path d="M16.5609 5.34351L15.5273 7.8621" stroke="#231815" stroke-linecap="round" stroke-linejoin="round"/>
<path d="M16.8165 271.299L17.8558 273.336" stroke="#231815" stroke-linecap="round" stroke-linejoin="round"/>
<path d="M17.8558 273.336L19.1166 275.526" stroke="#231815" stroke-linecap="round" stroke-linejoin="round"/>
<path d="M14.664 265.633L15.6977 268.69" stroke="#231815" stroke-linecap="round" stroke-linejoin="round"/>
<path d="M15.6977 268.69L16.8165 271.299" stroke="#231815" stroke-linecap="round" stroke-linejoin="round"/>
<path d="M32.1507 265.15L32.8266 264.799" stroke="#231815" stroke-linecap="round" stroke-linejoin="round"/>
<path d="M32.8266 264.799L33.0197 264.708" stroke="#231815" stroke-linecap="round" stroke-linejoin="round"/>
<path d="M33.0197 264.708L34.2407 264.175" stroke="#231815" stroke-linecap="round" stroke-linejoin="round"/>
<path d="M34.2407 264.175L36.2115 263.454" stroke="#231815" stroke-linecap="round" stroke-linejoin="round"/>
<path d="M36.2114 263.454L37.8925 262.932" stroke="#231815" stroke-linecap="round" stroke-linejoin="round"/>
<path d="M32.5653 11.22L31.7305 10.7776" stroke="#231815" stroke-linecap="round" stroke-linejoin="round"/>
<path d="M31.7304 10.7778L30.9751 10.3013" stroke="#231815" stroke-linecap="round" stroke-linejoin="round"/>
<path d="M30.9751 10.3012L30.3447 9.79639" stroke="#231815" stroke-linecap="round" stroke-linejoin="round"/>
<path d="M30.3447 9.79642L29.8847 9.28589" stroke="#231815" stroke-linecap="round" stroke-linejoin="round"/>
<path d="M29.8847 9.28582L29.6575 8.80933" stroke="#231815" stroke-linecap="round" stroke-linejoin="round"/>
<path d="M29.6575 8.80934L29.6916 8.46899" stroke="#231815" stroke-linecap="round" stroke-linejoin="round"/>
<path d="M29.6916 8.46886L29.9926 8.16821" stroke="#231815" stroke-linecap="round" stroke-linejoin="round"/>
<path d="M29.9926 8.16835L30.6059 7.91309" stroke="#231815" stroke-linecap="round" stroke-linejoin="round"/>
<path d="M30.6059 7.91298L31.4862 7.75415" stroke="#231815" stroke-linecap="round" stroke-linejoin="round"/>
<path d="M31.4862 7.75425L32.1053 7.72021" stroke="#231815" stroke-linecap="round" stroke-linejoin="round"/>
<path d="M37.8868 13.1657L36.2114 12.6609" stroke="#231815" stroke-linecap="round" stroke-linejoin="round"/>
<path d="M36.2114 12.661L34.201 11.9463" stroke="#231815" stroke-linecap="round" stroke-linejoin="round"/>
<path d="M34.201 11.9461L32.9004 11.3845" stroke="#231815" stroke-linecap="round" stroke-linejoin="round"/>
<path d="M22.138 275.202L19.0826 275.525" stroke="#231815" stroke-width="2" stroke-linecap="round" stroke-linejoin="round"/>
<path d="M18.1852 257.402L18.1796 257.333" stroke="#231815" stroke-linecap="round" stroke-linejoin="round"/>
<path d="M15.3796 240.957V35.1355" stroke="#231815" stroke-linecap="round" stroke-linejoin="round"/>
<path d="M17.5946 240.957V240.855" stroke="#231815" stroke-linecap="round" stroke-linejoin="round"/>
<path d="M17.5946 240.855V35.1299" stroke="#231815" stroke-linecap="round" stroke-linejoin="round"/>
<ellipse cx="22.9218" cy="1.70721" rx="0.283967" ry="0.283626" fill="#231815"/>
<ellipse cx="22.9218" cy="274.391" rx="0.283967" ry="0.283626" fill="#231815"/>
<path d="M22.9729 1.97956L22.9218 1.70728" stroke="#231815" stroke-width="2" stroke-linecap="round" stroke-linejoin="round"/>
<path d="M23.8532 273.245C23.3364 273.393 22.9616 273.852 22.9275 274.391" stroke="#231815" stroke-linecap="round" stroke-linejoin="round"/>
<path d="M23.8532 273.245C23.3364 273.393 22.9672 273.852 22.9275 274.391" stroke="#231815" stroke-width="2" stroke-linecap="round" stroke-linejoin="round"/>
<path d="M22.138 275.202C22.564 275.157 22.8934 274.816 22.9218 274.391" stroke="#231815" stroke-width="2" stroke-linecap="round" stroke-linejoin="round"/>
<path d="M20.2298 266.546C20.6955 267.743 21.235 268.906 21.8484 270.034" stroke="#231815" stroke-linecap="round" stroke-linejoin="round"/>
<path d="M20.1105 266.245C20.1503 266.347 20.19 266.449 20.2298 266.546" stroke="#231815" stroke-linecap="round" stroke-linejoin="round"/>
<path d="M19.4801 264.407C19.6732 265.026 19.8834 265.638 20.1105 266.245" stroke="#231815" stroke-linecap="round" stroke-linejoin="round"/>
<path d="M18.3783 259.308C18.5998 261.038 18.969 262.739 19.4801 264.407" stroke="#231815" stroke-linecap="round" stroke-linejoin="round"/>
<path d="M15.9816 257.561C16.0271 258.19 16.0896 258.82 16.1691 259.444" stroke="#231815" stroke-linecap="round" stroke-linejoin="round"/>
<path d="M16.1634 259.449C16.6745 263.534 17.8899 267.493 19.7471 271.169" stroke="#231815" stroke-linecap="round" stroke-linejoin="round"/>
<path d="M18.1852 257.402C18.2307 257.992 18.2875 258.582 18.3613 259.166" stroke="#231815" stroke-linecap="round" stroke-linejoin="round"/>
<path d="M15.3796 240.957C15.3796 246.499 15.5784 252.035 15.9816 257.566" stroke="#231815" stroke-linecap="round" stroke-linejoin="round"/>
<path d="M17.5946 240.957C17.5946 246.42 17.7934 251.882 18.1795 257.334" stroke="#231815" stroke-linecap="round" stroke-linejoin="round"/>
<path d="M18.3556 16.938C18.2875 17.5166 18.2307 18.1009 18.1852 18.6795" stroke="#231815" stroke-linecap="round" stroke-linejoin="round"/>
<path d="M19.0314 6.44385C18.9065 6.7218 18.7872 6.99408 18.668 7.27771" stroke="#231815" stroke-linecap="round" stroke-linejoin="round"/>
<path d="M19.7527 4.9292C19.5028 5.42838 19.2586 5.93323 19.0314 6.44376" stroke="#231815" stroke-linecap="round" stroke-linejoin="round"/>
<path d="M16.1634 16.6487C16.0839 17.2727 16.0214 17.9023 15.976 18.532" stroke="#231815" stroke-linecap="round" stroke-linejoin="round"/>
<path d="M18.3215 8.13989C17.2595 10.8797 16.5325 13.733 16.1691 16.6487" stroke="#231815" stroke-linecap="round" stroke-linejoin="round"/>
<path d="M18.668 7.27783C18.5487 7.56146 18.4294 7.85076 18.3215 8.14005" stroke="#231815" stroke-linecap="round" stroke-linejoin="round"/>
<path d="M22.9729 1.97949C22.9956 2.05891 23.024 2.13265 23.0638 2.20639" stroke="#231815" stroke-width="2" stroke-linecap="round" stroke-linejoin="round"/>
<path d="M23.0638 2.20654C23.2285 2.51853 23.5124 2.7511 23.8475 2.85321" stroke="#231815" stroke-width="2" stroke-linecap="round" stroke-linejoin="round"/>
<path d="M22.9218 1.70741C22.8934 1.28197 22.564 0.94162 22.138 0.89624" stroke="#231815" stroke-width="2" stroke-linecap="round" stroke-linejoin="round"/>
<path d="M19.889 4.6626C19.8663 4.70231 19.8493 4.74201 19.8266 4.78739" stroke="#231815" stroke-linecap="round" stroke-linejoin="round"/>
<path d="M19.8209 4.7876C19.7982 4.83298 19.7698 4.88403 19.7471 4.92941" stroke="#231815" stroke-linecap="round" stroke-linejoin="round"/>
<path d="M20.3661 9.19507C20.2639 9.44466 20.1673 9.69992 20.0708 9.94951" stroke="#231815" stroke-linecap="round" stroke-linejoin="round"/>
<path d="M21.7746 6.18872C21.2521 7.16439 20.7807 8.16843 20.3661 9.19515" stroke="#231815" stroke-linecap="round" stroke-linejoin="round"/>
<path d="M20.0708 9.94946C19.9458 10.2841 19.8266 10.6245 19.713 10.9592" stroke="#231815" stroke-linecap="round" stroke-linejoin="round"/>
<path d="M19.4744 11.6909C19.128 12.8197 18.844 13.9713 18.6282 15.1341" stroke="#231815" stroke-linecap="round" stroke-linejoin="round"/>
<path d="M19.7073 10.9592C19.6278 11.2031 19.5483 11.4414 19.4744 11.6853" stroke="#231815" stroke-linecap="round" stroke-linejoin="round"/>
<path d="M18.4919 15.9509C18.4522 16.2062 18.4181 16.4558 18.384 16.711" stroke="#231815" stroke-linecap="round" stroke-linejoin="round"/>
<path d="M18.6282 15.1284C18.5771 15.4007 18.5317 15.673 18.4862 15.9453" stroke="#231815" stroke-linecap="round" stroke-linejoin="round"/>
<path d="M15.9816 18.532C15.5841 24.057 15.3796 29.5991 15.3796 35.1411" stroke="#231815" stroke-linecap="round" stroke-linejoin="round"/>
<path d="M18.1852 18.6794C17.7934 24.1534 17.5946 29.6444 17.5946 35.1354" stroke="#231815" stroke-linecap="round" stroke-linejoin="round"/>
<path d="M19.889 4.66279C20.031 4.38484 20.1844 4.10689 20.332 3.82893C20.4683 3.57934 20.6103 3.32975 20.7523 3.08583C20.8772 2.87028 21.0079 2.65472 21.1385 2.43917C21.2521 2.25764 21.36 2.07612 21.4793 1.8946C21.5304 1.81519 21.5758 1.74145 21.6269 1.6677C21.6724 1.59963 21.7121 1.53156 21.7575 1.46349C21.7973 1.40677 21.8314 1.35004 21.8711 1.28764C21.9052 1.24226 21.9336 1.19121 21.9677 1.14583C21.9904 1.10612 22.0188 1.07209 22.0415 1.03238C22.0529 1.01536 22.0642 1.00402 22.0699 0.987C22.0756 0.975655 22.0869 0.96431 22.0926 0.952965C22.0983 0.94162 22.104 0.935948 22.1097 0.924603C22.1097 0.91893 22.121 0.907585 22.121 0.907585C22.121 0.907585 22.1267 0.901913 22.1267 0.89624" stroke="#231815" stroke-linecap="round" stroke-linejoin="round"/>
<path d="M21.7746 6.18865C21.9052 5.94474 22.0415 5.69515 22.1835 5.4569C22.3084 5.23567 22.439 5.02012 22.5697 4.80456C22.6833 4.61169 22.8025 4.4245 22.9218 4.23731C23.024 4.07848 23.1262 3.91965 23.2285 3.76082C23.3137 3.63035 23.3989 3.50555 23.484 3.38076C23.5465 3.28433 23.6147 3.19357 23.6771 3.09713C23.6999 3.0631 23.7226 3.02906 23.751 2.99503C23.768 2.97234 23.7851 2.94397 23.8021 2.92128C23.8134 2.90427 23.8248 2.89292 23.8362 2.8759C23.8362 2.87023 23.8475 2.86456 23.8532 2.85889" stroke="#231815" stroke-linecap="round" stroke-linejoin="round"/>
<ellipse cx="23.8532" cy="2.85321" rx="0.283967" ry="0.283626" fill="#231815"/>
<path d="M18.3556 16.9381L18.384 16.7112" stroke="#231815" stroke-linecap="round" stroke-linejoin="round"/>
<path d="M18.3783 259.308L18.3613 259.172" stroke="#231815" stroke-linecap="round" stroke-linejoin="round"/>
<ellipse cx="23.8532" cy="273.245" rx="0.283967" ry="0.283626" fill="#231815"/>
<path d="M23.8532 273.245C23.8532 273.245 23.8419 273.234 23.8362 273.228C23.8248 273.211 23.8135 273.2 23.8021 273.183C23.7851 273.16 23.768 273.137 23.751 273.114C23.7283 273.08 23.7055 273.052 23.6828 273.018C23.6204 272.927 23.5579 272.837 23.4954 272.746C23.4102 272.627 23.3307 272.502 23.2512 272.383C23.149 272.23 23.0524 272.076 22.9559 271.923C22.8423 271.742 22.7287 271.56 22.6151 271.379C22.3482 270.942 22.0926 270.494 21.8484 270.046" stroke="#231815" stroke-linecap="round" stroke-linejoin="round"/>
<path d="M22.138 275.202C22.138 275.196 22.138 275.191 22.1267 275.191C22.1267 275.185 22.1153 275.179 22.1096 275.168C22.104 275.157 22.0983 275.145 22.0869 275.14C22.0756 275.128 22.0699 275.111 22.0585 275.1C22.0472 275.083 22.0358 275.066 22.0245 275.055C21.9961 275.015 21.9677 274.975 21.9449 274.935C21.9109 274.884 21.8768 274.833 21.8427 274.782C21.803 274.72 21.7632 274.657 21.7178 274.595C21.6723 274.521 21.6212 274.453 21.5758 274.379C21.5247 274.3 21.4679 274.215 21.4168 274.136C21.2975 273.943 21.1726 273.75 21.059 273.557C20.9227 273.33 20.7864 273.097 20.6501 272.865C20.4967 272.604 20.3491 272.337 20.2071 272.071C20.048 271.776 19.889 271.481 19.7414 271.18" stroke="#231815" stroke-linecap="round" stroke-linejoin="round"/>
</g>
<defs>
<clipPath id="clip0_635_10503">
<rect width="39" height="350" fill="white"/>
</clipPath>
</defs>
</svg>
