<?xml version="1.0" encoding="UTF-8"?>
<svg id="_레이어_1" data-name="레이어_1" xmlns="http://www.w3.org/2000/svg" version="1.1" viewBox="0 0 472.85 411.05">
  <!-- Generator: Adobe Illustrator 30.5.1, SVG Export Plug-In . SVG Version: 2.1.4 Build 3)  -->
  <defs>
    <style>
      .st0 {
        stroke: #a42444;
        stroke-dasharray: 4 4;
      }

      .st0, .st1, .st2, .st3, .st4, .st5, .st6 {
        fill: none;
      }

      .st0, .st2 {
        stroke-width: 2px;
      }

      .st0, .st3, .st4, .st5, .st6 {
        stroke-linecap: round;
        stroke-linejoin: round;
      }

      .st1, .st2 {
        stroke-miterlimit: 10;
      }

      .st1, .st2, .st3, .st5 {
        stroke: #000;
      }

      .st7 {
        fill: #fff;
      }

      .st8 {
        fill: #a42444;
      }

      .st4, .st5 {
        stroke-width: .5px;
      }

      .st4, .st6 {
        stroke: #231815;
      }
    </style>
  </defs>
  <rect class="st7" x=".43" y=".05" width="472" height="411"/>
  <line class="st2" x1=".43" y1="49.94" x2="472.43" y2="49.94"/>
  <g>
    <line class="st1" x1=".43" y1="24.28" x2="15.04" y2=".26"/>
    <line class="st1" x1="4.87" y1="49.94" x2="35.1" y2=".26"/>
    <line class="st1" x1="24.93" y1="49.94" x2="55.16" y2=".26"/>
    <line class="st1" x1="44.99" y1="49.94" x2="75.21" y2=".26"/>
    <line class="st1" x1="65.05" y1="49.94" x2="95.27" y2=".26"/>
    <line class="st1" x1="85.11" y1="49.94" x2="115.33" y2=".26"/>
    <line class="st1" x1="105.17" y1="49.94" x2="135.39" y2=".26"/>
    <line class="st1" x1="125.23" y1="49.94" x2="155.45" y2=".26"/>
    <line class="st1" x1="145.29" y1="49.94" x2="175.51" y2=".26"/>
    <line class="st1" x1="165.35" y1="49.94" x2="195.57" y2=".26"/>
    <line class="st1" x1="185.4" y1="49.94" x2="215.63" y2=".26"/>
    <line class="st1" x1="205.46" y1="49.94" x2="235.69" y2=".26"/>
    <line class="st1" x1="225.52" y1="49.94" x2="255.74" y2=".26"/>
    <line class="st1" x1="245.58" y1="49.94" x2="275.8" y2=".26"/>
    <line class="st1" x1="265.64" y1="49.94" x2="295.86" y2=".26"/>
    <line class="st1" x1="285.7" y1="49.94" x2="315.92" y2=".26"/>
    <line class="st1" x1="305.76" y1="49.94" x2="335.98" y2=".26"/>
    <line class="st1" x1="325.82" y1="49.94" x2="356.04" y2=".26"/>
    <line class="st1" x1="345.88" y1="49.94" x2="376.1" y2=".26"/>
    <line class="st1" x1="365.93" y1="49.94" x2="396.16" y2=".26"/>
    <line class="st1" x1="385.99" y1="49.94" x2="416.22" y2=".26"/>
    <line class="st1" x1="406.05" y1="49.94" x2="436.27" y2=".26"/>
    <line class="st1" x1="426.11" y1="49.94" x2="456.33" y2=".26"/>
    <line class="st1" x1="446.17" y1="49.94" x2="472.43" y2="6.78"/>
    <line class="st1" x1="466.23" y1="49.94" x2="472.43" y2="39.75"/>
  </g>
  <g>
    <g>
      <path class="st0" d="M422.87,138.07c-.28,15.04-3.2,47.39-21.72,71.68"/>
      <polygon class="st8" points="417.66 142.04 422.82 139.8 428.03 141.96 422.74 129.71 417.66 142.04"/>
      <polygon class="st8" points="399.61 203.35 402.19 208.36 407.58 209.98 395.73 216.11 399.61 203.35"/>
    </g>
    <g>
      <g>
        <g id="LINE">
          <line class="st4" x1="360.14" y1="361" x2="360.04" y2="360.94"/>
        </g>
        <g id="LINE1" data-name="LINE">
          <line class="st4" x1="50.09" y1="166.85" x2="50.93" y2="165.06"/>
        </g>
        <g id="LINE2" data-name="LINE">
          <line class="st4" x1="64.94" y1="139" x2="66.14" y2="137.03"/>
        </g>
        <g id="LINE3" data-name="LINE">
          <line class="st4" x1="66.15" y1="137.03" x2="66.14" y2="137.03"/>
        </g>
        <g id="LINE4" data-name="LINE">
          <line class="st4" x1="66.88" y1="135.94" x2="66.93" y2="135.88"/>
        </g>
        <g id="LINE5" data-name="LINE">
          <line class="st4" x1="66.93" y1="135.88" x2="66.93" y2="135.88"/>
        </g>
        <g id="LINE6" data-name="LINE">
          <line class="st4" x1="50.09" y1="166.85" x2="50.16" y2="166.89"/>
        </g>
        <g id="LINE7" data-name="LINE">
          <line class="st4" x1="50.16" y1="166.89" x2="52.63" y2="168.41"/>
        </g>
        <g id="LINE8" data-name="LINE">
          <line class="st4" x1="52.63" y1="168.41" x2="54.12" y2="169.33"/>
        </g>
        <g id="LINE9" data-name="LINE">
          <line class="st4" x1="50.59" y1="168.56" x2="360.04" y2="360.94"/>
        </g>
        <g id="LINE10" data-name="LINE">
          <line class="st4" x1="86.54" y1="189.45" x2="327.68" y2="339.37"/>
        </g>
        <g id="LINE11" data-name="LINE">
          <line class="st4" x1="327.68" y1="339.37" x2="330.07" y2="340.85"/>
        </g>
        <g id="LINE12" data-name="LINE">
          <line class="st4" x1="330.07" y1="340.85" x2="335.53" y2="344.25"/>
        </g>
        <g id="LWPOLYLINE">
          <polyline class="st4" points="335.53 344.25 341.84 348.17 345.22 350.28 348.6 352.38 351.72 354.33 354.38 355.99"/>
        </g>
        <g id="LINE13" data-name="LINE">
          <line class="st4" x1="325.4" y1="337.95" x2="354.38" y2="355.99"/>
        </g>
        <g id="LWPOLYLINE1" data-name="LWPOLYLINE">
          <polyline class="st4" points="358.19 358.37 361.42 360.39 361.69 360.57 361.8 360.64"/>
        </g>
        <g id="LINE14" data-name="LINE">
          <line class="st4" x1="112.23" y1="100.72" x2="112.23" y2="100.71"/>
        </g>
        <g id="LINE15" data-name="LINE">
          <line class="st4" x1="121.04" y1="88.37" x2="121.04" y2="88.37"/>
        </g>
        <g id="LINE16" data-name="LINE">
          <line class="st4" x1="121.61" y1="88.73" x2="122.21" y2="87.77"/>
        </g>
        <g id="LINE17" data-name="LINE">
          <line class="st4" x1="125.43" y1="91.1" x2="126.03" y2="90.14"/>
        </g>
        <g id="LINE18" data-name="LINE">
          <line class="st4" x1="66.79" y1="136.42" x2="66.15" y2="137.03"/>
        </g>
        <g id="LWPOLYLINE2" data-name="LWPOLYLINE">
          <polyline class="st4" points="134.86 98.02 133.31 99.25 130.55 101.29 127.87 103.12 125.24 104.73 122.66 106.16 120.13 107.39 117.67 108.41 115.32 109.18 113.15 109.66 111.35 109.78 110.11 109.56 109.52 109.13 109.28 108.34 109.41 107.01 109.92 105.36 110.72 103.52 111.75 101.56 112.23 100.72"/>
        </g>
        <g id="LINE19" data-name="LINE">
          <line class="st4" x1="107.4" y1="143.32" x2="100.14" y2="140.21"/>
        </g>
        <g id="LINE20" data-name="LINE">
          <line class="st4" x1="109.8" y1="144.57" x2="107.4" y2="143.32"/>
        </g>
        <g id="LINE21" data-name="LINE">
          <line class="st4" x1="113.21" y1="146.55" x2="352.07" y2="295.05"/>
        </g>
        <g id="LINE22" data-name="LINE">
          <line class="st4" x1="113.98" y1="85.35" x2="113.98" y2="85.35"/>
        </g>
        <g id="LINE23" data-name="LINE">
          <line class="st4" x1="150.08" y1="106.42" x2="153.41" y2="101.07"/>
        </g>
        <g id="LINE24" data-name="LINE">
          <line class="st4" x1="68.18" y1="135.9" x2="66.79" y2="136.42"/>
        </g>
        <g id="LWPOLYLINE3" data-name="LWPOLYLINE">
          <polyline class="st4" points="93.29 138.07 87.07 136.69 81.61 135.89 76.97 135.5 73.19 135.42 70.27 135.57 68.18 135.9"/>
        </g>
        <g id="LINE25" data-name="LINE">
          <line class="st4" x1="271.88" y1="182.14" x2="271.2" y2="181.94"/>
        </g>
        <g id="LINE26" data-name="LINE">
          <line class="st4" x1="100.14" y1="140.21" x2="93.29" y2="138.07"/>
        </g>
        <g id="LINE27" data-name="LINE">
          <line class="st4" x1="243.91" y1="185.88" x2="258.97" y2="195.24"/>
        </g>
        <g id="LINE28" data-name="LINE">
          <line class="st4" x1="180.16" y1="117.7" x2="176.84" y2="123.05"/>
        </g>
        <g id="LINE29" data-name="LINE">
          <line class="st4" x1="261.83" y1="192.32" x2="245.27" y2="182.02"/>
        </g>
        <g id="LINE30" data-name="LINE">
          <line class="st4" x1="121.03" y1="88.36" x2="115.73" y2="85.07"/>
        </g>
        <g id="LINE31" data-name="LINE">
          <line class="st4" x1="121.04" y1="88.37" x2="249.95" y2="168.51"/>
        </g>
        <g id="LINE32" data-name="LINE">
          <line class="st4" x1="397.34" y1="258.02" x2="372.69" y2="242.7"/>
        </g>
        <g id="LINE33" data-name="LINE">
          <line class="st4" x1="345.79" y1="225.97" x2="307.72" y2="202.31"/>
        </g>
        <g id="LINE34" data-name="LINE">
          <line class="st4" x1="215.86" y1="145.19" x2="177.79" y2="121.52"/>
        </g>
        <g id="LINE35" data-name="LINE">
          <line class="st4" x1="126.96" y1="89.93" x2="150.88" y2="104.8"/>
        </g>
        <g id="LINE36" data-name="LINE">
          <line class="st4" x1="129.33" y1="86.1" x2="399.14" y2="253.84"/>
        </g>
        <g id="LINE37" data-name="LINE">
          <line class="st4" x1="215.05" y1="146.81" x2="218.38" y2="141.46"/>
        </g>
        <g id="LWPOLYLINE4" data-name="LWPOLYLINE">
          <polyline class="st4" points="271.2 181.94 270.51 182.1 270.09 182.47"/>
        </g>
        <g id="LWPOLYLINE5" data-name="LWPOLYLINE">
          <polyline class="st4" points="270.09 182.47 269.12 183.73 267.02 186.37 265.03 188.76 263.11 190.94 261.27 192.92 259.55 194.67 257.98 196.19 256.51 197.53 255.08 198.75 253.68 199.86 252.3 200.88 250.93 201.79 249.56 202.59 248.2 203.26 246.86 203.77 245.53 204.08 244.28 204.11 243.18 203.72 242.39 202.87 241.89 201.71 241.6 200.39 241.48 198.95 241.49 197.44 241.61 195.88 241.82 194.26 242.12 192.58 242.5 190.84 242.96 189.04 243.51 187.15 244.17 185.08 244.98 182.79 245.93 180.29 247.02 177.62 248.27 174.81 249.69 171.8 250.44 170.26"/>
        </g>
        <g id="LINE38" data-name="LINE">
          <line class="st4" x1="310.1" y1="198.48" x2="306.77" y2="203.83"/>
        </g>
        <g id="LINE39" data-name="LINE">
          <line class="st4" x1="361.8" y1="360.64" x2="361.8" y2="360.65"/>
        </g>
        <g id="LINE40" data-name="LINE">
          <line class="st4" x1="344.99" y1="227.59" x2="348.32" y2="222.24"/>
        </g>
        <g id="LINE41" data-name="LINE">
          <line class="st4" x1="406.61" y1="267.28" x2="406.61" y2="267.28"/>
        </g>
        <g id="LINE42" data-name="LINE">
          <line class="st4" x1="381.69" y1="332.24" x2="381.66" y2="331.85"/>
        </g>
        <g id="LINE43" data-name="LINE">
          <line class="st4" x1="371.74" y1="244.22" x2="375.07" y2="238.87"/>
        </g>
        <g id="LINE44" data-name="LINE">
          <line class="st4" x1="381.43" y1="333.04" x2="381.69" y2="332.24"/>
        </g>
        <g id="LINE45" data-name="LINE">
          <line class="st4" x1="396.39" y1="259.55" x2="397.34" y2="258.02"/>
        </g>
        <g id="LINE46" data-name="LINE">
          <line class="st4" x1="400.21" y1="261.93" x2="400.81" y2="260.97"/>
        </g>
        <g id="LINE47" data-name="LINE">
          <line class="st4" x1="384.41" y1="317.33" x2="405.17" y2="270.52"/>
        </g>
        <g id="LINE48" data-name="LINE">
          <line class="st4" x1="405.9" y1="268.89" x2="406.61" y2="267.28"/>
        </g>
        <g id="LINE49" data-name="LINE">
          <line class="st4" x1="382.12" y1="331.83" x2="382.12" y2="331.83"/>
        </g>
        <g id="LINE50" data-name="LINE">
          <line class="st4" x1="382.12" y1="331.83" x2="382.08" y2="331.9"/>
        </g>
        <g id="LINE51" data-name="LINE">
          <line class="st4" x1="381.43" y1="333.05" x2="381.43" y2="333.04"/>
        </g>
        <g id="LINE52" data-name="LINE">
          <line class="st4" x1="380.02" y1="335.27" x2="381.43" y2="333.05"/>
        </g>
        <g id="LINE53" data-name="LINE">
          <line class="st4" x1="393.43" y1="275.91" x2="393.43" y2="275.92"/>
        </g>
        <g id="LWPOLYLINE6" data-name="LWPOLYLINE">
          <polyline class="st4" points="393.43 275.92 392.8 276.85 391.35 278.81 389.92 280.43 388.56 281.57 387.49 282.02 386.83 281.9 386.07 281.11 385.31 279.55 384.68 277.21 384.26 274.41 384.08 271.34 384.1 268.09 384.32 264.62 384.76 260.91 385.43 256.94 386.01 254.17"/>
        </g>
        <g id="LINE54" data-name="LINE">
          <line class="st4" x1="361.8" y1="360.64" x2="363.24" y2="358.84"/>
        </g>
        <g id="ARC">
          <path class="st4" d="M50.09,166.85c-.29.62-.07,1.36.51,1.72"/>
        </g>
        <g id="ARC1" data-name="ARC">
          <path class="st4" d="M113.21,146.55c-.81-.5-1.63-.99-2.46-1.46"/>
        </g>
        <g id="ARC2" data-name="ARC">
          <path class="st4" d="M110.76,145.1c-.32-.18-.64-.36-.96-.53"/>
        </g>
        <g id="ARC3" data-name="ARC">
          <path class="st4" d="M129.33,86.1c-2.43-1.51-5.62-.76-7.13,1.66"/>
        </g>
        <g id="ARC4" data-name="ARC">
          <path class="st4" d="M136.42,97.93c-.49-.3-1.11-.26-1.56.1"/>
        </g>
        <g id="ARC5" data-name="ARC">
          <path class="st4" d="M115.73,85.07c-.57-.36-1.32-.24-1.75.28"/>
        </g>
        <g id="ARC6" data-name="ARC">
          <path class="st4" d="M126.96,89.93c-.32-.2-.73-.1-.93.22"/>
        </g>
        <g id="ARC7" data-name="ARC">
          <path class="st4" d="M363.24,358.84c5.99-7.57,11.59-15.43,16.78-23.57"/>
        </g>
        <g id="ARC8" data-name="ARC">
          <path class="st4" d="M373.48,315.34c-.6-.83-1.21-1.66-1.84-2.47"/>
        </g>
        <g id="ARC9" data-name="ARC">
          <path class="st4" d="M359.44,300.32c-.35-.28-.7-.56-1.05-.84"/>
        </g>
        <g id="ARC10" data-name="ARC">
          <path class="st4" d="M356.53,298.07c-.51-.37-1.02-.74-1.54-1.1"/>
        </g>
        <g id="ARC11" data-name="ARC">
          <path class="st4" d="M358.39,299.48c-.61-.48-1.23-.95-1.86-1.41"/>
        </g>
        <g id="ARC12" data-name="ARC">
          <path class="st4" d="M354.99,296.97c-.22-.15-.44-.31-.67-.46"/>
        </g>
        <g id="ARC13" data-name="ARC">
          <path class="st4" d="M354.04,296.32c-.65-.44-1.31-.86-1.98-1.28"/>
        </g>
        <g id="ARC14" data-name="ARC">
          <path class="st4" d="M354.23,296.45c-.06-.04-.13-.09-.19-.13"/>
        </g>
        <g id="ARC15" data-name="ARC">
          <path class="st4" d="M64.94,139c-5.12,8.44-9.79,17.13-14.01,26.05"/>
        </g>
        <g id="ARC16" data-name="ARC">
          <path class="st4" d="M250.44,170.26c.31-.62.1-1.38-.49-1.75"/>
        </g>
        <g id="ARC17" data-name="ARC">
          <path class="st4" d="M360.14,361c.57.29,1.26.14,1.66-.35"/>
        </g>
        <g id="ARC18" data-name="ARC">
          <path class="st4" d="M400.81,260.97c1.51-2.43.76-5.62-1.66-7.13"/>
        </g>
        <g id="ARC19" data-name="ARC">
          <path class="st4" d="M386.01,254.17c.13-.56-.12-1.14-.6-1.44"/>
        </g>
        <g id="ARC20" data-name="ARC">
          <path class="st4" d="M406.61,267.28c.27-.62.05-1.34-.52-1.69h0s-134.22-83.44-134.22-83.44"/>
        </g>
        <g id="LINE55" data-name="LINE">
          <line class="st4" x1="354.38" y1="355.99" x2="356.53" y2="357.33"/>
        </g>
        <g id="LINE56" data-name="LINE">
          <line class="st4" x1="356.53" y1="357.33" x2="356.74" y2="357.46"/>
        </g>
        <g id="LINE57" data-name="LINE">
          <line class="st4" x1="356.74" y1="357.46" x2="357.38" y2="357.86"/>
        </g>
        <g id="LINE58" data-name="LINE">
          <line class="st4" x1="357.38" y1="357.86" x2="358.19" y2="358.37"/>
        </g>
        <g id="LINE59" data-name="LINE">
          <line class="st4" x1="54.12" y1="169.33" x2="54.39" y2="169.49"/>
        </g>
        <g id="LINE60" data-name="LINE">
          <line class="st4" x1="54.39" y1="169.49" x2="54.54" y2="169.58"/>
        </g>
        <g id="LINE61" data-name="LINE">
          <line class="st4" x1="54.54" y1="169.58" x2="55.15" y2="169.96"/>
        </g>
        <g id="LINE62" data-name="LINE">
          <line class="st4" x1="55.15" y1="169.96" x2="55.54" y2="170.2"/>
        </g>
        <g id="LINE63" data-name="LINE">
          <line class="st4" x1="55.54" y1="170.2" x2="56.11" y2="170.56"/>
        </g>
        <g id="SPLINE">
          <path class="st4" d="M56.11,170.56c1.95,1.2,3.89,2.41,5.83,3.61,8.2,5.09,16.4,10.19,24.6,15.28"/>
        </g>
        <g id="LINE64" data-name="LINE">
          <line class="st4" x1="354.23" y1="296.45" x2="354.32" y2="296.51"/>
        </g>
        <g id="SPLINE1" data-name="SPLINE">
          <path class="st4" d="M66.88,135.94c-.05.06-.08.14-.08.22s.03.16.07.22"/>
        </g>
        <g id="SPLINE2" data-name="SPLINE">
          <path class="st4" d="M382.08,331.9c-.03.07-.09.13-.16.17s-.15.05-.23.03"/>
        </g>
        <g id="SPLINE3" data-name="SPLINE">
          <path class="st4" d="M400.45,263.62c-1.1,2.12-2.23,4.22-3.4,6.3s-2.33,4.04-3.61,5.99"/>
        </g>
        <g id="SPLINE4" data-name="SPLINE">
          <path class="st4" d="M112.23,100.71c1.15-1.97,2.4-3.88,3.69-5.76,1.32-1.92,2.68-3.82,4.06-5.7"/>
        </g>
        <g id="SPLINE5" data-name="SPLINE">
          <path class="st4" d="M119.62,87.48c.21.13.38.33.47.56s.12.51.07.76"/>
        </g>
        <g id="SPLINE6" data-name="SPLINE">
          <path class="st4" d="M120.16,88.81c-.03.16-.09.31-.17.45"/>
        </g>
        <g id="SPLINE7" data-name="SPLINE">
          <path class="st4" d="M402.2,263.16c-.27-.17-.62-.21-.94-.13-.34.08-.63.31-.81.59"/>
        </g>
        <g id="SPLINE8" data-name="SPLINE">
          <path class="st4" d="M359.44,300.32c.44.36.88.73,1.31,1.1,1.28,1.09,2.52,2.23,3.72,3.4"/>
        </g>
        <g id="SPLINE9" data-name="SPLINE">
          <path class="st4" d="M364.47,304.82c.67.66,1.33,1.33,1.98,2.01,1.83,1.93,3.56,3.95,5.19,6.05"/>
        </g>
        <g id="SPLINE10" data-name="SPLINE">
          <path class="st4" d="M373.48,315.34c1.18,1.65,2.31,3.34,3.36,5.07.89,1.45,1.72,2.93,2.49,4.45.32.63.63,1.27.92,1.92.25.55.48,1.11.69,1.67.17.46.34.93.47,1.4.11.36.2.73.25,1.11"/>
        </g>
        <g id="SPLINE11" data-name="SPLINE">
          <path class="st4" d="M381.67,330.95c.01.09.02.18.03.27.02.21.01.43-.04.63"/>
        </g>
        <g id="LINE65" data-name="LINE">
          <line class="st4" x1="66.93" y1="135.88" x2="71.53" y2="130.13"/>
        </g>
        <g id="LWPOLYLINE7" data-name="LWPOLYLINE">
          <polyline class="st4" points="113.98 85.35 102.59 99.02 90.14 113.95 78.91 127.42"/>
        </g>
        <g id="LINE66" data-name="LINE">
          <line class="st4" x1="72.86" y1="128.94" x2="71.53" y2="130.13"/>
        </g>
        <g id="LINE67" data-name="LINE">
          <line class="st4" x1="74.48" y1="128.19" x2="72.86" y2="128.94"/>
        </g>
        <g id="LWPOLYLINE8" data-name="LWPOLYLINE">
          <polyline class="st4" points="78.18 127.46 76.19 127.75 74.48 128.19"/>
        </g>
        <g id="LINE68" data-name="LINE">
          <line class="st4" x1="86.8" y1="127.41" x2="83.45" y2="127.27"/>
        </g>
        <g id="LINE69" data-name="LINE">
          <line class="st4" x1="90.63" y1="127.77" x2="86.78" y2="127.41"/>
        </g>
        <g id="LWPOLYLINE9" data-name="LWPOLYLINE">
          <polyline class="st4" points="104.75 130.87 99.66 129.42 94.91 128.41 90.61 127.77"/>
        </g>
        <g id="LINE70" data-name="LINE">
          <line class="st4" x1="104.75" y1="130.87" x2="104.73" y2="130.87"/>
        </g>
        <g id="LINE71" data-name="LINE">
          <line class="st4" x1="357.44" y1="285.74" x2="119.18" y2="137.62"/>
        </g>
        <g id="LINE72" data-name="LINE">
          <line class="st4" x1="80.58" y1="127.29" x2="78.18" y2="127.46"/>
        </g>
        <g id="LINE73" data-name="LINE">
          <line class="st4" x1="83.45" y1="127.27" x2="80.58" y2="127.29"/>
        </g>
        <g id="LINE74" data-name="LINE">
          <line class="st4" x1="369.79" y1="295.62" x2="369.73" y2="295.56"/>
        </g>
        <g id="LINE75" data-name="LINE">
          <line class="st4" x1="373.43" y1="299.62" x2="369.79" y2="295.62"/>
        </g>
        <g id="LWPOLYLINE10" data-name="LWPOLYLINE">
          <polyline class="st4" points="378.91 307.01 376.43 303.43 373.43 299.62"/>
        </g>
        <g id="LWPOLYLINE11" data-name="LWPOLYLINE">
          <polyline class="st4" points="383.78 315.79 382.53 313.21 380.93 310.28 378.91 307.01"/>
        </g>
        <g id="LINE76" data-name="LINE">
          <line class="st4" x1="384.69" y1="318.02" x2="384.63" y2="317.87"/>
        </g>
        <g id="LINE77" data-name="LINE">
          <line class="st4" x1="384.69" y1="318.02" x2="383.78" y2="315.79"/>
        </g>
        <g id="LINE78" data-name="LINE">
          <line class="st4" x1="385.31" y1="319.93" x2="384.69" y2="318.02"/>
        </g>
        <g id="LINE79" data-name="LINE">
          <line class="st4" x1="385.68" y1="321.66" x2="385.31" y2="319.93"/>
        </g>
        <g id="LINE80" data-name="LINE">
          <line class="st4" x1="385.24" y1="325.16" x2="385.72" y2="323.45"/>
        </g>
        <g id="LWPOLYLINE12" data-name="LWPOLYLINE">
          <polyline class="st4" points="385.24 325.16 385.71 323.45 385.68 321.66"/>
        </g>
        <g id="LINE81" data-name="LINE">
          <line class="st4" x1="399.38" y1="283.58" x2="405.9" y2="268.89"/>
        </g>
        <g id="LINE82" data-name="LINE">
          <line class="st4" x1="405.9" y1="268.89" x2="406.61" y2="267.28"/>
        </g>
        <g id="LINE83" data-name="LINE">
          <line class="st4" x1="385.24" y1="325.16" x2="382.12" y2="331.83"/>
        </g>
        <g id="SPLINE12" data-name="SPLINE">
          <path class="st4" d="M369.73,295.56c-.87-.89-1.77-1.75-2.7-2.59-2.88-2.62-6-4.99-9.3-7.04"/>
        </g>
        <g id="SPLINE13" data-name="SPLINE">
          <path class="st4" d="M118.88,137.43c-1.13-.7-2.28-1.37-3.46-2-3.41-1.83-7-3.35-10.68-4.56"/>
        </g>
        <g id="LINE84" data-name="LINE">
          <line class="st4" x1="357.74" y1="285.93" x2="357.44" y2="285.74"/>
        </g>
        <g id="LINE85" data-name="LINE">
          <line class="st4" x1="119.18" y1="137.62" x2="118.88" y2="137.43"/>
        </g>
      </g>
      <g id="LINE86" data-name="LINE">
        <path class="st6" d="M385.72,323.45l-.47,1.72s-3.12,6.67-3.12,6.67h0s-.04.07-.04.07c-.03.07-.09.13-.16.17s-.15.05-.23.03h-.01s.01.13.01.13c0,0-.26.8-.26.8,0,0,0,0,0,0,0,0-1.41,2.23-1.41,2.23-5.2,8.13-10.8,16-16.78,23.57l-1.44,1.8s0,.01,0,.01c-.4.49-1.09.64-1.66.35,0,0-.1-.06-.1-.06L50.59,168.56h0c-.58-.36-.8-1.09-.51-1.71,0,0,.84-1.79.84-1.79,4.22-8.92,8.9-17.61,14.01-26.05,0,0,1.2-1.97,1.2-1.97h0s.64-.61.64-.61l.08-.04c-.05-.06-.07-.14-.07-.22s.03-.16.08-.22c0,0,.05-.07.05-.07h0s4.6-5.75,4.6-5.75c0,0,1.33-1.18,1.33-1.18l1.62-.76s1.71-.44,1.71-.44l1.99-.29.73-.05h0s11.23-13.46,11.23-13.46l12.45-14.94s11.39-13.67,11.39-13.67h0s0,0,0,0c.43-.52,1.18-.64,1.75-.28,0,0,5.88,3.66,5.88,3.66l.6-.96c1.51-2.43,4.7-3.17,7.13-1.66,0,0,269.81,167.74,269.81,167.74,2.43,1.51,3.17,4.7,1.66,7.13l-.59.96,5.88,3.66h0c.57.36.79,1.08.52,1.69l-.71,1.61.71-1.61h0s-.71,1.61-.71,1.61l-21.49,48.44.29.7.62,1.91h0s.36,1.73.36,1.73h0s.04,1.78.04,1.78l-.47,1.72"/>
      </g>
      <g>
        <g>
          <g id="ARC21" data-name="ARC">
            <path class="st5" d="M346.86,106.23c.02-.14.03-.28.05-.42"/>
          </g>
          <g id="ARC22" data-name="ARC">
            <path class="st5" d="M334.05,137.07c2.86-7.87,5-15.98,6.38-24.24"/>
          </g>
          <g id="ARC23" data-name="ARC">
            <path class="st5" d="M321.79,132.6c2.54-6.98,4.45-14.16,5.7-21.48"/>
          </g>
          <g id="ARC24" data-name="ARC">
            <path class="st5" d="M327.29,111.88c3.71,2.88,8.68,3.54,13.02,1.74"/>
          </g>
          <g id="ARC25" data-name="ARC">
            <path class="st5" d="M321.79,132.6c-1.23,3.39.51,7.13,3.9,8.36s7.13-.51,8.36-3.9"/>
          </g>
          <g id="SPLINE14" data-name="SPLINE">
            <path class="st5" d="M339.19,138.73c-.53,1.45-1.35,2.81-2.4,3.96s-2.34,2.1-3.76,2.77-2.97,1.04-4.53,1.11-3.14-.18-4.61-.71-2.83-1.36-3.98-2.42-2.09-2.34-2.75-3.76c-.66-1.42-1.03-2.98-1.1-4.55s.18-3.11.71-4.55"/>
          </g>
          <g id="SPLINE15" data-name="SPLINE">
            <path class="st5" d="M346.86,106.23c-.63,5.53-1.59,11.03-2.87,16.45-1.28,5.44-2.89,10.81-4.8,16.06"/>
          </g>
          <g id="SPLINE16" data-name="SPLINE">
            <path class="st5" d="M316.78,130.58c.8-2.19,1.53-4.41,2.2-6.65,2-6.7,3.41-13.6,4.2-20.55"/>
          </g>
          <g id="LINE87" data-name="LINE">
            <line class="st5" x1="333.33" y1="105.65" x2="334.18" y2="105.96"/>
          </g>
          <g id="LINE88" data-name="LINE">
            <line class="st5" x1="330.91" y1="100.46" x2="334.72" y2="101.84"/>
          </g>
          <g id="LINE89" data-name="LINE">
            <line class="st5" x1="335.56" y1="102.15" x2="339.37" y2="103.54"/>
          </g>
          <g id="LINE90" data-name="LINE">
            <line class="st5" x1="339.68" y1="102.69" x2="335.87" y2="101.3"/>
          </g>
          <g id="LINE91" data-name="LINE">
            <line class="st5" x1="335.03" y1="101" x2="331.22" y2="99.61"/>
          </g>
          <g id="LINE92" data-name="LINE">
            <line class="st5" x1="337.26" y1="97.5" x2="336.41" y2="97.19"/>
          </g>
          <g id="LINE93" data-name="LINE">
            <line class="st5" x1="331.22" y1="99.61" x2="330.91" y2="100.46"/>
          </g>
          <g id="LINE94" data-name="LINE">
            <line class="st5" x1="336.41" y1="97.19" x2="335.03" y2="101"/>
          </g>
          <g id="LINE95" data-name="LINE">
            <line class="st5" x1="334.72" y1="101.84" x2="333.33" y2="105.65"/>
          </g>
          <g id="LINE96" data-name="LINE">
            <line class="st5" x1="334.18" y1="105.96" x2="335.56" y2="102.15"/>
          </g>
          <g id="LINE97" data-name="LINE">
            <line class="st5" x1="335.87" y1="101.3" x2="337.26" y2="97.5"/>
          </g>
          <g id="LINE98" data-name="LINE">
            <line class="st5" x1="339.37" y1="103.54" x2="339.68" y2="102.69"/>
          </g>
          <g id="CIRCLE">
            <circle class="st5" cx="335.29" cy="101.57" r="12.37"/>
          </g>
        </g>
        <g id="ARC26" data-name="ARC">
          <path class="st5" d="M378.17,174.19l-179.65-65.39c-8.42-3.07-13.73-11.4-12.95-20.33,0,0,.69-7.93.69-7.93.02-.18.06-.35.12-.52,0,0,11.7-28.96,11.7-28.96.27-.68.94-1.13,1.67-1.13h192.05c.85,0,1.59.6,1.76,1.44,6.73,32.66,4.86,66.51-5.45,98.22,0,0-7.62,23.45-7.62,23.45,0,.02-.01.04-.02.06-.34.93-1.37,1.42-2.31,1.08Z"/>
        </g>
        <line class="st5" x1="354.2" y1="225.91" x2="174.96" y2="114.41"/>
        <polyline class="st5" points="174.53 112.55 180.06 102.66 362.49 216.15"/>
        <line class="st5" x1="324.4" y1="187.05" x2="325.31" y2="187.62"/>
        <line class="st5" x1="298.53" y1="170.96" x2="299.44" y2="171.53"/>
        <line class="st5" x1="298.96" y1="172.82" x2="297.36" y2="171.82"/>
        <line class="st5" x1="325.06" y1="189.05" x2="323.45" y2="188.05"/>
        <line class="st5" x1="214.08" y1="123.82" x2="222.23" y2="117.44"/>
        <line class="st5" x1="296.67" y1="168.85" x2="304.5" y2="156.26"/>
        <line class="st5" x1="305.64" y1="156.97" x2="298.1" y2="169.1"/>
        <line class="st5" x1="309.76" y1="159.53" x2="306.2" y2="165.26"/>
        <line class="st5" x1="301.3" y1="171.1" x2="308.85" y2="158.97"/>
        <line class="st5" x1="306.2" y1="165.26" x2="301.93" y2="172.12"/>
        <polyline class="st5" points="330.59 172.49 327.03 178.22 322.76 185.08"/>
        <line class="st5" x1="331.51" y1="173.06" x2="323.96" y2="185.19"/>
        <line class="st5" x1="327.17" y1="187.19" x2="334.71" y2="175.06"/>
        <line class="st5" x1="335.86" y1="175.77" x2="328.03" y2="188.36"/>
        <line class="st5" x1="356.05" y1="225.48" x2="362.49" y2="216.15"/>
        <line class="st5" x1="351.96" y1="209.6" x2="365" y2="186.59"/>
        <polyline class="st5" points="174.53 112.55 174.25 113.01 174.42 113.75 174.51 114.13 174.96 114.41"/>
        <polyline class="st5" points="365 186.59 368.96 179.21 372.45 172.11"/>
        <polyline class="st5" points="335.86 175.77 338.19 171.51 340.53 167.24 342.63 162.84 343.28 161.49"/>
        <polyline class="st5" points="330.59 172.49 333.36 167.54 335.75 162.68 337.38 159.35"/>
        <polyline class="st5" points="309.76 159.53 312.04 155.87 314.09 152.07 314.56 151.04"/>
        <polyline class="st5" points="304.5 156.26 307.4 151.08 308.64 148.88"/>
        <polyline class="st5" points="354.2 225.91 354.65 226.19 355.02 226.11 355.77 225.93 356.05 225.48"/>
        <polyline class="st5" points="297.36 171.82 296.82 171.16 296.5 170.65 296.47 169.68 296.67 168.85"/>
        <polyline class="st5" points="301.93 172.12 301.51 172.81 300.62 173.21 299.79 173.01 298.96 172.82"/>
        <polyline class="st5" points="323.45 188.05 322.91 187.4 322.37 186.74 322.34 185.77 322.76 185.08"/>
        <polyline class="st5" points="328.03 188.36 327.37 188.9 326.49 189.3 325.89 189.25 325.06 189.05"/>
        <polyline class="st5" points="325.31 187.62 325.77 187.91 326.37 187.96 326.88 187.65 327.17 187.19"/>
        <polyline class="st5" points="323.96 185.19 323.68 185.65 323.62 186.25 323.94 186.77 324.4 187.05"/>
        <polyline class="st5" points="298.1 169.1 297.81 169.56 297.76 170.16 298.07 170.68 298.53 170.96"/>
        <polyline class="st5" points="299.44 171.53 299.9 171.81 300.5 171.87 301.02 171.55 301.3 171.1"/>
        <polyline class="st5" points="305.64 156.97 308.69 151.56 309.93 149.36"/>
        <polyline class="st5" points="334.71 175.06 337.28 170.94 339.61 166.67 341.72 162.27 342.26 161.12"/>
        <polyline class="st5" points="331.51 173.06 334.5 168.26 337.12 163.54 338.9 159.9"/>
        <polyline class="st5" points="308.85 158.97 310.9 155.16 312.8 151.58 313.33 150.59"/>
      </g>
      <path class="st3" d="M393.57,51.38c-.17-.84-.91-1.44-1.76-1.44h-192.05c-.73,0-1.39.45-1.67,1.13l-11.7,28.96c-.07.17-.11.34-.12.52l-.69,7.93c-.78,8.93,4.53,17.27,12.95,20.33l23.71,8.63-8.15,6.38-34.02-21.17-5.52,9.9-.28.46.17.74.09.37.46.28s179.23,111.5,179.23,111.5c0,0,.46.28.46.28l.37-.09.74-.17.28-.46,6.44-9.33-10.53-6.55,13.04-23,3.96-7.38,3.49-7.1,5.72,2.08c.93.34,1.97-.14,2.31-1.08,0-.02.01-.04.02-.06l7.62-23.45c10.3-31.71,12.18-65.56,5.45-98.22Z"/>
    </g>
  </g>
</svg>