<svg xmlns="http://www.w3.org/2000/svg" width="150" height="400" fill="none" viewBox="0 0 150 400"><path fill="#fff" d="M150 0H0v400h150z"/><path stroke="#231815" stroke-linecap="round" stroke-linejoin="round" stroke-width=".5" d="M108.769 316.28H96.487M96.487 314.71h12.282M109.086 302.438h1.578M109.086 299.291h1.578M110.663 274.115h-4.255M110.67 110.487l-.018.018M110.67 241.558l-.018-.018M96.487 314.71v1.57M104.336 115.943v-4.546M104.364 34.187v-1.57M105.147 272.86V51.965"/><path stroke="#c9caca" stroke-linecap="round" stroke-linejoin="round" stroke-width=".5" d="M108.769 274.115V50.705"/><path stroke="#231815" stroke-linecap="round" stroke-linejoin="round" stroke-width=".5" d="M109.086 314.393v-40.278M109.086 50.705V34.504M110.664 314.393V34.503M111.136 56.372v1.26M111.136 188.53v1.259M111.136 292.37v1.254M110.67 241.54l-.018.018M110.67 110.505l-.018-.018M105.147 111.397h-.811M110.663 50.705h-4.255M104.364 34.187h4.405M104.364 32.617h4.405M110.664 191.205c.305-.411.472-.905.472-1.416M111.136 188.53a2.36 2.36 0 0 0-.472-1.416M111.136 292.37c0-.511-.167-1.01-.472-1.416M110.664 295.039c.305-.41.472-.904.472-1.415M110.664 59.047c.305-.41.472-.905.472-1.415M111.136 56.372c0-.51-.167-1.01-.472-1.416M108.769 316.28a1.886 1.886 0 0 0 1.889-1.887M110.664 34.504a1.887 1.887 0 0 0-1.889-1.887M104.336 115.943c0 .572.312 1.099.811 1.376M105.147 272.861c0 .693.567 1.259 1.261 1.259M106.408 50.705c-.694 0-1.261.566-1.261 1.26M108.769 314.71a.317.317 0 0 0 .317-.317M109.086 34.504a.317.317 0 0 0-.317-.317"/><path stroke="#000" stroke-linecap="round" stroke-linejoin="round" stroke-width=".5" d="M111.136 15v325.252M106.197 318.578h-6.205"/><path stroke="#b3b3b3" stroke-linecap="round" stroke-linejoin="round" stroke-width=".25" d="M106.197 317.707h-6.205"/><path stroke="#000" stroke-linecap="round" stroke-linejoin="round" stroke-width=".5" d="M100.22 314.249h5.083M101.542 314.021h3.105M101.542 314.021v-.449M101.714 314.249v-.233M104.475 314.249v-.233M104.647 314.021v-.466M105.303 314.71v-.461M99.648 318.234c0 .189.155.344.344.344M106.203 318.578a.345.345 0 0 0 .344-.344M99.648 318.234v-1.954M100.22 314.71v-.461M106.547 318.234v-1.954M101.375 308.349v5.201h3.445v-5.201"/><path stroke="#000" stroke-linecap="round" stroke-linejoin="round" stroke-width=".5" d="M101.375 308.355c.284-.722.95-1.227 1.723-1.227.772 0 1.438.505 1.722 1.227"/><path stroke="#999" stroke-linecap="round" stroke-linejoin="round" stroke-width=".5" d="M105.458 312.872c-.217.389-3.7-.038-4.483-.305M105.436 311.835c-.216.388-3.7-.039-4.483-.306M105.408 310.802c-.216.389-3.699-.039-4.483-.305M105.386 309.77c-.216.388-3.699-.039-4.483-.305M105.359 308.738c-.217.388-3.7-.039-4.484-.306"/><path fill="#fff" d="m91.542 316.53 16.633-3.591.827-283.198-21.893-7.714z"/><path stroke="#231815" stroke-linecap="round" stroke-linejoin="round" d="m108.169 312.939.834-283.198"/><path stroke="#231815" stroke-linecap="round" stroke-linejoin="round" stroke-width=".5" d="M77.277 19.696a.157.157 0 0 0-.183.122v.022"/><path stroke="#231815" stroke-linecap="round" stroke-linejoin="round" d="m60.706 318.578 11.815-.039 12.016-.954 9.81-1.477"/><path stroke="#9fa0a0" stroke-linecap="round" stroke-linejoin="round" stroke-width=".25" d="m60.65 316.613-.155-.011"/><path stroke="#231815" stroke-linecap="round" stroke-linejoin="round" stroke-width=".5" d="m108.175 312.939-3.883.999M104.292 313.938l.7-.172 3.183-.827M100.837 314.776l-.184.045M100.698 314.81l-.045.011"/><circle cx="39.49" cy="309.792" r=".139" fill="#231815"/><circle cx="60.194" cy="318.512" r=".139" fill="#231815"/><path stroke="#231815" stroke-linecap="round" stroke-linejoin="round" stroke-width=".5" d="M76.755 19.65v-.004M42.307 246.319l3.2-57.756M39.002 308.91v.005"/><path stroke="#231815" stroke-linecap="round" stroke-linejoin="round" d="M54.706 25.34 39.002 308.915M47.801 120.761l1.756-8.881M47.08 133.804l1.755-8.886M46.357 146.841l1.755-8.886M45.635 159.879l1.755-8.886M44.913 172.917l1.755-8.886"/><path stroke="#898989" stroke-linecap="round" stroke-linejoin="round" stroke-width=".5" d="M60.4 318.367 76.933 19.812M60.556 318.412 77.088 19.84"/><path stroke="#231815" stroke-linecap="round" stroke-linejoin="round" d="m46.496 173.544-1.15-.067M47.218 160.506l-1.15-.066"/><path stroke="#231815" stroke-linecap="round" stroke-linejoin="round" stroke-width=".5" d="M105.63 313.611v.005M100.653 314.821v-.017"/><path stroke="#231815" stroke-linecap="round" stroke-linejoin="round" d="m47.94 147.469-1.15-.067M48.662 134.425l-1.15-.061M49.384 121.388l-1.15-.061"/><path stroke="#231815" stroke-linecap="round" stroke-linejoin="round" stroke-width=".5" d="M100.653 314.821v-.017"/><circle cx="77.277" cy="19.695" r=".139" fill="#231815"/><circle cx="60.706" cy="318.578" r=".139" fill="#231815"/><circle cx="55.35" cy="24.497" r=".278" fill="#231815"/><path stroke="#898989" stroke-linecap="round" stroke-linejoin="round" stroke-width=".25" d="m76.993 21.6-.155-.006"/><path stroke="#231815" stroke-linecap="round" stroke-linejoin="round" stroke-width=".5" d="M42.307 246.319c-.011.194.028.383.117.555M39.002 308.91a.94.94 0 0 0 .494.882"/><path stroke="#231815" stroke-linecap="round" stroke-linejoin="round" d="M39.002 308.915a.95.95 0 0 0 .489.883M109.002 29.742A157.7 157.7 0 0 0 77.277 19.69"/><path stroke="#231815" stroke-linecap="round" stroke-linejoin="round" stroke-width=".5" d="M45.685 188.019a1.1 1.1 0 0 0-.178.538"/><path stroke="#231815" stroke-linecap="round" stroke-linejoin="round" d="M44.913 172.917a.474.474 0 0 0 .372.555c.022 0 .044.005.067.005"/><path stroke="#231815" stroke-linecap="round" stroke-linejoin="round" stroke-width=".5" d="M60.55 318.423c0 .083.067.15.15.155"/><path stroke="#231815" stroke-linecap="round" stroke-linejoin="round" stroke-width=".5" d="M60.556 318.412c0 .088.06.161.15.166M60.195 318.512a.154.154 0 0 0 .194-.106c0-.011.006-.022.006-.039"/><path stroke="#231815" stroke-linecap="round" stroke-linejoin="round" stroke-width=".5" d="M60.195 318.512a.154.154 0 0 0 .194-.106c0-.011.006-.022.006-.039M100.836 314.776a99 99 0 0 0 1.734-.399"/><path stroke="#231815" stroke-linecap="round" stroke-linejoin="round" d="M45.635 159.879a.474.474 0 0 0 .372.555c.022 0 .044.006.067.006M46.357 146.841a.473.473 0 0 0 .372.555c.022 0 .045.006.067.006M47.04 163.659a.47.47 0 0 0-.378.372M47.762 150.621a.47.47 0 0 0-.378.372M47.08 133.804a.474.474 0 0 0 .371.555c.023 0 .045.005.067.005M48.484 137.583a.48.48 0 0 0-.378.372M47.801 120.761a.474.474 0 0 0 .372.555c.023 0 .045.005.067.005M49.929 111.508a.475.475 0 0 0-.378.372M49.206 124.546a.47.47 0 0 0-.377.372M55.35 24.497a.94.94 0 0 0-.644.843"/><path stroke="#231815" stroke-linecap="round" stroke-linejoin="round" d="M55.35 24.497a.94.94 0 0 0-.644.843M103.77 314.077l.416-.1M104.181 313.971l.4-.099M95.748 315.842c.594-.117 1.194-.233 1.789-.355"/><path stroke="#231815" stroke-linecap="round" stroke-linejoin="round" stroke-width=".5" d="M102.57 314.36q.601-.14 1.194-.289"/><path stroke="#231815" stroke-linecap="round" stroke-linejoin="round" d="M102.57 314.377c.4-.095.8-.195 1.2-.289M97.537 315.492c1.038-.211 2.083-.433 3.116-.666M105.63 313.622c.85-.222 1.695-.45 2.545-.683"/><path stroke="#231815" stroke-linecap="round" stroke-linejoin="round" stroke-width=".5" d="M39.49 309.792a113.8 113.8 0 0 0 20.705 8.714"/><path stroke="#231815" stroke-linecap="round" stroke-linejoin="round" d="M39.49 309.792a110.8 110.8 0 0 0 20.705 8.72M76.755 19.651a114.5 114.5 0 0 0-21.404 4.846"/><path stroke="#231815" stroke-linecap="round" stroke-linejoin="round" stroke-width=".5" d="M76.933 19.812c0-.089-.062-.16-.15-.166h-.028"/><path stroke="#231815" stroke-linecap="round" stroke-linejoin="round" d="M104.581 313.877c.072-.017.15-.039.222-.055l.205-.05c.061-.017.123-.028.184-.045.05-.011.1-.028.155-.039l.122-.033a.14.14 0 0 0 .05-.011.1.1 0 0 0 .039-.011q.017.001.034-.006c.005 0 .016 0 .022-.005h.011M100.653 314.804h.039q.026-.002.05-.011c.022 0 .045-.011.067-.017l.083-.016c.034-.006.067-.017.1-.023.039-.011.078-.016.117-.027.044-.012.083-.023.128-.028l.294-.067c.111-.028.217-.05.328-.077l.355-.084.367-.083M94.348 316.108h.022c.011 0 .023 0 .028-.005q.024.001.039-.006.023-.001.056-.011a.3.3 0 0 0 .066-.011c.028 0 .05-.011.078-.017.028 0 .056-.011.089-.016.067-.011.133-.028.205-.039.078-.017.162-.028.24-.045l.271-.05c.1-.016.206-.038.306-.055"/><path fill="#231815" d="M99.331 327.958c-.544-.616-.839-1.332-.85-2.081-.044-2.165 2.278-3.969 5.178-4.03s5.294 1.649 5.338 3.813a3.1 3.1 0 0 1-.489 1.726l-.866-.538c.227-.372.338-.766.333-1.165-.033-1.599-1.961-2.864-4.294-2.814s-4.211 1.387-4.178 2.991c.011.505.217.999.595 1.427l-.767.677z"/><path fill="#231815" d="m109.475 327.853-3.111 1.604.511-3.458z"/><path stroke="#231815" stroke-miterlimit="10" stroke-width=".5" d="M104.825 358.868v-32.353l-1.017-2.292-1.1.028-1.177 2.264v32.353"/><path stroke="#231815" stroke-miterlimit="10" stroke-width=".25" d="m104.458 332.038-.877-2.792-.006-4.363.878 1.787zM101.986 332.038l.878-2.792.006-4.363-.878 1.787z"/><path fill="#fff" d="M107.519 357.796c.233 1.449-.978 1.971-4.35 1.971s-4.5-.511-4.35-1.971c.078-.765 1.945-1.548 4.35-1.548 2.406 0 4.228.783 4.35 1.548"/><path stroke="#231815" stroke-miterlimit="10" stroke-width=".5" d="M107.519 357.796c.233 1.449-.978 1.971-4.35 1.971s-4.5-.511-4.35-1.971c.078-.765 1.945-1.548 4.35-1.548 2.406 0 4.228.783 4.35 1.548Z"/><path stroke="#9fa0a0" stroke-miterlimit="10" stroke-width=".25" d="M99.18 358.44c0-.71 1.784-1.421 3.989-1.421s3.989.711 3.989 1.421"/><path fill="#fff" d="M106.819 359.55c0 .65-1.633 1.177-3.65 1.177s-3.65-.527-3.65-1.177c0-.649 1.634-1.176 3.65-1.176s3.65.527 3.65 1.176"/><path stroke="#231815" stroke-miterlimit="10" stroke-width=".5" d="M106.819 359.55c0 .65-1.633 1.177-3.65 1.177s-3.65-.527-3.65-1.177c0-.649 1.634-1.176 3.65-1.176s3.65.527 3.65 1.176Z"/><path fill="#fff" d="M98.825 361.604c0-.888.706-2.231 4.35-2.231s4.35 1.337 4.35 2.231v22.284c0 .772-1.95 1.399-4.35 1.399s-4.35-.627-4.35-1.399z"/><path stroke="#231815" stroke-miterlimit="10" stroke-width=".5" d="M98.825 361.604c0-.888.706-2.231 4.35-2.231s4.35 1.337 4.35 2.231v22.284c0 .772-1.95 1.399-4.35 1.399s-4.35-.627-4.35-1.399z"/><path stroke="#9fa0a0" stroke-miterlimit="10" stroke-width=".25" d="M103.864 380.175a.695.695 0 0 1-1.389 0v-18.432a.694.694 0 0 1 1.389 0M106.43 380.58a.694.694 0 0 1-1.388 0v-18.432a.694.694 0 0 1 1.388 0M101.303 380.58a.695.695 0 0 1-1.389 0v-18.432a.694.694 0 0 1 1.389 0"/></svg>