<svg width="181" height="168" viewBox="0 0 181 168" fill="none" xmlns="http://www.w3.org/2000/svg">
<g clip-path="url(#clip0_923_9592)">
<path d="M180.7 0H0V167.72H180.7V0Z" fill="white"/>
<path d="M121.49 117.99C121.49 122.9 117.51 127.45 112.64 128.1L95.4 130.41C90.53 131.06 86.56 127.58 86.57 122.66L86.84 28.07C86.85 23.16 90.88 19.29 95.79 19.47L112.57 20.09C117.48 20.27 121.49 24.44 121.49 29.35V117.99Z" fill="white"/>
<path d="M121.49 117.99C121.49 122.9 117.51 127.45 112.64 128.1L95.4 130.41C90.53 131.06 86.56 127.58 86.57 122.66L86.84 28.07C86.85 23.16 90.88 19.29 95.79 19.47L112.57 20.09C117.48 20.27 121.49 24.44 121.49 29.35V117.99Z" stroke="black" stroke-miterlimit="10"/>
<path d="M121.49 118.71C121.49 122.45 118.46 125.93 114.75 126.45L97.54 128.83C93.83 129.34 90.81 126.7 90.82 122.96L91.06 27.23C91.06 23.49 94.14 20.55 97.87 20.7L114.68 21.38C118.42 21.53 121.48 24.72 121.48 28.46V118.71H121.49Z" stroke="black" stroke-width="0.5" stroke-miterlimit="10"/>
<path d="M88.74 47.41H88.36C88.0894 47.41 87.87 47.6294 87.87 47.9V60.46C87.87 60.7307 88.0894 60.95 88.36 60.95H88.74C89.0106 60.95 89.23 60.7307 89.23 60.46V47.9C89.23 47.6294 89.0106 47.41 88.74 47.41Z" stroke="black" stroke-width="0.25" stroke-miterlimit="10"/>
<path d="M88.83 47.41C89.31 47.41 89.71 47.77 89.71 48.2V60.16C89.71 60.59 89.32 60.95 88.83 60.95" stroke="black" stroke-width="0.25" stroke-miterlimit="10" stroke-linecap="round"/>
<path d="M102.55 46.17L95.9 46.2C94.2 46.2 92.8 44.83 92.8 43.14V25.95C92.8 24.26 94.2 22.91 95.9 22.95L102.55 23.1C104.22 23.14 105.58 24.53 105.58 26.19V43.14C105.58 44.81 104.22 46.17 102.55 46.18V46.17Z" stroke="black" stroke-width="0.5" stroke-miterlimit="10" stroke-linecap="round"/>
<path d="M98.24 46.19C95.71 46.19 93.63 45.39 93.63 42.85V26.39C93.63 23.86 95.7 22.98 98.24 22.98" stroke="black" stroke-width="0.5" stroke-miterlimit="10" stroke-linecap="round"/>
<path d="M96.68 33.41C98.2651 33.41 99.55 31.2565 99.55 28.6C99.55 25.9435 98.2651 23.79 96.68 23.79C95.0949 23.79 93.81 25.9435 93.81 28.6C93.81 31.2565 95.0949 33.41 96.68 33.41Z" fill="black" stroke="black" stroke-width="0.5" stroke-miterlimit="10"/>
<path d="M97.05 33.41C98.6351 33.41 99.92 31.2565 99.92 28.6C99.92 25.9435 98.6351 23.79 97.05 23.79C95.4649 23.79 94.18 25.9435 94.18 28.6C94.18 31.2565 95.4649 33.41 97.05 33.41Z" fill="white" stroke="black" stroke-width="0.25" stroke-miterlimit="10"/>
<path d="M97.05 32.35C98.2429 32.35 99.21 30.6711 99.21 28.6C99.21 26.529 98.2429 24.85 97.05 24.85C95.8571 24.85 94.89 26.529 94.89 28.6C94.89 30.6711 95.8571 32.35 97.05 32.35Z" stroke="black" stroke-width="0.25" stroke-miterlimit="10" stroke-linecap="round"/>
<path d="M96.68 45.1101C98.2651 45.1101 99.55 42.9565 99.55 40.3C99.55 37.6436 98.2651 35.4901 96.68 35.4901C95.0949 35.4901 93.81 37.6436 93.81 40.3C93.81 42.9565 95.0949 45.1101 96.68 45.1101Z" fill="black" stroke="black" stroke-width="0.5" stroke-miterlimit="10"/>
<path d="M97.05 45.1101C98.6351 45.1101 99.92 42.9565 99.92 40.3C99.92 37.6436 98.6351 35.4901 97.05 35.4901C95.4649 35.4901 94.18 37.6436 94.18 40.3C94.18 42.9565 95.4649 45.1101 97.05 45.1101Z" fill="white" stroke="black" stroke-width="0.25" stroke-miterlimit="10"/>
<path d="M97.05 44.05C98.2429 44.05 99.21 42.3711 99.21 40.3C99.21 38.229 98.2429 36.55 97.05 36.55C95.8571 36.55 94.89 38.229 94.89 40.3C94.89 42.3711 95.8571 44.05 97.05 44.05Z" stroke="black" stroke-width="0.25" stroke-miterlimit="10" stroke-linecap="round"/>
<path d="M102.64 39.16C104.159 39.16 105.39 37.096 105.39 34.55C105.39 32.004 104.159 29.94 102.64 29.94C101.121 29.94 99.89 32.004 99.89 34.55C99.89 37.096 101.121 39.16 102.64 39.16Z" fill="black" stroke="black" stroke-width="0.5" stroke-miterlimit="10"/>
<path d="M102.99 39.16C104.509 39.16 105.74 37.096 105.74 34.55C105.74 32.004 104.509 29.94 102.99 29.94C101.471 29.94 100.24 32.004 100.24 34.55C100.24 37.096 101.471 39.16 102.99 39.16Z" fill="white" stroke="black" stroke-width="0.25" stroke-miterlimit="10"/>
<path d="M102.99 38.14C104.133 38.14 105.06 36.5327 105.06 34.55C105.06 32.5673 104.133 30.96 102.99 30.96C101.847 30.96 100.92 32.5673 100.92 34.55C100.92 36.5327 101.847 38.14 102.99 38.14Z" stroke="black" stroke-width="0.25" stroke-miterlimit="10" stroke-linecap="round"/>
<path d="M86.83 30.44H91.06" stroke="black" stroke-miterlimit="10"/>
<path d="M86.58 120.37C86.58 120.37 88.14 120.67 90.83 120.56" stroke="black" stroke-miterlimit="10"/>
<path d="M166.03 126.6C163.73 125.45 154.7 116.3 153.81 114.95C152.92 113.6 150.16 97.67 150.23 95.94C150.3 94.21 150.42 92.29 150.42 91.16C150.42 90.03 148.5 87.62 148.05 86.79C147.6 85.96 146.8 84.01 146.8 84.01C145.84 79.47 144.21 76.49 142.83 75.66C141.45 74.83 140.69 73.39 140.08 71.99C139.47 70.59 136.3 63.79 135.89 62.74C135.48 61.69 133.46 59.83 132.75 59.12C132.04 58.41 130.06 55.22 129.33 54.77C128.6 54.32 128.18 54.1 125.87 53.27C123.57 52.44 121.49 52.34 121.49 52.34C121.49 52.34 121.48 62.75 121.49 63.3C121.5 63.95 123.41 64.02 123.41 64.02C123.67 64.98 124.82 65.81 125.04 66.45C125.26 67.09 125.46 67.67 125.68 68.85C125.9 70.03 126.13 71.15 126.67 72.51C127.21 73.87 127.9 74.58 127.9 74.58C127.31 75.12 126.58 80.57 126.69 81.98C126.8 83.39 125.99 85.48 122.79 87.31C119.59 89.14 117.84 88.78 117.84 88.78C105.23 85.68 98.91 83.32 98.91 83.32C95.38 82.19 91.16 79.28 91.16 79.28C88.2 77.96 83.12 77.07 83.12 77.07C81.39 77.14 80.11 77.03 80.11 77.03C72.68 77.52 76.03 85.45 76.03 85.45C76.71 86.25 77.55 87.53 77.55 87.53C82.7 93.19 89.87 95.11 89.87 95.11C92.08 95.17 96.14 97.61 96.14 97.61C98.18 100.01 101.5 102.07 101.5 102.07C102.34 103.35 105.55 105.09 105.55 105.09C107.5 110.93 111.25 115.46 111.25 115.46C114.21 120.05 117.78 122.82 117.78 122.82C121.78 128.25 129.35 131.16 129.35 131.16C129.35 131.16 138.2 143.1 141.84 153.05" fill="white"/>
<path d="M166.03 126.6C163.73 125.45 154.7 116.3 153.81 114.95C152.92 113.6 150.16 97.67 150.23 95.94C150.3 94.21 150.42 92.29 150.42 91.16C150.42 90.03 148.5 87.62 148.05 86.79C147.6 85.96 146.8 84.01 146.8 84.01C145.84 79.47 144.21 76.49 142.83 75.66C141.45 74.83 140.69 73.39 140.08 71.99C139.47 70.59 136.3 63.79 135.89 62.74C135.48 61.69 133.46 59.83 132.75 59.12C132.04 58.41 130.06 55.22 129.33 54.77C128.6 54.32 128.18 54.1 125.87 53.27C123.57 52.44 121.49 52.34 121.49 52.34C121.49 52.34 121.48 62.75 121.49 63.3C121.5 63.95 123.41 64.02 123.41 64.02C123.67 64.98 124.82 65.81 125.04 66.45C125.26 67.09 125.46 67.67 125.68 68.85C125.9 70.03 126.13 71.15 126.67 72.51C127.21 73.87 127.9 74.58 127.9 74.58C127.31 75.12 126.58 80.57 126.69 81.98C126.8 83.39 125.99 85.48 122.79 87.31C119.59 89.14 117.84 88.78 117.84 88.78C105.23 85.68 98.91 83.32 98.91 83.32C95.38 82.19 91.16 79.28 91.16 79.28C88.2 77.96 83.12 77.07 83.12 77.07C81.39 77.14 80.11 77.03 80.11 77.03C72.68 77.52 76.03 85.45 76.03 85.45C76.71 86.25 77.55 87.53 77.55 87.53C82.7 93.19 89.87 95.11 89.87 95.11C92.08 95.17 96.14 97.61 96.14 97.61C98.18 100.01 101.5 102.07 101.5 102.07C102.34 103.35 105.55 105.09 105.55 105.09C107.5 110.93 111.25 115.46 111.25 115.46C114.21 120.05 117.78 122.82 117.78 122.82C121.78 128.25 129.35 131.16 129.35 131.16C129.35 131.16 138.2 143.1 141.84 153.05" stroke="black" stroke-miterlimit="10" stroke-linecap="round"/>
<path d="M85.19 90.11C85.19 90.11 85.13 89.86 85.25 88.94C85.29 88.48 85.46 87.87 85.68 87.04C85.82 86.63 85.99 86.18 86.2 85.66C86.45 85.17 86.71 84.6 87.12 84.04C87.91 82.9 88.79 82.18 89.55 81.75C90.31 81.32 90.95 81.14 91.41 81.06C92.34 80.91 92.59 81.04 92.59 81.08C92.59 81.14 92.34 81.14 91.48 81.38C91.05 81.5 90.47 81.71 89.78 82.14C89.09 82.57 88.28 83.25 87.53 84.33C87.14 84.86 86.9 85.4 86.64 85.87C86.44 86.36 86.26 86.8 86.11 87.19C85.87 87.99 85.66 88.57 85.57 89.02C85.35 89.9 85.24 90.13 85.2 90.12L85.19 90.11Z" fill="#221E1F"/>
<path d="M76.62 85.06C76.62 85.06 76.84 85.09 77.48 85.39C78.11 85.69 79.18 86.23 80.93 87.17L80.59 87.34C80.72 86.14 81.04 84.64 81.9 82.98C82.94 81.03 84.2 79.83 85.31 79.09L85.34 79.48C83.76 78.81 82.8 78.38 82.25 78.11C81.7 77.84 81.54 77.73 81.55 77.7C81.56 77.67 81.75 77.7 82.34 77.89C82.93 78.08 83.91 78.44 85.51 79.07L85.89 79.22L85.54 79.46C84.54 80.16 83.33 81.35 82.34 83.2C81.51 84.79 81.2 86.23 81.04 87.39L80.99 87.73L80.7 87.57C78.98 86.6 77.95 85.99 77.35 85.61C76.75 85.23 76.6 85.1 76.61 85.06H76.62Z" fill="#221E1F"/>
<path d="M87.95 91.79C87.95 91.79 87.85 91.6 87.82 90.86C87.84 90.13 87.82 88.79 88.72 86.75C89.68 84.74 90.78 83.91 91.36 83.47C91.98 83.05 92.2 83.03 92.22 83.07C92.25 83.12 92.09 83.24 91.56 83.72C91.06 84.22 90.08 85.06 89.18 86.96C88.34 88.89 88.27 90.17 88.15 90.88C88.08 91.6 88.01 91.79 87.96 91.79H87.95Z" fill="#221E1F"/>
<path d="M119.78 89.97C119.78 89.97 119.99 89.84 120.78 89.7C121.55 89.48 122.96 89.23 124.99 87.98C127 86.71 127.97 85.66 128.56 85.11C129.14 84.54 129.3 84.4 129.34 84.43C129.38 84.46 129.31 84.68 128.79 85.33C128.26 85.95 127.32 87.09 125.24 88.41C123.14 89.71 121.62 89.9 120.82 90.02C119.99 90.06 119.77 90.02 119.77 89.98L119.78 89.97Z" fill="#221E1F"/>
<path d="M135.57 72.91C135.56 72.84 135.94 72.57 137.9 72.84C139.85 73.15 140.15 73.43 140.13 73.51C140.11 73.62 139.74 73.64 137.83 73.33C135.92 73.06 135.58 73.02 135.57 72.9V72.91Z" fill="#221E1F"/>
<path d="M124.51 63.4401C124.51 63.4401 124.43 63.2901 124.47 62.7701C124.56 62.2801 124.71 61.2901 125.74 60.0901C126.81 58.9301 127.75 58.6401 128.24 58.4901C128.75 58.3601 128.9 58.4101 128.91 58.4501C128.92 58.5001 128.8 58.5701 128.35 58.7901C127.92 59.0301 127.09 59.3701 126.11 60.4201C125.17 61.5101 124.96 62.3901 124.78 62.8401C124.64 63.3201 124.55 63.4401 124.5 63.4301L124.51 63.4401Z" fill="#221E1F"/>
<path d="M124.56 55.49C124.56 55.49 124.5 55.69 124.08 56.11C123.74 56.57 122.96 57.39 122.87 59.16C122.84 60.04 122.97 60.74 123.09 61.28C123.21 61.83 123.34 62.22 123.43 62.52C123.61 63.1 123.65 63.27 123.6 63.29C123.56 63.31 123.41 63.2 123.13 62.64C122.99 62.36 122.82 61.96 122.66 61.4C122.5 60.84 122.34 60.1 122.37 59.15C122.4 58.2 122.7 57.46 122.99 56.94C123.29 56.41 123.63 56.12 123.85 55.89C124.37 55.52 124.53 55.46 124.56 55.5V55.49Z" fill="#221E1F"/>
<path d="M146.74 89C146.64 89 146.49 88.45 146.32 85.35C146.12 82.25 146.17 81.69 146.27 81.68C146.36 81.67 146.61 82.21 146.81 85.32C146.99 88.44 146.82 89 146.74 89Z" fill="#221E1F"/>
<path d="M149.12 98.61C149.12 98.61 148.99 98.43 148.95 97.73C148.9 97.03 148.89 95.81 148.98 93.74C149.07 91.68 149.18 90.46 149.27 89.77C149.36 89.07 149.43 88.89 149.48 88.9C149.58 88.9 149.67 89.65 149.48 93.77C149.3 97.89 149.23 98.61 149.12 98.62V98.61Z" fill="#221E1F"/>
<path d="M106.67 85.6C106.67 85.6 106.9 85.56 107.67 85.8C108.43 86.04 109.73 86.53 111.86 87.52C113.99 88.51 115.2 89.18 115.89 89.58C116.58 89.98 116.73 90.14 116.71 90.18C116.66 90.28 115.87 89.98 111.65 87.98C107.41 86.02 106.64 85.72 106.68 85.6H106.67Z" fill="#221E1F"/>
<path d="M121.49 69.8701L126.13 70.9001" stroke="black" stroke-width="0.5" stroke-miterlimit="10" stroke-linecap="round"/>
<path d="M121.49 82.73C121.49 82.73 122.17 82.63 123.52 82.79C124.87 82.95 125.71 83.01 125.71 83.01L126.46 83.48" stroke="black" stroke-width="0.5" stroke-miterlimit="10" stroke-linecap="round"/>
<path d="M48.83 101.74V101.71V101.69C48.83 101.69 48.83 101.68 48.83 101.67V101.66C48.83 101.66 48.83 101.66 48.83 101.65C48.83 101.65 48.83 101.65 48.83 101.64C48.83 101.64 48.83 101.63 48.83 101.62C48.83 101.62 48.83 101.62 48.83 101.61C48.83 101.61 48.83 101.6 48.83 101.59C48.83 101.59 48.83 101.59 48.83 101.58C48.83 101.58 48.83 101.58 48.83 101.57C48.83 101.57 48.83 101.57 48.83 101.56C48.83 101.56 48.83 101.56 48.83 101.55C48.83 101.55 48.83 101.55 48.82 101.55C48.82 101.55 48.82 101.55 48.81 101.54C48.81 101.54 48.81 101.54 48.8 101.54C48.8 101.54 48.8 101.54 48.79 101.54C48.79 101.54 48.79 101.54 48.78 101.53C48.78 101.53 48.78 101.53 48.77 101.53C48.77 101.53 48.77 101.53 48.76 101.53C48.76 101.53 48.75 101.53 48.74 101.53C48.74 101.53 48.74 101.53 48.73 101.53C48.73 101.53 48.71 101.52 48.7 101.51C48.7 101.51 48.7 101.51 48.69 101.51C48.69 101.51 48.67 101.5 48.66 101.49C48.66 101.49 48.66 101.49 48.65 101.49C48.65 101.49 48.65 101.49 48.64 101.49C48.64 101.49 48.64 101.49 48.63 101.49C48.63 101.49 48.63 101.49 48.62 101.49C48.62 101.49 48.6 101.48 48.59 101.47C48.59 101.47 48.59 101.47 48.58 101.47C48.58 101.47 48.56 101.46 48.55 101.45C48.55 101.45 48.55 101.45 48.54 101.45C48.54 101.45 48.54 101.45 48.53 101.45C48.53 101.45 48.53 101.45 48.52 101.45C48.52 101.45 48.52 101.45 48.51 101.45C48.51 101.45 48.49 101.44 48.48 101.43C48.48 101.43 48.48 101.43 48.47 101.43C48.47 101.43 48.45 101.42 48.44 101.41C48.44 101.41 48.44 101.41 48.43 101.41C48.43 101.41 48.43 101.41 48.42 101.41C48.42 101.41 48.42 101.41 48.41 101.41C48.41 101.41 48.41 101.41 48.4 101.41C48.4 101.41 48.38 101.4 48.37 101.39C48.37 101.39 48.37 101.39 48.36 101.39C48.36 101.39 48.36 101.39 48.35 101.39C48.35 101.39 48.35 101.39 48.34 101.39C48.34 101.39 48.34 101.39 48.33 101.39C48.33 101.39 48.33 101.39 48.32 101.39C48.32 101.39 48.32 101.39 48.31 101.39C48.31 101.39 48.29 101.38 48.28 101.37C48.28 101.37 48.28 101.37 48.27 101.37C48.27 101.37 48.25 101.36 48.24 101.35C48.24 101.35 48.24 101.35 48.23 101.35C48.23 101.35 48.23 101.35 48.22 101.35C48.22 101.35 48.22 101.35 48.21 101.35C48.21 101.35 48.21 101.35 48.2 101.35C48.2 101.35 48.18 101.34 48.17 101.33C48.17 101.33 48.17 101.33 48.16 101.33C48.16 101.33 48.14 101.32 48.13 101.31C48.13 101.31 48.13 101.31 48.12 101.31C48.12 101.31 48.12 101.31 48.11 101.31C48.11 101.31 48.11 101.31 48.1 101.31C48.1 101.31 48.1 101.31 48.09 101.31C48.09 101.31 48.07 101.3 48.06 101.29C48.06 101.29 48.06 101.29 48.05 101.29C48.05 101.29 48.03 101.28 48.02 101.27C48.02 101.27 48.02 101.27 48.01 101.27C48.01 101.27 48.01 101.27 48 101.27C48 101.27 48 101.27 47.99 101.27C47.99 101.27 47.97 101.26 47.96 101.25C47.96 101.25 47.96 101.25 47.95 101.25C47.95 101.25 47.95 101.25 47.94 101.25C47.94 101.25 47.94 101.25 47.93 101.25C47.93 101.25 47.93 101.25 47.92 101.25C47.92 101.25 47.9 101.24 47.89 101.23C47.89 101.23 47.89 101.23 47.88 101.23C47.88 101.23 47.86 101.22 47.85 101.21C47.85 101.21 47.85 101.21 47.84 101.21C47.84 101.21 47.84 101.21 47.83 101.21C47.83 101.21 47.83 101.21 47.82 101.21C47.82 101.21 47.82 101.21 47.81 101.21C47.81 101.21 47.79 101.2 47.78 101.19C47.78 101.19 47.78 101.19 47.77 101.19C47.77 101.19 47.75 101.18 47.74 101.17C47.74 101.17 47.74 101.17 47.73 101.17C47.73 101.17 47.73 101.17 47.72 101.17C47.72 101.17 47.72 101.17 47.71 101.17C47.71 101.17 47.71 101.17 47.7 101.17C47.7 101.17 47.68 101.16 47.67 101.15C47.67 101.15 47.67 101.15 47.66 101.15C47.66 101.15 47.66 101.15 47.65 101.15C47.65 101.15 47.65 101.15 47.64 101.15C47.64 101.15 47.64 101.15 47.63 101.15C47.63 101.15 47.63 101.15 47.62 101.15C47.62 101.15 47.62 101.15 47.61 101.15C47.61 101.15 47.59 101.14 47.58 101.13C47.58 101.13 47.58 101.13 47.57 101.13C47.57 101.13 47.55 101.12 47.54 101.11C47.54 101.11 47.54 101.11 47.53 101.11C47.53 101.11 47.51 101.1 47.5 101.09C47.5 101.09 47.5 101.09 47.49 101.09C47.49 101.09 47.47 101.08 47.46 101.07C47.46 101.07 47.46 101.07 47.45 101.07C47.45 101.07 47.43 101.06 47.42 101.05C47.42 101.05 47.42 101.05 47.41 101.05C47.41 101.05 47.39 101.04 47.38 101.03C47.38 101.03 47.38 101.03 47.37 101.03C47.37 101.03 47.35 101.02 47.34 101.01C47.34 101.01 47.34 101.01 47.33 101.01C47.33 101.01 47.31 101 47.3 100.99C47.3 100.99 47.3 100.99 47.29 100.99C47.29 100.99 47.29 100.99 47.28 100.99C47.28 100.99 47.28 100.99 47.27 100.99C47.27 100.99 47.25 100.98 47.24 100.97C47.24 100.97 47.24 100.97 47.23 100.97C47.23 100.97 47.21 100.96 47.2 100.95C47.2 100.95 47.2 100.95 47.19 100.95C47.19 100.95 47.19 100.95 47.18 100.95V98.4299V98.4199C47.18 98.4199 47.18 98.4199 47.18 98.4099C47.18 98.4099 47.18 98.4099 47.18 98.3999C47.18 98.3999 47.18 98.3999 47.18 98.3899C47.18 98.3899 47.18 98.3899 47.18 98.3799C47.18 98.3799 47.18 98.3699 47.18 98.3599C47.18 98.3599 47.18 98.3599 47.18 98.3499C47.18 98.3499 47.18 98.3499 47.17 98.3499C47.17 98.3499 47.17 98.3499 47.16 98.3499C47.16 98.3499 47.15 98.3499 47.14 98.3499C46.12 98.3599 45.09 98.3699 44.07 98.3899C44.07 98.3899 44.06 98.3899 44.05 98.3899C44.05 98.3899 44.05 98.3899 44.04 98.3899C44.04 98.3899 44.04 98.3899 44.03 98.3899C44.03 98.3899 44.03 98.3899 44.02 98.3999C44.02 98.3999 44.02 98.3999 44.01 98.4099C44.01 98.4099 44 98.4199 43.99 98.4299C43.99 98.4299 43.99 98.4299 43.98 98.4399C43.98 98.4399 43.98 98.4399 43.98 98.4499C43.98 98.4499 43.98 98.4499 43.98 98.4599C43.98 98.4599 43.98 98.4699 43.98 98.4799C43.98 98.4799 43.98 98.4899 43.98 98.4999C43.98 98.4999 43.98 98.4999 43.98 98.5099V98.5199C43.98 98.5199 43.98 98.5199 43.98 98.5299V98.5499V98.6499V98.6799C43.98 98.6799 43.98 98.6999 43.98 98.7099V98.7399V104.41V104.42C43.98 104.42 43.98 104.42 43.98 104.43C43.98 104.43 43.98 104.43 43.98 104.44C43.98 104.44 43.98 104.44 43.98 104.45C43.98 104.45 43.98 104.45 43.98 104.46C43.98 104.46 43.98 104.46 43.98 104.47C43.98 104.47 43.98 104.47 43.99 104.48C43.99 104.48 43.99 104.48 44 104.48C44 104.48 44 104.48 44.01 104.48C44.01 104.48 44.01 104.48 44.02 104.48C44.02 104.48 44.02 104.48 44.03 104.48C44.03 104.48 44.04 104.48 44.05 104.48C44.9 104.47 45.75 104.45 46.61 104.44C46.61 104.44 46.61 104.44 46.61 104.45C46.61 104.45 46.61 104.45 46.61 104.46C46.61 104.46 46.61 104.46 46.61 104.47C46.61 104.47 46.61 104.47 46.61 104.48C46.61 104.48 46.61 104.48 46.61 104.49C46.61 104.49 46.61 104.49 46.61 104.5C46.61 104.5 46.61 104.5 46.61 104.51C46.61 104.51 46.61 104.51 46.61 104.52C46.61 104.52 46.61 104.52 46.61 104.53C46.61 104.53 46.61 104.54 46.61 104.55C46.61 104.55 46.61 104.55 46.61 104.56C46.61 104.56 46.61 104.56 46.61 104.57C46.61 104.57 46.61 104.58 46.61 104.59C46.61 104.59 46.61 104.59 46.61 104.6C46.61 104.6 46.61 104.6 46.61 104.61C46.61 104.61 46.61 104.62 46.61 104.63C46.61 104.63 46.61 104.63 46.61 104.64V106.11C46.75 106.11 46.9 106.11 47.04 106.11V104.35C47.04 104.35 47.03 104.35 47.02 104.35H47C47 104.35 46.99 104.35 46.98 104.35C46.98 104.35 46.97 104.35 46.96 104.35C46.96 104.35 46.95 104.35 46.94 104.35C46.94 104.35 46.94 104.35 46.93 104.35C46.93 104.35 46.92 104.35 46.91 104.35C46.91 104.35 46.91 104.35 46.9 104.35C46.9 104.35 46.9 104.35 46.89 104.35C46.89 104.35 46.87 104.34 46.86 104.33C46.86 104.33 46.85 104.33 46.84 104.32C46.84 104.32 46.83 104.32 46.82 104.31C46.82 104.31 46.8 104.3 46.8 104.29C46.8 104.29 46.8 104.29 46.79 104.28C46.79 104.28 46.79 104.28 46.78 104.27C46.78 104.27 46.77 104.26 46.76 104.25C46.76 104.25 46.75 104.24 46.74 104.23C46.74 104.23 46.74 104.22 46.73 104.21C46.73 104.21 46.73 104.2 46.72 104.19C46.72 104.19 46.72 104.18 46.71 104.17C46.71 104.17 46.7 104.15 46.69 104.14C46.69 104.14 46.69 104.14 46.69 104.13C46.69 104.13 46.69 104.13 46.69 104.12C46.69 104.12 46.69 104.11 46.69 104.1C46.69 104.1 46.69 104.09 46.69 104.08C46.69 104.08 46.69 104.07 46.69 104.06V104.04V104.02V104V103.98C46.69 103.98 46.69 103.97 46.69 103.96C46.69 103.96 46.69 103.95 46.69 103.94C46.69 103.94 46.69 103.93 46.69 103.92C46.69 103.92 46.69 103.91 46.69 103.9C46.69 103.9 46.69 103.89 46.69 103.88C46.69 103.88 46.69 103.87 46.69 103.86V103.84V103.82C46.69 103.82 46.69 103.81 46.69 103.8C46.69 103.8 46.69 103.79 46.69 103.78C46.69 103.78 46.69 103.77 46.69 103.76V103.74C46.69 103.74 46.69 103.73 46.69 103.72C46.69 103.72 46.69 103.71 46.69 103.7C46.69 103.7 46.69 103.69 46.69 103.68V103.66C46.69 103.66 46.69 103.65 46.69 103.64C46.69 103.64 46.69 103.63 46.69 103.62C46.69 103.62 46.69 103.61 46.69 103.6C46.69 103.6 46.69 103.59 46.69 103.58C46.69 103.58 46.69 103.57 46.69 103.56C46.69 103.56 46.69 103.55 46.69 103.54C46.69 103.54 46.69 103.53 46.69 103.52C46.69 103.52 46.69 103.51 46.69 103.5C46.69 103.5 46.69 103.49 46.69 103.48C46.69 103.48 46.69 103.47 46.69 103.46C46.69 103.46 46.69 103.45 46.69 103.44C46.69 103.44 46.69 103.44 46.69 103.43C46.69 103.43 46.69 103.42 46.7 103.41C46.7 103.41 46.7 103.4 46.71 103.39C46.71 103.39 46.71 103.39 46.71 103.38C46.71 103.38 46.71 103.38 46.71 103.37C46.71 103.37 46.71 103.37 46.71 103.36C46.71 103.36 46.71 103.36 46.71 103.35C46.71 103.35 46.72 103.33 46.73 103.33C46.73 103.33 46.74 103.32 46.75 103.31C46.75 103.31 46.75 103.31 46.75 103.3C46.75 103.3 46.75 103.3 46.76 103.29C46.76 103.29 46.76 103.29 46.76 103.28C46.76 103.28 46.75 103.26 46.74 103.25C46.74 103.25 46.74 103.25 46.74 103.24C46.74 103.24 46.73 103.22 46.72 103.21C46.72 103.21 46.72 103.21 46.72 103.2C46.72 103.2 46.71 103.18 46.7 103.17C46.7 103.17 46.7 103.17 46.7 103.16C46.7 103.16 46.69 103.14 46.68 103.13C46.68 103.13 46.68 103.13 46.68 103.12C46.68 103.12 46.67 103.1 46.66 103.09C46.66 103.09 46.66 103.09 46.66 103.08C46.66 103.08 46.65 103.06 46.64 103.05C46.64 103.05 46.64 103.05 46.64 103.04C46.64 103.04 46.63 103.02 46.62 103.01C46.62 103.01 46.62 103.01 46.62 103C46.62 103 46.61 102.98 46.6 102.97C46.6 102.97 46.6 102.97 46.6 102.96C46.6 102.96 46.59 102.94 46.58 102.93C46.58 102.93 46.58 102.93 46.58 102.92C46.58 102.92 46.57 102.9 46.56 102.89C46.56 102.89 46.56 102.89 46.56 102.88C46.56 102.88 46.55 102.86 46.54 102.85C46.54 102.85 46.54 102.85 46.54 102.84C46.54 102.84 46.53 102.82 46.52 102.81C46.52 102.81 46.52 102.81 46.52 102.8C46.52 102.8 46.51 102.78 46.5 102.77C46.5 102.77 46.5 102.77 46.5 102.76C46.5 102.75 46.48 102.73 46.47 102.72C46.47 102.72 46.47 102.72 46.47 102.71C46.47 102.71 46.46 102.69 46.45 102.68C46.45 102.68 46.45 102.68 46.45 102.67C46.45 102.67 46.44 102.65 46.43 102.64C46.43 102.64 46.43 102.64 46.43 102.63C46.43 102.63 46.42 102.61 46.41 102.6C46.41 102.6 46.41 102.6 46.41 102.59C46.41 102.59 46.4 102.57 46.39 102.56C46.39 102.56 46.39 102.56 46.39 102.55C46.39 102.55 46.38 102.53 46.37 102.52C46.37 102.52 46.37 102.52 46.37 102.51C46.37 102.51 46.36 102.49 46.35 102.48C46.35 102.48 46.35 102.48 46.35 102.47C46.35 102.47 46.34 102.45 46.33 102.44C46.33 102.44 46.33 102.44 46.33 102.43C46.33 102.43 46.32 102.41 46.31 102.4C46.31 102.4 46.31 102.4 46.31 102.39C46.31 102.39 46.3 102.37 46.29 102.36C46.29 102.36 46.29 102.36 46.29 102.35C46.29 102.35 46.28 102.33 46.27 102.32C46.27 102.32 46.27 102.32 46.27 102.31C46.27 102.31 46.26 102.29 46.25 102.28C46.25 102.28 46.25 102.28 46.25 102.27C46.25 102.27 46.24 102.25 46.23 102.24C46.23 102.24 46.23 102.24 46.23 102.23C46.23 102.23 46.22 102.21 46.21 102.2C46.21 102.2 46.21 102.2 46.21 102.19C46.21 102.19 46.2 102.17 46.19 102.16C46.19 102.16 46.19 102.16 46.19 102.15C46.19 102.14 46.17 102.12 46.16 102.11C46.16 102.11 46.16 102.11 46.16 102.1C46.16 102.1 46.15 102.08 46.14 102.07C46.14 102.07 46.14 102.07 46.14 102.06C46.14 102.06 46.13 102.04 46.12 102.03C46.12 102.03 46.12 102.03 46.12 102.02C46.12 102.02 46.11 102 46.1 101.99C46.1 101.99 46.1 101.99 46.1 101.98C46.1 101.98 46.09 101.96 46.08 101.95C46.08 101.95 46.08 101.95 46.08 101.94C46.08 101.94 46.07 101.92 46.06 101.91C46.06 101.91 46.06 101.91 46.06 101.9C46.06 101.9 46.05 101.88 46.04 101.87C46.04 101.87 46.04 101.87 46.04 101.86C46.04 101.86 46.03 101.84 46.02 101.83C46.02 101.83 46.02 101.83 46.02 101.82C46.02 101.82 46.01 101.8 46 101.79C46 101.79 46 101.79 46 101.78C46 101.78 45.99 101.76 45.98 101.75C45.98 101.75 45.98 101.75 45.98 101.74C45.98 101.74 45.97 101.72 45.96 101.71C45.96 101.71 45.96 101.71 45.96 101.7C45.96 101.7 45.95 101.68 45.94 101.67C45.94 101.67 45.94 101.67 45.94 101.66C45.94 101.66 45.93 101.64 45.92 101.63C45.92 101.63 45.92 101.63 45.92 101.62C45.92 101.62 45.92 101.62 45.92 101.61C45.92 101.61 45.92 101.61 45.92 101.6C45.92 101.6 45.92 101.6 45.92 101.59C45.92 101.59 45.92 101.59 45.92 101.58C45.92 101.58 45.92 101.58 45.92 101.57C45.93 101.57 45.94 101.57 45.95 101.57C45.95 101.57 45.95 101.57 45.96 101.57C45.96 101.57 45.96 101.57 45.96 101.58C45.96 101.59 45.98 101.61 45.99 101.62C45.99 101.62 45.99 101.63 46 101.64C46 101.65 46.02 101.67 46.03 101.68C46.03 101.68 46.03 101.69 46.04 101.7C46.04 101.7 46.04 101.71 46.05 101.72C46.05 101.72 46.05 101.73 46.06 101.74C46.06 101.75 46.08 101.77 46.09 101.78C46.09 101.78 46.09 101.79 46.1 101.8C46.1 101.81 46.12 101.83 46.13 101.84C46.13 101.84 46.13 101.85 46.14 101.86C46.14 101.87 46.16 101.89 46.17 101.9C46.17 101.9 46.17 101.91 46.18 101.92C46.18 101.92 46.18 101.93 46.19 101.94C46.19 101.94 46.19 101.95 46.2 101.96C46.2 101.97 46.22 101.99 46.23 102C46.23 102 46.23 102.01 46.24 102.02C46.24 102.03 46.26 102.05 46.27 102.06C46.27 102.06 46.27 102.07 46.28 102.08C46.28 102.08 46.28 102.09 46.29 102.1C46.29 102.1 46.29 102.11 46.3 102.12C46.3 102.13 46.32 102.15 46.33 102.16C46.33 102.16 46.33 102.17 46.34 102.18C46.34 102.19 46.36 102.21 46.37 102.22C46.37 102.22 46.37 102.23 46.38 102.24C46.38 102.25 46.4 102.27 46.41 102.28C46.41 102.28 46.41 102.29 46.42 102.3C46.42 102.3 46.42 102.31 46.43 102.32C46.43 102.32 46.43 102.33 46.44 102.34C46.44 102.35 46.46 102.37 46.47 102.38C46.47 102.38 46.47 102.39 46.48 102.4C46.48 102.41 46.5 102.43 46.51 102.44C46.51 102.44 46.51 102.45 46.52 102.46C46.52 102.46 46.52 102.47 46.53 102.48C46.53 102.48 46.53 102.49 46.54 102.5C46.54 102.51 46.56 102.53 46.57 102.54C46.57 102.54 46.57 102.55 46.58 102.56C46.58 102.57 46.6 102.59 46.61 102.6C46.61 102.6 46.61 102.61 46.62 102.62C46.62 102.62 46.62 102.63 46.63 102.64C46.63 102.64 46.63 102.65 46.64 102.66C46.64 102.67 46.66 102.69 46.67 102.7C46.67 102.7 46.67 102.71 46.68 102.72C46.68 102.73 46.7 102.75 46.71 102.76C46.71 102.76 46.71 102.77 46.72 102.78C46.72 102.79 46.74 102.81 46.75 102.82C46.75 102.82 46.75 102.83 46.76 102.84C46.76 102.84 46.76 102.85 46.77 102.86C46.77 102.86 46.77 102.87 46.78 102.88C46.78 102.89 46.8 102.91 46.81 102.92C46.81 102.92 46.81 102.93 46.82 102.94C46.82 102.95 46.84 102.97 46.85 102.98C46.85 102.98 46.85 102.99 46.86 103C46.86 103 46.86 103.01 46.87 103.02C46.87 103.02 46.87 103.03 46.88 103.04C46.88 103.05 46.9 103.07 46.91 103.08C46.91 103.08 46.91 103.09 46.92 103.1C46.92 103.11 46.94 103.13 46.95 103.14C46.95 103.14 46.95 103.15 46.96 103.16C46.96 103.17 46.98 103.19 46.99 103.2C46.99 103.2 46.99 103.21 47 103.22C47 103.22 47 103.23 47.01 103.24C47.01 103.24 47.01 103.25 47.02 103.26C47.02 103.27 47.04 103.29 47.05 103.3C47.05 103.3 47.05 103.31 47.06 103.32C47.06 103.33 47.08 103.35 47.09 103.36C47.09 103.36 47.09 103.37 47.1 103.38C47.1 103.38 47.1 103.39 47.11 103.4C47.11 103.4 47.11 103.41 47.12 103.42C47.12 103.43 47.14 103.45 47.15 103.46C47.15 103.46 47.15 103.47 47.16 103.48C47.16 103.49 47.18 103.51 47.19 103.52C47.19 103.52 47.19 103.53 47.2 103.54C47.2 103.55 47.22 103.57 47.23 103.58C47.23 103.58 47.23 103.59 47.24 103.6C47.24 103.6 47.24 103.61 47.25 103.62C47.25 103.62 47.25 103.63 47.26 103.64C47.26 103.65 47.28 103.67 47.29 103.68C47.29 103.68 47.29 103.69 47.3 103.7C47.3 103.71 47.32 103.73 47.33 103.74C47.33 103.74 47.33 103.75 47.34 103.76C47.34 103.76 47.34 103.77 47.35 103.78C47.35 103.79 47.37 103.81 47.37 103.82C47.37 103.82 47.37 103.83 47.38 103.84C47.38 103.84 47.38 103.85 47.39 103.86C47.39 103.86 47.39 103.87 47.4 103.88C47.4 103.88 47.4 103.89 47.41 103.9C47.41 103.9 47.41 103.91 47.42 103.92C47.42 103.92 47.42 103.93 47.43 103.94C47.43 103.94 47.43 103.95 47.44 103.96C47.44 103.96 47.44 103.97 47.45 103.98C47.45 103.98 47.45 103.99 47.46 104C47.46 104 47.46 104.01 47.47 104.02C47.47 104.02 47.47 104.03 47.48 104.04C47.48 104.04 47.48 104.05 47.49 104.06C47.49 104.06 47.49 104.07 47.5 104.08C47.5 104.08 47.5 104.09 47.51 104.1C47.51 104.1 47.51 104.11 47.52 104.12C47.52 104.12 47.51 104.1 47.5 104.09C47.5 104.09 47.5 104.09 47.5 104.08C47.5 104.07 47.48 104.05 47.48 104.04C47.48 104.04 47.48 104.04 47.48 104.03C47.48 104.03 47.47 104.01 47.46 104C47.46 104 47.46 104 47.46 103.99C47.46 103.99 47.45 103.97 47.44 103.96C47.44 103.96 47.44 103.96 47.44 103.95C47.44 103.95 47.44 103.95 47.44 103.94C47.44 103.93 47.42 103.91 47.42 103.9C47.42 103.9 47.42 103.9 47.42 103.89C47.42 103.88 47.4 103.86 47.4 103.85C47.4 103.85 47.4 103.85 47.4 103.84C47.4 103.84 47.39 103.82 47.38 103.81C47.38 103.81 47.38 103.81 47.38 103.8C47.38 103.8 47.37 103.78 47.36 103.77C47.36 103.77 47.36 103.77 47.36 103.76C47.36 103.76 47.36 103.76 47.36 103.75C47.36 103.74 47.34 103.72 47.34 103.71C47.34 103.71 47.34 103.71 47.34 103.7C47.34 103.69 47.32 103.67 47.32 103.66C47.32 103.66 47.32 103.66 47.32 103.65C47.32 103.65 47.31 103.63 47.3 103.62C47.3 103.62 47.3 103.62 47.3 103.61C47.3 103.61 47.29 103.59 47.28 103.58C47.28 103.58 47.28 103.58 47.28 103.57C47.28 103.57 47.28 103.57 47.28 103.56C47.28 103.55 47.26 103.53 47.26 103.52C47.26 103.52 47.26 103.52 47.26 103.51C47.26 103.51 47.25 103.49 47.24 103.48C47.24 103.48 47.24 103.48 47.24 103.47C47.24 103.46 47.22 103.44 47.22 103.43C47.22 103.43 47.22 103.43 47.22 103.42C47.22 103.42 47.21 103.4 47.2 103.39C47.2 103.39 47.2 103.39 47.2 103.38C47.2 103.38 47.2 103.38 47.2 103.37C47.2 103.36 47.18 103.34 47.18 103.33C47.18 103.33 47.18 103.33 47.18 103.32C47.18 103.32 47.17 103.3 47.16 103.29C47.16 103.29 47.16 103.29 47.16 103.28C47.16 103.27 47.14 103.25 47.14 103.24C47.14 103.24 47.14 103.24 47.14 103.23C47.14 103.23 47.14 103.23 47.14 103.22C47.14 103.22 47.14 103.22 47.14 103.21C47.14 103.21 47.14 103.21 47.14 103.2C47.14 103.2 47.14 103.2 47.14 103.19C47.14 103.19 47.14 103.19 47.14 103.18C47.14 103.18 47.14 103.18 47.14 103.17C47.14 103.17 47.14 103.17 47.14 103.16C47.14 103.16 47.14 103.16 47.14 103.15C47.14 103.15 47.14 103.15 47.14 103.14C47.14 103.14 47.14 103.14 47.14 103.13C47.14 103.13 47.14 103.13 47.14 103.12C47.14 103.12 47.14 103.12 47.14 103.11C47.14 103.11 47.13 103.09 47.12 103.08C47.12 103.08 47.12 103.08 47.12 103.07C47.12 103.07 47.11 103.05 47.1 103.04C47.1 103.04 47.1 103.04 47.1 103.03C47.1 103.03 47.1 103.03 47.1 103.02C47.1 103.02 47.1 103.02 47.1 103.01C47.1 103.01 47.1 103.01 47.1 103C47.1 103 47.1 103 47.1 102.99C47.1 102.99 47.1 102.99 47.1 102.98C47.1 102.98 47.1 102.98 47.1 102.97C47.1 102.97 47.1 102.97 47.1 102.96C47.1 102.96 47.1 102.96 47.1 102.95C47.1 102.95 47.1 102.95 47.1 102.94C47.1 102.94 47.09 102.92 47.08 102.91C47.08 102.91 47.08 102.91 47.08 102.9C47.08 102.9 47.07 102.88 47.06 102.87C47.06 102.87 47.06 102.87 47.06 102.86C47.06 102.86 47.06 102.86 47.06 102.85C47.06 102.85 47.06 102.85 47.06 102.84C47.06 102.84 47.06 102.84 47.06 102.83C47.06 102.83 47.06 102.83 47.06 102.82C47.06 102.82 47.06 102.82 47.06 102.81C47.06 102.8 47.06 102.81 47.06 102.8C47.06 102.8 47.06 102.8 47.06 102.79C47.06 102.79 47.06 102.79 47.06 102.78C47.06 102.78 47.06 102.78 47.06 102.77C47.06 102.77 47.05 102.75 47.04 102.74C47.04 102.74 47.04 102.74 47.04 102.73C47.04 102.73 47.03 102.71 47.02 102.7C47.02 102.7 47.02 102.7 47.02 102.69C47.02 102.69 47.01 102.67 47 102.66C47 102.66 47 102.66 47 102.65C47 102.65 47 102.65 47 102.64C47 102.64 47 102.64 47 102.63C47 102.63 47 102.63 47 102.62C47 102.62 47 102.62 47 102.61C47 102.61 47 102.61 47 102.6C47 102.6 47 102.6 47 102.59V101.46C47 101.46 47 101.46 47.01 101.46C47.02 101.46 47.03 101.48 47.05 101.48C47.05 101.48 47.05 101.48 47.06 101.48C47.07 101.48 47.08 101.5 47.1 101.5C47.1 101.5 47.1 101.5 47.11 101.5C47.11 101.5 47.13 101.51 47.13 101.52C47.13 101.52 47.13 101.52 47.14 101.52C47.15 101.52 47.16 101.54 47.18 101.54C47.18 101.54 47.18 101.54 47.19 101.54C47.2 101.54 47.21 101.56 47.23 101.56C47.23 101.56 47.23 101.56 47.24 101.56C47.24 101.56 47.26 101.57 47.26 101.58C47.26 101.58 47.26 101.58 47.27 101.58C47.28 101.58 47.29 101.6 47.31 101.6H47.32C47.32 101.6 47.34 101.62 47.36 101.63C47.36 101.63 47.36 101.63 47.37 101.63C47.38 101.63 47.39 101.65 47.41 101.65C47.41 101.65 47.41 101.65 47.42 101.65C47.42 101.65 47.42 101.65 47.43 101.65C47.43 101.65 47.43 101.65 47.44 101.65C47.44 101.65 47.44 101.65 47.45 101.65C47.45 101.65 47.45 101.65 47.46 101.65C47.46 101.65 47.46 101.65 47.47 101.65C47.47 101.65 47.47 101.65 47.48 101.65C47.48 101.65 47.48 101.65 47.49 101.65C47.49 101.65 47.49 101.65 47.5 101.65C47.5 101.65 47.52 101.66 47.52 101.67C47.52 101.67 47.52 101.67 47.53 101.67C47.53 101.67 47.53 101.67 47.54 101.67C47.54 101.67 47.56 101.68 47.56 101.69C47.56 101.69 47.56 101.69 47.57 101.69C47.57 101.69 47.59 101.7 47.59 101.71C47.59 101.71 47.59 101.71 47.6 101.71C47.6 101.71 47.62 101.72 47.62 101.73C47.62 101.73 47.62 101.73 47.63 101.73C47.63 101.73 47.63 101.73 47.64 101.73C47.64 101.73 47.64 101.73 47.65 101.73C47.65 101.73 47.65 101.73 47.66 101.73C47.66 101.73 47.66 101.73 47.67 101.73C47.67 101.73 47.67 101.73 47.68 101.73C47.68 101.73 47.68 101.73 47.69 101.73C47.69 101.73 47.69 101.73 47.7 101.73C47.7 101.73 47.7 101.73 47.71 101.73C47.71 101.73 47.71 101.73 47.72 101.73C47.72 101.73 47.72 101.73 47.73 101.73C47.73 101.73 47.73 101.73 47.74 101.73C47.74 101.73 47.74 101.73 47.75 101.73C47.75 101.73 47.75 101.73 47.76 101.73C47.76 101.73 47.78 101.74 47.78 101.75C47.78 101.75 47.78 101.75 47.79 101.75C47.79 101.75 47.81 101.76 47.81 101.77C47.81 101.77 47.81 101.77 47.82 101.77C47.82 101.77 47.82 101.77 47.83 101.77C47.83 101.77 47.85 101.78 47.85 101.79C47.85 101.79 47.85 101.79 47.86 101.79C47.86 101.79 47.88 101.8 47.88 101.81C47.88 101.81 47.88 101.81 47.89 101.81C47.89 101.81 47.89 101.81 47.9 101.81C47.9 101.81 47.9 101.81 47.91 101.81C47.91 101.81 47.91 101.81 47.92 101.81C47.92 101.81 47.92 101.81 47.93 101.81C47.93 101.81 47.93 101.81 47.94 101.81C47.94 101.81 47.94 101.81 47.95 101.81C47.95 101.81 47.97 101.82 47.97 101.83C47.97 101.83 47.97 101.83 47.98 101.83C47.98 101.83 47.98 101.83 47.99 101.83C47.99 101.83 47.99 101.83 48 101.83C48 101.83 48 101.83 48.01 101.83C48.01 101.83 48.01 101.83 48.02 101.83C48.02 101.83 48.04 101.84 48.04 101.85C48.04 101.85 48.04 101.85 48.05 101.85C48.05 101.85 48.07 101.86 48.07 101.87C48.07 101.87 48.07 101.87 48.08 101.87C48.08 101.87 48.08 101.87 48.09 101.87C48.09 101.87 48.09 101.87 48.1 101.87C48.1 101.87 48.1 101.87 48.11 101.87C48.11 101.87 48.11 101.87 48.12 101.87C48.12 101.87 48.12 101.87 48.13 101.87C48.13 101.87 48.13 101.87 48.14 101.87C48.14 101.87 48.14 101.87 48.15 101.87C48.15 101.87 48.15 101.87 48.16 101.87C48.16 101.87 48.16 101.87 48.17 101.87C48.17 101.87 48.17 101.87 48.18 101.87C48.18 101.87 48.18 101.87 48.19 101.87C48.19 101.87 48.19 101.87 48.2 101.87C48.2 101.87 48.2 101.87 48.21 101.87C48.21 101.87 48.23 101.88 48.23 101.89C48.23 101.89 48.23 101.89 48.24 101.89C48.24 101.89 48.26 101.9 48.26 101.91C48.26 101.91 48.26 101.91 48.27 101.91C48.28 101.91 48.29 101.93 48.31 101.93C48.31 101.93 48.31 101.93 48.32 101.93C48.32 101.93 48.34 101.94 48.34 101.95C48.34 101.95 48.34 101.95 48.35 101.95C48.35 101.95 48.35 101.95 48.36 101.96C48.36 101.96 48.36 101.96 48.36 101.97C48.36 101.97 48.36 101.97 48.36 101.98C48.36 101.98 48.36 101.98 48.36 101.99C48.36 101.99 48.36 102.01 48.37 102.02C48.37 102.02 48.37 102.03 48.37 102.04C48.37 102.04 48.37 102.04 48.37 102.05C48.37 102.05 48.37 102.05 48.37 102.06V102.07V102.08C48.37 102.08 48.37 102.08 48.37 102.09V102.11V106.77C48.52 106.77 48.66 106.77 48.81 106.77V102.11L48.83 101.74ZM45.78 100.6C45.78 100.6 45.78 100.6 45.78 100.59C45.78 100.59 45.78 100.59 45.78 100.58C45.78 100.58 45.78 100.58 45.78 100.57C45.78 100.57 45.78 100.57 45.78 100.56C45.78 100.56 45.78 100.56 45.77 100.55C45.77 100.55 45.77 100.55 45.76 100.55C45.76 100.55 45.76 100.55 45.75 100.55C45.75 100.55 45.75 100.55 45.74 100.55C45.74 100.55 45.74 100.55 45.73 100.55C45.73 100.55 45.73 100.55 45.72 100.55C45.72 100.55 45.72 100.55 45.71 100.55C45.71 100.55 45.71 100.55 45.7 100.55C45.7 100.55 45.69 100.55 45.68 100.55C45.68 100.55 45.68 100.55 45.67 100.55C45.66 100.55 45.65 100.55 45.63 100.55C45.62 100.55 45.61 100.55 45.59 100.55C45.59 100.55 45.56 100.55 45.55 100.55C45.55 100.55 45.55 100.55 45.54 100.55C45.54 100.55 45.53 100.55 45.52 100.55C45.52 100.55 45.52 100.55 45.51 100.55C45.51 100.55 45.5 100.55 45.49 100.55C45.49 100.55 45.49 100.55 45.48 100.55C45.48 100.55 45.48 100.55 45.47 100.55C45.47 100.55 45.47 100.55 45.46 100.55C45.46 100.55 45.46 100.55 45.45 100.55C45.45 100.55 45.44 100.55 45.43 100.56C45.43 100.56 45.43 100.56 45.42 100.56C45.42 100.56 45.42 100.56 45.41 100.57C45.41 100.57 45.41 100.57 45.4 100.58C45.4 100.58 45.4 100.58 45.39 100.59C45.39 100.59 45.39 100.59 45.39 100.6C45.39 100.6 45.39 100.6 45.39 100.61C45.39 100.61 45.39 100.61 45.39 100.62C45.39 100.62 45.39 100.62 45.39 100.63C45.39 100.63 45.39 100.63 45.39 100.64C45.39 100.64 45.39 100.65 45.39 100.66C45.39 100.66 45.39 100.66 45.39 100.67C45.39 100.67 45.39 100.68 45.39 100.69C45.39 100.69 45.39 100.7 45.39 100.71C45.39 100.71 45.39 100.72 45.39 100.73C45.39 100.73 45.39 100.74 45.39 100.75V100.77C45.39 100.77 45.39 100.78 45.39 100.79C45.39 100.79 45.39 100.8 45.39 100.81C45.39 100.81 45.39 100.81 45.39 100.82C45.39 100.83 45.39 100.82 45.39 100.83C45.39 100.83 45.39 100.83 45.39 100.84C45.39 100.84 45.39 100.84 45.39 100.85C45.39 100.85 45.39 100.85 45.39 100.86C45.39 100.86 45.39 100.88 45.4 100.88C45.4 100.88 45.4 100.88 45.4 100.89C45.4 100.89 45.4 100.89 45.4 100.9C45.4 100.9 45.4 100.9 45.4 100.91C45.4 100.91 45.4 100.91 45.4 100.92C45.4 100.92 45.4 100.92 45.4 100.93C45.4 100.93 45.4 100.93 45.4 100.94C45.4 100.94 45.4 100.94 45.4 100.95C45.4 100.95 45.4 100.95 45.4 100.96C45.4 100.96 45.4 100.96 45.4 100.97C45.4 100.97 45.4 100.97 45.4 100.98C45.4 100.98 45.4 100.98 45.4 100.99C45.4 100.99 45.4 100.99 45.4 101C45.4 101 45.4 101 45.4 101.01C45.4 101.01 45.4 101.01 45.4 101.02C45.4 101.02 45.4 101.02 45.4 101.03C45.4 101.03 45.4 101.03 45.4 101.04C45.4 101.04 45.4 101.06 45.41 101.06C45.41 101.06 45.41 101.06 45.41 101.07C45.41 101.07 45.41 101.07 45.41 101.08C45.41 101.08 45.41 101.08 45.41 101.09C45.41 101.09 45.41 101.09 45.41 101.1C45.41 101.1 45.41 101.1 45.41 101.11C45.41 101.11 45.41 101.11 45.41 101.12C45.41 101.12 45.41 101.12 45.41 101.13C45.41 101.13 45.41 101.15 45.42 101.15C45.42 101.15 45.42 101.15 45.42 101.16C45.42 101.16 45.42 101.16 45.42 101.17C45.42 101.17 45.42 101.17 45.42 101.18C45.42 101.18 45.42 101.18 45.42 101.19C45.42 101.19 45.42 101.19 45.42 101.2C45.42 101.2 45.42 101.22 45.43 101.22C45.43 101.22 45.43 101.22 45.43 101.23C45.43 101.23 45.43 101.23 45.43 101.24C45.43 101.24 45.43 101.24 45.43 101.25C45.43 101.25 45.43 101.25 45.43 101.26C45.43 101.26 45.43 101.26 45.43 101.27C45.43 101.27 45.43 101.27 45.43 101.28C45.43 101.28 45.43 101.28 45.43 101.29C45.43 101.29 45.43 101.31 45.44 101.31C45.44 101.31 45.44 101.31 45.44 101.32C45.44 101.32 45.44 101.32 45.44 101.33C45.44 101.33 45.44 101.33 45.44 101.34C45.44 101.34 45.44 101.34 45.44 101.35C45.44 101.35 45.44 101.35 45.44 101.36C45.44 101.36 45.44 101.36 45.44 101.37C45.44 101.37 45.44 101.37 45.44 101.38C45.44 101.38 45.44 101.38 45.44 101.39C45.44 101.39 45.44 101.39 45.44 101.4C45.44 101.4 45.44 101.4 45.44 101.41C45.44 101.41 45.44 101.41 45.44 101.42C45.44 101.42 45.44 101.42 45.44 101.43C45.44 101.43 45.44 101.43 45.44 101.44C45.44 101.44 45.44 101.44 45.44 101.45C45.44 101.45 45.44 101.45 45.44 101.46C45.44 101.46 45.44 101.46 45.44 101.47C45.44 101.47 45.44 101.47 45.44 101.48C45.44 101.48 45.44 101.48 45.44 101.49C45.44 101.49 45.44 101.49 45.44 101.5C45.44 101.5 45.44 101.5 45.44 101.51C45.44 101.51 45.44 101.51 45.44 101.52C45.44 101.52 45.44 101.52 45.44 101.53C45.44 101.53 45.44 101.53 45.44 101.54C45.44 101.54 45.44 101.56 45.45 101.56C45.45 101.56 45.45 101.56 45.45 101.57C45.45 101.57 45.45 101.57 45.45 101.58C45.45 101.58 45.45 101.58 45.45 101.59C45.45 101.59 45.45 101.59 45.45 101.6C45.45 101.6 45.45 101.6 45.45 101.61C45.45 101.61 45.45 101.61 45.45 101.62C45.45 101.62 45.45 101.62 45.45 101.63C45.45 101.63 45.45 101.65 45.46 101.65C45.46 101.65 45.46 101.65 45.46 101.66C45.46 101.66 45.46 101.66 45.46 101.67C45.46 101.67 45.46 101.67 45.46 101.68C45.46 101.68 45.46 101.68 45.46 101.69C45.46 101.7 45.46 101.69 45.46 101.7C45.46 101.7 45.46 101.72 45.47 101.72C45.47 101.72 45.47 101.72 45.47 101.73C45.47 101.73 45.47 101.73 45.47 101.74C45.47 101.74 45.47 101.74 45.47 101.75C45.47 101.75 45.47 101.75 45.47 101.76C45.47 101.76 45.47 101.76 45.47 101.77C45.47 101.77 45.47 101.77 45.47 101.78C45.47 101.78 45.47 101.78 45.47 101.79C45.47 101.79 45.47 101.81 45.48 101.81C45.48 101.81 45.48 101.81 45.48 101.82C45.48 101.82 45.48 101.82 45.48 101.83C45.48 101.83 45.48 101.83 45.48 101.84C45.48 101.84 45.48 101.84 45.48 101.85C45.48 101.85 45.48 101.85 45.48 101.86C45.48 101.86 45.48 101.88 45.49 101.88C45.49 101.88 45.49 101.88 45.49 101.89C45.49 101.89 45.49 101.89 45.49 101.9C45.49 101.9 45.49 101.9 45.49 101.91C45.49 101.91 45.49 101.91 45.49 101.92C45.49 101.92 45.49 101.92 45.49 101.93C45.49 101.93 45.49 101.93 45.49 101.94C45.49 101.94 45.49 101.94 45.49 101.95C45.49 101.95 45.49 101.95 45.49 101.96C45.49 101.96 45.49 101.96 45.49 101.97C45.49 101.97 45.49 101.97 45.49 101.98C45.49 101.98 45.49 101.98 45.49 101.99C45.49 101.99 45.49 101.99 45.49 102C45.49 102 45.49 102 45.49 102.01C45.49 102.01 45.49 102.01 45.49 102.02C45.49 102.02 45.49 102.04 45.5 102.04C45.5 102.04 45.5 102.04 45.5 102.05C45.5 102.05 45.5 102.05 45.5 102.06C45.5 102.06 45.5 102.06 45.5 102.07C45.5 102.07 45.5 102.07 45.5 102.08C45.5 102.08 45.5 102.08 45.5 102.09C45.5 102.09 45.5 102.09 45.5 102.1C45.5 102.1 45.49 102.12 45.48 102.12C45.48 102.13 45.47 102.14 45.46 102.15C45.46 102.15 45.46 102.17 45.45 102.17C45.45 102.17 45.45 102.17 45.45 102.18C45.45 102.18 45.45 102.18 45.45 102.19C45.45 102.19 45.45 102.19 45.45 102.2C45.45 102.2 45.45 102.21 45.45 102.22C45.45 102.22 45.45 102.22 45.45 102.23C45.45 102.23 45.45 102.23 45.45 102.24C45.45 102.24 45.45 102.24 45.45 102.25C45.45 102.25 45.45 102.27 45.45 102.28C45.45 102.28 45.45 102.28 45.45 102.29C45.45 102.29 45.45 102.3 45.45 102.31C45.45 102.31 45.45 102.31 45.45 102.32C45.45 102.32 45.45 102.32 45.45 102.33V102.34C45.45 102.34 45.45 102.34 45.45 102.35C45.45 102.35 45.45 102.35 45.45 102.36C45.45 102.36 45.45 102.36 45.45 102.37C44.69 102.38 43.93 102.39 43.17 102.41C43.1 102.41 43.04 102.41 42.97 102.41C42.94 102.41 42.91 102.41 42.88 102.41C42.88 102.41 42.88 102.41 42.87 102.41C42.87 102.41 42.87 102.41 42.87 102.4C42.87 100.43 42.87 98.4699 42.87 96.4999V96.4799C42.87 96.4799 42.87 96.4799 42.87 96.4699C42.87 96.4699 42.88 96.4699 42.89 96.4699C43.91 96.4599 44.94 96.4499 45.96 96.4299C45.96 96.4299 45.96 96.4299 45.97 96.4299C45.97 96.4299 45.98 96.4299 45.99 96.4299V100.18L45.78 100.6Z" fill="#717071"/>
<path d="M60.64 44.63C60.64 44.63 60.64 44.6299 60.64 44.6199C60.64 44.6199 60.64 44.62 60.64 44.61C60.64 44.61 60.64 44.6099 60.64 44.5999C60.64 44.5999 60.64 44.59 60.64 44.58C60.64 44.58 60.64 44.58 60.64 44.57C60.64 44.57 60.64 44.5599 60.64 44.5499C60.64 44.5499 60.64 44.5399 60.64 44.5299C60.64 44.5299 60.64 44.5199 60.64 44.5099C60.64 44.4899 60.62 44.4799 60.62 44.4599C60.62 44.4599 60.62 44.46 60.61 44.45C60.61 44.45 60.61 44.4499 60.6 44.4399C60.6 44.4399 60.6 44.44 60.59 44.43C60.59 44.43 60.59 44.4299 60.59 44.4199C60.59 44.4199 60.57 44.42 60.57 44.41C60.57 44.41 60.56 44.41 60.55 44.41C60.53 44.41 60.51 44.3999 60.5 44.3899C60.5 44.3899 60.49 44.3899 60.48 44.3899C60.48 44.3899 60.47 44.3899 60.46 44.3899C57.56 44.3299 54.66 44.26 51.76 44.2V46.2999C54.19 46.3499 56.63 46.4 59.06 46.45V53.97C59.74 53.98 60.42 53.99 61.09 54V45.04C61.09 45.04 61.09 45.03 61.09 45.02L60.64 44.63Z" stroke="#888888" stroke-width="0.5" stroke-linecap="round" stroke-linejoin="round"/>
<path d="M30.14 43.97C30.14 43.97 30.14 43.97 30.14 43.96C30.14 43.96 30.14 43.96 30.14 43.95C30.14 43.95 30.14 43.95 30.14 43.94C30.14 43.94 30.14 43.93 30.14 43.92C30.14 43.92 30.14 43.92 30.14 43.91C30.14 43.91 30.14 43.9 30.14 43.89C30.14 43.89 30.14 43.88 30.14 43.87C30.14 43.87 30.14 43.86 30.14 43.85C30.14 43.83 30.16 43.82 30.16 43.8C30.16 43.8 30.16 43.8 30.17 43.79C30.17 43.79 30.17 43.79 30.18 43.78C30.18 43.78 30.18 43.78 30.18 43.77C30.18 43.77 30.18 43.76 30.19 43.75C30.19 43.75 30.21 43.75 30.21 43.74C30.21 43.74 30.22 43.74 30.23 43.74C30.25 43.74 30.27 43.74 30.28 43.73C30.28 43.73 30.29 43.73 30.3 43.73C30.3 43.73 30.31 43.73 30.32 43.73C33.22 43.79 36.12 43.86 39.02 43.92C39.02 44.63 39.02 45.33 39.02 46.04C36.59 45.99 34.15 45.94 31.72 45.89V53.54C31.04 53.53 30.36 53.52 29.69 53.51V44.37C29.69 44.37 29.69 44.36 29.69 44.35L30.14 43.97Z" stroke="#888888" stroke-width="0.5" stroke-linecap="round" stroke-linejoin="round"/>
<path d="M60.64 73.49C60.64 73.49 60.64 73.49 60.64 73.5C60.64 73.5 60.64 73.5 60.64 73.51C60.64 73.51 60.64 73.51 60.64 73.52C60.64 73.52 60.64 73.53 60.64 73.54C60.64 73.54 60.64 73.54 60.64 73.55C60.64 73.55 60.64 73.56 60.64 73.57C60.64 73.57 60.64 73.58 60.64 73.59C60.64 73.59 60.64 73.6 60.64 73.61C60.64 73.63 60.62 73.64 60.62 73.66C60.62 73.66 60.62 73.66 60.61 73.67C60.61 73.67 60.61 73.67 60.6 73.68C60.6 73.68 60.6 73.68 60.6 73.69C60.6 73.69 60.6 73.69 60.6 73.7C60.6 73.7 60.6 73.7 60.59 73.7C60.59 73.7 60.57 73.7 60.57 73.71C60.57 73.71 60.56 73.71 60.55 73.71C60.53 73.71 60.51 73.71 60.5 73.72C60.5 73.72 60.49 73.72 60.48 73.72C60.48 73.72 60.47 73.72 60.46 73.72C57.56 73.72 54.66 73.7 51.76 73.7V71.6C54.19 71.6 56.63 71.62 59.06 71.63V64.11C59.74 64.11 60.42 64.12 61.09 64.13V73.09C61.09 73.09 61.09 73.1 61.09 73.11L60.64 73.49Z" stroke="#888888" stroke-width="0.5" stroke-linecap="round" stroke-linejoin="round"/>
<path d="M30.14 73.4C30.14 73.4 30.14 73.4 30.14 73.41C30.14 73.41 30.14 73.41 30.14 73.42C30.14 73.42 30.14 73.42 30.14 73.43C30.14 73.43 30.14 73.44 30.14 73.45C30.14 73.45 30.14 73.45 30.14 73.46C30.14 73.46 30.14 73.47 30.14 73.48C30.14 73.48 30.14 73.49 30.14 73.5C30.14 73.5 30.14 73.51 30.14 73.52C30.14 73.54 30.16 73.55 30.16 73.57C30.16 73.57 30.16 73.57 30.17 73.58C30.17 73.58 30.17 73.58 30.18 73.59C30.18 73.59 30.18 73.59 30.18 73.6C30.18 73.6 30.18 73.6 30.19 73.61C30.19 73.61 30.21 73.61 30.21 73.62C30.21 73.62 30.22 73.62 30.23 73.62C30.25 73.62 30.27 73.63 30.28 73.64C30.28 73.64 30.29 73.64 30.3 73.64C30.3 73.64 30.31 73.64 30.32 73.64C33.22 73.64 36.12 73.66 39.02 73.66C39.02 72.95 39.02 72.25 39.02 71.54C36.59 71.54 34.15 71.52 31.72 71.51V63.86C31.04 63.86 30.36 63.85 29.69 63.84V72.98C29.69 72.98 29.69 72.99 29.69 73L30.14 73.4Z" stroke="#888888" stroke-width="0.5" stroke-linecap="round" stroke-linejoin="round"/>
<path d="M56.78 58.43C56.78 58.37 56.78 58.31 56.78 58.24C56.78 58.18 56.78 58.12 56.78 58.05C56.78 57.99 56.78 57.93 56.78 57.87C56.78 57.81 56.78 57.75 56.77 57.69C56.77 57.63 56.76 57.57 56.75 57.51C56.75 57.45 56.74 57.39 56.73 57.33C56.73 57.27 56.72 57.21 56.71 57.15C56.71 57.09 56.69 57.03 56.69 56.97C56.69 56.91 56.67 56.85 56.66 56.79C56.66 56.73 56.64 56.67 56.63 56.61C56.62 56.55 56.61 56.49 56.6 56.43C56.59 56.37 56.58 56.31 56.57 56.25C56.56 56.19 56.55 56.13 56.53 56.07C56.52 56.01 56.5 55.95 56.49 55.89C56.48 55.83 56.46 55.77 56.45 55.72C56.44 55.66 56.42 55.6 56.41 55.55C56.39 55.49 56.38 55.43 56.36 55.38C56.34 55.32 56.33 55.27 56.31 55.21C56.29 55.15 56.28 55.1 56.26 55.04C56.24 54.98 56.22 54.93 56.21 54.87C56.19 54.81 56.17 54.76 56.15 54.7C56.13 54.64 56.11 54.59 56.09 54.53C56.07 54.47 56.05 54.42 56.03 54.36C56.01 54.3 55.99 54.25 55.97 54.19C55.95 54.14 55.93 54.08 55.9 54.03C55.88 53.98 55.86 53.92 55.83 53.87C55.81 53.82 55.78 53.76 55.76 53.71C55.74 53.66 55.71 53.6 55.69 53.55C55.67 53.5 55.64 53.44 55.62 53.39C55.59 53.34 55.57 53.29 55.54 53.23C55.51 53.18 55.49 53.13 55.46 53.07C55.43 53.02 55.41 52.97 55.38 52.91C55.35 52.86 55.32 52.81 55.3 52.76C55.27 52.71 55.24 52.66 55.21 52.61C55.18 52.56 55.15 52.51 55.12 52.46C55.09 52.41 55.06 52.36 55.03 52.31C55 52.26 54.97 52.21 54.94 52.16C54.91 52.11 54.88 52.06 54.85 52.01C54.82 51.96 54.79 51.91 54.75 51.86C54.72 51.81 54.68 51.76 54.65 51.72C54.62 51.67 54.58 51.63 54.55 51.58C54.52 51.53 54.48 51.49 54.45 51.44C54.42 51.39 54.38 51.35 54.35 51.3C54.31 51.25 54.28 51.21 54.24 51.16C54.2 51.11 54.17 51.07 54.13 51.02C54.09 50.98 54.06 50.93 54.02 50.89C53.98 50.85 53.95 50.8 53.91 50.76C53.87 50.72 53.83 50.67 53.8 50.63C53.76 50.59 53.72 50.54 53.69 50.5C53.65 50.46 53.61 50.42 53.57 50.37C53.53 50.33 53.49 50.29 53.45 50.24C53.41 50.2 53.37 50.16 53.33 50.12C53.29 50.08 53.25 50.04 53.21 50C53.17 49.96 53.13 49.92 53.09 49.88C53.05 49.84 53.01 49.8 52.96 49.76C52.92 49.72 52.87 49.68 52.83 49.64C52.79 49.6 52.74 49.56 52.7 49.53C52.66 49.49 52.61 49.45 52.57 49.42C52.53 49.38 52.48 49.35 52.44 49.31C52.4 49.27 52.35 49.24 52.31 49.2C52.26 49.16 52.22 49.13 52.17 49.09C52.12 49.05 52.08 49.02 52.03 48.98C51.98 48.95 51.94 48.91 51.89 48.88L51.75 48.78C51.75 48.78 51.66 48.71 51.61 48.68C51.56 48.65 51.51 48.62 51.47 48.58C51.42 48.55 51.37 48.52 51.33 48.48C51.28 48.45 51.23 48.42 51.18 48.39C51.13 48.36 51.08 48.33 51.03 48.3C50.98 48.27 50.93 48.24 50.88 48.21C50.83 48.18 50.78 48.15 50.73 48.12C50.68 48.09 50.63 48.06 50.58 48.04C50.53 48.01 50.48 47.99 50.43 47.96C50.38 47.93 50.33 47.91 50.28 47.88C50.23 47.85 50.18 47.83 50.13 47.8C50.08 47.77 50.03 47.75 49.97 47.72C49.92 47.7 49.87 47.67 49.81 47.65C49.76 47.63 49.7 47.6 49.65 47.58C49.6 47.56 49.54 47.53 49.49 47.51C49.44 47.49 49.38 47.47 49.33 47.44C49.28 47.42 49.22 47.4 49.17 47.38C49.12 47.36 49.06 47.34 49.01 47.32C48.96 47.3 48.9 47.28 48.85 47.26C48.79 47.24 48.74 47.22 48.68 47.2C48.62 47.18 48.57 47.16 48.51 47.15C48.45 47.13 48.4 47.12 48.34 47.1C48.28 47.08 48.23 47.07 48.17 47.05C48.11 47.03 48.06 47.02 48 47C47.94 46.99 47.89 46.97 47.83 46.96C47.77 46.95 47.72 46.93 47.66 46.92C47.6 46.91 47.54 46.89 47.49 46.88L47.32 46.85C47.26 46.84 47.2 46.83 47.15 46.82C47.09 46.82 47.03 46.8 46.98 46.79C46.92 46.79 46.86 46.77 46.8 46.76C46.74 46.76 46.68 46.74 46.62 46.74C46.56 46.74 46.5 46.73 46.44 46.72C46.38 46.72 46.32 46.71 46.26 46.7C46.2 46.7 46.14 46.69 46.08 46.68C46.02 46.68 45.96 46.68 45.9 46.67C45.84 46.67 45.78 46.67 45.72 46.67C45.66 46.67 45.6 46.67 45.54 46.67C45.48 46.67 45.42 46.67 45.36 46.67C45.3 46.67 45.24 46.67 45.18 46.67C45.12 46.67 45.06 46.67 45 46.67C44.94 46.67 44.88 46.67 44.82 46.67C44.76 46.67 44.7 46.67 44.64 46.67C44.58 46.67 44.52 46.67 44.46 46.68C44.4 46.68 44.34 46.68 44.28 46.69C44.22 46.69 44.16 46.7 44.1 46.71C44.04 46.71 43.98 46.72 43.92 46.73C43.86 46.73 43.8 46.74 43.74 46.75C43.68 46.75 43.62 46.77 43.57 46.77C43.51 46.77 43.45 46.79 43.4 46.8C43.34 46.81 43.28 46.82 43.23 46.83C43.17 46.84 43.12 46.85 43.06 46.86C43 46.87 42.95 46.88 42.89 46.9C42.83 46.91 42.78 46.92 42.72 46.94C42.66 46.95 42.61 46.97 42.55 46.98C42.49 46.99 42.44 47.01 42.38 47.02C42.32 47.04 42.27 47.05 42.21 47.07C42.15 47.09 42.1 47.1 42.04 47.12C41.99 47.14 41.93 47.15 41.88 47.17C41.83 47.19 41.77 47.21 41.72 47.22C41.67 47.24 41.61 47.26 41.56 47.28C41.51 47.3 41.45 47.32 41.4 47.34C41.35 47.36 41.29 47.38 41.24 47.4C41.19 47.42 41.13 47.44 41.08 47.46C41.03 47.48 40.97 47.5 40.92 47.53C40.87 47.55 40.82 47.58 40.76 47.6C40.71 47.62 40.66 47.65 40.6 47.67C40.55 47.69 40.5 47.72 40.45 47.74C40.4 47.77 40.35 47.79 40.3 47.82C40.25 47.85 40.2 47.87 40.15 47.9C40.1 47.93 40.05 47.95 40 47.98C39.95 48.01 39.9 48.03 39.85 48.06C39.8 48.09 39.75 48.12 39.7 48.15C39.65 48.18 39.6 48.21 39.55 48.24C39.5 48.27 39.45 48.3 39.41 48.33C39.36 48.36 39.31 48.39 39.27 48.42C39.22 48.45 39.18 48.48 39.13 48.51C39.08 48.54 39.04 48.57 38.99 48.61C38.94 48.64 38.9 48.68 38.85 48.71C38.8 48.74 38.76 48.78 38.71 48.81C38.66 48.84 38.62 48.88 38.57 48.91C38.53 48.94 38.48 48.98 38.44 49.01C38.4 49.05 38.35 49.08 38.31 49.12C38.27 49.16 38.22 49.19 38.18 49.23C38.14 49.27 38.09 49.3 38.05 49.34C38.01 49.38 37.96 49.42 37.92 49.45C37.88 49.49 37.84 49.53 37.79 49.56C37.75 49.6 37.71 49.64 37.67 49.68C37.63 49.72 37.59 49.76 37.55 49.8C37.51 49.84 37.47 49.88 37.43 49.92C37.39 49.96 37.35 50 37.31 50.04C37.27 50.08 37.23 50.12 37.19 50.16C37.15 50.2 37.11 50.24 37.07 50.29C37.03 50.33 36.99 50.37 36.96 50.42C36.92 50.46 36.89 50.51 36.85 50.55C36.81 50.59 36.78 50.64 36.74 50.68C36.7 50.72 36.67 50.77 36.63 50.81C36.59 50.86 36.56 50.9 36.52 50.94C36.49 50.99 36.45 51.03 36.42 51.08C36.39 51.13 36.35 51.17 36.32 51.22C36.29 51.27 36.25 51.31 36.22 51.36C36.19 51.41 36.15 51.45 36.12 51.5C36.09 51.55 36.06 51.6 36.02 51.64C35.99 51.69 35.96 51.74 35.93 51.78C35.9 51.83 35.87 51.88 35.84 51.93C35.81 51.98 35.78 52.03 35.75 52.08C35.72 52.13 35.69 52.18 35.66 52.23C35.63 52.28 35.6 52.33 35.57 52.38C35.54 52.43 35.51 52.48 35.49 52.53C35.46 52.58 35.44 52.63 35.41 52.68C35.38 52.73 35.36 52.78 35.33 52.84C35.3 52.89 35.28 52.94 35.25 53C35.22 53.05 35.2 53.11 35.17 53.16C35.15 53.21 35.12 53.27 35.1 53.32C35.08 53.37 35.05 53.43 35.03 53.48C35.01 53.53 34.98 53.59 34.96 53.64C34.94 53.69 34.92 53.75 34.89 53.8C34.87 53.85 34.85 53.91 34.83 53.96C34.81 54.02 34.79 54.07 34.77 54.13C34.75 54.19 34.73 54.24 34.71 54.3C34.69 54.36 34.67 54.41 34.65 54.47C34.63 54.53 34.61 54.58 34.59 54.64C34.57 54.7 34.55 54.75 34.54 54.81C34.52 54.87 34.51 54.92 34.49 54.98C34.47 55.04 34.46 55.1 34.44 55.15C34.42 55.21 34.41 55.27 34.39 55.32C34.38 55.38 34.36 55.44 34.35 55.5C34.34 55.56 34.32 55.62 34.31 55.68C34.3 55.74 34.28 55.8 34.27 55.86C34.26 55.92 34.25 55.98 34.23 56.04C34.22 56.1 34.21 56.16 34.2 56.22C34.2 56.28 34.18 56.34 34.17 56.4C34.17 56.46 34.15 56.52 34.14 56.58C34.14 56.64 34.12 56.7 34.12 56.76C34.12 56.82 34.11 56.88 34.1 56.94C34.1 57 34.09 57.06 34.08 57.12C34.08 57.18 34.07 57.24 34.06 57.31C34.06 57.37 34.06 57.43 34.05 57.5C34.05 57.56 34.05 57.62 34.04 57.69C34.04 57.75 34.04 57.82 34.04 57.88C34.04 57.94 34.04 58.01 34.04 58.07C34.04 58.13 34.04 58.2 34.04 58.26V58.45C34.04 58.51 34.04 58.58 34.04 58.64C34.04 58.7 34.04 58.77 34.04 58.83C34.04 58.89 34.04 58.96 34.04 59.02C34.04 59.08 34.04 59.14 34.05 59.21C34.05 59.27 34.05 59.33 34.06 59.4C34.06 59.46 34.07 59.52 34.08 59.59C34.08 59.65 34.09 59.71 34.1 59.77C34.1 59.83 34.11 59.89 34.12 59.95C34.12 60.01 34.14 60.07 34.14 60.13C34.14 60.19 34.16 60.25 34.17 60.31C34.17 60.37 34.19 60.43 34.2 60.49C34.21 60.55 34.22 60.61 34.23 60.67C34.24 60.73 34.25 60.79 34.27 60.85C34.28 60.91 34.3 60.97 34.31 61.03C34.32 61.09 34.34 61.15 34.35 61.21C34.36 61.27 34.38 61.33 34.39 61.39C34.41 61.45 34.42 61.51 34.44 61.57C34.46 61.63 34.47 61.69 34.49 61.74C34.51 61.8 34.52 61.86 34.54 61.91C34.56 61.97 34.58 62.02 34.59 62.08C34.61 62.14 34.63 62.19 34.65 62.25C34.67 62.31 34.69 62.36 34.71 62.42C34.73 62.48 34.75 62.53 34.77 62.59C34.79 62.65 34.81 62.7 34.83 62.76C34.85 62.82 34.87 62.87 34.89 62.93C34.91 62.98 34.93 63.04 34.96 63.09C34.98 63.14 35.01 63.2 35.03 63.25C35.05 63.3 35.08 63.36 35.1 63.41C35.12 63.46 35.15 63.52 35.17 63.57C35.2 63.62 35.22 63.68 35.25 63.73C35.28 63.78 35.3 63.84 35.33 63.89C35.36 63.94 35.38 63.99 35.41 64.05C35.44 64.1 35.46 64.15 35.49 64.21C35.52 64.26 35.55 64.31 35.57 64.36C35.6 64.41 35.63 64.46 35.66 64.51C35.69 64.56 35.72 64.61 35.75 64.66C35.78 64.71 35.81 64.76 35.84 64.81C35.87 64.86 35.9 64.91 35.93 64.96C35.96 65.01 35.99 65.06 36.02 65.11C36.05 65.16 36.08 65.21 36.12 65.26C36.15 65.31 36.19 65.36 36.22 65.4C36.25 65.45 36.29 65.5 36.32 65.54C36.35 65.59 36.39 65.63 36.42 65.68C36.45 65.73 36.49 65.77 36.52 65.82C36.56 65.87 36.59 65.91 36.63 65.96C36.67 66.01 36.7 66.05 36.74 66.1C36.78 66.14 36.81 66.19 36.85 66.23C36.89 66.27 36.92 66.32 36.96 66.36C37 66.4 37.04 66.45 37.07 66.49C37.11 66.53 37.15 66.58 37.19 66.62C37.23 66.66 37.27 66.7 37.31 66.75C37.35 66.79 37.39 66.83 37.43 66.87C37.47 66.91 37.51 66.95 37.55 66.99C37.59 67.03 37.63 67.07 37.67 67.11C37.71 67.15 37.75 67.19 37.79 67.23C37.83 67.27 37.87 67.31 37.92 67.35C37.96 67.39 38.01 67.43 38.05 67.47C38.09 67.51 38.14 67.55 38.18 67.58C38.22 67.62 38.27 67.65 38.31 67.69C38.35 67.73 38.4 67.76 38.44 67.8C38.48 67.84 38.53 67.87 38.57 67.91C38.62 67.95 38.66 67.98 38.71 68.02C38.76 68.05 38.8 68.09 38.85 68.12C38.9 68.15 38.94 68.19 38.99 68.22C39.04 68.25 39.08 68.29 39.13 68.32C39.18 68.35 39.22 68.38 39.27 68.42C39.32 68.45 39.37 68.48 39.41 68.51C39.46 68.54 39.51 68.57 39.55 68.6C39.6 68.63 39.65 68.66 39.7 68.69C39.75 68.72 39.8 68.75 39.85 68.78C39.9 68.81 39.95 68.84 40 68.87C40.05 68.9 40.1 68.93 40.15 68.95C40.2 68.98 40.25 69 40.3 69.03C40.35 69.06 40.4 69.08 40.45 69.11C40.5 69.14 40.55 69.16 40.6 69.19C40.65 69.21 40.7 69.24 40.76 69.26C40.81 69.28 40.86 69.31 40.92 69.33C40.97 69.35 41.03 69.38 41.08 69.4C41.13 69.42 41.19 69.44 41.24 69.47C41.29 69.49 41.35 69.51 41.4 69.54C41.45 69.56 41.51 69.58 41.56 69.6C41.61 69.62 41.67 69.64 41.72 69.66C41.77 69.68 41.83 69.7 41.88 69.72C41.93 69.74 41.99 69.76 42.04 69.78C42.1 69.8 42.15 69.81 42.21 69.83C42.27 69.85 42.32 69.86 42.38 69.88C42.44 69.9 42.49 69.91 42.55 69.93C42.61 69.94 42.66 69.96 42.72 69.97C42.78 69.98 42.83 70 42.89 70.01C42.95 70.02 43 70.04 43.06 70.05C43.12 70.06 43.17 70.07 43.23 70.09C43.29 70.1 43.35 70.11 43.4 70.12C43.46 70.13 43.52 70.14 43.57 70.15C43.63 70.15 43.69 70.17 43.74 70.18C43.8 70.18 43.86 70.2 43.92 70.21C43.98 70.21 44.04 70.23 44.1 70.23C44.16 70.23 44.22 70.24 44.28 70.25C44.34 70.25 44.4 70.26 44.46 70.27C44.52 70.27 44.58 70.27 44.64 70.28C44.7 70.28 44.76 70.28 44.82 70.29C44.88 70.29 44.94 70.29 45 70.29C45.06 70.29 45.12 70.29 45.18 70.29C45.24 70.29 45.3 70.29 45.36 70.29C45.42 70.29 45.48 70.29 45.54 70.29C45.6 70.29 45.66 70.29 45.72 70.29C45.78 70.29 45.84 70.29 45.9 70.29C45.96 70.29 46.02 70.29 46.08 70.29C46.14 70.29 46.2 70.29 46.26 70.28C46.32 70.28 46.38 70.28 46.44 70.27C46.5 70.27 46.56 70.26 46.62 70.25C46.68 70.25 46.74 70.24 46.8 70.23C46.86 70.23 46.92 70.21 46.98 70.21C47.04 70.21 47.1 70.19 47.15 70.18C47.21 70.18 47.27 70.16 47.32 70.15C47.38 70.14 47.44 70.13 47.49 70.12C47.55 70.11 47.61 70.1 47.66 70.09C47.72 70.08 47.77 70.07 47.83 70.05C47.89 70.04 47.94 70.02 48 70.01C48.06 70 48.11 69.98 48.17 69.97C48.23 69.96 48.28 69.94 48.34 69.93C48.4 69.91 48.45 69.9 48.51 69.88C48.57 69.86 48.62 69.85 48.68 69.83C48.74 69.81 48.79 69.8 48.85 69.78C48.9 69.76 48.96 69.74 49.01 69.73C49.06 69.71 49.12 69.69 49.17 69.67C49.22 69.65 49.28 69.63 49.33 69.61C49.38 69.59 49.44 69.57 49.49 69.55C49.54 69.53 49.6 69.51 49.65 69.49C49.7 69.47 49.76 69.45 49.81 69.42C49.86 69.4 49.91 69.37 49.97 69.35C50.02 69.33 50.07 69.3 50.13 69.28C50.18 69.26 50.23 69.23 50.28 69.21C50.33 69.18 50.38 69.16 50.43 69.13C50.48 69.1 50.53 69.08 50.58 69.05C50.63 69.02 50.68 69 50.73 68.97C50.78 68.94 50.83 68.92 50.88 68.89C50.93 68.86 50.98 68.83 51.03 68.81C51.08 68.78 51.13 68.75 51.18 68.72C51.23 68.69 51.28 68.66 51.33 68.63C51.38 68.6 51.43 68.57 51.47 68.54C51.52 68.51 51.57 68.48 51.61 68.45C51.66 68.42 51.7 68.39 51.75 68.35C51.8 68.32 51.84 68.29 51.89 68.25C51.94 68.22 51.98 68.18 52.03 68.15C52.08 68.12 52.12 68.08 52.17 68.05C52.22 68.02 52.26 67.98 52.31 67.95C52.35 67.91 52.4 67.88 52.44 67.84C52.48 67.8 52.53 67.77 52.57 67.73C52.61 67.69 52.66 67.66 52.7 67.62C52.74 67.58 52.79 67.55 52.83 67.51C52.87 67.47 52.92 67.43 52.96 67.4C53 67.36 53.04 67.32 53.09 67.28C53.13 67.24 53.17 67.2 53.21 67.16C53.25 67.12 53.29 67.08 53.33 67.04C53.37 67 53.41 66.96 53.45 66.92C53.49 66.88 53.53 66.84 53.57 66.8C53.61 66.76 53.65 66.72 53.69 66.67C53.73 66.63 53.77 66.59 53.8 66.54C53.84 66.5 53.88 66.45 53.91 66.41C53.95 66.37 53.98 66.32 54.02 66.28C54.06 66.24 54.09 66.19 54.13 66.15C54.17 66.11 54.2 66.06 54.24 66.02C54.28 65.97 54.31 65.93 54.35 65.88C54.38 65.83 54.42 65.79 54.45 65.74C54.48 65.69 54.52 65.65 54.55 65.6C54.58 65.55 54.62 65.51 54.65 65.46C54.68 65.41 54.72 65.37 54.75 65.32C54.78 65.27 54.81 65.22 54.85 65.18C54.88 65.13 54.91 65.08 54.94 65.04C54.97 64.99 55 64.94 55.03 64.89C55.06 64.84 55.09 64.79 55.12 64.74C55.15 64.69 55.18 64.64 55.21 64.59C55.24 64.54 55.27 64.49 55.3 64.44C55.33 64.39 55.36 64.34 55.38 64.29C55.41 64.24 55.43 64.19 55.46 64.14C55.49 64.09 55.51 64.04 55.54 63.99C55.57 63.94 55.59 63.89 55.62 63.83C55.64 63.78 55.67 63.73 55.69 63.67C55.71 63.62 55.74 63.56 55.76 63.51C55.78 63.46 55.81 63.4 55.83 63.35C55.85 63.3 55.88 63.24 55.9 63.19C55.92 63.14 55.94 63.08 55.97 63.03C55.99 62.98 56.01 62.92 56.03 62.87C56.05 62.81 56.07 62.76 56.09 62.7C56.11 62.64 56.13 62.59 56.15 62.53C56.17 62.47 56.19 62.42 56.21 62.36C56.23 62.3 56.25 62.25 56.26 62.19C56.28 62.13 56.29 62.08 56.31 62.02C56.33 61.96 56.34 61.91 56.36 61.85C56.38 61.79 56.39 61.74 56.41 61.68C56.42 61.62 56.44 61.56 56.45 61.51C56.46 61.45 56.48 61.39 56.49 61.34C56.5 61.28 56.52 61.22 56.53 61.17C56.54 61.11 56.55 61.05 56.57 60.99C56.58 60.93 56.59 60.87 56.6 60.81C56.61 60.75 56.62 60.69 56.63 60.63C56.63 60.57 56.65 60.51 56.66 60.45C56.66 60.39 56.68 60.33 56.69 60.27C56.69 60.21 56.71 60.15 56.71 60.09C56.71 60.03 56.72 59.97 56.73 59.91C56.73 59.85 56.74 59.79 56.75 59.73C56.75 59.67 56.76 59.61 56.77 59.55C56.77 59.49 56.77 59.43 56.78 59.37C56.78 59.31 56.78 59.25 56.78 59.18C56.78 59.12 56.78 59.06 56.78 58.99C56.78 58.93 56.78 58.87 56.78 58.8C56.78 58.74 56.78 58.68 56.78 58.61C56.78 58.55 56.78 58.49 56.78 58.42V58.43Z" fill="#C8C9CA"/>
<path d="M42.87 42.02V42.59C44.55 42.63 46.24 42.67 47.92 42.71V42.14C46.24 42.1 44.55 42.06 42.87 42.02Z" fill="#717071"/>
<path d="M43.41 40.2599C43.8 40.2599 44.18 40.2799 44.57 40.2899V39.7199C44.22 39.7199 43.87 39.6999 43.53 39.6899C43.53 39.6899 43.52 39.6899 43.51 39.6899C43.51 39.6899 43.5 39.6899 43.49 39.6899C43.47 39.6899 43.46 39.6899 43.44 39.6899C43.44 39.6899 43.42 39.6899 43.41 39.6899C43.41 39.6899 43.4 39.6899 43.39 39.6899C43.39 39.6899 43.38 39.6899 43.37 39.6899C43.37 39.6899 43.35 39.6899 43.34 39.6999C43.34 39.6999 43.32 39.6999 43.32 39.7099C43.32 39.7099 43.31 39.7099 43.3 39.7199C43.3 39.7199 43.3 39.7199 43.29 39.7299C43.29 39.7299 43.29 39.7299 43.28 39.7399C43.28 39.7399 43.28 39.7399 43.27 39.7499C43.27 39.7499 43.27 39.7499 43.27 39.7599C43.27 39.7599 43.27 39.7599 43.27 39.7699C43.27 39.7699 43.27 39.7699 43.27 39.7799C43.27 39.7799 43.27 39.7799 43.27 39.7899C43.27 39.7899 43.27 39.7899 43.27 39.7999C43.27 39.7999 43.27 39.7999 43.27 39.8099C43.27 39.8099 43.27 39.8099 43.27 39.8199C43.27 39.8199 43.27 39.8199 43.27 39.8299C43.27 39.8299 43.27 39.8299 43.27 39.8399C43.27 39.8399 43.27 39.8399 43.27 39.8499C43.27 39.8499 43.27 39.8499 43.27 39.8599C43.27 39.8599 43.27 39.8599 43.27 39.8699C43.27 39.8699 43.27 39.8699 43.27 39.8799C43.27 39.8799 43.27 39.8799 43.27 39.8899C43.27 39.8899 43.27 39.8899 43.27 39.8999C43.27 39.8999 43.27 39.8999 43.27 39.9099C43.27 39.9099 43.27 39.9199 43.27 39.9299V40.9899C43.45 40.9899 43.63 40.9899 43.82 40.9999V39.7899L43.41 40.2599Z" fill="#717071"/>
<path d="M47.92 40.4899V40.4699C47.92 40.4699 47.92 40.4699 47.92 40.4599C47.92 40.4599 47.92 40.4499 47.92 40.4399C47.92 40.4399 47.92 40.4399 47.92 40.4299C47.92 40.4299 47.92 40.4299 47.92 40.4199C47.92 40.4099 47.92 40.3899 47.92 40.3799C47.92 40.3799 47.92 40.3799 47.92 40.3699C47.92 40.3699 47.92 40.3699 47.92 40.3599C47.92 40.3599 47.92 40.3599 47.92 40.3499C47.92 40.3499 47.92 40.3499 47.92 40.3399C47.92 40.3199 47.91 40.3099 47.9 40.2899C47.9 40.2899 47.9 40.2799 47.9 40.2699C47.9 40.2699 47.9 40.2599 47.89 40.2499C47.89 40.2499 47.89 40.2499 47.88 40.2399C47.88 40.2399 47.86 40.2199 47.85 40.2199C47.83 40.2099 47.82 40.1999 47.8 40.1899C47.8 40.1899 47.79 40.1899 47.78 40.1899C47.77 40.1899 47.75 40.1899 47.74 40.1899C47.74 40.1899 47.73 40.1899 47.72 40.1899C47.72 40.1899 47.72 40.1899 47.71 40.1899C47.71 40.1899 47.71 40.1899 47.7 40.1899C47.35 40.1899 47 40.1699 46.66 40.1599V40.7299C47.05 40.7299 47.43 40.7499 47.82 40.7599C47.82 41.1599 47.82 41.5599 47.82 41.9599C48 41.9599 48.18 41.9599 48.37 41.9699V40.8899C48.37 40.8899 48.37 40.8899 48.37 40.8799L47.92 40.4899Z" fill="#717071"/>
<path d="M47.37 44.46C46.98 44.46 46.6 44.44 46.21 44.43V45C46.56 45 46.91 45.01 47.25 45.02C47.25 45.02 47.26 45.02 47.27 45.02C47.27 45.02 47.28 45.02 47.29 45.02C47.31 45.02 47.32 45.02 47.34 45.02C47.34 45.02 47.36 45.02 47.37 45.02C47.37 45.02 47.38 45.02 47.39 45.02C47.39 45.02 47.4 45.02 47.41 45.02C47.41 45.02 47.43 45.02 47.44 45.01C47.44 45.01 47.46 45.01 47.46 45C47.46 45 47.47 45 47.48 44.99C47.48 44.99 47.49 44.99 47.49 44.98C47.49 44.98 47.49 44.98 47.5 44.97C47.5 44.97 47.5 44.97 47.51 44.96C47.51 44.96 47.51 44.96 47.51 44.95C47.51 44.95 47.51 44.95 47.51 44.94C47.51 44.94 47.51 44.94 47.51 44.93C47.51 44.93 47.51 44.93 47.51 44.92C47.51 44.92 47.51 44.92 47.51 44.91C47.51 44.91 47.51 44.91 47.51 44.9C47.51 44.9 47.51 44.9 47.51 44.89C47.51 44.89 47.51 44.89 47.51 44.88C47.51 44.88 47.51 44.88 47.51 44.87C47.51 44.86 47.51 44.87 47.51 44.86C47.51 44.86 47.51 44.86 47.51 44.85C47.51 44.85 47.51 44.85 47.51 44.84C47.51 44.84 47.51 44.84 47.51 44.83C47.51 44.83 47.51 44.83 47.51 44.82C47.51 44.82 47.51 44.82 47.51 44.81C47.51 44.81 47.51 44.81 47.51 44.8C47.51 44.8 47.51 44.79 47.51 44.78V43.72C47.33 43.72 47.15 43.72 46.96 43.71V44.91L47.37 44.46Z" fill="#717071"/>
<path d="M43.41 43.1699C43.23 43.1699 43.05 43.17 42.86 43.16V44.24C42.86 44.24 42.86 44.24 42.86 44.25V44.27C42.86 44.27 42.86 44.2699 42.86 44.2799C42.86 44.2799 42.86 44.2899 42.86 44.2999C42.86 44.2999 42.86 44.3 42.86 44.31C42.86 44.31 42.86 44.31 42.86 44.32C42.86 44.33 42.86 44.35 42.86 44.36C42.86 44.36 42.86 44.3599 42.86 44.3699C42.86 44.3699 42.86 44.37 42.86 44.38C42.86 44.38 42.86 44.3799 42.86 44.3899C42.86 44.3899 42.86 44.39 42.86 44.4C42.86 44.42 42.87 44.43 42.88 44.45C42.88 44.45 42.88 44.46 42.88 44.47C42.88 44.47 42.88 44.48 42.89 44.49C42.89 44.49 42.89 44.49 42.9 44.5C42.9 44.5 42.92 44.52 42.93 44.52C42.95 44.53 42.96 44.5399 42.98 44.5499C42.98 44.5499 42.99 44.5499 43 44.5499C43.01 44.5499 43.03 44.5499 43.04 44.5499C43.04 44.5499 43.05 44.5499 43.06 44.5499C43.06 44.5499 43.06 44.5499 43.07 44.5499C43.07 44.5499 43.07 44.5499 43.08 44.5499C43.43 44.5499 43.78 44.56 44.12 44.57V44C43.73 44 43.35 43.98 42.96 43.97V42.7599L43.41 43.1699Z" fill="#717071"/>
<path d="M38.51 24.0699C38.51 24.0699 38.51 24.0699 38.51 24.0599" stroke="#888888" stroke-width="0.5" stroke-linecap="round" stroke-linejoin="round"/>
<path d="M38.52 24.05C38.52 24.05 38.52 24.05 38.52 24.04" stroke="#888888" stroke-width="0.5" stroke-linecap="round" stroke-linejoin="round"/>
<path d="M38.65 23.9C38.65 23.9 38.65 23.9 38.66 23.9" stroke="#888888" stroke-width="0.5" stroke-linecap="round" stroke-linejoin="round"/>
<path d="M38.67 23.8799C38.67 23.8799 38.68 23.8799 38.69 23.8799" stroke="#888888" stroke-width="0.5" stroke-linecap="round" stroke-linejoin="round"/>
<path d="M38.48 24.18C38.48 24.18 38.48 24.18 38.48 24.17" stroke="#888888" stroke-width="0.5" stroke-linecap="round" stroke-linejoin="round"/>
<path d="M38.48 24.16C38.48 24.16 38.48 24.16 38.48 24.15" stroke="#888888" stroke-width="0.5" stroke-linecap="round" stroke-linejoin="round"/>
<path d="M52.19 25.0099C52.19 25.0099 52.19 25.0099 52.18 25.0199" stroke="#888888" stroke-width="0.5" stroke-linecap="round" stroke-linejoin="round"/>
<path d="M38.71 23.86C38.71 23.86 38.71 23.86 38.72 23.86" stroke="#888888" stroke-width="0.5" stroke-linecap="round" stroke-linejoin="round"/>
<path d="M38.72 23.86C38.72 23.86 38.72 23.86 38.73 23.86" stroke="#888888" stroke-width="0.5" stroke-linecap="round" stroke-linejoin="round"/>
<path d="M38.48 24.23C38.48 24.23 38.48 24.23 38.48 24.22" stroke="#888888" stroke-width="0.5" stroke-linecap="round" stroke-linejoin="round"/>
<path d="M52.28 24.86C52.28 24.86 52.28 24.86 52.28 24.87" stroke="#888888" stroke-width="0.5" stroke-linecap="round" stroke-linejoin="round"/>
<path d="M52.27 24.8799C52.27 24.8799 52.27 24.8799 52.27 24.8899" stroke="#888888" stroke-width="0.5" stroke-linecap="round" stroke-linejoin="round"/>
<path d="M52.05 25.1C52.05 25.1 52.04 25.1 52.03 25.1" stroke="#888888" stroke-width="0.5" stroke-linecap="round" stroke-linejoin="round"/>
<path d="M52.07 25.09C52.07 25.09 52.06 25.09 52.05 25.09" stroke="#888888" stroke-width="0.5" stroke-linecap="round" stroke-linejoin="round"/>
<path d="M52.3 24.7399C52.3 24.7399 52.3 24.7399 52.3 24.7499" stroke="#888888" stroke-width="0.5" stroke-linecap="round" stroke-linejoin="round"/>
<path d="M52.3 24.7599C52.3 24.7599 52.3 24.7599 52.3 24.7699" stroke="#888888" stroke-width="0.5" stroke-linecap="round" stroke-linejoin="round"/>
<path d="M52.3 24.6899V24.7399" stroke="#888888" stroke-width="0.5" stroke-linecap="round" stroke-linejoin="round"/>
<path d="M38.49 24.3399C38.49 24.3399 38.49 24.3299 38.49 24.3199" stroke="#888888" stroke-width="0.5" stroke-linecap="round" stroke-linejoin="round"/>
<path d="M38.48 24.3099C38.48 24.3099 38.48 24.3099 38.48 24.2999" stroke="#888888" stroke-width="0.5" stroke-linecap="round" stroke-linejoin="round"/>
<path d="M52.3 24.65C52.3 24.65 52.3 24.67 52.3 24.68" stroke="#888888" stroke-width="0.5" stroke-linecap="round" stroke-linejoin="round"/>
<path d="M52.27 24.53V24.55" stroke="#888888" stroke-width="0.5" stroke-linecap="round" stroke-linejoin="round"/>
<path d="M38.57 24.5099C38.57 24.5099 38.57 24.5099 38.57 24.4999" stroke="#888888" stroke-width="0.5" stroke-linecap="round" stroke-linejoin="round"/>
<path d="M38.56 24.4999C38.56 24.4999 38.56 24.4999 38.56 24.4899" stroke="#888888" stroke-width="0.5" stroke-linecap="round" stroke-linejoin="round"/>
<path d="M52.25 24.5099C52.25 24.5099 52.25 24.5099 52.25 24.5199" stroke="#888888" stroke-width="0.5" stroke-linecap="round" stroke-linejoin="round"/>
<path d="M52.23 24.47C52.23 24.47 52.23 24.47 52.23 24.48" stroke="#888888" stroke-width="0.5" stroke-linecap="round" stroke-linejoin="round"/>
<path d="M52.24 24.48C52.24 24.48 52.24 24.48 52.24 24.49" stroke="#888888" stroke-width="0.5" stroke-linecap="round" stroke-linejoin="round"/>
<path d="M52.22 24.46C52.22 24.46 52.22 24.46 52.22 24.47" stroke="#888888" stroke-width="0.5" stroke-linecap="round" stroke-linejoin="round"/>
<path d="M52.19 24.42C52.19 24.42 52.19 24.42 52.19 24.43" stroke="#888888" stroke-width="0.5" stroke-linecap="round" stroke-linejoin="round"/>
<path d="M52.2 24.4399C52.2 24.4399 52.2 24.4499 52.21 24.4599" stroke="#888888" stroke-width="0.5" stroke-linecap="round" stroke-linejoin="round"/>
<path d="M52.17 24.4C52.17 24.4 52.17 24.4 52.18 24.41" stroke="#888888" stroke-width="0.5" stroke-linecap="round" stroke-linejoin="round"/>
<path d="M38.69 24.6199C38.69 24.6199 38.69 24.6199 38.68 24.6199" stroke="#888888" stroke-width="0.5" stroke-linecap="round" stroke-linejoin="round"/>
<path d="M38.66 24.6C38.66 24.6 38.66 24.6 38.65 24.6" stroke="#888888" stroke-width="0.5" stroke-linecap="round" stroke-linejoin="round"/>
<path d="M52.09 24.34C52.09 24.34 52.09 24.34 52.1 24.34" stroke="#888888" stroke-width="0.5" stroke-linecap="round" stroke-linejoin="round"/>
<path d="M38.78 24.66C38.78 24.66 38.77 24.66 38.76 24.66" stroke="#888888" stroke-width="0.5" stroke-linecap="round" stroke-linejoin="round"/>
<path d="M52.03 24.3099C52.03 24.3099 52.03 24.3099 52.04 24.3099" stroke="#888888" stroke-width="0.5" stroke-linecap="round" stroke-linejoin="round"/>
<path d="M52.07 24.33C52.07 24.33 52.07 24.33 52.08 24.33" stroke="#888888" stroke-width="0.5" stroke-linecap="round" stroke-linejoin="round"/>
<path d="M52.05 24.3199C52.05 24.3199 52.06 24.3199 52.07 24.3199" stroke="#888888" stroke-width="0.5" stroke-linecap="round" stroke-linejoin="round"/>
<path d="M51.99 24.2999C51.99 24.2999 51.99 24.2999 52 24.2999" stroke="#888888" stroke-width="0.5" stroke-linecap="round" stroke-linejoin="round"/>
<path d="M38.8 24.67H38.78" stroke="#888888" stroke-width="0.5" stroke-linecap="round" stroke-linejoin="round"/>
<path d="M38.86 24.6799C38.86 24.6799 38.86 24.6799 38.85 24.6799" stroke="#888888" stroke-width="0.5" stroke-linecap="round" stroke-linejoin="round"/>
<path d="M51.94 24.28C51.94 24.28 51.94 24.28 51.95 24.28" stroke="#888888" stroke-width="0.5" stroke-linecap="round" stroke-linejoin="round"/>
<path d="M38.84 24.67C38.84 24.67 38.83 24.67 38.82 24.67" stroke="#888888" stroke-width="0.5" stroke-linecap="round" stroke-linejoin="round"/>
<path d="M38.82 24.67C38.82 24.67 38.82 24.67 38.81 24.67" stroke="#888888" stroke-width="0.5" stroke-linecap="round" stroke-linejoin="round"/>
<path d="M51.91 25.12C47.56 24.97 43.21 24.82 38.86 24.67" stroke="#888888" stroke-width="0.5" stroke-linecap="round" stroke-linejoin="round"/>
<path d="M38.86 23.83C38.86 23.83 38.86 23.83 38.87 23.83" stroke="#888888" stroke-width="0.5" stroke-linecap="round" stroke-linejoin="round"/>
<path d="M38.88 23.83C43.22 23.98 47.57 24.13 51.91 24.28" stroke="#888888" stroke-width="0.5" stroke-linecap="round" stroke-linejoin="round"/>
<path d="M52 25.11C52 25.11 52 25.11 51.99 25.11" stroke="#888888" stroke-width="0.5" stroke-linecap="round" stroke-linejoin="round"/>
<path d="M38.81 23.83C38.81 23.83 38.81 23.83 38.82 23.83" stroke="#888888" stroke-width="0.5" stroke-linecap="round" stroke-linejoin="round"/>
<path d="M38.83 23.83C38.83 23.83 38.83 23.83 38.84 23.83" stroke="#888888" stroke-width="0.5" stroke-linecap="round" stroke-linejoin="round"/>
<path d="M51.95 25.1199C51.95 25.1199 51.95 25.1199 51.94 25.1199" stroke="#888888" stroke-width="0.5" stroke-linecap="round" stroke-linejoin="round"/>
<path d="M38.85 23.83C38.85 23.83 38.85 23.83 38.86 23.83" stroke="#888888" stroke-width="0.5" stroke-linecap="round" stroke-linejoin="round"/>
<path d="M38.76 23.84C38.76 23.84 38.76 23.84 38.77 23.84" stroke="#888888" stroke-width="0.5" stroke-linecap="round" stroke-linejoin="round"/>
<path d="M38.78 23.84C38.78 23.84 38.78 23.84 38.79 23.84" stroke="#888888" stroke-width="0.5" stroke-linecap="round" stroke-linejoin="round"/>
<path d="M41.05 130.31C41.05 130.77 41.05 131.22 41.05 131.68C41.05 131.77 41.05 131.91 40.98 131.98C40.93 132.03 40.85 132.06 40.74 132.07C40.62 132.07 40.51 132.07 40.39 132.08C40.33 132.08 40.23 132.08 40.16 132.01C40.1 131.95 40.07 131.85 40.07 131.71C40.07 131.25 40.07 130.8 40.07 130.34C39.92 130.34 39.78 130.35 39.63 130.36C39.63 130.82 39.63 131.28 39.63 131.74C39.63 131.88 39.66 132.56 40.28 132.54C40.47 132.54 40.67 132.53 40.86 132.52C41.1 132.52 41.49 132.39 41.49 131.67C41.49 131.21 41.49 130.75 41.49 130.29L41.05 130.31Z" fill="#888888"/>
<path d="M38.61 131.2C38.45 131.18 38.29 131.17 38.13 131.15C38.01 131.13 37.91 131.11 37.91 130.98C37.91 130.78 37.97 130.72 38.36 130.71C38.39 130.71 38.43 130.71 38.46 130.71C38.69 130.71 38.91 130.73 39.17 130.79C39.18 130.79 39.19 130.79 39.2 130.79C39.2 130.68 39.2 130.58 39.2 130.47C39.16 130.39 38.8 130.27 38.45 130.29C38.42 130.29 38.38 130.29 38.35 130.29C37.75 130.31 37.47 130.55 37.47 131.03C37.47 131.48 37.84 131.57 38.18 131.61C38.25 131.61 38.32 131.63 38.39 131.63C38.55 131.64 38.64 131.66 38.69 131.68C38.78 131.72 38.83 131.75 38.83 131.9C38.83 132.15 38.67 132.19 38.32 132.2C38.29 132.2 38.25 132.2 38.22 132.2C38.01 132.2 37.77 132.16 37.5 132.05C37.49 132.05 37.48 132.05 37.47 132.04C37.47 132.14 37.47 132.25 37.47 132.35C37.47 132.48 37.83 132.62 38.24 132.61C38.27 132.61 38.3 132.61 38.33 132.61C38.99 132.59 39.3 132.34 39.3 131.84C39.3 131.36 38.95 131.25 38.62 131.2" fill="#888888"/>
<path d="M43 130.14C43 130.14 42.96 130.14 42.94 130.14C42.14 130.17 41.84 130.49 41.84 131.34C41.84 131.72 41.84 132.1 41.84 132.48C42 132.48 42.15 132.47 42.31 132.46C42.31 132.08 42.31 131.7 42.31 131.32C42.31 130.68 42.45 130.57 42.86 130.55C42.9 130.55 42.93 130.55 42.97 130.55C43.37 130.54 43.44 130.65 43.44 130.95C43.44 131.13 43.38 131.35 43.22 131.35C42.97 131.35 42.73 131.35 42.48 131.36C42.48 131.47 42.48 131.58 42.48 131.7C42.48 131.7 42.49 131.7 42.5 131.7C42.65 131.72 42.91 131.73 43.11 131.72C43.8 131.7 43.91 131.3 43.91 130.97C43.91 130.43 43.57 130.11 43 130.13" fill="#888888"/>
<path d="M45.49 130.09C45.37 130.07 45.08 130.07 44.94 130.08C44.68 130.08 44.25 130.21 44.25 130.94C44.25 131.43 44.25 131.92 44.25 132.41C44.4 132.41 44.56 132.4 44.71 132.39C44.71 131.91 44.71 131.43 44.71 130.96C44.71 130.57 44.78 130.53 45.07 130.52C45.21 130.52 45.35 130.52 45.49 130.51C45.49 130.37 45.49 130.24 45.49 130.1V130.09Z" fill="#888888"/>
<path d="M46.91 131.89C46.91 131.89 46.85 131.89 46.82 131.89C46.43 131.9 46.19 131.86 46.19 131.2C46.19 130.56 46.33 130.45 46.74 130.43H46.85C47.24 130.41 47.32 130.48 47.32 130.78C47.32 130.93 47.25 131 47.1 131.01C46.85 131.01 46.61 131.03 46.36 131.04C46.36 131.15 46.36 131.25 46.36 131.36C46.36 131.36 46.37 131.36 46.38 131.36C46.53 131.38 46.79 131.39 46.99 131.38C47.29 131.37 47.79 131.29 47.79 130.7C47.79 130.09 47.3 130.01 46.88 130.02C46.86 130.02 46.84 130.02 46.81 130.02C46.01 130.05 45.71 130.37 45.71 131.22C45.71 132.03 46.02 132.35 46.77 132.32C46.79 132.32 46.81 132.32 46.83 132.32C47.3 132.3 47.71 132.16 47.71 132.01C47.71 131.92 47.71 131.83 47.71 131.74C47.7 131.74 47.69 131.74 47.68 131.74C47.4 131.83 47.19 131.88 46.91 131.89Z" fill="#888888"/>
<path d="M50.9 130.72C50.9 130.32 50.76 130.13 50.6 130.03C50.6 130.03 50.43 129.9 50.13 129.91C49.98 129.91 49.87 129.94 49.78 129.97C49.66 130.01 49.58 130.07 49.54 130.12C49.53 130.13 49.52 130.14 49.52 130.14C49.52 130.14 49.36 129.93 48.91 129.95C48.71 129.95 48.57 130.02 48.5 130.06C48.5 130.06 48.5 130.06 48.49 130.06C48.19 130.24 48.15 130.62 48.15 130.8C48.15 131.28 48.15 131.76 48.15 132.24C48.29 132.24 48.43 132.23 48.57 132.22C48.57 131.74 48.57 131.26 48.57 130.78C48.57 130.56 48.61 130.36 48.93 130.35C49.26 130.34 49.32 130.49 49.32 130.76C49.32 131.24 49.32 131.72 49.32 132.2C49.46 132.2 49.61 132.19 49.75 132.18C49.75 131.7 49.75 131.22 49.75 130.74C49.75 130.45 49.86 130.31 50.11 130.3C50.38 130.3 50.5 130.42 50.5 130.71C50.5 131.19 50.5 131.67 50.5 132.15C50.64 132.15 50.78 132.14 50.92 132.13C50.92 131.65 50.92 131.17 50.92 130.69L50.9 130.72Z" fill="#888888"/>
<path d="M52.14 130.26C52.14 130.26 52.2 130.26 52.23 130.26C52.62 130.25 52.86 130.29 52.86 130.95C52.86 131.59 52.72 131.7 52.31 131.71C52.27 131.71 52.24 131.71 52.2 131.71C51.81 131.72 51.73 131.66 51.73 131.36C51.73 131.21 51.8 131.14 51.95 131.14C52.2 131.14 52.44 131.12 52.69 131.11C52.69 131 52.69 130.9 52.69 130.79C52.69 130.79 52.68 130.79 52.67 130.79C52.52 130.77 52.26 130.76 52.06 130.77C51.76 130.78 51.26 130.86 51.26 131.45C51.26 132.06 51.75 132.14 52.17 132.13C52.19 132.13 52.21 132.13 52.24 132.13C53.04 132.1 53.34 131.78 53.34 130.94C53.34 130.14 53.03 129.82 52.28 129.84C52.26 129.84 52.24 129.84 52.22 129.84C51.75 129.86 51.34 130 51.34 130.15C51.34 130.24 51.34 130.33 51.34 130.42C51.35 130.42 51.36 130.42 51.37 130.41C51.65 130.32 51.86 130.27 52.14 130.26Z" fill="#888888"/>
<path d="M47.98 58.47C47.98 58.47 47.98 58.44 47.98 58.43C47.98 58.42 47.98 58.4 47.98 58.39C47.98 58.38 47.98 58.36 47.98 58.35C47.98 58.34 47.98 58.32 47.98 58.31C47.98 58.3 47.98 58.28 47.98 58.27C47.98 58.26 47.98 58.24 47.98 58.23C47.98 58.22 47.98 58.2 47.98 58.19C47.98 58.18 47.98 58.16 47.98 58.15C47.98 58.14 47.98 58.12 47.98 58.11C47.98 58.1 47.98 58.08 47.98 58.07C47.98 58.06 47.98 58.04 47.98 58.03C47.98 58.02 47.98 58 47.98 57.99C47.98 57.98 47.98 57.96 47.98 57.95C47.98 57.94 47.98 57.93 47.98 57.91C47.98 57.9 47.98 57.89 47.98 57.87C47.98 57.86 47.98 57.85 47.98 57.83C47.98 57.82 47.98 57.81 47.98 57.79C47.98 57.78 47.98 57.77 47.97 57.75C47.97 57.74 47.97 57.73 47.96 57.71C47.96 57.7 47.96 57.69 47.95 57.67C47.95 57.66 47.95 57.65 47.94 57.63C47.94 57.62 47.94 57.61 47.93 57.59C47.93 57.58 47.93 57.57 47.92 57.55C47.92 57.54 47.92 57.53 47.91 57.51C47.91 57.5 47.91 57.49 47.9 57.48C47.9 57.47 47.9 57.46 47.89 57.45C47.89 57.44 47.89 57.43 47.88 57.42C47.88 57.41 47.87 57.4 47.86 57.39C47.86 57.38 47.85 57.37 47.84 57.36C47.84 57.35 47.83 57.34 47.82 57.33C47.82 57.32 47.81 57.31 47.8 57.3C47.8 57.29 47.79 57.28 47.78 57.27C47.78 57.26 47.77 57.25 47.76 57.24C47.76 57.23 47.75 57.22 47.74 57.21C47.74 57.2 47.73 57.19 47.72 57.18C47.72 57.17 47.71 57.16 47.7 57.15C47.7 57.14 47.69 57.13 47.68 57.12C47.68 57.11 47.67 57.1 47.66 57.09C47.66 57.08 47.65 57.07 47.64 57.06C47.64 57.05 47.63 57.04 47.62 57.03C47.62 57.02 47.61 57.01 47.6 57C47.6 57 47.59 56.98 47.58 56.97C47.58 56.97 47.57 56.95 47.56 56.94C47.56 56.94 47.55 56.92 47.54 56.91C47.54 56.91 47.52 56.89 47.52 56.88C47.52 56.88 47.5 56.86 47.5 56.85C47.5 56.85 47.48 56.83 47.48 56.82C47.48 56.82 47.46 56.8 47.46 56.79C47.46 56.79 47.44 56.77 47.44 56.76C47.44 56.76 47.42 56.74 47.42 56.73C47.42 56.73 47.4 56.71 47.4 56.7C47.4 56.7 47.38 56.68 47.37 56.67C47.37 56.67 47.35 56.65 47.34 56.64C47.34 56.64 47.32 56.62 47.31 56.61C47.31 56.61 47.29 56.59 47.28 56.58C47.28 56.58 47.26 56.56 47.25 56.56C47.25 56.56 47.23 56.54 47.22 56.54C47.22 56.54 47.2 56.52 47.19 56.52C47.19 56.52 47.17 56.5 47.16 56.5L47.13 56.48C47.13 56.48 47.11 56.46 47.1 56.46C47.1 56.46 47.08 56.45 47.07 56.44C47.07 56.44 47.05 56.43 47.04 56.42C47.04 56.42 47.02 56.41 47.01 56.4C47.01 56.4 46.99 56.39 46.98 56.38C46.97 56.38 46.96 56.37 46.95 56.36C46.94 56.36 46.93 56.35 46.92 56.34C46.91 56.34 46.9 56.33 46.89 56.32C46.88 56.32 46.87 56.31 46.86 56.3C46.85 56.3 46.84 56.29 46.83 56.28C46.82 56.28 46.81 56.27 46.8 56.26C46.79 56.26 46.78 56.25 46.77 56.24C46.76 56.24 46.75 56.23 46.74 56.22C46.73 56.22 46.72 56.21 46.71 56.2C46.7 56.2 46.69 56.19 46.68 56.18C46.67 56.18 46.66 56.17 46.65 56.16C46.64 56.16 46.63 56.15 46.62 56.14C46.61 56.14 46.6 56.14 46.59 56.13H46.56C46.56 56.13 46.54 56.11 46.53 56.1C46.52 56.1 46.51 56.1 46.5 56.09C46.49 56.09 46.48 56.09 46.47 56.08C46.46 56.08 46.45 56.08 46.44 56.07C46.43 56.07 46.42 56.07 46.41 56.06C46.4 56.06 46.39 56.06 46.37 56.05C46.36 56.05 46.35 56.05 46.33 56.04C46.32 56.04 46.31 56.04 46.29 56.04C46.28 56.04 46.27 56.04 46.25 56.04C46.24 56.04 46.23 56.04 46.21 56.04C46.2 56.04 46.19 56.04 46.17 56.04C46.16 56.04 46.15 56.04 46.13 56.04C46.12 56.04 46.11 56.04 46.09 56.04C46.08 56.04 46.07 56.04 46.05 56.04C46.04 56.04 46.03 56.04 46.01 56.04C46 56.04 45.99 56.04 45.97 56.04C45.96 56.04 45.95 56.04 45.93 56.04C45.92 56.04 45.9 56.04 45.89 56.04C45.88 56.04 45.86 56.04 45.85 56.04C45.84 56.04 45.82 56.04 45.81 56.04C45.8 56.04 45.78 56.04 45.77 56.04C45.76 56.04 45.74 56.04 45.73 56.04C45.72 56.04 45.7 56.04 45.69 56.04C45.68 56.04 45.66 56.04 45.65 56.04C45.64 56.04 45.62 56.04 45.61 56.04C45.6 56.04 45.58 56.04 45.57 56.04C45.56 56.04 45.54 56.04 45.53 56.04C45.52 56.04 45.5 56.04 45.49 56.04C45.48 56.04 45.46 56.04 45.45 56.04C45.44 56.04 45.42 56.04 45.41 56.04C45.4 56.04 45.39 56.04 45.37 56.04C45.36 56.04 45.35 56.04 45.33 56.04C45.32 56.04 45.31 56.04 45.29 56.04C45.28 56.04 45.27 56.04 45.25 56.04C45.24 56.04 45.23 56.04 45.21 56.04C45.2 56.04 45.19 56.04 45.17 56.04C45.16 56.04 45.15 56.04 45.13 56.04C45.12 56.04 45.11 56.04 45.09 56.04C45.08 56.04 45.07 56.04 45.05 56.04C45.04 56.04 45.03 56.04 45.01 56.04C45 56.04 44.99 56.04 44.97 56.04C44.96 56.04 44.95 56.04 44.93 56.04C44.92 56.04 44.91 56.04 44.89 56.05C44.88 56.05 44.87 56.05 44.86 56.06C44.85 56.06 44.84 56.06 44.83 56.07C44.82 56.07 44.81 56.07 44.8 56.08C44.79 56.08 44.78 56.08 44.77 56.09C44.76 56.09 44.75 56.09 44.74 56.1C44.73 56.1 44.72 56.1 44.71 56.11C44.7 56.11 44.69 56.11 44.68 56.12C44.67 56.12 44.66 56.12 44.65 56.13C44.64 56.13 44.63 56.14 44.62 56.15C44.61 56.15 44.6 56.16 44.59 56.17C44.58 56.17 44.57 56.18 44.56 56.19C44.55 56.19 44.54 56.2 44.53 56.21C44.52 56.21 44.51 56.22 44.5 56.23C44.49 56.23 44.48 56.24 44.47 56.25C44.46 56.25 44.45 56.26 44.44 56.27C44.43 56.27 44.42 56.28 44.41 56.29C44.4 56.29 44.39 56.3 44.38 56.31C44.37 56.31 44.36 56.32 44.35 56.33C44.35 56.33 44.33 56.34 44.32 56.35C44.32 56.35 44.3 56.36 44.29 56.37C44.29 56.37 44.27 56.38 44.26 56.39C44.26 56.39 44.24 56.4 44.23 56.41C44.23 56.41 44.21 56.42 44.2 56.43C44.2 56.43 44.18 56.44 44.17 56.45C44.17 56.45 44.15 56.47 44.14 56.47C44.14 56.47 44.12 56.49 44.11 56.49C44.11 56.49 44.09 56.51 44.08 56.51C44.08 56.51 44.06 56.53 44.05 56.53C44.05 56.53 44.03 56.55 44.02 56.55C44.02 56.55 44 56.57 43.99 56.57C43.99 56.57 43.97 56.59 43.96 56.6C43.96 56.6 43.94 56.62 43.93 56.63C43.93 56.63 43.91 56.65 43.9 56.66C43.9 56.66 43.88 56.68 43.88 56.69C43.88 56.69 43.86 56.71 43.86 56.72C43.86 56.72 43.84 56.74 43.84 56.75C43.84 56.75 43.82 56.77 43.82 56.78C43.82 56.78 43.8 56.8 43.8 56.81C43.8 56.81 43.78 56.83 43.78 56.84C43.78 56.84 43.76 56.86 43.76 56.87C43.76 56.87 43.75 56.89 43.74 56.9C43.74 56.9 43.73 56.92 43.72 56.93C43.72 56.93 43.71 56.95 43.7 56.96C43.7 56.96 43.69 56.98 43.68 56.99C43.68 57 43.67 57.01 43.66 57.02C43.66 57.03 43.65 57.04 43.64 57.05C43.64 57.06 43.63 57.07 43.62 57.08C43.62 57.09 43.61 57.1 43.6 57.11C43.6 57.12 43.59 57.13 43.58 57.14C43.58 57.15 43.57 57.16 43.56 57.17C43.56 57.18 43.55 57.19 43.54 57.2C43.54 57.21 43.53 57.22 43.52 57.23C43.52 57.24 43.51 57.25 43.5 57.26C43.5 57.27 43.49 57.28 43.48 57.29C43.48 57.3 43.47 57.31 43.46 57.32C43.46 57.33 43.45 57.34 43.44 57.35C43.44 57.36 43.43 57.37 43.42 57.38C43.42 57.39 43.42 57.4 43.41 57.41C43.41 57.42 43.41 57.43 43.4 57.44C43.4 57.45 43.4 57.46 43.39 57.47C43.39 57.48 43.39 57.49 43.38 57.5C43.38 57.51 43.38 57.52 43.37 57.54C43.37 57.55 43.37 57.56 43.36 57.58C43.36 57.59 43.36 57.6 43.35 57.62C43.35 57.63 43.35 57.64 43.34 57.66C43.34 57.67 43.34 57.68 43.33 57.7C43.33 57.71 43.33 57.72 43.32 57.74C43.32 57.75 43.32 57.76 43.32 57.78C43.32 57.79 43.32 57.8 43.32 57.82C43.32 57.83 43.32 57.84 43.32 57.86C43.32 57.87 43.32 57.88 43.32 57.9C43.32 57.91 43.32 57.93 43.32 57.94C43.32 57.95 43.32 57.97 43.32 57.98C43.32 57.99 43.32 58.01 43.32 58.02C43.32 58.03 43.32 58.05 43.32 58.06C43.32 58.07 43.32 58.09 43.32 58.1C43.32 58.11 43.32 58.13 43.32 58.14C43.32 58.15 43.32 58.17 43.32 58.18C43.32 58.19 43.32 58.21 43.32 58.22C43.32 58.23 43.32 58.25 43.32 58.26C43.32 58.27 43.32 58.29 43.32 58.3C43.32 58.31 43.32 58.33 43.32 58.34C43.32 58.35 43.32 58.37 43.32 58.38C43.32 58.39 43.32 58.41 43.32 58.42C43.32 58.43 43.32 58.45 43.32 58.46C43.32 58.47 43.32 58.49 43.32 58.5C43.32 58.51 43.32 58.53 43.32 58.54C43.32 58.55 43.32 58.57 43.32 58.58C43.32 58.59 43.32 58.61 43.32 58.62C43.32 58.63 43.32 58.65 43.32 58.66C43.32 58.67 43.32 58.69 43.32 58.7C43.32 58.71 43.32 58.73 43.32 58.74C43.32 58.75 43.32 58.77 43.32 58.78C43.32 58.79 43.32 58.81 43.32 58.82C43.32 58.83 43.32 58.85 43.32 58.86C43.32 58.87 43.32 58.89 43.32 58.9C43.32 58.91 43.32 58.93 43.32 58.94C43.32 58.95 43.32 58.97 43.32 58.98C43.32 58.99 43.32 59 43.32 59.02C43.32 59.03 43.32 59.05 43.32 59.06C43.32 59.07 43.32 59.08 43.32 59.1C43.32 59.11 43.32 59.12 43.32 59.14C43.32 59.15 43.32 59.16 43.33 59.18C43.33 59.19 43.33 59.2 43.34 59.22C43.34 59.23 43.34 59.24 43.35 59.26C43.35 59.27 43.35 59.28 43.36 59.3C43.36 59.31 43.36 59.32 43.37 59.34C43.37 59.35 43.37 59.36 43.38 59.38C43.38 59.39 43.38 59.4 43.39 59.42C43.39 59.43 43.39 59.44 43.4 59.46C43.4 59.47 43.4 59.48 43.41 59.49C43.41 59.5 43.41 59.51 43.42 59.52C43.42 59.53 43.43 59.54 43.44 59.55C43.44 59.56 43.45 59.57 43.46 59.58C43.46 59.59 43.47 59.6 43.48 59.61C43.48 59.62 43.49 59.63 43.5 59.64C43.5 59.65 43.51 59.66 43.52 59.67C43.52 59.68 43.53 59.69 43.54 59.7C43.54 59.71 43.55 59.72 43.56 59.73C43.56 59.74 43.57 59.75 43.58 59.76C43.58 59.77 43.59 59.78 43.6 59.79C43.6 59.8 43.61 59.81 43.62 59.82C43.62 59.83 43.63 59.84 43.64 59.85C43.64 59.86 43.65 59.87 43.66 59.88C43.66 59.89 43.67 59.9 43.68 59.91C43.68 59.92 43.69 59.93 43.7 59.94C43.7 59.95 43.71 59.96 43.72 59.97C43.72 59.98 43.73 59.99 43.74 60C43.74 60 43.75 60.02 43.76 60.03C43.76 60.03 43.78 60.05 43.78 60.06C43.78 60.06 43.8 60.08 43.8 60.09C43.8 60.09 43.82 60.11 43.82 60.12C43.82 60.12 43.84 60.14 43.84 60.15C43.84 60.15 43.86 60.17 43.86 60.18C43.86 60.18 43.88 60.2 43.88 60.21C43.88 60.21 43.9 60.23 43.9 60.24L43.93 60.27C43.93 60.27 43.95 60.29 43.96 60.3C43.96 60.3 43.98 60.32 43.99 60.33C43.99 60.33 44.01 60.35 44.02 60.36C44.02 60.36 44.04 60.38 44.05 60.38C44.05 60.38 44.07 60.4 44.08 60.4C44.08 60.4 44.1 60.42 44.11 60.42C44.11 60.42 44.13 60.44 44.14 60.44C44.14 60.44 44.16 60.46 44.17 60.46C44.17 60.46 44.19 60.48 44.2 60.48C44.2 60.48 44.22 60.5 44.23 60.5C44.23 60.5 44.25 60.51 44.26 60.52C44.26 60.52 44.28 60.53 44.29 60.54C44.29 60.54 44.31 60.55 44.32 60.56C44.32 60.56 44.34 60.57 44.35 60.58C44.36 60.58 44.37 60.59 44.38 60.6C44.39 60.6 44.4 60.61 44.41 60.62C44.42 60.62 44.43 60.63 44.44 60.64C44.45 60.64 44.46 60.65 44.47 60.66C44.48 60.66 44.49 60.67 44.5 60.68C44.51 60.68 44.52 60.69 44.53 60.7C44.54 60.7 44.55 60.71 44.56 60.72C44.57 60.72 44.58 60.73 44.59 60.74C44.6 60.74 44.61 60.75 44.62 60.76C44.63 60.76 44.64 60.77 44.65 60.78C44.66 60.78 44.67 60.79 44.68 60.8C44.69 60.8 44.7 60.8 44.71 60.81C44.72 60.81 44.73 60.81 44.74 60.82C44.75 60.82 44.76 60.82 44.77 60.83C44.78 60.83 44.79 60.83 44.8 60.84C44.81 60.84 44.82 60.84 44.83 60.85C44.84 60.85 44.85 60.85 44.86 60.86C44.87 60.86 44.88 60.86 44.89 60.87C44.9 60.87 44.91 60.87 44.93 60.88C44.94 60.88 44.95 60.88 44.97 60.89C44.98 60.89 44.99 60.89 45.01 60.9C45.02 60.9 45.03 60.9 45.05 60.9C45.06 60.9 45.07 60.9 45.09 60.9C45.1 60.9 45.11 60.9 45.13 60.9C45.14 60.9 45.15 60.9 45.17 60.9C45.18 60.9 45.19 60.9 45.21 60.9C45.22 60.9 45.23 60.9 45.25 60.9C45.26 60.9 45.27 60.9 45.29 60.9C45.3 60.9 45.31 60.9 45.33 60.9C45.34 60.9 45.35 60.9 45.37 60.9C45.38 60.9 45.39 60.9 45.41 60.9C45.42 60.9 45.44 60.9 45.45 60.9C45.46 60.9 45.48 60.9 45.49 60.9C45.5 60.9 45.52 60.9 45.53 60.9C45.54 60.9 45.56 60.9 45.57 60.9C45.58 60.9 45.6 60.9 45.61 60.9C45.62 60.9 45.64 60.9 45.65 60.9C45.66 60.9 45.68 60.9 45.69 60.9C45.7 60.9 45.72 60.9 45.73 60.9C45.74 60.9 45.76 60.9 45.77 60.9C45.78 60.9 45.8 60.9 45.81 60.9C45.82 60.9 45.84 60.9 45.85 60.9C45.86 60.9 45.88 60.9 45.89 60.9C45.9 60.9 45.92 60.9 45.93 60.9C45.94 60.9 45.95 60.9 45.97 60.9C45.98 60.9 45.99 60.9 46.01 60.9C46.02 60.9 46.03 60.9 46.05 60.9C46.06 60.9 46.07 60.9 46.09 60.9C46.1 60.9 46.11 60.9 46.13 60.9C46.14 60.9 46.15 60.9 46.17 60.9C46.18 60.9 46.19 60.9 46.21 60.9C46.22 60.9 46.23 60.9 46.25 60.9C46.26 60.9 46.27 60.9 46.29 60.9C46.3 60.9 46.31 60.9 46.33 60.9C46.34 60.9 46.35 60.9 46.37 60.9C46.38 60.9 46.39 60.9 46.41 60.89C46.42 60.89 46.43 60.89 46.44 60.88C46.45 60.88 46.46 60.88 46.47 60.87C46.48 60.87 46.49 60.87 46.5 60.86C46.51 60.86 46.52 60.86 46.53 60.85H46.56C46.56 60.85 46.58 60.83 46.59 60.82C46.6 60.82 46.61 60.82 46.62 60.81C46.63 60.81 46.64 60.81 46.65 60.8C46.66 60.8 46.67 60.8 46.68 60.79C46.69 60.79 46.7 60.78 46.71 60.77C46.72 60.77 46.73 60.76 46.74 60.75C46.75 60.75 46.76 60.74 46.77 60.73C46.78 60.73 46.79 60.72 46.8 60.71C46.81 60.71 46.82 60.7 46.83 60.69C46.84 60.69 46.85 60.68 46.86 60.67C46.87 60.67 46.88 60.66 46.89 60.65C46.9 60.65 46.91 60.64 46.92 60.63C46.93 60.63 46.94 60.62 46.95 60.61C46.96 60.61 46.97 60.6 46.98 60.59C46.98 60.59 47 60.58 47.01 60.57C47.01 60.57 47.03 60.56 47.04 60.55C47.04 60.55 47.06 60.54 47.07 60.53C47.07 60.53 47.09 60.52 47.1 60.51C47.1 60.51 47.12 60.5 47.13 60.49C47.13 60.49 47.15 60.48 47.16 60.47C47.16 60.47 47.18 60.45 47.19 60.45C47.19 60.45 47.21 60.43 47.22 60.43C47.22 60.43 47.24 60.41 47.25 60.41C47.25 60.41 47.27 60.39 47.28 60.39C47.28 60.39 47.3 60.37 47.31 60.37C47.31 60.37 47.33 60.35 47.34 60.35C47.34 60.35 47.36 60.33 47.37 60.32C47.37 60.32 47.39 60.3 47.4 60.29C47.4 60.29 47.42 60.27 47.42 60.26C47.42 60.26 47.44 60.24 47.44 60.23C47.44 60.23 47.46 60.21 47.46 60.2C47.46 60.2 47.48 60.18 47.48 60.17C47.48 60.17 47.5 60.15 47.5 60.14C47.5 60.14 47.52 60.12 47.52 60.11C47.52 60.11 47.54 60.09 47.54 60.08C47.54 60.08 47.55 60.06 47.56 60.05C47.56 60.05 47.57 60.03 47.58 60.02C47.58 60.02 47.59 60 47.6 59.99C47.6 59.99 47.61 59.97 47.62 59.96C47.62 59.95 47.63 59.94 47.64 59.93C47.64 59.92 47.65 59.91 47.66 59.9C47.66 59.89 47.67 59.88 47.68 59.87C47.68 59.86 47.69 59.85 47.7 59.84C47.7 59.83 47.71 59.82 47.72 59.81C47.72 59.8 47.73 59.79 47.74 59.78C47.74 59.77 47.75 59.76 47.76 59.75C47.76 59.74 47.77 59.73 47.78 59.72C47.78 59.71 47.79 59.7 47.8 59.69C47.8 59.68 47.81 59.67 47.82 59.66C47.82 59.65 47.83 59.64 47.84 59.63C47.84 59.62 47.85 59.61 47.86 59.6C47.86 59.59 47.87 59.58 47.88 59.57C47.88 59.56 47.89 59.55 47.89 59.54C47.89 59.53 47.89 59.52 47.9 59.51C47.9 59.5 47.9 59.49 47.91 59.48C47.91 59.47 47.91 59.46 47.92 59.45C47.92 59.44 47.92 59.43 47.93 59.41C47.93 59.4 47.93 59.39 47.94 59.37C47.94 59.36 47.94 59.35 47.95 59.33C47.95 59.32 47.95 59.31 47.96 59.29C47.96 59.28 47.96 59.27 47.97 59.25C47.97 59.24 47.97 59.23 47.98 59.21C47.98 59.2 47.98 59.19 47.98 59.17C47.98 59.16 47.98 59.15 47.98 59.13C47.98 59.12 47.98 59.11 47.98 59.09C47.98 59.08 47.98 59.07 47.98 59.05C47.98 59.04 47.98 59.02 47.98 59.01C47.98 59 47.98 58.98 47.98 58.97C47.98 58.96 47.98 58.94 47.98 58.93C47.98 58.92 47.98 58.9 47.98 58.89C47.98 58.88 47.98 58.86 47.98 58.85C47.98 58.84 47.98 58.82 47.98 58.81C47.98 58.8 47.98 58.78 47.98 58.77C47.98 58.76 47.98 58.74 47.98 58.73C47.98 58.72 47.98 58.7 47.98 58.69C47.98 58.68 47.98 58.66 47.98 58.65C47.98 58.64 47.98 58.62 47.98 58.61C47.98 58.6 47.98 58.58 47.98 58.57C47.98 58.56 47.98 58.54 47.98 58.53C47.98 58.52 47.98 58.5 47.98 58.49C47.98 58.48 47.98 58.46 47.98 58.45V58.47Z" fill="#898989"/>
<path d="M32.72 14.67H30.62C30.62 14.67 29.38 14.7 27.66 15.47C25.94 16.24 18.42 19.88 18.42 19.88C18.42 19.88 16.76 20.65 15.81 22.04C15.81 22.04 14.68 23.2 14.68 26.22V129.45C14.68 130.28 14.89 131.7 15.3 132.62C15.71 133.54 16.34 134.37 17.79 135.35L27.27 141.22C27.27 141.22 28.01 141.58 28.34 141.69C28.67 141.8 29.76 142.25 31.13 142.25C31.13 142.25 40.02 142.07 45.92 141.6C45.92 141.6 54.39 140.83 55.22 140.68C55.22 140.68 57.65 140.56 59.37 138.93C59.37 138.93 61.38 137.51 62.84 134.34C62.84 134.34 63.73 132.8 63.73 130.55V24.15C63.73 23.35 63.55 20.95 62.57 19.76C62.57 19.76 61.24 17.89 59.22 17C59.22 17 57.55 16.14 55.38 15.89C55.38 15.89 48.81 15.17 45.79 14.99L32.73 14.66L32.72 14.67Z" stroke="#231815" stroke-width="0.5" stroke-linejoin="round"/>
<path d="M26.81 15.86C26.81 15.86 23.26 17.85 23.26 23.52V132.94C23.26 133.74 22.9 136.83 26.02 140.45" stroke="#231815" stroke-width="0.5" stroke-linejoin="round"/>
<path d="M30.72 16.9899C32.26 16.2999 33.37 16.2599 33.37 16.2599H35.25L46.94 16.5599C49.65 16.7199 55.53 17.3799 55.53 17.3799C57.47 17.5999 58.97 18.3899 58.97 18.3899C60.77 19.1999 61.97 20.9099 61.97 20.9099C62.85 21.9899 63 24.1799 63 24.9099V128.09C63 130.15 62.2 131.55 62.2 131.55C60.9 134.44 59.1 135.74 59.1 135.74C57.56 137.23 55.39 137.34 55.39 137.34C54.65 137.48 47.06 138.18 47.06 138.18C41.78 138.61 33.82 138.78 33.82 138.78C32.6 138.78 31.62 138.37 31.33 138.27C31.04 138.17 30.37 137.84 30.37 137.84C29.71 137.61 29.26 137.14 29.26 137.14C26.47 133.83 26.79 131.01 26.79 130.28V24.3299C26.79 19.1599 29.97 17.3399 29.97 17.3399C29.97 17.3399 30.62 17.0299 30.72 16.9899Z" stroke="#231815" stroke-width="0.5" stroke-linejoin="round"/>
<path d="M62.55 19.77C62.55 19.77 61.22 17.9 59.2 17.01C59.2 17.01 57.53 16.15 55.36 15.9C55.36 15.9 48.79 15.18 45.77 15L32.71 14.67H30.61C30.61 14.67 29.37 14.7 27.65 15.47C27.45 15.56 27.16 15.69 26.81 15.86C24.25 17.06 18.4 19.89 18.4 19.89C18.4 19.89 16.74 20.66 15.79 22.05C15.79 22.05 14.66 23.21 14.66 26.23V129.46C14.66 130.29 14.87 131.71 15.28 132.63C15.69 133.55 16.32 134.38 17.77 135.36L27.25 141.23C27.25 141.23 27.99 141.59 28.32 141.7C28.65 141.82 29.74 142.26 31.11 142.26C31.11 142.26 40 142.08 45.9 141.61C45.9 141.61 54.37 140.84 55.2 140.69C55.2 140.69 57.63 140.57 59.35 138.94C59.35 138.94 61.36 137.52 62.82 134.35C62.82 134.35 63.71 132.81 63.71 130.56V24.15C63.71 23.35 63.53 20.95 62.55 19.76V19.77Z" stroke="#231815" stroke-linejoin="round"/>
<path d="M46.21 58.46H47.71" stroke="#A42444" stroke-width="1.75" stroke-miterlimit="10" stroke-linecap="round"/>
<path d="M50.96 58.46H81.82" stroke="#A42444" stroke-width="1.75" stroke-miterlimit="10" stroke-linecap="round" stroke-dasharray="3.25 3.25"/>
<path d="M83.44 58.46H84.94" stroke="#A42444" stroke-width="1.75" stroke-miterlimit="10" stroke-linecap="round"/>
</g>
<defs>
<clipPath id="clip0_923_9592">
<rect width="180.7" height="167.72" fill="white"/>
</clipPath>
</defs>
</svg>
