<svg xmlns="http://www.w3.org/2000/svg" width="300" height="380" fill="none" viewBox="0 0 300 380"><g clip-path="url(#a)"><path fill="#fff" d="M300 0H0v380h300z"/><path fill="#fff" d="M236.632 280.473c0-.676-.521-7.434-6.52-7.376-3.877.039-6.578 1.699-10.455 1.757 0 0-3.974-3.128-7.601-3.649-5.497-.772-11.535-1.004-17.071-.869-4.399.097-8.835-.058-10.359 4.074-.945 2.587-.695 4.653.366 7.202a334 334 0 0 0-25.424 4.595c-2.99.656-6.019 1.37-8.739 2.78-8.777 4.537-12.596 15.252-12.847 25.138-.077 3.282.174 6.699 1.736 9.576 2.469 4.576 7.62 6.912 12.404 8.939 11.883 5.02 24.074 10.117 36.96 10.831 3.742.213 7.465.039 11.207.077 1.679 0 3.395.078 4.919.734 1.331.579 2.431 1.583 3.627 2.433 4.88 3.514 11.227 4.479 17.207 3.88 5.98-.598 12.017-.926 17.689-2.953 5.304-1.893 10.204-1.41 15.509-3.283 3.858-1.37 7.89-.637 10.976-3.32 2.353-2.066-.212-10.754 1.061-13.612 1.717-3.861-1.35-32.629-2.855-33.845-3.434-2.78-9.568-6.68-13.387-8.901-.444-.251-18.345-3.707-18.345-4.228z"/><path stroke="#231815" stroke-linecap="round" stroke-linejoin="round" stroke-width=".49" d="m184.336 282.326 46.104-9.287s3.395-.289 5.478 3.727c1.293 2.529.868 5.405-1.254 8.031-.983 1.719-20.447 27.706-20.447 27.706s-3.993 4.344-10.957 4.016c-6.443.154-9.182.077-9.182.077"/><path stroke="#231815" stroke-linecap="round" stroke-linejoin="round" stroke-width="1.47" d="M145.023 321.307s-19.039 1.699-23.977 2.22c-4.939.521-4.939 0-5.807-.849-5.131-5.619 0-8.341 0-8.341s22.165-16.797 27.546-21.276c6.173-5.136 10.533-5.426 10.533-5.426l32.446-6.506"/><path stroke="#231815" stroke-linecap="round" stroke-linejoin="round" stroke-width=".49" d="m176.215 309.221 19.29-2.24s4.707-.193 9.414-4.962 22.627-25.755 22.936-26.528c-5.286.58-67.265 13.631-71.817 14.654-4.572.85-7.003 2.742-7.003 2.742l-3.587 2.799 1.369.889-12.268 10.483-3.569.155-10.301 7.278s-1.852 1.371 0 1.893c1.89 0 43.345-5.619 43.345-5.619"/><path stroke="#231815" stroke-linecap="round" stroke-linejoin="round" stroke-width="1.47" d="M185.976 280.724s-2.411-3.881-.791-6.623c1.023-1.737 1.987-3.765 19.136-3.977 6.154 0 13.484 4.537 13.484 4.537l12.828-2.684s8.43.464 6.867 8.785c0 0 4.147.657 6.096 1.178 3.105.849 18.287 5.116 25.482 13.534"/><path stroke="#231815" stroke-linecap="round" stroke-linejoin="round" stroke-width=".49" d="M146.181 321.384c-.406-1.487-.406-2.413-.406-2.413s-.154-4.731 6.424-4.499c2.662.232 6.829.946 8.97 8.128"/><path stroke="#231815" stroke-linecap="round" stroke-linejoin="round" stroke-width="1.47" d="M174.576 339.513c-6.559-.231-12.713-3.398-14.68-4.035s-6.867-2.375-9.067-5.444c-3.549-3.225-5.015-6.507-5.632-8.65"/><path stroke="#231815" stroke-linecap="round" stroke-linejoin="round" stroke-width=".49" d="M145.833 318.391s5.344 3.418 7.639 8.071c.598 2.046.598 3.32-1.987 3.552M176.042 339.513c-2.836-1.969-7.485-4.769-9.915-7.742-7.176-7.51-4.727-13.032-3.858-15.079.868-2.046 2.719-8.302 2.719-8.302s.367-3.707 6.675-1.583c2.604 1.101 5.517 2.452 6.153 6.236"/><path stroke="#231815" stroke-linecap="round" stroke-linejoin="round" stroke-width="1.47" d="M204.9 343.568c-2.759-.386-10.533.347-13.928.753-3.395.405-10.416-1.738-12.866-2.684-.733-.29-1.814-.907-3.048-1.776"/><path stroke="#231815" stroke-linecap="round" stroke-linejoin="round" stroke-width=".49" d="M165.471 307.271s.906 4.324 3.973 7.182c1.177 1.506-.405 5.985-2.623 6.622s-4.823-3.765-4.823-3.765"/><path stroke="#231815" stroke-linecap="round" stroke-linejoin="round" stroke-width="1.47" d="M205.556 343.973a28 28 0 0 0 1.851.985c3.955 2.992 5.845 4.035 7.736 4.498 0 0 5.594 3.321 16.551.811 0 0 37.037-8.147 39.544-8.147"/><path stroke="#231815" stroke-linecap="round" stroke-linejoin="round" stroke-width=".49" d="M214.313 330.535c-6.346-11.082-20.254-13.476-20.254-13.476s-6.077-7.51-14.834-4.904c-2.913 1.101-5.209 5.947.559 10.233 5.363 4.054 9.066 8.012 12.712 9.267 1.524 1.159 6.848 7.453 13.85 11.565"/><path stroke="#231815" stroke-linecap="round" stroke-linejoin="round" stroke-width=".49" d="M173.36 330.536s4.534-2.53 4.958-9.384M187.307 328.528s1.08 1.795.926 4.768M194.85 319.453s-.463-2.123-1.235-2.876M208.372 275.491s.096 1.641-.791 2.163M207.967 323.276s11.207-4.035 25.521 3.031"/><path fill="#231815" d="m160.417 291.729.733-.136-.811.773-.733.135z"/><path fill="#231815" d="m159.606 292.501.733-.135-.79.772-.753.135zM158.796 293.273l.753-.135-.811.772-.752.135zM157.986 294.045l.752-.135-.81.772-.733.136z"/><path fill="#231815" d="m157.195 294.818.733-.136-.81.773-.733.116zM156.385 295.571l.733-.116-.791.753-.752.135z"/><path fill="#231815" d="m155.575 296.343.752-.135-.81.772-.733.135zM153.974 297.887l.733-.135-.791.773-.752.135zM152.353 299.432l.753-.135-.811.772-.733.116zM150.752 300.957l.733-.135-.791.772-.752.136z"/><path fill="#231815" d="m149.942 301.729.752-.135-.81.773-.752.135zM147.531 304.046l.733-.135-.791.773-.752.115zM145.93 305.572l.733-.116-.81.753-.733.135z"/><path fill="#231815" d="m145.12 306.344.733-.135-.791.772-.753.135z"/><path fill="#231815" d="m144.309 307.116.753-.135-.81.772-.753.135z"/><path fill="#231815" d="m143.499 307.888.753-.135-.811.773-.733.135zM142.708 308.661l.733-.135-.81.772-.733.135z"/><path fill="#231815" d="m141.898 309.433.733-.135-.791.772-.752.116z"/><path fill="#231815" d="m141.088 310.186.752-.116-.81.753-.733.135zM161.15 291.593l.733-.115-.791.753-.753.135zM156.327 296.208l.733-.116-.81.753-.733.135zM153.916 298.525l.733-.136-.81.773-.733.135zM153.106 299.297l.733-.135-.81.772-.733.135z"/><path fill="#231815" d="m152.296 300.069.733-.135-.791.772-.753.116z"/><path fill="#231815" d="m151.485 300.822.753-.116-.811.773-.733.115zM148.264 303.911l.752-.135-.81.772-.733.135zM146.663 305.456l.733-.135-.791.772-.752.116zM141.84 310.07l.733-.135-.81.772-.733.116zM161.883 291.478l.752-.136-.81.773-.733.116zM160.282 293.003l.733-.135-.791.772-.753.135z"/><path fill="#231815" d="m159.471 293.775.753-.135-.81.772-.733.135zM158.681 294.547l.733-.135-.811.772-.733.136zM157.06 296.092l.752-.135-.81.772-.752.116zM155.459 297.617l.733-.116-.81.753-.733.135z"/><path fill="#231815" d="m154.649 298.389.733-.135-.791.773-.752.135z"/><path fill="#231815" d="m153.839 299.162.752-.135-.81.772-.752.135zM151.427 301.479l.733-.136-.79.773-.753.115z"/><path fill="#231815" d="m150.617 302.231.753-.115-.811.753-.733.135zM147.396 305.321l.752-.136-.81.773-.733.135zM145.795 306.846l.733-.116-.791.753-.752.135zM144.985 307.618l.752-.135-.81.772-.733.135z"/><path fill="#231815" d="m144.194 308.39.733-.135-.81.773-.734.135zM142.573 309.935l.733-.135-.791.772-.752.135zM162.635 291.342l.733-.135-.791.773-.752.135zM161.015 292.868l.752-.116-.81.772-.733.116z"/><path fill="#231815" d="m160.224 293.64.733-.116-.81.753-.733.135z"/><path fill="#231815" d="m159.414 294.412.733-.135-.791.772-.753.135zM157.812 295.957l.734-.135-.811.772-.733.135zM156.192 297.501l.733-.135-.791.772-.752.116zM155.382 298.254l.752-.116-.81.753-.733.136z"/><path fill="#231815" d="m154.591 299.027.733-.136-.81.773-.733.135zM152.971 300.571l.752-.135-.81.772-.753.135z"/><path fill="#231815" d="m152.16 301.343.753-.135-.81.773-.733.135z"/><path fill="#231815" d="m151.37 302.116.733-.136-.811.773-.733.116zM150.559 302.869l.733-.116-.79.753-.753.135zM148.148 305.185l.733-.135-.791.773-.752.135zM146.528 306.73l.752-.135-.81.772-.733.116z"/><path fill="#231815" d="m145.737 307.483.733-.116-.81.753-.733.135z"/><path fill="#231815" d="m144.927 308.255.733-.135-.791.772-.753.136zM143.306 309.8l.753-.135-.811.772-.733.135zM163.368 291.207l.752-.135-.81.772-.733.135zM161.767 292.752l.733-.135-.791.772-.752.135z"/><path fill="#231815" d="m160.957 293.524.752-.135-.81.772-.752.116z"/><path fill="#231815" d="m160.147 294.277.752-.116-.81.753-.733.135zM158.546 295.822l.733-.136-.791.773-.753.135zM156.925 297.366l.752-.135-.81.772-.733.135zM154.514 299.664l.752-.135-.81.772-.733.135z"/><path fill="#231815" d="m153.723 300.436.733-.135-.81.772-.733.135zM152.103 301.98l.752-.135-.81.773-.753.135z"/><path fill="#231815" d="m151.292 302.753.753-.135-.81.772-.733.116zM150.502 303.506l.733-.116-.811.753-.733.135zM148.881 305.05l.752-.135-.81.772-.733.136zM147.28 306.595l.733-.135-.81.772-.733.135z"/><path fill="#231815" d="m146.47 307.367.733-.135-.791.772-.752.116z"/><path fill="#231815" d="m145.66 308.12.752-.116-.81.773-.733.115zM144.059 309.665l.733-.135-.791.772-.753.135zM164.12 291.072l.733-.135-.81.772-.733.135zM159.279 295.686l.752-.135-.81.773-.733.135zM156.057 298.776l.752-.136-.81.773-.733.116z"/><path fill="#231815" d="m155.266 299.529.733-.116-.81.753-.733.135zM153.646 301.073l.752-.135-.81.772-.733.135zM151.235 303.39l.752-.135-.81.772-.753.116zM149.633 304.915l.733-.116-.81.753-.733.135zM144.792 309.53l.752-.116-.81.753-.733.135zM164.853 290.937l.753-.116-.811.753-.752.135zM164.043 291.709l.753-.135-.811.772-.733.136z"/><path fill="#231815" d="m163.252 292.481.733-.135-.81.773-.733.135z"/><path fill="#231815" d="m162.442 293.254.733-.135-.791.772-.752.135z"/><path fill="#231815" d="m161.632 294.026.752-.135-.81.772-.752.135z"/><path fill="#231815" d="m160.822 294.798.752-.135-.81.773-.733.115z"/><path fill="#231815" d="m160.031 295.551.733-.116-.81.773-.733.116zM158.41 297.096l.753-.135-.81.772-.733.135zM156.809 298.64l.733-.135-.79.773-.753.135zM155.189 300.166l.752-.116-.81.772-.733.116zM153.588 301.71l.733-.135-.791.772-.752.136zM151.987 303.255l.733-.135-.81.772-.733.135zM150.366 304.799l.734-.135-.791.772-.753.116zM149.556 305.552l.753-.116-.811.753-.733.136z"/><path fill="#231815" d="m148.765 306.325.733-.136-.81.773-.733.135zM147.955 307.097l.733-.135-.791.772-.752.135zM147.145 307.869l.752-.135-.81.772-.752.135z"/><path fill="#231815" d="m146.335 308.641.752-.135-.81.773-.733.135z"/><path fill="#231815" d="m145.544 309.414.733-.135-.81.772-.733.116zM157.542 298.505l.753-.135-.81.772-.733.136zM155.941 300.05l.733-.135-.791.772-.752.135zM153.53 302.347l.733-.135-.81.772-.733.136zM166.339 290.686l.733-.135-.791.772-.752.135zM165.529 291.458l.752-.135-.81.772-.753.135z"/><path fill="#231815" d="m164.718 292.23.753-.135-.811.773-.733.115z"/><path fill="#231815" d="m163.927 292.984.733-.116-.81.753-.733.135zM161.516 295.3l.733-.135-.81.772-.733.136zM159.896 296.845l.752-.135-.81.772-.752.116zM158.295 298.37l.733-.135-.81.772-.733.135zM157.485 299.142l.733-.135-.791.772-.753.136zM155.073 301.459l.733-.135-.81.772-.733.116zM152.662 303.757l.733-.135-.81.772-.733.135zM150.231 306.074l.753-.136-.81.773-.733.116zM149.441 306.827l.733-.116-.811.772-.733.116z"/><path fill="#231815" d="m148.63 307.599.733-.116-.79.753-.753.135zM147.029 309.143l.733-.135-.81.773-.733.135zM164.66 292.868l.753-.136-.81.773-.753.116zM163.059 294.393l.733-.135-.81.772-.733.135zM159.028 298.235l.752-.116-.81.753-.752.135zM157.427 299.78l.733-.136-.81.773-.734.135zM156.617 300.552l.733-.135-.791.772-.753.135zM154.205 302.849l.733-.115-.81.772-.733.116zM153.395 303.622l.733-.116-.791.753-.752.135zM151.794 305.166l.733-.135-.81.772-.733.135zM148.573 308.236l.733-.116-.811.753-.733.135zM167.824 290.416l.733-.135-.81.772-.733.135z"/><path fill="#231815" d="m167.014 291.188.733-.135-.791.772-.752.135zM162.982 295.03l.753-.135-.811.772-.733.135zM162.191 295.802l.733-.135-.81.772-.733.136z"/><path fill="#231815" d="m161.381 296.575.733-.136-.791.773-.752.135z"/><path fill="#231815" d="m160.571 297.347.752-.135-.81.772-.733.135zM159.78 298.119l.733-.135-.81.772-.733.116z"/><path fill="#231815" d="m158.97 298.872.733-.116-.81.772-.733.116zM158.16 299.644l.733-.115-.791.753-.752.135zM156.559 301.189l.733-.135-.811.772-.733.135zM152.527 305.031l.733-.135-.791.772-.752.135zM168.557 290.281l.752-.116-.81.753-.752.135zM162.924 295.667l.753-.116-.811.753-.752.135zM162.114 296.439l.752-.135-.81.772-.733.136z"/><path fill="#231815" d="m161.323 297.212.733-.135-.81.772-.733.135z"/><path fill="#231815" d="m160.513 297.984.733-.135-.791.772-.752.135z"/><path fill="#231815" d="m159.703 298.756.752-.135-.81.772-.752.136z"/><path fill="#231815" d="m158.893 299.529.752-.136-.81.773-.733.116z"/><path fill="#231815" d="m158.102 300.281.733-.115-.81.753-.733.135z"/><path fill="#231815" d="m157.292 301.054.733-.135-.791.772-.753.135zM155.691 302.598l.733-.135-.811.772-.733.136z"/><path fill="#231815" d="m154.88 303.371.733-.136-.79.773-.753.135z"/><path fill="#231815" d="m154.07 304.143.753-.135-.811.772-.752.116zM151.659 306.44l.733-.135-.791.773-.752.135z"/><path fill="#231815" d="m150.849 307.213.752-.135-.81.772-.733.135zM169.309 290.165l.733-.135-.81.772-.733.116z"/><path fill="#231815" d="m168.499 290.918.733-.116-.791.772-.752.116z"/><path fill="#231815" d="m167.689 291.69.752-.116-.81.753-.752.135zM165.278 294.007l.733-.135-.791.772-.752.135z"/><path fill="#231815" d="m164.468 294.779.752-.135-.81.772-.733.135zM162.866 296.304l.734-.116-.811.753-.733.136z"/><path fill="#231815" d="m162.056 297.077.733-.136-.791.773-.752.135z"/><path fill="#231815" d="m161.246 297.849.752-.135-.81.772-.733.135z"/><path fill="#231815" d="m160.455 298.621.733-.135-.81.772-.733.135z"/><path fill="#231815" d="m159.645 299.393.733-.135-.791.772-.752.136zM158.835 300.166l.752-.135-.81.772-.752.116z"/><path fill="#231815" d="m158.025 300.919.752-.116-.81.753-.733.135z"/><path fill="#231815" d="m157.234 301.691.733-.135-.81.772-.733.135zM156.424 302.463l.733-.135-.791.772-.753.135z"/><path fill="#231815" d="m155.613 303.235.753-.135-.81.773-.733.135z"/><path fill="#231815" d="m154.823 304.008.733-.135-.811.772-.733.135z"/><path fill="#231815" d="m154.012 304.78.733-.135-.791.772-.752.116zM153.202 305.533l.752-.116-.81.753-.752.135zM151.601 307.078l.733-.136-.81.773-.733.135zM150.791 307.85l.733-.135-.791.772-.752.135z"/><path fill="#231815" d="m149.981 308.622.752-.135-.81.772-.752.135zM166.821 293.099l.752-.135-.81.772-.752.136zM164.41 295.416l.733-.135-.791.772-.752.135zM162.789 296.941l.753-.115-.811.753-.733.135zM159.587 300.031l.733-.136-.81.773-.733.135z"/><path fill="#231815" d="m158.777 300.803.733-.135-.791.772-.752.116zM157.967 301.556l.752-.116-.81.753-.752.135z"/><path fill="#231815" d="m157.157 302.328.752-.135-.81.772-.733.135zM155.556 303.873l.733-.136-.791.773-.753.135z"/><path fill="#231815" d="m154.745 304.645.753-.135-.811.772-.733.135zM153.954 305.417l.733-.135-.81.772-.733.116zM150.733 308.487l.733-.135-.81.772-.733.135zM169.985 290.667l.733-.136-.811.773-.733.135zM169.174 291.439l.733-.135-.791.772-.752.135zM167.573 292.964l.733-.116-.81.753-.733.135z"/><path fill="#231815" d="m166.763 293.736.733-.135-.81.773-.733.135z"/><path fill="#231815" d="m165.953 294.509.733-.135-.791.772-.752.135z"/><path fill="#231815" d="m165.143 295.281.752-.135-.81.772-.733.135zM162.731 297.578l.753-.115-.81.753-.753.135zM161.13 299.123l.733-.135-.81.772-.733.135zM159.51 300.668l.752-.136-.81.773-.733.135zM157.099 302.965l.752-.116-.81.753-.752.135zM154.687 305.282l.734-.135-.791.772-.753.135zM153.086 306.827l.733-.136-.81.773-.733.116z"/><path fill="#231815" d="m152.276 307.58.733-.116-.81.753-.733.135zM171.528 289.759l.733-.135-.791.772-.752.135zM169.907 291.304l.753-.135-.81.772-.734.135zM168.306 292.848l.733-.135-.791.772-.752.116zM164.275 296.69l.752-.135-.81.773-.733.135z"/><path fill="#231815" d="m163.484 297.463.733-.135-.81.772-.733.116zM159.452 301.305l.733-.135-.791.772-.752.135z"/><path fill="#231815" d="m158.642 302.077.752-.135-.81.772-.733.135z"/><path fill="#231815" d="m157.851 302.849.733-.135-.81.772-.733.116zM156.231 304.375l.752-.136-.81.773-.752.135z"/><path fill="#231815" d="m155.42 305.147.753-.135-.81.772-.733.135zM152.199 308.217l.752-.116-.81.753-.733.135zM169.85 291.941l.733-.135-.791.772-.753.135zM167.438 294.238l.733-.115-.791.772-.752.116zM165.818 295.783l.752-.135-.81.772-.733.135zM164.217 297.328l.733-.136-.791.773-.752.135zM161.806 299.625l.733-.116-.791.753-.753.135zM159.394 301.942l.733-.135-.81.772-.733.135z"/><path fill="#231815" d="m158.584 302.714.733-.135-.791.772-.752.135z"/><path fill="#231815" d="m157.774 303.486.752-.135-.81.773-.733.115z"/><path fill="#231815" d="m156.983 304.239.733-.115-.81.753-.733.135zM156.173 305.012l.733-.135-.81.772-.733.135z"/><path fill="#231815" d="m155.363 305.784.733-.135-.791.772-.753.135z"/><path fill="#231815" d="m154.552 306.556.753-.135-.81.772-.733.136z"/><path fill="#231815" d="m153.762 307.328.733-.135-.811.773-.733.135z"/><path fill="#231815" d="m152.951 308.101.733-.135-.791.772-.752.116zM166.57 295.648l.733-.116-.791.753-.752.135z"/><path fill="#231815" d="m165.76 296.42.752-.135-.81.772-.752.135zM164.159 297.965l.733-.136-.81.773-.733.135zM163.349 298.737l.733-.135-.791.772-.752.135z"/><path fill="#231815" d="m162.539 299.509.752-.135-.81.772-.733.116zM160.937 301.034l.733-.135-.79.773-.753.135z"/><path fill="#231815" d="m160.127 301.807.753-.135-.811.772-.752.135zM156.906 304.877l.752-.116-.81.772-.752.116zM155.305 306.421l.733-.135-.81.772-.733.135zM153.684 307.966l.753-.135-.81.772-.734.135zM173.746 289.373l.752-.135-.81.772-.752.135z"/><path fill="#231815" d="m172.936 290.145.752-.135-.81.773-.733.135z"/><path fill="#231815" d="m172.145 290.918.733-.136-.81.773-.733.116z"/><path fill="#231815" d="m171.335 291.671.733-.116-.791.753-.752.135z"/><path fill="#231815" d="m170.525 292.443.752-.135-.81.772-.753.135z"/><path fill="#231815" d="m169.714 293.215.753-.135-.81.772-.733.135zM168.924 293.987l.733-.135-.811.773-.733.135zM165.702 297.057l.733-.135-.791.772-.752.136zM163.291 299.374l.733-.135-.81.772-.733.135zM160.88 301.672l.733-.116-.811.753-.733.135zM159.259 303.216l.733-.135-.791.772-.752.135zM157.658 304.761l.733-.135-.81.772-.733.135zM156.038 306.286l.752-.116-.81.753-.752.135z"/><path fill="#231815" d="m155.228 307.058.752-.135-.81.772-.733.136z"/><path fill="#231815" d="m154.437 307.83.733-.135-.81.773-.733.135zM174.498 289.238l.733-.135-.81.772-.733.135zM169.657 293.852l.752-.135-.81.772-.753.136zM167.245 296.169l.733-.135-.791.772-.752.116zM164.834 298.467l.733-.135-.791.772-.752.135zM162.423 300.783l.733-.135-.81.773-.733.135z"/><path fill="#231815" d="m161.613 301.556.733-.135-.791.772-.753.116zM158.391 304.626l.733-.136-.791.773-.752.135zM155.17 307.695l.752-.135-.81.772-.752.136zM175.231 289.103l.733-.135-.79.772-.753.135zM173.611 290.647l.752-.135-.81.772-.733.136z"/><path fill="#231815" d="m172.82 291.42.733-.136-.81.773-.733.135z"/><path fill="#231815" d="m172.01 292.192.733-.135-.791.772-.752.116zM170.409 293.717l.733-.116-.81.753-.733.135zM167.187 296.806l.734-.135-.811.772-.733.136z"/><path fill="#231815" d="m166.377 297.579.733-.136-.791.773-.752.115zM162.346 301.421l.752-.135-.81.772-.733.135z"/><path fill="#231815" d="m161.555 302.193.733-.135-.81.772-.733.116zM160.745 302.946l.733-.116-.791.753-.753.135z"/><path fill="#231815" d="m159.934 303.718.753-.135-.81.772-.753.135z"/><path fill="#231815" d="m159.124 304.49.753-.135-.811.772-.733.136z"/><path fill="#231815" d="m158.333 305.263.733-.135-.81.772-.733.135zM155.922 307.56l.733-.116-.81.753-.733.135zM175.964 288.968l.753-.116-.81.772-.733.116zM174.363 290.512l.733-.135-.79.772-.753.135z"/><path fill="#231815" d="m173.553 291.284.753-.135-.811.773-.752.135zM172.743 292.057l.752-.135-.81.772-.733.135zM171.142 293.601l.733-.135-.791.772-.752.116zM169.541 295.126l.733-.135-.81.773-.733.135z"/><path fill="#231815" d="m168.731 295.899.733-.135-.791.772-.752.135z"/><path fill="#231815" d="m167.921 296.671.752-.135-.81.772-.753.135z"/><path fill="#231815" d="m167.11 297.443.753-.135-.811.772-.733.136zM165.509 298.969l.733-.116-.791.753-.752.135zM163.098 301.285l.733-.135-.81.773-.733.135zM161.478 302.83l.752-.135-.81.772-.733.116zM159.877 304.355l.733-.135-.791.772-.753.135z"/><path fill="#231815" d="m159.066 305.128.753-.136-.811.773-.752.135zM158.256 305.9l.752-.135-.81.772-.733.135zM157.465 306.672l.733-.135-.81.772-.733.135z"/><path fill="#231815" d="m156.655 307.444.733-.135-.791.773-.752.115zM176.717 288.852l.733-.135-.81.772-.733.135zM175.096 290.377l.753-.116-.81.753-.733.135zM174.306 291.149l.733-.135-.811.772-.733.136z"/><path fill="#231815" d="m173.495 291.922.733-.136-.791.773-.752.135zM171.875 293.466l.752-.135-.81.772-.733.135zM170.274 294.991l.733-.116-.791.753-.752.136zM169.464 295.764l.752-.135-.81.772-.733.135zM167.863 297.308l.733-.135-.811.772-.733.136z"/><path fill="#231815" d="m167.052 298.08.733-.135-.79.773-.753.135z"/><path fill="#231815" d="m166.242 298.853.753-.135-.811.772-.733.116zM163.021 301.923l.752-.136-.81.773-.733.135z"/><path fill="#231815" d="m162.23 302.695.733-.135-.81.772-.733.135zM160.61 304.22l.752-.116-.81.773-.733.115zM159.008 305.765l.733-.135-.79.772-.753.135z"/><path fill="#231815" d="m158.198 306.537.753-.135-.811.772-.752.135zM177.45 288.717l.752-.136-.81.773-.752.135zM172.627 293.331l.733-.135-.791.772-.752.135zM171.007 294.875l.752-.135-.81.773-.733.115zM169.406 296.401l.733-.135-.791.772-.752.135z"/><path fill="#231815" d="m168.596 297.173.752-.135-.81.772-.753.135zM166.995 298.718l.733-.135-.811.772-.733.135zM165.374 300.243l.753-.116-.811.772-.733.116zM163.773 301.787l.733-.135-.791.773-.752.135z"/><path fill="#231815" d="m162.963 302.56.752-.135-.81.772-.752.135zM161.362 304.104l.733-.135-.81.772-.733.136zM159.741 305.63l.753-.116-.81.753-.733.135zM178.202 288.581l.733-.135-.81.773-.733.135z"/><path fill="#231815" d="m177.392 289.354.733-.135-.791.772-.752.135z"/><path fill="#231815" d="m176.582 290.126.752-.135-.81.772-.752.135zM175.772 290.898l.752-.135-.81.772-.733.116z"/><path fill="#231815" d="m174.981 291.651.733-.116-.81.753-.733.136z"/><path fill="#231815" d="m174.171 292.424.733-.136-.791.773-.753.135zM173.36 293.196l.753-.135-.811.772-.733.135zM171.759 294.74l.733-.135-.81.773-.733.135zM170.139 296.266l.752-.116-.81.772-.733.116zM168.538 297.81l.733-.135-.791.772-.752.135zM167.728 298.583l.752-.136-.81.773-.753.135z"/><path fill="#231815" d="m166.917 299.355.753-.135-.81.772-.733.135zM162.905 303.197l.733-.135-.791.772-.752.135z"/><path fill="#231815" d="m162.095 303.969.752-.135-.81.772-.752.135z"/><path fill="#231815" d="m161.285 304.741.752-.135-.81.773-.733.135z"/><path fill="#231815" d="m160.494 305.514.733-.135-.81.772-.733.116z"/><path fill="#231815" d="m159.684 306.267.733-.116-.791.753-.753.135z"/><path fill="#231815" d="m158.873 307.039.753-.135-.81.772-.753.135z"/><path stroke="#231815" stroke-linecap="round" stroke-linejoin="round" stroke-width=".49" d="M176.37 317.87s.482.155 1.639.155c.733 0 5.074 4.228 4.379 6.178"/><path fill="#231815" d="M83.816 27.435a2.7 2.7 0 0 0-1.35.058L29.108 45.16a2.52 2.52 0 0 0-1.775 2.452V218.98c0 .444.116.888.367 1.293.231.406.559.715.964.966l15.837 8.958c.386.213.81.328 1.254.328h.039c.52 0 1.022-.154 1.466-.463l53.414-37.822a3 3 0 0 0 .637-.676l5.941-8.804c.212-.328.347-.676.405-1.062a2.7 2.7 0 0 0-.058-1.12l-5.845-18.766V33.343c0-.598-.192-1.139-.578-1.602a2.52 2.52 0 0 0-1.447-.908zm-45.95 23.806s.116.019.155.019v134.068l-7.465-4.248V48.576zm1.254-.85a.59.59 0 0 0-.443-.193h-.078s-.173-.135-.289-.193l-6.443-2.336L83.333 30.62l13.58 2.915L45.66 52.805s-.174-.155-.29-.194l-5.844-2.143q-.203-.087-.348 0c0-.019-.038-.058-.058-.077m.193 1.39 5.614 2.047s.135.038.193.038v135.478l-5.807-3.283zm7.08 2.124 52.16-19.635v121.19l-52.16 33.787zm52.16 103.099v5.194s0 .135.02.193l5.806 18.67-51.813 36.838-6.173-21.103v-6.004zm-59.24 30.505 5.807 3.302v6.043s0 .135.038.193l6.347 21.74-5.903 8.321-6.289-3.533zm-1.292-.714v36.046l-7.465-4.247v-35.989zm10.494 38.421 4.186-5.811 49.922-35.525-3.877 5.753zm27.797-30.602a.66.66 0 0 0-.328-.386c-.135-.116-.309-.135-.483-.077a.74.74 0 0 0-.385.29.61.61 0 0 0-.058.521l.347 1.158c.02.135.096.232.232.309.096.097.231.135.385.135.135 0 .251-.038.386-.096l1.312-.888a.74.74 0 0 0 .25-.425c.02-.193 0-.348-.096-.483a.52.52 0 0 0-.405-.251c-.193-.058-.347 0-.482.097l-.579.386zm-1.408-4.826.887-.599a.9.9 0 0 0 .27-.425c0-.193-.02-.347-.097-.482a.58.58 0 0 0-.424-.251.48.48 0 0 0-.482.096l-1.293.869a.45.45 0 0 0-.25.309.8.8 0 0 0 0 .425l.347 1.119a.64.64 0 0 0 .328.348.62.62 0 0 0 .52.039.8.8 0 0 0 .348-.329.54.54 0 0 0 .038-.482zm7.6-1.371a.7.7 0 0 0 .29-.425.7.7 0 0 0-.097-.483.55.55 0 0 0-.425-.251c-.173-.058-.328-.019-.482.097l-7.89 5.329a.48.48 0 0 0-.25.386c-.058.174-.02.328.096.482a.67.67 0 0 0 .386.29c.174 0 .328 0 .482-.096zm-.232 1.525a.53.53 0 0 0-.482-.058.58.58 0 0 0-.386.29.61.61 0 0 0-.057.521l.192.695-.906.657a.5.5 0 0 0-.251.405.6.6 0 0 0 .096.483c.097.135.232.212.425.251.173.019.328 0 .482-.097l1.273-.888a.65.65 0 0 0 .232-.328c.038-.135.058-.251.038-.386l-.328-1.159c-.058-.174-.173-.289-.328-.386m-1.215-4.865a.636.636 0 0 0-.617-.483.8.8 0 0 0-.405.116l-1.409 1.042a.55.55 0 0 0-.23.406.62.62 0 0 0 .096.483c.096.135.25.212.424.251a.63.63 0 0 0 .482-.116l.637-.464.096.271a.76.76 0 0 0 .29.386.72.72 0 0 0 .501.058.8.8 0 0 0 .386-.329.6.6 0 0 0 .077-.482zm-28.24-117.85a.44.44 0 0 0-.29.232.54.54 0 0 0-.116.347v84.043c0 .155.058.29.155.425a.9.9 0 0 0 .385.232c.135 0 .27 0 .405-.077l39.352-22.609a.8.8 0 0 0 .251-.251.63.63 0 0 0 .077-.328V51.878c0-.155-.038-.29-.135-.386-.096-.135-.193-.213-.328-.232a.6.6 0 0 0-.405.039zm.867 1.023 38.06-15.407v76.012l-38.06 21.913z"/><path fill="#fff" d="m52.7 219.405-4.185 5.811 50.231-35.583 3.877-5.753zm-14.68 3.436v-36.046l-7.465-4.19v35.989zm7.1-32.03-5.807-3.302v36.066l6.289 3.533 5.903-8.321-6.347-21.74s-.038-.135-.038-.193zm53.433-28.613v-5.194l-52.16 33.788v6.004l6.173 21.103 51.813-36.838-5.806-18.67s-.02-.135-.02-.193M80.806 184.71a.6.6 0 0 1 .251.367l.328 1.139a.68.68 0 0 1-.077.482.8.8 0 0 1-.386.329.85.85 0 0 1-.501-.058.76.76 0 0 1-.29-.386l-.096-.271-.637.464a.73.73 0 0 1-.482.116c-.174-.039-.328-.116-.424-.251a.62.62 0 0 1-.097-.483.55.55 0 0 1 .231-.406l1.409-1.042a.8.8 0 0 1 .405-.116c.135 0 .25.039.366.116m.984 5.174a.53.53 0 0 1 .482.058c.155.097.27.212.328.386l.328 1.159c0 .135 0 .251-.038.386a.65.65 0 0 1-.232.328l-1.273.888c-.154.097-.309.116-.482.097-.193-.039-.328-.116-.425-.251-.096-.136-.135-.309-.096-.483a.5.5 0 0 1 .25-.405l.907-.657-.193-.695a.61.61 0 0 1 .058-.521.58.58 0 0 1 .386-.29m1.003-1.892a.7.7 0 0 1-.29.425l-7.889 5.329a.84.84 0 0 1-.482.096.67.67 0 0 1-.386-.29c-.116-.154-.154-.308-.096-.482 0-.174.096-.29.25-.386l7.89-5.329c.154-.116.309-.155.482-.097.174 0 .328.097.425.251.096.155.115.309.096.483m-7.002 1.197-.888.599.193.637a.54.54 0 0 1-.038.482.8.8 0 0 1-.347.329.62.62 0 0 1-.521-.039.64.64 0 0 1-.328-.348l-.347-1.119a.8.8 0 0 1 0-.425.45.45 0 0 1 .25-.309l1.293-.869a.48.48 0 0 1 .482-.096c.174 0 .309.096.424.251a.78.78 0 0 1 .097.482.9.9 0 0 1-.27.425m.193 5.039c.154.077.27.213.328.386l.096.29.579-.386a.48.48 0 0 1 .482-.097c.174 0 .309.097.405.251.097.135.116.29.097.483a.74.74 0 0 1-.251.425l-1.312.888a.95.95 0 0 1-.386.096c-.154 0-.289-.038-.385-.135-.136-.077-.213-.174-.232-.309l-.347-1.158a.61.61 0 0 1 .058-.521.74.74 0 0 1 .385-.29.48.48 0 0 1 .483.077M98.554 34.27 46.392 53.905v135.342l52.16-33.787zM52.526 67.459a.44.44 0 0 1 .29-.232l39.351-15.928a.6.6 0 0 1 .405-.039c.135.02.232.096.328.232.097.096.135.231.135.386v77.363c0 .116-.019.232-.077.328a.8.8 0 0 1-.25.251l-39.353 22.609a.76.76 0 0 1-.405.077.9.9 0 0 1-.385-.232.7.7 0 0 1-.155-.425V67.806q0-.202.116-.347m39.217-14.616L53.684 68.25v82.518l38.06-21.913zm-46.817.985-5.614-2.047v134.28l5.807 3.283V53.867s-.135 0-.193-.04m-6.25-3.63c.173 0 .308.058.443.193.02.02.039.058.058.077q.145-.087.347 0l5.845 2.143a.6.6 0 0 1 .29.194l51.254-19.269-13.58-2.915-51.467 17.048 6.443 2.336c.116.058.212.116.29.193zm-.656 1.062s-.097 0-.154-.02l-7.311-2.664V181.08l7.465 4.248z"/><path fill="#a42444" d="M139.738 282.364a1.48 1.48 0 0 0-1.023-.559 1.43 1.43 0 0 0-1.138.328c-.328.27-.521.618-.559 1.042-.058.406.058.792.328 1.12l1.929 2.414c.27.328.617.521 1.041.559.405.058.791-.057 1.119-.328.328-.27.521-.618.56-1.023a1.44 1.44 0 0 0-.328-1.139zM132.195 275.568a1.48 1.48 0 0 0-.559 1.043c-.058.406.058.792.328 1.12l1.929 2.413c.27.328.617.522 1.041.56a1.4 1.4 0 0 0 1.119-.328c.328-.27.521-.618.56-1.023a1.43 1.43 0 0 0-.328-1.139l-1.929-2.414a1.5 1.5 0 0 0-.328-.289 1.53 1.53 0 0 0-.714-.271 1.43 1.43 0 0 0-1.138.328M127.99 268.618a1.43 1.43 0 0 0-1.138.328 1.49 1.49 0 0 0-.56 1.043c-.057.405.058.791.328 1.12l1.929 2.413c.27.328.618.521 1.042.56a1.4 1.4 0 0 0 1.119-.328 1.48 1.48 0 0 0 .559-1.024 1.44 1.44 0 0 0-.328-1.139l-1.929-2.413a1.48 1.48 0 0 0-1.022-.56M125.772 265.278a1.4 1.4 0 0 0-.193-.309l-1.929-2.413a1.48 1.48 0 0 0-1.023-.56 1.43 1.43 0 0 0-1.138.328c-.328.27-.521.618-.559 1.043a1.4 1.4 0 0 0 .328 1.119l1.929 2.414c.27.328.617.521 1.041.56.405.058.791-.058 1.119-.329.328-.27.521-.617.56-1.023.038-.309 0-.579-.155-.849M118.287 255.953a1.47 1.47 0 0 0-1.022-.56 1.43 1.43 0 0 0-1.138.328c-.328.27-.521.618-.56 1.043a1.4 1.4 0 0 0 .328 1.119l1.929 2.414c.097.116.212.212.328.289.212.135.444.232.733.271.405.058.791-.058 1.119-.329.328-.27.521-.617.559-1.023a1.43 1.43 0 0 0-.328-1.139l-1.929-2.413M111.883 248.79a1.43 1.43 0 0 0-1.138.328c-.328.27-.521.618-.56 1.043a1.4 1.4 0 0 0 .328 1.119l1.929 2.414c.27.328.617.521 1.042.56.405.058.791-.058 1.119-.329.328-.27.52-.617.559-1.023a1.43 1.43 0 0 0-.328-1.139l-1.929-2.413a1.47 1.47 0 0 0-1.022-.56M107.542 242.727a1.48 1.48 0 0 0-1.022-.56 1.43 1.43 0 0 0-1.138.329 1.48 1.48 0 0 0-.559 1.042 1.4 1.4 0 0 0 .327 1.12l1.929 2.413a1.48 1.48 0 0 0 1.042.56 1.4 1.4 0 0 0 1.119-.328c.328-.27.521-.618.559-1.023a1.43 1.43 0 0 0-.328-1.139zM102.18 236.124a1.48 1.48 0 0 0-1.023-.56 1.43 1.43 0 0 0-1.138.329c-.328.27-.52.618-.56 1.042-.057.406.059.792.329 1.12l1.929 2.413c.116.136.231.232.366.309.193.136.425.213.675.251a1.4 1.4 0 0 0 1.119-.328c.328-.27.521-.618.56-1.023v-.232a1.37 1.37 0 0 0-.348-.907l-1.929-2.414M95.795 228.942a1.43 1.43 0 0 0-1.138.328c-.328.271-.521.618-.56 1.043-.058.405.058.792.328 1.12l1.93 2.413c.096.116.211.213.327.29.212.135.444.231.733.27a1.4 1.4 0 0 0 1.119-.328c.328-.27.52-.618.56-1.023a1.44 1.44 0 0 0-.329-1.14l-1.929-2.413a1.48 1.48 0 0 0-1.022-.56M91.455 222.899a1.48 1.48 0 0 0-1.023-.56c-.25-.038-.502 0-.733.077-.154.058-.29.135-.424.251-.328.271-.521.618-.56 1.043-.058.405.058.791.328 1.12l1.93 2.413c.27.328.617.521 1.04.56a1.4 1.4 0 0 0 1.12-.328c.328-.271.52-.618.56-1.023a1.44 1.44 0 0 0-.329-1.14l-1.929-2.413M86.092 216.277a1.48 1.48 0 0 0-1.023-.56 1.43 1.43 0 0 0-1.138.328c-.328.27-.52.618-.56 1.043-.057.405.059.791.329 1.12l1.929 2.413c.27.328.617.521 1.041.56a1.4 1.4 0 0 0 1.12-.328c.327-.271.52-.618.559-1.024a1.44 1.44 0 0 0-.328-1.139zM144.078 288.388a1.43 1.43 0 0 0-1.138.329c-.328.27-.521.617-.56 1.042-.057.406.058.792.328 1.12l1.447 1.796.482.598c.27.328.618.521 1.042.56a1.4 1.4 0 0 0 1.119-.328 1.48 1.48 0 0 0 .559-1.024 1.44 1.44 0 0 0-.328-1.139l-.482-.598-1.447-1.796a1.48 1.48 0 0 0-1.022-.56M149.769 294.991a1.43 1.43 0 0 0-1.139.329c-.328.27-.52.617-.559 1.042-.058.406.058.792.328 1.12l1.447 1.796.482.598c.27.328.617.521 1.042.56.405.058.79-.058 1.118-.328.328-.271.521-.618.56-1.024a1.44 1.44 0 0 0-.328-1.139l-.482-.598-1.447-1.796a1.48 1.48 0 0 0-1.022-.56"/><path fill="#231815" d="m129.205 241.028.695-.926c.656.656 1.466 1.255 2.777 1.255s2.412-1.024 2.412-2.665-.926-2.587-2.354-2.587c-.752 0-1.234.232-1.89.657l-.752-.464.347-5.29h5.498v1.197h-4.264l-.27 3.282c.502-.27 1.003-.444 1.679-.444 1.89 0 3.414 1.12 3.414 3.591s-1.794 3.9-3.704 3.9c-1.755 0-2.835-.733-3.588-1.506M143.21 236.414c-.502 0-.926.309-1.331 1.043l-.791-.56c.637-1.082 1.408-1.545 2.16-1.545 1.351 0 2.084 1.448 3.048 1.448.502 0 .926-.309 1.312-1.043l.81.58c-.636 1.081-1.408 1.544-2.141 1.544-1.37 0-2.103-1.467-3.067-1.467M152.874 241.492c3.55-3.109 5.189-5.348 5.189-7.298 0-1.294-.675-2.24-2.083-2.24-.926 0-1.736.579-2.353 1.313l-.811-.811c.926-1.004 1.891-1.66 3.338-1.66 2.025 0 3.279 1.332 3.279 3.34 0 2.259-1.775 4.556-4.418 7.066.579-.038 1.274-.116 1.852-.116h3.125v1.217h-7.118v-.831zM161.362 236.626c0-3.938 1.37-5.83 3.53-5.83s3.511 1.911 3.511 5.83-1.37 5.889-3.511 5.889-3.53-1.969-3.53-5.889m5.671 0c0-3.301-.868-4.691-2.141-4.691s-2.16 1.39-2.16 4.691.868 4.769 2.16 4.769 2.141-1.429 2.141-4.769M173.11 238.132c0-2.799 1.89-4.421 4.031-4.421 1.1 0 1.852.463 2.45.985l-.733.946c-.502-.444-1.003-.753-1.678-.753-1.505 0-2.624 1.313-2.624 3.243 0 1.931 1.042 3.205 2.585 3.205.772 0 1.447-.347 1.968-.83l.598.946a4 4 0 0 1-2.701 1.062c-2.218 0-3.935-1.602-3.935-4.383zM181.443 233.943h1.157l.116 1.216h.039c.733-.811 1.601-1.429 2.604-1.429 1.273 0 1.967.618 2.315 1.603.868-.946 1.736-1.603 2.758-1.603 1.736 0 2.546 1.139 2.546 3.283v5.309h-1.408v-5.116c0-1.584-.501-2.24-1.562-2.24-.656 0-1.331.425-2.122 1.274v6.082h-1.408v-5.116c0-1.584-.502-2.24-1.563-2.24-.636 0-1.35.425-2.122 1.274v6.082h-1.408v-8.379z"/></g><defs><clipPath id="a"><path fill="#fff" d="M0 0h300v380H0z"/></clipPath></defs></svg>