<?xml version="1.0" encoding="UTF-8"?>
<svg id="Layer_1" xmlns="http://www.w3.org/2000/svg" version="1.1" viewBox="0 0 178.6 195.6">
  <!-- Generator: Adobe Illustrator 30.5.1, SVG Export Plug-In . SVG Version: 2.1.4 Build 3)  -->
  <defs>
    <style>
      .st0, .st1, .st2, .st3, .st4, .st5, .st6, .st7, .st8, .st9, .st10, .st11, .st12 {
        stroke: #000;
        stroke-miterlimit: 10;
      }

      .st0, .st1, .st2, .st5, .st6, .st12 {
        fill: none;
      }

      .st0, .st2, .st7, .st8, .st9 {
        stroke-width: .5px;
      }

      .st13 {
        fill: #231815;
      }

      .st2, .st5, .st9, .st10 {
        stroke-linecap: round;
      }

      .st14 {
        fill: #888;
      }

      .st14, .st12 {
        fill-rule: evenodd;
      }

      .st15, .st8, .st9, .st10, .st11 {
        fill: #fff;
      }

      .st4 {
        opacity: .6;
      }

      .st5, .st6, .st11, .st12 {
        stroke-width: .2px;
      }

      .st16 {
        opacity: .2;
      }

      .st17 {
        fill: #221e1f;
      }
    </style>
  </defs>
  <rect class="st15" width="178.6" height="195.6"/>
  <g>
    <g>
      <path class="st15" d="M24.9,139.8c-2.3,0-4.7-.2-5.8-1.2-.4-.3-.7-.8-1-1.4-.6-.2-1.3-.8-1.4-.8h0c0,0,0-.2,0-.2-.5-1-2-2.1-2.7-2.5-.2-.1-.3-.2-.4-.3-.7-.5-.8-2.3-.9-3.3,0-.9-.2-107-.2-108s.1-2.4.9-2.9c.9-.6,1.6-1.1,2-1.4.4-.3.9-1.2,1.1-1.5h0c0-.1,1.6-1,1.6-1,.7-1.9,3.7-2.3,3.9-2.3l10.3.4v125.5h-.4c-.2,0-5.1.8-6.8.8h0Z"/>
      <path d="M22,13.5l9.7.4v124.6s-5,.8-6.7.8,0,0,0,0c-1.6,0-4.4-.1-5.5-1.1-.4-.3-.7-.9-.9-1.4h0c-.6-.1-1.5-.8-1.5-.8-.7-1.4-2.7-2.6-3.2-3-.5-.4-.6-2.1-.7-2.9s-.2-107.5-.2-107.9.2-2.2.7-2.5c.4-.3,1.4-1,2-1.4.6-.5,1.2-1.7,1.2-1.7l1.5-.8h0c0,0,0,0,0,0,.5-1.7,3.5-2.1,3.5-2.1M22,12.5h0c-.3,0-3.3.5-4.2,2.5l-1.3.7h-.3c0,.1-.1.4-.1.4-.2.4-.7,1.1-1,1.4-.4.3-1.1.8-2,1.4-1.1.7-1.1,3.3-1.1,3.3,0,1,.2,107.1.2,108,0,1.9.4,3.2,1,3.7,0,0,.2.2.4.3.7.5,2,1.4,2.5,2.4v.2c.1,0,.3.1.3.1.2.2.8.6,1.4.8.3.6.6,1.1,1,1.4,1.3,1.1,3.7,1.3,6.1,1.3h0c1.8,0,6.7-.7,6.9-.8h.8V13h-1s-9.7-.5-9.7-.5h0Z"/>
    </g>
    <g>
      <path class="st15" d="M29.9,139.1c-3.9,0-7-3.1-7-7.1V20.7c0-4.1,3.2-7.4,7.4-7.4s.3,0,.4,0l28.4,1.4c4.2.2,7.7,3.8,7.7,8.1v105.2c0,4.2-3.4,8-7.6,8.4l-28.5,2.7c-.2,0-.5,0-.7,0Z"/>
      <path d="M30.2,13.8c.1,0,.2,0,.4,0l28.4,1.4c4,.2,7.2,3.6,7.2,7.6v105.2c0,4-3.2,7.5-7.2,7.9l-28.5,2.7c-.2,0-.5,0-.7,0-3.6,0-6.5-2.8-6.5-6.6V20.7c0-3.9,3.1-6.9,6.9-6.9M30.2,12.8h0c-4.4,0-7.9,3.5-7.9,7.9v111.4c0,4.3,3.3,7.6,7.5,7.6s.5,0,.8,0l28.5-2.7c4.5-.4,8.1-4.4,8.1-8.9V22.8c0-4.5-3.7-8.4-8.2-8.6l-28.4-1.4c-.1,0-.3,0-.4,0h0Z"/>
    </g>
    <g>
      <g>
        <path class="st15" d="M121.1,147.1c0,4.9-4,9.5-8.9,10.1l-17.2,2.3c-4.9.7-8.8-2.8-8.8-7.7l.3-94.6c0-4.9,4-8.8,8.9-8.6l16.8.6c4.9.2,8.9,4.3,8.9,9.3v88.6Z"/>
        <path class="st1" d="M121.1,147.1c0,4.9-4,9.5-8.9,10.1l-17.2,2.3c-4.9.7-8.8-2.8-8.8-7.7l.3-94.6c0-4.9,4-8.8,8.9-8.6l16.8.6c4.9.2,8.9,4.3,8.9,9.3v88.6Z"/>
      </g>
      <path class="st0" d="M121.1,147.8c0,3.7-3,7.2-6.7,7.7l-17.2,2.4c-3.7.5-6.7-2.1-6.7-5.9l.2-95.7c0-3.7,3.1-6.7,6.8-6.5l16.8.7c3.7.2,6.8,3.3,6.8,7.1v90.2Z"/>
      <rect class="st6" x="87.4" y="76.5" width="1.4" height="13.5" rx=".5" ry=".5"/>
      <path class="st5" d="M88.4,76.5h0c.5,0,.9.4.9.8v12c0,.4-.4.8-.9.8h0"/>
      <path class="st2" d="M102.1,75.2h-6.7c-1.7,0-3.1-1.3-3.1-3v-17.2c0-1.7,1.4-3,3.1-3h6.7c1.7.2,3,1.6,3,3.2v16.9c0,1.7-1.4,3-3,3Z"/>
      <path class="st2" d="M97.8,75.3c-2.5,0-4.6-.8-4.6-3.3v-16.5c0-2.5,2.1-3.4,4.6-3.4"/>
      <ellipse class="st7" cx="96.3" cy="57.7" rx="2.9" ry="4.8"/>
      <ellipse class="st11" cx="96.6" cy="57.7" rx="2.9" ry="4.8"/>
      <ellipse class="st5" cx="96.6" cy="57.7" rx="2.2" ry="3.7"/>
      <ellipse class="st7" cx="96.3" cy="69.4" rx="2.9" ry="4.8"/>
      <ellipse class="st11" cx="96.6" cy="69.4" rx="2.9" ry="4.8"/>
      <ellipse class="st5" cx="96.6" cy="69.4" rx="2.2" ry="3.7"/>
      <ellipse class="st7" cx="102.2" cy="63.6" rx="2.7" ry="4.6"/>
      <ellipse class="st11" cx="102.6" cy="63.6" rx="2.7" ry="4.6"/>
      <ellipse class="st5" cx="102.6" cy="63.6" rx="2.1" ry="3.6"/>
      <line class="st1" x1="86.4" y1="59.5" x2="90.6" y2="59.5"/>
      <path class="st1" d="M86.1,149.4s1.6.3,4.3.2"/>
    </g>
    <path class="st8" d="M18.5,15.7l-1.5.8s-.6,1.2-1.2,1.7-1.6,1.1-2,1.4-.7,2.1-.7,2.5.2,107.1.2,107.9.2,2.5.7,2.9,2.5,1.6,3.2,3c0,0,.9.7,1.5.8l2.1.5V15.5l-2.1.2Z"/>
    <path class="st8" d="M31.8,13.9l-9.7-.4s-2.9.4-3.5,2.1c0,0-.6,1-.6,4.5v113.4c0,1.4.4,3.8,1.6,4.7s3.8,1,5.5,1.1,6.8-.8,6.8-.8V13.9Z"/>
    <g>
      <path class="st15" d="M66.2,128c0,4-3.2,7.5-7.2,7.9l-28.5,2.7c-4,.4-7.2-2.6-7.2-6.5V20.7c0-4,3.2-7.1,7.2-6.9l28.4,1.4c4,.2,7.2,3.6,7.2,7.6v105.2Z"/>
      <path class="st0" d="M66.2,128c0,4-3.2,7.5-7.2,7.9l-28.5,2.7c-4,.4-7.2-2.6-7.2-6.5V20.7c0-4,3.2-7.1,7.2-6.9l28.4,1.4c4,.2,7.2,3.6,7.2,7.6v105.2Z"/>
    </g>
    <polygon class="st3" points="62.2 120.3 26.7 122.8 26.4 33.2 62.7 34.1 62.2 120.3"/>
    <path class="st15" d="M61.9,117.8c0,1.2-1,2.2-2.1,2.3l-30.8,2.2c-1.2,0-2.1-.8-2.1-2l-.3-84.6c0-1.2.9-2.1,2.1-2.1l31.5.8c1.2,0,2.1,1,2.1,2.2l-.5,81.3Z"/>
    <ellipse class="st6" cx="38.6" cy="22.9" rx="2.5" ry="3.6"/>
    <ellipse class="st6" cx="37.3" cy="22.9" rx="1.1" ry="2"/>
    <path class="st12" d="M37.8,22.9c0,.7-.4,1.2-1,1.2s-.8-.5-.8-1.2.2-1.2.8-1.2,1,.5,1,1.2Z"/>
    <path class="st12" d="M37,23c0,.4-.2.6-.5.6s-.4-.3-.4-.6.1-.6.4-.6.5.3.5.6Z"/>
    <path class="st12" d="M27.4,23c0,.2-.1.4-.3.4s-.2-.2-.2-.4,0-.4.2-.4.3.2.3.4Z"/>
    <ellipse class="st6" cx="49.6" cy="23.4" rx="1.1" ry="2"/>
    <path class="st12" d="M50,23.5c0,.7-.4,1.2-.8,1.2s-.7-.5-.7-1.2.2-1.2.7-1.2.8.5.8,1.2Z"/>
    <path class="st12" d="M49.4,23.5c0,.4-.2.6-.5.6s-.4-.3-.4-.6.1-.6.4-.6.5.3.5.6Z"/>
    <ellipse class="st6" cx="50.9" cy="23.4" rx="2.4" ry="3.6"/>
    <rect class="st11" x="56.1" y="19.6" width="2.8" height="8.2" rx=".9" ry=".9"/>
    <rect class="st11" x="30.4" y="18.3" width="3" height="8.6" rx="1" ry="1"/>
    <path class="st8" d="M26.8,100.6s.5-.8.8-1.5.7-2,.7-2.7.5-4,.6-5,.4-3.5.4-4.2.2-2,.3-2.7.3-4.2.4-5.1.1-2.7.2-3.3.1-.8.4-1.3,2.2-2.6,2.3-2.7.3,0,.3-.2,1.4-3.1,2.1-3.5,1,.6,1.1.9.2,2.1.2,2.7,0,1.7,0,2.1,0,1.4-.1,1.6-.6,1.5-1.7,2.3c0,0,.3.8.4,1.8s-.1,2.3,0,3c0,0,.8-.2,1.6,0s.9,1.4,2.2,1.1,14.8-12.8,14.8-12.8c0,0,1-1.9,2.6-1.3s1,2.6.9,3-1,1.7-1,1.7c0,0,1,.3,1.2,1.8s-.1,3.2-.9,4.4c0,0,1.2,1.4.9,3.6s-1.7,3.8-1.7,3.8c0,0,1.2.1,1.5,3.1s-3.1,5.7-3.1,5.7c0,0-6.5,7.3-8.1,9.3s-3.7,3.8-4.5,4.4-1.8,1.2-3.2,1.9-2.2.8-2.2.8c0,0-1.5,2.2-2.1,3.2s-3.7,6-3.7,6h-2.3c0,.1-1.2-.5-1.2-1.7v-20.2Z"/>
    <path class="st6" d="M33.3,72.1s0,.3.5.1,1-1.3,1.3-1.7.7-1.6.3-1.8"/>
    <path class="st17" d="M33.2,77.8c0,0,.2,0,.8.2.7,0,.9,0,.9,0,0,0,0,.3-.9.2-.4,0-.6-.2-.7-.3,0,0-.1-.1,0-.2Z"/>
    <path class="st5" d="M35.3,82.7s0,1,.6,1.6"/>
    <path class="st17" d="M30.8,88.3s.1,0,.5-.1c.4-.1,1.1-.2,2-.9.9-.7,1.3-1.3,1.5-1.6.2-.3.3-.4.3-.4,0,0,0,.1-.2.5-.2.3-.6,1-1.5,1.7-1,.7-1.7.8-2.1.8-.4,0-.5,0-.5,0Z"/>
    <g class="st16">
      <path class="st17" d="M28.7,101.1s0,.2.2,1.1c.2.9.3,2.5,1.7,4.8,1.4,2.3,2.7,3.2,3.4,3.8.7.6.9.7.9.7,0,0,0,0-.2,0-.2,0-.4-.2-.8-.5-.7-.6-2.1-1.5-3.5-3.8-1.4-2.3-1.5-4-1.7-4.9,0-.9,0-1.2,0-1.2Z"/>
    </g>
    <path class="st17" d="M36.6,88.3c0,0,0-.2-.4-1.2-.3-1-.3-1.3-.2-1.3,0,0,.2.1.5,1.2.3,1.1.2,1.3.1,1.3Z"/>
    <path class="st17" d="M56.1,94.2s-.3.2-.9-.4c-.6-.6-.6-.8-.5-.8,0,0,.2,0,.7.6.6.5.7.5.7.5Z"/>
    <g>
      <g>
        <path class="st15" d="M54.8,100.8c0,1.9-1.5,3.5-3.4,3.6l-11.1.7c-1.9.1-3.4-1.3-3.4-3.2l-.4-46.9c0-1.9,1.5-3.4,3.4-3.4h11.6c1.9,0,3.4,1.5,3.4,3.3v45.9Z"/>
        <path class="st0" d="M54.8,100.8c0,1.9-1.5,3.5-3.4,3.6l-11.1.7c-1.9.1-3.4-1.3-3.4-3.2l-.4-46.9c0-1.9,1.5-3.4,3.4-3.4h11.6c1.9,0,3.4,1.5,3.4,3.3v45.9Z"/>
      </g>
      <g>
        <path class="st15" d="M54.1,99.8c0,1.3-1.1,2.4-2.4,2.5l-11.8.7c-1.3,0-2.4-.9-2.4-2.2l-.4-45.7c0-1.3,1-2.4,2.4-2.4h12.2c1.3,0,2.4,1,2.4,2.3v44.7Z"/>
        <path class="st6" d="M54.1,99.8c0,1.3-1.1,2.4-2.4,2.5l-11.8.7c-1.3,0-2.4-.9-2.4-2.2l-.4-45.7c0-1.3,1-2.4,2.4-2.4h12.2c1.3,0,2.4,1,2.4,2.3v44.7Z"/>
      </g>
      <rect class="st11" x="36.3" y="64.1" width=".7" height="5.2" rx=".3" ry=".3"/>
      <rect class="st11" x="44.3" y="52" width="2.8" height=".4" rx=".1" ry=".1"/>
      <g>
        <polygon class="st13" points="52.3 66 52.3 66.6 51.9 66.6 51.9 66 52.3 66"/>
        <polygon class="st13" points="51.9 66 51.9 66.6 51.4 66.6 51.4 66 51.9 66"/>
        <polygon class="st13" points="51.4 66 51.4 66.6 51 66.6 51 66 51.4 66"/>
        <polygon class="st13" points="51 66 51 66.6 50.6 66.6 50.6 66 51 66"/>
        <polygon class="st13" points="50.6 66 50.6 66.6 50.1 66.6 50.1 66 50.6 66"/>
        <polygon class="st13" points="50.1 66 50.1 66.6 49.7 66.6 49.7 66 50.1 66"/>
        <polygon class="st13" points="49.7 66 49.7 66.6 49.2 66.6 49.2 66 49.7 66"/>
        <polygon class="st13" points="48.8 66 48.8 66.6 48.4 66.6 48.4 66 48.8 66"/>
        <polygon class="st13" points="48.4 66 48.4 66.6 47.9 66.6 47.9 66 48.4 66"/>
        <polygon class="st13" points="47.9 66 47.9 66.6 47.5 66.6 47.5 66 47.9 66"/>
        <polygon class="st13" points="46.6 66 46.6 66.7 46.2 66.7 46.2 66.1 46.6 66"/>
        <polygon class="st13" points="46.2 66.1 46.2 66.7 45.7 66.7 45.7 66.1 46.2 66.1"/>
        <polygon class="st13" points="44.4 66.1 44.4 66.7 44 66.7 44 66.1 44.4 66.1"/>
        <polygon class="st13" points="43.5 66.1 43.5 66.7 43.1 66.7 43.1 66.1 43.5 66.1"/>
        <polygon class="st13" points="42.6 66.1 42.6 66.7 42.2 66.7 42.2 66.1 42.6 66.1"/>
        <polygon class="st13" points="42.2 66.1 42.2 66.7 41.7 66.7 41.7 66.1 42.2 66.1"/>
        <polygon class="st13" points="41.7 66.1 41.7 66.7 41.3 66.7 41.3 66.1 41.7 66.1"/>
        <polygon class="st13" points="41.3 66.1 41.3 66.7 40.8 66.7 40.8 66.1 41.3 66.1"/>
        <polygon class="st13" points="40.8 66.1 40.8 66.7 40.4 66.7 40.4 66.1 40.8 66.1"/>
        <polygon class="st13" points="40.4 66.1 40.4 66.7 39.9 66.7 39.9 66.1 40.4 66.1"/>
        <polygon class="st13" points="39.9 66.1 39.9 66.7 39.5 66.7 39.5 66.1 39.9 66.1"/>
        <polygon class="st13" points="52.3 66.6 52.3 67.2 51.9 67.2 51.9 66.6 52.3 66.6"/>
        <polygon class="st13" points="49.7 66.6 49.7 67.2 49.2 67.2 49.2 66.6 49.7 66.6"/>
        <polygon class="st13" points="47 66.7 47 67.3 46.6 67.3 46.6 66.7 47 66.7"/>
        <polygon class="st13" points="45.3 66.7 45.3 67.3 44.8 67.3 44.8 66.7 45.3 66.7"/>
        <polygon class="st13" points="44.8 66.7 44.8 67.3 44.4 67.3 44.4 66.7 44.8 66.7"/>
        <polygon class="st13" points="44 66.7 44 67.3 43.5 67.3 43.5 66.7 44 66.7"/>
        <polygon class="st13" points="42.6 66.7 42.6 67.3 42.2 67.3 42.2 66.7 42.6 66.7"/>
        <polygon class="st13" points="39.9 66.7 39.9 67.3 39.5 67.3 39.5 66.7 39.9 66.7"/>
        <polygon class="st13" points="52.3 67.2 52.3 67.8 51.9 67.8 51.9 67.2 52.3 67.2"/>
        <polygon class="st13" points="51.4 67.2 51.4 67.8 51 67.8 51 67.2 51.4 67.2"/>
        <polygon class="st13" points="51 67.2 51 67.8 50.6 67.8 50.6 67.2 51 67.2"/>
        <polygon class="st13" points="50.6 67.2 50.6 67.8 50.1 67.8 50.1 67.2 50.6 67.2"/>
        <polygon class="st13" points="49.7 67.2 49.7 67.8 49.2 67.8 49.2 67.2 49.7 67.2"/>
        <polygon class="st13" points="48.4 67.2 48.4 67.9 47.9 67.9 47.9 67.3 48.4 67.2"/>
        <polygon class="st13" points="47.5 67.3 47.5 67.9 47 67.9 47 67.3 47.5 67.3"/>
        <polygon class="st13" points="46.6 67.3 46.6 67.9 46.2 67.9 46.2 67.3 46.6 67.3"/>
        <polygon class="st13" points="46.2 67.3 46.2 67.9 45.7 67.9 45.7 67.3 46.2 67.3"/>
        <polygon class="st13" points="44.4 67.3 44.4 67.9 44 67.9 44 67.3 44.4 67.3"/>
        <polygon class="st13" points="42.6 67.3 42.6 67.9 42.2 67.9 42.2 67.3 42.6 67.3"/>
        <polygon class="st13" points="41.7 67.3 41.7 67.9 41.3 67.9 41.3 67.3 41.7 67.3"/>
        <polygon class="st13" points="41.3 67.3 41.3 67.9 40.8 67.9 40.8 67.3 41.3 67.3"/>
        <polygon class="st13" points="40.8 67.3 40.8 67.9 40.4 67.9 40.4 67.3 40.8 67.3"/>
        <polygon class="st13" points="39.9 67.3 39.9 67.9 39.5 67.9 39.5 67.3 39.9 67.3"/>
        <polygon class="st13" points="52.3 67.8 52.3 68.4 51.9 68.4 51.9 67.8 52.3 67.8"/>
        <polygon class="st13" points="51.4 67.8 51.4 68.4 51 68.4 51 67.8 51.4 67.8"/>
        <polygon class="st13" points="51 67.8 51 68.4 50.6 68.4 50.6 67.8 51 67.8"/>
        <polygon class="st13" points="50.6 67.8 50.6 68.4 50.1 68.4 50.1 67.8 50.6 67.8"/>
        <polygon class="st13" points="49.7 67.8 49.7 68.4 49.2 68.5 49.2 67.8 49.7 67.8"/>
        <polygon class="st13" points="48.4 67.9 48.4 68.5 47.9 68.5 47.9 67.9 48.4 67.9"/>
        <polygon class="st13" points="47.5 67.9 47.5 68.5 47 68.5 47 67.9 47.5 67.9"/>
        <polygon class="st13" points="47 67.9 47 68.5 46.6 68.5 46.6 67.9 47 67.9"/>
        <polygon class="st13" points="46.6 67.9 46.6 68.5 46.2 68.5 46.2 67.9 46.6 67.9"/>
        <polygon class="st13" points="45.7 67.9 45.7 68.5 45.3 68.5 45.3 67.9 45.7 67.9"/>
        <polygon class="st13" points="45.3 67.9 45.3 68.5 44.8 68.5 44.8 67.9 45.3 67.9"/>
        <polygon class="st13" points="44.8 67.9 44.8 68.5 44.4 68.5 44.4 67.9 44.8 67.9"/>
        <polygon class="st13" points="43.5 67.9 43.5 68.5 43.1 68.5 43.1 67.9 43.5 67.9"/>
        <polygon class="st13" points="42.6 67.9 42.6 68.5 42.2 68.5 42.2 67.9 42.6 67.9"/>
        <polygon class="st13" points="41.7 67.9 41.7 68.5 41.3 68.5 41.3 67.9 41.7 67.9"/>
        <polygon class="st13" points="41.3 67.9 41.3 68.5 40.8 68.5 40.8 67.9 41.3 67.9"/>
        <polygon class="st13" points="40.8 67.9 40.8 68.5 40.4 68.5 40.4 67.9 40.8 67.9"/>
        <polygon class="st13" points="39.9 67.9 39.9 68.6 39.5 68.6 39.5 67.9 39.9 67.9"/>
        <polygon class="st13" points="52.3 68.4 52.3 69 51.9 69 51.9 68.4 52.3 68.4"/>
        <polygon class="st13" points="51.4 68.4 51.4 69 51 69 51 68.4 51.4 68.4"/>
        <polygon class="st13" points="51 68.4 51 69 50.6 69 50.6 68.4 51 68.4"/>
        <polygon class="st13" points="50.6 68.4 50.6 69 50.1 69 50.1 68.4 50.6 68.4"/>
        <polygon class="st13" points="49.7 68.4 49.7 69.1 49.2 69.1 49.2 68.5 49.7 68.4"/>
        <polygon class="st13" points="48.4 68.5 48.4 69.1 47.9 69.1 47.9 68.5 48.4 68.5"/>
        <polygon class="st13" points="47.9 68.5 47.9 69.1 47.5 69.1 47.5 68.5 47.9 68.5"/>
        <polygon class="st13" points="47 68.5 47 69.1 46.6 69.1 46.6 68.5 47 68.5"/>
        <polygon class="st13" points="46.6 68.5 46.6 69.1 46.2 69.1 46.2 68.5 46.6 68.5"/>
        <polygon class="st13" points="46.2 68.5 46.2 69.1 45.7 69.1 45.7 68.5 46.2 68.5"/>
        <polygon class="st13" points="44.8 68.5 44.8 69.1 44.4 69.1 44.4 68.5 44.8 68.5"/>
        <polygon class="st13" points="44.4 68.5 44.4 69.1 44 69.1 44 68.5 44.4 68.5"/>
        <polygon class="st13" points="44 68.5 44 69.1 43.5 69.1 43.5 68.5 44 68.5"/>
        <polygon class="st13" points="42.6 68.5 42.6 69.1 42.2 69.1 42.2 68.5 42.6 68.5"/>
        <polygon class="st13" points="41.7 68.5 41.7 69.1 41.3 69.1 41.3 68.5 41.7 68.5"/>
        <polygon class="st13" points="41.3 68.5 41.3 69.1 40.8 69.2 40.8 68.5 41.3 68.5"/>
        <polygon class="st13" points="40.8 68.5 40.8 69.2 40.4 69.2 40.4 68.5 40.8 68.5"/>
        <polygon class="st13" points="39.9 68.6 39.9 69.2 39.5 69.2 39.5 68.6 39.9 68.6"/>
        <polygon class="st13" points="52.3 69 52.3 69.6 51.9 69.6 51.9 69 52.3 69"/>
        <polygon class="st13" points="49.7 69.1 49.7 69.7 49.2 69.7 49.2 69.1 49.7 69.1"/>
        <polygon class="st13" points="48.4 69.1 48.4 69.7 47.9 69.7 47.9 69.1 48.4 69.1"/>
        <polygon class="st13" points="47.9 69.1 47.9 69.7 47.5 69.7 47.5 69.1 47.9 69.1"/>
        <polygon class="st13" points="47.5 69.1 47.5 69.7 47 69.7 47 69.1 47.5 69.1"/>
        <polygon class="st13" points="46.2 69.1 46.2 69.7 45.7 69.7 45.7 69.1 46.2 69.1"/>
        <polygon class="st13" points="45.3 69.1 45.3 69.7 44.8 69.7 44.8 69.1 45.3 69.1"/>
        <polygon class="st13" points="44.4 69.1 44.4 69.7 44 69.7 44 69.1 44.4 69.1"/>
        <polygon class="st13" points="42.6 69.1 42.6 69.7 42.2 69.7 42.2 69.1 42.6 69.1"/>
        <polygon class="st13" points="39.9 69.2 39.9 69.8 39.5 69.8 39.5 69.2 39.9 69.2"/>
        <polygon class="st13" points="52.3 69.6 52.3 70.2 51.9 70.2 51.9 69.6 52.3 69.6"/>
        <polygon class="st13" points="51.9 69.6 51.9 70.2 51.4 70.2 51.4 69.6 51.9 69.6"/>
        <polygon class="st13" points="51.4 69.6 51.4 70.2 51 70.2 51 69.6 51.4 69.6"/>
        <polygon class="st13" points="51 69.6 51 70.2 50.5 70.2 50.6 69.6 51 69.6"/>
        <polygon class="st13" points="50.6 69.6 50.5 70.2 50.1 70.3 50.1 69.6 50.6 69.6"/>
        <polygon class="st13" points="50.1 69.6 50.1 70.3 49.7 70.3 49.7 69.7 50.1 69.6"/>
        <polygon class="st13" points="49.7 69.7 49.7 70.3 49.2 70.3 49.2 69.7 49.7 69.7"/>
        <polygon class="st13" points="48.8 69.7 48.8 70.3 48.4 70.3 48.4 69.7 48.8 69.7"/>
        <polygon class="st13" points="47.9 69.7 47.9 70.3 47.5 70.3 47.5 69.7 47.9 69.7"/>
        <polygon class="st13" points="47 69.7 47 70.3 46.6 70.3 46.6 69.7 47 69.7"/>
        <polygon class="st13" points="46.2 69.7 46.2 70.3 45.7 70.3 45.7 69.7 46.2 69.7"/>
        <polygon class="st13" points="45.3 69.7 45.3 70.3 44.8 70.3 44.8 69.7 45.3 69.7"/>
        <polygon class="st13" points="44.4 69.7 44.4 70.3 44 70.3 44 69.7 44.4 69.7"/>
        <polygon class="st13" points="43.5 69.7 43.5 70.3 43.1 70.3 43.1 69.7 43.5 69.7"/>
        <polygon class="st13" points="42.6 69.7 42.6 70.4 42.2 70.4 42.2 69.7 42.6 69.7"/>
        <polygon class="st13" points="42.2 69.7 42.2 70.4 41.7 70.4 41.7 69.8 42.2 69.7"/>
        <polygon class="st13" points="41.7 69.8 41.7 70.4 41.3 70.4 41.3 69.8 41.7 69.8"/>
        <polygon class="st13" points="41.3 69.8 41.3 70.4 40.8 70.4 40.8 69.8 41.3 69.8"/>
        <polygon class="st13" points="40.8 69.8 40.8 70.4 40.4 70.4 40.4 69.8 40.8 69.8"/>
        <polygon class="st13" points="40.4 69.8 40.4 70.4 39.9 70.4 39.9 69.8 40.4 69.8"/>
        <polygon class="st13" points="39.9 69.8 39.9 70.4 39.5 70.4 39.5 69.8 39.9 69.8"/>
        <polygon class="st13" points="48.8 70.3 48.8 70.9 48.4 70.9 48.4 70.3 48.8 70.3"/>
        <polygon class="st13" points="47.9 70.3 47.9 70.9 47.5 70.9 47.5 70.3 47.9 70.3"/>
        <polygon class="st13" points="46.6 70.3 46.6 70.9 46.2 70.9 46.2 70.3 46.6 70.3"/>
        <polygon class="st13" points="46.2 70.3 46.2 70.9 45.7 70.9 45.7 70.3 46.2 70.3"/>
        <polygon class="st13" points="45.3 70.3 45.3 70.9 44.8 70.9 44.8 70.3 45.3 70.3"/>
        <polygon class="st13" points="52.3 70.8 52.3 71.4 51.9 71.4 51.9 70.8 52.3 70.8"/>
        <polygon class="st13" points="51.9 70.8 51.9 71.4 51.4 71.4 51.4 70.8 51.9 70.8"/>
        <polygon class="st13" points="51 70.8 51 71.4 50.5 71.5 50.5 70.9 51 70.8"/>
        <polygon class="st13" points="50.5 70.9 50.5 71.5 50.1 71.5 50.1 70.9 50.5 70.9"/>
        <polygon class="st13" points="49.7 70.9 49.7 71.5 49.2 71.5 49.2 70.9 49.7 70.9"/>
        <polygon class="st13" points="47 70.9 47 71.5 46.6 71.5 46.6 70.9 47 70.9"/>
        <polygon class="st13" points="46.2 70.9 46.2 71.5 45.7 71.5 45.7 70.9 46.2 70.9"/>
        <polygon class="st13" points="45.7 70.9 45.7 71.5 45.3 71.5 45.3 70.9 45.7 70.9"/>
        <polygon class="st13" points="44.8 70.9 44.8 71.5 44.4 71.5 44.4 70.9 44.8 70.9"/>
        <polygon class="st13" points="42.6 71 42.6 71.6 42.2 71.6 42.2 71 42.6 71"/>
        <polygon class="st13" points="39.9 71 39.9 71.6 39.5 71.6 39.5 71 39.9 71"/>
        <polygon class="st13" points="51.9 71.4 51.9 72 51.4 72 51.4 71.4 51.9 71.4"/>
        <polygon class="st13" points="49.2 71.5 49.2 72.1 48.8 72.1 48.8 71.5 49.2 71.5"/>
        <polygon class="st13" points="48.8 71.5 48.8 72.1 48.4 72.1 48.4 71.5 48.8 71.5"/>
        <polygon class="st13" points="47.5 71.5 47.5 72.1 47 72.1 47 71.5 47.5 71.5"/>
        <polygon class="st13" points="46.6 71.5 46.6 72.1 46.2 72.1 46.2 71.5 46.6 71.5"/>
        <polygon class="st13" points="46.2 71.5 46.2 72.1 45.7 72.1 45.7 71.5 46.2 71.5"/>
        <polygon class="st13" points="45.7 71.5 45.7 72.1 45.3 72.1 45.3 71.5 45.7 71.5"/>
        <polygon class="st13" points="44.8 71.5 44.8 72.1 44.4 72.2 44.4 71.5 44.8 71.5"/>
        <polygon class="st13" points="44.4 71.5 44.4 72.2 43.9 72.2 43.9 71.6 44.4 71.5"/>
        <polygon class="st13" points="43.9 71.6 43.9 72.2 43.5 72.2 43.5 71.6 43.9 71.6"/>
        <polygon class="st13" points="43.1 71.6 43.1 72.2 42.6 72.2 42.6 71.6 43.1 71.6"/>
        <polygon class="st13" points="42.2 71.6 42.2 72.2 41.7 72.2 41.7 71.6 42.2 71.6"/>
        <polygon class="st13" points="41.7 71.6 41.7 72.2 41.3 72.2 41.3 71.6 41.7 71.6"/>
        <polygon class="st13" points="40.8 71.6 40.8 72.2 40.4 72.2 40.4 71.6 40.8 71.6"/>
        <polygon class="st13" points="40.4 71.6 40.4 72.2 39.9 72.2 39.9 71.6 40.4 71.6"/>
        <polygon class="st13" points="51.9 72 51.8 72.6 51.4 72.6 51.4 72 51.9 72"/>
        <polygon class="st13" points="51.4 72 51.4 72.6 51 72.7 51 72.1 51.4 72"/>
        <polygon class="st13" points="51 72.1 51 72.7 50.5 72.7 50.5 72.1 51 72.1"/>
        <polygon class="st13" points="50.1 72.1 50.1 72.7 49.7 72.7 49.7 72.1 50.1 72.1"/>
        <polygon class="st13" points="49.7 72.1 49.7 72.7 49.2 72.7 49.2 72.1 49.7 72.1"/>
        <polygon class="st13" points="49.2 72.1 49.2 72.7 48.8 72.7 48.8 72.1 49.2 72.1"/>
        <polygon class="st13" points="48.8 72.1 48.8 72.7 48.4 72.7 48.4 72.1 48.8 72.1"/>
        <polygon class="st13" points="48.4 72.1 48.4 72.7 47.9 72.7 47.9 72.1 48.4 72.1"/>
        <polygon class="st13" points="47.5 72.1 47.5 72.7 47 72.7 47 72.1 47.5 72.1"/>
        <polygon class="st13" points="46.6 72.1 46.6 72.7 46.2 72.7 46.2 72.1 46.6 72.1"/>
        <polygon class="st13" points="45.7 72.1 45.7 72.7 45.3 72.7 45.3 72.1 45.7 72.1"/>
        <polygon class="st13" points="45.3 72.1 45.3 72.7 44.8 72.8 44.8 72.1 45.3 72.1"/>
        <polygon class="st13" points="43.1 72.2 43.1 72.8 42.6 72.8 42.6 72.2 43.1 72.2"/>
        <polygon class="st13" points="42.2 72.2 42.2 72.8 41.7 72.8 41.7 72.2 42.2 72.2"/>
        <polygon class="st13" points="40.8 72.2 40.8 72.8 40.4 72.8 40.4 72.2 40.8 72.2"/>
        <polygon class="st13" points="50.5 72.7 50.5 73.3 50.1 73.3 50.1 72.7 50.5 72.7"/>
        <polygon class="st13" points="50.1 72.7 50.1 73.3 49.7 73.3 49.7 72.7 50.1 72.7"/>
        <polygon class="st13" points="49.2 72.7 49.2 73.3 48.8 73.3 48.8 72.7 49.2 72.7"/>
        <polygon class="st13" points="47.9 72.7 47.9 73.3 47.5 73.3 47.5 72.7 47.9 72.7"/>
        <polygon class="st13" points="47 72.7 47 73.3 46.6 73.3 46.6 72.7 47 72.7"/>
        <polygon class="st13" points="46.2 72.7 46.2 73.3 45.7 73.3 45.7 72.7 46.2 72.7"/>
        <polygon class="st13" points="44.8 72.8 44.8 73.4 44.4 73.4 44.4 72.8 44.8 72.8"/>
        <polygon class="st13" points="43.1 72.8 43.1 73.4 42.6 73.4 42.6 72.8 43.1 72.8"/>
        <polygon class="st13" points="41.3 72.8 41.3 73.4 40.8 73.4 40.8 72.8 41.3 72.8"/>
        <polygon class="st13" points="39.9 72.8 39.9 73.4 39.5 73.5 39.5 72.8 39.9 72.8"/>
        <polygon class="st13" points="52.3 73.2 52.3 73.8 51.8 73.8 51.8 73.2 52.3 73.2"/>
        <polygon class="st13" points="51.4 73.2 51.4 73.8 51 73.9 51 73.3 51.4 73.2"/>
        <polygon class="st13" points="51 73.3 51 73.9 50.5 73.9 50.5 73.3 51 73.3"/>
        <polygon class="st13" points="50.1 73.3 50.1 73.9 49.7 73.9 49.7 73.3 50.1 73.3"/>
        <polygon class="st13" points="49.7 73.3 49.7 73.9 49.2 73.9 49.2 73.3 49.7 73.3"/>
        <polygon class="st13" points="49.2 73.3 49.2 73.9 48.8 73.9 48.8 73.3 49.2 73.3"/>
        <polygon class="st13" points="48.8 73.3 48.8 73.9 48.4 73.9 48.4 73.3 48.8 73.3"/>
        <polygon class="st13" points="48.4 73.3 48.4 73.9 47.9 73.9 47.9 73.3 48.4 73.3"/>
        <polygon class="st13" points="47.9 73.3 47.9 73.9 47.5 73.9 47.5 73.3 47.9 73.3"/>
        <polygon class="st13" points="47.5 73.3 47.5 73.9 47 73.9 47 73.3 47.5 73.3"/>
        <polygon class="st13" points="47 73.3 47 73.9 46.6 73.9 46.6 73.3 47 73.3"/>
        <polygon class="st13" points="45.7 73.3 45.7 74 45.3 74 45.3 73.4 45.7 73.3"/>
        <polygon class="st13" points="43.5 73.4 43.5 74 43.1 74 43.1 73.4 43.5 73.4"/>
        <polygon class="st13" points="42.6 73.4 42.6 74 42.2 74 42.2 73.4 42.6 73.4"/>
        <polygon class="st13" points="42.2 73.4 42.2 74 41.7 74 41.7 73.4 42.2 73.4"/>
        <polygon class="st13" points="39.9 73.4 39.9 74.1 39.5 74.1 39.5 73.5 39.9 73.4"/>
        <polygon class="st13" points="51 73.9 51 74.5 50.5 74.5 50.5 73.9 51 73.9"/>
        <polygon class="st13" points="50.5 73.9 50.5 74.5 50.1 74.5 50.1 73.9 50.5 73.9"/>
        <polygon class="st13" points="50.1 73.9 50.1 74.5 49.7 74.5 49.7 73.9 50.1 73.9"/>
        <polygon class="st13" points="49.2 73.9 49.2 74.5 48.8 74.5 48.8 73.9 49.2 73.9"/>
        <polygon class="st13" points="48.4 73.9 48.4 74.5 47.9 74.5 47.9 73.9 48.4 73.9"/>
        <polygon class="st13" points="47.5 73.9 47.5 74.5 47 74.5 47 73.9 47.5 73.9"/>
        <polygon class="st13" points="46.6 73.9 46.6 74.5 46.2 74.5 46.2 73.9 46.6 73.9"/>
        <polygon class="st13" points="46.2 73.9 46.2 74.5 45.7 74.6 45.7 74 46.2 73.9"/>
        <polygon class="st13" points="45.7 74 45.7 74.6 45.3 74.6 45.3 74 45.7 74"/>
        <polygon class="st13" points="45.3 74 45.3 74.6 44.8 74.6 44.8 74 45.3 74"/>
        <polygon class="st13" points="44.8 74 44.8 74.6 44.4 74.6 44.4 74 44.8 74"/>
        <polygon class="st13" points="44.4 74 44.4 74.6 43.9 74.6 43.9 74 44.4 74"/>
        <polygon class="st13" points="43.1 74 43.1 74.6 42.6 74.6 42.6 74 43.1 74"/>
        <polygon class="st13" points="42.6 74 42.6 74.6 42.2 74.6 42.2 74 42.6 74"/>
        <polygon class="st13" points="41.7 74 41.7 74.6 41.3 74.6 41.3 74 41.7 74"/>
        <polygon class="st13" points="41.3 74 41.3 74.6 40.8 74.6 40.8 74 41.3 74"/>
        <polygon class="st13" points="40.8 74 40.8 74.6 40.4 74.7 40.4 74 40.8 74"/>
        <polygon class="st13" points="40.4 74 40.4 74.7 39.9 74.7 39.9 74.1 40.4 74"/>
        <polygon class="st13" points="39.9 74.1 39.9 74.7 39.5 74.7 39.5 74.1 39.9 74.1"/>
        <polygon class="st13" points="51.8 74.4 51.8 75 51.4 75.1 51.4 74.5 51.8 74.4"/>
        <polygon class="st13" points="51.4 74.5 51.4 75.1 51 75.1 51 74.5 51.4 74.5"/>
        <polygon class="st13" points="51 74.5 51 75.1 50.5 75.1 50.5 74.5 51 74.5"/>
        <polygon class="st13" points="50.1 74.5 50.1 75.1 49.7 75.1 49.7 74.5 50.1 74.5"/>
        <polygon class="st13" points="49.7 74.5 49.7 75.1 49.2 75.1 49.2 74.5 49.7 74.5"/>
        <polygon class="st13" points="48.4 74.5 48.4 75.1 47.9 75.1 47.9 74.5 48.4 74.5"/>
        <polygon class="st13" points="47.9 74.5 47.9 75.1 47.5 75.1 47.5 74.5 47.9 74.5"/>
        <polygon class="st13" points="45.7 74.6 45.7 75.2 45.3 75.2 45.3 74.6 45.7 74.6"/>
        <polygon class="st13" points="43.9 74.6 43.9 75.2 43.5 75.2 43.5 74.6 43.9 74.6"/>
        <polygon class="st13" points="43.5 74.6 43.5 75.2 43.1 75.2 43.1 74.6 43.5 74.6"/>
        <polygon class="st13" points="42.6 74.6 42.6 75.2 42.2 75.2 42.2 74.6 42.6 74.6"/>
        <polygon class="st13" points="42.2 74.6 42.2 75.2 41.7 75.2 41.7 74.6 42.2 74.6"/>
        <polygon class="st13" points="40.8 74.6 40.8 75.3 40.4 75.3 40.4 74.7 40.8 74.6"/>
        <polygon class="st13" points="39.9 74.7 39.9 75.3 39.5 75.3 39.5 74.7 39.9 74.7"/>
        <polygon class="st13" points="52.3 75 52.3 75.6 51.8 75.6 51.8 75 52.3 75"/>
        <polygon class="st13" points="51 75.1 51 75.7 50.5 75.7 50.5 75.1 51 75.1"/>
        <polygon class="st13" points="50.5 75.1 50.5 75.7 50.1 75.7 50.1 75.1 50.5 75.1"/>
        <polygon class="st13" points="49.2 75.1 49.2 75.7 48.8 75.7 48.8 75.1 49.2 75.1"/>
        <polygon class="st13" points="47 75.1 47 75.7 46.6 75.7 46.6 75.1 47 75.1"/>
        <polygon class="st13" points="46.2 75.2 46.2 75.8 45.7 75.8 45.7 75.2 46.2 75.2"/>
        <polygon class="st13" points="45.7 75.2 45.7 75.8 45.3 75.8 45.3 75.2 45.7 75.2"/>
        <polygon class="st13" points="43.5 75.2 43.5 75.8 43.1 75.8 43.1 75.2 43.5 75.2"/>
        <polygon class="st13" points="43.1 75.2 43.1 75.8 42.6 75.8 42.6 75.2 43.1 75.2"/>
        <polygon class="st13" points="42.6 75.2 42.6 75.8 42.2 75.8 42.2 75.2 42.6 75.2"/>
        <polygon class="st13" points="42.2 75.2 42.2 75.8 41.7 75.8 41.7 75.2 42.2 75.2"/>
        <polygon class="st13" points="41.7 75.2 41.7 75.8 41.3 75.9 41.3 75.2 41.7 75.2"/>
        <polygon class="st13" points="40.8 75.3 40.8 75.9 40.4 75.9 40.4 75.3 40.8 75.3"/>
        <polygon class="st13" points="39.9 75.3 39.9 75.9 39.5 75.9 39.5 75.3 39.9 75.3"/>
        <polygon class="st13" points="52.3 75.6 52.3 76.2 51.8 76.2 51.8 75.6 52.3 75.6"/>
        <polygon class="st13" points="51.4 75.7 51.4 76.3 51 76.3 51 75.7 51.4 75.7"/>
        <polygon class="st13" points="51 75.7 51 76.3 50.5 76.3 50.5 75.7 51 75.7"/>
        <polygon class="st13" points="50.1 75.7 50.1 76.3 49.7 76.3 49.7 75.7 50.1 75.7"/>
        <polygon class="st13" points="49.7 75.7 49.7 76.3 49.2 76.3 49.2 75.7 49.7 75.7"/>
        <polygon class="st13" points="48.8 75.7 48.8 76.3 48.3 76.3 48.4 75.7 48.8 75.7"/>
        <polygon class="st13" points="48.4 75.7 48.3 76.3 47.9 76.3 47.9 75.7 48.4 75.7"/>
        <polygon class="st13" points="47 75.7 47 76.3 46.6 76.4 46.6 75.7 47 75.7"/>
        <polygon class="st13" points="46.6 75.7 46.6 76.4 46.2 76.4 46.2 75.8 46.6 75.7"/>
        <polygon class="st13" points="44.4 75.8 44.4 76.4 43.9 76.4 43.9 75.8 44.4 75.8"/>
        <polygon class="st13" points="43.5 75.8 43.5 76.4 43.1 76.4 43.1 75.8 43.5 75.8"/>
        <polygon class="st13" points="41.3 75.9 41.3 76.5 40.8 76.5 40.8 75.9 41.3 75.9"/>
        <polygon class="st13" points="52.3 76.2 52.3 76.8 51.8 76.8 51.8 76.2 52.3 76.2"/>
        <polygon class="st13" points="51.4 76.3 51.4 76.9 51 76.9 51 76.3 51.4 76.3"/>
        <polygon class="st13" points="48.8 76.3 48.8 76.9 48.3 76.9 48.3 76.3 48.8 76.3"/>
        <polygon class="st13" points="48.3 76.3 48.3 76.9 47.9 76.9 47.9 76.3 48.3 76.3"/>
        <polygon class="st13" points="47.9 76.3 47.9 76.9 47.5 76.9 47.5 76.3 47.9 76.3"/>
        <polygon class="st13" points="45.7 76.4 45.7 77 45.3 77 45.3 76.4 45.7 76.4"/>
        <polygon class="st13" points="44.4 76.4 44.4 77 43.9 77 43.9 76.4 44.4 76.4"/>
        <polygon class="st13" points="43.9 76.4 43.9 77 43.5 77 43.5 76.4 43.9 76.4"/>
        <polygon class="st13" points="43.5 76.4 43.5 77 43.1 77 43.1 76.4 43.5 76.4"/>
        <polygon class="st13" points="43.1 76.4 43.1 77 42.6 77 42.6 76.4 43.1 76.4"/>
        <polygon class="st13" points="41.7 76.5 41.7 77.1 41.3 77.1 41.3 76.5 41.7 76.5"/>
        <polygon class="st13" points="40.8 76.5 40.8 77.1 40.4 77.1 40.4 76.5 40.8 76.5"/>
        <polygon class="st13" points="40.4 76.5 40.4 77.1 39.9 77.1 39.9 76.5 40.4 76.5"/>
        <polygon class="st13" points="52.3 76.8 52.3 77.4 51.8 77.4 51.8 76.8 52.3 76.8"/>
        <polygon class="st13" points="51.8 76.8 51.8 77.4 51.4 77.5 51.4 76.9 51.8 76.8"/>
        <polygon class="st13" points="51.4 76.9 51.4 77.5 51 77.5 51 76.9 51.4 76.9"/>
        <polygon class="st13" points="50.1 76.9 50.1 77.5 49.7 77.5 49.7 76.9 50.1 76.9"/>
        <polygon class="st13" points="49.7 76.9 49.7 77.5 49.2 77.5 49.2 76.9 49.7 76.9"/>
        <polygon class="st13" points="48.8 76.9 48.8 77.5 48.3 77.5 48.3 76.9 48.8 76.9"/>
        <polygon class="st13" points="47.5 76.9 47.5 77.5 47 77.6 47 76.9 47.5 76.9"/>
        <polygon class="st13" points="47 76.9 47 77.6 46.6 77.6 46.6 77 47 76.9"/>
        <polygon class="st13" points="46.6 77 46.6 77.6 46.2 77.6 46.2 77 46.6 77"/>
        <polygon class="st13" points="46.2 77 46.2 77.6 45.7 77.6 45.7 77 46.2 77"/>
        <polygon class="st13" points="45.7 77 45.7 77.6 45.3 77.6 45.3 77 45.7 77"/>
        <polygon class="st13" points="45.3 77 45.3 77.6 44.8 77.6 44.8 77 45.3 77"/>
        <polygon class="st13" points="43.9 77 43.9 77.6 43.5 77.6 43.5 77 43.9 77"/>
        <polygon class="st13" points="43.1 77 43.1 77.6 42.6 77.6 42.6 77 43.1 77"/>
        <polygon class="st13" points="42.6 77 42.6 77.6 42.2 77.7 42.2 77.1 42.6 77"/>
        <polygon class="st13" points="41.3 77.1 41.3 77.7 40.8 77.7 40.8 77.1 41.3 77.1"/>
        <polygon class="st13" points="39.9 77.1 39.9 77.7 39.5 77.7 39.5 77.1 39.9 77.1"/>
        <polygon class="st13" points="52.3 77.4 52.3 78 51.8 78 51.8 77.4 52.3 77.4"/>
        <polygon class="st13" points="51.8 77.4 51.8 78 51.4 78.1 51.4 77.5 51.8 77.4"/>
        <polygon class="st13" points="51.4 77.5 51.4 78.1 51 78.1 51 77.5 51.4 77.5"/>
        <polygon class="st13" points="51 77.5 51 78.1 50.5 78.1 50.5 77.5 51 77.5"/>
        <polygon class="st13" points="50.1 77.5 50.1 78.1 49.7 78.1 49.7 77.5 50.1 77.5"/>
        <polygon class="st13" points="48.8 77.5 48.8 78.1 48.3 78.1 48.3 77.5 48.8 77.5"/>
        <polygon class="st13" points="47.5 77.5 47.5 78.1 47 78.2 47 77.6 47.5 77.5"/>
        <polygon class="st13" points="46.6 77.6 46.6 78.2 46.2 78.2 46.2 77.6 46.6 77.6"/>
        <polygon class="st13" points="45.7 77.6 45.7 78.2 45.3 78.2 45.3 77.6 45.7 77.6"/>
        <polygon class="st13" points="43.9 77.6 43.9 78.2 43.5 78.2 43.5 77.6 43.9 77.6"/>
        <polygon class="st13" points="42.2 77.7 42.2 78.3 41.7 78.3 41.7 77.7 42.2 77.7"/>
        <polygon class="st13" points="41.7 77.7 41.7 78.3 41.3 78.3 41.3 77.7 41.7 77.7"/>
        <polygon class="st13" points="41.3 77.7 41.3 78.3 40.8 78.3 40.8 77.7 41.3 77.7"/>
        <polygon class="st13" points="40.8 77.7 40.8 78.3 40.4 78.3 40.4 77.7 40.8 77.7"/>
        <polygon class="st13" points="52.3 78 52.3 78.6 51.8 78.6 51.8 78 52.3 78"/>
        <polygon class="st13" points="51.8 78 51.8 78.6 51.4 78.7 51.4 78.1 51.8 78"/>
        <polygon class="st13" points="51.4 78.1 51.4 78.7 51 78.7 51 78.1 51.4 78.1"/>
        <polygon class="st13" points="51 78.1 51 78.7 50.5 78.7 50.5 78.1 51 78.1"/>
        <polygon class="st13" points="50.5 78.1 50.5 78.7 50.1 78.7 50.1 78.1 50.5 78.1"/>
        <polygon class="st13" points="50.1 78.1 50.1 78.7 49.7 78.7 49.7 78.1 50.1 78.1"/>
        <polygon class="st13" points="49.7 78.1 49.7 78.7 49.2 78.7 49.2 78.1 49.7 78.1"/>
        <polygon class="st13" points="49.2 78.1 49.2 78.7 48.8 78.7 48.8 78.1 49.2 78.1"/>
        <polygon class="st13" points="47.9 78.1 47.9 78.7 47.5 78.7 47.5 78.1 47.9 78.1"/>
        <polygon class="st13" points="47 78.2 47 78.8 46.6 78.8 46.6 78.2 47 78.2"/>
        <polygon class="st13" points="46.2 78.2 46.2 78.8 45.7 78.8 45.7 78.2 46.2 78.2"/>
        <polygon class="st13" points="45.7 78.2 45.7 78.8 45.3 78.8 45.3 78.2 45.7 78.2"/>
        <polygon class="st13" points="45.3 78.2 45.3 78.8 44.8 78.8 44.8 78.2 45.3 78.2"/>
        <polygon class="st13" points="44.8 78.2 44.8 78.8 44.4 78.8 44.4 78.2 44.8 78.2"/>
        <polygon class="st13" points="43.5 78.2 43.5 78.8 43.1 78.9 43.1 78.2 43.5 78.2"/>
        <polygon class="st13" points="43.1 78.2 43.1 78.9 42.6 78.9 42.6 78.3 43.1 78.2"/>
        <polygon class="st13" points="42.6 78.3 42.6 78.9 42.2 78.9 42.2 78.3 42.6 78.3"/>
        <polygon class="st13" points="42.2 78.3 42.2 78.9 41.7 78.9 41.7 78.3 42.2 78.3"/>
        <polygon class="st13" points="41.7 78.3 41.7 78.9 41.3 78.9 41.3 78.3 41.7 78.3"/>
        <polygon class="st13" points="41.3 78.3 41.3 78.9 40.8 78.9 40.8 78.3 41.3 78.3"/>
        <polygon class="st13" points="40.8 78.3 40.8 78.9 40.4 78.9 40.4 78.3 40.8 78.3"/>
        <polygon class="st13" points="40.4 78.3 40.4 78.9 39.9 78.9 39.9 78.3 40.4 78.3"/>
        <polygon class="st13" points="48.8 78.7 48.8 79.3 48.3 79.3 48.3 78.7 48.8 78.7"/>
        <polygon class="st13" points="48.3 78.7 48.3 79.3 47.9 79.3 47.9 78.7 48.3 78.7"/>
        <polygon class="st13" points="47.5 78.7 47.5 79.3 47 79.4 47 78.8 47.5 78.7"/>
        <polygon class="st13" points="46.6 78.8 46.6 79.4 46.2 79.4 46.2 78.8 46.6 78.8"/>
        <polygon class="st13" points="46.2 78.8 46.2 79.4 45.7 79.4 45.7 78.8 46.2 78.8"/>
        <polygon class="st13" points="45.7 78.8 45.7 79.4 45.3 79.4 45.3 78.8 45.7 78.8"/>
        <polygon class="st13" points="44.4 78.8 44.4 79.4 43.9 79.4 43.9 78.8 44.4 78.8"/>
        <polygon class="st13" points="43.5 78.8 43.5 79.4 43.1 79.5 43.1 78.9 43.5 78.8"/>
        <polygon class="st13" points="41.7 78.9 41.7 79.5 41.3 79.5 41.3 78.9 41.7 78.9"/>
        <polygon class="st13" points="41.3 78.9 41.3 79.5 40.8 79.5 40.8 78.9 41.3 78.9"/>
        <polygon class="st13" points="52.3 79.2 52.3 79.8 51.8 79.8 51.8 79.2 52.3 79.2"/>
        <polygon class="st13" points="51.8 79.2 51.8 79.8 51.4 79.9 51.4 79.3 51.8 79.2"/>
        <polygon class="st13" points="51.4 79.3 51.4 79.9 51 79.9 51 79.3 51.4 79.3"/>
        <polygon class="st13" points="51 79.3 51 79.9 50.5 79.9 50.5 79.3 51 79.3"/>
        <polygon class="st13" points="50.5 79.3 50.5 79.9 50.1 79.9 50.1 79.3 50.5 79.3"/>
        <polygon class="st13" points="50.1 79.3 50.1 79.9 49.7 79.9 49.7 79.3 50.1 79.3"/>
        <polygon class="st13" points="49.7 79.3 49.7 79.9 49.2 79.9 49.2 79.3 49.7 79.3"/>
        <polygon class="st13" points="47.5 79.3 47.5 80 47 80 47 79.4 47.5 79.3"/>
        <polygon class="st13" points="47 79.4 47 80 46.6 80 46.6 79.4 47 79.4"/>
        <polygon class="st13" points="45.7 79.4 45.7 80 45.3 80 45.3 79.4 45.7 79.4"/>
        <polygon class="st13" points="45.3 79.4 45.3 80 44.8 80 44.8 79.4 45.3 79.4"/>
        <polygon class="st13" points="44.8 79.4 44.8 80 44.4 80 44.4 79.4 44.8 79.4"/>
        <polygon class="st13" points="43.9 79.4 43.9 80 43.5 80.1 43.5 79.4 43.9 79.4"/>
        <polygon class="st13" points="43.5 79.4 43.5 80.1 43.1 80.1 43.1 79.5 43.5 79.4"/>
        <polygon class="st13" points="42.6 79.5 42.6 80.1 42.2 80.1 42.2 79.5 42.6 79.5"/>
        <polygon class="st13" points="41.7 79.5 41.7 80.1 41.3 80.1 41.3 79.5 41.7 79.5"/>
        <polygon class="st13" points="41.3 79.5 41.3 80.1 40.8 80.1 40.8 79.5 41.3 79.5"/>
        <polygon class="st13" points="52.3 79.8 52.3 80.4 51.8 80.4 51.8 79.8 52.3 79.8"/>
        <polygon class="st13" points="49.7 79.9 49.7 80.5 49.2 80.5 49.2 79.9 49.7 79.9"/>
        <polygon class="st13" points="48.3 79.9 48.3 80.5 47.9 80.5 47.9 79.9 48.3 79.9"/>
        <polygon class="st13" points="47.9 79.9 47.9 80.5 47.5 80.6 47.5 80 47.9 79.9"/>
        <polygon class="st13" points="45.3 80 45.3 80.6 44.8 80.6 44.8 80 45.3 80"/>
        <polygon class="st13" points="44.8 80 44.8 80.6 44.4 80.6 44.4 80 44.8 80"/>
        <polygon class="st13" points="43.9 80 43.9 80.6 43.5 80.7 43.5 80.1 43.9 80"/>
        <polygon class="st13" points="43.5 80.1 43.5 80.7 43.1 80.7 43.1 80.1 43.5 80.1"/>
        <polygon class="st13" points="41.7 80.1 41.7 80.7 41.3 80.7 41.3 80.1 41.7 80.1"/>
        <polygon class="st13" points="40.4 80.1 40.4 80.7 39.9 80.7 39.9 80.1 40.4 80.1"/>
        <polygon class="st13" points="39.9 80.1 39.9 80.7 39.5 80.8 39.5 80.2 39.9 80.1"/>
        <polygon class="st13" points="52.3 80.4 52.3 81 51.8 81 51.8 80.4 52.3 80.4"/>
        <polygon class="st13" points="51.4 80.5 51.4 81 51 81.1 51 80.5 51.4 80.5"/>
        <polygon class="st13" points="51 80.5 51 81.1 50.5 81.1 50.5 80.5 51 80.5"/>
        <polygon class="st13" points="50.5 80.5 50.5 81.1 50.1 81.1 50.1 80.5 50.5 80.5"/>
        <polygon class="st13" points="49.7 80.5 49.6 81.1 49.2 81.1 49.2 80.5 49.7 80.5"/>
        <polygon class="st13" points="48.8 80.5 48.8 81.1 48.3 81.1 48.3 80.5 48.8 80.5"/>
        <polygon class="st13" points="48.3 80.5 48.3 81.1 47.9 81.1 47.9 80.5 48.3 80.5"/>
        <polygon class="st13" points="47.5 80.6 47.5 81.2 47 81.2 47 80.6 47.5 80.6"/>
        <polygon class="st13" points="47 80.6 47 81.2 46.6 81.2 46.6 80.6 47 80.6"/>
        <polygon class="st13" points="46.1 80.6 46.1 81.2 45.7 81.2 45.7 80.6 46.1 80.6"/>
        <polygon class="st13" points="45.7 80.6 45.7 81.2 45.3 81.2 45.3 80.6 45.7 80.6"/>
        <polygon class="st13" points="45.3 80.6 45.3 81.2 44.8 81.2 44.8 80.6 45.3 80.6"/>
        <polygon class="st13" points="43.9 80.6 43.9 81.2 43.5 81.3 43.5 80.7 43.9 80.6"/>
        <polygon class="st13" points="43.5 80.7 43.5 81.3 43.1 81.3 43.1 80.7 43.5 80.7"/>
        <polygon class="st13" points="43.1 80.7 43.1 81.3 42.6 81.3 42.6 80.7 43.1 80.7"/>
        <polygon class="st13" points="42.6 80.7 42.6 81.3 42.2 81.3 42.2 80.7 42.6 80.7"/>
        <polygon class="st13" points="42.2 80.7 42.2 81.3 41.7 81.3 41.7 80.7 42.2 80.7"/>
        <polygon class="st13" points="41.7 80.7 41.7 81.3 41.3 81.3 41.3 80.7 41.7 80.7"/>
        <polygon class="st13" points="41.3 80.7 41.3 81.3 40.8 81.3 40.8 80.7 41.3 80.7"/>
        <polygon class="st13" points="39.9 80.7 39.9 81.4 39.5 81.4 39.5 80.8 39.9 80.7"/>
        <polygon class="st13" points="52.3 81 52.3 81.6 51.8 81.6 51.8 81 52.3 81"/>
        <polygon class="st13" points="51.4 81 51.4 81.6 51 81.7 51 81.1 51.4 81"/>
        <polygon class="st13" points="51 81.1 51 81.7 50.5 81.7 50.5 81.1 51 81.1"/>
        <polygon class="st13" points="50.5 81.1 50.5 81.7 50.1 81.7 50.1 81.1 50.5 81.1"/>
        <polygon class="st13" points="49.6 81.1 49.6 81.7 49.2 81.7 49.2 81.1 49.6 81.1"/>
        <polygon class="st13" points="48.8 81.1 48.8 81.7 48.3 81.7 48.3 81.1 48.8 81.1"/>
        <polygon class="st13" points="47.5 81.2 47.5 81.8 47 81.8 47 81.2 47.5 81.2"/>
        <polygon class="st13" points="46.1 81.2 46.1 81.8 45.7 81.8 45.7 81.2 46.1 81.2"/>
        <polygon class="st13" points="45.7 81.2 45.7 81.8 45.3 81.8 45.3 81.2 45.7 81.2"/>
        <polygon class="st13" points="45.3 81.2 45.3 81.8 44.8 81.8 44.8 81.2 45.3 81.2"/>
        <polygon class="st13" points="44.8 81.2 44.8 81.8 44.4 81.8 44.4 81.2 44.8 81.2"/>
        <polygon class="st13" points="44.4 81.2 44.4 81.8 43.9 81.9 43.9 81.2 44.4 81.2"/>
        <polygon class="st13" points="43.5 81.3 43.5 81.9 43.1 81.9 43.1 81.3 43.5 81.3"/>
        <polygon class="st13" points="43.1 81.3 43.1 81.9 42.6 81.9 42.6 81.3 43.1 81.3"/>
        <polygon class="st13" points="42.2 81.3 42.2 81.9 41.7 81.9 41.7 81.3 42.2 81.3"/>
        <polygon class="st13" points="40.4 81.3 40.4 82 39.9 82 39.9 81.4 40.4 81.3"/>
        <polygon class="st13" points="39.9 81.4 39.9 82 39.5 82 39.5 81.4 39.9 81.4"/>
        <polygon class="st13" points="52.3 81.6 52.2 82.2 51.8 82.2 51.8 81.6 52.3 81.6"/>
        <polygon class="st13" points="51.4 81.6 51.4 82.2 50.9 82.3 51 81.7 51.4 81.6"/>
        <polygon class="st13" points="51 81.7 50.9 82.3 50.5 82.3 50.5 81.7 51 81.7"/>
        <polygon class="st13" points="50.5 81.7 50.5 82.3 50.1 82.3 50.1 81.7 50.5 81.7"/>
        <polygon class="st13" points="49.6 81.7 49.6 82.3 49.2 82.3 49.2 81.7 49.6 81.7"/>
        <polygon class="st13" points="48.3 81.7 48.3 82.3 47.9 82.3 47.9 81.7 48.3 81.7"/>
        <polygon class="st13" points="46.6 81.8 46.6 82.4 46.1 82.4 46.1 81.8 46.6 81.8"/>
        <polygon class="st13" points="46.1 81.8 46.1 82.4 45.7 82.4 45.7 81.8 46.1 81.8"/>
        <polygon class="st13" points="45.7 81.8 45.7 82.4 45.3 82.4 45.3 81.8 45.7 81.8"/>
        <polygon class="st13" points="44.8 81.8 44.8 82.4 44.4 82.4 44.4 81.8 44.8 81.8"/>
        <polygon class="st13" points="42.2 81.9 42.2 82.5 41.7 82.5 41.7 81.9 42.2 81.9"/>
        <polygon class="st13" points="41.7 81.9 41.7 82.5 41.3 82.5 41.3 81.9 41.7 81.9"/>
        <polygon class="st13" points="40.8 81.9 40.8 82.5 40.4 82.6 40.4 82 40.8 81.9"/>
        <polygon class="st13" points="40.4 82 40.4 82.6 39.9 82.6 39.9 82 40.4 82"/>
        <polygon class="st13" points="39.9 82 39.9 82.6 39.5 82.6 39.5 82 39.9 82"/>
        <polygon class="st13" points="52.2 82.2 52.2 82.8 51.8 82.8 51.8 82.2 52.2 82.2"/>
        <polygon class="st13" points="49.6 82.3 49.6 82.9 49.2 82.9 49.2 82.3 49.6 82.3"/>
        <polygon class="st13" points="48.8 82.3 48.8 82.9 48.3 82.9 48.3 82.3 48.8 82.3"/>
        <polygon class="st13" points="47.5 82.4 47.5 83 47 83 47 82.4 47.5 82.4"/>
        <polygon class="st13" points="45.7 82.4 45.7 83 45.3 83 45.3 82.4 45.7 82.4"/>
        <polygon class="st13" points="44.4 82.4 44.4 83 43.9 83.1 43.9 82.5 44.4 82.4"/>
        <polygon class="st13" points="42.6 82.5 42.6 83.1 42.2 83.1 42.2 82.5 42.6 82.5"/>
        <polygon class="st13" points="42.2 82.5 42.2 83.1 41.7 83.1 41.7 82.5 42.2 82.5"/>
        <polygon class="st13" points="41.3 82.5 41.3 83.1 40.8 83.2 40.8 82.5 41.3 82.5"/>
        <polygon class="st13" points="40.8 82.5 40.8 83.2 40.4 83.2 40.4 82.6 40.8 82.5"/>
        <polygon class="st13" points="39.9 82.6 39.9 83.2 39.5 83.2 39.5 82.6 39.9 82.6"/>
        <polygon class="st13" points="52.2 82.8 52.2 83.4 51.8 83.4 51.8 82.8 52.2 82.8"/>
        <polygon class="st13" points="51.8 82.8 51.8 83.4 51.4 83.4 51.4 82.8 51.8 82.8"/>
        <polygon class="st13" points="51.4 82.8 51.4 83.4 50.9 83.5 50.9 82.9 51.4 82.8"/>
        <polygon class="st13" points="50.9 82.9 50.9 83.5 50.5 83.5 50.5 82.9 50.9 82.9"/>
        <polygon class="st13" points="50.5 82.9 50.5 83.5 50.1 83.5 50.1 82.9 50.5 82.9"/>
        <polygon class="st13" points="50.1 82.9 50.1 83.5 49.6 83.5 49.6 82.9 50.1 82.9"/>
        <polygon class="st13" points="49.6 82.9 49.6 83.5 49.2 83.5 49.2 82.9 49.6 82.9"/>
        <polygon class="st13" points="48.8 82.9 48.8 83.5 48.3 83.5 48.3 82.9 48.8 82.9"/>
        <polygon class="st13" points="48.3 82.9 48.3 83.5 47.9 83.5 47.9 82.9 48.3 82.9"/>
        <polygon class="st13" points="47.9 82.9 47.9 83.5 47.5 83.6 47.5 83 47.9 82.9"/>
        <polygon class="st13" points="47 83 47 83.6 46.6 83.6 46.6 83 47 83"/>
        <polygon class="st13" points="46.6 83 46.6 83.6 46.1 83.6 46.1 83 46.6 83"/>
        <polygon class="st13" points="44.4 83 44.4 83.6 43.9 83.7 43.9 83.1 44.4 83"/>
        <polygon class="st13" points="43.9 83.1 43.9 83.7 43.5 83.7 43.5 83.1 43.9 83.1"/>
        <polygon class="st13" points="43.5 83.1 43.5 83.7 43.1 83.7 43.1 83.1 43.5 83.1"/>
        <polygon class="st13" points="43.1 83.1 43.1 83.7 42.6 83.7 42.6 83.1 43.1 83.1"/>
        <polygon class="st13" points="42.6 83.1 42.6 83.7 42.2 83.7 42.2 83.1 42.6 83.1"/>
        <polygon class="st13" points="41.7 83.1 41.7 83.7 41.3 83.7 41.3 83.1 41.7 83.1"/>
        <polygon class="st13" points="41.3 83.1 41.3 83.7 40.8 83.8 40.8 83.2 41.3 83.1"/>
      </g>
    </g>
    <path class="st9" d="M56.5,74.5s-1.5-.3-1.7,1.3-.2,3.4.7,4.5c0,0,.8,1,1.4.3,0,0,.4-.7.6-1.4s.8-4-.9-4.7Z"/>
    <path class="st9" d="M56.8,80.6s-.7-.4-1.3-.3-.8.7-.9,1.3-.2,1.5-.1,2.3.3,1.4.6,1.9,1,.5,1.2.4"/>
    <path class="st9" d="M55.9,88s-1.3-.3-1.4,1.5.1,2.5.3,2.8.8.8.8.8"/>
    <polygon class="st4" points="62 111.4 26.8 113.5 26.8 91 62 89.7 62 111.4"/>
    <g id="HATCH">
      <path class="st14" d="M41.2,128.8h0s0,0,0,0h0s0,0,0,0h0s0,0,0,0h0s0,0,0,0h0s0,0,0,0h0s0,0,0,0h0s0,0,0,0h0s0,0,0,0h0s0,0,0,0h0s0,0,0,0h0s0,0,0,0h0s0,0,0,0h0s0,0,0,0h0s0,0,0,0h0s0,0,0,0h0s0,0,0,0h0s0,0,0,0h0s0,0,0,0h0s0,0,0,0h0s0,0,0,0h0s0,0,0,0h0s0,0,0,0h0s0,0,0,0h0s0,0,0,0h0s0,0,0,0h0s0,0,0,0h0s0,0,0,0h0s0,0,0,0h0s0,0,0,0h0s0,0,0,0h0s0,0,0,0h0s0,0,0,0h0s0,0,0,0h0s0,0,0,0h0s0,0,0,0h0s0,0,0,0h0s0,0,0,0h0s0,0,0,0h0s0,0,0,0h0s0,0,0,0h0s0,0,0,0h0s0,0,0,0h0s0,0,0,0h0s0,0,0,0h0s0,0,0,0h0s0,0,0,0h0s0,0,0,0h0s0,0,0,0h0s0,0,0,0h0s0,0,0,0h0s0,0,0,0h0s0,0,0,0h0s0,0,0,0h0s0,0,0,0h0s0,0,0,0h0s0,0,0,0h0s0,0,0,0h0s0,0,0,0h0s0,0,0,0h0s0,0,0,0h0s0,0,0,0h0s0,0,0,0h0s0,0,0,0h0s0,0,0,0h0s0,0,0,0h0s0,0,0,0h0s0,0,0,0h0s0,0,0,0h0s0,0,0,0h0s0,0,0,0h0s0,0,0,0h0s0,0,0,0h0s0,0,0,0h0s0,0,0,0h0s0,0,0,0h0s0,0,0,0h0s0,0,0,0h0s0,0,0,0h0s0,0,0,0h0s0,0,0,0h0s0,0,0,0h0s0,0,0,0h0s0,0,0,0h0s0,0,0,0h0s0,0,0,0h0s0,0,0,0h0s0,0,0,0h0s0,0,0,0h0s0,0,0,0h0s0,0,0,0h0s0,0,0,0h0s0,0,0,0h0s0,0,0,0h0s0,0,0,0h0s0,0,0,0h0s0,0,0,0h0s0,0,0,0h0s0,0,0,0h0s0,0,0,0h0s0,0,0,0h0s0,0,0,0h0s0,0,0,0h0s0,0,0,0h0s0,0,0,0h0s0,0,0,0h0s0,0,0,0h0s0,0,0,0h0s0,0,0,0h0s0,0,0,0h0s0,0,0,0h0s0,0,0,0h0s0,0,0,0h0s0,0,0,0h0s0,0,0,0h0s0,0,0,0h0s0,0,0,0h0s0,0,0,0h0s0,0,0,0h0s0,0,0,0h0s0,0,0,0h0s0,0,0,0h0s0,0,0,0h0s0,0,0,0h0s0,0,0,0h0s0,0,0,0h0s0,0,0,0h0s0,0,0,0h0s0,0,0,0h0s0,0,0,0h0s0,0,0,0h0s0,0,0,0h0s0,0,0,0h0s0,0,0,0h0s0,0,0,0h0s0,0,0,0h0s0,0,0,0h0s0,0,0,0h0s0,0,0,0h0s0,0,0,0h0s0,0,0,0h0s0,0,0,0h0s0,0,0,0h0s0,0,0,0h0s0,0,0,0h0s0,0,0,0h0s0,0,0,0h0s0,0,0,0h0s0,0,0,0h0s0,0,0,0h0s0,0,0,0h0s0,0,0,0h0s0,0,0,0h0s0,0,0,0h0s0,0,0,0h0s0,0,0,0h0s0,0,0,0h0s0,0,0,0h0s0,0,0,0h0s0,0,0,0h0s0,0,0,0h0s0,0,0,0h0s0,0,0,0h0s0,0,0,0h0s0,0,0,0h0s0,0,0,0h0s0,0,0,0h0s0,0,0,0h0s0,0,0,0h0s0,0,0,0h0s0,0,0,0h0M38.6,128.8h0s0,0,0,0h0s0,0,0,0h0s0,0,0,0h0s0,0,0,0h0s0,0,0,0h0s0,0,0,0h0s0,0,0,0h0s0,0,0,0h0s0,0,0,0h0s0,0,0,0h0s0,0,0,0h0s0,0,0,0h0s0,0,0,0h0s0,0,0,0h0s0,0,0,0h0s0,0,0,0h0s0,0,0,0h0s0,0,0,0h0s0,0,0,0h0s0,0,0,0h0s0,0,0,0h0s0,0,0,0h0s0,0,0,0h0s0,0,0,0h0s0,0,0,0h0s0,0,0,0h0s0,0,0,0h0s0,0,0,0h0s0,0,0,0h0s0,0,0,0h0s0,0,0,0h0s0,0,0,0h0s0,0,0,0h0s0,0,0,0h0s0,0,0,0h0s0,0,0,0h0s0,0,0,0h0s0,0,0,0h0s0,0,0,0h0s0,0,0,0h0s0,0,0,0h0s0,0,0,0h0s0,0,0,0h0s0,0,0,0h0s0,0,0,0h0s0,0,0,0h0s0,0,0,0h0s0,0,0,0h0s0,0,0,0h0s0,0,0,0h0s0,0,0,0h0s0,0,0,0h0s0,0,0,0h0s0,0,0,0h0s0,0,0,0h0s0,0,0,0h0s0,0,0,0h0s0,0,0,0h0s0,0,0,0h0s0,0,0,0h0s0,0,0,0h0s0,0,0,0h0s0,0,0,0h0s0,0,0,0h0s0,0,0,0h0s0,0,0,0h0s0,0,0,0h0s0,0,0,0h0s0,0,0,0h0s0,0,0,0h0s0,0,0,0h0s0,0,0,0h0s0,0,0,0h0s0,0,0,0h0s0,0,0,0h0s0,0,0,0h0s0,0,0,0h0s0,0,0,0h0s0,0,0,0h0s0,0,0,0h0s0,0,0,0h0s0,0,0,0h0s0,0,0,0h0s0,0,0,0h0s0,0,0,0h0s0,0,0,0h0s0,0,0,0h0s0,0,0,0h0s0,0,0,0h0s0,0,0,0h0s0,0,0,0h0s0,0,0,0h0s0,0,0,0h0s0,0,0,0h0s0,0,0,0h0s0,0,0,0h0s0,0,0,0h0s0,0,0,0h0s0,0,0,0h0s0,0,0,0h0s0,0,0,0h0s0,0,0,0h0s0,0,0,0h0s0,0,0,0h0s0,0,0,0h0s0,0,0,0h0s0,0,0,0h0s0,0,0,0h0s0,0,0,0h0s0,0,0,0h0s0,0,0,0h0s0,0,0,0h0s0,0,0,0h0s0,0,0,0h0s0,0,0,0h0s0,0,0,0h0s0,0,0,0h0s0,0,0,0h0s0,0,0,0h0s0,0,0,0h0s0,0,0,0h0s0,0,0,0h0s0,0,0,0h0s0,0,0,0h0s0,0,0,0h0s0,0,0,0h0s0,0,0,0h0s0,0,0,0h0s0,0,0,0h0s0,0,0,0h0s0,0,0,0h0s0,0,0,0h0s0,0,0,0h0s0,0,0,0h0s0,0,0,0h0s0,0,0,0h0s0,0,0,0h0s0,0,0,0h0s0,0,0,0h0s0,0,0,0h0s0,0,0,0h0s0,0,0,0h0s0,0,0,0h0s0,0,0,0h0s0,0,0,0h0s0,0,0,0h0s0,0,0,0h0s0,0,0,0h0s0,0,0,0h0s0,0,0,0h0s0,0,0,0h0s0,0,0,0h0s0,0,0,0h0s0,0,0,0h0s0,0,0,0h0s0,0,0,0h0s0,0,0,0h0s0,0,0,0h0s0,0,0,0h0s0,0,0,0h0s0,0,0,0h0s0,0,0,0h0s0,0,0,0h0s0,0,0,0h0s0,0,0,0h0s0,0,0,0h0s0,0,0,0h0s0,0,0,0h0s0,0,0,0h0s0,0,0,0h0s0,0,0,0h0s0,0,0,0h0s0,0,0,0h0s0,0,0,0h0s0,0,0,0h0s0,0,0,0h0s0,0,0,0h0M40.5,129.5h0s0,0,0,0h0s0,0,0,0h0s0,0,0,0h0s0,0,0,0h0s0,0,0,0h0s0,0,0,0h0s0,0,0,0h0s0,0,0,0h0s0,0,0,0h0s0,0,0,0h0s0,0,0,0h0s0,0,0,0h0s0,0,0,0h0s0,0,0,0h0s0,0,0,0h0s0,0,0,0h0s0,0,0,0h0s0,0,0,0h0s0,0,0,0h0s0,0,0,0h0s0,0,0,0h0s0,0,0,0h0s0,0,0,0h0s0,0,0,0h0s0,0,0,0h0s0,0,0,0h0s0,0,0,0h0s0,0,0,0h0s0,0,0,0h0s0,0,0,0h0s0,0,0,0h0s0,0,0,0h0s0,0,0,0h0s0,0,0,0h0s0,0,0,0h0s0,0,0,0h0s0,0,0,0h0s0,0,0,0h0s0,0,0,0h0s0,0,0,0h0s0,0,0,0h0s0,0,0,0h0s0,0,0,0h0s0,0,0,0h0s0,0,0,0h0s0,0,0,0h0s0,0,0,0h0s0,0,0,0h0s0,0,0,0h0s0,0,0,0h0s0,0,0,0h0s0,0,0,0h0s0,0,0,0h0s0,0,0,0h0s0,0,0,0h0s0,0,0,0h0s0,0,0,0h0s0,0,0,0h0s0,0,0,0h0s0,0,0,0h0s0,0,0,0h0s0,0,0,0h0s0,0,0,0h0s0,0,0,0h0s0,0,0,0h0s0,0,0,0h0s0,0,0,0h0s0,0,0,0h0s0,0,0,0h0s0,0,0,0h0s0,0,0,0h0s0,0,0,0h0s0,0,0,0h0s0,0,0,0h0s0,0,0,0h0s0,0,0,0h0s0,0,0,0h0s0,0,0,0h0s0,0,0,0h0s0,0,0,0h0s0,0,0,0h0s0,0,0,0h0s0,0,0,0h0s0,0,0,0h0s0,0,0,0h0s0,0,0,0h0s0,0,0,0h0s0,0,0,0h0s0,0,0,0h0s0,0,0,0h0s0,0,0,0h0s0,0,0,0h0s0,0,0,0h0s0,0,0,0h0s0,0,0,0h0s0,0,0,0h0s0,0,0,0h0s0,0,0,0h0s0,0,0,0h0s0,0,0,0h0s0,0,0,0h0s0,0,0,0h0s0,0,0,0h0s0,0,0,0h0s0,0,0,0h0s0,0,0,0h0s0,0,0,0h0s0,0,0,0h0s0,0,0,0h0s0,0,0,0h0s0,0,0,0h0s0,0,0,0h0s0,0,0,0h0s0,0,0,0h0s0,0,0,0h0s0,0,0,0h0s0,0,0,0h0s0,0,0,0h0s0,0,0,0h0s0,0,0,0h0s0,0,0,0h0s0,0,0,0h0s0,0,0,0h0s0,0,0,0h0s0,0,0,0h0s0,0,0,0h0s0,0,0,0h0s0,0,0,0h0s0,0,0,0h0s0,0,0,0h0s0,0,0,0h0s0,0,0,0h0s0,0,0,0h0s0,0,0,0h0s0,0,0,0h0s0,0,0,0h0s0,0,0,0h0s0,0,0,0h0s0,0,0,0h0s0,0,0,0h0s0,0,0,0h0s0,0,0,0h0s0,0,0,0h0s0,0,0,0h0s0,0,0,0h0s0,0,0,0h0s0,0,0,0h0s0,0,0,0h0s0,0,0,0h0s0,0,0,0h0s0,0,0,0h0s0,0,0,0h0s0,0,0,0h0s0,0,0,0h0s0,0,0,0h0s0,0,0,0h0s0,0,0,0h0s0,0,0,0h0M47.4,127.3h0s0,0,0,0h0s0,0,0,0h0s0,0,0,0h0s0,0,0,0h0s0,0,0,0h0s0,0,0,0h0s0,0,0,0h0s0,0,0,0h0s0,0,0,0h0s0,0,0,0h0s0,0,0,0h0s0,0,0,0h0s0,0,0,0h0s0,0,0,0h0s0,0,0,0h0s0,0,0,0h0s0,0,0,0h0s0,0,0,0h0s0,0,0,0h0s0,0,0,0h0s0,0,0,0h0s0,0,0,0h0s0,0,0,0h0s0,0,0,0h0s0,0,0,0h0s0,0,0,0h0s0,0,0,0h0s0,0,0,0h0s0,0,0,0h0s0,0,0,0h0s0,0,0,0h0s0,0,0,0h0s0,0,0,0h0s0,0,0,0h0s0,0,0,0h0s0,0,0,0h0s0,0,0,0h0s0,0,0,0h0s0,0,0,0h0s0,0,0,0h0s0,0,0,0h0s0,0,0,0h0s0,0,0,0h0s0,0,0,0h0s0,0,0,0h0s0,0,0,0h0s0,0,0,0h0s0,0,0,0h0s0,0,0,0h0s0,0,0,0h0s0,0,0,0h0s0,0,0,0h0s0,0,0,0h0s0,0,0,0h0s0,0,0,0h0s0,0,0,0h0s0,0,0,0h0s0,0,0,0h0s0,0,0,0h0s0,0,0,0h0s0,0,0,0h0s0,0,0,0h0s0,0,0,0h0s0,0,0,0h0s0,0,0,0h0s0,0,0,0h0s0,0,0,0h0s0,0,0,0h0s0,0,0,0h0s0,0,0,0h0s0,0,0,0h0s0,0,0,0h0s0,0,0,0h0s0,0,0,0h0s0,0,0,0h0s0,0,0,0h0s0,0,0,0h0s0,0,0,0h0s0,0,0,0h0s0,0,0,0h0s0,0,0,0h0s0,0,0,0h0s0,0,0,0h0s0,0,0,0h0s0,0,0,0h0s0,0,0,0h0s0,0,0,0h0s0,0,0,0h0s0,0,0,0h0s0,0,0,0h0s0,0,0,0h0s0,0,0,0h0s0,0,0,0h0s0,0,0,0h0s0,0,0,0h0s0,0,0,0h0s0,0,0,0h0s0,0,0,0h0s0,0,0,0h0s0,0,0,0h0s0,0,0,0h0s0,0,0,0h0s0,0,0,0h0s0,0,0,0h0s0,0,0,0h0s0,0,0,0h0s0,0,0,0h0s0,0,0,0h0s0,0,0,0h0s0,0,0,0h0s0,0,0,0h0s0,0,0,0h0s0,0,0,0h0s0,0,0,0h0s0,0,0,0h0s0,0,0,0h0s0,0,0,0h0s0,0,0,0h0s0,0,0,0h0s0,0,0,0h0s0,0,0,0h0s0,0,0,0h0s0,0,0,0h0s0,0,0,0h0s0,0,0,0h0s0,0,0,0h0s0,0,0,0h0s0,0,0,0h0s0,0,0,0h0s0,0,0,0h0s0,0,0,0h0s0,0,0,0h0s0,0,0,0h0s0,0,0,0h0s0,0,0,0h0s0,0,0,0h0s0,0,0,0h0s0,0,0,0h0s0,0,0,0h0s0,0,0,0h0s0,0,0,0h0s0,0,0,0h0s0,0,0,0h0s0,0,0,0h0s0,0,0,0h0s0,0,0,0h0s0,0,0,0h0s0,0,0,0h0s0,0,0,0h0s0,0,0,0h0s0,0,0,0h0s0,0,0,0h0s0,0,0,0h0s0,0,0,0h0s0,0,0,0h0s0,0,0,0h0s0,0,0,0h0s0,0,0,0h0s0,0,0,0h0s0,0,0,0h0s0,0,0,0h0s0,0,0,0h0s0,0,0,0h0s0,0,0,0h0s0,0,0,0h0s0,0,0,0h0s0,0,0,0h0s0,0,0,0h0s0,0,0,0h0s0,0,0,0h0s0,0,0,0h0s0,0,0,0h0s0,0,0,0h0s0,0,0,0h0s0,0,0,0h0s0,0,0,0h0s0,0,0,0h0s0,0,0,0h0s0,0,0,0h0s0,0,0,0h0s0,0,0,0h0s0,0,0,0h0s0,0,0,0h0s0,0,0,0h0s0,0,0,0h0s0,0,0,0h0s0,0,0,0h0s0,0,0,0h0s0,0,0,0h0s0,0,0,0h0s0,0,0,0h0s0,0,0,0h0s0,0,0,0h0s0,0,0,0h0s0,0,0,0h0s0,0,0,0h0s0,0,0,0h0s0,0,0,0h0s0,0,0,0h0s0,0,0,0h0s0,0,0,0h0s0,0,0,0h0s0,0,0,0h0s0,0,0,0h0s0,0,0,0h0s0,0,0,0h0s0,0,0,0h0s0,0,0,0h0s0,0,0,0h0s0,0,0,0h0s0,0,0,0h0s0,0,0,0h0s0,0,0,0h0s0,0,0,0h0s0,0,0,0h0s0,0,0,0h0s0,0,0,0h0s0,0,0,0h0s0,0,0,0h0s0,0,0,0h0s0,0,0,0h0s0,0,0,0h0s0,0,0,0h0s0,0,0,0h0s0,0,0,0h0s0,0,0,0h0s0,0,0,0h0s0,0,0,0h0s0,0,0,0h0s0,0,0,0h0s0,0,0,0h0s0,0,0,0h0s0,0,0,0h0s0,0,0,0h0s0,0,0,0h0s0,0,0,0h0s0,0,0,0h0s0,0,0,0h0s0,0,0,0h0s0,0,0,0h0M50.4,128h0s0,0,0,0h0s0,0,0,0h0s0,0,0,0h0s0,0,0,0h0s0,0,0,0h0s0,0,0,0h0s0,0,0,0h0s0,0,0,0h0s0,0,0,0h0s0,0,0,0h0s0,0,0,0h0s0,0,0,0h0s0,0,0,0h0s0,0,0,0h0s0,0,0,0h0s0,0,0,0h0s0,0,0,0h0s0,0,0,0h0s0,0,0,0h0s0,0,0,0h0s0,0,0,0h0s0,0,0,0h0s0,0,0,0h0s0,0,0,0h0s0,0,0,0h0s0,0,0,0h0s0,0,0,0h0s0,0,0,0h0s0,0,0,0h0s0,0,0,0h0s0,0,0,0h0s0,0,0,0h0s0,0,0,0h0s0,0,0,0h0s0,0,0,0h0s0,0,0,0h0s0,0,0,0h0s0,0,0,0h0s0,0,0,0h0s0,0,0,0h0s0,0,0,0h0s0,0,0,0h0s0,0,0,0h0s0,0,0,0h0s0,0,0,0h0s0,0,0,0h0s0,0,0,0h0s0,0,0,0h0s0,0,0,0h0s0,0,0,0h0s0,0,0,0h0s0,0,0,0h0s0,0,0,0h0s0,0,0,0h0s0,0,0,0h0s0,0,0,0h0s0,0,0,0h0s0,0,0,0h0s0,0,0,0h0s0,0,0,0h0s0,0,0,0h0s0,0,0,0h0s0,0,0,0h0s0,0,0,0h0s0,0,0,0h0s0,0,0,0h0s0,0,0,0h0s0,0,0,0h0s0,0,0,0h0s0,0,0,0h0s0,0,0,0h0s0,0,0,0h0s0,0,0,0h0s0,0,0,0h0s0,0,0,0h0s0,0,0,0h0s0,0,0,0h0s0,0,0,0h0s0,0,0,0h0s0,0,0,0h0s0,0,0,0h0s0,0,0,0h0s0,0,0,0h0s0,0,0,0h0s0,0,0,0h0s0,0,0,0h0s0,0,0,0h0s0,0,0,0h0s0,0,0,0h0s0,0,0,0h0s0,0,0,0h0s0,0,0,0h0s0,0,0,0h0s0,0,0,0h0s0,0,0,0h0s0,0,0,0h0s0,0,0,0h0s0,0,0,0h0s0,0,0,0h0s0,0,0,0h0s0,0,0,0h0s0,0,0,0h0s0,0,0,0h0s0,0,0,0h0s0,0,0,0h0s0,0,0,0h0s0,0,0,0h0s0,0,0,0h0s0,0,0,0h0s0,0,0,0h0s0,0,0,0h0s0,0,0,0h0s0,0,0,0h0s0,0,0,0h0s0,0,0,0h0s0,0,0,0h0s0,0,0,0h0s0,0,0,0h0s0,0,0,0h0s0,0,0,0h0s0,0,0,0h0s0,0,0,0h0s0,0,0,0h0s0,0,0,0h0s0,0,0,0h0s0,0,0,0h0s0,0,0,0h0s0,0,0,0h0s0,0,0,0h0s0,0,0,0h0s0,0,0,0h0s0,0,0,0h0s0,0,0,0h0s0,0,0,0h0s0,0,0,0h0s0,0,0,0h0s0,0,0,0h0s0,0,0,0h0s0,0,0,0h0s0,0,0,0h0s0,0,0,0h0s0,0,0,0h0s0,0,0,0h0s0,0,0,0h0s0,0,0,0h0s0,0,0,0h0s0,0,0,0h0s0,0,0,0h0s0,0,0,0h0s0,0,0,0h0s0,0,0,0h0s0,0,0,0h0s0,0,0,0h0s0,0,0,0h0s0,0,0,0h0s0,0,0,0h0s0,0,0,0h0s0,0,0,0h0s0,0,0,0h0s0,0,0,0h0s0,0,0,0h0s0,0,0,0h0s0,0,0,0h0s0,0,0,0h0s0,0,0,0h0s0,0,0,0h0s0,0,0,0h0s0,0,0,0h0s0,0,0,0h0s0,0,0,0h0s0,0,0,0h0s0,0,0,0h0s0,0,0,0h0s0,0,0,0h0s0,0,0,0h0s0,0,0,0h0s0,0,0,0h0s0,0,0,0h0s0,0,0,0h0s0,0,0,0h0s0,0,0,0h0s0,0,0,0h0s0,0,0,0h0s0,0,0,0h0s0,0,0,0h0s0,0,0,0h0s0,0,0,0h0s0,0,0,0h0s0,0,0,0h0s0,0,0,0h0s0,0,0,0h0s0,0,0,0h0s0,0,0,0h0s0,0,0,0h0s0,0,0,0h0s0,0,0,0h0s0,0,0,0h0s0,0,0,0h0s0,0,0,0h0s0,0,0,0h0s0,0,0,0h0s0,0,0,0h0s0,0,0,0M43.2,128.3h0s0,0,0,0h0s0,0,0,0h0s0,0,0,0h0s0,0,0,0h0s0,0,0,0h0s0,0,0,0h0s0,0,0,0h0s0,0,0,0h0s0,0,0,0h0s0,0,0,0h0s0,0,0,0h0s0,0,0,0h0s0,0,0,0h0s0,0,0,0h0s0,0,0,0h0s0,0,0,0h0s0,0,0,0h0s0,0,0,0h0s0,0,0,0h0s0,0,0,0h0s0,0,0,0h0s0,0,0,0h0s0,0,0,0h0s0,0,0,0h0s0,0,0,0h0s0,0,0,0h0s0,0,0,0h0s0,0,0,0h0s0,0,0,0h0s0,0,0,0h0s0,0,0,0h0s0,0,0,0h0s0,0,0,0h0s0,0,0,0h0s0,0,0,0h0s0,0,0,0h0s0,0,0,0h0s0,0,0,0h0s0,0,0,0h0s0,0,0,0h0s0,0,0,0h0s0,0,0,0h0s0,0,0,0h0s0,0,0,0h0s0,0,0,0h0s0,0,0,0h0s0,0,0,0h0s0,0,0,0h0s0,0,0,0h0s0,0,0,0h0s0,0,0,0h0s0,0,0,0h0s0,0,0,0h0s0,0,0,0h0s0,0,0,0h0s0,0,0,0h0s0,0,0,0h0s0,0,0,0h0s0,0,0,0h0s0,0,0,0h0s0,0,0,0h0s0,0,0,0h0s0,0,0,0h0s0,0,0,0h0s0,0,0,0h0s0,0,0,0h0s0,0,0,0h0s0,0,0,0h0s0,0,0,0h0s0,0,0,0h0s0,0,0,0h0s0,0,0,0h0s0,0,0,0h0s0,0,0,0h0s0,0,0,0h0s0,0,0,0h0s0,0,0,0h0s0,0,0,0h0s0,0,0,0h0s0,0,0,0h0s0,0,0,0h0s0,0,0,0h0s0,0,0,0h0s0,0,0,0h0s0,0,0,0h0s0,0,0,0h0s0,0,0,0h0s0,0,0,0h0s0,0,0,0h0s0,0,0,0h0s0,0,0,0h0s0,0,0,0h0s0,0,0,0h0s0,0,0,0h0s0,0,0,0h0M45.4,128.3h0s0,0,0,0h0s0,0,0,0h0s0,0,0,0h0s0,0,0,0h0s0,0,0,0h0s0,0,0,0h0s0,0,0,0h0s0,0,0,0h0s0,0,0,0h0s0,0,0,0h0s0,0,0,0h0s0,0,0,0h0s0,0,0,0h0s0,0,0,0h0s0,0,0,0h0s0,0,0,0h0s0,0,0,0h0s0,0,0,0h0s0,0,0,0h0s0,0,0,0h0s0,0,0,0h0s0,0,0,0h0s0,0,0,0h0s0,0,0,0h0s0,0,0,0h0s0,0,0,0h0s0,0,0,0h0s0,0,0,0h0s0,0,0,0h0s0,0,0,0h0s0,0,0,0h0s0,0,0,0h0s0,0,0,0h0s0,0,0,0h0s0,0,0,0h0s0,0,0,0h0s0,0,0,0h0s0,0,0,0h0s0,0,0,0h0s0,0,0,0h0s0,0,0,0h0s0,0,0,0h0s0,0,0,0h0s0,0,0,0h0s0,0,0,0h0s0,0,0,0h0s0,0,0,0h0s0,0,0,0h0s0,0,0,0h0s0,0,0,0h0s0,0,0,0h0s0,0,0,0h0s0,0,0,0h0s0,0,0,0h0s0,0,0,0h0s0,0,0,0h0s0,0,0,0h0s0,0,0,0h0s0,0,0,0h0s0,0,0,0h0s0,0,0,0h0s0,0,0,0h0s0,0,0,0h0s0,0,0,0h0s0,0,0,0h0s0,0,0,0h0s0,0,0,0h0s0,0,0,0h0s0,0,0,0h0s0,0,0,0h0s0,0,0,0h0s0,0,0,0h0s0,0,0,0h0s0,0,0,0h0s0,0,0,0h0s0,0,0,0h0s0,0,0,0h0s0,0,0,0h0s0,0,0,0h0s0,0,0,0h0s0,0,0,0h0s0,0,0,0h0s0,0,0,0h0s0,0,0,0h0s0,0,0,0h0s0,0,0,0h0s0,0,0,0h0s0,0,0,0h0s0,0,0,0h0s0,0,0,0h0s0,0,0,0h0s0,0,0,0h0s0,0,0,0h0s0,0,0,0h0s0,0,0,0h0s0,0,0,0h0s0,0,0,0h0s0,0,0,0h0s0,0,0,0h0s0,0,0,0h0s0,0,0,0h0s0,0,0,0h0s0,0,0,0h0s0,0,0,0h0s0,0,0,0h0s0,0,0,0h0s0,0,0,0h0s0,0,0,0h0s0,0,0,0h0s0,0,0,0h0s0,0,0,0h0s0,0,0,0h0s0,0,0,0h0s0,0,0,0h0s0,0,0,0h0s0,0,0,0h0s0,0,0,0h0s0,0,0,0h0s0,0,0,0h0s0,0,0,0h0s0,0,0,0h0s0,0,0,0h0s0,0,0,0h0s0,0,0,0h0s0,0,0,0h0s0,0,0,0h0s0,0,0,0h0s0,0,0,0h0s0,0,0,0h0s0,0,0,0h0s0,0,0,0h0s0,0,0,0h0s0,0,0,0h0s0,0,0,0h0s0,0,0,0h0s0,0,0,0h0s0,0,0,0h0s0,0,0,0h0s0,0,0,0h0s0,0,0,0h0s0,0,0,0h0s0,0,0,0h0s0,0,0,0h0s0,0,0,0h0s0,0,0,0h0s0,0,0,0h0s0,0,0,0h0s0,0,0,0h0s0,0,0,0h0s0,0,0,0h0s0,0,0,0h0s0,0,0,0h0s0,0,0,0h0s0,0,0,0h0s0,0,0,0h0s0,0,0,0h0s0,0,0,0h0s0,0,0,0h0s0,0,0,0h0s0,0,0,0h0s0,0,0,0h0s0,0,0,0h0s0,0,0,0h0s0,0,0,0h0s0,0,0,0h0s0,0,0,0h0s0,0,0,0h0s0,0,0,0h0s0,0,0,0h0s0,0,0,0h0s0,0,0,0h0s0,0,0,0h0s0,0,0,0h0s0,0,0,0h0s0,0,0,0h0s0,0,0,0h0s0,0,0,0h0s0,0,0,0h0s0,0,0,0h0s0,0,0,0h0s0,0,0,0h0s0,0,0,0h0s0,0,0,0h0s0,0,0,0h0s0,0,0,0h0s0,0,0,0h0s0,0,0,0h0s0,0,0,0h0s0,0,0,0h0s0,0,0,0h0s0,0,0,0h0s0,0,0,0h0s0,0,0,0h0s0,0,0,0h0s0,0,0,0h0s0,0,0,0h0s0,0,0,0h0s0,0,0,0h0s0,0,0,0h0s0,0,0,0h0s0,0,0,0h0s0,0,0,0h0s0,0,0,0h0Z"/>
    </g>
    <path class="st2" d="M23.3,128.2s.3,5,.5,6.2.8,3,3.6,2.8,32.8-2.9,34.5-3.3,2.8-1.4,3.3-2.3.9-4.3.9-4.3"/>
    <path class="st10" d="M165.6,155.7c-2.3-1.2-11.3-10.3-12.2-11.6s-3.6-17.3-3.6-19,.2-3.6.2-4.8-1.9-3.5-2.4-4.4-1.2-2.8-1.2-2.8c-1-4.5-2.6-7.5-4-8.4s-2.1-2.3-2.8-3.7-3.8-8.2-4.2-9.3-2.4-2.9-3.1-3.6-2.7-3.9-3.4-4.4-1.2-.7-3.5-1.5c-2.3-.8-4.4-.9-4.4-.9,0,0,0,10.4,0,11s1.9.7,1.9.7c.3,1,1.4,1.8,1.6,2.4s.4,1.2.6,2.4.4,2.3,1,3.7,1.2,2.1,1.2,2.1c-.6.5-1.3,6-1.2,7.4s-.7,3.5-3.9,5.3-4.9,1.5-4.9,1.5c-12.6-3.1-18.9-5.5-18.9-5.5-3.5-1.1-7.7-4-7.7-4-3-1.3-8-2.2-8-2.2-1.7,0-3,0-3,0-7.4.5-4.1,8.4-4.1,8.4.7.8,1.5,2.1,1.5,2.1,5.2,5.7,12.3,7.6,12.3,7.6,2.2,0,6.3,2.5,6.3,2.5,2,2.4,5.4,4.5,5.4,4.5.8,1.3,4,3,4,3,2,5.8,5.7,10.4,5.7,10.4,3,4.6,6.5,7.4,6.5,7.4,4,5.4,11.6,8.3,11.6,8.3,0,0,8.9,11.9,12.5,21.9"/>
    <path class="st17" d="M84.8,119.2s0-.3,0-1.2c0-.5.2-1.1.4-1.9.1-.4.3-.9.5-1.4.3-.5.5-1.1.9-1.6.8-1.1,1.7-1.9,2.4-2.3.8-.4,1.4-.6,1.9-.7.9-.2,1.2,0,1.2,0,0,0-.2,0-1.1.3-.4.1-1,.3-1.7.8-.7.4-1.5,1.1-2.2,2.2-.4.5-.6,1.1-.9,1.5-.2.5-.4.9-.5,1.3-.2.8-.4,1.4-.5,1.8-.2.9-.3,1.1-.4,1.1Z"/>
    <path class="st17" d="M76.2,114.1s.4,0,1.6.7c.6.3,1.4.7,2.4,1.3,0,.3.1-.8.3-1.5.2-.8.5-1.6,1-2.5.5-1,1.1-1.8,1.7-2.4.3-.3.6-.6.9-.8.1-.1.3-.2.4-.3.1,0,0,0,0,0,0,0,0,0,0,0h0s-.1,0-.1,0c-.2,0-.3-.1-.5-.2-.3-.1-.6-.3-.9-.4-.5-.2-.9-.4-1.2-.5-.6-.3-.7-.4-.7-.4,0,0,.2,0,.8.2.3.1.7.2,1.2.4.3,0,.6.2.9.3.4.2.9.4,1.5.6-.2.2-.6.4-.8.5-.1.1-.3.2-.4.3-.3.2-.5.5-.8.8-.5.6-1.1,1.4-1.6,2.3-.5.8-.7,1.7-.9,2.4,0,.4-.2.7-.2,1.1,0,.2,0,.4-.1.6v.2c0,0,0,.2-.1.1-.1,0-.3-.1-.4-.2-.6-.3-1-.6-1.5-.8-.4-.2-.7-.4-1-.6-1.1-.7-1.4-.9-1.4-1Z"/>
    <path class="st17" d="M87.5,120.9s-.1-.2-.1-.9c0-.7,0-2.1.9-4.1,1-2,2.1-2.8,2.6-3.3.6-.4.8-.4.9-.4,0,0-.1.2-.7.7-.5.5-1.5,1.3-2.4,3.2-.8,1.9-.9,3.2-1,3.9,0,.7-.1.9-.2.9Z"/>
    <path class="st17" d="M119.3,119s.2-.1,1-.3c.8-.2,2.2-.5,4.2-1.7,2-1.3,3-2.3,3.6-2.9.6-.6.7-.7.8-.7,0,0,0,.2-.5.9-.5.6-1.5,1.8-3.5,3.1-2.1,1.3-3.6,1.5-4.4,1.6-.8,0-1,0-1.1,0Z"/>
    <path class="st17" d="M135.1,102c0,0,.4-.3,2.3,0,2,.3,2.2.6,2.2.7,0,.1-.4.1-2.3-.2-1.9-.3-2.3-.3-2.3-.4Z"/>
    <path class="st17" d="M124.1,92.5s0-.1,0-.7c0-.5.2-1.5,1.3-2.7,1.1-1.2,2-1.4,2.5-1.6.5-.1.7,0,.7,0,0,0-.1.1-.6.3-.4.2-1.3.6-2.2,1.6-.9,1.1-1.1,2-1.3,2.4-.1.5-.2.6-.3.6Z"/>
    <path class="st17" d="M124.1,84.6s0,.2-.5.6c-.3.5-1.1,1.3-1.2,3,0,.9.1,1.6.2,2.1.1.5.2.9.3,1.2.2.6.2.7.2.8,0,0-.2,0-.5-.7-.1-.3-.3-.7-.5-1.2-.2-.6-.3-1.3-.3-2.3,0-1,.3-1.7.6-2.2.3-.5.6-.8.9-1,.5-.4.7-.4.7-.4Z"/>
    <path class="st17" d="M146.3,118.1c-.1,0-.2-.5-.4-3.7-.2-3.1-.1-3.7,0-3.7,0,0,.3.5.5,3.6.2,3.1,0,3.7,0,3.7Z"/>
    <path class="st17" d="M148.7,127.7s-.1-.2-.2-.9c0-.7,0-1.9,0-4,0-2.1.2-3.3.3-4,0-.7.2-.9.2-.9.1,0,.2.7,0,4.9-.2,4.1-.2,4.8-.4,4.9Z"/>
    <path class="st17" d="M106.2,114.7s.2,0,1,.2c.8.2,2.1.7,4.2,1.7,2.1,1,3.3,1.7,4,2.1.7.4.8.6.8.6,0,0-.8-.2-5.1-2.2-4.2-2-5-2.3-5-2.4Z"/>
    <line class="st2" x1="121.1" y1="98.9" x2="125.7" y2="100"/>
    <path class="st2" d="M121.1,111.8s.7-.1,2,0,2.2.2,2.2.2l.8.5"/>
  </g>
</svg>