<svg xmlns="http://www.w3.org/2000/svg" width="221" height="567" fill="none" viewBox="0 0 221 567"><path fill="#fff" d="M0 0h221v567H0z"/><path stroke="#040000" stroke-linecap="round" stroke-linejoin="round" stroke-width=".5" d="M76.54 524.1h.31M144.88 524.1h.31M116.54 493.54H105.2M91.02 509.69v-1.97M114.69 199.02v3.69M122.91 202.71v-3.69M130.71 509.69v-1.97M115.26 203.28h7.09M122.35 198.46h-7.09M55.82 505.96c.06.21.12.41.19.62M105.2 493.54c-7.83 0-14.17 6.35-14.17 14.17M165.73 506.58c.06-.21.13-.41.19-.62M130.71 507.72c0-7.83-6.35-14.17-14.17-14.17M122.91 199.02a.57.57 0 0 0-.57-.57M122.35 203.28c.31 0 .57-.25.57-.57M114.69 202.71c0 .31.25.57.57.57M115.26 198.46a.57.57 0 0 0-.57.57M130.71 509.69c0 1.86.36 3.74 1.06 5.48s1.74 3.33 3.05 4.67 2.88 2.42 4.6 3.15 3.6 1.11 5.46 1.11M76.85 524.1c1.86 0 3.74-.38 5.46-1.11s3.3-1.81 4.6-3.15 2.35-2.93 3.05-4.67 1.06-3.62 1.06-5.48M165.91 505.96l1.08-1.86M166.99 504.1l.29-.49M54.46 503.61l.28.49M54.74 504.1l1.08 1.86"/><path stroke="#040000" stroke-linecap="round" stroke-linejoin="round" d="M76.5 527.56h16.54M100.38 522.42h20.97M121.35 522.42h.42l1.31.04 1.2.08 1.04.11.88.13M126.2 522.78l.67.14"/><path stroke="#040000" stroke-linecap="round" stroke-linejoin="round" stroke-width=".5" d="m126.87 522.92.35.11"/><path stroke="#040000" stroke-linecap="round" stroke-linejoin="round" d="m94.88 522.92.69-.15M95.57 522.77l.88-.13 1.06-.11 1.21-.08 1.32-.03h.34"/><path stroke="#040000" stroke-linecap="round" stroke-linejoin="round" stroke-width=".5" d="M145.24 513.2h-3.29M79.79 513.2H76.5M76.5 513.1h3.19M142.05 513.1h3.19"/><path stroke="#040000" stroke-linecap="round" stroke-linejoin="round" d="M126.61 511.83h-26.27M100.23 511.83h-5.1"/><path stroke="#040000" stroke-linecap="round" stroke-linejoin="round" stroke-width=".5" d="M100.78 508.99h20.17M116.54 493.83H105.2M116.54 482.31H105.2M105.2 482.2h11.34M165.98 62.14l.1-.05M55.67 505.82l-1.21-2.21M145.45 448.76H76.28M76.28 445.5h69.17M69.2 182.65l-.1.04M69.32 182.95l-.09.04M54.24 361.03l-.06-.05M54.36 361.32v-.01M54.36 489.87V361.32M54.36 349.39V210.96M54.36 202.11V76.61"/><circle cx="54.69" cy="68.63" r=".25" fill="#040000"/><path stroke="#040000" stroke-linecap="round" stroke-linejoin="round" stroke-width=".5" d="m70.21 183.97.04-.09M70.51 184.09l.04-.09M54.38 210.67l-.11.04M145.45 385.4H76.28M76.28 382.14h69.17M54.18 349.73l.11.06"/><circle cx="54.36" cy="210.96" r=".25" fill="#040000"/><path stroke="#040000" stroke-linecap="round" stroke-linejoin="round" stroke-width=".5" d="M54.46 76.61v125.03M54.46 211.43v137.73M54.46 361.54v127.82M54.46 503.61v-5.02M60.69 219.57v55M60.78 219.57v55M64.52 336.79v14.81M65.37 336.79v15.59M66.36 71.39v11.13M67.78 440.25v-87.87M69.1 82.52v100.17M69.2 82.52v100.13M70.61 228.65v36.85M70.67 228.65v36.85M71.04 390.65v49.6M74.02 228.65v36.85M131.32 370.8H90.41M131.33 370.52H90.4M167.42 490.01l.04.07M66.67 70.51l-.01-.05M87.57 367.73l-.27-15.35M90.41 370.8l-.01-.28M79.69 513.1v-5.38M79.79 507.72v5.48"/><circle cx="88.19" cy="184" r=".25" fill="#040000"/><path stroke="#040000" stroke-linecap="round" stroke-linejoin="round" stroke-width=".5" d="M91.31 507.72v1.74M91.45 352.38v-15.59M92.3 352.38v-15.59M151.49 183.88l.92-.93M152.5 182.99l-.98.98M129.8 352.38h-.37M64.92 352.38h-.22M64.94 352.38H92.3M129.86 352.38h27.17M121.38 509.4l.12 2.43M112.69 202.71v-3.69"/><path stroke="#040000" stroke-linecap="round" stroke-linejoin="round" d="m94.7 512.24-.24 13.9"/><path stroke="#040000" stroke-linecap="round" stroke-linejoin="round" stroke-width=".5" d="m100.36 509.4-.13 2.43M153.95 334.38h-21.26M89.04 334.38H67.78M153.95 333.53h-21.26M89.04 333.53H67.78M167.49 349.68l.06.05M54.31 210.77l-.04-.06"/><path stroke="#040000" stroke-linecap="round" stroke-linejoin="round" d="m127.03 512.24.24 13.9"/><path stroke="#040000" stroke-linecap="round" stroke-linejoin="round" stroke-width=".5" d="M124.91 199.02v3.69M129.43 336.79v15.59M130.28 336.79v15.59M130.43 509.46v-1.74"/><circle cx="133.54" cy="184" r=".25" fill="#040000"/><path stroke="#040000" stroke-linecap="round" stroke-linejoin="round" stroke-width=".5" d="m131.33 370.52-.01.28M141.95 513.2v-5.48M142.05 507.72v5.38M147.72 228.65v36.85M150.69 440.25v-49.6M151.06 265.5v-36.85M151.12 265.5v-36.85M152.54 182.65V82.52M152.63 182.69V82.52M134.43 352.38l-.27 15.35M66.36 280.24h89.01M66.36 280.14h89.01M121.81 215.98l-.71-1.72M121.16 214.17l.71 1.72M155.37 71.33l-.02-.23M167.38 167.69v.01"/><circle cx="167.38" cy="349.39" r=".25" fill="#040000"/><circle cx="167.38" cy="489.83" r=".25" fill="#040000"/><path stroke="#040000" stroke-linecap="round" stroke-linejoin="round" stroke-width=".5" d="M153.95 352.38v87.87M155.37 82.52V71.39M156.36 352.38v-15.59M157.21 351.6v-14.81M160.95 274.57v-53.01M161.04 274.57v-53.01M167.28 503.61v-5.02M167.28 489.36V361.54M167.28 349.16V216.31M167.28 167.79V76.61M167.38 76.61v91.08M167.38 216.42v132.97M167.38 361.32v128.51M169.83 167.96v48.03M79.69 274.57h62.36M79.69 274.51h62.36M142.05 271.17H79.69M70.21 183.97l-.98-.98M69.32 182.95l.93.93M54.29 360.92l-.11.06M54.27 202.36l.11.04M151.19 184l.03.09M151.49 183.88l.03.09M142.05 222.98H79.69M142.05 219.63H79.69M142.05 219.57H79.69M169.83 215.99h-2.03M155.37 215.98h-33.56M155.37 215.89h12.33M121.91 215.88h47.92M120.71 214H66.36M120.77 213.91h-19.76M75.37 213.91h-9.01M122.35 205.27h-7.09M115.26 196.46h7.09M95.5 184.1l55.72-.01M70.55 184h17.64M133.54 184h17.65M88.19 184h45.35M70.51 184.09l10.37.01M152.5 182.99l-.09-.04M152.63 182.69l-.09-.04M169.72 168.07l-1.99.14M167.83 168.11l1.99-.14M167.76 168.11h.07M167.28 503.61l-1.22 2.21M55.66 62.09l.09.05M66.31 82.52h-.37M66.36 82.52h89.44M94.51 523.03l.37-.11M152.18 65.51H69.55M68.1 66.81h.04M167.06 68.46l-.11-.01M54.78 68.45l-.1.01M135.17 54.46H86.56M86.56 54.36h48.61M135.21 43.48H86.52M86.5 43.11h48.73M45.08 509.97a19.11 19.11 0 0 0 14.97 13.08"/><path stroke="#040000" stroke-linecap="round" stroke-linejoin="round" stroke-width=".5" d="M45.45 509.82a18.71 18.71 0 0 0 14.67 12.88M45.06 509.89l.03.09M55.91 506.61a7.75 7.75 0 0 0 6.08 5.34"/><path stroke="#040000" stroke-linecap="round" stroke-linejoin="round" stroke-width=".5" d="M56.01 506.58a7.66 7.66 0 0 0 6 5.27M54.3 490.04a6.964 6.964 0 0 0 .08 8.52M54.4 498.41c2.3 3.01 6.6 3.58 9.6 1.28s3.58-6.6 1.28-9.6-6.6-3.58-9.6-1.28c-.48.37-.91.8-1.28 1.27"/><path stroke="#040000" stroke-linecap="round" stroke-linejoin="round" stroke-width=".5" d="M53.61 494.25c0-3.44 2.79-6.24 6.24-6.24s6.24 2.79 6.24 6.24-2.79 6.24-6.24 6.24-6.24-2.79-6.24-6.24M55.67 505.82s.1.09.15.14M54.46 349.44s-.07-.04-.1-.05M64.62 352.02c-.03-.14-.07-.28-.1-.42M64.66 352.21c-.01-.06-.03-.12-.04-.19M64.7 352.38c-.01-.06-.02-.11-.04-.17M54.38 361.31s.05-.03.08-.04M54.46 361.27s0-.09-.02-.13M54.05 349.73a6.96 6.96 0 0 0-1.52 9.73c.42.58.94 1.1 1.52 1.52M54.29 360.92c3.07 2.21 7.36 1.5 9.56-1.57 2.21-3.07 1.5-7.36-1.57-9.56a6.83 6.83 0 0 0-7.99 0"/><path stroke="#040000" stroke-linecap="round" stroke-linejoin="round" stroke-width=".5" d="M52.05 355.35c0-3.44 2.79-6.24 6.24-6.24s6.24 2.79 6.24 6.24-2.79 6.24-6.24 6.24-6.24-2.79-6.24-6.24M67.78 333.53a3.26 3.26 0 0 0-3.26 3.26"/><path stroke="#040000" stroke-linecap="round" stroke-linejoin="round" stroke-width=".5" d="M67.78 334.38c-1.33 0-2.41 1.08-2.41 2.41M54.45 349.54s.01-.06.01-.1M55.67 505.82c.08.26.15.53.23.79M105.2 482.2c-14.09 0-25.51 11.42-25.51 25.51"/><path stroke="#040000" stroke-linecap="round" stroke-linejoin="round" stroke-width=".5" d="M105.2 482.31c-14.03 0-25.41 11.38-25.41 25.41M91.3 509.71v-.25M76.56 524.47h.32M105.2 493.83c-7.67 0-13.89 6.22-13.89 13.89M67.78 440.25a8.5 8.5 0 0 0 8.5 8.5M71.04 440.25c0 2.9 2.35 5.24 5.24 5.24M100.78 508.99c-.23 0-.41.18-.42.4"/><path stroke="#040000" stroke-linecap="round" stroke-linejoin="round" d="M95.13 511.83c-.23 0-.42.19-.43.42"/><path stroke="#040000" stroke-linecap="round" stroke-linejoin="round" stroke-width=".5" d="M86.52 43.48c-7.41 0-14.82.23-22.22.7M86.5 43.11c-7.42 0-14.84.23-22.24.7M86.56 54.36c-7.19 0-14.38.22-21.55.67"/><path stroke="#040000" stroke-linecap="round" stroke-linejoin="round" stroke-width=".5" d="M86.56 54.46c-7.19 0-14.37.22-21.55.67M60.12 522.69c5.42.94 10.91 1.41 16.42 1.41"/><path stroke="#040000" stroke-linecap="round" stroke-linejoin="round" stroke-width=".5" d="M60.06 523.06c5.45.94 10.97 1.42 16.51 1.41M61.99 511.95c4.79.83 9.64 1.25 14.51 1.25"/><path stroke="#040000" stroke-linecap="round" stroke-linejoin="round" stroke-width=".5" d="M62.01 511.85c4.79.83 9.63 1.25 14.49 1.25M54.46 361.27v.28M54.46 349.16v.28M76.28 382.14a8.5 8.5 0 0 0-8.5 8.5M76.28 385.4c-2.9 0-5.24 2.35-5.24 5.24M92.3 336.79c0-1.8-1.46-3.26-3.26-3.26"/><path stroke="#040000" stroke-linecap="round" stroke-linejoin="round" stroke-width=".5" d="M91.45 336.79c0-1.33-1.08-2.41-2.41-2.41M54.46 202.14l-.1-.03M54.27 202.36a6.96 6.96 0 0 0 0 8.34M54.38 210.67c2.28 3.02 6.58 3.61 9.6 1.33s3.61-6.58 1.33-9.6-6.58-3.61-9.6-1.33c-.5.38-.95.83-1.33 1.33"/><path stroke="#040000" stroke-linecap="round" stroke-linejoin="round" stroke-width=".5" d="M53.61 206.54c0-3.44 2.79-6.24 6.24-6.24s6.24 2.79 6.24 6.24-2.79 6.24-6.24 6.24-6.24-2.79-6.24-6.24M66.36 213.91c-3.13 0-5.67 2.54-5.67 5.67M60.69 274.57c0 3.13 2.54 5.67 5.67 5.67"/><path stroke="#040000" stroke-linecap="round" stroke-linejoin="round" stroke-width=".5" d="M66.36 214c-3.08 0-5.58 2.5-5.58 5.58M60.78 274.57c0 3.08 2.5 5.58 5.58 5.58M54.46 210.93s0-.07-.01-.1M54.37 210.96l.09-.03M54.8 68.62v-.08M55.75 62.14s.04-.07.06-.11M55.66 62.09s.04-.07.06-.11M54.69 68.63c0-.06 0-.12-.02-.17M54.8 68.54s0-.06-.02-.09M43.93 62.71s0 .05-.01.08M65.01 55.03c-4.21.26-7.86 2.99-9.29 6.96"/><path stroke="#040000" stroke-linecap="round" stroke-linejoin="round" stroke-width=".5" d="M65.01 55.13c-3.73.23-7.06 2.44-8.73 5.78M65.91 71.25c.08-.07.15-.14.23-.22M68.1 65.82c0-.13-.02-.25-.03-.38M68.11 66.09c0-.09 0-.17-.01-.26M66.14 71.03l.07-.07M68.12 66.22v-.13M65.8 71.36s.08-.07.12-.1M65.66 71.47s.09-.08.13-.11M68.12 66.51v-.29M66.22 70.96c.16-.16.31-.33.45-.5M68.11 66.66v-.15M68.1 66.81v-.15M55.66 62.09a6.97 6.97 0 0 0-.99 6.37M66.67 70.51a6.95 6.95 0 0 0 1.47-3.7M68.07 65.45a6.847 6.847 0 0 0-7.58-6.03c-1.89.22-3.6 1.2-4.73 2.73"/><path stroke="#040000" stroke-linecap="round" stroke-linejoin="round" stroke-width=".5" d="M54.78 68.45a6.85 6.85 0 0 0 8.71 4.25c.8-.27 1.53-.69 2.18-1.23"/><path stroke="#040000" stroke-linecap="round" stroke-linejoin="round" stroke-width=".5" d="M55.02 66.22c0-3.44 2.79-6.24 6.24-6.24s6.24 2.79 6.24 6.24-2.79 6.24-6.24 6.24-6.24-2.79-6.24-6.24M178.33 76.62c0-4.62-.3-9.24-.91-13.82M178.73 76.67c0-4.64-.31-9.27-.92-13.87M167.38 76.61c0-2.66-.11-5.32-.34-7.97"/><path stroke="#040000" stroke-linecap="round" stroke-linejoin="round" stroke-width=".5" d="M167.28 76.61c0-2.39-.09-4.79-.27-7.17M66.55 70.68c-.08.14-.13.28-.16.44M66.58 70.58c-.05.08-.1.17-.13.26M66.39 71.12q-.03.135-.03.27"/><path stroke="#040000" stroke-linecap="round" stroke-linejoin="round" stroke-width=".5" d="M66.37 71.15c0 .06-.01.12-.01.18M66.45 70.84s-.03.1-.05.15M66.67 70.51c-.04.06-.08.11-.12.18M66.4 70.99s-.01.06-.02.09M66.66 70.46s-.06.08-.08.12M66.38 71.08s0 .05-.01.07M69.28 65.53c-.14.02-.27.07-.39.13"/><path stroke="#040000" stroke-linecap="round" stroke-linejoin="round" stroke-width=".5" d="M69.55 65.51c-.13 0-.25.02-.38.05M69.51 65.51h-.15M69.17 65.56c-.07.02-.13.04-.19.07M68.89 65.66c-.12.06-.23.14-.33.23"/><path stroke="#040000" stroke-linecap="round" stroke-linejoin="round" stroke-width=".5" d="M69.37 65.52s-.06 0-.09.01M68.12 66.65c-.01.05-.02.1-.02.16M70.61 265.5c0 5.01 4.06 9.07 9.07 9.07M79.69 219.57c-5.01 0-9.07 4.06-9.07 9.07"/><path stroke="#040000" stroke-linecap="round" stroke-linejoin="round" stroke-width=".5" d="M70.67 265.5c0 4.98 4.04 9.01 9.01 9.01M79.69 219.63c-4.98 0-9.01 4.04-9.01 9.01M79.69 222.98c-3.13 0-5.67 2.54-5.67 5.67M74.02 265.5c0 3.13 2.54 5.67 5.67 5.67"/><path fill="#9fa0a0" stroke="#000" stroke-width=".5" d="M83.23 200.87a4.96 4.96 0 0 1 4.96-4.96 4.96 4.96 0 0 1 4.96 4.96 4.96 4.96 0 0 1-4.96 4.96 4.96 4.96 0 0 1-4.96-4.96Z"/><path stroke="#040000" stroke-linecap="round" stroke-linejoin="round" stroke-width=".5" d="M84.86 200.87c0-1.84 1.49-3.33 3.33-3.33s3.33 1.49 3.33 3.33-1.49 3.33-3.33 3.33-3.33-1.49-3.33-3.33M178.41 77.35v-.72M178.41 76.62c0-.41 0-.81-.02-1.22M178.39 75.4c-.04-2.06-.15-4.13-.33-6.18M54.78 68.86c-.02.19-.03.38-.05.57M178.44 496.35c0-.33.01-.66.01-.99M165.82 506.61c.08-.26.16-.53.23-.79M142.05 507.72c0-14.09-11.42-25.51-25.51-25.51"/><path stroke="#040000" stroke-linecap="round" stroke-linejoin="round" stroke-width=".5" d="M141.95 507.72c0-14.03-11.38-25.41-25.41-25.41M130.43 509.46v.25M144.84 524.46h.32M130.43 507.72c0-7.67-6.22-13.89-13.89-13.89M145.45 448.76a8.5 8.5 0 0 0 8.5-8.5M145.45 445.5c2.9 0 5.24-2.35 5.24-5.24M121.38 509.4c-.01-.23-.2-.4-.42-.4M127.03 512.24c0-.23-.19-.42-.43-.42M157.43 44.17c-7.4-.46-14.81-.7-22.22-.7M157.47 43.81c-7.4-.47-14.82-.7-22.24-.7M156.72 55.03c-7.18-.45-14.36-.67-21.55-.67"/><path stroke="#040000" stroke-linecap="round" stroke-linejoin="round" stroke-width=".5" d="M156.72 55.13c-7.17-.45-14.36-.67-21.55-.67M145.19 524.1c5.5 0 10.99-.47 16.42-1.41"/><path stroke="#040000" stroke-linecap="round" stroke-linejoin="round" stroke-width=".5" d="M145.17 524.47c5.53 0 11.05-.47 16.51-1.41M145.24 513.2c4.86 0 9.72-.42 14.51-1.25"/><path stroke="#040000" stroke-linecap="round" stroke-linejoin="round" stroke-width=".5" d="M145.24 513.1c4.86 0 9.7-.42 14.49-1.25M167.27 349.44v-.28M167.28 361.54v-.28M153.95 390.65a8.5 8.5 0 0 0-8.5-8.5M150.69 390.65c0-2.9-2.35-5.24-5.24-5.24M132.69 333.53a3.26 3.26 0 0 0-3.26 3.26"/><path stroke="#040000" stroke-linecap="round" stroke-linejoin="round" stroke-width=".5" d="M132.69 334.38c-1.33 0-2.41 1.08-2.41 2.41M161.67 523.06a19.13 19.13 0 0 0 14.97-13.08"/><path stroke="#040000" stroke-linecap="round" stroke-linejoin="round" stroke-width=".5" d="M161.61 522.69c6.92-1.2 12.59-6.17 14.67-12.88M176.65 509.97l.03-.09M159.74 511.95c2.87-.5 5.22-2.56 6.08-5.34"/><path stroke="#040000" stroke-linecap="round" stroke-linejoin="round" stroke-width=".5" d="M159.73 511.85a7.66 7.66 0 0 0 6-5.27M167.36 498.56a6.96 6.96 0 0 0 .1-8.48M167.35 490.12c-2.28-3.02-6.58-3.61-9.6-1.33s-3.61 6.58-1.33 9.6 6.58 3.61 9.6 1.33c.49-.37.93-.81 1.31-1.3"/><path stroke="#040000" stroke-linecap="round" stroke-linejoin="round" stroke-width=".5" d="M155.65 494.25c0-3.44 2.79-6.24 6.24-6.24s6.24 2.79 6.24 6.24-2.79 6.24-6.24 6.24-6.24-2.79-6.24-6.24M165.91 505.96s.1-.09.15-.14M167.27 489.86s0 .07.01.1M167.29 498.49s-.02.07-.02.1M167.31 498.45s-.01.03-.02.04"/><path stroke="#040000" stroke-linecap="round" stroke-linejoin="round" stroke-width=".5" d="M167.33 498.41s-.02.02-.02.04M157.21 351.6l-.03.1M157.19 351.7c-.01.06-.03.12-.04.18M157.14 351.88c-.04.17-.08.33-.11.5M167.55 360.98a6.96 6.96 0 0 0 1.52-9.73 6.9 6.9 0 0 0-1.52-1.52M167.45 349.79c-3.07-2.21-7.36-1.5-9.56 1.57s-1.5 7.36 1.57 9.56a6.83 6.83 0 0 0 7.99 0"/><path stroke="#040000" stroke-linecap="round" stroke-linejoin="round" stroke-width=".5" d="M157.21 355.35c0-3.44 2.79-6.24 6.24-6.24s6.24 2.79 6.24 6.24-2.79 6.24-6.24 6.24-6.24-2.79-6.24-6.24M157.21 336.79c0-1.8-1.46-3.26-3.26-3.26"/><path stroke="#040000" stroke-linecap="round" stroke-linejoin="round" stroke-width=".5" d="M156.36 336.79c0-1.33-1.08-2.41-2.41-2.41M167.27 349.44s0 .09.02.13M124.91 199.02a2.57 2.57 0 0 0-2.57-2.57M115.26 196.46a2.57 2.57 0 0 0-2.57 2.57M112.69 202.71a2.57 2.57 0 0 0 2.57 2.57M122.35 205.27a2.57 2.57 0 0 0 2.57-2.57M121.1 214.26a.42.42 0 0 0-.39-.26M167 69.43c-.01-.19-.03-.38-.05-.57M151.12 228.65c0-5.01-4.06-9.07-9.07-9.07M142.05 274.57c5.01 0 9.07-4.06 9.07-9.07"/><path stroke="#040000" stroke-linecap="round" stroke-linejoin="round" stroke-width=".5" d="M151.06 228.65c0-4.98-4.04-9.01-9.01-9.01M142.05 274.51c4.98 0 9.01-4.04 9.01-9.01M154.62 206.54a7.27 7.27 0 0 1 7.27-7.27c4.01 0 7.27 3.26 7.27 7.27s-3.26 7.27-7.27 7.27-7.27-3.26-7.27-7.27"/><path stroke="#040000" stroke-linecap="round" stroke-linejoin="round" stroke-width=".5" d="M155.65 206.54c0-3.44 2.79-6.24 6.24-6.24s6.24 2.79 6.24 6.24-2.79 6.24-6.24 6.24-6.24-2.79-6.24-6.24M142.05 271.17c3.13 0 5.67-2.54 5.67-5.67M147.72 228.65c0-3.13-2.54-5.67-5.67-5.67M161.04 221.56c0-3.13-2.54-5.67-5.67-5.67M155.37 280.24c3.13 0 5.67-2.54 5.67-5.67"/><path stroke="#040000" stroke-linecap="round" stroke-linejoin="round" stroke-width=".5" d="M160.95 221.56c0-3.08-2.5-5.58-5.58-5.58M155.37 280.14c3.08 0 5.58-2.5 5.58-5.58M167.8 215.99c-.23 0-.43.19-.43.43M44.32 62.81c-.61 4.58-.91 9.2-.91 13.82M43.92 62.79c-.61 4.6-.92 9.23-.92 13.87M54.69 68.63c-.22 2.65-.34 5.31-.34 7.97"/><path stroke="#040000" stroke-linecap="round" stroke-linejoin="round" stroke-width=".5" d="M54.73 69.43q-.27 3.585-.27 7.17M152.71 65.6c-.16-.06-.32-.09-.49-.09"/><path stroke="#040000" stroke-linecap="round" stroke-linejoin="round" stroke-width=".5" d="M152.64 65.59c-.15-.05-.3-.07-.45-.07M153.6 66.81c-.01-.15-.05-.3-.11-.44M155.22 70.7c-.04-.09-.1-.17-.15-.25M153.48 66.37c-.03-.08-.08-.16-.12-.23M155.33 71c-.02-.1-.06-.2-.11-.29M155.35 71.1s-.01-.07-.02-.11M155.19 70.69l-.12-.18M153.02 65.76c-.1-.07-.2-.12-.31-.16M153.63 66.81c0-.07-.02-.13-.03-.2M155.27 70.87a.8.8 0 0 0-.09-.18"/><path stroke="#040000" stroke-linecap="round" stroke-linejoin="round" stroke-width=".5" d="M153.6 66.61c-.08-.35-.29-.65-.58-.85M167.68 168.1s.05.01.07.01M167.61 168.07s.05.02.07.03M177.81 62.79s0-.05-.01-.08M166.02 61.98a10.61 10.61 0 0 0-9.29-6.96"/><path stroke="#040000" stroke-linecap="round" stroke-linejoin="round" stroke-width=".5" d="M165.45 60.91c-1.67-3.34-5-5.55-8.73-5.78M155.59 71.03l.06.06M153.66 65.45s0 .08-.01.12M153.65 65.57l-.03.43M153.62 66v.23M155.44 70.88c.05.05.1.11.15.16M155.66 71.1c.08.08.16.15.24.22M155.89 71.32l.18.15M155.19 70.6c.08.09.16.18.25.27M153.62 66.22c0 .2 0 .39.02.59M167.06 68.46c.73-2.16.37-4.54-.99-6.37M153.6 66.81c.12 1.35.63 2.64 1.47 3.7M165.98 62.14a6.85 6.85 0 0 0-9.58-1.43 6.81 6.81 0 0 0-2.73 4.73M156.07 71.47a6.85 6.85 0 0 0 10.88-3.03M155.07 70.46s.08.1.12.14"/><path stroke="#040000" stroke-linecap="round" stroke-linejoin="round" stroke-width=".5" d="M154.24 66.22c0-3.44 2.79-6.24 6.24-6.24s6.24 2.79 6.24 6.24-2.79 6.24-6.24 6.24-6.24-2.79-6.24-6.24M165.92 62.03s.03.08.06.11M166.02 61.98s.03.07.06.11M43.41 496.35c0 2.28.18 4.56.52 6.81s.84 4.49 1.52 6.66M43.41 76.62v419.73M44.32 62.81c.16-1.22.43-2.43.8-3.61s.83-2.32 1.4-3.42c1.12-2.19 2.64-4.19 4.45-5.87.9-.84 1.88-1.6 2.91-2.28s2.12-1.26 3.26-1.75a21.4 21.4 0 0 1 7.17-1.71M157.43 44.17c2.45.15 4.89.74 7.16 1.71s4.37 2.35 6.17 4.03c.9.84 1.73 1.76 2.48 2.74s1.4 2.03 1.97 3.13 1.03 2.24 1.4 3.42.64 2.39.8 3.61M178.33 496.35V76.62M176.28 509.82c.67-2.17 1.18-4.41 1.52-6.66s.52-4.53.52-6.81M167.38 167.7c0 .08.02.15.07.22s.1.12.17.15M167.38 349.39c0 .1.05.21.12.28M167.38 489.83c0 .06.02.13.04.18M54.36 361.31c0-.1-.05-.21-.12-.28M54.36 210.96c0-.06-.02-.13-.04-.18M155.37 71.39c0-.18-.03-.36-.1-.52M153.36 66.14c-.17-.25-.44-.46-.72-.55M68.98 65.63c-.27.12-.51.33-.66.59M68.32 66.22c-.1.18-.17.39-.19.59M95.5 184.1a18.5 18.5 0 0 1 3.83 2.27c1.18.91 2.25 1.96 3.17 3.12s1.71 2.44 2.32 3.8a18.6 18.6 0 0 1 1.34 4.25c.27 1.47.36 2.96.27 4.45s-.37 2.96-.81 4.38-1.07 2.78-1.85 4.05-1.71 2.44-2.77 3.49M75.37 213.91a18.3 18.3 0 0 1-2.77-3.49c-.78-1.27-1.4-2.63-1.85-4.05s-.72-2.89-.81-4.38 0-2.98.27-4.45.72-2.89 1.34-4.25 1.4-2.63 2.32-3.8 1.99-2.22 3.17-3.12a18.5 18.5 0 0 1 3.83-2.27M167.35 490.12s-.06-.1-.07-.16M167.45 349.79a.47.47 0 0 1-.16-.22M166.93 68.62c0-.06 0-.12.02-.17M167.27 361.27s0-.07.01-.11c.02-.09.08-.18.16-.24M54.45 349.54s-.01.05-.02.08a.4.4 0 0 1-.14.17M165.45 60.91c.05.1.09.19.14.29.13.27.24.55.34.84M166.93 68.62v.05c0 .06.01.12.02.18M55.81 62.03c.03-.09.06-.18.1-.26.11-.29.24-.58.38-.86M54.78 68.86v-.06c0-.06.01-.12.02-.17M54.46 202.14v-.5M54.46 211.43v-.5M54.46 489.91v-.55M167.28 489.36v.5"/><path stroke="#040000" stroke-linecap="round" stroke-linejoin="round" stroke-width=".5" d="M68.12 66.65c.06-.29.22-.57.43-.77M95.38 184.09h.17M80.83 184.09H81M54.43 498.72v.08M54.44 498.76s0 .09.01.14c0 .04.01.07.01.11M167.3 498.72v.09M167.28 499.01v-.03c.01-.12.01-.13.01-.19M167.28 498.71h.01M95.38 184.09h-.26M95.12 184.11c-.54.01-1.08.01-1.63.02H80.98M167.36 498.56s-.06.1-.06.16M54.43 498.72c0-.06-.03-.11-.06-.16M54.4 498.41a.3.3 0 0 1 .06.18M54.46 489.91c0 .06-.02.12-.05.17M54.36 489.87c0 .06-.02.12-.06.17M167.06 68.46c-.02.05-.03.11-.02.17M167.55 360.98c-.1.08-.17.22-.17.34M54.18 349.73c.1-.08.17-.22.17-.34M54.27 202.36c.05-.07.08-.17.08-.25M54.46 202.14v.07c-.01.07-.04.13-.08.19M54.38 210.67s.06.1.07.16M54.29 360.92a.47.47 0 0 1 .16.22"/><path stroke="#040000" stroke-linecap="round" stroke-linejoin="round" stroke-width=".5" d="M95.55 184.13h-.09c-.03 0-.07 0-.11.01-.05 0-.1 0-.15.01-.12 0-.25.02-.38.03-.15 0-.29.02-.44.03-.16 0-.32.02-.47.03l-.49.03c-.34.02-.68.03-1.02.05s-.7.03-1.04.04l-1.05.03c-.7.02-1.41.02-2.11.02s-1.41 0-2.11-.02c-.35 0-.7-.02-1.05-.03s-.7-.02-1.04-.04-.68-.03-1.02-.05c-.16 0-.33-.02-.49-.03l-.47-.03c-.15 0-.29-.02-.44-.03-.13 0-.25-.02-.38-.03-.05 0-.1 0-.15-.01-.04 0-.09 0-.11-.01h-.09"/><path stroke="#040000" stroke-linecap="round" stroke-linejoin="round" d="M128.69 527.56h16.55M93.04 527.56c.36 0 .74-.15 1-.42s.41-.64.42-1M127.27 526.14c0 .36.16.73.42 1s.64.42 1 .42"/><path stroke="#040000" stroke-linecap="round" stroke-linejoin="round" stroke-width=".5" d="M178.73 76.67v419.62M157.47 43.81c1.25.08 2.49.27 3.71.56s2.41.69 3.56 1.18c2.3.99 4.43 2.37 6.27 4.08s3.37 3.74 4.53 5.96c.58 1.11 1.06 2.27 1.44 3.47s.65 2.42.82 3.66M43.93 62.71c.17-1.24.45-2.47.82-3.66s.86-2.35 1.44-3.47c1.15-2.22 2.69-4.25 4.53-5.96a22 22 0 0 1 9.83-5.26c1.22-.29 2.46-.48 3.71-.56M43 496.29V76.67M43 496.29l.02-.06M91.3 509.71c-.03 1.89-.42 3.79-1.14 5.55s-1.78 3.38-3.1 4.74-2.9 2.47-4.65 3.24-3.64 1.18-5.53 1.23M144.84 524.46c-1.89-.04-3.79-.46-5.53-1.23s-3.33-1.87-4.65-3.24a15.1 15.1 0 0 1-3.1-4.74c-.72-1.76-1.11-3.66-1.14-5.55M178.45 495.37c-.01-139.34-.02-278.68-.04-418.02M45.06 509.89a46 46 0 0 1-1.53-6.68c-.35-2.26-.53-4.55-.53-6.83M43 496.37v-.08M178.73 496.29v.08M178.73 496.37c0 2.29-.19 4.57-.53 6.83s-.85 4.5-1.53 6.68M167.28 167.79c0 .23.19.43.43.43h.03M167.7 215.89c-.23 0-.43.19-.43.43M69.1 182.69c0 .11.04.22.12.3M70.21 183.97c.08.08.19.12.3.12M152.5 182.99c.08-.08.12-.19.12-.3M151.22 184.09c.11 0 .22-.04.3-.12M121.16 214.17a.42.42 0 0 0-.39-.26M131.33 370.52c1.55 0 2.81-1.24 2.83-2.79M87.57 367.73a2.84 2.84 0 0 0 2.83 2.79M151.19 184c.11 0 .22-.04.3-.12M70.25 183.88c.08.08.19.12.3.12M69.2 182.65c0 .11.04.22.12.3M152.41 182.95c.08-.08.12-.19.12-.3"/><path stroke="#040000" stroke-linecap="round" stroke-linejoin="round" stroke-width=".5" d="M87.57 368.01a2.84 2.84 0 0 0 2.83 2.79M131.32 370.8c1.55 0 2.81-1.24 2.83-2.79"/><path stroke="#040000" stroke-linecap="round" stroke-linejoin="round" d="M40 496.37V76.61M86.56 40h48.61M86.56 40c-7.49 0-14.97.23-22.45.7M59.54 526.1c5.6.98 11.28 1.46 16.96 1.46M181.73 76.61c0-4.77-.31-9.54-.94-14.27M157.62 40.7c-7.47-.47-14.96-.7-22.45-.7M145.24 527.56c5.69 0 11.36-.49 16.96-1.46M40.94 62.34c-.62 4.73-.94 9.5-.94 14.27M42.2 510.87c-.73-2.34-1.27-4.74-1.64-7.17s-.56-4.88-.56-7.33M59.54 526.1c-1.88-.33-3.72-.9-5.45-1.69-1.85-.85-3.57-1.95-5.11-3.27a22.8 22.8 0 0 1-4.12-4.68 22 22 0 0 1-2.65-5.58M179.53 510.87c-.61 1.97-1.51 3.86-2.65 5.58a22.7 22.7 0 0 1-4.12 4.68 21.96 21.96 0 0 1-10.56 4.96M181.73 496.37c0 2.45-.19 4.9-.56 7.33s-.91 4.83-1.64 7.17M181.73 76.61v419.76M157.62 40.7c1.31.08 2.61.27 3.89.56 1.39.31 2.75.74 4.07 1.28 2.81 1.16 5.42 2.85 7.64 4.95a24.8 24.8 0 0 1 5.32 7.28c.6 1.25 1.09 2.55 1.48 3.88.35 1.21.62 2.44.78 3.69M40.94 62.34c.16-1.25.43-2.48.78-3.69.39-1.33.88-2.63 1.48-3.88 1.3-2.71 3.12-5.2 5.32-7.28s4.83-3.79 7.64-4.95c1.32-.54 2.68-.97 4.07-1.28 1.28-.29 2.58-.48 3.89-.56"/><path stroke="#040000" stroke-linecap="round" stroke-linejoin="round" stroke-width=".5" d="M77.56 264.08c0-.78.63-1.42 1.42-1.42s1.42.63 1.42 1.42-.63 1.42-1.42 1.42-1.42-.63-1.42-1.42M84.65 264.08c0-.78.63-1.42 1.42-1.42s1.42.63 1.42 1.42-.63 1.42-1.42 1.42-1.42-.63-1.42-1.42M77.56 230.06c0-.78.63-1.42 1.42-1.42s1.42.63 1.42 1.42-.63 1.42-1.42 1.42-1.42-.63-1.42-1.42M84.65 230.06c0-.78.63-1.42 1.42-1.42s1.42.63 1.42 1.42-.63 1.42-1.42 1.42-1.42-.63-1.42-1.42M91.73 264.08c0-.78.63-1.42 1.42-1.42s1.42.63 1.42 1.42-.63 1.42-1.42 1.42-1.42-.63-1.42-1.42M98.82 264.08c0-.78.63-1.42 1.42-1.42s1.42.63 1.42 1.42-.63 1.42-1.42 1.42-1.42-.63-1.42-1.42M105.91 264.08c0-.78.63-1.42 1.42-1.42s1.42.63 1.42 1.42-.63 1.42-1.42 1.42-1.42-.63-1.42-1.42M91.73 230.06c0-.78.63-1.42 1.42-1.42s1.42.63 1.42 1.42-.63 1.42-1.42 1.42-1.42-.63-1.42-1.42M98.82 230.06c0-.78.63-1.42 1.42-1.42s1.42.63 1.42 1.42-.63 1.42-1.42 1.42-1.42-.63-1.42-1.42M105.91 230.06c0-.78.63-1.42 1.42-1.42s1.42.63 1.42 1.42-.63 1.42-1.42 1.42-1.42-.63-1.42-1.42M120.08 264.08c0-.78.63-1.42 1.42-1.42s1.42.63 1.42 1.42-.63 1.42-1.42 1.42-1.42-.63-1.42-1.42M112.99 264.08c0-.78.63-1.42 1.42-1.42s1.42.63 1.42 1.42-.63 1.42-1.42 1.42-1.42-.63-1.42-1.42M120.08 230.06c0-.78.63-1.42 1.42-1.42s1.42.63 1.42 1.42-.63 1.42-1.42 1.42-1.42-.63-1.42-1.42M112.99 230.06c0-.78.63-1.42 1.42-1.42s1.42.63 1.42 1.42-.63 1.42-1.42 1.42-1.42-.63-1.42-1.42M134.25 264.08c0-.78.63-1.42 1.42-1.42s1.42.63 1.42 1.42-.63 1.42-1.42 1.42-1.42-.63-1.42-1.42M127.17 264.08c0-.78.63-1.42 1.42-1.42s1.42.63 1.42 1.42-.63 1.42-1.42 1.42-1.42-.63-1.42-1.42M134.25 230.06c0-.78.63-1.42 1.42-1.42s1.42.63 1.42 1.42-.63 1.42-1.42 1.42-1.42-.63-1.42-1.42M127.17 230.06c0-.78.63-1.42 1.42-1.42s1.42.63 1.42 1.42-.63 1.42-1.42 1.42-1.42-.63-1.42-1.42M141.34 264.08c0-.78.63-1.42 1.42-1.42s1.42.63 1.42 1.42-.63 1.42-1.42 1.42-1.42-.63-1.42-1.42M141.34 230.06c0-.78.63-1.42 1.42-1.42s1.42.63 1.42 1.42-.63 1.42-1.42 1.42-1.42-.63-1.42-1.42"/><path stroke="#000" stroke-width=".2" d="M169.69 355.35c0 3.44-2.79 6.24-6.24 6.24s-6.24-2.79-6.24-6.24 2.79-6.23 6.24-6.23 6.24 2.79 6.24 6.23ZM64.52 355.35c0 3.44-2.79 6.24-6.24 6.24s-6.24-2.79-6.24-6.24 2.79-6.23 6.24-6.23 6.24 2.79 6.24 6.23ZM66.08 494.25c0 3.44-2.79 6.24-6.24 6.24s-6.24-2.79-6.24-6.24 2.79-6.23 6.24-6.23 6.24 2.79 6.24 6.23ZM168.13 494.32c0 3.44-2.79 6.24-6.24 6.24s-6.24-2.79-6.24-6.24 2.79-6.23 6.24-6.23 6.24 2.79 6.24 6.23ZM168.13 206.53c0 3.44-2.79 6.24-6.24 6.24s-6.24-2.79-6.24-6.24 2.79-6.23 6.24-6.23 6.24 2.79 6.24 6.23ZM66.08 206.53c0 3.44-2.79 6.24-6.24 6.24s-6.24-2.79-6.24-6.24 2.79-6.23 6.24-6.23 6.24 2.79 6.24 6.23ZM166.71 66.14c0 3.44-2.79 6.24-6.24 6.24s-6.24-2.79-6.24-6.24 2.79-6.23 6.24-6.23 6.24 2.79 6.24 6.23ZM67.5 65.99c0 3.44-2.79 6.24-6.24 6.24s-6.24-2.79-6.24-6.24 2.79-6.23 6.24-6.23 6.24 2.79 6.24 6.23Z"/><path stroke="#fff" stroke-linecap="round" stroke-linejoin="round" stroke-width="4" d="M88 219.5c10.217 0 18.5-8.283 18.5-18.5s-8.283-18.5-18.5-18.5-18.5 8.283-18.5 18.5 8.283 18.5 18.5 18.5"/><path stroke="#a42444" stroke-dasharray="5 5" stroke-linecap="round" stroke-linejoin="round" stroke-width="2" d="M88 219.5c10.217 0 18.5-8.283 18.5-18.5s-8.283-18.5-18.5-18.5-18.5 8.283-18.5 18.5 8.283 18.5 18.5 18.5"/></svg>