<svg xmlns="http://www.w3.org/2000/svg" width="221" height="544" fill="none" viewBox="0 0 221 544"><path fill="#fff" d="M0 0h221v544H0z"/><path stroke="#231815" stroke-linecap="round" stroke-linejoin="round" stroke-width=".5" d="M124.88 122.376v64.63M65.64 469.056h90.71M64.38 468.756c.39.2.82.3 1.26.3M156.35 469.056c.44 0 .87-.1 1.26-.3M136.53 401.566h2.79M139.32 350.586h-2.79M82.67 401.566h2.79M85.46 350.586h-2.79M146.26 107.776h-13.79M89.99 107.776H75.02M82.67 154.946h2.79M85.46 140.826h-2.79M136.51 336.386v79.37M139.34 415.756v-79.37M82.65 336.386v79.37M85.48 415.756v-79.37M57.85 473.166h1.7M162.44 473.166h1.7M55.15 470.466h2.7M59.55 470.466h2.69M159.75 470.466h2.69M164.14 470.466h2.7M166.84 468.766h-2.7M162.44 468.766h-2.69M62.24 468.766h-2.69M57.85 468.766h-2.7M164.14 466.076h-1.7M59.55 466.076h-1.7M53.03 66.246v1.7M55.15 270.346v1.7M55.15 468.766v1.7M55.72 63.556v2.69M55.72 67.946v2.7M57.42 70.646v-2.7M57.42 66.246v-2.69M57.85 267.646v2.7M57.85 272.046v2.69M57.85 466.076v2.69M57.85 470.466v2.7M59.55 473.166v-2.7M59.55 468.766v-2.69M59.55 274.736v-2.69M59.55 270.346v-2.7M60.11 67.946v-1.7M62.24 470.466v-1.7M62.24 272.046v-1.7M57.85 274.736h1.7M162.44 274.736h1.7M55.15 272.046h2.7M59.55 272.046h2.69M159.75 272.046h2.69M164.14 272.046h2.7M166.84 270.346h-2.7M162.44 270.346h-2.69M62.24 270.346h-2.69M57.85 270.346h-2.7M164.14 267.646h-1.7M59.55 267.646h-1.7M159.75 270.346v1.7M159.75 468.766v1.7M161.88 66.246v1.7M162.44 267.646v2.7M162.44 272.046v2.69M162.44 466.076v2.69M162.44 470.466v2.7M164.14 473.166v-2.7M164.14 468.766v-2.69M164.14 274.736v-2.69M164.14 270.346v-2.7M164.57 63.556v2.69M164.57 67.946v2.7M166.27 70.646v-2.7M166.27 66.246v-2.69M166.84 470.466v-1.7M166.84 272.046v-1.7M168.96 67.946v-1.7M55.72 70.646h1.7M164.57 70.646h1.7M53.03 67.946h2.69M57.42 67.946h2.69M161.88 67.946h2.69M166.27 67.946h2.69M168.96 66.246h-2.69M164.57 66.246h-2.69M60.11 66.246h-2.69M55.72 66.246h-2.69M166.27 63.556h-1.7M57.42 63.556h-1.7M98.78 502.726l.19-.03"/><path stroke="#231815" stroke-linecap="round" stroke-linejoin="round" d="m98.97 502.696.23-.03.27-.03.32-.03.36-.02.39-.02.44-.02.48-.02.51-.01h.54l.57-.01.6.01M117.52 502.526l.2-.01h.62M118.34 502.516l.6-.01.57.01h.54l.51.01.47.02.43.02.4.02.35.02.31.03.28.03.23.03"/><path stroke="#231815" stroke-linecap="round" stroke-linejoin="round" stroke-width=".5" d="M103.65 492.436h1.36M116.98 492.436h1.36M122.77 492.016h-3.89M116.43 492.016h-10.87M103.11 492.016h-3.89M96.23 488.606h29.53M62.24 488.326h33.87M125.88 488.326h33.87M125.88 488.316H96.11"/><path stroke="#231815" stroke-linecap="round" stroke-linejoin="round" d="M103.68 502.516h.63l.16.01M104.47 502.526l4.22.05h4.65l4.18-.05"/><path stroke="#231815" stroke-linecap="round" stroke-linejoin="round" stroke-width=".5" d="m123.03 502.696.19.03.14.04h.01M49.48 108.486l2.8-2.8M78.01 79.966l19.66-19.67M53.73 446.946h3.41M164.85 446.946h3.4M156.35 425.686H65.64M115.25 423.656h-8.51M115.25 422.806h-8.51M82.65 415.756h2.83M136.51 415.756h2.83M170.79 386.136h-2.54M53.73 386.136H51.2M58.24 385.286h-1.1M163.75 385.286h1.1M57.14 382.166h-3.41M164.85 382.166h3.4M170.52 370.836H164M57.99 370.836h-6.52M49.48 60.296v48.19M106.74 352.026h8.51M106.74 351.176h8.51M61.39 336.386h90.71M51.2 386.136v-44.64M51.2 184.026v-44.64M53.73 273.986v67.51M53.73 472.556v7.27M53.73 466.686v-84.52M53.73 268.396v-88.34M53.73 139.386v-33.1M57.14 446.946v-64.78M57.14 341.496v-64.83M57.14 265.716v-85.66M57.14 139.386v-15.59M58.24 139.386v43.79M58.24 341.496v43.79M58.55 280.936v52.62M62.81 428.516v37.09M73.87 119.396l.66-37.98M66.34 274.216l-6.52 4.36M96.23 488.606l.09 1.77M82.67 169.146l-.02-42.52M85.46 401.566l.02 14.19M85.46 154.946l.02 14.2M85.46 154.946v-14.12M85.48 169.146v-42.52M85.48 126.626l-.02 14.2M91.43 119.396l-.66-37.98M96.32 490.376v11.04M97.43 133.716v25.51M97.43 414.346v-53.86M98.28 133.716v25.51M98.28 414.346v-53.86M98.59 504.526l.28-15.92M152.1 273.746H67.92M123.12 488.606l.28 15.92M123.71 360.486v53.86M123.71 159.226v-25.51M124.56 360.486v53.86M124.56 159.226v-25.51M125.66 501.416v-11.04M131.4 119.396v-37.98M125.66 490.376l.1-1.77M147.28 119.396v-37.98M154.93 333.556v-56.98M159.18 465.606v-37.09M161.73 187.006v-64.63M163.75 385.286v-43.79M163.75 183.176v-43.79M164.85 123.796v15.59M164.85 276.666v64.83M164.85 446.946v-64.78M164.85 265.716v-85.66M168.25 89.916v49.47M168.25 479.826v-7.27M168.25 466.686v-84.52M168.25 341.496v-67.51M168.25 268.396v-88.34M170.79 139.386v44.64M170.79 341.496v44.64M126.3 188.426h34.02M170.79 184.026h-2.54M53.73 184.026H51.2M58.24 183.176h-1.1M163.75 183.176h1.1M57.14 180.056h-3.41M164.85 180.056h3.4M82.65 169.146h2.83M170.03 168.726h-5.6M57.14 168.726h-4.75M106.74 168.536h8.51M106.74 167.686h8.51M58.24 139.386H51.2M163.75 139.386h7.04M85.48 126.626h-2.83M115.25 125.256h-8.51M115.25 124.406h-8.51M168.25 123.796h-3.4M57.14 123.796h-3.41M160.32 120.956H126.3M147.28 119.396H131.4M91.43 119.396H73.87M74.53 81.416h85.22M97.67 60.296H49.48M97.43 414.346c0 5.14 4.17 9.31 9.31 9.31M106.74 351.176c-5.14 0-9.31 4.17-9.31 9.31M53.73 479.826a8.5 8.5 0 0 0 8.5 8.5"/><path stroke="#231815" stroke-linecap="round" stroke-linejoin="round" stroke-width=".5" d="M98.28 414.346c0 4.67 3.79 8.46 8.46 8.46M106.74 352.026c-4.67 0-8.46 3.79-8.46 8.46M53.73 466.686a5.75 5.75 0 0 0 0 5.86M62.81 465.606a5.75 5.75 0 0 0-8.13-.09c-.37.36-.68.76-.94 1.21M53.73 472.526a5.746 5.746 0 0 0 7.86 2.06 5.76 5.76 0 0 0 2.78-5.82M64.37 468.756a5.8 5.8 0 0 0-1.56-3.14M58.55 333.556c0 1.57 1.27 2.83 2.83 2.83M65.64 425.686c-1.57 0-2.83 1.27-2.83 2.83M99.22 492.016c-.23 0-.42.19-.43.42M103.38 492.226a.28.28 0 0 0-.27-.21M105.56 492.016a.28.28 0 0 0-.27.21M103.38 492.226c.03.13.15.21.27.21M105.01 492.436c.13 0 .24-.09.27-.21M53.73 268.266a5.75 5.75 0 0 0 0 5.86M57.14 276.726c3.06.86 6.23-.92 7.09-3.97s-.92-6.23-3.97-7.09c-1.02-.29-2.1-.29-3.12 0M53.73 273.986a5.7 5.7 0 0 0 3.4 2.68M57.14 265.716a5.67 5.67 0 0 0-3.4 2.68M67.92 273.746c-.56 0-1.11.17-1.57.48M59.82 278.576c-.79.53-1.26 1.41-1.26 2.36M50.82 67.096a5.75 5.75 0 1 1 11.502.002 5.75 5.75 0 0 1-11.502-.002M78.01 79.966a.851.851 0 0 0 .6 1.45M53.73 106.286a.85.85 0 0 0-1.45-.6M106.74 124.406c-5.14 0-9.31 4.17-9.31 9.31M97.43 159.226c0 5.14 4.17 9.31 9.31 9.31"/><path stroke="#231815" stroke-linecap="round" stroke-linejoin="round" stroke-width=".5" d="M98.28 159.226c0 4.67 3.79 8.46 8.46 8.46M106.74 125.256c-4.67 0-8.46 3.79-8.46 8.46M115.25 423.656c5.14 0 9.31-4.17 9.31-9.31M124.56 360.486c0-5.14-4.17-9.31-9.31-9.31M159.75 488.326a8.5 8.5 0 0 0 8.5-8.5"/><path stroke="#231815" stroke-linecap="round" stroke-linejoin="round" stroke-width=".5" d="M123.71 360.486c0-4.67-3.79-8.46-8.46-8.46M115.25 422.806c4.67 0 8.46-3.79 8.46-8.46M168.25 472.556a5.75 5.75 0 0 0 0-5.86M157.61 468.756a5.75 5.75 0 0 0 4.82 6.55c2.33.35 4.64-.75 5.82-2.78M168.25 466.716a5.746 5.746 0 0 0-7.86-2.06c-.44.26-.85.58-1.21.94M159.18 465.616c-.84.86-1.38 1.96-1.56 3.14M152.1 336.386c1.57 0 2.83-1.27 2.83-2.83M159.18 428.516c0-1.57-1.27-2.83-2.83-2.83M123.19 492.426c0-.23-.19-.42-.43-.42M116.7 492.226a.28.28 0 0 0-.27-.21M118.88 492.016a.28.28 0 0 0-.27.21M116.7 492.226c.03.13.15.21.27.21M118.34 492.436c.13 0 .24-.09.27-.21M124.88 187.006c0 .78.63 1.42 1.42 1.42M124.56 133.716c0-5.14-4.17-9.31-9.31-9.31M115.25 168.536c5.14 0 9.31-4.17 9.31-9.31"/><path stroke="#231815" stroke-linecap="round" stroke-linejoin="round" stroke-width=".5" d="M123.71 133.716c0-4.67-3.79-8.46-8.46-8.46M115.25 167.686c4.67 0 8.46-3.79 8.46-8.46M126.3 120.956c-.78 0-1.42.63-1.42 1.42M168.25 274.126a5.75 5.75 0 0 0 0-5.86M164.85 265.666c-3.06-.86-6.23.92-7.09 3.97s.92 6.23 3.97 7.09c1.02.29 2.1.29 3.12 0M164.85 276.666a5.67 5.67 0 0 0 3.4-2.68M168.25 268.396a5.7 5.7 0 0 0-3.4-2.68M154.93 276.576c0-1.57-1.27-2.83-2.83-2.83M160.32 188.426c.78 0 1.42-.63 1.42-1.42M168.25 89.916a8.5 8.5 0 0 0-8.5-8.5M159.66 67.096c0-3.18 2.58-5.76 5.76-5.76s5.76 2.58 5.76 5.76-2.58 5.76-5.76 5.76-5.76-2.58-5.76-5.76M161.73 122.376c0-.78-.63-1.42-1.42-1.42"/><path stroke="#231815" stroke-linecap="round" stroke-linejoin="round" d="M40 259.856V76.706c0-.88.03-1.77.07-2.65s.1-1.77.18-2.65.19-1.76.32-2.64.28-1.75.48-2.61.44-1.71.73-2.55.64-1.65 1.03-2.45.81-1.57 1.28-2.33.98-1.48 1.53-2.17 1.14-1.36 1.76-1.99 1.27-1.23 1.94-1.81 1.37-1.13 2.08-1.66 1.43-1.04 2.18-1.52 1.5-.94 2.27-1.37 1.56-.84 2.36-1.22 1.61-.73 2.44-1.05 1.66-.62 2.49-.91 1.68-.55 2.53-.81 1.7-.49 2.55-.72 1.71-.44 2.58-.64 1.73-.38 2.6-.55 1.74-.33 2.61-.47 1.75-.27 2.63-.38 1.76-.2 2.64-.29 1.76-.15 2.64-.22 1.76-.13 2.65-.19 1.77-.12 2.65-.17 1.77-.11 2.65-.16c1.77-.1 3.53-.18 5.3-.25s3.54-.13 5.31-.17c3.54-.09 7.08-.12 10.62-.1 1.77.01 3.54.04 5.31.07s3.54.09 5.31.15 3.54.14 5.3.23 3.53.19 5.3.31 3.53.24 5.29.4 3.52.34 5.28.59c.88.12 1.75.27 2.62.42s1.74.33 2.6.52 1.73.39 2.59.6 1.71.44 2.57.68c1.7.48 3.39 1.02 5.05 1.64s3.29 1.32 4.86 2.14 3.08 1.75 4.53 2.77 2.83 2.14 4.12 3.35M98.15 504.946a334 334 0 0 1-8.94-.44q-2.235-.135-4.47-.3c-1.49-.11-2.98-.23-4.46-.38-.74-.08-1.48-.16-2.22-.26s-1.48-.21-2.21-.33a85 85 0 0 1-4.39-.84c-.73-.16-1.46-.33-2.18-.51s-1.44-.37-2.16-.58-1.43-.41-2.15-.64-1.42-.45-2.13-.69-1.41-.5-2.1-.77-1.38-.56-2.06-.87q-1.02-.465-2.01-.99c-.66-.35-1.31-.72-1.95-1.1a42 42 0 0 1-3.7-2.52q-.885-.675-1.74-1.41c-.57-.49-1.12-.99-1.65-1.52a26 26 0 0 1-1.52-1.64c-.48-.57-.94-1.16-1.36-1.78s-.82-1.25-1.19-1.9-.71-1.32-1.01-2-.58-1.38-.82-2.08-.44-1.43-.62-2.15-.32-1.46-.44-2.2q-.18-1.11-.3-2.22c-.16-1.48-.24-2.98-.29-4.47s-.06-2.99-.06-4.48v-206M173.81 53.926c.95.89 1.84 1.86 2.65 2.89s1.52 2.13 2.14 3.27c.31.57.6 1.16.87 1.75s.51 1.2.73 1.82.41 1.24.58 1.87.3 1.27.42 1.91.21 1.29.29 1.93a61 61 0 0 1 .47 5.84c.04 1.3.03 2.6.03 3.9v389.45c0 .65-.02 1.3-.04 1.95s-.06 1.3-.11 1.95-.1 1.3-.17 1.94-.14 1.29-.23 1.94-.19 1.29-.32 1.92-.28 1.27-.45 1.9-.38 1.24-.61 1.85q-.345.915-.75 1.8a24.51 24.51 0 0 1-4.37 6.41c-.45.47-.91.92-1.39 1.36s-.97.86-1.47 1.28c-1 .83-2.05 1.6-3.12 2.33a39 39 0 0 1-6.85 3.7c-1.2.5-2.42.94-3.66 1.35a84 84 0 0 1-3.73 1.14c-1.25.35-2.51.67-3.78.95s-2.54.54-3.82.77-2.56.42-3.85.58-2.58.28-3.87.39-2.59.2-3.88.29-2.59.17-3.89.25-2.59.15-3.89.21-2.59.12-3.89.16M98.15 504.946c.11 0 .23-.04.31-.12s.13-.19.13-.3M123.4 504.526c0 .11.05.22.13.3s.2.12.31.12"/><path stroke="#231815" stroke-linecap="round" stroke-linejoin="round" stroke-width=".5" d="m125.66 501.416.23-.01M125.89 501.406q1.89-.075 3.78-.18c1.26-.07 2.52-.14 3.78-.22s2.52-.17 3.78-.26 2.52-.19 3.77-.32c.63-.06 1.25-.13 1.88-.21s1.25-.17 1.87-.26a79 79 0 0 0 7.42-1.5c1.22-.31 2.44-.66 3.64-1.03.6-.19 1.2-.38 1.8-.58s1.19-.41 1.78-.63 1.18-.45 1.76-.7a38 38 0 0 0 3.39-1.68c.55-.3 1.09-.63 1.62-.97s1.06-.69 1.57-1.05 1.02-.74 1.51-1.13.98-.79 1.45-1.21.94-.84 1.38-1.29.87-.92 1.27-1.4.78-.99 1.14-1.51a21 21 0 0 0 1.84-3.3c.51-1.15.92-2.35 1.22-3.58s.47-2.48.61-3.73c.07-.63.13-1.25.19-1.88s.09-1.26.12-1.89q.045-.945.06-1.89c.01-.63 0-1.26 0-1.89V77.296c0-.63 0-1.26-.03-1.89s-.05-1.26-.09-1.89q-.06-.945-.15-1.89c-.06-.63-.13-1.25-.22-1.88s-.17-1.25-.29-1.87-.26-1.23-.44-1.84-.38-1.2-.6-1.79-.48-1.17-.76-1.73c-.56-1.13-1.23-2.21-1.98-3.22a21 21 0 0 0-2.53-2.81M171.45 56.436q-.885-.825-1.83-1.59c-.63-.51-1.27-1-1.93-1.47-1.32-.93-2.71-1.78-4.14-2.53q-1.08-.57-2.19-1.05t-2.25-.9c-.76-.28-1.53-.54-2.3-.79s-1.54-.49-2.32-.71a75 75 0 0 0-4.7-1.2 70 70 0 0 0-4.77-.89c-.8-.12-1.6-.24-2.4-.33s-1.61-.18-2.41-.25-1.61-.14-2.42-.2l-2.42-.18c-1.61-.11-3.23-.22-4.84-.31s-3.23-.17-4.85-.24c-3.23-.14-6.47-.23-9.71-.27a349 349 0 0 0-19.42.27M96.53 43.806c-1.32.05-2.64.12-3.97.19s-2.64.15-3.96.23-2.64.18-3.96.28-2.64.2-3.95.34-2.63.31-3.94.51-2.61.45-3.9.72-2.58.58-3.86.92-2.55.72-3.81 1.12-2.51.84-3.74 1.34-2.42 1.07-3.58 1.71-2.29 1.33-3.37 2.09c-.54.38-1.07.77-1.6 1.18s-1.03.83-1.53 1.26a23 23 0 0 0-2.78 2.82c-.42.51-.81 1.04-1.18 1.59s-.71 1.12-1.03 1.7-.6 1.18-.86 1.79a20.8 20.8 0 0 0-1.2 3.78c-.14.65-.24 1.3-.33 1.96s-.17 1.31-.24 1.97-.12 1.32-.17 1.98-.08 1.32-.1 1.98q-.03.99-.03 1.98v182.6M43.46 259.856v207.17c0 .73 0 1.45.01 2.18a53 53 0 0 0 .25 4.35c.07.72.15 1.45.25 2.17s.21 1.44.36 2.15q.225 1.065.57 2.1c.23.69.49 1.37.79 2.03s.63 1.31.99 1.94.76 1.24 1.19 1.83.89 1.15 1.37 1.69 1.01 1.05 1.54 1.54 1.09.96 1.66 1.42 1.14.9 1.74 1.32 1.2.83 1.81 1.21 1.24.75 1.88 1.1c1.28.7 2.6 1.32 3.95 1.85.68.27 1.36.52 2.05.75s1.38.46 2.07.68 1.39.42 2.09.62 1.4.38 2.11.56c1.41.35 2.83.66 4.26.94s2.86.5 4.31.69c.72.09 1.44.18 2.17.25s1.45.14 2.17.2c1.45.12 2.9.22 4.35.32a317 317 0 0 0 8.71.48M96.1 501.406l.22.01"/><path stroke="#231815" stroke-linecap="round" stroke-linejoin="round" d="m98.59 504.356.03-1.66M123.37 502.766l.03 1.76"/><path stroke="#231815" stroke-linecap="round" stroke-linejoin="round" stroke-width=".5" d="M163.75 341.496h7.04M58.24 341.496H51.2M78.08 193.97v12.76M90.84 206.73v-12.76M78.08 206.73h12.76M90.84 193.97H78.08M135.08 196.34l1.84-1.13M139.02 198.53l-.43.43M139.02 204.2l-.43.42M139.02 209.87l-.43.42M139.02 215.54l-.43.42M134.37 193.4v28.35M135.08 218.8v-22.46M136.92 221.04v-1.1M136.92 195.21v-1.1M138.59 198.96v3.4M138.59 204.62v3.41M138.59 210.29v3.41M138.59 215.96v3.4M139.5 218.74v-2.15M139.5 213.07v-2.15M139.5 207.4v-2.15M139.5 201.73v-2.15M139.76 221.75v-.71M139.76 194.11v-.71M143.7 219.79v-1.05M143.7 216.59v-1.05M143.7 214.12v-1.05M143.7 210.92v-1.05M143.7 208.45v-1.05M143.7 205.25v-1.05M143.7 202.78v-1.05M143.7 199.58v-1.05M144.01 193.4v.71M144.01 221.04v.71M145.99 195.24v24.66M146.7 221.75V193.4M138.59 219.36l.43.43M134.37 221.75h12.33M144.86 221.04h-.85M144.01 221.04h-7.09M139.02 219.79h4.68M143.7 218.74h-4.2M139.5 216.59h4.2M143.7 215.54h-4.68M139.02 214.12h4.68M143.7 213.07h-4.2M139.5 210.92h4.2M143.7 209.87h-4.68M139.02 208.45h4.68M143.7 207.4h-4.2M136.92 219.94l-1.84-1.14M138.59 213.7l.43.42M138.59 208.03l.43.42M138.59 202.36l.43.42M139.5 205.25h4.2M143.7 204.2h-4.68M139.02 202.78h4.68M143.7 201.73h-4.2M139.5 199.58h4.2M143.7 198.53h-4.68M136.92 194.11h7.09M144.01 194.11h.85M134.37 193.4h12.33M144.86 221.04c.63 0 1.13-.51 1.13-1.13M145.99 195.24c0-.63-.51-1.13-1.13-1.13M98.6 195.89l1.14-1.85M99.17 197.56l-.42.42M104.84 197.56l-.42.42M96.79 205.66v-12.33M97.5 203.82v-.85M97.5 202.97v-7.08M98.75 197.98v4.68M99.8 202.66v-4.2M101.95 198.46v4.2M103 202.66v-4.68M104.42 197.98v4.68M105.47 202.66v-4.2M107.62 198.46v4.2M108.67 202.66v-4.68M113.09 195.89v7.08M113.09 202.97v.85M113.8 205.66v-12.33M110.86 194.04l1.13 1.85M96.79 205.66h17.01M111.96 204.96H98.63M113.8 202.97h-.71M97.5 202.97h-.71M98.75 202.66h1.05M101.95 202.66H103M104.42 202.66h1.05M107.62 202.66h1.05M103 197.98l-.43-.42M108.67 197.98l-.43-.42M96.79 198.72h.71M113.09 198.72h.71M99.8 198.46h2.15M105.47 198.46h2.15M108.24 197.56h-3.4M102.57 197.56h-3.4M97.5 195.89h1.1M111.99 195.89h1.1M99.74 194.04h11.12M113.8 193.33H96.79M97.5 203.82c0 .63.51 1.13 1.13 1.13M111.96 204.96c.63 0 1.13-.51 1.13-1.13M70 206.59v-10.35M89 252.93v-39.54M147.11 256.34H92.4M153.35 196.24v53.86M85.6 209.99H73.4M76.24 190h70.87M76.24 190c-3.45 0-6.24 2.79-6.24 6.24M89 213.39c0-1.88-1.52-3.4-3.4-3.4M153.35 196.24c0-3.45-2.79-6.24-6.24-6.24M147.11 256.34c3.45 0 6.24-2.79 6.24-6.24M89 252.93c0 1.88 1.52 3.4 3.4 3.4M70 206.59c0 1.88 1.52 3.4 3.4 3.4M75.96 206.02v-1.42M75.96 196.1v-1.42M92.97 194.68v1.42M92.97 204.6v1.42M92.97 206.02h-2.13M78.08 206.02h-2.12M75.96 204.6h2.12M90.84 204.6h2.13M92.97 196.1h-2.13M78.08 196.1h-2.12M75.96 194.68h2.12M90.84 194.68h2.13"/><path fill="#9fa0a0" stroke="#231815" stroke-linecap="round" stroke-linejoin="round" stroke-width=".5" d="M81.93 200.32c0-1.4 1.13-2.53 2.53-2.53s2.53 1.13 2.53 2.53-1.13 2.53-2.53 2.53-2.53-1.13-2.53-2.53"/><path stroke="#fff" stroke-linecap="round" stroke-linejoin="round" stroke-width="4" d="M83 218.546c10.217 0 18.5-8.283 18.5-18.5s-8.283-18.5-18.5-18.5-18.5 8.283-18.5 18.5 8.283 18.5 18.5 18.5"/><path stroke="#a42444" stroke-dasharray="5 5" stroke-linecap="round" stroke-linejoin="round" stroke-width="2" d="M83 218.546c10.217 0 18.5-8.283 18.5-18.5s-8.283-18.5-18.5-18.5-18.5 8.283-18.5 18.5 8.283 18.5 18.5 18.5"/></svg>