<svg xmlns="http://www.w3.org/2000/svg" width="241" height="580" fill="none" viewBox="0 0 241 580"><path fill="#fff" d="M0 0h241v580H0z"/><path stroke="#231815" stroke-linecap="round" stroke-linejoin="round" stroke-width=".25" d="m120.72 544.57-2.5.39M168.56 545.24h-6.15M134.77 539.18h.56v-.01l-.01-.01v-.02h-.01v-.01M141.76 539.18h-.57.01v-.02l.01-.01v-.02h.01v-.06l.01-.02v-.06M126.69 538.52h6.84M135.28 538.52h5.97M143 538.52h6.83M135.28 537.15h5.97M142.09 534.71h-7.66M158.31 544.96l-5.81-.91M177.33 500.59h-3.19M180.52 497.4h-3.19M174.14 497.4h-3.19M170.95 494.21h3.19M177.33 494.21h3.19M174.14 491.02h3.19M60.93 70.08v-3.19M64.12 73.27v-3.19M64.12 66.89V63.7M67.31 63.7v3.19M67.31 70.08v3.19M70.5 66.89v3.19M133.48 538.22v-2.55M135.28 538.54v-1.39M141.25 537.15v1.39M143.05 538.22v-2.55M177.33 357.09h-3.19M180.52 353.9h-3.19M174.14 353.9h-3.19M170.95 497.4v-3.19M170.95 353.9v-3.19M170.95 70.08v-3.19M174.14 500.59v-3.19M174.14 494.21v-3.19M174.14 357.09v-3.19M174.14 350.71v-3.19M174.14 73.27v-3.19M174.14 66.89V63.7M177.33 63.7v3.19M177.33 70.08v3.19M177.33 347.52v3.19M177.33 353.9v3.19M177.33 491.02v3.19M177.33 497.4v3.19M180.52 66.89v3.19M180.52 350.71v3.19M180.52 494.21v3.19M170.95 350.71h3.19M177.33 350.71h3.19M174.14 347.52h3.19M177.33 73.27h-3.19M67.31 73.27h-3.19M180.52 70.08h-3.19M174.14 70.08h-3.19M70.5 70.08h-3.19M64.12 70.08h-3.19M60.93 66.89h3.19M67.31 66.89h3.19M170.95 66.89h3.19M177.33 66.89h3.19M64.12 63.7h3.19M174.14 63.7h3.19M133.48 538.22c0 .1.02.2.05.3M143 538.52c.03-.1.05-.2.05-.3M118.22 544.96l-.23.03-.25.04-.25.03-.26.03-.27.02-.28.03-.29.02h-.08l-.32.02-.32.02-.32.01-.32.01-.33.01-.34.01h-.24M162.41 545.24h-.25l-.33-.01-.33-.01-.32-.01-.33-.01-.31-.02-.32-.02h-.08l-.3-.02-.28-.03-.27-.02-.26-.03-.25-.03-.24-.04-.23-.03M133.48 535.67v-.08l.01-.04v-.04l.01-.02v-.04l.01-.04.02-.03.01-.04.01-.04.02-.04.02-.03.01-.04.03-.03.02-.03.01-.02.02-.03.03-.03.02-.03.03-.03.03-.03.03-.02.03-.03.03-.02.01-.01.04-.02.03-.02.04-.02.03-.02.04-.02.04-.01.03-.01.04-.01.04-.01.04-.01h.01l.04-.01h.04l.04-.01h.04M134.77 539.18h-.05l-.04-.01h-.04l-.05-.01h-.04l-.05-.01-.04-.01-.05-.02-.05-.01-.04-.02-.05-.02-.05-.02-.05-.02-.05-.03-.04-.02-.05-.03-.05-.03-.05-.04-.02-.01-.05-.04-.05-.03-.04-.04-.05-.04-.04-.03-.04-.04-.04-.04-.03-.05-.04-.04M143 538.52l-.04.04-.04.05-.03.04-.04.04-.05.03-.04.04-.04.04-.05.03-.05.04-.02.01-.05.04-.05.03-.05.03-.05.02-.05.03-.04.02-.05.02-.05.02-.05.02-.04.01-.05.02-.05.01-.04.01h-.05l-.04.01h-.04l-.05.01h-.04M142.09 534.71h.04l.04.01h.04l.04.01h.02l.04.01.04.01.03.01.04.01.04.01.04.02.03.02.04.02.03.02.03.02.02.01.03.02.03.03.03.02.03.03.03.03.02.03.03.03.02.03.01.02.02.03.02.03.02.04.02.03.01.04.02.04.01.04.01.03.01.04.01.04v.02l.01.04v.04l.01.04v.04M141.23 538.99v-.01l.01-.04v-.13l.01-.05v-.22M135.28 538.54v.29l.01.06v.07l.01.05v.04l.01.04v.04M124.03 544.05l-3.31.52M149.83 543.87h-23.14M72.89 68.48a7.18 7.18 0 0 0-7.18-7.18c-3.97 0-7.18 3.21-7.18 7.18s3.21 7.18 7.18 7.18 7.18-3.21 7.18-7.18M182.91 495.81a7.18 7.18 0 0 0-7.18-7.18c-3.97 0-7.18 3.21-7.18 7.18s3.21 7.18 7.18 7.18 7.18-3.21 7.18-7.18M182.91 352.3a7.18 7.18 0 0 0-7.18-7.18c-3.97 0-7.18 3.21-7.18 7.18s3.21 7.18 7.18 7.18 7.18-3.21 7.18-7.18M182.91 68.48a7.18 7.18 0 0 0-7.18-7.18c-3.97 0-7.18 3.21-7.18 7.18s3.21 7.18 7.18 7.18 7.18-3.21 7.18-7.18M126.69 543.87h-.15l-.22.01h-.21l-.22.01-.2.01-.21.01-.21.01h-.05l-.19.02-.18.01-.18.02-.17.02-.16.02-.16.02-.15.02M152.5 544.05l-.15-.02-.16-.02-.17-.02-.16-.02-.18-.02-.18-.01-.19-.02h-.06l-.2-.01-.21-.01-.21-.01-.21-.01h-.21l-.22-.01h-.16M72.89 35h95.67M41 513.35V66.89M41 66.89l.02-1.06.05-1.07.09-1.07.13-1.07.15-.99.19-1.06.24-1.05.22-.9.3-1.04.33-1.02.36-1 .4-.99.43-.98.46-.97.5-.95.52-.93.46-.75.58-.9.61-.88.65-.86.52-.65.69-.82.72-.79.74-.77.77-.74.8-.72.82-.69.65-.52.86-.64.88-.61.9-.59.74-.44.93-.53.95-.49.97-.46.98-.43.99-.39 1.01-.37 1.02-.32 1.03-.3.89-.22 1.05-.23 1.05-.2.97-.14 1.07-.13 1.07-.09 1.07-.05 1.06-.02M168.56 35l1.06.02 1.07.05 1.07.09 1.07.13.97.14 1.05.2 1.05.23.89.22 1.03.3 1.02.32 1.01.37.99.39.98.43.96.46.96.49.93.53.74.44.9.59.88.61.86.64.65.52.82.69.8.72.77.74.74.77.72.79.69.82.52.65.65.86.61.88.58.9.46.75.52.93.5.95.46.97.43.98.4.99.36 1 .33 1.02.3 1.04.22.9.23 1.05.2 1.06.15.99.13 1.07.09 1.07.05 1.07.02 1.06M200.45 66.89v446.46M200.45 513.35l-.02 1.06-.05 1.07-.09 1.07-.13 1.06-.15.99-.19 1.06-.2.91-.26 1.04-.3 1.03-.33 1.02-.36 1.01-.39.99-.43.98-.47.96-.49.95-.53.94-.45.74-.58.9-.62.88-.5.68-.66.84-.69.82-.72.79-.75.77-.77.74-.79.72-.82.69-.84.67-.68.49-.88.62-.9.58-.74.44-.93.53-.95.5-.97.46-.98.43-.99.39-1.01.36-1.02.33-1.03.29-1.04.26-.9.2-1.05.19-.97.15-1.07.12-1.07.09-1.07.06-1.06.02M184.75 171.66l-52.97 52.96M114.12 545.24H100.9M116.26 539.55l4.28-.63M98.93 540.21h7.08M81.73 539.02h-7.75M87.81 538.26h10.62M69.52 536.63H98.9M69.52 535.03h29.41M181.32 529.05h-7.94M149.83 529.05h-23.14M103.15 529.05H59.81M174.94 509.94h-12.53M163.02 509.94H66.51M155.98 538.92l4.29.63M100.9 545.24l-1.13-.21M82.56 537.82l.33.07 1.47.21 1.82.13 1.63.03M45.39 514.62V66.89M68.27 486.06h2.87M170.31 486.06h2.87M69.1 483.64h1.2M171.14 483.64h1.21M172.35 472.89h-1.21M70.3 472.89h-1.2M173.18 470.48h-2.87M71.14 470.48h-2.87M98.93 540.21l.02.22M98.43 538.56l.53 5.59M56.69 454.99v37.93l-.01 5.76.01 1.43M56.69 123.33l.01 226.1-.01 5.74v88.34M56.69 111.85V66.89M58.22 147.73v45.6M61.73 453.07v-7.65M61.73 121.42v-7.65M65.1 473.64v9.25M67.51 474.48v7.58M67.61 540.18v-3.24M67.99 228.57v112.07M69.15 544.65v-4.48M69.2 539.68v-2.74M71.89 482.06v-7.58M74.3 482.89v-9.25M88.2 193.33v-45.6M82.53 538.75l.06-2.12M163.13 352.54l9.17-9.17M161.5 454.2h-.86M137.35 454.2h.86M57.65 454.03h3.12M180.68 454.03h3.11M183.79 444.46h-3.11M60.77 444.46h-3.12M98.96 544.15l-.01-.08M98.43 538.56v-.07M98.43 538.49v-1.86M90.13 146.72v47.62M95.21 72.31v100.77M98.93 535.03v5.18M98.95 540.43v3.64M131.9 529.05l-3.06-12.63M128.32 513.27v-2.68M148.21 513.27v-2.68M157.72 173.08V72.31M144.66 529.03l3.02-12.61M83.07 353.69h77.28M69.44 343.69l11.14 9.11M167.15 473.64v9.25M169.56 474.48v7.58M173.46 340.58V228.57M173.93 482.06v-7.58M176.35 482.89v-9.25M179.72 113.77v7.65M179.72 445.42v7.65M184.76 66.89v44.96M184.76 123.33v320.18M184.76 454.99v45.12M196.06 66.89V514.3M169.52 224.63H71.93M125.23 216.61h-9.02M88.25 196.22H56.68M59.18 194.29h28.06M98.4 176.27h56.13M87.24 146.77H59.18M56.7 144.84h31.55M57.65 122.38h3.12M180.68 122.38h3.11M183.79 112.81h-3.11M60.77 112.81h-3.12M154.53 69.12H98.4M72.89 50.69h95.67M72.89 39.39h95.67M67.2 544.73c.65 0 1.3-.03 1.95-.07M72.83 539c.38.01.76.02 1.14.02M67.2 540.18q.975.03 1.95 0M45.39 514.62c0 7.97 6.46 14.43 14.43 14.43M59.56 507.06a9.83 9.83 0 0 0 6.95 2.88m-9.82-9.83c0 2.61 1.04 5.1 2.88 6.95M67.31 500.59h-3.19M70.5 497.4h-3.19M64.12 497.4h-3.19M60.93 494.21h3.19M67.31 494.21h3.19M64.12 491.02h3.19M60.93 497.4v-3.19M64.12 500.59v-3.19M64.12 494.21v-3.19M67.31 491.02v3.19M67.31 497.4v3.19M70.5 494.21v3.19M72.89 495.81a7.18 7.18 0 0 0-7.18-7.18c-3.97 0-7.18 3.21-7.18 7.18s3.21 7.18 7.18 7.18 7.18-3.21 7.18-7.18"/><path stroke="#231815" stroke-linecap="round" stroke-linejoin="round" stroke-width=".25" d="M73.69 495.81c0-4.4-3.57-7.97-7.97-7.97s-7.97 3.57-7.97 7.97 3.57 7.97 7.97 7.97 7.97-3.57 7.97-7.97M60.93 353.9v-3.19M64.12 357.09v-3.19M64.12 350.71v-3.19M67.31 347.52v3.19M67.31 353.9v3.19M70.5 350.71v3.19M67.31 357.09h-3.19M70.5 353.9h-3.19M64.12 353.9h-3.19M60.93 350.71h3.19M67.31 350.71h3.19M64.12 347.52h3.19M72.89 352.3a7.18 7.18 0 0 0-7.18-7.18c-3.97 0-7.18 3.21-7.18 7.18s3.21 7.18 7.18 7.18 7.18-3.21 7.18-7.18"/><path stroke="#231815" stroke-linecap="round" stroke-linejoin="round" stroke-width=".25" d="M73.69 352.3c0-4.4-3.57-7.97-7.97-7.97s-7.97 3.57-7.97 7.97 3.57 7.97 7.97 7.97 7.97-3.57 7.97-7.97M67.99 340.64c0 1.18.53 2.3 1.45 3.05M61.73 445.42a.96.96 0 0 0-.96-.96M60.77 454.03c.53 0 .96-.43.96-.96"/><path fill="#9fa0a0" stroke="#231815" stroke-linecap="round" stroke-linejoin="round" stroke-width=".25" d="M95.37 454.35c0-3.61-2.93-6.54-6.54-6.54s-6.54 2.93-6.54 6.54 2.93 6.54 6.54 6.54 6.54-2.93 6.54-6.54"/><path stroke="#231815" stroke-linecap="round" stroke-linejoin="round" stroke-width=".25" d="M93.94 454.35c0-2.82-2.28-5.1-5.1-5.1s-5.1 2.28-5.1 5.1 2.28 5.1 5.1 5.1 5.1-2.28 5.1-5.1M80.58 352.8c.7.58 1.59.89 2.5.89M117.64 529.06h1.22M60.93 210.39v-3.19M64.12 213.58v-3.19M64.12 207.2v-3.18M67.31 204.02v3.18M67.31 210.39v3.19M70.5 207.2v3.19M67.31 213.58h-3.19M70.5 210.39h-3.19M64.12 210.39h-3.19M60.93 207.2h3.19M67.31 207.2h3.19M64.12 204.02h3.19M72.89 208.8a7.18 7.18 0 0 0-7.18-7.18c-3.97 0-7.18 3.21-7.18 7.18s3.21 7.18 7.18 7.18 7.18-3.21 7.18-7.18"/><path stroke="#231815" stroke-linecap="round" stroke-linejoin="round" stroke-width=".25" d="M73.69 208.8c0-4.4-3.57-7.97-7.97-7.97s-7.97 3.57-7.97 7.97 3.57 7.97 7.97 7.97 7.97-3.57 7.97-7.97M71.93 224.63c-2.18 0-3.94 1.77-3.94 3.94M88.25 196.22c1.04 0 1.89-.84 1.89-1.89M87.24 194.29c.53 0 .96-.43.96-.96M58.22 193.33c0 .53.43.96.96.96M72.89 39.39c-15.19 0-27.5 12.31-27.5 27.5M72.89 50.69c-8.95 0-16.2 7.25-16.2 16.2"/><path stroke="#231815" stroke-linecap="round" stroke-linejoin="round" stroke-width=".25" d="M73.69 68.48c0-4.4-3.57-7.97-7.97-7.97s-7.97 3.57-7.97 7.97 3.57 7.97 7.97 7.97 7.97-3.57 7.97-7.97M90.13 146.72c0-1.04-.84-1.89-1.89-1.89M88.2 147.73a.96.96 0 0 0-.96-.96M59.18 146.77a.96.96 0 0 0-.96.96M61.73 113.77a.96.96 0 0 0-.96-.96M60.77 122.38c.53 0 .96-.43.96-.96M112.31 213.85a8.93 8.93 0 0 1 3.11-10.16m-.01 0a8.94 8.94 0 0 1 10.62 0 8.92 8.92 0 0 1 3.11 10.16M112.31 213.85a4.14 4.14 0 0 0 3.91 2.76M96.15 175.34c.6.6 1.41.93 2.25.93m-3.19-3.19c0 .85.34 1.66.93 2.25M98.4 69.12c-1.76 0-3.19 1.43-3.19 3.19M149.43 435.78c-9.9 0-18.06 7.77-18.54 17.66m37.08 0c-.48-9.89-8.64-17.66-18.55-17.66"/><path stroke="#231815" stroke-linecap="round" stroke-linejoin="round" stroke-width=".25" d="M149.43 441.38c-6.7 0-12.3 5.11-12.91 11.78m25.82.01c-.61-6.67-6.21-11.78-12.91-11.78"/><path stroke="#231815" stroke-linecap="round" stroke-linejoin="round" stroke-width=".25" d="M149.43 443.74a10.62 10.62 0 0 0-10.56 9.56m21.11.01c-.54-5.43-5.1-9.56-10.56-9.56M148.07 514.92c.1-.55.14-1.1.14-1.65M128.32 513.27c0 .55.05 1.11.14 1.65"/><path stroke="#231815" stroke-linecap="round" stroke-linejoin="round" stroke-width=".25" d="M158.12 454.35a8.7 8.7 0 0 0-8.7-8.7c-4.81 0-8.7 3.89-8.7 8.7s3.89 8.7 8.7 8.7 8.7-3.89 8.7-8.7"/><path stroke="#231815" stroke-linecap="round" stroke-linejoin="round" stroke-width=".25" d="M154.86 454.35c0-3-2.43-5.43-5.43-5.43s-5.43 2.43-5.43 5.43 2.43 5.43 5.43 5.43 5.43-2.43 5.43-5.43M128.32 510.59v-.15M170.52 540.14a26.86 26.86 0 0 0 23.26-17.55l.3-.91M168.56 540.19c.65.01 1.31 0 1.96-.05"/><path stroke="#231815" stroke-linecap="round" stroke-linejoin="round" stroke-width=".25" d="M191.74 524.73c2.77-2.77 4.32-6.52 4.32-10.43m-14.74 14.75c3.91 0 7.66-1.55 10.43-4.32M174.94 509.94c5.43 0 9.82-4.4 9.82-9.82M183.71 495.81c0-4.4-3.57-7.97-7.97-7.97s-7.97 3.57-7.97 7.97 3.57 7.97 7.97 7.97 7.97-3.57 7.97-7.97M148.21 510.44v.15M179.72 453.07c0 .53.43.96.96.96M180.68 444.46a.96.96 0 0 0-.96.96M157.67 529.06h1.22M183.71 352.3c0-4.4-3.57-7.97-7.97-7.97s-7.97 3.57-7.97 7.97 3.57 7.97 7.97 7.97 7.97-3.57 7.97-7.97M172.3 343.37c.74-.74 1.15-1.74 1.15-2.79M160.35 353.69c1.05 0 2.05-.42 2.79-1.15M196.06 66.89c0-15.19-12.31-27.5-27.5-27.5M184.76 66.89c0-8.95-7.25-16.2-16.2-16.2"/><path stroke="#231815" stroke-linecap="round" stroke-linejoin="round" stroke-width=".25" d="M183.71 68.48c0-4.4-3.57-7.97-7.97-7.97s-7.97 3.57-7.97 7.97 3.57 7.97 7.97 7.97 7.97-3.57 7.97-7.97M125.23 216.61c1.76 0 3.32-1.11 3.91-2.76M173.46 228.57c0-2.18-1.77-3.94-3.94-3.94M157.71 173.09a3.18 3.18 0 0 1-3.18 3.18M157.72 72.31c0-1.76-1.43-3.19-3.19-3.19M179.72 121.42c0 .53.43.96.96.96M180.68 112.81a.96.96 0 0 0-.96.96M57.31 122.44l.04-.01.03-.01.03-.01.04-.01.03-.01h.04l.03-.01h.1M184.13 112.75l-.03.01-.03.01-.04.01-.03.01-.03.01h-.04l-.03.01h-.11M184.13 444.4l-.03.02-.03.01h-.04l-.03.01-.03.01h-.04l-.03.01h-.11M57.31 454.09l.04-.01.03-.01.03-.01.04-.01h.03l.04-.01h.03l.04-.01h.06M57.65 444.46h-.1l-.03-.01h-.04l-.03-.01-.04-.01h-.03l-.03-.01-.04-.02M57.65 112.81h-.1l-.03-.01h-.04l-.03-.01-.04-.01-.03-.01-.03-.01-.04-.01M183.79 122.38h.11l.03.01h.04l.03.01.03.01.04.01.03.01.03.01M183.79 454.03h.07l.04.01h.03l.04.01h.03l.03.01.04.01.03.01.03.01M68.27 486.06l-.11-.01h-.11l-.1-.01-.11-.01-.07-.01-.1-.02-.11-.02-.1-.03-.11-.03-.1-.03-.1-.03-.1-.04-.09-.04-.1-.05-.09-.05-.1-.05-.09-.05-.09-.06-.06-.05-.09-.06-.08-.07-.08-.06-.08-.07-.07-.08-.08-.07-.07-.08-.07-.08-.06-.09-.07-.08-.04-.07-.06-.09-.05-.09-.05-.09-.05-.09-.05-.1-.04-.1-.04-.09-.03-.1-.04-.11-.02-.1-.03-.1-.02-.11-.02-.1-.01-.07-.01-.11-.01-.11-.01-.1v-.11M74.3 482.89v.11l-.01.1-.01.11-.01.11-.01.07-.02.1-.02.11-.02.1-.03.1-.03.11-.04.1-.04.09-.04.1-.05.1-.04.09-.06.09-.05.09-.06.09-.04.07-.07.08-.06.09-.07.08-.07.08-.07.07-.08.08-.08.07-.08.06-.08.07-.09.06-.06.05-.09.06-.09.05-.1.05-.09.05-.1.05-.09.04-.1.04-.1.03-.1.03-.1.03-.11.03-.1.02-.11.02-.07.01-.11.01-.1.01h-.11l-.1.01M71.14 470.48h.1l.11.01.1.01.11.01.07.01.11.02.1.02.11.02.1.03.1.03.1.04.1.04.09.04.1.05.09.04.1.06.09.05.09.06.06.04.09.06.08.07.08.07.08.07.08.07.07.08.07.08.07.08.06.08.07.09.04.06.06.09.05.09.06.09.04.1.05.09.04.1.04.1.04.1.03.1.03.1.02.11.02.1.02.11.01.07.01.11.01.1.01.11v.1M65.1 473.64v-.1l.01-.11.01-.1.01-.11.01-.07.02-.11.02-.1.03-.11.02-.1.04-.1.03-.1.04-.1.04-.1.05-.09.05-.1.05-.09.05-.09.06-.09.04-.06.07-.09.06-.08.07-.08.07-.08.08-.08.07-.07.08-.07.08-.07.08-.07.09-.06.06-.04.09-.06.09-.05.1-.06.09-.04.1-.05.09-.04.1-.04.1-.04.1-.03.11-.03.1-.02.11-.02.1-.02.07-.01.11-.01.1-.01.11-.01h.11M170.31 486.06l-.1-.01h-.11l-.11-.01-.1-.01-.07-.01-.11-.02-.1-.02-.11-.03-.1-.03-.1-.03-.1-.03-.1-.04-.1-.04-.09-.05-.1-.05-.09-.05-.09-.05-.09-.06-.06-.05-.09-.06-.08-.07-.08-.06-.08-.07-.08-.08-.07-.07-.07-.08-.07-.08-.07-.09-.06-.08-.04-.07-.06-.09-.06-.09-.05-.09-.05-.09-.04-.1-.04-.1-.04-.09-.04-.1-.03-.11-.03-.1-.02-.1-.02-.11-.02-.1-.01-.07-.02-.11v-.11l-.01-.1v-.11M176.35 482.89v.11l-.01.1-.01.11-.01.11-.01.07-.02.1-.02.11-.03.1-.03.1-.03.11-.03.1-.04.09-.04.1-.05.1-.05.09-.05.09-.05.09-.06.09-.05.07-.06.08-.06.09-.07.08-.07.08-.08.07-.07.08-.08.07-.08.06-.09.07-.08.06-.06.05-.09.06-.1.05-.09.05-.09.05-.1.05-.09.04-.1.04-.1.03-.1.03-.11.03-.1.03-.11.02-.1.02-.07.01-.11.01-.1.01h-.11l-.11.01M173.18 470.48h.11l.11.01.1.01.11.01.07.01.1.02.11.02.1.02.11.03.1.03.1.04.1.04.09.04.1.05.09.04.09.06.1.05.09.06.06.04.08.06.09.07.08.07.08.07.07.07.08.08.07.08.07.08.06.08.06.09.05.06.06.09.05.09.05.09.05.1.05.09.04.1.04.1.03.1.03.1.03.1.03.11.02.1.02.11.01.07.01.11.01.1.01.11v.1M167.15 473.64v-.1l.01-.11v-.1l.02-.11.01-.07.02-.11.02-.1.02-.11.03-.1.03-.1.04-.1.04-.1.04-.1.04-.09.05-.1.05-.09.06-.09.06-.09.04-.06.06-.09.07-.08.07-.08.07-.08.07-.08.08-.07.08-.07.08-.07.08-.07.09-.06.06-.04.09-.06.09-.05.09-.06.1-.04.09-.05.1-.04.1-.04.1-.04.1-.03.1-.03.11-.02.1-.02.11-.02.07-.01.1-.01.11-.01.11-.01h.1M57.31 444.4l-.03-.01-.04-.02-.03-.01-.04-.02-.03-.03-.02-.01-.03-.02-.04-.02-.03-.03-.03-.03-.03-.02-.03-.03-.02-.03-.03-.03-.02-.04-.02-.03-.02-.03-.02-.04-.02-.03-.02-.04-.01-.04-.01-.03-.02-.04v-.03l-.01-.04-.01-.04-.01-.03v-.12M57.31 112.75l-.03-.01-.04-.02-.03-.02-.04-.02-.03-.02-.02-.01-.03-.02-.04-.03-.03-.02-.03-.03-.03-.03-.03-.03-.02-.03-.03-.03-.02-.03-.02-.03-.02-.04-.02-.03-.02-.04-.02-.03-.01-.04-.01-.04-.02-.04v-.02l-.01-.04-.01-.04-.01-.04v-.12M132.74 453.89l-.09-.02-.19-.04-.19-.05-.09-.02-.19-.04-.18-.05-.19-.04-.18-.05-.19-.04-.18-.05-.19-.05M135.72 454.3h-.36l-.13-.01-.14-.01-.14-.01-.14-.01-.15-.02-.17-.02-.17-.03-.09-.01-.19-.03-.21-.04-.22-.04-.22-.04-.25-.05-.26-.06-.14-.03M136.51 453.17v.08l.01.04v.05l.01.04v.05l.01.04.01.04.01.04.02.04.01.04.01.01.01.03.02.04.02.04.02.03.02.04.03.03.02.03.01.01.03.03.03.03.02.03.03.03.03.02.03.02.04.02.03.02.03.02.02.01.04.02.03.01.03.01.04.01.03.01.04.01h.03l.04.01h.03M166.11 453.89l-.14.03-.26.06-.25.05-.22.04-.22.04-.21.04-.19.03-.09.01-.17.03-.16.02-.16.02-.14.01-.14.01-.14.01-.13.01h-.36M167.97 453.44l-.09.03-.19.04-.18.05-.1.02-.18.05-.19.04-.18.05-.19.04-.19.04-.18.05-.19.04M161.5 454.2h.03l.04-.01h.03l.04-.01.03-.01.04-.01.03-.01.04-.01.03-.02.02-.01.03-.02.04-.02.03-.02.03-.02.03-.02.03-.03.02-.03.03-.03.03-.03.01-.01.02-.03.03-.03.02-.04.02-.03.02-.04.02-.04.01-.03.01-.01.01-.04.02-.04.01-.04.01-.04.01-.04v-.05l.01-.04v-.05l.01-.04v-.08M184.13 122.44l.04.01.04.02.03.02.04.02.03.02.02.01.03.02.04.03.03.02.03.03.03.03.02.03.03.03.03.03.02.03.02.03.02.03.02.04.02.03.01.04.02.04.01.04.01.04.01.02.01.04.01.04v.04l.01.04v.07M147.68 516.42l.04-.11.04-.13.04-.12.04-.13.03-.12.03-.13.03-.13.03-.12.03-.13.03-.13.02-.12.03-.13M128.84 516.42l-.03-.11-.04-.13-.04-.12-.04-.13-.03-.12-.04-.13-.03-.13-.03-.12-.02-.13-.03-.13-.03-.12-.02-.13M160.64 454.2l-.03-.01h-.03l-.03-.01h-.03l-.02-.01-.03-.01-.03-.02-.03-.01-.01-.01-.03-.02-.02-.01-.03-.02-.02-.03-.03-.02-.02-.03-.03-.02-.02-.03v-.01l-.03-.03-.02-.04-.02-.03-.02-.04-.02-.04-.02-.04-.01-.04-.01-.03-.01-.03-.02-.05-.01-.04-.01-.05-.01-.04v-.04l-.01-.04v-.04M184.13 454.09l.04.02.04.01.03.02.04.02.03.02.02.01.03.03.04.02.03.03.03.02.03.03.02.03.03.03.03.03.02.03.02.03.02.04.02.03.02.04.01.03.02.04.01.04.01.04.01.02.01.04.01.04v.04l.01.04v.08M172.35 483.64h.11l.05-.01h.05l.06-.01.05-.01.03-.01.05-.01.05-.02.05-.02.05-.01.05-.02.05-.03.05-.02.05-.02.04-.03.05-.03.04-.03.05-.03.02-.02.04-.03.04-.04.04-.03.04-.04.04-.04.04-.04.03-.04.03-.04.02-.02.03-.05.03-.04.03-.05.03-.05.02-.04.03-.05.02-.05.02-.05.02-.05.01-.05.02-.05.01-.05.01-.03.01-.06.01-.05v-.05l.01-.05v-.11M173.93 474.48v-.11l-.01-.05v-.06l-.01-.05-.01-.05-.01-.03-.01-.05-.02-.05-.01-.06-.02-.05-.02-.05-.02-.04-.03-.05-.02-.05-.03-.05-.03-.04-.03-.05-.03-.04-.02-.02-.03-.05-.03-.04-.04-.04-.04-.04-.04-.03-.04-.04-.04-.03-.04-.04-.02-.01-.05-.04-.04-.03-.05-.02-.04-.03-.05-.03-.05-.02-.05-.02-.05-.02-.05-.02-.05-.02-.05-.01-.05-.01-.03-.01-.05-.01-.06-.01-.05-.01h-.05l-.06-.01h-.05M171.14 472.89h-.05l-.05.01h-.05l-.06.01-.05.01-.05.01-.03.01-.05.01-.06.01-.05.02-.05.02-.05.02-.04.02-.05.02-.05.03-.05.03-.04.02-.05.03-.04.04-.02.01-.05.04-.04.03-.04.04-.04.03-.03.04-.04.04-.03.04-.04.05-.02.02-.03.04-.03.05-.02.04-.03.05-.03.05-.02.05-.02.04-.02.05-.02.05-.02.06-.01.05-.01.05-.01.03-.01.05-.01.05-.01.06v.05l-.01.05v.06M138.87 453.31v.01l-.01.05v.05l-.01.05-.01.04-.01.05-.01.04-.02.04-.01.03-.01.04-.02.04-.02.04-.02.04-.02.03-.02.04-.02.03-.01.01-.02.03-.03.02-.02.03-.03.02-.02.03-.03.02-.02.01-.03.02-.02.01-.02.02-.03.01-.03.01-.03.01-.02.01h-.03l-.03.01h-.03M169.56 482.06v.05l.01.06v.05l.01.05.01.05.01.06.01.03.01.05.01.05.02.05.02.05.02.05.02.05.02.05.03.04.03.05.02.05.03.04.03.05.02.02.04.04.03.04.04.04.03.04.04.04.04.03.04.04.05.03.02.02.04.03.05.03.04.03.05.03.05.02.05.02.04.03.05.02.05.01.05.02.06.02.05.01.03.01.05.01.05.01h.06l.05.01h.1M70.3 483.64h.11l.05-.01h.06l.05-.01.05-.01.03-.01.05-.01.05-.02.06-.02.05-.01.04-.02.05-.03.05-.02.05-.02.05-.03.04-.03.05-.03.04-.03.02-.02.05-.03.04-.04.04-.03.04-.04.03-.04.04-.04.03-.04.04-.04.01-.02.04-.05.03-.04.02-.05.03-.05.03-.04.02-.05.02-.05.02-.05.02-.05.01-.05.02-.05.01-.05.01-.03.01-.06.01-.05.01-.05v-.05l.01-.06v-.05M67.51 482.06l.01.05v.11l.01.05.01.05.01.06.01.03.01.05.02.05.01.05.02.05.02.05.02.05.03.05.02.04.03.05.03.05.03.04.03.05.01.02.04.04.03.04.04.04.04.04.03.04.04.03.05.04.04.03.02.02.05.03.04.03.05.03.04.03.05.02.05.02.05.03.05.02.05.01.05.02.05.02.05.01.03.01.05.01.06.01h.05l.05.01h.11M71.89 474.48v-.06l-.01-.05v-.05l-.01-.06-.01-.05-.01-.05-.01-.03-.01-.05-.02-.05-.01-.06-.02-.05-.02-.05-.02-.04-.03-.05-.02-.05-.03-.05-.02-.04-.03-.05-.04-.04-.01-.02-.04-.05-.03-.04-.04-.04-.03-.04-.04-.03-.04-.04-.04-.03-.05-.04-.02-.01-.04-.04-.05-.03-.04-.02-.05-.03-.05-.03-.05-.02-.05-.02-.04-.02-.05-.02-.06-.02-.05-.01-.05-.01-.03-.01-.05-.01-.05-.01-.06-.01h-.05l-.05-.01h-.06M69.1 472.89h-.06l-.05.01h-.05l-.05.01-.06.01-.05.01-.03.01-.05.01-.05.01-.05.02-.05.02-.05.02-.05.02-.05.02-.05.03-.04.03-.05.02-.04.03-.05.04-.02.01-.04.04-.05.03-.04.04-.03.03-.04.04-.04.04-.03.04-.04.05-.01.02-.03.04-.03.05-.03.04-.03.05-.02.05-.03.05-.02.04-.02.05-.02.05-.01.06-.02.05-.01.05-.01.03-.01.05-.01.05-.01.06v.1l-.01.06M128.32 510.44l-.01-.02-.01-.03-.01-.02v-.01l-.02-.02-.01-.03-.02-.02-.01-.03-.02-.02-.03-.03-.02-.02-.03-.02M148.21 510.44l.01-.02.01-.03.01-.02v-.01l.01-.02.02-.03.01-.02.02-.03.02-.02.03-.03.02-.02.02-.02M148.39 510.17l.05-.04.04-.03.05-.04.04-.03.05-.03.05-.03.08-.03M128.13 510.17l-.03-.03-.04-.03-.04-.03-.04-.03-.05-.03-.05-.03-.02-.01-.07-.04M56.69 454.99v-.12l.01-.04.01-.04.01-.04v-.02l.02-.04.01-.04.01-.04.02-.03.02-.04.02-.03.02-.04.02-.03.02-.03.03-.03.02-.03.03-.03.03-.03.03-.02.03-.03.04-.02.03-.03.02-.01.03-.02.04-.02.03-.02.04-.01.03-.02M56.69 123.33v-.11l.01-.04.01-.04.01-.04v-.02l.02-.04.01-.04.01-.04.02-.04.02-.03.02-.04.02-.03.02-.03.02-.03.03-.03.02-.03.03-.03.03-.03.03-.03.03-.02.04-.03.03-.02.02-.01.03-.02.04-.02.03-.02.04-.02.03-.01M184.76 111.85v.08l-.01.04v.04l-.01.04-.01.04-.01.02-.01.04-.01.04-.02.04-.01.03-.02.04-.02.04-.02.03-.02.03-.03.03-.02.03-.03.03-.02.03-.03.03-.03.03-.03.02-.04.03-.03.02-.02.01-.03.02-.04.02-.03.02-.04.02-.04.01M184.76 443.51v.08l-.01.04v.03l-.01.04-.01.04-.01.03-.01.04-.01.03-.02.04-.01.04-.02.03-.02.04-.02.03-.02.03-.03.04-.02.03-.03.03-.02.03-.03.02-.03.03-.03.03-.04.02-.03.02-.02.01-.03.03-.04.02-.03.01-.04.02-.04.01M77.86 79.81v12.43M80.27 80.64v10.77M84.64 91.41V80.64M87.06 92.24V79.81M81.02 95.41h2.87M81.85 92.99h1.21M83.06 79.05h-1.21M83.89 76.64h-2.87M87.06 92.24l-.01.11v.1l-.01.11-.01.11-.01.07-.02.1-.02.11-.03.1-.03.1-.03.11-.03.1-.04.09-.04.1-.05.1-.05.09-.05.09-.05.09-.06.09-.05.07-.06.08-.07.09-.06.08-.07.08-.08.07-.07.08-.08.07-.08.07-.09.06-.08.06-.07.05-.09.06-.09.05-.09.05-.09.05-.1.05-.1.04-.09.04-.1.03-.11.03-.1.03-.1.03-.11.02-.1.02-.07.01-.11.01-.11.01H84l-.11.01M83.89 76.64H84l.1.01.11.01.11.01.07.01.1.02.11.02.1.03.1.02.11.04.1.03.09.04.1.04.1.05.09.04.09.06.09.05.09.06.07.04.08.07.09.06.08.07.08.07.07.07.08.08.07.08.06.08.07.08.06.09.05.06.06.09.05.09.05.1.05.09.05.1.04.09.04.1.03.1.03.1.03.11.03.1.02.11.02.1.01.07.01.11.01.1v.11l.01.11M77.86 79.81v-.22l.01-.1.02-.11.01-.07.01-.1.03-.11.02-.1.03-.11.03-.1.04-.1.04-.1.04-.09.04-.1.05-.09.05-.1.06-.09.06-.09.04-.06.06-.09.07-.08.07-.08.07-.08.07-.08.08-.07.08-.07.08-.07.08-.06.09-.07.06-.04.09-.06.09-.05.09-.06.1-.04.09-.05.1-.04.1-.04.1-.03.1-.04.1-.02.11-.03.1-.02.11-.02.07-.01.1-.01.11-.01.11-.01h.1M81.02 95.41l-.1-.01h-.11l-.11-.01-.1-.01-.07-.01-.11-.02-.1-.02-.11-.03-.1-.03-.1-.03-.1-.03-.1-.04-.1-.04-.09-.05-.1-.05-.09-.05-.09-.05-.09-.06-.06-.05-.09-.06-.08-.06-.08-.07-.08-.07-.08-.08-.07-.07-.07-.08-.07-.08-.07-.09-.06-.08-.04-.07-.06-.09-.06-.09-.05-.09-.05-.09-.04-.1-.04-.1-.04-.09-.04-.1-.03-.11-.03-.1-.02-.1-.03-.11-.01-.1-.01-.07-.02-.11-.01-.11v-.21M80.27 91.41v.05l.01.06v.05l.01.05.01.06.01.05v.03l.02.05.01.05.02.05.02.05.02.05.02.05.02.05.03.05.02.04.03.05.03.04.03.05.02.02.03.04.04.04.04.04.03.04.04.04.04.03.04.04.04.03.03.02.04.03.05.03.04.03.05.03.05.02.04.02.05.03.05.02.05.01.05.02.05.02.06.01.03.01.05.01.05.01h.05l.06.01h.1M83.06 92.99h.11l.05-.01h.05l.05-.01.06-.01.03-.01.05-.01.05-.02.05-.02.05-.01.05-.02.05-.03.05-.02.04-.02.05-.03.05-.03.04-.03.05-.03.02-.02.04-.03.04-.04.04-.03.04-.04.04-.04.03-.04.04-.04.03-.04.02-.02.03-.05.03-.04.03-.05.03-.05.02-.04.02-.05.03-.05.02-.05.01-.05.02-.05.02-.05.01-.05.01-.03.01-.05.01-.06v-.05l.01-.05v-.11M84.64 80.64v-.11l-.01-.05v-.05l-.01-.06-.01-.05-.01-.03-.01-.05-.02-.05-.02-.05-.01-.05-.02-.05-.03-.05-.02-.05-.02-.05-.03-.04-.03-.05-.03-.05-.03-.04-.02-.02-.03-.04-.04-.05-.03-.04-.04-.03-.04-.04-.04-.04-.04-.03-.04-.04-.02-.01-.05-.03-.04-.03-.05-.03-.05-.03-.04-.02-.05-.03-.05-.02-.05-.02-.05-.02-.05-.01-.05-.02-.05-.01-.03-.01-.06-.01-.05-.01-.05-.01h-.11l-.05-.01M81.85 79.05l-.05.01h-.11l-.05.01-.05.01-.05.01-.03.01-.06.01-.05.02-.05.01-.05.02-.05.02-.05.02-.04.03-.05.02-.05.03-.04.03-.05.03-.04.03-.03.01-.04.04-.04.03-.04.04-.04.04-.04.03-.03.04-.04.05-.03.04-.02.02-.03.04-.03.05-.03.05-.02.04-.03.05-.02.05-.02.05-.02.05-.02.05-.02.05-.01.05-.02.05v.03l-.01.05-.01.06-.01.05v.05l-.01.05v.06M160.77 79.81v12.43M163.19 80.64v10.77M167.56 91.41V80.64M169.97 92.24V79.81M163.94 95.41h2.87M164.77 92.99h1.21M165.98 79.05h-1.21M166.81 76.64h-2.87M169.97 92.24v.21l-.01.11-.02.11-.01.07-.01.1-.03.11-.02.1-.03.1-.03.11-.04.1-.04.09-.04.1-.04.1-.05.09-.05.09-.06.09-.06.09-.04.07-.06.08-.07.09-.07.08-.07.08-.07.07-.08.08-.08.07-.08.07-.08.06-.09.06-.06.05-.09.06-.09.05-.09.05-.1.05-.09.05-.1.04-.1.04-.1.03-.1.03-.1.03-.11.03-.1.02-.11.02-.07.01-.1.01-.11.01h-.11l-.1.01M166.81 76.64h.1l.11.01.11.01.1.01.07.01.11.02.1.02.11.03.1.02.1.04.1.03.1.04.1.04.09.05.1.04.09.06.09.05.09.06.06.04.09.07.08.06.08.07.08.07.08.07.07.08.07.08.07.08.07.08.06.09.04.06.06.09.06.09.05.1.05.09.04.1.04.09.04.1.04.1.03.1.03.11.02.1.03.11.01.1.01.07.02.11.01.1v.22M160.77 79.81l.01-.11v-.11l.01-.1.01-.11.01-.07.02-.1.02-.11.03-.1.03-.11.03-.1.03-.1.04-.1.04-.09.05-.1.05-.09.05-.1.05-.09.06-.09.05-.06.06-.09.07-.08.06-.08.07-.08.08-.08.07-.07.08-.07.08-.07.09-.06.08-.07.07-.04.09-.06.09-.05.09-.06.09-.04.1-.05.1-.04.09-.04.1-.03.11-.04.1-.02.1-.03.11-.02.1-.02.07-.01.11-.01.11-.01.1-.01h.11M163.94 95.41l-.11-.01h-.1l-.11-.01-.11-.01-.07-.01-.1-.02-.11-.02-.1-.03-.1-.03-.11-.03-.1-.03-.09-.04-.1-.04-.1-.05-.09-.05-.09-.05-.09-.05-.09-.06-.07-.05-.08-.06-.09-.06-.08-.07-.08-.07-.07-.08-.08-.07-.07-.08-.06-.08-.07-.09-.06-.08-.05-.07-.06-.09-.05-.09-.05-.09-.05-.09-.05-.1-.04-.1-.04-.09-.03-.1-.03-.11-.03-.1-.03-.1-.02-.11-.02-.1-.01-.07-.01-.11-.01-.11v-.1l-.01-.11M163.19 91.41v.11l.01.05v.05l.01.06.01.05.01.03.01.05.02.05.02.05.01.05.02.05.03.05.02.05.02.05.03.04.03.05.03.04.03.05.02.02.03.04.04.04.03.04.04.04.04.04.04.03.04.04.04.03.02.02.05.03.04.03.05.03.05.03.04.02.05.02.05.03.05.02.05.01.05.02.05.02.05.01.03.01.06.01.05.01h.05l.05.01h.11M165.98 92.99h.1l.06-.01h.05l.05-.01.05-.01.03-.01.06-.01.05-.02.05-.02.05-.01.05-.02.05-.03.04-.02.05-.02.05-.03.04-.03.05-.03.04-.03.03-.02.04-.03.04-.04.04-.03.04-.04.04-.04.03-.04.04-.04.03-.04.02-.02.03-.05.03-.04.03-.05.02-.05.03-.04.02-.05.02-.05.02-.05.02-.05.02-.05.01-.05.02-.05v-.03l.01-.05.01-.06.01-.05v-.05l.01-.06v-.05M167.56 80.64v-.06l-.01-.05v-.05l-.01-.05-.01-.06-.01-.05v-.03l-.02-.05-.01-.05-.02-.05-.02-.05-.02-.05-.02-.05-.02-.05-.03-.05-.02-.04-.03-.05-.03-.05-.03-.04-.02-.02-.03-.04-.04-.05-.03-.04-.04-.03-.04-.04-.04-.04-.04-.03-.04-.04-.03-.01-.04-.03-.05-.03-.04-.03-.05-.03-.05-.02-.04-.03-.05-.02-.05-.02-.05-.02-.05-.01-.05-.02-.06-.01-.03-.01-.05-.01-.05-.01-.05-.01h-.11l-.05-.01M164.77 79.05l-.05.01h-.11l-.05.01-.05.01-.06.01-.03.01-.05.01-.05.02-.05.01-.05.02-.05.02-.05.02-.05.03-.04.02-.05.03-.05.03-.04.03-.05.03-.02.01-.04.04-.04.03-.04.04-.04.04-.04.03-.03.04-.04.05-.03.04-.02.02-.03.04-.03.05-.03.05-.03.04-.02.05-.02.05-.03.05-.02.05-.01.05-.02.05-.02.05-.01.05-.01.03-.01.05-.01.06v.05l-.01.05v.11M106.97 403.44l-3.09 2.68M134.48 379.52l3.08-2.68M141.56 384.3l-5.17 1.79M99.89 398.66l5.17-1.79M124.98 369.58l-.07.37M123.98 374.74l-.09.47M116.47 413.38l.07-.37M117.47 408.22l.09-.47M105.06 386.09l-5.17-1.79M136.39 396.87l5.17 1.79M137.56 406.12l-3.08-2.68M103.88 376.84l3.09 2.68M123.89 407.75l.09.47M124.91 413.01l.07.37M117.56 375.21l-.09-.47M116.54 369.95l-.07-.37M99.04 384.3c-.11.08-.19.19-.23.32M98.81 398.33c.04.13.12.24.23.32M117.08 407c.33.08.55.41.48.74M103.67 406.57c0 .17.05.34.17.47m.04-.92a.63.63 0 0 0-.22.45M116.19 413.8c.14-.09.24-.24.28-.41m-.77.49c.17.04.34 0 .49-.09M105.46 396.09c.1.33-.08.68-.4.79M105.06 386.09c.32.11.5.46.4.79M103.67 376.4c0 .17.09.33.22.45m-.06-.92c-.12.13-.18.3-.17.47M117.56 375.21c.07.34-.15.66-.48.74M142.64 398.33c.45-1.45.76-2.94.92-4.45M143.56 389.08c-.16-1.51-.47-3-.92-4.45M125.75 413.88c.98-.22 1.95-.5 2.89-.85M136.44 408.22c.41-.38.8-.78 1.18-1.19M103.83 407.03c.38.41.77.81 1.18 1.19M112.81 413.03c.94.35 1.91.63 2.89.85M98.81 384.63c-.45 1.45-.76 2.94-.92 4.45M97.89 393.88c.16 1.51.47 3 .92 4.45M115.7 369.08c-.98.22-1.95.5-2.89.85M105.01 374.74c-.41.38-.8.78-1.18 1.19M137.62 375.93c-.38-.41-.77-.81-1.18-1.19M128.64 369.93c-.94-.35-1.91-.63-2.89-.85M135.99 396.09c.22-.73.39-1.47.5-2.22M136.49 389.09c-.11-.75-.28-1.49-.5-2.22M124.37 407c2.55-.6 4.9-1.81 6.87-3.53M110.21 403.47c1.97 1.72 4.32 2.94 6.87 3.53"/><path stroke="#231815" stroke-linecap="round" stroke-linejoin="round" stroke-width=".25" d="M105.46 386.87c-.22.73-.39 1.47-.5 2.22M104.96 393.87c.11.75.28 1.49.5 2.22M117.08 375.96c-2.55.6-4.9 1.81-6.87 3.53M131.24 379.49a15.9 15.9 0 0 0-6.87-3.53M127.06 398.65a9.6 9.6 0 0 0 2.93-4.77M129.99 389.08a9.57 9.57 0 0 0-2.95-4.79M114.41 384.29a9.57 9.57 0 0 0-2.95 4.79M111.46 393.88a9.57 9.57 0 0 0 2.95 4.79M116.19 369.16a.65.65 0 0 0-.49-.09m.77.51a.6.6 0 0 0-.28-.41M136.39 386.09a.64.64 0 0 0-.4.79M135.99 396.09c-.1.33.08.68.4.79M142.41 398.66c.11-.08.19-.19.23-.32M142.64 384.63a.62.62 0 0 0-.23-.32M124.37 407c-.33.08-.55.41-.48.74M125.26 413.8c.14.09.32.13.49.09m-.77-.51c.03.17.13.32.28.41M137.56 406.12c.13.11.21.27.22.45 0 .17-.05.34-.17.47M123.89 375.21c-.07.34.15.66.48.74M137.62 375.93c.12.13.18.3.17.47m-.01 0c0 .17-.09.33-.22.45M125.26 369.16c-.14.09-.24.24-.28.41m.77-.49c-.17-.04-.34 0-.49.09M125.95 417.79H115.5M107.37 413.01h26.71M140.85 408.22H100.6M100.6 403.44h40.25M144.98 398.66H96.47M96.47 393.87h48.51M144.98 389.09H96.47M96.47 384.3h48.51M140.85 379.52H100.6M100.6 374.74h40.25M134.08 369.95h-26.71M115.5 365.17h10.45M100.6 408.22a2.39 2.39 0 0 1 0-4.78M100.6 379.52a2.39 2.39 0 0 1 0-4.78M94.08 386.7a2.39 2.39 0 0 0 2.39 2.39m0-4.79a2.39 2.39 0 0 0-2.39 2.39M96.47 398.65a2.39 2.39 0 1 1 0-4.78M112.65 417.35c.92.29 1.88.43 2.85.43M106.88 414.79a.964.964 0 0 1-.43-1.08c.11-.41.49-.7.92-.7M106.45 369.25c.11.42.49.7.92.7m-.49-1.77a.95.95 0 0 0-.43 1.08"/><path stroke="#231815" stroke-linecap="round" stroke-linejoin="round" stroke-width=".25" d="M139.02 353.69c17.61 8.53 27 28.1 22.63 47.17m-.01 0c-4.37 19.08-21.35 32.6-40.92 32.6s-36.55-13.52-40.92-32.6 5.01-38.64 22.63-47.17M134.57 368.18a27 27 0 0 0-5.76-2.57"/><path stroke="#231815" stroke-linecap="round" stroke-linejoin="round" stroke-width=".25" d="M112.65 365.61c-2.01.63-3.95 1.49-5.76 2.57M106.88 414.78c1.81 1.08 3.75 1.94 5.76 2.57M128.8 417.35c2.01-.63 3.95-1.49 5.76-2.57M115.5 365.17c-.97 0-1.93.15-2.85.43M128.8 365.61c-.92-.29-1.88-.43-2.85-.43M125.95 417.79c.97 0 1.93-.15 2.85-.43M140.85 374.74a2.39 2.39 0 1 1 0 4.78M144.98 384.3a2.39 2.39 0 0 1 2.39 2.39m0 .01a2.39 2.39 0 0 1-2.39 2.39M144.98 393.87a2.39 2.39 0 1 1 0 4.78M140.85 403.44a2.39 2.39 0 1 1 0 4.78M134.57 368.18c.37.22.55.66.43 1.08m0-.01c-.11.42-.49.7-.92.7M134.08 413.01c.43 0 .81.29.92.7.11.42-.06.86-.43 1.08M163.13 454.3h-.15l-.16-.01-.16-.01h-.02l-.16-.01-.17-.01-.16-.01-.16-.01-.16-.01-.17-.02-.16-.01M135.72 454.3h.15l.16-.01.16-.01h.02l.16-.01.17-.01.16-.01.16-.01.17-.01.16-.02.16-.01M82.53 538.75v.06l-.01.02v.01l-.01.02v.01l-.01.02-.01.01-.02.01-.01.01-.01.01-.02.01h-.01M82.42 538.94l-.02.01h-.02l-.01.01h-.02l-.02.01h-.03l-.02.01h-.04M82.24 538.98h-.01l-.05.01-.05.01h-.09l-.05.01h-.11l-.05.01h-.1M67.2 544.73l-.99-.2-1-.23-.99-.26-.45-.14-.97-.3-.97-.34-.95-.37-.39-.16-.94-.42-.92-.44-.9-.47-.89-.5-.87-.52-.86-.56-.84-.58-.82-.61-.31-.25-.79-.64-.77-.67-.29-.27-.74-.7-.72-.73-.69-.75-.67-.77-.64-.79-.62-.81-.59-.83-.23-.33-.56-.86-.52-.88-.5-.89-.2-.38-.46-.92-.43-.92-.4-.94-.36-.95-.34-.96-.3-.98-.28-.98-.24-.99-.21-1-.09-.48-.16-1.01-.08-.54-.11-1.01-.08-1.02-.05-1.02-.02-1.01M69.65 539.32l-.05.53-.05.53-.05.54-.05.53-.05.53-.05.54-.05.53-.05.54-.05.53-.05.53M72.83 539l-.13-.01-.29-.01h-.28l-.26-.01h-.25l-.14.01h-.43l-.17.01-.15.01-.14.01-.07.01-.12.01-.1.01-.1.02h-.04l-.08.02-.06.01-.06.02-.06.01-.02.01-.05.02-.04.01v.01l-.03.01-.02.01-.02.02-.02.01-.01.02-.02.01-.01.02-.01.02v.03M99.77 545.03l-.04-.01-.04-.01-.04-.01-.03-.01-.04-.02-.04-.01-.03-.02-.04-.02-.03-.02-.04-.02-.03-.03-.03-.02-.04-.03-.01-.01-.03-.03-.03-.03-.03-.03-.02-.03-.03-.04-.03-.04-.02-.03-.02-.04-.02-.03-.02-.04-.02-.04-.01-.04-.01-.04-.02-.03-.01-.04v-.04l-.01-.04v-.03M173.38 529.05h-10.14l-1.45.01h-2.9M157.67 529.06h-1.02l-.78-.01h-6.04M126.69 529.05h-6.26l-.78.01h-.79M69.2 539.68l-.01.05v.05l-.01.05v.05l-.01.05v.05l-.01.05v.05l-.01.04v.05M117.64 529.06h-3.37l-.98-.01h-10.14M168.56 540.19h-.06l-.75-.02-.75-.03-.73-.03-.72-.04-.71-.04-.69-.05-.36-.03-.64-.06-.62-.06-.59-.06-.58-.07-.55-.07-.54-.08M116.26 539.55l-.61.09-.62.08-.65.07-.66.07-.7.06-.72.06-.76.05-.07.01-.81.05-.82.04-.82.03-.84.02-.84.02-.86.01h-.47M69.2 536.94v-.04l.01-.02v-.03l.01-.02.01-.02.01-.02.01-.02.01-.02.02-.02.01-.01.02-.02.02-.01.02-.01.02-.02.02-.01h.02l.02-.01.02-.01h.07M67.61 536.94v-.19l.01-.06.01-.06.01-.05.01-.07.02-.06.02-.06.02-.06.02-.06.02-.06.03-.06.03-.06.02-.05.04-.06.03-.06.04-.05.03-.05.03-.04.04-.05.05-.05.04-.05.04-.05.05-.04.05-.04.05-.04.05-.04.05-.04.04-.03.06-.04.05-.03.06-.03.06-.03.06-.03.06-.02.06-.02.06-.02.06-.02.06-.02.06-.01.07-.02h.02l.06-.01.07-.01h.06l.07-.01h.06M120.54 538.92l.37-.05.37-.05.39-.05.4-.04.41-.04.44-.03.45-.03.05-.01.48-.02.49-.03.5-.02.5-.01.51-.01.51-.01h.28M149.83 538.52h.29l.51.01.51.01.5.01.5.02.49.03.48.02.04.01.46.03.43.03.42.04.4.04.39.05.37.05.36.05"/><path stroke="#231815" stroke-linecap="round" stroke-linejoin="round" stroke-width=".25" d="m45.97 518.63.67 2.64a27.45 27.45 0 0 0 20.57 18.91M169.73 224.64h15.04M126.69 538.52v5.35M149.83 538.52v5.35M128.84 516.42h18.84M126.69 529.05v9.47M149.83 529.05v9.47M81.98 234.31l-.31.32M88.36 234.31l-.32.32M94.74 234.31l-.32.32M101.12 234.31l-.32.32M107.5 234.31l-.32.32M113.87 234.31l-.32.32M120.25 234.31l-.32.32M126.63 234.31l-.32.32M133.01 234.31l-.32.32M139.39 234.31l-.32.32M145.76 234.31l-.32.32M152.14 234.31l-.32.32M158.52 234.31l-.32.32M82.94 344.01l.32-.32M89.32 344.01l.32-.32M95.7 344.01l.32-.32M102.07 344.01l.32-.32M108.45 344.01l.32-.32M114.83 344.01l.32-.32M121.21 344.01l.32-.32M78.48 249.94v22.8M78.48 328.39v-22.8M79.27 328.39v6.37M79.27 305.59v-11.95M79.27 249.94v-6.38M80.87 272.74v11.94M81.03 239.25v-6.37M81.67 334.76v8.93M81.67 243.56v-8.93M83.26 334.76v8.93M83.26 243.56v-8.93M83.9 232.88v6.37M84.06 305.59v-11.95M85.65 272.74v11.94M85.65 305.59v-11.95M87.25 272.74v11.94M87.41 239.25v-6.37M88.04 334.76v8.93M88.04 243.56v-8.93M127.59 344.01l.32-.32M133.96 344.01l.32-.32M140.34 344.01l.32-.32M146.72 344.01l.32-.32M153.1 344.01l.32-.32M159.48 344.01l.32-.32M89.64 334.76v8.93M89.64 243.56v-8.93M90.28 232.88v6.37M90.43 305.59v-11.95M92.03 272.74v11.94M92.03 305.59v-11.95M93.62 272.74v11.94M94.42 334.76v8.93M94.42 243.56v-8.93M96.02 334.76v8.93M96.02 243.56v-8.93M96.81 305.59v-11.95M98.41 272.74v11.94M98.41 305.59v-11.95M100 272.74v11.94M100.8 334.76v8.93M100.8 243.56v-8.93M102.39 334.76v8.93M102.39 243.56v-8.93M103.19 305.59v-11.95M104.79 272.74v11.94M104.79 305.59v-11.95M106.38 272.74v11.94M107.18 334.76v8.93M107.18 243.56v-8.93M108.77 334.76v8.93M108.77 243.56v-8.93M109.57 305.59v-11.95M111.16 272.74v11.94M111.16 305.59v-11.95M112.76 272.74v11.94M113.55 334.76v8.93M113.55 243.56v-8.93M115.15 334.76v8.93M115.15 243.56v-8.93M115.95 305.59v-11.95M117.54 272.74v11.94M117.54 305.59v-11.95M119.14 272.74v11.94M119.93 334.76v8.93M119.93 243.56v-8.93M121.53 334.76v8.93M121.53 243.56v-8.93M122.32 305.59v-11.95M123.92 272.74v11.94M123.92 305.59v-11.95M125.51 272.74v11.94M126.31 334.76v8.93M126.31 243.56v-8.93M127.91 334.76v8.93M127.91 243.56v-8.93M128.7 305.59v-11.95M130.3 272.74v11.94M130.3 305.59v-11.95M131.89 272.74v11.94M132.69 334.76v8.93M132.69 243.56v-8.93M134.28 334.76v8.93M134.28 243.56v-8.93M135.08 305.59v-11.95M136.68 272.74v11.94M136.68 305.59v-11.95M138.27 272.74v11.94M139.07 334.76v8.93M139.07 243.56v-8.93M140.66 334.76v8.93M140.66 243.56v-8.93M141.46 305.59v-11.95M143.05 272.74v11.94M143.05 305.59v-11.95M144.65 272.74v11.94M145.44 334.76v8.93M145.44 243.56v-8.93M147.04 334.76v8.93M147.04 243.56v-8.93M147.84 305.59v-11.95M149.43 272.74v11.94M149.43 305.59v-11.95M151.03 272.74v11.94M151.19 345.45v-6.38M151.82 334.76v8.93M151.82 243.56v-8.93M153.42 334.76v8.93M153.42 243.56v-8.93M154.06 339.07v6.38M154.21 305.59v-11.95M155.81 272.74v11.94M155.81 305.59v-11.95M157.4 272.74v11.94M157.56 345.45v-6.38M158.2 334.76v8.93M158.2 243.56v-8.93M159.8 334.76v8.93M159.8 243.56v-8.93M160.43 339.07v6.38M160.59 305.59v-11.95M162.19 272.74v11.94M162.19 328.39v6.37M162.19 249.94v-6.38M162.98 249.94v22.8M162.98 328.39v-22.8M81.98 344.01l-.31-.32M88.36 344.01l-.32-.32M94.74 344.01l-.32-.32M101.12 344.01l-.32-.32M107.5 344.01l-.32-.32M160.43 345.45h-2.87M154.06 345.45h-2.87M159.48 344.01h-.96M153.1 344.01h-.96M146.72 344.01h-.96M140.34 344.01h-.95M133.96 344.01h-.95M127.59 344.01h-.96M121.21 344.01h-.96M114.83 344.01h-.96M108.45 344.01h-.95M102.07 344.01h-.95M95.7 344.01h-.96M89.32 344.01h-.96M82.94 344.01h-.96M159.8 343.69h-1.6M153.42 343.69h-1.6M147.04 343.69h-1.6M140.66 343.69h-1.59M134.28 343.69h-1.59M127.91 343.69h-1.6M121.53 343.69h-1.6M115.15 343.69h-1.6M108.77 343.69h-1.59M102.39 343.69h-1.59M96.02 343.69h-1.6M89.64 343.69h-1.6M83.26 343.69h-1.59M81.67 340.5h1.59M88.04 340.5h1.6M94.42 340.5h1.6M100.8 340.5h1.59M107.18 340.5h1.59M113.55 340.5h1.6M119.93 340.5h1.6M126.31 340.5h1.6M132.69 340.5h1.59M139.07 340.5h1.59M145.44 340.5h1.6M151.82 340.5h1.6M158.2 340.5h1.6M151.19 339.07h.63M153.42 339.07h.64M157.56 339.07h.64M159.8 339.07h.63M81.67 337.09h1.59M88.04 337.09h1.6M94.42 337.09h1.6M100.8 337.09h1.59M107.18 337.09h1.59M113.55 337.09h1.6M119.93 337.09h1.6M126.31 337.09h1.6M132.69 337.09h1.59M139.07 337.09h1.59M145.44 337.09h1.6M151.82 337.09h1.6M158.2 337.09h1.6M162.19 334.76H79.27M78.48 328.39h84.5M113.87 344.01l-.32-.32M120.25 344.01l-.32-.32M126.63 344.01l-.32-.32M133.01 344.01l-.32-.32M139.39 344.01l-.32-.32M145.76 344.01l-.32-.32M152.14 344.01l-.32-.32M158.52 344.01l-.32-.32M78.48 305.59h84.5M79.27 297.5h4.79M85.65 297.5h4.78M92.03 297.5h4.78M98.41 297.5h4.78M104.79 297.5h4.78M111.16 297.5h4.79M117.54 297.5h4.78M123.92 297.5h4.78M130.3 297.5h4.78M136.68 297.5h4.78M143.05 297.5h4.79M149.43 297.5h4.78M155.81 297.5h4.78M162.19 280.82h-4.79M155.81 280.82h-4.78M149.43 280.82h-4.78M143.05 280.82h-4.78M136.68 280.82h-4.79M130.3 280.82h-4.79M123.92 280.82h-4.78M117.54 280.82h-4.78M111.16 280.82h-4.78M104.79 280.82H100M98.41 280.82h-4.79M92.03 280.82h-4.78M85.65 280.82h-4.78M82.94 234.31l.32.32M89.32 234.31l.32.32M95.7 234.31l.32.32M102.07 234.31l.32.32M108.45 234.31l.32.32M162.98 272.74h-84.5M162.98 249.94h-84.5M79.27 243.56h82.92M159.8 241.23h-1.6M153.42 241.23h-1.6M147.04 241.23h-1.6M140.66 241.23h-1.59M134.28 241.23h-1.59M127.91 241.23h-1.6M121.53 241.23h-1.6M115.15 241.23h-1.6M108.77 241.23h-1.59M102.39 241.23h-1.59M96.02 241.23h-1.6M89.64 241.23h-1.6M83.26 241.23h-1.59M90.28 239.25h-.64M88.04 239.25h-.63M83.9 239.25h-.64M81.67 239.25h-.64M159.8 237.82h-1.6M153.42 237.82h-1.6M147.04 237.82h-1.6M140.66 237.82h-1.59M134.28 237.82h-1.59M127.91 237.82h-1.6M121.53 237.82h-1.6M115.15 237.82h-1.6M108.77 237.82h-1.59M102.39 237.82h-1.59M96.02 237.82h-1.6M89.64 237.82h-1.6M83.26 237.82h-1.59M114.83 234.31l.32.32M121.21 234.31l.32.32M127.59 234.31l.32.32M133.96 234.31l.32.32M140.34 234.31l.32.32M146.72 234.31l.32.32M153.1 234.31l.32.32M159.48 234.31l.32.32M81.67 234.63h1.59M88.04 234.63h1.6M94.42 234.63h1.6M100.8 234.63h1.59M107.18 234.63h1.59M113.55 234.63h1.6M119.93 234.63h1.6M126.31 234.63h1.6M132.69 234.63h1.59M139.07 234.63h1.59M145.44 234.63h1.6M151.82 234.63h1.6M158.2 234.63h1.6M81.98 234.31h.96M88.36 234.31h.96M94.74 234.31h.96M101.12 234.31h.95M107.5 234.31h.95M113.87 234.31h.96M120.25 234.31h.96M126.63 234.31h.96M133.01 234.31h.95M139.39 234.31h.95M145.76 234.31h.96M152.14 234.31h.96M158.52 234.31h.96M81.03 232.88h2.87M87.41 232.88h2.87M160.59 293.64v-.15l-.01-.08-.01-.08-.01-.08-.02-.08-.01-.06-.02-.08-.02-.07-.02-.08-.03-.08-.03-.07-.03-.07-.04-.08-.03-.07-.04-.07-.04-.07-.03-.04-.05-.07-.05-.06-.05-.07-.05-.06-.05-.06-.06-.06-.06-.05-.05-.05-.07-.06-.06-.05-.06-.04-.07-.05-.05-.03-.07-.04-.07-.04-.07-.04-.07-.03-.08-.03-.07-.03-.08-.03-.07-.02-.08-.03-.08-.02-.05-.01-.08-.01-.08-.01-.08-.01-.08-.01h-.08l-.08-.01M154.21 293.64v-.15l-.01-.08-.01-.08-.01-.08-.01-.08-.02-.06-.02-.08-.02-.07-.02-.08-.03-.08-.03-.07-.03-.07-.03-.08-.04-.07-.04-.07-.04-.07-.03-.04-.05-.07-.05-.06-.04-.07-.06-.06-.05-.06-.06-.06-.05-.05-.06-.05-.06-.06-.07-.05-.06-.04-.07-.05-.05-.03-.07-.04-.07-.04-.07-.04-.07-.03-.07-.03-.08-.03-.07-.03-.08-.02-.08-.03-.08-.02-.05-.01-.08-.01-.08-.01-.08-.01-.08-.01h-.08l-.08-.01M147.84 293.64v-.08l-.01-.07-.01-.08-.01-.08-.01-.08-.01-.08-.01-.06-.02-.08-.03-.07-.02-.08-.03-.08-.03-.07-.03-.07-.03-.08-.04-.07-.04-.07-.04-.07-.03-.04-.05-.07-.04-.06-.05-.07-.05-.06-.06-.06-.05-.06-.06-.05-.06-.05-.06-.06-.06-.05-.07-.04-.07-.05-.04-.03-.07-.04-.07-.04-.07-.04-.08-.03-.07-.03-.08-.03-.07-.03-.08-.02-.08-.03-.07-.02-.06-.01-.08-.01-.08-.01-.08-.01-.08-.01h-.08l-.08-.01M141.46 293.64v-.08l-.01-.07v-.08l-.01-.08-.02-.08-.01-.08-.01-.06-.02-.08-.02-.07-.03-.08-.02-.08-.03-.07-.04-.07-.03-.08-.04-.07-.04-.07-.04-.07-.03-.04-.04-.07-.05-.06-.05-.07-.05-.06-.06-.06-.05-.06-.06-.05-.06-.05-.06-.06-.06-.05-.07-.04-.06-.05-.05-.03-.07-.04-.07-.04-.07-.04-.08-.03-.07-.03-.07-.03-.08-.03-.08-.02-.07-.03-.08-.02-.06-.01-.08-.01-.07-.01-.08-.01-.08-.01h-.08l-.08-.01M135.08 293.64v-.15l-.01-.08-.01-.08-.01-.08-.02-.08-.01-.06-.02-.08-.02-.07-.03-.08-.02-.08-.03-.07-.03-.07-.04-.08-.03-.07-.04-.07-.05-.07-.03-.04-.04-.07-.05-.06-.05-.07-.05-.06-.05-.06-.06-.06-.06-.05-.06-.05-.06-.06-.06-.05-.07-.04-.06-.05-.05-.03-.07-.04-.07-.04-.07-.04-.07-.03-.08-.03-.07-.03-.08-.03-.07-.02-.08-.03-.08-.02-.05-.01-.08-.01-.08-.01-.08-.01-.08-.01h-.08l-.08-.01M128.7 293.64v-.15l-.01-.08-.01-.08-.01-.08-.02-.08-.01-.06-.02-.08-.02-.07-.02-.08-.03-.08-.03-.07-.03-.07-.04-.08-.03-.07-.04-.07-.04-.07-.03-.04-.05-.07-.05-.06-.05-.07-.05-.06-.05-.06-.06-.06-.06-.05-.05-.05-.07-.06-.06-.05-.06-.04-.07-.05-.05-.03-.07-.04-.07-.04-.07-.04-.07-.03-.08-.03-.07-.03-.08-.03-.07-.02-.08-.03-.08-.02-.05-.01-.08-.01-.08-.01-.08-.01-.08-.01h-.08l-.08-.01M122.32 293.64v-.15l-.01-.08-.01-.08-.01-.08-.01-.08-.02-.06-.02-.08-.02-.07-.02-.08-.03-.08-.03-.07-.03-.07-.03-.08-.04-.07-.04-.07-.04-.07-.03-.04-.05-.07-.05-.06-.04-.07-.06-.06-.05-.06-.06-.06-.05-.05-.06-.05-.06-.06-.07-.05-.06-.04-.07-.05-.05-.03-.06-.04-.08-.04-.07-.04-.07-.03-.07-.03-.08-.03-.07-.03-.08-.02-.08-.03-.08-.02-.05-.01-.08-.01-.08-.01-.08-.01-.08-.01h-.08l-.08-.01M115.95 293.64v-.08l-.01-.07-.01-.08v-.08l-.02-.08-.01-.08-.01-.06-.02-.08-.03-.07-.02-.08-.03-.08-.03-.07-.03-.07-.03-.08-.04-.07-.04-.07-.04-.07-.03-.04-.05-.07-.04-.06-.05-.07-.05-.06-.06-.06-.05-.06-.06-.05-.06-.05-.06-.06-.06-.05-.07-.04-.07-.05-.04-.03-.07-.04-.07-.04-.07-.04-.08-.03-.07-.03-.08-.03-.07-.03-.08-.02-.08-.03-.07-.02-.06-.01-.08-.01-.08-.01-.08-.01-.08-.01h-.08l-.08-.01M109.57 293.64v-.08l-.01-.07v-.08l-.01-.08-.02-.08-.01-.08-.01-.06-.02-.08-.02-.07-.03-.08-.02-.08-.03-.07-.04-.07-.03-.08-.04-.07-.04-.07-.04-.07-.03-.04-.04-.07-.05-.06-.05-.07-.05-.06-.06-.06-.05-.06-.06-.05-.06-.05-.06-.06-.06-.05-.07-.04-.06-.05-.05-.03-.07-.04-.07-.04-.07-.04-.08-.03-.07-.03-.07-.03-.08-.03-.08-.02-.07-.03-.08-.02-.06-.01-.08-.01-.07-.01-.08-.01-.08-.01h-.08l-.08-.01M103.19 293.64v-.15l-.01-.08-.01-.08-.01-.08-.02-.08-.01-.06-.02-.08-.02-.07-.03-.08-.02-.08-.03-.07-.03-.07-.04-.08-.03-.07-.04-.07-.05-.07-.03-.04-.04-.07-.05-.06-.05-.07-.05-.06-.05-.06-.06-.06-.06-.05-.06-.05-.06-.06-.06-.05-.07-.04-.06-.05-.05-.03-.07-.04-.07-.04-.07-.04-.07-.03-.08-.03-.07-.03-.08-.03-.07-.02-.08-.03-.08-.02-.05-.01-.08-.01-.08-.01-.08-.01-.08-.01h-.08l-.08-.01M96.81 293.64v-.15l-.01-.08-.01-.08-.01-.08-.02-.08-.01-.06-.02-.08-.02-.07-.02-.08-.03-.08-.03-.07-.03-.07-.04-.08-.03-.07-.04-.07-.04-.07-.03-.04-.05-.07-.05-.06-.05-.07-.05-.06-.05-.06-.06-.06-.05-.05-.06-.05-.07-.06-.06-.05-.06-.04-.07-.05-.05-.03-.07-.04-.07-.04-.07-.04-.07-.03-.07-.03-.08-.03-.08-.03-.07-.02-.08-.03-.08-.02-.05-.01-.08-.01-.08-.01-.08-.01-.08-.01h-.08l-.08-.01M90.43 293.64v-.15l-.01-.08-.01-.08-.01-.08-.01-.08-.02-.06-.02-.08-.02-.07-.02-.08-.03-.08-.03-.07-.03-.07-.03-.08-.04-.07-.04-.07-.04-.07-.03-.04-.05-.07-.04-.06-.05-.07-.06-.06-.05-.06-.06-.06-.05-.05-.06-.05-.06-.06-.07-.05-.06-.04-.07-.05-.05-.03-.06-.04-.08-.04-.07-.04-.07-.03-.07-.03-.08-.03-.07-.03-.08-.02-.08-.03-.08-.02-.05-.01-.08-.01-.08-.01-.08-.01-.08-.01h-.08l-.08-.01M84.06 293.64v-.08l-.01-.07-.01-.08v-.08l-.02-.08-.01-.08-.01-.06-.02-.08-.02-.07-.03-.08-.03-.08-.03-.07-.03-.07-.03-.08-.04-.07-.04-.07-.04-.07-.03-.04-.05-.07-.04-.06-.05-.07-.05-.06-.06-.06-.05-.06-.06-.05-.06-.05-.06-.06-.06-.05-.07-.04-.07-.05-.04-.03-.07-.04-.07-.04-.07-.04-.08-.03-.07-.03-.08-.03-.07-.03-.08-.02-.08-.03-.07-.02-.06-.01-.08-.01-.08-.01-.08-.01-.08-.01h-.08l-.07-.01M158.2 291.25l-.08.01h-.08l-.08.01-.08.01-.08.01-.08.01-.05.01-.08.02-.08.03-.07.02-.08.03-.07.03-.08.03-.07.03-.07.04-.07.04-.07.04-.05.03-.06.05-.07.04-.06.05-.06.06-.06.05-.06.05-.06.06-.05.06-.05.06-.05.07-.05.06-.04.07-.03.04-.05.07-.04.07-.03.07-.04.08-.03.07-.03.07-.02.08-.03.08-.02.07-.02.08-.01.06-.02.08-.01.08-.01.08-.01.08v.15M151.82 291.25l-.08.01h-.08l-.08.01-.08.01-.08.01-.07.01-.06.01-.08.02-.07.03-.08.02-.08.03-.07.03-.07.03-.08.03-.07.04-.07.04-.07.04-.05.03-.06.05-.07.04-.06.05-.06.06-.06.05-.06.05-.05.06-.06.06-.05.06-.05.07-.05.06-.04.07-.03.04-.04.07-.04.07-.04.07-.03.08-.04.07-.03.07-.02.08-.03.08-.02.07-.02.08-.01.06-.02.08-.01.08-.01.08v.08l-.01.07v.08M145.44 291.25l-.07.01h-.08l-.08.01-.08.01-.08.01-.08.01-.06.01-.07.02-.08.03-.08.02-.07.03-.08.03-.07.03-.08.03-.07.04-.07.04-.07.04-.04.03-.07.05-.07.04-.06.05-.06.06-.06.05-.06.05-.05.06-.06.06-.05.06-.05.07-.04.06-.05.07-.03.04-.04.07-.04.07-.04.07-.03.08-.03.07-.03.07-.03.08-.03.08-.02.07-.02.08-.01.06-.01.08-.02.08v.08l-.01.08-.01.07v.08M139.07 291.25l-.08.01h-.08l-.08.01-.08.01-.08.01-.08.01-.05.01-.08.02-.08.03-.08.02-.07.03-.08.03-.07.03-.07.03-.07.04-.08.04-.06.04-.05.03-.07.05-.06.04-.07.05-.06.06-.06.05-.05.05-.06.06-.05.06-.06.06-.05.07-.04.06-.05.07-.03.04-.04.07-.04.07-.04.07-.03.08-.03.07-.03.07-.03.08-.02.08-.03.07-.01.08-.02.06-.01.08-.01.08-.01.08-.01.08v.15M132.69 291.25l-.08.01h-.08l-.08.01-.08.01-.08.01-.08.01-.05.01-.08.02-.08.03-.07.02-.08.03-.08.03-.07.03-.07.03-.07.04-.07.04-.07.04-.05.03-.07.05-.06.04-.06.05-.07.06-.06.05-.05.05-.06.06-.05.06-.05.06-.05.07-.05.06-.05.07-.03.04-.04.07-.04.07-.03.07-.04.08-.03.07-.03.07-.03.08-.02.08-.02.07-.02.08-.01.06-.02.08-.01.08-.01.08-.01.08v.15M126.31 291.25l-.08.01h-.08l-.08.01-.08.01-.08.01-.08.01-.05.01-.08.02-.08.03-.07.02-.08.03-.07.03-.08.03-.07.03-.07.04-.07.04-.07.04-.05.03-.06.05-.07.04-.06.05-.06.06-.06.05-.06.05-.06.06-.05.06-.05.06-.05.07-.05.06-.04.07-.03.04-.05.07-.04.07-.03.07-.04.08-.03.07-.03.07-.02.08-.03.08-.02.07-.02.08-.01.06-.02.08-.01.08-.01.08-.01.08v.15M119.93 291.25l-.08.01h-.08l-.08.01-.08.01-.07.01-.08.01-.06.01-.08.02-.07.03-.08.02-.08.03-.07.03-.07.03-.08.03-.07.04-.07.04-.07.04-.05.03-.06.05-.07.04-.06.05-.06.06-.06.05-.06.05-.05.06-.06.06-.05.06-.05.07-.05.06-.04.07-.03.04-.04.07-.04.07-.04.07-.03.08-.04.07-.03.07-.02.08-.03.08-.02.07-.02.08-.01.06-.01.08-.02.08-.01.08v.08l-.01.07v.08M113.55 291.25l-.07.01h-.08l-.08.01-.08.01-.08.01-.08.01-.06.01-.07.02-.08.03-.08.02-.07.03-.08.03-.07.03-.08.03-.07.04-.07.04-.07.04-.04.03-.07.05-.07.04-.06.05-.06.06-.06.05-.06.05-.05.06-.06.06-.05.06-.05.07-.04.06-.05.07-.03.04-.04.07-.04.07-.04.07-.03.08-.03.07-.03.07-.03.08-.03.08-.02.07-.02.08-.01.06-.01.08-.02.08v.08l-.01.08-.01.07v.08M107.18 291.25l-.08.01h-.08l-.08.01-.08.01-.08.01-.08.01-.05.01-.08.02-.08.03-.08.02-.07.03-.08.03-.07.03-.07.03-.07.04-.08.04-.06.04-.05.03-.07.05-.06.04-.07.05-.06.06-.06.05-.05.05-.06.06-.05.06-.06.06-.05.07-.04.06-.05.07-.03.04-.04.07-.04.07-.04.07-.03.08-.03.07-.03.07-.03.08-.02.08-.02.07-.02.08-.02.06-.01.08-.01.08-.01.08-.01.08v.15M100.8 291.25l-.08.01h-.08l-.08.01-.08.01-.08.01-.08.01-.05.01-.08.02-.08.03-.07.02-.08.03-.08.03-.07.03-.07.03-.07.04-.07.04-.07.04-.05.03-.07.05-.06.04-.06.05-.07.06-.06.05-.05.05-.06.06-.05.06-.05.06-.05.07-.05.06-.05.07-.03.04-.04.07-.04.07-.03.07-.04.08-.03.07-.03.07-.03.08-.02.08-.02.07-.02.08-.01.06-.02.08-.01.08-.01.08-.01.08v.15M94.42 291.25l-.08.01h-.08l-.08.01-.08.01-.08.01-.08.01-.05.01-.08.02-.08.03-.07.02-.08.03-.07.03-.08.03-.07.03-.07.04-.07.04-.07.04-.05.03-.06.05-.07.04-.06.05-.06.06-.06.05-.06.05-.06.06-.05.06-.05.06-.05.07-.05.06-.04.07-.03.04-.05.07-.04.07-.03.07-.04.08-.03.07-.03.07-.02.08-.03.08-.02.07-.02.08-.01.06-.02.08-.01.08-.01.08-.01.08v.15M88.04 291.25l-.08.01h-.08l-.08.01-.08.01-.07.01-.08.01-.06.01-.08.02-.07.03-.08.02-.08.03-.07.03-.07.03-.08.03-.07.04-.07.04-.07.04-.05.03-.06.05-.07.04-.06.05-.06.06-.06.05-.06.05-.05.06-.06.06-.05.06-.05.07-.05.06-.04.07-.03.04-.04.07-.04.07-.04.07-.03.08-.04.07-.03.07-.02.08-.03.08-.02.07-.02.08-.01.06-.01.08-.02.08-.01.08v.08l-.01.07v.08M81.67 291.25l-.08.01h-.08l-.08.01-.08.01-.08.01-.08.01-.06.01-.07.02-.08.03-.08.02-.07.03-.08.03-.07.03-.08.03-.07.04-.07.04-.07.04-.04.03-.07.05-.07.04-.06.05-.06.06-.06.05-.06.05-.05.06-.06.06-.05.06-.05.07-.04.06-.05.07-.03.04-.04.07-.04.07-.04.07-.03.08-.03.07-.03.07-.03.08-.02.08-.03.07-.02.08-.01.06-.01.08-.02.08v.08l-.01.08-.01.07v.08M149.43 293.64v.08l.01.08v.08l.01.08.01.08.02.08.01.06.02.07.02.08.03.08.02.07.03.08.04.07.03.07.04.08.04.07.04.06.03.05.04.07.05.06.05.07.05.06.06.06.05.05.06.06.06.05.06.05.06.05.07.05.06.05.05.03.07.04.07.04.07.04.08.03.07.03.07.03.08.03.08.02.07.02.08.02.06.02.07.01.08.01.08.01.08.01h.16M92.03 294.32v.15l.01.08.01.08.01.08.02.08.01.06.02.08.02.07.03.08.02.08.03.07.03.07.04.08.03.07.04.07.05.07.03.04.04.07.05.06.05.07.05.06.05.06.06.06.06.05.06.05.06.06.06.05.07.04.06.05.05.03.07.04.07.04.07.04.07.03.08.03.07.03.08.03.07.02.08.03.08.02.05.01.08.01.08.01.08.01.08.01.08.01h.08M136.68 293.64v.16l.01.08.01.08.01.08.01.08.02.06.01.07.03.08.02.08.03.07.03.08.03.07.03.07.04.08.04.07.04.06.03.05.05.07.04.06.05.07.06.06.05.06.06.05.05.06.06.05.06.05.07.05.06.05.07.05.05.03.06.04.08.04.07.04.07.03.07.03.08.03.07.03.08.02.08.02.08.02.05.02.08.01.08.01.08.01.08.01h.16M111.16 294.32v.08l.01.07.01.08v.08l.02.08.01.08.01.06.02.08.02.07.03.08.03.08.03.07.03.07.03.08.04.07.04.07.04.07.03.04.05.07.04.06.05.07.05.06.06.06.05.06.06.05.06.05.06.06.06.05.07.04.07.05.04.03.07.04.07.04.07.04.08.03.07.03.08.03.07.03.08.02.08.03.07.02.06.01.08.01.08.01.08.01.08.01.08.01h.07M123.92 294.32v.15l.01.08.01.08.01.08.02.08.01.06.02.08.02.07.03.08.02.08.03.07.03.07.04.08.03.07.04.07.05.07.03.04.04.07.05.06.05.07.05.06.05.06.06.06.06.05.06.05.06.06.06.05.07.04.06.05.05.03.07.04.07.04.07.04.07.03.08.03.07.03.08.03.07.02.08.03.08.02.05.01.08.01.08.01.08.01.08.01.08.01h.08M130.3 293.64v.16l.01.08.01.08.01.08.02.08.01.06.02.07.02.08.02.08.03.07.03.08.03.07.04.07.03.08.04.07.04.06.03.05.05.07.05.06.05.07.05.06.05.06.06.05.05.06.06.05.07.05.06.05.06.05.07.05.05.03.07.04.07.04.07.04.07.03.07.03.08.03.08.03.07.02.08.02.08.02.05.02.08.01.08.01.08.01.08.01h.16M85.65 293.64v.08l.01.08v.08l.01.08.02.08.01.08.01.06.02.07.02.08.03.08.02.07.03.08.04.07.03.07.04.08.04.07.04.06.03.05.04.07.05.06.05.07.05.06.06.06.05.05.06.06.06.05.06.05.06.05.07.05.06.05.05.03.07.04.07.04.07.04.08.03.07.03.07.03.08.03.08.02.07.02.08.02.06.02.08.01.07.01.08.01.08.01h.16"/><path stroke="#231815" stroke-linecap="round" stroke-linejoin="round" stroke-width=".25" d="M149.43 294.32v.08l.01.07v.08l.01.08.01.08.02.08.01.06.02.08.02.07.03.08.02.08.03.07.04.07.03.08.04.07.04.07.04.07.03.04.04.07.05.06.05.07.05.06.06.06.05.06.06.05.06.05.06.06.06.05.07.04.06.05.05.03.07.04.07.04.07.04.08.03.07.03.07.03.08.03.08.02.07.03.08.02.06.01.07.01.08.01.08.01.08.01.08.01h.08M85.65 294.32v.08l.01.07v.08l.01.08.02.08.01.08.01.06.02.08.02.07.03.08.02.08.03.07.04.07.03.08.04.07.04.07.04.07.03.04.04.07.05.06.05.07.05.06.06.06.05.06.06.05.06.05.06.06.06.05.07.04.06.05.05.03.07.04.07.04.07.04.08.03.07.03.07.03.08.03.08.02.07.03.08.02.06.01.08.01.07.01.08.01.08.01.08.01h.08M104.79 293.64v.16l.01.08.01.08.01.08.01.08.02.06.02.07.02.08.02.08.03.07.03.08.03.07.03.07.04.08.04.07.04.06.03.05.05.07.04.06.05.07.06.06.05.06.06.05.05.06.06.05.06.05.07.05.06.05.07.05.05.03.06.04.08.04.07.04.07.03.07.03.08.03.07.03.08.02.08.02.08.02.05.02.08.01.08.01.08.01.08.01h.16M143.05 294.32v.08l.01.07.01.08v.08l.02.08.01.08.01.06.02.08.02.07.03.08.03.08.03.07.03.07.03.08.04.07.04.07.04.07.03.04.05.07.04.06.05.07.05.06.06.06.05.06.06.05.06.05.06.06.06.05.07.04.07.05.04.03.07.04.07.04.07.04.08.03.07.03.08.03.07.03.08.02.08.03.07.02.06.01.08.01.08.01.08.01.08.01.08.01h.07M155.81 294.32v.15l.01.08.01.08.01.08.02.08.01.06.02.08.02.07.03.08.02.08.03.07.03.07.04.08.03.07.04.07.05.07.03.04.04.07.05.06.05.07.05.06.05.06.06.06.06.05.06.05.06.06.06.05.07.04.06.05.05.03.07.04.07.04.07.04.07.03.08.03.07.03.08.03.07.02.08.03.08.02.05.01.08.01.08.01.08.01.08.01.08.01h.08M79.27 293.64v.08l.01.08.01.08v.08l.02.08.01.08.01.06.02.07.03.08.02.08.03.07.03.08.03.07.03.07.04.08.04.07.04.06.03.05.05.07.04.06.05.07.05.06.06.06.05.05.06.06.06.05.06.05.06.05.07.05.07.05.04.03.07.04.07.04.07.04.08.03.07.03.08.03.07.03.08.02.08.02.07.02.06.02.08.01.08.01.08.01.08.01h.16M117.54 293.64v.08l.01.08v.08l.01.08.02.08.01.08.01.06.02.07.02.08.03.08.02.07.03.08.04.07.03.07.04.08.04.07.04.06.03.05.04.07.05.06.05.07.05.06.06.06.05.05.06.06.06.05.06.05.06.05.07.05.06.05.05.03.07.04.07.04.07.04.08.03.07.03.07.03.08.03.08.02.07.02.08.02.06.02.08.01.07.01.08.01.08.01h.16"/><path stroke="#231815" stroke-linecap="round" stroke-linejoin="round" stroke-width=".25" d="M104.79 294.32v.15l.01.08.01.08.01.08.01.08.02.06.02.08.02.07.02.08.03.08.03.07.03.07.03.08.04.07.04.07.04.07.03.04.05.07.04.06.05.07.06.06.05.06.06.06.05.05.06.05.06.06.07.05.06.04.07.05.05.03.06.04.08.04.07.04.07.03.07.03.08.03.07.03.08.02.08.03.08.02.05.01.08.01.08.01.08.01.08.01.08.01h.08M143.05 293.64v.08l.01.08.01.08v.08l.02.08.01.08.01.06.02.07.02.08.03.08.03.07.03.08.03.07.03.07.04.08.04.07.04.06.03.05.05.07.04.06.05.07.05.06.06.06.05.05.06.06.06.05.06.05.06.05.07.05.07.05.04.03.07.04.07.04.07.04.08.03.07.03.08.03.07.03.08.02.08.02.07.02.06.02.08.01.08.01.08.01.08.01h.15M79.27 294.32v.08l.01.07.01.08v.08l.02.08.01.08.01.06.02.08.03.07.02.08.03.08.03.07.03.07.03.08.04.07.04.07.04.07.03.04.05.07.04.06.05.07.05.06.06.06.05.06.06.05.06.05.06.06.06.05.07.04.07.05.04.03.07.04.07.04.07.04.08.03.07.03.08.03.07.03.08.02.08.03.07.02.06.01.08.01.08.01.08.01.08.01.08.01h.08M136.68 294.32v.15l.01.08.01.08.01.08.01.08.02.06.01.08.03.07.02.08.03.08.03.07.03.07.03.08.04.07.04.07.04.07.03.04.05.07.04.06.05.07.06.06.05.06.06.06.05.05.06.05.06.06.07.05.06.04.07.05.05.03.06.04.08.04.07.04.07.03.07.03.08.03.07.03.08.02.08.03.08.02.05.01.08.01.08.01.08.01.08.01.08.01h.08M130.3 294.32v.15l.01.08.01.08.01.08.02.08.01.06.02.08.02.07.02.08.03.08.03.07.03.07.04.08.03.07.04.07.04.07.03.04.05.07.05.06.05.07.05.06.05.06.06.06.05.05.06.05.07.06.06.05.06.04.07.05.05.03.07.04.07.04.07.04.07.03.07.03.08.03.08.03.07.02.08.03.08.02.05.01.08.01.08.01.08.01.08.01.08.01h.08M117.54 294.32v.08l.01.07v.08l.01.08.02.08.01.08.01.06.02.08.02.07.03.08.02.08.03.07.04.07.03.08.04.07.04.07.04.07.03.04.04.07.05.06.05.07.05.06.06.06.05.06.06.05.06.05.06.06.06.05.07.04.06.05.05.03.07.04.07.04.07.04.08.03.07.03.07.03.08.03.08.02.07.03.08.02.06.01.08.01.07.01.08.01.08.01.08.01h.08M158.2 296.71h.08l.08-.01.08-.01.08-.01.08-.01.08-.01.05-.01.08-.02.08-.03.07-.02.08-.03.07-.03.08-.03.07-.03.07-.04.07-.04.07-.04.05-.03.07-.05.06-.04.06-.05.07-.06.05-.05.06-.05.06-.06.05-.06.05-.06.05-.07.05-.06.05-.07.03-.04.04-.07.04-.07.03-.07.04-.08.03-.07.03-.07.03-.08.02-.08.02-.07.02-.08.01-.06.02-.08.01-.08.01-.08.01-.08v-.15M98.41 293.64v.16l.01.08.01.08.01.08.02.08.01.06.02.07.02.08.02.08.03.07.03.08.03.07.04.07.03.08.04.07.04.06.03.05.05.07.05.06.05.07.05.06.05.06.06.05.05.06.06.05.07.05.06.05.06.05.07.05.05.03.07.04.07.04.07.04.07.03.07.03.08.03.08.03.07.02.08.02.08.02.05.02.08.01.08.01.08.01.08.01h.16"/><path stroke="#231815" stroke-linecap="round" stroke-linejoin="round" stroke-width=".25" d="M158.2 296.03h.16l.08-.01.08-.01.08-.01.08-.01.05-.02.08-.02.08-.02.07-.02.08-.03.07-.03.08-.03.07-.03.07-.04.07-.04.07-.04.05-.03.07-.05.06-.05.06-.05.07-.05.05-.05.06-.06.06-.05.05-.06.05-.06.05-.07.05-.06.05-.07.03-.05.04-.06.04-.07.03-.08.04-.07.03-.07.03-.08.03-.07.02-.08.02-.08.02-.07.01-.06.02-.08.01-.08.01-.08.01-.08v-.16M151.82 296.71h.08l.08-.01.08-.01.08-.01.08-.01.08-.01.05-.01.08-.02.08-.03.08-.02.07-.03.08-.03.07-.03.07-.03.07-.04.07-.04.07-.04.05-.03.07-.05.06-.04.07-.05.06-.06.06-.05.05-.05.06-.06.05-.06.06-.06.04-.07.05-.06.05-.07.03-.04.04-.07.04-.07.04-.07.03-.08.03-.07.03-.07.03-.08.02-.08.02-.07.02-.08.02-.06.01-.08.01-.08.01-.08.01-.08v-.15M155.81 293.64v.16l.01.08.01.08.01.08.02.08.01.06.02.07.02.08.03.08.02.07.03.08.03.07.04.07.03.08.04.07.05.06.03.05.04.07.05.06.05.07.05.06.05.06.06.05.06.06.06.05.06.05.06.05.07.05.06.05.05.03.07.04.07.04.07.04.07.03.08.03.07.03.08.03.07.02.08.02.08.02.05.02.08.01.08.01.08.01.08.01h.16"/><path stroke="#231815" stroke-linecap="round" stroke-linejoin="round" stroke-width=".25" d="M151.82 296.03h.16l.08-.01.08-.01.08-.01.08-.01.05-.02.08-.02.08-.02.08-.02.07-.03.08-.03.07-.03.07-.03.07-.04.07-.04.07-.04.05-.03.07-.05.06-.05.07-.05.06-.05.06-.05.05-.06.06-.05.05-.06.06-.06.04-.07.05-.06.05-.07.03-.05.04-.06.04-.07.04-.08.03-.07.03-.07.03-.08.03-.07.02-.08.02-.08.02-.07.02-.06.01-.08.01-.08.01-.08.01-.08v-.16M145.44 296.71h.08l.08-.01.08-.01.08-.01.08-.01.08-.01.06-.01.07-.02.08-.03.08-.02.07-.03.08-.03.07-.03.08-.03.07-.04.07-.04.07-.04.04-.03.07-.05.07-.04.06-.05.06-.06.06-.05.06-.05.05-.06.06-.06.05-.06.05-.07.04-.06.05-.07.03-.04.04-.07.04-.07.04-.07.03-.08.03-.07.03-.07.03-.08.02-.08.03-.07.02-.08.01-.06.01-.08.01-.08.01-.08.01-.08.01-.07v-.08"/><path stroke="#231815" stroke-linecap="round" stroke-linejoin="round" stroke-width=".25" d="M145.44 296.03h.16l.08-.01.08-.01.08-.01.08-.01.06-.02.07-.02.08-.02.08-.02.07-.03.08-.03.07-.03.08-.03.07-.04.07-.04.07-.04.04-.03.07-.05.07-.05.06-.05.06-.05.06-.05.06-.06.05-.05.06-.06.05-.06.05-.07.04-.06.05-.07.03-.05.04-.06.04-.07.04-.08.03-.07.03-.07.03-.08.03-.07.02-.08.03-.08.02-.07.01-.06.01-.08.01-.08.01-.08.01-.08.01-.08v-.08M139.07 296.71h.08l.08-.01.08-.01.08-.01.07-.01.08-.01.06-.01.08-.02.07-.03.08-.02.08-.03.07-.03.07-.03.08-.03.07-.04.07-.04.07-.04.05-.03.06-.05.07-.04.06-.05.06-.06.06-.05.06-.05.05-.06.06-.06.05-.06.05-.07.05-.06.04-.07.03-.04.04-.07.04-.07.04-.07.03-.08.04-.07.03-.07.02-.08.03-.08.02-.07.02-.08.01-.06.01-.08.02-.08.01-.08v-.08l.01-.07v-.08"/><path stroke="#231815" stroke-linecap="round" stroke-linejoin="round" stroke-width=".25" d="M139.07 296.03h.16l.08-.01.08-.01.07-.01.08-.01.06-.02.08-.02.07-.02.08-.02.08-.03.07-.03.07-.03.08-.03.07-.04.07-.04.07-.04.05-.03.06-.05.07-.05.06-.05.06-.05.06-.05.06-.06.05-.05.06-.06.05-.06.05-.07.05-.06.04-.07.03-.05.04-.06.04-.07.04-.08.03-.07.04-.07.03-.08.02-.07.03-.08.02-.08.02-.07.01-.06.01-.08.02-.08.01-.08v-.08l.01-.08v-.08M132.69 296.71h.08l.08-.01.08-.01.08-.01.08-.01.08-.01.05-.01.08-.02.08-.03.07-.02.08-.03.07-.03.08-.03.07-.03.07-.04.07-.04.07-.04.05-.03.06-.05.07-.04.06-.05.06-.06.06-.05.06-.05.06-.06.05-.06.05-.06.05-.07.05-.06.04-.07.03-.04.05-.07.04-.07.03-.07.04-.08.03-.07.03-.07.02-.08.03-.08.02-.07.02-.08.01-.06.02-.08.01-.08.01-.08.01-.08v-.15"/><path stroke="#231815" stroke-linecap="round" stroke-linejoin="round" stroke-width=".25" d="M132.69 296.03h.16l.08-.01.08-.01.08-.01.08-.01.05-.02.08-.02.08-.02.07-.02.08-.03.07-.03.08-.03.07-.03.07-.04.07-.04.07-.04.05-.03.06-.05.07-.05.06-.05.06-.05.06-.05.06-.06.06-.05.05-.06.05-.06.05-.07.05-.06.04-.07.03-.05.05-.06.04-.07.03-.08.04-.07.03-.07.03-.08.02-.07.03-.08.02-.08.02-.07.01-.06.02-.08.01-.08.01-.08.01-.08v-.16M126.31 296.71h.08l.08-.01.08-.01.08-.01.08-.01.08-.01.05-.01.08-.02.08-.03.07-.02.08-.03.07-.03.08-.03.07-.03.07-.04.07-.04.07-.04.05-.03.07-.05.06-.04.06-.05.07-.06.05-.05.06-.05.06-.06.05-.06.05-.06.05-.07.05-.06.05-.07.03-.04.04-.07.04-.07.03-.07.04-.08.03-.07.03-.07.03-.08.02-.08.02-.07.02-.08.01-.06.02-.08.01-.08.01-.08.01-.08v-.15M98.41 294.32v.15l.01.08.01.08.01.08.02.08.01.06.02.08.02.07.02.08.03.08.03.07.03.07.04.08.03.07.04.07.04.07.03.04.05.07.05.06.05.07.05.06.05.06.06.06.05.05.06.05.07.06.06.05.06.04.07.05.05.03.07.04.07.04.07.04.07.03.07.03.08.03.08.03.07.02.08.03.08.02.05.01.08.01.08.01.08.01.08.01.08.01h.08"/><path stroke="#231815" stroke-linecap="round" stroke-linejoin="round" stroke-width=".25" d="M126.31 296.03h.16l.08-.01.08-.01.08-.01.08-.01.05-.02.08-.02.08-.02.07-.02.08-.03.07-.03.08-.03.07-.03.07-.04.07-.04.07-.04.05-.03.07-.05.06-.05.06-.05.07-.05.05-.05.06-.06.06-.05.05-.06.05-.06.05-.07.05-.06.05-.07.03-.05.04-.06.04-.07.03-.08.04-.07.03-.07.03-.08.03-.07.02-.08.02-.08.02-.07.01-.06.02-.08.01-.08.01-.08.01-.08v-.16M119.93 296.71h.08l.08-.01.08-.01.08-.01.08-.01.08-.01.05-.01.08-.02.08-.03.08-.02.07-.03.08-.03.07-.03.07-.03.07-.04.08-.04.06-.04.05-.03.07-.05.06-.04.07-.05.06-.06.06-.05.05-.05.06-.06.05-.06.06-.06.04-.07.05-.06.05-.07.03-.04.04-.07.04-.07.04-.07.03-.08.03-.07.03-.07.03-.08.02-.08.02-.07.02-.08.02-.06.01-.08.01-.08.01-.08.01-.08v-.15"/><path stroke="#231815" stroke-linecap="round" stroke-linejoin="round" stroke-width=".25" d="M119.93 296.03h.16l.08-.01.08-.01.08-.01.08-.01.05-.02.08-.02.08-.02.08-.02.07-.03.08-.03.07-.03.07-.03.07-.04.08-.04.06-.04.05-.03.07-.05.06-.05.07-.05.06-.05.06-.05.05-.06.06-.05.05-.06.06-.06.04-.07.05-.06.05-.07.03-.05.04-.06.04-.07.04-.08.03-.07.03-.07.03-.08.03-.07.02-.08.02-.08.02-.07.02-.06.01-.08.01-.08.01-.08.01-.08v-.16M113.55 296.71h.08l.08-.01.08-.01.08-.01.08-.01.08-.01.06-.01.07-.02.08-.03.08-.02.07-.03.08-.03.07-.03.08-.03.07-.04.07-.04.07-.04.04-.03.07-.05.07-.04.06-.05.06-.06.06-.05.06-.05.05-.06.06-.06.05-.06.05-.07.04-.06.05-.07.03-.04.04-.07.04-.07.04-.07.03-.08.03-.07.03-.07.03-.08.02-.08.03-.07.02-.08.01-.06.01-.08.02-.08v-.08l.01-.08.01-.07v-.08"/><path stroke="#231815" stroke-linecap="round" stroke-linejoin="round" stroke-width=".25" d="M113.55 296.03h.16l.08-.01.08-.01.08-.01.08-.01.06-.02.07-.02.08-.02.08-.02.07-.03.08-.03.07-.03.08-.03.07-.04.07-.04.07-.04.04-.03.07-.05.07-.05.06-.05.06-.05.06-.05.06-.06.05-.05.06-.06.05-.06.05-.07.04-.06.05-.07.03-.05.04-.06.04-.07.04-.08.03-.07.03-.07.03-.08.03-.07.02-.08.03-.08.02-.07.01-.06.01-.08.02-.08v-.08l.01-.08.01-.08v-.08M107.18 296.71h.08l.08-.01.08-.01.08-.01.07-.01.08-.01.06-.01.08-.02.07-.03.08-.02.08-.03.07-.03.07-.03.08-.03.07-.04.07-.04.07-.04.05-.03.06-.05.07-.04.06-.05.06-.06.06-.05.06-.05.05-.06.06-.06.05-.06.05-.07.05-.06.04-.07.03-.04.04-.07.04-.07.04-.07.03-.08.04-.07.03-.07.02-.08.03-.08.02-.07.02-.08.01-.06.01-.08.02-.08.01-.08v-.08l.01-.07v-.08"/><path stroke="#231815" stroke-linecap="round" stroke-linejoin="round" stroke-width=".25" d="M107.18 296.03h.16l.08-.01.08-.01.07-.01.08-.01.06-.02.08-.02.07-.02.08-.02.08-.03.07-.03.07-.03.08-.03.07-.04.07-.04.07-.04.05-.03.06-.05.07-.05.06-.05.06-.05.06-.05.06-.06.05-.05.06-.06.05-.06.05-.07.05-.06.04-.07.03-.05.04-.06.04-.07.04-.08.03-.07.04-.07.03-.08.02-.07.03-.08.02-.08.02-.07.01-.06.01-.08.02-.08.01-.08v-.08l.01-.08v-.08M100.8 296.71h.08l.08-.01.08-.01.08-.01.08-.01.08-.01.05-.01.08-.02.08-.03.07-.02.08-.03.07-.03.08-.03.07-.03.07-.04.07-.04.07-.04.05-.03.06-.05.07-.04.06-.05.06-.06.06-.05.06-.05.06-.06.05-.06.05-.06.05-.07.05-.06.04-.07.03-.04.05-.07.04-.07.03-.07.04-.08.03-.07.03-.07.02-.08.03-.08.02-.07.02-.08.01-.06.02-.08.01-.08.01-.08.01-.08v-.15M111.16 293.64v.08l.01.08.01.08v.08l.02.08.01.08.01.06.02.07.02.08.03.08.03.07.03.08.03.07.03.07.04.08.04.07.04.06.03.05.05.07.04.06.05.07.05.06.06.06.05.05.06.06.06.05.06.05.06.05.07.05.07.05.04.03.07.04.07.04.07.04.08.03.07.03.08.03.07.03.08.02.08.02.07.02.06.02.08.01.08.01.08.01.08.01h.15"/><path stroke="#231815" stroke-linecap="round" stroke-linejoin="round" stroke-width=".25" d="M100.8 296.03h.16l.08-.01.08-.01.08-.01.08-.01.05-.02.08-.02.08-.02.07-.02.08-.03.07-.03.08-.03.07-.03.07-.04.07-.04.07-.04.05-.03.06-.05.07-.05.06-.05.06-.05.06-.05.06-.06.06-.05.05-.06.05-.06.05-.07.05-.06.04-.07.03-.05.05-.06.04-.07.03-.08.04-.07.03-.07.03-.08.02-.07.03-.08.02-.08.02-.07.01-.06.02-.08.01-.08.01-.08.01-.08v-.16M94.42 296.71h.08l.08-.01.08-.01.08-.01.08-.01.08-.01.05-.01.08-.02.08-.03.07-.02.08-.03.08-.03.07-.03.07-.03.07-.04.07-.04.07-.04.05-.03.07-.05.06-.04.06-.05.07-.06.06-.05.05-.05.06-.06.05-.06.05-.06.05-.07.05-.06.05-.07.03-.04.04-.07.04-.07.03-.07.04-.08.03-.07.03-.07.03-.08.02-.08.02-.07.02-.08.01-.06.02-.08.01-.08.01-.08.01-.08v-.15"/><path stroke="#231815" stroke-linecap="round" stroke-linejoin="round" stroke-width=".25" d="M94.42 296.03h.16l.08-.01.08-.01.08-.01.08-.01.05-.02.08-.02.08-.02.07-.02.08-.03.08-.03.07-.03.07-.03.07-.04.07-.04.07-.04.05-.03.07-.05.06-.05.06-.05.07-.05.06-.05.05-.06.06-.05.05-.06.05-.06.05-.07.05-.06.05-.07.03-.05.04-.06.04-.07.03-.08.04-.07.03-.07.03-.08.03-.07.02-.08.02-.08.02-.07.01-.06.02-.08.01-.08.01-.08.01-.08v-.16M88.04 296.71h.08l.08-.01.08-.01.08-.01.08-.01.08-.01.05-.01.08-.02.08-.03.08-.02.07-.03.08-.03.07-.03.07-.03.07-.04.08-.04.06-.04.05-.03.07-.05.06-.04.07-.05.06-.06.06-.05.05-.05.06-.06.05-.06.06-.06.05-.07.04-.06.05-.07.03-.04.04-.07.04-.07.04-.07.03-.08.03-.07.03-.07.03-.08.02-.08.02-.07.02-.08.02-.06.01-.08.01-.08.01-.08.01-.08v-.15M92.03 293.64v.16l.01.08.01.08.01.08.02.08.01.06.02.07.02.08.03.08.02.07.03.08.03.07.04.07.03.08.04.07.05.06.03.05.04.07.05.06.05.07.05.06.05.06.06.05.06.06.06.05.06.05.06.05.07.05.06.05.05.03.07.04.07.04.07.04.07.03.08.03.07.03.08.03.07.02.08.02.08.02.05.02.08.01.08.01.08.01.08.01h.16"/><path stroke="#231815" stroke-linecap="round" stroke-linejoin="round" stroke-width=".25" d="M88.04 296.03h.16l.08-.01.08-.01.08-.01.08-.01.05-.02.08-.02.08-.02.08-.02.07-.03.08-.03.07-.03.07-.03.07-.04.08-.04.06-.04.05-.03.07-.05.06-.05.07-.05.06-.05.06-.05.05-.06.06-.05.05-.06.06-.06.05-.07.04-.06.05-.07.03-.05.04-.06.04-.07.04-.08.03-.07.03-.07.03-.08.03-.07.02-.08.02-.08.02-.07.02-.06.01-.08.01-.08.01-.08.01-.08v-.16M81.67 296.71h.07l.08-.01.08-.01.08-.01.08-.01.08-.01.06-.01.07-.02.08-.03.08-.02.07-.03.08-.03.07-.03.08-.03.07-.04.07-.04.07-.04.04-.03.07-.05.07-.04.06-.05.06-.06.06-.05.06-.05.05-.06.06-.06.05-.06.05-.07.04-.06.05-.07.03-.04.04-.07.04-.07.04-.07.03-.08.03-.07.03-.07.03-.08.03-.08.02-.07.02-.08.01-.06.01-.08.02-.08v-.08l.01-.08.01-.07v-.08M123.92 293.64v.16l.01.08.01.08.01.08.02.08.01.06.02.07.02.08.03.08.02.07.03.08.03.07.04.07.03.08.04.07.05.06.03.05.04.07.05.06.05.07.05.06.05.06.06.05.06.06.06.05.06.05.06.05.07.05.06.05.05.03.07.04.07.04.07.04.07.03.08.03.07.03.08.03.07.02.08.02.08.02.05.02.08.01.08.01.08.01.08.01h.16"/><path stroke="#231815" stroke-linecap="round" stroke-linejoin="round" stroke-width=".25" d="M81.67 296.03h.15l.08-.01.08-.01.08-.01.08-.01.06-.02.07-.02.08-.02.08-.02.07-.03.08-.03.07-.03.08-.03.07-.04.07-.04.07-.04.04-.03.07-.05.07-.05.06-.05.06-.05.06-.05.06-.06.05-.05.06-.06.05-.06.05-.07.04-.06.05-.07.03-.05.04-.06.04-.07.04-.08.03-.07.03-.07.03-.08.03-.07.03-.08.02-.08.02-.07.01-.06.01-.08.02-.08v-.08l.01-.08.01-.08v-.08M80.87 284.68v.16l.01.08.01.08.01.08.02.08.01.05.02.08.02.08.02.07.03.08.03.07.03.08.04.07.03.07.04.07.04.07.03.05.05.06.05.07.05.06.05.06.05.06.06.06.06.05.05.06.07.05.06.05.06.05.07.04.05.03.07.05.07.03.07.04.07.04.08.03.07.03.08.02.07.03.08.02.08.02.05.01.08.02.08.01.08.01h.08l.08.01h.08M87.25 284.68v.16l.01.08.01.08.01.08.01.08.02.05.02.08.02.08.02.07.03.08.03.07.03.08.03.07.04.07.04.07.04.07.03.05.05.06.05.07.05.06.05.06.05.06.06.06.05.05.06.06.06.05.07.05.06.05.07.04.05.03.07.05.07.03.07.04.07.04.07.03.08.03.07.02.08.03.08.02.08.02.05.01.08.02.08.01.08.01h.08l.08.01h.08M93.62 284.68l.01.08v.08l.01.08.01.08.01.08.01.08.01.05.02.08.03.08.02.07.03.08.03.07.03.08.03.07.04.07.04.07.04.07.03.05.05.06.04.07.05.06.05.06.06.06.05.06.06.05.06.06.06.05.07.05.06.05.07.04.04.03.07.05.07.03.08.04.07.04.07.03.08.03.07.02.08.03.08.02.08.02.05.01.08.02.08.01.08.01h.08l.08.01h.08M100 284.68v.08l.01.08v.08l.01.08.02.08.01.08.01.05.02.08.02.08.03.07.02.08.03.07.04.08.03.07.04.07.04.07.04.07.03.05.04.06.05.07.05.06.05.06.06.06.05.06.06.05.06.06.06.05.06.05.07.05.06.04.05.03.07.05.07.03.07.04.08.04.07.03.07.03.08.02.08.03.07.02.08.02.06.01.08.02.08.01.08.01h.07l.08.01h.08M106.38 284.68v.08l.01.08v.08l.01.08.01.08.02.08.01.05.02.08.02.08.03.07.02.08.03.07.03.08.04.07.04.07.03.07.05.07.03.05.04.06.05.07.05.06.05.06.05.06.06.06.06.05.06.06.06.05.06.05.07.05.06.04.05.03.07.05.07.03.07.04.07.04.08.03.07.03.08.02.07.03.08.02.08.02.05.01.08.02.08.01.08.01h.08l.08.01h.08M112.76 284.68v.16l.01.08.01.08.01.08.02.08.01.05.02.08.02.08.02.07.03.08.03.07.03.08.04.07.03.07.04.07.04.07.03.05.05.06.05.07.05.06.05.06.05.06.06.06.06.05.05.06.07.05.06.05.06.05.07.04.05.03.07.05.07.03.07.04.07.04.08.03.07.03.08.02.07.03.08.02.08.02.05.01.08.02.08.01.08.01h.08l.08.01h.08M119.14 284.68v.16l.01.08.01.08.01.08.01.08.02.05.02.08.02.08.02.07.03.08.03.07.03.08.03.07.04.07.04.07.04.07.03.05.05.06.05.07.05.06.05.06.05.06.06.06.05.05.06.06.06.05.07.05.06.05.07.04.05.03.07.05.07.03.07.04.07.04.07.03.08.03.07.02.08.03.08.02.08.02.05.01.08.02.08.01.08.01h.08l.08.01h.08M125.51 284.68l.01.08v.08l.01.08.01.08.01.08.01.08.01.05.02.08.03.08.02.07.03.08.03.07.03.08.03.07.04.07.04.07.04.07.03.05.05.06.04.07.05.06.05.06.06.06.05.06.06.05.06.06.06.05.07.05.06.05.07.04.04.03.07.05.07.03.08.04.07.04.07.03.08.03.07.02.08.03.08.02.08.02.05.01.08.02.08.01.08.01h.08l.08.01h.08M131.89 284.68v.08l.01.08v.08l.01.08.02.08.01.08.01.05.02.08.02.08.03.07.02.08.03.07.04.08.03.07.04.07.04.07.04.07.03.05.04.06.05.07.05.06.05.06.06.06.05.06.06.05.06.06.06.05.06.05.07.05.06.04.05.03.07.05.07.03.07.04.08.04.07.03.07.03.08.02.08.03.07.02.08.02.06.01.08.02.08.01.08.01h.07l.08.01h.08M138.27 284.68v.08l.01.08v.08l.01.08.01.08.02.08.01.05.02.08.02.08.03.07.02.08.03.07.03.08.04.07.04.07.03.07.05.07.03.05.04.06.05.07.05.06.05.06.05.06.06.06.06.05.06.06.06.05.06.05.07.05.06.04.05.03.07.05.07.03.07.04.07.04.08.03.07.03.08.02.07.03.08.02.08.02.05.01.08.02.08.01.08.01h.08l.08.01h.08M144.65 284.68v.16l.01.08.01.08.01.08.02.08.01.05.02.08.02.08.02.07.03.08.03.07.03.08.04.07.03.07.04.07.04.07.03.05.05.06.05.07.05.06.05.06.05.06.06.06.06.05.05.06.07.05.06.05.06.05.07.04.05.03.07.05.07.03.07.04.07.04.08.03.07.03.08.02.07.03.08.02.08.02.05.01.08.02.08.01.08.01h.08l.08.01h.08M151.03 284.68v.16l.01.08.01.08.01.08.01.08.02.05.02.08.02.08.02.07.03.08.03.07.03.08.03.07.04.07.04.07.04.07.03.05.05.06.05.07.05.06.05.06.05.06.06.06.05.05.06.06.06.05.07.05.06.05.07.04.05.03.07.05.07.03.07.04.07.04.07.03.08.03.07.02.08.03.08.02.08.02.05.01.08.02.08.01.08.01h.08l.08.01h.08M157.4 284.68v.08l.01.08.01.08.01.08.01.08.01.08.01.05.02.08.03.08.02.07.03.08.03.07.03.08.03.07.04.07.04.07.04.07.03.05.05.06.04.07.05.06.05.06.06.06.05.06.06.05.06.06.06.05.07.05.06.05.07.04.04.03.07.05.07.03.07.04.08.04.07.03.08.03.07.02.08.03.08.02.08.02.05.01.08.02.08.01.08.01h.08l.08.01h.08M83.26 287.07h.08l.08-.01h.08l.08-.01.08-.01.08-.02.05-.01.08-.02.08-.02.07-.03.08-.02.07-.03.08-.03.07-.04.07-.04.07-.03.07-.05.05-.03.06-.04.07-.05.06-.05.06-.05.06-.06.06-.05.06-.06.05-.06.05-.06.05-.06.05-.07.04-.06.03-.05.05-.07.04-.07.03-.07.04-.07.03-.08.03-.07.03-.08.02-.07.02-.08.02-.08.01-.05.02-.08.01-.08.01-.08.01-.08v-.16M89.64 287.07h.08l.08-.01h.08l.08-.01.08-.01.07-.02.06-.01.08-.02.07-.02.08-.03.08-.02.07-.03.08-.03.07-.04.07-.04.07-.03.07-.05.05-.03.06-.04.07-.05.06-.05.06-.05.06-.06.06-.05.05-.06.06-.06.05-.06.05-.06.05-.07.04-.06.03-.05.04-.07.04-.07.04-.07.03-.07.04-.08.03-.07.02-.08.03-.07.02-.08.02-.08.01-.05.02-.08.01-.08.01-.08v-.08l.01-.08v-.08M96.02 287.07h.07l.08-.01h.08l.08-.01.08-.01.08-.02.06-.01.07-.02.08-.02.08-.03.07-.02.08-.03.07-.03.08-.04.07-.04.07-.03.07-.05.04-.03.07-.04.07-.05.06-.05.06-.05.06-.06.06-.05.05-.06.06-.06.05-.06.05-.06.05-.07.04-.06.03-.05.04-.07.04-.07.04-.07.03-.07.03-.08.03-.07.03-.08.03-.07.02-.08.02-.08.01-.05.01-.08.02-.08.01-.08v-.08l.01-.08v-.08M102.39 287.07h.08l.08-.01h.08l.08-.01.08-.01.08-.02.05-.01.08-.02.08-.02.08-.03.07-.02.08-.03.07-.03.07-.04.08-.04.07-.03.06-.05.05-.03.07-.04.06-.05.07-.05.06-.05.06-.06.05-.05.06-.06.05-.06.06-.06.05-.06.04-.07.05-.06.03-.05.04-.07.04-.07.04-.07.03-.07.03-.08.03-.07.03-.08.02-.07.03-.08.01-.08.02-.05.01-.08.01-.08.01-.08.01-.08v-.08l.01-.08M108.77 287.07h.08l.08-.01h.08l.08-.01.08-.01.08-.02.05-.01.08-.02.08-.02.08-.03.07-.02.08-.03.07-.03.07-.04.07-.04.07-.03.07-.05.05-.03.07-.04.06-.05.06-.05.07-.05.06-.06.05-.05.06-.06.05-.06.05-.06.05-.06.05-.07.05-.06.03-.05.04-.07.04-.07.03-.07.04-.07.03-.08.03-.07.03-.08.02-.07.02-.08.02-.08.01-.05.02-.08.01-.08.01-.08.01-.08v-.16M115.15 287.07h.08l.08-.01h.08l.08-.01.08-.01.08-.02.05-.01.08-.02.08-.02.07-.03.08-.02.07-.03.08-.03.07-.04.07-.04.07-.03.07-.05.05-.03.06-.04.07-.05.06-.05.06-.05.06-.06.06-.05.06-.06.05-.06.05-.06.05-.06.05-.07.04-.06.03-.05.05-.07.04-.07.03-.07.04-.07.03-.08.03-.07.02-.08.03-.07.02-.08.02-.08.01-.05.02-.08.01-.08.01-.08.01-.08v-.16M121.53 287.07h.08l.08-.01h.08l.08-.01.08-.01.07-.02.06-.01.08-.02.07-.02.08-.03.08-.02.07-.03.08-.03.07-.04.07-.04.07-.03.07-.05.05-.03.06-.04.07-.05.06-.05.06-.05.06-.06.06-.05.05-.06.06-.06.05-.06.05-.06.05-.07.04-.06.03-.05.04-.07.04-.07.04-.07.03-.07.04-.08.03-.07.02-.08.03-.07.02-.08.02-.08.01-.05.02-.08.01-.08.01-.08v-.08l.01-.08v-.08M127.91 287.07h.07l.08-.01h.08l.08-.01.08-.01.08-.02.06-.01.07-.02.08-.02.08-.03.07-.02.08-.03.07-.03.08-.04.07-.04.07-.03.07-.05.04-.03.07-.04.07-.05.06-.05.06-.05.06-.06.06-.05.05-.06.06-.06.05-.06.05-.06.05-.07.04-.06.03-.05.04-.07.04-.07.04-.07.03-.07.03-.08.03-.07.03-.08.03-.07.02-.08.02-.08.01-.05.01-.08.02-.08v-.08l.01-.08.01-.08v-.08M134.28 287.07h.08l.08-.01h.08l.08-.01.08-.01.08-.02.05-.01.08-.02.08-.02.08-.03.07-.02.08-.03.07-.03.07-.04.08-.04.07-.03.06-.05.05-.03.07-.04.06-.05.07-.05.06-.05.06-.06.05-.05.06-.06.05-.06.06-.06.05-.06.04-.07.05-.06.03-.05.04-.07.04-.07.04-.07.03-.07.03-.08.03-.07.03-.08.02-.07.03-.08.01-.08.02-.05.01-.08.01-.08.01-.08.01-.08v-.08l.01-.08M140.66 287.07h.08l.08-.01h.08l.08-.01.08-.01.08-.02.05-.01.08-.02.08-.02.07-.03.08-.02.08-.03.07-.03.07-.04.07-.04.07-.03.07-.05.05-.03.07-.04.06-.05.06-.05.07-.05.06-.06.05-.05.06-.06.05-.06.05-.06.05-.06.05-.07.05-.06.03-.05.04-.07.04-.07.03-.07.04-.07.03-.08.03-.07.03-.08.02-.07.02-.08.02-.08.01-.05.02-.08.01-.08.01-.08.01-.08v-.16M147.04 287.07h.08l.08-.01h.08l.08-.01.08-.01.08-.02.05-.01.08-.02.08-.02.07-.03.08-.02.07-.03.08-.03.07-.04.07-.04.07-.03.07-.05.05-.03.06-.04.07-.05.06-.05.06-.05.06-.06.06-.05.06-.06.05-.06.05-.06.05-.06.05-.07.04-.06.03-.05.05-.07.04-.07.03-.07.04-.07.03-.08.03-.07.02-.08.03-.07.02-.08.02-.08.01-.05.02-.08.01-.08.01-.08.01-.08v-.16M153.42 287.07h.08l.08-.01h.08l.08-.01.08-.01.07-.02.06-.01.08-.02.07-.02.08-.03.08-.02.07-.03.07-.03.08-.04.07-.04.07-.03.07-.05.05-.03.06-.04.07-.05.06-.05.06-.05.06-.06.06-.05.05-.06.06-.06.05-.06.05-.06.05-.07.04-.06.03-.05.04-.07.04-.07.04-.07.03-.07.04-.08.03-.07.02-.08.03-.07.02-.08.02-.08.01-.05.02-.08.01-.08.01-.08v-.08l.01-.08v-.08M159.8 287.07h.07l.08-.01h.08l.08-.01.08-.01.08-.02.06-.01.07-.02.08-.02.08-.03.07-.02.08-.03.07-.03.08-.04.07-.04.07-.03.07-.05.04-.03.07-.04.07-.05.06-.05.06-.05.06-.06.06-.05.05-.06.06-.06.05-.06.05-.06.04-.07.05-.06.03-.05.04-.07.04-.07.04-.07.03-.07.03-.08.03-.07.03-.08.03-.07.02-.08.02-.08.01-.05.01-.08.02-.08v-.08l.01-.08.01-.08v-.08M92.03 284.68v-.08l-.01-.08v-.08l-.01-.08-.01-.08-.02-.08-.01-.05-.02-.08-.02-.08-.03-.08-.02-.07-.03-.08-.04-.07-.03-.07-.04-.07-.04-.07-.04-.07-.03-.05-.04-.06-.05-.07-.05-.06-.05-.06-.06-.06-.05-.06-.06-.06-.06-.05-.06-.05-.06-.05-.07-.05-.06-.04-.05-.03-.07-.05-.07-.04-.07-.03-.07-.04-.08-.03-.07-.03-.08-.02-.08-.03-.07-.02-.08-.02-.06-.01-.07-.02-.08-.01-.08-.01-.08-.01h-.16M149.43 284.01v-.16l-.01-.08-.01-.08-.01-.08-.02-.08-.01-.05-.02-.08-.02-.08-.03-.08-.02-.07-.03-.08-.03-.07-.04-.07-.03-.07-.04-.07-.05-.07-.03-.05-.04-.07-.05-.06-.05-.06-.05-.07-.05-.06-.06-.05-.06-.06-.06-.05-.06-.05-.06-.05-.07-.05-.06-.05-.05-.03-.07-.04-.07-.04-.07-.03-.07-.04-.08-.03-.07-.03-.08-.03-.07-.02-.08-.02-.08-.02-.05-.01-.08-.02-.08-.01-.08-.01-.08-.01h-.16M104.79 284.68l-.01-.08v-.08l-.01-.08-.01-.08-.01-.08-.01-.08-.02-.05-.01-.08-.03-.08-.02-.08-.03-.07-.03-.08-.03-.07-.03-.07-.04-.07-.04-.07-.04-.07-.03-.05-.05-.06-.04-.07-.05-.06-.06-.06-.05-.06-.06-.06-.05-.06-.06-.05-.06-.05-.07-.05-.06-.05-.07-.04-.05-.03-.06-.05-.07-.04-.08-.03-.07-.04-.07-.03-.08-.03-.07-.02-.08-.03-.08-.02-.08-.02-.05-.01-.08-.02-.08-.01-.08-.01-.08-.01h-.16M130.3 284.01v-.08l-.01-.08-.01-.08v-.08l-.02-.08-.01-.08-.01-.05-.02-.08-.02-.08-.03-.08-.03-.07-.03-.08-.03-.07-.03-.07-.04-.07-.04-.07-.04-.07-.03-.05-.04-.07-.05-.06-.05-.06-.05-.07-.06-.06-.05-.05-.06-.06-.06-.05-.06-.05-.06-.05-.07-.05-.07-.05-.04-.03-.07-.04-.07-.04-.07-.03-.08-.04-.07-.03-.08-.03-.07-.03-.08-.02-.08-.02-.07-.02-.06-.01-.08-.02-.08-.01-.08-.01-.08-.01h-.15M117.54 284.01v-.16l-.01-.08-.01-.08-.01-.08-.02-.08-.01-.05-.02-.08-.02-.08-.03-.08-.02-.07-.03-.08-.03-.07-.04-.07-.03-.07-.04-.07-.05-.07-.03-.05-.04-.07-.05-.06-.05-.06-.05-.07-.05-.06-.06-.05-.06-.06-.06-.05-.06-.05-.06-.05-.07-.05-.06-.05-.05-.03-.07-.04-.07-.04-.07-.03-.07-.04-.08-.03-.07-.03-.08-.03-.07-.02-.08-.02-.08-.02-.05-.01-.08-.02-.08-.01-.08-.01-.08-.01h-.16M111.16 284.68v-.16l-.01-.08-.01-.08-.01-.08-.02-.08-.01-.05-.02-.08-.02-.08-.02-.08-.03-.07-.03-.08-.03-.07-.04-.07-.03-.07-.04-.07-.04-.07-.03-.05-.05-.06-.05-.07-.05-.06-.05-.06-.05-.06-.06-.06-.05-.06-.06-.05-.07-.05-.06-.05-.06-.05-.07-.04-.05-.03-.07-.05-.07-.04-.07-.03-.07-.04-.07-.03-.08-.03-.07-.02-.08-.03-.08-.02-.08-.02-.05-.01-.08-.02-.08-.01-.08-.01-.08-.01h-.16M155.81 284.68v-.08l-.01-.08v-.08l-.01-.08-.01-.08-.02-.08-.01-.05-.02-.08-.02-.08-.03-.08-.02-.07-.03-.08-.04-.07-.03-.07-.04-.07-.04-.07-.04-.07-.03-.05-.04-.06-.05-.07-.05-.06-.05-.06-.06-.06-.05-.06-.06-.06-.06-.05-.06-.05-.06-.05-.07-.05-.06-.04-.05-.03-.07-.05-.07-.04-.07-.03-.08-.04-.07-.03-.07-.03-.08-.02-.08-.03-.07-.02-.08-.02-.06-.01-.07-.02-.08-.01-.08-.01-.08-.01h-.16"/><path stroke="#231815" stroke-linecap="round" stroke-linejoin="round" stroke-width=".25" d="M92.03 284.01v-.08l-.01-.08v-.08l-.01-.08-.01-.08-.02-.08-.01-.05-.02-.08-.02-.08-.03-.08-.02-.07-.03-.08-.04-.07-.03-.07-.04-.07-.04-.07-.04-.07-.03-.05-.04-.07-.05-.06-.05-.06-.05-.07-.06-.06-.05-.05-.06-.06-.06-.05-.06-.05-.06-.05-.07-.05-.06-.05-.05-.03-.07-.04-.07-.04-.07-.03-.07-.04-.08-.03-.07-.03-.08-.03-.08-.02-.07-.02-.08-.02-.06-.01-.07-.02-.08-.01-.08-.01-.08-.01h-.16M155.81 284.01v-.08l-.01-.08v-.08l-.01-.08-.01-.08-.02-.08-.01-.05-.02-.08-.02-.08-.03-.08-.02-.07-.03-.08-.04-.07-.03-.07-.04-.07-.04-.07-.04-.07-.03-.05-.04-.07-.05-.06-.05-.06-.05-.07-.06-.06-.05-.05-.06-.06-.06-.05-.06-.05-.06-.05-.07-.05-.06-.05-.05-.03-.07-.04-.07-.04-.07-.03-.08-.04-.07-.03-.07-.03-.08-.03-.08-.02-.07-.02-.08-.02-.06-.01-.07-.02-.08-.01-.08-.01-.08-.01h-.16M136.68 284.68l-.01-.08v-.08l-.01-.08-.01-.08-.01-.08-.01-.08-.02-.05-.01-.08-.03-.08-.02-.08-.03-.07-.03-.08-.03-.07-.03-.07-.04-.07-.04-.07-.04-.07-.03-.05-.05-.06-.04-.07-.05-.06-.06-.06-.05-.06-.06-.06-.05-.06-.06-.05-.06-.05-.07-.05-.06-.05-.07-.04-.05-.03-.06-.05-.07-.04-.08-.03-.07-.04-.07-.03-.08-.03-.07-.02-.08-.03-.08-.02-.08-.02-.05-.01-.08-.02-.08-.01-.08-.01-.08-.01h-.16M98.41 284.01v-.08l-.01-.08v-.08l-.01-.08-.02-.08-.01-.08-.01-.05-.02-.08-.02-.08-.03-.08-.03-.07-.03-.08-.03-.07-.03-.07-.04-.07-.04-.07-.04-.07-.03-.05-.04-.07-.05-.06-.05-.06-.05-.07-.06-.06-.05-.05-.06-.06-.06-.05-.06-.05-.06-.05-.07-.05-.07-.05-.04-.03-.07-.04-.07-.04-.07-.03-.08-.04-.07-.03-.08-.03-.07-.03-.08-.02-.08-.02-.07-.02-.06-.01-.08-.02-.08-.01-.08-.01-.08-.01h-.15M85.65 284.01v-.16l-.01-.08-.01-.08-.01-.08-.02-.08-.01-.05-.02-.08-.02-.08-.02-.08-.03-.07-.03-.08-.03-.07-.04-.07-.03-.07-.04-.07-.05-.07-.03-.05-.04-.07-.05-.06-.05-.06-.05-.07-.05-.06-.06-.05-.06-.06-.06-.05-.06-.05-.06-.05-.07-.05-.06-.05-.05-.03-.07-.04-.07-.04-.07-.03-.07-.04-.08-.03-.07-.03-.08-.03-.07-.02-.08-.02-.08-.02-.05-.01-.08-.02-.08-.01-.08-.01-.08-.01h-.16M162.19 284.68v-.08l-.01-.08-.01-.08v-.08l-.02-.08-.01-.08-.01-.05-.02-.08-.02-.08-.03-.08-.03-.07-.03-.08-.03-.07-.03-.07-.04-.07-.04-.07-.04-.07-.03-.05-.05-.06-.04-.07-.05-.06-.05-.06-.06-.06-.05-.06-.06-.06-.06-.05-.06-.05-.06-.05-.07-.05-.07-.04-.04-.03-.07-.05-.07-.04-.07-.03-.08-.04-.07-.03-.08-.03-.07-.02-.08-.03-.08-.02-.07-.02-.06-.01-.08-.02-.08-.01-.08-.01-.08-.01h-.15M123.92 284.68v-.08l-.01-.08v-.08l-.01-.08-.01-.08-.02-.08-.01-.05-.02-.08-.02-.08-.03-.08-.02-.07-.03-.08-.04-.07-.03-.07-.04-.07-.04-.07-.04-.07-.03-.05-.04-.06-.05-.07-.05-.06-.05-.06-.06-.06-.05-.06-.06-.06-.06-.05-.06-.05-.06-.05-.07-.05-.06-.04-.05-.03-.07-.05-.07-.04-.07-.03-.07-.04-.08-.03-.07-.03-.08-.02-.08-.03-.07-.02-.08-.02-.06-.01-.07-.02-.08-.01-.08-.01-.08-.01h-.16"/><path stroke="#231815" stroke-linecap="round" stroke-linejoin="round" stroke-width=".25" d="m136.68 284.01-.01-.08v-.08l-.01-.08-.01-.08-.01-.08-.01-.08-.02-.05-.01-.08-.03-.08-.02-.08-.03-.07-.03-.08-.03-.07-.03-.07-.04-.07-.04-.07-.04-.07-.03-.05-.05-.07-.04-.06-.05-.06-.06-.07-.05-.06-.06-.05-.05-.06-.06-.05-.06-.05-.07-.05-.06-.05-.07-.05-.05-.03-.06-.04-.07-.04-.08-.03-.07-.04-.07-.03-.08-.03-.07-.03-.08-.02-.08-.02-.08-.02-.05-.01-.08-.02-.08-.01-.08-.01-.08-.01h-.16M98.41 284.68v-.08l-.01-.08v-.08l-.01-.08-.02-.08-.01-.08-.01-.05-.02-.08-.02-.08-.03-.08-.03-.07-.03-.08-.03-.07-.03-.07-.04-.07-.04-.07-.04-.07-.03-.05-.04-.06-.05-.07-.05-.06-.05-.06-.06-.06-.05-.06-.06-.06-.06-.05-.06-.05-.06-.05-.07-.05-.07-.04-.04-.03-.07-.05-.07-.04-.07-.03-.08-.04-.07-.03-.08-.03-.07-.02-.08-.03-.08-.02-.07-.02-.06-.01-.08-.02-.08-.01-.08-.01-.08-.01h-.15M162.19 284.01v-.08l-.01-.08-.01-.08v-.08l-.02-.08-.01-.08-.01-.05-.02-.08-.02-.08-.03-.08-.03-.07-.03-.08-.03-.07-.03-.07-.04-.07-.04-.07-.04-.07-.03-.05-.05-.07-.04-.06-.05-.06-.05-.07-.06-.06-.05-.05-.06-.06-.06-.05-.06-.05-.06-.05-.07-.05-.07-.05-.04-.03-.07-.04-.07-.04-.07-.03-.08-.04-.07-.03-.08-.03-.07-.03-.08-.02-.08-.02-.07-.02-.06-.01-.08-.02-.08-.01-.08-.01-.08-.01h-.15M104.79 284.01l-.01-.08v-.08l-.01-.08-.01-.08-.01-.08-.01-.08-.02-.05-.01-.08-.03-.08-.02-.08-.03-.07-.03-.08-.03-.07-.03-.07-.04-.07-.04-.07-.04-.07-.03-.05-.05-.07-.04-.06-.05-.06-.06-.07-.05-.06-.06-.05-.05-.06-.06-.05-.06-.05-.07-.05-.06-.05-.07-.05-.05-.03-.06-.04-.07-.04-.08-.03-.07-.04-.07-.03-.08-.03-.07-.03-.08-.02-.08-.02-.08-.02-.05-.01-.08-.02-.08-.01-.08-.01-.08-.01h-.16M111.16 284.01v-.16l-.01-.08-.01-.08-.01-.08-.02-.08-.01-.05-.02-.08-.02-.08-.02-.08-.03-.07-.03-.08-.03-.07-.04-.07-.03-.07-.04-.07-.04-.07-.03-.05-.05-.07-.05-.06-.05-.06-.05-.07-.05-.06-.06-.05-.05-.06-.06-.05-.07-.05-.06-.05-.06-.05-.07-.05-.05-.03-.07-.04-.07-.04-.07-.03-.07-.04-.07-.03-.08-.03-.07-.03-.08-.02-.08-.02-.08-.02-.05-.01-.08-.02-.08-.01-.08-.01-.08-.01h-.16M123.92 284.01v-.08l-.01-.08v-.08l-.01-.08-.01-.08-.02-.08-.01-.05-.02-.08-.02-.08-.03-.08-.02-.07-.03-.08-.04-.07-.03-.07-.04-.07-.04-.07-.04-.07-.03-.05-.04-.07-.05-.06-.05-.06-.05-.07-.06-.06-.05-.05-.06-.06-.06-.05-.06-.05-.06-.05-.07-.05-.06-.05-.05-.03-.07-.04-.07-.04-.07-.03-.07-.04-.08-.03-.07-.03-.08-.03-.08-.02-.07-.02-.08-.02-.06-.01-.07-.02-.08-.01-.08-.01-.08-.01h-.16M83.26 281.62h-.16l-.08.01-.08.01-.08.01-.08.02-.05.01-.08.02-.08.02-.07.02-.08.03-.07.03-.08.03-.07.04-.07.03-.07.04-.07.04-.05.03-.07.05-.06.05-.06.05-.07.05-.05.05-.06.06-.06.05-.05.06-.05.07-.05.06-.05.06-.05.07-.03.05-.04.07-.04.07-.03.07-.04.07-.03.07-.03.08-.03.07-.02.08-.02.08-.02.08-.01.05-.02.08-.01.08-.01.08-.01.08v.16M143.05 284.68v-.16l-.01-.08-.01-.08-.01-.08-.02-.08-.01-.05-.02-.08-.02-.08-.02-.08-.03-.07-.03-.08-.03-.07-.04-.07-.03-.07-.04-.07-.04-.07-.03-.05-.05-.06-.05-.07-.05-.06-.05-.06-.05-.06-.06-.06-.05-.06-.06-.05-.07-.05-.06-.05-.06-.05-.07-.04-.05-.03-.07-.05-.07-.04-.07-.03-.07-.04-.07-.03-.08-.03-.08-.02-.07-.03-.08-.02-.08-.02-.05-.01-.08-.02-.08-.01-.08-.01-.08-.01h-.16"/><path stroke="#231815" stroke-linecap="round" stroke-linejoin="round" stroke-width=".25" d="M83.26 282.29h-.16l-.08.01-.08.01-.08.01-.08.02-.05.01-.08.02-.08.02-.07.03-.08.02-.07.03-.08.03-.07.04-.07.03-.07.04-.07.05-.05.03-.07.04-.06.05-.06.05-.07.05-.05.05-.06.06-.06.06-.05.06-.05.06-.05.06-.05.07-.05.06-.03.05-.04.07-.04.07-.03.07-.04.07-.03.07-.03.08-.03.07-.02.08-.02.08-.02.08-.01.05-.02.08-.01.08-.01.08-.01.08v.16M89.64 281.62h-.16l-.08.01-.08.01-.08.01-.08.02-.05.01-.08.02-.08.02-.08.02-.07.03-.08.03-.07.03-.07.04-.07.03-.07.04-.07.04-.05.03-.07.05-.06.05-.07.05-.06.05-.06.05-.05.06-.06.05-.05.06-.05.07-.05.06-.05.06-.05.07-.03.05-.04.07-.04.07-.04.07-.03.07-.03.07-.03.08-.03.07-.02.08-.02.08-.02.08-.02.05-.01.08-.01.08-.01.08-.01.08v.16M85.65 284.68v-.16l-.01-.08-.01-.08-.01-.08-.02-.08-.01-.05-.02-.08-.02-.08-.02-.08-.03-.07-.03-.08-.03-.07-.04-.07-.03-.07-.04-.07-.05-.07-.03-.05-.04-.06-.05-.07-.05-.06-.05-.06-.05-.06-.06-.06-.06-.06-.06-.05-.06-.05-.06-.05-.07-.05-.06-.04-.05-.03-.07-.05-.07-.04-.07-.03-.07-.04-.08-.03-.07-.03-.08-.02-.07-.03-.08-.02-.08-.02-.05-.01-.08-.02-.08-.01-.08-.01-.08-.01h-.16"/><path stroke="#231815" stroke-linecap="round" stroke-linejoin="round" stroke-width=".25" d="M89.64 282.29h-.16l-.08.01-.08.01-.08.01-.08.02-.05.01-.08.02-.08.02-.08.03-.07.02-.08.03-.07.03-.07.04-.07.03-.07.04-.07.05-.05.03-.07.04-.06.05-.07.05-.06.05-.06.05-.05.06-.06.06-.05.06-.05.06-.05.06-.05.07-.05.06-.03.05-.04.07-.04.07-.04.07-.03.07-.03.07-.03.08-.03.07-.02.08-.02.08-.02.08-.02.05-.01.08-.01.08-.01.08-.01.08v.16M96.02 281.62h-.16l-.08.01-.08.01-.08.01-.08.02-.05.01-.08.02-.08.02-.08.02-.07.03-.08.03-.07.03-.07.04-.08.03-.07.04-.07.04-.04.03-.07.05-.06.05-.07.05-.06.05-.06.05-.06.06-.05.05-.06.06-.05.07-.05.06-.04.06-.05.07-.03.05-.04.07-.04.07-.04.07-.03.07-.03.07-.03.08-.03.07-.02.08-.03.08-.02.08-.01.05-.01.08-.01.08-.01.08-.01.08v.08l-.01.08"/><path stroke="#231815" stroke-linecap="round" stroke-linejoin="round" stroke-width=".25" d="M96.02 282.29h-.16l-.08.01-.08.01-.08.01-.08.02-.05.01-.08.02-.08.02-.08.03-.07.02-.08.03-.07.03-.07.04-.08.03-.07.04-.07.05-.04.03-.07.04-.06.05-.07.05-.06.05-.06.05-.06.06-.05.06-.06.06-.05.06-.05.06-.04.07-.05.06-.03.05-.04.07-.04.07-.04.07-.03.07-.03.07-.03.08-.03.07-.02.08-.03.08-.02.08-.01.05-.01.08-.01.08-.01.08-.01.08v.08l-.01.08M102.39 281.62h-.16l-.07.01-.08.01-.08.01-.08.02-.06.01-.08.02-.07.02-.08.02-.08.03-.07.03-.07.03-.08.04-.07.03-.07.04-.07.04-.05.03-.06.05-.07.05-.06.05-.06.05-.06.05-.06.06-.05.05-.06.06-.05.07-.05.06-.05.06-.04.07-.03.05-.04.07-.04.07-.04.07-.03.07-.04.07-.03.08-.02.07-.03.08-.02.08-.02.08-.01.05-.01.08-.02.08-.01.08v.08l-.01.08v.08"/><path stroke="#231815" stroke-linecap="round" stroke-linejoin="round" stroke-width=".25" d="M102.39 282.29h-.16l-.07.01-.08.01-.08.01-.08.02-.06.01-.08.02-.07.02-.08.03-.08.02-.07.03-.07.03-.08.04-.07.03-.07.04-.07.05-.05.03-.06.04-.07.05-.06.05-.06.05-.06.05-.06.06-.05.06-.06.06-.05.06-.05.06-.05.07-.04.06-.03.05-.04.07-.04.07-.04.07-.03.07-.04.07-.03.08-.02.07-.03.08-.02.08-.02.08-.01.05-.01.08-.02.08-.01.08v.08l-.01.08v.08M108.77 281.62h-.16l-.08.01-.08.01-.08.01-.08.02-.05.01-.08.02-.08.02-.07.02-.08.03-.07.03-.08.03-.07.04-.07.03-.07.04-.07.04-.05.03-.06.05-.07.05-.06.05-.06.05-.06.05-.06.06-.06.05-.05.06-.05.07-.05.06-.05.06-.04.07-.03.05-.05.07-.03.07-.04.07-.04.07-.03.07-.03.08-.02.07-.03.08-.02.08-.02.08-.01.05-.02.08-.01.08-.01.08v.08l-.01.08v.08"/><path stroke="#231815" stroke-linecap="round" stroke-linejoin="round" stroke-width=".25" d="M108.77 282.29h-.16l-.08.01-.08.01-.08.01-.08.02-.05.01-.08.02-.08.02-.07.03-.08.02-.07.03-.08.03-.07.04-.07.03-.07.04-.07.05-.05.03-.06.04-.07.05-.06.05-.06.05-.06.05-.06.06-.06.06-.05.06-.05.06-.05.06-.05.07-.04.06-.03.05-.05.07-.03.07-.04.07-.04.07-.03.07-.03.08-.02.07-.03.08-.02.08-.02.08-.01.05-.02.08-.01.08-.01.08v.08l-.01.08v.08M115.15 281.62h-.16l-.08.01-.08.01-.08.01-.08.02-.05.01-.08.02-.08.02-.07.02-.08.03-.07.03-.08.03-.07.04-.07.03-.07.04-.07.04-.05.03-.07.05-.06.05-.06.05-.07.05-.05.05-.06.06-.06.05-.05.06-.05.07-.05.06-.05.06-.05.07-.03.05-.04.07-.04.07-.03.07-.04.07-.03.07-.03.08-.03.07-.02.08-.02.08-.02.08-.01.05-.02.08-.01.08-.01.08-.01.08v.16M143.05 284.01v-.16l-.01-.08-.01-.08-.01-.08-.02-.08-.01-.05-.02-.08-.02-.08-.02-.08-.03-.07-.03-.08-.03-.07-.04-.07-.03-.07-.04-.07-.04-.07-.03-.05-.05-.07-.05-.06-.05-.06-.05-.07-.05-.06-.06-.05-.05-.06-.06-.05-.07-.05-.06-.05-.06-.05-.07-.05-.05-.03-.07-.04-.07-.04-.07-.03-.07-.04-.07-.03-.08-.03-.08-.03-.07-.02-.08-.02-.08-.02-.05-.01-.08-.02-.08-.01-.08-.01-.08-.01h-.16"/><path stroke="#231815" stroke-linecap="round" stroke-linejoin="round" stroke-width=".25" d="M115.15 282.29h-.16l-.08.01-.08.01-.08.01-.08.02-.05.01-.08.02-.08.02-.07.03-.08.02-.07.03-.08.03-.07.04-.07.03-.07.04-.07.05-.05.03-.07.04-.06.05-.06.05-.07.05-.05.05-.06.06-.06.06-.05.06-.05.06-.05.06-.05.07-.05.06-.03.05-.04.07-.04.07-.03.07-.04.07-.03.07-.03.08-.03.07-.02.08-.02.08-.02.08-.01.05-.02.08-.01.08-.01.08-.01.08v.16M121.53 281.62h-.16l-.08.01-.08.01-.08.01-.08.02-.05.01-.08.02-.08.02-.08.02-.07.03-.08.03-.07.03-.07.04-.07.03-.07.04-.07.04-.05.03-.07.05-.06.05-.07.05-.06.05-.06.05-.05.06-.06.05-.05.06-.05.07-.05.06-.05.06-.05.07-.03.05-.04.07-.04.07-.04.07-.03.07-.03.07-.03.08-.03.07-.02.08-.02.08-.02.08-.02.05-.01.08-.01.08-.01.08-.01.08v.16"/><path stroke="#231815" stroke-linecap="round" stroke-linejoin="round" stroke-width=".25" d="M121.53 282.29h-.16l-.08.01-.08.01-.08.01-.08.02-.05.01-.08.02-.08.02-.08.03-.07.02-.08.03-.07.03-.07.04-.07.03-.07.04-.07.05-.05.03-.07.04-.06.05-.07.05-.06.05-.06.05-.05.06-.06.06-.05.06-.05.06-.05.06-.05.07-.05.06-.03.05-.04.07-.04.07-.04.07-.03.07-.03.07-.03.08-.03.07-.02.08-.02.08-.02.08-.02.05-.01.08-.01.08-.01.08-.01.08v.16M127.91 281.62h-.16l-.08.01-.08.01-.08.01-.08.02-.05.01-.08.02-.08.02-.08.02-.07.03-.08.03-.07.03-.07.04-.08.03-.07.04-.07.04-.04.03-.07.05-.06.05-.07.05-.06.05-.06.05-.06.06-.05.05-.06.06-.05.07-.05.06-.04.06-.05.07-.03.05-.04.07-.04.07-.04.07-.03.07-.03.07-.03.08-.03.07-.02.08-.03.08-.02.08-.01.05-.01.08-.01.08-.01.08-.01.08v.08l-.01.08"/><path stroke="#231815" stroke-linecap="round" stroke-linejoin="round" stroke-width=".25" d="M127.91 282.29h-.16l-.08.01-.08.01-.08.01-.08.02-.05.01-.08.02-.08.02-.08.03-.07.02-.08.03-.07.03-.07.04-.08.03-.07.04-.07.05-.04.03-.07.04-.06.05-.07.05-.06.05-.06.05-.06.06-.05.06-.06.06-.05.06-.05.06-.04.07-.05.06-.03.05-.04.07-.04.07-.04.07-.03.07-.03.07-.03.08-.03.07-.02.08-.03.08-.02.08-.01.05-.01.08-.01.08-.01.08-.01.08v.08l-.01.08M134.28 281.62h-.16l-.07.01-.08.01-.08.01-.08.02-.06.01-.08.02-.07.02-.08.02-.08.03-.07.03-.07.03-.08.04-.07.03-.07.04-.07.04-.05.03-.06.05-.07.05-.06.05-.06.05-.06.05-.06.06-.05.05-.06.06-.05.07-.05.06-.05.06-.04.07-.03.05-.04.07-.04.07-.04.07-.03.07-.04.07-.03.08-.02.07-.03.08-.02.08-.02.08-.01.05-.01.08-.02.08-.01.08v.08l-.01.08v.08"/><path stroke="#231815" stroke-linecap="round" stroke-linejoin="round" stroke-width=".25" d="M134.28 282.29h-.16l-.07.01-.08.01-.08.01-.08.02-.06.01-.08.02-.07.02-.08.03-.08.02-.07.03-.07.03-.08.04-.07.03-.07.04-.07.05-.05.03-.06.04-.07.05-.06.05-.06.05-.06.05-.06.06-.05.06-.06.06-.05.06-.05.06-.05.07-.04.06-.03.05-.04.07-.04.07-.04.07-.03.07-.04.07-.03.08-.02.07-.03.08-.02.08-.02.08-.01.05-.01.08-.02.08-.01.08v.08l-.01.08v.08M140.66 281.62h-.16l-.08.01-.08.01-.08.01-.08.02-.05.01-.08.02-.08.02-.07.02-.08.03-.07.03-.08.03-.07.04-.07.03-.07.04-.07.04-.05.03-.06.05-.07.05-.06.05-.06.05-.06.05-.06.06-.06.05-.05.06-.05.07-.05.06-.05.06-.04.07-.03.05-.05.07-.03.07-.04.07-.04.07-.03.07-.03.08-.02.07-.03.08-.02.08-.02.08-.01.05-.02.08-.01.08-.01.08v.08l-.01.08v.08M130.3 284.68v-.08l-.01-.08-.01-.08v-.08l-.02-.08-.01-.08-.01-.05-.02-.08-.02-.08-.03-.08-.03-.07-.03-.08-.03-.07-.03-.07-.04-.07-.04-.07-.04-.07-.03-.05-.04-.06-.05-.07-.05-.06-.05-.06-.06-.06-.05-.06-.06-.06-.06-.05-.06-.05-.06-.05-.07-.05-.07-.04-.04-.03-.07-.05-.07-.04-.07-.03-.08-.04-.07-.03-.08-.03-.07-.02-.08-.03-.08-.02-.07-.02-.06-.01-.08-.02-.08-.01-.08-.01-.08-.01h-.15"/><path stroke="#231815" stroke-linecap="round" stroke-linejoin="round" stroke-width=".25" d="M140.66 282.29h-.16l-.08.01-.08.01-.08.01-.08.02-.05.01-.08.02-.08.02-.07.03-.08.02-.07.03-.08.03-.07.04-.07.03-.07.04-.07.05-.05.03-.06.04-.07.05-.06.05-.06.05-.06.05-.06.06-.06.06-.05.06-.05.06-.05.06-.05.07-.04.06-.03.05-.05.07-.03.07-.04.07-.04.07-.03.07-.03.08-.02.07-.03.08-.02.08-.02.08-.01.05-.02.08-.01.08-.01.08v.08l-.01.08v.08M147.04 281.62h-.16l-.08.01-.08.01-.08.01-.08.02-.05.01-.08.02-.08.02-.07.02-.08.03-.07.03-.08.03-.07.04-.07.03-.07.04-.07.04-.05.03-.07.05-.06.05-.06.05-.07.05-.05.05-.06.06-.06.05-.05.06-.05.07-.05.06-.05.06-.05.07-.03.05-.04.07-.04.07-.03.07-.04.07-.03.07-.03.08-.03.07-.02.08-.02.08-.02.08-.01.05-.02.08-.01.08-.01.08-.01.08v.16"/><path stroke="#231815" stroke-linecap="round" stroke-linejoin="round" stroke-width=".25" d="M147.04 282.29h-.16l-.08.01-.08.01-.08.01-.08.02-.05.01-.08.02-.08.02-.07.03-.08.02-.07.03-.08.03-.07.04-.07.03-.07.04-.07.05-.05.03-.07.04-.06.05-.06.05-.07.05-.05.05-.06.06-.06.06-.05.06-.05.06-.05.06-.05.07-.05.06-.03.05-.04.07-.04.07-.03.07-.04.07-.03.07-.03.08-.03.07-.02.08-.02.08-.02.08-.01.05-.02.08-.01.08-.01.08-.01.08v.16M153.42 281.62h-.16l-.08.01-.08.01-.08.01-.08.02-.05.01-.08.02-.08.02-.08.02-.07.03-.08.03-.07.03-.07.04-.07.03-.07.04-.07.04-.05.03-.07.05-.06.05-.07.05-.06.05-.06.05-.05.06-.06.05-.05.06-.05.07-.05.06-.05.06-.05.07-.03.05-.04.07-.04.07-.04.07-.03.07-.03.07-.03.08-.03.07-.02.08-.02.08-.02.08-.02.05-.01.08-.01.08-.01.08-.01.08v.16M149.43 284.68v-.16l-.01-.08-.01-.08-.01-.08-.02-.08-.01-.05-.02-.08-.02-.08-.03-.08-.02-.07-.03-.08-.03-.07-.04-.07-.03-.07-.04-.07-.05-.07-.03-.05-.04-.06-.05-.07-.05-.06-.05-.06-.05-.06-.06-.06-.06-.06-.06-.05-.06-.05-.06-.05-.07-.05-.06-.04-.05-.03-.07-.05-.07-.04-.07-.03-.07-.04-.08-.03-.07-.03-.08-.02-.07-.03-.08-.02-.08-.02-.05-.01-.08-.02-.08-.01-.08-.01-.08-.01h-.16"/><path stroke="#231815" stroke-linecap="round" stroke-linejoin="round" stroke-width=".25" d="M153.42 282.29h-.16l-.08.01-.08.01-.08.01-.08.02-.05.01-.08.02-.08.02-.08.03-.07.02-.08.03-.07.03-.07.04-.07.03-.07.04-.07.05-.05.03-.07.04-.06.05-.07.05-.06.05-.06.05-.05.06-.06.06-.05.06-.05.06-.05.06-.05.07-.05.06-.03.05-.04.07-.04.07-.04.07-.03.07-.03.07-.03.08-.03.07-.02.08-.02.08-.02.08-.02.05-.01.08-.01.08-.01.08-.01.08v.16M159.8 281.62h-.16l-.08.01-.08.01-.08.01-.08.02-.05.01-.08.02-.08.02-.08.02-.07.03-.08.03-.07.03-.08.04-.07.03-.07.04-.07.04-.04.03-.07.05-.06.05-.07.05-.06.05-.06.05-.06.06-.05.05-.06.06-.05.07-.05.06-.04.06-.05.07-.03.05-.04.07-.04.07-.04.07-.03.07-.03.07-.03.08-.03.07-.02.08-.03.08-.02.08-.01.05-.01.08-.01.08-.01.08-.01.08-.01.08v.08M117.54 284.68v-.16l-.01-.08-.01-.08-.01-.08-.02-.08-.01-.05-.02-.08-.02-.08-.03-.08-.02-.07-.03-.08-.03-.07-.04-.07-.03-.07-.04-.07-.05-.07-.03-.05-.04-.06-.05-.07-.05-.06-.05-.06-.05-.06-.06-.06-.06-.06-.06-.05-.06-.05-.06-.05-.07-.05-.06-.04-.05-.03-.07-.05-.07-.04-.07-.03-.07-.04-.08-.03-.07-.03-.08-.02-.07-.03-.08-.02-.08-.02-.05-.01-.08-.02-.08-.01-.08-.01-.08-.01h-.16"/><path stroke="#231815" stroke-linecap="round" stroke-linejoin="round" stroke-width=".25" d="M159.8 282.29h-.16l-.08.01-.08.01-.08.01-.08.02-.05.01-.08.02-.08.02-.08.03-.07.02-.08.03-.07.03-.08.04-.07.03-.07.04-.07.05-.04.03-.07.04-.06.05-.07.05-.06.05-.06.05-.06.06-.05.06-.06.06-.05.06-.05.06-.04.07-.05.06-.03.05-.04.07-.04.07-.04.07-.03.07-.03.07-.03.08-.03.07-.02.08-.03.08-.02.08-.01.05-.01.08-.01.08-.01.08-.01.08-.01.08v.08M71.39 339.88V230.17M74.29 339.52V230.93M167.16 339.61l-7.79 7.78M169.43 341.43l-8.23 8.24M82.29 349.81l-10.12-8.27M83.91 347.39l-9.62-7.87M167.16 230.93v108.68M170.06 230.17v109.75M159.69 350.3H83.64M159.37 347.39H83.91M74.29 230.93h92.87M73.53 228.03h94.39M71.39 339.88c0 .64.29 1.25.78 1.65M82.29 349.81c.38.31.86.48 1.35.48M73.53 228.03c-1.18 0-2.14.96-2.14 2.14M159.69 350.3c.57 0 1.11-.23 1.51-.63M169.43 341.43c.4-.4.63-.94.63-1.51M170.06 230.17c0-1.18-.96-2.14-2.14-2.14"/><path stroke="#231815" stroke-linecap="round" stroke-linejoin="round" d="m120.72 544.57-2.5.39M168.56 545.24h-6.15M158.31 544.96l-5.81-.91M118.22 544.96l-.23.03-.25.04-.25.03-.26.03-.27.02-.28.03-.29.02h-.08l-.32.02-.32.02-.32.01-.32.01-.33.01-.34.01h-.24M162.41 545.24h-.25l-.33-.01-.33-.01-.32-.01-.33-.01-.31-.02-.32-.02h-.08l-.3-.02-.28-.03-.27-.02-.26-.03-.25-.03-.24-.04-.23-.03M124.03 544.05l-3.31.52M149.83 543.87h-23.14M126.69 543.87h-.15l-.22.01h-.21l-.22.01-.2.01-.21.01-.21.01h-.05l-.19.02-.18.01-.18.02-.17.02-.16.02-.16.02-.15.02M152.5 544.05l-.15-.02-.16-.02-.17-.02-.16-.02-.18-.02-.18-.01-.19-.02h-.06l-.2-.01-.21-.01-.21-.01-.21-.01h-.21l-.22-.01h-.16M72.89 35h95.67M41 513.35V66.89M41 66.89l.02-1.06.05-1.07.09-1.07.13-1.07.15-.99.19-1.06.24-1.05.22-.9.3-1.04.33-1.02.36-1 .4-.99.43-.98.46-.97.5-.95.52-.93.46-.75.58-.9.61-.88.65-.86.52-.65.69-.82.72-.79.74-.77.77-.74.8-.72.82-.69.65-.52.86-.64.88-.61.9-.59.74-.44.93-.53.95-.49.97-.46.98-.43.99-.39 1.01-.37 1.02-.32 1.03-.3.89-.22 1.05-.23 1.05-.2.97-.14 1.07-.13 1.07-.09 1.07-.05 1.06-.02M168.56 35l1.06.02 1.07.05 1.07.09 1.07.13.97.14 1.05.2 1.05.23.89.22 1.03.3 1.02.32 1.01.37.99.39.98.43.96.46.96.49.93.53.74.44.9.59.88.61.86.64.65.52.82.69.8.72.77.74.74.77.72.79.69.82.52.65.65.86.61.88.58.9.46.75.52.93.5.95.46.97.43.98.4.99.36 1 .33 1.02.3 1.04.22.9.23 1.05.2 1.06.15.99.13 1.07.09 1.07.05 1.07.02 1.06M200.45 66.89v446.46M200.45 513.35l-.02 1.06-.05 1.07-.09 1.07-.13 1.06-.15.99-.19 1.06-.2.91-.26 1.04-.3 1.03-.33 1.02-.36 1.01-.39.99-.43.98-.47.96-.49.95-.53.94-.45.74-.58.9-.62.88-.5.68-.66.84-.69.82-.72.79-.75.77-.77.74-.79.72-.82.69-.84.67-.68.49-.88.62-.9.58-.74.44-.93.53-.95.5-.97.46-.98.43-.99.39-1.01.36-1.02.33-1.03.29-1.04.26-.9.2-1.05.19-.97.15-1.07.12-1.07.09-1.07.06-1.06.02M114.12 545.24H100.9M81.73 539.02h-7.75M87.81 538.26h10.62M100.9 545.24l-1.13-.21M82.56 537.82l.33.07 1.47.21 1.82.13 1.63.03M98.43 538.56l.53 5.59M82.53 538.75l.03-.93M98.96 544.15l-.01-.08M98.43 538.56v-.07M98.43 538.49v-.23M67.2 544.73c.65 0 1.3-.03 1.95-.07M72.83 539c.38.01.76.02 1.14.02M82.53 538.75v.06l-.01.02v.01l-.01.02v.01l-.01.02-.01.01-.02.01-.01.01-.01.01-.02.01h-.01M82.42 538.94l-.02.01h-.02l-.01.01h-.02l-.02.01h-.03l-.02.01h-.04M82.24 538.98h-.01l-.05.01-.05.01h-.09l-.05.01h-.11l-.05.01h-.1M67.2 544.73l-.99-.2-1-.23-.99-.26-.45-.14-.97-.3-.97-.34-.95-.37-.39-.16-.94-.42-.92-.44-.9-.47-.89-.5-.87-.52-.86-.56-.84-.58-.82-.61-.31-.25-.79-.64-.77-.67-.29-.27-.74-.7-.72-.73-.69-.75-.67-.77-.64-.79-.62-.81-.59-.83-.23-.33-.56-.86-.52-.88-.5-.89-.2-.38-.46-.92-.43-.92-.4-.94-.36-.95-.34-.96-.3-.98-.28-.98-.24-.99-.21-1-.09-.48-.16-1.01-.08-.54-.11-1.01-.08-1.02-.05-1.02-.02-1.01M69.65 539.32l-.05.53-.05.53-.05.54-.05.53-.05.53-.05.54-.05.53-.05.54-.05.53-.05.53M72.83 539l-.13-.01-.29-.01h-.28l-.26-.01h-.25l-.14.01h-.43l-.17.01-.15.01-.14.01-.07.01-.12.01-.1.01-.1.02h-.04l-.08.02-.06.01-.06.02-.06.01-.02.01-.05.02-.04.01v.01l-.03.01-.02.01-.02.02-.02.01-.01.02-.02.01-.01.02-.01.02v.03M99.77 545.03l-.04-.01-.04-.01-.04-.01-.03-.01-.04-.02-.04-.01-.03-.02-.04-.02-.03-.02-.04-.02-.03-.03-.03-.02-.04-.03-.01-.01-.03-.03-.03-.03-.03-.03-.02-.03-.03-.04-.03-.04-.02-.03-.02-.04-.02-.03-.02-.04-.02-.04-.01-.04-.01-.04-.02-.03-.01-.04v-.04l-.01-.04v-.03"/><path stroke="#a42444" stroke-dasharray="5 5" stroke-linecap="round" stroke-linejoin="round" stroke-width="2" d="M88.5 473c10.217 0 18.5-8.283 18.5-18.5S98.717 436 88.5 436 70 444.283 70 454.5 78.283 473 88.5 473"/></svg>