<svg xmlns="http://www.w3.org/2000/svg" width="522" height="769" fill="none" viewBox="0 0 522 769"><path fill="#fff" d="M0 0h522v769H0z"/><path fill="#231815" d="M397.98 588.12h-6.97v113.34h6.97z"/><path stroke="#fff" stroke-miterlimit="10" stroke-width=".37" d="M394.5 588.52v112.81"/><path fill="#fff" stroke="#231815" stroke-miterlimit="10" stroke-width=".27" d="M92.91 84.6h-6.97v448.56h6.97z"/><path fill="#fff" stroke="#231815" stroke-miterlimit="10" stroke-width=".28" d="M200.65 84.86h-6.97V587.8h6.97z"/><path fill="#e68011" d="M103.09 84.6h-6.97v448.56h6.97z"/><path fill="#231815" d="M113.26 84.6h-6.97v448.56h6.97z"/><path fill="#f4d923" d="M123.43 84.6h-6.97v448.56h6.97z"/><path fill="#727171" d="M133.6 84.6h-6.97v492.62h6.97z"/><path fill="#591f7d" d="M143.78 84.6h-6.97v489.74h6.97z"/><path fill="#8b1c21" d="M153.95 84.6h-6.97v493.49h6.97z"/><path fill="#fff" stroke="#231815" stroke-miterlimit="10" stroke-width=".28" d="M164.12 84.6h-6.97v496.31h6.97z"/><path stroke="#231815" stroke-miterlimit="10" stroke-width=".74" d="M160.64 84.6v496.31"/><path stroke="#0068b7" stroke-miterlimit="10" stroke-width="2.6" d="M185.03 229.94c0 3.34-2.71 6.05-6.05 6.05s-6.05 2.71-6.05 6.05M185.03 254.15c0 3.34-2.71 6.05-6.05 6.05s-6.05 2.71-6.05 6.05M185.03 205.74c0 3.34-2.71 6.05-6.05 6.05s-6.05 2.71-6.05 6.05M185.03 181.82c0 3.34-2.71 6.05-6.05 6.05s-6.05 2.71-6.05 6.05M185.03 157.62c0 3.34-2.71 6.05-6.05 6.05s-6.05 2.71-6.05 6.05M185.03 133.41c0 3.34-2.71 6.05-6.05 6.05s-6.05 2.71-6.05 6.05M188.89 84.75v22.05M188.89 106.8c0 4.01-3.57 7.26-7.98 7.26s-7.98 3.25-7.98 7.26"/><path stroke="#ffe100" stroke-miterlimit="10" stroke-width="2.6" d="M172.93 253.63c0 3.34 2.71 6.05 6.05 6.05s6.05 2.71 6.05 6.05M185.03 241.52c0 3.34-2.71 6.05-6.05 6.05s-6.05 2.71-6.05 6.05M172.93 229.42c0 3.34 2.71 6.05 6.05 6.05s6.05 2.71 6.05 6.05"/><path stroke="#ffe100" stroke-miterlimit="10" stroke-width="2.6" d="M185.03 217.32c0 3.34-2.71 6.05-6.05 6.05s-6.05 2.71-6.05 6.05"/><path stroke="#ffe100" stroke-miterlimit="10" stroke-width="2.6" d="M172.93 205.22c0 3.34 2.71 6.05 6.05 6.05s6.05 2.71 6.05 6.05"/><path stroke="#ffe100" stroke-miterlimit="10" stroke-width="2.6" d="M185.03 193.12c0 3.34-2.71 6.05-6.05 6.05s-6.05 2.71-6.05 6.05M172.93 181.01c0 3.34 2.71 6.05 6.05 6.05s6.05 2.71 6.05 6.05M169.53 84.86v22.28M172.93 156.81c0 3.34 2.71 6.05 6.05 6.05s6.05 2.71 6.05 6.05"/><path stroke="#ffe100" stroke-miterlimit="10" stroke-width="2.6" d="M185.03 144.71c0 3.34-2.71 6.05-6.05 6.05s-6.05 2.71-6.05 6.05M185.03 168.91c0 3.34-2.71 6.05-6.05 6.05s-6.05 2.71-6.05 6.05M172.93 132.6c0 3.34 2.71 6.05 6.05 6.05s6.05 2.71 6.05 6.05"/><path stroke="#0068b7" stroke-miterlimit="10" stroke-width="2.6" d="M172.93 145.52c0 3.34 2.71 6.05 6.05 6.05s6.05 2.71 6.05 6.05M172.93 169.72c0 3.34 2.71 6.05 6.05 6.05s6.05 2.71 6.05 6.05M172.93 193.64c0 3.34 2.71 6.05 6.05 6.05s6.05 2.71 6.05 6.05M172.93 217.84c0 3.34 2.71 6.05 6.05 6.05s6.05 2.71 6.05 6.05M172.93 242.05c0 3.34 2.71 6.05 6.05 6.05s6.05 2.71 6.05 6.05"/><path stroke="#ffe100" stroke-miterlimit="10" stroke-width="2.6" d="M185.03 120.5c0 3.34-2.71 6.05-6.05 6.05s-6.05 2.71-6.05 6.05M169.53 107.14c0 3.69 3.47 6.68 7.75 6.68s7.75 2.99 7.75 6.68"/><path stroke="#fff" stroke-miterlimit="10" stroke-width=".92" d="m176.4 266.66-7.7-6.46M187.25 257.96l-6.36-5.34M176.4 242.32l-7.7-6.46M187.39 233.89l-6.35-5.34M176.54 218.25l-7.7-6.46M187.63 209.97l-6.36-5.34M176.78 194.33l-7.7-6.46M187.17 185.47l-6.36-5.34M176.32 169.83l-7.7-6.46M187.33 161.56l-6.36-5.34M176.47 145.92l-7.69-6.46"/><path stroke="#0068b7" stroke-miterlimit="10" stroke-width="2.6" d="M172.93 121.31c0 3.34 2.71 6.05 6.05 6.05s6.05 2.71 6.05 6.05"/><path stroke="#fff" stroke-miterlimit="10" stroke-width=".92" d="m187.52 137.6-6.36-5.33M176.67 121.97l-7.7-6.46M192.36 110.37l-7.7-6.46M192.36 96.36l-7.7-6.46"/><mask id="a" width="18" height="13" x="170" y="253" maskUnits="userSpaceOnUse" style="mask-type:luminance"><path fill="#fff" d="M170.34 253.63h5.21c0 1.9 1.55 3.45 3.45 3.45 4.77 0 8.65 3.88 8.65 8.65h-5.21c0-1.9-1.55-3.45-3.45-3.45-4.77 0-8.65-3.88-8.65-8.66z"/></mask><g mask="url(#a)"><path stroke="#040000" stroke-miterlimit="10" stroke-width=".92" d="m187.4 269.84-5.92-4.97"/></g><mask id="b" width="18" height="13" x="170" y="229" maskUnits="userSpaceOnUse" style="mask-type:luminance"><path fill="#fff" d="M170.34 229.42h5.21c0 1.9 1.55 3.45 3.45 3.45 4.77 0 8.65 3.88 8.65 8.65h-5.21c0-1.9-1.55-3.45-3.45-3.45-4.77 0-8.65-3.88-8.65-8.66z"/></mask><g mask="url(#b)"><path stroke="#040000" stroke-miterlimit="10" stroke-width=".92" d="m187.4 245.64-5.92-4.97"/></g><mask id="c" width="18" height="13" x="170" y="241" maskUnits="userSpaceOnUse" style="mask-type:luminance"><path fill="#fff" d="M170.34 253.63c0-4.77 3.88-8.65 8.65-8.65 1.9 0 3.45-1.55 3.45-3.45h5.21c0 4.77-3.88 8.66-8.65 8.66-1.9 0-3.45 1.55-3.45 3.45h-5.21z"/></mask><g mask="url(#c)"><path stroke="#040000" stroke-miterlimit="10" stroke-width=".92" d="m187.4 245.64-5.92-4.97"/></g><mask id="d" width="18" height="13" x="170" y="205" maskUnits="userSpaceOnUse" style="mask-type:luminance"><path fill="#fff" d="M170.34 205.22h5.21c0 1.9 1.55 3.45 3.45 3.45 4.77 0 8.65 3.88 8.65 8.65h-5.21c0-1.9-1.55-3.45-3.45-3.45-4.77 0-8.65-3.88-8.65-8.66z"/></mask><g mask="url(#d)"><path stroke="#040000" stroke-miterlimit="10" stroke-width=".92" d="m187.4 221.43-5.92-4.97"/></g><mask id="e" width="18" height="13" x="170" y="217" maskUnits="userSpaceOnUse" style="mask-type:luminance"><path fill="#fff" d="M170.34 229.42c0-4.77 3.88-8.65 8.65-8.65 1.9 0 3.45-1.55 3.45-3.45h5.21c0 4.77-3.88 8.66-8.65 8.66-1.9 0-3.45 1.55-3.45 3.45h-5.21z"/></mask><g mask="url(#e)"><path stroke="#040000" stroke-miterlimit="10" stroke-width=".92" d="m187.4 221.43-5.92-4.97"/></g><mask id="f" width="18" height="13" x="170" y="181" maskUnits="userSpaceOnUse" style="mask-type:luminance"><path fill="#fff" d="M170.34 181.01h5.21c0 1.9 1.55 3.45 3.45 3.45 4.77 0 8.65 3.88 8.65 8.65h-5.21c0-1.9-1.55-3.45-3.45-3.45-4.77 0-8.65-3.88-8.65-8.66z"/></mask><g mask="url(#f)"><path stroke="#040000" stroke-miterlimit="10" stroke-width=".92" d="m187.4 197.23-5.92-4.97"/></g><mask id="g" width="18" height="13" x="170" y="193" maskUnits="userSpaceOnUse" style="mask-type:luminance"><path fill="#fff" d="M170.34 205.22c0-4.77 3.88-8.65 8.65-8.65 1.9 0 3.45-1.55 3.45-3.45h5.21c0 4.77-3.88 8.66-8.65 8.66-1.9 0-3.45 1.55-3.45 3.45h-5.21z"/></mask><g mask="url(#g)"><path stroke="#040000" stroke-miterlimit="10" stroke-width=".92" d="m187.4 197.23-5.92-4.97"/></g><mask id="h" width="18" height="13" x="170" y="156" maskUnits="userSpaceOnUse" style="mask-type:luminance"><path fill="#fff" d="M170.34 156.81h5.21c0 1.9 1.55 3.45 3.45 3.45 4.77 0 8.65 3.88 8.65 8.65h-5.21c0-1.9-1.55-3.45-3.45-3.45-4.77 0-8.65-3.88-8.65-8.66z"/></mask><g mask="url(#h)"><path stroke="#040000" stroke-miterlimit="10" stroke-width=".92" d="m187.4 173.02-5.92-4.97"/></g><mask id="i" width="18" height="14" x="170" y="168" maskUnits="userSpaceOnUse" style="mask-type:luminance"><path fill="#fff" d="M170.34 181.01c0-4.77 3.88-8.65 8.65-8.65 1.9 0 3.45-1.55 3.45-3.45h5.21c0 4.77-3.88 8.66-8.65 8.66-1.9 0-3.45 1.55-3.45 3.45h-5.21z"/></mask><g mask="url(#i)"><path stroke="#040000" stroke-miterlimit="10" stroke-width=".92" d="m187.4 173.02-5.92-4.97"/></g><mask id="j" width="18" height="13" x="170" y="132" maskUnits="userSpaceOnUse" style="mask-type:luminance"><path fill="#fff" d="M170.34 132.6h5.21c0 1.9 1.55 3.45 3.45 3.45 4.77 0 8.65 3.88 8.65 8.65h-5.21c0-1.9-1.55-3.45-3.45-3.45-4.77 0-8.65-3.88-8.65-8.66z"/></mask><g mask="url(#j)"><path stroke="#040000" stroke-miterlimit="10" stroke-width=".92" d="m187.4 148.82-5.92-4.97"/></g><mask id="k" width="18" height="13" x="170" y="144" maskUnits="userSpaceOnUse" style="mask-type:luminance"><path fill="#fff" d="M170.34 156.81c0-4.77 3.88-8.65 8.65-8.65 1.9 0 3.45-1.55 3.45-3.45h5.21c0 4.77-3.88 8.66-8.65 8.66-1.9 0-3.45 1.55-3.45 3.45h-5.21z"/></mask><g mask="url(#k)"><path stroke="#040000" stroke-miterlimit="10" stroke-width=".92" d="m187.4 148.82-5.92-4.97"/></g><mask id="l" width="18" height="13" x="170" y="108" maskUnits="userSpaceOnUse" style="mask-type:luminance"><path fill="#fff" d="M170.34 108.4h5.21c0 1.9 1.55 3.45 3.45 3.45 4.77 0 8.65 3.88 8.65 8.65h-5.21c0-1.9-1.55-3.45-3.45-3.45-4.77 0-8.65-3.88-8.65-8.66z"/></mask><g mask="url(#l)"><path stroke="#040000" stroke-miterlimit="10" stroke-width=".92" d="m187.4 124.61-5.92-4.97"/></g><mask id="m" width="18" height="13" x="170" y="120" maskUnits="userSpaceOnUse" style="mask-type:luminance"><path fill="#fff" d="M170.34 132.61c0-4.77 3.88-8.65 8.65-8.65 1.9 0 3.45-1.55 3.45-3.45h5.21c0 4.77-3.88 8.66-8.65 8.66-1.9 0-3.45 1.55-3.45 3.45h-5.21z"/></mask><g mask="url(#m)"><path stroke="#040000" stroke-miterlimit="10" stroke-width=".92" d="m187.4 124.61-5.92-4.97"/></g><mask id="n" width="18" height="13" x="170" y="241" maskUnits="userSpaceOnUse" style="mask-type:luminance"><path fill="#fff" d="M170.32 253.63c0-4.77 3.88-8.65 8.65-8.65 1.9 0 3.45-1.55 3.45-3.45h5.21c0 4.77-3.88 8.65-8.65 8.65-1.9 0-3.45 1.55-3.45 3.45z"/></mask><g mask="url(#n)"><path stroke="#040000" stroke-miterlimit="10" stroke-width=".92" d="m177.54 254.98-7.7-6.46"/></g><mask id="o" width="18" height="13" x="170" y="253" maskUnits="userSpaceOnUse" style="mask-type:luminance"><path fill="#fff" d="M170.32 253.63h5.21c0 1.9 1.55 3.45 3.45 3.45 4.77 0 8.65 3.88 8.65 8.65h-5.21c0-1.9-1.55-3.45-3.45-3.45-4.77 0-8.65-3.88-8.65-8.65"/></mask><g mask="url(#o)"><path stroke="#040000" stroke-miterlimit="10" stroke-width=".92" d="m177.54 254.98-7.7-6.46"/></g><mask id="p" width="18" height="13" x="170" y="217" maskUnits="userSpaceOnUse" style="mask-type:luminance"><path fill="#fff" d="M170.32 229.42c0-4.77 3.88-8.65 8.65-8.65 1.9 0 3.45-1.55 3.45-3.45h5.21c0 4.77-3.88 8.65-8.65 8.65-1.9 0-3.45 1.55-3.45 3.45z"/></mask><g mask="url(#p)"><path stroke="#040000" stroke-miterlimit="10" stroke-width=".92" d="m177.54 230.78-7.7-6.46"/></g><mask id="q" width="18" height="13" x="170" y="229" maskUnits="userSpaceOnUse" style="mask-type:luminance"><path fill="#fff" d="M170.32 229.42h5.21c0 1.9 1.55 3.45 3.45 3.45 4.77 0 8.65 3.88 8.65 8.65h-5.21c0-1.9-1.55-3.45-3.45-3.45-4.77 0-8.65-3.88-8.65-8.65"/></mask><g mask="url(#q)"><path stroke="#040000" stroke-miterlimit="10" stroke-width=".92" d="m177.54 230.78-7.7-6.46"/></g><mask id="r" width="18" height="13" x="170" y="193" maskUnits="userSpaceOnUse" style="mask-type:luminance"><path fill="#fff" d="M170.32 205.22c0-4.77 3.88-8.65 8.65-8.65 1.9 0 3.45-1.55 3.45-3.45h5.21c0 4.77-3.88 8.65-8.65 8.65-1.9 0-3.45 1.55-3.45 3.45z"/></mask><g mask="url(#r)"><path stroke="#040000" stroke-miterlimit="10" stroke-width=".92" d="m177.54 206.57-7.7-6.46"/></g><mask id="s" width="18" height="13" x="170" y="205" maskUnits="userSpaceOnUse" style="mask-type:luminance"><path fill="#fff" d="M170.32 205.22h5.21c0 1.9 1.55 3.45 3.45 3.45 4.77 0 8.65 3.88 8.65 8.65h-5.21c0-1.9-1.55-3.45-3.45-3.45-4.77 0-8.65-3.88-8.65-8.65"/></mask><g mask="url(#s)"><path stroke="#040000" stroke-miterlimit="10" stroke-width=".92" d="m177.54 206.57-7.7-6.46"/></g><path stroke="#0068b7" stroke-miterlimit="10" stroke-width="2.6" d="M185.03 302.56c0 3.34-2.71 6.05-6.05 6.05s-6.05 2.71-6.05 6.05M185.03 326.76c0 3.34-2.71 6.05-6.05 6.05s-6.05 2.71-6.05 6.05M185.03 278.35c0 3.34-2.71 6.05-6.05 6.05s-6.05 2.71-6.05 6.05"/><path stroke="#ffe100" stroke-miterlimit="10" stroke-width="2.6" d="M172.93 326.24c0 3.34 2.71 6.05 6.05 6.05s6.05 2.71 6.05 6.05M185.03 314.14c0 3.34-2.71 6.05-6.05 6.05s-6.05 2.71-6.05 6.05"/><path stroke="#ffe100" stroke-miterlimit="10" stroke-width="2.6" d="M172.93 302.04c0 3.34 2.71 6.05 6.05 6.05s6.05 2.71 6.05 6.05M185.03 289.93c0 3.34-2.71 6.05-6.05 6.05s-6.05 2.71-6.05 6.05M172.93 277.83c0 3.34 2.71 6.05 6.05 6.05s6.05 2.71 6.05 6.05"/><path stroke="#ffe100" stroke-miterlimit="10" stroke-width="2.6" d="M185.03 265.73c0 3.34-2.71 6.05-6.05 6.05s-6.05 2.71-6.05 6.05"/><path stroke="#0068b7" stroke-miterlimit="10" stroke-width="2.6" d="M172.93 266.25c0 3.34 2.71 6.05 6.05 6.05s6.05 2.71 6.05 6.05M172.93 290.46c0 3.34 2.71 6.05 6.05 6.05s6.05 2.71 6.05 6.05M172.93 314.66c0 3.34 2.71 6.05 6.05 6.05s6.05 2.71 6.05 6.05"/><path stroke="#fff" stroke-miterlimit="10" stroke-width=".92" d="m187.25 330.57-6.36-5.34M176.4 314.93l-7.7-6.46M187.39 306.5l-6.35-5.34M176.54 290.86l-7.7-6.46M187.63 282.58l-6.36-5.33"/><mask id="t" width="18" height="13" x="170" y="326" maskUnits="userSpaceOnUse" style="mask-type:luminance"><path fill="#fff" d="M170.34 326.24h5.21c0 1.9 1.55 3.45 3.45 3.45 4.77 0 8.65 3.88 8.65 8.65h-5.21c0-1.9-1.55-3.45-3.45-3.45-4.77 0-8.65-3.88-8.65-8.66z"/></mask><g mask="url(#t)"><path stroke="#040000" stroke-miterlimit="10" stroke-width=".92" d="m187.4 342.45-5.92-4.97"/></g><mask id="u" width="18" height="13" x="170" y="302" maskUnits="userSpaceOnUse" style="mask-type:luminance"><path fill="#fff" d="M170.34 302.04h5.21c0 1.9 1.55 3.45 3.45 3.45 4.77 0 8.65 3.88 8.65 8.65h-5.21c0-1.9-1.55-3.45-3.45-3.45-4.77 0-8.65-3.88-8.65-8.66z"/></mask><g mask="url(#u)"><path stroke="#040000" stroke-miterlimit="10" stroke-width=".92" d="m187.4 318.25-5.92-4.97"/></g><mask id="v" width="18" height="13" x="170" y="314" maskUnits="userSpaceOnUse" style="mask-type:luminance"><path fill="#fff" d="M170.34 326.24c0-4.77 3.88-8.65 8.65-8.65 1.9 0 3.45-1.55 3.45-3.45h5.21c0 4.77-3.88 8.66-8.65 8.66-1.9 0-3.45 1.55-3.45 3.45h-5.21z"/></mask><g mask="url(#v)"><path stroke="#040000" stroke-miterlimit="10" stroke-width=".92" d="m187.4 318.25-5.92-4.97"/></g><mask id="w" width="18" height="13" x="170" y="277" maskUnits="userSpaceOnUse" style="mask-type:luminance"><path fill="#fff" d="M170.34 277.83h5.21c0 1.9 1.55 3.45 3.45 3.45 4.77 0 8.65 3.88 8.65 8.65h-5.21c0-1.9-1.55-3.45-3.45-3.45-4.77 0-8.65-3.88-8.65-8.66z"/></mask><g mask="url(#w)"><path stroke="#040000" stroke-miterlimit="10" stroke-width=".92" d="m187.4 294.05-5.92-4.97"/></g><mask id="x" width="18" height="14" x="170" y="289" maskUnits="userSpaceOnUse" style="mask-type:luminance"><path fill="#fff" d="M170.34 302.04c0-4.77 3.88-8.65 8.65-8.65 1.9 0 3.45-1.55 3.45-3.45h5.21c0 4.77-3.88 8.66-8.65 8.66-1.9 0-3.45 1.55-3.45 3.45h-5.21z"/></mask><g mask="url(#x)"><path stroke="#040000" stroke-miterlimit="10" stroke-width=".92" d="m187.4 294.05-5.92-4.97"/></g><mask id="y" width="18" height="13" x="170" y="265" maskUnits="userSpaceOnUse" style="mask-type:luminance"><path fill="#fff" d="M170.34 277.83c0-4.77 3.88-8.65 8.65-8.65 1.9 0 3.45-1.55 3.45-3.45h5.21c0 4.77-3.88 8.66-8.65 8.66-1.9 0-3.45 1.55-3.45 3.45h-5.21z"/></mask><g mask="url(#y)"><path stroke="#040000" stroke-miterlimit="10" stroke-width=".92" d="m187.4 269.84-5.92-4.97"/></g><mask id="z" width="18" height="13" x="170" y="314" maskUnits="userSpaceOnUse" style="mask-type:luminance"><path fill="#fff" d="M170.32 326.24c0-4.77 3.88-8.65 8.65-8.65 1.9 0 3.45-1.55 3.45-3.45h5.21c0 4.77-3.88 8.65-8.65 8.65-1.9 0-3.45 1.55-3.45 3.45z"/></mask><g mask="url(#z)"><path stroke="#040000" stroke-miterlimit="10" stroke-width=".92" d="m177.54 327.6-7.7-6.46"/></g><mask id="A" width="18" height="13" x="170" y="326" maskUnits="userSpaceOnUse" style="mask-type:luminance"><path fill="#fff" d="M170.32 326.24h5.21c0 1.9 1.55 3.45 3.45 3.45 4.77 0 8.65 3.88 8.65 8.65h-5.21c0-1.9-1.55-3.45-3.45-3.45-4.77 0-8.65-3.88-8.65-8.65"/></mask><g mask="url(#A)"><path stroke="#040000" stroke-miterlimit="10" stroke-width=".92" d="m177.54 327.6-7.7-6.46"/></g><mask id="B" width="18" height="14" x="170" y="289" maskUnits="userSpaceOnUse" style="mask-type:luminance"><path fill="#fff" d="M170.32 302.04c0-4.77 3.88-8.65 8.65-8.65 1.9 0 3.45-1.55 3.45-3.45h5.21c0 4.77-3.88 8.65-8.65 8.65-1.9 0-3.45 1.55-3.45 3.45z"/></mask><g mask="url(#B)"><path stroke="#040000" stroke-miterlimit="10" stroke-width=".92" d="m177.54 303.39-7.7-6.46"/></g><mask id="C" width="18" height="13" x="170" y="302" maskUnits="userSpaceOnUse" style="mask-type:luminance"><path fill="#fff" d="M170.32 302.04h5.21c0 1.9 1.55 3.45 3.45 3.45 4.77 0 8.65 3.88 8.65 8.65h-5.21c0-1.9-1.55-3.45-3.45-3.45-4.77 0-8.65-3.88-8.65-8.65"/></mask><g mask="url(#C)"><path stroke="#040000" stroke-miterlimit="10" stroke-width=".92" d="m177.54 303.39-7.7-6.46"/></g><mask id="D" width="18" height="13" x="170" y="265" maskUnits="userSpaceOnUse" style="mask-type:luminance"><path fill="#fff" d="M170.32 277.83c0-4.77 3.88-8.65 8.65-8.65 1.9 0 3.45-1.55 3.45-3.45h5.21c0 4.77-3.88 8.65-8.65 8.65-1.9 0-3.45 1.55-3.45 3.45z"/></mask><g mask="url(#D)"><path stroke="#040000" stroke-miterlimit="10" stroke-width=".92" d="m177.54 279.19-7.7-6.46"/></g><mask id="E" width="18" height="13" x="170" y="277" maskUnits="userSpaceOnUse" style="mask-type:luminance"><path fill="#fff" d="M170.32 277.83h5.21c0 1.9 1.55 3.45 3.45 3.45 4.77 0 8.65 3.88 8.65 8.65h-5.21c0-1.9-1.55-3.45-3.45-3.45-4.77 0-8.65-3.88-8.65-8.65"/></mask><g mask="url(#E)"><path stroke="#040000" stroke-miterlimit="10" stroke-width=".92" d="m177.54 279.19-7.7-6.46"/></g><path stroke="#0068b7" stroke-miterlimit="10" stroke-width="2.6" d="M185.03 375.17c0 3.34-2.71 6.05-6.05 6.05s-6.05 2.71-6.05 6.05M185.03 399.38c0 3.34-2.71 6.05-6.05 6.05s-6.05 2.71-6.05 6.05M185.03 350.97c0 3.34-2.71 6.05-6.05 6.05s-6.05 2.71-6.05 6.05"/><path stroke="#ffe100" stroke-miterlimit="10" stroke-width="2.6" d="M172.93 398.86c0 3.34 2.71 6.05 6.05 6.05s6.05 2.71 6.05 6.05M185.03 386.75c0 3.34-2.71 6.05-6.05 6.05s-6.05 2.71-6.05 6.05M172.93 374.65c0 3.34 2.71 6.05 6.05 6.05s6.05 2.71 6.05 6.05"/><path stroke="#ffe100" stroke-miterlimit="10" stroke-width="2.6" d="M185.03 362.55c0 3.34-2.71 6.05-6.05 6.05s-6.05 2.71-6.05 6.05M172.93 350.45c0 3.34 2.71 6.05 6.05 6.05s6.05 2.71 6.05 6.05M185.03 338.34c0 3.34-2.71 6.05-6.05 6.05s-6.05 2.71-6.05 6.05"/><path stroke="#0068b7" stroke-miterlimit="10" stroke-width="2.6" d="M172.93 338.87c0 3.34 2.71 6.05 6.05 6.05s6.05 2.71 6.05 6.05M172.93 363.07c0 3.34 2.71 6.05 6.05 6.05s6.05 2.71 6.05 6.05M172.93 387.27c0 3.34 2.71 6.05 6.05 6.05s6.05 2.71 6.05 6.05"/><path stroke="#fff" stroke-miterlimit="10" stroke-width=".92" d="m176.4 411.89-7.7-6.46M187.25 403.18l-6.36-5.33M176.4 387.55l-7.7-6.46M187.39 379.11l-6.35-5.33M176.54 363.48l-7.7-6.46M187.63 355.2l-6.36-5.34"/><mask id="F" width="18" height="13" x="170" y="398" maskUnits="userSpaceOnUse" style="mask-type:luminance"><path fill="#fff" d="M170.34 398.85h5.21c0 1.9 1.55 3.45 3.45 3.45 4.77 0 8.65 3.88 8.65 8.65h-5.21c0-1.9-1.55-3.45-3.45-3.45-4.77 0-8.65-3.88-8.65-8.66z"/></mask><g mask="url(#F)"><path stroke="#040000" stroke-miterlimit="10" stroke-width=".92" d="m187.4 415.07-5.92-4.97"/></g><mask id="G" width="18" height="13" x="170" y="374" maskUnits="userSpaceOnUse" style="mask-type:luminance"><path fill="#fff" d="M170.34 374.65h5.21c0 1.9 1.55 3.45 3.45 3.45 4.77 0 8.65 3.88 8.65 8.65h-5.21c0-1.9-1.55-3.45-3.45-3.45-4.77 0-8.65-3.88-8.65-8.66z"/></mask><g mask="url(#G)"><path stroke="#040000" stroke-miterlimit="10" stroke-width=".92" d="m187.4 390.86-5.92-4.97"/></g><mask id="H" width="18" height="13" x="170" y="386" maskUnits="userSpaceOnUse" style="mask-type:luminance"><path fill="#fff" d="M170.34 398.86c0-4.77 3.88-8.65 8.65-8.65 1.9 0 3.45-1.55 3.45-3.45h5.21c0 4.77-3.88 8.66-8.65 8.66-1.9 0-3.45 1.55-3.45 3.45h-5.21z"/></mask><g mask="url(#H)"><path stroke="#040000" stroke-miterlimit="10" stroke-width=".92" d="m187.4 390.86-5.92-4.97"/></g><mask id="I" width="18" height="13" x="170" y="350" maskUnits="userSpaceOnUse" style="mask-type:luminance"><path fill="#fff" d="M170.34 350.45h5.21c0 1.9 1.55 3.45 3.45 3.45 4.77 0 8.65 3.88 8.65 8.65h-5.21c0-1.9-1.55-3.45-3.45-3.45-4.77 0-8.65-3.88-8.65-8.66z"/></mask><g mask="url(#I)"><path stroke="#040000" stroke-miterlimit="10" stroke-width=".92" d="m187.4 366.66-5.92-4.97"/></g><mask id="J" width="18" height="13" x="170" y="362" maskUnits="userSpaceOnUse" style="mask-type:luminance"><path fill="#fff" d="M170.34 374.65c0-4.77 3.88-8.65 8.65-8.65 1.9 0 3.45-1.55 3.45-3.45h5.21c0 4.77-3.88 8.66-8.65 8.66-1.9 0-3.45 1.55-3.45 3.45h-5.21z"/></mask><g mask="url(#J)"><path stroke="#040000" stroke-miterlimit="10" stroke-width=".92" d="m187.4 366.66-5.92-4.97"/></g><mask id="K" width="18" height="13" x="170" y="338" maskUnits="userSpaceOnUse" style="mask-type:luminance"><path fill="#fff" d="M170.34 350.45c0-4.77 3.88-8.65 8.65-8.65 1.9 0 3.45-1.55 3.45-3.45h5.21c0 4.77-3.88 8.66-8.65 8.66-1.9 0-3.45 1.55-3.45 3.45h-5.21z"/></mask><g mask="url(#K)"><path stroke="#040000" stroke-miterlimit="10" stroke-width=".92" d="m187.4 342.46-5.92-4.97"/></g><mask id="L" width="18" height="13" x="170" y="386" maskUnits="userSpaceOnUse" style="mask-type:luminance"><path fill="#fff" d="M170.32 398.86c0-4.77 3.88-8.65 8.65-8.65 1.9 0 3.45-1.55 3.45-3.45h5.21c0 4.77-3.88 8.65-8.65 8.65-1.9 0-3.45 1.55-3.45 3.45z"/></mask><g mask="url(#L)"><path stroke="#040000" stroke-miterlimit="10" stroke-width=".92" d="m177.54 400.21-7.7-6.46"/></g><mask id="M" width="18" height="13" x="170" y="398" maskUnits="userSpaceOnUse" style="mask-type:luminance"><path fill="#fff" d="M170.32 398.86h5.21c0 1.9 1.55 3.45 3.45 3.45 4.77 0 8.65 3.88 8.65 8.65h-5.21c0-1.9-1.55-3.45-3.45-3.45-4.77 0-8.65-3.88-8.65-8.65"/></mask><g mask="url(#M)"><path stroke="#040000" stroke-miterlimit="10" stroke-width=".92" d="m177.54 400.211-7.7-6.461"/></g><mask id="N" width="18" height="13" x="170" y="362" maskUnits="userSpaceOnUse" style="mask-type:luminance"><path fill="#fff" d="M170.32 374.65c0-4.77 3.88-8.65 8.65-8.65 1.9 0 3.45-1.55 3.45-3.45h5.21c0 4.77-3.88 8.65-8.65 8.65-1.9 0-3.45 1.55-3.45 3.45z"/></mask><g mask="url(#N)"><path stroke="#040000" stroke-miterlimit="10" stroke-width=".92" d="m177.54 376.01-7.7-6.46"/></g><mask id="O" width="18" height="13" x="170" y="374" maskUnits="userSpaceOnUse" style="mask-type:luminance"><path fill="#fff" d="M170.32 374.65h5.21c0 1.9 1.55 3.45 3.45 3.45 4.77 0 8.65 3.88 8.65 8.65h-5.21c0-1.9-1.55-3.45-3.45-3.45-4.77 0-8.65-3.88-8.65-8.65"/></mask><g mask="url(#O)"><path stroke="#040000" stroke-miterlimit="10" stroke-width=".92" d="m177.54 376.01-7.7-6.46"/></g><mask id="P" width="18" height="13" x="170" y="338" maskUnits="userSpaceOnUse" style="mask-type:luminance"><path fill="#fff" d="M170.32 350.45c0-4.77 3.88-8.65 8.65-8.65 1.9 0 3.45-1.55 3.45-3.45h5.21c0 4.77-3.88 8.65-8.65 8.65-1.9 0-3.45 1.55-3.45 3.45z"/></mask><g mask="url(#P)"><path stroke="#040000" stroke-miterlimit="10" stroke-width=".92" d="m177.54 351.8-7.7-6.46"/></g><mask id="Q" width="18" height="13" x="170" y="350" maskUnits="userSpaceOnUse" style="mask-type:luminance"><path fill="#fff" d="M170.32 350.45h5.21c0 1.9 1.55 3.45 3.45 3.45 4.77 0 8.65 3.88 8.65 8.65h-5.21c0-1.9-1.55-3.45-3.45-3.45-4.77 0-8.65-3.88-8.65-8.65"/></mask><g mask="url(#Q)"><path stroke="#040000" stroke-miterlimit="10" stroke-width=".92" d="m177.54 351.8-7.7-6.46"/></g><path stroke="#0068b7" stroke-miterlimit="10" stroke-width="2.6" d="M185.03 447.79c0 3.34-2.71 6.05-6.05 6.05s-6.05 2.71-6.05 6.05M185.03 471.99c0 3.34-2.71 6.05-6.05 6.05s-6.05 2.71-6.05 6.05M185.03 423.58c0 3.34-2.71 6.05-6.05 6.05s-6.05 2.71-6.05 6.05"/><path stroke="#ffe100" stroke-miterlimit="10" stroke-width="2.6" d="M172.93 471.47c0 3.34 2.71 6.05 6.05 6.05s6.05 2.71 6.05 6.05M185.03 459.37c0 3.34-2.71 6.05-6.05 6.05s-6.05 2.71-6.05 6.05M172.93 447.26c0 3.34 2.71 6.05 6.05 6.05s6.05 2.71 6.05 6.05"/><path stroke="#ffe100" stroke-miterlimit="10" stroke-width="2.6" d="M185.03 435.16c0 3.34-2.71 6.05-6.05 6.05s-6.05 2.71-6.05 6.05M172.93 423.06c0 3.34 2.71 6.05 6.05 6.05s6.05 2.71 6.05 6.05M185.03 410.96c0 3.34-2.71 6.05-6.05 6.05s-6.05 2.71-6.05 6.05"/><path stroke="#0068b7" stroke-miterlimit="10" stroke-width="2.6" d="M172.93 411.48c0 3.34 2.71 6.05 6.05 6.05s6.05 2.71 6.05 6.05M172.93 435.68c0 3.34 2.71 6.05 6.05 6.05s6.05 2.71 6.05 6.05M172.93 459.89c0 3.34 2.71 6.05 6.05 6.05s6.05 2.71 6.05 6.05"/><path stroke="#fff" stroke-miterlimit="10" stroke-width=".92" d="m187.25 475.8-6.36-5.34M176.4 460.16l-7.7-6.46M187.39 451.73l-6.35-5.34M176.54 436.09l-7.7-6.46M187.63 427.81l-6.36-5.33"/><mask id="R" width="18" height="13" x="170" y="471" maskUnits="userSpaceOnUse" style="mask-type:luminance"><path fill="#fff" d="M170.34 471.47h5.21c0 1.9 1.55 3.45 3.45 3.45 4.77 0 8.65 3.88 8.65 8.65h-5.21c0-1.9-1.55-3.45-3.45-3.45-4.77 0-8.65-3.88-8.65-8.66z"/></mask><g mask="url(#R)"><path stroke="#040000" stroke-miterlimit="10" stroke-width=".92" d="m187.4 487.68-5.92-4.97"/></g><mask id="S" width="18" height="13" x="170" y="447" maskUnits="userSpaceOnUse" style="mask-type:luminance"><path fill="#fff" d="M170.34 447.26h5.21c0 1.9 1.55 3.45 3.45 3.45 4.77 0 8.65 3.88 8.65 8.65h-5.21c0-1.9-1.55-3.45-3.45-3.45-4.77 0-8.65-3.88-8.65-8.66z"/></mask><g mask="url(#S)"><path stroke="#040000" stroke-miterlimit="10" stroke-width=".92" d="m187.4 463.48-5.92-4.97"/></g><mask id="T" width="18" height="13" x="170" y="459" maskUnits="userSpaceOnUse" style="mask-type:luminance"><path fill="#fff" d="M170.34 471.47c0-4.77 3.88-8.65 8.65-8.65 1.9 0 3.45-1.55 3.45-3.45h5.21c0 4.77-3.88 8.66-8.65 8.66-1.9 0-3.45 1.55-3.45 3.45h-5.21z"/></mask><g mask="url(#T)"><path stroke="#040000" stroke-miterlimit="10" stroke-width=".92" d="m187.4 463.48-5.92-4.97"/></g><mask id="U" width="18" height="13" x="170" y="423" maskUnits="userSpaceOnUse" style="mask-type:luminance"><path fill="#fff" d="M170.34 423.06h5.21c0 1.9 1.55 3.45 3.45 3.45 4.77 0 8.65 3.88 8.65 8.65h-5.21c0-1.9-1.55-3.45-3.45-3.45-4.77 0-8.65-3.88-8.65-8.66z"/></mask><g mask="url(#U)"><path stroke="#040000" stroke-miterlimit="10" stroke-width=".92" d="m187.4 439.27-5.92-4.97"/></g><mask id="V" width="18" height="13" x="170" y="435" maskUnits="userSpaceOnUse" style="mask-type:luminance"><path fill="#fff" d="M170.34 447.27c0-4.77 3.88-8.65 8.65-8.65 1.9 0 3.45-1.55 3.45-3.45h5.21c0 4.77-3.88 8.66-8.65 8.66-1.9 0-3.45 1.55-3.45 3.45h-5.21z"/></mask><g mask="url(#V)"><path stroke="#040000" stroke-miterlimit="10" stroke-width=".92" d="m187.4 439.27-5.92-4.97"/></g><mask id="W" width="18" height="14" x="170" y="410" maskUnits="userSpaceOnUse" style="mask-type:luminance"><path fill="#fff" d="M170.34 423.06c0-4.77 3.88-8.65 8.65-8.65 1.9 0 3.45-1.55 3.45-3.45h5.21c0 4.77-3.88 8.66-8.65 8.66-1.9 0-3.45 1.55-3.45 3.45h-5.21z"/></mask><g mask="url(#W)"><path stroke="#040000" stroke-miterlimit="10" stroke-width=".92" d="m187.4 415.07-5.92-4.97"/></g><mask id="X" width="18" height="13" x="170" y="459" maskUnits="userSpaceOnUse" style="mask-type:luminance"><path fill="#fff" d="M170.32 471.47c0-4.77 3.88-8.65 8.65-8.65 1.9 0 3.45-1.55 3.45-3.45h5.21c0 4.77-3.88 8.65-8.65 8.65-1.9 0-3.45 1.55-3.45 3.45z"/></mask><g mask="url(#X)"><path stroke="#040000" stroke-miterlimit="10" stroke-width=".92" d="m177.54 472.82-7.7-6.46"/></g><mask id="Y" width="18" height="13" x="170" y="471" maskUnits="userSpaceOnUse" style="mask-type:luminance"><path fill="#fff" d="M170.32 471.47h5.21c0 1.9 1.55 3.45 3.45 3.45 4.77 0 8.65 3.88 8.65 8.65h-5.21c0-1.9-1.55-3.45-3.45-3.45-4.77 0-8.65-3.88-8.65-8.65"/></mask><g mask="url(#Y)"><path stroke="#040000" stroke-miterlimit="10" stroke-width=".92" d="m177.54 472.82-7.7-6.46"/></g><mask id="Z" width="18" height="13" x="170" y="435" maskUnits="userSpaceOnUse" style="mask-type:luminance"><path fill="#fff" d="M170.32 447.26c0-4.77 3.88-8.65 8.65-8.65 1.9 0 3.45-1.55 3.45-3.45h5.21c0 4.77-3.88 8.65-8.65 8.65-1.9 0-3.45 1.55-3.45 3.45z"/></mask><g mask="url(#Z)"><path stroke="#040000" stroke-miterlimit="10" stroke-width=".92" d="m177.54 448.62-7.7-6.46"/></g><mask id="aa" width="18" height="13" x="170" y="447" maskUnits="userSpaceOnUse" style="mask-type:luminance"><path fill="#fff" d="M170.32 447.26h5.21c0 1.9 1.55 3.45 3.45 3.45 4.77 0 8.65 3.88 8.65 8.65h-5.21c0-1.9-1.55-3.45-3.45-3.45-4.77 0-8.65-3.88-8.65-8.65"/></mask><g mask="url(#aa)"><path stroke="#040000" stroke-miterlimit="10" stroke-width=".92" d="m177.54 448.62-7.7-6.46"/></g><mask id="ab" width="18" height="14" x="170" y="410" maskUnits="userSpaceOnUse" style="mask-type:luminance"><path fill="#fff" d="M170.32 423.06c0-4.77 3.88-8.65 8.65-8.65 1.9 0 3.45-1.55 3.45-3.45h5.21c0 4.77-3.88 8.65-8.65 8.65-1.9 0-3.45 1.55-3.45 3.45z"/></mask><g mask="url(#ab)"><path stroke="#040000" stroke-miterlimit="10" stroke-width=".92" d="m177.54 424.42-7.7-6.46"/></g><mask id="ac" width="18" height="13" x="170" y="423" maskUnits="userSpaceOnUse" style="mask-type:luminance"><path fill="#fff" d="M170.32 423.06h5.21c0 1.9 1.55 3.45 3.45 3.45 4.77 0 8.65 3.88 8.65 8.65h-5.21c0-1.9-1.55-3.45-3.45-3.45-4.77 0-8.65-3.88-8.65-8.65"/></mask><g mask="url(#ac)"><path stroke="#040000" stroke-miterlimit="10" stroke-width=".92" d="m177.54 424.42-7.7-6.46"/></g><mask id="ad" width="18" height="14" x="170" y="168" maskUnits="userSpaceOnUse" style="mask-type:luminance"><path fill="#fff" d="M170.32 181.01c0-4.77 3.88-8.65 8.65-8.65 1.9 0 3.45-1.55 3.45-3.45h5.21c0 4.77-3.88 8.65-8.65 8.65-1.9 0-3.45 1.55-3.45 3.45z"/></mask><g mask="url(#ad)"><path stroke="#040000" stroke-miterlimit="10" stroke-width=".92" d="m177.54 182.37-7.7-6.46"/></g><mask id="ae" width="18" height="13" x="170" y="181" maskUnits="userSpaceOnUse" style="mask-type:luminance"><path fill="#fff" d="M170.32 181.01h5.21c0 1.9 1.55 3.45 3.45 3.45 4.77 0 8.65 3.88 8.65 8.65h-5.21c0-1.9-1.55-3.45-3.45-3.45-4.77 0-8.65-3.88-8.65-8.65"/></mask><g mask="url(#ae)"><path stroke="#040000" stroke-miterlimit="10" stroke-width=".92" d="m177.54 182.37-7.7-6.46"/></g><mask id="af" width="18" height="13" x="170" y="144" maskUnits="userSpaceOnUse" style="mask-type:luminance"><path fill="#fff" d="M170.32 156.81c0-4.77 3.88-8.65 8.65-8.65 1.9 0 3.45-1.55 3.45-3.45h5.21c0 4.77-3.88 8.65-8.65 8.65-1.9 0-3.45 1.55-3.45 3.45z"/></mask><g mask="url(#af)"><path stroke="#040000" stroke-miterlimit="10" stroke-width=".92" d="m177.54 158.16-7.7-6.46"/></g><mask id="ag" width="18" height="13" x="170" y="156" maskUnits="userSpaceOnUse" style="mask-type:luminance"><path fill="#fff" d="M170.32 156.81h5.21c0 1.9 1.55 3.45 3.45 3.45 4.77 0 8.65 3.88 8.65 8.65h-5.21c0-1.9-1.55-3.45-3.45-3.45-4.77 0-8.65-3.88-8.65-8.65"/></mask><g mask="url(#ag)"><path stroke="#040000" stroke-miterlimit="10" stroke-width=".92" d="m177.54 158.16-7.7-6.46"/></g><mask id="ah" width="18" height="13" x="170" y="120" maskUnits="userSpaceOnUse" style="mask-type:luminance"><path fill="#fff" d="M170.32 132.6c0-4.77 3.88-8.65 8.65-8.65 1.9 0 3.45-1.55 3.45-3.45h5.21c0 4.77-3.88 8.65-8.65 8.65-1.9 0-3.45 1.55-3.45 3.45z"/></mask><g mask="url(#ah)"><path stroke="#040000" stroke-miterlimit="10" stroke-width=".92" d="m177.54 133.96-7.7-6.46"/></g><mask id="ai" width="18" height="13" x="170" y="132" maskUnits="userSpaceOnUse" style="mask-type:luminance"><path fill="#fff" d="M170.32 132.6h5.21c0 1.9 1.55 3.45 3.45 3.45 4.77 0 8.65 3.88 8.65 8.65h-5.21c0-1.9-1.55-3.45-3.45-3.45-4.77 0-8.65-3.88-8.65-8.65"/></mask><g mask="url(#ai)"><path stroke="#040000" stroke-miterlimit="10" stroke-width=".92" d="m177.54 133.96-7.7-6.46"/></g><mask id="aj" width="7" height="24" x="166" y="84" maskUnits="userSpaceOnUse" style="mask-type:luminance"><path fill="#fff" d="M172.14 84.6h-5.21v23.2h5.21z"/></mask><g stroke="#040000" stroke-miterlimit="10" stroke-width=".92" mask="url(#aj)"><path d="m175.24 93.69-11.43-9.59M175.24 107.05l-11.43-9.59"/></g><path stroke="#fff" stroke-miterlimit="10" stroke-width=".92" d="m176.4 339.27-7.7-6.46"/><path stroke="#0068b7" stroke-miterlimit="10" stroke-width="2.6" d="M185.03 496.19c0 3.34-2.71 6.05-6.05 6.05s-6.05 2.71-6.05 6.05"/><path stroke="#ffe100" stroke-miterlimit="10" stroke-width="2.6" d="M172.93 495.67c0 3.34 2.71 6.05 6.05 6.05s6.05 2.71 6.05 6.05M185.03 483.57c0 3.34-2.71 6.05-6.05 6.05s-6.05 2.71-6.05 6.05"/><path stroke="#0068b7" stroke-miterlimit="10" stroke-width="2.6" d="M172.93 484.09c0 3.34 2.71 6.05 6.05 6.05s6.05 2.71 6.05 6.05"/><path stroke="#fff" stroke-miterlimit="10" stroke-width=".92" d="m187.25 500-6.36-5.33"/><mask id="ak" width="18" height="13" x="170" y="495" maskUnits="userSpaceOnUse" style="mask-type:luminance"><path fill="#fff" d="M170.34 495.67h5.21c0 1.9 1.55 3.45 3.45 3.45 4.77 0 8.65 3.88 8.65 8.65h-5.21c0-1.9-1.55-3.45-3.45-3.45-4.77 0-8.65-3.88-8.65-8.66z"/></mask><g mask="url(#ak)"><path stroke="#040000" stroke-miterlimit="10" stroke-width=".92" d="m187.4 511.89-5.92-4.97"/></g><mask id="al" width="18" height="13" x="170" y="483" maskUnits="userSpaceOnUse" style="mask-type:luminance"><path fill="#fff" d="M170.34 495.67c0-4.77 3.88-8.65 8.65-8.65 1.9 0 3.45-1.55 3.45-3.45h5.21c0 4.77-3.88 8.66-8.65 8.66-1.9 0-3.45 1.55-3.45 3.45h-5.21z"/></mask><g mask="url(#al)"><path stroke="#040000" stroke-miterlimit="10" stroke-width=".92" d="m187.4 487.68-5.92-4.97"/></g><mask id="am" width="18" height="13" x="170" y="483" maskUnits="userSpaceOnUse" style="mask-type:luminance"><path fill="#fff" d="M170.32 495.67c0-4.77 3.88-8.65 8.65-8.65 1.9 0 3.45-1.55 3.45-3.45h5.21c0 4.77-3.88 8.65-8.65 8.65-1.9 0-3.45 1.55-3.45 3.45z"/></mask><g mask="url(#am)"><path stroke="#040000" stroke-miterlimit="10" stroke-width=".92" d="m177.54 497.03-7.7-6.46"/></g><mask id="an" width="18" height="13" x="170" y="495" maskUnits="userSpaceOnUse" style="mask-type:luminance"><path fill="#fff" d="M170.32 495.67h5.21c0 1.9 1.55 3.45 3.45 3.45 4.77 0 8.65 3.88 8.65 8.65h-5.21c0-1.9-1.55-3.45-3.45-3.45-4.77 0-8.65-3.88-8.65-8.65"/></mask><g mask="url(#an)"><path stroke="#040000" stroke-miterlimit="10" stroke-width=".92" d="m177.54 497.03-7.7-6.46"/></g><path stroke="#0068b7" stroke-miterlimit="10" stroke-width="2.6" d="M185.03 544.6c0 3.34-2.71 6.05-6.05 6.05s-6.05 2.71-6.05 6.05M185.03 568.81c0 3.34-2.71 6.05-6.05 6.05s-6.05 2.71-6.05 6.05M185.03 520.4c0 3.34-2.71 6.05-6.05 6.05s-6.05 2.71-6.05 6.05"/><path stroke="#ffe100" stroke-miterlimit="10" stroke-width="2.6" d="M172.93 568.29c0 3.34 2.71 6.05 6.05 6.05s6.05 2.71 6.05 6.05M185.03 556.19c0 3.34-2.71 6.05-6.05 6.05s-6.05 2.71-6.05 6.05M172.93 544.08c0 3.34 2.71 6.05 6.05 6.05s6.05 2.71 6.05 6.05M185.03 531.98c0 3.34-2.71 6.05-6.05 6.05s-6.05 2.71-6.05 6.05M172.93 519.88c0 3.34 2.71 6.05 6.05 6.05s6.05 2.71 6.05 6.05M185.03 507.78c0 3.34-2.71 6.05-6.05 6.05s-6.05 2.71-6.05 6.05"/><path stroke="#0068b7" stroke-miterlimit="10" stroke-width="2.6" d="M172.93 508.3c0 3.34 2.71 6.05 6.05 6.05s6.05 2.71 6.05 6.05M172.93 532.5c0 3.34 2.71 6.05 6.05 6.05s6.05 2.71 6.05 6.05M172.93 556.71c0 3.34 2.71 6.05 6.05 6.05s6.05 2.71 6.05 6.05"/><path stroke="#fff" stroke-miterlimit="10" stroke-width=".92" d="m176.4 581.32-7.7-6.46M187.25 572.62l-6.36-5.34M176.4 556.98l-7.7-6.46M187.39 548.55l-6.35-5.34M176.54 532.91l-7.7-6.46M187.63 524.63l-6.36-5.34"/><mask id="ao" width="18" height="13" x="170" y="568" maskUnits="userSpaceOnUse" style="mask-type:luminance"><path fill="#fff" d="M170.34 568.29h5.21c0 1.9 1.55 3.45 3.45 3.45 4.77 0 8.65 3.88 8.65 8.65h-5.21c0-1.9-1.55-3.45-3.45-3.45-4.77 0-8.65-3.88-8.65-8.66z"/></mask><g mask="url(#ao)"><path stroke="#040000" stroke-miterlimit="10" stroke-width=".92" d="m187.4 584.5-5.92-4.97"/></g><mask id="ap" width="18" height="13" x="170" y="544" maskUnits="userSpaceOnUse" style="mask-type:luminance"><path fill="#fff" d="M170.34 544.08h5.21c0 1.9 1.55 3.45 3.45 3.45 4.77 0 8.65 3.88 8.65 8.65h-5.21c0-1.9-1.55-3.45-3.45-3.45-4.77 0-8.65-3.88-8.65-8.66z"/></mask><g mask="url(#ap)"><path stroke="#040000" stroke-miterlimit="10" stroke-width=".92" d="m187.4 560.3-5.92-4.97"/></g><mask id="aq" width="18" height="13" x="170" y="556" maskUnits="userSpaceOnUse" style="mask-type:luminance"><path fill="#fff" d="M170.34 568.29c0-4.77 3.88-8.65 8.65-8.65 1.9 0 3.45-1.55 3.45-3.45h5.21c0 4.77-3.88 8.66-8.65 8.66-1.9 0-3.45 1.55-3.45 3.45h-5.21z"/></mask><g mask="url(#aq)"><path stroke="#040000" stroke-miterlimit="10" stroke-width=".92" d="m187.4 560.3-5.92-4.97"/></g><mask id="ar" width="18" height="13" x="170" y="519" maskUnits="userSpaceOnUse" style="mask-type:luminance"><path fill="#fff" d="M170.34 519.88h5.21c0 1.9 1.55 3.45 3.45 3.45 4.77 0 8.65 3.88 8.65 8.65h-5.21c0-1.9-1.55-3.45-3.45-3.45-4.77 0-8.65-3.88-8.65-8.66z"/></mask><g mask="url(#ar)"><path stroke="#040000" stroke-miterlimit="10" stroke-width=".92" d="m187.4 536.09-5.92-4.97"/></g><mask id="as" width="18" height="14" x="170" y="531" maskUnits="userSpaceOnUse" style="mask-type:luminance"><path fill="#fff" d="M170.34 544.08c0-4.77 3.88-8.65 8.65-8.65 1.9 0 3.45-1.55 3.45-3.45h5.21c0 4.77-3.88 8.66-8.65 8.66-1.9 0-3.45 1.55-3.45 3.45h-5.21z"/></mask><g mask="url(#as)"><path stroke="#040000" stroke-miterlimit="10" stroke-width=".92" d="m187.4 536.09-5.92-4.97"/></g><mask id="at" width="18" height="13" x="170" y="507" maskUnits="userSpaceOnUse" style="mask-type:luminance"><path fill="#fff" d="M170.34 519.88c0-4.77 3.88-8.65 8.65-8.65 1.9 0 3.45-1.55 3.45-3.45h5.21c0 4.77-3.88 8.66-8.65 8.66-1.9 0-3.45 1.55-3.45 3.45h-5.21z"/></mask><g mask="url(#at)"><path stroke="#040000" stroke-miterlimit="10" stroke-width=".92" d="m187.4 511.89-5.92-4.97"/></g><mask id="au" width="18" height="13" x="170" y="556" maskUnits="userSpaceOnUse" style="mask-type:luminance"><path fill="#fff" d="M170.32 568.29c0-4.77 3.88-8.65 8.65-8.65 1.9 0 3.45-1.55 3.45-3.45h5.21c0 4.77-3.88 8.65-8.65 8.65-1.9 0-3.45 1.55-3.45 3.45z"/></mask><g mask="url(#au)"><path stroke="#040000" stroke-miterlimit="10" stroke-width=".92" d="m177.54 569.64-7.7-6.46"/></g><mask id="av" width="18" height="13" x="170" y="568" maskUnits="userSpaceOnUse" style="mask-type:luminance"><path fill="#fff" d="M170.32 568.29h5.21c0 1.9 1.55 3.45 3.45 3.45 4.77 0 8.65 3.88 8.65 8.65h-5.21c0-1.9-1.55-3.45-3.45-3.45-4.77 0-8.65-3.88-8.65-8.65"/></mask><g mask="url(#av)"><path stroke="#040000" stroke-miterlimit="10" stroke-width=".92" d="m177.54 569.64-7.7-6.46"/></g><mask id="aw" width="18" height="14" x="170" y="531" maskUnits="userSpaceOnUse" style="mask-type:luminance"><path fill="#fff" d="M170.32 544.08c0-4.77 3.88-8.65 8.65-8.65 1.9 0 3.45-1.55 3.45-3.45h5.21c0 4.77-3.88 8.65-8.65 8.65-1.9 0-3.45 1.55-3.45 3.45z"/></mask><g mask="url(#aw)"><path stroke="#040000" stroke-miterlimit="10" stroke-width=".92" d="m177.54 545.44-7.7-6.46"/></g><mask id="ax" width="18" height="13" x="170" y="544" maskUnits="userSpaceOnUse" style="mask-type:luminance"><path fill="#fff" d="M170.32 544.08h5.21c0 1.9 1.55 3.45 3.45 3.45 4.77 0 8.65 3.88 8.65 8.65h-5.21c0-1.9-1.55-3.45-3.45-3.45-4.77 0-8.65-3.88-8.65-8.65"/></mask><g mask="url(#ax)"><path stroke="#040000" stroke-miterlimit="10" stroke-width=".92" d="m177.54 545.44-7.7-6.46"/></g><mask id="ay" width="18" height="13" x="170" y="507" maskUnits="userSpaceOnUse" style="mask-type:luminance"><path fill="#fff" d="M170.32 519.88c0-4.77 3.88-8.65 8.65-8.65 1.9 0 3.45-1.55 3.45-3.45h5.21c0 4.77-3.88 8.65-8.65 8.65-1.9 0-3.45 1.55-3.45 3.45z"/></mask><g mask="url(#ay)"><path stroke="#040000" stroke-miterlimit="10" stroke-width=".92" d="m177.54 521.23-7.7-6.459"/></g><mask id="az" width="18" height="13" x="170" y="519" maskUnits="userSpaceOnUse" style="mask-type:luminance"><path fill="#fff" d="M170.32 519.88h5.21c0 1.9 1.55 3.45 3.45 3.45 4.77 0 8.65 3.88 8.65 8.65h-5.21c0-1.9-1.55-3.45-3.45-3.45-4.77 0-8.65-3.88-8.65-8.65"/></mask><g mask="url(#az)"><path stroke="#040000" stroke-miterlimit="10" stroke-width=".92" d="m177.54 521.23-7.7-6.46"/></g><path stroke="#ffe100" stroke-miterlimit="10" stroke-width="2.6" d="M185.03 580.39c0 3.34-2.71 6.05-6.05 6.05s-6.05 2.71-6.05 6.05"/><path stroke="#0068b7" stroke-miterlimit="10" stroke-width="2.6" d="M172.93 580.91c0 3.34 2.71 6.05 6.05 6.05s6.05 2.71 6.05 6.05"/><mask id="aA" width="18" height="13" x="170" y="580" maskUnits="userSpaceOnUse" style="mask-type:luminance"><path fill="#fff" d="M170.34 592.49c0-4.77 3.88-8.65 8.65-8.65 1.9 0 3.45-1.55 3.45-3.45h5.21c0 4.77-3.88 8.66-8.65 8.66-1.9 0-3.45 1.55-3.45 3.45h-5.21z"/></mask><g mask="url(#aA)"><path stroke="#040000" stroke-miterlimit="10" stroke-width=".92" d="m187.4 584.5-5.92-4.97"/></g><mask id="aB" width="18" height="13" x="170" y="580" maskUnits="userSpaceOnUse" style="mask-type:luminance"><path fill="#fff" d="M170.32 592.49c0-4.77 3.88-8.65 8.65-8.65 1.9 0 3.45-1.55 3.45-3.45h5.21c0 4.77-3.88 8.65-8.65 8.65-1.9 0-3.45 1.55-3.45 3.45z"/></mask><g mask="url(#aB)"><path stroke="#040000" stroke-miterlimit="10" stroke-width=".92" d="m177.54 593.85-7.7-6.46"/></g><path stroke="#fff" stroke-miterlimit="10" stroke-width=".92" d="m176.4 508.71-7.7-6.46M176.4 484.5l-7.7-6.46"/><path stroke="#000" stroke-linecap="round" stroke-linejoin="round" stroke-width=".86" d="M207.03 51.35H77.29V83.2h129.74z"/><path fill="#fff" stroke="#231815" stroke-miterlimit="10" stroke-width=".86" d="M200.6 42H83.72v30.97H200.6z"/><path stroke="#000" stroke-linecap="round" stroke-linejoin="round" stroke-width=".43" d="M84.01 68.88h1.66V60.3h7.08v8.58h3.46V60.3h6.78v8.58h3.46V60.3h7.08v8.58h3.32V60.3h6.93v8.58h1.65"/><path stroke="#000" stroke-linecap="round" stroke-linejoin="round" stroke-width=".43" d="M125.13 68.88h1.65V60.3h7.08v8.58h3.47V60.3h6.78v8.58h3.46V60.3h7.08v8.58h3.31V60.3h6.93v8.58h1.66"/><path stroke="#000" stroke-linecap="round" stroke-linejoin="round" stroke-width=".43" d="M166.55 68.88h1.65V60.3h7.08v8.58h3.47V60.3h6.78v8.58h3.46V60.3h7.08v8.58h3.31M96.87 42h-3.2v11.4h3.2zM190.06 42h-3.2v11.4h3.2z"/><path fill="#fff" stroke="#231815" stroke-miterlimit="10" stroke-width=".86" d="M204.4 73.31H79.92V85H204.4z"/><path fill="#fff" d="M124.88 558.6v-25.44H84.44v25.44z"/><path stroke="#000" stroke-miterlimit="10" stroke-width=".19" d="M115.45 549.86v-5.83h-21.6v5.83z"/><path stroke="#000" stroke-miterlimit="10" stroke-width=".67" d="M124.88 558.6v-25.44H84.44v25.44z"/><path stroke="#000" stroke-miterlimit="10" stroke-width=".19" d="M124.87 558.59v-5.94h-5.94v5.94zM90.38 558.59v-5.94h-5.94v5.94z"/><path fill="#000" d="M124.88 202.53H84.44v215.7h40.44z"/><path fill="#0068b7" d="M367.89 592.49h-6.97v112.85h6.97z"/><path fill="#fff" stroke="#231815" stroke-miterlimit="10" stroke-width=".29" d="M378.49 592.49h-6.97v112.85h6.97z"/><path fill="#149243" d="M324.73 583.45h-6.97V702.4h6.97z"/><path fill="#591f7d" d="M346.37 584.25h-6.97v120.9h6.97z"/><path fill="#8b1c21" d="M409.84 84.6h-6.97v452.08h6.97z"/><path fill="#1c96d4" d="M420.67 84.6h-6.97v452.08h6.97z"/><path fill="#149243" d="M431.49 84.6h-6.97v454.42h6.97z"/><path fill="#e60012" d="M388.2 84.6h-6.97v510.83h6.97zM408.94 592.49h-6.97v104.59h6.97zM442.31 84.6h-6.97v454.42h6.97z"/><path fill="#231815" d="M344.91 84.6h-6.97v489.04h6.97z"/><path fill="#fff" d="M442.92 559.67v-25.44h-40.44v25.44z"/><path stroke="#000" stroke-miterlimit="10" stroke-width=".19" d="M433.5 550.931v-5.83h-21.6v5.83z"/><path stroke="#000" stroke-miterlimit="10" stroke-width=".67" d="M442.92 559.67v-25.44h-40.44v25.44z"/><path stroke="#000" stroke-miterlimit="10" stroke-width=".19" d="M442.93 559.661v-5.94h-5.94v5.94zM408.43 559.66v-5.94h-5.94v5.94z"/><path fill="#000" d="M442.93 202.53h-40.44v215.7h40.44z"/><path fill="#727171" d="M355.73 84.6h-6.97v496.1h6.97z"/><path stroke="#fff" stroke-miterlimit="10" stroke-width=".74" d="M352.24 85.89v495.02"/><path fill="#dd7c1a" d="M366.55 84.6h-6.97v499.65h6.97z"/><path stroke="#fff" stroke-miterlimit="10" stroke-width=".74" d="M363.07 85.9v498.35"/><path fill="#149243" d="M377.37 84.6h-6.97v506.54h6.97z"/><path stroke="#fff" stroke-miterlimit="10" stroke-width=".74" d="M373.89 85.9v500.17"/><path stroke="#231815" stroke-miterlimit="10" stroke-width=".74" d="M375.01 591.14V702.2"/><path fill="#149243" d="M333.4 83.3h-6.97v494.18h6.97z"/><path stroke="#fff" stroke-miterlimit="10" stroke-width=".76" d="M321.24 584.46V700.9M364.41 584.7v116.44"/><path fill="#727171" d="M335.55 582.61h-6.97v119.98h6.97z"/><path fill="#fff" stroke="#231815" stroke-miterlimit="10" stroke-width=".29" d="M357.07 587.811h-6.97v116.62h6.97z"/><path fill="#231815" d="M399.02 84.6h-6.97v501.47h6.97z"/><path stroke="#fff" stroke-miterlimit="10" stroke-width=".77" d="M395.54 86.37V585.5"/><path stroke="#000" stroke-linecap="round" stroke-linejoin="round" stroke-width=".67" d="M312.11 715.6h71.42v-17.53h-71.42z"/><path fill="#fff" stroke="#231815" stroke-miterlimit="10" stroke-width=".67" d="M315.65 720.75h64.34V703.7h-64.34z"/><path stroke="#000" stroke-linecap="round" stroke-linejoin="round" stroke-width=".31" d="M379.48 705.95h-1.41v7.3h-6.02v-7.3h-2.95v7.3h-5.76v-7.3h-2.95v7.3h-6.02v-7.3h-2.82v7.3h-5.89v-7.3h-1.41M344.25 705.95h-1.41v7.3h-6.02v-7.3h-2.95v7.3h-5.76v-7.3h-2.95v7.3h-6.02v-7.3h-2.82"/><path fill="#fff" stroke="#231815" stroke-miterlimit="10" stroke-width=".67" d="M313.56 703.52h68.52v-6.43h-68.52z"/><path fill="#dd7c1a" d="M194.43 592.49h-6.97v112.85h6.97z"/><path fill="#f4d923" d="M140.66 583.45h-6.97V702.4h6.97z"/><path fill="#727171" d="M183.96 591.96h-6.97v113.19h6.97z"/><path stroke="#fff" stroke-miterlimit="10" stroke-width=".74" d="M190.95 591.14V702.2M180.47 591.14V702.2"/><path fill="#231815" d="M151.49 582.61h-6.97v119.98h6.97z"/><path fill="#149243" d="M162.31 587.811h-6.97v116.62h6.97z"/><path fill="#8b1c21" d="M173.13 592.49h-6.97v112.85h6.97z"/><path stroke="#231815" stroke-miterlimit="10" stroke-width=".76" d="M137.18 584.38v116.44"/><path stroke="#000" stroke-linecap="round" stroke-linejoin="round" stroke-width=".86" d="M449.67 51.35H319.93V83.2h129.74z"/><path fill="#fff" stroke="#231815" stroke-miterlimit="10" stroke-width=".86" d="M443.24 42H326.36v30.97h116.88z"/><path stroke="#000" stroke-linecap="round" stroke-linejoin="round" stroke-width=".43" d="M326.65 68.88h1.66V60.3h7.08v8.58h3.47V60.3h6.77v8.58h3.47V60.3h7.08v8.58h3.31V60.3h6.93v8.58h1.65"/><path stroke="#000" stroke-linecap="round" stroke-linejoin="round" stroke-width=".43" d="M367.77 68.88h1.66V60.3h7.08v8.58h3.46V60.3h6.78v8.58h3.46V60.3h7.08v8.58h3.31V60.3h6.94v8.58h1.65M409.19 68.88h1.66V60.3h7.08v8.58h3.46V60.3h6.78v8.58h3.46V60.3h7.08v8.58h3.31"/><path fill="#fff" stroke="#231815" stroke-miterlimit="10" stroke-width=".86" d="M447.04 73.31H322.56V85h124.48z"/><path stroke="#000" stroke-linecap="round" stroke-linejoin="round" stroke-width=".67" d="M128.42 715.6h71.42v-17.53h-71.42z"/><path fill="#fff" stroke="#231815" stroke-miterlimit="10" stroke-width=".67" d="M131.96 720.75h64.34V703.7h-64.34z"/><path stroke="#000" stroke-linecap="round" stroke-linejoin="round" stroke-width=".31" d="M196.05 705.95h-2.27v7.3h-6.02v-7.3h-2.95v7.3h-5.76v-7.3h-2.95v7.3h-6.02v-7.3h-2.81v7.3h-5.9v-7.3h-1.41M159.96 705.95h-1.41v7.3h-6.02v-7.3h-2.94v7.3h-5.77v-7.3h-2.95v7.3h-6.02v-7.3h-2.81"/><path fill="#fff" stroke="#231815" stroke-miterlimit="10" stroke-width=".67" d="M129.87 703.52h68.52v-6.43h-68.52z"/><path fill="#fff" d="m311.01 575.5-1.03 17.83s24.66-19.64 52.41 0c0 0 20.55 20.45 50.15 0V575.5s-20.37 20.37-49.12 1.11-52.41-1.11-52.41-1.11"/><path fill="#231815" d="M387.06 585.98c-13.29 0-19.99-4.75-26.48-9.34-6.38-4.52-12.41-8.78-24.72-8.78s-18.34 4.27-24.72 8.78l-.05.04c-.66.46-1.58.33-2.06-.29-.48-.63-.35-1.51.31-1.97l.05-.04c6.49-4.59 13.19-9.34 26.48-9.34s19.99 4.75 26.48 9.34c6.38 4.52 12.41 8.78 24.72 8.78s18.46-4.35 24.42-8.56c.66-.46 1.58-.33 2.06.3s.35 1.51-.31 1.97c-6.04 4.27-12.89 9.12-26.17 9.12zM387.06 603.81c-13.29 0-19.99-4.75-26.48-9.34-6.38-4.52-12.41-8.78-24.72-8.78s-18.34 4.27-24.72 8.78l-.05.04c-.66.46-1.58.33-2.06-.29-.48-.63-.35-1.51.31-1.97l.05-.04c6.49-4.59 13.19-9.34 26.48-9.34s19.99 4.75 26.48 9.34c6.38 4.52 12.41 8.78 24.72 8.78s18.46-4.35 24.42-8.56c.66-.46 1.58-.33 2.06.3s.35 1.51-.31 1.97c-6.04 4.27-12.89 9.12-26.17 9.12z"/><path fill="#fff" d="m113.86 575.5-1.03 17.83s24.66-19.64 52.41 0c0 0 20.55 20.45 50.15 0V575.5s-20.37 20.37-49.12 1.11-52.41-1.11-52.41-1.11"/><path fill="#231815" d="M189.9 585.98c-13.29 0-19.99-4.75-26.48-9.34-6.38-4.52-12.41-8.78-24.72-8.78s-18.34 4.27-24.72 8.78l-.05.04c-.66.46-1.58.33-2.06-.29-.48-.63-.35-1.51.31-1.97l.05-.04c6.49-4.59 13.19-9.34 26.48-9.34s19.99 4.75 26.48 9.34c6.38 4.52 12.41 8.78 24.72 8.78s18.46-4.35 24.42-8.56c.66-.46 1.58-.33 2.06.3s.35 1.51-.31 1.97c-6.04 4.27-12.89 9.12-26.17 9.12zM189.9 603.81c-13.29 0-19.99-4.75-26.48-9.34-6.38-4.52-12.41-8.78-24.72-8.78s-18.34 4.27-24.72 8.78l-.05.04c-.66.46-1.58.33-2.06-.29-.48-.63-.35-1.51.31-1.97l.05-.04c6.49-4.59 13.19-9.34 26.48-9.34s19.99 4.75 26.48 9.34c6.38 4.52 12.41 8.78 24.72 8.78s18.46-4.35 24.42-8.56c.66-.46 1.58-.33 2.06.3s.35 1.51-.31 1.97c-6.04 4.27-12.89 9.12-26.17 9.12zM57.36 95.77h-1.41V87.6c0-.72.02-1.4.06-2.01q-.225.24-.48.45c-.54.45-1.14.94-1.78 1.47l-.75-.97 3.17-2.46h1.19zM227.16 95.77h-7.73v-1.2l3.06-3.09c.92-.93 1.53-1.6 1.83-2s.52-.79.67-1.16.22-.78.22-1.21c0-.62-.18-1.1-.55-1.45s-.87-.52-1.51-.52c-.48 0-.93.08-1.36.24s-.91.45-1.45.87l-.77-.97c1.09-.92 2.29-1.38 3.58-1.38 1.09 0 1.95.28 2.59.83q.96.84.96 2.28c0 .51-.09 1.01-.28 1.48-.19.48-.47.96-.84 1.46-.37.49-1 1.17-1.88 2.03l-2.44 2.41v.06h5.91v1.31zM233.82 95.77h-1.41V87.6c0-.72.02-1.4.06-2.01q-.225.24-.48.45c-.54.45-1.14.94-1.78 1.47l-.75-.97 3.17-2.46h1.19zM299.02 95.77h-7.73v-1.2l3.06-3.09c.92-.93 1.53-1.6 1.83-2s.52-.79.67-1.16.22-.78.22-1.21c0-.62-.18-1.1-.55-1.45s-.87-.52-1.51-.52c-.48 0-.93.08-1.36.24s-.91.45-1.45.87l-.77-.97c1.09-.92 2.29-1.38 3.58-1.38 1.09 0 1.95.28 2.59.83q.96.84.96 2.28c0 .51-.09 1.01-.28 1.48-.19.48-.47.96-.84 1.46s-1 1.17-1.88 2.03l-2.44 2.41v.06h5.91v1.31zM308.38 95.77h-7.73v-1.2l3.06-3.09c.92-.93 1.53-1.6 1.83-2s.52-.79.67-1.16.22-.78.22-1.21c0-.62-.18-1.1-.55-1.45s-.87-.52-1.51-.52c-.48 0-.93.08-1.36.24s-.91.45-1.45.87l-.77-.97c1.09-.92 2.29-1.38 3.58-1.38 1.09 0 1.95.28 2.59.83q.96.84.96 2.28c0 .51-.09 1.01-.28 1.48-.19.48-.47.96-.84 1.46s-1 1.17-1.88 2.03l-2.44 2.41v.06h5.91v1.31zM468.46 95.77h-7.73v-1.2l3.06-3.09c.92-.93 1.53-1.6 1.83-2s.52-.79.67-1.16.22-.78.22-1.21c0-.62-.18-1.1-.55-1.45s-.87-.52-1.51-.52c-.48 0-.93.08-1.36.24s-.91.45-1.45.87l-.77-.97c1.09-.92 2.29-1.38 3.58-1.38 1.09 0 1.95.28 2.59.83q.96.84.96 2.28c0 .51-.09 1.01-.28 1.48-.19.48-.47.96-.84 1.46s-1 1.17-1.88 2.03l-2.44 2.41v.06h5.91v1.31z"/><path stroke="#231815" stroke-miterlimit="10" stroke-width=".34" d="M410.47 722.95h-20.42"/><path fill="#fff" stroke="#231815" stroke-miterlimit="10" stroke-width=".67" d="M389.38 709.72h-1.71c-.89.08-1.59.83-1.59 1.74v15.53h4l.89-.89v-2.24c-.5 0-.91-.41-.91-.91s.41-.91.91-.91v-9.53h18.6v9.53c.5 0 .91.41.91.91s-.41.91-.91.91v2.24l.89.89h4v-15.53c0-.91-.7-1.66-1.59-1.74h-1.81a1.75 1.75 0 0 1-1.59-1.74v-10.89h-18.49v10.89c0 .91-.7 1.66-1.59 1.74z"/><path stroke="#231815" stroke-miterlimit="10" stroke-width=".08" d="M407.07 711.45v-4.6h-2.43v4.6zM401.43 711.45v-4.6H399v4.6zM395.71 711.46v-4.6h-2.43v4.6zM409.46 698.94h-18.49"/><path stroke="#000" stroke-linecap="round" stroke-linejoin="round" stroke-width=".33" d="M143.31 713.101h-2.64v7.9h2.64zM187.46 713.101h-2.64v7.9h2.64z"/></svg>