<svg xmlns="http://www.w3.org/2000/svg" width="1238" height="510" fill="none" viewBox="0 0 1238 510"><path fill="#fff" d="M0 0h1238v510H0z"/><path fill="#000" d="m289.303 434-2.983-10.909h1.342l2.28 8.885h.106l2.323-8.885h1.491l2.323 8.885h.106l2.28-8.885h1.342L296.93 434h-1.363l-2.408-8.693h-.085L290.666 434zm14.755.17q-1.183 0-2.041-.522a3.5 3.5 0 0 1-1.315-1.47q-.458-.948-.458-2.205t.458-2.216q.463-.964 1.289-1.502.83-.543 1.939-.543.64 0 1.262.213.624.213 1.135.692.511.474.815 1.257t.303 1.929v.532h-6.307v-1.086h5.029q0-.693-.277-1.236a2.1 2.1 0 0 0-.778-.858q-.501-.314-1.182-.314-.751 0-1.3.373a2.45 2.45 0 0 0-.836.959 2.8 2.8 0 0 0-.293 1.267v.725q0 .927.319 1.571.325.639.901.975.575.33 1.337.33.495 0 .894-.138.405-.144.698-.426.293-.288.453-.714l1.214.341a2.7 2.7 0 0 1-.644 1.086 3.14 3.14 0 0 1-1.119.725q-.666.255-1.496.255m5.3-.17v-8.182h1.257V434zm.639-9.545a.9.9 0 0 1-.634-.251.8.8 0 0 1-.261-.602q0-.351.261-.602a.9.9 0 0 1 .634-.25q.367 0 .628.25a.8.8 0 0 1 .267.602.8.8 0 0 1-.267.602.87.87 0 0 1-.628.251m6.223 12.784q-.912 0-1.566-.235a3.3 3.3 0 0 1-1.092-.607 3.3 3.3 0 0 1-.687-.799l1.001-.703q.17.223.431.511.261.293.714.506.459.219 1.199.219.99 0 1.635-.48.645-.479.645-1.502v-1.662h-.107a7 7 0 0 1-.394.554q-.25.325-.725.581-.469.25-1.267.25a3.4 3.4 0 0 1-1.779-.469q-.783-.468-1.242-1.363-.452-.895-.452-2.174 0-1.257.442-2.189.442-.937 1.23-1.449.789-.516 1.822-.516.799 0 1.268.266.474.261.724.597.256.33.394.543h.128v-1.3h1.215v8.416q0 1.055-.48 1.716a2.73 2.73 0 0 1-1.278.974 4.8 4.8 0 0 1-1.779.315m-.043-4.496q.757 0 1.279-.346t.793-.996.272-1.556q0-.884-.266-1.561-.267-.676-.789-1.06-.522-.383-1.289-.383-.799 0-1.332.405-.527.405-.793 1.086a4.2 4.2 0 0 0-.261 1.513q0 .852.266 1.508.272.65.799 1.022.533.368 1.321.368m7.138-3.665V434h-1.257v-10.909h1.257v4.006h.106q.288-.635.863-1.007.58-.378 1.545-.378.837 0 1.465.335.629.33.975 1.018.351.681.351 1.736V434h-1.257v-5.114q0-.974-.506-1.507-.5-.538-1.39-.538a2.3 2.3 0 0 0-1.108.261 1.9 1.9 0 0 0-.767.762q-.277.5-.277 1.214m11.163-3.26v1.066h-4.24v-1.066zm-3.004-1.96h1.257v7.798q0 .533.155.799a.8.8 0 0 0 .404.352q.25.085.528.085.207 0 .341-.021l.213-.043.255 1.129a3 3 0 0 1-.356.096 2.6 2.6 0 0 1-.581.054q-.533 0-1.044-.23a2.1 2.1 0 0 1-.842-.697q-.33-.47-.33-1.183zm5.812 10.227a.92.92 0 0 1-.677-.282.92.92 0 0 1-.282-.677q0-.394.282-.676a.92.92 0 0 1 .677-.282q.393 0 .676.282a.92.92 0 0 1 .282.676.9.9 0 0 1-.133.48 1 1 0 0 1-.346.351.9.9 0 0 1-.479.128m0-6.072a.92.92 0 0 1-.677-.283.92.92 0 0 1-.282-.676q0-.394.282-.677a.92.92 0 0 1 .677-.282q.393 0 .676.282a.93.93 0 0 1 .282.677.9.9 0 0 1-.133.479 1 1 0 0 1-.346.352.9.9 0 0 1-.479.128m11.247-4.922V434h-1.321v-9.524h-.064l-2.663 1.768v-1.342l2.727-1.811zm3.43 10.994a.92.92 0 0 1-.676-.282.93.93 0 0 1-.283-.677q0-.394.283-.676a.92.92 0 0 1 .676-.282q.395 0 .677.282a.92.92 0 0 1 .282.676.994.994 0 0 1-.479.831.9.9 0 0 1-.48.128m6.351.064q-1.098 0-1.939-.389-.836-.394-1.305-1.081a2.7 2.7 0 0 1-.463-1.577 2.9 2.9 0 0 1 .271-1.278q.277-.591.757-.986a2.3 2.3 0 0 1 1.081-.506v-.064a2.1 2.1 0 0 1-1.246-.878 2.67 2.67 0 0 1-.459-1.551 2.64 2.64 0 0 1 .421-1.486 2.97 2.97 0 0 1 1.172-1.033q.752-.378 1.71-.378.948 0 1.694.378t1.172 1.033q.43.656.437 1.486a2.7 2.7 0 0 1-.475 1.551 2.1 2.1 0 0 1-1.23.878v.064q.591.107 1.065.506.475.395.757.986.282.586.287 1.278a2.75 2.75 0 0 1-.479 1.577q-.47.688-1.305 1.081-.831.39-1.923.389m0-1.172q.741 0 1.278-.239.538-.24.831-.677t.299-1.023a1.96 1.96 0 0 0-.32-1.092 2.16 2.16 0 0 0-.858-.745 2.7 2.7 0 0 0-1.23-.272 2.8 2.8 0 0 0-1.246.272 2.16 2.16 0 0 0-.858.745q-.309.474-.304 1.092-.005.587.283 1.023.293.437.836.677.543.239 1.289.239m0-5.177q.586 0 1.039-.235a1.8 1.8 0 0 0 .719-.655q.261-.42.266-.985a1.8 1.8 0 0 0-.261-.964 1.7 1.7 0 0 0-.708-.64 2.3 2.3 0 0 0-1.055-.229 2.4 2.4 0 0 0-1.071.229 1.66 1.66 0 0 0-.708.64 1.77 1.77 0 0 0-.245.964q-.005.564.25.985.261.421.719.655t1.055.235m11.161 3.217-.022-1.555h.256l3.58-3.644h1.555l-3.814 3.857h-.106zM368.303 434v-10.909h1.257V434zm5.199 0-3.196-4.048.895-.874L375.1 434zm5.926 3.239q-.912 0-1.566-.235a3.3 3.3 0 0 1-1.092-.607 3.3 3.3 0 0 1-.687-.799l1.001-.703q.17.223.431.511.261.293.714.506.459.219 1.199.219.99 0 1.635-.48.645-.479.645-1.502v-1.662h-.107a7 7 0 0 1-.394.554q-.25.325-.725.581-.469.25-1.267.25a3.4 3.4 0 0 1-1.779-.469q-.783-.468-1.242-1.363-.452-.895-.452-2.174 0-1.257.442-2.189.442-.937 1.23-1.449.789-.516 1.822-.516.799 0 1.268.266.474.261.724.597.256.33.394.543h.128v-1.3h1.215v8.416q0 1.055-.48 1.716a2.73 2.73 0 0 1-1.278.974 4.8 4.8 0 0 1-1.779.315m-.043-4.496q.756 0 1.279-.346t.793-.996q.272-.65.272-1.556 0-.884-.266-1.561-.267-.676-.789-1.06-.522-.383-1.289-.383-.799 0-1.332.405-.527.405-.793 1.086a4.2 4.2 0 0 0-.261 1.513q0 .852.266 1.508.272.65.799 1.022.533.368 1.321.368M195.646 77.646a.5.5 0 0 0 0 .708l3.182 3.182a.501.501 0 0 0 .708-.708L196.707 78l2.829-2.828a.5.5 0 0 0-.708-.707zm279.208.708a.5.5 0 0 0 0-.708l-3.182-3.181a.501.501 0 0 0-.708.707L473.793 78l-2.829 2.828a.5.5 0 0 0 .708.707zM196 78v.5h278.5v-1H196z"/><path stroke="#000" d="M195.5 74v8M475.5 74v8"/><path fill="#000" d="M164.646 386.854a.5.5 0 0 0 .708 0l3.182-3.182a.502.502 0 0 0-.708-.708L165 385.793l-2.828-2.829a.502.502 0 0 0-.708.708zm.708-278.208a.5.5 0 0 0-.707 0l-3.182 3.182a.5.5 0 1 0 .707.708l2.828-2.829 2.829 2.829a.5.5 0 0 0 .707-.708zM165 386.5h.5V109h-1v277.5z"/><path stroke="#000" d="M161 387.5h8M161 107.5h8"/><path fill="#000" d="m279.755 54-2.983-10.91h1.342l2.28 8.886h.106l2.323-8.885h1.491l2.323 8.885h.106l2.28-8.885h1.343L287.383 54h-1.364l-2.408-8.693h-.085L281.118 54zm12.086 0v-8.182h1.257V54zm.639-9.545a.9.9 0 0 1-.634-.25.8.8 0 0 1-.261-.603q0-.351.261-.602a.9.9 0 0 1 .634-.25q.368 0 .629.25a.8.8 0 0 1 .266.602.8.8 0 0 1-.266.602.88.88 0 0 1-.629.25m6.01 9.715q-1.023 0-1.806-.516-.783-.522-1.225-1.47-.442-.954-.442-2.254 0-1.289.442-2.237t1.231-1.465q.787-.516 1.821-.516.8 0 1.263.266.468.261.714.597.25.33.388.543h.107V43.09h1.257V54h-1.214v-1.257h-.15q-.138.224-.394.564-.255.336-.73.602-.474.262-1.262.261m.171-1.129q.756 0 1.278-.394.522-.4.794-1.103.271-.708.271-1.635 0-.916-.266-1.603-.267-.693-.788-1.076-.522-.39-1.289-.39-.8 0-1.332.411-.527.405-.794 1.103-.261.692-.261 1.555 0 .875.266 1.587.273.71.799 1.13.534.415 1.322.415m9.614-7.223v1.066h-4.24v-1.066zm-3.004-1.96h1.257v7.798q0 .533.155.8a.8.8 0 0 0 .404.35q.25.087.528.086.207 0 .341-.021l.213-.043.255 1.13a3 3 0 0 1-.357.095 2.6 2.6 0 0 1-.58.053 2.5 2.5 0 0 1-1.044-.229 2.1 2.1 0 0 1-.842-.697q-.33-.47-.33-1.183zm6.328 5.22V54h-1.257V43.09h1.257v4.007h.107q.287-.635.863-1.007.58-.378 1.544-.378.837 0 1.465.335.629.33.975 1.018.351.681.351 1.736V54h-1.257v-5.114q0-.975-.506-1.507-.5-.538-1.39-.538a2.3 2.3 0 0 0-1.108.26 1.9 1.9 0 0 0-.767.763q-.277.5-.277 1.214m8.521 5.007a.92.92 0 0 1-.676-.282.92.92 0 0 1-.282-.677q0-.393.282-.676a.92.92 0 0 1 .676-.282q.395 0 .677.282a.92.92 0 0 1 .282.676.997.997 0 0 1-.479.831.9.9 0 0 1-.48.128m0-6.072a.92.92 0 0 1-.676-.282.92.92 0 0 1-.282-.677q0-.394.282-.677a.92.92 0 0 1 .676-.282q.395 0 .677.282a.92.92 0 0 1 .282.677.996.996 0 0 1-.479.83.9.9 0 0 1-.48.129m11.248-4.922V54h-1.321v-9.524h-.064l-2.663 1.768v-1.342l2.727-1.811zm6.546 11.058q-.938 0-1.688-.373a3.14 3.14 0 0 1-1.204-1.022 2.8 2.8 0 0 1-.495-1.481h1.278q.075.74.671 1.225.602.48 1.438.48.671 0 1.194-.315.526-.315.825-.863.304-.554.304-1.252 0-.714-.315-1.273a2.3 2.3 0 0 0-.852-.89 2.4 2.4 0 0 0-1.241-.33 3.4 3.4 0 0 0-1.028.155 2.9 2.9 0 0 0-.868.4l-1.236-.15.661-5.37h5.667v1.173h-4.56l-.383 3.217h.064a2.9 2.9 0 0 1 .841-.442 3.2 3.2 0 0 1 1.055-.176q1.002 0 1.785.48.788.474 1.235 1.3.453.825.453 1.885 0 1.044-.469 1.864a3.43 3.43 0 0 1-1.278 1.29q-.815.468-1.854.468m9.126 0q-.938 0-1.688-.373a3.14 3.14 0 0 1-1.204-1.022 2.8 2.8 0 0 1-.495-1.481h1.278q.075.74.671 1.225.602.48 1.438.48.672 0 1.193-.315.528-.315.826-.863.304-.554.304-1.252 0-.714-.315-1.273a2.3 2.3 0 0 0-.852-.89 2.4 2.4 0 0 0-1.241-.33 3.4 3.4 0 0 0-1.028.155 2.9 2.9 0 0 0-.868.4l-1.236-.15.66-5.37h5.668v1.173h-4.56l-.383 3.217h.064a2.9 2.9 0 0 1 .841-.442 3.2 3.2 0 0 1 1.055-.176q1.002 0 1.785.48.788.474 1.235 1.3.453.825.453 1.885 0 1.044-.469 1.864a3.43 3.43 0 0 1-1.278 1.29q-.815.468-1.854.468m6.245-.064a.92.92 0 0 1-.677-.282.92.92 0 0 1-.282-.677q0-.393.282-.676a.92.92 0 0 1 .677-.282q.393 0 .676.282a.92.92 0 0 1 .282.676.9.9 0 0 1-.133.48 1 1 0 0 1-.346.351.9.9 0 0 1-.479.128m6.382.064q-.938 0-1.688-.373a3.14 3.14 0 0 1-1.204-1.022 2.8 2.8 0 0 1-.496-1.481h1.279q.075.74.671 1.225.602.48 1.438.48.672 0 1.193-.315.528-.315.826-.863.303-.554.304-1.252 0-.714-.315-1.273a2.3 2.3 0 0 0-.852-.89 2.4 2.4 0 0 0-1.241-.33 3.4 3.4 0 0 0-1.028.155 2.9 2.9 0 0 0-.868.4l-1.236-.15.66-5.37h5.668v1.173h-4.56l-.383 3.217h.064a2.9 2.9 0 0 1 .841-.442 3.2 3.2 0 0 1 1.055-.176q1.002 0 1.785.48.788.474 1.235 1.3.453.825.453 1.885 0 1.044-.469 1.864a3.43 3.43 0 0 1-1.278 1.29q-.815.468-1.854.468m9.957-.149v-8.182h1.215v1.279h.106a2.06 2.06 0 0 1 .826-1.018q.57-.367 1.369-.367.81 0 1.347.367.544.362.847 1.018h.086q.314-.635.942-1.007.63-.378 1.508-.378 1.097 0 1.795.687.698.681.698 2.125V54h-1.257v-5.476q0-.906-.496-1.294a1.83 1.83 0 0 0-1.166-.39q-.863 0-1.337.523-.474.516-.474 1.31V54h-1.279v-5.604q0-.698-.452-1.124-.453-.43-1.167-.431-.49 0-.916.26a1.97 1.97 0 0 0-.682.725q-.256.46-.256 1.06V54zm13.037 0v-8.182h1.215v1.279h.106a2.06 2.06 0 0 1 .826-1.018q.57-.367 1.369-.367.81 0 1.348.367.543.362.847 1.018h.085q.314-.635.943-1.007.628-.378 1.507-.378 1.098 0 1.795.687.698.681.698 2.125V54h-1.257v-5.476q0-.906-.496-1.294a1.83 1.83 0 0 0-1.166-.39q-.863 0-1.337.523-.474.516-.474 1.31V54h-1.279v-5.604q0-.698-.452-1.124-.453-.43-1.167-.431-.49 0-.916.26a1.97 1.97 0 0 0-.682.725q-.255.46-.256 1.06V54zM22.651 253v-10.909h1.321v4.858h5.817v-4.858h1.32V253h-1.32v-4.879h-5.817V253zm14.364.17q-1.184 0-2.04-.522a3.5 3.5 0 0 1-1.316-1.47q-.459-.948-.458-2.205 0-1.257.458-2.216.463-.964 1.289-1.502.83-.543 1.939-.543.64 0 1.262.213.624.213 1.135.692.51.474.815 1.257.303.783.303 1.929v.532h-6.306v-1.086h5.028q0-.693-.277-1.236a2.1 2.1 0 0 0-.778-.858q-.501-.314-1.182-.314-.751 0-1.3.373a2.45 2.45 0 0 0-.836.959 2.8 2.8 0 0 0-.293 1.267v.725q0 .926.32 1.571.324.639.9.975.575.33 1.337.33.495 0 .894-.138a1.9 1.9 0 0 0 .698-.426q.293-.288.453-.714l1.215.341a2.7 2.7 0 0 1-.645 1.086 3.14 3.14 0 0 1-1.119.725q-.666.255-1.496.255m5.3-.17v-8.182h1.257V253zm.639-9.545a.9.9 0 0 1-.634-.251.8.8 0 0 1-.261-.602q0-.351.261-.602a.9.9 0 0 1 .634-.25q.367 0 .628.25a.8.8 0 0 1 .267.602.8.8 0 0 1-.267.602.88.88 0 0 1-.628.251m6.223 12.784q-.912 0-1.566-.235a3.3 3.3 0 0 1-1.092-.607 3.3 3.3 0 0 1-.687-.799l1.001-.703q.171.223.431.511.261.293.714.506.459.219 1.199.219.99 0 1.635-.48.645-.479.645-1.502v-1.662h-.107a7 7 0 0 1-.394.554q-.25.325-.725.581-.468.25-1.267.25a3.4 3.4 0 0 1-1.78-.469q-.782-.469-1.24-1.363-.453-.895-.453-2.174 0-1.256.442-2.189.442-.937 1.23-1.449.789-.516 1.822-.516.799 0 1.268.266.474.261.724.597.256.33.394.543h.128v-1.3h1.215v8.416q0 1.055-.48 1.716a2.73 2.73 0 0 1-1.278.974 4.8 4.8 0 0 1-1.78.315m-.043-4.496q.756 0 1.279-.346t.793-.996.272-1.556q0-.884-.266-1.561t-.789-1.06-1.289-.383q-.798 0-1.331.405-.528.405-.794 1.086a4.2 4.2 0 0 0-.261 1.513q0 .852.266 1.508.272.65.8 1.022.532.368 1.32.368m7.138-3.665V253h-1.257v-10.909h1.257v4.006h.107q.287-.635.862-1.007.581-.378 1.545-.378.837 0 1.465.335.628.33.975 1.018.351.681.351 1.736V253H60.32v-5.114q0-.974-.506-1.507-.5-.538-1.39-.538a2.3 2.3 0 0 0-1.108.261 1.9 1.9 0 0 0-.767.762q-.277.5-.277 1.214m11.163-3.26v1.066h-4.24v-1.066zm-3.004-1.96h1.257v7.798q0 .533.155.799a.8.8 0 0 0 .404.352q.25.085.528.085.207 0 .34-.021l.214-.043.256 1.129a3 3 0 0 1-.357.096 2.6 2.6 0 0 1-.581.054q-.533 0-1.044-.23a2.07 2.07 0 0 1-.842-.697q-.33-.47-.33-1.183zm5.812 10.227a.92.92 0 0 1-.677-.282.92.92 0 0 1-.282-.677q0-.394.282-.676a.92.92 0 0 1 .677-.282q.394 0 .676.282a.92.92 0 0 1 .282.676.992.992 0 0 1-.48.831.9.9 0 0 1-.478.128m0-6.072a.92.92 0 0 1-.677-.283.92.92 0 0 1-.282-.676q0-.394.282-.677a.92.92 0 0 1 .677-.282q.394 0 .676.282a.93.93 0 0 1 .282.677.9.9 0 0 1-.133.479 1 1 0 0 1-.346.352.9.9 0 0 1-.48.128m11.247-4.922V253h-1.321v-9.524h-.064l-2.663 1.768v-1.342l2.727-1.811zm6.546 11.058q-.937 0-1.688-.373a3.13 3.13 0 0 1-1.204-1.022 2.8 2.8 0 0 1-.495-1.481h1.278q.075.74.671 1.225.601.479 1.438.479.672 0 1.194-.314a2.2 2.2 0 0 0 .825-.863q.304-.554.304-1.252 0-.714-.314-1.273a2.3 2.3 0 0 0-.853-.889 2.4 2.4 0 0 0-1.24-.331 3.4 3.4 0 0 0-1.029.155 2.9 2.9 0 0 0-.868.399l-1.236-.149.66-5.369h5.668v1.172h-4.56l-.383 3.217h.064q.336-.266.842-.442a3.2 3.2 0 0 1 1.054-.176q1.002 0 1.785.48.787.474 1.236 1.299.452.826.452 1.886 0 1.044-.469 1.864a3.4 3.4 0 0 1-1.278 1.289q-.815.47-1.854.469m9.126 0q-.937 0-1.688-.373a3.13 3.13 0 0 1-1.204-1.022 2.8 2.8 0 0 1-.495-1.481h1.278q.074.74.671 1.225.601.479 1.438.479.671 0 1.194-.314a2.2 2.2 0 0 0 .825-.863q.304-.554.304-1.252 0-.714-.314-1.273a2.3 2.3 0 0 0-.853-.889 2.4 2.4 0 0 0-1.24-.331 3.4 3.4 0 0 0-1.029.155 2.9 2.9 0 0 0-.868.399l-1.236-.149.66-5.369h5.668v1.172h-4.56l-.383 3.217h.064q.336-.266.841-.442a3.2 3.2 0 0 1 1.055-.176q1.002 0 1.785.48.788.474 1.235 1.299.453.826.453 1.886 0 1.044-.469 1.864a3.4 3.4 0 0 1-1.278 1.289q-.815.47-1.854.469m6.245-.064a.92.92 0 0 1-.677-.282.92.92 0 0 1-.282-.677q0-.394.282-.676a.92.92 0 0 1 .677-.282q.394 0 .676.282a.92.92 0 0 1 .282.676.9.9 0 0 1-.133.48 1 1 0 0 1-.346.351.9.9 0 0 1-.479.128m6.382.064q-.938 0-1.688-.373a3.13 3.13 0 0 1-1.204-1.022 2.8 2.8 0 0 1-.495-1.481h1.278q.075.74.671 1.225.602.479 1.438.479.671 0 1.194-.314.526-.315.825-.863.304-.554.304-1.252 0-.714-.315-1.273a2.3 2.3 0 0 0-.852-.889 2.4 2.4 0 0 0-1.241-.331 3.4 3.4 0 0 0-1.028.155 2.9 2.9 0 0 0-.868.399l-1.236-.149.661-5.369h5.667v1.172h-4.56l-.383 3.217h.064q.336-.266.841-.442a3.2 3.2 0 0 1 1.055-.176q1.002 0 1.785.48.788.474 1.235 1.299.453.826.453 1.886 0 1.044-.469 1.864a3.4 3.4 0 0 1-1.278 1.289q-.815.47-1.854.469m9.957-.149v-8.182h1.215v1.279h.106q.256-.655.826-1.018.57-.367 1.369-.367.81 0 1.348.367.543.363.846 1.018h.086q.314-.635.943-1.007.628-.378 1.507-.378 1.098 0 1.795.687.698.681.698 2.125V253h-1.257v-5.476q0-.906-.496-1.294a1.83 1.83 0 0 0-1.166-.389q-.863 0-1.337.522-.474.516-.474 1.31V253h-1.279v-5.604q0-.698-.452-1.124-.453-.43-1.167-.431-.49 0-.916.261a1.97 1.97 0 0 0-.682.724q-.255.459-.256 1.06V253zm13.037 0v-8.182h1.215v1.279h.106q.256-.655.826-1.018.57-.367 1.369-.367.81 0 1.348.367.543.363.847 1.018h.085q.314-.635.943-1.007.628-.378 1.507-.378 1.098 0 1.795.687.698.681.698 2.125V253h-1.257v-5.476q0-.906-.495-1.294a1.84 1.84 0 0 0-1.167-.389q-.863 0-1.337.522-.474.516-.474 1.31V253h-1.279v-5.604q0-.698-.452-1.124-.453-.43-1.167-.431-.49 0-.916.261a1.97 1.97 0 0 0-.682.724q-.255.459-.256 1.06V253zM858.303 434l-2.983-10.909h1.342l2.28 8.885h.106l2.323-8.885h1.491l2.323 8.885h.106l2.28-8.885h1.342L865.93 434h-1.363l-2.408-8.693h-.085L859.666 434zm14.755.17q-1.183 0-2.041-.522a3.5 3.5 0 0 1-1.315-1.47q-.458-.948-.458-2.205t.458-2.216q.463-.964 1.289-1.502.83-.543 1.939-.543.64 0 1.262.213.624.213 1.135.692.511.474.815 1.257t.303 1.929v.532h-6.307v-1.086h5.029q0-.693-.277-1.236a2.1 2.1 0 0 0-.778-.858q-.501-.314-1.182-.314-.751 0-1.3.373a2.45 2.45 0 0 0-.836.959 2.8 2.8 0 0 0-.293 1.267v.725q0 .927.319 1.571.325.639.901.975.575.33 1.337.33.495 0 .894-.138.405-.144.698-.426.293-.288.453-.714l1.214.341a2.7 2.7 0 0 1-.644 1.086 3.14 3.14 0 0 1-1.119.725q-.666.255-1.496.255m5.3-.17v-8.182h1.257V434zm.639-9.545a.9.9 0 0 1-.634-.251.8.8 0 0 1-.261-.602q0-.351.261-.602a.9.9 0 0 1 .634-.25q.367 0 .628.25a.8.8 0 0 1 .267.602.8.8 0 0 1-.267.602.87.87 0 0 1-.628.251m6.223 12.784q-.912 0-1.566-.235a3.3 3.3 0 0 1-1.092-.607 3.3 3.3 0 0 1-.687-.799l1.001-.703q.17.223.431.511.261.293.714.506.458.219 1.199.219.99 0 1.635-.48.645-.479.645-1.502v-1.662h-.107a7 7 0 0 1-.394.554q-.25.325-.725.581-.468.25-1.267.25a3.4 3.4 0 0 1-1.779-.469q-.783-.468-1.242-1.363-.452-.895-.452-2.174 0-1.257.442-2.189.442-.937 1.23-1.449.789-.516 1.822-.516.799 0 1.268.266.474.261.724.597.256.33.394.543h.128v-1.3h1.215v8.416q0 1.055-.48 1.716a2.73 2.73 0 0 1-1.278.974 4.8 4.8 0 0 1-1.779.315m-.043-4.496q.756 0 1.279-.346t.793-.996q.272-.65.272-1.556 0-.884-.266-1.561-.267-.676-.789-1.06-.522-.383-1.289-.383-.799 0-1.332.405-.527.405-.793 1.086a4.2 4.2 0 0 0-.261 1.513q0 .852.266 1.508.272.65.799 1.022.533.368 1.321.368m7.138-3.665V434h-1.257v-10.909h1.257v4.006h.106q.288-.635.863-1.007.58-.378 1.545-.378.837 0 1.465.335.629.33.975 1.018.351.681.351 1.736V434h-1.257v-5.114q0-.974-.506-1.507-.5-.538-1.39-.538a2.3 2.3 0 0 0-1.108.261 1.9 1.9 0 0 0-.767.762q-.277.5-.277 1.214m11.163-3.26v1.066h-4.24v-1.066zm-3.004-1.96h1.257v7.798q0 .533.155.799a.8.8 0 0 0 .404.352q.25.085.528.085.207 0 .341-.021l.213-.043.255 1.129a3 3 0 0 1-.356.096 2.6 2.6 0 0 1-.581.054q-.533 0-1.044-.23a2.1 2.1 0 0 1-.842-.697q-.33-.47-.33-1.183zm5.812 10.227a.92.92 0 0 1-.677-.282.92.92 0 0 1-.282-.677q0-.394.282-.676a.92.92 0 0 1 .677-.282q.394 0 .676.282a.92.92 0 0 1 .282.676.9.9 0 0 1-.133.48 1 1 0 0 1-.346.351.9.9 0 0 1-.479.128m0-6.072a.92.92 0 0 1-.677-.283.92.92 0 0 1-.282-.676q0-.394.282-.677a.92.92 0 0 1 .677-.282q.394 0 .676.282a.93.93 0 0 1 .282.677.9.9 0 0 1-.133.479 1 1 0 0 1-.346.352.9.9 0 0 1-.479.128m11.247-4.922V434h-1.321v-9.524h-.064l-2.663 1.768v-1.342l2.727-1.811zm6.632 11.058q-1.098 0-1.939-.389-.837-.394-1.305-1.081a2.7 2.7 0 0 1-.464-1.577 2.9 2.9 0 0 1 1.028-2.264 2.3 2.3 0 0 1 1.082-.506v-.064a2.1 2.1 0 0 1-1.247-.878 2.66 2.66 0 0 1-.458-1.551 2.63 2.63 0 0 1 .421-1.486 2.97 2.97 0 0 1 1.172-1.033q.75-.378 1.71-.378.948 0 1.693.378.747.378 1.172 1.033.432.656.437 1.486a2.7 2.7 0 0 1-.474 1.551 2.1 2.1 0 0 1-1.23.878v.064q.591.107 1.065.506.474.395.756.986.283.586.288 1.278a2.76 2.76 0 0 1-.479 1.577q-.47.688-1.305 1.081-.831.39-1.923.389m0-1.172q.74 0 1.278-.239.539-.24.831-.677a1.8 1.8 0 0 0 .298-1.023 1.96 1.96 0 0 0-.319-1.092 2.2 2.2 0 0 0-.858-.745 2.7 2.7 0 0 0-1.23-.272q-.699 0-1.247.272a2.16 2.16 0 0 0-.857.745 1.9 1.9 0 0 0-.304 1.092q-.006.587.282 1.023.293.437.837.677.543.239 1.289.239m0-5.177q.585 0 1.038-.235.458-.234.719-.655.261-.42.267-.985a1.8 1.8 0 0 0-.261-.964 1.7 1.7 0 0 0-.709-.64 2.3 2.3 0 0 0-1.054-.229q-.613 0-1.071.229-.458.225-.709.64a1.8 1.8 0 0 0-.245.964q-.005.564.251.985.261.421.719.655t1.055.235m9.243 6.349q-1.098 0-1.939-.389-.837-.394-1.305-1.081a2.7 2.7 0 0 1-.464-1.577 2.9 2.9 0 0 1 1.028-2.264 2.3 2.3 0 0 1 1.082-.506v-.064a2.1 2.1 0 0 1-1.247-.878 2.67 2.67 0 0 1-.458-1.551 2.64 2.64 0 0 1 .421-1.486 2.97 2.97 0 0 1 1.172-1.033q.751-.378 1.71-.378.947 0 1.694.378.745.378 1.172 1.033.431.656.436 1.486a2.7 2.7 0 0 1-.474 1.551 2.1 2.1 0 0 1-1.23.878v.064q.591.107 1.065.506.474.395.757.986.282.586.287 1.278a2.75 2.75 0 0 1-.479 1.577q-.47.688-1.305 1.081-.831.39-1.923.389m0-1.172q.74 0 1.278-.239.538-.24.831-.677a1.8 1.8 0 0 0 .298-1.023 1.96 1.96 0 0 0-.319-1.092 2.2 2.2 0 0 0-.858-.745 2.7 2.7 0 0 0-1.23-.272q-.698 0-1.247.272a2.16 2.16 0 0 0-.857.745q-.309.474-.304 1.092-.005.587.282 1.023.293.437.837.677.543.239 1.289.239m0-5.177q.586 0 1.038-.235.459-.234.72-.655.26-.42.266-.985a1.8 1.8 0 0 0-.261-.964 1.7 1.7 0 0 0-.709-.64 2.3 2.3 0 0 0-1.054-.229q-.613 0-1.071.229a1.66 1.66 0 0 0-.708.64 1.77 1.77 0 0 0-.245.964q-.005.564.25.985.261.421.719.655t1.055.235m13.291 9.439q-.91 0-1.566-.235a3.3 3.3 0 0 1-1.092-.607 3.4 3.4 0 0 1-.687-.799l1.001-.703q.171.223.432.511.261.293.714.506.458.219 1.198.219.991 0 1.636-.48.644-.479.644-1.502v-1.662h-.106a7 7 0 0 1-.395.554q-.25.325-.724.581-.469.25-1.268.25-.99 0-1.779-.469-.783-.468-1.241-1.363-.453-.895-.453-2.174 0-1.257.442-2.189.442-.937 1.231-1.449.788-.516 1.821-.516.8 0 1.268.266.474.261.725.597.255.33.394.543h.128v-1.3h1.214v8.416q0 1.055-.479 1.716a2.73 2.73 0 0 1-1.279.974 4.8 4.8 0 0 1-1.779.315m-.042-4.496q.756 0 1.278-.346t.794-.996q.271-.65.271-1.556 0-.884-.266-1.561t-.788-1.06-1.289-.383q-.8 0-1.332.405-.527.405-.794 1.086a4.2 4.2 0 0 0-.261 1.513q0 .852.267 1.508.271.65.799 1.022.532.368 1.321.368M770.646 83.646a.5.5 0 0 0 0 .708l3.182 3.182a.501.501 0 0 0 .708-.708L771.707 84l2.829-2.828a.5.5 0 0 0-.708-.707zm266.204.708c.2-.196.2-.512 0-.708l-3.18-3.181a.503.503 0 0 0-.71 0 .51.51 0 0 0 0 .707l2.83 2.828-2.83 2.828a.51.51 0 0 0 0 .707c.2.196.52.196.71 0zM771 84v.5h265.5v-1H771z"/><path stroke="#000" d="M770.5 80v8M1037.5 80v8"/><path fill="#000" d="m844.466 59-2.983-10.91h1.343l2.279 8.886h.107l2.322-8.885h1.492l2.322 8.885h.107l2.28-8.885h1.342L852.094 59h-1.364l-2.407-8.693h-.086L845.83 59zm12.086 0v-8.182h1.258V59zm.64-9.545a.9.9 0 0 1-.634-.25.8.8 0 0 1-.261-.603q0-.351.261-.602a.9.9 0 0 1 .634-.25q.367 0 .628.25a.8.8 0 0 1 .267.602.8.8 0 0 1-.267.602.87.87 0 0 1-.628.25m6.009 9.715q-1.022 0-1.805-.516-.784-.522-1.225-1.47-.443-.954-.443-2.254 0-1.289.443-2.237.441-.948 1.23-1.465.789-.516 1.822-.516.798 0 1.262.266.47.261.714.597.25.33.389.543h.106V48.09h1.257V59h-1.214v-1.257h-.149q-.139.224-.394.564a2.35 2.35 0 0 1-.73.602q-.474.262-1.263.261m.171-1.129q.756 0 1.278-.394.522-.4.794-1.103.272-.708.272-1.635 0-.916-.267-1.603-.266-.693-.788-1.076-.522-.39-1.289-.39-.8 0-1.332.411-.527.405-.793 1.103-.261.692-.261 1.555a4.5 4.5 0 0 0 .266 1.587q.271.71.799 1.13.532.415 1.321.415m9.615-7.223v1.066h-4.24v-1.066zm-3.005-1.96h1.257v7.798q0 .533.155.8a.8.8 0 0 0 .405.35q.25.087.527.086.208 0 .341-.021l.213-.043.256 1.13a3 3 0 0 1-.357.095 2.6 2.6 0 0 1-.581.053 2.5 2.5 0 0 1-1.044-.229 2.07 2.07 0 0 1-.841-.697q-.331-.47-.331-1.183zm6.329 5.22V59h-1.258V48.09h1.258v4.007h.106q.288-.635.863-1.007.58-.378 1.545-.378.836 0 1.465.335.629.33.974 1.018.352.681.352 1.736V59h-1.257v-5.114q0-.975-.506-1.507-.5-.538-1.391-.538-.617 0-1.107.26a1.9 1.9 0 0 0-.768.763q-.276.5-.276 1.214m8.521 5.007a.93.93 0 0 1-.677-.282.92.92 0 0 1-.282-.677q0-.393.282-.676a.93.93 0 0 1 .677-.282q.394 0 .676.282a.92.92 0 0 1 .283.676.9.9 0 0 1-.133.48 1 1 0 0 1-.347.351.9.9 0 0 1-.479.128m0-6.072a.93.93 0 0 1-.677-.282.92.92 0 0 1-.282-.677q0-.394.282-.677a.93.93 0 0 1 .677-.282q.394 0 .676.282a.92.92 0 0 1 .283.677.9.9 0 0 1-.133.48 1 1 0 0 1-.347.35.9.9 0 0 1-.479.129m11.247-4.922V59h-1.321v-9.524h-.064l-2.663 1.768v-1.342l2.727-1.811zm2.882 8.672v-1.087l4.794-7.585h.788v1.683h-.532l-3.622 5.732v.085h6.456v1.172zM904.096 59V48.091h1.257V59zm8.239.15q-1.098 0-1.939-.39-.835-.394-1.305-1.081a2.7 2.7 0 0 1-.463-1.577 2.9 2.9 0 0 1 .271-1.278q.277-.591.757-.986a2.3 2.3 0 0 1 1.081-.506v-.063a2.1 2.1 0 0 1-1.246-.88 2.67 2.67 0 0 1-.459-1.55 2.64 2.64 0 0 1 .421-1.486 2.96 2.96 0 0 1 1.172-1.033q.751-.378 1.71-.378.948 0 1.694.378t1.172 1.033q.43.655.437 1.486a2.7 2.7 0 0 1-.475 1.55 2.1 2.1 0 0 1-1.23.88v.063q.591.107 1.065.506.474.395.757.986.282.586.287 1.278a2.75 2.75 0 0 1-.479 1.577q-.47.688-1.305 1.081-.831.39-1.923.39m0-1.173q.741 0 1.278-.24a1.9 1.9 0 0 0 .831-.676q.293-.437.299-1.023a1.96 1.96 0 0 0-.32-1.092 2.16 2.16 0 0 0-.858-.745 2.7 2.7 0 0 0-1.23-.272q-.698 0-1.246.272a2.16 2.16 0 0 0-.858.745q-.309.474-.304 1.092-.005.587.283 1.023.293.437.836.677t1.289.24m0-5.177q.586 0 1.039-.235.458-.234.719-.655.261-.42.266-.985-.005-.555-.261-.964a1.7 1.7 0 0 0-.708-.64 2.3 2.3 0 0 0-1.055-.229 2.4 2.4 0 0 0-1.071.23q-.457.223-.708.639a1.78 1.78 0 0 0-.245.964q-.005.564.25.985.261.421.719.655t1.055.235m6.349 6.285a.92.92 0 0 1-.676-.282.92.92 0 0 1-.282-.677q0-.393.282-.676a.92.92 0 0 1 .676-.282q.395 0 .677.282a.92.92 0 0 1 .282.676.997.997 0 0 1-.479.831.9.9 0 0 1-.48.128m5.725-10.994V59h-1.321v-9.524h-.064l-2.663 1.768v-1.342l2.727-1.811zm6.547 11.058a3.75 3.75 0 0 1-1.689-.373q-.75-.373-1.204-1.022a2.8 2.8 0 0 1-.495-1.481h1.278q.075.74.672 1.225.601.48 1.438.48.67 0 1.193-.315.528-.315.826-.863.303-.554.303-1.252 0-.714-.314-1.273a2.3 2.3 0 0 0-.852-.89 2.4 2.4 0 0 0-1.241-.33 3.4 3.4 0 0 0-1.028.155 2.9 2.9 0 0 0-.869.4l-1.235-.15.66-5.37h5.668v1.173h-4.56l-.384 3.217h.064q.336-.266.842-.442a3.2 3.2 0 0 1 1.055-.176q1 0 1.784.48.789.474 1.236 1.3.453.825.453 1.885 0 1.044-.469 1.864a3.43 3.43 0 0 1-1.278 1.29q-.816.468-1.854.468m9.957-.149v-8.182h1.214v1.279h.107q.255-.655.825-1.018.57-.367 1.369-.367.81 0 1.348.367.543.362.847 1.018h.085q.315-.635.943-1.007.629-.378 1.508-.378 1.096 0 1.795.687.697.681.697 2.125V59h-1.257v-5.476q0-.906-.495-1.294a1.83 1.83 0 0 0-1.167-.39q-.863 0-1.337.523-.474.516-.474 1.31V59h-1.278v-5.604q0-.698-.453-1.124-.453-.43-1.166-.431-.49 0-.917.26-.42.262-.681.725a2.13 2.13 0 0 0-.256 1.06V59zm13.037 0v-8.182h1.214v1.279h.107q.255-.655.826-1.018.57-.367 1.369-.367.81 0 1.347.367.543.362.847 1.018h.085q.315-.635.943-1.007.629-.378 1.508-.378 1.097 0 1.795.687.698.681.698 2.125V59h-1.258v-5.476q0-.906-.495-1.294a1.83 1.83 0 0 0-1.167-.39q-.862 0-1.337.523-.474.516-.474 1.31V59h-1.278v-5.604q0-.698-.453-1.124-.452-.43-1.166-.431-.49 0-.917.26-.42.262-.681.725a2.13 2.13 0 0 0-.256 1.06V59zM1066.65 379.854c.19.195.51.195.7 0l3.19-3.182a.51.51 0 0 0 0-.708.504.504 0 0 0-.71 0l-2.83 2.829-2.83-2.829a.504.504 0 0 0-.71 0 .51.51 0 0 0 0 .708zm.7-265.208a.49.49 0 0 0-.7 0l-3.19 3.182a.51.51 0 0 0 0 .708c.2.195.52.195.71 0l2.83-2.829 2.83 2.829c.19.195.51.195.71 0a.51.51 0 0 0 0-.708zM1067 379.5h.5V115h-1v264.5z"/><path stroke="#000" d="M1063 380.5h8M1063 113.5h8"/><path fill="#000" d="M1088.36 253v-10.909h1.32v4.858h5.82v-4.858h1.32V253h-1.32v-4.879h-5.82V253zm14.37.17q-1.185 0-2.04-.522a3.5 3.5 0 0 1-1.32-1.47c-.31-.632-.46-1.367-.46-2.205s.15-1.577.46-2.216q.465-.964 1.29-1.502c.55-.362 1.2-.543 1.94-.543.42 0 .85.071 1.26.213.42.142.79.373 1.14.692q.51.474.81 1.257t.3 1.929v.532h-6.3v-1.086h5.03c0-.462-.1-.874-.28-1.236a2.07 2.07 0 0 0-.78-.858c-.33-.209-.73-.314-1.18-.314-.5 0-.94.124-1.3.373q-.54.367-.84.959c-.19.394-.29.816-.29 1.267v.725c0 .618.11 1.141.32 1.571q.33.639.9.975c.38.22.83.33 1.34.33.33 0 .62-.046.89-.138.27-.096.5-.238.7-.426q.285-.288.45-.714l1.22.341c-.13.412-.35.774-.65 1.086-.3.309-.67.551-1.12.725-.44.17-.94.255-1.49.255m5.3-.17v-8.182h1.25V253zm.64-9.545a.9.9 0 0 1-.64-.251.82.82 0 0 1-.26-.602c0-.234.09-.435.26-.602.18-.167.39-.25.64-.25.24 0 .45.083.62.25q.27.25.27.602t-.27.602a.86.86 0 0 1-.62.251m6.22 12.784c-.61 0-1.13-.078-1.57-.235a3.4 3.4 0 0 1-1.09-.607 3.3 3.3 0 0 1-.69-.799l1-.703c.12.149.26.319.44.511.17.196.41.364.71.506.31.146.7.219 1.2.219.66 0 1.2-.16 1.63-.48s.65-.82.65-1.502v-1.662h-.11q-.135.224-.39.554c-.17.217-.41.41-.73.581q-.465.25-1.26.25c-.67 0-1.26-.156-1.78-.469-.53-.312-.94-.767-1.25-1.363q-.45-.895-.45-2.174c0-.838.15-1.567.44-2.189q.45-.937 1.23-1.449.795-.516 1.83-.516.795 0 1.26.266c.32.174.56.373.73.597q.255.33.39.543h.13v-1.3h1.22v8.416q0 1.055-.48 1.716a2.8 2.8 0 0 1-1.28.974c-.54.21-1.13.315-1.78.315m-.04-4.496c.5 0 .93-.116 1.27-.346.35-.231.62-.563.8-.996q.27-.65.27-1.556 0-.884-.27-1.561a2.3 2.3 0 0 0-.79-1.06c-.34-.255-.77-.383-1.28-.383-.54 0-.98.135-1.34.405-.35.27-.61.632-.79 1.086-.17.455-.26.959-.26 1.513q0 .852.27 1.508c.18.433.44.774.79 1.022.36.245.8.368 1.33.368m7.13-3.665V253h-1.25v-10.909h1.25v4.006h.11c.19-.423.48-.759.86-1.007.39-.252.9-.378 1.55-.378.56 0 1.04.112 1.46.335.42.22.75.56.98 1.018.23.454.35 1.033.35 1.736V253h-1.26v-5.114c0-.649-.17-1.152-.5-1.507-.34-.359-.8-.538-1.39-.538q-.63 0-1.11.261c-.33.174-.58.428-.77.762-.18.333-.28.738-.28 1.214m11.17-3.26v1.066h-4.24v-1.066zm-3.01-1.96h1.26v7.798q0 .533.15.799c.11.174.25.291.41.352.17.057.34.085.53.085.13 0 .25-.007.34-.021l.21-.043.26 1.129q-.135.048-.36.096c-.15.036-.35.054-.58.054-.36 0-.7-.077-1.05-.23a2.16 2.16 0 0 1-.84-.697q-.33-.47-.33-1.183zm5.81 10.227a.92.92 0 0 1-.67-.282.91.91 0 0 1-.28-.677c0-.262.09-.488.28-.676a.92.92 0 0 1 .67-.282c.27 0 .49.094.68.282s.28.414.28.676c0 .174-.04.334-.13.48s-.2.263-.35.351a.9.9 0 0 1-.48.128m0-6.072a.91.91 0 0 1-.67-.283.91.91 0 0 1-.28-.676c0-.263.09-.488.28-.677a.92.92 0 0 1 .67-.282c.27 0 .49.094.68.282.19.189.28.414.28.677 0 .174-.04.334-.13.479-.09.146-.2.263-.35.352a.9.9 0 0 1-.48.128m11.25-4.922V253h-1.32v-9.524h-.06l-2.67 1.768v-1.342l2.73-1.811zm2.88 8.672v-1.087l4.8-7.585h.79v1.683h-.54l-3.62 5.732v.085h6.46v1.172zm5.14 2.237v-10.909h1.26V253zm8.24.149c-.73 0-1.38-.129-1.94-.389a3.2 3.2 0 0 1-1.31-1.081 2.76 2.76 0 0 1-.46-1.577q0-.692.27-1.278c.19-.394.44-.723.76-.986q.48-.4 1.08-.506v-.064a2.12 2.12 0 0 1-1.25-.878 2.7 2.7 0 0 1-.46-1.551c0-.553.14-1.049.43-1.486q.42-.655 1.17-1.033t1.71-.378c.63 0 1.19.126 1.69.378q.75.379 1.17 1.033c.29.437.44.933.44 1.486 0 .579-.16 1.096-.47 1.551q-.465.677-1.23.878v.064c.39.071.74.24 1.06.506.32.263.57.592.76.986.19.39.28.817.28 1.278 0 .59-.16 1.115-.47 1.577-.32.458-.75.819-1.31 1.081q-.825.39-1.92.389m0-1.172c.49 0 .92-.08 1.28-.239.35-.16.63-.386.83-.677.19-.291.29-.632.29-1.023 0-.412-.11-.776-.31-1.092-.21-.316-.5-.564-.86-.745a2.7 2.7 0 0 0-1.23-.272c-.47 0-.88.091-1.25.272-.36.181-.65.429-.86.745q-.3.474-.3 1.092c0 .391.09.732.28 1.023q.3.437.84.677.54.239 1.29.239m0-5.177c.39 0 .73-.078 1.04-.235.3-.156.54-.374.71-.655q.27-.42.27-.985c0-.37-.09-.691-.26-.964-.17-.277-.41-.49-.71-.64q-.45-.228-1.05-.229c-.41 0-.77.077-1.07.229a1.6 1.6 0 0 0-.71.64c-.17.273-.25.594-.25.964 0 .376.08.705.25.985q.27.421.72.655c.31.157.66.235 1.06.235m6.35 6.285a.92.92 0 0 1-.68-.282.91.91 0 0 1-.28-.677c0-.262.09-.488.28-.676a.92.92 0 0 1 .68-.282c.26 0 .48.094.67.282a.92.92 0 0 1 .15 1.156 1 1 0 0 1-.34.351.95.95 0 0 1-.48.128m5.72-10.994V253h-1.32v-9.524h-.06l-2.67 1.768v-1.342l2.73-1.811zm6.55 11.058c-.63 0-1.19-.124-1.69-.373q-.75-.372-1.2-1.022a2.74 2.74 0 0 1-.5-1.481h1.28c.05.493.27.902.67 1.225q.6.479 1.44.479a2.25 2.25 0 0 0 2.02-1.177q.3-.554.3-1.252c0-.476-.1-.9-.31-1.273a2.3 2.3 0 0 0-.86-.889 2.4 2.4 0 0 0-1.24-.331c-.33-.003-.67.048-1.03.155-.35.103-.64.236-.86.399l-1.24-.149.66-5.369h5.67v1.172h-4.56l-.38 3.217h.06q.33-.266.84-.442a3.2 3.2 0 0 1 1.06-.176c.66 0 1.26.16 1.78.48.53.316.94.749 1.24 1.299q.45.826.45 1.886c0 .696-.16 1.317-.47 1.864-.31.544-.74.973-1.28 1.289-.54.313-1.16.469-1.85.469m9.95-.149v-8.182h1.22v1.279h.11c.17-.437.44-.776.82-1.018.38-.245.84-.367 1.37-.367q.81 0 1.35.367c.36.242.64.581.85 1.018h.08c.21-.423.52-.759.94-1.007.42-.252.92-.378 1.51-.378q1.095 0 1.8.687.69.681.69 2.125V253h-1.25v-5.476c0-.604-.17-1.035-.5-1.294a1.84 1.84 0 0 0-1.17-.389c-.57 0-1.02.174-1.33.522q-.48.516-.48 1.31V253h-1.28v-5.604q0-.698-.45-1.124c-.3-.287-.69-.431-1.16-.431-.33 0-.64.087-.92.261s-.51.415-.68.724c-.17.306-.26.659-.26 1.06V253zm13.04 0v-8.182h1.22v1.279h.1c.17-.437.45-.776.83-1.018.38-.245.83-.367 1.37-.367q.81 0 1.35.367.54.363.84 1.018h.09c.21-.423.52-.759.94-1.007.42-.252.92-.378 1.51-.378.73 0 1.33.229 1.79.687.47.454.7 1.163.7 2.125V253h-1.26v-5.476c0-.604-.16-1.035-.49-1.294a1.84 1.84 0 0 0-1.17-.389c-.57 0-1.02.174-1.34.522-.31.344-.47.781-.47 1.31V253h-1.28v-5.604q0-.698-.45-1.124-.45-.43-1.17-.431c-.32 0-.63.087-.91.261q-.42.26-.69.724c-.17.306-.25.659-.25 1.06V253zM578.824 55h-3.367V44.09h3.516q1.588.001 2.716.656 1.13.65 1.732 1.87.602 1.215.602 2.908 0 1.705-.608 2.935a4.32 4.32 0 0 1-1.768 1.886q-1.161.655-2.823.655m-2.046-1.172h1.961q1.352 0 2.242-.522a3.2 3.2 0 0 0 1.326-1.486q.438-.964.437-2.296 0-1.32-.431-2.274a3.2 3.2 0 0 0-1.289-1.47q-.858-.517-2.136-.517h-2.11zm12.72 1.342q-1.182 0-2.04-.522a3.5 3.5 0 0 1-1.315-1.47q-.458-.948-.458-2.205t.458-2.216q.463-.964 1.289-1.502.83-.543 1.939-.543.64 0 1.262.213.624.213 1.135.692.511.474.815 1.257t.303 1.929v.532h-6.307V50.25h5.029a2.7 2.7 0 0 0-.277-1.236 2.1 2.1 0 0 0-.778-.858q-.501-.315-1.182-.314-.751 0-1.3.373a2.45 2.45 0 0 0-.836.959 2.8 2.8 0 0 0-.293 1.267v.725q0 .927.319 1.571.326.639.9.975.576.33 1.337.33.496 0 .895-.138.405-.144.698-.426.293-.288.453-.714l1.214.34a2.7 2.7 0 0 1-.644 1.087q-.453.464-1.119.725-.666.255-1.497.255m5.301 2.898v-11.25h1.214v1.3h.149q.138-.213.384-.543.25-.336.713-.597.47-.267 1.268-.266 1.033 0 1.822.516.789.517 1.23 1.465.443.948.443 2.237 0 1.3-.443 2.254-.441.948-1.225 1.47-.783.516-1.805.516-.789 0-1.263-.26a2.35 2.35 0 0 1-.73-.602 8 8 0 0 1-.394-.565h-.106v4.325zm1.235-7.159q0 .927.272 1.635.272.705.794 1.103.522.394 1.278.394.788 0 1.316-.415.532-.42.799-1.13a4.4 4.4 0 0 0 .271-1.587q0-.863-.266-1.555-.26-.698-.794-1.103-.527-.41-1.326-.41-.767 0-1.289.389-.522.383-.788 1.076-.267.687-.267 1.603m11.463-4.09v1.064h-4.24v-1.065zm-3.004-1.961h1.257v7.798q0 .533.155.8a.8.8 0 0 0 .405.35q.25.087.527.086.207 0 .341-.021l.213-.043.256 1.13a3 3 0 0 1-.357.095 2.6 2.6 0 0 1-.581.053 2.5 2.5 0 0 1-1.044-.229 2.1 2.1 0 0 1-.842-.697q-.33-.47-.33-1.183zm6.328 5.22V55h-1.257V44.09h1.257v4.007h.107q.288-.635.863-1.007.58-.378 1.544-.378.837 0 1.465.335.629.33.975 1.018.351.681.352 1.736V55h-1.257v-5.114q0-.975-.506-1.507-.501-.538-1.391-.538a2.3 2.3 0 0 0-1.108.26 1.9 1.9 0 0 0-.767.763q-.276.5-.277 1.214m8.522 5.007a.92.92 0 0 1-.677-.282.92.92 0 0 1-.282-.677q0-.393.282-.676a.92.92 0 0 1 .677-.282q.394 0 .676.282a.92.92 0 0 1 .282.676.9.9 0 0 1-.133.48 1 1 0 0 1-.346.351.9.9 0 0 1-.479.128m0-6.072a.92.92 0 0 1-.677-.282.92.92 0 0 1-.282-.677q0-.394.282-.677a.92.92 0 0 1 .677-.282q.394 0 .676.282a.92.92 0 0 1 .282.677.9.9 0 0 1-.133.48 1 1 0 0 1-.346.35.9.9 0 0 1-.479.129M627.096 55l4.879-9.652v-.085h-5.625V44.09h6.989v1.236L628.481 55zm8.862 0 4.879-9.652v-.085h-5.625V44.09h6.989v1.236L637.343 55zm7.291.085a.93.93 0 0 1-.677-.282.92.92 0 0 1-.282-.677q0-.393.282-.676a.93.93 0 0 1 .677-.282q.394 0 .676.282a.92.92 0 0 1 .283.676.9.9 0 0 1-.133.48 1 1 0 0 1-.347.351.9.9 0 0 1-.479.128m6.564-11.143q.671.005 1.342.255t1.225.831q.555.576.89 1.572t.335 2.498q0 1.454-.277 2.584-.272 1.123-.788 1.896a3.5 3.5 0 0 1-1.246 1.172q-.73.4-1.652.4-.916 0-1.635-.363a3.2 3.2 0 0 1-1.172-1.017 3.55 3.55 0 0 1-.581-1.519h1.3q.176.752.698 1.242.528.484 1.39.484 1.263 0 1.992-1.102.736-1.102.736-3.117h-.086a3.4 3.4 0 0 1-.708.773 3.13 3.13 0 0 1-1.976.676 3.3 3.3 0 0 1-1.721-.463 3.5 3.5 0 0 1-1.246-1.284q-.464-.82-.464-1.875 0-1 .448-1.832a3.46 3.46 0 0 1 1.267-1.332q.82-.495 1.929-.48m0 1.172q-.672 0-1.209.335-.534.33-.847.895a2.5 2.5 0 0 0-.309 1.241q0 .682.298 1.241.303.554.826.885.527.325 1.198.325.506 0 .943-.198a2.5 2.5 0 0 0 .762-.548q.33-.353.516-.794.187-.447.187-.932a2.44 2.44 0 0 0-.309-1.199 2.46 2.46 0 0 0-.842-.905 2.2 2.2 0 0 0-1.214-.346M659.94 55v-8.182h1.215v1.279h.106a2.06 2.06 0 0 1 .826-1.018q.57-.367 1.369-.367.81 0 1.347.367.544.362.847 1.018h.086q.313-.635.942-1.007.629-.378 1.508-.378 1.097 0 1.795.687.698.681.698 2.125V55h-1.257v-5.476q0-.906-.496-1.294a1.83 1.83 0 0 0-1.166-.39q-.863 0-1.337.523-.474.516-.474 1.31V55h-1.279v-5.604q0-.698-.453-1.124-.452-.43-1.166-.431-.49 0-.916.26a1.97 1.97 0 0 0-.682.725 2.13 2.13 0 0 0-.256 1.06V55zm13.037 0v-8.182h1.215v1.279h.106a2.06 2.06 0 0 1 .826-1.018q.57-.367 1.369-.367.81 0 1.348.367a2.4 2.4 0 0 1 .846 1.018h.086q.313-.635.943-1.007.628-.378 1.507-.378 1.098 0 1.795.687.698.681.698 2.125V55h-1.257v-5.476q0-.906-.496-1.294a1.83 1.83 0 0 0-1.166-.39q-.863 0-1.337.523-.474.516-.474 1.31V55h-1.279v-5.604q0-.698-.452-1.124-.453-.43-1.167-.431-.49 0-.916.26a1.97 1.97 0 0 0-.682.725q-.255.46-.256 1.06V55zM561.146 78.647a.5.5 0 0 0 0 .707l3.182 3.182a.501.501 0 0 0 .708-.707L562.207 79l2.829-2.828a.5.5 0 0 0-.708-.707zm136.708.707a.5.5 0 0 0 0-.708l-3.182-3.181a.501.501 0 0 0-.708.707L696.793 79l-2.829 2.828a.5.5 0 0 0 .708.707zM561.5 79v.5h136v-1h-136z"/><path stroke="#000" d="M560.5 75v8M698.5 75v8"/><path fill="#000" d="M594.777 457.149a4 4 0 0 1-1.342-.256 3.2 3.2 0 0 1-1.225-.825q-.554-.586-.89-1.582-.335-1.002-.335-2.514 0-1.449.271-2.568.272-1.123.789-1.891.517-.772 1.246-1.172a3.4 3.4 0 0 1 1.657-.399q.916 0 1.63.367.719.363 1.172 1.012.452.651.586 1.497h-1.3a2.4 2.4 0 0 0-.703-1.22q-.522-.484-1.385-.484-1.267 0-1.998 1.102-.724 1.103-.73 3.095h.086a3.2 3.2 0 0 1 1.624-1.273 3.2 3.2 0 0 1 1.06-.176 3.26 3.26 0 0 1 1.716.469q.778.464 1.246 1.284.47.815.469 1.869 0 1.012-.453 1.854a3.45 3.45 0 0 1-1.273 1.332q-.815.49-1.918.479m0-1.172q.672 0 1.204-.335.538-.336.847-.901.315-.564.314-1.257 0-.676-.303-1.23a2.3 2.3 0 0 0-.826-.89 2.2 2.2 0 0 0-1.193-.33q-.506 0-.943.203a2.4 2.4 0 0 0-.767.543 2.6 2.6 0 0 0-.511.794 2.517 2.517 0 0 0 .958 3.057q.539.346 1.22.346m9.233 1.172q-1.098 0-1.939-.389-.837-.394-1.305-1.081a2.7 2.7 0 0 1-.464-1.577 2.9 2.9 0 0 1 1.028-2.264 2.3 2.3 0 0 1 1.082-.506v-.064a2.1 2.1 0 0 1-1.247-.878 2.67 2.67 0 0 1-.458-1.551 2.64 2.64 0 0 1 .421-1.486 2.97 2.97 0 0 1 1.172-1.033q.751-.378 1.71-.378.948 0 1.694.378.745.378 1.172 1.033.431.656.436 1.486a2.7 2.7 0 0 1-.474 1.551 2.1 2.1 0 0 1-1.23.878v.064q.591.107 1.065.506.474.395.757.986.282.586.287 1.278a2.75 2.75 0 0 1-.479 1.577q-.47.688-1.305 1.081-.831.39-1.923.389m0-1.172q.74 0 1.278-.239.538-.24.831-.677a1.8 1.8 0 0 0 .298-1.023 1.96 1.96 0 0 0-.319-1.092 2.2 2.2 0 0 0-.858-.745 2.7 2.7 0 0 0-1.23-.272q-.698 0-1.247.272a2.16 2.16 0 0 0-.857.745q-.309.474-.304 1.092-.005.587.282 1.023.294.437.837.677.543.239 1.289.239m0-5.177q.585 0 1.039-.235a1.8 1.8 0 0 0 .719-.655q.26-.42.266-.985a1.8 1.8 0 0 0-.261-.964 1.7 1.7 0 0 0-.709-.64 2.3 2.3 0 0 0-1.054-.229q-.613 0-1.071.229a1.66 1.66 0 0 0-.708.64 1.77 1.77 0 0 0-.245.964q-.005.564.25.985.261.421.719.655.459.235 1.055.235m6.349 6.285a.92.92 0 0 1-.676-.282.93.93 0 0 1-.283-.677q0-.394.283-.676a.92.92 0 0 1 .676-.282q.395 0 .677.282a.92.92 0 0 1 .282.676.994.994 0 0 1-.479.831.9.9 0 0 1-.48.128m6.564-11.143q.672.005 1.342.255.671.25 1.226.831.553.576.889 1.572t.336 2.498q0 1.454-.277 2.583-.271 1.125-.789 1.897a3.5 3.5 0 0 1-1.246 1.172 3.4 3.4 0 0 1-1.651.399q-.916 0-1.636-.362a3.2 3.2 0 0 1-1.172-1.017 3.55 3.55 0 0 1-.58-1.519h1.3q.175.752.697 1.242.528.484 1.391.484 1.261 0 1.992-1.102.735-1.103.735-3.116h-.085a3.4 3.4 0 0 1-.709.772 3.12 3.12 0 0 1-1.976.676 3.3 3.3 0 0 1-1.721-.463 3.5 3.5 0 0 1-1.246-1.284q-.463-.82-.463-1.875 0-1 .447-1.832a3.45 3.45 0 0 1 1.268-1.332q.82-.495 1.928-.479m0 1.172q-.67 0-1.209.335-.533.33-.847.895a2.5 2.5 0 0 0-.309 1.241q0 .682.298 1.241.304.554.826.885.528.324 1.198.325.507 0 .943-.198.437-.202.762-.548.33-.352.517-.794.186-.447.186-.932 0-.64-.309-1.199a2.46 2.46 0 0 0-.841-.905 2.2 2.2 0 0 0-1.215-.346M627.05 457v-8.182h1.215v1.279h.106q.256-.655.826-1.018.57-.367 1.369-.367.81 0 1.348.367.543.363.847 1.018h.085q.314-.635.943-1.007.628-.378 1.507-.378 1.098 0 1.795.687.698.682.698 2.125V457h-1.257v-5.476q0-.906-.495-1.294a1.84 1.84 0 0 0-1.167-.389q-.863 0-1.337.522-.474.516-.474 1.31V457h-1.278v-5.604q0-.698-.453-1.124-.453-.43-1.167-.431-.49 0-.916.261-.42.26-.682.724-.255.459-.255 1.06V457zm13.038 0v-8.182h1.214v1.279h.107q.255-.655.825-1.018.57-.367 1.369-.367.81 0 1.348.367.543.363.847 1.018h.085q.315-.635.943-1.007.628-.378 1.507-.378 1.098 0 1.795.687.698.682.698 2.125V457h-1.257v-5.476q0-.906-.495-1.294a1.84 1.84 0 0 0-1.167-.389q-.863 0-1.337.522-.474.516-.474 1.31V457h-1.278v-5.604q0-.698-.453-1.124-.453-.43-1.167-.431-.49 0-.916.261-.42.26-.682.724-.255.459-.255 1.06V457zM560.646 460.647a.5.5 0 0 0 0 .707l3.182 3.182a.502.502 0 0 0 .708-.708L561.707 461l2.829-2.828a.5.5 0 0 0-.708-.707zm120.708.707a.5.5 0 0 0 0-.708l-3.182-3.182a.502.502 0 0 0-.708.708l2.829 2.828-2.829 2.828a.502.502 0 0 0 .708.708zM561 461v.5h120v-1H561zM611.646 423.149q-.938 0-1.688-.373a3.13 3.13 0 0 1-1.204-1.022 2.8 2.8 0 0 1-.496-1.481h1.279q.074.74.671 1.225.602.479 1.438.479.671 0 1.193-.314.528-.314.826-.863.303-.554.304-1.252 0-.714-.315-1.273a2.3 2.3 0 0 0-.852-.889 2.4 2.4 0 0 0-1.241-.331 3.4 3.4 0 0 0-1.028.155 2.9 2.9 0 0 0-.868.399l-1.236-.149.66-5.369h5.668v1.172h-4.56l-.383 3.217h.064q.336-.266.841-.442a3.2 3.2 0 0 1 1.055-.176q1.002 0 1.785.48.788.474 1.235 1.299.453.826.453 1.886 0 1.044-.469 1.864a3.4 3.4 0 0 1-1.278 1.289q-.814.47-1.854.469m9.552-11.058V423h-1.321v-9.524h-.064l-2.663 1.768v-1.342l2.727-1.811zm3.431 10.994a.92.92 0 0 1-.677-.282.92.92 0 0 1-.282-.677q0-.394.282-.676a.92.92 0 0 1 .677-.282q.394 0 .676.282a.92.92 0 0 1 .283.676.9.9 0 0 1-.134.48 1 1 0 0 1-.346.351.9.9 0 0 1-.479.128m6.382.064q-.937 0-1.688-.373a3.13 3.13 0 0 1-1.204-1.022 2.8 2.8 0 0 1-.495-1.481h1.278q.075.74.671 1.225.603.479 1.438.479.672 0 1.194-.314.526-.314.825-.863.304-.554.304-1.252 0-.714-.314-1.273a2.3 2.3 0 0 0-.853-.889 2.4 2.4 0 0 0-1.241-.331 3.4 3.4 0 0 0-1.028.155 2.9 2.9 0 0 0-.868.399l-1.236-.149.661-5.369h5.667v1.172h-4.559l-.384 3.217h.064q.336-.266.842-.442a3.2 3.2 0 0 1 1.054-.176q1.002 0 1.785.48.788.474 1.236 1.299.452.826.452 1.886 0 1.044-.468 1.864a3.4 3.4 0 0 1-1.279 1.289q-.814.47-1.854.469m9.957-.149v-8.182h1.215v1.279h.106q.256-.655.826-1.018.57-.367 1.369-.367.81 0 1.348.367.543.363.847 1.018h.085q.314-.635.943-1.007.628-.378 1.507-.378 1.098 0 1.795.687.698.682.698 2.125V423h-1.257v-5.476q0-.906-.495-1.294a1.84 1.84 0 0 0-1.167-.389q-.863 0-1.337.522-.474.516-.474 1.31V423h-1.278v-5.604q0-.698-.453-1.124-.453-.43-1.167-.431-.49 0-.916.261-.42.26-.682.724-.255.459-.255 1.06V423zm13.038 0v-8.182h1.214v1.279h.107q.255-.655.825-1.018.57-.367 1.369-.367.81 0 1.348.367.543.363.847 1.018h.085q.315-.635.943-1.007.628-.378 1.507-.378 1.098 0 1.795.687.698.682.698 2.125V423h-1.257v-5.476q0-.906-.495-1.294a1.84 1.84 0 0 0-1.167-.389q-.863 0-1.337.522-.474.516-.474 1.31V423h-1.278v-5.604q0-.698-.453-1.124-.453-.43-1.167-.431-.49 0-.916.261-.42.26-.682.724-.255.459-.255 1.06V423zM591.646 426.646a.5.5 0 0 0 0 .708l3.182 3.182a.502.502 0 0 0 .708-.708L592.707 427l2.829-2.828a.502.502 0 0 0-.708-.708zm89.708.708a.5.5 0 0 0 0-.707l-3.182-3.182a.5.5 0 1 0-.708.707l2.829 2.828-2.829 2.828a.502.502 0 0 0 .708.708zM592 427v.5h89v-1h-89z"/><path stroke="#000" d="M560 263v207.5M682 387.5v83M591 335.5V437"/><path stroke="#000" stroke-miterlimit="10" stroke-width=".5" d="m231.94 303.68 1.08 1.87M234.1 307.42l1.08 1.87M238.42 307.421l-1.08-1.87M236.26 303.681l-1.08-1.87M231.94 307.42h2.16M236.26 307.42h2.16M431.48 307.42h2.16M435.8 307.42h2.16M437.96 303.68h-2.16M433.64 303.68h-2.16M238.42 303.68h-2.16M234.1 303.68h-2.16M334.95 129.01l-1.08 1.87M332.79 132.75l-1.08 1.87M235.18 301.811l-1.08 1.87M233.02 305.551l-1.08 1.87M235.18 309.29l1.08-1.87M237.34 305.55l1.08-1.87M334.95 136.489l1.08-1.87M337.11 132.751l1.08-1.87M245.22 211.761l-8.56-3.55M237.34 206.551l8.57 3.54M328.65 214.91v4.93M329.55 215.189v3.6M333.15 218.789v-3.6M335.67 215.1v3.78M339.27 218.88v-3.78M341.25 219.84v-4.93M343.49 214.67l-2.3 6.3M344.95 215.211l-2.29 6.3M325.04 221.76l-2.04-5.59M327.24 221.511l-2.29-6.3M328.71 220.97l-2.3-6.3M344.55 222.01l2.28-6.27M346.9 216.17l-2.04 5.59M335.04 218.881h4.86M329.55 218.789h3.6M333.15 215.189h-3.6M339.9 215.1h-4.86M331.71 130.881l1.08 1.87M333.87 134.619l1.08 1.87M431.48 303.68l1.08 1.87M433.64 307.42l1.08 1.87M437.96 307.421l-1.08-1.87M435.8 303.681l-1.08-1.87M338.19 134.62l-1.08-1.87M336.03 130.88l-1.08-1.87M419.3 200.349l8.61-3.57M419.99 202.009l8.61-3.57M420.99 203.54l8.58-3.55M421.68 205.21l8.58-3.56M422.55 206.79l8.57-3.55M423.24 208.46l8.57-3.55M423.99 210.091l8.57-3.54M433.24 208.211l-8.56 3.55M433.88 209.9l-8.57 3.55M434.57 211.561l-8.57 3.55M435.08 213.289l-8.58 3.56M435.77 214.949l-8.58 3.56M436.18 216.74l-8.61 3.56M436.87 218.4l-8.62 3.57M331.71 134.619h2.16M336.03 134.619h2.16M338.19 130.881h-2.16M333.87 130.881h-2.16M434.72 301.811l-1.08 1.87M432.56 305.551l-1.08 1.87M434.72 309.29l1.08-1.87M436.88 305.55l1.08-1.87M235.18 311.541a5.99 5.99 0 1 0 0-11.98 5.99 5.99 0 0 0 0 11.98Z"/><path stroke="#000" stroke-miterlimit="10" stroke-width=".5" d="M235.18 309.33a3.78 3.78 0 1 0 0-7.56 3.78 3.78 0 0 0 0 7.56ZM324.09 224.02c.86-.39 1.27-1.37.95-2.25M323 216.171a1.807 1.807 0 0 0-2.31-1.081c-.04.01-.07.03-.11.04M326.2 212.84c-.96.24-1.55 1.22-1.31 2.18.02.06.03.12.06.18M327.24 221.51c.31.85 1.2 1.34 2.08 1.14"/><path stroke="#000" stroke-miterlimit="10" stroke-width=".5" d="M323.07 215.74c-.31-.86-1.26-1.3-2.12-.99-.03 0-.05.02-.08.03M324.46 224.09c.8-.35 1.19-1.26.89-2.08M328.65 219.84c0 .5.4.9.9.9.06 0 .11 0 .17-.02M329.4 214.02c-.44.07-.75.45-.75.89M326.58 214.359c-.13.03-.21.16-.18.29v.02M328.71 220.971c.04.11.16.18.28.15"/><path stroke="#000" stroke-miterlimit="10" d="M334.95 387.9c77.292 0 139.95-62.658 139.95-139.95S412.242 108 334.95 108 195 170.658 195 247.95 257.658 387.9 334.95 387.9Z"/><path stroke="#000" stroke-miterlimit="10" stroke-width=".5" d="M334.95 375.33c70.35 0 127.38-57.03 127.38-127.38S405.3 120.57 334.95 120.57 207.57 177.6 207.57 247.95s57.03 127.38 127.38 127.38Z"/><path stroke="#000" stroke-miterlimit="10" stroke-width=".5" d="M334.95 332.42c46.651 0 84.47-37.818 84.47-84.47s-37.819-84.47-84.47-84.47c-46.652 0-84.47 37.819-84.47 84.47 0 46.652 37.818 84.47 84.47 84.47Z"/><path stroke="#000" stroke-miterlimit="10" stroke-width=".5" d="M334.95 294.49c25.703 0 46.54-20.837 46.54-46.54s-20.837-46.54-46.54-46.54-46.54 20.837-46.54 46.54 20.837 46.54 46.54 46.54Z"/><path stroke="#000" stroke-miterlimit="10" stroke-width=".5" d="M334.95 287c21.567 0 39.05-17.483 39.05-39.05s-17.483-39.05-39.05-39.05-39.05 17.484-39.05 39.05c0 21.567 17.483 39.05 39.05 39.05Z"/><path stroke="#000" stroke-miterlimit="10" stroke-width=".5" d="M343.7 212.84a36.2 36.2 0 0 0-17.49 0M320.87 214.779c-18.32 7.78-26.87 28.93-19.09 47.25s28.93 26.87 47.25 19.09 26.87-28.93 19.09-47.25a36.02 36.02 0 0 0-19.09-19.09"/><path stroke="#000" stroke-miterlimit="10" stroke-width=".5" d="M320.59 215.141c-18.12 7.93-26.38 29.05-18.45 47.18 7.93 18.12 29.05 26.38 47.18 18.45 18.12-7.93 26.38-29.05 18.45-47.18a35.81 35.81 0 0 0-18.45-18.45M343.32 214.36a34.6 34.6 0 0 0-16.74 0"/><path stroke="#000" stroke-miterlimit="10" stroke-width=".5" d="M340.5 214.02c-3.67-.6-7.42-.6-11.09 0M340.18 220.729c-3.46-.66-7.01-.66-10.46 0"/><path stroke="#000" stroke-miterlimit="10" stroke-width=".5" d="M340.92 221.129c-3.93-.87-8-.87-11.93 0M324.09 224.02c-13.22 6-19.07 21.58-13.07 34.79 6 13.22 21.58 19.07 34.79 13.07 13.22-6 19.07-21.58 13.07-34.79a26.24 26.24 0 0 0-13.07-13.07"/><path stroke="#000" stroke-miterlimit="10" stroke-width=".5" d="M324.46 224.09c-13.18 5.79-19.17 21.17-13.38 34.35s21.17 19.17 34.35 13.38 19.17-21.17 13.38-34.35a26.08 26.08 0 0 0-13.38-13.38M340.58 222.65c-3.71-.82-7.55-.82-11.25 0"/><path stroke="#000" stroke-miterlimit="10" stroke-width=".5" d="M334.95 270.63c12.526 0 22.68-10.155 22.68-22.68s-10.154-22.68-22.68-22.68-22.68 10.154-22.68 22.68 10.154 22.68 22.68 22.68Z"/><path stroke="#000" stroke-miterlimit="10" stroke-width=".5" d="M334.95 269.73c12.029 0 21.78-9.751 21.78-21.78s-9.751-21.78-21.78-21.78-21.78 9.751-21.78 21.78 9.751 21.78 21.78 21.78Z"/><path stroke="#000" stroke-miterlimit="10" stroke-width=".5" d="M334.95 268.74c11.482 0 20.79-9.308 20.79-20.79s-9.308-20.79-20.79-20.79-20.79 9.308-20.79 20.79 9.308 20.79 20.79 20.79Z"/><path stroke="#000" stroke-miterlimit="10" stroke-width=".5" d="M334.95 267.75c10.935 0 19.8-8.864 19.8-19.8s-8.865-19.8-19.8-19.8-19.8 8.865-19.8 19.8 8.865 19.8 19.8 19.8Z"/><path stroke="#000" stroke-miterlimit="10" stroke-width=".5" d="M334.95 266.58c10.289 0 18.63-8.341 18.63-18.63s-8.341-18.63-18.63-18.63-18.63 8.341-18.63 18.63 8.341 18.63 18.63 18.63ZM434.72 311.541a5.99 5.99 0 1 0 0-11.98 5.99 5.99 0 0 0 0 11.98Z"/><path stroke="#000" stroke-miterlimit="10" stroke-width=".5" d="M434.72 309.33a3.78 3.78 0 1 0 0-7.56 3.78 3.78 0 0 0 0 7.56ZM334.95 138.74a5.99 5.99 0 1 0 0-11.98 5.99 5.99 0 0 0 0 11.98Z"/><path stroke="#000" stroke-miterlimit="10" stroke-width=".5" d="M334.95 136.531a3.78 3.78 0 1 0 0-7.56 3.78 3.78 0 0 0 0 7.56ZM344.86 221.76c-.32.88.09 1.87.95 2.25M349.31 215.14a1.8 1.8 0 0 0-2.37.93c-.02.03-.03.07-.04.11M344.95 215.21c.34-.93-.14-1.97-1.08-2.31l-.18-.06M340.58 222.65c.88.2 1.77-.29 2.08-1.14"/><path stroke="#000" stroke-miterlimit="10" stroke-width=".5" d="M349.03 214.781c-.84-.36-1.81.04-2.17.88-.01.03-.02.05-.03.08M344.55 222.01c-.3.82.09 1.73.89 2.08M340.18 220.73a.9.9 0 0 0 1.05-.71c.01-.06.02-.11.02-.17M341.25 214.91c0-.44-.32-.82-.75-.89M419.3 200.35c-.46.19-.68.72-.49 1.18s.72.68 1.18.49M428.6 198.439c.46-.19.68-.72.49-1.18a.905.905 0 0 0-1.18-.49M340.92 221.13c.12.03.24-.04.28-.15M343.49 214.669c.05-.13-.02-.26-.14-.31h-.02M334.15 149.429c-.05.09-.08.2-.1.3v9.11c0 .23.1.47.26.64.15.15.36.25.57.26h.13c.15-.01.29-.06.42-.14s.24-.21.32-.34c.05-.09.08-.2.1-.3v-9.11c0-.23-.1-.47-.26-.64a.9.9 0 0 0-.57-.26h-.12c-.15.01-.29.06-.42.14s-.24.21-.32.34zM249.52 297.769c.14.09.31.13.48.13.06 0 .12 0 .17-.02.1-.02.19-.05.28-.1l7.79-4.5c.14-.08.27-.21.34-.36.07-.14.11-.3.11-.45s-.05-.29-.12-.42a.77.77 0 0 0-.31-.31.9.9 0 0 0-.47-.13c-.06 0-.12 0-.17.02-.1.02-.19.05-.28.1l-7.79 4.5c-.14.08-.26.21-.34.36-.07.14-.11.3-.11.45s.05.29.12.42.18.24.31.31zM420.81 297.031a.9.9 0 0 0-.08-.39l-.06-.12a.8.8 0 0 0-.22-.23l-.09-.06-7.79-4.5a.9.9 0 0 0-.48-.12.84.84 0 0 0-.44.13c-.12.08-.23.19-.31.32s-.12.28-.12.42c0 .13.02.27.08.39l.06.12c.06.09.13.17.22.23l.09.06 7.79 4.5c.14.08.31.13.48.12.16 0 .31-.05.44-.13.12-.08.23-.19.31-.32s.12-.28.12-.42ZM433.24 208.21a.913.913 0 0 0 .48-1.2.9.9 0 0 0-.46-.46c-.22-.1-.49-.1-.71 0M423.99 210.09a.913.913 0 0 0-.48 1.2c.09.21.25.37.46.46.22.1.49.1.71 0M431.81 204.909a.9.9 0 0 0 .47-1.2.94.94 0 0 0-.46-.46.9.9 0 0 0-.7 0M422.55 206.789a.9.9 0 0 0-.47 1.2c.1.21.26.37.46.46.22.1.49.1.7 0M430.26 201.649c.23-.09.42-.3.51-.54.08-.22.06-.46-.03-.67a.84.84 0 0 0-.46-.45.94.94 0 0 0-.7 0M420.99 203.539c-.23.09-.42.3-.51.54-.08.22-.06.46.03.67s.26.37.46.45c.22.09.48.09.7 0M425.31 213.449c-.22.09-.42.29-.5.52a.886.886 0 0 0 .48 1.12c.22.1.49.1.71.01M434.57 211.56c.22-.09.42-.29.5-.53a.886.886 0 0 0-.48-1.12.92.92 0 0 0-.71-.01M426.5 216.85c-.22.09-.41.29-.5.52-.08.21-.07.45.02.66s.25.37.46.47c.22.1.5.1.72.01M435.77 214.951c.22-.09.41-.29.5-.52.08-.21.07-.45-.02-.66a.92.92 0 0 0-.46-.47c-.22-.1-.5-.1-.72-.01M427.57 220.301c-.22.09-.41.29-.5.52-.08.21-.07.45.02.66s.25.37.45.47c.22.1.5.1.72.01M436.87 218.4c.22-.09.41-.29.5-.52.08-.21.07-.45-.02-.66a.94.94 0 0 0-.45-.47c-.22-.1-.5-.1-.72-.01M327.68 132.22c.03-.84.21-1.69.54-2.47.34-.82.83-1.58 1.44-2.23a7.2 7.2 0 0 1 2.33-1.65c.93-.41 1.95-.63 2.97-.63s2.04.22 2.97.63c.87.39 1.67.96 2.33 1.65.61.65 1.1 1.41 1.44 2.23s.5 1.63.54 2.47M342.22 132.221c.03.89-.1 1.79-.39 2.64s-.77 1.69-1.38 2.39c-.65.75-1.47 1.37-2.37 1.8-.97.46-2.05.71-3.13.7a7.5 7.5 0 0 1-3.13-.71c-.9-.43-1.71-1.05-2.36-1.8a7.2 7.2 0 0 1-1.38-2.39c-.3-.88-.42-1.75-.39-2.63M442.19 305.801a7.4 7.4 0 0 1-.7 2.99c-.44.94-1.1 1.79-1.9 2.46-.76.63-1.65 1.11-2.6 1.4a7.226 7.226 0 0 1-7.27-1.91c-.59-.61-1.1-1.37-1.45-2.18-.37-.86-.57-1.8-.59-2.73"/><path stroke="#000" stroke-miterlimit="10" stroke-width=".5" d="M427.68 305.83a7.3 7.3 0 0 1 2.49-5.62 7.3 7.3 0 0 1 2.61-1.47c.88-.28 1.82-.39 2.74-.31s1.74.3 2.54.68c.79.38 1.52.9 2.13 1.53.63.66 1.14 1.44 1.48 2.29.37.91.55 1.9.53 2.88M227.71 305.801c-.02-.98.16-1.97.54-2.88.35-.85.85-1.63 1.49-2.29s1.34-1.16 2.13-1.53 1.66-.6 2.54-.67a7.267 7.267 0 0 1 7.81 7.4"/><path stroke="#000" stroke-miterlimit="10" stroke-width=".5" d="M242.22 305.829a7.286 7.286 0 0 1-2.04 4.91c-.61.63-1.3 1.12-2.07 1.49s-1.63.61-2.5.68c-.91.08-1.84-.01-2.72-.28-.95-.28-1.83-.76-2.59-1.4a7.27 7.27 0 0 1-2.6-5.44M237.34 206.55a.93.93 0 0 0-.73.02.91.91 0 0 0-.45 1.14c.09.23.28.42.49.51M245.22 211.76c.22.09.5.09.73-.02a.91.91 0 0 0 .45-1.14.93.93 0 0 0-.5-.51M333.95 310.93l3.05 6.33M339.36 316.119l-3.05-6.33M334.59 215.551v2.88M340.35 218.431v-2.88M340.56 311.09v4.76M343.18 315.85v-4.76M323.07 215.74l.74 2.03M324.61 219.971l.74 2.04M330.3 309.789l-3.58 7.43M329.08 318.36l3.58-7.43M336.31 309.789a3.333 3.333 0 0 0-6.01 0M326.72 317.221a1.31 1.31 0 1 0 2.36 1.14M333.95 310.929a.72.72 0 0 0-1.3 0M324.61 219.97c.6-.24.89-.92.65-1.52s-.86-.86-1.45-.67M334.59 215.55c.25 0 .45-.2.45-.45M335.04 218.88c0-.25-.2-.45-.45-.45M337 317.26c.78 1.62 2.72 2.3 4.34 1.52a3.24 3.24 0 0 0 1.84-2.93M343.18 311.089c0-.72-.59-1.31-1.31-1.31s-1.31.59-1.31 1.31M339.36 316.12c.15.31.53.45.84.3.22-.11.36-.33.36-.57M340.35 218.43c-.25 0-.45.2-.45.45M339.9 215.1c0 .25.2.45.45.45M340.43 307.841v-.13c0-.04.01-.09.02-.13.02-.09.04-.18.08-.27s.08-.18.13-.26.12-.16.19-.23.15-.13.23-.19.17-.1.26-.13.18-.06.27-.08c.04 0 .09-.01.13-.02s.09 0 .13 0h.13c.04 0 .09.01.13.02.09.02.18.04.27.08s.18.08.26.13.16.12.23.19.13.15.19.23.1.17.13.26.06.18.08.27c0 .04.01.09.02.13s0 .09 0 .13"/><path stroke="#000" stroke-miterlimit="10" stroke-width=".5" d="M343.31 307.84v.13c0 .04-.01.09-.02.13-.02.09-.04.18-.08.27s-.08.18-.13.26-.12.16-.19.23-.15.13-.23.19-.17.1-.26.13-.18.06-.27.08c-.04 0-.09.01-.13.02s-.09 0-.13 0h-.13c-.04 0-.09-.01-.13-.02-.09-.02-.18-.04-.27-.08s-.18-.08-.26-.13-.16-.12-.23-.19-.13-.15-.19-.23a.9.9 0 0 1-.13-.26c-.03-.09-.06-.18-.08-.27 0-.04-.01-.09-.02-.13s0-.09 0-.13"/><path stroke="#000" stroke-miterlimit="10" stroke-width=".5" d="M334.95 379.119c72.443 0 131.17-58.727 131.17-131.17s-58.727-131.17-131.17-131.17-131.17 58.727-131.17 131.17 58.727 131.17 131.17 131.17Z"/><path fill="#e60012" d="M905.303 114.538s-.1-.04-.16-.04h-3.62a.29.29 0 0 0-.23.1c-.06.06-.09.14-.09.23 0 .06.02.11.04.16l1.81 3.14c.04.08.11.13.2.15.08.02.17 0 .24-.03.05-.03.09-.07.11-.12l1.81-3.14c.04-.08.06-.16.03-.25a.32.32 0 0 0-.15-.19z"/><path stroke="#000" stroke-linecap="round" stroke-linejoin="round" stroke-width=".5" d="m902.313 119.047.12-.07M852.733 130.887v7.37M855.563 138.197v-7.99M906.943 114.867l-1.83 3.71M951.103 138.197h.01M962.003 290.268l-1.4.21M863.503 137.358v-.87M1034.5 268.958h.02l.02-.01h.02l.02-.01h.02l.03-.01.02-.01.03-.01.03-.02.02-.01.03-.02.02-.02.02-.02.03-.02.02-.02.02-.03.02-.02.02-.03.01-.03.02-.03.01-.03.01-.04.01-.03.01-.03M1020.45 276.168h8.29M879.593 137.358v-.87M1034.75 269.857h-2.74M1032.11 268.957h2.33M1030.25 266.648h2.28M1029.47 263.168h3.53M1031.98 261.207h-3.42M899.283 116.768v-2.7M899.733 114.578v.29M900.813 380.647v-2.7M902.283 138.198v-17.35M904.393 138.198v-17.35M882.283 378.998l.38-2.68M999.443 177.508l-14.59 10.61M1028.56 248.418h4.16M1032.72 246.258h-4.16M984.853 306.557l14.59 10.61M919.393 379.697l-.38-2.67M905.863 377.947v2.7M906.943 114.868v-.29M907.393 114.068v2.7M887.653 377.027l-.37 2.67M1028.56 233.467h3.42M1033 231.508h-3.53M924.013 376.318l.37 2.68M1032.53 228.027h-2.28M1034.44 225.717h-2.33M1032.01 224.818h2.74M1028.74 218.508h-8.29M951.103 138.197v-7.99M953.943 138.257v-7.37M967.823 262.008l4.37 7.4M901.563 118.577l-1.83-3.71M1033 263.168l.18-.08M1033.18 231.588l-.18-.08M991.623 218.957v56.75M1028.56 232.408l.91-.9M1029.47 263.168l-.91-.9M1030.23 271.248v-.01M1018.65 220.307v54.06M1018.65 286.188v-11.75M1018.65 220.308v-11.82"/><circle cx="1034.98" cy="226.168" r=".25" fill="#000"/><path stroke="#000" stroke-linecap="round" stroke-linejoin="round" stroke-width=".5" d="M852.733 138.258h9.87M880.493 138.258h73.45M904.363 119.047l-.13-.07"/><circle cx="1034.98" cy="268.508" r=".25" fill="#000"/><path stroke="#000" stroke-linecap="round" stroke-linejoin="round" stroke-width=".5" d="M1028.56 232.408v1.06M1028.56 246.258v2.16M1028.56 261.207v1.06M1030.25 271.287v-.01M1030.25 223.397v-.01M1034.98 226.167l-.01-.01-.01-.04-.01-.04-.01-.04-.02-.03-.02-.03-.02-.04-.02-.02-.02-.03-.03-.03-.02-.02-.03-.02-.03-.02-.03-.02-.03-.01-.02-.01-.03-.01-.03-.01-.02-.01h-.02l-.02-.01h-.03M953.943 130.888v-2.31M953.933 128.577v-.95M879.593 136.488c0-4.44-3.6-8.05-8.05-8.05s-8.05 3.6-8.05 8.05M871.553 132.746l-1.08 1.87M869.393 136.486l-1.09 1.87M871.553 140.237l1.08-1.88M873.713 136.487l1.08-1.87M868.303 134.617l1.09 1.87M870.473 138.357l1.08 1.88M874.793 138.356l-1.08-1.87M872.633 134.616l-1.08-1.87M868.303 138.357h2.17M872.633 138.357h2.16M874.793 134.617h-2.16M870.473 134.617h-2.17"/><path stroke="#000" stroke-linecap="round" stroke-linejoin="round" stroke-width=".5" d="M871.553 142.257a5.77 5.77 0 1 0-.002-11.542 5.77 5.77 0 0 0 .002 11.542M934.163 306.147a18.04 18.04 0 0 0-11.07.12M931.883 360.059h2.16M936.203 360.059h2.16M938.363 356.318h-2.16M934.043 356.318h-2.16M931.883 356.318l1.08 1.87M934.043 360.059l1.08 1.87M938.363 360.057l-1.08-1.869M936.203 356.317l-1.08-1.879M935.123 354.438l-1.08 1.879M932.963 358.188l-1.08 1.869M935.123 361.929l1.08-1.87M937.283 358.188l1.08-1.87M935.123 363.958a5.77 5.77 0 1 0 0-11.54 5.77 5.77 0 1 0 0 11.54M906.413 114.038q-3.075-.075-6.15 0"/><path stroke="#000" stroke-linecap="round" stroke-linejoin="round" stroke-width=".5" d="M899.283 114.068c-73.6 2.24-131.46 63.72-129.22 137.33 2.24 73.6 63.72 131.46 137.33 129.22 63.39-1.93 116.647-48.24 127.357-110.75M1034.75 224.818c-10.71-62.51-63.967-108.82-127.357-110.75M1034.98 268.508c2.25-14.02 2.25-28.31 0-42.33M1033.3 262.188c1.13-9.87 1.13-19.83 0-29.69"/><path stroke="#000" stroke-linecap="round" stroke-linejoin="round" stroke-width=".5" d="M1032.16 225.708c-10.31-61.41-62.527-107.01-124.767-108.94M899.283 116.768c-72.11 2.24-128.75 62.51-126.51 134.62s62.51 128.75 134.62 126.51c62.24-1.93 114.457-47.52 124.767-108.93M1032.53 266.648c.17-1.16.33-2.31.47-3.47M1033 231.507c-.14-1.16-.3-2.32-.47-3.47"/><path stroke="#000" stroke-linecap="round" stroke-linejoin="round" stroke-width=".5" d="M1032.11 268.957c.13-.77.25-1.55.37-2.32M1032.48 228.037c-.12-.78-.24-1.55-.37-2.32M1030.5 274.748c.17-.8.34-1.6.49-2.4M1031 222.328c-.16-.8-.32-1.6-.49-2.4M1032.72 246.257c-.04-4.27-.28-8.54-.74-12.79M1031.98 261.208c.46-4.25.71-8.52.74-12.79M904.623 118.877h-2.56M904.233 118.977h-1.8M902.313 119.047c-16.03.13-31.9 3.26-46.78 9.23M951.143 128.277a128.2 128.2 0 0 0-46.78-9.23"/><path stroke="#000" stroke-linecap="round" stroke-linejoin="round" stroke-width=".5" d="M902.283 120.848a126.4 126.4 0 0 0-46.71 9.36M951.103 130.208a126.5 126.5 0 0 0-46.71-9.36M1014.97 192.628c-2.32-4.73-4.94-9.32-7.84-13.72M1007.13 315.767c2.9-4.4 5.52-8.98 7.84-13.72M987.253 201.768a92 92 0 0 0-3.77-6.34M983.493 299.248a96 96 0 0 0 3.77-6.34M968.423 285.948a75 75 0 0 0 4.28-8.35M941.833 305.038a69.4 69.4 0 0 0 13.37-11.64M965.353 251.597c2.36-34.25-23.5-63.93-57.75-66.28-34.25-2.36-63.93 23.5-66.28 57.75-2.36 34.25 23.5 63.93 57.75 66.28 8.13.56 16.29-.49 24.02-3.08M987.253 292.907a36 36 0 0 0 4.37-17.2M962.003 290.267c2.68-.4 5.03-1.98 6.41-4.31M960.603 290.477c-2.09.31-4 1.35-5.4 2.93M934.163 306.147c2.59.81 5.41.4 7.67-1.11"/><path stroke="#000" stroke-linecap="round" stroke-linejoin="round" stroke-width=".5" d="M972.703 277.598c1.16-2.65.97-5.7-.5-8.19M999.443 317.168c2.417 1.75 5.797 1.22 7.547-1.2l.14-.2M1014.97 302.048a36.04 36.04 0 0 0 3.68-15.86M965.353 251.598c-.25 3.64.61 7.27 2.47 10.41M1030.25 266.648c-1.28-2.97-4.73-4.35-7.7-3.07s-4.35 4.73-3.07 7.7 4.73 4.35 7.7 3.07a5.87 5.87 0 0 0 3.06-3.06M1030.64 269.437q.045-.48 0-.96M983.493 299.248a5.41 5.41 0 0 0 1.36 7.31M1024.15 271.207h1.44M1022.61 269.678h1.54M1025.59 269.678h1.53M1027.12 268.238h-1.53M1024.15 268.238h-1.54M1025.59 266.707h-1.44M1022.61 268.238v1.44M1024.15 266.707v1.53M1024.15 269.678v1.53M1025.59 271.208v-1.53M1025.59 268.237v-1.53M1027.12 269.678v-1.44"/><path stroke="#000" stroke-linecap="round" stroke-linejoin="round" stroke-width=".5" d="M1024.87 272.738c2.09 0 3.78-1.693 3.78-3.78 0-2.088-1.69-3.78-3.78-3.78a3.785 3.785 0 0 0-3.78 3.78c0 2.087 1.7 3.78 3.78 3.78M1028.74 276.168c.85 0 1.58-.59 1.76-1.42M1018.65 274.367c0 1 .81 1.8 1.8 1.8M1031 272.347a.9.9 0 0 0-.71-1.06h-.04M1018.65 208.487c0-5.5-1.26-10.92-3.68-15.86M991.623 218.958c0-6.01-1.5-11.92-4.37-17.2M1030.25 223.387a5.85 5.85 0 0 0-7.7-3.05 5.85 5.85 0 0 0-3.05 7.7 5.85 5.85 0 0 0 7.7 3.05 5.87 5.87 0 0 0 3.06-3.06M1030.64 226.198q.045-.48 0-.96M1007.13 178.907a5.41 5.41 0 0 0-7.487-1.54c-.07.05-.14.09-.2.14M984.853 188.117a5.41 5.41 0 0 0-1.36 7.31M1024.15 227.967h1.44M1022.61 226.438h1.54M1025.59 226.438h1.53M1027.12 224.998h-1.53M1024.15 224.998h-1.54M1025.59 223.467h-1.44M1022.61 224.998v1.44M1024.15 223.467v1.53M1024.15 226.438v1.529M1025.59 227.967v-1.529M1025.59 224.997v-1.53M1027.12 226.438v-1.44"/><path stroke="#000" stroke-linecap="round" stroke-linejoin="round" stroke-width=".5" d="M1024.87 229.497c2.09 0 3.78-1.692 3.78-3.78a3.78 3.78 0 0 0-3.78-3.779 3.784 3.784 0 0 0-3.78 3.779c0 2.088 1.7 3.78 3.78 3.78M1020.45 218.508c-1 0-1.8.81-1.8 1.8M1030.5 219.928c-.18-.83-.91-1.42-1.76-1.42M1030.31 223.378c.47-.11.78-.57.68-1.05M1030.25 223.387s.05 0 .07-.01M852.743 127.627v.95M887.123 136.088a5.87 5.87 0 1 0 0-11.74 5.87 5.87 0 0 0 0 11.74M919.553 136.088a5.87 5.87 0 1 0 0-11.74 5.87 5.87 0 0 0 0 11.74M917.303 129.498v1.44M918.833 127.967v1.53M918.833 130.938v1.53M920.273 132.468v-1.53M920.273 129.497v-1.53M921.803 130.938v-1.44M918.833 132.467h1.44M917.303 130.938h1.53M920.273 130.938h1.53M921.803 129.498h-1.53M918.833 129.498h-1.53M920.273 127.967h-1.44"/><path stroke="#000" stroke-linecap="round" stroke-linejoin="round" stroke-width=".5" d="M919.553 133.998a3.78 3.78 0 1 0 0-7.56 3.78 3.78 0 0 0 0 7.56M884.863 129.498v1.44M886.403 127.967v1.53M886.403 130.938v1.53M887.843 132.468v-1.53M887.843 129.497v-1.53M889.373 130.938v-1.44M886.403 132.467h1.44M884.863 130.938h1.54M887.843 130.938h1.53M889.373 129.498h-1.53M886.403 129.498h-1.54M887.843 127.967h-1.44M887.123 133.998a3.78 3.78 0 1 0-.002-7.562 3.78 3.78 0 0 0 .002 7.562M852.733 128.578v2.31M1034.5 268.957h-.05M1034.44 225.717h.06M1030.25 228.028l-.02-.03M1030.23 266.678l.02-.03M1030.25 271.278l-.02-.03M1030.23 223.428l.02-.03M1030.23 271.237v-.07c0-.02.01-.04.02-.06 0-.03.02-.05.03-.08l.03-.09.03-.11c.01-.04.02-.08.04-.12.03-.09.05-.18.07-.27.03-.1.05-.2.07-.31l.06-.33c.02-.11.03-.23.04-.35M1030.64 268.477c0-.12-.02-.229-.04-.349s-.03-.22-.06-.33c-.02-.1-.04-.21-.07-.31-.02-.09-.05-.181-.07-.271a.6.6 0 0 0-.04-.119l-.03-.11-.03-.091c0-.03-.02-.05-.03-.08 0-.02-.01-.04-.02-.06v-.069M1030.23 227.997v-.07c0-.02.01-.04.02-.06 0-.03.02-.05.03-.08l.03-.09.03-.11c.01-.04.02-.08.04-.12.03-.09.05-.18.07-.27.03-.1.05-.2.07-.31l.06-.33c.02-.11.03-.23.04-.35M1030.64 225.237c0-.12-.02-.23-.04-.35s-.03-.22-.06-.33c-.02-.1-.04-.21-.07-.31-.02-.09-.05-.18-.07-.27-.01-.04-.02-.08-.04-.12l-.03-.11-.03-.09c0-.03-.02-.05-.03-.08 0-.02-.01-.04-.02-.06v-.07M852.763 126.957v.67M953.923 127.628v-.67M904.623 118.878c.1 0 .2-.03.29-.08s.16-.13.2-.22M901.563 118.578a.53.53 0 0 0 .49.3M900.263 114.037c-.14 0-.28.06-.37.16s-.15.24-.15.38M906.943 114.577c0-.14-.06-.28-.15-.38a.52.52 0 0 0-.37-.16M855.563 130.207v-1.93M951.143 128.277v1.93M902.313 119.047v1.8M904.393 120.847v-1.8M1033.18 263.087l.12-.899M1033.3 232.488l-.12-.9M862.603 138.257c.5 0 .9-.4.9-.9M879.593 137.357c0 .5.4.9.9.9M903.643 118.126l1.81-3.14M901.213 114.986l1.81 3.14M905.143 114.457h-3.62M903.023 118.127a.36.36 0 0 0 .62 0M901.523 114.457c-.2 0-.36.16-.36.36 0 .06.02.12.05.18M905.453 114.987a.36.36 0 0 0-.31-.54M826.513 164.137l-6.37 6.37M826.513 176.878l6.37-6.37M820.143 324.168l6.37 6.37M832.883 324.167l-6.37-6.37M826.353 200.547l-3.49 6.3M822.863 287.828l3.49 6.3M830.743 211.218l3.49-6.3M846.693 185.598l-5.09 5.1M847.973 197.067l5.1-5.1M841.603 303.977l5.09 5.09M853.073 302.697l-5.1-5.09M834.233 289.757l-3.49-6.3M898.833 166.258v9.01M898.833 319.408v9.01M822.253 251.838h9.01M976.313 251.838h7.2M907.843 328.418v-9.01M907.843 175.268v-9.01M983.513 242.828h-7.2M831.263 242.828h-9.01M975.933 283.457l-3.49 6.3M958.703 297.607l-5.1 5.09M959.973 309.067l5.1-5.09M953.603 191.967l5.1 5.1M965.073 190.698l-5.1-5.1M972.443 204.918l3.49 6.3M980.323 294.128l3.49-6.3M983.813 206.847l-3.49-6.3M980.163 317.797l-6.37 6.37M980.163 330.538l6.37-6.37M973.793 170.508l6.37 6.37M986.533 170.507l-6.37-6.37M826.513 330.538a4.503 4.503 0 0 0 6.37 0 4.503 4.503 0 0 0 0-6.37M826.513 317.797a4.503 4.503 0 0 0-6.37 0 4.503 4.503 0 0 0 0 6.37M822.253 242.828a4.5 4.5 0 0 0-4.5 4.5c0 2.48 2.02 4.5 4.5 4.5M831.263 251.838a4.5 4.5 0 0 0 4.5-4.5c0-2.48-2.02-4.5-4.5-4.5M847.973 297.607a4.503 4.503 0 0 0-6.37 0 4.503 4.503 0 0 0 0 6.37M846.693 309.067a4.503 4.503 0 0 0 6.37 0 4.503 4.503 0 0 0 0-6.37M826.353 294.128a4.506 4.506 0 0 0 6.12 1.76 4.506 4.506 0 0 0 1.76-6.12M830.743 283.458a4.506 4.506 0 0 0-6.12-1.76 4.506 4.506 0 0 0-1.76 6.12M871.553 143.697a7.21 7.21 0 1 0 0-14.42 7.21 7.21 0 0 0 0 14.42M820.143 170.508a4.503 4.503 0 0 0 0 6.37 4.503 4.503 0 0 0 6.37 0M832.883 170.508a4.503 4.503 0 0 0 0-6.37 4.503 4.503 0 0 0-6.37 0M853.073 191.967a4.503 4.503 0 0 0 0-6.37 4.503 4.503 0 0 0-6.37 0M841.603 190.697a4.503 4.503 0 0 0 0 6.37 4.503 4.503 0 0 0 6.37 0M822.863 206.848a4.49 4.49 0 0 0 1.76 6.12c2.18 1.2 4.92.42 6.12-1.76M834.233 204.918c1.21-2.18.42-4.92-1.76-6.12a4.49 4.49 0 0 0-6.12 1.76M935.123 365.397a7.21 7.21 0 1 0 0-14.42 7.21 7.21 0 0 0 0 14.42M907.843 319.408a4.5 4.5 0 0 0-4.5-4.5c-2.48 0-4.5 2.02-4.5 4.5M898.833 328.418a4.5 4.5 0 0 0 4.5 4.5c2.48 0 4.5-2.02 4.5-4.5M953.603 302.697a4.503 4.503 0 0 0 0 6.37 4.503 4.503 0 0 0 6.37 0M965.073 303.977a4.503 4.503 0 0 0 0-6.37 4.503 4.503 0 0 0-6.37 0M986.533 324.167a4.503 4.503 0 0 0 0-6.37 4.503 4.503 0 0 0-6.37 0M973.793 324.168a4.503 4.503 0 0 0 0 6.37 4.503 4.503 0 0 0 6.37 0M976.313 242.828a4.5 4.5 0 0 0-4.5 4.5c0 2.48 2.02 4.5 4.5 4.5M983.513 251.838a4.5 4.5 0 0 0 4.5-4.5c0-2.48-2.02-4.5-4.5-4.5M983.813 287.828c1.21-2.18.42-4.92-1.76-6.12a4.49 4.49 0 0 0-6.12 1.76M972.443 289.758a4.49 4.49 0 0 0 1.76 6.12c2.18 1.21 4.92.42 6.12-1.76M898.833 175.268a4.5 4.5 0 0 0 4.5 4.5c2.48 0 4.5-2.02 4.5-4.5M958.703 197.067a4.503 4.503 0 0 0 6.37 0 4.503 4.503 0 0 0 0-6.37M959.973 185.597a4.503 4.503 0 0 0-6.37 0 4.503 4.503 0 0 0 0 6.37M980.323 200.547a4.506 4.506 0 0 0-6.12-1.76 4.51 4.51 0 0 0-1.76 6.12M975.933 211.217a4.506 4.506 0 0 0 6.12 1.76 4.506 4.506 0 0 0 1.76-6.12M980.163 176.878a4.503 4.503 0 0 0 6.37 0 4.503 4.503 0 0 0 0-6.37M980.163 164.138a4.503 4.503 0 0 0-6.37 0 4.503 4.503 0 0 0 0 6.37M907.843 166.258a4.5 4.5 0 0 0-4.5-4.5c-2.48 0-4.5 2.02-4.5 4.5"/><circle cx="1034.98" cy="226.168" r=".5" fill="#000"/><circle cx="1034.98" cy="268.508" r=".5" fill="#000"/><path stroke="#000" stroke-linecap="round" stroke-linejoin="round" d="m907.393 114.067-.98-.029q-3.075-.075-6.15 0"/><path stroke="#000" stroke-linecap="round" stroke-linejoin="round" d="m900.263 114.037-.98.03c-73.6 2.24-131.46 63.72-129.22 137.33 2.24 73.6 63.72 131.46 137.33 129.22 63.39-1.93 116.647-48.24 127.357-110.75l.21-1.29M1034.98 226.167l-.23-1.36c-10.71-62.51-63.967-108.82-127.357-110.75M1034.98 268.508c2.25-14.02 2.25-28.31 0-42.33M1034.96 268.568s.01-.04.01-.06"/><path fill="#000" d="M911.623 357.207c0-.7-.57-1.27-1.27-1.27s-1.27.57-1.27 1.27v5.25c0 .25-.29.45-.55.46a.85.85 0 0 1-.58-.18c-.12-.1-.2-.26-.2-.26l-3-6.51s-.02-.05-.03-.07c-.34-.63-1.33-1.7-2.86-1.7-1.85 0-2.89 1.64-3.01 1.83-.02.03-.03.06-.05.09-.61 1.21-3.49 7.15-3.61 7.4a1.273 1.273 0 0 0 2.29 1.11c.03-.06 2.9-5.97 3.57-7.31.12-.16.47-.57.81-.57s.57.29.61.35l2.97 6.43c.31.74 1.29 1.95 3.09 1.95 1.94 0 2.84-1.64 3.07-2.5.05-.18.04-.51.04-.76v-4.99zM910.353 355.327a1.27 1.27 0 1 0 0-2.54 1.27 1.27 0 0 0 0 2.54"/><path stroke="#000" stroke-linecap="round" stroke-linejoin="round" stroke-width=".5" d="M688.922 378.24h-6.65M688.922 377.189h-6.65M688.922 376.74h-6.65M622.292 378.6l59.98 6.31M615.192 309.85h-.02"/><circle cx="610.062" cy="297.35" r=".25" fill="#000"/><path stroke="#000" stroke-linecap="round" stroke-linejoin="round" stroke-width=".5" d="m610.062 297.35.12.01.38.06.39.13.41.18.43.23.43.3.43.34.43.39.41.43.39.46.37.48.34.5.32.51.3.53.26.53.25.55.22.55.17.48M697.772 268.211l-2.19.04M698.242 269.131h-15.97M695.582 268.251l-13.31-.12M599.352 296.23l-.71-.5M593.662 292.279l-.7-.49M599.352 296.23l-.71-.5M593.662 292.279l-.7-.49M592.962 289.949l.04.03M592.962 289.949l.04.03M682.272 225.78l13.31-.12M682.272 224.77h15.97M600.122 149.189l-.18.24M600.002 149.35l-.06.08M599.942 149.43l.06-.08M598.642 151.24l.71-.99M592.962 159.121l.7-.98M592.182 160.19l.15-.21M592.272 160.08l-.07.09M606.852 139.891l-.32.41M606.562 140.26l-.03.04M604.922 216.18h.45M604.942 212.789l.45-.01M604.962 209.439h.44M605.422 206.131l-.44.01M605.002 202.891l.44-.01M605.032 199.68l.42-.01M695.582 225.66l2.19.04M616.112 304.01l.11.34.14.5.11.5.09.47.06.47.04.44.02.43-.02.4-.03.38-.06.36-.08.32-.11.28-.11.24-.14.21-.14.16-.15.12-.17.1-.2.08-.23.04h-.07M605.052 217.82l-1.35.72M603.702 218.539l-2.01 1.08M598.862 219.41l-.54.29M603.672 198.82l1.25-.67M604.922 216.18l-1.49.8M604.922 216.18l-.75.4M604.332 200.05l.7-.37M604.332 200.05l.7-.37M605.032 214.43l-1.14.6M603.872 201.88l1.07-.56M604.942 212.789l-.74.39M604.702 212.92l-.5.26M604.542 203.131l.46-.24M604.542 203.131l.46-.24M605.002 211.08l-1 .53M602.022 206.09l2.94-1.57M598.372 208.021l.73-.38M604.962 209.439l-.24.13M604.252 206.531l.73-.39M601.862 207.799l.19-.1M604.982 207.779l-.94.5M605.052 196.51h.42M622.292 378.601v-263.3M622.292 115.3l59.98-6.3M695.582 115.711h-13.31M682.272 384.91V109"/><circle cx="690.262" cy="378.25" r=".25" fill="#000"/><path stroke="#000" stroke-linecap="round" stroke-linejoin="round" stroke-width=".5" d="M698.062 267.73v-41.55M698.242 375.591v-257.21M599.352 150.25c.12-.16.24-.33.36-.49M592.602 159.619c.12-.16.24-.33.36-.5M616.232 303.98c-.1-.3-.21-.59-.32-.88M616.422 304.59c-.06-.21-.12-.41-.19-.61M688.922 377.189h.34M698.012 117.301c-.09-.21-.21-.41-.36-.59M695.582 378.25c1.47 0 2.66-1.19 2.66-2.66M620.172 121.51c-.1.06-.2.15-.27.24M619.902 372.15q.105.15.27.24M697.772 268.21c.18-.09.3-.27.3-.48M698.062 226.179c0-.2-.11-.39-.3-.48M688.922 376.74c.17 0 .34 0 .51.02.14 0 .29.02.43.04.1.01.2.03.29.06.03 0 .05.02.08.04.01 0 .03.02.03.04M688.922 378.24h1.32M690.242 378.25h.02M695.582 115.711c.37 0 .74.08 1.08.23M696.662 115.939c.38.17.73.44.99.76M698.012 117.301c.15.34.23.71.23 1.08M690.262 377.01s-.01.03-.03.04c-.02.02-.05.03-.08.03-.09.03-.19.04-.29.06M689.872 377.141s-.09.01-.13.01c-.16.02-.31.02-.47.03M599.712 149.759l.05-.07M599.762 149.689l.05-.07M599.812 149.619l.07-.09M599.882 149.53l.06-.1M593.662 158.14l4.98-6.9M592.602 159.619l-.05.07M592.552 159.689l-.05.07M592.502 159.76l-.07.09M592.432 159.85l-.07.09M592.362 159.939l-.03.04M599.352 150.25l-6.39 8.87M604.042 208.279l-5.65 3M604.982 207.78c.18-.1.33-.26.43-.45s.18-.38.2-.59v-.26a.5.5 0 0 0-.07-.21.35.35 0 0 0-.13-.14.4.4 0 0 0-.19-.05M599.102 207.64l2.92-1.55M604.962 204.52c.18-.1.33-.27.44-.45s.18-.38.21-.59c.01-.09.01-.18 0-.26a.5.5 0 0 0-.06-.21.3.3 0 0 0-.13-.14.4.4 0 0 0-.18-.05M598.342 204.821l5.53-2.94M604.942 201.319c.19-.1.33-.27.45-.45s.19-.38.22-.59c.01-.09.02-.17 0-.26a.4.4 0 0 0-.06-.21.33.33 0 0 0-.12-.14.4.4 0 0 0-.18-.05M598.322 201.67l5.35-2.85M604.922 198.149c.19-.1.34-.27.45-.45s.2-.38.23-.6c.01-.09.02-.17.01-.26 0-.07-.02-.14-.05-.21-.03-.05-.06-.11-.11-.14a.34.34 0 0 0-.17-.05M604.002 211.609l-5.58 2.97M605.002 211.081c.18-.1.32-.26.43-.44s.17-.38.19-.59v-.26a.7.7 0 0 0-.07-.21.3.3 0 0 0-.14-.14.45.45 0 0 0-.19-.05M603.892 215.029l-5.45 2.91M605.032 214.431c.18-.1.32-.26.42-.44s.16-.38.17-.59c0-.09 0-.18-.02-.26a.8.8 0 0 0-.08-.22.5.5 0 0 0-.14-.15.35.35 0 0 0-.2-.05M601.692 219.619l-3.23 1.72M605.052 217.819c.18-.09.31-.26.41-.44s.15-.39.16-.59c0-.09 0-.18-.02-.26a.6.6 0 0 0-.09-.22.5.5 0 0 0-.15-.15.35.35 0 0 0-.2-.05M612.042 132.881c-.51.71-1.02 1.41-1.53 2.11-1.2 1.64-2.42 3.28-3.66 4.89M593.002 289.98l6.35 4.4M592.962 289.951s-.07-.05-.11-.06a.6.6 0 0 0-.29-.08M598.212 221.41h.06c.07 0 .13-.03.2-.06M598.192 217.999h.06c.07 0 .13-.03.19-.06M598.162 214.65h.06c.07 0 .13-.03.19-.06M598.142 211.339h.06c.07 0 .13-.03.19-.06M598.122 208.089h.06c.07 0 .13-.03.19-.06M598.102 204.89h.06c.07 0 .13-.03.19-.06M598.082 201.74h.06c.07 0 .13-.03.19-.06M599.732 296.369c.06 0 .13-.01.18-.04s.1-.08.13-.13M600.032 296.199s.03-.06.04-.09c.04-.11.05-.22.04-.33M600.122 295.771s0-.09-.01-.14M600.102 295.639l-.03-.15c-.04-.16-.1-.31-.18-.46M599.902 295.031c-.03-.06-.07-.13-.11-.19a1.7 1.7 0 0 0-.43-.46M616.842 126c-.14.21-.28.42-.42.62-.38.54-.74 1.08-1.12 1.63-.5.74-1.02 1.47-1.53 2.2-.57.81-1.15 1.63-1.73 2.43M599.942 149.43l-.06.1M599.882 149.529l-.07.09M599.812 149.619l-.05.07M599.762 149.689l-.05.07M599.712 149.76l-.23.31M599.482 150.07l-.13.18M592.332 159.979l.03-.04M592.362 159.94l.07-.09M592.432 159.85l.07-.09M592.502 159.759l.05-.07M592.552 159.689l.05-.07M592.602 159.621l.22-.31M592.822 159.309l.14-.19M598.422 206.381l6.12-3.25M598.422 206.381c-.06.03-.11.07-.16.11-.16.13-.28.31-.37.5"/><path stroke="#000" stroke-linecap="round" stroke-linejoin="round" stroke-width=".5" d="M597.892 206.99c-.06.13-.1.26-.13.4-.02.12-.02.23 0 .35.02.09.05.18.12.25.06.06.15.1.23.1M592.562 289.801h-.07c-.06.01-.12.04-.16.08M592.342 289.891s-.07.09-.1.14c-.09.2-.06.44-.01.65"/><path stroke="#000" stroke-linecap="round" stroke-linejoin="round" stroke-width=".5" d="M592.232 290.68c.03.1.06.21.11.31M592.332 290.98c.1.24.25.46.43.65.06.06.12.11.19.16M616.422 304.59c.15.54.27 1.09.34 1.65.07.51.1 1.02.07 1.54-.04.81-.2 1.64-.66 2.3"/><path stroke="#000" stroke-linecap="round" stroke-linejoin="round" stroke-width=".5" d="M616.182 310.07c-.21.31-.51.58-.84.74s-.69.22-1.06.21c-.41-.01-.81-.12-1.18-.27-.44-.18-.86-.41-1.25-.69a9 9 0 0 1-1.26-1.06c-.44-.43-.85-.9-1.22-1.39-.84-1.1-1.54-2.32-2.04-3.61M607.322 304.01c-.41-1.04-.7-2.14-.77-3.25-.03-.49-.02-.97.06-1.45.07-.4.18-.8.36-1.17.15-.31.35-.59.61-.82.23-.21.49-.37.78-.47.59-.21 1.27-.17 1.86 0M610.222 296.84c.06.02.12.04.19.06.19.07.38.14.57.23M610.972 297.131c.49.24.95.54 1.37.89.49.4.93.84 1.33 1.32.94 1.12 1.69 2.4 2.24 3.76"/><path stroke="#000" stroke-linecap="round" stroke-linejoin="round" stroke-width=".5" d="M615.172 309.85c-.63.03-1.26-.15-1.84-.4-.71-.31-1.35-.74-1.94-1.23a12.2 12.2 0 0 1-1.86-1.94c-.61-.79-1.13-1.64-1.54-2.55M598.442 203.181l5.89-3.13M598.442 203.18c-.06.03-.11.07-.16.11-.16.13-.29.31-.38.5"/><path stroke="#000" stroke-linecap="round" stroke-linejoin="round" stroke-width=".5" d="M597.902 203.789c-.06.13-.11.26-.13.4-.02.12-.03.23 0 .35.02.09.05.18.11.25.06.06.14.1.22.1M598.462 200.03c2.19-1.17 4.39-2.35 6.58-3.52M598.462 200.029c-.06.03-.11.07-.16.11-.16.14-.29.31-.39.5M597.922 200.641c-.06.13-.11.26-.14.41-.02.11-.03.23-.02.35.01.09.04.18.1.24s.14.09.21.1M598.372 212.939c-.06.03-.11.07-.16.11-.15.13-.27.31-.35.49"/><path stroke="#000" stroke-linecap="round" stroke-linejoin="round" stroke-width=".5" d="M597.862 213.539c-.05.13-.09.26-.11.4-.01.12-.01.23.02.35.02.1.07.19.14.25s.16.1.25.1M604.722 209.57l-6.35 3.37M598.342 216.301c-.06.03-.11.07-.15.11-.15.13-.27.31-.34.49"/><path stroke="#000" stroke-linecap="round" stroke-linejoin="round" stroke-width=".5" d="M597.852 216.9c-.05.13-.09.26-.1.4 0 .12 0 .24.03.35.03.1.07.19.15.25.07.06.16.1.25.1M604.202 213.18l-5.86 3.12M598.322 219.699c-.05.03-.1.06-.15.11-.15.13-.26.3-.33.49"/><path stroke="#000" stroke-linecap="round" stroke-linejoin="round" stroke-width=".5" d="M597.842 220.289c-.05.13-.08.26-.09.4 0 .12 0 .24.04.35.03.1.08.19.16.26.07.06.17.1.26.1M603.432 216.98l-1.47.78M601.962 217.76l-3.1 1.65M599.352 296.23s.07.04.1.06c.08.05.18.08.27.08M598.392 209.641l3.47-1.84M602.052 207.699l2.2-1.17M605.162 216.119h-.06c-.06 0-.13.03-.18.06M598.642 295.729l-4.98-3.45M605.182 212.721h-.06c-.06 0-.13.03-.18.06M605.202 209.369h-.06c-.06 0-.13.03-.18.06M605.222 206.07h-.06c-.06 0-.12.03-.18.06M598.392 209.641c-.06.03-.11.07-.16.11-.16.13-.28.31-.36.5M597.882 210.24c-.06.13-.1.26-.12.4-.02.12-.02.23.01.35.02.09.06.19.13.25.06.06.15.1.24.1M605.242 202.82h-.06c-.06 0-.12.03-.18.06M605.262 199.609h-.05c-.06 0-.12.03-.18.06M607.992 303.731c-.37-.82-.64-1.69-.75-2.58-.05-.4-.06-.8-.02-1.2.04-.34.11-.69.24-1.01.11-.28.26-.54.46-.76.17-.2.38-.38.62-.51.45-.26 1-.35 1.52-.33M605.282 196.449h-.05c-.06 0-.12.03-.18.06M695.582 378.25h-5.32M620.172 376.25l2.12 2.35M590.892 331.93l29.01 40.22M620.172 117.661l2.12-2.36M590.892 161.979l1.29-1.79M600.122 149.191l6.41-8.89M616.842 126l3.06-4.24M590.892 331.93V161.98M620.172 376.25V117.66M590.892 200.971c-25.4 10.38-37.57 39.39-27.18 64.79a49.67 49.67 0 0 0 27.18 27.18"/><path stroke="#000" stroke-linecap="round" stroke-linejoin="round" d="m606.562 140.26-.03.04.32-.41q1.86-2.43 3.66-4.89c.51-.7 1.02-1.41 1.53-2.11.58-.81 1.16-1.62 1.73-2.43.51-.73 1.03-1.46 1.53-2.2.37-.54.74-1.09 1.12-1.63.14-.21.29-.41.42-.62l3.06-4.24q.105-.15.27-.24v.02-3.88l2.12-2.35 59.98-6.32v6.71h13.31c.37 0 .74.08 1.08.23.38.17.73.44.99.76.14.18.26.38.36.59.15.34.23.71.23 1.08v257.22c0 1.47-1.19 2.66-2.66 2.66h-13.29v6.66l-59.98-6.3-2.12-2.35v-3.85c-.1-.06-.2-.15-.27-.24l-29.01-40.22v-39a49.64 49.64 0 0 1-27.18-27.18c-10.38-25.4 1.79-54.4 27.18-64.79v-38.99l1.29-1.79.15-.21.03-.04.07-.09.07-.09.05-.06.05-.07c.12-.16.24-.33.36-.5l.71-.98 4.98-6.9.71-.99c.12-.16.24-.33.36-.49l.05-.07.05-.07.07-.1.07-.09.18-.24 6.41-8.89-6.65 9.23-.07.1-6.85 9.5-.13.18-.23.31-.05.07-.05.06-.07.09-.07.09-.03.04-.07.1-.07.09"/></svg>