<svg width="20" height="20" viewBox="0 0 20 20" fill="none" xmlns="http://www.w3.org/2000/svg">
<path d="M8.16515 3C8.09941 3 8.03566 3.02608 7.9885 3.07356C7.94135 3.12037 7.91479 3.18457 7.91413 3.25078V8.09581H2.24835H2.24902C2.11156 8.09648 2.00066 8.20816 2 8.34658V16.7492C2.00066 16.8877 2.11156 16.9993 2.24902 17H17.749C17.8871 17.0007 17.9993 16.8883 18 16.7492V8.34658C17.9993 8.20748 17.8871 8.09512 17.749 8.09581H11.8746V3.25078C11.8746 3.11302 11.763 3.00068 11.6256 3.00002L8.16515 3ZM8.41485 3.50356H11.3746V10.7051C11.3752 10.7947 11.423 10.8783 11.5007 10.9224C11.5392 10.9445 11.5817 10.9559 11.6256 10.9559H13.0301L9.89509 14.7376L6.75943 10.9559H8.16591H8.16525C8.30337 10.9559 8.41494 10.8435 8.41494 10.7044L8.41485 3.50356ZM2.50002 8.59938H7.91488V10.4524H6.22616C6.16971 10.4544 6.11592 10.4765 6.07342 10.5133C6.06081 10.5246 6.04952 10.538 6.03889 10.5521C6.01499 10.5828 5.99839 10.6189 5.99042 10.657C5.98577 10.6744 5.98311 10.6925 5.98245 10.7099C5.98245 10.764 5.99971 10.8162 6.03225 10.8597C6.03225 10.863 6.03292 10.8664 6.03358 10.869L9.70253 15.296C9.76695 15.3736 9.87054 15.405 9.96617 15.3762C10.0133 15.3615 10.0552 15.3341 10.0864 15.296L13.7546 10.869H13.7553C13.8184 10.7941 13.8323 10.6891 13.7905 10.6002C13.7493 10.5113 13.661 10.4544 13.5634 10.4544H11.8747V8.60139H17.5V16.4985H2.50017L2.50002 8.59938Z" fill="black"/>
</svg>
