<?xml version="1.0" encoding="UTF-8"?>
<svg id="_레이어_1" data-name="레이어_1" xmlns="http://www.w3.org/2000/svg" version="1.1" viewBox="0 0 41 41">
  <!-- Generator: Adobe Illustrator 29.3.0, SVG Export Plug-In . SVG Version: 2.1.0 Build 146)  -->
  <defs>
    <style>
      .st0 {
        fill: #f37979;
      }

      .st1 {
        fill: none;
      }

      .st1, .st2, .st3 {
        stroke-miterlimit: 10;
      }

      .st1, .st3 {
        stroke: #717171;
      }

      .st4 {
        fill: #fec46b;
      }

      .st2 {
        fill: #f6f7f7;
        stroke: #dfdfdf;
      }

      .st3 {
        fill: #fff;
      }

      .st5 {
        fill: #64abec;
      }

      .st6 {
        fill: #b4b4b5;
      }

      .st7 {
        fill: #f691aa;
      }
    </style>
  </defs>
  <path class="st2" d="M20.5,40.5c11,0,20-9,20-20S31.5.5,20.5.5.5,9.5.5,20.5s9,20,20,20Z"/>
  <path class="st3" d="M22.9,7.7l10,2.7-2.8,4.8-10-2.7,2.8-4.8Z"/>
  <path class="st3" d="M17.2,7.7l-10,2.7,2.8,4.8,10-2.7-2.8-4.8Z"/>
  <path class="st7" d="M14.8,17.8c1.9,0,3.4-1.5,3.4-3.4s-1.5-3.4-3.4-3.4-3.4,1.5-3.4,3.4,1.5,3.4,3.4,3.4Z"/>
  <path class="st6" d="M19.2,16.4c1.9,0,3.4-1.5,3.4-3.4s-1.5-3.4-3.4-3.4-3.4,1.5-3.4,3.4,1.5,3.4,3.4,3.4Z"/>
  <path class="st0" d="M23.5,16c1.9,0,3.4-1.5,3.4-3.4s-1.5-3.4-3.4-3.4-3.4,1.5-3.4,3.4,1.5,3.4,3.4,3.4Z"/>
  <path class="st4" d="M20.2,19.2c1.9,0,3.4-1.5,3.4-3.4s-1.5-3.4-3.4-3.4-3.4,1.5-3.4,3.4,1.5,3.4,3.4,3.4Z"/>
  <path class="st5" d="M26,17.8c1.9,0,3.4-1.5,3.4-3.4s-1.5-3.4-3.4-3.4-3.4,1.5-3.4,3.4,1.5,3.4,3.4,3.4Z"/>
  <path class="st3" d="M20,18.2l-10-3v13.5l10,3,10-3v-13.5l-10,3Z"/>
  <path class="st1" d="M20,18.2v13.3"/>
  <path class="st3" d="M17.2,22.7l-10-2.7,2.8-4.8,10,2.7-2.8,4.8Z"/>
  <path class="st3" d="M22.9,22.7l10-2.7-2.8-4.8-10,2.7,2.8,4.8Z"/>
  <path d="M16.9,33.6c0,0,0-.2-.1-.2,0,0-.1-.1-.2-.2,0,0-.1,0-.2-.1,0,0-.2,0-.3,0-.2,0-.3,0-.4.1-.1,0-.2.2-.3.4,0,.2-.1.4-.1.6s0,.4.1.6c0,.2.2.3.3.4.1,0,.3.1.5.1s.3,0,.4-.1c.1,0,.2-.2.3-.3,0-.1.1-.3.1-.4h.1s-.8,0-.8,0v-.3h1.1v.3c0,.2,0,.4-.1.6,0,.2-.2.3-.4.4-.2,0-.4.1-.6.1s-.5,0-.6-.2c-.2-.1-.3-.3-.4-.5-.1-.2-.2-.5-.2-.8s0-.4,0-.6c0-.2.1-.3.3-.5.1-.1.2-.2.4-.3.1,0,.3,0,.5,0s.3,0,.4,0c.1,0,.2.1.3.2.1,0,.2.2.3.3,0,.1.1.2.1.4h-.3ZM19,34v.3h-1.2v-.3h1.2ZM21.1,33.4c0-.1,0-.2-.2-.3-.1,0-.3-.1-.4-.1s-.2,0-.3,0c0,0-.2,0-.2.2,0,0,0,.1,0,.2s0,.1,0,.2c0,0,0,0,.1.1,0,0,.1,0,.2,0,0,0,.1,0,.2,0h.3c0,0,.2.1.2.2,0,0,.2,0,.3.1,0,0,.2.1.2.2,0,0,0,.2,0,.3s0,.3-.1.4c0,.1-.2.2-.3.3-.1,0-.3.1-.5.1s-.4,0-.5,0c-.1,0-.3-.2-.3-.3,0-.1-.1-.2-.1-.4h.3c0,.1,0,.2.1.3,0,0,.1.1.2.2,0,0,.2,0,.3,0s.2,0,.3,0c.1,0,.2-.1.2-.2,0,0,0-.2,0-.3s0-.2,0-.2c0,0-.1-.1-.2-.1s-.2,0-.3,0h-.3c-.2-.2-.4-.2-.5-.4-.1-.1-.2-.3-.2-.5s0-.3.1-.4c0-.1.2-.2.3-.3.1,0,.3,0,.5,0s.3,0,.5,0c.1,0,.2.2.3.3,0,.1.1.2.1.4h-.3ZM22.9,35.5h-.9v-2.8h.9c.3,0,.5,0,.7.2.2.1.3.3.4.5.1.2.2.5.2.7s0,.5-.2.7c-.1.2-.3.4-.5.5-.2.1-.4.2-.7.2ZM22.3,35.2h.5c.2,0,.4,0,.6-.1.2,0,.3-.2.3-.4,0-.2.1-.4.1-.6s0-.4-.1-.6c0-.2-.2-.3-.3-.4-.1,0-.3-.1-.5-.1h-.5v2.2ZM24.7,35.5v-2.8h.3v1.4h0l1.2-1.4h.4l-1.2,1.3,1.2,1.5h-.4l-1-1.3-.3.4v.9h-.3Z"/>
</svg>