<svg xmlns="http://www.w3.org/2000/svg" width="16" height="16" fill="none" viewBox="0 0 16 16"><path stroke="currentColor" stroke-linecap="round" stroke-linejoin="round" d="m11.774 5.533 1.867-2.066c.333-.267.066-.8-.334-.8H3.174c-.4 0-.667.533-.4.866L6.641 8.2a.5.5 0 0 1 .133.333V13c0 .4.467.667.8.4l1.267-.933"/><path stroke="currentColor" stroke-linecap="round" stroke-linejoin="round" stroke-miterlimit="3" d="M11.108 12.267a2.867 2.867 0 1 0 0-5.734 2.867 2.867 0 0 0 0 5.734M12.041 8.466l-1.867 1.867M12.041 10.333l-1.867-1.867"/></svg>