<svg width="16" height="16" viewBox="0 0 16 16" fill="none" xmlns="http://www.w3.org/2000/svg">
<rect width="16" height="16" fill="#333333"/>
<path d="M8 1C9.3845 1 10.7385 1.4105 11.8896 2.17969C13.0406 2.94881 13.937 4.04238 14.4668 5.32129C14.9966 6.6004 15.1363 8.00831 14.8662 9.36621C14.5961 10.724 13.9291 11.9713 12.9502 12.9502C11.9713 13.9291 10.724 14.5961 9.36621 14.8662C8.00831 15.1363 6.6004 14.9966 5.32129 14.4668C4.0424 13.937 2.9488 13.0406 2.17969 11.8896C1.95366 11.5514 2.04468 11.0933 2.38281 10.8672C2.72115 10.6412 3.17918 10.732 3.40527 11.0703C4.01251 11.9791 4.87596 12.6872 5.88574 13.1055C6.89545 13.5236 8.00624 13.6331 9.07812 13.4199C10.1501 13.2067 11.1353 12.6811 11.9082 11.9082C12.6811 11.1353 13.2067 10.1501 13.4199 9.07812C13.6331 8.00625 13.5236 6.89544 13.1055 5.88574C12.6872 4.87596 11.9791 4.01251 11.0703 3.40527C10.162 2.79838 9.09434 2.47397 8.00195 2.47363C6.4458 2.47983 4.95192 3.08596 3.83105 4.16504L3.31152 4.68457H5.4209C5.82777 4.68457 6.15806 5.01406 6.1582 5.4209C6.1582 5.82785 5.82785 6.1582 5.4209 6.1582H1.7373C1.33035 6.1582 1 5.82785 1 5.4209V1.7373C1 1.33035 1.33035 1 1.7373 1C2.14406 1.00024 2.47363 1.3305 2.47363 1.7373V3.4375L2.79785 3.11426C4.19337 1.76522 6.05612 1.0074 7.99707 1H8Z" fill="white"/>
</svg>
