<svg xmlns="http://www.w3.org/2000/svg" width="16" height="16" fill="none" viewBox="0 0 16 16"><g clip-path="url(#a)"><path fill="#d9d9d9" d="M3 1h10v12H3z"/><path fill="#d9d9d9" d="m3 1 8 2v12l-7.5-2z"/><path stroke="#a9a9a9" stroke-linecap="round" stroke-linejoin="round" d="m4.007 1.009 5.89 1.673q1.597.324 1.597 1.323v8.989M4.007 1.009h7.986a.882.882 0 0 1 .998.999v9.987a.884.884 0 0 1-.998.999h-.5M4.008 1.009a.882.882 0 0 0-.998.999v9.837a1.11 1.11 0 0 0 .998 1.149l6.489 1.997a.882.882 0 0 0 .998-.999v-.998M9.497 8v1.997"/></g><defs><clipPath id="a"><path fill="#fff" d="M0 0h16v16H0z"/></clipPath></defs></svg>