<svg xmlns="http://www.w3.org/2000/svg" width="20" height="20" fill="none" viewBox="0 0 20 20"><g clip-path="url(#a)"><path fill="#686868" d="M6 15V5a.884.884 0 0 1 1-1h8a.884.884 0 0 1 1 1v10a.885.885 0 0 1-1 1H7a.885.885 0 0 1-1-1m8-6v2Z"/><path stroke="#aaa" stroke-linecap="round" stroke-linejoin="round" d="M14 9v2m-8 4V5a.884.884 0 0 1 1-1h8a.884.884 0 0 1 1 1v10a.885.885 0 0 1-1 1H7a.885.885 0 0 1-1-1"/><path fill="#686868" stroke="#bbb" d="M6.5 16.5a4 4 0 1 0 0-8 4 4 0 0 0 0 8Z"/><path stroke="#bbb" stroke-linecap="round" d="M6.5 10.214V12.5l1.683 1.683"/></g><defs><clipPath id="a"><path fill="#fff" d="M0 0h20v20H0z"/></clipPath></defs></svg>