<svg width="16" height="16" viewBox="0 0 16 16" fill="none" xmlns="http://www.w3.org/2000/svg">
<path d="M12.6667 4V13.3333C12.6667 13.687 12.5262 14.0261 12.2762 14.2761C12.0261 14.5262 11.687 14.6667 11.3334 14.6667H4.66671C4.31309 14.6667 3.97395 14.5262 3.7239 14.2761C3.47385 14.0261 3.33337 13.687 3.33337 13.3333V4" stroke="#222222" stroke-width="1.33333" stroke-linecap="round" stroke-linejoin="round"/>
<path d="M2 4H14" stroke="#222222" stroke-width="1.33333" stroke-linecap="round" stroke-linejoin="round"/>
<path d="M5.33337 4.00004V2.66671C5.33337 2.31309 5.47385 1.97395 5.7239 1.7239C5.97395 1.47385 6.31309 1.33337 6.66671 1.33337H9.33337C9.687 1.33337 10.0261 1.47385 10.2762 1.7239C10.5262 1.97395 10.6667 2.31309 10.6667 2.66671V4.00004" stroke="#222222" stroke-width="1.33333" stroke-linecap="round" stroke-linejoin="round"/>
</svg>
