<svg width="15" height="19" viewBox="0 0 15 19" fill="currentColor" xmlns="http://www.w3.org/2000/svg">
<path d="M7.5 0C8.9487 6.4472e-05 10.2372 0.353826 11.3652 1.06152C12.4935 1.76944 13.3812 2.77681 14.0283 4.08203C14.6753 5.3872 14.999 6.93575 14.999 8.72754C14.999 10.5194 14.6754 12.0679 14.0283 13.373C13.5263 14.3856 12.8785 15.217 12.0869 15.8701L14.3018 18.8154H12.0459L10.5596 16.8242C9.63448 17.2435 8.61505 17.455 7.5 17.4551C6.05099 17.4551 4.76203 17.1005 3.63379 16.3926C2.50556 15.6847 1.61778 14.6783 0.970703 13.373C0.323649 12.0679 2.46178e-05 10.5194 0 8.72754C0 6.93578 0.323733 5.38718 0.970703 4.08203C1.61778 2.77681 2.50555 1.76944 3.63379 1.06152C4.76197 0.353706 6.05109 0 7.5 0ZM7.5 1.9248C6.47145 1.9248 5.53913 2.18437 4.7041 2.7041C3.87451 3.22398 3.21293 3.99083 2.7207 5.00293C2.23419 6.01493 1.99121 7.25667 1.99121 8.72754C1.99123 10.1985 2.2341 11.4401 2.7207 12.4521C3.21293 13.4642 3.87451 14.2301 4.7041 14.75C5.5392 15.2698 6.47134 15.5303 7.5 15.5303C8.15781 15.5302 8.77419 15.4216 9.35059 15.209L6.83594 11.9131H9.09277L10.9014 14.2939C11.4526 13.8145 11.9093 13.2013 12.2695 12.4521C12.7617 11.4401 13.0078 10.1986 13.0078 8.72754C13.0078 7.25654 12.7617 6.01498 12.2695 5.00293C11.7828 3.99083 11.1222 3.22398 10.2871 2.7041C9.45766 2.18435 8.52848 1.92487 7.5 1.9248Z" fill="currentColor"/>
</svg>
