<svg width="16" height="16" viewBox="0 0 16 16" fill="none" xmlns="http://www.w3.org/2000/svg">
<rect width="16" height="16" fill="#444444"/>
<path d="M15 4.33301V13.667C14.9998 14.4031 14.4031 14.9998 13.667 15H2.33301C1.59689 14.9998 1.00018 14.4031 1 13.667V2.33301C1.00018 1.59689 1.59689 1.00018 2.33301 1H11.667L15 4.33301ZM8 9C6.71145 9.00002 5.66715 10.0445 5.66699 11.333C5.66699 12.6217 6.71135 13.667 8 13.667C9.28866 13.667 10.333 12.6217 10.333 11.333C10.3328 10.0445 9.28857 9 8 9ZM2.33301 5.66699H10.333V3H2.33301V5.66699Z" fill="white"/>
</svg>
