<svg width="15" height="18" viewBox="0 0 15 18" fill="none" xmlns="http://www.w3.org/2000/svg">
<path d="M10.6 2.60001H12.2C12.6243 2.60001 13.0313 2.76858 13.3314 3.06864C13.6314 3.36869 13.8 3.77566 13.8 4.20001V15.4C13.8 15.8244 13.6314 16.2313 13.3314 16.5314C13.0313 16.8314 12.6243 17 12.2 17H2.6C2.17565 17 1.76869 16.8314 1.46863 16.5314C1.16857 16.2313 1 15.8244 1 15.4V4.20001C1 3.77566 1.16857 3.36869 1.46863 3.06864C1.76869 2.76858 2.17565 2.60001 2.6 2.60001H4.2" stroke="black" stroke-width="2" stroke-linecap="round" stroke-linejoin="round"/>
<path d="M9.8002 1H5.0002C4.55837 1 4.2002 1.35817 4.2002 1.8V3.4C4.2002 3.84183 4.55837 4.2 5.0002 4.2H9.8002C10.242 4.2 10.6002 3.84183 10.6002 3.4V1.8C10.6002 1.35817 10.242 1 9.8002 1Z" stroke="black" stroke-width="2" stroke-linecap="round" stroke-linejoin="round"/>
</svg>
