<svg xmlns="http://www.w3.org/2000/svg" width="16" height="16" fill="none" viewBox="0 0 16 16"><path fill="#333" d="M0 0h16v16H0z"/><path fill="#fff" d="M10.66 5.039a2.729 2.729 0 1 0-2.729 2.729v1.31a4.039 4.039 0 1 1 0-8.078 4.039 4.039 0 0 1 0 8.078v-1.31a2.73 2.73 0 0 0 2.73-2.73"/><path fill="#fff" d="M1 14.645c0-3.24 2.23-6.267 5.841-6.868a.655.655 0 1 1 .216 1.292c-2.939.49-4.747 2.935-4.747 5.576a.655.655 0 0 1-1.31 0"/><circle cx="8.586" cy="9.842" r=".764" fill="#fff"/><circle cx="8.586" cy="12.025" r=".764" fill="#fff"/><circle cx="8.586" cy="14.208" r=".764" fill="#fff"/><path fill="#fff" d="M14.044 9.296a.546.546 0 0 1 0 1.091h-3.711a.546.546 0 1 1 0-1.091zM14.044 11.479a.546.546 0 0 1 0 1.092h-3.711a.546.546 0 0 1 0-1.092zM14.044 13.662a.546.546 0 0 1 0 1.092h-3.711a.546.546 0 0 1 0-1.092z"/></svg>