<svg xmlns="http://www.w3.org/2000/svg" width="16" height="16" fill="none" viewBox="0 0 16 16"><g clip-path="url(#a)"><path fill="currentcolor" d="M14.27 6.06h-1.94c-.09-.31-.21-.6-.36-.88l1.37-1.37c.31-.31.31-.82 0-1.13l-.95-.95a.803.803 0 0 0-1.13 0L9.88 3.11c-.28-.15-.57-.27-.88-.36V.8c0-.44-.36-.8-.8-.8H6.86c-.44 0-.8.36-.8.8v1.95c-.31.09-.6.21-.88.36L3.81 1.74a.803.803 0 0 0-1.13 0l-.95.95c-.31.31-.31.82 0 1.13L3.1 5.19c-.15.28-.27.57-.36.88H.8c-.44 0-.8.36-.8.8v1.34c0 .44.36.8.8.8h1.94c.09.31.21.6.36.88l-1.37 1.37c-.31.31-.31.82 0 1.13l.95.95c.31.31.82.31 1.13 0l1.37-1.37c.28.15.57.27.88.36v1.95c0 .44.36.8.8.8H8.2c.44 0 .8-.36.8-.8v-1.95c.31-.09.6-.21.88-.36l1.38 1.38c.31.31.82.31 1.13 0l.95-.95c.31-.31.31-.82 0-1.13L11.97 9.9c.15-.28.27-.57.36-.88h1.94c.44 0 .8-.36.8-.8V6.88c0-.44-.36-.8-.8-.8zM7.54 9.91a2.38 2.38 0 0 1-2.38-2.38c0-1.32 1.06-2.38 2.38-2.38a2.38 2.38 0 0 1 2.38 2.38c0 1.32-1.06 2.38-2.38 2.38"/></g><defs><clipPath id="a"><path fill="#fff" d="M0 0h15.07v15.07H0z"/></clipPath></defs></svg>