<svg width="16" height="16" viewBox="0 0 16 16" fill="none" xmlns="http://www.w3.org/2000/svg">
<rect width="16" height="16" fill="#333333"/>
<circle cx="10.7641" cy="7.76409" r="0.764094" fill="white"/>
<circle cx="8.58624" cy="12.0248" r="0.764094" fill="white"/>
<circle cx="8.58624" cy="9.76409" r="0.764094" fill="white"/>
<circle cx="8.58624" cy="14.2078" r="0.764094" fill="white"/>
<path d="M14.0442 9.29578C14.3456 9.29578 14.59 9.54013 14.59 9.84156C14.59 10.143 14.3456 10.3873 14.0442 10.3873H10.3329C10.0315 10.3873 9.78711 10.143 9.78711 9.84156C9.78711 9.54013 10.0315 9.29578 10.3329 9.29578H14.0442Z" fill="white"/>
<path d="M14.0442 11.479C14.3456 11.479 14.59 11.7234 14.59 12.0248C14.59 12.3262 14.3456 12.5706 14.0442 12.5706H10.3329C10.0315 12.5706 9.78711 12.3262 9.78711 12.0248C9.78711 11.7234 10.0315 11.479 10.3329 11.479H14.0442Z" fill="white"/>
<path d="M14.0442 13.6622C14.3456 13.6622 14.59 13.9066 14.59 14.208C14.59 14.5094 14.3456 14.7538 14.0442 14.7538H10.3329C10.0315 14.7538 9.78711 14.5094 9.78711 14.208C9.78711 13.9066 10.0315 13.6622 10.3329 13.6622H14.0442Z" fill="white"/>
<path d="M13 8H12.0049V2.94238H3.99512V14.0576H7V15H3V2H13V8Z" fill="white"/>
</svg>
