<svg width="16" height="16" viewBox="0 0 16 16" fill="none" xmlns="http://www.w3.org/2000/svg">
<path d="M9.99996 1.33331H3.99996C3.64634 1.33331 3.3072 1.47379 3.05715 1.72384C2.8071 1.97389 2.66663 2.31302 2.66663 2.66665V13.3333C2.66663 13.6869 2.8071 14.0261 3.05715 14.2761C3.3072 14.5262 3.64634 14.6666 3.99996 14.6666H12C12.3536 14.6666 12.6927 14.5262 12.9428 14.2761C13.1928 14.0261 13.3333 13.6869 13.3333 13.3333V4.66665L9.99996 1.33331Z" stroke="black" stroke-width="1.33333" stroke-linecap="round" stroke-linejoin="round"/>
<path d="M6.66671 12C7.40309 12 8.00004 11.403 8.00004 10.6666C8.00004 9.93027 7.40309 9.33331 6.66671 9.33331C5.93033 9.33331 5.33337 9.93027 5.33337 10.6666C5.33337 11.403 5.93033 12 6.66671 12Z" stroke="black" stroke-width="1.33333" stroke-linecap="round" stroke-linejoin="round"/>
<path d="M10.6666 6.66669L7.66663 9.66669" stroke="black" stroke-width="1.33333" stroke-linecap="round" stroke-linejoin="round"/>
<path d="M10 7.33331L10.6667 7.99998" stroke="black" stroke-width="1.33333" stroke-linecap="round" stroke-linejoin="round"/>
</svg>
