<svg xmlns="http://www.w3.org/2000/svg" width="16" height="16" fill="none" viewBox="0 0 16 16"><path fill="#333" d="M0 0h16v16H0z"/><path fill="#fff" d="M9.666 13.555A.555.555 0 0 1 9.111 13V3a.555.555 0 0 1 .555-.555h2.223a.555.555 0 0 1 .555.555v10a.555.555 0 0 1-.556.555zm-5.555 0A.555.555 0 0 1 3.556 13V3a.555.555 0 0 1 .555-.555h2.222A.556.556 0 0 1 6.89 3v10a.555.555 0 0 1-.556.555z"/><path fill="#fff" d="M11.889 13.555a.556.556 0 0 0 .556-.555V3a.556.556 0 0 0-.556-.555H9.667A.556.556 0 0 0 9.11 3V13c0 .306.249.555.556.555zm-5.556 0A.556.556 0 0 0 6.889 13V3a.556.556 0 0 0-.556-.555H4.11A.555.555 0 0 0 3.556 3V13c0 .306.248.555.555.555zm5.556.556H9.667A1.11 1.11 0 0 1 8.555 13V3c0-.612.499-1.11 1.112-1.11h2.222C12.5 1.89 13 2.387 13 3v10c0 .612-.499 1.11-1.111 1.11m-5.556 0H4.11c-.612 0-1.11-.499-1.11-1.111V3c0-.612.498-1.11 1.11-1.11h2.222c.613 0 1.111.498 1.111 1.11v10c0 .612-.498 1.11-1.111 1.11"/></svg>