<svg xmlns="http://www.w3.org/2000/svg" width="16" height="16" fill="none" viewBox="0 0 16 16"><g clip-path="url(#a)"><path fill="#baff51" d="M6.8 6.618v-.019a.2.2 0 0 0-.02-.073.07.07 0 0 0-.054-.019 2.2 2.2 0 0 1-.66-.165 2 2 0 0 1-.367-.183 1.78 1.78 0 0 1-.77-.898 1 1 0 0 0-.055-.128 7 7 0 0 1-.164-.64.2.2 0 0 0-.037-.074.2.2 0 0 0-.074-.02.3.3 0 0 0-.073.019.1.1 0 0 0-.019.073q-.083.325-.201.64a1 1 0 0 1-.037.128c-.147.38-.42.698-.773.9a2.16 2.16 0 0 1-1.008.348.1.1 0 0 0-.074.019.2.2 0 0 0-.018.073v.019a.14.14 0 0 0 .018.055.2.2 0 0 0 .074.037c.36.018.707.131 1.008.33.347.208.617.523.77.898q.147.42.24.788a.07.07 0 0 0 .019.055.3.3 0 0 0 .073.018.2.2 0 0 0 .074-.018.2.2 0 0 0 .037-.055q.083-.402.22-.788a1.88 1.88 0 0 1 .77-.899 2 2 0 0 1 .367-.183c.21-.084.433-.133.66-.146a.2.2 0 0 0 .055-.037.14.14 0 0 0 .018-.055"/><path fill="#51cfff" d="M16 4.829v-.03a.3.3 0 0 0-.031-.12.12.12 0 0 0-.09-.03 3.7 3.7 0 0 1-1.08-.27 3 3 0 0 1-.6-.3 2.9 2.9 0 0 1-1.263-1.47 2 2 0 0 0-.09-.21 11 11 0 0 1-.267-1.05.3.3 0 0 0-.06-.12.3.3 0 0 0-.12-.03.5.5 0 0 0-.12.03.17.17 0 0 0-.03.12q-.135.535-.33 1.05a2 2 0 0 1-.06.21 2.9 2.9 0 0 1-1.26 1.47c-.494.325-1.06.52-1.65.57a.17.17 0 0 0-.12.03.3.3 0 0 0-.03.12v.03a.2.2 0 0 0 .03.09.3.3 0 0 0 .12.06c.589.03 1.158.216 1.65.54.567.342 1.01.857 1.26 1.47q.24.69.39 1.29a.12.12 0 0 0 .031.09.5.5 0 0 0 .12.03.3.3 0 0 0 .12-.03.4.4 0 0 0 .06-.09q.135-.658.36-1.29a3.08 3.08 0 0 1 1.26-1.47q.284-.18.6-.3c.344-.137.709-.218 1.08-.24a.4.4 0 0 0 .089-.06.2.2 0 0 0 .03-.09"/><path stroke="currentColor" stroke-linecap="round" d="M14.8 8.366v4.32A1.225 1.225 0 0 1 13.4 14H2.6c-.934 0-1.4-.378-1.4-1.312V4.213a1.29 1.29 0 0 1 1.4-1.4L8.37 2.8"/><path fill="#ff71ba" d="M10.8 10.02V10a.2.2 0 0 0-.02-.08.08.08 0 0 0-.06-.02 2.4 2.4 0 0 1-.72-.18 2 2 0 0 1-.4-.2 1.94 1.94 0 0 1-.84-.98 1 1 0 0 0-.064-.14 7 7 0 0 1-.18-.7.2.2 0 0 0-.04-.08.2.2 0 0 0-.08-.02.3.3 0 0 0-.08.02.12.12 0 0 0-.02.08q-.09.355-.217.7-.015.071-.04.14c-.16.413-.456.759-.84.98a2.36 2.36 0 0 1-1.1.38.12.12 0 0 0-.08.02A.2.2 0 0 0 6 10v.02q.005.032.02.06.036.028.08.04a2.2 2.2 0 0 1 1.1.36c.378.228.673.571.84.98q.16.46.26.86a.08.08 0 0 0 .02.06.3.3 0 0 0 .08.02.2.2 0 0 0 .08-.02.2.2 0 0 0 .04-.06q.09-.439.24-.86a2.05 2.05 0 0 1 .84-.98q.19-.121.4-.2a2.3 2.3 0 0 1 .72-.16.2.2 0 0 0 .057-.04.2.2 0 0 0 .023-.06"/></g><defs><clipPath id="a"><path fill="#fff" d="M0 0h16v16H0z"/></clipPath></defs></svg>