<svg width="20" height="20" viewBox="0 0 20 20" fill="none" xmlns="http://www.w3.org/2000/svg">
<path d="M6.00098 18.5C4.50098 18.5 3.50098 17.5 3.50098 16L3.50098 5.5L16.501 5.5L16.501 16C16.501 17.5 15.501 18.5 14.001 18.5L6.00098 18.5Z" fill="#EA4235" fill-opacity="0.15"/>
<path d="M6.50098 8L6.50098 16M9.50098 8L9.50098 15M13.501 8L13.501 16M3.50098 5.5L3.50098 16C3.50098 17.5 4.50098 18.5 6.00098 18.5C7.60098 18.5 12.501 18.5 14.001 18.5C15.501 18.5 16.501 17.5 16.501 16L16.501 5.5L3.50098 5.5Z" stroke="#EA4235" stroke-linecap="square"/>
<rect x="2.50098" y="3.5" width="15" height="2" fill="#EA4235" fill-opacity="0.15" stroke="#EA4235"/>
<path d="M10.2282 1C11.5919 1 12.501 1.90909 12.501 3.27273L12.5 3.5L7.5 3.5L7.50098 3.27273C7.50098 1.90909 8.41007 1 9.7737 1L10.2282 1Z" fill="#EA4235" fill-opacity="0.15" stroke="#EA4235" stroke-linecap="square"/>
</svg>
