<svg xmlns="http://www.w3.org/2000/svg" id="_레이어_1" viewBox="0 0 45 45"><defs><linearGradient id="_무제_그라디언트" x1="6.6" x2="38.3" y1="956.6" y2="988.3" data-name="무제 그라디언트" gradientTransform="translate(0 -950)" gradientUnits="userSpaceOnUse"><stop offset="0" stop-color="#02c8ff"/><stop offset="1" stop-color="#00a7fe"/></linearGradient><linearGradient id="_무제_그라디언트_2" x1="22.7" x2="22.7" y1="993" y2="952" data-name="무제 그라디언트 2" gradientTransform="translate(0 -950)" gradientUnits="userSpaceOnUse"><stop offset="0" stop-color="#02c8ff"/><stop offset="1" stop-color="#00a7fe"/></linearGradient><style>.st1{fill:#00adff}</style></defs><path d="M22.5 45C34.9 45 45 34.9 45 22.5S34.9 0 22.5 0 0 10.1 0 22.5 10.1 45 22.5 45" style="fill:url(#_무제_그라디언트)"/><path d="M22.7 43c11.4 0 20.5-9.2 20.5-20.5S34.1 2 22.7 2 2.2 11.1 2.2 22.5 11.4 43 22.7 43" style="fill:url(#_무제_그라디언트_2)"/><path d="M25.6 40h-6.2c-.4 0-.8-.3-.8-.8v-2.8c-1.1-.3-2.1-.8-3.2-1.4l-2 2c-.1.1-.3.2-.6.2s-.4 0-.6-.2l-4.4-4.4c-.3-.3-.3-.9 0-1.1l2-2c-.6-1-1-2-1.3-3.1H5.7c-.5 0-.8-.3-.8-.8v-6.2c0-.4.3-.8.8-.8h2.8c.3-1.1.8-2.1 1.3-3.2l-2-2c-.3-.3-.3-.9 0-1.1l4.4-4.4c.3-.3.9-.3 1.1 0l2 2c1-.6 2-1 3.2-1.3V5.8c0-.5.3-.8.8-.8h6.2c.4 0 .8.3.8.8v2.8c1.1.3 2.1.8 3.1 1.3l2-2c.3-.3.9-.3 1.1 0l4.4 4.4c.1.1.2.3.2.6s0 .4-.2.6l-2 2c.6 1 1 2 1.4 3.2h2.8c.5 0 .8.3.8.8v6.2c0 .4-.3.8-.8.8h-2.8c-.3 1.1-.8 2.1-1.4 3.1l2 2c.1.1.2.3.2.6s0 .4-.2.6l-4.4 4.4c-.1.1-.3.2-.6.2s-.4 0-.6-.2l-2-2c-1 .6-2 1-3.1 1.4v2.8c0 .5-.3.8-.8.8Z" style="fill:#fff;stroke:#afe4f9;stroke-miterlimit:10"/><path d="M22.5 34C16.2 34 11 28.8 11 22.5S16.2 11 22.5 11 34 16.2 34 22.5 28.8 34 22.5 34m0-22C16.8 12 12 16.7 12 22.5S16.7 33 22.5 33 33 28.3 33 22.5 28.3 12 22.5 12" class="st1"/><path d="M20.5 26.7c-.3 0-.7-.2-.8-.6l-1.4-4.2-1.3 4.2c-.1.4-.6.7-1 .6s-.7-.6-.6-1l2.1-6.6c0-.3.4-.6.8-.6s.7.2.8.6l2.1 6.6c.1.4 0 .9-.6 1h-.2Z" class="st1"/><path d="M20 25.1h-3.3c-.4 0-.8-.3-.8-.8s.3-.8.8-.8H20c.4 0 .8.3.8.8s-.3.8-.8.8M23.1 26.7c-.4 0-.8-.3-.8-.8v-6.8c0-.4.3-.8.8-.8h1.5c1.4 0 2.5 1.1 2.5 2.5s-1.1 2.5-2.5 2.5h-.7v2.5c0 .4-.3.8-.8.8Zm.9-5h.7c.4 0 .9-.4.9-.9s-.4-.9-.9-.9H24zM28.8 26.7c-.4 0-.8-.3-.8-.8v-6.8c0-.4.3-.8.8-.8s.8.3.8.8v6.8c0 .4-.3.8-.8.8" class="st1"/></svg>