<svg width="60" height="60" viewBox="0 0 60 60" fill="none" xmlns="http://www.w3.org/2000/svg">
<g clip-path="url(#clip0_2846_162)">
<path d="M51 0H9C4.02944 0 0 4.02944 0 9V51C0 55.9706 4.02944 60 9 60H51C55.9706 60 60 55.9706 60 51V9C60 4.02944 55.9706 0 51 0Z" fill="#A12944"/>
<mask id="mask0_2846_162" style="mask-type:luminance" maskUnits="userSpaceOnUse" x="12" y="6" width="36" height="38">
<path d="M48 6H12V43.2H48V6Z" fill="white"/>
</mask>
<g mask="url(#mask0_2846_162)">
<path d="M19.2569 22.6895L12.8057 18.2059L16.7323 12.6107L20.5998 15.2934L26.4816 11.4938V6.80164H33.3464V11.4938L36.6875 13.4496" stroke="white" stroke-width="2" stroke-linecap="round" stroke-linejoin="round"/>
<path d="M33.932 34.6014L33.2551 42.3984L26.4172 41.8159L26.8254 37.1399L20.573 33.9708L16.4906 36.3169L13.0582 30.4064L17.1406 28.0603L17.1728 24.1965" stroke="white" stroke-width="2" stroke-linecap="round" stroke-linejoin="round"/>
<path d="M30.0644 31.0262C33.7223 31.0262 36.6875 28.0762 36.6875 24.437C36.6875 20.7979 33.7223 17.8478 30.0644 17.8478C26.4066 17.8478 23.4413 20.7979 23.4413 24.437C23.4413 28.0762 26.4066 31.0262 30.0644 31.0262Z" stroke="white" stroke-width="2" stroke-linecap="round" stroke-linejoin="round"/>
<path d="M36.9776 16.0254L44.1002 12.7068L47.0116 18.8898L42.7413 20.8778L43.1065 27.8465L47.1943 30.1925L43.7618 36.1084L39.6741 33.7624L36.3008 35.6595" stroke="white" stroke-width="2" stroke-linecap="round" stroke-linejoin="round"/>
</g>
<mask id="mask1_2846_162" style="mask-type:luminance" maskUnits="userSpaceOnUse" x="12" y="48" width="36" height="6">
<path d="M47.4 48.6H12.6V53.4H47.4V48.6Z" fill="white"/>
</mask>
<g mask="url(#mask1_2846_162)">
<path d="M20.4844 48.8211V51.6707C20.4875 51.8585 20.4905 52.1401 20.3309 52.2946C20.2205 52.4036 20.0455 52.4581 19.8031 52.4581H19.0327C18.9038 52.4581 18.6859 52.4581 18.5294 52.3067C18.4005 52.1795 18.3361 51.9675 18.333 51.6768V48.8211H17.3662V51.6859C17.3693 51.9706 17.4399 53.397 18.8026 53.397H20.0731C20.5888 53.397 21.4542 53.1698 21.4542 51.6829V48.818H20.4813L20.4844 48.8211Z" fill="white"/>
<path d="M15.1227 50.4988L14.07 50.3685C13.8153 50.3292 13.5913 50.2686 13.5913 50.0021C13.5913 49.5811 13.7141 49.4661 14.5734 49.4661H14.7882C15.2946 49.4903 15.7642 49.5357 16.3412 49.6902L16.4117 49.7083V49.0572L16.4056 49.0452C16.3166 48.8786 15.5248 48.609 14.7514 48.6121H14.5365C13.2322 48.6121 12.6 49.0906 12.6 50.0748C12.6 51.0196 13.4041 51.2226 14.156 51.3376L14.6225 51.4012C14.9631 51.4436 15.1626 51.4709 15.2823 51.5193C15.4849 51.598 15.5984 51.6677 15.5923 51.9827C15.5862 52.5066 15.2332 52.5641 14.469 52.5641H14.2542C13.803 52.5641 13.2598 52.44 12.6767 52.2037L12.6 52.1704V52.8124C12.6 53.0729 13.3979 53.403 14.291 53.4H14.4875C15.9452 53.4 16.6235 52.9124 16.6235 51.8736C16.6235 50.8652 15.8624 50.6169 15.1227 50.5018" fill="white"/>
<path d="M24.7565 48.6061H24.6153C22.8537 48.6061 22.2 49.2633 22.2 51.0228V53.4H23.2312V51.0288C23.2281 49.6933 23.5288 49.4692 24.4373 49.4661H24.6675C25.5421 49.4661 25.7048 49.7175 25.7048 50.3323C25.7048 50.7138 25.579 51.153 25.223 51.153L23.6025 51.1257V51.8222L23.6485 51.8283C23.9739 51.8828 24.5509 51.9222 24.9928 51.9222C26.5059 51.9222 26.7544 51.1015 26.7544 50.414C26.7544 49.2784 26.0056 48.603 24.7596 48.6061" fill="white"/>
<path d="M30.2163 48.6636C29.9493 48.6212 29.3232 48.6 29.0071 48.6C28.4424 48.6 27.4971 48.8271 27.4971 50.3444V53.4H28.5099V50.4079C28.5069 49.6024 28.6542 49.5206 29.2926 49.5206H30.2163V48.6636Z" fill="white"/>
<path d="M33.3344 52.5217H33.1381C32.2818 52.5217 31.7631 52.4218 31.7631 51.0288C31.7631 49.6962 32.0639 49.4721 32.9785 49.4721H33.2086C34.0618 49.4721 34.246 49.6084 34.246 50.2444C34.246 50.5624 34.1017 50.6986 33.7642 50.6986H32.1406V51.3679L32.1866 51.377C32.5089 51.4315 33.0859 51.4709 33.5309 51.4709C34.1876 51.4709 35.2895 51.3467 35.2895 50.1021C35.2895 48.8574 34.203 48.609 33.2945 48.6121H33.1503C31.3856 48.6121 30.7288 49.2693 30.7319 51.0288C30.7319 52.7125 31.4041 53.4 33.049 53.397H33.1749C34.2153 53.397 35.0961 53.1244 35.0961 52.8034V52.2492L35.0255 52.2673C34.4209 52.4248 33.9483 52.5187 33.3344 52.5187" fill="white"/>
<path d="M42.0905 50.3746C42.0905 49.5479 41.7744 49.1209 41.4307 48.9028C41.4307 48.9028 41.0593 48.6273 40.3995 48.6273C40.0772 48.6273 39.8256 48.6697 39.6292 48.7333C39.356 48.809 39.1872 48.9392 39.1013 49.021C39.0706 49.0482 39.0583 49.0664 39.0583 49.0664C39.0583 49.0664 38.7085 48.6212 37.7141 48.6273C37.2813 48.6273 36.9713 48.7454 36.8117 48.8271C36.8056 48.8271 36.7995 48.8332 36.7964 48.8362C36.7872 48.8423 36.778 48.8453 36.7718 48.8484C36.1212 49.1966 36.0353 49.987 36.0353 50.3807V53.4H36.956V50.3807C36.9529 49.9264 37.0481 49.5055 37.7356 49.5055C38.4506 49.5055 38.5888 49.8265 38.5918 50.3807V53.4H39.5401V50.3777C39.5371 49.7751 39.7888 49.4934 40.3258 49.4934C40.909 49.4934 41.1698 49.7659 41.1729 50.3777V53.397H42.0967V50.3746H42.0905Z" fill="white"/>
<path d="M44.7974 49.4903H44.9938C45.8501 49.4903 46.3687 49.5903 46.3687 50.9833C46.3687 52.3158 46.068 52.5399 45.1534 52.5399H44.9232C44.07 52.5399 43.8859 52.4036 43.8859 51.7677C43.8859 51.4497 44.0301 51.3134 44.3677 51.3134H45.9913V50.6441L45.9452 50.635C45.623 50.5805 45.046 50.5411 44.6009 50.5411C43.9442 50.5411 42.8424 50.6653 42.8424 51.91C42.8424 53.1547 43.9258 53.397 44.8342 53.3939H44.9785C46.7432 53.3939 47.3999 52.7367 47.3969 50.9772C47.3969 49.2934 46.7248 48.606 45.0797 48.609H44.9539C43.9135 48.609 43.0327 48.8816 43.0327 49.2026V49.7568L43.1033 49.7386C43.7079 49.5811 44.1805 49.4873 44.7943 49.4873" fill="white"/>
</g>
</g>
<defs>
<clipPath id="clip0_2846_162">
<rect width="60" height="60" fill="white"/>
</clipPath>
</defs>
</svg>
