<svg width="40" height="40" viewBox="0 0 40 40" fill="none" xmlns="http://www.w3.org/2000/svg">
<rect width="40" height="40" rx="4" fill="#7A438E"/>
<rect width="40" height="40" rx="4" fill="#AAAAAA"/>
<path d="M13.3334 26.6667C12.875 26.6667 12.4827 26.5035 12.1563 26.1771C11.8299 25.8507 11.6667 25.4583 11.6667 25V15C11.6667 14.5417 11.8299 14.1493 12.1563 13.8229C12.4827 13.4965 12.875 13.3333 13.3334 13.3333H26.6667C27.125 13.3333 27.5174 13.4965 27.8438 13.8229C28.1702 14.1493 28.3334 14.5417 28.3334 15V25C28.3334 25.4583 28.1702 25.8507 27.8438 26.1771C27.5174 26.5035 27.125 26.6667 26.6667 26.6667H13.3334V26.6667M13.3334 25H26.6667V25V25V16.6667H13.3334V25V25V25V25M16.25 24.1667L15.0834 23L17.2292 20.8333L15.0625 18.6667L16.25 17.5L19.5834 20.8333L16.25 24.1667V24.1667M20 24.1667V22.5H25V24.1667H20V24.1667" fill="white"/>
</svg>
