<?xml version="1.0" encoding="UTF-8"?><svg id="Layer_2" xmlns="http://www.w3.org/2000/svg" viewBox="0 0 35 35"><defs><style>.cls-1{fill:#898989;}.cls-2{fill:none;}</style></defs><g id="Layer_1-2"><rect class="cls-2" width="35" height="35"/><path class="cls-1" d="M17.5,7.51c-2.72,0-3.06.01-4.12.06-1.06.05-1.79.22-2.43.46-.66.26-1.22.6-1.77,1.15-.56.56-.9,1.11-1.15,1.77-.25.64-.42,1.36-.46,2.43-.05,1.07-.06,1.41-.06,4.12s.01,3.05.06,4.12c.05,1.06.22,1.79.46,2.43.26.66.6,1.21,1.15,1.77.56.56,1.11.9,1.77,1.15.64.25,1.36.42,2.43.46,1.07.05,1.41.06,4.12.06s3.06-.01,4.12-.06c1.06-.05,1.79-.22,2.43-.46.66-.26,1.21-.6,1.77-1.15.56-.56.9-1.11,1.15-1.77.25-.64.41-1.36.46-2.43.05-1.07.06-1.41.06-4.12s-.01-3.05-.06-4.12c-.05-1.06-.22-1.79-.46-2.43-.26-.66-.6-1.21-1.15-1.77-.56-.56-1.11-.9-1.77-1.15-.64-.25-1.36-.42-2.43-.46-1.07-.05-1.41-.06-4.12-.06h0ZM16.6,9.31c.27,0,.56,0,.9,0,2.67,0,2.99,0,4.04.06.98.04,1.5.21,1.86.34.47.18.8.4,1.15.75.35.35.57.68.75,1.15.14.35.3.88.34,1.85.05,1.05.06,1.37.06,4.04s-.01,2.98-.06,4.04c-.04.97-.21,1.5-.34,1.85-.18.47-.4.8-.75,1.15-.35.35-.68.57-1.15.75-.35.14-.88.3-1.86.34-1.05.05-1.37.06-4.04.06s-2.99-.01-4.04-.06c-.98-.04-1.5-.21-1.86-.34-.47-.18-.8-.4-1.15-.75-.35-.35-.57-.68-.75-1.15-.14-.35-.3-.88-.34-1.85-.05-1.05-.06-1.37-.06-4.04s0-2.98.06-4.04c.04-.97.21-1.5.34-1.86.18-.47.4-.8.75-1.15.35-.35.68-.57,1.15-.75.35-.14.88-.3,1.86-.34.92-.04,1.28-.05,3.14-.06h0ZM22.84,10.97c-.66,0-1.2.54-1.2,1.2s.54,1.2,1.2,1.2,1.2-.54,1.2-1.2-.54-1.2-1.2-1.2h0ZM17.5,12.37c-2.84,0-5.14,2.3-5.14,5.13s2.3,5.13,5.14,5.13,5.13-2.3,5.13-5.13-2.3-5.13-5.13-5.13h0ZM17.5,14.17c1.84,0,3.33,1.49,3.33,3.33s-1.49,3.33-3.33,3.33-3.33-1.49-3.33-3.33,1.49-3.33,3.33-3.33h0Z"/></g></svg>