<svg xmlns="http://www.w3.org/2000/svg" id="_레이어_1" data-name="레이어_1" viewBox="0 0 41 41"><defs><style>.st3{stroke-miterlimit:10;stroke:#717171;fill:#fff}</style></defs><path d="M20.5 40.5c11 0 20-9 20-20s-9-20-20-20-20 9-20 20 9 20 20 20Z" style="stroke-miterlimit:10;fill:#f6f7f7;stroke:#dfdfdf"/><path d="m22.9 7.7 10 2.7-2.8 4.8-10-2.7zM17.2 7.7l-10 2.7 2.8 4.8 10-2.7z" class="st3"/><path d="M14.8 17.8c1.9 0 3.4-1.5 3.4-3.4S16.7 11 14.8 11s-3.4 1.5-3.4 3.4 1.5 3.4 3.4 3.4" style="fill:#f691aa"/><path d="M19.2 16.4c1.9 0 3.4-1.5 3.4-3.4s-1.5-3.4-3.4-3.4-3.4 1.5-3.4 3.4 1.5 3.4 3.4 3.4" style="fill:#b4b4b5"/><path d="M23.5 16c1.9 0 3.4-1.5 3.4-3.4s-1.5-3.4-3.4-3.4-3.4 1.5-3.4 3.4 1.5 3.4 3.4 3.4" style="fill:#f37979"/><path d="M20.2 19.2c1.9 0 3.4-1.5 3.4-3.4s-1.5-3.4-3.4-3.4-3.4 1.5-3.4 3.4 1.5 3.4 3.4 3.4" style="fill:#fec46b"/><path d="M26 17.8c1.9 0 3.4-1.5 3.4-3.4S27.9 11 26 11s-3.4 1.5-3.4 3.4 1.5 3.4 3.4 3.4" style="fill:#64abec"/><path d="m20 18.2-10-3v13.5l10 3 10-3V15.2z" class="st3"/><path d="M20 18.2v13.3" style="fill:none;stroke-miterlimit:10;stroke:#717171"/><path d="M17.2 22.7 7.2 20l2.8-4.8 10 2.7zM22.9 22.7l10-2.7-2.8-4.8-10 2.7z" class="st3"/><path d="M16.9 33.6s0-.2-.1-.2l-.2-.2s-.1 0-.2-.1h-.3c-.2 0-.3 0-.4.1-.1 0-.2.2-.3.4 0 .2-.1.4-.1.6s0 .4.1.6c0 .2.2.3.3.4.1 0 .3.1.5.1s.3 0 .4-.1c.1 0 .2-.2.3-.3 0-.1.1-.3.1-.4h.1-.8v-.3h1.1v.3c0 .2 0 .4-.1.6 0 .2-.2.3-.4.4-.2 0-.4.1-.6.1s-.5 0-.6-.2c-.2-.1-.3-.3-.4-.5s-.2-.5-.2-.8v-.6c0-.2.1-.3.3-.5.1-.1.2-.2.4-.3h.9c.1 0 .2.1.3.2.1 0 .2.2.3.3 0 .1.1.2.1.4h-.3Zm2.1.4v.3h-1.2V34zm2.1-.6c0-.1 0-.2-.2-.3-.1 0-.3-.1-.4-.1h-.3s-.2 0-.2.2v.4l.1.1h.7s.2.1.2.2c0 0 .2 0 .3.1 0 0 .2.1.2.2v.3c0 .1 0 .3-.1.4 0 .1-.2.2-.3.3-.1 0-.3.1-.5.1h-.5c-.1 0-.3-.2-.3-.3s-.1-.2-.1-.4h.3c0 .1 0 .2.1.3l.2.2h.6c.1 0 .2-.1.2-.2v-.5s-.1-.1-.2-.1h-.6c-.2-.2-.4-.2-.5-.4-.1-.1-.2-.3-.2-.5s0-.3.1-.4c0-.1.2-.2.3-.3h1c.1 0 .2.2.3.3 0 .1.1.2.1.4zm1.8 2.1H22v-2.8h.9c.3 0 .5 0 .7.2.2.1.3.3.4.5s.2.5.2.7 0 .5-.2.7c-.1.2-.3.4-.5.5s-.4.2-.7.2Zm-.6-.3h.5c.2 0 .4 0 .6-.1.2 0 .3-.2.3-.4s.1-.4.1-.6 0-.4-.1-.6c0-.2-.2-.3-.3-.4-.1 0-.3-.1-.5-.1h-.5v2.2Zm2.4.3v-2.8h.3v1.4l1.2-1.4h.4L25.4 34l1.2 1.5h-.4l-1-1.3-.3.4v.9h-.3Z"/></svg>