<svg width="16" height="16" viewBox="0 0 16 16" fill="none" xmlns="http://www.w3.org/2000/svg">
<path d="M3.49023 4.20312H6.81055V2.66016H9.30078V4.20312H12.6211V2.66016H15.1113V15H1V2.66016H3.49023V4.20312ZM3.49023 13.4512H5.98047V11.791H3.49023V13.4512ZM6.81055 13.4512H9.30078V11.791H6.81055V13.4512ZM10.1309 11.791V13.4512H12.6211V11.791H10.1309ZM3.49023 10.1309H5.98047V8.4707H3.49023V10.1309ZM6.81055 10.1309H9.30078V8.4707H6.81055V10.1309ZM10.1309 10.1309H12.6211V8.4707H10.1309V10.1309ZM3.49023 6.81055H5.98047V5.15039H3.49023V6.81055ZM6.81055 6.81055H9.30078V5.15039H6.81055V6.81055ZM10.1309 6.81055H12.6211V5.15039H10.1309V6.81055Z" fill="currentColor"/>
<rect x="4" y="1" width="2" height="3" fill="currentColor"/>
<rect x="10" y="1" width="2" height="3" fill="currentColor"/>
</svg>
