<svg width="341" height="670" viewBox="0 0 341 670" fill="none" xmlns="http://www.w3.org/2000/svg">
<g clip-path="url(#clip0_86_13597)">
<rect width="340.517" height="669.717" fill="white"/>
<path d="M226.964 612.224H96.57" stroke="#1A1311" stroke-linecap="round" stroke-linejoin="round"/>
<path d="M96.57 518.681H226.964" stroke="#1A1311" stroke-linecap="round" stroke-linejoin="round"/>
<path d="M88.066 603.72V527.185" stroke="#1A1311" stroke-linecap="round" stroke-linejoin="round"/>
<path d="M235.468 527.185V603.72" stroke="#1A1311" stroke-linecap="round" stroke-linejoin="round"/>
<path d="M88.066 603.72C88.066 605.974 88.9615 608.136 90.5556 609.73C92.1496 611.324 94.3116 612.22 96.566 612.22" stroke="#1A1311" stroke-linecap="round" stroke-linejoin="round"/>
<path d="M96.57 518.681C94.3157 518.681 92.1537 519.577 90.5596 521.171C88.9655 522.765 88.07 524.927 88.07 527.181" stroke="#1A1311" stroke-linecap="round" stroke-linejoin="round"/>
<path d="M235.468 527.185C235.468 524.931 234.572 522.769 232.978 521.175C231.384 519.581 229.222 518.685 226.968 518.685" stroke="#1A1311" stroke-linecap="round" stroke-linejoin="round"/>
<path d="M226.964 612.224C229.218 612.224 231.38 611.328 232.974 609.734C234.568 608.14 235.464 605.978 235.464 603.724" stroke="#1A1311" stroke-linecap="round" stroke-linejoin="round"/>
<path d="M163.185 663.815H129.169" stroke="#1A1311" stroke-width="1.5" stroke-linecap="round" stroke-linejoin="round"/>
<path d="M292.727 636.319H171.688" stroke="#1A1311" stroke-width="1.5" stroke-linecap="round" stroke-linejoin="round"/>
<path d="M120.664 636.319H47.814" stroke="#1A1311" stroke-width="1.5" stroke-linecap="round" stroke-linejoin="round"/>
<path d="M30.806 523.216V494.87" stroke="#1A1311" stroke-width="1.5" stroke-linecap="round" stroke-linejoin="round"/>
<path d="M30.806 466.524V98.02" stroke="#1A1311" stroke-width="1.5" stroke-linecap="round" stroke-linejoin="round"/>
<path d="M30.806 86.681V45.012" stroke="#1A1311" stroke-width="1.5" stroke-linecap="round" stroke-linejoin="round"/>
<path d="M34.208 503.374V494.87" stroke="#1A1311" stroke-width="1.5" stroke-linecap="round" stroke-linejoin="round"/>
<path d="M30.806 523.216H39.31" stroke="#1A1311" stroke-width="1.5" stroke-linecap="round" stroke-linejoin="round"/>
<path d="M301.232 523.216H309.736" stroke="#1A1311" stroke-width="1.5" stroke-linecap="round" stroke-linejoin="round"/>
<path d="M39.3101 89.516V98.02" stroke="#1A1311" stroke-width="1.5" stroke-linecap="round" stroke-linejoin="round"/>
<path d="M39.3101 466.523V503.373" stroke="#1A1311" stroke-width="1.5" stroke-linecap="round" stroke-linejoin="round"/>
<path d="M39.3101 523.216V627.814" stroke="#1A1311" stroke-width="1.5" stroke-linecap="round" stroke-linejoin="round"/>
<path d="M51.216 39.342V30.838" stroke="#1A1311" stroke-width="1.5" stroke-linecap="round" stroke-linejoin="round"/>
<path d="M34.208 503.374H39.31" stroke="#1A1311" stroke-width="1.5" stroke-linecap="round" stroke-linejoin="round"/>
<path d="M301.232 503.374H306.334" stroke="#1A1311" stroke-width="1.5" stroke-linecap="round" stroke-linejoin="round"/>
<path d="M309.736 494.87H306.334" stroke="#1A1311" stroke-width="1.5" stroke-linecap="round" stroke-linejoin="round"/>
<path d="M34.208 494.87H30.806" stroke="#1A1311" stroke-width="1.5" stroke-linecap="round" stroke-linejoin="round"/>
<path d="M30.806 466.523H39.31" stroke="#1A1311" stroke-width="1.5" stroke-linecap="round" stroke-linejoin="round"/>
<path d="M301.232 466.523H309.736" stroke="#1A1311" stroke-width="1.5" stroke-linecap="round" stroke-linejoin="round"/>
<path d="M129.169 663.815V660.023" stroke="#1A1311" stroke-width="1.5" stroke-linecap="round" stroke-linejoin="round"/>
<path d="M129.169 660.13V644.823" stroke="#1A1311" stroke-width="1.5" stroke-linecap="round" stroke-linejoin="round"/>
<path d="M163.184 663.815V644.823" stroke="#1A1311" stroke-width="1.5" stroke-linecap="round" stroke-linejoin="round"/>
<path d="M289.326 34.24V39.342" stroke="#1A1311" stroke-width="1.5" stroke-linecap="round" stroke-linejoin="round"/>
<path d="M289.326 34.24V30.838" stroke="#1A1311" stroke-width="1.5" stroke-linecap="round" stroke-linejoin="round"/>
<path d="M301.232 627.814V523.216" stroke="#1A1311" stroke-width="1.5" stroke-linecap="round" stroke-linejoin="round"/>
<path d="M301.232 503.373V466.523" stroke="#1A1311" stroke-width="1.5" stroke-linecap="round" stroke-linejoin="round"/>
<path d="M301.232 98.02V89.516" stroke="#1A1311" stroke-width="1.5" stroke-linecap="round" stroke-linejoin="round"/>
<path d="M306.334 503.374V494.87" stroke="#1A1311" stroke-width="1.5" stroke-linecap="round" stroke-linejoin="round"/>
<path d="M309.735 45.012V86.681" stroke="#1A1311" stroke-width="1.5" stroke-linecap="round" stroke-linejoin="round"/>
<path d="M309.735 523.216V494.87" stroke="#1A1311" stroke-width="1.5" stroke-linecap="round" stroke-linejoin="round"/>
<path d="M309.735 466.524V98.02" stroke="#1A1311" stroke-width="1.5" stroke-linecap="round" stroke-linejoin="round"/>
<path d="M34.491 98.02H30.806" stroke="#1A1311" stroke-width="1.5" stroke-linecap="round" stroke-linejoin="round"/>
<path d="M34.491 98.02H39.31" stroke="#1A1311" stroke-width="1.5" stroke-linecap="round" stroke-linejoin="round"/>
<path d="M301.232 98.02H309.736" stroke="#1A1311" stroke-width="1.5" stroke-linecap="round" stroke-linejoin="round"/>
<path d="M306.901 89.516H301.232" stroke="#1A1311" stroke-width="1.5" stroke-linecap="round" stroke-linejoin="round"/>
<path d="M33.6411 89.516H39.3101" stroke="#1A1311" stroke-width="1.5" stroke-linecap="round" stroke-linejoin="round"/>
<path d="M304.066 39.342H289.326" stroke="#1A1311" stroke-width="1.5" stroke-linecap="round" stroke-linejoin="round"/>
<path d="M51.216 39.342H36.476" stroke="#1A1311" stroke-width="1.5" stroke-linecap="round" stroke-linejoin="round"/>
<path d="M51.216 30.838H289.326" stroke="#1A1311" stroke-width="1.5" stroke-linecap="round" stroke-linejoin="round"/>
<path d="M129.169 644.823C129.169 642.569 128.274 640.407 126.679 638.813C125.085 637.219 122.923 636.323 120.669 636.323" stroke="#1A1311" stroke-width="1.5" stroke-linecap="round" stroke-linejoin="round"/>
<path d="M39.307 627.815C39.307 630.069 40.2025 632.231 41.7966 633.825C43.3907 635.419 45.5527 636.315 47.807 636.315" stroke="#1A1311" stroke-width="1.5" stroke-linecap="round" stroke-linejoin="round"/>
<path d="M36.476 39.342C34.9723 39.3423 33.5303 39.9398 32.467 41.003C31.4038 42.0663 30.8063 43.5083 30.806 45.012" stroke="#1A1311" stroke-width="1.5" stroke-linecap="round" stroke-linejoin="round"/>
<path d="M30.807 86.681C30.807 87.4329 31.1057 88.154 31.6374 88.6857C32.169 89.2173 32.8901 89.516 33.642 89.516" stroke="#1A1311" stroke-width="1.5" stroke-linecap="round" stroke-linejoin="round"/>
<path d="M171.688 636.319C169.434 636.319 167.272 637.215 165.678 638.809C164.084 640.403 163.188 642.565 163.188 644.819" stroke="#1A1311" stroke-width="1.5" stroke-linecap="round" stroke-linejoin="round"/>
<path d="M292.728 636.319C294.982 636.319 297.144 635.424 298.738 633.829C300.332 632.235 301.228 630.073 301.228 627.819" stroke="#1A1311" stroke-width="1.5" stroke-linecap="round" stroke-linejoin="round"/>
<path d="M309.735 45.012C309.735 43.5084 309.138 42.0664 308.075 41.0031C307.012 39.9398 305.57 39.3423 304.066 39.342" stroke="#1A1311" stroke-width="1.5" stroke-linecap="round" stroke-linejoin="round"/>
<path d="M306.901 89.516C307.653 89.5158 308.374 89.217 308.905 88.6853C309.436 88.1537 309.735 87.4327 309.735 86.681" stroke="#1A1311" stroke-width="1.5" stroke-linecap="round" stroke-linejoin="round"/>
<path d="M98.696 388.146C98.6958 386.884 99.0697 385.651 99.7704 384.602C100.471 383.553 101.467 382.736 102.633 382.253C103.798 381.77 105.08 381.643 106.318 381.889C107.555 382.135 108.691 382.743 109.584 383.635C110.476 384.527 111.083 385.663 111.329 386.9C111.576 388.138 111.449 389.42 110.967 390.586C110.484 391.751 109.666 392.747 108.618 393.448C107.569 394.149 106.335 394.523 105.074 394.523C103.383 394.523 101.76 393.851 100.564 392.655C99.3683 391.459 98.6962 389.837 98.696 388.146Z" stroke="#1A1311" stroke-linecap="round" stroke-linejoin="round"/>
<path d="M110.744 630.649H99.405" stroke="#1A1311" stroke-linecap="round" stroke-linejoin="round"/>
<path d="M99.405 617.894H110.744" stroke="#1A1311" stroke-linecap="round" stroke-linejoin="round"/>
<path d="M99.407 617.894C98.5628 617.883 97.7249 618.041 96.9418 618.356C96.1588 618.672 95.4463 619.14 94.8456 619.733C94.2448 620.327 93.7679 621.033 93.4423 621.812C93.1168 622.591 92.9492 623.427 92.9492 624.272C92.9492 625.116 93.1168 625.952 93.4423 626.731C93.7679 627.51 94.2448 628.216 94.8456 628.81C95.4463 629.403 96.1588 629.871 96.9418 630.187C97.7249 630.502 98.5628 630.66 99.407 630.649" stroke="#1A1311" stroke-linecap="round" stroke-linejoin="round"/>
<path d="M110.743 630.649C111.587 630.66 112.425 630.502 113.208 630.187C113.991 629.871 114.704 629.403 115.305 628.81C115.905 628.216 116.382 627.51 116.708 626.731C117.033 625.952 117.201 625.116 117.201 624.272C117.201 623.427 117.033 622.591 116.708 621.812C116.382 621.033 115.905 620.327 115.305 619.733C114.704 619.14 113.991 618.672 113.208 618.356C112.425 618.041 111.587 617.883 110.743 617.894" stroke="#1A1311" stroke-linecap="round" stroke-linejoin="round"/>
<path d="M98.696 197.374V186.035" stroke="#1A1311" stroke-linecap="round" stroke-linejoin="round"/>
<path d="M111.452 186.035V197.374" stroke="#1A1311" stroke-linecap="round" stroke-linejoin="round"/>
<path d="M111.452 186.035C111.452 185.197 111.287 184.368 110.966 183.594C110.646 182.82 110.176 182.117 109.584 181.525C108.992 180.933 108.289 180.463 107.515 180.142C106.741 179.822 105.912 179.657 105.074 179.657C104.236 179.657 103.407 179.822 102.633 180.142C101.859 180.463 101.156 180.933 100.564 181.525C99.9718 182.117 99.502 182.82 99.1815 183.594C98.861 184.368 98.696 185.197 98.696 186.035" stroke="#1A1311" stroke-linecap="round" stroke-linejoin="round"/>
<path d="M98.696 197.374C98.696 199.066 99.3679 200.688 100.564 201.884C101.76 203.08 103.382 203.752 105.074 203.752C106.766 203.752 108.388 203.08 109.584 201.884C110.78 200.688 111.452 199.066 111.452 197.374" stroke="#1A1311" stroke-linecap="round" stroke-linejoin="round"/>
<path d="M163.893 393.815V382.476" stroke="#1A1311" stroke-linecap="round" stroke-linejoin="round"/>
<path d="M176.649 382.476V393.815" stroke="#1A1311" stroke-linecap="round" stroke-linejoin="round"/>
<path d="M163.893 393.815C163.893 395.507 164.565 397.129 165.761 398.325C166.957 399.521 168.579 400.193 170.271 400.193C171.963 400.193 173.585 399.521 174.781 398.325C175.977 397.129 176.649 395.507 176.649 393.815" stroke="#1A1311" stroke-linecap="round" stroke-linejoin="round"/>
<path d="M176.649 382.476C176.649 380.784 175.977 379.162 174.781 377.966C173.585 376.77 171.963 376.098 170.271 376.098C168.579 376.098 166.957 376.77 165.761 377.966C164.565 379.162 163.893 380.784 163.893 382.476" stroke="#1A1311" stroke-linecap="round" stroke-linejoin="round"/>
<path d="M229.09 393.815V382.476" stroke="#1A1311" stroke-linecap="round" stroke-linejoin="round"/>
<path d="M241.846 382.476V393.815" stroke="#1A1311" stroke-linecap="round" stroke-linejoin="round"/>
<path d="M229.09 393.815C229.09 395.507 229.762 397.129 230.958 398.325C232.154 399.521 233.776 400.193 235.468 400.193C237.16 400.193 238.782 399.521 239.978 398.325C241.174 397.129 241.846 395.507 241.846 393.815" stroke="#1A1311" stroke-linecap="round" stroke-linejoin="round"/>
<path d="M241.846 382.476C241.846 380.784 241.174 379.162 239.978 377.966C238.782 376.77 237.16 376.098 235.468 376.098C233.776 376.098 232.154 376.77 230.958 377.966C229.762 379.162 229.09 380.784 229.09 382.476" stroke="#1A1311" stroke-linecap="round" stroke-linejoin="round"/>
<path d="M175.941 630.649H164.602" stroke="#1A1311" stroke-linecap="round" stroke-linejoin="round"/>
<path d="M164.602 617.894H175.941" stroke="#1A1311" stroke-linecap="round" stroke-linejoin="round"/>
<path d="M164.607 617.894C163.763 617.883 162.925 618.041 162.142 618.356C161.359 618.672 160.646 619.14 160.046 619.733C159.445 620.327 158.968 621.033 158.642 621.812C158.317 622.591 158.149 623.427 158.149 624.272C158.149 625.116 158.317 625.952 158.642 626.731C158.968 627.51 159.445 628.216 160.046 628.81C160.646 629.403 161.359 629.871 162.142 630.187C162.925 630.502 163.763 630.66 164.607 630.649" stroke="#1A1311" stroke-linecap="round" stroke-linejoin="round"/>
<path d="M175.94 630.649C176.784 630.66 177.622 630.502 178.405 630.187C179.188 629.871 179.901 629.403 180.501 628.81C181.102 628.216 181.579 627.51 181.905 626.731C182.23 625.952 182.398 625.116 182.398 624.272C182.398 623.427 182.23 622.591 181.905 621.812C181.579 621.033 181.102 620.327 180.501 619.733C179.901 619.14 179.188 618.672 178.405 618.356C177.622 618.041 176.784 617.883 175.94 617.894" stroke="#1A1311" stroke-linecap="round" stroke-linejoin="round"/>
<path d="M229.09 624.271C229.09 623.01 229.464 621.777 230.165 620.728C230.866 619.679 231.862 618.861 233.027 618.379C234.193 617.896 235.475 617.77 236.712 618.016C237.949 618.262 239.086 618.869 239.978 619.761C240.87 620.653 241.477 621.79 241.723 623.027C241.97 624.264 241.843 625.546 241.36 626.712C240.878 627.877 240.06 628.873 239.011 629.574C237.963 630.275 236.729 630.649 235.468 630.649C234.63 630.649 233.801 630.484 233.027 630.164C232.253 629.843 231.55 629.374 230.958 628.781C230.365 628.189 229.896 627.486 229.575 626.712C229.255 625.938 229.09 625.109 229.09 624.271Z" stroke="#1A1311" stroke-linecap="round" stroke-linejoin="round"/>
<path d="M241.137 198.083H229.798" stroke="#1A1311" stroke-linecap="round" stroke-linejoin="round"/>
<path d="M229.798 185.327H241.137" stroke="#1A1311" stroke-linecap="round" stroke-linejoin="round"/>
<path d="M241.137 198.083C242.829 198.083 244.451 197.411 245.647 196.215C246.843 195.019 247.515 193.397 247.515 191.705C247.515 190.013 246.843 188.391 245.647 187.195C244.451 185.999 242.829 185.327 241.137 185.327" stroke="#1A1311" stroke-linecap="round" stroke-linejoin="round"/>
<path d="M229.798 185.327C228.106 185.327 226.484 185.999 225.288 187.195C224.092 188.391 223.42 190.013 223.42 191.705C223.42 193.397 224.092 195.019 225.288 196.215C226.484 197.411 228.106 198.083 229.798 198.083" stroke="#1A1311" stroke-linecap="round" stroke-linejoin="round"/>
<path d="M280.442 669.217H286.111" stroke="#1A1311" stroke-linecap="round" stroke-linejoin="round" stroke-dasharray="6 5 6 5"/>
<path d="M129.157 663.771H163.173" stroke="#1A1311" stroke-linecap="round" stroke-linejoin="round" stroke-dasharray="6 5 6 5"/>
<path d="M292.557 660.917H296.401" stroke="#1A1311" stroke-linecap="round" stroke-linejoin="round" stroke-dasharray="6 5 6 5"/>
<path d="M163.894 660.917H191.791" stroke="#1A1311" stroke-linecap="round" stroke-linejoin="round" stroke-dasharray="6 5 6 5"/>
<path d="M197.67 660.917H278.74" stroke="#1A1311" stroke-linecap="round" stroke-linejoin="round" stroke-dasharray="6 5 6 5"/>
<path d="M290.637 660.917H287.812" stroke="#1A1311" stroke-linecap="round" stroke-linejoin="round" stroke-dasharray="6 5 6 5"/>
<path d="M44.117 660.893H129.156" stroke="#1A1311" stroke-linecap="round" stroke-linejoin="round" stroke-dasharray="6 5 6 5"/>
<path d="M287.528 667.8V660.917" stroke="#1A1311" stroke-linecap="round" stroke-linejoin="round" stroke-dasharray="6 5 6 5"/>
<path d="M279.025 667.8V660.917" stroke="#1A1311" stroke-linecap="round" stroke-linejoin="round" stroke-dasharray="6 5 6 5"/>
<path d="M296.4 0.507019H44.117" stroke="#1A1311" stroke-linecap="round" stroke-linejoin="round" stroke-dasharray="6 5 6 5"/>
<path d="M292.421 660.917H292.557" stroke="#1A1311" stroke-linecap="round" stroke-linejoin="round" stroke-dasharray="6 5 6 5"/>
<path d="M287.528 667.8C287.528 668.032 287.471 668.26 287.363 668.464C287.254 668.669 287.097 668.843 286.905 668.973" stroke="#1A1311" stroke-linecap="round" stroke-linejoin="round" stroke-dasharray="6 5 6 5"/>
<path d="M318.619 654.839C314.897 657.035 310.871 658.669 306.671 659.688" stroke="#1A1311" stroke-linecap="round" stroke-linejoin="round" stroke-dasharray="6 5 6 5"/>
<path d="M306.671 659.688C305.83 659.892 304.983 660.071 304.131 660.224" stroke="#1A1311" stroke-linecap="round" stroke-linejoin="round" stroke-dasharray="6 5 6 5"/>
<path d="M304.131 660.224C301.58 660.684 298.993 660.915 296.401 660.917" stroke="#1A1311" stroke-linecap="round" stroke-linejoin="round" stroke-dasharray="6 5 6 5"/>
<path d="M339.985 618.807C339.638 628.752 335.901 638.279 329.394 645.807" stroke="#1A1311" stroke-linecap="round" stroke-linejoin="round" stroke-dasharray="6 5 6 5"/>
<path d="M340.007 617.283C340.007 617.79 339.998 618.297 339.981 618.803" stroke="#1A1311" stroke-linecap="round" stroke-linejoin="round" stroke-dasharray="6 5 6 5"/>
<path d="M329.394 645.801C329.081 646.163 328.763 646.52 328.438 646.872" stroke="#1A1311" stroke-linecap="round" stroke-linejoin="round" stroke-dasharray="6 5 6 5"/>
<path d="M328.185 647.143C327.929 647.415 327.67 647.685 327.407 647.95" stroke="#1A1311" stroke-linecap="round" stroke-linejoin="round" stroke-dasharray="6 5 6 5"/>
<path d="M328.438 646.872C328.354 646.962 328.27 647.053 328.185 647.143" stroke="#1A1311" stroke-linecap="round" stroke-linejoin="round" stroke-dasharray="6 5 6 5"/>
<path d="M327.407 647.95C327.151 648.208 326.893 648.463 326.632 648.714" stroke="#1A1311" stroke-linecap="round" stroke-linejoin="round" stroke-dasharray="6 5 6 5"/>
<path d="M326.632 648.714C324.986 650.294 323.217 651.74 321.34 653.038" stroke="#1A1311" stroke-linecap="round" stroke-linejoin="round" stroke-dasharray="6 5 6 5"/>
<path d="M321.34 653.038C320.925 653.325 320.505 653.604 320.081 653.877" stroke="#1A1311" stroke-linecap="round" stroke-linejoin="round" stroke-dasharray="6 5 6 5"/>
<path d="M279.647 668.973C279.455 668.843 279.298 668.669 279.19 668.464C279.081 668.26 279.025 668.032 279.025 667.8" stroke="#1A1311" stroke-linecap="round" stroke-linejoin="round" stroke-dasharray="6 5 6 5"/>
<path d="M297.879 0.532043C298.055 0.538043 298.23 0.545043 298.405 0.553043" stroke="#1A1311" stroke-linecap="round" stroke-linejoin="round" stroke-dasharray="6 5 6 5"/>
<path d="M296.401 0.507019C296.894 0.507019 297.386 0.515352 297.879 0.532019" stroke="#1A1311" stroke-linecap="round" stroke-linejoin="round" stroke-dasharray="6 5 6 5"/>
<path d="M339.989 42.721C339.996 42.9577 340.002 43.195 340.006 43.433" stroke="#1A1311" stroke-linecap="round" stroke-linejoin="round" stroke-dasharray="6 5 6 5"/>
<path d="M340.007 43.433C340.007 43.661 340.009 43.889 340.012 44.117" stroke="#1A1311" stroke-linecap="round" stroke-linejoin="round" stroke-dasharray="6 5 6 5"/>
<path d="M42.639 660.868C42.464 660.862 42.288 660.855 42.113 660.847" stroke="#1A1311" stroke-linecap="round" stroke-linejoin="round" stroke-dasharray="6 5 6 5"/>
<path d="M44.117 660.893C43.625 660.893 43.1324 660.885 42.639 660.868" stroke="#1A1311" stroke-linecap="round" stroke-linejoin="round" stroke-dasharray="6 5 6 5"/>
<path d="M0.529024 618.679C0.521691 618.442 0.516024 618.205 0.512024 617.968" stroke="#1A1311" stroke-linecap="round" stroke-linejoin="round" stroke-dasharray="6 5 6 5"/>
<path d="M0.507019 617.968C0.507019 617.739 0.507019 617.51 0.507019 617.283" stroke="#1A1311" stroke-linecap="round" stroke-linejoin="round" stroke-dasharray="6 5 6 5"/>
<path d="M0.532043 42.639C0.538043 42.464 0.545043 42.288 0.553043 42.113" stroke="#1A1311" stroke-linecap="round" stroke-linejoin="round" stroke-dasharray="6 5 6 5"/>
<path d="M0.507019 44.117C0.507019 43.625 0.515352 43.1324 0.532019 42.639" stroke="#1A1311" stroke-linecap="round" stroke-linejoin="round" stroke-dasharray="6 5 6 5"/>
<path d="M42.721 0.529024C42.9577 0.521691 43.195 0.516024 43.433 0.512024" stroke="#1A1311" stroke-linecap="round" stroke-linejoin="round" stroke-dasharray="6 5 6 5"/>
<path d="M43.433 0.507019C43.661 0.507019 43.889 0.507019 44.117 0.507019" stroke="#1A1311" stroke-linecap="round" stroke-linejoin="round" stroke-dasharray="6 5 6 5"/>
<path d="M286.107 669.217C286.39 669.215 286.666 669.131 286.901 668.973" stroke="#1A1311" stroke-linecap="round" stroke-linejoin="round" stroke-dasharray="6 5 6 5"/>
<path d="M280.442 669.217C280.159 669.215 279.882 669.131 279.647 668.973" stroke="#1A1311" stroke-linecap="round" stroke-linejoin="round" stroke-dasharray="6 5 6 5"/>
<path d="M42.721 0.528992C31.7487 0.880627 21.3126 5.35743 13.4961 13.0657C5.67955 20.774 1.05765 31.1466 0.55304 42.113" stroke="#1A1311" stroke-linecap="round" stroke-linejoin="round" stroke-dasharray="6 5 6 5"/>
<path d="M0.507019 44.117V617.282" stroke="#1A1311" stroke-linecap="round" stroke-linejoin="round" stroke-dasharray="6 5 6 5"/>
<path d="M0.528992 618.679C0.879935 629.652 5.35651 640.088 13.0649 647.905C20.7733 655.721 31.1464 660.343 42.113 660.847" stroke="#1A1311" stroke-linecap="round" stroke-linejoin="round" stroke-dasharray="6 5 6 5"/>
<path d="M340.011 617.282V44.117" stroke="#1A1311" stroke-linecap="round" stroke-linejoin="round" stroke-dasharray="6 5 6 5"/>
<path d="M339.989 42.721C339.638 31.7489 335.161 21.3128 327.454 13.4962C319.746 5.67965 309.373 1.05768 298.407 0.55304" stroke="#1A1311" stroke-linecap="round" stroke-linejoin="round" stroke-dasharray="6 5 6 5"/>
<path d="M318.619 654.839C318.973 654.612 319.319 654.378 319.675 654.144C319.785 654.071 319.894 653.998 319.999 653.917" stroke="#1A1311" stroke-linecap="round" stroke-linejoin="round" stroke-dasharray="6 5 6 5"/>
<path d="M290.637 660.917C291.231 660.917 291.826 660.917 292.421 660.917" stroke="#1A1311" stroke-linecap="round" stroke-linejoin="round" stroke-dasharray="6 5 6 5"/>
<path d="M191.791 660.917H197.889" stroke="#1A1311" stroke-linecap="round" stroke-linejoin="round" stroke-dasharray="6 5 6 5"/>
<path d="M313.152 641.739V653.458" stroke="#1A1311" stroke-width="0.87" stroke-linecap="round" stroke-linejoin="round"/>
<path d="M313.152 653.458H300.969" stroke="#1A1311" stroke-width="0.87" stroke-linecap="round" stroke-linejoin="round"/>
<path d="M313.069 641.739C311.875 643.516 310.175 644.892 308.189 645.691C306.033 646.592 303.7 646.992 301.367 646.86" stroke="#1A1311" stroke-width="0.87" stroke-linecap="round" stroke-linejoin="round"/>
<path d="M301.254 646.928C302.642 648.813 302.981 651.013 302.14 652.393C301.856 652.85 301.451 653.218 300.969 653.458" stroke="#1A1311" stroke-width="0.87" stroke-linecap="round" stroke-linejoin="round"/>
<path d="M313.114 641.807C312.008 644.698 310.19 647.263 307.828 649.264C305.79 651.013 303.488 652.429 301.007 653.458" stroke="#1A1311" stroke-width="0.87" stroke-linecap="round" stroke-linejoin="round"/>
<path d="M282.726 647.04V643.207H284.17C284.365 643.203 284.559 643.215 284.752 643.244C284.921 643.267 285.082 643.328 285.225 643.422C285.358 643.516 285.464 643.644 285.532 643.792C285.633 644.012 285.668 644.257 285.633 644.496C285.597 644.736 285.493 644.96 285.332 645.141C285.177 645.27 284.998 645.367 284.805 645.425C284.612 645.483 284.409 645.501 284.209 645.479H283.227V647.036L282.726 647.04ZM283.232 645.031H284.222C284.469 645.055 284.717 644.99 284.922 644.849C284.992 644.784 285.047 644.704 285.083 644.615C285.119 644.526 285.134 644.43 285.129 644.334C285.133 644.188 285.09 644.044 285.007 643.923C284.931 643.812 284.817 643.732 284.687 643.697C284.531 643.668 284.373 643.656 284.215 643.663H283.235L283.232 645.031Z" fill="#1A1311"/>
<path d="M286.307 647.04V643.207H289.075V643.659H286.807V644.831H288.925V645.281H286.807V646.581H289.158V647.033L286.307 647.04Z" fill="#1A1311"/>
<path d="M289.871 647.04V643.207H292.64V643.659H290.378V644.831H292.496V645.281H290.378V646.581H292.729V647.033L289.871 647.04Z" fill="#1A1311"/>
<path d="M293.407 647.04V643.207H293.913V646.584H295.799V647.036L293.407 647.04Z" fill="#1A1311"/>
<path d="M282.741 653.458V649.629H283.248V651.207H285.238V649.634H285.745V653.463H285.238V651.663H283.248V653.463L282.741 653.458Z" fill="#1A1311"/>
<path d="M286.599 653.458V649.629H289.367V650.081H287.107V651.254H289.226V651.703H287.107V653.007H289.458V653.459L286.599 653.458Z" fill="#1A1311"/>
<path d="M290.164 653.458V649.629H291.864C292.127 649.617 292.391 649.65 292.643 649.729C292.822 649.798 292.972 649.927 293.068 650.094C293.174 650.267 293.23 650.467 293.228 650.671C293.234 650.926 293.139 651.173 292.964 651.358C292.74 651.565 292.453 651.69 292.149 651.713C292.259 651.762 292.363 651.826 292.455 651.904C292.616 652.055 292.757 652.226 292.875 652.413L293.541 653.455H292.904L292.397 652.655C292.25 652.425 292.127 652.248 292.032 652.127C291.961 652.028 291.873 651.942 291.774 651.871C291.704 651.824 291.625 651.79 291.543 651.771C291.45 651.756 291.355 651.75 291.261 651.753H290.673V653.453L290.164 653.458ZM290.67 651.319H291.76C291.944 651.325 292.127 651.301 292.303 651.247C292.426 651.206 292.531 651.125 292.603 651.017C292.669 650.915 292.704 650.796 292.703 650.674C292.705 650.589 292.688 650.505 292.654 650.428C292.619 650.35 292.568 650.282 292.503 650.227C292.323 650.095 292.102 650.033 291.88 650.052H290.668L290.67 651.319Z" fill="#1A1311"/>
<path d="M294.029 653.458V649.629H296.798V650.081H294.536V651.254H296.654V651.703H294.536V653.007H296.886V653.459L294.029 653.458Z" fill="#1A1311"/>
<path d="M186.687 652.477H185.774V644.624H190.151V645.436H186.687V648.307H189.942V649.117H186.687V652.477Z" fill="#1A1311"/>
<path d="M195.883 650.387C195.897 650.697 195.836 651.006 195.705 651.288C195.574 651.569 195.377 651.815 195.131 652.004C194.534 652.419 193.816 652.624 193.09 652.584C192.356 652.62 191.623 652.497 190.941 652.225V651.344C191.281 651.485 191.633 651.593 191.994 651.666C192.365 651.743 192.743 651.782 193.122 651.783C193.605 651.816 194.087 651.696 194.497 651.438C194.647 651.327 194.768 651.181 194.848 651.013C194.929 650.845 194.967 650.659 194.959 650.473C194.968 650.239 194.912 650.008 194.795 649.805C194.654 649.603 194.466 649.438 194.247 649.324C193.872 649.125 193.481 648.958 193.079 648.824C192.488 648.649 191.951 648.329 191.514 647.895C191.188 647.503 191.021 647.004 191.043 646.495C191.033 646.217 191.09 645.941 191.209 645.69C191.328 645.439 191.505 645.219 191.726 645.051C192.247 644.672 192.882 644.483 193.526 644.514C194.266 644.505 195 644.652 195.68 644.944L195.395 645.738C194.799 645.477 194.156 645.338 193.505 645.33C193.103 645.306 192.705 645.416 192.371 645.641C192.238 645.741 192.131 645.872 192.06 646.023C191.989 646.174 191.956 646.339 191.963 646.506C191.954 646.738 192.006 646.969 192.113 647.175C192.24 647.374 192.414 647.538 192.621 647.652C192.969 647.847 193.335 648.008 193.714 648.133C194.345 648.315 194.926 648.638 195.414 649.078C195.733 649.437 195.901 649.906 195.883 650.387Z" fill="#1A1311"/>
<path d="M198.401 652.477H197.488V644.624H201.866V645.436H198.401V648.307H201.656V649.117H198.401V652.477Z" fill="#1A1311"/>
<path d="M207.785 652.477H202.623V651.707L204.691 649.628C205.133 649.199 205.549 648.743 205.937 648.264C206.122 648.02 206.274 647.752 206.389 647.469C206.49 647.203 206.541 646.921 206.539 646.637C206.549 646.453 206.52 646.269 206.454 646.096C206.388 645.924 206.287 645.768 206.157 645.637C206.014 645.509 205.847 645.411 205.665 645.348C205.484 645.284 205.292 645.258 205.1 645.269C204.784 645.267 204.47 645.322 204.173 645.431C203.819 645.574 203.49 645.771 203.198 646.016L202.726 645.409C203.38 644.834 204.219 644.515 205.089 644.509C205.718 644.472 206.337 644.674 206.823 645.075C207.033 645.267 207.198 645.504 207.306 645.767C207.415 646.03 207.465 646.314 207.452 646.598C207.445 647.119 207.301 647.628 207.033 648.075C206.592 648.756 206.065 649.377 205.465 649.923L203.746 651.604V651.647H207.785V652.477Z" fill="#1A1311"/>
<path d="M208.827 649.936V649.119H211.464V649.936H208.827Z" fill="#1A1311"/>
<path d="M219.263 648.475C219.3 649.016 219.225 649.56 219.044 650.071C218.862 650.582 218.577 651.051 218.207 651.448C217.794 651.811 217.312 652.089 216.791 652.266C216.27 652.442 215.719 652.514 215.17 652.477H212.995V644.624H215.401C215.92 644.572 216.444 644.635 216.936 644.81C217.428 644.985 217.874 645.267 218.244 645.635C218.613 646.003 218.896 646.449 219.073 646.94C219.249 647.431 219.314 647.956 219.263 648.475ZM218.296 648.508C218.327 648.09 218.275 647.67 218.143 647.273C218.01 646.875 217.8 646.508 217.525 646.192C217.215 645.915 216.853 645.703 216.459 645.569C216.065 645.435 215.649 645.383 215.234 645.414H213.907V651.688H215.018C215.91 651.756 216.793 651.469 217.474 650.888C217.766 650.568 217.989 650.192 218.131 649.782C218.272 649.373 218.328 648.94 218.296 648.508Z" fill="#1A1311"/>
<path d="M221.014 644.624H223.232C224.015 644.564 224.798 644.726 225.493 645.092C225.728 645.256 225.916 645.478 226.039 645.737C226.162 645.996 226.215 646.282 226.193 646.568C226.209 646.987 226.071 647.397 225.805 647.721C225.507 648.044 225.104 648.252 224.668 648.309V648.362C225.86 648.567 226.456 649.194 226.457 650.242C226.473 650.552 226.417 650.862 226.293 651.147C226.17 651.432 225.982 651.685 225.745 651.886C225.172 652.311 224.467 652.52 223.755 652.477H221.016L221.014 644.624ZM221.927 647.986H223.427C223.91 648.026 224.394 647.921 224.818 647.686C224.967 647.563 225.084 647.406 225.158 647.228C225.232 647.049 225.261 646.855 225.242 646.663C225.257 646.476 225.221 646.288 225.138 646.12C225.054 645.952 224.927 645.81 224.769 645.709C224.303 645.482 223.786 645.381 223.269 645.417H221.927V647.986ZM221.927 648.76V651.697H223.565C224.069 651.733 224.572 651.604 224.997 651.33C225.163 651.19 225.293 651.013 225.377 650.812C225.46 650.612 225.495 650.394 225.477 650.178C225.493 649.972 225.456 649.765 225.37 649.578C225.284 649.39 225.152 649.227 224.986 649.104C224.532 648.842 224.009 648.722 223.486 648.76H221.927Z" fill="#1A1311"/>
<path d="M228.941 651.198L229.022 651.322C228.929 651.68 228.795 652.096 228.622 652.57C228.449 653.044 228.266 653.486 228.074 653.895H227.403C227.5 653.523 227.607 653.063 227.723 652.514C227.839 651.967 227.923 651.527 227.967 651.198H228.941Z" fill="#1A1311"/>
<path d="M234.607 652.477H233.694V644.624H238.071V645.436H234.607V648.307H237.862V649.117H234.607V652.477Z" fill="#1A1311"/>
<path d="M243.807 650.387C243.821 650.697 243.76 651.006 243.629 651.288C243.498 651.569 243.301 651.815 243.055 652.004C242.458 652.419 241.74 652.624 241.014 652.584C240.28 652.62 239.547 652.497 238.865 652.225V651.344C239.205 651.485 239.557 651.593 239.918 651.666C240.289 651.743 240.667 651.782 241.046 651.783C241.529 651.816 242.011 651.696 242.421 651.438C242.571 651.327 242.692 651.181 242.772 651.013C242.853 650.845 242.891 650.659 242.883 650.473C242.893 650.239 242.836 650.008 242.719 649.805C242.578 649.603 242.39 649.438 242.171 649.324C241.796 649.126 241.405 648.958 241.003 648.824C240.412 648.649 239.874 648.33 239.438 647.895C239.112 647.503 238.945 647.004 238.967 646.495C238.957 646.217 239.014 645.941 239.133 645.69C239.251 645.439 239.428 645.22 239.649 645.051C240.171 644.673 240.805 644.483 241.449 644.514C242.189 644.505 242.922 644.652 243.602 644.944L243.318 645.738C242.722 645.477 242.079 645.338 241.428 645.33C241.026 645.306 240.628 645.416 240.294 645.641C240.161 645.741 240.054 645.872 239.983 646.023C239.912 646.174 239.879 646.34 239.886 646.506C239.877 646.738 239.928 646.969 240.036 647.175C240.163 647.374 240.337 647.538 240.544 647.652C240.892 647.847 241.258 648.008 241.637 648.133C242.268 648.315 242.849 648.638 243.337 649.078C243.657 649.437 243.825 649.906 243.807 650.387Z" fill="#1A1311"/>
<path d="M246.322 652.477H245.407V644.624H249.785V645.436H246.32V648.307H249.575V649.117H246.32L246.322 652.477Z" fill="#1A1311"/>
<path d="M255.707 652.477H250.545V651.707L252.613 649.628C253.055 649.199 253.471 648.743 253.859 648.264C254.044 648.02 254.196 647.752 254.311 647.469C254.412 647.203 254.463 646.921 254.461 646.637C254.471 646.453 254.442 646.269 254.376 646.096C254.31 645.924 254.209 645.768 254.079 645.637C253.936 645.509 253.768 645.411 253.587 645.347C253.405 645.284 253.213 645.258 253.021 645.269C252.705 645.267 252.391 645.322 252.095 645.431C251.741 645.574 251.412 645.771 251.12 646.016L250.647 645.409C251.301 644.835 252.14 644.515 253.011 644.509C253.64 644.472 254.259 644.674 254.745 645.075C254.955 645.267 255.12 645.504 255.228 645.767C255.337 646.03 255.387 646.314 255.374 646.598C255.367 647.119 255.223 647.628 254.955 648.075C254.514 648.756 253.987 649.377 253.387 649.923L251.667 651.607V651.65H255.707V652.477Z" fill="#1A1311"/>
<path d="M256.748 649.936V649.119H259.385V649.936H256.748Z" fill="#1A1311"/>
<path d="M265.852 652.477L264.874 649.977H261.727L260.76 652.477H259.836L262.936 644.592H263.705L266.793 652.477H265.852ZM264.59 649.157L263.677 646.725C263.559 646.416 263.436 646.038 263.311 645.591C263.22 645.975 263.108 646.354 262.973 646.725L262.049 649.157H264.59Z" fill="#1A1311"/>
<path d="M267.877 644.624H270.095C270.878 644.564 271.661 644.726 272.356 645.092C272.591 645.256 272.779 645.478 272.902 645.737C273.024 645.996 273.078 646.282 273.056 646.568C273.072 646.987 272.933 647.398 272.666 647.721C272.368 648.044 271.966 648.252 271.53 648.309V648.362C272.723 648.567 273.319 649.194 273.318 650.242C273.334 650.552 273.278 650.862 273.154 651.147C273.031 651.432 272.843 651.685 272.606 651.886C272.033 652.311 271.329 652.52 270.617 652.477H267.877V644.624ZM268.79 647.986H270.29C270.773 648.026 271.257 647.921 271.681 647.686C271.831 647.564 271.948 647.406 272.022 647.228C272.096 647.049 272.124 646.855 272.105 646.663C272.12 646.476 272.084 646.289 272.001 646.121C271.917 645.953 271.79 645.811 271.633 645.709C271.167 645.482 270.65 645.381 270.133 645.417H268.79V647.986ZM268.79 648.76V651.697H270.428C270.932 651.733 271.434 651.604 271.859 651.33C272.025 651.19 272.156 651.013 272.24 650.812C272.323 650.612 272.358 650.394 272.34 650.178C272.356 649.972 272.319 649.765 272.233 649.578C272.147 649.39 272.015 649.227 271.849 649.104C271.395 648.842 270.872 648.722 270.349 648.76H268.79Z" fill="#1A1311"/>
</g>
<defs>
<clipPath id="clip0_86_13597">
<rect width="340.517" height="669.717" fill="white"/>
</clipPath>
</defs>
</svg>
