<svg width="300" height="447" viewBox="0 0 300 447" fill="none" xmlns="http://www.w3.org/2000/svg">
<g clip-path="url(#clip0_59_9590)">
<path d="M300 0H0V447H300V0Z" fill="white"/>
<path d="M198.571 396.152V395.875" stroke="black" stroke-width="0.5" stroke-linecap="round" stroke-linejoin="round"/>
<path d="M201.852 396.152V395.875" stroke="black" stroke-width="0.5" stroke-linecap="round" stroke-linejoin="round"/>
<path d="M198.366 395.881H202.057" stroke="black" stroke-width="0.5" stroke-linecap="round" stroke-linejoin="round"/>
<path d="M198.366 395.881V395.346" stroke="black" stroke-width="0.5" stroke-linecap="round" stroke-linejoin="round"/>
<path d="M202.057 395.881V395.326" stroke="black" stroke-width="0.5" stroke-linecap="round" stroke-linejoin="round"/>
<path d="M197.189 396.152H203.241" stroke="black" stroke-width="0.5" stroke-linecap="round" stroke-linejoin="round"/>
<path d="M203.241 397.328V396.152" stroke="black" stroke-width="0.5" stroke-linecap="round" stroke-linejoin="round"/>
<path d="M197.189 397.328V396.152" stroke="black" stroke-width="0.5" stroke-linecap="round" stroke-linejoin="round"/>
<path d="M203.909 402.225H196.521" stroke="black" stroke-width="0.5" stroke-linecap="round" stroke-linejoin="round"/>
<path d="M203.909 401.187H196.521" stroke="#B3B3B3" stroke-width="0.25" stroke-linecap="round" stroke-linejoin="round"/>
<path d="M196.104 401.815C196.104 402.04 196.289 402.225 196.514 402.225" stroke="black" stroke-width="0.5" stroke-linecap="round" stroke-linejoin="round"/>
<path d="M203.909 402.225C204.134 402.225 204.319 402.04 204.319 401.815" stroke="black" stroke-width="0.5" stroke-linecap="round" stroke-linejoin="round"/>
<path d="M196.104 401.815V399.496" stroke="black" stroke-width="0.5" stroke-linecap="round" stroke-linejoin="round"/>
<path d="M204.319 401.815V399.496" stroke="black" stroke-width="0.5" stroke-linecap="round" stroke-linejoin="round"/>
<path d="M198.161 389.128V395.32H202.262V389.128" stroke="black" stroke-width="0.5" stroke-linecap="round" stroke-linejoin="round"/>
<path d="M198.161 389.134C198.498 388.275 199.292 387.674 200.212 387.674C201.131 387.674 201.925 388.275 202.262 389.134" stroke="black" stroke-width="0.5" stroke-linecap="round" stroke-linejoin="round"/>
<path d="M202.361 394.004C202.15 394.381 198.816 393.965 198.055 393.714" stroke="#999999" stroke-width="0.2" stroke-linecap="round" stroke-linejoin="round"/>
<path d="M202.361 393.013C202.15 393.39 198.816 392.974 198.055 392.723" stroke="#999999" stroke-width="0.2" stroke-linecap="round" stroke-linejoin="round"/>
<path d="M202.361 392.022C202.15 392.399 198.816 391.983 198.055 391.731" stroke="#999999" stroke-width="0.2" stroke-linecap="round" stroke-linejoin="round"/>
<path d="M202.361 391.031C202.15 391.408 198.816 390.991 198.055 390.74" stroke="#999999" stroke-width="0.2" stroke-linecap="round" stroke-linejoin="round"/>
<path d="M202.361 390.04C202.15 390.416 198.816 390 198.055 389.749" stroke="#999999" stroke-width="0.2" stroke-linecap="round" stroke-linejoin="round"/>
<path d="M193.418 399.198H191.547" stroke="#231815" stroke-width="0.5" stroke-linecap="round" stroke-linejoin="round"/>
<path d="M193.418 397.328H191.547" stroke="#231815" stroke-width="0.5" stroke-linecap="round" stroke-linejoin="round"/>
<path d="M191.547 399.198V397.328" stroke="#231815" stroke-width="0.5" stroke-linecap="round" stroke-linejoin="round"/>
<path d="M208.89 399.198H193.418" stroke="#231815" stroke-width="0.5" stroke-linecap="round" stroke-linejoin="round"/>
<path d="M208.89 397.328H193.418" stroke="#231815" stroke-width="0.5" stroke-linecap="round" stroke-linejoin="round"/>
<path d="M206.582 372.978H211.046" stroke="#231815" stroke-width="0.5" stroke-linecap="round" stroke-linejoin="round"/>
<path d="M206.357 361.176H211.046" stroke="#231815" stroke-width="0.5" stroke-linecap="round" stroke-linejoin="round"/>
<path d="M203.545 356.491H204.743" stroke="#231815" stroke-width="0.5" stroke-linecap="round" stroke-linejoin="round"/>
<path d="M208.46 342.443H211.046" stroke="#231815" stroke-width="0.5" stroke-linecap="round" stroke-linejoin="round"/>
<path d="M203.433 370.989L204.597 372.152" stroke="#231815" stroke-width="0.5" stroke-linecap="round" stroke-linejoin="round"/>
<path d="M203.433 338.584L206.469 341.623" stroke="#231815" stroke-width="0.5" stroke-linecap="round" stroke-linejoin="round"/>
<path d="M206.357 361.176L205.669 357.264" stroke="#231815" stroke-width="0.5" stroke-linecap="round" stroke-linejoin="round"/>
<path d="M202.606 103.249V111.112" stroke="#231815" stroke-width="0.5" stroke-linecap="round" stroke-linejoin="round"/>
<path d="M202.606 369.007V357.429" stroke="#231815" stroke-width="0.5" stroke-linecap="round" stroke-linejoin="round"/>
<path d="M202.606 336.601V127.037" stroke="#231815" stroke-width="0.5" stroke-linecap="round" stroke-linejoin="round"/>
<path d="M202.606 93.8854V92.0088" stroke="#231815" stroke-width="0.5" stroke-linecap="round" stroke-linejoin="round"/>
<path d="M205.98 347.062V354.885" stroke="#231815" stroke-width="0.5" stroke-linecap="round" stroke-linejoin="round"/>
<path d="M206.641 361.176V359.987" stroke="#231815" stroke-width="0.5" stroke-linecap="round" stroke-linejoin="round"/>
<path d="M207.296 180.423V144.833" stroke="#231815" stroke-width="0.5" stroke-linecap="round" stroke-linejoin="round"/>
<path d="M207.858 354.885V347.062" stroke="#231815" stroke-width="0.5" stroke-linecap="round" stroke-linejoin="round"/>
<path d="M208.89 181.355V143.894" stroke="#231815" stroke-width="0.5" stroke-linecap="round" stroke-linejoin="round"/>
<path d="M209.168 397.044V372.978" stroke="#231815" stroke-width="0.5" stroke-linecap="round" stroke-linejoin="round"/>
<path d="M209.168 361.176V342.443" stroke="#231815" stroke-width="0.5" stroke-linecap="round" stroke-linejoin="round"/>
<path d="M209.168 130.784V112.051" stroke="#231815" stroke-width="0.5" stroke-linecap="round" stroke-linejoin="round"/>
<path d="M209.168 102.311V94.1631" stroke="#231815" stroke-width="0.5" stroke-linecap="round" stroke-linejoin="round"/>
<path d="M211.047 397.044V94.1631" stroke="#231815" stroke-width="0.5" stroke-linecap="round" stroke-linejoin="round"/>
<path d="M206.357 130.784L205.669 126.872" stroke="#231815" stroke-width="0.5" stroke-linecap="round" stroke-linejoin="round"/>
<path d="M206.992 358.401L207.157 358.051" stroke="#231815" stroke-width="0.5" stroke-linecap="round" stroke-linejoin="round"/>
<path d="M211.046 181.354H208.235" stroke="#231815" stroke-width="0.5" stroke-linecap="round" stroke-linejoin="round"/>
<path d="M208.632 343.969L206.654 345.628" stroke="#231815" stroke-width="0.5" stroke-linecap="round" stroke-linejoin="round"/>
<path d="M207.858 347.062L209.168 345.965" stroke="#231815" stroke-width="0.5" stroke-linecap="round" stroke-linejoin="round"/>
<path d="M211.046 143.894H208.235" stroke="#231815" stroke-width="0.5" stroke-linecap="round" stroke-linejoin="round"/>
<path d="M206.357 130.784H211.046" stroke="#231815" stroke-width="0.5" stroke-linecap="round" stroke-linejoin="round"/>
<path d="M203.545 126.099H204.743" stroke="#231815" stroke-width="0.5" stroke-linecap="round" stroke-linejoin="round"/>
<path d="M203.545 112.051H211.046" stroke="#231815" stroke-width="0.5" stroke-linecap="round" stroke-linejoin="round"/>
<path d="M203.545 102.311H211.046" stroke="#231815" stroke-width="0.5" stroke-linecap="round" stroke-linejoin="round"/>
<path d="M208.89 93.8855H202.606" stroke="#231815" stroke-width="0.5" stroke-linecap="round" stroke-linejoin="round"/>
<path d="M202.606 92.0088H208.89" stroke="#231815" stroke-width="0.5" stroke-linecap="round" stroke-linejoin="round"/>
<path d="M207.157 358.051C207.62 357.059 207.858 355.976 207.858 354.885" stroke="#231815" stroke-width="0.5" stroke-linecap="round" stroke-linejoin="round"/>
<path d="M205.563 357.007C205.841 356.333 205.98 355.612 205.98 354.885" stroke="#231815" stroke-width="0.5" stroke-linecap="round" stroke-linejoin="round"/>
<path d="M206.992 358.401C206.76 358.896 206.641 359.438 206.641 359.987" stroke="#231815" stroke-width="0.5" stroke-linecap="round" stroke-linejoin="round"/>
<path d="M204.597 372.152C205.126 372.68 205.841 372.978 206.588 372.978" stroke="#231815" stroke-width="0.5" stroke-linecap="round" stroke-linejoin="round"/>
<path d="M202.606 369.007C202.606 369.753 202.904 370.467 203.433 370.996" stroke="#231815" stroke-width="0.5" stroke-linecap="round" stroke-linejoin="round"/>
<path d="M206.469 341.623C206.998 342.152 207.713 342.449 208.46 342.449" stroke="#231815" stroke-width="0.5" stroke-linecap="round" stroke-linejoin="round"/>
<path d="M202.606 336.601C202.606 337.348 202.904 338.062 203.433 338.59" stroke="#231815" stroke-width="0.5" stroke-linecap="round" stroke-linejoin="round"/>
<path d="M208.89 399.198C210.081 399.198 211.047 398.233 211.047 397.044" stroke="#231815" stroke-width="0.5" stroke-linecap="round" stroke-linejoin="round"/>
<path d="M211.047 94.163C211.047 92.9735 210.081 92.0088 208.89 92.0088" stroke="#231815" stroke-width="0.5" stroke-linecap="round" stroke-linejoin="round"/>
<path d="M206.654 345.628C206.231 345.985 205.986 346.507 205.986 347.062" stroke="#231815" stroke-width="0.5" stroke-linecap="round" stroke-linejoin="round"/>
<path d="M208.632 343.969C208.969 343.685 209.168 343.262 209.168 342.819" stroke="#231815" stroke-width="0.5" stroke-linecap="round" stroke-linejoin="round"/>
<path d="M203.545 102.311C203.03 102.311 202.606 102.727 202.606 103.249" stroke="#231815" stroke-width="0.5" stroke-linecap="round" stroke-linejoin="round"/>
<path d="M202.606 111.112C202.606 111.628 203.023 112.051 203.545 112.051" stroke="#231815" stroke-width="0.5" stroke-linecap="round" stroke-linejoin="round"/>
<path d="M203.545 356.491C203.03 356.491 202.606 356.907 202.606 357.43" stroke="#231815" stroke-width="0.5" stroke-linecap="round" stroke-linejoin="round"/>
<path d="M205.669 357.264C205.589 356.815 205.199 356.491 204.743 356.491" stroke="#231815" stroke-width="0.5" stroke-linecap="round" stroke-linejoin="round"/>
<path d="M203.545 126.099C203.03 126.099 202.606 126.515 202.606 127.037" stroke="#231815" stroke-width="0.5" stroke-linecap="round" stroke-linejoin="round"/>
<path d="M205.669 126.872C205.589 126.423 205.199 126.099 204.743 126.099" stroke="#231815" stroke-width="0.5" stroke-linecap="round" stroke-linejoin="round"/>
<path d="M207.296 180.423C207.296 180.938 207.713 181.361 208.235 181.361" stroke="#231815" stroke-width="0.5" stroke-linecap="round" stroke-linejoin="round"/>
<path d="M208.235 143.894C207.719 143.894 207.296 144.311 207.296 144.833" stroke="#231815" stroke-width="0.5" stroke-linecap="round" stroke-linejoin="round"/>
<path d="M208.89 397.328C209.042 397.328 209.175 397.203 209.175 397.044" stroke="#231815" stroke-width="0.5" stroke-linecap="round" stroke-linejoin="round"/>
<path d="M209.168 94.163C209.168 94.0111 209.042 93.8789 208.883 93.8789" stroke="#231815" stroke-width="0.5" stroke-linecap="round" stroke-linejoin="round"/>
<path d="M175.691 270.106L172.549 254.584L169.011 258.634L154.624 246.099L149.021 252.515L163.408 265.057L159.869 269.101L175.691 270.106Z" fill="black"/>
<path d="M110.822 370.692L119.665 369.747" stroke="#231815" stroke-width="0.5" stroke-linecap="round" stroke-linejoin="round"/>
<path d="M110.769 369.806L119.566 368.868" stroke="#231815" stroke-width="0.5" stroke-linecap="round" stroke-linejoin="round"/>
<path d="M110.517 365.075L125.103 363.515" stroke="#231815" stroke-width="0.5" stroke-linecap="round" stroke-linejoin="round"/>
<path d="M108.5 365.062L109.029 365.068" stroke="#231815" stroke-linecap="round" stroke-linejoin="round"/>
<path d="M108.103 365.062L107.104 365.049" stroke="#231815" stroke-linecap="round" stroke-linejoin="round"/>
<path d="M107.104 365.049L106.145 365.035" stroke="#231815" stroke-linecap="round" stroke-linejoin="round"/>
<path d="M106.489 365.042L106.899 365.049" stroke="#231815" stroke-linecap="round" stroke-linejoin="round"/>
<path d="M105.894 365.029L106.251 365.035" stroke="#231815" stroke-linecap="round" stroke-linejoin="round"/>
<path d="M105.894 365.029L106.251 365.035" stroke="#231815" stroke-linecap="round" stroke-linejoin="round"/>
<path d="M105.894 365.029L105.259 365.016" stroke="#231815" stroke-linecap="round" stroke-linejoin="round"/>
<path d="M105.894 365.029L105.259 365.016" stroke="#231815" stroke-linecap="round" stroke-linejoin="round"/>
<path d="M104.591 365.002L105.259 365.015" stroke="#231815" stroke-linecap="round" stroke-linejoin="round"/>
<path d="M103.698 364.976L104.591 365.002" stroke="#231815" stroke-linecap="round" stroke-linejoin="round"/>
<path d="M104.042 364.989L104.267 364.996" stroke="#231815" stroke-linecap="round" stroke-linejoin="round"/>
<path d="M125.718 356.742H125.711" stroke="#231815" stroke-width="0.5" stroke-linecap="round" stroke-linejoin="round"/>
<path d="M110.332 45.1917L109.71 46.2225" stroke="#231815" stroke-width="0.5" stroke-linecap="round" stroke-linejoin="round"/>
<path d="M110.544 44.8547L110.332 45.1917" stroke="#231815" stroke-width="0.5" stroke-linecap="round" stroke-linejoin="round"/>
<ellipse cx="109.889" cy="363.912" rx="0.165366" ry="0.165198" fill="#231815"/>
<path d="M106.377 53.2666L105.279 56.6499" stroke="#231815" stroke-width="0.5" stroke-linecap="round" stroke-linejoin="round"/>
<path d="M105.279 56.6499L104.405 60.3305" stroke="#231815" stroke-width="0.5" stroke-linecap="round" stroke-linejoin="round"/>
<path d="M104.432 349.646L105.378 353.544" stroke="#231815" stroke-width="0.5" stroke-linecap="round" stroke-linejoin="round"/>
<path d="M88.9602 46.2227V363.621" stroke="#231815" stroke-linecap="round" stroke-linejoin="round"/>
<path d="M103.916 63.5022V63.489" stroke="#231815" stroke-width="0.5" stroke-linecap="round" stroke-linejoin="round"/>
<path d="M104.405 60.3306L103.916 63.4892" stroke="#231815" stroke-width="0.5" stroke-linecap="round" stroke-linejoin="round"/>
<path d="M103.916 346.348L104.432 349.645" stroke="#231815" stroke-width="0.5" stroke-linecap="round" stroke-linejoin="round"/>
<path d="M103.916 346.342V346.348" stroke="#231815" stroke-width="0.5" stroke-linecap="round" stroke-linejoin="round"/>
<path d="M107.805 369.8L107.554 365.055" stroke="#231815" stroke-width="0.5" stroke-linecap="round" stroke-linejoin="round"/>
<path d="M108.745 369.8L108.493 365.062" stroke="#231815" stroke-width="0.5" stroke-linecap="round" stroke-linejoin="round"/>
<path d="M103.023 85.0442V324.8" stroke="#231815" stroke-width="0.5" stroke-linecap="round" stroke-linejoin="round"/>
<path d="M131.797 152.993L131.056 153.363" stroke="#231815" stroke-linecap="round" stroke-linejoin="round"/>
<path d="M108.745 369.8L108.738 370.685" stroke="#231815" stroke-width="0.5" stroke-linecap="round" stroke-linejoin="round"/>
<path d="M131.056 256.48L131.797 256.85" stroke="#231815" stroke-linecap="round" stroke-linejoin="round"/>
<path d="M125.943 359.564V362.584" stroke="#231815" stroke-width="0.5" stroke-linecap="round" stroke-linejoin="round"/>
<path d="M130.017 155.035V155.531" stroke="#231815" stroke-linecap="round" stroke-linejoin="round"/>
<path d="M130.017 254.313V254.808" stroke="#231815" stroke-linecap="round" stroke-linejoin="round"/>
<path d="M119.566 368.868L119.818 364.077" stroke="#231815" stroke-width="0.5" stroke-linecap="round" stroke-linejoin="round"/>
<path d="M120.505 368.868L120.757 363.978" stroke="#231815" stroke-width="0.5" stroke-linecap="round" stroke-linejoin="round"/>
<path d="M132.835 52.6851V151.315" stroke="#231815" stroke-linecap="round" stroke-linejoin="round"/>
<path d="M132.835 357.159V258.529" stroke="#231815" stroke-linecap="round" stroke-linejoin="round"/>
<path d="M132.835 250.593V159.251" stroke="#231815" stroke-linecap="round" stroke-linejoin="round"/>
<path d="M131.797 252.264L131.056 252.634" stroke="#231815" stroke-linecap="round" stroke-linejoin="round"/>
<path d="M131.056 157.209L131.797 157.573" stroke="#231815" stroke-linecap="round" stroke-linejoin="round"/>
<path d="M116.074 362.412L132.425 357.7" stroke="#231815" stroke-linecap="round" stroke-linejoin="round"/>
<path d="M126.617 57.3701L126.22 57.1851" stroke="#231815" stroke-width="0.5" stroke-linecap="round" stroke-linejoin="round"/>
<path d="M116.074 47.4319L132.425 52.1433" stroke="#231815" stroke-linecap="round" stroke-linejoin="round"/>
<ellipse cx="125.685" cy="53.1015" rx="0.165366" ry="0.165198" fill="#231815"/>
<path d="M114.083 45.152L110.689 44.7886" stroke="#231815" stroke-linecap="round" stroke-linejoin="round"/>
<path d="M108.083 370.421C108.136 370.474 108.202 370.52 108.268 370.56" stroke="#231815" stroke-width="0.5" stroke-linecap="round" stroke-linejoin="round"/>
<path d="M108.268 370.56C108.308 370.579 108.348 370.599 108.387 370.619" stroke="#231815" stroke-width="0.5" stroke-linecap="round" stroke-linejoin="round"/>
<path d="M107.805 369.8C107.832 370.295 108.242 370.685 108.738 370.685" stroke="#231815" stroke-width="0.5" stroke-linecap="round" stroke-linejoin="round"/>
<path d="M88.9602 363.621C88.9602 363.912 89.1851 364.156 89.4761 364.183" stroke="#231815" stroke-linecap="round" stroke-linejoin="round"/>
<path d="M106.383 365.035C106.542 365.035 106.694 365.035 106.853 365.035" stroke="#231815" stroke-linecap="round" stroke-linejoin="round"/>
<path d="M127.279 351.958C127.067 352.051 126.855 352.15 126.644 352.256" stroke="#231815" stroke-width="0.5" stroke-linecap="round" stroke-linejoin="round"/>
<path d="M119.665 369.747C120.122 369.701 120.479 369.324 120.499 368.861" stroke="#231815" stroke-width="0.5" stroke-linecap="round" stroke-linejoin="round"/>
<path d="M125.103 363.515C125.579 363.463 125.943 363.066 125.943 362.584" stroke="#231815" stroke-width="0.5" stroke-linecap="round" stroke-linejoin="round"/>
<path d="M132.425 357.701C132.663 357.628 132.828 357.41 132.828 357.159" stroke="#231815" stroke-linecap="round" stroke-linejoin="round"/>
<path d="M132.425 350.399C132.584 350.352 132.709 350.24 132.782 350.095" stroke="#231815" stroke-width="0.5" stroke-linecap="round" stroke-linejoin="round"/>
<path d="M103.79 345.178C103.79 345.245 103.804 345.311 103.81 345.377" stroke="#231815" stroke-width="0.5" stroke-linecap="round" stroke-linejoin="round"/>
<path d="M103.863 345.899C103.876 346.044 103.896 346.189 103.909 346.341" stroke="#231815" stroke-width="0.5" stroke-linecap="round" stroke-linejoin="round"/>
<path d="M103.724 344.372C103.737 344.577 103.757 344.775 103.77 344.98" stroke="#231815" stroke-width="0.5" stroke-linecap="round" stroke-linejoin="round"/>
<path d="M103.784 345.086C103.784 345.086 103.784 345.145 103.79 345.178" stroke="#231815" stroke-width="0.5" stroke-linecap="round" stroke-linejoin="round"/>
<path d="M103.817 345.463C103.83 345.582 103.843 345.694 103.85 345.813" stroke="#231815" stroke-width="0.5" stroke-linecap="round" stroke-linejoin="round"/>
<path d="M103.777 344.98C103.777 345.013 103.777 345.053 103.784 345.086" stroke="#231815" stroke-width="0.5" stroke-linecap="round" stroke-linejoin="round"/>
<path d="M110.147 44.7688C103.248 44.782 96.3488 45.0794 89.4762 45.6609" stroke="#231815" stroke-width="0.5" stroke-linecap="round" stroke-linejoin="round"/>
<path d="M110.147 44.7688C103.248 44.782 96.3488 45.0794 89.4762 45.6609" stroke="#231815" stroke-linecap="round" stroke-linejoin="round"/>
<path d="M131.797 252.264C132.432 251.947 132.835 251.3 132.835 250.586" stroke="#231815" stroke-linecap="round" stroke-linejoin="round"/>
<path d="M132.835 258.529C132.835 257.822 132.432 257.168 131.797 256.85" stroke="#231815" stroke-linecap="round" stroke-linejoin="round"/>
<path d="M131.056 252.635C130.421 252.952 130.017 253.599 130.017 254.313" stroke="#231815" stroke-linecap="round" stroke-linejoin="round"/>
<path d="M130.017 254.808C130.017 255.515 130.421 256.17 131.056 256.487" stroke="#231815" stroke-linecap="round" stroke-linejoin="round"/>
<path d="M103.023 326.372C103.056 331.89 103.254 337.408 103.625 342.912" stroke="#231815" stroke-width="0.5" stroke-linecap="round" stroke-linejoin="round"/>
<path d="M103.023 324.8C103.023 325.322 103.023 325.85 103.023 326.372" stroke="#231815" stroke-width="0.5" stroke-linecap="round" stroke-linejoin="round"/>
<path d="M103.625 342.912C103.658 343.401 103.691 343.89 103.724 344.372" stroke="#231815" stroke-width="0.5" stroke-linecap="round" stroke-linejoin="round"/>
<path d="M108.738 370.685C109.433 370.685 110.127 370.692 110.822 370.685" stroke="#231815" stroke-width="0.5" stroke-linecap="round" stroke-linejoin="round"/>
<path d="M108.745 369.8C109.419 369.8 110.101 369.806 110.775 369.8" stroke="#231815" stroke-width="0.5" stroke-linecap="round" stroke-linejoin="round"/>
<path d="M107.746 365.055C107.997 365.055 108.248 365.055 108.5 365.062" stroke="#231815" stroke-width="0.5" stroke-linecap="round" stroke-linejoin="round"/>
<path d="M107.759 365.055C108.004 365.055 108.255 365.055 108.5 365.062" stroke="#231815" stroke-linecap="round" stroke-linejoin="round"/>
<path d="M89.4696 364.183C94.3181 364.593 99.1799 364.863 104.042 364.989" stroke="#231815" stroke-linecap="round" stroke-linejoin="round"/>
<path d="M105.259 365.016C105.47 365.016 105.682 365.022 105.894 365.029" stroke="#231815" stroke-linecap="round" stroke-linejoin="round"/>
<path d="M109.029 365.068C109.525 365.068 110.021 365.068 110.517 365.068" stroke="#231815" stroke-linecap="round" stroke-linejoin="round"/>
<path d="M131.056 153.364C130.421 153.681 130.017 154.328 130.017 155.042" stroke="#231815" stroke-linecap="round" stroke-linejoin="round"/>
<path d="M130.017 155.531C130.017 156.238 130.421 156.892 131.056 157.209" stroke="#231815" stroke-linecap="round" stroke-linejoin="round"/>
<path d="M131.797 152.993C132.432 152.676 132.835 152.029 132.835 151.315" stroke="#231815" stroke-linecap="round" stroke-linejoin="round"/>
<path d="M132.835 159.251C132.835 158.544 132.432 157.89 131.797 157.573" stroke="#231815" stroke-linecap="round" stroke-linejoin="round"/>
<path d="M103.83 64.3018C103.823 64.3943 103.81 64.4868 103.803 64.5793" stroke="#231815" stroke-width="0.5" stroke-linecap="round" stroke-linejoin="round"/>
<path d="M103.764 64.9956C103.751 65.1542 103.737 65.3128 103.724 65.4714" stroke="#231815" stroke-width="0.5" stroke-linecap="round" stroke-linejoin="round"/>
<path d="M103.916 63.5022C103.896 63.6806 103.876 63.8524 103.856 64.0308" stroke="#231815" stroke-width="0.5" stroke-linecap="round" stroke-linejoin="round"/>
<path d="M103.797 64.6455C103.784 64.7645 103.777 64.8768 103.764 64.9957" stroke="#231815" stroke-width="0.5" stroke-linecap="round" stroke-linejoin="round"/>
<path d="M103.843 64.1167C103.843 64.1762 103.83 64.2422 103.823 64.3017" stroke="#231815" stroke-width="0.5" stroke-linecap="round" stroke-linejoin="round"/>
<path d="M89.4696 45.6609C89.1785 45.6873 88.9536 45.9318 88.9536 46.2226" stroke="#231815" stroke-linecap="round" stroke-linejoin="round"/>
<path d="M110.471 44.9604C110.405 44.8415 110.279 44.7754 110.147 44.7754" stroke="#231815" stroke-linecap="round" stroke-linejoin="round"/>
<path d="M110.689 44.7886C110.636 44.7886 110.577 44.8084 110.55 44.8547" stroke="#231815" stroke-linecap="round" stroke-linejoin="round"/>
<path d="M132.782 59.7556C132.716 59.6036 132.584 59.4913 132.425 59.4517" stroke="#231815" stroke-width="0.5" stroke-linecap="round" stroke-linejoin="round"/>
<path d="M132.835 52.6852C132.835 52.4341 132.67 52.216 132.432 52.1433" stroke="#231815" stroke-linecap="round" stroke-linejoin="round"/>
<path d="M103.592 67.4407C103.268 72.4561 103.082 77.4781 103.03 82.5001" stroke="#231815" stroke-width="0.5" stroke-linecap="round" stroke-linejoin="round"/>
<path d="M103.03 82.5C103.023 83.3458 103.016 84.1916 103.016 85.0441" stroke="#231815" stroke-width="0.5" stroke-linecap="round" stroke-linejoin="round"/>
<path d="M103.724 65.4648C103.678 66.119 103.631 66.7798 103.592 67.4406" stroke="#231815" stroke-width="0.5" stroke-linecap="round" stroke-linejoin="round"/>
<path d="M106.78 365.042H106.595" stroke="#231815" stroke-linecap="round" stroke-linejoin="round"/>
<path d="M106.595 365.042H106.496" stroke="#231815" stroke-linecap="round" stroke-linejoin="round"/>
<path d="M106.496 365.042L106.383 365.035" stroke="#231815" stroke-linecap="round" stroke-linejoin="round"/>
<path d="M106.191 365.035H106.363" stroke="#231815" stroke-linecap="round" stroke-linejoin="round"/>
<path d="M106.363 365.035H106.383" stroke="#231815" stroke-linecap="round" stroke-linejoin="round"/>
<path d="M106.383 365.035L106.568 365.042" stroke="#231815" stroke-linecap="round" stroke-linejoin="round"/>
<path d="M106.568 365.042H106.826" stroke="#231815" stroke-linecap="round" stroke-linejoin="round"/>
<path d="M108.083 370.421C107.997 370.342 107.931 370.242 107.885 370.137" stroke="#231815" stroke-width="0.5" stroke-linecap="round" stroke-linejoin="round"/>
<path d="M119.566 368.868C119.626 368.868 119.685 368.868 119.751 368.875C119.818 368.881 119.87 368.875 119.93 368.875C119.983 368.875 120.036 368.875 120.089 368.875C120.135 368.875 120.181 368.875 120.228 368.875C120.267 368.875 120.307 368.875 120.347 368.875C120.373 368.875 120.406 368.875 120.433 368.875C120.446 368.875 120.453 368.875 120.466 368.875C120.472 368.875 120.479 368.875 120.486 368.875C120.486 368.875 120.492 368.875 120.499 368.875" stroke="#231815" stroke-width="0.5" stroke-linecap="round" stroke-linejoin="round"/>
<path d="M110.769 369.806C110.769 369.866 110.769 369.925 110.775 369.985C110.782 370.044 110.775 370.097 110.782 370.15C110.782 370.203 110.782 370.249 110.789 370.302C110.789 370.348 110.789 370.388 110.795 370.434C110.795 370.454 110.795 370.474 110.795 370.493C110.795 370.513 110.795 370.526 110.795 370.546C110.795 370.559 110.795 370.573 110.795 370.592C110.795 370.606 110.795 370.619 110.795 370.632C110.795 370.639 110.795 370.652 110.795 370.659C110.795 370.665 110.795 370.672 110.795 370.678C110.795 370.678 110.795 370.678 110.795 370.685" stroke="#231815" stroke-width="0.5" stroke-linecap="round" stroke-linejoin="round"/>
<path d="M119.566 368.868C119.566 368.927 119.579 368.987 119.586 369.04C119.593 369.093 119.599 369.152 119.606 369.205C119.606 369.258 119.619 369.304 119.626 369.357C119.626 369.403 119.632 369.443 119.639 369.489C119.639 369.522 119.646 369.562 119.652 369.595C119.652 369.608 119.652 369.621 119.652 369.641C119.652 369.654 119.652 369.668 119.652 369.681C119.652 369.687 119.652 369.701 119.652 369.707C119.652 369.714 119.652 369.72 119.652 369.727C119.652 369.727 119.652 369.727 119.652 369.734" stroke="#231815" stroke-width="0.5" stroke-linecap="round" stroke-linejoin="round"/>
<path d="M107.805 369.8C107.805 369.8 107.812 369.8 107.819 369.8C107.825 369.8 107.832 369.8 107.838 369.8C107.852 369.8 107.858 369.8 107.871 369.8C107.898 369.8 107.931 369.8 107.957 369.8C107.997 369.8 108.037 369.8 108.077 369.8C108.123 369.8 108.169 369.8 108.215 369.8C108.268 369.8 108.321 369.8 108.374 369.8C108.434 369.8 108.493 369.8 108.553 369.8C108.612 369.8 108.672 369.8 108.738 369.793" stroke="#231815" stroke-width="0.5" stroke-linecap="round" stroke-linejoin="round"/>
<path d="M103.592 364.976H103.698" stroke="#231815" stroke-linecap="round" stroke-linejoin="round"/>
<path d="M106.291 365.035H106.343" stroke="#231815" stroke-linecap="round" stroke-linejoin="round"/>
<path d="M106.344 365.035H106.396" stroke="#231815" stroke-linecap="round" stroke-linejoin="round"/>
<path d="M106.568 365.042H106.575" stroke="#231815" stroke-linecap="round" stroke-linejoin="round"/>
<path d="M106.734 365.042H106.833" stroke="#231815" stroke-linecap="round" stroke-linejoin="round"/>
<path d="M106.833 365.042L107.025 365.049" stroke="#231815" stroke-linecap="round" stroke-linejoin="round"/>
<path d="M107.025 365.049H107.243" stroke="#231815" stroke-linecap="round" stroke-linejoin="round"/>
<path d="M103.592 364.976L103.413 364.969" stroke="#231815" stroke-linecap="round" stroke-linejoin="round"/>
<path d="M132.782 59.7556C132.815 59.8283 132.835 59.9076 132.835 59.9935" stroke="#231815" stroke-width="0.5" stroke-linecap="round" stroke-linejoin="round"/>
<path d="M132.782 350.095C132.815 350.022 132.835 349.943 132.835 349.864" stroke="#231815" stroke-width="0.5" stroke-linecap="round" stroke-linejoin="round"/>
<path d="M103.81 345.377L103.817 345.463" stroke="#231815" stroke-width="0.5" stroke-linecap="round" stroke-linejoin="round"/>
<path d="M103.856 345.813L103.863 345.899" stroke="#231815" stroke-width="0.5" stroke-linecap="round" stroke-linejoin="round"/>
<path d="M103.856 64.031L103.843 64.1169" stroke="#231815" stroke-width="0.5" stroke-linecap="round" stroke-linejoin="round"/>
<path d="M103.803 64.5793L103.797 64.6454" stroke="#231815" stroke-width="0.5" stroke-linecap="round" stroke-linejoin="round"/>
<path d="M132.835 59.9868C132.835 59.9868 132.822 59.9207 132.802 59.8942C132.762 59.8414 132.703 59.8017 132.643 59.7753C132.564 59.7423 132.478 59.7224 132.392 59.7092" stroke="#231815" stroke-width="0.5" stroke-linecap="round" stroke-linejoin="round"/>
<path d="M132.286 356.035C132.286 356.035 132.319 356.088 132.332 356.115C132.385 356.214 132.418 356.326 132.445 356.438" stroke="#231815" stroke-width="0.5" stroke-linecap="round" stroke-linejoin="round"/>
<path d="M132.445 356.432C132.451 356.472 132.458 356.511 132.465 356.551C132.478 356.657 132.491 356.769 132.478 356.875" stroke="#231815" stroke-width="0.5" stroke-linecap="round" stroke-linejoin="round"/>
<path d="M132.478 356.875C132.478 356.875 132.478 356.901 132.471 356.914C132.465 356.947 132.458 356.98 132.438 357.007" stroke="#231815" stroke-width="0.5" stroke-linecap="round" stroke-linejoin="round"/>
<path d="M103.936 346.348C103.936 346.348 103.923 346.348 103.916 346.348" stroke="#231815" stroke-width="0.5" stroke-linecap="round" stroke-linejoin="round"/>
<path d="M132.835 349.857C132.835 349.857 132.822 349.923 132.802 349.949C132.762 350.002 132.703 350.042 132.643 350.068C132.564 350.101 132.478 350.121 132.392 350.134" stroke="#231815" stroke-width="0.5" stroke-linecap="round" stroke-linejoin="round"/>
<path d="M132.835 53.346C132.835 53.2336 132.795 53.1147 132.723 53.0288C132.65 52.9429 132.544 52.8702 132.432 52.8372" stroke="#231815" stroke-width="0.5" stroke-linecap="round" stroke-linejoin="round"/>
<path d="M132.835 53.3459C132.835 53.4054 132.822 53.4649 132.795 53.5177C132.769 53.5772 132.729 53.6235 132.676 53.6631C132.571 53.7556 132.425 53.8019 132.286 53.8019" stroke="#231815" stroke-width="0.5" stroke-linecap="round" stroke-linejoin="round"/>
<path d="M132.286 356.035C131.175 356.24 130.057 356.425 128.939 356.557C128.397 356.624 127.854 356.676 127.305 356.709C126.756 356.742 126.247 356.756 125.718 356.742" stroke="#231815" stroke-width="0.5" stroke-linecap="round" stroke-linejoin="round"/>
<path d="M132.835 356.498C132.835 356.438 132.822 356.379 132.795 356.326C132.769 356.267 132.729 356.22 132.676 356.181C132.571 356.088 132.425 356.042 132.286 356.042" stroke="#231815" stroke-width="0.5" stroke-linecap="round" stroke-linejoin="round"/>
<path d="M126.505 57.5882C126.141 57.4164 125.784 57.2314 125.433 57.0331C125.083 56.8349 124.739 56.6301 124.408 56.4054C124.077 56.1807 123.766 55.9428 123.475 55.6785C123.184 55.4142 122.94 55.1499 122.735 54.8327C122.642 54.6873 122.563 54.5353 122.503 54.3768C122.45 54.2314 122.41 54.0794 122.404 53.9208C122.397 53.782 122.41 53.6367 122.45 53.5045C122.49 53.3723 122.549 53.2534 122.629 53.1477C122.708 53.042 122.801 52.9428 122.907 52.8569C123.012 52.771 123.131 52.6917 123.251 52.6257C123.508 52.4869 123.786 52.3812 124.071 52.3085C124.375 52.2292 124.686 52.1697 124.99 52.1367C125.314 52.097 125.645 52.0772 125.976 52.0706C126.67 52.0508 127.365 52.0904 128.053 52.1499C128.78 52.216 129.501 52.3151 130.216 52.4274C130.93 52.5397 131.697 52.6851 132.432 52.8371" stroke="#231815" stroke-width="0.5" stroke-linecap="round" stroke-linejoin="round"/>
<path d="M132.835 356.498C132.835 356.61 132.795 356.729 132.723 356.815C132.65 356.901 132.544 356.974 132.432 357.007" stroke="#231815" stroke-width="0.5" stroke-linecap="round" stroke-linejoin="round"/>
<path d="M132.392 59.7159C131.386 59.4317 130.394 59.1212 129.409 58.771C128.423 58.4207 127.451 58.0375 126.505 57.5881" stroke="#231815" stroke-width="0.5" stroke-linecap="round" stroke-linejoin="round"/>
<path d="M127.279 351.958C128.106 351.588 128.952 351.258 129.812 350.961C130.672 350.663 131.532 350.386 132.399 350.128" stroke="#231815" stroke-width="0.5" stroke-linecap="round" stroke-linejoin="round"/>
<path d="M132.432 357.007C131.697 357.159 130.963 357.297 130.222 357.416C129.481 357.535 128.787 357.628 128.066 357.694C127.345 357.76 126.69 357.793 125.995 357.773C125.671 357.766 125.341 357.74 125.017 357.7C124.692 357.661 124.401 357.608 124.104 357.522C123.826 357.443 123.548 357.344 123.297 357.198C123.178 357.132 123.065 357.053 122.959 356.967C122.854 356.881 122.768 356.782 122.695 356.67C122.622 356.557 122.563 356.438 122.529 356.306C122.496 356.167 122.483 356.029 122.503 355.883C122.516 355.725 122.563 355.573 122.622 355.427C122.688 355.269 122.774 355.117 122.867 354.971C123.078 354.661 123.336 354.383 123.614 354.132C123.905 353.868 124.223 353.63 124.547 353.412C124.871 353.194 125.222 352.982 125.566 352.784C125.91 352.586 126.273 352.407 126.637 352.229" stroke="#231815" stroke-width="0.5" stroke-linecap="round" stroke-linejoin="round"/>
<path d="M125.685 53.1015C126.214 53.0883 126.75 53.1015 127.279 53.1345C127.808 53.1676 128.377 53.2204 128.919 53.2865C130.044 53.4187 131.168 53.6037 132.279 53.8085" stroke="#231815" stroke-width="0.5" stroke-linecap="round" stroke-linejoin="round"/>
<path d="M125.711 356.742L125.195 356.716" stroke="#231815" stroke-width="0.5" stroke-linecap="round" stroke-linejoin="round"/>
<path d="M125.195 356.716L124.448 356.624" stroke="#231815" stroke-width="0.5" stroke-linecap="round" stroke-linejoin="round"/>
<path d="M124.448 356.623L123.806 356.458" stroke="#231815" stroke-width="0.5" stroke-linecap="round" stroke-linejoin="round"/>
<path d="M123.806 356.458L123.317 356.233" stroke="#231815" stroke-width="0.5" stroke-linecap="round" stroke-linejoin="round"/>
<path d="M123.317 356.234L123.019 355.969" stroke="#231815" stroke-width="0.5" stroke-linecap="round" stroke-linejoin="round"/>
<path d="M123.019 355.969L122.92 355.698" stroke="#231815" stroke-width="0.5" stroke-linecap="round" stroke-linejoin="round"/>
<path d="M122.92 355.698L122.986 355.335" stroke="#231815" stroke-width="0.5" stroke-linecap="round" stroke-linejoin="round"/>
<path d="M122.986 355.335L123.257 354.872" stroke="#231815" stroke-width="0.5" stroke-linecap="round" stroke-linejoin="round"/>
<path d="M123.257 354.872L123.72 354.37" stroke="#231815" stroke-width="0.5" stroke-linecap="round" stroke-linejoin="round"/>
<path d="M123.72 354.37L124.315 353.881" stroke="#231815" stroke-width="0.5" stroke-linecap="round" stroke-linejoin="round"/>
<path d="M124.315 353.881L124.997 353.418" stroke="#231815" stroke-width="0.5" stroke-linecap="round" stroke-linejoin="round"/>
<path d="M124.997 353.419L125.744 352.982" stroke="#231815" stroke-width="0.5" stroke-linecap="round" stroke-linejoin="round"/>
<path d="M109.71 46.2227L108.751 47.9605" stroke="#231815" stroke-width="0.5" stroke-linecap="round" stroke-linejoin="round"/>
<path d="M108.751 47.9604L107.587 50.3327" stroke="#231815" stroke-width="0.5" stroke-linecap="round" stroke-linejoin="round"/>
<path d="M107.587 50.3328L106.377 53.2667" stroke="#231815" stroke-width="0.5" stroke-linecap="round" stroke-linejoin="round"/>
<path d="M107.885 360.152L109.089 362.518" stroke="#231815" stroke-width="0.5" stroke-linecap="round" stroke-linejoin="round"/>
<path d="M109.089 362.518L110.564 365.068" stroke="#231815" stroke-width="0.5" stroke-linecap="round" stroke-linejoin="round"/>
<path d="M105.378 353.544L106.582 357.112" stroke="#231815" stroke-width="0.5" stroke-linecap="round" stroke-linejoin="round"/>
<path d="M106.582 357.112L107.885 360.152" stroke="#231815" stroke-width="0.5" stroke-linecap="round" stroke-linejoin="round"/>
<path d="M125.744 352.982L126.531 352.579" stroke="#231815" stroke-width="0.5" stroke-linecap="round" stroke-linejoin="round"/>
<path d="M126.531 352.579L126.756 352.467" stroke="#231815" stroke-width="0.5" stroke-linecap="round" stroke-linejoin="round"/>
<path d="M126.756 352.467L128.172 351.846" stroke="#231815" stroke-width="0.5" stroke-linecap="round" stroke-linejoin="round"/>
<path d="M128.172 351.846L130.474 351.007" stroke="#231815" stroke-width="0.5" stroke-linecap="round" stroke-linejoin="round"/>
<path d="M130.474 351.007L132.425 350.399" stroke="#231815" stroke-width="0.5" stroke-linecap="round" stroke-linejoin="round"/>
<path d="M126.22 57.1851L125.248 56.6631" stroke="#231815" stroke-width="0.5" stroke-linecap="round" stroke-linejoin="round"/>
<path d="M125.248 56.663L124.375 56.1079" stroke="#231815" stroke-width="0.5" stroke-linecap="round" stroke-linejoin="round"/>
<path d="M124.375 56.1079L123.641 55.5198" stroke="#231815" stroke-width="0.5" stroke-linecap="round" stroke-linejoin="round"/>
<path d="M123.641 55.52L123.105 54.9253" stroke="#231815" stroke-width="0.5" stroke-linecap="round" stroke-linejoin="round"/>
<path d="M123.105 54.9252L122.84 54.3701" stroke="#231815" stroke-width="0.5" stroke-linecap="round" stroke-linejoin="round"/>
<path d="M122.84 54.3701L122.88 53.9736" stroke="#231815" stroke-width="0.5" stroke-linecap="round" stroke-linejoin="round"/>
<path d="M122.88 53.9738L123.231 53.6235" stroke="#231815" stroke-width="0.5" stroke-linecap="round" stroke-linejoin="round"/>
<path d="M123.231 53.6235L123.938 53.3262" stroke="#231815" stroke-width="0.5" stroke-linecap="round" stroke-linejoin="round"/>
<path d="M123.938 53.3261L124.97 53.1477" stroke="#231815" stroke-width="0.5" stroke-linecap="round" stroke-linejoin="round"/>
<path d="M124.97 53.1476L125.685 53.1013" stroke="#231815" stroke-width="0.5" stroke-linecap="round" stroke-linejoin="round"/>
<path d="M132.425 59.445L130.474 58.8569" stroke="#231815" stroke-width="0.5" stroke-linecap="round" stroke-linejoin="round"/>
<path d="M130.474 58.857L128.125 58.0244" stroke="#231815" stroke-width="0.5" stroke-linecap="round" stroke-linejoin="round"/>
<path d="M128.125 58.0243L126.617 57.3701" stroke="#231815" stroke-width="0.5" stroke-linecap="round" stroke-linejoin="round"/>
<path d="M114.083 364.692L110.517 365.075" stroke="#231815" stroke-linecap="round" stroke-linejoin="round"/>
<path d="M109.479 343.963L109.472 343.877" stroke="#231815" stroke-width="0.5" stroke-linecap="round" stroke-linejoin="round"/>
<path d="M106.205 324.8V85.0442" stroke="#231815" stroke-width="0.5" stroke-linecap="round" stroke-linejoin="round"/>
<path d="M108.791 324.8V324.681" stroke="#231815" stroke-width="0.5" stroke-linecap="round" stroke-linejoin="round"/>
<path d="M108.791 324.681V85.0376" stroke="#231815" stroke-width="0.5" stroke-linecap="round" stroke-linejoin="round"/>
<ellipse cx="114.995" cy="46.0971" rx="0.165366" ry="0.165198" fill="#231815"/>
<ellipse cx="114.995" cy="363.747" rx="0.165366" ry="0.165198" fill="#231815"/>
<path d="M115.055 46.4141L114.995 46.0969" stroke="#231815" stroke-linecap="round" stroke-linejoin="round"/>
<path d="M116.074 362.412C115.472 362.584 115.035 363.119 114.995 363.747" stroke="#231815" stroke-width="0.5" stroke-linecap="round" stroke-linejoin="round"/>
<path d="M116.074 362.412C115.472 362.584 115.042 363.119 114.995 363.747" stroke="#231815" stroke-linecap="round" stroke-linejoin="round"/>
<path d="M114.083 364.692C114.579 364.639 114.962 364.242 114.995 363.747" stroke="#231815" stroke-linecap="round" stroke-linejoin="round"/>
<path d="M111.854 354.615C112.396 356.009 113.024 357.364 113.739 358.679" stroke="#231815" stroke-width="0.5" stroke-linecap="round" stroke-linejoin="round"/>
<path d="M111.721 354.258C111.767 354.377 111.814 354.496 111.86 354.608" stroke="#231815" stroke-width="0.5" stroke-linecap="round" stroke-linejoin="round"/>
<path d="M110.987 352.117C111.212 352.837 111.457 353.551 111.721 354.258" stroke="#231815" stroke-width="0.5" stroke-linecap="round" stroke-linejoin="round"/>
<path d="M109.704 346.176C109.962 348.192 110.392 350.174 110.987 352.117" stroke="#231815" stroke-width="0.5" stroke-linecap="round" stroke-linejoin="round"/>
<path d="M106.906 344.148C106.959 344.881 107.031 345.615 107.124 346.342" stroke="#231815" stroke-width="0.5" stroke-linecap="round" stroke-linejoin="round"/>
<path d="M107.124 346.342C107.719 351.099 109.135 355.712 111.298 359.994" stroke="#231815" stroke-width="0.5" stroke-linecap="round" stroke-linejoin="round"/>
<path d="M109.479 343.963C109.532 344.65 109.598 345.337 109.684 346.018" stroke="#231815" stroke-width="0.5" stroke-linecap="round" stroke-linejoin="round"/>
<path d="M106.205 324.8C106.205 331.256 106.436 337.705 106.906 344.148" stroke="#231815" stroke-width="0.5" stroke-linecap="round" stroke-linejoin="round"/>
<path d="M108.791 324.8C108.791 331.163 109.022 337.526 109.472 343.877" stroke="#231815" stroke-width="0.5" stroke-linecap="round" stroke-linejoin="round"/>
<path d="M109.671 63.8394C109.591 64.5134 109.525 65.194 109.472 65.868" stroke="#231815" stroke-width="0.5" stroke-linecap="round" stroke-linejoin="round"/>
<path d="M110.458 51.6145C110.312 51.9383 110.173 52.2555 110.034 52.5859" stroke="#231815" stroke-width="0.5" stroke-linecap="round" stroke-linejoin="round"/>
<path d="M111.298 49.8569C111.007 50.4384 110.722 51.0265 110.458 51.6213" stroke="#231815" stroke-width="0.5" stroke-linecap="round" stroke-linejoin="round"/>
<path d="M107.124 63.5022C107.031 64.2291 106.959 64.9625 106.906 65.696" stroke="#231815" stroke-width="0.5" stroke-linecap="round" stroke-linejoin="round"/>
<path d="M109.631 53.5903C108.394 56.782 107.547 60.1058 107.124 63.5022" stroke="#231815" stroke-width="0.5" stroke-linecap="round" stroke-linejoin="round"/>
<path d="M110.041 52.5859C109.902 52.9163 109.763 53.2533 109.638 53.5903" stroke="#231815" stroke-width="0.5" stroke-linecap="round" stroke-linejoin="round"/>
<path d="M115.055 46.4141C115.081 46.5066 115.114 46.5925 115.161 46.6784" stroke="#231815" stroke-linecap="round" stroke-linejoin="round"/>
<path d="M115.161 46.6785C115.353 47.0419 115.683 47.3128 116.074 47.4318" stroke="#231815" stroke-linecap="round" stroke-linejoin="round"/>
<path d="M114.995 46.097C114.962 45.6014 114.579 45.205 114.083 45.1521" stroke="#231815" stroke-linecap="round" stroke-linejoin="round"/>
<path d="M111.457 49.5464C111.43 49.5926 111.41 49.6389 111.384 49.6918" stroke="#231815" stroke-width="0.5" stroke-linecap="round" stroke-linejoin="round"/>
<path d="M111.384 49.6851C111.357 49.7379 111.324 49.7974 111.298 49.8503" stroke="#231815" stroke-width="0.5" stroke-linecap="round" stroke-linejoin="round"/>
<path d="M112.012 54.8193C111.893 55.1101 111.781 55.4074 111.668 55.6982" stroke="#231815" stroke-width="0.5" stroke-linecap="round" stroke-linejoin="round"/>
<path d="M113.653 51.3171C113.044 52.4537 112.495 53.6233 112.012 54.8193" stroke="#231815" stroke-width="0.5" stroke-linecap="round" stroke-linejoin="round"/>
<path d="M111.668 55.6982C111.523 56.0881 111.384 56.4846 111.252 56.8745" stroke="#231815" stroke-width="0.5" stroke-linecap="round" stroke-linejoin="round"/>
<path d="M110.98 57.7271C110.577 59.042 110.246 60.3834 109.995 61.7381" stroke="#231815" stroke-width="0.5" stroke-linecap="round" stroke-linejoin="round"/>
<path d="M111.252 56.8811C111.159 57.1652 111.066 57.4428 110.98 57.7269" stroke="#231815" stroke-width="0.5" stroke-linecap="round" stroke-linejoin="round"/>
<path d="M109.836 62.6895C109.79 62.9868 109.75 63.2776 109.71 63.5749" stroke="#231815" stroke-width="0.5" stroke-linecap="round" stroke-linejoin="round"/>
<path d="M109.995 61.7314C109.935 62.0486 109.882 62.3658 109.829 62.683" stroke="#231815" stroke-width="0.5" stroke-linecap="round" stroke-linejoin="round"/>
<path d="M106.906 65.696C106.443 72.1322 106.205 78.5881 106.205 85.0441" stroke="#231815" stroke-width="0.5" stroke-linecap="round" stroke-linejoin="round"/>
<path d="M109.479 65.8679C109.022 72.2446 108.791 78.641 108.791 85.0375" stroke="#231815" stroke-width="0.5" stroke-linecap="round" stroke-linejoin="round"/>
<path d="M111.457 49.5464C111.622 49.2226 111.801 48.8988 111.972 48.575C112.131 48.2842 112.297 47.9935 112.462 47.7094C112.607 47.4583 112.76 47.2072 112.912 46.956C113.044 46.7446 113.17 46.5331 113.309 46.3217C113.368 46.2292 113.421 46.1433 113.481 46.0574C113.534 45.9781 113.58 45.8988 113.633 45.8195C113.679 45.7534 113.719 45.6873 113.765 45.6146C113.805 45.5618 113.838 45.5023 113.878 45.4494C113.904 45.4032 113.937 45.3635 113.963 45.3173C113.977 45.2975 113.99 45.2842 113.997 45.2644C114.003 45.2512 114.016 45.238 114.023 45.2248C114.03 45.2116 114.036 45.2049 114.043 45.1917C114.043 45.1851 114.056 45.1719 114.056 45.1719C114.056 45.1719 114.063 45.1653 114.063 45.1587" stroke="#231815" stroke-width="0.5" stroke-linecap="round" stroke-linejoin="round"/>
<path d="M113.653 51.3173C113.805 51.0332 113.964 50.7424 114.129 50.4649C114.274 50.2072 114.427 49.9561 114.579 49.705C114.711 49.4803 114.85 49.2623 114.989 49.0442C115.108 48.8592 115.227 48.6742 115.346 48.4891C115.445 48.3372 115.544 48.1918 115.644 48.0464C115.716 47.9341 115.796 47.8283 115.869 47.716C115.895 47.6764 115.922 47.6367 115.955 47.5971C115.974 47.5706 115.994 47.5376 116.014 47.5112C116.027 47.4913 116.041 47.4781 116.054 47.4583C116.054 47.4517 116.067 47.4451 116.074 47.4385" stroke="#231815" stroke-width="0.5" stroke-linecap="round" stroke-linejoin="round"/>
<ellipse cx="116.074" cy="47.4318" rx="0.165366" ry="0.165198" fill="#231815"/>
<path d="M109.671 63.8393L109.704 63.575" stroke="#231815" stroke-width="0.5" stroke-linecap="round" stroke-linejoin="round"/>
<path d="M109.704 346.176L109.684 346.018" stroke="#231815" stroke-width="0.5" stroke-linecap="round" stroke-linejoin="round"/>
<ellipse cx="116.074" cy="362.412" rx="0.165366" ry="0.165198" fill="#231815"/>
<path d="M116.074 362.412C116.074 362.412 116.06 362.399 116.054 362.392C116.041 362.372 116.027 362.359 116.014 362.339C115.994 362.313 115.974 362.286 115.955 362.26C115.928 362.22 115.902 362.187 115.875 362.148C115.802 362.042 115.73 361.936 115.657 361.83C115.558 361.692 115.465 361.546 115.372 361.408C115.253 361.229 115.141 361.051 115.028 360.872C114.896 360.661 114.764 360.449 114.632 360.238C114.321 359.729 114.023 359.207 113.739 358.685" stroke="#231815" stroke-width="0.5" stroke-linecap="round" stroke-linejoin="round"/>
<path d="M114.083 364.692C114.083 364.685 114.083 364.678 114.069 364.678C114.069 364.672 114.056 364.665 114.05 364.652C114.043 364.639 114.036 364.626 114.023 364.619C114.01 364.606 114.003 364.586 113.99 364.573C113.977 364.553 113.964 364.533 113.95 364.52C113.917 364.474 113.884 364.427 113.858 364.381C113.818 364.322 113.778 364.262 113.739 364.203C113.692 364.13 113.646 364.057 113.593 363.985C113.54 363.899 113.481 363.819 113.428 363.733C113.368 363.641 113.302 363.542 113.243 363.449C113.104 363.225 112.958 363 112.826 362.775C112.667 362.511 112.508 362.24 112.35 361.969C112.171 361.665 111.999 361.355 111.834 361.044C111.648 360.7 111.463 360.357 111.291 360.007" stroke="#231815" stroke-width="0.5" stroke-linecap="round" stroke-linejoin="round"/>
<path d="M193.418 399.198H191.547" stroke="#231815" stroke-linecap="round" stroke-linejoin="round"/>
<path d="M193.418 397.328H191.547" stroke="#231815" stroke-linecap="round" stroke-linejoin="round"/>
<path d="M191.547 399.198V397.328" stroke="#231815" stroke-linecap="round" stroke-linejoin="round"/>
<path d="M208.89 399.198H193.418" stroke="#231815" stroke-linecap="round" stroke-linejoin="round"/>
<path d="M208.89 397.328H193.418" stroke="#231815" stroke-linecap="round" stroke-linejoin="round"/>
<path d="M206.582 372.978H209.168" stroke="#231815" stroke-linecap="round" stroke-linejoin="round"/>
<path d="M206.641 361.176H209.168" stroke="#231815" stroke-linecap="round" stroke-linejoin="round"/>
<path d="M203.545 356.491H204.743" stroke="#231815" stroke-linecap="round" stroke-linejoin="round"/>
<path d="M208.46 342.443H209.168" stroke="#231815" stroke-linecap="round" stroke-linejoin="round"/>
<path d="M203.433 370.989L204.597 372.152" stroke="#231815" stroke-linecap="round" stroke-linejoin="round"/>
<path d="M203.433 338.584L206.469 341.623" stroke="#231815" stroke-linecap="round" stroke-linejoin="round"/>
<path d="M202.606 103.249V111.112" stroke="#231815" stroke-linecap="round" stroke-linejoin="round"/>
<path d="M202.606 369.007V357.429" stroke="#231815" stroke-linecap="round" stroke-linejoin="round"/>
<path d="M202.606 336.601V127.037" stroke="#231815" stroke-linecap="round" stroke-linejoin="round"/>
<path d="M202.606 93.8854V92.0088" stroke="#231815" stroke-linecap="round" stroke-linejoin="round"/>
<path d="M205.98 347.062V354.885" stroke="#231815" stroke-linecap="round" stroke-linejoin="round"/>
<path d="M206.641 361.176V359.987" stroke="#231815" stroke-linecap="round" stroke-linejoin="round"/>
<path d="M207.296 180.423V144.833" stroke="#231815" stroke-linecap="round" stroke-linejoin="round"/>
<path d="M207.858 354.885V347.062" stroke="#231815" stroke-linecap="round" stroke-linejoin="round"/>
<path d="M208.89 181.355V143.894" stroke="#231815" stroke-linecap="round" stroke-linejoin="round"/>
<path d="M209.168 397.044V372.978" stroke="#231815" stroke-linecap="round" stroke-linejoin="round"/>
<path d="M209.168 361.176V345.965" stroke="#231815" stroke-linecap="round" stroke-linejoin="round"/>
<path d="M209.168 130.784V112.051" stroke="#231815" stroke-linecap="round" stroke-linejoin="round"/>
<path d="M209.168 102.311V94.1631" stroke="#231815" stroke-linecap="round" stroke-linejoin="round"/>
<path d="M211.047 397.044V94.1631" stroke="#231815" stroke-linecap="round" stroke-linejoin="round"/>
<path d="M206.357 130.784L205.669 126.872" stroke="#231815" stroke-linecap="round" stroke-linejoin="round"/>
<path d="M206.992 358.401L207.157 358.051" stroke="#231815" stroke-linecap="round" stroke-linejoin="round"/>
<path d="M208.89 181.354H208.235" stroke="#231815" stroke-linecap="round" stroke-linejoin="round"/>
<path d="M208.632 343.969L206.654 345.628" stroke="#231815" stroke-linecap="round" stroke-linejoin="round"/>
<path d="M207.858 347.062L209.168 345.965" stroke="#231815" stroke-linecap="round" stroke-linejoin="round"/>
<path d="M208.89 143.894H208.235" stroke="#231815" stroke-linecap="round" stroke-linejoin="round"/>
<path d="M206.357 130.784H209.168" stroke="#231815" stroke-linecap="round" stroke-linejoin="round"/>
<path d="M203.545 126.099H204.743" stroke="#231815" stroke-linecap="round" stroke-linejoin="round"/>
<path d="M203.545 112.051H209.168" stroke="#231815" stroke-linecap="round" stroke-linejoin="round"/>
<path d="M203.545 102.311H209.168" stroke="#231815" stroke-linecap="round" stroke-linejoin="round"/>
<path d="M208.89 93.8855H202.606" stroke="#231815" stroke-linecap="round" stroke-linejoin="round"/>
<path d="M202.606 92.0088H208.89" stroke="#231815" stroke-linecap="round" stroke-linejoin="round"/>
<path d="M207.157 358.051C207.62 357.059 207.858 355.976 207.858 354.885" stroke="#231815" stroke-linecap="round" stroke-linejoin="round"/>
<path d="M205.57 356.993C205.841 356.326 205.98 355.612 205.98 354.885" stroke="#231815" stroke-linecap="round" stroke-linejoin="round"/>
<path d="M206.992 358.401C206.76 358.896 206.641 359.438 206.641 359.987" stroke="#231815" stroke-linecap="round" stroke-linejoin="round"/>
<path d="M204.597 372.152C205.126 372.68 205.841 372.978 206.588 372.978" stroke="#231815" stroke-linecap="round" stroke-linejoin="round"/>
<path d="M202.606 369.007C202.606 369.753 202.904 370.467 203.433 370.996" stroke="#231815" stroke-linecap="round" stroke-linejoin="round"/>
<path d="M206.469 341.623C206.998 342.152 207.713 342.449 208.46 342.449" stroke="#231815" stroke-linecap="round" stroke-linejoin="round"/>
<path d="M202.606 336.601C202.606 337.348 202.904 338.062 203.433 338.59" stroke="#231815" stroke-linecap="round" stroke-linejoin="round"/>
<path d="M208.89 399.198C210.081 399.198 211.047 398.233 211.047 397.044" stroke="#231815" stroke-linecap="round" stroke-linejoin="round"/>
<path d="M211.047 94.163C211.047 92.9735 210.081 92.0088 208.89 92.0088" stroke="#231815" stroke-linecap="round" stroke-linejoin="round"/>
<path d="M206.654 345.628C206.231 345.985 205.986 346.507 205.986 347.062" stroke="#231815" stroke-linecap="round" stroke-linejoin="round"/>
<path d="M208.632 343.969C208.969 343.685 209.168 343.262 209.168 342.819V342.443" stroke="#231815" stroke-linecap="round" stroke-linejoin="round"/>
<path d="M203.545 102.311C203.03 102.311 202.606 102.727 202.606 103.249" stroke="#231815" stroke-linecap="round" stroke-linejoin="round"/>
<path d="M202.606 111.112C202.606 111.628 203.023 112.051 203.545 112.051" stroke="#231815" stroke-linecap="round" stroke-linejoin="round"/>
<path d="M203.545 356.491C203.03 356.491 202.606 356.907 202.606 357.43" stroke="#231815" stroke-linecap="round" stroke-linejoin="round"/>
<path d="M205.57 356.993C205.411 356.696 205.093 356.498 204.743 356.498" stroke="#231815" stroke-linecap="round" stroke-linejoin="round"/>
<path d="M203.545 126.099C203.03 126.099 202.606 126.515 202.606 127.037" stroke="#231815" stroke-linecap="round" stroke-linejoin="round"/>
<path d="M205.669 126.872C205.589 126.423 205.199 126.099 204.743 126.099" stroke="#231815" stroke-linecap="round" stroke-linejoin="round"/>
<path d="M207.296 180.423C207.296 180.938 207.713 181.361 208.235 181.361" stroke="#231815" stroke-linecap="round" stroke-linejoin="round"/>
<path d="M208.235 143.894C207.719 143.894 207.296 144.311 207.296 144.833" stroke="#231815" stroke-linecap="round" stroke-linejoin="round"/>
<path d="M208.89 397.328C209.042 397.328 209.175 397.203 209.175 397.044" stroke="#231815" stroke-linecap="round" stroke-linejoin="round"/>
<path d="M209.168 94.163C209.168 94.0111 209.042 93.8789 208.883 93.8789" stroke="#231815" stroke-linecap="round" stroke-linejoin="round"/>
</g>
<defs>
<clipPath id="clip0_59_9590">
<rect width="300" height="447" fill="white"/>
</clipPath>
</defs>
</svg>
