<?xml version="1.0" encoding="UTF-8"?>
<svg id="_레이어_1" data-name="레이어_1" xmlns="http://www.w3.org/2000/svg" version="1.1" viewBox="0 0 240 240">
  <!-- Generator: Adobe Illustrator 29.6.1, SVG Export Plug-In . SVG Version: 2.1.1 Build 9)  -->
  <defs>
    <style>
      .st0 {
        stroke-dasharray: 1.37 1.37 0 0;
      }

      .st0, .st1, .st2, .st3, .st4 {
        stroke: #231815;
        stroke-width: .23px;
      }

      .st0, .st1, .st2, .st3, .st4, .st5 {
        stroke-linecap: round;
        stroke-linejoin: round;
      }

      .st0, .st1, .st3, .st4, .st5 {
        fill: none;
      }

      .st1 {
        stroke-dasharray: 2.27 2.73 2.27 2.73;
      }

      .st6 {
        fill: #fff;
      }

      .st2, .st7 {
        fill: #231815;
      }

      .st3 {
        stroke-dasharray: .91 .91 0 0;
      }

      .st5 {
        stroke: #fff;
        stroke-width: .91px;
      }
    </style>
  </defs>
  <rect class="st6" width="240" height="240"/>
  <g>
    <g>
      <g>
        <line class="st0" x1="89.66" y1="70.87" x2="171.48" y2="203.35"/>
        <polygon class="st7" points="169.9 203.2 171.25 202.99 172.05 201.87 172.55 205.08 169.9 203.2"/>
      </g>
      <g>
        <path class="st7" d="M76.79,53.07l-.21-.33,1.93-1.19c.11-.07.2-.12.27-.16.07-.04.14-.08.22-.12-.07-.02-.13-.03-.18-.05-.05-.02-.11-.04-.19-.06l-.42-.15.12-.32,1.04.39.17.28-2.77,1.71Z"/>
        <path class="st7" d="M79.67,53.93c.17.28.24.55.2.81-.04.26-.19.46-.44.62-.29.18-.57.23-.84.14-.28-.08-.52-.28-.72-.61-.09-.14-.16-.29-.21-.43s-.08-.27-.08-.38l.32-.2c0,.13.03.27.08.42s.11.29.19.41c.13.2.28.34.45.4.17.07.36.04.57-.09.18-.11.29-.25.31-.42s-.03-.38-.18-.62c-.04-.07-.1-.15-.17-.24-.07-.08-.13-.15-.18-.2v-.24s1.37-.7,1.37-.7l.86,1.39-.31.19-.68-1.1-.84.43s.08.09.14.16c.06.07.11.15.17.24Z"/>
        <path class="st7" d="M81.03,56.15c.17.28.24.55.2.81-.04.26-.19.46-.44.62-.29.18-.57.23-.84.14-.28-.08-.52-.28-.72-.61-.09-.14-.16-.29-.21-.43s-.08-.27-.08-.38l.32-.2c0,.13.03.27.08.42s.11.29.19.41c.13.2.28.34.45.4.17.07.36.04.57-.09.18-.11.29-.25.31-.42s-.03-.38-.18-.62c-.04-.07-.1-.15-.17-.24-.07-.08-.13-.15-.18-.2v-.24s1.37-.7,1.37-.7l.86,1.39-.31.19-.68-1.1-.84.43s.08.09.14.16c.06.07.11.15.17.24Z"/>
        <path class="st7" d="M80.43,58.49c.1-.06.18-.08.24-.05s.12.07.16.13.06.13.05.21c0,.07-.06.14-.16.2s-.18.07-.25.05c-.07-.02-.13-.07-.17-.13s-.05-.13-.04-.2.07-.14.16-.19Z"/>
        <path class="st7" d="M83.04,59.4c.17.28.24.55.2.81s-.19.47-.44.62c-.29.18-.57.22-.84.14-.28-.08-.52-.28-.72-.61-.09-.14-.16-.29-.21-.43-.05-.14-.08-.27-.08-.38l.32-.2c0,.13.03.27.08.42s.11.29.19.41c.13.2.28.34.45.4s.36.04.57-.09c.18-.11.29-.25.31-.42.03-.17-.03-.38-.18-.62-.04-.07-.1-.15-.17-.24-.07-.09-.13-.15-.18-.2v-.24s1.37-.7,1.37-.7l.86,1.39-.31.19-.68-1.1-.84.43s.08.09.14.16c.06.07.11.15.17.24Z"/>
        <path class="st7" d="M86.4,63.9c.15.23.19.45.14.64-.05.19-.21.37-.47.53l-1.35.83-.21-.34,1.34-.83c.33-.2.4-.44.23-.73-.12-.2-.27-.31-.44-.32s-.37.05-.59.18l-1.15.71-.21-.34,1.34-.83c.33-.2.4-.45.23-.73-.13-.21-.28-.31-.46-.31-.18,0-.39.07-.63.22l-1.08.66-.21-.34,2.08-1.28.17.27-.25.23v.02c.16,0,.29.03.42.11s.22.18.3.3c.2.33.22.61.04.85v.02c.17,0,.32.04.45.12.13.08.24.19.32.33Z"/>
        <path class="st7" d="M88.64,67.53c.15.23.19.45.14.64-.05.19-.21.37-.47.53l-1.35.83-.21-.34,1.34-.83c.33-.2.4-.44.23-.73-.12-.2-.27-.31-.44-.32s-.37.05-.59.18l-1.15.71-.21-.34,1.34-.83c.33-.2.4-.45.23-.73-.13-.21-.28-.31-.46-.31-.18,0-.39.07-.63.22l-1.08.66-.21-.34,2.08-1.28.17.27-.25.23v.02c.16,0,.29.03.42.11s.22.18.3.3c.2.33.22.61.04.85v.02c.17,0,.32.04.45.12.13.08.24.19.32.33Z"/>
      </g>
      <g>
        <line class="st0" x1="68.52" y1="36.65" x2="76.83" y2="50.11"/>
        <polygon class="st7" points="67.95 38.13 68.75 37.01 70.1 36.8 67.45 34.92 67.95 38.13"/>
      </g>
      <g>
        <line class="st5" x1="102.19" y1="91.16" x2="111.92" y2="107"/>
        <line class="st5" x1="117.92" y1="116.71" x2="122.3" y2="123.8"/>
        <line class="st5" x1="128.04" y1="132.94" x2="137.87" y2="148.86"/>
      </g>
    </g>
    <circle class="st1" cx="120" cy="120" r="100"/>
    <g>
      <path class="st7" d="M116.65,52.17h-.59v-3.37h-1.16v-.5h2.91v.5h-1.16v3.37Z"/>
      <path class="st7" d="M121.72,50.23c0,.4-.07.75-.2,1.05-.13.3-.33.53-.6.7-.27.17-.6.25-1,.25s-.75-.08-1.02-.25c-.27-.17-.47-.4-.6-.7-.13-.3-.2-.65-.2-1.05s.07-.75.2-1.05c.13-.3.33-.53.6-.7.27-.16.61-.25,1.02-.25s.73.08,1,.25c.27.16.47.4.6.7.13.3.2.65.2,1.05ZM118.72,50.23c0,.46.1.83.29,1.1.19.27.49.4.9.4s.71-.13.9-.4c.19-.27.28-.63.28-1.1s-.09-.83-.28-1.09-.49-.4-.9-.4-.72.13-.91.4c-.19.26-.29.63-.29,1.09Z"/>
      <path class="st7" d="M123.65,48.29c.51,0,.88.1,1.11.31.23.2.35.49.35.86,0,.22-.05.42-.14.61-.1.19-.26.34-.48.46-.22.12-.53.18-.91.18h-.42v1.47h-.59v-3.88h1.09ZM123.6,48.79h-.46v1.42h.35c.33,0,.58-.06.75-.17s.25-.3.25-.56c0-.23-.07-.4-.22-.52s-.37-.17-.68-.17Z"/>
    </g>
    <g>
      <path class="st7" d="M103.61,186.98c-.38,0-.69.13-.91.4-.22.27-.33.63-.33,1.1s.1.82.3,1.09c.2.26.51.4.92.4.17,0,.33-.02.48-.05.15-.03.31-.07.47-.12v.51c-.15.06-.31.1-.47.13-.16.03-.34.04-.55.04-.4,0-.73-.08-.99-.25-.26-.16-.46-.4-.59-.7-.13-.3-.19-.65-.19-1.05s.07-.74.21-1.04.35-.53.63-.7c.28-.17.61-.26,1.01-.26.2,0,.39.02.57.06.19.04.36.1.51.18l-.22.49c-.13-.06-.26-.11-.41-.15s-.3-.07-.47-.07Z"/>
      <path class="st7" d="M107.81,190.41l-.41-1.12h-1.5l-.41,1.12h-.61l1.47-3.9h.61l1.47,3.9h-.61ZM107.24,188.78l-.39-1.09s-.03-.1-.06-.18c-.03-.08-.05-.16-.08-.25-.03-.09-.05-.16-.06-.21-.03.11-.06.23-.1.36-.04.13-.06.22-.09.28l-.39,1.09h1.16Z"/>
      <path class="st7" d="M110.64,190.41l-1.17-3.3h-.02c0,.08.01.18.02.3,0,.12,0,.25.01.4,0,.14,0,.28,0,.42v2.19h-.53v-3.88h.84l1.12,3.12h.02l1.15-3.12h.84v3.88h-.57v-2.22c0-.13,0-.26,0-.39s.01-.26.02-.38c0-.12,0-.22.01-.3h-.02l-1.21,3.3h-.51Z"/>
      <path class="st7" d="M116.13,190.41h-2.19v-3.88h2.19v.5h-1.6v1.11h1.5v.49h-1.5v1.27h1.6v.51Z"/>
      <path class="st7" d="M118.06,186.53c.5,0,.86.09,1.1.28s.36.47.36.84c0,.2-.04.37-.11.5-.07.14-.17.25-.29.33s-.24.15-.37.2l1.09,1.72h-.67l-.94-1.57h-.67v1.57h-.59v-3.88h1.09ZM118.02,187.03h-.46v1.32h.49c.3,0,.52-.06.66-.17.14-.11.21-.28.21-.51s-.07-.4-.22-.5c-.15-.1-.37-.15-.67-.15Z"/>
      <path class="st7" d="M122.84,190.41l-.41-1.12h-1.5l-.41,1.12h-.61l1.47-3.9h.61l1.47,3.9h-.61ZM122.26,188.78l-.39-1.09s-.03-.1-.06-.18c-.03-.08-.05-.16-.08-.25-.03-.09-.05-.16-.06-.21-.03.11-.06.23-.1.36-.04.13-.06.22-.09.28l-.39,1.09h1.16Z"/>
      <path class="st7" d="M128.22,186.53l-1.37,3.88h-.61l-1.37-3.88h.6l.83,2.44c.05.13.09.27.14.43s.08.3.1.42c.02-.13.05-.27.1-.42s.09-.3.14-.44l.83-2.43h.61Z"/>
      <path class="st7" d="M129.93,190.41h-1.51v-.34l.46-.14v-2.93l-.46-.14v-.34h1.51v.34l-.46.14v2.93l.46.14v.34Z"/>
      <path class="st7" d="M132.85,190.41h-2.19v-3.88h2.19v.5h-1.6v1.11h1.5v.49h-1.5v1.27h1.6v.51Z"/>
      <path class="st7" d="M138.24,186.53l-1.02,3.88h-.63l-.69-2.4c-.03-.09-.05-.18-.08-.29-.03-.11-.05-.21-.07-.31-.02-.1-.04-.16-.04-.2,0,.04-.01.11-.03.2-.02.09-.04.2-.07.31s-.05.22-.08.31l-.67,2.38h-.63l-1.02-3.88h.6l.57,2.3c.04.16.07.32.11.5.03.17.06.32.08.46.02-.14.05-.3.08-.47.04-.18.08-.34.12-.48l.65-2.3h.59l.67,2.31c.04.14.08.31.12.48.04.18.06.33.08.46.01-.13.04-.29.08-.46.04-.17.07-.34.11-.5l.57-2.3h.6Z"/>
    </g>
    <g id="LINE">
      <line class="st4" x1="119.26" y1="28.03" x2="119.35" y2="27.99"/>
    </g>
    <g id="LINE1" data-name="LINE">
      <line class="st4" x1="140.46" y1="200.8" x2="142.01" y2="200.8"/>
    </g>
    <g id="LINE2" data-name="LINE">
      <line class="st4" x1="143.56" y1="200.8" x2="145.11" y2="200.8"/>
    </g>
    <g id="LINE3" data-name="LINE">
      <line class="st4" x1="145.11" y1="198.12" x2="143.56" y2="198.12"/>
    </g>
    <g id="LINE4" data-name="LINE">
      <line class="st4" x1="142.01" y1="198.12" x2="140.46" y2="198.12"/>
    </g>
    <g id="LINE5" data-name="LINE">
      <line class="st4" x1="97.22" y1="37.85" x2="96.44" y2="39.2"/>
    </g>
    <g id="LINE6" data-name="LINE">
      <line class="st4" x1="95.67" y1="40.54" x2="94.89" y2="41.88"/>
    </g>
    <g id="LINE7" data-name="LINE">
      <line class="st4" x1="97.22" y1="43.22" x2="97.99" y2="41.88"/>
    </g>
    <g id="LINE8" data-name="LINE">
      <line class="st4" x1="98.77" y1="40.54" x2="99.54" y2="39.2"/>
    </g>
    <g id="LINE9" data-name="LINE">
      <line class="st4" x1="83.72" y1="36.52" x2="83.72" y2="41.81"/>
    </g>
    <g id="LINE10" data-name="LINE">
      <line class="st4" x1="85.76" y1="41.76" x2="85.76" y2="36.04"/>
    </g>
    <g id="LINE11" data-name="LINE">
      <line class="st4" x1="122.58" y1="25.04" x2="121.27" y2="27.7"/>
    </g>
    <g id="LINE12" data-name="LINE">
      <line class="st4" x1="154.24" y1="41.76" x2="154.25" y2="41.76"/>
    </g>
    <g id="LINE13" data-name="LINE">
      <line class="st4" x1="162.06" y1="150.77" x2="161.06" y2="150.92"/>
    </g>
    <g id="LINE14" data-name="LINE">
      <line class="st4" x1="91.45" y1="41.16" x2="91.45" y2="40.54"/>
    </g>
    <g id="LWPOLYLINE">
      <polyline class="st4" points="214.03 135.5 214.03 135.5 214.04 135.5 214.06 135.49 214.07 135.49 214.08 135.49 214.1 135.48 214.12 135.48 214.14 135.47 214.16 135.46 214.17 135.45 214.19 135.44 214.21 135.43 214.23 135.41 214.24 135.4 214.26 135.38 214.28 135.37 214.29 135.35 214.31 135.33 214.32 135.31 214.33 135.29 214.34 135.27 214.35 135.24 214.36 135.22 214.36 135.2 214.37 135.17"/>
    </g>
    <g id="LINE15" data-name="LINE">
      <line class="st4" x1="203.96" y1="140.67" x2="209.9" y2="140.67"/>
    </g>
    <g id="LINE16" data-name="LINE">
      <line class="st4" x1="140.46" y1="198.12" x2="141.24" y2="199.46"/>
    </g>
    <g id="LINE17" data-name="LINE">
      <line class="st4" x1="142.01" y1="200.8" x2="142.79" y2="202.15"/>
    </g>
    <g id="LINE18" data-name="LINE">
      <line class="st4" x1="102.98" y1="41.16" x2="102.98" y2="40.54"/>
    </g>
    <g id="LINE19" data-name="LINE">
      <line class="st4" x1="106.76" y1="35.53" x2="106.76" y2="36.56"/>
    </g>
    <g id="LINE20" data-name="LINE">
      <line class="st4" x1="107.86" y1="34.43" x2="107.86" y2="35.53"/>
    </g>
    <g id="LINE21" data-name="LINE">
      <line class="st4" x1="107.86" y1="36.56" x2="107.86" y2="37.66"/>
    </g>
    <g id="LINE22" data-name="LINE">
      <line class="st4" x1="108.89" y1="37.66" x2="108.89" y2="36.56"/>
    </g>
    <g id="LINE23" data-name="LINE">
      <line class="st4" x1="108.89" y1="35.53" x2="108.89" y2="34.43"/>
    </g>
    <g id="LINE24" data-name="LINE">
      <line class="st4" x1="109.99" y1="36.56" x2="109.99" y2="35.53"/>
    </g>
    <g id="LINE25" data-name="LINE">
      <line class="st4" x1="206.6" y1="137.11" x2="207.64" y2="137.11"/>
    </g>
    <g id="LINE26" data-name="LINE">
      <line class="st4" x1="214.21" y1="136.14" x2="212.24" y2="136.14"/>
    </g>
    <g id="LINE27" data-name="LINE">
      <line class="st4" x1="205.51" y1="136.02" x2="206.6" y2="136.02"/>
    </g>
    <g id="LINE28" data-name="LINE">
      <line class="st4" x1="207.64" y1="136.02" x2="208.74" y2="136.02"/>
    </g>
    <g id="LINE29" data-name="LINE">
      <line class="st4" x1="212.32" y1="135.5" x2="213.99" y2="135.5"/>
    </g>
    <g id="LINE30" data-name="LINE">
      <line class="st4" x1="208.74" y1="134.98" x2="207.64" y2="134.98"/>
    </g>
    <g id="LINE31" data-name="LINE">
      <line class="st4" x1="206.6" y1="134.98" x2="205.51" y2="134.98"/>
    </g>
    <g id="LINE32" data-name="LINE">
      <line class="st4" x1="207.64" y1="133.88" x2="206.6" y2="133.88"/>
    </g>
    <g id="LINE33" data-name="LINE">
      <line class="st4" x1="210.98" y1="133.84" x2="212.61" y2="133.84"/>
    </g>
    <g id="LINE34" data-name="LINE">
      <line class="st4" x1="210.42" y1="131.35" x2="212.95" y2="131.35"/>
    </g>
    <g id="LINE35" data-name="LINE">
      <line class="st4" x1="212.22" y1="129.94" x2="209.77" y2="129.94"/>
    </g>
    <g id="LINE36" data-name="LINE">
      <line class="st4" x1="145.11" y1="200.8" x2="144.34" y2="199.46"/>
    </g>
    <g id="LINE37" data-name="LINE">
      <line class="st4" x1="143.56" y1="198.12" x2="142.79" y2="196.78"/>
    </g>
    <g id="LINE38" data-name="LINE">
      <line class="st4" x1="117.09" y1="26.45" x2="117.09" y2="24.46"/>
    </g>
    <g id="LINE39" data-name="LINE">
      <line class="st4" x1="117.42" y1="24.83" x2="117.42" y2="25.04"/>
    </g>
    <g id="LINE40" data-name="LINE">
      <line class="st4" x1="118.19" y1="215.56" x2="118.19" y2="213.62"/>
    </g>
    <g id="LINE41" data-name="LINE">
      <line class="st4" x1="119.24" y1="41.76" x2="119.24" y2="29.33"/>
    </g>
    <g id="LINE42" data-name="LINE">
      <line class="st4" x1="120.76" y1="41.76" x2="120.76" y2="29.33"/>
    </g>
    <g id="LINE43" data-name="LINE">
      <line class="st4" x1="104.91" y1="214.38" x2="105.18" y2="212.46"/>
    </g>
    <g id="LINE44" data-name="LINE">
      <line class="st4" x1="188.9" y1="69.94" x2="178.43" y2="77.55"/>
    </g>
    <g id="LINE45" data-name="LINE">
      <line class="st4" x1="209.77" y1="120.78" x2="212.75" y2="120.78"/>
    </g>
    <g id="LINE46" data-name="LINE">
      <line class="st4" x1="212.75" y1="119.22" x2="209.77" y2="119.22"/>
    </g>
    <g id="LINE47" data-name="LINE">
      <line class="st4" x1="178.43" y1="162.45" x2="188.9" y2="170.05"/>
    </g>
    <g id="LINE48" data-name="LINE">
      <line class="st4" x1="131.51" y1="214.88" x2="131.24" y2="212.97"/>
    </g>
    <g id="LINE49" data-name="LINE">
      <line class="st4" x1="121.81" y1="213.62" x2="121.81" y2="215.56"/>
    </g>
    <g id="LINE50" data-name="LINE">
      <line class="st4" x1="122.58" y1="25.04" x2="122.58" y2="24.83"/>
    </g>
    <g id="LINE51" data-name="LINE">
      <line class="st4" x1="122.91" y1="24.46" x2="122.91" y2="26.45"/>
    </g>
    <g id="LINE52" data-name="LINE">
      <line class="st4" x1="130.01" y1="35.53" x2="130.01" y2="36.56"/>
    </g>
    <g id="LINE53" data-name="LINE">
      <line class="st4" x1="131.11" y1="34.43" x2="131.11" y2="35.53"/>
    </g>
    <g id="LINE54" data-name="LINE">
      <line class="st4" x1="131.11" y1="36.56" x2="131.11" y2="37.66"/>
    </g>
    <g id="LINE55" data-name="LINE">
      <line class="st4" x1="108.76" y1="212.97" x2="108.49" y2="214.88"/>
    </g>
    <g id="LINE56" data-name="LINE">
      <line class="st4" x1="209.77" y1="110.06" x2="212.22" y2="110.06"/>
    </g>
    <g id="LINE57" data-name="LINE">
      <line class="st4" x1="212.95" y1="108.65" x2="210.42" y2="108.65"/>
    </g>
    <g id="LINE58" data-name="LINE">
      <line class="st4" x1="134.82" y1="212.46" x2="135.09" y2="214.38"/>
    </g>
    <g id="LINE59" data-name="LINE">
      <line class="st4" x1="132.14" y1="37.66" x2="132.14" y2="36.56"/>
    </g>
    <g id="LINE60" data-name="LINE">
      <line class="st4" x1="132.14" y1="35.53" x2="132.14" y2="34.43"/>
    </g>
    <g id="LINE61" data-name="LINE">
      <line class="st4" x1="133.24" y1="36.56" x2="133.24" y2="35.53"/>
    </g>
    <g id="LINE62" data-name="LINE">
      <line class="st4" x1="212.61" y1="106.16" x2="210.98" y2="106.16"/>
    </g>
    <g id="LINE63" data-name="LINE">
      <line class="st4" x1="206.6" y1="106.11" x2="207.64" y2="106.11"/>
    </g>
    <g id="LINE64" data-name="LINE">
      <line class="st4" x1="205.51" y1="105.02" x2="206.6" y2="105.02"/>
    </g>
    <g id="LINE65" data-name="LINE">
      <line class="st4" x1="207.64" y1="105.02" x2="208.74" y2="105.02"/>
    </g>
    <g id="LINE66" data-name="LINE">
      <line class="st4" x1="213.99" y1="104.5" x2="212.32" y2="104.5"/>
    </g>
    <g id="LINE67" data-name="LINE">
      <line class="st4" x1="208.74" y1="103.98" x2="207.64" y2="103.98"/>
    </g>
    <g id="LINE68" data-name="LINE">
      <line class="st4" x1="206.6" y1="103.98" x2="205.51" y2="103.98"/>
    </g>
    <g id="LINE69" data-name="LINE">
      <line class="st4" x1="212.24" y1="103.85" x2="214.21" y2="103.85"/>
    </g>
    <g id="LINE70" data-name="LINE">
      <line class="st4" x1="207.64" y1="102.89" x2="206.6" y2="102.89"/>
    </g>
    <g id="LINE71" data-name="LINE">
      <line class="st4" x1="209.9" y1="99.33" x2="203.96" y2="99.33"/>
    </g>
    <g id="LINE72" data-name="LINE">
      <line class="st4" x1="94.89" y1="39.2" x2="95.67" y2="40.54"/>
    </g>
    <g id="LINE73" data-name="LINE">
      <line class="st4" x1="96.44" y1="41.88" x2="97.22" y2="43.22"/>
    </g>
    <g id="LINE74" data-name="LINE">
      <line class="st4" x1="99.54" y1="41.88" x2="98.77" y2="40.54"/>
    </g>
    <g id="LINE75" data-name="LINE">
      <line class="st4" x1="97.99" y1="39.2" x2="97.22" y2="37.85"/>
    </g>
    <g id="LINE76" data-name="LINE">
      <line class="st4" x1="154.24" y1="41.76" x2="154.24" y2="36.04"/>
    </g>
    <g id="LINE77" data-name="LINE">
      <line class="st4" x1="156.28" y1="41.81" x2="156.28" y2="36.52"/>
    </g>
    <g id="LINE78" data-name="LINE">
      <line class="st4" x1="166.22" y1="130.52" x2="169.36" y2="135.82"/>
    </g>
    <g id="LINE79" data-name="LINE">
      <line class="st4" x1="118.73" y1="27.7" x2="117.42" y2="25.04"/>
    </g>
    <g id="LINE80" data-name="LINE">
      <line class="st4" x1="212.95" y1="131.35" x2="213.08" y2="131.29"/>
    </g>
    <g id="LINE81" data-name="LINE">
      <line class="st4" x1="213.08" y1="108.71" x2="212.95" y2="108.65"/>
    </g>
    <g id="LINE82" data-name="LINE">
      <line class="st4" x1="183.29" y1="99.66" x2="183.29" y2="140.34"/>
    </g>
    <g id="LINE83" data-name="LINE">
      <line class="st4" x1="142.79" y1="196.78" x2="142.01" y2="198.12"/>
    </g>
    <g id="LINE84" data-name="LINE">
      <line class="st4" x1="141.24" y1="199.46" x2="140.46" y2="200.8"/>
    </g>
    <g id="LINE85" data-name="LINE">
      <line class="st4" x1="142.79" y1="202.15" x2="143.56" y2="200.8"/>
    </g>
    <g id="LINE86" data-name="LINE">
      <line class="st4" x1="144.34" y1="199.46" x2="145.11" y2="198.12"/>
    </g>
    <g id="LINE87" data-name="LINE">
      <line class="st4" x1="209.77" y1="109.3" x2="210.42" y2="108.65"/>
    </g>
    <g id="LINE88" data-name="LINE">
      <line class="st4" x1="210.42" y1="131.35" x2="209.77" y2="130.7"/>
    </g>
    <g id="LINE89" data-name="LINE">
      <line class="st4" x1="210.97" y1="137.14" x2="210.96" y2="137.14"/>
    </g>
    <g id="LINE90" data-name="LINE">
      <line class="st4" x1="202.66" y1="100.63" x2="202.66" y2="139.37"/>
    </g>
    <g id="LINE91" data-name="LINE">
      <line class="st4" x1="202.66" y1="147.85" x2="202.66" y2="139.43"/>
    </g>
    <g id="LINE92" data-name="LINE">
      <line class="st4" x1="202.66" y1="100.63" x2="202.66" y2="92.15"/>
    </g>
    <g id="LINE93" data-name="LINE">
      <line class="st4" x1="214.37" y1="104.83" x2="214.37" y2="104.83"/>
    </g>
    <g id="LINE94" data-name="LINE">
      <line class="st4" x1="94.89" y1="41.88" x2="96.44" y2="41.88"/>
    </g>
    <g id="LINE95" data-name="LINE">
      <line class="st4" x1="97.99" y1="41.88" x2="99.54" y2="41.88"/>
    </g>
    <g id="LINE96" data-name="LINE">
      <line class="st4" x1="83.72" y1="41.81" x2="90.8" y2="41.81"/>
    </g>
    <g id="LINE97" data-name="LINE">
      <line class="st4" x1="103.63" y1="41.81" x2="156.28" y2="41.81"/>
    </g>
    <g id="LINE98" data-name="LINE">
      <line class="st4" x1="99.54" y1="39.2" x2="97.99" y2="39.2"/>
    </g>
    <g id="LINE99" data-name="LINE">
      <line class="st4" x1="96.44" y1="39.2" x2="94.89" y2="39.2"/>
    </g>
    <g id="LINE100" data-name="LINE">
      <line class="st4" x1="107.86" y1="37.66" x2="108.89" y2="37.66"/>
    </g>
    <g id="LINE101" data-name="LINE">
      <line class="st4" x1="131.11" y1="37.66" x2="132.14" y2="37.66"/>
    </g>
    <g id="LINE102" data-name="LINE">
      <line class="st4" x1="106.76" y1="36.56" x2="107.86" y2="36.56"/>
    </g>
    <g id="LINE103" data-name="LINE">
      <line class="st4" x1="108.89" y1="36.56" x2="109.99" y2="36.56"/>
    </g>
    <g id="LINE104" data-name="LINE">
      <line class="st4" x1="130.01" y1="36.56" x2="131.11" y2="36.56"/>
    </g>
    <g id="LINE105" data-name="LINE">
      <line class="st4" x1="132.14" y1="36.56" x2="133.24" y2="36.56"/>
    </g>
    <g id="LINE106" data-name="LINE">
      <line class="st4" x1="120.74" y1="28.03" x2="120.65" y2="27.99"/>
    </g>
    <g id="LINE107" data-name="LINE">
      <line class="st4" x1="214.37" y1="135.17" x2="214.37" y2="135.17"/>
    </g>
    <g id="LINE108" data-name="LINE">
      <line class="st4" x1="205.51" y1="103.98" x2="205.51" y2="105.02"/>
    </g>
    <g id="LINE109" data-name="LINE">
      <line class="st4" x1="205.51" y1="134.98" x2="205.51" y2="136.02"/>
    </g>
    <g id="LINE110" data-name="LINE">
      <line class="st4" x1="206.6" y1="102.89" x2="206.6" y2="103.98"/>
    </g>
    <g id="LINE111" data-name="LINE">
      <line class="st4" x1="206.6" y1="105.02" x2="206.6" y2="106.11"/>
    </g>
    <g id="LINE112" data-name="LINE">
      <line class="st4" x1="206.6" y1="133.88" x2="206.6" y2="134.98"/>
    </g>
    <g id="LINE113" data-name="LINE">
      <line class="st4" x1="206.6" y1="136.02" x2="206.6" y2="137.11"/>
    </g>
    <g id="LINE114" data-name="LINE">
      <line class="st4" x1="207.64" y1="137.11" x2="207.64" y2="136.02"/>
    </g>
    <g id="LINE115" data-name="LINE">
      <line class="st4" x1="207.64" y1="134.98" x2="207.64" y2="133.88"/>
    </g>
    <g id="LINE116" data-name="LINE">
      <line class="st4" x1="207.64" y1="106.11" x2="207.64" y2="105.02"/>
    </g>
    <g id="LINE117" data-name="LINE">
      <line class="st4" x1="207.64" y1="103.98" x2="207.64" y2="102.89"/>
    </g>
    <g id="LINE118" data-name="LINE">
      <line class="st4" x1="208.74" y1="136.02" x2="208.74" y2="134.98"/>
    </g>
    <g id="LINE119" data-name="LINE">
      <line class="st4" x1="208.74" y1="105.02" x2="208.74" y2="103.98"/>
    </g>
    <g id="LINE120" data-name="LINE">
      <line class="st4" x1="209.77" y1="109.3" x2="209.77" y2="110.06"/>
    </g>
    <g id="LINE121" data-name="LINE">
      <line class="st4" x1="209.77" y1="119.22" x2="209.77" y2="120.78"/>
    </g>
    <g id="LINE122" data-name="LINE">
      <line class="st4" x1="209.77" y1="129.94" x2="209.77" y2="130.7"/>
    </g>
    <g id="LINE123" data-name="LINE">
      <line class="st4" x1="210.98" y1="137.17" x2="210.98" y2="137.16"/>
    </g>
    <g id="LINE124" data-name="LINE">
      <line class="st4" x1="133.24" y1="35.53" x2="132.14" y2="35.53"/>
    </g>
    <g id="LINE125" data-name="LINE">
      <line class="st4" x1="131.11" y1="35.53" x2="130.01" y2="35.53"/>
    </g>
    <g id="LINE126" data-name="LINE">
      <line class="st4" x1="109.99" y1="35.53" x2="108.89" y2="35.53"/>
    </g>
    <g id="LINE127" data-name="LINE">
      <line class="st4" x1="107.86" y1="35.53" x2="106.76" y2="35.53"/>
    </g>
    <g id="LINE128" data-name="LINE">
      <line class="st4" x1="132.14" y1="34.43" x2="131.11" y2="34.43"/>
    </g>
    <g id="LINE129" data-name="LINE">
      <line class="st4" x1="108.89" y1="34.43" x2="107.86" y2="34.43"/>
    </g>
    <g id="LINE130" data-name="LINE">
      <line class="st4" x1="210.98" y1="102.84" x2="210.98" y2="102.83"/>
    </g>
    <g id="LWPOLYLINE1" data-name="LWPOLYLINE">
      <polyline class="st4" points="214.37 104.83 214.37 104.81 214.36 104.79 214.35 104.76 214.34 104.73 214.33 104.71 214.32 104.68 214.3 104.66 214.29 104.64 214.27 104.62 214.25 104.6 214.23 104.59 214.21 104.57 214.19 104.56 214.17 104.55 214.15 104.54 214.13 104.53 214.11 104.52 214.09 104.52 214.08 104.51 214.06 104.51 214.05 104.5 214.04 104.5 214.03 104.5"/>
    </g>
    <g id="ARC">
      <path class="st4" d="M156.28,36.52c0-.55,0-1.1,0-1.65"/>
    </g>
    <g id="ARC1" data-name="ARC">
      <path class="st4" d="M156.27,34.87c0-.23,0-.45,0-.68"/>
    </g>
    <g id="ARC2" data-name="ARC">
      <path class="st4" d="M102.98,40.54c0-3.19-2.58-5.77-5.77-5.77s-5.77,2.58-5.77,5.77"/>
    </g>
    <g id="CIRCLE">
      <circle class="st4" cx="97.22" cy="40.54" r="4.13"/>
    </g>
    <g id="ARC3" data-name="ARC">
      <path class="st4" d="M142.1,162.16c-2.59-.8-5.37-.77-7.94.09"/>
    </g>
    <g id="CIRCLE1" data-name="CIRCLE">
      <circle class="st4" cx="142.79" cy="199.46" r="4.13"/>
    </g>
    <g id="ARC4" data-name="ARC">
      <path class="st4" d="M122.21,24.44c-1.47-.03-2.94-.03-4.41,0"/>
    </g>
    <g id="ARC5" data-name="ARC">
      <path class="st4" d="M117.09,24.46c-52.76,1.61-94.23,45.68-92.63,98.44,1.61,52.76,45.68,94.23,98.44,92.63,45.44-1.38,83.62-34.58,91.3-79.39"/>
    </g>
    <g id="ARC6" data-name="ARC">
      <path class="st4" d="M214.21,103.85c-7.68-44.81-45.86-78.01-91.3-79.39"/>
    </g>
    <g id="ARC7" data-name="ARC">
      <path class="st4" d="M214.37,135.17c1.62-10.05,1.62-20.3,0-30.35"/>
    </g>
    <g id="ARC8" data-name="ARC">
      <path class="st4" d="M213.17,130.64c.81-7.07.81-14.21,0-21.29"/>
    </g>
    <g id="ARC9" data-name="ARC">
      <path class="st4" d="M212.35,104.49c-7.39-44.02-44.83-76.71-89.44-78.09"/>
    </g>
    <g id="ARC10" data-name="ARC">
      <path class="st4" d="M117.09,26.4c-51.69,1.61-92.3,44.81-90.69,96.5,1.61,51.69,44.81,92.3,96.5,90.69,44.61-1.39,82.05-34.07,89.44-78.09"/>
    </g>
    <g id="ARC11" data-name="ARC">
      <path class="st4" d="M212.61,133.84c.12-.83.24-1.66.34-2.49"/>
    </g>
    <g id="ARC12" data-name="ARC">
      <path class="st4" d="M212.95,108.65c-.1-.83-.21-1.66-.34-2.49"/>
    </g>
    <g id="ARC13" data-name="ARC">
      <path class="st4" d="M212.32,135.5c.09-.55.18-1.11.26-1.66"/>
    </g>
    <g id="ARC14" data-name="ARC">
      <path class="st4" d="M212.58,106.16c-.08-.56-.17-1.11-.26-1.66"/>
    </g>
    <g id="ARC15" data-name="ARC">
      <path class="st4" d="M211.16,139.65c.12-.57.24-1.14.35-1.72"/>
    </g>
    <g id="ARC16" data-name="ARC">
      <path class="st4" d="M211.52,102.07c-.11-.57-.23-1.15-.35-1.72"/>
    </g>
    <g id="ARC17" data-name="ARC">
      <path class="st4" d="M212.75,119.22c-.03-3.06-.2-6.12-.53-9.17"/>
    </g>
    <g id="ARC18" data-name="ARC">
      <path class="st4" d="M212.22,129.94c.33-3.05.51-6.1.53-9.17"/>
    </g>
    <g id="ARC19" data-name="ARC">
      <path class="st4" d="M120.92,27.91c-.61,0-1.23,0-1.84,0"/>
    </g>
    <g id="ARC20" data-name="ARC">
      <path class="st4" d="M120.65,27.99c-.43,0-.86,0-1.29,0"/>
    </g>
    <g id="ARC21" data-name="ARC">
      <path class="st4" d="M119.26,28.03c-11.49.09-22.87,2.34-33.53,6.62"/>
    </g>
    <g id="ARC22" data-name="ARC">
      <path class="st4" d="M154.27,34.65c-10.67-4.28-22.04-6.53-33.53-6.62"/>
    </g>
    <g id="ARC23" data-name="ARC">
      <path class="st4" d="M119.24,29.33c-11.49.1-22.85,2.37-33.49,6.71"/>
    </g>
    <g id="ARC24" data-name="ARC">
      <path class="st4" d="M154.24,36.04c-10.64-4.34-22-6.62-33.49-6.71"/>
    </g>
    <g id="ARC25" data-name="ARC">
      <path class="st4" d="M200.03,80.78c-1.66-3.39-3.54-6.68-5.62-9.83"/>
    </g>
    <g id="ARC26" data-name="ARC">
      <path class="st4" d="M194.41,169.05c2.08-3.16,3.96-6.44,5.62-9.83"/>
    </g>
    <g id="ARC27" data-name="ARC">
      <path class="st4" d="M180.16,87.33c-.84-1.55-1.74-3.07-2.7-4.54"/>
    </g>
    <g id="ARC28" data-name="ARC">
      <path class="st4" d="M177.46,157.21c.96-1.48,1.86-3,2.7-4.54"/>
    </g>
    <g id="ARC29" data-name="ARC">
      <path class="st4" d="M166.66,147.68c1.15-1.93,2.17-3.93,3.07-5.99"/>
    </g>
    <g id="ARC30" data-name="ARC">
      <path class="st4" d="M147.6,161.37c3.54-2.36,6.76-5.17,9.58-8.35"/>
    </g>
    <g id="ARC31" data-name="ARC">
      <path class="st4" d="M164.46,123.06c1.69-24.55-16.85-45.82-41.4-47.51s-45.82,16.85-47.51,41.4,16.85,45.82,41.4,47.51c5.83.4,11.68-.35,17.22-2.21"/>
    </g>
    <g id="ARC32" data-name="ARC">
      <path class="st4" d="M180.16,152.67c2.05-3.78,3.13-8.02,3.13-12.33"/>
    </g>
    <g id="ARC33" data-name="ARC">
      <path class="st4" d="M162.06,150.77c1.92-.29,3.61-1.42,4.6-3.09"/>
    </g>
    <g id="ARC34" data-name="ARC">
      <path class="st4" d="M161.06,150.92c-1.5.22-2.87.97-3.87,2.1"/>
    </g>
    <g id="ARC35" data-name="ARC">
      <path class="st4" d="M142.1,162.16c1.86.58,3.88.29,5.5-.8"/>
    </g>
    <g id="ARC36" data-name="ARC">
      <path class="st4" d="M169.72,141.69c.83-1.9.7-4.08-.36-5.87"/>
    </g>
    <g id="ARC37" data-name="ARC">
      <path class="st4" d="M188.9,170.05c1.73,1.26,4.15.87,5.41-.86.03-.05.07-.1.1-.14"/>
    </g>
    <g id="ARC38" data-name="ARC">
      <path class="st4" d="M200.03,159.22c1.73-3.54,2.64-7.43,2.64-11.37"/>
    </g>
    <g id="ARC39" data-name="ARC">
      <path class="st4" d="M164.46,123.06c-.18,2.61.44,5.21,1.77,7.46"/>
    </g>
    <g id="ARC40" data-name="ARC">
      <path class="st4" d="M210.98,133.84c-.92-2.13-3.39-3.12-5.52-2.2s-3.12,3.39-2.2,5.52,3.39,3.12,5.52,2.2c.99-.42,1.77-1.21,2.2-2.19"/>
    </g>
    <g id="ARC41" data-name="ARC">
      <path class="st4" d="M211.26,135.84c.02-.23.02-.46,0-.69"/>
    </g>
    <g id="ARC42" data-name="ARC">
      <path class="st4" d="M177.46,157.21c-1.12,1.73-.69,4.03.97,5.24"/>
    </g>
    <g id="CIRCLE2" data-name="CIRCLE">
      <circle class="st4" cx="207.12" cy="135.5" r="2.71"/>
    </g>
    <g id="ARC43" data-name="ARC">
      <path class="st4" d="M209.9,140.67c.61,0,1.13-.42,1.26-1.02"/>
    </g>
    <g id="ARC44" data-name="ARC">
      <path class="st4" d="M202.66,139.37c0,.71.58,1.29,1.29,1.29"/>
    </g>
    <g id="ARC45" data-name="ARC">
      <path class="st4" d="M211.52,137.93c.07-.35-.16-.69-.51-.76,0,0-.02,0-.03,0"/>
    </g>
    <g id="ARC46" data-name="ARC">
      <path class="st4" d="M202.66,92.15c0-3.94-.9-7.83-2.64-11.37"/>
    </g>
    <g id="ARC47" data-name="ARC">
      <path class="st4" d="M183.29,99.66c0-4.31-1.08-8.54-3.13-12.33"/>
    </g>
    <g id="ARC48" data-name="ARC">
      <path class="st4" d="M210.98,102.83c-.92-2.13-3.39-3.11-5.52-2.19s-3.11,3.39-2.19,5.52c.92,2.13,3.39,3.11,5.52,2.19.98-.43,1.77-1.21,2.19-2.2"/>
    </g>
    <g id="ARC49" data-name="ARC">
      <path class="st4" d="M211.26,104.85c.02-.23.02-.46,0-.69"/>
    </g>
    <g id="ARC50" data-name="ARC">
      <path class="st4" d="M194.41,70.95c-1.18-1.79-3.58-2.28-5.37-1.1-.05.03-.1.07-.14.1"/>
    </g>
    <g id="ARC51" data-name="ARC">
      <path class="st4" d="M178.43,77.55c-1.67,1.21-2.09,3.51-.97,5.24"/>
    </g>
    <g id="CIRCLE3" data-name="CIRCLE">
      <circle class="st4" cx="207.12" cy="104.5" r="2.71"/>
    </g>
    <g id="ARC52" data-name="ARC">
      <path class="st4" d="M203.96,99.33c-.71,0-1.29.58-1.29,1.29"/>
    </g>
    <g id="ARC53" data-name="ARC">
      <path class="st4" d="M211.16,100.35c-.13-.59-.65-1.02-1.26-1.02"/>
    </g>
    <g id="ARC54" data-name="ARC">
      <path class="st4" d="M211.03,102.82c.34-.08.56-.41.49-.75"/>
    </g>
    <g id="ARC55" data-name="ARC">
      <path class="st4" d="M210.98,102.83s.03,0,.05,0"/>
    </g>
    <g id="ARC56" data-name="ARC">
      <path class="st4" d="M83.73,34.19c0,.23,0,.45,0,.68"/>
    </g>
    <g id="CIRCLE4" data-name="CIRCLE">
      <circle class="st4" cx="108.38" cy="36.04" r="4.21"/>
    </g>
    <g id="CIRCLE5" data-name="CIRCLE">
      <circle class="st4" cx="131.63" cy="36.04" r="4.21"/>
    </g>
    <g id="CIRCLE6" data-name="CIRCLE">
      <circle class="st4" cx="131.63" cy="36.04" r="2.71"/>
    </g>
    <g id="CIRCLE7" data-name="CIRCLE">
      <circle class="st4" cx="108.38" cy="36.04" r="2.71"/>
    </g>
    <g id="ARC57" data-name="ARC">
      <path class="st4" d="M83.73,34.87c0,.55,0,1.1,0,1.65"/>
    </g>
    <g id="SPLINE">
      <path class="st4" d="M214.03,135.5s0,0,0,0c-.01,0-.02,0-.04,0"/>
    </g>
    <g id="SPLINE1" data-name="SPLINE">
      <path class="st4" d="M213.99,104.5s.01,0,.02,0c0,0,.01,0,.02,0"/>
    </g>
    <g id="LINE131" data-name="LINE">
      <line class="st4" x1="210.98" y1="106.16" x2="210.96" y2="106.14"/>
    </g>
    <g id="LINE132" data-name="LINE">
      <line class="st4" x1="210.96" y1="133.86" x2="210.98" y2="133.84"/>
    </g>
    <g id="LINE133" data-name="LINE">
      <line class="st4" x1="210.98" y1="137.16" x2="210.97" y2="137.14"/>
    </g>
    <g id="LINE134" data-name="LINE">
      <line class="st4" x1="210.96" y1="102.86" x2="210.98" y2="102.84"/>
    </g>
    <g id="SPLINE2" data-name="SPLINE">
      <path class="st4" d="M210.96,137.14s0,0,0,0c0,0,0,0,0,0,0,0,0,0,0,0,0,0,0,0,0-.01,0,0,0,0,0-.01,0,0,0-.01,0-.02,0-.01.01-.03.02-.04,0-.02.01-.04.02-.06,0-.02.02-.04.02-.07,0-.03.02-.05.02-.08,0-.03.02-.06.03-.08.02-.06.04-.13.05-.19.02-.07.03-.15.05-.22.02-.08.03-.16.04-.24s.02-.17.03-.25"/>
    </g>
    <g id="SPLINE3" data-name="SPLINE">
      <path class="st4" d="M211.26,135.15c0-.08-.02-.17-.03-.25s-.02-.16-.04-.24c-.01-.07-.03-.15-.05-.22-.02-.06-.03-.13-.05-.19,0-.03-.02-.06-.03-.08,0-.03-.02-.05-.02-.08,0-.02-.01-.04-.02-.07,0-.02-.01-.04-.02-.06,0-.01-.01-.03-.02-.04,0,0,0-.01,0-.02,0,0,0,0,0-.01,0,0,0,0,0-.01,0,0,0,0,0,0,0,0,0,0,0,0,0,0,0,0,0,0"/>
    </g>
    <g id="SPLINE4" data-name="SPLINE">
      <path class="st4" d="M210.96,106.14s0,0,0,0c0,0,0,0,0,0,0,0,0,0,0,0,0,0,0,0,0-.01,0,0,0,0,0-.01,0,0,0-.01,0-.02,0-.01.01-.03.02-.04,0-.02.01-.04.02-.06,0-.02.02-.04.02-.07,0-.03.02-.05.02-.08,0-.03.02-.06.03-.08.02-.06.04-.13.05-.19.02-.07.03-.15.05-.22.02-.08.03-.16.04-.24s.02-.17.03-.25"/>
    </g>
    <g id="SPLINE5" data-name="SPLINE">
      <path class="st4" d="M211.26,104.15c0-.08-.02-.17-.03-.25s-.02-.16-.04-.24c-.01-.07-.03-.15-.05-.22-.02-.06-.03-.13-.05-.19,0-.03-.02-.06-.03-.08,0-.03-.02-.05-.02-.08,0-.02-.01-.04-.02-.07,0-.02-.01-.04-.02-.06,0-.01-.01-.03-.02-.04,0,0,0-.01,0-.02,0,0,0,0,0-.01,0,0,0,0,0-.01,0,0,0,0,0,0,0,0,0,0,0,0,0,0,0,0,0,0"/>
    </g>
    <g id="SPLINE6" data-name="SPLINE">
      <path class="st4" d="M83.75,33.7s0,0,0,0c0,.01,0,.02,0,.02,0,.01,0,.03,0,.04,0,.02,0,.04,0,.05,0,.02,0,.05,0,.07,0,.03,0,.06,0,.08,0,.07,0,.14,0,.21"/>
    </g>
    <g id="SPLINE7" data-name="SPLINE">
      <path class="st4" d="M156.27,34.19c0-.07,0-.14,0-.21,0-.03,0-.06,0-.08,0-.02,0-.05,0-.07,0-.02,0-.04,0-.05,0-.01,0-.03,0-.04,0,0,0-.01,0-.02,0,0,0,0,0,0"/>
    </g>
    <g id="SPLINE8" data-name="SPLINE">
      <path class="st4" d="M120.92,27.91c.07,0,.14-.02.21-.06s.11-.09.14-.16"/>
    </g>
    <g id="SPLINE9" data-name="SPLINE">
      <path class="st4" d="M118.73,27.7c.03.06.08.12.14.16s.14.06.21.06"/>
    </g>
    <g id="SPLINE10" data-name="SPLINE">
      <path class="st4" d="M117.8,24.44c-.1,0-.2.04-.27.12s-.11.17-.11.27"/>
    </g>
    <g id="SPLINE11" data-name="SPLINE">
      <path class="st4" d="M122.58,24.83c0-.1-.04-.2-.11-.27s-.17-.11-.27-.12"/>
    </g>
    <g id="SPLINE12" data-name="SPLINE">
      <path class="st4" d="M85.76,36.04c0-.09,0-.17,0-.26s0-.17,0-.25c0-.08,0-.16,0-.24,0-.07,0-.14,0-.21,0-.06,0-.12,0-.18,0-.02,0-.05,0-.07,0-.02,0-.04,0-.06,0-.02,0-.03,0-.05,0-.01,0-.02,0-.04,0,0,0-.01,0-.02,0,0,0,0,0,0"/>
    </g>
    <g id="SPLINE13" data-name="SPLINE">
      <path class="st4" d="M154.27,34.65s0,0,0,0c0,0,0,.02,0,.02,0,.01,0,.02,0,.04,0,.02,0,.03,0,.05,0,.02,0,.04,0,.06,0,.02,0,.05,0,.07,0,.06,0,.12,0,.18,0,.07,0,.14,0,.21,0,.08,0,.16,0,.24,0,.08,0,.17,0,.25s0,.17,0,.26"/>
    </g>
    <g id="SPLINE14" data-name="SPLINE">
      <path class="st4" d="M119.26,28.03s0,0,0,0c0,0,0,.01,0,.02,0,0,0,.02,0,.03,0,.01,0,.03,0,.04,0,.02,0,.04,0,.05,0,.02,0,.04,0,.07,0,.05,0,.11,0,.16,0,.07,0,.13,0,.2,0,.07,0,.15,0,.22,0,.08,0,.16,0,.24s0,.17,0,.25"/>
    </g>
    <g id="SPLINE15" data-name="SPLINE">
      <path class="st4" d="M120.76,29.33c0-.08,0-.17,0-.25s0-.16,0-.24c0-.07,0-.15,0-.22,0-.07,0-.13,0-.2,0-.05,0-.11,0-.16,0-.02,0-.04,0-.07,0-.02,0-.04,0-.05,0-.01,0-.03,0-.04,0-.01,0-.02,0-.03,0,0,0-.01,0-.02,0,0,0,0,0,0"/>
    </g>
    <g id="ELLIPSE">
      <path class="st4" d="M213.08,131.29c.03-.22.06-.43.09-.65"/>
    </g>
    <g id="ELLIPSE1" data-name="ELLIPSE">
      <path class="st4" d="M213.17,109.36c-.03-.22-.06-.43-.09-.65"/>
    </g>
    <g id="ELLIPSE2" data-name="ELLIPSE">
      <path class="st4" d="M90.8,41.81c.36,0,.65-.29.65-.65"/>
    </g>
    <g id="ELLIPSE3" data-name="ELLIPSE">
      <path class="st4" d="M102.98,41.16c0,.36.29.65.65.65"/>
    </g>
    <g id="ELLIPSE4" data-name="ELLIPSE">
      <path class="st2" d="M118.48,25.13l1.3,2.25c.07.12.23.17.35.09.04-.02.07-.05.09-.09l1.3-2.25c.07-.12.03-.28-.1-.35-.04-.02-.08-.03-.13-.03h-2.6c-.14,0-.26.12-.26.26,0,.04.01.09.03.13Z"/>
    </g>
    <g id="ARC58" data-name="ARC">
      <path class="st4" d="M69.49,175.07l-4.57-4.57c-1.26-1.26-3.31-1.26-4.57,0s-1.26,3.31,0,4.57l4.57,4.57c1.26,1.26,3.31,1.26,4.57,0s1.26-3.31,0-4.57Z"/>
    </g>
    <g id="ARC59" data-name="ARC">
      <path class="st4" d="M61.88,116.77h6.46c1.78,0,3.23,1.45,3.23,3.23s-1.45,3.23-3.23,3.23h-6.46c-1.78,0-3.23-1.45-3.23-3.23s1.45-3.23,3.23-3.23Z"/>
    </g>
    <g id="ARC60" data-name="ARC">
      <path class="st4" d="M80.31,156.03l3.65,3.65c1.26,1.26,1.26,3.31,0,4.57s-3.31,1.26-4.57,0l-3.65-3.65c-1.26-1.26-1.26-3.31,0-4.57s3.31-1.26,4.57,0Z"/>
    </g>
    <g id="ARC61" data-name="ARC">
      <path class="st4" d="M70.46,150.41l-2.5-4.52c-.86-1.56-2.83-2.12-4.39-1.26s-2.12,2.83-1.26,4.39l2.5,4.52c.86,1.56,2.83,2.12,4.39,1.26s2.12-2.83,1.26-4.39Z"/>
    </g>
    <g id="CIRCLE8" data-name="CIRCLE">
      <circle class="st4" cx="97.22" cy="40.54" r="5.17"/>
    </g>
    <g id="ARC62" data-name="ARC">
      <path class="st4" d="M64.93,69.49l4.57-4.57c1.26-1.26,1.26-3.31,0-4.57s-3.31-1.26-4.57,0l-4.57,4.57c-1.26,1.26-1.26,3.31,0,4.57s3.31,1.26,4.57,0Z"/>
    </g>
    <g id="ARC63" data-name="ARC">
      <path class="st4" d="M83.97,80.31l-3.65,3.65c-1.26,1.26-3.31,1.26-4.57,0s-1.26-3.31,0-4.57l3.65-3.65c1.26-1.26,3.31-1.26,4.57,0s1.26,3.31,0,4.57Z"/>
    </g>
    <g id="ARC64" data-name="ARC">
      <path class="st4" d="M67.96,94.11l2.5-4.52c.86-1.56.3-3.53-1.26-4.39s-3.53-.3-4.39,1.26l-2.5,4.52c-.86,1.56-.3,3.53,1.26,4.39s3.53.3,4.39-1.26Z"/>
    </g>
    <g id="CIRCLE9" data-name="CIRCLE">
      <circle class="st4" cx="142.79" cy="199.46" r="5.17"/>
    </g>
    <g id="ARC65" data-name="ARC">
      <path class="st4" d="M123.23,171.66v6.46c0,1.78-1.45,3.23-3.23,3.23s-3.23-1.45-3.23-3.23v-6.46c0-1.78,1.45-3.23,3.23-3.23s3.23,1.45,3.23,3.23Z"/>
    </g>
    <g id="ARC66" data-name="ARC">
      <path class="st4" d="M160.6,164.25l3.65-3.65c1.26-1.26,1.26-3.31,0-4.57s-3.31-1.26-4.57,0l-3.65,3.65c-1.26,1.26-1.26,3.31,0,4.57s3.31,1.26,4.57,0Z"/>
    </g>
    <g id="ARC67" data-name="ARC">
      <path class="st4" d="M179.64,175.07l-4.57,4.57c-1.26,1.26-3.31,1.26-4.57,0s-1.26-3.31,0-4.57l4.57-4.57c1.26-1.26,3.31-1.26,4.57,0s1.26,3.31,0,4.57Z"/>
    </g>
    <g id="ARC68" data-name="ARC">
      <path class="st4" d="M172.31,116.77h5.17c1.78,0,3.23,1.45,3.23,3.23s-1.45,3.23-3.23,3.23h-5.17c-1.78,0-3.23-1.45-3.23-3.23s1.45-3.23,3.23-3.23Z"/>
    </g>
    <g id="ARC69" data-name="ARC">
      <path class="st4" d="M177.69,149.02l-2.5,4.52c-.86,1.56-2.83,2.12-4.39,1.26s-2.12-2.83-1.26-4.39l2.5-4.52c.86-1.56,2.83-2.12,4.39-1.26s2.12,2.83,1.26,4.39Z"/>
    </g>
    <g id="ARC70" data-name="ARC">
      <path class="st4" d="M164.25,79.4l-3.65-3.65c-1.26-1.26-3.31-1.26-4.57,0s-1.26,3.31,0,4.57l3.65,3.65c1.26,1.26,3.31,1.26,4.57,0s1.26-3.31,0-4.57Z"/>
    </g>
    <g id="ARC71" data-name="ARC">
      <path class="st4" d="M175.18,86.46l2.5,4.52c.86,1.56.3,3.53-1.26,4.39s-3.53.3-4.39-1.26l-2.5-4.52c-.86-1.56-.3-3.53,1.26-4.39s3.53-.3,4.39,1.26Z"/>
    </g>
    <g id="ARC72" data-name="ARC">
      <path class="st4" d="M179.64,64.93l-4.57-4.57c-1.26-1.26-3.31-1.26-4.57,0s-1.26,3.31,0,4.57l4.57,4.57c1.26,1.26,3.31,1.26,4.57,0s1.26-3.31,0-4.57Z"/>
    </g>
    <g id="ARC73" data-name="ARC">
      <path class="st4" d="M123.23,68.33v-6.46c0-1.78-1.45-3.23-3.23-3.23s-3.23,1.45-3.23,3.23v6.46c0,1.78,1.45,3.23,3.23,3.23s3.23-1.45,3.23-3.23Z"/>
    </g>
    <g>
      <path class="st7" d="M125.94,198.76c0-.5-.41-.91-.91-.91s-.91.41-.91.91v3.76c0,.18-.21.32-.4.33s-.33-.06-.42-.13-.14-.19-.14-.19l-2.15-4.67s-.02-.03-.02-.05c-.24-.45-.95-1.22-2.05-1.22-1.33,0-2.07,1.17-2.16,1.31-.01.02-.02.04-.04.06-.44.87-2.5,5.13-2.59,5.31-.22.45-.03,1,.42,1.22.45.22,1,.03,1.22-.42.02-.04,2.08-4.28,2.56-5.24.08-.12.34-.41.58-.41s.41.21.44.25l2.13,4.61c.22.53.93,1.4,2.22,1.4,1.39,0,2.04-1.17,2.2-1.79.03-.13.03-.36.03-.55v-3.58Z"/>
      <circle class="st7" cx="125.03" cy="196.5" r=".91"/>
    </g>
    <path class="st7" d="M60.71,61l-.35-1.16h-1.78l-.35,1.16h-1.11l1.72-4.89h1.26l1.73,4.89h-1.11ZM60.11,58.97c-.33-1.05-.51-1.65-.55-1.78-.04-.14-.07-.25-.09-.33-.07.28-.28.99-.63,2.11h1.27Z"/>
    <path class="st7" d="M181.78,61l-.35-1.16h-1.78l-.35,1.16h-1.11l1.72-4.89h1.26l1.73,4.89h-1.11ZM181.18,58.97c-.33-1.05-.51-1.65-.55-1.78-.04-.14-.07-.25-.09-.33-.07.28-.28.99-.63,2.11h1.27Z"/>
    <path class="st7" d="M60.71,182.53l-.35-1.16h-1.78l-.35,1.16h-1.11l1.72-4.89h1.26l1.73,4.89h-1.11ZM60.11,180.5c-.33-1.05-.51-1.65-.55-1.78-.04-.14-.07-.25-.09-.33-.07.28-.28.99-.63,2.11h1.27Z"/>
    <path class="st7" d="M181.78,182.53l-.35-1.16h-1.78l-.35,1.16h-1.11l1.72-4.89h1.26l1.73,4.89h-1.11ZM181.18,180.5c-.33-1.05-.51-1.65-.55-1.78-.04-.14-.07-.25-.09-.33-.07.28-.28.99-.63,2.11h1.27Z"/>
    <path class="st7" d="M72.59,71.96h1.52c.69,0,1.19.1,1.51.3.31.2.47.51.47.94,0,.29-.07.53-.21.72-.14.19-.32.3-.54.34v.03c.31.07.53.2.67.39.14.19.2.44.2.75,0,.44-.16.79-.48,1.04-.32.25-.76.37-1.31.37h-1.82v-4.87ZM73.62,73.89h.6c.28,0,.48-.04.61-.13.13-.09.19-.23.19-.43,0-.19-.07-.32-.21-.4-.14-.08-.35-.12-.65-.12h-.54v1.08ZM73.62,74.71v1.27h.67c.28,0,.49-.05.63-.16s.2-.28.2-.5c0-.4-.29-.61-.87-.61h-.64Z"/>
    <path class="st7" d="M163.8,71.96h1.52c.69,0,1.19.1,1.51.3.31.2.47.51.47.94,0,.29-.07.53-.21.72-.14.19-.32.3-.54.34v.03c.31.07.53.2.67.39.14.19.2.44.2.75,0,.44-.16.79-.48,1.04-.32.25-.76.37-1.31.37h-1.82v-4.87ZM164.83,73.89h.6c.28,0,.48-.04.61-.13.13-.09.19-.23.19-.43,0-.19-.07-.32-.21-.4-.14-.08-.35-.12-.65-.12h-.54v1.08ZM164.83,74.71v1.27h.67c.28,0,.49-.05.63-.16s.2-.28.2-.5c0-.4-.29-.61-.87-.61h-.64Z"/>
    <path class="st7" d="M72.59,162.71h1.52c.69,0,1.19.1,1.51.3.31.2.47.51.47.94,0,.29-.07.53-.21.72-.14.19-.32.3-.54.34v.03c.31.07.53.2.67.39.14.19.2.44.2.75,0,.44-.16.79-.48,1.04-.32.25-.76.37-1.31.37h-1.82v-4.87ZM73.62,164.64h.6c.28,0,.48-.04.61-.13.13-.09.19-.23.19-.43,0-.19-.07-.32-.21-.4-.14-.08-.35-.12-.65-.12h-.54v1.08ZM73.62,165.46v1.27h.67c.28,0,.49-.05.63-.16s.2-.28.2-.5c0-.4-.29-.61-.87-.61h-.64Z"/>
    <path class="st7" d="M163.8,162.71h1.52c.69,0,1.19.1,1.51.3.31.2.47.51.47.94,0,.29-.07.53-.21.72-.14.19-.32.3-.54.34v.03c.31.07.53.2.67.39.14.19.2.44.2.75,0,.44-.16.79-.48,1.04-.32.25-.76.37-1.31.37h-1.82v-4.87ZM164.83,164.64h.6c.28,0,.48-.04.61-.13.13-.09.19-.23.19-.43,0-.19-.07-.32-.21-.4-.14-.08-.35-.12-.65-.12h-.54v1.08ZM164.83,165.46v1.27h.67c.28,0,.49-.05.63-.16s.2-.28.2-.5c0-.4-.29-.61-.87-.61h-.64Z"/>
    <path class="st7" d="M72.74,91.37c-.39,0-.69.15-.9.44s-.32.7-.32,1.22c0,1.09.41,1.63,1.22,1.63.34,0,.76-.09,1.24-.26v.87c-.4.17-.85.25-1.34.25-.71,0-1.25-.22-1.63-.65-.38-.43-.56-1.05-.56-1.85,0-.51.09-.95.28-1.33.18-.38.45-.67.8-.88.35-.2.75-.31,1.22-.31s.95.11,1.43.34l-.33.84c-.18-.09-.37-.16-.55-.23s-.37-.1-.54-.1Z"/>
    <path class="st7" d="M166.76,91.37c-.39,0-.69.15-.9.44s-.32.7-.32,1.22c0,1.09.41,1.63,1.22,1.63.34,0,.76-.09,1.24-.26v.87c-.4.17-.85.25-1.34.25-.71,0-1.25-.22-1.63-.65-.38-.43-.56-1.05-.56-1.85,0-.51.09-.95.28-1.33.18-.38.45-.67.8-.88.35-.2.75-.31,1.22-.31s.95.11,1.43.34l-.33.84c-.18-.09-.37-.16-.55-.23s-.37-.1-.54-.1Z"/>
    <path class="st7" d="M72.74,144.43c-.39,0-.69.15-.9.44s-.32.7-.32,1.22c0,1.09.41,1.63,1.22,1.63.34,0,.76-.09,1.24-.26v.87c-.4.17-.85.25-1.34.25-.71,0-1.25-.22-1.63-.65-.38-.43-.56-1.05-.56-1.85,0-.51.09-.95.28-1.33.18-.38.45-.67.8-.88.35-.2.75-.31,1.22-.31s.95.11,1.43.34l-.33.84c-.18-.09-.37-.16-.55-.23s-.37-.1-.54-.1Z"/>
    <path class="st7" d="M175.41,138.97c-.39,0-.69.15-.9.44s-.32.7-.32,1.22c0,1.09.41,1.63,1.22,1.63.34,0,.76-.09,1.24-.26v.87c-.4.17-.85.25-1.34.25-.71,0-1.25-.22-1.63-.65-.38-.43-.56-1.05-.56-1.85,0-.51.09-.95.28-1.33.18-.38.45-.67.8-.88.35-.2.75-.31,1.22-.31s.95.11,1.43.34l-.33.84c-.18-.09-.37-.16-.55-.23s-.37-.1-.54-.1Z"/>
    <path class="st7" d="M67.13,113.12c0,.8-.23,1.42-.69,1.84-.46.43-1.12.64-1.98.64h-1.38v-4.87h1.53c.8,0,1.41.21,1.85.63s.66,1.01.66,1.76ZM66.06,113.15c0-1.05-.46-1.57-1.39-1.57h-.55v3.17h.44c1,0,1.49-.53,1.49-1.6Z"/>
    <path class="st7" d="M176.92,113.12c0,.8-.23,1.42-.69,1.84-.46.43-1.12.64-1.98.64h-1.38v-4.87h1.53c.8,0,1.41.21,1.85.63s.66,1.01.66,1.76ZM175.84,113.15c0-1.05-.46-1.57-1.39-1.57h-.55v3.17h.44c1,0,1.49-.53,1.49-1.6Z"/>
    <path class="st7" d="M115.06,174.85c0,.8-.23,1.42-.69,1.84-.46.43-1.12.64-1.98.64h-1.38v-4.87h1.53c.8,0,1.41.21,1.85.63s.66,1.01.66,1.76ZM113.99,174.87c0-1.05-.46-1.57-1.39-1.57h-.55v3.17h.44c1,0,1.49-.53,1.49-1.6Z"/>
    <path class="st7" d="M115.06,65.06c0,.8-.23,1.42-.69,1.84-.46.43-1.12.64-1.98.64h-1.38v-4.87h1.53c.8,0,1.41.21,1.85.63s.66,1.01.66,1.76ZM113.99,65.09c0-1.05-.46-1.57-1.39-1.57h-.55v3.17h.44c1,0,1.49-.53,1.49-1.6Z"/>
    <g>
      <path class="st7" d="M100.23,117.67c-.64,0-1.15.22-1.52.67-.37.45-.55,1.06-.55,1.83s.17,1.38.51,1.82c.34.44.86.66,1.55.66.28,0,.55-.03.81-.08s.52-.12.79-.2v.85c-.26.1-.52.17-.78.21-.27.05-.58.07-.93.07-.67,0-1.22-.14-1.66-.41-.44-.28-.77-.66-.98-1.17-.22-.5-.32-1.09-.32-1.76s.12-1.23.36-1.73c.24-.5.59-.89,1.05-1.18.46-.28,1.03-.43,1.69-.43.33,0,.65.03.96.1s.6.17.86.3l-.36.82c-.21-.1-.44-.18-.68-.26-.24-.08-.5-.11-.78-.11Z"/>
      <path class="st7" d="M105.01,118.41c.61,0,1.07.14,1.38.4.31.27.46.69.46,1.27v3.32h-.68l-.19-.68h-.04c-.21.27-.44.46-.67.59-.23.12-.56.19-.97.19-.44,0-.81-.12-1.1-.36-.29-.24-.44-.61-.44-1.12s.19-.88.57-1.14c.38-.26.96-.4,1.73-.42l.84-.03v-.27c0-.36-.08-.61-.25-.76-.16-.15-.39-.22-.69-.22-.25,0-.49.04-.72.11s-.45.16-.66.26l-.31-.7c.23-.12.5-.22.8-.3.3-.08.61-.12.94-.12ZM105.89,121.05l-.66.02c-.56.02-.95.12-1.16.28-.22.16-.32.39-.32.67,0,.26.08.44.23.56.15.12.35.17.59.17.38,0,.69-.11.94-.32.25-.21.38-.53.38-.96v-.43Z"/>
      <path class="st7" d="M109.3,116.49v1.67c0,.19,0,.38-.01.57,0,.19-.02.33-.03.42h.05c.14-.21.33-.38.56-.52.24-.14.54-.21.92-.21.59,0,1.06.21,1.42.64s.54,1.06.54,1.89-.18,1.48-.55,1.91c-.36.43-.84.64-1.43.64-.38,0-.68-.07-.91-.2s-.42-.3-.56-.49h-.07l-.18.6h-.71v-6.92h.97ZM110.56,119.21c-.47,0-.79.14-.97.41-.18.28-.28.7-.28,1.27v.07c0,.56.09,1,.27,1.3.18.3.51.45,1.01.45.39,0,.69-.15.89-.46.2-.3.3-.74.3-1.31,0-1.16-.4-1.74-1.2-1.74Z"/>
      <path class="st7" d="M114.94,123.41h-.97v-6.92h.97v6.92Z"/>
      <path class="st7" d="M118.38,118.41c.64,0,1.15.2,1.52.6.37.4.56.94.56,1.63v.53h-3.3c.01.5.14.89.4,1.16s.61.4,1.06.4c.32,0,.6-.03.84-.09.25-.06.5-.14.76-.26v.8c-.25.12-.5.2-.75.25s-.55.08-.89.08c-.47,0-.89-.09-1.26-.28-.36-.19-.65-.47-.85-.84-.2-.37-.3-.83-.3-1.38s.09-1.02.28-1.4c.18-.38.44-.68.77-.88s.72-.3,1.16-.3ZM118.38,119.16c-.35,0-.62.11-.83.34s-.33.54-.37.96h2.31c0-.38-.1-.69-.28-.93-.18-.24-.46-.36-.83-.36Z"/>
      <path class="st7" d="M129.21,123.41h-.98v-2.97h-3.1v2.97h-.98v-6.5h.98v2.69h3.1v-2.69h.98v6.5Z"/>
      <path class="st7" d="M135.16,120.95c0,.81-.21,1.44-.63,1.88-.42.44-.98.66-1.69.66-.44,0-.84-.1-1.18-.3-.34-.2-.61-.49-.81-.86-.2-.38-.3-.84-.3-1.39,0-.81.21-1.44.62-1.88.41-.44.98-.66,1.69-.66.45,0,.85.1,1.19.3.34.2.61.48.81.86.2.38.3.84.3,1.38ZM131.55,120.95c0,.55.1.98.31,1.29.21.31.54.46,1,.46s.79-.15,1-.46c.21-.31.31-.74.31-1.29s-.1-.99-.31-1.29-.54-.45-1.01-.45-.79.15-.99.45c-.21.3-.31.73-.31,1.29Z"/>
      <path class="st7" d="M137.35,123.41h-.97v-6.92h.97v6.92Z"/>
      <path class="st7" d="M140.79,118.41c.64,0,1.15.2,1.52.6.37.4.56.94.56,1.63v.53h-3.3c.01.5.14.89.4,1.16s.61.4,1.06.4c.32,0,.6-.03.84-.09.25-.06.5-.14.76-.26v.8c-.25.12-.5.2-.75.25s-.55.08-.89.08c-.47,0-.89-.09-1.26-.28-.36-.19-.65-.47-.85-.84-.2-.37-.3-.83-.3-1.38s.09-1.02.28-1.4c.18-.38.44-.68.77-.88s.72-.3,1.16-.3ZM140.79,119.16c-.35,0-.62.11-.83.34s-.33.54-.37.96h2.31c0-.38-.1-.69-.28-.93-.18-.24-.46-.36-.83-.36Z"/>
    </g>
    <g>
      <path class="st7" d="M190.27,139.72c0,.64.22,1.15.67,1.52.45.37,1.06.55,1.83.55s1.38-.17,1.82-.51c.44-.34.66-.86.66-1.55,0-.28-.03-.55-.08-.81s-.12-.52-.2-.79h.85c.1.26.17.52.21.78s.07.58.07.93c0,.67-.14,1.22-.41,1.66-.28.44-.66.77-1.17.98-.5.22-1.09.32-1.76.32s-1.23-.12-1.73-.36c-.5-.24-.89-.59-1.18-1.05s-.43-1.03-.43-1.69c0-.33.04-.65.1-.96s.17-.6.3-.86l.82.36c-.1.21-.18.44-.26.68s-.11.5-.11.78Z"/>
      <path class="st7" d="M191.02,134.94c0-.61.14-1.07.41-1.38.27-.31.69-.46,1.27-.46h3.32v.68l-.68.19v.04c.27.21.46.44.59.67.12.23.19.56.19.97,0,.44-.12.81-.36,1.1-.24.29-.61.44-1.12.44s-.88-.19-1.14-.57c-.26-.38-.4-.96-.42-1.73l-.03-.84h-.27c-.36,0-.61.08-.76.25-.15.16-.22.39-.22.69,0,.25.04.49.11.72s.16.45.26.66l-.7.31c-.12-.23-.22-.5-.3-.8-.08-.3-.12-.61-.12-.94ZM193.66,134.06l.02.66c.02.56.12.95.28,1.16.16.22.39.32.67.32.25,0,.44-.08.56-.23.12-.15.17-.35.17-.59,0-.38-.11-.69-.32-.94-.21-.25-.53-.38-.96-.38h-.43Z"/>
      <path class="st7" d="M189.1,130.65h1.67c.19,0,.38,0,.57.01.18,0,.33.02.42.03v-.05c-.21-.14-.38-.33-.52-.56-.14-.24-.21-.54-.21-.92,0-.59.21-1.06.64-1.42.42-.36,1.06-.54,1.89-.54s1.48.18,1.91.55c.43.36.64.84.64,1.43,0,.38-.07.68-.2.91s-.3.42-.49.56v.07l.6.18v.71h-6.92v-.97ZM191.81,129.4c0,.47.14.79.41.97.28.18.7.28,1.27.28h.07c.56,0,1-.09,1.3-.27.3-.18.45-.51.45-1.01,0-.39-.15-.69-.46-.89-.3-.2-.74-.3-1.31-.3-1.16,0-1.74.4-1.74,1.2Z"/>
      <path class="st7" d="M196.02,125.01v.97h-6.92v-.97h6.92Z"/>
      <path class="st7" d="M191.02,121.57c0-.64.2-1.15.6-1.52.4-.37.94-.56,1.62-.56h.53v3.3c.5-.01.89-.14,1.16-.4.27-.25.4-.61.4-1.06,0-.32-.03-.6-.09-.84-.06-.25-.14-.5-.26-.76h.8c.12.25.2.5.25.75.05.25.08.55.08.89,0,.47-.09.89-.28,1.26s-.47.65-.84.85c-.37.2-.83.3-1.38.3s-1.02-.09-1.4-.28c-.38-.18-.68-.44-.88-.77-.2-.33-.3-.72-.3-1.16ZM191.77,121.57c0,.35.11.62.34.83.22.21.54.33.96.37v-2.31c-.38,0-.69.1-.93.28-.24.18-.36.46-.36.83Z"/>
      <path class="st7" d="M196.02,110.74v.98h-2.97v3.1h2.97v.98h-6.5v-.98h2.69v-3.1h-2.69v-.98h6.5Z"/>
      <path class="st7" d="M193.56,104.79c.81,0,1.44.21,1.88.63.44.42.66.98.66,1.69,0,.44-.1.84-.3,1.18s-.49.61-.87.81c-.38.2-.84.3-1.39.3-.81,0-1.44-.21-1.88-.62-.44-.41-.66-.98-.66-1.69,0-.45.1-.85.3-1.19.2-.34.48-.61.86-.81.38-.2.84-.3,1.38-.3ZM193.56,108.4c.55,0,.98-.1,1.29-.31.31-.21.46-.54.46-1s-.15-.79-.46-1c-.31-.21-.74-.31-1.29-.31s-.99.1-1.29.31-.45.54-.45,1.01.15.79.45.99c.3.21.73.31,1.29.31Z"/>
      <path class="st7" d="M196.02,102.6v.97h-6.92v-.97h6.92Z"/>
      <path class="st7" d="M191.02,99.16c0-.64.2-1.15.6-1.52.4-.37.94-.56,1.62-.56h.53v3.3c.5-.01.89-.14,1.16-.4.27-.25.4-.61.4-1.06,0-.32-.03-.6-.09-.84-.06-.25-.14-.5-.26-.76h.8c.12.25.2.5.25.75.05.25.08.55.08.89,0,.47-.09.89-.28,1.26s-.47.65-.84.85c-.37.2-.83.3-1.38.3s-1.02-.09-1.4-.28c-.38-.18-.68-.44-.88-.77-.2-.33-.3-.72-.3-1.16ZM191.77,99.16c0,.35.11.62.34.83.22.21.54.33.96.37v-2.31c-.38,0-.69.1-.93.28-.24.18-.36.46-.36.83Z"/>
    </g>
    <g>
      <polygon class="st7" points="118.86 82.93 118.86 86.77 121.14 86.77 121.14 82.93 122.84 82.93 120 78.82 117.16 82.93 118.86 82.93"/>
      <polygon class="st7" points="121.14 157.07 121.14 153.22 118.86 153.22 118.86 157.07 117.16 157.07 120 161.18 122.84 157.07 121.14 157.07"/>
    </g>
    <g>
      <g>
        <path class="st7" d="M97.19,91.37l-.86,3.25h-.52l-.57-2.01c-.02-.07-.04-.15-.07-.25-.02-.09-.04-.18-.06-.26s-.03-.14-.04-.17c0,.03-.01.09-.03.17-.02.08-.03.17-.05.26-.02.09-.04.18-.07.26l-.56,1.99h-.52l-.85-3.25h.5l.48,1.92c.03.13.06.27.09.41s.05.27.07.38c.02-.12.04-.25.07-.4.03-.15.06-.28.1-.4l.54-1.92h.49l.56,1.93c.04.12.07.26.1.4.03.15.05.28.07.38.01-.11.03-.24.06-.38.03-.14.06-.28.1-.41l.48-1.92h.5Z"/>
        <path class="st7" d="M98.09,91.16v.92c0,.08,0,.15,0,.23,0,.08-.01.14-.02.19h.03c.08-.12.18-.22.32-.28s.28-.09.43-.09c.29,0,.51.07.66.21.15.14.23.37.23.68v1.6h-.48v-1.53c0-.38-.17-.57-.51-.57-.25,0-.42.08-.52.23-.09.15-.14.37-.14.64v1.23h-.48v-3.46h.48Z"/>
        <path class="st7" d="M101.44,92.12c.32,0,.57.1.76.3.18.2.28.47.28.81v.26h-1.65c0,.25.07.44.2.58.13.13.3.2.53.2.16,0,.3-.01.42-.04s.25-.07.38-.13v.4c-.12.06-.25.1-.37.12-.12.03-.27.04-.45.04-.24,0-.45-.05-.63-.14-.18-.09-.32-.23-.43-.42-.1-.18-.15-.42-.15-.69s.05-.51.14-.7c.09-.19.22-.34.39-.44.17-.1.36-.15.58-.15ZM101.44,92.5c-.17,0-.31.06-.42.17-.1.11-.17.27-.18.48h1.16c0-.19-.05-.35-.14-.47-.09-.12-.23-.18-.42-.18Z"/>
        <path class="st7" d="M104.33,92.12c.29,0,.5.07.66.21.15.14.23.37.23.69v1.6h-.48v-1.53c0-.38-.17-.57-.51-.57-.25,0-.42.07-.52.22-.1.15-.14.36-.14.64v1.24h-.48v-2.45h.38l.07.33h.03c.08-.13.19-.22.33-.28.14-.06.28-.09.44-.09Z"/>
        <path class="st7" d="M107.38,91.24c.07,0,.14.02.19.06.05.04.08.11.08.21s-.03.17-.08.21c-.05.04-.12.07-.19.07s-.14-.02-.2-.07c-.05-.04-.08-.11-.08-.21s.03-.17.08-.21c.05-.04.12-.06.2-.06ZM107.62,92.17v2.45h-.48v-2.45h.48Z"/>
        <path class="st7" d="M109.62,92.12c.28,0,.5.07.66.21.15.14.23.37.23.69v1.6h-.48v-1.53c0-.38-.17-.57-.51-.57-.25,0-.42.07-.52.22-.1.15-.14.36-.14.64v1.24h-.48v-2.45h.38l.07.33h.03c.08-.13.19-.22.33-.28.14-.06.28-.09.44-.09Z"/>
        <path class="st7" d="M112.87,93.93c0,.24-.09.43-.26.55-.17.12-.42.19-.74.19-.17,0-.32-.01-.44-.04-.12-.02-.24-.06-.34-.11v-.42c.11.05.23.1.38.14.14.04.28.06.42.06.18,0,.31-.03.39-.09.08-.06.12-.13.12-.23,0-.05-.02-.1-.05-.15-.03-.04-.09-.09-.17-.14-.08-.05-.21-.1-.37-.16-.16-.06-.29-.12-.4-.19-.11-.06-.19-.14-.25-.23s-.09-.2-.09-.33c0-.21.09-.38.26-.49s.4-.17.68-.17c.15,0,.29.02.42.05s.26.07.38.13l-.16.37c-.11-.05-.22-.08-.33-.12-.11-.03-.23-.05-.34-.05-.3,0-.45.09-.45.26,0,.06.02.11.05.15.03.04.1.08.18.13.09.04.21.09.36.15.15.06.28.12.38.18.11.06.19.14.25.23s.09.2.09.33Z"/>
        <path class="st7" d="M114.33,94.28c.14,0,.26-.02.37-.06v.36c-.05.02-.12.04-.21.06s-.18.02-.26.02c-.13,0-.26-.02-.37-.07-.11-.05-.2-.12-.27-.24-.07-.11-.1-.27-.1-.47v-1.36h-.34v-.22l.36-.18.17-.52h.3v.55h.7v.37h-.7v1.35c0,.13.03.23.1.3.06.06.15.1.26.1Z"/>
        <path class="st7" d="M116.14,92.12c.31,0,.54.07.69.2.15.14.23.35.23.64v1.66h-.34l-.1-.34h-.02c-.11.13-.22.23-.33.29-.12.06-.28.09-.48.09-.22,0-.41-.06-.55-.18-.15-.12-.22-.31-.22-.56s.09-.44.28-.57c.19-.13.48-.2.87-.21h.42v-.15c0-.18-.04-.31-.12-.38-.08-.07-.2-.11-.35-.11-.12,0-.24.02-.36.05-.12.04-.23.08-.33.13l-.16-.35c.12-.06.25-.11.4-.15.15-.04.31-.06.47-.06ZM116.58,93.44h-.33c-.28.02-.47.07-.58.15-.11.08-.16.19-.16.34,0,.13.04.22.11.28.08.06.17.09.3.09.19,0,.34-.05.47-.16.13-.11.19-.27.19-.48v-.21Z"/>
        <path class="st7" d="M118.28,94.62h-.48v-3.46h.48v3.46Z"/>
        <path class="st7" d="M119.52,94.62h-.48v-3.46h.48v3.46Z"/>
        <path class="st7" d="M120.52,91.24c.07,0,.14.02.19.06.06.04.08.11.08.21s-.03.17-.08.21c-.05.04-.12.07-.19.07s-.14-.02-.2-.07c-.05-.04-.08-.11-.08-.21s.03-.17.08-.21c.05-.04.12-.06.2-.06ZM120.76,92.17v2.45h-.48v-2.45h.48Z"/>
        <path class="st7" d="M122.76,92.12c.29,0,.5.07.66.21s.23.37.23.69v1.6h-.48v-1.53c0-.38-.17-.57-.51-.57-.25,0-.42.07-.52.22-.1.15-.14.36-.14.64v1.24h-.48v-2.45h.38l.07.33h.03c.08-.13.19-.22.33-.28.14-.06.28-.09.44-.09Z"/>
        <path class="st7" d="M125.23,92.12c.16,0,.3.03.43.09.13.06.24.15.32.28h.02l.05-.32h.39v2.49c0,.71-.38,1.06-1.13,1.06-.18,0-.34-.01-.49-.04-.15-.02-.28-.06-.41-.11v-.42c.13.06.27.11.43.14.16.03.32.05.5.05.2,0,.35-.06.46-.17s.17-.27.17-.48v-.08s0-.09,0-.15,0-.11,0-.15h-.02c-.08.13-.19.22-.31.28s-.26.09-.43.09c-.31,0-.55-.11-.73-.33-.17-.22-.26-.53-.26-.93s.09-.71.26-.94c.17-.23.42-.34.73-.34ZM125.33,92.52c-.19,0-.34.08-.44.22-.1.15-.15.37-.15.66s.05.5.15.65c.1.15.25.22.45.22.22,0,.39-.06.49-.18.1-.12.16-.32.16-.6v-.09c0-.32-.05-.54-.16-.68-.11-.13-.27-.2-.5-.2Z"/>
        <path class="st7" d="M130.55,93.39c0,.41-.1.72-.31.94-.21.22-.49.33-.85.33-.22,0-.42-.05-.59-.15-.17-.1-.31-.24-.41-.43s-.15-.42-.15-.69c0-.41.1-.72.31-.94.21-.22.49-.33.85-.33.22,0,.42.05.59.15.17.1.31.24.4.43s.15.42.15.69ZM128.74,93.39c0,.28.05.49.16.65.1.15.27.23.5.23s.39-.08.5-.23c.1-.16.16-.37.16-.65s-.05-.49-.16-.64c-.1-.15-.27-.22-.5-.22s-.39.08-.5.22c-.1.15-.15.36-.15.64Z"/>
        <path class="st7" d="M132.4,92.12c.29,0,.5.07.66.21s.23.37.23.69v1.6h-.48v-1.53c0-.38-.17-.57-.51-.57-.25,0-.42.07-.52.22-.1.15-.14.36-.14.64v1.24h-.48v-2.45h.38l.07.33h.03c.08-.13.19-.22.33-.28.14-.06.28-.09.44-.09Z"/>
        <path class="st7" d="M136.16,92.12c.31,0,.54.07.69.2.15.14.23.35.23.64v1.66h-.34l-.1-.34h-.02c-.11.13-.22.23-.33.29-.12.06-.28.09-.48.09-.22,0-.4-.06-.55-.18-.15-.12-.22-.31-.22-.56s.09-.44.28-.57c.19-.13.48-.2.87-.21h.42v-.15c0-.18-.04-.31-.12-.38-.08-.07-.2-.11-.35-.11-.12,0-.24.02-.36.05-.12.04-.23.08-.33.13l-.15-.35c.12-.06.25-.11.4-.15s.31-.06.47-.06ZM136.6,93.44h-.33c-.28.02-.47.07-.58.15-.11.08-.16.19-.16.34,0,.13.04.22.11.28.08.06.17.09.3.09.19,0,.34-.05.47-.16.13-.11.19-.27.19-.48v-.21Z"/>
        <path class="st7" d="M141.01,94.62l-.35-1.22c-.02-.08-.05-.17-.07-.27-.03-.1-.05-.2-.07-.29-.02-.09-.04-.16-.05-.22h-.02c0,.05-.02.12-.05.22-.02.09-.04.19-.07.29-.03.1-.05.19-.08.28l-.36,1.22h-.54l-.68-2.45h.49l.32,1.24c.03.13.06.26.09.41.03.14.05.26.06.35h.02c0-.05.02-.12.04-.21.02-.09.03-.17.05-.26.02-.09.04-.16.06-.21l.39-1.32h.53l.38,1.32c.02.06.04.13.06.22s.04.17.06.25c.02.08.03.15.03.2h.02s.02-.12.03-.2c.02-.08.03-.18.06-.27.02-.1.04-.19.07-.28l.33-1.24h.49l-.69,2.45h-.55Z"/>
        <path class="st7" d="M143.63,92.12c.31,0,.54.07.69.2.15.14.23.35.23.64v1.66h-.34l-.1-.34h-.02c-.11.13-.22.23-.33.29-.12.06-.28.09-.48.09-.22,0-.4-.06-.55-.18-.15-.12-.22-.31-.22-.56s.09-.44.28-.57c.19-.13.48-.2.87-.21h.42v-.15c0-.18-.04-.31-.12-.38-.08-.07-.2-.11-.35-.11-.12,0-.24.02-.36.05-.12.04-.23.08-.33.13l-.15-.35c.12-.06.25-.11.4-.15s.31-.06.47-.06ZM144.07,93.44h-.33c-.28.02-.47.07-.58.15-.11.08-.16.19-.16.34,0,.13.04.22.11.28.08.06.17.09.3.09.19,0,.34-.05.47-.16.13-.11.19-.27.19-.48v-.21Z"/>
        <path class="st7" d="M145.78,94.62h-.48v-3.46h.48v3.46Z"/>
        <path class="st7" d="M147.01,94.62h-.48v-3.46h.48v3.46Z"/>
      </g>
      <g>
        <path class="st7" d="M101.44,105.55h-.39v-2.27c0-.13,0-.24,0-.31,0-.08,0-.16.01-.25-.05.05-.09.09-.13.12s-.09.08-.15.13l-.35.28-.21-.27.88-.68h.33v3.25Z"/>
        <path class="st7" d="M104.79,105.55h-2.15v-.33l.85-.86c.16-.16.3-.31.41-.44s.2-.25.26-.37c.06-.12.09-.26.09-.4,0-.18-.05-.31-.16-.41-.11-.09-.24-.14-.41-.14-.16,0-.3.03-.42.08-.12.05-.24.13-.36.23l-.21-.27c.13-.11.27-.2.44-.27s.35-.11.56-.11c.3,0,.54.08.72.23.18.16.26.37.26.63,0,.17-.04.33-.1.48-.07.15-.17.3-.29.44-.12.15-.27.3-.44.46l-.68.67v.02h1.64v.36Z"/>
        <path class="st7" d="M108.72,104.32c0,.4-.1.72-.31.94s-.48.33-.83.33c-.22,0-.41-.05-.58-.15s-.3-.24-.4-.43c-.1-.19-.15-.42-.15-.69,0-.4.1-.71.3-.93.2-.22.48-.33.83-.33.22,0,.41.05.58.15s.3.24.4.43.14.42.14.69ZM106.88,104.32c0,.29.06.52.17.69.11.17.3.25.54.25s.43-.08.54-.25c.12-.17.17-.4.17-.69s-.06-.51-.17-.68c-.12-.16-.3-.25-.55-.25s-.43.08-.54.25c-.11.16-.17.39-.17.68Z"/>
        <path class="st7" d="M109.65,102.3l-.09,1.17h-.25l-.09-1.17h.43Z"/>
        <path class="st7" d="M111.04,105.59c-.22,0-.41-.04-.58-.13-.17-.09-.3-.22-.39-.41-.1-.18-.14-.42-.14-.71s.05-.54.15-.73.23-.33.41-.41.37-.13.59-.13c.12,0,.24.01.36.04s.21.06.28.09l-.12.33c-.07-.03-.16-.05-.26-.08-.1-.02-.19-.04-.27-.04-.48,0-.72.31-.72.92,0,.29.06.52.18.68.12.16.29.23.52.23.13,0,.25-.01.35-.04s.2-.06.28-.1v.35c-.08.04-.17.08-.27.1-.1.02-.22.03-.36.03Z"/>
        <path class="st7" d="M112.65,105.55h-.4v-3.46h.4v3.46Z"/>
        <path class="st7" d="M115.54,104.32c0,.4-.1.72-.31.94s-.48.33-.83.33c-.22,0-.41-.05-.58-.15s-.3-.24-.4-.43c-.1-.19-.15-.42-.15-.69,0-.4.1-.71.3-.93.2-.22.48-.33.83-.33.22,0,.41.05.58.15.17.1.3.24.4.43s.14.42.14.69ZM113.7,104.32c0,.29.06.52.17.69.11.17.3.25.54.25s.43-.08.54-.25c.12-.17.17-.4.17-.69s-.06-.51-.17-.68c-.12-.16-.3-.25-.55-.25s-.43.08-.54.25c-.11.16-.17.39-.17.68Z"/>
        <path class="st7" d="M117.15,105.59c-.22,0-.41-.04-.58-.13-.17-.09-.3-.22-.39-.41-.1-.18-.14-.42-.14-.71s.05-.54.15-.73.23-.33.41-.41.37-.13.59-.13c.12,0,.24.01.36.04s.21.06.28.09l-.12.33c-.07-.03-.16-.05-.26-.08-.1-.02-.19-.04-.27-.04-.48,0-.72.31-.72.92,0,.29.06.52.18.68.12.16.29.23.52.23.13,0,.25-.01.35-.04s.2-.06.28-.1v.35c-.08.04-.17.08-.27.1-.1.02-.22.03-.36.03Z"/>
        <path class="st7" d="M118.76,102.09v1.81s0,.11,0,.19c0,.08,0,.15-.01.2h.02s.05-.06.08-.1c.04-.05.07-.09.11-.14.04-.05.07-.09.1-.12l.78-.82h.47l-.99,1.04,1.06,1.4h-.48l-.85-1.14-.28.24v.9h-.4v-3.46h.4Z"/>
        <path class="st7" d="M123.13,103.06c.3,0,.54.1.73.31.18.21.28.52.28.95s-.09.73-.28.95c-.18.22-.43.32-.73.32-.19,0-.34-.03-.47-.1-.12-.07-.22-.15-.29-.25h-.03c0,.05,0,.12.02.2,0,.08.01.15.01.2v1h-.4v-3.53h.33l.05.33h.02c.07-.11.17-.2.29-.27.12-.07.28-.11.47-.11ZM123.06,103.4c-.25,0-.42.07-.53.21s-.16.35-.16.64v.08c0,.3.05.53.15.69s.28.24.55.24c.15,0,.27-.04.36-.12.1-.08.17-.19.22-.33s.07-.3.07-.49c0-.28-.05-.5-.16-.67s-.27-.25-.5-.25Z"/>
        <path class="st7" d="M126.89,104.32c0,.4-.1.72-.31.94s-.48.33-.83.33c-.22,0-.41-.05-.58-.15s-.3-.24-.4-.43c-.1-.19-.15-.42-.15-.69,0-.4.1-.71.3-.93.2-.22.48-.33.83-.33.22,0,.41.05.58.15.17.1.3.24.4.43s.14.42.14.69ZM125.05,104.32c0,.29.06.52.17.69.11.17.3.25.54.25s.43-.08.54-.25c.12-.17.17-.4.17-.69s-.06-.51-.17-.68c-.12-.16-.3-.25-.55-.25s-.43.08-.54.25c-.11.16-.17.39-.17.68Z"/>
        <path class="st7" d="M129.12,104.87c0,.24-.09.42-.26.54s-.41.18-.71.18c-.17,0-.32-.01-.44-.04-.12-.03-.23-.06-.33-.11v-.36c.1.05.21.09.35.13s.28.06.42.06c.2,0,.35-.03.44-.1.09-.07.14-.15.14-.26,0-.06-.02-.12-.05-.16s-.09-.1-.18-.15c-.09-.05-.21-.1-.37-.16-.16-.06-.29-.12-.4-.18-.11-.06-.2-.13-.26-.22-.06-.08-.09-.19-.09-.33,0-.21.08-.37.25-.48.17-.11.39-.17.66-.17.15,0,.29.02.42.05.13.03.25.07.36.12l-.14.32c-.1-.04-.21-.08-.32-.11-.11-.03-.23-.05-.35-.05-.16,0-.29.03-.38.08-.09.05-.13.13-.13.22,0,.07.02.13.06.17.04.05.11.09.2.14.09.05.22.1.37.15.15.06.29.12.4.18.11.06.19.13.25.22.06.09.09.2.09.33Z"/>
        <path class="st7" d="M129.91,102.19c.06,0,.11.02.16.06.05.04.07.11.07.19s-.02.15-.07.19c-.05.04-.1.06-.16.06-.07,0-.12-.02-.17-.06-.05-.04-.07-.11-.07-.19s.02-.15.07-.19c.05-.04.1-.06.17-.06ZM130.11,103.11v2.44h-.4v-2.44h.4Z"/>
        <path class="st7" d="M131.7,105.27c.06,0,.12,0,.19-.01.06,0,.12-.02.15-.04v.31s-.1.04-.18.05c-.08.01-.15.02-.23.02-.13,0-.25-.02-.35-.07s-.2-.12-.26-.23-.1-.26-.1-.46v-1.42h-.35v-.19l.35-.16.16-.52h.24v.56h.71v.31h-.71v1.41c0,.15.04.26.11.33.07.07.16.11.28.11Z"/>
        <path class="st7" d="M132.73,102.19c.06,0,.11.02.16.06.05.04.07.11.07.19s-.02.15-.07.19c-.05.04-.1.06-.16.06-.07,0-.12-.02-.17-.06-.05-.04-.07-.11-.07-.19s.02-.15.07-.19c.05-.04.1-.06.17-.06ZM132.93,103.11v2.44h-.4v-2.44h.4Z"/>
        <path class="st7" d="M135.82,104.32c0,.4-.1.72-.31.94s-.48.33-.83.33c-.22,0-.41-.05-.58-.15s-.3-.24-.4-.43c-.1-.19-.15-.42-.15-.69,0-.4.1-.71.3-.93.2-.22.48-.33.83-.33.22,0,.41.05.58.15.17.1.3.24.4.43s.14.42.14.69ZM133.98,104.32c0,.29.06.52.17.69.11.17.3.25.54.25s.43-.08.54-.25c.12-.17.17-.4.17-.69s-.06-.51-.17-.68c-.12-.16-.3-.25-.55-.25s-.43.08-.54.25c-.11.16-.17.39-.17.68Z"/>
        <path class="st7" d="M137.63,103.06c.29,0,.51.07.66.21.15.14.22.37.22.68v1.59h-.4v-1.56c0-.39-.18-.59-.55-.59-.27,0-.46.08-.56.23-.1.15-.15.37-.15.66v1.27h-.4v-2.44h.32l.06.33h.02c.08-.13.19-.22.33-.28s.29-.09.44-.09Z"/>
        <path class="st7" d="M139.21,105.3c0-.11.03-.19.08-.24.05-.05.12-.07.2-.07s.14.02.2.07c.06.05.09.12.09.24s-.03.19-.09.24c-.06.05-.12.07-.2.07s-.14-.02-.2-.07c-.05-.05-.08-.13-.08-.24Z"/>
      </g>
      <g>
        <path class="st7" d="M103.04,100.09l-.39-1.01h-1.29l-.39,1.01h-.41l1.27-3.26h.37l1.27,3.26h-.42ZM102.53,98.72l-.36-.98s-.02-.07-.05-.13-.04-.13-.06-.2c-.02-.07-.04-.12-.05-.16-.02.09-.05.19-.08.28-.03.09-.05.16-.07.21l-.37.98h1.03Z"/>
        <path class="st7" d="M104.26,100.09h-.4v-3.46h.4v3.46Z"/>
        <path class="st7" d="M105.24,96.73c.06,0,.11.02.16.06.05.04.07.11.07.19s-.02.15-.07.19-.1.06-.16.06c-.07,0-.12-.02-.17-.06-.05-.04-.07-.11-.07-.19s.02-.15.07-.19c.05-.04.1-.06.17-.06ZM105.43,97.65v2.44h-.4v-2.44h.4Z"/>
        <path class="st7" d="M107.07,97.6c.16,0,.31.03.43.09.13.06.24.15.33.28h.02l.05-.32h.32v2.48c0,.35-.09.61-.27.79-.18.18-.45.26-.83.26s-.65-.05-.88-.16v-.37c.24.13.54.19.9.19.21,0,.37-.06.49-.18.12-.12.18-.29.18-.5v-.1s0-.09,0-.16c0-.07,0-.12,0-.14h-.02c-.16.25-.42.37-.76.37-.32,0-.56-.11-.74-.33-.18-.22-.27-.53-.27-.93s.09-.7.27-.93c.18-.23.42-.34.74-.34ZM107.13,97.94c-.2,0-.36.08-.47.24-.11.16-.17.39-.17.69s.05.53.16.69c.11.16.27.24.49.24.25,0,.42-.07.54-.2.11-.13.17-.35.17-.64v-.1c0-.33-.06-.57-.17-.71-.12-.15-.3-.22-.54-.22Z"/>
        <path class="st7" d="M110.18,97.6c.29,0,.51.07.66.21.15.14.22.37.22.68v1.59h-.4v-1.56c0-.39-.18-.59-.55-.59-.27,0-.46.08-.56.23-.1.15-.15.37-.15.66v1.27h-.4v-2.44h.32l.06.33h.02c.08-.13.19-.22.33-.28s.29-.09.44-.09Z"/>
        <path class="st7" d="M113.82,99.8c.06,0,.12,0,.19-.01.06,0,.12-.02.16-.04v.31s-.1.04-.18.05c-.08.01-.15.02-.23.02-.13,0-.24-.02-.35-.07-.11-.04-.19-.12-.26-.23-.07-.11-.1-.26-.1-.46v-1.42h-.35v-.19l.35-.16.16-.52h.24v.56h.71v.31h-.71v1.41c0,.15.04.26.11.33.07.07.16.11.28.11Z"/>
        <path class="st7" d="M115.05,96.63v1.01c0,.12,0,.24-.02.34h.03c.08-.12.19-.22.32-.28.14-.06.28-.1.44-.1.29,0,.52.07.67.21.15.14.23.37.23.68v1.59h-.4v-1.56c0-.39-.18-.59-.55-.59-.27,0-.46.08-.56.23-.1.15-.15.37-.15.66v1.26h-.4v-3.46h.4Z"/>
        <path class="st7" d="M118.4,97.6c.21,0,.39.05.54.14.15.09.27.22.35.38.08.17.12.36.12.58v.24h-1.67c0,.28.08.49.21.63.14.14.32.22.57.22.15,0,.29-.01.41-.04s.24-.07.37-.12v.35c-.12.05-.25.09-.37.12s-.27.04-.43.04c-.23,0-.44-.05-.61-.14s-.31-.23-.41-.42-.15-.41-.15-.69.04-.5.13-.69c.09-.19.22-.34.38-.44.16-.1.35-.15.57-.15ZM118.4,97.93c-.19,0-.34.06-.45.18-.11.12-.18.29-.2.51h1.24c0-.21-.05-.37-.15-.5-.09-.13-.24-.19-.45-.19Z"/>
        <path class="st7" d="M128.27,99.8c.06,0,.12,0,.19-.01.06,0,.12-.02.15-.04v.31s-.1.04-.18.05c-.08.01-.15.02-.23.02-.13,0-.25-.02-.35-.07s-.2-.12-.26-.23-.1-.26-.1-.46v-1.42h-.35v-.19l.35-.16.16-.52h.24v.56h.71v.31h-.71v1.41c0,.15.04.26.11.33.07.07.16.11.28.11Z"/>
        <path class="st7" d="M131.22,98.86c0,.4-.1.72-.31.94s-.48.33-.83.33c-.22,0-.41-.05-.58-.15s-.3-.24-.4-.43c-.1-.19-.15-.42-.15-.69,0-.4.1-.71.3-.93.2-.22.48-.33.83-.33.22,0,.41.05.58.15.17.1.3.24.4.43s.14.42.14.69ZM129.37,98.86c0,.29.06.52.17.69.11.17.3.25.54.25s.43-.08.54-.25c.12-.17.17-.4.17-.69s-.06-.51-.17-.68c-.12-.16-.3-.25-.55-.25s-.43.08-.54.25c-.11.16-.17.39-.17.68Z"/>
        <path class="st7" d="M133.85,99.8c.06,0,.12,0,.19-.01.06,0,.12-.02.15-.04v.31s-.1.04-.18.05c-.08.01-.15.02-.23.02-.13,0-.25-.02-.35-.07s-.2-.12-.26-.23-.1-.26-.1-.46v-1.42h-.35v-.19l.35-.16.16-.52h.24v.56h.71v.31h-.71v1.41c0,.15.04.26.11.33.07.07.16.11.28.11Z"/>
        <path class="st7" d="M135.08,96.63v1.01c0,.12,0,.24-.02.34h.03c.08-.12.19-.22.32-.28.13-.06.28-.1.44-.1.29,0,.52.07.67.21.15.14.23.37.23.68v1.59h-.4v-1.56c0-.39-.18-.59-.55-.59-.27,0-.46.08-.56.23-.1.15-.15.37-.15.66v1.26h-.4v-3.46h.4Z"/>
        <path class="st7" d="M138.43,97.6c.21,0,.39.05.54.14.15.09.27.22.35.38.08.17.12.36.12.58v.24h-1.67c0,.28.08.49.21.63s.32.22.57.22c.15,0,.29-.01.41-.04.12-.03.24-.07.37-.12v.35c-.12.05-.25.09-.37.12s-.27.04-.43.04c-.23,0-.44-.05-.61-.14s-.31-.23-.41-.42-.15-.41-.15-.69.04-.5.13-.69c.09-.19.22-.34.38-.44s.35-.15.57-.15ZM138.43,97.93c-.19,0-.34.06-.45.18-.11.12-.18.29-.2.51h1.24c0-.21-.05-.37-.15-.5-.09-.13-.24-.19-.45-.19Z"/>
        <g id="ELLIPSE5" data-name="ELLIPSE">
          <path class="st2" d="M121.26,97.49l1.75,3.03c.1.17.31.22.48.13.05-.03.09-.07.12-.13l1.75-3.03c.1-.17.04-.38-.13-.48-.05-.03-.11-.04-.17-.04h-3.5c-.19,0-.35.16-.35.35,0,.06.02.12.05.17Z"/>
        </g>
      </g>
    </g>
    <g>
      <g>
        <path class="st7" d="M94.45,133.57l-.86,3.25h-.52l-.57-2.01c-.02-.07-.04-.15-.07-.25-.02-.09-.04-.18-.06-.26s-.03-.14-.04-.17c0,.03-.01.09-.03.17-.02.08-.03.17-.05.26-.02.09-.04.18-.07.26l-.56,1.99h-.52l-.85-3.25h.5l.48,1.92c.03.13.06.27.09.41s.05.27.07.38c.02-.12.04-.25.07-.4.03-.15.06-.28.1-.4l.54-1.92h.49l.56,1.93c.04.12.07.26.1.4.03.15.05.28.07.38.01-.11.03-.24.06-.38.03-.14.06-.28.1-.41l.48-1.92h.5Z"/>
        <path class="st7" d="M95.36,133.36v.92c0,.08,0,.15,0,.23,0,.08-.01.14-.02.19h.03c.08-.12.18-.22.32-.28s.28-.09.43-.09c.29,0,.51.07.66.21.15.14.23.37.23.68v1.6h-.48v-1.53c0-.38-.17-.57-.51-.57-.25,0-.42.08-.52.23-.09.15-.14.37-.14.64v1.23h-.48v-3.46h.48Z"/>
        <path class="st7" d="M98.71,134.32c.32,0,.57.1.76.3.18.2.28.47.28.81v.26h-1.65c0,.25.07.44.2.58.13.13.3.2.53.2.16,0,.3-.01.42-.04s.25-.07.38-.13v.4c-.12.06-.25.1-.37.12-.12.03-.27.04-.45.04-.24,0-.45-.05-.63-.14-.18-.09-.32-.23-.43-.42-.1-.18-.15-.42-.15-.69s.05-.51.14-.7c.09-.19.22-.34.39-.44.17-.1.36-.15.58-.15ZM98.71,134.69c-.17,0-.31.06-.42.17-.1.11-.17.27-.18.48h1.16c0-.19-.05-.35-.14-.47-.09-.12-.23-.18-.42-.18Z"/>
        <path class="st7" d="M101.59,134.32c.29,0,.5.07.66.21.15.14.23.37.23.69v1.6h-.48v-1.53c0-.38-.17-.57-.51-.57-.25,0-.42.07-.52.22-.1.15-.14.36-.14.64v1.24h-.48v-2.45h.38l.07.33h.03c.08-.13.19-.22.33-.28.14-.06.28-.09.44-.09Z"/>
        <path class="st7" d="M104.64,133.43c.07,0,.14.02.19.06.05.04.08.11.08.21s-.03.17-.08.21c-.05.04-.12.07-.19.07s-.14-.02-.2-.07c-.05-.04-.08-.11-.08-.21s.03-.17.08-.21c.05-.04.12-.06.2-.06ZM104.88,134.36v2.45h-.48v-2.45h.48Z"/>
        <path class="st7" d="M106.88,134.32c.28,0,.5.07.66.21.15.14.23.37.23.69v1.6h-.48v-1.53c0-.38-.17-.57-.51-.57-.25,0-.42.07-.52.22-.1.15-.14.36-.14.64v1.24h-.48v-2.45h.38l.07.33h.03c.08-.13.19-.22.33-.28.14-.06.28-.09.44-.09Z"/>
        <path class="st7" d="M110.13,136.12c0,.24-.09.43-.26.55-.17.12-.42.19-.73.19-.17,0-.32-.01-.44-.04-.12-.02-.24-.06-.34-.11v-.42c.11.05.23.1.38.14s.28.06.42.06c.18,0,.31-.03.39-.09.08-.06.12-.13.12-.23,0-.05-.02-.1-.05-.15s-.09-.09-.17-.14-.21-.1-.37-.16c-.16-.06-.29-.12-.4-.19-.11-.06-.19-.14-.25-.23-.06-.09-.09-.2-.09-.33,0-.21.09-.38.26-.49.17-.11.4-.17.68-.17.15,0,.29.02.42.05s.26.07.38.13l-.16.37c-.11-.05-.22-.08-.33-.12-.11-.03-.23-.05-.34-.05-.3,0-.45.09-.45.26,0,.06.02.11.05.15.04.04.1.08.18.13.09.04.21.09.36.15.15.06.28.12.38.18.11.06.19.14.25.23.06.09.09.2.09.33Z"/>
        <path class="st7" d="M111.59,136.47c.14,0,.26-.02.37-.06v.36c-.05.02-.12.04-.21.06s-.18.02-.26.02c-.13,0-.26-.02-.37-.07-.11-.05-.2-.12-.27-.24-.07-.11-.1-.27-.1-.47v-1.36h-.34v-.22l.36-.18.17-.52h.3v.55h.7v.37h-.7v1.35c0,.13.03.23.1.3.06.06.15.1.26.1Z"/>
        <path class="st7" d="M113.4,134.32c.31,0,.54.07.69.2.15.14.23.35.23.64v1.66h-.34l-.1-.34h-.02c-.11.13-.22.23-.33.29-.12.06-.28.09-.48.09-.22,0-.41-.06-.55-.18-.15-.12-.22-.31-.22-.56s.09-.44.28-.57c.19-.13.48-.2.87-.21h.42v-.15c0-.18-.04-.31-.12-.38-.08-.07-.2-.11-.35-.11-.12,0-.24.02-.36.05-.12.04-.23.08-.33.13l-.16-.35c.12-.06.25-.11.4-.15.15-.04.31-.06.47-.06ZM113.84,135.64h-.33c-.28.02-.47.07-.58.15-.11.08-.16.19-.16.34,0,.13.04.22.11.28.08.06.17.09.3.09.19,0,.34-.05.47-.16.13-.11.19-.27.19-.48v-.21Z"/>
        <path class="st7" d="M115.54,136.82h-.48v-3.46h.48v3.46Z"/>
        <path class="st7" d="M116.78,136.82h-.48v-3.46h.48v3.46Z"/>
        <path class="st7" d="M117.78,133.43c.07,0,.14.02.19.06.05.04.08.11.08.21s-.03.17-.08.21c-.05.04-.12.07-.19.07s-.14-.02-.2-.07c-.05-.04-.08-.11-.08-.21s.03-.17.08-.21c.05-.04.12-.06.2-.06ZM118.02,134.36v2.45h-.48v-2.45h.48Z"/>
        <path class="st7" d="M120.02,134.32c.28,0,.5.07.66.21.15.14.23.37.23.69v1.6h-.48v-1.53c0-.38-.17-.57-.5-.57-.25,0-.42.07-.52.22-.1.15-.14.36-.14.64v1.24h-.48v-2.45h.38l.07.33h.03c.08-.13.19-.22.33-.28.14-.06.28-.09.44-.09Z"/>
        <path class="st7" d="M122.49,134.32c.16,0,.3.03.43.09.13.06.24.15.32.28h.02l.05-.32h.39v2.49c0,.71-.38,1.06-1.13,1.06-.18,0-.34-.01-.49-.04-.15-.02-.28-.06-.41-.11v-.42c.13.06.27.11.43.14.16.03.32.05.5.05.2,0,.35-.06.46-.17s.17-.27.17-.48v-.08s0-.09,0-.15,0-.11,0-.15h-.02c-.08.13-.19.22-.31.28s-.26.09-.43.09c-.31,0-.55-.11-.73-.33-.17-.22-.26-.53-.26-.93s.09-.71.26-.94c.17-.23.42-.34.73-.34ZM122.59,134.72c-.19,0-.34.08-.44.22-.1.15-.15.37-.15.66s.05.5.15.65c.1.15.25.22.45.22.22,0,.39-.06.49-.18.1-.12.16-.32.16-.6v-.09c0-.32-.05-.54-.16-.68-.11-.13-.27-.2-.5-.2Z"/>
        <path class="st7" d="M127.81,135.59c0,.41-.1.72-.31.94-.21.22-.49.33-.85.33-.22,0-.42-.05-.59-.15-.17-.1-.31-.24-.41-.43s-.15-.42-.15-.69c0-.41.1-.72.31-.94.21-.22.49-.33.85-.33.22,0,.42.05.59.15.17.1.31.24.4.43s.15.42.15.69ZM126,135.59c0,.28.05.49.16.65.1.15.27.23.5.23s.39-.08.5-.23c.1-.16.16-.37.16-.65s-.05-.49-.16-.64c-.1-.15-.27-.22-.5-.22s-.39.08-.5.22c-.1.15-.15.36-.15.64Z"/>
        <path class="st7" d="M129.66,134.32c.29,0,.5.07.66.21s.23.37.23.69v1.6h-.48v-1.53c0-.38-.17-.57-.51-.57-.25,0-.42.07-.52.22-.1.15-.14.36-.14.64v1.24h-.48v-2.45h.38l.07.33h.03c.08-.13.19-.22.33-.28.14-.06.28-.09.44-.09Z"/>
        <path class="st7" d="M133.42,134.32c.31,0,.54.07.69.2.15.14.23.35.23.64v1.66h-.34l-.1-.34h-.02c-.11.13-.22.23-.33.29-.12.06-.28.09-.48.09-.22,0-.4-.06-.55-.18-.15-.12-.22-.31-.22-.56s.09-.44.28-.57c.19-.13.48-.2.87-.21h.42v-.15c0-.18-.04-.31-.12-.38-.08-.07-.2-.11-.35-.11-.12,0-.24.02-.36.05-.12.04-.23.08-.33.13l-.15-.35c.12-.06.25-.11.4-.15s.31-.06.47-.06ZM133.87,135.64h-.33c-.28.02-.47.07-.58.15-.11.08-.16.19-.16.34,0,.13.04.22.11.28.08.06.17.09.3.09.19,0,.34-.05.47-.16.13-.11.19-.27.19-.48v-.21Z"/>
        <path class="st7" d="M137.26,136.86c-.34,0-.61-.1-.82-.3-.21-.2-.31-.52-.31-.95,0-.3.05-.55.15-.74.1-.19.24-.33.41-.42.18-.09.38-.13.6-.13.14,0,.26.01.38.04.12.03.22.06.3.1l-.15.39c-.08-.03-.17-.06-.27-.08s-.18-.04-.27-.04c-.44,0-.66.29-.66.87,0,.28.05.49.16.64.11.15.27.22.48.22.13,0,.25-.02.36-.05s.2-.07.29-.12v.42c-.09.05-.18.09-.29.11-.1.02-.23.04-.38.04Z"/>
        <path class="st7" d="M139.46,134.32c.32,0,.57.1.76.3.18.2.28.47.28.81v.26h-1.65c0,.25.07.44.2.58.13.13.3.2.53.2.16,0,.3-.01.42-.04.12-.03.25-.07.38-.13v.4c-.12.06-.25.1-.37.12-.12.03-.27.04-.45.04-.24,0-.45-.05-.63-.14-.18-.09-.32-.23-.43-.42-.1-.18-.15-.42-.15-.69s.05-.51.14-.7c.09-.19.22-.34.39-.44.17-.1.36-.15.58-.15ZM139.46,134.69c-.17,0-.31.06-.42.17-.1.11-.17.27-.18.48h1.16c0-.19-.05-.35-.14-.47-.09-.12-.23-.18-.42-.18Z"/>
        <path class="st7" d="M141.35,133.43c.07,0,.14.02.19.06.05.04.08.11.08.21s-.03.17-.08.21c-.05.04-.12.07-.19.07s-.14-.02-.2-.07c-.05-.04-.08-.11-.08-.21s.03-.17.08-.21c.05-.04.12-.06.2-.06ZM141.59,134.36v2.45h-.48v-2.45h.48Z"/>
        <path class="st7" d="M142.82,136.82h-.48v-3.46h.48v3.46Z"/>
        <path class="st7" d="M143.82,133.43c.07,0,.14.02.19.06.05.04.08.11.08.21s-.03.17-.08.21c-.05.04-.12.07-.19.07s-.14-.02-.2-.07c-.05-.04-.08-.11-.08-.21s.03-.17.08-.21c.05-.04.12-.06.2-.06ZM144.06,134.36v2.45h-.48v-2.45h.48Z"/>
        <path class="st7" d="M146.06,134.32c.29,0,.5.07.66.21s.23.37.23.69v1.6h-.48v-1.53c0-.38-.17-.57-.51-.57-.25,0-.42.07-.52.22-.1.15-.14.36-.14.64v1.24h-.48v-2.45h.38l.07.33h.03c.08-.13.19-.22.33-.28.14-.06.28-.09.44-.09Z"/>
        <path class="st7" d="M148.53,134.32c.16,0,.3.03.43.09.13.06.24.15.32.28h.02l.05-.32h.39v2.49c0,.71-.38,1.06-1.13,1.06-.18,0-.34-.01-.49-.04-.15-.02-.28-.06-.41-.11v-.42c.13.06.27.11.43.14.16.03.32.05.5.05.2,0,.35-.06.46-.17s.17-.27.17-.48v-.08s0-.09,0-.15,0-.11,0-.15h-.02c-.08.13-.19.22-.31.28s-.26.09-.43.09c-.31,0-.55-.11-.73-.33-.17-.22-.26-.53-.26-.93s.09-.71.26-.94c.17-.23.42-.34.73-.34ZM148.63,134.72c-.19,0-.34.08-.44.22-.1.15-.15.37-.15.66s.05.5.15.65c.1.15.25.22.45.22.22,0,.39-.06.49-.18.1-.12.16-.32.16-.6v-.09c0-.32-.05-.54-.16-.68-.11-.13-.27-.2-.5-.2Z"/>
      </g>
      <g>
        <path class="st7" d="M94.05,147.79c-.22,0-.41-.04-.58-.13-.17-.09-.3-.22-.39-.41s-.14-.42-.14-.71.05-.54.15-.73.23-.33.41-.41.37-.13.59-.13c.12,0,.24.01.36.04.12.03.21.06.28.09l-.12.33c-.07-.03-.16-.05-.25-.08-.1-.02-.19-.04-.27-.04-.48,0-.72.31-.72.92,0,.29.06.52.18.68.12.16.29.23.52.23.13,0,.25-.01.35-.04s.2-.06.28-.1v.35c-.08.04-.17.08-.27.1-.1.02-.22.03-.36.03Z"/>
        <path class="st7" d="M96.18,145.26c.3,0,.52.07.66.2.14.13.21.34.21.62v1.66h-.29l-.08-.35h-.02c-.11.13-.22.23-.34.3-.12.06-.28.1-.48.1-.22,0-.41-.06-.55-.18-.15-.12-.22-.3-.22-.55s.1-.43.29-.56.49-.2.88-.22h.41v-.16c0-.2-.04-.34-.13-.42-.09-.08-.21-.12-.37-.12-.13,0-.25.02-.36.06-.12.04-.22.08-.32.13l-.12-.3c.11-.06.23-.11.38-.15.15-.04.3-.06.46-.06ZM96.65,146.55h-.36c-.3.03-.51.07-.63.16-.12.08-.18.2-.18.36,0,.14.04.24.13.3.08.06.19.1.32.1.2,0,.37-.06.51-.17.14-.11.21-.29.21-.53v-.22Z"/>
        <path class="st7" d="M100.48,145.26c.28,0,.48.07.62.21s.2.37.2.68v1.59h-.4v-1.57c0-.39-.17-.58-.5-.58-.24,0-.41.07-.51.2-.1.14-.15.34-.15.6v1.35h-.4v-1.57c0-.39-.17-.58-.5-.58-.25,0-.42.08-.51.23-.09.15-.14.37-.14.66v1.27h-.4v-2.44h.32l.06.33h.02c.08-.13.18-.22.31-.28.13-.06.27-.09.41-.09.38,0,.63.14.75.41h.02c.08-.14.19-.24.33-.31.14-.07.29-.1.45-.1Z"/>
        <path class="st7" d="M103,145.26c.21,0,.39.05.54.14.15.09.27.22.35.38.08.17.12.36.12.58v.24h-1.67c0,.28.08.49.21.63.14.14.32.22.57.22.15,0,.29-.01.41-.04s.24-.07.37-.12v.35c-.12.05-.25.09-.37.12s-.27.04-.43.04c-.23,0-.44-.05-.61-.14s-.31-.23-.41-.42-.15-.41-.15-.69.04-.5.13-.69c.09-.19.22-.34.38-.44.16-.1.35-.15.57-.15ZM103,145.58c-.19,0-.34.06-.45.18-.11.12-.18.29-.2.51h1.24c0-.21-.05-.37-.15-.5-.09-.13-.24-.19-.45-.19Z"/>
        <path class="st7" d="M105.77,145.26s.09,0,.15,0c.05,0,.1.01.14.02l-.05.37s-.08-.02-.13-.02c-.05,0-.09,0-.13,0-.12,0-.24.03-.35.1-.11.07-.2.16-.26.29-.06.12-.1.27-.1.43v1.3h-.4v-2.44h.33l.05.45h.02c.08-.13.18-.25.3-.35.13-.1.27-.15.44-.15Z"/>
        <path class="st7" d="M107.34,145.26c.3,0,.52.07.66.2.14.13.21.34.21.62v1.66h-.29l-.08-.35h-.02c-.11.13-.22.23-.34.3-.12.06-.28.1-.48.1-.22,0-.41-.06-.55-.18-.15-.12-.22-.3-.22-.55s.1-.43.29-.56.49-.2.88-.22h.41v-.16c0-.2-.04-.34-.13-.42-.09-.08-.21-.12-.37-.12-.13,0-.25.02-.36.06-.12.04-.22.08-.32.13l-.12-.3c.11-.06.23-.11.38-.15.15-.04.3-.06.46-.06ZM107.82,146.55h-.36c-.3.03-.51.07-.63.16-.12.08-.18.2-.18.36,0,.14.04.24.13.3.08.06.19.1.32.1.2,0,.37-.06.51-.17.14-.11.21-.29.21-.53v-.22Z"/>
        <path class="st7" d="M110.69,147.74l-.92-2.44h.43l.52,1.44c.02.07.05.14.08.22.03.08.05.16.07.24.02.08.04.14.05.19h.02s.03-.11.05-.19c.02-.08.05-.16.08-.24.03-.08.05-.15.08-.22l.52-1.44h.43l-.93,2.44h-.46Z"/>
        <path class="st7" d="M112.67,144.39c.06,0,.11.02.16.06.05.04.07.11.07.19s-.02.15-.07.19c-.05.04-.1.06-.16.06-.07,0-.12-.02-.17-.06s-.07-.11-.07-.19.02-.15.07-.19c.05-.04.1-.06.17-.06ZM112.87,145.3v2.44h-.4v-2.44h.4Z"/>
        <path class="st7" d="M114.58,145.26c.21,0,.39.05.54.14s.27.22.35.38c.08.17.12.36.12.58v.24h-1.67c0,.28.08.49.21.63s.32.22.57.22c.15,0,.29-.01.41-.04.12-.03.24-.07.37-.12v.35c-.12.05-.25.09-.37.12s-.27.04-.43.04c-.23,0-.44-.05-.61-.14s-.31-.23-.41-.42-.15-.41-.15-.69.04-.5.13-.69.22-.34.38-.44.35-.15.57-.15ZM114.58,145.58c-.19,0-.34.06-.45.18-.11.12-.18.29-.2.51h1.24c0-.21-.05-.37-.15-.5-.09-.13-.24-.19-.45-.19Z"/>
        <path class="st7" d="M118.11,147.74l-.42-1.37c-.04-.12-.07-.25-.1-.36s-.05-.21-.06-.28h-.02c-.01.07-.03.16-.06.28-.03.12-.06.24-.1.37l-.44,1.37h-.46l-.67-2.44h.41l.34,1.3c.03.13.07.26.1.4.03.13.05.24.06.33h.02c0-.05.02-.12.04-.19.02-.08.04-.16.06-.24.02-.08.04-.16.06-.22l.43-1.37h.44l.42,1.37c.03.11.06.22.1.34s.06.22.07.31h.02c0-.08.03-.18.06-.31.03-.13.07-.27.1-.41l.34-1.3h.41l-.68,2.44h-.47Z"/>
        <path class="st7" d="M119.9,144.39c.06,0,.11.02.16.06.05.04.07.11.07.19s-.02.15-.07.19c-.05.04-.1.06-.16.06-.07,0-.12-.02-.17-.06s-.07-.11-.07-.19.02-.15.07-.19c.05-.04.1-.06.17-.06ZM120.1,145.3v2.44h-.4v-2.44h.4Z"/>
        <path class="st7" d="M122.04,145.26c.29,0,.51.07.66.21.15.14.22.37.22.68v1.59h-.4v-1.56c0-.39-.18-.59-.55-.59-.27,0-.46.08-.56.23-.1.15-.15.37-.15.66v1.27h-.4v-2.44h.32l.06.33h.02c.08-.13.19-.22.33-.28s.29-.09.44-.09Z"/>
        <path class="st7" d="M124.55,145.26c.16,0,.31.03.43.09.13.06.24.15.33.28h.02l.05-.32h.32v2.48c0,.35-.09.61-.27.79-.18.18-.45.26-.83.26s-.65-.05-.88-.16v-.37c.24.13.54.19.9.19.21,0,.37-.06.49-.18.12-.12.18-.29.18-.5v-.1s0-.09,0-.16c0-.07,0-.12,0-.14h-.02c-.16.25-.42.37-.76.37-.32,0-.56-.11-.74-.33-.18-.22-.27-.53-.27-.93s.09-.7.27-.93c.18-.23.42-.34.74-.34ZM124.6,145.59c-.2,0-.36.08-.47.24-.11.16-.17.39-.17.69s.05.53.16.69c.11.16.27.24.49.24.25,0,.42-.07.54-.2.11-.13.17-.35.17-.64v-.1c0-.33-.06-.57-.17-.71-.12-.15-.3-.22-.54-.22Z"/>
        <path class="st7" d="M128.53,147.79c-.3,0-.55-.11-.73-.32-.18-.21-.27-.53-.27-.94s.09-.74.28-.95.43-.32.73-.32c.19,0,.34.04.46.1.12.07.22.16.29.26h.03s-.01-.1-.02-.18c0-.08,0-.14,0-.18v-.97h.4v3.46h-.32l-.06-.33h-.02c-.07.1-.17.19-.29.26-.12.07-.28.11-.47.11ZM128.59,147.45c.26,0,.44-.07.54-.21.1-.14.16-.35.16-.64v-.07c0-.3-.05-.54-.15-.7-.1-.16-.28-.24-.56-.24-.22,0-.38.09-.48.26-.11.17-.16.4-.16.69s.05.52.16.68c.11.16.27.24.49.24Z"/>
        <path class="st7" d="M130.67,144.39c.06,0,.11.02.16.06.05.04.07.11.07.19s-.02.15-.07.19c-.05.04-.1.06-.16.06-.07,0-.12-.02-.17-.06-.05-.04-.07-.11-.07-.19s.02-.15.07-.19c.05-.04.1-.06.17-.06ZM130.87,145.3v2.44h-.4v-2.44h.4Z"/>
        <path class="st7" d="M132.78,145.26s.09,0,.15,0c.05,0,.1.01.14.02l-.05.37s-.08-.02-.13-.02c-.05,0-.09,0-.13,0-.12,0-.24.03-.35.1-.11.07-.2.16-.26.29-.07.12-.1.27-.1.43v1.3h-.4v-2.44h.33l.05.45h.02c.08-.13.18-.25.3-.35.13-.1.27-.15.44-.15Z"/>
        <path class="st7" d="M134.37,145.26c.21,0,.39.05.54.14.15.09.27.22.35.38.08.17.12.36.12.58v.24h-1.67c0,.28.08.49.21.63s.32.22.57.22c.15,0,.29-.01.41-.04.12-.03.24-.07.37-.12v.35c-.12.05-.25.09-.37.12s-.27.04-.43.04c-.23,0-.44-.05-.61-.14s-.31-.23-.41-.42-.15-.41-.15-.69.04-.5.13-.69c.09-.19.22-.34.38-.44s.35-.15.57-.15ZM134.37,145.58c-.19,0-.34.06-.45.18-.11.12-.18.29-.2.51h1.24c0-.21-.05-.37-.15-.5-.09-.13-.24-.19-.45-.19Z"/>
        <path class="st7" d="M136.97,147.79c-.22,0-.41-.04-.58-.13-.17-.09-.3-.22-.39-.41s-.14-.42-.14-.71.05-.54.15-.73.23-.33.41-.41c.17-.09.37-.13.59-.13.12,0,.24.01.36.04s.21.06.28.09l-.12.33c-.07-.03-.16-.05-.26-.08-.1-.02-.19-.04-.27-.04-.48,0-.72.31-.72.92,0,.29.06.52.18.68.12.16.29.23.52.23.13,0,.25-.01.35-.04s.2-.06.28-.1v.35c-.08.04-.17.08-.27.1-.1.02-.22.03-.36.03Z"/>
        <path class="st7" d="M139,147.46c.06,0,.12,0,.19-.01.06,0,.12-.02.15-.04v.31s-.1.04-.18.05c-.08.01-.15.02-.23.02-.13,0-.25-.02-.35-.07s-.2-.12-.26-.23-.1-.26-.1-.46v-1.42h-.35v-.19l.35-.16.16-.52h.24v.56h.71v.31h-.71v1.41c0,.15.04.26.11.33.07.07.16.11.28.11Z"/>
        <path class="st7" d="M140.03,144.39c.06,0,.11.02.16.06.05.04.07.11.07.19s-.02.15-.07.19c-.05.04-.1.06-.16.06-.07,0-.12-.02-.17-.06-.05-.04-.07-.11-.07-.19s.02-.15.07-.19c.05-.04.1-.06.17-.06ZM140.22,145.3v2.44h-.4v-2.44h.4Z"/>
        <path class="st7" d="M143.12,146.52c0,.4-.1.72-.31.94s-.48.33-.83.33c-.22,0-.41-.05-.58-.15s-.3-.24-.4-.43c-.1-.19-.15-.42-.15-.69,0-.4.1-.71.3-.93.2-.22.48-.33.83-.33.22,0,.41.05.58.15.17.1.3.24.4.43s.14.42.14.69ZM141.28,146.52c0,.29.06.52.17.69.11.17.3.25.54.25s.43-.08.54-.25c.12-.17.17-.4.17-.69s-.06-.51-.17-.68c-.12-.16-.3-.25-.55-.25s-.43.08-.54.25c-.11.16-.17.39-.17.68Z"/>
        <path class="st7" d="M144.93,145.26c.29,0,.51.07.66.21.15.14.22.37.22.68v1.59h-.4v-1.56c0-.39-.18-.59-.55-.59-.27,0-.46.08-.56.23-.1.15-.15.37-.15.66v1.27h-.4v-2.44h.32l.06.33h.02c.08-.13.19-.22.33-.28s.29-.09.44-.09Z"/>
        <path class="st7" d="M146.51,147.5c0-.11.03-.19.08-.24.05-.05.12-.07.2-.07s.14.02.2.07c.06.05.09.12.09.24s-.03.19-.09.24c-.06.05-.12.07-.2.07s-.14-.02-.2-.07c-.05-.05-.08-.13-.08-.24Z"/>
      </g>
      <g>
        <path class="st7" d="M97.68,142.28l-.39-1.01h-1.29l-.39,1.01h-.41l1.27-3.26h.37l1.27,3.26h-.42ZM97.16,140.91l-.36-.98s-.02-.07-.05-.13-.04-.13-.06-.2c-.02-.07-.04-.12-.05-.16-.02.09-.05.19-.08.28-.03.09-.05.16-.07.21l-.37.98h1.03Z"/>
        <path class="st7" d="M98.89,142.28h-.4v-3.46h.4v3.46Z"/>
        <path class="st7" d="M99.87,138.92c.06,0,.11.02.16.06.05.04.07.11.07.19s-.02.15-.07.19c-.05.04-.1.06-.16.06-.07,0-.12-.02-.17-.06s-.07-.11-.07-.19.02-.15.07-.19c.05-.04.1-.06.17-.06ZM100.06,139.84v2.44h-.4v-2.44h.4Z"/>
        <path class="st7" d="M101.7,139.79c.16,0,.31.03.43.09.13.06.24.15.33.28h.02l.05-.32h.32v2.48c0,.35-.09.61-.27.79s-.45.26-.83.26-.65-.05-.88-.16v-.37c.24.13.54.19.9.19.21,0,.37-.06.49-.18.12-.12.18-.29.18-.5v-.1s0-.09,0-.16c0-.07,0-.12,0-.14h-.02c-.16.25-.42.37-.76.37-.32,0-.56-.11-.74-.33s-.27-.53-.27-.93.09-.7.27-.93c.18-.23.42-.34.74-.34ZM101.76,140.13c-.2,0-.36.08-.47.24-.11.16-.17.39-.17.69s.05.53.16.69c.11.16.27.24.49.24.25,0,.42-.07.54-.2.11-.13.17-.35.17-.64v-.1c0-.33-.06-.57-.17-.71-.12-.15-.3-.22-.54-.22Z"/>
        <path class="st7" d="M104.81,139.79c.29,0,.51.07.66.21.15.14.22.37.22.68v1.59h-.4v-1.56c0-.39-.18-.59-.55-.59-.27,0-.46.08-.56.23-.1.15-.15.37-.15.66v1.27h-.4v-2.44h.32l.06.33h.02c.08-.13.19-.22.33-.28s.29-.09.44-.09Z"/>
        <path class="st7" d="M108.45,142c.06,0,.12,0,.19-.01.06,0,.12-.02.15-.04v.31s-.1.04-.18.05c-.08.01-.16.02-.23.02-.13,0-.25-.02-.35-.07s-.2-.12-.26-.23-.1-.26-.1-.46v-1.42h-.35v-.19l.35-.16.16-.52h.24v.56h.71v.31h-.71v1.41c0,.15.04.26.11.33.07.07.16.11.28.11Z"/>
        <path class="st7" d="M109.68,138.82v1.01c0,.12,0,.24-.02.34h.03c.08-.12.19-.22.32-.28.14-.06.28-.1.44-.1.29,0,.52.07.67.21.15.14.23.37.23.68v1.59h-.4v-1.56c0-.39-.18-.59-.55-.59-.27,0-.46.08-.56.23-.1.15-.15.37-.15.66v1.26h-.4v-3.46h.4Z"/>
        <path class="st7" d="M113.03,139.79c.21,0,.39.05.54.14s.27.22.35.38c.08.17.12.36.12.58v.24h-1.67c0,.28.08.49.21.63s.32.22.57.22c.15,0,.29-.01.41-.04.12-.03.24-.07.37-.12v.35c-.12.05-.25.09-.37.12s-.27.04-.43.04c-.23,0-.44-.05-.61-.14s-.31-.23-.41-.42-.15-.41-.15-.69.04-.5.13-.69.22-.34.38-.44.35-.15.57-.15ZM113.03,140.12c-.19,0-.34.06-.45.18-.11.12-.18.29-.2.51h1.24c0-.21-.05-.37-.15-.5-.09-.13-.24-.19-.45-.19Z"/>
        <g>
          <path class="st7" d="M123.01,142c.06,0,.12,0,.19-.01.06,0,.12-.02.15-.04v.31s-.1.04-.18.05c-.08.01-.15.02-.23.02-.13,0-.25-.02-.35-.07s-.2-.12-.26-.23-.1-.26-.1-.46v-1.42h-.35v-.19l.35-.16.16-.52h.24v.56h.71v.31h-.71v1.41c0,.15.04.26.11.33.07.07.16.11.28.11Z"/>
          <path class="st7" d="M125.96,141.05c0,.4-.1.72-.31.94s-.48.33-.83.33c-.22,0-.41-.05-.58-.15s-.3-.24-.4-.43c-.1-.19-.15-.42-.15-.69,0-.4.1-.71.3-.93.2-.22.48-.33.83-.33.22,0,.41.05.58.15.17.1.3.24.4.43s.14.42.14.69ZM124.11,141.05c0,.29.06.52.17.69.11.17.3.25.54.25s.43-.08.54-.25c.12-.17.17-.4.17-.69s-.06-.51-.17-.68c-.12-.16-.3-.25-.55-.25s-.43.08-.54.25c-.11.16-.17.39-.17.68Z"/>
          <path class="st7" d="M128.49,142.27l-.42-1.37c-.04-.12-.07-.25-.1-.36s-.05-.21-.06-.28h-.02c-.01.07-.03.16-.06.28-.03.12-.06.24-.1.37l-.44,1.37h-.46l-.67-2.44h.41l.34,1.3c.03.13.07.26.1.4.03.13.05.24.06.33h.02c0-.05.02-.12.04-.19.02-.08.04-.16.06-.24.02-.08.04-.16.06-.22l.43-1.37h.44l.42,1.37c.03.11.06.22.1.34s.06.22.07.31h.02c0-.08.03-.18.06-.31.03-.13.07-.27.1-.41l.34-1.3h.41l-.68,2.44h-.47Z"/>
          <path class="st7" d="M131,139.8c.3,0,.52.07.66.2.14.13.21.34.21.62v1.66h-.29l-.08-.35h-.02c-.11.13-.22.23-.34.3-.12.06-.28.1-.48.1-.22,0-.41-.06-.55-.18-.15-.12-.22-.3-.22-.55s.1-.43.29-.56.49-.2.88-.22h.41v-.16c0-.2-.04-.34-.13-.42-.09-.08-.21-.12-.37-.12-.13,0-.25.02-.36.06-.12.04-.22.08-.32.13l-.12-.3c.11-.06.23-.11.38-.15.15-.04.3-.06.46-.06ZM131.48,141.09h-.36c-.3.03-.51.07-.63.16-.12.08-.18.2-.18.36,0,.14.04.24.12.3.08.06.19.1.32.1.2,0,.37-.06.51-.17.14-.11.21-.29.21-.53v-.22Z"/>
          <path class="st7" d="M133.77,139.79s.09,0,.15,0c.05,0,.1.01.14.02l-.05.37s-.08-.02-.13-.02c-.05,0-.09,0-.13,0-.12,0-.24.03-.35.1-.11.07-.2.16-.26.29-.07.12-.1.27-.1.43v1.3h-.4v-2.44h.33l.05.45h.02c.08-.13.18-.25.3-.35.13-.1.27-.15.44-.15Z"/>
          <path class="st7" d="M135.28,142.32c-.3,0-.55-.11-.73-.32-.18-.21-.27-.53-.27-.94s.09-.74.28-.95.43-.32.73-.32c.19,0,.34.04.46.1.12.07.22.16.29.26h.03s-.01-.1-.02-.18c0-.08,0-.14,0-.18v-.97h.4v3.46h-.32l-.06-.33h-.02c-.07.1-.17.19-.29.26-.12.07-.28.11-.47.11ZM135.35,141.99c.26,0,.44-.07.54-.21.1-.14.16-.35.16-.64v-.07c0-.3-.05-.54-.15-.7-.1-.16-.28-.24-.56-.24-.22,0-.38.09-.48.26-.11.17-.16.4-.16.69s.05.52.16.68c.11.16.27.24.49.24Z"/>
          <path class="st7" d="M139.22,142c.06,0,.12,0,.19-.01.06,0,.12-.02.15-.04v.31s-.1.04-.18.05c-.08.01-.15.02-.23.02-.13,0-.25-.02-.35-.07s-.2-.12-.26-.23-.1-.26-.1-.46v-1.42h-.35v-.19l.35-.16.16-.52h.24v.56h.71v.31h-.71v1.41c0,.15.04.26.11.33.07.07.16.11.28.11Z"/>
          <path class="st7" d="M140.45,138.82v1.01c0,.12,0,.24-.02.34h.03c.08-.12.19-.22.32-.28.13-.06.28-.1.44-.1.29,0,.52.07.67.21.15.14.23.37.23.68v1.59h-.4v-1.56c0-.39-.18-.59-.55-.59-.27,0-.46.08-.56.23-.1.15-.15.37-.15.66v1.26h-.4v-3.46h.4Z"/>
          <path class="st7" d="M143.8,139.79c.21,0,.39.05.54.14.15.09.27.22.35.38.08.17.12.36.12.58v.24h-1.67c0,.28.08.49.21.63s.32.22.57.22c.15,0,.29-.01.41-.04.12-.03.24-.07.37-.12v.35c-.12.05-.25.09-.37.12s-.27.04-.43.04c-.23,0-.44-.05-.61-.14s-.31-.23-.41-.42-.15-.41-.15-.69.04-.5.13-.69c.09-.19.22-.34.38-.44s.35-.15.57-.15ZM143.8,140.12c-.19,0-.34.06-.45.18-.11.12-.18.29-.2.51h1.24c0-.21-.05-.37-.15-.5-.09-.13-.24-.19-.45-.19Z"/>
        </g>
        <g>
          <path class="st7" d="M120.42,140.08c0-.21-.17-.38-.38-.38s-.38.17-.38.38v1.56c0,.07-.09.13-.16.14s-.14-.02-.17-.05-.06-.08-.06-.08l-.89-1.94s0-.01-.01-.02c-.1-.19-.39-.51-.85-.51-.55,0-.86.49-.89.54,0,0-.01.02-.01.03-.18.36-1.04,2.13-1.07,2.2-.09.19-.01.41.18.51.19.09.41.01.51-.18,0-.02.86-1.77,1.06-2.17.03-.05.14-.17.24-.17s.17.09.18.1l.88,1.91c.09.22.38.58.92.58.58,0,.85-.49.91-.74.01-.05.01-.15.01-.23v-1.49Z"/>
          <circle class="st7" cx="120.05" cy="139.14" r=".38"/>
        </g>
      </g>
    </g>
    <g>
      <line class="st0" x1="61.06" y1="97.76" x2="47.91" y2="115.45"/>
      <polygon class="st7" points="59.47 97.78 60.8 98.1 61.5 99.29 62.27 96.13 59.47 97.78"/>
    </g>
    <g>
      <line class="st0" x1="59.08" y1="72.96" x2="43.31" y2="115.45"/>
      <polygon class="st7" points="57.56 73.42 58.93 73.35 59.93 74.3 59.78 71.05 57.56 73.42"/>
    </g>
    <g>
      <line class="st3" x1="52.55" y1="120" x2="56.22" y2="120"/>
      <polygon class="st7" points="55.39 121.1 55.86 120 55.39 118.9 57.99 120 55.39 121.1"/>
    </g>
    <g>
      <line class="st0" x1="61.06" y1="141.88" x2="47.91" y2="124.19"/>
      <polygon class="st7" points="61.5 140.36 60.8 141.54 59.47 141.86 62.27 143.51 61.5 140.36"/>
    </g>
    <g>
      <line class="st0" x1="59.08" y1="166.68" x2="43.31" y2="124.19"/>
      <polygon class="st7" points="59.93 165.34 58.93 166.29 57.56 166.22 59.78 168.59 59.93 165.34"/>
    </g>
    <g>
      <path class="st7" d="M31.23,119.88c0,.66-.18,1.16-.54,1.49-.36.33-.87.5-1.52.5h-1.09v-3.9h1.21c.4,0,.74.07,1.03.22.29.15.52.36.68.64s.24.63.24,1.05ZM30.61,119.9c0-.49-.12-.85-.36-1.08-.24-.23-.58-.35-1.02-.35h-.58v2.91h.48c.98,0,1.47-.49,1.47-1.47Z"/>
      <path class="st7" d="M33.46,118.87c.12,0,.22,0,.32.03l-.06.54c-.09-.03-.19-.04-.29-.04-.15,0-.29.04-.42.11-.13.07-.23.18-.31.31-.08.14-.12.3-.12.49v1.55h-.58v-2.94h.46l.08.52h.02c.09-.16.21-.29.37-.41s.33-.17.53-.17Z"/>
      <path class="st7" d="M34.62,117.8c.09,0,.16.03.23.08.07.05.1.14.1.26s-.03.2-.1.25c-.07.05-.14.08-.23.08s-.17-.03-.23-.08c-.07-.05-.1-.14-.1-.25s.03-.21.1-.26c.07-.05.14-.08.23-.08ZM34.91,118.92v2.94h-.58v-2.94h.58Z"/>
      <path class="st7" d="M36.39,121.87h-.58v-4.15h.58v4.15Z"/>
      <path class="st7" d="M37.88,121.87h-.58v-4.15h.58v4.15Z"/>
      <path class="st7" d="M43.31,121.87h-.59v-1.78h-1.86v1.78h-.59v-3.9h.59v1.62h1.86v-1.62h.59v3.9Z"/>
      <path class="st7" d="M46.89,120.39c0,.49-.13.87-.38,1.13s-.59.4-1.02.4c-.27,0-.5-.06-.71-.18-.21-.12-.37-.29-.49-.52s-.18-.51-.18-.83c0-.49.12-.86.37-1.13.25-.26.59-.4,1.02-.4.27,0,.51.06.71.18.21.12.37.29.49.52s.18.5.18.83ZM44.72,120.39c0,.33.06.59.19.78.13.19.32.28.6.28s.47-.09.6-.28c.13-.19.19-.44.19-.78s-.06-.59-.19-.77c-.13-.18-.33-.27-.6-.27s-.47.09-.6.27c-.12.18-.19.44-.19.77Z"/>
      <path class="st7" d="M48.2,121.87h-.58v-4.15h.58v4.15Z"/>
      <path class="st7" d="M50.26,118.87c.39,0,.69.12.91.36s.33.56.33.97v.32h-1.98c0,.3.09.53.24.69.15.16.36.24.64.24.19,0,.36-.02.51-.05s.3-.09.46-.16v.48c-.15.07-.3.12-.45.15-.15.03-.33.05-.54.05-.28,0-.54-.06-.75-.17-.22-.11-.39-.28-.51-.5-.12-.22-.18-.5-.18-.83s.06-.61.17-.84c.11-.23.27-.41.46-.53.2-.12.43-.18.7-.18ZM50.26,119.32c-.21,0-.37.07-.5.2-.13.13-.2.33-.22.57h1.39c0-.23-.06-.42-.17-.56-.11-.14-.27-.22-.5-.22Z"/>
    </g>
  </g>
</svg>