<svg xmlns="http://www.w3.org/2000/svg" xmlns:xlink="http://www.w3.org/1999/xlink" id="_레이어_1" data-name="레이어_1" viewBox="0 0 240 240"><defs><linearGradient id="_무제_그라디언트_25" x1="20" x2="220" y1="120" y2="120" data-name="무제 그라디언트 25" gradientUnits="userSpaceOnUse"><stop offset="0" stop-color="#0a0a0a"/><stop offset=".34" stop-color="#3a3a38"/><stop offset=".67" stop-color="#2b2b2a"/><stop offset="1" stop-color="#272726"/></linearGradient><linearGradient xlink:href="#_무제_그라디언트_25" id="_무제_그라디언트_251" x1="223.99" x2="9.76" y1="120.02" y2="120.02" data-name="무제 그라디언트 25"/><linearGradient xlink:href="#_무제_그라디언트_25" id="_무제_그라디언트_252" x1="120.02" x2="120.02" y1="40.46" y2="14.35" data-name="무제 그라디언트 25"/><linearGradient id="_무제_그라디언트_46" x1="120.02" x2="120.02" y1="22.51" y2="39.57" data-name="무제 그라디언트 46" gradientUnits="userSpaceOnUse"><stop offset="0" stop-color="#454845"/><stop offset="1" stop-color="#232321"/></linearGradient><linearGradient xlink:href="#_무제_그라디언트_46" id="_무제_그라디언트_461" x1="82.77" x2="119.11" y1="27.95" y2="27.95" data-name="무제 그라디언트 46"/><linearGradient xlink:href="#_무제_그라디언트_46" id="_무제_그라디언트_462" x1="156.88" x2="122.02" y1="27.95" y2="27.95" data-name="무제 그라디언트 46"/><linearGradient xlink:href="#_무제_그라디언트_46" id="_무제_그라디언트_463" x1="122.45" x2="82.72" y1="31.65" y2="31.65" data-name="무제 그라디언트 46"/><linearGradient xlink:href="#_무제_그라디언트_46" id="_무제_그라디언트_464" x1="67.31" x2="27.58" y1="31.65" y2="31.65" data-name="무제 그라디언트 46" gradientTransform="matrix(-1 0 0 1 184.9 0)"/><linearGradient id="_무제_그라디언트_8" x1="88.1" x2="110.95" y1="36.86" y2="36.86" data-name="무제 그라디언트 8" gradientUnits="userSpaceOnUse"><stop offset=".14" stop-color="#6f7680"/><stop offset=".34" stop-color="#ccd5da"/><stop offset=".67" stop-color="#393d45"/><stop offset="1" stop-color="#73777c"/></linearGradient><linearGradient xlink:href="#_무제_그라디언트_8" id="_무제_그라디언트_81" x1="99.65" x2="89.1" y1="40.87" y2="28.76" data-name="무제 그라디언트 8"/><linearGradient id="_무제_그라디언트_9" x1="97.86" x2="94.75" y1="39.17" y2="34.95" data-name="무제 그라디언트 9" gradientUnits="userSpaceOnUse"><stop offset=".14" stop-color="#6f7680"/><stop offset="1" stop-color="#393d45"/></linearGradient><linearGradient xlink:href="#_무제_그라디언트_8" id="_무제_그라디언트_82" x1="135.78" x2="158.63" y1="203.14" y2="203.14" data-name="무제 그라디언트 8"/><linearGradient xlink:href="#_무제_그라디언트_8" id="_무제_그라디언트_83" x1="147.33" x2="136.78" y1="207.14" y2="195.03" data-name="무제 그라디언트 8"/><linearGradient xlink:href="#_무제_그라디언트_9" id="_무제_그라디언트_91" x1="145.54" x2="142.43" y1="205.44" y2="201.22" data-name="무제 그라디언트 9"/><linearGradient xlink:href="#_무제_그라디언트_8" id="_무제_그라디언트_84" x1="102.55" x2="117.19" y1="32.16" y2="32.16" data-name="무제 그라디언트 8"/><linearGradient xlink:href="#_무제_그라디언트_8" id="_무제_그라디언트_85" x1="105.33" x2="112.33" y1="28.82" y2="38.15" data-name="무제 그라디언트 8"/><linearGradient xlink:href="#_무제_그라디언트_9" id="_무제_그라디언트_92" x1="108.84" x2="106.84" y1="33.51" y2="30.81" data-name="무제 그라디언트 9"/><linearGradient xlink:href="#_무제_그라디언트_8" id="_무제_그라디언트_86" x1="126.87" x2="141.51" y1="32.16" y2="32.16" data-name="무제 그라디언트 8"/><linearGradient xlink:href="#_무제_그라디언트_8" id="_무제_그라디언트_87" x1="129.65" x2="136.65" y1="28.82" y2="38.15" data-name="무제 그라디언트 8"/><linearGradient xlink:href="#_무제_그라디언트_9" id="_무제_그라디언트_93" x1="133.16" x2="131.17" y1="33.51" y2="30.81" data-name="무제 그라디언트 9"/><linearGradient xlink:href="#_무제_그라디언트_46" id="_무제_그라디언트_465" x1="208.44" x2="215.67" y1="120" y2="120" data-name="무제 그라디언트 46"/><linearGradient xlink:href="#_무제_그라디언트_8" id="_무제_그라디언트_88" x1="205.86" x2="220.5" y1="103.79" y2="103.79" data-name="무제 그라디언트 8"/><linearGradient xlink:href="#_무제_그라디언트_8" id="_무제_그라디언트_89" x1="208.65" x2="215.65" y1="100.44" y2="109.78" data-name="무제 그라디언트 8"/><linearGradient xlink:href="#_무제_그라디언트_9" id="_무제_그라디언트_94" x1="212.15" x2="210.16" y1="105.14" y2="102.44" data-name="무제 그라디언트 9"/><linearGradient xlink:href="#_무제_그라디언트_8" id="_무제_그라디언트_810" x1="205.86" x2="220.5" y1="136.21" y2="136.21" data-name="무제 그라디언트 8"/><linearGradient xlink:href="#_무제_그라디언트_8" id="_무제_그라디언트_811" x1="208.65" x2="215.65" y1="132.86" y2="142.2" data-name="무제 그라디언트 8"/><linearGradient xlink:href="#_무제_그라디언트_9" id="_무제_그라디언트_95" x1="212.15" x2="210.16" y1="137.56" y2="134.86" data-name="무제 그라디언트 9"/><linearGradient xlink:href="#_무제_그라디언트_46" id="_무제_그라디언트_466" x1="212.44" x2="218.01" y1="120" y2="120" data-name="무제 그라디언트 46"/><linearGradient xlink:href="#_무제_그라디언트_25" id="_무제_그라디언트_253" x1="218.54" x2="218.73" y1="103.56" y2="103.56" data-name="무제 그라디언트 25"/><style>.st12,.st3,.st5,.st7{stroke:#000}.st5{stroke-width:.25px}.st3{fill:#fff}.st12,.st3,.st5,.st7{stroke-linecap:round;stroke-linejoin:round}.st12,.st3,.st7{stroke-width:.5px}.st5,.st7{fill:none}</style></defs><path d="M0 0h240v240H0z" style="fill:#fff"/><path id="ARC" d="M123.04 20.05c47.54 1.45 87.49 36.18 95.52 83.06l.17 1.02c1.69 10.52 1.69 21.23 0 31.75l-.17 1.02c-8.03 46.88-47.98 81.62-95.52 83.06-55.2 1.68-101.31-41.71-102.99-96.91S61.76 21.74 116.96 20.06l.73-.02c1.54-.04 3.08-.04 4.61 0l.73.02Z" style="fill:url(#_무제_그라디언트_25)"/><path id="ELLIPSE" d="M116.96 22.07C62.88 23.75 20.4 68.95 22.08 123.04c1.68 54.08 46.88 96.56 100.97 94.88 46.68-1.45 85.84-35.64 93.58-81.7h-.04c.1-.59.19-1.17.28-1.76h.03c.13-.86.25-1.73.35-2.6l.13-.06.09-.68c.85-7.4.85-14.87 0-22.27l-.09-.68-.13-.06c-.11-.87-.22-1.74-.35-2.61h-.03c-.09-.58-.18-1.16-.28-1.74h.04c-7.73-46.06-46.9-80.26-93.58-81.71h-6.08Z" style="fill:url(#_무제_그라디언트_251)"/><path d="M82.04 29.65c10.77-4.53 22.54-7.19 34.92-7.58h6.08c12.32.38 24.12 3.05 34.95 7.61l-.06.03v8.47h-55.08a.68.68 0 0 1-.68-.68v-.65a6.03 6.03 0 0 0-12.06 0v.65c0 .37-.3.68-.68.68h-7.4v-8.47" style="fill:url(#_무제_그라디언트_252)"/><path d="M120.79 23.76v14.35h-1.59V23.76" style="fill:url(#_무제_그라디언트_46);stroke:#000;stroke-width:.25px;stroke-miterlimit:10"/><path d="M84.17 30.69a96.3 96.3 0 0 1 35.08-6.93l-.02 1.35c-12.02.1-23.91 2.48-35.03 7.02l-.02-1.45Z" style="stroke:#000;stroke-width:.25px;stroke-miterlimit:10;fill:url(#_무제_그라디언트_461)"/><path d="M155.87 30.69a96.3 96.3 0 0 0-35.08-6.93l.02 1.35c12.02.1 23.91 2.48 35.03 7.02l.02-1.45Z" style="stroke:#000;stroke-width:.25px;stroke-miterlimit:10;fill:url(#_무제_그라디언트_462)"/><path d="M84.19 32.14a94.85 94.85 0 0 1 35.03-7.02v13.06h-16.34a.68.68 0 0 1-.68-.68v-.65a6.03 6.03 0 0 0-12.06 0v.65c0 .37-.3.68-.68.68h-5.28v-6.04" style="stroke:#000;stroke-width:.25px;stroke-miterlimit:10;fill:url(#_무제_그라디언트_463)"/><path d="M155.85 32.14a94.85 94.85 0 0 0-35.03-7.02v13.06h35.04v-6.04" style="stroke:#000;stroke-width:.25px;stroke-miterlimit:10;fill:url(#_무제_그라디언트_464)"/><path id="ARC1" d="M116.96 20.05c-55.2 1.68-98.59 47.79-96.91 102.99 1.48 48.78 37.67 88.34 84.16 95.72a102.94 102.94 0 0 0 13.91 1.22c1.25.02 2.51.02 3.77 0 .38 0 .77-.02 1.15-.03 3.03-.09 6.04-.32 9-.68 1.25-.15 2.5-.33 3.74-.52 41.79-6.65 75.47-39.24 82.78-81.86" class="st7" data-name="ARC"/><path d="M121.48 20.4s-.08-.03-.12-.03h-2.72c-.07 0-.13.03-.17.07-.04.05-.07.11-.07.17q0 .06.03.12l1.36 2.35c.03.06.08.1.15.11.06.02.13 0 .18-.03.04-.02.06-.05.09-.09l1.36-2.35a.23.23 0 0 0 .02-.18.26.26 0 0 0-.11-.14" style="fill:#e60012"/><path id="LINE" d="m122.7 20.65-1.37 2.78" class="st7"/><path id="LWPOLYLINE" d="M218.37 136.21h.05l.01-.01h.02l.02-.01.02-.01.02-.01.02-.01.02-.01.02-.01.01-.01.02-.02.02-.01.02-.02.01-.02.02-.02.01-.02.01-.02.01-.03.01-.02.01-.03.01-.02v-.03" class="st5"/><path id="LINE1" d="M218.56 136.89h-2.05" class="st5" data-name="LINE"/><path id="LINE2" d="M216.58 136.22h1.75" class="st5" data-name="LINE"/><path id="LINE3" d="M116.96 22.07v-2.02" class="st7" data-name="LINE"/><path id="LINE4" d="M117.3 20.43v.22" class="st7" data-name="LINE"/><path id="LINE5" d="M122.7 20.65v-.22" class="st7" data-name="LINE"/><path id="LINE6" d="M123.04 20.05v2.02" class="st7" data-name="LINE"/><path id="LINE7" d="M218.33 103.78h-1.75" class="st5" data-name="LINE"/><path id="LINE8" d="M216.51 103.11h2.05" class="st5" data-name="LINE"/><path id="LINE9" d="m118.67 23.43-1.37-2.78" class="st7" data-name="LINE"/><path id="LINE10" d="m217.38 108.19-.13-.06" class="st7" data-name="LINE"/><path id="LINE11" d="M218.73 104.12" class="st7" data-name="LINE"/><path id="LINE12" d="M218.73 135.87" class="st7" data-name="LINE"/><path id="LWPOLYLINE1" d="M218.73 104.12v-.01l-.01-.03-.01-.03-.01-.02-.01-.03-.01-.02-.02-.03-.01-.02-.02-.02-.02-.02-.02-.01-.02-.02-.02-.01-.02-.02-.03-.01-.02-.01h-.02l-.02-.01-.01-.01h-.06" class="st5" data-name="LWPOLYLINE"/><path id="ARC2" d="M122.31 20.03c-1.54-.04-3.08-.04-4.61 0" class="st7" data-name="ARC"/><path id="ARC3" d="M218.56 103.11c-8.03-46.88-47.98-81.62-95.52-83.06" class="st7" data-name="ARC"/><path id="ARC4" d="M218.73 135.87c1.69-10.52 1.69-21.23 0-31.75" class="st7" data-name="ARC"/><path id="ARC5" d="M172.02 142.7a57 57 0 0 1-3.21 6.26 6.74 6.74 0 0 1-4.81 3.23l-1.05.16c-1.57.23-3 1.01-4.05 2.2a51.6 51.6 0 0 1-10.03 8.73 6.73 6.73 0 0 1-5.75.83c-2.71-.84-5.61-.81-8.3.09a46.7 46.7 0 0 1-18.02 2.31c-25.69-1.77-45.08-24.02-43.31-49.71s24.02-45.08 49.71-43.31 45.08 24.02 43.31 49.71c-.19 2.73.46 5.45 1.85 7.81l3.28 5.55c1.1 1.87 1.24 4.15.38 6.14" class="st3" data-name="ARC"/><path id="ARC6" d="M206.49 140.33v8.81c0 4.12-.94 8.19-2.76 11.89-1.74 3.55-3.7 6.99-5.88 10.29-.03.05-.07.1-.1.15a4.06 4.06 0 0 1-5.66.9l-10.95-7.95a4.056 4.056 0 0 1-1.02-5.48c1-1.55 1.94-3.13 2.83-4.75 2.15-3.96 3.28-8.39 3.28-12.9V98.73c0-4.51-1.13-8.94-3.28-12.9-.88-1.62-1.82-3.21-2.83-4.75a4.05 4.05 0 0 1 1.02-5.48l10.95-7.95s.1-.07.15-.1a4.06 4.06 0 0 1 5.62 1.15c2.18 3.3 4.14 6.74 5.88 10.29 1.81 3.7 2.76 7.77 2.76 11.89v49.41" class="st3" data-name="ARC"/><path id="SPLINE" d="M218.37 136.21s0 0 0 0h-.04" class="st5"/><path id="SPLINE1" d="M218.33 103.78h.04" class="st5" data-name="SPLINE"/><path id="SPLINE2" d="M120.96 23.65c.07 0 .15-.02.22-.06s.12-.1.15-.17" class="st7" data-name="SPLINE"/><path id="SPLINE3" d="M118.67 23.43c.03.07.09.13.15.17s.14.06.22.06" class="st7" data-name="SPLINE"/><path id="SPLINE4" d="M117.69 20.03c-.1 0-.21.05-.28.12s-.12.18-.12.28" class="st7" data-name="SPLINE"/><path id="SPLINE5" d="M122.7 20.43c0-.1-.04-.21-.12-.28s-.18-.12-.28-.12" class="st7" data-name="SPLINE"/><path id="LINE13" d="m217.25 131.87.13-.06" class="st7" data-name="LINE"/><path id="ARC7" d="M217.47 131.13c.85-7.4.85-14.87 0-22.27" class="st7" data-name="ARC"/><path id="ARC8" d="M216.62 103.78c-7.73-46.06-46.9-80.25-93.58-81.7" class="st7" data-name="ARC"/><path id="ARC9" d="M116.96 22.07C62.88 23.75 20.4 68.95 22.08 123.04c1.48 47.77 36.92 86.49 82.44 93.72 1.24.2 2.48.37 3.74.52 3.24.39 6.53.62 9.85.68 1.26.02 2.52.02 3.79 0 .38 0 .76-.02 1.15-.03 2.94-.09 5.84-.31 8.72-.66 1.26-.15 2.51-.33 3.75-.52 41.04-6.55 74.07-38.63 81.11-80.51" class="st7" data-name="ARC"/><path id="ARC10" d="M216.9 134.48c.13-.87.25-1.74.35-2.61" class="st7" data-name="ARC"/><path id="ARC11" d="M217.25 108.13c-.11-.87-.22-1.74-.35-2.61" class="st7" data-name="ARC"/><path id="ARC12" d="M216.58 136.22c.1-.58.19-1.16.28-1.74" class="st7" data-name="ARC"/><path id="ARC13" d="M216.86 105.53c-.09-.58-.18-1.16-.28-1.74" class="st7" data-name="ARC"/><path id="ELLIPSE1" d="m217.38 131.81.09-.68" class="st7" data-name="ELLIPSE"/><path id="ELLIPSE2" d="m217.47 108.86-.09-.68" class="st7" data-name="ELLIPSE"/><path id="LINE14" d="m120.23 23.09 1.36-2.35" class="st7" data-name="LINE"/><path id="LINE15" d="m118.41 20.74 1.36 2.35" class="st7" data-name="LINE"/><path id="LINE16" d="M121.36 20.34h-2.72" class="st7" data-name="LINE"/><path id="ELLIPSE3" d="M119.77 23.09c.08.13.24.17.37.1.04-.02.07-.06.1-.1" class="st7" data-name="ELLIPSE"/><path id="ELLIPSE4" d="M118.64 20.34c-.15 0-.27.12-.27.27 0 .05.01.09.04.13" class="st7" data-name="ELLIPSE"/><path id="ELLIPSE5" d="M121.59 20.74c.08-.13.03-.3-.1-.37a.3.3 0 0 0-.13-.03" class="st7" data-name="ELLIPSE"/><path id="ARC14" d="m67.16 177.62-4.78-4.78a3.38 3.38 0 1 0-4.78 4.78l4.78 4.78a3.38 3.38 0 1 0 4.78-4.78" class="st3" data-name="ARC"/><path id="ARC15" d="M59.19 116.62h6.76c1.87 0 3.38 1.51 3.38 3.38s-1.51 3.38-3.38 3.38h-6.76c-1.87 0-3.38-1.51-3.38-3.38s1.51-3.38 3.38-3.38" class="st3" data-name="ARC"/><path id="ARC16" d="m78.48 157.7 3.82 3.82a3.38 3.38 0 1 1-4.78 4.78l-3.82-3.82a3.38 3.38 0 1 1 4.78-4.78" class="st3" data-name="ARC"/><path id="ARC17" d="m68.17 151.82-2.62-4.73a3.38 3.38 0 0 0-4.59-1.32c-1.63.9-2.22 2.96-1.32 4.59l2.62 4.73c.9 1.63 2.96 2.22 4.59 1.32s2.22-2.96 1.32-4.59" class="st3" data-name="ARC"/><path id="ARC18" d="m62.38 67.16 4.78-4.78a3.38 3.38 0 1 0-4.78-4.78l-4.78 4.78a3.38 3.38 0 1 0 4.78 4.78" class="st3" data-name="ARC"/><path id="ARC19" d="m82.3 78.48-3.82 3.82a3.38 3.38 0 1 1-4.78-4.78l3.82-3.82a3.38 3.38 0 1 1 4.78 4.78" class="st3" data-name="ARC"/><path id="ARC20" d="m65.55 92.91 2.62-4.73c.9-1.63.31-3.69-1.32-4.59s-3.69-.31-4.59 1.32l-2.62 4.73c-.9 1.63-.31 3.69 1.32 4.59s3.69.31 4.59-1.32" class="st3" data-name="ARC"/><path id="ARC21" d="M123.38 174.05v6.76c0 1.87-1.51 3.38-3.38 3.38s-3.38-1.51-3.38-3.38v-6.76c0-1.87 1.51-3.38 3.38-3.38s3.38 1.51 3.38 3.38" class="st3" data-name="ARC"/><path id="ARC22" d="m162.48 166.3 3.82-3.82a3.38 3.38 0 1 0-4.78-4.78l-3.82 3.82a3.38 3.38 0 1 0 4.78 4.78" class="st3" data-name="ARC"/><path id="ARC23" d="m182.4 177.62-4.78 4.78a3.38 3.38 0 1 1-4.78-4.78l4.78-4.78a3.38 3.38 0 1 1 4.78 4.78" class="st3" data-name="ARC"/><path id="ARC24" d="M174.73 116.62h5.41c1.87 0 3.38 1.51 3.38 3.38s-1.51 3.38-3.38 3.38h-5.41c-1.87 0-3.38-1.51-3.38-3.38s1.51-3.38 3.38-3.38" class="st3" data-name="ARC"/><path id="ARC25" d="m180.36 150.37-2.62 4.73a3.38 3.38 0 0 1-4.59 1.32 3.38 3.38 0 0 1-1.32-4.59l2.62-4.73c.9-1.63 2.96-2.22 4.59-1.32s2.22 2.96 1.32 4.59" class="st3" data-name="ARC"/><path id="ARC26" d="m166.3 77.52-3.82-3.82a3.38 3.38 0 1 0-4.78 4.78l3.82 3.82a3.38 3.38 0 1 0 4.78-4.78" class="st3" data-name="ARC"/><path id="ARC27" d="m177.74 84.91 2.62 4.73c.9 1.63.31 3.69-1.32 4.59s-3.69.31-4.59-1.32l-2.62-4.73c-.9-1.63-.31-3.69 1.32-4.59s3.69-.31 4.59 1.32" class="st3" data-name="ARC"/><path id="ARC28" d="m182.4 62.38-4.78-4.78a3.38 3.38 0 1 0-4.78 4.78l4.78 4.78a3.38 3.38 0 1 0 4.78-4.78" class="st3" data-name="ARC"/><path id="ARC29" d="M123.38 65.95v-6.76c0-1.87-1.51-3.38-3.38-3.38s-3.38 1.51-3.38 3.38v6.76c0 1.87 1.51 3.38 3.38 3.38s3.38-1.51 3.38-3.38" class="st3" data-name="ARC"/><path d="M126.21 202.4a.95.95 0 1 0-1.9 0v3.94c0 .19-.22.33-.41.34s-.34-.06-.44-.13-.15-.2-.15-.2l-2.25-4.88s-.02-.03-.03-.05c-.25-.47-.99-1.28-2.15-1.28-1.39 0-2.17 1.23-2.25 1.37-.01.02-.03.04-.04.07-.46.91-2.62 5.36-2.71 5.55a.95.95 0 0 0 .44 1.27c.47.23 1.04.03 1.27-.44.02-.05 2.17-4.47 2.67-5.48.09-.12.35-.43.61-.43s.43.22.46.26l2.22 4.82c.23.56.97 1.46 2.32 1.46 1.46 0 2.13-1.23 2.3-1.87.04-.14.03-.38.03-.57v-3.74Z"/><circle cx="125.26" cy="200.04" r=".95"/><circle id="CIRCLE" cx="96.16" cy="36.86" r="5.41" style="fill:url(#_무제_그라디언트_8)"/><circle id="CIRCLE1" cx="96.16" cy="36.86" r="4.32" data-name="CIRCLE" style="fill:url(#_무제_그라디언트_81)"/><path id="LINE17" d="m98.59 35.46-.81 1.4.81 1.41h-1.62l-.81 1.4-.81-1.4h-1.62l.81-1.41-.81-1.4h1.62l.81-1.4.81 1.4z" data-name="LINE" style="fill:url(#_무제_그라디언트_9)"/><circle id="CIRCLE2" cx="143.84" cy="203.14" r="5.41" data-name="CIRCLE" style="fill:url(#_무제_그라디언트_82)"/><circle id="CIRCLE3" cx="143.84" cy="203.14" r="4.32" data-name="CIRCLE" style="fill:url(#_무제_그라디언트_83)"/><path id="LINE18" d="m146.27 201.73-.81 1.41.81 1.4h-1.62l-.81 1.4-.81-1.4h-1.62l.81-1.4-.81-1.41h1.62l.81-1.4.81 1.4z" data-name="LINE" style="fill:url(#_무제_그라디언트_91)"/><path id="ARC30" d="M120.96 23.65h-1.92" class="st7" data-name="ARC"/><circle id="CIRCLE4" cx="107.84" cy="32.16" r="4.4" data-name="CIRCLE" style="fill:url(#_무제_그라디언트_84)"/><circle id="CIRCLE5" cx="107.84" cy="32.16" r="2.84" data-name="CIRCLE" style="fill:url(#_무제_그라디언트_85)"/><path id="LINE19" d="M106.15 31.62v1.08h1.15v1.15h1.08V32.7h1.15v-1.08h-1.15v-1.15h-1.08v1.15z" data-name="LINE" style="fill:url(#_무제_그라디언트_92)"/><circle id="CIRCLE6" cx="132.16" cy="32.16" r="4.4" data-name="CIRCLE" style="fill:url(#_무제_그라디언트_86)"/><circle id="CIRCLE7" cx="132.16" cy="32.16" r="2.84" data-name="CIRCLE" style="fill:url(#_무제_그라디언트_87)"/><path id="LINE20" d="M130.47 31.62v1.08h1.15v1.15h1.08V32.7h1.15v-1.08h-1.15v-1.15h-1.08v1.15z" data-name="LINE" style="fill:url(#_무제_그라디언트_93)"/><path d="M82.05 32.66v5.53M90.13 37.52v-.66M102.2 37.52v-.66M157.95 38.19v-5.53M82.05 38.19h7.4M102.87 38.19h55.08M157.95 32.66v-1.73M157.95 30.93v-.71M102.2 36.86a6.03 6.03 0 0 0-12.06 0M82.06 30.22v.71M82.05 30.93v1.73M82.07 29.71s0 0 0 0v.5M157.94 30.22v-.5q0 0 0 0M89.45 38.19c.37 0 .68-.3.68-.68M102.2 37.52c0 .37.3.68.68.68M116.96 22.07a97.7 97.7 0 0 0-34.92 7.58M157.99 29.68c-10.83-4.56-22.63-7.22-34.95-7.61M155.83 38.15v-.01" class="st7"/><path id="ELLIPSE6" d="m217.42 108.19.09.68c.85 7.4.85 14.87 0 22.27l-.09.68-.13.06c-.11.87-.22 1.74-.35 2.61h-.03s0 0 0 0h-1.71l-.02.02s0 0 0 0q0 0 0 0t0 0v.05c0 .02.01.03.02.05 0 .02.01.04.02.06 0 .02.02.05.02.07 0 .03.02.05.03.08 0 .03.02.06.03.09l.06.2c.02.08.04.15.05.23.02.08.03.17.04.25l.03.26q.03.36 0 .72c0 .09-.02.18-.03.26s-.03.17-.04.25c-.02.08-.03.15-.05.23-.02.07-.04.14-.06.2 0 .03-.02.06-.03.09 0 .03-.02.05-.03.08 0 .02-.02.05-.02.07s-.01.04-.02.06c0 .02-.01.03-.02.05v.05q0 0 0 0t0 0 0 0h0l.01.02h0s.02.01.03.01c.37.07.61.43.53.79-.12.6-.24 1.2-.37 1.8a1.35 1.35 0 0 1-1.32 1.07h-6.22c-.75 0-1.35-.61-1.35-1.35V99.71c0-.75.61-1.35 1.35-1.35h6.22c.64 0 1.19.44 1.32 1.07.13.6.25 1.2.37 1.8.07.36-.16.71-.51.79h-.05 0l-.02.03q0 0 0 0t0 0 0 0v.05c0 .02.01.03.02.05 0 .02.01.04.02.06 0 .02.02.05.02.07 0 .03.02.05.03.08 0 .03.02.06.03.09l.06.2c.02.08.04.15.05.23.02.08.03.17.04.25l.03.26q.03.36 0 .72c0 .09-.02.18-.03.26s-.03.17-.04.25c-.02.08-.03.15-.05.23-.02.07-.04.14-.06.2 0 .03-.02.06-.03.09 0 .03-.02.05-.03.08 0 .02-.02.05-.02.07s-.01.04-.02.06c0 .02-.01.03-.02.05v.05q0 0 0 0t0 0 0 0l.02.02h1.74c.13.87.25 1.74.35 2.61" data-name="ELLIPSE" style="stroke:#000;stroke-width:.25px;stroke-linecap:round;stroke-linejoin:round;fill:url(#_무제_그라디언트_465)"/><circle id="CIRCLE8" cx="211.16" cy="103.79" r="4.4" data-name="CIRCLE" style="fill:url(#_무제_그라디언트_88)"/><circle id="CIRCLE9" cx="211.16" cy="103.79" r="2.84" data-name="CIRCLE" style="fill:url(#_무제_그라디언트_89)"/><path id="LINE21" d="M209.47 103.25v1.08h1.15v1.15h1.08v-1.15h1.15v-1.08h-1.15v-1.15h-1.08v1.15z" data-name="LINE" style="fill:url(#_무제_그라디언트_94)"/><circle id="CIRCLE10" cx="211.16" cy="136.21" r="4.4" data-name="CIRCLE" style="fill:url(#_무제_그라디언트_810)"/><circle id="CIRCLE11" cx="211.16" cy="136.21" r="2.84" data-name="CIRCLE" style="fill:url(#_무제_그라디언트_811)"/><path id="LINE22" d="M209.47 135.67v1.08h1.15v1.15h1.08v-1.15h1.15v-1.08h-1.15v-1.15h-1.08v1.15z" data-name="LINE" style="fill:url(#_무제_그라디언트_95)"/><path id="ELLIPSE7" d="M217.04 120.81h-3.12v-1.62h3.12a96 96 0 0 0-.56-9.59h-2.57v-.79l.69-.68h2.64l.17.06.09.68c.85 7.4.85 14.87 0 22.27l-.09.68-.13.06h-2.69l-.69-.68v-.79h2.57c.34-3.19.53-6.39.56-9.59Z" data-name="ELLIPSE" style="stroke:#000;stroke-width:.25px;stroke-linecap:round;stroke-linejoin:round;fill:url(#_무제_그라디언트_466)"/><path d="m104.49 216.74-.28 2.01v.02c1.24.2 2.5.37 3.76.52v-.02l.27-2.01v.02a92 92 0 0 1-3.72-.52M121.89 219.98c-1.26.02-2.52.02-3.77 0h0v-2.03h0c1.26.03 2.52.02 3.79 0v2.03M135.79 218.75c-1.24.2-2.49.37-3.74.52h0l-.28-2.01h0c1.26-.15 2.51-.32 3.75-.52h0l.28 2" class="st12"/><path d="m218.54 103 .19 1.12" style="stroke:#000;stroke-miterlimit:10;stroke-width:.5px;fill:url(#_무제_그라디언트_253)"/><path d="m218.74 135.81-.22 1.36" class="st7"/></svg>