<?xml version="1.0" encoding="UTF-8"?>
<svg id="_레이어_1" xmlns="http://www.w3.org/2000/svg" version="1.1" viewBox="0 0 240 249">
  <!-- Generator: Adobe Illustrator 30.5.0, SVG Export Plug-In . SVG Version: 2.1.4 Build 167)  -->
  <defs>
    <style>
      .st0 {
        fill: #e60012;
      }

      .st1 {
        fill: #fff;
      }

      .st2 {
        stroke-width: .25px;
      }

      .st2, .st3, .st4, .st5, .st6, .st7 {
        fill: none;
        stroke-linejoin: round;
      }

      .st2, .st3, .st5 {
        stroke: #000;
        stroke-linecap: round;
      }

      .st8 {
        fill: #a32343;
      }

      .st4 {
        stroke-dasharray: 3.07 3.05 .01 0 0 0;
      }

      .st4, .st6 {
        stroke: #a42444;
        stroke-width: 3px;
      }

      .st5 {
        stroke-width: .5px;
      }

      .st6 {
        stroke-dasharray: 3.07 3.05 .01 0 0 0;
      }

      .st7 {
        stroke: #fff;
        stroke-width: 5px;
      }
    </style>
  </defs>
  <rect class="st1" width="240" height="249"/>
  <path class="st0" d="M121.48,32.09s-.08-.03-.12-.03h-2.72c-.07,0-.13.03-.17.07-.04.05-.07.11-.07.17,0,.04.01.08.03.12h0l1.36,2.35c.03.06.08.1.15.11.06.02.13,0,.18-.03.04-.02.06-.05.09-.09l1.36-2.35c.03-.06.04-.12.02-.18-.02-.06-.06-.11-.11-.14Z"/>
  <g id="LINE">
    <line class="st5" x1="119.23" y1="35.47" x2="119.32" y2="35.43"/>
  </g>
  <g id="LINE1">
    <line class="st5" x1="82.05" y1="44.36" x2="82.05" y2="49.89"/>
  </g>
  <g id="LINE2">
    <line class="st5" x1="84.17" y1="49.84" x2="84.17" y2="43.85"/>
  </g>
  <g id="LINE3">
    <line class="st5" x1="122.7" y1="32.34" x2="121.33" y2="35.12"/>
  </g>
  <g id="LINE4">
    <line class="st5" x1="155.83" y1="49.84" x2="155.83" y2="49.84"/>
  </g>
  <g id="LINE5">
    <line class="st5" x1="164" y1="163.89" x2="162.95" y2="164.04"/>
  </g>
  <g id="LINE6">
    <line class="st5" x1="90.13" y1="49.21" x2="90.13" y2="48.56"/>
  </g>
  <g id="LWPOLYLINE">
    <polyline class="st5" points="218.37 147.91 218.38 147.91 218.39 147.9 218.4 147.9 218.42 147.9 218.43 147.89 218.45 147.89 218.47 147.88 218.49 147.88 218.51 147.87 218.53 147.86 218.55 147.85 218.57 147.83 218.58 147.82 218.6 147.8 218.62 147.79 218.64 147.77 218.65 147.75 218.67 147.73 218.68 147.71 218.69 147.69 218.7 147.67 218.71 147.64 218.72 147.62 218.73 147.59 218.73 147.57"/>
  </g>
  <g id="LINE7">
    <line class="st5" x1="207.84" y1="153.31" x2="214.06" y2="153.31"/>
  </g>
  <g id="LINE8">
    <line class="st5" x1="102.2" y1="49.21" x2="102.2" y2="48.56"/>
  </g>
  <g id="LINE9">
    <line class="st2" x1="218.56" y1="148.58" x2="216.51" y2="148.58"/>
  </g>
  <g id="LINE10">
    <line class="st2" x1="216.58" y1="147.91" x2="218.33" y2="147.91"/>
  </g>
  <g id="LINE11">
    <line class="st5" x1="215.19" y1="146.17" x2="216.9" y2="146.17"/>
  </g>
  <g id="LINE12">
    <line class="st5" x1="214.6" y1="143.57" x2="217.25" y2="143.57"/>
  </g>
  <g id="LINE13">
    <line class="st5" x1="216.49" y1="142.1" x2="213.92" y2="142.1"/>
  </g>
  <g id="LINE14">
    <line class="st5" x1="116.96" y1="33.77" x2="116.96" y2="31.74"/>
  </g>
  <g id="LINE15">
    <line class="st5" x1="117.3" y1="32.12" x2="117.3" y2="32.34"/>
  </g>
  <g id="LINE16">
    <line class="st2" x1="118.11" y1="231.67" x2="118.11" y2="229.65"/>
  </g>
  <g id="LINE17">
    <line class="st2" x1="119.21" y1="49.84" x2="119.21" y2="36.83"/>
  </g>
  <g id="LINE18">
    <line class="st2" x1="120.79" y1="49.84" x2="120.79" y2="36.83"/>
  </g>
  <g id="LINE19">
    <line class="st2" x1="104.21" y1="230.44" x2="104.49" y2="228.43"/>
  </g>
  <g id="LINE20">
    <line class="st5" x1="192.08" y1="79.32" x2="181.14" y2="87.27"/>
  </g>
  <g id="LINE21">
    <line class="st5" x1="213.92" y1="132.5" x2="217.04" y2="132.5"/>
  </g>
  <g id="LINE22">
    <line class="st5" x1="217.04" y1="130.88" x2="213.92" y2="130.88"/>
  </g>
  <g id="LINE23">
    <line class="st5" x1="181.14" y1="176.11" x2="192.08" y2="184.06"/>
  </g>
  <g id="LINE24">
    <line class="st2" x1="132.04" y1="230.96" x2="131.76" y2="228.96"/>
  </g>
  <g id="LINE25">
    <line class="st2" x1="121.89" y1="229.65" x2="121.89" y2="231.67"/>
  </g>
  <g id="LINE26">
    <line class="st5" x1="122.7" y1="32.34" x2="122.7" y2="32.12"/>
  </g>
  <g id="LINE27">
    <line class="st5" x1="123.04" y1="31.74" x2="123.04" y2="33.77"/>
  </g>
  <g id="LINE28">
    <line class="st2" x1="108.24" y1="228.96" x2="107.96" y2="230.96"/>
  </g>
  <g id="LINE29">
    <line class="st5" x1="213.92" y1="121.29" x2="216.49" y2="121.29"/>
  </g>
  <g id="LINE30">
    <line class="st5" x1="217.25" y1="119.82" x2="214.6" y2="119.82"/>
  </g>
  <g id="LINE31">
    <line class="st2" x1="135.51" y1="228.43" x2="135.79" y2="230.44"/>
  </g>
  <g id="LINE32">
    <line class="st5" x1="216.9" y1="117.21" x2="215.19" y2="117.21"/>
  </g>
  <g id="LINE33">
    <line class="st2" x1="218.33" y1="115.48" x2="216.58" y2="115.48"/>
  </g>
  <g id="LINE34">
    <line class="st2" x1="216.51" y1="114.8" x2="218.56" y2="114.8"/>
  </g>
  <g id="LINE35">
    <line class="st5" x1="214.06" y1="110.07" x2="207.84" y2="110.07"/>
  </g>
  <g id="LINE36">
    <line class="st5" x1="155.83" y1="49.84" x2="155.83" y2="43.85"/>
  </g>
  <g id="LINE37">
    <line class="st5" x1="157.95" y1="49.89" x2="157.95" y2="44.36"/>
  </g>
  <g id="LINE38">
    <line class="st5" x1="168.36" y1="142.7" x2="171.64" y2="148.25"/>
  </g>
  <g id="LINE39">
    <line class="st5" x1="118.67" y1="35.12" x2="117.3" y2="32.34"/>
  </g>
  <g id="LINE40">
    <line class="st5" x1="217.25" y1="143.57" x2="217.38" y2="143.5"/>
  </g>
  <g id="LINE41">
    <line class="st5" x1="217.38" y1="119.88" x2="217.25" y2="119.82"/>
  </g>
  <g id="LINE42">
    <line class="st5" x1="186.22" y1="110.41" x2="186.22" y2="152.97"/>
  </g>
  <g id="LINE43">
    <line class="st5" x1="213.92" y1="120.49" x2="214.6" y2="119.82"/>
  </g>
  <g id="LINE44">
    <line class="st5" x1="214.6" y1="143.57" x2="213.92" y2="142.89"/>
  </g>
  <g id="LINE45">
    <line class="st5" x1="215.17" y1="149.62" x2="215.17" y2="149.62"/>
  </g>
  <g id="LINE46">
    <line class="st5" x1="206.49" y1="111.42" x2="206.49" y2="151.96"/>
  </g>
  <g id="LINE47">
    <line class="st5" x1="206.49" y1="160.83" x2="206.49" y2="152.02"/>
  </g>
  <g id="LINE48">
    <line class="st5" x1="206.49" y1="111.42" x2="206.49" y2="102.55"/>
  </g>
  <g id="LINE49">
    <line class="st5" x1="218.73" y1="115.82" x2="218.73" y2="115.82"/>
  </g>
  <g id="LINE50">
    <line class="st5" x1="82.05" y1="49.89" x2="89.45" y2="49.89"/>
  </g>
  <g id="LINE51">
    <line class="st5" x1="102.87" y1="49.89" x2="157.95" y2="49.89"/>
  </g>
  <g id="LINE52">
    <line class="st5" x1="120.77" y1="35.47" x2="120.68" y2="35.43"/>
  </g>
  <g id="LINE53">
    <line class="st5" x1="218.73" y1="147.57" x2="218.73" y2="147.57"/>
  </g>
  <g id="LINE54">
    <line class="st5" x1="213.92" y1="120.49" x2="213.92" y2="121.29"/>
  </g>
  <g id="LINE55">
    <line class="st5" x1="213.92" y1="130.88" x2="213.92" y2="132.5"/>
  </g>
  <g id="LINE56">
    <line class="st5" x1="213.92" y1="142.1" x2="213.92" y2="142.89"/>
  </g>
  <g id="LINE57">
    <line class="st5" x1="215.18" y1="149.65" x2="215.19" y2="149.64"/>
  </g>
  <g id="LINE58">
    <line class="st5" x1="215.19" y1="113.74" x2="215.18" y2="113.73"/>
  </g>
  <g id="LWPOLYLINE1">
    <polyline class="st5" points="218.73 115.82 218.73 115.8 218.72 115.78 218.71 115.75 218.7 115.72 218.69 115.69 218.68 115.67 218.66 115.65 218.65 115.62 218.63 115.6 218.61 115.58 218.59 115.57 218.57 115.55 218.55 115.54 218.53 115.53 218.5 115.51 218.48 115.51 218.46 115.5 218.44 115.49 218.43 115.49 218.41 115.48 218.4 115.48 218.38 115.48 218.37 115.48"/>
  </g>
  <g id="ARC">
    <path class="st5" d="M157.95,44.36v-1.73"/>
  </g>
  <g id="ARC1">
    <path class="st5" d="M157.95,42.62v-.71"/>
  </g>
  <g id="ARC2">
    <path class="st5" d="M102.2,48.56c0-3.33-2.7-6.03-6.03-6.03s-6.03,2.7-6.03,6.03"/>
  </g>
  <g>
    <g id="LINE59">
      <line class="st2" x1="96.16" y1="45.75" x2="95.35" y2="47.15"/>
    </g>
    <g id="LINE60">
      <line class="st2" x1="94.54" y1="48.56" x2="93.73" y2="49.96"/>
    </g>
    <g id="LINE61">
      <line class="st2" x1="96.16" y1="51.36" x2="96.97" y2="49.96"/>
    </g>
    <g id="LINE62">
      <line class="st2" x1="97.78" y1="48.56" x2="98.59" y2="47.15"/>
    </g>
    <g id="LINE63">
      <line class="st2" x1="93.73" y1="47.15" x2="94.54" y2="48.56"/>
    </g>
    <g id="LINE64">
      <line class="st2" x1="95.35" y1="49.96" x2="96.16" y2="51.36"/>
    </g>
    <g id="LINE65">
      <line class="st2" x1="98.59" y1="49.96" x2="97.78" y2="48.56"/>
    </g>
    <g id="LINE66">
      <line class="st2" x1="96.97" y1="47.15" x2="96.16" y2="45.75"/>
    </g>
    <g id="LINE67">
      <line class="st2" x1="93.73" y1="49.96" x2="95.35" y2="49.96"/>
    </g>
    <g id="LINE68">
      <line class="st2" x1="96.97" y1="49.96" x2="98.59" y2="49.96"/>
    </g>
    <g id="LINE69">
      <line class="st2" x1="98.59" y1="47.15" x2="96.97" y2="47.15"/>
    </g>
    <g id="LINE70">
      <line class="st2" x1="95.35" y1="47.15" x2="93.73" y2="47.15"/>
    </g>
    <g id="CIRCLE">
      <circle class="st2" cx="96.16" cy="48.56" r="4.32"/>
    </g>
  </g>
  <g id="ARC3">
    <path class="st5" d="M143.12,175.8c-2.71-.84-5.61-.81-8.3.09"/>
  </g>
  <g>
    <g id="LINE71">
      <line class="st2" x1="141.41" y1="216.23" x2="143.03" y2="216.23"/>
    </g>
    <g id="LINE72">
      <line class="st2" x1="144.65" y1="216.23" x2="146.27" y2="216.23"/>
    </g>
    <g id="LINE73">
      <line class="st2" x1="146.27" y1="213.42" x2="144.65" y2="213.42"/>
    </g>
    <g id="LINE74">
      <line class="st2" x1="143.03" y1="213.42" x2="141.41" y2="213.42"/>
    </g>
    <g id="LINE75">
      <line class="st2" x1="141.41" y1="213.42" x2="142.22" y2="214.83"/>
    </g>
    <g id="LINE76">
      <line class="st2" x1="143.03" y1="216.23" x2="143.84" y2="217.64"/>
    </g>
    <g id="LINE77">
      <line class="st2" x1="146.27" y1="216.23" x2="145.46" y2="214.83"/>
    </g>
    <g id="LINE78">
      <line class="st2" x1="144.65" y1="213.42" x2="143.84" y2="212.02"/>
    </g>
    <g id="LINE79">
      <line class="st2" x1="143.84" y1="212.02" x2="143.03" y2="213.42"/>
    </g>
    <g id="LINE80">
      <line class="st2" x1="142.22" y1="214.83" x2="141.41" y2="216.23"/>
    </g>
    <g id="LINE81">
      <line class="st2" x1="143.84" y1="217.64" x2="144.65" y2="216.23"/>
    </g>
    <g id="LINE82">
      <line class="st2" x1="145.46" y1="214.83" x2="146.27" y2="213.42"/>
    </g>
    <g id="CIRCLE1">
      <circle class="st2" cx="143.84" cy="214.83" r="4.32"/>
    </g>
  </g>
  <g id="ARC4">
    <path class="st5" d="M122.31,31.72c-1.54-.04-3.08-.04-4.61,0"/>
  </g>
  <g id="ARC5">
    <path class="st5" d="M116.96,31.74c-55.2,1.68-98.59,47.79-96.91,102.99,1.68,55.2,47.79,98.59,102.99,96.91,47.54-1.45,87.49-36.18,95.52-83.06"/>
  </g>
  <g id="ARC6">
    <path class="st5" d="M218.56,114.8c-8.03-46.88-47.98-81.62-95.52-83.06"/>
  </g>
  <g id="ARC7">
    <path class="st5" d="M218.73,147.57c1.69-10.52,1.69-21.23,0-31.75"/>
  </g>
  <g id="ARC8">
    <path class="st5" d="M217.47,142.83c.85-7.4.85-14.87,0-22.27"/>
  </g>
  <g id="ARC9">
    <path class="st5" d="M216.62,115.47c-7.73-46.06-46.9-80.25-93.58-81.7"/>
  </g>
  <g id="ARC10">
    <path class="st5" d="M116.96,33.77c-54.08,1.68-96.56,46.88-94.88,100.97,1.68,54.08,46.88,96.56,100.97,94.88,46.68-1.45,85.84-35.64,93.58-81.7"/>
  </g>
  <g id="ARC11">
    <path class="st5" d="M216.9,146.17c.13-.87.25-1.74.35-2.61"/>
  </g>
  <g id="ARC12">
    <path class="st5" d="M217.25,119.82c-.11-.87-.22-1.74-.35-2.61"/>
  </g>
  <g id="ARC13">
    <path class="st5" d="M216.58,147.91c.1-.58.19-1.16.28-1.74"/>
  </g>
  <g id="ARC14">
    <path class="st5" d="M216.86,117.22c-.09-.58-.18-1.16-.28-1.74"/>
  </g>
  <g id="ARC15">
    <path class="st5" d="M215.38,152.25c.13-.6.25-1.2.37-1.8"/>
  </g>
  <g id="ARC16">
    <path class="st5" d="M215.75,112.93c-.12-.6-.24-1.2-.37-1.8"/>
  </g>
  <g id="ARC17">
    <path class="st5" d="M217.04,130.88c-.03-3.2-.21-6.41-.56-9.59"/>
  </g>
  <g id="ARC18">
    <path class="st5" d="M216.49,142.1c.34-3.19.53-6.39.56-9.59"/>
  </g>
  <g id="ARC19">
    <path class="st5" d="M120.96,35.35h-1.92"/>
  </g>
  <g id="ARC20">
    <path class="st5" d="M120.68,35.43h-1.35"/>
  </g>
  <g id="ARC21">
    <path class="st5" d="M119.23,35.47c-12.02.1-23.92,2.45-35.08,6.93"/>
  </g>
  <g id="ARC22">
    <path class="st5" d="M155.85,42.4c-11.16-4.48-23.06-6.83-35.08-6.93"/>
  </g>
  <g id="ARC23">
    <path class="st2" d="M119.21,36.83c-12.02.1-23.91,2.48-35.03,7.02"/>
  </g>
  <g id="ARC24">
    <path class="st2" d="M155.83,43.85c-11.13-4.54-23.02-6.92-35.03-7.02"/>
  </g>
  <g id="ARC25">
    <path class="st5" d="M203.73,90.66c-1.74-3.55-3.7-6.99-5.88-10.29"/>
  </g>
  <g id="ARC26">
    <path class="st5" d="M197.85,183.01c2.18-3.3,4.14-6.74,5.88-10.29"/>
  </g>
  <g id="ARC27">
    <path class="st5" d="M182.94,97.51c-.88-1.62-1.82-3.21-2.83-4.75"/>
  </g>
  <g id="ARC28">
    <path class="st5" d="M180.12,170.63c1-1.55,1.94-3.13,2.83-4.75"/>
  </g>
  <g id="ARC29">
    <path class="st5" d="M168.81,160.65c1.2-2.02,2.27-4.11,3.21-6.26"/>
  </g>
  <g id="ARC30">
    <path class="st5" d="M148.88,174.97c3.7-2.47,7.07-5.4,10.03-8.73"/>
  </g>
  <g id="ARC31">
    <path class="st5" d="M166.51,134.89c1.77-25.69-17.63-47.94-43.31-49.71-25.69-1.77-47.94,17.63-49.71,43.31-1.77,25.69,17.63,47.94,43.31,49.71,6.1.42,12.22-.36,18.02-2.31"/>
  </g>
  <g id="ARC32">
    <path class="st5" d="M182.94,165.87c2.15-3.96,3.28-8.39,3.28-12.9"/>
  </g>
  <g id="ARC33">
    <path class="st5" d="M164,163.89c2.01-.3,3.77-1.49,4.81-3.23"/>
  </g>
  <g id="ARC34">
    <path class="st5" d="M162.95,164.04c-1.57.23-3,1.01-4.05,2.2"/>
  </g>
  <g id="ARC35">
    <path class="st5" d="M143.12,175.8c1.95.6,4.06.3,5.75-.83"/>
  </g>
  <g id="ARC36">
    <path class="st5" d="M172.02,154.39c.87-1.99.73-4.27-.38-6.14"/>
  </g>
  <g id="ARC37">
    <path class="st5" d="M192.08,184.06c1.81,1.32,4.35.91,5.66-.9.04-.05.07-.1.1-.15"/>
  </g>
  <g id="ARC38">
    <path class="st5" d="M203.73,172.73c1.81-3.7,2.76-7.77,2.76-11.89"/>
  </g>
  <g id="ARC39">
    <path class="st5" d="M166.51,134.89c-.19,2.73.46,5.45,1.85,7.81"/>
  </g>
  <g id="ARC40">
    <path class="st5" d="M215.19,146.17c-.96-2.23-3.54-3.26-5.77-2.3-2.23.96-3.26,3.54-2.3,5.77s3.54,3.26,5.77,2.3c1.03-.44,1.85-1.26,2.3-2.29"/>
  </g>
  <g id="ARC41">
    <path class="st5" d="M215.48,148.27c.02-.24.02-.48,0-.72"/>
  </g>
  <g id="ARC42">
    <path class="st5" d="M180.12,170.63c-1.17,1.81-.72,4.22,1.02,5.48"/>
  </g>
  <g>
    <g id="LINE83">
      <line class="st2" x1="210.61" y1="149.6" x2="211.69" y2="149.6"/>
    </g>
    <g id="LINE84">
      <line class="st2" x1="209.46" y1="148.45" x2="210.61" y2="148.45"/>
    </g>
    <g id="LINE85">
      <line class="st2" x1="211.69" y1="148.45" x2="212.84" y2="148.45"/>
    </g>
    <g id="LINE86">
      <line class="st2" x1="212.84" y1="147.37" x2="211.69" y2="147.37"/>
    </g>
    <g id="LINE87">
      <line class="st2" x1="210.61" y1="147.37" x2="209.46" y2="147.37"/>
    </g>
    <g id="LINE88">
      <line class="st2" x1="211.69" y1="146.22" x2="210.61" y2="146.22"/>
    </g>
    <g id="LINE89">
      <line class="st2" x1="209.46" y1="147.37" x2="209.46" y2="148.45"/>
    </g>
    <g id="LINE90">
      <line class="st2" x1="210.61" y1="146.22" x2="210.61" y2="147.37"/>
    </g>
    <g id="LINE91">
      <line class="st2" x1="210.61" y1="148.45" x2="210.61" y2="149.6"/>
    </g>
    <g id="LINE92">
      <line class="st2" x1="211.69" y1="149.6" x2="211.69" y2="148.45"/>
    </g>
    <g id="LINE93">
      <line class="st2" x1="211.69" y1="147.37" x2="211.69" y2="146.22"/>
    </g>
    <g id="LINE94">
      <line class="st2" x1="212.84" y1="148.45" x2="212.84" y2="147.37"/>
    </g>
    <g id="CIRCLE2">
      <circle class="st2" cx="211.15" cy="147.91" r="2.84"/>
    </g>
  </g>
  <g id="ARC43">
    <path class="st5" d="M214.06,153.31c.64,0,1.19-.44,1.32-1.07"/>
  </g>
  <g id="ARC44">
    <path class="st5" d="M206.49,151.96c0,.75.61,1.35,1.35,1.35"/>
  </g>
  <g id="ARC45">
    <path class="st5" d="M215.75,150.45c.07-.37-.17-.72-.53-.79h-.03"/>
  </g>
  <g id="ARC46">
    <path class="st5" d="M206.49,102.55c0-4.12-.94-8.19-2.76-11.89"/>
  </g>
  <g id="ARC47">
    <path class="st5" d="M186.22,110.41c0-4.51-1.13-8.94-3.28-12.9"/>
  </g>
  <g id="ARC48">
    <path class="st5" d="M215.18,113.73c-.96-2.23-3.55-3.25-5.78-2.29s-3.25,3.55-2.29,5.78c.96,2.23,3.55,3.25,5.78,2.29,1.03-.45,1.85-1.27,2.29-2.3"/>
  </g>
  <g id="ARC49">
    <path class="st5" d="M215.48,115.84c.02-.24.02-.48,0-.72"/>
  </g>
  <g id="ARC50">
    <path class="st5" d="M197.85,80.37c-1.23-1.87-3.75-2.39-5.62-1.15-.05.03-.1.07-.15.1"/>
  </g>
  <g id="ARC51">
    <path class="st5" d="M181.14,87.27c-1.74,1.27-2.19,3.68-1.02,5.48"/>
  </g>
  <g>
    <g id="LINE95">
      <line class="st2" x1="210.61" y1="117.16" x2="211.69" y2="117.16"/>
    </g>
    <g id="LINE96">
      <line class="st2" x1="209.46" y1="116.02" x2="210.61" y2="116.02"/>
    </g>
    <g id="LINE97">
      <line class="st2" x1="211.69" y1="116.02" x2="212.84" y2="116.02"/>
    </g>
    <g id="LINE98">
      <line class="st2" x1="212.84" y1="114.94" x2="211.69" y2="114.94"/>
    </g>
    <g id="LINE99">
      <line class="st2" x1="210.61" y1="114.94" x2="209.46" y2="114.94"/>
    </g>
    <g id="LINE100">
      <line class="st2" x1="211.69" y1="113.79" x2="210.61" y2="113.79"/>
    </g>
    <g id="LINE101">
      <line class="st2" x1="209.46" y1="114.94" x2="209.46" y2="116.02"/>
    </g>
    <g id="LINE102">
      <line class="st2" x1="210.61" y1="113.79" x2="210.61" y2="114.94"/>
    </g>
    <g id="LINE103">
      <line class="st2" x1="210.61" y1="116.02" x2="210.61" y2="117.16"/>
    </g>
    <g id="LINE104">
      <line class="st2" x1="211.69" y1="117.16" x2="211.69" y2="116.02"/>
    </g>
    <g id="LINE105">
      <line class="st2" x1="211.69" y1="114.94" x2="211.69" y2="113.79"/>
    </g>
    <g id="LINE106">
      <line class="st2" x1="212.84" y1="116.02" x2="212.84" y2="114.94"/>
    </g>
    <g id="CIRCLE3">
      <circle class="st2" cx="211.15" cy="115.48" r="2.84"/>
    </g>
  </g>
  <g id="ARC52">
    <path class="st5" d="M207.84,110.07c-.75,0-1.35.61-1.35,1.35"/>
  </g>
  <g id="ARC53">
    <path class="st5" d="M215.38,111.14c-.13-.62-.68-1.07-1.32-1.07"/>
  </g>
  <g id="ARC54">
    <path class="st5" d="M215.24,113.72c.36-.08.58-.43.51-.79"/>
  </g>
  <g id="ARC55">
    <path class="st5" d="M215.18,113.73h.05"/>
  </g>
  <g id="ARC56">
    <path class="st5" d="M82.06,41.91v.71"/>
  </g>
  <g id="CIRCLE4">
    <circle class="st5" cx="107.84" cy="43.85" r="4.4"/>
  </g>
  <g id="CIRCLE5">
    <circle class="st5" cx="132.16" cy="43.85" r="4.4"/>
  </g>
  <g>
    <g id="LINE107">
      <line class="st2" x1="130.47" y1="43.31" x2="130.47" y2="44.39"/>
    </g>
    <g id="LINE108">
      <line class="st2" x1="131.62" y1="42.17" x2="131.62" y2="43.31"/>
    </g>
    <g id="LINE109">
      <line class="st2" x1="131.62" y1="44.39" x2="131.62" y2="45.54"/>
    </g>
    <g id="LINE110">
      <line class="st2" x1="132.7" y1="45.54" x2="132.7" y2="44.39"/>
    </g>
    <g id="LINE111">
      <line class="st2" x1="132.7" y1="43.31" x2="132.7" y2="42.17"/>
    </g>
    <g id="LINE112">
      <line class="st2" x1="133.85" y1="44.39" x2="133.85" y2="43.31"/>
    </g>
    <g id="LINE113">
      <line class="st2" x1="131.62" y1="45.54" x2="132.7" y2="45.54"/>
    </g>
    <g id="LINE114">
      <line class="st2" x1="130.47" y1="44.39" x2="131.62" y2="44.39"/>
    </g>
    <g id="LINE115">
      <line class="st2" x1="132.7" y1="44.39" x2="133.85" y2="44.39"/>
    </g>
    <g id="LINE116">
      <line class="st2" x1="133.85" y1="43.31" x2="132.7" y2="43.31"/>
    </g>
    <g id="LINE117">
      <line class="st2" x1="131.62" y1="43.31" x2="130.47" y2="43.31"/>
    </g>
    <g id="LINE118">
      <line class="st2" x1="132.7" y1="42.17" x2="131.62" y2="42.17"/>
    </g>
    <g id="CIRCLE6">
      <circle class="st2" cx="132.16" cy="43.85" r="2.84"/>
    </g>
  </g>
  <g>
    <g id="LINE119">
      <line class="st2" x1="106.15" y1="43.31" x2="106.15" y2="44.39"/>
    </g>
    <g id="LINE120">
      <line class="st2" x1="107.3" y1="42.17" x2="107.3" y2="43.31"/>
    </g>
    <g id="LINE121">
      <line class="st2" x1="107.3" y1="44.39" x2="107.3" y2="45.54"/>
    </g>
    <g id="LINE122">
      <line class="st2" x1="108.38" y1="45.54" x2="108.38" y2="44.39"/>
    </g>
    <g id="LINE123">
      <line class="st2" x1="108.38" y1="43.31" x2="108.38" y2="42.17"/>
    </g>
    <g id="LINE124">
      <line class="st2" x1="109.53" y1="44.39" x2="109.53" y2="43.31"/>
    </g>
    <g id="LINE125">
      <line class="st2" x1="107.3" y1="45.54" x2="108.38" y2="45.54"/>
    </g>
    <g id="LINE126">
      <line class="st2" x1="106.15" y1="44.39" x2="107.3" y2="44.39"/>
    </g>
    <g id="LINE127">
      <line class="st2" x1="108.38" y1="44.39" x2="109.53" y2="44.39"/>
    </g>
    <g id="LINE128">
      <line class="st2" x1="109.53" y1="43.31" x2="108.38" y2="43.31"/>
    </g>
    <g id="LINE129">
      <line class="st2" x1="107.3" y1="43.31" x2="106.15" y2="43.31"/>
    </g>
    <g id="LINE130">
      <line class="st2" x1="108.38" y1="42.17" x2="107.3" y2="42.17"/>
    </g>
    <g id="CIRCLE7">
      <circle class="st2" cx="107.84" cy="43.85" r="2.84"/>
    </g>
  </g>
  <g id="ARC57">
    <path class="st5" d="M82.05,42.62v1.73"/>
  </g>
  <g id="SPLINE">
    <path class="st5" d="M218.37,147.91h-.04"/>
  </g>
  <g id="SPLINE1">
    <path class="st5" d="M218.33,115.48h.04"/>
  </g>
  <g id="LINE131">
    <line class="st5" x1="215.19" y1="117.21" x2="215.17" y2="117.19"/>
  </g>
  <g id="LINE132">
    <line class="st5" x1="215.17" y1="146.2" x2="215.19" y2="146.17"/>
  </g>
  <g id="LINE133">
    <line class="st5" x1="215.19" y1="149.64" x2="215.17" y2="149.62"/>
  </g>
  <g id="LINE134">
    <line class="st5" x1="215.17" y1="113.76" x2="215.19" y2="113.74"/>
  </g>
  <g id="SPLINE2">
    <path class="st5" d="M215.17,149.62h0v-.05s0-.03.02-.05c0-.02,0-.04.02-.06,0-.02.02-.05.02-.07,0-.03.02-.05.03-.08,0-.03.02-.06.03-.09.02-.07.04-.13.06-.2.02-.08.04-.15.05-.23.02-.08.03-.17.04-.25s.02-.17.03-.26"/>
  </g>
  <g id="SPLINE3">
    <path class="st5" d="M215.48,147.55c0-.09-.02-.18-.03-.26s-.03-.17-.04-.25c-.02-.08-.03-.15-.05-.23-.02-.07-.04-.14-.06-.2,0-.03-.02-.06-.03-.09,0-.03-.02-.05-.03-.08,0-.02-.02-.05-.02-.07s0-.04-.02-.06c0-.02,0-.03-.02-.05v-.04h0"/>
  </g>
  <g id="SPLINE4">
    <path class="st5" d="M215.17,117.19h0v-.05s0-.03.02-.05c0-.02,0-.04.02-.06,0-.02.02-.05.02-.07,0-.03.02-.05.03-.08,0-.03.02-.06.03-.09.02-.07.04-.13.06-.2.02-.08.04-.15.05-.23.02-.08.03-.17.04-.25s.02-.17.03-.26"/>
  </g>
  <g id="SPLINE5">
    <path class="st5" d="M215.48,115.11c0-.09-.02-.18-.03-.26s-.03-.17-.04-.25c-.02-.08-.03-.15-.05-.23-.02-.07-.04-.14-.06-.2,0-.03-.02-.06-.03-.09,0-.03-.02-.05-.03-.08,0-.02-.02-.05-.02-.07s0-.04-.02-.06c0-.02,0-.03-.02-.05v-.04h0"/>
  </g>
  <g id="SPLINE6">
    <path class="st5" d="M82.07,41.41h0v.5"/>
  </g>
  <g id="SPLINE7">
    <path class="st5" d="M157.94,41.91v-.5h0"/>
  </g>
  <g id="SPLINE8">
    <path class="st5" d="M120.96,35.35c.07,0,.15-.02.22-.06s.12-.1.15-.17"/>
  </g>
  <g id="SPLINE9">
    <path class="st5" d="M118.67,35.12c.03.07.09.13.15.17s.14.06.22.06"/>
  </g>
  <g id="SPLINE10">
    <path class="st5" d="M117.69,31.72c-.1,0-.21.05-.28.12s-.12.18-.12.28"/>
  </g>
  <g id="SPLINE11">
    <path class="st5" d="M122.7,32.12c0-.1-.04-.21-.12-.28s-.18-.12-.28-.12"/>
  </g>
  <g id="SPLINE12">
    <path class="st5" d="M84.17,43.85v-1.44h0"/>
  </g>
  <g id="SPLINE13">
    <path class="st5" d="M155.85,42.4h0v1.44"/>
  </g>
  <g id="SPLINE14">
    <path class="st2" d="M119.23,35.47h0v1.34"/>
  </g>
  <g id="SPLINE15">
    <path class="st2" d="M120.79,36.83v-1.34h0"/>
  </g>
  <g id="ELLIPSE">
    <path class="st5" d="M217.38,143.5c.03-.23.06-.45.09-.68"/>
  </g>
  <g id="ELLIPSE1">
    <path class="st5" d="M217.47,120.56c-.03-.23-.06-.45-.09-.68"/>
  </g>
  <g id="ELLIPSE2">
    <path class="st5" d="M89.45,49.89c.37,0,.68-.3.68-.68"/>
  </g>
  <g id="ELLIPSE3">
    <path class="st5" d="M102.2,49.21c0,.37.3.68.68.68"/>
  </g>
  <g>
    <g id="LINE135">
      <line class="st5" x1="120.23" y1="34.79" x2="121.59" y2="32.43"/>
    </g>
    <g id="LINE136">
      <line class="st5" x1="118.41" y1="32.43" x2="119.77" y2="34.79"/>
    </g>
    <g id="LINE137">
      <line class="st5" x1="121.36" y1="32.03" x2="118.64" y2="32.03"/>
    </g>
    <g id="ELLIPSE4">
      <path class="st5" d="M119.77,34.79c.08.13.24.17.37.1.04-.02.07-.06.1-.1"/>
    </g>
    <g id="ELLIPSE5">
      <path class="st5" d="M118.64,32.03c-.15,0-.27.12-.27.27,0,.05.01.09.04.13"/>
    </g>
    <g id="ELLIPSE6">
      <path class="st5" d="M121.59,32.43c.08-.13.03-.3-.1-.37-.04-.02-.09-.03-.13-.03"/>
    </g>
  </g>
  <g id="LINE138">
    <line class="st5" x1="62.38" y1="69.29" x2="57.6" y2="74.07"/>
  </g>
  <g id="LINE139">
    <line class="st5" x1="62.38" y1="78.85" x2="67.16" y2="74.07"/>
  </g>
  <g id="LINE140">
    <line class="st5" x1="57.6" y1="189.31" x2="62.38" y2="194.09"/>
  </g>
  <g id="LINE141">
    <line class="st5" x1="67.16" y1="189.31" x2="62.38" y2="184.53"/>
  </g>
  <g id="LINE142">
    <line class="st5" x1="62.26" y1="96.6" x2="59.64" y2="101.33"/>
  </g>
  <g id="LINE143">
    <line class="st5" x1="59.64" y1="162.06" x2="62.26" y2="166.79"/>
  </g>
  <g id="LINE144">
    <line class="st5" x1="65.55" y1="104.6" x2="68.17" y2="99.87"/>
  </g>
  <g id="LINE145">
    <line class="st5" x1="77.52" y1="85.39" x2="73.7" y2="89.21"/>
  </g>
  <g id="LINE146">
    <line class="st5" x1="78.48" y1="93.99" x2="82.3" y2="90.17"/>
  </g>
  <g id="LINE147">
    <line class="st5" x1="73.7" y1="174.17" x2="77.52" y2="177.99"/>
  </g>
  <g id="LINE148">
    <line class="st5" x1="82.3" y1="173.21" x2="78.48" y2="169.39"/>
  </g>
  <g id="LINE149">
    <line class="st5" x1="68.17" y1="163.51" x2="65.55" y2="158.78"/>
  </g>
  <g id="LINE150">
    <line class="st5" x1="116.62" y1="70.88" x2="116.62" y2="77.64"/>
  </g>
  <g id="LINE151">
    <line class="st5" x1="116.62" y1="185.75" x2="116.62" y2="192.5"/>
  </g>
  <g id="LINE152">
    <line class="st5" x1="59.19" y1="135.07" x2="65.95" y2="135.07"/>
  </g>
  <g id="LINE153">
    <line class="st5" x1="174.73" y1="135.07" x2="180.14" y2="135.07"/>
  </g>
  <g id="LINE154">
    <line class="st5" x1="123.38" y1="192.5" x2="123.38" y2="185.75"/>
  </g>
  <g id="LINE155">
    <line class="st5" x1="123.38" y1="77.64" x2="123.38" y2="70.88"/>
  </g>
  <g id="LINE156">
    <line class="st5" x1="180.14" y1="128.31" x2="174.73" y2="128.31"/>
  </g>
  <g id="LINE157">
    <line class="st5" x1="65.95" y1="128.31" x2="59.19" y2="128.31"/>
  </g>
  <g id="LINE158">
    <line class="st5" x1="174.45" y1="158.78" x2="171.83" y2="163.51"/>
  </g>
  <g id="LINE159">
    <line class="st5" x1="161.52" y1="169.39" x2="157.7" y2="173.21"/>
  </g>
  <g id="LINE160">
    <line class="st5" x1="162.48" y1="177.99" x2="166.3" y2="174.17"/>
  </g>
  <g id="LINE161">
    <line class="st5" x1="157.7" y1="90.17" x2="161.52" y2="93.99"/>
  </g>
  <g id="LINE162">
    <line class="st5" x1="166.3" y1="89.21" x2="162.48" y2="85.39"/>
  </g>
  <g id="LINE163">
    <line class="st5" x1="171.83" y1="99.87" x2="174.45" y2="104.6"/>
  </g>
  <g id="LINE164">
    <line class="st5" x1="177.74" y1="166.79" x2="180.36" y2="162.06"/>
  </g>
  <g id="LINE165">
    <line class="st5" x1="180.36" y1="101.33" x2="177.74" y2="96.6"/>
  </g>
  <g id="LINE166">
    <line class="st5" x1="177.62" y1="184.53" x2="172.84" y2="189.31"/>
  </g>
  <g id="LINE167">
    <line class="st5" x1="177.62" y1="194.09" x2="182.4" y2="189.31"/>
  </g>
  <g id="LINE168">
    <line class="st5" x1="172.84" y1="74.07" x2="177.62" y2="78.85"/>
  </g>
  <g id="LINE169">
    <line class="st5" x1="182.4" y1="74.07" x2="177.62" y2="69.29"/>
  </g>
  <g id="ARC58">
    <path class="st5" d="M62.38,194.09c1.32,1.32,3.46,1.32,4.78,0s1.32-3.46,0-4.78"/>
  </g>
  <g id="ARC59">
    <path class="st5" d="M62.38,184.53c-1.32-1.32-3.46-1.32-4.78,0s-1.32,3.46,0,4.78"/>
  </g>
  <g id="ARC60">
    <path class="st5" d="M59.19,128.31c-1.87,0-3.38,1.51-3.38,3.38s1.51,3.38,3.38,3.38"/>
  </g>
  <g id="ARC61">
    <path class="st5" d="M65.95,135.07c1.87,0,3.38-1.51,3.38-3.38s-1.51-3.38-3.38-3.38"/>
  </g>
  <g id="ARC62">
    <path class="st5" d="M78.48,169.39c-1.32-1.32-3.46-1.32-4.78,0s-1.32,3.46,0,4.78"/>
  </g>
  <g id="ARC63">
    <path class="st5" d="M77.52,177.99c1.32,1.32,3.46,1.32,4.78,0s1.32-3.46,0-4.78"/>
  </g>
  <g id="ARC64">
    <path class="st5" d="M62.26,166.79c.9,1.63,2.96,2.22,4.59,1.32s2.22-2.96,1.32-4.59"/>
  </g>
  <g id="ARC65">
    <path class="st5" d="M65.55,158.78c-.9-1.63-2.96-2.22-4.59-1.32s-2.22,2.96-1.32,4.59"/>
  </g>
  <g id="CIRCLE8">
    <circle class="st5" cx="96.16" cy="48.56" r="5.41"/>
  </g>
  <g id="ARC66">
    <path class="st5" d="M57.6,74.07c-1.32,1.32-1.32,3.46,0,4.78s3.46,1.32,4.78,0"/>
  </g>
  <g id="ARC67">
    <path class="st5" d="M67.16,74.07c1.32-1.32,1.32-3.46,0-4.78s-3.46-1.32-4.78,0"/>
  </g>
  <g id="ARC68">
    <path class="st5" d="M82.3,90.17c1.32-1.32,1.32-3.46,0-4.78s-3.46-1.32-4.78,0"/>
  </g>
  <g id="ARC69">
    <path class="st5" d="M73.7,89.21c-1.32,1.32-1.32,3.46,0,4.78s3.46,1.32,4.78,0"/>
  </g>
  <g id="ARC70">
    <path class="st5" d="M59.64,101.33c-.9,1.63-.31,3.69,1.32,4.59s3.69.31,4.59-1.32"/>
  </g>
  <g id="ARC71">
    <path class="st5" d="M68.17,99.87c.9-1.63.31-3.69-1.32-4.59s-3.69-.31-4.59,1.32"/>
  </g>
  <g id="CIRCLE9">
    <circle class="st5" cx="143.84" cy="214.83" r="5.41"/>
  </g>
  <g id="ARC72">
    <path class="st5" d="M123.38,185.75c0-1.87-1.51-3.38-3.38-3.38s-3.38,1.51-3.38,3.38"/>
  </g>
  <g id="ARC73">
    <path class="st5" d="M116.62,192.5c0,1.87,1.51,3.38,3.38,3.38s3.38-1.51,3.38-3.38"/>
  </g>
  <g id="ARC74">
    <path class="st5" d="M157.7,173.21c-1.32,1.32-1.32,3.46,0,4.78s3.46,1.32,4.78,0"/>
  </g>
  <g id="ARC75">
    <path class="st5" d="M166.3,174.17c1.32-1.32,1.32-3.46,0-4.78s-3.46-1.32-4.78,0"/>
  </g>
  <g id="ARC76">
    <path class="st5" d="M182.4,189.31c1.32-1.32,1.32-3.46,0-4.78s-3.46-1.32-4.78,0"/>
  </g>
  <g id="ARC77">
    <path class="st5" d="M172.84,189.31c-1.32,1.32-1.32,3.46,0,4.78,1.32,1.32,3.46,1.32,4.78,0"/>
  </g>
  <g id="ARC78">
    <path class="st5" d="M174.73,128.31c-1.87,0-3.38,1.51-3.38,3.38s1.51,3.38,3.38,3.38"/>
  </g>
  <g id="ARC79">
    <path class="st5" d="M180.14,135.07c1.87,0,3.38-1.51,3.38-3.38s-1.51-3.38-3.38-3.38"/>
  </g>
  <g id="ARC80">
    <path class="st5" d="M180.36,162.06c.9-1.63.31-3.69-1.32-4.59s-3.69-.31-4.59,1.32"/>
  </g>
  <g id="ARC81">
    <path class="st5" d="M171.83,163.51c-.9,1.63-.31,3.69,1.32,4.59s3.69.31,4.59-1.32"/>
  </g>
  <g id="ARC82">
    <path class="st5" d="M116.62,77.64c0,1.87,1.51,3.38,3.38,3.38s3.38-1.51,3.38-3.38"/>
  </g>
  <g id="ARC83">
    <path class="st5" d="M161.52,93.99c1.32,1.32,3.46,1.32,4.78,0s1.32-3.46,0-4.78"/>
  </g>
  <g id="ARC84">
    <path class="st5" d="M162.48,85.39c-1.32-1.32-3.46-1.32-4.78,0s-1.32,3.46,0,4.78"/>
  </g>
  <g id="ARC85">
    <path class="st5" d="M177.74,96.6c-.9-1.63-2.96-2.22-4.59-1.32s-2.22,2.96-1.32,4.59"/>
  </g>
  <g id="ARC86">
    <path class="st5" d="M174.45,104.6c.9,1.63,2.96,2.22,4.59,1.32,1.63-.9,2.22-2.96,1.32-4.59"/>
  </g>
  <g id="ARC87">
    <path class="st5" d="M177.62,78.85c1.32,1.32,3.46,1.32,4.78,0s1.32-3.46,0-4.78"/>
  </g>
  <g id="ARC88">
    <path class="st5" d="M177.62,69.29c-1.32-1.32-3.46-1.32-4.78,0-1.32,1.32-1.32,3.46,0,4.78"/>
  </g>
  <g id="ARC89">
    <path class="st5" d="M123.38,70.88c0-1.87-1.51-3.38-3.38-3.38s-3.38,1.51-3.38,3.38"/>
  </g>
  <g>
    <g id="LINE170">
      <line class="st3" x1="218.73" y1="115.82" x2="218.73" y2="115.82"/>
    </g>
    <g id="LINE171">
      <line class="st3" x1="218.73" y1="147.57" x2="218.73" y2="147.57"/>
    </g>
    <g id="ARC90">
      <path class="st3" d="M123.04,31.74l-.73-.02c-1.54-.04-3.08-.04-4.61,0"/>
    </g>
    <g id="ARC91">
      <path class="st3" d="M117.69,31.72l-.73.02c-55.2,1.68-98.59,47.79-96.91,102.99,1.68,55.2,47.79,98.59,102.99,96.91,47.54-1.45,87.49-36.18,95.52-83.06l.16-.97"/>
    </g>
    <g id="ARC92">
      <path class="st3" d="M218.73,115.82l-.17-1.02c-8.03-46.88-47.98-81.61-95.52-83.06"/>
    </g>
    <g id="ARC93">
      <path class="st3" d="M218.73,147.57c1.69-10.52,1.69-21.23,0-31.75"/>
    </g>
    <g id="ARC94">
      <path class="st3" d="M218.72,147.61s0-.03,0-.05"/>
    </g>
  </g>
  <path d="M126.21,214.09c0-.53-.43-.95-.95-.95s-.95.43-.95.95v3.94c0,.19-.22.33-.41.34s-.34-.06-.44-.13-.15-.2-.15-.2l-2.25-4.88s-.02-.03-.03-.05c-.25-.47-.99-1.28-2.15-1.28-1.39,0-2.17,1.23-2.25,1.37-.01.02-.03.04-.04.07-.46.91-2.62,5.36-2.71,5.55-.23.47-.03,1.04.44,1.27.47.23,1.04.03,1.27-.44.02-.05,2.17-4.47,2.67-5.48.09-.12.35-.43.61-.43s.43.22.46.26l2.22,4.82c.23.56.97,1.46,2.32,1.46,1.46,0,2.13-1.23,2.3-1.87.04-.14.03-.38.03-.57v-3.74h.01Z"/>
  <circle cx="125.26" cy="211.73" r=".95"/>
  <g>
    <circle class="st7" cx="120" cy="215.53" r="15.62"/>
    <circle class="st6" cx="120" cy="215.51" r="15.62"/>
  </g>
  <g>
    <circle class="st7" cx="120" cy="32.94" r="15.62"/>
    <circle class="st4" cx="119.99" cy="32.93" r="15.62" transform="translate(41.41 129.41) rotate(-66.18)"/>
  </g>
  <g>
    <g>
      <circle class="st8" cx="89.1" cy="32.93" r="6.75"/>
      <path class="st1" d="M89.1,26.68c3.45,0,6.25,2.8,6.25,6.25s-2.8,6.25-6.25,6.25c-3.45,0-6.25-2.8-6.25-6.25s2.8-6.25,6.25-6.25M89.1,25.68h0c-4,0-7.25,3.25-7.25,7.25s3.25,7.25,7.25,7.25,7.25-3.25,7.25-7.25-3.25-7.25-7.25-7.25h0Z"/>
    </g>
    <path class="st1" d="M89.6,36.15h-.95v-4.27c0-.23,0-.43,0-.62,0-.18.01-.36.03-.54-.08.08-.16.16-.24.23-.08.07-.18.15-.29.24l-.7.57-.49-.61,1.84-1.44h.79v6.43Z"/>
  </g>
  <g>
    <g>
      <circle class="st8" cx="89.1" cy="215.52" r="6.75"/>
      <path class="st1" d="M89.1,209.27c3.45,0,6.25,2.8,6.25,6.25s-2.8,6.25-6.25,6.25-6.25-2.8-6.25-6.25,2.8-6.25,6.25-6.25M89.1,208.27c-4,0-7.25,3.25-7.25,7.25s3.25,7.25,7.25,7.25,7.25-3.25,7.25-7.25-3.25-7.25-7.25-7.25h0Z"/>
    </g>
    <path class="st1" d="M91.26,218.77h-4.32v-.74l1.66-1.68c.32-.33.59-.62.81-.86.22-.24.38-.48.49-.7.11-.23.16-.47.16-.73,0-.32-.09-.57-.28-.74s-.44-.25-.75-.25c-.29,0-.56.05-.79.16-.23.11-.48.26-.73.47l-.51-.64c.26-.22.55-.4.88-.56.33-.16.72-.24,1.18-.24.61,0,1.09.16,1.44.47.35.31.53.73.53,1.25,0,.34-.07.66-.21.95-.14.29-.33.58-.58.87-.25.29-.55.59-.89.92l-1.2,1.16v.04h3.12v.85Z"/>
  </g>
</svg>