<?xml version="1.0" encoding="UTF-8"?>
<svg id="_레이어_1" xmlns="http://www.w3.org/2000/svg" version="1.1" viewBox="0 0 390 390">
  <!-- Generator: Adobe Illustrator 30.5.0, SVG Export Plug-In . SVG Version: 2.1.4 Build 167)  -->
  <defs>
    <style>
      .st0, .st1, .st2, .st3, .st4, .st5, .st6 {
        fill: none;
      }

      .st0, .st1, .st6 {
        stroke: #231815;
      }

      .st0, .st6 {
        stroke-miterlimit: 10;
      }

      .st7 {
        fill: #fff;
      }

      .st1 {
        stroke-linecap: round;
      }

      .st1, .st2, .st3, .st4, .st5 {
        stroke-linejoin: round;
      }

      .st1, .st6 {
        stroke-width: .5px;
      }

      .st2 {
        stroke-dasharray: 2.97 2.97;
      }

      .st2, .st3, .st4 {
        stroke: #a12944;
        stroke-width: 3px;
      }

      .st3 {
        stroke-dasharray: 2.97 2.97;
      }

      .st4 {
        stroke-dasharray: 2.97 2.97;
      }

      .st5 {
        stroke: #fff;
        stroke-width: 5px;
      }
    </style>
  </defs>
  <rect class="st7" width="390" height="390"/>
  <g>
    <g id="LINE17">
      <polygon class="st1" points="70.25 271.7 68.9 269.36 66.2 269.36 67.55 267.03 66.2 264.69 68.9 264.69 70.25 262.35 71.6 264.69 74.3 264.69 72.95 267.03 74.3 269.36 71.6 269.36 70.25 271.7"/>
    </g>
    <g id="LINE20">
      <line class="st6" x1="82.8" y1="149.74" x2="72.09" y2="145.31"/>
    </g>
    <g id="LINE21">
      <line class="st6" x1="72.95" y1="143.23" x2="83.66" y2="147.66"/>
    </g>
    <g id="LINE22">
      <line class="st6" x1="187.12" y1="153.68" x2="187.12" y2="159.86"/>
    </g>
    <g id="LINE23">
      <line class="st6" x1="188.25" y1="154.04" x2="188.25" y2="158.54"/>
    </g>
    <g id="LINE24">
      <line class="st6" x1="192.75" y1="158.54" x2="192.75" y2="154.04"/>
    </g>
    <g id="LINE25">
      <line class="st6" x1="195.9" y1="153.92" x2="195.9" y2="158.65"/>
    </g>
    <g id="LINE26">
      <line class="st6" x1="200.4" y1="158.65" x2="200.4" y2="153.92"/>
    </g>
    <g id="LINE27">
      <line class="st6" x1="202.88" y1="159.86" x2="202.88" y2="153.68"/>
    </g>
    <g id="LINE28">
      <line class="st6" x1="205.68" y1="153.39" x2="202.81" y2="161.27"/>
    </g>
    <g id="LINE29">
      <line class="st6" x1="207.51" y1="154.05" x2="204.64" y2="161.93"/>
    </g>
    <g id="LINE30">
      <line class="st6" x1="182.6" y1="162.26" x2="180.06" y2="155.26"/>
    </g>
    <g id="LINE31">
      <line class="st6" x1="185.36" y1="161.93" x2="182.49" y2="154.05"/>
    </g>
    <g id="LINE32">
      <line class="st6" x1="187.19" y1="161.27" x2="184.32" y2="153.39"/>
    </g>
    <g id="LINE33">
      <line class="st6" x1="207" y1="162.56" x2="209.85" y2="154.72"/>
    </g>
    <g id="LINE34">
      <line class="st6" x1="209.94" y1="155.26" x2="207.4" y2="162.26"/>
    </g>
    <g id="LINE35">
      <line class="st6" x1="195.11" y1="158.65" x2="201.19" y2="158.65"/>
    </g>
    <g id="LINE36">
      <line class="st6" x1="188.25" y1="158.54" x2="192.75" y2="158.54"/>
    </g>
    <g id="LINE37">
      <line class="st6" x1="192.75" y1="154.04" x2="188.25" y2="154.04"/>
    </g>
    <g id="LINE38">
      <line class="st6" x1="201.19" y1="153.92" x2="195.11" y2="153.92"/>
    </g>
    <g id="LINE47">
      <line class="st6" x1="300.47" y1="135.48" x2="311.24" y2="131.01"/>
    </g>
    <g id="LINE48">
      <line class="st6" x1="301.34" y1="137.55" x2="312.11" y2="133.09"/>
    </g>
    <g id="LINE49">
      <line class="st6" x1="302.59" y1="139.47" x2="313.32" y2="135.03"/>
    </g>
    <g id="LINE50">
      <line class="st6" x1="303.45" y1="141.55" x2="314.18" y2="137.11"/>
    </g>
    <g id="LINE51">
      <line class="st6" x1="304.54" y1="143.54" x2="315.26" y2="139.1"/>
    </g>
    <g id="LINE52">
      <line class="st6" x1="305.4" y1="145.62" x2="316.12" y2="141.18"/>
    </g>
    <g id="LINE53">
      <line class="st6" x1="306.34" y1="147.66" x2="317.05" y2="143.23"/>
    </g>
    <g id="LINE54">
      <line class="st6" x1="317.91" y1="145.31" x2="307.2" y2="149.74"/>
    </g>
    <g id="LINE55">
      <line class="st6" x1="318.7" y1="147.42" x2="307.99" y2="151.85"/>
    </g>
    <g id="LINE56">
      <line class="st6" x1="319.56" y1="149.49" x2="308.85" y2="153.93"/>
    </g>
    <g id="LINE57">
      <line class="st6" x1="320.21" y1="151.66" x2="309.48" y2="156.11"/>
    </g>
    <g id="LINE58">
      <line class="st6" x1="321.07" y1="153.74" x2="310.34" y2="158.19"/>
    </g>
    <g id="LINE59">
      <line class="st6" x1="321.58" y1="155.97" x2="310.81" y2="160.43"/>
    </g>
    <g id="LINE60">
      <line class="st6" x1="322.44" y1="158.05" x2="311.67" y2="162.51"/>
    </g>
    <g id="LINE64">
      <polygon class="st1" points="199.05 48.61 197.7 50.95 199.05 53.29 196.35 53.29 195 55.63 193.65 53.29 190.95 53.29 192.3 50.95 190.95 48.61 193.65 48.61 195 46.27 196.35 48.61 199.05 48.61"/>
    </g>
    <g id="LINE68">
      <polygon class="st1" points="319.75 271.7 318.4 269.36 315.7 269.36 317.05 267.03 315.7 264.69 318.4 264.69 319.75 262.35 321.1 264.69 323.8 264.69 322.45 267.03 323.8 269.36 321.1 269.36 319.75 271.7"/>
    </g>
    <g id="CIRCLE">
      <circle class="st6" cx="70.25" cy="267.03" r="7.49"/>
    </g>
    <g id="CIRCLE1">
      <circle class="st6" cx="70.25" cy="267.03" r="4.73"/>
    </g>
    <g id="ARC">
      <path class="st6" d="M181.42,165.08c1.07-.49,1.59-1.71,1.18-2.82"/>
    </g>
    <g id="ARC1">
      <path class="st6" d="M180.06,155.26c-.43-1.17-1.72-1.77-2.88-1.35-.04.02-.09.03-.13.05"/>
    </g>
    <g id="ARC2">
      <path class="st6" d="M184.06,151.1c-1.21.3-1.94,1.52-1.64,2.73.02.08.04.15.07.23"/>
    </g>
    <g id="ARC3">
      <path class="st6" d="M185.36,161.93c.39,1.06,1.5,1.67,2.6,1.43"/>
    </g>
    <g id="ARC4">
      <path class="st6" d="M180.15,154.72c-.39-1.07-1.58-1.63-2.65-1.24-.03,0-.07.03-.1.04"/>
    </g>
    <g id="ARC5">
      <path class="st6" d="M181.89,165.16c1-.44,1.49-1.58,1.11-2.6"/>
    </g>
    <g id="ARC6">
      <path class="st6" d="M187.12,159.86c0,.62.5,1.13,1.13,1.13.07,0,.14,0,.21-.02"/>
    </g>
    <g id="ARC7">
      <path class="st6" d="M188.07,152.57c-.54.09-.94.56-.94,1.11"/>
    </g>
    <g id="ARC8">
      <path class="st6" d="M184.53,152.99c-.16.04-.26.2-.22.37v.03"/>
    </g>
    <g id="ARC9">
      <path class="st6" d="M187.19,161.27c.05.14.2.22.35.19"/>
    </g>
    <g id="CIRCLE2">
      <circle class="st0" cx="195" cy="195" r="175"/>
    </g>
    <g id="CIRCLE3">
      <circle class="st6" cx="195" cy="195" r="159.29"/>
    </g>
    <g id="CIRCLE4">
      <circle class="st6" cx="195" cy="195" r="105.63"/>
    </g>
    <g id="CIRCLE5">
      <circle class="st6" cx="195" cy="195" r="58.2"/>
    </g>
    <g id="CIRCLE6">
      <circle class="st6" cx="195" cy="195" r="48.83"/>
    </g>
    <g id="ARC10">
      <path class="st6" d="M205.94,151.1c-7.18-1.79-14.69-1.79-21.87,0"/>
    </g>
    <g id="ARC11">
      <path class="st6" d="M177.39,153.52c-22.91,9.72-33.6,36.18-23.87,59.09,9.72,22.91,36.18,33.6,59.09,23.87,22.91-9.72,33.6-36.18,23.87-59.09-4.56-10.75-13.12-19.31-23.87-23.87"/>
    </g>
    <g id="ARC12">
      <path class="st6" d="M177.04,153.97c-22.66,9.92-32.99,36.33-23.07,58.99,9.92,22.66,36.33,32.99,58.99,23.07,22.66-9.92,32.99-36.33,23.07-58.99-4.52-10.32-12.75-18.56-23.07-23.07"/>
    </g>
    <g id="ARC13">
      <path class="st6" d="M205.47,152.99c-6.87-1.71-14.06-1.71-20.93,0"/>
    </g>
    <g id="ARC14">
      <path class="st6" d="M201.93,152.57c-4.59-.75-9.28-.75-13.87,0"/>
    </g>
    <g id="ARC15">
      <path class="st6" d="M201.54,160.96c-4.32-.83-8.76-.83-13.08,0"/>
    </g>
    <g id="ARC16">
      <path class="st6" d="M202.46,161.46c-4.91-1.09-10.01-1.09-14.92,0"/>
    </g>
    <g id="ARC17">
      <path class="st6" d="M181.42,165.08c-16.53,7.5-23.84,26.98-16.34,43.51s26.98,23.84,43.51,16.34,23.84-26.98,16.34-43.51c-3.29-7.25-9.1-13.05-16.34-16.34"/>
    </g>
    <g id="ARC18">
      <path class="st6" d="M181.89,165.16c-16.48,7.24-23.97,26.47-16.73,42.95s26.47,23.97,42.95,16.73,23.97-26.47,16.73-42.95c-3.28-7.47-9.25-13.44-16.73-16.73"/>
    </g>
    <g id="ARC19">
      <path class="st6" d="M202.04,163.36c-4.63-1.03-9.44-1.03-14.07,0"/>
    </g>
    <g id="CIRCLE7">
      <circle class="st6" cx="195" cy="195" r="28.36"/>
    </g>
    <g id="CIRCLE8">
      <circle class="st6" cx="195" cy="195" r="27.23"/>
    </g>
    <g id="CIRCLE9">
      <circle class="st6" cx="195" cy="195" r="26"/>
    </g>
    <g id="CIRCLE10">
      <circle class="st6" cx="195" cy="195" r="24.76"/>
    </g>
    <g id="CIRCLE11">
      <circle class="st6" cx="195" cy="195" r="23.3"/>
    </g>
    <g id="CIRCLE12">
      <circle class="st6" cx="319.75" cy="267.03" r="7.49"/>
    </g>
    <g id="CIRCLE13">
      <circle class="st6" cx="319.75" cy="267.03" r="4.73"/>
    </g>
    <g id="CIRCLE14">
      <circle class="st6" cx="195" cy="50.95" r="7.49"/>
    </g>
    <g id="CIRCLE15">
      <circle class="st6" cx="195" cy="50.95" r="4.73"/>
    </g>
    <g id="ARC20">
      <path class="st6" d="M207.4,162.26c-.4,1.11.11,2.33,1.18,2.82"/>
    </g>
    <g id="ARC21">
      <path class="st6" d="M212.96,153.97c-1.14-.5-2.47.02-2.96,1.16-.02.04-.04.09-.05.13"/>
    </g>
    <g id="ARC22">
      <path class="st6" d="M207.51,154.05c.43-1.17-.18-2.46-1.35-2.88-.07-.03-.15-.05-.23-.07"/>
    </g>
    <g id="ARC23">
      <path class="st6" d="M202.04,163.36c1.1.25,2.22-.37,2.6-1.43"/>
    </g>
    <g id="ARC24">
      <path class="st6" d="M212.61,153.52c-1.05-.45-2.27.04-2.72,1.1,0,.03-.03.07-.04.1"/>
    </g>
    <g id="ARC25">
      <path class="st6" d="M207,162.56c-.37,1.03.11,2.16,1.11,2.6"/>
    </g>
    <g id="ARC26">
      <path class="st6" d="M201.54,160.96c.61.12,1.2-.28,1.32-.89,0-.07.02-.14.02-.21"/>
    </g>
    <g id="ARC27">
      <path class="st6" d="M202.88,153.68c0-.55-.4-1.02-.94-1.11"/>
    </g>
    <g id="ARC28">
      <path class="st6" d="M300.47,135.48c-.57.24-.85.9-.61,1.47s.9.85,1.47.61"/>
    </g>
    <g id="ARC29">
      <path class="st6" d="M312.11,133.09c.57-.24.85-.9.61-1.47s-.9-.85-1.47-.61"/>
    </g>
    <g id="ARC30">
      <path class="st6" d="M202.46,161.46c.15.03.3-.05.35-.19"/>
    </g>
    <g id="ARC31">
      <path class="st6" d="M205.68,153.39c.06-.16-.02-.33-.18-.39h-.03"/>
    </g>
    <g id="SPLINE">
      <path class="st0" d="M194,71.81c-.06.12-.1.25-.12.38v11.39c0,.29.12.59.33.8.19.19.46.31.72.33h.16c.18-.01.37-.07.52-.17.17-.11.3-.26.39-.43.06-.12.1-.25.12-.38v-11.39c0-.29-.12-.59-.33-.8-.19-.19-.46-.31-.72-.33h-.16c-.18.01-.37.07-.52.17-.17.11-.3.26-.39.43Z"/>
    </g>
    <path class="st0" d="M88.17,257.29c.18.11.39.17.6.17.07,0,.14,0,.21-.02.12-.02.24-.07.35-.13l9.75-5.63c.18-.1.33-.26.43-.45.09-.17.14-.37.13-.56,0-.18-.06-.37-.15-.53s-.23-.3-.38-.39c-.17-.11-.39-.17-.59-.17-.07,0-.15,0-.22.02-.12.02-.24.07-.34.13l-9.75,5.63c-.18.1-.33.26-.43.44-.09.17-.14.37-.13.56,0,.18.06.37.15.53s.23.3.38.39h-.01Z"/>
    <path class="st0" d="M302.36,256.37c0-.16-.03-.33-.09-.49-.02-.05-.05-.1-.08-.15-.07-.11-.16-.21-.27-.29-.04-.03-.08-.05-.12-.08l-9.75-5.63c-.18-.1-.39-.16-.6-.15-.2,0-.39.07-.55.17-.16.1-.29.23-.38.4s-.14.35-.15.53c0,.16.03.33.09.48.02.05.05.1.08.15.07.11.16.21.27.29.04.03.08.05.12.08l9.75,5.63c.18.1.39.16.6.15.2,0,.39-.07.55-.17.16-.1.29-.23.38-.39s.14-.34.15-.53h0Z"/>
    <g id="SPLINE1">
      <path class="st6" d="M317.91,145.31c.28-.12.52-.37.63-.66.1-.27.08-.57-.03-.83s-.32-.46-.57-.57c-.28-.12-.61-.12-.89,0"/>
    </g>
    <g id="SPLINE2">
      <path class="st6" d="M306.34,147.66c-.28.12-.52.37-.63.66-.1.27-.08.57.03.83s.32.46.57.58c.28.12.61.12.89,0"/>
    </g>
    <g id="SPLINE3">
      <path class="st6" d="M316.12,141.18c.28-.12.52-.37.63-.67.1-.27.08-.58-.03-.84s-.32-.46-.58-.57c-.28-.12-.61-.12-.88,0"/>
    </g>
    <g id="SPLINE4">
      <path class="st6" d="M304.54,143.54c-.28.12-.52.37-.63.67-.1.27-.08.58.03.83s.32.46.58.57c.28.12.61.12.88,0"/>
    </g>
    <g id="SPLINE5">
      <path class="st6" d="M314.18,137.11c.28-.12.53-.37.63-.67.1-.27.08-.58-.04-.84s-.32-.46-.58-.57c-.28-.12-.61-.12-.87,0"/>
    </g>
    <g id="SPLINE6">
      <path class="st6" d="M302.59,139.47c-.28.12-.53.37-.63.67-.1.27-.08.58.04.84s.32.46.58.57c.28.12.6.12.87,0"/>
    </g>
    <g id="SPLINE7">
      <path class="st6" d="M307.99,151.85c-.28.12-.52.36-.63.66-.1.27-.09.57.02.83s.32.47.57.58c.28.12.62.13.89,0"/>
    </g>
    <g id="SPLINE8">
      <path class="st6" d="M319.56,149.49c.28-.12.52-.37.63-.66.1-.27.09-.57-.03-.83s-.32-.47-.57-.58c-.28-.12-.62-.13-.89,0"/>
    </g>
    <g id="SPLINE9">
      <path class="st6" d="M309.48,156.11c-.28.12-.52.36-.63.65-.1.27-.09.57.02.83s.31.47.57.58c.28.13.62.13.9.02"/>
    </g>
    <g id="SPLINE10">
      <path class="st6" d="M321.07,153.74c.28-.12.52-.36.63-.66.1-.27.09-.57-.02-.83s-.31-.47-.57-.58c-.28-.12-.62-.13-.9,0"/>
    </g>
    <g id="SPLINE11">
      <path class="st6" d="M310.81,160.43c-.28.12-.52.36-.63.65-.1.27-.09.57.02.83s.31.47.57.58c.28.13.62.13.9.02"/>
    </g>
    <g id="SPLINE12">
      <path class="st6" d="M322.44,158.05c.28-.12.52-.36.63-.65.1-.27.09-.57-.02-.83s-.31-.47-.57-.58c-.28-.13-.62-.13-.9-.02"/>
    </g>
    <g id="SPLINE13">
      <path class="st6" d="M185.91,50.29c.04-1.05.27-2.11.67-3.09.42-1.03,1.04-1.98,1.8-2.79.82-.87,1.82-1.57,2.91-2.06,1.16-.52,2.44-.79,3.71-.79s2.55.27,3.71.79c1.09.49,2.09,1.19,2.91,2.06.76.81,1.38,1.76,1.8,2.79.4.98.63,2.04.67,3.09"/>
    </g>
    <g id="SPLINE14">
      <path class="st6" d="M204.09,50.29c.04,1.11-.12,2.24-.49,3.3s-.97,2.11-1.73,2.99c-.82.94-1.83,1.71-2.96,2.25-1.22.58-2.57.88-3.92.88s-2.7-.31-3.92-.89c-1.13-.54-2.14-1.31-2.96-2.25-.76-.87-1.34-1.89-1.72-2.98-.36-1.06-.53-2.18-.49-3.29"/>
    </g>
    <g id="SPLINE15">
      <path class="st6" d="M329.1,267.34c-.02,1.28-.33,2.57-.88,3.73s-1.38,2.24-2.38,3.08c-.95.79-2.06,1.39-3.25,1.74-1.1.33-2.26.44-3.4.34-1.08-.1-2.14-.39-3.12-.86s-1.84-1.1-2.58-1.87-1.38-1.71-1.81-2.72c-.46-1.08-.71-2.25-.73-3.41"/>
    </g>
    <g id="SPLINE16">
      <path class="st6" d="M310.95,267.37c-.02-1.3.24-2.61.76-3.81s1.34-2.33,2.35-3.21c.94-.83,2.06-1.46,3.26-1.83,1.1-.35,2.27-.48,3.43-.39s2.18.37,3.18.84c.99.47,1.9,1.12,2.66,1.92.79.82,1.42,1.8,1.85,2.86.46,1.14.69,2.38.67,3.6"/>
    </g>
    <g id="SPLINE17">
      <path class="st6" d="M60.9,267.34c-.02-1.22.21-2.46.67-3.6.43-1.06,1.07-2.04,1.86-2.86s1.67-1.44,2.67-1.91,2.08-.76,3.18-.84c1.15-.09,2.32.05,3.42.4,1.19.38,2.31,1.01,3.25,1.84,1,.88,1.81,1.99,2.34,3.21.52,1.2.78,2.51.76,3.8"/>
    </g>
    <g id="SPLINE18">
      <path class="st6" d="M79.05,267.37c-.02,1.17-.27,2.34-.74,3.42-.43,1.01-1.05,1.94-1.81,2.72s-1.62,1.4-2.59,1.86c-.98.47-2.04.76-3.12.86-1.14.1-2.3-.02-3.4-.35-1.18-.35-2.29-.95-3.24-1.75-1-.84-1.82-1.89-2.37-3.07s-.85-2.45-.88-3.73"/>
    </g>
    <g id="SPLINE19">
      <path class="st6" d="M72.95,143.23c-.28-.12-.63-.11-.91.02-.26.12-.46.35-.57.61s-.1.55,0,.81c.11.28.35.52.62.63"/>
    </g>
    <g id="SPLINE20">
      <path class="st6" d="M82.8,149.74c.28.12.63.11.91-.02.26-.12.46-.34.57-.61s.1-.55,0-.81c-.11-.28-.35-.52-.62-.64"/>
    </g>
    <g id="LINE69">
      <line class="st6" x1="193.75" y1="273.75" x2="197.56" y2="281.67"/>
    </g>
    <g id="LINE70">
      <line class="st6" x1="200.51" y1="280.25" x2="196.7" y2="272.33"/>
    </g>
    <g id="LINE71">
      <line class="st6" x1="194.55" y1="154.49" x2="194.55" y2="158.09"/>
    </g>
    <g id="LINE72">
      <line class="st6" x1="201.75" y1="158.09" x2="201.75" y2="154.49"/>
    </g>
    <g id="LINE73">
      <line class="st6" x1="202.01" y1="273.95" x2="202.01" y2="279.9"/>
    </g>
    <g id="LINE74">
      <line class="st6" x1="205.29" y1="279.9" x2="205.29" y2="273.95"/>
    </g>
    <g id="LINE75">
      <line class="st6" x1="180.15" y1="154.72" x2="181.07" y2="157.26"/>
    </g>
    <g id="LINE76">
      <line class="st6" x1="182.07" y1="160.01" x2="183" y2="162.56"/>
    </g>
    <g id="LINE77">
      <line class="st6" x1="189.18" y1="272.33" x2="184.71" y2="281.62"/>
    </g>
    <g id="LINE78">
      <line class="st6" x1="187.66" y1="283.04" x2="192.13" y2="273.75"/>
    </g>
    <g id="ARC32">
      <path class="st6" d="M196.7,272.33c-1-2.08-3.49-2.95-5.57-1.95-.85.41-1.54,1.1-1.95,1.95"/>
    </g>
    <g id="ARC33">
      <path class="st6" d="M184.71,281.62c-.39.81-.05,1.79.77,2.18s1.79.05,2.18-.77"/>
    </g>
    <g id="ARC34">
      <path class="st6" d="M193.75,273.75c-.22-.45-.75-.64-1.2-.42-.18.09-.33.24-.42.42"/>
    </g>
    <g id="ARC35">
      <path class="st6" d="M182.07,160.01c.75-.3,1.11-1.16.81-1.9s-1.08-1.08-1.81-.84"/>
    </g>
    <g id="ARC36">
      <path class="st6" d="M194.55,154.49c.31,0,.56-.25.56-.56"/>
    </g>
    <g id="ARC37">
      <path class="st6" d="M195.11,158.65c0-.31-.25-.56-.56-.56"/>
    </g>
    <g id="ARC38">
      <path class="st6" d="M197.56,281.67c.97,2.02,3.4,2.87,5.42,1.9,1.41-.68,2.3-2.1,2.3-3.66"/>
    </g>
    <g id="ARC39">
      <path class="st6" d="M205.29,273.95c0-.9-.73-1.64-1.64-1.64s-1.64.73-1.64,1.64"/>
    </g>
    <g id="ARC40">
      <path class="st6" d="M200.51,280.25c.19.39.66.56,1.06.37.27-.13.45-.41.45-.71"/>
    </g>
    <g id="ARC41">
      <path class="st6" d="M201.75,158.09c-.31,0-.56.25-.56.56"/>
    </g>
    <g id="ARC42">
      <path class="st6" d="M201.19,153.92c0,.31.25.56.56.56"/>
    </g>
    <g id="SPLINE21">
      <path class="st6" d="M201.85,269.89v-.16c0-.05,0-.11.02-.17.02-.11.05-.23.1-.33s.1-.22.17-.32.15-.2.23-.29.18-.17.29-.23.21-.12.32-.17.22-.08.33-.1c.05-.01.11-.02.17-.02h.32c.05,0,.11.01.17.02.11.02.23.05.33.1s.22.1.32.17.2.15.29.23.17.18.23.29.12.21.17.32.08.22.1.33c0,.05.02.11.02.17v.16"/>
    </g>
    <g id="SPLINE22">
      <path class="st6" d="M205.45,269.89v.16c0,.05,0,.11-.02.17-.02.11-.05.23-.1.33s-.1.22-.17.32-.15.2-.23.29-.18.17-.29.23-.21.12-.32.17-.22.08-.33.1c-.05.01-.11.02-.17.02h-.32c-.05,0-.11-.01-.17-.02-.11-.02-.23-.05-.33-.1s-.22-.1-.32-.17-.2-.15-.29-.23-.17-.18-.23-.29-.12-.21-.17-.32-.08-.22-.1-.33c0-.05-.02-.11-.02-.17v-.16"/>
    </g>
    <g id="CIRCLE16">
      <circle class="st6" cx="195" cy="195" r="164.02"/>
    </g>
    <circle class="st5" cx="93.78" cy="253.46" r="20.82"/>
    <circle class="st3" cx="93.78" cy="253.46" r="20.82"/>
    <circle class="st5" cx="296.45" cy="253.46" r="20.82"/>
    <circle class="st4" cx="296.45" cy="253.46" r="20.82"/>
    <g>
      <circle class="st5" cx="195.11" cy="77.87" r="20.82"/>
      <circle class="st2" cx="195.11" cy="77.87" r="20.82"/>
    </g>
  </g>
</svg>