<svg width="174" height="177" viewBox="0 0 174 177" fill="none" xmlns="http://www.w3.org/2000/svg">
<g clip-path="url(#clip0_482_9580)">
<path d="M173.06 0H0V176.75H173.06V0Z" fill="white"/>
<path d="M28.06 35.7L23.81 43.07" stroke="#231815" stroke-linecap="round" stroke-linejoin="round"/>
<path d="M14.67 109.99V82.56" stroke="#231815" stroke-linecap="round" stroke-linejoin="round"/>
<path d="M14.67 68.39V19.49" stroke="#231815" stroke-linecap="round" stroke-linejoin="round"/>
<path d="M16.37 109.99V82.56" stroke="#231815" stroke-width="0.5" stroke-linecap="round" stroke-linejoin="round"/>
<path d="M16.37 68.39V19.49" stroke="#231815" stroke-width="0.5" stroke-linecap="round" stroke-linejoin="round"/>
<path d="M28.96 46.04L33.22 38.68" stroke="#231815" stroke-linecap="round" stroke-linejoin="round"/>
<path d="M96.45 162.07H110.63" stroke="#231815" stroke-linecap="round" stroke-linejoin="round"/>
<path d="M19.92 69.81V81.15" stroke="#231815" stroke-linecap="round" stroke-linejoin="round"/>
<path d="M96.45 160.37H110.63" stroke="#231815" stroke-width="0.5" stroke-linecap="round" stroke-linejoin="round"/>
<path d="M43.52 154.85H93.62" stroke="#231815" stroke-linecap="round" stroke-linejoin="round"/>
<path d="M113.46 154.85H129.55" stroke="#231815" stroke-linecap="round" stroke-linejoin="round"/>
<path d="M42.22 154L23.87 112.52" stroke="#231815" stroke-linecap="round" stroke-linejoin="round"/>
<path d="M28.42 14.67V16.37" stroke="#231815" stroke-linecap="round" stroke-linejoin="round"/>
<path d="M28.42 16.37V16.66" stroke="#231815" stroke-width="0.5" stroke-linecap="round" stroke-linejoin="round"/>
<path d="M29.84 14.67V16.37" stroke="#231815" stroke-width="0.5" stroke-linecap="round" stroke-linejoin="round"/>
<path d="M23.76 99.66L28.08 107.15" stroke="#231815" stroke-linecap="round" stroke-linejoin="round"/>
<path d="M33.24 104.17L28.92 96.69" stroke="#231815" stroke-linecap="round" stroke-linejoin="round"/>
<path d="M53.93 58.47V116.58" stroke="#231815" stroke-linecap="round" stroke-linejoin="round"/>
<path d="M56.77 119.41H116.3" stroke="#231815" stroke-linecap="round" stroke-linejoin="round"/>
<path d="M158.39 109.99H156.69" stroke="#231815" stroke-linecap="round" stroke-linejoin="round"/>
<path d="M156.69 109.99H153.08" stroke="#231815" stroke-linecap="round" stroke-linejoin="round"/>
<path d="M19.98 109.99H16.37" stroke="#231815" stroke-linecap="round" stroke-linejoin="round"/>
<path d="M14.67 109.99H16.37" stroke="#231815" stroke-linecap="round" stroke-linejoin="round"/>
<path d="M72.36 14.67V16.37" stroke="#231815" stroke-width="0.5" stroke-linecap="round" stroke-linejoin="round"/>
<path d="M73.78 14.67V16.37" stroke="#231815" stroke-width="0.5" stroke-linecap="round" stroke-linejoin="round"/>
<path d="M16.37 107.96H14.67" stroke="#231815" stroke-width="0.5" stroke-linecap="round" stroke-linejoin="round"/>
<path d="M156.69 107.96H158.39" stroke="#231815" stroke-width="0.5" stroke-linecap="round" stroke-linejoin="round"/>
<path d="M16.37 106.41H14.67" stroke="#231815" stroke-width="0.5" stroke-linecap="round" stroke-linejoin="round"/>
<path d="M156.69 106.41H158.39" stroke="#231815" stroke-width="0.5" stroke-linecap="round" stroke-linejoin="round"/>
<path d="M16.37 102.46H14.67" stroke="#231815" stroke-width="0.5" stroke-linecap="round" stroke-linejoin="round"/>
<path d="M156.69 102.46H158.39" stroke="#231815" stroke-width="0.5" stroke-linecap="round" stroke-linejoin="round"/>
<path d="M16.37 100.11H14.67" stroke="#231815" stroke-width="0.5" stroke-linecap="round" stroke-linejoin="round"/>
<path d="M156.69 100.11H158.39" stroke="#231815" stroke-width="0.5" stroke-linecap="round" stroke-linejoin="round"/>
<path d="M158.39 90.69H156.69" stroke="#231815" stroke-width="0.5" stroke-linecap="round" stroke-linejoin="round"/>
<path d="M14.67 90.69H16.37" stroke="#231815" stroke-width="0.5" stroke-linecap="round" stroke-linejoin="round"/>
<path d="M158.39 89.27H156.69" stroke="#231815" stroke-width="0.5" stroke-linecap="round" stroke-linejoin="round"/>
<path d="M14.67 89.27H16.37" stroke="#231815" stroke-width="0.5" stroke-linecap="round" stroke-linejoin="round"/>
<path d="M158.39 83.98H156.69" stroke="#231815" stroke-width="0.5" stroke-linecap="round" stroke-linejoin="round"/>
<path d="M16.37 83.98H14.67" stroke="#231815" stroke-width="0.5" stroke-linecap="round" stroke-linejoin="round"/>
<path d="M96.45 157.68V160.37" stroke="#231815" stroke-linecap="round" stroke-linejoin="round"/>
<path d="M96.45 162.07V160.37" stroke="#231815" stroke-linecap="round" stroke-linejoin="round"/>
<path d="M99.29 14.67V16.37" stroke="#231815" stroke-width="0.5" stroke-linecap="round" stroke-linejoin="round"/>
<path d="M100.7 14.67V16.37" stroke="#231815" stroke-width="0.5" stroke-linecap="round" stroke-linejoin="round"/>
<path d="M100.7 162.07V160.37" stroke="#231815" stroke-width="0.5" stroke-linecap="round" stroke-linejoin="round"/>
<path d="M158.39 82.56H156.69" stroke="#231815" stroke-linecap="round" stroke-linejoin="round"/>
<path d="M156.69 82.56H154.56" stroke="#231815" stroke-linecap="round" stroke-linejoin="round"/>
<path d="M16.37 82.56H14.67" stroke="#231815" stroke-linecap="round" stroke-linejoin="round"/>
<path d="M16.37 82.56H18.5" stroke="#231815" stroke-linecap="round" stroke-linejoin="round"/>
<path d="M106.37 162.07V160.37" stroke="#231815" stroke-width="0.5" stroke-linecap="round" stroke-linejoin="round"/>
<path d="M110.63 162.07V160.37" stroke="#231815" stroke-linecap="round" stroke-linejoin="round"/>
<path d="M110.63 160.37V157.68" stroke="#231815" stroke-linecap="round" stroke-linejoin="round"/>
<path d="M156.69 68.39H154.56" stroke="#231815" stroke-linecap="round" stroke-linejoin="round"/>
<path d="M14.67 68.39H16.37" stroke="#231815" stroke-linecap="round" stroke-linejoin="round"/>
<path d="M16.37 68.39H18.5" stroke="#231815" stroke-linecap="round" stroke-linejoin="round"/>
<path d="M156.69 68.39H158.39" stroke="#231815" stroke-linecap="round" stroke-linejoin="round"/>
<path d="M14.67 66.97H16.37" stroke="#231815" stroke-width="0.5" stroke-linecap="round" stroke-linejoin="round"/>
<path d="M156.69 66.97H158.39" stroke="#231815" stroke-width="0.5" stroke-linecap="round" stroke-linejoin="round"/>
<path d="M119.13 116.58V58.47" stroke="#231815" stroke-linecap="round" stroke-linejoin="round"/>
<path d="M158.39 56.34H156.69" stroke="#231815" stroke-width="0.5" stroke-linecap="round" stroke-linejoin="round"/>
<path d="M116.3 55.63H56.77" stroke="#231815" stroke-linecap="round" stroke-linejoin="round"/>
<path d="M158.39 51.65H156.69" stroke="#231815" stroke-width="0.5" stroke-linecap="round" stroke-linejoin="round"/>
<path d="M16.37 45.2H14.67" stroke="#231815" stroke-width="0.5" stroke-linecap="round" stroke-linejoin="round"/>
<path d="M156.69 45.2H158.39" stroke="#231815" stroke-width="0.5" stroke-linecap="round" stroke-linejoin="round"/>
<path d="M16.37 42.85H14.67" stroke="#231815" stroke-width="0.5" stroke-linecap="round" stroke-linejoin="round"/>
<path d="M156.69 42.85H158.39" stroke="#231815" stroke-width="0.5" stroke-linecap="round" stroke-linejoin="round"/>
<path d="M143.22 14.67V16.37" stroke="#231815" stroke-width="0.5" stroke-linecap="round" stroke-linejoin="round"/>
<path d="M144.64 14.67V16.37" stroke="#231815" stroke-linecap="round" stroke-linejoin="round"/>
<path d="M144.64 16.37V16.66" stroke="#231815" stroke-width="0.5" stroke-linecap="round" stroke-linejoin="round"/>
<path d="M16.37 39.06H14.67" stroke="#231815" stroke-width="0.5" stroke-linecap="round" stroke-linejoin="round"/>
<path d="M156.69 39.06H158.39" stroke="#231815" stroke-width="0.5" stroke-linecap="round" stroke-linejoin="round"/>
<path d="M16.37 36.71H14.67" stroke="#231815" stroke-width="0.5" stroke-linecap="round" stroke-linejoin="round"/>
<path d="M156.69 36.71H158.39" stroke="#231815" stroke-width="0.5" stroke-linecap="round" stroke-linejoin="round"/>
<path d="M153.15 81.15V69.81" stroke="#231815" stroke-linecap="round" stroke-linejoin="round"/>
<path d="M156.69 109.99V82.56" stroke="#231815" stroke-width="0.5" stroke-linecap="round" stroke-linejoin="round"/>
<path d="M156.69 68.39V19.49" stroke="#231815" stroke-width="0.5" stroke-linecap="round" stroke-linejoin="round"/>
<path d="M130.84 154L149.19 112.52" stroke="#231815" stroke-linecap="round" stroke-linejoin="round"/>
<path d="M158.39 27.29H156.69" stroke="#231815" stroke-width="0.5" stroke-linecap="round" stroke-linejoin="round"/>
<path d="M14.67 27.29H16.37" stroke="#231815" stroke-width="0.5" stroke-linecap="round" stroke-linejoin="round"/>
<path d="M158.39 25.87H156.69" stroke="#231815" stroke-width="0.5" stroke-linecap="round" stroke-linejoin="round"/>
<path d="M14.67 25.87H16.37" stroke="#231815" stroke-width="0.5" stroke-linecap="round" stroke-linejoin="round"/>
<path d="M158.39 109.99V82.56" stroke="#231815" stroke-linecap="round" stroke-linejoin="round"/>
<path d="M158.39 68.39V19.49" stroke="#231815" stroke-linecap="round" stroke-linejoin="round"/>
<path d="M158.39 20.91H156.69" stroke="#231815" stroke-width="0.5" stroke-linecap="round" stroke-linejoin="round"/>
<path d="M14.67 20.91H16.37" stroke="#231815" stroke-width="0.5" stroke-linecap="round" stroke-linejoin="round"/>
<path d="M158.39 19.49H156.69" stroke="#231815" stroke-linecap="round" stroke-linejoin="round"/>
<path d="M14.67 19.49H16.37" stroke="#231815" stroke-linecap="round" stroke-linejoin="round"/>
<path d="M16.37 19.49H25.59" stroke="#231815" stroke-linecap="round" stroke-linejoin="round"/>
<path d="M147.48 19.49H156.69" stroke="#231815" stroke-linecap="round" stroke-linejoin="round"/>
<path d="M28.42 16.37H144.64" stroke="#231815" stroke-width="0.5" stroke-linecap="round" stroke-linejoin="round"/>
<path d="M28.42 14.67H144.64" stroke="#231815" stroke-linecap="round" stroke-linejoin="round"/>
<path d="M23.87 112.52C23.19 110.98 21.66 109.99 19.98 109.99" stroke="#231815" stroke-linecap="round" stroke-linejoin="round"/>
<path d="M28.08 107.15C28.9 108.57 30.72 109.06 32.15 108.24C33.58 107.42 34.06 105.6 33.24 104.17" stroke="#231815" stroke-linecap="round" stroke-linejoin="round"/>
<path d="M28.92 96.69C28.1 95.27 26.28 94.78 24.85 95.6C23.42 96.42 22.94 98.24 23.76 99.67" stroke="#231815" stroke-linecap="round" stroke-linejoin="round"/>
<path d="M53.93 116.58C53.93 118.15 55.2 119.41 56.76 119.41" stroke="#231815" stroke-linecap="round" stroke-linejoin="round"/>
<path d="M42.22 154C42.45 154.51 42.96 154.84 43.52 154.84" stroke="#231815" stroke-linecap="round" stroke-linejoin="round"/>
<path d="M33.22 38.68C34.04 37.26 33.55 35.44 32.13 34.61C30.71 33.78 28.89 34.28 28.06 35.7" stroke="#231815" stroke-linecap="round" stroke-linejoin="round"/>
<path d="M23.81 43.07C22.99 44.49 23.48 46.31 24.9 47.14C26.32 47.97 28.14 47.47 28.97 46.05" stroke="#231815" stroke-linecap="round" stroke-linejoin="round"/>
<path d="M56.77 55.63C55.2 55.63 53.94 56.9 53.94 58.46" stroke="#231815" stroke-linecap="round" stroke-linejoin="round"/>
<path d="M25.59 19.49C27.16 19.49 28.42 18.22 28.42 16.66" stroke="#231815" stroke-linecap="round" stroke-linejoin="round"/>
<path d="M18.5 82.56C19.28 82.56 19.92 81.93 19.92 81.14" stroke="#231815" stroke-linecap="round" stroke-linejoin="round"/>
<path d="M19.92 69.81C19.92 69.03 19.29 68.39 18.5 68.39" stroke="#231815" stroke-linecap="round" stroke-linejoin="round"/>
<path d="M153.08 109.99C151.4 109.99 149.87 110.98 149.19 112.52" stroke="#231815" stroke-linecap="round" stroke-linejoin="round"/>
<path d="M96.45 157.68C96.45 156.11 95.18 154.85 93.62 154.85" stroke="#231815" stroke-linecap="round" stroke-linejoin="round"/>
<path d="M113.46 154.85C111.89 154.85 110.63 156.12 110.63 157.68" stroke="#231815" stroke-linecap="round" stroke-linejoin="round"/>
<path d="M116.3 119.41C117.87 119.41 119.13 118.14 119.13 116.58" stroke="#231815" stroke-linecap="round" stroke-linejoin="round"/>
<path d="M129.55 154.85C130.11 154.85 130.62 154.52 130.85 154.01" stroke="#231815" stroke-linecap="round" stroke-linejoin="round"/>
<path d="M138.12 59.21C138.12 57.57 139.45 56.23 141.1 56.23C142.75 56.23 144.08 57.56 144.08 59.21C144.08 60.86 142.75 62.19 141.1 62.19C139.45 62.19 138.12 60.86 138.12 59.21Z" stroke="#231815" stroke-linecap="round" stroke-linejoin="round"/>
<path d="M119.13 58.47C119.13 56.9 117.86 55.64 116.3 55.64" stroke="#231815" stroke-linecap="round" stroke-linejoin="round"/>
<path d="M144.64 16.66C144.64 18.23 145.91 19.49 147.47 19.49" stroke="#231815" stroke-linecap="round" stroke-linejoin="round"/>
<path d="M154.56 68.39C153.78 68.39 153.14 69.02 153.14 69.81" stroke="#231815" stroke-linecap="round" stroke-linejoin="round"/>
<path d="M153.15 81.15C153.15 81.93 153.78 82.57 154.57 82.57" stroke="#231815" stroke-linecap="round" stroke-linejoin="round"/>
<path d="M51.1 147.05H56.77" stroke="#231815" stroke-linecap="round" stroke-linejoin="round"/>
<path d="M83.7 147.05H89.37" stroke="#231815" stroke-linecap="round" stroke-linejoin="round"/>
<path d="M89.37 140.67H83.7" stroke="#231815" stroke-linecap="round" stroke-linejoin="round"/>
<path d="M56.77 140.67H51.1" stroke="#231815" stroke-linecap="round" stroke-linejoin="round"/>
<path d="M83.34 22.96V28.63" stroke="#231815" stroke-linecap="round" stroke-linejoin="round"/>
<path d="M89.72 28.63V22.96" stroke="#231815" stroke-linecap="round" stroke-linejoin="round"/>
<path d="M115.94 22.96V28.63" stroke="#231815" stroke-linecap="round" stroke-linejoin="round"/>
<path d="M122.32 28.63V22.96" stroke="#231815" stroke-linecap="round" stroke-linejoin="round"/>
<path d="M51.1 140.67C49.34 140.67 47.91 142.1 47.91 143.86C47.91 145.62 49.34 147.05 51.1 147.05" stroke="#231815" stroke-linecap="round" stroke-linejoin="round"/>
<path d="M56.77 147.05C58.53 147.05 59.96 145.62 59.96 143.86C59.96 142.1 58.53 140.67 56.77 140.67" stroke="#231815" stroke-linecap="round" stroke-linejoin="round"/>
<path d="M83.7 140.67C81.94 140.67 80.51 142.1 80.51 143.86C80.51 145.62 81.94 147.05 83.7 147.05" stroke="#231815" stroke-linecap="round" stroke-linejoin="round"/>
<path d="M42.63 126.5C42.63 125.74 43.25 125.12 44.01 125.12C44.77 125.12 45.39 125.74 45.39 126.5C45.39 127.26 44.77 127.88 44.01 127.88C43.25 127.88 42.63 127.26 42.63 126.5Z" stroke="#231815" stroke-width="0.5" stroke-linecap="round" stroke-linejoin="round"/>
<path d="M43.87 126.5C43.87 126.42 43.93 126.36 44.01 126.36C44.09 126.36 44.15 126.42 44.15 126.5C44.15 126.58 44.09 126.64 44.01 126.64C43.93 126.64 43.87 126.58 43.87 126.5Z" stroke="#231815" stroke-width="0.5" stroke-linecap="round" stroke-linejoin="round"/>
<path d="M50.74 25.8C50.74 24.04 52.17 22.61 53.93 22.61C55.69 22.61 57.12 24.04 57.12 25.8C57.12 27.56 55.69 28.99 53.93 28.99C52.17 28.99 50.74 27.56 50.74 25.8Z" stroke="#231815" stroke-linecap="round" stroke-linejoin="round"/>
<path d="M19.96 28.7C19.96 27.94 20.58 27.32 21.34 27.32C22.1 27.32 22.72 27.94 22.72 28.7C22.72 29.46 22.1 30.08 21.34 30.08C20.58 30.08 19.96 29.46 19.96 28.7Z" stroke="#231815" stroke-width="0.5" stroke-linecap="round" stroke-linejoin="round"/>
<path d="M21.19 28.7C21.19 28.62 21.25 28.56 21.33 28.56C21.41 28.56 21.47 28.62 21.47 28.7C21.47 28.78 21.41 28.84 21.33 28.84C21.25 28.84 21.19 28.78 21.19 28.7Z" stroke="#231815" stroke-width="0.5" stroke-linecap="round" stroke-linejoin="round"/>
<path d="M115.94 143.86C115.94 142.1 117.37 140.67 119.13 140.67C120.89 140.67 122.32 142.1 122.32 143.86C122.32 145.62 120.89 147.05 119.13 147.05C117.37 147.05 115.94 145.62 115.94 143.86Z" stroke="#231815" stroke-linecap="round" stroke-linejoin="round"/>
<path d="M89.37 147.05C91.13 147.05 92.56 145.62 92.56 143.86C92.56 142.1 91.13 140.67 89.37 140.67" stroke="#231815" stroke-linecap="round" stroke-linejoin="round"/>
<path d="M127.67 126.5C127.67 125.74 128.29 125.12 129.05 125.12C129.81 125.12 130.43 125.74 130.43 126.5C130.43 127.26 129.81 127.88 129.05 127.88C128.29 127.88 127.67 127.26 127.67 126.5Z" stroke="#231815" stroke-width="0.5" stroke-linecap="round" stroke-linejoin="round"/>
<path d="M128.91 126.5C128.91 126.42 128.97 126.36 129.05 126.36C129.13 126.36 129.19 126.42 129.19 126.5C129.19 126.58 129.13 126.64 129.05 126.64C128.97 126.64 128.91 126.58 128.91 126.5Z" stroke="#231815" stroke-width="0.5" stroke-linecap="round" stroke-linejoin="round"/>
<path d="M83.34 28.63C83.34 30.39 84.77 31.82 86.53 31.82C88.29 31.82 89.72 30.39 89.72 28.63" stroke="#231815" stroke-linecap="round" stroke-linejoin="round"/>
<path d="M89.72 22.96C89.72 21.2 88.29 19.77 86.53 19.77C84.77 19.77 83.34 21.2 83.34 22.96" stroke="#231815" stroke-linecap="round" stroke-linejoin="round"/>
<path d="M115.94 28.63C115.94 30.39 117.37 31.82 119.13 31.82C120.89 31.82 122.32 30.39 122.32 28.63" stroke="#231815" stroke-linecap="round" stroke-linejoin="round"/>
<path d="M122.32 22.96C122.32 21.2 120.89 19.77 119.13 19.77C117.37 19.77 115.94 21.2 115.94 22.96" stroke="#231815" stroke-linecap="round" stroke-linejoin="round"/>
<path d="M150.35 28.7C150.35 27.94 150.97 27.32 151.73 27.32C152.49 27.32 153.11 27.94 153.11 28.7C153.11 29.46 152.49 30.08 151.73 30.08C150.97 30.08 150.35 29.46 150.35 28.7Z" stroke="#231815" stroke-width="0.5" stroke-linecap="round" stroke-linejoin="round"/>
<path d="M151.59 28.7C151.59 28.62 151.65 28.56 151.73 28.56C151.81 28.56 151.87 28.62 151.87 28.7C151.87 28.78 151.81 28.84 151.73 28.84C151.65 28.84 151.59 28.78 151.59 28.7Z" stroke="#231815" stroke-width="0.5" stroke-linecap="round" stroke-linejoin="round"/>
</g>
<defs>
<clipPath id="clip0_482_9580">
<rect width="173.06" height="176.75" fill="white"/>
</clipPath>
</defs>
</svg>
