<svg width="96" height="85" viewBox="0 0 96 85" fill="none" xmlns="http://www.w3.org/2000/svg">
<g clip-path="url(#clip0_75_3008)">
<path d="M10.71 78.96L9.27 81.59C8.72 82.54 7.6 82.46 6.93 81.48L2.66 74.98L2.69 69.19L3.67 67.95V65.6L2.72 64.47L2.76 57.54L3.74 56.3V53.95L2.79 52.82L2.83 45.85L3.81 44.61V42.26L2.86 41.13V39.81L2.89 36.05H4.49C5.99 36.07 5.94 33.26 4.5 33.26H3.17L0.25 24.76L4.06 24.63L2.96 23L3.08 0.25L19.21 0.34L19.12 17.29L18.11 18.5L18.09 21.52L19.09 22.51V24.87L21.77 24.89L18.75 33.35H17.42C15.98 33.33 15.9 36.14 17.41 36.15H18.04L18.03 38.82L18.99 39.93L18.95 47.86L17.97 48.98V51.33L18.92 52.58L18.88 59.54L17.9 60.66V63.01L18.85 64.26L18.79 75.09L14.45 81.54C13.77 82.52 12.65 82.58 12.11 81.63L10.7 78.98" fill="white"/>
<path d="M14.13 81.18L16.94 74.89L16.97 69.16L14.35 69.15L14.37 64.58L17 64.6L17.04 57.51L14.41 57.5L14.44 52.93L17.06 52.95L17.1 45.88L14.47 45.87L14.5 41.3L17.13 41.32L17.15 36.42L17.41 36.14H18.05L18.03 38.8L18.99 39.91L18.95 47.84L17.97 48.96L17.96 51.31L18.92 52.56L18.89 59.52L17.91 60.64L17.9 62.99L18.86 64.24L18.8 75.07L14.46 81.52L14.13 81.18Z" fill="#E6E6E6"/>
<path d="M10.28 78.08L10.55 28.39C10.55 28.15 10.75 27.96 10.99 27.96C11.23 27.96 11.42 28.16 11.42 28.4L11.15 78.08C11.15 78.32 10.95 78.51 10.72 78.51C10.48 78.51 10.29 78.31 10.29 78.07L10.28 78.08Z" fill="#B3B3B3"/>
<path d="M10.59 23.19L10.63 15.38C10.63 15.14 10.83 14.95 11.07 14.95C11.31 14.95 11.5 15.15 11.5 15.38L11.46 23.19C11.46 23.43 11.26 23.62 11.02 23.62C10.78 23.62 10.59 23.42 10.59 23.18V23.19Z" fill="#B3B3B3"/>
<path d="M8.37999 41.27L9.61999 41.28L9.58999 45.84H8.35999" fill="#E6E6E6"/>
<path d="M8.32001 52.9H9.55001L9.53001 57.47L8.29001 57.46" fill="#E6E6E6"/>
<path d="M8.26001 64.55L9.49001 64.56L9.47001 69.12H8.23001" fill="#E6E6E6"/>
<path d="M3.97999 41.24L9.61999 41.28L9.58999 45.84L3.95999 45.81" stroke="#666666" stroke-width="0.3" stroke-linecap="round" stroke-linejoin="round"/>
<path d="M5.28 24.64L17.75 24.71" stroke="#666666" stroke-width="0.3" stroke-linecap="round" stroke-linejoin="round"/>
<path d="M3.92001 52.87L9.55001 52.9L9.53001 57.47L3.89001 57.44" stroke="#666666" stroke-width="0.3" stroke-linecap="round" stroke-linejoin="round"/>
<path d="M3.85999 64.52L9.48999 64.56L9.46999 69.12L3.82999 69.09" stroke="#666666" stroke-width="0.3" stroke-linecap="round" stroke-linejoin="round"/>
<path d="M14.13 81.18L16.94 74.89L16.97 69.16L14.35 69.15L14.37 64.58L17 64.6L17.04 57.51L14.41 57.5L14.44 52.93L17.06 52.95L17.1 45.88L14.47 45.87L14.5 41.3L17.13 41.32L17.15 36.42" stroke="#666666" stroke-width="0.3" stroke-linecap="round" stroke-linejoin="round"/>
<path d="M10.71 78.96L9.27 81.59C8.72 82.54 7.6 82.46 6.93 81.48L2.66 74.98L2.69 69.19L3.67 67.95V65.6L2.72 64.47L2.76 57.54L3.74 56.3V53.95L2.79 52.82L2.83 45.85L3.81 44.61V42.26L2.86 41.13V39.81L2.89 36.05H4.49C5.99 36.07 5.94 33.26 4.5 33.26H3.17L0.25 24.76L4.06 24.63L2.96 23L3.08 0.25L19.21 0.34L19.12 17.29L18.11 18.5L18.09 21.52L19.09 22.51V24.87L21.77 24.89L18.75 33.35H17.42C15.98 33.33 15.9 36.14 17.41 36.15H18.04L18.03 38.82L18.99 39.93L18.95 47.86L17.97 48.98V51.33L18.92 52.58L18.88 59.54L17.9 60.66V63.01L18.85 64.26L18.79 75.09L14.45 81.54C13.77 82.52 12.65 82.58 12.11 81.63L10.7 78.98" stroke="black" stroke-width="0.5" stroke-linecap="round" stroke-linejoin="round"/>
<path d="M22.44 80.3L20.51 82.6C19.79 83.42 18.71 83.13 18.24 82.03L15.34 74.82L16.51 69.15L17.71 68.13L18.19 65.83L17.47 64.53L18.88 57.74L20.08 56.72L20.56 54.42L19.84 53.13L21.25 46.31L22.45 45.29L22.93 42.99L22.21 41.69L22.48 40.4L23.24 36.71L24.81 37.04C26.28 37.34 26.79 34.59 25.38 34.3L24.08 34.03L22.89 25.12L26.65 25.74L25.89 23.92L30.48 1.64L46.28 4.91L42.85 21.51L41.62 22.49L41.01 25.44L41.79 26.61L41.31 28.92L43.95 29.47L39.32 37.17L38.02 36.9C36.61 36.61 35.98 39.34 37.45 39.64L38.07 39.77L37.53 42.38L38.26 43.65L36.65 51.42L35.47 52.32L34.99 54.62L35.69 56.03L34.28 62.85L33.1 63.75L32.62 66.05L33.32 67.47L31.13 78.07L25.6 83.54C24.74 84.36 23.63 84.2 23.29 83.17L22.43 80.29" fill="white"/>
<path d="M25.36 83.15L29.35 77.55L30.51 71.94L27.94 71.4L28.86 66.93L31.44 67.47L32.87 60.53L30.3 60L31.22 55.52L33.8 56.06L35.23 49.14L32.66 48.61L33.58 44.14L36.15 44.67L37.15 39.87L37.46 39.65L38.08 39.77L37.54 42.38L38.26 43.66L36.66 51.42L35.48 52.33L35 54.63L35.7 56.04L34.29 62.86L33.11 63.76L32.63 66.07L33.33 67.48L31.14 78.09L25.61 83.55L25.36 83.15Z" fill="#E6E6E6"/>
<path d="M22.19 79.36L32.26 30.7C32.31 30.47 32.54 30.31 32.77 30.36C33 30.41 33.16 30.64 33.11 30.87L23.04 79.52C22.99 79.76 22.76 79.91 22.53 79.86C22.3 79.81 22.14 79.58 22.19 79.35V79.36Z" fill="#B3B3B3"/>
<path d="M33.32 25.61L34.9 17.96C34.95 17.73 35.18 17.57 35.41 17.62C35.64 17.67 35.8 17.9 35.75 18.13L34.17 25.78C34.12 26.01 33.89 26.17 33.66 26.12C33.43 26.07 33.28 25.84 33.32 25.61Z" fill="#B3B3B3"/>
<path d="M27.59 42.9L28.8 43.15L27.88 47.62L26.67 47.37" fill="#E6E6E6"/>
<path d="M25.24 54.28L26.44 54.53L25.52 59.01L24.31 58.76" fill="#E6E6E6"/>
<path d="M22.87 65.69L24.08 65.94L23.16 70.42L21.95 70.17" fill="#E6E6E6"/>
<path d="M23.28 42L28.8 43.15L27.88 47.62L22.36 46.48" stroke="#666666" stroke-width="0.3" stroke-linecap="round" stroke-linejoin="round"/>
<path d="M27.83 25.98L40.04 28.51" stroke="#666666" stroke-width="0.3" stroke-linecap="round" stroke-linejoin="round"/>
<path d="M20.93 53.39L26.44 54.53L25.52 59.01L20 57.86" stroke="#666666" stroke-width="0.3" stroke-linecap="round" stroke-linejoin="round"/>
<path d="M18.57 64.8L24.08 65.94L23.16 70.42L17.64 69.27" stroke="#666666" stroke-width="0.3" stroke-linecap="round" stroke-linejoin="round"/>
<path d="M25.36 83.15L29.35 77.55L30.51 71.94L27.94 71.4L28.86 66.93L31.44 67.47L32.87 60.53L30.3 60L31.22 55.52L33.8 56.06L35.23 49.14L32.66 48.61L33.58 44.14L36.15 44.67L37.15 39.87" stroke="#666666" stroke-width="0.3" stroke-linecap="round" stroke-linejoin="round"/>
<path d="M22.44 80.3L20.51 82.6C19.79 83.42 18.71 83.13 18.24 82.03L15.34 74.82L16.51 69.15L17.71 68.13L18.19 65.83L17.47 64.53L18.88 57.74L20.08 56.72L20.56 54.42L19.84 53.13L21.25 46.31L22.45 45.29L22.93 42.99L22.21 41.69L22.48 40.4L23.24 36.71L24.81 37.04C26.28 37.34 26.79 34.59 25.38 34.3L24.08 34.03L22.89 25.12L26.65 25.74L25.89 23.92L30.48 1.64L46.28 4.91L42.85 21.51L41.62 22.49L41.01 25.44L41.79 26.61L41.31 28.92L43.95 29.47L39.32 37.17L38.02 36.9C36.61 36.61 35.98 39.34 37.45 39.64L38.07 39.77L37.53 42.38L38.26 43.65L36.65 51.42L35.47 52.32L34.99 54.62L35.69 56.03L34.28 62.85L33.1 63.75L32.62 66.05L33.32 67.47L31.13 78.07L25.6 83.54C24.74 84.36 23.63 84.2 23.29 83.17L22.43 80.29" stroke="black" stroke-width="0.5" stroke-linecap="round" stroke-linejoin="round"/>
<path d="M59.41 78.96L57.97 81.59C57.42 82.54 56.3 82.46 55.63 81.48L51.36 74.98L51.39 69.19L52.37 67.95V65.6L51.42 64.47L51.46 57.54L52.44 56.3V53.95L51.49 52.82L51.53 45.85L52.51 44.61V42.26L51.56 41.13V39.81L51.59 36.05H53.19C54.69 36.07 54.64 33.26 53.2 33.26H51.87L48.95 24.76L52.76 24.63L51.66 23L51.79 0.260002L67.92 0.350002L67.83 17.3L66.82 18.51L66.8 21.53L67.8 22.52V24.88L70.48 24.9L67.46 33.36H66.13C64.69 33.34 64.61 36.15 66.12 36.16H66.75L66.74 38.83L67.7 39.94L67.66 47.87L66.68 48.99V51.34L67.63 52.59L67.59 59.55L66.61 60.67V63.02L67.56 64.27L67.5 75.1L63.16 81.55C62.48 82.53 61.36 82.59 60.82 81.64L59.41 78.99" fill="white"/>
<path d="M62.83 81.18L65.64 74.89L65.67 69.16L63.04 69.15L63.07 64.58L65.69 64.6L65.73 57.51L63.1 57.5L63.13 52.93L65.76 52.95L65.8 45.88L63.17 45.87L63.19 41.3L65.82 41.32L65.85 36.42L66.11 36.14H66.74L66.73 38.8L67.69 39.91L67.65 47.84L66.67 48.96L66.66 51.31L67.62 52.56L67.58 59.52L66.61 60.64L66.59 62.99L67.55 64.24L67.5 75.07L63.15 81.52L62.83 81.18Z" fill="#E6E6E6"/>
<path d="M58.98 78.08L59.25 28.39C59.25 28.15 59.45 27.96 59.69 27.96C59.93 27.96 60.12 28.16 60.12 28.4L59.85 78.08C59.85 78.32 59.65 78.51 59.42 78.51C59.18 78.51 58.99 78.31 58.99 78.07L58.98 78.08Z" fill="#B3B3B3"/>
<path d="M59.28 23.19L59.32 15.38C59.32 15.14 59.52 14.95 59.76 14.95C60 14.95 60.19 15.15 60.19 15.38L60.15 23.19C60.15 23.43 59.95 23.62 59.71 23.62C59.47 23.62 59.28 23.42 59.28 23.18V23.19Z" fill="#B3B3B3"/>
<path d="M57.08 41.27L58.31 41.28L58.29 45.84H57.05" fill="#E6E6E6"/>
<path d="M57.01 52.9H58.25L58.22 57.47L56.99 57.46" fill="#E6E6E6"/>
<path d="M56.95 64.55L58.19 64.56L58.16 69.12H56.93" fill="#E6E6E6"/>
<path d="M52.68 41.24L58.31 41.28L58.29 45.84L52.65 45.81" stroke="#666666" stroke-width="0.3" stroke-linecap="round" stroke-linejoin="round"/>
<path d="M53.97 24.64L66.45 24.71" stroke="#666666" stroke-width="0.3" stroke-linecap="round" stroke-linejoin="round"/>
<path d="M52.61 52.87L58.25 52.9L58.22 57.47L52.59 57.44" stroke="#666666" stroke-width="0.3" stroke-linecap="round" stroke-linejoin="round"/>
<path d="M52.55 64.52L58.19 64.56L58.16 69.12L52.52 69.09" stroke="#666666" stroke-width="0.3" stroke-linecap="round" stroke-linejoin="round"/>
<path d="M62.83 81.18L65.64 74.89L65.67 69.16L63.04 69.15L63.07 64.58L65.69 64.6L65.73 57.51L63.1 57.5L63.13 52.93L65.76 52.95L65.8 45.88L63.17 45.87L63.19 41.3L65.82 41.32L65.85 36.42" stroke="#666666" stroke-width="0.3" stroke-linecap="round" stroke-linejoin="round"/>
<path d="M59.41 78.96L57.97 81.59C57.42 82.54 56.3 82.46 55.63 81.48L51.36 74.98L51.39 69.19L52.37 67.95V65.6L51.42 64.47L51.46 57.54L52.44 56.3V53.95L51.49 52.82L51.53 45.85L52.51 44.61V42.26L51.56 41.13V39.81L51.59 36.05H53.19C54.69 36.07 54.64 33.26 53.2 33.26H51.87L48.95 24.76L52.76 24.63L51.66 23L51.79 0.260002L67.92 0.350002L67.83 17.3L66.82 18.51L66.8 21.53L67.8 22.52V24.88L70.48 24.9L67.46 33.36H66.13C64.69 33.34 64.61 36.15 66.12 36.16H66.75L66.74 38.83L67.7 39.94L67.66 47.87L66.68 48.99V51.34L67.63 52.59L67.59 59.55L66.61 60.67V63.02L67.56 64.27L67.5 75.1L63.16 81.55C62.48 82.53 61.36 82.59 60.82 81.64L59.41 78.99" stroke="black" stroke-width="0.5" stroke-linecap="round" stroke-linejoin="round"/>
<path d="M71.13 80.3L69.2 82.6C68.48 83.42 67.4 83.13 66.93 82.03L64.03 74.82L65.2 69.15L66.4 68.13L66.88 65.83L66.16 64.53L67.57 57.74L68.77 56.72L69.25 54.42L68.53 53.13L69.94 46.31L71.14 45.29L71.62 42.99L70.9 41.69L71.17 40.4L71.93 36.71L73.5 37.04C74.97 37.34 75.48 34.59 74.07 34.3L72.77 34.03L71.58 25.12L75.34 25.74L74.58 23.92L79.19 1.65L94.99 4.92L91.56 21.52L90.33 22.5L89.72 25.45L90.5 26.62L90.02 28.93L92.66 29.48L88.03 37.18L86.73 36.91C85.32 36.62 84.69 39.35 86.16 39.65L86.78 39.78L86.24 42.39L86.97 43.66L85.36 51.43L84.18 52.33L83.7 54.63L84.4 56.04L82.99 62.86L81.81 63.76L81.33 66.06L82.03 67.48L79.84 78.08L74.31 83.55C73.45 84.37 72.34 84.21 72 83.18L71.14 80.3" fill="white"/>
<path d="M74.05 83.15L78.04 77.55L79.21 71.94L76.63 71.4L77.56 66.93L80.13 67.47L81.57 60.53L78.99 60L79.92 55.52L82.49 56.06L83.92 49.14L81.35 48.61L82.28 44.14L84.85 44.67L85.84 39.87L86.15 39.65L86.77 39.77L86.23 42.38L86.96 43.66L85.35 51.42L84.17 52.33L83.69 54.63L84.39 56.04L82.98 62.86L81.81 63.76L81.33 66.07L82.03 67.48L79.83 78.09L74.3 83.55L74.05 83.15Z" fill="#E6E6E6"/>
<path d="M70.89 79.36L80.96 30.7C81.01 30.47 81.24 30.31 81.47 30.36C81.7 30.41 81.86 30.64 81.81 30.87L71.74 79.52C71.69 79.76 71.46 79.91 71.23 79.86C71 79.81 70.84 79.58 70.89 79.35V79.36Z" fill="#B3B3B3"/>
<path d="M82.01 25.61L83.59 17.96C83.64 17.73 83.87 17.57 84.1 17.62C84.33 17.67 84.49 17.9 84.44 18.13L82.86 25.78C82.81 26.01 82.58 26.17 82.35 26.12C82.12 26.07 81.97 25.84 82.01 25.61Z" fill="#B3B3B3"/>
<path d="M76.29 42.9L77.5 43.15L76.57 47.62L75.36 47.37" fill="#E6E6E6"/>
<path d="M73.93 54.28L75.14 54.53L74.21 59.01L73 58.76" fill="#E6E6E6"/>
<path d="M71.57 65.69L72.78 65.94L71.85 70.42L70.64 70.17" fill="#E6E6E6"/>
<path d="M71.98 42L77.5 43.15L76.57 47.62L71.05 46.48" stroke="#666666" stroke-width="0.3" stroke-linecap="round" stroke-linejoin="round"/>
<path d="M76.52 25.98L88.74 28.51" stroke="#666666" stroke-width="0.3" stroke-linecap="round" stroke-linejoin="round"/>
<path d="M69.62 53.39L75.14 54.53L74.21 59.01L68.69 57.86" stroke="#666666" stroke-width="0.3" stroke-linecap="round" stroke-linejoin="round"/>
<path d="M67.26 64.8L72.78 65.94L71.85 70.42L66.33 69.27" stroke="#666666" stroke-width="0.3" stroke-linecap="round" stroke-linejoin="round"/>
<path d="M74.05 83.15L78.04 77.55L79.21 71.94L76.63 71.4L77.56 66.93L80.13 67.47L81.57 60.53L78.99 60L79.92 55.52L82.49 56.06L83.92 49.14L81.35 48.61L82.28 44.14L84.85 44.67L85.84 39.87" stroke="#666666" stroke-width="0.3" stroke-linecap="round" stroke-linejoin="round"/>
<path d="M71.13 80.3L69.2 82.6C68.48 83.42 67.4 83.13 66.93 82.03L64.03 74.82L65.2 69.15L66.4 68.13L66.88 65.83L66.16 64.53L67.57 57.74L68.77 56.72L69.25 54.42L68.53 53.13L69.94 46.31L71.14 45.29L71.62 42.99L70.9 41.69L71.17 40.4L71.93 36.71L73.5 37.04C74.97 37.34 75.48 34.59 74.07 34.3L72.77 34.03L71.58 25.12L75.34 25.74L74.58 23.92L79.19 1.65L94.99 4.92L91.56 21.52L90.33 22.5L89.72 25.45L90.5 26.62L90.02 28.93L92.66 29.48L88.03 37.18L86.73 36.91C85.32 36.62 84.69 39.35 86.16 39.65L86.78 39.78L86.24 42.39L86.97 43.66L85.36 51.43L84.18 52.33L83.7 54.63L84.4 56.04L82.99 62.86L81.81 63.76L81.33 66.06L82.03 67.48L79.84 78.08L74.31 83.55C73.45 84.37 72.34 84.21 72 83.18L71.14 80.3" stroke="black" stroke-width="0.5" stroke-linecap="round" stroke-linejoin="round"/>
</g>
<defs>
<clipPath id="clip0_75_3008">
<rect width="95.23" height="84.33" fill="white"/>
</clipPath>
</defs>
</svg>
