<svg width="138" height="81" viewBox="0 0 138 81" fill="none" xmlns="http://www.w3.org/2000/svg">
<g clip-path="url(#clip0_663_19663)">
<path d="M65.38 3.62H41.88C41.8 1.66 41.59 0.25 41.33 0.25H23.62C23.36 0.25 23.15 1.66 23.07 3.62H0V6.66H23.08C23.16 8.63 23.37 10.05 23.63 10.05H41.34C41.6 10.05 41.81 8.62 41.89 6.66H65.39V3.62H65.38Z" fill="white"/>
<mask id="mask0_663_19663" style="mask-type:luminance" maskUnits="userSpaceOnUse" x="23" y="0" width="19" height="11">
<path d="M23.63 0.25C23.31 0.25 23.05 2.44 23.05 5.15C23.05 7.86 23.31 10.05 23.63 10.05H41.34C41.66 10.05 41.92 7.86 41.92 5.15C41.92 2.44 41.66 0.25 41.34 0.25H23.63Z" fill="white"/>
</mask>
<g mask="url(#mask0_663_19663)">
<path d="M41.91 0.25H23.05V10.05H41.91V0.25Z" fill="white"/>
</g>
<path d="M41.33 0.25H23.62C23.3 0.25 23.04 2.44 23.04 5.15C23.04 7.86 23.3 10.05 23.62 10.05H41.33C41.65 10.05 41.91 7.86 41.91 5.15C41.91 2.44 41.65 0.25 41.33 0.25Z" stroke="#231815" stroke-width="0.5" stroke-miterlimit="10"/>
<path d="M25.23 0.25C24.91 0.25 24.65 2.44 24.65 5.15C24.65 7.86 24.91 10.05 25.23 10.05H26.67C26.35 10.05 26.09 7.86 26.09 5.15C26.09 2.44 26.35 0.25 26.67 0.25H25.23Z" stroke="#231815" stroke-width="0.3" stroke-linecap="round" stroke-linejoin="round"/>
<path d="M0 6.65H23.08C23.16 8.62 23.37 10.04 23.63 10.04H41.34C41.6 10.04 41.81 8.61 41.89 6.65H65.39M65.38 3.62H41.88C41.8 1.66 41.59 0.25 41.33 0.25H23.62C23.36 0.25 23.15 1.66 23.07 3.62H0" stroke="#231815" stroke-width="0.5" stroke-miterlimit="10"/>
<path d="M137.85 3.62H114.35C114.27 1.66 114.06 0.25 113.8 0.25H96.09C95.83 0.25 95.62 1.66 95.54 3.62H72.46V6.66H95.54C95.62 8.63 95.83 10.05 96.09 10.05H113.8C114.06 10.05 114.27 8.62 114.35 6.66H137.85V3.62Z" fill="white"/>
<mask id="mask1_663_19663" style="mask-type:luminance" maskUnits="userSpaceOnUse" x="95" y="0" width="20" height="11">
<path d="M96.1 0.25C95.78 0.25 95.52 2.44 95.52 5.15C95.52 7.86 95.78 10.05 96.1 10.05H113.81C114.13 10.05 114.39 7.86 114.39 5.15C114.39 2.44 114.13 0.25 113.81 0.25H96.1Z" fill="white"/>
</mask>
<g mask="url(#mask1_663_19663)">
<path d="M114.38 0.25H95.52V10.05H114.38V0.25Z" fill="white"/>
</g>
<path d="M113.81 0.25H96.1C95.78 0.25 95.52 2.44 95.52 5.15C95.52 7.86 95.78 10.05 96.1 10.05H113.81C114.13 10.05 114.39 7.86 114.39 5.15C114.39 2.44 114.13 0.25 113.81 0.25Z" stroke="#231815" stroke-width="0.5" stroke-miterlimit="10"/>
<path d="M97.7 0.25C97.38 0.25 97.12 2.44 97.12 5.15C97.12 7.86 97.38 10.05 97.7 10.05H99.14C98.82 10.05 98.56 7.86 98.56 5.15C98.56 2.44 98.82 0.25 99.14 0.25H97.7Z" stroke="#231815" stroke-width="0.3" stroke-linecap="round" stroke-linejoin="round"/>
<path d="M72.47 6.65H95.55C95.63 8.62 95.84 10.04 96.1 10.04H113.81C114.07 10.04 114.28 8.61 114.36 6.65H137.86M137.85 3.62H114.35C114.27 1.66 114.06 0.25 113.8 0.25H96.09C95.83 0.25 95.62 1.66 95.54 3.62H72.46" stroke="#231815" stroke-width="0.5" stroke-miterlimit="10"/>
<path d="M65.38 3.62H41.88C41.8 1.66 41.59 0.25 41.33 0.25H23.62C23.36 0.25 23.15 1.66 23.07 3.62H0V6.66H23.08C23.16 8.63 23.37 10.05 23.63 10.05H41.34C41.6 10.05 41.81 8.62 41.89 6.66H65.39V3.62H65.38Z" fill="white"/>
<mask id="mask2_663_19663" style="mask-type:luminance" maskUnits="userSpaceOnUse" x="23" y="0" width="19" height="11">
<path d="M23.63 0.25C23.31 0.25 23.05 2.44 23.05 5.15C23.05 7.86 23.31 10.05 23.63 10.05H41.34C41.66 10.05 41.92 7.86 41.92 5.15C41.92 2.44 41.66 0.25 41.34 0.25H23.63Z" fill="white"/>
</mask>
<g mask="url(#mask2_663_19663)">
<path d="M41.91 0.25H23.05V10.05H41.91V0.25Z" fill="white"/>
</g>
<path d="M41.33 0.25H23.62C23.3 0.25 23.04 2.44 23.04 5.15C23.04 7.86 23.3 10.05 23.62 10.05H41.33C41.65 10.05 41.91 7.86 41.91 5.15C41.91 2.44 41.65 0.25 41.33 0.25Z" stroke="#231815" stroke-width="0.5" stroke-miterlimit="10"/>
<path d="M25.23 0.25C24.91 0.25 24.65 2.44 24.65 5.15C24.65 7.86 24.91 10.05 25.23 10.05H26.67C26.35 10.05 26.09 7.86 26.09 5.15C26.09 2.44 26.35 0.25 26.67 0.25H25.23Z" stroke="#231815" stroke-width="0.3" stroke-linecap="round" stroke-linejoin="round"/>
<path d="M0 6.65H23.08C23.16 8.62 23.37 10.04 23.63 10.04H41.34C41.6 10.04 41.81 8.61 41.89 6.65H65.39M65.38 3.62H41.88C41.8 1.66 41.59 0.25 41.33 0.25H23.62C23.36 0.25 23.15 1.66 23.07 3.62H0" stroke="#231815" stroke-width="0.5" stroke-miterlimit="10"/>
<path d="M137.85 3.62H114.35C114.27 1.66 114.06 0.25 113.8 0.25H96.09C95.83 0.25 95.62 1.66 95.54 3.62H72.46V6.66H95.54C95.62 8.63 95.83 10.05 96.09 10.05H113.8C114.06 10.05 114.27 8.62 114.35 6.66H137.85V3.62Z" fill="white"/>
<mask id="mask3_663_19663" style="mask-type:luminance" maskUnits="userSpaceOnUse" x="95" y="0" width="20" height="11">
<path d="M96.1 0.25C95.78 0.25 95.52 2.44 95.52 5.15C95.52 7.86 95.78 10.05 96.1 10.05H113.81C114.13 10.05 114.39 7.86 114.39 5.15C114.39 2.44 114.13 0.25 113.81 0.25H96.1Z" fill="white"/>
</mask>
<g mask="url(#mask3_663_19663)">
<path d="M114.38 0.25H95.52V10.05H114.38V0.25Z" fill="white"/>
</g>
<path d="M113.81 0.25H96.1C95.78 0.25 95.52 2.44 95.52 5.15C95.52 7.86 95.78 10.05 96.1 10.05H113.81C114.13 10.05 114.39 7.86 114.39 5.15C114.39 2.44 114.13 0.25 113.81 0.25Z" stroke="#231815" stroke-width="0.5" stroke-miterlimit="10"/>
<path d="M97.7 0.25C97.38 0.25 97.12 2.44 97.12 5.15C97.12 7.86 97.38 10.05 97.7 10.05H99.14C98.82 10.05 98.56 7.86 98.56 5.15C98.56 2.44 98.82 0.25 99.14 0.25H97.7Z" stroke="#231815" stroke-width="0.3" stroke-linecap="round" stroke-linejoin="round"/>
<path d="M72.47 6.65H95.55C95.63 8.62 95.84 10.04 96.1 10.04H113.81C114.07 10.04 114.28 8.61 114.36 6.65H137.86M137.85 3.62H114.35C114.27 1.66 114.06 0.25 113.8 0.25H96.09C95.83 0.25 95.62 1.66 95.54 3.62H72.46" stroke="#231815" stroke-width="0.5" stroke-miterlimit="10"/>
<path d="M65.38 17.68H41.88C41.8 15.72 41.59 14.31 41.33 14.31H23.62C23.36 14.31 23.15 15.72 23.07 17.68H0V20.72H23.08C23.16 22.69 23.37 24.11 23.63 24.11H41.34C41.6 24.11 41.81 22.68 41.89 20.72H65.39V17.68H65.38Z" fill="white"/>
<mask id="mask4_663_19663" style="mask-type:luminance" maskUnits="userSpaceOnUse" x="23" y="14" width="19" height="11">
<path d="M23.63 14.31C23.31 14.31 23.05 16.5 23.05 19.21C23.05 21.92 23.31 24.11 23.63 24.11H41.34C41.66 24.11 41.92 21.92 41.92 19.21C41.92 16.5 41.66 14.31 41.34 14.31H23.63Z" fill="white"/>
</mask>
<g mask="url(#mask4_663_19663)">
<path d="M41.91 14.31H23.05V24.11H41.91V14.31Z" fill="white"/>
</g>
<path d="M41.33 14.31H23.62C23.3 14.31 23.04 16.5 23.04 19.21C23.04 21.92 23.3 24.11 23.62 24.11H41.33C41.65 24.11 41.91 21.92 41.91 19.21C41.91 16.5 41.65 14.31 41.33 14.31Z" stroke="#231815" stroke-width="0.5" stroke-miterlimit="10"/>
<path d="M25.23 14.31C24.91 14.31 24.65 16.5 24.65 19.21C24.65 21.92 24.91 24.11 25.23 24.11H26.67C26.35 24.11 26.09 21.92 26.09 19.21C26.09 16.5 26.35 14.31 26.67 14.31H25.23Z" stroke="#231815" stroke-width="0.3" stroke-linecap="round" stroke-linejoin="round"/>
<path d="M0 20.71H23.08C23.16 22.68 23.37 24.1 23.63 24.1H41.34C41.6 24.1 41.81 22.67 41.89 20.71H65.39M65.38 17.68H41.88C41.8 15.72 41.59 14.31 41.33 14.31H23.62C23.36 14.31 23.15 15.72 23.07 17.68H0" stroke="#231815" stroke-width="0.5" stroke-miterlimit="10"/>
<path d="M137.85 17.68H114.35C114.27 15.72 114.06 14.31 113.8 14.31H96.09C95.83 14.31 95.62 15.72 95.54 17.68H72.46V20.72H95.54C95.62 22.69 95.83 24.11 96.09 24.11H113.8C114.06 24.11 114.27 22.68 114.35 20.72H137.85V17.68Z" fill="white"/>
<mask id="mask5_663_19663" style="mask-type:luminance" maskUnits="userSpaceOnUse" x="95" y="14" width="20" height="11">
<path d="M96.1 14.31C95.78 14.31 95.52 16.5 95.52 19.21C95.52 21.92 95.78 24.11 96.1 24.11H113.81C114.13 24.11 114.39 21.92 114.39 19.21C114.39 16.5 114.13 14.31 113.81 14.31H96.1Z" fill="white"/>
</mask>
<g mask="url(#mask5_663_19663)">
<path d="M114.38 14.31H95.52V24.11H114.38V14.31Z" fill="white"/>
</g>
<path d="M113.81 14.31H96.1C95.78 14.31 95.52 16.5 95.52 19.21C95.52 21.92 95.78 24.11 96.1 24.11H113.81C114.13 24.11 114.39 21.92 114.39 19.21C114.39 16.5 114.13 14.31 113.81 14.31Z" stroke="#231815" stroke-width="0.5" stroke-miterlimit="10"/>
<path d="M97.7 14.31C97.38 14.31 97.12 16.5 97.12 19.21C97.12 21.92 97.38 24.11 97.7 24.11H99.14C98.82 24.11 98.56 21.92 98.56 19.21C98.56 16.5 98.82 14.31 99.14 14.31H97.7Z" stroke="#231815" stroke-width="0.3" stroke-linecap="round" stroke-linejoin="round"/>
<path d="M72.47 20.71H95.55C95.63 22.68 95.84 24.1 96.1 24.1H113.81C114.07 24.1 114.28 22.67 114.36 20.71H137.86M137.85 17.68H114.35C114.27 15.72 114.06 14.31 113.8 14.31H96.09C95.83 14.31 95.62 15.72 95.54 17.68H72.46" stroke="#231815" stroke-width="0.5" stroke-miterlimit="10"/>
<path d="M65.38 17.68H41.88C41.8 15.72 41.59 14.31 41.33 14.31H23.62C23.36 14.31 23.15 15.72 23.07 17.68H0V20.72H23.08C23.16 22.69 23.37 24.11 23.63 24.11H41.34C41.6 24.11 41.81 22.68 41.89 20.72H65.39V17.68H65.38Z" fill="white"/>
<mask id="mask6_663_19663" style="mask-type:luminance" maskUnits="userSpaceOnUse" x="23" y="14" width="19" height="11">
<path d="M23.63 14.31C23.31 14.31 23.05 16.5 23.05 19.21C23.05 21.92 23.31 24.11 23.63 24.11H41.34C41.66 24.11 41.92 21.92 41.92 19.21C41.92 16.5 41.66 14.31 41.34 14.31H23.63Z" fill="white"/>
</mask>
<g mask="url(#mask6_663_19663)">
<path d="M41.91 14.31H23.05V24.11H41.91V14.31Z" fill="white"/>
</g>
<path d="M41.33 14.31H23.62C23.3 14.31 23.04 16.5 23.04 19.21C23.04 21.92 23.3 24.11 23.62 24.11H41.33C41.65 24.11 41.91 21.92 41.91 19.21C41.91 16.5 41.65 14.31 41.33 14.31Z" stroke="#231815" stroke-width="0.5" stroke-miterlimit="10"/>
<path d="M25.23 14.31C24.91 14.31 24.65 16.5 24.65 19.21C24.65 21.92 24.91 24.11 25.23 24.11H26.67C26.35 24.11 26.09 21.92 26.09 19.21C26.09 16.5 26.35 14.31 26.67 14.31H25.23Z" stroke="#231815" stroke-width="0.3" stroke-linecap="round" stroke-linejoin="round"/>
<path d="M0 20.71H23.08C23.16 22.68 23.37 24.1 23.63 24.1H41.34C41.6 24.1 41.81 22.67 41.89 20.71H65.39M65.38 17.68H41.88C41.8 15.72 41.59 14.31 41.33 14.31H23.62C23.36 14.31 23.15 15.72 23.07 17.68H0" stroke="#231815" stroke-width="0.5" stroke-miterlimit="10"/>
<path d="M137.85 17.68H114.35C114.27 15.72 114.06 14.31 113.8 14.31H96.09C95.83 14.31 95.62 15.72 95.54 17.68H72.46V20.72H95.54C95.62 22.69 95.83 24.11 96.09 24.11H113.8C114.06 24.11 114.27 22.68 114.35 20.72H137.85V17.68Z" fill="white"/>
<mask id="mask7_663_19663" style="mask-type:luminance" maskUnits="userSpaceOnUse" x="95" y="14" width="20" height="11">
<path d="M96.1 14.31C95.78 14.31 95.52 16.5 95.52 19.21C95.52 21.92 95.78 24.11 96.1 24.11H113.81C114.13 24.11 114.39 21.92 114.39 19.21C114.39 16.5 114.13 14.31 113.81 14.31H96.1Z" fill="white"/>
</mask>
<g mask="url(#mask7_663_19663)">
<path d="M114.38 14.31H95.52V24.11H114.38V14.31Z" fill="white"/>
</g>
<path d="M113.81 14.31H96.1C95.78 14.31 95.52 16.5 95.52 19.21C95.52 21.92 95.78 24.11 96.1 24.11H113.81C114.13 24.11 114.39 21.92 114.39 19.21C114.39 16.5 114.13 14.31 113.81 14.31Z" stroke="#231815" stroke-width="0.5" stroke-miterlimit="10"/>
<path d="M97.7 14.31C97.38 14.31 97.12 16.5 97.12 19.21C97.12 21.92 97.38 24.11 97.7 24.11H99.14C98.82 24.11 98.56 21.92 98.56 19.21C98.56 16.5 98.82 14.31 99.14 14.31H97.7Z" stroke="#231815" stroke-width="0.3" stroke-linecap="round" stroke-linejoin="round"/>
<path d="M72.47 20.71H95.55C95.63 22.68 95.84 24.1 96.1 24.1H113.81C114.07 24.1 114.28 22.67 114.36 20.71H137.86M137.85 17.68H114.35C114.27 15.72 114.06 14.31 113.8 14.31H96.09C95.83 14.31 95.62 15.72 95.54 17.68H72.46" stroke="#231815" stroke-width="0.5" stroke-miterlimit="10"/>
<path d="M65.38 31.74H41.88C41.8 29.78 41.59 28.37 41.33 28.37H23.62C23.36 28.37 23.15 29.78 23.07 31.74H0V34.78H23.08C23.16 36.75 23.37 38.17 23.63 38.17H41.34C41.6 38.17 41.81 36.74 41.89 34.78H65.39V31.74H65.38Z" fill="white"/>
<mask id="mask8_663_19663" style="mask-type:luminance" maskUnits="userSpaceOnUse" x="23" y="28" width="19" height="11">
<path d="M23.63 28.37C23.31 28.37 23.05 30.56 23.05 33.27C23.05 35.98 23.31 38.17 23.63 38.17H41.34C41.66 38.17 41.92 35.98 41.92 33.27C41.92 30.56 41.66 28.37 41.34 28.37H23.63Z" fill="white"/>
</mask>
<g mask="url(#mask8_663_19663)">
<path d="M41.91 28.37H23.05V38.17H41.91V28.37Z" fill="white"/>
</g>
<path d="M41.33 28.37H23.62C23.3 28.37 23.04 30.56 23.04 33.27C23.04 35.98 23.3 38.17 23.62 38.17H41.33C41.65 38.17 41.91 35.98 41.91 33.27C41.91 30.56 41.65 28.37 41.33 28.37Z" stroke="#231815" stroke-width="0.5" stroke-miterlimit="10"/>
<path d="M25.23 28.37C24.91 28.37 24.65 30.56 24.65 33.27C24.65 35.98 24.91 38.17 25.23 38.17H26.67C26.35 38.17 26.09 35.98 26.09 33.27C26.09 30.56 26.35 28.37 26.67 28.37H25.23Z" stroke="#231815" stroke-width="0.3" stroke-linecap="round" stroke-linejoin="round"/>
<path d="M0 34.78H23.08C23.16 36.75 23.37 38.17 23.63 38.17H41.34C41.6 38.17 41.81 36.74 41.89 34.78H65.39M65.38 31.74H41.88C41.8 29.78 41.59 28.37 41.33 28.37H23.62C23.36 28.37 23.15 29.78 23.07 31.74H0" stroke="#231815" stroke-width="0.5" stroke-miterlimit="10"/>
<path d="M137.85 31.74H114.35C114.27 29.78 114.06 28.37 113.8 28.37H96.09C95.83 28.37 95.62 29.78 95.54 31.74H72.46V34.78H95.54C95.62 36.75 95.83 38.17 96.09 38.17H113.8C114.06 38.17 114.27 36.74 114.35 34.78H137.85V31.74Z" fill="white"/>
<mask id="mask9_663_19663" style="mask-type:luminance" maskUnits="userSpaceOnUse" x="95" y="28" width="20" height="11">
<path d="M96.1 28.37C95.78 28.37 95.52 30.56 95.52 33.27C95.52 35.98 95.78 38.17 96.1 38.17H113.81C114.13 38.17 114.39 35.98 114.39 33.27C114.39 30.56 114.13 28.37 113.81 28.37H96.1Z" fill="white"/>
</mask>
<g mask="url(#mask9_663_19663)">
<path d="M114.38 28.37H95.52V38.17H114.38V28.37Z" fill="white"/>
</g>
<path d="M113.81 28.37H96.1C95.78 28.37 95.52 30.56 95.52 33.27C95.52 35.98 95.78 38.17 96.1 38.17H113.81C114.13 38.17 114.39 35.98 114.39 33.27C114.39 30.56 114.13 28.37 113.81 28.37Z" stroke="#231815" stroke-width="0.5" stroke-miterlimit="10"/>
<path d="M97.7 28.37C97.38 28.37 97.12 30.56 97.12 33.27C97.12 35.98 97.38 38.17 97.7 38.17H99.14C98.82 38.17 98.56 35.98 98.56 33.27C98.56 30.56 98.82 28.37 99.14 28.37H97.7Z" stroke="#231815" stroke-width="0.3" stroke-linecap="round" stroke-linejoin="round"/>
<path d="M72.47 34.78H95.55C95.63 36.75 95.84 38.17 96.1 38.17H113.81C114.07 38.17 114.28 36.74 114.36 34.78H137.86M137.85 31.74H114.35C114.27 29.78 114.06 28.37 113.8 28.37H96.09C95.83 28.37 95.62 29.78 95.54 31.74H72.46" stroke="#231815" stroke-width="0.5" stroke-miterlimit="10"/>
<path d="M65.38 31.74H41.88C41.8 29.78 41.59 28.37 41.33 28.37H23.62C23.36 28.37 23.15 29.78 23.07 31.74H0V34.78H23.08C23.16 36.75 23.37 38.17 23.63 38.17H41.34C41.6 38.17 41.81 36.74 41.89 34.78H65.39V31.74H65.38Z" fill="white"/>
<mask id="mask10_663_19663" style="mask-type:luminance" maskUnits="userSpaceOnUse" x="23" y="28" width="19" height="11">
<path d="M23.63 28.37C23.31 28.37 23.05 30.56 23.05 33.27C23.05 35.98 23.31 38.17 23.63 38.17H41.34C41.66 38.17 41.92 35.98 41.92 33.27C41.92 30.56 41.66 28.37 41.34 28.37H23.63Z" fill="white"/>
</mask>
<g mask="url(#mask10_663_19663)">
<path d="M41.91 28.37H23.05V38.17H41.91V28.37Z" fill="white"/>
</g>
<path d="M41.33 28.37H23.62C23.3 28.37 23.04 30.56 23.04 33.27C23.04 35.98 23.3 38.17 23.62 38.17H41.33C41.65 38.17 41.91 35.98 41.91 33.27C41.91 30.56 41.65 28.37 41.33 28.37Z" stroke="#231815" stroke-width="0.5" stroke-miterlimit="10"/>
<path d="M25.23 28.37C24.91 28.37 24.65 30.56 24.65 33.27C24.65 35.98 24.91 38.17 25.23 38.17H26.67C26.35 38.17 26.09 35.98 26.09 33.27C26.09 30.56 26.35 28.37 26.67 28.37H25.23Z" stroke="#231815" stroke-width="0.3" stroke-linecap="round" stroke-linejoin="round"/>
<path d="M0 34.78H23.08C23.16 36.75 23.37 38.17 23.63 38.17H41.34C41.6 38.17 41.81 36.74 41.89 34.78H65.39M65.38 31.74H41.88C41.8 29.78 41.59 28.37 41.33 28.37H23.62C23.36 28.37 23.15 29.78 23.07 31.74H0" stroke="#231815" stroke-width="0.5" stroke-miterlimit="10"/>
<path d="M137.85 31.74H114.35C114.27 29.78 114.06 28.37 113.8 28.37H96.09C95.83 28.37 95.62 29.78 95.54 31.74H72.46V34.78H95.54C95.62 36.75 95.83 38.17 96.09 38.17H113.8C114.06 38.17 114.27 36.74 114.35 34.78H137.85V31.74Z" fill="white"/>
<mask id="mask11_663_19663" style="mask-type:luminance" maskUnits="userSpaceOnUse" x="95" y="28" width="20" height="11">
<path d="M96.1 28.37C95.78 28.37 95.52 30.56 95.52 33.27C95.52 35.98 95.78 38.17 96.1 38.17H113.81C114.13 38.17 114.39 35.98 114.39 33.27C114.39 30.56 114.13 28.37 113.81 28.37H96.1Z" fill="white"/>
</mask>
<g mask="url(#mask11_663_19663)">
<path d="M114.38 28.37H95.52V38.17H114.38V28.37Z" fill="white"/>
</g>
<path d="M113.81 28.37H96.1C95.78 28.37 95.52 30.56 95.52 33.27C95.52 35.98 95.78 38.17 96.1 38.17H113.81C114.13 38.17 114.39 35.98 114.39 33.27C114.39 30.56 114.13 28.37 113.81 28.37Z" stroke="#231815" stroke-width="0.5" stroke-miterlimit="10"/>
<path d="M97.7 28.37C97.38 28.37 97.12 30.56 97.12 33.27C97.12 35.98 97.38 38.17 97.7 38.17H99.14C98.82 38.17 98.56 35.98 98.56 33.27C98.56 30.56 98.82 28.37 99.14 28.37H97.7Z" stroke="#231815" stroke-width="0.3" stroke-linecap="round" stroke-linejoin="round"/>
<path d="M72.47 34.78H95.55C95.63 36.75 95.84 38.17 96.1 38.17H113.81C114.07 38.17 114.28 36.74 114.36 34.78H137.86M137.85 31.74H114.35C114.27 29.78 114.06 28.37 113.8 28.37H96.09C95.83 28.37 95.62 29.78 95.54 31.74H72.46" stroke="#231815" stroke-width="0.5" stroke-miterlimit="10"/>
<path d="M65.38 45.8H41.88C41.8 43.84 41.59 42.43 41.33 42.43H23.62C23.36 42.43 23.15 43.84 23.07 45.8H0V48.84H23.08C23.16 50.81 23.37 52.23 23.63 52.23H41.34C41.6 52.23 41.81 50.8 41.89 48.84H65.39V45.8H65.38Z" fill="white"/>
<mask id="mask12_663_19663" style="mask-type:luminance" maskUnits="userSpaceOnUse" x="23" y="42" width="19" height="11">
<path d="M23.63 42.43C23.31 42.43 23.05 44.62 23.05 47.33C23.05 50.04 23.31 52.23 23.63 52.23H41.34C41.66 52.23 41.92 50.04 41.92 47.33C41.92 44.62 41.66 42.43 41.34 42.43H23.63Z" fill="white"/>
</mask>
<g mask="url(#mask12_663_19663)">
<path d="M41.91 42.43H23.05V52.23H41.91V42.43Z" fill="white"/>
</g>
<path d="M41.33 42.43H23.62C23.3 42.43 23.04 44.62 23.04 47.33C23.04 50.04 23.3 52.23 23.62 52.23H41.33C41.65 52.23 41.91 50.04 41.91 47.33C41.91 44.62 41.65 42.43 41.33 42.43Z" stroke="#231815" stroke-width="0.5" stroke-miterlimit="10"/>
<path d="M25.23 42.43C24.91 42.43 24.65 44.62 24.65 47.33C24.65 50.04 24.91 52.23 25.23 52.23H26.67C26.35 52.23 26.09 50.04 26.09 47.33C26.09 44.62 26.35 42.43 26.67 42.43H25.23Z" stroke="#231815" stroke-width="0.3" stroke-linecap="round" stroke-linejoin="round"/>
<path d="M0 48.84H23.08C23.16 50.81 23.37 52.23 23.63 52.23H41.34C41.6 52.23 41.81 50.8 41.89 48.84H65.39M65.38 45.8H41.88C41.8 43.84 41.59 42.43 41.33 42.43H23.62C23.36 42.43 23.15 43.84 23.07 45.8H0" stroke="#231815" stroke-width="0.5" stroke-miterlimit="10"/>
<path d="M137.85 45.8H114.35C114.27 43.84 114.06 42.43 113.8 42.43H96.09C95.83 42.43 95.62 43.84 95.54 45.8H72.46V48.84H95.54C95.62 50.81 95.83 52.23 96.09 52.23H113.8C114.06 52.23 114.27 50.8 114.35 48.84H137.85V45.8Z" fill="white"/>
<mask id="mask13_663_19663" style="mask-type:luminance" maskUnits="userSpaceOnUse" x="95" y="42" width="20" height="11">
<path d="M96.1 42.43C95.78 42.43 95.52 44.62 95.52 47.33C95.52 50.04 95.78 52.23 96.1 52.23H113.81C114.13 52.23 114.39 50.04 114.39 47.33C114.39 44.62 114.13 42.43 113.81 42.43H96.1Z" fill="white"/>
</mask>
<g mask="url(#mask13_663_19663)">
<path d="M114.38 42.43H95.52V52.23H114.38V42.43Z" fill="white"/>
</g>
<path d="M113.81 42.43H96.1C95.78 42.43 95.52 44.62 95.52 47.33C95.52 50.04 95.78 52.23 96.1 52.23H113.81C114.13 52.23 114.39 50.04 114.39 47.33C114.39 44.62 114.13 42.43 113.81 42.43Z" stroke="#231815" stroke-width="0.5" stroke-miterlimit="10"/>
<path d="M97.7 42.43C97.38 42.43 97.12 44.62 97.12 47.33C97.12 50.04 97.38 52.23 97.7 52.23H99.14C98.82 52.23 98.56 50.04 98.56 47.33C98.56 44.62 98.82 42.43 99.14 42.43H97.7Z" stroke="#231815" stroke-width="0.3" stroke-linecap="round" stroke-linejoin="round"/>
<path d="M72.47 48.84H95.55C95.63 50.81 95.84 52.23 96.1 52.23H113.81C114.07 52.23 114.28 50.8 114.36 48.84H137.86M137.85 45.8H114.35C114.27 43.84 114.06 42.43 113.8 42.43H96.09C95.83 42.43 95.62 43.84 95.54 45.8H72.46" stroke="#231815" stroke-width="0.5" stroke-miterlimit="10"/>
<path d="M65.38 45.8H41.88C41.8 43.84 41.59 42.43 41.33 42.43H23.62C23.36 42.43 23.15 43.84 23.07 45.8H0V48.84H23.08C23.16 50.81 23.37 52.23 23.63 52.23H41.34C41.6 52.23 41.81 50.8 41.89 48.84H65.39V45.8H65.38Z" fill="white"/>
<mask id="mask14_663_19663" style="mask-type:luminance" maskUnits="userSpaceOnUse" x="23" y="42" width="19" height="11">
<path d="M23.63 42.43C23.31 42.43 23.05 44.62 23.05 47.33C23.05 50.04 23.31 52.23 23.63 52.23H41.34C41.66 52.23 41.92 50.04 41.92 47.33C41.92 44.62 41.66 42.43 41.34 42.43H23.63Z" fill="white"/>
</mask>
<g mask="url(#mask14_663_19663)">
<path d="M41.91 42.43H23.05V52.23H41.91V42.43Z" fill="white"/>
</g>
<path d="M41.33 42.43H23.62C23.3 42.43 23.04 44.62 23.04 47.33C23.04 50.04 23.3 52.23 23.62 52.23H41.33C41.65 52.23 41.91 50.04 41.91 47.33C41.91 44.62 41.65 42.43 41.33 42.43Z" stroke="#231815" stroke-width="0.5" stroke-miterlimit="10"/>
<path d="M25.23 42.43C24.91 42.43 24.65 44.62 24.65 47.33C24.65 50.04 24.91 52.23 25.23 52.23H26.67C26.35 52.23 26.09 50.04 26.09 47.33C26.09 44.62 26.35 42.43 26.67 42.43H25.23Z" stroke="#231815" stroke-width="0.3" stroke-linecap="round" stroke-linejoin="round"/>
<path d="M0 48.84H23.08C23.16 50.81 23.37 52.23 23.63 52.23H41.34C41.6 52.23 41.81 50.8 41.89 48.84H65.39M65.38 45.8H41.88C41.8 43.84 41.59 42.43 41.33 42.43H23.62C23.36 42.43 23.15 43.84 23.07 45.8H0" stroke="#231815" stroke-width="0.5" stroke-miterlimit="10"/>
<path d="M137.85 45.8H114.35C114.27 43.84 114.06 42.43 113.8 42.43H96.09C95.83 42.43 95.62 43.84 95.54 45.8H72.46V48.84H95.54C95.62 50.81 95.83 52.23 96.09 52.23H113.8C114.06 52.23 114.27 50.8 114.35 48.84H137.85V45.8Z" fill="white"/>
<mask id="mask15_663_19663" style="mask-type:luminance" maskUnits="userSpaceOnUse" x="95" y="42" width="20" height="11">
<path d="M96.1 42.43C95.78 42.43 95.52 44.62 95.52 47.33C95.52 50.04 95.78 52.23 96.1 52.23H113.81C114.13 52.23 114.39 50.04 114.39 47.33C114.39 44.62 114.13 42.43 113.81 42.43H96.1Z" fill="white"/>
</mask>
<g mask="url(#mask15_663_19663)">
<path d="M114.38 42.43H95.52V52.23H114.38V42.43Z" fill="white"/>
</g>
<path d="M113.81 42.43H96.1C95.78 42.43 95.52 44.62 95.52 47.33C95.52 50.04 95.78 52.23 96.1 52.23H113.81C114.13 52.23 114.39 50.04 114.39 47.33C114.39 44.62 114.13 42.43 113.81 42.43Z" stroke="#231815" stroke-width="0.5" stroke-miterlimit="10"/>
<path d="M97.7 42.43C97.38 42.43 97.12 44.62 97.12 47.33C97.12 50.04 97.38 52.23 97.7 52.23H99.14C98.82 52.23 98.56 50.04 98.56 47.33C98.56 44.62 98.82 42.43 99.14 42.43H97.7Z" stroke="#231815" stroke-width="0.3" stroke-linecap="round" stroke-linejoin="round"/>
<path d="M72.47 48.84H95.55C95.63 50.81 95.84 52.23 96.1 52.23H113.81C114.07 52.23 114.28 50.8 114.36 48.84H137.86M137.85 45.8H114.35C114.27 43.84 114.06 42.43 113.8 42.43H96.09C95.83 42.43 95.62 43.84 95.54 45.8H72.46" stroke="#231815" stroke-width="0.5" stroke-miterlimit="10"/>
<path d="M65.38 59.86H41.88C41.8 57.9 41.59 56.49 41.33 56.49H23.62C23.36 56.49 23.15 57.9 23.07 59.86H0V62.9H23.08C23.16 64.87 23.37 66.29 23.63 66.29H41.34C41.6 66.29 41.81 64.86 41.89 62.9H65.39V59.86H65.38Z" fill="white"/>
<mask id="mask16_663_19663" style="mask-type:luminance" maskUnits="userSpaceOnUse" x="23" y="56" width="19" height="11">
<path d="M23.63 56.49C23.31 56.49 23.05 58.68 23.05 61.39C23.05 64.1 23.31 66.29 23.63 66.29H41.34C41.66 66.29 41.92 64.1 41.92 61.39C41.92 58.68 41.66 56.49 41.34 56.49H23.63Z" fill="white"/>
</mask>
<g mask="url(#mask16_663_19663)">
<path d="M41.91 56.49H23.05V66.29H41.91V56.49Z" fill="white"/>
</g>
<path d="M41.33 56.49H23.62C23.3 56.49 23.04 58.68 23.04 61.39C23.04 64.1 23.3 66.29 23.62 66.29H41.33C41.65 66.29 41.91 64.1 41.91 61.39C41.91 58.68 41.65 56.49 41.33 56.49Z" stroke="#231815" stroke-width="0.5" stroke-miterlimit="10"/>
<path d="M25.23 56.49C24.91 56.49 24.65 58.68 24.65 61.39C24.65 64.1 24.91 66.29 25.23 66.29H26.67C26.35 66.29 26.09 64.1 26.09 61.39C26.09 58.68 26.35 56.49 26.67 56.49H25.23Z" stroke="#231815" stroke-width="0.3" stroke-linecap="round" stroke-linejoin="round"/>
<path d="M0 62.9H23.08C23.16 64.87 23.37 66.29 23.63 66.29H41.34C41.6 66.29 41.81 64.86 41.89 62.9H65.39M65.38 59.86H41.88C41.8 57.9 41.59 56.49 41.33 56.49H23.62C23.36 56.49 23.15 57.9 23.07 59.86H0" stroke="#231815" stroke-width="0.5" stroke-miterlimit="10"/>
<path d="M137.85 59.86H114.35C114.27 57.9 114.06 56.49 113.8 56.49H96.09C95.83 56.49 95.62 57.9 95.54 59.86H72.46V62.9H95.54C95.62 64.87 95.83 66.29 96.09 66.29H113.8C114.06 66.29 114.27 64.86 114.35 62.9H137.85V59.86Z" fill="white"/>
<mask id="mask17_663_19663" style="mask-type:luminance" maskUnits="userSpaceOnUse" x="95" y="56" width="20" height="11">
<path d="M96.1 56.49C95.78 56.49 95.52 58.68 95.52 61.39C95.52 64.1 95.78 66.29 96.1 66.29H113.81C114.13 66.29 114.39 64.1 114.39 61.39C114.39 58.68 114.13 56.49 113.81 56.49H96.1Z" fill="white"/>
</mask>
<g mask="url(#mask17_663_19663)">
<path d="M114.38 56.49H95.52V66.29H114.38V56.49Z" fill="white"/>
</g>
<path d="M113.81 56.49H96.1C95.78 56.49 95.52 58.68 95.52 61.39C95.52 64.1 95.78 66.29 96.1 66.29H113.81C114.13 66.29 114.39 64.1 114.39 61.39C114.39 58.68 114.13 56.49 113.81 56.49Z" stroke="#231815" stroke-width="0.5" stroke-miterlimit="10"/>
<path d="M97.7 56.49C97.38 56.49 97.12 58.68 97.12 61.39C97.12 64.1 97.38 66.29 97.7 66.29H99.14C98.82 66.29 98.56 64.1 98.56 61.39C98.56 58.68 98.82 56.49 99.14 56.49H97.7Z" stroke="#231815" stroke-width="0.3" stroke-linecap="round" stroke-linejoin="round"/>
<path d="M72.47 62.9H95.55C95.63 64.87 95.84 66.29 96.1 66.29H113.81C114.07 66.29 114.28 64.86 114.36 62.9H137.86M137.85 59.86H114.35C114.27 57.9 114.06 56.49 113.8 56.49H96.09C95.83 56.49 95.62 57.9 95.54 59.86H72.46" stroke="#231815" stroke-width="0.5" stroke-miterlimit="10"/>
<path d="M65.38 59.86H41.88C41.8 57.9 41.59 56.49 41.33 56.49H23.62C23.36 56.49 23.15 57.9 23.07 59.86H0V62.9H23.08C23.16 64.87 23.37 66.29 23.63 66.29H41.34C41.6 66.29 41.81 64.86 41.89 62.9H65.39V59.86H65.38Z" fill="white"/>
<mask id="mask18_663_19663" style="mask-type:luminance" maskUnits="userSpaceOnUse" x="23" y="56" width="19" height="11">
<path d="M23.63 56.49C23.31 56.49 23.05 58.68 23.05 61.39C23.05 64.1 23.31 66.29 23.63 66.29H41.34C41.66 66.29 41.92 64.1 41.92 61.39C41.92 58.68 41.66 56.49 41.34 56.49H23.63Z" fill="white"/>
</mask>
<g mask="url(#mask18_663_19663)">
<path d="M41.91 56.49H23.05V66.29H41.91V56.49Z" fill="white"/>
</g>
<path d="M41.33 56.49H23.62C23.3 56.49 23.04 58.68 23.04 61.39C23.04 64.1 23.3 66.29 23.62 66.29H41.33C41.65 66.29 41.91 64.1 41.91 61.39C41.91 58.68 41.65 56.49 41.33 56.49Z" stroke="#231815" stroke-width="0.5" stroke-miterlimit="10"/>
<path d="M25.23 56.49C24.91 56.49 24.65 58.68 24.65 61.39C24.65 64.1 24.91 66.29 25.23 66.29H26.67C26.35 66.29 26.09 64.1 26.09 61.39C26.09 58.68 26.35 56.49 26.67 56.49H25.23Z" stroke="#231815" stroke-width="0.3" stroke-linecap="round" stroke-linejoin="round"/>
<path d="M0 62.9H23.08C23.16 64.87 23.37 66.29 23.63 66.29H41.34C41.6 66.29 41.81 64.86 41.89 62.9H65.39M65.38 59.86H41.88C41.8 57.9 41.59 56.49 41.33 56.49H23.62C23.36 56.49 23.15 57.9 23.07 59.86H0" stroke="#231815" stroke-width="0.5" stroke-miterlimit="10"/>
<path d="M137.85 59.86H114.35C114.27 57.9 114.06 56.49 113.8 56.49H96.09C95.83 56.49 95.62 57.9 95.54 59.86H72.46V62.9H95.54C95.62 64.87 95.83 66.29 96.09 66.29H113.8C114.06 66.29 114.27 64.86 114.35 62.9H137.85V59.86Z" fill="white"/>
<mask id="mask19_663_19663" style="mask-type:luminance" maskUnits="userSpaceOnUse" x="95" y="56" width="20" height="11">
<path d="M96.1 56.49C95.78 56.49 95.52 58.68 95.52 61.39C95.52 64.1 95.78 66.29 96.1 66.29H113.81C114.13 66.29 114.39 64.1 114.39 61.39C114.39 58.68 114.13 56.49 113.81 56.49H96.1Z" fill="white"/>
</mask>
<g mask="url(#mask19_663_19663)">
<path d="M114.38 56.49H95.52V66.29H114.38V56.49Z" fill="white"/>
</g>
<path d="M113.81 56.49H96.1C95.78 56.49 95.52 58.68 95.52 61.39C95.52 64.1 95.78 66.29 96.1 66.29H113.81C114.13 66.29 114.39 64.1 114.39 61.39C114.39 58.68 114.13 56.49 113.81 56.49Z" stroke="#231815" stroke-width="0.5" stroke-miterlimit="10"/>
<path d="M97.7 56.49C97.38 56.49 97.12 58.68 97.12 61.39C97.12 64.1 97.38 66.29 97.7 66.29H99.14C98.82 66.29 98.56 64.1 98.56 61.39C98.56 58.68 98.82 56.49 99.14 56.49H97.7Z" stroke="#231815" stroke-width="0.3" stroke-linecap="round" stroke-linejoin="round"/>
<path d="M72.47 62.9H95.55C95.63 64.87 95.84 66.29 96.1 66.29H113.81C114.07 66.29 114.28 64.86 114.36 62.9H137.86M137.85 59.86H114.35C114.27 57.9 114.06 56.49 113.8 56.49H96.09C95.83 56.49 95.62 57.9 95.54 59.86H72.46" stroke="#231815" stroke-width="0.5" stroke-miterlimit="10"/>
<path d="M65.38 73.92H41.88C41.8 71.96 41.59 70.55 41.33 70.55H23.62C23.36 70.55 23.15 71.96 23.07 73.92H0V76.96H23.08C23.16 78.93 23.37 80.35 23.63 80.35H41.34C41.6 80.35 41.81 78.92 41.89 76.96H65.39V73.92H65.38Z" fill="white"/>
<mask id="mask20_663_19663" style="mask-type:luminance" maskUnits="userSpaceOnUse" x="23" y="70" width="19" height="11">
<path d="M23.63 70.55C23.31 70.55 23.05 72.74 23.05 75.45C23.05 78.16 23.31 80.35 23.63 80.35H41.34C41.66 80.35 41.92 78.16 41.92 75.45C41.92 72.74 41.66 70.55 41.34 70.55H23.63Z" fill="white"/>
</mask>
<g mask="url(#mask20_663_19663)">
<path d="M41.91 70.56H23.05V80.36H41.91V70.56Z" fill="white"/>
</g>
<path d="M41.33 70.56H23.62C23.3 70.56 23.04 72.75 23.04 75.46C23.04 78.17 23.3 80.36 23.62 80.36H41.33C41.65 80.36 41.91 78.17 41.91 75.46C41.91 72.75 41.65 70.56 41.33 70.56Z" stroke="#231815" stroke-width="0.5" stroke-miterlimit="10"/>
<path d="M25.23 70.56C24.91 70.56 24.65 72.75 24.65 75.46C24.65 78.17 24.91 80.36 25.23 80.36H26.67C26.35 80.36 26.09 78.17 26.09 75.46C26.09 72.75 26.35 70.56 26.67 70.56H25.23Z" stroke="#231815" stroke-width="0.3" stroke-linecap="round" stroke-linejoin="round"/>
<path d="M0 76.96H23.08C23.16 78.93 23.37 80.35 23.63 80.35H41.34C41.6 80.35 41.81 78.92 41.89 76.96H65.39M65.38 73.92H41.88C41.8 71.96 41.59 70.55 41.33 70.55H23.62C23.36 70.55 23.15 71.96 23.07 73.92H0" stroke="#231815" stroke-width="0.5" stroke-miterlimit="10"/>
<path d="M137.85 73.92H114.35C114.27 71.96 114.06 70.55 113.8 70.55H96.09C95.83 70.55 95.62 71.96 95.54 73.92H72.46V76.96H95.54C95.62 78.93 95.83 80.35 96.09 80.35H113.8C114.06 80.35 114.27 78.92 114.35 76.96H137.85V73.92Z" fill="white"/>
<mask id="mask21_663_19663" style="mask-type:luminance" maskUnits="userSpaceOnUse" x="95" y="70" width="20" height="11">
<path d="M96.1 70.55C95.78 70.55 95.52 72.74 95.52 75.45C95.52 78.16 95.78 80.35 96.1 80.35H113.81C114.13 80.35 114.39 78.16 114.39 75.45C114.39 72.74 114.13 70.55 113.81 70.55H96.1Z" fill="white"/>
</mask>
<g mask="url(#mask21_663_19663)">
<path d="M114.38 70.56H95.52V80.36H114.38V70.56Z" fill="white"/>
</g>
<path d="M113.81 70.56H96.1C95.78 70.56 95.52 72.75 95.52 75.46C95.52 78.17 95.78 80.36 96.1 80.36H113.81C114.13 80.36 114.39 78.17 114.39 75.46C114.39 72.75 114.13 70.56 113.81 70.56Z" stroke="#231815" stroke-width="0.5" stroke-miterlimit="10"/>
<path d="M97.7 70.56C97.38 70.56 97.12 72.75 97.12 75.46C97.12 78.17 97.38 80.36 97.7 80.36H99.14C98.82 80.36 98.56 78.17 98.56 75.46C98.56 72.75 98.82 70.56 99.14 70.56H97.7Z" stroke="#231815" stroke-width="0.3" stroke-linecap="round" stroke-linejoin="round"/>
<path d="M72.47 76.96H95.55C95.63 78.93 95.84 80.35 96.1 80.35H113.81C114.07 80.35 114.28 78.92 114.36 76.96H137.86M137.85 73.92H114.35C114.27 71.96 114.06 70.55 113.8 70.55H96.09C95.83 70.55 95.62 71.96 95.54 73.92H72.46" stroke="#231815" stroke-width="0.5" stroke-miterlimit="10"/>
<path d="M65.38 73.92H41.88C41.8 71.96 41.59 70.55 41.33 70.55H23.62C23.36 70.55 23.15 71.96 23.07 73.92H0V76.96H23.08C23.16 78.93 23.37 80.35 23.63 80.35H41.34C41.6 80.35 41.81 78.92 41.89 76.96H65.39V73.92H65.38Z" fill="white"/>
<mask id="mask22_663_19663" style="mask-type:luminance" maskUnits="userSpaceOnUse" x="23" y="70" width="19" height="11">
<path d="M23.63 70.55C23.31 70.55 23.05 72.74 23.05 75.45C23.05 78.16 23.31 80.35 23.63 80.35H41.34C41.66 80.35 41.92 78.16 41.92 75.45C41.92 72.74 41.66 70.55 41.34 70.55H23.63Z" fill="white"/>
</mask>
<g mask="url(#mask22_663_19663)">
<path d="M41.91 70.56H23.05V80.36H41.91V70.56Z" fill="white"/>
</g>
<path d="M41.33 70.56H23.62C23.3 70.56 23.04 72.75 23.04 75.46C23.04 78.17 23.3 80.36 23.62 80.36H41.33C41.65 80.36 41.91 78.17 41.91 75.46C41.91 72.75 41.65 70.56 41.33 70.56Z" stroke="#231815" stroke-width="0.5" stroke-miterlimit="10"/>
<path d="M25.23 70.56C24.91 70.56 24.65 72.75 24.65 75.46C24.65 78.17 24.91 80.36 25.23 80.36H26.67C26.35 80.36 26.09 78.17 26.09 75.46C26.09 72.75 26.35 70.56 26.67 70.56H25.23Z" stroke="#231815" stroke-width="0.3" stroke-linecap="round" stroke-linejoin="round"/>
<path d="M0 76.96H23.08C23.16 78.93 23.37 80.35 23.63 80.35H41.34C41.6 80.35 41.81 78.92 41.89 76.96H65.39M65.38 73.92H41.88C41.8 71.96 41.59 70.55 41.33 70.55H23.62C23.36 70.55 23.15 71.96 23.07 73.92H0" stroke="#231815" stroke-width="0.5" stroke-miterlimit="10"/>
<path d="M137.85 73.92H114.35C114.27 71.96 114.06 70.55 113.8 70.55H96.09C95.83 70.55 95.62 71.96 95.54 73.92H72.46V76.96H95.54C95.62 78.93 95.83 80.35 96.09 80.35H113.8C114.06 80.35 114.27 78.92 114.35 76.96H137.85V73.92Z" fill="white"/>
<mask id="mask23_663_19663" style="mask-type:luminance" maskUnits="userSpaceOnUse" x="95" y="70" width="20" height="11">
<path d="M96.1 70.55C95.78 70.55 95.52 72.74 95.52 75.45C95.52 78.16 95.78 80.35 96.1 80.35H113.81C114.13 80.35 114.39 78.16 114.39 75.45C114.39 72.74 114.13 70.55 113.81 70.55H96.1Z" fill="white"/>
</mask>
<g mask="url(#mask23_663_19663)">
<path d="M114.38 70.56H95.52V80.36H114.38V70.56Z" fill="white"/>
</g>
<path d="M113.81 70.56H96.1C95.78 70.56 95.52 72.75 95.52 75.46C95.52 78.17 95.78 80.36 96.1 80.36H113.81C114.13 80.36 114.39 78.17 114.39 75.46C114.39 72.75 114.13 70.56 113.81 70.56Z" stroke="#231815" stroke-width="0.5" stroke-miterlimit="10"/>
<path d="M97.7 70.56C97.38 70.56 97.12 72.75 97.12 75.46C97.12 78.17 97.38 80.36 97.7 80.36H99.14C98.82 80.36 98.56 78.17 98.56 75.46C98.56 72.75 98.82 70.56 99.14 70.56H97.7Z" stroke="#231815" stroke-width="0.3" stroke-linecap="round" stroke-linejoin="round"/>
<path d="M72.47 76.96H95.55C95.63 78.93 95.84 80.35 96.1 80.35H113.81C114.07 80.35 114.28 78.92 114.36 76.96H137.86M137.85 73.92H114.35C114.27 71.96 114.06 70.55 113.8 70.55H96.09C95.83 70.55 95.62 71.96 95.54 73.92H72.46" stroke="#231815" stroke-width="0.5" stroke-miterlimit="10"/>
</g>
<defs>
<clipPath id="clip0_663_19663">
<rect width="137.85" height="80.6" fill="white"/>
</clipPath>
</defs>
</svg>
