<svg width="350" height="190" viewBox="0 0 350 190" fill="none" xmlns="http://www.w3.org/2000/svg">
<path d="M350 0H0V190H350V0Z" fill="white"/>
<mask id="mask0_821_69865" style="mask-type:luminance" maskUnits="userSpaceOnUse" x="22" y="22" width="306" height="146">
<path d="M327.187 22.8203H22.8127V167.18H327.187V22.8203Z" fill="white"/>
</mask>
<g mask="url(#mask0_821_69865)">
<g opacity="0.5">
<path d="M249.218 -13.1731H100.895C80.9869 -13.1731 64.8484 2.97053 64.8484 22.8847V420.616C64.8484 440.53 80.9869 456.673 100.895 456.673H249.218C269.126 456.673 285.265 440.53 285.265 420.616V22.8847C285.265 2.97053 269.126 -13.1731 249.218 -13.1731Z" stroke="#040000" stroke-width="2" stroke-linecap="round" stroke-linejoin="round"/>
<path d="M251.698 53.2737H98.48C93.0545 53.2737 88.6272 57.7024 88.6272 63.1296V143.636C88.6272 149.063 93.0545 153.492 98.48 153.492H106.32V149.932H98.48C95.0025 149.932 92.1852 147.114 92.1852 143.636V63.1296C92.1852 59.651 95.0025 56.8328 98.48 56.8328H251.714C255.191 56.8328 258.009 59.651 258.009 63.1296V143.636C258.009 147.098 255.191 149.932 251.714 149.932H243.954V153.492H251.714C257.139 153.492 261.566 149.063 261.566 143.636V63.1296C261.566 57.7024 257.139 53.2737 251.714 53.2737H251.698Z" stroke="#040000" stroke-linejoin="round"/>
<path d="M104.453 77.0277C108.81 77.0277 112.342 73.4947 112.342 69.1365C112.342 64.7784 108.81 61.2454 104.453 61.2454C100.096 61.2454 96.5642 64.7784 96.5642 69.1365C96.5642 73.4947 100.096 77.0277 104.453 77.0277Z" stroke="#040000" stroke-width="0.5" stroke-linejoin="round"/>
<path d="M104.453 74.2739C107.289 74.2739 109.589 71.9738 109.589 69.1366C109.589 66.2993 107.289 63.9993 104.453 63.9993C101.616 63.9993 99.3171 66.2993 99.3171 69.1366C99.3171 71.9738 101.616 74.2739 104.453 74.2739Z" stroke="#040000" stroke-width="0.3" stroke-linejoin="round"/>
<path d="M245.676 135.535C250.033 135.535 253.565 132.002 253.565 127.644C253.565 123.286 250.033 119.753 245.676 119.753C241.319 119.753 237.788 123.286 237.788 127.644C237.788 132.002 241.319 135.535 245.676 135.535Z" stroke="#040000" stroke-width="0.5" stroke-linejoin="round"/>
<path d="M245.676 132.781C248.513 132.781 250.812 130.481 250.812 127.644C250.812 124.807 248.513 122.507 245.676 122.507C242.84 122.507 240.541 124.807 240.541 127.644C240.541 130.481 242.84 132.781 245.676 132.781Z" stroke="#040000" stroke-width="0.3" stroke-linejoin="round"/>
<path d="M251.488 50.2622H98.6248C91.3318 50.2622 85.4072 56.1886 85.4072 63.4839V143.217C85.4072 150.512 91.3318 156.439 98.6248 156.439H110.699V149.916H173.535V174.701H176.594V149.916H239.43V156.439H251.504C258.797 156.439 264.722 150.512 264.722 143.217V63.4839C264.722 56.1886 258.797 50.2622 251.504 50.2622H251.488ZM254.531 67.0591H245.676V71.1335H254.531V143.233C254.531 144.892 253.13 146.293 251.472 146.293H176.562V131.396H173.503V146.293H98.5926C96.9344 146.293 95.5337 144.892 95.5337 143.233V129.689H104.372V125.615H95.5337V63.5C95.5337 61.8413 96.9344 60.4402 98.5926 60.4402H251.456C253.114 60.4402 254.515 61.8413 254.515 63.5V67.0752L254.531 67.0591Z" stroke="#040000" stroke-width="0.5" stroke-miterlimit="10"/>
<path d="M262.371 -7.89087H87.7255C78.0176 -7.89087 70.1289 0.0164036 70.1289 9.71127V433.58C70.1289 443.291 78.0337 451.182 87.7255 451.182H150.046V456.673H152.59V442.775C152.59 433.37 160.237 425.737 169.623 425.737H180.458C189.86 425.737 197.491 433.386 197.491 442.775V456.673H200.035V451.182H262.355C272.063 451.182 279.952 443.291 279.952 433.58V9.72737C279.952 0.0164036 272.063 -7.87477 262.355 -7.87477L262.371 -7.89087ZM177.077 -3.81645H236.435V38.6509H177.077V-3.81645ZM113.662 -3.81645H173.02V38.6509H113.662V-3.81645ZM74.202 9.72737C74.202 2.25492 80.2715 -3.81645 87.7416 -3.81645H109.605V38.6509H74.2181V9.72737H74.202ZM151.688 434.208C151.688 434.208 149.821 437.123 149.821 447.188H143.719V416.477H151.672V434.224L151.688 434.208ZM195.028 429.731C191.438 425.721 186.254 423.192 180.458 423.192H169.623C163.795 423.192 158.563 425.769 154.973 429.827V416.461H195.028V429.731ZM206.346 447.188H200.244C200.244 437.123 198.376 434.208 198.376 434.208V416.461H206.329V447.172L206.346 447.188ZM216.456 413.417H133.625V360.707C133.625 360.707 133.625 360.659 133.625 360.627V334.618C133.625 333.571 133.673 333.088 133.721 332.863C133.898 332.83 134.22 332.83 134.655 332.83H215.249C215.764 332.83 216.118 332.83 216.343 332.879C216.375 333.136 216.392 333.587 216.392 334.215V360.627C216.392 360.739 216.408 360.868 216.44 360.981V413.417H216.456ZM275.895 76.8828H264.802V80.9572H275.895V126.066H264.802V130.14H275.895V181.239H261.599V184.799H275.895V238.636H261.599V242.195H275.895V296.161H261.599V299.72H275.895V362.124H219.467V334.232C219.467 330.753 218.565 329.803 215.265 329.803H190.456V281.216C190.456 280.298 191.486 279.879 192.226 279.799H193.16C194.835 279.799 196.219 278.43 196.219 276.739V253.323V195.83C196.219 184.235 186.737 174.733 175.129 174.733C163.521 174.733 154.039 184.219 154.039 195.83V253.323V276.739C154.039 278.414 155.407 279.799 157.098 279.799H158.418C158.901 280.04 159.625 280.572 159.625 281.216V329.803H134.655C131.162 329.803 130.566 331.301 130.566 334.65V362.124H74.1859V299.72H88.4822V296.161H74.1859V242.195H88.4822V238.636H74.1859V184.799H88.4822V181.239H74.1859V130.14H85.2784V126.066H74.1859V80.9572H85.2784V76.8828H74.1859V42.7092H109.572V50.1495H113.645V42.7092H173.004V50.2461H177.077V42.7092H236.435V50.2461H240.508V42.7092H275.895V76.8828ZM275.895 38.6509H240.508V-3.81645H262.371C269.841 -3.81645 275.911 2.25492 275.911 9.72737V38.6509H275.895Z" stroke="#040000" stroke-width="0.5" stroke-miterlimit="10"/>
<path d="M257.284 47.3796C260.983 47.3796 263.981 44.3801 263.981 40.6802C263.981 36.9802 260.983 33.9807 257.284 33.9807C253.585 33.9807 250.587 36.9802 250.587 40.6802C250.587 44.3801 253.585 47.3796 257.284 47.3796Z" fill="white" stroke="#040000" stroke-width="0.75" stroke-linejoin="round"/>
<path d="M257.284 44.6258C259.462 44.6258 261.228 42.8593 261.228 40.6802C261.228 38.5011 259.462 36.7346 257.284 36.7346C255.106 36.7346 253.34 38.5011 253.34 40.6802C253.34 42.8593 255.106 44.6258 257.284 44.6258Z" stroke="#040000" stroke-width="0.3" stroke-linejoin="round"/>
<path d="M257.284 44.0622C259.151 44.0622 260.665 42.5481 260.665 40.6803C260.665 38.8125 259.151 37.2983 257.284 37.2983C255.417 37.2983 253.903 38.8125 253.903 40.6803C253.903 42.5481 255.417 44.0622 257.284 44.0622Z" stroke="#040000" stroke-width="0.3" stroke-linejoin="round"/>
<path d="M92.8773 47.3796C96.5761 47.3796 99.5746 44.3801 99.5746 40.6802C99.5746 36.9802 96.5761 33.9807 92.8773 33.9807C89.1784 33.9807 86.1799 36.9802 86.1799 40.6802C86.1799 44.3801 89.1784 47.3796 92.8773 47.3796Z" fill="white" stroke="#040000" stroke-width="0.75" stroke-linejoin="round"/>
<path d="M92.8774 44.6258C95.0558 44.6258 96.8218 42.8593 96.8218 40.6802C96.8218 38.5011 95.0558 36.7346 92.8774 36.7346C90.699 36.7346 88.9331 38.5011 88.9331 40.6802C88.9331 42.8593 90.699 44.6258 92.8774 44.6258Z" stroke="#040000" stroke-width="0.3" stroke-linejoin="round"/>
<path d="M92.8774 44.062C94.7446 44.062 96.2583 42.5478 96.2583 40.68C96.2583 38.8122 94.7446 37.2981 92.8774 37.2981C91.0102 37.2981 89.4966 38.8122 89.4966 40.68C89.4966 42.5478 91.0102 44.062 92.8774 44.062Z" stroke="#040000" stroke-width="0.3" stroke-linejoin="round"/>
<path d="M148.227 117.836L146.746 119.318" stroke="#040000" stroke-width="0.35" stroke-miterlimit="10"/>
<path d="M150.787 109.446L150.094 109.849" stroke="#040000" stroke-width="0.35" stroke-miterlimit="10"/>
<path d="M148.919 110.525L148.227 110.928" stroke="#040000" stroke-width="0.35" stroke-miterlimit="10"/>
<path d="M151.318 111.974L150.143 112.651" stroke="#040000" stroke-width="0.35" stroke-miterlimit="10"/>
<path d="M144.089 106.805L141.578 111.153" stroke="#040000" stroke-width="0.35" stroke-miterlimit="10"/>
<path d="M140.354 113.279L138.6 116.323" stroke="#040000" stroke-width="0.35" stroke-miterlimit="10"/>
<path d="M139.775 116.999L141.529 113.955" stroke="#040000" stroke-width="0.35" stroke-miterlimit="10"/>
<path d="M142.753 111.829L145.265 107.481" stroke="#040000" stroke-width="0.35" stroke-miterlimit="10"/>
<path d="M150.255 111.475L150.787 109.446" stroke="#040000" stroke-width="0.35" stroke-miterlimit="10"/>
<path d="M145.78 119.994V118.642" stroke="#040000" stroke-width="0.35" stroke-miterlimit="10"/>
<path d="M148.227 120.8V119.994" stroke="#040000" stroke-width="0.35" stroke-miterlimit="10"/>
<path d="M148.227 118.642V117.836" stroke="#040000" stroke-width="0.35" stroke-miterlimit="10"/>
<path d="M142.238 114.358L141.691 112.329" stroke="#040000" stroke-width="0.35" stroke-miterlimit="10"/>
<path d="M147.164 107.481L148.919 110.525" stroke="#040000" stroke-width="0.35" stroke-miterlimit="10"/>
<path d="M150.143 112.651L152.654 116.999" stroke="#040000" stroke-width="0.35" stroke-miterlimit="10"/>
<path d="M153.829 116.323L151.318 111.974" stroke="#040000" stroke-width="0.35" stroke-miterlimit="10"/>
<path d="M150.094 109.849L148.34 106.805" stroke="#040000" stroke-width="0.35" stroke-miterlimit="10"/>
<path d="M146.746 119.318L148.227 120.8" stroke="#040000" stroke-width="0.35" stroke-miterlimit="10"/>
<path d="M139.662 112.86L140.354 113.279" stroke="#040000" stroke-width="0.35" stroke-miterlimit="10"/>
<path d="M141.53 113.955L142.238 114.358" stroke="#040000" stroke-width="0.35" stroke-miterlimit="10"/>
<path d="M141.578 111.153L142.753 111.829" stroke="#040000" stroke-width="0.35" stroke-miterlimit="10"/>
<path d="M140.725 119.994H145.78" stroke="#040000" stroke-width="0.35" stroke-miterlimit="10"/>
<path d="M148.227 119.994H151.704" stroke="#040000" stroke-width="0.35" stroke-miterlimit="10"/>
<path d="M151.704 118.642H148.227" stroke="#040000" stroke-width="0.35" stroke-miterlimit="10"/>
<path d="M145.78 118.642H140.725" stroke="#040000" stroke-width="0.35" stroke-miterlimit="10"/>
<path d="M148.227 110.928L150.255 111.475" stroke="#040000" stroke-width="0.35" stroke-miterlimit="10"/>
<path d="M141.691 112.329L139.662 112.86" stroke="#040000" stroke-width="0.35" stroke-miterlimit="10"/>
<path d="M151.704 119.994C153.057 119.994 154.151 118.899 154.151 117.546C154.151 117.112 154.039 116.693 153.829 116.323" stroke="#040000" stroke-width="0.35" stroke-miterlimit="10"/>
<path d="M138.599 116.323C137.923 117.498 138.326 118.996 139.501 119.672C139.871 119.882 140.29 119.994 140.725 119.994" stroke="#040000" stroke-width="0.35" stroke-miterlimit="10"/>
<path d="M148.34 106.805C147.663 105.629 146.166 105.227 144.991 105.903C144.621 106.112 144.315 106.435 144.089 106.805" stroke="#040000" stroke-width="0.35" stroke-miterlimit="10"/>
<path d="M151.704 118.642C152.316 118.642 152.799 118.159 152.799 117.547C152.799 117.353 152.751 117.16 152.654 116.999" stroke="#040000" stroke-width="0.35" stroke-miterlimit="10"/>
<path d="M139.775 116.999C139.469 117.53 139.646 118.191 140.177 118.497C140.338 118.593 140.531 118.642 140.725 118.642" stroke="#040000" stroke-width="0.35" stroke-miterlimit="10"/>
<path d="M147.164 107.481C146.858 106.95 146.198 106.773 145.667 107.079C145.506 107.175 145.361 107.32 145.265 107.481" stroke="#040000" stroke-width="0.35" stroke-miterlimit="10"/>
</g>
<path d="M108.639 135.181C101.909 135.181 96.4192 129.705 96.4192 122.958V72.6312C96.4192 65.8996 101.893 60.408 108.639 60.408H241.458C248.188 60.408 253.678 65.8835 253.678 72.6312V122.958C253.678 129.689 248.204 135.181 241.458 135.181H108.639ZM245.66 124.81C244.356 124.81 243.31 125.872 243.31 127.161C243.31 128.449 244.372 129.512 245.66 129.512C246.948 129.512 248.011 128.449 248.011 127.161C248.011 125.872 246.948 124.81 245.66 124.81ZM104.372 126.211C103.857 126.211 103.439 126.629 103.439 127.145C103.439 127.66 103.857 128.079 104.372 128.079C104.887 128.079 105.306 127.66 105.306 127.145C105.306 126.629 104.887 126.211 104.372 126.211ZM104.388 66.2539C103.084 66.2539 102.022 67.3168 102.022 68.6212C102.022 69.9257 103.084 70.9886 104.388 70.9886C105.692 70.9886 106.755 69.9257 106.755 68.6212C106.755 67.3168 105.692 66.2539 104.388 66.2539ZM245.66 67.6872C245.145 67.6872 244.743 68.1059 244.743 68.6051C244.743 69.1043 245.161 69.5231 245.66 69.5231C246.159 69.5231 246.578 69.1043 246.578 68.6051C246.578 68.1059 246.159 67.6872 245.66 67.6872Z" fill="white"/>
<path d="M241.458 61.2293C247.737 61.2293 252.873 66.3667 252.873 72.6474V122.974C252.873 129.254 247.737 134.392 241.458 134.392H108.639C102.36 134.392 97.2242 129.254 97.2242 122.974V72.6474C97.2242 66.3667 102.36 61.2293 108.639 61.2293H241.458ZM104.388 71.7938C106.143 71.7938 107.56 70.3767 107.56 68.6213C107.56 66.8659 106.143 65.4487 104.388 65.4487C102.634 65.4487 101.217 66.8659 101.217 68.6213C101.217 70.3767 102.634 71.7938 104.388 71.7938ZM245.66 70.3444C246.61 70.3444 247.383 69.5714 247.383 68.6213C247.383 67.6711 246.61 66.8981 245.66 66.8981C244.71 66.8981 243.938 67.6711 243.938 68.6213C243.938 69.5714 244.71 70.3444 245.66 70.3444ZM245.66 130.317C247.399 130.317 248.816 128.9 248.816 127.161C248.816 125.422 247.399 124.004 245.66 124.004C243.922 124.004 242.505 125.422 242.505 127.161C242.505 128.9 243.922 130.317 245.66 130.317ZM104.372 128.9C105.338 128.9 106.111 128.111 106.111 127.161C106.111 126.211 105.322 125.422 104.372 125.422C103.422 125.422 102.634 126.211 102.634 127.161C102.634 128.111 103.422 128.9 104.372 128.9ZM241.458 59.6189H108.639C101.458 59.6189 95.6143 65.4648 95.6143 72.6474V122.974C95.6143 130.156 101.458 136.002 108.639 136.002H241.458C248.639 136.002 254.483 130.156 254.483 122.974V72.6474C254.483 65.4648 248.639 59.6189 241.458 59.6189ZM104.388 70.1834C103.535 70.1834 102.827 69.4748 102.827 68.6213C102.827 67.7677 103.535 67.0591 104.388 67.0591C105.242 67.0591 105.95 67.7677 105.95 68.6213C105.95 69.4748 105.242 70.1834 104.388 70.1834ZM245.66 68.734C245.66 68.734 245.548 68.6857 245.548 68.6213C245.548 68.5569 245.596 68.5085 245.66 68.5085C245.725 68.5085 245.773 68.5569 245.773 68.6213C245.773 68.6857 245.725 68.734 245.66 68.734ZM245.66 128.707C244.807 128.707 244.115 128.014 244.115 127.161C244.115 126.307 244.807 125.615 245.66 125.615C246.514 125.615 247.206 126.307 247.206 127.161C247.206 128.014 246.514 128.707 245.66 128.707ZM104.372 127.29C104.372 127.29 104.244 127.225 104.244 127.161C104.244 127.096 104.308 127.032 104.372 127.032C104.437 127.032 104.501 127.096 104.501 127.161C104.501 127.225 104.437 127.29 104.372 127.29Z" fill="#231815"/>
<path d="M205.798 111.862H176.948V134.376H205.798V111.862Z" fill="white" stroke="#040000" stroke-width="0.7" stroke-miterlimit="10" stroke-linecap="round"/>
<path d="M237.514 111.862H208.664V134.376H237.514V111.862Z" fill="white" stroke="#040000" stroke-width="0.7" stroke-miterlimit="10" stroke-linecap="round"/>
<path d="M176.948 115.34H205.798" stroke="#040000" stroke-width="0.3" stroke-miterlimit="10" stroke-linecap="round"/>
<path d="M205.798 116.935H176.948" stroke="#040000" stroke-width="0.3" stroke-miterlimit="10" stroke-linecap="round"/>
<path d="M208.664 115.34H237.53" stroke="#040000" stroke-width="0.3" stroke-miterlimit="10" stroke-linecap="round"/>
<path d="M237.53 116.935H208.664" stroke="#040000" stroke-width="0.3" stroke-miterlimit="10" stroke-linecap="round"/>
<path d="M112.744 121.396V133.522H118.443V128.9H119.313V133.522H129.246V128.9H130.115V133.522H135.815V121.396H112.744Z" fill="white"/>
<path d="M108.993 124.294H108.413L107.85 124.89V130.06L108.413 130.559V132.379H112.728V124.294H108.993Z" fill="white"/>
<path d="M139.533 124.294H140.113L140.693 124.89V130.06L140.113 130.559V132.379H135.814V124.294H139.533Z" fill="white"/>
<path d="M117.526 118.513H116.608V121.411H117.526V118.513Z" fill="white"/>
<path d="M121.245 118.513H120.327V121.411H121.245V118.513Z" fill="white"/>
<path d="M124.738 118.513H123.82V121.411H124.738V118.513Z" fill="white"/>
<path d="M128.377 118.513H127.459V121.411H128.377V118.513Z" fill="white"/>
<path d="M131.935 118.513H131.017V121.411H131.935V118.513Z" fill="white"/>
<path d="M116.608 119.382H117.526" stroke="#040000" stroke-width="0.25" stroke-linecap="round" stroke-linejoin="round"/>
<path d="M120.214 119.382H121.132" stroke="#040000" stroke-width="0.25" stroke-linecap="round" stroke-linejoin="round"/>
<path d="M123.82 119.382H124.738" stroke="#040000" stroke-width="0.25" stroke-linecap="round" stroke-linejoin="round"/>
<path d="M127.427 119.382H128.344" stroke="#040000" stroke-width="0.25" stroke-linecap="round" stroke-linejoin="round"/>
<path d="M131.017 119.382H131.951" stroke="#040000" stroke-width="0.25" stroke-linecap="round" stroke-linejoin="round"/>
<path d="M108.993 124.294V132.363" stroke="#040000" stroke-width="0.25" stroke-linecap="round" stroke-linejoin="round"/>
<path d="M111.311 124.294V132.363" stroke="#040000" stroke-width="0.25" stroke-linecap="round" stroke-linejoin="round"/>
<path d="M116.608 131.493H117.526" stroke="#040000" stroke-width="0.25" stroke-linecap="round" stroke-linejoin="round"/>
<path d="M116.608 131.493V128.9" stroke="#040000" stroke-width="0.25" stroke-linecap="round" stroke-linejoin="round"/>
<path d="M117.526 128.9V131.493" stroke="#040000" stroke-width="0.25" stroke-linecap="round" stroke-linejoin="round"/>
<path d="M116.608 118.513H117.526" stroke="#040000" stroke-width="0.35" stroke-linecap="round" stroke-linejoin="round"/>
<path d="M116.608 121.395V118.513" stroke="#040000" stroke-width="0.35" stroke-linecap="round" stroke-linejoin="round"/>
<path d="M117.526 121.395V118.513" stroke="#040000" stroke-width="0.35" stroke-linecap="round" stroke-linejoin="round"/>
<path d="M120.214 131.493H121.132" stroke="#040000" stroke-width="0.25" stroke-linecap="round" stroke-linejoin="round"/>
<path d="M120.214 131.493V128.9" stroke="#040000" stroke-width="0.25" stroke-linecap="round" stroke-linejoin="round"/>
<path d="M121.132 128.9V131.493" stroke="#040000" stroke-width="0.25" stroke-linecap="round" stroke-linejoin="round"/>
<path d="M120.214 118.513H121.132" stroke="#040000" stroke-width="0.35" stroke-linecap="round" stroke-linejoin="round"/>
<path d="M120.214 121.395V118.513" stroke="#040000" stroke-width="0.35" stroke-linecap="round" stroke-linejoin="round"/>
<path d="M121.132 121.395V118.513" stroke="#040000" stroke-width="0.35" stroke-linecap="round" stroke-linejoin="round"/>
<path d="M123.82 131.493H124.738" stroke="#040000" stroke-width="0.25" stroke-linecap="round" stroke-linejoin="round"/>
<path d="M123.82 131.493V128.9" stroke="#040000" stroke-width="0.25" stroke-linecap="round" stroke-linejoin="round"/>
<path d="M124.738 128.9V131.493" stroke="#040000" stroke-width="0.25" stroke-linecap="round" stroke-linejoin="round"/>
<path d="M123.82 118.513H124.738" stroke="#040000" stroke-width="0.35" stroke-linecap="round" stroke-linejoin="round"/>
<path d="M123.82 121.395V118.513" stroke="#040000" stroke-width="0.35" stroke-linecap="round" stroke-linejoin="round"/>
<path d="M124.738 121.395V118.513" stroke="#040000" stroke-width="0.35" stroke-linecap="round" stroke-linejoin="round"/>
<path d="M127.427 131.493H128.344" stroke="#040000" stroke-width="0.25" stroke-linecap="round" stroke-linejoin="round"/>
<path d="M127.427 131.493V128.9" stroke="#040000" stroke-width="0.25" stroke-linecap="round" stroke-linejoin="round"/>
<path d="M128.344 128.9V131.493" stroke="#040000" stroke-width="0.25" stroke-linecap="round" stroke-linejoin="round"/>
<path d="M127.427 118.513H128.344" stroke="#040000" stroke-width="0.35" stroke-linecap="round" stroke-linejoin="round"/>
<path d="M127.427 121.395V118.513" stroke="#040000" stroke-width="0.35" stroke-linecap="round" stroke-linejoin="round"/>
<path d="M128.344 121.395V118.513" stroke="#040000" stroke-width="0.35" stroke-linecap="round" stroke-linejoin="round"/>
<path d="M131.017 131.493H131.951" stroke="#040000" stroke-width="0.25" stroke-linecap="round" stroke-linejoin="round"/>
<path d="M131.017 131.493V128.9" stroke="#040000" stroke-width="0.25" stroke-linecap="round" stroke-linejoin="round"/>
<path d="M131.951 128.9V131.493" stroke="#040000" stroke-width="0.25" stroke-linecap="round" stroke-linejoin="round"/>
<path d="M131.017 118.513H131.951" stroke="#040000" stroke-width="0.35" stroke-linecap="round" stroke-linejoin="round"/>
<path d="M131.017 121.395V118.513" stroke="#040000" stroke-width="0.35" stroke-linecap="round" stroke-linejoin="round"/>
<path d="M131.951 121.395V118.513" stroke="#040000" stroke-width="0.35" stroke-linecap="round" stroke-linejoin="round"/>
<path d="M112.744 130.639H115.481" stroke="#040000" stroke-width="0.35" stroke-linecap="round" stroke-linejoin="round"/>
<path d="M133.078 130.639H135.815" stroke="#040000" stroke-width="0.35" stroke-linecap="round" stroke-linejoin="round"/>
<path d="M115.481 128.9H133.078" stroke="#040000" stroke-width="0.35" stroke-linecap="round" stroke-linejoin="round"/>
<path d="M115.481 130.639V128.9" stroke="#040000" stroke-width="0.35" stroke-linecap="round" stroke-linejoin="round"/>
<path d="M133.078 128.9V130.639" stroke="#040000" stroke-width="0.35" stroke-linecap="round" stroke-linejoin="round"/>
<path d="M112.744 133.522H118.443" stroke="#040000" stroke-width="0.35" stroke-linecap="round" stroke-linejoin="round"/>
<path d="M119.313 133.522H129.246" stroke="#040000" stroke-width="0.35" stroke-linecap="round" stroke-linejoin="round"/>
<path d="M130.115 133.522H135.814" stroke="#040000" stroke-width="0.35" stroke-linecap="round" stroke-linejoin="round"/>
<path d="M112.744 121.396H135.815" stroke="#040000" stroke-width="0.35" stroke-linecap="round" stroke-linejoin="round"/>
<path d="M112.744 133.522V121.396" stroke="#040000" stroke-width="0.35" stroke-linecap="round" stroke-linejoin="round"/>
<path d="M118.443 133.522V128.9" stroke="#040000" stroke-width="0.35" stroke-linecap="round" stroke-linejoin="round"/>
<path d="M119.313 133.522V128.9" stroke="#040000" stroke-width="0.35" stroke-linecap="round" stroke-linejoin="round"/>
<path d="M129.246 128.9V133.522" stroke="#040000" stroke-width="0.35" stroke-linecap="round" stroke-linejoin="round"/>
<path d="M130.115 133.522V128.9" stroke="#040000" stroke-width="0.35" stroke-linecap="round" stroke-linejoin="round"/>
<path d="M135.814 133.522V121.396" stroke="#040000" stroke-width="0.35" stroke-linecap="round" stroke-linejoin="round"/>
<path d="M137.247 124.294V132.363" stroke="#040000" stroke-width="0.25" stroke-linecap="round" stroke-linejoin="round"/>
<path d="M139.566 124.294V132.363" stroke="#040000" stroke-width="0.25" stroke-linecap="round" stroke-linejoin="round"/>
<path d="M112.744 132.363H108.413" stroke="#040000" stroke-width="0.35" stroke-linecap="round" stroke-linejoin="round"/>
<path d="M108.413 124.294H112.744" stroke="#040000" stroke-width="0.35" stroke-linecap="round" stroke-linejoin="round"/>
<path d="M107.85 130.06L108.413 130.639" stroke="#040000" stroke-width="0.35" stroke-linecap="round" stroke-linejoin="round"/>
<path d="M107.85 124.858V130.06" stroke="#040000" stroke-width="0.35" stroke-linecap="round" stroke-linejoin="round"/>
<path d="M108.413 124.294V132.363" stroke="#040000" stroke-width="0.35" stroke-linecap="round" stroke-linejoin="round"/>
<path d="M108.413 124.294L107.85 124.858" stroke="#040000" stroke-width="0.35" stroke-linecap="round" stroke-linejoin="round"/>
<path d="M140.129 132.363H135.814" stroke="#040000" stroke-width="0.35" stroke-linecap="round" stroke-linejoin="round"/>
<path d="M135.814 124.294H140.129" stroke="#040000" stroke-width="0.35" stroke-linecap="round" stroke-linejoin="round"/>
<path d="M140.709 124.858L140.129 124.294" stroke="#040000" stroke-width="0.35" stroke-linecap="round" stroke-linejoin="round"/>
<path d="M140.129 124.294V132.363" stroke="#040000" stroke-width="0.35" stroke-linecap="round" stroke-linejoin="round"/>
<path d="M140.709 124.858V130.06" stroke="#040000" stroke-width="0.35" stroke-linecap="round" stroke-linejoin="round"/>
<path d="M140.129 130.639L140.709 130.06" stroke="#040000" stroke-width="0.35" stroke-linecap="round" stroke-linejoin="round"/>
<path d="M104.453 62.3728C103.728 62.3728 103.004 62.5016 102.328 62.7432C101.909 62.8881 101.7 63.3552 101.845 63.7739C101.957 64.096 102.279 64.3053 102.601 64.3053C102.698 64.3053 102.778 64.3053 102.875 64.257C103.261 64.1121 103.664 64.0316 104.099 63.9993C104.099 63.9993 104.099 63.9993 104.115 63.9993C104.115 63.9993 104.115 63.9993 104.131 63.9993H104.147C104.598 63.9993 104.952 63.645 104.952 63.1941C104.952 62.7432 104.598 62.3889 104.147 62.3889L104.453 62.3728ZM99.7518 65.0622C99.4781 65.0622 99.2044 65.2072 99.0595 65.4649L98.9951 65.5615C98.9951 65.5615 98.979 65.5937 98.9629 65.6098C98.9629 65.6259 98.9468 65.642 98.9307 65.6581L98.8824 65.7708C98.8824 65.7708 98.8663 65.803 98.8502 65.8353C98.8502 65.8353 98.8341 65.8675 98.818 65.8836C98.496 66.5438 98.3028 67.2363 98.2223 67.961C98.174 68.3959 98.496 68.7985 98.9307 68.8468C98.9629 68.8468 98.9951 68.8468 99.0112 68.8468C99.4137 68.8468 99.7679 68.5408 99.8162 68.1382C99.8484 67.8 99.9289 67.4779 100.025 67.1558C100.025 67.1558 100.025 67.1397 100.025 67.1236C100.025 67.1236 100.025 67.1236 100.025 67.1075C100.025 67.1075 100.025 67.1075 100.025 67.0914C100.025 67.0914 100.025 67.0753 100.025 67.0592C100.058 66.9948 100.074 66.9304 100.106 66.882C100.106 66.882 100.106 66.8498 100.122 66.8337C100.122 66.8337 100.122 66.8176 100.138 66.8015C100.138 66.8015 100.138 66.8015 100.138 66.7854C100.138 66.7693 100.154 66.7532 100.17 66.721C100.17 66.721 100.17 66.6888 100.186 66.6888C100.186 66.6888 100.186 66.6566 100.203 66.6566C100.203 66.6566 100.203 66.6405 100.219 66.6244C100.219 66.6244 100.219 66.5922 100.235 66.5761C100.46 66.1896 100.331 65.6903 99.945 65.4649C99.8162 65.3843 99.6713 65.3521 99.5425 65.3521L99.7518 65.0622ZM99.8967 70.8276C99.7357 70.8276 99.5908 70.8759 99.4459 70.9565C99.0756 71.198 98.979 71.6973 99.2205 72.0677L99.2849 72.1643C99.2849 72.1643 99.301 72.1965 99.3171 72.2126C99.3171 72.2287 99.3332 72.2448 99.3493 72.2609L99.4137 72.3575C99.4137 72.3575 99.4459 72.3898 99.4459 72.4059C99.4459 72.4059 99.462 72.4381 99.4781 72.4542C99.9289 73.0339 100.46 73.5171 101.072 73.9036C101.201 73.9841 101.362 74.0324 101.507 74.0324C101.78 74.0324 102.038 73.9036 102.183 73.662C102.424 73.2916 102.312 72.7924 101.941 72.5508C101.571 72.3092 101.233 72.0194 100.927 71.6973C100.927 71.6973 100.927 71.6973 100.927 71.6812C100.927 71.6812 100.927 71.6812 100.911 71.6651C100.911 71.6651 100.847 71.5845 100.814 71.5523C100.814 71.5523 100.798 71.5201 100.782 71.5201C100.782 71.5201 100.782 71.504 100.766 71.4879C100.766 71.4879 100.766 71.4718 100.75 71.4557V71.4396C100.75 71.4396 100.734 71.4235 100.718 71.4074C100.718 71.4074 100.718 71.3752 100.702 71.3752C100.702 71.3752 100.702 71.3752 100.702 71.3591C100.702 71.343 100.686 71.3269 100.669 71.3108C100.508 71.0853 100.251 70.9565 99.9933 70.9565L99.8967 70.8276ZM107.318 72.4703C107.174 72.4703 107.029 72.5025 106.9 72.583C106.497 72.8246 106.063 73.0178 105.596 73.1306C105.596 73.1306 105.564 73.1306 105.548 73.1306C105.548 73.1306 105.531 73.1306 105.515 73.1306C105.515 73.1306 105.515 73.1306 105.499 73.1306C105.499 73.1306 105.467 73.1306 105.451 73.1306C105.451 73.1306 105.419 73.1306 105.403 73.1306C105.403 73.1306 105.403 73.1306 105.387 73.1306C105.387 73.1306 105.354 73.1306 105.322 73.1306C105.322 73.1306 105.29 73.1306 105.274 73.1306C105.274 73.1306 105.242 73.1306 105.226 73.1306H105.193C105.193 73.1306 105.177 73.1306 105.161 73.1306C104.726 73.195 104.404 73.5976 104.469 74.0324C104.517 74.435 104.855 74.7249 105.258 74.7249C105.29 74.7249 105.338 74.7249 105.37 74.7249H105.483C105.483 74.7249 105.515 74.7088 105.548 74.6927C105.564 74.6927 105.58 74.6927 105.612 74.6927H105.725C105.725 74.6927 105.773 74.6605 105.789 74.6605C105.805 74.6605 105.821 74.6605 105.837 74.6605C106.546 74.5155 107.222 74.2418 107.85 73.8553C108.22 73.6137 108.349 73.1306 108.107 72.744C107.962 72.5025 107.689 72.3575 107.415 72.3575L107.318 72.4703ZM109.878 67.3008C109.878 67.3008 109.83 67.3008 109.798 67.3008C109.363 67.3491 109.025 67.7356 109.073 68.1704C109.073 68.1704 109.073 68.2026 109.073 68.2187C109.073 68.3153 109.073 68.412 109.073 68.5086C109.073 68.5086 109.073 68.5247 109.073 68.5408V68.573C109.073 68.573 109.073 68.573 109.073 68.5891C109.073 68.7824 109.025 68.9917 108.993 69.1689V69.2011C108.993 69.2011 108.993 69.2333 108.993 69.2494V69.2816C108.993 69.2816 108.993 69.2816 108.993 69.2977C108.993 69.3138 108.993 69.3299 108.977 69.3621C108.977 69.3621 108.977 69.3943 108.977 69.4104C108.977 69.4104 108.977 69.4426 108.977 69.4588C108.977 69.491 108.961 69.5232 108.944 69.5393C108.8 69.958 109.041 70.425 109.46 70.5539C109.54 70.5861 109.637 70.6022 109.717 70.6022C110.055 70.6022 110.361 70.3928 110.474 70.0546L110.506 69.9419C110.506 69.9419 110.506 69.9097 110.522 69.8775C110.522 69.8614 110.522 69.8453 110.538 69.813L110.571 69.7003C110.571 69.7003 110.571 69.652 110.571 69.6359C110.571 69.6198 110.571 69.6037 110.571 69.5876C110.699 69.0883 110.764 68.573 110.764 68.0416C110.764 67.8322 110.764 67.639 110.732 67.4457C110.699 67.027 110.345 66.721 109.927 66.721L109.878 67.3008ZM106.369 62.711C106.047 62.711 105.741 62.9042 105.612 63.2263C105.451 63.6451 105.66 64.1121 106.079 64.257C106.143 64.2731 106.208 64.3053 106.256 64.3375C106.256 64.3375 106.256 64.3375 106.272 64.3375C106.272 64.3375 106.272 64.3375 106.288 64.3375C106.61 64.4986 106.916 64.6918 107.206 64.9012C107.206 64.9012 107.238 64.9173 107.238 64.9334C107.238 64.9334 107.238 64.9334 107.254 64.9495C107.254 64.9495 107.286 64.9656 107.286 64.9817C107.286 64.9817 107.302 64.9978 107.318 65.0139C107.318 65.0139 107.351 65.0461 107.367 65.0461C107.367 65.0461 107.367 65.0461 107.383 65.0622C107.383 65.0622 107.399 65.0783 107.415 65.0944C107.415 65.0944 107.431 65.1106 107.447 65.1267C107.447 65.1267 107.447 65.1267 107.463 65.1428L107.496 65.175C107.657 65.3199 107.85 65.4004 108.059 65.4004C108.268 65.4004 108.478 65.3199 108.639 65.1589C108.945 64.8368 108.945 64.3375 108.639 64.0316L108.558 63.951C108.558 63.951 108.526 63.9188 108.51 63.9188C108.51 63.9188 108.478 63.8866 108.462 63.8705L108.381 63.79C108.381 63.79 108.349 63.7578 108.333 63.7417C108.333 63.7417 108.301 63.7095 108.284 63.7095C107.737 63.2424 107.109 62.872 106.433 62.6144C106.336 62.5822 106.24 62.5661 106.143 62.5661L106.369 62.711Z" fill="#952947"/>
<path d="M245.66 120.896C244.936 120.896 244.211 121.025 243.535 121.267C243.116 121.412 242.907 121.879 243.052 122.297C243.165 122.619 243.487 122.829 243.809 122.829C243.905 122.829 243.986 122.829 244.082 122.78C244.469 122.635 244.871 122.555 245.306 122.523C245.306 122.523 245.306 122.523 245.322 122.523C245.322 122.523 245.322 122.523 245.338 122.523H245.354C245.805 122.523 246.159 122.168 246.159 121.718C246.159 121.267 245.805 120.912 245.354 120.912L245.66 120.896ZM240.959 123.586C240.685 123.586 240.412 123.731 240.267 123.988L240.202 124.085C240.202 124.085 240.186 124.117 240.17 124.133C240.17 124.149 240.154 124.165 240.138 124.181L240.09 124.294C240.09 124.294 240.074 124.326 240.057 124.359C240.057 124.359 240.041 124.391 240.025 124.407C239.703 125.067 239.51 125.76 239.43 126.484C239.381 126.919 239.703 127.322 240.138 127.37C240.17 127.37 240.202 127.37 240.218 127.37C240.621 127.37 240.975 127.064 241.023 126.645C241.056 126.275 241.152 125.921 241.265 125.583C241.265 125.583 241.265 125.583 241.265 125.566C241.265 125.566 241.265 125.566 241.265 125.55C241.297 125.454 241.345 125.373 241.394 125.277C241.394 125.277 241.394 125.244 241.41 125.228C241.41 125.228 241.41 125.212 241.426 125.196C241.426 125.164 241.458 125.148 241.474 125.116C241.474 125.116 241.474 125.083 241.49 125.083C241.49 125.083 241.49 125.051 241.506 125.051C241.506 125.051 241.506 125.035 241.523 125.019C241.523 125.019 241.523 125.003 241.539 124.987C241.764 124.6 241.635 124.101 241.249 123.875C241.12 123.795 240.975 123.763 240.846 123.763L240.959 123.586ZM241.12 129.367C240.959 129.367 240.814 129.415 240.669 129.496C240.299 129.738 240.202 130.237 240.444 130.607L240.508 130.704C240.508 130.704 240.524 130.736 240.54 130.752C240.54 130.768 240.557 130.784 240.573 130.8L240.637 130.897C240.637 130.897 240.669 130.929 240.669 130.945C240.669 130.945 240.685 130.978 240.701 130.994C241.152 131.573 241.684 132.057 242.295 132.443C242.424 132.524 242.585 132.572 242.73 132.572C243.004 132.572 243.261 132.443 243.406 132.201C243.648 131.831 243.535 131.332 243.165 131.09C242.923 130.929 242.682 130.752 242.472 130.543C242.472 130.543 242.472 130.543 242.456 130.527C242.456 130.527 242.456 130.527 242.44 130.511C242.344 130.398 242.231 130.285 242.15 130.172C242.15 130.172 242.134 130.14 242.118 130.14C242.118 130.14 242.118 130.124 242.102 130.108C242.102 130.108 242.086 130.076 242.07 130.06C242.07 130.06 242.054 130.043 242.038 130.027C242.038 130.027 242.038 129.995 242.022 129.995C242.006 129.963 241.989 129.947 241.973 129.915C241.812 129.689 241.555 129.56 241.297 129.56L241.12 129.367ZM248.526 130.994C248.381 130.994 248.236 131.026 248.107 131.106C248.107 131.106 248.091 131.106 248.075 131.122C247.705 131.332 247.318 131.493 246.9 131.606C246.9 131.606 246.884 131.606 246.867 131.606C246.867 131.606 246.851 131.606 246.835 131.606C246.835 131.606 246.787 131.606 246.771 131.606C246.771 131.606 246.739 131.606 246.723 131.606C246.723 131.606 246.69 131.606 246.674 131.606C246.674 131.606 246.642 131.606 246.626 131.606C246.626 131.606 246.594 131.606 246.578 131.606C246.578 131.606 246.546 131.606 246.529 131.606C246.529 131.606 246.529 131.606 246.513 131.606C246.497 131.606 246.481 131.606 246.465 131.606C246.465 131.606 246.465 131.606 246.449 131.606C246.014 131.67 245.692 132.073 245.757 132.507C245.805 132.91 246.143 133.2 246.546 133.2C246.578 133.2 246.626 133.2 246.658 133.2H246.771C246.771 133.2 246.803 133.184 246.835 133.168C246.851 133.168 246.868 133.168 246.9 133.168H247.012C247.012 133.168 247.061 133.136 247.077 133.136C247.093 133.136 247.109 133.136 247.125 133.136C247.833 132.991 248.51 132.717 249.138 132.33C249.524 132.089 249.637 131.606 249.395 131.219C249.25 130.978 248.977 130.833 248.703 130.833L248.526 130.994ZM251.086 125.824C251.086 125.824 251.037 125.824 251.005 125.824C250.57 125.872 250.232 126.259 250.281 126.71C250.281 126.823 250.297 126.935 250.297 127.048V127.064C250.297 127.241 250.264 127.435 250.232 127.612C250.232 127.612 250.2 127.757 250.184 127.821C250.184 127.821 250.184 127.853 250.184 127.869V127.902C250.184 127.934 250.184 127.966 250.152 127.982C250.152 127.982 250.152 128.014 250.152 128.03C250.152 128.03 250.152 128.063 250.152 128.079C250.152 128.079 250.152 128.079 250.152 128.095C250.152 128.111 250.152 128.143 250.136 128.159C249.991 128.578 250.232 129.045 250.651 129.19C250.731 129.222 250.828 129.238 250.908 129.238C251.247 129.238 251.552 129.029 251.665 128.691L251.697 128.578C251.697 128.578 251.697 128.546 251.713 128.514C251.713 128.497 251.713 128.481 251.73 128.449L251.762 128.336C251.762 128.336 251.762 128.288 251.762 128.272C251.762 128.256 251.762 128.24 251.762 128.224C251.891 127.724 251.955 127.209 251.955 126.678C251.955 126.468 251.955 126.275 251.923 126.082C251.89 125.663 251.536 125.357 251.118 125.357L251.086 125.824ZM247.576 121.25C247.254 121.25 246.948 121.444 246.819 121.766C246.658 122.185 246.868 122.652 247.286 122.797C247.367 122.829 247.447 122.861 247.511 122.893C247.511 122.893 247.528 122.893 247.544 122.893C247.544 122.893 247.544 122.893 247.56 122.893C247.56 122.893 247.576 122.893 247.592 122.909C247.689 122.99 247.801 123.054 247.882 123.151C247.882 123.151 247.898 123.167 247.914 123.183C247.914 123.183 247.93 123.199 247.946 123.215C247.946 123.215 247.962 123.215 247.978 123.231C247.978 123.231 247.994 123.247 248.011 123.264C248.011 123.264 248.027 123.28 248.043 123.296C248.043 123.296 248.059 123.312 248.075 123.328C248.091 123.344 248.123 123.376 248.139 123.392C248.3 123.537 248.494 123.618 248.703 123.618C248.912 123.618 249.121 123.537 249.282 123.376C249.588 123.054 249.588 122.555 249.282 122.249L249.202 122.168C249.202 122.168 249.17 122.136 249.154 122.136C249.154 122.136 249.121 122.104 249.105 122.088L249.025 122.007C249.025 122.007 248.993 121.975 248.977 121.959C248.977 121.959 248.944 121.927 248.928 121.927C248.381 121.46 247.753 121.089 247.077 120.832C246.98 120.8 246.884 120.783 246.787 120.783L247.576 121.25Z" fill="#952947"/>
<path d="M86.1478 68.4121H36.6262" stroke="white" stroke-width="2" stroke-linecap="round" stroke-linejoin="round"/>
<path d="M81.6401 62.4373L84.1677 68.412L81.6401 74.3706L95.7593 68.412L81.6401 62.4373Z" fill="white"/>
<mask id="mask1_821_69865" style="mask-type:luminance" maskUnits="userSpaceOnUse" x="24" y="63" width="11" height="11">
<path d="M34.5976 63.5967H24.0686V73.2271H34.5976V63.5967Z" fill="white"/>
</mask>
<g mask="url(#mask1_821_69865)">
<path d="M33.7603 66.8338C33.1968 68.0094 33.2129 69.9258 33.6315 70.4895M33.3256 66.0769C32.0698 66.7694 31.9571 69.8292 32.4884 70.5539M32.4079 66.0286C30.8141 66.2701 30.6048 69.8292 31.2005 70.6344M31.2488 66.0769C29.6549 66.3184 29.4456 69.8775 30.0413 70.6827M30.2345 66.1413C28.6407 66.3829 28.4314 69.9419 29.027 70.7472M29.2041 66.1896C27.6103 66.4312 27.401 69.9903 27.9967 70.7955M28.1899 66.254C26.596 66.4956 26.3867 70.0547 26.9824 70.8599" stroke="#B5B5B6" stroke-width="0.31" stroke-linecap="round" stroke-linejoin="round"/>
<path d="M26.2903 63.8062C25.1472 63.8062 25.2599 73.0018 26.1937 73.0018" stroke="#231815" stroke-width="0.15" stroke-linecap="round" stroke-linejoin="round"/>
<path d="M26.741 70.715H34.0662M26.741 66.1091H34.0662M26.1936 73.0018H25.0184C24.0846 73.0018 23.9719 63.8062 25.115 63.8062H26.2902M26.2097 73.0018C26.58 73.0018 26.8215 72.0194 26.9503 70.6988M26.9503 66.1091C26.8376 64.7885 26.6122 63.8223 26.3063 63.8062" stroke="#231815" stroke-width="0.41" stroke-linecap="round" stroke-linejoin="round"/>
<path d="M26.741 66.1091C26.2902 66.1091 26.3224 70.715 26.6927 70.715" stroke="#231815" stroke-width="0.15" stroke-linecap="round" stroke-linejoin="round"/>
<path d="M34.0662 70.715C34.5169 70.715 34.4847 66.1091 34.1145 66.1091" stroke="#231815" stroke-width="0.41" stroke-linecap="round" stroke-linejoin="round"/>
<path d="M34.1146 66.093C33.6638 66.093 33.696 70.6989 34.0663 70.6989" stroke="#231815" stroke-width="0.15" stroke-linecap="round" stroke-linejoin="round"/>
</g>
<path d="M88.0798 68.4121H36.6262" stroke="#231815" stroke-linecap="round" stroke-linejoin="round"/>
<path d="M85.375 64.8208L86.8883 68.4121L85.375 71.9873L93.8433 68.4121L85.375 64.8208Z" fill="#231815"/>
<path d="M263.981 126.968H313.503" stroke="white" stroke-width="2" stroke-linecap="round" stroke-linejoin="round"/>
<path d="M268.505 132.926L265.961 126.968L268.505 120.993L254.37 126.968L268.505 132.926Z" fill="white"/>
<mask id="mask2_821_69865" style="mask-type:luminance" maskUnits="userSpaceOnUse" x="315" y="122" width="12" height="10">
<path d="M326.06 122.152H315.531V131.783H326.06V122.152Z" fill="white"/>
</mask>
<g mask="url(#mask2_821_69865)">
<path d="M316.385 128.546C316.948 127.37 316.932 125.454 316.513 124.89M316.803 129.287C318.059 128.594 318.172 125.534 317.64 124.81M317.721 129.351C319.315 129.11 319.524 125.55 318.928 124.745M318.896 129.287C320.49 129.045 320.699 125.486 320.103 124.681M319.91 129.222C321.504 128.981 321.713 125.422 321.118 124.616M320.925 129.174C322.518 128.932 322.728 125.373 322.132 124.568M321.939 129.11C323.533 128.868 323.742 125.309 323.146 124.504" stroke="#B5B5B6" stroke-width="0.31" stroke-linecap="round" stroke-linejoin="round"/>
<path d="M323.855 131.557C324.998 131.557 324.885 122.362 323.951 122.362" stroke="#231815" stroke-width="0.15" stroke-linecap="round" stroke-linejoin="round"/>
<path d="M323.404 124.665H316.079M323.404 129.271H316.079M325.11 122.362H323.935M323.855 131.557H325.03C326.173 131.557 326.06 122.362 325.126 122.362M323.919 122.362C323.549 122.362 323.307 123.344 323.178 124.665M323.195 129.271C323.307 130.591 323.533 131.557 323.838 131.574" stroke="#231815" stroke-width="0.41" stroke-linecap="round" stroke-linejoin="round"/>
<path d="M323.388 129.271C323.838 129.271 323.806 124.665 323.436 124.665" stroke="#231815" stroke-width="0.15" stroke-linecap="round" stroke-linejoin="round"/>
<path d="M316.079 124.665C315.628 124.665 315.66 129.271 316.03 129.271" stroke="#231815" stroke-width="0.41" stroke-linecap="round" stroke-linejoin="round"/>
<path d="M316.014 129.271C316.465 129.271 316.433 124.665 316.062 124.665" stroke="#231815" stroke-width="0.15" stroke-linecap="round" stroke-linejoin="round"/>
</g>
<path d="M262.049 126.968H313.503" stroke="#231815" stroke-linecap="round" stroke-linejoin="round"/>
<path d="M264.77 130.543L263.241 126.968L264.77 123.393L256.286 126.968L264.77 130.543Z" fill="#231815"/>
</g>
</svg>
