<svg xmlns="http://www.w3.org/2000/svg" width="420" height="67" fill="none" viewBox="0 0 420 67"><path fill="#fff" d="M0 0h420v67H0z"/><path fill="#898989" d="M32.81 45.82c6.58-4.68 14.92-6.16 22.74-7.44 8.7-1.43 17.52-2.07 26.33-1.98 1.29.01 1.29-1.99 0-2a157 157 0 0 0-26.87 2.05c-7.98 1.31-16.49 2.86-23.22 7.64-1.04.74-.04 2.47 1.01 1.73z"/><path fill="#ffe100" d="M32.68 40.77c17.38-4.71 35.2-7.92 53.27-7.01 1.29.06 1.28-1.94 0-2-18.24-.92-36.26 2.32-53.8 7.08-1.24.34-.71 2.27.53 1.93"/><path fill="#0068b7" d="M32.41 34.78c9.18.28 18.25-1.28 27.41-1.48 9.4-.21 18.79.39 28.13 1.31 1.28.13 1.27-1.87 0-2-9.35-.92-18.74-1.52-28.13-1.31-9.17.2-18.24 1.76-27.41 1.48-1.29-.04-1.29 1.96 0 2"/><path fill="url(#a)" d="M32.43 29.2c4.17 1.36 8.55 1.8 12.89 2.24l13.93 1.44c9.57.99 19.13 1.96 28.71 2.89 1.28.12 1.27-1.88 0-2-9.41-.91-18.81-1.87-28.21-2.84-4.49-.46-8.99-.93-13.48-1.39s-8.99-.87-13.31-2.27c-1.23-.4-1.75 1.53-.53 1.93"/><path fill="url(#b)" d="M32.43 23.8c8.12 3.4 16.58 5.26 25.17 7.03 8.52 1.75 17.17 3.98 25.93 3.78 1.29-.03 1.29-2.03 0-2-8.74.19-17.36-2.06-25.87-3.81-8.44-1.73-16.73-3.6-24.7-6.93-1.19-.5-1.7 1.44-.53 1.93"/><path fill="#fff" d="M20 47.12h10.57v1.76h1.84V18.77h-1.84v1.76H20z"/><path stroke="#000" stroke-linecap="round" stroke-linejoin="round" stroke-width=".25" d="M21.76 20.78v1.68h1.77v1.76h-1.77v3.53h1.77v1.83h-1.77v3.45h1.77v1.76h-1.77v3.6h1.77v1.76h-1.77v3.52h1.77v1.7h-1.77v1.75"/><path stroke="#000" stroke-linecap="round" stroke-linejoin="round" stroke-width=".5" d="M20 47.12h10.57v1.76h1.84V18.77h-1.84v1.76H20z"/><path stroke="#000" stroke-linecap="round" stroke-linejoin="round" stroke-width=".25" d="M30.57 47.12V20.53M28.81 47.12v-.84h-4.36v-3.6h4.36V41h-4.36v-3.6h4.36v-1.77h-4.36v-3.44h4.36v-1.76h-4.36v-3.6h4.36v-1.69h-4.36v-3.52h4.36v-.84"/><path fill="url(#c)" d="M309.91 30.53H67.68v7h242.23z"/><path fill="#898989" d="M362.24 48.87c-6.58-4.68-20.36-8.89-28.17-10.17-8.7-1.43-17.52-2.07-26.33-1.98-1.29.01-1.29-1.99 0-2 9-.09 17.99.6 26.87 2.05 7.98 1.31 21.93 5.6 28.65 10.38 1.04.74.04 2.47-1.01 1.73z"/><path fill="#ffe100" d="M362.37 43.83c-17.38-4.71-40.63-10.65-58.7-9.74-1.29.06-1.28-1.94 0-2 18.24-.92 41.69 5.06 59.23 9.81 1.24.34.71 2.27-.53 1.93"/><path fill="#0068b7" d="M362.64 37.83c-9.18.28-23.68-4.01-32.85-4.21-9.4-.21-18.79.39-28.13 1.31-1.28.13-1.27-1.87 0-2 9.35-.92 18.74-1.52 28.13-1.31 9.17.2 23.67 4.5 32.85 4.21 1.29-.04 1.29 1.96 0 2"/><path fill="url(#d)" d="M362.3 25.21c-4.17 1.36-9.72 3.79-14.39 4.95-4.53 1.12-12.9 2.56-17.55 3.04-9.57.99-19.13 1.96-28.71 2.89-1.28.12-1.27-1.88 0-2 9.41-.91 18.81-1.87 28.21-2.84 4.49-.46 12.74-1.79 17.09-3 5.02-1.39 10.18-3.31 14.81-4.98 1.21-.44 1.75 1.53.53 1.93z"/><path fill="url(#e)" d="M362.3 19.81c-8.12 3.4-21.69 9.57-30.29 11.34-8.52 1.75-17.17 3.98-25.93 3.78-1.29-.03-1.29-2.03 0-2 8.74.19 17.36-2.06 25.87-3.81 8.44-1.73 21.84-7.91 29.82-11.24 1.19-.5 1.7 1.44.53 1.93"/><path fill="#fff" stroke="#000" stroke-miterlimit="10" stroke-width=".5" d="M360.52 49.07h32.56V34.71h-32.56z"/><path stroke="#000" stroke-miterlimit="10" stroke-width=".5" d="M377.23 36.96h15.85v-2.25h-15.85zM377.23 49.07h15.85v-2.25h-15.85z"/><path fill="#fff" stroke="#000" stroke-miterlimit="10" stroke-width=".5" d="M381.92 44.22h5.15v1.2h6.01v-7.07h-6.01v1.2h-5.15z"/><path fill="#fff" stroke="#000" stroke-miterlimit="10" stroke-width=".5" d="M393.08 43.13v2.29h6.16v-7.07h-6.16v2.3h-9.46v2.48z"/><path stroke="#000" stroke-miterlimit="10" stroke-width=".5" d="M393.08 35.52v12.74h4.5v.81h1.66V34.71h-1.66v.81z"/><path fill="url(#f)" d="M328.21 28.89h-17.82v10.29h17.82z"/><path fill="url(#g)" d="M310.39 27.37h-17.82v13.32h17.82z"/><path fill="#fff" stroke="#000" stroke-miterlimit="10" stroke-width=".5" d="M360.52 27.22h32.56V17h-32.56z"/><path stroke="#000" stroke-miterlimit="10" stroke-width=".5" d="M377.23 18.6h15.85V17h-15.85zM377.23 27.22h15.85v-1.6h-15.85z"/><path fill="#fff" stroke="#000" stroke-miterlimit="10" stroke-width=".5" d="M381.92 23.77h5.15v.86h6.01v-5.04h-6.01v.86h-5.15z"/><path fill="#fff" stroke="#000" stroke-miterlimit="10" stroke-width=".5" d="M393.08 23v1.63h6.16v-5.04h-6.16v1.64h-9.46V23z"/><path stroke="#000" stroke-miterlimit="10" stroke-width=".5" d="M393.08 17.57v9.08h4.5v.57h1.66V17h-1.66v.57z"/><defs><linearGradient id="a" x1="60.44" x2="59.92" y1="30.75" y2="34.31" gradientUnits="userSpaceOnUse"><stop stop-color="#231815"/><stop offset=".34" stop-color="#595757"/><stop offset=".67"/><stop offset="1" stop-color="#595757"/></linearGradient><linearGradient id="b" x1="58.16" x2="57.19" y1="28.09" y2="31.72" gradientUnits="userSpaceOnUse"><stop stop-color="#e60012"/><stop offset=".34" stop-color="#b60005"/><stop offset=".67" stop-color="#e60012"/><stop offset="1" stop-color="#b60005"/></linearGradient><linearGradient id="c" x1="188.79" x2="188.79" y1="27.95" y2="41.57" gradientUnits="userSpaceOnUse"><stop stop-color="#231815"/><stop offset=".34" stop-color="#595757"/><stop offset=".67"/><stop offset="1" stop-color="#595757"/></linearGradient><linearGradient id="d" x1="331.74" x2="332.43" y1="28.97" y2="33.73" gradientUnits="userSpaceOnUse"><stop stop-color="#231815"/><stop offset=".34" stop-color="#595757"/><stop offset=".67"/><stop offset="1" stop-color="#595757"/></linearGradient><linearGradient id="e" x1="334.3" x2="335.24" y1="27.35" y2="30.86" gradientUnits="userSpaceOnUse"><stop stop-color="#e60012"/><stop offset=".34" stop-color="#b60005"/><stop offset=".67" stop-color="#e60012"/><stop offset="1" stop-color="#b60005"/></linearGradient><linearGradient id="f" x1="319.3" x2="319.3" y1="28.19" y2="40.25" gradientUnits="userSpaceOnUse"><stop stop-color="#231815"/><stop offset=".34" stop-color="#595757"/><stop offset=".67"/><stop offset="1" stop-color="#595757"/></linearGradient><linearGradient id="g" x1="301.48" x2="301.48" y1="41.91" y2="25.88" gradientUnits="userSpaceOnUse"><stop stop-color="#231815"/><stop offset=".34" stop-color="#595757"/><stop offset=".67"/><stop offset="1" stop-color="#595757"/></linearGradient></defs></svg>