<svg xmlns="http://www.w3.org/2000/svg" width="585" height="331" fill="none" viewBox="0 0 585 331"><path fill="#fff" d="M0 0h585v331H0z"/><path fill="#000" d="M199.52 65.346h-57.78v-4h57.78c15.96 0 22.86-2.15 35.13-10.96 13.06-9.37 44.06-6.28 45.37-6.14l-.41 3.98c-.31-.03-30.8-3.08-42.63 5.41-12.96 9.3-20.66 11.71-37.46 11.71M266.96 92.396c-10.44 0-24.55-1.16-32.31-6.74-12.27-8.81-19.17-10.96-35.13-10.96h-57.78v-4h57.78c16.8 0 24.5 2.41 37.46 11.71 11.84 8.5 42.32 5.45 42.63 5.41l.41 3.98c-.53.06-5.94.6-13.06.6M323.69 92.396c-7.12 0-12.53-.54-13.06-.6l.41-3.98c.31.03 30.8 3.08 42.63-5.41 12.96-9.3 20.66-11.71 37.46-11.71h57.78v4h-57.78c-15.96 0-22.86 2.15-35.13 10.96-7.77 5.57-21.88 6.74-32.31 6.74"/><path fill="#cfcfcf" stroke="#000" stroke-miterlimit="10" stroke-width=".78" d="M293.47 86.786h-2.2v6.79h2.2z"/><path fill="#5c5c5a" stroke="#000" stroke-miterlimit="10" stroke-width=".78" d="M291.28 85.897h-11.75v8.56h11.75z"/><path fill="#5c5c5a" stroke="#000" stroke-miterlimit="10" stroke-width=".78" d="m268.41 85.526-2.43 1.68v5.94l2.43 1.68h11.12v-9.3zM255.75 92.596l10.23.55v-5.94l-10.23.55z"/><path stroke="#000" stroke-miterlimit="10" stroke-width=".4" d="m255.75 92.596 1.55.08v-2.02h.79v2.07l.98.05v-2.12h.79v2.16l.98.05v-2.22h.79v2.26l.98.05v-2.31h.79v2.36l2.57.14v-5.95l-10.23.56v4.83zm8.64-1.94h.79v2.45l-.79-.04zm0-3.37.79-.04v2.3h-.79zm-1.77.1.79-.04v2.2h-.79zm-1.77.1.79-.04v2.11h-.79v-2.07Zm-1.78.09.79-.04v2.01h-.79zm-1.77.1.79-.04v1.91h-.79z"/><path fill="#cfcfcf" stroke="#000" stroke-miterlimit="10" stroke-width=".78" d="M295.68 86.786h-2.2v6.79h2.2z"/><path fill="#5c5c5a" stroke="#000" stroke-miterlimit="10" stroke-width=".78" d="M307.43 85.897h-11.75v8.56h11.75z"/><path fill="#5c5c5a" stroke="#000" stroke-miterlimit="10" stroke-width=".78" d="m318.54 94.826 2.43-1.68v-5.94l-2.43-1.68h-11.12v9.3z"/><path fill="#5c5c5a" stroke="#000" stroke-miterlimit="10" stroke-width=".78" d="m331.2 87.756-10.23-.55v5.94l10.23-.55z"/><path stroke="#000" stroke-miterlimit="10" stroke-width=".4" d="m331.2 87.756-1.55-.08v2.02h-.79v-2.07l-.98-.05v2.12h-.79v-2.16l-.98-.05v2.22h-.79v-2.26l-.98-.05v2.31h-.79v-2.36l-2.57-.14v5.95l10.23-.56v-4.83zm-8.64 1.94h-.79v-2.45l.79.04zm0 3.37-.79.04v-2.3h.79zm1.77-.1-.79.04v-2.2h.79zm1.77-.1-.79.04v-2.11h.79v2.07Zm1.78-.09-.79.04v-2.01h.79zm1.77-.1-.79.04v-1.91h.79z"/><path fill="#000" d="M269.08 66.026H141.41v4h127.67zM446.87 65.896H319.2v4h127.67z"/><path fill="#cfcfcf" stroke="#000" stroke-miterlimit="10" stroke-width=".78" d="M293.47 64.506h-2.2v6.79h2.2z"/><path fill="#fff" stroke="#000" stroke-miterlimit="10" stroke-width=".78" d="M291.28 63.617h-11.75v8.56h11.75z"/><path fill="#fff" stroke="#000" stroke-miterlimit="10" stroke-width=".78" d="m268.41 63.246-2.43 1.68v5.95l2.43 1.67h11.12v-9.3zM255.75 70.316l10.23.56v-5.95l-10.23.56z"/><path stroke="#000" stroke-miterlimit="10" stroke-width=".4" d="m255.75 70.316 1.55.08v-2.02h.79v2.07l.98.05v-2.12h.79v2.16l.98.05v-2.22h.79v2.26l.98.05v-2.31h.79v2.36l2.57.14v-5.95l-10.23.56v4.83zm8.64-1.94h.79v2.45l-.79-.04zm0-3.37.79-.04v2.3h-.79zm-1.77.1.79-.04v2.2h-.79zm-1.77.1.79-.04v2.11h-.79v-2.07Zm-1.78.09.79-.04v2.01h-.79zm-1.77.1.79-.04v1.91h-.79z"/><path fill="#cfcfcf" stroke="#000" stroke-miterlimit="10" stroke-width=".78" d="M295.78 64.506h-2.2v6.79h2.2z"/><path fill="#fff" stroke="#000" stroke-miterlimit="10" stroke-width=".78" d="M307.53 63.617h-11.75v8.56h11.75z"/><path fill="#fff" stroke="#000" stroke-miterlimit="10" stroke-width=".78" d="m318.64 72.546 2.43-1.67v-5.95l-2.43-1.68h-11.12v9.3zM331.3 65.486l-10.23-.56v5.95l10.23-.56z"/><path stroke="#000" stroke-miterlimit="10" stroke-width=".4" d="m331.3 65.486-1.55-.08v2.02h-.79v-2.07l-.98-.05v2.12h-.79v-2.16l-.98-.05v2.22h-.79v-2.26l-.98-.05v2.31h-.79v-2.36l-2.57-.14v5.95l10.23-.56v-4.83zm-8.64 1.93h-.79v-2.45l.79.04zm0 3.37-.79.04v-2.3h.79zm1.77-.1-.79.04v-2.2h.79zm1.77-.09-.79.04v-2.11h.79v2.07Zm1.78-.1-.79.04v-2.01h.79zm1.77-.1-.79.04v-1.91h.79z"/><path stroke="#231815" stroke-miterlimit="10" stroke-width="2" d="M277.13 47.126h4.81c1.93 0 6.44 2.74 8.44 3.63s8.15.52 8.15.52"/><path stroke="#e50012" stroke-miterlimit="10" stroke-width="2" d="M277.13 45.346h4.81c1.93 0 6.44-2.74 8.44-3.63s8.15-.52 8.15-.52"/><path fill="#fff" stroke="#000" stroke-miterlimit="10" stroke-width=".78" d="M260.84 51.356h16.28v-10.22h-16.28zM277.14 41.706v9.07h2.3v.57h1.67v-10.22h-1.67v.58z"/><path stroke="#e50012" stroke-miterlimit="10" stroke-width="2" d="M323.14 45.226h-4.81c-1.93 0-6.44-2.74-8.44-3.63s-8.15-.52-8.15-.52"/><path stroke="#231815" stroke-miterlimit="10" stroke-width="2" d="M323.14 47.006h-4.81c-1.93 0-6.44 2.74-8.44 3.63s-8.15.52-8.15.52"/><path stroke="#555" stroke-linecap="round" stroke-miterlimit="10" stroke-width="3" d="M297.7 41.006h8.07M297.7 51.476h8.07"/><path fill="#000" d="M388.65 65.266c-17.27 0-24.69-3.59-35.05-11.79-6.3-4.98-27.54-5.54-35.19-5.35l-.1-4c1.18-.03 29.07-.68 37.78 6.21 10.53 8.33 17.41 11.24 35.02 10.9 16.28-.3 57.42 0 57.83 0l-.03 4c-.41 0-41.5-.3-57.73 0-.86.02-1.7.02-2.52.02z"/><path fill="#fff" stroke="#231815" stroke-miterlimit="10" d="M142.91 46.236H47.83a2.83 2.83 0 0 0-2.83 2.83v36.71a2.83 2.83 0 0 0 2.83 2.83h95.08a2.83 2.83 0 0 0 2.83-2.83v-36.71a2.83 2.83 0 0 0-2.83-2.83Z"/><path fill="#000" d="M66.58 61.506c-1.07 0-1.89.4-2.48 1.2-.58.8-.88 1.92-.88 3.35 0 2.98 1.12 4.47 3.35 4.47.94 0 2.08-.23 3.41-.7v2.38c-1.1.46-2.32.69-3.67.69-1.94 0-3.43-.59-4.46-1.77s-1.54-2.87-1.54-5.08c0-1.39.25-2.61.76-3.65s1.23-1.85 2.18-2.4q1.425-.84 3.33-.84c1.27 0 2.6.31 3.91.94l-.91 2.3c-.5-.24-1-.45-1.51-.62-.51-.18-1-.26-1.49-.26zM79.1 72.706l-.54-1.39h-.07c-.47.59-.95 1-1.45 1.23s-1.14.34-1.94.34c-.98 0-1.75-.28-2.32-.84s-.85-1.36-.85-2.39.38-1.88 1.14-2.4c.76-.51 1.9-.8 3.43-.85l1.77-.05v-.45c0-1.04-.53-1.55-1.59-1.55-.82 0-1.78.25-2.88.74l-.92-1.88c1.18-.62 2.48-.92 3.91-.92s2.42.3 3.15.9 1.1 1.5 1.1 2.72v6.81h-1.95zm-.82-4.74-1.08.04c-.81.02-1.41.17-1.81.44s-.59.68-.59 1.22c0 .79.45 1.18 1.35 1.18.65 0 1.16-.19 1.55-.56s.58-.87.58-1.48zM93.07 72.706h-2.79v-5.97c0-.74-.12-1.29-.37-1.66s-.64-.55-1.17-.55c-.71 0-1.23.26-1.55.79-.32.52-.48 1.39-.48 2.59v4.81h-2.79v-10.22h2.13l.38 1.31h.16c.27-.47.67-.84 1.19-1.1s1.11-.4 1.78-.4c1.53 0 2.56.5 3.11 1.5h.25c.27-.48.68-.84 1.21-1.11.53-.26 1.14-.39 1.81-.39 1.16 0 2.03.3 2.63.89.59.59.89 1.55.89 2.86v6.66h-2.8v-5.97c0-.74-.12-1.29-.37-1.66s-.64-.55-1.17-.55c-.68 0-1.19.24-1.53.73s-.51 1.26-.51 2.32v5.13zM106.92 72.886c-1.65 0-2.93-.45-3.86-1.36s-1.39-2.19-1.39-3.86.43-3.04 1.28-3.97c.86-.93 2.04-1.4 3.55-1.4s2.57.41 3.37 1.23 1.21 1.96 1.21 3.41v1.35h-6.59c.03.79.27 1.41.7 1.86.44.45 1.05.67 1.85.67.62 0 1.2-.06 1.75-.19s1.12-.33 1.72-.61v2.16q-.735.36-1.56.54c-.55.12-1.23.18-2.03.18zm-.39-8.61c-.59 0-1.05.19-1.39.56-.33.38-.53.91-.58 1.6h3.91c-.01-.69-.19-1.22-.54-1.6-.35-.37-.82-.56-1.41-.56zM119.06 62.296c.38 0 .69.03.94.08l-.21 2.61c-.23-.06-.5-.09-.82-.09-.89 0-1.58.23-2.08.69q-.75.69-.75 1.92v5.2h-2.79v-10.22h2.11l.41 1.72h.14c.32-.57.75-1.03 1.28-1.38s1.13-.53 1.76-.53zM128.16 72.706l-.54-1.39h-.07c-.47.59-.95 1-1.45 1.23s-1.14.34-1.94.34c-.98 0-1.75-.28-2.32-.84s-.85-1.36-.85-2.39.38-1.88 1.14-2.4c.76-.51 1.9-.8 3.43-.85l1.77-.05v-.45c0-1.04-.53-1.55-1.59-1.55-.82 0-1.78.25-2.88.74l-.92-1.88c1.18-.62 2.48-.92 3.91-.92s2.42.3 3.15.9 1.1 1.5 1.1 2.72v6.81h-1.95zm-.82-4.74-1.08.04c-.81.02-1.41.17-1.81.44s-.59.68-.59 1.22c0 .79.45 1.18 1.35 1.18.65 0 1.16-.19 1.55-.56s.58-.87.58-1.48z"/><path fill="#fff" stroke="#231815" stroke-miterlimit="10" d="M537.13 46.236h-95.08a2.83 2.83 0 0 0-2.83 2.83v36.71a2.83 2.83 0 0 0 2.83 2.83h95.08a2.83 2.83 0 0 0 2.83-2.83v-36.71a2.83 2.83 0 0 0-2.83-2.83Z"/><path fill="#000" d="M465.25 68.996c0 1.21-.43 2.16-1.3 2.85-.87.7-2.08 1.04-3.62 1.04-1.43 0-2.69-.27-3.78-.8v-2.63c.9.4 1.67.69 2.29.85s1.2.25 1.71.25c.62 0 1.1-.12 1.43-.36s.5-.59.5-1.06c0-.26-.07-.5-.22-.7s-.36-.4-.64-.59-.86-.49-1.73-.91c-.82-.38-1.43-.75-1.84-1.11s-.73-.76-.98-1.23c-.24-.47-.37-1.02-.37-1.64q0-1.77 1.2-2.79c.8-.68 1.91-1.01 3.32-1.01.69 0 1.36.08 1.99.25.63.16 1.29.4 1.98.69l-.91 2.2c-.71-.29-1.3-.5-1.77-.61-.47-.12-.92-.17-1.38-.17-.54 0-.95.12-1.23.38s-.43.58-.43.98c0 .25.06.47.17.65.12.19.3.37.55.54s.85.49 1.8.94c1.25.6 2.11 1.2 2.57 1.8s.69 1.34.69 2.21zM465.99 62.486h3.05l1.93 5.75c.16.5.28 1.09.34 1.77h.05q.105-.945.39-1.77l1.89-5.75h2.99l-4.32 11.53c-.4 1.07-.96 1.87-1.7 2.4-.73.53-1.59.79-2.57.79-.48 0-.95-.05-1.42-.16v-2.21c.33.08.7.12 1.1.12q.735 0 1.29-.45c.37-.3.66-.76.86-1.37l.16-.5-4.06-10.15zM485.23 69.666c0 1.05-.36 1.85-1.09 2.39-.73.55-1.82.82-3.27.82-.74 0-1.38-.05-1.9-.15s-1.01-.25-1.47-.44v-2.3c.52.24 1.1.45 1.75.61.65.17 1.22.25 1.71.25 1.01 0 1.52-.29 1.52-.88 0-.22-.07-.4-.2-.54s-.37-.29-.69-.47-.77-.38-1.32-.61c-.79-.33-1.36-.63-1.73-.91s-.64-.6-.8-.96c-.17-.36-.25-.81-.25-1.34 0-.91.35-1.61 1.06-2.11.7-.5 1.7-.75 2.99-.75s2.43.27 3.59.8l-.84 2.01q-.765-.33-1.44-.54c-.44-.14-.9-.21-1.36-.21-.82 0-1.23.22-1.23.67 0 .25.13.47.4.65q.405.27 1.74.81c.8.32 1.38.62 1.75.9s.65.6.82.97c.18.37.26.8.26 1.31zM491.71 70.666c.49 0 1.07-.11 1.75-.32v2.08c-.69.31-1.55.47-2.56.47-1.12 0-1.93-.28-2.44-.85-.51-.56-.76-1.41-.76-2.54v-4.93h-1.33v-1.18l1.54-.93.8-2.16h1.78v2.17h2.86v2.09h-2.86v4.93c0 .4.11.69.33.88s.52.28.88.28zM500.15 72.886c-1.65 0-2.93-.45-3.86-1.36s-1.39-2.19-1.39-3.86.43-3.04 1.28-3.97c.86-.93 2.04-1.4 3.55-1.4s2.57.41 3.37 1.23 1.21 1.96 1.21 3.41v1.35h-6.59c.03.79.27 1.41.7 1.86.44.45 1.05.67 1.85.67.62 0 1.2-.06 1.75-.19s1.12-.33 1.72-.61v2.16q-.735.36-1.56.54c-.55.12-1.23.18-2.03.18zm-.39-8.61c-.59 0-1.05.19-1.39.56-.33.38-.53.91-.58 1.6h3.91c-.01-.69-.19-1.22-.54-1.6-.35-.37-.82-.56-1.41-.56zM515.74 72.706h-2.79v-5.97c0-.74-.12-1.29-.37-1.66s-.63-.55-1.17-.55c-.71 0-1.23.26-1.55.79-.32.52-.48 1.39-.48 2.59v4.81h-2.79v-10.22h2.13l.38 1.31h.16c.27-.47.67-.84 1.19-1.1s1.11-.4 1.78-.4c1.53 0 2.56.5 3.11 1.5h.25c.27-.48.68-.84 1.21-1.11.53-.26 1.14-.39 1.81-.39 1.16 0 2.03.3 2.63.89.59.59.89 1.55.89 2.86v6.66h-2.8v-5.97c0-.74-.12-1.29-.37-1.66s-.63-.55-1.17-.55c-.68 0-1.19.24-1.53.73s-.51 1.26-.51 2.32v5.13zM199.52 157.836h-57.78v-4h57.78c15.96 0 22.86-2.15 35.13-10.96 13.06-9.37 44.06-6.28 45.37-6.14l-.41 3.98c-.31-.03-30.8-3.08-42.63 5.41-12.96 9.3-20.66 11.71-37.46 11.71M266.96 184.886c-10.44 0-24.55-1.16-32.31-6.74-12.27-8.81-19.17-10.96-35.13-10.96h-57.78v-4h57.78c16.8 0 24.5 2.41 37.46 11.71 11.84 8.5 42.32 5.45 42.63 5.41l.41 3.98c-.53.06-5.94.6-13.06.6M323.69 184.886c-7.12 0-12.53-.54-13.06-.6l.41-3.98c.31.03 30.8 3.08 42.63-5.41 12.96-9.3 20.66-11.71 37.46-11.71h57.78v4h-57.78c-15.96 0-22.86 2.15-35.13 10.96-7.77 5.57-21.88 6.74-32.31 6.74"/><path fill="#cfcfcf" stroke="#000" stroke-miterlimit="10" stroke-width=".78" d="M293.47 179.266h-2.2v6.79h2.2z"/><path fill="#5c5c5a" stroke="#000" stroke-miterlimit="10" stroke-width=".78" d="M291.28 178.386h-11.75v8.56h11.75z"/><path fill="#5c5c5a" stroke="#000" stroke-miterlimit="10" stroke-width=".78" d="m268.41 178.016-2.43 1.67v5.95l2.43 1.68h11.12v-9.3zM255.75 185.076l10.23.56v-5.95l-10.23.56z"/><path stroke="#000" stroke-miterlimit="10" stroke-width=".4" d="m255.75 185.076 1.55.08v-2.02h.79v2.07l.98.05v-2.12h.79v2.16l.98.05v-2.22h.79v2.26l.98.05v-2.31h.79v2.36l2.57.14v-5.95l-10.23.56v4.83zm8.64-1.93h.79v2.45l-.79-.04zm0-3.37.79-.04v2.3h-.79zm-1.77.1.79-.04v2.2h-.79zm-1.77.09.79-.04v2.11h-.79v-2.07Zm-1.78.1.79-.04v2.01h-.79zm-1.77.1.79-.04v1.91h-.79z"/><path fill="#cfcfcf" stroke="#000" stroke-miterlimit="10" stroke-width=".78" d="M295.68 179.266h-2.2v6.79h2.2z"/><path fill="#5c5c5a" stroke="#000" stroke-miterlimit="10" stroke-width=".78" d="M307.43 178.386h-11.75v8.56h11.75z"/><path fill="#5c5c5a" stroke="#000" stroke-miterlimit="10" stroke-width=".78" d="m318.54 187.316 2.43-1.68v-5.95l-2.43-1.67h-11.12v9.3z"/><path fill="#5c5c5a" stroke="#000" stroke-miterlimit="10" stroke-width=".78" d="m331.2 180.246-10.23-.56v5.95l10.23-.56z"/><path stroke="#000" stroke-miterlimit="10" stroke-width=".4" d="m331.2 180.246-1.55-.08v2.02h-.79v-2.07l-.98-.05v2.12h-.79v-2.16l-.98-.05v2.22h-.79v-2.26l-.98-.05v2.31h-.79v-2.36l-2.57-.14v5.95l10.23-.56v-4.83zm-8.64 1.94h-.79v-2.45l.79.04zm0 3.36-.79.04v-2.3h.79zm1.77-.09-.79.04v-2.2h.79zm1.77-.1-.79.04v-2.11h.79v2.07Zm1.78-.1-.79.04v-2.01h.79zm1.77-.09-.79.04v-1.91h.79z"/><path fill="#000" d="M269.08 158.516H141.41v4h127.67zM446.87 158.386H319.2v4h127.67z"/><path fill="#cfcfcf" stroke="#000" stroke-miterlimit="10" stroke-width=".78" d="M293.47 156.996h-2.2v6.79h2.2z"/><path fill="#fff" stroke="#000" stroke-miterlimit="10" stroke-width=".78" d="M291.28 156.106h-11.75v8.56h11.75z"/><path fill="#fff" stroke="#000" stroke-miterlimit="10" stroke-width=".78" d="m268.41 155.736-2.43 1.68v5.94l2.43 1.68h11.12v-9.3zM255.75 162.806l10.23.55v-5.94l-10.23.55z"/><path stroke="#000" stroke-miterlimit="10" stroke-width=".4" d="m255.75 162.806 1.55.08v-2.02h.79v2.07l.98.05v-2.12h.79v2.16l.98.05v-2.22h.79v2.26l.98.05v-2.31h.79v2.36l2.57.14v-5.95l-10.23.56v4.83zm8.64-1.94h.79v2.45l-.79-.04zm0-3.37.79-.04v2.3h-.79zm-1.77.1.79-.04v2.2h-.79zm-1.77.1.79-.04v2.11h-.79v-2.07Zm-1.78.09.79-.04v2.01h-.79zm-1.77.1.79-.04v1.91h-.79z"/><path fill="#cfcfcf" stroke="#000" stroke-miterlimit="10" stroke-width=".78" d="M295.78 156.996h-2.2v6.79h2.2z"/><path fill="#fff" stroke="#000" stroke-miterlimit="10" stroke-width=".78" d="M307.53 156.106h-11.75v8.56h11.75z"/><path fill="#fff" stroke="#000" stroke-miterlimit="10" stroke-width=".78" d="m318.64 165.036 2.43-1.68v-5.94l-2.43-1.68h-11.12v9.3zM331.3 157.966l-10.23-.55v5.94l10.23-.55z"/><path stroke="#000" stroke-miterlimit="10" stroke-width=".4" d="m331.3 157.966-1.55-.08v2.02h-.79v-2.07l-.98-.05v2.12h-.79v-2.16l-.98-.05v2.22h-.79v-2.26l-.98-.05v2.31h-.79v-2.36l-2.57-.14v5.95l10.23-.56v-4.83zm-8.64 1.94h-.79v-2.45l.79.04zm0 3.37-.79.04v-2.3h.79zm1.77-.1-.79.04v-2.2h.79zm1.77-.1-.79.04v-2.11h.79v2.07Zm1.78-.09-.79.04v-2.01h.79zm1.77-.1-.79.04v-1.91h.79z"/><path stroke="#231815" stroke-miterlimit="10" stroke-width="2" d="M277.13 139.616h4.81c1.93 0 6.44 2.74 8.44 3.63s8.15.52 8.15.52"/><path stroke="#e50012" stroke-miterlimit="10" stroke-width="2" d="M277.13 137.836h4.81c1.93 0 6.44-2.74 8.44-3.63s8.15-.52 8.15-.52"/><path fill="#fff" stroke="#000" stroke-miterlimit="10" stroke-width=".78" d="M260.84 143.836h16.28v-10.22h-16.28zM277.14 134.186v9.08h2.3v.57h1.67v-10.22h-1.67v.57z"/><path stroke="#e50012" stroke-miterlimit="10" stroke-width="2" d="M323.14 137.716h-4.81c-1.93 0-6.44-2.74-8.44-3.63s-8.15-.52-8.15-.52"/><path stroke="#231815" stroke-miterlimit="10" stroke-width="2" d="M323.14 139.496h-4.81c-1.93 0-6.44 2.74-8.44 3.63s-8.15.52-8.15.52"/><path stroke="#555" stroke-linecap="round" stroke-miterlimit="10" stroke-width="3" d="M297.7 133.496h8.07M297.7 143.956h8.07"/><path fill="#000" d="M388.65 157.756c-17.27 0-24.69-3.59-35.05-11.79-6.3-4.98-27.54-5.54-35.19-5.35l-.1-4c1.18-.03 29.07-.68 37.78 6.21 10.53 8.33 17.41 11.24 35.02 10.9 16.28-.3 57.42 0 57.83 0l-.03 4c-.41 0-41.5-.3-57.73 0-.86.02-1.7.02-2.52.02z"/><path fill="#fff" stroke="#231815" stroke-miterlimit="10" d="M142.91 138.726H47.83a2.83 2.83 0 0 0-2.83 2.83v36.71a2.83 2.83 0 0 0 2.83 2.83h95.08a2.83 2.83 0 0 0 2.83-2.83v-36.71a2.83 2.83 0 0 0-2.83-2.83Z"/><path fill="#000" d="M66.58 153.996c-1.07 0-1.89.4-2.48 1.2-.58.8-.88 1.92-.88 3.35 0 2.98 1.12 4.47 3.35 4.47.94 0 2.08-.23 3.41-.7v2.38c-1.1.46-2.32.69-3.67.69-1.94 0-3.43-.59-4.46-1.77s-1.54-2.87-1.54-5.08c0-1.39.25-2.61.76-3.65s1.23-1.85 2.18-2.4q1.425-.84 3.33-.84c1.27 0 2.6.31 3.91.94l-.91 2.3c-.5-.24-1-.45-1.51-.62-.51-.18-1-.26-1.49-.26zM79.1 165.186l-.54-1.39h-.07c-.47.59-.95 1-1.45 1.23s-1.14.34-1.94.34c-.98 0-1.75-.28-2.32-.84s-.85-1.36-.85-2.39.38-1.88 1.14-2.4c.76-.51 1.9-.8 3.43-.85l1.77-.05v-.45c0-1.04-.53-1.55-1.59-1.55-.82 0-1.78.25-2.88.74l-.92-1.88c1.18-.62 2.48-.92 3.91-.92s2.42.3 3.15.9 1.1 1.5 1.1 2.72v6.81h-1.95zm-.82-4.73-1.08.04c-.81.02-1.41.17-1.81.44s-.59.68-.59 1.22c0 .79.45 1.18 1.35 1.18.65 0 1.16-.19 1.55-.56s.58-.87.58-1.48zM93.07 165.186h-2.79v-5.97c0-.74-.12-1.29-.37-1.66s-.64-.55-1.17-.55c-.71 0-1.23.26-1.55.79-.32.52-.48 1.39-.48 2.59v4.81h-2.79v-10.22h2.13l.38 1.31h.16c.27-.47.67-.84 1.19-1.1s1.11-.4 1.78-.4c1.53 0 2.56.5 3.11 1.5h.25c.27-.48.68-.84 1.21-1.11.53-.26 1.14-.39 1.81-.39 1.16 0 2.03.3 2.63.89.59.59.89 1.55.89 2.86v6.66h-2.8v-5.97c0-.74-.12-1.29-.37-1.66s-.64-.55-1.17-.55c-.68 0-1.19.24-1.53.73s-.51 1.26-.51 2.32v5.13zM106.92 165.376c-1.65 0-2.93-.45-3.86-1.36s-1.39-2.19-1.39-3.86.43-3.04 1.28-3.97c.86-.93 2.04-1.4 3.55-1.4s2.57.41 3.37 1.23 1.21 1.96 1.21 3.41v1.35h-6.59c.03.79.27 1.41.7 1.86.44.45 1.05.67 1.85.67.62 0 1.2-.06 1.75-.19s1.12-.33 1.72-.61v2.16q-.735.36-1.56.54c-.55.12-1.23.18-2.03.18zm-.39-8.61c-.59 0-1.05.19-1.39.56-.33.38-.53.91-.58 1.6h3.91c-.01-.69-.19-1.22-.54-1.6-.35-.37-.82-.56-1.41-.56zM119.06 154.776c.38 0 .69.03.94.08l-.21 2.61c-.23-.06-.5-.09-.82-.09-.89 0-1.58.23-2.08.69q-.75.69-.75 1.92v5.2h-2.79v-10.22h2.11l.41 1.72h.14c.32-.57.75-1.03 1.28-1.38s1.13-.53 1.76-.53zM128.16 165.186l-.54-1.39h-.07c-.47.59-.95 1-1.45 1.23s-1.14.34-1.94.34c-.98 0-1.75-.28-2.32-.84s-.85-1.36-.85-2.39.38-1.88 1.14-2.4c.76-.51 1.9-.8 3.43-.85l1.77-.05v-.45c0-1.04-.53-1.55-1.59-1.55-.82 0-1.78.25-2.88.74l-.92-1.88c1.18-.62 2.48-.92 3.91-.92s2.42.3 3.15.9 1.1 1.5 1.1 2.72v6.81h-1.95zm-.82-4.73-1.08.04c-.81.02-1.41.17-1.81.44s-.59.68-.59 1.22c0 .79.45 1.18 1.35 1.18.65 0 1.16-.19 1.55-.56s.58-.87.58-1.48z"/><path fill="#fff" stroke="#231815" stroke-miterlimit="10" d="M537.13 138.726h-95.08a2.83 2.83 0 0 0-2.83 2.83v36.71a2.83 2.83 0 0 0 2.83 2.83h95.08a2.83 2.83 0 0 0 2.83-2.83v-36.71a2.83 2.83 0 0 0-2.83-2.83Z"/><path fill="#000" d="M465.25 161.476c0 1.21-.43 2.16-1.3 2.85-.87.7-2.08 1.04-3.62 1.04-1.43 0-2.69-.27-3.78-.8v-2.63c.9.4 1.67.69 2.29.85s1.2.25 1.71.25c.62 0 1.1-.12 1.43-.36s.5-.59.5-1.06c0-.26-.07-.5-.22-.7s-.36-.4-.64-.59-.86-.49-1.73-.91c-.82-.38-1.43-.75-1.84-1.11s-.73-.76-.98-1.23c-.24-.47-.37-1.02-.37-1.64q0-1.77 1.2-2.79c.8-.68 1.91-1.01 3.32-1.01.69 0 1.36.08 1.99.25.63.16 1.29.4 1.98.69l-.91 2.2c-.71-.29-1.3-.5-1.77-.61-.47-.12-.92-.17-1.38-.17-.54 0-.95.12-1.23.38s-.43.58-.43.98c0 .25.06.47.17.65.12.19.3.37.55.54s.85.49 1.8.94c1.25.6 2.11 1.2 2.57 1.8s.69 1.34.69 2.21zM465.99 154.976h3.05l1.93 5.75c.16.5.28 1.09.34 1.77h.05q.105-.945.39-1.77l1.89-5.75h2.99l-4.32 11.53c-.4 1.07-.96 1.87-1.7 2.4-.73.53-1.59.79-2.57.79-.48 0-.95-.05-1.42-.16v-2.21c.33.08.7.12 1.1.12q.735 0 1.29-.45c.37-.3.66-.76.86-1.37l.16-.5-4.06-10.15zM485.23 162.156c0 1.05-.36 1.85-1.09 2.39-.73.55-1.82.82-3.27.82-.74 0-1.38-.05-1.9-.15s-1.01-.25-1.47-.44v-2.3c.52.24 1.1.45 1.75.61.65.17 1.22.25 1.71.25 1.01 0 1.52-.29 1.52-.88 0-.22-.07-.4-.2-.54s-.37-.29-.69-.47-.77-.38-1.32-.61c-.79-.33-1.36-.63-1.73-.91s-.64-.6-.8-.96c-.17-.36-.25-.81-.25-1.34 0-.91.35-1.61 1.06-2.11.7-.5 1.7-.75 2.99-.75s2.43.27 3.59.8l-.84 2.01q-.765-.33-1.44-.54c-.44-.14-.9-.21-1.36-.21-.82 0-1.23.22-1.23.67 0 .25.13.47.4.65q.405.27 1.74.81c.8.32 1.38.62 1.75.9s.65.6.82.97c.18.37.26.8.26 1.31zM491.71 163.156c.49 0 1.07-.11 1.75-.32v2.08c-.69.31-1.55.47-2.56.47-1.12 0-1.93-.28-2.44-.85-.51-.56-.76-1.41-.76-2.54v-4.93h-1.33v-1.18l1.54-.93.8-2.16h1.78v2.17h2.86v2.09h-2.86v4.93c0 .4.11.69.33.88s.52.28.88.28zM500.15 165.376c-1.65 0-2.93-.45-3.86-1.36s-1.39-2.19-1.39-3.86.43-3.04 1.28-3.97c.86-.93 2.04-1.4 3.55-1.4s2.57.41 3.37 1.23 1.21 1.96 1.21 3.41v1.35h-6.59c.03.79.27 1.41.7 1.86.44.45 1.05.67 1.85.67.62 0 1.2-.06 1.75-.19s1.12-.33 1.72-.61v2.16q-.735.36-1.56.54c-.55.12-1.23.18-2.03.18zm-.39-8.61c-.59 0-1.05.19-1.39.56-.33.38-.53.91-.58 1.6h3.91c-.01-.69-.19-1.22-.54-1.6-.35-.37-.82-.56-1.41-.56zM515.74 165.186h-2.79v-5.97c0-.74-.12-1.29-.37-1.66s-.63-.55-1.17-.55c-.71 0-1.23.26-1.55.79-.32.52-.48 1.39-.48 2.59v4.81h-2.79v-10.22h2.13l.38 1.31h.16c.27-.47.67-.84 1.19-1.1s1.11-.4 1.78-.4c1.53 0 2.56.5 3.11 1.5h.25c.27-.48.68-.84 1.21-1.11.53-.26 1.14-.39 1.81-.39 1.16 0 2.03.3 2.63.89.59.59.89 1.55.89 2.86v6.66h-2.8v-5.97c0-.74-.12-1.29-.37-1.66s-.63-.55-1.17-.55c-.68 0-1.19.24-1.53.73s-.51 1.26-.51 2.32v5.13zM199.52 253.956h-57.78v-3.45h57.78c15.96 0 22.86-1.86 35.13-9.46 13.06-8.1 44.06-5.42 45.37-5.3l-.41 3.44c-.31-.03-30.8-2.66-42.63 4.68-12.96 8.03-20.66 10.11-37.46 10.11zM266.96 277.316c-10.44 0-24.55-1.01-32.31-5.82-12.27-7.61-19.17-9.47-35.13-9.47h-57.78v-3.45h57.78c16.8 0 24.5 2.08 37.46 10.11 11.84 7.34 42.32 4.7 42.63 4.68l.41 3.44c-.53.05-5.94.52-13.06.52zM323.69 277.316c-7.12 0-12.53-.47-13.06-.52l.41-3.44c.31.03 30.8 2.66 42.63-4.68 12.96-8.03 20.66-10.11 37.46-10.11h57.78v3.45h-57.78c-15.96 0-22.86 1.86-35.13 9.47-7.77 4.81-21.88 5.82-32.31 5.82z"/><path fill="#cfcfcf" stroke="#000" stroke-miterlimit="10" stroke-width=".73" d="M293.47 272.466h-2.2v5.86h2.2z"/><path fill="#5c5c5a" stroke="#000" stroke-miterlimit="10" stroke-width=".73" d="M291.28 271.696h-11.75v7.4h11.75z"/><path fill="#5c5c5a" stroke="#000" stroke-miterlimit="10" stroke-width=".73" d="m268.41 271.376-2.43 1.45v5.14l2.43 1.45h11.12v-8.04zM255.75 277.486l10.23.48v-5.14l-10.23.48z"/><path stroke="#000" stroke-miterlimit="10" stroke-width=".37" d="m255.75 277.486 1.55.07v-1.75h.79v1.78l.98.05v-1.83h.79v1.87l.98.05v-1.91h.79v1.95l.98.05v-2h.79v2.03l2.57.12v-5.14l-10.23.48v4.17zm8.64-1.68h.79v2.12l-.79-.04zm0-2.9.79-.04v1.99h-.79zm-1.77.08.79-.04v1.9h-.79v-1.87zm-1.77.08.79-.04v1.82h-.79zm-1.78.09.79-.04v1.74h-.79zm-1.77.08.79-.04v1.65h-.79v-1.62z"/><path fill="#cfcfcf" stroke="#000" stroke-miterlimit="10" stroke-width=".73" d="M295.68 272.466h-2.2v5.86h2.2z"/><path fill="#5c5c5a" stroke="#000" stroke-miterlimit="10" stroke-width=".73" d="M307.43 271.696h-11.75v7.4h11.75z"/><path fill="#5c5c5a" stroke="#000" stroke-miterlimit="10" stroke-width=".73" d="m318.54 279.416 2.43-1.45v-5.14l-2.43-1.45h-11.12v8.04z"/><path fill="#5c5c5a" stroke="#000" stroke-miterlimit="10" stroke-width=".73" d="m331.2 273.306-10.23-.48v5.14l10.23-.48z"/><path stroke="#000" stroke-miterlimit="10" stroke-width=".37" d="m331.2 273.306-1.55-.07v1.75h-.79v-1.78l-.98-.05v1.83h-.79v-1.87l-.98-.05v1.91h-.79v-1.95l-.98-.05v2h-.79v-2.03l-2.57-.12v5.14l10.23-.48v-4.17zm-8.64 1.68h-.79v-2.12l.79.04zm0 2.9-.79.04v-1.99h.79zm1.77-.08-.79.04v-1.9h.79v1.87zm1.77-.08-.79.04v-1.82h.79zm1.78-.09-.79.04v-1.74h.79zm1.77-.08-.79.04v-1.65h.79v1.62z"/><path fill="#000" d="M269.08 254.536H141.41v3.45h127.67zM446.87 254.426H319.2v3.45h127.67z"/><path fill="#cfcfcf" stroke="#000" stroke-miterlimit="10" stroke-width=".73" d="M293.47 253.226h-2.2v5.86h2.2z"/><path fill="#fff" stroke="#000" stroke-miterlimit="10" stroke-width=".73" d="M291.28 252.456h-11.75v7.4h11.75z"/><path fill="#fff" stroke="#000" stroke-miterlimit="10" stroke-width=".73" d="m268.41 252.136-2.43 1.45v5.14l2.43 1.45h11.12v-8.04zM255.75 258.236l10.23.49v-5.14l-10.23.48z"/><path stroke="#000" stroke-miterlimit="10" stroke-width=".37" d="m255.75 258.236 1.55.07v-1.75h.79v1.78l.98.05v-1.83h.79v1.87l.98.05v-1.91h.79v1.95l.98.05v-2h.79v2.03l2.57.12v-5.14l-10.23.48v4.17zm8.64-1.67h.79v2.12l-.79-.04zm0-2.91.79-.04v1.99h-.79zm-1.77.09.79-.04v1.9h-.79v-1.87zm-1.77.08.79-.04v1.82h-.79zm-1.78.08.79-.04v1.74h-.79zm-1.77.09.79-.04v1.65h-.79v-1.62z"/><path fill="#cfcfcf" stroke="#000" stroke-miterlimit="10" stroke-width=".73" d="M295.78 253.226h-2.2v5.86h2.2z"/><path fill="#fff" stroke="#000" stroke-miterlimit="10" stroke-width=".73" d="M307.53 252.456h-11.75v7.4h11.75z"/><path fill="#fff" stroke="#000" stroke-miterlimit="10" stroke-width=".73" d="m318.64 260.176 2.43-1.45v-5.14l-2.43-1.45h-11.12v8.04zM331.3 254.066l-10.23-.48v5.14l10.23-.49z"/><path stroke="#000" stroke-miterlimit="10" stroke-width=".37" d="m331.3 254.066-1.55-.07v1.75h-.79v-1.78l-.98-.05v1.83h-.79v-1.87l-.98-.05v1.91h-.79v-1.95l-.98-.05v2h-.79v-2.03l-2.57-.12v5.14l10.23-.48v-4.17zm-8.64 1.68h-.79v-2.12l.79.04zm0 2.9-.79.04v-1.99h.79zm1.77-.08-.79.04v-1.9h.79v1.87zm1.77-.09-.79.04v-1.82h.79zm1.78-.08-.79.04v-1.74h.79zm1.77-.08-.79.04v-1.65h.79v1.62z"/><path stroke="#231815" stroke-miterlimit="10" stroke-width="1.86" d="M277.13 238.216h4.81c1.93 0 6.44 2.36 8.44 3.13s8.15.45 8.15.45"/><path stroke="#e50012" stroke-miterlimit="10" stroke-width="1.86" d="M277.13 236.676h4.81c1.93 0 6.44-2.36 8.44-3.13s8.15-.45 8.15-.45"/><path fill="#fff" stroke="#000" stroke-miterlimit="10" stroke-width=".73" d="M260.84 241.856h16.28v-8.83h-16.28zM277.14 233.526v7.84h2.3v.5h1.67v-8.83h-1.67v.49z"/><path stroke="#e50012" stroke-miterlimit="10" stroke-width="1.86" d="M323.14 236.576h-4.81c-1.93 0-6.44-2.36-8.44-3.13s-8.15-.45-8.15-.45"/><path stroke="#231815" stroke-miterlimit="10" stroke-width="1.86" d="M323.14 238.116h-4.81c-1.93 0-6.44 2.36-8.44 3.13s-8.15.45-8.15.45"/><path stroke="#555" stroke-linecap="round" stroke-miterlimit="10" stroke-width="2.79" d="M297.7 232.926h8.07M297.7 241.966h8.07"/><path fill="#000" d="M388.65 253.886c-17.27 0-24.69-3.1-35.05-10.18-6.3-4.3-27.54-4.79-35.19-4.62l-.1-3.45c1.18-.03 29.07-.59 37.78 5.36 10.53 7.19 17.41 9.71 35.02 9.42 16.28-.26 57.42 0 57.83 0l-.03 3.45c-.41 0-41.5-.26-57.73 0-.86.01-1.7.02-2.52.02z"/><path fill="#fff" stroke="#231815" stroke-miterlimit="10" d="M142.91 234.496H47.83a2.83 2.83 0 0 0-2.83 2.83v36.71a2.83 2.83 0 0 0 2.83 2.83h95.08a2.83 2.83 0 0 0 2.83-2.83v-36.71a2.83 2.83 0 0 0-2.83-2.83Z"/><path fill="#000" d="M66.58 249.756c-1.07 0-1.89.4-2.48 1.2-.58.8-.88 1.92-.88 3.35 0 2.98 1.12 4.47 3.35 4.47.94 0 2.08-.23 3.41-.7v2.38c-1.1.46-2.32.69-3.67.69-1.94 0-3.43-.59-4.46-1.77s-1.54-2.87-1.54-5.08c0-1.39.25-2.61.76-3.65s1.23-1.85 2.18-2.4q1.425-.84 3.33-.84c1.27 0 2.6.31 3.91.94l-.91 2.3c-.5-.24-1-.45-1.51-.62-.51-.18-1-.26-1.49-.26zM79.1 260.956l-.54-1.39h-.07c-.47.59-.95 1-1.45 1.23s-1.14.34-1.94.34c-.98 0-1.75-.28-2.32-.84s-.85-1.36-.85-2.39.38-1.88 1.14-2.4c.76-.51 1.9-.8 3.43-.85l1.77-.05v-.45c0-1.04-.53-1.55-1.59-1.55-.82 0-1.78.25-2.88.74l-.92-1.88c1.18-.62 2.48-.92 3.91-.92s2.42.3 3.15.9 1.1 1.5 1.1 2.72v6.81h-1.95zm-.82-4.73-1.08.04c-.81.02-1.41.17-1.81.44s-.59.68-.59 1.22c0 .79.45 1.18 1.35 1.18.65 0 1.16-.19 1.55-.56s.58-.87.58-1.48zM93.07 260.956h-2.79v-5.97c0-.74-.12-1.29-.37-1.66s-.64-.55-1.17-.55c-.71 0-1.23.26-1.55.79-.32.52-.48 1.39-.48 2.59v4.81h-2.79v-10.22h2.13l.38 1.31h.16c.27-.47.67-.84 1.19-1.1s1.11-.4 1.78-.4c1.53 0 2.56.5 3.11 1.5h.25c.27-.48.68-.84 1.21-1.11.53-.26 1.14-.39 1.81-.39 1.16 0 2.03.3 2.63.89.59.59.89 1.55.89 2.86v6.66h-2.8v-5.97c0-.74-.12-1.29-.37-1.66s-.64-.55-1.17-.55c-.68 0-1.19.24-1.53.73s-.51 1.26-.51 2.32v5.13zM106.92 261.136c-1.65 0-2.93-.45-3.86-1.36s-1.39-2.19-1.39-3.86.43-3.04 1.28-3.97c.86-.93 2.04-1.4 3.55-1.4s2.57.41 3.37 1.23 1.21 1.96 1.21 3.41v1.35h-6.59c.03.79.27 1.41.7 1.86.44.45 1.05.67 1.85.67.62 0 1.2-.06 1.75-.19s1.12-.33 1.72-.61v2.16q-.735.36-1.56.54c-.55.12-1.23.18-2.03.18zm-.39-8.61c-.59 0-1.05.19-1.39.56-.33.38-.53.91-.58 1.6h3.91c-.01-.69-.19-1.22-.54-1.6-.35-.37-.82-.56-1.41-.56zM119.06 250.546c.38 0 .69.03.94.08l-.21 2.61c-.23-.06-.5-.09-.82-.09-.89 0-1.58.23-2.08.69q-.75.69-.75 1.92v5.2h-2.79v-10.22h2.11l.41 1.72h.14c.32-.57.75-1.03 1.28-1.38s1.13-.53 1.76-.53zM128.16 260.956l-.54-1.39h-.07c-.47.59-.95 1-1.45 1.23s-1.14.34-1.94.34c-.98 0-1.75-.28-2.32-.84s-.85-1.36-.85-2.39.38-1.88 1.14-2.4c.76-.51 1.9-.8 3.43-.85l1.77-.05v-.45c0-1.04-.53-1.55-1.59-1.55-.82 0-1.78.25-2.88.74l-.92-1.88c1.18-.62 2.48-.92 3.91-.92s2.42.3 3.15.9 1.1 1.5 1.1 2.72v6.81h-1.95zm-.82-4.73-1.08.04c-.81.02-1.41.17-1.81.44s-.59.68-.59 1.22c0 .79.45 1.18 1.35 1.18.65 0 1.16-.19 1.55-.56s.58-.87.58-1.48z"/><path fill="#fff" stroke="#231815" stroke-miterlimit="10" d="M537.13 234.496h-95.08a2.83 2.83 0 0 0-2.83 2.83v36.71a2.83 2.83 0 0 0 2.83 2.83h95.08a2.83 2.83 0 0 0 2.83-2.83v-36.71a2.83 2.83 0 0 0-2.83-2.83Z"/><path fill="#000" d="M465.25 257.246c0 1.21-.43 2.16-1.3 2.85-.87.7-2.08 1.04-3.62 1.04-1.43 0-2.69-.27-3.78-.8v-2.63c.9.4 1.67.69 2.29.85s1.2.25 1.71.25c.62 0 1.1-.12 1.43-.36s.5-.59.5-1.06c0-.26-.07-.5-.22-.7s-.36-.4-.64-.59-.86-.49-1.73-.91c-.82-.38-1.43-.75-1.84-1.11s-.73-.76-.98-1.23c-.24-.47-.37-1.02-.37-1.64q0-1.77 1.2-2.79c.8-.68 1.91-1.01 3.32-1.01.69 0 1.36.08 1.99.25.63.16 1.29.4 1.98.69l-.91 2.2c-.71-.29-1.3-.5-1.77-.61-.47-.12-.92-.17-1.38-.17-.54 0-.95.12-1.23.38s-.43.58-.43.98c0 .25.06.47.17.65.12.19.3.37.55.54s.85.49 1.8.94c1.25.6 2.11 1.2 2.57 1.8s.69 1.34.69 2.21zM465.99 250.736h3.05l1.93 5.75c.16.5.28 1.09.34 1.77h.05q.105-.945.39-1.77l1.89-5.75h2.99l-4.32 11.53c-.4 1.07-.96 1.87-1.7 2.4-.73.53-1.59.79-2.57.79-.48 0-.95-.05-1.42-.16v-2.21c.33.08.7.12 1.1.12q.735 0 1.29-.45c.37-.3.66-.76.86-1.37l.16-.5-4.06-10.15zM485.23 257.926c0 1.05-.36 1.85-1.09 2.39-.73.55-1.82.82-3.27.82-.74 0-1.38-.05-1.9-.15s-1.01-.25-1.47-.44v-2.3c.52.24 1.1.45 1.75.61.65.17 1.22.25 1.71.25 1.01 0 1.52-.29 1.52-.88 0-.22-.07-.4-.2-.54s-.37-.29-.69-.47-.77-.38-1.32-.61c-.79-.33-1.36-.63-1.73-.91s-.64-.6-.8-.96c-.17-.36-.25-.81-.25-1.34 0-.91.35-1.61 1.06-2.11.7-.5 1.7-.75 2.99-.75s2.43.27 3.59.8l-.84 2.01q-.765-.33-1.44-.54c-.44-.14-.9-.21-1.36-.21-.82 0-1.23.22-1.23.67 0 .25.13.47.4.65q.405.27 1.74.81c.8.32 1.38.62 1.75.9s.65.6.82.97c.18.37.26.8.26 1.31zM491.71 258.916c.49 0 1.07-.11 1.75-.32v2.08c-.69.31-1.55.47-2.56.47-1.12 0-1.93-.28-2.44-.85-.51-.56-.76-1.41-.76-2.54v-4.93h-1.33v-1.18l1.54-.93.8-2.16h1.78v2.17h2.86v2.09h-2.86v4.93c0 .4.11.69.33.88s.52.28.88.28zM500.15 261.136c-1.65 0-2.93-.45-3.86-1.36s-1.39-2.19-1.39-3.86.43-3.04 1.28-3.97c.86-.93 2.04-1.4 3.55-1.4s2.57.41 3.37 1.23 1.21 1.96 1.21 3.41v1.35h-6.59c.03.79.27 1.41.7 1.86.44.45 1.05.67 1.85.67.62 0 1.2-.06 1.75-.19s1.12-.33 1.72-.61v2.16q-.735.36-1.56.54c-.55.12-1.23.18-2.03.18zm-.39-8.61c-.59 0-1.05.19-1.39.56-.33.38-.53.91-.58 1.6h3.91c-.01-.69-.19-1.22-.54-1.6-.35-.37-.82-.56-1.41-.56zM515.74 260.956h-2.79v-5.97c0-.74-.12-1.29-.37-1.66s-.63-.55-1.17-.55c-.71 0-1.23.26-1.55.79-.32.52-.48 1.39-.48 2.59v4.81h-2.79v-10.22h2.13l.38 1.31h.16c.27-.47.67-.84 1.19-1.1s1.11-.4 1.78-.4c1.53 0 2.56.5 3.11 1.5h.25c.27-.48.68-.84 1.21-1.11.53-.26 1.14-.39 1.81-.39 1.16 0 2.03.3 2.63.89.59.59.89 1.55.89 2.86v6.66h-2.8v-5.97c0-.74-.12-1.29-.37-1.66s-.63-.55-1.17-.55c-.68 0-1.19.24-1.53.73s-.51 1.26-.51 2.32v5.13z"/><path fill="#497590" stroke="#000" stroke-miterlimit="10" stroke-width="1.06" d="M320.68 132.696h-10.44c-1.02 0-1.66.35-2.07 1.9s-13.52 53.59-13.52 53.59h10.31c1.06 0 2.08-.83 2.79-3.58s12.94-51.91 12.94-51.91z"/><path fill="#497590" stroke="#000" stroke-miterlimit="10" stroke-width="1.06" d="M311.06 132.696h-10.44c-1.02 0-1.66.35-2.07 1.9s-13.52 53.59-13.52 53.59h10.31c1.06 0 2.08-.83 2.79-3.58s12.94-51.91 12.94-51.91z"/><path fill="#497590" stroke="#000" stroke-miterlimit="10" stroke-width="1.06" d="M301.03 132.696h-10.44c-1.02 0-1.66.35-2.07 1.9S275 188.186 275 188.186h10.31c1.06 0 2.08-.83 2.79-3.58s12.94-51.91 12.94-51.91z"/><path fill="#497590" stroke="#000" stroke-miterlimit="10" stroke-width="1.06" d="M291.13 132.696h-10.44c-1.02 0-1.66.35-2.07 1.9s-13.52 53.59-13.52 53.59h10.31c1.06 0 2.08-.83 2.79-3.58s12.94-51.91 12.94-51.91zM272.77 133.436h-8.13l-2.15 16.52s-.21.62.56.82 7.33 0 7.33 0l2.39-17.35z"/><path fill="#497590" stroke="#000" stroke-miterlimit="10" stroke-width="1.06" d="M281.2 132.696h-8.19c-1.02 0-1.66.35-2.07 1.9s-12.85 51.46-12.85 51.46 4.92 2.52 7.38 2.13c1.05-.17 2.08-.83 2.79-3.58s12.94-51.91 12.94-51.91ZM336.39 136.976s-.85-1.87-2.65-2.35c-2.55-.68-13.06-2.65-13.06-2.65s-1.25-.24-2.31-.45c-.92-.18-1.38.92-1.2 1.36s17.35 50.41 17.81 51.57l14.57-11.53-13.15-35.93z"/><path fill="#497590" stroke="#000" stroke-linecap="round" stroke-miterlimit="10" stroke-width="1.5" d="M345.96 189.006c1.07-9.94 3.61-17.69 8.55-17.8v-.02s-10.83-1.41-12.44-1.58-3.83.22-6.33 3.5-4.78 9.22-5.06 13.47-.13 9.98.79 12.86c.93 2.89 2.43 5.33 3.98 6.33s1.28.94 2.61 1.11c1.07.13 8.85 1.16 11.89 1.56-.58-1.51-5.03-9.86-4-19.44z"/><path fill="#bebebe" stroke="#000" stroke-miterlimit="10" stroke-width=".5" d="M354.2 179.476c-1.72-.19-3.43 1.56-4.62 4.35.44 2.96.71 7.8-.81 13.16.68 2.05 1.79 3.4 3.16 3.55 2.7.29 5.41-4.19 6.03-10 .63-5.82-1.06-10.77-3.76-11.06Z"/><path fill="#9fa0a2" stroke="#000" stroke-miterlimit="10" stroke-width="1.5" d="M355.14 171.206c-5.16-.56-10.25 7.39-11.37 17.75s2.16 19.21 7.32 19.77 10.25-7.39 11.37-17.75-2.16-19.21-7.32-19.77Zm2.82 19.33c-.63 5.82-3.33 10.3-6.03 10-2.7-.29-4.39-5.24-3.76-11.06s3.33-10.3 6.03-10c2.7.29 4.39 5.24 3.76 11.06Z"/><path stroke="#000" stroke-linecap="round" stroke-miterlimit="10" d="m369.73 185.366-.36-4.85h4.57M394.99 185.366l.36-4.85h-4.57"/><path stroke="#000" stroke-linecap="round" stroke-miterlimit="10" d="M369.37 180.516s4.74 4.83 12.64 4.83 13.34-4.83 13.34-4.83M369.73 194.996l-.36 4.86h4.57M394.99 194.996l.36 4.86h-4.57"/><path stroke="#000" stroke-linecap="round" stroke-miterlimit="10" d="M369.37 199.856s4.74-4.83 12.64-4.83 13.34 4.83 13.34 4.83M372.16 186.396s1.86 3.62.19 7.33M392.65 186.396s-1.86 3.62-.19 7.33"/><path fill="#e8e8e8" stroke="#000" stroke-miterlimit="10" d="M298.72 211.886v-11h-12.69v11h-7.98l14.33 10.83 14.32-10.83zM298.72 114.246v-11h-12.69v11h-7.98l14.33 10.83 14.32-10.83z"/><path fill="#497590" stroke="#000" stroke-linejoin="round" stroke-width=".79" d="M394.41 248.046s1.22 3.25 1.75 4.5 1.47 3.85 1.44 6.32 0 3.13 0 3.56.14 1.05-1.6 1.05-7.76.43-7.76.43l.22-16.04 5.94.17z"/><path fill="#497590" stroke="#000" stroke-linejoin="round" stroke-width=".79" d="M383.03 246.996h11.15s1.33.02 1.04 1.27-2.78 12.38-3.48 14.05-1.04 2.24-3.96 2.47-8.44.04-8.44.04l3.7-17.83z"/><path fill="#497590" stroke="#000" stroke-linejoin="round" stroke-width=".79" d="m375.52 245.226 8.72 1.25s-.42 7.58-.85 10.42-1.59 7.46-2.48 8.49-1.39 1.99-4.89 2.51-6.67.74-6.67.74z"/><path fill="#497590" stroke="#000" stroke-linejoin="round" stroke-width=".79" d="M378.78 245.116s-10.53-2.78-12.01-2.76-2.7-.16-3.74 1.56-2.38 5.1-2.54 5.8-1.31 4.55-1.53 6.71-1.37 6.74-1.7 7.86-2.06 6.55-3.25 8.26l16.57-2.61s1.31-1.75 2.13-4.23 1.22-5.16 1.5-7.63.31-5.77.98-7.5c.63-1.63.69-2.14 1.5-3.21.43-.56.97-1.02 2.11-2.24z"/><path fill="#497590" stroke="#000" stroke-linejoin="round" stroke-width=".88" d="M367.67 241.776s-10.53-2.68-12.01-2.66-2.7-.2-3.74 1.96-2.38 6.41-2.54 7.28-1.31 5.71-1.53 8.43-1.37 8.47-1.7 9.87-2.06 8.23-3.25 10.37l15.67-2.97s1.31-2.2 2.13-5.31 1.22-6.49 1.5-9.58 1.13-7.56 1.65-9.8 1.09-3.84 1.9-5.18c.43-.7.76-1.23 1.94-2.41z"/><path fill="#497590" stroke="#000" stroke-linejoin="round" stroke-width=".95" d="M357.26 238.356s-10.12-2.5-11.6-2.47-2.7-.23-3.74 2.27-2.38 7.41-2.54 8.42-1.31 6.6-1.53 9.74-1.37 9.79-1.7 11.41-2.06 8.69-3.25 11.16l14.5-1.86s2.1-3.43 2.92-7.04 1.59-7.34 1.87-10.92 1.13-8.74 1.65-11.33 1.08-4.48 1.41-6.26c.18-.95.84-1.75 2.03-3.12z"/><path fill="#497590" stroke="#000" stroke-linejoin="round" stroke-width=".97" d="M201.22 246.976s-5.37 1.33-9.33 1.29c0 0-.63.04-.59 1.63s.04 4.82.44 6.04 1.7 5.01 1.78 6.04-.33 1.88.35 2.34 8.83-.86 8.09-3.71-.74-13.63-.74-13.63Z"/><path fill="#497590" stroke="#000" stroke-linejoin="round" stroke-width=".97" d="M210.19 245.576s-9.56.57-10.41.84-2.04 2.09-2.41 3.42-1.41 4.35-1.44 5.38-1.04 4.34-1.15 5.29-.93 2.73-.96 3.08-.07 1.22.74 1.22 4.67-.08 5.85 0 6.33.15 7.67.42 6.04-15.53 5.26-17.51-3.15-2.13-3.15-2.13z"/><path fill="#497590" stroke="#000" stroke-linejoin="round" stroke-width="1.01" d="M345.91 235.026s-11.79-2.27-13.27-2.24-2.7-.26-3.74 2.55-2.38 8.33-2.54 9.46-1.31 7.42-1.53 10.95-1.37 11.01-1.7 12.83-2.06 8.9-3.25 11.68l14.35-.92s2.26-4.17 3.07-8.22 1.59-8.26 1.87-12.28 1.13-9.83 1.65-12.74.74-5.15 1.41-7.04 1.86-2.9 3.7-4.04z"/><path fill="#497590" stroke="#000" stroke-linejoin="round" stroke-width=".97" d="M222.22 244.206s-5.52.3-7.93.53-3.41.15-4.11.84-1.41 1.75-1.74 3.27-1.56 5.07-1.56 6.43-.56 3.9-.7 4.79-.74 3.27-.94 3.74-.61.8-.69 1.14.07.65.69.61 2.87.15 4.39.23 5.41.57 7.19 1.37 3.59-2.54 4.78-6.87 1.11-11.66 1.3-13.94-.67-2.13-.67-2.13z"/><path fill="#497590" stroke="#000" stroke-linejoin="round" stroke-width="1.03" d="M334.44 232.506s-12.77-.77-14.25-.73-2.7-.27-3.74 2.66-2.38 8.69-2.54 9.87-1.31 7.74-1.53 11.42-1.37 11.48-1.7 13.38-2.06 8.99-3.25 11.89l14.17-.32s2.43-4.7 3.25-8.92 1.59-8.61 1.87-12.8 1.13-10.24 1.65-13.29 1.41-7.34 2.07-9.31 1.2-3.74 4.01-3.85z"/><path fill="#497590" stroke="#000" stroke-linejoin="round" stroke-width=".97" d="M233.77 240.246s-9.75 1.31-10.92 1.51-2.69.8-3.06 3.33-1.2 6.94-1.35 9.26-.33 6.19-1.48 9.11-2.19 3.95-1.04 4.33 6.41 1.29 9.67 2.62 5.19-8.96 5.19-8.96z"/><path fill="#497590" stroke="#000" stroke-linejoin="round" stroke-width="1.05" d="M322.26 231.216s-13.06-.6-14.54-.57-2.7-.28-3.74 2.78-2.38 9.09-2.54 10.33-1.31 8.1-1.53 11.96-1.37 12.02-1.7 14.01-2.09 8.28-3.27 11.31h14.63s2-4.12 2.81-8.54 1.59-9.01 1.87-13.4 1.13-10.72 1.65-13.91 1.41-7.68 2.07-9.74 1.48-4.12 4.3-4.23z"/><path fill="#497590" stroke="#000" stroke-linejoin="round" stroke-width=".97" d="M249.91 236.726s-12.31 1.06-13.76 1.25-2.9.2-3.92 2.13c-1.32 2.5-2.38 7.72-2.54 8.77s-1.18 6.89-1.53 10.15-1.11 4.89-1.75 6.48-2.61 4.7-.92 5.67l10.11 2.42s4.42.56 4.89-1.08c1.05-3.69 1.73-6.9 2.01-10.62s1.13-9.1 1.65-11.8 1.52-6.49 2.07-8.27.88-5 3.69-5.09z"/><path fill="#497590" stroke="#000" stroke-linejoin="round" stroke-width=".97" d="M261.24 233.376s-12.31 1.06-13.76 1.25-2.9.2-3.92 2.13c-1.32 2.5-2.38 7.72-2.54 8.77s-1.31 6.88-1.53 10.15-1.37 10.2-1.7 11.89-1.33 4.28-1.88 6.9l13.24 2.71s2-3.5 2.81-7.25 1.59-7.65 1.87-11.38 1.13-9.1 1.65-11.8 1.52-6.49 2.07-8.27.88-5 3.69-5.09z"/><path fill="#497590" stroke="#000" stroke-linejoin="round" stroke-width="1.02" d="M273.93 231.596s-12.26 1.16-13.74 1.19-2.92.05-3.93 2.17c-1.32 2.75-2.38 8.49-2.54 9.64s-1.31 7.56-1.53 11.16-1.37 11.22-1.7 13.07-1.69 5.93-2.88 8.76l14.23 1.8s2-3.85 2.81-7.97 1.59-8.41 1.87-12.51 1.13-10.01 1.65-12.98 1.52-7.13 2.07-9.09.88-5.14 3.69-5.25z"/><path fill="#497590" stroke="#000" stroke-linejoin="round" stroke-width="1.05" d="M287.2 231.216s-12.87-.15-14.35-.11-2.92.06-3.93 2.33c-1.32 2.95-2.38 9.09-2.54 10.33s-1.31 8.1-1.53 11.96-1.37 12.02-1.7 14.01-2.09 7.03-3.27 10.06l14.63 1.25s2-4.12 2.81-8.54 1.59-9.01 1.87-13.4 1.13-10.72 1.65-13.91 1.41-7.68 2.07-9.74 1.48-4.12 4.3-4.23z"/><path fill="#497590" stroke="#000" stroke-linejoin="round" stroke-width="1.05" d="M299.07 231.216s-13.06-.6-14.54-.57-2.7-.28-3.74 2.78-2.38 9.09-2.54 10.33-1.31 8.1-1.53 11.96-1.37 12.02-1.7 14.01-2.09 8.28-3.27 11.31h14.63s2-4.12 2.81-8.54 1.59-9.01 1.87-13.4 1.13-10.72 1.65-13.91 1.41-7.68 2.07-9.74 1.48-4.12 4.3-4.23z"/><path fill="#497590" stroke="#000" stroke-linejoin="round" stroke-width="1.06" d="M309.56 230.536s-10.59-.27-12.07-.23-2.7-.28-3.74 2.82-2.38 9.22-2.54 10.47-1.31 8.21-1.53 12.12-1.37 12.19-1.7 14.2-1.96 8.09-3.15 11.17l12.15.3s2-4.18 2.81-8.66 1.59-9.13 1.87-13.59 1.13-10.87 1.65-14.1 1.41-7.79 2.07-9.87 1.37-4.52 4.19-4.63z"/><path fill="#fc4" stroke="#000" stroke-linejoin="round" d="m385.26 231.666 2.98 1.25-1.49 9.34h-1.49l-2.9-11.74zM395.69 239.186l-1.99-.81-3.7 5.1.7.7 6.9-4.17z"/><path fill="#000" d="m397.58 234.606-.78-2.27h-3.23l-.77 2.27h-1.63l3.14-8.6h1.75l3.14 8.6h-1.63zm-1.17-3.59-.74-2.21c-.03-.1-.08-.25-.14-.45l-.18-.6c-.06-.2-.1-.37-.14-.51-.04.17-.09.36-.15.56s-.12.4-.17.59c-.05.18-.09.32-.13.41l-.76 2.21z"/><path fill="#fc4" stroke="#000" stroke-linejoin="round" d="m203.64 230.706-2.98 1.25 1.49 9.33h1.49l2.9-11.74zM193.21 238.227l1.99-.821 3.7 5.11-.7.701-6.91-4.171z"/><path fill="#000" d="m195 233.926-.78-2.27h-3.23l-.77 2.27h-1.63l3.14-8.6h1.75l3.14 8.6h-1.63zm-1.18-3.59-.74-2.21c-.03-.1-.08-.25-.14-.45l-.18-.6c-.06-.2-.1-.37-.14-.51-.04.17-.09.36-.15.56s-.12.4-.17.59c-.05.18-.09.32-.13.41l-.76 2.21z"/><path fill="#fc4" stroke="#000" stroke-linejoin="round" d="m387.13 277.476-2.99 1.22-5.54-7.65 1.05-1.06 10.35 6.26zM374.44 279.536l1.99-.83-1-6.23h-.99l-1.93 7.83z"/><path fill="#000" d="m383.42 289.116-.78-2.27h-3.23l-.77 2.27h-1.63l3.14-8.6h1.75l3.14 8.6h-1.63zm-1.17-3.59-.74-2.21c-.03-.1-.08-.25-.14-.45l-.18-.6c-.06-.2-.1-.37-.14-.51-.04.17-.09.36-.15.56s-.12.4-.17.59c-.05.18-.09.32-.13.41l-.76 2.21z"/></svg>