<svg xmlns="http://www.w3.org/2000/svg" id="_레이어_1" data-name="레이어_1" viewBox="0 0 163.03 70.1"><defs><style>.st1{stroke-width:.25px}.st1,.st3{stroke:#000}.st1,.st3,.st5,.st6{fill:none}.st1,.st3{stroke-linecap:round}.st1,.st3,.st5,.st6{stroke-linejoin:round}.st3{stroke-width:.5px}.st5{stroke:#a12944;stroke-dasharray:3.06 3.06;stroke-width:3px}.st6{stroke:#fff;stroke-width:5px}</style></defs><path d="M.25 0h162.53v69.85H.25z" style="fill:#fff"/><path d="M87.68 21.66 84.54 28M119.16 25.62l-3.42 5.09M121.45 23.97l-1.11.47M74.58 25.02v-4.73M74.97 25v-4.2M75.35 21.17v.49M87.68 21.66v-.49M88.05 25v-4.2M88.45 20.29v4.73M29.6 34.24l-3.82-4.8M78.48 28l-3.13-6.34M24.52 28.37l-1.15-.38" class="st1"/><path d="M56.06 67.05c7.81-1.1 13.25-8.32 12.15-16.12-1.1-7.81-8.32-13.25-16.12-12.15" class="st3"/><path d="M25.31 28.89a2.4 2.4 0 0 0-.23-.22" class="st1"/><path d="M75.87 19.88c-.05 0-.11 0-.16.02M87.15 19.88q-5.64-.135-11.28 0" class="st3"/><path d="M86.77 20.25c-3.51-.08-7.01-.08-10.52 0" class="st1"/><path d="M162.78 35.11c-23.19-8.85-48.21-14.02-74.33-14.82M74.58 20.29c-26.17.8-51.17 5.97-74.33 14.8" class="st3"/><path d="M162.78 37.58a225.8 225.8 0 0 0-43.61-11.96M25.78 29.44A227 227 0 0 0 .25 37.56M74.97 25c-16.04.47-31.94 2.66-47.51 6.55M117.66 27.85c-9.81-1.61-19.67-2.56-29.61-2.85M162.78 42.97c-7.1-2.8-14.4-5.26-21.91-7.36M83.71 28.52q-2.19-.015-4.38 0" class="st1"/><path d="M114.23 31.37a219.2 219.2 0 0 0-83.08 3.41M162.78 45.07a221 221 0 0 0-22.43-7.58M162.78 50.72c-7.69-3.16-15.65-5.89-23.84-8.18" class="st1"/><path d="M52.08 38.78A211.6 211.6 0 0 0 .25 52.96" class="st3"/><path d="M162.78 53.41c-7.97-3.33-16.16-6.17-24.5-8.5M162.78 57.35a207 207 0 0 0-25.48-8.94M162.78 59.03c-8.41-3.61-17.06-6.66-25.9-9.13" class="st1"/><path d="M56.06 67.05c-5.11.72-10.18 1.65-15.19 2.79" class="st3"/><path d="M140.87 35.61c-17.4-4.86-35.58 4.61-41.58 21.64M109.42 69.85c1.58-2.34 2.89-4.91 3.86-7.66" class="st1"/><path d="M140.34 37.49c-16.41-4.58-33.56 4.35-39.21 20.41M107.54 69.85c1.78-2.46 3.24-5.21 4.28-8.18M102.89 69.85c2.37-2.69 4.26-5.86 5.5-9.38" class="st1"/><path d="M138.94 42.53c-13.75-3.84-28.12 3.64-32.87 17.11M99.47 69.85c2.91-2.77 5.2-6.24 6.6-10.2" class="st1"/><path d="M138.27 44.91c-12.5-3.49-25.57 3.31-29.88 15.55" class="st1"/><path d="M137.29 48.41c-10.66-2.98-21.79 2.82-25.47 13.26M90.3 69.85c4.96-2.31 8.93-6.55 10.83-11.94" class="st1"/><path d="M136.88 49.89c-9.88-2.76-20.2 2.62-23.6 12.29M81.51 69.85c8 0 15.12-5.05 17.78-12.59" class="st1"/><circle cx="81.51" cy="51" r="10.09" class="st3"/><path d="M79.7 55.25v-8.5M83.32 55.25v-8.5" class="st1"/><circle cx="81.51" cy="51" r="8.47" class="st1"/><circle cx="81.51" cy="51" r="5.85" class="st1"/><circle cx="81.51" cy="51" r="4.62" class="st1"/><path d="M122.48 23.87c-.13-.02-.4-.03-.53-.02" class="st3"/><path d="M88.05 20.8c0-.05 0-.1-.01-.16" class="st1"/><path d="M87.16 19.88c.21 0 .42.09.58.22s.27.34.31.54M74.97 20.8c0-.26.13-.53.32-.7M75.29 20.1c.12-.1.27-.18.42-.21" class="st3"/><path d="M83.71 28.52c.17 0 .35-.05.49-.14s.27-.23.34-.38M78.48 28c.08.15.2.29.34.38s.32.14.49.14M76.25 20.25a.923.923 0 0 0-.9.93M87.68 21.17c0-.23-.1-.47-.26-.65s-.41-.27-.64-.28M120.34 24.44c-.08.03-.15.07-.23.12-.2.12-.38.28-.51.47M121.45 23.97c.16-.07.33-.11.5-.12M22.43 27.92c.26-.05.69-.02.94.06M119.16 25.62l.44-.59M25.31 28.89l.47.55M25.08 28.67c-.12-.1-.26-.18-.4-.25-.05-.02-.1-.04-.16-.06M31.15 34.78c-.28.07-.58.05-.86-.04s-.52-.27-.7-.5M115.74 30.71a1.54 1.54 0 0 1-1.51.66" class="st1"/><path d="m77.89 21.88 3.1 5.36c.17.3.55.4.84.22.09-.05.17-.13.22-.22l3.1-5.36c.17-.3.07-.68-.23-.84a.64.64 0 0 0-.3-.08h-6.19c-.34 0-.62.28-.62.62 0 .11.03.21.08.3" style="stroke:#000;stroke-linecap:round;stroke-linejoin:round;stroke-width:.5px;fill:#e60012"/><path d="m84.42 36.57-2.48-4.29a.484.484 0 0 0-.67-.18q-.105.06-.18.18l-2.48 4.29a.48.48 0 0 0 .42.73h4.95c.28 0 .5-.22.49-.49a.42.42 0 0 0-.07-.24Z"/><path d="M13.3 60.02v-1.38M41.03 60.02v-1.38M49.93 46.68v2.47M52.55 46.14v.54M52.55 49.15v2.62M55.02 51.77v-2.62M55.02 46.68v-.62M57.64 49.15v-2.17M.25 61.56h11.51M42.57 61.56h2.04M27.16 52.23l-1.85 3.2M23.47 58.64l-1.85 3.2M27.16 65.04l1.85-3.2M30.86 58.64l1.85-3.21M21.62 55.43l1.85 3.21M25.31 61.84l1.85 3.2M32.71 61.84l-1.85-3.2M29.01 55.43l-1.85-3.2M21.62 61.84h3.69M29.01 61.84h3.7M32.71 55.43h-3.7M25.31 55.43h-3.69M52.55 51.77h2.47M49.93 49.15h2.62M55.02 49.15h2.62M57.09 46.68h-2.07M52.55 46.68h-2.62M41.03 58.64c0-3.61-1.41-7.07-3.92-9.66M13.61 55.71c-.21.96-.31 1.95-.31 2.93M55.79 65.12c6.74-.95 11.44-7.18 10.49-13.92S59.1 39.76 52.36 40.71" class="st1"/><path d="M43.75 47.61c-.17 5.54 4.19 10.17 9.73 10.34 2.62.08 5.16-.87 7.09-2.64" class="st1"/><path d="M45.31 47.32c-.33 4.68 3.2 8.75 7.88 9.08 3.13.22 6.13-1.3 7.8-3.96" class="st1"/><path d="M55.04 59.78c3.79-.53 6.43-4.04 5.9-7.83s-4.04-6.43-7.83-5.9" class="st1"/><path d="M47.39 46.95a6.485 6.485 0 0 0 5.43 7.37c3.31.5 6.45-1.6 7.25-4.85" class="st1"/><path d="M48.35 46.8c-.62 3 1.31 5.93 4.31 6.55s5.93-1.31 6.55-4.31c.04-.21.08-.43.09-.64M52.36 40.71A209.8 209.8 0 0 0 .25 55.07" class="st1"/><path d="M53.11 46.05c-6.63.93-13.22 2.19-19.73 3.77M17.21 54.46c-5.75 1.91-11.4 4.07-16.96 6.48M55.04 59.78c-6.09.86-12.14 2.01-18.12 3.45M21.33 67.7c-2.04.68-4.08 1.4-6.09 2.15M55.79 65.12c-7.76 1.09-15.42 2.67-22.95 4.73M41.03 60.02c0 .85.69 1.54 1.54 1.54M11.76 61.56c.85 0 1.54-.69 1.54-1.54" class="st1"/><path d="M15.36 55.08c-1.46 4.85.2 10.11 4.18 13.24M38.76 62.82a12.32 12.32 0 0 0-3.46-13.44" class="st1"/><circle cx="27.16" cy="58.64" r="10.78" style="stroke-width:.25px;stroke:#000;fill:none;stroke-miterlimit:10"/><circle cx="51.43" cy="35.02" r="2.36"/><circle cx="112.79" cy="35.02" r="2.36"/><circle cx="51.56" cy="34.93" r="16.54" class="st6"/><circle cx="51.56" cy="34.93" r="16.54" class="st5"/><circle cx="112.82" cy="34.93" r="16.54" class="st6"/><circle cx="112.82" cy="34.93" r="16.54" class="st5"/></svg>