<svg xmlns="http://www.w3.org/2000/svg" width="790" height="507" fill="none" viewBox="0 0 790 507"><path fill="#fff" d="M0 0h790v507H0z"/><path stroke="#231815" stroke-dasharray="2.85 2.85" stroke-miterlimit="10" d="M264.804 195H66.013C59.378 195 54 200.374 54 207.004v34.625c0 6.629 5.378 12.004 12.013 12.004h198.791c6.634 0 12.013-5.375 12.013-12.004v-34.625c0-6.63-5.379-12.004-12.013-12.004Z"/><path fill="#000" d="M81.612 215.304h3.136v-3.15c0-.504.056-1.33.084-1.862h-.056a27 27 0 0 1-.826 1.512zm5.712 0v1.022h-1.358v2.828h-1.218v-2.828h-4.466v-.84l4.27-6.594h1.414v6.412zm4.218.42v-.98h3.584v.98zm10.043-5.782v3.808h1.722c1.61 0 2.492-.644 2.492-1.974 0-1.358-.882-1.834-2.492-1.834zm5.81 9.212h-1.47l-2.492-4.354h-1.848v4.354h-1.302v-10.262h3.22c2.086 0 3.584.742 3.584 2.884 0 1.596-.924 2.548-2.324 2.884zm1.775 0v-10.262h1.302v9.156h4.48v1.106zm8.064 0v-3.99l-3.08-6.272h1.386l1.316 2.898c.336.756.644 1.47 1.008 2.24h.056c.364-.77.714-1.484 1.022-2.24l1.33-2.898h1.344l-3.08 6.272v3.99zm12.78.182c-2.548 0-4.466-1.974-4.466-5.306 0-3.318 1.946-5.334 4.55-5.334 1.246 0 2.226.616 2.814 1.274l-.7.84c-.532-.574-1.218-.98-2.1-.98-1.946 0-3.234 1.596-3.234 4.158 0 2.59 1.232 4.214 3.192 4.214.98 0 1.722-.434 2.38-1.148l.714.812c-.812.938-1.82 1.47-3.15 1.47m8.393 0c-2.576 0-4.382-2.058-4.382-5.348s1.806-5.292 4.382-5.292 4.382 2.002 4.382 5.292-1.806 5.348-4.382 5.348m0-1.134c1.834 0 3.052-1.652 3.052-4.214 0-2.576-1.218-4.158-3.052-4.158-1.848 0-3.052 1.582-3.052 4.158 0 2.562 1.204 4.214 3.052 4.214m6.597.952v-10.262h1.568l1.974 5.488c.238.714.476 1.428.728 2.142h.07c.238-.714.462-1.428.7-2.142l1.96-5.488h1.568v10.262h-1.218v-5.684c0-.882.098-2.128.168-3.024h-.056l-.812 2.338-1.946 5.334h-.868l-1.946-5.334-.812-2.338h-.056c.056.896.154 2.142.154 3.024v5.684zm-61.348 21.182c-1.596 0-2.576-.672-3.262-1.358l.63-.84c.588.588 1.33 1.134 2.52 1.134 1.204 0 2.184-.924 2.184-2.422 0-1.47-.84-2.338-2.128-2.338-.686 0-1.12.21-1.708.602l-.686-.42.322-4.802h4.998v1.092h-3.878l-.252 2.968c.448-.252.91-.406 1.526-.406 1.708 0 3.094 1.008 3.094 3.262s-1.624 3.528-3.36 3.528m7.886-3.612v-.98h3.584v.98zm10.043-5.782v3.808h1.722c1.61 0 2.492-.644 2.492-1.974 0-1.358-.882-1.834-2.492-1.834zm5.81 9.212h-1.47l-2.492-4.354h-1.848v4.354h-1.302v-10.262h3.22c2.086 0 3.584.742 3.584 2.884 0 1.596-.924 2.548-2.324 2.884zm1.775 0v-10.262h1.302v9.156h4.48v1.106zm8.064 0v-3.99l-3.08-6.272h1.386l1.316 2.898c.336.756.644 1.47 1.008 2.24h.056c.364-.77.714-1.484 1.022-2.24l1.33-2.898h1.344l-3.08 6.272v3.99zm8.902 0v-10.262h1.344l3.738 6.468 1.092 2.114h.07c-.07-1.036-.168-2.184-.168-3.248v-5.334h1.232v10.262h-1.33l-3.738-6.482-1.106-2.114h-.056c.056 1.036.154 2.128.154 3.206v5.39zm13.898.182c-2.576 0-4.382-2.058-4.382-5.348s1.806-5.292 4.382-5.292 4.382 2.002 4.382 5.292-1.806 5.348-4.382 5.348m0-1.134c1.834 0 3.052-1.652 3.052-4.214 0-2.576-1.218-4.158-3.052-4.158-1.848 0-3.052 1.582-3.052 4.158 0 2.562 1.204 4.214 3.052 4.214M200.976 209.914v6.174c.672-.014 1.372-.042 2.058-.07v-6.104zm3.178 0v6.034a27 27 0 0 0 1.918-.182l.084.854c-2.632.42-5.614.462-7.826.462l-.14-.966c.518 0 1.078 0 1.666-.014v-6.188h-1.344v-.924h6.986v.924zm5.922 2.744v.952h-2.072v6.58h-1.148v-12.544h1.148v5.012zm8.538.924.112.952c-1.988.336-3.64.406-5.964.406h-.994v-3.78h4.494v-1.778h-4.522v-.924h5.656v3.584h-4.494v1.96c2.212 0 3.808-.084 5.712-.42m-4.228 2.59v2.8h7.154v.938h-8.302v-3.738zm6.58-4.676h1.862v.952h-1.862v4.438h-1.148v-9.254h1.148zm9.421 2.086-.616.868a4.57 4.57 0 0 1-2.478-2.478c-.448 1.19-1.344 2.254-2.562 2.8l-.616-.882c1.638-.742 2.618-2.394 2.618-3.822v-1.694h1.106v1.694c0 1.414.924 2.87 2.548 3.514m-4.13 3.262v-.924h8.442v4.27h-1.148v-3.346zm7.336-9.198h1.106v7.588h-1.106v-3.388h-1.596v3.304h-1.092v-7.294h1.092v3.052h1.596zM208.62 228.66v9.758h-1.148v-9.758zm-2.45 1.246v.868h-7.35v-.868h3.094v-1.302h1.148v1.302zm-1.764 3.36c0-.7-.756-1.134-1.918-1.134-1.148 0-1.89.434-1.89 1.134s.742 1.134 1.89 1.134c1.162 0 1.918-.434 1.918-1.134m-4.886 0c0-1.204 1.176-1.96 2.968-1.96 1.82 0 2.996.756 2.996 1.96s-1.176 1.946-2.996 1.946c-1.792 0-2.968-.742-2.968-1.946m6.958 2.352.07.812c-2.73.434-5.726.476-7.98.476l-.168-.896c2.324 0 5.432-.028 8.078-.392m-4.9 4.354h7.434v.938h-8.582v-3.15h1.148zm15.93-5.39-.616.868a4.57 4.57 0 0 1-2.478-2.478c-.448 1.19-1.344 2.254-2.562 2.8l-.616-.882c1.638-.742 2.618-2.394 2.618-3.822v-1.694h1.106v1.694c0 1.414.924 2.87 2.548 3.514m-4.13 3.262v-.924h8.442v4.27h-1.148v-3.346zm7.336-9.198h1.106v7.588h-1.106v-3.388h-1.596v3.304h-1.092v-7.294h1.092v3.052h1.596z"/><path stroke="#e60012" stroke-miterlimit="10" stroke-width="4" d="M203.43 355.83h-88.18"/><path stroke="#231815" stroke-miterlimit="10" stroke-width="4" d="M203.43 382.63h-88.18"/><path fill="#fff" d="M115.25 305.03H54v118.12h61.25z"/><path stroke="#000" stroke-miterlimit="10" d="M115.25 305.03H54v118.12h61.25z"/><path stroke="#000" stroke-miterlimit="10" d="M107.75 313.96h-47.5v109.19h47.5z"/><path stroke="#000" stroke-miterlimit="10" stroke-width=".5" d="M104.19 363.54c0 2.37-1.92 4.28-4.28 4.28s-4.28-1.92-4.28-4.28 1.92-4.28 4.28-4.28 4.28 1.92 4.28 4.28Z"/><path stroke="#000" stroke-miterlimit="10" stroke-width=".5" d="M102.18 363.541c0 1.26-1.02 2.27-2.27 2.27s-2.27-1.02-2.27-2.27 1.02-2.27 2.27-2.27 2.27 1.02 2.27 2.27Z"/><path stroke="#000" stroke-linecap="round" stroke-linejoin="round" d="M410.29 349h10.68"/><path stroke="#f08300" stroke-linecap="round" stroke-linejoin="round" stroke-width="4" d="M543.98 349h-124.4"/><path stroke="#0068b7" stroke-linecap="round" stroke-linejoin="round" stroke-width="4" d="M544.19 361H318M334.83 360.5V77.51h80.96M394.31 209.67h-59.48"/><path fill="#fff" stroke="#000" stroke-linejoin="round" d="M402.803 110.493v4.007h-28.439v126.493h24.946V245h-24.946v125.993H544V375H311v-4.007h59.373V112.496c0-1.106.893-2.003 1.995-2.003z"/><path fill="#fff" d="M438.86 50H394v91.33h44.86z"/><path stroke="#231815" stroke-miterlimit="10" stroke-width="1.5" d="M438.86 50H394v91.33h44.86z"/><path stroke="#231815" stroke-miterlimit="10" d="M403.95 112.72c0-3.45 2.79-6.24 6.24-6.24s6.24 2.79 6.24 6.24-2.79 6.24-6.24 6.24-6.24-2.79-6.24-6.24ZM403.95 77.51c0-3.45 2.79-6.24 6.24-6.24s6.24 2.79 6.24 6.24-2.79 6.24-6.24 6.24-6.24-2.79-6.24-6.24Z"/><path fill="#231815" d="M427.1 68.98h-2.59v53.37h2.59z"/><path fill="#231815" d="M469.33 91.86h-44.82v7.6h44.82z"/><path fill="#fff" stroke="#000" stroke-miterlimit="10" d="M312.048 326c3.216 0 5.814 2.262 5.814 5.038v71.923c0 2.776-2.598 5.038-5.814 5.038H174.814c-3.216 0-5.814-2.262-5.814-5.038v-71.923c0-2.776 2.598-5.038 5.814-5.038h137.234Z"/><path stroke="gray" stroke-miterlimit="10" d="M314.981 402.96c0 1.388-1.312 2.545-2.933 2.545H174.813c-1.62 0-2.932-1.131-2.932-2.545v-71.922c0-1.388 1.312-2.545 2.932-2.545h137.209c1.621 0 2.933 1.131 2.933 2.545v71.922z"/><path fill="#000" d="M227.086 352.718v1.596c0 2.002 1.428 4.228 3.248 5.082l-.658.924c-1.4-.7-2.576-2.17-3.15-3.85-.574 1.834-1.792 3.43-3.206 4.158l-.672-.91c1.792-.896 3.304-3.276 3.304-5.404v-1.596h-2.87v-.952h6.79v.952zm7.504 2.828v.966h-2.072v6.524h-1.148v-12.544h1.148v5.054zm6.831 6.594c1.96 0 3.122-.49 3.122-1.372s-1.162-1.372-3.122-1.372c-1.988 0-3.15.49-3.15 1.372s1.162 1.372 3.15 1.372m0-3.64c2.66 0 4.284.812 4.284 2.268s-1.624 2.268-4.284 2.268c-2.688 0-4.312-.812-4.312-2.268s1.624-2.268 4.312-2.268m.574-1.82h5.11v.924h-11.368v-.924h5.11v-1.456h-3.682v-4.172h8.526v.924h-7.378v2.324h7.462v.924h-3.78zm15.385-2.128v-2.562h-6.188v2.562zm1.134-3.486v4.41h-8.442v-4.41zm-7.322 8.106v2.646h7.532v.938h-8.68v-3.584zm-2.604-2.268h11.41v.924h-5.04v2.534h-1.148v-2.534h-5.222zm-28.487 16.982v1.134c0 2.184.938 4.368 2.674 5.348l-.7.84c-1.218-.728-2.086-2.072-2.52-3.668-.434 1.722-1.344 3.192-2.59 3.976l-.7-.854c1.75-1.05 2.73-3.332 2.73-5.642v-1.134h-2.38v-.938h5.726v.938zm3.36 2.1v-4.228h1.092v11.62h-1.092v-6.454h-2.072v-.938zm2.52-4.522h1.106v12.558h-1.106zm6.677 8.722c1.19 0 2.03-1.316 2.03-3.36 0-2.03-.84-3.346-2.03-3.346-1.204 0-2.044 1.316-2.044 3.346 0 2.044.84 3.36 2.044 3.36m5.838-8.708h1.148v12.586h-1.148v-6.86h-2.73c-.112 2.464-1.358 4.004-3.108 4.004-1.834 0-3.136-1.708-3.136-4.382s1.302-4.382 3.136-4.382c1.694 0 2.926 1.47 3.108 3.822h2.73zm14.091 6.076-.546.896c-1.428-.462-2.506-1.456-3.038-2.702-.532 1.428-1.666 2.548-3.164 3.08l-.588-.91c1.89-.658 3.15-2.282 3.15-4.088v-.49h-2.814v-.924h6.734v.924h-2.772v.49c0 1.638 1.19 3.108 3.038 3.724m-1.526 5.558c1.848 0 2.982-.518 2.982-1.414 0-.882-1.134-1.4-2.982-1.4-1.876 0-2.996.518-2.996 1.4 0 .896 1.12 1.414 2.996 1.414m0-3.724c2.548 0 4.13.854 4.13 2.31 0 1.47-1.582 2.324-4.13 2.324-2.576 0-4.144-.854-4.144-2.324 0-1.456 1.568-2.31 4.144-2.31m3.99-4.732h1.862v.966h-1.862v3.444h-1.148v-7.574h1.148zm7.755-.084v.966c0 2.1 1.428 4.144 3.304 4.956l-.644.896c-1.442-.658-2.632-2.016-3.206-3.668-.56 1.75-1.75 3.178-3.192 3.878l-.644-.868c1.862-.882 3.248-2.996 3.248-5.194v-.966h-2.912v-.924h2.898v-1.946h1.162v1.946h2.856v.924zm4.508-3.108h1.162v12.558h-1.162z"/><path fill="#fff" stroke="#000" stroke-miterlimit="10" d="M537.048 185c3.216 0 5.814 2.262 5.814 5.038v71.923c0 2.776-2.598 5.038-5.814 5.038H399.814c-3.216 0-5.814-2.262-5.814-5.038v-71.923c0-2.776 2.598-5.038 5.814-5.038h137.234Z"/><path stroke="gray" stroke-miterlimit="10" d="M539.981 261.96c0 1.388-1.312 2.545-2.933 2.545H399.813c-1.62 0-2.932-1.131-2.932-2.545v-71.922c0-1.388 1.312-2.545 2.932-2.545h137.209c1.621 0 2.933 1.131 2.933 2.545v71.922z"/><path fill="#000" d="M441.965 222.276h5.796c0 3.192-2.212 5.446-5.908 6.454l-.448-.91c3.066-.826 4.9-2.478 5.124-4.606h-4.564zm2.422 7.84v2.814h5.642v-2.814zm-1.134 3.738v-4.662h7.91v4.662zm9.772-9.31v.952h-1.862v3.108h-1.148v-7.14h1.148v3.08zm5.753-.826v1.596c0 2.128 1.512 4.298 3.36 5.082l-.644.924c-1.456-.672-2.688-2.114-3.29-3.836-.574 1.834-1.806 3.416-3.234 4.144l-.672-.924c1.806-.854 3.332-3.22 3.332-5.39v-1.596h-2.912v-.952h7.014v.952zm4.648-2.226h1.148v12.544h-1.148zm17.479-.014v9.422h-1.106v-9.422zm-3.556 9.058v-4.956h-1.96v-.938h1.96v-2.912h1.078v8.806zm-.868-2.646-.63.882c-1.134-.532-1.946-1.47-2.38-2.59-.448 1.232-1.316 2.324-2.492 2.912l-.644-.882c1.624-.784 2.576-2.506 2.576-4.004v-1.848h1.106v1.848c0 1.484.896 2.968 2.464 3.682m-2.618 4.928h7.406v.938h-8.554v-4.004h1.148zm13.719-10.262v2.254c0 2.282 1.428 4.564 3.248 5.432l-.672.91c-1.428-.714-2.576-2.212-3.15-3.976-.546 1.862-1.708 3.444-3.122 4.2l-.7-.91c1.82-.91 3.248-3.332 3.248-5.656v-2.254zm4.802-1.078h1.148v12.572h-1.148v-7.378h-2.912v-.938h2.912zM399.502 160.436v2.03c1.176-.07 2.38-.168 3.5-.35l.098.854c-2.814.532-5.88.546-8.134.546l-.14-.952c1.036 0 2.254 0 3.528-.042v-2.086h-2.59v-5.824h6.482v.924h-5.334v1.498h5.068v.91h-5.068v1.568h5.39v.924zm4.326-6.972h1.148v12.6h-1.148zm14.083.028v6.496h-1.148v-6.496zm-2.688 5.236-.574.896c-1.442-.504-2.59-1.554-3.164-2.884a5.33 5.33 0 0 1-3.192 3.122l-.588-.896c1.89-.658 3.192-2.338 3.192-4.158v-.952h1.148v.952c0 1.736 1.316 3.304 3.178 3.92m-4.27 6.258h7.392v.91h-8.526v-3.122h6.972v-1.246h-7v-.91h8.134v3.024h-6.972zm17.816-3.038v-3.304h-3.5v3.304zm4.06-8.47h1.148v12.586h-1.148v-7h-2.94v3.822h-5.754v-8.414h1.134v3.262h3.5v-3.262h1.12v3.668h2.94zm13.691 4.886v.896h-8.526v-5.32h8.456v.896h-7.308v1.316h6.972v.868h-6.972v1.344zm-7.406 3.906v2.548h7.56v.938h-8.708v-3.486zm-2.618-1.834h11.354v.924h-11.354zM54.68 441.49l-.336-.868c2.324-.154 4.242-.924 4.438-2.17h-3.878v-.868h3.948v-1.19H60v1.19h3.934v.868H60.07c.196 1.246 2.086 2.016 4.424 2.17l-.35.868c-2.1-.168-3.948-.812-4.718-1.974-.77 1.162-2.632 1.806-4.746 1.974m10.402 1.442H60v1.162h3.64v2.744h-7.378v1.19h7.756v.868h-8.876v-2.884h7.364v-1.064H55.1v-.854h3.738v-1.162h-5.082v-.882h11.326zm10.695-6.44h1.148v6.734h-1.148zm-6.944 7.35h1.134v1.54h5.824v-1.54h1.134v5.026h-8.092zm1.134 2.436v1.666h5.824v-1.666zm.21-9.198c1.904 0 3.29 1.176 3.29 2.884 0 1.736-1.386 2.898-3.29 2.898-1.89 0-3.262-1.162-3.262-2.898 0-1.708 1.372-2.884 3.262-2.884m0 .952c-1.246 0-2.142.798-2.142 1.932 0 1.148.896 1.946 2.142 1.946 1.274 0 2.17-.798 2.17-1.946 0-1.134-.896-1.932-2.17-1.932m18.087 2.52v-2.562h-6.188v2.562zm1.134-3.486v4.41h-8.442v-4.41zm-7.322 8.106v2.646h7.532v.938h-8.68v-3.584zm-2.604-2.268h11.41v.924h-5.04v2.534h-1.148v-2.534h-5.222zm23.318-.392-.56.91c-1.414-.476-2.492-1.484-3.038-2.758-.532 1.4-1.666 2.52-3.15 3.052l-.588-.924c1.904-.644 3.136-2.254 3.136-4.06v-.448h-2.8v-.938h6.72v.938h-2.758v.434c0 1.68 1.204 3.178 3.038 3.794m-4.298 2.842v2.59h5.628v-2.59zm-1.12 3.514v-4.424h7.882v4.424zm9.744-9.254v.952h-1.862v3.304h-1.148v-7.378h1.148v3.122zm3.792 5.712v2.618h6.314v-2.618zm-1.12 3.542v-4.466h8.568v4.466zm8.19-7.098h1.806v.924h-11.41v-.924h8.442c.364-1.568.364-2.716.364-3.696h-7.35v-.924h8.484v.924c0 .98 0 2.128-.336 3.696m13.7.784-.546.896c-1.428-.462-2.506-1.456-3.038-2.702-.532 1.428-1.666 2.548-3.164 3.08l-.588-.91c1.89-.658 3.15-2.282 3.15-4.088v-.49h-2.814v-.924h6.734v.924h-2.772v.49c0 1.638 1.19 3.108 3.038 3.724m-1.526 5.558c1.848 0 2.982-.518 2.982-1.414 0-.882-1.134-1.4-2.982-1.4-1.876 0-2.996.518-2.996 1.4 0 .896 1.12 1.414 2.996 1.414m0-3.724c2.548 0 4.13.854 4.13 2.31 0 1.47-1.582 2.324-4.13 2.324-2.576 0-4.144-.854-4.144-2.324 0-1.456 1.568-2.31 4.144-2.31m3.99-4.732h1.862v.966h-1.862v3.444h-1.148v-7.574h1.148zm7.755-.084v.966c0 2.1 1.428 4.144 3.304 4.956l-.644.896c-1.442-.658-2.632-2.016-3.206-3.668-.56 1.75-1.75 3.178-3.192 3.878l-.644-.868c1.862-.882 3.248-2.996 3.248-5.194v-.966h-2.912v-.924h2.898v-1.946h1.162v1.946h2.856v.924zm4.508-3.108h1.162v12.558h-1.162zM487.696 334.182c-1.61 0-2.618-.672-3.29-1.4l.644-.84c.602.63 1.386 1.176 2.548 1.176 1.218 0 2.086-.728 2.086-1.904 0-1.232-.826-2.058-3.192-2.058v-.98c2.114 0 2.842-.854 2.842-1.96 0-.994-.672-1.624-1.736-1.652-.826.028-1.554.448-2.128 1.022l-.686-.812c.77-.714 1.68-1.232 2.87-1.232 1.722 0 2.982.924 2.982 2.576 0 1.246-.742 2.072-1.834 2.478v.056c1.218.28 2.184 1.204 2.184 2.604 0 1.834-1.47 2.926-3.29 2.926M487.654 399.182c-1.596 0-2.576-.672-3.262-1.358l.63-.84c.588.588 1.33 1.134 2.52 1.134 1.204 0 2.184-.924 2.184-2.422 0-1.47-.84-2.338-2.128-2.338-.686 0-1.12.21-1.708.602l-.686-.42.322-4.802h4.998v1.092h-3.878l-.252 2.968c.448-.252.91-.406 1.526-.406 1.708 0 3.094 1.008 3.094 3.262s-1.624 3.528-3.36 3.528M600.827 277l-3.276-10.262h1.358l1.666 5.558c.364 1.204.602 2.184.994 3.388h.056c.378-1.204.63-2.184.994-3.388l1.652-5.558h1.316L602.325 277zm6.051 0v-7.602h1.274V277zm.644-9.17c-.504 0-.882-.35-.882-.826 0-.518.378-.826.882-.826s.882.308.882.826c0 .476-.378.826-.882.826m7.117 9.352c-2.576 0-4.382-2.058-4.382-5.348s1.806-5.292 4.382-5.292 4.382 2.002 4.382 5.292-1.806 5.348-4.382 5.348m0-1.134c1.834 0 3.052-1.652 3.052-4.214 0-2.576-1.218-4.158-3.052-4.158-1.848 0-3.052 1.582-3.052 4.158 0 2.562 1.204 4.214 3.052 4.214m6.485.952v-7.602h1.05l.112 1.092h.042c.728-.714 1.512-1.288 2.548-1.288 1.596 0 2.324 1.036 2.324 2.982V277h-1.274v-4.648c0-1.428-.434-2.03-1.442-2.03-.784 0-1.316.392-2.086 1.162V277zm8.685 3.276a2.3 2.3 0 0 1-.896-.154l.252-1.022c.154.056.378.126.574.126.868 0 1.414-.7 1.722-1.638l.168-.574-3.052-7.616h1.33l1.554 4.228c.224.658.49 1.442.728 2.128h.07c.21-.686.434-1.456.644-2.128l1.358-4.228h1.246l-2.87 8.232c-.532 1.498-1.316 2.646-2.828 2.646M635.7 277l2.506-3.962-2.31-3.64h1.372l1.022 1.68c.238.42.504.84.756 1.26h.056c.238-.42.462-.84.686-1.26l.938-1.68h1.33l-2.31 3.766 2.506 3.836h-1.4l-1.12-1.778a22 22 0 0 0-.812-1.358h-.07c-.266.434-.518.896-.784 1.358L637.044 277z"/><path fill="url(#a)" stroke="#231815" stroke-linecap="round" stroke-linejoin="round" stroke-width=".5" d="M720.74 333.51H512.41l-3.77-8.46c.08-1.33.36-2.65.8-3.9.47-1.32 1.12-2.57 1.9-3.73.84-1.27 1.83-2.45 2.9-3.53a33.5 33.5 0 0 1 3.83-3.32c1.51-1.14 3.09-2.17 4.72-3.13 1.81-1.07 3.67-2.04 5.57-2.94 2.09-.99 4.22-1.9 6.38-2.73 2.35-.91 4.74-1.74 7.14-2.51 5.36-1.71 10.81-3.11 16.32-4.29 6.14-1.32 12.33-2.37 18.55-3.21 6.68-.9 13.39-1.56 20.11-2.01 6.97-.47 13.96-.72 20.94-.75v10.42h.26l-.08-8.8.04-.63.02-.25v-.33l.01-.03v-.03l.03-.03.02-.03.02-.03.02-.03.03-.03.03-.02.03-.02.03-.02.04-.02h.04l.04-.03h.04l.04-.01h.01c1.76 0 3.52 0 5.28.03h.03l.07.01.07.02.06.03.05.04.04.04.04.04.03.04.02.04v.04l.03.03v.03l.01.03v.41l.01.06v.06l.01.06v.07l.01.07v.07l.01.07v.07l.01.08v.77l-.09 8.16h.28v-10.42c6.21.09 12.43.35 18.63.79s11.98 1.01 17.94 1.79c5.61.73 11.19 1.63 16.74 2.74 5.06 1.01 10.09 2.2 15.06 3.62 4.39 1.26 8.73 2.69 12.96 4.41 1.89.76 3.75 1.58 5.58 2.47a65 65 0 0 1 4.93 2.63c1.46.86 2.89 1.78 4.26 2.78 1.24.91 2.43 1.87 3.55 2.93 1.95 1.84 3.7 3.96 4.88 6.35.05.1.09.19.12.3l.05.08.04.09q.15.315.27.63.45 1.095.72 2.25c.18.77.29 1.52.33 2.3l-9.86 8.34z"/><path fill="url(#b)" d="M736 334.18c-.2-1-.52-1.97-.94-2.89-.45-1-1.01-1.96-1.65-2.86-.7-1-1.5-1.93-2.35-2.81-.86-.89-1.78-1.72-2.74-2.51-.34-.28-.69-.55-1.04-.82-.07-.06-.15-.11-.23-.17l-.08-.06c-.1-.08-.21-.16-.31-.23s-.2-.15-.3-.22c-.23-.16-.45-.33-.68-.49-.33-.23-.67-.46-1.01-.69l-.35-.23c-.1-.07-.21-.13-.31-.2-.43-.27-.86-.54-1.29-.8-.15-.09-.29-.18-.44-.26-.56-.33-1.13-.65-1.7-.97-.19-.11-.39-.21-.59-.32-.94-.51-1.89-.99-2.85-1.46-.33-.16-.66-.32-1-.48-.2-.09-.4-.19-.6-.28-3.7-1.71-7.52-3.17-11.39-4.47-4.42-1.48-8.9-2.75-13.42-3.86-.4-.1-.8-.2-1.2-.29-1.29-.31-2.59-.6-3.89-.89-.44-.1-.88-.19-1.32-.29l-.29-.06c-1.25-.26-2.51-.52-3.76-.76l-1.27-.24-.79-.15c-6.22-1.15-12.48-2.07-18.77-2.8-6.66-.77-13.34-1.33-20.02-1.7-.64-.04-1.29-.07-1.93-.1-.34-.02-.68-.03-1.03-.05h-.29l-.37-.03h-.33c-.58-.04-1.17-.06-1.75-.09h-.35l-.37-.03-.66-.02-.84-.03c-2.87-.09-5.74-.16-8.61-.18-.96 0-1.92-.01-2.88-.02-3.18 0-6.35.03-9.53.11h-.32l-.69.02h-.31l-.37.02c-.69.02-1.39.04-2.08.07h-.32l-.4.03-.47.02-.87.03h-.16l-1.92.09-.63.03c-.24.01-.48.02-.73.04q-1.875.09-3.75.21c-1.49.09-2.99.19-4.48.3-.49.04-.99.07-1.48.11-7.26.57-14.5 1.37-21.7 2.45-2.29.34-4.57.71-6.84 1.12 0 0-.17.03-.21.04h-.02c-1.54.28-3.09.57-4.63.87l-1.51.3c-1.6.33-3.19.67-4.77 1.03l-1.56.36c-4.68 1.1-9.32 2.36-13.89 3.84-4.01 1.3-7.97 2.77-11.82 4.49-3.26 1.46-6.44 3.09-9.45 5.03-2.46 1.58-4.81 3.36-6.84 5.44-.79.81-1.53 1.66-2.2 2.58-.61.83-1.16 1.7-1.62 2.62-.42.85-.77 1.74-1.02 2.65-.24.87-.38 1.77-.42 2.67l.06 1.82 5.31 48.02c.12 1.05.38 2.08.76 3.06.41 1.07.96 2.08 1.59 3.03.71 1.06 1.52 2.05 2.41 2.98 1 1.04 2.08 2 3.21 2.9l1.85 1.46c1.24.98 2.53 1.88 3.87 2.72 1.49.94 3.02 1.8 4.58 2.61 3.6 1.86 7.36 3.42 11.18 4.79l163.64.05c.1-.04.21-.08.31-.11.19-.07.39-.14.58-.21.49-.18.98-.36 1.47-.55 1.41-.54 2.8-1.11 4.19-1.71 2.47-1.08 4.89-2.27 7.24-3.61 2.01-1.16 3.97-2.43 5.78-3.87l1.85-1.46c1.13-.89 2.21-1.85 3.21-2.9.88-.92 1.7-1.91 2.41-2.97.63-.95 1.18-1.96 1.59-3.03.38-.98.64-2.02.76-3.06l5.35-48.01.06-.79c.04-.97-.04-1.95-.23-2.9z"/><path fill="url(#c)" stroke="#231815" stroke-linecap="round" stroke-linejoin="round" stroke-width=".5" d="M639.34 431.75c4.34-.39 8.66-.92 12.96-1.62 3.94-.64 7.86-1.42 11.73-2.39 3.4-.85 6.77-1.85 10.06-3.07 2.75-1.02 5.45-2.19 8.01-3.63.19-.11.39-.22.58-.33.09-.05.17-.1.26-.15.07-.04.14-.08.2-.12l18.57-11.22 1.74-1.05c1.34-.81 1.93-1.15 3.27-1.96.28-.12.56-.25.83-.38h.03c.23-.12.45-.22.68-.33a67 67 0 0 0 5.28-2.75l.03-.02c.19-.11.39-.23.58-.34 1.85-1.1 3.65-2.32 5.32-3.69 1.42-1.16 2.75-2.43 3.91-3.86.98-1.21 1.83-2.54 2.44-3.98.54-1.28.88-2.66.94-4.05a11.2 11.2 0 0 0-.39-3.44c-.4-1.45-1.07-2.83-1.91-4.09-.97-1.47-2.16-2.79-3.45-3.99a35 35 0 0 0-3.13-2.57c-.06-.04-.12-.09-.18-.13-.19-.14-.38-.27-.57-.41-2.69-1.88-5.57-3.47-8.54-4.88-3.55-1.68-7.21-3.11-10.92-4.37-4.27-1.45-8.62-2.68-13.01-3.74-4.88-1.19-9.8-2.18-14.75-3.02-1.27-.21-2.53-.42-3.8-.62-.43-.07-.86-.13-1.28-.19-1-.15-1.99-.29-2.99-.43l-.29-.04-.32-.04c-.19-.03-.39-.05-.58-.08-.26-.03-.52-.07-.78-.1-1.52-.2-3.04-.38-4.56-.55-.51-.06-1.02-.11-1.54-.17l-.17-.02c-1.56-.17-3.13-.32-4.69-.46h-.05c-.84-.08-1.69-.15-2.53-.22l-.19-.02c-.3-.02-.6-.05-.9-.07h-.1l-.57-.05c-.7-.05-1.41-.11-2.11-.15h-.19l-.4-.04c-.82-.06-1.63-.11-2.45-.16-.4-.02-.8-.05-1.2-.07h-.07c-1.72-.1-3.44-.18-5.15-.25-.58-.02-1.15-.05-1.73-.07a341.69 341.69 0 0 0-16.99-.17c-1.93.03-3.85.08-5.78.14-.64.02-1.28.04-1.92.07-.25 0-.51.02-.76.03-1.93.08-3.85.17-5.78.29-.9.05-1.81.11-2.71.17-1.65.11-3.3.23-4.95.37-.55.05-1.09.09-1.64.14-1.04.09-2.09.19-3.13.29h-.15c-.49.06-.99.11-1.48.17-.69.07-1.39.15-2.08.23-4.71.53-9.4 1.17-14.08 1.95-1.5.25-2.99.51-4.48.79-.56.1-1.12.21-1.68.32-1.51.29-3.02.6-4.52.93-.49.11-.98.21-1.47.33-.8.18-1.59.36-2.39.55-.26.06-.52.13-.79.19-2.47.6-4.93 1.25-7.37 1.96-.78.23-1.56.46-2.33.7-.46.14-.92.29-1.38.43-.13.04-.25.08-.38.12-.29.09-.58.19-.86.28l-1.77.6c-.19.07-.39.14-.58.2-.09.03-.18.06-.27.1-.36.13-.72.26-1.07.39-.13.05-.27.1-.4.15l-.57.21c-.08.03-.15.06-.23.09l-.23.09c-.09.04-.19.07-.28.11l-.06.02c-.15.06-.31.12-.46.18l-.18.07c-.19.08-.39.15-.58.23-.16.07-.32.13-.49.2l-.3.12-.11.05c-.06.03-.13.05-.19.08l-.2.08c-.1.04-.19.08-.29.12-.17.07-.35.15-.52.22-.08.04-.17.07-.25.11-.17.07-.33.15-.5.22-.1.05-.2.09-.31.14-.17.08-.35.16-.52.23-.4.18-.81.37-1.21.56-.13.06-.26.13-.39.19-.1.05-.2.1-.31.15-2.09 1.02-4.14 2.13-6.1 3.37-.6.38-1.18.77-1.76 1.17-.27.19-.53.37-.79.57-1.17.85-2.29 1.77-3.34 2.77-.93.88-1.8 1.83-2.57 2.85-.69.91-1.3 1.88-1.78 2.91-.44.94-.78 1.93-.98 2.95-.1.54-.17 1.08-.19 1.63-.03.73.01 1.47.13 2.2s.31 1.48.57 2.19c.56 1.56 1.44 3.01 2.46 4.32 1.22 1.56 2.65 2.94 4.18 4.19 1.83 1.49 3.8 2.8 5.84 3.98a54.424 54.424 0 0 0 2.93 1.6c.29.15.58.3.87.44l.03.02c.8.4 1.61.78 2.43 1.15.28.13.71.32.99.45l.28.17.22.13.31.19.32.2.34.21.36.22.37.23.49.3.52.32.43.26.11.07.22.13.11.07.56.34.68.42.34.21.35.21.23.14.3.18 16.63 10.07c1.2.72 2.43 1.38 3.69 1.99 1.41.68 2.85 1.29 4.3 1.86 3.34 1.3 6.78 2.36 10.25 3.26 3.99 1.03 8.03 1.86 12.1 2.54 4.46.74 8.95 1.3 13.44 1.72l39.54.02z"/><path fill="url(#d)" stroke="#231815" stroke-linecap="round" stroke-linejoin="round" stroke-width=".5" d="M620.19 385.25a.8.8 0 0 1-.29-.26.9.9 0 0 1-.16-.39c0-.05-.01-.1-.01-.15v-.83l.11-6.68c0-.24.11-.48.29-.65.16-.15.38-.24.6-.24s.45.08.62.23c.09.08.16.18.21.29.05.12.08.25.08.38l-.1 6.68-.01.83c0 .17-.05.34-.15.48-.09.13-.21.24-.34.31s-.27.1-.42.1-.3-.04-.43-.11z"/><path fill="url(#e)" d="M704.86 390.98c.13-.11.25-.23.35-.37.06-.09.12-.18.12-.28 0-.03 0-.05-.02-.08a.07.07 0 0 0-.06-.04c-.03-.01-.06-.01-.09-.01-.04 0-.09.01-.13.02-.12.03-.23.09-.34.15-.14.08-.27.18-.39.28l-7.22 6.2c-.13.11-.26.24-.35.38-.04.05-.07.1-.09.16q-.03.06-.03.12c0 .02 0 .05.02.07.01.02.03.03.05.04.03.01.05.01.08.01.04 0 .07 0 .11-.01.1-.02.2-.07.29-.12.12-.07.24-.14.35-.23.04-.03.08-.07.12-.1 2.36-2.02 4.71-4.04 7.07-6.06"/><path stroke="#231815" stroke-linecap="round" stroke-linejoin="round" stroke-width=".5" d="m704.71 391.11.15-.13c.13-.11.25-.23.35-.37.06-.09.12-.18.12-.28 0-.03 0-.05-.02-.08a.07.07 0 0 0-.06-.04c-.03-.01-.06-.01-.09-.01-.04 0-.09.01-.13.02-.12.03-.23.09-.34.15-.14.08-.27.18-.39.28l-7.22 6.2c-.13.11-.26.24-.35.38-.04.05-.07.1-.09.16q-.03.06-.03.12c0 .02 0 .05.02.07.01.02.03.03.05.04.03.01.05.01.08.01.04 0 .07 0 .11-.01.1-.02.2-.07.29-.12.12-.07.24-.14.35-.23.04-.03.08-.07.12-.1 2.36-2.02 4.71-4.04 7.07-6.06"/><path fill="url(#f)" d="M703.98 390.08c.13-.11.25-.23.35-.38.06-.09.12-.19.12-.29 0-.03 0-.06-.02-.08a.1.1 0 0 0-.06-.05.3.3 0 0 0-.09-.02c-.04 0-.09 0-.13.02-.12.03-.23.08-.34.14-.14.08-.27.17-.39.28l-7.2 6.19c-.13.11-.25.24-.35.38-.06.09-.12.19-.12.29 0 .02 0 .05.02.07.01.02.03.03.05.04.03.01.05.02.08.02.04 0 .07 0 .11-.01.1-.02.2-.06.29-.11.12-.06.24-.14.35-.22.04-.03.08-.06.12-.1l7.06-6.07"/><path stroke="#231815" stroke-linecap="round" stroke-linejoin="round" stroke-width=".5" d="m703.85 390.2.13-.12c.13-.11.25-.23.35-.38.06-.09.12-.19.12-.29 0-.03 0-.06-.02-.08a.1.1 0 0 0-.06-.05.3.3 0 0 0-.09-.02c-.04 0-.09 0-.13.02-.12.03-.23.08-.34.14-.14.08-.27.17-.39.28l-7.2 6.19c-.13.11-.25.24-.35.38-.06.09-.12.19-.12.29 0 .02 0 .05.02.07.01.02.03.03.05.04.03.01.05.02.08.02.04 0 .07 0 .11-.01.1-.02.2-.06.29-.11.12-.06.24-.14.35-.22.04-.03.08-.06.12-.1l7.06-6.07"/><path fill="url(#g)" stroke="#231815" stroke-linecap="round" stroke-linejoin="round" stroke-width=".5" d="M695.83 395.38a2.1 2.1 0 0 1-.72.41c-.04.01-.08.02-.13.02-.03 0-.07 0-.1-.02-.02-.01-.05-.03-.06-.05-.02-.02-.02-.05-.02-.08 0-.11.06-.21.12-.3.1-.15.22-.27.35-.39l7.18-6.19c.12-.1.25-.2.39-.27.11-.06.22-.11.34-.14.04 0 .08-.02.13-.01.03 0 .07 0 .09.02.02.01.05.03.06.05.01.03.02.06.02.08 0 .11-.06.21-.12.3-.1.15-.22.27-.35.38z"/><path fill="url(#h)" stroke="#231815" stroke-linecap="round" stroke-linejoin="round" stroke-width=".5" d="M694.78 394.5q-.18.15-.39.27c-.11.06-.22.11-.33.14-.04 0-.08.02-.13.01-.03 0-.07 0-.1-.02-.02-.01-.05-.03-.06-.05-.02-.03-.02-.06-.02-.09 0-.11.05-.22.12-.31q.15-.225.36-.39l7.18-6.19q.18-.15.39-.27c.11-.06.22-.11.34-.13.04 0 .08-.01.13-.01.03 0 .07 0 .1.02.02.01.05.03.06.06.02.03.02.06.02.09 0 .11-.06.21-.12.31-.1.15-.22.27-.35.39l-7.18 6.19z"/><path fill="url(#i)" stroke="#231815" stroke-linecap="round" stroke-linejoin="round" stroke-width=".5" d="M692.59 393.87c0-.08.03-.15.06-.22.02-.03.03-.06.05-.09.07-.11.15-.21.25-.3.04-.04.07-.07.11-.1l7.18-6.19q.18-.15.39-.27c.11-.06.22-.11.34-.13.04 0 .09-.01.13 0 .03 0 .07 0 .1.03.02.01.05.04.06.06.02.03.02.06.02.09 0 .11-.06.22-.12.31-.1.15-.22.27-.35.39l-7.18 6.19c-.12.1-.25.19-.38.27-.11.06-.22.11-.33.13-.04 0-.09.01-.13.01-.03 0-.07 0-.1-.02a.09.09 0 0 1-.06-.06c-.02-.03-.02-.06-.02-.09z"/><path fill="url(#j)" d="m692.58 392.59 6.97-6c.13-.11.25-.24.35-.39.06-.1.12-.21.12-.32 0-.03 0-.07-.02-.1-.01-.03-.04-.05-.06-.06a.17.17 0 0 0-.1-.03h-.13c-.12.02-.23.07-.34.12-.14.07-.27.16-.39.26l-7.2 6.19c-.14.12-.26.25-.36.4-.06.1-.12.21-.12.33 0 .03 0 .07.02.1.01.03.04.05.06.06.03.02.06.02.1.03h.13c.12-.02.23-.07.33-.12.14-.07.26-.16.38-.26"/><path stroke="#231815" stroke-linecap="round" stroke-linejoin="round" stroke-width=".5" d="m692.35 392.79.23-.2 6.97-6c.13-.11.25-.24.35-.39.06-.1.12-.21.12-.32 0-.03 0-.07-.02-.1-.01-.03-.04-.05-.06-.06a.17.17 0 0 0-.1-.03h-.13c-.12.02-.23.07-.34.12-.14.07-.27.16-.39.26l-7.2 6.19c-.14.12-.26.25-.36.4-.06.1-.12.21-.12.33 0 .03 0 .07.02.1.01.03.04.05.06.06.03.02.06.02.1.03h.13c.12-.02.23-.07.33-.12.14-.07.26-.16.38-.26"/><path fill="url(#k)" stroke="#231815" stroke-linecap="round" stroke-linejoin="round" stroke-width=".5" d="m691.29 391.68-.31.27c-.12.1-.24.19-.38.26-.1.05-.21.1-.33.12-.08.01-.16.01-.23-.03a.13.13 0 0 1-.06-.07c-.02-.03-.02-.07-.02-.1 0-.12.05-.23.12-.33.1-.16.22-.29.36-.4 2.41-2.06 4.81-4.12 7.22-6.19.12-.1.25-.19.38-.26.1-.05.21-.1.34-.12.08-.01.16-.01.23.03.03.02.05.04.06.07.02.03.02.07.02.1 0 .12-.06.23-.12.33-.1.15-.22.28-.35.39-2.3 1.98-4.6 3.95-6.91 5.93z"/><path fill="url(#l)" stroke="#231815" stroke-linecap="round" stroke-linejoin="round" stroke-width=".5" d="M614.89 362.07a6.15 6.15 0 0 0 1.41 4.25c.53.65 1.2 1.19 1.95 1.56.8.41 1.7.63 2.6.63s1.81-.21 2.62-.6c.76-.37 1.44-.9 2-1.54.51-.6.92-1.29 1.18-2.03s.37-1.46.36-2.21a5.784 5.784 0 0 0-1.59-3.86c-.54-.57-1.2-1.03-1.92-1.34-.38-.17-.78-.3-1.19-.38s-.84-.14-1.27-.14c-.85 0-1.7.16-2.48.49-.73.31-1.4.76-1.96 1.32a5.897 5.897 0 0 0-1.71 3.85"/><path fill="url(#m)" stroke="#231815" stroke-linecap="round" stroke-linejoin="round" stroke-width=".5" d="M626.22 361.72v-.18l-.05-.49-.1-.49-.14-.47-.19-.45-.23-.43-.27-.4-.31-.37-.34-.34-.37-.31-.39-.27-.41-.23-.43-.19-.44-.15-.44-.11-.45-.07-.46-.04h-.45l-.46.04-.46.08-.45.12-.44.16-.43.2-.42.24-.4.28-.37.32-.34.35-.31.38-.27.41-.23.44-.19.46-.15.48-.1.5-.05.5v.02c-.04.68.04 1.37.22 2.02s.48 1.32.88 1.9c.42.61.95 1.14 1.58 1.53.66.42 1.43.68 2.21.74s1.6-.1 2.32-.43 1.3-.79 1.8-1.35c.47-.54.84-1.16 1.11-1.82a6.15 6.15 0 0 0 .44-2.54z"/><path fill="url(#n)" stroke="#231815" stroke-linecap="round" stroke-linejoin="round" stroke-width=".5" d="M538.15 387.51c-.13-.11-.24-.24-.34-.39a.6.6 0 0 1-.11-.31c0-.03 0-.06.02-.09.01-.02.04-.04.06-.06.03-.02.06-.02.1-.03.04 0 .09 0 .13.01a1 1 0 0 1 .34.13c.14.08.27.17.39.28l7.09 6.26c.13.11.24.24.34.38.06.09.11.2.12.31 0 .03 0 .06-.02.09-.01.02-.03.05-.06.06-.03.02-.06.02-.1.03h-.13a1 1 0 0 1-.35-.14c-.14-.08-.28-.17-.4-.28l-7.09-6.26z"/><path stroke="#231815" stroke-linecap="round" stroke-linejoin="round" stroke-width=".5" d="m689.96 410.11.01-.02"/><path fill="url(#o)" stroke="#231815" stroke-linecap="round" stroke-linejoin="round" stroke-width=".5" d="M598.74 431.15c-4.4-.44-8.79-1.02-13.15-1.79-3.95-.69-7.87-1.54-11.75-2.59-3.35-.91-6.66-1.98-9.86-3.3-1.39-.57-2.76-1.19-4.09-1.87-1.19-.61-2.36-1.26-3.48-1.99-.15-.1-.31-.2-.46-.3l-.27-.18-.2-.14c-.2-.14-.39-.28-.58-.42l-.03-.02c-.75-.56-1.48-1.16-2.15-1.81-.6-.58-1.16-1.2-1.65-1.86-.44-.59-.83-1.23-1.14-1.9-.28-.61-.5-1.26-.62-1.93-.03-.15-.05-.31-.07-.47 0-.07-.02-.15-.02-.22-.01-.13-.02-.25-.02-.38v-.67a7.922 7.922 0 0 1 .41-2.04c.03-.07.05-.15.08-.22.63-1.67 1.78-3.14 3.07-4.39.8-.77 1.66-1.46 2.56-2.1 1.03-.73 2.1-1.39 3.2-2 .15-.08.3-.17.45-.25.05-.03.1-.05.15-.08.13-.07.26-.14.4-.21.41-.21.82-.42 1.23-.62.56-.27 1.13-.54 1.7-.79 1.87-.83 3.79-1.56 5.73-2.22l.15-.05c.09-.03.17-.06.26-.09.06-.02.13-.04.19-.06.2-.07.41-.13.61-.2.62-.2 1.25-.4 1.88-.59l.17-.05.13-.04.2-.06c.11-.03.22-.07.34-.1.69-.2 1.38-.39 2.07-.58 2.19-.59 4.39-1.11 6.6-1.57l1.45-.3c1.49-.3 2.98-.57 4.48-.82.15-.03.31-.05.46-.08l.36-.06.97-.15.13-.02 1-.15c.23-.03.46-.07.69-.1.12-.02.25-.04.37-.05.79-.11 1.58-.22 2.38-.32h.08l.35-.05.5-.06c.22-.03.44-.05.65-.08s.42-.05.63-.07c.13-.02.26-.03.39-.04l.23-.03h.07q2.7-.315 5.4-.54 8.37-.705 16.77-.75c1.5 0 3.01 0 4.51.02 1.85.03 3.71.08 5.56.15 5.42.21 10.83.63 16.21 1.28l.26.03.23.03c.27.03.54.07.81.1l.66.09.65.09h.09c.2.04.41.07.61.1h.07l2.38.36.1.02.27.04 1.48.24c.33.05.66.11.99.17l.36.06c.15.03.31.05.46.08l1.17.21c1.14.21 2.29.44 3.43.68q1.23.255 2.46.54c2.32.54 4.63 1.14 6.91 1.82.24.07.48.15.72.22l.18.06.75.24c.73.23 1.45.48 2.17.73l.15.05.06.02c.43.15.85.31 1.28.46 1.21.45 2.4.93 3.58 1.46.13.06.26.11.38.17l.05.02c.33.15.66.3.99.46.94.45 1.86.92 2.76 1.43.04.02.09.05.13.08.1.06.2.12.3.17.19.11.38.22.57.34.2.12.4.24.59.37.08.05.17.11.25.16l.18.12c1.42.93 2.78 1.98 3.96 3.21.96 1 1.8 2.12 2.36 3.37.04.1.08.19.12.29.12.28.22.58.3.87.04.14.07.27.11.41.09.41.15.82.17 1.23v.72c-.01.24-.03.47-.07.7-.02.15-.05.3-.08.46-.02.1-.04.2-.07.29v.03c-.02.06-.04.12-.05.18-.39 1.39-1.17 2.68-2.1 3.79-.56.66-1.17 1.27-1.81 1.84-.73.64-1.5 1.23-2.3 1.78-.05.04-.1.07-.15.11l-.63.42c-.07.04-.13.09-.2.13-.09.05-.17.11-.26.16-1.13.7-2.31 1.34-3.5 1.93-1.34.66-2.71 1.26-4.09 1.81-3.18 1.27-6.46 2.31-9.78 3.19-3.82 1.02-7.68 1.84-11.57 2.51-4.28.74-8.59 1.31-12.91 1.73l-41.64-.02z"/><path stroke="#231815" stroke-linecap="round" stroke-linejoin="round" stroke-width=".5" d="m588.5 389.62.13-.02M727.04 322.13l-.08-.06M633 299.63h.37l.35.03c.58.02 1.17.05 1.75.07h.33l.37.03h.29c.34.03.69.05 1.03.06.64.03 1.29.07 1.93.1 6.69.37 13.37.93 20.02 1.7 6.28.73 12.55 1.65 18.77 2.8l.79.15 1.27.24c1.26.24 2.51.5 3.76.76l.29.06c.44.09.88.19 1.32.29 1.3.28 2.59.58 3.89.89.4.1.8.19 1.2.29 4.52 1.11 9.01 2.38 13.42 3.86 3.87 1.3 7.69 2.76 11.39 4.47.2.09.4.19.6.28.33.16.66.32 1 .48.96.47 1.91.95 2.85 1.46.2.11.39.21.59.32.57.31 1.14.64 1.7.97.15.09.3.18.44.26.43.26.86.53 1.29.8.1.07.21.13.31.2l.35.23c.34.23.68.45 1.01.69.23.16.46.32.68.49.1.07.2.15.3.22.1.08.21.15.31.23l.08.06.23.17c.35.27.7.54 1.04.82.96.78 1.88 1.62 2.74 2.51.85.88 1.64 1.81 2.35 2.81.63.9 1.2 1.85 1.65 2.86.42.93.74 1.9.94 2.89s.27 1.93.23 2.9l-.06.79-5.35 48.01M633 299.64l-.66-.03M508.37 385.79l-5.31-48.01-.06-1.83c.04-.9.18-1.8.42-2.67.25-.92.6-1.8 1.02-2.65.46-.92 1.01-1.79 1.62-2.62.67-.91 1.41-1.77 2.2-2.58 2.04-2.08 4.38-3.86 6.84-5.44 3.01-1.93 6.19-3.57 9.45-5.03 3.85-1.72 7.81-3.19 11.82-4.49 4.57-1.48 9.21-2.74 13.89-3.84l1.56-.36c1.59-.36 3.18-.7 4.77-1.03l1.51-.3c1.54-.3 3.08-.59 4.63-.87m0 0 .23-.04m69.38-4.42c-.28-.01-.56-.03-.84-.03q-4.305-.135-8.61-.18c-.96-.02-1.92-.02-2.88-.02-3.18 0-6.35.03-9.53.11h-.33l-.69.02-.31.02h-.37c-.69.02-1.39.05-2.08.07l-.32.03h-.4l-.47.02c-.29.01-.58.02-.87.04h-.16c-.64.02-1.28.05-1.92.08l-.63.03c-.25.02-.49.03-.73.04q-1.875.09-3.75.21c-1.49.09-2.99.19-4.48.3-.49.03-.99.07-1.48.11-7.25.57-14.5 1.37-21.7 2.45-2.28.35-4.56.72-6.84 1.12l-.22.04m41.91-4.38h-.15"/><path stroke="#231815" stroke-linecap="round" stroke-linejoin="round" stroke-width=".5" d="M639.34 431.75c4.34-.39 8.66-.92 12.96-1.62 3.94-.64 7.86-1.42 11.73-2.39 3.4-.85 6.77-1.85 10.06-3.07 2.75-1.02 5.45-2.19 8.01-3.63.19-.11.39-.22.58-.33.09-.05.17-.1.26-.15.07-.04.14-.08.2-.12l18.57-11.22 1.74-1.05c1.34-.81 1.93-1.15 3.27-1.96.28-.12.56-.25.83-.38h.03c.23-.12.45-.22.68-.33a67 67 0 0 0 5.28-2.75l.03-.02c.19-.11.39-.23.58-.34 1.85-1.1 3.65-2.32 5.32-3.69 1.42-1.16 2.75-2.43 3.91-3.86.98-1.21 1.83-2.54 2.44-3.98.54-1.28.88-2.66.94-4.05a11.2 11.2 0 0 0-.39-3.44c-.4-1.45-1.07-2.83-1.91-4.09-.97-1.47-2.16-2.79-3.45-3.99a35 35 0 0 0-3.13-2.57c-.06-.04-.12-.09-.18-.13-.19-.14-.38-.27-.57-.41-2.69-1.88-5.57-3.47-8.54-4.88-3.55-1.68-7.21-3.11-10.92-4.37-4.27-1.45-8.62-2.68-13.01-3.74-4.88-1.19-9.8-2.18-14.75-3.02-1.27-.21-2.53-.42-3.8-.62-.43-.07-.86-.13-1.28-.19-1-.15-1.99-.29-2.99-.43l-.29-.04-.32-.04c-.19-.03-.39-.05-.58-.08-.26-.03-.52-.07-.78-.1-1.52-.2-3.04-.38-4.56-.55-.51-.06-1.02-.11-1.54-.17l-.17-.02c-1.56-.17-3.13-.32-4.69-.46h-.05c-.84-.08-1.69-.15-2.53-.22l-.19-.02c-.3-.02-.6-.05-.9-.07h-.1l-.57-.05c-.7-.05-1.41-.11-2.11-.15h-.19l-.4-.04c-.82-.06-1.63-.11-2.45-.16-.4-.02-.8-.05-1.2-.07h-.07c-1.72-.1-3.44-.18-5.15-.25-.58-.02-1.15-.05-1.73-.07a341.69 341.69 0 0 0-16.99-.17c-1.93.03-3.85.08-5.78.14-.64.02-1.28.04-1.92.07-.25 0-.51.02-.76.03-1.93.08-3.85.17-5.78.29-.9.05-1.81.11-2.71.17-1.65.11-3.3.23-4.95.37-.55.05-1.09.09-1.64.14-1.04.09-2.09.19-3.13.29h-.15c-.49.06-.99.11-1.48.17-.69.07-1.39.15-2.08.23-4.71.53-9.4 1.17-14.08 1.95-1.5.25-2.99.51-4.48.79-.56.1-1.12.21-1.68.32-1.51.29-3.02.6-4.52.93-.49.11-.98.21-1.47.33-.8.18-1.59.36-2.39.55-.26.06-.52.13-.79.19-2.47.6-4.93 1.25-7.37 1.96-.78.23-1.56.46-2.33.7-.46.14-.92.29-1.38.43-.13.04-.25.08-.38.12-.29.09-.58.19-.86.28l-1.77.6c-.19.07-.39.14-.58.2-.09.03-.18.06-.27.1-.36.13-.72.26-1.07.39-.13.05-.27.1-.4.15l-.57.21c-.08.03-.15.06-.23.09l-.23.09c-.09.04-.19.07-.28.11l-.06.02c-.15.06-.31.12-.46.18l-.18.07c-.19.08-.39.15-.58.23-.16.07-.32.13-.49.2l-.3.12-.11.05c-.06.03-.13.05-.19.08l-.2.08c-.1.04-.19.08-.29.12-.17.07-.35.15-.52.22-.08.04-.17.07-.25.11-.17.07-.33.15-.5.22-.1.05-.2.09-.31.14-.17.08-.35.16-.52.23-.4.18-.81.37-1.21.56-.13.06-.26.13-.39.19-.1.05-.2.1-.31.15-2.09 1.02-4.14 2.13-6.1 3.37-.6.38-1.18.77-1.76 1.17-.27.19-.53.37-.79.57-1.17.85-2.29 1.77-3.34 2.77-.93.88-1.8 1.83-2.57 2.85-.69.91-1.3 1.88-1.78 2.91-.44.94-.78 1.93-.98 2.95-.1.54-.17 1.08-.19 1.63-.03.73.01 1.47.13 2.2s.31 1.48.57 2.19c.56 1.56 1.44 3.01 2.46 4.32 1.22 1.56 2.65 2.94 4.18 4.19 1.83 1.49 3.8 2.8 5.84 3.98a54.424 54.424 0 0 0 2.93 1.6c.29.15.58.3.87.44l.03.02c.8.4 1.61.78 2.43 1.15.28.13.71.32.99.45l.28.17.22.13.31.19.32.2.34.21.36.22.37.23.49.3.52.32.43.26.11.07.22.13.11.07.56.34.68.42.34.21.35.21.23.14.3.18 16.63 10.07c1.2.72 2.43 1.38 3.69 1.99 1.41.68 2.85 1.29 4.3 1.86 3.34 1.3 6.78 2.36 10.25 3.26 3.99 1.03 8.03 1.86 12.1 2.54 4.46.74 8.95 1.3 13.44 1.72"/><path stroke="#231815" stroke-linecap="round" stroke-linejoin="round" stroke-width=".5" d="M701.43 409.39c.1-.04.21-.08.31-.11.19-.07.39-.14.58-.21.49-.18.98-.36 1.47-.55 1.41-.54 2.8-1.11 4.19-1.71 2.47-1.08 4.89-2.27 7.24-3.61 2.01-1.16 3.97-2.43 5.78-3.87l1.85-1.46c1.13-.89 2.21-1.85 3.21-2.9.88-.92 1.7-1.91 2.41-2.97.63-.95 1.18-1.96 1.59-3.03.38-.98.64-2.02.76-3.06l.06-.76c.04-.82-.02-1.66-.16-2.47s-.39-1.67-.7-2.46c-.34-.85-.76-1.66-1.24-2.44-.53-.85-1.12-1.65-1.77-2.41-1.49-1.76-3.24-3.29-5.1-4.67-2.24-1.66-4.62-3.1-7.09-4.4-2.89-1.52-5.89-2.85-8.94-4.04a133 133 0 0 0-10.61-3.61c-3.99-1.18-8.02-2.2-12.09-3.1-4.41-.98-8.86-1.82-13.32-2.54-.46-.07-.92-.15-1.38-.22l-.34-.05-.26-.04-.35-.05-.29-.04-.38-.06c-.25-.04-.5-.07-.75-.11l-.28-.04c-.47-.07-.94-.14-1.4-.2-.31-.04-.63-.09-.94-.13l-.87-.12-.21-.03-.36-.05-.22-.03c-.49-.06-.98-.13-1.48-.19l-.19-.02-.5-.06-.42-.05-.26-.03-.22-.03-.37-.04-.41-.05-.38-.04-.39-.05c-.98-.11-1.95-.22-2.93-.32l-.51-.05c-1.26-.13-2.53-.25-3.8-.37-.42-.04-.85-.08-1.27-.11-.44-.04-.89-.08-1.33-.11h-.12l-1.09-.09-.45-.04-.41-.03a338 338 0 0 0-19.98-.92c-.85-.01-1.7-.03-2.56-.03-1.2-.01-2.4-.02-3.6-.02-.85 0-1.7 0-2.55.01-8.89.07-17.78.48-26.63 1.26-2.86.25-5.72.54-8.57.87-2.3.27-4.6.56-6.89.88-.75.11-1.5.21-2.25.33l-.15.02c-2.87.43-5.72.91-8.57 1.43-.92.17-1.85.35-2.77.53-5.33 1.05-10.63 2.3-15.85 3.8-1.6.46-3.19.95-4.78 1.46-.67.22-1.34.44-2 .67l-.13.04c-.49.17-.97.34-1.45.51h-.03l-.29.12c-.31.11-.62.22-.93.34-.09.03-.18.07-.28.1-.76.28-1.52.57-2.27.87-.25.1-.49.2-.74.3-.16.06-.32.13-.48.2-3.35 1.38-6.64 2.93-9.77 4.77-1.35.79-2.68 1.64-3.95 2.56-1.14.82-2.25 1.7-3.29 2.65-.93.85-1.81 1.75-2.61 2.73-.72.87-1.37 1.8-1.91 2.78-.5.9-.91 1.84-1.2 2.83-.28.93-.44 1.88-.49 2.85l.06 1.75c.12 1.05.38 2.08.76 3.06.41 1.07.96 2.08 1.59 3.03.71 1.06 1.52 2.05 2.41 2.98 1 1.04 2.08 2 3.21 2.9l1.85 1.46c1.24.98 2.53 1.88 3.87 2.72 1.49.94 3.02 1.8 4.58 2.61 3.6 1.86 7.36 3.42 11.18 4.79"/><path fill="#727171" d="M604.19 321.01c.11 1.5.21 3.01.32 4.51.02.3.05.74-.18 1.01-.16.18-.43.29-.81.32l-1.22.09c-.2.02-.55.04-.81-.18-.22-.18-.35-.51-.39-.97l-.39-4.51c-.52.04-1.04.09-1.56.14l.42 4.53c.04.45.36 2.69 2.49 2.51.66-.05 1.33-.11 1.99-.15.81-.06 2.14-.5 2-2.86-.1-1.51-.19-3.03-.29-4.54-.52.03-1.05.07-1.57.1M595.79 324.43c-.57 0-1.14-.01-1.7-.02-.41-.02-.78-.07-.83-.49-.08-.66.09-.87 1.48-1.03.12-.01.23-.03.35-.04.82-.05 1.58-.06 2.53.09.04 0 .08.01.12.02-.03-.35-.07-.69-.1-1.04 0 0 0-.01-.01-.02-.17-.25-1.49-.55-2.74-.41-.12.01-.23.03-.35.04-2.11.24-3.04 1.13-2.84 2.68.19 1.49 1.51 1.65 2.72 1.69.25 0 .5.01.75.02.55 0 .87.02 1.07.07.33.09.52.18.57.68.08.83-.47.97-1.67 1.11-.11.01-.22.03-.34.04-.71.08-1.59-.01-2.55-.27a1 1 0 0 1-.13-.04c.04.34.09.67.13 1.01.05.41 1.36.77 2.76.61.1-.01.2-.02.31-.04 2.28-.26 3.26-1.12 3.11-2.76-.15-1.59-1.4-1.87-2.61-1.92M611.101 320.3h-.23c-2.87.12-3.87 1.23-3.7 4.02.07 1.26.14 2.51.22 3.77l1.61-.09c-.06-1.25-.13-2.51-.19-3.76-.11-2.12.36-2.5 1.83-2.56.12 0 .25-.01.37-.02 1.41-.05 1.69.34 1.72 1.32.02.61-.16 1.31-.73 1.33l-2.59.06c.02.37.03.74.05 1.11h.07c.52.06 1.44.08 2.14.06 2.4-.08 2.76-1.38 2.74-2.48-.04-1.8-1.28-2.85-3.31-2.77M619.971 320.23c-.43-.07-1.45-.1-1.97-.1-.92 0-2.45.39-2.4 2.8l.09 4.85a84 84 0 0 1 1.58-.02l-.06-4.75c-.02-1.28.22-1.41 1.25-1.42h1.49v-1.36zM624.89 326.42h-.31c-1.35-.03-2.17-.19-2.14-2.41.02-2.11.52-2.47 1.99-2.44h.37c1.38.03 1.67.26 1.64 1.27-.02.5-.25.71-.8.7-.87-.02-1.73-.04-2.6-.05 0 .35-.01.71-.02 1.06.02 0 .05 0 .07.01.51.09 1.43.18 2.14.19 1.05.02 2.8-.11 2.88-2.09.08-2.03-1.67-2.43-3.15-2.46h-.23c-2.87-.06-3.94.99-3.95 3.78 0 2.68 1.04 3.76 3.62 3.81h.2c1.63.04 3.03-.34 3.05-.85l.03-.88c-.04 0-.07.02-.11.03-.97.22-1.71.34-2.69.32M639.011 323.8c.11-1.31-.34-2.03-.86-2.42 0 0-.56-.49-1.64-.57-.52-.04-.94 0-1.26.08-.45.09-.74.28-.89.4-.05.04-.08.07-.08.07s-.52-.75-2.13-.83c-.7-.04-1.21.12-1.48.24 0 0-.02 0-.03.01-.01 0-.03.01-.04.02-1.08.5-1.27 1.75-1.3 2.37-.07 1.6-.14 3.19-.2 4.79.48.02.96.04 1.44.07l.24-4.79c.04-.72.22-1.38 1.33-1.32 1.15.06 1.35.59 1.29 1.47-.1 1.59-.19 3.19-.29 4.78.49.03.99.06 1.48.1.11-1.59.22-3.19.32-4.78.06-.96.5-1.38 1.37-1.31.94.07 1.33.54 1.25 1.51-.13 1.59-.25 3.19-.38 4.78l1.44.12c.14-1.59.28-3.18.41-4.78zM643.491 322.82l.32.03c1.38.15 2.19.41 1.93 2.61-.25 2.1-.77 2.4-2.2 2.24-.12-.01-.24-.03-.36-.04-1.34-.14-1.61-.38-1.51-1.39.05-.5.3-.69.84-.64.86.09 1.72.18 2.58.28l.12-1.05c-.02 0-.05-.01-.07-.02-.5-.15-1.42-.31-2.13-.39-1.05-.11-2.83-.08-3.01 1.89-.18 2.02 1.48 2.51 2.9 2.66.07 0 .15.02.22.02 2.76.3 3.91-.59 4.26-3.37.34-2.65-.61-3.88-3.27-4.18-.07 0-.13-.01-.2-.02-1.69-.18-3.15.12-3.2.62-.03.29-.05.59-.08.88.04 0 .08-.01.11-.02 1-.16 1.77-.23 2.76-.12"/><path stroke="#231815" stroke-linecap="round" stroke-linejoin="round" stroke-width=".5" d="M624.07 357.67c-.48.12-.96.2-1.45.26-.54.06-1.09.09-1.64.09s-1.1-.03-1.64-.08c-.49-.05-.98-.13-1.46-.25M658.46 408.18l-2.5 6.36M580.62 408.36l2.13 5.63"/><path fill="#3e3a39" stroke="#231815" stroke-linecap="round" stroke-linejoin="round" stroke-width=".5" d="M590.99 421.59s.06.03.09.04c.08.04.16.07.23.11.74.35 1.5.67 2.27.97.27.1.53.21.8.31.07.03.15.05.22.08.16.06.31.11.47.17.54.19 1.08.37 1.63.54 2.05.64 4.16 1.17 6.3 1.6 2.29.46 4.62.81 6.96 1.07s4.88.43 7.34.5 4.96.04 7.43-.1l.57-.03c1.14-.07 2.29-.16 3.42-.27l1.12-.12c.84-.09 1.67-.2 2.5-.32l.82-.12.72-.12.51-.09c.1-.02.2-.03.3-.05.12-.02.25-.04.37-.07.26-.05.52-.1.77-.14l.1-.02c.08-.02.17-.03.25-.05 1.64-.33 3.26-.71 4.85-1.16 1.48-.42 2.93-.9 4.34-1.44 1.29-.5 2.54-1.06 3.72-1.69 1.07-.57 2.09-1.2 3.02-1.9.07-.06.15-.11.22-.17.82-.64 1.56-1.33 2.18-2.09.56-.69 1.03-1.43 1.34-2.2.3-.73.46-1.5.47-2.26s-.14-1.54-.42-2.27c-.1-.26-.22-.52-.35-.78-.4-.79-.94-1.55-1.57-2.25-1.58-1.75-3.74-3.2-6.08-4.37-1.34-.68-2.74-1.27-4.19-1.79-1.56-.57-3.18-1.06-4.82-1.48-1.75-.45-3.53-.83-5.33-1.14s-3.79-.58-5.7-.78c-1.97-.2-3.95-.33-5.93-.39s-4-.06-6 0-3.95.2-5.9.4-3.79.45-5.66.78-3.54.69-5.26 1.15c-1.61.42-3.2.91-4.74 1.49-1.41.53-2.79 1.12-4.09 1.79-1.19.62-2.31 1.3-3.34 2.07-.94.7-1.79 1.47-2.5 2.32-.66.79-1.2 1.64-1.56 2.53-.24.6-.39 1.21-.45 1.84s0 1.24.14 1.85.4 1.24.72 1.83c.35.63.79 1.22 1.3 1.78.57.63 1.22 1.22 1.93 1.77.25.19.51.38.77.57.04.03.08.06.12.08.22.15.45.3.68.45.67.43 1.38.83 2.1 1.2.25.13.51.26.77.38z"/><path stroke="#231815" stroke-linecap="round" stroke-linejoin="round" stroke-width=".5" d="m594.39 421.27-.03-.01M633.32 424.44l-.08.01M625.38 425.33l-.05.01M625.38 425.33l-.05.01M633.31 424.43l-.07.02M653.221 407.64l.02.02M653.221 407.64l.02.02M584.511 413.44c.04.09.07.19.11.28M598.36 413.9c.11.15.23.29.36.44M597.48 410.73c-.04.2-.06.4-.06.61"/><path stroke="#231815" stroke-linecap="round" stroke-linejoin="round" stroke-width=".5" d="M597.42 411.33c0 .1 0 .2.01.31M598.721 414.33c.13.15.27.29.42.43M602.75 405.67l-.42.21M602.33 405.89c-.23.12-.19.08-.41.21M591.11 419.74c.09.05.17.09.26.14M600.721 415.98s.03.02.05.03M595.061 421.53c.38.14.75.28 1.14.42M594.94 421.48s.08.03.12.05M594.61 421.36c.11.04.22.09.33.13M594.391 421.27c.07.03.14.06.22.09M594.2 421.19c.05.02.11.04.16.06M594.07 421.14s.09.04.13.05M593.971 421.1s.07.03.11.04M593.11 420.73c.28.13.57.25.85.37M596.19 421.95c.13.05.26.09.39.14M625.53 419.88c.07 0 .14-.02.21-.02M625.73 419.86c.36-.04.73-.09 1.09-.14M633.32 424.44c.34-.06.67-.11 1.01-.18M634.33 424.26c.21-.04.41-.08.62-.11M612.381 403.04l-.25.03M636.571 406.1c-.14-.08-.28-.15-.43-.22M637.03 406.35c-.15-.09-.3-.17-.45-.25M640.76 409.55l-.03-.06M641.35 411.3c-.01-.15-.03-.31-.07-.46M641.361 411.61c0-.1 0-.2-.01-.31M641.36 411.76v-.15M654.131 414.12c.04-.08.07-.17.11-.25M634.94 424.15l.17-.03M622.45 425.47c.96-.03 1.92-.07 2.88-.13M625.381 425.33c.33-.02.66-.04.99-.07M612.381 403.04c1.48-.2 2.97-.32 4.47-.39s3.06-.07 4.59 0M621.45 402.65c1.41.06 2.81.18 4.2.35s2.65.39 3.95.67c1.21.26 2.39.58 3.55.97 1.04.35 2.05.75 3 1.23M640.07 408.61c.06.07.13.14.19.22q.27.315.48.66M640.761 409.55c.06.11.12.21.18.32.16.32.27.64.34.98M602.75 405.67c1.33-.64 2.76-1.15 4.24-1.56 1.67-.46 3.4-.8 5.15-1.04M637.03 406.35c.32.17.58.31.88.5.81.51 1.56 1.09 2.16 1.76M597.48 410.73c.08-.43.24-.85.46-1.24.24-.43.55-.83.91-1.2.39-.41.85-.79 1.33-1.14.54-.38 1.12-.73 1.73-1.05M641.36 411.76c-.02.44-.13.88-.32 1.31-.2.45-.47.87-.81 1.27-.37.44-.8.84-1.28 1.2-.53.41-1.11.78-1.72 1.11-.68.37-1.39.7-2.13 1-.8.32-1.63.61-2.48.86-1.87.55-3.82.95-5.8 1.22M621.42 402.97h-.04"/><path stroke="#231815" stroke-linecap="round" stroke-linejoin="round" stroke-width=".5" d="M638.77 413.85c.12-.13.23-.27.33-.41.19-.26.36-.54.49-.83s.22-.56.27-.85.07-.57.05-.85a3.2 3.2 0 0 0-.18-.85c-.02-.07-.05-.13-.08-.2-.16-.38-.38-.75-.65-1.1q-.135-.18-.3-.36c-.43-.48-.94-.91-1.5-1.3-.2-.14-.41-.28-.62-.41-.12-.07-.25-.15-.37-.22-.13-.07-.26-.15-.39-.22-.14-.08-.28-.15-.43-.22-.9-.45-1.86-.84-2.85-1.17-1.09-.37-2.22-.67-3.37-.92a42 42 0 0 0-3.76-.64c-1.27-.16-2.66-.28-3.99-.34h-.04a49 49 0 0 0-4.39 0c-1.46.07-2.87.18-4.28.37l-.25.03c-1.67.23-3.31.55-4.91.99-1.41.39-2.78.87-4.05 1.48l-.42.21c-.13.07-.26.14-.4.21-.08.05-.17.09-.25.14-.04.02-.08.05-.12.07-.76.45-1.48.97-2.06 1.57q-.39.405-.69.84c-.19.28-.34.57-.46.87s-.18.59-.21.89-.02.6.03.89.15.6.27.88a5 5 0 0 0 .56.92c.11.14.22.27.34.41.38.42.83.81 1.32 1.17.18.13.36.25.54.37.19.12.39.24.59.36.56.33 1.16.62 1.77.89.22.09.44.19.66.27.12.05.25.1.37.14 1.46.55 3.01.98 4.59 1.31 1.74.37 3.51.62 5.3.77s3.74.22 5.61.18 3.69-.18 5.5-.44c1.3-.18 2.59-.42 3.85-.72 1.16-.28 2.29-.62 3.38-1.02.04-.02.08-.03.13-.05 1.06-.4 2.08-.88 3-1.45.79-.49 1.51-1.05 2.07-1.69"/><path stroke="#231815" stroke-linecap="round" stroke-linejoin="round" stroke-width=".5" d="M625.531 419.88c-2.32.26-4.68.36-7.03.31s-4.66-.24-6.94-.6c-1.08-.17-2.15-.37-3.21-.62-.99-.23-1.97-.5-2.92-.82q-1.32-.435-2.55-.99c-.74-.34-1.46-.72-2.12-1.14M600.721 415.98c-.15-.1-.3-.2-.44-.3q-.615-.435-1.14-.93M598.361 413.9c-.27-.35-.49-.73-.65-1.12a3.8 3.8 0 0 1-.28-1.14M586.18 416.08c-.17-.19-.33-.38-.49-.58a8.2 8.2 0 0 1-1.08-1.78"/><path stroke="#231815" stroke-linecap="round" stroke-linejoin="round" stroke-width=".5" d="M584.51 413.44a5.85 5.85 0 0 1-.38-2.58c.04-.43.12-.86.26-1.29s.32-.86.55-1.27c.49-.88 1.18-1.71 1.98-2.45.9-.84 1.95-1.59 3.07-2.26 1.27-.76 2.65-1.41 4.07-1.99 1.59-.64 3.24-1.19 4.93-1.66 1.84-.51 3.72-.93 5.62-1.27 2.02-.36 4.06-.64 6.12-.83s4.27-.33 6.41-.37 4.33-.01 6.49.1 4.25.3 6.35.57 4.02.6 5.99 1.02c1.84.4 3.66.87 5.43 1.44 1.61.52 3.19 1.11 4.68 1.81 1.34.62 2.61 1.32 3.78 2.12 1.03.7 1.97 1.48 2.75 2.35M652.601 406.89c.06.06.11.12.16.19.16.18.31.37.45.56M653.24 407.66c.36.49.67 1 .9 1.53s.38 1.03.47 1.56.09 1.05.03 1.57-.2 1.05-.41 1.56M654.131 414.12c-.25.55-.58 1.08-.96 1.58-.41.54-.89 1.05-1.42 1.53-.57.52-1.19 1-1.86 1.45-.72.49-1.48.93-2.27 1.35-1.77.93-3.68 1.69-5.65 2.34-2.22.73-4.53 1.3-6.87 1.75M633.24 424.45c-.56.09-1.12.18-1.68.26-1.72.24-3.46.43-5.2.56M622.45 425.47c-2.07.06-4.14.05-6.2-.03-2.04-.08-4.08-.23-6.1-.46s-3.9-.51-5.82-.88c-1.81-.35-3.6-.77-5.35-1.27M598.97 422.83l-.61-.18a53 53 0 0 1-1.78-.57M593.11 420.73l-.45-.21c-.44-.2-.87-.42-1.29-.64M591.11 419.74c-.2-.11-.41-.22-.61-.34-.58-.33-1.14-.68-1.67-1.05M588.831 418.36c-.26-.18-.51-.36-.76-.55-.69-.53-1.33-1.11-1.89-1.73M609.88 402.23l-.27.3M589.091 416.63l-.03-.04M589.141 416.55l.03.03M589.131 416.55l.03.03M588.961 416.5l-.01-.01M589.1 416.62l-.03-.03M588.971 416.5l-.01-.01M586.761 413.33l.01.02M586.761 413.33l.01.02M627.891 401.83l2.02-2.31M629.941 399.73l-2.11 2.41M611.451 424.22l.03.01M611.451 424.22l.03.01M609.861 401.77l-1.95-2.07M643.11 413.51v.01M643.11 413.51v.01M642.701 414.2l-.02.03M642.691 414.2l-.02.03"/><path stroke="#231815" stroke-linecap="round" stroke-linejoin="round" stroke-width=".5" d="M587.191 407.91s-.03.05-.05.07M587.421 407.86s-.03.04-.04.06M587.91 406.94c-.27.32-.51.65-.72.98M587.851 407.27c-.15.2-.3.39-.43.59M588.171 406.88c-.11.13-.22.25-.32.38M605.97 399.14c-.09.02-.19.03-.28.05M597.731 407.09l-.18.15M597.55 407.24c-.22.19-.43.39-.61.58M596.821 407.73c-.09.09-.18.18-.26.28M596.47 408.1s-.05.05-.07.08M596.561 408s-.06.06-.09.1M596.791 407.98c-.13.14-.25.28-.36.43M596.93 407.83c-.05.05-.1.1-.15.16M595.261 412.3c.02.07.04.14.06.2M606.911 403.09l-.25.06M609.811 402.29l.06-.06M587.411 414.75c.04.06.09.12.13.18M595.32 412.5c.05.16.11.33.19.48M595.65 412.68s.01.03.02.05M590.081 417.44l.24.18M589.091 416.63s.06.05.09.08M588.961 416.5s.07.06.1.09M588.891 416.33c.08.08.16.15.24.23M588.541 416.1c.13.13.27.26.41.39M588.621 416.06l.27.27M588.4 415.95s.09.1.14.14M592.131 418.79s.05.03.07.04M622.24 424.66h.22M622.15 424.64h.13M622.28 424.63h.2M622.461 424.66c.18 0 .37-.01.56-.02M618.07 420.99h.13M634.421 403.96a1 1 0 0 0-.16-.05M634.39 403.99c-.09-.03-.19-.06-.28-.09M637.77 405.28c-.07-.03-.13-.06-.2-.09M637.871 417.83l.06-.03M642.931 413.51s.04-.07.05-.11M642.701 414.2c.16-.23.29-.45.41-.68M642.53 414.43c.05-.07.1-.13.15-.2M642.511 414.47s.02-.02.03-.04M642.32 414.7c.07-.08.13-.16.19-.24M642.24 414.79s.05-.06.08-.09M642.051 414.76s.08-.09.12-.14M649.701 417.06l.31-.28M649.551 417.01s.03-.03.05-.04M650.011 416.78c.23-.22.45-.44.65-.66M649.601 416.97c.34-.31.66-.63.95-.96M650.661 416.12s.05-.06.08-.09M635.411 418.68c.13-.04.25-.09.38-.14M635.311 418.86c.3-.1.6-.21.9-.32M628.891 402.6l.15.03M611.461 424.25c.05 0 .1.01.15.02M611.61 424.27c.08 0 .17.02.25.03M611.871 424.29l.66.06M611.48 424.23c.05 0 .11.01.16.02M611.641 424.24l.91.09M612.53 424.36c.19.02.39.03.58.05M612.541 424.33c.14.01.27.02.41.04M613.11 424.41c.29.02.59.05.88.07M612.951 424.37c.9.08 1.81.14 2.73.19M613.99 424.48c.55.04 1.11.08 1.66.1M615.661 424.58h.19M615.681 424.56c.11 0 .21.01.32.02M632.151 399.35q-.315-.06-.66-.06c-.21 0-.43.01-.66.05-.1.02-.2.04-.29.07-.09.02-.17.05-.25.09-.07.03-.14.07-.2.11a.6.6 0 0 0-.14.12M605.671 399.32c-.98.17-1.97.37-2.96.59-.93.21-1.86.45-2.79.71-.87.25-1.74.52-2.59.82-.8.28-1.59.59-2.37.92-.72.31-1.43.65-2.12 1.02-.64.34-1.26.71-1.85 1.1s-1.08.76-1.56 1.17-.89.81-1.25 1.23M607.911 399.7c-.09-.09-.22-.17-.36-.23-.17-.07-.35-.12-.56-.15s-.43-.05-.66-.05c-.21 0-.43.02-.66.05M609.88 402.23s.06-.07.07-.11c.02-.04.02-.08.02-.12q0-.06-.03-.12a.4.4 0 0 0-.08-.11M642.241 414.79c-.08.09-.16.17-.24.26-.25.26-.53.52-.83.76M641.171 415.82c-.44.36-.94.71-1.46 1.03-.56.34-1.16.66-1.78.95M637.871 417.83c-.13.06-.27.12-.4.18-.42.18-.84.36-1.26.52M635.31 418.86c-1.26.43-2.54.78-3.81 1.07-1.44.32-2.86.57-4.27.75-1.55.2-3.07.33-4.56.4-1.6.08-3.16.09-4.69.04"/><path stroke="#231815" stroke-linecap="round" stroke-linejoin="round" stroke-width=".5" d="M617.981 421.12c-1.37-.04-2.7-.13-4-.25s-2.61-.3-3.85-.52-2.44-.47-3.6-.76a33 33 0 0 1-3.24-.99 24 24 0 0 1-2.79-1.19c-.82-.41-1.58-.86-2.27-1.36-.63-.45-1.2-.95-1.68-1.48-.43-.48-.79-1.01-1.04-1.57M595.261 412.3c-.13-.5-.18-1.04-.09-1.6.04-.26.1-.53.2-.8s.21-.52.37-.79M595.74 409.11c.05-.08.09-.16.14-.24.15-.23.32-.47.52-.7M650.541 416.01c.34-.39.64-.79.88-1.19s.45-.82.6-1.22.25-.83.31-1.24c.06-.43.06-.84.01-1.24-.05-.43-.14-.84-.28-1.24q-.225-.645-.57-1.23c-.25-.42-.53-.82-.85-1.2-.34-.41-.72-.8-1.13-1.17-.89-.81-1.92-1.53-3.05-2.19-1.23-.72-2.58-1.36-4.01-1.93-1.52-.61-3.14-1.14-4.83-1.6s-3.58-.88-5.48-1.21M587.381 407.92c-.29.44-.51.89-.68 1.33a5.5 5.5 0 0 0-.31 2.72c.07.47.2.93.37 1.36M586.771 413.35c.05.12.1.23.15.34.17.35.36.69.59 1.02M587.511 414.71c.08.11.16.23.24.34.26.35.55.68.86 1M589.161 416.58c.09.09.19.17.29.25.3.26.61.5.93.74M590.381 417.58l.42.3c.44.3.9.6 1.37.88M592.171 418.76c1.18.69 2.46 1.31 3.83 1.87 1.45.59 2.99 1.11 4.59 1.57s3.4.88 5.21 1.21 3.71.62 5.65.82M616.001 424.57l1.54.06c1.51.04 3.05.05 4.62 0M622.471 424.63c1.42-.04 2.86-.13 4.31-.25a72.137 72.137 0 0 0 8.16-1.17c1.23-.26 2.47-.55 3.71-.9 1.13-.32 2.26-.68 3.37-1.09 1.01-.38 2.01-.79 2.97-1.26.88-.43 1.73-.9 2.52-1.41.74-.48 1.43-1 2.03-1.53M629.041 402.63c.46.08.92.17 1.37.27 1.33.28 2.62.62 3.84 1.01M634.421 403.96c.28.09.56.19.84.28.81.29 1.58.6 2.32.94"/><path stroke="#231815" stroke-linecap="round" stroke-linejoin="round" stroke-width=".5" d="M637.771 405.28c1.13.54 2.16 1.14 3.06 1.83.41.32.79.65 1.13 1.01q.48.495.84 1.05c.22.34.409.7.539 1.08.12.35.211.71.241 1.09.03.35-.001.72-.071 1.09-.07.35-.199.72-.379 1.08M628.131 401.79c-.05.05-.07.11-.09.16-.01.06 0 .11.02.16.02.06.07.11.12.16.06.05.13.1.21.14M628.391 402.42s.07.03.11.05q.18.075.39.12M596.82 407.73c.28-.29.6-.56.94-.83s.74-.54 1.14-.79c.42-.26.86-.51 1.32-.74.48-.25.98-.48 1.49-.69M601.711 404.68c1.11-.46 2.26-.85 3.41-1.18 1.31-.37 2.61-.66 3.91-.9M609.021 402.6c.06-.01.12-.02.18-.04.15-.04.31-.09.45-.17M609.65 402.4s.03-.02.05-.03l.12-.09"/><path stroke="#231815" stroke-linecap="round" stroke-linejoin="round" stroke-width=".5" d="M628.741 402.6c-.22-.04-.43-.1-.6-.19-.14-.07-.26-.16-.31-.28M627.831 402.13s-.03-.1-.02-.15.04-.1.08-.15M609.411 402.58l-.64.12c-.62.12-1.24.25-1.86.4M606.66 403.15c-.44.11-.89.22-1.33.35-1.21.34-2.42.75-3.59 1.25M601.741 404.75c-.77.33-1.52.7-2.23 1.11-.65.38-1.26.79-1.79 1.23M649.701 417.06c-.6.53-1.29 1.04-2.02 1.51-.78.5-1.63.97-2.5 1.39-.95.46-1.93.87-2.93 1.25-1.09.41-2.2.76-3.32 1.08-1.21.35-2.43.64-3.65.9-1.31.28-2.62.51-3.91.7-2.85.42-5.65.66-8.36.76M622.241 424.66l-1.6.03c-1.63.01-3.22-.02-4.79-.1M611.461 424.25c-1.93-.2-3.81-.48-5.63-.82a59 59 0 0 1-5.2-1.2 45 45 0 0 1-4.59-1.55c-1.37-.55-2.66-1.16-3.84-1.85M592.13 418.79c-.16-.09-.32-.19-.48-.29-.46-.28-.91-.58-1.33-.89M590.08 417.44c-.08-.06-.16-.12-.23-.18-.23-.18-.45-.36-.66-.55M588.401 415.95a10.85 10.85 0 0 1-.85-1.01M587.41 414.75c-.07-.09-.13-.19-.19-.28a8 8 0 0 1-.48-.86M586.751 413.61a5.8 5.8 0 0 1-.46-1.41c-.09-.45-.12-.93-.09-1.42.03-.46.12-.93.29-1.41s.37-.92.66-1.39M642.181 414.62c.08-.09.15-.18.22-.27.21-.28.39-.56.53-.84M642.981 413.4a4.061 4.061 0 0 0 .43-2.17c-.03-.38-.12-.74-.25-1.09-.14-.38-.33-.73-.56-1.07-.51-.76-1.2-1.43-2-2.04-.91-.69-1.95-1.29-3.09-1.82M637.521 405.21c-.24-.11-.48-.22-.73-.33q-1.155-.495-2.4-.9M634.11 403.9c-.41-.13-.84-.26-1.26-.38-1.31-.36-2.68-.67-4.11-.92M610.211 402.23c-.06.07-.15.13-.25.18-.12.06-.25.1-.38.13M609.581 402.54c-.06.01-.12.03-.17.04M605.971 399.14s.05 0 .08-.01l.24-.03M606.291 399.1c.29-.02.56 0 .81.03s.48.1.67.19M607.761 399.32s.05.03.07.04c.07.04.13.08.17.13M631.931 399.17c1.93.33 3.8.73 5.59 1.21s3.38 1 4.94 1.61c1.46.58 2.84 1.22 4.11 1.95 1.16.67 2.21 1.4 3.13 2.22.81.73 1.51 1.53 2.03 2.41.46.77.77 1.6.87 2.51.08.8 0 1.64-.33 2.52-.15.41-.36.82-.61 1.24s-.55.81-.9 1.21M629.911 399.52s.08-.08.13-.11c.06-.04.12-.07.18-.1.07-.03.15-.06.23-.08.09-.03.18-.04.27-.06.21-.04.41-.05.6-.05.21 0 .42.02.6.05M610.201 401.81s.04.05.06.08M610.261 401.89c.03.05.05.11.04.18 0 .06-.04.12-.09.17M587.911 406.94c.36-.43.78-.85 1.25-1.26s1.01-.82 1.57-1.2c1.22-.82 2.6-1.55 4.02-2.17.79-.35 1.6-.66 2.41-.95.88-.31 1.76-.59 2.65-.84 1.96-.56 3.94-.99 5.88-1.33M596.431 408.41c-.27.35-.48.7-.65 1.04s-.28.72-.35 1.07c-.14.77-.04 1.5.21 2.16M595.671 412.73c.23.57.56 1.1.98 1.59.46.55 1.01 1.05 1.63 1.51.68.5 1.43.96 2.24 1.38.87.45 1.8.85 2.78 1.21 1.03.38 2.12.72 3.24 1.01s2.37.56 3.61.78c2.49.43 5.15.7 7.92.78M618.201 420.99c1.52.04 3.08.03 4.67-.06 1.48-.08 3-.21 4.54-.42 1.4-.19 2.81-.43 4.23-.76 1.26-.29 2.53-.64 3.77-1.08M635.791 418.54c.16-.06.31-.12.47-.18.45-.17.9-.36 1.33-.56M637.591 417.81c.92-.42 1.8-.9 2.59-1.44.73-.5 1.37-1.04 1.87-1.61M608.011 399.49l.71.76M609.49 401.06l.71.75M610.09 400.81c-.05.06-.14.11-.23.15-.12.05-.25.08-.37.1"/><path stroke="#231815" stroke-linecap="round" stroke-linejoin="round" stroke-width=".5" d="M608.721 400.25c.21-.03.41-.03.59 0 .1 0 .19.03.28.05s.17.04.24.07.13.06.18.1c.04.03.08.07.11.11q.03.06.03.12t-.06.12M609.341 401.22c.05-.06.1-.11.15-.17M608.72 400.25c-.05.06-.1.11-.15.17M626.361 399.64l-2.03 2.32M628.171 399.32l-2.03 2.32M617.501 401.69l.13-.14M612.691 399.71l.07 1.82M617.631 401.55v.14M620.951 401.73l-.01-.18M620.941 401.55h-3.31M611.931 401.63l-2.2-2.33M612.821 401.95l-2.2-2.33M624.371 401.55l-.07-1.82M614.821 401.79l-.86.06M614.291 401.91c-.13 0-.25.02-.38.03M613.961 401.84c-.07 0-.14.01-.21.02M613.911 401.94c-.28.02-.55.04-.83.07M624.081 402.02h.04M624.242 402.06c-.31-.03-.62-.05-.93-.08M623.311 401.99c-.07 0-.14-.01-.22-.02M609.731 399.3s-.03-.04-.04-.05a.27.27 0 0 1-.06-.17"/><path stroke="#231815" stroke-linecap="round" stroke-linejoin="round" stroke-width=".5" d="M613.871 402.05c-.42.04-.82 0-1.16-.07-.17-.04-.33-.09-.47-.15a1 1 0 0 1-.31-.21M623.091 401.97c-1.5-.1-3.05-.15-4.63-.14-1.5.01-3.03.08-4.59.22M624.331 401.66l-.03.03c-.04.03-.08.06-.13.08M624.171 401.77s-.06.03-.1.04c-.12.04-.25.06-.37.07M623.701 401.87h-.31M625.861 401.85c-.23.11-.49.17-.73.2-.32.04-.61.04-.89.02M612.691 399.71v-.03c0-.03.02-.06.05-.09M613.761 401.86h-.11c-.11 0-.22 0-.32-.02M613.331 401.85c-.16-.02-.3-.06-.41-.12-.09-.05-.16-.11-.16-.19"/><path stroke="#231815" stroke-linecap="round" stroke-linejoin="round" stroke-width=".5" d="M623.401 401.87c-.7-.05-1.41-.1-2.13-.13a63 63 0 0 0-6.44.05M626.201 399.52s.06 0 .08.02c.06.02.12.05.08.1M624.331 401.96s-.02.02-.03.02c-.03.01-.05.02-.08.03h-.1"/><path stroke="#231815" stroke-linecap="round" stroke-linejoin="round" stroke-width=".5" d="M624.081 402.02c-1.58-.14-3.22-.23-4.89-.24s-3.23.02-4.9.14M613.081 402.01h-.16c-.04 0-.08-.02-.1-.05M610.621 399.62s-.02-.02-.01-.04c0-.01.01-.02.02-.04.03-.03.1-.04.14-.04M610.781 399.5c2.63-.26 5.2-.37 7.7-.37 2.66 0 5.24.14 7.73.39"/><path stroke="#231815" stroke-linecap="round" stroke-linejoin="round" stroke-width=".5" d="M623.601 399.4c-.84-.06-1.69-.1-2.55-.13-2.48-.08-5.05-.05-7.67.12M623.602 399.4c.19.01.36.05.5.11.06.03.11.06.15.1.03.03.05.07.06.11M624.371 401.55v.03c0 .03-.02.06-.04.08M612.741 399.59s.06-.05.1-.08q.075-.045.15-.06c.06-.02.12-.03.18-.05.07-.01.14-.02.21-.02M626.981 398.45c.22.02.43.06.62.12.17.05.33.12.45.21.05.04.1.08.13.13.03.04.05.09.07.14v.14c-.01.04-.04.09-.08.13M610.861 398.43c2.75-.27 5.43-.39 8.05-.39 2.78 0 5.48.14 8.08.41M609.621 399.08c0-.07.02-.14.08-.22s.15-.14.25-.19c.12-.07.26-.11.4-.15.17-.04.34-.07.5-.09M626.141 401.64s-.03.04-.05.05c-.06.06-.15.11-.23.15M620.801 405.46h-.03M632.83 413a3.385 3.385 0 0 0 .57-.86c.09-.2.15-.39.19-.59s.05-.39.03-.59-.06-.4-.12-.59c-.02-.05-.03-.09-.05-.14-.11-.27-.26-.52-.45-.76-.07-.08-.13-.17-.21-.25-.3-.33-.65-.63-1.04-.9-.14-.1-.28-.19-.43-.28-.08-.05-.17-.1-.26-.15l-.27-.15-.3-.15q-.945-.465-1.98-.81c-.76-.26-1.54-.47-2.34-.64-.86-.19-1.73-.33-2.6-.45s-1.84-.19-2.77-.23h-.03a34.5 34.5 0 0 0-6.02.26c-.06 0-.11.02-.17.02-1.15.16-2.3.38-3.4.69-.98.27-1.93.6-2.81 1.03-.1.05-.2.1-.29.15l-.27.15c-.06.03-.12.06-.17.1-.03.02-.05.03-.08.05-.53.31-1.02.68-1.43 1.09-.18.18-.34.38-.48.58-.13.19-.24.39-.32.6s-.13.41-.15.61-.01.41.02.62.1.41.19.61c.09.21.22.41.36.6 0 .01.02.02.02.03.07.1.15.19.23.28.27.29.58.56.92.81.12.09.25.17.37.26.13.09.27.17.41.25.39.23.8.43 1.23.61.15.07.3.13.46.19.09.03.17.07.26.1 1.02.38 2.09.68 3.18.91 1.2.25 2.43.43 3.67.54s2.59.15 3.89.12 2.56-.13 3.82-.3c.9-.12 1.79-.29 2.67-.5.8-.19 1.59-.43 2.34-.71l.09-.03c.73-.28 1.44-.61 2.08-1.01.55-.34 1.05-.73 1.44-1.17M620.801 405.46h-.03"/><path stroke="#231815" stroke-linecap="round" stroke-linejoin="round" stroke-width=".5" d="M632.82 413c.08-.09.16-.18.23-.28.13-.18.25-.38.34-.57s.15-.39.19-.59.05-.39.03-.59-.06-.4-.12-.59c-.02-.05-.03-.09-.05-.14-.11-.27-.26-.52-.45-.76-.07-.08-.13-.17-.21-.25-.3-.33-.65-.63-1.04-.9-.14-.1-.28-.19-.43-.28-.08-.05-.17-.1-.26-.15l-.27-.15-.3-.15q-.945-.465-1.98-.81c-.76-.25-1.54-.47-2.34-.64-.86-.19-1.73-.33-2.6-.45s-1.84-.19-2.77-.23h-.03a34.5 34.5 0 0 0-6.02.26c-.06 0-.11.02-.17.02-1.15.16-2.29.38-3.4.69-.98.27-1.93.6-2.8 1.03-.1.05-.2.1-.29.15l-.27.15c-.06.03-.12.06-.17.1-.03.02-.05.03-.08.05-.53.31-1.02.68-1.43 1.09-.18.18-.34.38-.48.58-.13.19-.24.39-.32.6s-.13.41-.15.61-.01.41.02.62.1.41.19.61c.09.21.22.41.36.6 0 .01.02.02.02.03.07.1.15.19.23.28.26.29.58.56.91.81.12.09.25.17.37.26.13.09.27.17.41.25.39.23.8.43 1.23.61.15.07.3.13.45.19.09.03.17.07.26.1 1.01.38 2.09.68 3.18.91 1.2.25 2.43.43 3.67.54s2.59.15 3.89.12 2.56-.13 3.81-.3c.9-.12 1.79-.29 2.67-.5.8-.19 1.59-.43 2.34-.71l.09-.03c.73-.28 1.44-.61 2.08-1.01.55-.34 1.05-.73 1.44-1.17"/><g opacity=".3"><path fill="url(#p)" d="M637 410.89c-.05-.35-.16-.69-.32-1.01-.18-.35-.41-.68-.69-.98-.18-.2-.37-.39-.58-.57-.07-.06-.15-.12-.22-.18-.45-.37-.96-.69-1.49-.99-.19-.11-.39-.21-.59-.31-8.3-4.11-18.93-4.18-27.31-.17-.58.28-1.14.59-1.65.94-.16.11-.31.22-.46.34-.5.39-.95.84-1.29 1.32-.15.22-.28.45-.38.69s-.16.47-.2.71l-.03.18c0 .41.09.83.26 1.22.18.42.46.82.78 1.19.42.46.93.88 1.48 1.25.64.42 1.33.79 2.06 1.11.82.36 1.68.67 2.56.93.97.29 1.96.52 2.97.72 1.07.21 2.16.36 3.26.48s2.28.19 3.42.21 2.3 0 3.45-.05 2.24-.17 3.35-.32c1.6-.22 3.19-.54 4.71-1 .69-.2 1.36-.44 2.01-.7.59-.24 1.17-.51 1.71-.82.49-.27.96-.58 1.38-.91.38-.3.72-.63 1.01-.99.26-.32.48-.67.62-1.04.14-.34.21-.71.22-1.06"/><path stroke="#231815" stroke-linecap="round" stroke-linejoin="round" stroke-width=".5" d="M637 410.89c-.05-.35-.16-.69-.32-1.01-.18-.35-.41-.68-.69-.98-.18-.2-.37-.39-.58-.57-.07-.06-.15-.12-.22-.18-.45-.37-.96-.69-1.49-.99-.19-.11-.39-.21-.59-.31-8.3-4.11-18.93-4.18-27.31-.17-.58.28-1.14.59-1.65.94-.16.11-.31.22-.46.34-.5.39-.95.84-1.29 1.32-.15.22-.28.45-.38.69s-.16.47-.2.71l-.03.18c0 .41.09.83.26 1.22.18.42.46.82.78 1.19.42.46.93.88 1.48 1.25.64.42 1.33.79 2.06 1.11.82.36 1.68.67 2.56.93.97.29 1.96.52 2.97.72 1.07.21 2.16.36 3.26.48s2.28.19 3.42.21 2.3 0 3.45-.05 2.24-.17 3.35-.32c1.6-.22 3.19-.54 4.71-1 .69-.2 1.36-.44 2.01-.7.59-.24 1.17-.51 1.71-.82.49-.27.96-.58 1.38-.91.38-.3.72-.63 1.01-.99.26-.32.48-.67.62-1.04.14-.34.21-.71.22-1.06"/></g><g opacity=".3"><path stroke="#231815" stroke-linecap="round" stroke-linejoin="round" stroke-width=".5" d="m635.979 398.42.07.01"/><path fill="url(#q)" d="M591.74 400.95c-1.62.52-3.21 1.12-4.75 1.85-1.25.59-2.46 1.27-3.55 2.1-.45.34-.89.72-1.29 1.12-.35.36-.67.74-.94 1.16-.24.37-.45.76-.59 1.18-.13.38-.21 1-.23 1.4 8.33 21.65 32.63 32.44 54.28 24.11a42 42 0 0 0 24.1-24.08c.02-.41-.02-.69-.13-1.1-.11-.43-.3-.84-.52-1.23-.25-.43-.56-.83-.9-1.2-.39-.42-.82-.81-1.27-1.17-1.1-.87-2.32-1.58-3.59-2.19a37 37 0 0 0-4.87-1.92c-.08-.03-.16-.05-.23-.08-.27-.09-.54-.17-.81-.25-.85-.25-1.7-.49-2.56-.7l-.26-.06c-.48-.12-.97-.23-1.45-.34a83 83 0 0 0-4.64-.9c-.17-.03-.34-.06-.51-.08l-.98-.15h-.07l-.16-.03-.45-.06c-.58-.08-1.16-.16-1.74-.23l-.15-.02-.15-.02c-.07 0-.14-.02-.21-.02l-.17-.02-.15-.02c-.34-.04-.69-.08-1.03-.11-.15-.02-.3-.03-.45-.05l-.18-.02c-.39-.04-.79-.08-1.18-.11-1.2-.11-2.41-.19-3.61-.26h-.21c-.29-.03-.57-.04-.86-.06-.27-.01-.55-.02-.82-.04-.13 0-.25 0-.38-.01-.11 0-.22 0-.33-.01h-.19c-1.19-.05-2.37-.07-3.56-.07h-1.6c-.99 0-1.99.03-2.98.06-.61.02-1.22.05-1.83.08h-.05c-.42.02-.85.05-1.27.07-1.25.08-2.51.17-3.76.29h-.06l-.6.06c-.26.03-.52.05-.78.08h-.11c-.27.04-.55.07-.82.1l-.15.02c-.18.02-.37.04-.55.07-.55.07-1.1.14-1.64.22l-.14.02-1.05.15c-.12.02-.23.04-.35.05-.67.1-1.33.22-2 .34-1.88.34-3.74.74-5.58 1.22-.06.02-.12.03-.18.05-.13.03-.26.07-.38.1-.38.1-.75.21-1.12.32l-.32.09c-.31.09-.62.19-.94.29"/><path stroke="#231815" stroke-linecap="round" stroke-linejoin="round" stroke-width=".5" d="M591.74 400.95c-1.62.52-3.21 1.12-4.75 1.85-1.25.59-2.46 1.27-3.55 2.1-.45.34-.89.72-1.29 1.12-.35.36-.67.74-.94 1.16-.24.37-.45.76-.59 1.18-.13.38-.21 1-.23 1.4 8.33 21.65 32.63 32.44 54.28 24.11a42 42 0 0 0 24.1-24.08c.02-.41-.02-.69-.13-1.1-.11-.43-.3-.84-.52-1.23-.25-.43-.56-.83-.9-1.2-.39-.42-.82-.81-1.27-1.17-1.1-.87-2.32-1.58-3.59-2.19a37 37 0 0 0-4.87-1.92c-.08-.03-.16-.05-.23-.08-.27-.09-.54-.17-.81-.25-.85-.25-1.7-.49-2.56-.7l-.26-.06c-.48-.12-.97-.23-1.45-.34a83 83 0 0 0-4.64-.9c-.17-.03-.34-.06-.51-.08l-.98-.15h-.07l-.16-.03-.45-.06c-.58-.08-1.16-.16-1.74-.23l-.15-.02-.15-.02c-.07 0-.14-.02-.21-.02l-.17-.02-.15-.02c-.34-.04-.69-.08-1.03-.11-.15-.02-.3-.03-.45-.05l-.18-.02c-.39-.04-.79-.08-1.18-.11-1.2-.11-2.41-.19-3.61-.26h-.21c-.29-.03-.57-.04-.86-.06-.27-.01-.55-.02-.82-.04-.13 0-.25 0-.38-.01-.11 0-.22 0-.33-.01h-.19c-1.19-.05-2.37-.07-3.56-.07h-1.6c-.99 0-1.99.03-2.98.06-.61.02-1.22.05-1.83.08h-.05c-.42.02-.85.05-1.27.07-1.25.08-2.51.17-3.76.29h-.06l-.6.06c-.26.03-.52.05-.78.08h-.11c-.27.04-.55.07-.82.1l-.15.02c-.18.02-.37.04-.55.07-.55.07-1.1.14-1.64.22l-.14.02-1.05.15c-.12.02-.23.04-.35.05-.67.1-1.33.22-2 .34-1.88.34-3.74.74-5.58 1.22-.06.02-.12.03-.18.05-.13.03-.26.07-.38.1-.38.1-.75.21-1.12.32l-.32.09c-.31.09-.62.19-.94.29"/></g><defs><linearGradient id="a" x1="508.64" x2="730.6" y1="311.25" y2="311.25" gradientUnits="userSpaceOnUse"><stop stop-color="#231815"/><stop offset=".34" stop-color="#595757"/><stop offset=".67"/><stop offset="1" stop-color="#595757"/></linearGradient><linearGradient id="b" x1="503" x2="736.24" y1="354.39" y2="354.39" gradientUnits="userSpaceOnUse"><stop stop-color="#ebebeb"/><stop offset=".1" stop-color="#f1f1f1"/><stop offset=".38" stop-color="#fefefe"/><stop offset=".42" stop-color="#f1f1f1"/><stop offset=".5" stop-color="#e0e0e0"/><stop offset=".59" stop-color="#d6d6d6"/><stop offset=".69" stop-color="#d3d3d3"/><stop offset="1" stop-color="#e4e3e1"/></linearGradient><linearGradient id="c" x1="520.33" x2="721.04" y1="417.25" y2="363.48" gradientUnits="userSpaceOnUse"><stop stop-color="#231815"/><stop offset=".34" stop-color="#595757"/><stop offset=".67"/><stop offset="1" stop-color="#595757"/></linearGradient><linearGradient id="d" x1="619.73" x2="621.64" y1="380.7" y2="380.7" gradientUnits="userSpaceOnUse"><stop stop-color="#231815"/><stop offset="1" stop-color="#595757"/></linearGradient><linearGradient id="e" x1="696.61" x2="705.33" y1="393.91" y2="393.91" gradientUnits="userSpaceOnUse"><stop stop-color="#231815"/><stop offset="1" stop-color="#595757"/></linearGradient><linearGradient id="f" x1="695.76" x2="704.46" y1="392.99" y2="392.99" gradientUnits="userSpaceOnUse"><stop stop-color="#231815"/><stop offset="1" stop-color="#595757"/></linearGradient><linearGradient id="g" x1="694.81" x2="703.49" y1="392.08" y2="392.08" gradientUnits="userSpaceOnUse"><stop stop-color="#231815"/><stop offset="1" stop-color="#595757"/></linearGradient><linearGradient id="h" x1="693.75" x2="702.43" y1="391.19" y2="391.19" gradientUnits="userSpaceOnUse"><stop stop-color="#231815"/><stop offset="1" stop-color="#595757"/></linearGradient><linearGradient id="i" x1="692.59" x2="701.27" y1="390.31" y2="390.31" gradientUnits="userSpaceOnUse"><stop stop-color="#231815"/><stop offset="1" stop-color="#595757"/></linearGradient><linearGradient id="j" x1="691.32" x2="700.02" y1="389.44" y2="389.44" gradientUnits="userSpaceOnUse"><stop stop-color="#231815"/><stop offset="1" stop-color="#595757"/></linearGradient><linearGradient id="k" x1="689.95" x2="698.68" y1="388.58" y2="388.58" gradientUnits="userSpaceOnUse"><stop stop-color="#231815"/><stop offset="1" stop-color="#595757"/></linearGradient><linearGradient id="l" x1="613.83" x2="627.44" y1="362.31" y2="362.59" gradientUnits="userSpaceOnUse"><stop stop-color="#595757"/><stop offset=".5" stop-color="#261c19"/><stop offset="1" stop-color="#595757"/></linearGradient><linearGradient id="m" x1="628.53" x2="616.09" y1="362.56" y2="362.12" gradientUnits="userSpaceOnUse"><stop stop-color="#231815"/><stop offset=".55" stop-color="#595757"/><stop offset="1" stop-color="#231815"/></linearGradient><linearGradient id="n" x1="541.37" x2="542.74" y1="391.12" y2="389.6" gradientUnits="userSpaceOnUse"><stop stop-color="#231815"/><stop offset="1" stop-color="#595757"/></linearGradient><linearGradient id="p" x1="601.77" x2="637.02" y1="410.84" y2="410.84" gradientUnits="userSpaceOnUse"><stop stop-color="#aeadab"/><stop offset=".34" stop-color="#e9e9e9"/><stop offset=".67" stop-color="#e0e0e0"/><stop offset="1" stop-color="#e0e0de"/></linearGradient><linearGradient id="q" x1="580.39" x2="658.78" y1="416.98" y2="416.98" gradientUnits="userSpaceOnUse"><stop stop-color="#aeadab"/><stop offset=".34" stop-color="#e9e9e9"/><stop offset=".67" stop-color="#e0e0e0"/><stop offset="1" stop-color="#e0e0de"/></linearGradient><radialGradient id="o" cx="0" cy="0" r="1" gradientTransform="translate(619.58 409.25)scale(52.13)" gradientUnits="userSpaceOnUse"><stop stop-color="gray"/><stop offset=".11" stop-color="#333"/><stop offset=".39"/><stop offset="1" stop-color="#262626"/></radialGradient></defs></svg>