<svg width="20" height="20" viewBox="0 0 20 20" fill="none" xmlns="http://www.w3.org/2000/svg">
<g clip-path="url(#clip0_2156_266)">
<circle cx="10" cy="10" r="10" fill="black" fill-opacity="0.75"/>
<path d="M14.5 10C14.5 9.70333 14.588 9.41332 14.7528 9.16665C14.9176 8.91997 15.1519 8.72771 15.426 8.61418C15.7001 8.50065 16.0017 8.47094 16.2926 8.52882C16.5836 8.5867 16.8509 8.72956 17.0607 8.93934C17.2704 9.14912 17.4133 9.41639 17.4712 9.70737C17.5291 9.99834 17.4994 10.2999 17.3858 10.574C17.2723 10.8481 17.08 11.0824 16.8334 11.2472C16.5867 11.412 16.2967 11.5 16 11.5C15.6022 11.5 15.2206 11.342 14.9393 11.0607C14.658 10.7794 14.5 10.3978 14.5 10ZM8.5 10C8.5 9.70333 8.58797 9.41332 8.7528 9.16665C8.91762 8.91997 9.15189 8.72771 9.42597 8.61418C9.70006 8.50065 10.0017 8.47094 10.2926 8.52882C10.5836 8.5867 10.8509 8.72956 11.0607 8.93934C11.2704 9.14912 11.4133 9.41639 11.4712 9.70737C11.5291 9.99834 11.4994 10.2999 11.3858 10.574C11.2723 10.8481 11.08 11.0824 10.8334 11.2472C10.5867 11.412 10.2967 11.5 10 11.5C9.60218 11.5 9.22064 11.342 8.93934 11.0607C8.65804 10.7794 8.5 10.3978 8.5 10ZM2.5 10C2.5 9.70333 2.58797 9.41332 2.7528 9.16665C2.91762 8.91997 3.15189 8.72771 3.42597 8.61418C3.70006 8.50065 4.00166 8.47094 4.29264 8.52882C4.58361 8.5867 4.85088 8.72956 5.06066 8.93934C5.27044 9.14912 5.4133 9.41639 5.47118 9.70737C5.52906 9.99834 5.49935 10.2999 5.38582 10.574C5.27229 10.8481 5.08003 11.0824 4.83336 11.2472C4.58668 11.412 4.29667 11.5 4 11.5C3.60218 11.5 3.22064 11.342 2.93934 11.0607C2.65804 10.7794 2.5 10.3978 2.5 10Z" fill="white"/>
</g>
<defs>
<clipPath id="clip0_2156_266">
<rect width="20" height="20" fill="white"/>
</clipPath>
</defs>
</svg>
