<svg width="16" height="16" viewBox="0 0 16 16" fill="none" xmlns="http://www.w3.org/2000/svg">
<path d="M13 5.5H3C2.72386 5.5 2.5 5.72386 2.5 6V13C2.5 13.2761 2.72386 13.5 3 13.5H13C13.2761 13.5 13.5 13.2761 13.5 13V6C13.5 5.72386 13.2761 5.5 13 5.5Z" stroke="currentColor" stroke-linecap="round" stroke-linejoin="round"/>
<path d="M5.75 5.5V3.25C5.75 2.65326 5.98705 2.08097 6.40901 1.65901C6.831 1.23705 7.40327 1 8 1C8.59673 1 9.169 1.23705 9.591 1.65901C10.0129 2.08097 10.25 2.65326 10.25 3.25V5.5" stroke="currentColor" stroke-linecap="round" stroke-linejoin="round"/>
<path d="M8 10.25C8.4142 10.25 8.75 9.9142 8.75 9.5C8.75 9.0858 8.4142 8.75 8 8.75C7.5858 8.75 7.25 9.0858 7.25 9.5C7.25 9.9142 7.5858 10.25 8 10.25Z" fill="currentColor"/>
</svg>
