<svg width="16" height="16" viewBox="0 0 16 16" fill="none" xmlns="http://www.w3.org/2000/svg">
<path d="M5.41443 15.0404H1.59598C1.42719 15.0404 1.26533 14.9734 1.14597 14.854C1.02662 14.7347 0.95957 14.5728 0.95957 14.404V10.8481C0.959281 10.7655 0.975293 10.6836 1.00669 10.6071C1.03809 10.5307 1.08425 10.4612 1.14254 10.4026L10.6886 0.856519C10.7478 0.796391 10.8184 0.748644 10.8963 0.716043C10.9742 0.68345 11.0577 0.666666 11.1421 0.666666C11.2265 0.666666 11.31 0.68345 11.3879 0.716043C11.4657 0.748644 11.5363 0.796391 11.5955 0.856519L15.1435 4.40449C15.2036 4.46371 15.2514 4.5343 15.284 4.61214C15.3166 4.68999 15.3334 4.77354 15.3334 4.85793C15.3334 4.94233 15.3166 5.02588 15.284 5.10372C15.2514 5.18157 15.2036 5.25216 15.1435 5.31137L5.41443 15.0404Z" stroke="currentColor" stroke-linecap="round" stroke-linejoin="round"/>
<path d="M8.59645 2.9487L13.0513 7.40355" stroke="currentColor" stroke-linecap="round" stroke-linejoin="round"/>
<path d="M14.9605 15.0404H5.41442L0.99935 10.6254" stroke="currentColor" stroke-linecap="round" stroke-linejoin="round"/>
<path d="M10.8239 5.17613L3.18699 12.813" stroke="currentColor" stroke-linecap="round" stroke-linejoin="round"/>
</svg>
