<svg width="100" height="100" viewBox="0 0 100 100" fill="none" xmlns="http://www.w3.org/2000/svg">
<path d="M49.9875 42.3404C47.956 42.3404 46.0078 43.1474 44.5713 44.5838C43.1348 46.0203 42.3278 47.9686 42.3278 50C42.3278 53.9064 41.9449 59.6128 41.3321 65.3192" stroke="currentColor" stroke-width="8.33333" stroke-linecap="round" stroke-linejoin="round"/>
<path d="M57.6471 54.2894C57.6471 63.4043 57.6471 78.7236 53.8173 88.2981" stroke="currentColor" stroke-width="8.33333" stroke-linecap="round" stroke-linejoin="round"/>
<path d="M70.2471 84.5449C70.7067 82.247 71.8939 75.7363 72.162 72.9789" stroke="currentColor" stroke-width="8.33333" stroke-linecap="round" stroke-linejoin="round"/>
<path d="M11.6894 50C11.6894 41.9619 14.2185 34.1276 18.9184 27.6067C23.6184 21.0859 30.2509 16.2091 37.8765 13.6672C45.5021 11.1254 53.7342 11.0472 61.4067 13.4439C69.0792 15.8406 75.8031 20.5907 80.6259 27.0211" stroke="currentColor" stroke-width="8.33333" stroke-linecap="round" stroke-linejoin="round"/>
<path d="M11.6894 65.3192H11.7277" stroke="currentColor" stroke-width="8.33333" stroke-linecap="round" stroke-linejoin="round"/>
<path d="M87.5196 65.3192C88.2856 57.6596 88.0213 44.8144 87.5196 42.3404" stroke="currentColor" stroke-width="8.33333" stroke-linecap="round" stroke-linejoin="round"/>
<path d="M23.1788 78.7236C25.0937 72.9789 27.0086 61.4894 27.0086 50C27.0047 47.3914 27.445 44.8012 28.3107 42.3404" stroke="currentColor" stroke-width="8.33333" stroke-linecap="round" stroke-linejoin="round"/>
<path d="M37.1576 88.2981C37.9619 85.7704 38.881 83.2427 39.3406 80.6385" stroke="currentColor" stroke-width="8.33333" stroke-linecap="round" stroke-linejoin="round"/>
<path d="M38.498 30.085C41.9924 28.0676 45.9563 27.0058 49.9912 27.0064C54.026 27.0071 57.9896 28.0701 61.4833 30.0887C64.9769 32.1072 67.8775 35.0101 69.8933 38.5054C71.909 42.0007 72.9689 45.9651 72.9663 50V57.6596" stroke="currentColor" stroke-width="8.33333" stroke-linecap="round" stroke-linejoin="round"/>
</svg>
