<?xml version="1.0" encoding="UTF-8"?>
<svg id="_레이어_1" data-name="레이어 1" xmlns="http://www.w3.org/2000/svg" viewBox="0 0 127.22 127.37">
  <defs>
    <style>
      .cls-1 {
        font-family: NotoSans, 'Noto Sans';
        font-size: 10px;
        letter-spacing: .14em;
      }

      .cls-2 {
        fill: #fff;
        stroke: #717171;
      }

      .cls-2, .cls-3 {
        stroke-miterlimit: 10;
      }

      .cls-4 {
        fill: #f37979;
      }

      .cls-5 {
        fill: #fec46b;
      }

      .cls-6 {
        fill: #64abec;
      }

      .cls-7 {
        fill: #b4b4b5;
      }

      .cls-8 {
        fill: #f691aa;
      }

      .cls-3 {
        fill: #f6f7f7;
        stroke: #dfdfdf;
      }
    </style>
  </defs>
  <circle class="cls-3" cx="63.55" cy="63.37" r="62.84"/>
  <polygon class="cls-2" points="71.03 23.08 102.52 31.6 93.62 46.63 62.13 38.11 71.03 23.08"/>
  <polygon class="cls-2" points="53.24 23.08 21.75 31.6 30.65 46.63 62.13 38.11 53.24 23.08"/>
  <circle class="cls-8" cx="45.56" cy="44.22" r="10.74"/>
  <circle class="cls-7" cx="59.32" cy="39.66" r="10.74"/>
  <circle class="cls-4" cx="72.88" cy="38.5" r="10.74"/>
  <circle class="cls-5" cx="62.67" cy="48.4" r="10.74"/>
  <circle class="cls-6" cx="80.81" cy="44.22" r="10.74"/>
  <polygon class="cls-2" points="62.13 56.15 30.75 46.66 30.75 88.98 62.13 98.47 93.52 88.98 93.52 46.66 62.13 56.15"/>
  <line class="cls-2" x1="62.13" y1="56.15" x2="62.13" y2="97.89"/>
  <polygon class="cls-2" points="53.24 70.18 21.75 61.66 30.65 46.63 62.13 55.15 53.24 70.18"/>
  <polygon class="cls-2" points="71.03 70.18 102.52 61.66 93.62 46.63 62.13 55.15 71.03 70.18"/>
  <text class="cls-1" transform="translate(45.13 110.52)"><tspan x="0" y="0">G-SDK</tspan></text>
</svg>