<svg xmlns="http://www.w3.org/2000/svg" width="371" height="440" fill="none" viewBox="0 0 371 440"><path fill="#fff" d="M0 0h371v440H0z"/><path stroke="#000" stroke-miterlimit="10" stroke-width="1.7" d="M43.17 135.46h53.89"/><path fill="#000" d="M78.18 148.84h-4.09v-3.98c0-.97-.8-1.77-1.77-1.77H67.9c-.97 0-1.77.8-1.77 1.77v3.98h-4.09c-.91 0-1.66.75-1.66 1.66s.75 1.66 1.66 1.66h16.12c.91 0 1.66-.75 1.66-1.66s-.75-1.66-1.66-1.66z"/><path stroke="#000" stroke-miterlimit="10" stroke-width="1.7" d="M95.06 105.83H45.17a2 2 0 0 0-2 2v33.95a2 2 0 0 0 2 2h49.89a2 2 0 0 0 2-2v-33.95a2 2 0 0 0-2-2Z"/><path fill="#231815" d="M66.08 113H52v8.66h14.08z"/><path stroke="#000" stroke-miterlimit="10" d="M52 125.45h14.08M52 129.24h14.08"/><path fill="#231815" d="M74.15 129.25h14.08v-8.66H74.15z"/><path stroke="#000" stroke-miterlimit="10" d="M88.23 116.79H74.15M88.23 113H74.15"/><path fill="#231815" d="M29.59 163.28h2.47v3.5c-.39.13-.78.22-1.17.28s-.84.09-1.34.09c-.74 0-1.36-.15-1.87-.44-.51-.3-.89-.72-1.16-1.27s-.4-1.2-.4-1.96.15-1.38.44-1.93.71-.98 1.27-1.28c.55-.3 1.22-.46 2-.46.4 0 .78.04 1.13.11.36.07.69.18 1 .31l-.34.78c-.25-.11-.54-.2-.85-.29q-.48-.12-.99-.12c-.85 0-1.52.26-1.99.78q-.72.78-.72 2.1c0 .57.09 1.07.28 1.5.18.44.47.78.86 1.02s.91.37 1.55.37c.31 0 .58-.02.8-.05q.33-.045.6-.12v-2.12h-1.57zM35.68 161.6c.65 0 1.14.14 1.45.43s.47.74.47 1.37v3.65h-.64l-.17-.76h-.04c-.23.29-.48.51-.74.65s-.61.21-1.06.21c-.49 0-.89-.13-1.21-.38s-.48-.66-.48-1.21.21-.94.63-1.23 1.07-.45 1.94-.48l.91-.03v-.32c0-.45-.1-.76-.29-.93s-.47-.26-.82-.26c-.28 0-.55.04-.8.12s-.49.18-.71.29l-.27-.66c.23-.13.51-.23.83-.33.32-.09.65-.13 1-.13m1.06 2.83-.79.03c-.67.03-1.13.13-1.39.32s-.38.45-.38.79q0 .45.27.66c.18.14.42.21.71.21.45 0 .82-.12 1.12-.38.3-.25.46-.63.46-1.15zM40.14 167.05h-.88v-7.6h.88zM42.72 167.05h-.88v-7.6h.88zM46.45 161.6c.65 0 1.14.14 1.45.43s.47.74.47 1.37v3.65h-.64l-.17-.76h-.04c-.23.29-.48.51-.74.65s-.61.21-1.06.21c-.49 0-.89-.13-1.21-.38s-.48-.66-.48-1.21.21-.94.63-1.23 1.07-.45 1.94-.48l.91-.03v-.32c0-.45-.1-.76-.29-.93s-.47-.26-.82-.26c-.28 0-.55.04-.8.12s-.49.18-.71.29l-.27-.66c.23-.13.51-.23.83-.33.32-.09.65-.13 1-.13m1.06 2.83-.79.03c-.67.03-1.13.13-1.39.32s-.38.45-.38.79q0 .45.27.66c.18.14.42.21.71.21.45 0 .82-.12 1.12-.38.3-.25.46-.63.46-1.15zM51.93 161.59c.35 0 .67.07.96.2.28.13.52.34.73.61h.05l.12-.71h.7v5.45c0 .77-.19 1.34-.58 1.73s-.99.58-1.81.58-1.43-.11-1.93-.34v-.81q.795.42 1.98.42c.46 0 .82-.13 1.08-.41.26-.27.4-.64.4-1.1v-.55c0-.15.01-.26.02-.32h-.04c-.36.54-.91.81-1.66.81-.69 0-1.23-.24-1.62-.73s-.58-1.17-.58-2.04.2-1.53.58-2.04q.585-.75 1.62-.75zm.12.74c-.45 0-.79.18-1.04.54s-.37.86-.37 1.52.12 1.17.36 1.52.6.52 1.07.52c.54 0 .93-.14 1.18-.43s.37-.76.37-1.41v-.21c0-.73-.13-1.25-.38-1.57s-.65-.48-1.19-.48M57.06 159.45v2.23c0 .27-.02.52-.05.75h.06c.17-.27.41-.48.7-.62.3-.14.62-.21.97-.21.65 0 1.13.16 1.46.46.33.31.5.81.5 1.5v3.49h-.87v-3.43q0-1.29-1.2-1.29c-.6 0-1.01.17-1.23.5s-.33.82-.33 1.45v2.77h-.88v-7.6h.88zM64.43 161.59c.45 0 .85.1 1.18.3s.59.48.77.84.26.79.26 1.28v.53h-3.67c.01.61.17 1.07.46 1.38.3.32.71.47 1.25.47.34 0 .64-.03.91-.09.26-.06.53-.16.81-.27v.77c-.27.12-.54.21-.81.26s-.58.08-.95.08c-.51 0-.96-.1-1.35-.31s-.69-.51-.9-.92-.33-.91-.33-1.51.1-1.09.3-1.51.47-.74.83-.97.77-.34 1.25-.34zm0 .72c-.42 0-.75.13-1 .41-.24.27-.39.64-.44 1.12h2.73c0-.45-.11-.82-.32-1.11-.21-.28-.53-.42-.98-.42zM70.5 161.59c.1 0 .21 0 .32.01s.22.03.31.04l-.11.81c-.09-.02-.18-.04-.29-.05s-.2-.02-.29-.02c-.27 0-.53.08-.77.23s-.43.36-.58.63c-.14.27-.21.58-.21.94v2.86H68v-5.36h.72l.1.98h.04c.17-.29.39-.55.67-.76s.6-.32.98-.32zM76.74 159.91c.93 0 1.61.18 2.04.55s.64.88.64 1.55q0 .585-.27 1.11c-.18.34-.47.62-.89.83s-.98.32-1.69.32h-.82v2.78h-.9v-7.14zm-.08.77h-.91v2.82h.72c.68 0 1.19-.11 1.52-.33s.5-.59.5-1.12c0-.46-.15-.8-.44-1.03-.3-.23-.76-.34-1.39-.34M81.66 167.05h-.88v-7.6h.88zM85.39 161.6c.65 0 1.14.14 1.45.43s.47.74.47 1.37v3.65h-.64l-.17-.76h-.04c-.23.29-.48.51-.74.65s-.61.21-1.06.21c-.49 0-.89-.13-1.21-.38s-.48-.66-.48-1.21.21-.94.63-1.23 1.07-.45 1.94-.48l.91-.03v-.32c0-.45-.1-.76-.29-.93s-.47-.26-.82-.26c-.28 0-.55.04-.8.12s-.49.18-.71.29l-.27-.66c.23-.13.51-.23.83-.33.32-.09.65-.13 1-.13m1.05 2.83-.79.03c-.67.03-1.13.13-1.39.32s-.38.45-.38.79q0 .45.27.66c.18.14.42.21.71.21.45 0 .82-.12 1.12-.38.3-.25.46-.63.46-1.15zM90.76 166.43c.13 0 .27 0 .41-.03.14-.02.25-.05.34-.08v.67c-.09.05-.23.08-.4.11s-.34.04-.5.04c-.28 0-.54-.05-.78-.14-.24-.1-.43-.26-.57-.5-.15-.24-.22-.58-.22-1.01v-3.12h-.76v-.42l.77-.35.35-1.14h.52v1.23h1.55v.68h-1.55v3.1q0 .495.24.72.24.24.6.24M95.05 162.37H93.7v4.68h-.88v-4.68h-.94v-.41l.94-.3v-.31c0-.69.15-1.19.46-1.5.3-.3.73-.46 1.29-.46.21 0 .4.02.58.06s.33.08.46.12l-.23.69c-.11-.03-.23-.07-.37-.1s-.28-.05-.43-.05c-.29 0-.51.1-.65.29-.14.2-.21.5-.21.92v.35h1.35v.68zM100.68 164.36c0 .89-.22 1.57-.67 2.06s-1.06.73-1.83.73c-.47 0-.89-.11-1.26-.32s-.66-.53-.88-.95-.32-.92-.32-1.52c0-.89.22-1.57.67-2.05q.66-.72 1.83-.72c.48 0 .91.11 1.28.33s.67.53.88.94.31.91.31 1.5zm-4.05 0c0 .63.12 1.14.38 1.51.25.37.65.55 1.19.55s.94-.19 1.19-.55c.25-.37.38-.87.38-1.51s-.13-1.13-.38-1.49q-.375-.54-1.2-.54c-.55 0-.94.18-1.19.54s-.37.86-.37 1.49M104.57 161.59c.1 0 .21 0 .32.01s.22.03.31.04l-.11.81c-.09-.02-.18-.04-.29-.05s-.2-.02-.29-.02c-.27 0-.53.08-.77.23s-.43.36-.58.63c-.14.27-.21.58-.21.94v2.86h-.88v-5.36h.72l.1.98h.04c.17-.29.39-.55.67-.76s.6-.32.98-.32zM112.08 161.59c.61 0 1.06.16 1.36.47q.45.465.45 1.5v3.49h-.87v-3.45c0-.85-.36-1.27-1.09-1.27-.52 0-.89.15-1.12.45-.22.3-.33.74-.33 1.31v2.96h-.87v-3.45c0-.85-.37-1.27-1.1-1.27-.54 0-.91.17-1.12.5s-.31.81-.31 1.44v2.78h-.88v-5.36h.71l.13.73h.05c.17-.28.39-.49.67-.62q.42-.21.9-.21c.84 0 1.39.3 1.64.9h.05c.18-.31.42-.53.73-.68s.64-.22.99-.22z"/><path stroke="#000" stroke-miterlimit="10" stroke-width="1.7" d="M183.58 352.49h-32.33v46.67h32.33z"/><path stroke="#000" stroke-miterlimit="10" stroke-width="1.7" d="m183.59 399.16-25-7.95v-32.15l25-6.3z"/><path stroke="#000" stroke-miterlimit="10" stroke-width=".85" d="M163.23 377.66a1.83 1.83 0 1 0 0-3.66 1.83 1.83 0 0 0 0 3.66Z"/><path stroke="#000" stroke-miterlimit="10" stroke-width="1.7" d="M131.54 400.16h71.76"/><path fill="#231815" d="M162.34 413.73c0 1.21-.33 2.11-.98 2.72-.66.61-1.57.92-2.75.92h-1.99v-7.14h2.2c.71 0 1.33.13 1.87.4.53.27.94.66 1.22 1.18.29.52.43 1.16.43 1.92m-.95.03c0-.95-.24-1.65-.71-2.09s-1.14-.67-2-.67h-1.17v5.6h.97c1.93 0 2.9-.95 2.9-2.84zM168.46 414.68c0 .89-.22 1.57-.67 2.06s-1.06.73-1.83.73c-.47 0-.89-.11-1.26-.32s-.66-.53-.88-.95-.32-.92-.32-1.52c0-.89.22-1.57.67-2.05q.66-.72 1.83-.72c.48 0 .91.11 1.28.33s.67.53.88.94.31.91.31 1.5zm-4.05 0c0 .63.12 1.14.38 1.51.25.37.65.55 1.19.55s.94-.19 1.19-.55c.25-.37.38-.87.38-1.51s-.13-1.13-.38-1.49q-.375-.54-1.2-.54c-.55 0-.94.18-1.19.54s-.37.86-.37 1.49M174.51 414.68c0 .89-.22 1.57-.67 2.06s-1.06.73-1.83.73c-.47 0-.89-.11-1.26-.32s-.66-.53-.88-.95-.32-.92-.32-1.52c0-.89.22-1.57.67-2.05q.66-.72 1.83-.72c.48 0 .91.11 1.28.33s.67.53.88.94.31.91.31 1.5zm-4.05 0c0 .63.12 1.14.38 1.51.25.37.65.55 1.19.55s.94-.19 1.19-.55c.25-.37.38-.87.38-1.51s-.13-1.13-.38-1.49q-.375-.54-1.2-.54c-.55 0-.94.18-1.19.54s-.37.86-.37 1.49M178.4 411.91c.1 0 .21 0 .32.01s.22.03.31.04l-.11.81c-.09-.02-.18-.04-.29-.05s-.2-.02-.29-.02c-.27 0-.53.08-.77.23s-.43.36-.58.63c-.14.27-.21.58-.21.94v2.86h-.88V412h.72l.1.98h.04c.17-.29.39-.55.67-.76s.6-.32.98-.32z"/><path stroke="#231815" stroke-linecap="round" stroke-miterlimit="10" stroke-width="1.7" d="M70.11 175.22v48.42M270.47 175.22v48.42M70.12 318.16v58.14M70.12 376.3h50.79"/><path fill="#898989" d="M54.68 382.54q1.2 0 1.77.45c.38.3.57.76.57 1.37 0 .34-.06.63-.19.85-.13.23-.29.41-.48.55s-.4.24-.62.32l1.76 2.88h-.94l-1.56-2.66h-1.28v2.66h-.81v-6.43h1.77zm-.04.71h-.92v2.38h.96c.52 0 .9-.1 1.14-.31s.36-.51.36-.91-.13-.72-.38-.9-.64-.26-1.17-.26zM60.26 384.06c.41 0 .76.09 1.06.27s.53.43.69.76.24.71.24 1.15v.48h-3.3c.01.55.15.96.42 1.25s.64.43 1.12.43q.465 0 .81-.09c.24-.06.48-.14.73-.25v.69c-.25.11-.49.19-.73.24s-.52.08-.85.08c-.46 0-.87-.09-1.21-.28-.35-.19-.62-.46-.81-.83-.2-.37-.29-.82-.29-1.36s.09-.98.27-1.36q.27-.57.75-.87c.32-.2.69-.31 1.12-.31zm0 .64q-.57 0-.9.36c-.22.24-.35.58-.39 1.01h2.46c0-.41-.1-.74-.29-1-.19-.25-.48-.38-.88-.38zM64.27 388.97h-.79v-6.84h.79zM67.63 384.06c.59 0 1.02.13 1.31.39q.42.39.42 1.23v3.29h-.58l-.15-.68h-.04c-.21.26-.43.46-.67.58-.23.13-.55.19-.95.19-.44 0-.8-.12-1.09-.35s-.43-.59-.43-1.08.19-.85.57-1.11.96-.4 1.75-.43l.82-.03v-.29c0-.4-.09-.68-.26-.84s-.42-.23-.74-.23c-.25 0-.49.04-.72.11s-.44.16-.64.26l-.24-.59c.21-.11.46-.21.75-.29q.435-.12.9-.12zm.94 2.55-.71.03c-.6.02-1.02.12-1.25.29s-.35.41-.35.71c0 .27.08.47.25.59s.38.19.63.19c.4 0 .74-.11 1.01-.34.27-.22.41-.57.41-1.04v-.43zM70.09 384.15h.85l1.04 2.75q.135.375.24.69c.07.22.13.42.16.62h.04c.04-.15.09-.35.17-.59s.16-.49.24-.73l.98-2.74h.85l-2.08 5.49c-.17.46-.39.82-.66 1.09-.26.27-.63.41-1.1.41-.14 0-.27 0-.38-.02s-.2-.03-.28-.05v-.63c.07.01.15.02.24.04.09.01.19.02.29.02.28 0 .5-.08.67-.23.17-.16.3-.36.41-.62l.25-.64-1.94-4.84zM80.27 382.54l-2.39 6.43h-.77l2.39-6.43zM85.61 388.97h-.81v-5.71h-2.01v-.71h4.81v.71h-2v5.71zM90.79 388.97h-.81v-5.71h-2.01v-.71h4.82v.71h-2zM93.76 388.97v-6.43h.81v5.71h2.81v.72zM102.63 388.97h-2.32v-.47l.76-.17v-5.14l-.76-.18v-.47h2.32v.47l-.76.18v5.14l.76.17zM106.08 384.06c.58 0 1.01.14 1.3.42s.44.73.44 1.35v3.14h-.78v-3.09c0-.77-.36-1.16-1.08-1.16q-.795 0-1.11.45c-.21.3-.31.73-.31 1.3v2.5h-.79v-4.82h.64l.12.66h.04c.16-.25.37-.44.65-.56q.42-.18.87-.18zM111.62 384.06c.59 0 1.07.21 1.44.62.36.41.54 1.04.54 1.87s-.18 1.45-.54 1.87c-.36.43-.84.64-1.44.64-.37 0-.68-.07-.92-.21s-.43-.3-.57-.5h-.05c0 .1.02.23.03.39.02.16.02.29.02.4v1.98h-.79v-6.98h.65l.11.66h.04c.14-.21.33-.39.57-.53.23-.14.55-.22.94-.22zm-.15.66c-.49 0-.84.14-1.04.41s-.31.7-.32 1.26v.15c0 .59.1 1.05.29 1.37s.56.48 1.08.48q.435 0 .72-.24c.19-.16.33-.38.43-.66.09-.28.14-.6.14-.96 0-.55-.11-.99-.32-1.32s-.54-.5-.99-.5zM118.89 384.15v4.82h-.65l-.12-.64h-.04c-.16.25-.37.44-.65.55a2.2 2.2 0 0 1-.88.18c-.58 0-1.02-.14-1.31-.42s-.44-.72-.44-1.34v-3.16h.8v3.11c0 .77.36 1.15 1.07 1.15q.795 0 1.11-.45c.21-.3.31-.73.31-1.3v-2.51h.79zM122.03 388.41c.12 0 .24 0 .37-.03s.23-.04.31-.07v.6c-.08.04-.2.08-.36.1-.16.03-.31.04-.45.04-.25 0-.48-.04-.7-.13-.21-.09-.39-.24-.52-.46s-.2-.52-.2-.91v-2.81h-.68v-.38l.69-.32.32-1.03h.47v1.11h1.39v.61h-1.39v2.79c0 .29.07.51.21.65q.21.21.54.21z"/><path stroke="#231815" stroke-linecap="round" stroke-miterlimit="10" stroke-width="1.7" d="M104.1 251.62h140.62"/><path fill="#898989" d="m163.94 237.42-1.71 6.43h-.82l-1.25-4.21c-.05-.17-.1-.34-.15-.52s-.08-.33-.12-.47c-.03-.13-.05-.23-.06-.28 0 .08-.04.25-.1.5s-.13.52-.21.8l-1.21 4.18h-.82l-1.7-6.43h.85l1 3.92c.07.28.13.54.18.8s.09.5.12.73c.03-.23.08-.49.14-.77q.09-.42.21-.81l1.13-3.88h.84l1.18 3.91c.08.28.16.55.22.83s.1.52.14.72q.03-.33.12-.72c.06-.26.12-.53.19-.81l.99-3.92h.85zM165.23 237.22c.12 0 .23.04.32.12s.14.21.14.38-.05.3-.14.38-.2.12-.32.12q-.195 0-.33-.12c-.09-.08-.13-.21-.13-.38s.04-.3.13-.38q.135-.12.33-.12m.38 1.81v4.82h-.79v-4.82zM169.01 238.94c.41 0 .76.09 1.06.27s.53.43.69.76.24.71.24 1.15v.48h-3.3c.01.55.15.96.42 1.25s.64.43 1.12.43q.465 0 .81-.09c.24-.06.48-.14.73-.25v.69c-.25.11-.49.19-.73.24s-.52.08-.85.08c-.46 0-.87-.09-1.21-.28-.35-.19-.62-.46-.81-.83-.2-.37-.29-.82-.29-1.36s.09-.98.27-1.36q.27-.57.75-.87c.32-.2.69-.31 1.12-.31zm-.01.64q-.57 0-.9.36c-.22.24-.35.58-.39 1.01h2.46c0-.41-.1-.74-.29-1-.19-.25-.48-.38-.88-.38zM173.93 238.94c.32 0 .6.06.86.18.25.12.47.3.65.55h.05l.11-.64h.63v4.91c0 .69-.18 1.21-.53 1.56s-.9.52-1.63.52-1.29-.1-1.74-.31v-.73c.47.25 1.07.38 1.78.38.41 0 .74-.12.98-.36s.36-.58.36-1v-.5c0-.13.01-.23.02-.28h-.04c-.32.49-.82.73-1.49.73-.62 0-1.11-.22-1.46-.66s-.53-1.05-.53-1.84.18-1.38.53-1.83.84-.68 1.45-.68m.11.66c-.4 0-.71.16-.94.48s-.33.78-.33 1.37.11 1.05.32 1.36c.22.31.54.47.96.47.49 0 .84-.13 1.06-.39q.33-.39.33-1.26v-.19c0-.65-.11-1.12-.34-1.41s-.58-.43-1.07-.43zM179.58 238.94c.59 0 1.02.13 1.31.39q.42.39.42 1.23v3.29h-.58l-.15-.68h-.04c-.21.26-.43.46-.67.58-.23.13-.55.19-.95.19-.44 0-.8-.12-1.09-.35s-.43-.59-.43-1.08.19-.85.57-1.11.96-.4 1.75-.43l.82-.03v-.29c0-.4-.09-.68-.26-.84s-.42-.23-.74-.23c-.25 0-.49.04-.72.11s-.44.16-.64.26l-.24-.59c.21-.11.46-.21.75-.29q.435-.12.9-.12zm.95 2.55-.71.03c-.6.02-1.02.12-1.25.29s-.35.41-.35.71c0 .27.08.47.25.59s.38.19.63.19c.4 0 .74-.11 1.01-.34.27-.22.41-.57.41-1.04v-.43zM185.12 238.94c.58 0 1.01.14 1.31.42s.44.73.44 1.35v3.14h-.78v-3.09c0-.77-.36-1.16-1.08-1.16q-.795 0-1.11.45c-.2.3-.31.73-.31 1.3v2.5h-.79v-4.82h.64l.12.66h.04c.16-.25.37-.44.65-.56q.42-.18.87-.18zM190.07 243.94c-.6 0-1.08-.21-1.44-.62-.36-.42-.54-1.04-.54-1.87s.18-1.45.54-1.88q.54-.63 1.44-.63c.37 0 .68.07.91.21.24.14.43.31.58.5h.05c-.01-.08-.02-.19-.04-.35-.01-.15-.02-.27-.02-.36v-1.93h.79v6.84h-.64l-.12-.65h-.04c-.14.2-.34.38-.58.52s-.55.22-.93.22zm.13-.66q.765 0 1.08-.42c.21-.28.31-.7.31-1.26v-.14q0-.9-.3-1.38c-.2-.32-.56-.48-1.1-.48q-.645 0-.96.51c-.21.34-.32.79-.32 1.36s.11 1.02.32 1.34.54.48.97.48z"/><path stroke="#231815" stroke-linecap="round" stroke-miterlimit="10" stroke-width="1.7" d="M104.1 267.91h140.62"/><path fill="#898989" d="M168.9 259.92c0 .67-.11 1.25-.34 1.74s-.56.88-1 1.16-.98.41-1.62.41-1.22-.14-1.66-.41c-.44-.28-.77-.66-.99-1.16s-.32-1.08-.32-1.75.11-1.23.32-1.72c.22-.5.54-.88.99-1.16.44-.28 1-.41 1.67-.41s1.18.14 1.62.41.77.66.99 1.15.34 1.08.34 1.74m-5.08 0c0 .81.17 1.45.51 1.91s.88.7 1.6.7 1.26-.23 1.6-.7c.34-.46.51-1.1.51-1.91s-.17-1.44-.5-1.9q-.51-.69-1.59-.69c-.72 0-1.27.23-1.61.69s-.51 1.09-.51 1.9zM173.97 261.42c0 .57-.21 1.01-.62 1.33s-.97.48-1.67.48c-.36 0-.69-.03-1-.08s-.56-.13-.77-.22v-.77c.22.1.48.18.81.26q.48.12.99.12c.47 0 .83-.09 1.08-.28s.37-.44.37-.76c0-.21-.04-.39-.13-.53s-.25-.28-.47-.4-.52-.25-.91-.4c-.55-.2-.97-.44-1.24-.73-.28-.29-.41-.68-.41-1.18 0-.34.09-.63.26-.87.17-.25.41-.43.72-.57.31-.13.66-.2 1.07-.2.35 0 .67.03.96.1s.56.15.81.26l-.25.69c-.22-.1-.46-.18-.73-.24a3 3 0 0 0-.81-.1c-.4 0-.71.08-.91.26s-.31.4-.31.68c0 .22.04.4.14.54.09.14.24.27.44.39s.48.24.83.36q.57.21.96.45c.26.16.46.35.59.57.14.22.2.5.2.84M180.41 259.86c0 1.09-.3 1.9-.89 2.45s-1.41.82-2.47.82h-1.79v-6.43h1.98q.96 0 1.68.36c.48.24.84.59 1.1 1.06s.39 1.04.39 1.73zm-.86.03q0-1.29-.63-1.89t-1.8-.6h-1.05v5.04h.87c1.74 0 2.61-.85 2.61-2.56zM183.53 256.71c.84 0 1.45.17 1.84.5.38.33.58.79.58 1.39 0 .35-.08.69-.24 1s-.43.56-.8.75-.88.29-1.53.29h-.74v2.5h-.81v-6.43zm-.07.7h-.82v2.54h.65c.61 0 1.07-.1 1.37-.3s.45-.53.45-1.01c0-.41-.13-.72-.4-.93s-.68-.31-1.25-.31z"/><path stroke="#231815" stroke-linecap="round" stroke-miterlimit="10" stroke-width="1.7" d="M104.1 40.58h134.62"/><path fill="#898989" d="M163.58 33h-.81v-3h-3.29v3h-.81v-6.43h.81v2.72h3.29v-2.72h.81zM167.37 33h-.81v-5.71h-2.01v-.71h4.81v.71h-2V33zM172.55 33h-.81v-5.71h-2.01v-.71h4.81v.71h-2V33zM177.22 26.57c.84 0 1.45.17 1.84.5.38.33.58.79.58 1.39 0 .35-.08.69-.24 1s-.43.56-.8.75-.88.29-1.53.29h-.74V33h-.81v-6.43zm-.07.7h-.82v2.54h.65c.61 0 1.07-.1 1.37-.3s.45-.53.45-1.01c0-.41-.13-.72-.4-.93s-.68-.31-1.25-.31zM184.61 31.28c0 .57-.21 1.01-.62 1.33s-.97.48-1.67.48c-.36 0-.69-.03-1-.08s-.56-.13-.77-.22v-.77c.22.1.48.18.81.26q.48.12.99.12c.47 0 .83-.09 1.08-.28s.37-.44.37-.76c0-.21-.04-.39-.13-.53s-.25-.28-.47-.4-.52-.25-.91-.4c-.55-.2-.97-.44-1.24-.73-.28-.29-.41-.68-.41-1.18 0-.34.09-.63.26-.87.17-.25.41-.43.72-.57.31-.13.66-.2 1.07-.2.35 0 .67.03.96.1s.56.15.81.26l-.25.69c-.22-.1-.46-.18-.73-.24a3 3 0 0 0-.81-.1c-.4 0-.71.08-.91.26s-.31.4-.31.68c0 .22.04.4.14.54.09.14.24.27.44.39s.48.24.83.36q.57.21.96.45c.26.16.46.35.59.57.14.22.2.5.2.84M280.73 202h-.81v-5.71h-2.01v-.71h4.81v.71h-2V202zM286.27 196.2c-.69 0-1.23.23-1.63.69s-.59 1.1-.59 1.9.18 1.43.55 1.89.92.7 1.66.7c.28 0 .54-.02.79-.07q.375-.075.75-.18v.7c-.24.09-.49.16-.74.2-.26.04-.56.06-.91.06-.65 0-1.2-.13-1.64-.41-.44-.27-.77-.65-.99-1.15s-.33-1.08-.33-1.75.12-1.22.36-1.71c.24-.5.59-.88 1.05-1.16q.69-.42 1.68-.42c.66 0 1.27.13 1.77.38l-.32.68q-.3-.135-.66-.24c-.24-.07-.51-.11-.8-.11M290.91 195.57c.84 0 1.45.17 1.84.5.38.33.58.79.58 1.39 0 .35-.08.69-.24 1s-.43.56-.8.75-.88.29-1.53.29h-.74v2.5h-.81v-6.43zm-.08.7h-.82v2.54h.65c.61 0 1.07-.1 1.37-.3s.45-.53.45-1.01c0-.41-.13-.72-.4-.93s-.68-.31-1.25-.31zM297.03 195.57l-2.39 6.43h-.77l2.39-6.43zM299.81 202h-2.32v-.47l.76-.17v-5.14l-.76-.18v-.47h2.32v.47l-.76.18v5.14l.76.17zM302.75 195.57c.84 0 1.45.17 1.84.5.38.33.58.79.58 1.39 0 .35-.08.69-.24 1s-.43.56-.8.75-.88.29-1.53.29h-.74v2.5h-.81v-6.43zm-.07.7h-.82v2.54h.65c.61 0 1.07-.1 1.37-.3s.45-.53.45-1.01c0-.41-.13-.72-.4-.93s-.68-.31-1.25-.31zM37.65 201.53h-.81v-5.71h-2.01v-.71h4.81v.71h-2v5.71zM43.19 195.73c-.69 0-1.23.23-1.63.69s-.59 1.1-.59 1.9.18 1.43.55 1.89.92.7 1.66.7c.28 0 .54-.02.79-.07q.375-.075.75-.18v.7c-.24.09-.49.16-.74.2s-.56.06-.91.06c-.65 0-1.2-.13-1.64-.41-.44-.27-.77-.65-.99-1.15s-.33-1.08-.33-1.75.12-1.22.36-1.71.59-.88 1.05-1.16q.69-.42 1.68-.42c.66 0 1.27.13 1.77.38l-.32.68q-.3-.135-.66-.24c-.24-.07-.51-.11-.8-.11M47.83 195.11c.84 0 1.45.17 1.84.5s.58.79.58 1.39c0 .35-.08.69-.24 1s-.43.56-.8.75-.88.29-1.53.29h-.74v2.5h-.81v-6.43zm-.08.69h-.82v2.54h.65c.61 0 1.07-.1 1.37-.3s.45-.53.45-1.01c0-.41-.13-.72-.4-.93-.27-.2-.68-.31-1.25-.31zM53.96 195.11l-2.39 6.43h-.77l2.39-6.43zM56.73 201.53h-2.32v-.47l.76-.17v-5.14l-.76-.18v-.47h2.32v.47l-.76.18v5.14l.76.17zM59.67 195.11c.84 0 1.45.17 1.84.5s.58.79.58 1.39c0 .35-.08.69-.24 1s-.43.56-.8.75-.88.29-1.53.29h-.74v2.5h-.81v-6.43zm-.07.69h-.82v2.54h.65c.61 0 1.07-.1 1.37-.3s.45-.53.45-1.01c0-.41-.13-.72-.4-.93-.27-.2-.68-.31-1.25-.31z"/><path fill="#040000" d="M63.18 33H52.8a2 2 0 0 0-2 2v10.38a2 2 0 0 0 2 2h10.38a2 2 0 0 0 2-2V35a2 2 0 0 0-2-2M87.43 22H77.05a2 2 0 0 0-2 2v8a2 2 0 0 0 2 2h10.38a2 2 0 0 0 2-2v-8a2 2 0 0 0-2-2M87.43 46.38H77.05a2 2 0 0 0-2 2v8a2 2 0 0 0 2 2h10.38a2 2 0 0 0 2-2v-8a2 2 0 0 0-2-2"/><path stroke="#040000" stroke-miterlimit="10" d="M64.47 41.06 76.02 26.8M65.18 40.19l10.73 13.25"/><path fill="#231815" d="M44.87 66.95q1.2 0 1.77.45c.38.3.57.76.57 1.37 0 .34-.06.63-.19.85s-.29.41-.48.55c-.2.14-.4.24-.62.31l1.76 2.88h-.95l-1.56-2.65h-1.28v2.65h-.81v-6.43h1.77zm-.04.7h-.92v2.39h.96c.52 0 .9-.1 1.14-.31s.36-.51.36-.91-.13-.72-.38-.9q-.375-.27-1.17-.27zM50.45 68.46c.41 0 .76.09 1.06.27s.53.43.69.76.24.71.24 1.15v.48h-3.3c.01.55.15.96.42 1.25s.64.43 1.12.43q.465 0 .81-.09c.24-.06.48-.14.73-.25v.69c-.25.11-.49.19-.73.24s-.52.08-.85.08c-.46 0-.87-.09-1.21-.28-.35-.19-.62-.46-.81-.83-.2-.37-.29-.82-.29-1.36s.09-.98.27-1.36q.27-.57.75-.87c.32-.2.69-.31 1.12-.31zm0 .65q-.57 0-.9.36c-.22.24-.35.58-.39 1.01h2.46c0-.41-.1-.74-.29-.99-.19-.26-.48-.38-.88-.38M56.81 72.04c0 .47-.17.82-.52 1.06s-.82.36-1.4.36c-.34 0-.62-.03-.87-.08-.24-.05-.46-.13-.64-.22v-.72c.19.1.42.18.7.27.27.08.55.12.83.12.4 0 .69-.06.87-.19s.27-.3.27-.52c0-.12-.03-.23-.1-.32-.07-.1-.18-.19-.36-.29-.17-.1-.42-.2-.73-.32s-.58-.24-.8-.36a1.46 1.46 0 0 1-.51-.43c-.12-.17-.18-.38-.18-.65 0-.41.17-.72.5-.94s.77-.33 1.31-.33c.29 0 .57.03.82.09.26.06.49.14.72.23l-.27.63c-.2-.08-.42-.16-.64-.22s-.45-.09-.68-.09c-.32 0-.57.05-.74.16-.17.1-.26.25-.26.43 0 .14.04.25.12.34q.12.135.39.27c.18.09.43.19.73.31.31.11.57.23.78.35.22.12.38.27.49.44s.17.39.17.64zM59.59 72.82c.12 0 .24 0 .37-.03s.23-.04.31-.07v.6c-.08.04-.2.08-.36.1-.16.03-.31.04-.45.04-.25 0-.48-.04-.7-.13s-.39-.24-.52-.45c-.13-.22-.2-.52-.2-.91v-2.81h-.68v-.38l.69-.31.32-1.03h.47v1.11h1.4v.61h-1.4v2.79c0 .29.07.51.21.65q.21.21.54.21zM63.45 69.16h-1.21v4.21h-.79v-4.21h-.85v-.37l.85-.27v-.28c0-.62.14-1.07.41-1.35s.66-.41 1.16-.41a2.8 2.8 0 0 1 .93.16l-.21.62q-.15-.045-.33-.09c-.13-.03-.25-.04-.39-.04-.26 0-.46.09-.59.27s-.19.45-.19.83v.31h1.21v.62M68.35 68.55v4.82h-.65l-.12-.64h-.04c-.16.25-.37.44-.65.55a2.2 2.2 0 0 1-.88.18c-.58 0-1.02-.14-1.31-.42s-.44-.72-.44-1.34v-3.16h.8v3.1c0 .77.36 1.15 1.07 1.15q.795 0 1.11-.45c.21-.3.31-.73.31-1.3v-2.51h.79zM70.68 73.38h-.79v-6.84h.79zM77.41 67.57c-.69 0-1.23.23-1.63.69s-.59 1.09-.59 1.9.18 1.43.55 1.89.92.7 1.66.7c.28 0 .54-.02.79-.07q.375-.075.75-.18v.7c-.24.09-.49.16-.74.2s-.56.06-.91.06c-.65 0-1.2-.13-1.64-.4s-.77-.65-.99-1.15-.33-1.08-.33-1.76.12-1.22.36-1.71.59-.88 1.05-1.16q.69-.42 1.68-.42c.66 0 1.27.13 1.77.38l-.32.68q-.3-.135-.66-.24c-.24-.07-.51-.11-.8-.11M81.03 73.38h-.79v-6.84h.79zM82.96 66.74c.12 0 .23.04.32.12s.14.21.14.38-.05.3-.14.38-.2.12-.32.12q-.195 0-.33-.12c-.09-.08-.13-.21-.13-.38s.04-.3.13-.38q.135-.12.33-.12m.39 1.81v4.82h-.79v-4.82zM86.74 68.46c.41 0 .76.09 1.06.27s.53.43.69.76.24.71.24 1.15v.48h-3.3c.01.55.15.96.42 1.25s.64.43 1.12.43c.31 0 .58-.03.82-.09s.48-.14.73-.25v.69c-.25.11-.49.19-.73.24s-.53.08-.85.08c-.46 0-.87-.09-1.22-.28s-.62-.46-.81-.83-.29-.82-.29-1.36.09-.98.27-1.36q.27-.57.75-.87c.32-.2.69-.31 1.12-.31zm-.01.65q-.57 0-.9.36c-.22.24-.35.58-.39 1.01h2.46c0-.41-.1-.74-.29-.99-.19-.26-.48-.38-.88-.38M92.28 68.46c.58 0 1.01.14 1.3.42s.44.73.44 1.35v3.14h-.78v-3.09c0-.77-.36-1.16-1.08-1.16q-.795 0-1.11.45c-.2.3-.31.73-.31 1.3v2.5h-.79v-4.82h.64l.12.66h.04c.16-.25.37-.44.65-.56q.42-.18.87-.18zM97.13 72.82c.12 0 .24 0 .37-.03s.23-.04.31-.07v.6c-.08.04-.2.08-.36.1-.16.03-.31.04-.45.04-.25 0-.48-.04-.7-.13-.21-.09-.39-.24-.52-.45-.13-.22-.2-.52-.2-.91v-2.81h-.68v-.38l.69-.31.32-1.03h.47v1.11h1.39v.61h-1.39v2.79c0 .29.07.51.21.65q.21.21.54.21z"/><path fill="#040000" d="M263.54 33h-10.38a2 2 0 0 0-2 2v10.38a2 2 0 0 0 2 2h10.38a2 2 0 0 0 2-2V35a2 2 0 0 0-2-2M287.79 22h-10.38a2 2 0 0 0-2 2v8a2 2 0 0 0 2 2h10.38a2 2 0 0 0 2-2v-8a2 2 0 0 0-2-2M287.79 46.38h-10.38a2 2 0 0 0-2 2v8a2 2 0 0 0 2 2h10.38a2 2 0 0 0 2-2v-8a2 2 0 0 0-2-2"/><path stroke="#040000" stroke-miterlimit="10" d="m264.83 41.06 11.55-14.26M265.54 40.19l10.73 13.25"/><path fill="#231815" d="M243.79 66.95q1.2 0 1.77.45c.38.3.57.76.57 1.37 0 .34-.06.63-.19.85s-.29.41-.48.55-.4.24-.62.31l1.76 2.88h-.94l-1.56-2.65h-1.28v2.65h-.81v-6.43h1.77zm-.04.7h-.92v2.39h.96c.52 0 .9-.1 1.14-.31s.36-.51.36-.91-.13-.72-.38-.9q-.375-.27-1.17-.27zM249.37 68.46c.41 0 .76.09 1.06.27s.53.43.69.76.24.71.24 1.15v.48h-3.3c.01.55.15.96.42 1.25s.64.43 1.12.43q.465 0 .81-.09c.24-.06.48-.14.73-.25v.69c-.25.11-.49.19-.73.24s-.52.08-.85.08c-.46 0-.87-.09-1.21-.28-.35-.19-.62-.46-.81-.83-.2-.37-.29-.82-.29-1.36s.09-.98.27-1.36q.27-.57.75-.87c.32-.2.69-.31 1.12-.31zm-.01.65q-.57 0-.9.36c-.22.24-.35.58-.39 1.01h2.46c0-.41-.1-.74-.29-.99-.19-.26-.48-.38-.88-.38M255.73 72.04c0 .47-.17.82-.52 1.06s-.82.36-1.4.36c-.34 0-.63-.03-.87-.08s-.46-.13-.64-.22v-.72c.19.1.42.18.7.27s.55.12.83.12c.4 0 .69-.06.87-.19s.27-.3.27-.52c0-.12-.03-.23-.1-.32-.07-.1-.18-.19-.36-.29-.17-.1-.42-.2-.73-.32s-.58-.24-.8-.36a1.46 1.46 0 0 1-.51-.43c-.12-.17-.18-.38-.18-.65 0-.41.17-.72.5-.94s.77-.33 1.31-.33c.29 0 .57.03.82.09.26.06.49.14.72.23l-.27.63c-.2-.08-.42-.16-.64-.22s-.45-.09-.68-.09c-.32 0-.57.05-.74.16-.17.1-.26.25-.26.43 0 .14.04.25.12.34q.12.135.39.27c.18.09.43.19.73.31.31.11.57.23.78.35.22.12.38.27.49.44s.17.39.17.64zM258.51 72.82c.12 0 .24 0 .37-.03s.23-.04.31-.07v.6c-.08.04-.2.08-.36.1-.16.03-.31.04-.45.04-.25 0-.48-.04-.7-.13s-.39-.24-.52-.45c-.13-.22-.2-.52-.2-.91v-2.81h-.68v-.38l.69-.31.31-1.03h.47v1.11h1.4v.61h-1.4v2.79c0 .29.07.51.21.65q.21.21.54.21zM262.37 69.16h-1.21v4.21h-.79v-4.21h-.85v-.37l.85-.27v-.28c0-.62.14-1.07.41-1.35.27-.27.66-.41 1.16-.41a2.8 2.8 0 0 1 .93.16l-.21.62q-.15-.045-.33-.09c-.13-.03-.25-.04-.39-.04-.26 0-.46.09-.59.27s-.19.45-.19.83v.31h1.21v.62M267.27 68.55v4.82h-.65l-.12-.64h-.04c-.16.25-.37.44-.65.55a2.2 2.2 0 0 1-.88.18c-.58 0-1.02-.14-1.31-.42s-.44-.72-.44-1.34v-3.16h.8v3.1c0 .77.36 1.15 1.07 1.15q.795 0 1.11-.45c.21-.3.31-.73.31-1.3v-2.51h.79zM269.6 73.38h-.79v-6.84h.79zM277.22 71.66c0 .57-.21 1.01-.62 1.33s-.97.48-1.67.48c-.36 0-.69-.03-1-.08s-.56-.13-.77-.22v-.77c.22.1.48.18.81.26q.48.12.99.12c.47 0 .83-.09 1.08-.28s.37-.44.37-.76c0-.21-.04-.39-.13-.53s-.25-.28-.47-.4-.52-.25-.91-.4c-.55-.2-.97-.44-1.24-.73-.28-.29-.41-.68-.41-1.18 0-.34.09-.63.26-.87q.255-.375.72-.57c.31-.13.66-.2 1.07-.2.35 0 .67.03.96.1s.56.15.81.26l-.25.69c-.22-.1-.46-.18-.73-.24a3 3 0 0 0-.81-.1c-.4 0-.71.09-.91.26s-.31.4-.31.68c0 .22.04.4.14.54.09.14.24.27.44.39s.48.24.83.36q.57.21.96.45c.26.16.46.35.59.57.14.22.2.5.2.84M280.27 68.46c.41 0 .76.09 1.06.27s.53.43.69.76.24.71.24 1.15v.48h-3.3c.01.55.15.96.42 1.25s.64.43 1.12.43q.465 0 .81-.09c.23-.06.48-.14.73-.25v.69c-.25.11-.49.19-.73.24s-.53.08-.85.08c-.46 0-.87-.09-1.21-.28-.35-.19-.62-.46-.81-.83-.2-.37-.29-.82-.29-1.36s.09-.98.27-1.36q.27-.57.75-.87c.32-.2.69-.31 1.12-.31zm-.01.65q-.57 0-.9.36c-.22.24-.35.58-.39 1.01h2.46c0-.41-.1-.74-.29-.99-.19-.26-.48-.38-.88-.38M285.73 68.46c.09 0 .19 0 .29.01.1 0 .2.02.28.04l-.1.73c-.08-.02-.17-.03-.26-.04-.1-.01-.18-.02-.26-.02-.25 0-.48.07-.69.2-.22.14-.39.32-.52.57-.13.24-.19.53-.19.85v2.57h-.79v-4.82h.65l.09.88h.04c.15-.26.35-.49.6-.68s.54-.29.88-.29zM288.26 73.38l-1.83-4.82h.85l1.03 2.84a11.91 11.91 0 0 1 .29.91c.04.15.07.27.09.37h.04c.02-.1.05-.22.1-.37s.1-.31.15-.47.11-.3.15-.44l1.03-2.84h.85l-1.84 4.82zM293.63 68.46c.41 0 .76.09 1.06.27s.53.43.69.76.24.71.24 1.15v.48h-3.3c.01.55.15.96.42 1.25s.64.43 1.12.43c.31 0 .58-.03.82-.09s.48-.14.73-.25v.69c-.25.11-.49.19-.73.24s-.53.08-.85.08c-.46 0-.87-.09-1.22-.28s-.62-.46-.81-.83-.29-.82-.29-1.36.09-.98.27-1.36q.27-.57.75-.87c.32-.2.69-.31 1.12-.31zm0 .65q-.57 0-.9.36c-.22.24-.35.58-.39 1.01h2.46c0-.41-.1-.74-.29-.99-.19-.26-.48-.38-.88-.38M299.1 68.46c.09 0 .19 0 .29.01.1 0 .2.02.28.04l-.1.73c-.08-.02-.17-.03-.26-.04-.1-.01-.18-.02-.26-.02-.25 0-.48.07-.69.2-.22.14-.39.32-.52.57-.13.24-.19.53-.19.85v2.57h-.79v-4.82h.65l.09.88h.04c.15-.26.35-.49.6-.68s.54-.29.88-.29z"/><path stroke="#231815" stroke-linecap="round" stroke-miterlimit="10" stroke-width="1.7" d="M70.11 97.97V80.64M270.47 97.97V80.64"/><path fill="#231815" d="M193.53 159.91h2.04c.89 0 1.56.13 2.02.4s.69.72.69 1.37c0 .42-.12.77-.35 1.04-.23.28-.57.46-1.01.54v.05q.45.075.81.27c.24.13.44.31.58.54q.21.345.21.9c0 .65-.22 1.15-.67 1.5-.44.35-1.05.53-1.81.53h-2.51zm.9 3.04h1.32c.61 0 1.02-.1 1.25-.29s.35-.49.35-.88-.14-.67-.42-.85c-.28-.17-.72-.25-1.33-.25h-1.18v2.27zm0 .75v2.59h1.44c.63 0 1.07-.12 1.32-.37s.37-.57.37-.97c0-.37-.13-.67-.38-.9-.26-.23-.72-.35-1.38-.35zM200.36 159.68c.13 0 .25.04.35.14.1.09.16.23.16.42s-.05.33-.16.43c-.1.09-.22.13-.35.13-.15 0-.27-.04-.37-.13s-.15-.23-.15-.43.05-.33.15-.42.22-.14.37-.14m.43 2.01v5.36h-.88v-5.36zM207.15 164.36c0 .89-.22 1.57-.67 2.06s-1.06.73-1.83.73q-.705 0-1.26-.33c-.37-.22-.66-.53-.88-.95-.21-.42-.32-.92-.32-1.52 0-.89.22-1.57.67-2.05q.66-.72 1.83-.72c.48 0 .91.11 1.28.33s.67.53.88.94.31.91.31 1.5zm-4.05 0c0 .63.12 1.13.38 1.5s.65.56 1.19.56.94-.19 1.19-.56.38-.87.38-1.5-.13-1.13-.38-1.49q-.375-.54-1.2-.54c-.55 0-.94.18-1.19.54s-.37.86-.37 1.49M212.71 165.14c0 .63-.23 1.13-.69 1.48s-1.08.53-1.86.53q-.6 0-1.11-.09c-.34-.06-.62-.14-.85-.25v-.86c.24.11.54.2.9.29s.73.13 1.1.13c.53 0 .93-.1 1.2-.31s.41-.49.41-.84c0-.23-.05-.43-.15-.59s-.27-.31-.52-.44a9 9 0 0 0-1.01-.44q-.915-.33-1.38-.81c-.31-.32-.46-.76-.46-1.31 0-.37.1-.7.29-.97s.46-.48.8-.63.74-.22 1.19-.22c.39 0 .74.04 1.07.11s.63.17.9.29l-.28.77q-.375-.165-.81-.27c-.29-.07-.59-.11-.9-.11-.45 0-.78.1-1.01.29s-.34.44-.34.75q0 .36.15.6c.1.16.26.31.49.44s.53.27.92.4c.42.15.78.32 1.06.5.29.18.51.39.66.64s.23.56.23.93zM215.82 166.43c.13 0 .27 0 .41-.03.14-.02.25-.05.34-.08v.67c-.09.05-.23.08-.4.12-.17.03-.34.04-.5.04q-.42 0-.78-.15c-.24-.1-.43-.27-.57-.5-.15-.24-.22-.58-.22-1.01v-3.12h-.76v-.42l.77-.35.35-1.14h.52v1.23h1.55v.68h-1.55v3.1c0 .33.08.57.24.73s.36.23.6.23M219.67 161.6c.65 0 1.14.14 1.45.43s.47.74.47 1.37v3.65h-.64l-.17-.76h-.04c-.23.29-.48.51-.74.65s-.61.21-1.06.21c-.49 0-.89-.13-1.21-.39s-.48-.66-.48-1.21.21-.94.63-1.23 1.07-.45 1.94-.48l.91-.03v-.32c0-.45-.1-.76-.29-.93s-.47-.26-.82-.26c-.28 0-.55.04-.8.12s-.49.18-.71.29l-.27-.66c.23-.13.51-.23.83-.32s.65-.14 1-.14zm1.05 2.83-.79.03c-.67.03-1.13.13-1.39.32s-.38.45-.38.79q0 .45.27.66c.18.14.42.21.71.21.45 0 .82-.12 1.12-.38.3-.25.46-.64.46-1.16v-.48zM225.75 161.59c.1 0 .21 0 .32.02.11 0 .22.02.31.04l-.11.81c-.09-.02-.18-.04-.29-.05s-.2-.02-.29-.02c-.27 0-.53.08-.77.23s-.43.36-.58.63c-.14.27-.21.58-.21.95v2.86h-.88v-5.36h.72l.1.98h.04c.17-.29.39-.55.67-.76s.6-.32.98-.32zM232.11 167.05h-2.58v-.52l.84-.19v-5.71l-.84-.2v-.52h2.58v.52l-.84.2v5.71l.84.19zM235.95 161.59c.64 0 1.12.16 1.45.47s.49.81.49 1.5v3.49h-.87v-3.43q0-1.29-1.2-1.29c-.59 0-1 .17-1.23.5s-.34.81-.34 1.44v2.78h-.88v-5.36h.71l.13.73h.05c.17-.28.41-.49.72-.62s.63-.21.97-.21M241.34 166.43c.13 0 .27 0 .41-.03.14-.02.25-.05.34-.08v.67c-.09.05-.23.08-.4.12-.17.03-.34.04-.5.04q-.42 0-.78-.15c-.24-.1-.43-.27-.58-.5-.15-.24-.22-.58-.22-1.01v-3.12h-.76v-.42l.77-.35.35-1.14h.52v1.23h1.55v.68h-1.55v3.1c0 .33.08.57.24.73s.36.23.6.23zM245.23 161.59c.45 0 .85.1 1.18.3s.59.48.77.85.26.79.26 1.27v.53h-3.67c.01.61.17 1.07.46 1.38.3.32.71.48 1.25.48.34 0 .64-.03.91-.1.26-.06.54-.15.81-.27v.77q-.405.18-.81.27c-.27.06-.58.08-.95.08-.51 0-.96-.1-1.35-.31s-.69-.51-.91-.92-.33-.91-.33-1.51.1-1.09.29-1.51c.2-.42.47-.74.83-.97s.77-.34 1.25-.34zm-.01.72c-.42 0-.75.14-1 .41s-.39.65-.43 1.12h2.73c0-.45-.11-.82-.32-1.1s-.53-.43-.98-.43M250.7 161.59c.35 0 .67.07.96.2s.53.34.72.61h.05l.12-.71h.7v5.45c0 .77-.19 1.34-.58 1.73s-1 .58-1.81.58-1.43-.11-1.93-.34v-.81q.795.42 1.98.42c.46 0 .82-.13 1.08-.4s.39-.64.39-1.1v-.21c0-.08 0-.2.01-.35 0-.15.01-.25.02-.31h-.04c-.36.54-.91.81-1.66.81-.69 0-1.23-.24-1.62-.73s-.58-1.17-.58-2.04.2-1.53.58-2.04q.585-.75 1.62-.75zm.12.74c-.45 0-.79.18-1.04.54s-.37.87-.37 1.52.12 1.17.36 1.52.6.52 1.07.52c.54 0 .93-.15 1.18-.44s.37-.76.37-1.4v-.21c0-.73-.13-1.25-.38-1.57s-.65-.48-1.19-.48M257.45 161.59c.1 0 .21 0 .32.02.11 0 .22.02.31.04l-.11.81c-.09-.02-.18-.04-.29-.05s-.2-.02-.29-.02c-.27 0-.53.08-.77.23q-.36.225-.57.63c-.14.27-.21.58-.21.95v2.86h-.88v-5.36h.72l.1.98h.04c.17-.29.39-.55.67-.76s.6-.32.97-.32zM260.91 161.6c.65 0 1.14.14 1.45.43s.47.74.47 1.37v3.65h-.64l-.17-.76h-.04c-.23.29-.48.51-.74.65s-.61.21-1.06.21c-.49 0-.89-.13-1.21-.39s-.48-.66-.48-1.21.21-.94.63-1.23 1.07-.45 1.94-.48l.91-.03v-.32c0-.45-.1-.76-.29-.93s-.47-.26-.82-.26c-.28 0-.55.04-.8.12s-.49.18-.71.29l-.27-.66c.23-.13.51-.23.83-.32s.65-.14 1-.14zm1.05 2.83-.79.03c-.67.03-1.13.13-1.38.32s-.38.45-.38.79q0 .45.27.66c.18.14.42.21.71.21.45 0 .82-.12 1.12-.38.3-.25.46-.64.46-1.16v-.48zM266.28 166.43c.13 0 .27 0 .41-.03.14-.02.25-.05.34-.08v.67c-.09.05-.23.08-.4.12-.17.03-.34.04-.5.04q-.42 0-.78-.15c-.24-.1-.43-.27-.58-.5-.15-.24-.22-.58-.22-1.01v-3.12h-.76v-.42l.77-.35.35-1.14h.52v1.23h1.55v.68h-1.55v3.1c0 .33.08.57.24.73s.36.23.6.23zM268.55 159.68c.13 0 .25.04.36.14q.15.135.15.42c0 .19-.05.33-.15.43-.1.09-.22.13-.36.13-.15 0-.27-.04-.37-.13s-.15-.23-.15-.43.05-.33.15-.42.22-.14.37-.14m.43 2.01v5.36h-.88v-5.36zM275.34 164.36c0 .89-.22 1.57-.67 2.06s-1.06.73-1.83.73q-.705 0-1.26-.33c-.37-.22-.66-.53-.88-.95-.21-.42-.32-.92-.32-1.52 0-.89.22-1.57.67-2.05q.66-.72 1.83-.72c.48 0 .91.11 1.28.33s.67.53.88.94.31.91.31 1.5zm-4.05 0c0 .63.12 1.13.38 1.5s.65.56 1.2.56.94-.19 1.19-.56.38-.87.38-1.5-.13-1.13-.38-1.49q-.375-.54-1.2-.54c-.55 0-.94.18-1.19.54s-.37.86-.37 1.49zM279.31 161.59c.64 0 1.12.16 1.45.47s.49.81.49 1.5v3.49h-.87v-3.43q0-1.29-1.2-1.29c-.59 0-1 .17-1.23.5s-.34.81-.34 1.44v2.78h-.88v-5.36h.71l.13.73h.05c.17-.28.41-.49.72-.62s.63-.21.97-.21M286.53 167.05h-.9v-7.14h3.99v.79h-3.09v2.53h2.9v.79h-2.9zM295.36 164.36c0 .89-.22 1.57-.67 2.06s-1.06.73-1.83.73q-.705 0-1.26-.33c-.37-.22-.66-.53-.88-.95-.21-.42-.32-.92-.32-1.52 0-.89.22-1.57.67-2.05q.66-.72 1.83-.72c.48 0 .91.11 1.28.33s.67.53.88.94.31.91.31 1.5zm-4.05 0c0 .63.12 1.13.38 1.5s.65.56 1.2.56.94-.19 1.19-.56.38-.87.38-1.5-.13-1.13-.38-1.49q-.375-.54-1.2-.54c-.55 0-.94.18-1.19.54s-.37.86-.37 1.49zM299.25 161.59c.1 0 .21 0 .32.02.11 0 .22.02.31.04l-.11.81c-.09-.02-.18-.04-.29-.05s-.2-.02-.29-.02c-.27 0-.53.08-.77.23q-.36.225-.57.63c-.14.27-.21.58-.21.95v2.86h-.88v-5.36h.72l.1.98h.04c.17-.29.39-.55.67-.76s.6-.32.97-.32zM306.7 163.28h2.47v3.5c-.39.13-.78.22-1.17.28s-.84.09-1.34.09c-.74 0-1.36-.15-1.87-.45s-.89-.72-1.16-1.27q-.39-.825-.39-1.95c0-.75.14-1.39.43-1.94s.71-.98 1.26-1.28 1.22-.46 2-.46c.4 0 .78.04 1.14.11s.69.18 1 .31l-.34.78c-.25-.11-.54-.2-.85-.29q-.48-.12-.99-.12c-.85 0-1.52.26-2 .78s-.71 1.22-.71 2.1c0 .57.09 1.07.28 1.5q.27.66.87 1.02c.39.24.91.36 1.55.36.31 0 .58-.02.8-.05q.33-.045.6-.12v-2.12h-1.57v-.8zM312.79 161.6c.65 0 1.14.14 1.45.43s.47.74.47 1.37v3.65h-.64l-.17-.76h-.04c-.23.29-.48.51-.74.65s-.61.21-1.06.21c-.49 0-.89-.13-1.21-.39s-.48-.66-.48-1.21.21-.94.63-1.23 1.07-.45 1.94-.48l.91-.03v-.32c0-.45-.1-.76-.29-.93s-.47-.26-.82-.26c-.28 0-.55.04-.8.12s-.49.18-.71.29l-.27-.66c.23-.13.51-.23.83-.32s.65-.14 1-.14zm1.05 2.83-.79.03c-.67.03-1.13.13-1.38.32s-.38.45-.38.79q0 .45.27.66c.18.14.42.21.71.21.45 0 .82-.12 1.12-.38.3-.25.46-.64.46-1.16v-.48zM317.25 167.05h-.88v-7.6h.88zM319.83 167.05h-.88v-7.6h.88zM323.56 161.6c.65 0 1.14.14 1.45.43s.47.74.47 1.37v3.65h-.64l-.17-.76h-.04c-.23.29-.48.51-.74.65s-.61.21-1.06.21c-.49 0-.89-.13-1.21-.39s-.48-.66-.48-1.21.21-.94.63-1.23 1.07-.45 1.94-.48l.91-.03v-.32c0-.45-.1-.76-.29-.93s-.47-.26-.82-.26c-.28 0-.55.04-.8.12s-.49.18-.71.29l-.27-.66c.23-.13.51-.23.83-.32s.65-.14 1-.14zm1.05 2.83-.79.03c-.67.03-1.13.13-1.38.32s-.38.45-.38.79q0 .45.27.66c.18.14.42.21.71.21.45 0 .82-.12 1.12-.38.3-.25.46-.64.46-1.16v-.48zM329.04 161.59c.35 0 .67.07.96.2s.53.34.72.61h.05l.12-.71h.7v5.45c0 .77-.19 1.34-.58 1.73s-1 .58-1.81.58-1.43-.11-1.93-.34v-.81q.795.42 1.98.42c.46 0 .82-.13 1.08-.4s.39-.64.39-1.1v-.21c0-.08 0-.2.01-.35 0-.15.01-.25.02-.31h-.04c-.36.54-.91.81-1.66.81-.69 0-1.23-.24-1.62-.73s-.58-1.17-.58-2.04.2-1.53.58-2.04q.585-.75 1.62-.75zm.12.74c-.45 0-.79.18-1.04.54s-.37.87-.37 1.52.12 1.17.36 1.52.6.52 1.07.52c.54 0 .93-.15 1.18-.44s.37-.76.37-1.4v-.21c0-.73-.13-1.25-.38-1.57s-.65-.48-1.19-.48M334.17 159.45v2.23c0 .27-.02.52-.05.75h.06c.17-.27.41-.48.71-.62q.45-.21.96-.21c.65 0 1.13.16 1.46.47s.5.81.5 1.49v3.49h-.87v-3.43q0-1.29-1.2-1.29-.9 0-1.23.51t-.33 1.44v2.77h-.88v-7.6h.88zM341.54 161.59c.45 0 .85.1 1.18.3s.59.48.77.85.26.79.26 1.27v.53h-3.67c.01.61.17 1.07.46 1.38.3.32.71.48 1.25.48.34 0 .64-.03.91-.1.26-.06.54-.15.81-.27v.77q-.405.18-.81.27c-.27.06-.58.08-.95.08-.51 0-.96-.1-1.35-.31s-.69-.51-.91-.92-.33-.91-.33-1.51.1-1.09.29-1.51c.2-.42.47-.74.83-.97s.77-.34 1.25-.34zm-.01.72c-.42 0-.75.14-1 .41s-.39.65-.43 1.12h2.73c0-.45-.11-.82-.32-1.1s-.53-.43-.98-.43M347.61 161.59c.1 0 .21 0 .32.02.11 0 .22.02.31.04l-.11.81c-.09-.02-.18-.04-.29-.05s-.2-.02-.29-.02c-.27 0-.53.08-.77.23q-.36.225-.57.63c-.14.27-.21.58-.21.95v2.86h-.88v-5.36h.72l.1.98h.04c.17-.29.39-.55.67-.76s.6-.32.97-.32z"/><path fill="#040000" d="M288.9 110.81c.51 0 .92-.41.92-.92s-.41-.92-.92-.92-.92.41-.92.92.41.92.92.92M283.37 110.81c.51 0 .92-.41.92-.92s-.41-.92-.92-.92-.92.41-.92.92.41.92.92.92M277.84 110.81c.51 0 .92-.41.92-.92s-.41-.92-.92-.92-.92.41-.92.92.41.92.92.92"/><path fill="#040000" d="M291.3 105h-41.65c-1.52 0-2.76 1.24-2.76 2.76v41.65c0 1.52 1.24 2.76 2.76 2.76h41.65c1.52 0 2.76-1.24 2.76-2.76v-41.65c0-1.52-1.24-2.76-2.76-2.76m-41.65 1.85h41.65c.51 0 .92.41.92.92v5.16h-43.49v-5.16c0-.51.41-.92.92-.92m41.65 43.48h-41.65c-.51 0-.92-.41-.92-.92v-34.64h43.49v34.64c0 .51-.41.92-.92.92"/><path fill="#040000" d="m282.85 139.69-1.9-.49c-.25.96-.54 1.92-.88 2.85l1.85.67c.36-.98.68-2.01.94-3.03zM281.9 131.64c0 1.92-.18 3.83-.54 5.71l1.93.37c.38-2 .57-4.04.57-6.08 0-4.11-1.99-7.97-5.32-10.37l-1.15 1.59c2.82 2.03 4.5 5.3 4.5 8.77zM262.09 125.68c2.94-4.43 8.67-6.07 13.51-3.86l.82-1.78a12.5 12.5 0 0 0-5.32-1.16c-4.28 0-8.28 2.14-10.64 5.71l1.64 1.09zM259.39 126.54c-.71 1.61-1.07 3.35-1.06 5.11 0 1.23-.33 2.44-.96 3.49l1.69 1.01a8.8 8.8 0 0 0 1.24-4.5c0-1.49.3-2.96.9-4.32l-1.8-.79zM275.41 143.01l1.77.85c1.38-2.88 2.25-5.98 2.59-9.16l-1.95-.21c-.32 2.96-1.13 5.84-2.41 8.52"/><path fill="#040000" d="M271.1 122.8c-1.14 0-2.26.22-3.32.65l.74 1.82c.82-.33 1.69-.5 2.58-.5 3.8 0 6.87 3.08 6.88 6.88 0 .32 0 .63-.02.95l1.96.07c.01-.34.02-.68.02-1.02 0-4.88-3.96-8.84-8.84-8.84zM264.22 131.64c0-1.97.85-3.85 2.33-5.16l-1.3-1.47a8.82 8.82 0 0 0-3 6.63c0 2.64-.96 5.19-2.73 7.16l1.46 1.31c2.08-2.33 3.23-5.35 3.23-8.47zM269.84 144.74l1.59 1.14c.91-1.26 1.69-2.6 2.34-4.01l-1.78-.82c-.6 1.3-1.32 2.53-2.15 3.69"/><path fill="#040000" d="M271.1 126.73c-2.71 0-4.91 2.2-4.91 4.91 0 .62-.04 1.23-.11 1.84l1.95.25c.09-.69.13-1.39.13-2.09a2.949 2.949 0 1 1 5.9 0c0 2.57-.43 5.11-1.29 7.53l1.85.66c.93-2.63 1.41-5.4 1.4-8.19 0-2.71-2.2-4.91-4.91-4.91zM265.72 135.33c-.61 2.34-1.79 4.5-3.43 6.29l1.45 1.33c1.86-2.02 3.19-4.46 3.88-7.12z"/><path fill="#040000" d="M270.11 131.64c0 4.39-1.56 8.65-4.39 12.01l1.5 1.27a20.68 20.68 0 0 0 4.85-13.28z"/><path fill="#231815" d="M26.47 294.9h2.47v3.5c-.39.13-.78.22-1.17.28s-.84.09-1.34.09c-.74 0-1.36-.15-1.87-.44-.51-.3-.89-.72-1.16-1.27s-.4-1.2-.4-1.96.15-1.38.44-1.93.71-.98 1.27-1.28c.55-.3 1.22-.46 2-.46.4 0 .78.04 1.13.11.36.07.69.18 1 .31l-.34.78c-.25-.11-.54-.2-.85-.29q-.48-.12-.99-.12c-.85 0-1.52.26-1.99.78q-.72.78-.72 2.1c0 .57.09 1.07.28 1.5.18.44.47.78.86 1.02s.91.37 1.55.37c.31 0 .58-.02.8-.05q.33-.045.6-.12v-2.12h-1.57zM32.56 293.22c.65 0 1.14.14 1.45.43s.47.74.47 1.37v3.65h-.64l-.17-.76h-.04c-.23.29-.48.51-.74.65s-.61.21-1.06.21c-.49 0-.89-.13-1.21-.38s-.48-.66-.48-1.21.21-.94.63-1.23 1.07-.45 1.94-.48l.91-.03v-.32c0-.45-.1-.76-.29-.93s-.47-.26-.82-.26c-.28 0-.55.04-.8.12s-.49.18-.71.29l-.27-.66c.23-.13.51-.23.83-.33.32-.09.65-.13 1-.13m1.05 2.83-.79.03c-.67.03-1.13.13-1.39.32s-.38.45-.38.79q0 .45.27.66c.18.14.42.21.71.21.45 0 .82-.12 1.12-.38.3-.25.46-.63.46-1.15zM37.02 298.67h-.88v-7.6h.88zM39.6 298.67h-.88v-7.6h.88zM43.33 293.22c.65 0 1.14.14 1.45.43s.47.74.47 1.37v3.65h-.64l-.17-.76h-.04c-.23.29-.48.51-.74.65s-.61.21-1.06.21c-.49 0-.89-.13-1.21-.38s-.48-.66-.48-1.21.21-.94.63-1.23 1.07-.45 1.94-.48l.91-.03v-.32c0-.45-.1-.76-.29-.93s-.47-.26-.82-.26c-.28 0-.55.04-.8.12s-.49.18-.71.29l-.27-.66c.23-.13.51-.23.83-.33.32-.09.65-.13 1-.13m1.05 2.83-.79.03c-.67.03-1.13.13-1.39.32s-.38.45-.38.79q0 .45.27.66c.18.14.42.21.71.21.45 0 .82-.12 1.12-.38.3-.25.46-.63.46-1.15zM48.81 293.21c.35 0 .67.07.96.2.28.13.52.34.73.61h.05l.12-.71h.7v5.45c0 .77-.19 1.34-.58 1.73s-.99.58-1.81.58-1.43-.11-1.93-.34v-.81q.795.42 1.98.42c.46 0 .82-.13 1.08-.41.26-.27.4-.64.4-1.1v-.55c0-.15.01-.26.02-.32h-.04c-.36.54-.91.81-1.66.81-.69 0-1.23-.24-1.62-.73s-.58-1.17-.58-2.04.2-1.53.58-2.04q.585-.75 1.62-.75zm.12.74c-.45 0-.79.18-1.04.54s-.37.86-.37 1.52.12 1.17.36 1.52.6.52 1.07.52c.54 0 .93-.14 1.18-.43s.37-.76.37-1.41V296c0-.73-.13-1.25-.38-1.57s-.65-.48-1.19-.48M53.94 291.07v2.23c0 .27-.02.52-.05.75h.06c.17-.27.41-.48.7-.62.3-.14.62-.21.97-.21.65 0 1.13.16 1.46.46.33.31.5.81.5 1.5v3.49h-.87v-3.43q0-1.29-1.2-1.29c-.6 0-1.01.17-1.23.5s-.33.82-.33 1.45v2.77h-.88v-7.6h.88zM61.31 293.21c.45 0 .85.1 1.18.3s.59.48.77.84.26.79.26 1.28v.53h-3.67c.01.61.17 1.07.46 1.38.3.32.71.47 1.25.47.34 0 .64-.03.91-.09.26-.06.53-.16.81-.27v.77c-.27.12-.54.21-.81.26s-.58.08-.95.08c-.51 0-.96-.1-1.35-.31s-.69-.51-.9-.92-.33-.91-.33-1.51.1-1.09.3-1.51.47-.74.83-.97.77-.34 1.25-.34zm-.01.72c-.42 0-.75.13-1 .41-.24.27-.39.64-.44 1.12h2.73c0-.45-.11-.82-.32-1.11-.21-.28-.53-.42-.98-.42zM67.38 293.21c.1 0 .21 0 .32.01s.22.03.31.04l-.11.81c-.09-.02-.18-.04-.29-.05s-.2-.02-.29-.02c-.27 0-.53.08-.77.23s-.43.36-.58.63c-.14.27-.21.58-.21.94v2.86h-.88v-5.36h.72l.1.98h.04c.17-.29.39-.55.67-.76s.6-.32.98-.32zM74.79 292.22c-.77 0-1.37.26-1.81.77s-.66 1.22-.66 2.11.21 1.59.61 2.11c.41.52 1.03.77 1.85.77.31 0 .6-.03.88-.08s.56-.12.83-.2v.78c-.27.1-.54.17-.83.22-.28.05-.62.07-1.01.07-.73 0-1.33-.15-1.82-.45s-.85-.73-1.09-1.28-.37-1.2-.37-1.95.13-1.35.4-1.91q.39-.825 1.17-1.29c.51-.31 1.14-.46 1.87-.46s1.41.14 1.97.42l-.36.76c-.22-.1-.46-.19-.73-.27a3 3 0 0 0-.89-.12zM82.59 295.98c0 .89-.22 1.57-.67 2.06s-1.06.73-1.83.73c-.47 0-.89-.11-1.26-.32s-.66-.53-.88-.95-.32-.92-.32-1.52c0-.89.22-1.57.67-2.05q.66-.72 1.83-.72c.48 0 .91.11 1.28.33s.67.53.88.94.31.91.31 1.5zm-4.05 0c0 .63.12 1.14.38 1.51.25.37.65.55 1.19.55s.94-.19 1.19-.55c.25-.37.38-.87.38-1.51s-.13-1.13-.38-1.49q-.375-.54-1.2-.54c-.55 0-.94.18-1.19.54s-.37.86-.37 1.49M86.56 293.21c.64 0 1.12.16 1.45.47s.49.81.49 1.5v3.49h-.87v-3.43q0-1.29-1.2-1.29c-.59 0-1 .17-1.23.5s-.34.81-.34 1.44v2.78h-.88v-5.36h.71l.13.73h.05c.17-.28.41-.49.72-.62s.63-.21.97-.21M91.95 298.05c.13 0 .27 0 .41-.03.14-.02.25-.05.34-.08v.67c-.09.05-.23.08-.4.11s-.34.04-.5.04c-.28 0-.54-.05-.78-.14-.24-.1-.43-.26-.57-.5-.15-.24-.22-.58-.22-1.01v-3.12h-.76v-.42l.77-.35.35-1.14h.52v1.23h1.55v.68h-1.55v3.1q0 .495.24.72.24.24.6.24M96.27 293.21c.1 0 .21 0 .32.01s.22.03.31.04l-.11.81c-.09-.02-.18-.04-.29-.05s-.2-.02-.29-.02c-.27 0-.53.08-.77.23s-.43.36-.58.63c-.14.27-.21.58-.21.94v2.86h-.88v-5.36h.72l.1.98h.04c.17-.29.39-.55.67-.76s.6-.32.98-.32zM102.36 295.98c0 .89-.22 1.57-.67 2.06s-1.06.73-1.83.73c-.47 0-.89-.11-1.26-.32s-.66-.53-.88-.95-.32-.92-.32-1.52c0-.89.22-1.57.67-2.05q.66-.72 1.83-.72c.48 0 .91.11 1.28.33s.67.53.88.94.31.91.31 1.5zm-4.05 0c0 .63.12 1.14.38 1.51.25.37.65.55 1.19.55s.94-.19 1.19-.55c.25-.37.38-.87.38-1.51s-.13-1.13-.38-1.49q-.375-.54-1.2-.54c-.55 0-.94.18-1.19.54s-.37.86-.37 1.49M104.63 298.67h-.88v-7.6h.88zM107.21 298.67h-.88v-7.6h.88zM110.98 293.21c.45 0 .85.1 1.18.3s.59.48.77.84.26.79.26 1.28v.53h-3.67c.01.61.17 1.07.46 1.38.3.32.71.47 1.25.47.34 0 .64-.03.91-.09.26-.06.53-.16.81-.27v.77c-.27.12-.54.21-.81.26s-.58.08-.95.08c-.51 0-.96-.1-1.35-.31s-.69-.51-.9-.92-.33-.91-.33-1.51.1-1.09.3-1.51.47-.74.83-.97.77-.34 1.25-.34zm-.01.72c-.42 0-.75.13-1 .41-.24.27-.39.64-.44 1.12h2.73c0-.45-.11-.82-.32-1.11-.21-.28-.53-.42-.98-.42zM117.05 293.21c.1 0 .21 0 .32.01s.22.03.31.04l-.11.81c-.09-.02-.18-.04-.29-.05s-.2-.02-.29-.02c-.27 0-.53.08-.77.23s-.43.36-.58.63c-.14.27-.21.58-.21.94v2.86h-.88v-5.36h.72l.1.98h.04c.17-.29.39-.55.67-.76s.6-.32.98-.32z"/><path stroke="#040000" stroke-linecap="round" stroke-linejoin="round" stroke-width="2.83" d="M56 242.13v38.29M65.59 242.13v38.29M74.84 242.13v38.29M84.09 242.13v38.29"/><path fill="#fff" stroke="#040000" stroke-linecap="round" stroke-linejoin="round" d="M92.25 246.71H47.98v29.14h44.27z"/><path fill="#231815" d="M211.28 309.1c0 .63-.23 1.13-.69 1.48s-1.08.53-1.86.53q-.6 0-1.11-.09c-.34-.06-.62-.14-.85-.25v-.86c.24.11.54.2.9.29s.73.13 1.1.13c.53 0 .93-.1 1.2-.31s.41-.49.41-.84c0-.23-.05-.43-.15-.59s-.27-.31-.52-.44a9 9 0 0 0-1.01-.44q-.915-.33-1.38-.81c-.31-.32-.46-.76-.46-1.31 0-.37.1-.7.29-.97s.46-.48.8-.63.74-.22 1.19-.22c.39 0 .74.04 1.07.11s.63.17.9.29l-.28.77q-.375-.165-.81-.27c-.29-.07-.59-.11-.9-.11-.45 0-.78.09-1.01.29-.23.19-.34.44-.34.75q0 .36.15.6c.1.16.26.3.49.43s.53.26.92.41c.42.15.78.32 1.06.5q.435.27.66.63c.15.25.23.56.23.93M217.08 305.65v5.36h-.72l-.13-.71h-.04c-.17.28-.41.49-.72.62s-.63.19-.98.19c-.65 0-1.13-.15-1.46-.46s-.49-.8-.49-1.48v-3.51h.89v3.45c0 .85.4 1.28 1.19 1.28.59 0 1-.17 1.23-.5s.35-.81.35-1.44v-2.79h.88zM221.33 305.55c.66 0 1.19.23 1.6.69.4.46.6 1.15.6 2.08s-.2 1.61-.6 2.08-.94.71-1.6.71c-.41 0-.76-.08-1.02-.23-.27-.15-.48-.34-.64-.55h-.06c0 .11.02.26.04.43s.02.32.02.45v2.2h-.88v-7.76h.72l.12.73h.04c.16-.23.37-.43.63-.59s.61-.24 1.04-.24zm-.16.74c-.55 0-.93.15-1.16.46s-.34.77-.35 1.4v.17q0 .99.33 1.53t1.2.54c.32 0 .59-.09.8-.26.21-.18.37-.42.48-.74.1-.31.15-.67.15-1.07 0-.61-.12-1.1-.35-1.47s-.6-.55-1.09-.55zM227.43 305.55c.1 0 .21 0 .32.01s.22.03.31.04l-.11.81c-.09-.02-.18-.04-.29-.05s-.2-.02-.29-.02c-.27 0-.53.08-.77.23s-.43.36-.58.63c-.14.27-.21.58-.21.94V311h-.88v-5.36h.72l.1.98h.04c.17-.29.39-.55.67-.76s.6-.32.98-.32zM230.93 305.55c.45 0 .85.1 1.18.3s.59.48.77.84.26.79.26 1.28v.53h-3.67c.01.61.17 1.07.46 1.38.3.32.71.47 1.25.47.34 0 .64-.03.91-.09.26-.06.53-.16.81-.27v.77c-.27.12-.54.21-.81.26s-.58.08-.95.08c-.51 0-.96-.1-1.35-.31s-.69-.51-.9-.92-.33-.91-.33-1.51.1-1.09.3-1.51.47-.74.83-.97.77-.34 1.25-.34zm-.01.72c-.42 0-.75.13-1 .41-.24.27-.39.64-.44 1.12h2.73c0-.45-.11-.82-.32-1.11-.21-.28-.53-.42-.98-.42zM240.38 305.55c.61 0 1.06.16 1.36.47q.45.465.45 1.5v3.49h-.87v-3.45c0-.85-.36-1.27-1.09-1.27-.52 0-.89.15-1.12.45-.22.3-.33.74-.33 1.31v2.96h-.87v-3.45c0-.85-.37-1.27-1.1-1.27-.54 0-.91.17-1.12.5s-.31.81-.31 1.44v2.78h-.88v-5.36h.71l.13.73h.05c.17-.28.39-.49.67-.62q.42-.21.9-.21c.84 0 1.39.3 1.64.9h.05c.18-.31.42-.53.73-.68s.64-.22.99-.22zM245.88 305.56c.65 0 1.14.14 1.45.43s.47.74.47 1.37v3.65h-.64l-.17-.76h-.04c-.23.29-.48.51-.74.65s-.61.21-1.06.21c-.49 0-.89-.13-1.21-.38s-.48-.66-.48-1.21.21-.94.63-1.23 1.07-.45 1.94-.48l.91-.03v-.32c0-.45-.1-.76-.29-.93s-.47-.26-.82-.26c-.28 0-.55.04-.8.12s-.49.18-.71.29l-.27-.66c.23-.13.51-.23.83-.33.32-.09.65-.13 1-.13m1.05 2.83-.79.03c-.67.03-1.13.13-1.39.32s-.38.45-.38.79q0 .45.27.66c.18.14.42.21.71.21.45 0 .82-.12 1.12-.38.3-.25.46-.63.46-1.15zM252.18 303.87h2.04c.89 0 1.56.13 2.02.4s.69.72.69 1.37c0 .42-.12.77-.35 1.04-.23.28-.57.46-1.01.54v.05q.45.075.81.27c.24.13.44.31.58.54q.21.345.21.9c0 .65-.22 1.15-.67 1.5-.44.35-1.05.53-1.81.53h-2.51zm.9 3.04h1.32c.61 0 1.02-.1 1.25-.29.23-.2.35-.49.35-.88s-.14-.68-.42-.85-.72-.25-1.33-.25h-1.18v2.27zm0 .75v2.59h1.44c.63 0 1.07-.12 1.32-.37s.37-.57.37-.97c0-.37-.13-.68-.38-.91-.26-.23-.72-.34-1.38-.34zM259.01 303.64c.13 0 .25.04.35.13s.16.23.16.43-.05.33-.16.42c-.1.09-.22.13-.35.13-.15 0-.27-.04-.37-.13q-.15-.135-.15-.42c0-.19.05-.33.15-.43.1-.09.22-.13.37-.13m.43 2.01v5.36h-.88v-5.36zM265.8 308.32c0 .89-.22 1.57-.67 2.06s-1.06.73-1.83.73c-.47 0-.89-.11-1.26-.32s-.66-.53-.88-.95-.32-.92-.32-1.52c0-.89.22-1.57.67-2.05q.66-.72 1.83-.72c.48 0 .91.11 1.28.33s.67.53.88.94.31.91.31 1.5zm-4.05 0c0 .63.12 1.14.38 1.51.25.37.65.55 1.19.55s.94-.19 1.19-.55c.25-.37.38-.87.38-1.51s-.13-1.13-.38-1.49q-.375-.54-1.2-.54c-.55 0-.94.18-1.19.54s-.37.86-.37 1.49M273.07 305.55c.61 0 1.06.16 1.36.47q.45.465.45 1.5v3.49h-.87v-3.45c0-.85-.36-1.27-1.09-1.27-.52 0-.89.15-1.12.45-.22.3-.33.74-.33 1.31v2.96h-.87v-3.45c0-.85-.37-1.27-1.1-1.27-.54 0-.91.17-1.12.5s-.31.81-.31 1.44v2.78h-.88v-5.36h.71l.13.73h.05c.17-.28.39-.49.67-.62.28-.14.58-.21.91-.21.84 0 1.39.3 1.64.9h.05c.18-.31.42-.53.73-.68s.64-.22.99-.22M278.61 305.55c.45 0 .85.1 1.18.3s.59.48.77.84.26.79.26 1.28v.53h-3.67c.01.61.17 1.07.46 1.38s.71.47 1.25.47c.34 0 .64-.03.91-.09.26-.06.54-.16.81-.27v.77c-.27.12-.54.21-.81.26s-.58.08-.95.08c-.51 0-.96-.1-1.35-.31s-.69-.51-.91-.92-.33-.91-.33-1.51.1-1.09.29-1.51c.2-.42.47-.74.83-.97s.77-.34 1.25-.34zm-.01.72c-.42 0-.75.13-1 .41-.24.27-.39.64-.43 1.12h2.73c0-.45-.11-.82-.32-1.11-.21-.28-.53-.42-.98-.42M283.97 310.39c.13 0 .27 0 .41-.03.14-.02.25-.05.34-.08v.67c-.09.05-.23.08-.4.11s-.34.04-.5.04c-.28 0-.54-.05-.78-.14s-.43-.26-.58-.5-.22-.58-.22-1.01v-3.12h-.76v-.42l.77-.35.35-1.14h.52v1.23h1.55v.68h-1.55v3.1q0 .495.24.72.24.24.6.24zM288.29 305.55c.1 0 .21 0 .32.01s.22.03.31.04l-.11.81c-.09-.02-.18-.04-.29-.05s-.2-.02-.29-.02c-.27 0-.53.08-.77.23q-.36.225-.57.63c-.14.27-.21.58-.21.94V311h-.88v-5.36h.72l.1.98h.04c.17-.29.39-.55.67-.76s.6-.32.97-.32zM290.37 303.64c.13 0 .25.04.36.13.1.09.15.23.15.43s-.05.33-.15.42-.22.13-.36.13c-.15 0-.27-.04-.37-.13q-.15-.135-.15-.42c0-.19.05-.33.15-.43.1-.09.22-.13.37-.13m.43 2.01v5.36h-.88v-5.36zM294.65 311.11c-.48 0-.9-.1-1.27-.29q-.555-.285-.87-.9c-.21-.41-.32-.93-.32-1.56s.11-1.2.33-1.61.51-.72.89-.91.81-.29 1.29-.29c.27 0 .53.03.79.08s.46.12.62.21l-.27.73c-.16-.06-.35-.12-.56-.17a2.6 2.6 0 0 0-.6-.08c-1.05 0-1.58.68-1.58 2.03 0 .65.13 1.14.38 1.49.26.34.64.51 1.15.51.29 0 .54-.03.77-.09s.43-.13.62-.22v.78c-.18.09-.38.17-.59.22-.22.05-.48.07-.79.07zM305.74 307.37c0 1.21-.33 2.11-.99 2.72s-1.57.92-2.75.92h-1.99v-7.14h2.2c.71 0 1.33.13 1.87.4s.94.66 1.22 1.18c.29.52.43 1.16.43 1.92zm-.95.03c0-.95-.24-1.65-.71-2.09s-1.13-.67-2-.67h-1.17v5.6h.97c1.93 0 2.9-.95 2.9-2.84zM309.27 305.55c.45 0 .85.1 1.18.3s.59.48.77.84.26.79.26 1.28v.53h-3.67c.01.61.17 1.07.46 1.38s.71.47 1.25.47c.34 0 .64-.03.91-.09.26-.06.54-.16.81-.27v.77c-.27.12-.54.21-.81.26s-.58.08-.95.08c-.51 0-.96-.1-1.35-.31s-.69-.51-.91-.92-.33-.91-.33-1.51.1-1.09.29-1.51c.2-.42.47-.74.83-.97s.77-.34 1.25-.34zm-.01.72c-.42 0-.75.13-1 .41-.24.27-.39.64-.43 1.12h2.73c0-.45-.11-.82-.32-1.11-.21-.28-.53-.42-.98-.42M313.82 311.01l-2.03-5.36h.94l1.14 3.16c.05.15.11.31.17.49s.11.35.16.52.08.3.1.41h.04c.02-.11.06-.25.11-.42s.11-.34.17-.52.12-.34.17-.49l1.14-3.16h.94l-2.04 5.36h-1.01zM318.17 303.64c.13 0 .25.04.36.13.1.09.15.23.15.43s-.05.33-.15.42-.22.13-.36.13c-.15 0-.27-.04-.37-.13q-.15-.135-.15-.42c0-.19.05-.33.15-.43.1-.09.22-.13.37-.13m.43 2.01v5.36h-.88v-5.36zM322.45 311.11c-.48 0-.9-.1-1.27-.29q-.555-.285-.87-.9c-.21-.41-.32-.93-.32-1.56s.11-1.2.33-1.61.51-.72.89-.91.81-.29 1.29-.29c.27 0 .53.03.79.08s.46.12.62.21l-.27.73c-.16-.06-.35-.12-.56-.17a2.6 2.6 0 0 0-.6-.08c-1.05 0-1.58.68-1.58 2.03 0 .65.13 1.14.38 1.49.26.34.64.51 1.15.51.29 0 .54-.03.77-.09s.43-.13.62-.22v.78c-.18.09-.38.17-.59.22-.22.05-.48.07-.79.07zM327.17 305.55c.45 0 .85.1 1.18.3s.59.48.77.84.26.79.26 1.28v.53h-3.67c.01.61.17 1.07.46 1.38s.71.47 1.25.47c.34 0 .64-.03.91-.09.26-.06.54-.16.81-.27v.77c-.27.12-.54.21-.81.26s-.58.08-.95.08c-.51 0-.96-.1-1.35-.31s-.69-.51-.91-.92-.33-.91-.33-1.51.1-1.09.29-1.51c.2-.42.47-.74.83-.97s.77-.34 1.25-.34zm-.01.72c-.42 0-.75.13-1 .41-.24.27-.39.64-.43 1.12h2.73c0-.45-.11-.82-.32-1.11-.21-.28-.53-.42-.98-.42M334.23 309.53c0 .52-.19.91-.58 1.18s-.91.4-1.56.4c-.37 0-.7-.03-.96-.09-.27-.06-.51-.14-.72-.25v-.8c.21.11.47.21.78.29s.61.13.92.13c.45 0 .77-.07.97-.21s.3-.33.3-.58c0-.13-.04-.25-.11-.36s-.21-.21-.39-.32c-.19-.11-.46-.23-.82-.36-.35-.13-.64-.27-.89-.4q-.375-.195-.57-.48c-.13-.19-.2-.43-.2-.72 0-.45.19-.8.56-1.05s.85-.37 1.45-.37c.33 0 .63.03.92.1.28.07.55.15.8.26l-.3.7a7 7 0 0 0-.71-.24c-.25-.07-.5-.1-.76-.1-.36 0-.63.06-.83.17-.19.12-.29.28-.29.48 0 .15.04.28.13.38s.23.2.43.3.47.21.82.34q.51.195.87.39c.24.13.42.29.55.48s.19.43.19.71z"/><path stroke="#000" stroke-miterlimit="1.27" stroke-width="1.7" d="M280.92 229.79h-21.91a1.42 1.42 0 0 0-1.42 1.42v53.87c0 .784.636 1.42 1.42 1.42h21.91a1.42 1.42 0 0 0 1.42-1.42v-53.87a1.42 1.42 0 0 0-1.42-1.42Z"/><path fill="#000" d="M267.43 237.19a1.11 1.11 0 1 0 0-2.22 1.11 1.11 0 0 0 0 2.22M272.81 237.19a1.11 1.11 0 1 0 0-2.22 1.11 1.11 0 0 0 0 2.22"/><path stroke="#000" stroke-miterlimit="1.27" stroke-width="1.7" d="M279.76 239.92h-19.6v31.92h19.6z"/><path stroke="#000" stroke-miterlimit="1.27" d="M277.4 278.83h-4.91v4.94h4.91z"/><path stroke="#000" stroke-miterlimit="1.27" stroke-width="1.7" d="M257.59 273.07s-.15 2.83 2.13 2.83h19.91s2.71-.06 2.71-2.85"/><path fill="#fffefd" fill-rule="evenodd" d="M274.89 280.45c.61 0 1.21.4 1.21 1.21v3.54c0 .1.1.17.19.17h.06c.17-.05.42-.11.71-.11.48 0 1.05.18 1.46.87.03.06.1.09.16.09.02 0 .04 0 .06-.01.16-.06.44-.14.77-.14.45 0 .98.16 1.37.76.09.14.25.23.43.24.54.03 1.71.29 1.98 1.94.27 1.58-.19 3.14-1.79 5.56a.16.16 0 0 0-.03.08l-.16 2.63c0 .09-.08.17-.17.17h-6.43c-.07 0-.12-.04-.15-.1l-4.58-8.77c-.58-.96.24-1.86 1.08-1.86.37 0 .74.17 1 .6l.59.9c.12.19.29.27.47.27.3 0 .58-.23.58-.59v-6.22c0-.81.6-1.21 1.21-1.21" clip-rule="evenodd"/><path stroke="#000" stroke-miterlimit="1.27" d="M274.89 280.45c.61 0 1.21.4 1.21 1.21v3.54c0 .1.1.17.19.17h.06c.17-.05.42-.11.71-.11.48 0 1.05.18 1.46.87.03.06.1.09.16.09.02 0 .04 0 .06-.01.16-.06.44-.14.77-.14.45 0 .98.16 1.37.76.09.14.25.23.43.24.54.03 1.71.29 1.98 1.94.27 1.58-.19 3.14-1.79 5.56a.16.16 0 0 0-.03.08l-.16 2.63c0 .09-.08.17-.17.17h-6.43c-.07 0-.12-.04-.15-.1l-4.58-8.77c-.58-.96.24-1.86 1.08-1.86.37 0 .74.17 1 .6l.59.9c.12.19.29.27.47.27.3 0 .58-.23.58-.59v-6.22c0-.81.6-1.21 1.21-1.21"/></svg>