<svg width="330" height="614" viewBox="0 0 330 614" fill="none" xmlns="http://www.w3.org/2000/svg">
<g clip-path="url(#clip0_640_84649)">
<path d="M329.82 0H0V613.28H329.82V0Z" fill="white"/>
<path d="M40.1902 575.93H289.63" stroke="#231815" stroke-width="1.5" stroke-linecap="round" stroke-linejoin="round"/>
<path d="M289.63 519.24H281.13" stroke="#231815" stroke-width="1.5" stroke-linecap="round" stroke-linejoin="round"/>
<path d="M40.1902 519.24H48.6902" stroke="#231815" stroke-width="1.5" stroke-linecap="round" stroke-linejoin="round"/>
<path d="M37.3501 40.1899V91.2099" stroke="#231815" stroke-width="1.5" stroke-linecap="round" stroke-linejoin="round"/>
<path d="M37.3501 295.3V317.98" stroke="#231815" stroke-width="1.5" stroke-linecap="round" stroke-linejoin="round"/>
<path d="M37.3501 522.07V573.1" stroke="#231815" stroke-width="1.5" stroke-linecap="round" stroke-linejoin="round"/>
<path d="M51.52 516.41V323.65" stroke="#231815" stroke-width="1.5" stroke-linecap="round" stroke-linejoin="round"/>
<path d="M51.52 289.63V96.88" stroke="#231815" stroke-width="1.5" stroke-linecap="round" stroke-linejoin="round"/>
<path d="M289.63 320.81H281.13" stroke="#231815" stroke-width="1.5" stroke-linecap="round" stroke-linejoin="round"/>
<path d="M40.1902 320.81H48.6902" stroke="#231815" stroke-width="1.5" stroke-linecap="round" stroke-linejoin="round"/>
<path d="M289.63 292.47H281.13" stroke="#231815" stroke-width="1.5" stroke-linecap="round" stroke-linejoin="round"/>
<path d="M40.1902 292.47H48.6902" stroke="#231815" stroke-width="1.5" stroke-linecap="round" stroke-linejoin="round"/>
<path d="M278.3 96.88V289.63" stroke="#231815" stroke-width="1.5" stroke-linecap="round" stroke-linejoin="round"/>
<path d="M278.3 323.65V516.41" stroke="#231815" stroke-width="1.5" stroke-linecap="round" stroke-linejoin="round"/>
<path d="M292.47 573.1V522.07" stroke="#231815" stroke-width="1.5" stroke-linecap="round" stroke-linejoin="round"/>
<path d="M292.47 317.98V295.3" stroke="#231815" stroke-width="1.5" stroke-linecap="round" stroke-linejoin="round"/>
<path d="M292.47 91.2099V40.1899" stroke="#231815" stroke-width="1.5" stroke-linecap="round" stroke-linejoin="round"/>
<path d="M289.63 94.04H281.13" stroke="#231815" stroke-width="1.5" stroke-linecap="round" stroke-linejoin="round"/>
<path d="M40.1902 94.04H48.6902" stroke="#231815" stroke-width="1.5" stroke-linecap="round" stroke-linejoin="round"/>
<path d="M289.63 37.35H40.1902" stroke="#231815" stroke-width="1.5" stroke-linecap="round" stroke-linejoin="round"/>
<path d="M281.13 94.04C279.56 94.04 278.3 95.31 278.3 96.87" stroke="#231815" stroke-width="1.5" stroke-linecap="round" stroke-linejoin="round"/>
<path d="M278.3 289.63C278.3 291.2 279.57 292.46 281.13 292.46" stroke="#231815" stroke-width="1.5" stroke-linecap="round" stroke-linejoin="round"/>
<path d="M281.13 320.81C279.56 320.81 278.3 322.08 278.3 323.64" stroke="#231815" stroke-width="1.5" stroke-linecap="round" stroke-linejoin="round"/>
<path d="M278.3 516.41C278.3 517.98 279.57 519.24 281.13 519.24" stroke="#231815" stroke-width="1.5" stroke-linecap="round" stroke-linejoin="round"/>
<path d="M48.6902 519.24C50.2602 519.24 51.5202 517.97 51.5202 516.41" stroke="#231815" stroke-width="1.5" stroke-linecap="round" stroke-linejoin="round"/>
<path d="M51.5202 323.65C51.5202 322.08 50.2502 320.82 48.6902 320.82" stroke="#231815" stroke-width="1.5" stroke-linecap="round" stroke-linejoin="round"/>
<path d="M48.6902 292.47C50.2602 292.47 51.5202 291.2 51.5202 289.64" stroke="#231815" stroke-width="1.5" stroke-linecap="round" stroke-linejoin="round"/>
<path d="M51.5202 96.8799C51.5202 95.3099 50.2502 94.0499 48.6902 94.0499" stroke="#231815" stroke-width="1.5" stroke-linecap="round" stroke-linejoin="round"/>
<path d="M292.47 522.07C292.47 520.5 291.2 519.24 289.64 519.24" stroke="#231815" stroke-width="1.5" stroke-linecap="round" stroke-linejoin="round"/>
<path d="M289.63 320.81C291.2 320.81 292.46 319.54 292.46 317.98" stroke="#231815" stroke-width="1.5" stroke-linecap="round" stroke-linejoin="round"/>
<path d="M292.47 295.3C292.47 293.73 291.2 292.47 289.64 292.47" stroke="#231815" stroke-width="1.5" stroke-linecap="round" stroke-linejoin="round"/>
<path d="M289.63 94.04C291.2 94.04 292.46 92.77 292.46 91.21" stroke="#231815" stroke-width="1.5" stroke-linecap="round" stroke-linejoin="round"/>
<path d="M292.47 40.19C292.47 38.62 291.2 37.36 289.64 37.36" stroke="#231815" stroke-width="1.5" stroke-linecap="round" stroke-linejoin="round"/>
<path d="M40.1901 37.35C38.6201 37.35 37.3601 38.62 37.3601 40.18" stroke="#231815" stroke-width="1.5" stroke-linecap="round" stroke-linejoin="round"/>
<path d="M37.3501 91.21C37.3501 92.78 38.6201 94.04 40.1801 94.04" stroke="#231815" stroke-width="1.5" stroke-linecap="round" stroke-linejoin="round"/>
<path d="M40.1901 292.47C38.6201 292.47 37.3601 293.74 37.3601 295.3" stroke="#231815" stroke-width="1.5" stroke-linecap="round" stroke-linejoin="round"/>
<path d="M37.3501 317.98C37.3501 319.55 38.6201 320.81 40.1801 320.81" stroke="#231815" stroke-width="1.5" stroke-linecap="round" stroke-linejoin="round"/>
<path d="M40.1901 519.24C38.6201 519.24 37.3601 520.51 37.3601 522.07" stroke="#231815" stroke-width="1.5" stroke-linecap="round" stroke-linejoin="round"/>
<path d="M37.3501 573.1C37.3501 574.67 38.6201 575.93 40.1801 575.93" stroke="#231815" stroke-width="1.5" stroke-linecap="round" stroke-linejoin="round"/>
<path d="M289.63 575.93C291.2 575.93 292.46 574.66 292.46 573.1" stroke="#231815" stroke-width="1.5" stroke-linecap="round" stroke-linejoin="round"/>
<path d="M273.76 533.41C273.76 530.91 275.79 528.87 278.3 528.87C280.81 528.87 282.84 530.9 282.84 533.41C282.84 535.92 280.81 537.95 278.3 537.95C275.79 537.95 273.76 535.92 273.76 533.41Z" stroke="#231815" stroke-width="1.5" stroke-linecap="round" stroke-linejoin="round"/>
<path d="M46.99 533.41C46.99 530.91 49.02 528.87 51.53 528.87C54.04 528.87 56.07 530.9 56.07 533.41C56.07 535.92 54.04 537.95 51.53 537.95C49.02 537.95 46.99 535.92 46.99 533.41Z" stroke="#231815" stroke-width="1.5" stroke-linecap="round" stroke-linejoin="round"/>
<path d="M46.99 79.87C46.99 77.37 49.02 75.33 51.53 75.33C54.04 75.33 56.07 77.36 56.07 79.87C56.07 82.38 54.04 84.41 51.53 84.41C49.02 84.41 46.99 82.38 46.99 79.87Z" stroke="#231815" stroke-width="1.5" stroke-linecap="round" stroke-linejoin="round"/>
<path d="M273.76 79.87C273.76 77.37 275.79 75.33 278.3 75.33C280.81 75.33 282.84 77.36 282.84 79.87C282.84 82.38 280.81 84.41 278.3 84.41C275.79 84.41 273.76 82.38 273.76 79.87Z" stroke="#231815" stroke-width="1.5" stroke-linecap="round" stroke-linejoin="round"/>
<path d="M273.76 306.64C273.76 304.14 275.79 302.1 278.3 302.1C280.81 302.1 282.84 304.13 282.84 306.64C282.84 309.15 280.81 311.18 278.3 311.18C275.79 311.18 273.76 309.15 273.76 306.64Z" stroke="#231815" stroke-width="1.5" stroke-linecap="round" stroke-linejoin="round"/>
<path d="M46.99 306.64C46.99 304.14 49.02 302.1 51.53 302.1C54.04 302.1 56.07 304.13 56.07 306.64C56.07 309.15 54.04 311.18 51.53 311.18C49.02 311.18 46.99 309.15 46.99 306.64Z" stroke="#231815" stroke-width="1.5" stroke-linecap="round" stroke-linejoin="round"/>
<path d="M93 571.7V41.58" stroke="#040000" stroke-width="0.71" stroke-linecap="round" stroke-linejoin="round"/>
<path d="M95.6201 569.71L93.0001 570.83L90.3701 569.71L93.0001 575.93L95.6201 569.71Z" fill="#040000"/>
<path d="M95.6201 43.57L93.0001 42.46L90.3701 43.57L93.0001 37.35L95.6201 43.57Z" fill="#040000"/>
<path d="M51.52 539.64V549.84" stroke="#040000" stroke-width="0.71" stroke-linecap="round" stroke-linejoin="round" stroke-dasharray="567.22 113.44 113.44 113.44"/>
<path d="M278.3 539.64V549.84" stroke="#040000" stroke-width="0.71" stroke-linecap="round" stroke-linejoin="round" stroke-dasharray="567.22 113.44 113.44 113.44"/>
<path d="M55.75 544.74H274.06" stroke="#040000" stroke-width="0.71" stroke-linecap="round" stroke-linejoin="round"/>
<path d="M57.74 547.36L56.63 544.74L57.74 542.12L51.52 544.74L57.74 547.36Z" fill="#040000"/>
<path d="M272.07 547.36L273.19 544.74L272.07 542.12L278.3 544.74L272.07 547.36Z" fill="#040000"/>
<path d="M43 60.22H288.24" stroke="#040000" stroke-width="0.71" stroke-linecap="round" stroke-linejoin="round"/>
<path d="M44.99 62.84L43.87 60.22L44.99 57.6L38.77 60.22L44.99 62.84Z" fill="#040000"/>
<path d="M286.25 62.84L287.36 60.22L286.25 57.6L292.47 60.22L286.25 62.84Z" fill="#040000"/>
<path d="M80.1199 316.15V316.17L80.8499 317.53L80.0499 317.73L79.1399 316.03V315.13H86.9399V316.15H80.1299H80.1199Z" fill="#231815"/>
<path d="M86.19 311.67C86.21 311.44 86.19 311.18 86.15 310.82C86.07 310.21 85.81 309.63 85.39 309.19C84.92 308.67 84.24 308.3 83.31 308.16V308.2C83.84 308.63 84.15 309.26 84.15 310.03C84.15 311.43 83.09 312.33 81.76 312.33C80.28 312.33 78.99 311.26 78.99 309.67C78.99 308.08 80.28 307.09 82.28 307.09C83.99 307.09 85.2 307.67 85.94 308.43C86.53 309.03 86.89 309.86 86.98 310.7C87.04 311.08 87.05 311.42 87.04 311.67H86.18H86.19ZM81.7 311.29C82.67 311.29 83.36 310.7 83.36 309.79C83.36 309.08 83.01 308.53 82.54 308.25C82.44 308.19 82.32 308.15 82.16 308.15C80.83 308.15 79.81 308.64 79.81 309.75C79.81 310.65 80.6 311.29 81.7 311.29Z" fill="#231815"/>
<path d="M82.95 300.95C85.6 300.95 87.06 301.93 87.06 303.66C87.06 305.18 85.63 306.21 83.05 306.24C80.44 306.24 79 305.11 79 303.53C79 301.95 80.46 300.95 82.95 300.95ZM83.07 305.18C85.1 305.18 86.25 304.56 86.25 303.6C86.25 302.52 84.99 302 83 302C81.01 302 79.82 302.49 79.82 303.58C79.82 304.5 80.95 305.17 83.07 305.17V305.18Z" fill="#231815"/>
<path d="M223.4 316.15V316.17L224.13 317.53L223.33 317.73L222.42 316.03V315.13H230.22V316.15H223.41H223.4Z" fill="#231815"/>
<path d="M223.16 307.83C223.15 308.05 223.16 308.32 223.21 308.62C223.49 310.28 224.7 311.15 225.98 311.33V311.29C225.49 310.92 225.08 310.27 225.08 309.41C225.08 308.03 226.08 307.06 227.6 307.06C229.03 307.06 230.35 308.03 230.35 309.65C230.35 311.27 229.06 312.41 227.03 312.41C225.49 312.41 224.28 311.86 223.52 311.09C222.88 310.44 222.49 309.58 222.37 308.59C222.32 308.28 222.31 308.01 222.31 307.82H223.17L223.16 307.83ZM227.66 308.13C226.54 308.13 225.87 308.76 225.87 309.74C225.87 310.38 226.27 310.96 226.83 311.25C226.95 311.32 227.11 311.37 227.3 311.37C228.58 311.35 229.53 310.76 229.53 309.65C229.53 308.74 228.77 308.13 227.66 308.13Z" fill="#231815"/>
<path d="M226.24 300.95C228.89 300.95 230.35 301.93 230.35 303.66C230.35 305.18 228.92 306.21 226.34 306.24C223.73 306.24 222.29 305.11 222.29 303.53C222.29 301.95 223.75 300.95 226.24 300.95ZM226.35 305.18C228.38 305.18 229.53 304.56 229.53 303.6C229.53 302.52 228.27 302 226.28 302C224.29 302 223.1 302.49 223.1 303.58C223.1 304.5 224.23 305.17 226.35 305.17V305.18Z" fill="#231815"/>
<path d="M253.07 208.7C252.09 208.7 251.39 208.11 250.98 207.15H250.94C250.53 208.03 249.86 208.4 249.19 208.4C247.95 208.4 247.11 207.36 247.11 205.99C247.11 204.48 248.06 203.72 249.03 203.72C249.69 203.72 250.4 204.04 250.85 205H250.89C251.27 204.03 251.96 203.43 252.9 203.43C254.26 203.43 255.17 204.59 255.17 206.08C255.17 207.71 254.2 208.69 253.06 208.69L253.07 208.7ZM249.12 207.41C249.9 207.41 250.32 206.82 250.56 205.92C250.33 205.25 249.85 204.73 249.14 204.73C248.52 204.73 247.87 205.1 247.87 206.05C247.87 206.93 248.45 207.4 249.12 207.4V207.41ZM253.02 204.51C252.07 204.51 251.62 205.17 251.32 206.23C251.58 207.14 252.18 207.63 252.93 207.63C253.72 207.67 254.42 207.07 254.42 206.07C254.42 205.07 253.83 204.51 253.03 204.51H253.02Z" fill="#231815"/>
<path d="M251.07 197.27C253.72 197.27 255.18 198.25 255.18 199.98C255.18 201.5 253.75 202.53 251.17 202.56C248.56 202.56 247.12 201.43 247.12 199.85C247.12 198.27 248.58 197.27 251.07 197.27ZM251.19 201.5C253.22 201.5 254.37 200.88 254.37 199.92C254.37 198.84 253.11 198.32 251.12 198.32C249.13 198.32 247.94 198.81 247.94 199.9C247.94 200.82 249.07 201.5 251.19 201.5Z" fill="#231815"/>
<path d="M161.26 74.59C161.49 74.61 161.75 74.59 162.11 74.55C162.72 74.47 163.3 74.21 163.74 73.79C164.26 73.32 164.63 72.64 164.77 71.71H164.73C164.3 72.24 163.67 72.55 162.9 72.55C161.5 72.55 160.6 71.49 160.6 70.16C160.6 68.68 161.67 67.39 163.26 67.39C164.85 67.39 165.84 68.68 165.84 70.68C165.84 72.39 165.26 73.6 164.5 74.34C163.9 74.93 163.07 75.29 162.23 75.38C161.85 75.44 161.51 75.45 161.26 75.44V74.58V74.59ZM161.64 70.11C161.64 71.08 162.23 71.77 163.14 71.77C163.85 71.77 164.4 71.42 164.68 70.95C164.74 70.85 164.78 70.73 164.78 70.57C164.78 69.24 164.29 68.22 163.18 68.22C162.28 68.22 161.64 69.01 161.64 70.11Z" fill="#231815"/>
<path d="M171.98 71.35C171.98 74 171 75.46 169.27 75.46C167.75 75.46 166.72 74.03 166.69 71.45C166.69 68.84 167.82 67.4 169.4 67.4C170.98 67.4 171.98 68.86 171.98 71.35ZM167.75 71.47C167.75 73.5 168.37 74.65 169.33 74.65C170.41 74.65 170.92 73.39 170.92 71.4C170.92 69.41 170.43 68.22 169.34 68.22C168.42 68.22 167.75 69.35 167.75 71.47Z" fill="#231815"/>
<path d="M160.55 537.66C160.55 536.68 161.14 535.98 162.1 535.57V535.53C161.22 535.12 160.85 534.45 160.85 533.78C160.85 532.54 161.89 531.7 163.26 531.7C164.77 531.7 165.53 532.65 165.53 533.62C165.53 534.28 165.21 534.99 164.25 535.44V535.48C165.22 535.86 165.82 536.55 165.82 537.49C165.82 538.85 164.66 539.76 163.17 539.76C161.54 539.76 160.56 538.79 160.56 537.65L160.55 537.66ZM164.75 537.61C164.75 536.66 164.09 536.21 163.04 535.91C162.13 536.17 161.64 536.77 161.64 537.52C161.6 538.31 162.2 539.01 163.2 539.01C164.2 539.01 164.76 538.42 164.76 537.62L164.75 537.61ZM161.85 533.71C161.85 534.49 162.44 534.91 163.34 535.15C164.01 534.92 164.53 534.44 164.53 533.73C164.53 533.11 164.16 532.46 163.21 532.46C162.33 532.46 161.85 533.04 161.85 533.71Z" fill="#231815"/>
<path d="M171.98 535.66C171.98 538.31 171 539.77 169.27 539.77C167.75 539.77 166.72 538.34 166.69 535.76C166.69 533.15 167.82 531.71 169.4 531.71C170.98 531.71 171.98 533.17 171.98 535.66ZM167.75 535.78C167.75 537.81 168.37 538.96 169.33 538.96C170.41 538.96 170.92 537.7 170.92 535.71C170.92 533.72 170.43 532.53 169.34 532.53C168.42 532.53 167.75 533.66 167.75 535.78Z" fill="#231815"/>
<path d="M286.59 553.66V555.08" stroke="#231815" stroke-width="0.57" stroke-linecap="round" stroke-linejoin="bevel"/>
<path d="M286.59 557.56V566.25" stroke="#231815" stroke-width="0.57" stroke-linecap="round" stroke-linejoin="bevel" stroke-dasharray="2.48 2.48"/>
<path d="M286.59 567.49V568.9" stroke="#231815" stroke-width="0.57" stroke-linecap="round" stroke-linejoin="bevel"/>
<path d="M286.59 568.9H285.18" stroke="#231815" stroke-width="0.57" stroke-linecap="round" stroke-linejoin="bevel"/>
<path d="M282.1 568.9H277.5" stroke="#231815" stroke-width="0.57" stroke-linecap="round" stroke-linejoin="bevel" stroke-dasharray="3.07 3.07"/>
<path d="M275.96 568.9H274.54" stroke="#231815" stroke-width="0.57" stroke-linecap="round" stroke-linejoin="bevel"/>
<path d="M286.51 553.66C286.05 554.6 284.68 557.1 281.68 558.8C278.76 560.46 275.98 560.4 274.93 560.32" stroke="#231815" stroke-width="0.57" stroke-linecap="round" stroke-linejoin="bevel"/>
<path d="M274.82 560.41C276.19 562.86 276.53 565.72 275.7 567.52C275.52 567.9 275.18 568.47 274.54 568.91" stroke="#231815" stroke-width="0.57" stroke-linecap="round" stroke-linejoin="bevel"/>
<path d="M286.56 553.75C285.94 555.95 284.55 559.75 281.33 563.45C278.93 566.21 276.38 567.91 274.58 568.9" stroke="#231815" stroke-width="0.57"/>
<path d="M260.93 564.59V561.73H262.01C262.2 561.73 262.34 561.73 262.45 561.76C262.59 561.78 262.71 561.83 262.8 561.89C262.89 561.96 262.97 562.05 263.03 562.17C263.09 562.29 263.12 562.42 263.12 562.56C263.12 562.8 263.04 563.01 262.89 563.18C262.73 563.35 262.46 563.43 262.05 563.43H261.32V564.59H260.94H260.93ZM261.31 563.08H262.05C262.3 563.08 262.47 563.03 262.57 562.94C262.67 562.85 262.72 562.72 262.72 562.56C262.72 562.44 262.69 562.34 262.63 562.25C262.57 562.16 262.49 562.11 262.39 562.08C262.33 562.06 262.21 562.05 262.04 562.05H261.31V563.07V563.08Z" fill="#231815"/>
<path d="M263.6 564.59V561.73H265.67V562.07H263.98V562.95H265.56V563.29H263.98V564.26H265.74V564.6H263.6V564.59Z" fill="#231815"/>
<path d="M266.27 564.59V561.73H268.34V562.07H266.65V562.95H268.23V563.29H266.65V564.26H268.41V564.6H266.27V564.59Z" fill="#231815"/>
<path d="M268.91 564.59V561.73H269.29V564.26H270.7V564.6H268.91V564.59Z" fill="#231815"/>
<path d="M260.94 569.39V566.53H261.32V567.71H262.81V566.53H263.19V569.39H262.81V568.04H261.32V569.39H260.94Z" fill="#231815"/>
<path d="M263.82 569.39V566.53H265.89V566.87H264.2V567.75H265.78V568.09H264.2V569.06H265.96V569.4H263.82V569.39Z" fill="#231815"/>
<path d="M266.49 569.39V566.53H267.76C268.01 566.53 268.21 566.56 268.34 566.61C268.47 566.66 268.58 566.75 268.66 566.88C268.74 567.01 268.78 567.15 268.78 567.31C268.78 567.51 268.71 567.68 268.58 567.82C268.45 567.96 268.25 568.05 267.97 568.09C268.07 568.14 268.15 568.19 268.2 568.23C268.31 568.33 268.42 568.46 268.51 568.61L269.01 569.39H268.53L268.15 568.79C268.04 568.62 267.95 568.49 267.88 568.4C267.81 568.31 267.74 568.24 267.69 568.21C267.63 568.17 267.58 568.15 267.52 568.13C267.48 568.13 267.41 568.12 267.31 568.12H266.87V569.39H266.49ZM266.87 567.79H267.68C267.85 567.79 267.99 567.77 268.09 567.74C268.19 567.7 268.26 567.65 268.31 567.57C268.36 567.49 268.39 567.4 268.39 567.31C268.39 567.17 268.34 567.06 268.24 566.98C268.14 566.89 267.99 566.85 267.77 566.85H266.86V567.8L266.87 567.79Z" fill="#231815"/>
<path d="M269.38 569.39V566.53H271.45V566.87H269.76V567.75H271.34V568.09H269.76V569.06H271.52V569.4H269.38V569.39Z" fill="#231815"/>
<path d="M219.63 561.3V569.38H218.59V561.3H219.63Z" fill="#231815"/>
<path d="M228.26 565.83C228.2 564.7 228.13 563.35 228.14 562.34H228.1C227.82 563.29 227.49 564.3 227.08 565.41L225.65 569.33H224.86L223.55 565.48C223.17 564.34 222.84 563.3 222.61 562.34H222.59C222.57 563.35 222.51 564.7 222.43 565.91L222.21 569.38H221.21L221.77 561.3H223.1L224.48 565.21C224.82 566.21 225.09 567.09 225.3 567.93H225.34C225.55 567.11 225.83 566.23 226.19 565.21L227.63 561.3H228.96L229.46 569.38H228.44L228.23 565.83H228.26Z" fill="#231815"/>
<path d="M233.58 565.75V566.53H230.62V565.75H233.58Z" fill="#231815"/>
<path d="M236.77 562.57H236.75L235.39 563.3L235.19 562.5L236.89 561.59H237.79V569.39H236.77V562.58V562.57Z" fill="#231815"/>
<path d="M240.64 569.38V568.73L241.47 567.93C243.46 566.04 244.36 565.03 244.37 563.85C244.37 563.06 243.99 562.33 242.82 562.33C242.11 562.33 241.53 562.69 241.17 562.99L240.83 562.25C241.37 561.79 242.14 561.46 243.04 561.46C244.72 561.46 245.43 562.61 245.43 563.73C245.43 565.17 244.39 566.33 242.74 567.92L242.12 568.5V568.52H245.62V569.4H240.64V569.38Z" fill="#231815"/>
<path d="M251.98 565.4C251.98 568.05 251 569.51 249.27 569.51C247.75 569.51 246.72 568.08 246.69 565.5C246.69 562.89 247.82 561.45 249.4 561.45C250.98 561.45 251.98 562.91 251.98 565.4ZM247.74 565.52C247.74 567.55 248.36 568.7 249.32 568.7C250.4 568.7 250.92 567.44 250.92 565.45C250.92 563.46 250.43 562.27 249.34 562.27C248.42 562.27 247.75 563.4 247.75 565.52H247.74Z" fill="#231815"/>
<path d="M268.74 80.4399H222.57" stroke="#040000" stroke-width="0.71" stroke-linecap="round" stroke-linejoin="round"/>
<path d="M268.74 307.21H251.82" stroke="#040000" stroke-width="0.71" stroke-linecap="round" stroke-linejoin="round"/>
<path d="M268.74 533.98H222.57" stroke="#040000" stroke-width="0.71" stroke-linecap="round" stroke-linejoin="round"/>
<path d="M260.28 302.98V84.6699" stroke="#040000" stroke-width="0.71" stroke-linecap="round" stroke-linejoin="round"/>
<path d="M262.9 300.99L260.28 302.11L257.65 300.99L260.28 307.21L262.9 300.99Z" fill="#040000"/>
<path d="M262.9 86.6599L260.28 85.5499L257.65 86.6599L260.28 80.4399L262.9 86.6599Z" fill="#040000"/>
<path d="M235.75 529.75V84.6699" stroke="#040000" stroke-width="0.71" stroke-linecap="round" stroke-linejoin="round"/>
<path d="M238.37 527.76L235.75 528.88L233.12 527.76L235.75 533.98L238.37 527.76Z" fill="#040000"/>
<path d="M238.37 86.6599L235.75 85.5499L233.12 86.6599L235.75 80.4399L238.37 86.6599Z" fill="#040000"/>
<path d="M296.53 28.85H33.3001C30.8424 28.85 28.8501 30.8423 28.8501 33.3V579.99C28.8501 582.448 30.8424 584.44 33.3001 584.44H296.53C298.988 584.44 300.98 582.448 300.98 579.99V33.3C300.98 30.8423 298.988 28.85 296.53 28.85Z" stroke="#231815" stroke-linecap="round" stroke-linejoin="round" stroke-dasharray="6.01 6.01"/>
</g>
<defs>
<clipPath id="clip0_640_84649">
<rect width="329.82" height="613.28" fill="white"/>
</clipPath>
</defs>
</svg>
