<svg xmlns="http://www.w3.org/2000/svg" width="20" height="20" fill="none" viewBox="0 0 20 20"><path fill="#42e100" d="m10 18.506-.102-.02a1.04 1.04 0 0 1-.545-.282 1.45 1.45 0 0 1-.323-.485 3.2 3.2 0 0 0-.613-.938 4 4 0 0 0-.588-.44l-1.553-.829-.01-.005-.01-.006a7.7 7.7 0 0 1-1.53-1.193L4.72 14.3l-.008-.008q-.39-.426-.747-.854l-.009-.01-.008-.012C3 12.146 2.522 10.661 2.522 9c0-2.06.742-3.845 2.205-5.308A6.8 6.8 0 0 1 6.245 2.54q.265-.187.565-.337l.007-.004.008-.003A7.5 7.5 0 0 1 10 1.522c1.138 0 2.206.227 3.175.674l.007.003.008.004q.3.15.566.337a6.8 6.8 0 0 1 1.517 1.152C16.736 5.155 17.478 6.94 17.478 9c0 1.661-.48 3.147-1.425 4.416a8.4 8.4 0 0 1-.78.892c-.47.47-.984.871-1.53 1.193l-.007.005-.008.004-1.53.835a3.3 3.3 0 0 0-.615.436 3.2 3.2 0 0 0-.613.938q-.109.271-.323.485a1.04 1.04 0 0 1-.545.281z"/><path fill="#000" d="M10 2.043q-1.6 0-2.957.627-.278.139-.521.313-.765.417-1.426 1.078Q3.044 6.113 3.043 9q0 2.331 1.322 4.104.349.418.73.835.662.66 1.427 1.113l1.565.835q.348.21.696.522.486.522.73 1.113.07.174.209.313a.53.53 0 0 0 .278.139.53.53 0 0 0 .278-.14.9.9 0 0 0 .209-.312q.244-.591.73-1.113.349-.314.73-.522l1.531-.835q.765-.452 1.426-1.113.418-.417.73-.835Q16.957 11.331 16.957 9q0-2.887-2.052-4.94-.66-.66-1.426-1.077a4 4 0 0 0-.521-.313Q11.6 2.043 10 2.043M10 1c1.214 0 2.356.243 3.394.722l.03.014q.32.161.608.36c.575.321 1.117.733 1.61 1.227C17.207 4.888 18 6.798 18 9c0 1.776-.514 3.367-1.529 4.728a9 9 0 0 1-.829.949c-.5.5-1.05.929-1.633 1.274l-.031.017-1.53.835q-.257.14-.499.351-.331.366-.496.761a2 2 0 0 1-.437.658 1.58 1.58 0 0 1-.811.424l-.205.041-.205-.04a1.58 1.58 0 0 1-.811-.425 2 2 0 0 1-.437-.658 2.7 2.7 0 0 0-.497-.761 3.5 3.5 0 0 0-.48-.36l-1.58-.844a8.3 8.3 0 0 1-1.632-1.273l-.032-.033a25 25 0 0 1-.762-.872l-.036-.044C2.514 12.367 2 10.776 2 9c0-2.202.793-4.112 2.358-5.677a7.3 7.3 0 0 1 1.61-1.227 5 5 0 0 1 .609-.36l.03-.014A8 8 0 0 1 10 1"/><path fill="#fff" d="M6.87 13.174a.31.31 0 0 1-.348-.352v-2.775a.31.31 0 0 1 .347-.352h6.261a.31.31 0 0 1 .348.352v2.775a.31.31 0 0 1-.348.352zm.347-3.826V7.26a2.8 2.8 0 0 1 .801-1.983 2.78 2.78 0 0 1 1.982-.8 2.66 2.66 0 0 1 1.947.8 2.7 2.7 0 0 1 .835 1.983h-.695a2.04 2.04 0 0 0-.627-1.496A1.97 1.97 0 0 0 10 5.174a2.08 2.08 0 0 0-1.497.591 2.08 2.08 0 0 0-.59 1.496v2.087z"/><path fill="#000" fill-opacity=".25" d="M13.13 13.175q.347 0 .347-.353v-2.774q0-.353-.347-.353H6.87q-.349 0-.349.353v2.774q0 .353.35.353zM7.914 9.348V7.261a2.08 2.08 0 0 1 .59-1.495 2.08 2.08 0 0 1 1.482-.591h.022q.86 0 1.452.591.628.627.627 1.495h.696q0-1.15-.835-1.983-.796-.796-1.947-.8a2.78 2.78 0 0 0-1.983.8 2.8 2.8 0 0 0-.8 1.983v2.087zm5.216 4.525H6.87c-.617 0-1.047-.432-1.047-1.05v-2.775c0-.493.273-.867.696-1V7.262c.004-.95.339-1.78.995-2.466l.021-.021a3.47 3.47 0 0 1 2.463-.994h.004c.955.002 1.776.34 2.44 1.004.69.688 1.04 1.522 1.04 2.477v.699h-2.093V7.26c0-.396-.134-.714-.422-1a1.27 1.27 0 0 0-.959-.388h-.022c-.39 0-.705.123-.989.387a1.37 1.37 0 0 0-.385.997v1.74h4.518c.616 0 1.046.432 1.046 1.05v2.775c0 .619-.43 1.05-1.046 1.05"/></svg>