<svg width="19" height="17" viewBox="0 0 19 17" fill="none" xmlns="http://www.w3.org/2000/svg">
<path d="M17.5401 0.0500488H1.47005C0.685805 0.0500488 0.0500488 0.685805 0.0500488 1.47005V14.57C0.0500488 15.3543 0.685805 15.99 1.47005 15.99H17.5401C18.3243 15.99 18.96 15.3543 18.96 14.57V1.47005C18.96 0.685805 18.3243 0.0500488 17.5401 0.0500488Z" fill="#1A1A2E"/>
<path d="M17.5401 0.0500488H1.47005C0.685805 0.0500488 0.0500488 0.685805 0.0500488 1.47005V14.57C0.0500488 15.3543 0.685805 15.99 1.47005 15.99H17.5401C18.3243 15.99 18.96 15.3543 18.96 14.57V1.47005C18.96 0.685805 18.3243 0.0500488 17.5401 0.0500488Z" stroke="#231815" stroke-width="0.1" stroke-linecap="round" stroke-linejoin="round"/>
<path d="M9.50008 8.68998C9.87008 8.68998 10.1701 8.38998 10.1701 8.01998C10.1701 7.64998 9.87008 7.34998 9.50008 7.34998C9.13008 7.34998 8.83008 7.64998 8.83008 8.01998C8.83008 8.38998 9.13008 8.68998 9.50008 8.68998Z" stroke="white" stroke-width="1.33" stroke-linecap="round" stroke-linejoin="round"/>
<path d="M14.17 8.68998C14.54 8.68998 14.84 8.38998 14.84 8.01998C14.84 7.64998 14.54 7.34998 14.17 7.34998C13.8 7.34998 13.5 7.64998 13.5 8.01998C13.5 8.38998 13.8 8.68998 14.17 8.68998Z" stroke="white" stroke-width="1.33" stroke-linecap="round" stroke-linejoin="round"/>
<path d="M4.84004 8.68998C5.21004 8.68998 5.51004 8.38998 5.51004 8.01998C5.51004 7.64998 5.21004 7.34998 4.84004 7.34998C4.47004 7.34998 4.17004 7.64998 4.17004 8.01998C4.17004 8.38998 4.47004 8.68998 4.84004 8.68998Z" stroke="white" stroke-width="1.33" stroke-linecap="round" stroke-linejoin="round"/>
</svg>
