<svg xmlns="http://www.w3.org/2000/svg" width="16" height="16" fill="none" viewBox="0 0 16 16"><g clip-path="url(#a)"><circle cx="8" cy="8" r="8" fill="#d0d0d0"/><path fill="#000" d="M12.639 7.19c.2 0 .361.161.361.36a3.45 3.45 0 0 1-3.442 3.444H4.264l.539.539a.361.361 0 0 1-.511.51l-1.155-1.156a.37.37 0 0 1-.107-.255c0-.096.04-.188.107-.255L4.292 9.22a.362.362 0 0 1 .51.512l-.54.54h5.294a2.73 2.73 0 0 0 2.721-2.722c0-.2.163-.36.362-.36m-1.412-4.134a.36.36 0 0 1 .511 0l1.157 1.157.005.007a.4.4 0 0 1 .062.09q.007.012.013.025.009.022.013.048l.005.018a.36.36 0 0 1-.019.198l-.008.017-.02.04-.014.02-.03.037-.007.01-1.157 1.157a.362.362 0 0 1-.51-.511l.539-.54H6.475l-.136.004A2.725 2.725 0 0 0 3.753 7.55a.362.362 0 0 1-.723-.001 3.45 3.45 0 0 1 3.444-3.444h5.293l-.54-.539a.36.36 0 0 1 0-.51"/></g><defs><clipPath id="a"><path fill="#fff" d="M0 0h16v16H0z"/></clipPath></defs></svg>