<svg xmlns="http://www.w3.org/2000/svg" width="18" height="16" fill="none" viewBox="0 0 18 16"><path fill="#000" fill-rule="evenodd" d="M3.794 5.441H2.036c-.648 0-1.172-.511-1.172-1.143V2.584c0-.631.524-1.143 1.172-1.143h1.758c.647 0 1.172.512 1.172 1.143v1.714c0 .632-.525 1.143-1.172 1.143m.165-2.43a.21.21 0 0 0-.02-.303.224.224 0 0 0-.31.02l-.841.938a.075.075 0 0 1-.101.008l-.514-.4a.224.224 0 0 0-.309.033.21.21 0 0 0 .034.301l.514.401c.214.167.526.14.706-.061zM3.794 15.042H2.036c-.648 0-1.172-.512-1.172-1.143v-1.714c0-.632.524-1.143 1.172-1.143h1.758c.647 0 1.172.511 1.172 1.143v1.714c0 .631-.525 1.143-1.172 1.143m.165-2.43a.21.21 0 0 0-.02-.303.224.224 0 0 0-.31.02l-.841.937a.074.074 0 0 1-.101.01l-.514-.402a.224.224 0 0 0-.309.034.21.21 0 0 0 .034.301l.514.4c.214.168.526.141.706-.06z" clip-rule="evenodd"/><path fill="#000" d="M4.146 7.241c0-.11-.092-.2-.205-.2H1.889a.203.203 0 0 0-.205.2v2c0 .111.092.2.205.2h2.052c.113 0 .205-.089.205-.2zm.82 2c0 .553-.459 1-1.025 1H1.889a1.013 1.013 0 0 1-1.025-1v-2c0-.552.459-1 1.025-1h2.052c.566 0 1.025.448 1.025 1zM12.761 3.041c.227 0 .41.18.41.4s-.183.4-.41.4H7.017a.405.405 0 0 1-.41-.4c0-.22.184-.4.41-.4zM16.453 7.841c.227 0 .41.18.41.4s-.183.4-.41.4H7.017a.405.405 0 0 1-.41-.4c0-.22.184-.4.41-.4zM14.402 12.642c.227 0 .41.179.41.4 0 .22-.183.4-.41.4H7.017a.405.405 0 0 1-.41-.4c0-.221.184-.4.41-.4z"/></svg>