<svg xmlns="http://www.w3.org/2000/svg" width="20" height="20" fill="none" viewBox="0 0 20 20"><path fill="#3f70db" d="M8.195.83c2.387-.641 4.657-.349 6.775.878l.08.047v.001c2.108 1.185 3.489 2.989 4.128 5.382.64 2.394.326 4.674-.935 6.806-1.21 2.169-3.024 3.585-5.415 4.228-2.385.64-4.633.343-6.71-.896l-.081-.045c-2.118-1.227-3.505-3.053-4.145-5.448a.526.526 0 1 1 1.015-.273c.569 2.13 1.782 3.722 3.655 4.807l.088.05c1.827 1.093 3.784 1.357 5.906.787 2.117-.57 3.698-1.804 4.77-3.725l.006-.012c1.122-1.892 1.398-3.883.83-6.007-.568-2.128-1.774-3.697-3.63-4.738l-.088-.05c-1.873-1.086-3.855-1.343-5.977-.773-1.564.42-2.838 1.193-3.832 2.322L6.16 5.7l-1.554.302-1.868.362-1.238.241.256-1.24.38-1.853.315-1.532 1.44 1.444C5.018 2.167 6.455 1.3 8.196.831"/><path stroke="#3f70db" stroke-linecap="round" d="M10.5 4v2M10.5 13v2M7 9.5H5M16 9.5h-2"/><circle cx="10.5" cy="9.5" r="4.5" fill="#3f70db" fill-opacity=".15" stroke="#3f70db"/></svg>