<svg xmlns="http://www.w3.org/2000/svg" width="16" height="16" fill="none" viewBox="0 0 16 16"><path fill="#333" d="M0 0h16v16H0z"/><path fill="#fff" d="M6.942 7.608c.327.378.508.87.508 1.38v3.902l1.102.577V8.988l.008-.19c.04-.441.214-.859.5-1.19l4.426-5.126H2.514zm3.014 6.17a1.5 1.5 0 0 1-.158.503c-.111.209-.27.384-.465.51a1.3 1.3 0 0 1-1.3.062h-.001l-1.259-.66a1.36 1.36 0 0 1-.539-.516 1.4 1.4 0 0 1-.187-.542l-.013-.194V8.989l-.01-.106a.6.6 0 0 0-.132-.281L1.345 3.338a1.43 1.43 0 0 1-.328-.718 1.46 1.46 0 0 1 .098-.788l.092-.179c.102-.17.239-.317.401-.427l.17-.098c.174-.084.365-.128.559-.128h11.329l.192.015c.19.03.373.102.535.213.162.11.3.256.402.426l.09.179.066.19c.052.194.063.398.032.598-.04.267-.154.517-.327.717h-.001L10.11 8.602a.6.6 0 0 0-.143.387V13.6z"/><path fill="#fff" d="M4.945 10.246a.59.59 0 0 1 .801-.15c.264.173.333.52.155.777L3.94 13.688a.744.744 0 0 1-1.178.044L1.125 11.73a.55.55 0 0 1 .094-.786.59.59 0 0 1 .81.091l1.277 1.563z"/></svg>