<svg xmlns="http://www.w3.org/2000/svg" width="16" height="16" fill="none" viewBox="0 0 16 16"><g clip-path="url(#a)"><path fill="#00ab88" d="M7.859 15.03q-6-1-6-7v-5.4l6-.6 6 .526V8.03q0 6-6 7m0-7.5h-.1a1.03 1.03 0 0 1-.6-.3.86.86 0 0 1-.3-.7c.004-.278.11-.545.3-.75a1.1 1.1 0 0 1 1.4 0c.188.205.295.472.3.75a.86.86 0 0 1-.3.7.96.96 0 0 1-.7.3v3.5Z"/><path stroke="#000" stroke-linecap="round" stroke-linejoin="round" d="M7.859 7.53h-.1a1.03 1.03 0 0 1-.6-.3.86.86 0 0 1-.3-.7c.004-.278.11-.545.3-.75a1.1 1.1 0 0 1 1.4 0c.188.205.295.472.3.75a.86.86 0 0 1-.3.7.96.96 0 0 1-.7.3m0 0v3.5m0 4q-6-1-6-7v-5.4l6-.6 6 .526V8.03q0 6-6 7"/><path fill="red" d="M12.237 14.005 1.591 3.36a1.25 1.25 0 0 1 0-1.768 1.25 1.25 0 0 1 1.768 0l10.646 10.646c.487.488.487 1.28 0 1.768a1.25 1.25 0 0 1-1.768 0"/><path fill="#212126" d="M3.005 1.945a.75.75 0 0 0-1.06 1.06L12.59 13.652a.75.75 0 1 0 1.06-1.061zm.707-.708L14.36 11.884a1.75 1.75 0 0 1 0 2.475 1.75 1.75 0 0 1-2.475 0L1.237 3.712a1.75 1.75 0 0 1 0-2.475 1.75 1.75 0 0 1 2.475 0"/></g><defs><clipPath id="a"><path fill="#fff" d="M0 0h16v16H0z"/></clipPath></defs></svg>