<svg xmlns="http://www.w3.org/2000/svg" width="23" height="21" fill="none" viewBox="0 0 23 21"><path fill="#3974ff" d="M7 8.915v-1.5a.884.884 0 0 1 1-1h8a.884.884 0 0 1 1 1v6a.884.884 0 0 1-1 1H8a.884.884 0 0 1-1-1v-1.5l-4 2v-7zv3Z"/><path stroke="currentColor" stroke-linecap="round" stroke-linejoin="round" d="M7 8.915v-1.5a.884.884 0 0 1 1-1h8a.884.884 0 0 1 1 1v6a.884.884 0 0 1-1 1H8a.884.884 0 0 1-1-1v-1.5m0-3-4-2v7l4-2m0-3v3"/><path fill="red" d="M13.39 10.168a1.25 1.25 0 0 1-.001-1.768l1.5-1.5-1.329-1.33a1.25 1.25 0 0 1 0-1.767 1.25 1.25 0 0 1 1.768 0l1.328 1.329 1.329-1.329a1.25 1.25 0 0 1 1.768 0c.488.488.487 1.28 0 1.768L18.424 6.9l1.5 1.5c.488.487.488 1.28 0 1.768a1.25 1.25 0 0 1-1.767 0l-1.5-1.5-1.5 1.5a1.25 1.25 0 0 1-1.768 0"/><path fill="currentColor" d="M13.743 9.814a.75.75 0 0 0 1.06 0l1.854-1.854 1.854 1.854a.75.75 0 0 0 1.06-1.06L17.717 6.9 19.4 5.218a.75.75 0 1 0-1.06-1.061l-1.683 1.682-1.682-1.682a.75.75 0 0 0-1.06 1.06L15.596 6.9l-1.854 1.854a.75.75 0 0 0 0 1.06m-.707.707a1.75 1.75 0 0 1 0-2.475l1.146-1.147-.975-.975a1.75 1.75 0 0 1 0-2.474 1.75 1.75 0 0 1 2.474 0l.975.975.975-.975a1.753 1.753 0 0 1 2.476 0 1.75 1.75 0 0 1 0 2.475l-.976.975 1.147 1.147a1.75 1.75 0 0 1 0 2.474 1.75 1.75 0 0 1-2.474 0l-1.147-1.147-1.147 1.147a1.75 1.75 0 0 1-2.474 0"/></svg>