<svg xmlns="http://www.w3.org/2000/svg" width="16" height="16" fill="none" viewBox="0 0 16 16"><path fill="currentColor" d="M14.499 7.043c.28 0 .507.228.507.508a4.84 4.84 0 0 1-4.828 4.828H2.754l.756.757a.506.506 0 1 1-.716.716L1.173 12.23a.5.5 0 0 1-.138-.457.5.5 0 0 1 .096-.208q.019-.026.042-.051l1.621-1.62a.506.506 0 1 1 .716.715l-.757.757h7.423a3.824 3.824 0 0 0 3.817-3.817c0-.28.227-.506.506-.506M12.52 1.248a.507.507 0 0 1 .717 0l1.62 1.621.01.012q.02.022.038.047.015.019.028.039l.02.039.017.036a.5.5 0 0 1 0 .37l-.013.027a.5.5 0 0 1-.093.136l-.007.01-1.62 1.622a.508.508 0 0 1-.716-.717l.755-.756h-7.42l-.191.005a3.82 3.82 0 0 0-3.627 3.812.507.507 0 0 1-1.014-.002 4.836 4.836 0 0 1 4.83-4.828h7.422l-.755-.756a.507.507 0 0 1 0-.717"/></svg>