<svg xmlns="http://www.w3.org/2000/svg" width="16" height="16" fill="none" viewBox="0 0 16 16"><g clip-path="url(#a)"><circle cx="8" cy="8" r="8" fill="#d0d0d0"/><path fill="#000" d="M10.267 3.991a.333.333 0 0 1 .461-.095 5.04 5.04 0 0 1 1.89 2.298l.075.19.065.192c.31.967.323 2.008.036 2.986a5.05 5.05 0 0 1-1.802 2.609A4.97 4.97 0 0 1 8 13.175a4.97 4.97 0 0 1-2.993-1.004 5.05 5.05 0 0 1-1.801-2.61 5.1 5.1 0 0 1 .101-3.177 5.04 5.04 0 0 1 1.964-2.488.334.334 0 0 1 .366.557 4.38 4.38 0 0 0-1.704 2.16 4.43 4.43 0 0 0-.088 2.761c.266.906.816 1.7 1.565 2.265.748.564 1.657.869 2.59.869s1.842-.305 2.59-.87a4.4 4.4 0 0 0 1.564-2.264 4.43 4.43 0 0 0-.088-2.762l-.063-.166a4.37 4.37 0 0 0-1.64-1.993.334.334 0 0 1-.096-.462M8 3.841c.184 0 .334.15.334.334v4a.334.334 0 0 1-.667 0v-4c0-.184.149-.334.333-.334"/></g><defs><clipPath id="a"><path fill="#fff" d="M0 0h16v16H0z"/></clipPath></defs></svg>