<svg width="16" height="16" viewBox="0 0 16 16" fill="none" xmlns="http://www.w3.org/2000/svg">
<g clip-path="url(#clip0_317_44)">
<path d="M11.2 5.59995V4.47995C11.2042 4.05449 11.1212 3.63268 10.956 3.24054C10.7909 2.84841 10.5472 2.49426 10.24 2.19995C9.94922 1.90174 9.60047 1.66625 9.21521 1.50802C8.82995 1.34979 8.41636 1.27217 7.99995 1.27995C7.5776 1.27225 7.15803 1.34975 6.76631 1.50784C6.37459 1.66593 6.01875 1.90135 5.72005 2.20005C5.42135 2.49875 5.18593 2.85459 5.02784 3.24631C4.86975 3.63803 4.79225 4.0576 4.79995 4.47995V7.99995M4.79995 7.99995H11.84C12.48 7.99995 12.8 8.26662 12.8 8.79995V12.8C12.8 13.3333 12.48 13.6 11.84 13.6H4.15995C3.51995 13.6 3.19995 13.3333 3.19995 12.8V8.79995C3.19995 8.26662 3.51995 7.99995 4.15995 7.99995H4.79995Z" stroke="#AAAAAA" stroke-linecap="round" stroke-linejoin="round"/>
</g>
<defs>
<clipPath id="clip0_317_44">
<rect width="16" height="16" fill="white"/>
</clipPath>
</defs>
</svg>
