<svg xmlns="http://www.w3.org/2000/svg" width="20" height="20" fill="none" viewBox="0 0 20 20"><path stroke="#757575" stroke-linecap="round" stroke-linejoin="round" d="M2.5 4.853v-.088c0-.5.51-.927 1.843-1.28.975-.235 2.457-.382 3.943-.44A31 31 0 0 1 10 3q.915 0 1.714.044 2.229.089 3.943.441c1.562.353 1.843.78 1.843 1.28v.088m-15 0V6.81a2 2 0 0 0 .742 1.555l4.516 3.652a2 2 0 0 1 .742 1.555v1.81a1 1 0 0 0 .553.894l1 .5a1 1 0 0 0 1.447-.894V13.66a2 2 0 0 1 .742-1.555l4.516-3.652a2 2 0 0 0 .742-1.555V4.853m-15 0c.01.444.52.826 1.843 1.147.975.265 2.457.426 3.943.485q.8.045 1.714.044.915 0 1.714-.044 2.229-.088 3.943-.485c1.55-.321 1.83-.703 1.843-1.147"/></svg>