<svg xmlns="http://www.w3.org/2000/svg" width="16" height="16" fill="none" viewBox="0 0 16 16"><path fill="#333" d="M0 0h16v16H0z"/><circle cx="10.764" cy="7.764" r=".764" fill="#fff"/><circle cx="8.586" cy="12.025" r=".764" fill="#fff"/><circle cx="8.586" cy="9.764" r=".764" fill="#fff"/><circle cx="8.586" cy="14.208" r=".764" fill="#fff"/><path fill="#fff" d="M14.044 9.296a.546.546 0 0 1 0 1.091h-3.711a.546.546 0 1 1 0-1.091zM14.044 11.479a.546.546 0 0 1 0 1.092h-3.711a.546.546 0 0 1 0-1.092zM14.044 13.662a.546.546 0 0 1 0 1.092h-3.711a.546.546 0 0 1 0-1.092z"/><path fill="#fff" d="M13 8h-.995V2.942h-8.01v11.116H7V15H3V2h10z"/></svg>