<svg xmlns="http://www.w3.org/2000/svg" width="16" height="16" fill="none" viewBox="0 0 16 16"><path stroke="currentColor" stroke-linecap="round" stroke-linejoin="round" d="M13.5 3h-11a.5.5 0 0 0-.5.5v9a.5.5 0 0 0 .5.5h11a.5.5 0 0 0 .5-.5v-9a.5.5 0 0 0-.5-.5"/><path stroke="currentColor" stroke-linecap="round" stroke-linejoin="round" d="m2 10.5 3.144-3.144a.5.5 0 0 1 .712 0l2.788 2.788a.5.5 0 0 0 .712 0l1.288-1.288a.5.5 0 0 1 .712 0L14 11.5"/><path fill="currentColor" d="M9.75 7a.75.75 0 1 0 0-1.5.75.75 0 0 0 0 1.5"/></svg>