<svg xmlns="http://www.w3.org/2000/svg" width="16" height="16" fill="none" viewBox="0 0 16 16"><g clip-path="url(#a)"><path fill="#06c5a4" d="M8 15.2A7.2 7.2 0 1 0 8 .8a7.2 7.2 0 0 0 0 14.4"/><path fill="#fff" d="M7.425 11.79a.55.55 0 0 1-.225-.442.7.7 0 0 1 .016-.144.66.66 0 0 1 .209-.34.97.97 0 0 1 .575-.168c.2-.007.397.053.56.17a.63.63 0 0 1 .224.325.1.1 0 0 1 .016.04v.117a.54.54 0 0 1-.24.442 1 1 0 0 1-.145.118A.9.9 0 0 1 8 12a.85.85 0 0 1-.575-.21m0-1.966A.6.6 0 0 1 7.2 9.36V3.888a.7.7 0 0 1 .224-.51A.95.95 0 0 1 8 3.2a.88.88 0 0 1 .56.178c.12.098.204.232.24.382v5.6a.58.58 0 0 1-.24.467 1 1 0 0 1-.145.124.85.85 0 0 1-.416.096.82.82 0 0 1-.574-.223"/></g><defs><clipPath id="a"><path fill="#fff" d="M0 0h16v16H0z"/></clipPath></defs></svg>