<svg width="1097" height="663" viewBox="0 0 1097 663" fill="none" xmlns="http://www.w3.org/2000/svg">
<rect width="1097" height="663" fill="white"/>
<path d="M194.146 179.646C193.951 179.842 193.951 180.158 194.146 180.354L197.328 183.536C197.524 183.731 197.84 183.731 198.036 183.536C198.231 183.34 198.231 183.024 198.036 182.828L195.207 180L198.036 177.172C198.231 176.976 198.231 176.66 198.036 176.464C197.84 176.269 197.524 176.269 197.328 176.464L194.146 179.646ZM689.854 180.354C690.049 180.158 690.049 179.842 689.854 179.646L686.672 176.464C686.476 176.269 686.16 176.269 685.964 176.464C685.769 176.66 685.769 176.976 685.964 177.172L688.793 180L685.964 182.828C685.769 183.024 685.769 183.34 685.964 183.536C686.16 183.731 686.476 183.731 686.672 183.536L689.854 180.354ZM194.5 180V180.5L689.5 180.5L689.5 180V179.5L194.5 179.5V180Z" fill="black"/>
<line x1="690.5" y1="176" x2="690.5" y2="184" stroke="black"/>
<line x1="193.5" y1="176" x2="193.5" y2="184" stroke="black"/>
<path d="M163.354 210.646C163.158 210.451 162.842 210.451 162.646 210.646L159.464 213.828C159.269 214.024 159.269 214.34 159.464 214.536C159.66 214.731 159.976 214.731 160.172 214.536L163 211.707L165.828 214.536C166.024 214.731 166.34 214.731 166.536 214.536C166.731 214.34 166.731 214.024 166.536 213.828L163.354 210.646ZM162.646 442.354C162.842 442.549 163.158 442.549 163.354 442.354L166.536 439.172C166.731 438.976 166.731 438.66 166.536 438.464C166.34 438.269 166.024 438.269 165.828 438.464L163 441.293L160.172 438.464C159.976 438.269 159.66 438.269 159.464 438.464C159.269 438.66 159.269 438.976 159.464 439.172L162.646 442.354ZM163 211L162.5 211L162.5 442L163 442L163.5 442L163.5 211L163 211Z" fill="black"/>
<path d="M159 210L167 210" stroke="black"/>
<path d="M159 443H167" stroke="black"/>
<path d="M395.305 156L392.323 145.091H393.665L395.945 153.976H396.051L398.374 145.091H399.865L402.188 153.976H402.294L404.574 145.091H405.916L402.933 156H401.57L399.162 147.307H399.077L396.669 156H395.305ZM407.392 156V147.818H408.649V156H407.392ZM408.031 146.455C407.786 146.455 407.575 146.371 407.397 146.204C407.223 146.037 407.136 145.837 407.136 145.602C407.136 145.368 407.223 145.167 407.397 145C407.575 144.833 407.786 144.75 408.031 144.75C408.276 144.75 408.486 144.833 408.66 145C408.837 145.167 408.926 145.368 408.926 145.602C408.926 145.837 408.837 146.037 408.66 146.204C408.486 146.371 408.276 146.455 408.031 146.455ZM414.041 156.17C413.359 156.17 412.757 155.998 412.235 155.654C411.713 155.306 411.305 154.816 411.01 154.184C410.715 153.548 410.568 152.797 410.568 151.93C410.568 151.071 410.715 150.325 411.01 149.693C411.305 149.061 411.715 148.573 412.24 148.228C412.766 147.884 413.373 147.712 414.062 147.712C414.595 147.712 415.016 147.8 415.325 147.978C415.637 148.152 415.875 148.351 416.038 148.575C416.205 148.795 416.335 148.976 416.427 149.118H416.534V145.091H417.791V156H416.576V154.743H416.427C416.335 154.892 416.203 155.08 416.033 155.308C415.863 155.531 415.619 155.732 415.303 155.909C414.987 156.083 414.566 156.17 414.041 156.17ZM414.211 155.041C414.716 155.041 415.142 154.91 415.49 154.647C415.838 154.381 416.102 154.013 416.283 153.544C416.464 153.072 416.555 152.527 416.555 151.909C416.555 151.298 416.466 150.764 416.289 150.306C416.111 149.844 415.848 149.485 415.5 149.23C415.152 148.971 414.723 148.841 414.211 148.841C413.679 148.841 413.235 148.978 412.88 149.251C412.528 149.521 412.263 149.888 412.086 150.354C411.912 150.815 411.825 151.334 411.825 151.909C411.825 152.491 411.914 153.021 412.091 153.496C412.272 153.969 412.539 154.345 412.89 154.626C413.245 154.903 413.686 155.041 414.211 155.041ZM423.826 147.818V148.884H419.586V147.818H423.826ZM420.822 145.858H422.079V153.656C422.079 154.011 422.13 154.278 422.233 154.455C422.34 154.629 422.475 154.746 422.638 154.807C422.805 154.864 422.981 154.892 423.165 154.892C423.304 154.892 423.418 154.885 423.506 154.871C423.595 154.853 423.666 154.839 423.719 154.828L423.975 155.957C423.89 155.989 423.771 156.021 423.618 156.053C423.466 156.089 423.272 156.107 423.038 156.107C422.683 156.107 422.335 156.03 421.994 155.877C421.656 155.725 421.376 155.492 421.152 155.18C420.932 154.867 420.822 154.473 420.822 153.997V145.858ZM427.15 151.078V156H425.893V145.091H427.15V149.097H427.256C427.448 148.674 427.736 148.338 428.119 148.09C428.506 147.838 429.021 147.712 429.664 147.712C430.222 147.712 430.71 147.824 431.129 148.047C431.548 148.267 431.873 148.607 432.104 149.065C432.338 149.519 432.455 150.098 432.455 150.801V156H431.198V150.886C431.198 150.237 431.029 149.734 430.692 149.379C430.358 149.02 429.895 148.841 429.302 148.841C428.89 148.841 428.521 148.928 428.194 149.102C427.871 149.276 427.615 149.53 427.427 149.864C427.242 150.197 427.15 150.602 427.15 151.078ZM435.671 156.085C435.408 156.085 435.183 155.991 434.995 155.803C434.807 155.615 434.712 155.389 434.712 155.126C434.712 154.864 434.807 154.638 434.995 154.45C435.183 154.262 435.408 154.168 435.671 154.168C435.934 154.168 436.16 154.262 436.348 154.45C436.536 154.638 436.63 154.864 436.63 155.126C436.63 155.3 436.586 155.46 436.497 155.606C436.412 155.751 436.296 155.869 436.151 155.957C436.009 156.043 435.849 156.085 435.671 156.085ZM435.671 150.013C435.408 150.013 435.183 149.919 434.995 149.73C434.807 149.542 434.712 149.317 434.712 149.054C434.712 148.791 434.807 148.566 434.995 148.377C435.183 148.189 435.408 148.095 435.671 148.095C435.934 148.095 436.16 148.189 436.348 148.377C436.536 148.566 436.63 148.791 436.63 149.054C436.63 149.228 436.586 149.388 436.497 149.533C436.412 149.679 436.296 149.796 436.151 149.885C436.009 149.97 435.849 150.013 435.671 150.013ZM446.492 156.149C445.867 156.149 445.305 156.025 444.804 155.776C444.303 155.528 443.902 155.187 443.6 154.754C443.298 154.32 443.133 153.827 443.105 153.273H444.383C444.433 153.766 444.657 154.175 445.054 154.498C445.456 154.817 445.935 154.977 446.492 154.977C446.94 154.977 447.338 154.873 447.686 154.663C448.037 154.453 448.312 154.166 448.511 153.8C448.714 153.431 448.815 153.013 448.815 152.548C448.815 152.072 448.71 151.648 448.501 151.275C448.295 150.899 448.011 150.602 447.648 150.386C447.286 150.169 446.872 150.059 446.407 150.055C446.073 150.052 445.731 150.103 445.379 150.21C445.028 150.313 444.738 150.446 444.511 150.609L443.275 150.46L443.936 145.091H449.603V146.263H445.044L444.66 149.48H444.724C444.948 149.303 445.228 149.155 445.566 149.038C445.903 148.921 446.255 148.862 446.62 148.862C447.288 148.862 447.883 149.022 448.405 149.342C448.93 149.658 449.342 150.091 449.641 150.641C449.942 151.192 450.093 151.82 450.093 152.527C450.093 153.223 449.937 153.844 449.625 154.391C449.316 154.935 448.889 155.364 448.346 155.68C447.803 155.993 447.185 156.149 446.492 156.149ZM451.954 153.763V152.676L456.748 145.091H457.536V146.774H457.003L453.381 152.506V152.591H459.837V153.763H451.954ZM457.089 156V153.433V152.926V145.091H458.346V156H457.089ZM466.073 156V147.818H467.288V149.097H467.394C467.565 148.66 467.84 148.321 468.22 148.079C468.6 147.834 469.056 147.712 469.589 147.712C470.129 147.712 470.578 147.834 470.937 148.079C471.299 148.321 471.581 148.66 471.784 149.097H471.869C472.078 148.674 472.393 148.338 472.812 148.09C473.231 147.838 473.733 147.712 474.319 147.712C475.051 147.712 475.649 147.941 476.114 148.399C476.579 148.853 476.812 149.562 476.812 150.524V156H475.555V150.524C475.555 149.92 475.39 149.489 475.06 149.23C474.729 148.971 474.34 148.841 473.893 148.841C473.318 148.841 472.872 149.015 472.556 149.363C472.24 149.707 472.082 150.144 472.082 150.673V156H470.804V150.396C470.804 149.931 470.653 149.556 470.351 149.272C470.049 148.985 469.66 148.841 469.184 148.841C468.858 148.841 468.552 148.928 468.268 149.102C467.987 149.276 467.76 149.517 467.586 149.826C467.416 150.132 467.331 150.485 467.331 150.886V156H466.073ZM479.111 156V147.818H480.325V149.097H480.432C480.602 148.66 480.877 148.321 481.257 148.079C481.637 147.834 482.093 147.712 482.626 147.712C483.166 147.712 483.615 147.834 483.974 148.079C484.336 148.321 484.618 148.66 484.821 149.097H484.906C485.116 148.674 485.43 148.338 485.849 148.09C486.268 147.838 486.77 147.712 487.356 147.712C488.088 147.712 488.686 147.941 489.151 148.399C489.617 148.853 489.849 149.562 489.849 150.524V156H488.592V150.524C488.592 149.92 488.427 149.489 488.097 149.23C487.766 148.971 487.378 148.841 486.93 148.841C486.355 148.841 485.909 149.015 485.593 149.363C485.277 149.707 485.119 150.144 485.119 150.673V156H483.841V150.396C483.841 149.931 483.69 149.556 483.388 149.272C483.086 148.985 482.697 148.841 482.221 148.841C481.895 148.841 481.589 148.928 481.305 149.102C481.025 149.276 480.797 149.517 480.623 149.826C480.453 150.132 480.368 150.485 480.368 150.886V156H479.111Z" fill="black"/>
<path d="M27.5422 332V321.091H28.8632V325.949H34.68V321.091H36.001V332H34.68V327.121H28.8632V332H27.5422ZM41.9057 332.17C41.1173 332.17 40.4373 331.996 39.8655 331.648C39.2974 331.297 38.8588 330.807 38.5498 330.178C38.2445 329.546 38.0918 328.811 38.0918 327.973C38.0918 327.135 38.2445 326.396 38.5498 325.757C38.8588 325.114 39.2885 324.614 39.8389 324.255C40.3929 323.893 41.0392 323.712 41.7778 323.712C42.204 323.712 42.6248 323.783 43.0403 323.925C43.4557 324.067 43.8339 324.298 44.1748 324.617C44.5158 324.933 44.7874 325.352 44.9898 325.874C45.1922 326.396 45.2935 327.039 45.2935 327.803V328.335H38.9866V327.249H44.015C44.015 326.787 43.9227 326.375 43.7381 326.013C43.557 325.651 43.2977 325.365 42.9604 325.155C42.6266 324.946 42.2324 324.841 41.7778 324.841C41.2771 324.841 40.8439 324.965 40.4781 325.214C40.1159 325.459 39.8371 325.778 39.6418 326.173C39.4465 326.567 39.3489 326.989 39.3489 327.44V328.165C39.3489 328.783 39.4554 329.306 39.6685 329.736C39.8851 330.162 40.1851 330.487 40.5687 330.711C40.9522 330.931 41.3979 331.041 41.9057 331.041C42.2359 331.041 42.5342 330.995 42.8006 330.903C43.0704 330.807 43.303 330.665 43.4984 330.477C43.6937 330.285 43.8446 330.047 43.9511 329.763L45.1656 330.104C45.0378 330.516 44.8229 330.878 44.5211 331.19C44.2192 331.499 43.8464 331.741 43.4025 331.915C42.9586 332.085 42.4597 332.17 41.9057 332.17ZM47.2057 332V323.818H48.4628V332H47.2057ZM47.8449 322.455C47.5999 322.455 47.3886 322.371 47.2111 322.204C47.0371 322.037 46.9501 321.837 46.9501 321.602C46.9501 321.368 47.0371 321.167 47.2111 321C47.3886 320.833 47.5999 320.75 47.8449 320.75C48.09 320.75 48.2995 320.833 48.4735 321C48.6511 321.167 48.7398 321.368 48.7398 321.602C48.7398 321.837 48.6511 322.037 48.4735 322.204C48.2995 322.371 48.09 322.455 47.8449 322.455ZM54.0679 335.239C53.4606 335.239 52.9386 335.161 52.5018 335.004C52.065 334.852 51.701 334.649 51.4098 334.397C51.1222 334.148 50.8932 333.882 50.7227 333.598L51.7241 332.895C51.8378 333.044 51.9816 333.214 52.1556 333.406C52.3296 333.602 52.5675 333.77 52.8694 333.912C53.1748 334.058 53.5743 334.131 54.0679 334.131C54.7284 334.131 55.2735 333.971 55.7032 333.651C56.1329 333.332 56.3477 332.831 56.3477 332.149V330.487H56.2412C56.1488 330.636 56.0174 330.821 55.847 331.041C55.6801 331.258 55.4386 331.451 55.1226 331.622C54.8101 331.789 54.3875 331.872 53.8548 331.872C53.1943 331.872 52.6013 331.716 52.0757 331.403C51.5537 331.091 51.14 330.636 50.8346 330.04C50.5327 329.443 50.3818 328.719 50.3818 327.866C50.3818 327.028 50.5292 326.299 50.8239 325.677C51.1187 325.052 51.5288 324.569 52.0544 324.228C52.5799 323.884 53.1872 323.712 53.8761 323.712C54.4088 323.712 54.8314 323.8 55.1439 323.978C55.4599 324.152 55.7014 324.351 55.8683 324.575C56.0388 324.795 56.1701 324.976 56.2625 325.118H56.3903V323.818H57.6048V332.234C57.6048 332.938 57.445 333.509 57.1254 333.95C56.8093 334.393 56.3832 334.718 55.847 334.924C55.3143 335.134 54.7213 335.239 54.0679 335.239ZM54.0253 330.743C54.5295 330.743 54.9557 330.627 55.3037 330.397C55.6517 330.166 55.9162 329.834 56.0973 329.401C56.2785 328.967 56.369 328.449 56.369 327.845C56.369 327.256 56.2802 326.735 56.1027 326.284C55.9251 325.833 55.6623 325.48 55.3143 325.224C54.9663 324.969 54.5366 324.841 54.0253 324.841C53.4926 324.841 53.0487 324.976 52.6936 325.246C52.342 325.516 52.0775 325.878 51.8999 326.332C51.7259 326.787 51.6389 327.291 51.6389 327.845C51.6389 328.413 51.7277 328.916 51.9052 329.353C52.0863 329.786 52.3527 330.127 52.7042 330.375C53.0593 330.62 53.4997 330.743 54.0253 330.743ZM61.163 327.078V332H59.9059V321.091H61.163V325.097H61.2696C61.4613 324.674 61.749 324.338 62.1325 324.09C62.5196 323.838 63.0345 323.712 63.6772 323.712C64.2348 323.712 64.7231 323.824 65.1421 324.047C65.5611 324.267 65.8861 324.607 66.1169 325.065C66.3513 325.519 66.4684 326.098 66.4684 326.801V332H65.2113V326.886C65.2113 326.237 65.0427 325.734 64.7053 325.379C64.3715 325.02 63.9081 324.841 63.315 324.841C62.9031 324.841 62.5338 324.928 62.2071 325.102C61.8839 325.276 61.6282 325.53 61.44 325.864C61.2554 326.197 61.163 326.602 61.163 327.078ZM72.3265 323.818V324.884H68.0864V323.818H72.3265ZM69.3222 321.858H70.5793V329.656C70.5793 330.011 70.6308 330.278 70.7338 330.455C70.8403 330.629 70.9753 330.746 71.1386 330.807C71.3055 330.864 71.4813 330.892 71.666 330.892C71.8045 330.892 71.9181 330.885 72.0069 330.871C72.0957 330.853 72.1667 330.839 72.2199 330.828L72.4756 331.957C72.3904 331.989 72.2714 332.021 72.1187 332.053C71.966 332.089 71.7725 332.107 71.5381 332.107C71.183 332.107 70.835 332.03 70.4941 331.877C70.1567 331.725 69.8762 331.492 69.6525 331.18C69.4323 330.867 69.3222 330.473 69.3222 329.997V321.858ZM75.1337 332.085C74.8709 332.085 74.6454 331.991 74.4572 331.803C74.269 331.615 74.1748 331.389 74.1748 331.126C74.1748 330.864 74.269 330.638 74.4572 330.45C74.6454 330.262 74.8709 330.168 75.1337 330.168C75.3964 330.168 75.6219 330.262 75.8101 330.45C75.9984 330.638 76.0925 330.864 76.0925 331.126C76.0925 331.3 76.0481 331.46 75.9593 331.606C75.8741 331.751 75.7587 331.869 75.6131 331.957C75.471 332.043 75.3112 332.085 75.1337 332.085ZM75.1337 326.013C74.8709 326.013 74.6454 325.919 74.4572 325.73C74.269 325.542 74.1748 325.317 74.1748 325.054C74.1748 324.791 74.269 324.566 74.4572 324.377C74.6454 324.189 74.8709 324.095 75.1337 324.095C75.3964 324.095 75.6219 324.189 75.8101 324.377C75.9984 324.566 76.0925 324.791 76.0925 325.054C76.0925 325.228 76.0481 325.388 75.9593 325.533C75.8741 325.679 75.7587 325.796 75.6131 325.885C75.471 325.97 75.3112 326.013 75.1337 326.013ZM82.5458 332V331.041L86.1466 327.099C86.5692 326.638 86.9172 326.237 87.1907 325.896C87.4641 325.551 87.6665 325.228 87.7979 324.926C87.9328 324.621 88.0003 324.301 88.0003 323.967C88.0003 323.584 87.908 323.252 87.7233 322.971C87.5422 322.691 87.2936 322.474 86.9776 322.321C86.6615 322.169 86.3064 322.092 85.9122 322.092C85.4932 322.092 85.1274 322.179 84.8149 322.353C84.506 322.524 84.2663 322.763 84.0958 323.072C83.9289 323.381 83.8455 323.744 83.8455 324.159H82.5884C82.5884 323.52 82.7358 322.959 83.0305 322.476C83.3252 321.993 83.7265 321.616 84.2343 321.347C84.7457 321.077 85.3192 320.942 85.9549 320.942C86.5941 320.942 87.1605 321.077 87.6541 321.347C88.1477 321.616 88.5348 321.98 88.8153 322.439C89.0958 322.897 89.2361 323.406 89.2361 323.967C89.2361 324.369 89.1633 324.761 89.0177 325.145C88.8757 325.525 88.6271 325.949 88.272 326.418C87.9204 326.883 87.4321 327.451 86.8071 328.122L84.3568 330.743V330.828H89.4279V332H82.5458ZM95.0369 332.149C94.4119 332.149 93.849 332.025 93.3483 331.776C92.8476 331.528 92.4463 331.187 92.1445 330.754C91.8426 330.32 91.6775 329.827 91.6491 329.273H92.9275C92.9772 329.766 93.201 330.175 93.5987 330.498C94 330.817 94.4794 330.977 95.0369 330.977C95.4843 330.977 95.8821 330.873 96.2301 330.663C96.5816 330.453 96.8568 330.166 97.0557 329.8C97.2581 329.431 97.3593 329.013 97.3593 328.548C97.3593 328.072 97.2546 327.648 97.0451 327.275C96.8391 326.899 96.555 326.602 96.1928 326.386C95.8306 326.169 95.4169 326.059 94.9517 326.055C94.6179 326.052 94.2752 326.103 93.9236 326.21C93.572 326.313 93.2826 326.446 93.0554 326.609L91.8196 326.46L92.4801 321.091H98.1477V322.263H93.588L93.2045 325.48H93.2684C93.4921 325.303 93.7727 325.155 94.11 325.038C94.4474 324.921 94.799 324.862 95.1647 324.862C95.8323 324.862 96.4272 325.022 96.9492 325.342C97.4747 325.658 97.8867 326.091 98.185 326.641C98.4868 327.192 98.6377 327.82 98.6377 328.527C98.6377 329.223 98.4815 329.844 98.169 330.391C97.86 330.935 97.4339 331.364 96.8906 331.68C96.3473 331.993 95.7294 332.149 95.0369 332.149ZM101.281 332.085C101.018 332.085 100.793 331.991 100.605 331.803C100.416 331.615 100.322 331.389 100.322 331.126C100.322 330.864 100.416 330.638 100.605 330.45C100.793 330.262 101.018 330.168 101.281 330.168C101.544 330.168 101.769 330.262 101.958 330.45C102.146 330.638 102.24 330.864 102.24 331.126C102.24 331.3 102.196 331.46 102.107 331.606C102.022 331.751 101.906 331.869 101.761 331.957C101.618 332.043 101.459 332.085 101.281 332.085ZM107.75 332.149C107.047 332.149 106.42 332.028 105.87 331.787C105.323 331.545 104.888 331.21 104.565 330.78C104.245 330.347 104.071 329.844 104.043 329.273H105.385C105.414 329.624 105.534 329.928 105.748 330.184C105.961 330.436 106.239 330.631 106.584 330.77C106.928 330.908 107.31 330.977 107.729 330.977C108.198 330.977 108.613 330.896 108.976 330.732C109.338 330.569 109.622 330.342 109.828 330.05C110.034 329.759 110.137 329.422 110.137 329.038C110.137 328.637 110.037 328.284 109.838 327.978C109.64 327.669 109.348 327.428 108.965 327.254C108.581 327.08 108.113 326.993 107.559 326.993H106.685V325.821H107.559C107.992 325.821 108.372 325.743 108.699 325.587C109.029 325.43 109.286 325.21 109.471 324.926C109.659 324.642 109.753 324.308 109.753 323.925C109.753 323.555 109.672 323.234 109.508 322.961C109.345 322.687 109.114 322.474 108.816 322.321C108.521 322.169 108.173 322.092 107.772 322.092C107.395 322.092 107.04 322.162 106.706 322.3C106.376 322.435 106.106 322.632 105.897 322.891C105.687 323.147 105.574 323.456 105.556 323.818H104.277C104.299 323.246 104.471 322.746 104.794 322.316C105.117 321.883 105.54 321.545 106.062 321.304C106.587 321.062 107.164 320.942 107.793 320.942C108.468 320.942 109.047 321.078 109.53 321.352C110.012 321.622 110.384 321.979 110.643 322.423C110.902 322.866 111.032 323.346 111.032 323.861C111.032 324.475 110.87 324.999 110.547 325.432C110.227 325.865 109.792 326.165 109.242 326.332V326.418C109.931 326.531 110.469 326.824 110.856 327.297C111.243 327.765 111.436 328.346 111.436 329.038C111.436 329.631 111.275 330.164 110.952 330.636C110.632 331.105 110.195 331.474 109.641 331.744C109.087 332.014 108.457 332.149 107.75 332.149ZM117.855 332V323.818H119.07V325.097H119.176C119.347 324.66 119.622 324.321 120.002 324.079C120.382 323.834 120.838 323.712 121.371 323.712C121.911 323.712 122.36 323.834 122.718 324.079C123.081 324.321 123.363 324.66 123.565 325.097H123.651C123.86 324.674 124.174 324.338 124.593 324.09C125.012 323.838 125.515 323.712 126.101 323.712C126.832 323.712 127.431 323.941 127.896 324.399C128.361 324.853 128.594 325.562 128.594 326.524V332H127.337V326.524C127.337 325.92 127.172 325.489 126.841 325.23C126.511 324.971 126.122 324.841 125.675 324.841C125.099 324.841 124.654 325.015 124.338 325.363C124.022 325.707 123.864 326.144 123.864 326.673V332H122.585V326.396C122.585 325.931 122.434 325.556 122.133 325.272C121.831 324.985 121.442 324.841 120.966 324.841C120.639 324.841 120.334 324.928 120.05 325.102C119.769 325.276 119.542 325.517 119.368 325.826C119.197 326.132 119.112 326.485 119.112 326.886V332H117.855ZM130.892 332V323.818H132.107V325.097H132.213C132.384 324.66 132.659 324.321 133.039 324.079C133.419 323.834 133.875 323.712 134.408 323.712C134.948 323.712 135.397 323.834 135.756 324.079C136.118 324.321 136.4 324.66 136.602 325.097H136.688C136.897 324.674 137.212 324.338 137.631 324.09C138.05 323.838 138.552 323.712 139.138 323.712C139.87 323.712 140.468 323.941 140.933 324.399C141.398 324.853 141.631 325.562 141.631 326.524V332H140.374V326.524C140.374 325.92 140.209 325.489 139.878 325.23C139.548 324.971 139.159 324.841 138.712 324.841C138.137 324.841 137.691 325.015 137.375 325.363C137.059 325.707 136.901 326.144 136.901 326.673V332H135.622V326.396C135.622 325.931 135.471 325.556 135.17 325.272C134.868 324.985 134.479 324.841 134.003 324.841C133.676 324.841 133.371 324.928 133.087 325.102C132.806 325.276 132.579 325.517 132.405 325.826C132.235 326.132 132.149 326.485 132.149 326.886V332H130.892Z" fill="black"/>
<path d="M405.303 490L402.32 479.091H403.662L405.942 487.976H406.048L408.371 479.091H409.862L412.185 487.976H412.291L414.571 479.091H415.913L412.93 490H411.567L409.159 481.307H409.074L406.666 490H405.303ZM420.058 490.17C419.269 490.17 418.589 489.996 418.017 489.648C417.449 489.297 417.011 488.807 416.702 488.178C416.396 487.546 416.244 486.811 416.244 485.973C416.244 485.135 416.396 484.396 416.702 483.757C417.011 483.114 417.44 482.614 417.991 482.255C418.545 481.893 419.191 481.712 419.93 481.712C420.356 481.712 420.777 481.783 421.192 481.925C421.608 482.067 421.986 482.298 422.327 482.617C422.668 482.933 422.939 483.352 423.142 483.874C423.344 484.396 423.445 485.039 423.445 485.803V486.335H417.138V485.249H422.167C422.167 484.787 422.075 484.375 421.89 484.013C421.709 483.651 421.45 483.365 421.112 483.155C420.778 482.946 420.384 482.841 419.93 482.841C419.429 482.841 418.996 482.965 418.63 483.214C418.268 483.459 417.989 483.778 417.794 484.173C417.598 484.567 417.501 484.989 417.501 485.44V486.165C417.501 486.783 417.607 487.306 417.82 487.736C418.037 488.162 418.337 488.487 418.721 488.711C419.104 488.931 419.55 489.041 420.058 489.041C420.388 489.041 420.686 488.995 420.952 488.903C421.222 488.807 421.455 488.665 421.65 488.477C421.846 488.285 421.996 488.047 422.103 487.763L423.317 488.104C423.19 488.516 422.975 488.878 422.673 489.19C422.371 489.499 421.998 489.741 421.554 489.915C421.11 490.085 420.612 490.17 420.058 490.17ZM425.358 490V481.818H426.615V490H425.358ZM425.997 480.455C425.752 480.455 425.54 480.371 425.363 480.204C425.189 480.037 425.102 479.837 425.102 479.602C425.102 479.368 425.189 479.167 425.363 479C425.54 478.833 425.752 478.75 425.997 478.75C426.242 478.75 426.451 478.833 426.625 479C426.803 479.167 426.892 479.368 426.892 479.602C426.892 479.837 426.803 480.037 426.625 480.204C426.451 480.371 426.242 480.455 425.997 480.455ZM432.22 493.239C431.612 493.239 431.09 493.161 430.654 493.004C430.217 492.852 429.853 492.649 429.562 492.397C429.274 492.148 429.045 491.882 428.875 491.598L429.876 490.895C429.99 491.044 430.133 491.214 430.307 491.406C430.481 491.602 430.719 491.77 431.021 491.912C431.327 492.058 431.726 492.131 432.22 492.131C432.88 492.131 433.425 491.971 433.855 491.651C434.285 491.332 434.5 490.831 434.5 490.149V488.487H434.393C434.301 488.636 434.169 488.821 433.999 489.041C433.832 489.258 433.59 489.451 433.274 489.622C432.962 489.789 432.539 489.872 432.007 489.872C431.346 489.872 430.753 489.716 430.228 489.403C429.706 489.091 429.292 488.636 428.986 488.04C428.685 487.443 428.534 486.719 428.534 485.866C428.534 485.028 428.681 484.299 428.976 483.677C429.271 483.052 429.681 482.569 430.206 482.228C430.732 481.884 431.339 481.712 432.028 481.712C432.561 481.712 432.983 481.8 433.296 481.978C433.612 482.152 433.853 482.351 434.02 482.575C434.191 482.795 434.322 482.976 434.414 483.118H434.542V481.818H435.757V490.234C435.757 490.938 435.597 491.509 435.277 491.95C434.961 492.393 434.535 492.718 433.999 492.924C433.466 493.134 432.873 493.239 432.22 493.239ZM432.177 488.743C432.681 488.743 433.108 488.627 433.456 488.397C433.804 488.166 434.068 487.834 434.249 487.401C434.43 486.967 434.521 486.449 434.521 485.845C434.521 485.256 434.432 484.735 434.255 484.284C434.077 483.833 433.814 483.48 433.466 483.224C433.118 482.969 432.688 482.841 432.177 482.841C431.644 482.841 431.201 482.976 430.845 483.246C430.494 483.516 430.229 483.878 430.052 484.332C429.878 484.787 429.791 485.291 429.791 485.845C429.791 486.413 429.88 486.916 430.057 487.353C430.238 487.786 430.505 488.127 430.856 488.375C431.211 488.62 431.652 488.743 432.177 488.743ZM439.315 485.078V490H438.058V479.091H439.315V483.097H439.421C439.613 482.674 439.901 482.338 440.284 482.09C440.671 481.838 441.186 481.712 441.829 481.712C442.387 481.712 442.875 481.824 443.294 482.047C443.713 482.267 444.038 482.607 444.269 483.065C444.503 483.519 444.62 484.098 444.62 484.801V490H443.363V484.886C443.363 484.237 443.195 483.734 442.857 483.379C442.523 483.02 442.06 482.841 441.467 482.841C441.055 482.841 440.686 482.928 440.359 483.102C440.036 483.276 439.78 483.53 439.592 483.864C439.407 484.197 439.315 484.602 439.315 485.078ZM450.478 481.818V482.884H446.238V481.818H450.478ZM447.474 479.858H448.731V487.656C448.731 488.011 448.783 488.278 448.886 488.455C448.992 488.629 449.127 488.746 449.29 488.807C449.457 488.864 449.633 488.892 449.818 488.892C449.956 488.892 450.07 488.885 450.159 488.871C450.248 488.853 450.319 488.839 450.372 488.828L450.627 489.957C450.542 489.989 450.423 490.021 450.271 490.053C450.118 490.089 449.924 490.107 449.69 490.107C449.335 490.107 448.987 490.03 448.646 489.877C448.309 489.725 448.028 489.492 447.804 489.18C447.584 488.867 447.474 488.473 447.474 487.997V479.858ZM453.286 490.085C453.023 490.085 452.797 489.991 452.609 489.803C452.421 489.615 452.327 489.389 452.327 489.126C452.327 488.864 452.421 488.638 452.609 488.45C452.797 488.262 453.023 488.168 453.286 488.168C453.548 488.168 453.774 488.262 453.962 488.45C454.15 488.638 454.244 488.864 454.244 489.126C454.244 489.3 454.2 489.46 454.111 489.606C454.026 489.751 453.911 489.869 453.765 489.957C453.623 490.043 453.463 490.085 453.286 490.085ZM453.286 484.013C453.023 484.013 452.797 483.919 452.609 483.73C452.421 483.542 452.327 483.317 452.327 483.054C452.327 482.791 452.421 482.566 452.609 482.377C452.797 482.189 453.023 482.095 453.286 482.095C453.548 482.095 453.774 482.189 453.962 482.377C454.15 482.566 454.244 482.791 454.244 483.054C454.244 483.228 454.2 483.388 454.111 483.533C454.026 483.679 453.911 483.796 453.765 483.885C453.623 483.97 453.463 484.013 453.286 484.013ZM461.039 490L465.918 480.348V480.263H460.293V479.091H467.281V480.327L462.423 490H461.039ZM476.81 493.239C476.202 493.239 475.68 493.161 475.244 493.004C474.807 492.852 474.443 492.649 474.152 492.397C473.864 492.148 473.635 491.882 473.464 491.598L474.466 490.895C474.579 491.044 474.723 491.214 474.897 491.406C475.071 491.602 475.309 491.77 475.611 491.912C475.916 492.058 476.316 492.131 476.81 492.131C477.47 492.131 478.015 491.971 478.445 491.651C478.875 491.332 479.089 490.831 479.089 490.149V488.487H478.983C478.891 488.636 478.759 488.821 478.589 489.041C478.422 489.258 478.18 489.451 477.864 489.622C477.552 489.789 477.129 489.872 476.597 489.872C475.936 489.872 475.343 489.716 474.817 489.403C474.295 489.091 473.882 488.636 473.576 488.04C473.274 487.443 473.123 486.719 473.123 485.866C473.123 485.028 473.271 484.299 473.566 483.677C473.86 483.052 474.271 482.569 474.796 482.228C475.322 481.884 475.929 481.712 476.618 481.712C477.15 481.712 477.573 481.8 477.886 481.978C478.202 482.152 478.443 482.351 478.61 482.575C478.78 482.795 478.912 482.976 479.004 483.118H479.132V481.818H480.347V490.234C480.347 490.938 480.187 491.509 479.867 491.95C479.551 492.393 479.125 492.718 478.589 492.924C478.056 493.134 477.463 493.239 476.81 493.239ZM476.767 488.743C477.271 488.743 477.697 488.627 478.045 488.397C478.393 488.166 478.658 487.834 478.839 487.401C479.02 486.967 479.111 486.449 479.111 485.845C479.111 485.256 479.022 484.735 478.844 484.284C478.667 483.833 478.404 483.48 478.056 483.224C477.708 482.969 477.278 482.841 476.767 482.841C476.234 482.841 475.79 482.976 475.435 483.246C475.084 483.516 474.819 483.878 474.642 484.332C474.468 484.787 474.381 485.291 474.381 485.845C474.381 486.413 474.469 486.916 474.647 487.353C474.828 487.786 475.094 488.127 475.446 488.375C475.801 488.62 476.241 488.743 476.767 488.743Z" fill="black"/>
<path d="M641.42 387.34H549.3" stroke="#040000" stroke-width="0.3" stroke-linecap="round" stroke-linejoin="round"/>
<path d="M540.08 387.34H447.96" stroke="#040000" stroke-width="0.3" stroke-linecap="round" stroke-linejoin="round"/>
<path d="M447.96 382.279H540.08" stroke="#040000" stroke-width="0.3" stroke-linecap="round" stroke-linejoin="round"/>
<path d="M549.3 382.279H641.42" stroke="#040000" stroke-width="0.3" stroke-linecap="round" stroke-linejoin="round"/>
<path d="M447.96 371.221H540.08" stroke="#040000" stroke-width="0.7" stroke-linecap="round" stroke-linejoin="round"/>
<path d="M549.3 371.221H641.42" stroke="#040000" stroke-width="0.7" stroke-linecap="round" stroke-linejoin="round"/>
<path d="M447.96 443.081V371.221" stroke="#040000" stroke-width="0.7" stroke-linecap="round" stroke-linejoin="round"/>
<path d="M540.08 443.081V371.221" stroke="#040000" stroke-width="0.7" stroke-linecap="round" stroke-linejoin="round"/>
<path d="M549.3 443.081V371.221" stroke="#040000" stroke-width="0.7" stroke-linecap="round" stroke-linejoin="round"/>
<path d="M641.42 443.081V371.221" stroke="#040000" stroke-width="0.7" stroke-linecap="round" stroke-linejoin="round"/>
<path d="M242.75 440.311H260.94" stroke="#040000" stroke-width="0.3" stroke-linecap="round" stroke-linejoin="round"/>
<path d="M263.71 440.311H295.49" stroke="#040000" stroke-width="0.3" stroke-linecap="round" stroke-linejoin="round"/>
<path d="M298.25 440.311H316.45" stroke="#040000" stroke-width="0.3" stroke-linecap="round" stroke-linejoin="round"/>
<path d="M330.27 436.631H316.45" stroke="#040000" stroke-width="0.3" stroke-linecap="round" stroke-linejoin="round"/>
<path d="M242.75 436.631H228.93" stroke="#040000" stroke-width="0.3" stroke-linecap="round" stroke-linejoin="round"/>
<path d="M255.09 433.871H258.04" stroke="#040000" stroke-width="0.3" stroke-linecap="round" stroke-linejoin="round"/>
<path d="M266.61 433.871H269.56" stroke="#040000" stroke-width="0.3" stroke-linecap="round" stroke-linejoin="round"/>
<path d="M278.12 433.871H281.07" stroke="#040000" stroke-width="0.3" stroke-linecap="round" stroke-linejoin="round"/>
<path d="M289.64 433.871H292.59" stroke="#040000" stroke-width="0.3" stroke-linecap="round" stroke-linejoin="round"/>
<path d="M301.16 433.871H304.1" stroke="#040000" stroke-width="0.3" stroke-linecap="round" stroke-linejoin="round"/>
<path d="M242.75 431.1H251.5" stroke="#040000" stroke-width="0.3" stroke-linecap="round" stroke-linejoin="round"/>
<path d="M307.7 431.1H316.45" stroke="#040000" stroke-width="0.3" stroke-linecap="round" stroke-linejoin="round"/>
<path d="M266.61 426.961H263.71" stroke="#040000" stroke-width="0.3" stroke-linecap="round" stroke-linejoin="round"/>
<path d="M260.94 426.961H258.04" stroke="#040000" stroke-width="0.3" stroke-linecap="round" stroke-linejoin="round"/>
<path d="M292.59 426.961H295.49" stroke="#040000" stroke-width="0.3" stroke-linecap="round" stroke-linejoin="round"/>
<path d="M298.25 426.961H301.16" stroke="#040000" stroke-width="0.3" stroke-linecap="round" stroke-linejoin="round"/>
<path d="M251.5 425.57H307.7" stroke="#040000" stroke-width="0.3" stroke-linecap="round" stroke-linejoin="round"/>
<path d="M228.93 410.83H242.75" stroke="#040000" stroke-width="0.3" stroke-linecap="round" stroke-linejoin="round"/>
<path d="M316.45 410.83H330.27" stroke="#040000" stroke-width="0.3" stroke-linecap="round" stroke-linejoin="round"/>
<path d="M242.75 401.621H316.45" stroke="#040000" stroke-width="0.3" stroke-linecap="round" stroke-linejoin="round"/>
<path d="M255.09 395.17H258.04" stroke="#040000" stroke-width="0.3" stroke-linecap="round" stroke-linejoin="round"/>
<path d="M266.61 395.17H269.56" stroke="#040000" stroke-width="0.3" stroke-linecap="round" stroke-linejoin="round"/>
<path d="M278.12 395.17H281.07" stroke="#040000" stroke-width="0.3" stroke-linecap="round" stroke-linejoin="round"/>
<path d="M289.64 395.17H292.59" stroke="#040000" stroke-width="0.3" stroke-linecap="round" stroke-linejoin="round"/>
<path d="M301.16 395.17H304.1" stroke="#040000" stroke-width="0.3" stroke-linecap="round" stroke-linejoin="round"/>
<path d="M255.09 392.41H258.04" stroke="#040000" stroke-width="0.3" stroke-linecap="round" stroke-linejoin="round"/>
<path d="M266.61 392.41H269.56" stroke="#040000" stroke-width="0.3" stroke-linecap="round" stroke-linejoin="round"/>
<path d="M278.12 392.41H281.07" stroke="#040000" stroke-width="0.3" stroke-linecap="round" stroke-linejoin="round"/>
<path d="M289.64 392.41H292.59" stroke="#040000" stroke-width="0.3" stroke-linecap="round" stroke-linejoin="round"/>
<path d="M301.16 392.41H304.1" stroke="#040000" stroke-width="0.3" stroke-linecap="round" stroke-linejoin="round"/>
<path d="M310.92 438.471L313.69 440.311" stroke="#040000" stroke-width="0.3" stroke-linecap="round" stroke-linejoin="round"/>
<path d="M227.09 429.26L228.93 431.1" stroke="#040000" stroke-width="0.3" stroke-linecap="round" stroke-linejoin="round"/>
<path d="M332.11 412.68L330.27 410.83" stroke="#040000" stroke-width="0.3" stroke-linecap="round" stroke-linejoin="round"/>
<path d="M227.09 412.68V429.26" stroke="#040000" stroke-width="0.3" stroke-linecap="round" stroke-linejoin="round"/>
<path d="M228.93 410.83V436.63" stroke="#040000" stroke-width="0.3" stroke-linecap="round" stroke-linejoin="round"/>
<path d="M242.75 440.311V401.621" stroke="#040000" stroke-width="0.3" stroke-linecap="round" stroke-linejoin="round"/>
<path d="M248.28 431.1V438.47" stroke="#040000" stroke-width="0.3" stroke-linecap="round" stroke-linejoin="round"/>
<path d="M251.5 431.1V425.57" stroke="#040000" stroke-width="0.3" stroke-linecap="round" stroke-linejoin="round"/>
<path d="M255.09 433.87V425.57" stroke="#040000" stroke-width="0.3" stroke-linecap="round" stroke-linejoin="round"/>
<path d="M255.09 401.62V392.41" stroke="#040000" stroke-width="0.3" stroke-linecap="round" stroke-linejoin="round"/>
<path d="M258.04 425.57V433.87" stroke="#040000" stroke-width="0.3" stroke-linecap="round" stroke-linejoin="round"/>
<path d="M258.04 401.62V392.41" stroke="#040000" stroke-width="0.3" stroke-linecap="round" stroke-linejoin="round"/>
<path d="M260.94 440.311V426.961" stroke="#040000" stroke-width="0.3" stroke-linecap="round" stroke-linejoin="round"/>
<path d="M263.71 440.311V426.961" stroke="#040000" stroke-width="0.3" stroke-linecap="round" stroke-linejoin="round"/>
<path d="M266.61 433.87V425.57" stroke="#040000" stroke-width="0.3" stroke-linecap="round" stroke-linejoin="round"/>
<path d="M266.61 401.62V392.41" stroke="#040000" stroke-width="0.3" stroke-linecap="round" stroke-linejoin="round"/>
<path d="M269.56 425.57V433.87" stroke="#040000" stroke-width="0.3" stroke-linecap="round" stroke-linejoin="round"/>
<path d="M269.56 401.62V392.41" stroke="#040000" stroke-width="0.3" stroke-linecap="round" stroke-linejoin="round"/>
<path d="M278.12 433.87V425.57" stroke="#040000" stroke-width="0.3" stroke-linecap="round" stroke-linejoin="round"/>
<path d="M278.12 401.62V392.41" stroke="#040000" stroke-width="0.3" stroke-linecap="round" stroke-linejoin="round"/>
<path d="M281.07 425.57V433.87" stroke="#040000" stroke-width="0.3" stroke-linecap="round" stroke-linejoin="round"/>
<path d="M281.07 401.62V392.41" stroke="#040000" stroke-width="0.3" stroke-linecap="round" stroke-linejoin="round"/>
<path d="M289.64 433.87V425.57" stroke="#040000" stroke-width="0.3" stroke-linecap="round" stroke-linejoin="round"/>
<path d="M289.64 401.62V392.41" stroke="#040000" stroke-width="0.3" stroke-linecap="round" stroke-linejoin="round"/>
<path d="M292.59 425.57V433.87" stroke="#040000" stroke-width="0.3" stroke-linecap="round" stroke-linejoin="round"/>
<path d="M292.59 401.62V392.41" stroke="#040000" stroke-width="0.3" stroke-linecap="round" stroke-linejoin="round"/>
<path d="M295.49 426.961V440.311" stroke="#040000" stroke-width="0.3" stroke-linecap="round" stroke-linejoin="round"/>
<path d="M298.25 440.311V426.961" stroke="#040000" stroke-width="0.3" stroke-linecap="round" stroke-linejoin="round"/>
<path d="M301.16 433.87V425.57" stroke="#040000" stroke-width="0.3" stroke-linecap="round" stroke-linejoin="round"/>
<path d="M301.16 401.62V392.41" stroke="#040000" stroke-width="0.3" stroke-linecap="round" stroke-linejoin="round"/>
<path d="M304.1 425.57V433.87" stroke="#040000" stroke-width="0.3" stroke-linecap="round" stroke-linejoin="round"/>
<path d="M304.1 401.62V392.41" stroke="#040000" stroke-width="0.3" stroke-linecap="round" stroke-linejoin="round"/>
<path d="M307.7 425.57V431.1" stroke="#040000" stroke-width="0.3" stroke-linecap="round" stroke-linejoin="round"/>
<path d="M310.92 431.1V438.47" stroke="#040000" stroke-width="0.3" stroke-linecap="round" stroke-linejoin="round"/>
<path d="M316.45 440.311V401.621" stroke="#040000" stroke-width="0.3" stroke-linecap="round" stroke-linejoin="round"/>
<path d="M330.27 410.83V436.63" stroke="#040000" stroke-width="0.3" stroke-linecap="round" stroke-linejoin="round"/>
<path d="M332.11 412.68V429.26" stroke="#040000" stroke-width="0.3" stroke-linecap="round" stroke-linejoin="round"/>
<path d="M228.93 410.83L227.09 412.68" stroke="#040000" stroke-width="0.3" stroke-linecap="round" stroke-linejoin="round"/>
<path d="M330.27 431.1L332.11 429.26" stroke="#040000" stroke-width="0.3" stroke-linecap="round" stroke-linejoin="round"/>
<path d="M245.51 440.311L248.28 438.471" stroke="#040000" stroke-width="0.3" stroke-linecap="round" stroke-linejoin="round"/>
<path d="M216.03 443.08H667.45" stroke="#040000" stroke-linecap="round" stroke-linejoin="round"/>
<path d="M667.45 210H216.03" stroke="#040000" stroke-linecap="round" stroke-linejoin="round"/>
<path d="M193 233.029V420.049" stroke="#040000" stroke-linecap="round" stroke-linejoin="round"/>
<path d="M690.48 420.049V233.029" stroke="#040000" stroke-linecap="round" stroke-linejoin="round"/>
<path d="M193 420.051C193 432.771 203.31 443.081 216.03 443.081" stroke="#040000" stroke-linecap="round" stroke-linejoin="round"/>
<path d="M216.03 210C203.31 210 193 220.31 193 233.03" stroke="#040000" stroke-linecap="round" stroke-linejoin="round"/>
<path d="M667.45 443.081C680.17 443.081 690.48 432.771 690.48 420.051" stroke="#040000" stroke-linecap="round" stroke-linejoin="round"/>
<path d="M690.48 233.03C690.48 220.31 680.17 210 667.45 210" stroke="#040000" stroke-linecap="round" stroke-linejoin="round"/>
<path d="M216.03 425.58C219.084 425.58 221.56 423.104 221.56 420.05C221.56 416.995 219.084 414.52 216.03 414.52C212.976 414.52 210.5 416.995 210.5 420.05C210.5 423.104 212.976 425.58 216.03 425.58Z" stroke="#040000" stroke-width="0.3" stroke-linecap="round" stroke-linejoin="round"/>
<path d="M216.03 243.16C221.625 243.16 226.16 238.625 226.16 233.03C226.16 227.436 221.625 222.9 216.03 222.9C210.435 222.9 205.9 227.436 205.9 233.03C205.9 238.625 210.435 243.16 216.03 243.16Z" stroke="#040000" stroke-width="0.3" stroke-linecap="round" stroke-linejoin="round"/>
<path d="M667.45 430.18C673.045 430.18 677.58 425.645 677.58 420.05C677.58 414.455 673.045 409.92 667.45 409.92C661.855 409.92 657.32 414.455 657.32 420.05C657.32 425.645 661.855 430.18 667.45 430.18Z" stroke="#040000" stroke-width="0.3" stroke-linecap="round" stroke-linejoin="round"/>
<path d="M667.45 238.56C670.504 238.56 672.98 236.084 672.98 233.03C672.98 229.976 670.504 227.5 667.45 227.5C664.396 227.5 661.92 229.976 661.92 233.03C661.92 236.084 664.396 238.56 667.45 238.56Z" stroke="#040000" stroke-width="0.3" stroke-linecap="round" stroke-linejoin="round"/>
<path d="M242.75 440.311H260.94" stroke="#040000" stroke-width="0.7" stroke-linecap="round" stroke-linejoin="round"/>
<path d="M263.71 440.311H295.49" stroke="#040000" stroke-width="0.7" stroke-linecap="round" stroke-linejoin="round"/>
<path d="M298.25 440.311H316.45" stroke="#040000" stroke-width="0.7" stroke-linecap="round" stroke-linejoin="round"/>
<path d="M330.27 436.631H316.45" stroke="#040000" stroke-width="0.7" stroke-linecap="round" stroke-linejoin="round"/>
<path d="M242.75 436.631H228.93" stroke="#040000" stroke-width="0.7" stroke-linecap="round" stroke-linejoin="round"/>
<path d="M266.61 426.961H263.71" stroke="#040000" stroke-width="0.7" stroke-linecap="round" stroke-linejoin="round"/>
<path d="M260.94 426.961H258.04" stroke="#040000" stroke-width="0.7" stroke-linecap="round" stroke-linejoin="round"/>
<path d="M292.59 426.961H295.49" stroke="#040000" stroke-width="0.7" stroke-linecap="round" stroke-linejoin="round"/>
<path d="M298.25 426.961H301.16" stroke="#040000" stroke-width="0.7" stroke-linecap="round" stroke-linejoin="round"/>
<path d="M292.59 425.57H301.15" stroke="#040000" stroke-width="0.7" stroke-linecap="round" stroke-linejoin="round"/>
<path d="M258.04 425.57H266.61" stroke="#040000" stroke-width="0.7" stroke-linecap="round" stroke-linejoin="round"/>
<path d="M228.93 410.83H242.75" stroke="#040000" stroke-width="0.7" stroke-linecap="round" stroke-linejoin="round"/>
<path d="M316.45 410.83H330.27" stroke="#040000" stroke-width="0.7" stroke-linecap="round" stroke-linejoin="round"/>
<path d="M304.11 401.621H316.45" stroke="#040000" stroke-width="0.7" stroke-linecap="round" stroke-linejoin="round"/>
<path d="M292.59 401.621H301.15" stroke="#040000" stroke-width="0.7" stroke-linecap="round" stroke-linejoin="round"/>
<path d="M281.07 401.621H289.64" stroke="#040000" stroke-width="0.7" stroke-linecap="round" stroke-linejoin="round"/>
<path d="M269.55 401.621H278.13" stroke="#040000" stroke-width="0.7" stroke-linecap="round" stroke-linejoin="round"/>
<path d="M258.04 401.621H266.61" stroke="#040000" stroke-width="0.7" stroke-linecap="round" stroke-linejoin="round"/>
<path d="M242.75 401.621H255.09" stroke="#040000" stroke-width="0.7" stroke-linecap="round" stroke-linejoin="round"/>
<path d="M255.09 392.41H258.04" stroke="#040000" stroke-width="0.7" stroke-linecap="round" stroke-linejoin="round"/>
<path d="M266.61 392.41H269.56" stroke="#040000" stroke-width="0.7" stroke-linecap="round" stroke-linejoin="round"/>
<path d="M278.12 392.41H281.07" stroke="#040000" stroke-width="0.7" stroke-linecap="round" stroke-linejoin="round"/>
<path d="M289.64 392.41H292.59" stroke="#040000" stroke-width="0.7" stroke-linecap="round" stroke-linejoin="round"/>
<path d="M301.16 392.41H304.1" stroke="#040000" stroke-width="0.7" stroke-linecap="round" stroke-linejoin="round"/>
<path d="M227.09 429.26L228.93 431.1" stroke="#040000" stroke-width="0.7" stroke-linecap="round" stroke-linejoin="round"/>
<path d="M332.11 412.68L330.27 410.83" stroke="#040000" stroke-width="0.7" stroke-linecap="round" stroke-linejoin="round"/>
<path d="M227.09 412.68V429.26" stroke="#040000" stroke-width="0.7" stroke-linecap="round" stroke-linejoin="round"/>
<path d="M228.93 431.109V436.629" stroke="#040000" stroke-width="0.7" stroke-linecap="round" stroke-linejoin="round"/>
<path d="M242.75 410.831V401.621" stroke="#040000" stroke-width="0.7" stroke-linecap="round" stroke-linejoin="round"/>
<path d="M242.75 440.311V436.631" stroke="#040000" stroke-width="0.7" stroke-linecap="round" stroke-linejoin="round"/>
<path d="M255.09 401.62V392.41" stroke="#040000" stroke-width="0.7" stroke-linecap="round" stroke-linejoin="round"/>
<path d="M258.04 425.57V426.96" stroke="#040000" stroke-width="0.7" stroke-linecap="round" stroke-linejoin="round"/>
<path d="M258.04 401.62V392.41" stroke="#040000" stroke-width="0.7" stroke-linecap="round" stroke-linejoin="round"/>
<path d="M260.94 440.311V426.961" stroke="#040000" stroke-width="0.7" stroke-linecap="round" stroke-linejoin="round"/>
<path d="M263.71 440.311V426.961" stroke="#040000" stroke-width="0.7" stroke-linecap="round" stroke-linejoin="round"/>
<path d="M266.61 426.96V425.57" stroke="#040000" stroke-width="0.7" stroke-linecap="round" stroke-linejoin="round"/>
<path d="M266.61 401.62V392.41" stroke="#040000" stroke-width="0.7" stroke-linecap="round" stroke-linejoin="round"/>
<path d="M269.56 401.62V392.41" stroke="#040000" stroke-width="0.7" stroke-linecap="round" stroke-linejoin="round"/>
<path d="M278.12 401.62V392.41" stroke="#040000" stroke-width="0.7" stroke-linecap="round" stroke-linejoin="round"/>
<path d="M281.07 401.62V392.41" stroke="#040000" stroke-width="0.7" stroke-linecap="round" stroke-linejoin="round"/>
<path d="M289.64 401.62V392.41" stroke="#040000" stroke-width="0.7" stroke-linecap="round" stroke-linejoin="round"/>
<path d="M292.59 425.57V426.95" stroke="#040000" stroke-width="0.7" stroke-linecap="round" stroke-linejoin="round"/>
<path d="M292.59 401.62V392.41" stroke="#040000" stroke-width="0.7" stroke-linecap="round" stroke-linejoin="round"/>
<path d="M295.49 426.961V440.311" stroke="#040000" stroke-width="0.7" stroke-linecap="round" stroke-linejoin="round"/>
<path d="M298.25 440.311V426.961" stroke="#040000" stroke-width="0.7" stroke-linecap="round" stroke-linejoin="round"/>
<path d="M301.16 426.96V425.57" stroke="#040000" stroke-width="0.7" stroke-linecap="round" stroke-linejoin="round"/>
<path d="M301.16 401.62V392.41" stroke="#040000" stroke-width="0.7" stroke-linecap="round" stroke-linejoin="round"/>
<path d="M304.1 401.62V392.41" stroke="#040000" stroke-width="0.7" stroke-linecap="round" stroke-linejoin="round"/>
<path d="M316.45 410.831V401.621" stroke="#040000" stroke-width="0.7" stroke-linecap="round" stroke-linejoin="round"/>
<path d="M316.45 440.311V436.641" stroke="#040000" stroke-width="0.7" stroke-linecap="round" stroke-linejoin="round"/>
<path d="M330.27 431.109V436.629" stroke="#040000" stroke-width="0.7" stroke-linecap="round" stroke-linejoin="round"/>
<path d="M332.11 412.68V429.26" stroke="#040000" stroke-width="0.7" stroke-linecap="round" stroke-linejoin="round"/>
<path d="M228.93 410.83L227.09 412.68" stroke="#040000" stroke-width="0.7" stroke-linecap="round" stroke-linejoin="round"/>
<path d="M330.27 431.1L332.11 429.26" stroke="#040000" stroke-width="0.7" stroke-linecap="round" stroke-linejoin="round"/>
<path d="M598.35 363.531H393.83" stroke="#898989" stroke-width="0.25" stroke-linecap="round" stroke-linejoin="round" stroke-dasharray="5.49 5.49"/>
<path d="M393.83 226.262H578.94" stroke="#898989" stroke-width="0.25" stroke-linecap="round" stroke-linejoin="round" stroke-dasharray="5.49 5.49"/>
<path d="M582.2 227.611L606.22 251.631" stroke="#898989" stroke-width="0.25" stroke-linecap="round" stroke-linejoin="round" stroke-dasharray="5.49 5.49"/>
<path d="M393.83 241.922V256.062" stroke="#898989" stroke-width="0.25" stroke-linecap="round" stroke-linejoin="round" stroke-dasharray="5.49 5.49"/>
<path d="M393.83 336.301V348.791" stroke="#898989" stroke-width="0.25" stroke-linecap="round" stroke-linejoin="round" stroke-dasharray="5.49 5.49"/>
<path d="M393.83 312.902V326.262" stroke="#898989" stroke-width="0.25" stroke-linecap="round" stroke-linejoin="round" stroke-dasharray="5.49 5.49"/>
<path d="M393.83 289.502V302.862" stroke="#898989" stroke-width="0.25" stroke-linecap="round" stroke-linejoin="round" stroke-dasharray="5.49 5.49"/>
<path d="M393.83 266.102V279.462" stroke="#898989" stroke-width="0.25" stroke-linecap="round" stroke-linejoin="round" stroke-dasharray="5.49 5.49"/>
<path d="M607.57 254.881V354.321" stroke="#898989" stroke-width="0.25" stroke-linecap="round" stroke-linejoin="round" stroke-dasharray="5.49 5.49"/>
<path d="M598.35 363.532C603.44 363.532 607.56 359.412 607.56 354.322" stroke="#898989" stroke-width="0.25" stroke-linecap="round" stroke-linejoin="round" stroke-dasharray="5.49 5.49"/>
<path d="M607.57 254.881C607.57 253.661 607.08 252.491 606.22 251.621" stroke="#898989" stroke-width="0.25" stroke-linecap="round" stroke-linejoin="round" stroke-dasharray="5.49 5.49"/>
<path d="M582.2 227.612C581.34 226.752 580.16 226.262 578.94 226.262" stroke="#898989" stroke-width="0.25" stroke-linecap="round" stroke-linejoin="round" stroke-dasharray="5.49 5.49"/>
<path d="M366.66 371.311H279.6" stroke="#040000" stroke-width="0.3" stroke-linecap="round" stroke-linejoin="round"/>
<path d="M243.67 370.99H279.6" stroke="#040000" stroke-width="0.3" stroke-linecap="round" stroke-linejoin="round"/>
<path d="M392.91 369.611H366.66" stroke="#040000" stroke-width="0.3" stroke-linecap="round" stroke-linejoin="round"/>
<path d="M369.41 369.012H372.65" stroke="#040000" stroke-width="0.3" stroke-linecap="round" stroke-linejoin="round"/>
<path d="M276.83 368.461H273.61" stroke="#040000" stroke-width="0.3" stroke-linecap="round" stroke-linejoin="round"/>
<path d="M367.15 367.771H368.93" stroke="#040000" stroke-width="0.3" stroke-linecap="round" stroke-linejoin="round"/>
<path d="M254.72 365.371H273.61" stroke="#040000" stroke-width="0.3" stroke-linecap="round" stroke-linejoin="round"/>
<path d="M372.65 365.371H389.23" stroke="#040000" stroke-width="0.3" stroke-linecap="round" stroke-linejoin="round"/>
<path d="M393.83 348.791H387.75" stroke="#040000" stroke-width="0.3" stroke-linecap="round" stroke-linejoin="round"/>
<path d="M269.19 348.791H243.67" stroke="#040000" stroke-width="0.3" stroke-linecap="round" stroke-linejoin="round"/>
<path d="M380.75 339.58H372.65" stroke="#040000" stroke-width="0.3" stroke-linecap="round" stroke-linejoin="round"/>
<path d="M280.98 339.58H278.59" stroke="#040000" stroke-width="0.3" stroke-linecap="round" stroke-linejoin="round"/>
<path d="M280.98 337.73H279.51" stroke="#040000" stroke-width="0.3" stroke-linecap="round" stroke-linejoin="round"/>
<path d="M372.65 337.73H380.02" stroke="#040000" stroke-width="0.3" stroke-linecap="round" stroke-linejoin="round"/>
<path d="M390.61 334.051H387.75" stroke="#040000" stroke-width="0.3" stroke-linecap="round" stroke-linejoin="round"/>
<path d="M269 334.051H271.49" stroke="#040000" stroke-width="0.3" stroke-linecap="round" stroke-linejoin="round"/>
<path d="M291.42 334.051H300.94" stroke="#040000" stroke-width="0.3" stroke-linecap="round" stroke-linejoin="round"/>
<path d="M356.83 334.051H366.35" stroke="#040000" stroke-width="0.3" stroke-linecap="round" stroke-linejoin="round"/>
<path d="M390.61 328.521H387.75" stroke="#040000" stroke-width="0.3" stroke-linecap="round" stroke-linejoin="round"/>
<path d="M366.4 328.521H356.78" stroke="#040000" stroke-width="0.3" stroke-linecap="round" stroke-linejoin="round"/>
<path d="M300.99 328.521H291.37" stroke="#040000" stroke-width="0.3" stroke-linecap="round" stroke-linejoin="round"/>
<path d="M271.49 328.521H269" stroke="#040000" stroke-width="0.3" stroke-linecap="round" stroke-linejoin="round"/>
<path d="M372.65 334.301L380.12 334.871" stroke="#040000" stroke-width="0.3" stroke-linecap="round" stroke-linejoin="round"/>
<path d="M380.12 327.701L372.65 328.271" stroke="#040000" stroke-width="0.3" stroke-linecap="round" stroke-linejoin="round"/>
<path d="M380.12 304.301L372.65 304.871" stroke="#040000" stroke-width="0.3" stroke-linecap="round" stroke-linejoin="round"/>
<path d="M280.98 324.842H279.51" stroke="#040000" stroke-width="0.3" stroke-linecap="round" stroke-linejoin="round"/>
<path d="M372.65 324.842H380.02" stroke="#040000" stroke-width="0.3" stroke-linecap="round" stroke-linejoin="round"/>
<path d="M278.59 322.99H280.98" stroke="#040000" stroke-width="0.3" stroke-linecap="round" stroke-linejoin="round"/>
<path d="M372.65 322.99H380.75" stroke="#040000" stroke-width="0.3" stroke-linecap="round" stroke-linejoin="round"/>
<path d="M380.75 316.182H372.65" stroke="#040000" stroke-width="0.3" stroke-linecap="round" stroke-linejoin="round"/>
<path d="M280.98 316.182H278.59" stroke="#040000" stroke-width="0.3" stroke-linecap="round" stroke-linejoin="round"/>
<path d="M280.98 314.33H279.51" stroke="#040000" stroke-width="0.3" stroke-linecap="round" stroke-linejoin="round"/>
<path d="M372.65 314.33H380.02" stroke="#040000" stroke-width="0.3" stroke-linecap="round" stroke-linejoin="round"/>
<path d="M390.61 310.65H387.75" stroke="#040000" stroke-width="0.3" stroke-linecap="round" stroke-linejoin="round"/>
<path d="M269 310.65H271.49" stroke="#040000" stroke-width="0.3" stroke-linecap="round" stroke-linejoin="round"/>
<path d="M291.42 310.65H300.94" stroke="#040000" stroke-width="0.3" stroke-linecap="round" stroke-linejoin="round"/>
<path d="M356.83 310.65H366.35" stroke="#040000" stroke-width="0.3" stroke-linecap="round" stroke-linejoin="round"/>
<path d="M390.61 305.121H387.75" stroke="#040000" stroke-width="0.3" stroke-linecap="round" stroke-linejoin="round"/>
<path d="M366.4 305.121H356.78" stroke="#040000" stroke-width="0.3" stroke-linecap="round" stroke-linejoin="round"/>
<path d="M300.99 305.121H291.37" stroke="#040000" stroke-width="0.3" stroke-linecap="round" stroke-linejoin="round"/>
<path d="M271.49 305.121H269" stroke="#040000" stroke-width="0.3" stroke-linecap="round" stroke-linejoin="round"/>
<path d="M280.98 301.441H279.51" stroke="#040000" stroke-width="0.3" stroke-linecap="round" stroke-linejoin="round"/>
<path d="M372.65 301.441H380.02" stroke="#040000" stroke-width="0.3" stroke-linecap="round" stroke-linejoin="round"/>
<path d="M278.59 299.592H280.98" stroke="#040000" stroke-width="0.3" stroke-linecap="round" stroke-linejoin="round"/>
<path d="M372.65 299.592H380.75" stroke="#040000" stroke-width="0.3" stroke-linecap="round" stroke-linejoin="round"/>
<path d="M380.75 292.781H372.65" stroke="#040000" stroke-width="0.3" stroke-linecap="round" stroke-linejoin="round"/>
<path d="M280.98 292.781H278.59" stroke="#040000" stroke-width="0.3" stroke-linecap="round" stroke-linejoin="round"/>
<path d="M280.98 290.932H279.51" stroke="#040000" stroke-width="0.3" stroke-linecap="round" stroke-linejoin="round"/>
<path d="M372.65 290.932H380.02" stroke="#040000" stroke-width="0.3" stroke-linecap="round" stroke-linejoin="round"/>
<path d="M390.61 287.25H387.75" stroke="#040000" stroke-width="0.3" stroke-linecap="round" stroke-linejoin="round"/>
<path d="M269 287.25H271.49" stroke="#040000" stroke-width="0.3" stroke-linecap="round" stroke-linejoin="round"/>
<path d="M291.42 287.25H300.94" stroke="#040000" stroke-width="0.3" stroke-linecap="round" stroke-linejoin="round"/>
<path d="M356.83 287.25H366.35" stroke="#040000" stroke-width="0.3" stroke-linecap="round" stroke-linejoin="round"/>
<path d="M390.61 281.721H387.75" stroke="#040000" stroke-width="0.3" stroke-linecap="round" stroke-linejoin="round"/>
<path d="M366.4 281.721H356.78" stroke="#040000" stroke-width="0.3" stroke-linecap="round" stroke-linejoin="round"/>
<path d="M300.99 281.721H291.37" stroke="#040000" stroke-width="0.3" stroke-linecap="round" stroke-linejoin="round"/>
<path d="M271.49 281.721H269" stroke="#040000" stroke-width="0.3" stroke-linecap="round" stroke-linejoin="round"/>
<path d="M372.65 310.9L380.12 311.47" stroke="#040000" stroke-width="0.3" stroke-linecap="round" stroke-linejoin="round"/>
<path d="M372.65 287.5L380.12 288.07" stroke="#040000" stroke-width="0.3" stroke-linecap="round" stroke-linejoin="round"/>
<path d="M380.12 280.9L372.65 281.47" stroke="#040000" stroke-width="0.3" stroke-linecap="round" stroke-linejoin="round"/>
<path d="M280.98 278.041H279.51" stroke="#040000" stroke-width="0.3" stroke-linecap="round" stroke-linejoin="round"/>
<path d="M372.65 278.041H380.02" stroke="#040000" stroke-width="0.3" stroke-linecap="round" stroke-linejoin="round"/>
<path d="M278.59 276.191H280.98" stroke="#040000" stroke-width="0.3" stroke-linecap="round" stroke-linejoin="round"/>
<path d="M372.65 276.191H380.75" stroke="#040000" stroke-width="0.3" stroke-linecap="round" stroke-linejoin="round"/>
<path d="M380.75 269.381H372.65" stroke="#040000" stroke-width="0.3" stroke-linecap="round" stroke-linejoin="round"/>
<path d="M280.98 269.381H278.59" stroke="#040000" stroke-width="0.3" stroke-linecap="round" stroke-linejoin="round"/>
<path d="M279.51 267.531H280.98" stroke="#040000" stroke-width="0.3" stroke-linecap="round" stroke-linejoin="round"/>
<path d="M372.65 267.531H380.02" stroke="#040000" stroke-width="0.3" stroke-linecap="round" stroke-linejoin="round"/>
<path d="M380.02 254.641H372.65" stroke="#040000" stroke-width="0.3" stroke-linecap="round" stroke-linejoin="round"/>
<path d="M280.98 254.641H279.51" stroke="#040000" stroke-width="0.3" stroke-linecap="round" stroke-linejoin="round"/>
<path d="M278.59 252.791H280.98" stroke="#040000" stroke-width="0.3" stroke-linecap="round" stroke-linejoin="round"/>
<path d="M372.65 252.791H380.75" stroke="#040000" stroke-width="0.3" stroke-linecap="round" stroke-linejoin="round"/>
<path d="M243.67 241.922H269.19" stroke="#040000" stroke-width="0.3" stroke-linecap="round" stroke-linejoin="round"/>
<path d="M387.75 241.922H393.83" stroke="#040000" stroke-width="0.3" stroke-linecap="round" stroke-linejoin="round"/>
<path d="M276.13 237.58L278.46 239.63" stroke="#040000" stroke-width="0.3" stroke-linecap="round" stroke-linejoin="round"/>
<path d="M254.72 225.342H273.61" stroke="#040000" stroke-width="0.3" stroke-linecap="round" stroke-linejoin="round"/>
<path d="M372.65 225.342H389.23" stroke="#040000" stroke-width="0.3" stroke-linecap="round" stroke-linejoin="round"/>
<path d="M273.61 222.07H276.83" stroke="#040000" stroke-width="0.3" stroke-linecap="round" stroke-linejoin="round"/>
<path d="M372.65 221.521H369.42" stroke="#040000" stroke-width="0.3" stroke-linecap="round" stroke-linejoin="round"/>
<path d="M366.66 221.102H392.91" stroke="#040000" stroke-width="0.3" stroke-linecap="round" stroke-linejoin="round"/>
<path d="M243.67 219.721H279.6" stroke="#040000" stroke-width="0.3" stroke-linecap="round" stroke-linejoin="round"/>
<path d="M279.6 219.211H366.66" stroke="#040000" stroke-width="0.3" stroke-linecap="round" stroke-linejoin="round"/>
<path d="M392.91 221.102L393.83 222.022" stroke="#040000" stroke-width="0.3" stroke-linecap="round" stroke-linejoin="round"/>
<path d="M243.67 219.721V241.921" stroke="#040000" stroke-width="0.3" stroke-linecap="round" stroke-linejoin="round"/>
<path d="M243.67 348.791V370.991" stroke="#040000" stroke-width="0.3" stroke-linecap="round" stroke-linejoin="round"/>
<path d="M249.2 359.841V348.791" stroke="#040000" stroke-width="0.3" stroke-linecap="round" stroke-linejoin="round"/>
<path d="M249.2 241.921V230.871" stroke="#040000" stroke-width="0.3" stroke-linecap="round" stroke-linejoin="round"/>
<path d="M267.62 332.67V329.9" stroke="#040000" stroke-width="0.3" stroke-linecap="round" stroke-linejoin="round"/>
<path d="M267.62 309.27V306.5" stroke="#040000" stroke-width="0.3" stroke-linecap="round" stroke-linejoin="round"/>
<path d="M267.62 285.872V283.102" stroke="#040000" stroke-width="0.3" stroke-linecap="round" stroke-linejoin="round"/>
<path d="M271.49 346.481V244.221" stroke="#040000" stroke-width="0.3" stroke-linecap="round" stroke-linejoin="round"/>
<path d="M273.61 368.46V358.49" stroke="#040000" stroke-width="0.3" stroke-linecap="round" stroke-linejoin="round"/>
<path d="M273.61 232.04V222.07" stroke="#040000" stroke-width="0.3" stroke-linecap="round" stroke-linejoin="round"/>
<path d="M276.74 337.732V324.842" stroke="#040000" stroke-width="0.3" stroke-linecap="round" stroke-linejoin="round"/>
<path d="M276.74 314.331V301.441" stroke="#040000" stroke-width="0.3" stroke-linecap="round" stroke-linejoin="round"/>
<path d="M276.74 290.931V278.041" stroke="#040000" stroke-width="0.3" stroke-linecap="round" stroke-linejoin="round"/>
<path d="M276.74 267.531V254.641" stroke="#040000" stroke-width="0.3" stroke-linecap="round" stroke-linejoin="round"/>
<path d="M278.12 256.021V266.151" stroke="#040000" stroke-width="0.3" stroke-linecap="round" stroke-linejoin="round"/>
<path d="M278.12 279.422V289.552" stroke="#040000" stroke-width="0.3" stroke-linecap="round" stroke-linejoin="round"/>
<path d="M278.12 302.82V312.95" stroke="#040000" stroke-width="0.3" stroke-linecap="round" stroke-linejoin="round"/>
<path d="M278.12 326.221V336.351" stroke="#040000" stroke-width="0.3" stroke-linecap="round" stroke-linejoin="round"/>
<path d="M279.6 371.311V368.461" stroke="#040000" stroke-width="0.3" stroke-linecap="round" stroke-linejoin="round"/>
<path d="M279.6 222.071V219.211" stroke="#040000" stroke-width="0.3" stroke-linecap="round" stroke-linejoin="round"/>
<path d="M280.98 245.172V345.352" stroke="#040000" stroke-width="0.3" stroke-linecap="round" stroke-linejoin="round"/>
<path d="M305.48 353.301V237.221" stroke="#040000" stroke-width="0.3" stroke-linecap="round" stroke-linejoin="round"/>
<path d="M313.23 237.221V353.301" stroke="#040000" stroke-width="0.3" stroke-linecap="round" stroke-linejoin="round"/>
<path d="M343.71 353.301V237.221" stroke="#040000" stroke-width="0.3" stroke-linecap="round" stroke-linejoin="round"/>
<path d="M351.46 237.221V353.301" stroke="#040000" stroke-width="0.3" stroke-linecap="round" stroke-linejoin="round"/>
<path d="M366.66 371.312V369.012" stroke="#040000" stroke-width="0.3" stroke-linecap="round" stroke-linejoin="round"/>
<path d="M366.66 221.521V219.211" stroke="#040000" stroke-width="0.3" stroke-linecap="round" stroke-linejoin="round"/>
<path d="M372.65 369.011V221.521" stroke="#040000" stroke-width="0.3" stroke-linecap="round" stroke-linejoin="round"/>
<path d="M380.06 257.441V264.731" stroke="#040000" stroke-width="0.3" stroke-linecap="round" stroke-linejoin="round"/>
<path d="M381.4 279.422V279.522" stroke="#040000" stroke-width="0.3" stroke-linecap="round" stroke-linejoin="round"/>
<path d="M381.4 302.82V302.92" stroke="#040000" stroke-width="0.3" stroke-linecap="round" stroke-linejoin="round"/>
<path d="M381.4 326.221V326.321" stroke="#040000" stroke-width="0.3" stroke-linecap="round" stroke-linejoin="round"/>
<path d="M381.4 336.35V336.25" stroke="#040000" stroke-width="0.3" stroke-linecap="round" stroke-linejoin="round"/>
<path d="M381.4 312.952V312.852" stroke="#040000" stroke-width="0.3" stroke-linecap="round" stroke-linejoin="round"/>
<path d="M381.4 289.551V289.451" stroke="#040000" stroke-width="0.3" stroke-linecap="round" stroke-linejoin="round"/>
<path d="M382.6 254.641V267.531" stroke="#040000" stroke-width="0.3" stroke-linecap="round" stroke-linejoin="round"/>
<path d="M382.6 278.041V290.931" stroke="#040000" stroke-width="0.3" stroke-linecap="round" stroke-linejoin="round"/>
<path d="M382.6 301.441V314.331" stroke="#040000" stroke-width="0.3" stroke-linecap="round" stroke-linejoin="round"/>
<path d="M382.6 324.842V337.732" stroke="#040000" stroke-width="0.3" stroke-linecap="round" stroke-linejoin="round"/>
<path d="M387.75 241.922V348.792" stroke="#040000" stroke-width="0.3" stroke-linecap="round" stroke-linejoin="round"/>
<path d="M389.23 225.342V241.922" stroke="#040000" stroke-width="0.3" stroke-linecap="round" stroke-linejoin="round"/>
<path d="M389.23 348.791V365.371" stroke="#040000" stroke-width="0.3" stroke-linecap="round" stroke-linejoin="round"/>
<path d="M391.99 283.102V285.872" stroke="#040000" stroke-width="0.3" stroke-linecap="round" stroke-linejoin="round"/>
<path d="M391.99 306.5V309.27" stroke="#040000" stroke-width="0.3" stroke-linecap="round" stroke-linejoin="round"/>
<path d="M391.99 329.9V332.67" stroke="#040000" stroke-width="0.3" stroke-linecap="round" stroke-linejoin="round"/>
<path d="M393.83 368.691V348.791" stroke="#040000" stroke-width="0.3" stroke-linecap="round" stroke-linejoin="round"/>
<path d="M393.83 241.921V222.021" stroke="#040000" stroke-width="0.3" stroke-linecap="round" stroke-linejoin="round"/>
<path d="M278.46 350.9L276.13 352.94" stroke="#040000" stroke-width="0.3" stroke-linecap="round" stroke-linejoin="round"/>
<path d="M393.83 368.691L392.91 369.611" stroke="#040000" stroke-width="0.3" stroke-linecap="round" stroke-linejoin="round"/>
<path d="M278.46 350.902C280.06 349.502 280.98 347.482 280.98 345.352" stroke="#040000" stroke-width="0.3" stroke-linecap="round" stroke-linejoin="round"/>
<path d="M276.13 352.941C274.53 354.341 273.61 356.361 273.61 358.491" stroke="#040000" stroke-width="0.3" stroke-linecap="round" stroke-linejoin="round"/>
<path d="M296.18 336.771C299.234 336.771 301.71 334.295 301.71 331.241C301.71 328.187 299.234 325.711 296.18 325.711C293.126 325.711 290.65 328.187 290.65 331.241C290.65 334.295 293.126 336.771 296.18 336.771Z" stroke="#040000" stroke-width="0.3" stroke-linecap="round" stroke-linejoin="round"/>
<path d="M361.59 336.771C364.644 336.771 367.12 334.295 367.12 331.241C367.12 328.187 364.644 325.711 361.59 325.711C358.536 325.711 356.06 328.187 356.06 331.241C356.06 334.295 358.536 336.771 361.59 336.771Z" stroke="#040000" stroke-width="0.3" stroke-linecap="round" stroke-linejoin="round"/>
<path d="M249.2 359.842C249.2 362.892 251.67 365.372 254.73 365.372" stroke="#040000" stroke-width="0.3" stroke-linecap="round" stroke-linejoin="round"/>
<path d="M343.71 353.301C343.71 355.441 345.45 357.181 347.59 357.181C349.73 357.181 351.47 355.441 351.47 353.301" stroke="#040000" stroke-width="0.3" stroke-linecap="round" stroke-linejoin="round"/>
<path d="M305.48 353.301C305.48 355.441 307.22 357.181 309.36 357.181C311.5 357.181 313.24 355.441 313.24 353.301" stroke="#040000" stroke-width="0.3" stroke-linecap="round" stroke-linejoin="round"/>
<path d="M269.19 348.79C270.46 348.79 271.49 347.76 271.49 346.49" stroke="#040000" stroke-width="0.3" stroke-linecap="round" stroke-linejoin="round"/>
<path d="M382.6 324.84C382.6 323.82 381.78 323 380.76 323" stroke="#040000" stroke-width="0.3" stroke-linecap="round" stroke-linejoin="round"/>
<path d="M380.75 339.58C381.77 339.58 382.59 338.76 382.59 337.74" stroke="#040000" stroke-width="0.3" stroke-linecap="round" stroke-linejoin="round"/>
<path d="M278.59 322.99C277.57 322.99 276.75 323.81 276.75 324.83" stroke="#040000" stroke-width="0.3" stroke-linecap="round" stroke-linejoin="round"/>
<path d="M276.74 337.73C276.74 338.75 277.56 339.57 278.58 339.57" stroke="#040000" stroke-width="0.3" stroke-linecap="round" stroke-linejoin="round"/>
<path d="M279.6 368.46C279.6 367.7 278.98 367.08 278.22 367.08C277.46 367.08 276.84 367.7 276.84 368.46" stroke="#040000" stroke-width="0.3" stroke-linecap="round" stroke-linejoin="round"/>
<path d="M269 328.521C268.24 328.521 267.62 329.141 267.62 329.901" stroke="#040000" stroke-width="0.3" stroke-linecap="round" stroke-linejoin="round"/>
<path d="M267.62 332.672C267.62 333.432 268.24 334.052 269 334.052" stroke="#040000" stroke-width="0.3" stroke-linecap="round" stroke-linejoin="round"/>
<path d="M278.12 336.352C278.12 337.112 278.74 337.732 279.5 337.732" stroke="#040000" stroke-width="0.3" stroke-linecap="round" stroke-linejoin="round"/>
<path d="M279.51 324.842C278.75 324.842 278.13 325.462 278.13 326.222" stroke="#040000" stroke-width="0.3" stroke-linecap="round" stroke-linejoin="round"/>
<path d="M390.61 334.052C391.37 334.052 391.99 333.432 391.99 332.672" stroke="#040000" stroke-width="0.3" stroke-linecap="round" stroke-linejoin="round"/>
<path d="M391.99 329.901C391.99 329.141 391.37 328.521 390.61 328.521" stroke="#040000" stroke-width="0.3" stroke-linecap="round" stroke-linejoin="round"/>
<path d="M381.4 336.251C381.4 335.531 380.84 334.931 380.12 334.871" stroke="#040000" stroke-width="0.3" stroke-linecap="round" stroke-linejoin="round"/>
<path d="M380.02 337.732C380.78 337.732 381.4 337.112 381.4 336.352" stroke="#040000" stroke-width="0.3" stroke-linecap="round" stroke-linejoin="round"/>
<path d="M381.4 326.222C381.4 325.462 380.78 324.842 380.02 324.842" stroke="#040000" stroke-width="0.3" stroke-linecap="round" stroke-linejoin="round"/>
<path d="M380.12 327.7C380.84 327.64 381.4 327.04 381.4 326.32" stroke="#040000" stroke-width="0.3" stroke-linecap="round" stroke-linejoin="round"/>
<path d="M369.41 369.011C369.51 368.251 368.98 367.561 368.22 367.461C367.46 367.361 366.77 367.891 366.67 368.651C366.65 368.771 366.65 368.901 366.67 369.021" stroke="#040000" stroke-width="0.3" stroke-linecap="round" stroke-linejoin="round"/>
<path d="M296.18 289.97C299.234 289.97 301.71 287.494 301.71 284.44C301.71 281.386 299.234 278.91 296.18 278.91C293.126 278.91 290.65 281.386 290.65 284.44C290.65 287.494 293.126 289.97 296.18 289.97Z" stroke="#040000" stroke-width="0.3" stroke-linecap="round" stroke-linejoin="round"/>
<path d="M296.18 313.371C299.234 313.371 301.71 310.895 301.71 307.841C301.71 304.786 299.234 302.311 296.18 302.311C293.126 302.311 290.65 304.786 290.65 307.841C290.65 310.895 293.126 313.371 296.18 313.371Z" stroke="#040000" stroke-width="0.3" stroke-linecap="round" stroke-linejoin="round"/>
<path d="M278.59 299.592C277.57 299.592 276.75 300.412 276.75 301.432" stroke="#040000" stroke-width="0.3" stroke-linecap="round" stroke-linejoin="round"/>
<path d="M276.74 314.33C276.74 315.35 277.56 316.17 278.58 316.17" stroke="#040000" stroke-width="0.3" stroke-linecap="round" stroke-linejoin="round"/>
<path d="M278.59 276.191C277.57 276.191 276.75 277.011 276.75 278.031" stroke="#040000" stroke-width="0.3" stroke-linecap="round" stroke-linejoin="round"/>
<path d="M276.74 290.932C276.74 291.952 277.56 292.772 278.58 292.772" stroke="#040000" stroke-width="0.3" stroke-linecap="round" stroke-linejoin="round"/>
<path d="M269 281.721C268.24 281.721 267.62 282.341 267.62 283.101" stroke="#040000" stroke-width="0.3" stroke-linecap="round" stroke-linejoin="round"/>
<path d="M267.62 285.871C267.62 286.631 268.24 287.251 269 287.251" stroke="#040000" stroke-width="0.3" stroke-linecap="round" stroke-linejoin="round"/>
<path d="M278.12 289.551C278.12 290.311 278.74 290.931 279.5 290.931" stroke="#040000" stroke-width="0.3" stroke-linecap="round" stroke-linejoin="round"/>
<path d="M279.51 278.041C278.75 278.041 278.13 278.661 278.13 279.421" stroke="#040000" stroke-width="0.3" stroke-linecap="round" stroke-linejoin="round"/>
<path d="M269 305.121C268.24 305.121 267.62 305.741 267.62 306.501" stroke="#040000" stroke-width="0.3" stroke-linecap="round" stroke-linejoin="round"/>
<path d="M267.62 309.271C267.62 310.031 268.24 310.651 269 310.651" stroke="#040000" stroke-width="0.3" stroke-linecap="round" stroke-linejoin="round"/>
<path d="M278.12 312.951C278.12 313.711 278.74 314.331 279.5 314.331" stroke="#040000" stroke-width="0.3" stroke-linecap="round" stroke-linejoin="round"/>
<path d="M279.51 301.441C278.75 301.441 278.13 302.061 278.13 302.821" stroke="#040000" stroke-width="0.3" stroke-linecap="round" stroke-linejoin="round"/>
<path d="M280.98 245.171C280.98 243.041 280.06 241.021 278.46 239.621" stroke="#040000" stroke-width="0.3" stroke-linecap="round" stroke-linejoin="round"/>
<path d="M273.61 232.041C273.61 234.171 274.53 236.191 276.13 237.591" stroke="#040000" stroke-width="0.3" stroke-linecap="round" stroke-linejoin="round"/>
<path d="M296.18 266.572C299.234 266.572 301.71 264.096 301.71 261.042C301.71 257.988 299.234 255.512 296.18 255.512C293.126 255.512 290.65 257.988 290.65 261.042C290.65 264.096 293.126 266.572 296.18 266.572Z" stroke="#040000" stroke-width="0.3" stroke-linecap="round" stroke-linejoin="round"/>
<path d="M254.72 225.342C251.67 225.342 249.19 227.812 249.19 230.872" stroke="#040000" stroke-width="0.3" stroke-linecap="round" stroke-linejoin="round"/>
<path d="M271.49 244.222C271.49 242.952 270.46 241.922 269.19 241.922" stroke="#040000" stroke-width="0.3" stroke-linecap="round" stroke-linejoin="round"/>
<path d="M278.59 252.791C277.57 252.791 276.75 253.611 276.75 254.631" stroke="#040000" stroke-width="0.3" stroke-linecap="round" stroke-linejoin="round"/>
<path d="M276.74 267.531C276.74 268.551 277.56 269.371 278.58 269.371" stroke="#040000" stroke-width="0.3" stroke-linecap="round" stroke-linejoin="round"/>
<path d="M276.83 222.07C276.83 222.83 277.45 223.45 278.21 223.45C278.97 223.45 279.59 222.83 279.59 222.07" stroke="#040000" stroke-width="0.3" stroke-linecap="round" stroke-linejoin="round"/>
<path d="M278.12 266.15C278.12 266.91 278.74 267.53 279.5 267.53" stroke="#040000" stroke-width="0.3" stroke-linecap="round" stroke-linejoin="round"/>
<path d="M279.51 254.641C278.75 254.641 278.13 255.261 278.13 256.021" stroke="#040000" stroke-width="0.3" stroke-linecap="round" stroke-linejoin="round"/>
<path d="M361.59 289.97C364.644 289.97 367.12 287.494 367.12 284.44C367.12 281.386 364.644 278.91 361.59 278.91C358.536 278.91 356.06 281.386 356.06 284.44C356.06 287.494 358.536 289.97 361.59 289.97Z" stroke="#040000" stroke-width="0.3" stroke-linecap="round" stroke-linejoin="round"/>
<path d="M361.59 313.371C364.644 313.371 367.12 310.895 367.12 307.841C367.12 304.786 364.644 302.311 361.59 302.311C358.536 302.311 356.06 304.786 356.06 307.841C356.06 310.895 358.536 313.371 361.59 313.371Z" stroke="#040000" stroke-width="0.3" stroke-linecap="round" stroke-linejoin="round"/>
<path d="M382.6 278.041C382.6 277.021 381.78 276.201 380.76 276.201" stroke="#040000" stroke-width="0.3" stroke-linecap="round" stroke-linejoin="round"/>
<path d="M380.75 292.781C381.77 292.781 382.59 291.961 382.59 290.941" stroke="#040000" stroke-width="0.3" stroke-linecap="round" stroke-linejoin="round"/>
<path d="M382.6 301.442C382.6 300.422 381.78 299.602 380.76 299.602" stroke="#040000" stroke-width="0.3" stroke-linecap="round" stroke-linejoin="round"/>
<path d="M380.75 316.182C381.77 316.182 382.59 315.362 382.59 314.342" stroke="#040000" stroke-width="0.3" stroke-linecap="round" stroke-linejoin="round"/>
<path d="M390.61 287.251C391.37 287.251 391.99 286.631 391.99 285.871" stroke="#040000" stroke-width="0.3" stroke-linecap="round" stroke-linejoin="round"/>
<path d="M391.99 283.101C391.99 282.341 391.37 281.721 390.61 281.721" stroke="#040000" stroke-width="0.3" stroke-linecap="round" stroke-linejoin="round"/>
<path d="M381.4 289.45C381.4 288.73 380.84 288.13 380.12 288.07" stroke="#040000" stroke-width="0.3" stroke-linecap="round" stroke-linejoin="round"/>
<path d="M380.02 290.931C380.78 290.931 381.4 290.311 381.4 289.551" stroke="#040000" stroke-width="0.3" stroke-linecap="round" stroke-linejoin="round"/>
<path d="M381.4 279.421C381.4 278.661 380.78 278.041 380.02 278.041" stroke="#040000" stroke-width="0.3" stroke-linecap="round" stroke-linejoin="round"/>
<path d="M380.12 280.901C380.84 280.841 381.4 280.241 381.4 279.521" stroke="#040000" stroke-width="0.3" stroke-linecap="round" stroke-linejoin="round"/>
<path d="M390.61 310.651C391.37 310.651 391.99 310.031 391.99 309.271" stroke="#040000" stroke-width="0.3" stroke-linecap="round" stroke-linejoin="round"/>
<path d="M391.99 306.501C391.99 305.741 391.37 305.121 390.61 305.121" stroke="#040000" stroke-width="0.3" stroke-linecap="round" stroke-linejoin="round"/>
<path d="M381.4 312.851C381.4 312.131 380.84 311.531 380.12 311.471" stroke="#040000" stroke-width="0.3" stroke-linecap="round" stroke-linejoin="round"/>
<path d="M380.02 314.331C380.78 314.331 381.4 313.711 381.4 312.951" stroke="#040000" stroke-width="0.3" stroke-linecap="round" stroke-linejoin="round"/>
<path d="M381.4 302.821C381.4 302.061 380.78 301.441 380.02 301.441" stroke="#040000" stroke-width="0.3" stroke-linecap="round" stroke-linejoin="round"/>
<path d="M380.12 304.302C380.84 304.242 381.4 303.642 381.4 302.922" stroke="#040000" stroke-width="0.3" stroke-linecap="round" stroke-linejoin="round"/>
<path d="M361.59 266.572C364.644 266.572 367.12 264.096 367.12 261.042C367.12 257.988 364.644 255.512 361.59 255.512C358.536 255.512 356.06 257.988 356.06 261.042C356.06 264.096 358.536 266.572 361.59 266.572Z" stroke="#040000" stroke-width="0.3" stroke-linecap="round" stroke-linejoin="round"/>
<path d="M351.46 237.222C351.46 235.082 349.72 233.342 347.58 233.342C345.44 233.342 343.7 235.082 343.7 237.222" stroke="#040000" stroke-width="0.3" stroke-linecap="round" stroke-linejoin="round"/>
<path d="M313.23 237.222C313.23 235.082 311.49 233.342 309.35 233.342C307.21 233.342 305.47 235.082 305.47 237.222" stroke="#040000" stroke-width="0.3" stroke-linecap="round" stroke-linejoin="round"/>
<path d="M382.6 254.641C382.6 253.621 381.78 252.801 380.76 252.801" stroke="#040000" stroke-width="0.3" stroke-linecap="round" stroke-linejoin="round"/>
<path d="M380.75 269.381C381.77 269.381 382.59 268.561 382.59 267.541" stroke="#040000" stroke-width="0.3" stroke-linecap="round" stroke-linejoin="round"/>
<path d="M366.66 221.521C366.66 222.281 367.28 222.901 368.04 222.901C368.8 222.901 369.42 222.281 369.42 221.521" stroke="#040000" stroke-width="0.3" stroke-linecap="round" stroke-linejoin="round"/>
<path d="M380.06 257.401C380.82 257.381 381.42 256.741 381.4 255.981C381.38 255.221 380.77 254.641 380.02 254.641" stroke="#040000" stroke-width="0.3" stroke-linecap="round" stroke-linejoin="round"/>
<path d="M380.02 267.531C380.78 267.531 381.4 266.911 381.4 266.151C381.4 265.391 380.81 264.791 380.06 264.771" stroke="#040000" stroke-width="0.3" stroke-linecap="round" stroke-linejoin="round"/>
<path d="M366.66 371.311H279.6" stroke="#040000" stroke-width="0.7" stroke-linecap="round" stroke-linejoin="round"/>
<path d="M243.67 370.99H279.6" stroke="#040000" stroke-width="0.7" stroke-linecap="round" stroke-linejoin="round"/>
<path d="M392.91 369.611H366.66" stroke="#040000" stroke-width="0.7" stroke-linecap="round" stroke-linejoin="round"/>
<path d="M393.83 348.791H387.75" stroke="#040000" stroke-width="0.7" stroke-linecap="round" stroke-linejoin="round"/>
<path d="M269.19 348.791H243.67" stroke="#040000" stroke-width="0.7" stroke-linecap="round" stroke-linejoin="round"/>
<path d="M390.61 334.051H387.75" stroke="#040000" stroke-width="0.7" stroke-linecap="round" stroke-linejoin="round"/>
<path d="M269 334.051H271.49" stroke="#040000" stroke-width="0.7" stroke-linecap="round" stroke-linejoin="round"/>
<path d="M390.61 328.521H387.75" stroke="#040000" stroke-width="0.7" stroke-linecap="round" stroke-linejoin="round"/>
<path d="M271.49 328.521H269" stroke="#040000" stroke-width="0.7" stroke-linecap="round" stroke-linejoin="round"/>
<path d="M390.61 310.65H387.75" stroke="#040000" stroke-width="0.7" stroke-linecap="round" stroke-linejoin="round"/>
<path d="M269 310.65H271.49" stroke="#040000" stroke-width="0.7" stroke-linecap="round" stroke-linejoin="round"/>
<path d="M390.61 305.121H387.75" stroke="#040000" stroke-width="0.7" stroke-linecap="round" stroke-linejoin="round"/>
<path d="M271.49 305.121H269" stroke="#040000" stroke-width="0.7" stroke-linecap="round" stroke-linejoin="round"/>
<path d="M390.61 287.25H387.75" stroke="#040000" stroke-width="0.7" stroke-linecap="round" stroke-linejoin="round"/>
<path d="M269 287.25H271.49" stroke="#040000" stroke-width="0.7" stroke-linecap="round" stroke-linejoin="round"/>
<path d="M390.61 281.721H387.75" stroke="#040000" stroke-width="0.7" stroke-linecap="round" stroke-linejoin="round"/>
<path d="M271.49 281.721H269" stroke="#040000" stroke-width="0.7" stroke-linecap="round" stroke-linejoin="round"/>
<path d="M243.67 241.922H269.19" stroke="#040000" stroke-width="0.7" stroke-linecap="round" stroke-linejoin="round"/>
<path d="M387.75 241.922H393.83" stroke="#040000" stroke-width="0.7" stroke-linecap="round" stroke-linejoin="round"/>
<path d="M366.66 221.102H392.91" stroke="#040000" stroke-width="0.7" stroke-linecap="round" stroke-linejoin="round"/>
<path d="M243.67 219.721H279.6" stroke="#040000" stroke-width="0.7" stroke-linecap="round" stroke-linejoin="round"/>
<path d="M279.6 219.211H366.66" stroke="#040000" stroke-width="0.7" stroke-linecap="round" stroke-linejoin="round"/>
<path d="M392.91 221.102L393.83 222.022" stroke="#040000" stroke-width="0.7" stroke-linecap="round" stroke-linejoin="round"/>
<path d="M243.67 219.721V241.921" stroke="#040000" stroke-width="0.7" stroke-linecap="round" stroke-linejoin="round"/>
<path d="M243.67 348.791V370.991" stroke="#040000" stroke-width="0.7" stroke-linecap="round" stroke-linejoin="round"/>
<path d="M267.62 332.67V329.9" stroke="#040000" stroke-width="0.7" stroke-linecap="round" stroke-linejoin="round"/>
<path d="M267.62 309.27V306.5" stroke="#040000" stroke-width="0.7" stroke-linecap="round" stroke-linejoin="round"/>
<path d="M267.62 285.872V283.102" stroke="#040000" stroke-width="0.7" stroke-linecap="round" stroke-linejoin="round"/>
<path d="M271.49 281.721V244.221" stroke="#040000" stroke-width="0.7" stroke-linecap="round" stroke-linejoin="round"/>
<path d="M271.49 305.12V287.25" stroke="#040000" stroke-width="0.7" stroke-linecap="round" stroke-linejoin="round"/>
<path d="M271.49 328.53V310.66" stroke="#040000" stroke-width="0.7" stroke-linecap="round" stroke-linejoin="round"/>
<path d="M271.49 346.481V334.051" stroke="#040000" stroke-width="0.7" stroke-linecap="round" stroke-linejoin="round"/>
<path d="M279.6 371.31V370.99" stroke="#040000" stroke-width="0.7" stroke-linecap="round" stroke-linejoin="round"/>
<path d="M279.6 219.721V219.211" stroke="#040000" stroke-width="0.7" stroke-linecap="round" stroke-linejoin="round"/>
<path d="M366.66 371.311V369.611" stroke="#040000" stroke-width="0.7" stroke-linecap="round" stroke-linejoin="round"/>
<path d="M366.66 221.101V219.211" stroke="#040000" stroke-width="0.7" stroke-linecap="round" stroke-linejoin="round"/>
<path d="M387.75 334.053V348.793" stroke="#040000" stroke-width="0.7" stroke-linecap="round" stroke-linejoin="round"/>
<path d="M387.75 310.662V328.522" stroke="#040000" stroke-width="0.7" stroke-linecap="round" stroke-linejoin="round"/>
<path d="M387.75 287.252V305.122" stroke="#040000" stroke-width="0.7" stroke-linecap="round" stroke-linejoin="round"/>
<path d="M387.75 241.922V281.722" stroke="#040000" stroke-width="0.7" stroke-linecap="round" stroke-linejoin="round"/>
<path d="M391.99 283.102V285.872" stroke="#040000" stroke-width="0.7" stroke-linecap="round" stroke-linejoin="round"/>
<path d="M391.99 306.5V309.27" stroke="#040000" stroke-width="0.7" stroke-linecap="round" stroke-linejoin="round"/>
<path d="M391.99 329.9V332.67" stroke="#040000" stroke-width="0.7" stroke-linecap="round" stroke-linejoin="round"/>
<path d="M393.83 368.691V348.791" stroke="#040000" stroke-width="0.7" stroke-linecap="round" stroke-linejoin="round"/>
<path d="M393.83 241.921V222.021" stroke="#040000" stroke-width="0.7" stroke-linecap="round" stroke-linejoin="round"/>
<path d="M393.83 368.691L392.91 369.611" stroke="#040000" stroke-width="0.7" stroke-linecap="round" stroke-linejoin="round"/>
<path d="M269.19 348.79C270.46 348.79 271.49 347.76 271.49 346.49" stroke="#040000" stroke-width="0.7" stroke-linecap="round" stroke-linejoin="round"/>
<path d="M269 328.521C268.24 328.521 267.62 329.141 267.62 329.901" stroke="#040000" stroke-width="0.7" stroke-linecap="round" stroke-linejoin="round"/>
<path d="M267.62 332.672C267.62 333.432 268.24 334.052 269 334.052" stroke="#040000" stroke-width="0.7" stroke-linecap="round" stroke-linejoin="round"/>
<path d="M390.61 334.052C391.37 334.052 391.99 333.432 391.99 332.672" stroke="#040000" stroke-width="0.7" stroke-linecap="round" stroke-linejoin="round"/>
<path d="M391.99 329.901C391.99 329.141 391.37 328.521 390.61 328.521" stroke="#040000" stroke-width="0.7" stroke-linecap="round" stroke-linejoin="round"/>
<path d="M269 281.721C268.24 281.721 267.62 282.341 267.62 283.101" stroke="#040000" stroke-width="0.7" stroke-linecap="round" stroke-linejoin="round"/>
<path d="M267.62 285.871C267.62 286.631 268.24 287.251 269 287.251" stroke="#040000" stroke-width="0.7" stroke-linecap="round" stroke-linejoin="round"/>
<path d="M269 305.121C268.24 305.121 267.62 305.741 267.62 306.501" stroke="#040000" stroke-width="0.7" stroke-linecap="round" stroke-linejoin="round"/>
<path d="M267.62 309.271C267.62 310.031 268.24 310.651 269 310.651" stroke="#040000" stroke-width="0.7" stroke-linecap="round" stroke-linejoin="round"/>
<path d="M271.49 244.222C271.49 242.952 270.46 241.922 269.19 241.922" stroke="#040000" stroke-width="0.7" stroke-linecap="round" stroke-linejoin="round"/>
<path d="M390.61 287.251C391.37 287.251 391.99 286.631 391.99 285.871" stroke="#040000" stroke-width="0.7" stroke-linecap="round" stroke-linejoin="round"/>
<path d="M391.99 283.101C391.99 282.341 391.37 281.721 390.61 281.721" stroke="#040000" stroke-width="0.7" stroke-linecap="round" stroke-linejoin="round"/>
<path d="M390.61 310.651C391.37 310.651 391.99 310.031 391.99 309.271" stroke="#040000" stroke-width="0.7" stroke-linecap="round" stroke-linejoin="round"/>
<path d="M391.99 306.501C391.99 305.741 391.37 305.121 390.61 305.121" stroke="#040000" stroke-width="0.7" stroke-linecap="round" stroke-linejoin="round"/>
<path d="M844.146 86.6465C843.951 86.8417 843.951 87.1583 844.146 87.3536L847.328 90.5355C847.524 90.7308 847.84 90.7308 848.036 90.5355C848.231 90.3403 848.231 90.0237 848.036 89.8284L845.207 87L848.036 84.1716C848.231 83.9763 848.231 83.6597 848.036 83.4645C847.84 83.2692 847.524 83.2692 847.328 83.4645L844.146 86.6465ZM905.854 87.3536C906.049 87.1583 906.049 86.8417 905.854 86.6465L902.672 83.4645C902.476 83.2692 902.16 83.2692 901.964 83.4645C901.769 83.6597 901.769 83.9763 901.964 84.1716L904.793 87L901.964 89.8284C901.769 90.0237 901.769 90.3403 901.964 90.5355C902.16 90.7308 902.476 90.7308 902.672 90.5355L905.854 87.3536ZM844.5 87L844.5 87.5L905.5 87.5L905.5 87L905.5 86.5L844.5 86.5L844.5 87Z" fill="black"/>
<line x1="906.5" y1="83" x2="906.5" y2="91" stroke="black"/>
<line x1="843.5" y1="83" x2="843.5" y2="91" stroke="black"/>
<path d="M834.175 63H830.808V52.0909H834.324C835.382 52.0909 836.288 52.3093 837.041 52.7461C837.793 53.1793 838.37 53.8026 838.772 54.6158C839.173 55.4254 839.374 56.3949 839.374 57.5241C839.374 58.6605 839.171 59.6388 838.766 60.4592C838.362 61.2759 837.772 61.9045 836.998 62.3448C836.224 62.7816 835.283 63 834.175 63ZM832.129 61.8281H834.09C834.992 61.8281 835.739 61.6541 836.332 61.3061C836.925 60.9581 837.367 60.4627 837.658 59.82C837.95 59.1772 838.095 58.4119 838.095 57.5241C838.095 56.6435 837.951 55.8853 837.664 55.2496C837.376 54.6104 836.946 54.1204 836.375 53.7795C835.803 53.435 835.091 53.2628 834.239 53.2628H832.129V61.8281ZM844.85 63.1705C844.061 63.1705 843.381 62.9964 842.809 62.6484C842.241 62.2969 841.803 61.8068 841.494 61.1783C841.188 60.5462 841.036 59.8111 841.036 58.973C841.036 58.1349 841.188 57.3963 841.494 56.7571C841.803 56.1143 842.232 55.6136 842.783 55.255C843.337 54.8928 843.983 54.7116 844.722 54.7116C845.148 54.7116 845.569 54.7827 845.984 54.9247C846.4 55.0668 846.778 55.2976 847.119 55.6172C847.46 55.9332 847.731 56.3523 847.934 56.8743C848.136 57.3963 848.237 58.0391 848.237 58.8026V59.3352H841.93V58.2486H846.959C846.959 57.7869 846.867 57.375 846.682 57.0128C846.501 56.6506 846.242 56.3647 845.904 56.1552C845.57 55.9457 845.176 55.8409 844.722 55.8409C844.221 55.8409 843.788 55.9652 843.422 56.2138C843.06 56.4588 842.781 56.7784 842.586 57.1726C842.39 57.5668 842.293 57.9893 842.293 58.4403V59.1648C842.293 59.7827 842.399 60.3065 842.612 60.7362C842.829 61.1623 843.129 61.4872 843.513 61.7109C843.896 61.9311 844.342 62.0412 844.85 62.0412C845.18 62.0412 845.478 61.995 845.744 61.9027C846.014 61.8068 846.247 61.6648 846.442 61.4766C846.638 61.2848 846.788 61.0469 846.895 60.7628L848.109 61.1037C847.982 61.5156 847.767 61.8778 847.465 62.1903C847.163 62.4993 846.79 62.7408 846.346 62.9148C845.902 63.0852 845.403 63.1705 844.85 63.1705ZM850.15 66.0682V54.8182H851.364V56.1179H851.513C851.606 55.9759 851.733 55.7947 851.897 55.5746C852.064 55.3509 852.302 55.152 852.611 54.978C852.923 54.8004 853.346 54.7116 853.878 54.7116C854.567 54.7116 855.174 54.8839 855.7 55.2283C856.226 55.5728 856.636 56.0611 856.93 56.6932C857.225 57.3253 857.373 58.071 857.373 58.9304C857.373 59.7969 857.225 60.5479 856.93 61.1836C856.636 61.8157 856.227 62.3058 855.705 62.6538C855.183 62.9982 854.581 63.1705 853.9 63.1705C853.374 63.1705 852.953 63.0835 852.637 62.9094C852.321 62.7319 852.078 62.5312 851.907 62.3075C851.737 62.0803 851.606 61.892 851.513 61.7429H851.407V66.0682H850.15ZM851.385 58.9091C851.385 59.527 851.476 60.0721 851.657 60.5444C851.838 61.0131 852.103 61.3807 852.451 61.647C852.799 61.9098 853.225 62.0412 853.729 62.0412C854.255 62.0412 854.693 61.9027 855.045 61.6257C855.4 61.3452 855.666 60.9687 855.844 60.4964C856.025 60.0206 856.116 59.4915 856.116 58.9091C856.116 58.3338 856.027 57.8153 855.849 57.3537C855.675 56.8885 855.411 56.521 855.055 56.2511C854.704 55.9776 854.262 55.8409 853.729 55.8409C853.218 55.8409 852.788 55.9705 852.44 56.2298C852.092 56.4854 851.829 56.8441 851.652 57.3058C851.474 57.7638 851.385 58.2983 851.385 58.9091ZM862.848 54.8182V55.8835H858.608V54.8182H862.848ZM859.844 52.858H861.101V60.6562C861.101 61.0114 861.153 61.2777 861.256 61.4553C861.362 61.6293 861.497 61.7464 861.661 61.8068C861.828 61.8636 862.003 61.892 862.188 61.892C862.326 61.892 862.44 61.8849 862.529 61.8707C862.618 61.853 862.689 61.8388 862.742 61.8281L862.998 62.9574C862.912 62.9893 862.793 63.0213 862.641 63.0533C862.488 63.0888 862.294 63.1065 862.06 63.1065C861.705 63.1065 861.357 63.0302 861.016 62.8775C860.679 62.7248 860.398 62.4922 860.174 62.1797C859.954 61.8672 859.844 61.473 859.844 60.9972V52.858ZM866.172 58.0781V63H864.915V52.0909H866.172V56.0966H866.279C866.471 55.674 866.758 55.3384 867.142 55.0898C867.529 54.8377 868.044 54.7116 868.687 54.7116C869.244 54.7116 869.732 54.8235 870.151 55.0472C870.57 55.2674 870.895 55.6065 871.126 56.0646C871.361 56.5192 871.478 57.098 871.478 57.8011V63H870.221V57.8864C870.221 57.2365 870.052 56.734 869.715 56.3789C869.381 56.0202 868.917 55.8409 868.324 55.8409C867.912 55.8409 867.543 55.9279 867.216 56.1019C866.893 56.2759 866.638 56.5298 866.449 56.8636C866.265 57.1974 866.172 57.6023 866.172 58.0781ZM874.694 63.0852C874.431 63.0852 874.205 62.9911 874.017 62.8029C873.829 62.6147 873.735 62.3892 873.735 62.1264C873.735 61.8636 873.829 61.6381 874.017 61.4499C874.205 61.2617 874.431 61.1676 874.694 61.1676C874.956 61.1676 875.182 61.2617 875.37 61.4499C875.558 61.6381 875.653 61.8636 875.653 62.1264C875.653 62.3004 875.608 62.4602 875.519 62.6058C875.434 62.7514 875.319 62.8686 875.173 62.9574C875.031 63.0426 874.871 63.0852 874.694 63.0852ZM874.694 57.0128C874.431 57.0128 874.205 56.9187 874.017 56.7305C873.829 56.5423 873.735 56.3168 873.735 56.054C873.735 55.7912 873.829 55.5657 874.017 55.3775C874.205 55.1893 874.431 55.0952 874.694 55.0952C874.956 55.0952 875.182 55.1893 875.37 55.3775C875.558 55.5657 875.653 55.7912 875.653 56.054C875.653 56.228 875.608 56.3878 875.519 56.5334C875.434 56.679 875.319 56.7962 875.173 56.8849C875.031 56.9702 874.871 57.0128 874.694 57.0128ZM885.6 63.1491C884.869 63.1491 884.222 63.0195 883.661 62.7603C883.104 62.4975 882.669 62.1371 882.356 61.679C882.044 61.2173 881.889 60.6918 881.893 60.1023C881.889 59.6406 881.98 59.2145 882.164 58.8239C882.349 58.4297 882.601 58.1012 882.921 57.8384C883.244 57.5721 883.604 57.4034 884.002 57.3324V57.2685C883.48 57.1335 883.065 56.8406 882.756 56.3896C882.447 55.935 882.294 55.4183 882.298 54.8395C882.294 54.2855 882.434 53.7901 882.718 53.3533C883.002 52.9165 883.393 52.5721 883.89 52.32C884.391 52.0678 884.961 51.9418 885.6 51.9418C886.232 51.9418 886.797 52.0678 887.294 52.32C887.791 52.5721 888.182 52.9165 888.466 53.3533C888.754 53.7901 888.899 54.2855 888.903 54.8395C888.899 55.4183 888.741 55.935 888.429 56.3896C888.12 56.8406 887.71 57.1335 887.198 57.2685V57.3324C887.592 57.4034 887.947 57.5721 888.263 57.8384C888.58 58.1012 888.832 58.4297 889.02 58.8239C889.208 59.2145 889.304 59.6406 889.308 60.1023C889.304 60.6918 889.144 61.2173 888.828 61.679C888.516 62.1371 888.081 62.4975 887.523 62.7603C886.969 63.0195 886.328 63.1491 885.6 63.1491ZM885.6 61.9773C886.094 61.9773 886.52 61.8974 886.879 61.7376C887.237 61.5778 887.514 61.3523 887.71 61.0611C887.905 60.7699 888.004 60.429 888.008 60.0384C888.004 59.6264 887.898 59.2624 887.688 58.9464C887.479 58.6303 887.193 58.3817 886.831 58.2006C886.472 58.0195 886.062 57.929 885.6 57.929C885.135 57.929 884.719 58.0195 884.354 58.2006C883.991 58.3817 883.706 58.6303 883.496 58.9464C883.29 59.2624 883.189 59.6264 883.192 60.0384C883.189 60.429 883.283 60.7699 883.475 61.0611C883.67 61.3523 883.949 61.5778 884.311 61.7376C884.673 61.8974 885.103 61.9773 885.6 61.9773ZM885.6 56.7997C885.991 56.7997 886.337 56.7216 886.639 56.5653C886.944 56.4091 887.184 56.1907 887.358 55.9102C887.532 55.6296 887.621 55.3011 887.624 54.9247C887.621 54.5554 887.534 54.234 887.363 53.9606C887.193 53.6836 886.957 53.4705 886.655 53.3214C886.353 53.1687 886.001 53.0923 885.6 53.0923C885.192 53.0923 884.835 53.1687 884.529 53.3214C884.224 53.4705 883.988 53.6836 883.821 53.9606C883.654 54.234 883.572 54.5554 883.576 54.9247C883.572 55.3011 883.656 55.6296 883.826 55.9102C884 56.1907 884.24 56.4091 884.545 56.5653C884.851 56.7216 885.202 56.7997 885.6 56.7997ZM895.589 63V54.8182H896.804V56.0966H896.91C897.081 55.6598 897.356 55.3207 897.736 55.0792C898.116 54.8342 898.572 54.7116 899.105 54.7116C899.644 54.7116 900.094 54.8342 900.452 55.0792C900.815 55.3207 901.097 55.6598 901.299 56.0966H901.384C901.594 55.674 901.908 55.3384 902.327 55.0898C902.746 54.8377 903.249 54.7116 903.835 54.7116C904.566 54.7116 905.165 54.9407 905.63 55.3988C906.095 55.8533 906.328 56.5618 906.328 57.5241V63H905.071V57.5241C905.071 56.9205 904.905 56.489 904.575 56.2298C904.245 55.9705 903.856 55.8409 903.409 55.8409C902.833 55.8409 902.388 56.0149 902.072 56.3629C901.756 56.7074 901.598 57.1442 901.598 57.6733V63H900.319V57.3963C900.319 56.9311 900.168 56.5565 899.866 56.2724C899.565 55.9847 899.176 55.8409 898.7 55.8409C898.373 55.8409 898.068 55.9279 897.784 56.1019C897.503 56.2759 897.276 56.5174 897.102 56.8263C896.931 57.1317 896.846 57.4851 896.846 57.8864V63H895.589ZM908.626 63V54.8182H909.841V56.0966H909.947C910.118 55.6598 910.393 55.3207 910.773 55.0792C911.153 54.8342 911.609 54.7116 912.142 54.7116C912.682 54.7116 913.131 54.8342 913.489 55.0792C913.852 55.3207 914.134 55.6598 914.336 56.0966H914.422C914.631 55.674 914.945 55.3384 915.364 55.0898C915.783 54.8377 916.286 54.7116 916.872 54.7116C917.603 54.7116 918.202 54.9407 918.667 55.3988C919.132 55.8533 919.365 56.5618 919.365 57.5241V63H918.108V57.5241C918.108 56.9205 917.943 56.489 917.612 56.2298C917.282 55.9705 916.893 55.8409 916.446 55.8409C915.87 55.8409 915.425 56.0149 915.109 56.3629C914.793 56.7074 914.635 57.1442 914.635 57.6733V63H913.356V57.3963C913.356 56.9311 913.205 56.5565 912.903 56.2724C912.602 55.9847 912.213 55.8409 911.737 55.8409C911.41 55.8409 911.105 55.9279 910.821 56.1019C910.54 56.2759 910.313 56.5174 910.139 56.8263C909.968 57.1317 909.883 57.4851 909.883 57.8864V63H908.626Z" fill="black"/>
<path d="M857.04 305.449L877 305.449L877 242.569L857.04 242.569L857.04 305.449Z" stroke="#231815" stroke-width="0.3" stroke-miterlimit="2"/>
<path d="M842.98 614.611L857.11 614.611L857.11 117.001L842.98 117.001L842.98 614.611Z" stroke="#231815" stroke-width="0.3" stroke-miterlimit="10"/>
<path d="M864.08 236.05L864.08 153.84L891.59 153.84L891.59 236.06L864.08 236.06L864.08 236.05Z" stroke="#231815" stroke-width="0.3" stroke-miterlimit="2"/>
<path d="M897.89 242.57L897.89 147.32L857.77 147.32L857.77 242.57L897.89 242.57Z" stroke="#231815" stroke-width="0.3" stroke-miterlimit="2"/>
<path d="M871.41 225.461L884.25 225.461L884.25 221.561L871.41 221.561L871.41 225.461Z" stroke="#231815" stroke-width="0.3" stroke-miterlimit="2"/>
<path d="M871.41 211.18L884.25 211.18L884.25 207.28L871.41 207.28L871.41 211.18Z" stroke="#231815" stroke-width="0.3" stroke-miterlimit="2"/>
<path d="M871.42 196.9L884.26 196.9L884.26 193L871.42 193L871.42 196.9Z" stroke="#231815" stroke-width="0.3" stroke-miterlimit="2"/>
<path d="M871.41 182.609L884.25 182.609L884.25 178.709L871.41 178.709L871.41 182.609Z" stroke="#231815" stroke-width="0.3" stroke-miterlimit="2"/>
<path d="M871.41 168.33L884.25 168.33L884.25 164.43L871.41 164.43L871.41 168.33Z" stroke="#231815" stroke-width="0.3" stroke-miterlimit="2"/>
<path d="M864.82 560.2L864.82 480.22C868.28 480.22 871.08 476.84 871.08 472.67L899.06 472.67L899.06 567.78L871.08 567.78C871.08 563.59 868.28 560.2 864.82 560.2Z" stroke="#231815" stroke-width="0.3" stroke-miterlimit="2"/>
<path d="M906 574.94L906 465.5L857.88 465.5L857.88 574.94L906 574.94Z" stroke="#231815" stroke-width="0.3" stroke-miterlimit="2"/>
<path d="M874.7 552.021L889.2 552.021L889.2 547.731L874.7 547.731L874.7 552.021Z" stroke="#231815" stroke-width="0.3" stroke-miterlimit="2"/>
<path d="M874.69 532.26L889.19 532.26L889.19 527.97L874.69 527.97L874.69 532.26Z" stroke="#231815" stroke-width="0.3" stroke-miterlimit="2"/>
<path d="M874.69 512.49L889.19 512.49L889.19 508.2L874.69 508.2L874.69 512.49Z" stroke="#231815" stroke-width="0.3" stroke-miterlimit="2"/>
<path d="M874.69 492.721L889.19 492.721L889.19 488.431L874.69 488.431L874.69 492.721Z" stroke="#231815" stroke-width="0.3" stroke-miterlimit="2"/>
<path d="M864.82 440.391L864.82 360.411C868.28 360.411 871.08 357.031 871.08 352.861L899.06 352.861L899.06 447.971L871.08 447.971C871.08 443.781 868.28 440.391 864.82 440.391Z" stroke="#231815" stroke-width="0.3" stroke-miterlimit="2"/>
<path d="M906 455.141L906 345.701L857.88 345.701L857.88 455.141L906 455.141Z" stroke="#231815" stroke-width="0.3" stroke-miterlimit="2"/>
<path d="M874.69 432.223L889.19 432.223L889.19 427.933L874.69 427.933L874.69 432.223Z" stroke="#231815" stroke-width="0.3" stroke-miterlimit="2"/>
<path d="M874.7 412.451L889.2 412.451L889.2 408.161L874.7 408.161L874.7 412.451Z" stroke="#231815" stroke-width="0.3" stroke-miterlimit="2"/>
<path d="M874.7 392.682L889.2 392.682L889.2 388.392L874.7 388.392L874.7 392.682Z" stroke="#231815" stroke-width="0.3" stroke-miterlimit="2"/>
<path d="M874.69 372.922L889.19 372.922L889.19 368.632L874.69 368.632L874.69 372.922Z" stroke="#231815" stroke-width="0.3" stroke-miterlimit="2"/>
<path d="M857.11 574.95L906 574.95L906 465.5L857.11 465.5L857.11 455.14L906 455.14L906 345.7L857.11 345.7L857.11 305.44L877 305.44L877 242.57L897.89 242.57L897.89 147.32L857.11 147.32L857.11 117L842.98 117L842.98 614.61L857.11 614.61L857.11 574.95Z" stroke="#231815" stroke-miterlimit="2"/>
</svg>
