<svg xmlns="http://www.w3.org/2000/svg" width="1188" height="663" fill="none" viewBox="0 0 1188 663"><path fill="#fff" d="M0 0h1188v663H0z"/><path fill="#000" d="M214.146 159.646a.5.5 0 0 0 0 .708l3.182 3.182a.502.502 0 0 0 .708-.708L215.207 160l2.829-2.828a.502.502 0 0 0-.708-.708zm246.708.708a.5.5 0 0 0 0-.708l-3.182-3.182a.502.502 0 0 0-.708.708l2.829 2.828-2.829 2.828a.502.502 0 0 0 .708.708zM214.5 160v.5h246v-1h-246z"/><path stroke="#000" d="M213.5 156v8M461.5 156v8"/><path fill="#000" d="M183.354 190.646a.5.5 0 0 0-.708 0l-3.182 3.182a.502.502 0 0 0 .708.708l2.828-2.829 2.828 2.829a.502.502 0 0 0 .708-.708zm-.708 285.708a.5.5 0 0 0 .708 0l3.182-3.182a.502.502 0 0 0-.708-.708L183 475.293l-2.828-2.829a.502.502 0 0 0-.708.708zM183 191h-.5v285h1V191z"/><path stroke="#000" d="M179 190h8M179 477h8"/><path fill="#000" d="M533.146 158.646a.5.5 0 0 0 0 .708l3.182 3.182a.502.502 0 0 0 .708-.708L534.207 159l2.829-2.828a.502.502 0 0 0-.708-.708zm124.708.708a.5.5 0 0 0 0-.707l-3.182-3.182a.5.5 0 1 0-.708.707l2.829 2.828-2.829 2.829a.5.5 0 0 0 .708.707zM533.5 159v.5h124v-1h-124z"/><path stroke="#000" d="M532.5 155v8M658.5 155v8"/><path fill="#000" d="m810.181 521-2.982-10.909h1.342l2.28 8.885h.106l2.323-8.885h1.491l2.323 8.885h.106l2.28-8.885h1.342L817.809 521h-1.363l-2.408-8.693h-.085L811.545 521zm14.755.17q-1.182 0-2.04-.522a3.5 3.5 0 0 1-1.315-1.47q-.459-.948-.458-2.205 0-1.257.458-2.216.463-.964 1.289-1.502.83-.543 1.939-.543.64 0 1.262.213.624.213 1.135.692.511.474.815 1.257t.303 1.929v.532h-6.307v-1.086h5.029a2.7 2.7 0 0 0-.277-1.236 2.1 2.1 0 0 0-.778-.858q-.501-.314-1.182-.314-.751 0-1.3.373a2.45 2.45 0 0 0-.836.959 2.8 2.8 0 0 0-.293 1.267v.725q0 .927.319 1.571.326.639.9.975.576.33 1.337.33.496 0 .895-.138.405-.144.698-.426a1.95 1.95 0 0 0 .453-.714l1.214.341a2.7 2.7 0 0 1-.644 1.086 3.14 3.14 0 0 1-1.119.725 4.2 4.2 0 0 1-1.497.255m5.301-.17v-8.182h1.257V521zm.639-9.545a.9.9 0 0 1-.634-.251.8.8 0 0 1-.261-.602q0-.351.261-.602a.9.9 0 0 1 .634-.25q.367 0 .628.25a.8.8 0 0 1 .267.602.8.8 0 0 1-.267.602.87.87 0 0 1-.628.251m6.223 12.784q-.912 0-1.566-.235a3.3 3.3 0 0 1-1.092-.607 3.3 3.3 0 0 1-.688-.799l1.002-.703q.17.223.431.511.261.294.714.506.459.219 1.199.219.99 0 1.635-.48.644-.479.644-1.502v-1.662h-.106a7 7 0 0 1-.394.554q-.25.325-.725.581-.468.25-1.267.25a3.4 3.4 0 0 1-1.78-.469q-.783-.468-1.241-1.363-.453-.895-.452-2.174 0-1.256.442-2.189.442-.937 1.23-1.449.789-.516 1.822-.516.799 0 1.268.266.474.261.724.597.256.33.394.543h.128v-1.3h1.215v8.416q0 1.055-.48 1.716a2.73 2.73 0 0 1-1.278.974 4.8 4.8 0 0 1-1.779.315m-.043-4.496q.756 0 1.278-.346t.794-.996.272-1.556q0-.884-.267-1.561a2.34 2.34 0 0 0-.788-1.06q-.522-.383-1.289-.383-.8 0-1.332.405-.527.405-.793 1.086a4.2 4.2 0 0 0-.261 1.513q0 .852.266 1.508.271.65.799 1.022.532.368 1.321.368m7.138-3.665V521h-1.257v-10.909h1.257v4.006h.106q.288-.635.863-1.007.58-.378 1.545-.378.837 0 1.465.335.629.33.975 1.018.351.681.351 1.736V521h-1.257v-5.114q0-.974-.506-1.507-.5-.538-1.39-.538a2.3 2.3 0 0 0-1.108.261 1.9 1.9 0 0 0-.767.762q-.277.5-.277 1.214m11.163-3.26v1.066h-4.24v-1.066zm-3.004-1.96h1.257v7.798q0 .533.155.799a.8.8 0 0 0 .404.352q.25.085.528.085.207 0 .341-.021l.213-.043.255 1.129a3 3 0 0 1-.356.096 2.6 2.6 0 0 1-.581.054q-.533 0-1.044-.23a2.1 2.1 0 0 1-.842-.697q-.33-.47-.33-1.183zm5.811 10.227a.92.92 0 0 1-.676-.282.92.92 0 0 1-.282-.677q0-.393.282-.676a.92.92 0 0 1 .676-.282q.395 0 .677.282a.92.92 0 0 1 .282.676.994.994 0 0 1-.479.831.9.9 0 0 1-.48.128m0-6.072a.92.92 0 0 1-.676-.283.92.92 0 0 1-.282-.676q0-.394.282-.677a.92.92 0 0 1 .676-.282q.395 0 .677.282a.93.93 0 0 1 .282.677.9.9 0 0 1-.133.479 1 1 0 0 1-.346.352.9.9 0 0 1-.48.128m7.753 5.987 4.88-9.652v-.085h-5.625v-1.172h6.988v1.236L867.302 521zm7.094-2.237v-1.087l4.794-7.585h.789v1.683h-.533l-3.622 5.732v.085h6.456v1.172zm5.135 2.237v-10.909h1.257V521zm12.288 3.239q-.912 0-1.566-.235a3.3 3.3 0 0 1-1.092-.607 3.3 3.3 0 0 1-.688-.799l1.002-.703q.17.223.431.511.261.294.714.506.458.219 1.199.219.99 0 1.635-.48.645-.479.644-1.502v-1.662h-.106a7 7 0 0 1-.394.554q-.25.325-.725.581-.468.25-1.267.25a3.4 3.4 0 0 1-1.78-.469q-.783-.468-1.241-1.363-.453-.895-.452-2.174 0-1.256.442-2.189.442-.937 1.23-1.449.789-.516 1.822-.516.799 0 1.268.266.474.261.724.597.255.33.394.543h.128v-1.3h1.215v8.416q0 1.055-.48 1.716a2.73 2.73 0 0 1-1.278.974 4.8 4.8 0 0 1-1.779.315m-.043-4.496q.756 0 1.278-.346t.794-.996.272-1.556q0-.884-.267-1.561a2.34 2.34 0 0 0-.788-1.06q-.522-.383-1.289-.383-.8 0-1.332.405-.527.405-.793 1.086a4.2 4.2 0 0 0-.261 1.513q0 .852.266 1.508.271.65.799 1.022.532.368 1.321.368m-134.385 13.802q0-2.013.522-3.702a11.6 11.6 0 0 1 1.502-3.116h1.108a7 7 0 0 0-.719 1.3 13 13 0 0 0-.58 1.689q-.25.915-.395 1.896a14 14 0 0 0-.138 1.933q0 1.268.245 2.573t.66 2.424q.416 1.119.927 1.822h-1.108a11.6 11.6 0 0 1-1.502-3.111q-.522-1.693-.522-3.708m6.479-5.454V539h-1.321v-10.909zm3.735 5.987V539h-1.257v-8.182h1.215v1.279h.106q.288-.624.874-1.002.586-.383 1.512-.383.831 0 1.455.341.622.335.969 1.022.346.682.346 1.726V539h-1.257v-5.114q0-.963-.5-1.502-.5-.543-1.375-.543-.602 0-1.076.261a1.87 1.87 0 0 0-.74.762q-.272.5-.272 1.214m10.841 5.092q-1.15 0-1.981-.543a3.54 3.54 0 0 1-1.279-1.497q-.447-.953-.447-2.178 0-1.247.458-2.2.464-.959 1.289-1.497.83-.543 1.939-.543.863 0 1.555.319.693.32 1.135.895.442.576.549 1.342h-1.257q-.144-.559-.64-.99-.49-.437-1.321-.437-.734 0-1.289.383-.548.379-.857 1.071-.304.687-.304 1.614 0 .948.298 1.651.304.703.853 1.092.554.39 1.299.389.49 0 .89-.17t.676-.49q.277-.32.395-.767h1.257a2.9 2.9 0 0 1-1.63 2.221q-.682.336-1.588.335m6.312-11.079V539h-1.257v-10.909zm7.459 7.564v-4.837h1.257V539h-1.257v-1.385h-.085a2.7 2.7 0 0 1-.895 1.06q-.607.432-1.534.432-.767 0-1.364-.336-.596-.34-.937-1.023-.34-.687-.341-1.731v-5.199h1.257v5.114q0 .894.501 1.427.506.533 1.289.533.468 0 .953-.24.49-.238.821-.735.335-.495.335-1.262m6.649 3.515q-1.023 0-1.805-.516-.784-.522-1.226-1.47-.441-.954-.442-2.254 0-1.289.442-2.237t1.231-1.465q.788-.516 1.822-.516.798 0 1.262.266.469.261.714.597.25.33.389.543h.106v-4.027h1.257V539h-1.214v-1.257h-.149a8 8 0 0 1-.395.565q-.255.335-.729.601-.474.261-1.263.261m.171-1.129q.756 0 1.278-.394.522-.4.794-1.103.271-.708.271-1.635 0-.916-.266-1.603-.266-.693-.788-1.076-.522-.389-1.289-.389-.8 0-1.332.41-.528.404-.794 1.103a4.4 4.4 0 0 0-.261 1.555q0 .874.267 1.587.271.709.799 1.13.532.415 1.321.415m6.056.959v-8.182h1.257V539zm.639-9.545a.9.9 0 0 1-.633-.251.8.8 0 0 1-.261-.602q0-.351.261-.602a.9.9 0 0 1 .633-.25q.368 0 .629.25a.8.8 0 0 1 .266.602.8.8 0 0 1-.266.602.88.88 0 0 1-.629.251m4.178 4.623V539h-1.257v-8.182h1.214v1.279h.107q.288-.624.873-1.002.586-.383 1.513-.383.831 0 1.454.341.624.335.97 1.022.346.682.346 1.726V539h-1.257v-5.114q0-.963-.501-1.502-.501-.543-1.374-.543-.602 0-1.076.261a1.86 1.86 0 0 0-.74.762q-.273.5-.272 1.214m10.82 8.161q-.912 0-1.566-.235a3.3 3.3 0 0 1-1.092-.607 3.3 3.3 0 0 1-.687-.799l1.001-.703q.17.223.431.511.261.294.714.506.458.219 1.199.219.99 0 1.635-.48.645-.479.645-1.502v-1.662h-.107a7 7 0 0 1-.394.554q-.25.325-.725.581-.468.25-1.267.25a3.4 3.4 0 0 1-1.779-.469q-.783-.468-1.242-1.363-.452-.895-.452-2.174 0-1.256.442-2.189.442-.937 1.23-1.449.789-.516 1.822-.516.799 0 1.268.266.474.261.724.597.256.33.394.543h.128v-1.3h1.215v8.416q0 1.055-.48 1.716a2.73 2.73 0 0 1-1.278.974 4.8 4.8 0 0 1-1.779.315m-.043-4.496q.756 0 1.279-.346t.793-.996q.272-.65.272-1.556 0-.884-.266-1.561-.267-.676-.789-1.06-.522-.383-1.289-.383-.799 0-1.332.405-.527.405-.793 1.086a4.2 4.2 0 0 0-.261 1.513q0 .852.266 1.508.272.65.799 1.022.533.368 1.321.368M831.255 539l-2.493-8.182h1.321l1.769 6.264h.085l1.747-6.264h1.343l1.725 6.243h.086l1.768-6.243h1.321L837.434 539h-1.236l-1.789-6.286h-.128l-1.79 6.286zm12.742.192q-.778 0-1.412-.293a2.43 2.43 0 0 1-1.007-.858q-.372-.564-.372-1.363 0-.703.277-1.14.276-.442.74-.693a4 4 0 0 1 1.023-.373q.564-.127 1.134-.202.745-.096 1.209-.144.47-.053.682-.176.219-.121.219-.426v-.042q0-.788-.432-1.226-.426-.436-1.294-.436-.9 0-1.412.394t-.719.841l-1.193-.426q.32-.745.852-1.161a3.2 3.2 0 0 1 1.172-.586q.639-.17 1.257-.17.395 0 .906.096.516.09.996.378.485.287.804.868t.32 1.555V539h-1.257v-1.108h-.064a2.2 2.2 0 0 1-.426.57 2.5 2.5 0 0 1-.794.517q-.495.213-1.209.213m.191-1.13q.747 0 1.258-.292a2 2 0 0 0 1.044-1.732v-1.15q-.08.095-.352.176a6 6 0 0 1-.618.133q-.346.052-.676.096-.325.037-.528.064a4.8 4.8 0 0 0-.916.207q-.42.14-.682.421-.255.277-.255.756 0 .656.484.991.49.33 1.241.33m11.649-5.411-1.13.319a2 2 0 0 0-.314-.548 1.5 1.5 0 0 0-.554-.448q-.351-.176-.9-.176-.751 0-1.252.347-.495.34-.495.868 0 .468.341.74.34.271 1.065.453l1.214.298q1.098.266 1.636.815.538.543.538 1.401 0 .704-.405 1.257-.399.555-1.119.874-.719.32-1.672.319-1.252 0-2.072-.543t-1.039-1.587l1.193-.299q.171.661.645.991.48.33 1.251.33.88 0 1.396-.372.522-.379.522-.906a.95.95 0 0 0-.298-.714q-.298-.293-.916-.436l-1.364-.32q-1.124-.267-1.651-.826-.522-.564-.522-1.411 0-.693.389-1.225a2.64 2.64 0 0 1 1.07-.837q.683-.303 1.545-.303 1.215 0 1.907.532.697.532.991 1.407m3.298 1.427V539h-1.257v-10.909h1.257v4.006h.107q.287-.635.863-1.007.58-.378 1.544-.378.837 0 1.465.335.629.33.975 1.018.352.681.352 1.736V539h-1.257v-5.114q0-.974-.507-1.507-.5-.538-1.39-.538a2.3 2.3 0 0 0-1.108.261 1.9 1.9 0 0 0-.767.762q-.277.5-.277 1.214m11.036 5.092q-1.184 0-2.04-.522a3.5 3.5 0 0 1-1.316-1.47q-.458-.948-.458-2.205t.458-2.216q.464-.964 1.289-1.502.83-.543 1.939-.543.64 0 1.262.213.624.213 1.135.692.512.474.815 1.257t.304 1.929v.532h-6.307v-1.086h5.028q0-.693-.277-1.236a2.1 2.1 0 0 0-.778-.858q-.5-.314-1.182-.314-.751 0-1.3.373a2.45 2.45 0 0 0-.836.959 2.8 2.8 0 0 0-.293 1.267v.725q0 .927.32 1.571.324.639.9.975.575.33 1.337.33.495 0 .895-.138.405-.144.697-.426.294-.288.453-.714l1.215.341a2.7 2.7 0 0 1-.645 1.086 3.1 3.1 0 0 1-1.118.725 4.2 4.2 0 0 1-1.497.255m5.3-.17v-8.182h1.214v1.236h.086q.224-.607.809-.985a2.4 2.4 0 0 1 1.321-.379 12 12 0 0 1 .661.022v1.278a3 3 0 0 0-.293-.048 3 3 0 0 0-.474-.037q-.597 0-1.066.25a1.9 1.9 0 0 0-.735.682 1.84 1.84 0 0 0-.266.985V539zm12.207.192q-.778 0-1.411-.293a2.4 2.4 0 0 1-1.007-.858q-.373-.564-.373-1.363 0-.703.277-1.14.277-.442.741-.693a3.9 3.9 0 0 1 1.022-.373 13 13 0 0 1 1.135-.202q.745-.096 1.209-.144.47-.053.682-.176.218-.121.218-.426v-.042q0-.788-.431-1.226-.426-.436-1.295-.436-.9 0-1.411.394-.512.394-.719.841l-1.193-.426q.32-.745.852-1.161a3.2 3.2 0 0 1 1.172-.586q.639-.17 1.257-.17.394 0 .905.096.517.09.996.378.486.287.805.868t.319 1.555V539h-1.257v-1.108h-.064a2.2 2.2 0 0 1-.426.57 2.5 2.5 0 0 1-.793.517q-.496.213-1.21.213m.192-1.13q.745 0 1.257-.292a2 2 0 0 0 1.044-1.732v-1.15q-.08.095-.351.176a6 6 0 0 1-.618.133q-.347.052-.677.096a24 24 0 0 0-.527.064 4.7 4.7 0 0 0-.916.207 1.6 1.6 0 0 0-.682.421q-.256.277-.256.756 0 .656.485.991.49.33 1.241.33m7.11-3.984V539h-1.257v-8.182h1.214v1.279h.107q.288-.624.873-1.002.586-.383 1.513-.383.831 0 1.454.341.624.335.97 1.022.346.682.346 1.726V539h-1.257v-5.114q0-.963-.501-1.502-.501-.543-1.374-.543-.602 0-1.076.261a1.87 1.87 0 0 0-.74.762q-.273.5-.272 1.214m10.607 5.092q-1.023 0-1.806-.516-.783-.522-1.225-1.47-.442-.954-.442-2.254 0-1.289.442-2.237t1.23-1.465q.789-.516 1.822-.516.8 0 1.262.266.47.261.714.597.25.33.389.543h.107v-4.027h1.257V539h-1.215v-1.257h-.149a8 8 0 0 1-.394.565 2.35 2.35 0 0 1-.73.601q-.474.261-1.262.261m.17-1.129q.756 0 1.279-.394.522-.4.793-1.103.272-.708.272-1.635 0-.916-.266-1.603-.267-.693-.789-1.076-.522-.389-1.289-.389-.798 0-1.331.41-.528.404-.794 1.103a4.4 4.4 0 0 0-.261 1.555q0 .874.266 1.587.272.709.799 1.13.533.415 1.321.415m10.446.959v-10.909h1.257v4.027h.106q.14-.213.384-.543.25-.336.714-.597.468-.266 1.268-.266 1.033 0 1.821.516.789.517 1.231 1.465t.442 2.237q0 1.3-.442 2.254-.442.948-1.225 1.47-.783.516-1.806.516-.789 0-1.263-.261a2.3 2.3 0 0 1-.729-.601 8 8 0 0 1-.395-.565h-.149V539zm1.236-4.091q0 .927.271 1.635.272.704.794 1.103.522.394 1.278.394.79 0 1.316-.415.533-.421.799-1.13a4.4 4.4 0 0 0 .272-1.587q0-.863-.267-1.555-.26-.698-.793-1.103-.528-.41-1.327-.41-.767 0-1.289.389-.521.383-.788 1.076-.267.687-.266 1.603m11.234 4.261q-1.108 0-1.945-.527-.831-.527-1.299-1.475-.464-.948-.464-2.216 0-1.28.464-2.232.468-.953 1.299-1.481.837-.528 1.945-.527 1.108 0 1.939.527.836.528 1.299 1.481.47.952.469 2.232 0 1.268-.469 2.216a3.53 3.53 0 0 1-1.299 1.475q-.832.528-1.939.527m0-1.129q.841 0 1.385-.431.543-.432.804-1.135t.261-1.523-.261-1.529a2.6 2.6 0 0 0-.804-1.145q-.544-.437-1.385-.437-.842 0-1.385.437a2.6 2.6 0 0 0-.805 1.145 4.4 4.4 0 0 0-.261 1.529q0 .82.261 1.523t.805 1.135q.543.43 1.385.431m6.883-9.95V539h-1.257v-10.909zm5.861 2.727v1.066h-4.24v-1.066zm-3.004-1.96h1.257v7.798q0 .533.154.799a.8.8 0 0 0 .405.352q.25.085.527.085.208 0 .341-.021l.213-.043.256 1.129a2.5 2.5 0 0 1-.357.096 2.6 2.6 0 0 1-.581.054q-.533 0-1.044-.23a2.1 2.1 0 0 1-.841-.697q-.33-.47-.33-1.183zm7.579 5.54q0 2.013-.527 3.707a11.4 11.4 0 0 1-1.497 3.111h-1.108q.384-.528.714-1.3.336-.767.586-1.683a15 15 0 0 0 .389-1.902 13.4 13.4 0 0 0-.101-4.506 15 15 0 0 0-.661-2.424q-.416-1.118-.927-1.821h1.108q.975 1.421 1.497 3.116.527 1.688.527 3.702M543.145 135h-3.367v-10.909h3.516q1.587 0 2.716.655 1.13.65 1.731 1.87.603 1.214.602 2.908 0 1.705-.607 2.935a4.33 4.33 0 0 1-1.768 1.886q-1.162.655-2.823.655m-2.046-1.172h1.96q1.353 0 2.243-.522a3.2 3.2 0 0 0 1.326-1.486q.437-.964.437-2.296 0-1.322-.431-2.274a3.2 3.2 0 0 0-1.29-1.471q-.857-.516-2.136-.516h-2.109zm12.72 1.342q-1.182 0-2.04-.522a3.5 3.5 0 0 1-1.316-1.47q-.458-.948-.458-2.205t.458-2.216q.464-.964 1.289-1.502.832-.543 1.939-.543.64 0 1.263.213t1.134.692q.512.474.815 1.257.304.783.304 1.929v.532H550.9v-1.086h5.029a2.7 2.7 0 0 0-.277-1.236 2.1 2.1 0 0 0-.778-.858q-.5-.314-1.183-.314-.75 0-1.299.373a2.45 2.45 0 0 0-.837.959 2.8 2.8 0 0 0-.293 1.267v.725q0 .927.32 1.571.326.639.9.975.575.33 1.337.33.496 0 .895-.138.405-.144.698-.426a1.95 1.95 0 0 0 .453-.714l1.214.341a2.7 2.7 0 0 1-.644 1.086 3.14 3.14 0 0 1-1.119.725 4.2 4.2 0 0 1-1.497.255m5.3 2.898v-11.25h1.215v1.3h.149q.138-.213.383-.543.25-.336.714-.597.469-.267 1.268-.266 1.033 0 1.822.516.787.517 1.23 1.465t.442 2.237q0 1.3-.442 2.254-.442.948-1.225 1.47-.783.516-1.806.516-.788 0-1.262-.261a2.35 2.35 0 0 1-.73-.601 8 8 0 0 1-.394-.565h-.107v4.325zm1.236-7.159q0 .927.272 1.635.271.704.793 1.103.522.394 1.279.394.788 0 1.316-.415.532-.421.799-1.13a4.4 4.4 0 0 0 .271-1.587q0-.863-.266-1.555a2.4 2.4 0 0 0-.794-1.103q-.527-.41-1.326-.41-.767 0-1.289.389-.522.383-.789 1.076-.266.687-.266 1.603m11.463-4.091v1.066h-4.24v-1.066zm-3.004-1.96h1.257v7.798q0 .533.154.799a.8.8 0 0 0 .405.352q.25.085.528.085.207 0 .341-.021l.213-.043.255 1.129a2.5 2.5 0 0 1-.357.096 2.6 2.6 0 0 1-.58.054q-.533 0-1.044-.23a2.07 2.07 0 0 1-.842-.697q-.33-.47-.33-1.183zm6.328 5.22V135h-1.257v-10.909h1.257v4.006h.107a2.3 2.3 0 0 1 .863-1.007q.58-.378 1.544-.378.837 0 1.465.335.628.33.975 1.018.351.681.351 1.736V135h-1.257v-5.114q0-.974-.506-1.507-.5-.538-1.39-.538a2.3 2.3 0 0 0-1.108.261 1.9 1.9 0 0 0-.767.762q-.277.5-.277 1.214m8.521 5.007a.92.92 0 0 1-.676-.282.92.92 0 0 1-.282-.677q0-.394.282-.676a.92.92 0 0 1 .676-.282q.395 0 .677.282a.92.92 0 0 1 .282.676.994.994 0 0 1-.479.831.9.9 0 0 1-.48.128m0-6.072a.92.92 0 0 1-.676-.283.92.92 0 0 1-.282-.676q0-.394.282-.677a.92.92 0 0 1 .676-.282q.395 0 .677.282a.93.93 0 0 1 .282.677.9.9 0 0 1-.133.479 1 1 0 0 1-.346.352.9.9 0 0 1-.48.128m10.907 6.136q-1.098 0-1.939-.389-.837-.394-1.305-1.081a2.7 2.7 0 0 1-.464-1.577 2.9 2.9 0 0 1 1.029-2.264 2.3 2.3 0 0 1 1.081-.506v-.064a2.1 2.1 0 0 1-1.247-.878 2.67 2.67 0 0 1-.458-1.551 2.64 2.64 0 0 1 .421-1.486 2.97 2.97 0 0 1 1.172-1.033q.751-.378 1.71-.378.948 0 1.694.378t1.172 1.033q.431.656.436 1.486a2.7 2.7 0 0 1-.474 1.551 2.1 2.1 0 0 1-1.23.878v.064q.591.107 1.065.506.474.395.757.986.282.586.287 1.278a2.75 2.75 0 0 1-.479 1.577q-.47.687-1.305 1.081-.831.39-1.923.389m0-1.172q.74 0 1.278-.239.538-.24.831-.677.293-.436.299-1.023a1.97 1.97 0 0 0-.32-1.092 2.17 2.17 0 0 0-.858-.745 2.7 2.7 0 0 0-1.23-.272q-.698 0-1.247.272a2.16 2.16 0 0 0-.857.745q-.309.474-.304 1.092-.005.587.283 1.023.293.437.836.677.543.239 1.289.239m0-5.177q.585 0 1.039-.235a1.8 1.8 0 0 0 .719-.655q.26-.42.266-.985a1.8 1.8 0 0 0-.261-.964 1.7 1.7 0 0 0-.708-.64 2.3 2.3 0 0 0-1.055-.229q-.613 0-1.071.229a1.66 1.66 0 0 0-.708.64 1.77 1.77 0 0 0-.245.964q-.005.564.25.985.261.421.719.655.459.235 1.055.235m9.371 6.349a4 4 0 0 1-1.342-.256 3.2 3.2 0 0 1-1.226-.825q-.553-.586-.889-1.582-.336-1.002-.336-2.514 0-1.449.272-2.568.272-1.123.788-1.891.517-.772 1.247-1.172a3.4 3.4 0 0 1 1.656-.399q.916 0 1.63.367.72.363 1.172 1.012.453.651.586 1.497h-1.3a2.4 2.4 0 0 0-.703-1.22q-.521-.484-1.385-.484-1.268 0-1.997 1.102-.724 1.103-.73 3.095h.085a3.2 3.2 0 0 1 2.685-1.449q.938 0 1.715.469.778.463 1.247 1.284.468.815.468 1.869a3.86 3.86 0 0 1-.452 1.854 3.45 3.45 0 0 1-1.274 1.332q-.814.49-1.917.479m0-1.172q.671 0 1.204-.335.537-.336.847-.901.314-.564.314-1.257 0-.677-.304-1.23a2.3 2.3 0 0 0-.825-.89 2.2 2.2 0 0 0-1.194-.33q-.505 0-.942.203a2.4 2.4 0 0 0-.767.543 2.6 2.6 0 0 0-.512.794 2.527 2.527 0 0 0 .117 2.146 2.5 2.5 0 0 0 .842.911q.538.346 1.22.346m6.163 1.108a.93.93 0 0 1-.677-.282.92.92 0 0 1-.282-.677q0-.394.282-.676a.93.93 0 0 1 .677-.282q.394 0 .676.282a.92.92 0 0 1 .283.676.9.9 0 0 1-.133.48 1 1 0 0 1-.347.351.9.9 0 0 1-.479.128m3.193-.085v-.959l3.601-3.942a24 24 0 0 0 1.044-1.203 4.4 4.4 0 0 0 .607-.97q.203-.458.203-.959 0-.575-.277-.996a1.8 1.8 0 0 0-.746-.65 2.4 2.4 0 0 0-1.065-.229q-.628 0-1.098.261-.463.256-.719.719-.25.464-.25 1.087h-1.257q0-.958.442-1.683t1.204-1.129a3.6 3.6 0 0 1 1.72-.405q.96 0 1.7.405.74.403 1.161 1.092.42.687.421 1.528 0 .603-.219 1.178-.213.57-.746 1.273a23 23 0 0 1-1.464 1.704l-2.451 2.621v.085h5.071V135zm13.322 0v-8.182h1.215v1.279h.106q.256-.655.826-1.018.57-.367 1.369-.367.81 0 1.348.367.543.363.847 1.018h.085q.314-.635.943-1.007.628-.378 1.507-.378 1.098 0 1.795.687.698.681.698 2.125V135h-1.257v-5.476q0-.906-.496-1.294a1.83 1.83 0 0 0-1.166-.389q-.863 0-1.337.522-.474.516-.474 1.31V135h-1.279v-5.604q0-.698-.452-1.124-.453-.43-1.167-.431-.49 0-.916.261a1.97 1.97 0 0 0-.682.724q-.255.459-.256 1.06V135zm13.037 0v-8.182h1.215v1.279h.106q.256-.655.826-1.018.57-.367 1.369-.367.81 0 1.348.367.543.363.847 1.018h.085q.314-.635.943-1.007.628-.378 1.507-.378 1.098 0 1.795.687.698.681.698 2.125V135h-1.257v-5.476q0-.906-.495-1.294a1.84 1.84 0 0 0-1.167-.389q-.863 0-1.337.522-.474.516-.474 1.31V135h-1.278v-5.604q0-.698-.453-1.124-.453-.43-1.167-.431-.49 0-.916.261a1.97 1.97 0 0 0-.682.724q-.255.459-.255 1.06V135zM280.691 135l-2.983-10.909h1.342l2.28 8.885h.106l2.323-8.885h1.491l2.323 8.885h.106l2.28-8.885h1.343L288.319 135h-1.364l-2.408-8.693h-.085L282.054 135zm12.086 0v-8.182h1.257V135zm.639-9.545a.9.9 0 0 1-.634-.251.8.8 0 0 1-.261-.602q0-.351.261-.602a.9.9 0 0 1 .634-.25q.368 0 .629.25a.8.8 0 0 1 .266.602.8.8 0 0 1-.266.602.88.88 0 0 1-.629.251m6.01 9.715q-1.023 0-1.806-.516-.783-.522-1.225-1.47-.442-.954-.442-2.254 0-1.289.442-2.237t1.231-1.465q.787-.516 1.821-.516.8 0 1.263.266.468.261.714.597.25.33.388.543h.107v-4.027h1.257V135h-1.214v-1.257h-.15a8 8 0 0 1-.394.565q-.255.335-.729.601-.475.261-1.263.261m.171-1.129q.756 0 1.278-.394.522-.4.794-1.103.271-.708.271-1.635 0-.916-.266-1.603-.266-.693-.788-1.076-.522-.389-1.289-.389-.8 0-1.332.41-.527.404-.794 1.103a4.4 4.4 0 0 0-.261 1.555q0 .874.267 1.587.271.709.799 1.13.532.415 1.321.415m9.614-7.223v1.066h-4.24v-1.066zm-3.004-1.96h1.257v7.798q0 .533.155.799a.8.8 0 0 0 .404.352q.25.085.528.085.207 0 .341-.021l.213-.043.255 1.129a3 3 0 0 1-.356.096 2.6 2.6 0 0 1-.581.054q-.533 0-1.044-.23a2.1 2.1 0 0 1-.842-.697q-.33-.47-.33-1.183zm6.328 5.22V135h-1.257v-10.909h1.257v4.006h.107a2.3 2.3 0 0 1 .863-1.007q.58-.378 1.544-.378.837 0 1.465.335.629.33.975 1.018.351.681.352 1.736V135h-1.258v-5.114q0-.974-.506-1.507-.5-.538-1.39-.538a2.3 2.3 0 0 0-1.108.261 1.9 1.9 0 0 0-.767.762q-.277.5-.277 1.214m8.522 5.007a.92.92 0 0 1-.677-.282.92.92 0 0 1-.282-.677q0-.394.282-.676a.92.92 0 0 1 .677-.282q.394 0 .676.282a.92.92 0 0 1 .282.676.9.9 0 0 1-.133.48 1 1 0 0 1-.346.351.9.9 0 0 1-.479.128m0-6.072a.92.92 0 0 1-.677-.283.92.92 0 0 1-.282-.676q0-.394.282-.677a.92.92 0 0 1 .677-.282q.394 0 .676.282a.93.93 0 0 1 .282.677.9.9 0 0 1-.133.479 1 1 0 0 1-.346.352.9.9 0 0 1-.479.128m11.247-4.922V135h-1.321v-9.524h-.064l-2.663 1.768v-1.342l2.727-1.811zm2.882 8.672v-1.087l4.794-7.585h.788v1.683h-.533l-3.622 5.732v.085h6.456v1.172zm5.135 2.237v-10.909h1.257V135zm8.303.149q-1.205 0-2.051-.655-.847-.66-1.295-1.912-.447-1.257-.447-3.037 0-1.768.447-3.02.453-1.257 1.3-1.917.852-.666 2.046-.666 1.192 0 2.04.666.852.66 1.299 1.917.453 1.252.453 3.02 0 1.78-.447 3.037-.448 1.252-1.295 1.912-.846.655-2.05.655m0-1.172q1.193 0 1.853-1.15.661-1.15.661-3.282 0-1.416-.304-2.413-.298-.996-.863-1.518a1.9 1.9 0 0 0-1.347-.522q-1.183 0-1.849 1.167-.666 1.161-.666 3.286 0 1.418.299 2.408.297.991.857 1.508.565.516 1.359.516m6.373 1.108a.93.93 0 0 1-.677-.282.92.92 0 0 1-.282-.677q0-.394.282-.676a.93.93 0 0 1 .677-.282q.394 0 .676.282a.92.92 0 0 1 .283.676.9.9 0 0 1-.133.48 1 1 0 0 1-.347.351.9.9 0 0 1-.479.128m6.564-11.143q.671.005 1.342.255.672.25 1.225.831.555.576.89 1.572t.335 2.498q0 1.454-.277 2.583-.271 1.125-.788 1.897a3.5 3.5 0 0 1-1.246 1.172q-.73.399-1.652.399-.916 0-1.635-.362a3.2 3.2 0 0 1-1.172-1.017 3.54 3.54 0 0 1-.58-1.519h1.299q.176.751.698 1.242.528.484 1.39.484 1.263 0 1.993-1.102.735-1.103.735-3.116h-.086a3.4 3.4 0 0 1-.708.772 3.14 3.14 0 0 1-1.976.676 3.3 3.3 0 0 1-1.721-.463 3.5 3.5 0 0 1-1.246-1.284q-.464-.82-.464-1.875 0-1 .448-1.832a3.45 3.45 0 0 1 1.268-1.332q.82-.495 1.928-.479m0 1.172q-.672 0-1.209.335-.534.33-.847.895a2.5 2.5 0 0 0-.309 1.241q0 .682.298 1.241.304.554.826.885.527.325 1.198.325.507 0 .943-.198.437-.202.762-.548.33-.352.516-.794.187-.447.187-.932 0-.64-.309-1.199a2.46 2.46 0 0 0-.842-.905 2.18 2.18 0 0 0-1.214-.346M371.688 135v-8.182h1.215v1.279h.106q.256-.655.826-1.018.57-.367 1.369-.367.81 0 1.347.367.544.363.847 1.018h.086q.314-.635.942-1.007.629-.378 1.508-.378 1.097 0 1.795.687.698.681.698 2.125V135h-1.257v-5.476q0-.906-.496-1.294a1.83 1.83 0 0 0-1.166-.389q-.864 0-1.337.522-.474.516-.474 1.31V135h-1.279v-5.604q0-.698-.452-1.124-.453-.43-1.167-.431-.49 0-.916.261a1.97 1.97 0 0 0-.682.724 2.13 2.13 0 0 0-.256 1.06V135zm13.037 0v-8.182h1.215v1.279h.106q.256-.655.826-1.018.57-.367 1.369-.367.81 0 1.348.367.543.363.847 1.018h.085q.314-.635.943-1.007.628-.378 1.507-.378 1.098 0 1.795.687.698.681.698 2.125V135h-1.257v-5.476q0-.906-.496-1.294a1.83 1.83 0 0 0-1.166-.389q-.863 0-1.337.522-.474.516-.474 1.31V135h-1.279v-5.604q0-.698-.452-1.124-.453-.43-1.167-.431-.49 0-.916.261a1.97 1.97 0 0 0-.682.724q-.255.459-.256 1.06V135zM796.736 153l-2.983-10.909h1.343l2.279 8.885h.107l2.322-8.885h1.492l2.322 8.885h.107l2.28-8.885h1.342L804.364 153H803l-2.407-8.693h-.086L798.1 153zm12.086 0v-8.182h1.258V153zm.64-9.545a.9.9 0 0 1-.634-.251.8.8 0 0 1-.261-.602q0-.351.261-.602a.9.9 0 0 1 .634-.25q.367 0 .628.25a.8.8 0 0 1 .267.602.8.8 0 0 1-.267.602.87.87 0 0 1-.628.251m6.01 9.715q-1.023 0-1.806-.516-.784-.522-1.225-1.47-.443-.954-.443-2.254 0-1.289.443-2.237.442-.948 1.23-1.465.789-.516 1.822-.516.798 0 1.262.266.47.261.714.597.25.33.389.543h.106v-4.027h1.258V153h-1.215v-1.257h-.149a8 8 0 0 1-.394.565 2.35 2.35 0 0 1-.73.601q-.474.261-1.262.261m.17-1.129q.756 0 1.278-.394.522-.4.794-1.103.272-.708.272-1.635 0-.916-.267-1.603-.266-.693-.788-1.076-.522-.389-1.289-.389-.8 0-1.332.41-.527.404-.793 1.103a4.4 4.4 0 0 0-.261 1.555q0 .874.266 1.587.271.709.799 1.13.532.415 1.321.415m9.615-7.223v1.066h-4.24v-1.066zm-3.005-1.96h1.257v7.798q0 .533.155.799a.8.8 0 0 0 .405.352q.25.085.527.085.208 0 .341-.021l.213-.043.256 1.129a2.5 2.5 0 0 1-.357.096 2.6 2.6 0 0 1-.581.054q-.532 0-1.044-.23a2.07 2.07 0 0 1-.841-.697q-.331-.47-.331-1.183zm6.329 5.22V153h-1.258v-10.909h1.258v4.006h.106q.288-.635.863-1.007.58-.378 1.545-.378.836 0 1.465.335.629.33.974 1.018.352.681.352 1.736V153h-1.257v-5.114q0-.974-.506-1.507-.5-.538-1.39-.538-.619 0-1.108.261a1.9 1.9 0 0 0-.767.762q-.277.5-.277 1.214m8.521 5.007a.93.93 0 0 1-.677-.282.92.92 0 0 1-.282-.677q0-.394.282-.676a.93.93 0 0 1 .677-.282q.394 0 .676.282a.92.92 0 0 1 .283.676.9.9 0 0 1-.133.48 1 1 0 0 1-.347.351.9.9 0 0 1-.479.128m0-6.072a.92.92 0 0 1-.677-.283.92.92 0 0 1-.282-.676q0-.394.282-.677a.93.93 0 0 1 .677-.282q.394 0 .676.282a.92.92 0 0 1 .283.677.9.9 0 0 1-.133.479 1 1 0 0 1-.347.352.9.9 0 0 1-.479.128m11.247-4.922V153h-1.321v-9.524h-.064l-2.663 1.768v-1.342l2.727-1.811zm6.696 11.058q-1.204 0-2.051-.655-.846-.66-1.294-1.912-.448-1.257-.448-3.037 0-1.768.448-3.02.453-1.257 1.299-1.917.853-.666 2.046-.666t2.04.666q.852.66 1.3 1.917.453 1.252.453 3.02 0 1.78-.448 3.037-.447 1.252-1.294 1.912-.848.655-2.051.655m0-1.172q1.192 0 1.854-1.15.66-1.15.66-3.282 0-1.416-.303-2.413-.299-.996-.863-1.518a1.9 1.9 0 0 0-1.348-.522q-1.183 0-1.848 1.167-.666 1.161-.666 3.286 0 1.418.298 2.408.299.991.858 1.508.564.516 1.358.516m9.652-9.886V153h-1.321v-9.524h-.064l-2.663 1.768v-1.342l2.727-1.811zm3.43 10.994a.92.92 0 0 1-.676-.282.92.92 0 0 1-.282-.677q0-.394.282-.676a.92.92 0 0 1 .676-.282q.395 0 .677.282a.92.92 0 0 1 .282.676.994.994 0 0 1-.479.831.9.9 0 0 1-.48.128m3.194-.085v-.959l3.601-3.942q.633-.691 1.044-1.203.41-.517.607-.97.202-.458.202-.959a1.77 1.77 0 0 0-.277-.996 1.8 1.8 0 0 0-.746-.65 2.4 2.4 0 0 0-1.065-.229q-.629 0-1.097.261-.464.256-.719.719a2.25 2.25 0 0 0-.251 1.087h-1.257q0-.959.442-1.683t1.204-1.129a3.6 3.6 0 0 1 1.721-.405q.958 0 1.699.405.741.404 1.161 1.092.421.687.421 1.528 0 .602-.218 1.178-.213.57-.746 1.273-.528.697-1.465 1.704l-2.45 2.621v.085h5.071V153zm13.322 0v-8.182h1.214v1.279h.107q.255-.655.825-1.018.57-.367 1.369-.367.81 0 1.348.367.543.363.847 1.018h.085q.315-.635.943-1.007.629-.378 1.507-.378 1.098 0 1.796.687.697.682.697 2.125V153h-1.257v-5.476q0-.906-.495-1.294a1.84 1.84 0 0 0-1.167-.389q-.863 0-1.337.522-.474.516-.474 1.31V153h-1.278v-5.604q0-.698-.453-1.124-.453-.43-1.166-.431-.49 0-.917.261-.42.26-.681.724a2.13 2.13 0 0 0-.256 1.06V153zm13.037 0v-8.182h1.214v1.279h.107q.255-.655.826-1.018.57-.367 1.368-.367.81 0 1.348.367.543.363.847 1.018h.085q.315-.635.943-1.007.629-.378 1.508-.378 1.097 0 1.795.687.698.682.698 2.125V153h-1.258v-5.476q0-.906-.495-1.294a1.84 1.84 0 0 0-1.167-.389q-.862 0-1.337.522-.474.516-.474 1.31V153h-1.278v-5.604q0-.698-.453-1.124-.452-.43-1.166-.431-.49 0-.917.261-.42.26-.681.724a2.13 2.13 0 0 0-.256 1.06V153zM42.691 339v-10.909h1.321v4.858h5.817v-4.858h1.32V339h-1.32v-4.879h-5.817V339zm14.364.17q-1.184 0-2.04-.522a3.5 3.5 0 0 1-1.316-1.47q-.459-.948-.458-2.205 0-1.257.458-2.216.463-.964 1.289-1.502.83-.543 1.939-.543.64 0 1.262.213.624.213 1.135.692.51.474.815 1.257.303.783.303 1.929v.532h-6.306v-1.086h5.028q0-.693-.277-1.236a2.1 2.1 0 0 0-.778-.858q-.501-.314-1.182-.314-.751 0-1.3.373-.542.367-.836.959a2.8 2.8 0 0 0-.293 1.267v.725q0 .926.32 1.571.324.639.9.975.575.33 1.337.33.495 0 .895-.138a1.9 1.9 0 0 0 .697-.426 1.94 1.94 0 0 0 .453-.714l1.215.341a2.7 2.7 0 0 1-.645 1.086 3.1 3.1 0 0 1-1.119.725q-.665.255-1.496.255m5.3-.17v-8.182h1.257V339zm.639-9.545a.9.9 0 0 1-.634-.251.8.8 0 0 1-.261-.602q0-.351.261-.602a.9.9 0 0 1 .634-.25q.367 0 .628.25a.8.8 0 0 1 .267.602.8.8 0 0 1-.267.602.88.88 0 0 1-.628.251m6.223 12.784q-.911 0-1.566-.235a3.3 3.3 0 0 1-1.092-.607 3.3 3.3 0 0 1-.687-.799l1.001-.703q.17.223.431.511.261.293.714.506.459.219 1.199.219.99 0 1.635-.48.645-.479.645-1.502v-1.662h-.107a7 7 0 0 1-.394.554q-.25.325-.724.581-.47.25-1.268.25a3.4 3.4 0 0 1-1.78-.469q-.782-.468-1.24-1.363-.453-.895-.453-2.174 0-1.257.442-2.189.442-.937 1.23-1.449.789-.516 1.822-.516.799 0 1.268.266.474.261.724.597.255.33.394.543h.128v-1.3h1.215v8.416q0 1.055-.48 1.716a2.73 2.73 0 0 1-1.278.974 4.8 4.8 0 0 1-1.78.315m-.043-4.496q.756 0 1.279-.346t.793-.996.272-1.556q0-.884-.266-1.561t-.789-1.06-1.289-.383q-.799 0-1.332.405-.527.405-.793 1.086a4.2 4.2 0 0 0-.261 1.513q0 .852.266 1.508.272.65.8 1.022.532.368 1.32.368m7.138-3.665V339h-1.257v-10.909h1.257v4.006h.106q.288-.635.863-1.007.58-.378 1.545-.378.837 0 1.465.335.629.33.975 1.018.351.681.351 1.736V339H80.36v-5.114q0-.974-.506-1.507-.5-.538-1.39-.538a2.3 2.3 0 0 0-1.108.261 1.9 1.9 0 0 0-.767.762q-.277.5-.277 1.214m11.163-3.26v1.066h-4.24v-1.066zm-3.004-1.96h1.257v7.798q0 .533.155.799a.8.8 0 0 0 .405.352q.25.085.527.085.208 0 .34-.021l.214-.043.256 1.129a3 3 0 0 1-.357.096 2.6 2.6 0 0 1-.58.054q-.534 0-1.045-.23a2.07 2.07 0 0 1-.842-.697q-.33-.47-.33-1.183zm5.812 10.227a.92.92 0 0 1-.677-.282.92.92 0 0 1-.282-.677q0-.394.282-.676a.92.92 0 0 1 .677-.282q.394 0 .676.282a.92.92 0 0 1 .282.676.991.991 0 0 1-.48.831.9.9 0 0 1-.478.128m0-6.072a.92.92 0 0 1-.677-.283.92.92 0 0 1-.282-.676q0-.394.282-.677a.92.92 0 0 1 .677-.282q.394 0 .676.282a.93.93 0 0 1 .282.677.9.9 0 0 1-.133.479 1 1 0 0 1-.346.352.9.9 0 0 1-.48.128m11.247-4.922V339h-1.321v-9.524h-.064l-2.663 1.768v-1.342l2.727-1.811zm6.61-.149q.672.005 1.343.255t1.225.831q.554.576.889 1.572.336.996.336 2.498 0 1.454-.277 2.583-.272 1.125-.788 1.897a3.5 3.5 0 0 1-1.247 1.172q-.73.399-1.651.399-.916 0-1.635-.362a3.2 3.2 0 0 1-1.172-1.017 3.54 3.54 0 0 1-.581-1.519h1.3q.176.752.698 1.242.527.484 1.39.484 1.263 0 1.992-1.102.735-1.103.735-3.116h-.085a3.4 3.4 0 0 1-.709.772 3.13 3.13 0 0 1-1.976.676 3.3 3.3 0 0 1-1.72-.463 3.5 3.5 0 0 1-1.247-1.284q-.463-.82-.463-1.875 0-1 .447-1.832a3.46 3.46 0 0 1 1.268-1.332q.82-.495 1.928-.479m0 1.172q-.67 0-1.209.335-.532.33-.847.895a2.5 2.5 0 0 0-.309 1.241q0 .682.299 1.241.303.554.825.885.528.324 1.199.325.505 0 .943-.198a2.4 2.4 0 0 0 .761-.548q.33-.352.517-.794.186-.447.186-.932 0-.64-.309-1.199a2.45 2.45 0 0 0-.841-.905 2.2 2.2 0 0 0-1.215-.346m5.936 9.886 4.879-9.652v-.085h-5.625v-1.172h6.989v1.236L115.461 339zm7.291.085a.92.92 0 0 1-.677-.282.92.92 0 0 1-.282-.677q0-.394.282-.676a.92.92 0 0 1 .677-.282q.393 0 .676.282a.92.92 0 0 1 .282.676.9.9 0 0 1-.133.48 1 1 0 0 1-.346.351.9.9 0 0 1-.479.128m6.382.064q-.938 0-1.688-.373a3.13 3.13 0 0 1-1.204-1.022 2.8 2.8 0 0 1-.495-1.481h1.278q.074.74.671 1.225.602.479 1.438.479.672 0 1.193-.314.528-.314.826-.863.304-.554.304-1.252 0-.714-.315-1.273a2.3 2.3 0 0 0-.852-.889 2.4 2.4 0 0 0-1.241-.331 3.4 3.4 0 0 0-1.028.155 2.9 2.9 0 0 0-.868.399l-1.236-.149.66-5.369h5.668v1.172h-4.56l-.383 3.217h.064q.336-.266.841-.442a3.2 3.2 0 0 1 1.055-.176q1.002 0 1.785.48.788.474 1.235 1.299.453.826.453 1.886 0 1.044-.469 1.864a3.4 3.4 0 0 1-1.278 1.289q-.815.47-1.854.469m9.957-.149v-8.182h1.215v1.279h.106q.256-.655.826-1.018.57-.367 1.369-.367.81 0 1.348.367.543.363.846 1.018h.086a2.37 2.37 0 0 1 .943-1.007q.628-.378 1.507-.378 1.098 0 1.795.687.698.682.698 2.125V339h-1.257v-5.476q0-.906-.496-1.294a1.83 1.83 0 0 0-1.166-.389q-.863 0-1.337.522-.474.516-.474 1.31V339h-1.279v-5.604q0-.698-.452-1.124-.453-.43-1.167-.431-.49 0-.916.261a1.97 1.97 0 0 0-.682.724q-.255.459-.256 1.06V339zm13.037 0v-8.182h1.215v1.279h.106q.256-.655.826-1.018.57-.367 1.369-.367.81 0 1.348.367.543.363.847 1.018h.085q.314-.635.943-1.007.628-.378 1.507-.378 1.098 0 1.795.687.698.682.698 2.125V339h-1.257v-5.476q0-.906-.496-1.294a1.83 1.83 0 0 0-1.166-.389q-.863 0-1.337.522-.474.516-.474 1.31V339h-1.279v-5.604q0-.698-.452-1.124-.453-.43-1.167-.431-.49 0-.916.261a1.97 1.97 0 0 0-.682.724q-.255.459-.256 1.06V339zM1025.33 339v-10.909h1.32v4.858h5.82v-4.858h1.32V339h-1.32v-4.879h-5.82V339zm14.36.17q-1.185 0-2.04-.522c-.57-.351-1-.841-1.31-1.47-.31-.632-.46-1.367-.46-2.205s.15-1.577.46-2.216q.465-.964 1.29-1.502c.55-.362 1.2-.543 1.93-.543.43 0 .85.071 1.27.213.41.142.79.373 1.13.692.34.316.61.735.82 1.257q.3.783.3 1.929v.532h-6.31v-1.086h5.03c0-.462-.09-.874-.28-1.236a2.1 2.1 0 0 0-.77-.858c-.34-.209-.73-.314-1.19-.314-.5 0-.93.124-1.3.373-.36.245-.64.564-.83.959-.2.394-.29.816-.29 1.267v.725c0 .618.1 1.141.32 1.571q.315.639.9.975c.38.22.82.33 1.33.33q.495 0 .9-.138.405-.144.69-.426c.2-.192.35-.43.46-.714l1.21.341c-.13.412-.34.774-.64 1.086-.3.309-.68.551-1.12.725q-.66.255-1.5.255m5.3-.17v-8.182h1.26V339zm.64-9.545a.9.9 0 0 1-.63-.251.78.78 0 0 1-.26-.602c0-.234.08-.435.26-.602q.27-.25.63-.25.375 0 .63.25.27.25.27.602t-.27.602a.86.86 0 0 1-.63.251m6.22 12.784q-.9 0-1.56-.235c-.44-.152-.8-.355-1.09-.607a3.3 3.3 0 0 1-.69-.799l1-.703c.11.149.26.319.43.511.18.196.41.364.72.506.3.146.7.219 1.19.219.67 0 1.21-.16 1.64-.48s.64-.82.64-1.502v-1.662h-.1c-.09.149-.23.334-.4.554q-.24.325-.72.581c-.31.167-.74.25-1.27.25-.66 0-1.25-.156-1.78-.469-.52-.312-.93-.767-1.24-1.363q-.45-.895-.45-2.174c0-.838.15-1.567.44-2.189q.45-.937 1.23-1.449c.53-.344 1.13-.516 1.82-.516.54 0 .96.088 1.27.266q.48.261.72.597c.18.22.31.401.4.543h.13v-1.3h1.21v8.416q0 1.055-.48 1.716a2.7 2.7 0 0 1-1.28.974c-.53.21-1.12.315-1.78.315m-.04-4.496c.51 0 .93-.116 1.28-.346.35-.231.61-.563.79-.996.19-.434.28-.952.28-1.556q0-.884-.27-1.561c-.18-.451-.44-.804-.79-1.06q-.525-.383-1.29-.383c-.53 0-.97.135-1.33.405-.35.27-.62.632-.79 1.086-.18.455-.26.959-.26 1.513 0 .568.08 1.071.26 1.508.18.433.45.774.8 1.022q.54.368 1.32.368m7.14-3.665V339h-1.26v-10.909h1.26v4.006h.11c.19-.423.48-.759.86-1.007.39-.252.9-.378 1.54-.378q.84 0 1.47.335c.42.22.74.56.97 1.018q.36.681.36 1.736V339H1063v-5.114q0-.974-.51-1.507c-.33-.359-.8-.538-1.39-.538q-.615 0-1.11.261a1.86 1.86 0 0 0-.76.762c-.19.333-.28.738-.28 1.214m11.16-3.26v1.066h-4.24v-1.066zm-3-1.96h1.26v7.798q0 .533.15.799c.11.174.24.291.41.352.16.057.34.085.52.085.14 0 .25-.007.34-.021l.22-.043.25 1.129a2.695 2.695 0 0 1-.94.15c-.35 0-.7-.077-1.04-.23a2 2 0 0 1-.84-.697q-.33-.47-.33-1.183zm5.81 10.227a.94.94 0 0 1-.68-.282.954.954 0 0 1 0-1.353.94.94 0 0 1 .68-.282c.26 0 .49.094.68.282a.95.95 0 0 1 .15 1.156c-.09.145-.2.263-.35.351a.9.9 0 0 1-.48.128m0-6.072a.94.94 0 0 1-.68-.283.956.956 0 0 1 0-1.353.94.94 0 0 1 .68-.282c.26 0 .49.094.68.282a.956.956 0 0 1 .15 1.156c-.09.146-.2.263-.35.352a.9.9 0 0 1-.48.128m11.25-4.922V339h-1.32v-9.524h-.07l-2.66 1.768v-1.342l2.73-1.811zm6.69 11.058c-.8 0-1.48-.218-2.05-.655q-.84-.66-1.29-1.912-.45-1.257-.45-3.037 0-1.768.45-3.02c.3-.838.73-1.477 1.3-1.917q.855-.666 2.04-.666 1.2 0 2.04.666c.57.44 1 1.079 1.3 1.917.3.835.46 1.841.46 3.02q0 1.78-.45 3.037c-.3.834-.73 1.472-1.3 1.912-.56.437-1.24.655-2.05.655m0-1.172q1.2 0 1.86-1.15t.66-3.282c0-.944-.1-1.748-.31-2.413-.19-.664-.48-1.17-.86-1.518a1.9 1.9 0 0 0-1.35-.522c-.79 0-1.4.389-1.85 1.167q-.66 1.162-.66 3.286 0 1.418.3 2.408c.2.661.48 1.163.85 1.508.38.344.83.516 1.36.516m5.56-1.214v-1.087l4.8-7.585h.79v1.683h-.54l-3.62 5.732v.085h6.46v1.172zm5.14 2.237v-10.909h1.26V339zm5.17.085a.94.94 0 0 1-.68-.282.91.91 0 0 1-.28-.677c0-.262.09-.488.28-.676a.94.94 0 0 1 .68-.282c.26 0 .49.094.68.282.18.188.28.414.28.676 0 .174-.05.334-.14.48a1 1 0 0 1-.34.351.9.9 0 0 1-.48.128m6.35.064c-.73 0-1.38-.129-1.94-.389-.56-.262-.99-.623-1.3-1.081-.32-.462-.47-.987-.47-1.577q0-.692.27-1.278c.19-.394.44-.723.76-.986q.48-.4 1.08-.506v-.064a2.07 2.07 0 0 1-1.24-.878 2.6 2.6 0 0 1-.46-1.551q-.015-.83.42-1.486.42-.654 1.17-1.033t1.71-.378c.63 0 1.2.126 1.69.378.5.252.89.597 1.18 1.033.28.437.43.933.43 1.486 0 .579-.16 1.096-.47 1.551q-.465.677-1.23.878v.064c.39.071.75.24 1.06.506.32.263.57.592.76.986.19.39.28.817.29 1.278q-.015.885-.48 1.577c-.31.458-.75.819-1.31 1.081q-.825.39-1.92.389m0-1.172c.49 0 .92-.08 1.28-.239.36-.16.63-.386.83-.677q.285-.436.3-1.023c-.01-.412-.11-.776-.32-1.092s-.5-.564-.86-.745a2.7 2.7 0 0 0-1.23-.272c-.47 0-.88.091-1.25.272-.36.181-.64.429-.85.745s-.31.68-.31 1.092c0 .391.09.732.28 1.023q.3.437.84.677.54.239 1.29.239m0-5.177c.39 0 .74-.078 1.04-.235q.45-.234.72-.655c.17-.28.26-.609.26-.985 0-.37-.09-.691-.26-.964-.17-.277-.4-.49-.71-.64q-.45-.229-1.05-.229c-.41 0-.77.077-1.07.229-.31.15-.54.363-.71.64q-.255.41-.24.964c-.01.376.08.705.25.985.17.281.41.499.71.655.31.157.66.235 1.06.235m9.99 6.2v-8.182h1.21v1.279h.11c.17-.437.45-.776.83-1.018.38-.245.83-.367 1.36-.367q.81 0 1.35.367c.36.242.65.581.85 1.018h.08c.21-.423.53-.759.95-1.007q.63-.378 1.5-.378c.74 0 1.33.229 1.8.687.46.454.7 1.163.7 2.125V339h-1.26v-5.476c0-.604-.17-1.035-.5-1.294a1.8 1.8 0 0 0-1.16-.389c-.58 0-1.02.174-1.34.522-.31.344-.47.781-.47 1.31V339h-1.28v-5.604q0-.698-.45-1.124c-.31-.287-.69-.431-1.17-.431-.33 0-.63.087-.92.261-.28.174-.5.415-.68.724-.17.306-.25.659-.25 1.06V339zm13.04 0v-8.182h1.21v1.279h.11c.17-.437.44-.776.82-1.018.38-.245.84-.367 1.37-.367q.81 0 1.35.367c.36.242.64.581.85 1.018h.08c.21-.423.52-.759.94-1.007.42-.252.93-.378 1.51-.378q1.095 0 1.8.687.69.682.69 2.125V339h-1.25v-5.476c0-.604-.17-1.035-.5-1.294a1.83 1.83 0 0 0-1.16-.389c-.58 0-1.03.174-1.34.522q-.48.516-.48 1.31V339h-1.27v-5.604c0-.465-.16-.84-.46-1.124-.3-.287-.69-.431-1.16-.431-.33 0-.64.087-.92.261s-.51.415-.68.724c-.17.306-.26.659-.26 1.06V339zM290.303 523l-2.983-10.909h1.342l2.28 8.885h.106l2.323-8.885h1.491l2.323 8.885h.106l2.28-8.885h1.342L297.93 523h-1.363l-2.408-8.693h-.085L291.666 523zm14.755.17q-1.183 0-2.041-.522a3.5 3.5 0 0 1-1.315-1.47q-.458-.948-.458-2.205t.458-2.216q.463-.964 1.289-1.502.83-.543 1.939-.543.64 0 1.262.213.624.213 1.135.692.511.474.815 1.257t.303 1.929v.532h-6.307v-1.086h5.029q0-.693-.277-1.236a2.1 2.1 0 0 0-.778-.858q-.501-.314-1.182-.314-.751 0-1.3.373a2.45 2.45 0 0 0-.836.959 2.8 2.8 0 0 0-.293 1.267v.725q0 .927.319 1.571.325.639.901.975.575.33 1.337.33.495 0 .894-.138.405-.144.698-.426.293-.288.453-.714l1.214.341a2.7 2.7 0 0 1-.644 1.086 3.14 3.14 0 0 1-1.119.725q-.666.255-1.496.255m5.3-.17v-8.182h1.257V523zm.639-9.545a.9.9 0 0 1-.634-.251.8.8 0 0 1-.261-.602q0-.351.261-.602a.9.9 0 0 1 .634-.25q.367 0 .628.25a.8.8 0 0 1 .267.602.8.8 0 0 1-.267.602.87.87 0 0 1-.628.251m6.223 12.784q-.912 0-1.566-.235a3.3 3.3 0 0 1-1.092-.607 3.3 3.3 0 0 1-.687-.799l1.001-.703q.17.223.431.511.261.294.714.506.459.219 1.199.219.99 0 1.635-.48.645-.479.645-1.502v-1.662h-.107a7 7 0 0 1-.394.554q-.25.325-.725.581-.469.25-1.267.25a3.4 3.4 0 0 1-1.779-.469q-.783-.468-1.242-1.363-.452-.895-.452-2.174 0-1.256.442-2.189.442-.937 1.23-1.449.789-.516 1.822-.516.799 0 1.268.266.474.261.724.597.256.33.394.543h.128v-1.3h1.215v8.416q0 1.055-.48 1.716a2.73 2.73 0 0 1-1.278.974 4.8 4.8 0 0 1-1.779.315m-.043-4.496q.757 0 1.279-.346t.793-.996.272-1.556q0-.884-.266-1.561-.267-.676-.789-1.06-.522-.383-1.289-.383-.799 0-1.332.405-.527.405-.793 1.086a4.2 4.2 0 0 0-.261 1.513q0 .852.266 1.508.272.65.799 1.022.533.368 1.321.368m7.138-3.665V523h-1.257v-10.909h1.257v4.006h.106q.288-.635.863-1.007.58-.378 1.545-.378.837 0 1.465.335.629.33.975 1.018.351.681.351 1.736V523h-1.257v-5.114q0-.974-.506-1.507-.5-.538-1.39-.538a2.3 2.3 0 0 0-1.108.261 1.9 1.9 0 0 0-.767.762q-.277.5-.277 1.214m11.163-3.26v1.066h-4.24v-1.066zm-3.004-1.96h1.257v7.798q0 .533.155.799a.8.8 0 0 0 .404.352q.25.085.528.085.207 0 .341-.021l.213-.043.255 1.129a3 3 0 0 1-.356.096 2.6 2.6 0 0 1-.581.054q-.533 0-1.044-.23a2.1 2.1 0 0 1-.842-.697q-.33-.47-.33-1.183zm5.812 10.227a.92.92 0 0 1-.677-.282.92.92 0 0 1-.282-.677q0-.393.282-.676a.92.92 0 0 1 .677-.282q.393 0 .676.282a.92.92 0 0 1 .282.676.9.9 0 0 1-.133.48 1 1 0 0 1-.346.351.9.9 0 0 1-.479.128m0-6.072a.92.92 0 0 1-.677-.283.92.92 0 0 1-.282-.676q0-.394.282-.677a.92.92 0 0 1 .677-.282q.393 0 .676.282a.93.93 0 0 1 .282.677.9.9 0 0 1-.133.479 1 1 0 0 1-.346.352.9.9 0 0 1-.479.128m10.821 6.136q-.937 0-1.689-.373a3.13 3.13 0 0 1-1.204-1.022 2.8 2.8 0 0 1-.495-1.481h1.278q.075.74.672 1.225.601.479 1.438.479.67 0 1.193-.314.527-.314.826-.863.303-.554.303-1.252 0-.714-.314-1.273a2.3 2.3 0 0 0-.852-.889 2.4 2.4 0 0 0-1.242-.331 3.4 3.4 0 0 0-1.028.155 2.9 2.9 0 0 0-.868.399l-1.236-.149.661-5.369h5.668v1.172h-4.56l-.384 3.217h.064q.336-.266.842-.442a3.2 3.2 0 0 1 1.055-.176q1 0 1.784.48a3.35 3.35 0 0 1 1.236 1.299q.453.826.453 1.886 0 1.044-.469 1.864a3.4 3.4 0 0 1-1.279 1.289q-.815.47-1.853.469m9.126 0q-.937 0-1.689-.373a3.13 3.13 0 0 1-1.204-1.022 2.8 2.8 0 0 1-.495-1.481h1.278q.075.74.671 1.225.602.479 1.439.479.67 0 1.193-.314.527-.314.826-.863.303-.554.303-1.252 0-.714-.314-1.273a2.3 2.3 0 0 0-.852-.889 2.4 2.4 0 0 0-1.242-.331 3.4 3.4 0 0 0-1.028.155 2.9 2.9 0 0 0-.868.399l-1.236-.149.661-5.369h5.667v1.172h-4.559l-.384 3.217h.064q.335-.266.842-.442a3.2 3.2 0 0 1 1.055-.176q1 0 1.784.48a3.35 3.35 0 0 1 1.236 1.299q.453.826.453 1.886 0 1.044-.469 1.864a3.4 3.4 0 0 1-1.279 1.289q-.815.47-1.853.469m9.126 0q-.937 0-1.689-.373a3.13 3.13 0 0 1-1.204-1.022 2.8 2.8 0 0 1-.495-1.481h1.278q.075.74.671 1.225.602.479 1.439.479.67 0 1.193-.314.527-.314.825-.863.304-.554.304-1.252 0-.714-.314-1.273a2.3 2.3 0 0 0-.852-.889 2.4 2.4 0 0 0-1.242-.331 3.4 3.4 0 0 0-1.028.155 2.9 2.9 0 0 0-.868.399l-1.236-.149.661-5.369h5.667v1.172h-4.559l-.384 3.217h.064q.336-.266.842-.442a3.2 3.2 0 0 1 1.055-.176q1 0 1.784.48a3.35 3.35 0 0 1 1.236 1.299q.453.826.453 1.886 0 1.044-.469 1.864a3.4 3.4 0 0 1-1.279 1.289q-.815.47-1.853.469m13.259 3.09q-.91 0-1.566-.235a3.3 3.3 0 0 1-1.092-.607 3.3 3.3 0 0 1-.687-.799l1.001-.703q.171.223.432.511.261.294.714.506.458.219 1.198.219.992 0 1.635-.48.645-.479.645-1.502v-1.662h-.107a7 7 0 0 1-.394.554q-.25.325-.724.581-.469.25-1.268.25-.99 0-1.779-.469-.783-.468-1.241-1.363-.453-.895-.453-2.174 0-1.256.442-2.189.442-.937 1.231-1.449.787-.516 1.821-.516.8 0 1.268.266.474.261.725.597.255.33.394.543h.128v-1.3h1.214v8.416q0 1.055-.479 1.716a2.73 2.73 0 0 1-1.279.974 4.8 4.8 0 0 1-1.779.315m-.042-4.496q.756 0 1.278-.346t.794-.996q.271-.65.271-1.556 0-.884-.266-1.561t-.788-1.06-1.289-.383q-.8 0-1.332.405-.528.405-.794 1.086a4.2 4.2 0 0 0-.261 1.513q0 .852.267 1.508.271.65.799 1.022.532.368 1.321.368M730.146 177.693a.5.5 0 0 0 0 .707l3.182 3.182a.5.5 0 1 0 .708-.707l-2.829-2.828 2.829-2.829a.5.5 0 0 0-.708-.707zm242.708.707a.5.5 0 0 0 0-.707l-3.182-3.182a.5.5 0 0 0-.708.707l2.829 2.829-2.829 2.828a.5.5 0 0 0 .708.707zm-242.354-.353v.5h242v-1h-242z"/><path stroke="#000" d="M729.5 174v8.094M973.5 174v8.094"/><path fill="#000" d="M1004.35 208.146a.49.49 0 0 0-.7 0l-3.19 3.182a.51.51 0 0 0 0 .708c.2.195.52.195.71 0l2.83-2.829 2.83 2.829c.19.195.51.195.71 0a.51.51 0 0 0 0-.708zm-.7 249.708c.19.195.51.195.7 0l3.19-3.182a.51.51 0 0 0 0-.708.504.504 0 0 0-.71 0l-2.83 2.829-2.83-2.829a.504.504 0 0 0-.71 0 .51.51 0 0 0 0 .708zM1004 208.5h-.5v249h1v-249z"/><path stroke="#000" d="M1000 207.5h8.11M1000 458.5h8.11"/><path stroke="#9fa0a0" stroke-linecap="round" stroke-linejoin="round" stroke-width=".5" d="M457.93 206.92v-15.46M217.35 190v247.39M215.8 220.26v218.17"/><path stroke="#9fa0a0" stroke-linecap="round" stroke-linejoin="round" d="m215.8 438.16 1.55-.77M219.52 218.42h234.76M219.52 204.81h234.76M215.88 206.18l1.47-1.37M215.81 219.18l1.54-.76M217.35 218.42h1.79M217.35 204.81h1.77"/><path stroke="#9fa0a0" stroke-linecap="round" stroke-linejoin="round" stroke-width=".5" d="m215.88 206.18-2.74 29.73M215.86 210.44l-2.72 27.67"/><path stroke="#9fa0a0" stroke-linecap="round" stroke-linejoin="round" d="M454.68 204.81h1.78M458 219.18l-1.54-.76M457.93 206.18l-1.47-1.37M438.02 474.25v-2.45M438.02 474.25l-1.49.91-1.63.74-1.76.55M438.63 455.51v-2.84M438.58 455.51l-.55 15.91M458 438.16l-1.54-.77M458 438.43l2.65 13.68"/><path stroke="#231815" stroke-linecap="round" stroke-linejoin="round" d="m217.35 190-1.47 1.46"/><path stroke="#9fa0a0" stroke-linecap="round" stroke-linejoin="round" d="m438.02 474.25 4.91-.47 4.79-1.43 3.22-1.63"/><path stroke="#231815" stroke-linecap="round" stroke-linejoin="round" d="m226.09 470.44-3.57-1.79-3.13-2.31-2.36-2.48-1.71-2.51"/><path stroke="#9fa0a0" stroke-linecap="round" stroke-linejoin="round" d="m235.79 474.25 1.49.91 1.62.74 1.77.55"/><path stroke="#231815" stroke-linecap="round" stroke-linejoin="round" d="m220.43 220-.57.32-.38.49M220.63 220.14l-.4.23"/><path stroke="#9fa0a0" stroke-linecap="round" stroke-linejoin="round" stroke-width=".5" d="m438.63 455.51 2.33-.13 2.31-.39 2.23-.62 2.12-.85 2-1.07 1.85-1.28 1.65-1.45 1.45-1.62 1.21-1.76.96-1.87.7-1.97.42-2.02.14-2.05"/><path stroke="#231815" stroke-linecap="round" stroke-linejoin="round" d="m438.03 471.56 2.47-.12 2.74-.41 2.68-.69 2.56-.98 2.38-1.23 2.18-1.47 1.95-1.67 1.7-1.88M215.68 461.11l-.41-.86M213 245.63l.03-.1.13-.08h.05"/><path stroke="#231815" stroke-linecap="round" stroke-linejoin="round" stroke-width=".5" d="m234.72 213.85-.22.36-.16.18"/><path stroke="#231815" stroke-linecap="round" stroke-linejoin="round" d="m220.23 220.37-.26.35M438.63 450.69l3.41-.33 3.23-.97 2.9-1.56 2.42-2.08 1.83-2.49 1.13-2.77"/><path stroke="#9fa0a0" stroke-linecap="round" stroke-linejoin="round" stroke-width=".5" d="m438.63 452.67 2.33-.13 2.29-.39 2.2-.64 2.1-.88 1.93-1.11 1.76-1.32 1.53-1.5 1.3-1.67 1.03-1.79.75-1.89.46-1.96.15-2"/><path stroke="#231815" stroke-linecap="round" stroke-linejoin="round" d="m438.63 451.17 2.1-.12 2.06-.35 1.99-.58 1.89-.8 1.74-1 1.59-1.19 1.38-1.35 1.17-1.5.93-1.62.68-1.7M235.17 451.17h203.46M235.17 450.69h203.46"/><path stroke="#231815" stroke-linecap="round" stroke-linejoin="round" stroke-width=".5" d="M235.17 455.51h.06"/><path stroke="#231815" stroke-linecap="round" stroke-linejoin="round" d="m219.11 437.79.13 1.4M213.18 452.98l-.02-.87M219.1 437.39l.01.4M213.15 243.18l-.01-2.55M213.14 238.66v1.91M213.14 240.63v-2.93M213.14 240.57l.01 4.5M213.14 237.7v-1.3M213.14 236.4v-13.2M213.16 245.07l-.01-1.89"/><path stroke="#9fa0a0" stroke-linecap="round" stroke-linejoin="round" stroke-width=".5" d="M215.88 191.46v14.72M215.88 206.18v.74l-.01.97v1.17l-.01 1.38M215.81 219.18l-.01.55v.53M215.86 210.44l-.02 3.95-.01 2.3-.02 2.49"/><path stroke="#231815" stroke-linecap="round" stroke-linejoin="round" d="M213.14 223.23v-.03M213.14 235.94v-.03M213.14 238.15v-.04M215.88 191.46l-2.74 31.74"/><path stroke="#9fa0a0" stroke-linecap="round" stroke-linejoin="round" stroke-width=".5" d="m215.8 220.26-2.64 24.48"/><path stroke="#231815" stroke-linecap="round" stroke-linejoin="round" d="m213.15 244.76.01-.02"/><path stroke="#9fa0a0" stroke-linecap="round" stroke-linejoin="round" stroke-width=".5" d="m231.39 213.03.05-.42.15-.37.23-.3.29-.24.32-.17.36-.09.36-.04.36.04.36.1.32.16.29.24.23.3.15.37.05.42"/><path stroke="#231815" stroke-linecap="round" stroke-linejoin="round" d="m213.15 245.07.01-.03M213 224.35l.04-.2.1-.11M213 239.2l.03-.19.11-.11M219.48 220.81l-.14.58M219.97 220.72l-.1.4"/><path stroke="#231815" stroke-linecap="round" stroke-linejoin="round" stroke-width=".5" d="m234.86 213.44-.14.41"/><path stroke="#231815" stroke-linecap="round" stroke-linejoin="round" d="m219.56 220.04-.04-.9"/><path stroke="#9fa0a0" stroke-linecap="round" stroke-linejoin="round" d="m235.23 455.51.54 15.91"/><path stroke="#231815" stroke-linecap="round" stroke-linejoin="round" d="m219.17 220.41-.07-1.99"/><path stroke="#231815" stroke-linecap="round" stroke-linejoin="round" stroke-width=".5" d="m219.17 206.69-.05-1.37M219.12 190l.05 2M219.13 206.4v4.97M219.12 204.81l.01 1.59M219.13 211.37v4.52l.01 2.53"/><path stroke="#231815" stroke-linecap="round" stroke-linejoin="round" d="M219.1 437.39V218.42"/><path stroke="#231815" stroke-linecap="round" stroke-linejoin="round" stroke-width=".5" d="M219.12 190v14.81M219.17 192v27.41"/><path stroke="#231815" stroke-linecap="round" stroke-linejoin="round" d="M219.34 221.39v216.46"/><path stroke="#231815" stroke-linecap="round" stroke-linejoin="round" stroke-width=".5" d="M219.52 219.14v-29.09"/><path stroke="#9fa0a0" stroke-linecap="round" stroke-linejoin="round" d="M235.17 455.51v-2.84"/><path stroke="#231815" stroke-linecap="round" stroke-linejoin="round" d="M235.77 471.56v-.14"/><path stroke="#9fa0a0" stroke-linecap="round" stroke-linejoin="round" d="M235.79 471.8v2.45"/><path stroke="#9fa0a0" stroke-linecap="round" stroke-linejoin="round" stroke-width=".5" d="m234.91 213.03-.05.41"/><path stroke="#231815" stroke-linecap="round" stroke-linejoin="round" d="m213.15 452.13.01-.02"/><path stroke="#9fa0a0" stroke-linecap="round" stroke-linejoin="round" d="m215.8 438.43-2.64 13.68"/><path stroke="#231815" stroke-linecap="round" stroke-linejoin="round" d="m453.93 437.57.53.28"/><path stroke="#9fa0a0" stroke-linecap="round" stroke-linejoin="round" stroke-width=".5" d="m231.58 213.85-.14-.4-.05-.42"/><path stroke="#231815" stroke-linecap="round" stroke-linejoin="round" stroke-width=".5" d="m231.8 214.21-.22-.36M231.96 214.39l-.16-.18"/><path stroke="#231815" stroke-linecap="round" stroke-linejoin="round" d="M452.7 220.06H221.1M219.56 220.04h.79"/><path stroke="#231815" stroke-linecap="round" stroke-linejoin="round" stroke-width=".5" d="M453.45 220.04h.79"/><path stroke="#231815" stroke-linecap="round" stroke-linejoin="round" d="M452.7 219.88H221.1"/><path stroke="#9fa0a0" stroke-linecap="round" stroke-linejoin="round" d="M454.67 218.42h1.79"/><path stroke="#231815" stroke-linecap="round" stroke-linejoin="round" d="M438.03 471.56v-.14M221.1 220.06l-.47.08M221.1 219.88l-.67.12"/><path stroke="#231815" stroke-linecap="round" stroke-linejoin="round" stroke-width=".5" d="M219.17 192h.35M454.28 192h.36"/><path stroke="#231815" stroke-linecap="round" stroke-linejoin="round" d="M219.52 190.05h234.76M217.35 190h1.77M454.68 190h1.78M453.37 220l-.67-.12M460.65 452.13v-.02"/><path stroke="#9fa0a0" stroke-linecap="round" stroke-linejoin="round" stroke-width=".5" d="m458 220.26 2.65 24.48M457.94 210.44l2.73 27.67M457.93 206.18l2.74 29.73"/><path stroke="#231815" stroke-linecap="round" stroke-linejoin="round" d="m457.93 191.46 2.74 31.74M460.67 238.15v-.04M460.67 235.94v-.03M460.67 223.2v.03"/><path stroke="#9fa0a0" stroke-linecap="round" stroke-linejoin="round" stroke-width=".5" d="m457.98 216.69-.02-2.3M457.96 214.39l-.02-3.95M457.94 210.44l-.01-1.38v-2.14M458 220.26v-.71l-.02-2.86"/><path stroke="#231815" stroke-linecap="round" stroke-linejoin="round" d="M453.93 437.57V221.12"/><path stroke="#231815" stroke-linecap="round" stroke-linejoin="round" stroke-width=".5" d="M454.28 219.14v-29.09"/><path stroke="#231815" stroke-linecap="round" stroke-linejoin="round" d="M454.46 437.85V221.39"/><path stroke="#231815" stroke-linecap="round" stroke-linejoin="round" stroke-width=".5" d="M454.64 192v27.41"/><path stroke="#231815" stroke-linecap="round" stroke-linejoin="round" d="M454.64 220.41v218.03"/><path stroke="#231815" stroke-linecap="round" stroke-linejoin="round" stroke-width=".5" d="M454.7 218.42v218.97"/><path stroke="#9fa0a0" stroke-linecap="round" stroke-linejoin="round" stroke-width=".5" d="M456.46 190v247.39M458 438.43V220.26"/><path stroke="#231815" stroke-linecap="round" stroke-linejoin="round" d="M460.8 224.35v228.42M460.67 223.2v13.54"/><path stroke="#231815" stroke-linecap="round" stroke-linejoin="round" stroke-width=".5" d="M454.68 190v14.97"/><path stroke="#231815" stroke-linecap="round" stroke-linejoin="round" d="m460.66 240.56.01-1.9M460.65 452.13V244.76"/><path stroke="#231815" stroke-linecap="round" stroke-linejoin="round" stroke-width=".5" d="m454.68 206.4-.01 1.39v10.63"/><path stroke="#231815" stroke-linecap="round" stroke-linejoin="round" d="m460.67 236.74-.01 3.93M460.66 240.67l-.01 2.74v1.33"/><path stroke="#231815" stroke-linecap="round" stroke-linejoin="round" d="m460.65 244.76.01-1.43v-2.77"/><path stroke="#231815" stroke-linecap="round" stroke-linejoin="round" stroke-width=".5" d="M454.68 204.97v1.43"/><path stroke="#231815" stroke-linecap="round" stroke-linejoin="round" d="M454.7 437.79v-.4"/><path stroke="#231815" stroke-linecap="round" stroke-linejoin="round" stroke-width=".5" d="m454.64 192 .04-2"/><path stroke="#231815" stroke-linecap="round" stroke-linejoin="round" d="m454.64 220.41.06-1.99"/><path stroke="#231815" stroke-linecap="round" stroke-linejoin="round" stroke-width=".5" d="m454.24 220.04.04-.9"/><path stroke="#231815" stroke-linecap="round" stroke-linejoin="round" d="m460.65 452.11-.1 1.79M460.52 454.22l.13-2.09M460.8 452.77l-.19 2.56-.12.69M454.57 439.19l.13-1.4M453.55 440.49l.38-2.92M454.06 440.86l.4-3.01M454.24 440.58l.22-1.65M460.65 245.07v-.03M460.65 244.76v-.02M460.55 453.9l-.25 1.56M460.05 456.57l.47-2.35M454.16 440.96l.41-1.77M460.3 455.46l-.34 1.37M460.49 456.02l-.56 2.12M459.96 456.83l-.41 1.21M452.96 443.58l1.1-2.72M453.57 220.37l-.4-.23-.47-.08M460.64 224.01l.13.14.03.2M453.84 220.72l-.27-.35M454.33 220.81l-.39-.49-.57-.32M453.93 221.12l-.09-.4M454.46 221.39l-.13-.58M459.25 458.87l.8-2.3M458.16 463.38l1.65-4.1.23-.99M459.55 458.04l-.46 1.11M458.54 460.24l-.26.59M459.93 458.14l-1.44 3.21M459.09 459.15l-.54 1.07M458.12 461.06l1.13-2.19M458.28 460.83l-2.08 3.01-2.66 2.62-2.82 1.96-2.77 1.4-2.86 1-3.28.71-3.79.27M456.69 463.11l1.43-2.05"/><path stroke="#231815" stroke-linecap="round" stroke-linejoin="round" d="m458.49 461.35-2.01 2.87-2.7 2.65-2.86 2M450.94 470.72l1.04-.67 3.49-3 2.69-3.67M450.92 468.87l-2.82 1.41-2.9 1.03-3.33.71-3.85.28M456.46 190l1.47 1.46M438.59 475.78l-.28.07M438.31 475.85l-.59.13-4.58.47M433.14 476.45l-4.93.63"/><path stroke="#231815" stroke-linecap="round" stroke-linejoin="round" d="m430.55 476.98 4.43-.49 3.33-.64M235.49 475.85l3.4.65M235.49 475.85l-.27-.07M428.2 477.08l2.35-.1M428.21 477.08h-.01M433.14 476.45l-29.04.17-32.49-.05-34.71-.08M336.9 476.49l-34.87.08-32.59.05M269.44 476.62l-28.77-.17M336.9 477.01l31.9.22 31.16.2 28.25-.35M245.6 477.08l28.35.35 31.15-.2 31.8-.22M245.6 477.08h.01M240.67 476.45l-4.58-.47-.6-.13"/><path stroke="#231815" stroke-linecap="round" stroke-linejoin="round" d="m238.89 476.5 4.5.49 2.22.09M240.67 476.45l4.93.63M460.04 458.29l.45-2.27M438.59 475.78l4.1-1.19 4.72-1.95 3.53-1.92"/><path stroke="#9fa0a0" stroke-linecap="round" stroke-linejoin="round" d="m358.88 391.11 3.08-.26 2.95-.77 2.73-1.24 2.44-1.71 1.96-2.04 1.46-2.34.9-2.53.31-2.68-.3-2.64-.89-2.53-1.45-2.34-1.99-2.08-2.39-1.68-2.72-1.25-2.96-.78-3.13-.27"/><path stroke="#9fa0a0" stroke-linecap="round" stroke-linejoin="round" stroke-width=".5" d="m358.88 390.35 2.91-.24 2.79-.72 2.58-1.18 2.29-1.61 1.85-1.93 1.38-2.21.86-2.39.29-2.53-.28-2.49-.85-2.39-1.37-2.21-1.88-1.97-2.25-1.59-2.57-1.18-2.79-.73-2.96-.25"/><path stroke="#231815" stroke-linecap="round" stroke-linejoin="round" d="M260.93 312.2v-78.14"/><path stroke="#9fa0a0" stroke-linecap="round" stroke-linejoin="round" d="M358.88 391.11h-43.96"/><path stroke="#9fa0a0" stroke-linecap="round" stroke-linejoin="round" stroke-width=".5" d="M358.88 390.35h-43.96M314.92 364.73l-2.9.24-2.8.72-2.57 1.18-2.3 1.61-1.85 1.93-1.38 2.21-.85 2.39-.3 2.53.29 2.49.84 2.39 1.37 2.21 1.88 1.97 2.26 1.59 2.57 1.18 2.79.73 2.95.25"/><path stroke="#9fa0a0" stroke-linecap="round" stroke-linejoin="round" d="m314.92 363.97-3.07.26-2.96.77-2.73 1.24-2.43 1.71-1.96 2.04-1.46 2.34-.9 2.53-.32 2.68.31 2.63.89 2.54 1.45 2.34 1.99 2.08 2.39 1.68 2.72 1.25 2.95.78 3.13.27"/><path stroke="#9fa0a0" stroke-linecap="round" stroke-linejoin="round" stroke-width=".5" d="M358.88 364.73h-43.96"/><path stroke="#9fa0a0" stroke-linecap="round" stroke-linejoin="round" d="M358.88 363.97h-43.96"/><path stroke="#898989" stroke-linecap="round" stroke-linejoin="round" d="m304.37 377.54.2 1.76.6 1.69.96 1.56 1.33 1.39 1.59 1.12 1.82.83 1.97.52 2.08.17 2.05-.17 1.97-.51 1.82-.83 1.62-1.13 1.31-1.37.97-1.55.6-1.69.21-1.79"/><path stroke="#231815" stroke-linecap="round" stroke-linejoin="round" d="M412.87 312.2H260.93"/><path stroke="#898989" stroke-linecap="round" stroke-linejoin="round" d="m325.47 377.54-.2-1.76-.59-1.69-.97-1.55-1.33-1.39-1.59-1.13-1.81-.83-1.97-.52-2.09-.17-2.05.17-1.97.51-1.82.83-1.62 1.14-1.31 1.36-.97 1.55-.6 1.69-.21 1.79M348.33 377.54l.2 1.76.6 1.69.97 1.56 1.32 1.39 1.59 1.12 1.82.83 1.97.52 2.08.17 2.05-.17 1.97-.51 1.82-.83 1.62-1.13 1.31-1.37.97-1.55.61-1.69.21-1.79"/><path stroke="#898989" stroke-linecap="round" stroke-linejoin="round" d="m369.44 377.54-.21-1.76-.59-1.69-.97-1.55-1.33-1.39-1.59-1.13-1.81-.83-1.97-.52-2.09-.17-2.05.17-1.97.51-1.82.83-1.62 1.14-1.3 1.36-.98 1.55-.6 1.69-.21 1.79"/><path stroke="#231815" stroke-linecap="round" stroke-linejoin="round" d="M260.93 234.06h151.94M412.87 234.06v78.14"/><path stroke="#9fa0a0" stroke-linecap="round" stroke-linejoin="round" stroke-width=".5" d="m234.74 213.8-.17-.23-.24-.21-.29-.17-.33-.11-.37-.07h-.38l-.37.07-.34.12-.28.16-.24.21-.17.23"/><path fill="#4c4948" d="m338.65 198.171-3.23-.57c-.52-.09-.9-.24-1.06-.4s-.08-.33.21-.47c.61-.28 1.97-.36 3.03-.17l6.11 1.08c.26.05.36.14.22.21s-.46.09-.73.04c-2.04-.36-4.09-.73-6.13-1.09-.55-.1-1.25-.06-1.57.09-.15.07-.19.16-.11.24s.28.16.54.2c1.15.2 2.3.41 3.44.61.15.03.25.07.28.12.06.14.29.33.49.46q.345.225.84.42c.67.27 1.52.49 2.5.67.26.05.36.14.21.22-.09.04-.24.07-.42.07-.11 0-.22 0-.32-.03-1.09-.2-2.04-.45-2.79-.75-.73-.29-1.31-.64-1.54-.97z"/><path fill="#4c4948" d="M335.55 200.12c-.54 0-1.06-.07-1.36-.21-2.75-1.19-5.45-2.37-8.12-3.52-.21-.09-.29-.2-.2-.3.08-.1.31-.19.64-.24q3.495-.555 6.9-1.11c.31-.05.69-.06 1.06-.03s.7.09.91.18c1.21.51 2.44 1.02 3.67 1.54.08.03.11.07.09.11s-.1.07-.22.09c-.24.04-.58.02-.75-.05-1.23-.52-2.45-1.03-3.67-1.54a1 1 0 0 0-.23-.05H334q-3.405.555-6.9 1.11a.3.3 0 0 0-.16.06c-.02.03 0 .05.05.08 2.67 1.15 5.37 2.32 8.11 3.51.12.05.35.07.52.04 1.16-.21 2.3-.42 3.44-.62.25-.04.59-.02.77.05.08.04.12.08.09.12-.02.04-.1.08-.22.1q-1.71.315-3.45.63c-.21.04-.45.06-.71.06zM340.71 195.97c-.62.03-1.24.07-1.87.1-.28.02-.58-.04-.66-.12-.04-.04-.02-.08.05-.11s.18-.05.32-.06c.71-.04 1.41-.08 2.12-.11.16 0 .34 0 .47.04 2.37.57 4.75 1.13 7.14 1.7.08.02.14.04.17.07.45.31.71.76.77 1.09.07.37-.05.74-.37 1.1-.05.06-.23.1-.46.1h-.2a.8.8 0 0 1-.33-.08q-.105-.06-.06-.12c.55-.6.49-1.35-.28-1.96-2.28-.55-4.56-1.09-6.82-1.63z"/><path stroke="#9fa0a0" stroke-linecap="round" stroke-linejoin="round" d="M235.79 474.25h202.23"/><path stroke="#231815" stroke-linecap="round" stroke-linejoin="round" d="M438.02 472.3H235.79M438.02 471.8H235.79M438.03 471.56H235.77"/><path stroke="#9fa0a0" stroke-linecap="round" stroke-linejoin="round" d="m222.87 470.72 3.22 1.63 4.79 1.43 4.91.47"/><path stroke="#231815" stroke-linecap="round" stroke-linejoin="round" d="m235.77 471.42-2.05-.08-1.79-.2-1.58-.28-1.39-.33-1.28-.38-1.22-.44-1.2-.5-1.16-.56-1.12-.62-1.08-.67-1.03-.72-.98-.78-.92-.82-.86-.87-.8-.91-.73-.95-.67-.98M235.79 472.3l-2.97-.16-3.23-.58-3.5-1.12"/><path stroke="#231815" stroke-linecap="round" stroke-linejoin="round" d="m235.79 471.8-2.92-.16-3.19-.56-3.44-1.11-3.52-1.76-3.07-2.28-2.33-2.44-1.64-2.38"/><path stroke="#231815" stroke-linecap="round" stroke-linejoin="round" d="m215.7 461.08 1.43 2.05 1.7 1.87 1.95 1.68 2.18 1.46 2.38 1.23 2.57.97 2.68.7 2.73.4 2.45.12M222.87 470.72l3.53 1.92 4.72 1.95 4.1 1.19"/><path stroke="#231815" stroke-linecap="round" stroke-linejoin="round" d="m215.91 461.33-.6-1-.53-1.05M214.57 458.89l1.13 2.19M215.32 461.35l-1.15-2.41M214.78 459.28l-.49-1.15M213.99 459.28l1.65 4.09 2.68 3.67 3.49 3 1.06.68M213.76 456.59l.81 2.3M214.29 458.13l-.44-1.3M214.17 458.94l-.85-2.92M213.85 456.83l-.35-1.37M213.77 458.29l.22.99M213.29 454.24l.47 2.35M213.5 455.46l-.21-1.32M213.32 456.02l-.32-3.25M213.29 454.14l-.11-1.16"/><path stroke="#9fa0a0" stroke-linecap="round" stroke-linejoin="round" stroke-width=".5" d="m217.35 437.39.15 2 .45 1.96.75 1.89 1.03 1.79 1.3 1.67 1.54 1.5 1.75 1.32 1.94 1.11 2.09.88 2.21.64 2.28.39 2.33.13"/><path stroke="#9fa0a0" stroke-linecap="round" stroke-linejoin="round" stroke-width=".5" d="m215.8 438.43.16 2.22.5 2.19.82 2.11 1.12 1.99 1.41 1.85 1.68 1.68 1.9 1.47 2.11 1.25 2.26.99 2.4.72 2.49.45 2.52.16"/><path stroke="#231815" stroke-linecap="round" stroke-linejoin="round" d="m213.15 452.13.14 2.11M219.24 439.19l.41 1.77.67 1.7.94 1.62 1.16 1.5 1.39 1.35 1.58 1.19 1.75 1 1.88.8 1.99.58 2.06.35 2.1.12"/><path stroke="#231815" stroke-linecap="round" stroke-linejoin="round" d="m219.34 437.85.4 3.01 1.11 2.72M219.87 437.57l.39 2.92 1.13 2.77 1.82 2.49 2.42 2.08 2.9 1.56 3.24.97 3.4.33M219.87 221.12v216.45M213.32 456.02l.45 2.27M213 452.77V224.35M213.15 452.13V245.07M213.16 452.11V245.07"/><path stroke="#9fa0a0" stroke-linecap="round" stroke-linejoin="round" stroke-width=".5" d="M235.23 455.51h203.4M235.17 452.67h203.46"/><path stroke="#231815" stroke-linecap="round" stroke-linejoin="round" stroke-width=".5" d="m234.57 214.25-.4.24-.4.15-.41.07h-.41l-.41-.07-.41-.15M230.86 212.66l.07-.46.2-.41.29-.33.37-.26.43-.18.46-.11.47-.04.47.04.46.11.43.18.37.26.29.34.2.4.07.46M235.44 212.66l-.07.45-.18.44-.28.39-.34.31M231.73 214.25l-.34-.31-.28-.39-.18-.44-.07-.45M232.13 214.49l-.4-.24"/><path stroke="#000" stroke-miterlimit="10" stroke-width=".5" d="M322.46 377.54c0 3.57-3.38 6.46-7.54 6.46s-7.54-2.89-7.54-6.46 3.38-6.46 7.54-6.46 7.54 2.89 7.54 6.46Z"/><path stroke="#b3b3b3" stroke-miterlimit="10" stroke-width=".5" d="M321.43 372.85c1.24 1.27 1.99 2.9 1.99 4.69 0 4.03-3.81 7.29-8.5 7.29s-8.5-3.26-8.5-7.29 3.81-7.29 8.5-7.29c1.87 0 3.59.52 5 1.39"/><path stroke="#000" stroke-miterlimit="10" stroke-width=".5" d="M366.42 377.54c0 3.57-3.38 6.46-7.54 6.46s-7.54-2.89-7.54-6.46 3.38-6.46 7.54-6.46 7.54 2.89 7.54 6.46Z"/><path stroke="#b3b3b3" stroke-miterlimit="10" stroke-width=".5" d="M365.4 372.85c1.24 1.27 1.99 2.9 1.99 4.69 0 4.03-3.81 7.29-8.5 7.29s-8.5-3.26-8.5-7.29 3.81-7.29 8.5-7.29c1.87 0 3.59.52 5 1.39"/><path fill="#b5b5b6" d="M360.75 377.54c0 1.03-.84 1.87-1.87 1.87s-1.87-.84-1.87-1.87.84-1.87 1.87-1.87 1.87.84 1.87 1.87"/><path stroke="#231815" stroke-linecap="round" stroke-linejoin="round" d="m751.76 243.75-7.23 12.52M729 370.04v-46.62M729 299.32V216.2"/><path stroke="#231815" stroke-linecap="round" stroke-linejoin="round" stroke-width=".5" d="M731.89 370.04v-46.62M731.89 299.32V216.2"/><path stroke="#231815" stroke-linecap="round" stroke-linejoin="round" d="m753.3 261.33 7.23-12.52M868.03 458.59h24.09M737.92 301.73v19.28"/><path stroke="#231815" stroke-linecap="round" stroke-linejoin="round" stroke-width=".5" d="M868.03 455.7h24.09"/><path stroke="#231815" stroke-linecap="round" stroke-linejoin="round" d="M778.04 446.3h85.17M896.94 446.3h27.35M775.83 444.86l-31.19-70.52M752.37 208v2.9"/><path stroke="#231815" stroke-linecap="round" stroke-linejoin="round" stroke-width=".5" d="M752.37 210.9v.48M754.78 208v2.9"/><path stroke="#231815" stroke-linecap="round" stroke-linejoin="round" d="m744.46 352.49 7.34 12.72M760.57 360.15l-7.35-12.72M795.74 282.46v98.78M800.56 386.06h101.2M973.32 370.04h-2.89M970.43 370.04h-6.14M738.03 370.04h-6.14M729 370.04h2.89"/><path stroke="#231815" stroke-linecap="round" stroke-linejoin="round" stroke-width=".5" d="M827.07 208v2.9M829.48 208v2.9M731.89 366.59H729M970.43 366.59h2.89M731.89 363.95H729M970.43 363.95h2.89M731.89 357.24H729M970.43 357.24h2.89M731.89 353.25H729M970.43 353.25h2.89M973.32 337.23h-2.89M729 337.23h2.89M973.32 334.82h-2.89M729 334.82h2.89M973.32 325.83h-2.89M731.89 325.83H729"/><path stroke="#231815" stroke-linecap="round" stroke-linejoin="round" d="M868.03 451.12v4.58M868.03 458.59v-2.89"/><path stroke="#231815" stroke-linecap="round" stroke-linejoin="round" stroke-width=".5" d="M872.85 208v2.9M875.26 208v2.9M875.26 458.59v-2.89"/><path stroke="#231815" stroke-linecap="round" stroke-linejoin="round" d="M973.32 323.42h-2.89M970.43 323.42h-3.61M731.89 323.42H729M731.89 323.42h3.62"/><path stroke="#231815" stroke-linecap="round" stroke-linejoin="round" stroke-width=".5" d="M884.89 458.59v-2.89"/><path stroke="#231815" stroke-linecap="round" stroke-linejoin="round" d="M892.12 458.59v-2.89M892.12 455.7v-4.58M970.43 299.32h-3.61M729 299.32h2.89M731.89 299.32h3.62M970.43 299.32h2.89"/><path stroke="#231815" stroke-linecap="round" stroke-linejoin="round" stroke-width=".5" d="M729 296.91h2.89M970.43 296.91h2.89"/><path stroke="#231815" stroke-linecap="round" stroke-linejoin="round" d="M906.58 381.24v-98.78"/><path stroke="#231815" stroke-linecap="round" stroke-linejoin="round" stroke-width=".5" d="M973.32 278.84h-2.89"/><path stroke="#231815" stroke-linecap="round" stroke-linejoin="round" d="M901.76 277.64h-101.2"/><path stroke="#231815" stroke-linecap="round" stroke-linejoin="round" stroke-width=".5" d="M973.32 270.86h-2.89M731.89 259.9H729M970.43 259.9h2.89M731.89 255.91H729M970.43 255.91h2.89M947.54 208v2.9"/><path stroke="#231815" stroke-linecap="round" stroke-linejoin="round" d="M949.95 208v2.9"/><path stroke="#231815" stroke-linecap="round" stroke-linejoin="round" stroke-width=".5" d="M949.95 210.9v.48M731.89 249.46H729M970.43 249.46h2.89M731.89 245.46H729M970.43 245.46h2.89"/><path stroke="#231815" stroke-linecap="round" stroke-linejoin="round" d="M964.41 321.01v-19.28"/><path stroke="#231815" stroke-linecap="round" stroke-linejoin="round" stroke-width=".5" d="M970.43 370.04v-46.62M970.43 299.32V216.2"/><path stroke="#231815" stroke-linecap="round" stroke-linejoin="round" d="m926.49 444.86 31.19-70.52"/><path stroke="#231815" stroke-linecap="round" stroke-linejoin="round" stroke-width=".5" d="M973.32 229.45h-2.89M729 229.45h2.89M973.32 227.04h-2.89M729 227.04h2.89"/><path stroke="#231815" stroke-linecap="round" stroke-linejoin="round" d="M973.32 370.04v-46.62M973.32 299.32V216.2"/><path stroke="#231815" stroke-linecap="round" stroke-linejoin="round" stroke-width=".5" d="M973.32 218.61h-2.89M729 218.61h2.89"/><path stroke="#231815" stroke-linecap="round" stroke-linejoin="round" d="M973.32 216.2h-2.89M729 216.2h2.89M731.89 216.2h15.67M954.77 216.2h15.66"/><path stroke="#231815" stroke-linecap="round" stroke-linejoin="round" stroke-width=".5" d="M752.37 210.9h197.58"/><path stroke="#231815" stroke-linecap="round" stroke-linejoin="round" d="M752.37 208h197.58M744.64 374.34a7.22 7.22 0 0 0-6.61-4.3M751.8 365.21a5.055 5.055 0 0 0 6.91 1.85 5.055 5.055 0 0 0 1.85-6.91M753.22 347.43a5.055 5.055 0 0 0-6.91-1.85 5.055 5.055 0 0 0-1.85 6.91M795.74 381.24c0 2.66 2.16 4.82 4.82 4.82M775.83 444.86c.39.87 1.25 1.43 2.2 1.43M760.53 248.81c1.4-2.42.57-5.51-1.85-6.91a5.055 5.055 0 0 0-6.91 1.85M744.53 256.27a5.055 5.055 0 0 0 1.85 6.91c2.42 1.4 5.51.57 6.91-1.85M800.56 277.64c-2.66 0-4.82 2.16-4.82 4.82M747.56 216.2c2.66 0 4.82-2.16 4.82-4.82M735.51 323.42c1.33 0 2.41-1.08 2.41-2.41M737.92 301.73c0-1.33-1.08-2.41-2.41-2.41M964.29 370.04c-2.86 0-5.45 1.69-6.61 4.3M868.03 451.12c0-2.66-2.16-4.82-4.82-4.82M896.94 446.3c-2.66 0-4.82 2.16-4.82 4.82M901.76 386.06c2.66 0 4.82-2.16 4.82-4.82M924.29 446.3c.95 0 1.82-.56 2.2-1.43M938.87 283.72c0-2.79 2.27-5.06 5.06-5.06s5.06 2.27 5.06 5.06-2.27 5.06-5.06 5.06-5.06-2.27-5.06-5.06M906.58 282.46c0-2.66-2.16-4.82-4.82-4.82M949.95 211.38c0 2.66 2.16 4.82 4.82 4.82M966.82 299.32c-1.33 0-2.41 1.08-2.41 2.41M964.41 321.01c0 1.33 1.08 2.41 2.41 2.41M790.93 433.05h9.63M846.34 433.05h9.64M855.98 422.2h-9.64M800.56 422.2h-9.63M845.74 222.1v9.64M856.58 231.74v-9.64M901.16 222.1v9.64M912 231.74v-9.64M790.93 422.2c-2.99 0-5.42 2.43-5.42 5.42s2.43 5.42 5.42 5.42M800.56 433.05c2.99 0 5.42-2.43 5.42-5.42s-2.43-5.42-5.42-5.42M846.34 422.2c-2.99 0-5.42 2.43-5.42 5.42s2.43 5.42 5.42 5.42"/><path stroke="#231815" stroke-linecap="round" stroke-linejoin="round" stroke-width=".5" d="M776.54 398.11c0-1.29 1.05-2.34 2.34-2.34s2.34 1.05 2.34 2.34-1.05 2.34-2.34 2.34-2.34-1.05-2.34-2.34"/><path stroke="#231815" stroke-linecap="round" stroke-linejoin="round" stroke-width=".5" d="M778.64 398.11c0-.13.11-.24.24-.24s.24.11.24.24-.11.24-.24.24-.24-.11-.24-.24"/><path stroke="#231815" stroke-linecap="round" stroke-linejoin="round" d="M790.32 226.92c0-2.99 2.43-5.42 5.42-5.42s5.42 2.43 5.42 5.42-2.43 5.42-5.42 5.42-5.42-2.43-5.42-5.42"/><path stroke="#231815" stroke-linecap="round" stroke-linejoin="round" stroke-width=".5" d="M737.99 231.86c0-1.29 1.05-2.34 2.34-2.34s2.34 1.05 2.34 2.34-1.05 2.34-2.34 2.34-2.34-1.05-2.34-2.34"/><path stroke="#231815" stroke-linecap="round" stroke-linejoin="round" stroke-width=".5" d="M740.09 231.86c0-.13.11-.24.24-.24s.24.11.24.24-.11.24-.24.24-.24-.11-.24-.24"/><path stroke="#231815" stroke-linecap="round" stroke-linejoin="round" d="M901.16 427.63c0-2.99 2.43-5.42 5.42-5.42s5.42 2.43 5.42 5.42-2.43 5.42-5.42 5.42-5.42-2.43-5.42-5.42M855.98 433.05c2.99 0 5.42-2.43 5.42-5.42s-2.43-5.42-5.42-5.42"/><path stroke="#231815" stroke-linecap="round" stroke-linejoin="round" stroke-width=".5" d="M921.1 398.11c0-1.29 1.05-2.34 2.34-2.34s2.34 1.05 2.34 2.34-1.05 2.34-2.34 2.34-2.34-1.05-2.34-2.34"/><path stroke="#231815" stroke-linecap="round" stroke-linejoin="round" stroke-width=".5" d="M923.2 398.11c0-.13.11-.24.24-.24s.24.11.24.24-.11.24-.24.24-.24-.11-.24-.24"/><path stroke="#231815" stroke-linecap="round" stroke-linejoin="round" d="M845.74 231.74c0 2.99 2.43 5.42 5.42 5.42s5.42-2.43 5.42-5.42M856.58 222.1c0-2.99-2.43-5.42-5.42-5.42s-5.42 2.43-5.42 5.42M901.16 231.74c0 2.99 2.43 5.42 5.42 5.42s5.42-2.43 5.42-5.42M912 222.1c0-2.99-2.43-5.42-5.42-5.42s-5.42 2.43-5.42 5.42"/><path stroke="#231815" stroke-linecap="round" stroke-linejoin="round" stroke-width=".5" d="M959.65 231.86c0-1.29 1.05-2.34 2.34-2.34s2.34 1.05 2.34 2.34-1.05 2.34-2.34 2.34-2.34-1.05-2.34-2.34"/><path stroke="#231815" stroke-linecap="round" stroke-linejoin="round" stroke-width=".5" d="M961.76 231.86c0-.13.11-.24.24-.24s.24.11.24.24-.11.24-.24.24-.24-.11-.24-.24"/><path fill="#fff" d="m564.82 471.98-2.77 1.22-3.88 1.53-3.93 1.33-3.75.38h-.03a.29.29 0 0 1-.29-.29l-.43.02c-.07.04-.16.06-.25.03l-15.69-5.93-1.68-1.73-.11-226.19c0-6.56 2.6-12.86 7.24-17.5L575.04 189l82.53 137.2-24.79 21.57-3.16 2.75a113.48 113.48 0 0 0-39 85.7v17.19l-6.41 6.36-6.73 5.24-6.84 4.17-5.8 2.8z"/><path stroke="#000" stroke-linecap="round" stroke-linejoin="round" d="m554.24 476.05 1.99-.69M550.49 476.43l3.75-.38M549.88 475.76h.29M533.79 470.26l15.69 5.93M533.79 470.26l-1.68-1.74M532.11 468.52 532 242.33M632.77 347.77l24.79-21.57M657.56 326.2 575.04 189M575.04 189l-35.8 35.83M550.17 476.14c0 .16.13.29.29.29h.03M549.48 476.19c.09.03.18.02.25-.03.05-.03.1-.08.12-.15.01-.03.02-.07.02-.1M539.24 224.83a24.75 24.75 0 0 0-7.24 17.5M554.24 476.05l3.93-1.33 3.88-1.52 2.77-1.22M577.47 465l6.73-5.23M570.62 469.17l6.85-4.17M564.82 471.98l5.8-2.8v-.01M584.2 459.77l6.42-6.36M629.61 350.52l3.16-2.75M564.82 471.82v.16M590.62 453.41l-.01-17.19M629.61 350.52a113.48 113.48 0 0 0-39 85.7"/><path stroke="#b3b3b3" stroke-linecap="round" stroke-linejoin="round" d="m570.77 395.89 9.16 2.34 8.25 2.31 7.42 2.32M555.02 259.03l41.2 87.56M533.81 243.87l15.42 13.22M550.45 257.53l3.06.01M554.86 457.44l3.33-.84 3.25-.92 3.17-.99M550.44 457.58l3.25.01M534.05 454.21l15.24 3.29M554.75 445.51l3.39-.4 3.3-.46 3.21-.52M565.28 454.47l9.72-3.53 8.39-3.71 7.22-4.01M565.47 443.96l7.38-1.86 6.58-1.84 5.9-1.87 5.28-1.93"/><path stroke="#000" stroke-linecap="round" stroke-linejoin="round" stroke-width=".5" d="m554.24 476.05 1.99-.69"/><path stroke="#000" stroke-linecap="round" stroke-linejoin="round" d="m550.49 476.43 3.75-.38"/><path stroke="#000" stroke-linecap="round" stroke-linejoin="round" stroke-width=".5" d="M549.88 475.76h.29"/><path stroke="#000" stroke-linecap="round" stroke-linejoin="round" d="m533.79 470.26 15.69 5.93"/><path stroke="#b3b3b3" stroke-linecap="round" stroke-linejoin="round" stroke-width=".5" d="M549.61 457.5h-.32"/><path stroke="#000" stroke-linecap="round" stroke-linejoin="round" stroke-width=".5" d="M585.17 452.09h.14l.45.13.32.26.2.37.09.43v.48l-.09.5-.15.51-.21.53-.26.52-.29.5"/><path stroke="#000" stroke-linecap="round" stroke-linejoin="round" d="m533.79 470.26-1.67-1.74"/><path stroke="#000" stroke-linecap="round" stroke-linejoin="round" stroke-width=".5" d="m580.55 460.48-.47-.21-.19-.57.06-.9.3-1.15.55-1.32M535.25 232.68l.96-1.91 1.13-1.82 1.29-1.7 1.44-1.59M533.79 470.26l-.01-.13-.02-.36-.03-.59-.03-.8-.03-1.01-.04-1.21-.04-1.38-.04-1.54-.05-1.67-.04-1.78-.04-1.87-.04-1.94-.04-1.95M533.34 454.03v-.26"/><path stroke="#000" stroke-linecap="round" stroke-linejoin="round" d="M532.12 468.52 532 242.33"/><path stroke="#000" stroke-linecap="round" stroke-linejoin="round" stroke-width=".5" d="m533.23 242.33.12-2.47.38-2.46.63-2.4.89-2.32"/><path stroke="#000" stroke-linecap="round" stroke-linejoin="round" d="m632.77 347.77 24.79-21.58"/><path stroke="#000" stroke-linecap="round" stroke-linejoin="round" stroke-width=".5" d="M533.24 243.03v-.34l-.01-.36M533.34 453.77l-.1-210.74"/><path stroke="#000" stroke-linecap="round" stroke-linejoin="round" d="m554.13 257.56.18-1.69.49-1.52.74-1.31.91-1.1"/><path stroke="#000" stroke-linecap="round" stroke-linejoin="round" stroke-width=".5" d="m644.04 303.7-8.85 7.7-8.49 7.36-8.37 7.27M584.21 365.21l-.95-.05M583.26 365.16l-1.16-.16-1.03-.26-.92-.35-.79-.42-.68-.5-.53-.58-.38-.62-.2-.66-.02-.62M549.77 257.56l.11 218.35M550.06 257.56l.11 218.58"/><path stroke="#000" stroke-linecap="round" stroke-linejoin="round" d="m554.24 476.05-.11-218.49"/><path stroke="#000" stroke-linecap="round" stroke-linejoin="round" stroke-width=".5" d="m585.8 356.74 1.36.03 1.61.16M588.77 356.93l1.14.21 1.02.28.91.37.77.46M577.55 360.99l.12-.56.26-.59.41-.55.52-.51.65-.47.75-.41.86-.36.97-.31 1.08-.24 1.2-.16 1.43-.09M593.56 359.45l-.36-.65-.59-.55M593.56 359.45l.12.78-.17.76M593.51 360.99l-.45.79-.7.77-.85.67-1 .59-1.15.52-1.29.41-1.44.31-1.6.15-.82.01M583.26 365.16l-2.41 4.12-2.26 4.24-2.06 4.33-1.85 4.38-1.63 4.44-1.44 4.5-1.27 4.59M590.2 355.27l-.5.54-.48.55-.45.57"/><path stroke="#b3b3b3" stroke-linecap="round" stroke-linejoin="round" d="m572.72 236.99 14.93 29.83 14.73 29.48L617 325.57"/><path stroke="#000" stroke-linecap="round" stroke-linejoin="round" stroke-width=".5" d="m580.8 456.33.78-1.41.86-1.13.83-.82.78-.54.68-.28.44-.06M585.37 456.32l-1.01 1.38-1.14 1.19-1.1.9-.92.54-.65.15"/><path stroke="#000" stroke-linecap="round" stroke-linejoin="round" d="m556.45 251.95 35.24-35.27"/><path stroke="#000" stroke-linecap="round" stroke-linejoin="round" stroke-width=".5" d="m589.52 213.08-35.95 35.99M589.37 212.82l-36 36.04"/><path stroke="#000" stroke-linecap="round" stroke-linejoin="round" d="M657.56 326.19 575.04 189"/><path stroke="#000" stroke-linecap="round" stroke-linejoin="round" stroke-width=".5" d="m540.09 225.65 35.57-35.61M540.07 225.66l.02-.01"/><path stroke="#000" stroke-linecap="round" stroke-linejoin="round" d="m575.04 189-35.8 35.83"/><path stroke="#000" stroke-linecap="round" stroke-linejoin="round" stroke-width=".5" d="M550.17 476.14c0 .16.13.29.29.29h.03M549.48 476.19a.296.296 0 0 0 .4-.27"/><path stroke="#000" stroke-linecap="round" stroke-linejoin="round" d="M539.24 224.83a24.75 24.75 0 0 0-7.24 17.5"/><path stroke="#000" stroke-linecap="round" stroke-linejoin="round" stroke-width=".5" d="M553.37 248.86a12.3 12.3 0 0 0-3.6 8.7"/><path stroke="#000" stroke-linecap="round" stroke-linejoin="round" stroke-width=".5" d="M553.57 249.07a12 12 0 0 0-3.51 8.49"/><path stroke="#000" stroke-linecap="round" stroke-linejoin="round" d="m554.24 476.05 3.93-1.33 3.88-1.52 2.77-1.22M577.47 465l6.73-5.23M570.62 469.17l6.85-4.17M564.82 471.97l5.8-2.8M584.2 459.77l6.42-6.36M629.61 350.52l3.16-2.75"/><path stroke="#000" stroke-linecap="round" stroke-linejoin="round" stroke-width=".5" d="m615.27 328.71-5.26 4.83-5.07 4.98-5.14 5.44M616.82 327.35l-.53.45-.51.46-.51.45M618.33 326.03l-1.51 1.32M564.82 471.82v.16M565.15 436.56l-.33 35.26M565.19 434.01l-.02.83-.01.85-.01.87M564.82 471.97v.01M570.34 395.76l-1.19 5.14-.94 4.6-.73 4.13-.58 3.78-.47 3.53-.39 3.42-.31 3.4-.25 3.41-.18 3.42-.11 3.42"/><path stroke="#b3b3b3" stroke-linecap="round" stroke-linejoin="round" d="m597.22 348.25 5.51 7.27 4.73 6.94 4.04 6.78"/><path stroke="#000" stroke-linecap="round" stroke-linejoin="round" d="m590.62 453.41-.01-17.2"/><path stroke="#000" stroke-linecap="round" stroke-linejoin="round" stroke-width=".5" d="m596.71 347.41-2.24 2.62-2.21 2.66-2.06 2.58M599.8 343.96l-.89.99-.82.89-.75.8-.63.77"/><path stroke="#b3b3b3" stroke-linecap="round" stroke-linejoin="round" d="m618.11 327.42 3.99 5.5 3.54 5.15 3.2 4.94 2.89 4.82"/><path stroke="#000" stroke-linecap="round" stroke-linejoin="round" d="M629.61 350.52a113.5 113.5 0 0 0-39 85.7"/></svg>