<svg xmlns="http://www.w3.org/2000/svg" width="300" height="242" fill="none" viewBox="0 0 300 242"><path fill="#fff" d="M300 0H0v242h300z"/><path stroke="#000" stroke-miterlimit="10" d="M26.64 24.65h246.72M26.64 217.35h246.72"/><path fill="url(#a)" d="M96.59 74.5H42.11v96.48h54.48z"/><path stroke="#231815" stroke-linecap="round" stroke-linejoin="round" stroke-width=".25" d="M44.55 187.35h49.61M38.12 61.08v119.84M100.59 180.92V61.08M96.59 170.99H42.11M42.11 170.99V74.5M96.59 74.5v96.49M42.11 74.5h54.48M94.16 54.65H44.55M38.12 180.92c0 3.55 2.88 6.43 6.43 6.43M94.16 187.35c3.55 0 6.43-2.88 6.43-6.43"/><path stroke="#898989" stroke-linecap="round" stroke-linejoin="round" stroke-width=".25" d="M94.16 187.98H44.55M37.5 180.92V61.08M101.21 61.08v119.84M44.55 54.02h49.61M37.5 180.92c0 3.9 3.16 7.05 7.05 7.05M94.16 187.98c3.9 0 7.051-3.16 7.051-7.05M101.211 61.08c0-3.9-3.16-7.05-7.05-7.05M44.55 54.02c-3.9 0-7.05 3.16-7.05 7.05"/><path stroke="#231815" stroke-linecap="round" stroke-linejoin="round" stroke-width=".25" d="M44.55 54.65c-3.55 0-6.43 2.88-6.43 6.43M100.59 61.08c0-3.55-2.88-6.43-6.43-6.43M78.48 66.69a3.79 3.79 0 1 0 0-7.58 3.79 3.79 0 0 0 0 7.58M60.23 66.69a3.79 3.79 0 1 0 0-7.58 3.79 3.79 0 0 0 0 7.58"/><path stroke="#231815" stroke-linecap="round" stroke-linejoin="round" stroke-width=".5" d="M68.56 188.86h23.73M92.29 188.86h1.9M44.55 188.86h23.42M36.61 61.08v119.84M102.09 180.92V61.08M94.16 53.14H44.55M94.93 188.82l.48-.06M95.41 188.76s.08-.01.12-.02M94.81 188.83s.08 0 .12-.01M94.48 188.85h.17M94.65 188.85c.05 0 .1 0 .16-.01M95.53 188.74c.2-.03.39-.08.58-.13M94.34 188.86h.1M94.19 188.86h.15M96.12 188.61c.23-.06.46-.13.68-.21M67.97 188.86h.59M36.61 180.92c0 .53.05 1.05.16 1.57s.26 1.01.46 1.49c.39.94.97 1.81 1.69 2.53s1.59 1.31 2.54 1.71c.48.21.99.36 1.5.47s1.06.16 1.59.16M96.8 188.41a7.9 7.9 0 0 0 3.81-2.87c.46-.65.84-1.39 1.09-2.16s.39-1.62.39-2.44M102.09 61.08c0-.53-.05-1.05-.16-1.57s-.26-1.01-.46-1.49c-.39-.94-.97-1.81-1.7-2.53a8.1 8.1 0 0 0-2.54-1.71 8 8 0 0 0-1.5-.47c-.51-.11-1.06-.16-1.59-.16M44.55 53.14c-.53 0-1.07.05-1.59.16s-1.02.26-1.5.47c-.94.4-1.81.99-2.54 1.71s-1.3 1.59-1.69 2.53c-.2.48-.35.98-.46 1.49s-.16 1.05-.16 1.57"/><path fill="#898989" fill-rule="evenodd" d="M65.16 178.35c-.01-.6.16-1.18.83-1.29.42-.06.9-.1 1.27.15.42.29.51 1 .17 1.38-.39.36-1.04.23-1.53.19-.04-.09 0-.21-.01-.3l.02-.02h.67c.13 0 .28.03.39-.05.18-.17.16-.45.11-.67-.12-.37-.6-.29-.91-.28-.52.02-.5.62-.5 1.01v1.15l-.02.02h-.48c-.03-.14 0-.31-.01-.46v-.81m-3.96-.29c.28.04.6.13.74.4.18.38.04.92-.38 1.07-.22.09-.47.11-.7.11-.24 0-.48-.02-.71-.09-.36-.12-.33-.18-.32-.53.33.14.68.22 1.04.21.16 0 .32 0 .47-.06.17-.08.18-.3.13-.45-.05-.11-.19-.15-.3-.17-.67-.1-1.57-.11-1.3-1.05.13-.41.62-.5.99-.49.22 0 .45.01.67.07.12.04.27.07.36.16v.32c-.45-.12-.95-.19-1.41-.09-.17.05-.22.3-.11.43.09.09.22.09.33.11l.5.06m2.86.99c.16-.2.08-.49.1-.73 0-.41-.01-.82 0-1.22.15 0 .32-.01.47 0v1.19c0 .37.05.8-.21 1.11-.22.27-.58.22-.89.22-.29 0-.64.04-.86-.2-.29-.3-.26-.74-.26-1.13v-1.19c.15-.02.31 0 .47 0 .02.39 0 .79 0 1.18.01.23-.04.49.06.7.1.2.35.16.54.17.19 0 .41.04.57-.1m10.24-1.8c.17-.2.44-.24.69-.23.17 0 .35 0 .51.06.5.2.47.8.46 1.25v1.23l-.02.02h-.44v-1.27c0-.4.07-.9-.49-.89-.55-.02-.49.5-.49.89v1.27c-.15.01-.31 0-.47 0v-1.27c0-.41.09-.89-.48-.89-.57-.02-.49.47-.49.88v1.27c-.14.03-.29 0-.43.01l-.02-.02v-1.23c0-.45-.04-1.05.45-1.26.15-.06.31-.07.47-.06.26-.01.54.04.73.23m4.6 1.06c.05.7-.32 1.32-1.08 1.33-.38 0-.79 0-1.1-.24-.3-.24-.42-.76-.15-1.06.43-.38 1.08-.26 1.6-.16l.02.03v.24c-.24.01-.47 0-.71 0-.14.01-.3-.03-.43.05-.14.12-.12.36-.06.52.07.16.26.18.41.18.74.05.98-.05.98-.84 0-.32-.01-.77-.37-.88-.49-.13-1 .02-1.48.09-.01-.3-.02-.37.29-.47.39-.12.82-.11 1.22-.06.68.09.87.67.86 1.28m-10.81-.37c0-.99.64-1.03 1.45-.9.02.13 0 .26 0 .39l-.02.02c-.24 0-.48-.02-.71.02-.21.05-.21.29-.22.46v1.67h-.48l-.02-.02zm3.28.22c.26.01.32-.19.29-.41 0-.19-.14-.32-.33-.33-.35-.02-.91-.11-1.05.32-.1.36-.16 1.22.26 1.39.17.07.37.06.55.07.33 0 .66-.05.98-.14 0 .1.01.21 0 .31-.13.17-.38.19-.57.23-.47.05-1.02.09-1.42-.21-.34-.28-.37-.76-.37-1.17s.11-.9.52-1.09c.26-.13.56-.15.85-.15.51-.02 1.06.2 1.1.78.11.94-1.13.8-1.74.72v-.32h.93" clip-rule="evenodd"/><path stroke="#231815" stroke-linecap="round" stroke-linejoin="round" stroke-width=".25" d="M38.16 180.92c0 .18 0 .36.02.53.11 1.26.81 2.4 1.89 3.06 1.28.78 2.75 1.19 4.24 1.19h50.08c1.5 0 2.96-.41 4.24-1.19a3.98 3.98 0 0 0 1.89-3.06c.01-.18.02-.36.02-.53"/><path fill="#b5b5b6" stroke="#b5b5b6" stroke-miterlimit="10" stroke-width=".02" d="M60.23 63.64a.74.74 0 1 0 0-1.48.74.74 0 0 0 0 1.48Z"/><path stroke="#231815" stroke-miterlimit="10" stroke-width=".25" d="M60.23 65.12a2.22 2.22 0 1 0 0-4.44 2.22 2.22 0 0 0 0 4.44Z"/><path stroke="#b5b5b6" stroke-miterlimit="10" stroke-width=".25" d="M60.23 65.43a2.53 2.53 0 1 0 0-5.06 2.53 2.53 0 0 0 0 5.06Z"/><path fill="#b5b5b6" stroke="#b5b5b6" stroke-miterlimit="10" stroke-width=".02" d="M78.48 63.64a.74.74 0 1 0 0-1.48.74.74 0 0 0 0 1.48Z"/><path stroke="#231815" stroke-miterlimit="10" stroke-width=".25" d="M78.48 65.12a2.22 2.22 0 1 0 0-4.44 2.22 2.22 0 0 0 0 4.44Z"/><path stroke="#b5b5b6" stroke-miterlimit="10" stroke-width=".25" d="M78.48 65.43a2.53 2.53 0 1 0 0-5.06 2.53 2.53 0 0 0 0 5.06Z"/><path stroke="#231815" stroke-miterlimit="10" stroke-width=".25" d="M50.3 62.11a1.87 1.87 0 1 0 0-3.74 1.87 1.87 0 0 0 0 3.74ZM50.3 67.39a1.87 1.87 0 1 0 0-3.74 1.87 1.87 0 0 0 0 3.74ZM88.4 62.11a1.87 1.87 0 1 0 0-3.74 1.87 1.87 0 0 0 0 3.74ZM88.4 67.39a1.87 1.87 0 1 0 0-3.74 1.87 1.87 0 0 0 0 3.74Z"/><path fill="#040000" d="M42.49 64.11a.37.37 0 1 0 0-.74.37.37 0 0 0 0 .74"/><path fill="url(#b)" d="M257.98 74.5H203.5v96.48h54.48z"/><path stroke="#231815" stroke-linecap="round" stroke-linejoin="round" stroke-width=".25" d="M205.94 187.35h49.61M199.51 61.08v119.84M261.98 180.92V61.08M257.98 170.99H203.5M203.5 170.99V74.5M257.98 74.5v96.49M203.5 74.5h54.48M255.55 54.65h-49.61M199.51 180.92c0 3.55 2.88 6.43 6.43 6.43M255.55 187.35c3.55 0 6.43-2.88 6.43-6.43"/><path stroke="#898989" stroke-linecap="round" stroke-linejoin="round" stroke-width=".25" d="M255.55 187.98h-49.61M198.89 180.92V61.08M262.6 61.08v119.84M205.94 54.02h49.61M198.89 180.92c0 3.9 3.16 7.05 7.05 7.05M255.55 187.98c3.9 0 7.05-3.16 7.05-7.05M262.6 61.08c0-3.9-3.16-7.05-7.05-7.05M205.94 54.02c-3.9 0-7.05 3.16-7.05 7.05"/><path stroke="#231815" stroke-linecap="round" stroke-linejoin="round" stroke-width=".25" d="M205.94 54.65c-3.55 0-6.43 2.88-6.43 6.43M261.98 61.08c0-3.55-2.88-6.43-6.43-6.43M239.87 66.69a3.79 3.79 0 1 0 0-7.58 3.79 3.79 0 0 0 0 7.58M221.62 66.69a3.79 3.79 0 1 0 0-7.58 3.79 3.79 0 0 0 0 7.58"/><path stroke="#231815" stroke-linecap="round" stroke-linejoin="round" stroke-width=".5" d="M229.95 188.86h23.73M253.68 188.86h1.9M205.94 188.86h23.42M198 61.08v119.84M263.48 180.92V61.08M255.55 53.14h-49.61M256.32 188.82l.48-.06M256.8 188.76s.08-.01.12-.02M256.2 188.83s.08 0 .12-.01M255.87 188.85h.17M256.04 188.85c.05 0 .1 0 .16-.01M256.92 188.74c.2-.03.39-.08.58-.13M255.73 188.86h.1M255.58 188.86h.15M257.51 188.61c.23-.06.46-.13.68-.21M229.36 188.86h.59M198 180.92c0 .53.05 1.05.16 1.57s.26 1.01.46 1.49c.39.94.97 1.81 1.69 2.53s1.59 1.31 2.54 1.71c.48.21.99.36 1.5.47s1.06.16 1.59.16M258.19 188.41a7.9 7.9 0 0 0 3.81-2.87c.46-.65.84-1.39 1.09-2.16s.39-1.62.39-2.44M263.48 61.08c0-.53-.05-1.05-.16-1.57s-.26-1.01-.46-1.49c-.39-.94-.97-1.81-1.7-2.53a8.1 8.1 0 0 0-2.54-1.71 8 8 0 0 0-1.5-.47c-.51-.11-1.06-.16-1.59-.16M205.94 53.14c-.53 0-1.07.05-1.59.16s-1.02.26-1.5.47c-.94.4-1.81.99-2.54 1.71s-1.3 1.59-1.69 2.53c-.2.48-.35.98-.46 1.49s-.16 1.05-.16 1.57"/><path fill="#898989" fill-rule="evenodd" d="M226.55 178.35c-.01-.6.16-1.18.83-1.29.42-.06.9-.1 1.27.15.42.29.51 1 .17 1.38-.39.36-1.04.23-1.53.19-.04-.09 0-.21-.01-.3l.02-.02h.67c.13 0 .28.03.39-.05.18-.17.16-.45.11-.67-.12-.37-.6-.29-.91-.28-.52.02-.5.62-.5 1.01v1.15l-.02.02h-.48c-.03-.14 0-.31-.01-.46v-.81m-3.96-.29c.28.04.6.13.74.4.18.38.04.92-.38 1.07-.22.09-.47.11-.7.11-.24 0-.48-.02-.71-.09-.36-.12-.33-.18-.32-.53.33.14.68.22 1.04.21.16 0 .32 0 .47-.06.17-.08.18-.3.13-.45-.05-.11-.19-.15-.3-.17-.67-.1-1.57-.11-1.3-1.05.13-.41.62-.5.99-.49.22 0 .45.01.67.07.12.04.27.07.36.16v.32c-.45-.12-.95-.19-1.41-.09-.17.05-.22.3-.11.43.09.09.22.09.33.11l.5.06m2.86.99c.16-.2.08-.49.1-.73 0-.41-.01-.82 0-1.22.15 0 .32-.01.47 0v1.19c0 .37.05.8-.21 1.11-.22.27-.58.22-.89.22-.29 0-.64.04-.86-.2-.29-.3-.26-.74-.26-1.13v-1.19c.15-.02.31 0 .47 0 .02.39 0 .79 0 1.18.01.23-.04.49.06.7.1.2.35.16.54.17.19 0 .41.04.57-.1m10.24-1.8c.17-.2.44-.24.69-.23.17 0 .35 0 .51.06.5.2.47.8.46 1.25v1.23l-.02.02h-.44v-1.27c0-.4.07-.9-.49-.89-.55-.02-.49.5-.49.89v1.27c-.15.01-.31 0-.47 0v-1.27c0-.41.09-.89-.48-.89-.57-.02-.49.47-.49.88v1.27c-.14.03-.29 0-.43.01l-.02-.02v-1.23c0-.45-.04-1.05.45-1.26.15-.06.31-.07.47-.06.26-.01.54.04.73.23m4.6 1.06c.05.7-.32 1.32-1.08 1.33-.38 0-.79 0-1.1-.24-.3-.24-.42-.76-.15-1.06.43-.38 1.08-.26 1.6-.16l.02.03v.24c-.24.01-.47 0-.71 0-.14.01-.3-.03-.43.05-.14.12-.12.36-.06.52.07.16.26.18.41.18.74.05.98-.05.98-.84 0-.32-.01-.77-.37-.88-.49-.13-1 .02-1.48.09-.01-.3-.02-.37.29-.47.39-.12.82-.11 1.22-.06.68.09.87.67.86 1.28m-10.81-.37c0-.99.64-1.03 1.45-.9.02.13 0 .26 0 .39l-.02.02c-.24 0-.48-.02-.71.02-.21.05-.21.29-.22.46v1.67h-.48l-.02-.02zm3.28.22c.26.01.32-.19.29-.41 0-.19-.14-.32-.33-.33-.35-.02-.91-.11-1.05.32-.1.36-.16 1.22.26 1.39.17.07.37.06.55.07.33 0 .66-.05.98-.14 0 .1.01.21 0 .31-.13.17-.38.19-.57.23-.47.05-1.02.09-1.42-.21-.34-.28-.37-.76-.37-1.17s.11-.9.52-1.09c.26-.13.56-.15.85-.15.51-.02 1.06.2 1.1.78.11.94-1.13.8-1.74.72v-.32h.93" clip-rule="evenodd"/><path stroke="#231815" stroke-linecap="round" stroke-linejoin="round" stroke-width=".25" d="M199.55 180.92c0 .18 0 .36.02.53.11 1.26.81 2.4 1.89 3.06 1.28.78 2.75 1.19 4.24 1.19h50.08c1.5 0 2.96-.41 4.24-1.19a3.98 3.98 0 0 0 1.89-3.06c.01-.18.02-.36.02-.53"/><path fill="#b5b5b6" stroke="#b5b5b6" stroke-miterlimit="10" stroke-width=".02" d="M221.62 63.64a.74.74 0 1 0 0-1.48.74.74 0 0 0 0 1.48Z"/><path stroke="#231815" stroke-miterlimit="10" stroke-width=".25" d="M221.62 65.12a2.22 2.22 0 1 0 0-4.44 2.22 2.22 0 0 0 0 4.44Z"/><path stroke="#b5b5b6" stroke-miterlimit="10" stroke-width=".25" d="M221.62 65.43a2.53 2.53 0 1 0 0-5.06 2.53 2.53 0 0 0 0 5.06Z"/><path fill="#b5b5b6" stroke="#b5b5b6" stroke-miterlimit="10" stroke-width=".02" d="M239.87 63.64a.74.74 0 1 0 0-1.48.74.74 0 0 0 0 1.48Z"/><path stroke="#231815" stroke-miterlimit="10" stroke-width=".25" d="M239.87 65.12a2.22 2.22 0 1 0 0-4.44 2.22 2.22 0 0 0 0 4.44Z"/><path stroke="#b5b5b6" stroke-miterlimit="10" stroke-width=".25" d="M239.87 65.43a2.53 2.53 0 1 0 0-5.06 2.53 2.53 0 0 0 0 5.06Z"/><path stroke="#231815" stroke-miterlimit="10" stroke-width=".25" d="M211.69 62.11a1.87 1.87 0 1 0 0-3.74 1.87 1.87 0 0 0 0 3.74ZM211.69 67.39a1.87 1.87 0 1 0 0-3.74 1.87 1.87 0 0 0 0 3.74ZM249.79 62.11a1.87 1.87 0 1 0 0-3.74 1.87 1.87 0 0 0 0 3.74ZM249.79 67.39a1.87 1.87 0 1 0 0-3.74 1.87 1.87 0 0 0 0 3.74Z"/><path fill="#040000" d="M203.88 64.11a.37.37 0 1 0 0-.74.37.37 0 0 0 0 .74"/><path stroke="#000" stroke-miterlimit="10" d="M120.05 121h59.9"/><path fill="#000" d="m122.86 124.7-1.58-3.7 1.58-3.7-8.78 3.7zM177.14 124.7l1.58-3.7-1.58-3.7 8.78 3.7z"/><path fill="#231815" d="M129.98 104.81c0 .67-.19 1.21-.57 1.6s-.88.66-1.5.79v.06c.79.09 1.39.35 1.79.76s.59.95.59 1.61c0 .59-.14 1.11-.41 1.55-.27.45-.69.8-1.25 1.05s-1.29.38-2.18.38c-.52 0-1.01-.04-1.46-.12s-.88-.22-1.29-.43v-1.15c.42.21.87.38 1.36.49s.95.17 1.4.17c.9 0 1.54-.17 1.94-.53.4-.35.59-.83.59-1.45s-.25-1.08-.74-1.35c-.49-.28-1.18-.41-2.06-.41h-.97v-1.05h.98c.82 0 1.44-.17 1.87-.52.42-.34.64-.8.64-1.37 0-.48-.16-.86-.49-1.13s-.77-.4-1.33-.4-1 .08-1.39.24c-.38.16-.76.36-1.13.6l-.62-.84c.36-.28.8-.52 1.32-.73.53-.21 1.13-.31 1.8-.31 1.05 0 1.82.23 2.33.7s.76 1.06.76 1.78zM138.41 107.46c0 1.08-.11 2.01-.34 2.77-.22.77-.58 1.35-1.07 1.76s-1.13.62-1.92.62c-1.13 0-1.96-.46-2.5-1.37s-.81-2.17-.81-3.79c0-1.08.11-2.01.33-2.77s.57-1.35 1.06-1.76 1.12-.61 1.92-.61c1.12 0 1.96.45 2.51 1.35s.83 2.16.83 3.79zm-5.41 0c0 1.37.16 2.4.47 3.08s.85 1.02 1.6 1.02 1.28-.34 1.6-1.01q.48-1.02.48-3.09c0-1.38-.16-2.38-.48-3.07-.32-.68-.86-1.02-1.6-1.02s-1.29.34-1.6 1.02-.47 1.7-.47 3.07M146.42 107.46c0 1.08-.11 2.01-.34 2.77-.22.77-.58 1.35-1.07 1.76s-1.13.62-1.92.62c-1.13 0-1.96-.46-2.5-1.37s-.81-2.17-.81-3.79c0-1.08.11-2.01.33-2.77s.57-1.35 1.06-1.76 1.12-.61 1.92-.61c1.12 0 1.96.45 2.51 1.35s.83 2.16.83 3.79zm-5.41 0c0 1.37.16 2.4.47 3.08s.85 1.02 1.6 1.02 1.28-.34 1.6-1.01q.48-1.02.48-3.09c0-1.38-.16-2.38-.48-3.07-.32-.68-.86-1.02-1.6-1.02s-1.29.34-1.6 1.02-.47 1.7-.47 3.07M160.16 104.83c.85 0 1.48.22 1.9.66q.63.66.63 2.1v4.89h-1.22v-4.83c0-1.18-.51-1.78-1.53-1.78q-1.095 0-1.56.63c-.31.42-.47 1.03-.47 1.83v4.14h-1.22v-4.83c0-1.18-.51-1.78-1.54-1.78-.76 0-1.28.23-1.57.7s-.43 1.14-.43 2.02v3.89h-1.23v-7.5h.99l.18 1.02h.07c.23-.39.55-.68.95-.88s.82-.29 1.27-.29c1.18 0 1.94.42 2.3 1.26h.07c.25-.43.59-.75 1.02-.95.43-.21.89-.31 1.39-.31zM173.25 104.83c.85 0 1.48.22 1.9.66q.63.66.63 2.1v4.89h-1.22v-4.83c0-1.18-.51-1.78-1.53-1.78q-1.095 0-1.56.63c-.31.42-.47 1.03-.47 1.83v4.14h-1.22v-4.83c0-1.18-.51-1.78-1.54-1.78-.76 0-1.28.23-1.57.7s-.43 1.14-.43 2.02v3.89h-1.23v-7.5h.99l.18 1.02h.07c.23-.39.55-.68.95-.88s.82-.29 1.27-.29c1.18 0 1.94.42 2.3 1.26h.07c.25-.43.59-.75 1.02-.95.43-.21.89-.31 1.39-.31zM45.08 32.25l-2.66 10h-1.27L39.2 35.7c-.08-.26-.16-.53-.23-.8-.07-.28-.13-.52-.18-.73s-.08-.36-.09-.44c0 .12-.06.38-.15.78s-.2.81-.32 1.24l-1.89 6.51h-1.27l-2.65-10h1.32l1.55 6.1c.11.43.21.84.29 1.25.08.4.14.78.19 1.13a16.574 16.574 0 0 1 .53-2.45l1.76-6.03h1.3l1.83 6.08c.13.43.24.86.34 1.29.09.43.16.8.21 1.12.04-.35.1-.72.19-1.13s.19-.83.3-1.27l1.54-6.09h1.32zM49.02 34.62c.91 0 1.59.2 2.03.6q.66.6.66 1.92v5.11h-.9l-.24-1.06h-.06c-.33.41-.67.71-1.04.91-.36.2-.86.29-1.48.29-.68 0-1.25-.18-1.69-.54-.45-.36-.67-.92-.67-1.69s.29-1.32.88-1.73 1.49-.63 2.72-.67l1.27-.04v-.45c0-.62-.13-1.06-.41-1.3-.27-.24-.65-.36-1.15-.36-.39 0-.77.06-1.12.17-.35.12-.69.25-.99.4l-.38-.92c.33-.18.71-.33 1.16-.46s.92-.19 1.4-.19zm1.47 3.96-1.11.04c-.93.04-1.58.19-1.94.45q-.54.39-.54 1.11c0 .42.13.73.38.92.26.2.59.29.99.29.62 0 1.15-.17 1.58-.53.42-.35.64-.89.64-1.62v-.67zM55.26 42.25h-1.23V31.61h1.23zM58.87 42.25h-1.23V31.61h1.23z"/><defs><linearGradient id="a" x1="31.61" x2="107.09" y1="160.49" y2="85.01" gradientUnits="userSpaceOnUse"><stop stop-color="#bfbfbf"/><stop offset=".14" stop-color="#c2c2c2"/><stop offset=".27" stop-color="#cecece"/><stop offset=".4" stop-color="#e0e0e0"/><stop offset=".53" stop-color="#fbfbfb"/><stop offset=".54" stop-color="#e0e0e0"/><stop offset=".55" stop-color="#cdcdcd"/><stop offset=".56" stop-color="#ccc"/><stop offset="1" stop-color="#fff"/></linearGradient><linearGradient id="b" x1="193" x2="268.48" y1="160.49" y2="85.01" gradientUnits="userSpaceOnUse"><stop stop-color="#bfbfbf"/><stop offset=".14" stop-color="#c2c2c2"/><stop offset=".27" stop-color="#cecece"/><stop offset=".4" stop-color="#e0e0e0"/><stop offset=".53" stop-color="#fbfbfb"/><stop offset=".54" stop-color="#e0e0e0"/><stop offset=".55" stop-color="#cdcdcd"/><stop offset=".56" stop-color="#ccc"/><stop offset="1" stop-color="#fff"/></linearGradient></defs></svg>