<svg width="300" height="242" viewBox="0 0 300 242" fill="none" xmlns="http://www.w3.org/2000/svg">
<path d="M300 0H0V242H300V0Z" fill="white"/>
<path d="M26.6401 24.65H273.36" stroke="black" stroke-miterlimit="10"/>
<path d="M26.6401 217.35H273.36" stroke="black" stroke-miterlimit="10"/>
<path d="M96.5903 74.5H42.1104V170.98H96.5903V74.5Z" fill="url(#paint0_linear_1688_8564)"/>
<path d="M44.5503 187.35H94.1603" stroke="#231815" stroke-width="0.25" stroke-linecap="round" stroke-linejoin="round"/>
<path d="M38.1201 61.08V180.92" stroke="#231815" stroke-width="0.25" stroke-linecap="round" stroke-linejoin="round"/>
<path d="M100.59 180.92V61.08" stroke="#231815" stroke-width="0.25" stroke-linecap="round" stroke-linejoin="round"/>
<path d="M96.5903 170.99H42.1104" stroke="#231815" stroke-width="0.25" stroke-linecap="round" stroke-linejoin="round"/>
<path d="M42.1104 170.99V74.5" stroke="#231815" stroke-width="0.25" stroke-linecap="round" stroke-linejoin="round"/>
<path d="M96.5903 74.5V170.99" stroke="#231815" stroke-width="0.25" stroke-linecap="round" stroke-linejoin="round"/>
<path d="M42.1104 74.5H96.5903" stroke="#231815" stroke-width="0.25" stroke-linecap="round" stroke-linejoin="round"/>
<path d="M94.1603 54.65H44.5503" stroke="#231815" stroke-width="0.25" stroke-linecap="round" stroke-linejoin="round"/>
<path d="M38.1201 180.92C38.1201 184.47 41.0001 187.35 44.5501 187.35" stroke="#231815" stroke-width="0.25" stroke-linecap="round" stroke-linejoin="round"/>
<path d="M94.1602 187.35C97.7102 187.35 100.59 184.47 100.59 180.92" stroke="#231815" stroke-width="0.25" stroke-linecap="round" stroke-linejoin="round"/>
<path d="M94.1603 187.98H44.5503" stroke="#898989" stroke-width="0.25" stroke-linecap="round" stroke-linejoin="round"/>
<path d="M37.5005 180.92V61.08" stroke="#898989" stroke-width="0.25" stroke-linecap="round" stroke-linejoin="round"/>
<path d="M101.21 61.08V180.92" stroke="#898989" stroke-width="0.25" stroke-linecap="round" stroke-linejoin="round"/>
<path d="M44.5503 54.02H94.1603" stroke="#898989" stroke-width="0.25" stroke-linecap="round" stroke-linejoin="round"/>
<path d="M37.5005 180.92C37.5005 184.82 40.6605 187.97 44.5505 187.97" stroke="#898989" stroke-width="0.25" stroke-linecap="round" stroke-linejoin="round"/>
<path d="M94.1606 187.98C98.0606 187.98 101.211 184.82 101.211 180.93" stroke="#898989" stroke-width="0.25" stroke-linecap="round" stroke-linejoin="round"/>
<path d="M101.211 61.08C101.211 57.18 98.0506 54.03 94.1606 54.03" stroke="#898989" stroke-width="0.25" stroke-linecap="round" stroke-linejoin="round"/>
<path d="M44.5505 54.02C40.6505 54.02 37.5005 57.18 37.5005 61.07" stroke="#898989" stroke-width="0.25" stroke-linecap="round" stroke-linejoin="round"/>
<path d="M44.5501 54.65C41.0001 54.65 38.1201 57.53 38.1201 61.08" stroke="#231815" stroke-width="0.25" stroke-linecap="round" stroke-linejoin="round"/>
<path d="M100.59 61.08C100.59 57.53 97.7102 54.65 94.1602 54.65" stroke="#231815" stroke-width="0.25" stroke-linecap="round" stroke-linejoin="round"/>
<path d="M78.4804 66.69C80.5736 66.69 82.2704 64.9931 82.2704 62.9C82.2704 60.8068 80.5736 59.11 78.4804 59.11C76.3873 59.11 74.6904 60.8068 74.6904 62.9C74.6904 64.9931 76.3873 66.69 78.4804 66.69Z" stroke="#231815" stroke-width="0.25" stroke-linecap="round" stroke-linejoin="round"/>
<path d="M60.2304 66.69C62.3236 66.69 64.0204 64.9931 64.0204 62.9C64.0204 60.8068 62.3236 59.11 60.2304 59.11C58.1373 59.11 56.4404 60.8068 56.4404 62.9C56.4404 64.9931 58.1373 66.69 60.2304 66.69Z" stroke="#231815" stroke-width="0.25" stroke-linecap="round" stroke-linejoin="round"/>
<path d="M68.5605 188.86H92.2906" stroke="#231815" stroke-width="0.5" stroke-linecap="round" stroke-linejoin="round"/>
<path d="M92.2905 188.86H94.1905" stroke="#231815" stroke-width="0.5" stroke-linecap="round" stroke-linejoin="round"/>
<path d="M44.5503 188.86H67.9703" stroke="#231815" stroke-width="0.5" stroke-linecap="round" stroke-linejoin="round"/>
<path d="M36.6104 61.08V180.92" stroke="#231815" stroke-width="0.5" stroke-linecap="round" stroke-linejoin="round"/>
<path d="M102.09 180.92V61.08" stroke="#231815" stroke-width="0.5" stroke-linecap="round" stroke-linejoin="round"/>
<path d="M94.1603 53.14H44.5503" stroke="#231815" stroke-width="0.5" stroke-linecap="round" stroke-linejoin="round"/>
<path d="M94.9302 188.82C95.0902 188.8 95.2502 188.78 95.4102 188.76" stroke="#231815" stroke-width="0.5" stroke-linecap="round" stroke-linejoin="round"/>
<path d="M95.4102 188.76C95.4102 188.76 95.4902 188.75 95.5302 188.74" stroke="#231815" stroke-width="0.5" stroke-linecap="round" stroke-linejoin="round"/>
<path d="M94.8105 188.83C94.8105 188.83 94.8905 188.83 94.9305 188.82" stroke="#231815" stroke-width="0.5" stroke-linecap="round" stroke-linejoin="round"/>
<path d="M94.4805 188.85C94.5405 188.85 94.6005 188.85 94.6505 188.85" stroke="#231815" stroke-width="0.5" stroke-linecap="round" stroke-linejoin="round"/>
<path d="M94.6504 188.85C94.7004 188.85 94.7504 188.85 94.8104 188.84" stroke="#231815" stroke-width="0.5" stroke-linecap="round" stroke-linejoin="round"/>
<path d="M95.5303 188.74C95.7303 188.71 95.9203 188.66 96.1103 188.61" stroke="#231815" stroke-width="0.5" stroke-linecap="round" stroke-linejoin="round"/>
<path d="M94.3403 188.86C94.3403 188.86 94.4003 188.86 94.4403 188.86" stroke="#231815" stroke-width="0.5" stroke-linecap="round" stroke-linejoin="round"/>
<path d="M94.1904 188.86C94.1904 188.86 94.2904 188.86 94.3404 188.86" stroke="#231815" stroke-width="0.5" stroke-linecap="round" stroke-linejoin="round"/>
<path d="M96.1201 188.61C96.3501 188.55 96.5801 188.48 96.8001 188.4" stroke="#231815" stroke-width="0.5" stroke-linecap="round" stroke-linejoin="round"/>
<path d="M67.9702 188.86H68.5602" stroke="#231815" stroke-width="0.5" stroke-linecap="round" stroke-linejoin="round"/>
<path d="M36.6104 180.92C36.6104 181.45 36.6604 181.97 36.7704 182.49C36.8804 183.01 37.0304 183.5 37.2304 183.98C37.6204 184.92 38.2003 185.79 38.9203 186.51C39.6403 187.23 40.5104 187.82 41.4604 188.22C41.9404 188.43 42.4504 188.58 42.9604 188.69C43.4704 188.8 44.0204 188.85 44.5504 188.85" stroke="#231815" stroke-width="0.5" stroke-linecap="round" stroke-linejoin="round"/>
<path d="M96.8003 188.41C97.5703 188.14 98.2903 187.75 98.9403 187.26C99.5903 186.77 100.15 186.19 100.61 185.54C101.07 184.89 101.45 184.15 101.7 183.38C101.95 182.61 102.09 181.76 102.09 180.94" stroke="#231815" stroke-width="0.5" stroke-linecap="round" stroke-linejoin="round"/>
<path d="M102.09 61.08C102.09 60.55 102.04 60.03 101.93 59.51C101.82 58.99 101.67 58.5 101.47 58.02C101.08 57.08 100.5 56.21 99.7701 55.49C99.0401 54.77 98.1801 54.18 97.2301 53.78C96.7501 53.57 96.2401 53.42 95.7301 53.31C95.2201 53.2 94.6701 53.15 94.1401 53.15" stroke="#231815" stroke-width="0.5" stroke-linecap="round" stroke-linejoin="round"/>
<path d="M44.5504 53.14C44.0204 53.14 43.4804 53.19 42.9604 53.3C42.4404 53.41 41.9404 53.56 41.4604 53.77C40.5204 54.17 39.6503 54.76 38.9203 55.48C38.1903 56.2 37.6204 57.07 37.2304 58.01C37.0304 58.49 36.8804 58.99 36.7704 59.5C36.6604 60.01 36.6104 60.55 36.6104 61.07" stroke="#231815" stroke-width="0.5" stroke-linecap="round" stroke-linejoin="round"/>
<path fill-rule="evenodd" clip-rule="evenodd" d="M65.1604 178.35C65.1504 177.75 65.3204 177.17 65.9904 177.06C66.4104 177 66.8904 176.96 67.2604 177.21C67.6804 177.5 67.7704 178.21 67.4304 178.59C67.0404 178.95 66.3904 178.82 65.9004 178.78C65.8604 178.69 65.9004 178.57 65.8904 178.48L65.9104 178.46C66.1304 178.46 66.3604 178.46 66.5804 178.46C66.7104 178.46 66.8604 178.49 66.9704 178.41C67.1504 178.24 67.1304 177.96 67.0804 177.74C66.9604 177.37 66.4804 177.45 66.1704 177.46C65.6504 177.48 65.6704 178.08 65.6704 178.47C65.6704 178.85 65.6704 179.24 65.6704 179.62L65.6504 179.64H65.1704C65.1404 179.5 65.1704 179.33 65.1604 179.18C65.1604 178.91 65.1604 178.64 65.1604 178.37M61.2004 178.08C61.4804 178.12 61.8004 178.21 61.9404 178.48C62.1204 178.86 61.9804 179.4 61.5604 179.55C61.3404 179.64 61.0904 179.66 60.8604 179.66C60.6204 179.66 60.3804 179.64 60.1504 179.57C59.7904 179.45 59.8204 179.39 59.8304 179.04C60.1604 179.18 60.5104 179.26 60.8704 179.25C61.0304 179.25 61.1904 179.25 61.3404 179.19C61.5104 179.11 61.5204 178.89 61.4704 178.74C61.4204 178.63 61.2804 178.59 61.1704 178.57C60.5004 178.47 59.6004 178.46 59.8704 177.52C60.0004 177.11 60.4904 177.02 60.8604 177.03C61.0804 177.03 61.3104 177.04 61.5304 177.1C61.6504 177.14 61.8004 177.17 61.8904 177.26V177.58C61.4404 177.46 60.9404 177.39 60.4804 177.49C60.3104 177.54 60.2604 177.79 60.3704 177.92C60.4604 178.01 60.5904 178.01 60.7004 178.03C60.8604 178.05 61.0304 178.07 61.2004 178.09M64.0604 179.08C64.2204 178.88 64.1404 178.59 64.1604 178.35C64.1604 177.94 64.1504 177.53 64.1604 177.13C64.3104 177.13 64.4804 177.12 64.6304 177.13C64.6304 177.53 64.6304 177.92 64.6304 178.32C64.6304 178.69 64.6804 179.12 64.4204 179.43C64.2004 179.7 63.8404 179.65 63.5304 179.65C63.2404 179.65 62.8904 179.69 62.6704 179.45C62.3804 179.15 62.4104 178.71 62.4104 178.32C62.4104 177.92 62.4104 177.53 62.4104 177.13C62.5604 177.11 62.7204 177.13 62.8804 177.13C62.9004 177.52 62.8804 177.92 62.8804 178.31C62.8904 178.54 62.8404 178.8 62.9404 179.01C63.0404 179.21 63.2904 179.17 63.4804 179.18C63.6704 179.18 63.8904 179.22 64.0504 179.08M74.2904 177.28C74.4604 177.08 74.7304 177.04 74.9804 177.05C75.1504 177.05 75.3304 177.05 75.4904 177.11C75.9904 177.31 75.9604 177.91 75.9504 178.36C75.9504 178.77 75.9504 179.18 75.9504 179.59L75.9304 179.61C75.7904 179.61 75.6404 179.61 75.4904 179.61C75.4904 179.19 75.4904 178.76 75.4904 178.34C75.4904 177.94 75.5604 177.44 75.0004 177.45C74.4504 177.43 74.5104 177.95 74.5104 178.34C74.5104 178.76 74.5104 179.19 74.5104 179.61C74.3604 179.62 74.2004 179.61 74.0404 179.61C74.0404 179.19 74.0404 178.76 74.0404 178.34C74.0404 177.93 74.1304 177.45 73.5604 177.45C72.9904 177.43 73.0704 177.92 73.0704 178.33C73.0704 178.75 73.0704 179.18 73.0704 179.6C72.9304 179.63 72.7804 179.6 72.6404 179.61L72.6204 179.59C72.6204 179.18 72.6204 178.77 72.6204 178.36C72.6204 177.91 72.5804 177.31 73.0704 177.1C73.2204 177.04 73.3804 177.03 73.5404 177.04C73.8004 177.03 74.0804 177.08 74.2704 177.27M78.8704 178.33C78.9204 179.03 78.5504 179.65 77.7904 179.66C77.4104 179.66 77.0004 179.66 76.6904 179.42C76.3904 179.18 76.2704 178.66 76.5404 178.36C76.9704 177.98 77.6204 178.1 78.1404 178.2L78.1604 178.23V178.47C77.9204 178.48 77.6904 178.47 77.4504 178.47C77.3104 178.48 77.1504 178.44 77.0204 178.52C76.8804 178.64 76.9004 178.88 76.9604 179.04C77.0304 179.2 77.2204 179.22 77.3704 179.22C78.1104 179.27 78.3504 179.17 78.3504 178.38C78.3504 178.06 78.3404 177.61 77.9804 177.5C77.4904 177.37 76.9804 177.52 76.5004 177.59C76.4904 177.29 76.4804 177.22 76.7904 177.12C77.1804 177 77.6104 177.01 78.0104 177.06C78.6904 177.15 78.8804 177.73 78.8704 178.34M68.0604 177.97C68.0604 176.98 68.7004 176.94 69.5104 177.07C69.5304 177.2 69.5104 177.33 69.5104 177.46L69.4904 177.48C69.2504 177.48 69.0104 177.46 68.7804 177.5C68.5704 177.55 68.5704 177.79 68.5604 177.96C68.5604 178.51 68.5604 179.07 68.5604 179.63H68.0804L68.0604 179.61V177.97ZM71.3404 178.19C71.6004 178.2 71.6604 178 71.6304 177.78C71.6304 177.59 71.4904 177.46 71.3004 177.45C70.9504 177.43 70.3904 177.34 70.2504 177.77C70.1504 178.13 70.0904 178.99 70.5104 179.16C70.6804 179.23 70.8804 179.22 71.0604 179.23C71.3904 179.23 71.7204 179.18 72.0404 179.09C72.0404 179.19 72.0504 179.3 72.0404 179.4C71.9104 179.57 71.6604 179.59 71.4704 179.63C71.0004 179.68 70.4504 179.72 70.0504 179.42C69.7104 179.14 69.6804 178.66 69.6804 178.25C69.6804 177.84 69.7904 177.35 70.2004 177.16C70.4604 177.03 70.7604 177.01 71.0504 177.01C71.5604 176.99 72.1104 177.21 72.1504 177.79C72.2604 178.73 71.0204 178.59 70.4104 178.51V178.19C70.7204 178.19 71.0304 178.19 71.3304 178.19H71.3404Z" fill="#898989"/>
<path d="M38.1602 180.92C38.1602 181.1 38.1602 181.28 38.1802 181.45C38.2902 182.71 38.9902 183.85 40.0702 184.51C41.3502 185.29 42.8202 185.7 44.3102 185.7H94.3902C95.8902 185.7 97.3502 185.29 98.6302 184.51C99.7102 183.85 100.41 182.72 100.52 181.45C100.53 181.27 100.54 181.09 100.54 180.92" stroke="#231815" stroke-width="0.25" stroke-linecap="round" stroke-linejoin="round"/>
<path d="M60.2302 63.64C60.6389 63.64 60.9702 63.3087 60.9702 62.9C60.9702 62.4913 60.6389 62.16 60.2302 62.16C59.8215 62.16 59.4902 62.4913 59.4902 62.9C59.4902 63.3087 59.8215 63.64 60.2302 63.64Z" fill="#B5B5B6" stroke="#B5B5B6" stroke-width="0.02" stroke-miterlimit="10"/>
<path d="M60.2303 65.12C61.4563 65.12 62.4503 64.1261 62.4503 62.9C62.4503 61.6739 61.4563 60.68 60.2303 60.68C59.0042 60.68 58.0103 61.6739 58.0103 62.9C58.0103 64.1261 59.0042 65.12 60.2303 65.12Z" stroke="#231815" stroke-width="0.25" stroke-miterlimit="10"/>
<path d="M60.2302 65.43C61.6275 65.43 62.7602 64.2973 62.7602 62.9C62.7602 61.5027 61.6275 60.37 60.2302 60.37C58.8329 60.37 57.7002 61.5027 57.7002 62.9C57.7002 64.2973 58.8329 65.43 60.2302 65.43Z" stroke="#B5B5B6" stroke-width="0.25" stroke-miterlimit="10"/>
<path d="M78.4802 63.64C78.8889 63.64 79.2202 63.3087 79.2202 62.9C79.2202 62.4913 78.8889 62.16 78.4802 62.16C78.0715 62.16 77.7402 62.4913 77.7402 62.9C77.7402 63.3087 78.0715 63.64 78.4802 63.64Z" fill="#B5B5B6" stroke="#B5B5B6" stroke-width="0.02" stroke-miterlimit="10"/>
<path d="M78.4803 65.12C79.7063 65.12 80.7002 64.1261 80.7002 62.9C80.7002 61.6739 79.7063 60.68 78.4803 60.68C77.2542 60.68 76.2603 61.6739 76.2603 62.9C76.2603 64.1261 77.2542 65.12 78.4803 65.12Z" stroke="#231815" stroke-width="0.25" stroke-miterlimit="10"/>
<path d="M78.4802 65.43C79.8775 65.43 81.0102 64.2973 81.0102 62.9C81.0102 61.5027 79.8775 60.37 78.4802 60.37C77.0829 60.37 75.9502 61.5027 75.9502 62.9C75.9502 64.2973 77.0829 65.43 78.4802 65.43Z" stroke="#B5B5B6" stroke-width="0.25" stroke-miterlimit="10"/>
<path d="M50.3002 62.11C51.3329 62.11 52.1702 61.2728 52.1702 60.24C52.1702 59.2072 51.3329 58.37 50.3002 58.37C49.2674 58.37 48.4302 59.2072 48.4302 60.24C48.4302 61.2728 49.2674 62.11 50.3002 62.11Z" stroke="#231815" stroke-width="0.25" stroke-miterlimit="10"/>
<path d="M50.3002 67.39C51.3329 67.39 52.1702 66.5528 52.1702 65.52C52.1702 64.4872 51.3329 63.65 50.3002 63.65C49.2674 63.65 48.4302 64.4872 48.4302 65.52C48.4302 66.5528 49.2674 67.39 50.3002 67.39Z" stroke="#231815" stroke-width="0.25" stroke-miterlimit="10"/>
<path d="M88.4003 62.11C89.433 62.11 90.2703 61.2728 90.2703 60.24C90.2703 59.2072 89.433 58.37 88.4003 58.37C87.3675 58.37 86.5303 59.2072 86.5303 60.24C86.5303 61.2728 87.3675 62.11 88.4003 62.11Z" stroke="#231815" stroke-width="0.25" stroke-miterlimit="10"/>
<path d="M88.4003 67.39C89.433 67.39 90.2703 66.5528 90.2703 65.52C90.2703 64.4872 89.433 63.65 88.4003 63.65C87.3675 63.65 86.5303 64.4872 86.5303 65.52C86.5303 66.5528 87.3675 67.39 88.4003 67.39Z" stroke="#231815" stroke-width="0.25" stroke-miterlimit="10"/>
<path d="M42.4901 64.11C42.6945 64.11 42.8601 63.9443 42.8601 63.74C42.8601 63.5357 42.6945 63.37 42.4901 63.37C42.2858 63.37 42.1201 63.5357 42.1201 63.74C42.1201 63.9443 42.2858 64.11 42.4901 64.11Z" fill="#040000"/>
<path d="M257.98 74.5H203.5V170.98H257.98V74.5Z" fill="url(#paint1_linear_1688_8564)"/>
<path d="M205.94 187.35H255.55" stroke="#231815" stroke-width="0.25" stroke-linecap="round" stroke-linejoin="round"/>
<path d="M199.51 61.08V180.92" stroke="#231815" stroke-width="0.25" stroke-linecap="round" stroke-linejoin="round"/>
<path d="M261.98 180.92V61.08" stroke="#231815" stroke-width="0.25" stroke-linecap="round" stroke-linejoin="round"/>
<path d="M257.98 170.99H203.5" stroke="#231815" stroke-width="0.25" stroke-linecap="round" stroke-linejoin="round"/>
<path d="M203.5 170.99V74.5" stroke="#231815" stroke-width="0.25" stroke-linecap="round" stroke-linejoin="round"/>
<path d="M257.98 74.5V170.99" stroke="#231815" stroke-width="0.25" stroke-linecap="round" stroke-linejoin="round"/>
<path d="M203.5 74.5H257.98" stroke="#231815" stroke-width="0.25" stroke-linecap="round" stroke-linejoin="round"/>
<path d="M255.55 54.65H205.94" stroke="#231815" stroke-width="0.25" stroke-linecap="round" stroke-linejoin="round"/>
<path d="M199.51 180.92C199.51 184.47 202.39 187.35 205.94 187.35" stroke="#231815" stroke-width="0.25" stroke-linecap="round" stroke-linejoin="round"/>
<path d="M255.55 187.35C259.1 187.35 261.98 184.47 261.98 180.92" stroke="#231815" stroke-width="0.25" stroke-linecap="round" stroke-linejoin="round"/>
<path d="M255.55 187.98H205.94" stroke="#898989" stroke-width="0.25" stroke-linecap="round" stroke-linejoin="round"/>
<path d="M198.89 180.92V61.08" stroke="#898989" stroke-width="0.25" stroke-linecap="round" stroke-linejoin="round"/>
<path d="M262.6 61.08V180.92" stroke="#898989" stroke-width="0.25" stroke-linecap="round" stroke-linejoin="round"/>
<path d="M205.94 54.02H255.55" stroke="#898989" stroke-width="0.25" stroke-linecap="round" stroke-linejoin="round"/>
<path d="M198.89 180.92C198.89 184.82 202.05 187.97 205.94 187.97" stroke="#898989" stroke-width="0.25" stroke-linecap="round" stroke-linejoin="round"/>
<path d="M255.55 187.98C259.45 187.98 262.6 184.82 262.6 180.93" stroke="#898989" stroke-width="0.25" stroke-linecap="round" stroke-linejoin="round"/>
<path d="M262.6 61.08C262.6 57.18 259.44 54.03 255.55 54.03" stroke="#898989" stroke-width="0.25" stroke-linecap="round" stroke-linejoin="round"/>
<path d="M205.94 54.02C202.04 54.02 198.89 57.18 198.89 61.07" stroke="#898989" stroke-width="0.25" stroke-linecap="round" stroke-linejoin="round"/>
<path d="M205.94 54.65C202.39 54.65 199.51 57.53 199.51 61.08" stroke="#231815" stroke-width="0.25" stroke-linecap="round" stroke-linejoin="round"/>
<path d="M261.98 61.08C261.98 57.53 259.1 54.65 255.55 54.65" stroke="#231815" stroke-width="0.25" stroke-linecap="round" stroke-linejoin="round"/>
<path d="M239.87 66.69C241.963 66.69 243.66 64.9931 243.66 62.9C243.66 60.8068 241.963 59.11 239.87 59.11C237.777 59.11 236.08 60.8068 236.08 62.9C236.08 64.9931 237.777 66.69 239.87 66.69Z" stroke="#231815" stroke-width="0.25" stroke-linecap="round" stroke-linejoin="round"/>
<path d="M221.62 66.69C223.713 66.69 225.41 64.9931 225.41 62.9C225.41 60.8068 223.713 59.11 221.62 59.11C219.527 59.11 217.83 60.8068 217.83 62.9C217.83 64.9931 219.527 66.69 221.62 66.69Z" stroke="#231815" stroke-width="0.25" stroke-linecap="round" stroke-linejoin="round"/>
<path d="M229.95 188.86H253.68" stroke="#231815" stroke-width="0.5" stroke-linecap="round" stroke-linejoin="round"/>
<path d="M253.68 188.86H255.58" stroke="#231815" stroke-width="0.5" stroke-linecap="round" stroke-linejoin="round"/>
<path d="M205.94 188.86H229.36" stroke="#231815" stroke-width="0.5" stroke-linecap="round" stroke-linejoin="round"/>
<path d="M198 61.08V180.92" stroke="#231815" stroke-width="0.5" stroke-linecap="round" stroke-linejoin="round"/>
<path d="M263.48 180.92V61.08" stroke="#231815" stroke-width="0.5" stroke-linecap="round" stroke-linejoin="round"/>
<path d="M255.55 53.14H205.94" stroke="#231815" stroke-width="0.5" stroke-linecap="round" stroke-linejoin="round"/>
<path d="M256.32 188.82C256.48 188.8 256.64 188.78 256.8 188.76" stroke="#231815" stroke-width="0.5" stroke-linecap="round" stroke-linejoin="round"/>
<path d="M256.8 188.76C256.8 188.76 256.88 188.75 256.92 188.74" stroke="#231815" stroke-width="0.5" stroke-linecap="round" stroke-linejoin="round"/>
<path d="M256.2 188.83C256.2 188.83 256.28 188.83 256.32 188.82" stroke="#231815" stroke-width="0.5" stroke-linecap="round" stroke-linejoin="round"/>
<path d="M255.87 188.85C255.93 188.85 255.99 188.85 256.04 188.85" stroke="#231815" stroke-width="0.5" stroke-linecap="round" stroke-linejoin="round"/>
<path d="M256.04 188.85C256.09 188.85 256.14 188.85 256.2 188.84" stroke="#231815" stroke-width="0.5" stroke-linecap="round" stroke-linejoin="round"/>
<path d="M256.92 188.74C257.12 188.71 257.31 188.66 257.5 188.61" stroke="#231815" stroke-width="0.5" stroke-linecap="round" stroke-linejoin="round"/>
<path d="M255.73 188.86C255.73 188.86 255.79 188.86 255.83 188.86" stroke="#231815" stroke-width="0.5" stroke-linecap="round" stroke-linejoin="round"/>
<path d="M255.58 188.86C255.58 188.86 255.68 188.86 255.73 188.86" stroke="#231815" stroke-width="0.5" stroke-linecap="round" stroke-linejoin="round"/>
<path d="M257.51 188.61C257.74 188.55 257.97 188.48 258.19 188.4" stroke="#231815" stroke-width="0.5" stroke-linecap="round" stroke-linejoin="round"/>
<path d="M229.36 188.86H229.95" stroke="#231815" stroke-width="0.5" stroke-linecap="round" stroke-linejoin="round"/>
<path d="M198 180.92C198 181.45 198.05 181.97 198.16 182.49C198.27 183.01 198.42 183.5 198.62 183.98C199.01 184.92 199.59 185.79 200.31 186.51C201.03 187.23 201.9 187.82 202.85 188.22C203.33 188.43 203.84 188.58 204.35 188.69C204.86 188.8 205.41 188.85 205.94 188.85" stroke="#231815" stroke-width="0.5" stroke-linecap="round" stroke-linejoin="round"/>
<path d="M258.19 188.41C258.96 188.14 259.68 187.75 260.33 187.26C260.98 186.77 261.54 186.19 262 185.54C262.46 184.89 262.84 184.15 263.09 183.38C263.34 182.61 263.48 181.76 263.48 180.94" stroke="#231815" stroke-width="0.5" stroke-linecap="round" stroke-linejoin="round"/>
<path d="M263.48 61.08C263.48 60.55 263.43 60.03 263.32 59.51C263.21 58.99 263.06 58.5 262.86 58.02C262.47 57.08 261.89 56.21 261.16 55.49C260.43 54.77 259.57 54.18 258.62 53.78C258.14 53.57 257.63 53.42 257.12 53.31C256.61 53.2 256.06 53.15 255.53 53.15" stroke="#231815" stroke-width="0.5" stroke-linecap="round" stroke-linejoin="round"/>
<path d="M205.94 53.14C205.41 53.14 204.87 53.19 204.35 53.3C203.83 53.41 203.33 53.56 202.85 53.77C201.91 54.17 201.04 54.76 200.31 55.48C199.58 56.2 199.01 57.07 198.62 58.01C198.42 58.49 198.27 58.99 198.16 59.5C198.05 60.01 198 60.55 198 61.07" stroke="#231815" stroke-width="0.5" stroke-linecap="round" stroke-linejoin="round"/>
<path fill-rule="evenodd" clip-rule="evenodd" d="M226.55 178.35C226.54 177.75 226.71 177.17 227.38 177.06C227.8 177 228.28 176.96 228.65 177.21C229.07 177.5 229.16 178.21 228.82 178.59C228.43 178.95 227.78 178.82 227.29 178.78C227.25 178.69 227.29 178.57 227.28 178.48L227.3 178.46C227.52 178.46 227.75 178.46 227.97 178.46C228.1 178.46 228.25 178.49 228.36 178.41C228.54 178.24 228.52 177.96 228.47 177.74C228.35 177.37 227.87 177.45 227.56 177.46C227.04 177.48 227.06 178.08 227.06 178.47C227.06 178.85 227.06 179.24 227.06 179.62L227.04 179.64H226.56C226.53 179.5 226.56 179.33 226.55 179.18C226.55 178.91 226.55 178.64 226.55 178.37M222.59 178.08C222.87 178.12 223.19 178.21 223.33 178.48C223.51 178.86 223.37 179.4 222.95 179.55C222.73 179.64 222.48 179.66 222.25 179.66C222.01 179.66 221.77 179.64 221.54 179.57C221.18 179.45 221.21 179.39 221.22 179.04C221.55 179.18 221.9 179.26 222.26 179.25C222.42 179.25 222.58 179.25 222.73 179.19C222.9 179.11 222.91 178.89 222.86 178.74C222.81 178.63 222.67 178.59 222.56 178.57C221.89 178.47 220.99 178.46 221.26 177.52C221.39 177.11 221.88 177.02 222.25 177.03C222.47 177.03 222.7 177.04 222.92 177.1C223.04 177.14 223.19 177.17 223.28 177.26V177.58C222.83 177.46 222.33 177.39 221.87 177.49C221.7 177.54 221.65 177.79 221.76 177.92C221.85 178.01 221.98 178.01 222.09 178.03C222.25 178.05 222.42 178.07 222.59 178.09M225.45 179.08C225.61 178.88 225.53 178.59 225.55 178.35C225.55 177.94 225.54 177.53 225.55 177.13C225.7 177.13 225.87 177.12 226.02 177.13C226.02 177.53 226.02 177.92 226.02 178.32C226.02 178.69 226.07 179.12 225.81 179.43C225.59 179.7 225.23 179.65 224.92 179.65C224.63 179.65 224.28 179.69 224.06 179.45C223.77 179.15 223.8 178.71 223.8 178.32C223.8 177.92 223.8 177.53 223.8 177.13C223.95 177.11 224.11 177.13 224.27 177.13C224.29 177.52 224.27 177.92 224.27 178.31C224.28 178.54 224.23 178.8 224.33 179.01C224.43 179.21 224.68 179.17 224.87 179.18C225.06 179.18 225.28 179.22 225.44 179.08M235.68 177.28C235.85 177.08 236.12 177.04 236.37 177.05C236.54 177.05 236.72 177.05 236.88 177.11C237.38 177.31 237.35 177.91 237.34 178.36C237.34 178.77 237.34 179.18 237.34 179.59L237.32 179.61C237.18 179.61 237.03 179.61 236.88 179.61C236.88 179.19 236.88 178.76 236.88 178.34C236.88 177.94 236.95 177.44 236.39 177.45C235.84 177.43 235.9 177.95 235.9 178.34C235.9 178.76 235.9 179.19 235.9 179.61C235.75 179.62 235.59 179.61 235.43 179.61C235.43 179.19 235.43 178.76 235.43 178.34C235.43 177.93 235.52 177.45 234.95 177.45C234.38 177.43 234.46 177.92 234.46 178.33C234.46 178.75 234.46 179.18 234.46 179.6C234.32 179.63 234.17 179.6 234.03 179.61L234.01 179.59C234.01 179.18 234.01 178.77 234.01 178.36C234.01 177.91 233.97 177.31 234.46 177.1C234.61 177.04 234.77 177.03 234.93 177.04C235.19 177.03 235.47 177.08 235.66 177.27M240.26 178.33C240.31 179.03 239.94 179.65 239.18 179.66C238.8 179.66 238.39 179.66 238.08 179.42C237.78 179.18 237.66 178.66 237.93 178.36C238.36 177.98 239.01 178.1 239.53 178.2L239.55 178.23V178.47C239.31 178.48 239.08 178.47 238.84 178.47C238.7 178.48 238.54 178.44 238.41 178.52C238.27 178.64 238.29 178.88 238.35 179.04C238.42 179.2 238.61 179.22 238.76 179.22C239.5 179.27 239.74 179.17 239.74 178.38C239.74 178.06 239.73 177.61 239.37 177.5C238.88 177.37 238.37 177.52 237.89 177.59C237.88 177.29 237.87 177.22 238.18 177.12C238.57 177 239 177.01 239.4 177.06C240.08 177.15 240.27 177.73 240.26 178.34M229.45 177.97C229.45 176.98 230.09 176.94 230.9 177.07C230.92 177.2 230.9 177.33 230.9 177.46L230.88 177.48C230.64 177.48 230.4 177.46 230.17 177.5C229.96 177.55 229.96 177.79 229.95 177.96C229.95 178.51 229.95 179.07 229.95 179.63H229.47L229.45 179.61V177.97ZM232.73 178.19C232.99 178.2 233.05 178 233.02 177.78C233.02 177.59 232.88 177.46 232.69 177.45C232.34 177.43 231.78 177.34 231.64 177.77C231.54 178.13 231.48 178.99 231.9 179.16C232.07 179.23 232.27 179.22 232.45 179.23C232.78 179.23 233.11 179.18 233.43 179.09C233.43 179.19 233.44 179.3 233.43 179.4C233.3 179.57 233.05 179.59 232.86 179.63C232.39 179.68 231.84 179.72 231.44 179.42C231.1 179.14 231.07 178.66 231.07 178.25C231.07 177.84 231.18 177.35 231.59 177.16C231.85 177.03 232.15 177.01 232.44 177.01C232.95 176.99 233.5 177.21 233.54 177.79C233.65 178.73 232.41 178.59 231.8 178.51V178.19C232.11 178.19 232.42 178.19 232.72 178.19H232.73Z" fill="#898989"/>
<path d="M199.55 180.92C199.55 181.1 199.55 181.28 199.57 181.45C199.68 182.71 200.38 183.85 201.46 184.51C202.74 185.29 204.21 185.7 205.7 185.7H255.78C257.28 185.7 258.74 185.29 260.02 184.51C261.1 183.85 261.8 182.72 261.91 181.45C261.92 181.27 261.93 181.09 261.93 180.92" stroke="#231815" stroke-width="0.25" stroke-linecap="round" stroke-linejoin="round"/>
<path d="M221.62 63.64C222.029 63.64 222.36 63.3087 222.36 62.9C222.36 62.4913 222.029 62.16 221.62 62.16C221.211 62.16 220.88 62.4913 220.88 62.9C220.88 63.3087 221.211 63.64 221.62 63.64Z" fill="#B5B5B6" stroke="#B5B5B6" stroke-width="0.02" stroke-miterlimit="10"/>
<path d="M221.62 65.12C222.846 65.12 223.84 64.1261 223.84 62.9C223.84 61.6739 222.846 60.68 221.62 60.68C220.394 60.68 219.4 61.6739 219.4 62.9C219.4 64.1261 220.394 65.12 221.62 65.12Z" stroke="#231815" stroke-width="0.25" stroke-miterlimit="10"/>
<path d="M221.62 65.43C223.017 65.43 224.15 64.2973 224.15 62.9C224.15 61.5027 223.017 60.37 221.62 60.37C220.223 60.37 219.09 61.5027 219.09 62.9C219.09 64.2973 220.223 65.43 221.62 65.43Z" stroke="#B5B5B6" stroke-width="0.25" stroke-miterlimit="10"/>
<path d="M239.87 63.64C240.279 63.64 240.61 63.3087 240.61 62.9C240.61 62.4913 240.279 62.16 239.87 62.16C239.461 62.16 239.13 62.4913 239.13 62.9C239.13 63.3087 239.461 63.64 239.87 63.64Z" fill="#B5B5B6" stroke="#B5B5B6" stroke-width="0.02" stroke-miterlimit="10"/>
<path d="M239.87 65.12C241.096 65.12 242.09 64.1261 242.09 62.9C242.09 61.6739 241.096 60.68 239.87 60.68C238.644 60.68 237.65 61.6739 237.65 62.9C237.65 64.1261 238.644 65.12 239.87 65.12Z" stroke="#231815" stroke-width="0.25" stroke-miterlimit="10"/>
<path d="M239.87 65.43C241.267 65.43 242.4 64.2973 242.4 62.9C242.4 61.5027 241.267 60.37 239.87 60.37C238.473 60.37 237.34 61.5027 237.34 62.9C237.34 64.2973 238.473 65.43 239.87 65.43Z" stroke="#B5B5B6" stroke-width="0.25" stroke-miterlimit="10"/>
<path d="M211.69 62.11C212.723 62.11 213.56 61.2728 213.56 60.24C213.56 59.2072 212.723 58.37 211.69 58.37C210.657 58.37 209.82 59.2072 209.82 60.24C209.82 61.2728 210.657 62.11 211.69 62.11Z" stroke="#231815" stroke-width="0.25" stroke-miterlimit="10"/>
<path d="M211.69 67.39C212.723 67.39 213.56 66.5528 213.56 65.52C213.56 64.4872 212.723 63.65 211.69 63.65C210.657 63.65 209.82 64.4872 209.82 65.52C209.82 66.5528 210.657 67.39 211.69 67.39Z" stroke="#231815" stroke-width="0.25" stroke-miterlimit="10"/>
<path d="M249.79 62.11C250.823 62.11 251.66 61.2728 251.66 60.24C251.66 59.2072 250.823 58.37 249.79 58.37C248.757 58.37 247.92 59.2072 247.92 60.24C247.92 61.2728 248.757 62.11 249.79 62.11Z" stroke="#231815" stroke-width="0.25" stroke-miterlimit="10"/>
<path d="M249.79 67.39C250.823 67.39 251.66 66.5528 251.66 65.52C251.66 64.4872 250.823 63.65 249.79 63.65C248.757 63.65 247.92 64.4872 247.92 65.52C247.92 66.5528 248.757 67.39 249.79 67.39Z" stroke="#231815" stroke-width="0.25" stroke-miterlimit="10"/>
<path d="M203.88 64.11C204.084 64.11 204.25 63.9443 204.25 63.74C204.25 63.5357 204.084 63.37 203.88 63.37C203.675 63.37 203.51 63.5357 203.51 63.74C203.51 63.9443 203.675 64.11 203.88 64.11Z" fill="#040000"/>
<path d="M120.05 121H179.95" stroke="black" stroke-miterlimit="10"/>
<path d="M122.86 124.7L121.28 121L122.86 117.3L114.08 121L122.86 124.7Z" fill="black"/>
<path d="M177.14 124.7L178.72 121L177.14 117.3L185.92 121L177.14 124.7Z" fill="black"/>
<path d="M129.98 104.81C129.98 105.48 129.79 106.02 129.41 106.41C129.03 106.8 128.53 107.07 127.91 107.2V107.26C128.7 107.35 129.3 107.61 129.7 108.02C130.1 108.43 130.29 108.97 130.29 109.63C130.29 110.22 130.15 110.74 129.88 111.18C129.61 111.63 129.19 111.98 128.63 112.23C128.07 112.48 127.34 112.61 126.45 112.61C125.93 112.61 125.44 112.57 124.99 112.49C124.54 112.41 124.11 112.27 123.7 112.06V110.91C124.12 111.12 124.57 111.29 125.06 111.4C125.55 111.51 126.01 111.57 126.46 111.57C127.36 111.57 128 111.4 128.4 111.04C128.8 110.69 128.99 110.21 128.99 109.59C128.99 108.97 128.74 108.51 128.25 108.24C127.76 107.96 127.07 107.83 126.19 107.83H125.22V106.78H126.2C127.02 106.78 127.64 106.61 128.07 106.26C128.49 105.92 128.71 105.46 128.71 104.89C128.71 104.41 128.55 104.03 128.22 103.76C127.89 103.49 127.45 103.36 126.89 103.36C126.33 103.36 125.89 103.44 125.5 103.6C125.12 103.76 124.74 103.96 124.37 104.2L123.75 103.36C124.11 103.08 124.55 102.84 125.07 102.63C125.6 102.42 126.2 102.32 126.87 102.32C127.92 102.32 128.69 102.55 129.2 103.02C129.71 103.49 129.96 104.08 129.96 104.8L129.98 104.81Z" fill="#231815"/>
<path d="M138.41 107.46C138.41 108.54 138.3 109.47 138.07 110.23C137.85 111 137.49 111.58 137 111.99C136.51 112.4 135.87 112.61 135.08 112.61C133.95 112.61 133.12 112.15 132.58 111.24C132.04 110.33 131.77 109.07 131.77 107.45C131.77 106.37 131.88 105.44 132.1 104.68C132.32 103.92 132.67 103.33 133.16 102.92C133.65 102.51 134.28 102.31 135.08 102.31C136.2 102.31 137.04 102.76 137.59 103.66C138.14 104.56 138.42 105.82 138.42 107.45L138.41 107.46ZM133 107.46C133 108.83 133.16 109.86 133.47 110.54C133.78 111.22 134.32 111.56 135.07 111.56C135.82 111.56 136.35 111.22 136.67 110.55C136.99 109.87 137.15 108.84 137.15 107.46C137.15 106.08 136.99 105.08 136.67 104.39C136.35 103.71 135.81 103.37 135.07 103.37C134.33 103.37 133.78 103.71 133.47 104.39C133.16 105.07 133 106.09 133 107.46Z" fill="#231815"/>
<path d="M146.42 107.46C146.42 108.54 146.31 109.47 146.08 110.23C145.86 111 145.5 111.58 145.01 111.99C144.52 112.4 143.88 112.61 143.09 112.61C141.96 112.61 141.13 112.15 140.59 111.24C140.05 110.33 139.78 109.07 139.78 107.45C139.78 106.37 139.89 105.44 140.11 104.68C140.33 103.92 140.68 103.33 141.17 102.92C141.66 102.51 142.29 102.31 143.09 102.31C144.21 102.31 145.05 102.76 145.6 103.66C146.15 104.56 146.43 105.82 146.43 107.45L146.42 107.46ZM141.01 107.46C141.01 108.83 141.17 109.86 141.48 110.54C141.79 111.22 142.33 111.56 143.08 111.56C143.83 111.56 144.36 111.22 144.68 110.55C145 109.87 145.16 108.84 145.16 107.46C145.16 106.08 145 105.08 144.68 104.39C144.36 103.71 143.82 103.37 143.08 103.37C142.34 103.37 141.79 103.71 141.48 104.39C141.17 105.07 141.01 106.09 141.01 107.46Z" fill="#231815"/>
<path d="M160.16 104.83C161.01 104.83 161.64 105.05 162.06 105.49C162.48 105.93 162.69 106.63 162.69 107.59V112.48H161.47V107.65C161.47 106.47 160.96 105.87 159.94 105.87C159.21 105.87 158.69 106.08 158.38 106.5C158.07 106.92 157.91 107.53 157.91 108.33V112.47H156.69V107.64C156.69 106.46 156.18 105.86 155.15 105.86C154.39 105.86 153.87 106.09 153.58 106.56C153.29 107.03 153.15 107.7 153.15 108.58V112.47H151.92V104.97H152.91L153.09 105.99H153.16C153.39 105.6 153.71 105.31 154.11 105.11C154.51 104.91 154.93 104.82 155.38 104.82C156.56 104.82 157.32 105.24 157.68 106.08H157.75C158 105.65 158.34 105.33 158.77 105.13C159.2 104.92 159.66 104.82 160.16 104.82V104.83Z" fill="#231815"/>
<path d="M173.25 104.83C174.1 104.83 174.73 105.05 175.15 105.49C175.57 105.93 175.78 106.63 175.78 107.59V112.48H174.56V107.65C174.56 106.47 174.05 105.87 173.03 105.87C172.3 105.87 171.78 106.08 171.47 106.5C171.16 106.92 171 107.53 171 108.33V112.47H169.78V107.64C169.78 106.46 169.27 105.86 168.24 105.86C167.48 105.86 166.96 106.09 166.67 106.56C166.38 107.03 166.24 107.7 166.24 108.58V112.47H165.01V104.97H166L166.18 105.99H166.25C166.48 105.6 166.8 105.31 167.2 105.11C167.6 104.91 168.02 104.82 168.47 104.82C169.65 104.82 170.41 105.24 170.77 106.08H170.84C171.09 105.65 171.43 105.33 171.86 105.13C172.29 104.92 172.75 104.82 173.25 104.82V104.83Z" fill="#231815"/>
<path d="M45.0799 32.2501L42.4199 42.2501H41.1499L39.1999 35.7001C39.1199 35.4401 39.0399 35.1701 38.9699 34.9001C38.8999 34.6201 38.8399 34.3801 38.7899 34.1701C38.7399 33.9601 38.7099 33.8101 38.6999 33.7301C38.6999 33.8501 38.6399 34.1101 38.5499 34.5101C38.4599 34.9101 38.3499 35.3201 38.2299 35.7501L36.3399 42.2601H35.0699L32.4199 32.2601H33.7399L35.2899 38.3601C35.3999 38.7901 35.4999 39.2001 35.5799 39.6101C35.6599 40.0101 35.7199 40.3901 35.7699 40.7401C35.8199 40.3801 35.8899 39.9801 35.9799 39.5501C36.0699 39.1201 36.1799 38.7001 36.2999 38.2901L38.0599 32.2601H39.3599L41.1899 38.3401C41.3199 38.7701 41.4299 39.2001 41.5299 39.6301C41.6199 40.0601 41.6899 40.4301 41.7399 40.7501C41.7799 40.4001 41.8399 40.0301 41.9299 39.6201C42.0199 39.2101 42.1199 38.7901 42.2299 38.3501L43.7699 32.2601H45.0899L45.0799 32.2501Z" fill="#231815"/>
<path d="M49.0199 34.62C49.9299 34.62 50.6099 34.82 51.0499 35.22C51.4899 35.62 51.7099 36.26 51.7099 37.14V42.25H50.8099L50.5699 41.19H50.5099C50.1799 41.6 49.8399 41.9 49.4699 42.1C49.1099 42.3 48.6099 42.39 47.9899 42.39C47.3099 42.39 46.7399 42.21 46.2999 41.85C45.8499 41.49 45.6299 40.93 45.6299 40.16C45.6299 39.39 45.9199 38.84 46.5099 38.43C47.0999 38.02 47.9999 37.8 49.2299 37.76L50.4999 37.72V37.27C50.4999 36.65 50.3699 36.21 50.0899 35.97C49.8199 35.73 49.4399 35.61 48.9399 35.61C48.5499 35.61 48.1699 35.67 47.8199 35.78C47.4699 35.9 47.1299 36.03 46.8299 36.18L46.4499 35.26C46.7799 35.08 47.1599 34.93 47.6099 34.8C48.0599 34.67 48.5299 34.61 49.0099 34.61L49.0199 34.62ZM50.4899 38.58L49.3799 38.62C48.4499 38.66 47.7999 38.81 47.4399 39.07C47.0799 39.33 46.8999 39.7 46.8999 40.18C46.8999 40.6 47.0299 40.91 47.2799 41.1C47.5399 41.3 47.8699 41.39 48.2699 41.39C48.8899 41.39 49.4199 41.22 49.8499 40.86C50.2699 40.51 50.4899 39.97 50.4899 39.24V38.57V38.58Z" fill="#231815"/>
<path d="M55.2598 42.25H54.0298V31.61H55.2598V42.25Z" fill="#231815"/>
<path d="M58.8701 42.25H57.6401V31.61H58.8701V42.25Z" fill="#231815"/>
<defs>
<linearGradient id="paint0_linear_1688_8564" x1="31.6104" y1="160.49" x2="107.09" y2="85.01" gradientUnits="userSpaceOnUse">
<stop stop-color="#BFBFBF"/>
<stop offset="0.14" stop-color="#C2C2C2"/>
<stop offset="0.27" stop-color="#CECECE"/>
<stop offset="0.4" stop-color="#E0E0E0"/>
<stop offset="0.53" stop-color="#FBFBFB"/>
<stop offset="0.54" stop-color="#E0E0E0"/>
<stop offset="0.55" stop-color="#CDCDCD"/>
<stop offset="0.56" stop-color="#CCCCCC"/>
<stop offset="1" stop-color="white"/>
</linearGradient>
<linearGradient id="paint1_linear_1688_8564" x1="193" y1="160.49" x2="268.48" y2="85.01" gradientUnits="userSpaceOnUse">
<stop stop-color="#BFBFBF"/>
<stop offset="0.14" stop-color="#C2C2C2"/>
<stop offset="0.27" stop-color="#CECECE"/>
<stop offset="0.4" stop-color="#E0E0E0"/>
<stop offset="0.53" stop-color="#FBFBFB"/>
<stop offset="0.54" stop-color="#E0E0E0"/>
<stop offset="0.55" stop-color="#CDCDCD"/>
<stop offset="0.56" stop-color="#CCCCCC"/>
<stop offset="1" stop-color="white"/>
</linearGradient>
</defs>
</svg>
