<svg xmlns="http://www.w3.org/2000/svg" width="1097" height="750" fill="none" viewBox="0 0 1097 750"><path fill="#fff" d="M0 0h1097v750H0z"/><path fill="#000" d="M213.146 85.646a.5.5 0 0 0 0 .708l3.182 3.182a.501.501 0 0 0 .708-.708L214.207 86l2.829-2.828a.5.5 0 0 0-.708-.707zm208.708.708a.5.5 0 0 0 0-.708l-3.182-3.181a.501.501 0 0 0-.708.707L420.793 86l-2.829 2.828a.5.5 0 0 0 .708.707zM213.5 86v.5h208v-1h-208z"/><path stroke="#000" d="M212.5 82v8M422.5 82v8"/><path fill="#000" d="M182.354 116.646a.5.5 0 0 0-.708 0l-3.182 3.182a.502.502 0 0 0 .708.708l2.828-2.829 2.828 2.829a.502.502 0 0 0 .708-.708zm-.708 516.708a.5.5 0 0 0 .708 0l3.182-3.182a.502.502 0 0 0-.708-.708L182 632.293l-2.828-2.829a.502.502 0 0 0-.708.708zM182 117h-.5v516h1V117z"/><path stroke="#000" d="M178 116h8M178 634h8"/><path fill="#000" d="M532.146 85.647a.5.5 0 0 0 0 .707l3.182 3.182a.501.501 0 0 0 .708-.708L533.207 86l2.829-2.828a.5.5 0 0 0-.708-.707zm64.708.707a.5.5 0 0 0 0-.707l-3.182-3.183a.501.501 0 0 0-.708.708L595.793 86l-2.829 2.828a.5.5 0 0 0 .708.707zM532.5 86v.5h64v-1h-64z"/><path stroke="#000" d="M531.5 82v8M597.5 82v8"/><path fill="#000" d="M511.146 663.646a.5.5 0 0 0 0 .708l3.182 3.182a.502.502 0 0 0 .708-.708L512.207 664l2.829-2.828a.502.502 0 0 0-.708-.708zm85.708.708a.5.5 0 0 0 0-.708l-3.182-3.182a.502.502 0 0 0-.708.708l2.829 2.828-2.829 2.828a.502.502 0 0 0 .708.708zM511.5 664v.5h85v-1h-85z"/><path stroke="#000" d="M510.5 660v8M597.5 660v8"/><path fill="#000" d="m755.596 678-2.983-10.909h1.342l2.28 8.885h.106l2.323-8.885h1.491l2.323 8.885h.106l2.28-8.885h1.342L763.223 678h-1.363l-2.408-8.693h-.085L756.959 678zm14.754.17q-1.182 0-2.04-.522a3.5 3.5 0 0 1-1.315-1.47q-.459-.948-.458-2.205 0-1.257.458-2.216.463-.964 1.289-1.502.83-.543 1.939-.543.64 0 1.262.213.624.213 1.135.692.511.474.815 1.257t.303 1.929v.532h-6.307v-1.086h5.029q0-.693-.277-1.236a2.1 2.1 0 0 0-.778-.858q-.501-.314-1.182-.314-.751 0-1.3.373a2.45 2.45 0 0 0-.836.959 2.8 2.8 0 0 0-.293 1.267v.725q0 .927.319 1.571.326.639.9.975.576.33 1.337.33.496 0 .895-.138.405-.144.698-.426a1.95 1.95 0 0 0 .453-.714l1.214.341a2.7 2.7 0 0 1-.644 1.086 3.14 3.14 0 0 1-1.119.725 4.2 4.2 0 0 1-1.497.255m5.301-.17v-8.182h1.257V678zm.639-9.545a.9.9 0 0 1-.634-.251.8.8 0 0 1-.261-.602q0-.351.261-.602a.9.9 0 0 1 .634-.25q.367 0 .628.25a.8.8 0 0 1 .267.602.8.8 0 0 1-.267.602.87.87 0 0 1-.628.251m6.223 12.784q-.912 0-1.566-.235a3.3 3.3 0 0 1-1.092-.607 3.3 3.3 0 0 1-.687-.799l1.001-.703q.17.223.431.511.261.294.714.506.459.219 1.199.219.99 0 1.635-.48.645-.479.645-1.502v-1.662h-.107a7 7 0 0 1-.394.554q-.25.325-.725.581-.468.25-1.267.25a3.4 3.4 0 0 1-1.779-.469q-.784-.468-1.242-1.363-.452-.895-.452-2.174 0-1.256.442-2.189.442-.937 1.23-1.449.789-.516 1.822-.516.799 0 1.268.266.474.261.724.597.256.33.394.543h.128v-1.3h1.215v8.416q0 1.055-.48 1.716a2.73 2.73 0 0 1-1.278.974 4.8 4.8 0 0 1-1.779.315m-.043-4.496q.756 0 1.278-.346.523-.346.794-.996.272-.65.272-1.556 0-.884-.267-1.561a2.34 2.34 0 0 0-.788-1.06q-.522-.383-1.289-.383-.799 0-1.332.405-.527.405-.793 1.086a4.2 4.2 0 0 0-.261 1.513q0 .852.266 1.508.271.65.799 1.022.533.368 1.321.368m7.138-3.665V678h-1.257v-10.909h1.257v4.006h.106q.288-.635.863-1.007.58-.378 1.545-.378.837 0 1.465.335.629.33.975 1.018.351.681.351 1.736V678h-1.257v-5.114q0-.974-.506-1.507-.5-.538-1.39-.538a2.3 2.3 0 0 0-1.108.261 1.9 1.9 0 0 0-.767.762q-.277.5-.277 1.214m11.163-3.26v1.066h-4.24v-1.066zm-3.004-1.96h1.257v7.798q0 .533.155.799a.8.8 0 0 0 .404.352q.25.085.528.085.207 0 .341-.021l.213-.043.255 1.129a3 3 0 0 1-.356.096 2.6 2.6 0 0 1-.581.054q-.532 0-1.044-.23a2.1 2.1 0 0 1-.842-.697q-.33-.47-.33-1.183zm5.811 10.227a.92.92 0 0 1-.676-.282.92.92 0 0 1-.282-.677q0-.393.282-.676a.92.92 0 0 1 .676-.282q.395 0 .677.282a.92.92 0 0 1 .282.676.994.994 0 0 1-.479.831.9.9 0 0 1-.48.128m0-6.072a.92.92 0 0 1-.676-.283.92.92 0 0 1-.282-.676q0-.394.282-.677a.92.92 0 0 1 .676-.282q.395 0 .677.282a.93.93 0 0 1 .282.677.9.9 0 0 1-.133.479 1 1 0 0 1-.346.352.9.9 0 0 1-.48.128m10.907 6.136q-1.098 0-1.939-.389-.837-.393-1.305-1.081a2.7 2.7 0 0 1-.463-1.577 2.9 2.9 0 0 1 .271-1.278q.277-.591.757-.986a2.3 2.3 0 0 1 1.081-.506v-.064a2.1 2.1 0 0 1-1.247-.878 2.67 2.67 0 0 1-.458-1.551 2.64 2.64 0 0 1 .421-1.486 2.97 2.97 0 0 1 1.172-1.033q.751-.378 1.71-.378.948 0 1.694.378t1.172 1.033q.431.656.436 1.486a2.7 2.7 0 0 1-.474 1.551 2.1 2.1 0 0 1-1.23.878v.064q.591.107 1.065.506.474.395.757.986.282.586.287 1.278a2.75 2.75 0 0 1-.479 1.577q-.47.687-1.305 1.081-.831.39-1.923.389m0-1.172q.741 0 1.278-.239.538-.24.831-.677t.299-1.023a1.97 1.97 0 0 0-.32-1.092 2.17 2.17 0 0 0-.858-.745 2.7 2.7 0 0 0-1.23-.272q-.698 0-1.247.272a2.16 2.16 0 0 0-.857.745q-.309.474-.304 1.092-.005.586.283 1.023.293.437.836.677.543.239 1.289.239m0-5.177q.586 0 1.039-.235a1.8 1.8 0 0 0 .719-.655q.261-.42.266-.985a1.8 1.8 0 0 0-.261-.964 1.7 1.7 0 0 0-.708-.64 2.3 2.3 0 0 0-1.055-.229 2.4 2.4 0 0 0-1.071.229 1.66 1.66 0 0 0-.708.64 1.77 1.77 0 0 0-.245.964q-.005.564.25.985.261.421.719.655.459.235 1.055.235m9.243 6.349q-1.097 0-1.939-.389-.835-.393-1.305-1.081a2.7 2.7 0 0 1-.463-1.577 2.9 2.9 0 0 1 .271-1.278q.277-.591.757-.986a2.3 2.3 0 0 1 1.081-.506v-.064a2.1 2.1 0 0 1-1.246-.878 2.66 2.66 0 0 1-.458-1.551 2.63 2.63 0 0 1 .42-1.486 2.97 2.97 0 0 1 1.172-1.033q.751-.378 1.71-.378.948 0 1.694.378t1.172 1.033q.43.656.437 1.486a2.7 2.7 0 0 1-.474 1.551 2.1 2.1 0 0 1-1.231.878v.064q.591.107 1.065.506.474.395.757.986.282.586.287 1.278a2.75 2.75 0 0 1-.479 1.577q-.468.687-1.305 1.081-.831.39-1.923.389m0-1.172q.741 0 1.278-.239.539-.24.831-.677.293-.437.299-1.023a1.96 1.96 0 0 0-.32-1.092 2.16 2.16 0 0 0-.857-.745 2.7 2.7 0 0 0-1.231-.272 2.8 2.8 0 0 0-1.246.272 2.17 2.17 0 0 0-.858.745q-.309.474-.304 1.092-.005.586.283 1.023.293.437.836.677.543.239 1.289.239m0-5.177q.586 0 1.039-.235a1.8 1.8 0 0 0 .719-.655q.261-.42.266-.985a1.8 1.8 0 0 0-.261-.964 1.7 1.7 0 0 0-.708-.64 2.3 2.3 0 0 0-1.055-.229 2.4 2.4 0 0 0-1.071.229 1.66 1.66 0 0 0-.708.64 1.77 1.77 0 0 0-.245.964q-.005.564.25.985.261.421.719.655t1.055.235m13.292 9.439q-.912 0-1.567-.235a3.3 3.3 0 0 1-1.091-.607 3.3 3.3 0 0 1-.688-.799l1.002-.703q.17.223.431.511.261.294.714.506.458.219 1.199.219.99 0 1.635-.48.644-.479.644-1.502v-1.662h-.106a7 7 0 0 1-.394.554q-.25.325-.725.581-.468.25-1.268.25-.99 0-1.779-.469-.783-.468-1.241-1.363-.453-.895-.453-2.174 0-1.256.443-2.189.441-.937 1.23-1.449.789-.516 1.822-.516.798 0 1.268.266.474.261.724.597.255.33.394.543h.128v-1.3h1.214v8.416q0 1.055-.479 1.716a2.73 2.73 0 0 1-1.278.974 4.8 4.8 0 0 1-1.779.315m-.043-4.496q.756 0 1.278-.346t.794-.996.272-1.556q0-.884-.267-1.561a2.34 2.34 0 0 0-.788-1.06q-.522-.383-1.289-.383-.8 0-1.332.405-.527.405-.793 1.086a4.2 4.2 0 0 0-.261 1.513q0 .852.266 1.508.271.65.799 1.022.532.368 1.321.368m-134.971 13.802q0-2.013.522-3.702a11.6 11.6 0 0 1 1.502-3.116h1.108a7 7 0 0 0-.719 1.3 13 13 0 0 0-.58 1.689q-.25.915-.395 1.896a14 14 0 0 0-.138 1.933q0 1.268.245 2.573t.66 2.424q.416 1.119.927 1.822h-1.108a11.6 11.6 0 0 1-1.502-3.111q-.522-1.693-.522-3.708m6.479-5.454V696h-1.321v-10.909zm3.735 5.987V696h-1.257v-8.182h1.215v1.279h.106q.288-.624.874-1.002.586-.383 1.512-.383.831 0 1.455.341.622.335.969 1.022.346.682.346 1.726V696h-1.257v-5.114q0-.963-.5-1.502-.5-.543-1.375-.543-.602 0-1.076.261a1.87 1.87 0 0 0-.74.762q-.272.5-.272 1.214m10.841 5.092q-1.15 0-1.981-.543a3.54 3.54 0 0 1-1.279-1.497q-.447-.953-.447-2.178 0-1.247.458-2.2.464-.959 1.289-1.497.83-.543 1.939-.543.863 0 1.555.319.693.32 1.135.895.442.576.549 1.342h-1.257q-.144-.559-.64-.99-.49-.437-1.321-.437-.734 0-1.289.383-.548.379-.857 1.071-.304.687-.304 1.614 0 .948.298 1.651.304.703.853 1.092.554.39 1.299.389.49 0 .89-.17t.676-.49q.277-.32.395-.767h1.257a2.9 2.9 0 0 1-1.63 2.221q-.682.336-1.588.335m6.312-11.079V696h-1.257v-10.909zm7.459 7.564v-4.837h1.257V696h-1.257v-1.385h-.085a2.7 2.7 0 0 1-.895 1.06q-.607.432-1.534.432-.767 0-1.364-.336-.596-.34-.937-1.023-.34-.687-.341-1.731v-5.199h1.257v5.114q0 .894.501 1.427.506.533 1.289.533.468 0 .953-.24.49-.238.821-.735.335-.495.335-1.262m6.649 3.515q-1.023 0-1.805-.516-.784-.522-1.226-1.47-.441-.954-.442-2.254 0-1.289.442-2.237t1.231-1.465q.788-.516 1.822-.516.798 0 1.262.266.469.261.714.597.25.33.389.543h.106v-4.027h1.257V696h-1.214v-1.257h-.149a8 8 0 0 1-.395.565q-.255.335-.729.601-.474.261-1.263.261m.171-1.129q.756 0 1.278-.394.522-.4.794-1.103.271-.708.271-1.635 0-.916-.266-1.603-.266-.693-.788-1.076-.522-.389-1.289-.389-.8 0-1.332.41-.528.405-.794 1.103a4.4 4.4 0 0 0-.261 1.555q0 .874.267 1.587.271.709.799 1.13.532.415 1.321.415m6.056.959v-8.182h1.257V696zm.639-9.545a.9.9 0 0 1-.633-.251.8.8 0 0 1-.261-.602q0-.351.261-.602a.9.9 0 0 1 .633-.25q.368 0 .629.25a.8.8 0 0 1 .266.602.8.8 0 0 1-.266.602.88.88 0 0 1-.629.251m4.178 4.623V696h-1.257v-8.182h1.214v1.279h.107q.288-.624.873-1.002.586-.383 1.513-.383.831 0 1.454.341.624.335.97 1.022.346.682.346 1.726V696h-1.257v-5.114q0-.963-.501-1.502-.501-.543-1.374-.543-.602 0-1.076.261a1.86 1.86 0 0 0-.74.762q-.273.5-.272 1.214m10.82 8.161q-.912 0-1.566-.235a3.3 3.3 0 0 1-1.092-.607 3.3 3.3 0 0 1-.687-.799l1.001-.703q.17.223.431.511.261.294.714.506.458.219 1.199.219.99 0 1.635-.48.645-.479.645-1.502v-1.662h-.107a7 7 0 0 1-.394.554q-.25.325-.725.581-.468.25-1.267.25a3.4 3.4 0 0 1-1.779-.469q-.783-.468-1.242-1.363-.452-.895-.452-2.174 0-1.257.442-2.189.442-.937 1.23-1.449.789-.516 1.822-.516.799 0 1.268.266.474.261.724.597.256.33.394.543h.128v-1.3h1.215v8.416q0 1.055-.48 1.716a2.73 2.73 0 0 1-1.278.974 4.8 4.8 0 0 1-1.779.315m-.043-4.496q.756 0 1.279-.346t.793-.996q.272-.65.272-1.556 0-.884-.266-1.561-.267-.676-.789-1.06-.522-.383-1.289-.383-.799 0-1.332.405-.527.405-.793 1.086a4.2 4.2 0 0 0-.261 1.513q0 .852.266 1.508.272.65.799 1.022.533.368 1.321.368M777.255 696l-2.493-8.182h1.321l1.769 6.264h.085l1.747-6.264h1.343l1.725 6.243h.086l1.768-6.243h1.321L783.434 696h-1.236l-1.789-6.286h-.128l-1.79 6.286zm12.742.192q-.778 0-1.412-.293a2.43 2.43 0 0 1-1.007-.858q-.372-.564-.372-1.363 0-.703.277-1.14.276-.442.74-.693a4 4 0 0 1 1.023-.373q.564-.127 1.134-.202.745-.096 1.209-.144.47-.053.682-.176.219-.121.219-.426v-.042q0-.788-.432-1.226-.426-.436-1.294-.436-.9 0-1.412.394t-.719.841l-1.193-.426q.32-.745.852-1.161a3.2 3.2 0 0 1 1.172-.586q.639-.17 1.257-.17.395 0 .906.096.516.09.996.378.485.287.804.868t.32 1.555V696h-1.257v-1.108h-.064a2.2 2.2 0 0 1-.426.57 2.5 2.5 0 0 1-.794.517q-.495.213-1.209.213m.191-1.13q.747 0 1.258-.292a2 2 0 0 0 1.044-1.732v-1.15q-.08.095-.352.176a6 6 0 0 1-.618.133q-.346.052-.676.096-.325.037-.528.064a4.8 4.8 0 0 0-.916.207q-.42.14-.682.421-.255.277-.255.756 0 .656.484.991.49.33 1.241.33m11.649-5.411-1.13.319a2 2 0 0 0-.314-.548 1.5 1.5 0 0 0-.554-.448q-.351-.176-.9-.176-.751 0-1.252.347-.495.34-.495.868 0 .468.341.74.34.271 1.065.453l1.214.298q1.098.267 1.636.815.538.543.538 1.401 0 .704-.405 1.257-.399.555-1.119.874-.719.32-1.672.319-1.252 0-2.072-.543t-1.039-1.587l1.193-.299q.171.661.645.991.48.33 1.251.33.88 0 1.396-.372.522-.379.522-.906a.95.95 0 0 0-.298-.714q-.298-.293-.916-.436l-1.364-.32q-1.124-.267-1.651-.826-.522-.564-.522-1.411 0-.693.389-1.225a2.64 2.64 0 0 1 1.07-.837q.683-.303 1.545-.303 1.215 0 1.907.532.697.532.991 1.407m3.298 1.427V696h-1.257v-10.909h1.257v4.006h.107q.287-.635.863-1.007.58-.378 1.544-.378.837 0 1.465.335.629.33.975 1.018.352.681.352 1.736V696h-1.257v-5.114q0-.974-.507-1.507-.5-.538-1.39-.538a2.3 2.3 0 0 0-1.108.261 1.9 1.9 0 0 0-.767.762q-.277.5-.277 1.214m11.036 5.092q-1.184 0-2.04-.522a3.5 3.5 0 0 1-1.316-1.47q-.458-.948-.458-2.205t.458-2.216q.464-.964 1.289-1.502.83-.543 1.939-.543.64 0 1.262.213.624.213 1.135.692.512.474.815 1.257t.304 1.929v.532h-6.307v-1.086h5.028q0-.693-.277-1.236a2.1 2.1 0 0 0-.778-.858q-.5-.314-1.182-.314-.751 0-1.3.373a2.45 2.45 0 0 0-.836.959 2.8 2.8 0 0 0-.293 1.267v.725q0 .927.32 1.571.324.639.9.975.575.33 1.337.33.495 0 .895-.138.405-.144.697-.426.294-.288.453-.714l1.215.341a2.7 2.7 0 0 1-.645 1.086 3.1 3.1 0 0 1-1.118.725 4.2 4.2 0 0 1-1.497.255m5.3-.17v-8.182h1.214v1.236h.086q.224-.607.809-.985a2.4 2.4 0 0 1 1.321-.379 12 12 0 0 1 .661.022v1.278a3 3 0 0 0-.293-.048 3 3 0 0 0-.474-.037q-.597 0-1.066.25a1.9 1.9 0 0 0-.735.682 1.84 1.84 0 0 0-.266.985V696zm12.207.192q-.778 0-1.411-.293a2.4 2.4 0 0 1-1.007-.858q-.373-.564-.373-1.363 0-.703.277-1.14.277-.442.741-.693a3.9 3.9 0 0 1 1.022-.373 13 13 0 0 1 1.135-.202q.745-.096 1.209-.144.47-.053.682-.176.218-.121.218-.426v-.042q0-.788-.431-1.226-.426-.436-1.295-.436-.9 0-1.411.394-.512.394-.719.841l-1.193-.426q.32-.745.852-1.161a3.2 3.2 0 0 1 1.172-.586q.639-.17 1.257-.17.394 0 .905.096.517.09.996.378.486.287.805.868t.319 1.555V696h-1.257v-1.108h-.064a2.2 2.2 0 0 1-.426.57 2.5 2.5 0 0 1-.793.517q-.496.213-1.21.213m.192-1.13q.745 0 1.257-.292a2 2 0 0 0 1.044-1.732v-1.15q-.08.095-.351.176a6 6 0 0 1-.618.133q-.347.052-.677.096a24 24 0 0 0-.527.064 4.7 4.7 0 0 0-.916.207 1.6 1.6 0 0 0-.682.421q-.256.277-.256.756 0 .656.485.991.49.33 1.241.33m7.11-3.984V696h-1.257v-8.182h1.214v1.279h.107q.288-.624.873-1.002.586-.383 1.513-.383.831 0 1.454.341.624.335.97 1.022.346.682.346 1.726V696h-1.257v-5.114q0-.963-.501-1.502-.501-.543-1.374-.543-.602 0-1.076.261a1.87 1.87 0 0 0-.74.762q-.273.5-.272 1.214m10.607 5.092q-1.023 0-1.806-.516-.783-.522-1.225-1.47-.442-.954-.442-2.254 0-1.289.442-2.237t1.23-1.465q.789-.516 1.822-.516.8 0 1.262.266.47.261.714.597.25.33.389.543h.107v-4.027h1.257V696h-1.215v-1.257h-.149a8 8 0 0 1-.394.565 2.35 2.35 0 0 1-.73.601q-.474.261-1.262.261m.17-1.129q.756 0 1.279-.394.522-.4.793-1.103.272-.708.272-1.635 0-.916-.266-1.603-.267-.693-.789-1.076-.522-.389-1.289-.389-.798 0-1.331.41-.528.405-.794 1.103a4.4 4.4 0 0 0-.261 1.555q0 .874.266 1.587.272.709.799 1.13.533.415 1.321.415m10.446.959v-10.909h1.257v4.027h.106q.14-.213.384-.543.25-.336.714-.597.468-.267 1.268-.266 1.033 0 1.821.516.789.517 1.231 1.465t.442 2.237q0 1.3-.442 2.254-.442.948-1.225 1.47-.783.516-1.806.516-.789 0-1.263-.261a2.3 2.3 0 0 1-.729-.601 8 8 0 0 1-.395-.565h-.149V696zm1.236-4.091q0 .927.271 1.635.272.704.794 1.103.522.394 1.278.394.79 0 1.316-.415.533-.421.799-1.13a4.4 4.4 0 0 0 .272-1.587q0-.863-.267-1.555-.26-.698-.793-1.103-.528-.41-1.327-.41-.767 0-1.289.389-.521.383-.788 1.076-.267.687-.266 1.603m11.234 4.261q-1.108 0-1.945-.527-.831-.527-1.299-1.475-.464-.948-.464-2.216 0-1.28.464-2.232.468-.953 1.299-1.481.837-.528 1.945-.527 1.108 0 1.939.527.836.528 1.299 1.481.47.952.469 2.232 0 1.268-.469 2.216a3.53 3.53 0 0 1-1.299 1.475q-.832.528-1.939.527m0-1.129q.841 0 1.385-.431.543-.432.804-1.135t.261-1.523-.261-1.529a2.6 2.6 0 0 0-.804-1.145q-.544-.437-1.385-.437-.842 0-1.385.437a2.6 2.6 0 0 0-.805 1.145 4.4 4.4 0 0 0-.261 1.529q0 .82.261 1.523t.805 1.135q.543.43 1.385.431m6.883-9.95V696h-1.257v-10.909zm5.861 2.727v1.066h-4.24v-1.066zm-3.004-1.96h1.257v7.798q0 .533.154.799a.8.8 0 0 0 .405.352q.25.085.527.085.208 0 .341-.021l.213-.043.256 1.129a2.5 2.5 0 0 1-.357.096 2.6 2.6 0 0 1-.581.054q-.533 0-1.044-.23a2.1 2.1 0 0 1-.841-.697q-.33-.47-.33-1.183zm7.579 5.54q0 2.013-.527 3.707a11.4 11.4 0 0 1-1.497 3.111h-1.108q.384-.528.714-1.3.336-.767.586-1.683a15 15 0 0 0 .389-1.902 13.4 13.4 0 0 0-.101-4.506 15 15 0 0 0-.661-2.424q-.416-1.118-.927-1.821h1.108q.975 1.422 1.497 3.116.527 1.688.527 3.702M492.867 52.263V51.09h8.181v1.172h-3.43V62h-1.321v-9.737zm12.187 9.907q-1.108 0-1.944-.527-.83-.527-1.3-1.475-.463-.949-.463-2.216 0-1.279.463-2.232.47-.954 1.3-1.481.836-.527 1.944-.527t1.939.527q.836.528 1.3 1.48.468.954.468 2.233 0 1.268-.468 2.216a3.54 3.54 0 0 1-1.3 1.475q-.83.528-1.939.527m0-1.129q.842 0 1.385-.431.543-.432.804-1.135t.261-1.523-.261-1.53a2.6 2.6 0 0 0-.804-1.144q-.543-.437-1.385-.437t-1.385.437-.804 1.145a4.4 4.4 0 0 0-.261 1.529q0 .82.261 1.523t.804 1.135q.543.43 1.385.431m5.626 4.027v-11.25h1.215v1.3h.149q.138-.213.384-.543.25-.336.713-.597.469-.267 1.268-.266 1.033 0 1.822.516.788.517 1.23 1.465t.442 2.237q0 1.3-.442 2.254-.441.948-1.225 1.47-.783.516-1.806.516-.788 0-1.262-.26a2.35 2.35 0 0 1-.73-.602 8 8 0 0 1-.394-.565h-.107v4.325zm1.236-7.159q0 .927.272 1.635.271.705.793 1.103.523.394 1.279.394.788 0 1.316-.415.532-.42.799-1.13a4.4 4.4 0 0 0 .271-1.587q0-.863-.266-1.555a2.4 2.4 0 0 0-.794-1.103q-.527-.41-1.326-.41-.767 0-1.289.389-.522.383-.789 1.076-.266.687-.266 1.603M527.577 62h-3.367V51.09h3.516q1.587.001 2.716.656 1.13.65 1.732 1.87.602 1.215.602 2.908 0 1.705-.608 2.935a4.33 4.33 0 0 1-1.768 1.886q-1.161.655-2.823.655m-2.046-1.172h1.96q1.353 0 2.243-.522a3.2 3.2 0 0 0 1.326-1.486q.438-.964.437-2.296 0-1.32-.431-2.274a3.2 3.2 0 0 0-1.289-1.47q-.858-.517-2.136-.517h-2.11zm12.72 1.342q-1.182 0-2.04-.522a3.5 3.5 0 0 1-1.315-1.47q-.459-.948-.459-2.205t.459-2.216q.463-.964 1.289-1.502.83-.543 1.939-.543.639 0 1.262.213t1.135.692q.51.474.815 1.257.303.783.303 1.929v.532h-6.307V57.25h5.029a2.7 2.7 0 0 0-.277-1.236 2.1 2.1 0 0 0-.778-.858q-.501-.315-1.182-.314-.751 0-1.3.373a2.45 2.45 0 0 0-.836.959 2.8 2.8 0 0 0-.293 1.267v.725q0 .927.319 1.571.326.639.9.975.576.33 1.337.33.496 0 .895-.138.405-.144.698-.426.293-.288.453-.714l1.214.34a2.7 2.7 0 0 1-.644 1.087q-.453.464-1.119.725-.666.255-1.497.255m5.3 2.898v-11.25h1.215v1.3h.149q.138-.213.384-.543.25-.336.713-.597.469-.267 1.268-.266 1.033 0 1.822.516.788.517 1.23 1.465t.442 2.237q0 1.3-.442 2.254-.441.948-1.225 1.47-.783.516-1.806.516-.788 0-1.262-.26a2.35 2.35 0 0 1-.73-.602 8 8 0 0 1-.394-.565h-.106v4.325zm1.236-7.159q0 .927.272 1.635.272.705.794 1.103.522.394 1.278.394.788 0 1.316-.415.532-.42.799-1.13a4.4 4.4 0 0 0 .271-1.587q0-.863-.266-1.555a2.4 2.4 0 0 0-.794-1.103q-.527-.41-1.326-.41-.767 0-1.289.389-.522.383-.788 1.076-.267.687-.267 1.603m11.463-4.09v1.064h-4.24v-1.065zm-3.004-1.961h1.257v7.798q0 .533.155.8a.8.8 0 0 0 .404.35q.25.087.528.086.207 0 .341-.021l.213-.043.255 1.13a3 3 0 0 1-.356.095 2.6 2.6 0 0 1-.581.053 2.5 2.5 0 0 1-1.044-.229 2.1 2.1 0 0 1-.842-.697q-.33-.47-.33-1.183zm6.328 5.22V62h-1.257V51.09h1.257v4.007h.107q.287-.635.863-1.007.58-.378 1.544-.378.837 0 1.465.335.628.33.975 1.018.351.681.352 1.736V62h-1.258v-5.114q0-.975-.506-1.507-.5-.538-1.39-.538a2.3 2.3 0 0 0-1.108.26 1.9 1.9 0 0 0-.767.763q-.277.5-.277 1.214m8.522 5.007a.92.92 0 0 1-.677-.282.92.92 0 0 1-.282-.677q0-.393.282-.676a.92.92 0 0 1 .677-.282q.393 0 .676.282a.92.92 0 0 1 .282.676.9.9 0 0 1-.133.48 1 1 0 0 1-.346.351.9.9 0 0 1-.479.128m0-6.072a.92.92 0 0 1-.677-.282.92.92 0 0 1-.282-.677q0-.394.282-.677a.92.92 0 0 1 .677-.282q.393 0 .676.282a.92.92 0 0 1 .282.677.9.9 0 0 1-.133.48 1 1 0 0 1-.346.35.9.9 0 0 1-.479.129M575.508 62v-.959l3.601-3.942q.633-.691 1.044-1.203.41-.517.607-.97.202-.458.202-.959 0-.574-.277-.996a1.8 1.8 0 0 0-.746-.65 2.4 2.4 0 0 0-1.065-.229q-.629 0-1.097.261-.464.255-.719.72a2.25 2.25 0 0 0-.251 1.086h-1.257q0-.96.442-1.683.442-.725 1.204-1.13a3.6 3.6 0 0 1 1.721-.404q.958 0 1.699.405.741.404 1.161 1.092.421.687.421 1.528 0 .602-.218 1.178-.213.57-.746 1.273-.528.698-1.465 1.704l-2.45 2.62v.086h5.071V62zm12.491.15a3.75 3.75 0 0 1-1.689-.374q-.75-.373-1.204-1.022a2.8 2.8 0 0 1-.495-1.481h1.278q.075.74.672 1.225.601.48 1.438.48.67 0 1.193-.315.528-.315.826-.863.303-.554.303-1.252 0-.714-.314-1.273a2.3 2.3 0 0 0-.852-.89 2.4 2.4 0 0 0-1.241-.33 3.4 3.4 0 0 0-1.028.155 2.9 2.9 0 0 0-.869.4l-1.236-.15.661-5.37h5.668v1.173h-4.56l-.384 3.217h.064q.336-.266.842-.442a3.2 3.2 0 0 1 1.055-.176q1 0 1.784.48.789.474 1.236 1.3.453.825.453 1.885 0 1.044-.469 1.864a3.4 3.4 0 0 1-1.279 1.29q-.815.468-1.853.468m6.244-.065a.92.92 0 0 1-.676-.282.92.92 0 0 1-.283-.677.92.92 0 0 1 .283-.676.92.92 0 0 1 .676-.282q.394 0 .677.282a.92.92 0 0 1 .282.676.9.9 0 0 1-.133.48 1 1 0 0 1-.347.351.9.9 0 0 1-.479.128m6.564-11.143q.671.005 1.342.255.672.25 1.225.831.554.576.89 1.572t.335 2.498q0 1.454-.277 2.584-.271 1.123-.788 1.896a3.5 3.5 0 0 1-1.246 1.172q-.73.4-1.652.4-.915 0-1.635-.363a3.2 3.2 0 0 1-1.172-1.017 3.54 3.54 0 0 1-.58-1.519h1.299q.177.752.698 1.242.528.484 1.39.484 1.263 0 1.993-1.102.735-1.102.735-3.117h-.086a3.3 3.3 0 0 1-.708.773 3.1 3.1 0 0 1-.911.5 3.2 3.2 0 0 1-1.065.176 3.3 3.3 0 0 1-1.721-.463 3.5 3.5 0 0 1-1.246-1.284q-.464-.82-.464-1.875 0-1 .448-1.832a3.46 3.46 0 0 1 1.268-1.332q.82-.495 1.928-.48m0 1.172q-.672 0-1.209.335-.533.33-.847.895a2.5 2.5 0 0 0-.309 1.241q0 .682.298 1.241.304.554.826.885.527.325 1.198.325.507 0 .943-.198a2.5 2.5 0 0 0 .762-.548q.33-.353.516-.794.187-.447.187-.932a2.44 2.44 0 0 0-.309-1.199 2.45 2.45 0 0 0-.842-.905 2.2 2.2 0 0 0-1.214-.346M610.934 62v-8.182h1.215v1.279h.106a2.06 2.06 0 0 1 .826-1.018q.57-.367 1.369-.367.81 0 1.348.367a2.4 2.4 0 0 1 .846 1.018h.086q.314-.635.943-1.007.628-.378 1.507-.378 1.098 0 1.795.687.698.681.698 2.125V62h-1.257v-5.476q0-.906-.496-1.294a1.83 1.83 0 0 0-1.166-.39q-.863 0-1.337.523-.474.516-.474 1.31V62h-1.279v-5.604q0-.698-.452-1.124-.453-.43-1.167-.431-.49 0-.916.26a1.97 1.97 0 0 0-.682.725q-.255.46-.256 1.06V62zm13.037 0v-8.182h1.215v1.279h.106a2.06 2.06 0 0 1 .826-1.018q.57-.367 1.369-.367.81 0 1.348.367.543.362.847 1.018h.085q.314-.635.943-1.007.628-.378 1.507-.378 1.098 0 1.795.687.698.681.698 2.125V62h-1.257v-5.476q0-.906-.495-1.294a1.84 1.84 0 0 0-1.167-.39q-.863 0-1.337.523-.474.516-.474 1.31V62h-1.279v-5.604q0-.698-.452-1.124-.453-.43-1.167-.431-.49 0-.916.26a1.97 1.97 0 0 0-.682.725q-.255.46-.256 1.06V62zM469.492 698v-10.909h3.814q1.14 0 1.88.394.74.389 1.103 1.049.362.655.362 1.455 0 .702-.25 1.161a1.95 1.95 0 0 1-.65.724 3 3 0 0 1-.868.394v.107q.5.031 1.006.352.507.32.847.916.341.596.341 1.459 0 .82-.373 1.476t-1.177 1.038q-.804.384-2.093.384zm1.321-1.172h2.621q1.294 0 1.837-.501.549-.505.549-1.225 0-.554-.282-1.022a2.04 2.04 0 0 0-.805-.757q-.522-.288-1.235-.287h-2.685zm0-4.943h2.45q.597 0 1.076-.234.485-.235.767-.661.288-.426.288-1.001 0-.72-.501-1.22-.501-.506-1.587-.506h-2.493zm11.588 6.285q-1.108 0-1.944-.527-.83-.527-1.3-1.475-.463-.948-.463-2.216 0-1.28.463-2.232.47-.953 1.3-1.481.836-.528 1.944-.527 1.108 0 1.939.527.837.528 1.3 1.481.469.952.469 2.232 0 1.268-.469 2.216a3.53 3.53 0 0 1-1.3 1.475q-.83.528-1.939.527m0-1.129q.842 0 1.385-.431.543-.432.804-1.135t.261-1.523-.261-1.529a2.6 2.6 0 0 0-.804-1.145q-.543-.437-1.385-.437t-1.385.437-.804 1.145a4.4 4.4 0 0 0-.261 1.529q0 .82.261 1.523t.804 1.135q.543.43 1.385.431m9.185-7.223v1.066h-4.24v-1.066zm-3.005-1.96h1.258v7.798q0 .533.154.799a.8.8 0 0 0 .405.352q.25.085.527.085.208 0 .341-.021l.213-.043.256 1.129a2.5 2.5 0 0 1-.357.096 2.6 2.6 0 0 1-.581.054q-.533 0-1.044-.23a2.07 2.07 0 0 1-.841-.697q-.33-.47-.331-1.183zm8.454 1.96v1.066h-4.24v-1.066zm-3.004-1.96h1.257v7.798q0 .533.154.799a.8.8 0 0 0 .405.352q.25.085.527.085.209 0 .341-.021l.213-.043.256 1.129a2.5 2.5 0 0 1-.357.096 2.6 2.6 0 0 1-.58.054q-.533 0-1.044-.23a2.07 2.07 0 0 1-.842-.697q-.33-.47-.33-1.183zm8.131 10.312q-1.108 0-1.944-.527a3.6 3.6 0 0 1-1.3-1.475q-.463-.948-.463-2.216 0-1.28.463-2.232a3.57 3.57 0 0 1 1.3-1.481q.835-.528 1.944-.527 1.108 0 1.939.527.836.528 1.3 1.481.468.952.468 2.232 0 1.268-.468 2.216a3.53 3.53 0 0 1-1.3 1.475q-.83.528-1.939.527m0-1.129q.842 0 1.385-.431.543-.432.804-1.135t.261-1.523-.261-1.529a2.6 2.6 0 0 0-.804-1.145q-.543-.437-1.385-.437t-1.385.437-.804 1.145a4.4 4.4 0 0 0-.261 1.529q0 .82.261 1.523t.804 1.135q.543.43 1.385.431m5.626.959v-8.182h1.215v1.279h.106q.256-.655.826-1.018.57-.367 1.369-.367.81 0 1.348.367.543.363.846 1.018h.086q.314-.635.943-1.007.628-.378 1.507-.378 1.098 0 1.795.687.698.682.698 2.125V698h-1.257v-5.476q0-.906-.496-1.294a1.83 1.83 0 0 0-1.166-.389q-.863 0-1.337.522-.474.516-.474 1.31V698h-1.279v-5.604q0-.698-.452-1.124-.453-.43-1.167-.431-.49 0-.916.261a1.97 1.97 0 0 0-.682.724q-.255.459-.256 1.06V698zm20.793 0h-3.366v-10.909h3.515q1.587 0 2.717.655 1.13.65 1.731 1.87.602 1.214.602 2.908 0 1.705-.607 2.935a4.33 4.33 0 0 1-1.769 1.886q-1.161.655-2.823.655m-2.045-1.172h1.96q1.353 0 2.242-.522a3.2 3.2 0 0 0 1.327-1.486q.437-.964.437-2.296 0-1.322-.432-2.274a3.2 3.2 0 0 0-1.289-1.471q-.858-.516-2.136-.516h-2.109zm12.72 1.342q-1.183 0-2.04-.522a3.5 3.5 0 0 1-1.316-1.47q-.458-.948-.458-2.205t.458-2.216q.464-.964 1.289-1.502.83-.543 1.939-.543.64 0 1.262.213.624.213 1.135.692.512.474.815 1.257t.304 1.929v.532h-6.307v-1.086h5.028q0-.693-.277-1.236a2.1 2.1 0 0 0-.778-.858q-.5-.314-1.182-.314-.751 0-1.3.373a2.45 2.45 0 0 0-.836.959 2.8 2.8 0 0 0-.293 1.267v.725q0 .927.32 1.571.324.639.9.975.575.33 1.337.33.495 0 .895-.138.405-.144.697-.426.294-.288.453-.714l1.215.341a2.7 2.7 0 0 1-.645 1.086 3.15 3.15 0 0 1-1.118.725 4.2 4.2 0 0 1-1.497.255m5.3 2.898v-11.25h1.214v1.3h.149q.14-.213.384-.543.25-.336.714-.597.468-.267 1.268-.266 1.033 0 1.821.516.789.517 1.231 1.465t.442 2.237q0 1.3-.442 2.254-.442.948-1.225 1.47-.783.516-1.806.516-.789 0-1.263-.261a2.3 2.3 0 0 1-.729-.601 8 8 0 0 1-.395-.565h-.106v4.325zm1.236-7.159q0 .927.271 1.635.272.704.794 1.103.522.394 1.278.394.79 0 1.316-.415.533-.421.799-1.13a4.4 4.4 0 0 0 .272-1.587q0-.863-.267-1.555-.26-.698-.793-1.103-.528-.41-1.327-.41-.767 0-1.289.389-.521.383-.788 1.076-.266.687-.266 1.603m11.463-4.091v1.066h-4.24v-1.066zm-3.005-1.96h1.258v7.798q0 .533.154.799a.8.8 0 0 0 .405.352q.25.085.527.085.208 0 .341-.021l.213-.043.256 1.129a2.5 2.5 0 0 1-.357.096 2.6 2.6 0 0 1-.581.054q-.532 0-1.044-.23a2.07 2.07 0 0 1-.841-.697q-.33-.47-.331-1.183zm6.329 5.22V698h-1.258v-10.909h1.258v4.006h.106q.288-.635.863-1.007.58-.378 1.545-.378.836 0 1.465.335.629.33.974 1.018.352.681.352 1.736V698h-1.257v-5.114q0-.974-.506-1.507-.5-.538-1.39-.538-.619 0-1.108.261a1.9 1.9 0 0 0-.767.762q-.277.5-.277 1.214m8.521 5.007a.93.93 0 0 1-.677-.282.92.92 0 0 1-.282-.677q0-.393.282-.676a.93.93 0 0 1 .677-.282q.394 0 .676.282a.92.92 0 0 1 .283.676.9.9 0 0 1-.133.48 1 1 0 0 1-.347.351.9.9 0 0 1-.479.128m0-6.072a.92.92 0 0 1-.677-.283.92.92 0 0 1-.282-.676q0-.394.282-.677a.93.93 0 0 1 .677-.282q.394 0 .676.282a.92.92 0 0 1 .283.677.9.9 0 0 1-.133.479 1 1 0 0 1-.347.352.9.9 0 0 1-.479.128m11.098 6.136q-1.055 0-1.88-.362-.82-.362-1.305-1.007a2.7 2.7 0 0 1-.522-1.507h1.342q.043.527.362.911.32.378.837.586a3 3 0 0 0 1.145.207 3 3 0 0 0 1.246-.245q.544-.244.853-.682.309-.436.309-1.012a1.9 1.9 0 0 0-.299-1.06q-.298-.463-.873-.724-.576-.261-1.407-.261h-.873v-1.172h.873q.651 0 1.14-.234.496-.235.773-.661.282-.426.282-1.001 0-.555-.245-.964a1.67 1.67 0 0 0-.693-.64q-.441-.229-1.044-.229-.564 0-1.065.208-.495.202-.81.591a1.54 1.54 0 0 0-.34.927h-1.279a2.6 2.6 0 0 1 .517-1.502 3.25 3.25 0 0 1 1.268-1.012 4.1 4.1 0 0 1 1.731-.362q1.011 0 1.736.41.724.405 1.114 1.071.388.665.388 1.438 0 .921-.484 1.571-.48.65-1.305.9v.086q1.034.17 1.614.879.58.702.58 1.741 0 .89-.484 1.598-.48.703-1.311 1.108-.83.405-1.891.405m9.551 0q-1.055 0-1.88-.362-.82-.362-1.305-1.007a2.7 2.7 0 0 1-.522-1.507h1.342q.042.527.362.911a2.1 2.1 0 0 0 .836.586 3.1 3.1 0 0 0 1.146.207q.702 0 1.246-.245.543-.244.852-.682.309-.436.309-1.012a1.9 1.9 0 0 0-.298-1.06q-.298-.463-.874-.724-.575-.261-1.406-.261h-.873v-1.172h.873a2.6 2.6 0 0 0 1.14-.234q.495-.235.772-.661.283-.426.283-1.001 0-.555-.245-.964a1.7 1.7 0 0 0-.693-.64q-.441-.229-1.044-.229-.564 0-1.065.208-.495.202-.81.591a1.55 1.55 0 0 0-.341.927h-1.278a2.6 2.6 0 0 1 .517-1.502 3.25 3.25 0 0 1 1.267-1.012 4.1 4.1 0 0 1 1.732-.362q1.011 0 1.736.41.725.405 1.113 1.071.39.665.389 1.438 0 .921-.485 1.571a2.45 2.45 0 0 1-1.305.9v.086q1.033.17 1.614.879.58.702.581 1.741 0 .89-.485 1.598a3.3 3.3 0 0 1-1.31 1.108q-.83.405-1.891.405m6.465-.064a.92.92 0 0 1-.676-.282.93.93 0 0 1-.283-.677q0-.393.283-.676a.92.92 0 0 1 .676-.282q.395 0 .677.282a.92.92 0 0 1 .282.676.994.994 0 0 1-.479.831.9.9 0 0 1-.48.128m6.564-11.143q.671.005 1.342.255t1.226.831q.553.576.889 1.572t.336 2.498q0 1.454-.277 2.583-.271 1.125-.789 1.897a3.5 3.5 0 0 1-1.246 1.172 3.4 3.4 0 0 1-1.651.399q-.916 0-1.636-.362a3.2 3.2 0 0 1-1.172-1.017 3.55 3.55 0 0 1-.58-1.519h1.3q.175.751.697 1.242.528.484 1.391.484 1.262 0 1.992-1.102.735-1.103.735-3.116h-.085a3.4 3.4 0 0 1-.709.772 3.12 3.12 0 0 1-1.976.676 3.3 3.3 0 0 1-1.721-.463 3.5 3.5 0 0 1-1.246-1.284q-.463-.82-.463-1.875 0-1 .447-1.832a3.45 3.45 0 0 1 1.268-1.332q.82-.495 1.928-.479m0 1.172q-.67 0-1.209.335-.533.33-.847.895a2.5 2.5 0 0 0-.309 1.241q0 .682.298 1.241.304.554.826.885.527.324 1.198.325.507 0 .943-.198.437-.202.762-.548.33-.352.517-.794.186-.447.186-.932 0-.64-.309-1.199a2.46 2.46 0 0 0-.841-.905 2.2 2.2 0 0 0-1.215-.346M612.905 698v-8.182h1.215v1.279h.106q.256-.655.826-1.018.57-.367 1.369-.367.81 0 1.348.367.543.363.847 1.018h.085q.314-.635.943-1.007.628-.378 1.507-.378 1.098 0 1.795.687.698.682.698 2.125V698h-1.257v-5.476q0-.906-.495-1.294a1.84 1.84 0 0 0-1.167-.389q-.863 0-1.337.522-.474.516-.474 1.31V698h-1.278v-5.604q0-.698-.453-1.124-.453-.43-1.167-.431-.49 0-.916.261-.42.26-.682.724-.255.459-.255 1.06V698zm13.038 0v-8.182h1.214v1.279h.107q.255-.655.825-1.018.57-.367 1.369-.367.81 0 1.348.367.543.363.847 1.018h.085q.315-.635.943-1.007.628-.378 1.507-.378 1.098 0 1.795.687.698.682.698 2.125V698h-1.257v-5.476q0-.906-.495-1.294a1.84 1.84 0 0 0-1.167-.389q-.863 0-1.337.522-.474.516-.474 1.31V698h-1.278v-5.604q0-.698-.453-1.124-.453-.43-1.167-.431-.49 0-.916.261-.42.26-.682.724-.255.459-.255 1.06V698zM271.518 62l-2.983-10.91h1.342l2.28 8.886h.107l2.322-8.885h1.492l2.322 8.885h.107l2.279-8.885h1.343L279.146 62h-1.364l-2.408-8.693h-.085L272.882 62zm12.086 0v-8.182h1.257V62zm.639-9.545a.9.9 0 0 1-.633-.25.8.8 0 0 1-.262-.603q0-.351.262-.602a.9.9 0 0 1 .633-.25q.368 0 .629.25a.8.8 0 0 1 .266.602.8.8 0 0 1-.266.602.88.88 0 0 1-.629.25m6.01 9.715q-1.022 0-1.806-.516-.783-.522-1.225-1.47-.442-.954-.442-2.254 0-1.289.442-2.237t1.231-1.465 1.822-.516q.798 0 1.262.266.468.261.714.597.25.33.389.543h.106V51.09h1.257V62h-1.214v-1.257h-.149q-.139.224-.395.564-.255.336-.729.602-.474.262-1.263.261m.171-1.129q.756 0 1.278-.394.522-.4.794-1.103.271-.708.271-1.635 0-.916-.266-1.603-.266-.693-.788-1.076-.522-.39-1.289-.39-.8 0-1.332.411-.527.405-.794 1.103-.261.692-.261 1.555a4.5 4.5 0 0 0 .267 1.587q.271.71.799 1.13.532.415 1.321.415m9.614-7.223v1.066h-4.24v-1.066zm-3.004-1.96h1.257v7.798q0 .533.155.8a.8.8 0 0 0 .405.35q.25.087.527.086.207 0 .341-.021l.213-.043.256 1.13a3 3 0 0 1-.357.095 2.6 2.6 0 0 1-.581.053 2.5 2.5 0 0 1-1.044-.229 2.1 2.1 0 0 1-.842-.697q-.33-.47-.33-1.183zm6.328 5.22V62h-1.257V51.09h1.257v4.007h.107q.287-.635.863-1.007.58-.378 1.544-.378.837 0 1.465.335.629.33.975 1.018.351.681.352 1.736V62h-1.257v-5.114q0-.975-.506-1.507-.501-.538-1.391-.538a2.3 2.3 0 0 0-1.108.26 1.9 1.9 0 0 0-.767.763q-.277.5-.277 1.214m8.522 5.007a.92.92 0 0 1-.677-.282.92.92 0 0 1-.282-.677q0-.393.282-.676a.92.92 0 0 1 .677-.282q.394 0 .676.282a.92.92 0 0 1 .282.676.9.9 0 0 1-.133.48 1 1 0 0 1-.346.351.9.9 0 0 1-.479.128m0-6.072a.92.92 0 0 1-.677-.282.92.92 0 0 1-.282-.677q0-.394.282-.677a.92.92 0 0 1 .677-.282q.394 0 .676.282a.92.92 0 0 1 .282.677.9.9 0 0 1-.133.48 1 1 0 0 1-.346.35.9.9 0 0 1-.479.129m10.906 6.136q-1.097 0-1.939-.389-.836-.394-1.305-1.081a2.7 2.7 0 0 1-.463-1.577 2.9 2.9 0 0 1 .271-1.278q.277-.591.757-.986a2.3 2.3 0 0 1 1.081-.506v-.063a2.1 2.1 0 0 1-1.246-.88 2.66 2.66 0 0 1-.458-1.55 2.63 2.63 0 0 1 .42-1.486 2.96 2.96 0 0 1 1.172-1.033q.752-.378 1.71-.378.948 0 1.694.378t1.172 1.033q.43.655.437 1.486a2.7 2.7 0 0 1-.474 1.55q-.464.677-1.231.88v.063q.591.107 1.065.506.474.395.757.986.282.586.287 1.278a2.75 2.75 0 0 1-.479 1.577q-.468.688-1.305 1.081-.831.39-1.923.39m0-1.172q.741 0 1.278-.24a1.9 1.9 0 0 0 .831-.676q.294-.437.299-1.023a1.96 1.96 0 0 0-.32-1.092 2.16 2.16 0 0 0-.857-.745 2.7 2.7 0 0 0-1.231-.272q-.698 0-1.246.272-.544.271-.858.745-.309.474-.304 1.092-.005.587.283 1.023.293.437.836.677t1.289.24m0-5.177q.586 0 1.039-.235.458-.234.719-.655.261-.42.266-.985-.004-.555-.261-.964a1.7 1.7 0 0 0-.708-.64 2.3 2.3 0 0 0-1.055-.229 2.4 2.4 0 0 0-1.071.23q-.458.223-.708.639a1.78 1.78 0 0 0-.245.964q-.006.564.25.985.261.421.719.655t1.055.235m5.749 6.2v-.959l3.601-3.942q.633-.691 1.044-1.203.41-.517.607-.97.202-.458.202-.959 0-.574-.277-.996a1.8 1.8 0 0 0-.745-.65 2.4 2.4 0 0 0-1.066-.229 2.2 2.2 0 0 0-1.097.261q-.464.255-.719.72-.25.462-.25 1.086h-1.257q0-.96.442-1.683a3.07 3.07 0 0 1 1.203-1.13 3.6 3.6 0 0 1 1.721-.404q.959 0 1.699.405.741.404 1.161 1.092.421.687.421 1.528 0 .602-.218 1.178-.213.57-.746 1.273a23 23 0 0 1-1.465 1.704l-2.45 2.62v.086h5.071V62zm13.322 0v-8.182h1.215v1.279h.106q.255-.655.826-1.018.57-.367 1.369-.367.81 0 1.347.367.544.362.847 1.018h.085q.315-.635.943-1.007.629-.378 1.508-.378 1.097 0 1.795.687.698.681.698 2.125V62h-1.257v-5.476q0-.906-.496-1.294a1.83 1.83 0 0 0-1.166-.39q-.864 0-1.337.523-.474.516-.474 1.31V62h-1.279v-5.604q0-.698-.453-1.124-.452-.43-1.166-.431-.49 0-.916.26a1.97 1.97 0 0 0-.682.725 2.13 2.13 0 0 0-.256 1.06V62zm13.037 0v-8.182h1.215v1.279h.106a2.06 2.06 0 0 1 .826-1.018q.57-.367 1.369-.367.81 0 1.347.367.544.362.847 1.018h.086q.314-.635.942-1.007.629-.378 1.508-.378 1.097 0 1.795.687.698.681.698 2.125V62h-1.257v-5.476q0-.906-.496-1.294a1.83 1.83 0 0 0-1.166-.39q-.864 0-1.337.523-.474.516-.474 1.31V62h-1.279v-5.604q0-.698-.453-1.124-.452-.43-1.166-.431-.49 0-.916.26a1.97 1.97 0 0 0-.682.725 2.13 2.13 0 0 0-.256 1.06V62zM744.455 71l-2.983-10.91h1.343l2.28 8.886h.106l2.323-8.885h1.491l2.322 8.885h.107l2.28-8.885h1.342L752.083 71h-1.363l-2.408-8.693h-.085L745.819 71zm12.087 0v-8.182h1.257V71zm.639-9.545a.9.9 0 0 1-.634-.25.8.8 0 0 1-.261-.603q0-.351.261-.602a.9.9 0 0 1 .634-.25q.367 0 .628.25a.8.8 0 0 1 .267.602.8.8 0 0 1-.267.602.87.87 0 0 1-.628.25m6.01 9.716q-1.023 0-1.806-.517-.783-.522-1.225-1.47-.442-.954-.442-2.254 0-1.289.442-2.237.443-.948 1.23-1.465.789-.516 1.822-.516.8 0 1.262.266.47.261.714.597.25.33.389.543h.107V60.09h1.257V71h-1.215v-1.257h-.149q-.139.223-.394.565a2.35 2.35 0 0 1-.73.601q-.474.261-1.262.261m.17-1.13q.757 0 1.279-.394.522-.4.793-1.103.272-.708.272-1.635 0-.916-.266-1.603-.267-.692-.789-1.076-.522-.39-1.289-.39-.798 0-1.331.411-.528.404-.794 1.103-.261.692-.261 1.555 0 .874.266 1.587a2.6 2.6 0 0 0 .799 1.13q.533.415 1.321.415m9.615-7.223v1.066h-4.24v-1.066zm-3.004-1.96h1.257v7.798q0 .533.154.8a.8.8 0 0 0 .405.35q.25.087.527.086.209 0 .341-.021l.213-.043.256 1.13a3 3 0 0 1-.357.095 2.6 2.6 0 0 1-.58.053q-.534 0-1.044-.228a2.1 2.1 0 0 1-.842-.698q-.33-.47-.33-1.183zm6.328 5.22V71h-1.257V60.09h1.257v4.007h.106q.288-.635.863-1.007.58-.378 1.545-.378.836 0 1.465.335.629.33.975 1.018.351.681.351 1.736V71h-1.257v-5.114q0-.975-.506-1.507-.5-.538-1.39-.538-.619 0-1.108.26a1.9 1.9 0 0 0-.767.763q-.277.5-.277 1.214m8.521 5.007a.92.92 0 0 1-.676-.282.92.92 0 0 1-.283-.677.92.92 0 0 1 .283-.676.92.92 0 0 1 .676-.282q.394 0 .677.282a.92.92 0 0 1 .282.676.997.997 0 0 1-.479.831.9.9 0 0 1-.48.128m0-6.072a.92.92 0 0 1-.676-.282.92.92 0 0 1-.283-.677.92.92 0 0 1 .283-.677.92.92 0 0 1 .676-.282q.394 0 .677.282a.92.92 0 0 1 .282.677.996.996 0 0 1-.479.83.9.9 0 0 1-.48.129m11.034 6.136a4.1 4.1 0 0 1-1.342-.255 3.2 3.2 0 0 1-1.225-.826q-.554-.585-.89-1.582-.335-1.002-.335-2.514 0-1.449.271-2.568.272-1.125.789-1.89.517-.773 1.246-1.173.735-.4 1.657-.4.916 0 1.63.368.719.363 1.172 1.012.453.651.586 1.497h-1.3a2.4 2.4 0 0 0-.703-1.22q-.522-.484-1.385-.484-1.267 0-1.998 1.102-.725 1.103-.729 3.095h.085a3.2 3.2 0 0 1 1.624-1.273 3.2 3.2 0 0 1 1.06-.176q.938 0 1.716.469a3.46 3.46 0 0 1 1.246 1.284q.47.814.469 1.87 0 1.011-.453 1.853a3.45 3.45 0 0 1-1.273 1.332q-.814.489-1.918.48m0-1.172a2.2 2.2 0 0 0 1.204-.335q.538-.336.847-.9.315-.565.314-1.258 0-.675-.303-1.23a2.3 2.3 0 0 0-.826-.89 2.2 2.2 0 0 0-1.193-.33q-.506 0-.943.203a2.4 2.4 0 0 0-.767.543 2.6 2.6 0 0 0-.511.793 2.4 2.4 0 0 0-.187.933q0 .65.304 1.214.309.565.842.911.538.346 1.219.346m9.212-10.035q.671.005 1.342.255t1.225.831q.554.576.89 1.572t.335 2.498q0 1.454-.277 2.584-.272 1.123-.788 1.896a3.5 3.5 0 0 1-1.247 1.172q-.729.4-1.651.4-.916 0-1.635-.363a3.2 3.2 0 0 1-1.172-1.018 3.55 3.55 0 0 1-.581-1.518h1.3q.176.752.698 1.242.527.484 1.39.484 1.263 0 1.992-1.102.735-1.103.735-3.117h-.085a3.4 3.4 0 0 1-.708.773 3.13 3.13 0 0 1-1.976.676 3.3 3.3 0 0 1-1.721-.463 3.5 3.5 0 0 1-1.246-1.284q-.464-.82-.464-1.875 0-1 .448-1.832a3.45 3.45 0 0 1 1.267-1.332q.82-.495 1.929-.48m0 1.172a2.24 2.24 0 0 0-1.21.335q-.533.33-.846.895a2.5 2.5 0 0 0-.309 1.241q0 .683.298 1.241.303.554.826.885.527.325 1.198.325.506 0 .943-.198a2.5 2.5 0 0 0 .762-.548q.33-.353.516-.794.187-.447.187-.932a2.44 2.44 0 0 0-.309-1.199 2.46 2.46 0 0 0-.842-.905 2.2 2.2 0 0 0-1.214-.346m6.444 9.971a.92.92 0 0 1-.677-.282.92.92 0 0 1-.282-.677q0-.393.282-.676a.92.92 0 0 1 .677-.282q.394 0 .676.282a.92.92 0 0 1 .282.676.9.9 0 0 1-.133.48 1 1 0 0 1-.346.351.9.9 0 0 1-.479.128m6.434.064a4.1 4.1 0 0 1-1.342-.255 3.2 3.2 0 0 1-1.225-.826q-.555-.585-.89-1.582-.335-1.002-.335-2.514 0-1.449.271-2.568.272-1.125.789-1.89.517-.773 1.246-1.173.735-.4 1.657-.4.916 0 1.63.368.719.363 1.172 1.012.452.651.586 1.497h-1.3a2.4 2.4 0 0 0-.703-1.22q-.522-.484-1.385-.484-1.267 0-1.998 1.102-.724 1.103-.73 3.095h.086a3.2 3.2 0 0 1 1.624-1.273 3.2 3.2 0 0 1 1.06-.176q.938 0 1.716.469.777.463 1.246 1.284.469.814.469 1.87 0 1.011-.453 1.853a3.45 3.45 0 0 1-1.273 1.332q-.815.489-1.918.48m0-1.172a2.2 2.2 0 0 0 1.204-.335q.538-.336.847-.9.314-.565.314-1.258 0-.675-.303-1.23a2.3 2.3 0 0 0-.826-.89 2.2 2.2 0 0 0-1.193-.33q-.506 0-.943.203a2.4 2.4 0 0 0-.767.543q-.325.346-.511.793a2.52 2.52 0 0 0 .958 3.058q.539.346 1.22.346M827.924 71v-8.182h1.214v1.279h.107q.255-.655.825-1.018.57-.367 1.369-.367.81 0 1.348.367.543.362.847 1.018h.085q.314-.635.943-1.007.628-.378 1.507-.378 1.098 0 1.795.687.698.682.698 2.125V71h-1.257v-5.476q0-.905-.495-1.294a1.84 1.84 0 0 0-1.167-.39q-.863 0-1.337.523-.474.516-.474 1.31V71h-1.278v-5.604q0-.698-.453-1.124-.453-.43-1.167-.431-.49 0-.916.26-.42.262-.682.725-.255.46-.255 1.06V71zm13.037 0v-8.182h1.214v1.279h.107q.255-.655.825-1.018.57-.367 1.369-.367.81 0 1.348.367.543.362.847 1.018h.085q.315-.635.943-1.007.628-.378 1.507-.378 1.098 0 1.795.687.698.682.698 2.125V71h-1.257v-5.476q0-.905-.495-1.294a1.83 1.83 0 0 0-1.167-.39q-.863 0-1.337.523-.474.516-.474 1.31V71h-1.278v-5.604q0-.698-.453-1.124-.453-.43-1.167-.431-.49 0-.916.26-.42.262-.682.725-.255.46-.255 1.06V71zM49.573 380v-10.909h1.321v4.858h5.817v-4.858h1.32V380h-1.32v-4.879h-5.817V380zm14.363.17q-1.182 0-2.04-.522a3.5 3.5 0 0 1-1.315-1.47q-.459-.948-.459-2.205t.459-2.216q.463-.964 1.289-1.502.83-.543 1.939-.543.64 0 1.262.213.624.213 1.135.692.51.474.815 1.257.303.783.303 1.929v.532h-6.307v-1.086h5.029q0-.693-.277-1.236a2.1 2.1 0 0 0-.778-.858q-.501-.314-1.182-.314-.751 0-1.3.373a2.45 2.45 0 0 0-.836.959 2.8 2.8 0 0 0-.293 1.267v.725q0 .927.32 1.571.324.639.9.975.575.33 1.336.33.495 0 .895-.138a1.9 1.9 0 0 0 .698-.426 1.94 1.94 0 0 0 .453-.714l1.214.341a2.7 2.7 0 0 1-.644 1.086 3.1 3.1 0 0 1-1.119.725q-.666.255-1.497.255m5.3-.17v-8.182h1.258V380zm.64-9.545a.9.9 0 0 1-.634-.251.8.8 0 0 1-.261-.602q0-.351.26-.602a.9.9 0 0 1 .635-.25q.367 0 .628.25a.8.8 0 0 1 .267.602.8.8 0 0 1-.267.602.88.88 0 0 1-.628.251m6.223 12.784q-.912 0-1.566-.235a3.3 3.3 0 0 1-1.092-.607 3.3 3.3 0 0 1-.687-.799l1-.703q.171.223.432.511.261.293.714.506.458.219 1.199.219.99 0 1.635-.48.645-.479.645-1.502v-1.662h-.107a7 7 0 0 1-.394.554q-.25.325-.725.581-.468.25-1.267.25a3.4 3.4 0 0 1-1.78-.469q-.783-.468-1.24-1.363-.453-.895-.453-2.174 0-1.257.442-2.189.442-.937 1.23-1.449.789-.516 1.822-.516.798 0 1.268.266.474.261.724.597.256.33.394.543h.128v-1.3h1.215v8.416q0 1.055-.48 1.716a2.73 2.73 0 0 1-1.278.974 4.8 4.8 0 0 1-1.78.315m-.043-4.496q.756 0 1.278-.346t.794-.996.272-1.556q0-.884-.267-1.561-.266-.676-.788-1.06-.522-.383-1.289-.383-.8 0-1.332.405-.527.405-.793 1.086a4.2 4.2 0 0 0-.261 1.513q0 .852.266 1.508.271.65.799 1.022.533.368 1.321.368m7.138-3.665V380h-1.257v-10.909h1.257v4.006h.106q.288-.635.863-1.007.58-.378 1.545-.378.837 0 1.465.335.629.33.975 1.018.351.681.351 1.736V380h-1.257v-5.114q0-.974-.506-1.507-.5-.538-1.39-.538a2.3 2.3 0 0 0-1.108.261 1.9 1.9 0 0 0-.767.762q-.277.5-.277 1.214m11.163-3.26v1.066h-4.24v-1.066zm-3.004-1.96h1.257v7.798q0 .533.155.799a.8.8 0 0 0 .404.352q.25.085.528.085.207 0 .34-.021l.214-.043.255 1.129a3 3 0 0 1-.356.096 2.6 2.6 0 0 1-.581.054q-.532 0-1.044-.23a2.07 2.07 0 0 1-.842-.697q-.33-.47-.33-1.183zm5.811 10.227a.92.92 0 0 1-.676-.282.92.92 0 0 1-.282-.677q0-.394.282-.676a.92.92 0 0 1 .676-.282q.395 0 .677.282a.92.92 0 0 1 .282.676.992.992 0 0 1-.48.831.9.9 0 0 1-.479.128m0-6.072a.92.92 0 0 1-.676-.283.92.92 0 0 1-.282-.676q0-.394.282-.677a.92.92 0 0 1 .676-.282q.395 0 .677.282a.93.93 0 0 1 .282.677.9.9 0 0 1-.133.479 1 1 0 0 1-.346.352.9.9 0 0 1-.48.128m7.413 5.987v-.959l3.6-3.942a24 24 0 0 0 1.044-1.203q.41-.517.608-.97.202-.458.202-.959a1.77 1.77 0 0 0-.277-.996 1.8 1.8 0 0 0-.746-.65 2.4 2.4 0 0 0-1.065-.229q-.629 0-1.097.261-.464.256-.719.719a2.25 2.25 0 0 0-.251 1.087h-1.257q0-.959.442-1.683t1.204-1.129a3.6 3.6 0 0 1 1.721-.405q.958 0 1.699.405.74.404 1.161 1.092.421.687.421 1.528 0 .602-.219 1.178-.213.57-.745 1.273-.528.697-1.465 1.704l-2.45 2.621v.085h5.071V380zm12.64.149q-1.204 0-2.051-.655-.847-.66-1.294-1.912-.448-1.257-.448-3.037 0-1.768.448-3.02.452-1.257 1.299-1.917.853-.666 2.046-.666t2.04.666q.852.66 1.3 1.917.452 1.252.452 3.02 0 1.78-.447 3.037-.448 1.251-1.294 1.912-.848.655-2.051.655m0-1.172q1.193 0 1.853-1.15.661-1.15.661-3.282 0-1.416-.304-2.413-.297-.996-.863-1.518a1.9 1.9 0 0 0-1.347-.522q-1.183 0-1.849 1.167-.665 1.162-.665 3.286 0 1.418.298 2.408.299.991.857 1.508.566.516 1.359.516m9.503 1.172q-1.054 0-1.881-.362-.82-.363-1.305-1.007a2.7 2.7 0 0 1-.522-1.507h1.343q.042.527.362.911a2.1 2.1 0 0 0 .836.586q.517.207 1.145.207.704 0 1.247-.245.543-.244.852-.682.309-.436.309-1.012a1.9 1.9 0 0 0-.298-1.06q-.298-.463-.874-.724-.575-.261-1.406-.261h-.874v-1.172h.874a2.6 2.6 0 0 0 1.14-.234q.495-.235.772-.661.282-.426.282-1.001 0-.555-.245-.964a1.67 1.67 0 0 0-.692-.64 2.25 2.25 0 0 0-1.044-.229q-.565 0-1.065.208a2 2 0 0 0-.81.591 1.54 1.54 0 0 0-.341.927h-1.278a2.6 2.6 0 0 1 .516-1.502 3.25 3.25 0 0 1 1.268-1.012 4.1 4.1 0 0 1 1.731-.362q1.012 0 1.737.41.725.405 1.113 1.071.389.665.389 1.438 0 .921-.485 1.571a2.45 2.45 0 0 1-1.305.9v.086q1.034.17 1.614.879.58.702.581 1.741 0 .89-.485 1.598-.48.703-1.31 1.108-.832.405-1.891.405m10.104-.149v-8.182h1.215v1.279h.106q.256-.655.826-1.018.57-.367 1.369-.367.81 0 1.348.367.543.363.847 1.018h.085q.314-.635.943-1.007.628-.378 1.507-.378 1.098 0 1.795.687.698.682.698 2.125V380h-1.257v-5.476q0-.906-.495-1.294a1.84 1.84 0 0 0-1.167-.389q-.863 0-1.337.522-.474.516-.474 1.31V380h-1.278v-5.604q0-.698-.453-1.124-.453-.43-1.167-.431-.49 0-.916.261a1.97 1.97 0 0 0-.682.724q-.256.459-.256 1.06V380zm13.038 0v-8.182h1.214v1.279h.107q.255-.655.825-1.018.57-.367 1.369-.367.81 0 1.348.367.543.363.847 1.018h.085q.314-.635.943-1.007.628-.378 1.507-.378 1.098 0 1.795.687.698.682.698 2.125V380h-1.257v-5.476q0-.906-.495-1.294a1.84 1.84 0 0 0-1.167-.389q-.863 0-1.337.522-.474.516-.474 1.31V380h-1.278v-5.604q0-.698-.453-1.124-.453-.43-1.167-.431-.49 0-.916.261-.42.26-.682.724-.255.459-.255 1.06V380zM938.73 380v-10.909h1.321v4.858h5.817v-4.858h1.321V380h-1.321v-4.879h-5.817V380zm14.364.17q-1.184 0-2.04-.522a3.5 3.5 0 0 1-1.316-1.47q-.458-.948-.458-2.205t.458-2.216q.463-.964 1.289-1.502.83-.543 1.939-.543.64 0 1.262.213.624.213 1.135.692.511.474.815 1.257t.303 1.929v.532h-6.306v-1.086h5.028q0-.693-.277-1.236a2.1 2.1 0 0 0-.778-.858q-.5-.314-1.182-.314-.751 0-1.3.373a2.45 2.45 0 0 0-.836.959 2.8 2.8 0 0 0-.293 1.267v.725q0 .927.319 1.571.325.639.901.975.575.33 1.337.33.495 0 .895-.138.404-.144.697-.426.294-.288.453-.714l1.215.341a2.7 2.7 0 0 1-.645 1.086 3.14 3.14 0 0 1-1.119.725 4.2 4.2 0 0 1-1.496.255m5.3-.17v-8.182h1.257V380zm.639-9.545a.9.9 0 0 1-.634-.251.8.8 0 0 1-.261-.602q0-.351.261-.602a.9.9 0 0 1 .634-.25q.367 0 .628.25a.8.8 0 0 1 .267.602.8.8 0 0 1-.267.602.87.87 0 0 1-.628.251m6.223 12.784q-.91 0-1.566-.235a3.3 3.3 0 0 1-1.092-.607 3.3 3.3 0 0 1-.687-.799l1.001-.703q.171.223.432.511.261.293.713.506.458.219 1.199.219.99 0 1.635-.48.645-.479.645-1.502v-1.662h-.107a7 7 0 0 1-.394.554q-.25.325-.724.581-.47.25-1.268.25a3.4 3.4 0 0 1-1.779-.469q-.783-.468-1.241-1.363-.453-.895-.453-2.174 0-1.257.442-2.189.442-.937 1.23-1.449.789-.516 1.822-.516.799 0 1.268.266.474.261.724.597.256.33.394.543h.128v-1.3h1.215v8.416q0 1.055-.48 1.716a2.73 2.73 0 0 1-1.278.974 4.8 4.8 0 0 1-1.779.315m-.043-4.496q.757 0 1.279-.346t.793-.996q.272-.65.272-1.556 0-.884-.266-1.561-.267-.676-.789-1.06-.522-.383-1.289-.383-.798 0-1.331.405a2.46 2.46 0 0 0-.794 1.086 4.2 4.2 0 0 0-.261 1.513q0 .852.266 1.508.272.65.799 1.022.533.368 1.321.368m7.138-3.665V380h-1.257v-10.909h1.257v4.006h.107q.287-.635.862-1.007.581-.378 1.545-.378.837 0 1.465.335.629.33.975 1.018.351.681.351 1.736V380h-1.257v-5.114q0-.974-.506-1.507-.5-.538-1.39-.538a2.3 2.3 0 0 0-1.108.261 1.9 1.9 0 0 0-.767.762q-.277.5-.277 1.214m11.163-3.26v1.066h-4.24v-1.066zm-3.004-1.96h1.257v7.798q0 .533.155.799a.8.8 0 0 0 .405.352q.25.085.527.085.207 0 .341-.021l.213-.043.256 1.129a3 3 0 0 1-.357.096 2.6 2.6 0 0 1-.581.054q-.533 0-1.044-.23a2.1 2.1 0 0 1-.842-.697q-.33-.47-.33-1.183zm5.812 10.227a.92.92 0 0 1-.677-.282.92.92 0 0 1-.282-.677q0-.394.282-.676a.92.92 0 0 1 .677-.282q.394 0 .676.282a.92.92 0 0 1 .282.676.9.9 0 0 1-.133.48 1 1 0 0 1-.346.351.9.9 0 0 1-.479.128m0-6.072a.92.92 0 0 1-.677-.283.92.92 0 0 1-.282-.676q0-.394.282-.677a.92.92 0 0 1 .677-.282q.394 0 .676.282a.93.93 0 0 1 .282.677.9.9 0 0 1-.133.479 1 1 0 0 1-.346.352.9.9 0 0 1-.479.128m11.247-4.922V380h-1.321v-9.524h-.064l-2.663 1.768v-1.342l2.727-1.811zm6.611-.149c.45.003.89.089 1.34.255q.675.25 1.23.831c.37.384.66.908.89 1.572q.33.996.33 2.498 0 1.454-.27 2.583c-.19.75-.45 1.382-.79 1.897s-.76.905-1.25 1.172q-.735.399-1.65.399c-.61 0-1.16-.121-1.64-.362a3.3 3.3 0 0 1-1.17-1.017 3.6 3.6 0 0 1-.58-1.519h1.3c.12.501.35.915.7 1.242.35.323.81.484 1.39.484.84 0 1.5-.367 1.99-1.102s.74-1.774.74-3.116h-.09c-.2.298-.43.555-.71.772-.27.217-.57.383-.91.501-.33.117-.69.175-1.06.175-.63 0-1.2-.154-1.72-.463-.52-.313-.94-.74-1.25-1.284-.31-.547-.46-1.172-.46-1.875 0-.667.15-1.278.44-1.832.31-.558.73-1.002 1.27-1.332.55-.33 1.19-.49 1.93-.479m0 1.172c-.45 0-.85.111-1.21.335-.35.22-.64.519-.85.895-.2.373-.31.787-.31 1.241q0 .682.3 1.241c.21.37.48.664.83.885q.525.324 1.2.325c.33 0 .65-.066.94-.198.29-.135.54-.317.76-.548.22-.235.39-.499.52-.794q.18-.447.18-.932a2.5 2.5 0 0 0-.3-1.199 2.54 2.54 0 0 0-.85-.905 2.16 2.16 0 0 0-1.21-.346m9.51 10.035c-.45-.007-.9-.092-1.34-.256a3.2 3.2 0 0 1-1.23-.825c-.37-.391-.66-.918-.89-1.582q-.33-1.002-.33-2.514 0-1.449.27-2.568c.18-.749.44-1.379.79-1.891a3.56 3.56 0 0 1 1.24-1.172 3.44 3.44 0 0 1 1.66-.399c.61 0 1.15.122 1.63.367q.72.363 1.17 1.012c.3.434.5.933.59 1.497h-1.3c-.12-.49-.36-.896-.71-1.22-.34-.323-.81-.484-1.38-.484-.85 0-1.51.367-2 1.102-.48.735-.72 1.767-.73 3.095h.09a3.1 3.1 0 0 1 .71-.772c.27-.217.58-.384.91-.501a3.2 3.2 0 0 1 1.06-.176c.63 0 1.2.156 1.72.469.52.309.93.737 1.24 1.284.32.543.47 1.166.47 1.869q0 1.012-.45 1.854a3.5 3.5 0 0 1-1.27 1.332q-.825.49-1.92.479m0-1.172q.675 0 1.2-.335c.36-.224.64-.524.85-.901.21-.376.31-.795.31-1.257q0-.676-.3-1.23c-.2-.373-.47-.669-.83-.89a2.15 2.15 0 0 0-1.19-.33c-.34 0-.65.068-.94.203-.29.131-.55.312-.77.543a2.7 2.7 0 0 0-.51.794c-.12.294-.19.605-.19.932 0 .433.11.838.31 1.214q.3.565.84.911c.36.231.76.346 1.22.346m9.98 1.023v-8.182h1.21v1.279h.11c.17-.437.44-.776.82-1.018.38-.245.84-.367 1.37-.367q.81 0 1.35.367c.36.242.64.581.85 1.018h.08c.21-.423.53-.759.95-1.007.41-.252.92-.378 1.5-.378q1.095 0 1.8.687c.46.454.7 1.163.7 2.125V380h-1.26v-5.476c0-.604-.17-1.035-.5-1.294a1.83 1.83 0 0 0-1.16-.389c-.58 0-1.02.174-1.34.522-.32.344-.47.781-.47 1.31V380h-1.28v-5.604c0-.465-.15-.84-.46-1.124-.3-.287-.69-.431-1.16-.431-.33 0-.63.087-.92.261-.28.174-.51.415-.68.724-.17.306-.26.659-.26 1.06V380zm13.03 0v-8.182h1.22v1.279h.11c.17-.437.44-.776.82-1.018.38-.245.84-.367 1.37-.367q.81 0 1.35.367.54.363.84 1.018h.09c.21-.423.52-.759.94-1.007.42-.252.92-.378 1.51-.378q1.095 0 1.8.687.69.682.69 2.125V380h-1.25v-5.476c0-.604-.17-1.035-.5-1.294a1.84 1.84 0 0 0-1.17-.389c-.57 0-1.02.174-1.33.522q-.48.516-.48 1.31V380h-1.28v-5.604q0-.698-.45-1.124c-.3-.287-.69-.431-1.16-.431-.33 0-.64.087-.92.261s-.51.415-.68.724c-.17.306-.26.659-.26 1.06V380zM270.303 680l-2.983-10.909h1.342l2.28 8.885h.106l2.323-8.885h1.491l2.323 8.885h.106l2.28-8.885h1.342L277.93 680h-1.363l-2.408-8.693h-.085L271.666 680zm14.755.17q-1.183 0-2.041-.522a3.5 3.5 0 0 1-1.315-1.47q-.458-.948-.458-2.205t.458-2.216q.463-.964 1.289-1.502.83-.543 1.939-.543.64 0 1.262.213.624.213 1.135.692.511.474.815 1.257t.303 1.929v.532h-6.307v-1.086h5.029q0-.693-.277-1.236a2.1 2.1 0 0 0-.778-.858q-.501-.314-1.182-.314-.751 0-1.3.373a2.45 2.45 0 0 0-.836.959 2.8 2.8 0 0 0-.293 1.267v.725q0 .927.319 1.571.325.639.901.975.575.33 1.337.33.495 0 .894-.138.405-.144.698-.426.293-.288.453-.714l1.214.341a2.7 2.7 0 0 1-.644 1.086 3.14 3.14 0 0 1-1.119.725q-.666.255-1.496.255m5.3-.17v-8.182h1.257V680zm.639-9.545a.9.9 0 0 1-.634-.251.8.8 0 0 1-.261-.602q0-.351.261-.602a.9.9 0 0 1 .634-.25q.367 0 .628.25a.8.8 0 0 1 .267.602.8.8 0 0 1-.267.602.87.87 0 0 1-.628.251m6.223 12.784q-.912 0-1.566-.235a3.3 3.3 0 0 1-1.092-.607 3.3 3.3 0 0 1-.687-.799l1.001-.703q.17.223.431.511.261.294.714.506.459.219 1.199.219.99 0 1.635-.48.645-.479.645-1.502v-1.662h-.107a7 7 0 0 1-.394.554q-.25.325-.725.581-.469.25-1.267.25a3.4 3.4 0 0 1-1.779-.469q-.783-.468-1.242-1.363-.452-.895-.452-2.174 0-1.256.442-2.189.442-.937 1.23-1.449.789-.516 1.822-.516.799 0 1.268.266.474.261.724.597.256.33.394.543h.128v-1.3h1.215v8.416q0 1.055-.48 1.716a2.73 2.73 0 0 1-1.278.974 4.8 4.8 0 0 1-1.779.315m-.043-4.496q.757 0 1.279-.346t.793-.996.272-1.556q0-.884-.266-1.561-.267-.676-.789-1.06-.522-.383-1.289-.383-.799 0-1.332.405-.527.405-.793 1.086a4.2 4.2 0 0 0-.261 1.513q0 .852.266 1.508.272.65.799 1.022.533.368 1.321.368m7.138-3.665V680h-1.257v-10.909h1.257v4.006h.106q.288-.635.863-1.007.58-.378 1.545-.378.837 0 1.465.335.629.33.975 1.018.351.681.351 1.736V680h-1.257v-5.114q0-.974-.506-1.507-.5-.538-1.39-.538a2.3 2.3 0 0 0-1.108.261 1.9 1.9 0 0 0-.767.762q-.277.5-.277 1.214m11.163-3.26v1.066h-4.24v-1.066zm-3.004-1.96h1.257v7.798q0 .533.155.799a.8.8 0 0 0 .404.352q.25.085.528.085.207 0 .341-.021l.213-.043.255 1.129a3 3 0 0 1-.356.096 2.6 2.6 0 0 1-.581.054q-.533 0-1.044-.23a2.1 2.1 0 0 1-.842-.697q-.33-.47-.33-1.183zm5.812 10.227a.92.92 0 0 1-.677-.282.92.92 0 0 1-.282-.677q0-.393.282-.676a.92.92 0 0 1 .677-.282q.393 0 .676.282a.92.92 0 0 1 .282.676.9.9 0 0 1-.133.48 1 1 0 0 1-.346.351.9.9 0 0 1-.479.128m0-6.072a.92.92 0 0 1-.677-.283.92.92 0 0 1-.282-.676q0-.394.282-.677a.92.92 0 0 1 .677-.282q.393 0 .676.282a.93.93 0 0 1 .282.677.9.9 0 0 1-.133.479 1 1 0 0 1-.346.352.9.9 0 0 1-.479.128m11.098 6.136q-1.054 0-1.881-.362-.82-.362-1.305-1.007a2.7 2.7 0 0 1-.522-1.507h1.343q.042.527.362.911a2.1 2.1 0 0 0 .836.586q.517.207 1.145.207.704 0 1.247-.245.543-.244.852-.682.309-.436.309-1.012a1.9 1.9 0 0 0-.298-1.06q-.298-.463-.874-.724-.575-.261-1.406-.261h-.874v-1.172h.874a2.6 2.6 0 0 0 1.14-.234q.495-.235.772-.661.283-.426.283-1.001 0-.555-.245-.964a1.7 1.7 0 0 0-.693-.64 2.25 2.25 0 0 0-1.044-.229q-.565 0-1.065.208-.496.202-.81.591a1.54 1.54 0 0 0-.341.927h-1.278a2.6 2.6 0 0 1 .516-1.502 3.26 3.26 0 0 1 1.268-1.012 4.1 4.1 0 0 1 1.731-.362q1.012 0 1.737.41.724.405 1.113 1.071t.389 1.438q0 .921-.485 1.571a2.45 2.45 0 0 1-1.305.9v.086q1.034.17 1.614.879.58.702.581 1.741 0 .89-.485 1.598-.48.703-1.31 1.108-.832.405-1.891.405m5.609-2.386v-1.087l4.794-7.585h.788v1.683h-.533l-3.622 5.732v.085h6.456v1.172zm5.135 2.237v-10.909h1.257V680zm8.431.149q-1.055 0-1.881-.362-.82-.362-1.305-1.007a2.7 2.7 0 0 1-.522-1.507h1.342q.043.527.363.911.319.378.836.586a3 3 0 0 0 1.145.207q.703 0 1.247-.245.543-.244.852-.682.309-.436.309-1.012 0-.601-.298-1.06-.298-.463-.874-.724t-1.406-.261h-.874v-1.172h.874a2.6 2.6 0 0 0 1.14-.234 1.84 1.84 0 0 0 .772-.661q.282-.426.282-1.001 0-.555-.245-.964a1.67 1.67 0 0 0-.692-.64 2.25 2.25 0 0 0-1.044-.229q-.565 0-1.066.208-.495.202-.809.591a1.54 1.54 0 0 0-.341.927h-1.279a2.6 2.6 0 0 1 .517-1.502 3.25 3.25 0 0 1 1.268-1.012 4.1 4.1 0 0 1 1.731-.362q1.013 0 1.737.41.725.405 1.113 1.071.389.665.389 1.438 0 .921-.485 1.571-.48.65-1.305.9v.086q1.034.17 1.614.879.58.702.581 1.741 0 .89-.485 1.598-.48.703-1.311 1.108-.83.405-1.89.405m13.407 3.09q-.91 0-1.566-.235a3.3 3.3 0 0 1-1.092-.607 3.3 3.3 0 0 1-.687-.799l1.001-.703q.171.223.432.511.26.294.713.506.459.219 1.199.219.99 0 1.635-.48.645-.479.645-1.502v-1.662h-.107a7 7 0 0 1-.394.554q-.25.325-.724.581-.47.25-1.268.25a3.4 3.4 0 0 1-1.779-.469q-.783-.468-1.241-1.363-.453-.895-.453-2.174 0-1.256.442-2.189.442-.937 1.23-1.449.789-.516 1.822-.516.799 0 1.268.266.474.261.724.597.256.33.394.543h.128v-1.3h1.215v8.416q0 1.055-.48 1.716a2.73 2.73 0 0 1-1.278.974 4.8 4.8 0 0 1-1.779.315m-.043-4.496q.756 0 1.279-.346t.793-.996q.272-.65.272-1.556 0-.884-.266-1.561-.267-.676-.789-1.06-.522-.383-1.289-.383-.798 0-1.331.405a2.46 2.46 0 0 0-.794 1.086 4.2 4.2 0 0 0-.261 1.513q0 .852.266 1.508.272.65.799 1.022.533.368 1.321.368M709.146 94.693a.5.5 0 0 0 0 .707l3.182 3.182a.501.501 0 0 0 .708-.707l-2.829-2.828 2.829-2.829a.5.5 0 0 0-.708-.707zm176.708.707a.5.5 0 0 0 0-.707l-3.182-3.182a.501.501 0 0 0-.708.707l2.829 2.829-2.829 2.828a.5.5 0 0 0 .708.707zM709.5 95.047v.5h176v-1h-176z"/><path stroke="#000" d="M708.5 91v8.094M886.5 91v8.094"/><path fill="#000" d="M917.353 125.146a.5.5 0 0 0-.707 0l-3.182 3.182a.5.5 0 0 0 .707.708l2.829-2.829 2.828 2.829a.5.5 0 0 0 .707-.708zm-.707 498.708a.5.5 0 0 0 .708 0l3.182-3.182a.502.502 0 0 0-.708-.708L917 622.793l-2.828-2.829a.502.502 0 0 0-.708.708zM917 125.5h-.5v498h1v-498z"/><path stroke="#000" d="M913 124.5h8.109M913 624.5h8.109"/><path fill="#fff" d="M215.78 116.001h202.27s1.96-.11 2.04 2.97l.15.84 1.17.52v396.5l-1.09 1.19-.34 2.19-.98 1.38 1.09 1.46.15 2.14 1.26.46v103.55l-.42.66-1 .21v2.351s-.31 1.429-3.98 1.419H214.97s-1.64-.519-1.58-2.049v-1.86l-1.17-.51V526.041l.24-.6 1.08-.33v-2.27l1.1-1.48-1.08-1.64-.16-1.99-1.4-.9v-396.24l.76-.71.86-.3v-2.06s.32-1.65 2.17-1.51z"/><path fill="#898989" d="M318.52 477.701c-.04.15-.14.28-.27.36-1.3.75-2.6 1.49-3.89 2.24-.24.13-.5.2-.77.2-.57 0-1.09-.3-1.37-.8-2.53-4.52-5.06-9.03-7.59-13.55-.2-.36-.25-.79-.14-1.19s.38-.74.74-.95c2.61-1.47 5.22-2.95 7.83-4.42.36-.2.79-.26 1.19-.14.4.11.74.38.94.74l3.48 6.21c.08.14.1.3.05.45-.04.15-.14.28-.28.36-.28.16-.64.06-.8-.23l-3.48-6.21a.39.39 0 0 0-.24-.19.35.35 0 0 0-.3.04c-2.61 1.47-5.22 2.94-7.83 4.42-.09.05-.16.14-.18.24-.03.1-.02.21.04.3 2.53 4.52 5.06 9.03 7.59 13.55.11.19.34.26.53.15 1.3-.74 2.59-1.49 3.89-2.23a.594.594 0 0 1 .86.67z"/><path fill="#898989" d="M323.5 472.121c-.18.27-.55.34-.82.15l-6.3-4.35a1.251 1.251 0 0 0-1.94 1.26c.06.33.24.62.52.8 1.17.81 2.34 1.62 3.52 2.43.16.11.25.28.25.47.01.53.19 1.26.36 1.76.19.57.44 1.12.75 1.64a8.6 8.6 0 0 0 2.44 2.61.6.6 0 0 1 .24.38c.03.15 0 .31-.1.44a.58.58 0 0 1-.82.14 9.7 9.7 0 0 1-2.72-2.88c-.67-1.1-1.17-2.45-1.3-3.75-1.09-.76-2.19-1.51-3.29-2.27-.53-.37-.89-.93-1.01-1.56-.12-.64.02-1.29.39-1.82.76-1.1 2.27-1.38 3.37-.62l6.3 4.35c.13.09.22.22.24.38.03.15 0 .31-.09.44z"/><path fill="#898989" d="M329.02 474.981c-.11 1.43-.42 2.84-.94 4.18-.09.23-.31.38-.55.38-.07 0-.14-.01-.21-.04a.63.63 0 0 1-.33-.31.54.54 0 0 1 0-.45c.89-2.29 1.17-5.16.61-7.56-2.3-2.19-4.6-4.38-6.9-6.56l-2.11.39a.576.576 0 0 1-.68-.47.576.576 0 0 1 .47-.68l2.41-.45c.18-.03.37.02.51.15 2.41 2.3 4.83 4.59 7.24 6.89.08.07.13.16.16.27.35 1.24.42 3 .33 4.27zM286.97 429.071c-.27.52-.68.9-1.19 1.16-.92.48-2.13.58-3.13.58h-.43c-.66 0-1.35-.08-1.99-.25-.32-.08-.66-.2-.96-.35-.15-.07-.3-.16-.43-.26s-.31-.27-.31-.45v-1.42c.06.02.11.05.17.07 1.04.43 2.3.81 3.45.81h.47c.45 0 1.07 0 1.51-.1.27-.06.55-.16.73-.39.18-.22.22-.52.22-.79 0-.21-.02-.47-.13-.65-.12-.2-.35-.29-.55-.37-.28-.13-1.15-.22-1.44-.26l-1.02-.14c-.75-.12-1.62-.29-2.28-.69-.79-.48-1.11-1.2-1.11-2.11 0-1.09.35-2.05 1.34-2.63.84-.49 1.95-.6 2.89-.6h.47c.62 0 1.27.08 1.87.22.31.07 1.55.39 1.73.75 0 0 0 .02.01.03v1.45c-.05-.01-.1-.03-.15-.04-1.14-.31-2.2-.5-3.39-.5h-.47c-.4 0-.96 0-1.35.09-.24.05-.51.14-.65.36-.13.21-.15.5-.15.73 0 .28.11.48.36.62.2.11.47.16.69.19.77.1 1.53.19 2.3.29.77.12 1.65.32 2.29.81.73.56.98 1.35.98 2.22 0 .56-.09 1.13-.34 1.63zM297.87 427.002c0 .87-.13 1.85-.62 2.6-.55.84-1.43 1.19-2.39 1.19h-2.77c-.99 0-1.84-.35-2.42-1.19-.5-.72-.71-1.74-.71-2.6v-6.34h2.1v6.31c0 .46.07 1.04.42 1.4.3.3.7.34 1.1.34h1.68c.39 0 .86-.06 1.15-.36.34-.34.34-.95.34-1.38v-6.31h2.12zM303.03 427.352v-1.48h3.54c.43 0 .7-.26.87-.63.14-.32.19-.71.19-1.05 0-.56-.04-1.27-.55-1.66-.45-.35-1.18-.39-1.71-.39h-.5c-.43 0-.89.01-1.3.14-.46.14-.79.41-1 .84-.32.67-.35 1.75-.35 2.47v5.1h-2.25v-5.11c0-1.35.15-3.06 1.18-4.11 1.04-1.07 2.74-1.23 4.1-1.23h.31c1.1 0 2.25.25 3.11.99.9.77 1.24 1.88 1.24 3.02 0 .99-.28 1.96-1.12 2.6-.77.58-1.81.74-2.73.74-.82 0-2.12-.07-2.93-.21-.03 0-.07-.01-.1-.02zM311.59 430.681v-6.6c0-.92.16-1.95.73-2.71.62-.83 1.58-1.14 2.57-1.14.64 0 1.9.1 2.54.21.03 0 .07.01.1.02v1.82h-2.02c-.43 0-1.19-.03-1.48.44-.23.38-.24 1.11-.24 1.52v6.45h-2.2zM325.83 422.992c-.09-.31-.25-.52-.55-.65-.44-.2-1.16-.21-1.62-.21h-.5c-.43 0-.89 0-1.3.14-.45.14-.79.4-1 .84-.32.67-.35 1.75-.35 2.47 0 .76.06 1.86.54 2.53.57.79 1.65.78 2.46.78h.43c1.36 0 2.39-.21 3.7-.55.05-.01.1-.03.15-.04v1.23c0 .11-.05.21-.12.3-.07.08-.15.16-.24.22-.15.11-.33.19-.5.26-.35.14-.74.25-1.11.32-.72.14-1.5.21-2.24.21h-.27c-1.35 0-2.93-.2-3.92-1.28-.96-1.04-1.13-2.65-1.13-3.97s.15-3.06 1.18-4.12c1.04-1.07 2.75-1.23 4.11-1.23h.31c1.03 0 2.19.17 3.06.79.97.69 1.29 1.75 1.29 2.88 0 .45-.09.9-.33 1.29s-.6.68-1 .88c-.75.37-1.69.48-2.5.48s-2.13-.07-2.94-.21c-.03 0-.07-.01-.1-.02v-1.48h3.54c.26 0 .58-.04.79-.22.22-.2.26-.51.26-.78s-.01-.59-.09-.85zM343.31 430.682h-2.01v-6.52c0-.49-.07-1.06-.42-1.46-.36-.41-.92-.5-1.43-.5s-1.03.11-1.36.54c-.3.39-.37.95-.37 1.42v6.52h-2.06v-6.52c0-.48-.04-1.1-.4-1.48-.37-.39-.98-.45-1.47-.45s-1.04.1-1.37.52c-.31.39-.35.96-.35 1.42v6.52h-2v-6.52c0-.9.19-1.91.75-2.65.62-.82 1.54-1.11 2.52-1.11h1.14c.73 0 1.67.36 2.2.87.55-.63 1.44-.87 2.23-.87h1.23c.93 0 1.87.41 2.44 1.16.56.74.73 1.7.73 2.6v6.52zM354.83 427.692c-.2.72-.54 1.38-1.07 1.92-1.06 1.09-2.56 1.33-3.99 1.23-1.2.08-2.76-.27-3.67-1.12-.73-.68-1.01-1.57-1.01-2.54 0-.48.12-.95.4-1.35.27-.4.66-.68 1.1-.88.8-.36 1.78-.46 2.64-.46.45 0 2.3.29 2.72.44.03 0 .05.02.08.03v1.23h-3.72c-.28 0-.55.08-.72.32-.16.22-.2.51-.2.76 0 .37.01.78.24 1.1.24.34.64.45 1.03.47h.23c.8.06 2.63.24 3.3-.51.56-.62.6-2.04.6-2.78 0-.9-.07-2.2-.81-2.89-1.14-1.04-5.19-.19-6.32.06l-.15.03v-1.23c0-.09.07-.2.12-.27q.09-.12.21-.21c.15-.12.33-.22.5-.3.34-.15.72-.26 1.09-.33.71-.14 1.49-.19 2.21-.19 1.36 0 3.06.12 4.13 1.16s1.26 2.73 1.26 4.1c.06.68-.03 1.53-.22 2.19z"/><path fill="url(#a)" d="M383.58 176.031H250.05v221.7h133.53z"/><path stroke="#231815" stroke-linecap="round" stroke-linejoin="round" stroke-width="1.35" d="m419.77 629.961 1.15-.06M415.51 633.841h2.54M215.58 633.841h2.53M414.24 633.832H219.38M288.37 624.821h56.89M281.18 616.841h-7.65M345.26 613.552h-56.89M273.53 613.042h7.65M419.76 517.671l.95-.08M224.39 521.941h13.37M240.41 521.941h152.81M395.86 521.941h13.37M418.04 521.591h-1.58M217.17 521.591h-1.59M420.09 519.551h-1.62M215.15 519.551h-1.61M419.24 525.441l1.68.08M213.86 517.671l-.95-.08M403.3 512.401H230.33M212.91 119.962v-.01M212.21 120.711v.01M213.54 118.031v1.54M213.54 517.972v1.58M214.81 528.281v94.69M222.68 504.752v-371.96M212.21 516.821v.01"/><circle cx="213.54" cy="525.101" r=".675" fill="#231815"/><path stroke="#231815" stroke-linecap="round" stroke-linejoin="round" stroke-width="1.35" d="M250.05 397.731v-221.7M419.22 517.252l-.06-.03M419.22 517.252l-.06-.03M287.09 614.281v9.8M383.58 397.731H250.05M346.53 624.081v-9.8M383.58 176.031v221.7"/><circle cx="420.09" cy="525.101" r=".675" fill="#231815"/><path stroke="#231815" stroke-linecap="round" stroke-linejoin="round" stroke-width="1.35" d="M421.41 516.821v.01M421.41 526.041v-.02"/><circle cx="421.41" cy="526.041" r=".675" fill="#231815"/><path stroke="#231815" stroke-linecap="round" stroke-linejoin="round" stroke-width="1.35" d="M410.94 132.792v371.96M418.82 528.281v94.69M420.09 519.552v-1.58M420.09 119.571v-1.54M421.41 629.391v-.01M421.41 120.711v.01M420.71 119.952v.01M214.4 120.292l.06.03M214.41 120.292l.05.03M250.05 176.031h133.53M213.86 119.872l-.95.08M230.33 125.142H403.3M418.05 116.001H215.57M419.76 119.872l.95.08M213.89 629.932c-.07.06-.14.13-.2.19M213.68 630.122l-.1.1M222.68 504.751a7.64 7.64 0 0 0 7.64 7.64M214.46 517.222c-.12.08-.24.17-.35.26M213.54 519.551c0 1.13.92 2.04 2.04 2.04M212.21 516.832c0 .4.3.73.7.76M214.57 626.321c-.19 1.03-.37 2.06-.53 3.1M214.74 118.961c.13.08.27.16.41.24M230.33 125.142a7.64 7.64 0 0 0-7.64 7.64M214.11 120.071c.1.07.2.15.3.22M311.07 146.311a5.74 5.74 0 1 1 11.48 0 5.74 5.74 0 0 1-11.48 0M215.57 116.001c-1.12 0-2.03.91-2.03 2.03M212.91 119.952c-.4.03-.7.37-.7.76M419.59 629.421c-.16-1.03-.34-2.07-.53-3.1M419.84 630.032s-.07-.06-.1-.1M419.94 630.121s-.07-.06-.1-.1M420.04 630.222l-.1-.1M420.93 629.902c.27-.01.48-.24.48-.51M419.18 525.462c.11-.03.21-.07.32-.11M419.5 525.351c.1-.03.19-.07.28-.11M403.3 512.402a7.64 7.64 0 0 0 7.64-7.64M419.52 517.471c-.1-.07-.2-.15-.3-.22M419.78 525.241c.09-.03.17-.07.25-.11M418.04 521.591c1.13 0 2.04-.91 2.04-2.04M420.71 517.592c.4-.03.7-.37.7-.76M421.34 525.781a.5.5 0 0 0-.41-.25M418.47 119.202c.13-.07.27-.15.4-.23M410.94 132.791a7.64 7.64 0 0 0-7.64-7.64M419.16 120.322c.12-.08.24-.17.35-.26M420.09 118.031c0-1.12-.91-2.03-2.03-2.03M421.41 120.712c0-.4-.3-.73-.7-.76M421.34 525.781c.04.07.07.16.07.24M288.37 613.552h-.3c-.02 0-.04 0-.06.01s-.04 0-.06.01h-.1c-.02 0-.04.01-.05.02s-.04.01-.05.02h-.07s-.02 0-.02.01c-.02 0-.03.02-.05.02 0 0-.02 0-.02.01s-.02 0-.02.01-.02 0-.02.01h-.01s-.01 0-.02.01c-.01 0-.03.02-.04.03s-.03.02-.04.03c0 0-.01 0-.02.01 0 0 0 .01-.01.02 0 .01-.02.02-.03.03 0 0 0 .01-.01.02s0 .01-.01.02 0 .01-.01.02v.02c0 .01-.01.02-.02.03v.2M346.53 614.281v-.2c0-.01-.01-.019-.02-.029v-.021s0-.01-.01-.02 0-.01-.01-.02 0-.01-.01-.02c0-.01-.02-.02-.03-.03 0 0 0-.009-.01-.019h-.01s-.01-.001-.02-.011-.01 0-.02-.01-.01 0-.02-.01c-.01 0-.03-.02-.04-.03 0 0-.01 0-.02-.01h-.02s-.02 0-.02-.01c-.02 0-.03-.02-.05-.02s-.03-.019-.05-.019c0 0-.02 0-.02-.01h-.07a.08.08 0 0 1-.05-.021c-.01-.01-.04-.01-.05-.02h-.1c-.02 0-.04 0-.06-.01s-.04 0-.06-.01h-.3M345.26 624.822h.3c.02 0 .04 0 .06-.01s.04 0 .06-.01h.1c.02 0 .04-.01.05-.02s.04-.01.05-.02h.07s.02 0 .02-.01c.02 0 .03-.02.05-.02 0 0 .02 0 .02-.01s.02 0 .02-.01.02 0 .02-.01h.01s.01 0 .02-.01c.01 0 .03-.02.04-.03s.03-.02.04-.03c0 0 .01 0 .02-.01 0 0 0-.01.01-.02 0-.01.02-.02.03-.03 0 0 0-.01.01-.02s0-.01.01-.02 0-.01.01-.02v-.02c0-.01.01-.02.02-.03v-.2M281.18 616.842h.78c.03 0 .05 0 .08-.01s.05 0 .08-.01.05 0 .08-.01.05 0 .08-.01h.16c.01 0 .02 0 .04-.01s.02 0 .04-.01.02 0 .04-.01c.02 0 .05-.01.07-.02s.05-.01.07-.02.05-.01.07-.02.05-.01.07-.02c.01 0 .02 0 .04-.01s.02 0 .04-.01.02 0 .04-.01h.04c.01 0 .02 0 .03-.01s.02 0 .03-.01.02 0 .03-.01c.02 0 .04-.02.06-.03l.06-.03.06-.03.06-.03c.01 0 .02 0 .03-.01s.02 0 .03-.01.02 0 .03-.01h.03s.02-.01.03-.02.02-.01.03-.02.02-.01.03-.02c.02-.01.03-.02.05-.04s.03-.02.05-.04.03-.02.05-.04.03-.02.05-.04c0 0 .02-.01.03-.02s.02-.01.03-.02.02-.01.03-.02h.01v-.01l.02-.02.02-.02.02-.02.04-.04.04-.04.04-.04.04-.04.02-.02.02-.02.02-.02v-.02s0-.01.01-.02 0-.01.01-.02 0-.01.01-.02c0-.01.02-.03.02-.04s.02-.03.02-.04.02-.03.02-.04.02-.03.02-.04c0 0 0-.01.01-.02s0-.01.01-.02 0-.01.01-.02v-.7s0-.01-.01-.02 0-.01-.01-.02 0-.01-.01-.02c0-.01-.02-.03-.02-.04s-.02-.03-.02-.04-.02-.03-.02-.04-.02-.03-.02-.04c0 0 0-.01-.01-.02s0-.01-.01-.02 0-.01-.01-.02v-.02l-.02-.02-.02-.02-.02-.02-.04-.04-.04-.04-.04-.04-.04-.04-.02-.02-.02-.02-.02-.02v-.01h-.01s-.02-.01-.03-.02-.02-.01-.03-.02-.02-.01-.03-.02a.2.2 0 0 1-.05-.04c-.02-.02-.03-.02-.05-.04s-.03-.02-.05-.04-.03-.02-.05-.04c0 0-.02-.01-.03-.02s-.02-.01-.03-.02-.02-.01-.03-.02h-.03c-.01 0-.02 0-.03-.01s-.02 0-.03-.01-.02 0-.03-.01c-.02 0-.04-.02-.06-.03l-.06-.03-.06-.03-.06-.03c-.01 0-.02 0-.03-.01s-.02 0-.03-.01-.02 0-.03-.01h-.04c-.01 0-.02 0-.04-.01s-.02 0-.04-.01-.02 0-.04-.01c-.02 0-.05-.01-.07-.02s-.05-.01-.07-.02-.05-.01-.07-.02-.05-.01-.07-.02c-.01 0-.02 0-.04-.01s-.02 0-.04-.01-.02 0-.04-.01h-.16c-.03 0-.05 0-.08-.01s-.05 0-.08-.01-.05 0-.08-.01-.05 0-.08-.01h-.78M273.53 613.042h-.78c-.03 0-.05 0-.08.01s-.05 0-.08.01-.05-.001-.08.009-.05 0-.08.01h-.16c-.01 0-.02 0-.04.01s-.02 0-.04.01-.02 0-.04.01c-.02 0-.05.01-.07.02s-.05.01-.07.02-.05.011-.07.021-.05.009-.07.019c-.01 0-.02 0-.04.01s-.02 0-.04.01-.02 0-.04.01h-.04c-.01 0-.02 0-.03.01s-.02 0-.03.01-.02 0-.03.01c-.02 0-.04.02-.06.03l-.06.031-.06.029-.06.03c-.01 0-.02 0-.03.01s-.02 0-.03.01-.02 0-.03.01h-.03s-.02.011-.03.021-.02.009-.03.019-.02.01-.03.02c-.02.01-.03.02-.05.04s-.03.021-.05.041-.03.019-.05.039-.03.02-.05.04c0 0-.02.01-.03.02s-.02.01-.03.02-.02.011-.03.021h-.01v.009l-.02.02-.02.02-.02.02-.04.041-.04.039-.04.04-.04.04-.02.021-.02.019-.02.02v.02s0 .01-.01.02 0 .01-.01.02 0 .011-.01.021c0 .01-.02.029-.02.039s-.02.03-.02.04-.02.031-.02.041-.02.029-.02.039c0 0 0 .01-.01.02s0 .01-.01.02 0 .01-.01.02v.7s0 .01.01.02 0 .01.01.02 0 .01.01.02c0 .01.02.03.02.04s.02.03.02.04.02.03.02.04.02.03.02.04c0 0 0 .01.01.02s0 .01.01.02 0 .01.01.02v.02l.02.021.02.02.02.019.04.04.04.04.04.04.04.04.02.02.02.02.02.021v.01h.01s.02.009.03.019.02.01.03.02.02.01.03.02c.02.01.03.02.05.04s.03.02.05.04.03.02.05.04.03.02.05.04c0 0 .02.011.03.021s.02.009.03.019.02.01.03.02h.03c.01 0 .02 0 .03.01s.02 0 .03.01.02 0 .03.01c.02 0 .04.02.06.03l.06.031.06.029.06.03c.01 0 .02 0 .03.01s.02 0 .03.01.02 0 .03.01h.04c.01 0 .02 0 .04.01s.02.001.04.011.02 0 .04.01c.02 0 .05.009.07.019s.05.01.07.02.05.01.07.02.05.01.07.02c.01 0 .02 0 .04.01s.02 0 .04.01.02 0 .04.01h.16c.03 0 .05.001.08.011s.05 0 .08.01.05-.001.08.009.05 0 .08.01h.78M287.09 624.082v.2c0 .01.01.02.02.03v.02s0 .01.01.02 0 .01.01.02 0 .01.01.02c0 .01.02.02.03.03 0 0 0 .01.01.02h.01s.01 0 .02.01.01 0 .02.01.01 0 .02.01c.01 0 .03.02.04.03 0 0 .01 0 .02.01h.02s.02 0 .02.01c.02 0 .03.02.05.02s.03.02.05.02c0 0 .02 0 .02.01h.07c.02 0 .04.01.05.02s.04.01.05.02h.1c.02 0 .04 0 .06.01s.04 0 .06.01h.3M418.82 528.281c0-.35 0-.7.03-1.06.02-.3.04-.6.08-.9.02-.12.03-.23.06-.35l.06-.27c.02-.06.04-.12.07-.17.02-.03.04-.06.07-.07M419.06 626.321l-.03-.2q-.06-.36-.09-.72M418.93 625.411c-.02-.18-.03-.37-.05-.55-.05-.63-.06-1.26-.06-1.88M419.74 629.931s-.06-.1-.08-.16c-.03-.12-.05-.23-.07-.35M214.44 525.461s.05.04.07.07a1.31 1.31 0 0 1 .13.44l.06.35c.04.3.06.6.08.9.02.35.03.7.03 1.06M214.44 525.462c-.08-.03-.16-.05-.24-.08-.21-.07-.41-.15-.61-.24M214.03 629.421c-.02.12-.04.23-.07.35-.02.06-.03.12-.08.16M214.81 622.972v.68c-.01.62-.05 1.25-.12 1.87M214.68 625.521c0 .07-.02.15-.03.22-.02.19-.05.39-.09.58M219.38 633.832c-.42 0-.85.01-1.27.01M415.51 633.842c-.42 0-.84-.01-1.27-.01M214.11 517.472c-.1.08-.21.16-.31.25M213.8 517.722c-.09.08-.18.16-.26.25M213.54 119.571s.08.08.13.12c.14.13.29.26.44.37M419.52 120.071c.1-.08.21-.16.31-.25M419.82 119.821c.09-.08.18-.16.26-.25M420.09 517.971s-.08-.08-.13-.12a5 5 0 0 0-.44-.37M418.87 118.971a6.413 6.413 0 0 0 1.22-.929M213.54 118.031c.08.08.16.16.25.23.3.26.62.49.96.7M213.59 630.222s-.05.07-.05.1M420.04 525.131s.05-.03.05-.04M420.09 630.322s-.02-.07-.05-.1M213.54 525.102s.02.02.05.04M213.89 629.961l-1.19-.06M226.75 608.571h180.13M214.38 525.441l-1.68.08M416.11 523.992l1.73-.08M414.19 521.952H219.43M416.46 521.591H217.17M418.47 519.551h-2.33M217.49 519.551h-2.34M215.78 523.912l1.74.08M213.54 631.792v.089M212.21 629.391v-.01M212.21 120.711v396.12M212.21 526.042v103.34M213.54 631.791v-1.47M213.54 525.101v-1.47M218.61 122.861v393.63M212.21 526.021v.02M213.54 523.481v.15M417.84 624.142l-9.05-17.25M224.83 606.892l-9.05 17.25M420.09 523.631l-.01-.15M420.09 523.631l-.01-.15M415.01 516.491v-393.63M420.09 631.791v-1.47M420.09 525.101v-1.47M421.41 516.831v-396.12M420.08 631.881l.01-.089M416.04 119.811l1.8-.43M215.78 119.381l1.8.43M213.54 631.881c.02.51.24 1 .6 1.36M214.14 633.241c.38.38.9.6 1.44.6M212.21 629.392c0 .27.21.5.48.51M214.84 523.832c.1.01.21.02.31.04M215.58 521.591c-.54 0-1.06.22-1.44.6M214.44 629.062c-.11.59-.21 1.179-.31 1.769M214.78 627.312c-.12.58-.23 1.17-.34 1.75M214.97 626.412c-.06.3-.13.6-.19.9M215.15 625.571l-.18.84M419.5 630.841c-.1-.59-.2-1.189-.31-1.779M419.19 629.062c-.11-.59-.22-1.17-.34-1.75M418.84 627.301c-.06-.3-.12-.6-.19-.9M418.66 626.411l-.18-.84M419.49 633.241c.36-.36.57-.85.6-1.36M418.04 633.841c.54 0 1.06-.22 1.44-.6M418.47 523.871c.09 0 .18-.02.26-.03M419.49 522.191c-.38-.38-.9-.6-1.44-.6M212.7 525.521a.494.494 0 0 0-.48.49M213.54 523.481c.04-.47.26-.96.59-1.29M420.08 523.481c-.03-.47-.26-.96-.59-1.29M213.59 523.651s.08.02.12.02c.14.03.28.05.43.07M214.14 523.741c.05 0 .11.02.16.02.18.03.36.05.54.07M418.74 523.841c.13-.02.26-.03.38-.05.31-.04.61-.09.91-.14M418.47 625.572c-.03-.12-.07-.24-.11-.36-.13-.37-.31-.73-.52-1.07M417.84 523.911h.2c.14 0 .29-.01.43-.03M215.78 624.142c-.07.12-.14.23-.2.35-.18.34-.33.71-.43 1.08M215.15 523.872h.11l.52.03M219.43 521.952c-.25 0-.5.06-.73.16M218.7 522.111c-.35.15-.65.42-.86.75s-.32.74-.33 1.13M226.75 608.571c-.45-.08-.89-.28-1.24-.59-.33-.29-.58-.67-.68-1.08M406.88 608.571c.45-.08.89-.28 1.24-.59.33-.29.58-.67.68-1.08M414.19 521.952c.25 0 .5.06.73.16M414.92 522.111c.35.15.65.42.86.75s.32.74.33 1.13M420.04 523.652h.02c.01 0 .03 0 .03-.01M213.54 523.631h.01M213.55 523.642h.04M408.79 606.891c-.35-.66-.58-1.38-.76-2.11-.23-.91-.36-1.84-.44-2.77-.08-1.01-.1-2.03-.04-3.04.05-.96.17-1.92.37-2.86"/><path stroke="#231815" stroke-linecap="round" stroke-linejoin="round" stroke-width="1.35" d="M407.92 596.121c2.33-10.95 3.99-22.05 5.14-33.19 1.23-11.94 1.86-23.94 1.95-35.94M415 526.991c0-.39.03-.79.1-1.17.05-.33.13-.66.25-.97.05-.12.1-.25.17-.36.05-.09.11-.18.19-.27.11-.12.25-.22.41-.23M217.52 523.991c.16 0 .3.11.41.23.08.08.13.17.19.27.06.12.12.24.17.36.12.31.19.64.25.97q.09.585.09 1.17M218.62 526.991c.09 12 .72 23.99 1.95 35.93 1.15 11.15 2.81 22.24 5.14 33.2M225.71 596.122c.2.94.32 1.9.37 2.86.06 1.02.04 2.03-.04 3.05-.08.93-.22 1.86-.44 2.77-.18.73-.42 1.44-.76 2.1M215.15 119.202s.07.03.11.05c.17.06.34.1.52.13M417.84 119.382c.07-.01.14-.03.2-.04.15-.03.29-.07.43-.14M414.22 521.591c.25 0 .5-.05.73-.16s.45-.26.62-.44.32-.42.42-.66.15-.52.15-.78M219.4 521.591c-.25 0-.5-.05-.73-.16s-.45-.26-.62-.44-.32-.42-.42-.66-.15-.52-.15-.78M217.58 119.812c.16.04.29.16.39.29.16.2.25.43.33.66a6.4 6.4 0 0 1 .31 2.1M218.61 516.491c0 .4-.03.81-.09 1.2-.05.34-.13.67-.25.99-.05.13-.11.25-.17.37-.05.1-.11.19-.19.27-.11.12-.26.22-.42.22M416.14 519.551c-.16 0-.31-.1-.42-.22-.08-.08-.14-.17-.19-.27-.07-.12-.12-.24-.17-.37-.12-.32-.2-.66-.25-.99q-.09-.6-.09-1.2M415.01 122.862c0-.38.02-.761.08-1.141.05-.33.12-.649.23-.959.08-.23.17-.46.33-.66.1-.13.23-.25.39-.29M214.81 514.422v-391.3M418.82 514.422v-391.3M421.41 629.382v-103.34M214.81 514.421c0 .34 0 .68-.03 1.02-.02.29-.04.59-.08.88-.01.12-.03.23-.05.35l-.06.27-.06.18c-.02.04-.03.07-.07.09M214.46 120.321s.05.06.07.09q.045.09.06.18l.06.27c.02.12.04.23.05.35.04.29.06.59.08.88q.03.51.03 1.02M418.82 123.122c0-.34 0-.68.03-1.02.02-.29.04-.591.08-.881.01-.12.03-.229.05-.349l.06-.27.06-.18c.02-.04.03-.07.07-.09M419.16 517.222s-.05-.06-.07-.09a.6.6 0 0 1-.06-.18l-.06-.27c-.02-.12-.04-.23-.05-.35-.04-.29-.06-.59-.08-.88q-.03-.51-.03-1.02"/><path stroke="#9fa0a0" stroke-linecap="round" stroke-linejoin="round" stroke-width=".9" d="M573.13 119.361v399.37M573.13 630.981v-106.53M572.63 522.411c.09 0 .17.08.22.16.04.06.07.12.09.19.03.08.06.17.08.25.05.22.08.44.1.66.02.26.02.52 0 .77M573.13 630.981c.01.26.01.52 0 .77-.02.22-.04.44-.1.66-.02.09-.05.17-.08.25-.02.07-.05.13-.09.19-.05.08-.13.16-.22.16M573.13 119.362c.02-.25.03-.51.02-.77 0-.22-.03-.44-.07-.65-.02-.09-.04-.17-.07-.25a.7.7 0 0 0-.09-.19c-.05-.08-.12-.16-.21-.17M573.13 518.731c.01.26.01.52 0 .77-.02.22-.04.44-.1.66-.02.09-.05.17-.08.25-.02.07-.05.13-.09.19-.05.08-.13.16-.22.16"/><path stroke="#231815" stroke-linecap="round" stroke-linejoin="round" stroke-width="1.35" d="m556.96 633.841 15.66-.82M557.02 630.001l9-.47M552.74 629.631l4.28.37M547.11 626.102l4.39 3.08M556.86 525.411l-8.92.31M566.02 525.891l-9.16-.48M556.96 521.591l5.26.27M557.18 517.741l8.93-.78M557.49 521.561l15.14-.8M556.96 521.591l-15.77.27M556.45 521.591h-13.21M547.81 516.961l8.93.78M545.48 123.122v391.3M545.48 528.271v94.7M556.96 521.081v-3.33M556.96 119.791v-3.28M568.44 626.981v-98.54M568.44 514.422v-391.3M593.36 516.991l.33 9.5M597.52 512.791v-11.05M597.52 498.062v-118.77M597.52 375.602v-118.77M597.52 253.142v-118.77M597.52 130.691v-4.93M556.74 119.792l-8.93.79M566.11 120.582l-8.93-.79M571.2 117.191l-13.69-1.19M556.4 116.001l-13.34 1.16M545.48 622.971c0 1.25.61 2.42 1.63 3.13M551.5 629.182c.37.26.79.41 1.24.45M566.02 629.531a2.55 2.55 0 0 0 2.42-2.55M597.32 627.511c.13-.21.2-.44.2-.69M547.94 525.721a2.556 2.556 0 0 0-2.46 2.55M545.48 514.421c0 1.32 1.01 2.43 2.33 2.54M568.44 528.442a2.55 2.55 0 0 0-2.42-2.55M566.11 516.961a2.554 2.554 0 0 0 2.33-2.54M556.73 517.741c.15.01.3.01.44 0M556.45 521.592c.28 0 .51-.23.51-.51"/><path stroke="#231815" stroke-linecap="round" stroke-linejoin="round" stroke-width="1.35" d="M556.96 521.051c0 .28.23.51.51.51h.03M547.81 120.582a2.554 2.554 0 0 0-2.33 2.54M557.18 119.791c-.15-.01-.3-.01-.44 0M556.96 116.511c0-.28-.23-.51-.51-.51h-.04M557.51 116.001a.506.506 0 0 0-.55.46v.04M568.44 123.122c0-1.32-1.01-2.43-2.33-2.54M597.52 528.841c0-.27-.09-.53-.25-.75M597.16 124.141q-.135-.3-.33-.57M597.52 130.691v.45c0 .46-.01.93-.01 1.39M597.5 132.531v.47c0 .46.02.92.02 1.38M597.52 253.142v.45c0 .46-.01.93-.01 1.39M597.5 254.991v.47c0 .46.02.92.02 1.38M597.52 375.602v.45c0 .46-.01.93-.01 1.39M597.5 377.441v.47c0 .46.02.92.02 1.38M597.52 498.062v.45c0 .46-.01.93-.01 1.39M597.5 499.901v.47c0 .46.02.92.02 1.38M556.96 633.841l25.89-1.36M556.96 633.842l-4.9-.43M549.58 632.511l-34.19-23.949M556.96 521.591l25.78 1.35M571.13 520.841l11.72-.61M536.43 521.941l20.53-.35M543.24 521.591h-6.69M586.66 523.771l10.04 3.88M531.45 516.481v-393.62M556.96 521.601v-.01"/><circle cx="556.96" cy="521.591" r=".675" fill="#231815"/><path stroke="#231815" stroke-linecap="round" stroke-linejoin="round" stroke-width="1.35" d="M597.52 626.821v-97.98M586.56 519.471l8.45-3.09M595.02 122.171l-8.65-3.2M586.56 631.721l10.12-3.7M583.06 118.231l-11.86-1.04M536.1 117.771l6.96-.61M512.41 595.102a10.205 10.205 0 0 0 2.98 13.47M549.58 632.511c.73.51 1.59.83 2.48.9M582.85 632.481a12.7 12.7 0 0 0 3.71-.76M596.68 628.021c.5-.18.84-.66.84-1.2M512.41 595.101a141.6 141.6 0 0 0 19.01-68.15M536.43 521.941a5.103 5.103 0 0 0-5.01 5M531.45 516.481c0 2.82 2.28 5.1 5.1 5.1M586.66 523.772c-1.26-.48-2.58-.77-3.92-.84M582.85 520.231a12.7 12.7 0 0 0 3.71-.76M536.1 117.771a5.1 5.1 0 0 0-4.66 5.08M586.37 118.971c-1.06-.39-2.18-.64-3.31-.74M597.52 528.841c0-.53-.32-1-.82-1.19M595.01 516.382a3.82 3.82 0 0 0 2.51-3.59M597.52 125.761c0-1.6-1-3.03-2.5-3.59"/><path stroke="#231815" stroke-linecap="round" stroke-linejoin="round" stroke-width="1.35" d="M597.52 528.851c0-.24-.07-.48-.21-.68s-.33-.37-.55-.46M596.7 527.651l.06.06M596.74 627.961c.15-.06.29-.16.41-.27M597.15 627.691c.12-.11.21-.249.27-.399M597.42 627.281c.06-.15.1-.31.1-.48M596.74 627.961s0 .02-.01.02c-.01.02-.03.03-.04.04M712.13 138.73l9.6-9.6M874.08 602.33h-65.82M764.89 602.33h-45.41M774.08 611.17l-5.11-6.8M708 478.59V406.4M708 389.81V139.03M710.55 478.59V406.4M710.55 389.81V139.03M710.68 478.59V411.5M712.59 410.22v-19.13M714.38 479.87v117.35"/><path stroke="#231815" stroke-linecap="round" stroke-linejoin="round" stroke-width=".9" d="M718.97 473.75v-20.92"/><path stroke="#231815" stroke-linecap="round" stroke-linejoin="round" stroke-width="1.35" d="M722.03 125v2.55M722.03 128.4v-.68"/><path stroke="#231815" stroke-linecap="round" stroke-linejoin="round" stroke-width=".9" d="M725.35 452.83v20.92"/><path stroke="#231815" stroke-linecap="round" stroke-linejoin="round" stroke-width="1.35" d="m882.48 152.32 2.34-2.34M708 478.59h2.55M710.68 478.59h2.42M880.46 478.59h5.1"/><path stroke="#231815" stroke-linecap="round" stroke-linejoin="round" stroke-width=".9" d="M873.57 474.77h-4.33M724.33 474.77h-4.34M719.99 451.81h4.34M869.24 451.81h4.33"/><path stroke="#231815" stroke-linecap="round" stroke-linejoin="round" stroke-width="1.35" d="M775.1 622.48v-8.25M710.55 411.5h.77M882.25 411.5h.76M798.06 614.23v8.25M885.56 406.4h-2.55M710.55 406.4H708M708 389.81h3.32M882.25 389.81h3.31M843.98 125v2.55M843.98 127.68v.72M863.88 137.76v2.55M863.88 140.44v.12"/><path stroke="#231815" stroke-linecap="round" stroke-linejoin="round" stroke-width=".9" d="M868.21 473.75v-20.92"/><path stroke="#231815" stroke-linecap="round" stroke-linejoin="round" stroke-width="1.35" d="M868.98 141.33v-.89"/><path stroke="#231815" stroke-linecap="round" stroke-linejoin="round" stroke-width=".9" d="M874.59 452.83v20.92M878.42 188.53v-20.92"/><path stroke="#231815" stroke-linecap="round" stroke-linejoin="round" stroke-width="1.35" d="M879.18 597.22V479.87M880.46 140.44v.89M880.97 391.09v19.13M881.74 157.15v-3.03M883.01 478.59V406.4M883.01 389.81V158.17M885.56 140.44v7.74M885.56 406.4v72.19M885.56 389.81V158.17M885.56 140.31v-2.55M804.18 604.37l-5.1 6.8"/><path stroke="#231815" stroke-linecap="round" stroke-linejoin="round" stroke-width=".9" d="M883.01 189.55h-3.57"/><path stroke="#231815" stroke-linecap="round" stroke-linejoin="round" stroke-width="1.35" d="m855.99 140.84-11.71-11.71"/><path stroke="#231815" stroke-linecap="round" stroke-linejoin="round" stroke-width=".9" d="M879.44 166.59h3.57"/><path stroke="#231815" stroke-linecap="round" stroke-linejoin="round" stroke-width="1.35" d="M885.56 158.17h-2.55M882.76 158.17h.12M862.86 141.58h-5.07M885.56 140.31h-21.68M710.55 139.03H708M710.68 139.03h.72M863.88 137.76h21.68M722.03 127.55h121.95M722.03 125h121.95M775.1 614.23c0-1.1-.36-2.18-1.02-3.06M768.97 604.37a5.12 5.12 0 0 0-4.08-2.04M714.38 597.22c0 2.82 2.28 5.1 5.1 5.1M711.32 411.5c.7 0 1.28-.57 1.28-1.28M712.59 391.09c0-.7-.57-1.28-1.28-1.28M714.38 479.87c0-.7-.57-1.28-1.28-1.28"/><path stroke="#231815" stroke-linecap="round" stroke-linejoin="round" stroke-width=".9" d="M725.35 452.83c0-.56-.46-1.02-1.02-1.02M724.33 474.77c.56 0 1.02-.46 1.02-1.02M718.97 473.75c0 .56.46 1.02 1.02 1.02M719.99 451.81c-.56 0-1.02.46-1.02 1.02"/><path stroke="#231815" stroke-linecap="round" stroke-linejoin="round" stroke-width="1.35" d="M721.73 129.13c.19-.19.3-.45.3-.72M711.4 139.03c.27 0 .53-.11.72-.3"/><path stroke="#231815" stroke-linecap="round" stroke-linejoin="round" stroke-width=".9" d="M715.14 167.61v20.92M710.55 189.55h3.57M710.55 166.59h3.57M715.14 167.61c0-.56-.46-1.02-1.02-1.02M714.12 189.55c.56 0 1.02-.46 1.02-1.02M739.38 128.57v-1.02M780.2 127.55v1.02M779.18 129.59H740.4M739.38 128.57c0 .56.46 1.02 1.02 1.02M779.18 129.59c.56 0 1.02-.46 1.02-1.02"/><path stroke="#231815" stroke-linecap="round" stroke-linejoin="round" stroke-width="1.35" d="M808.26 602.33a5.1 5.1 0 0 0-4.08 2.04M799.08 611.17c-.66.88-1.02 1.96-1.02 3.06M874.08 602.33c2.82 0 5.1-2.28 5.1-5.1"/><path stroke="#231815" stroke-linecap="round" stroke-linejoin="round" stroke-width=".9" d="M846.53 434.48h12.76M846.53 424.85h12.76M846.53 415.91h12.76M846.53 408.65h12.76M846.53 399.17h12.76M846.53 390.92h12.76M841.43 436.08v-46.76M846.53 436.08v-46.76M859.29 389.32v46.76M864.39 389.32v46.76M859.29 436.08c0 1.41 1.14 2.55 2.55 2.55s2.55-1.14 2.55-2.55M864.39 389.32c0-1.41-1.14-2.55-2.55-2.55s-2.55 1.14-2.55 2.55M846.53 389.32c0-1.41-1.14-2.55-2.55-2.55s-2.55 1.14-2.55 2.55M841.43 436.08c0 1.41 1.14 2.55 2.55 2.55s2.55-1.14 2.55-2.55"/><path stroke="#231815" stroke-linecap="round" stroke-linejoin="round" stroke-width="1.35" d="M880.97 410.22c0 .7.57 1.28 1.28 1.28M882.25 389.81c-.7 0-1.28.57-1.28 1.28M880.46 478.59c-.7 0-1.28.57-1.28 1.28"/><path stroke="#231815" stroke-linecap="round" stroke-linejoin="round" stroke-width=".9" d="M874.59 452.83c0-.56-.46-1.02-1.02-1.02M873.57 474.77c.56 0 1.02-.46 1.02-1.02M868.21 473.75c0 .56.46 1.02 1.02 1.02M869.24 451.81c-.56 0-1.02.46-1.02 1.02M752.14 264.04v80.32M841.43 344.36v-80.32M759.79 352.02h73.98M833.77 256.39h-73.98M752.14 344.36a7.65 7.65 0 0 0 7.65 7.65M759.79 256.39a7.65 7.65 0 0 0-7.65 7.65M833.77 352.02a7.65 7.65 0 0 0 7.65-7.65M841.43 264.04a7.65 7.65 0 0 0-7.65-7.65"/><path stroke="#231815" stroke-linecap="round" stroke-linejoin="round" stroke-width="1.35" d="M855.99 140.84c.48.48 1.13.75 1.8.75M882.48 152.32c-.48.48-.75 1.13-.75 1.8M884.82 149.98c.48-.48.75-1.13.75-1.8"/><path stroke="#231815" stroke-linecap="round" stroke-linejoin="round" stroke-width=".9" d="M883.01 376.29h-3.32M879.69 335.47h3.32M878.42 375.02v-38.27M878.42 375.02c0 .7.57 1.28 1.28 1.28M879.69 335.47c-.7 0-1.28.57-1.28 1.28"/><path stroke="#231815" stroke-linecap="round" stroke-linejoin="round" stroke-width="1.35" d="M843.98 128.4c0 .27.11.53.3.72M862.86 141.58c.56 0 1.02-.46 1.02-1.02M881.74 157.15c0 .56.46 1.02 1.02 1.02"/><path stroke="#231815" stroke-linecap="round" stroke-linejoin="round" stroke-width=".9" d="M879.44 166.59c-.56 0-1.02.46-1.02 1.02M878.42 188.53c0 .56.46 1.02 1.02 1.02M879.44 142.35H870M879.44 142.35c.56 0 1.02-.46 1.02-1.02M868.98 141.33c0 .56.46 1.02 1.02 1.02"/><path stroke="#231815" stroke-linecap="round" stroke-linejoin="round" stroke-width="1.35" d="M798.06 625.03H775.1M798.06 622.48H775.1M775.1 625.03v-2.55M798.06 625.03v-2.55"/><path stroke="#231815" stroke-linecap="round" stroke-linejoin="round" stroke-width=".9" d="M791.04 399.25v20.41M802.52 419.66v-20.41M802.52 399.25a5.74 5.74 0 0 0-11.48 0M791.04 419.66a5.74 5.74 0 0 0 11.48 0M793.08 378.84c0-2.04 1.66-3.7 3.7-3.7s3.7 1.66 3.7 3.7-1.66 3.7-3.7 3.7-3.7-1.66-3.7-3.7M731.85 450.28c0-2.04 1.66-3.7 3.7-3.7s3.7 1.66 3.7 3.7-1.66 3.7-3.7 3.7-3.7-1.66-3.7-3.7M738.74 213.02c0-2.47 2-4.46 4.46-4.46s4.46 2 4.46 4.46-2 4.46-4.46 4.46-4.46-2-4.46-4.46M739.51 200.26c0-2.04 1.66-3.7 3.7-3.7s3.7 1.66 3.7 3.7-1.66 3.7-3.7 3.7-3.7-1.66-3.7-3.7M854.31 450.28c0-2.04 1.66-3.7 3.7-3.7s3.7 1.66 3.7 3.7-1.66 3.7-3.7 3.7-3.7-1.66-3.7-3.7M786.58 206h20.41M806.99 194.52h-20.41M786.58 194.52a5.74 5.74 0 0 0 0 11.48M806.99 206a5.74 5.74 0 0 0 0-11.48M846.66 200.26c0-2.04 1.66-3.7 3.7-3.7s3.7 1.66 3.7 3.7-1.66 3.7-3.7 3.7-3.7-1.66-3.7-3.7"/><defs><linearGradient id="a" x1="228.01" x2="405.62" y1="375.691" y2="198.071" gradientUnits="userSpaceOnUse"><stop stop-color="#bfbfbf"/><stop offset=".14" stop-color="#c2c2c2"/><stop offset=".27" stop-color="#cecece"/><stop offset=".4" stop-color="#e0e0e0"/><stop offset=".53" stop-color="#fbfbfb"/><stop offset=".54" stop-color="#e0e0e0"/><stop offset=".55" stop-color="#cdcdcd"/><stop offset=".56" stop-color="#ccc"/><stop offset="1" stop-color="#fff"/></linearGradient></defs></svg>