<svg xmlns="http://www.w3.org/2000/svg" width="67" height="180" fill="none" viewBox="0 0 67 180"><path fill="#fff" d="M67 0H0v180h67z"/><path stroke="#000" stroke-linecap="round" stroke-linejoin="round" stroke-width=".5" d="m14.165 9.838-4.483 5.14M48.471 167.267h-9.347M27.607 167.267H18.26M8.021 157.5h2.558M56.153 157.5h2.557"/><path stroke="gray" stroke-linecap="round" stroke-linejoin="round" stroke-width=".5" d="M8.021 156.216h1.534M57.177 156.216h1.533"/><path stroke="#000" stroke-linecap="round" stroke-linejoin="round" stroke-width=".5" d="m10.579 157.5 4.482 5.139M38.487 143.299H28.244M28.244 137.515h10.243M50.392 129.87H16.34M12.886 126.398V74.222M14.165 9.838V5.211M15.061 162.639v1.417"/><path stroke="gray" stroke-linecap="round" stroke-linejoin="round" stroke-width=".5" d="M15.443 5.21v1.412"/><path stroke="#000" stroke-linecap="round" stroke-linejoin="round" stroke-width=".5" d="M18.133 6.622v1.8M27.607 174.979v-7.712M28.244 8.422v-1.8"/><path stroke="gray" stroke-linecap="round" stroke-linejoin="round" stroke-width=".5" d="M29.527 174.979v-1.416"/><path stroke="#000" stroke-linecap="round" stroke-linejoin="round" stroke-width=".5" d="M30.485 38.236v-10.28M36.246 27.957v10.279M38.487 6.622v1.8M39.124 174.979v-7.712"/><path stroke="gray" stroke-linecap="round" stroke-linejoin="round" stroke-width=".5" d="M44.886 66.254V59.06M46.806 59.059v7.195"/><path stroke="#000" stroke-linecap="round" stroke-linejoin="round" stroke-width=".5" d="M48.599 8.422v-1.8"/><path stroke="gray" stroke-linecap="round" stroke-linejoin="round" stroke-width=".5" d="M50.647 66.254V59.06M51.288 6.622V5.211"/><path stroke="#000" stroke-linecap="round" stroke-linejoin="round" stroke-width=".5" d="M51.67 164.056v-1.417"/><path stroke="gray" stroke-linecap="round" stroke-linejoin="round" stroke-width=".5" d="M52.567 59.059v7.195"/><path stroke="#000" stroke-linecap="round" stroke-linejoin="round" stroke-width=".5" d="M52.567 9.838V5.211M53.846 74.222v52.176M16.34 70.754h34.052"/><path stroke="gray" stroke-linecap="round" stroke-linejoin="round" stroke-width=".5" d="M51.67 67.154h-.127M45.91 67.154h-.128M50.83 66.804h-4.208M50.651 66.32h-3.845M50.646 64.426h-3.84M50.646 62.882h-3.84M50.646 62.432h-3.84M50.646 60.883h-3.84M46.806 58.993h3.845M46.622 58.51h4.209M45.782 58.159h.127M51.543 58.159h.127"/><path stroke="#000" stroke-linecap="round" stroke-linejoin="round" stroke-width=".5" d="m51.67 162.639 4.483-5.139M57.05 14.978l-4.483-5.14"/><path stroke="gray" stroke-linecap="round" stroke-linejoin="round" stroke-width=".5" d="M58.71 16.262h-1.534M9.555 16.262H8.02"/><path stroke="#000" stroke-linecap="round" stroke-linejoin="round" stroke-width=".5" d="M8.021 14.978h1.661M57.05 14.978h1.66M48.599 8.422H38.487M28.244 8.422H18.133M14.165 6.75h3.968M28.244 6.75h10.243M48.599 6.75h3.968M52.567 6.622H14.165M14.165 5.21h38.402M50.392 129.87a3.464 3.464 0 0 0 3.458-3.472M12.886 126.398a3.464 3.464 0 0 0 3.458 3.472M16.34 70.754a3.464 3.464 0 0 0-3.459 3.472M53.846 74.222a3.464 3.464 0 0 0-3.459-3.472M48.471 167.267c1.77 0 3.2-1.44 3.2-3.211M15.061 164.056a3.205 3.205 0 0 0 3.199 3.211M30.485 38.236a2.883 2.883 0 0 0 2.878 2.89 2.883 2.883 0 0 0 2.879-2.89M36.246 27.957a2.883 2.883 0 0 0-2.878-2.89 2.883 2.883 0 0 0-2.878 2.89M38.487 143.299a2.883 2.883 0 0 0 2.878-2.89 2.883 2.883 0 0 0-2.878-2.889M28.244 137.515a2.883 2.883 0 0 0-2.878 2.89 2.883 2.883 0 0 0 2.878 2.889"/><path stroke="gray" stroke-linecap="round" stroke-linejoin="round" stroke-width=".5" d="M52.567 59.059c0-.497-.401-.9-.897-.9M51.543 58.159a.9.9 0 0 0-.896.9M46.806 59.059c0-.497-.401-.9-.897-.9M45.782 58.159a.9.9 0 0 0-.896.9M51.67 67.154a.9.9 0 0 0 .897-.9M50.647 66.254c0 .498.4.9.896.9M45.91 67.154a.9.9 0 0 0 .896-.9M44.886 66.254c0 .498.4.9.896.9M37.204 174.979v-1.416"/><path stroke="#000" stroke-linecap="round" stroke-linejoin="round" stroke-width=".5" d="M27.607 173.563h11.517M39.124 173.435H27.607M39.124 174.979H27.607"/><path stroke="#000" stroke-linecap="round" stroke-linejoin="round" stroke-width=".25" d="M9.682 157.5V14.978M9.555 157.5V14.978"/><path stroke="#000" stroke-linecap="round" stroke-linejoin="round" stroke-width=".5" d="M8.021 157.5V14.978M58.71 14.978V157.5"/><path stroke="#000" stroke-linecap="round" stroke-linejoin="round" stroke-width=".25" d="M57.05 14.978V157.5M57.177 157.5V14.978"/><path stroke="#000" stroke-linecap="round" stroke-linejoin="round" d="m14.165 9.838-4.483 5.14M48.471 167.267h-9.347M27.607 167.267H18.26M8.021 157.5h2.558M56.153 157.5h2.557M10.579 157.5l4.482 5.139M14.165 9.838V5.211M15.061 162.639v1.417M27.607 174.979v-7.712M39.124 174.979v-7.712M51.67 164.056v-1.417M52.567 9.838V5.211M51.67 162.639l4.483-5.139M57.05 14.978l-4.483-5.14M8.021 14.978h1.661M57.05 14.978h1.66M14.165 5.21h38.402M48.471 167.267c1.77 0 3.2-1.44 3.2-3.211M15.061 164.056a3.205 3.205 0 0 0 3.199 3.211M39.124 174.979H27.607M8.021 157.5V14.978M58.71 14.978V157.5"/></svg>