<svg xmlns="http://www.w3.org/2000/svg" width="465" height="75" fill="none" viewBox="0 0 465 75"><g clip-path="url(#a)"><path fill="#fff" d="M437.21 5.48H15.5s-4.75 5.64 0 10.4h421.7"/><path stroke="#231815" stroke-miterlimit="10" stroke-width=".85" d="M437.21 5.48H15.5s-4.75 5.64 0 10.4h421.7"/><path fill="#fff" stroke="#231815" stroke-miterlimit="10" stroke-width=".85" d="M441.39.42h14.79c1.09 0 1.97.88 1.97 1.97v16.56c0 1.09-.88 1.97-1.97 1.97h-14.79a3.74 3.74 0 0 1-3.74-3.74V4.16a3.74 3.74 0 0 1 3.74-3.74Z"/><path fill="#fff" stroke="#231815" stroke-miterlimit="10" stroke-width=".85" d="M446.4 4.26h-4.99v12.83h4.99z"/><path fill="#fff" d="M443.27 15.42H21.56s-4.75 5.64 0 10.4h421.7"/><path stroke="#231815" stroke-miterlimit="10" stroke-width=".85" d="M443.27 15.42H21.56s-4.75 5.64 0 10.4h421.7"/><path fill="#fff" stroke="#231815" stroke-miterlimit="10" stroke-width=".85" d="M447.45 10.37h14.79c1.09 0 1.97.88 1.97 1.97V28.9c0 1.09-.88 1.97-1.97 1.97h-14.79a3.74 3.74 0 0 1-3.74-3.74V14.11a3.74 3.74 0 0 1 3.74-3.74Z"/><path fill="#fff" stroke="#231815" stroke-miterlimit="10" stroke-width=".85" d="M452.46 14.2h-4.99v12.83h4.99z"/><path fill="#fff" d="M443.27 29H21.56s-4.75 5.64 0 10.4h421.7"/><path stroke="#231815" stroke-miterlimit="10" stroke-width=".85" d="M443.27 29H21.56s-4.75 5.64 0 10.4h421.7"/><path fill="#fff" stroke="#231815" stroke-miterlimit="10" stroke-width=".85" d="M447.45 23.95h14.79c1.09 0 1.97.88 1.97 1.97v16.56c0 1.09-.88 1.97-1.97 1.97h-14.79a3.74 3.74 0 0 1-3.74-3.74V27.69a3.74 3.74 0 0 1 3.74-3.74Z"/><path fill="#fff" stroke="#231815" stroke-miterlimit="10" stroke-width=".85" d="M452.46 27.78h-4.99v12.83h4.99z"/><path fill="#fff" d="M443.27 52.53H21.56s-4.75 5.64 0 10.4h421.7"/><path stroke="#231815" stroke-miterlimit="10" stroke-width=".85" d="M443.27 52.53H21.56s-4.75 5.64 0 10.4h421.7"/><path fill="#fff" stroke="#231815" stroke-miterlimit="10" stroke-width=".85" d="M447.45 47.47h14.79c1.09 0 1.97.88 1.97 1.97V66c0 1.09-.88 1.97-1.97 1.97h-14.79a3.74 3.74 0 0 1-3.74-3.74V51.21a3.74 3.74 0 0 1 3.74-3.74Z"/><path fill="#fff" stroke="#231815" stroke-miterlimit="10" stroke-width=".85" d="M452.46 51.31h-4.99v12.83h4.99z"/><path fill="#fff" d="M432.79 42.28H11.09s-4.75 5.64 0 10.4h421.7"/><path stroke="#231815" stroke-miterlimit="10" stroke-width=".85" d="M432.79 42.28H11.09s-4.75 5.64 0 10.4h421.7"/><path fill="#fff" stroke="#231815" stroke-miterlimit="10" stroke-width=".85" d="M436.98 37.22h14.79c1.09 0 1.97.88 1.97 1.97v16.56c0 1.09-.88 1.97-1.97 1.97h-14.79a3.74 3.74 0 0 1-3.74-3.74V40.96a3.74 3.74 0 0 1 3.74-3.74Z"/><path fill="#fff" stroke="#231815" stroke-miterlimit="10" stroke-width=".85" d="M441.99 41.06H437v12.83h4.99z"/><path fill="#fff" d="M424.24 58.94H2.54s-4.75 5.64 0 10.4h421.7"/><path stroke="#231815" stroke-miterlimit="10" stroke-width=".85" d="M424.24 58.94H2.54s-4.75 5.64 0 10.4h421.7"/><path fill="#fff" stroke="#231815" stroke-miterlimit="10" stroke-width=".85" d="M428.42 53.89h14.79c1.09 0 1.97.88 1.97 1.97v16.56c0 1.09-.88 1.97-1.97 1.97h-14.79a3.74 3.74 0 0 1-3.74-3.74V57.63a3.74 3.74 0 0 1 3.74-3.74Z"/><path fill="#fff" stroke="#231815" stroke-miterlimit="10" stroke-width=".85" d="M433.44 57.72h-4.99v12.83h4.99z"/></g><defs><clipPath id="a"><path fill="#fff" d="M0 0h464.64v74.81H0z"/></clipPath></defs></svg>