<svg xmlns="http://www.w3.org/2000/svg" width="146" height="325" fill="none" viewBox="0 0 146 325"><g clip-path="url(#a)"><path fill="#fff" d="M145.32 0H0v324.96h145.32z"/><path fill="#fff" d="M16.53 14.55h112.61s.89-.15.9 1.83l.79.65v220.2l-.78.77v1.18l-.53.66.4.96.34 21.51-.24 4.32-4.74 33.82-1.56 3.1-1.54 2.17-1.37 1.19s-2.9 2.4-9.14 3.45H76.45l-.78-.35h-6.22l-.97.4H33.85s-9.79-1.36-12.59-7.48l-1.12-2.39-4.55-31.97-.52-4.99.09-8.44.12-14.42.65-.97-.63-.71-.02-1.36-.65-.24-.06-.4V17.17l.74-.56v-1.25s.22-.93 1.25-.81z"/><path fill="url(#b)" d="M109.75 47.9H35.57v123.17h74.18z"/><path fill="url(#c)" d="M90.57 266.48H67.45v20.95h23.12z"/><path stroke="#231815" stroke-linecap="round" stroke-linejoin="round" stroke-width=".75" d="M115.72 309.32h.01M111.75 310.35l.09-.01.17-.09M68.91 310.41l.18-.03M76.44 310.4l-.03.01M111.76 310.35h-.01M110.36 310.4H76.44M68.91 310.41H34.96M33.56 310.35l1.4.06"/><circle cx="33.56" cy="310.35" r=".375" fill="#231815"/><path stroke="#231815" stroke-linecap="round" stroke-linejoin="round" stroke-width=".75" d="m68.91 310.41-.03-.01M76.23 310.38l.18.03"/><circle cx="29.59" cy="309.32" r=".375" fill="#231815"/><path stroke="#231815" stroke-linecap="round" stroke-linejoin="round" stroke-width=".75" d="m26.61 308.17-.04-.02M25.81 307.76l.76.39M110.42 300.81H34.89M110.42 300.81H34.89"/><path stroke="#231815" stroke-linecap="round" stroke-linejoin="round" stroke-width=".5" d="M91.72 293.99H66.35"/><circle cx="111.75" cy="310.35" r=".375" fill="#231815"/><path stroke="#231815" stroke-linecap="round" stroke-linejoin="round" stroke-width=".75" d="m75.99 310.27.24.11"/><path stroke="#231815" stroke-linecap="round" stroke-linejoin="round" stroke-width=".5" d="M66.35 293.63h25.37M66.35 291.31h25.37M90.02 287.53H68.05M90.02 287.41H68.05"/><path stroke="#231815" stroke-linecap="round" stroke-linejoin="round" stroke-width=".75" d="m75.55 310 .19.11M75.74 310.11l.25.16"/><circle cx="75.74" cy="310.11" r=".375" fill="#231815"/><circle cx="67.55" cy="287.28" r=".25" fill="#231815"/><path stroke="#231815" stroke-linecap="round" stroke-linejoin="round" stroke-width=".5" d="m67.55 287.29-.05-.04-.11-.1"/><path stroke="#231815" stroke-linecap="round" stroke-linejoin="round" stroke-width=".75" d="m21.61 303.52.17.41 1 1.42 1.34 1.29 1.69 1.12"/><path stroke="#231815" stroke-linecap="round" stroke-linejoin="round" stroke-width=".5" d="M90.02 266.48H68.05M68.05 265.88h21.97M91.72 262.19H66.35M17.7 261.01h42.27M98.1 261.01h29.52M91.72 255.81H66.35"/><path stroke="#231815" stroke-linecap="round" stroke-linejoin="round" stroke-width=".75" d="M15.69 269.57v-.04M129.85 237.7l.53-.05"/><path stroke="#231815" stroke-linecap="round" stroke-linejoin="round" stroke-width=".5" d="M66.35 253.52h25.37"/><path stroke="#231815" stroke-linecap="round" stroke-linejoin="round" stroke-width=".75" d="m15.46 237.7-.52-.05"/><path stroke="#231815" stroke-linecap="round" stroke-linejoin="round" stroke-width=".5" d="m19.8 273.68-.19-1.62"/><path stroke="#231815" stroke-linecap="round" stroke-linejoin="round" stroke-width=".75" d="m16.3 262.05-.02-.12"/><circle cx="14.55" cy="17.17" r=".375" fill="#231815"/><path stroke="#231815" stroke-linecap="round" stroke-linejoin="round" stroke-width=".75" d="m15.05 259.42.03 3.37.25 3.74.36 3.04M15.71 241.5v-1.06M15.71 241.5v-1.06M15.26 241.75v-.99M15.28 15.68v.85M15.28 237.86v.88"/><path stroke="#231815" stroke-linecap="round" stroke-linejoin="round" stroke-width=".5" d="M17.13 239.88v.56"/><path stroke="#231815" stroke-linecap="round" stroke-linejoin="round" stroke-width=".75" d="M20.36 230.52V23.88M20.05 299.91v-.06"/><circle cx="14.55" cy="237.23" r=".375" fill="#231815"/><path stroke="#231815" stroke-linecap="round" stroke-linejoin="round" stroke-width=".75" d="M15.26 240.76v-.04"/><circle cx="15.05" cy="259.42" r=".375" fill="#231815"/><path stroke="#231815" stroke-linecap="round" stroke-linejoin="round" stroke-width=".75" d="M15.97 239.88h1.33M128.02 239.88h1.33M130.03 238.74h-.89M16.18 238.74h-.9M120.71 234.77h-96.1"/><path stroke="#231815" stroke-linecap="round" stroke-linejoin="round" stroke-width=".5" d="m67.39 287.15-.04-.09-.01-.04"/><path stroke="#231815" stroke-linecap="round" stroke-linejoin="round" stroke-width=".75" d="M34.96 310.41v-.01"/><path stroke="#231815" stroke-linecap="round" stroke-linejoin="round" stroke-width=".5" d="M35.57 171.06V47.9"/><path stroke="#231815" stroke-linecap="round" stroke-linejoin="round" stroke-width=".75" d="m15.3 240.49-.04.23"/><path stroke="#231815" stroke-linecap="round" stroke-linejoin="round" stroke-width=".5" d="M59.97 288.38v-27.37M61.25 289.68v-28.86"/><path stroke="#231815" stroke-linecap="round" stroke-linejoin="round" stroke-width=".75" d="m15.54 240.07-.13.18-.11.24M129.55 237.47l-.03-.02M129.55 237.47l-.03-.02"/><circle cx="72.66" cy="309.89" r=".375" fill="#231815"/><path stroke="#231815" stroke-linecap="round" stroke-linejoin="round" stroke-width=".5" d="M66.35 253.52v8.67M66.94 286.72v-20.04M67.34 266.98v20.04M90.73 287.02v-20.04M91.14 266.68v20.04M91.72 262.19v-8.67M109.75 171.06H35.57"/><path stroke="#231815" stroke-linecap="round" stroke-linejoin="round" stroke-width=".75" d="m129.9 240.24-.12-.17"/><path stroke="#231815" stroke-linecap="round" stroke-linejoin="round" stroke-width=".5" d="m96.82 289.68-.01-28.86M98.1 261.01v27.37M90.73 287.02v.04l-.05.09M109.75 47.9v123.16"/><path stroke="#231815" stroke-linecap="round" stroke-linejoin="round" stroke-width=".75" d="m130.06 240.72-.04-.23-.12-.25"/><circle cx="130.26" cy="259.42" r=".375" fill="#231815"/><path stroke="#231815" stroke-linecap="round" stroke-linejoin="round" stroke-width=".75" d="M130.06 240.72v.04"/><circle cx="130.77" cy="237.23" r=".375" fill="#231815"/><path stroke="#231815" stroke-linecap="round" stroke-linejoin="round" stroke-width=".75" d="M124.95 23.88v206.64"/><path stroke="#231815" stroke-linecap="round" stroke-linejoin="round" stroke-width=".5" d="M128.19 239.88v.56"/><path stroke="#231815" stroke-linecap="round" stroke-linejoin="round" stroke-width=".75" d="M130.03 238.74v-.88M130.03 16.53v-.85M130.06 240.76v.99M129.6 240.44v1.06"/><circle cx="130.77" cy="17.17" r=".375" fill="#231815"/><circle cx="130.77" cy="17.17" r=".375" fill="#231815"/><path stroke="#231815" stroke-linecap="round" stroke-linejoin="round" stroke-width=".75" d="m129.62 269.57.01-.04M129.62 269.57l.37-3.08.25-3.74.02-3.33M129.04 261.93l-.02.12"/><path stroke="#231815" stroke-linecap="round" stroke-linejoin="round" stroke-width=".5" d="m125.71 272.06-.24 1.38M90.68 287.15l-.1.1-.06.04"/><path stroke="#231815" stroke-linecap="round" stroke-linejoin="round" stroke-width=".75" d="m15.77 16.93.03.02"/><circle cx="69.58" cy="310.11" r=".375" fill="#231815"/><circle cx="90.52" cy="287.28" r=".25" fill="#231815"/><path stroke="#231815" stroke-linecap="round" stroke-linejoin="round" stroke-width=".75" d="m15.76 16.93.04.02M69.34 310.27l.24-.16M69.58 310.11l.19-.11M69.09 310.38l.25-.11M112.01 310.25l.12-.1.04-.04M119.54 307.75l1.69-1.13 1.34-1.3.98-1.43.15-.35"/><path stroke="#231815" stroke-linecap="round" stroke-linejoin="round" stroke-width=".5" d="M35.57 47.9h74.18"/><path stroke="#231815" stroke-linecap="round" stroke-linejoin="round" stroke-width=".75" d="m118.74 308.16.8-.41M118.74 308.16l-.04.01M24.61 19.63h96.1M15.46 16.7l-.52.04M128.9 14.55H16.41M129.85 16.7l.53.04M15.05 259.42c.13-5.89.2-11.78.2-17.67"/><path stroke="#231815" stroke-linecap="round" stroke-linejoin="round" stroke-width=".5" d="M59.97 261.01c0-.64 0-1.27-.02-1.91M61.25 289.68l-.15-.6M26.91 307.25c.2.08.39.15.59.22M26.32 307c.19.09.39.17.58.24"/><path stroke="#231815" stroke-linecap="round" stroke-linejoin="round" stroke-width=".75" d="M26.67 308.19c.15.08.31.16.47.23M20.89 302.34c.14.26.3.51.47.76M20.63 301.82c.08.18.17.35.26.52M20.44 301.36c.06.16.12.31.19.46M20.18 300.54c.07.28.15.55.26.82M20.07 300.02c.03.17.07.35.11.52M20.06 299.91s.01.07.02.11M20.05 299.85v.06M20.36 230.52c0 2.35 1.9 4.25 4.25 4.25M15.8 237.45l-.2.14M16.14 239.84l.14.03M15.91 239.75c.07.04.15.07.23.09M16.28 239.87h.14M15.28 238.74c0 .43.24.82.62 1.01M33.24 310.13s.02.03.03.04M14.55 237.23c0 .22.17.4.39.42M15.95 16.19c.07.05.15.09.23.13M24.61 19.63c-2.35 0-4.25 1.9-4.25 4.25M15.6 16.81c.05.04.11.08.17.12M16.41 14.55c-.62 0-1.13.51-1.13 1.13M14.94 16.74c-.22.02-.39.2-.39.42M73.18 309.89h-.45M72.56 309.89h-.4M73.72 309.9h-.53M72.65 309.89h-.1M72.16 309.89c-.18 0-.37 0-.55.01M71.61 309.9h-.21M73.98 309.91h-.26M113.93 309.75c.28-.06.55-.12.82-.18M114.75 309.57c.05-.01.11-.03.16-.04M114.91 309.53l.81-.21"/><path stroke="#231815" stroke-linecap="round" stroke-linejoin="round" stroke-width=".5" d="M111.88 308.46h.47"/><path stroke="#231815" stroke-linecap="round" stroke-linejoin="round" stroke-width=".75" d="M110.36 310.4h.15M110.5 310.4c.38 0 .77-.02 1.15-.05M111.66 310.36h.09M124.63 301.94c.05-.1.09-.19.13-.29M124.77 301.64c.07-.17.14-.34.2-.51M124.96 301.13c.04-.13.09-.27.12-.4M125.09 300.73c.05-.19.1-.38.13-.58M125.22 300.15c.02-.08.03-.16.04-.24M125.26 299.91v-.06M112.1 310.12s-.04.01-.07.02M15.32 266.45c0 .05.01.11.02.16M129.98 266.62c0-.08.02-.16.02-.24M129.63 269.53s.01-.09.02-.13M15.07 262.65v.27M130.24 262.89v-.24"/><path stroke="#231815" stroke-linecap="round" stroke-linejoin="round" stroke-width=".5" d="M59.97 258.71c0 .13-.01.26-.01.39M98.12 259.1c0-.13 0-.26-.01-.39"/><path stroke="#231815" stroke-linecap="round" stroke-linejoin="round" stroke-width=".75" d="M120.71 234.77c2.35 0 4.25-1.9 4.25-4.25M129.72 237.59c-.05-.04-.11-.08-.17-.12M129.04 239.87c.1-.01.2-.04.29-.08M128.9 239.88h.14M129.33 239.79c.06-.03.12-.06.17-.09M129.51 239.7s.09-.06.13-.1M129.64 239.6c.25-.22.39-.53.39-.86M130.38 237.65c.22-.02.39-.2.39-.42"/><path stroke="#231815" stroke-linecap="round" stroke-linejoin="round" stroke-width=".5" d="m96.98 289.08-.15.6M98.12 259.1c-.01.64-.02 1.27-.02 1.91"/><path stroke="#231815" stroke-linecap="round" stroke-linejoin="round" stroke-width=".75" d="M130.06 241.75c0 5.89.07 11.78.2 17.67M129.14 16.33c.07-.04.15-.08.22-.13M124.95 23.88c0-2.35-1.9-4.25-4.25-4.25M129.52 16.95l.2-.14"/><path stroke="#231815" stroke-linecap="round" stroke-linejoin="round" stroke-width=".5" d="M69.47 31.39c0-1.76 1.43-3.19 3.19-3.19s3.19 1.43 3.19 3.19-1.43 3.19-3.19 3.19-3.19-1.43-3.19-3.19"/><path stroke="#231815" stroke-linecap="round" stroke-linejoin="round" stroke-width=".75" d="M130.03 15.68c0-.62-.51-1.13-1.13-1.13M130.77 17.17c0-.22-.17-.4-.39-.42"/><path stroke="#231815" stroke-linecap="round" stroke-linejoin="round" stroke-width=".5" d="M90.52 287.29s-.07.04-.11.05c-.12.05-.26.07-.39.07M68.05 287.41h-.14a.9.9 0 0 1-.36-.11M67.34 287.35s-.03-.02-.05-.03c-.04-.03-.09-.06-.12-.1M67.17 287.23a.8.8 0 0 1-.18-.24.6.6 0 0 1-.06-.27M90.46 266.59s-.07-.03-.1-.05c-.11-.04-.23-.06-.34-.06M90.46 266.59s.08.05.11.08.06.06.08.09.04.07.05.1.02.07.02.11M90.73 266.06c.06.04.12.08.17.13.05.04.09.09.13.15.03.05.06.11.08.17q.03.09.03.18M91.14 286.72q0 .135-.06.27a.8.8 0 0 1-.18.24M90.9 287.23s-.03.02-.04.03c-.04.03-.08.06-.13.09M67.34 287.35s.03.02.05.03c.05.03.11.05.16.07M67.56 287.45l.12.03c.12.03.25.05.38.05M90.02 287.53h.13c.12 0 .25-.03.37-.07M90.51 287.45s.04-.01.06-.02c.05-.02.11-.05.16-.08M66.94 266.68c0-.06 0-.12.03-.18s.05-.12.08-.17c.04-.06.08-.11.13-.15.05-.05.11-.09.17-.13M67.34 266.98s0-.07.02-.11.03-.07.05-.1.05-.07.08-.09c.03-.03.07-.06.11-.08M68.05 266.48h-.12c-.11.01-.23.05-.32.1M90.73 266.06c-.05-.03-.1-.05-.16-.08-.17-.07-.36-.1-.55-.1M68.05 265.88c-.06 0-.13 0-.19.01-.18.02-.36.08-.52.16"/><path stroke="#231815" stroke-linecap="round" stroke-linejoin="round" stroke-width=".75" d="M115.72 309.32c.21-.06.43-.13.64-.19.62-.2 1.22-.43 1.81-.7M27.14 308.42c.19.09.38.17.57.25.61.25 1.24.46 1.88.65M33.57 310.35c-.06 0-.12-.02-.17-.05a.4.4 0 0 1-.13-.12M33.64 310.28v.04s-.02.01-.02.02c-.01 0-.03.01-.04.02M29.59 309.32c.67.19 1.35.35 2.03.49.45.09.9.17 1.34.26M32.97 310.07c.11.02.23.05.34.08.07.02.15.04.22.07M33.53 310.21s.05.02.07.03c.01 0 .03.02.04.03M72.65 309.89h.08M73.98 309.91c.17 0 .34.01.51.02.39.02.78.04 1.17.08M75.66 310.01c.22.02.45.05.67.09.07.01.14.03.21.05.04.01.09.03.13.05M76.66 310.2s.01 0 .02.01c.01 0 .02.02.03.03M68.61 310.24s.04-.04.07-.05c.05-.02.1-.04.14-.05.07-.02.15-.04.22-.05.1-.02.2-.03.31-.05M69.35 310.05s.06 0 .09-.01l.3-.03M69.74 310l.34-.03c.44-.03.88-.05 1.33-.07"/><path stroke="#231815" stroke-linecap="round" stroke-linejoin="round" stroke-width=".75" d="M68.88 310.4s-.09-.02-.14-.04a.4.4 0 0 1-.09-.04c-.02-.01-.04-.02-.04-.04v-.04M76.71 310.24v.03c0 .01-.01.02-.02.03s-.02.02-.04.03c-.04.02-.09.04-.14.05M76.52 310.38s-.05.02-.08.02M111.68 310.28s.02-.02.04-.03.05-.02.07-.03c.08-.03.16-.05.24-.08M112.1 310.12s.06-.01.08-.02l.3-.06M112.48 310.04l.29-.06c.38-.07.77-.15 1.15-.23"/><path stroke="#231815" stroke-linecap="round" stroke-linejoin="round" stroke-width=".75" d="M111.75 310.35s-.03 0-.04-.02c0 0-.02 0-.02-.02v-.04"/><path stroke="#231815" stroke-linecap="round" stroke-linejoin="round" stroke-width=".5" d="M61.25 289.68c.16.14.33.27.5.38s.37.23.56.33c.4.21.82.38 1.25.51s.9.24 1.36.31.94.1 1.42.1M91.72 291.31h.37M92.09 291.31c.87-.03 1.75-.18 2.58-.45.4-.13.79-.3 1.16-.5a5.815 5.815 0 0 0 .99-.68"/><path stroke="#231815" stroke-linecap="round" stroke-linejoin="round" stroke-width=".75" d="M129.35 239.88c.08 0 .16.02.24.05a.4.4 0 0 1 .19.15M15.97 239.88c-.08 0-.16.02-.24.05a.4.4 0 0 0-.19.15"/><path stroke="#231815" stroke-linecap="round" stroke-linejoin="round" stroke-width=".5" d="M16.3 262.05c.01-.13.07-.26.14-.37.08-.13.19-.24.31-.32.13-.1.28-.18.44-.23s.34-.1.51-.11M129.02 262.05a.84.84 0 0 0-.14-.37c-.08-.13-.19-.24-.31-.32-.13-.1-.28-.18-.44-.23s-.34-.1-.51-.11M128.23 253.65c-.02 1.28-.07 2.56-.17 3.83-.09 1.14-.22 2.28-.42 3.4"/><path stroke="#231815" stroke-linecap="round" stroke-linejoin="round" stroke-width=".75" d="M129.04 239.88a.58.58 0 0 1 .57.57M16.28 239.88a.58.58 0 0 0-.57.57"/><path stroke="#231815" stroke-linecap="round" stroke-linejoin="round" stroke-width=".5" d="M91.72 253.52c.8 0 1.61.16 2.37.44s1.41.68 2.01 1.19c.29.24.55.51.79.79s.44.57.62.88.31.61.42.94.16.63.18.95M59.97 258.71c.04-.66.27-1.31.6-1.89.18-.31.39-.61.62-.88s.51-.55.79-.79c.6-.5 1.28-.91 2.01-1.19s1.56-.44 2.37-.44M128.19 240.44v1.03M17.13 241.47v-1.03"/><path stroke="#231815" stroke-linecap="round" stroke-linejoin="round" stroke-width=".75" d="M15.68 254.24c-.03-2.07-.02-4.13 0-6.2.02-2.18.04-4.36.04-6.54M15.69 269.53l-.02-.12M16.28 261.93c-.2-1.2-.33-2.41-.43-3.62-.1-1.35-.15-2.71-.18-4.07M20.05 299.85c-1.45-10.11-2.91-20.21-4.36-30.32M21.54 292.32c-1.31-7.57-2.63-15.13-3.94-22.7-.44-2.52-.87-5.04-1.31-7.57"/><path stroke="#231815" stroke-linecap="round" stroke-linejoin="round" stroke-width=".5" d="M33.44 308.46c-.51 0-1.02-.02-1.53-.07-1.5-.13-2.99-.43-4.4-.93M26.32 307c-1.02-.45-1.99-1.02-2.87-1.71-.8-.63-1.52-1.36-2.1-2.2"/><path stroke="#231815" stroke-linecap="round" stroke-linejoin="round" stroke-width=".75" d="M34.89 300.81c-1.6-.02-3.21-.24-4.77-.67-1.46-.41-2.87-1-4.15-1.82-.59-.38-1.15-.8-1.67-1.27-.49-.44-.93-.93-1.32-1.46-.37-.5-.68-1.03-.93-1.6s-.41-1.11-.51-1.69"/><path stroke="#231815" stroke-linecap="round" stroke-linejoin="round" stroke-width=".5" d="M111.88 308.47H33.44"/><path stroke="#231815" stroke-linecap="round" stroke-linejoin="round" stroke-width=".75" d="M124.63 301.94c-.06.12-.13.25-.19.37-.2.37-.43.73-.67 1.08"/><path stroke="#231815" stroke-linecap="round" stroke-linejoin="round" stroke-width=".5" d="M124.08 302.92c-.63.96-1.45 1.79-2.37 2.49-1.02.78-2.16 1.38-3.34 1.85M118.37 307.26c-.47.18-.94.34-1.42.48-1.49.43-3.05.67-4.6.71"/><path stroke="#231815" stroke-linecap="round" stroke-linejoin="round" stroke-width=".75" d="M123.77 292.32c-.1.58-.28 1.15-.51 1.68-.25.57-.56 1.1-.93 1.6-.39.53-.84 1.01-1.32 1.46-.52.47-1.08.89-1.67 1.27-1.28.81-2.69 1.41-4.15 1.82-1.55.43-3.16.65-4.77.67M129.63 269.53c-1.45 10.11-2.9 20.21-4.36 30.32M129.02 262.05c-.44 2.52-.87 5.04-1.31 7.57-1.31 7.57-2.62 15.13-3.94 22.7M129.64 254.24c-.02 1.36-.07 2.72-.18 4.07-.09 1.21-.22 2.42-.43 3.62M129.6 241.5c0 2.18.02 4.36.04 6.54.02 2.07.03 4.13 0 6.2M130.04 240.64s.02.07.02.11"/><path stroke="#231815" stroke-linecap="round" stroke-linejoin="round" stroke-width=".5" d="M59.97 288.38c.13 0 .27.02.4.05.12.03.24.08.35.15.1.06.18.13.25.22.06.08.11.17.12.27M98.1 288.38c-.13 0-.27.02-.4.05-.12.03-.24.08-.35.15-.1.06-.18.13-.25.22a.55.55 0 0 0-.12.27M98.12 259.11c-.13 0-.27.01-.4.04-.12.03-.24.07-.35.13-.09.05-.18.12-.25.2-.06.07-.11.16-.12.24M59.96 259.1c.13 0 .27.01.4.05.12.03.24.07.35.13.09.05.18.12.25.2.06.07.11.16.12.25M91.72 293.63h.09M91.81 293.63c.6-.01 1.2-.08 1.78-.24.47-.13.93-.32 1.36-.57.36-.21.69-.47.98-.78.26-.28.49-.61.64-.96M96.82 289.68c.02.25 0 .5-.04.75-.04.22-.11.44-.2.65M61.5 291.08c-.09-.21-.16-.43-.2-.65-.05-.25-.06-.5-.04-.75M66.26 293.63c-.6-.01-1.2-.08-1.78-.24a5.8 5.8 0 0 1-1.36-.57c-.36-.21-.69-.47-.98-.78-.26-.28-.49-.61-.64-.96M66.26 293.63h.09M96.8 260.32c.01.08.02.17.02.26s0 .16-.01.25M91.72 255.81c.32.04.63.11.94.19s.61.18.9.31.55.31.8.5.48.39.71.61c.43.42.81.88 1.13 1.4.29.46.52.96.6 1.5M61.27 260.32c.08-.53.31-1.04.6-1.5q.24-.375.51-.72a7.8 7.8 0 0 1 1.33-1.29c.13-.1.25-.19.39-.27s.27-.17.41-.23.29-.13.44-.18.31-.09.46-.13c.31-.08.62-.15.94-.19M61.26 260.82v-.12c0-.13 0-.25.02-.38M61.08 259.73c.01.11.02.21.04.32.01.07.03.13.05.2 0 .03.02.06.02.1s.02.09.02.13c.02.12.02.24.03.36M127.62 261.01c-.63 3.68-1.27 7.37-1.9 11.05M125.44 273.62l-3.06 17.72M122.38 291.34c-.09.52-.25 1.03-.46 1.51s-.51.98-.83 1.42c-.35.47-.75.9-1.18 1.3-.46.42-.97.79-1.49 1.12-1.14.72-2.41 1.24-3.72 1.59-1.39.37-2.84.56-4.27.56M110.42 298.84H34.89M34.89 298.84c-1.44 0-2.88-.18-4.27-.56a13.6 13.6 0 0 1-3.72-1.59c-.53-.33-1.03-.71-1.49-1.12-.43-.39-.84-.82-1.18-1.3-.33-.44-.61-.92-.84-1.43s-.37-.99-.46-1.51M22.93 291.34c-1.02-5.89-2.03-11.78-3.05-17.67M19.61 272.06c-.64-3.68-1.27-7.37-1.9-11.05M60.11 289.9c-.09-.5-.14-1.01-.14-1.52"/><path stroke="#231815" stroke-linecap="round" stroke-linejoin="round" stroke-width=".5" d="M66.35 293.99c-.77 0-1.54-.1-2.28-.3-.69-.19-1.35-.48-1.95-.88-.53-.36-1.01-.8-1.37-1.32a3.8 3.8 0 0 1-.65-1.58M97.96 289.9c-.05.28-.13.55-.23.81s-.25.53-.42.77c-.36.52-.84.97-1.37 1.32-.6.4-1.26.69-1.95.88-.74.21-1.51.3-2.28.3M98.1 288.38c0 .51-.05 1.02-.14 1.52M17.68 260.89c-.2-1.13-.33-2.26-.42-3.4-.1-1.28-.15-2.56-.17-3.83M17.09 253.65c-.03-1.98-.02-3.95 0-5.93.02-2.09.04-4.17.04-6.26M96.99 259.73c-.01.11-.02.21-.04.32-.01.07-.03.13-.05.2 0 .03-.02.06-.02.1s-.02.09-.02.13c-.02.12-.02.24-.03.36M96.81 260.82c-.13.1-.27.19-.42.28s-.31.17-.46.24M95.93 261.34c-.31.15-.63.27-.96.37s-.69.2-1.04.27c-.73.15-1.47.22-2.21.22M128.19 241.47c0 2.09.02 4.17.04 6.26.02 1.98.03 3.95 0 5.93M61.25 260.82c.13.1.28.19.42.27s.31.17.46.24M62.13 261.34c.31.15.63.27.96.37s.69.2 1.04.27c.73.15 1.47.22 2.21.22"/><path stroke="#231815" stroke-linecap="round" stroke-linejoin="round" stroke-width=".75" d="M15.6 237.59s-.03.02-.04.03c-.04.03-.08.07-.13.1M15.43 237.73s-.1.09-.15.14M15.28 16.53l.07.07.24.21M129.72 16.81s.03-.02.04-.03c.04-.03.08-.07.13-.1M129.89 16.67s.1-.09.15-.14M130.03 237.86l-.07-.07-.24-.21M129.36 16.2c.07-.04.13-.08.2-.13.17-.12.33-.24.48-.39M15.28 15.68s.09.09.14.13c.16.15.35.27.53.39M26.61 308.17l.53.25M14.55 17.17v220.06M18.1 18.36v218.68M128.02 239.88H17.3M129.14 238.74h-1.3M17.48 238.74h-1.3M127.21 237.04V18.36M130.77 237.23V17.17M118.17 308.42l.53-.25M127.79 16.66l1-.23M16.53 16.43l1 .23M16.18 16.33s.09.04.14.05c.07.02.14.04.21.05M128.79 16.43c.07-.01.14-.03.21-.05.05-.01.1-.03.14-.05M126.78 239.88a1.072 1.072 0 0 0 .76-.34c.1-.11.18-.23.23-.37s.08-.29.08-.43M18.54 239.88a1.072 1.072 0 0 1-.76-.34c-.1-.11-.18-.23-.23-.37s-.08-.29-.08-.43M17.53 16.66c.09.02.16.09.22.16.04.05.07.1.1.16l.09.21c.06.17.1.35.13.53.03.21.04.42.04.63"/><path stroke="#231815" stroke-linecap="round" stroke-linejoin="round" stroke-width=".75" d="M18.1 237.04c0 .22-.02.45-.05.67-.03.19-.07.37-.14.55-.03.07-.06.14-.1.21-.03.05-.06.1-.11.15-.06.07-.15.12-.23.12M127.84 238.74c-.09 0-.17-.06-.23-.12-.04-.05-.08-.1-.11-.15-.04-.07-.07-.14-.1-.21-.07-.18-.11-.36-.14-.55-.03-.22-.05-.45-.05-.67M127.21 18.36c0-.21.01-.42.04-.63.03-.18.07-.36.13-.53a1 1 0 0 1 .09-.21c.03-.06.06-.11.1-.16.06-.07.13-.14.22-.16M15.99 235.89V18.5M129.33 235.89V18.5M15.99 235.89c0 .19 0 .38-.02.57 0 .16-.02.33-.04.49 0 .06-.02.13-.03.19 0 .05-.02.1-.03.15 0 .03-.02.07-.04.1 0 .02-.02.04-.04.05M15.8 16.95s.03.03.04.05c.02.03.03.07.04.1l.03.15.03.19c.02.16.03.33.04.49.01.19.02.38.02.57M129.33 18.5c0-.19 0-.38.02-.57 0-.16.02-.33.04-.49 0-.06.02-.13.03-.19 0-.05.02-.1.03-.15 0-.03.02-.07.04-.1 0-.02.02-.04.04-.05M129.52 237.45s-.03-.03-.04-.05c-.02-.03-.03-.07-.04-.1l-.03-.15-.03-.19c-.02-.16-.03-.33-.04-.49-.01-.19-.02-.38-.02-.57"/><circle cx="14.55" cy="17.17" r=".375" fill="#231815"/><circle cx="130.77" cy="17.17" r=".375" fill="#231815"/><path fill="#898989" d="M56.13 188.37c-.15.29-.38.5-.66.65-.51.27-1.18.32-1.74.32h-.24c-.37 0-.75-.05-1.1-.14a3.5 3.5 0 0 1-.54-.19c-.08-.04-.17-.09-.24-.14s-.17-.15-.17-.25v-.79s.06.03.09.04c.58.24 1.28.45 1.91.45h.26c.25 0 .59 0 .84-.06.15-.03.3-.09.4-.22.1-.12.12-.29.12-.44 0-.11 0-.26-.07-.36-.07-.11-.19-.16-.31-.21-.15-.07-.64-.12-.8-.15l-.57-.08c-.42-.06-.9-.16-1.27-.38-.44-.27-.62-.67-.62-1.17 0-.61.19-1.14.75-1.46.47-.27 1.08-.34 1.61-.34h.26c.34 0 .71.04 1.04.12.17.04.86.22.96.42v.82s-.06-.02-.08-.02c-.63-.17-1.22-.28-1.88-.28h-.26c-.22 0-.53 0-.75.05-.13.03-.28.08-.36.2-.07.11-.08.28-.08.41 0 .16.06.27.2.34.11.06.26.09.38.11.43.05.85.11 1.28.16.43.07.92.18 1.27.45.4.31.55.75.55 1.24 0 .31-.05.63-.19.9zM62.18 187.22c0 .48-.07 1.03-.35 1.44-.31.47-.79.66-1.33.66h-1.54c-.55 0-1.02-.2-1.34-.66-.28-.4-.4-.96-.4-1.44v-3.52h1.17v3.51c0 .26.04.58.24.78.17.17.39.19.61.19h.94c.21 0 .48-.04.64-.2.19-.19.19-.53.19-.77v-3.5h1.18v3.52zM65.05 187.41v-.82h1.97c.24 0 .39-.15.48-.35.08-.18.11-.39.11-.58 0-.31-.02-.71-.31-.92-.25-.19-.66-.22-.95-.22h-.28c-.24 0-.49 0-.72.08a.86.86 0 0 0-.55.47c-.18.38-.19.97-.19 1.37v2.83h-1.25v-2.84c0-.75.08-1.7.65-2.29.58-.59 1.52-.68 2.28-.68h.17c.61 0 1.25.14 1.73.55.5.43.69 1.04.69 1.68 0 .55-.16 1.09-.62 1.44-.43.32-1 .41-1.52.41-.46 0-1.18-.04-1.63-.12h-.06zM69.8 189.26v-3.67c0-.51.09-1.08.41-1.51.35-.46.88-.64 1.43-.64.36 0 1.06.06 1.41.11h.06v1.01h-1.12c-.24 0-.66-.02-.82.24-.13.21-.13.62-.13.85v3.59h-1.22zM77.71 184.99a.51.51 0 0 0-.31-.36c-.24-.11-.65-.12-.9-.12h-.28c-.24 0-.49 0-.72.08-.25.08-.44.22-.56.47-.18.37-.2.97-.2 1.37 0 .42.03 1.04.3 1.4.31.44.91.43 1.37.43h.24c.75 0 1.33-.12 2.05-.31.03 0 .06-.02.08-.02v.68c0 .06-.03.12-.06.17a.5.5 0 0 1-.13.12c-.08.06-.18.11-.28.15-.19.08-.41.14-.62.18-.4.08-.83.12-1.24.12h-.15c-.75 0-1.63-.11-2.18-.71-.53-.58-.63-1.47-.63-2.2s.09-1.7.66-2.29c.58-.59 1.53-.68 2.28-.68h.17c.57 0 1.22.09 1.7.44.54.38.72.97.72 1.6 0 .25-.05.5-.19.72-.13.22-.33.38-.56.49-.41.21-.94.27-1.39.27s-1.18-.04-1.63-.12h-.06v-.82h1.97c.15 0 .32-.02.44-.12.12-.11.15-.28.15-.43s0-.33-.05-.47zM87.43 189.26h-1.12v-3.62c0-.27-.04-.59-.23-.81-.2-.23-.51-.28-.79-.28s-.57.06-.76.3c-.17.22-.2.53-.2.79v3.62h-1.15v-3.62c0-.27-.02-.61-.22-.83s-.55-.25-.82-.25-.58.05-.76.29c-.17.22-.19.53-.19.79v3.62h-1.11v-3.62c0-.5.11-1.06.42-1.47.34-.46.85-.62 1.4-.62h.63c.4 0 .93.2 1.22.48.3-.35.8-.48 1.24-.48h.68c.52 0 1.04.23 1.36.65.31.41.4.95.4 1.44zM93.83 187.6c-.11.4-.3.77-.59 1.07-.59.61-1.42.74-2.21.68-.67.05-1.53-.15-2.04-.62-.4-.38-.56-.87-.56-1.41 0-.27.07-.53.22-.75s.37-.38.61-.49c.44-.2.99-.25 1.47-.25.25 0 1.28.16 1.51.24.01 0 .03.01.04.02v.68h-2.07c-.16 0-.3.04-.4.18-.09.12-.11.28-.11.42 0 .21 0 .43.13.61.13.19.36.25.57.26h.13c.44.03 1.46.13 1.83-.28.31-.34.33-1.13.33-1.55 0-.5-.04-1.22-.45-1.61-.63-.58-2.88-.1-3.51.03-.03 0-.05.01-.08.02v-.68c0-.05.04-.11.07-.15q.045-.06.12-.12a1 1 0 0 1 .28-.16c.19-.09.4-.14.6-.18.39-.08.83-.1 1.23-.1.75 0 1.7.07 2.29.64.59.58.7 1.52.7 2.28.04.38-.02.85-.12 1.21zM73.55 216.02c-.02.08-.08.16-.15.2-.72.41-1.44.83-2.16 1.24-.13.07-.28.11-.43.11-.32 0-.61-.17-.76-.45-1.41-2.51-2.81-5.02-4.22-7.53a.9.9 0 0 1-.08-.66c.06-.22.21-.41.41-.53 1.45-.82 2.9-1.64 4.35-2.45.2-.11.44-.14.66-.08s.41.21.52.41c.64 1.15 1.29 2.3 1.93 3.45.04.08.05.16.03.25a.37.37 0 0 1-.15.2.33.33 0 0 1-.45-.13c-.64-1.15-1.29-2.3-1.93-3.45-.03-.05-.07-.09-.13-.1-.06-.02-.12 0-.17.02-1.45.82-2.9 1.64-4.35 2.45-.05.03-.09.08-.1.13-.02.06 0 .11.02.17 1.41 2.51 2.81 5.02 4.22 7.53.06.1.19.14.3.08.72-.41 1.44-.83 2.16-1.24.16-.09.36-.04.45.12.04.08.05.16.03.25z"/><path fill="#898989" d="M76.31 212.92c-.1.15-.31.19-.46.08l-3.5-2.42a.694.694 0 0 0-.97.18.73.73 0 0 0-.11.52c.03.18.14.34.29.45l1.95 1.35c.09.06.14.16.14.26 0 .3.1.7.2.98.1.32.25.62.42.91.35.58.81 1.06 1.35 1.45.07.05.12.13.13.21.01.09 0 .17-.06.24-.06.09-.16.14-.27.14a.33.33 0 0 1-.19-.06c-.61-.43-1.12-.96-1.51-1.6-.37-.61-.65-1.36-.72-2.08l-1.83-1.26c-.29-.2-.5-.52-.56-.87s.01-.72.21-1.01c.42-.61 1.26-.77 1.87-.35l3.5 2.42c.07.05.12.12.14.21s0 .17-.05.24z"/><path fill="#898989" d="M79.38 214.51c-.06.8-.23 1.58-.52 2.32-.05.13-.17.21-.3.21-.04 0-.08 0-.12-.02a.3.3 0 0 1-.18-.17.28.28 0 0 1 0-.25c.49-1.27.65-2.86.34-4.2l-3.83-3.65c-.39.07-.78.14-1.17.22a.32.32 0 0 1-.38-.26.32.32 0 0 1 .05-.25c.05-.07.12-.12.21-.14.45-.08.89-.17 1.34-.25.1-.02.21.01.28.08 1.34 1.28 2.68 2.55 4.02 3.83q.06.06.09.15c.2.69.23 1.67.18 2.37z"/></g><defs><linearGradient id="b" x1="23.32" x2="122" y1="158.82" y2="60.14" gradientUnits="userSpaceOnUse"><stop stop-color="#bfbfbf"/><stop offset=".14" stop-color="#c2c2c2"/><stop offset=".27" stop-color="#cecece"/><stop offset=".4" stop-color="#e0e0e0"/><stop offset=".53" stop-color="#fbfbfb"/><stop offset=".54" stop-color="#e0e0e0"/><stop offset=".55" stop-color="#cdcdcd"/><stop offset=".56" stop-color="#ccc"/><stop offset="1" stop-color="#fff"/></linearGradient><linearGradient id="c" x1="74.29" x2="83.73" y1="289.92" y2="263.99" gradientUnits="userSpaceOnUse"><stop stop-color="#bfbfbf"/><stop offset=".12" stop-color="#c2c2c2"/><stop offset=".23" stop-color="#cecece"/><stop offset=".34" stop-color="#e0e0e0"/><stop offset=".44" stop-color="#fbfbfb"/><stop offset=".45" stop-color="#fff"/><stop offset=".46" stop-color="#d4d4d4"/><stop offset=".47" stop-color="#cdcdcd"/><stop offset=".48" stop-color="#ccc"/><stop offset="1" stop-color="#fff"/></linearGradient><clipPath id="a"><path fill="#fff" d="M0 0h145.32v324.96H0z"/></clipPath></defs></svg>