<svg xmlns="http://www.w3.org/2000/svg" width="128" height="295" fill="none" viewBox="0 0 128 295"><g clip-path="url(#a)"><path fill="#fff" d="M127.74 0H0v294.28h127.74z"/><path stroke="#231815" stroke-linecap="round" stroke-linejoin="round" stroke-width=".75" d="m16.84 22.18 5.34-5.34M106.82 265.56h-38.7M44.03 265.56h-23.1M49.13 270.47l-2.83-3.78M14.55 210.99v-40.11M14.55 161.67V22.34M15.97 210.99v-40.11M15.97 161.67V22.34M17.1 173v-10.62M18.09 211.7v51.02"/><path stroke="#231815" stroke-linecap="round" stroke-linejoin="round" stroke-width=".5" d="M18.52 38.22v11.62M20.64 208.3v-11.63"/><path stroke="#231815" stroke-linecap="round" stroke-linejoin="round" stroke-width=".75" d="M22.34 14.55v1.42M22.34 16.44v-.4M111.48 29.72l1.3-1.29M14.55 210.99h1.42M16.04 210.99h1.34M110.36 210.99h2.83"/><path stroke="#231815" stroke-linecap="round" stroke-linejoin="round" stroke-width=".5" d="M106.53 208.86h-2.41M23.62 208.86h-2.41M24.19 196.67v11.63M31.98 16.53v-.56M39.07 91.79v44.63M21.21 196.11h2.41M104.12 196.11h2.41M91.51 186.48h7.09"/><path stroke="#231815" stroke-linecap="round" stroke-linejoin="round" stroke-width=".75" d="M49.7 278.31v-6.14"/><path stroke="#231815" stroke-linecap="round" stroke-linejoin="round" stroke-width=".5" d="M54.66 15.97v.56M91.51 181.13h7.09M91.51 176.16h7.09"/><path stroke="#231815" stroke-linecap="round" stroke-linejoin="round" stroke-width=".75" d="M62.45 272.17v6.14M15.97 173.71h.42M111.35 173.71h.43"/><path stroke="#231815" stroke-linecap="round" stroke-linejoin="round" stroke-width=".5" d="M91.51 172.13h7.09"/><path stroke="#231815" stroke-linecap="round" stroke-linejoin="round" stroke-width=".75" d="M113.19 170.88h-1.41M15.97 170.88h-1.42"/><path stroke="#231815" stroke-linecap="round" stroke-linejoin="round" stroke-width=".5" d="M91.51 166.86h7.09M91.51 162.28h7.09"/><path stroke="#231815" stroke-linecap="round" stroke-linejoin="round" stroke-width=".75" d="M14.55 161.67h1.84M111.35 161.67h1.84"/><path stroke="#231815" stroke-linecap="round" stroke-linejoin="round" stroke-width=".5" d="M88.67 187.37V161.4M88.67 136.42V91.79"/><path stroke="#231815" stroke-linecap="round" stroke-linejoin="round" stroke-width=".75" d="M90.09 14.55v1.42M90.09 16.04v.4"/><path stroke="#231815" stroke-linecap="round" stroke-linejoin="round" stroke-width=".5" d="M91.51 187.37V161.4M98.6 161.4v25.97M43.32 140.67h41.1"/><path stroke="#231815" stroke-linecap="round" stroke-linejoin="round" stroke-width=".75" d="M101.15 21.63v1.42M101.15 23.12v.07"/><path stroke="#231815" stroke-linecap="round" stroke-linejoin="round" stroke-width=".5" d="M101.43 161.4v25.97M103.56 208.3v-11.63M103.98 23.62v-.5M107.1 196.67v11.63M109.23 49.84V38.22"/><path stroke="#231815" stroke-linecap="round" stroke-linejoin="round" stroke-width=".75" d="M109.65 262.72V211.7"/><path stroke="#231815" stroke-linecap="round" stroke-linejoin="round" stroke-width=".5" d="M110.36 23.12v.5"/><path stroke="#231815" stroke-linecap="round" stroke-linejoin="round" stroke-width=".75" d="M110.64 162.38V173M111.07 32.41v-1.68M111.78 210.99v-40.11M111.78 161.67V32.97M113.19 23.12v4.31M113.19 170.88v40.11M113.19 161.67V32.97M113.19 23.05v-1.42M65.86 266.69l-2.84 3.78"/><path stroke="#231815" stroke-linecap="round" stroke-linejoin="round" stroke-width=".5" d="M84.42 87.54h-41.1M111.78 50.41h-1.99M15.97 50.41h1.98"/><path stroke="#231815" stroke-linecap="round" stroke-linejoin="round" stroke-width=".75" d="m96.76 23.35-6.5-6.51"/><path stroke="#231815" stroke-linecap="round" stroke-linejoin="round" stroke-width=".5" d="M15.97 37.65h1.98M109.79 37.65h1.99"/><path stroke="#231815" stroke-linecap="round" stroke-linejoin="round" stroke-width=".75" d="M113.19 32.97h-1.41M111.63 32.97h.08"/><path stroke="#231815" stroke-linecap="round" stroke-linejoin="round" stroke-width=".5" d="M109.79 24.19h-5.24"/><path stroke="#231815" stroke-linecap="round" stroke-linejoin="round" stroke-width=".75" d="M100.58 23.76h-2.81M113.19 23.05h-12.04M14.55 22.34h1.89M101.15 21.63h12.04"/><path stroke="#231815" stroke-linecap="round" stroke-linejoin="round" stroke-width=".5" d="M54.09 17.1H32.55"/><path stroke="#231815" stroke-linecap="round" stroke-linejoin="round" stroke-width=".75" d="M22.34 15.97h67.75M22.34 14.55h67.75M49.7 272.17c0-.61-.2-1.21-.57-1.7M46.3 266.69a2.86 2.86 0 0 0-2.27-1.13M18.09 262.72c0 1.57 1.27 2.83 2.83 2.83M16.39 173.71c.39 0 .71-.32.71-.71M17.1 162.38c0-.39-.32-.71-.71-.71M18.09 211.7c0-.39-.32-.71-.71-.71"/><path stroke="#231815" stroke-linecap="round" stroke-linejoin="round" stroke-width=".5" d="M24.19 196.67a.57.57 0 0 0-.57-.57M23.62 208.86c.31 0 .57-.25.57-.57M20.64 208.3c0 .31.25.57.57.57M21.21 196.11a.57.57 0 0 0-.57.57M39.07 136.42c0 2.35 1.9 4.25 4.25 4.25M43.32 87.54c-2.35 0-4.25 1.9-4.25 4.25"/><path stroke="#231815" stroke-linecap="round" stroke-linejoin="round" stroke-width=".75" d="M22.18 16.84a.56.56 0 0 0 .17-.4M16.44 22.34c.15 0 .29-.06.4-.17"/><path stroke="#231815" stroke-linecap="round" stroke-linejoin="round" stroke-width=".5" d="M18.52 38.22a.57.57 0 0 0-.57-.57M17.95 50.41c.31 0 .57-.25.57-.57M31.98 16.53c0 .31.25.57.57.57M54.09 17.1c.31 0 .57-.25.57-.57"/><path stroke="#231815" stroke-linecap="round" stroke-linejoin="round" stroke-width=".75" d="M68.12 265.56c-.89 0-1.73.42-2.27 1.13M63.02 270.47c-.37.49-.57 1.09-.57 1.7M106.82 265.56c1.57 0 2.83-1.27 2.83-2.83"/><path stroke="#231815" stroke-linecap="round" stroke-linejoin="round" stroke-width=".5" d="M98.6 187.37c0 .78.63 1.42 1.42 1.42s1.42-.63 1.42-1.42M101.43 161.4c0-.78-.63-1.42-1.42-1.42s-1.42.63-1.42 1.42M91.51 161.4c0-.78-.63-1.42-1.42-1.42s-1.42.63-1.42 1.42M88.67 187.37c0 .78.63 1.42 1.42 1.42s1.42-.63 1.42-1.42"/><path stroke="#231815" stroke-linecap="round" stroke-linejoin="round" stroke-width=".75" d="M110.64 173c0 .39.32.71.71.71M111.35 161.67c-.39 0-.71.32-.71.71M110.36 210.99c-.39 0-.71.32-.71.71"/><path stroke="#231815" stroke-linecap="round" stroke-linejoin="round" stroke-width=".5" d="M107.1 196.67a.57.57 0 0 0-.57-.57M106.53 208.86c.31 0 .57-.25.57-.57M103.56 208.3c0 .31.25.57.57.57M104.12 196.11a.57.57 0 0 0-.57.57M84.42 140.67c2.35 0 4.25-1.9 4.25-4.25M88.67 91.79c0-2.35-1.9-4.25-4.25-4.25"/><path stroke="#231815" stroke-linecap="round" stroke-linejoin="round" stroke-width=".75" d="M96.76 23.35c.27.27.63.42 1 .42M111.48 29.72c-.27.27-.42.63-.42 1M112.78 28.43c.27-.27.42-.63.42-1M90.09 16.44c0 .15.06.29.17.4M100.58 23.76c.31 0 .57-.25.57-.57M111.07 32.41c0 .31.25.57.57.57"/><path stroke="#231815" stroke-linecap="round" stroke-linejoin="round" stroke-width=".5" d="M109.79 37.65a.57.57 0 0 0-.57.57M109.23 49.84c0 .31.25.57.57.57M109.79 24.19c.31 0 .57-.25.57-.57M103.98 23.62c0 .31.25.57.57.57"/><path stroke="#231815" stroke-linecap="round" stroke-linejoin="round" stroke-width=".75" d="M62.45 279.73H49.7M49.7 278.31h12.75M49.7 278.31v1.42"/><path stroke="#231815" stroke-linecap="round" stroke-linejoin="round" stroke-width=".5" d="M60.68 166.91v11.34"/><path stroke="#231815" stroke-linecap="round" stroke-linejoin="round" stroke-width=".75" d="M62.45 278.31v1.42"/><path stroke="#231815" stroke-linecap="round" stroke-linejoin="round" stroke-width=".5" d="M67.06 178.25v-11.34M58.2 59.55h11.34M69.54 53.17H58.2M67.06 166.91c0-1.76-1.43-3.19-3.19-3.19s-3.19 1.43-3.19 3.19M60.68 178.25c0 1.76 1.43 3.19 3.19 3.19s3.19-1.43 3.19-3.19M61.82 155.57c0-1.14.92-2.06 2.06-2.06s2.06.92 2.06 2.06-.92 2.06-2.06 2.06-2.06-.92-2.06-2.06M27.8 195.26c0-1.14.92-2.06 2.06-2.06s2.06.92 2.06 2.06-.92 2.06-2.06 2.06-2.06-.92-2.06-2.06M58.2 53.17c-1.76 0-3.19 1.43-3.19 3.19s1.43 3.19 3.19 3.19M32.05 56.36c0-1.14.92-2.06 2.06-2.06s2.06.92 2.06 2.06-.92 2.06-2.06 2.06-2.06-.92-2.06-2.06M95.83 195.26c0-1.14.92-2.06 2.06-2.06s2.06.92 2.06 2.06-.92 2.06-2.06 2.06-2.06-.92-2.06-2.06M69.54 59.55c1.76 0 3.19-1.43 3.19-3.19s-1.43-3.19-3.19-3.19M91.58 56.36c0-1.14.92-2.06 2.06-2.06s2.06.92 2.06 2.06-.92 2.06-2.06 2.06-2.06-.92-2.06-2.06"/></g><defs><clipPath id="a"><path fill="#fff" d="M0 0h127.74v294.28H0z"/></clipPath></defs></svg>