<svg width="146" height="255" viewBox="0 0 146 255" fill="none" xmlns="http://www.w3.org/2000/svg">
<g clip-path="url(#clip0_337_728)">
<path d="M145.32 0H0V254.42H145.32V0Z" fill="white"/>
<path d="M15.6 16.81C15.52 16.74 15.43 16.68 15.36 16.6C15.34 16.58 15.29 15.35 15.29 15.35C15.29 15.35 15.43 14.37 16.73 14.46H129.04C129.04 14.46 129.49 14.54 129.72 15.03C129.95 15.52 129.86 16.69 129.86 16.69L130.77 16.8V237.35L130.21 237.78L130.04 238.05V239.09C130.04 239.09 129.95 239.94 128.42 239.87H16.3C16.3 239.87 15.3 239.74 15.29 238.82L15.24 237.72L14.47 237.17V17.01L14.74 16.74L15.6 16.8V16.81Z" fill="white"/>
<path d="M73.61 215.49C73.59 215.57 73.53 215.65 73.46 215.69C72.74 216.1 72.02 216.52 71.3 216.93C71.17 217 71.02 217.04 70.87 217.04C70.55 217.04 70.26 216.87 70.11 216.59C68.7 214.08 67.3 211.57 65.89 209.06C65.78 208.86 65.75 208.62 65.81 208.4C65.87 208.18 66.02 207.99 66.22 207.87C67.67 207.05 69.12 206.23 70.57 205.42C70.77 205.31 71.01 205.28 71.23 205.34C71.45 205.4 71.64 205.55 71.75 205.75C72.39 206.9 73.04 208.05 73.68 209.2C73.72 209.28 73.73 209.36 73.71 209.45C73.69 209.53 73.63 209.6 73.56 209.65C73.4 209.74 73.2 209.68 73.11 209.52C72.47 208.37 71.82 207.22 71.18 206.07C71.15 206.02 71.11 205.98 71.05 205.97C70.99 205.95 70.93 205.97 70.88 205.99C69.43 206.81 67.98 207.63 66.53 208.44C66.48 208.47 66.44 208.52 66.43 208.57C66.41 208.63 66.43 208.68 66.45 208.74C67.86 211.25 69.26 213.76 70.67 216.27C70.73 216.37 70.86 216.41 70.97 216.35C71.69 215.94 72.41 215.52 73.13 215.11C73.29 215.02 73.49 215.07 73.58 215.23C73.62 215.31 73.63 215.39 73.61 215.48V215.49Z" fill="#898989"/>
<path d="M76.37 212.39C76.27 212.54 76.06 212.58 75.91 212.47C74.74 211.66 73.58 210.86 72.41 210.05C72.09 209.83 71.66 209.91 71.44 210.23C71.34 210.38 71.3 210.57 71.33 210.75C71.36 210.93 71.47 211.09 71.62 211.2C72.27 211.65 72.92 212.1 73.57 212.55C73.66 212.61 73.71 212.71 73.71 212.81C73.71 213.11 73.81 213.51 73.91 213.79C74.01 214.11 74.16 214.41 74.33 214.7C74.68 215.28 75.14 215.76 75.68 216.15C75.75 216.2 75.8 216.28 75.81 216.36C75.82 216.45 75.81 216.53 75.75 216.6C75.69 216.69 75.59 216.74 75.48 216.74C75.41 216.74 75.35 216.72 75.29 216.68C74.68 216.25 74.17 215.72 73.78 215.08C73.41 214.47 73.13 213.72 73.06 213C72.45 212.58 71.84 212.16 71.23 211.74C70.94 211.54 70.73 211.22 70.67 210.87C70.61 210.52 70.68 210.15 70.88 209.86C71.3 209.25 72.14 209.09 72.75 209.51C73.92 210.32 75.08 211.12 76.25 211.93C76.32 211.98 76.37 212.05 76.39 212.14C76.41 212.23 76.39 212.31 76.34 212.38L76.37 212.39Z" fill="#898989"/>
<path d="M79.44 213.98C79.38 214.78 79.21 215.56 78.92 216.3C78.87 216.43 78.75 216.51 78.62 216.51C78.58 216.51 78.54 216.51 78.5 216.49C78.42 216.46 78.35 216.4 78.32 216.32C78.28 216.24 78.28 216.15 78.32 216.07C78.81 214.8 78.97 213.21 78.66 211.87C77.38 210.65 76.11 209.44 74.83 208.22C74.44 208.29 74.05 208.36 73.66 208.44C73.48 208.47 73.31 208.36 73.28 208.18C73.26 208.09 73.28 208.01 73.33 207.93C73.38 207.86 73.45 207.81 73.54 207.79C73.99 207.71 74.43 207.62 74.88 207.54C74.98 207.52 75.09 207.55 75.16 207.62C76.5 208.9 77.84 210.17 79.18 211.45C79.22 211.49 79.25 211.54 79.27 211.6C79.47 212.29 79.5 213.27 79.45 213.97L79.44 213.98Z" fill="#898989"/>
<path d="M56.08 188.48C55.93 188.77 55.7 188.98 55.42 189.13C54.91 189.4 54.24 189.45 53.68 189.45H53.44C53.07 189.45 52.69 189.4 52.34 189.31C52.16 189.26 51.97 189.2 51.8 189.12C51.72 189.08 51.63 189.03 51.56 188.98C51.49 188.93 51.39 188.83 51.39 188.73V187.94C51.39 187.94 51.45 187.97 51.48 187.98C52.06 188.22 52.76 188.43 53.39 188.43H53.65C53.9 188.43 54.24 188.43 54.49 188.37C54.64 188.34 54.79 188.28 54.89 188.15C54.99 188.03 55.01 187.86 55.01 187.71C55.01 187.6 55.01 187.45 54.94 187.35C54.87 187.24 54.75 187.19 54.63 187.14C54.48 187.07 53.99 187.02 53.83 186.99L53.26 186.91C52.84 186.85 52.36 186.75 51.99 186.53C51.55 186.26 51.37 185.86 51.37 185.36C51.37 184.75 51.56 184.22 52.12 183.9C52.59 183.63 53.2 183.56 53.73 183.56H53.99C54.33 183.56 54.7 183.6 55.03 183.68C55.2 183.72 55.89 183.9 55.99 184.1C55.99 184.1 55.99 184.1 55.99 184.11V184.92C55.99 184.92 55.93 184.9 55.91 184.9C55.28 184.73 54.69 184.62 54.03 184.62H53.77C53.55 184.62 53.24 184.62 53.02 184.67C52.89 184.7 52.74 184.75 52.66 184.87C52.59 184.98 52.58 185.15 52.58 185.28C52.58 185.44 52.64 185.55 52.78 185.62C52.89 185.68 53.04 185.71 53.16 185.73C53.59 185.78 54.01 185.84 54.44 185.89C54.87 185.96 55.36 186.07 55.71 186.34C56.11 186.65 56.26 187.09 56.26 187.58C56.26 187.89 56.21 188.21 56.07 188.48H56.08Z" fill="#898989"/>
<path d="M62.14 187.33C62.14 187.81 62.07 188.36 61.79 188.77C61.48 189.24 61 189.43 60.46 189.43H58.92C58.37 189.43 57.9 189.23 57.58 188.77C57.3 188.37 57.18 187.81 57.18 187.33V183.81H58.35V187.32C58.35 187.58 58.39 187.9 58.59 188.1C58.76 188.27 58.98 188.29 59.2 188.29H60.14C60.35 188.29 60.62 188.25 60.78 188.09C60.97 187.9 60.97 187.56 60.97 187.32C60.97 186.15 60.97 184.98 60.97 183.82H62.15V187.34L62.14 187.33Z" fill="#898989"/>
<path d="M65 187.52V186.7H66.97C67.21 186.7 67.36 186.55 67.45 186.35C67.53 186.17 67.56 185.96 67.56 185.77C67.56 185.46 67.54 185.06 67.25 184.85C67 184.66 66.59 184.63 66.3 184.63H66.02C65.78 184.63 65.53 184.63 65.3 184.71C65.05 184.79 64.86 184.94 64.75 185.18C64.57 185.56 64.56 186.15 64.56 186.55V189.38H63.31V186.54C63.31 185.79 63.39 184.84 63.96 184.25C64.54 183.66 65.48 183.57 66.24 183.57H66.41C67.02 183.57 67.66 183.71 68.14 184.12C68.64 184.55 68.83 185.16 68.83 185.8C68.83 186.35 68.67 186.89 68.21 187.24C67.78 187.56 67.21 187.65 66.69 187.65C66.23 187.65 65.51 187.61 65.06 187.53C65.04 187.53 65.02 187.53 65 187.53V187.52Z" fill="#898989"/>
<path d="M69.76 189.37V185.7C69.76 185.19 69.85 184.62 70.17 184.19C70.52 183.73 71.05 183.55 71.6 183.55C71.96 183.55 72.66 183.61 73.01 183.66C73.03 183.66 73.05 183.66 73.07 183.66V184.67H71.95C71.71 184.67 71.29 184.65 71.13 184.91C71 185.12 71 185.53 71 185.76V189.35H69.78L69.76 189.37Z" fill="#898989"/>
<path d="M77.67 185.1C77.62 184.93 77.53 184.81 77.36 184.74C77.12 184.63 76.71 184.62 76.46 184.62H76.18C75.94 184.62 75.69 184.62 75.46 184.7C75.21 184.78 75.02 184.92 74.9 185.17C74.72 185.54 74.7 186.14 74.7 186.54C74.7 186.96 74.73 187.58 75 187.94C75.31 188.38 75.91 188.37 76.37 188.37H76.61C77.36 188.37 77.94 188.25 78.66 188.06C78.69 188.06 78.72 188.04 78.74 188.04V188.72C78.74 188.78 78.71 188.84 78.68 188.89C78.64 188.94 78.6 188.98 78.55 189.01C78.47 189.07 78.37 189.12 78.27 189.16C78.08 189.24 77.86 189.3 77.65 189.34C77.25 189.42 76.82 189.46 76.41 189.46H76.26C75.51 189.46 74.63 189.35 74.08 188.75C73.55 188.17 73.45 187.28 73.45 186.55C73.45 185.82 73.54 184.85 74.11 184.26C74.69 183.67 75.64 183.58 76.39 183.58H76.56C77.13 183.58 77.78 183.67 78.26 184.02C78.8 184.4 78.98 184.99 78.98 185.62C78.98 185.87 78.93 186.12 78.79 186.34C78.66 186.56 78.46 186.72 78.23 186.83C77.82 187.04 77.29 187.1 76.84 187.1C76.39 187.1 75.66 187.06 75.21 186.98C75.19 186.98 75.17 186.98 75.15 186.98V186.16H77.12C77.27 186.16 77.44 186.14 77.56 186.04C77.68 185.93 77.71 185.76 77.71 185.61C77.71 185.46 77.71 185.28 77.66 185.14L77.67 185.1Z" fill="#898989"/>
<path d="M87.38 189.37H86.26V185.75C86.26 185.48 86.22 185.16 86.03 184.94C85.83 184.71 85.52 184.66 85.24 184.66C84.96 184.66 84.67 184.72 84.48 184.96C84.31 185.18 84.28 185.49 84.28 185.75V189.37H83.13V185.75C83.13 185.48 83.11 185.14 82.91 184.92C82.71 184.7 82.36 184.67 82.09 184.67C81.82 184.67 81.51 184.72 81.33 184.96C81.16 185.18 81.14 185.49 81.14 185.75V189.37H80.03V185.75C80.03 185.25 80.14 184.69 80.45 184.28C80.79 183.82 81.3 183.66 81.85 183.66H82.48C82.88 183.66 83.41 183.86 83.7 184.14C84 183.79 84.5 183.66 84.94 183.66H85.62C86.14 183.66 86.66 183.89 86.98 184.31C87.29 184.72 87.38 185.26 87.38 185.75V189.37Z" fill="#898989"/>
<path d="M93.78 187.71C93.67 188.11 93.48 188.48 93.19 188.78C92.6 189.39 91.77 189.52 90.98 189.46C90.31 189.51 89.45 189.31 88.94 188.84C88.54 188.46 88.38 187.97 88.38 187.43C88.38 187.16 88.45 186.9 88.6 186.68C88.75 186.46 88.97 186.3 89.21 186.19C89.65 185.99 90.2 185.94 90.68 185.94C90.93 185.94 91.96 186.1 92.19 186.18C92.2 186.18 92.22 186.19 92.23 186.2V186.88H90.16C90 186.88 89.86 186.92 89.76 187.06C89.67 187.18 89.65 187.34 89.65 187.48C89.65 187.69 89.65 187.91 89.78 188.09C89.91 188.28 90.14 188.34 90.35 188.35H90.48C90.92 188.38 91.94 188.48 92.31 188.07C92.62 187.73 92.64 186.94 92.64 186.52C92.64 186.02 92.6 185.3 92.19 184.91C91.56 184.33 89.31 184.81 88.68 184.94C88.65 184.94 88.63 184.95 88.6 184.96V184.28C88.6 184.23 88.64 184.17 88.67 184.13C88.7 184.09 88.74 184.05 88.79 184.01C88.87 183.94 88.97 183.89 89.07 183.85C89.26 183.76 89.47 183.71 89.67 183.67C90.06 183.59 90.5 183.57 90.9 183.57C91.65 183.57 92.6 183.64 93.19 184.21C93.78 184.79 93.89 185.73 93.89 186.49C93.93 186.87 93.87 187.34 93.77 187.7L93.78 187.71Z" fill="#898989"/>
<path d="M109.75 47.9H35.57V171.07H109.75V47.9Z" fill="url(#paint0_linear_337_728)"/>
<path d="M129.85 237.7L130.38 237.65" stroke="#231815" stroke-width="0.75" stroke-linecap="round" stroke-linejoin="round"/>
<path d="M128.9 239.88H128.02" stroke="#231815" stroke-width="0.75" stroke-linecap="round" stroke-linejoin="round"/>
<path d="M17.3 239.88H16.42" stroke="#231815" stroke-width="0.75" stroke-linecap="round" stroke-linejoin="round"/>
<path d="M130.03 238.74H129.14" stroke="#231815" stroke-width="0.75" stroke-linecap="round" stroke-linejoin="round"/>
<path d="M16.18 238.74H15.28" stroke="#231815" stroke-width="0.75" stroke-linecap="round" stroke-linejoin="round"/>
<path d="M15.46 237.7L14.94 237.65" stroke="#231815" stroke-width="0.75" stroke-linecap="round" stroke-linejoin="round"/>
<path d="M120.71 234.77H24.61" stroke="#231815" stroke-width="0.75" stroke-linecap="round" stroke-linejoin="round"/>
<path d="M14.94 16.75V16.74" stroke="#231815" stroke-width="0.75" stroke-linecap="round" stroke-linejoin="round"/>
<circle cx="14.55" cy="17.17" r="0.375" fill="#231815"/>
<path d="M15.28 15.68V16.53" stroke="#231815" stroke-width="0.75" stroke-linecap="round" stroke-linejoin="round"/>
<path d="M15.28 237.86V238.74" stroke="#231815" stroke-width="0.75" stroke-linecap="round" stroke-linejoin="round"/>
<path d="M20.36 230.52V23.88" stroke="#231815" stroke-width="0.75" stroke-linecap="round" stroke-linejoin="round"/>
<circle cx="14.55" cy="237.23" r="0.375" fill="#231815"/>
<path d="M35.57 171.06V47.9" stroke="#231815" stroke-width="0.75" stroke-linecap="round" stroke-linejoin="round"/>
<path d="M129.55 237.47L129.52 237.45" stroke="#231815" stroke-width="0.75" stroke-linecap="round" stroke-linejoin="round"/>
<path d="M129.55 237.47L129.52 237.45" stroke="#231815" stroke-width="0.75" stroke-linecap="round" stroke-linejoin="round"/>
<path d="M109.75 171.06H35.57" stroke="#231815" stroke-width="0.75" stroke-linecap="round" stroke-linejoin="round"/>
<path d="M109.75 47.9V171.06" stroke="#231815" stroke-width="0.75" stroke-linecap="round" stroke-linejoin="round"/>
<circle cx="130.77" cy="237.23" r="0.375" fill="#231815"/>
<path d="M124.95 23.88V230.52" stroke="#231815" stroke-width="0.75" stroke-linecap="round" stroke-linejoin="round"/>
<path d="M130.03 238.74V237.86" stroke="#231815" stroke-width="0.75" stroke-linecap="round" stroke-linejoin="round"/>
<path d="M130.03 16.53V15.68" stroke="#231815" stroke-width="0.75" stroke-linecap="round" stroke-linejoin="round"/>
<circle cx="130.77" cy="17.17" r="0.375" fill="#231815"/>
<path d="M130.38 16.74V16.75" stroke="#231815" stroke-width="0.75" stroke-linecap="round" stroke-linejoin="round"/>
<path d="M15.76 16.93L15.8 16.95" stroke="#231815" stroke-width="0.75" stroke-linecap="round" stroke-linejoin="round"/>
<path d="M15.77 16.93L15.8 16.95" stroke="#231815" stroke-width="0.75" stroke-linecap="round" stroke-linejoin="round"/>
<path d="M35.57 47.9H109.75" stroke="#231815" stroke-width="0.75" stroke-linecap="round" stroke-linejoin="round"/>
<path d="M15.46 16.7L14.94 16.74" stroke="#231815" stroke-width="0.75" stroke-linecap="round" stroke-linejoin="round"/>
<path d="M24.61 19.63H120.71" stroke="#231815" stroke-width="0.75" stroke-linecap="round" stroke-linejoin="round"/>
<path d="M128.9 14.55H16.41" stroke="#231815" stroke-width="0.75" stroke-linecap="round" stroke-linejoin="round"/>
<path d="M129.85 16.7L130.38 16.74" stroke="#231815" stroke-width="0.75" stroke-linecap="round" stroke-linejoin="round"/>
<path d="M20.36 230.52C20.36 232.87 22.26 234.77 24.61 234.77" stroke="#231815" stroke-width="0.75" stroke-linecap="round" stroke-linejoin="round"/>
<path d="M15.8 237.45C15.73 237.5 15.67 237.54 15.6 237.59" stroke="#231815" stroke-width="0.75" stroke-linecap="round" stroke-linejoin="round"/>
<path d="M15.28 238.74C15.28 239.37 15.79 239.87 16.42 239.87" stroke="#231815" stroke-width="0.75" stroke-linecap="round" stroke-linejoin="round"/>
<path d="M14.55 237.23C14.55 237.45 14.72 237.63 14.94 237.65" stroke="#231815" stroke-width="0.75" stroke-linecap="round" stroke-linejoin="round"/>
<path d="M15.95 16.19C16.02 16.24 16.1 16.28 16.18 16.32" stroke="#231815" stroke-width="0.75" stroke-linecap="round" stroke-linejoin="round"/>
<path d="M24.61 19.63C22.26 19.63 20.36 21.53 20.36 23.88" stroke="#231815" stroke-width="0.75" stroke-linecap="round" stroke-linejoin="round"/>
<path d="M15.6 16.81C15.65 16.85 15.71 16.89 15.77 16.93" stroke="#231815" stroke-width="0.75" stroke-linecap="round" stroke-linejoin="round"/>
<path d="M69.47 31.39C69.47 29.63 70.9 28.2 72.66 28.2C74.42 28.2 75.85 29.63 75.85 31.39C75.85 33.15 74.42 34.58 72.66 34.58C70.9 34.58 69.47 33.15 69.47 31.39Z" stroke="#231815" stroke-width="0.75" stroke-linecap="round" stroke-linejoin="round"/>
<path d="M16.41 14.55C15.79 14.55 15.28 15.06 15.28 15.68" stroke="#231815" stroke-width="0.75" stroke-linecap="round" stroke-linejoin="round"/>
<path d="M14.94 16.74C14.72 16.76 14.55 16.94 14.55 17.16" stroke="#231815" stroke-width="0.75" stroke-linecap="round" stroke-linejoin="round"/>
<path d="M120.71 234.77C123.06 234.77 124.96 232.87 124.96 230.52" stroke="#231815" stroke-width="0.75" stroke-linecap="round" stroke-linejoin="round"/>
<path d="M129.72 237.59C129.67 237.55 129.61 237.51 129.55 237.47" stroke="#231815" stroke-width="0.75" stroke-linecap="round" stroke-linejoin="round"/>
<path d="M128.9 239.88C129.53 239.88 130.04 239.37 130.04 238.75" stroke="#231815" stroke-width="0.75" stroke-linecap="round" stroke-linejoin="round"/>
<path d="M130.38 237.65C130.6 237.63 130.77 237.45 130.77 237.23" stroke="#231815" stroke-width="0.75" stroke-linecap="round" stroke-linejoin="round"/>
<path d="M129.14 16.33C129.21 16.29 129.29 16.25 129.36 16.2" stroke="#231815" stroke-width="0.75" stroke-linecap="round" stroke-linejoin="round"/>
<path d="M124.95 23.88C124.95 21.53 123.05 19.63 120.7 19.63" stroke="#231815" stroke-width="0.75" stroke-linecap="round" stroke-linejoin="round"/>
<path d="M129.52 16.95C129.59 16.9 129.65 16.86 129.72 16.81" stroke="#231815" stroke-width="0.75" stroke-linecap="round" stroke-linejoin="round"/>
<path d="M130.03 15.68C130.03 15.06 129.52 14.55 128.9 14.55" stroke="#231815" stroke-width="0.75" stroke-linecap="round" stroke-linejoin="round"/>
<path d="M130.77 17.17C130.77 16.95 130.6 16.77 130.38 16.75" stroke="#231815" stroke-width="0.75" stroke-linecap="round" stroke-linejoin="round"/>
<path d="M15.6 237.59C15.54 237.63 15.48 237.68 15.43 237.73" stroke="#231815" stroke-width="0.75" stroke-linecap="round" stroke-linejoin="round"/>
<path d="M15.43 237.73C15.43 237.73 15.33 237.82 15.28 237.87" stroke="#231815" stroke-width="0.75" stroke-linecap="round" stroke-linejoin="round"/>
<path d="M129.72 16.81C129.78 16.77 129.84 16.72 129.89 16.67" stroke="#231815" stroke-width="0.75" stroke-linecap="round" stroke-linejoin="round"/>
<path d="M129.89 16.67C129.89 16.67 129.99 16.58 130.04 16.53" stroke="#231815" stroke-width="0.75" stroke-linecap="round" stroke-linejoin="round"/>
<path d="M130.03 237.86C130.03 237.86 129.98 237.81 129.96 237.79C129.88 237.72 129.8 237.65 129.72 237.58" stroke="#231815" stroke-width="0.75" stroke-linecap="round" stroke-linejoin="round"/>
<path d="M129.36 16.2C129.43 16.16 129.49 16.12 129.56 16.07C129.73 15.95 129.89 15.83 130.04 15.68" stroke="#231815" stroke-width="0.75" stroke-linecap="round" stroke-linejoin="round"/>
<path d="M15.28 15.68C15.28 15.68 15.37 15.77 15.42 15.81C15.58 15.96 15.77 16.08 15.95 16.2" stroke="#231815" stroke-width="0.75" stroke-linecap="round" stroke-linejoin="round"/>
<path d="M128.02 239.88H17.3" stroke="#231815" stroke-width="0.75" stroke-linecap="round" stroke-linejoin="round"/>
<path d="M129.14 238.74H127.84" stroke="#231815" stroke-width="0.75" stroke-linecap="round" stroke-linejoin="round"/>
<path d="M17.48 238.74H16.18" stroke="#231815" stroke-width="0.75" stroke-linecap="round" stroke-linejoin="round"/>
<path d="M14.55 17.17V237.23" stroke="#231815" stroke-width="0.75" stroke-linecap="round" stroke-linejoin="round"/>
<path d="M18.1 18.36V237.04" stroke="#231815" stroke-width="0.75" stroke-linecap="round" stroke-linejoin="round"/>
<path d="M127.21 237.04V18.36" stroke="#231815" stroke-width="0.75" stroke-linecap="round" stroke-linejoin="round"/>
<path d="M130.77 237.23V17.17" stroke="#231815" stroke-width="0.75" stroke-linecap="round" stroke-linejoin="round"/>
<path d="M127.79 16.66L128.79 16.43" stroke="#231815" stroke-width="0.75" stroke-linecap="round" stroke-linejoin="round"/>
<path d="M16.53 16.43L17.53 16.66" stroke="#231815" stroke-width="0.75" stroke-linecap="round" stroke-linejoin="round"/>
<path d="M16.18 16.33C16.18 16.33 16.22 16.35 16.24 16.36C16.33 16.39 16.43 16.41 16.53 16.43" stroke="#231815" stroke-width="0.75" stroke-linecap="round" stroke-linejoin="round"/>
<path d="M128.79 16.43C128.79 16.43 128.87 16.41 128.9 16.41C128.98 16.39 129.06 16.37 129.14 16.33" stroke="#231815" stroke-width="0.75" stroke-linecap="round" stroke-linejoin="round"/>
<path d="M126.78 239.88C126.92 239.88 127.06 239.85 127.19 239.79C127.32 239.73 127.44 239.65 127.54 239.54C127.64 239.43 127.72 239.31 127.77 239.17C127.82 239.03 127.85 238.88 127.85 238.74" stroke="#231815" stroke-width="0.75" stroke-linecap="round" stroke-linejoin="round"/>
<path d="M18.54 239.88C18.4 239.88 18.26 239.85 18.13 239.79C18 239.73 17.88 239.65 17.78 239.54C17.68 239.43 17.6 239.31 17.55 239.17C17.5 239.03 17.47 238.88 17.47 238.74" stroke="#231815" stroke-width="0.75" stroke-linecap="round" stroke-linejoin="round"/>
<path d="M17.53 16.66C17.62 16.68 17.69 16.75 17.75 16.82C17.84 16.93 17.89 17.06 17.93 17.19C17.99 17.36 18.03 17.54 18.06 17.72C18.09 17.93 18.1 18.14 18.1 18.35" stroke="#231815" stroke-width="0.75" stroke-linecap="round" stroke-linejoin="round"/>
<path d="M18.1 237.04C18.1 237.26 18.08 237.49 18.05 237.71C18.02 237.9 17.98 238.08 17.91 238.26C17.88 238.33 17.85 238.4 17.81 238.47C17.78 238.52 17.75 238.57 17.7 238.62C17.64 238.69 17.55 238.74 17.47 238.74" stroke="#231815" stroke-width="0.75" stroke-linecap="round" stroke-linejoin="round"/>
<path d="M127.84 238.74C127.75 238.74 127.67 238.68 127.61 238.62C127.57 238.57 127.53 238.52 127.5 238.47C127.46 238.4 127.43 238.33 127.4 238.26C127.33 238.08 127.29 237.9 127.26 237.71C127.23 237.49 127.21 237.26 127.21 237.04" stroke="#231815" stroke-width="0.75" stroke-linecap="round" stroke-linejoin="round"/>
<path d="M127.21 18.36C127.21 18.15 127.22 17.94 127.25 17.73C127.28 17.55 127.32 17.37 127.38 17.2C127.42 17.07 127.48 16.95 127.56 16.83C127.62 16.76 127.69 16.69 127.78 16.67" stroke="#231815" stroke-width="0.75" stroke-linecap="round" stroke-linejoin="round"/>
<path d="M15.99 235.89V18.5" stroke="#231815" stroke-width="0.75" stroke-linecap="round" stroke-linejoin="round"/>
<path d="M129.33 235.89V18.5" stroke="#231815" stroke-width="0.75" stroke-linecap="round" stroke-linejoin="round"/>
<path d="M15.99 235.89C15.99 236.08 15.99 236.27 15.97 236.46C15.97 236.62 15.95 236.79 15.93 236.95C15.93 237.01 15.91 237.08 15.9 237.14C15.9 237.19 15.88 237.24 15.87 237.29C15.87 237.32 15.85 237.36 15.83 237.39C15.83 237.41 15.81 237.43 15.79 237.44" stroke="#231815" stroke-width="0.75" stroke-linecap="round" stroke-linejoin="round"/>
<path d="M15.8 16.95C15.8 16.95 15.83 16.98 15.84 17C15.86 17.03 15.87 17.07 15.88 17.1C15.89 17.15 15.9 17.2 15.91 17.25C15.92 17.31 15.93 17.38 15.94 17.44C15.96 17.6 15.97 17.77 15.98 17.93C15.99 18.12 16 18.31 16 18.5" stroke="#231815" stroke-width="0.75" stroke-linecap="round" stroke-linejoin="round"/>
<path d="M129.33 18.5C129.33 18.31 129.33 18.12 129.35 17.93C129.35 17.77 129.37 17.6 129.39 17.44C129.39 17.38 129.41 17.31 129.42 17.25C129.42 17.2 129.44 17.15 129.45 17.1C129.45 17.07 129.47 17.03 129.49 17C129.49 16.98 129.51 16.96 129.53 16.95" stroke="#231815" stroke-width="0.75" stroke-linecap="round" stroke-linejoin="round"/>
<path d="M129.52 237.45C129.52 237.45 129.49 237.42 129.48 237.4C129.46 237.37 129.45 237.33 129.44 237.3C129.43 237.25 129.42 237.2 129.41 237.15C129.4 237.09 129.39 237.02 129.38 236.96C129.36 236.8 129.35 236.63 129.34 236.47C129.33 236.28 129.32 236.09 129.32 235.9" stroke="#231815" stroke-width="0.75" stroke-linecap="round" stroke-linejoin="round"/>
</g>
<defs>
<linearGradient id="paint0_linear_337_728" x1="23.32" y1="158.82" x2="122" y2="60.14" gradientUnits="userSpaceOnUse">
<stop stop-color="#BFBFBF"/>
<stop offset="0.14" stop-color="#C2C2C2"/>
<stop offset="0.27" stop-color="#CECECE"/>
<stop offset="0.4" stop-color="#E0E0E0"/>
<stop offset="0.53" stop-color="#FBFBFB"/>
<stop offset="0.54" stop-color="#E0E0E0"/>
<stop offset="0.55" stop-color="#CDCDCD"/>
<stop offset="0.56" stop-color="#CCCCCC"/>
<stop offset="1" stop-color="white"/>
</linearGradient>
<clipPath id="clip0_337_728">
<rect width="145.32" height="254.42" fill="white"/>
</clipPath>
</defs>
</svg>
