<svg xmlns="http://www.w3.org/2000/svg" width="145" height="325" fill="none" viewBox="0 0 145 325"><g clip-path="url(#a)"><path fill="#fff" d="M144.81 0H0v324.36h144.81z"/><path stroke="#231815" stroke-miterlimit="10" stroke-width=".53" d="M125.04 295.85v7.12M125.04 302.97h-7.4M124.99 295.85c-.28.44-1.12 1.61-2.96 2.4-1.8.78-3.5.75-4.15.71M117.81 299c.84 1.15 1.05 2.48.54 3.32-.11.18-.32.44-.71.65"/><path stroke="#231815" stroke-miterlimit="10" stroke-width=".53" d="M125.02 295.89c-.38 1.03-1.24 2.81-3.21 4.53-1.48 1.29-3.04 2.08-4.15 2.55"/><path fill="#231815" d="M104.83 298.45v-2.69h1.02c.18 0 .31 0 .41.03a.71.71 0 0 1 .55.39c.05.11.08.23.08.37 0 .23-.07.42-.22.58s-.41.24-.79.24h-.69v1.09h-.36zm.36-1.41h.7c.23 0 .39-.04.49-.13q.15-.135.15-.36c0-.11-.03-.21-.09-.29a.44.44 0 0 0-.22-.16c-.06-.02-.17-.02-.33-.02h-.69v.96zM107.35 298.45v-2.69h1.95v.32h-1.59v.82h1.49v.32h-1.49v.92h1.65v.32h-2.01zM109.86 298.45v-2.69h1.95v.32h-1.59v.82h1.49v.32h-1.49v.92h1.65v.32h-2.01zM112.34 298.45v-2.69h.36v2.37h1.33v.32h-1.69M104.84 302.97v-2.69h.36v1.11h1.4v-1.11h.36v2.69h-.36v-1.27h-1.4v1.27zM107.56 302.97v-2.69h1.95v.32h-1.59v.82h1.49v.32h-1.49v.92h1.65v.32h-2.01zM110.06 302.97v-2.69h1.19c.24 0 .42.02.55.07.12.05.22.13.3.26.07.12.11.26.11.41 0 .19-.06.35-.19.48-.12.13-.31.21-.57.25.09.04.17.09.21.13.1.1.2.21.3.36l.47.73h-.45l-.36-.56c-.1-.16-.19-.29-.26-.37a.8.8 0 0 0-.18-.18.6.6 0 0 0-.16-.07c-.04 0-.11-.01-.2-.01h-.41v1.2h-.36zm.36-1.51h.77c.16 0 .29-.02.38-.05s.16-.09.21-.16a.42.42 0 0 0 .07-.24c0-.13-.05-.23-.14-.31s-.24-.12-.44-.12h-.85v.89zM112.78 302.97v-2.69h1.95v.32h-1.59v.82h1.49v.32h-1.49v.92h1.65v.32h-2.01z"/><path stroke="#231815" stroke-linecap="round" stroke-linejoin="round" stroke-width=".75" d="m24.99 29.75 5.33-5.34M114.96 273.13H76.27M52.17 273.13h-23.1M57.28 278.04l-2.84-3.78M22.69 218.56v-40.11M22.69 169.24V29.92M24.11 218.56v-40.11M24.11 169.24V29.92M25.25 180.58v-10.63M26.24 219.27v51.02"/><path stroke="#231815" stroke-linecap="round" stroke-linejoin="round" stroke-width=".5" d="M26.66 45.79v11.62M28.79 215.87v-11.62"/><path stroke="#231815" stroke-linecap="round" stroke-linejoin="round" stroke-width=".75" d="M30.49 22.12v1.42M30.49 24.01v-.4M119.63 37.3l1.3-1.3M22.69 218.56h1.42M24.18 218.56h1.35M118.51 218.56h2.83"/><path stroke="#231815" stroke-linecap="round" stroke-linejoin="round" stroke-width=".5" d="M114.68 216.44h-2.41M31.77 216.44h-2.41M32.33 204.25v11.62M40.13 24.11v-.57M47.21 99.37v44.62M29.36 203.68h2.41M112.27 203.68h2.41M99.66 194.06h7.08"/><path stroke="#231815" stroke-linecap="round" stroke-linejoin="round" stroke-width=".75" d="M57.84 285.89v-6.15"/><path stroke="#231815" stroke-linecap="round" stroke-linejoin="round" stroke-width=".5" d="M62.8 23.54v.57M99.66 188.7h7.08M99.66 183.74h7.08"/><path stroke="#231815" stroke-linecap="round" stroke-linejoin="round" stroke-width=".75" d="M70.6 279.74v6.15M24.11 181.29h.43M119.5 181.29h.42"/><path stroke="#231815" stroke-linecap="round" stroke-linejoin="round" stroke-width=".5" d="M99.66 179.71h7.08"/><path stroke="#231815" stroke-linecap="round" stroke-linejoin="round" stroke-width=".75" d="M121.34 178.45h-1.42M24.11 178.45h-1.42"/><path stroke="#231815" stroke-linecap="round" stroke-linejoin="round" stroke-width=".5" d="M99.66 174.44h7.08M99.66 169.86h7.08"/><path stroke="#231815" stroke-linecap="round" stroke-linejoin="round" stroke-width=".75" d="M22.69 169.24h1.85M119.5 169.24h1.84"/><path stroke="#231815" stroke-linecap="round" stroke-linejoin="round" stroke-width=".5" d="M96.82 194.95v-25.98M96.82 143.99V99.37"/><path stroke="#231815" stroke-linecap="round" stroke-linejoin="round" stroke-width=".75" d="M98.24 22.12v1.42M98.24 23.61v.4"/><path stroke="#231815" stroke-linecap="round" stroke-linejoin="round" stroke-width=".5" d="M99.66 194.95v-25.98M106.74 168.97v25.98M51.47 148.24h41.1"/><path stroke="#231815" stroke-linecap="round" stroke-linejoin="round" stroke-width=".75" d="M109.29 29.21v1.42M109.29 30.7v.07"/><path stroke="#231815" stroke-linecap="round" stroke-linejoin="round" stroke-width=".5" d="M109.58 168.97v25.98M111.7 215.87v-11.62M112.13 31.19v-.49M115.25 204.25v11.62M117.37 57.41V45.79"/><path stroke="#231815" stroke-linecap="round" stroke-linejoin="round" stroke-width=".75" d="M117.8 270.29v-51.02"/><path stroke="#231815" stroke-linecap="round" stroke-linejoin="round" stroke-width=".5" d="M118.51 30.7v.49"/><path stroke="#231815" stroke-linecap="round" stroke-linejoin="round" stroke-width=".75" d="M118.79 169.95v10.63M119.21 39.98V38.3M119.92 218.56v-40.11M119.92 169.24V40.55M121.34 30.7V35M121.34 178.45v40.11M121.34 169.24V40.55M121.34 30.63v-1.42M74 274.26l-2.83 3.78"/><path stroke="#231815" stroke-linecap="round" stroke-linejoin="round" stroke-width=".5" d="M92.57 95.11h-41.1M119.92 57.98h-1.98M24.11 57.98h1.99"/><path stroke="#231815" stroke-linecap="round" stroke-linejoin="round" stroke-width=".75" d="m104.91 30.92-6.51-6.51"/><path stroke="#231815" stroke-linecap="round" stroke-linejoin="round" stroke-width=".5" d="M24.11 45.22h1.99M117.94 45.22h1.98"/><path stroke="#231815" stroke-linecap="round" stroke-linejoin="round" stroke-width=".75" d="M121.34 40.55h-1.42M119.78 40.55h.07"/><path stroke="#231815" stroke-linecap="round" stroke-linejoin="round" stroke-width=".5" d="M117.94 31.76h-5.25"/><path stroke="#231815" stroke-linecap="round" stroke-linejoin="round" stroke-width=".75" d="M108.73 31.33h-2.82M121.34 30.63h-12.05M22.69 29.92h1.9M109.29 29.21h12.05"/><path stroke="#231815" stroke-linecap="round" stroke-linejoin="round" stroke-width=".5" d="M62.24 24.67H40.69"/><path stroke="#231815" stroke-linecap="round" stroke-linejoin="round" stroke-width=".75" d="M30.49 23.54h67.75M30.49 22.12h67.75M57.84 279.74c0-.61-.2-1.21-.57-1.7M54.44 274.26a2.86 2.86 0 0 0-2.27-1.13M26.24 270.29c0 1.57 1.27 2.83 2.83 2.83M24.54 181.29c.39 0 .71-.32.71-.71M25.25 169.95c0-.39-.32-.71-.71-.71M26.24 219.27c0-.39-.32-.71-.71-.71"/><path stroke="#231815" stroke-linecap="round" stroke-linejoin="round" stroke-width=".5" d="M32.33 204.25a.57.57 0 0 0-.57-.57M31.77 216.44c.31 0 .57-.25.57-.57M28.79 215.87c0 .31.25.57.57.57M29.36 203.68a.57.57 0 0 0-.57.57M47.21 143.99c0 2.35 1.9 4.25 4.25 4.25M51.47 95.11c-2.35 0-4.25 1.9-4.25 4.25"/><path stroke="#231815" stroke-linecap="round" stroke-linejoin="round" stroke-width=".75" d="M30.32 24.41a.56.56 0 0 0 .17-.4M24.59 29.92c.15 0 .29-.06.4-.17"/><path stroke="#231815" stroke-linecap="round" stroke-linejoin="round" stroke-width=".5" d="M26.66 45.79a.57.57 0 0 0-.57-.57M26.1 57.98c.31 0 .57-.25.57-.57M40.13 24.11c0 .31.25.57.57.57M62.24 24.67c.31 0 .57-.25.57-.57"/><path stroke="#231815" stroke-linecap="round" stroke-linejoin="round" stroke-width=".75" d="M76.27 273.13c-.89 0-1.73.42-2.27 1.13M71.17 278.04c-.37.49-.57 1.09-.57 1.7M114.96 273.13c1.57 0 2.83-1.27 2.83-2.83"/><path stroke="#231815" stroke-linecap="round" stroke-linejoin="round" stroke-width=".5" d="M106.74 194.95c0 .78.63 1.42 1.42 1.42s1.42-.63 1.42-1.42M109.58 168.97c0-.78-.63-1.42-1.42-1.42s-1.42.63-1.42 1.42M99.66 168.97c0-.78-.63-1.42-1.42-1.42s-1.42.63-1.42 1.42M96.82 194.95c0 .78.63 1.42 1.42 1.42s1.42-.63 1.42-1.42"/><path stroke="#231815" stroke-linecap="round" stroke-linejoin="round" stroke-width=".75" d="M118.79 180.58c0 .39.32.71.71.71M119.5 169.24c-.39 0-.71.32-.71.71M118.51 218.56c-.39 0-.71.32-.71.71"/><path stroke="#231815" stroke-linecap="round" stroke-linejoin="round" stroke-width=".5" d="M115.25 204.25a.57.57 0 0 0-.57-.57M114.68 216.44c.31 0 .57-.25.57-.57M111.7 215.87c0 .31.25.57.57.57M112.27 203.68a.57.57 0 0 0-.57.57M92.57 148.24c2.35 0 4.25-1.9 4.25-4.25M96.82 99.37c0-2.35-1.9-4.25-4.25-4.25"/><path stroke="#231815" stroke-linecap="round" stroke-linejoin="round" stroke-width=".75" d="M104.91 30.92c.27.27.63.42 1 .42M119.63 37.3c-.27.27-.42.63-.42 1M120.93 36c.27-.27.42-.63.42-1M98.24 24.01c0 .15.06.29.17.4M108.73 31.33c.31 0 .57-.25.57-.57M119.21 39.98c0 .31.25.57.57.57"/><path stroke="#231815" stroke-linecap="round" stroke-linejoin="round" stroke-width=".5" d="M117.94 45.22a.57.57 0 0 0-.57.57M117.37 57.41c0 .31.25.57.57.57M117.94 31.76c.31 0 .57-.25.57-.57M112.13 31.19c0 .31.25.57.57.57"/><path stroke="#231815" stroke-linecap="round" stroke-linejoin="round" stroke-width=".75" d="M70.6 287.3H57.84M57.84 285.89H70.6M57.84 285.89v1.41"/><path stroke="#231815" stroke-linecap="round" stroke-linejoin="round" stroke-width=".5" d="M68.83 174.48v11.34"/><path stroke="#231815" stroke-linecap="round" stroke-linejoin="round" stroke-width=".75" d="M70.6 285.89v1.41"/><path stroke="#231815" stroke-linecap="round" stroke-linejoin="round" stroke-width=".5" d="M75.21 185.82v-11.34M66.35 67.12h11.34M77.69 60.74H66.35M75.21 174.48c0-1.76-1.43-3.19-3.19-3.19s-3.19 1.43-3.19 3.19M68.83 185.82c0 1.76 1.43 3.19 3.19 3.19s3.19-1.43 3.19-3.19M69.96 163.15c0-1.14.92-2.06 2.06-2.06s2.06.92 2.06 2.06-.92 2.06-2.06 2.06-2.06-.92-2.06-2.06M35.95 202.83c0-1.14.92-2.06 2.06-2.06s2.06.92 2.06 2.06-.92 2.06-2.06 2.06-2.06-.92-2.06-2.06M66.35 60.74c-1.76 0-3.19 1.43-3.19 3.19s1.43 3.19 3.19 3.19M40.2 63.93c0-1.14.92-2.06 2.06-2.06s2.06.92 2.06 2.06-.92 2.06-2.06 2.06-2.06-.92-2.06-2.06M103.98 202.83c0-1.14.92-2.06 2.06-2.06s2.06.92 2.06 2.06-.92 2.06-2.06 2.06-2.06-.92-2.06-2.06M77.69 67.12c1.76 0 3.19-1.43 3.19-3.19s-1.43-3.19-3.19-3.19M99.73 63.93c0-1.14.92-2.06 2.06-2.06s2.06.92 2.06 2.06-.92 2.06-2.06 2.06-2.06-.92-2.06-2.06"/><path fill="#231815" d="M85.33 298.45h-.37l-.75-1.22-.76 1.22h-.34l.92-1.45-.86-1.32h.36l.69 1.1.69-1.1h.34l-.86 1.31.93 1.46zM87.29 297.71q0 .36-.27.57t-.72.21c-.33 0-.58-.04-.76-.13v-.31c.11.05.24.09.37.11.13.03.27.04.4.04.22 0 .38-.04.49-.12a.4.4 0 0 0 .16-.34c0-.1-.02-.17-.06-.24a.54.54 0 0 0-.19-.17c-.09-.05-.23-.11-.41-.18-.26-.09-.44-.2-.55-.33a.73.73 0 0 1-.17-.49q0-.315.24-.51c.16-.13.37-.19.64-.19s.53.05.76.15l-.1.28c-.23-.1-.45-.14-.67-.14-.17 0-.3.04-.4.11s-.14.18-.14.31c0 .1.02.17.05.24.04.06.1.12.18.17s.21.11.39.17q.435.15.6.33c.11.12.16.27.16.46M89.48 298.45h-1.82v-.27l.73-.73c.22-.23.37-.39.44-.48s.12-.19.16-.28a.7.7 0 0 0 .05-.29c0-.15-.04-.27-.13-.35a.54.54 0 0 0-.37-.13.9.9 0 0 0-.33.06c-.1.04-.22.11-.34.21l-.17-.21c.26-.21.53-.32.83-.32.26 0 .46.07.61.2s.22.31.22.54c0 .18-.05.35-.15.52s-.28.39-.55.65l-.61.59v.02h1.43v.29zM89.85 297.56v-.29h.93v.29zM93.73 297.06c0 .44-.11.79-.34 1.05-.22.25-.54.38-.94.38s-.72-.12-.95-.37c-.22-.25-.33-.6-.33-1.06s.11-.8.33-1.05.54-.37.95-.37.71.13.93.38.34.6.34 1.05zm-2.21 0c0 .38.08.66.24.85s.39.29.7.29.54-.1.7-.29.24-.48.24-.86-.08-.66-.23-.85c-.16-.19-.39-.29-.69-.29s-.54.1-.7.29-.24.48-.24.85zM96.09 298.45l-.35-.88h-1.11l-.34.88h-.33l1.1-2.78h.27l1.09 2.78zm-.44-1.17-.32-.86c-.04-.11-.08-.24-.13-.4-.03.12-.07.25-.12.4l-.33.86zM98.56 296.49c0 .28-.1.5-.29.65s-.47.23-.82.23h-.33v1.09h-.32v-2.77h.72c.69 0 1.04.27 1.04.81zm-1.43.59h.29c.29 0 .49-.05.62-.14s.19-.24.19-.44c0-.18-.06-.32-.18-.41s-.31-.13-.56-.13h-.36v1.13zM99.14 295.68h.78c.37 0 .63.06.8.17.16.11.25.28.25.52 0 .16-.05.3-.14.41s-.23.18-.4.21v.02q.63.105.63.66c0 .25-.08.44-.25.58s-.4.21-.7.21h-.97v-2.78m.33 1.19h.53c.23 0 .39-.04.49-.11q.15-.105.15-.36c0-.16-.06-.27-.17-.34s-.29-.1-.53-.1h-.47zm0 .27v1.04h.58c.22 0 .39-.04.51-.13.11-.09.17-.22.17-.41 0-.17-.06-.3-.17-.38s-.29-.12-.53-.12h-.56M85.33 303.11h-.37l-.75-1.22-.76 1.22h-.34l.92-1.45-.86-1.32h.36l.69 1.1.69-1.1h.34l-.86 1.31.93 1.46zM87.29 302.38q0 .36-.27.57t-.72.21c-.33 0-.58-.04-.76-.13v-.31c.11.05.24.09.37.11.13.03.27.04.4.04.22 0 .38-.04.49-.12a.4.4 0 0 0 .16-.34c0-.1-.02-.17-.06-.24a.54.54 0 0 0-.19-.17c-.09-.05-.23-.11-.41-.18-.26-.09-.44-.2-.55-.33a.73.73 0 0 1-.17-.49q0-.315.24-.51c.16-.13.37-.19.64-.19s.53.05.76.15l-.1.28c-.23-.1-.45-.14-.67-.14-.17 0-.3.04-.4.11s-.14.18-.14.31c0 .1.02.17.05.24.04.06.1.12.18.17s.21.11.39.17q.435.15.6.33c.11.12.16.27.16.46M89.48 303.11h-1.82v-.27l.73-.73c.22-.23.37-.39.44-.48s.12-.19.16-.28a.7.7 0 0 0 .05-.29c0-.15-.04-.27-.13-.35a.54.54 0 0 0-.37-.13.9.9 0 0 0-.33.06c-.1.04-.22.11-.34.21l-.17-.21c.26-.21.53-.32.83-.32.26 0 .46.07.61.2s.22.31.22.54c0 .18-.05.35-.15.52s-.28.39-.55.65l-.61.59v.02h1.43v.29zM89.85 302.22v-.29h.93v.29zM93.73 301.72c0 .44-.11.79-.34 1.05-.22.25-.54.38-.94.38s-.72-.12-.95-.37c-.22-.25-.33-.6-.33-1.06s.11-.8.33-1.05.54-.37.95-.37.71.13.93.38.34.6.34 1.05zm-2.21 0c0 .38.08.66.24.85s.39.29.7.29.54-.1.7-.29.24-.48.24-.86-.08-.66-.23-.85c-.16-.19-.39-.29-.69-.29s-.54.1-.7.29-.24.48-.24.85zM96.56 301.7c0 .46-.12.81-.37 1.05s-.61.36-1.07.36h-.77v-2.77h.85c.43 0 .77.12 1 .36s.36.57.36 1m-.34.01c0-.36-.09-.63-.27-.82q-.27-.27-.81-.27h-.47v2.21h.39c.38 0 .67-.09.87-.28.19-.19.29-.47.29-.84M98.94 301.15c0 .28-.1.5-.29.65s-.47.23-.82.23h-.33v1.09h-.32v-2.77h.72c.69 0 1.04.27 1.04.81zm-1.44.6h.29c.29 0 .49-.05.62-.14s.19-.24.19-.44c0-.18-.06-.32-.18-.41s-.31-.13-.56-.13h-.36v1.13zM99.52 300.34h.78c.37 0 .63.06.8.17.16.11.25.28.25.52 0 .16-.05.3-.14.41s-.23.18-.4.21v.02q.63.105.63.66c0 .25-.08.44-.25.58s-.4.21-.7.21h-.97v-2.78m.32 1.19h.53c.23 0 .39-.04.49-.11q.15-.105.15-.36c0-.16-.06-.27-.17-.34s-.29-.1-.53-.1h-.47zm0 .27v1.04h.58c.22 0 .39-.04.51-.13.11-.09.17-.22.17-.41 0-.17-.06-.3-.17-.38s-.29-.12-.53-.12h-.56"/><path stroke="#231815" stroke-dasharray="2 2.5 2 2.5 2 2.5" stroke-linecap="round" stroke-linejoin="round" stroke-width=".5" d="M13.07 17.26V307.1M15.91 309.94h111.97M130.71 307.1V17.26M127.88 14.42H15.91M13.07 307.1c0 1.57 1.27 2.83 2.83 2.83M127.88 309.94c1.57 0 2.83-1.27 2.83-2.83M130.71 17.26c0-1.57-1.27-2.83-2.83-2.83M15.91 14.42c-1.57 0-2.83 1.27-2.83 2.83"/><circle cx="13.07" cy="17.26" r=".25" fill="#231815"/><circle cx="130.71" cy="17.26" r=".25" fill="#231815"/><circle cx="127.88" cy="14.42" r=".25" fill="#231815"/><circle cx="127.88" cy="309.94" r=".25" fill="#231815"/></g><defs><clipPath id="a"><path fill="#fff" d="M0 0h144.81v324.36H0z"/></clipPath></defs></svg>