<svg width="200" height="166" viewBox="0 0 200 166" fill="none" xmlns="http://www.w3.org/2000/svg">
<g clip-path="url(#clip0_81_479)">
<path d="M200 0H0V166H200V0Z" fill="white"/>
<path d="M19.6959 120.049V112.806" stroke="#231815" stroke-width="0.2" stroke-linecap="round" stroke-linejoin="round"/>
<path d="M185.026 152.629H178.822" stroke="#231815" stroke-width="0.2" stroke-linecap="round" stroke-linejoin="round"/>
<path d="M186.63 151.544H183.36" stroke="#231815" stroke-width="0.2" stroke-linecap="round" stroke-linejoin="round"/>
<path d="M180.487 151.544H179.234" stroke="#231815" stroke-width="0.2" stroke-linecap="round" stroke-linejoin="round"/>
<path d="M177.202 151.529H28.1152" stroke="#231815" stroke-width="0.2" stroke-linecap="round" stroke-linejoin="round"/>
<path d="M168.905 150.52H28.1152" stroke="#231815" stroke-width="0.2" stroke-linecap="round" stroke-linejoin="round"/>
<path d="M149.133 148.885H135.457" stroke="#231815" stroke-width="0.2" stroke-linecap="round" stroke-linejoin="round"/>
<path d="M33.7535 148.885H62.4647" stroke="#231815" stroke-width="0.2" stroke-linecap="round" stroke-linejoin="round"/>
<path d="M73.7566 148.885H124.165" stroke="#231815" stroke-width="0.2" stroke-linecap="round" stroke-linejoin="round"/>
<path d="M177.416 148.824H150.523" stroke="#231815" stroke-width="0.2" stroke-linecap="round" stroke-linejoin="round"/>
<path d="M179.937 148.106H183.91" stroke="#231815" stroke-width="0.2" stroke-linecap="round" stroke-linejoin="round"/>
<path d="M135.457 147.739H146.612" stroke="#231815" stroke-width="0.2" stroke-linecap="round" stroke-linejoin="round"/>
<path d="M135.457 146.287H145.099" stroke="#231815" stroke-width="0.2" stroke-linecap="round" stroke-linejoin="round"/>
<path d="M82.7565 141.764H116.602" stroke="#231815" stroke-width="0.2" stroke-linecap="round" stroke-linejoin="round"/>
<path d="M177.187 150.535L170.158 150.52" stroke="#231815" stroke-width="0.2" stroke-linecap="round" stroke-linejoin="round"/>
<path d="M43.3646 94.0407L43.3494 90.5871" stroke="#231815" stroke-width="0.2" stroke-linecap="round" stroke-linejoin="round"/>
<path d="M22.431 145.844V120.951" stroke="#231815" stroke-width="0.2" stroke-linecap="round" stroke-linejoin="round"/>
<path d="M22.431 111.904V100.581" stroke="#231815" stroke-width="0.2" stroke-linecap="round" stroke-linejoin="round"/>
<path d="M22.431 73.3805V41.7178" stroke="#231815" stroke-width="0.2" stroke-linecap="round" stroke-linejoin="round"/>
<path d="M22.431 120.951V111.904" stroke="#231815" stroke-width="0.2" stroke-linecap="round" stroke-linejoin="round"/>
<path d="M23.4854 145.89V100.627" stroke="#231815" stroke-width="0.2" stroke-linecap="round" stroke-linejoin="round"/>
<path d="M23.4854 73.4263V66.5956" stroke="#231815" stroke-width="0.2" stroke-linecap="round" stroke-linejoin="round"/>
<path d="M23.4854 48.5026V41.7636" stroke="#231815" stroke-width="0.2" stroke-linecap="round" stroke-linejoin="round"/>
<path d="M24.5855 66.5956V48.5026" stroke="#231815" stroke-width="0.2" stroke-linecap="round" stroke-linejoin="round"/>
<path d="M25.0745 25.0765V28.1175" stroke="#231815" stroke-width="0.2" stroke-linecap="round" stroke-linejoin="round"/>
<path d="M25.0745 41.7178V73.3805" stroke="#231815" stroke-width="0.2" stroke-linecap="round" stroke-linejoin="round"/>
<path d="M25.0745 100.581V140.19" stroke="#231815" stroke-width="0.2" stroke-linecap="round" stroke-linejoin="round"/>
<path d="M26.9387 136.553V28.362" stroke="#231815" stroke-width="0.2" stroke-linecap="round" stroke-linejoin="round"/>
<path d="M28.5736 134.918V29.9818" stroke="#231815" stroke-width="0.2" stroke-linecap="round" stroke-linejoin="round"/>
<path d="M30.0099 31.4335V133.482" stroke="#231815" stroke-width="0.2" stroke-linecap="round" stroke-linejoin="round"/>
<path d="M32.1797 32.1975V116.611" stroke="#231815" stroke-width="0.2" stroke-linecap="round" stroke-linejoin="round"/>
<path d="M33.7535 145.844V148.885" stroke="#231815" stroke-width="0.2" stroke-linecap="round" stroke-linejoin="round"/>
<path d="M33.7535 114.502V34.3064" stroke="#231815" stroke-width="0.2" stroke-linecap="round" stroke-linejoin="round"/>
<path d="M41.8214 94.0407V90.3274" stroke="#231815" stroke-width="0.2" stroke-linecap="round" stroke-linejoin="round"/>
<path d="M25.0745 140.19H28.1152" stroke="#231815" stroke-width="0.2" stroke-linecap="round" stroke-linejoin="round"/>
<path d="M114.921 140.083H84.4526" stroke="#231815" stroke-width="0.2" stroke-linecap="round" stroke-linejoin="round"/>
<path d="M114.157 139.777H85.2013" stroke="#231815" stroke-width="0.2" stroke-linecap="round" stroke-linejoin="round"/>
<path d="M177.599 139.594H150.523" stroke="#231815" stroke-width="0.2" stroke-linecap="round" stroke-linejoin="round"/>
<path d="M177.63 138.142H150.523" stroke="#231815" stroke-width="0.2" stroke-linecap="round" stroke-linejoin="round"/>
<path d="M136.771 137.959H116.602" stroke="#231815" stroke-width="0.2" stroke-linecap="round" stroke-linejoin="round"/>
<path d="M82.7565 137.959H28.3903" stroke="#231815" stroke-width="0.2" stroke-linecap="round" stroke-linejoin="round"/>
<path d="M135.213 136.339H116.602" stroke="#231815" stroke-width="0.2" stroke-linecap="round" stroke-linejoin="round"/>
<path d="M82.7565 136.339H29.9488" stroke="#231815" stroke-width="0.2" stroke-linecap="round" stroke-linejoin="round"/>
<path d="M31.4615 134.887H82.7565" stroke="#231815" stroke-width="0.2" stroke-linecap="round" stroke-linejoin="round"/>
<path d="M116.602 134.887H133.7" stroke="#231815" stroke-width="0.2" stroke-linecap="round" stroke-linejoin="round"/>
<path d="M177.89 128.729H150.523" stroke="#231815" stroke-width="0.2" stroke-linecap="round" stroke-linejoin="round"/>
<path d="M177.936 127.293H150.523" stroke="#231815" stroke-width="0.2" stroke-linecap="round" stroke-linejoin="round"/>
<path d="M85.2013 124.42H114.157" stroke="#231815" stroke-width="0.2" stroke-linecap="round" stroke-linejoin="round"/>
<path d="M85.2013 123.946H114.157" stroke="#231815" stroke-width="0.2" stroke-linecap="round" stroke-linejoin="round"/>
<path d="M61.4103 123.488H81.855" stroke="#231815" stroke-width="0.2" stroke-linecap="round" stroke-linejoin="round"/>
<path d="M117.503 123.488H118.237" stroke="#231815" stroke-width="0.2" stroke-linecap="round" stroke-linejoin="round"/>
<path d="M84.4526 123.304H114.921" stroke="#231815" stroke-width="0.2" stroke-linecap="round" stroke-linejoin="round"/>
<path d="M116.113 121.914H63.519" stroke="#231815" stroke-width="0.2" stroke-linecap="round" stroke-linejoin="round"/>
<path d="M22.4311 120.951H20.6127" stroke="#231815" stroke-width="0.2" stroke-linecap="round" stroke-linejoin="round"/>
<path d="M146.551 119.148H138.956" stroke="#231815" stroke-width="0.2" stroke-linecap="round" stroke-linejoin="round"/>
<path d="M138.956 120.599H145.175" stroke="#231815" stroke-width="0.2" stroke-linecap="round" stroke-linejoin="round"/>
<path d="M52.6702 94.0407V90.5871" stroke="#231815" stroke-width="0.2" stroke-linecap="round" stroke-linejoin="round"/>
<path d="M61.991 90.3274V94.0407" stroke="#231815" stroke-width="0.2" stroke-linecap="round" stroke-linejoin="round"/>
<path d="M61.4103 117.513V123.488" stroke="#231815" stroke-width="0.2" stroke-linecap="round" stroke-linejoin="round"/>
<path d="M62.4647 148.885V145.844" stroke="#231815" stroke-width="0.2" stroke-linecap="round" stroke-linejoin="round"/>
<path d="M62.9842 116.856V121.379" stroke="#231815" stroke-width="0.2" stroke-linecap="round" stroke-linejoin="round"/>
<path d="M51.1422 90.5871V94.0407" stroke="#231815" stroke-width="0.2" stroke-linecap="round" stroke-linejoin="round"/>
<path d="M60.463 90.5871V94.0407" stroke="#231815" stroke-width="0.2" stroke-linecap="round" stroke-linejoin="round"/>
<path d="M170.876 116.443L177.34 116.412" stroke="#231815" stroke-width="0.2" stroke-linecap="round" stroke-linejoin="round"/>
<path d="M179.937 118.781H183.91" stroke="#231815" stroke-width="0.2" stroke-linecap="round" stroke-linejoin="round"/>
<path d="M150.523 118.063H178.272" stroke="#231815" stroke-width="0.2" stroke-linecap="round" stroke-linejoin="round"/>
<path d="M32.1797 116.611H60.5088" stroke="#231815" stroke-width="0.2" stroke-linecap="round" stroke-linejoin="round"/>
<path d="M119.138 116.611H132.982" stroke="#231815" stroke-width="0.2" stroke-linecap="round" stroke-linejoin="round"/>
<path d="M151.792 116.458H168.111" stroke="#231815" stroke-width="0.2" stroke-linecap="round" stroke-linejoin="round"/>
<path d="M151.792 115.358H176.347" stroke="#231815" stroke-width="0.2" stroke-linecap="round" stroke-linejoin="round"/>
<path d="M179.586 115.343H186.63" stroke="#231815" stroke-width="0.2" stroke-linecap="round" stroke-linejoin="round"/>
<path d="M130.858 115.037H118.466" stroke="#231815" stroke-width="0.2" stroke-linecap="round" stroke-linejoin="round"/>
<path d="M61.1658 115.037H34.3036" stroke="#231815" stroke-width="0.2" stroke-linecap="round" stroke-linejoin="round"/>
<path d="M178.822 114.258H185.026" stroke="#231815" stroke-width="0.2" stroke-linecap="round" stroke-linejoin="round"/>
<path d="M20.6127 111.904H22.4311" stroke="#231815" stroke-width="0.2" stroke-linecap="round" stroke-linejoin="round"/>
<path d="M73.7566 145.844V148.885" stroke="#231815" stroke-width="0.2" stroke-linecap="round" stroke-linejoin="round"/>
<path d="M82.7565 141.764V124.389" stroke="#231815" stroke-width="0.2" stroke-linecap="round" stroke-linejoin="round"/>
<path d="M84.4526 140.083V123.304" stroke="#231815" stroke-width="0.2" stroke-linecap="round" stroke-linejoin="round"/>
<path d="M85.2013 139.777V123.946" stroke="#231815" stroke-width="0.2" stroke-linecap="round" stroke-linejoin="round"/>
<path d="M41.8214 94.0407H43.3646" stroke="#231815" stroke-width="0.2" stroke-linecap="round" stroke-linejoin="round"/>
<path d="M51.1422 94.0407H52.6702" stroke="#231815" stroke-width="0.2" stroke-linecap="round" stroke-linejoin="round"/>
<path d="M60.463 94.0407H61.991" stroke="#231815" stroke-width="0.2" stroke-linecap="round" stroke-linejoin="round"/>
<path d="M43.3494 90.5871H51.1422" stroke="#231815" stroke-width="0.2" stroke-linecap="round" stroke-linejoin="round"/>
<path d="M52.6702 90.5871H60.463" stroke="#231815" stroke-width="0.2" stroke-linecap="round" stroke-linejoin="round"/>
<path d="M60.7227 89.059H43.0896" stroke="#231815" stroke-width="0.2" stroke-linecap="round" stroke-linejoin="round"/>
<path d="M178.226 152.4L177.202 151.529" stroke="#231815" stroke-width="0.2" stroke-linecap="round" stroke-linejoin="round"/>
<path d="M22.5074 66.5956H24.5855" stroke="#231815" stroke-width="0.2" stroke-linecap="round" stroke-linejoin="round"/>
<path d="M138.941 120.599L138.223 119.866" stroke="#231815" stroke-width="0.2" stroke-linecap="round" stroke-linejoin="round"/>
<path d="M114.157 139.777V123.946" stroke="#231815" stroke-width="0.2" stroke-linecap="round" stroke-linejoin="round"/>
<path d="M114.921 123.304V140.083" stroke="#231815" stroke-width="0.2" stroke-linecap="round" stroke-linejoin="round"/>
<path d="M116.602 141.764V124.389" stroke="#231815" stroke-width="0.2" stroke-linecap="round" stroke-linejoin="round"/>
<path d="M116.663 121.379V116.856" stroke="#231815" stroke-width="0.2" stroke-linecap="round" stroke-linejoin="round"/>
<path d="M118.237 123.488V117.513" stroke="#231815" stroke-width="0.2" stroke-linecap="round" stroke-linejoin="round"/>
<path d="M124.165 145.844V148.885" stroke="#231815" stroke-width="0.2" stroke-linecap="round" stroke-linejoin="round"/>
<path d="M131.408 34.3064V114.502" stroke="#231815" stroke-width="0.2" stroke-linecap="round" stroke-linejoin="round"/>
<path d="M132.982 116.611V32.1975" stroke="#231815" stroke-width="0.2" stroke-linecap="round" stroke-linejoin="round"/>
<path d="M24.5855 48.5026H22.5074" stroke="#231815" stroke-width="0.2" stroke-linecap="round" stroke-linejoin="round"/>
<path d="M34.3036 33.7562H130.858" stroke="#231815" stroke-width="0.2" stroke-linecap="round" stroke-linejoin="round"/>
<path d="M132.982 32.1975H32.1797" stroke="#231815" stroke-width="0.2" stroke-linecap="round" stroke-linejoin="round"/>
<path d="M133.776 30.0123H31.4004" stroke="#231815" stroke-width="0.2" stroke-linecap="round" stroke-linejoin="round"/>
<path d="M185.622 114.472L186.63 115.343" stroke="#231815" stroke-width="0.2" stroke-linecap="round" stroke-linejoin="round"/>
<path d="M135.152 133.482V31.4335" stroke="#231815" stroke-width="0.2" stroke-linecap="round" stroke-linejoin="round"/>
<path d="M135.457 148.885V145.844" stroke="#231815" stroke-width="0.2" stroke-linecap="round" stroke-linejoin="round"/>
<path d="M136.603 29.9818V134.918" stroke="#231815" stroke-width="0.2" stroke-linecap="round" stroke-linejoin="round"/>
<path d="M138.223 136.553V119.866" stroke="#231815" stroke-width="0.2" stroke-linecap="round" stroke-linejoin="round"/>
<path d="M138.223 119.866V28.3467" stroke="#231815" stroke-width="0.2" stroke-linecap="round" stroke-linejoin="round"/>
<path d="M140.087 106.617V100.581" stroke="#231815" stroke-width="0.2" stroke-linecap="round" stroke-linejoin="round"/>
<path d="M140.087 73.3805V41.7178" stroke="#231815" stroke-width="0.2" stroke-linecap="round" stroke-linejoin="round"/>
<path d="M140.087 28.1175V25.0765" stroke="#231815" stroke-width="0.2" stroke-linecap="round" stroke-linejoin="round"/>
<path d="M141.691 41.7636V73.4263" stroke="#231815" stroke-width="0.2" stroke-linecap="round" stroke-linejoin="round"/>
<path d="M141.691 100.627V106.342" stroke="#231815" stroke-width="0.2" stroke-linecap="round" stroke-linejoin="round"/>
<path d="M142.746 41.7178V73.3805" stroke="#231815" stroke-width="0.2" stroke-linecap="round" stroke-linejoin="round"/>
<path d="M142.746 100.581V106.296" stroke="#231815" stroke-width="0.2" stroke-linecap="round" stroke-linejoin="round"/>
<path d="M146.551 144.881V122.005" stroke="#231815" stroke-width="0.2" stroke-linecap="round" stroke-linejoin="round"/>
<path d="M148.002 146.333V120.554" stroke="#231815" stroke-width="0.2" stroke-linecap="round" stroke-linejoin="round"/>
<path d="M149.133 118.017V148.885" stroke="#231815" stroke-width="0.2" stroke-linecap="round" stroke-linejoin="round"/>
<path d="M150.523 118.063V127.293" stroke="#231815" stroke-width="0.2" stroke-linecap="round" stroke-linejoin="round"/>
<path d="M150.523 128.729V138.142" stroke="#231815" stroke-width="0.2" stroke-linecap="round" stroke-linejoin="round"/>
<path d="M150.523 139.594V148.824" stroke="#231815" stroke-width="0.2" stroke-linecap="round" stroke-linejoin="round"/>
<path d="M138.223 119.866L138.941 119.148" stroke="#231815" stroke-width="0.2" stroke-linecap="round" stroke-linejoin="round"/>
<path d="M30.0252 28.5759H135.152" stroke="#231815" stroke-width="0.2" stroke-linecap="round" stroke-linejoin="round"/>
<path d="M28.3903 26.9408H136.771" stroke="#231815" stroke-width="0.2" stroke-linecap="round" stroke-linejoin="round"/>
<path d="M140.087 25.0765H96.1876" stroke="#231815" stroke-width="0.2" stroke-linecap="round" stroke-linejoin="round"/>
<path d="M68.9739 25.0765H25.0745" stroke="#231815" stroke-width="0.2" stroke-linecap="round" stroke-linejoin="round"/>
<path d="M19.0695 23.5331H68.974" stroke="#231815" stroke-width="0.2" stroke-linecap="round" stroke-linejoin="round"/>
<path d="M96.1876 23.5331H146.092" stroke="#231815" stroke-width="0.2" stroke-linecap="round" stroke-linejoin="round"/>
<path d="M120.07 22.4328H112.216" stroke="#231815" stroke-width="0.2" stroke-linecap="round" stroke-linejoin="round"/>
<path d="M146.092 22.4328H121.262" stroke="#231815" stroke-width="0.2" stroke-linecap="round" stroke-linejoin="round"/>
<path d="M111.04 22.4328H96.1876" stroke="#231815" stroke-width="0.2" stroke-linecap="round" stroke-linejoin="round"/>
<path d="M19.0695 22.4328H68.974" stroke="#231815" stroke-width="0.2" stroke-linecap="round" stroke-linejoin="round"/>
<path d="M178.226 114.472L177.218 115.343" stroke="#231815" stroke-width="0.2" stroke-linecap="round" stroke-linejoin="round"/>
<path d="M179.937 148.106V118.781" stroke="#231815" stroke-width="0.2" stroke-linecap="round" stroke-linejoin="round"/>
<path d="M183.91 148.106V118.781" stroke="#231815" stroke-width="0.2" stroke-linecap="round" stroke-linejoin="round"/>
<path d="M185.622 152.4L186.63 151.544" stroke="#231815" stroke-width="0.2" stroke-linecap="round" stroke-linejoin="round"/>
<path d="M28.8486 140.236C28.6041 140.205 28.3597 140.19 28.1152 140.19" stroke="#231815" stroke-width="0.2" stroke-linecap="round" stroke-linejoin="round"/>
<path d="M33.7535 145.844C33.7535 145.6 33.7383 145.355 33.7077 145.111" stroke="#231815" stroke-width="0.2" stroke-linecap="round" stroke-linejoin="round"/>
<path d="M73.7566 145.844C73.7566 145.661 73.7566 145.462 73.726 145.279" stroke="#231815" stroke-width="0.2" stroke-linecap="round" stroke-linejoin="round"/>
<path d="M62.4952 145.279C62.4799 145.462 62.4647 145.661 62.4647 145.844" stroke="#231815" stroke-width="0.2" stroke-linecap="round" stroke-linejoin="round"/>
<path d="M68.103 147.647C69.0988 147.647 69.906 146.84 69.906 145.844C69.906 144.848 69.0988 144.041 68.103 144.041C67.1072 144.041 66.2999 144.848 66.2999 145.844C66.2999 146.84 67.1072 147.647 68.103 147.647Z" stroke="#231815" stroke-width="0.2" stroke-linecap="round" stroke-linejoin="round"/>
<path d="M28.1152 147.647C29.111 147.647 29.9182 146.84 29.9182 145.844C29.9182 144.848 29.111 144.041 28.1152 144.041C27.1194 144.041 26.3121 144.848 26.3121 145.844C26.3121 146.84 27.1194 147.647 28.1152 147.647Z" stroke="#231815" stroke-width="0.2" stroke-linecap="round" stroke-linejoin="round"/>
<path d="M111.04 22.4328C111.437 22.4328 111.819 22.4328 112.216 22.4328" stroke="#231815" stroke-width="0.2" stroke-linecap="round" stroke-linejoin="round"/>
<path d="M22.4311 100.581C22.4311 96.9288 20.246 93.6434 16.8691 92.2222" stroke="#231815" stroke-width="0.2" stroke-linecap="round" stroke-linejoin="round"/>
<path d="M22.4311 41.7178C22.4311 38.0655 20.246 34.7801 16.8691 33.3589" stroke="#231815" stroke-width="0.2" stroke-linecap="round" stroke-linejoin="round"/>
<path d="M68.9739 22.4328C72.6259 22.4328 75.9111 20.2476 77.3321 16.8705" stroke="#231815" stroke-width="0.2" stroke-linecap="round" stroke-linejoin="round"/>
<path d="M87.8295 16.8705C89.2352 20.2323 92.5357 22.4328 96.1876 22.4328" stroke="#231815" stroke-width="0.2" stroke-linecap="round" stroke-linejoin="round"/>
<path d="M16.8691 81.724C20.2307 80.3182 22.4311 77.0174 22.4311 73.3652" stroke="#231815" stroke-width="0.2" stroke-linecap="round" stroke-linejoin="round"/>
<path d="M19.0694 22.4328C15.9217 22.4328 13.3853 24.9848 13.3853 28.1175C13.3853 30.4096 14.7605 32.4726 16.8691 33.3589" stroke="#231815" stroke-width="0.2" stroke-linecap="round" stroke-linejoin="round"/>
<path d="M87.8295 16.8705C86.6223 13.967 83.276 12.607 80.3881 13.8142C79.0129 14.3949 77.9127 15.4799 77.3321 16.8705" stroke="#231815" stroke-width="0.2" stroke-linecap="round" stroke-linejoin="round"/>
<path d="M16.8691 81.724C13.9659 82.9312 12.606 86.2778 13.8131 89.166C14.3938 90.5413 15.4786 91.6415 16.8691 92.2222" stroke="#231815" stroke-width="0.2" stroke-linecap="round" stroke-linejoin="round"/>
<path d="M19.0695 88.7839C20.0653 88.7839 20.8725 87.9766 20.8725 86.9808C20.8725 85.9849 20.0653 85.1776 19.0695 85.1776C18.0737 85.1776 17.2664 85.9849 17.2664 86.9808C17.2664 87.9766 18.0737 88.7839 19.0695 88.7839Z" stroke="#231815" stroke-width="0.2" stroke-linecap="round" stroke-linejoin="round"/>
<path d="M19.0695 29.9206C20.0653 29.9206 20.8725 29.1133 20.8725 28.1175C20.8725 27.1216 20.0653 26.3143 19.0695 26.3143C18.0737 26.3143 17.2664 27.1216 17.2664 28.1175C17.2664 29.1133 18.0737 29.9206 19.0695 29.9206Z" stroke="#231815" stroke-width="0.2" stroke-linecap="round" stroke-linejoin="round"/>
<path d="M82.5884 20.8742C83.5842 20.8742 84.3915 20.0668 84.3915 19.071C84.3915 18.0751 83.5842 17.2678 82.5884 17.2678C81.5926 17.2678 80.7854 18.0751 80.7854 19.071C80.7854 20.0668 81.5926 20.8742 82.5884 20.8742Z" stroke="#231815" stroke-width="0.2" stroke-linecap="round" stroke-linejoin="round"/>
<path d="M61.4103 117.513C61.4103 117.008 60.9977 116.611 60.5088 116.611" stroke="#231815" stroke-width="0.2" stroke-linecap="round" stroke-linejoin="round"/>
<path d="M82.7565 124.389C82.7565 123.885 82.3439 123.488 81.855 123.488" stroke="#231815" stroke-width="0.2" stroke-linecap="round" stroke-linejoin="round"/>
<path d="M19.6959 120.049C19.6959 120.554 20.1085 120.951 20.5974 120.951" stroke="#231815" stroke-width="0.2" stroke-linecap="round" stroke-linejoin="round"/>
<path d="M20.6127 111.904C20.1085 111.904 19.7112 112.317 19.7112 112.806" stroke="#231815" stroke-width="0.2" stroke-linecap="round" stroke-linejoin="round"/>
<path d="M135.457 145.844C135.457 145.661 135.457 145.462 135.427 145.279" stroke="#231815" stroke-width="0.2" stroke-linecap="round" stroke-linejoin="round"/>
<path d="M124.196 145.279C124.181 145.462 124.165 145.661 124.165 145.844" stroke="#231815" stroke-width="0.2" stroke-linecap="round" stroke-linejoin="round"/>
<path d="M129.804 147.647C130.799 147.647 131.607 146.84 131.607 145.844C131.607 144.848 130.799 144.041 129.804 144.041C128.808 144.041 128.001 144.848 128.001 145.844C128.001 146.84 128.808 147.647 129.804 147.647Z" stroke="#231815" stroke-width="0.2" stroke-linecap="round" stroke-linejoin="round"/>
<path d="M178.226 152.4C178.394 152.537 178.593 152.614 178.822 152.614" stroke="#231815" stroke-width="0.2" stroke-linecap="round" stroke-linejoin="round"/>
<path d="M185.026 152.629C185.239 152.629 185.453 152.553 185.622 152.415" stroke="#231815" stroke-width="0.2" stroke-linecap="round" stroke-linejoin="round"/>
<path d="M120.07 22.4328C120.468 22.4328 120.85 22.4328 121.247 22.4328" stroke="#231815" stroke-width="0.2" stroke-linecap="round" stroke-linejoin="round"/>
<path d="M148.506 117.849C148.72 117.91 148.934 117.971 149.148 118.017" stroke="#231815" stroke-width="0.2" stroke-linecap="round" stroke-linejoin="round"/>
<path d="M140.087 106.617C140.087 106.831 140.087 107.06 140.102 107.274" stroke="#231815" stroke-width="0.2" stroke-linecap="round" stroke-linejoin="round"/>
<path d="M147.269 117.406C147.666 117.574 148.079 117.711 148.506 117.834" stroke="#231815" stroke-width="0.2" stroke-linecap="round" stroke-linejoin="round"/>
<path d="M142.746 73.3805C142.746 77.0327 144.931 80.3181 148.308 81.7393" stroke="#231815" stroke-width="0.2" stroke-linecap="round" stroke-linejoin="round"/>
<path d="M148.292 92.2222C144.931 93.6281 142.731 96.9288 142.731 100.581" stroke="#231815" stroke-width="0.2" stroke-linecap="round" stroke-linejoin="round"/>
<path d="M148.292 33.3589C144.931 34.7648 142.731 38.0655 142.731 41.7178" stroke="#231815" stroke-width="0.2" stroke-linecap="round" stroke-linejoin="round"/>
<path d="M148.292 33.3589C151.196 32.1517 152.556 28.8051 151.348 25.917C150.462 23.8082 148.399 22.4328 146.107 22.4328" stroke="#231815" stroke-width="0.2" stroke-linecap="round" stroke-linejoin="round"/>
<path d="M148.292 92.2222C151.196 91.015 152.556 87.6684 151.348 84.7803C150.768 83.4049 149.683 82.3047 148.292 81.724" stroke="#231815" stroke-width="0.2" stroke-linecap="round" stroke-linejoin="round"/>
<path d="M146.092 88.7839C147.088 88.7839 147.895 87.9766 147.895 86.9808C147.895 85.9849 147.088 85.1776 146.092 85.1776C145.096 85.1776 144.289 85.9849 144.289 86.9808C144.289 87.9766 145.096 88.7839 146.092 88.7839Z" stroke="#231815" stroke-width="0.2" stroke-linecap="round" stroke-linejoin="round"/>
<path d="M146.092 29.9206C147.088 29.9206 147.895 29.1133 147.895 28.1175C147.895 27.1216 147.088 26.3143 146.092 26.3143C145.096 26.3143 144.289 27.1216 144.289 28.1175C144.289 29.1133 145.096 29.9206 146.092 29.9206Z" stroke="#231815" stroke-width="0.2" stroke-linecap="round" stroke-linejoin="round"/>
<path d="M117.503 123.488C116.999 123.488 116.602 123.9 116.602 124.389" stroke="#231815" stroke-width="0.2" stroke-linecap="round" stroke-linejoin="round"/>
<path d="M119.138 116.611C118.634 116.611 118.237 117.024 118.237 117.513" stroke="#231815" stroke-width="0.2" stroke-linecap="round" stroke-linejoin="round"/>
<path d="M177.187 150.535C177.187 150.535 177.294 150.612 177.34 150.658" stroke="#231815" stroke-width="0.2" stroke-linecap="round" stroke-linejoin="round"/>
<path d="M185.622 114.472C185.453 114.334 185.255 114.258 185.026 114.258" stroke="#231815" stroke-width="0.2" stroke-linecap="round" stroke-linejoin="round"/>
<path d="M178.822 114.258C178.608 114.258 178.394 114.334 178.226 114.472" stroke="#231815" stroke-width="0.2" stroke-linecap="round" stroke-linejoin="round"/>
<path d="M168.111 116.458C169.027 116.458 169.944 116.458 170.861 116.458" stroke="#231815" stroke-width="0.2" stroke-linecap="round" stroke-linejoin="round"/>
<path d="M28.3138 137.959C28.1305 137.959 27.9471 137.928 27.7637 137.867C27.5804 137.806 27.4276 137.699 27.3053 137.562C27.1831 137.424 27.0761 137.271 27.015 137.088C26.9539 136.905 26.9233 136.721 26.9233 136.538" stroke="#231815" stroke-width="0.2" stroke-linecap="round" stroke-linejoin="round"/>
<path d="M138.223 136.553C138.223 136.736 138.192 136.92 138.131 137.103C138.07 137.287 137.978 137.439 137.841 137.577C137.703 137.714 137.551 137.806 137.383 137.883C137.214 137.959 137.031 137.974 136.848 137.974" stroke="#231815" stroke-width="0.2" stroke-linecap="round" stroke-linejoin="round"/>
<path d="M136.848 26.9408C137.031 26.9408 137.214 26.9714 137.383 27.0325C137.551 27.0936 137.719 27.2006 137.841 27.3381C137.963 27.4757 138.07 27.6285 138.131 27.8118C138.192 27.9952 138.223 28.1786 138.223 28.362" stroke="#231815" stroke-width="0.2" stroke-linecap="round" stroke-linejoin="round"/>
<path d="M26.9387 28.3467C26.9387 28.1633 26.9692 27.9799 27.0303 27.7966C27.0915 27.6132 27.1831 27.4604 27.3207 27.3228C27.4582 27.1853 27.611 27.0936 27.7791 27.0172C27.9471 26.9408 28.1305 26.9255 28.3139 26.9255" stroke="#231815" stroke-width="0.2" stroke-linecap="round" stroke-linejoin="round"/>
<path d="M28.1152 151.529C27.3665 151.529 26.6178 151.376 25.9302 151.101C25.2426 150.826 24.6161 150.398 24.0813 149.863C23.5465 149.328 23.1339 148.702 22.8436 148.014C22.5533 147.326 22.4158 146.578 22.4158 145.844" stroke="#231815" stroke-width="0.2" stroke-linecap="round" stroke-linejoin="round"/>
<path d="M142.746 106.296C142.746 107.473 142.975 108.665 143.433 109.765C143.892 110.865 144.564 111.859 145.405 112.699C146.245 113.54 147.238 114.212 148.338 114.67C149.438 115.129 150.63 115.358 151.807 115.358" stroke="#231815" stroke-width="0.2" stroke-linecap="round" stroke-linejoin="round"/>
<path d="M177.233 115.327C177.233 115.327 177.202 115.327 177.172 115.327C177.08 115.327 176.988 115.327 176.897 115.327" stroke="#231815" stroke-width="0.2" stroke-linecap="round" stroke-linejoin="round"/>
<path d="M176.897 115.343C176.897 115.343 176.805 115.343 176.759 115.343C176.622 115.343 176.484 115.343 176.331 115.343" stroke="#231815" stroke-width="0.2" stroke-linecap="round" stroke-linejoin="round"/>
<path d="M28.1152 150.52C27.504 150.52 26.8928 150.398 26.3275 150.169C25.7621 149.939 25.2426 149.573 24.8147 149.145C24.3869 148.717 24.0355 148.182 23.8063 147.617C23.5771 147.051 23.4701 146.471 23.4701 145.89" stroke="#231815" stroke-width="0.2" stroke-linecap="round" stroke-linejoin="round"/>
<path d="M179.586 115.343C179.173 115.343 178.776 115.496 178.409 115.694C178.027 115.893 177.676 116.137 177.34 116.412" stroke="#231815" stroke-width="0.2" stroke-linecap="round" stroke-linejoin="round"/>
<path d="M68.9739 25.0765C70.3644 25.0765 71.7549 24.832 73.069 24.343C74.3831 23.854 75.5902 23.1205 76.6445 22.2189" stroke="#231815" stroke-width="0.2" stroke-linecap="round" stroke-linejoin="round"/>
<path d="M180.487 151.544C180.961 151.666 181.435 151.743 181.924 151.743C182.413 151.743 182.902 151.666 183.36 151.544" stroke="#231815" stroke-width="0.2" stroke-linecap="round" stroke-linejoin="round"/>
<path d="M177.34 150.673C177.63 150.902 177.92 151.101 178.257 151.269C178.562 151.422 178.883 151.544 179.219 151.544" stroke="#231815" stroke-width="0.2" stroke-linecap="round" stroke-linejoin="round"/>
<path d="M22.3394 33.1603C22.7519 32.8852 23.1339 32.5643 23.4854 32.1976C23.8368 31.8308 24.1118 31.4182 24.3563 30.9903C24.6008 30.5625 24.7842 30.0887 24.9064 29.5997C25.0286 29.1107 25.0898 28.6217 25.0898 28.1175" stroke="#231815" stroke-width="0.2" stroke-linecap="round" stroke-linejoin="round"/>
<path d="M25.0745 41.7178C25.0745 40.3272 24.83 38.9366 24.341 37.6224C23.8521 36.3082 23.1186 35.101 22.2171 34.0466" stroke="#231815" stroke-width="0.2" stroke-linecap="round" stroke-linejoin="round"/>
<path d="M22.2171 81.0516C23.1186 79.9972 23.8521 78.79 24.341 77.4758C24.83 76.1616 25.0745 74.7711 25.0745 73.3805" stroke="#231815" stroke-width="0.2" stroke-linecap="round" stroke-linejoin="round"/>
<path d="M22.3394 81.938C22.7519 82.213 23.1339 82.5339 23.4854 82.9007C23.8368 83.2674 24.1118 83.68 24.3563 84.1079C24.6008 84.5358 24.7842 85.0095 24.9064 85.4985C25.0286 85.9875 25.0898 86.4765 25.0898 86.9808C25.0898 87.485 25.0286 87.974 24.9064 88.463C24.7842 88.952 24.6008 89.4105 24.3563 89.8536C24.1118 90.2968 23.8215 90.6941 23.4854 91.0609C23.1492 91.4276 22.7672 91.7485 22.3394 92.0236" stroke="#231815" stroke-width="0.2" stroke-linecap="round" stroke-linejoin="round"/>
<path d="M25.0745 100.581C25.0745 99.1905 24.83 97.7999 24.341 96.4857C23.8521 95.1715 23.1186 93.9643 22.2171 92.9099" stroke="#231815" stroke-width="0.2" stroke-linecap="round" stroke-linejoin="round"/>
<path d="M33.7077 145.095C33.6313 144.484 33.4479 143.888 33.1729 143.338C32.8978 142.788 32.5311 142.284 32.1033 141.84C31.6754 141.397 31.1712 141.046 30.6058 140.771C30.0405 140.496 29.4598 140.312 28.8486 140.236" stroke="#231815" stroke-width="0.2" stroke-linecap="round" stroke-linejoin="round"/>
<path d="M73.726 145.279C73.6649 144.591 73.4662 143.919 73.1454 143.292C72.8245 142.666 72.4119 142.115 71.8924 141.657C71.3729 141.199 70.777 140.817 70.1352 140.572C69.4934 140.328 68.7906 140.205 68.103 140.205C67.4154 140.205 66.7125 140.328 66.0707 140.572C65.429 140.817 64.833 141.199 64.3135 141.657C63.794 142.115 63.3662 142.681 63.0606 143.292C62.755 143.903 62.5563 144.591 62.4799 145.279" stroke="#231815" stroke-width="0.2" stroke-linecap="round" stroke-linejoin="round"/>
<path d="M135.427 145.279C135.366 144.591 135.167 143.919 134.846 143.292C134.525 142.666 134.113 142.115 133.593 141.657C133.074 141.199 132.478 140.817 131.836 140.572C131.194 140.328 130.491 140.205 129.804 140.205C129.116 140.205 128.413 140.328 127.771 140.572C127.13 140.817 126.534 141.199 126.014 141.657C125.495 142.115 125.067 142.681 124.761 143.292C124.456 143.903 124.257 144.591 124.181 145.279" stroke="#231815" stroke-width="0.2" stroke-linecap="round" stroke-linejoin="round"/>
<path d="M140.102 107.274C140.163 108.359 140.377 109.444 140.729 110.468C141.08 111.492 141.6 112.47 142.226 113.371C142.853 114.273 143.601 115.068 144.457 115.755C145.313 116.443 146.26 117.008 147.269 117.421" stroke="#231815" stroke-width="0.2" stroke-linecap="round" stroke-linejoin="round"/>
<path d="M22.4922 66.5956V48.5026" stroke="#231815" stroke-width="0.2" stroke-linecap="round" stroke-linejoin="round"/>
<path d="M142.96 92.9099C142.058 93.9643 141.325 95.1715 140.836 96.4857C140.347 97.7999 140.102 99.1905 140.102 100.581" stroke="#231815" stroke-width="0.2" stroke-linecap="round" stroke-linejoin="round"/>
<path d="M142.822 92.0083C142.41 91.7332 142.028 91.4123 141.676 91.0456C141.325 90.6788 141.05 90.2662 140.805 89.8384C140.561 89.4105 140.377 88.9368 140.255 88.4478C140.133 87.9588 140.072 87.4698 140.072 86.9655C140.072 86.4612 140.133 85.9722 140.255 85.4832C140.377 84.9942 140.561 84.5358 140.805 84.0926C141.05 83.6495 141.34 83.2521 141.676 82.8854C142.012 82.5186 142.394 82.1977 142.822 81.9227" stroke="#231815" stroke-width="0.2" stroke-linecap="round" stroke-linejoin="round"/>
<path d="M140.087 73.3805C140.087 74.7711 140.332 76.1616 140.821 77.4758C141.31 78.79 142.043 79.9972 142.944 81.0516" stroke="#231815" stroke-width="0.2" stroke-linecap="round" stroke-linejoin="round"/>
<path d="M142.96 34.0466C142.058 35.101 141.325 36.3082 140.836 37.6224C140.347 38.9366 140.102 40.3272 140.102 41.7178" stroke="#231815" stroke-width="0.2" stroke-linecap="round" stroke-linejoin="round"/>
<path d="M140.087 28.1175C140.087 28.6065 140.148 29.1107 140.27 29.5997C140.393 30.0887 140.576 30.5472 140.821 30.9903C141.065 31.4335 141.355 31.8308 141.692 32.1976C142.028 32.5643 142.41 32.8852 142.838 33.1603" stroke="#231815" stroke-width="0.2" stroke-linecap="round" stroke-linejoin="round"/>
<path d="M88.5171 22.2189C89.5714 23.1205 90.7785 23.854 92.0926 24.343C93.4067 24.832 94.7972 25.0765 96.1877 25.0765" stroke="#231815" stroke-width="0.2" stroke-linecap="round" stroke-linejoin="round"/>
<path d="M23.4854 100.627C23.4854 99.6489 23.3478 98.6556 23.0575 97.7082C22.7672 96.7607 22.3394 95.8286 21.774 95.0034C21.2086 94.1782 20.5516 93.4294 19.7723 92.8029C18.993 92.1764 18.1679 91.6721 17.2817 91.3054" stroke="#231815" stroke-width="0.2" stroke-linecap="round" stroke-linejoin="round"/>
<path d="M17.2817 91.3054C16.8691 91.1373 16.4718 90.8928 16.1204 90.6024C15.7689 90.3121 15.4633 89.9759 15.2189 89.5939C14.9744 89.2118 14.7757 88.7992 14.6382 88.3714C14.5007 87.9435 14.4396 87.485 14.4396 87.0266C14.4396 86.5682 14.5007 86.125 14.6382 85.6819C14.7757 85.2387 14.9744 84.8261 15.2189 84.4594C15.4633 84.0926 15.7842 83.7411 16.1357 83.4508C16.4871 83.1605 16.8691 82.9312 17.2969 82.7631" stroke="#231815" stroke-width="0.2" stroke-linecap="round" stroke-linejoin="round"/>
<path d="M17.2817 82.7479C18.1832 82.3658 19.0389 81.8615 19.8029 81.235C20.5669 80.6085 21.2545 79.8444 21.8046 79.0192C22.3546 78.1941 22.7825 77.2772 23.0728 76.3145C23.3631 75.3517 23.4854 74.4043 23.4854 73.4263" stroke="#231815" stroke-width="0.2" stroke-linecap="round" stroke-linejoin="round"/>
<path d="M177.218 115.343C177.233 115.343 177.248 115.343 177.248 115.343C177.263 115.343 177.294 115.343 177.309 115.343C177.34 115.343 177.37 115.343 177.401 115.343C177.477 115.343 177.569 115.343 177.661 115.343C177.783 115.343 177.905 115.343 178.012 115.343" stroke="#231815" stroke-width="0.2" stroke-linecap="round" stroke-linejoin="round"/>
<path d="M23.4854 41.7636C23.4854 40.7856 23.3478 39.7923 23.0575 38.8449C22.7672 37.8975 22.3394 36.9653 21.774 36.1401C21.2086 35.3149 20.5516 34.5661 19.7723 33.9396C18.993 33.3131 18.1679 32.8088 17.2817 32.4421" stroke="#231815" stroke-width="0.2" stroke-linecap="round" stroke-linejoin="round"/>
<path d="M17.2817 32.442C16.7927 32.2434 16.3343 31.9531 15.937 31.5863C15.5398 31.2196 15.2189 30.807 14.9744 30.3332C14.7299 29.8595 14.5618 29.3552 14.4854 28.8204C14.409 28.2856 14.4243 27.7507 14.5313 27.2312C14.6382 26.7116 14.8369 26.2073 15.1119 25.7489C15.387 25.2904 15.7384 24.8931 16.151 24.5569C16.5635 24.2207 17.0372 23.961 17.5414 23.7776C18.0457 23.5942 18.5499 23.5178 19.0694 23.5178" stroke="#231815" stroke-width="0.2" stroke-linecap="round" stroke-linejoin="round"/>
<path d="M68.9739 23.5331C69.9519 23.5331 70.9451 23.3956 71.8771 23.1052C72.8092 22.8149 73.7566 22.387 74.5817 21.8369C75.4068 21.2868 76.1555 20.6144 76.7973 19.835C77.4391 19.0557 77.928 18.2305 78.2947 17.3289" stroke="#231815" stroke-width="0.2" stroke-linecap="round" stroke-linejoin="round"/>
<path d="M78.31 17.3289C78.4781 16.9163 78.7226 16.519 79.0129 16.1675C79.3032 15.8161 79.6394 15.5104 80.0214 15.2659C80.4034 15.0214 80.8159 14.8228 81.2438 14.6853C81.6716 14.5477 82.13 14.4866 82.5884 14.4866C83.0468 14.4866 83.4899 14.5477 83.933 14.6853C84.3762 14.8228 84.7887 15.0214 85.1554 15.2659C85.5222 15.5104 85.8736 15.8314 86.1639 16.1828C86.4542 16.5343 86.6834 16.9163 86.8515 17.3442" stroke="#231815" stroke-width="0.2" stroke-linecap="round" stroke-linejoin="round"/>
<path d="M86.8516 17.3289C87.2336 18.2305 87.7378 19.0863 88.3643 19.8503C88.9908 20.6144 89.7548 21.302 90.5952 21.8522C91.4356 22.4023 92.3371 22.8302 93.2997 23.1205C94.2624 23.4108 95.2097 23.5331 96.1876 23.5331" stroke="#231815" stroke-width="0.2" stroke-linecap="round" stroke-linejoin="round"/>
<path d="M170.158 150.52C169.746 150.52 169.318 150.52 168.905 150.52" stroke="#231815" stroke-width="0.2" stroke-linecap="round" stroke-linejoin="round"/>
<path d="M146.092 23.5331C146.627 23.5331 147.162 23.6248 147.651 23.8082C148.14 23.9915 148.613 24.2513 149.026 24.5875C149.438 24.9237 149.79 25.3363 150.065 25.7794C150.34 26.2226 150.539 26.7422 150.63 27.277C150.722 27.8118 150.753 28.3467 150.661 28.8662C150.569 29.3858 150.401 29.9054 150.157 30.3638C149.912 30.8222 149.576 31.2501 149.179 31.6169C148.781 31.9836 148.338 32.2434 147.865 32.4421" stroke="#231815" stroke-width="0.2" stroke-linecap="round" stroke-linejoin="round"/>
<path d="M147.895 32.4421C146.994 32.8241 146.138 33.3284 145.374 33.9549C144.61 34.5814 143.922 35.3455 143.372 36.1707C142.822 36.9959 142.394 37.9127 142.104 38.8755C141.814 39.8382 141.691 40.7856 141.691 41.7636" stroke="#231815" stroke-width="0.2" stroke-linecap="round" stroke-linejoin="round"/>
<path d="M141.691 73.4263C141.691 74.4043 141.829 75.3976 142.119 76.345C142.41 77.2925 142.837 78.2246 143.403 79.0498C143.968 79.875 144.625 80.6238 145.405 81.2503C146.184 81.8768 147.009 82.3811 147.91 82.7479" stroke="#231815" stroke-width="0.2" stroke-linecap="round" stroke-linejoin="round"/>
<path d="M77.546 22.3412C77.8211 22.7538 78.1419 23.1358 78.5087 23.4873C78.8754 23.8387 79.2879 24.1138 79.7158 24.3583C80.1436 24.6028 80.6173 24.7862 81.1063 24.9084C81.5952 25.0307 82.0842 25.0918 82.5884 25.0918C83.0927 25.0918 83.5816 25.0307 84.0706 24.9084C84.5595 24.7862 85.0179 24.6028 85.4611 24.3583C85.9042 24.1138 86.3015 23.8234 86.6682 23.4873C87.0349 23.1511 87.3558 22.769 87.6308 22.3412" stroke="#231815" stroke-width="0.2" stroke-linecap="round" stroke-linejoin="round"/>
<path d="M22.2171 34.0466C22.1102 33.9243 22.0491 33.741 22.0643 33.5729C22.0796 33.4048 22.2019 33.252 22.3394 33.1603" stroke="#231815" stroke-width="0.2" stroke-linecap="round" stroke-linejoin="round"/>
<path d="M76.6445 22.2189C76.7667 22.1119 76.9501 22.0508 77.1182 22.0661C77.2862 22.0814 77.439 22.2036 77.5307 22.3412" stroke="#231815" stroke-width="0.2" stroke-linecap="round" stroke-linejoin="round"/>
<path d="M87.6155 22.3412C87.7072 22.2036 87.86 22.0814 88.0281 22.0661C88.1962 22.0508 88.3795 22.1119 88.5018 22.2189" stroke="#231815" stroke-width="0.2" stroke-linecap="round" stroke-linejoin="round"/>
<path d="M142.822 33.1603C142.96 33.252 143.082 33.4048 143.097 33.5729C143.113 33.741 143.051 33.9243 142.944 34.0466" stroke="#231815" stroke-width="0.2" stroke-linecap="round" stroke-linejoin="round"/>
<path d="M142.96 81.0516C143.067 81.1739 143.128 81.3573 143.113 81.5254C143.097 81.6935 142.975 81.8463 142.838 81.938" stroke="#231815" stroke-width="0.2" stroke-linecap="round" stroke-linejoin="round"/>
<path d="M142.822 92.0083C142.96 92.1 143.082 92.2528 143.097 92.4209C143.113 92.589 143.051 92.7723 142.944 92.8946" stroke="#231815" stroke-width="0.2" stroke-linecap="round" stroke-linejoin="round"/>
<path d="M22.2171 92.9099C22.1102 92.7876 22.0491 92.6043 22.0643 92.4362C22.0796 92.2681 22.2019 92.1153 22.3394 92.0236" stroke="#231815" stroke-width="0.2" stroke-linecap="round" stroke-linejoin="round"/>
<path d="M22.3394 81.938C22.2019 81.8463 22.0796 81.6935 22.0643 81.5254C22.0491 81.3573 22.1102 81.1739 22.2171 81.0516" stroke="#231815" stroke-width="0.2" stroke-linecap="round" stroke-linejoin="round"/>
<path d="M147.895 82.7479C148.308 82.916 148.705 83.1605 149.056 83.4508C149.408 83.7411 149.713 84.0773 149.958 84.4594C150.202 84.8414 150.401 85.254 150.539 85.6819C150.676 86.1097 150.737 86.5682 150.737 87.0266C150.737 87.485 150.676 87.9282 150.539 88.3714C150.401 88.8145 150.202 89.2271 149.958 89.5939C149.713 89.9606 149.393 90.3121 149.041 90.6024C148.69 90.8928 148.308 91.122 147.88 91.2901" stroke="#231815" stroke-width="0.2" stroke-linecap="round" stroke-linejoin="round"/>
<path d="M147.895 91.3054C146.994 91.6874 146.138 92.1917 145.374 92.8182C144.61 93.4447 143.922 94.2088 143.372 95.034C142.822 95.8592 142.394 96.776 142.104 97.7387C141.814 98.7015 141.691 99.6489 141.691 100.627" stroke="#231815" stroke-width="0.2" stroke-linecap="round" stroke-linejoin="round"/>
<path d="M178.027 115.389C177.966 115.48 177.905 115.557 177.844 115.648C177.676 115.893 177.508 116.153 177.355 116.412" stroke="#231815" stroke-width="0.2" stroke-linecap="round" stroke-linejoin="round"/>
<path d="M141.691 106.342C141.691 107.656 141.951 109.001 142.455 110.224C142.96 111.446 143.739 112.577 144.686 113.524C145.634 114.472 146.78 115.236 148.033 115.725C149.286 116.214 150.523 116.443 151.792 116.443" stroke="#231815" stroke-width="0.2" stroke-linecap="round" stroke-linejoin="round"/>
<path d="M145.099 146.287C145.97 146.287 146.551 145.722 146.551 144.881" stroke="#231815" stroke-width="0.2" stroke-linecap="round" stroke-linejoin="round"/>
<path d="M148.002 120.554C148.002 119.698 147.421 119.148 146.551 119.148" stroke="#231815" stroke-width="0.2" stroke-linecap="round" stroke-linejoin="round"/>
<path d="M30.0099 133.482C30.0099 134.337 30.5905 134.887 31.4615 134.887" stroke="#231815" stroke-width="0.2" stroke-linecap="round" stroke-linejoin="round"/>
<path d="M31.4004 30.0123C30.56 30.0123 30.0252 30.5625 30.0252 31.4182" stroke="#231815" stroke-width="0.2" stroke-linecap="round" stroke-linejoin="round"/>
<path d="M135.152 31.4335C135.152 30.5777 134.617 30.0276 133.776 30.0276" stroke="#231815" stroke-width="0.2" stroke-linecap="round" stroke-linejoin="round"/>
<path d="M133.7 134.887C134.571 134.887 135.152 134.322 135.152 133.482" stroke="#231815" stroke-width="0.2" stroke-linecap="round" stroke-linejoin="round"/>
<path d="M28.3138 137.959C28.3138 137.959 28.3597 137.959 28.3902 137.959" stroke="#231815" stroke-width="0.2" stroke-linecap="round" stroke-linejoin="round"/>
<path d="M146.612 147.739C147.452 147.739 147.987 147.189 147.987 146.333" stroke="#231815" stroke-width="0.2" stroke-linecap="round" stroke-linejoin="round"/>
<path d="M136.771 137.959C136.771 137.959 136.817 137.959 136.848 137.959" stroke="#231815" stroke-width="0.2" stroke-linecap="round" stroke-linejoin="round"/>
<path d="M136.848 26.9408C136.848 26.9408 136.802 26.9408 136.771 26.9408" stroke="#231815" stroke-width="0.2" stroke-linecap="round" stroke-linejoin="round"/>
<path d="M28.3902 26.9408C28.3902 26.9408 28.3444 26.9408 28.3138 26.9408" stroke="#231815" stroke-width="0.2" stroke-linecap="round" stroke-linejoin="round"/>
<path d="M146.55 122.005C146.55 121.15 146.016 120.599 145.175 120.599" stroke="#231815" stroke-width="0.2" stroke-linecap="round" stroke-linejoin="round"/>
<path d="M30.0252 28.5759C29.1542 28.5759 28.5736 29.1413 28.5736 29.9818" stroke="#231815" stroke-width="0.2" stroke-linecap="round" stroke-linejoin="round"/>
<path d="M136.603 29.9818C136.603 29.126 136.023 28.5759 135.152 28.5759" stroke="#231815" stroke-width="0.2" stroke-linecap="round" stroke-linejoin="round"/>
<path d="M135.213 136.339C136.053 136.339 136.588 135.789 136.588 134.933" stroke="#231815" stroke-width="0.2" stroke-linecap="round" stroke-linejoin="round"/>
<path d="M28.5736 134.918C28.5736 135.774 29.1084 136.324 29.9488 136.324" stroke="#231815" stroke-width="0.2" stroke-linecap="round" stroke-linejoin="round"/>
<path d="M178.272 118.063C178.15 120.997 178.027 124.084 177.92 127.293" stroke="#231815" stroke-width="0.2" stroke-linecap="round" stroke-linejoin="round"/>
<path d="M177.89 128.729C177.798 131.77 177.706 134.903 177.63 138.142" stroke="#231815" stroke-width="0.2" stroke-linecap="round" stroke-linejoin="round"/>
<path d="M177.599 139.594C177.538 142.604 177.477 145.691 177.431 148.824" stroke="#231815" stroke-width="0.2" stroke-linecap="round" stroke-linejoin="round"/>
<path d="M183.36 151.544C183.1 149.97 182.841 148.824 182.565 148.106" stroke="#231815" stroke-width="0.2" stroke-linecap="round" stroke-linejoin="round"/>
<path d="M181.282 148.106C181.007 148.824 180.747 149.97 180.487 151.544" stroke="#231815" stroke-width="0.2" stroke-linecap="round" stroke-linejoin="round"/>
<path d="M43.0896 89.059C42.3867 89.059 41.8214 89.6244 41.8214 90.3274" stroke="#231815" stroke-width="0.2" stroke-linecap="round" stroke-linejoin="round"/>
<path d="M61.991 90.3274C61.991 89.6244 61.4256 89.059 60.7227 89.059" stroke="#231815" stroke-width="0.2" stroke-linecap="round" stroke-linejoin="round"/>
<path d="M62.9842 121.379C62.9842 121.684 63.2287 121.929 63.5343 121.929" stroke="#231815" stroke-width="0.2" stroke-linecap="round" stroke-linejoin="round"/>
<path d="M131.408 34.3064C131.408 34.0007 131.164 33.7562 130.873 33.7562" stroke="#231815" stroke-width="0.2" stroke-linecap="round" stroke-linejoin="round"/>
<path d="M34.3036 33.7562C33.998 33.7562 33.7688 34.0007 33.7688 34.3064" stroke="#231815" stroke-width="0.2" stroke-linecap="round" stroke-linejoin="round"/>
<path d="M118.466 115.037C117.473 115.037 116.663 115.847 116.648 116.84" stroke="#231815" stroke-width="0.2" stroke-linecap="round" stroke-linejoin="round"/>
<path d="M62.9842 116.856C62.9842 115.862 62.1744 115.052 61.1812 115.052" stroke="#231815" stroke-width="0.2" stroke-linecap="round" stroke-linejoin="round"/>
<path d="M116.113 121.914C116.418 121.914 116.663 121.669 116.663 121.364" stroke="#231815" stroke-width="0.2" stroke-linecap="round" stroke-linejoin="round"/>
<path d="M130.858 115.037C131.164 115.037 131.408 114.793 131.408 114.487" stroke="#231815" stroke-width="0.2" stroke-linecap="round" stroke-linejoin="round"/>
<path d="M33.7535 114.502C33.7535 114.808 33.998 115.052 34.3036 115.052" stroke="#231815" stroke-width="0.2" stroke-linecap="round" stroke-linejoin="round"/>
<path d="M186.63 115.343V151.544" stroke="#231815" stroke-width="0.2" stroke-linecap="round" stroke-linejoin="round"/>
<path d="M19.6959 120.049V112.806" stroke="#231815" stroke-width="0.5" stroke-linecap="round" stroke-linejoin="round"/>
<path d="M185.026 152.629H178.822" stroke="#231815" stroke-width="0.5" stroke-linecap="round" stroke-linejoin="round"/>
<path d="M177.202 151.529H28.1152" stroke="#231815" stroke-width="0.5" stroke-linecap="round" stroke-linejoin="round"/>
<path d="M22.431 145.844V120.951" stroke="#231815" stroke-width="0.5" stroke-linecap="round" stroke-linejoin="round"/>
<path d="M22.431 111.904V100.581" stroke="#231815" stroke-width="0.5" stroke-linecap="round" stroke-linejoin="round"/>
<path d="M22.431 73.3805V41.7178" stroke="#231815" stroke-width="0.5" stroke-linecap="round" stroke-linejoin="round"/>
<path d="M22.4311 120.951H20.6127" stroke="#231815" stroke-width="0.5" stroke-linecap="round" stroke-linejoin="round"/>
<path d="M151.792 115.358H176.347" stroke="#231815" stroke-width="0.5" stroke-linecap="round" stroke-linejoin="round"/>
<path d="M178.822 114.258H185.026" stroke="#231815" stroke-width="0.5" stroke-linecap="round" stroke-linejoin="round"/>
<path d="M20.6127 111.904H22.4311" stroke="#231815" stroke-width="0.5" stroke-linecap="round" stroke-linejoin="round"/>
<path d="M178.226 152.4L177.202 151.529" stroke="#231815" stroke-width="0.5" stroke-linecap="round" stroke-linejoin="round"/>
<path d="M185.622 114.472L186.63 115.343" stroke="#231815" stroke-width="0.5" stroke-linecap="round" stroke-linejoin="round"/>
<path d="M142.746 41.7178V73.3805" stroke="#231815" stroke-width="0.5" stroke-linecap="round" stroke-linejoin="round"/>
<path d="M142.746 100.581V106.296" stroke="#231815" stroke-width="0.5" stroke-linecap="round" stroke-linejoin="round"/>
<path d="M120.07 22.4328H112.216" stroke="#231815" stroke-width="0.5" stroke-linecap="round" stroke-linejoin="round"/>
<path d="M146.092 22.4328H121.262" stroke="#231815" stroke-width="0.5" stroke-linecap="round" stroke-linejoin="round"/>
<path d="M111.04 22.4328H96.1876" stroke="#231815" stroke-width="0.5" stroke-linecap="round" stroke-linejoin="round"/>
<path d="M19.0695 22.4328H68.974" stroke="#231815" stroke-width="0.5" stroke-linecap="round" stroke-linejoin="round"/>
<path d="M178.226 114.472L177.233 115.327" stroke="#231815" stroke-width="0.5" stroke-linecap="round" stroke-linejoin="round"/>
<path d="M185.622 152.4L186.63 151.544" stroke="#231815" stroke-width="0.5" stroke-linecap="round" stroke-linejoin="round"/>
<path d="M111.04 22.4328C111.437 22.4328 111.819 22.4328 112.216 22.4328" stroke="#231815" stroke-width="0.5" stroke-linecap="round" stroke-linejoin="round"/>
<path d="M22.4311 100.581C22.4311 96.9288 20.246 93.6434 16.8691 92.2222" stroke="#231815" stroke-width="0.5" stroke-linecap="round" stroke-linejoin="round"/>
<path d="M22.4311 41.7178C22.4311 38.0655 20.246 34.7801 16.8691 33.3589" stroke="#231815" stroke-width="0.5" stroke-linecap="round" stroke-linejoin="round"/>
<path d="M68.9739 22.4328C72.6259 22.4328 75.9111 20.2476 77.3321 16.8705" stroke="#231815" stroke-width="0.5" stroke-linecap="round" stroke-linejoin="round"/>
<path d="M87.8295 16.8705C89.2352 20.2323 92.5357 22.4328 96.1876 22.4328" stroke="#231815" stroke-width="0.5" stroke-linecap="round" stroke-linejoin="round"/>
<path d="M16.8691 81.724C20.2307 80.3182 22.4311 77.0174 22.4311 73.3652" stroke="#231815" stroke-width="0.5" stroke-linecap="round" stroke-linejoin="round"/>
<path d="M19.0694 22.4328C15.9217 22.4328 13.3853 24.9848 13.3853 28.1175C13.3853 30.4096 14.7605 32.4726 16.8691 33.3589" stroke="#231815" stroke-width="0.5" stroke-linecap="round" stroke-linejoin="round"/>
<path d="M87.8295 16.8705C86.6223 13.967 83.276 12.607 80.3881 13.8142C79.0129 14.3949 77.9127 15.4799 77.3321 16.8705" stroke="#231815" stroke-width="0.5" stroke-linecap="round" stroke-linejoin="round"/>
<path d="M16.8691 81.724C13.9659 82.9312 12.606 86.2778 13.8131 89.166C14.3938 90.5413 15.4786 91.6415 16.8691 92.2222" stroke="#231815" stroke-width="0.5" stroke-linecap="round" stroke-linejoin="round"/>
<path d="M19.6959 120.049C19.6959 120.554 20.1085 120.951 20.5974 120.951" stroke="#231815" stroke-width="0.5" stroke-linecap="round" stroke-linejoin="round"/>
<path d="M20.6127 111.904C20.1085 111.904 19.7112 112.317 19.7112 112.806" stroke="#231815" stroke-width="0.5" stroke-linecap="round" stroke-linejoin="round"/>
<path d="M178.226 152.4C178.394 152.537 178.593 152.614 178.822 152.614" stroke="#231815" stroke-width="0.5" stroke-linecap="round" stroke-linejoin="round"/>
<path d="M185.026 152.629C185.239 152.629 185.453 152.553 185.622 152.415" stroke="#231815" stroke-width="0.5" stroke-linecap="round" stroke-linejoin="round"/>
<path d="M120.07 22.4328C120.468 22.4328 120.85 22.4328 121.247 22.4328" stroke="#231815" stroke-width="0.5" stroke-linecap="round" stroke-linejoin="round"/>
<path d="M142.746 73.3805C142.746 77.0327 144.931 80.3181 148.308 81.7393" stroke="#231815" stroke-width="0.5" stroke-linecap="round" stroke-linejoin="round"/>
<path d="M148.292 92.2222C144.931 93.6281 142.731 96.9288 142.731 100.581" stroke="#231815" stroke-width="0.5" stroke-linecap="round" stroke-linejoin="round"/>
<path d="M148.292 33.3589C144.931 34.7648 142.731 38.0655 142.731 41.7178" stroke="#231815" stroke-width="0.5" stroke-linecap="round" stroke-linejoin="round"/>
<path d="M148.292 33.3589C151.196 32.1517 152.556 28.8051 151.348 25.917C150.462 23.8082 148.399 22.4328 146.107 22.4328" stroke="#231815" stroke-width="0.5" stroke-linecap="round" stroke-linejoin="round"/>
<path d="M148.292 92.2222C151.196 91.015 152.556 87.6684 151.348 84.7803C150.768 83.4049 149.683 82.3047 148.292 81.724" stroke="#231815" stroke-width="0.5" stroke-linecap="round" stroke-linejoin="round"/>
<path d="M185.622 114.472C185.453 114.334 185.255 114.258 185.026 114.258" stroke="#231815" stroke-width="0.5" stroke-linecap="round" stroke-linejoin="round"/>
<path d="M178.822 114.258C178.608 114.258 178.394 114.334 178.226 114.472" stroke="#231815" stroke-width="0.5" stroke-linecap="round" stroke-linejoin="round"/>
<path d="M28.1152 151.529C27.3665 151.529 26.6178 151.376 25.9302 151.101C25.2426 150.826 24.6161 150.398 24.0813 149.863C23.5465 149.328 23.1339 148.702 22.8436 148.014C22.5533 147.326 22.4158 146.578 22.4158 145.844" stroke="#231815" stroke-width="0.5" stroke-linecap="round" stroke-linejoin="round"/>
<path d="M142.746 106.296C142.746 107.473 142.975 108.665 143.433 109.765C143.892 110.865 144.564 111.859 145.405 112.699C146.245 113.54 147.238 114.212 148.338 114.67C149.438 115.129 150.63 115.358 151.807 115.358" stroke="#231815" stroke-width="0.5" stroke-linecap="round" stroke-linejoin="round"/>
<path d="M177.233 115.327C177.233 115.327 177.202 115.327 177.172 115.327C177.08 115.327 176.988 115.327 176.897 115.327" stroke="#231815" stroke-width="0.5" stroke-linecap="round" stroke-linejoin="round"/>
<path d="M176.897 115.343C176.897 115.343 176.805 115.343 176.759 115.343C176.622 115.343 176.484 115.343 176.331 115.343" stroke="#231815" stroke-width="0.5" stroke-linecap="round" stroke-linejoin="round"/>
<path d="M186.63 115.343V151.544" stroke="#231815" stroke-width="0.5" stroke-linecap="round" stroke-linejoin="round"/>
</g>
<defs>
<clipPath id="clip0_81_479">
<rect width="200" height="166" fill="white"/>
</clipPath>
</defs>
</svg>
