<svg xmlns="http://www.w3.org/2000/svg" width="106" height="160" fill="none" viewBox="0 0 106 160"><path fill="#fff" d="M106 0H0v160h106z"/><path stroke="#040000" stroke-miterlimit="2" stroke-width=".25" d="m78.824 102.678.005.016M79.137 104.643v-.02M79.04 16.456l.097.015M79.04 16.47l.097.016M79.04 16.456l.097.015M26.631 16.47l.096-.014M26.727 16.47l-.096.016M26.631 16.47l.096-.014M26.631 16.47a1 1 0 0 0-.141.026M26.631 16.486c-.045.005-.09.015-.131.02M26.944 18.43c-.045.006-.09.016-.131.02M79.278 16.491c-.046-.01-.096-.015-.142-.025M79.273 16.511c-.045-.01-.09-.015-.141-.025"/><path stroke="#898989" stroke-linecap="round" stroke-miterlimit="2" stroke-width=".5" d="M16.238 87.711V33.398M18.202 87.711V33.398M87.566 87.711V33.398M89.53 87.711V33.398M89.212 93.944c.212-2.07.318-4.152.318-6.233M87.258 93.747a60 60 0 0 0 .308-6.036M16.551 93.944c.556 5.443 4.69 9.833 10.075 10.694"/><path stroke="#898989" stroke-linecap="round" stroke-miterlimit="2" stroke-width=".5" d="M18.505 93.747a10.09 10.09 0 0 0 8.43 8.952M89.53 33.398c0-2.082-.106-4.163-.318-6.233M87.566 33.398q.002-3.026-.308-6.036M26.49 16.491c-5.325.917-9.384 5.281-9.934 10.674"/><path stroke="#898989" stroke-linecap="round" stroke-miterlimit="2" stroke-width=".5" d="M26.803 18.436a10.096 10.096 0 0 0-8.298 8.926M26.631 104.643a166 166 0 0 0 52.51 0"/><path stroke="#898989" stroke-linecap="round" stroke-miterlimit="2" stroke-width=".5" d="M26.94 102.694a164 164 0 0 0 51.889 0M16.238 87.711c0 2.081.106 4.162.318 6.233M18.202 87.711q-.002 3.026.308 6.036M79.137 104.643c5.385-.861 9.52-5.25 10.075-10.694"/><path stroke="#898989" stroke-linecap="round" stroke-miterlimit="2" stroke-width=".5" d="M78.829 102.694a10.086 10.086 0 0 0 8.43-8.952M16.551 27.165a61 61 0 0 0-.318 6.233M18.505 27.367a60 60 0 0 0-.308 6.036M89.212 27.165a12.066 12.066 0 0 0-9.934-10.674"/><path stroke="#898989" stroke-linecap="round" stroke-miterlimit="2" stroke-width=".5" d="M87.258 27.367a10.09 10.09 0 0 0-8.298-8.926"/><path stroke="#040000" stroke-miterlimit="2" stroke-width=".25" d="M78.96 18.456q-.07-.014-.131-.02"/><path stroke="#231815" stroke-linecap="round" stroke-linejoin="round" stroke-width=".5" d="M26.535 18.213v-1.514M79.233 18.213v-1.514M79.04 16.47a166 166 0 0 0-52.308 0"/><path stroke="#231815" stroke-linecap="round" stroke-linejoin="round" stroke-width=".5" d="M78.829 18.415a164 164 0 0 0-51.89 0M26.848 18.43l-.045.01M26.94 18.415c-.031 0-.061.01-.092.015M26.652 16.496a.23.23 0 0 0-.117.203M26.616 18.385c.05.045.121.06.187.05m-.268-.222c0 .066.03.131.081.177M78.965 18.436q-.067-.015-.136-.02M79.233 18.208a.227.227 0 0 1-.267.228M26.652 16.496h.01l.005-.005.01-.005h.005l.005-.005.01-.005h.015l.01-.005h.005M79.04 16.47l.016.006h.015l.015.01.015.005.01.005.016.01.015.01.01.01.015.01.01.01M79.177 16.547l.005.01.005.005.005.005.005.005v.01l.005.005.005.01.005.005v.01l.005.006M79.217 16.618v.01l.005.005v.01l.005.005v.025l.005.01v.016"/><path stroke="#231815" stroke-miterlimit="2" d="m52.884 154.187 4.578-.06h.096l4.306-.167 3.902-.244 3.593-.298 3.287-.345 3.023-.364 2.776-.39 2.56-.41 2.326-.471 1.08-.253 1.03-.258.98-.264.933-.268.889-.284.858-.329 1.16-.557.48-.263.485-.299 1.07-.754.429-.344.964-.887.636-.688.59-.729.344-.466.686-1.084.58-1.139.233-.537.328-.875.268-.887.201-.891.152-.901.11-.932.087-.962.08-1.007.071-1.053.106-2.243.03-2.441v-5.448l.005-3.038-.004-3.271.005-3.514V44.081l-.005-3.544V32.89l.005-1.352-.016-2.552-.075-2.354-.137-2.157-.176-1.975-.066-.531-.217-1.297-.217-.9-.288-.897-.202-.537-.535-1.19-.646-1.134-.757-1.083-.701-.84-.93-.943-.403-.36-1.045-.814-.45-.304-.802-.486-.833-.436-.853-.37-.868-.308-.898-.279-.94-.268-.989-.263-1.03-.253-2.245-.486-2.454-.43M79.424 8.091l-.868-.131-.373-.056-.894-.127-.398-.055-.894-.122-.898-.116-.49-.061-.898-.112-.894-.106-.55-.06-.899-.097-.898-.091M70.47 6.957l-4.73-.41L61 6.263l-3.715-.131-4.75-.056-4.754.07-1.176.041-4.583.223-4.155.304-3.77.364-3.428.406-1.595.207-1.529.218-2.847.456-1.317.258-1.247.268-1.181.284-1.12.293-1.056.3-1 .303-.953.344-.934.42-.919.502-.873.557-.823.612-.782.679-.944.967-.47.557-.439.577-.736 1.13-.485.895-.424.947-.363.993-.283 1.002-.202.982-.141 1.003-.111 1.048-.091 1.099-.147 2.354-.075 2.603-.01 2.83.005 3.064-.005 3.316v82.987l.005 3.388-.005 3.098v1.448l.01 1.388.07 2.602.066 1.21.086 1.155.086 1.094.106 1.048.14 1.012.203.988.373 1.281.258.693.298.694.605 1.165.717 1.103.45.598.484.577.924.957.782.678.828.623.873.562.898.496.93.426.973.354 1.02.314 1.075.299 1.13.299 1.197.288 2.584.527.016.005 1.408.238 1.474.223 3.165.43 3.472.4 3.821.365M38.095 153.565l1.065.091 1.448.106 1.439.091 1.433.086 1.424.071 1.423.056 1.439.05 1.004.026 1.252.025 1.439.015 1.423.005"/><path stroke="#898989" stroke-miterlimit="2" stroke-width=".5" d="m52.884 153.377 4.548-.061.116-.005 4.296-.162 3.896-.243 3.58-.298 3.28-.34 3.019-.369 2.77-.385 2.535-.405 2.296-.466 1.07-.248 1.015-.258.964-.264.914-.258.863-.278.807-.309 1.1-.527.43-.243.434-.263 1.03-.719.949-.815.353-.339.848-.942.303-.39.308-.415.656-1.033.555-1.089.212-.481.303-.825.247-.82.197-.831.141-.861.106-.906.086-.947.081-.992.07-1.043.102-2.218.035-2.42V31.473l-.015-2.541-.076-2.33-.131-2.131L97 22.517l-.06-.507-.207-1.23-.202-.836-.268-.845-.181-.481-.515-1.134-.616-1.084-.273-.41-.282-.395-.803-.982-.888-.896-.359-.32-1.004-.78-.394-.268-.757-.455-.777-.41-.803-.345-.818-.293-.863-.269-.929-.263-.979-.258-1.02-.253-2.215-.481-2.423-.426M70.435 7.767l-4.7-.41-4.714-.279-3.74-.136-4.725-.05-4.725.07-1.211.035-4.573.223-4.144.31-3.76.359-3.423.405-1.595.207-1.52.213-2.826.456-1.302.248-1.232.268-1.166.284-1.11.288-1.04.294-.96.294-.903.329-.878.395-.858.465-.818.522-.772.577-.732.633-.909.932-.419.496-.388.511-.712 1.084-.454.84-.399.887-.338.936-.268.937-.192.916-.13.952-.112 1.028-.09 1.089-.147 2.334-.07 2.572-.01 2.82v97.438l.004 1.383.076 2.572.066 1.195.08 1.144.086 1.083.106 1.033.136.967.187.927.258.916.333.922.399.901.449.846.691 1.063.404.532.43.516.888.917.731.638.783.587.812.527.843.46.869.395.923.345.99.303 1.05.294 1.12.289 1.181.288 2.55.517.014.005 1.394.233 1.468.228 3.16.425 3.463.4 3.81.364"/><path stroke="#898989" stroke-miterlimit="2" stroke-width=".5" d="m79.364 8.896-.868-.131-.369-.056-.893-.127-.399-.055-.893-.117-.894-.116-.49-.066-.893-.106-.893-.107-.55-.06-.894-.097-.893-.09M38.125 152.754l1.065.087 1.443.106 1.439.096 1.428.081 1.419.071 1.423.061 1.439.045.994.026 1.252.025 1.439.015 1.418.01"/><path fill="#898989" d="M46.862 128.537h-.696v2.086c0 .136 0 .344-.111.455-.076.081-.207.122-.379.122h-.555c-.096 0-.248 0-.364-.111-.09-.092-.14-.248-.14-.461v-2.086h-.692v2.096c0 .208.05 1.251 1.03 1.251h.913c.373 0 .994-.162.994-1.251v-2.101M50.825 129.716c0-.83-.536-1.326-1.434-1.326h-.1c-1.268 0-1.737.481-1.737 1.767v1.691h.742v-1.686c0-.977.217-1.139.868-1.139h.166c.631 0 .742.228.742.678 0 .269-.09.557-.348.557h-1.166v.491s.02 0 .03.005c.233.041.652.066.965.066 1.044 0 1.267-.597 1.267-1.104zM53.328 128.466s-.02 0-.035-.005a7 7 0 0 0-.833-.066c-.404 0-1.085.167-1.085 1.276v2.182h.727v-2.137c0-.587.106-.648.565-.648h.666v-.602zM56.65 131.068c-.434.117-.773.183-1.217.183h-.141c-.616 0-.99-.071-.99-1.094s.218-1.139.874-1.139h.166c.611 0 .742.101.742.567 0 .233-.106.334-.348.334H54.57v.491s.02 0 .035.005c.233.041.647.071.97.071.474 0 1.261-.116 1.261-.876 0-1.002-.777-1.21-1.433-1.21h-.101c-1.267 0-1.742.481-1.742 1.767s.48 1.737 1.666 1.737h.091c.747 0 1.383-.198 1.383-.431v-.405l-.05.016zM61.813 129.691c0-1.185-.868-1.245-1.04-1.245h-.403c-.45 0-.672.217-.732.283-.237-.228-.596-.283-.722-.283h-.374c-.969 0-1.075.87-1.075 1.245v2.157h.662v-2.157c0-.334.065-.643.565-.643s.616.233.616.643v2.157h.676v-2.157c0-.44.182-.648.57-.648.42 0 .606.203.606.648v2.157h.661v-2.157zM65.25 131.494c.5-.517.425-1.322.42-1.357 0-1.448-.682-1.737-1.772-1.737s-1.358.334-1.358.425v.405l.05-.01c1.09-.243 1.828-.248 2.08-.02.081.076.268.248.268.957s-.142.861-.197.922c-.202.227-.671.197-1.085.172h-.076c-.414-.026-.414-.335-.414-.522 0-.162.05-.359.303-.359h1.221v-.41l-.025-.011c-.151-.055-.762-.146-.898-.146-1.187 0-1.363.557-1.363.886q0 .53.333.84c.45.42 1.176.375 1.206.37q.857.06 1.313-.405zM43.385 130.78c0-.734-.546-.922-1.076-1.003-.252-.03-.504-.066-.757-.096-.181-.03-.343-.071-.343-.268 0-.309.086-.39.707-.39h.156c.358 0 .702.05 1.116.167.015 0 .035.01.05.015v-.491c-.06-.122-.63-.319-1.186-.319h-.157c-.938 0-1.393.349-1.393 1.068s.576.841 1.116.927l.333.045c.247.031.399.051.474.087.147.06.223.096.223.339 0 .385-.258.425-.808.425h-.157c-.323 0-.716-.091-1.135-.263-.02-.01-.036-.015-.056-.026v.466c0 .193.57.431 1.217.431h.141c1.05 0 1.535-.355 1.535-1.119z"/></svg>