<svg width="146" height="317" viewBox="0 0 146 317" fill="none" xmlns="http://www.w3.org/2000/svg">
<g clip-path="url(#clip0_337_2)">
<path d="M145.32 0H0V316.77H145.32V0Z" fill="white"/>
<path d="M16.53 14.53H128.9C128.9 14.53 129.99 14.47 130.03 16.18L130.11 16.65L130.76 16.94V237.22L130.15 237.88L129.96 239.1L129.42 239.87L130.02 240.68L130.1 241.87L130.8 242.13V299.66L130.57 300.03L130.02 300.15V301.46C130.02 301.46 129.85 302.25 127.81 302.25H16.08C16.08 302.25 15.17 301.96 15.2 301.11V300.07L14.55 299.79V242.36L14.68 242.02L15.28 241.83V240.57L15.89 239.75L15.29 238.84L15.2 237.74L14.42 237.24V17.07L14.84 16.67L15.32 16.51V15.37C15.32 15.37 15.5 14.46 16.53 14.53Z" fill="white"/>
<path d="M73.61 215.47C73.59 215.55 73.53 215.63 73.46 215.67C72.74 216.08 72.02 216.5 71.3 216.91C71.17 216.98 71.02 217.02 70.87 217.02C70.55 217.02 70.26 216.85 70.11 216.57C68.7 214.06 67.3 211.55 65.89 209.04C65.78 208.84 65.75 208.6 65.81 208.38C65.87 208.16 66.02 207.97 66.22 207.85C67.67 207.03 69.12 206.21 70.57 205.4C70.77 205.29 71.01 205.26 71.23 205.32C71.45 205.38 71.64 205.53 71.75 205.73C72.39 206.88 73.04 208.03 73.68 209.18C73.72 209.26 73.73 209.34 73.71 209.43C73.69 209.51 73.63 209.58 73.56 209.63C73.4 209.72 73.2 209.66 73.11 209.5C72.47 208.35 71.82 207.2 71.18 206.05C71.15 206 71.11 205.96 71.05 205.95C70.99 205.93 70.93 205.95 70.88 205.97C69.43 206.79 67.98 207.61 66.53 208.42C66.48 208.45 66.44 208.5 66.43 208.55C66.41 208.61 66.43 208.66 66.45 208.72C67.86 211.23 69.26 213.74 70.67 216.25C70.73 216.35 70.86 216.39 70.97 216.33C71.69 215.92 72.41 215.5 73.13 215.09C73.29 215 73.49 215.05 73.58 215.21C73.62 215.29 73.63 215.37 73.61 215.46V215.47Z" fill="#898989"/>
<path d="M76.37 212.37C76.27 212.52 76.06 212.56 75.91 212.45C74.74 211.64 73.58 210.84 72.41 210.03C72.09 209.81 71.66 209.89 71.44 210.21C71.34 210.36 71.3 210.55 71.33 210.73C71.36 210.91 71.47 211.07 71.62 211.18C72.27 211.63 72.92 212.08 73.57 212.53C73.66 212.59 73.71 212.69 73.71 212.79C73.71 213.09 73.81 213.49 73.91 213.77C74.01 214.09 74.16 214.39 74.33 214.68C74.68 215.26 75.14 215.74 75.68 216.13C75.75 216.18 75.8 216.26 75.81 216.34C75.82 216.43 75.81 216.51 75.75 216.58C75.69 216.67 75.59 216.72 75.48 216.72C75.41 216.72 75.35 216.7 75.29 216.66C74.68 216.23 74.17 215.7 73.78 215.06C73.41 214.45 73.13 213.7 73.06 212.98C72.45 212.56 71.84 212.14 71.23 211.72C70.94 211.52 70.73 211.2 70.67 210.85C70.61 210.5 70.68 210.13 70.88 209.84C71.3 209.23 72.14 209.07 72.75 209.49C73.92 210.3 75.08 211.1 76.25 211.91C76.32 211.96 76.37 212.03 76.39 212.12C76.41 212.21 76.39 212.29 76.34 212.36L76.37 212.37Z" fill="#898989"/>
<path d="M79.44 213.96C79.38 214.76 79.21 215.54 78.92 216.28C78.87 216.41 78.75 216.49 78.62 216.49C78.58 216.49 78.54 216.49 78.5 216.47C78.42 216.44 78.35 216.38 78.32 216.3C78.28 216.22 78.28 216.13 78.32 216.05C78.81 214.78 78.97 213.19 78.66 211.85C77.38 210.63 76.11 209.42 74.83 208.2C74.44 208.27 74.05 208.34 73.66 208.42C73.48 208.45 73.31 208.34 73.28 208.16C73.26 208.07 73.28 207.99 73.33 207.91C73.38 207.84 73.45 207.79 73.54 207.77C73.99 207.69 74.43 207.6 74.88 207.52C74.98 207.5 75.09 207.53 75.16 207.6C76.5 208.88 77.84 210.15 79.18 211.43C79.22 211.47 79.25 211.52 79.27 211.58C79.47 212.27 79.5 213.25 79.45 213.95L79.44 213.96Z" fill="#898989"/>
<path d="M56.08 188.46C55.93 188.75 55.7 188.96 55.42 189.11C54.91 189.38 54.24 189.43 53.68 189.43H53.44C53.07 189.43 52.69 189.38 52.34 189.29C52.16 189.24 51.97 189.18 51.8 189.1C51.72 189.06 51.63 189.01 51.56 188.96C51.49 188.91 51.39 188.81 51.39 188.71V187.92C51.39 187.92 51.45 187.95 51.48 187.96C52.06 188.2 52.76 188.41 53.39 188.41H53.65C53.9 188.41 54.24 188.41 54.49 188.35C54.64 188.32 54.79 188.26 54.89 188.13C54.99 188.01 55.01 187.84 55.01 187.69C55.01 187.58 55.01 187.43 54.94 187.33C54.87 187.22 54.75 187.17 54.63 187.12C54.48 187.05 53.99 187 53.83 186.97L53.26 186.89C52.84 186.83 52.36 186.73 51.99 186.51C51.55 186.24 51.37 185.84 51.37 185.34C51.37 184.73 51.56 184.2 52.12 183.88C52.59 183.61 53.2 183.54 53.73 183.54H53.99C54.33 183.54 54.7 183.58 55.03 183.66C55.2 183.7 55.89 183.88 55.99 184.08C55.99 184.08 55.99 184.08 55.99 184.09V184.9C55.99 184.9 55.93 184.88 55.91 184.88C55.28 184.71 54.69 184.6 54.03 184.6H53.77C53.55 184.6 53.24 184.6 53.02 184.65C52.89 184.68 52.74 184.73 52.66 184.85C52.59 184.96 52.58 185.13 52.58 185.26C52.58 185.42 52.64 185.53 52.78 185.6C52.89 185.66 53.04 185.69 53.16 185.71C53.59 185.76 54.01 185.82 54.44 185.87C54.87 185.94 55.36 186.05 55.71 186.32C56.11 186.63 56.26 187.07 56.26 187.56C56.26 187.87 56.21 188.19 56.07 188.46H56.08Z" fill="#898989"/>
<path d="M62.14 187.31C62.14 187.79 62.07 188.34 61.79 188.75C61.48 189.22 61 189.41 60.46 189.41H58.92C58.37 189.41 57.9 189.21 57.58 188.75C57.3 188.35 57.18 187.79 57.18 187.31V183.79H58.35V187.3C58.35 187.56 58.39 187.88 58.59 188.08C58.76 188.25 58.98 188.27 59.2 188.27H60.14C60.35 188.27 60.62 188.23 60.78 188.07C60.97 187.88 60.97 187.54 60.97 187.3C60.97 186.13 60.97 184.96 60.97 183.8H62.15V187.32L62.14 187.31Z" fill="#898989"/>
<path d="M65 187.5V186.68H66.97C67.21 186.68 67.36 186.53 67.45 186.33C67.53 186.15 67.56 185.94 67.56 185.75C67.56 185.44 67.54 185.04 67.25 184.83C67 184.64 66.59 184.61 66.3 184.61H66.02C65.78 184.61 65.53 184.61 65.3 184.69C65.05 184.77 64.86 184.92 64.75 185.16C64.57 185.54 64.56 186.13 64.56 186.53V189.36H63.31V186.52C63.31 185.77 63.39 184.82 63.96 184.23C64.54 183.64 65.48 183.55 66.24 183.55H66.41C67.02 183.55 67.66 183.69 68.14 184.1C68.64 184.53 68.83 185.14 68.83 185.78C68.83 186.33 68.67 186.87 68.21 187.22C67.78 187.54 67.21 187.63 66.69 187.63C66.23 187.63 65.51 187.59 65.06 187.51C65.04 187.51 65.02 187.51 65 187.51V187.5Z" fill="#898989"/>
<path d="M69.76 189.35V185.68C69.76 185.17 69.85 184.6 70.17 184.17C70.52 183.71 71.05 183.53 71.6 183.53C71.96 183.53 72.66 183.59 73.01 183.64C73.03 183.64 73.05 183.64 73.07 183.64V184.65H71.95C71.71 184.65 71.29 184.63 71.13 184.89C71 185.1 71 185.51 71 185.74V189.33H69.78L69.76 189.35Z" fill="#898989"/>
<path d="M77.67 185.08C77.62 184.91 77.53 184.79 77.36 184.72C77.12 184.61 76.71 184.6 76.46 184.6H76.18C75.94 184.6 75.69 184.6 75.46 184.68C75.21 184.76 75.02 184.9 74.9 185.15C74.72 185.52 74.7 186.12 74.7 186.52C74.7 186.94 74.73 187.56 75 187.92C75.31 188.36 75.91 188.35 76.37 188.35H76.61C77.36 188.35 77.94 188.23 78.66 188.04C78.69 188.04 78.72 188.02 78.74 188.02V188.7C78.74 188.76 78.71 188.82 78.68 188.87C78.64 188.92 78.6 188.96 78.55 188.99C78.47 189.05 78.37 189.1 78.27 189.14C78.08 189.22 77.86 189.28 77.65 189.32C77.25 189.4 76.82 189.44 76.41 189.44H76.26C75.51 189.44 74.63 189.33 74.08 188.73C73.55 188.15 73.45 187.26 73.45 186.53C73.45 185.8 73.54 184.83 74.11 184.24C74.69 183.65 75.64 183.56 76.39 183.56H76.56C77.13 183.56 77.78 183.65 78.26 184C78.8 184.38 78.98 184.97 78.98 185.6C78.98 185.85 78.93 186.1 78.79 186.32C78.66 186.54 78.46 186.7 78.23 186.81C77.82 187.02 77.29 187.08 76.84 187.08C76.39 187.08 75.66 187.04 75.21 186.96C75.19 186.96 75.17 186.96 75.15 186.96V186.14H77.12C77.27 186.14 77.44 186.12 77.56 186.02C77.68 185.91 77.71 185.74 77.71 185.59C77.71 185.44 77.71 185.26 77.66 185.12L77.67 185.08Z" fill="#898989"/>
<path d="M87.38 189.35H86.26V185.73C86.26 185.46 86.22 185.14 86.03 184.92C85.83 184.69 85.52 184.64 85.24 184.64C84.96 184.64 84.67 184.7 84.48 184.94C84.31 185.16 84.28 185.47 84.28 185.73V189.35H83.13V185.73C83.13 185.46 83.11 185.12 82.91 184.9C82.71 184.68 82.36 184.65 82.09 184.65C81.82 184.65 81.51 184.7 81.33 184.94C81.16 185.16 81.14 185.47 81.14 185.73V189.35H80.03V185.73C80.03 185.23 80.14 184.67 80.45 184.26C80.79 183.8 81.3 183.64 81.85 183.64H82.48C82.88 183.64 83.41 183.84 83.7 184.12C84 183.77 84.5 183.64 84.94 183.64H85.62C86.14 183.64 86.66 183.87 86.98 184.29C87.29 184.7 87.38 185.24 87.38 185.73V189.35Z" fill="#898989"/>
<path d="M93.78 187.69C93.67 188.09 93.48 188.46 93.19 188.76C92.6 189.37 91.77 189.5 90.98 189.44C90.31 189.49 89.45 189.29 88.94 188.82C88.54 188.44 88.38 187.95 88.38 187.41C88.38 187.14 88.45 186.88 88.6 186.66C88.75 186.44 88.97 186.28 89.21 186.17C89.65 185.97 90.2 185.92 90.68 185.92C90.93 185.92 91.96 186.08 92.19 186.16C92.2 186.16 92.22 186.17 92.23 186.18V186.86H90.16C90 186.86 89.86 186.9 89.76 187.04C89.67 187.16 89.65 187.32 89.65 187.46C89.65 187.67 89.65 187.89 89.78 188.07C89.91 188.26 90.14 188.32 90.35 188.33H90.48C90.92 188.36 91.94 188.46 92.31 188.05C92.62 187.71 92.64 186.92 92.64 186.5C92.64 186 92.6 185.28 92.19 184.89C91.56 184.31 89.31 184.79 88.68 184.92C88.65 184.92 88.63 184.93 88.6 184.94V184.26C88.6 184.21 88.64 184.15 88.67 184.11C88.7 184.07 88.74 184.03 88.79 183.99C88.87 183.92 88.97 183.87 89.07 183.83C89.26 183.74 89.47 183.69 89.67 183.65C90.06 183.57 90.5 183.55 90.9 183.55C91.65 183.55 92.6 183.62 93.19 184.19C93.78 184.77 93.89 185.71 93.89 186.47C93.93 186.85 93.87 187.32 93.77 187.68L93.78 187.69Z" fill="#898989"/>
<path d="M109.75 47.88H35.57V171.05H109.75V47.88Z" fill="url(#paint0_linear_337_2)"/>
<path d="M129.86 300.06L130.5 300.03" stroke="#231815" stroke-width="0.75" stroke-linecap="round" stroke-linejoin="round"/>
<path d="M127.49 302.22H128.9" stroke="#231815" stroke-width="0.75" stroke-linecap="round" stroke-linejoin="round"/>
<path d="M16.42 302.22H17.83" stroke="#231815" stroke-width="0.75" stroke-linecap="round" stroke-linejoin="round"/>
<path d="M126.79 302.21H18.53" stroke="#231815" stroke-width="0.75" stroke-linecap="round" stroke-linejoin="round"/>
<path d="M56.86 297.2H88.46" stroke="#231815" stroke-width="0.75" stroke-linecap="round" stroke-linejoin="round"/>
<path d="M52.87 292.77H48.61" stroke="#231815" stroke-width="0.75" stroke-linecap="round" stroke-linejoin="round"/>
<path d="M88.46 290.94H56.86" stroke="#231815" stroke-width="0.75" stroke-linecap="round" stroke-linejoin="round"/>
<path d="M48.61 290.66H52.87" stroke="#231815" stroke-width="0.75" stroke-linecap="round" stroke-linejoin="round"/>
<path d="M129.85 237.68L130.38 237.63" stroke="#231815" stroke-width="0.75" stroke-linecap="round" stroke-linejoin="round"/>
<path d="M21.31 240.05H28.74" stroke="#231815" stroke-width="0.75" stroke-linecap="round" stroke-linejoin="round"/>
<path d="M30.21 240.05H115.11" stroke="#231815" stroke-width="0.75" stroke-linecap="round" stroke-linejoin="round"/>
<path d="M116.58 240.05H124" stroke="#231815" stroke-width="0.75" stroke-linecap="round" stroke-linejoin="round"/>
<path d="M128.9 239.85H128.02" stroke="#231815" stroke-width="0.75" stroke-linecap="round" stroke-linejoin="round"/>
<path d="M17.3 239.85H16.42" stroke="#231815" stroke-width="0.75" stroke-linecap="round" stroke-linejoin="round"/>
<path d="M130.03 238.72H129.14" stroke="#231815" stroke-width="0.75" stroke-linecap="round" stroke-linejoin="round"/>
<path d="M16.18 238.72H15.28" stroke="#231815" stroke-width="0.75" stroke-linecap="round" stroke-linejoin="round"/>
<path d="M129.56 241.99L130.5 242.04" stroke="#231815" stroke-width="0.75" stroke-linecap="round" stroke-linejoin="round"/>
<path d="M15.46 237.68L14.94 237.63" stroke="#231815" stroke-width="0.75" stroke-linecap="round" stroke-linejoin="round"/>
<path d="M120.71 234.75H24.61" stroke="#231815" stroke-width="0.75" stroke-linecap="round" stroke-linejoin="round"/>
<path d="M14.94 16.73V16.72" stroke="#231815" stroke-width="0.75" stroke-linecap="round" stroke-linejoin="round"/>
<circle cx="14.55" cy="17.15" r="0.375" fill="#231815"/>
<path d="M15.28 15.66V16.51" stroke="#231815" stroke-width="0.75" stroke-linecap="round" stroke-linejoin="round"/>
<path d="M15.28 237.84V238.72" stroke="#231815" stroke-width="0.75" stroke-linecap="round" stroke-linejoin="round"/>
<path d="M15.99 243.57V296.18" stroke="#231815" stroke-width="0.75" stroke-linecap="round" stroke-linejoin="round"/>
<path d="M20.36 230.5V23.85" stroke="#231815" stroke-width="0.75" stroke-linecap="round" stroke-linejoin="round"/>
<circle cx="14.55" cy="237.21" r="0.375" fill="#231815"/>
<path d="M15.28 241.81V241.8" stroke="#231815" stroke-width="0.75" stroke-linecap="round" stroke-linejoin="round"/>
<path d="M35.57 171.04V47.88" stroke="#231815" stroke-width="0.75" stroke-linecap="round" stroke-linejoin="round"/>
<path d="M129.55 237.45L129.52 237.43" stroke="#231815" stroke-width="0.75" stroke-linecap="round" stroke-linejoin="round"/>
<path d="M129.55 237.45L129.52 237.43" stroke="#231815" stroke-width="0.75" stroke-linecap="round" stroke-linejoin="round"/>
<path d="M56.15 291.35V296.8" stroke="#231815" stroke-width="0.75" stroke-linecap="round" stroke-linejoin="round"/>
<path d="M109.75 171.04H35.57" stroke="#231815" stroke-width="0.75" stroke-linecap="round" stroke-linejoin="round"/>
<path d="M89.17 296.8V291.35" stroke="#231815" stroke-width="0.75" stroke-linecap="round" stroke-linejoin="round"/>
<path d="M109.75 47.88V171.04" stroke="#231815" stroke-width="0.75" stroke-linecap="round" stroke-linejoin="round"/>
<path d="M130.03 241.8V241.81" stroke="#231815" stroke-width="0.75" stroke-linecap="round" stroke-linejoin="round"/>
<circle cx="130.77" cy="237.21" r="0.375" fill="#231815"/>
<path d="M130.77 242.33V242.32" stroke="#231815" stroke-width="0.75" stroke-linecap="round" stroke-linejoin="round"/>
<circle cx="130.77" cy="242.33" r="0.375" fill="#231815"/>
<path d="M124.95 23.85V230.5" stroke="#231815" stroke-width="0.75" stroke-linecap="round" stroke-linejoin="round"/>
<path d="M129.33 243.57V296.18" stroke="#231815" stroke-width="0.75" stroke-linecap="round" stroke-linejoin="round"/>
<path d="M130.03 238.72V237.84" stroke="#231815" stroke-width="0.75" stroke-linecap="round" stroke-linejoin="round"/>
<path d="M130.03 16.51V15.66" stroke="#231815" stroke-width="0.75" stroke-linecap="round" stroke-linejoin="round"/>
<circle cx="130.77" cy="299.74" r="0.375" fill="#231815"/>
<circle cx="130.77" cy="17.15" r="0.375" fill="#231815"/>
<path d="M130.38 16.72V16.73" stroke="#231815" stroke-width="0.75" stroke-linecap="round" stroke-linejoin="round"/>
<path d="M15.76 16.91L15.8 16.93" stroke="#231815" stroke-width="0.75" stroke-linecap="round" stroke-linejoin="round"/>
<path d="M15.77 16.91L15.8 16.93" stroke="#231815" stroke-width="0.75" stroke-linecap="round" stroke-linejoin="round"/>
<path d="M35.57 47.88H109.75" stroke="#231815" stroke-width="0.75" stroke-linecap="round" stroke-linejoin="round"/>
<path d="M15.46 16.68L14.94 16.72" stroke="#231815" stroke-width="0.75" stroke-linecap="round" stroke-linejoin="round"/>
<path d="M24.61 19.61H120.71" stroke="#231815" stroke-width="0.75" stroke-linecap="round" stroke-linejoin="round"/>
<path d="M128.9 14.53H16.41" stroke="#231815" stroke-width="0.75" stroke-linecap="round" stroke-linejoin="round"/>
<path d="M129.85 16.68L130.38 16.72" stroke="#231815" stroke-width="0.75" stroke-linecap="round" stroke-linejoin="round"/>
<path d="M15.48 300.04C15.48 300.04 15.4 300.11 15.37 300.15" stroke="#231815" stroke-width="0.75" stroke-linecap="round" stroke-linejoin="round"/>
<path d="M15.36 300.15C15.36 300.15 15.32 300.19 15.31 300.2" stroke="#231815" stroke-width="0.75" stroke-linecap="round" stroke-linejoin="round"/>
<path d="M20.36 230.5C20.36 232.85 22.26 234.75 24.61 234.75" stroke="#231815" stroke-width="0.75" stroke-linecap="round" stroke-linejoin="round"/>
<path d="M15.8 237.43C15.73 237.48 15.67 237.52 15.6 237.57" stroke="#231815" stroke-width="0.75" stroke-linecap="round" stroke-linejoin="round"/>
<path d="M15.28 238.72C15.28 239.35 15.79 239.85 16.42 239.85" stroke="#231815" stroke-width="0.75" stroke-linecap="round" stroke-linejoin="round"/>
<path d="M14.55 237.21C14.55 237.43 14.72 237.61 14.94 237.63" stroke="#231815" stroke-width="0.75" stroke-linecap="round" stroke-linejoin="round"/>
<path d="M15.86 298.04C15.75 298.61 15.65 299.19 15.56 299.76" stroke="#231815" stroke-width="0.75" stroke-linecap="round" stroke-linejoin="round"/>
<path d="M15.95 16.17C16.02 16.22 16.1 16.26 16.18 16.3" stroke="#231815" stroke-width="0.75" stroke-linecap="round" stroke-linejoin="round"/>
<path d="M24.61 19.61C22.26 19.61 20.36 21.51 20.36 23.86" stroke="#231815" stroke-width="0.75" stroke-linecap="round" stroke-linejoin="round"/>
<path d="M15.6 16.79C15.65 16.83 15.71 16.87 15.77 16.91" stroke="#231815" stroke-width="0.75" stroke-linecap="round" stroke-linejoin="round"/>
<path d="M69.47 31.37C69.47 29.61 70.9 28.18 72.66 28.18C74.42 28.18 75.85 29.61 75.85 31.37C75.85 33.13 74.42 34.56 72.66 34.56C70.9 34.56 69.47 33.13 69.47 31.37Z" stroke="#231815" stroke-width="0.75" stroke-linecap="round" stroke-linejoin="round"/>
<path d="M16.41 14.53C15.79 14.53 15.28 15.04 15.28 15.66" stroke="#231815" stroke-width="0.75" stroke-linecap="round" stroke-linejoin="round"/>
<path d="M14.94 16.72C14.72 16.74 14.55 16.92 14.55 17.14" stroke="#231815" stroke-width="0.75" stroke-linecap="round" stroke-linejoin="round"/>
<path d="M129.76 299.76C129.67 299.19 129.57 298.61 129.46 298.04" stroke="#231815" stroke-width="0.75" stroke-linecap="round" stroke-linejoin="round"/>
<path d="M129.9 300.1C129.9 300.1 129.86 300.06 129.84 300.05" stroke="#231815" stroke-width="0.75" stroke-linecap="round" stroke-linejoin="round"/>
<path d="M129.95 300.15C129.95 300.15 129.91 300.11 129.89 300.1" stroke="#231815" stroke-width="0.75" stroke-linecap="round" stroke-linejoin="round"/>
<path d="M130.01 300.21C130.01 300.21 129.98 300.17 129.96 300.16" stroke="#231815" stroke-width="0.75" stroke-linecap="round" stroke-linejoin="round"/>
<path d="M130.5 300.03C130.65 300.03 130.77 299.9 130.77 299.75" stroke="#231815" stroke-width="0.75" stroke-linecap="round" stroke-linejoin="round"/>
<path d="M129.53 242C129.59 241.98 129.65 241.96 129.71 241.94" stroke="#231815" stroke-width="0.75" stroke-linecap="round" stroke-linejoin="round"/>
<path d="M129.71 241.94C129.76 241.92 129.82 241.9 129.87 241.88" stroke="#231815" stroke-width="0.75" stroke-linecap="round" stroke-linejoin="round"/>
<path d="M120.71 234.75C123.06 234.75 124.96 232.85 124.96 230.5" stroke="#231815" stroke-width="0.75" stroke-linecap="round" stroke-linejoin="round"/>
<path d="M129.72 237.57C129.67 237.53 129.61 237.49 129.55 237.45" stroke="#231815" stroke-width="0.75" stroke-linecap="round" stroke-linejoin="round"/>
<path d="M129.86 241.88C129.86 241.88 129.95 241.84 130 241.82" stroke="#231815" stroke-width="0.75" stroke-linecap="round" stroke-linejoin="round"/>
<path d="M128.9 239.85C129.53 239.85 130.04 239.34 130.04 238.72" stroke="#231815" stroke-width="0.75" stroke-linecap="round" stroke-linejoin="round"/>
<path d="M130.38 237.63C130.6 237.61 130.77 237.43 130.77 237.21" stroke="#231815" stroke-width="0.75" stroke-linecap="round" stroke-linejoin="round"/>
<path d="M130.73 242.18C130.68 242.1 130.6 242.05 130.5 242.04" stroke="#231815" stroke-width="0.75" stroke-linecap="round" stroke-linejoin="round"/>
<path d="M129.14 16.31C129.21 16.27 129.29 16.23 129.36 16.18" stroke="#231815" stroke-width="0.75" stroke-linecap="round" stroke-linejoin="round"/>
<path d="M124.95 23.85C124.95 21.5 123.05 19.6 120.7 19.6" stroke="#231815" stroke-width="0.75" stroke-linecap="round" stroke-linejoin="round"/>
<path d="M129.52 16.93C129.59 16.88 129.65 16.84 129.72 16.79" stroke="#231815" stroke-width="0.75" stroke-linecap="round" stroke-linejoin="round"/>
<path d="M130.03 15.66C130.03 15.04 129.52 14.53 128.9 14.53" stroke="#231815" stroke-width="0.75" stroke-linecap="round" stroke-linejoin="round"/>
<path d="M130.77 17.15C130.77 16.93 130.6 16.75 130.38 16.73" stroke="#231815" stroke-width="0.75" stroke-linecap="round" stroke-linejoin="round"/>
<path d="M130.73 242.18C130.73 242.18 130.77 242.27 130.77 242.32" stroke="#231815" stroke-width="0.75" stroke-linecap="round" stroke-linejoin="round"/>
<path d="M56.86 290.94C56.86 290.94 56.84 290.94 56.83 290.94C56.82 290.94 56.81 290.94 56.8 290.94C56.79 290.94 56.78 290.94 56.77 290.94C56.77 290.94 56.76 290.94 56.75 290.94C56.75 290.94 56.74 290.94 56.73 290.94C56.72 290.94 56.71 290.94 56.7 290.94C56.69 290.94 56.68 290.94 56.67 290.94C56.67 290.94 56.66 290.94 56.65 290.94C56.65 290.94 56.64 290.94 56.63 290.94C56.62 290.94 56.61 290.94 56.6 290.94C56.59 290.94 56.58 290.94 56.57 290.94C56.57 290.94 56.56 290.94 56.55 290.94C56.55 290.94 56.55 290.94 56.54 290.94C56.54 290.94 56.52 290.94 56.51 290.95C56.51 290.95 56.51 290.95 56.5 290.95C56.49 290.95 56.5 290.95 56.49 290.95C56.48 290.95 56.49 290.95 56.48 290.95C56.48 290.95 56.48 290.95 56.47 290.95C56.47 290.95 56.46 290.96 56.45 290.97C56.44 290.98 56.44 290.98 56.43 290.99C56.43 290.99 56.43 290.99 56.42 290.99C56.42 290.99 56.41 291 56.4 291.01C56.4 291.01 56.4 291.02 56.39 291.03C56.39 291.03 56.39 291.03 56.39 291.04C56.39 291.05 56.39 291.04 56.39 291.05C56.39 291.06 56.39 291.05 56.39 291.06C56.39 291.06 56.39 291.07 56.39 291.08C56.39 291.09 56.39 291.09 56.39 291.1" stroke="#231815" stroke-width="0.75" stroke-linecap="round" stroke-linejoin="round"/>
<path d="M89.17 291.35C89.17 291.35 89.17 291.34 89.17 291.33C89.17 291.32 89.17 291.32 89.17 291.31C89.17 291.31 89.17 291.3 89.17 291.29C89.17 291.29 89.16 291.28 89.15 291.27C89.15 291.27 89.15 291.27 89.14 291.27C89.13 291.27 89.14 291.27 89.13 291.27C89.12 291.27 89.13 291.27 89.12 291.27C89.12 291.27 89.11 291.26 89.1 291.25C89.1 291.25 89.1 291.25 89.09 291.25C89.09 291.25 89.09 291.25 89.08 291.25C89.08 291.25 89.06 291.25 89.05 291.24C89.04 291.23 89.03 291.24 89.02 291.23C89.02 291.23 89.02 291.23 89.01 291.23C89.01 291.23 89 291.23 88.99 291.23C88.98 291.23 88.97 291.23 88.96 291.23C88.95 291.23 88.94 291.23 88.93 291.23C88.93 291.23 88.92 291.23 88.91 291.23C88.91 291.23 88.9 291.23 88.89 291.23C88.88 291.23 88.87 291.23 88.86 291.23C88.85 291.23 88.84 291.23 88.83 291.23C88.83 291.23 88.82 291.23 88.81 291.23C88.81 291.23 88.8 291.23 88.79 291.23C88.78 291.23 88.77 291.23 88.75 291.23C88.73 291.23 88.73 291.23 88.71 291.23C88.69 291.23 88.69 291.23 88.67 291.23" stroke="#231815" stroke-width="0.75" stroke-linecap="round" stroke-linejoin="round"/>
<path d="M88.46 297.2C88.46 297.2 88.48 297.2 88.49 297.2C88.5 297.2 88.51 297.2 88.52 297.2C88.53 297.2 88.54 297.2 88.55 297.2C88.55 297.2 88.56 297.2 88.57 297.2C88.57 297.2 88.58 297.2 88.59 297.2C88.6 297.2 88.61 297.2 88.62 297.2C88.63 297.2 88.64 297.2 88.65 297.2C88.65 297.2 88.66 297.2 88.67 297.2C88.67 297.2 88.68 297.2 88.69 297.2C88.7 297.2 88.71 297.2 88.72 297.2C88.73 297.2 88.74 297.2 88.75 297.2C88.75 297.2 88.76 297.2 88.77 297.2C88.77 297.2 88.77 297.2 88.78 297.2C88.78 297.2 88.8 297.2 88.81 297.19C88.81 297.19 88.81 297.19 88.82 297.19C88.83 297.19 88.82 297.19 88.83 297.19C88.84 297.19 88.83 297.19 88.84 297.19C88.84 297.19 88.84 297.19 88.85 297.19C88.85 297.19 88.86 297.18 88.87 297.17C88.88 297.16 88.88 297.16 88.89 297.15C88.89 297.15 88.89 297.15 88.9 297.15C88.9 297.15 88.91 297.14 88.92 297.13C88.92 297.13 88.92 297.12 88.93 297.11C88.93 297.11 88.93 297.11 88.93 297.1C88.93 297.09 88.93 297.1 88.93 297.09C88.93 297.08 88.93 297.09 88.93 297.08C88.93 297.08 88.93 297.07 88.93 297.06C88.93 297.05 88.93 297.05 88.93 297.04" stroke="#231815" stroke-width="0.75" stroke-linecap="round" stroke-linejoin="round"/>
<path d="M52.87 292.77C52.87 292.77 52.93 292.77 52.96 292.77C52.99 292.77 53.02 292.77 53.05 292.77C53.06 292.77 53.08 292.77 53.09 292.77C53.1 292.77 53.12 292.77 53.13 292.77C53.13 292.77 53.14 292.77 53.15 292.77C53.16 292.77 53.16 292.77 53.17 292.77C53.18 292.77 53.18 292.77 53.19 292.77C53.19 292.77 53.19 292.77 53.2 292.77C53.2 292.77 53.2 292.77 53.21 292.77C53.21 292.77 53.22 292.77 53.23 292.77C53.24 292.77 53.24 292.77 53.25 292.77C53.26 292.77 53.26 292.77 53.27 292.77C53.28 292.77 53.3 292.77 53.31 292.77C53.32 292.77 53.34 292.77 53.35 292.77C53.36 292.77 53.38 292.77 53.39 292.77C53.4 292.77 53.42 292.77 53.43 292.77C53.43 292.77 53.44 292.77 53.45 292.77C53.46 292.77 53.46 292.77 53.47 292.77C53.48 292.77 53.48 292.77 53.49 292.77C53.49 292.77 53.49 292.77 53.5 292.77C53.5 292.77 53.51 292.77 53.52 292.77C53.53 292.77 53.53 292.77 53.54 292.77C53.55 292.77 53.55 292.77 53.56 292.77C53.57 292.77 53.59 292.77 53.6 292.76C53.61 292.75 53.63 292.76 53.64 292.75C53.65 292.74 53.67 292.75 53.68 292.74C53.69 292.73 53.71 292.74 53.72 292.73C53.72 292.73 53.73 292.73 53.74 292.73C53.75 292.73 53.75 292.73 53.76 292.73C53.77 292.73 53.77 292.73 53.78 292.73C53.78 292.73 53.79 292.73 53.8 292.73C53.81 292.73 53.81 292.73 53.82 292.73C53.83 292.73 53.83 292.73 53.84 292.73C53.85 292.73 53.86 292.72 53.88 292.71C53.9 292.7 53.9 292.7 53.92 292.69C53.94 292.68 53.94 292.68 53.96 292.67C53.98 292.66 53.98 292.66 54 292.65C54 292.65 54.01 292.65 54.02 292.65C54.03 292.65 54.03 292.65 54.04 292.65C54.05 292.65 54.05 292.65 54.06 292.65C54.06 292.65 54.06 292.65 54.07 292.65C54.08 292.65 54.07 292.65 54.08 292.65C54.09 292.65 54.08 292.65 54.09 292.65C54.09 292.65 54.11 292.64 54.12 292.63C54.13 292.62 54.14 292.62 54.15 292.61C54.16 292.6 54.17 292.6 54.18 292.59C54.19 292.58 54.2 292.58 54.21 292.57C54.21 292.57 54.21 292.57 54.22 292.57C54.23 292.57 54.22 292.57 54.23 292.57C54.24 292.57 54.23 292.57 54.24 292.57C54.24 292.57 54.24 292.57 54.25 292.56C54.26 292.55 54.25 292.56 54.26 292.55C54.27 292.54 54.26 292.55 54.27 292.54C54.27 292.54 54.28 292.52 54.29 292.52C54.3 292.52 54.3 292.5 54.31 292.5C54.32 292.5 54.32 292.48 54.33 292.48C54.34 292.48 54.34 292.46 54.35 292.46C54.35 292.46 54.35 292.46 54.36 292.45C54.37 292.44 54.36 292.45 54.37 292.44C54.38 292.43 54.37 292.44 54.38 292.43C54.38 292.43 54.38 292.43 54.38 292.42C54.38 292.41 54.38 292.42 54.38 292.41C54.38 292.4 54.38 292.41 54.38 292.4C54.38 292.4 54.38 292.38 54.39 292.38C54.4 292.38 54.39 292.36 54.4 292.36C54.41 292.36 54.4 292.34 54.41 292.34C54.42 292.34 54.41 292.32 54.42 292.32C54.42 292.32 54.42 292.32 54.42 292.31C54.42 292.3 54.42 292.31 54.42 292.3C54.42 292.29 54.42 292.3 54.42 292.29C54.42 292.29 54.42 292.29 54.42 292.28C54.42 292.27 54.42 292.28 54.42 292.27C54.42 292.26 54.42 292.27 54.42 292.26C54.42 292.26 54.42 292.24 54.42 292.23C54.42 292.22 54.42 292.21 54.42 292.2C54.42 292.19 54.42 292.18 54.42 292.17C54.42 292.16 54.42 292.15 54.42 292.14C54.42 292.14 54.42 292.14 54.42 292.13C54.42 292.12 54.42 292.13 54.42 292.12C54.42 292.11 54.42 292.12 54.42 292.11C54.42 292.11 54.42 292.11 54.42 292.1C54.42 292.09 54.42 292.1 54.42 292.09C54.42 292.08 54.42 292.09 54.42 292.08C54.42 292.08 54.42 292.06 54.42 292.05C54.42 292.04 54.42 292.03 54.42 292.02C54.42 292.01 54.42 292 54.42 291.99C54.42 291.98 54.42 291.97 54.42 291.96C54.42 291.96 54.42 291.96 54.42 291.95C54.42 291.94 54.42 291.95 54.42 291.94C54.42 291.93 54.42 291.94 54.42 291.93C54.42 291.93 54.42 291.93 54.42 291.92C54.42 291.91 54.42 291.92 54.42 291.91C54.42 291.9 54.42 291.91 54.42 291.9C54.42 291.9 54.42 291.88 54.41 291.88C54.4 291.88 54.41 291.86 54.4 291.86C54.39 291.86 54.4 291.84 54.39 291.84C54.38 291.84 54.39 291.82 54.38 291.82C54.38 291.82 54.38 291.82 54.38 291.81C54.38 291.8 54.38 291.81 54.38 291.8C54.38 291.79 54.38 291.8 54.38 291.79C54.38 291.79 54.38 291.79 54.37 291.78C54.36 291.77 54.37 291.78 54.36 291.77C54.35 291.76 54.36 291.77 54.35 291.76C54.35 291.76 54.34 291.74 54.33 291.74C54.32 291.74 54.32 291.72 54.31 291.72C54.3 291.72 54.3 291.7 54.29 291.7C54.28 291.7 54.28 291.68 54.27 291.68C54.27 291.68 54.27 291.68 54.26 291.67C54.25 291.66 54.26 291.67 54.25 291.66C54.24 291.65 54.25 291.66 54.24 291.65C54.24 291.65 54.24 291.65 54.23 291.64C54.22 291.63 54.23 291.64 54.22 291.63C54.21 291.62 54.22 291.63 54.21 291.62C54.21 291.62 54.19 291.61 54.18 291.6C54.17 291.59 54.16 291.59 54.15 291.58C54.14 291.57 54.13 291.57 54.12 291.56C54.11 291.55 54.1 291.55 54.09 291.54C54.09 291.54 54.09 291.54 54.08 291.53C54.07 291.52 54.08 291.53 54.07 291.52C54.06 291.51 54.07 291.52 54.06 291.51C54.06 291.51 54.05 291.51 54.04 291.51C54.03 291.51 54.03 291.51 54.02 291.51C54.01 291.51 54.01 291.51 54 291.51C53.99 291.51 53.98 291.5 53.97 291.49C53.96 291.48 53.95 291.48 53.94 291.47C53.93 291.46 53.92 291.46 53.91 291.45C53.9 291.44 53.89 291.44 53.88 291.43C53.88 291.43 53.87 291.43 53.86 291.43C53.85 291.43 53.85 291.43 53.84 291.43C53.83 291.43 53.83 291.43 53.82 291.43C53.82 291.43 53.81 291.43 53.8 291.43C53.79 291.43 53.79 291.43 53.78 291.43C53.77 291.43 53.77 291.43 53.76 291.43C53.75 291.43 53.73 291.43 53.72 291.42C53.71 291.41 53.69 291.42 53.68 291.41C53.67 291.4 53.65 291.41 53.64 291.4C53.63 291.39 53.61 291.4 53.6 291.39C53.6 291.39 53.59 291.39 53.58 291.39C53.57 291.39 53.57 291.39 53.56 291.39C53.55 291.39 53.55 291.39 53.54 291.39C53.54 291.39 53.54 291.39 53.53 291.39C53.53 291.39 53.52 291.39 53.51 291.39C53.5 291.39 53.5 291.39 53.49 291.39C53.48 291.39 53.48 291.39 53.47 291.39C53.46 291.39 53.44 291.39 53.43 291.39C53.42 291.39 53.4 291.39 53.39 291.39C53.38 291.39 53.36 291.39 53.35 291.39C53.34 291.39 53.32 291.39 53.31 291.39C53.31 291.39 53.3 291.39 53.29 291.39C53.28 291.39 53.28 291.39 53.27 291.39C53.26 291.39 53.26 291.39 53.25 291.39C53.25 291.39 53.25 291.39 53.24 291.39C53.24 291.39 53.24 291.39 53.23 291.39H53.21H53.19H53.17C53.15 291.39 53.14 291.39 53.12 291.39C53.1 291.39 53.09 291.39 53.07 291.39C53.04 291.39 53.01 291.39 52.98 291.39C52.95 291.39 52.92 291.39 52.89 291.39" stroke="#231815" stroke-width="0.75" stroke-linecap="round" stroke-linejoin="round"/>
<path d="M48.61 290.66C48.61 290.66 48.55 290.66 48.52 290.66C48.49 290.66 48.46 290.66 48.43 290.66C48.42 290.66 48.4 290.66 48.39 290.66C48.38 290.66 48.36 290.66 48.35 290.66C48.35 290.66 48.34 290.66 48.33 290.66C48.32 290.66 48.32 290.66 48.31 290.66C48.3 290.66 48.3 290.66 48.29 290.66C48.29 290.66 48.29 290.66 48.28 290.66C48.28 290.66 48.28 290.66 48.27 290.66C48.27 290.66 48.26 290.66 48.25 290.66C48.24 290.66 48.24 290.66 48.23 290.66C48.22 290.66 48.22 290.66 48.21 290.66C48.2 290.66 48.18 290.66 48.17 290.66C48.16 290.66 48.14 290.66 48.13 290.66C48.12 290.66 48.1 290.66 48.09 290.66C48.08 290.66 48.06 290.66 48.05 290.66C48.05 290.66 48.04 290.66 48.03 290.66C48.02 290.66 48.02 290.66 48.01 290.66C48 290.66 48 290.66 47.99 290.66C47.99 290.66 47.99 290.66 47.98 290.66C47.98 290.66 47.97 290.66 47.96 290.66C47.95 290.66 47.95 290.66 47.94 290.66C47.93 290.66 47.93 290.66 47.92 290.66C47.91 290.66 47.89 290.66 47.88 290.67C47.87 290.68 47.85 290.67 47.84 290.68C47.83 290.69 47.81 290.68 47.8 290.69C47.79 290.7 47.77 290.69 47.76 290.7C47.76 290.7 47.75 290.7 47.74 290.7C47.73 290.7 47.73 290.7 47.72 290.7C47.71 290.7 47.71 290.7 47.7 290.7C47.7 290.7 47.69 290.7 47.68 290.7C47.67 290.7 47.67 290.7 47.66 290.7C47.65 290.7 47.65 290.7 47.64 290.7C47.63 290.7 47.62 290.71 47.6 290.72C47.58 290.73 47.58 290.73 47.56 290.74C47.54 290.75 47.54 290.75 47.52 290.76C47.5 290.77 47.5 290.77 47.48 290.78C47.48 290.78 47.47 290.78 47.46 290.78C47.45 290.78 47.45 290.78 47.44 290.78C47.43 290.78 47.43 290.78 47.42 290.78C47.42 290.78 47.42 290.78 47.41 290.78C47.4 290.78 47.41 290.78 47.4 290.78C47.39 290.78 47.4 290.78 47.39 290.78C47.39 290.78 47.37 290.79 47.36 290.8C47.35 290.81 47.34 290.81 47.33 290.82C47.32 290.83 47.31 290.83 47.3 290.84C47.29 290.85 47.28 290.85 47.27 290.86C47.27 290.86 47.27 290.86 47.26 290.86C47.25 290.86 47.26 290.86 47.25 290.86C47.24 290.86 47.25 290.86 47.24 290.86C47.24 290.86 47.24 290.86 47.23 290.87C47.22 290.88 47.23 290.87 47.22 290.88C47.21 290.89 47.22 290.88 47.21 290.89C47.21 290.89 47.2 290.91 47.19 290.91C47.18 290.91 47.18 290.93 47.17 290.93C47.16 290.93 47.16 290.95 47.15 290.95C47.14 290.95 47.14 290.97 47.13 290.97C47.13 290.97 47.13 290.97 47.12 290.98C47.11 290.99 47.12 290.98 47.11 290.99C47.1 291 47.11 290.99 47.1 291C47.1 291 47.1 291 47.1 291.01C47.1 291.02 47.1 291.01 47.1 291.02C47.1 291.03 47.1 291.02 47.1 291.03C47.1 291.03 47.1 291.05 47.09 291.05C47.08 291.05 47.09 291.07 47.08 291.07C47.07 291.07 47.08 291.09 47.07 291.09C47.06 291.09 47.07 291.11 47.06 291.11C47.06 291.11 47.06 291.11 47.06 291.12C47.06 291.13 47.06 291.12 47.06 291.13C47.06 291.14 47.06 291.13 47.06 291.14C47.06 291.14 47.06 291.14 47.06 291.15C47.06 291.16 47.06 291.15 47.06 291.16C47.06 291.17 47.06 291.16 47.06 291.17C47.06 291.17 47.06 291.19 47.06 291.2C47.06 291.21 47.06 291.22 47.06 291.23C47.06 291.24 47.06 291.25 47.06 291.26C47.06 291.27 47.06 291.28 47.06 291.29C47.06 291.29 47.06 291.29 47.06 291.3C47.06 291.31 47.06 291.3 47.06 291.31C47.06 291.32 47.06 291.31 47.06 291.32C47.06 291.32 47.06 291.32 47.06 291.33C47.06 291.34 47.06 291.33 47.06 291.34C47.06 291.35 47.06 291.34 47.06 291.35C47.06 291.35 47.06 291.37 47.06 291.38C47.06 291.39 47.06 291.4 47.06 291.41C47.06 291.42 47.06 291.43 47.06 291.44C47.06 291.45 47.06 291.46 47.06 291.47C47.06 291.47 47.06 291.47 47.06 291.48C47.06 291.49 47.06 291.48 47.06 291.49C47.06 291.5 47.06 291.49 47.06 291.5C47.06 291.5 47.06 291.5 47.06 291.51C47.06 291.52 47.06 291.51 47.06 291.52C47.06 291.53 47.06 291.52 47.06 291.53C47.06 291.53 47.06 291.55 47.07 291.55C47.08 291.55 47.07 291.57 47.08 291.57C47.09 291.57 47.08 291.59 47.09 291.59C47.1 291.59 47.09 291.61 47.1 291.61C47.1 291.61 47.1 291.61 47.1 291.62C47.1 291.63 47.1 291.62 47.1 291.63C47.1 291.64 47.1 291.63 47.1 291.64C47.1 291.64 47.1 291.64 47.11 291.65C47.12 291.66 47.11 291.65 47.12 291.66C47.13 291.67 47.12 291.66 47.13 291.67C47.13 291.67 47.14 291.69 47.15 291.69C47.16 291.69 47.16 291.71 47.17 291.71C47.18 291.71 47.18 291.73 47.19 291.73C47.2 291.73 47.2 291.75 47.21 291.75C47.21 291.75 47.21 291.75 47.22 291.76C47.23 291.77 47.22 291.76 47.23 291.77C47.24 291.78 47.23 291.77 47.24 291.78C47.24 291.78 47.24 291.78 47.25 291.79C47.26 291.8 47.25 291.79 47.26 291.8C47.27 291.81 47.26 291.8 47.27 291.81C47.27 291.81 47.29 291.82 47.3 291.83C47.31 291.84 47.32 291.84 47.33 291.85C47.34 291.86 47.35 291.86 47.36 291.87C47.37 291.88 47.38 291.88 47.39 291.89C47.39 291.89 47.39 291.89 47.4 291.9C47.41 291.91 47.4 291.9 47.41 291.91C47.42 291.92 47.41 291.91 47.42 291.92C47.42 291.92 47.43 291.92 47.44 291.92C47.45 291.92 47.45 291.92 47.46 291.92C47.47 291.92 47.47 291.92 47.48 291.92C47.49 291.92 47.5 291.93 47.51 291.94C47.52 291.95 47.53 291.95 47.54 291.96C47.55 291.97 47.56 291.97 47.57 291.98C47.58 291.99 47.59 291.99 47.6 292C47.6 292 47.61 292 47.62 292C47.63 292 47.63 292 47.64 292C47.65 292 47.65 292 47.66 292C47.66 292 47.67 292 47.68 292C47.69 292 47.69 292 47.7 292C47.71 292 47.71 292 47.72 292C47.73 292 47.75 292 47.76 292.01C47.77 292.02 47.79 292.01 47.8 292.02C47.81 292.03 47.83 292.02 47.84 292.03C47.85 292.04 47.87 292.03 47.88 292.04C47.88 292.04 47.89 292.04 47.9 292.04C47.91 292.04 47.91 292.04 47.92 292.04C47.93 292.04 47.93 292.04 47.94 292.04C47.94 292.04 47.94 292.04 47.95 292.04C47.95 292.04 47.96 292.04 47.97 292.04C47.98 292.04 47.98 292.04 47.99 292.04C48 292.04 48 292.04 48.01 292.04C48.02 292.04 48.04 292.04 48.05 292.04C48.06 292.04 48.08 292.04 48.09 292.04C48.1 292.04 48.12 292.04 48.13 292.04C48.14 292.04 48.16 292.04 48.17 292.04C48.17 292.04 48.18 292.04 48.19 292.04C48.2 292.04 48.2 292.04 48.21 292.04C48.22 292.04 48.22 292.04 48.23 292.04C48.23 292.04 48.23 292.04 48.24 292.04C48.24 292.04 48.24 292.04 48.25 292.04H48.27H48.29H48.31C48.33 292.04 48.34 292.04 48.36 292.04C48.38 292.04 48.39 292.04 48.41 292.04C48.44 292.04 48.47 292.04 48.5 292.04C48.53 292.04 48.56 292.04 48.59 292.04" stroke="#231815" stroke-width="0.75" stroke-linecap="round" stroke-linejoin="round"/>
<path d="M56.15 296.8C56.15 296.8 56.15 296.81 56.15 296.82C56.15 296.83 56.15 296.83 56.15 296.84C56.15 296.84 56.15 296.85 56.15 296.86C56.15 296.86 56.16 296.87 56.17 296.88C56.17 296.88 56.17 296.88 56.18 296.88C56.19 296.88 56.18 296.88 56.19 296.88C56.2 296.88 56.19 296.88 56.2 296.88C56.2 296.88 56.21 296.89 56.22 296.9C56.22 296.9 56.22 296.9 56.23 296.9C56.23 296.9 56.23 296.9 56.24 296.9C56.24 296.9 56.26 296.9 56.27 296.91C56.28 296.92 56.29 296.91 56.3 296.92C56.3 296.92 56.3 296.92 56.31 296.92C56.31 296.92 56.32 296.92 56.33 296.92C56.34 296.92 56.35 296.92 56.36 296.92C56.37 296.92 56.38 296.92 56.39 296.92C56.39 296.92 56.4 296.92 56.41 296.92C56.41 296.92 56.42 296.92 56.43 296.92C56.44 296.92 56.45 296.92 56.46 296.92C56.47 296.92 56.48 296.92 56.49 296.92C56.49 296.92 56.5 296.92 56.51 296.92C56.51 296.92 56.52 296.92 56.53 296.92C56.54 296.92 56.55 296.92 56.57 296.92C56.59 296.92 56.59 296.92 56.61 296.92C56.63 296.92 56.63 296.92 56.65 296.92" stroke="#231815" stroke-width="0.75" stroke-linecap="round" stroke-linejoin="round"/>
<path d="M129.33 243.57C129.33 243.37 129.33 243.18 129.35 242.98C129.35 242.81 129.37 242.65 129.4 242.48C129.4 242.41 129.42 242.35 129.43 242.29C129.43 242.24 129.45 242.19 129.47 242.14C129.47 242.11 129.49 242.08 129.51 242.04C129.51 242.02 129.53 242.01 129.55 242" stroke="#231815" stroke-width="0.75" stroke-linecap="round" stroke-linejoin="round"/>
<path d="M129.46 298.04C129.46 298.04 129.45 297.97 129.44 297.93C129.42 297.8 129.4 297.67 129.39 297.53" stroke="#231815" stroke-width="0.75" stroke-linecap="round" stroke-linejoin="round"/>
<path d="M129.39 297.53C129.38 297.43 129.37 297.33 129.36 297.22C129.33 296.87 129.32 296.52 129.32 296.17" stroke="#231815" stroke-width="0.75" stroke-linecap="round" stroke-linejoin="round"/>
<path d="M129.84 300.04C129.84 300.04 129.81 299.98 129.8 299.95C129.78 299.88 129.77 299.82 129.76 299.76" stroke="#231815" stroke-width="0.75" stroke-linecap="round" stroke-linejoin="round"/>
<path d="M15.79 242C15.79 242 15.82 242.02 15.83 242.04C15.85 242.07 15.86 242.1 15.87 242.14C15.88 242.19 15.9 242.24 15.91 242.29C15.92 242.35 15.93 242.42 15.94 242.48C15.96 242.65 15.98 242.81 15.99 242.98C16 243.18 16.01 243.37 16.01 243.57" stroke="#231815" stroke-width="0.75" stroke-linecap="round" stroke-linejoin="round"/>
<path d="M15.79 242C15.79 242 15.7 241.97 15.66 241.95C15.55 241.91 15.43 241.87 15.32 241.82" stroke="#231815" stroke-width="0.75" stroke-linecap="round" stroke-linejoin="round"/>
<path d="M15.56 299.76C15.55 299.82 15.54 299.89 15.52 299.95C15.52 299.98 15.5 300.02 15.48 300.04" stroke="#231815" stroke-width="0.75" stroke-linecap="round" stroke-linejoin="round"/>
<path d="M15.99 296.18C15.99 296.31 15.99 296.43 15.99 296.56C15.99 296.91 15.96 297.25 15.93 297.6" stroke="#231815" stroke-width="0.75" stroke-linecap="round" stroke-linejoin="round"/>
<path d="M15.92 297.6C15.92 297.6 15.92 297.68 15.91 297.72C15.9 297.83 15.88 297.93 15.86 298.04" stroke="#231815" stroke-width="0.75" stroke-linecap="round" stroke-linejoin="round"/>
<path d="M18.53 302.21C18.3 302.21 18.06 302.21 17.83 302.21" stroke="#231815" stroke-width="0.75" stroke-linecap="round" stroke-linejoin="round"/>
<path d="M127.49 302.22C127.26 302.22 127.02 302.22 126.79 302.22" stroke="#231815" stroke-width="0.75" stroke-linecap="round" stroke-linejoin="round"/>
<path d="M15.6 237.57C15.54 237.61 15.48 237.66 15.43 237.71" stroke="#231815" stroke-width="0.75" stroke-linecap="round" stroke-linejoin="round"/>
<path d="M15.43 237.71C15.43 237.71 15.33 237.8 15.28 237.85" stroke="#231815" stroke-width="0.75" stroke-linecap="round" stroke-linejoin="round"/>
<path d="M15.28 16.51C15.28 16.51 15.33 16.56 15.35 16.58C15.43 16.65 15.51 16.72 15.59 16.79" stroke="#231815" stroke-width="0.75" stroke-linecap="round" stroke-linejoin="round"/>
<path d="M129.72 16.79C129.78 16.75 129.84 16.7 129.89 16.65" stroke="#231815" stroke-width="0.75" stroke-linecap="round" stroke-linejoin="round"/>
<path d="M129.89 16.65C129.89 16.65 129.99 16.56 130.04 16.51" stroke="#231815" stroke-width="0.75" stroke-linecap="round" stroke-linejoin="round"/>
<path d="M130.03 237.84C130.03 237.84 129.98 237.79 129.96 237.77C129.88 237.7 129.8 237.63 129.72 237.56" stroke="#231815" stroke-width="0.75" stroke-linecap="round" stroke-linejoin="round"/>
<path d="M129.36 16.18C129.43 16.14 129.49 16.1 129.56 16.05C129.73 15.93 129.89 15.81 130.04 15.66" stroke="#231815" stroke-width="0.75" stroke-linecap="round" stroke-linejoin="round"/>
<path d="M15.28 15.66C15.28 15.66 15.37 15.75 15.42 15.79C15.58 15.94 15.77 16.06 15.95 16.18" stroke="#231815" stroke-width="0.75" stroke-linecap="round" stroke-linejoin="round"/>
<path d="M15.31 300.21C15.31 300.21 15.28 300.25 15.28 300.27" stroke="#231815" stroke-width="0.75" stroke-linecap="round" stroke-linejoin="round"/>
<path d="M130.01 241.82C130.01 241.82 130.04 241.81 130.04 241.8" stroke="#231815" stroke-width="0.75" stroke-linecap="round" stroke-linejoin="round"/>
<path d="M130.03 300.26C130.03 300.26 130.03 300.22 130 300.2" stroke="#231815" stroke-width="0.75" stroke-linecap="round" stroke-linejoin="round"/>
<path d="M15.28 241.8C15.28 241.8 15.29 241.81 15.31 241.82" stroke="#231815" stroke-width="0.75" stroke-linecap="round" stroke-linejoin="round"/>
<path d="M15.48 300.06L14.82 300.03" stroke="#231815" stroke-width="0.75" stroke-linecap="round" stroke-linejoin="round"/>
<path d="M22.62 288.18H122.7" stroke="#231815" stroke-width="0.75" stroke-linecap="round" stroke-linejoin="round"/>
<path d="M15.75 241.99L14.82 242.04" stroke="#231815" stroke-width="0.75" stroke-linecap="round" stroke-linejoin="round"/>
<path d="M127.82 241.19L128.79 241.14" stroke="#231815" stroke-width="0.75" stroke-linecap="round" stroke-linejoin="round"/>
<path d="M126.76 240.05H18.56" stroke="#231815" stroke-width="0.75" stroke-linecap="round" stroke-linejoin="round"/>
<path d="M128.02 239.85H17.3" stroke="#231815" stroke-width="0.75" stroke-linecap="round" stroke-linejoin="round"/>
<path d="M129.14 238.72H127.84" stroke="#231815" stroke-width="0.75" stroke-linecap="round" stroke-linejoin="round"/>
<path d="M17.48 238.72H16.18" stroke="#231815" stroke-width="0.75" stroke-linecap="round" stroke-linejoin="round"/>
<path d="M16.53 241.14L17.49 241.19" stroke="#231815" stroke-width="0.75" stroke-linecap="round" stroke-linejoin="round"/>
<path d="M15.28 301.08V301.13" stroke="#231815" stroke-width="0.75" stroke-linecap="round" stroke-linejoin="round"/>
<circle cx="14.55" cy="299.74" r="0.375" fill="#231815"/>
<path d="M14.55 17.15V237.21" stroke="#231815" stroke-width="0.75" stroke-linecap="round" stroke-linejoin="round"/>
<path d="M14.55 242.33V299.74" stroke="#231815" stroke-width="0.75" stroke-linecap="round" stroke-linejoin="round"/>
<path d="M15.28 301.08V300.26" stroke="#231815" stroke-width="0.75" stroke-linecap="round" stroke-linejoin="round"/>
<path d="M15.28 241.81V240.99" stroke="#231815" stroke-width="0.75" stroke-linecap="round" stroke-linejoin="round"/>
<path d="M18.1 18.34V237.02" stroke="#231815" stroke-width="0.75" stroke-linecap="round" stroke-linejoin="round"/>
<path d="M14.55 242.32V242.33" stroke="#231815" stroke-width="0.75" stroke-linecap="round" stroke-linejoin="round"/>
<path d="M15.29 240.91L15.28 240.99" stroke="#231815" stroke-width="0.75" stroke-linecap="round" stroke-linejoin="round"/>
<path d="M128.79 296.83L123.76 287.25" stroke="#231815" stroke-width="0.75" stroke-linecap="round" stroke-linejoin="round"/>
<path d="M21.56 287.25L16.53 296.83" stroke="#231815" stroke-width="0.75" stroke-linecap="round" stroke-linejoin="round"/>
<path d="M130.03 240.99V240.91" stroke="#231815" stroke-width="0.75" stroke-linecap="round" stroke-linejoin="round"/>
<path d="M130.03 240.99V240.91" stroke="#231815" stroke-width="0.75" stroke-linecap="round" stroke-linejoin="round"/>
<path d="M127.21 237.02V18.34" stroke="#231815" stroke-width="0.75" stroke-linecap="round" stroke-linejoin="round"/>
<path d="M130.03 301.08V300.26" stroke="#231815" stroke-width="0.75" stroke-linecap="round" stroke-linejoin="round"/>
<path d="M130.03 241.81V240.99" stroke="#231815" stroke-width="0.75" stroke-linecap="round" stroke-linejoin="round"/>
<path d="M130.77 237.21V17.15" stroke="#231815" stroke-width="0.75" stroke-linecap="round" stroke-linejoin="round"/>
<path d="M130.03 301.13V301.08" stroke="#231815" stroke-width="0.75" stroke-linecap="round" stroke-linejoin="round"/>
<path d="M127.79 16.64L128.79 16.41" stroke="#231815" stroke-width="0.75" stroke-linecap="round" stroke-linejoin="round"/>
<path d="M16.53 16.41L17.53 16.64" stroke="#231815" stroke-width="0.75" stroke-linecap="round" stroke-linejoin="round"/>
<path d="M15.28 301.13C15.29 301.41 15.41 301.68 15.61 301.88" stroke="#231815" stroke-width="0.75" stroke-linecap="round" stroke-linejoin="round"/>
<path d="M15.62 301.88C15.83 302.09 16.12 302.21 16.42 302.21" stroke="#231815" stroke-width="0.75" stroke-linecap="round" stroke-linejoin="round"/>
<path d="M14.55 299.74C14.55 299.89 14.67 300.02 14.82 300.02" stroke="#231815" stroke-width="0.75" stroke-linecap="round" stroke-linejoin="round"/>
<path d="M16.01 241.1C16.07 241.1 16.13 241.11 16.18 241.12" stroke="#231815" stroke-width="0.75" stroke-linecap="round" stroke-linejoin="round"/>
<path d="M16.42 239.85C16.12 239.85 15.83 239.97 15.62 240.18" stroke="#231815" stroke-width="0.75" stroke-linecap="round" stroke-linejoin="round"/>
<path d="M15.78 299.56C15.72 299.89 15.66 300.22 15.61 300.55" stroke="#231815" stroke-width="0.75" stroke-linecap="round" stroke-linejoin="round"/>
<path d="M15.97 298.59C15.9 298.91 15.84 299.24 15.78 299.56" stroke="#231815" stroke-width="0.75" stroke-linecap="round" stroke-linejoin="round"/>
<path d="M16.08 298.09C16.04 298.26 16.01 298.42 15.98 298.59" stroke="#231815" stroke-width="0.75" stroke-linecap="round" stroke-linejoin="round"/>
<path d="M16.18 297.62C16.15 297.77 16.11 297.93 16.08 298.08" stroke="#231815" stroke-width="0.75" stroke-linecap="round" stroke-linejoin="round"/>
<path d="M129.71 300.55C129.66 300.22 129.6 299.89 129.54 299.56" stroke="#231815" stroke-width="0.75" stroke-linecap="round" stroke-linejoin="round"/>
<path d="M129.53 299.56C129.47 299.23 129.41 298.91 129.34 298.59" stroke="#231815" stroke-width="0.75" stroke-linecap="round" stroke-linejoin="round"/>
<path d="M129.34 298.59C129.31 298.42 129.27 298.26 129.24 298.09" stroke="#231815" stroke-width="0.75" stroke-linecap="round" stroke-linejoin="round"/>
<path d="M129.24 298.09C129.21 297.94 129.17 297.78 129.14 297.63" stroke="#231815" stroke-width="0.75" stroke-linecap="round" stroke-linejoin="round"/>
<path d="M129.7 301.88C129.9 301.68 130.02 301.41 130.03 301.13" stroke="#231815" stroke-width="0.75" stroke-linecap="round" stroke-linejoin="round"/>
<path d="M128.9 302.22C129.2 302.22 129.49 302.1 129.7 301.89" stroke="#231815" stroke-width="0.75" stroke-linecap="round" stroke-linejoin="round"/>
<path d="M129.14 241.12C129.14 241.12 129.24 241.11 129.29 241.1" stroke="#231815" stroke-width="0.75" stroke-linecap="round" stroke-linejoin="round"/>
<path d="M129.7 240.19C129.49 239.98 129.2 239.86 128.9 239.86" stroke="#231815" stroke-width="0.75" stroke-linecap="round" stroke-linejoin="round"/>
<path d="M14.82 242.04C14.75 242.04 14.68 242.07 14.63 242.13C14.58 242.19 14.55 242.25 14.55 242.32" stroke="#231815" stroke-width="0.75" stroke-linecap="round" stroke-linejoin="round"/>
<path d="M15.29 240.91C15.31 240.65 15.43 240.38 15.62 240.19" stroke="#231815" stroke-width="0.75" stroke-linecap="round" stroke-linejoin="round"/>
<path d="M130.03 240.91C130.01 240.65 129.89 240.38 129.7 240.19" stroke="#231815" stroke-width="0.75" stroke-linecap="round" stroke-linejoin="round"/>
<path d="M15.31 241C15.31 241 15.36 241 15.38 241.01C15.46 241.02 15.54 241.04 15.62 241.05" stroke="#231815" stroke-width="0.75" stroke-linecap="round" stroke-linejoin="round"/>
<path d="M15.62 241.05C15.62 241.05 15.68 241.05 15.71 241.06C15.81 241.07 15.91 241.09 16.01 241.1" stroke="#231815" stroke-width="0.75" stroke-linecap="round" stroke-linejoin="round"/>
<path d="M129.28 241.11C129.35 241.11 129.42 241.09 129.49 241.08C129.66 241.06 129.83 241.03 130 241" stroke="#231815" stroke-width="0.75" stroke-linecap="round" stroke-linejoin="round"/>
<path d="M129.14 297.62C129.12 297.55 129.1 297.48 129.08 297.42C129.01 297.21 128.91 297.01 128.79 296.82" stroke="#231815" stroke-width="0.75" stroke-linecap="round" stroke-linejoin="round"/>
<path d="M128.79 241.14C128.79 241.14 128.87 241.14 128.9 241.14C128.98 241.14 129.06 241.14 129.14 241.12" stroke="#231815" stroke-width="0.75" stroke-linecap="round" stroke-linejoin="round"/>
<path d="M16.53 296.83C16.49 296.89 16.45 296.96 16.42 297.03C16.32 297.22 16.24 297.42 16.18 297.63" stroke="#231815" stroke-width="0.75" stroke-linecap="round" stroke-linejoin="round"/>
<path d="M16.18 241.12C16.18 241.12 16.22 241.12 16.24 241.12C16.34 241.12 16.43 241.13 16.53 241.13" stroke="#231815" stroke-width="0.75" stroke-linecap="round" stroke-linejoin="round"/>
<path d="M18.56 240.05C18.42 240.05 18.28 240.08 18.15 240.14" stroke="#231815" stroke-width="0.75" stroke-linecap="round" stroke-linejoin="round"/>
<path d="M18.15 240.14C17.96 240.23 17.79 240.38 17.67 240.56C17.55 240.74 17.49 240.97 17.49 241.19" stroke="#231815" stroke-width="0.75" stroke-linecap="round" stroke-linejoin="round"/>
<path d="M22.62 288.18C22.37 288.14 22.13 288.02 21.93 287.85C21.75 287.69 21.61 287.48 21.55 287.25" stroke="#231815" stroke-width="0.75" stroke-linecap="round" stroke-linejoin="round"/>
<path d="M122.7 288.18C122.95 288.14 123.19 288.02 123.39 287.85C123.57 287.69 123.71 287.48 123.77 287.25" stroke="#231815" stroke-width="0.75" stroke-linecap="round" stroke-linejoin="round"/>
<path d="M126.76 240.05C126.9 240.05 127.04 240.08 127.17 240.14" stroke="#231815" stroke-width="0.75" stroke-linecap="round" stroke-linejoin="round"/>
<path d="M127.16 240.14C127.35 240.23 127.52 240.38 127.64 240.56C127.76 240.74 127.82 240.97 127.82 241.19" stroke="#231815" stroke-width="0.75" stroke-linecap="round" stroke-linejoin="round"/>
<path d="M130.01 241C130.01 241 130.01 241 130.02 241C130.02 241 130.03 241 130.04 241" stroke="#231815" stroke-width="0.75" stroke-linecap="round" stroke-linejoin="round"/>
<path d="M15.29 240.99C15.29 240.99 15.29 240.99 15.3 240.99" stroke="#231815" stroke-width="0.75" stroke-linecap="round" stroke-linejoin="round"/>
<path d="M123.76 287.25C123.57 286.88 123.44 286.48 123.34 286.08C123.21 285.57 123.14 285.06 123.09 284.54C123.04 283.98 123.04 283.41 123.07 282.85C123.1 282.32 123.16 281.79 123.27 281.26" stroke="#231815" stroke-width="0.75" stroke-linecap="round" stroke-linejoin="round"/>
<path d="M123.27 281.26C124.56 275.18 125.49 269.01 126.12 262.82C126.8 256.19 127.15 249.52 127.2 242.86" stroke="#231815" stroke-width="0.75" stroke-linecap="round" stroke-linejoin="round"/>
<path d="M127.21 242.85C127.21 242.63 127.23 242.41 127.26 242.2C127.29 242.02 127.33 241.84 127.4 241.66C127.43 241.59 127.46 241.52 127.49 241.46C127.52 241.41 127.55 241.36 127.59 241.31C127.65 241.24 127.73 241.19 127.82 241.18" stroke="#231815" stroke-width="0.75" stroke-linecap="round" stroke-linejoin="round"/>
<path d="M17.49 241.19C17.58 241.19 17.66 241.25 17.72 241.32C17.76 241.37 17.79 241.42 17.82 241.47C17.86 241.53 17.89 241.6 17.91 241.67C17.98 241.84 18.02 242.02 18.05 242.21C18.08 242.43 18.1 242.64 18.1 242.86" stroke="#231815" stroke-width="0.75" stroke-linecap="round" stroke-linejoin="round"/>
<path d="M18.11 242.85C18.16 249.51 18.51 256.18 19.19 262.81C19.83 269 20.75 275.17 22.04 281.25" stroke="#231815" stroke-width="0.75" stroke-linecap="round" stroke-linejoin="round"/>
<path d="M22.04 281.26C22.15 281.78 22.22 282.31 22.24 282.85C22.27 283.41 22.26 283.98 22.22 284.54C22.18 285.06 22.1 285.57 21.97 286.08C21.87 286.48 21.74 286.88 21.55 287.25" stroke="#231815" stroke-width="0.75" stroke-linecap="round" stroke-linejoin="round"/>
<path d="M16.18 16.31C16.18 16.31 16.22 16.33 16.24 16.34C16.33 16.37 16.43 16.39 16.53 16.41" stroke="#231815" stroke-width="0.75" stroke-linecap="round" stroke-linejoin="round"/>
<path d="M128.79 16.41C128.79 16.41 128.87 16.39 128.9 16.39C128.98 16.37 129.06 16.35 129.14 16.31" stroke="#231815" stroke-width="0.75" stroke-linecap="round" stroke-linejoin="round"/>
<path d="M126.78 239.85C126.92 239.85 127.06 239.82 127.19 239.76C127.32 239.7 127.44 239.62 127.54 239.51C127.64 239.4 127.72 239.28 127.77 239.14C127.82 239 127.85 238.85 127.85 238.71" stroke="#231815" stroke-width="0.75" stroke-linecap="round" stroke-linejoin="round"/>
<path d="M18.54 239.85C18.4 239.85 18.26 239.82 18.13 239.76C18 239.7 17.88 239.62 17.78 239.51C17.68 239.4 17.6 239.28 17.55 239.14C17.5 239 17.47 238.85 17.47 238.71" stroke="#231815" stroke-width="0.75" stroke-linecap="round" stroke-linejoin="round"/>
<path d="M17.53 16.64C17.62 16.66 17.69 16.73 17.75 16.8C17.84 16.91 17.89 17.04 17.93 17.17C17.99 17.34 18.03 17.52 18.06 17.7C18.09 17.91 18.1 18.12 18.1 18.33" stroke="#231815" stroke-width="0.75" stroke-linecap="round" stroke-linejoin="round"/>
<path d="M18.1 237.02C18.1 237.24 18.08 237.47 18.05 237.69C18.02 237.88 17.98 238.06 17.91 238.24C17.88 238.31 17.85 238.38 17.81 238.45C17.78 238.5 17.75 238.55 17.7 238.6C17.64 238.67 17.55 238.72 17.47 238.72" stroke="#231815" stroke-width="0.75" stroke-linecap="round" stroke-linejoin="round"/>
<path d="M127.84 238.72C127.75 238.72 127.67 238.66 127.61 238.6C127.57 238.55 127.53 238.5 127.5 238.45C127.46 238.38 127.43 238.31 127.4 238.24C127.33 238.06 127.29 237.88 127.26 237.69C127.23 237.47 127.21 237.24 127.21 237.02" stroke="#231815" stroke-width="0.75" stroke-linecap="round" stroke-linejoin="round"/>
<path d="M127.21 18.34C127.21 18.13 127.22 17.92 127.25 17.71C127.28 17.53 127.32 17.35 127.38 17.18C127.42 17.05 127.48 16.93 127.56 16.81C127.62 16.74 127.69 16.67 127.78 16.65" stroke="#231815" stroke-width="0.75" stroke-linecap="round" stroke-linejoin="round"/>
<path d="M15.99 235.87V18.48" stroke="#231815" stroke-width="0.75" stroke-linecap="round" stroke-linejoin="round"/>
<path d="M129.33 235.87V18.48" stroke="#231815" stroke-width="0.75" stroke-linecap="round" stroke-linejoin="round"/>
<path d="M130.77 299.74V242.33" stroke="#231815" stroke-width="0.75" stroke-linecap="round" stroke-linejoin="round"/>
<path d="M15.99 235.87C15.99 236.06 15.99 236.25 15.97 236.44C15.97 236.6 15.95 236.77 15.93 236.93C15.93 236.99 15.91 237.06 15.9 237.12C15.9 237.17 15.88 237.22 15.87 237.27C15.87 237.3 15.85 237.34 15.83 237.37C15.83 237.39 15.81 237.41 15.79 237.42" stroke="#231815" stroke-width="0.75" stroke-linecap="round" stroke-linejoin="round"/>
<path d="M15.8 16.93C15.8 16.93 15.83 16.96 15.84 16.98C15.86 17.01 15.87 17.05 15.88 17.08C15.89 17.13 15.9 17.18 15.91 17.23C15.92 17.29 15.93 17.36 15.94 17.42C15.96 17.58 15.97 17.75 15.98 17.91C15.99 18.1 16 18.29 16 18.48" stroke="#231815" stroke-width="0.75" stroke-linecap="round" stroke-linejoin="round"/>
<path d="M129.33 18.48C129.33 18.29 129.33 18.1 129.35 17.91C129.35 17.75 129.37 17.58 129.39 17.42C129.39 17.36 129.41 17.29 129.42 17.23C129.42 17.18 129.44 17.13 129.45 17.08C129.45 17.05 129.47 17.01 129.49 16.98C129.49 16.96 129.51 16.94 129.53 16.93" stroke="#231815" stroke-width="0.75" stroke-linecap="round" stroke-linejoin="round"/>
<path d="M129.52 237.43C129.52 237.43 129.49 237.4 129.48 237.38C129.46 237.35 129.45 237.31 129.44 237.28C129.43 237.23 129.42 237.18 129.41 237.13C129.4 237.07 129.39 237 129.38 236.94C129.36 236.78 129.35 236.61 129.34 236.45C129.33 236.26 129.32 236.07 129.32 235.88" stroke="#231815" stroke-width="0.75" stroke-linecap="round" stroke-linejoin="round"/>
</g>
<defs>
<linearGradient id="paint0_linear_337_2" x1="23.32" y1="158.8" x2="122" y2="60.12" gradientUnits="userSpaceOnUse">
<stop stop-color="#BFBFBF"/>
<stop offset="0.14" stop-color="#C2C2C2"/>
<stop offset="0.27" stop-color="#CECECE"/>
<stop offset="0.4" stop-color="#E0E0E0"/>
<stop offset="0.53" stop-color="#FBFBFB"/>
<stop offset="0.54" stop-color="#E0E0E0"/>
<stop offset="0.55" stop-color="#CDCDCD"/>
<stop offset="0.56" stop-color="#CCCCCC"/>
<stop offset="1" stop-color="white"/>
</linearGradient>
<clipPath id="clip0_337_2">
<rect width="145.32" height="316.77" fill="white"/>
</clipPath>
</defs>
</svg>
