<svg xmlns="http://www.w3.org/2000/svg" width="299" height="416" fill="none" viewBox="0 0 299 416"><g clip-path="url(#a)"><path fill="#fff" d="M298.64 0H0v415.07h298.64z"/><path stroke="#1d1d1b" stroke-miterlimit="2" stroke-width=".75" d="M41.39 153.29v118.34M41.39 271.63h160.87M202.26 153.29H41.39M202.26 271.63V153.29"/><path stroke="#9d9d9c" stroke-miterlimit="2" stroke-width=".5" d="M35.93 383.1H262.7M30.55 37.56v340.16M268.09 377.72V37.56M262.7 32.18H35.93M262.7 383.1c2.97 0 5.38-2.41 5.38-5.38M30.55 377.72c0 2.97 2.41 5.38 5.38 5.38M35.93 32.18c-2.97 0-5.38 2.41-5.38 5.38M268.09 37.56c0-2.97-2.41-5.38-5.38-5.38"/><path stroke="#1d1d1b" stroke-miterlimit="2" stroke-width=".75" d="M35.93 379.85H262.7M33.81 37.56v340.16M264.83 377.72V37.56M262.7 35.44H35.93M33.81 37.56a2.12 2.12 0 0 1 2.12-2.12M35.93 379.84a2.12 2.12 0 0 1-2.12-2.12M262.7 379.85c1.17 0 2.13-.95 2.13-2.13M262.71 35.44a2.12 2.12 0 0 1 2.12 2.12M257.04 218.27c0-.78-.63-1.42-1.42-1.42s-1.42.63-1.42 1.42.63 1.42 1.42 1.42 1.42-.63 1.42-1.42Z"/><path stroke="#1d1d1b" stroke-miterlimit="2" stroke-width=".75" d="M256.79 218.27c0-.65-.52-1.17-1.17-1.17s-1.17.52-1.17 1.17.52 1.17 1.17 1.17 1.17-.52 1.17-1.17Z"/><path stroke="#1d1d1b" stroke-miterlimit="2" d="M259.16 386.22h-24.09M234.36 384.81v.71M259.87 384.81v.71M259.16 386.22c.39 0 .71-.32.71-.71M234.36 385.52c0 .39.32.71.71.71M75.62 386.22h-24.1M50.81 384.81v.71M76.33 384.81v.71M75.62 386.22c.39 0 .71-.32.71-.71M50.81 385.52c0 .39.32.71.71.71M234.36 30.26v-.7M259.87 30.26v-.7M235.07 28.85h24.09M259.87 29.56c0-.39-.32-.71-.71-.71M235.07 28.85c-.39 0-.71.32-.71.71"/><path stroke="#1d1d1b" stroke-miterlimit="2" stroke-width=".14" d="M237.19 30.48v-.22M257.04 30.48v-.22"/><path stroke="#1d1d1b" stroke-miterlimit="2" d="M35.93 384.81H262.7M28.85 377.72V37.56M269.79 377.72V37.56M35.93 30.48H262.7M28.85 377.72a7.09 7.09 0 0 0 7.09 7.09M35.93 30.48a7.09 7.09 0 0 0-7.09 7.09M269.79 37.56a7.09 7.09 0 0 0-7.09-7.09M262.7 384.81a7.09 7.09 0 0 0 7.09-7.09"/><path stroke="#1d1d1b" stroke-miterlimit="2" stroke-width=".14" d="M259.87 30.26h-25.51"/><path stroke="#1d1d1b" stroke-miterlimit="2" d="M50.81 30.26v-.7M76.33 30.26v-.7M51.52 28.85h24.1M76.33 29.56c0-.39-.32-.71-.71-.71M51.52 28.85c-.39 0-.71.32-.71.71"/><path stroke="#1d1d1b" stroke-miterlimit="2" stroke-width=".14" d="M53.65 30.48v-.22M73.49 30.48v-.22M76.33 30.26H50.81"/><path stroke="#1d1d1b" stroke-miterlimit="2" stroke-width=".75" d="M58.96 252.64c0-1.17-.95-2.13-2.13-2.13s-2.13.95-2.13 2.13.95 2.13 2.13 2.13 2.13-.95 2.13-2.13ZM72.78 252.64c0-1.17-.95-2.13-2.13-2.13s-2.13.95-2.13 2.13.95 2.13 2.13 2.13 2.13-.95 2.13-2.13Z"/><path stroke="#1d1d1b" stroke-linecap="round" stroke-miterlimit="2" stroke-width=".25" d="M53.43 263.53v-4.28M53.88 259.7v3.38M54.39 261.58v-.45M54.57 259.25v-.37M54.96 262.16v-.58M54.96 261.13v-.57M55.41 260.56v.57M55.41 261.58v.58M55.84 258.88v.37M55.98 261.13v.45"/><path stroke="#1d1d1b" stroke-miterlimit="2" stroke-width=".25" d="m69.2 259.32 1.44 4.21"/><path stroke="#1d1d1b" stroke-linecap="round" stroke-miterlimit="2" stroke-width=".25" d="m69.49 261.78-.63-1.87"/><path stroke="#1d1d1b" stroke-miterlimit="2" stroke-width=".25" d="m70.06 263.53-.45-1.32"/><path stroke="#1d1d1b" stroke-linecap="round" stroke-miterlimit="2" stroke-width=".25" d="M57.67 261.58v-.45M57.78 259.25v-.37M59.12 258.88v.37M59.27 261.13v.45M59.81 263.08v-3.38M60.26 259.25v4.28M70.64 263.53h-.58M67.68 263.53h-.57M60.26 263.53h-6.83M53.88 263.08h5.93M69.61 262.21h-1.5M55.41 262.16h-.45"/><path stroke="#1d1d1b" stroke-miterlimit="2" stroke-width=".25" d="M68.22 261.78h1.27"/><path stroke="#1d1d1b" stroke-linecap="round" stroke-miterlimit="2" stroke-width=".25" d="M59.27 261.58h-1.6M55.98 261.58h-.57M54.96 261.58h-.57M54.39 261.13h.57M55.41 261.13h.57M57.67 261.13h1.6M54.96 260.56h.45M59.81 259.7h-5.93M68.54 259.32h.66M53.43 259.25h1.14M55.84 259.25h1.94M59.12 259.25h1.14M54.57 258.88h1.27M57.78 258.88h1.34M73.99 262.96l.12.43M74.11 259.44l-.13.44"/><path stroke="#1d1d1b" stroke-miterlimit="2" stroke-width=".25" d="m68.11 262.21-.43 1.32"/><path stroke="#1d1d1b" stroke-linecap="round" stroke-miterlimit="2" stroke-width=".25" d="m68.86 259.91-.64 1.87"/><path stroke="#1d1d1b" stroke-miterlimit="2" stroke-width=".25" d="m67.11 263.53 1.43-4.21M72.99 263.59h.17l.09-.01h.08l.09-.01.08-.01.08-.02.09-.01.07-.01.06-.02.06-.02.06-.01.05-.02.05-.02.04-.02.05-.02M73.99 262.96l-.05.03-.06.02-.07.02-.07.02-.08.02-.07.02-.09.01-.09.02h-.06l-.07.01h-.09l-.08.01h-.04l-.09-.01h-.08l-.08-.01-.08-.01-.04-.01-.08-.02-.07-.02-.06-.02-.07-.02-.07-.03-.06-.03-.06-.04-.06-.03-.06-.04-.05-.04-.05-.04-.05-.05-.05-.04-.04-.05-.04-.05-.04-.06-.04-.05-.02-.04-.03-.06-.04-.06-.03-.07-.02-.07-.01-.03-.03-.07-.02-.07-.02-.08-.01-.08-.01-.03-.01-.08v-.09l-.01-.01v-.3l.01-.09v-.02l.01-.09.01-.08v-.04l.02-.08.02-.08.02-.07.03-.08.01-.03.03-.07.03-.07.03-.06.04-.06.02-.04.04-.06.04-.05.04-.05.05-.05.05-.05.05-.04.05-.04.06-.04.05-.04.06-.04.07-.03.06-.03h.01M74.11 259.44l-.04-.02-.05-.02-.04-.02-.05-.02-.06-.02-.05-.01-.06-.02-.06-.01-.07-.01-.07-.01-.08-.01h-.03l-.09-.01-.08-.01h-.17"/><path stroke="#1d1d1b" stroke-miterlimit="2" stroke-width=".25" d="M73.11 259.25h-.15l-.1.01-.1.01-.09.02-.1.01-.09.03-.09.02-.09.03-.08.03-.04.01-.08.04-.08.04-.08.04-.08.05-.07.05-.07.05-.07.05-.07.06-.06.06-.06.06-.05.07-.06.07-.05.07-.04.05-.04.08-.05.08-.04.08-.03.08-.03.06-.03.09-.03.08-.02.1-.02.09-.02.07-.01.09-.01.1-.01.04v.1l-.01.11v.07l.01.11v.1l.01.04.01.1.01.1.02.07.02.1.02.09.03.08.03.09.03.06.03.08.04.08.04.07.05.07.03.05.05.07.06.07.05.06.06.05.06.06.06.05.07.05.07.05.07.05.08.04.07.04.08.04.08.03h.02l.08.03.09.03.09.02.09.02.09.02.1.01.1.01h.18"/><path stroke="#9d9d9c" stroke-linecap="round" stroke-miterlimit="2" stroke-width=".73" d="M62.16 209.1v2.35"/><path stroke="#9d9d9c" stroke-linecap="round" stroke-miterlimit="2" stroke-width=".75" d="M75.05 200.79v-2.29"/><path stroke="#9d9d9c" stroke-miterlimit="2" stroke-width=".75" d="M78.3 197.68v9.82M88.83 197.68v9.76M81.56 207.45v-9.77M92.1 207.5v-9.82M95.36 205.28v7.91M98.83 213.19v-7.9M100.09 205.37v3.01M75.05 198.54l-.03-.04M113.34 202.98v10.21M116.75 213.19v-9.99"/><path stroke="#9d9d9c" stroke-miterlimit="2" stroke-width=".73" d="M122.53 200.54v-3.37"/><path stroke="#9d9d9c" stroke-miterlimit="2" stroke-width=".75" d="M128.4 203.78v2.66M138.4 209.49l-.24.06M165.88 200.93l.23-.05M67.87 213.41h.66M131.48 213.41h.42M83.14 213.36h4.29M94.98 213.19h4.23M112.96 213.19h4.15M141.61 213.19h3.84M150.24 213.19h3.94M158.97 213.19h3.85M68.48 210.55h-.73M132.44 210.41h-.67M86.52 210.13h-2.61M170.21 206.24h5.76M105.57 205.74h-5.48M133.89 204.15h-5.49M171.11 210.37l-.36-.02M70.69 203.48l-3.56-.44M67.42 206.34l1.58.23M100.09 208.03l.16.02M74.81 200.72l.24.07"/><path stroke="#9d9d9c" stroke-linecap="round" stroke-linejoin="round" stroke-width=".75" d="M138.4 211.44v-1.95"/><path stroke="#9d9d9c" stroke-miterlimit="2" stroke-width=".75" d="M141.98 203.1v10.09M145.08 213.19V203.1M150.62 203.1v10.09M153.81 213.19V203.1M119.4 200.16h3.13M68.83 199.95h.73M102.93 199.95h.78M131.24 199.95h.78M92.48 197.68h-4.03M81.93 197.68h-4.01M157.55 197.27h-1.9M148.8 197.27h-1.76M132.32 197.01h-.48M104.01 197.01h-.48M69.44 197.01h-.72M175.97 204.33l-.12-.04M159.34 203.1v10.09M162.46 213.19V203.1"/><path stroke="#9d9d9c" stroke-linecap="round" stroke-miterlimit="2" stroke-width=".75" d="M165.88 199.03v1.9M175.97 206.24v-1.91"/><path stroke="#9d9d9c" stroke-miterlimit="2" stroke-width=".75" d="M180.62 205.17v-.24l-.01-.5-.02-.47-.04-.43-.04-.41-.05-.39-.07-.37-.07-.35-.08-.34-.1-.32-.1-.31-.06-.17-.12-.28-.12-.26-.13-.25-.13-.24-.14-.22-.08-.12-.16-.21-.17-.2-.18-.18-.18-.18-.19-.17-.2-.15-.21-.15-.23-.14-.23-.14-.25-.12-.08-.04-.26-.11-.28-.11-.29-.09-.31-.09-.28-.07-.35-.07-.37-.07-.08-.01-.4-.05-.43-.04-.01-.01-.47-.03-.43-.02-.46-.01-.48-.01-.48.01-.47.01-.35.02-.5.03-.32.03-.44.05-.28.04-.4.07-.11.02-.36.07-.34.08-.31.09-.06.02-.28.1-.26.1-.23.1-.03.02-.21.11-.18.1-.17.11-.11.09-.13.12-.13.12-.07.09-.07.09-.05.08-.03.08-.02.08-.01.07M172.47 213.43l.31.02.33.01h.64l.31-.02.3-.02.06-.01.29-.03.28-.04.27-.05.26-.06.26-.06.25-.07.1-.03.23-.09.24-.09.22-.09.22-.11.21-.11.21-.11.05-.03.19-.13.19-.13.19-.14.18-.15.17-.16.17-.16.04-.04.16-.17.15-.18.1-.12.14-.19.14-.2.07-.1.13-.21.12-.22.12-.22.11-.23.06-.15.1-.24.1-.26.08-.26.08-.27v-.01l.08-.28.06-.28.06-.29.02-.14.04-.3.04-.31.02-.31.02-.31.01-.32v-.33l-.01-.24-.02-.22M165.22 207.76v.08l.01.23.01.23.02.22.03.21.03.21.02.1.04.2.05.2.06.18.06.19.06.17.05.11.07.17.09.17.09.16.09.16.1.16.11.14.11.15.1.12.12.14.13.13.11.1.14.13.15.12.12.1.16.11.17.12.1.06.18.11.18.1.2.09.2.1.15.06.22.09.22.08.22.07.24.07.04.01.24.06.25.06.26.05.14.02.26.04.27.03.28.03.28.02.29.01.07.01h.47l.19-.01"/><path stroke="#9d9d9c" stroke-miterlimit="2" stroke-width=".75" d="M171.63 203.61h-.37l-.31.01-.29.01-.28.02-.27.03-.26.03-.24.03-.24.04-.23.04-.23.05-.21.05-.22.06-.2.06-.19.06-.19.07-.18.07-.17.07-.16.08-.16.08-.15.08-.14.09-.13.09-.13.09-.12.09-.11.09-.11.1-.11.11-.1.11-.02.02-.1.11-.09.12-.08.12-.08.12-.08.13-.07.13-.06.13-.06.13-.05.13-.05.13-.04.14-.03.14-.03.15-.03.15-.01.15-.02.16-.01.16v.12M175.85 204.29l-.1-.03-.1-.03-.11-.03-.12-.03-.14-.03-.16-.04-.15-.03-.29-.05-.35-.06-.33-.06-.3-.05-.3-.04-.34-.05-.4-.06-.21-.02-.18-.02-.16-.02-.14-.02h-.12l-.11-.01h-.11M168.79 207.91v-.15l.01-.08.01-.07v-.07l.01-.08.02-.06.01-.07v-.02l.02-.07.01-.06.02-.05.02-.06.02-.05.02-.05.03-.05.02-.05.02-.04.03-.04.03-.04.03-.04.03-.04.04-.04.03-.04.04-.03.03-.03.04-.03.04-.03.04-.03.04-.02.04-.03.05-.02.04-.02.05-.02.05-.01.05-.02.05-.01.05-.01.06-.01.05-.01.06-.01.07-.01h.14"/><path stroke="#9d9d9c" stroke-miterlimit="2" stroke-width=".75" d="M170.75 210.35h-.04l-.1-.01-.09-.01-.09-.01-.08-.01-.09-.02-.07-.02-.08-.01-.07-.03-.07-.02-.06-.02-.06-.03-.06-.02-.06-.03-.06-.03-.05-.04-.05-.03-.05-.04-.06-.03-.04-.04-.05-.05-.05-.04-.04-.05-.03-.03-.04-.05-.04-.05-.04-.05-.03-.06-.03-.05-.03-.05-.03-.06-.03-.06-.02-.06-.02-.06-.03-.07-.02-.07-.01-.07-.02-.08-.01-.08-.02-.08-.01-.09-.01-.09-.01-.1v-.11l-.01-.12v-.31M176.21 209.56l-.06.07-.06.06-.06.05-.07.06-.08.05-.07.06-.09.04-.08.05-.09.05-.1.04-.1.04-.11.04-.11.04-.12.03-.12.03-.14.03-.14.03-.15.02-.16.03-.17.02-.09.01-.2.01-.2.02-.21.01h-.92l-.28-.01-.32-.02-.41-.02-.39-.03M177.14 205.26v.38l-.01.26-.01.25-.01.24-.02.23-.02.23-.02.21-.02.22-.02.12-.02.17-.03.16-.02.16-.03.14-.03.13-.04.13-.03.13-.04.12-.04.11-.04.1-.04.11-.04.09-.05.09-.04.09-.05.08-.05.08-.05.07-.05.07-.05.07-.06.06M175.89 200.78l.08.08.08.09.07.07.07.08.06.07.06.08.05.08.05.08.06.09.05.09.04.1.05.1.05.11.04.12.04.12.04.13.04.13.03.09.04.15.03.16.04.16.03.17.03.17.02.17.02.19.02.19.02.19.01.21.01.22.01.23.01.25v.31M166.11 200.88l.14-.03.63-.13.6-.12.57-.11.54-.09.53-.09.52-.07.37-.05.46-.05.43-.05.42-.03.4-.03.39-.01.37-.01h.67l.27.02.25.02.24.02.24.04.22.04.22.04.16.04.18.05.16.05.14.05.13.06.12.06.12.07.1.07.1.07.09.07M69.56 199.95h.2l.27.01h.26l.27.02.26.01.26.03.26.02.27.03.27.04.28.04.28.04.29.05.29.06.3.06.3.06.31.08.31.07.32.09.25.06M75.02 198.5l-.02-.03-.02-.04-.04-.04-.03-.04-.05-.04-.05-.04-.08-.05-.09-.06-.09-.05-.11-.06-.04-.02-.14-.07-.15-.07-.15-.06-.16-.06-.17-.07-.19-.06-.2-.06-.14-.04-.23-.07-.24-.06-.25-.06-.24-.05-.25-.05-.25-.05-.25-.04h-.02l-.25-.04-.25-.03-.25-.02-.24-.02-.24-.02-.23-.01-.24-.01h-.23M68.72 197.01h-.21l-.33.01-.3.01-.3.02-.27.02-.27.03-.26.03-.25.04-.24.04-.23.05-.23.06-.19.05-.21.06-.2.07-.19.06-.18.08-.18.07-.17.08-.16.09-.15.09-.14.09-.14.09-.14.1-.03.02-.13.11-.12.1-.12.12-.11.11-.1.12-.1.12-.09.13-.09.13-.09.13-.08.14-.07.14-.07.15-.02.04-.06.15-.06.16-.05.17-.05.17-.04.17-.04.18-.03.19-.02.2-.03.2-.01.2-.01.22v.19M62.16 202.01v.18l.01.16.01.16.02.16.02.16.03.14.03.15.04.14.04.13.05.13.04.13.06.12.05.12.06.11.07.11.07.11.07.1.08.11.09.1.09.1.1.1.11.1.1.1.12.09.12.09.12.09.07.04.13.08.14.08.14.08.15.07.16.07.16.07.17.06.19.07.19.06.22.06.04.01.24.07.25.06.26.06.28.05.3.06.34.06.23.03M69 206.57l.07.01.22.02.23.03.22.03.22.04.23.03.23.03.1.02.1.02.1.01.08.02.07.02.07.02.07.02.06.02.05.02.06.02.05.02M71.23 206.97l.07.03.1.04.08.04.07.03.07.03.05.03.05.03.05.03.04.03.04.03.04.03.04.03.03.03.03.03.02.03.03.03.02.04.02.03.03.04.02.04.02.04.01.05.02.05.02.05.01.05.02.06.01.06.01.06.01.07.01.07v.07l.01.08v.23M72.28 208.56v.22l-.01.1-.01.09-.02.09-.01.08-.02.08-.02.08-.02.07-.03.07-.03.07-.03.06-.03.06-.03.05-.04.06-.03.04-.05.05-.04.05-.05.05-.05.05-.05.04-.06.04-.06.04-.06.04-.07.03-.07.04-.04.02-.08.03-.08.03-.09.03-.1.03-.1.02-.08.02-.12.02-.12.03-.14.02-.14.01-.14.02-.17.01-.19.02-.2.01-.21.01h-.24l-.27.01h-.4"/><path stroke="#9d9d9c" stroke-linecap="round" stroke-miterlimit="2" stroke-width=".75" d="m67.75 210.55-.2-.01h-.2l-.2-.02-.21-.01-.22-.03-.22-.02-.22-.04-.23-.04-.24-.04-.24-.06-.24-.05-.16-.04-.26-.07-.26-.08-.27-.08-.27-.09-.27-.09-.28-.1-.27-.11-.29-.11-.29-.12-.29-.13-.18-.08"/><path stroke="#9d9d9c" stroke-miterlimit="2" stroke-width=".75" d="M62.16 211.39v.05l.01.05.01.05.02.05.02.05.03.05.03.05.04.06.05.05.06.06.06.06.07.06.07.05.09.07.1.07.11.07.11.06.12.07h.01l.14.07.16.08.16.07.18.07.07.02.19.07.19.07.2.06.21.06.21.06.21.05.23.05.23.04.15.03.21.04.25.03.24.03.25.03.24.02.25.02.24.01.25.01h.24M68.53 213.41h.15l.38-.01.36-.01.33-.01.32-.03.3-.03.3-.03.28-.04.27-.05.27-.05.25-.05.2-.05.24-.07.22-.07.21-.07.2-.07.2-.08.18-.08.18-.09.17-.09.16-.1.15-.09.14-.1.04-.03.14-.11.14-.11.12-.12.12-.12.12-.12.1-.12.1-.13.1-.14.09-.14.09-.14.08-.15.07-.16.02-.04.07-.16.06-.17.06-.17.05-.18.04-.18.04-.19.04-.2.03-.2.02-.22.02-.21.01-.23v-.22M75.76 208.18v-.12l-.01-.18-.01-.18-.02-.18-.02-.17-.02-.17-.03-.16-.04-.15-.04-.15-.04-.14-.05-.14-.05-.14-.05-.13-.06-.12-.07-.12-.07-.13-.07-.11-.08-.12-.09-.12-.09-.11-.09-.11-.1-.11-.11-.1-.11-.11-.11-.09-.12-.1-.05-.04-.12-.08-.13-.09-.13-.08-.14-.07-.14-.08-.16-.08-.16-.07-.17-.07-.18-.06-.19-.07-.1-.03-.21-.07-.22-.06-.23-.06-.24-.05-.25-.06-.28-.05-.29-.05-.13-.02M67.13 203.04l-.11-.02-.12-.02-.11-.03-.1-.02-.09-.02-.09-.02-.08-.02-.07-.03-.06-.02-.06-.02-.05-.02-.05-.03-.05-.02-.05-.02-.04-.03h-.01l-.04-.03-.04-.03-.04-.03-.03-.03-.04-.03-.03-.03-.03-.04-.03-.03-.02-.04-.03-.03-.02-.04-.02-.03-.02-.04-.01-.04-.02-.04-.01-.04-.01-.05-.01-.05-.01-.05-.01-.05-.01-.05v-.12"/><path stroke="#9d9d9c" stroke-miterlimit="2" stroke-width=".75" d="M65.51 201.78v-.19l.01-.1v-.11l.01-.09.01-.06.01-.08.02-.07.01-.07.02-.06.02-.06.01-.03.02-.05.03-.06.02-.05.03-.05.03-.04.03-.04.04-.04.04-.04.04-.04.04-.03.05-.04.05-.03.03-.03.06-.03.05-.03.06-.02.07-.03.07-.03.08-.02.03-.01.09-.03.1-.02.1-.02.11-.02.11-.02.08-.01.14-.02.16-.01.15-.01.17-.02.18-.01h.2l.21-.01h.53M78.3 207.5v.21l.01.22.02.22.02.23.03.23.03.22v.01l.04.23.04.22.05.21.05.21.06.19.06.19.06.19.07.18.07.17.08.17.08.16.09.16.09.15.09.15.1.14.1.14.1.13.11.13.11.12.11.11.11.11.12.1.12.1.12.08.12.09.13.08.13.07.14.08.14.06.15.06.15.06.15.05.06.02.16.05.16.04.16.03.17.03.18.02.18.02.18.01.19.01h.15M87.43 213.36h.28l.18-.01.18-.02.17-.02.17-.03.17-.03.16-.04.16-.05.04-.01.15-.05.15-.05.15-.06.14-.07.15-.07.13-.07.13-.08.13-.09.12-.08.12-.09.11-.1.11-.09.1-.11.11-.11.1-.11.1-.13.09-.12.09-.14.09-.14.09-.14.08-.16.08-.15.07-.17.07-.16.02-.04.06-.18.06-.17.06-.19.05-.19.05-.19.04-.2.04-.21.03-.22.03-.22.02-.24.02-.24.01-.26.01-.27v-.29M88.83 207.44v.26l-.01.16v.13l-.01.13-.01.12-.01.11-.01.1-.02.1v.01l-.02.1-.02.08-.02.08-.02.08-.02.07-.03.07-.03.07-.01.04-.03.06-.04.06-.03.06-.04.06-.03.05-.04.05-.04.04-.04.05-.05.04-.04.04-.05.04-.05.04-.06.03-.05.04-.07.03-.06.04-.07.03-.07.03-.07.03-.08.02-.01.01-.08.02-.08.02-.08.02-.09.02-.09.01-.1.02-.1.01h-.1l-.11.01h-.22M83.91 210.13h-.37l-.1-.01-.1-.01-.08-.01-.09-.02-.08-.01-.04-.01-.07-.02-.08-.02-.07-.02-.06-.03-.07-.03-.06-.03-.05-.02-.06-.03-.06-.04-.05-.04-.06-.04-.05-.04-.05-.04-.05-.05-.04-.05-.05-.05-.04-.05-.04-.05-.04-.06-.04-.07-.03-.05-.04-.07-.03-.07-.04-.07-.03-.08-.03-.08-.03-.08-.01-.04-.03-.09-.02-.09-.02-.1-.02-.1-.02-.1-.01-.1-.02-.11-.01-.12v-.12l-.01-.12v-.24M98.83 205.29v-.16l.01-.38v-.32l.01-.29.02-.27.02-.25.02-.23.03-.23.03-.22.03-.21.04-.2.04-.18.04-.16.04-.16.05-.15.05-.13.05-.13.05-.12.06-.12.05-.1.06-.1.07-.1.06-.09.07-.08.07-.09.08-.07.05-.05.09-.08.08-.06.09-.07.09-.06.1-.05.1-.05.1-.05.11-.04.12-.05.13-.03.05-.02.14-.03.15-.04.15-.02.17-.03.17-.02.1-.01.21-.02.22-.01.24-.01h.39M103.71 199.95h.4l.18.01.17.01.15.01.14.02.14.02.13.02.13.02.12.03.12.03.11.03h.02l.1.04.11.03.1.04.09.04.09.05.08.04.09.05.07.05.07.05.07.05.06.05.06.05.06.06.05.06.05.06.05.07.05.06.05.08.04.07.02.05.04.08.04.08.03.09.03.09.03.1.03.1.02.12.03.11.02.12.01.13.02.14.01.14.01.15.01.17v.31"/><path stroke="#9d9d9c" stroke-miterlimit="2" stroke-width=".75" d="M107.21 203.13v.19l-.01.11-.01.11-.01.11-.01.11-.01.11-.02.1-.02.1v.04l-.02.09-.03.09-.02.09-.02.09-.03.08-.03.07-.03.08-.03.07-.03.07-.04.07-.02.04-.03.06-.04.06-.04.06-.04.05-.04.05-.04.05-.04.05-.04.04-.04.04-.04.03-.05.04-.04.03-.05.03-.04.03-.05.02-.05.03-.06.02-.05.02-.06.02-.05.01-.06.02-.06.01-.06.01h-.06l-.06.01h-.06"/><path stroke="#9d9d9c" stroke-linecap="round" stroke-miterlimit="2" stroke-width=".75" d="m100.09 208.03.23.04.24.03.26.04.26.03.29.03.31.03.34.03.27.02.38.02.39.03.38.02.36.01.34.01.33.01h.32"/><path stroke="#9d9d9c" stroke-miterlimit="2" stroke-width=".75" d="M104.79 208.38h.19l.35-.01.33-.02.31-.03.3-.03.28-.05.27-.05.26-.06.25-.07.24-.07.23-.09.02-.01.22-.09.21-.1.21-.11.19-.11.19-.12.17-.13.17-.13.15-.13.15-.15.13-.14.13-.15.12-.16.12-.18.11-.18.1-.18.09-.2.09-.21.08-.21.06-.19.06-.23.05-.23.04-.24.03-.21.03-.26.02-.27.01-.28v-.08l-.01-.26-.01-.29-.02-.29-.04-.27-.04-.28v-.01l-.05-.26-.06-.25-.07-.24-.08-.24-.08-.22-.1-.23v-.01l-.1-.21-.12-.22-.12-.2-.13-.2-.14-.2-.15-.18-.15-.18-.16-.17-.16-.16-.17-.15-.18-.14-.19-.14-.2-.13-.21-.13-.22-.12-.23-.12-.23-.1-.24-.1-.25-.09-.26-.08-.26-.07-.28-.07-.28-.05-.3-.05-.3-.04-.32-.03-.32-.02-.33-.01h-.18M103.53 197.01h-.52l-.42.02-.39.02-.37.03-.36.04-.26.03-.33.05-.3.05-.29.06-.28.07-.27.07-.07.02-.25.08-.24.09-.23.09-.22.1-.21.1-.2.11-.09.05-.19.12-.18.12-.18.13-.16.14-.16.14-.15.14-.15.15-.13.16-.14.17-.13.18-.12.18-.11.19-.06.1-.11.21-.1.21-.09.22-.09.23-.09.25-.08.25-.02.06-.07.28-.06.28-.07.3-.05.31-.05.33-.03.25-.03.37-.03.38-.03.4-.01.43v.51"/><path stroke="#9d9d9c" stroke-linecap="round" stroke-miterlimit="2" stroke-width=".75" d="m122.53 197.38-.22-.04-.23-.04-.25-.03-.27-.03-.29-.04-.32-.03-.4-.04-.22-.02-.35-.03-.31-.02-.28-.02-.25-.02h-.25l-.23-.01h-.22"/><path stroke="#9d9d9c" stroke-miterlimit="2" stroke-width=".75" d="M118.44 197.01h-.28l-.2.02-.2.01-.19.02-.19.03-.18.04-.18.04-.18.04-.04.01-.17.05-.17.06-.16.06-.16.07-.15.07-.15.08-.15.08-.13.08-.14.09-.12.09-.13.09-.11.1-.12.11-.11.11-.11.12-.11.13-.1.13-.1.13-.1.15-.09.14-.09.16-.09.15-.08.17-.07.16-.02.05-.07.17-.07.18-.06.18-.05.19-.05.2-.05.2-.04.21-.04.21-.03.23-.02.23-.02.24-.02.25-.01.27v.37M116.75 203.2v-.54l.01-.17v-.15l.01-.15.01-.14.02-.13.02-.12.02-.12.02-.12.01-.04.02-.1.02-.09.03-.09.03-.08.02-.07.03-.07.03-.06.03-.06.04-.06.03-.05.04-.05.04-.05.04-.04.04-.04.04-.04.05-.04.05-.04.06-.03.05-.04.06-.02.06-.03.06-.03.07-.02.07-.02.08-.02.08-.02.04-.01.1-.02.1-.01.11-.02.12-.01.14-.01h.02l.16-.01h.17l.2-.01h.2M131.84 197.01h-.46l-.52.02-.48.03-.44.03-.42.05-.4.07-.38.07-.35.08-.35.09-.32.1-.3.11-.28.12-.27.12-.25.14-.04.02-.24.15-.23.15-.21.17-.2.17-.19.18-.18.19-.17.21-.17.22-.15.23-.15.24-.02.04-.13.26-.13.27-.11.28-.11.3-.1.32-.09.35-.08.36-.03.13-.06.39-.06.42-.01.1-.05.46-.03.48v.07l-.02.52v.01l-.01.55.01.53v.01l.02.5v.06l.03.47.05.44.01.09.06.41.07.39.02.11.08.36.09.34.09.28.11.3.11.29.13.27.13.26.01.01.14.25.15.23.17.23.17.2.18.2.19.19.2.18.21.16.23.16.23.15.02.01.24.14.26.13.28.12.29.11.28.09.32.1.35.08.35.08.38.06.39.05.42.04.45.03.48.02h.43M131.9 213.41h.26l.33-.01.32-.01.32-.02.32-.02.32-.03.32-.03.31-.04.11-.02.28-.04.28-.04.25-.05.25-.05.24-.06.22-.05.22-.06.22-.07.06-.02.2-.07.19-.07.18-.07.17-.07.07-.03.12-.06.12-.06.1-.06.1-.07.1-.06.07-.06.08-.07.07-.06.06-.07.05-.06.05-.06.04-.06.03-.06.02-.06.02-.05.02-.06v-.06l.01-.05M138.16 209.55l-.1.03-.44.11-.4.1-.36.09-.34.07-.32.07-.31.06-.29.05-.29.05-.28.04-.29.04-.28.04-.29.02-.29.03-.3.02-.29.02-.29.01h-.29l-.27.01"/><path stroke="#9d9d9c" stroke-miterlimit="2" stroke-width=".75" d="m131.77 210.41-.18-.01h-.32l-.27-.01-.26-.01-.17-.01-.2-.02-.2-.02-.17-.02-.17-.03-.14-.03-.14-.03-.14-.04-.13-.04-.13-.05-.12-.05-.07-.03-.11-.05-.11-.06-.1-.06-.1-.07-.09-.06-.08-.07-.08-.08-.08-.08-.08-.08-.08-.09-.07-.1-.07-.1-.07-.11-.07-.12-.06-.12-.06-.13-.06-.14-.06-.14-.05-.15-.03-.1-.05-.16-.04-.17-.04-.17-.03-.18-.04-.19-.02-.21-.02-.15-.03-.24-.02-.26-.01-.27-.01-.28-.01-.3v-.24"/><path stroke="#9d9d9c" stroke-miterlimit="2" stroke-width=".75" d="M127.13 205.28v-.55l.01-.32.01-.28.01-.27.02-.25.03-.23.02-.23.03-.21.04-.21.04-.21.03-.17.05-.17.04-.16.05-.14.04-.14.05-.13.06-.12.05-.11.06-.11.06-.1.06-.09.07-.09.07-.09.07-.08.08-.07.08-.08.05-.05.09-.07.09-.06.09-.06.1-.05.1-.05.1-.05.12-.04.12-.05.12-.03.05-.02.14-.03.15-.04.16-.02.16-.03.18-.02.1-.01.2-.02.23-.01.23-.01h.4M132.02 199.95h.39l.22.01h.2l.18.01.17.01.16.02.15.01.15.02.14.03.09.01.12.03.11.02.1.03.09.02.08.03.08.03.08.04.07.03.07.04.06.04.06.04.06.04.06.04.04.04.05.05.05.05.04.05.04.06.04.05.04.06.03.06.04.07.03.07.03.07.02.08.02.06.02.09.03.09.02.1.01.1.02.11.01.1.01.14.01.14.01.15v.31M135.52 202.6v.22l-.01.07-.01.07-.01.06-.01.06-.01.06-.01.06-.02.05-.01.05-.01.03-.02.05-.02.05-.02.05-.03.04-.02.05-.03.04-.03.04-.03.04-.02.03-.03.03-.04.04-.03.03-.03.02-.04.03-.04.03-.04.02-.04.03-.04.02-.05.02-.05.02-.05.02-.05.02-.06.02-.06.01-.06.02-.06.01-.07.01-.07.01-.07.01-.08.01h-.25"/><path stroke="#9d9d9c" stroke-linecap="round" stroke-linejoin="round" stroke-width=".75" d="m128.4 206.35.23.04.23.05.24.04.26.04.28.04.3.04.33.03.32.03.39.04.39.03.38.02.36.02.34.01.33.01h.33"/><path stroke="#9d9d9c" stroke-miterlimit="2" stroke-width=".75" d="M133.11 206.79h.32l.27-.01.27-.02.26-.02.25-.02.25-.03.24-.04.09-.01.23-.04.21-.05.2-.04.2-.05.18-.06.18-.05.17-.07.17-.06.16-.07.15-.07.05-.02.14-.08.15-.08.14-.09.13-.08.13-.09.12-.1.11-.09.11-.1.1-.1.1-.1.09-.1.08-.11.08-.11.07-.11.07-.11.07-.12.06-.12.05-.13.06-.13.04-.13.03-.09.04-.14.03-.14.03-.15.02-.15.02-.15.02-.16v-.16l.01-.15"/><path stroke="#9d9d9c" stroke-miterlimit="2" stroke-width=".75" d="M139.06 202.69v-.07l-.01-.24-.01-.23-.02-.23-.03-.22-.03-.22-.03-.21-.05-.2-.04-.2-.06-.19-.06-.19-.06-.17-.07-.18-.08-.16-.07-.16-.08-.14-.09-.15-.1-.15-.1-.15-.11-.14-.11-.13-.11-.13-.13-.13-.13-.12-.13-.12-.14-.11-.15-.11-.15-.11-.07-.04-.16-.1-.17-.1-.17-.09-.18-.08-.19-.09-.2-.07-.2-.08-.21-.07-.22-.06-.23-.06-.23-.05h-.01l-.24-.05-.26-.05-.25-.03-.27-.04-.28-.02-.28-.02-.29-.01-.31-.01h-.17"/><path stroke="#9d9d9c" stroke-linecap="round" stroke-miterlimit="2" stroke-width=".75" d="m152.2 198.61-.07-.07-.08-.07-.08-.07-.09-.06-.08-.07-.09-.06-.1-.07-.09-.06-.1-.06-.11-.06-.1-.05-.11-.06-.11-.05-.12-.05-.11-.05-.12-.05-.13-.04-.12-.04-.09-.03-.12-.04-.13-.04-.13-.03-.14-.03-.13-.03-.14-.03-.08-.01h-.01l-.12-.02-.12-.02-.1-.01h-.1l-.09-.01h-.09"/><path stroke="#9d9d9c" stroke-miterlimit="2" stroke-width=".75" d="M147.04 197.27h-.17l-.21.01-.2.01-.19.02-.19.03-.19.03-.18.04-.18.04-.17.04-.16.05-.16.06-.16.06-.15.06-.14.07-.14.07-.13.07-.13.09-.13.08-.12.1-.12.1-.13.1-.11.11-.12.12-.11.12-.11.13-.1.13-.1.14-.1.14-.09.14-.05.1-.09.15-.08.15-.07.16-.07.17-.07.17-.06.18-.06.19-.05.2-.05.2-.05.21-.02.14-.04.22-.04.23-.02.23-.02.24-.02.23-.01.24v.26M145.08 203.1v-.22l.01-.15v-.15l.01-.13.01-.13.02-.12.02-.12.02-.11.01-.07.02-.11.03-.09.02-.1.03-.08.03-.09.03-.07.04-.08.03-.07.04-.07.04-.07.04-.06.04-.06.05-.06.05-.06.05-.05.06-.06.06-.05.06-.05.06-.05.07-.05.07-.04.07-.05.07-.04.02-.01.07-.03.08-.04.08-.03.08-.03.08-.02.09-.03.09-.02.09-.02.1-.01.1-.02.11-.01.11-.01.12-.01h.27"/><path stroke="#9d9d9c" stroke-miterlimit="2" stroke-width=".75" d="M147.73 200.1h.36l.14.01.13.01.12.02.12.01.11.02.1.02.11.02.09.03.1.03.09.03.06.02.09.03.08.04.07.03.07.04.07.04.07.04.06.05.06.05.04.03.06.05.05.05.05.06.05.05.05.06.04.06.04.07.04.07.04.07.04.07.03.08.04.08.03.08.03.09.02.09.03.1.02.1.02.11.01.12.02.12.01.12.01.14.01.14.01.16v.29M153.81 203.1v-.2l.01-.14.01-.14.01-.13.01-.12.02-.12.02-.12.02-.11.02-.11.03-.1.02-.1.03-.1.04-.09.03-.08.03-.09.04-.08.04-.07.04-.07.05-.07.04-.07.05-.07.04-.06.05-.05.06-.06.05-.05.06-.06.06-.05.07-.05.07-.05.07-.04.07-.05.07-.04.08-.03.08-.04.08-.03.02-.01.08-.03.08-.03.09-.02.09-.02.1-.02.09-.02.1-.01.11-.01.11-.01.12-.01h.22"/><path stroke="#9d9d9c" stroke-miterlimit="2" stroke-width=".75" d="M156.49 200.07h.21l.13.01h.13l.11.01.11.02.11.02.1.01.1.03.1.02.09.03.09.02.03.02.08.03.09.03.08.04.08.04.08.05.07.04.07.05.07.05.06.05.06.05.06.05.06.06.05.05.05.06.05.06.04.07.05.07.04.07.04.08.04.08.04.08.03.09.04.09.03.09.03.1.02.1.03.11.02.11.02.12.02.12.01.12.01.13.01.14.01.14v.22M162.46 203.1l-.01-.24-.01-.25-.01-.24-.02-.23-.02-.23-.03-.21-.04-.22-.04-.2-.04-.2-.05-.2-.05-.18-.06-.18-.06-.18-.07-.17-.07-.16-.08-.16-.03-.06-.08-.16-.08-.15-.09-.14-.1-.14-.09-.13-.11-.13-.1-.12-.11-.12-.11-.12-.12-.11-.08-.07-.13-.1-.13-.1-.13-.1-.13-.08-.14-.09-.15-.08-.15-.07-.15-.07-.16-.07-.17-.06-.16-.06-.17-.05-.18-.05-.09-.02-.08-.02-.18-.03-.17-.03-.18-.02-.16-.02-.17-.01h-.17M155.65 197.27h-.12l-.14.01h-.13l-.13.01-.13.01-.13.02-.13.02-.12.02-.12.02-.12.03-.12.02-.03.01-.12.03-.11.04-.12.03-.11.04-.11.04-.11.05-.1.04-.1.05-.1.05-.1.06-.1.05-.09.05-.09.06-.08.06-.09.06-.08.06-.07.07-.08.06-.07.07-.07.06-.06.07-.07.07"/><path stroke="#1d1d1b" stroke-miterlimit="2" stroke-width=".25" d="m72.4 259.85.05-.03h.01l.05-.02.05-.01.06-.02.06-.01.06-.02h.04l.06-.01.06-.01.07-.01h.34l.07.01h.03l.07.01.07.01.06.02.05.01.06.01.05.02.06.02.05.02.05.02.05.02"/></g><defs><clipPath id="a"><path fill="#fff" d="M0 0h298.64v415.07H0z"/></clipPath></defs></svg>