<svg xmlns="http://www.w3.org/2000/svg" width="100" height="100" fill="none" viewBox="0 0 100 100"><rect width="100" height="100" fill="#a12944" rx="15"/><g stroke="#fff" stroke-linecap="round" stroke-linejoin="round" stroke-width="3" clip-path="url(#a)"><path d="m32.095 37.816-10.752-7.473 6.544-9.325 6.446 4.47 9.803-6.332v-7.82h11.441v7.82l5.569 3.26M56.553 57.669l-1.128 12.995-11.396-.97.68-7.794-10.42-5.282-6.805 3.91-5.72-9.85 6.804-3.91.053-6.44"/><path d="M50.107 51.71c6.097 0 11.039-4.916 11.039-10.982s-4.942-10.982-11.039-10.982S39.07 34.663 39.07 40.728c0 6.066 4.942 10.982 11.038 10.982"/><path d="m61.63 26.71 11.87-5.532 4.853 10.305-7.117 3.313.608 11.615 6.813 3.91-5.72 9.86-6.813-3.91-5.623 3.162"/></g><g fill="#fff" clip-path="url(#b)"><path d="M34.14 81.369v4.749c.006.313.01.782-.255 1.04q-.275.272-.88.272h-1.284c-.215 0-.578 0-.839-.252-.215-.212-.322-.565-.327-1.05v-4.76h-1.611v4.775c.005.475.123 2.852 2.394 2.852h2.117c.86 0 2.302-.379 2.302-2.857v-4.775h-1.621zM25.205 84.165l-1.755-.217c-.424-.066-.798-.167-.798-.611 0-.702.205-.894 1.637-.894h.358c.844.04 1.627.117 2.588.374l.118.03v-1.085l-.01-.02c-.149-.278-1.468-.727-2.757-.722h-.358c-2.174 0-3.228.798-3.228 2.438 0 1.575 1.34 1.913 2.593 2.105l.778.106c.568.07.9.116 1.1.197.337.13.526.247.516.772-.01.873-.598.969-1.872.969h-.358c-.752 0-1.657-.207-2.63-.6L21 86.95v1.07c0 .434 1.33.984 2.818.979h.328c2.43 0 3.56-.813 3.56-2.544 0-1.68-1.269-2.094-2.501-2.286M41.26 81.01h-.234c-2.937 0-4.026 1.095-4.026 4.028V89h1.719v-3.952c-.005-2.226.496-2.6 2.01-2.605h.383c1.458 0 1.73.42 1.73 1.444 0 .636-.21 1.368-.804 1.368l-2.7-.045v1.16l.076.01c.542.091 1.504.157 2.24.157 2.522 0 2.937-1.368 2.937-2.514 0-1.892-1.248-3.018-3.325-3.013M50.36 81.106c-.444-.07-1.488-.106-2.015-.106-.94 0-2.516.379-2.516 2.907V89h1.688v-4.987c-.006-1.342.24-1.479 1.304-1.479h1.54zM55.558 87.536h-.328c-1.427 0-2.291-.166-2.291-2.488 0-2.22.5-2.594 2.025-2.594h.384c1.422 0 1.729.227 1.729 1.287 0 .53-.24.757-.803.757h-2.706v1.115l.077.015c.537.091 1.498.157 2.24.157 1.095 0 2.93-.207 2.93-2.281s-1.81-2.489-3.324-2.484h-.24c-2.941 0-4.036 1.096-4.031 4.028 0 2.806 1.12 3.952 3.862 3.947h.21c1.734 0 3.202-.454 3.202-.99v-.923l-.118.03c-1.008.263-1.795.42-2.818.42M70.15 83.958c0-1.378-.526-2.09-1.099-2.453 0 0-.619-.46-1.719-.46-.537 0-.956.071-1.283.177a2.06 2.06 0 0 0-.88.48c-.051.045-.072.075-.072.075s-.583-.742-2.24-.732c-.721 0-1.238.197-1.504.334-.01 0-.02.01-.026.015q-.024.014-.04.02c-1.085.58-1.228 1.898-1.228 2.554V89h1.534v-5.032c-.005-.757.154-1.459 1.3-1.459 1.191 0 1.422.535 1.427 1.459V89h1.58v-5.037c-.005-1.005.415-1.474 1.31-1.474.972 0 1.406.454 1.412 1.474v5.032h1.54v-5.037zM74.662 82.484h.328c1.427 0 2.291.166 2.291 2.488 0 2.221-.5 2.595-2.025 2.595h-.384c-1.422 0-1.729-.228-1.729-1.287 0-.53.24-.758.803-.758h2.706v-1.115l-.076-.015c-.538-.091-1.5-.157-2.241-.157-1.095 0-2.93.207-2.93 2.282 0 2.074 1.805 2.478 3.319 2.473h.24c2.941 0 4.036-1.095 4.03-4.028 0-2.806-1.12-3.952-3.861-3.947h-.21c-1.734 0-3.202.454-3.202.99v.923l.118-.03c1.008-.263 1.795-.42 2.818-.42"/></g><defs><clipPath id="a"><path fill="#fff" d="M20 10h60v62H20z"/></clipPath><clipPath id="b"><path fill="#fff" d="M21 81h58v8H21z"/></clipPath></defs></svg>