<svg xmlns="http://www.w3.org/2000/svg" width="483" height="305" fill="none" viewBox="0 0 483 305"><g clip-path="url(#a)"><path fill="#fff" d="M483 0H0v305h483z"/><path stroke="gray" stroke-linecap="round" stroke-linejoin="round" stroke-width=".5" d="M302.44 110.16H180.56"/><path stroke="#000" stroke-linecap="round" stroke-linejoin="round" stroke-width=".5" d="M119.4 73.05v-4.32l1.08-1.08v6.48M122.21 77.37V65.92M123.09 203.52v-23.99M123.07 78.45V63.33M124.15 130.69v10.8M125.23 92.65V63.26M127.39 92.65V63.26M299.85 262.73H182.93M182.93 252.36h8.65"/><circle cx="147.71" cy="50.94" r=".25" fill="#000"/><path stroke="#000" stroke-linecap="round" stroke-linejoin="round" stroke-width=".5" d="M246.25 242.64h-8.86M191.58 242.64h-8.65"/><path stroke="gray" stroke-linecap="round" stroke-linejoin="round" stroke-width=".5" d="M307.84 241.55h-9.07M285.15 241.55H248.2M234.58 241.55h-40.41M180.56 241.55h-5.62M174.94 241.55v-9.08"/><circle cx="355.39" cy="206.32" r=".25" fill="#000"/><path stroke="#000" stroke-linecap="round" stroke-linejoin="round" stroke-width=".5" d="m355.39 206.32.21-.21"/><circle cx="355.39" cy="206.32" r=".25" fill="#000"/><path stroke="#000" stroke-linecap="round" stroke-linejoin="round" stroke-width=".5" d="m355.39 206.32.21-.21M355.39 206.32h-.65zM354.74 206.32h-.65zM354.09 206.32h-.65zM353.44 206.32h-1.51zM351.93 206.32h-1.51zM327.94 206.32h22.48zM127.42 203.52h-4.33M355.6 203.52h4.33"/><circle cx="355.6" cy="199.19" r=".25" fill="#000"/><path stroke="#000" stroke-linecap="round" stroke-linejoin="round" stroke-width=".5" d="M128.69 206.32h25.81-25.81M127.5 206.32h1.19z"/><circle cx="355.6" cy="184.07" r=".25" fill="#000"/><path stroke="#000" stroke-linecap="round" stroke-linejoin="round" stroke-width=".5" d="M127.42 179.53h-4.33M355.6 179.53h4.33M119.4 73.05l1.08 1.08M358.85 141.49h-3.25M124.15 141.49h3.24M358.85 130.69h-3.25M124.15 130.69h3.24M363.6 73.08l-1.3 1.08M357.77 92.65h-2.17M127.39 92.65h-2.16"/><circle cx="355.6" cy="92" r=".25" fill="#000"/><circle cx="127.39" cy="92" r=".25" fill="#000"/><circle cx="355.6" cy="86.82" r=".25" fill="#000"/><circle cx="127.39" cy="86.82" r=".25" fill="#000"/><path stroke="gray" stroke-linecap="round" stroke-linejoin="round" stroke-width=".5" d="M307.84 232.47v9.08"/><path stroke="#000" stroke-linecap="round" stroke-linejoin="round" stroke-width=".5" d="M125.23 78.45h-2.16M357.77 78.48h2.16M123.07 77.37h-.86M359.93 77.4h.86M122.21 74.13h-1.73M360.79 74.16h1.51"/><circle cx="355.6" cy="69.31" r=".25" fill="#000"/><circle cx="127.39" cy="69.31" r=".25" fill="#000"/><path stroke="#000" stroke-linecap="round" stroke-linejoin="round" stroke-width=".5" d="M122.21 67.65h-1.73M360.79 67.68h1.51M122.21 65.92h.86"/><circle cx="355.6" cy="65.21" r=".25" fill="#000"/><circle cx="127.39" cy="65.21" r=".25" fill="#000"/><path stroke="#000" stroke-linecap="round" stroke-linejoin="round" stroke-width=".5" d="M359.93 64.87h.86z"/><circle cx="355.6" cy="63.91" r=".25" fill="#000"/><circle cx="127.39" cy="63.91" r=".25" fill="#000"/><circle cx="355.6" cy="63.69" r=".25" fill="#000"/><circle cx="127.39" cy="63.69" r=".25" fill="#000"/><circle cx="355.6" cy="63.69" r=".25" fill="#000"/><circle cx="127.39" cy="63.69" r=".25" fill="#000"/><path stroke="#000" stroke-linecap="round" stroke-linejoin="round" stroke-width=".5" d="M127.39 63.26h-2.16M355.6 63.26h2.17zM127.39 63.26h-2.16M125.23 63.33h-2.16M357.77 63.36h2.16M147.5 50.94h189zM335.94 50.94h17.07z"/><circle cx="355.6" cy="53.75" r=".25" fill="#000"/><circle cx="355.6" cy="53.75" r=".25" fill="#000"/><path stroke="#000" stroke-linecap="round" stroke-linejoin="round" stroke-width=".5" d="m319.73 228.58 8.21-22.26zm0 0-1.53 3.68-8.21 23.34M163.05 46.62h156.9M355.6 92.65V63.26M355.6 203.52v-23.99M357.77 63.26v29.39M358.85 130.69v10.8M359.93 63.36v15.12M359.93 203.52v-23.99M360.79 64.87V77.4M362.3 67.68v6.48M362.3 67.68l1.3 1.08v4.32M172.55 255.49a10.92 10.92 0 0 0 10.28 7.24M299.74 262.73c4.61 0 8.73-2.9 10.28-7.24"/><path stroke="gray" stroke-linecap="round" stroke-linejoin="round" stroke-width=".5" d="M298.77 241.54a8.76 8.76 0 0 0-6.83-3.28c-2.66 0-5.17 1.21-6.83 3.28M248.22 241.54a8.76 8.76 0 0 0-6.83-3.28c-2.66 0-5.17 1.21-6.83 3.28M194.21 241.51a8.76 8.76 0 0 0-6.83-3.28c-2.66 0-5.17 1.21-6.83 3.28"/><path stroke="#000" stroke-linecap="round" stroke-linejoin="round" stroke-width=".5" d="M191.47 252.36a4.859 4.859 0 1 0 0-9.72M182.83 242.63a4.859 4.859 0 1 0 0 9.72M237.39 252.36h8.86M246.15 252.36a4.859 4.859 0 1 0 0-9.72M237.29 242.63a4.859 4.859 0 1 0 0 9.72M291.74 242.63a4.859 4.859 0 1 0 0 9.72c2.68 0 4.86-2.18 4.86-4.86s-2.18-4.86-4.86-4.86"/><path stroke="#000" stroke-linejoin="round" stroke-width=".5" d="M162.97 46.63c-2.42 0-4.4 1.95-4.43 4.37M324.27 51a4.433 4.433 0 0 0-4.43-4.37"/><path stroke="#000" stroke-linecap="round" stroke-linejoin="round" stroke-width=".5" d="m176.67 158.35-1.08-.65M180.56 100.22v31.76M180.56 100.22v-1.3l.21-.43v-.65l.22-.43.43-.65.22-.43.43-.44.22-.43.43-.43.43-.22.65-.43.43-.21.43-.22.65-.22h.43l.65-.21h.65"/><path stroke="#000" stroke-linecap="round" stroke-linejoin="round" stroke-width=".5" d="M180.56 100.22v-1.3l.21-.43v-.65l.22-.43.43-.65.22-.43.43-.44.22-.43.43-.43.43-.22.65-.43.43-.21.43-.22.65-.22h.43l.65-.21h.65M197.2 138.25l-7.78-6.7M190 164.09l7.13-6.06"/><path stroke="#000" stroke-linejoin="round" stroke-width=".5" d="M180.56 128.25h121.88"/><path stroke="#000" stroke-linecap="round" stroke-linejoin="round" stroke-width=".5" d="m285.73 158.08 7.13 6.05M293.39 131.46l-7.78 6.7M307.41 138.25l.65.43.87.44.64.64.65.65.43.43.65.87.43.65.44.65.43.86.22.86.21.87.22.65v.86l.21.87M307.41 157.7l-1.08.65M295.96 93.52H187.04M295.96 93.52H187.04M295.96 93.52h.65l.43.21h.65l.43.22.65.22.43.21.43.43.43.22.44.43.43.43.43.44.22.43.21.65.22.43.22.65.21.43v1.3"/><path stroke="#000" stroke-linecap="round" stroke-linejoin="round" stroke-width=".5" d="M295.96 93.52h.65l.43.21h.65l.43.22.65.22.43.21.43.43.43.22.44.43.43.43.43.44.22.43.21.65.22.43.22.65.21.43v1.3M302.44 131.98v.44l.22.43v.65l.21.43.22.43.22.43.21.44.22.43.43.43.22.43.43.43.43.22.43.22.44.43 1.29.43M302.44 131.98v-31.76M313.46 147.98l-.21.86v.86l-.22.87-.21.86-.22.87-.43.65-.44.86-.43.65-.65.65-.43.65-.65.64-.64.44-.87.64-.65.22M197.07 158.1a13.086 13.086 0 0 0 0-20.04M285.72 138.07a13.086 13.086 0 0 0 0 20.04M187.28 128.25a6.63 6.63 0 0 0 2.11 3.28M293.41 131.43c1.02-.85 1.75-2 2.11-3.28M294.12 141.71c-3.52 0-6.38 2.85-6.38 6.38s2.85 6.38 6.38 6.38 6.38-2.85 6.38-6.38-2.85-6.38-6.38-6.38M188.66 141.71c-3.52 0-6.38 2.85-6.38 6.38s2.85 6.38 6.38 6.38 6.38-2.85 6.38-6.38-2.85-6.38-6.38-6.38M164.35 42.3h154.08"/><path stroke="#000" stroke-linejoin="round" stroke-width=".5" d="M164.24 42.31c-5.16 0-9.62 3.62-10.68 8.67"/><path stroke="#000" stroke-linecap="round" stroke-linejoin="round" stroke-width=".5" d="M329.19 50.94a10.92 10.92 0 0 0-10.68-8.67M191.79 164.83l-15.12-6.48M277.37 180.71h-71.96M306.33 158.35l-15.13 6.48M277.39 180.7c5.43 0 9.83-4.4 9.83-9.83M195.47 170.78c0 5.43 4.4 9.83 9.83 9.83M195.46 170.75c0-2.62-1.56-5-3.96-6.04M291.21 164.83a6.59 6.59 0 0 0-3.96 6.04M169.64 76.88c-2.92 0-5.29 2.37-5.29 5.29s2.37 5.29 5.29 5.29 5.29-2.37 5.29-5.29-2.37-5.29-5.29-5.29"/><path stroke="#000" stroke-linecap="round" stroke-linejoin="round" stroke-width=".5" d="M169.64 78.39c-2.09 0-3.78 1.69-3.78 3.78s1.69 3.78 3.78 3.78 3.78-1.69 3.78-3.78-1.69-3.78-3.78-3.78M313.14 76.88c-2.92 0-5.29 2.37-5.29 5.29s2.37 5.29 5.29 5.29 5.29-2.37 5.29-5.29-2.37-5.29-5.29-5.29"/><path stroke="#000" stroke-linecap="round" stroke-linejoin="round" stroke-width=".5" d="M313.14 78.39c-2.09 0-3.78 1.69-3.78 3.78s1.69 3.78 3.78 3.78 3.78-1.69 3.78-3.78-1.69-3.78-3.78-3.78M306.66 177.58c-2.92 0-5.29 2.37-5.29 5.29s2.37 5.29 5.29 5.29 5.29-2.37 5.29-5.29-2.37-5.29-5.29-5.29"/><path stroke="#000" stroke-linecap="round" stroke-linejoin="round" stroke-width=".5" d="M306.66 179.1c-2.09 0-3.78 1.69-3.78 3.78s1.69 3.78 3.78 3.78 3.78-1.69 3.78-3.78-1.69-3.78-3.78-3.78M175.91 177.58c-2.92 0-5.29 2.37-5.29 5.29s2.37 5.29 5.29 5.29 5.29-2.37 5.29-5.29-2.37-5.29-5.29-5.29"/><path stroke="#000" stroke-linecap="round" stroke-linejoin="round" stroke-width=".5" d="M175.91 179.1c-2.09 0-3.78 1.69-3.78 3.78s1.69 3.78 3.78 3.78 3.78-1.69 3.78-3.78-1.69-3.78-3.78-3.78"/><path stroke="gray" stroke-linecap="round" stroke-linejoin="round" stroke-width=".5" d="M127.39 199.19h2.6M353.01 199.19h2.59M127.39 183.85h2.6M353.01 183.85h2.59M127.39 64.99h2.6M127.39 90.92h2.6V64.99M353.01 199.19v-15.34M355.6 64.99h-2.59M355.6 90.92h-2.59V64.99M129.99 183.85v15.34"/><circle cx="123.07" cy="68.51" r=".25" fill="#000"/><circle cx="122.21" cy="75.43" r=".25" fill="#000"/><circle cx="122.21" cy="76.51" r=".25" fill="#000"/><circle cx="357.77" cy="69.53" r=".25" fill="#000"/><path stroke="#000" stroke-linecap="round" stroke-linejoin="round" stroke-width=".5" d="M353.01 50.94s2.59 0 2.59 2.59V206.1 53.54M154.87 206.32l9.29 25.94 8.43 23.34M180.51 131.52s.56 3.01-1.86 5.01c0 0-2.9 1.94-4.25 2.36 0 0-2.82 1.84-3.65 4.19-.01.04-.03.08-.04.12-.78 2.4-1.58 4.11-.59 7.96 0 0 .62 2.9 3.97 5.74l3.07 1.66"/><circle cx="289.26" cy="224.48" r=".25" fill="#000"/><circle cx="289.26" cy="224.48" r=".25" fill="#000"/><path stroke="#000" stroke-linecap="round" stroke-linejoin="round" stroke-width=".5" d="M289.26 224.48h-17.29zM289.26 206.97h-17.29z"/><circle cx="289.26" cy="206.97" r=".25" fill="#000"/><circle cx="289.26" cy="206.97" r=".25" fill="#000"/><path stroke="#000" stroke-linecap="round" stroke-linejoin="round" stroke-width=".5" d="M267.65 211.3v8.86s.23 3.94 4.32 4.32M280.18 222.32v-15.35M283.42 206.97v15.34s-.07 1.18 1.14 2.15M280.18 222.32s.1 1.6.65 2.07M267.65 211.3s.03-4 4.32-4.32M193.74 206.97h17.29zM199.36 206.97v15.34s.2 1.27-1.1 2.01M202.6 206.97v16.43l-.22.43v.43l-.21.22M211.03 206.97s3.93-.09 4.32 4.32v8.86"/><path stroke="#000" stroke-linecap="round" stroke-linejoin="round" stroke-width=".5" d="M215.35 220.16s-.03 4.22-4.32 4.32h-17.29M127.39 206.11V53.54s.06-2.58 2.59-2.59h17.5M164.35 232.47h153.78z"/><path fill="#fff" d="m434.18 150.79 3.51 3.48h1.2c.48 0 .87-2.58.87-5.77s-.39-5.77-.87-5.77h-1.2l-3.51 3.48-32.92.26c-.42 0-1.1.1-1.5.22l-5.42 1.6-.73.22.73.22 5.42 1.6c.4.12 1.08.22 1.5.22l32.92.26z"/><mask id="b" width="47" height="13" x="393" y="142" maskUnits="userSpaceOnUse" style="mask-type:luminance"><path fill="#fff" d="m434.18 150.79 3.51 3.48h1.2c.48 0 .87-2.58.87-5.77s-.39-5.77-.87-5.77h-1.2l-3.51 3.48-32.92.26c-.42 0-1.1.1-1.5.22l-5.42 1.6-.73.22.73.22 5.42 1.6c.4.12 1.08.22 1.5.22l32.92.26z"/></mask><g stroke="#9e9e9f" stroke-miterlimit="10" stroke-width=".25" mask="url(#b)"><path d="M432.2 150.79c.3 0 .77-1.03 1.04-2.29.27-1.27.24-2.29-.06-2.29M430.09 150.79c.3 0 .77-1.03 1.04-2.29.27-1.27.24-2.29-.06-2.29M427.99 150.79c.3 0 .77-1.03 1.04-2.29.27-1.27.24-2.29-.06-2.29M425.89 150.79c.3 0 .77-1.03 1.04-2.29.27-1.27.24-2.29-.06-2.29M423.79 150.79c.3 0 .77-1.03 1.04-2.29.27-1.27.24-2.29-.06-2.29M421.69 150.79c.3 0 .77-1.03 1.04-2.29.27-1.27.24-2.29-.06-2.29M419.59 150.79c.3 0 .77-1.03 1.04-2.29.27-1.27.24-2.29-.06-2.29M417.49 150.79c.3 0 .77-1.03 1.04-2.29.27-1.27.24-2.29-.06-2.29M415.39 150.79c.3 0 .77-1.03 1.04-2.29.27-1.27.24-2.29-.06-2.29M413.28 150.79c.3 0 .77-1.03 1.04-2.29.27-1.27.24-2.29-.06-2.29M411.18 150.79c.3 0 .77-1.03 1.04-2.29.27-1.27.24-2.29-.06-2.29M409.08 150.79c.3 0 .77-1.03 1.04-2.29.27-1.27.24-2.29-.06-2.29M406.98 150.79c.3 0 .77-1.03 1.04-2.29.27-1.27.24-2.29-.06-2.29M404.88 150.79c.3 0 .77-1.03 1.04-2.29.27-1.27.24-2.29-.06-2.29M402.78 150.79c.3 0 .77-1.03 1.04-2.29.27-1.27.24-2.29-.06-2.29M400.67 150.79c.3 0 .77-1.03 1.04-2.29.27-1.27.24-2.29-.06-2.29M398.57 150.79c.3 0 .77-1.03 1.04-2.29.27-1.27.24-2.29-.06-2.29M396.47 150.79c.3 0 .77-1.03 1.04-2.29.27-1.27.24-2.29-.06-2.29"/></g><path stroke="#231815" stroke-miterlimit="10" d="m434.18 150.79 3.51 3.48h1.2c.48 0 .87-2.58.87-5.77s-.39-5.77-.87-5.77h-1.2l-3.51 3.48-32.92.26c-.42 0-1.1.1-1.5.22l-5.42 1.6-.73.22.73.22 5.42 1.6c.4.12 1.08.22 1.5.22l32.92.26z"/><path stroke="#231815" stroke-miterlimit="10" stroke-width=".25" d="M437.7 154.26c.48 0 .87-2.58.87-5.77s-.39-5.77-.87-5.77M434.18 146.2v4.59"/><path stroke="#fff" stroke-miterlimit="10" stroke-width="3" d="M390.19 148.49H304.9"/><path fill="#fff" d="m309.95 141.83-2.83 6.66 2.83 6.67-15.8-6.67z"/><path stroke="#231815" stroke-miterlimit="10" d="M390.19 148.49h-86.17"/><path fill="#231815" d="m306.83 144.79-1.57 3.7 1.57 3.7-8.78-3.7z"/><path fill="#fff" d="m434.18 249.79 3.51 3.48h1.2c.48 0 .87-2.58.87-5.77s-.39-5.77-.87-5.77h-1.2l-3.51 3.48-32.92.26c-.42 0-1.1.1-1.5.22l-5.42 1.6-.73.22.73.22 5.42 1.6c.4.12 1.08.22 1.5.22l32.92.26z"/><mask id="c" width="47" height="13" x="393" y="241" maskUnits="userSpaceOnUse" style="mask-type:luminance"><path fill="#fff" d="m434.18 249.79 3.51 3.48h1.2c.48 0 .87-2.58.87-5.77s-.39-5.77-.87-5.77h-1.2l-3.51 3.48-32.92.26c-.42 0-1.1.1-1.5.22l-5.42 1.6-.73.22.73.22 5.42 1.6c.4.12 1.08.22 1.5.22l32.92.26z"/></mask><g stroke="#9e9e9f" stroke-miterlimit="10" stroke-width=".25" mask="url(#c)"><path d="M432.2 249.79c.3 0 .77-1.03 1.04-2.29.27-1.27.24-2.29-.06-2.29M430.09 249.79c.3 0 .77-1.03 1.04-2.29.27-1.27.24-2.29-.06-2.29M427.99 249.79c.3 0 .77-1.03 1.04-2.29.27-1.27.24-2.29-.06-2.29M425.89 249.79c.3 0 .77-1.03 1.04-2.29.27-1.27.24-2.29-.06-2.29M423.79 249.79c.3 0 .77-1.03 1.04-2.29.27-1.27.24-2.29-.06-2.29M421.69 249.79c.3 0 .77-1.03 1.04-2.29.27-1.27.24-2.29-.06-2.29M419.59 249.79c.3 0 .77-1.03 1.04-2.29.27-1.27.24-2.29-.06-2.29M417.49 249.79c.3 0 .77-1.03 1.04-2.29.27-1.27.24-2.29-.06-2.29M415.39 249.79c.3 0 .77-1.03 1.04-2.29.27-1.27.24-2.29-.06-2.29M413.28 249.79c.3 0 .77-1.03 1.04-2.29.27-1.27.24-2.29-.06-2.29M411.18 249.79c.3 0 .77-1.03 1.04-2.29.27-1.27.24-2.29-.06-2.29M409.08 249.79c.3 0 .77-1.03 1.04-2.29.27-1.27.24-2.29-.06-2.29M406.98 249.79c.3 0 .77-1.03 1.04-2.29.27-1.27.24-2.29-.06-2.29M404.88 249.79c.3 0 .77-1.03 1.04-2.29.27-1.27.24-2.29-.06-2.29M402.78 249.79c.3 0 .77-1.03 1.04-2.29.27-1.27.24-2.29-.06-2.29M400.67 249.79c.3 0 .77-1.03 1.04-2.29.27-1.27.24-2.29-.06-2.29M398.57 249.79c.3 0 .77-1.03 1.04-2.29.27-1.27.24-2.29-.06-2.29M396.47 249.79c.3 0 .77-1.03 1.04-2.29.27-1.27.24-2.29-.06-2.29"/></g><path stroke="#231815" stroke-miterlimit="10" d="m434.18 249.79 3.51 3.48h1.2c.48 0 .87-2.58.87-5.77s-.39-5.77-.87-5.77h-1.2l-3.51 3.48-32.92.26c-.42 0-1.1.1-1.5.22l-5.42 1.6-.73.22.73.22 5.42 1.6c.4.12 1.08.22 1.5.22l32.92.26z"/><path stroke="#231815" stroke-miterlimit="10" stroke-width=".25" d="M437.7 253.26c.48 0 .87-2.58.87-5.77s-.39-5.77-.87-5.77M434.18 245.2v4.59"/><path stroke="#fff" stroke-miterlimit="10" stroke-width="3" d="M390.19 247.49H300.9"/><path fill="#fff" d="m305.95 240.83-2.83 6.66 2.83 6.67-15.8-6.67z"/><path stroke="#231815" stroke-miterlimit="10" d="M390.19 247.49h-90.17"/><path fill="#231815" d="m302.83 243.79-1.57 3.7 1.57 3.7-8.78-3.7z"/><path fill="#fff" d="m48.82 150.79-3.51 3.48h-1.2c-.48 0-.87-2.58-.87-5.77s.39-5.77.87-5.77h1.2l3.51 3.48 32.92.26c.42 0 1.1.1 1.5.22l5.42 1.6.73.22-.73.22-5.42 1.6c-.4.12-1.08.22-1.5.22l-32.92.26z"/><mask id="d" width="47" height="13" x="43" y="142" maskUnits="userSpaceOnUse" style="mask-type:luminance"><path fill="#fff" d="m48.82 150.79-3.51 3.48h-1.2c-.48 0-.87-2.58-.87-5.77s.39-5.77.87-5.77h1.2l3.51 3.48 32.92.26c.42 0 1.1.1 1.5.22l5.42 1.6.73.22-.73.22-5.42 1.6c-.4.12-1.08.22-1.5.22l-32.92.26z"/></mask><g stroke="#9e9e9f" stroke-miterlimit="10" stroke-width=".25" mask="url(#d)"><path d="M50.8 150.79c-.3 0-.77-1.03-1.04-2.29-.27-1.27-.24-2.29.06-2.29M52.91 150.79c-.3 0-.77-1.03-1.04-2.29-.27-1.27-.24-2.29.06-2.29M55.01 150.79c-.3 0-.77-1.03-1.04-2.29-.27-1.27-.24-2.29.06-2.29M57.11 150.79c-.3 0-.77-1.03-1.04-2.29-.27-1.27-.24-2.29.06-2.29M59.21 150.79c-.3 0-.77-1.03-1.04-2.29-.27-1.27-.24-2.29.06-2.29M61.31 150.79c-.3 0-.77-1.03-1.04-2.29-.27-1.27-.24-2.29.06-2.29M63.41 150.79c-.3 0-.77-1.03-1.04-2.29-.27-1.27-.24-2.29.06-2.29M65.51 150.79c-.3 0-.77-1.03-1.04-2.29-.27-1.27-.24-2.29.06-2.29M67.61 150.79c-.3 0-.77-1.03-1.04-2.29-.27-1.27-.24-2.29.06-2.29M69.72 150.79c-.3 0-.77-1.03-1.04-2.29-.27-1.27-.24-2.29.06-2.29M71.82 150.79c-.3 0-.77-1.03-1.04-2.29-.27-1.27-.24-2.29.06-2.29M73.92 150.79c-.3 0-.77-1.03-1.04-2.29-.27-1.27-.24-2.29.06-2.29M76.02 150.79c-.3 0-.77-1.03-1.04-2.29-.27-1.27-.24-2.29.06-2.29M78.12 150.79c-.3 0-.77-1.03-1.04-2.29-.27-1.27-.24-2.29.06-2.29M80.22 150.79c-.3 0-.77-1.03-1.04-2.29-.27-1.27-.24-2.29.06-2.29M82.33 150.79c-.3 0-.77-1.03-1.04-2.29-.27-1.27-.24-2.29.06-2.29M84.43 150.79c-.3 0-.77-1.03-1.04-2.29-.27-1.27-.24-2.29.06-2.29M86.53 150.79c-.3 0-.77-1.03-1.04-2.29-.27-1.27-.24-2.29.06-2.29"/></g><path stroke="#231815" stroke-miterlimit="10" d="m48.82 150.79-3.51 3.48h-1.2c-.48 0-.87-2.58-.87-5.77s.39-5.77.87-5.77h1.2l3.51 3.48 32.92.26c.42 0 1.1.1 1.5.22l5.42 1.6.73.22-.73.22-5.42 1.6c-.4.12-1.08.22-1.5.22l-32.92.26z"/><path stroke="#231815" stroke-miterlimit="10" stroke-width=".25" d="M45.3 154.26c-.48 0-.87-2.58-.87-5.77s.39-5.77.87-5.77M48.82 146.2v4.59"/><path stroke="#fff" stroke-miterlimit="10" stroke-width="3" d="M92.81 148.49h85.29"/><path fill="#fff" d="m173.05 155.16 2.83-6.67-2.83-6.66 15.8 6.66z"/><path stroke="#231815" stroke-miterlimit="10" d="M92.81 148.49h86.17"/><path fill="#231815" d="m176.17 152.19 1.57-3.7-1.57-3.7 8.78 3.7z"/><path fill="#fff" d="m48.82 249.79-3.51 3.48h-1.2c-.48 0-.87-2.58-.87-5.77s.39-5.77.87-5.77h1.2l3.51 3.48 32.92.26c.42 0 1.1.1 1.5.22l5.42 1.6.73.22-.73.22-5.42 1.6c-.4.12-1.08.22-1.5.22l-32.92.26z"/><mask id="e" width="47" height="13" x="43" y="241" maskUnits="userSpaceOnUse" style="mask-type:luminance"><path fill="#fff" d="m48.82 249.79-3.51 3.48h-1.2c-.48 0-.87-2.58-.87-5.77s.39-5.77.87-5.77h1.2l3.51 3.48 32.92.26c.42 0 1.1.1 1.5.22l5.42 1.6.73.22-.73.22-5.42 1.6c-.4.12-1.08.22-1.5.22l-32.92.26z"/></mask><g stroke="#9e9e9f" stroke-miterlimit="10" stroke-width=".25" mask="url(#e)"><path d="M50.8 249.79c-.3 0-.77-1.03-1.04-2.29-.27-1.27-.24-2.29.06-2.29M52.91 249.79c-.3 0-.77-1.03-1.04-2.29-.27-1.27-.24-2.29.06-2.29M55.01 249.79c-.3 0-.77-1.03-1.04-2.29-.27-1.27-.24-2.29.06-2.29M57.11 249.79c-.3 0-.77-1.03-1.04-2.29-.27-1.27-.24-2.29.06-2.29M59.21 249.79c-.3 0-.77-1.03-1.04-2.29-.27-1.27-.24-2.29.06-2.29M61.31 249.79c-.3 0-.77-1.03-1.04-2.29-.27-1.27-.24-2.29.06-2.29M63.41 249.79c-.3 0-.77-1.03-1.04-2.29-.27-1.27-.24-2.29.06-2.29M65.51 249.79c-.3 0-.77-1.03-1.04-2.29-.27-1.27-.24-2.29.06-2.29M67.61 249.79c-.3 0-.77-1.03-1.04-2.29-.27-1.27-.24-2.29.06-2.29M69.72 249.79c-.3 0-.77-1.03-1.04-2.29-.27-1.27-.24-2.29.06-2.29M71.82 249.79c-.3 0-.77-1.03-1.04-2.29-.27-1.27-.24-2.29.06-2.29M73.92 249.79c-.3 0-.77-1.03-1.04-2.29-.27-1.27-.24-2.29.06-2.29M76.02 249.79c-.3 0-.77-1.03-1.04-2.29-.27-1.27-.24-2.29.06-2.29M78.12 249.79c-.3 0-.77-1.03-1.04-2.29-.27-1.27-.24-2.29.06-2.29M80.22 249.79c-.3 0-.77-1.03-1.04-2.29-.27-1.27-.24-2.29.06-2.29M82.33 249.79c-.3 0-.77-1.03-1.04-2.29-.27-1.27-.24-2.29.06-2.29M84.43 249.79c-.3 0-.77-1.03-1.04-2.29-.27-1.27-.24-2.29.06-2.29M86.53 249.79c-.3 0-.77-1.03-1.04-2.29-.27-1.27-.24-2.29.06-2.29"/></g><path stroke="#231815" stroke-miterlimit="10" d="m48.82 249.79-3.51 3.48h-1.2c-.48 0-.87-2.58-.87-5.77s.39-5.77.87-5.77h1.2l3.51 3.48 32.92.26c.42 0 1.1.1 1.5.22l5.42 1.6.73.22-.73.22-5.42 1.6c-.4.12-1.08.22-1.5.22l-32.92.26z"/><path stroke="#231815" stroke-miterlimit="10" stroke-width=".25" d="M45.3 253.26c-.48 0-.87-2.58-.87-5.77s.39-5.77.87-5.77M48.82 245.2v4.59"/><path stroke="#fff" stroke-miterlimit="10" stroke-width="3" d="M92.81 247.49h82.29"/><path fill="#fff" d="m170.05 254.16 2.83-6.67-2.83-6.66 15.8 6.66z"/><path stroke="#231815" stroke-miterlimit="10" d="M92.81 247.49h83.17"/><path fill="#231815" d="m173.17 251.19 1.57-3.7-1.57-3.7 8.78 3.7z"/></g><defs><clipPath id="a"><path fill="#fff" d="M0 0h483v305H0z"/></clipPath></defs></svg>