<svg xmlns="http://www.w3.org/2000/svg" width="531" height="285" fill="none" viewBox="0 0 531 285"><path fill="#fff" d="M0 0h531v285H0z"/><path fill="#a6a7a7" stroke="#1a1311" stroke-miterlimit="10" stroke-width="1.5" d="M499.732 120.44h-72.356v111.208h72.356z"/><path fill="#a6a7a7" d="M195.579 120.44h12.966v-4.955l10.379-3.025s1.97.8.772 2l-7.837 2.5v3.48h7.007v6.646s.52 1.67 4 1.67H365.48v102.891h-169.9z"/><path stroke="#1a1311" stroke-linecap="round" stroke-linejoin="round" stroke-width="1.5" d="M195.579 120.44v111.207h169.9V128.76H221.717s-2.9.06-2.851-2.391v-5.929h-22.99"/><path stroke="#1a1311" stroke-miterlimit="10" stroke-width="1.5" d="M195.578 138.263h169.901M195.578 140.292h169.901M195.578 229.51h169.901M427.376 229.51h72.356M427.376 138.263h72.356M427.376 140.292h72.356"/><path stroke="#1a1311" stroke-linecap="round" stroke-linejoin="round" stroke-width="1.5" d="M211.634 120.066v-2.447a1.085 1.085 0 0 1 .782-1.039l7.109-2.045a1.083 1.083 0 0 0 .667-1.522 1.08 1.08 0 0 0-1.268-.552l-9.6 2.812a1.08 1.08 0 0 0-.777 1.038v3.758"/><path fill="#fff" d="M40.613 145.06a76.482 76.482 0 0 0 138.611-32.791l25.461-4.16-25.085-14.42a76.5 76.5 0 0 0-35.643-57.116 76.502 76.502 0 0 0-113.415 41.92 76.5 76.5 0 0 0 10.071 66.567"/><path stroke="#1a1311" stroke-miterlimit="10" stroke-width="1.799" d="M40.613 145.06a76.482 76.482 0 0 0 138.611-32.791l25.461-4.16-25.085-14.42a76.5 76.5 0 0 0-35.643-57.116 76.502 76.502 0 0 0-113.415 41.92 76.5 76.5 0 0 0 10.071 66.567Z"/><path stroke="#8e8e8f" stroke-miterlimit="10" stroke-width=".7" d="M365.479 235.604v21.822M195.578 235.604v21.822"/><path fill="#8e8e8f" d="M364.737 247.169a.35.35 0 0 0 0-.495l-2.228-2.227a.35.35 0 1 0-.495.494l1.98 1.98-1.98 1.98a.35.35 0 1 0 .495.495zm-168.495-.495a.35.35 0 0 0 0 .495l2.227 2.227a.35.35 0 1 0 .495-.495l-1.98-1.98 1.98-1.98a.35.35 0 1 0-.495-.494zm168.247.247v-.35h-168v.7h168z"/><path stroke="#8e8e8f" stroke-miterlimit="10" stroke-width=".7" d="M223.752 120.44h164.673M223.752 112.458h180.505M370.693 231.648h33.564"/><path fill="#8e8e8f" d="M382.664 121.251a.35.35 0 0 0-.495 0l-2.228 2.227a.35.35 0 1 0 .495.495l1.98-1.979 1.98 1.979a.35.35 0 1 0 .495-.495zm-.495 109.495a.35.35 0 0 0 .495 0l2.227-2.227a.35.35 0 1 0-.495-.495l-1.98 1.98-1.98-1.98a.35.35 0 1 0-.495.495zm.247-109.247h-.35v109h.7v-109zM395.469 113.251a.35.35 0 0 0-.495 0l-2.228 2.227a.35.35 0 1 0 .495.495l1.98-1.979 1.98 1.979a.35.35 0 1 0 .495-.495zm-.495 117.495a.35.35 0 0 0 .495 0l2.227-2.227a.35.35 0 1 0-.495-.495l-1.98 1.98-1.98-1.98a.35.35 0 1 0-.495.495zm.247-117.247h-.35v117h.7v-117z"/><path fill="#1a1311" d="M276.994 257.925h-.681v-5.142q-.078.079-.232.183-.15.099-.34.199a5 5 0 0 1-.399.187 3 3 0 0 1-.406.137v-.689q.224-.063.473-.166.252-.108.494-.237.244-.133.46-.274.216-.146.374-.282h.257zm5.599-1.818q0 .436-.149.789-.15.353-.428.606a1.9 1.9 0 0 1-.664.39 2.6 2.6 0 0 1-.867.137q-.831 0-1.233-.249v-.722q.606.39 1.241.39.323 0 .581-.095a1.3 1.3 0 0 0 .444-.266q.183-.17.278-.411.1-.24.1-.527 0-.58-.39-.909-.39-.332-1.133-.332a8 8 0 0 0-.519.017 6 6 0 0 0-.49.033l.203-2.984h2.752v.614h-2.162l-.121 1.747q.133-.007.283-.012.149-.009.265-.009.474 0 .847.125t.631.357q.261.228.394.564.137.333.137.747m3.565 1.818h-.68v-5.142a2 2 0 0 1-.233.183 4 4 0 0 1-.34.199 5 5 0 0 1-.399.187 3 3 0 0 1-.406.137v-.689q.224-.063.473-.166a6 6 0 0 0 .954-.511q.216-.146.374-.282h.257z"/><path stroke="#8e8e8f" stroke-miterlimit="10" stroke-width=".7" d="M499.732 235.604v21.822M427.376 235.604v21.822"/><path fill="#8e8e8f" d="M499.237 247.169a.35.35 0 0 0 0-.495l-2.228-2.227a.35.35 0 1 0-.495.494l1.98 1.98-1.98 1.98a.35.35 0 1 0 .495.495zm-70.995-.495a.35.35 0 0 0 0 .495l2.227 2.227a.35.35 0 1 0 .495-.495l-1.98-1.98 1.98-1.98a.35.35 0 1 0-.495-.494zm70.747.247v-.35h-70.5v.7h70.5z"/><path fill="#1a1311" d="M463.231 256.037q0 .435-.141.801a1.9 1.9 0 0 1-.39.631 1.8 1.8 0 0 1-.594.415 1.9 1.9 0 0 1-.747.145q-.448 0-.805-.187a1.7 1.7 0 0 1-.602-.535 2.6 2.6 0 0 1-.373-.859 4.6 4.6 0 0 1-.129-1.142q0-.775.17-1.407.174-.635.49-1.083a2.3 2.3 0 0 1 .768-.697 2.05 2.05 0 0 1 1-.245q.614 0 .988.17v.644a2.1 2.1 0 0 0-.971-.237q-.399 0-.718.178a1.6 1.6 0 0 0-.548.507q-.229.324-.353.784-.12.46-.12 1.025h.016q.41-.743 1.357-.743.39 0 .702.133.315.134.535.378.224.24.345.577t.12.747m-.697.087a1.9 1.9 0 0 0-.079-.56 1.2 1.2 0 0 0-.228-.424.94.94 0 0 0-.362-.265 1.2 1.2 0 0 0-.489-.096 1.14 1.14 0 0 0-.843.357 1.2 1.2 0 0 0-.336.843q0 .307.087.577.087.266.245.465.158.198.374.315.22.112.485.112.258 0 .469-.095.212-.1.361-.274.15-.175.233-.415a1.7 1.7 0 0 0 .083-.54m5.059-.017q0 .436-.149.789-.15.353-.428.606a1.9 1.9 0 0 1-.664.39 2.6 2.6 0 0 1-.867.137q-.831 0-1.233-.249v-.722q.606.39 1.241.39.323 0 .581-.095a1.3 1.3 0 0 0 .444-.266q.183-.17.278-.411.1-.24.1-.527 0-.58-.39-.909-.39-.332-1.133-.332a8 8 0 0 0-.519.017 6 6 0 0 0-.49.033l.203-2.984h2.752v.614h-2.162l-.121 1.747q.133-.007.283-.012.149-.009.265-.009.474 0 .847.125t.631.357q.262.228.394.564.137.333.137.747"/><path stroke="#8e8e8f" stroke-miterlimit="10" stroke-width=".7" d="M485.598 89.137v21.822M441.522 89.137v21.822"/><path fill="#8e8e8f" d="M484.737 100.701a.35.35 0 0 0 0-.495l-2.228-2.227a.35.35 0 0 0-.495.495l1.98 1.98-1.98 1.98a.35.35 0 0 0 .495.494zm-42.495-.495a.35.35 0 0 0 0 .495l2.227 2.227a.35.35 0 1 0 .495-.494l-1.98-1.98 1.98-1.98a.35.35 0 1 0-.495-.495zm42.247.248v-.35h-42v.7h42z"/><path fill="#1a1311" d="M462.187 92.047v3.93h.764v.623h-.764v1.399h-.672v-1.4h-2.798v-.589q.39-.44.789-.937.398-.502.759-1.017.366-.515.673-1.025.311-.516.523-.984zm-2.702 3.93h2.03v-2.913a20 20 0 0 1-1.121 1.747 13 13 0 0 1-.477.63zm7.712.337q0 .402-.154.734-.15.328-.428.564a2 2 0 0 1-.659.362 2.7 2.7 0 0 1-.851.128q-.85 0-1.353-.323v-.73q.601.471 1.378.472.31 0 .56-.079.253-.078.432-.228.182-.15.278-.361.099-.212.099-.477 0-1.166-1.66-1.166h-.494v-.577h.469q1.47 0 1.469-1.096 0-1.013-1.12-1.013-.631 0-1.183.424v-.66q.569-.34 1.353-.34.374 0 .677.103.303.105.518.29.216.188.332.449.121.26.121.577 0 1.174-1.187 1.51v.017q.302.033.56.15.258.111.444.294.187.183.291.432.108.244.108.544M388.815 173.832q.817 0 1.456.161.636.162 1.08.474.44.31.672.759.228.448.228 1.021 0 .59-.207 1.038h-.652q.278-.495.278-1.055 0-.402-.166-.718a1.5 1.5 0 0 0-.481-.539 2.4 2.4 0 0 0-.785-.336 4.4 4.4 0 0 0-1.066-.116v.016q.767.382.767 1.328 0 .382-.132.702a1.7 1.7 0 0 1-.382.552 1.8 1.8 0 0 1-.59.361 2.1 2.1 0 0 1-.751.128 2.2 2.2 0 0 1-.805-.141 1.808 1.808 0 0 1-1.038-1.004 2 2 0 0 1-.145-.768q0-.448.183-.793.178-.348.527-.585.344-.237.851-.361a5 5 0 0 1 1.158-.124m-.61.734q-.345 0-.627.091-.282.088-.482.245a1.074 1.074 0 0 0-.323 1.308q.095.211.274.369.174.153.419.245.24.087.527.087.315 0 .564-.083.25-.087.424-.245.17-.158.261-.377a1.3 1.3 0 0 0 .004-.938 1.126 1.126 0 0 0-1.041-.702m-2.009-4.677h3.93v-.764h.623v.764h1.398v.672h-1.398v2.797h-.59q-.44-.39-.938-.788a21 21 0 0 0-1.016-.76 17 17 0 0 0-1.026-.672 9 9 0 0 0-.983-.523zm3.93 2.702v-2.03h-2.913q.543.312.971.589a19 19 0 0 1 1.407 1.009zM402.481 173.832q.817 0 1.457.161.635.162 1.079.474.44.31.672.759.228.448.228 1.021 0 .59-.207 1.038h-.652q.278-.495.278-1.055 0-.402-.166-.718a1.5 1.5 0 0 0-.481-.539 2.4 2.4 0 0 0-.785-.336 4.4 4.4 0 0 0-1.066-.116v.016q.768.382.767 1.328 0 .382-.132.702a1.7 1.7 0 0 1-.382.552 1.8 1.8 0 0 1-.59.361 2.1 2.1 0 0 1-.751.128 2.2 2.2 0 0 1-.805-.141 1.808 1.808 0 0 1-1.038-1.004 2 2 0 0 1-.145-.768q0-.448.183-.793.179-.348.527-.585.345-.237.851-.361a5 5 0 0 1 1.158-.124m-.61.734q-.345 0-.627.091-.282.088-.482.245a1.074 1.074 0 0 0-.323 1.308q.095.211.274.369.174.153.419.245.24.087.527.087.315 0 .564-.083.25-.087.424-.245.17-.158.261-.377.092-.225.092-.494 0-.237-.088-.444a1.126 1.126 0 0 0-1.041-.702m.61-5.316q.817 0 1.457.161.635.162 1.079.474.44.31.672.759.228.448.228 1.021 0 .59-.207 1.038h-.652q.278-.495.278-1.055 0-.402-.166-.718a1.5 1.5 0 0 0-.481-.539 2.4 2.4 0 0 0-.785-.336 4.4 4.4 0 0 0-1.066-.117v.017q.768.382.767 1.328 0 .382-.132.702a1.7 1.7 0 0 1-.382.552 1.8 1.8 0 0 1-.59.361 2.1 2.1 0 0 1-.751.128 2.2 2.2 0 0 1-.805-.141 1.808 1.808 0 0 1-1.038-1.004 2 2 0 0 1-.145-.768q0-.448.183-.793.179-.348.527-.585.345-.237.851-.361a5 5 0 0 1 1.158-.124m-.61.734q-.345 0-.627.091-.282.088-.482.245a1.074 1.074 0 0 0-.323 1.308q.095.212.274.369.174.153.419.245.24.087.527.087.315 0 .564-.083.25-.087.424-.245.17-.158.261-.377a1.3 1.3 0 0 0 .092-.494q0-.237-.088-.444a1.126 1.126 0 0 0-1.041-.702"/><path stroke="#1a1311" stroke-linecap="round" stroke-linejoin="round" stroke-width="1.5" d="M61.44 59.574h12.832v8.554h42.415l7.842 8.91v24.951l-7.752 7.752H73.915v7.812H61.44M116.628 68.129v41.614"/><path stroke="#1a1311" stroke-linecap="round" stroke-linejoin="round" stroke-width="1.5" d="M110.985 81.85H90.846v13.902h20.139zM66.5 137.653h50.08s6.831-.059 6.95 2.258v5.05H66.5M74.044 137.653v7.307M116.58 144.96v-7.307"/><path stroke="#8e8e8f" stroke-miterlimit="10" stroke-width=".7" d="M121.697 68.129h14.079M121.697 109.742h14.079"/><path fill="#8e8e8f" d="M128.985 68.751a.35.35 0 0 0-.495 0l-2.228 2.227a.35.35 0 1 0 .495.495l1.98-1.98 1.98 1.98a.35.35 0 1 0 .495-.495zm-.495 40.495a.35.35 0 0 0 .495 0l2.227-2.227a.35.35 0 1 0-.495-.495l-1.98 1.98-1.98-1.98a.35.35 0 1 0-.495.495zm.247-40.247h-.35v40h.7v-40z"/><path stroke="#8e8e8f" stroke-miterlimit="10" stroke-width=".7" d="M125.697 137.653h14.079M125.697 144.96h14.079"/><path fill="#8e8e8f" d="M132.985 138.251a.35.35 0 0 0-.495 0l-2.228 2.227a.35.35 0 1 0 .495.495l1.98-1.979 1.98 1.979a.35.35 0 1 0 .495-.495zm-.495 5.995a.35.35 0 0 0 .495 0l2.227-2.227a.35.35 0 1 0-.495-.495l-1.98 1.98-1.98-1.98a.35.35 0 1 0-.495.495zm.247-5.747h-.35v5.5h.7v-5.5z"/><path stroke="#8e8e8f" stroke-miterlimit="10" stroke-width=".7" d="M121.697 59.574h31.218M121.697 117.554h31.218"/><path fill="#8e8e8f" d="M143.124 60.251a.35.35 0 0 0-.495 0l-2.227 2.227a.35.35 0 1 0 .495.495l1.979-1.98 1.98 1.98a.35.35 0 1 0 .495-.495zm-.495 56.495a.35.35 0 0 0 .495 0l2.227-2.227a.35.35 0 1 0-.495-.495l-1.98 1.98-1.979-1.98a.35.35 0 1 0-.495.495zm.247-56.247h-.35v56h.7v-56z"/><path stroke="#8e8e8f" stroke-miterlimit="10" stroke-width=".7" d="M124.529 106.846v28.287M74.273 119.524v15.609"/><path fill="#8e8e8f" d="M123.737 127.576a.35.35 0 0 0 0-.495l-2.228-2.227a.35.35 0 1 0-.495.495l1.98 1.98-1.98 1.98a.35.35 0 0 0 .495.494zm-48.995-.495a.35.35 0 0 0 0 .495l2.227 2.227a.35.35 0 1 0 .495-.494l-1.98-1.98 1.98-1.98a.35.35 0 0 0-.495-.495zm48.747.248v-.35h-48.5v.7h48.5z"/><path fill="#1a1311" d="M132.746 93.47h3.93v-.763h.623v.764h1.398v.672h-1.398v2.797h-.59a21.716 21.716 0 0 0-1.955-1.548 16 16 0 0 0-1.025-.672 9 9 0 0 0-.983-.523zm3.93 2.703v-2.03h-2.914q.545.311.972.59a19 19 0 0 1 1.407 1.008zm2.113-4.682a.45.45 0 0 1-.137.328.46.46 0 0 1-.328.133.45.45 0 0 1-.328-.133.44.44 0 0 1-.141-.328q0-.194.141-.332a.45.45 0 0 1 .328-.137.45.45 0 0 1 .328.137.45.45 0 0 1 .137.332m-5.649-5.11q.237.138.589.333.353.19.793.407t.946.44 1.046.419 1.096.344q.552.146 1.087.212v.73a8 8 0 0 1-1.083-.228 15 15 0 0 1-2.117-.772 23 23 0 0 1-2.137-1.083v2.984h-.614v-3.785zm3.739-4.411q.436 0 .789.15.353.149.606.427.254.274.39.664.137.39.137.867 0 .831-.249 1.233h-.722q.39-.606.39-1.24 0-.325-.095-.582a1.3 1.3 0 0 0-.266-.444 1.1 1.1 0 0 0-.411-.278q-.24-.1-.527-.1-.58 0-.909.39-.332.39-.332 1.133a7 7 0 0 0 .017.52 6 6 0 0 0 .033.489l-2.984-.203v-2.752h.614v2.162l1.747.12a8 8 0 0 1-.012-.282 5 5 0 0 1-.009-.265q0-.474.125-.847.125-.374.357-.63.228-.262.564-.395.333-.137.747-.137M150.978 90.757q.435 0 .801.14.365.142.631.391a1.77 1.77 0 0 1 .56 1.34q0 .45-.187.806a1.7 1.7 0 0 1-.535.602 2.6 2.6 0 0 1-.859.373 4.7 4.7 0 0 1-1.142.129q-.775 0-1.407-.17a3.5 3.5 0 0 1-1.083-.49 2.26 2.26 0 0 1-.697-.768 2.05 2.05 0 0 1-.245-1q0-.615.17-.988h.643q-.236.46-.236.971 0 .399.178.718.179.32.507.548.323.228.784.353.46.12 1.025.12v-.016q-.743-.411-.743-1.358 0-.39.133-.7.134-.317.378-.536.24-.225.577-.345t.747-.12m.087.697q-.311 0-.56.079a1.2 1.2 0 0 0-.424.228.94.94 0 0 0-.265.361 1.2 1.2 0 0 0-.096.49 1.14 1.14 0 0 0 .357.843 1.2 1.2 0 0 0 .843.336q.306 0 .577-.087.266-.087.464-.245.2-.158.316-.374a1.05 1.05 0 0 0 .112-.485q0-.257-.096-.47a1.1 1.1 0 0 0-.273-.36 1.3 1.3 0 0 0-.416-.233 1.7 1.7 0 0 0-.539-.083m1.893-1.963a.45.45 0 0 1-.137.328.46.46 0 0 1-.328.133.45.45 0 0 1-.328-.133.44.44 0 0 1-.141-.328q0-.194.141-.332a.45.45 0 0 1 .328-.137.45.45 0 0 1 .328.137.45.45 0 0 1 .137.332m-1.98-5.159q.435 0 .801.141.365.141.631.39a1.77 1.77 0 0 1 .56 1.34q0 .45-.187.806a1.7 1.7 0 0 1-.535.602 2.6 2.6 0 0 1-.859.373 4.7 4.7 0 0 1-1.142.129q-.775 0-1.407-.17a3.5 3.5 0 0 1-1.083-.49 2.26 2.26 0 0 1-.697-.768 2.05 2.05 0 0 1-.245-1q0-.615.17-.988h.643q-.236.46-.236.971 0 .399.178.718.179.32.507.548.323.229.784.353.46.12 1.025.12v-.016q-.743-.41-.743-1.357 0-.39.133-.702.134-.315.378-.535.24-.224.577-.345t.747-.12m.087.697q-.311 0-.56.08a1.2 1.2 0 0 0-.424.227.94.94 0 0 0-.265.362 1.2 1.2 0 0 0-.096.49 1.14 1.14 0 0 0 .357.842 1.2 1.2 0 0 0 .843.336q.306 0 .577-.087.266-.087.464-.245.2-.158.316-.374a1.05 1.05 0 0 0 .112-.485q0-.257-.096-.47a1.1 1.1 0 0 0-.273-.36 1.3 1.3 0 0 0-.416-.233 1.7 1.7 0 0 0-.539-.083M146.161 142.765q.747 0 1.324.137.577.133.975.39.395.254.602.627.204.37.203.842 0 .448-.195.801a1.7 1.7 0 0 1-.577.59q-.377.24-.925.365a5.8 5.8 0 0 1-1.262.125q-.78 0-1.378-.129a3.2 3.2 0 0 1-1-.386 1.7 1.7 0 0 1-.61-.627 1.77 1.77 0 0 1-.208-.863q0-1.872 3.051-1.872m.066.697q-2.54 0-2.54 1.208 0 1.275 2.586 1.274 2.412 0 2.411-1.249 0-1.233-2.457-1.233m3.026-1.971a.45.45 0 0 1-.137.328.46.46 0 0 1-.328.133.46.46 0 0 1-.328-.133.44.44 0 0 1-.141-.328q0-.195.141-.332a.45.45 0 0 1 .328-.137q.191 0 .328.137a.45.45 0 0 1 .137.332m-1.752-1.291q-.236 0-.473-.075-.24-.074-.448-.211a1.9 1.9 0 0 1-.378-.345 1.7 1.7 0 0 1-.269-.469 1.8 1.8 0 0 1-.552.615 1.32 1.32 0 0 1-.752.228 1.5 1.5 0 0 1-.606-.125 1.5 1.5 0 0 1-.481-.352 1.6 1.6 0 0 1-.315-.532 1.9 1.9 0 0 1-.117-.664q0-.36.117-.668.116-.308.319-.531a1.43 1.43 0 0 1 1.083-.473q.411 0 .752.228.336.228.552.606.1-.257.269-.461a1.8 1.8 0 0 1 .826-.556q.237-.075.473-.075.391 0 .714.141a1.6 1.6 0 0 1 .556.399q.23.253.357.61.129.353.129.78 0 .423-.129.776a1.8 1.8 0 0 1-.357.61 1.64 1.64 0 0 1-1.27.544m-.058-.739q.279 0 .503-.083.224-.087.381-.24.159-.157.245-.378.084-.224.083-.494 0-.262-.087-.481a1.1 1.1 0 0 0-.627-.627 1.3 1.3 0 0 0-.498-.091q-.25 0-.464.087a1.145 1.145 0 0 0-.648.618 1.2 1.2 0 0 0-.095.494q0 .258.091.477a1.12 1.12 0 0 0 .631.627q.22.091.485.091m-2.76-.211q.212 0 .395-.075.178-.079.315-.212.133-.136.212-.315a1 1 0 0 0 .074-.382.95.95 0 0 0-.078-.382 1 1 0 0 0-.212-.315 1.1 1.1 0 0 0-.316-.212 1 1 0 0 0-.39-.079q-.216 0-.398.079a.948.948 0 0 0-.523.523.9.9 0 0 0-.079.386 1 1 0 0 0 .079.403 1 1 0 0 0 .216.311.9.9 0 0 0 .315.199q.183.07.39.071M95.231 123.461a2.2 2.2 0 0 1-.141.801 1.9 1.9 0 0 1-.39.631 1.77 1.77 0 0 1-1.34.56q-.45 0-.806-.186a1.7 1.7 0 0 1-.602-.536 2.6 2.6 0 0 1-.373-.859 4.6 4.6 0 0 1-.129-1.141q0-.777.17-1.407.175-.636.49-1.084.32-.452.768-.697a2.05 2.05 0 0 1 1-.245q.615 0 .988.171v.643a2.1 2.1 0 0 0-.972-.237q-.397 0-.718.179a1.6 1.6 0 0 0-.547.506q-.229.324-.353.784a4 4 0 0 0-.12 1.026h.016q.41-.743 1.357-.743.39 0 .702.133.316.132.535.377.224.241.345.577t.12.747m-.697.087q0-.31-.08-.56a1.2 1.2 0 0 0-.227-.423.93.93 0 0 0-.362-.266 1.2 1.2 0 0 0-.49-.095 1.14 1.14 0 0 0-.842.357 1.2 1.2 0 0 0-.336.842q0 .307.087.577.087.265.245.465t.374.315q.22.112.485.112.257 0 .47-.095a1.1 1.1 0 0 0 .36-.274q.15-.174.233-.415.083-.245.083-.54m1.963 1.893a.45.45 0 0 1-.328-.137.46.46 0 0 1-.133-.328q0-.19.133-.328a.44.44 0 0 1 .328-.141q.194 0 .332.141a.45.45 0 0 1 .137.328.45.45 0 0 1-.137.328.45.45 0 0 1-.332.137m4.872-1.776q0 .402-.153.734-.15.328-.428.565a2 2 0 0 1-.66.361q-.385.128-.85.128-.852 0-1.353-.323v-.731q.6.473 1.377.473.312 0 .56-.079.254-.078.432-.228a1 1 0 0 0 .279-.361q.099-.212.099-.477 0-1.167-1.66-1.166h-.494v-.577h.47q1.468 0 1.468-1.096 0-1.013-1.12-1.013-.63 0-1.183.424v-.66q.569-.34 1.353-.341.373 0 .676.104t.519.291.332.448q.12.26.121.577 0 1.174-1.187 1.511v.016q.303.033.56.15.257.111.444.294.186.183.29.432.108.244.108.544m4.649-.133q0 .435-.15.788a1.7 1.7 0 0 1-.427.606 1.9 1.9 0 0 1-.664.39q-.39.138-.868.137-.83 0-1.232-.249v-.722q.605.39 1.241.39.323 0 .581-.095.261-.096.444-.266a1.1 1.1 0 0 0 .278-.411q.1-.24.1-.527 0-.58-.391-.909-.39-.332-1.133-.332-.12 0-.253.004a8 8 0 0 0-.265.013q-.133.005-.262.012a5 5 0 0 0-.228.021l.203-2.984h2.752v.614h-2.162l-.121 1.748q.133-.009.282-.013.15-.008.266-.008.473 0 .847.124.373.124.631.357.26.228.394.565.137.332.137.747M266.662 184.256v-1.872h-.926v1.872h-.614v-4.403h.614v1.971h.926v-2.133h.618v4.565zm-5.703-.444v-3.781h.61v1.469h2.059v-1.469h.61v3.781zm2.669-1.76h-2.059v1.208h2.059zm3.034 5.645v-2.449h-4.616v-.552h5.234v3.001zm7.001-5.719a1.8 1.8 0 0 1-.672 1.199q-.565.448-1.357.448-.885 0-1.453-.552a1.83 1.83 0 0 1-.568-1.369q0-.81.564-1.362.564-.556 1.457-.556.789 0 1.353.453.564.447.668 1.187h1.378v-1.727h.623v4.022h-.623v-1.743zm-2.029-1.656q-.627 0-1.021.39-.39.39-.39.992 0 .614.386 1.004.39.39 1.025.39.644 0 1.029-.39.39-.39.39-1.004 0-.602-.394-.992-.39-.39-1.025-.39m-.917 7.188v-3.349h.61v1.216h3.714v-1.216h.615v3.349zm4.324-1.59h-3.714v1.038h3.714zm8.637 1.777v-4.18h-.996v3.935h-.61v-7.599h.61v3.108h.996v-3.27h.623v8.006zm-5.719-2.167v-5.262h.61v2.141h1.996v-2.141h.623v5.262zm2.606-2.577h-1.996v2.034h1.996zm11.377 4.744v-4.088h-1.573v-.544h1.573v-3.374h.618v8.006zm-4.607-4.487v1.972h.958q1.834 0 2.653-.104l.041.535q-.635.075-1.37.096-.734.016-2.905.016v-5.354h3.835v.561h-3.212v1.743h2.336v.535zm13.098 4.487v-8.006h.619v8.006zm-5.35-1.727v-3.175h3.047v-1.847h-3.047v-.552h3.665v2.935h-3.042v2.087q3.018 0 3.814-.17l.071.535q-.996.187-4.508.187M102.821 40.216v2.797h-.619v-5.848h.619v2.499h1.208v.552zm-1.623 1.07q-.792.096-4.055.096v-3.706h3.769v.552h-3.146v2.602q2.556 0 3.39-.079zm-3.246 3.64v-2.602h.619v2.05h4.474v.552zm13.327-3.955v4.2h-.618v-8.006h.618v3.254h1.387v.552zm-1.884 2.246q-.594-.453-1.154-1.2-.556-.747-.743-1.34-.162.568-.709 1.344a6.4 6.4 0 0 1-1.212 1.308l-.478-.411q.876-.578 1.474-1.631.602-1.06.602-2.03v-.842h-1.777v-.553h4.13v.553h-1.743v.8q0 .976.601 1.976.603 1 1.441 1.56z"/><path fill="#a6a7a7" d="M441.524 119.733v-5.788l1.69-1.485h4.735l1.471 1.471v5.872"/><path stroke="#1a1311" stroke-linecap="round" stroke-linejoin="round" d="M441.524 119.733v-5.788l1.69-1.485h4.735l1.471 1.471v5.872"/><path stroke="#1a1311" stroke-linecap="round" stroke-linejoin="round" stroke-width=".5" d="M441.522 113.958h7.898"/><path fill="#a6a7a7" d="M477.701 119.734v-5.788l1.691-1.488h4.732l1.471 1.471v5.872"/><path stroke="#1a1311" stroke-linecap="round" stroke-linejoin="round" d="M477.701 119.734v-5.788l1.691-1.488h4.732l1.471 1.471v5.872"/><path stroke="#1a1311" stroke-linecap="round" stroke-linejoin="round" stroke-width=".5" d="M477.701 113.958h7.898"/><path fill="#1a1311" d="M466.034 43.418h-.606q-1.287-1.47-1.287-3.624 0-2.161 1.287-3.681h.614q-1.303 1.577-1.303 3.673 0 2.08 1.295 3.631m5.778-8.383h.705v5.568h-.705zm.484 2.278h1.36v.587h-1.36zm-5.389 1.343h.595q.79 0 1.386-.017.594-.017 1.096-.077t1.012-.161l.085.578a14.5 14.5 0 0 1-2.168.246q-.603.017-1.411.017h-.595zm0-2.958h3.392v.578h-2.695v2.694h-.697zm.825 6.282h5.125v.578h-5.125zm0-1.938h.697v2.201h-.697zm9.145-4.642q.578 0 1.02.205.442.195.688.552.255.348.255.825 0 .459-.255.824a1.65 1.65 0 0 1-.688.561q-.442.196-1.02.196-.56 0-1.003-.196a1.7 1.7 0 0 1-.697-.561 1.4 1.4 0 0 1-.255-.825q0-.476.255-.824.255-.357.697-.552a2.4 2.4 0 0 1 1.003-.204m0 .578q-.366 0-.655.128a1.13 1.13 0 0 0-.459.357.86.86 0 0 0-.161.518q0 .29.161.519.171.221.459.349.29.127.655.127.383 0 .671-.127.29-.128.451-.349a.85.85 0 0 0 .17-.519.83.83 0 0 0-.17-.518 1.06 1.06 0 0 0-.451-.357 1.65 1.65 0 0 0-.671-.128m-.306 3.443h.705v3.069h-.705zm3.4-4.377h.697v7.684h-.697zm-5.525 4.76-.094-.596q.715 0 1.564-.017a38 38 0 0 0 1.76-.076q.91-.06 1.742-.187l.051.527q-.858.162-1.751.238-.893.068-1.734.085-.833.017-1.538.026m8.243-1.16a.456.456 0 0 1-.46-.465q0-.19.132-.323a.46.46 0 0 1 .328-.133q.195 0 .332.133a.43.43 0 0 1 .137.324.45.45 0 0 1-.137.328.45.45 0 0 1-.332.136m0 3.512a.456.456 0 0 1-.46-.465q0-.191.132-.328a.44.44 0 0 1 .328-.141q.195 0 .332.141.137.136.137.328a.45.45 0 0 1-.137.328.45.45 0 0 1-.332.137m9.974-.091h-.681v-2.441q0-.705-.22-1.021-.215-.315-.731-.315-.435 0-.742.398a1.53 1.53 0 0 0-.303.955v2.424h-.681V39.54q0-1.254-.967-1.253-.448 0-.739.377-.29.374-.29.976v2.424h-.681v-4.25h.681v.672h.016q.453-.772 1.32-.772.436 0 .76.245.322.24.444.635.472-.88 1.411-.88 1.403 0 1.403 1.73zm7.321 0h-.681v-2.441q0-.705-.22-1.021-.216-.315-.73-.315-.436 0-.743.398a1.53 1.53 0 0 0-.303.955v2.424h-.681V39.54q0-1.254-.967-1.253-.448 0-.739.377-.29.374-.29.976v2.424h-.681v-4.25h.681v.672h.016q.453-.772 1.32-.772.436 0 .76.245.324.24.444.635.473-.88 1.411-.88 1.403 0 1.403 1.73zm1.303 1.352h-.606q1.295-1.551 1.295-3.631 0-2.096-1.303-3.673h.614q1.295 1.52 1.295 3.681 0 2.154-1.295 3.624"/></svg>