<svg xmlns="http://www.w3.org/2000/svg" width="200" height="144" fill="none" viewBox="0 0 200 144"><path fill="#fff" d="M200 0H0v144h200z"/><mask id="a" width="168" height="111" x="16" y="16" maskUnits="userSpaceOnUse" style="mask-type:luminance"><path fill="#fff" d="M183.097 16.619H16.892v110.164h166.205z"/></mask><g mask="url(#a)"><path stroke="#040000" stroke-linecap="round" stroke-linejoin="round" stroke-width="2" d="M153.942-216.657H46.245c-14.455 0-26.174 11.757-26.174 26.26V99.257c0 14.502 11.719 26.259 26.174 26.259h107.697c14.456 0 26.174-11.757 26.174-26.26v-289.653c0-14.503-11.718-26.26-26.174-26.26"/><path stroke="#040000" stroke-linecap="round" stroke-linejoin="round" stroke-width=".5" d="M176.691 93.545v14.308c0 7.87-9.691 14.309-21.545 14.309H45.041c-11.842 0-21.544-6.439-21.544-14.309V93.545M23.497 56.718v-248.335c0-11.881 9.69-21.615 21.544-21.615h110.117c11.842 0 21.544 9.723 21.544 21.615V56.706"/><path stroke="#040000" stroke-linecap="round" stroke-linejoin="round" d="M177.708 56.707h-45.941v38.855h-5.962v24.606h34.391V99.843c0-3.166 1.356-6.31 6.547-6.31h10.965z"/><path stroke="#040000" stroke-linejoin="round" stroke-width=".5" d="M131.767 94.014h2.63V56.707"/><path stroke="#040000" stroke-miterlimit="10" stroke-width=".5" d="M164.463 56.718v37.038"/><path stroke="#040000" stroke-linejoin="round" stroke-width=".35" d="M168.566 66.7c1.143 0 2.069-.93 2.069-2.077a2.07 2.07 0 0 0-2.069-2.076c-1.142 0-2.069.93-2.069 2.076 0 1.147.927 2.076 2.069 2.076ZM168.566 83.506c1.143 0 2.069-.93 2.069-2.076a2.07 2.07 0 0 0-2.069-2.076c-1.142 0-2.069.93-2.069 2.076s.927 2.076 2.069 2.076Z"/><path stroke="#040000" stroke-linecap="round" stroke-linejoin="round" d="M22.304 56.707H68.42v38.855h5.962v24.606H39.99V99.843c0-3.166-1.356-6.31-6.547-6.31h-11.14z"/><path stroke="#040000" stroke-linejoin="round" stroke-width=".5" d="M68.42 94.014h-2.63V56.707M35.724 56.718v37.038"/><path stroke="#040000" stroke-linejoin="round" stroke-width=".35" d="M31.62 66.7c1.143 0 2.07-.93 2.07-2.077a2.073 2.073 0 0 0-2.07-2.076c-1.142 0-2.068.93-2.068 2.076 0 1.147.926 2.076 2.069 2.076ZM31.62 83.506c1.143 0 2.07-.93 2.07-2.076a2.073 2.073 0 0 0-2.07-2.076c-1.142 0-2.068.93-2.068 2.076s.926 2.076 2.069 2.076Z"/><path stroke="#040000" stroke-linejoin="round" stroke-width=".5" d="M109.206 115.137c0 2.721-3.425 4.949-7.622 4.949h-2.993c-4.196 0-7.621-2.228-7.621-4.949s3.425-4.949 7.621-4.949h2.993c4.197 0 7.622 2.228 7.622 4.949Z"/><path stroke="#040000" stroke-linejoin="round" stroke-width=".75" d="M128.938 35.35H71.261a.995.995 0 0 0-.994.996v56.272c0 .551.445.997.994.997h57.677a.995.995 0 0 0 .994-.997V36.346a.995.995 0 0 0-.994-.997ZM134.198 11.013v-2.58c0-.622-.502-1.138-1.133-1.138h-11.386c-2.034 0-3.694 1.665-3.694 3.706v11.26c0 2.04 1.66 3.705 3.694 3.705h11.386c.619 0 1.133-.504 1.133-1.137v-13.84z"/><path stroke="#040000" stroke-linejoin="round" stroke-width=".5" d="M123.058 10.31a1.996 1.996 0 0 0-1.987 1.993v8.632c0 1.102.9 1.994 1.987 1.994h11.152V10.297h-11.152z"/><path stroke="#040000" stroke-linejoin="round" stroke-width=".35" d="M132.807 19.152h-7.621v1.677h7.621zM132.819 10.333v12.596"/><path stroke="#040000" stroke-linejoin="round" stroke-width=".75" d="M66 22.272v2.58c0 .622.503 1.138 1.134 1.138H78.52c2.034 0 3.694-1.666 3.694-3.706v-11.26c0-2.04-1.66-3.706-3.694-3.706H67.134c-.62 0-1.134.505-1.134 1.138v13.84z"/><path stroke="#040000" stroke-linejoin="round" stroke-width=".5" d="M77.152 22.976a1.996 1.996 0 0 0 1.988-1.994V12.35c0-1.103-.9-1.994-1.988-1.994H66v12.631h11.152z"/><path stroke="#040000" stroke-linejoin="round" stroke-width=".35" d="M67.392 20.853h7.621v-1.677h-7.622zM67.392 22.952V10.356"/><path stroke="#040000" stroke-linejoin="round" stroke-width=".75" d="M100.099-40.99s-3.565.082-6.721-1.584c-3.145-1.677-4.244-3.237-4.851-3.893-.608-.657-1.497-.188-1.497.54v39.441c0 .61.55.845.83.845h1.473c.865 0 2.093.692 2.093 2.1v36.545c0 .258.198.422.42.422h16.483a.42.42 0 0 0 .421-.422V-3.542c0-.938.748-2.1 2.092-2.1h1.462a.843.843 0 0 0 .841-.832v-39.442c0-.88-1.005-1.08-1.484-.54-.468.552-4.349 5.478-11.573 5.478z"/><path stroke="#040000" stroke-linejoin="round" stroke-width=".5" d="M54.007 47.3a4.204 4.204 0 0 0 4.196-4.21 4.204 4.204 0 0 0-4.196-4.21 4.204 4.204 0 0 0-4.197 4.21 4.204 4.204 0 0 0 4.197 4.21ZM146.145 47.3a4.204 4.204 0 0 0 4.197-4.21 4.204 4.204 0 0 0-4.197-4.21 4.203 4.203 0 0 0-4.196 4.21 4.204 4.204 0 0 0 4.196 4.21ZM37.29 36.804a4.204 4.204 0 0 0 4.197-4.211 4.204 4.204 0 0 0-4.197-4.21 4.203 4.203 0 0 0-4.196 4.21 4.204 4.204 0 0 0 4.196 4.21Z"/><path stroke="#040000" stroke-linejoin="round" stroke-width=".3" d="M37.29 36.264a3.665 3.665 0 0 0 3.66-3.67 3.665 3.665 0 0 0-3.66-3.672 3.665 3.665 0 0 0-3.658 3.671 3.665 3.665 0 0 0 3.658 3.671Z"/><path stroke="#040000" stroke-linejoin="round" stroke-width=".5" d="M162.897 36.804a4.204 4.204 0 0 0 4.196-4.211 4.203 4.203 0 0 0-4.196-4.21 4.204 4.204 0 0 0-4.197 4.21 4.204 4.204 0 0 0 4.197 4.21Z"/><path stroke="#040000" stroke-linejoin="round" stroke-width=".3" d="M162.897 36.264a3.665 3.665 0 0 0 3.659-3.671 3.665 3.665 0 0 0-3.659-3.671 3.665 3.665 0 0 0-3.659 3.67 3.665 3.665 0 0 0 3.659 3.672Z"/><path stroke="#952947" stroke-dasharray="3 3" stroke-linecap="round" stroke-linejoin="round" stroke-miterlimit="10" stroke-width="1.5" d="M69.414 54.771h-.48a2.225 2.225 0 0 0-2.22 2.228v33.778c0 1.23.994 2.228 2.22 2.228h.48a2.225 2.225 0 0 0 2.22-2.228V56.999c0-1.23-.993-2.228-2.22-2.228M38.307 120.426v1.255a2.494 2.494 0 0 0 2.49 2.498h33.13a2.494 2.494 0 0 0 2.489-2.498v-1.255a2.494 2.494 0 0 0-2.49-2.498H40.797a2.494 2.494 0 0 0-2.49 2.498M123.97 120.426v1.255a2.494 2.494 0 0 0 2.49 2.498h33.129a2.493 2.493 0 0 0 2.489-2.498v-1.255a2.493 2.493 0 0 0-2.489-2.498H126.46a2.494 2.494 0 0 0-2.49 2.498M21.685 54.771h-1.298a2.506 2.506 0 0 0-2.502 2.51v33.214c0 1.387 1.12 2.51 2.502 2.51h1.297a2.506 2.506 0 0 0 2.502-2.51V57.281c0-1.386-1.12-2.51-2.501-2.51M131.124 54.771h-.479a2.224 2.224 0 0 0-2.221 2.228v33.778c0 1.23.994 2.228 2.221 2.228h.479a2.224 2.224 0 0 0 2.221-2.228V56.999c0-1.23-.994-2.228-2.221-2.228M179.707 54.771h-1.099a2.447 2.447 0 0 0-2.443 2.451v33.332a2.447 2.447 0 0 0 2.443 2.451h1.099a2.447 2.447 0 0 0 2.443-2.451V57.222a2.447 2.447 0 0 0-2.443-2.451"/></g></svg>