<svg width="200" height="370" viewBox="0 0 200 370" fill="none" xmlns="http://www.w3.org/2000/svg">
<path d="M200 0H0V370H200V0Z" fill="white"/>
<path d="M153.495 119.348H144.09" stroke="#9FA0A0" stroke-width="0.5" stroke-linecap="round" stroke-linejoin="round"/>
<path d="M144.09 115.313H153.495" stroke="#9FA0A0" stroke-width="0.5" stroke-linecap="round" stroke-linejoin="round"/>
<path d="M97.0936 119.348H87.689" stroke="#9FA0A0" stroke-width="0.5" stroke-linecap="round" stroke-linejoin="round"/>
<path d="M87.689 115.313H97.0936" stroke="#9FA0A0" stroke-width="0.5" stroke-linecap="round" stroke-linejoin="round"/>
<path d="M129.055 354.093H112.129" stroke="#231815" stroke-linecap="round" stroke-linejoin="round"/>
<path d="M85.3408 337.595H112.129" stroke="#231815" stroke-linecap="round" stroke-linejoin="round"/>
<path d="M129.055 337.595H155.843" stroke="#231815" stroke-linecap="round" stroke-linejoin="round"/>
<path d="M76.1284 303.838H81.5802" stroke="#231815" stroke-linecap="round" stroke-linejoin="round"/>
<path d="M159.604 303.838H165.055" stroke="#231815" stroke-linecap="round" stroke-linejoin="round"/>
<path d="M76.1284 303.838V37.5653" stroke="#231815" stroke-linecap="round" stroke-linejoin="round"/>
<path d="M81.5806 303.838V333.844" stroke="#231815" stroke-linecap="round" stroke-linejoin="round"/>
<path d="M84.8701 102.261V120.076" stroke="#9FA0A0" stroke-width="0.5" stroke-linecap="round" stroke-linejoin="round"/>
<path d="M87.689 120.076V110.841" stroke="#9FA0A0" stroke-width="0.5" stroke-linecap="round" stroke-linejoin="round"/>
<path d="M90.395 181.954V140.702" stroke="#231815" stroke-width="0.5" stroke-linecap="round" stroke-linejoin="round"/>
<path d="M90.5142 37.5653V16" stroke="#231815" stroke-linecap="round" stroke-linejoin="round"/>
<path d="M97.0933 120.076V110.841" stroke="#9FA0A0" stroke-width="0.5" stroke-linecap="round" stroke-linejoin="round"/>
<path d="M99.9121 120.076V102.261" stroke="#9FA0A0" stroke-width="0.5" stroke-linecap="round" stroke-linejoin="round"/>
<path d="M112.129 354.093V337.595" stroke="#231815" stroke-linecap="round" stroke-linejoin="round"/>
<path d="M116.367 274.4V255.646" stroke="#231815" stroke-width="0.5" stroke-linecap="round" stroke-linejoin="round"/>
<path d="M124.817 255.646V274.4" stroke="#231815" stroke-width="0.5" stroke-linecap="round" stroke-linejoin="round"/>
<path d="M129.055 354.093V337.595" stroke="#231815" stroke-linecap="round" stroke-linejoin="round"/>
<path d="M146.796 185.705H94.1553" stroke="#231815" stroke-width="0.5" stroke-linecap="round" stroke-linejoin="round"/>
<path d="M141.271 102.261V120.076" stroke="#9FA0A0" stroke-width="0.5" stroke-linecap="round" stroke-linejoin="round"/>
<path d="M144.09 120.076V110.841" stroke="#9FA0A0" stroke-width="0.5" stroke-linecap="round" stroke-linejoin="round"/>
<path d="M150.557 140.702V181.954" stroke="#231815" stroke-width="0.5" stroke-linecap="round" stroke-linejoin="round"/>
<path d="M150.669 37.5653V16" stroke="#231815" stroke-linecap="round" stroke-linejoin="round"/>
<path d="M153.495 120.076V110.841" stroke="#9FA0A0" stroke-width="0.5" stroke-linecap="round" stroke-linejoin="round"/>
<path d="M156.313 120.076V102.261" stroke="#9FA0A0" stroke-width="0.5" stroke-linecap="round" stroke-linejoin="round"/>
<path d="M159.604 333.844V303.838" stroke="#231815" stroke-linecap="round" stroke-linejoin="round"/>
<path d="M165.055 303.838V37.5653" stroke="#231815" stroke-linecap="round" stroke-linejoin="round"/>
<path d="M94.1553 136.951H146.796" stroke="#231815" stroke-width="0.5" stroke-linecap="round" stroke-linejoin="round"/>
<path d="M84.8701 120.076H87.6889" stroke="#9FA0A0" stroke-width="0.5" stroke-linecap="round" stroke-linejoin="round"/>
<path d="M97.0933 120.076H99.912" stroke="#9FA0A0" stroke-width="0.5" stroke-linecap="round" stroke-linejoin="round"/>
<path d="M141.271 120.076H144.09" stroke="#9FA0A0" stroke-width="0.5" stroke-linecap="round" stroke-linejoin="round"/>
<path d="M153.495 120.076H156.314" stroke="#9FA0A0" stroke-width="0.5" stroke-linecap="round" stroke-linejoin="round"/>
<path d="M129.99 113.044H111.194" stroke="#231815" stroke-width="0.5" stroke-linecap="round" stroke-linejoin="round"/>
<path d="M152.553 109.902H145.032" stroke="#9FA0A0" stroke-width="0.5" stroke-linecap="round" stroke-linejoin="round"/>
<path d="M96.1519 109.902H88.6309" stroke="#9FA0A0" stroke-width="0.5" stroke-linecap="round" stroke-linejoin="round"/>
<path d="M111.194 104.603H129.99" stroke="#231815" stroke-width="0.5" stroke-linecap="round" stroke-linejoin="round"/>
<path d="M153.495 99.4499H144.09" stroke="#9FA0A0" stroke-width="0.5" stroke-linecap="round" stroke-linejoin="round"/>
<path d="M97.0936 99.4499H87.689" stroke="#9FA0A0" stroke-width="0.5" stroke-linecap="round" stroke-linejoin="round"/>
<path d="M90.514 37.5653H76.1284" stroke="#231815" stroke-linecap="round" stroke-linejoin="round"/>
<path d="M150.669 37.5653H165.055" stroke="#231815" stroke-linecap="round" stroke-linejoin="round"/>
<path d="M90.5142 16H150.67" stroke="#231815" stroke-linecap="round" stroke-linejoin="round"/>
<path d="M90.395 181.954C90.395 184.024 92.0796 185.705 94.1556 185.705" stroke="#231815" stroke-width="0.5" stroke-linecap="round" stroke-linejoin="round"/>
<path d="M81.5806 333.844C81.5806 335.914 83.2652 337.595 85.3411 337.595" stroke="#231815" stroke-linecap="round" stroke-linejoin="round"/>
<path d="M111.194 104.603C108.859 104.603 106.962 106.495 106.962 108.824C106.962 111.152 108.859 113.044 111.194 113.044" stroke="#231815" stroke-width="0.5" stroke-linecap="round" stroke-linejoin="round"/>
<path d="M94.1556 136.951C92.0796 136.951 90.395 138.631 90.395 140.702" stroke="#231815" stroke-width="0.5" stroke-linecap="round" stroke-linejoin="round"/>
<path d="M87.6889 99.4499C86.1303 99.4499 84.8701 100.707 84.8701 102.261" stroke="#9FA0A0" stroke-width="0.5" stroke-linecap="round" stroke-linejoin="round"/>
<path d="M99.912 102.261C99.912 100.707 98.6519 99.4499 97.0933 99.4499" stroke="#9FA0A0" stroke-width="0.5" stroke-linecap="round" stroke-linejoin="round"/>
<path d="M97.0936 110.841C97.0936 110.325 96.6758 109.902 96.1519 109.902" stroke="#9FA0A0" stroke-width="0.5" stroke-linecap="round" stroke-linejoin="round"/>
<path d="M88.6308 109.902C88.1134 109.902 87.689 110.319 87.689 110.841" stroke="#9FA0A0" stroke-width="0.5" stroke-linecap="round" stroke-linejoin="round"/>
<path d="M116.367 274.4C116.367 276.729 118.257 278.614 120.592 278.614C122.927 278.614 124.817 276.729 124.817 274.4" stroke="#231815" stroke-width="0.5" stroke-linecap="round" stroke-linejoin="round"/>
<path d="M124.817 255.646C124.817 253.318 122.927 251.433 120.592 251.433C118.257 251.433 116.367 253.318 116.367 255.646" stroke="#231815" stroke-width="0.5" stroke-linecap="round" stroke-linejoin="round"/>
<path d="M146.796 185.705C148.872 185.705 150.557 184.024 150.557 181.954" stroke="#231815" stroke-width="0.5" stroke-linecap="round" stroke-linejoin="round"/>
<path d="M155.843 337.595C157.919 337.595 159.603 335.914 159.603 333.844" stroke="#231815" stroke-linecap="round" stroke-linejoin="round"/>
<path d="M129.99 113.044C132.324 113.044 134.221 111.152 134.221 108.824C134.221 106.495 132.324 104.603 129.99 104.603" stroke="#231815" stroke-width="0.5" stroke-linecap="round" stroke-linejoin="round"/>
<path d="M150.557 140.702C150.557 138.631 148.872 136.951 146.796 136.951" stroke="#231815" stroke-width="0.5" stroke-linecap="round" stroke-linejoin="round"/>
<path d="M144.09 99.4499C142.532 99.4499 141.271 100.707 141.271 102.261" stroke="#9FA0A0" stroke-width="0.5" stroke-linecap="round" stroke-linejoin="round"/>
<path d="M156.314 102.261C156.314 100.707 155.054 99.4499 153.495 99.4499" stroke="#9FA0A0" stroke-width="0.5" stroke-linecap="round" stroke-linejoin="round"/>
<path d="M145.032 109.902C144.515 109.902 144.09 110.319 144.09 110.841" stroke="#9FA0A0" stroke-width="0.5" stroke-linecap="round" stroke-linejoin="round"/>
<path d="M153.495 110.841C153.495 110.325 153.077 109.902 152.553 109.902" stroke="#9FA0A0" stroke-width="0.5" stroke-linecap="round" stroke-linejoin="round"/>
<path d="M89.1016 303.838C89.1016 302.025 90.5739 300.556 92.3912 300.556C94.2085 300.556 95.6809 302.025 95.6809 303.838C95.6809 305.65 94.2085 307.119 92.3912 307.119C90.5739 307.119 89.1016 305.65 89.1016 303.838Z" stroke="#231815" stroke-width="0.5" stroke-linecap="round" stroke-linejoin="round"/>
<path d="M89.1016 69.4436C89.1016 67.6311 90.5739 66.1625 92.3912 66.1625C94.2085 66.1625 95.6809 67.6311 95.6809 69.4436C95.6809 71.2562 94.2085 72.7247 92.3912 72.7247C90.5739 72.7247 89.1016 71.2562 89.1016 69.4436Z" stroke="#231815" stroke-width="0.5" stroke-linecap="round" stroke-linejoin="round"/>
<path d="M145.503 303.838C145.503 302.025 146.975 300.556 148.793 300.556C150.61 300.556 152.082 302.025 152.082 303.838C152.082 305.65 150.61 307.119 148.793 307.119C146.975 307.119 145.503 305.65 145.503 303.838Z" stroke="#231815" stroke-width="0.5" stroke-linecap="round" stroke-linejoin="round"/>
<path d="M145.503 69.4436C145.503 67.6311 146.975 66.1625 148.793 66.1625C150.61 66.1625 152.082 67.6311 152.082 69.4436C152.082 71.2562 150.61 72.7247 148.793 72.7247C146.975 72.7247 145.503 71.2562 145.503 69.4436Z" stroke="#231815" stroke-width="0.5" stroke-linecap="round" stroke-linejoin="round"/>
<path d="M37.7008 110.338L35.3729 112.64H34.577C34.2587 112.64 34 110.934 34 108.824C34 106.713 34.2587 105.007 34.577 105.007H35.3729L37.7008 107.309L59.5345 107.481C59.8131 107.481 60.2641 107.547 60.5294 107.626L64.1241 108.685C64.3894 108.764 64.6083 108.83 64.6083 108.83C64.6083 108.83 64.3894 108.896 64.1241 108.976L60.5294 110.034C60.2641 110.113 59.8131 110.18 59.5345 110.18L37.7008 110.352V110.338Z" fill="white"/>
<mask id="mask0_392_6773" style="mask-type:luminance" maskUnits="userSpaceOnUse" x="34" y="105" width="31" height="8">
<path d="M37.7008 110.338L35.3729 112.64H34.577C34.2587 112.64 34 110.934 34 108.824C34 106.713 34.2587 105.007 34.577 105.007H35.3729L37.7008 107.309L59.5345 107.481C59.8131 107.481 60.2641 107.547 60.5294 107.626L64.1241 108.685C64.3894 108.764 64.6083 108.83 64.6083 108.83C64.6083 108.83 64.3894 108.896 64.1241 108.976L60.5294 110.034C60.2641 110.113 59.8131 110.18 59.5345 110.18L37.7008 110.352V110.338Z" fill="white"/>
</mask>
<g mask="url(#mask0_392_6773)">
<path d="M39.0142 110.338C38.8152 110.338 38.5035 109.657 38.3244 108.824C38.1453 107.983 38.1652 107.309 38.3642 107.309" stroke="#9FA0A0" stroke-width="0.2" stroke-miterlimit="10"/>
<path d="M40.4068 110.338C40.2078 110.338 39.8961 109.657 39.717 108.824C39.5379 107.983 39.5578 107.309 39.7568 107.309" stroke="#9FA0A0" stroke-width="0.2" stroke-miterlimit="10"/>
<path d="M41.8062 110.338C41.6072 110.338 41.2955 109.657 41.1164 108.824C40.9373 107.983 40.9572 107.309 41.1562 107.309" stroke="#9FA0A0" stroke-width="0.2" stroke-miterlimit="10"/>
<path d="M43.1992 110.338C43.0003 110.338 42.6885 109.657 42.5095 108.824C42.3304 107.983 42.3503 107.309 42.5493 107.309" stroke="#9FA0A0" stroke-width="0.2" stroke-miterlimit="10"/>
<path d="M44.5918 110.338C44.3928 110.338 44.0811 109.657 43.902 108.824C43.723 107.983 43.7429 107.309 43.9418 107.309" stroke="#9FA0A0" stroke-width="0.2" stroke-miterlimit="10"/>
<path d="M45.9849 110.338C45.7859 110.338 45.4742 109.657 45.2951 108.824C45.116 107.983 45.1359 107.309 45.3349 107.309" stroke="#9FA0A0" stroke-width="0.2" stroke-miterlimit="10"/>
<path d="M47.3775 110.338C47.1785 110.338 46.8668 109.657 46.6877 108.824C46.5086 107.983 46.5285 107.309 46.7275 107.309" stroke="#9FA0A0" stroke-width="0.2" stroke-miterlimit="10"/>
<path d="M48.7705 110.338C48.5716 110.338 48.2598 109.657 48.0808 108.824C47.9017 107.983 47.9216 107.309 48.1206 107.309" stroke="#9FA0A0" stroke-width="0.2" stroke-miterlimit="10"/>
<path d="M50.1631 110.338C49.9641 110.338 49.6524 109.657 49.4733 108.824C49.2943 107.983 49.3142 107.309 49.5131 107.309" stroke="#9FA0A0" stroke-width="0.2" stroke-miterlimit="10"/>
<path d="M51.5562 110.338C51.3572 110.338 51.0455 109.657 50.8664 108.824C50.6873 107.983 50.7072 107.309 50.9062 107.309" stroke="#9FA0A0" stroke-width="0.2" stroke-miterlimit="10"/>
<path d="M52.9556 110.338C52.7566 110.338 52.4449 109.657 52.2658 108.824C52.0867 107.983 52.1066 107.309 52.3056 107.309" stroke="#9FA0A0" stroke-width="0.2" stroke-miterlimit="10"/>
<path d="M54.3482 110.338C54.1492 110.338 53.8375 109.657 53.6584 108.824C53.4793 107.983 53.4992 107.309 53.6982 107.309" stroke="#9FA0A0" stroke-width="0.2" stroke-miterlimit="10"/>
<path d="M55.7407 110.338C55.5418 110.338 55.23 109.657 55.051 108.824C54.8719 107.983 54.8918 107.309 55.0908 107.309" stroke="#9FA0A0" stroke-width="0.2" stroke-miterlimit="10"/>
<path d="M57.1338 110.338C56.9348 110.338 56.6231 109.657 56.444 108.824C56.265 107.983 56.2849 107.309 56.4838 107.309" stroke="#9FA0A0" stroke-width="0.2" stroke-miterlimit="10"/>
<path d="M58.5264 110.338C58.3274 110.338 58.0157 109.657 57.8366 108.824C57.6575 107.983 57.6774 107.309 57.8764 107.309" stroke="#9FA0A0" stroke-width="0.2" stroke-miterlimit="10"/>
<path d="M59.9194 110.338C59.7205 110.338 59.4088 109.657 59.2297 108.824C59.0506 107.983 59.0705 107.309 59.2695 107.309" stroke="#9FA0A0" stroke-width="0.2" stroke-miterlimit="10"/>
<path d="M61.3189 110.338C61.1199 110.338 60.8082 109.657 60.6291 108.824C60.45 107.983 60.4699 107.309 60.6689 107.309" stroke="#9FA0A0" stroke-width="0.2" stroke-miterlimit="10"/>
<path d="M62.7114 110.338C62.5125 110.338 62.2008 109.657 62.0217 108.824C61.8426 107.983 61.8625 107.309 62.0615 107.309" stroke="#9FA0A0" stroke-width="0.2" stroke-miterlimit="10"/>
</g>
<path d="M37.7008 110.338L35.3729 112.64H34.577C34.2587 112.64 34 110.934 34 108.824C34 106.713 34.2587 105.007 34.577 105.007H35.3729L37.7008 107.309L59.5345 107.481C59.8131 107.481 60.2641 107.547 60.5294 107.626L64.1241 108.685C64.3894 108.764 64.6083 108.83 64.6083 108.83C64.6083 108.83 64.3894 108.896 64.1241 108.976L60.5294 110.034C60.2641 110.113 59.8131 110.18 59.5345 110.18L37.7008 110.352V110.338Z" stroke="#231815" stroke-miterlimit="10"/>
<path d="M35.3661 112.64C35.0477 112.64 34.7891 110.934 34.7891 108.824C34.7891 106.713 35.0477 105.007 35.3661 105.007" stroke="#231815" stroke-width="0.2" stroke-miterlimit="10"/>
<path d="M37.7007 107.309V110.338" stroke="#231815" stroke-width="0.2" stroke-miterlimit="10"/>
<path d="M37.7008 267.785L35.3729 270.087H34.577C34.2587 270.087 34 268.38 34 266.27C34 264.16 34.2587 262.453 34.577 262.453H35.3729L37.7008 264.755L59.5345 264.927C59.8131 264.927 60.2641 264.994 60.5294 265.073L64.1241 266.131C64.3894 266.211 64.6083 266.277 64.6083 266.277C64.6083 266.277 64.3894 266.343 64.1241 266.422L60.5294 267.481C60.2641 267.56 59.8131 267.626 59.5345 267.626L37.7008 267.798V267.785Z" fill="white"/>
<mask id="mask1_392_6773" style="mask-type:luminance" maskUnits="userSpaceOnUse" x="34" y="262" width="31" height="9">
<path d="M37.7008 267.785L35.3729 270.087H34.577C34.2587 270.087 34 268.38 34 266.27C34 264.16 34.2587 262.453 34.577 262.453H35.3729L37.7008 264.755L59.5345 264.927C59.8131 264.927 60.2641 264.994 60.5294 265.073L64.1241 266.131C64.3894 266.211 64.6083 266.277 64.6083 266.277C64.6083 266.277 64.3894 266.343 64.1241 266.422L60.5294 267.481C60.2641 267.56 59.8131 267.626 59.5345 267.626L37.7008 267.798V267.785Z" fill="white"/>
</mask>
<g mask="url(#mask1_392_6773)">
<path d="M39.0142 267.785C38.8152 267.785 38.5035 267.104 38.3244 266.27C38.1453 265.43 38.1652 264.755 38.3642 264.755" stroke="#9FA0A0" stroke-width="0.2" stroke-miterlimit="10"/>
<path d="M40.4068 267.785C40.2078 267.785 39.8961 267.104 39.717 266.27C39.5379 265.43 39.5578 264.755 39.7568 264.755" stroke="#9FA0A0" stroke-width="0.2" stroke-miterlimit="10"/>
<path d="M41.8062 267.785C41.6072 267.785 41.2955 267.104 41.1164 266.27C40.9373 265.43 40.9572 264.755 41.1562 264.755" stroke="#9FA0A0" stroke-width="0.2" stroke-miterlimit="10"/>
<path d="M43.1992 267.785C43.0003 267.785 42.6885 267.104 42.5095 266.27C42.3304 265.43 42.3503 264.755 42.5493 264.755" stroke="#9FA0A0" stroke-width="0.2" stroke-miterlimit="10"/>
<path d="M44.5918 267.785C44.3928 267.785 44.0811 267.104 43.902 266.27C43.723 265.43 43.7429 264.755 43.9418 264.755" stroke="#9FA0A0" stroke-width="0.2" stroke-miterlimit="10"/>
<path d="M45.9849 267.785C45.7859 267.785 45.4742 267.104 45.2951 266.27C45.116 265.43 45.1359 264.755 45.3349 264.755" stroke="#9FA0A0" stroke-width="0.2" stroke-miterlimit="10"/>
<path d="M47.3775 267.785C47.1785 267.785 46.8668 267.104 46.6877 266.27C46.5086 265.43 46.5285 264.755 46.7275 264.755" stroke="#9FA0A0" stroke-width="0.2" stroke-miterlimit="10"/>
<path d="M48.7705 267.785C48.5716 267.785 48.2598 267.104 48.0808 266.27C47.9017 265.43 47.9216 264.755 48.1206 264.755" stroke="#9FA0A0" stroke-width="0.2" stroke-miterlimit="10"/>
<path d="M50.1631 267.785C49.9641 267.785 49.6524 267.104 49.4733 266.27C49.2943 265.43 49.3142 264.755 49.5131 264.755" stroke="#9FA0A0" stroke-width="0.2" stroke-miterlimit="10"/>
<path d="M51.5562 267.785C51.3572 267.785 51.0455 267.104 50.8664 266.27C50.6873 265.43 50.7072 264.755 50.9062 264.755" stroke="#9FA0A0" stroke-width="0.2" stroke-miterlimit="10"/>
<path d="M52.9556 267.785C52.7566 267.785 52.4449 267.104 52.2658 266.27C52.0867 265.43 52.1066 264.755 52.3056 264.755" stroke="#9FA0A0" stroke-width="0.2" stroke-miterlimit="10"/>
<path d="M54.3482 267.785C54.1492 267.785 53.8375 267.104 53.6584 266.27C53.4793 265.43 53.4992 264.755 53.6982 264.755" stroke="#9FA0A0" stroke-width="0.2" stroke-miterlimit="10"/>
<path d="M55.7407 267.785C55.5418 267.785 55.23 267.104 55.051 266.27C54.8719 265.43 54.8918 264.755 55.0908 264.755" stroke="#9FA0A0" stroke-width="0.2" stroke-miterlimit="10"/>
<path d="M57.1338 267.785C56.9348 267.785 56.6231 267.104 56.444 266.27C56.265 265.43 56.2849 264.755 56.4838 264.755" stroke="#9FA0A0" stroke-width="0.2" stroke-miterlimit="10"/>
<path d="M58.5264 267.785C58.3274 267.785 58.0157 267.104 57.8366 266.27C57.6575 265.43 57.6774 264.755 57.8764 264.755" stroke="#9FA0A0" stroke-width="0.2" stroke-miterlimit="10"/>
<path d="M59.9194 267.785C59.7205 267.785 59.4088 267.104 59.2297 266.27C59.0506 265.43 59.0705 264.755 59.2695 264.755" stroke="#9FA0A0" stroke-width="0.2" stroke-miterlimit="10"/>
<path d="M61.3189 267.785C61.1199 267.785 60.8082 267.104 60.6291 266.27C60.45 265.43 60.4699 264.755 60.6689 264.755" stroke="#9FA0A0" stroke-width="0.2" stroke-miterlimit="10"/>
<path d="M62.7114 267.785C62.5125 267.785 62.2008 267.104 62.0217 266.27C61.8426 265.43 61.8625 264.755 62.0615 264.755" stroke="#9FA0A0" stroke-width="0.2" stroke-miterlimit="10"/>
</g>
<path d="M37.7008 267.785L35.3729 270.087H34.577C34.2587 270.087 34 268.38 34 266.27C34 264.16 34.2587 262.453 34.577 262.453H35.3729L37.7008 264.755L59.5345 264.927C59.8131 264.927 60.2641 264.994 60.5294 265.073L64.1241 266.131C64.3894 266.211 64.6083 266.277 64.6083 266.277C64.6083 266.277 64.3894 266.343 64.1241 266.422L60.5294 267.481C60.2641 267.56 59.8131 267.626 59.5345 267.626L37.7008 267.798V267.785Z" stroke="#231815" stroke-miterlimit="10"/>
<path d="M35.3661 270.087C35.0477 270.087 34.7891 268.38 34.7891 266.27C34.7891 264.16 35.0477 262.453 35.3661 262.453" stroke="#231815" stroke-width="0.2" stroke-miterlimit="10"/>
<path d="M37.7007 264.749V267.785" stroke="#231815" stroke-width="0.2" stroke-miterlimit="10"/>
<path d="M66.5845 108.824H112.699" stroke="white" stroke-width="2" stroke-miterlimit="10"/>
<path d="M66.5845 108.824H115.034" stroke="#231815" stroke-miterlimit="10"/>
<path d="M113.17 111.271L114.211 108.824L113.17 106.376L118.993 108.824L113.17 111.271Z" fill="#231815"/>
<path d="M66.5845 266.27H114.775" stroke="white" stroke-width="2" stroke-miterlimit="10"/>
<path d="M112.162 269.697L113.628 266.27L112.162 262.837L120.313 266.27L112.162 269.697Z" fill="white"/>
<path d="M66.5845 266.27H115.034" stroke="#231815" stroke-miterlimit="10"/>
<path d="M113.17 268.718L114.211 266.27L113.17 263.816L118.993 266.27L113.17 268.718Z" fill="#231815"/>
</svg>
