<svg xmlns="http://www.w3.org/2000/svg" width="358" height="526" fill="none" viewBox="0 0 358 526"><g clip-path="url(#a)"><path fill="#fff" d="M357.93 18.8H0v481.4h357.93z"/><path fill="#231815" d="M126.38 220.31v-2.41h-4.37v-1.13l4.6-6.53h1.01v6.53h1.36v1.13h-1.36v2.41zm0-3.55v-4.54l-3.15 4.54zM136.66 212.7l-1.23.1c-.11-.49-.27-.84-.47-1.06-.33-.35-.75-.53-1.24-.53-.39 0-.74.11-1.04.33-.39.28-.7.7-.92 1.24-.22.55-.34 1.32-.35 2.33.3-.45.66-.79 1.09-1.01q.645-.33 1.35-.33c.82 0 1.53.3 2.11.91s.87 1.39.87 2.35c0 .63-.14 1.22-.41 1.76s-.65.96-1.12 1.25c-.48.29-1.02.43-1.62.43q-1.545 0-2.52-1.14c-.65-.76-.98-2.01-.98-3.75 0-1.95.36-3.36 1.08-4.25.63-.77 1.47-1.15 2.54-1.15.79 0 1.44.22 1.95.67.51.44.81 1.06.91 1.84zm-5.05 4.34c0 .43.09.83.27 1.22s.43.69.76.89.67.31 1.02.31q.78 0 1.35-.63c.38-.42.56-.99.56-1.72s-.19-1.24-.56-1.65c-.37-.4-.84-.6-1.4-.6s-1.03.2-1.42.6-.58.93-.58 1.58M138.36 211.97c0-.53.19-.98.56-1.35s.82-.56 1.34-.56.98.19 1.35.56.56.82.56 1.35-.19.98-.56 1.35-.82.56-1.35.56-.97-.19-1.34-.56-.56-.82-.56-1.35m.75 0c0 .32.11.59.34.82s.5.34.82.34.59-.11.81-.34.34-.5.34-.82-.11-.59-.34-.82-.5-.34-.81-.34-.59.11-.82.34-.34.5-.34.82M148.37 233.62l-1.24-.03.17-7.88c-.3.28-.7.55-1.19.83-.49.27-.93.48-1.32.61l.03-1.2c.7-.31 1.31-.69 1.84-1.14s.9-.89 1.13-1.32l.8.02zM151.6 231.05l1.3-.08c.08.63.29 1.11.64 1.44.34.33.76.49 1.26.5.59.01 1.1-.2 1.53-.64q.63-.66.66-1.77c.02-.71-.17-1.27-.56-1.68-.39-.42-.9-.63-1.54-.64-.4 0-.76.07-1.08.25-.32.17-.58.4-.77.69l-1.16-.18 1.09-5.15 5.01.11-.03 1.18-4.02-.09-.6 2.69c.61-.41 1.25-.61 1.92-.59.88.02 1.61.34 2.21.96.59.62.88 1.41.86 2.37-.02.91-.3 1.69-.85 2.35q-.99 1.2-2.67 1.17c-.92-.02-1.66-.29-2.23-.82s-.88-1.21-.95-2.06zM160.06 233.87l.03-1.41 1.41.03-.03 1.41zM169.86 226.48l-1.23.07c-.1-.49-.25-.84-.44-1.07a1.7 1.7 0 0 0-1.23-.56c-.39 0-.74.09-1.04.31-.4.28-.71.68-.95 1.22s-.37 1.31-.4 2.32q.465-.675 1.11-.99c.44-.21.89-.31 1.36-.3.82.02 1.52.34 2.09.96s.84 1.41.82 2.37a3.7 3.7 0 0 1-.45 1.75c-.28.54-.67.94-1.15 1.22s-1.03.41-1.63.4c-1.03-.02-1.86-.42-2.5-1.19-.63-.77-.93-2.03-.89-3.77.04-1.95.43-3.35 1.17-4.22.64-.76 1.5-1.12 2.56-1.1.79.02 1.44.25 1.93.71q.75.69.87 1.86zm-5.15 4.23c0 .43.07.84.25 1.23.17.39.42.7.74.91q.48.315 1.02.33c.52.01.98-.19 1.36-.6q.57-.615.6-1.71c.02-.7-.16-1.25-.52-1.66s-.83-.62-1.39-.63q-.84-.015-1.44.57c-.4.39-.6.91-.62 1.56M171.57 225.78c.01-.53.21-.97.59-1.33s.83-.54 1.36-.53.98.21 1.34.59.54.83.53 1.36-.21.97-.59 1.34-.84.54-1.36.53-.97-.21-1.33-.59c-.37-.38-.54-.83-.53-1.37zm.75.01c0 .32.1.6.32.83q.33.345.81.36c.32 0 .59-.1.82-.32q.345-.33.36-.81c0-.32-.1-.6-.32-.83a1.13 1.13 0 0 0-.81-.36c-.32 0-.6.1-.83.32q-.345.33-.36.81zM126.9 180.44l-.74.99-6.29-4.74c.05.41.04.89-.02 1.45s-.16 1.03-.27 1.42l-.96-.72q.24-1.125.15-2.16c-.06-.69-.2-1.25-.41-1.69l.48-.64 8.08 6.09zM126.69 176.33l.69-1.1c.56.3 1.08.41 1.54.32.47-.09.85-.33 1.14-.73.36-.48.48-1.01.37-1.61s-.46-1.12-1.06-1.57c-.56-.42-1.13-.6-1.69-.53s-1.04.36-1.42.88c-.24.32-.38.66-.43 1.02-.05.37-.01.71.11 1.03l-.82.84-3.55-3.89 3.01-4 .94.71-2.42 3.21 1.84 2.06c.03-.74.24-1.37.64-1.9q.795-1.05 2.07-1.23c.85-.12 1.66.11 2.42.69.73.55 1.2 1.23 1.41 2.06.26 1.01.06 1.96-.61 2.85-.55.73-1.21 1.17-1.96 1.33-.76.15-1.5 0-2.23-.43zM133.93 171.11l-1.12-.85.85-1.13 1.12.85zM133.65 158.84l-.66 1.04c-.45-.2-.83-.29-1.13-.26-.48.05-.87.28-1.17.67-.24.31-.36.66-.36 1.03 0 .48.14.98.44 1.48q.45.765 1.65 1.68c-.18-.51-.23-1-.15-1.48s.27-.9.55-1.28c.5-.66 1.16-1.04 1.99-1.13s1.63.14 2.4.72c.51.38.89.84 1.16 1.39.27.54.38 1.09.32 1.65q-.09.825-.63 1.56c-.62.82-1.43 1.27-2.43 1.33s-2.19-.43-3.58-1.48c-1.55-1.17-2.47-2.31-2.74-3.42-.24-.96-.04-1.87.6-2.72.48-.63 1.05-1.02 1.7-1.15.66-.14 1.33 0 2.02.38zm.43 6.64c.34.26.72.43 1.14.52s.81.07 1.17-.07.65-.35.86-.63c.31-.42.42-.9.31-1.46-.11-.55-.46-1.05-1.03-1.48-.56-.42-1.11-.6-1.65-.55-.54.06-.98.31-1.32.76s-.46.95-.38 1.5c.09.55.39 1.02.91 1.42zM134.09 157.03c-.42-.32-.67-.74-.74-1.26q-.105-.78.36-1.41.48-.63 1.26-.75c.52-.07.99.05 1.41.37s.67.74.74 1.26-.05.99-.36 1.42c-.31.42-.73.66-1.25.74s-.99-.05-1.42-.37m.45-.59c.26.19.54.27.86.22.32-.04.57-.19.77-.45.19-.25.26-.54.22-.86s-.2-.57-.45-.77-.54-.27-.86-.22c-.32.04-.57.19-.76.45s-.27.54-.22.86c.04.32.19.57.45.77zM80.6 278.09l1.23-.2c.16.7.41 1.2.76 1.5s.77.44 1.26.43c.58-.01 1.07-.23 1.46-.64s.58-.92.56-1.51c-.01-.57-.21-1.03-.59-1.39s-.86-.53-1.43-.52c-.23 0-.52.06-.87.16l.11-1.09c.08 0 .15.01.2 0q.795-.015 1.41-.45c.41-.29.61-.71.6-1.29-.01-.45-.17-.82-.49-1.11q-.465-.435-1.2-.42c-.48.01-.88.17-1.19.48s-.51.77-.58 1.38l-1.24-.19c.13-.83.46-1.48.98-1.95s1.18-.71 1.98-.73c.55-.01 1.06.09 1.53.32.47.22.83.54 1.09.94s.39.83.4 1.29c.01.44-.1.83-.32 1.2-.22.36-.56.66-1.02.88.6.12 1.07.4 1.41.82s.52.96.54 1.61c.02.88-.28 1.63-.9 2.26-.63.63-1.43.95-2.41.98-.88.02-1.62-.22-2.22-.73s-.95-1.19-1.05-2.02zM93.14 280.44l-1.24.03-.2-7.88c-.29.29-.67.59-1.15.88-.48.3-.9.52-1.29.67l-.03-1.19c.68-.34 1.28-.75 1.78-1.23.51-.48.86-.93 1.07-1.37l.8-.02zM96.39 272.01c-.01-.53.16-.98.53-1.36.36-.38.81-.58 1.33-.59.53-.01.99.16 1.37.52s.58.81.59 1.33c.01.53-.16.98-.53 1.36-.36.38-.81.58-1.34.59-.52.01-.97-.16-1.36-.52s-.58-.81-.59-1.34zm.75-.02c0 .32.13.59.36.81s.51.33.83.32c.32 0 .58-.13.81-.36s.33-.51.32-.83c0-.32-.13-.59-.36-.81s-.51-.33-.82-.32c-.32 0-.59.13-.81.36s-.33.51-.32.83z"/><path stroke="#231815" stroke-linecap="round" stroke-miterlimit="10" d="M119.75 224.38c-.18-6.58-3.88-12.3-9.33-15.42M137.92 234.97c1.87-4.06 1.79-8.42.1-11.6M122.4 189.85c-2.29-3.84-5.92-6.25-9.5-6.66"/><path fill="#231815" d="M131.83 469.83v-1.19h6.52v.96c-.64.68-1.28 1.59-1.91 2.72a16.3 16.3 0 0 0-1.46 3.49c-.25.84-.41 1.77-.47 2.77h-1.27c.01-.79.17-1.75.47-2.87s.73-2.2 1.28-3.25c.56-1.04 1.15-1.92 1.78-2.63h-4.94M139.57 473.62c0-1.19.12-2.15.37-2.88s.61-1.29 1.09-1.68 1.09-.59 1.82-.59c.54 0 1.01.11 1.42.33s.74.53 1.01.94.47.91.63 1.5.23 1.38.23 2.38c0 1.18-.12 2.14-.36 2.86-.24.73-.61 1.29-1.09 1.68-.48.4-1.09.59-1.83.59-.97 0-1.73-.35-2.29-1.04-.66-.84-1-2.2-1-4.09m1.27 0c0 1.65.19 2.75.58 3.3s.86.82 1.43.82 1.05-.27 1.43-.82.58-1.65.58-3.3-.19-2.76-.58-3.31c-.39-.54-.87-.82-1.45-.82s-1.02.24-1.36.72c-.43.61-.64 1.75-.64 3.4zM156.41 475.91l1.22.16c-.13.84-.47 1.49-1.02 1.97-.55.47-1.22.71-2.02.71-1 0-1.8-.33-2.41-.98s-.91-1.59-.91-2.81q0-1.185.39-2.07c.26-.59.66-1.03 1.19-1.33s1.11-.44 1.74-.44c.79 0 1.44.2 1.94.6s.83.97.97 1.71l-1.2.19c-.11-.49-.32-.86-.61-1.11s-.64-.37-1.05-.37c-.62 0-1.13.22-1.52.67s-.58 1.15-.58 2.12.19 1.69.56 2.14c.38.44.87.67 1.47.67.49 0 .89-.15 1.22-.45s.53-.76.62-1.37zM158.69 478.59v-7.3h1.11v1.02c.23-.36.53-.64.91-.86s.81-.33 1.3-.33c.54 0 .98.11 1.33.34.35.22.59.54.73.94.58-.85 1.33-1.28 2.25-1.28.72 0 1.28.2 1.67.6s.58 1.02.58 1.85v5.01h-1.23v-4.6c0-.49-.04-.85-.12-1.07s-.23-.39-.44-.53c-.21-.13-.46-.2-.74-.2-.51 0-.94.17-1.28.51s-.51.89-.51 1.64v4.24h-1.24v-4.74c0-.55-.1-.96-.3-1.24s-.53-.41-.99-.41c-.35 0-.67.09-.97.27s-.51.45-.64.8-.2.86-.2 1.53v3.79h-1.24zM340.3 364.99v1.24h-7.88c.28.3.57.69.85 1.17s.5.92.64 1.3h-1.2c-.33-.69-.72-1.3-1.18-1.81-.46-.52-.91-.88-1.35-1.1v-.8h10.12M340.3 358.21v1.24h-7.88c.28.3.57.69.85 1.17s.5.92.64 1.3h-1.2c-.33-.69-.72-1.3-1.18-1.81-.46-.52-.91-.88-1.35-1.1v-.8h10.12M334.83 353.14c-.19.51-.46.89-.8 1.14-.35.25-.76.37-1.25.37-.73 0-1.35-.26-1.85-.79q-.75-.795-.75-2.1c0-.87.26-1.59.77-2.12.51-.54 1.13-.8 1.87-.8.47 0 .87.12 1.22.37s.61.62.8 1.12c.2-.62.53-1.09.98-1.41s.98-.48 1.61-.48c.86 0 1.58.3 2.17.91s.88 1.41.88 2.4-.29 1.8-.88 2.41-1.32.91-2.2.91c-.66 0-1.2-.17-1.65-.5-.44-.33-.74-.81-.9-1.42zm-2.09.24c.48 0 .87-.15 1.17-.46q.45-.465.45-1.2c0-.49-.15-.87-.45-1.17s-.67-.46-1.1-.46a1.587 1.587 0 0 0-1.6 1.64q0 .705.45 1.17c.3.31.66.47 1.09.47zm4.65.4c.35 0 .69-.08 1.02-.25s.59-.42.77-.75.27-.68.27-1.06c0-.59-.19-1.08-.57-1.46s-.86-.58-1.45-.58-1.09.2-1.48.59c-.39.4-.58.89-.58 1.49s.19 1.06.58 1.45.87.57 1.44.57M337.62 338.2l.16-1.22c.84.13 1.49.47 1.97 1.02.47.55.71 1.22.71 2.02 0 1-.33 1.8-.98 2.41s-1.59.91-2.81.91q-1.185 0-2.07-.39c-.59-.26-1.03-.66-1.33-1.19s-.44-1.11-.44-1.74c0-.79.2-1.44.6-1.94s.97-.83 1.71-.97l.19 1.2c-.49.11-.86.32-1.11.61s-.37.64-.37 1.05c0 .62.22 1.13.67 1.52s1.15.58 2.12.58 1.69-.19 2.14-.56c.44-.38.67-.87.67-1.47 0-.49-.15-.89-.45-1.22s-.76-.53-1.37-.62zM340.3 335.92H333v-1.11h1.02a2.6 2.6 0 0 1-.86-.91c-.22-.38-.33-.81-.33-1.3 0-.54.11-.98.34-1.33.22-.35.54-.59.94-.73-.85-.58-1.28-1.33-1.28-2.25 0-.72.2-1.28.6-1.67s1.02-.58 1.85-.58h5.01v1.23h-4.6c-.49 0-.85.04-1.07.12s-.39.23-.53.44c-.13.21-.2.46-.2.74 0 .51.17.94.51 1.28s.89.51 1.64.51h4.24v1.24h-4.74c-.55 0-.96.1-1.24.3-.27.2-.41.53-.41.99 0 .35.09.67.27.97s.45.51.8.64.86.2 1.53.2h3.79v1.24z"/><path stroke="#231815" stroke-miterlimit="10" d="M219.4 483.03H69.27"/><path fill="#231815" d="m216.59 479.33 1.57 3.7-1.57 3.7 8.78-3.7zM72.07 479.33l-1.57 3.7 1.57 3.7-8.77-3.7z"/><path stroke="#000" stroke-linecap="round" stroke-linejoin="round" stroke-width="3" d="M58.02 25.79v466.72"/><path stroke="#000" stroke-linecap="round" stroke-linejoin="round" stroke-width=".5" d="m63.6 231.55-3.63-.01M63.6 231.13h-3.63M62.02 204.61l1.63 1.15M61.31 218.84h-1.33M63.68 217.01l-1.43.96M64 198.67v2.3M63.99 214.14v2.29M63.65 205.76v2.59M63.6 231.55v-.42M62.95 215.21v-1.04M62.96 199.74l.01-1.03M62.02 197.12v3M62.01 215.61v-3.11M62.02 204.61v-1.57M62.01 215.61h.34M62.35 215.61l.6-.4M62.95 214.17l.25-.38M61.45 195.59v.42M63.2 213.79h.44M59.97 231.13l.01-12.29"/><path stroke="#b3b3b3" stroke-linecap="round" stroke-linejoin="round" stroke-width=".5" d="M59.98 218.49v-6.04"/><path stroke="#000" stroke-linecap="round" stroke-linejoin="round" stroke-width=".5" d="M59.98 212.15v-3.46"/><path stroke="#b3b3b3" stroke-linecap="round" stroke-linejoin="round" stroke-width=".5" d="m59.98 208.33.01-11.32"/><path stroke="#000" stroke-linecap="round" stroke-linejoin="round" stroke-width=".5" d="m59.99 196.77.01-.76M59.55 231.13l.03-35.12M61.66 212.15h-1.67M63.3 208.7l-3.32-.01M62.97 198.71l.24-.38M63.7 201.54l-1.38.93M62.4 200.12l.56-.38M62.02 200.12h.38M63.21 198.33h.45M61.68 196.77h-1.69M61.45 196.01H60M61.45 195.59H60M61.98 218.35c.05-.15.14-.29.28-.38M62.02 203.04c0-.23.11-.44.31-.57M63.99 216.43c0 .23-.11.44-.31.57M61.98 218.35c-.09.29-.36.5-.66.5M64 200.97c0 .23-.11.44-.31.57M59.97 231.54c-.23 0-.41-.19-.41-.42M59.58 196.01c0-.23.19-.41.42-.41M63.64 213.79c.19 0 .35.16.35.35M63.65 208.35c0 .19-.16.35-.35.35M63.66 198.33c.19 0 .35.16.35.35M61.68 196.77c.19 0 .35.16.35.35M61.66 212.15c.19 0 .35.16.35.35M59.51 198.98v.07M59.49 222.83v.07M59.56 223.29a1 1 0 0 1-.07-.38M59.49 222.83c0-.13.02-.26.07-.38M59.58 199.43a1 1 0 0 1-.07-.38M59.51 198.98c0-.13.02-.26.07-.38M60.84 232.3h1.87"/><path stroke="#b3b3b3" stroke-linecap="round" stroke-linejoin="round" stroke-width=".5" d="M60.84 232.04h1.87"/><path stroke="#000" stroke-linecap="round" stroke-linejoin="round" stroke-width=".5" d="M62.64 230.92h-1.53M62.24 230.85h-.93M62.24 230.85v-.13M62.19 230.92v-.07M61.36 230.92v-.07M61.31 230.85v-.14M61.11 231.06v-.14M62.81 232.2a.1.1 0 0 1-.1.1M60.84 232.3a.1.1 0 0 1-.1-.1M62.81 232.2v-.59M62.64 231.06v-.14M60.74 232.2v-.59M62.29 229.15v1.56h-1.03v-1.56M62.29 229.15a.57.57 0 0 0-.52-.37.57.57 0 0 0-.52.37"/><path stroke="#999" stroke-linecap="round" stroke-linejoin="round" stroke-width=".5" d="M61.06 230.51c.07.12 1.11-.01 1.35-.09M61.07 230.19c.07.12 1.11-.01 1.35-.09M61.08 229.88c.07.12 1.11-.01 1.35-.09M61.09 229.57c.07.12 1.11-.01 1.35-.09M61.1 229.26c.07.12 1.11-.01 1.35-.09"/><path fill="#efefef" d="m96.57 247.72.71-.09.98-.16.96-.21.81-.38c.03-.02.04-.06.02-.1l-.05-.08.06-.04.02.03s0 .01.02.02c.03.02.07.02.1-.01l2.47-3.13.13-.56-27.63-46.07c-.8-1.34-2.1-2.3-3.61-2.68l-11.67-2.92-.03 38.02 7.69 1.36.98.17c7.69 1.36 14.4 5.99 18.42 12.68l2.1 3.5 2.08.51 2.01.24h1.9l1.52-.13z"/><path stroke="#000" stroke-linecap="round" stroke-linejoin="round" d="m99.22 247.26-.49.1M100.03 246.88l-.81.38M100.07 246.67l-.05.03h-.01M102.68 243.58l-2.47 3.13M102.68 243.58l.12-.56M102.8 243.02l-27.62-46.07M67.55 230.74l-7.69-1.36M59.86 229.38l.03-38.03M59.89 191.35l11.67 2.92M100.06 246.78s0 .08-.02.1M100.21 246.71s-.07.04-.1.01l-.02-.02M71.56 194.27c1.51.38 2.81 1.34 3.61 2.68M99.22 247.26l-.96.21-.98.16-.71.09M93.14 247.85l-2.01-.24M95.04 247.86l-1.9-.01M96.57 247.72l-1.53.14M91.13 247.61l-2.09-.51M68.53 230.91l-.98-.17M96.55 247.69l.02.03"/><circle cx="96.57" cy="247.72" r=".5" fill="#000"/><path stroke="#000" stroke-linecap="round" stroke-linejoin="round" d="m89.04 247.1-2.09-3.51M68.53 230.91c7.69 1.36 14.4 5.99 18.42 12.68"/><path stroke="#000" stroke-linecap="round" stroke-linejoin="round" stroke-width=".5" d="m99.22 247.26-.49.1M100.03 246.88l-.81.38M100.07 246.67l-.06.03M102.68 243.58l-2.47 3.13"/><path stroke="#b3b3b3" stroke-linecap="round" stroke-linejoin="round" stroke-width=".5" d="m96.82 243.55-.78.23-.78.21-.76.19M97.74 243.03l-.66.4M97.9 242.92l.06-.04"/><path stroke="#000" stroke-linecap="round" stroke-linejoin="round" stroke-width=".5" d="m89.99 246.16-.02.02-.08.08-.03.09v.1l.03.1.06.1.08.09.09.09.11.08.12.07.12.07"/><path stroke="#b3b3b3" stroke-linecap="round" stroke-linejoin="round" stroke-width=".5" d="m100.66 240.34-2.7 2.54"/><path stroke="#000" stroke-linecap="round" stroke-linejoin="round" stroke-width=".5" d="m102.68 243.58.13-.56"/><path stroke="#b3b3b3" stroke-linecap="round" stroke-linejoin="round" stroke-width=".5" d="m95.38 241.1-.74.34-.72.31-.72.28"/><path stroke="#000" stroke-linecap="round" stroke-linejoin="round" stroke-width=".5" d="m91.96 247.31.07-.1-.03-.14-.12-.18-.21-.2-.27-.2M73.33 195.38l-.42-.27-.46-.23-.47-.19-.49-.15M102.68 243.58l-.02-.03-.04-.07-.06-.12-.1-.17-.11-.21-.14-.25-.16-.29-.18-.32-.2-.34-.21-.37-.22-.39-.23-.4-.23-.4M100.78 240.22l-.01-.03-.02-.02M102.81 243.02l-27.63-46.07M74.93 197.1l-.33-.49-.38-.45-.42-.41-.47-.37M67.55 230.74l-7.69-1.36M75.01 197.24l-.04-.07-.04-.07M100.75 240.17l-25.74-42.93"/><path stroke="#000" stroke-linecap="round" stroke-linejoin="round" d="m72.53 202.76-.24-.32-.29-.25-.31-.18-.32-.11M59.87 223.14l2.74.49 2.63.46 2.59.46"/><path stroke="#000" stroke-linecap="round" stroke-linejoin="round" stroke-width=".5" d="m79.57 228.35.18-.12M79.75 228.23l.22-.18.18-.18.14-.18.11-.18.08-.19.04-.18v-.17l-.04-.16-.07-.13M73.42 202.22l26.67 44.48M73.36 202.26l26.7 44.52"/><path stroke="#000" stroke-linecap="round" stroke-linejoin="round" d="m99.22 247.26-26.69-44.5"/><path stroke="#000" stroke-linecap="round" stroke-linejoin="round" stroke-width=".5" d="m78.21 226.82-.28.18-.3.23M77.63 227.23l-.21.18-.17.18-.14.18-.1.19M80.41 226.68l-.1-.1-.12-.09-.15-.06-.17-.04-.19-.01h-.2l-.22.03-.24.06-.25.08-.26.12-.3.15M76.96 228.32l-.01-.17.06-.19"/><path stroke="#b3b3b3" stroke-linecap="round" stroke-linejoin="round" stroke-width=".5" d="m72.53 203.16 2.32 22.87"/><path stroke="#000" stroke-linecap="round" stroke-linejoin="round" stroke-width=".5" d="m76.96 228.32.07.18.13.13M77.16 228.63l.19.11.23.07.26.03h.27l.3-.04.31-.07.33-.11.35-.17.17-.1"/><path stroke="#000" stroke-linecap="round" stroke-linejoin="round" d="m79.75 228.23 1 .54.98.59.95.63.91.67.87.7.85.74.82.78M77.13 227.06l.17.05.16.06.17.06"/><path stroke="#b3b3b3" stroke-linecap="round" stroke-linejoin="round" stroke-width=".5" d="m66.23 200.84.61 7.9.6 7.8.6 7.75"/><path stroke="#000" stroke-linecap="round" stroke-linejoin="round" stroke-width=".5" d="m91.4 246.49-.33-.19-.31-.13-.27-.06-.23-.02-.17.03-.1.04"/><path stroke="#b3b3b3" stroke-linecap="round" stroke-linejoin="round" stroke-width=".5" d="m75 197.49-1.53 4.57"/><path stroke="#000" stroke-linecap="round" stroke-linejoin="round" stroke-width=".5" d="m90.47 247.05.37.15.38.11.34.05.25-.01.15-.04"/><path stroke="#000" stroke-linecap="round" stroke-linejoin="round" d="m71.37 201.9-11.48-2.88"/><path stroke="#000" stroke-linecap="round" stroke-linejoin="round" stroke-width=".5" d="m59.89 198.03 11.72 2.93M59.89 197.96l11.73 2.93M59.86 229.38l.03-38.03"/><path stroke="#b3b3b3" stroke-linecap="round" stroke-linejoin="round" stroke-width=".5" d="m73.28 202.3-.62.38"/><path stroke="#000" stroke-linecap="round" stroke-linejoin="round" stroke-width=".5" d="m71.49 194.54-11.6-2.9"/><circle cx="71.49" cy="194.54" r=".25" fill="#000"/><path stroke="#000" stroke-linecap="round" stroke-linejoin="round" stroke-width=".5" d="m59.89 191.35 11.67 2.92M100.06 246.78s0 .08-.02.09M100.21 246.71s-.07.04-.1.01l-.02-.02M71.56 194.27c1.51.38 2.81 1.34 3.61 2.68M71.62 200.89c.75.19 1.4.67 1.8 1.33"/><path stroke="#000" stroke-linecap="round" stroke-linejoin="round" stroke-width=".5" d="M71.61 200.96c.73.18 1.36.65 1.75 1.3M99.22 247.26l-.96.21-.98.16-.71.09M93.14 247.85l-2.01-.24M95.04 247.86l-1.9-.01M96.57 247.72l-1.53.14"/><path stroke="#b3b3b3" stroke-linecap="round" stroke-linejoin="round" stroke-width=".5" d="m94.33 244.22-2.41.47-2.16.26-1.96.07"/><path stroke="#000" stroke-linecap="round" stroke-linejoin="round" stroke-width=".5" d="m91.13 247.61-2.08-.51"/><path stroke="#b3b3b3" stroke-linecap="round" stroke-linejoin="round" stroke-width=".5" d="m93.01 242.1-1.73.52-1.56.43-1.43.34-1.31.26"/><path stroke="#000" stroke-linecap="round" stroke-linejoin="round" stroke-width=".5" d="m68.53 230.91-.98-.17"/><path stroke="#b3b3b3" stroke-linecap="round" stroke-linejoin="round" stroke-width=".5" d="m86.06 232.96-1.58 1.6-1.4 1.47-1.23 1.38"/><path stroke="#000" stroke-linecap="round" stroke-linejoin="round" d="m68.78 224.72 1.66.34 1.64.39 1.72.48M68.3 224.63l.16.03.16.03.16.03M67.83 224.55l.47.08"/><path stroke="#000" stroke-linecap="round" stroke-linejoin="round" stroke-width=".5" d="m96.55 247.69.02.03"/><path stroke="#000" stroke-linecap="round" stroke-linejoin="round" d="m92.17 240.55 4.38 7.14M91.85 240.04l.11.17.1.17.11.17"/><circle cx="96.57" cy="247.72" r=".25" fill="#000"/><path stroke="#000" stroke-linecap="round" stroke-linejoin="round" d="m86.13 232.88.87.9.75.82.66.75.58.7.52.66.5.65.48.66.47.66.45.68.44.68"/><path stroke="#b3b3b3" stroke-linecap="round" stroke-linejoin="round" stroke-width=".5" d="m74.85 226.49-.24 2.16-.11 1.99v1.87"/><path stroke="#000" stroke-linecap="round" stroke-linejoin="round" stroke-width=".5" d="m89.05 247.1-2.11-3.51"/><path stroke="#000" stroke-linecap="round" stroke-linejoin="round" d="m74.85 226.26.77.26.78.27.73.27M73.8 225.93l.3.1.27.08.25.07.23.08"/><path stroke="#b3b3b3" stroke-linecap="round" stroke-linejoin="round" stroke-width=".5" d="m68.04 224.8-.13 1.61-.1 1.48-.04 1.4v1.33"/><path stroke="#000" stroke-linecap="round" stroke-linejoin="round" stroke-width=".5" d="M68.53 230.91c7.69 1.36 14.4 5.99 18.42 12.68"/><mask id="b" width="54" height="456" x="5" y="36" maskUnits="userSpaceOnUse" style="mask-type:luminance"><path fill="#fff" d="M58.63 36.35H5.67v454.99h52.96z"/></mask><g stroke="#000" stroke-miterlimit="10" stroke-width=".5" mask="url(#b)"><path d="m7.5 79.21 48-39.49M7.5 90.5l48-39.49M7.5 84.85l48-39.49M7.5 96.14l48-39.49M7.5 101.79l48-39.49M7.5 124.37l48-39.49M7.5 118.73l48-39.49M7.5 152.6l48-39.49M7.5 158.25l48-39.49M7.5 214.71l48-39.49M7.5 192.13l48-39.49M7.5 248.59l48-39.49M7.5 254.23l48-39.49M7.5 107.44l48-39.49M7.5 141.31l48-39.49M7.5 130.02l48-39.49M7.5 163.9l48-39.49M7.5 175.19l48-39.49M7.5 226l48-39.49M7.5 203.42l48-39.49M7.5 265.53l48-39.49M7.5 282.46l48-39.49M7.5 186.48l48-39.49M7.5 242.94l48-39.49M7.5 220.36l48-39.49M7.5 276.82l48-39.49M7.5 293.76l48-39.49M7.5 299.4l48-39.49M7.5 367.16l48-39.49M7.5 344.57l48-39.49M7.5 406.68l48-39.49M7.5 310.69l48-39.48M7.5 333.28l48-39.49M7.5 395.39l48-39.49M7.5 372.8l48-39.49M7.5 423.62l48-39.49M7.5 434.91l48-39.49M7.5 468.79l48-39.49M7.5 457.49l48-39.49M7.5 491.37l48-39.49M7.5 113.08l48-39.49M7.5 146.96l48-39.49M7.5 135.67l48-39.49M7.5 56.62l48-39.49M7.5 50.97l48-39.48M7.5 39.68 55.5.19M7.5 73.56l48-39.49M7.5 62.27l48-39.49M7.5 45.33l48-39.49M7.5 67.91l48-39.49M7.5 169.54l48-39.49M7.5 180.83l48-39.48M7.5 231.65l48-39.49M7.5 209.07l48-39.49M7.5 271.17l48-39.49M7.5 197.77l48-39.49M7.5 259.88l48-39.49M7.5 237.3l48-39.49M7.5 316.34l48-39.49M7.5 327.63l48-39.49M7.5 384.09l48-39.49M7.5 361.51l48-39.49M7.5 417.97l48-39.49M7.5 321.99l48-39.49M7.5 338.93l48-39.49M7.5 401.03l48-39.49M7.5 378.45l48-39.49M7.5 429.26l48-39.49M7.5 440.55l48-39.48M7.5 474.43l48-39.49M7.5 463.14l48-39.49M7.5 497.02l48-39.49M7.5 305.05l48-39.49M7.5 288.11l48-39.49M7.5 350.22l48-39.49M7.5 355.86l48-39.49M7.5 412.32l48-39.49M7.5 389.74l48-39.49M7.5 446.2l48-39.49M7.5 451.85l48-39.49M7.5 485.72l48-39.49M7.5 480.08l48-39.49M7.5 502.66l48-39.49M7.5 508.31l48-39.49M7.5 519.6l48-39.49M7.5 513.95l48-39.49M7.5 525.25l48-39.49"/></g><path stroke="#000" stroke-miterlimit="10" stroke-width="3" d="M349.77 492.99H7.43"/><path stroke="#231815" stroke-dasharray="16.62 16.62" stroke-miterlimit="10" stroke-width=".5" d="m59.5 170.62 68.48 113.97"/><path stroke="#231815" stroke-miterlimit="10" d="M58.61 266.81c4.62 1.38 9.51 2.11 14.58 2.11 14.17 0 27-5.78 36.24-15.11"/><path stroke="#e4007f" stroke-miterlimit="10" d="m231.66 40.96-136.59 188 230.12-32.34"/><path stroke="#231815" stroke-miterlimit="10" d="M308.38 257.59 94.75 229.08l75.13-202.01"/><path fill="#fff" d="M52.86 229.36H17.29v260.72h35.57z"/><path fill="#231815" d="M34.61 380.59v1.24h-7.88c.28.3.57.69.85 1.17s.5.92.64 1.3h-1.2c-.33-.69-.72-1.3-1.18-1.81s-.91-.88-1.35-1.1v-.8h10.12M34.61 373.81v1.24h-7.88c.28.3.57.69.85 1.17s.5.92.64 1.3h-1.2c-.33-.69-.72-1.3-1.18-1.81s-.91-.88-1.35-1.1v-.8h10.12M29.64 370.64c-1.19 0-2.15-.12-2.88-.37s-1.29-.61-1.68-1.09-.59-1.09-.59-1.82c0-.54.11-1.01.33-1.42s.53-.74.94-1.01.91-.47 1.5-.62 1.38-.23 2.38-.23c1.18 0 2.14.12 2.86.36.73.24 1.29.61 1.68 1.09.4.48.59 1.09.59 1.83 0 .97-.35 1.73-1.04 2.29-.84.66-2.2 1-4.1 1zm0-1.27c1.65 0 2.75-.19 3.3-.58s.82-.86.82-1.43-.27-1.05-.82-1.43c-.55-.39-1.65-.58-3.3-.58s-2.76.19-3.3.58c-.55.39-.82.87-.82 1.45s.24 1.02.72 1.36c.61.43 1.75.64 3.4.64zM31.93 353.8l.16-1.22c.84.13 1.49.47 1.97 1.02.47.55.71 1.22.71 2.02 0 1-.33 1.8-.98 2.41s-1.59.91-2.81.91q-1.185 0-2.07-.39c-.59-.26-1.03-.66-1.33-1.19s-.44-1.11-.44-1.74c0-.79.2-1.44.6-1.94s.97-.83 1.71-.97l.19 1.2c-.49.11-.86.32-1.11.61s-.37.64-.37 1.05c0 .62.22 1.13.67 1.52s1.15.58 2.12.58 1.69-.19 2.14-.56c.44-.38.67-.87.67-1.47 0-.49-.15-.89-.45-1.22s-.76-.53-1.37-.62zM34.61 351.53h-7.3v-1.11h1.02a2.6 2.6 0 0 1-.86-.91c-.22-.38-.33-.81-.33-1.3 0-.54.11-.98.34-1.33s.54-.59.94-.73c-.85-.58-1.28-1.33-1.28-2.25 0-.72.2-1.28.6-1.67s1.02-.58 1.85-.58h5.01v1.23H30c-.49 0-.85.04-1.07.12s-.39.23-.53.44c-.13.21-.2.46-.2.74 0 .51.17.94.51 1.28s.89.51 1.64.51h4.24v1.24h-4.74c-.55 0-.96.1-1.24.3s-.41.53-.41.99c0 .35.09.67.27.97s.45.51.8.64.86.2 1.53.2h3.79v1.24z"/><path stroke="#231815" stroke-miterlimit="10" d="M50.52 233.74H21.59M52.87 493.29H23.94M40.94 240.59v243.02"/><path fill="#231815" d="m37.24 243.4 3.7-1.57 3.71 1.57-3.71-8.78zM37.24 480.8l3.7 1.57 3.71-1.57-3.71 8.78z"/><path stroke="#231815" stroke-miterlimit="10" d="M349.77 44.31h-8.31"/><path stroke="#231815" stroke-dasharray="14.31 14.31" stroke-miterlimit="10" d="M327.15 44.31h-78.68"/><path stroke="#231815" stroke-miterlimit="10" d="M241.32 44.31h-8.31"/><path fill="#fff" d="M339.99 96.1H234.16v177.07h105.83z"/><path fill="#666" d="M265.4 494.52c3.34-1.09 6.68-2.17 10.36-3.37 1.92 3.56 5.41 3.13 8.89 2.77 2.11-.22 4.24-.35 6.34-.68 5.26-.82 6.81-3.91 4.81-8.95-.46-1.16-.24-2.62-.22-3.94.02-2.15.73-4.52.06-6.41-1.26-3.56-1.71-7-1.19-10.71.3-2.09.14-4.24.14-6.37 0-8.58-.09-17.16 0-25.74.02-2.51.63-5 .73-7.51.18-4.53.26-9.08.17-13.61-.02-.75-1.05-1.62-1.81-2.16-.92-.65-2.05-1.01-3.03-1.11-1.73 0-3.46.07-5.18-.01-6.73-.32-13.45-.78-20.18-1.01-4.59-.16-9.18-.03-13.75-.03.9 5.57 1.73 10.99 2.65 16.4 1.27 7.53 2.87 15.02 3.78 22.59.39 3.21-.56 6.59-.99 9.88-.21 1.59-.73 3.15-.92 4.74-.53 4.42-3.3 6.95-7.8 6.9-1.92-.02-3.84-.24-5.75-.36-4.02-.26-7.82 2.69-7.87 6.6-.01 1.07 1.44 2.58 2.59 3.14 1.87.91 4.02 1.28 6.09 1.72 1.97.42 3.98.64 6.15 1.7-3.69.77-7.38 2.2-11.06 2.15-4.76-.06-7.03 2.81-9.3 5.97-1.14 1.59-.11 3.04 1.43 3.64 2.63 1.02 5.37 1.75 8.07 2.57 1.43.44 2.88.81 4.33 1.21h22.47zM256.22 169.89c4.01-4.95 7.76-10.14 12.1-14.78 2.99-3.2 6.62-5.93 10.3-8.35 3.11-2.05 4.65-1.25 5.9 2.26 1.09 3.06 2.76 5.51 5.69 7.15 4.53 2.52 7.58 6.39 8.98 11.37 2.08 7.38 4.99 14.73 5.69 22.26.77 8.34-.26 16.9-1.01 25.33-1.33 15-3.36 29.94-4.5 44.94-1.25 16.39.38 32.99-4.05 49.16-.67 2.44-1.31 3.3-3.63 2.96-2.4-.35-4.26.19-4.31 3.06-.04 2.66-.02 5.34.19 7.99.27 3.55.75 7.09 1.18 11.03-13.82.6-26.96 1.29-40.25-.16.8-1.6 1.65-2.83 2.74-3.8 1.49-1.32 1.41-2.44-.27-3.99-1.87 2.28-3.64 4.45-5.42 6.63.65.58 1.18 1.05 1.93 1.72h-5.59c2.48-3.12 2.52-6.47.83-9.07-1.97-3.03-2.74-5.89-2.28-9.38.29-2.15.05-4.37.05-6.54-4.68-.67-5.18-.89-6.1-5.68-.72-3.75-1.02-7.61-1.12-11.43-.44-16.21.23-32.39 2.67-48.42 1.69-11.08.1-22.48 3.45-33.36 2.73-8.85 5.33-17.74 8.47-26.44 1.59-4.41 4.74-8.22 5.08-13.16.08-1.19.72-2.33 1.3-4.07.42 1.58.68 2.53.98 3.67.43-.39.76-.61.99-.9zm16.82 135.83c-5.88-2.03-11.57-3.99-17.3-5.98-2.04 3.22-1.87 3.63 1.8 4.66 4.75 1.33 9.48 2.73 14.62 4.21.37-1.23.66-2.16.88-2.9zm-.44 19.46c-.51 3.72 4.11 8.57 6.93 7.92-2.33-2.66-4.49-5.13-6.93-7.92M256.1 159.76c5.11-10 12.74-15.39 22.85-17.46.63-.13 1.48-.49 1.71-.99 2.46-5.25 5.26-10.42 7.04-15.9 1.07-3.29.86-7.14.57-10.69-.22-2.73-.71-5.68-3.57-7.46-.49-.31-.07-2.09-.07-3.43-2.13-1.59-4.66-3.64-7.36-5.41-1-.66-2.44-.63-3.66-.97-2.05-.58-4.06-1.35-6.14-1.76-1.01-.2-2.15.23-3.23.35-1 .11-2.02.12-3.01.3-.81.15-1.61.43-2.37.75-1.53.64-3.02 1.89-4.55 1.91-4.79.08-8.2 3.11-12.04 5.15-1.79.95-1.61 3.61.38 4.73 1.94 1.09 1.82 2.4 1.34 4.06-1.28 4.43-2.85 8.8-2.12 13.58.13.84-.58 1.83-.99 2.71-.86 1.82-1.95 3.55-2.57 5.44-.21.65.51 2.16 1.17 2.45 2.97 1.32 3.82 3.23 3.1 6.61-.48 2.26-.6 4.66-.48 6.98.05.87 1.07 1.94 1.93 2.45.99.59 2.29.9 3.46.92 3.81.09 6.95 1.16 8.6 5.67zM302.32 340.9c3.82.64 6.08-.1 6.17-2 .08-1.86-1.04-2.69-2.81-2.74-2.76-.08-3.53.97-3.36 4.75zM305.89 402.03c-.94 1.13-1.77 1.76-1.99 2.56-.11.38 1.12 1.64 1.42 1.54 1.12-.37 2.11-1.14 3.15-1.76-.7-.64-1.4-1.27-2.59-2.35zM231.78 406.05h8.47c0-.21 0-.43-.01-.64h-8.5c.01.21.03.43.04.64M220.96 335.75c-2.94-.55-3.65.58-3.47 2.32.04.44 1.02.79 1.56 1.17.59-1.09 1.19-2.18 1.91-3.49M220.77 405.5c1.47-3.17.66-4.14-2.73-3.28 1.1 1.33 1.91 2.3 2.73 3.28"/><path fill="#666" d="m223.46 405.68 79.1.97c3.96.05 7.24-3.16 7.29-7.13l.69-57.79c.05-4.09-3.21-7.44-7.24-7.45l-80.41-.19c-3.93 0-7.12 3.29-7.08 7.32l.55 57.05c.04 3.92 3.23 7.17 7.1 7.21z"/><path stroke="#fff" stroke-miterlimit="10" stroke-width="2" d="M352.26 209.67h-8.31"/><path stroke="#fff" stroke-dasharray="14.31 14.31" stroke-miterlimit="10" stroke-width="2" d="M329.64 209.67h-78.68"/><path stroke="#fff" stroke-miterlimit="10" stroke-width="2" d="M243.81 209.67h-8.31"/><path stroke="#231815" stroke-miterlimit="10" d="M323.35 54.62V200.7"/><path fill="#231815" d="m319.64 57.43 3.71-1.57 3.7 1.57-3.7-8.78zM319.64 197.89l3.71 1.57 3.7-1.57-3.7 8.78z"/><path stroke="#231815" stroke-miterlimit="10" d="M323.35 219.54v263.78"/><path fill="#231815" d="m319.64 222.35 3.71-1.57 3.7 1.57-3.7-8.78zM319.64 480.52l3.71 1.57 3.7-1.57-3.7 8.77z"/><path stroke="#231815" stroke-miterlimit="10" d="M352.26 209.67h-8.31"/><path stroke="#231815" stroke-dasharray="14.31 14.31" stroke-miterlimit="10" d="M329.64 209.67h-78.68"/><path stroke="#231815" stroke-miterlimit="10" d="M243.81 209.67h-8.31"/><path fill="#231815" d="M328.15 149.7h-1.19v-6.52h.96c.68.64 1.59 1.28 2.72 1.91s2.29 1.12 3.49 1.46c.84.25 1.77.41 2.77.47v1.27c-.79-.01-1.75-.17-2.87-.47s-2.2-.73-3.25-1.28c-1.04-.56-1.92-1.15-2.63-1.78v4.94M336.91 137.99h-2.41v4.37h-1.13l-6.53-4.6v-1.01h6.53v-1.36h1.13v1.36h2.41zm-3.55 0h-4.54l4.54 3.15zM334.23 125.11l.16-1.22c.84.13 1.49.47 1.97 1.02.47.55.71 1.22.71 2.02 0 1-.33 1.8-.98 2.41s-1.59.91-2.81.91q-1.185 0-2.07-.39c-.59-.26-1.03-.66-1.33-1.19s-.44-1.11-.44-1.74c0-.79.2-1.44.6-1.94s.97-.83 1.71-.97l.19 1.2c-.49.11-.86.32-1.11.61s-.37.64-.37 1.05c0 .62.22 1.13.67 1.52s1.15.58 2.12.58 1.69-.19 2.14-.56c.44-.38.67-.87.67-1.47 0-.49-.15-.89-.45-1.22s-.76-.53-1.37-.62zM336.91 122.84h-7.3v-1.11h1.02a2.6 2.6 0 0 1-.86-.91c-.22-.38-.33-.81-.33-1.3 0-.54.11-.98.34-1.33.22-.35.54-.59.94-.73-.85-.58-1.28-1.33-1.28-2.25 0-.72.2-1.28.6-1.67s1.02-.58 1.85-.58h5.01v1.23h-4.6c-.49 0-.85.04-1.07.12s-.39.23-.53.44c-.13.21-.2.46-.2.74 0 .51.17.94.51 1.28s.89.51 1.64.51h4.24v1.24h-4.74c-.55 0-.96.1-1.24.3-.27.2-.41.53-.41.99 0 .35.09.67.27.97s.45.51.8.64.86.2 1.53.2h3.79v1.24z"/></g><defs><clipPath id="a"><path fill="#fff" d="M0 0h357.93v525.44H0z"/></clipPath></defs></svg>