<svg xmlns="http://www.w3.org/2000/svg" width="283" height="362" fill="none" viewBox="0 0 283 362"><path fill="#fff" d="M282.93 0H0v361.83h282.93z"/><path fill="#fff" d="M52.53 347.95c-.68 0-1.35.02-2.02.08-.56.04-1.13.11-1.68.22-.2.04-.39.08-.59.14-.15.04-.29.09-.43.16-.05.03-.11.05-.16.08-.04.02-.08.05-.11.09-.05.05-.09.11-.09.18l-.05 2.68H35.82c-3.98 0-7.95-.34-11.87-1.02-1.31-.23-2.6-.63-3.82-1.19-1.29-.59-2.5-1.36-3.58-2.29s-2.08-2.06-2.88-3.28c-.8-1.21-1.43-2.53-1.85-3.91a34.4 34.4 0 0 1-1.54-10.15V35.89c0-3.34.22-6.68.66-9.99a17.924 17.924 0 0 1 1.59-5.3 17.444 17.444 0 0 1 9.07-8.55c.92-.38 1.88-.68 2.85-.89.9-.2 1.81-.33 2.72-.39 5.23-.33 10.47-.49 15.71-.49h34.03c5.24 0 10.48.16 15.71.49.92.06 1.83.19 2.72.39.97.22 1.93.52 2.85.89 1.97.81 3.79 1.99 5.35 3.46 1.54 1.46 2.81 3.2 3.72 5.09.42.88.77 1.78 1.04 2.72.25.85.43 1.71.55 2.58.44 3.31.66 6.65.66 9.99v293.84c0 1.72-.14 3.43-.39 5.13s-.64 3.38-1.15 5.02a15.7 15.7 0 0 1-1.85 3.91c-.8 1.22-1.78 2.33-2.88 3.28s-2.29 1.69-3.58 2.29c-1.22.56-2.5.96-3.82 1.19a68.4 68.4 0 0 1-11.87 1.02H72.39l-.05-2.68c0-.12-.12-.21-.24-.28-.1-.06-.19-.1-.29-.13-.15-.05-.31-.1-.46-.14-.02 0-.05-.01-.07-.02-.14-.03-.29-.06-.44-.09-.05 0-.11-.02-.16-.03-.53-.09-1.06-.14-1.59-.18-.61-.04-1.23-.06-1.85-.06"/><path stroke="#040000" stroke-linecap="round" stroke-linejoin="round" d="M52.53 347.95c-.68 0-1.35.02-2.02.08-.56.04-1.13.11-1.68.22-.2.04-.39.08-.59.14-.15.04-.29.09-.43.16-.05.03-.11.05-.16.08-.04.02-.08.05-.11.09-.05.05-.09.11-.09.18l-.05 2.68H35.82c-3.98 0-7.95-.34-11.87-1.02-1.31-.23-2.6-.63-3.82-1.19-1.29-.59-2.5-1.36-3.58-2.29s-2.08-2.06-2.88-3.28c-.8-1.21-1.43-2.53-1.85-3.91a34.4 34.4 0 0 1-1.54-10.15V35.89c0-3.34.22-6.68.66-9.99a17.924 17.924 0 0 1 1.59-5.3 17.444 17.444 0 0 1 9.07-8.55c.92-.38 1.88-.68 2.85-.89.9-.2 1.81-.33 2.72-.39 5.23-.33 10.47-.49 15.71-.49h34.03c5.24 0 10.48.16 15.71.49.92.06 1.83.19 2.72.39.97.22 1.93.52 2.85.89 1.97.81 3.79 1.99 5.35 3.46 1.54 1.46 2.81 3.2 3.72 5.09.42.88.77 1.78 1.04 2.72.25.85.43 1.71.55 2.58.44 3.31.66 6.65.66 9.99v293.84c0 1.72-.14 3.43-.39 5.13s-.64 3.38-1.15 5.02a15.7 15.7 0 0 1-1.85 3.91c-.8 1.22-1.78 2.33-2.88 3.28s-2.29 1.69-3.58 2.29c-1.22.56-2.5.96-3.82 1.19a68.4 68.4 0 0 1-11.87 1.02H72.39l-.05-2.68c0-.12-.12-.21-.24-.28-.1-.06-.19-.1-.29-.13-.15-.05-.31-.1-.46-.14-.02 0-.05-.01-.07-.02-.14-.03-.29-.06-.44-.09-.05 0-.11-.02-.16-.03-.53-.09-1.06-.14-1.59-.18-.61-.04-1.23-.06-1.85-.06"/><path stroke="#040000" stroke-linecap="round" stroke-linejoin="round" stroke-width=".25" d="M78 332.12H41.75M17.71 316.8V44.34M102.04 44.34V316.8M38.51 29.62h42.72M17.71 316.8c0 2.75.3 5.49.9 8.17M101.14 324.97c.6-2.68.9-5.42.9-8.17M38.51 29.62c-4.48 0-8.95.28-13.39.85M94.62 30.47c-4.44-.57-8.91-.85-13.39-.85M26.57 331.71c5.05.27 10.12.41 15.18.41M26.42 333.63c5.04.29 10.09.43 15.15.43M19.17 35.35a28.3 28.3 0 0 0-1.47 8.99M25.12 30.47a7.25 7.25 0 0 0-5.95 4.88M78 332.12c5.06 0 10.12-.14 15.18-.41M78.18 334.06c5.05 0 10.1-.14 15.15-.43M102.04 44.34c0-3.06-.5-6.09-1.47-8.99M100.57 35.35a7.23 7.23 0 0 0-5.95-4.88M26.57 331.71c-.93-.05-1.85-.25-2.72-.6a8.8 8.8 0 0 1-2.39-1.43c-.71-.6-1.33-1.32-1.81-2.12s-.84-1.68-1.04-2.59M101.14 324.97c-.2.91-.56 1.79-1.04 2.59s-1.1 1.52-1.81 2.12-1.52 1.09-2.39 1.43-1.79.55-2.72.6M102.17 34.49c.49 1.52.88 3.09 1.13 4.67s.38 3.19.38 4.79M103.68 43.96c0 91.07-.01 182.14-.02 273.22M103.66 317.17q0 2.145-.24 4.29t-.72 4.23"/><path stroke="#040000" stroke-linecap="round" stroke-linejoin="round" stroke-width=".25" d="M102.71 325.7c-.24 1.07-.66 2.1-1.23 3.04s-1.29 1.79-2.13 2.5-1.79 1.28-2.81 1.69-2.11.65-3.2.71M78.18 334.06H59.87M59.87 334.06H41.56M26.42 333.63c-1.09-.06-2.18-.3-3.2-.71a10.3 10.3 0 0 1-2.81-1.69c-.84-.71-1.56-1.56-2.13-2.5s-.99-1.97-1.23-3.04M17.04 325.7a38 38 0 0 1-.96-8.52M16.08 317.17c0-91.07-.01-182.14-.02-273.22M16.07 43.96c0-1.6.13-3.21.38-4.79s.64-3.15 1.13-4.67M17.58 34.49c.26-.8.64-1.58 1.11-2.28s1.05-1.34 1.7-1.88 1.38-.99 2.16-1.32 1.61-.56 2.45-.66M25 28.34c2.26-.28 4.54-.49 6.81-.63s4.56-.22 6.84-.22M38.66 27.49h42.43M81.09 27.49c2.28 0 4.56.08 6.84.22q3.42.21 6.81.63M94.74 28.34c.84.1 1.67.33 2.45.66s1.51.78 2.16 1.32 1.23 1.18 1.7 1.88.85 1.48 1.11 2.28"/><path stroke="#040000" stroke-linecap="round" stroke-linejoin="round" d="M83.93 351.56H72.35M52.53 347.96h14.68M52.53 347.95h14.68M67.21 347.96h.24l.93.03.84.05.74.08.62.09.48.1.34.1.08.03"/><path stroke="#040000" stroke-linecap="round" stroke-linejoin="round" stroke-width=".25" d="M78 332.42H41.75M17.41 44.34V316.8"/><path stroke="#040000" stroke-linecap="round" stroke-linejoin="round" d="M52.53 347.95v.01M48.39 350.57l.04-2.18M71.32 348.39l.04 2.18M67.21 347.95v.01"/><path stroke="#040000" stroke-linecap="round" stroke-linejoin="round" stroke-width=".25" d="M102.34 316.8V44.34M17.41 44.34h-.06M78.72 46.28h-37.7M78.72 45.99h-37.7M41.02 44h37.7M41.02 43.72h37.7M81.23 29.32H38.51"/><path stroke="#040000" stroke-linecap="round" stroke-linejoin="round" d="m48.18 348.49.01-.01.15-.06.33-.1.47-.1.61-.1.73-.07.84-.06.92-.03h.29"/><path stroke="#040000" stroke-linecap="round" stroke-linejoin="round" stroke-width=".25" d="M17.41 316.8c0 2.77.31 5.53.91 8.23M101.43 325.04c.6-2.7.91-5.46.91-8.23"/><path stroke="#040000" stroke-linecap="round" stroke-linejoin="round" d="M71.39 348.35s-.09-.02-.14-.04M48.26 348.47s.03-.04.04-.06"/><path stroke="#040000" stroke-linecap="round" stroke-linejoin="round" stroke-width=".25" d="M38.51 29.32c-4.49 0-8.97.29-13.43.85M94.66 30.17c-4.45-.57-8.94-.85-13.43-.85M26.55 332.01c5.06.27 10.13.41 15.19.41M18.89 35.26c-.98 2.93-1.48 6-1.48 9.09M25.09 30.17a7.54 7.54 0 0 0-6.19 5.08M41.02 43.72c-.13 0-.25.02-.37.06M40.65 43.78c-.68.21-1.06.92-.85 1.59.16.54.66.91 1.22.91"/><path stroke="#040000" stroke-linecap="round" stroke-linejoin="round" stroke-width=".25" d="M40.4 45.78c.18.14.39.22.62.22M40.67 44.06c-.52.19-.78.77-.58 1.28.06.17.17.32.31.43M78 332.42c5.07 0 10.13-.14 15.19-.41M102.34 44.34c0-3.09-.5-6.16-1.48-9.09M100.85 35.26a7.54 7.54 0 0 0-6.19-5.08M79.08 43.77c-.12-.03-.24-.05-.36-.05M78.72 46.28c.71 0 1.28-.57 1.28-1.28 0-.57-.37-1.07-.92-1.23M79.03 44.05c-.1-.03-.2-.05-.31-.05"/><path stroke="#040000" stroke-linecap="round" stroke-linejoin="round" stroke-width=".25" d="M78.72 45.99c.23 0 .44-.08.62-.22"/><path stroke="#040000" stroke-linecap="round" stroke-linejoin="round" stroke-width=".25" d="M79.34 45.78a.999.999 0 0 0-.31-1.73M40.67 44.06c.11-.04.23-.06.35-.06"/><path stroke="#040000" stroke-linecap="round" stroke-linejoin="round" d="M47.4 351.56H35.81M72.35 351.56c-.25 0-.51-.11-.7-.29a.98.98 0 0 1-.29-.7M48.39 350.57c0 .25-.11.51-.29.7s-.45.29-.7.29M47.44 348.89c0-.07.04-.13.09-.18.03-.03.07-.06.11-.09.05-.03.1-.06.16-.08.14-.07.29-.11.43-.16.19-.06.39-.1.59-.14M48.82 348.24c.56-.11 1.12-.17 1.68-.22.67-.05 1.35-.08 2.02-.08M47.4 351.56l.04-2.67"/><path stroke="#040000" stroke-linecap="round" stroke-linejoin="round" d="M47.44 348.89c.16 0 .32-.04.46-.11s.27-.18.36-.31M72.3 348.89c-.17 0-.34-.04-.49-.13s-.28-.21-.36-.35M72.3 348.89l.05 2.67"/><path stroke="#040000" stroke-linecap="round" stroke-linejoin="round" stroke-width=".25" d="M18.32 325.04c.21.94.57 1.85 1.07 2.67s1.14 1.57 1.87 2.19 1.57 1.13 2.47 1.48 1.85.57 2.81.62M93.19 332.01c.96-.05 1.92-.26 2.81-.62a9.1 9.1 0 0 0 2.47-1.48c.73-.62 1.37-1.37 1.87-2.19s.86-1.73 1.07-2.67"/><path stroke="#040000" stroke-linecap="round" stroke-linejoin="round" d="M67.21 347.95c.62 0 1.23.02 1.85.06.53.04 1.06.09 1.59.18M70.65 348.19c.05 0 .11.02.16.03l.44.09M71.39 348.35c.13.04.27.08.39.12.1.04.19.07.29.13.11.07.23.16.24.28M109.48 329.73V35.89M76.89 10.27H42.86M92.6 10.76c-5.23-.33-10.47-.49-15.71-.49M42.86 10.27c-5.24 0-10.48.16-15.71.49M23.94 350.54c3.92.68 7.89 1.02 11.87 1.02M83.93 351.56c3.98 0 7.95-.34 11.87-1.02M109.48 35.89c0-3.34-.22-6.68-.66-9.99M10.92 25.91c-.44 3.31-.66 6.65-.66 9.99M107.94 339.88a34.4 34.4 0 0 0 1.54-10.15M95.8 350.54c1.31-.23 2.6-.63 3.82-1.19 1.29-.59 2.5-1.36 3.58-2.29s2.08-2.06 2.88-3.28c.8-1.21 1.43-2.53 1.85-3.91M11.81 339.88c.43 1.38 1.06 2.7 1.85 3.91.8 1.22 1.78 2.33 2.88 3.28s2.29 1.69 3.58 2.29c1.22.56 2.5.96 3.82 1.19M10.27 329.73c0 1.72.14 3.43.39 5.13s.64 3.38 1.15 5.02M10.27 35.89v293.84M27.15 10.76c-.92.06-1.83.19-2.72.39-.97.22-1.93.52-2.85.89-1.97.81-3.79 1.99-5.35 3.46-1.54 1.46-2.81 3.2-3.72 5.09-.42.88-.77 1.78-1.04 2.72-.25.85-.43 1.71-.55 2.58M108.82 25.91a17.924 17.924 0 0 0-1.59-5.3 17.445 17.445 0 0 0-9.07-8.55c-.92-.38-1.88-.68-2.85-.89-.9-.2-1.81-.33-2.72-.39"/><path stroke="gray" stroke-miterlimit="10" stroke-width=".25" d="M46.66 229.3c7.98 4.07 18.54 4.07 26.42 0"/><path stroke="gray" stroke-linecap="round" stroke-linejoin="round" stroke-width=".25" d="M87.5 229.73a33.57 33.57 0 0 0 6.08-19.32c0-3.46-.52-6.8-1.49-9.95-2.89-15.17-16.21-26.63-32.22-26.63s-29.33 11.47-32.22 26.63a33.7 33.7 0 0 0-1.49 9.95c0 7.7 2.58 14.8 6.93 20.47"/><path stroke="#000" stroke-linecap="round" stroke-linejoin="round" stroke-width=".25" d="M98.57 206.64c0 21.37-17.32 38.69-38.69 38.69s-38.69-17.32-38.69-38.69 17.32-38.69 38.69-38.69 38.69 17.32 38.69 38.69"/><path stroke="#000" stroke-miterlimit="10" stroke-width=".5" d="M61.241 242.827c19.978-.764 35.554-17.579 34.79-37.557s-17.579-35.554-37.557-34.79-35.554 17.578-34.79 37.557c.764 19.978 17.579 35.554 37.557 34.79Z"/><path stroke="gray" stroke-linecap="round" stroke-linejoin="round" stroke-width=".25" d="M80.09 230.62c.99-.66 1.46-1.03 1.7-1.49 3.16-5.97 2.79-14.82.38-19.11v-7.97c-2-10.51-11.23-18.46-22.32-18.46h.06c-11.09 0-20.32 7.95-22.32 18.46v7.97c-2.42 4.3-2.78 13.14.38 19.11.24.46.71.83 1.7 1.49 11.15 6.51 29.7 6.67 40.44 0z"/><path stroke="#000" stroke-miterlimit="10" stroke-width=".5" d="M47.04 233.92c-3.57 0-4.76-.04-6.1-.88-1.16-.73-1.54-1.48-1.54-2.48l-.86-33.51c0-1.86 1.2-3.17 3.28-3.17h36.11c2.08 0 3.28 1.31 3.28 3.17l-.86 33.51c0 1.01-.39 1.76-1.54 2.48-1.34.85-2.53.88-6.1.88z"/><path fill="url(#a)" d="M46.83 228.93v-12.16h26.08v12.22l-3.44.79H50.32z"/><path stroke="#000" stroke-linecap="round" stroke-linejoin="round" stroke-width=".5" d="M39.13 211.5c3.04-2.55 14.16-6.43 20.36-6.43h.77c6.2 0 17.32 3.89 20.36 6.43"/><path stroke="#000" stroke-miterlimit="10" stroke-width=".5" d="M41.59 227.06c.77.59 2.61 1.32 5.08 1.86 6.52 2.5 20.03 2.5 26.42 0 2.47-.54 4.31-1.27 5.08-1.86"/><path stroke="#000" stroke-linecap="round" stroke-linejoin="round" stroke-width=".5" d="M78.16 227.06c.27-.21.43-.65.47-1.13.3-3.29-.43-11.04-1.15-13.12-.4-1.16-2.54-2.53-4.47-3.06-4.19-1.15-8.46-1.85-12.75-1.85h-.77c-4.29 0-8.56.7-12.75 1.85-1.93.53-4.07 1.9-4.47 3.06-.72 2.07-1.45 9.83-1.15 13.12.04.48.2.92.47 1.13"/><path stroke="#000" stroke-miterlimit="10" stroke-width=".5" d="M46.83 228.93v-12.16h26.08v12.22"/><path stroke="#000" stroke-linecap="round" stroke-linejoin="round" stroke-width=".5" d="M69.47 229.78H50.32M45.84 228.55v-12.97h28.07v13.02"/><path stroke="gray" stroke-miterlimit="10" stroke-width=".25" d="M74.78 228.22v-14.21c0-.98-1.06-1.08-2.09-.82 0 0-3.27.52-4.4.52H51.46c-1.13 0-4.4-.52-4.4-.52-1.03-.26-2.09-.16-2.09.82v14.21"/><path stroke="gray" stroke-miterlimit="10" stroke-width=".25" d="m51.46 213.71 4.18-.6c1.53-.28 6.82-.2 9.03.07l3.63.52"/><path fill="gray" d="M81.47 288.09c0-2.45-1.16-2.95-3.02-2.95s-2.32.57-2.32.72v.69s.06-.01.08-.02c1.86-.41 3.12-.42 3.54-.04.14.13.46.42.46 1.62s-.24 1.46-.34 1.56c-.34.38-1.15.34-1.85.29h-.13c-.71-.04-.71-.57-.71-.88 0-.28.09-.61.51-.61h2.08v-.69s-.03 0-.04-.01c-.26-.09-1.3-.25-1.53-.25-2.02 0-2.32.94-2.32 1.5 0 .6.19 1.07.56 1.42.76.71 2.01.63 2.06.63.97.07 1.72-.16 2.23-.69.85-.88.72-2.24.72-2.31M73.11 285.23h-.69c-.77 0-1.15.37-1.25.49-.41-.39-1.02-.49-1.23-.49h-.64c-1.66 0-1.84 1.48-1.84 2.11V291h1.12v-3.66c0-.57.11-1.09.96-1.09s1.05.4 1.05 1.09V291h1.16v-3.66c0-.75.31-1.1.97-1.1.72 0 1.03.34 1.03 1.1V291h1.13v-3.66c0-2.01-1.48-2.11-1.78-2.11M64.02 289.99h-.24c-1.05 0-1.68-.12-1.68-1.86s.37-1.93 1.49-1.93h.28c1.04 0 1.27.17 1.27.96 0 .39-.18.56-.59.56h-1.99v.83h.06c.39.07 1.1.12 1.65.12.81 0 2.15-.19 2.15-1.49 0-1.7-1.33-2.05-2.44-2.05h-.17c-2.16 0-2.97.81-2.97 3s.82 2.94 2.84 2.94h.15c1.27 0 2.35-.34 2.35-.73v-.69s-.06.01-.09.02c-.74.2-1.32.31-2.07.31M60.37 285.25c-.33-.05-1.04-.11-1.42-.11-.69 0-1.85.28-1.85 2.16v3.7h1.24v-3.62c0-1 .18-1.1.96-1.1h1.13v-1.02h-.06M53.72 285.14h-.17c-2.16 0-2.96.81-2.96 3v2.87h1.26v-2.86c0-1.66.37-1.94 1.48-1.94h.28c1.07 0 1.27.39 1.27 1.15 0 .46-.15.94-.59.94H52.3v.83h.06c.4.07 1.11.12 1.64.12 1.78 0 2.16-1.02 2.16-1.87 0-1.41-.91-2.25-2.44-2.25M41.65 287.48c-.43-.05-.86-.11-1.29-.16-.31-.05-.59-.12-.59-.45 0-.53.15-.67 1.2-.67h.26c.61 0 1.2.09 1.9.28.03 0 .06.01.09.02v-.83c-.11-.21-1.08-.54-2.02-.54h-.26c-1.6 0-2.38.59-2.38 1.81s.98 1.42 1.91 1.57c.19.03.38.06.57.08.42.05.68.09.81.15.25.1.38.16.38.57 0 .65-.44.72-1.38.72h-.26c-.55 0-1.22-.16-1.93-.45-.03-.01-.06-.02-.09-.04v.8c0 .32.97.73 2.07.73h.24c1.79 0 2.62-.6 2.62-1.89s-.93-1.56-1.84-1.7M48.22 285.38v3.53c0 .23 0 .58-.19.77-.13.13-.35.2-.65.2h-.94c-.16 0-.42 0-.62-.19q-.24-.24-.24-.78v-3.54H44.4v3.56c0 .35.08 2.12 1.75 2.12h1.55c.63 0 1.69-.28 1.69-2.12v-3.56H48.2z"/><path fill="#4c4948" d="m60.54 87.11-2.61-1.8c-.42-.29-.71-.73-.8-1.24a1.925 1.925 0 0 1 2.99-1.93c1.67 1.15 3.33 2.3 5 3.45.21.14.26.44.12.65-.15.21-.44.27-.65.12-1.66-1.15-3.33-2.3-4.99-3.45a.993.993 0 0 0-1.38.25c-.15.22-.21.48-.16.74s.19.49.41.64c.93.64 1.86 1.28 2.79 1.93.12.08.2.22.2.37.01.42.15 1 .28 1.4.15.45.35.89.59 1.3a6.9 6.9 0 0 0 1.93 2.07c.21.15.26.44.11.65-.09.12-.23.2-.38.2q-.15 0-.27-.09c-.87-.61-1.6-1.37-2.16-2.28-.53-.87-.93-1.94-1.03-2.97z"/><path fill="#4c4948" d="M57.37 92.87c-.45 0-.86-.24-1.08-.63-2.01-3.58-4.01-7.15-6.02-10.73-.16-.29-.2-.63-.11-.95s.3-.59.59-.75c2.07-1.17 4.14-2.33 6.21-3.5.29-.16.62-.2.94-.11s.59.3.75.59l2.76 4.92c.06.11.08.24.04.35-.03.12-.11.22-.22.28-.23.13-.51.05-.64-.18l-2.76-4.92a.32.32 0 0 0-.19-.15.34.34 0 0 0-.24.03c-2.07 1.17-4.14 2.33-6.21 3.5-.07.04-.12.11-.15.19q-.03.12.03.24c2.01 3.58 4.01 7.15 6.02 10.73.08.15.27.2.42.12 1.03-.59 2.06-1.18 3.08-1.77.22-.13.51-.05.64.17.06.11.08.23.04.35-.03.12-.11.22-.22.28l-3.09 1.77c-.19.1-.4.16-.61.16zM63.01 80.29c-.56.1-1.12.21-1.68.31-.25.05-.5-.12-.54-.37-.02-.12 0-.25.07-.35s.18-.17.3-.19c.64-.12 1.27-.24 1.91-.35.15-.03.3.02.4.12 1.91 1.82 3.83 3.64 5.74 5.45.06.06.11.13.13.21.28.98.33 2.38.26 3.38-.08 1.14-.33 2.25-.74 3.31a.464.464 0 0 1-.86.02.45.45 0 0 1 0-.36c.7-1.81.93-4.08.49-5.99-1.82-1.73-3.65-3.46-5.47-5.2z"/><path stroke="#231815" stroke-linecap="round" stroke-linejoin="round" d="M194.48 157.95v7.67M224.24 336.43h18.65M194.48 316.69h23.81M248.85 316.69h23.81M258.37 278.39h-49.61M208.76 258.55h49.61M241.5 248.63h-15.87M225.63 239.7h15.87M194.48 316.69V37.31M203.8 162.02v-55.86M204.8 274.42v-11.9M205.39 36.31v-8.92M224.24 336.43v-13.79M229.1 86.42V70.54M238.03 70.54v15.88M242.89 322.64v13.79M255.39 169.95h-43.65M261.74 36.31v-8.92M262.34 262.52v11.9M263.33 106.16v55.86M272.66 316.69V37.31M211.74 98.22h43.65M194.48 37.31h9.92M262.74 37.31h9.92M259.76 25.4h-52.38M224.24 322.64c0-3.29-2.67-5.95-5.95-5.95M225.63 239.7c-2.47 0-4.46 2-4.46 4.46s2 4.46 4.46 4.46M208.76 258.55c-2.19 0-3.97 1.78-3.97 3.97M204.8 274.42c0 2.19 1.78 3.97 3.97 3.97M211.74 98.22a7.94 7.94 0 0 0-7.94 7.94M203.8 162.02a7.94 7.94 0 0 0 7.94 7.94M229.1 86.42c0 2.47 2 4.46 4.46 4.46s4.46-2 4.46-4.46M238.03 70.54c0-2.47-2-4.46-4.46-4.46s-4.46 2-4.46 4.46M207.38 25.4c-1.1 0-1.98.89-1.98 1.98M204.4 37.31c.55 0 .99-.44.99-.99M248.85 316.69c-3.29 0-5.95 2.67-5.95 5.95M241.5 248.63c2.47 0 4.46-2 4.46-4.46s-2-4.46-4.46-4.46M258.37 278.39c2.19 0 3.97-1.78 3.97-3.97M262.34 262.52c0-2.19-1.78-3.97-3.97-3.97M263.33 106.16a7.94 7.94 0 0 0-7.94-7.94M255.39 169.95a7.94 7.94 0 0 0 7.94-7.94M261.74 27.39c0-1.1-.89-1.98-1.98-1.98M261.74 36.31c0 .55.44.99.99.99"/><path fill="#000" d="m169.16 180.92-13.65-10.36v5.49H134.8v9.73h20.71v5.49z"/><defs><linearGradient id="a" x1="56.4" x2="63.36" y1="232.41" y2="213.29" gradientUnits="userSpaceOnUse"><stop stop-color="#bfbfbf"/><stop offset=".12" stop-color="#c2c2c2"/><stop offset=".23" stop-color="#cecece"/><stop offset=".34" stop-color="#e0e0e0"/><stop offset=".44" stop-color="#fbfbfb"/><stop offset=".45" stop-color="#fff"/><stop offset=".46" stop-color="#d4d4d4"/><stop offset=".47" stop-color="#cdcdcd"/><stop offset=".48" stop-color="#ccc"/><stop offset="1" stop-color="#fff"/></linearGradient></defs></svg>