<svg width="395" height="284" viewBox="0 0 395 284" fill="none" xmlns="http://www.w3.org/2000/svg">
<g clip-path="url(#clip0_101_2)">
<path d="M394.25 0H0V283.84H394.25V0Z" fill="white"/>
<path d="M159.08 271.85H176.33" stroke="#231815" stroke-width="0.56" stroke-linecap="round" stroke-linejoin="round"/>
<path d="M226.74 271.37H244" stroke="#231815" stroke-width="0.56" stroke-linecap="round" stroke-linejoin="round"/>
<path d="M244 271.08H226.74" stroke="#231815" stroke-width="0.56" stroke-linecap="round" stroke-linejoin="round"/>
<path d="M176.43 270.17C176.43 269.08 175.55 268.2 174.46 268.2H173.96H161.52H161.04C159.95 268.2 159.07 269.08 159.07 270.16" stroke="#231815" stroke-width="0.56" stroke-linecap="round" stroke-linejoin="round"/>
<path d="M74.23 40.51V55.94" stroke="#231815" stroke-width="0.56" stroke-linecap="round" stroke-linejoin="round"/>
<path d="M74.23 209.53V224.97" stroke="#231815" stroke-width="0.56" stroke-linecap="round" stroke-linejoin="round"/>
<path d="M76.82 40.51V55.94" stroke="#231815" stroke-width="0.56" stroke-linecap="round" stroke-linejoin="round"/>
<path d="M76.82 209.53V224.97" stroke="#231815" stroke-width="0.56" stroke-linecap="round" stroke-linejoin="round"/>
<path d="M76.82 205.7V157.67" stroke="#231815" stroke-width="0.56" stroke-linecap="round" stroke-linejoin="round"/>
<path d="M76.82 107.43V59.78" stroke="#231815" stroke-width="0.56" stroke-linecap="round" stroke-linejoin="round"/>
<path d="M77.1 224.97V209.53" stroke="#231815" stroke-width="0.56" stroke-linecap="round" stroke-linejoin="round"/>
<path d="M77.1 205.79V157.67" stroke="#231815" stroke-width="0.56" stroke-linecap="round" stroke-linejoin="round"/>
<path d="M77.1 107.52V59.78" stroke="#231815" stroke-width="0.56" stroke-linecap="round" stroke-linejoin="round"/>
<path d="M77.1 55.94V40.51" stroke="#231815" stroke-width="0.56" stroke-linecap="round" stroke-linejoin="round"/>
<path d="M116.99 9.25V11.55" stroke="#231815" stroke-width="0.56" stroke-linecap="round" stroke-linejoin="round"/>
<path d="M122.83 11.55V15.01" stroke="#231815" stroke-width="0.56" stroke-linecap="round" stroke-linejoin="round"/>
<path d="M74.51 203.78H76.82" stroke="#231815" stroke-width="0.56" stroke-linecap="round" stroke-linejoin="round"/>
<path d="M316.88 203.78H319.18" stroke="#231815" stroke-width="0.56" stroke-linecap="round" stroke-linejoin="round"/>
<path d="M145.84 15.01V11.55" stroke="#231815" stroke-width="0.56" stroke-linecap="round" stroke-linejoin="round"/>
<path d="M151.69 11.55V9.25" stroke="#231815" stroke-width="0.56" stroke-linecap="round" stroke-linejoin="round"/>
<path d="M319.18 159.58H316.88" stroke="#231815" stroke-width="0.56" stroke-linecap="round" stroke-linejoin="round"/>
<path d="M76.82 159.58H74.51" stroke="#231815" stroke-width="0.56" stroke-linecap="round" stroke-linejoin="round"/>
<path d="M228.66 273.67V271.37" stroke="#231815" stroke-width="0.56" stroke-linecap="round" stroke-linejoin="round"/>
<path d="M74.51 105.51H76.82" stroke="#231815" stroke-width="0.56" stroke-linecap="round" stroke-linejoin="round"/>
<path d="M242.01 9.25V11.55" stroke="#231815" stroke-width="0.56" stroke-linecap="round" stroke-linejoin="round"/>
<path d="M242.08 273.67V271.37" stroke="#231815" stroke-width="0.56" stroke-linecap="round" stroke-linejoin="round"/>
<path d="M247.76 11.55V15.01" stroke="#231815" stroke-width="0.56" stroke-linecap="round" stroke-linejoin="round"/>
<path d="M316.88 80.58H319.18" stroke="#231815" stroke-width="0.56" stroke-linecap="round" stroke-linejoin="round"/>
<path d="M270.86 15.01V11.55" stroke="#231815" stroke-width="0.56" stroke-linecap="round" stroke-linejoin="round"/>
<path d="M276.62 11.55V9.25" stroke="#231815" stroke-width="0.56" stroke-linecap="round" stroke-linejoin="round"/>
<path d="M319.18 61.7H316.88" stroke="#231815" stroke-width="0.56" stroke-linecap="round" stroke-linejoin="round"/>
<path d="M76.82 61.7H74.51" stroke="#231815" stroke-width="0.56" stroke-linecap="round" stroke-linejoin="round"/>
<path d="M316.6 40.51V55.94" stroke="#231815" stroke-width="0.56" stroke-linecap="round" stroke-linejoin="round"/>
<path d="M316.6 59.78V82.5" stroke="#231815" stroke-width="0.56" stroke-linecap="round" stroke-linejoin="round"/>
<path d="M316.6 157.67V205.79" stroke="#231815" stroke-width="0.56" stroke-linecap="round" stroke-linejoin="round"/>
<path d="M316.6 209.66V225.09" stroke="#231815" stroke-width="0.56" stroke-linecap="round" stroke-linejoin="round"/>
<path d="M316.88 225.09V209.66" stroke="#231815" stroke-width="0.56" stroke-linecap="round" stroke-linejoin="round"/>
<path d="M316.88 205.7V157.67" stroke="#231815" stroke-width="0.56" stroke-linecap="round" stroke-linejoin="round"/>
<path d="M316.88 82.5V59.78" stroke="#231815" stroke-width="0.56" stroke-linecap="round" stroke-linejoin="round"/>
<path d="M316.88 55.94V40.51" stroke="#231815" stroke-width="0.56" stroke-linecap="round" stroke-linejoin="round"/>
<path d="M319.47 225.09V209.66" stroke="#231815" stroke-width="0.56" stroke-linecap="round" stroke-linejoin="round"/>
<path d="M319.47 55.94V40.51" stroke="#231815" stroke-width="0.56" stroke-linecap="round" stroke-linejoin="round"/>
<path d="M268.9 16.92H249.72" stroke="#231815" stroke-width="0.56" stroke-linecap="round" stroke-linejoin="round"/>
<path d="M143.93 16.92H124.75" stroke="#231815" stroke-width="0.56" stroke-linecap="round" stroke-linejoin="round"/>
<path d="M115.07 11.84H122.83" stroke="#231815" stroke-width="0.56" stroke-linecap="round" stroke-linejoin="round"/>
<path d="M145.84 11.84H153.61" stroke="#231815" stroke-width="0.56" stroke-linecap="round" stroke-linejoin="round"/>
<path d="M240.09 11.84H247.76" stroke="#231815" stroke-width="0.56" stroke-linecap="round" stroke-linejoin="round"/>
<path d="M270.86 11.84H278.53" stroke="#231815" stroke-width="0.56" stroke-linecap="round" stroke-linejoin="round"/>
<path d="M115.07 11.55H153.61" stroke="#231815" stroke-width="0.56" stroke-linecap="round" stroke-linejoin="round"/>
<path d="M240.09 11.55H278.53" stroke="#231815" stroke-width="0.56" stroke-linecap="round" stroke-linejoin="round"/>
<path d="M143.88 16.92C144.97 16.92 145.85 16.04 145.85 14.95" stroke="#231815" stroke-width="0.56" stroke-linecap="round" stroke-linejoin="round"/>
<path d="M122.83 14.96C122.83 16.05 123.71 16.93 124.8 16.93" stroke="#231815" stroke-width="0.56" stroke-linecap="round" stroke-linejoin="round"/>
<path d="M268.9 16.92C269.99 16.92 270.87 16.04 270.87 14.95" stroke="#231815" stroke-width="0.56" stroke-linecap="round" stroke-linejoin="round"/>
<path d="M247.76 14.96C247.76 16.05 248.64 16.93 249.73 16.93" stroke="#231815" stroke-width="0.56" stroke-linecap="round" stroke-linejoin="round"/>
<path d="M74.57 113.33V151.94C74.57 153.03 75.45 153.91 76.54 153.91H76.88C77.75 153.91 78.46 154.62 78.46 155.49V156.16C78.46 157.03 77.75 157.74 76.88 157.74H74.58V205.8H76.88C77.75 205.8 78.46 206.51 78.46 207.38V208.15C78.46 209.02 77.75 209.73 76.88 209.73H71.36C70.27 209.73 69.39 210.61 69.39 211.7V223.12C69.39 224.21 70.27 225.09 71.36 225.09H76.88C77.75 225.09 78.46 225.8 78.46 226.67V227.25C78.46 228.12 77.75 228.83 76.88 228.83H76.54C75.45 228.83 74.57 229.71 74.57 230.8V252.19C74.57 256.5 76.62 260.54 80.1 263.08H80.12C80.69 263.5 81.27 263.89 81.87 264.26L82.72 265L86.51 268.45L86.54 268.47C87.61 269.44 89 269.99 90.45 269.99H123.35C124.32 269.99 125.27 269.75 126.12 269.29L126.66 268.94C127.51 268.48 128.46 268.24 129.43 268.24H157.11C158.2 268.24 159.08 269.12 159.08 270.21V270.33V274.6H176.44V270.23C176.44 269.14 177.32 268.26 178.41 268.26H224.74C225.83 268.26 226.71 269.15 226.71 270.23V273.83H244.07V270.23C244.07 269.14 244.95 268.26 246.04 268.26H298.08C303.69 268.26 309.08 266.53 313.62 263.23L313.69 263.18C317.18 260.64 319.28 256.5 319.28 252.19V230.89C319.28 229.8 318.4 228.92 317.31 228.92H317.02C316.15 228.92 315.44 228.21 315.44 227.34V226.67C315.44 225.8 316.15 225.09 317.02 225.09H322.49C323.58 225.09 324.46 224.21 324.46 223.12V211.7C324.46 210.61 323.58 209.73 322.49 209.73H317.02C316.15 209.73 315.44 209.02 315.44 208.15V207.38C315.44 206.51 316.15 205.8 317.02 205.8H319.27V157.74H317.02C316.15 157.74 315.44 157.03 315.44 156.16V84.12C315.44 83.25 316.15 82.54 317.02 82.54H319.27V59.81H317.02C316.15 59.81 315.44 59.1 315.44 58.23V57.56C315.44 56.69 316.15 55.98 317.02 55.98H322.49C323.58 55.98 324.46 55.1 324.46 54.01V42.59C324.46 41.5 323.58 40.62 322.49 40.62H317.02C316.15 40.62 315.44 39.91 315.44 39.04V38.27C315.44 37.4 316.15 36.69 317.02 36.69H317.31C318.4 36.69 319.28 35.81 319.28 34.72V26.57C319.28 19.13 313.25 13.09 305.8 13.09H279.71C279.15 13.09 278.7 12.64 278.7 12.08V9.25H240.23V12.08C240.23 12.64 239.78 13.09 239.22 13.09H154.61C154.05 13.09 153.6 12.64 153.6 12.08V9.25H115.13V12.08C115.13 12.64 114.68 13.09 114.12 13.09H88.03C80.59 13.09 74.55 19.12 74.55 26.57V34.72C74.55 35.81 75.43 36.69 76.52 36.69H76.86C77.73 36.69 78.44 37.4 78.44 38.27V39.04C78.44 39.91 77.73 40.62 76.86 40.62H71.3C70.21 40.62 69.33 41.5 69.33 42.59V54.01C69.33 55.1 70.21 55.98 71.3 55.98H76.86C77.73 55.98 78.44 56.69 78.44 57.56V58.23C78.44 59.1 77.73 59.81 76.86 59.81H74.56V107.58H76.86C77.73 107.58 78.44 108.29 78.44 109.16V109.78C78.44 110.65 77.73 111.36 76.86 111.36H76.52C75.43 111.36 74.55 112.24 74.55 113.33" stroke="#231815" stroke-width="1.5" stroke-linecap="round" stroke-linejoin="round"/>
<path d="M237.4 253.39C234.83 253.39 232.75 255.47 232.75 258.04C232.75 260.61 234.83 262.69 237.4 262.69H245.07C247.64 262.69 249.72 260.61 249.72 258.04C249.72 255.47 247.64 253.39 245.07 253.39" stroke="#898989" stroke-width="0.56" stroke-linecap="round" stroke-linejoin="round"/>
<path d="M237.4 253.39H245.08" stroke="#898989" stroke-width="0.56" stroke-linecap="round" stroke-linejoin="round"/>
<path d="M100.66 20.29L95.86 28.63" stroke="#898989" stroke-width="0.56" stroke-linecap="round" stroke-linejoin="round"/>
<path d="M98.26 28.63V38.32" stroke="#898989" stroke-width="0.56" stroke-linecap="round" stroke-linejoin="round"/>
<path d="M103.15 38.32V28.63" stroke="#898989" stroke-width="0.56" stroke-linecap="round" stroke-linejoin="round"/>
<path d="M105.55 28.63L100.66 20.29" stroke="#898989" stroke-width="0.56" stroke-linecap="round" stroke-linejoin="round"/>
<path d="M98.26 38.32H103.15" stroke="#898989" stroke-width="0.56" stroke-linecap="round" stroke-linejoin="round"/>
<path d="M95.86 28.63H98.26" stroke="#898989" stroke-width="0.56" stroke-linecap="round" stroke-linejoin="round"/>
<path d="M103.15 28.63H105.55" stroke="#898989" stroke-width="0.56" stroke-linecap="round" stroke-linejoin="round"/>
<path d="M118.98 265.19H118.02" stroke="#898989" stroke-width="0.56" stroke-linecap="round" stroke-linejoin="round"/>
<path d="M94.9 265.19H93.94" stroke="#898989" stroke-width="0.56" stroke-linecap="round" stroke-linejoin="round"/>
<path d="M116.2 263.94H96.72" stroke="#898989" stroke-width="0.56" stroke-linecap="round" stroke-linejoin="round"/>
<path d="M96.82 262.79H116.1" stroke="#898989" stroke-width="0.56" stroke-linecap="round" stroke-linejoin="round"/>
<path d="M96.82 258.66H116.1" stroke="#898989" stroke-width="0.56" stroke-linecap="round" stroke-linejoin="round"/>
<path d="M96.82 255.88H116.1" stroke="#898989" stroke-width="0.56" stroke-linecap="round" stroke-linejoin="round"/>
<path d="M92.02 263.27V217.13" stroke="#898989" stroke-width="0.56" stroke-linecap="round" stroke-linejoin="round"/>
<path d="M96.82 217.13V220.29" stroke="#898989" stroke-width="0.56" stroke-linecap="round" stroke-linejoin="round"/>
<path d="M96.82 220.29V262.79" stroke="#898989" stroke-width="0.56" stroke-linecap="round" stroke-linejoin="round"/>
<path d="M96.82 262.79V263.27" stroke="#898989" stroke-width="0.56" stroke-linecap="round" stroke-linejoin="round"/>
<path d="M100.08 245.28V238.76" stroke="#898989" stroke-width="0.56" stroke-linecap="round" stroke-linejoin="round"/>
<path d="M103.25 238.76V245.28" stroke="#898989" stroke-width="0.56" stroke-linecap="round" stroke-linejoin="round"/>
<path d="M109.77 248.24V235.87" stroke="#898989" stroke-width="0.56" stroke-linecap="round" stroke-linejoin="round"/>
<path d="M96.82 228.26H116.1" stroke="#898989" stroke-width="0.56" stroke-linecap="round" stroke-linejoin="round"/>
<path d="M112.94 235.87V248.24" stroke="#898989" stroke-width="0.56" stroke-linecap="round" stroke-linejoin="round"/>
<path d="M116.1 217.13V220.29" stroke="#898989" stroke-width="0.56" stroke-linecap="round" stroke-linejoin="round"/>
<path d="M116.1 220.29V262.79" stroke="#898989" stroke-width="0.56" stroke-linecap="round" stroke-linejoin="round"/>
<path d="M116.1 262.79V263.27" stroke="#898989" stroke-width="0.56" stroke-linecap="round" stroke-linejoin="round"/>
<path d="M120.9 217.13V263.27" stroke="#898989" stroke-width="0.56" stroke-linecap="round" stroke-linejoin="round"/>
<path d="M96.82 225.57H116.1" stroke="#898989" stroke-width="0.56" stroke-linecap="round" stroke-linejoin="round"/>
<path d="M96.82 221.35H116.1" stroke="#898989" stroke-width="0.56" stroke-linecap="round" stroke-linejoin="round"/>
<path d="M96.82 220.29H116.1" stroke="#898989" stroke-width="0.56" stroke-linecap="round" stroke-linejoin="round"/>
<path d="M93.94 215.21H94.9" stroke="#898989" stroke-width="0.56" stroke-linecap="round" stroke-linejoin="round"/>
<path d="M118.02 215.21H118.98" stroke="#898989" stroke-width="0.56" stroke-linecap="round" stroke-linejoin="round"/>
<path d="M108.72 232.43C108.72 231.24 107.75 230.27 106.56 230.27C105.37 230.27 104.4 231.24 104.4 232.43C104.4 233.62 105.37 234.59 106.56 234.59C107.75 234.59 108.72 233.62 108.72 232.43Z" stroke="#898989" stroke-width="0.56" stroke-linecap="round" stroke-linejoin="round"/>
<path d="M108.72 251.71C108.72 250.52 107.75 249.55 106.56 249.55C105.37 249.55 104.4 250.52 104.4 251.71C104.4 252.9 105.37 253.87 106.56 253.87C107.75 253.87 108.72 252.9 108.72 251.71Z" stroke="#898989" stroke-width="0.56" stroke-linecap="round" stroke-linejoin="round"/>
<path d="M118.07 215.21C116.98 215.21 116.1 216.09 116.1 217.18" stroke="#898989" stroke-width="0.56" stroke-linecap="round" stroke-linejoin="round"/>
<path d="M120.9 217.18C120.9 216.09 120.02 215.21 118.93 215.21" stroke="#898989" stroke-width="0.56" stroke-linecap="round" stroke-linejoin="round"/>
<path d="M96.82 217.18C96.82 216.09 95.94 215.21 94.85 215.21" stroke="#898989" stroke-width="0.56" stroke-linecap="round" stroke-linejoin="round"/>
<path d="M93.99 215.21C92.9 215.21 92.02 216.09 92.02 217.18" stroke="#898989" stroke-width="0.56" stroke-linecap="round" stroke-linejoin="round"/>
<path d="M92.02 263.22C92.02 264.31 92.9 265.19 93.99 265.19" stroke="#898989" stroke-width="0.56" stroke-linecap="round" stroke-linejoin="round"/>
<path d="M94.86 265.19C95.95 265.19 96.83 264.31 96.83 263.22" stroke="#898989" stroke-width="0.56" stroke-linecap="round" stroke-linejoin="round"/>
<path d="M116.1 263.22C116.1 264.31 116.98 265.19 118.07 265.19" stroke="#898989" stroke-width="0.56" stroke-linecap="round" stroke-linejoin="round"/>
<path d="M118.93 265.19C120.02 265.19 120.9 264.31 120.9 263.22" stroke="#898989" stroke-width="0.56" stroke-linecap="round" stroke-linejoin="round"/>
<path d="M112.94 235.88C112.94 235.01 112.23 234.3 111.36 234.3C110.49 234.3 109.78 235.01 109.78 235.88" stroke="#898989" stroke-width="0.56" stroke-linecap="round" stroke-linejoin="round"/>
<path d="M109.77 248.26C109.77 249.13 110.48 249.84 111.35 249.84C112.22 249.84 112.93 249.13 112.93 248.26" stroke="#898989" stroke-width="0.56" stroke-linecap="round" stroke-linejoin="round"/>
<path d="M100.08 245.28C100.08 246.15 100.79 246.86 101.66 246.86C102.53 246.86 103.24 246.15 103.24 245.28" stroke="#898989" stroke-width="0.56" stroke-linecap="round" stroke-linejoin="round"/>
<path d="M103.25 238.76C103.25 237.89 102.54 237.18 101.67 237.18C100.8 237.18 100.09 237.89 100.09 238.76" stroke="#898989" stroke-width="0.56" stroke-linecap="round" stroke-linejoin="round"/>
<path d="M148.05 101.25V93.57" stroke="#898989" stroke-width="0.56" stroke-linecap="round" stroke-linejoin="round"/>
<path d="M157.35 93.53V101.2" stroke="#898989" stroke-width="0.56" stroke-linecap="round" stroke-linejoin="round"/>
<path d="M157.35 93.53C157.35 90.96 155.27 88.88 152.7 88.88C150.13 88.88 148.05 90.96 148.05 93.53" stroke="#898989" stroke-width="0.56" stroke-linecap="round" stroke-linejoin="round"/>
<path d="M148.05 101.2C148.05 103.77 150.13 105.85 152.7 105.85C155.27 105.85 157.35 103.77 157.35 101.2" stroke="#898989" stroke-width="0.56" stroke-linecap="round" stroke-linejoin="round"/>
<path d="M143.92 63.31C143.92 60.74 141.84 58.66 139.27 58.66C136.7 58.66 134.62 60.74 134.62 63.31C134.62 65.88 136.7 67.96 139.27 67.96C141.84 67.96 143.92 65.88 143.92 63.31Z" stroke="#898989" stroke-width="0.56" stroke-linecap="round" stroke-linejoin="round"/>
<path d="M200.81 262.69H193.04" stroke="#898989" stroke-width="0.56" stroke-linecap="round" stroke-linejoin="round"/>
<path d="M193.08 253.39H200.85" stroke="#898989" stroke-width="0.56" stroke-linecap="round" stroke-linejoin="round"/>
<path d="M193.08 253.39C190.51 253.39 188.43 255.47 188.43 258.04C188.43 260.61 190.51 262.69 193.08 262.69" stroke="#898989" stroke-width="0.56" stroke-linecap="round" stroke-linejoin="round"/>
<path d="M200.85 262.69C203.42 262.69 205.5 260.61 205.5 258.04C205.5 255.47 203.42 253.39 200.85 253.39" stroke="#898989" stroke-width="0.56" stroke-linecap="round" stroke-linejoin="round"/>
<path d="M221.91 248.02H156.49" stroke="#898989" stroke-width="0.56" stroke-linecap="round" stroke-linejoin="round"/>
<path d="M152.65 244.18V174.92" stroke="#898989" stroke-width="0.56" stroke-linecap="round" stroke-linejoin="round"/>
<path d="M156.49 170.99H221.91" stroke="#898989" stroke-width="0.56" stroke-linecap="round" stroke-linejoin="round"/>
<path d="M225.75 174.87V244.13" stroke="#898989" stroke-width="0.56" stroke-linecap="round" stroke-linejoin="round"/>
<path d="M152.65 244.13C152.65 246.28 154.39 248.02 156.54 248.02" stroke="#898989" stroke-width="0.56" stroke-linecap="round" stroke-linejoin="round"/>
<path d="M156.54 170.99C154.39 170.99 152.65 172.73 152.65 174.88" stroke="#898989" stroke-width="0.56" stroke-linecap="round" stroke-linejoin="round"/>
<path d="M221.86 248.02C224.01 248.02 225.75 246.28 225.75 244.13" stroke="#898989" stroke-width="0.56" stroke-linecap="round" stroke-linejoin="round"/>
<path d="M225.75 174.87C225.75 172.72 224.01 170.98 221.86 170.98" stroke="#898989" stroke-width="0.56" stroke-linecap="round" stroke-linejoin="round"/>
<path d="M192.27 101.25V93.57" stroke="#898989" stroke-width="0.56" stroke-linecap="round" stroke-linejoin="round"/>
<path d="M201.57 93.57V101.25" stroke="#898989" stroke-width="0.56" stroke-linecap="round" stroke-linejoin="round"/>
<path d="M201.57 93.53C201.57 90.96 199.49 88.88 196.92 88.88C194.35 88.88 192.27 90.96 192.27 93.53" stroke="#898989" stroke-width="0.56" stroke-linecap="round" stroke-linejoin="round"/>
<path d="M192.27 101.2C192.27 103.77 194.35 105.85 196.92 105.85C199.49 105.85 201.57 103.77 201.57 101.2" stroke="#898989" stroke-width="0.56" stroke-linecap="round" stroke-linejoin="round"/>
<path d="M143.92 198.95C143.92 196.38 141.84 194.3 139.27 194.3C136.7 194.3 134.62 196.38 134.62 198.95C134.62 201.52 136.7 203.6 139.27 203.6C141.84 203.6 143.92 201.52 143.92 198.95Z" stroke="#898989" stroke-width="0.56" stroke-linecap="round" stroke-linejoin="round"/>
<path d="M250.02 198.95C250.02 201.52 252.1 203.6 254.67 203.6C257.24 203.6 259.32 201.52 259.32 198.95C259.32 196.38 257.24 194.3 254.67 194.3C252.1 194.3 250.02 196.38 250.02 198.95Z" stroke="#898989" stroke-width="0.56" stroke-linecap="round" stroke-linejoin="round"/>
<path d="M254.67 67.96C257.24 67.96 259.32 65.88 259.32 63.31C259.32 60.74 257.24 58.66 254.67 58.66C252.1 58.66 250.02 60.74 250.02 63.31C250.02 65.88 252.1 67.96 254.67 67.96Z" stroke="#898989" stroke-width="0.56" stroke-linecap="round" stroke-linejoin="round"/>
<path d="M152.7 262.69C150.13 262.69 148.05 260.61 148.05 258.04C148.05 255.47 150.13 253.39 152.7 253.39C155.27 253.39 157.35 255.47 157.35 258.04C157.35 260.61 155.27 262.69 152.7 262.69Z" stroke="#898989" stroke-width="0.56" stroke-linecap="round" stroke-linejoin="round"/>
<path d="M241.24 102.02C243.81 102.02 245.89 99.94 245.89 97.37C245.89 94.8 243.81 92.72 241.24 92.72C238.67 92.72 236.59 94.8 236.59 97.37C236.59 99.94 238.67 102.02 241.24 102.02Z" stroke="#898989" stroke-width="0.56" stroke-linecap="round" stroke-linejoin="round"/>
<path d="M288.66 20.96H290.87V30.74C290.87 32.44 290.68 33.79 290.3 34.79C289.92 35.79 289.24 36.61 288.24 37.23C287.24 37.85 285.95 38.17 284.34 38.17C282.73 38.17 281.5 37.9 280.5 37.35C279.51 36.8 278.8 36.01 278.37 34.98C277.94 33.94 277.73 32.53 277.73 30.73V20.95H279.94V30.72C279.94 32.19 280.07 33.27 280.34 33.97C280.61 34.67 281.07 35.2 281.73 35.58C282.39 35.96 283.19 36.15 284.14 36.15C285.76 36.15 286.92 35.78 287.61 35.03C288.3 34.28 288.65 32.85 288.65 30.72V20.95L288.66 20.96Z" stroke="#898989" stroke-width="0.56" stroke-linecap="round" stroke-linejoin="round"/>
<path d="M293.57 37.89V20.96H299.87C300.98 20.96 301.82 21.01 302.41 21.12C303.23 21.26 303.92 21.52 304.47 21.91C305.02 22.3 305.47 22.84 305.81 23.54C306.15 24.24 306.32 25.01 306.32 25.85C306.32 27.29 305.87 28.51 304.96 29.51C304.06 30.51 302.42 31.01 300.06 31.01H295.78V37.89H293.57ZM295.78 29.01H300.1C301.53 29.01 302.54 28.74 303.14 28.2C303.74 27.66 304.04 26.9 304.04 25.92C304.04 25.21 303.86 24.6 303.51 24.1C303.16 23.6 302.69 23.26 302.11 23.1C301.74 23 301.05 22.95 300.05 22.95H295.78V29V29.01Z" stroke="#898989" stroke-width="0.56" stroke-linecap="round" stroke-linejoin="round"/>
<path d="M336.41 96.84H246.89V95.71L243.57 97.3L246.89 98.9V97.77H336.41V96.84Z" stroke="white" stroke-linecap="round" stroke-linejoin="round"/>
<path d="M336.41 96.84H246.89V95.71L243.57 97.3L246.89 98.9V97.77H336.41V96.84Z" fill="black"/>
<path d="M379.32 99.34L383.21 103.04H384.26C385.51 103.02 385.68 90.66 384.14 90.67H383.09L379.28 94.46L342.02 95.31L334.98 96.94C334.38 97.1 334.43 97.65 334.98 97.76L342.05 99.24L379.33 99.34H379.32Z" fill="white"/>
<path d="M380.11 98.05L383.71 99.69" stroke="#B3B3B3" stroke-width="0.2" stroke-linecap="round" stroke-linejoin="round"/>
<path d="M380.09 95.15L383.51 92.95" stroke="#B3B3B3" stroke-width="0.2" stroke-linecap="round" stroke-linejoin="round"/>
<path d="M376.26 94.29C378.46 94.46 379.01 98.65 378.26 99.63" stroke="#999999" stroke-width="0.75" stroke-linecap="round" stroke-linejoin="round"/>
<path d="M373.62 94.33C375.8 94.5 376.35 98.66 375.61 99.64" stroke="#999999" stroke-width="0.75" stroke-linecap="round" stroke-linejoin="round"/>
<path d="M370.98 94.37C373.15 94.53 373.69 98.66 372.95 99.64" stroke="#999999" stroke-width="0.75" stroke-linecap="round" stroke-linejoin="round"/>
<path d="M368.34 94.41C370.5 94.57 371.04 98.68 370.3 99.64" stroke="#999999" stroke-width="0.75" stroke-linecap="round" stroke-linejoin="round"/>
<path d="M365.71 94.46C367.85 94.62 368.38 98.69 367.66 99.65" stroke="#999999" stroke-width="0.75" stroke-linecap="round" stroke-linejoin="round"/>
<path d="M363.07 94.5C365.19 94.66 365.73 98.7 365 99.66" stroke="#999999" stroke-width="0.75" stroke-linecap="round" stroke-linejoin="round"/>
<path d="M360.43 94.54C362.54 94.7 363.07 98.71 362.35 99.66" stroke="#999999" stroke-width="0.75" stroke-linecap="round" stroke-linejoin="round"/>
<path d="M357.79 94.58C359.88 94.74 360.41 98.72 359.69 99.66" stroke="#999999" stroke-width="0.75" stroke-linecap="round" stroke-linejoin="round"/>
<path d="M355.15 94.62C357.23 94.78 357.75 98.73 357.04 99.67" stroke="#999999" stroke-width="0.75" stroke-linecap="round" stroke-linejoin="round"/>
<path d="M352.51 94.66C354.57 94.82 355.09 98.74 354.39 99.67" stroke="#999999" stroke-width="0.75" stroke-linecap="round" stroke-linejoin="round"/>
<path d="M349.87 94.7C351.92 94.85 352.43 98.75 351.74 99.67" stroke="#999999" stroke-width="0.75" stroke-linecap="round" stroke-linejoin="round"/>
<path d="M347.24 94.74C349.27 94.89 349.78 98.76 349.09 99.67" stroke="#999999" stroke-width="0.75" stroke-linecap="round" stroke-linejoin="round"/>
<path d="M344.6 94.78C346.62 94.93 347.12 98.77 346.43 99.68" stroke="#999999" stroke-width="0.75" stroke-linecap="round" stroke-linejoin="round"/>
<path d="M341.96 94.83C343.96 94.98 344.46 98.79 343.78 99.69" stroke="#999999" stroke-width="0.75" stroke-linecap="round" stroke-linejoin="round"/>
<path d="M339.67 95.37C341.37 95.5 341.85 98.62 341.35 99.57" stroke="#999999" stroke-width="0.75" stroke-linecap="round" stroke-linejoin="round"/>
<path d="M337.61 95.88C338.96 95.98 339.29 98.54 338.84 99.15" stroke="#999999" stroke-width="0.75" stroke-linecap="round" stroke-linejoin="round"/>
<path d="M335.34 96.42C336.21 96.49 336.52 97.91 336.37 98.61" stroke="#999999" stroke-width="0.75" stroke-linecap="round" stroke-linejoin="round"/>
<path d="M379.27 94.46C379.88 94.46 379.81 99.34 379.32 99.34" stroke="black" stroke-width="0.2" stroke-linecap="round" stroke-linejoin="round"/>
<path d="M383.08 90.69C384.62 90.68 384.46 103.03 383.2 103.05" stroke="black" stroke-width="0.2" stroke-linecap="round" stroke-linejoin="round"/>
<path d="M379.32 99.34L383.21 103.04H384.26C385.51 103.02 385.68 90.66 384.14 90.67H383.09L379.28 94.46L342.02 95.31L334.98 96.94C334.38 97.1 334.43 97.65 334.98 97.76L342.05 99.24L379.33 99.34H379.32Z" stroke="black" stroke-linecap="round" stroke-linejoin="round"/>
<path d="M336.41 257.5H250.7V256.37L247.37 257.96L250.7 259.55V258.42H336.41V257.5Z" stroke="white" stroke-linecap="round" stroke-linejoin="round"/>
<path d="M336.41 257.5H250.7V256.37L247.37 257.96L250.7 259.55V258.42H336.41V257.5Z" fill="black"/>
<path d="M379.32 260L383.21 263.7H384.26C385.51 263.68 385.68 251.32 384.14 251.33H383.09L379.28 255.12L342.02 255.97L334.98 257.6C334.38 257.76 334.43 258.31 334.98 258.42L342.05 259.9L379.33 260H379.32Z" fill="white"/>
<path d="M380.11 258.71L383.71 260.35" stroke="#B3B3B3" stroke-width="0.2" stroke-linecap="round" stroke-linejoin="round"/>
<path d="M380.09 255.81L383.51 253.6" stroke="#B3B3B3" stroke-width="0.2" stroke-linecap="round" stroke-linejoin="round"/>
<path d="M376.26 254.95C378.46 255.12 379.01 259.31 378.26 260.29" stroke="#999999" stroke-width="0.75" stroke-linecap="round" stroke-linejoin="round"/>
<path d="M373.62 254.99C375.8 255.16 376.35 259.32 375.61 260.3" stroke="#999999" stroke-width="0.75" stroke-linecap="round" stroke-linejoin="round"/>
<path d="M370.98 255.03C373.15 255.19 373.69 259.32 372.95 260.3" stroke="#999999" stroke-width="0.75" stroke-linecap="round" stroke-linejoin="round"/>
<path d="M368.34 255.07C370.5 255.23 371.04 259.34 370.3 260.3" stroke="#999999" stroke-width="0.75" stroke-linecap="round" stroke-linejoin="round"/>
<path d="M365.71 255.11C367.85 255.27 368.38 259.34 367.66 260.3" stroke="#999999" stroke-width="0.75" stroke-linecap="round" stroke-linejoin="round"/>
<path d="M363.07 255.15C365.19 255.31 365.73 259.35 365 260.31" stroke="#999999" stroke-width="0.75" stroke-linecap="round" stroke-linejoin="round"/>
<path d="M360.43 255.2C362.54 255.36 363.07 259.37 362.35 260.32" stroke="#999999" stroke-width="0.75" stroke-linecap="round" stroke-linejoin="round"/>
<path d="M357.79 255.24C359.88 255.4 360.41 259.38 359.69 260.32" stroke="#999999" stroke-width="0.75" stroke-linecap="round" stroke-linejoin="round"/>
<path d="M355.15 255.28C357.23 255.44 357.75 259.39 357.04 260.32" stroke="#999999" stroke-width="0.75" stroke-linecap="round" stroke-linejoin="round"/>
<path d="M352.51 255.32C354.57 255.48 355.09 259.4 354.39 260.33" stroke="#999999" stroke-width="0.75" stroke-linecap="round" stroke-linejoin="round"/>
<path d="M349.87 255.36C351.92 255.51 352.43 259.41 351.74 260.33" stroke="#999999" stroke-width="0.75" stroke-linecap="round" stroke-linejoin="round"/>
<path d="M347.24 255.4C349.27 255.55 349.78 259.42 349.09 260.33" stroke="#999999" stroke-width="0.75" stroke-linecap="round" stroke-linejoin="round"/>
<path d="M344.6 255.44C346.62 255.59 347.12 259.43 346.43 260.34" stroke="#999999" stroke-width="0.75" stroke-linecap="round" stroke-linejoin="round"/>
<path d="M341.96 255.48C343.96 255.63 344.46 259.44 343.78 260.34" stroke="#999999" stroke-width="0.75" stroke-linecap="round" stroke-linejoin="round"/>
<path d="M339.67 256.03C341.37 256.16 341.85 259.28 341.35 260.23" stroke="#999999" stroke-width="0.75" stroke-linecap="round" stroke-linejoin="round"/>
<path d="M337.61 256.54C338.96 256.64 339.29 259.2 338.84 259.81" stroke="#999999" stroke-width="0.75" stroke-linecap="round" stroke-linejoin="round"/>
<path d="M335.34 257.07C336.21 257.14 336.52 258.56 336.37 259.26" stroke="#999999" stroke-width="0.75" stroke-linecap="round" stroke-linejoin="round"/>
<path d="M379.27 255.12C379.88 255.12 379.81 260 379.32 260" stroke="black" stroke-width="0.2" stroke-linecap="round" stroke-linejoin="round"/>
<path d="M383.08 251.34C384.62 251.33 384.46 263.68 383.2 263.7" stroke="black" stroke-width="0.2" stroke-linecap="round" stroke-linejoin="round"/>
<path d="M379.32 260L383.21 263.7H384.26C385.51 263.68 385.68 251.32 384.14 251.33H383.09L379.28 255.12L342.02 255.97L334.98 257.6C334.38 257.76 334.43 258.31 334.98 258.42L342.05 259.9L379.33 260H379.32Z" stroke="black" stroke-linecap="round" stroke-linejoin="round"/>
<path d="M57.84 258.54H147.05V259.67L150.37 258.07L147.05 256.48V257.61H57.84V258.54Z" stroke="white" stroke-linecap="round" stroke-linejoin="round"/>
<path d="M57.84 258.54H147.05V259.67L150.37 258.07L147.05 256.48V257.61H57.84V258.54Z" fill="black"/>
<path d="M14.93 256.03L11.04 252.33H9.99C8.74 252.35 8.57 264.71 10.11 264.7H11.16L14.97 260.91L52.23 260.06L59.27 258.43C59.87 258.27 59.82 257.72 59.27 257.61L52.2 256.13L14.92 256.03H14.93Z" fill="white"/>
<path d="M14.14 257.33L10.54 255.68" stroke="#B3B3B3" stroke-width="0.2" stroke-linecap="round" stroke-linejoin="round"/>
<path d="M14.16 260.23L10.74 262.43" stroke="#B3B3B3" stroke-width="0.2" stroke-linecap="round" stroke-linejoin="round"/>
<path d="M17.99 261.09C15.79 260.92 15.24 256.73 15.99 255.75" stroke="#999999" stroke-width="0.75" stroke-linecap="round" stroke-linejoin="round"/>
<path d="M20.62 261.04C18.44 260.87 17.89 256.71 18.63 255.73" stroke="#999999" stroke-width="0.75" stroke-linecap="round" stroke-linejoin="round"/>
<path d="M23.26 261C21.09 260.84 20.55 256.71 21.29 255.73" stroke="#999999" stroke-width="0.75" stroke-linecap="round" stroke-linejoin="round"/>
<path d="M25.9 260.96C23.74 260.8 23.2 256.69 23.94 255.73" stroke="#999999" stroke-width="0.75" stroke-linecap="round" stroke-linejoin="round"/>
<path d="M28.54 260.92C26.4 260.76 25.87 256.69 26.59 255.73" stroke="#999999" stroke-width="0.75" stroke-linecap="round" stroke-linejoin="round"/>
<path d="M31.18 260.88C29.06 260.72 28.52 256.68 29.25 255.72" stroke="#999999" stroke-width="0.75" stroke-linecap="round" stroke-linejoin="round"/>
<path d="M33.82 260.84C31.71 260.68 31.18 256.67 31.9 255.72" stroke="#999999" stroke-width="0.75" stroke-linecap="round" stroke-linejoin="round"/>
<path d="M36.46 260.8C34.37 260.64 33.84 256.66 34.56 255.72" stroke="#999999" stroke-width="0.75" stroke-linecap="round" stroke-linejoin="round"/>
<path d="M39.09 260.76C37.01 260.6 36.49 256.65 37.2 255.71" stroke="#999999" stroke-width="0.75" stroke-linecap="round" stroke-linejoin="round"/>
<path d="M41.73 260.72C39.67 260.56 39.15 256.64 39.85 255.71" stroke="#999999" stroke-width="0.75" stroke-linecap="round" stroke-linejoin="round"/>
<path d="M44.37 260.67C42.32 260.52 41.81 256.62 42.5 255.7" stroke="#999999" stroke-width="0.75" stroke-linecap="round" stroke-linejoin="round"/>
<path d="M47.01 260.63C44.98 260.48 44.47 256.61 45.16 255.7" stroke="#999999" stroke-width="0.75" stroke-linecap="round" stroke-linejoin="round"/>
<path d="M49.65 260.59C47.63 260.44 47.13 256.6 47.82 255.69" stroke="#999999" stroke-width="0.75" stroke-linecap="round" stroke-linejoin="round"/>
<path d="M52.29 260.55C50.29 260.4 49.79 256.59 50.47 255.69" stroke="#999999" stroke-width="0.75" stroke-linecap="round" stroke-linejoin="round"/>
<path d="M54.58 260.01C52.88 259.88 52.4 256.76 52.9 255.81" stroke="#999999" stroke-width="0.75" stroke-linecap="round" stroke-linejoin="round"/>
<path d="M56.63 259.5C55.28 259.4 54.95 256.84 55.4 256.23" stroke="#999999" stroke-width="0.75" stroke-linecap="round" stroke-linejoin="round"/>
<path d="M58.91 258.96C58.04 258.89 57.73 257.47 57.88 256.77" stroke="#999999" stroke-width="0.75" stroke-linecap="round" stroke-linejoin="round"/>
<path d="M14.98 260.91C14.37 260.91 14.44 256.03 14.93 256.03" stroke="black" stroke-width="0.2" stroke-linecap="round" stroke-linejoin="round"/>
<path d="M11.16 264.69C9.62 264.7 9.78 252.35 11.04 252.33" stroke="black" stroke-width="0.2" stroke-linecap="round" stroke-linejoin="round"/>
<path d="M14.93 256.03L11.04 252.33H9.99C8.74 252.35 8.57 264.71 10.11 264.7H11.16L14.97 260.91L52.23 260.06L59.27 258.43C59.87 258.27 59.82 257.72 59.27 257.61L52.2 256.13L14.92 256.03H14.93Z" stroke="black" stroke-linecap="round" stroke-linejoin="round"/>
<path d="M57.84 97.88H147.05V99.01L150.37 97.42L147.05 95.82V96.95H57.84V97.88Z" stroke="white" stroke-linecap="round" stroke-linejoin="round"/>
<path d="M57.84 97.88H147.05V99.01L150.37 97.42L147.05 95.82V96.95H57.84V97.88Z" fill="black"/>
<path d="M14.93 95.38L11.04 91.68H9.99C8.74 91.7 8.57 104.06 10.11 104.05H11.16L14.97 100.26L52.23 99.41L59.27 97.78C59.87 97.62 59.82 97.07 59.27 96.96L52.2 95.48L14.92 95.38H14.93Z" fill="white"/>
<path d="M14.14 96.67L10.54 95.02" stroke="#B3B3B3" stroke-width="0.2" stroke-linecap="round" stroke-linejoin="round"/>
<path d="M14.16 99.57L10.74 101.77" stroke="#B3B3B3" stroke-width="0.2" stroke-linecap="round" stroke-linejoin="round"/>
<path d="M17.99 100.43C15.79 100.26 15.24 96.07 15.99 95.09" stroke="#999999" stroke-width="0.75" stroke-linecap="round" stroke-linejoin="round"/>
<path d="M20.62 100.39C18.44 100.22 17.89 96.06 18.63 95.08" stroke="#999999" stroke-width="0.75" stroke-linecap="round" stroke-linejoin="round"/>
<path d="M23.26 100.35C21.09 100.19 20.55 96.06 21.29 95.08" stroke="#999999" stroke-width="0.75" stroke-linecap="round" stroke-linejoin="round"/>
<path d="M25.9 100.3C23.74 100.14 23.2 96.0299 23.94 95.0699" stroke="#999999" stroke-width="0.75" stroke-linecap="round" stroke-linejoin="round"/>
<path d="M28.54 100.26C26.4 100.1 25.87 96.0299 26.59 95.0699" stroke="#999999" stroke-width="0.75" stroke-linecap="round" stroke-linejoin="round"/>
<path d="M31.18 100.22C29.06 100.06 28.52 96.0199 29.25 95.0599" stroke="#999999" stroke-width="0.75" stroke-linecap="round" stroke-linejoin="round"/>
<path d="M33.82 100.18C31.71 100.02 31.18 96.0099 31.9 95.0599" stroke="#999999" stroke-width="0.75" stroke-linecap="round" stroke-linejoin="round"/>
<path d="M36.46 100.14C34.37 99.9799 33.84 95.9999 34.56 95.0599" stroke="#999999" stroke-width="0.75" stroke-linecap="round" stroke-linejoin="round"/>
<path d="M39.09 100.1C37.01 99.9399 36.49 95.9899 37.2 95.0599" stroke="#999999" stroke-width="0.75" stroke-linecap="round" stroke-linejoin="round"/>
<path d="M41.73 100.06C39.67 99.9 39.15 95.98 39.85 95.05" stroke="#999999" stroke-width="0.75" stroke-linecap="round" stroke-linejoin="round"/>
<path d="M44.37 100.02C42.32 99.87 41.81 95.97 42.5 95.05" stroke="#999999" stroke-width="0.75" stroke-linecap="round" stroke-linejoin="round"/>
<path d="M47.01 99.97C44.98 99.82 44.47 95.95 45.16 95.04" stroke="#999999" stroke-width="0.75" stroke-linecap="round" stroke-linejoin="round"/>
<path d="M49.65 99.93C47.63 99.78 47.13 95.94 47.82 95.03" stroke="#999999" stroke-width="0.75" stroke-linecap="round" stroke-linejoin="round"/>
<path d="M52.29 99.89C50.29 99.74 49.79 95.93 50.47 95.03" stroke="#999999" stroke-width="0.75" stroke-linecap="round" stroke-linejoin="round"/>
<path d="M54.58 99.35C52.88 99.22 52.4 96.1 52.9 95.15" stroke="#999999" stroke-width="0.75" stroke-linecap="round" stroke-linejoin="round"/>
<path d="M56.63 98.8399C55.28 98.7399 54.95 96.1799 55.4 95.5699" stroke="#999999" stroke-width="0.75" stroke-linecap="round" stroke-linejoin="round"/>
<path d="M58.91 98.3C58.04 98.23 57.73 96.81 57.88 96.11" stroke="#999999" stroke-width="0.75" stroke-linecap="round" stroke-linejoin="round"/>
<path d="M14.98 100.26C14.37 100.26 14.44 95.38 14.93 95.38" stroke="black" stroke-width="0.2" stroke-linecap="round" stroke-linejoin="round"/>
<path d="M11.16 104.03C9.62 104.04 9.78 91.69 11.04 91.67" stroke="black" stroke-width="0.2" stroke-linecap="round" stroke-linejoin="round"/>
<path d="M14.93 95.38L11.04 91.68H9.99C8.74 91.7 8.57 104.06 10.11 104.05H11.16L14.97 100.26L52.23 99.41L59.27 97.78C59.87 97.62 59.82 97.07 59.27 96.96L52.2 95.48L14.92 95.38H14.93Z" stroke="black" stroke-linecap="round" stroke-linejoin="round"/>
</g>
<defs>
<clipPath id="clip0_101_2">
<rect width="394.25" height="283.84" fill="white"/>
</clipPath>
</defs>
</svg>
