<svg xmlns="http://www.w3.org/2000/svg" width="300" height="313" fill="none" viewBox="0 0 300 313"><g clip-path="url(#a)"><path fill="#fff" d="M300 0H0v313h300z"/><path fill="#231815" d="m184.591 32.25.596-.796c.564.563 1.259 1.077 2.385 1.077 1.127 0 2.071-.878 2.071-2.286s-.795-2.22-2.021-2.22c-.646 0-1.06.2-1.623.564l-.646-.398.298-4.538h4.721v1.027h-3.661l-.232 2.815c.431-.232.862-.38 1.441-.38 1.623 0 2.932.96 2.932 3.08s-1.54 3.346-3.18 3.346c-1.507 0-2.435-.63-3.081-1.292M196.616 28.307c-.431 0-.795.265-1.143.894l-.679-.48c.546-.927 1.209-1.325 1.855-1.325 1.159 0 1.789 1.242 2.617 1.242.43 0 .795-.265 1.126-.894l.696.497c-.547.927-1.209 1.325-1.839 1.325-1.176 0-1.805-1.259-2.633-1.259M204.914 32.647c3.047-2.667 4.455-4.588 4.455-6.261 0-1.11-.58-1.922-1.789-1.922-.795 0-1.49.497-2.02 1.127l-.696-.696c.795-.861 1.623-1.424 2.865-1.424 1.739 0 2.816 1.142 2.816 2.865 0 1.938-1.524 3.909-3.793 6.062.497-.033 1.093-.1 1.59-.1h2.683v1.044h-6.111v-.712zM212.201 28.49c0-3.38 1.176-5.003 3.031-5.003s3.015 1.64 3.015 5.002-1.176 5.052-3.015 5.052c-1.838 0-3.031-1.69-3.031-5.052m4.87 0c0-2.833-.746-4.026-1.839-4.026s-1.855 1.193-1.855 4.025.745 4.091 1.855 4.091 1.839-1.225 1.839-4.09M222.288 29.781c0-2.401 1.623-3.793 3.461-3.793.945 0 1.59.398 2.104.845l-.629.812c-.431-.381-.862-.646-1.441-.646-1.292 0-2.253 1.126-2.253 2.782s.894 2.75 2.219 2.75c.663 0 1.243-.298 1.69-.712l.513.811a3.43 3.43 0 0 1-2.318.911c-1.905 0-3.379-1.375-3.379-3.76zM229.443 26.17h.994l.099 1.044h.033c.63-.696 1.375-1.226 2.236-1.226 1.093 0 1.69.53 1.988 1.375.745-.812 1.49-1.375 2.368-1.375 1.491 0 2.186.977 2.186 2.816v4.555h-1.209v-4.39c0-1.358-.43-1.92-1.341-1.92-.563 0-1.143.364-1.822 1.092v5.218h-1.209v-4.39c0-1.358-.431-1.92-1.342-1.92-.546 0-1.159.364-1.822 1.092v5.218h-1.209V26.17z"/><path fill="#fff" d="M204.135 221.338c0 8.132-6.592 15.669-14.658 16.745l-28.554 3.827c-8.066 1.076-14.641-4.688-14.625-12.837l.447-156.674a14.234 14.234 0 0 1 14.824-14.245l27.792 1.027c8.133.299 14.774 7.206 14.774 15.338z"/><path stroke="#000" stroke-miterlimit="10" d="M204.135 221.338c0 8.132-6.592 15.669-14.658 16.745l-28.554 3.827c-8.066 1.076-14.641-4.688-14.625-12.837l.447-156.674a14.234 14.234 0 0 1 14.824-14.245l27.792 1.027c8.133.299 14.774 7.206 14.774 15.338z"/><path stroke="#000" stroke-miterlimit="10" stroke-width=".5" d="M204.135 222.53c0 6.195-5.018 11.959-11.163 12.82l-28.504 3.943c-6.145.844-11.147-3.528-11.131-9.723l.398-158.562a10.793 10.793 0 0 1 11.279-10.816l27.842 1.126c6.194.248 11.263 5.532 11.263 11.727V222.53z"/><path stroke="#000" stroke-miterlimit="10" stroke-width=".25" d="M149.892 104.433h-.629a.81.81 0 0 0-.812.811v20.804c0 .448.364.812.812.812h.629a.81.81 0 0 0 .812-.812v-20.804a.81.81 0 0 0-.812-.811Z"/><path stroke="#000" stroke-linecap="round" stroke-miterlimit="10" stroke-width=".25" d="M150.041 104.433c.795 0 1.458.596 1.458 1.308v19.81c0 .712-.646 1.309-1.458 1.309"/><path stroke="#000" stroke-linecap="round" stroke-miterlimit="10" stroke-width=".5" d="m172.765 102.379-11.014.05c-2.815 0-5.134-2.27-5.134-5.069V68.888c0-2.8 2.319-5.036 5.134-4.97l11.014.249c2.766.066 5.019 2.369 5.019 5.118V97.36c0 2.766-2.253 5.019-5.019 5.036z"/><path stroke="#000" stroke-linecap="round" stroke-miterlimit="10" stroke-width=".5" d="M165.627 102.412c-4.19 0-7.636-1.325-7.636-5.532V69.616c0-4.19 3.429-5.648 7.636-5.648"/><path fill="#000" stroke="#000" stroke-miterlimit="10" stroke-width=".5" d="M163.06 81.244c2.625 0 4.753-3.567 4.753-7.967s-2.128-7.967-4.753-7.967-4.754 3.567-4.754 7.967 2.128 7.967 4.754 7.967Z"/><path fill="#fff" stroke="#000" stroke-miterlimit="10" stroke-width=".25" d="M163.656 81.244c2.625 0 4.753-3.567 4.753-7.967s-2.128-7.967-4.753-7.967-4.754 3.567-4.754 7.967 2.129 7.967 4.754 7.967Z"/><path stroke="#000" stroke-linecap="round" stroke-miterlimit="10" stroke-width=".25" d="M163.656 79.488c1.976 0 3.577-2.78 3.577-6.211 0-3.43-1.601-6.211-3.577-6.211s-3.578 2.78-3.578 6.21 1.602 6.212 3.578 6.212Z"/><path fill="#000" stroke="#000" stroke-miterlimit="10" stroke-width=".5" d="M163.06 100.607c2.625 0 4.753-3.567 4.753-7.968s-2.128-7.966-4.753-7.966-4.754 3.566-4.754 7.966 2.128 7.968 4.754 7.968Z"/><path fill="#fff" stroke="#000" stroke-miterlimit="10" stroke-width=".25" d="M163.656 100.607c2.625 0 4.753-3.567 4.753-7.968s-2.128-7.966-4.753-7.966-4.754 3.566-4.754 7.966 2.129 7.968 4.754 7.968Z"/><path stroke="#000" stroke-linecap="round" stroke-miterlimit="10" stroke-width=".25" d="M163.656 98.85c1.976 0 3.577-2.78 3.577-6.21s-1.601-6.212-3.577-6.212-3.578 2.781-3.578 6.212 1.602 6.21 3.578 6.21Z"/><path fill="#000" stroke="#000" stroke-miterlimit="10" stroke-width=".5" d="M172.931 90.751c2.516 0 4.555-3.418 4.555-7.635 0-4.218-2.039-7.636-4.555-7.636s-4.555 3.418-4.555 7.636c0 4.217 2.04 7.635 4.555 7.635Z"/><path fill="#fff" stroke="#000" stroke-miterlimit="10" stroke-width=".25" d="M173.511 90.751c2.515 0 4.554-3.418 4.554-7.635 0-4.218-2.039-7.636-4.554-7.636s-4.555 3.418-4.555 7.636c0 4.217 2.039 7.635 4.555 7.635Z"/><path stroke="#000" stroke-linecap="round" stroke-miterlimit="10" stroke-width=".25" d="M173.511 89.062c1.893 0 3.428-2.662 3.428-5.946s-1.535-5.947-3.428-5.947-3.429 2.663-3.429 5.947 1.535 5.946 3.429 5.946Z"/><path stroke="#000" stroke-miterlimit="10" d="M146.729 76.325h7.006M146.315 225.28s2.584.497 7.039.315"/><path fill="#fff" d="M275.703 234.208c-3.81-1.905-16.563-15.686-18.037-17.906s-6.046-28.621-5.93-31.487.315-6.045.315-7.917-3.18-5.864-3.925-7.238c-.746-1.375-2.071-4.605-2.071-4.605-1.59-7.52-4.289-12.456-6.575-13.83s-3.544-3.76-4.555-6.079-6.261-13.582-6.94-15.321c-.679-1.74-4.024-4.82-5.2-5.996s-4.456-6.46-5.665-7.206c-1.209-.745-1.904-1.109-5.73-2.484-3.81-1.375-7.255-1.54-7.255-1.54s-.016 17.242 0 18.153c.017 1.077 3.18 1.193 3.18 1.193.431 1.59 2.336 2.965 2.7 4.025s.696 2.02 1.06 3.975c.364 1.954.745 3.809 1.64 6.062s2.037 3.429 2.037 3.429c-.977.894-2.186 9.921-2.004 12.257.182 2.335-1.16 5.797-6.46 8.828s-8.198 2.435-8.198 2.435c-20.886-5.135-31.353-9.044-31.353-9.044-5.847-1.872-12.836-6.691-12.836-6.691-4.903-2.187-13.317-3.661-13.317-3.661-2.865.116-4.985-.066-4.985-.066-12.306.811-6.758 13.946-6.758 13.946 1.126 1.325 2.518 3.445 2.518 3.445 8.529 9.375 20.405 12.555 20.405 12.555 3.66.1 10.385 4.141 10.385 4.141 3.379 3.976 8.877 7.388 8.877 7.388 1.392 2.12 6.708 5.002 6.708 5.002 3.23 9.673 9.441 17.176 9.441 17.176 4.903 7.603 10.815 12.191 10.815 12.191 6.625 8.994 19.163 13.814 19.163 13.814s20.753 25.127 24.927 45.549"/><path stroke="#000" stroke-linecap="round" stroke-miterlimit="10" d="M275.703 234.208c-3.81-1.905-16.563-15.686-18.037-17.906s-6.046-28.621-5.93-31.487.315-6.045.315-7.917-3.18-5.864-3.925-7.238c-.746-1.375-2.071-4.605-2.071-4.605-1.59-7.52-4.289-12.456-6.575-13.83s-3.544-3.76-4.555-6.079-6.261-13.582-6.94-15.321c-.679-1.74-4.024-4.82-5.2-5.996s-4.456-6.46-5.665-7.206c-1.209-.745-1.904-1.109-5.73-2.484-3.81-1.375-7.255-1.54-7.255-1.54s-.016 17.242 0 18.153c.017 1.077 3.18 1.193 3.18 1.193.431 1.59 2.336 2.965 2.7 4.025s.696 2.02 1.06 3.975c.364 1.954.745 3.809 1.64 6.062s2.037 3.429 2.037 3.429c-.977.894-2.186 9.921-2.004 12.257.182 2.335-1.16 5.797-6.46 8.828s-8.198 2.435-8.198 2.435c-20.886-5.135-31.353-9.044-31.353-9.044-5.847-1.872-12.836-6.691-12.836-6.691-4.903-2.187-13.317-3.661-13.317-3.661-2.865.116-4.985-.066-4.985-.066-12.306.811-6.758 13.946-6.758 13.946 1.126 1.325 2.518 3.445 2.518 3.445 8.529 9.375 20.405 12.555 20.405 12.555 3.66.1 10.385 4.141 10.385 4.141 3.379 3.976 8.877 7.388 8.877 7.388 1.392 2.12 6.708 5.002 6.708 5.002 3.23 9.673 9.441 17.176 9.441 17.176 4.903 7.603 10.815 12.191 10.815 12.191 6.625 8.994 19.163 13.814 19.163 13.814s20.753 25.127 24.927 45.549"/><path fill="#221e1f" d="M144.013 175.159s-.1-.414.099-1.938c.066-.762.348-1.772.712-3.147.232-.679.514-1.425.861-2.286.414-.812.845-1.756 1.524-2.683 1.309-1.888 2.766-3.081 4.025-3.793s2.319-1.011 3.081-1.143c1.54-.249 1.954-.033 1.954.033 0 .099-.414.099-1.838.497-.713.199-1.673.546-2.816 1.259s-2.485 1.838-3.727 3.627c-.646.878-1.043 1.772-1.474 2.551-.331.811-.629 1.54-.878 2.186-.397 1.325-.745 2.286-.894 3.031-.364 1.458-.547 1.839-.613 1.822zM129.818 166.794s.365.05 1.425.547 2.815 1.391 5.714 2.948l-.563.282a20.1 20.1 0 0 1 2.169-7.222c1.723-3.23 3.81-5.218 5.648-6.443l.05.646c-2.617-1.11-4.207-1.822-5.118-2.269s-1.176-.63-1.159-.68c.016-.049.331 0 1.308.315s2.601.911 5.251 1.955l.629.248-.58.398c-1.656 1.159-3.66 3.13-5.3 6.194-1.374 2.634-1.888 5.019-2.153 6.94l-.083.564-.48-.265c-2.849-1.607-4.555-2.617-5.549-3.247-.977-.613-1.242-.845-1.225-.911zM148.584 177.941s-.166-.314-.215-1.54c.033-1.209 0-3.429 1.49-6.808 1.59-3.329 3.412-4.704 4.373-5.432 1.027-.696 1.391-.729 1.424-.663.05.083-.215.282-1.093 1.077-.828.828-2.451 2.219-3.942 5.366-1.391 3.197-1.507 5.317-1.706 6.493-.116 1.193-.232 1.507-.315 1.507zM201.303 174.927s.348-.215 1.656-.447c1.276-.365 3.611-.779 6.973-2.849 3.329-2.104 4.936-3.843 5.913-4.754.961-.944 1.226-1.176 1.292-1.126.066.049-.05.414-.911 1.49-.878 1.027-2.435 2.916-5.88 5.102-3.478 2.153-5.996 2.468-7.321 2.667-1.374.066-1.739 0-1.739-.067zM227.455 146.67c-.016-.116.613-.564 3.86-.116 3.229.513 3.726.977 3.693 1.109-.033.183-.646.216-3.809-.298-3.164-.447-3.727-.513-3.744-.712zM209.154 130.984s-.133-.248-.067-1.11c.149-.811.398-2.451 2.104-4.439 1.772-1.921 3.329-2.401 4.141-2.65.844-.215 1.093-.132 1.109-.066.017.083-.182.199-.927.563-.712.397-2.087.961-3.71 2.7-1.557 1.805-1.905 3.263-2.203 4.008-.232.795-.381.994-.464.977zM209.22 117.816s-.099.331-.795 1.027c-.563.762-1.855 2.12-2.004 5.052-.05 1.457.165 2.617.364 3.511.199.911.414 1.557.563 2.054.298.961.365 1.242.282 1.275-.066.034-.315-.149-.779-1.076a12 12 0 0 1-.778-2.054 11.8 11.8 0 0 1-.48-3.727 7.94 7.94 0 0 1 1.027-3.66c.496-.878 1.06-1.359 1.424-1.739.861-.613 1.126-.713 1.176-.646zM245.956 173.32c-.166 0-.414-.911-.696-6.045-.331-5.135-.248-6.063-.083-6.079.15-.017.564.878.895 6.029.298 5.168.016 6.095-.116 6.095M249.898 189.238s-.215-.298-.282-1.458c-.083-1.159-.099-3.18.05-6.609.149-3.412.331-5.433.48-6.575.149-1.16.265-1.458.348-1.441.166 0 .315 1.242 0 8.066-.298 6.824-.414 8.017-.596 8.033zM179.589 167.689s.381-.067 1.657.331c1.258.397 3.411 1.209 6.939 2.849s5.532 2.749 6.675 3.412 1.391.927 1.358.994c-.083.165-1.391-.332-8.381-3.644-7.022-3.247-8.297-3.744-8.231-3.942z"/><path stroke="#000" stroke-linecap="round" stroke-miterlimit="10" stroke-width=".5" d="m204.135 141.634 7.702 1.706M204.135 162.935s1.126-.166 3.362.099 3.628.365 3.628.365l1.242.778"/><path fill="#fff" d="M43.295 232.071c-1.044 0-1.855-.828-1.855-1.872V49.839a1.88 1.88 0 0 1 1.888-1.904h.182l68.686 6.327a2.134 2.134 0 0 1 1.921 2.103V222.15c0 1.077-.828 2.004-1.905 2.137l-68.735 7.785z"/><path fill="#000" d="M43.328 48.763h.1l68.685 6.31c.646.067 1.176.63 1.176 1.276v165.784c0 .646-.53 1.225-1.16 1.308l-68.685 7.785h-.133c-.58 0-1.043-.447-1.043-1.043V49.839c0-.612.464-1.076 1.06-1.076m0-1.657c-1.524 0-2.716 1.193-2.716 2.733V230.2c0 1.524 1.176 2.7 2.7 2.7.099 0 .215 0 .314-.017l68.686-7.784c1.474-.166 2.633-1.458 2.633-2.949V56.365c0-1.507-1.176-2.799-2.667-2.931l-68.685-6.311h-.265z"/><path fill="#fff" d="M41.54 232.104a33 33 0 0 1-4.605-.944c-.182-.05-.348-.083-.53-.133-.895-.215-1.905-.447-2.7-1.325-1.06-.298-2.517-1.176-2.7-1.275-2.898-1.657-5.382-3.098-5.747-4.804-.215-1.093-.58-5.946-.613-7.337-.033-1.309-.348-151.87-.348-153.262 0-6.824.845-7.387 1.16-7.603.464-.314 1.06-.662 1.69-1.06.413-.248.827-.497 1.241-.762 1.027-.646 2.965-1.49 3.048-1.523l1.656-.779c2.965-1.838 8.696-3.346 8.944-3.412l.15-.033 14.84 1.706v181.006l-14.808 1.672-.712-.099z"/><path fill="#000" d="M42.268 48.664 56.23 50.27v179.532l-13.962 1.573c-1.524-.232-2.716-.364-5.118-1.01-1.076-.298-2.22-.398-2.998-1.425h-.05c-.96-.198-2.666-1.242-2.666-1.242-2.567-1.474-5.085-2.915-5.35-4.257-.198-1.01-.563-5.78-.596-7.188s-.348-152.533-.348-153.246c0-.712.05-6.41.795-6.907s1.855-1.142 2.915-1.805c.977-.613 2.948-1.474 2.948-1.474l1.673-.779c2.849-1.805 8.795-3.362 8.795-3.362m-.116-1.706-.298.083c-.248.066-6.045 1.59-9.126 3.478l-1.64.779c-.166.066-2.07.91-3.114 1.573-.414.265-.828.514-1.242.762-.646.398-1.259.762-1.722 1.077-.613.397-1.524 1.01-1.524 8.281 0 1.392.315 151.788.348 153.279.033 1.292.38 6.277.63 7.487.43 2.087 3.08 3.594 6.144 5.366.265.166 1.557.928 2.65 1.292.944.928 2.087 1.209 2.965 1.408.165.033.33.083.496.132 2.17.58 3.396.762 4.704.961l.596.083.216.033h.215l13.962-1.607 1.475-.165V48.796l-1.474-.166-13.963-1.606-.315-.033z"/><path fill="#fff" stroke="#000" stroke-miterlimit="10" stroke-width=".5" d="m33.887 51.827-2.103.994s-1.971.861-2.948 1.474c-1.06.663-2.187 1.309-2.915 1.805-.73.497-.795 6.212-.795 6.907s.314 151.821.347 153.246c.034 1.424.398 6.178.597 7.188.281 1.342 2.799 2.8 5.35 4.257 0 0 1.722 1.044 2.666 1.242h3.627V52.092l-3.859-.265z"/><path fill="#fff" stroke="#000" stroke-miterlimit="10" stroke-width=".5" d="m56.23 50.27-13.962-1.607s-5.946 1.557-8.795 3.363c0 0-.199 1.888-.199 7.602v165.387c0 4.919 2.038 4.836 3.876 5.333 2.402.646 4.24.878 5.118 1.011l13.962-1.574z"/><path fill="#fff" d="M113.289 220.973c0 1.292-1.044 2.468-2.336 2.617l-66.35 7.52c-1.275.149-2.335-.795-2.335-2.087V51.015a2.114 2.114 0 0 1 2.335-2.136l66.35 6.095c1.292.116 2.336 1.276 2.336 2.567z"/><path stroke="#000" stroke-miterlimit="10" stroke-width=".5" d="M113.289 220.973c0 1.292-1.044 2.468-2.336 2.617l-66.35 7.52c-1.275.149-2.335-.795-2.335-2.087V51.015a2.114 2.114 0 0 1 2.335-2.136l66.35 6.095c1.292.116 2.336 1.276 2.336 2.567z"/><path stroke="#000" stroke-miterlimit="10" stroke-width=".25" d="M79.435 65.028c.97 0 1.755-1.453 1.755-3.246s-.786-3.247-1.755-3.247c-.97 0-1.756 1.454-1.756 3.247s.786 3.246 1.756 3.246Z"/><path fill="#888" d="M69.216 195.432v2.601c0 .166 0 .431-.133.58-.1.099-.265.165-.48.182l-.696.066c-.116 0-.315.033-.447-.099-.116-.1-.182-.298-.182-.563v-2.601l-.878.066v2.617c0 .265.066 1.557 1.292 1.458l1.143-.099c.463-.034 1.242-.315 1.242-1.673v-2.617l-.878.066zM64.396 197.37l-.944-.033c-.232-.016-.431-.05-.431-.298 0-.381.116-.497.878-.563h.199a5 5 0 0 1 1.39.066h.067v-.58c-.083-.149-.795-.347-1.49-.281h-.2c-1.175.116-1.738.596-1.738 1.491 0 .861.728.993 1.407 1.026h.415c.314.034.48.05.596.083.182.067.281.116.281.398 0 .48-.33.563-1.01.613h-.199c-.397.049-.894-.017-1.424-.199h-.066v.563c0 .232.712.48 1.523.414h.183c1.308-.132 1.92-.613 1.92-1.573 0-.911-.678-1.094-1.357-1.143M73.058 194.919h-.133c-1.59.149-2.17.795-2.17 2.402v2.169l.928-.082v-2.17c0-1.226.265-1.441 1.093-1.507h.216c.795-.083.927.132.927.695 0 .348-.116.762-.43.779l-1.458.099v.629h.05c.298.017.811.017 1.209 0 1.358-.115 1.59-.877 1.59-1.507 0-1.027-.68-1.59-1.789-1.507M77.977 194.571c-.248-.016-.811 0-1.093.033-.513.05-1.358.315-1.358 1.706v2.783l.91-.083v-2.733c0-.729.133-.828.713-.861l.828-.066zM80.776 197.851h-.182c-.762.083-1.242.033-1.242-1.243 0-1.209.265-1.441 1.093-1.507h.215c.762-.083.928.033.928.613 0 .282-.133.431-.43.447l-1.458.116v.613h.05c.28.033.81.017 1.208 0 .597-.05 1.59-.248 1.59-1.375 0-1.126-.977-1.275-1.788-1.209h-.133c-1.59.149-2.186.795-2.17 2.402 0 1.54.613 2.12 2.087 1.987h.116c.944-.082 1.723-.397 1.723-.695v-.514l-.066.017c-.547.182-.961.315-1.524.348M88.66 195.234c0-.762-.281-1.127-.596-1.292 0 0-.331-.232-.928-.182a2.4 2.4 0 0 0-.695.149 1.2 1.2 0 0 0-.48.298c-.034.033-.034.049-.034.049s-.315-.381-1.209-.298a1.9 1.9 0 0 0-.811.249h-.017c-.58.364-.662 1.093-.662 1.457v2.75l.828-.066v-2.75c0-.414.082-.812.695-.861.646-.05.762.232.762.729v2.749l.845-.066v-2.75c0-.546.215-.828.712-.861.53-.05.762.182.762.745v2.75l.828-.066v-2.75zM91.095 194.223h.182c.762-.083 1.242-.033 1.242 1.243 0 1.209-.265 1.441-1.093 1.507h-.215c-.762.083-.928-.033-.928-.613 0-.282.133-.431.43-.447l1.458-.116v-.613h-.05c-.28-.033-.81-.017-1.208 0-.597.05-1.59.248-1.59 1.375 0 1.126.977 1.275 1.788 1.209h.133c1.59-.149 2.186-.795 2.17-2.402 0-1.54-.613-2.12-2.087-1.987h-.116c-.944.082-1.723.397-1.723.695v.514l.067-.017c.546-.182.96-.315 1.523-.348"/><path fill="#000" d="m52.553 71.902 52.14 3.545v104.035l-52.206 4.24.066-111.803m-.811-.895v.878l-.066 111.803v.895l.894-.066 52.206-4.241.761-.066V74.668l-.778-.05-52.14-3.544-.877-.066z"/><mask id="b" width="53" height="113" x="52" y="71" maskUnits="userSpaceOnUse" style="mask-type:luminance"><path fill="#fff" d="m104.709 179.482-52.205 4.223.05-111.803 52.155 3.545z"/></mask><g mask="url(#b)"><path fill="#fff" stroke="#000" stroke-miterlimit="10" stroke-width=".5" d="M46.458 163.697s.911-1.342 1.474-2.485c.564-1.143 1.176-3.379 1.292-4.422.116-1.044.795-6.559 1.027-8.365.232-1.805.745-5.731.762-6.973s.298-3.296.464-4.456c.166-1.159.546-6.873.63-8.48.082-1.607.231-4.423.397-5.4.165-.977.182-1.308.729-2.103s3.71-4.274 3.908-4.323c.199-.05.53-.133.596-.332.067-.198 2.419-5.085 3.611-5.747 1.193-.663 1.706 1.01 1.839 1.457.132.448.298 3.363.265 4.323s-.133 2.717-.116 3.429c.016.712-.066 2.286-.182 2.65-.116.365-.994 2.402-2.866 3.81 0 0 .596 1.341.646 2.932s-.182 3.759.1 4.82c0 0 1.325-.282 2.616-.1s1.59 2.253 3.744 1.69 24.181-20.456 24.181-20.456 1.59-2.998 4.207-1.971 1.656 4.157 1.49 4.77-1.656 2.716-1.656 2.716 1.524.481 1.822 2.8-.198 5.018-1.341 6.873c0 0 1.855 2.137 1.391 5.682-.464 3.544-2.733 6.062-2.733 6.062s1.888.166 2.402 4.803c.513 4.638-4.837 9.061-4.837 9.061s-10.4 11.992-13.051 15.321-6.029 6.36-7.486 7.503c-1.458 1.143-2.982 2.054-5.4 3.429s-3.76 1.524-3.76 1.524-2.517 3.693-3.577 5.465c-1.06 1.773-6.393 10.286-6.393 10.286l-3.975.464s-2.07-.944-2.07-2.782l-.1-33.492z"/><path stroke="#000" stroke-miterlimit="10" stroke-width=".25" d="M57.572 116.54s.149.547.811.183c.663-.365 1.706-2.054 2.12-2.833.415-.778 1.143-2.517.53-3.014"/><path fill="#221e1f" d="M57.34 125.882c.066-.116.248.1 1.441.365 1.21.099 1.458-.05 1.49.066.034.016-.148.447-1.54.348-.695-.1-1.043-.365-1.209-.497-.165-.166-.182-.232-.165-.265z"/><path stroke="#000" stroke-linecap="round" stroke-miterlimit="10" stroke-width=".25" d="M60.901 133.866s-.033 1.573 1.093 2.567"/><path fill="#221e1f" d="M53.282 143.291s.166-.116.812-.216c.613-.182 1.788-.364 3.362-1.49 1.54-1.16 2.203-2.137 2.617-2.634.397-.53.513-.663.546-.646.034 0 0 .199-.314.795-.348.563-.977 1.623-2.6 2.832-1.657 1.176-2.916 1.325-3.578 1.425-.68.033-.861 0-.861-.05z"/><path fill="#221e1f" d="M49.589 164.492s.116.381.281 1.855c.298 1.408.58 4.091 2.932 7.785 2.435 3.627 4.637 5.101 5.78 6.012 1.21.861 1.557 1.044 1.524 1.093 0 .017-.116 0-.364-.132-.265-.116-.68-.348-1.309-.745-1.209-.845-3.495-2.303-5.979-6.013-2.402-3.776-2.633-6.526-2.849-7.967-.083-1.491-.05-1.888-.016-1.888" opacity=".2"/><path fill="#221e1f" d="M63.17 143.125c-.083 0-.166-.282-.646-1.988-.497-1.706-.497-2.037-.414-2.07.066-.017.315.232.812 1.954.497 1.723.33 2.12.248 2.104M95.037 151.821s-.398.331-1.392-.514c-.927-.861-.894-1.176-.86-1.209.082-.066.264.083 1.126.894.894.762 1.126.696 1.11.829z"/><path fill="#fff" d="M92.966 162.107c0 3.097-2.517 5.896-5.598 6.194l-18.12 1.839c-3.08.315-5.63-1.971-5.664-5.069l-.712-76.258a5.35 5.35 0 0 1 5.582-5.433l18.881.68c3.097.115 5.631 2.733 5.631 5.83z"/><path stroke="#000" stroke-miterlimit="10" stroke-width=".5" d="M92.966 162.107c0 3.097-2.517 5.896-5.598 6.194l-18.12 1.839c-3.08.315-5.63-1.971-5.664-5.069l-.712-76.258a5.35 5.35 0 0 1 5.582-5.433l18.881.68c3.097.115 5.631 2.733 5.631 5.83z"/><path fill="#fff" d="M91.906 160.699c0 2.153-1.755 4.107-3.908 4.323L68.8 166.927c-2.153.215-3.925-1.375-3.942-3.545l-.679-74.204a3.744 3.744 0 0 1 3.893-3.793l19.891.662c2.154.066 3.926 1.905 3.926 4.058V160.7z"/><path stroke="#000" stroke-miterlimit="10" stroke-width=".25" d="M91.906 160.699c0 2.153-1.755 4.107-3.908 4.323L68.8 166.927c-2.153.215-3.925-1.375-3.942-3.545l-.679-74.204a3.744 3.744 0 0 1 3.893-3.793l19.891.662c2.154.066 3.926 1.905 3.926 4.058V160.7z"/><path fill="#fff" stroke="#000" stroke-miterlimit="10" stroke-width=".25" d="M63.203 112.068a.55.55 0 0 1-.546-.546v-7.47c0-.298.248-.53.546-.514.298 0 .547.249.547.547v7.47c0 .298-.249.53-.547.53zM80.412 84.507l-4.14-.166c-.133 0-.25.1-.25.232v.232c0 .132.117.248.25.248l4.14.166c.132 0 .248-.1.248-.232v-.232a.255.255 0 0 0-.248-.248Z"/><path fill="#231815" d="M88.975 108.822v.961h-.696v-.961z"/><path fill="#231815" d="M88.28 108.822v.961h-.697v-.961z"/><path fill="#231815" d="M87.584 108.822v.961l-.713-.017.017-.961z"/><path fill="#231815" d="m86.888 108.805-.017.961h-.695v-.961zM86.176 108.805v.961h-.713v-.977z"/><path fill="#231815" d="M85.464 108.789v.977l-.696-.016v-.961zM84.768 108.789v.96h-.712v-.977zM83.344 108.772v.961h-.713v-.977zM82.631 108.756v.977h-.712v-.977z"/><path fill="#231815" d="M81.92 108.756v.977l-.713-.017v-.977zM79.766 108.739v.977l-.729-.016v-.977zM79.037 108.723v.977h-.712v-.977zM76.139 108.689v.994l-.73-.016v-.978zM74.681 108.673v.994l-.745-.017v-.977zM73.207 108.656v.994h-.745v-.994z"/><path fill="#231815" d="M72.462 108.656v.994l-.729-.017v-.993zM71.733 108.64v.993h-.745v-.993zM70.988 108.64v.994l-.746-.017v-.994zM70.242 108.623v.994h-.745v-.994zM69.497 108.623v.994h-.745v-.994zM68.752 108.623v.994l-.746-.017v-.993zM88.975 109.783v.96h-.696v-.96zM84.768 109.75l-.017.977-.695-.017v-.96zM80.478 109.716v.978l-.712-.017v-.961zM77.596 109.683v.977h-.729v-.977zM76.867 109.683v.977h-.728v-.977zM75.41 109.667v.993l-.729-.016v-.977zM73.207 109.65v.994l-.745-.017v-.977z"/><path fill="#231815" d="M68.752 109.617v.994l-.746-.017v-.994zM88.975 110.743v.961h-.696v-.961zM87.584 110.743l-.017.961h-.696v-.961zM86.871 110.743v.961l-.695-.017v-.96zM86.176 110.727v.96h-.713v-.96zM84.751 110.727v.96h-.695v-.977zM82.631 110.71v.961h-.712v-.977zM81.19 110.694v.977h-.712v-.977zM79.766 110.677v.977h-.729v-.977zM79.037 110.677v.977h-.729l.017-.977zM76.139 110.66v.978h-.73v-.978zM73.207 110.644v.977h-.745v-.994zM71.733 110.627v.994l-.745-.016v-.978zM70.988 110.627v.978h-.746v-.994zM70.242 110.611v.994h-.745v-.994z"/><path fill="#231815" d="M68.752 110.611v.994l-.746-.017v-.994zM88.275 111.697l-.004.961.696.002.003-.96zM86.881 111.708l-.003.961.696.002.003-.961zM86.152 111.688l-.003.961.695.002.003-.961z"/><path fill="#231815" d="m85.456 111.685-.003.961.712.002.003-.961zM84.751 111.687v.961h-.712l.017-.961zM82.631 111.671v.977h-.728l.016-.977zM81.19 111.671v.977l-.712-.017v-.96zM80.478 111.671v.961h-.712v-.978z"/><path fill="#231815" d="M79.766 111.654v.978h-.729v-.978zM78.308 111.654v.978h-.712v-.978zM77.596 111.654v.978h-.729v-.994zM76.867 111.638v.994l-.728-.017v-.977zM74.681 111.638v.977h-.745v-.994zM73.207 111.621v.994h-.745v-.994zM71.733 111.621v.977h-.745v-.994zM70.988 111.604v.994h-.746v-.994zM70.242 111.604v.994h-.745v-.994zM68.752 111.605v.993l-.746-.016v-.994zM88.275 112.678l-.004.961.696.002.003-.961zM86.865 112.655l-.003.961.695.002.003-.961zM86.168 112.668l-.003.961.696.002.003-.96zM85.456 112.649l-.003.96.712.002.003-.96zM84.046 112.662l-.003.961.712.002.003-.961zM81.927 112.636l-.003.977.713.002.002-.977zM81.182 112.649l-.002.978.712.001.002-.977z"/><path fill="#231815" d="m79.76 112.627-.002.977.713.001.001-.977z"/><path fill="#231815" d="m79.033 112.623-.002.978.729.001.001-.978z"/><path fill="#231815" d="m78.322 112.62-.001.978h.729l.001-.977zM76.867 112.631v.978h-.728v-.994zM76.139 112.615v.994l-.73-.017v-.977z"/><path fill="#231815" d="M75.41 112.615v.977h-.729v-.977zM73.207 112.615v.977h-.745v-.977zM71.733 112.598v.994h-.745v-.994zM70.988 112.598v.994h-.746v-.994zM70.242 112.598v.994h-.745v-.994zM68.752 112.598v.994h-.746v-1.01zM88.958 113.625v.961h-.695v-.961zM84.046 113.642l-.003.96.712.002.003-.96zM81.91 113.599l-.002.977.712.001.002-.977z"/><path fill="#231815" d="m81.199 113.612-.002.977.712.002.002-.978zM80.47 113.609v.977l.711.001.002-.977zM78.322 113.599l-.001.977.729.001.001-.977zM77.596 113.609h-.729v.977h.73zM76.139 113.609h-.73v.977h.73zM73.207 113.592h-.745v.994h.745zM68.752 113.592v.994h-.746v-.994zM88.958 114.586v.961h-.695v-.961zM88.263 114.586v.961h-.696v-.961zM87.567 114.586v.961h-.712l.016-.961z"/><path fill="#231815" d="m86.871 114.586-.016.961h-.696v-.961z"/><path fill="#231815" d="M86.16 114.586v.961h-.713l.016-.961z"/><path fill="#231815" d="m85.464 114.586-.017.961h-.696v-.961zM84.751 114.586v.961h-.712v-.961zM83.327 114.586v.961h-.712v-.961zM81.903 114.586v.961l-.713.016v-.977zM80.478 114.586v.977h-.729v-.977zM78.306 114.561l-.001.977.728.001.001-.978zM77.596 114.586h-.729v.977h.73zM76.139 114.586h-.73v.977h.73zM74.665 114.586h-.73v.977h.73zM73.19 114.586h-.728v.977h.728z"/><path fill="#231815" d="M72.478 114.586h-.745v.994h.745z"/><path fill="#231815" d="M71.733 114.586h-.745v.994h.745zM70.988 114.586h-.746v.994h.746zM70.242 114.586h-.745v.994h.745zM69.497 114.586h-.745v.994h.745zM68.752 114.586h-.746v.994h.746zM83.327 115.547v.977h-.712v-.977zM81.903 115.547v.977h-.713v-.961zM79.75 115.563v.961l-.713.016v-.977zM79.037 115.563v.977h-.729v-.977zM77.58 115.563v.977h-.713v-.977zM88.958 116.507v.961h-.695v-.961zM88.263 116.507v.961h-.713l.017-.961zM86.855 116.507v.961h-.696v-.961z"/><path fill="#231815" d="M86.16 116.507v.961l-.713.017v-.978zM84.751 116.524l-.016.961h-.696v-.961zM80.478 116.524l-.016.977h-.713v-.977zM79.037 116.541v.96l-.729.017v-.977zM78.308 116.541v.977h-.728v-.977zM76.867 116.541v.977h-.728v-.977zM73.207 116.557v.977h-.745v-.977zM68.752 116.557v.994h-.746v-.977zM88.263 117.468l-.017.961h-.696v-.961z"/><path fill="#231815" d="M84.04 117.485v.96l-.713.017v-.977zM83.327 117.485v.977h-.712v-.977zM81.19 117.501v.961l-.728.016v-.977zM79.75 117.501v.977h-.713v-.977zM79.037 117.501v.977h-.729v-.96zM78.308 117.518v.96l-.728.017v-.977zM76.867 117.518v.977h-.728v-.977zM76.139 117.518v.977l-.73.017v-.994z"/><path fill="#231815" d="M75.41 117.518v.994h-.745v-.978zM73.936 117.534v.978h-.729v-.978zM72.462 117.534v.994h-.729v-.994zM71.733 117.534v.994h-.745v-.977zM70.242 117.551v.994h-.745v-.994zM69.497 117.551v.994h-.745v-.994zM88.246 118.429v.944l-.696.016v-.96zM87.55 118.429v.96h-.695v-.96zM86.855 118.429v.96h-.713v-.96zM85.447 118.445v.961h-.712v-.961zM84.735 118.445v.961h-.713l.017-.961z"/><path fill="#231815" d="m84.04 118.445-.018.961-.695.017v-.961zM83.327 118.462v.96h-.712v-.96zM82.615 118.462v.96l-.712.017v-.977zM81.19 118.462v.977h-.728v-.961zM79.75 118.478v.978h-.73l.017-.978zM78.308 118.478v.978l-.728.016v-.977zM77.58 118.495v.977h-.73l.017-.977zM73.936 118.511v.978l-.729.016v-.994zM72.462 118.528v.977h-.729v-.977zM70.242 118.545v.977l-.745.016v-.993zM86.143 119.389v.961l-.696.017v-.961zM85.447 119.406v.961h-.712v-.961zM84.023 119.406v.977h-.696v-.96z"/><path fill="#231815" d="M81.903 119.439v.961h-.73l.017-.961zM80.462 119.439v.977h-.713v-.96zM79.02 119.456v.977h-.712v-.977zM76.85 119.472v.977h-.711v-.977zM73.936 119.489v.994h-.729v-.978zM70.988 119.522v.977l-.746.017v-.994zM68.752 119.538v.994h-.746v-.994zM88.942 120.333v.961h-.696v-.961zM87.55 120.35v.961h-.712v-.961zM86.838 120.35v.961h-.695v-.961zM85.447 120.367l-.017.96h-.695v-.96zM84.735 120.367v.96l-.713.017v-.961z"/><path fill="#231815" d="M84.023 120.383v.961h-.713l.017-.961z"/><path fill="#231815" d="m83.327 120.383-.017.961-.712.016.017-.96z"/><path fill="#231815" d="m82.615 120.4-.017.96h-.712l.017-.96z"/><path fill="#231815" d="m81.903 120.4-.017.96-.712.017v-.977zM81.174 120.4v.977h-.713v-.961z"/><path fill="#231815" d="M80.462 120.416v.961l-.713.017v-.978zM78.308 120.433v.977h-.728v-.961zM74.665 120.466v.977l-.73.017v-.977zM73.207 120.483v.977l-.745.016v-.993z"/><path fill="#231815" d="M72.462 120.483v.993h-.729v-.977zM68.752 120.532l.016.977-.762.017v-.994zM86.838 121.311v.96h-.695v-.96zM86.143 121.311v.96l-.713.017v-.961zM85.43 121.327v.961l-.695.017v-.978zM84.023 121.344v.961l-.713.016v-.977zM82.598 121.36v.961l-.712.017v-.978zM81.174 121.377v.961l-.713.016v-.977zM79.75 121.394v.96l-.73.017v-.977zM79.02 121.394v.977l-.712.016v-.977z"/><path fill="#231815" d="M78.308 121.41v.977h-.728v-.977zM77.58 121.41v.977l-.73.017v-.977zM76.85 121.427v.977h-.728v-.977zM76.122 121.427v.977l-.729.016v-.977zM73.936 121.46v.977l-.729.017v-.994zM73.207 121.46v.994h-.745v-.978zM71.733 121.476v.994h-.745v-.977zM70.988 121.493v.977l-.746.017v-.994zM70.242 121.493v.994l-.728.016v-.994zM69.514 121.51v.993h-.746v-.993zM68.768 121.51v.993l-.745.017-.017-.994zM88.246 122.255l-.017.961h-.695v-.961zM87.534 122.255v.961l-.696.016v-.961zM86.838 122.271v.961h-.695v-.961zM85.43 122.288v.961l-.695.016v-.96zM84.735 122.305v.96h-.713v-.96zM82.598 122.321v.977h-.712v-.96zM81.886 122.338v.96l-.712.017v-.977zM78.308 122.387v.961l-.728.017v-.978zM75.393 122.421v.977l-.728.016v-.993z"/><path fill="#231815" d="M74.665 122.421v.993h-.73v-.977zM73.207 122.454v.977l-.745.016v-.993z"/><path fill="#231815" d="M72.462 122.454v.993h-.729v-.977zM70.242 122.487l.017.994h-.745v-.978zM68.768 122.503v.994l-.745.017v-.994zM88.925 123.199v.961h-.696v-.944zM86.838 123.232v.961h-.712l.016-.961z"/><path fill="#231815" d="m86.143 123.232-.017.961-.696.016v-.96zM84.023 123.265v.961l-.713.017v-.961zM80.462 123.315v.977l-.713.017v-.977zM79.02 123.348v.961l-.712.016v-.977z"/><path fill="#231815" d="M78.308 123.348v.977l-.728.017v-.977zM74.665 123.414v.978h-.73v-.978z"/><path fill="#231815" d="M73.936 123.414v.978l-.729.016v-.977zM73.207 123.431v.977l-.745.017v-.978z"/><path fill="#231815" d="M72.462 123.447v.978l-.729.016v-.994zM71.733 123.447v.994h-.745v-.977zM70.259 123.481v.977l-.745.016v-.993zM68.768 123.497v.994h-.745v-.977zM88.925 124.16v.944l-.696.016v-.96zM87.534 124.176v.961h-.696v-.944zM86.838 124.193v.944l-.712.016v-.96zM85.43 124.209v.961l-.712.017v-.961zM84.718 124.226v.961l-.696.016v-.977zM83.31 124.242v.961l-.712.017v-.961zM82.598 124.259v.961l-.712.016v-.96zM80.462 124.292v.961l-.73.016.017-.96z"/><path fill="#231815" d="m79.75 124.309-.017.96-.712.017v-.977zM76.122 124.358v.978l-.729.016v-.977zM74.665 124.392v.977l-.73.016v-.993zM70.988 124.441v.994l-.73.017v-.994zM88.925 125.104v.96l-.696.017v-.961zM87.534 125.137v.944l-.712.017.016-.961zM83.31 125.203v.961l-.712.016v-.96zM82.598 125.22v.96l-.712.017v-.961zM81.886 125.236v.961l-.712.017v-.961zM78.308 125.303l-.016.96-.712.017v-.961z"/><path fill="#231815" d="M76.122 125.336v.977l-.729.016v-.977zM75.393 125.352v.978l-.728.016v-.977zM74.665 125.369v.977l-.73.017v-.978z"/><path fill="#231815" d="M73.936 125.385v.978l-.729.016v-.994zM71.733 125.418v.978l-.745.016v-.977zM70.259 125.452v.977l-.745.016v-.993zM69.514 125.452v.993l-.746.017v-.994zM88.925 126.064v.945l-.696.016v-.944z"/><path fill="#231815" d="M88.23 126.081v.944l-.713.017.017-.961z"/><path fill="#231815" d="m87.534 126.081-.017.961-.695.016v-.96zM85.43 126.131v.96l-.712.017v-.961zM84.718 126.147v.961l-.712.017v-.961zM83.31 126.164v.977h-.712v-.961zM81.174 126.214v.96l-.713.017v-.961z"/><path fill="#231815" d="M80.462 126.23v.961l-.73.016v-.96z"/><path fill="#231815" d="M79.733 126.247v.96l-.712.017v-.961zM79.02 126.263v.961l-.728.016v-.977zM78.292 126.263v.977l-.712.017v-.977zM77.58 126.28v.977l-.73.017v-.978zM75.393 126.329v.978l-.728.016v-.977zM73.936 126.363v.977l-.729.016v-.977zM73.207 126.379v.977l-.745.017v-.994zM70.988 126.412v.994l-.73.017v-.994zM68.768 126.462v.977l-.745.017v-.977zM88.925 127.009l-.016.96-.696.017.016-.961z"/><path fill="#231815" d="m88.23 127.025-.017.961-.696.016v-.96zM87.517 127.042v.96l-.695.017v-.961zM86.822 127.058v.961l-.696.016v-.96zM85.43 127.091l-.016.961-.696.017v-.961zM83.31 127.141l-.016.961-.696.016v-.977zM81.174 127.174v.977l-.729.017.017-.977zM79.733 127.207v.978l-.712.016v-.977zM78.292 127.24v.978l-.712.016v-.977zM75.393 127.307v.977l-.728.017v-.978zM72.462 127.373v.977l-.729.017v-.977zM71.733 127.39v.977l-.745.016v-.977zM70.988 127.406v.977l-.73.017v-.977z"/><path fill="#231815" d="M70.259 127.423v.977l-.745.017v-.994zM88.909 127.969v.944l-.696.017v-.944zM88.213 127.986v.944l-.696.017v-.945zM87.517 128.002v.945l-.695.016v-.944zM86.822 128.019v.944l-.696.033v-.961zM86.126 128.036v.96l-.712.017v-.961zM85.414 128.052v.961l-.696.016v-.96zM84.718 128.069v.96l-.712.017v-.961zM84.006 128.085v.961l-.712.016v-.96zM81.886 128.135v.961l-.712.016v-.961zM80.445 128.168v.961l-.712.016v-.96zM79.02 128.201v.961l-.728.016v-.96zM78.292 128.218v.96l-.712.017v-.961zM77.58 128.234v.961l-.73.017v-.961zM76.85 128.251v.961l-.728.033v-.978zM74.665 128.301v.977l-.73.016v-.977z"/><path fill="#231815" d="M73.936 128.317v.977l-.729.017v-.977zM73.207 128.334v.977l-.729.016-.016-.977z"/><path fill="#231815" d="m72.462 128.35.016.977-.745.017v-.977zM71.733 128.367v.977l-.745.017v-.978zM70.988 128.383v.978l-.73.016v-.977z"/><path fill="#231815" d="M70.259 128.4v.977l-.745.017v-.978zM69.514 128.417v.977l-.746.033v-.994zM83.294 129.062v.961l-.712.017.016-.961z"/><path fill="#231815" d="m82.598 129.079-.016.961-.713.016.017-.96zM81.174 129.112l-.017.961-.712.016v-.96zM79.733 129.145v.978l-.712.016v-.977zM79.02 129.162v.977l-.728.017v-.978zM78.292 129.178v.978l-.712.016v-.977zM76.122 129.245v.96l-.729.017v-.961zM74.665 129.278v.977l-.73.017v-.978zM71.733 129.344v.977l-.745.033v-.993zM70.988 129.361v.993l-.73.017v-.994zM88.909 129.874v.944l-.696.017v-.944zM88.213 129.891v.944l-.696.033v-.961zM87.517 129.907v.961l-.695.016v-.96zM86.822 129.924v.96l-.713.017v-.961z"/><path fill="#231815" d="M86.11 129.94v.961l-.696.017v-.961zM85.414 129.957v.961l-.712.016.016-.944z"/><path fill="#231815" d="m84.718 129.99-.016.944-.696.033v-.96zM81.157 130.073v.961l-.712.033v-.978zM80.445 130.089v.978l-.712.016v-.961zM78.292 130.156v.96l-.712.033v-.977zM77.58 130.172v.977l-.73.017v-.977zM76.85 130.189v.977l-.728.017v-.978zM75.393 130.222v.977l-.728.033v-.977zM74.665 130.255v.977l-.73.017v-.977zM73.207 130.288v.977l-.729.017v-.977zM71.733 130.321v.994l-.729.017-.016-.978zM70.988 130.354l.016.978-.745.016v-.977zM88.909 130.818v.961l-.696.016v-.96z"/><path fill="#231815" d="M84.702 130.934v.961l-.696.033v-.961zM82.582 131v.961l-.713.017v-.961z"/><path fill="#231815" d="M81.87 131.017v.961l-.713.033v-.977zM77.58 131.149v.961l-.73.017v-.961zM76.85 131.166v.961l-.728.033v-.977zM75.393 131.199v.977l-.728.017v-.961zM74.665 131.232v.961l-.73.033v-.977zM71.733 131.315v.977l-.729.017v-.977zM69.514 131.365v.994l-.746.016v-.977zM68.768 131.398v.977l-.745.017v-.977zM88.909 131.779l-.017.944-.696.016.017-.944zM87.517 131.812l-.016.961-.696.016v-.944z"/><path fill="#231815" d="M86.805 131.845v.944l-.696.017v-.944z"/><path fill="#231815" d="M86.11 131.862v.944l-.696.033v-.961zM84.702 131.895v.96l-.696.017v-.944zM83.294 131.944v.961l-.712.017v-.961zM82.582 131.961v.961l-.713.033v-.977zM81.157 132.011v.96l-.712.017v-.961zM80.445 132.027v.961l-.712.033v-.977zM79.02 132.077l-.016.961-.712.016v-.96z"/><path fill="#231815" d="M78.292 132.094v.96l-.729.033.017-.977z"/><path fill="#231815" d="m77.58 132.11-.017.977-.712.017v-.977zM75.393 132.176v.978l-.728.016v-.977zM74.665 132.193v.977l-.73.033v-.977z"/><path fill="#231815" d="M73.936 132.226v.977l-.729.017v-.977zM73.207 132.243v.977l-.729.016v-.977zM72.478 132.259v.977l-.745.034v-.978z"/><path fill="#231815" d="M71.733 132.292v.978l-.729.016v-.977zM71.004 132.309v.977l-.745.033v-.994zM68.768 132.375v.994l-.745.016v-.993zM88.892 132.723v.961l-.696.016v-.96zM87.5 132.773v.944l-.695.033v-.961zM86.805 132.789v.961l-.696.016v-.96z"/><path fill="#231815" d="M86.11 132.806v.96l-.713.034.017-.961zM84.702 132.855v.961l-.713.017.017-.961zM83.294 132.905v.961l-.712.016v-.96zM81.157 132.971v.961l-.712.033v-.977zM79.004 133.038v.96l-.712.034v-.978zM78.292 133.054v.977l-.729.017v-.961zM77.563 133.087v.961l-.712.033v-.977zM76.85 133.104v.977l-.728.017v-.977zM76.122 133.12v.978l-.729.033v-.977zM74.665 133.17v.977l-.73.034v-.978z"/><path fill="#231815" d="M73.936 133.203v.978l-.729.016v-.977zM72.478 133.236v.994l-.745.017v-.977zM69.514 133.336v.977l-.746.033v-.977zM68.768 133.369v.977l-.745.017v-.978zM88.892 133.684v.944l-.696.016v-.944zM87.5 133.717v.96l-.695.017v-.944zM86.805 133.75v.944l-.696.033v-.961z"/><path fill="#231815" d="M86.11 133.766v.961l-.713.017v-.944zM84.702 133.816v.961l-.713.016v-.96zM82.582 133.882v.961l-.713.033v-.96zM79.733 133.982v.96l-.729.034v-.978zM79.004 133.998v.978l-.712.016v-.96zM78.292 134.031v.961l-.729.033v-.977zM76.85 134.081v.961l-.728.033v-.977zM72.478 134.23v.977l-.745.017v-.977z"/><path fill="#231815" d="M71.733 134.247v.977l-.729.033v-.994zM70.259 134.297v.977l-.745.033v-.994zM69.514 134.313v.994l-.746.016v-.977zM68.768 134.346v.977l-.745.034v-.994zM88.892 134.628v.944l-.696.033v-.961zM84.702 134.777v.961l-.713.016v-.961zM83.294 134.827l-.017.96-.695.017v-.961zM81.157 134.893v.96l-.712.034v-.961zM78.292 134.992v.977l-.729.017v-.961zM76.122 135.075v.961l-.729.033v-.977zM73.207 135.174v.978l-.729.033v-.977z"/><path fill="#231815" d="M72.478 135.208v.977l-.745.016v-.977zM71.004 135.257v.977l-.745.017v-.977zM70.259 135.274v.977l-.745.033v-.977zM68.768 135.323v.994l-.745.017v-.977zM88.892 135.572v.961l-.696.016v-.944zM88.196 135.605v.944l-.695.033v-.96zM87.5 135.622v.96l-.695.017v-.944zM86.805 135.655v.944l-.712.033v-.961zM86.093 135.671v.961l-.696.033v-.961zM85.397 135.704v.961l-.695.017v-.944zM84.702 135.738v.944l-.713.033v-.961zM83.277 135.787v.961l-.695.016v-.96zM82.582 135.804v.961l-.713.033v-.961z"/><path fill="#231815" d="M81.87 135.837v.961l-.713.016v-.961zM80.445 135.887v.96l-.729.033.017-.977z"/><path fill="#231815" d="m79.733 135.903-.017.977-.712.017v-.961zM76.122 136.036v.977l-.729.033v-.977zM75.393 136.069v.977l-.728.017v-.961zM74.665 136.102v.961l-.73.033v-.978z"/><path fill="#231815" d="M73.936 136.119v.977l-.729.033v-.977zM73.207 136.152v.977l-.729.016v-.96zM71.733 136.201v.978l-.729.033v-.978zM71.004 136.234v.978l-.745.033v-.994z"/><path fill="#fff" stroke="#000" stroke-linecap="round" stroke-miterlimit="10" stroke-width=".5" d="M95.6 120.698s-2.302-.431-2.733 1.988c-.43 2.418-.364 5.399 1.043 7.188 0 0 1.342 1.507 2.17.497 0 0 .613-1.143.994-2.253.38-1.109 1.209-6.277-1.474-7.42Z"/><path fill="#fff" d="M96.08 130.371s-1.143-.547-1.987-.53-1.243 1.077-1.425 2.037c-.182.961-.364 2.385-.232 3.628.133 1.242.431 2.203.944 2.931.514.729 1.624.746 1.872.679"/><path stroke="#000" stroke-linecap="round" stroke-miterlimit="10" stroke-width=".5" d="M96.08 130.371s-1.143-.547-1.987-.53-1.243 1.077-1.425 2.037c-.182.961-.364 2.385-.232 3.628.133 1.242.431 2.203.944 2.931.514.729 1.624.746 1.872.679"/><path fill="#fff" d="M94.722 142.115s-2.054-.431-2.236 2.368.232 3.909.513 4.406 1.243 1.193 1.243 1.193"/><path stroke="#000" stroke-linecap="round" stroke-miterlimit="10" stroke-width=".5" d="M94.722 142.115s-2.054-.431-2.236 2.368.232 3.909.513 4.406 1.243 1.193 1.243 1.193"/></g><g opacity=".18"><path fill="#231815" d="m52.14 71.455 52.983 3.61v104.798l-53.033 4.29z"/><path fill="#000" d="m52.553 71.902 52.14 3.545v104.035l-52.206 4.24.066-111.803m-.811-.895v.878l-.066 111.803v.895l.894-.066 52.206-4.241.761-.066V74.668l-.778-.05-52.14-3.544-.877-.066z"/></g><path fill="#efefef" d="m61.116 102.462 35.362 1.325a2.526 2.526 0 0 1 2.418 2.501v32.729c0 1.325-1.093 2.452-2.418 2.501l-35.362 1.325c-1.54.05-2.799-1.06-2.799-2.501v-35.379c0-1.441 1.259-2.551 2.8-2.501"/><path stroke="#fff" stroke-linecap="round" stroke-linejoin="round" stroke-width=".33" d="m63.468 104.366-2.07-.066c-.613-.016-1.11.431-1.11.994v1.938M94.39 105.427l1.823.066c.53.016.977.464.977.994v1.805M63.468 140.922l-2.07.066c-.613.017-1.11-.43-1.11-.993v-1.938M94.39 139.862l1.823-.066c.53-.017.977-.464.977-.994v-1.805"/><path fill="#000" d="m104.709 75.447-52.156-3.545v13.797l52.156 1.905zM104.709 179.482l-52.205 4.223-.017-25.242 52.222-2.203z" opacity=".6"/><mask id="c" width="41" height="41" x="58" y="102" maskUnits="userSpaceOnUse" style="mask-type:luminance"><path fill="#fff" d="m61.116 102.462 35.362 1.325a2.526 2.526 0 0 1 2.418 2.501v32.729c0 1.325-1.093 2.452-2.418 2.501l-35.362 1.325c-1.54.05-2.799-1.06-2.799-2.501v-35.379c0-1.441 1.259-2.551 2.8-2.501"/></mask><g mask="url(#c)"><path fill="#fff" stroke="#000" stroke-miterlimit="10" stroke-width=".5" d="M46.458 163.697s.911-1.342 1.474-2.485c.564-1.143 1.176-3.379 1.292-4.422.116-1.044.795-6.559 1.027-8.365.232-1.805.745-5.731.762-6.973s.298-3.296.464-4.455.546-6.874.63-8.481c.082-1.607.231-4.422.397-5.4.165-.977.182-1.308.729-2.103s3.71-4.274 3.908-4.323c.199-.05.53-.133.596-.332.067-.198 2.419-5.085 3.611-5.747 1.193-.663 1.706 1.01 1.839 1.457.132.448.298 3.363.265 4.324s-.133 2.716-.116 3.428c.016.712-.066 2.286-.182 2.65-.116.365-.994 2.402-2.866 3.81 0 0 .596 1.342.646 2.932s-.182 3.76.1 4.82c0 0 1.325-.282 2.616-.1s1.59 2.253 3.744 1.69 24.181-20.456 24.181-20.456 1.59-2.998 4.207-1.971 1.656 4.157 1.49 4.77-1.656 2.716-1.656 2.716 1.524.481 1.822 2.8-.198 5.018-1.341 6.874c0 0 1.855 2.136 1.391 5.681s-2.733 6.062-2.733 6.062 1.888.166 2.402 4.803c.497 4.638-4.837 9.061-4.837 9.061s-10.4 11.992-13.051 15.321-6.029 6.36-7.486 7.503c-1.458 1.143-2.982 2.054-5.4 3.429s-3.76 1.524-3.76 1.524-2.517 3.693-3.577 5.466c-1.06 1.772-6.393 10.286-6.393 10.286l-3.975.463s-2.07-.944-2.07-2.782l-.1-33.492z"/><path stroke="#000" stroke-miterlimit="10" stroke-width=".25" d="M57.572 116.541s.149.546.811.182c.663-.365 1.706-2.054 2.12-2.833.415-.778 1.143-2.517.53-3.014"/><path fill="#221e1f" d="M57.34 125.882c.066-.116.248.1 1.441.365 1.21.099 1.458-.05 1.49.066.034.017-.148.447-1.54.348-.695-.1-1.043-.365-1.209-.497-.165-.166-.182-.232-.165-.265z"/><path stroke="#000" stroke-linecap="round" stroke-miterlimit="10" stroke-width=".25" d="M60.901 133.866s-.033 1.574 1.093 2.567"/><path fill="#221e1f" d="M53.282 143.291s.166-.116.812-.216c.613-.182 1.788-.364 3.362-1.49 1.54-1.16 2.203-2.137 2.617-2.634.397-.53.513-.663.546-.646.034 0 0 .199-.314.795-.348.563-.977 1.623-2.6 2.832-1.657 1.176-2.916 1.326-3.578 1.425-.68.033-.861 0-.861-.05zM63.17 143.125c-.083 0-.166-.282-.646-1.988-.497-1.706-.497-2.037-.414-2.07.066-.017.315.232.812 1.954.497 1.723.33 2.121.248 2.104"/><path fill="#fff" d="M92.966 162.107c0 3.097-2.517 5.896-5.598 6.194l-18.12 1.839c-3.08.315-5.63-1.971-5.664-5.068l-.712-76.259a5.35 5.35 0 0 1 5.582-5.433l18.881.68c3.097.116 5.631 2.733 5.631 5.83z"/><path stroke="#000" stroke-miterlimit="10" stroke-width=".5" d="M92.966 162.107c0 3.097-2.517 5.896-5.598 6.194l-18.12 1.839c-3.08.315-5.63-1.971-5.664-5.068l-.712-76.259a5.35 5.35 0 0 1 5.582-5.433l18.881.68c3.097.116 5.631 2.733 5.631 5.83z"/><path fill="#fff" d="M91.906 160.699c0 2.153-1.755 4.108-3.908 4.323L68.8 166.927c-2.153.215-3.925-1.375-3.942-3.545l-.679-74.204a3.744 3.744 0 0 1 3.893-3.793l19.891.662c2.154.067 3.926 1.905 3.926 4.058V160.7z"/><path stroke="#000" stroke-miterlimit="10" stroke-width=".25" d="M91.906 160.699c0 2.153-1.755 4.108-3.908 4.323L68.8 166.927c-2.153.215-3.925-1.375-3.942-3.545l-.679-74.204a3.744 3.744 0 0 1 3.893-3.793l19.891.662c2.154.067 3.926 1.905 3.926 4.058V160.7z"/><path fill="#fff" stroke="#000" stroke-miterlimit="10" stroke-width=".25" d="M63.203 112.069a.55.55 0 0 1-.546-.547v-7.47c0-.298.248-.53.546-.514.298 0 .547.249.547.547v7.47c0 .298-.249.53-.547.53z"/><path fill="#231815" d="M88.975 108.822v.961h-.696v-.961z"/><path fill="#231815" d="M88.28 108.822v.961h-.697v-.961z"/><path fill="#231815" d="M87.584 108.822v.961l-.713-.017.017-.961z"/><path fill="#231815" d="m86.888 108.805-.017.961h-.695v-.961zM86.176 108.806v.96h-.713v-.977z"/><path fill="#231815" d="M85.464 108.789v.977l-.696-.016v-.961zM84.768 108.789v.961h-.712v-.978zM83.344 108.772v.961h-.713v-.977zM82.631 108.756v.977h-.712v-.977z"/><path fill="#231815" d="M81.92 108.756v.977l-.713-.017v-.977zM79.766 108.739v.977l-.729-.016v-.977zM79.037 108.723v.977h-.712v-.977zM76.139 108.689v.994l-.73-.016v-.978zM74.681 108.673v.994l-.745-.017v-.977zM73.207 108.656v.994h-.745v-.994z"/><path fill="#231815" d="M72.462 108.656v.994l-.729-.016v-.994zM71.733 108.64v.994h-.745v-.994zM70.988 108.64v.994l-.746-.017v-.994zM70.242 108.623v.994h-.745v-.994zM69.497 108.623v.994h-.745v-.994zM68.752 108.623v.994l-.746-.017v-.993zM88.975 109.783v.96h-.696v-.96zM84.768 109.75l-.017.977-.695-.017v-.96zM80.478 109.716v.978l-.712-.017v-.961zM77.596 109.683v.978h-.729v-.978zM76.867 109.683v.978h-.728v-.978zM75.41 109.667v.994l-.729-.017v-.977zM73.207 109.65v.994l-.745-.017v-.977z"/><path fill="#231815" d="M68.752 109.617v.994l-.746-.017v-.994zM88.975 110.743v.961h-.696v-.961zM87.584 110.743l-.017.961h-.696v-.961zM86.871 110.743v.961l-.695-.017v-.96zM86.176 110.727v.96h-.713v-.96zM84.751 110.727v.96h-.695v-.977zM82.631 110.71v.961h-.712v-.977zM81.19 110.694v.977h-.712v-.977zM79.766 110.677v.977h-.729v-.977zM79.037 110.677v.977h-.729l.017-.977zM76.139 110.661v.977h-.73v-.977zM73.207 110.644v.977h-.745v-.994zM71.733 110.627v.994l-.745-.016v-.978zM70.988 110.627v.978h-.746v-.994zM70.242 110.611v.994h-.745v-.994z"/><path fill="#231815" d="M68.752 110.611v.994l-.746-.017v-.994zM88.275 111.697l-.004.961.696.003.003-.961zM86.881 111.708l-.003.961.696.002.003-.961zM86.152 111.688l-.003.961.695.002.003-.961z"/><path fill="#231815" d="m85.456 111.685-.003.961.712.002.003-.961zM84.751 111.688v.96h-.712l.017-.96zM82.631 111.671v.977h-.728l.016-.977zM81.19 111.671v.977l-.712-.016v-.961zM80.478 111.671v.961h-.712v-.978z"/><path fill="#231815" d="M79.766 111.654v.978h-.729v-.978zM78.308 111.654v.978h-.712v-.978zM77.596 111.654v.978h-.729v-.994zM76.867 111.638v.994l-.728-.017v-.977zM74.681 111.638v.977h-.745v-.994zM73.207 111.621v.994h-.745v-.994zM71.733 111.621v.977h-.745v-.993zM70.988 111.605v.993h-.746v-.993zM70.242 111.605v.993h-.745v-.993zM68.752 111.605v.994l-.746-.017v-.994zM88.275 112.678l-.004.961.696.002.003-.96zM86.865 112.655l-.003.961.695.002.003-.961zM86.168 112.668l-.003.961.696.002.003-.96zM85.456 112.649l-.003.96.712.002.003-.96zM84.046 112.662l-.003.961.712.002.003-.961zM81.927 112.636l-.003.977.713.002.002-.977zM81.182 112.649l-.002.978.712.001.002-.977z"/><path fill="#231815" d="m79.76 112.627-.002.977.713.001.001-.977z"/><path fill="#231815" d="m79.033 112.623-.002.978.729.001.001-.978z"/><path fill="#231815" d="m78.322 112.62-.001.978.729.001.001-.978zM76.867 112.632v.977h-.728v-.994zM76.139 112.615v.994l-.73-.017v-.977z"/><path fill="#231815" d="M75.41 112.615v.977h-.729v-.977zM73.207 112.615v.977h-.745v-.977zM71.733 112.599v.993h-.745v-.993zM70.988 112.599v.993h-.746v-.993zM70.242 112.599v.993h-.745v-.993zM68.752 112.598v.994h-.746v-1.01zM88.958 113.625v.961h-.695v-.961zM84.046 113.642l-.003.961.712.001.003-.96zM81.91 113.599l-.002.977.712.002.002-.978z"/><path fill="#231815" d="m81.199 113.612-.002.977.712.002.002-.978zM80.47 113.609v.977l.711.001.002-.977zM78.322 113.599l-.001.977.729.001.001-.977zM77.596 113.609h-.729v.977h.73zM76.139 113.609h-.73v.977h.73zM73.207 113.592h-.745v.994h.745zM68.752 113.592v.994h-.746v-.994zM88.958 114.586v.961h-.695v-.961zM88.263 114.586v.961h-.696v-.961zM87.567 114.586v.961h-.712l.016-.961z"/><path fill="#231815" d="m86.871 114.586-.016.961h-.696v-.961z"/><path fill="#231815" d="M86.16 114.586v.961h-.713l.016-.961z"/><path fill="#231815" d="m85.464 114.586-.017.961h-.696v-.961zM84.751 114.586v.961h-.712v-.961zM83.327 114.586v.961h-.712v-.961zM81.903 114.586v.961l-.713.016v-.977zM80.478 114.586v.977h-.729v-.977zM78.306 114.561l-.001.977.728.001.001-.977zM77.596 114.586h-.729v.977h.73zM76.139 114.586h-.73v.977h.73zM74.665 114.586h-.73v.977h.73zM73.19 114.586h-.728v.977h.728z"/><path fill="#231815" d="M72.478 114.586h-.745v.994h.745z"/><path fill="#231815" d="M71.733 114.586h-.745v.994h.745zM70.988 114.586h-.746v.994h.746zM70.242 114.586h-.745v.994h.745zM69.497 114.586h-.745v.994h.745zM68.752 114.586h-.746v.994h.746zM83.327 115.547v.977h-.712v-.977zM81.903 115.547v.977h-.713v-.961zM79.75 115.563v.961l-.713.017v-.978zM79.037 115.563v.978h-.729v-.978zM77.58 115.563v.978h-.713v-.978zM88.958 116.507v.961h-.695v-.961zM88.263 116.507v.961h-.713l.017-.961zM86.855 116.507v.961h-.696v-.961z"/><path fill="#231815" d="M86.16 116.507v.961l-.713.017v-.978zM84.751 116.524l-.016.961h-.696v-.961zM80.478 116.524l-.016.977h-.713v-.977zM79.037 116.541v.96l-.729.017v-.977zM78.308 116.541v.977h-.728v-.977zM76.867 116.541v.977h-.728v-.977zM73.207 116.557v.977h-.745v-.977zM68.752 116.557v.994h-.746v-.977zM88.263 117.468l-.017.961h-.696v-.961z"/><path fill="#231815" d="M84.04 117.485v.96l-.713.017v-.977zM83.327 117.485v.977h-.712v-.977zM81.19 117.501v.961l-.728.016v-.977zM79.75 117.501v.977h-.713v-.977zM79.037 117.501v.977h-.729v-.96zM78.308 117.518v.961l-.728.016v-.977zM76.867 117.518v.977h-.728v-.977zM76.139 117.518v.977l-.73.017v-.994z"/><path fill="#231815" d="M75.41 117.518v.994h-.745v-.978zM73.936 117.534v.978h-.729v-.978zM72.462 117.534v.994h-.729v-.994zM71.733 117.534v.994h-.745v-.977zM70.242 117.551v.994h-.745v-.994zM69.497 117.551v.994h-.745v-.994zM88.246 118.429v.944l-.696.017v-.961zM87.55 118.429v.961h-.695v-.961zM86.855 118.429v.961h-.713v-.961zM85.447 118.445v.961h-.712v-.961zM84.735 118.445v.961h-.713l.017-.961z"/><path fill="#231815" d="m84.04 118.445-.018.961-.695.017v-.961zM83.327 118.462v.961h-.712v-.961zM82.615 118.462v.961l-.712.016v-.977zM81.19 118.462v.977h-.728v-.961zM79.75 118.479v.977h-.73l.017-.977zM78.308 118.479v.977l-.728.016v-.977zM77.58 118.495v.977h-.73l.017-.977zM73.936 118.512v.977l-.729.016v-.993zM72.462 118.528v.977h-.729v-.977zM70.242 118.545v.977l-.745.017v-.994zM86.143 119.39v.96l-.696.017v-.961zM85.447 119.406v.961h-.712v-.961zM84.023 119.406v.977h-.696v-.96z"/><path fill="#231815" d="M81.903 119.439v.961h-.73l.017-.961zM80.462 119.439v.977h-.713v-.96zM79.02 119.456v.977h-.712v-.977zM76.85 119.472v.978h-.711v-.978zM73.936 119.489v.994h-.729v-.978zM70.988 119.522v.977l-.746.017v-.994zM68.752 119.539v.993h-.746v-.993zM88.942 120.334v.96h-.696v-.96zM87.55 120.35v.961h-.712v-.961zM86.838 120.35v.961h-.695v-.961zM85.447 120.367l-.017.96h-.695v-.96zM84.735 120.367v.96l-.713.017v-.961z"/><path fill="#231815" d="M84.023 120.383v.961h-.713l.017-.961z"/><path fill="#231815" d="m83.327 120.383-.017.961-.712.017.017-.961z"/><path fill="#231815" d="m82.615 120.4-.017.961h-.712l.017-.961z"/><path fill="#231815" d="m81.903 120.4-.017.961-.712.016v-.977zM81.174 120.4v.977h-.713v-.961z"/><path fill="#231815" d="M80.462 120.417v.96l-.713.017v-.977zM78.308 120.433v.977h-.728v-.96zM74.665 120.466v.977l-.73.017v-.977zM73.207 120.483v.977l-.745.016v-.993z"/><path fill="#231815" d="M72.462 120.483v.993h-.729v-.977zM68.752 120.532l.016.978-.762.016v-.994zM86.838 121.311v.961h-.695v-.961zM86.143 121.311v.961l-.713.016v-.961zM85.43 121.327v.961l-.695.017v-.978zM84.023 121.344v.961l-.713.016v-.977zM82.598 121.361v.96l-.712.017v-.977zM81.174 121.377v.961l-.713.016v-.977zM79.75 121.394v.96l-.73.017v-.977zM79.02 121.394v.977l-.712.016v-.977z"/><path fill="#231815" d="M78.308 121.41v.978h-.728v-.978zM77.58 121.41v.978l-.73.016v-.977zM76.85 121.427v.977h-.728v-.977zM76.122 121.427v.977l-.729.017v-.978zM73.936 121.46v.977l-.729.017v-.994zM73.207 121.46v.994h-.745v-.977zM71.733 121.477v.993h-.745v-.977zM70.988 121.493v.977l-.746.017v-.994zM70.242 121.493v.994l-.728.016v-.993zM69.514 121.51v.993h-.746v-.993zM68.768 121.51v.993l-.745.017-.017-.994zM88.246 122.255l-.017.961h-.695v-.961zM87.534 122.255v.961l-.696.016v-.96zM86.838 122.272v.96h-.695v-.96zM85.43 122.288v.961l-.695.016v-.96zM84.735 122.305v.96h-.713v-.96zM82.598 122.321v.978h-.712v-.961zM81.886 122.338v.96l-.712.017v-.977z"/><path fill="#231815" d="M78.308 122.387v.961l-.728.017v-.978zM75.393 122.421v.977l-.728.016v-.993zM74.665 122.421v.993h-.73v-.977zM73.207 122.454v.977l-.745.017v-.994z"/><path fill="#231815" d="M72.462 122.454v.994h-.729v-.978zM70.242 122.487l.017.994h-.745v-.978zM68.768 122.503v.994l-.745.017v-.994zM88.925 123.199v.961h-.696v-.944zM86.838 123.232v.961h-.712l.016-.961z"/><path fill="#231815" d="m86.143 123.232-.017.961-.696.017v-.961zM84.023 123.265v.961l-.713.017v-.961zM80.462 123.315v.977l-.713.017v-.977zM79.02 123.348v.961l-.712.016v-.977z"/><path fill="#231815" d="M78.308 123.348v.977l-.728.017v-.977zM74.665 123.414v.978h-.73v-.978z"/><path fill="#231815" d="M73.936 123.414v.978l-.729.016v-.977zM73.207 123.431v.977l-.745.017v-.977z"/><path fill="#231815" d="M72.462 123.448v.977l-.729.016v-.993zM71.733 123.448v.993h-.745v-.977zM70.259 123.481v.977l-.745.017v-.994zM68.768 123.497v.994h-.745v-.977zM88.925 124.16v.944l-.696.016v-.96zM87.534 124.176v.961h-.696v-.944zM86.838 124.193v.944l-.712.017v-.961zM85.43 124.209v.961l-.712.017v-.961zM84.718 124.226v.961l-.696.016v-.977zM83.31 124.243v.96l-.712.017v-.961zM82.598 124.259v.961l-.712.016v-.96zM80.462 124.292v.961l-.73.017.017-.961z"/><path fill="#231815" d="m79.75 124.309-.017.961-.712.016v-.977zM76.122 124.359v.977l-.729.016v-.977zM74.665 124.392v.977l-.73.017v-.994zM70.988 124.441v.994l-.73.017v-.994zM88.925 125.104v.961l-.696.016v-.961zM87.534 125.137v.944l-.712.017.016-.961zM83.31 125.203v.961l-.712.016v-.96zM82.598 125.22v.961l-.712.016v-.961zM81.886 125.236v.961l-.712.017v-.961zM78.308 125.303l-.016.96-.712.017v-.961z"/><path fill="#231815" d="M76.122 125.336v.977l-.729.017v-.978zM75.393 125.352v.978l-.728.016v-.977zM74.665 125.369v.977l-.73.017v-.978z"/><path fill="#231815" d="M73.936 125.385v.978l-.729.016v-.994zM71.733 125.419v.977l-.745.016v-.977zM70.259 125.452v.977l-.745.017v-.994zM69.514 125.452v.994l-.746.016v-.994zM88.925 126.065v.944l-.696.016v-.944z"/><path fill="#231815" d="M88.23 126.081v.944l-.713.017.017-.961z"/><path fill="#231815" d="m87.534 126.081-.017.961-.695.016v-.96zM85.43 126.131v.961l-.712.016v-.961zM84.718 126.147v.961l-.712.017v-.961zM83.31 126.164v.977h-.712v-.96zM81.174 126.214v.96l-.713.017v-.961z"/><path fill="#231815" d="M80.462 126.23v.961l-.73.016v-.96z"/><path fill="#231815" d="M79.733 126.247v.961l-.712.016v-.961zM79.02 126.263v.961l-.728.017v-.978zM78.292 126.263v.978l-.712.016v-.977zM77.58 126.28v.977l-.73.017v-.978zM75.393 126.33v.977l-.728.016v-.977zM73.936 126.363v.977l-.729.017v-.978zM73.207 126.379v.978l-.745.016v-.994zM70.988 126.412v.994l-.73.017v-.994zM68.768 126.462v.977l-.745.017v-.977zM88.925 127.009l-.016.96-.696.017.016-.961z"/><path fill="#231815" d="m88.23 127.025-.017.961-.696.017v-.961zM87.517 127.042v.961l-.695.016v-.961zM86.822 127.058v.961l-.696.017v-.961zM85.43 127.092l-.016.96-.696.017v-.961zM83.31 127.141l-.016.961-.696.016v-.977zM81.174 127.174v.978l-.729.016.017-.977zM79.733 127.208v.977l-.712.016v-.977zM78.292 127.241v.977l-.712.016v-.977zM75.393 127.307v.977l-.728.017v-.978zM72.462 127.373v.977l-.729.017v-.977zM71.733 127.39v.977l-.745.016v-.977zM70.988 127.406v.978l-.73.016v-.977z"/><path fill="#231815" d="M70.259 127.423v.977l-.745.017v-.994zM88.909 127.969v.944l-.696.017v-.944zM88.213 127.986v.944l-.696.017v-.944zM87.517 128.003v.944l-.695.016v-.944zM86.822 128.019v.944l-.696.033v-.96zM86.126 128.036v.96l-.712.017v-.961zM85.414 128.052v.961l-.696.016v-.96zM84.718 128.069v.96l-.712.017v-.961zM84.006 128.085v.961l-.712.017v-.961zM81.886 128.135v.961l-.712.016v-.96zM80.445 128.168v.961l-.712.016v-.96zM79.02 128.201v.961l-.728.017v-.961zM78.292 128.218v.961l-.712.016v-.961zM77.58 128.234v.961l-.73.017v-.961zM76.85 128.251v.961l-.728.033v-.977zM74.665 128.301v.977l-.73.016v-.977z"/><path fill="#231815" d="M73.936 128.317v.977l-.729.017v-.977zM73.207 128.334v.977l-.729.017-.016-.978z"/><path fill="#231815" d="m72.462 128.35.016.978-.745.016v-.977zM71.733 128.367v.977l-.745.017v-.977zM70.988 128.384v.977l-.73.016v-.977z"/><path fill="#231815" d="M70.259 128.4v.977l-.745.017v-.977zM69.514 128.417v.977l-.746.033v-.994zM83.294 129.063v.96l-.712.017.016-.961z"/><path fill="#231815" d="m82.598 129.079-.016.961-.713.016.017-.96zM81.174 129.112l-.017.961-.712.017v-.961zM79.733 129.145v.978l-.712.016v-.977zM79.02 129.162v.977l-.728.017v-.977zM78.292 129.178v.978l-.712.016v-.977zM76.122 129.245v.96l-.729.017v-.961zM74.665 129.278v.977l-.73.017v-.977zM71.733 129.344v.977l-.745.033v-.993zM70.988 129.361v.994l-.73.016v-.994zM88.909 129.874v.944l-.696.017v-.944zM88.213 129.891v.944l-.696.033v-.961zM87.517 129.907v.961l-.695.017v-.961zM86.822 129.924v.961l-.713.016v-.961z"/><path fill="#231815" d="M86.11 129.94v.961l-.696.017v-.961zM85.414 129.957v.961l-.712.016.016-.944z"/><path fill="#231815" d="m84.718 129.99-.016.944-.696.033v-.96zM81.157 130.073v.961l-.712.033v-.977zM80.445 130.089v.978l-.712.016v-.96zM78.292 130.156v.96l-.712.034v-.978zM77.58 130.172v.978l-.73.016v-.977zM76.85 130.189v.977l-.728.017v-.978zM75.393 130.222v.977l-.728.033v-.977zM74.665 130.255v.977l-.73.017v-.977zM73.207 130.288v.978l-.729.016v-.977zM71.733 130.321v.994l-.729.017-.016-.977z"/><path fill="#231815" d="m70.988 130.354.016.978-.745.016v-.977zM88.909 130.818v.961l-.696.017v-.961zM84.702 130.934v.961l-.696.033v-.961zM82.582 131v.961l-.713.017v-.961z"/><path fill="#231815" d="M81.87 131.017v.961l-.713.033v-.977zM77.58 131.15v.96l-.73.017v-.961zM76.85 131.166v.961l-.728.033v-.977zM75.393 131.199v.977l-.728.017v-.961zM74.665 131.232v.961l-.73.033v-.977zM71.733 131.315v.977l-.729.017v-.977zM69.514 131.365v.994l-.746.016v-.977zM68.768 131.398v.977l-.745.017v-.977zM88.909 131.779l-.017.944-.696.017.017-.945zM87.517 131.812l-.016.961-.696.016v-.944z"/><path fill="#231815" d="M86.805 131.845v.944l-.696.017v-.944z"/><path fill="#231815" d="M86.11 131.862v.944l-.696.033v-.961zM84.702 131.895v.961l-.696.016v-.944zM83.294 131.945v.96l-.712.017v-.961zM82.582 131.961v.961l-.713.033v-.977zM81.157 132.011v.961l-.712.016v-.961zM80.445 132.027v.961l-.712.033v-.977zM79.02 132.077l-.016.961-.712.016v-.96z"/><path fill="#231815" d="M78.292 132.094v.96l-.729.034.017-.978z"/><path fill="#231815" d="m77.58 132.11-.017.977-.712.017v-.977zM75.393 132.177v.977l-.728.016v-.977zM74.665 132.193v.977l-.73.033v-.977z"/><path fill="#231815" d="M73.936 132.226v.977l-.729.017v-.977zM73.207 132.243v.977l-.729.017v-.978zM72.478 132.259v.978l-.745.033v-.978z"/><path fill="#231815" d="M71.733 132.292v.978l-.729.016v-.977zM71.004 132.309v.977l-.745.033v-.993zM68.768 132.375v.994l-.745.017v-.994zM88.892 132.723v.961l-.696.016v-.96zM87.5 132.773v.944l-.695.033v-.961zM86.805 132.789v.961l-.696.017v-.961z"/><path fill="#231815" d="M86.11 132.806v.961l-.713.033.017-.961zM84.702 132.856v.96l-.713.017.017-.961zM83.294 132.905v.961l-.712.017v-.961zM81.157 132.972v.96l-.712.033v-.977zM79.004 133.038v.961l-.712.033v-.978zM78.292 133.054v.978l-.729.016v-.96zM77.563 133.088v.96l-.712.033v-.977zM76.85 133.104v.977l-.728.017v-.977zM76.122 133.121v.977l-.729.033v-.977zM74.665 133.17v.978l-.73.033v-.978z"/><path fill="#231815" d="M73.936 133.203v.978l-.729.016v-.977zM72.478 133.237v.993l-.745.017v-.977zM69.514 133.336v.977l-.746.033v-.977zM68.768 133.369v.977l-.745.017v-.977zM88.892 133.684v.944l-.696.017v-.945zM87.5 133.717v.961l-.695.016v-.944zM86.805 133.75v.944l-.696.033v-.96z"/><path fill="#231815" d="M86.11 133.767v.96l-.713.017v-.944zM84.702 133.816v.961l-.713.017v-.961zM82.582 133.883v.96l-.713.033v-.96zM79.733 133.982v.961l-.729.033v-.977zM79.004 133.999v.977l-.712.016v-.96zM78.292 134.032v.96l-.729.033v-.977zM76.85 134.081v.961l-.728.033v-.977zM72.478 134.23v.978l-.745.016v-.977z"/><path fill="#231815" d="M71.733 134.247v.977l-.729.033v-.993zM70.259 134.297v.977l-.745.033v-.994zM69.514 134.313v.994l-.746.017v-.978zM68.768 134.346v.978l-.745.033v-.994zM88.892 134.628v.944l-.696.033v-.961zM84.702 134.777v.961l-.713.016v-.96zM83.294 134.827l-.017.96-.695.017v-.961zM81.157 134.893v.961l-.712.033v-.961zM78.292 134.992v.978l-.729.016v-.961zM76.122 135.075v.961l-.729.033v-.977zM73.207 135.175v.977l-.729.033v-.977z"/><path fill="#231815" d="M72.478 135.208v.977l-.745.016v-.977zM71.004 135.257v.978l-.745.016v-.977zM70.259 135.274v.977l-.745.033v-.977zM68.768 135.324v.993l-.745.017v-.977zM88.892 135.572v.961l-.696.016v-.944zM88.196 135.605v.944l-.695.033v-.96zM87.5 135.622v.96l-.695.017v-.944zM86.805 135.655v.944l-.712.033v-.961zM86.093 135.671v.961l-.696.033v-.96zM85.397 135.705v.96l-.695.017v-.944zM84.702 135.738v.944l-.713.033v-.961zM83.277 135.787v.961l-.695.017v-.961zM82.582 135.804v.961l-.713.033v-.961z"/><path fill="#231815" d="M81.87 135.837v.961l-.713.016v-.96zM80.445 135.887v.96l-.729.034.017-.978z"/><path fill="#231815" d="m79.733 135.903-.017.978-.712.016v-.961zM76.122 136.036v.977l-.729.033v-.977zM75.393 136.069v.977l-.728.017v-.961zM74.665 136.102v.961l-.73.033v-.977z"/><path fill="#231815" d="M73.936 136.119v.977l-.729.033v-.977zM73.207 136.152v.977l-.729.017v-.961zM71.733 136.201v.978l-.729.033v-.977zM71.004 136.235v.977l-.745.033v-.994z"/><path fill="#fff" stroke="#000" stroke-linecap="round" stroke-miterlimit="10" stroke-width=".5" d="M95.6 120.698s-2.302-.431-2.733 1.988c-.43 2.418-.364 5.399 1.043 7.188 0 0 1.342 1.507 2.17.497 0 0 .613-1.143.994-2.253.38-1.109 1.209-6.277-1.474-7.42Z"/><path fill="#fff" d="M96.08 130.371s-1.143-.546-1.987-.53-1.243 1.077-1.425 2.037c-.182.961-.364 2.386-.232 3.628.133 1.242.431 2.203.944 2.932.514.728 1.624.745 1.872.679"/><path stroke="#000" stroke-linecap="round" stroke-miterlimit="10" stroke-width=".5" d="M96.08 130.371s-1.143-.546-1.987-.53-1.243 1.077-1.425 2.037c-.182.961-.364 2.386-.232 3.628.133 1.242.431 2.203.944 2.932.514.728 1.624.745 1.872.679"/><path fill="#fff" d="M94.722 142.115s-2.054-.431-2.236 2.368.232 3.909.513 4.406 1.243 1.193 1.243 1.193"/><path stroke="#000" stroke-linecap="round" stroke-miterlimit="10" stroke-width=".5" d="M94.722 142.115s-2.054-.431-2.236 2.368.232 3.909.513 4.406 1.243 1.193 1.243 1.193"/></g><path stroke="#a42444" stroke-linecap="round" stroke-miterlimit="10" stroke-width="1.75" d="M80.246 122.652h2.485"/><path stroke="#a42444" stroke-dasharray="3.25 3.25" stroke-linecap="round" stroke-miterlimit="10" stroke-width="1.75" d="M88.114 122.652h51.112"/><path stroke="#a42444" stroke-linecap="round" stroke-miterlimit="10" stroke-width="1.75" d="M141.909 122.652h2.485"/><path stroke="#a42444" stroke-linecap="round" stroke-miterlimit="10" d="m127.533 122.305 19.047-94.147h32.529"/></g><defs><clipPath id="a"><path fill="#fff" d="M0 0h300v313H0z"/></clipPath></defs></svg>