<svg xmlns="http://www.w3.org/2000/svg" width="1097" height="663" fill="none" viewBox="0 0 1097 663"><path fill="#fff" d="M0 0h1097v663H0z"/><path fill="#000" d="M223.146 105.646a.5.5 0 0 0 0 .708l3.182 3.182a.502.502 0 0 0 .708-.708L224.207 106l2.829-2.828a.502.502 0 0 0-.708-.708zm133.708.708a.5.5 0 0 0 0-.707l-3.182-3.182a.5.5 0 1 0-.708.707l2.829 2.828-2.829 2.829a.5.5 0 0 0 .708.707zM223.5 106v.5h133v-1h-133z"/><path stroke="#000" d="M222.5 102v8M357.5 102v8"/><path fill="#000" d="M192.354 136.646a.5.5 0 0 0-.708 0l-3.182 3.182a.502.502 0 0 0 .708.708l2.828-2.829 2.828 2.829a.502.502 0 0 0 .708-.708zm-.708 408.708a.5.5 0 0 0 .708 0l3.182-3.182a.502.502 0 0 0-.708-.708L192 544.293l-2.828-2.829a.502.502 0 0 0-.708.708zM192 137h-.5v408h1V137z"/><path stroke="#000" d="M188 136h8M188 546h8"/><path fill="#000" d="M516.146 105.646a.5.5 0 0 0 0 .708l3.182 3.182a.502.502 0 0 0 .708-.708L517.207 106l2.829-2.828a.502.502 0 0 0-.708-.708zm75.708.708a.5.5 0 0 0 0-.708l-3.182-3.182a.502.502 0 0 0-.708.708l2.829 2.828-2.829 2.828a.502.502 0 0 0 .708.708zM516.5 106v.5h75v-1h-75z"/><path stroke="#000" d="M515.5 102v8M592.5 102v8"/><path fill="#000" d="M715.951 586.47h12.3v1.02h-12.3zm5.505.63h1.23v5.055h-1.23zm-3.93-7.755h9.15v5.295h-9.15zm7.92 1.005h-6.705v3.3h6.705zm14.654-1.755h1.2v13.575h-1.2zm-5.895 5.55h3.42v1.005h-3.42zm3.075-5.19h1.17v12.525h-1.17zm-2.91 1.365h1.2q0 1.77-.51 3.405a9.1 9.1 0 0 1-1.62 3.03q-1.125 1.395-2.955 2.49l-.72-.9q1.59-.96 2.61-2.16a8.2 8.2 0 0 0 1.5-2.625q.495-1.425.495-3.015zm-4.02 0h4.485v1.02h-4.485zm14.53 9.284a.92.92 0 0 1-.676-.282.92.92 0 0 1-.283-.676q0-.395.283-.677a.92.92 0 0 1 .676-.282q.395 0 .677.282a.92.92 0 0 1 .282.677.9.9 0 0 1-.133.479 1 1 0 0 1-.346.352.9.9 0 0 1-.48.127m0-5.518a.92.92 0 0 1-.676-.282.93.93 0 0 1-.283-.677q0-.394.283-.676a.92.92 0 0 1 .676-.283.92.92 0 0 1 .677.283.92.92 0 0 1 .282.676.9.9 0 0 1-.133.48 1 1 0 0 1-.346.351.9.9 0 0 1-.48.128m11.098 7.063q-1.054 0-1.88-.362-.82-.362-1.305-1.007a2.7 2.7 0 0 1-.522-1.507h1.342q.043.527.363.911.319.378.836.586a3 3 0 0 0 1.145.207q.703 0 1.247-.245.543-.244.852-.682.309-.436.309-1.012a1.9 1.9 0 0 0-.299-1.06q-.298-.463-.873-.724-.576-.261-1.406-.261h-.874v-1.172h.874a2.6 2.6 0 0 0 1.14-.234 1.84 1.84 0 0 0 .772-.661q.282-.426.282-1.001 0-.555-.245-.964a1.67 1.67 0 0 0-.692-.64 2.25 2.25 0 0 0-1.044-.229q-.565 0-1.066.208-.495.202-.809.591a1.54 1.54 0 0 0-.341.927h-1.279a2.6 2.6 0 0 1 .517-1.502 3.25 3.25 0 0 1 1.268-1.012 4.1 4.1 0 0 1 1.731-.362q1.013 0 1.737.41.725.405 1.113 1.071.389.665.389 1.438 0 .921-.485 1.571-.48.65-1.305.9v.086q1.033.17 1.614.879.58.702.581 1.741 0 .89-.485 1.598-.48.703-1.311 1.108-.83.405-1.891.405m9.423 0q-1.204 0-2.05-.655-.848-.66-1.295-1.912-.447-1.257-.447-3.037 0-1.768.447-3.02.453-1.257 1.3-1.917.852-.666 2.045-.666t2.04.666q.853.66 1.3 1.917.453 1.252.453 3.02 0 1.78-.447 3.037-.448 1.251-1.295 1.912-.846.655-2.051.655m0-1.172q1.194 0 1.854-1.15t.661-3.282q0-1.416-.304-2.413-.299-.996-.863-1.518a1.9 1.9 0 0 0-1.348-.522q-1.182 0-1.848 1.167-.666 1.162-.666 3.286 0 1.418.298 2.408.298.991.858 1.508.564.516 1.358.516m13.36 4.262q-.912 0-1.566-.235a3.3 3.3 0 0 1-1.092-.607 3.3 3.3 0 0 1-.687-.799l1.001-.703q.17.223.431.511.261.294.714.506.459.219 1.199.219.99 0 1.635-.48.645-.479.645-1.502v-1.662h-.107a7 7 0 0 1-.394.554q-.25.325-.725.581-.468.25-1.267.25a3.4 3.4 0 0 1-1.779-.469q-.783-.468-1.242-1.363-.452-.895-.452-2.174 0-1.256.442-2.189.442-.937 1.23-1.449.789-.516 1.822-.516.799 0 1.268.266.474.261.724.597.256.33.394.543h.128v-1.3h1.215v8.416q0 1.055-.48 1.716a2.73 2.73 0 0 1-1.278.974 4.8 4.8 0 0 1-1.779.315m-.043-4.496q.757 0 1.279-.346t.793-.996q.272-.65.272-1.556 0-.884-.266-1.561-.267-.676-.789-1.06-.522-.383-1.289-.383-.799 0-1.332.405-.527.405-.793 1.086a4.2 4.2 0 0 0-.261 1.513q0 .852.266 1.508.272.65.799 1.022.533.368 1.321.368m10.547-3.345q0-2.014.522-3.702.527-1.695 1.502-3.116h1.108a7 7 0 0 0-.719 1.299q-.33.767-.581 1.689a16 16 0 0 0-.394 1.896 14 14 0 0 0-.138 1.934q0 1.267.245 2.573.245 1.304.66 2.423t.927 1.822h-1.108a11.6 11.6 0 0 1-1.502-3.111q-.522-1.694-.522-3.707m8.022-.948h1.245v3.225h-1.245zm.615-5.97q1.035 0 1.845.405.81.39 1.275 1.11t.465 1.68q0 .93-.465 1.665a3.17 3.17 0 0 1-1.275 1.125q-.81.39-1.845.39-1.05 0-1.86-.39a3.17 3.17 0 0 1-1.275-1.125 3.05 3.05 0 0 1-.465-1.665q0-.96.465-1.68t1.275-1.11q.81-.405 1.86-.405m0 1.065q-.69 0-1.23.27-.54.255-.855.735-.3.48-.3 1.125 0 .63.3 1.11.315.48.855.75t1.23.27 1.215-.27q.54-.27.84-.75.315-.48.315-1.11a2 2 0 0 0-1.155-1.86q-.525-.27-1.215-.27m5.13-1.95h1.23v13.575h-1.23zm.885 5.595h2.505v1.05h-2.505zm-10.035 5.04-.195-1.035 2.67-.03q1.455-.015 2.94-.105 1.5-.09 2.88-.27l.09.93q-1.425.24-2.91.36-1.485.105-2.895.135-1.395.015-2.58.015m23.683-10.635h1.245v13.59h-1.245zm-2.94 2.955h3.6v1.035h-3.6zm0 3.36h3.6v1.05h-3.6zm-3.48-5.145h1.02v2.43q0 1.125-.285 2.22a9.2 9.2 0 0 1-.795 2.025 7.6 7.6 0 0 1-1.185 1.68q-.675.735-1.485 1.17l-.78-.99q.75-.36 1.38-1.005.645-.645 1.125-1.47.48-.84.735-1.755.27-.93.27-1.875zm.255 0h1.005v2.43q0 .915.255 1.83.27.9.75 1.695t1.11 1.41q.645.615 1.38.975l-.75 1.005a5.8 5.8 0 0 1-1.515-1.125 8.3 8.3 0 0 1-1.185-1.635q-.495-.915-.78-1.98a8.8 8.8 0 0 1-.27-2.175zm14.973-.285h6.33v5.535h-6.33zm5.115.99h-3.9v3.555h3.9zm4.05-1.875h1.245v7.785h-1.245zm-3.69 9.405h1.065v.255q0 .735-.42 1.38-.405.63-1.125 1.155-.72.51-1.65.84a9.6 9.6 0 0 1-1.95.495l-.435-.96a8.7 8.7 0 0 0 2.61-.75q.57-.285.99-.63.435-.345.675-.735a1.5 1.5 0 0 0 .24-.795zm.195 0h1.08v.255q0 .48.36.96t.975.885q.63.39 1.425.675.81.285 1.695.39l-.435.96q-1.035-.15-1.95-.495a6.9 6.9 0 0 1-1.635-.87q-.705-.525-1.11-1.155-.405-.645-.405-1.35zm-4.17-.69h9.225v.96h-9.225zm3.99-1.32h1.26v1.755h-1.26zm13.443-7.185h1.23v1.275h6.57v-1.275h1.23v4.485h-9.03zm1.23 2.22v1.29h6.57v-1.29zm-2.85 3.57h12.255v1.005h-12.255zm5.49-1.77h1.23v2.085h-1.23zm-4.005 3.885h9.195v3.03h-7.95v1.665h-1.215v-2.565h7.95v-1.185h-7.98zm.03 4.335h9.57v.975h-9.57zm13.858-5.13h9.315v1.005h-9.315zm-1.575 3.465h12.3v1.035h-12.3zm1.575-9.615h9.18v1.02h-7.92v5.43h-1.26zm.87 3.015h8.01v1.005h-8.01zm15.573 6.66h12.3v1.05h-12.3zm5.49-3.51h1.23v3.975h-1.23zm-4.41-6.03h10.065v1.02h-10.065zm.03 5.46h10.005v.99h-10.005zm2.07-4.65h1.245v4.815h-1.245zm4.62 0h1.23v4.815h-1.23zm15.284-2.115h1.245v8.175h-1.245zm.9 3.6h2.34v1.05h-2.34zm-8.175 5.34h8.52v4.455h-8.52zm7.29 1.005h-6.075v2.43h6.075zm-9.27-8.505h8.01v1.005h-8.01zm4.005 1.68q.975 0 1.695.3.735.3 1.14.855.405.54.405 1.26 0 .735-.405 1.275t-1.14.84q-.72.3-1.695.3t-1.71-.3q-.72-.3-1.14-.84a2.07 2.07 0 0 1-.405-1.275q0-.72.405-1.26.42-.555 1.14-.855.735-.3 1.71-.3m0 .96q-.93 0-1.5.39-.555.39-.555 1.065t.555 1.08q.57.39 1.5.39.915 0 1.485-.39.57-.405.57-1.08t-.57-1.065q-.555-.39-1.485-.39m-.615-4.185h1.245v2.055h-1.245zm13.464 7.908q0 2.013-.528 3.707a11.4 11.4 0 0 1-1.496 3.111h-1.108q.383-.528.714-1.3.335-.767.585-1.683a15 15 0 0 0 .389-1.902 13.4 13.4 0 0 0-.101-4.506 15 15 0 0 0-.66-2.424q-.416-1.118-.927-1.821h1.108a11.4 11.4 0 0 1 1.496 3.116q.528 1.688.528 3.702M514.484 74.635h9.06v1.02h-9.06zm-1.695 2.79h12.3v1.02h-12.3zm5.505.57h1.23v5.13h-1.23zm-3.81-7.605h8.88v1.02h-7.62v3.72h-1.26zm14.384.84h1.065q0 1.08-.105 2.22-.09 1.125-.345 2.25-.24 1.11-.705 2.19-.45 1.08-1.185 2.07l-.975-.57q.705-.9 1.14-1.875.45-.975.69-1.995.24-1.035.33-2.085.09-1.065.09-2.115zm-1.965 0h2.58v1.02h-2.58zm4.95 0h1.065q0 1.065-.075 2.28-.06 1.215-.285 2.49a13 13 0 0 1-.675 2.505 9.6 9.6 0 0 1-1.275 2.325l-.975-.57q.615-.81 1.02-1.695.42-.9.66-1.83.24-.945.36-1.86.12-.93.15-1.83t.03-1.725zm-1.485 0h2.145v1.02h-2.145zm6.615-1.635h1.2V83.17h-1.2zm-4.695 5.325h2.445v1.035h-2.445zm2.19-4.965h1.17V82.48h-1.17zm7.241 10.65a.92.92 0 0 1-.677-.283.92.92 0 0 1-.282-.676q0-.395.282-.677a.92.92 0 0 1 .677-.282q.393 0 .676.282a.92.92 0 0 1 .282.677.9.9 0 0 1-.133.479 1 1 0 0 1-.346.352.9.9 0 0 1-.479.127m0-5.52a.92.92 0 0 1-.677-.281.92.92 0 0 1-.282-.677q0-.394.282-.676a.92.92 0 0 1 .677-.283q.393 0 .676.283a.92.92 0 0 1 .282.676.9.9 0 0 1-.133.48 1 1 0 0 1-.346.351.9.9 0 0 1-.479.128M549.131 82v-.959l3.601-3.942q.633-.691 1.044-1.203.41-.517.607-.97.202-.458.202-.959 0-.575-.277-.996a1.8 1.8 0 0 0-.745-.65 2.4 2.4 0 0 0-1.066-.229q-.629 0-1.097.261-.464.255-.719.72a2.25 2.25 0 0 0-.251 1.086h-1.257q0-.96.442-1.683.442-.725 1.204-1.13a3.6 3.6 0 0 1 1.721-.404q.958 0 1.699.405t1.161 1.092q.421.687.421 1.528 0 .603-.218 1.177-.213.57-.746 1.274-.528.697-1.465 1.704l-2.45 2.62v.086h5.071V82zm9.423 0 4.879-9.652v-.085h-5.625V71.09h6.989v1.236L559.939 82zm12.468 0v-8.182h1.215v1.279h.106a2.06 2.06 0 0 1 .826-1.018q.57-.367 1.369-.367.81 0 1.347.367.544.362.847 1.018h.086q.313-.635.942-1.007.629-.378 1.508-.378 1.097 0 1.795.687.698.681.698 2.125V82h-1.257v-5.476q0-.905-.496-1.294a1.83 1.83 0 0 0-1.166-.39q-.864 0-1.337.523-.474.516-.474 1.31V82h-1.279v-5.604q0-.698-.453-1.124-.452-.43-1.166-.431-.49 0-.916.26a1.97 1.97 0 0 0-.682.725 2.13 2.13 0 0 0-.256 1.06V82zm13.037 0v-8.182h1.215v1.279h.106a2.06 2.06 0 0 1 .826-1.018q.57-.367 1.369-.367.81 0 1.348.367a2.4 2.4 0 0 1 .846 1.018h.086q.314-.635.943-1.007.628-.378 1.507-.378 1.098 0 1.795.687.698.681.698 2.125V82h-1.257v-5.476q0-.905-.496-1.294a1.83 1.83 0 0 0-1.166-.39q-.863 0-1.337.523-.474.516-.474 1.31V82h-1.279v-5.604q0-.698-.452-1.124-.453-.43-1.167-.431-.49 0-.916.26a1.97 1.97 0 0 0-.682.725q-.255.46-.256 1.06V82zM257.376 69.595h1.245v13.56h-1.245zm.915 5.505h2.49v1.035h-2.49zm-4.38-4.05h1.215q0 1.935-.63 3.705-.63 1.755-1.98 3.255-1.35 1.485-3.555 2.58l-.69-.96q1.89-.945 3.135-2.205 1.26-1.275 1.875-2.82.63-1.56.63-3.36zm-5.01 0h5.64v1.035h-5.64zm13.094 9.405h12.3v1.035h-12.3zm5.505-2.895h1.23v3.33h-1.23zm-4.005-6.96h9.27v4.11h-8.01v2.715h-1.23V73.72h8.01v-2.1h-8.04zm.03 6.3h9.555v1.02h-9.555zm13.586 3.704a.92.92 0 0 1-.677-.282.92.92 0 0 1-.282-.676q0-.395.282-.677a.92.92 0 0 1 .677-.282q.394 0 .676.282a.92.92 0 0 1 .283.677.9.9 0 0 1-.134.479 1 1 0 0 1-.346.352.9.9 0 0 1-.479.127m0-5.518a.92.92 0 0 1-.677-.282.92.92 0 0 1-.282-.677q0-.394.282-.676a.92.92 0 0 1 .677-.283q.394 0 .676.283a.92.92 0 0 1 .283.676.9.9 0 0 1-.134.48 1 1 0 0 1-.346.351.9.9 0 0 1-.479.128m7.156 4.677v-1.087l4.794-7.585h.789v1.683h-.533l-3.622 5.732v.085h6.456v1.172zM289.402 82V71.091h1.257V82zm8.239.15q-1.097 0-1.939-.39-.836-.394-1.305-1.081a2.7 2.7 0 0 1-.463-1.577 2.9 2.9 0 0 1 .271-1.278q.277-.591.757-.986a2.3 2.3 0 0 1 1.081-.506v-.063a2.1 2.1 0 0 1-1.246-.88 2.66 2.66 0 0 1-.458-1.55 2.63 2.63 0 0 1 .42-1.486 2.97 2.97 0 0 1 1.172-1.033q.752-.378 1.71-.378.948 0 1.694.378t1.172 1.033q.431.656.437 1.487a2.7 2.7 0 0 1-.474 1.55 2.1 2.1 0 0 1-1.231.879v.063q.59.107 1.066.506.474.395.756.986.282.586.288 1.278a2.76 2.76 0 0 1-.48 1.577q-.468.688-1.305 1.081-.831.39-1.923.39m0-1.173q.74 0 1.279-.24.537-.24.831-.676a1.83 1.83 0 0 0 .298-1.023 1.96 1.96 0 0 0-.32-1.092 2.16 2.16 0 0 0-.857-.745 2.7 2.7 0 0 0-1.231-.272q-.698 0-1.246.272-.544.271-.858.745-.309.474-.304 1.092-.005.587.283 1.023.293.437.836.677t1.289.24m0-5.177q.586 0 1.039-.235.458-.234.719-.655.261-.42.266-.985-.004-.555-.261-.964a1.7 1.7 0 0 0-.708-.64 2.3 2.3 0 0 0-1.055-.229 2.4 2.4 0 0 0-1.071.23q-.458.223-.708.639a1.78 1.78 0 0 0-.245.964q-.006.565.25.985.261.421.719.655t1.055.235m9.989 6.2v-8.182h1.215v1.279h.106a2.06 2.06 0 0 1 .826-1.018q.57-.367 1.369-.367.81 0 1.347.367.544.362.847 1.018h.086q.314-.635.942-1.007.629-.378 1.508-.378 1.097 0 1.795.687.698.681.698 2.125V82h-1.257v-5.476q0-.905-.496-1.294a1.83 1.83 0 0 0-1.166-.39q-.864 0-1.337.523-.474.516-.474 1.31V82h-1.279v-5.604q0-.698-.453-1.124-.452-.43-1.166-.431-.49 0-.916.26a1.97 1.97 0 0 0-.682.725 2.13 2.13 0 0 0-.256 1.06V82zm13.037 0v-8.182h1.215v1.279h.106a2.06 2.06 0 0 1 .826-1.018q.57-.367 1.369-.367.81 0 1.347.367.544.362.847 1.018h.086q.314-.635.942-1.007.629-.378 1.508-.378 1.097 0 1.795.687.698.681.698 2.125V82h-1.257v-5.476q0-.905-.496-1.294a1.83 1.83 0 0 0-1.166-.39q-.864 0-1.337.523-.474.516-.474 1.31V82h-1.279v-5.604q0-.698-.452-1.124-.453-.43-1.167-.431-.49 0-.916.26a1.97 1.97 0 0 0-.682.725 2.13 2.13 0 0 0-.256 1.06V82zM773.026 66.595h1.245v13.56h-1.245zm.915 5.505h2.49v1.035h-2.49zm-4.38-4.05h1.215q0 1.935-.63 3.705-.63 1.755-1.98 3.255-1.35 1.485-3.555 2.58l-.69-.96q1.89-.945 3.135-2.205 1.26-1.275 1.875-2.82.63-1.56.63-3.36zm-5.01 0h5.64v1.035h-5.64zm13.094 9.405h12.3v1.035h-12.3zm5.505-2.895h1.23v3.33h-1.23zm-4.005-6.96h9.27v4.11h-8.01v2.715h-1.23V70.72h8.01v-2.1h-8.04zm.03 6.3h9.555v1.02h-9.555zm13.586 3.704a.92.92 0 0 1-.677-.282.92.92 0 0 1-.282-.676q0-.395.282-.677a.92.92 0 0 1 .677-.282q.394 0 .676.282a.92.92 0 0 1 .282.677.9.9 0 0 1-.133.479 1 1 0 0 1-.346.352.9.9 0 0 1-.479.127m0-5.518a.92.92 0 0 1-.677-.282.92.92 0 0 1-.282-.677q0-.394.282-.676a.92.92 0 0 1 .677-.283q.394 0 .676.283a.92.92 0 0 1 .282.676.9.9 0 0 1-.133.48 1 1 0 0 1-.346.351.9.9 0 0 1-.479.128m11.098 7.063q-1.054 0-1.881-.362-.819-.362-1.305-1.007a2.7 2.7 0 0 1-.522-1.507h1.343q.042.527.362.91.32.38.836.586.517.208 1.145.208.704 0 1.247-.245.543-.244.852-.682.309-.436.309-1.012 0-.6-.298-1.06-.298-.463-.874-.724-.575-.261-1.406-.261h-.874V72.82h.874q.65 0 1.14-.234.495-.236.772-.66.283-.427.283-1.002 0-.555-.245-.964a1.7 1.7 0 0 0-.693-.64q-.442-.228-1.044-.229-.564 0-1.065.208-.495.203-.81.591a1.55 1.55 0 0 0-.341.927h-1.278a2.6 2.6 0 0 1 .516-1.502 3.26 3.26 0 0 1 1.268-1.012 4.1 4.1 0 0 1 1.731-.362q1.013 0 1.737.41.724.405 1.113 1.07.389.667.389 1.439 0 .921-.485 1.571a2.45 2.45 0 0 1-1.305.9v.086q1.034.17 1.614.878.58.704.581 1.742 0 .89-.485 1.598a3.3 3.3 0 0 1-1.31 1.108q-.831.405-1.891.405m9.338-11.207a3.9 3.9 0 0 1 1.342.255q.671.25 1.225.831.554.576.89 1.572t.335 2.498q0 1.454-.277 2.584-.272 1.123-.788 1.896a3.5 3.5 0 0 1-1.247 1.172q-.73.4-1.651.4-.916 0-1.635-.363a3.2 3.2 0 0 1-1.172-1.018 3.54 3.54 0 0 1-.581-1.518h1.3q.176.752.698 1.242.527.484 1.39.484 1.263 0 1.992-1.102.735-1.103.735-3.117h-.085a3.4 3.4 0 0 1-.708.773 3.13 3.13 0 0 1-1.977.676 3.3 3.3 0 0 1-1.72-.463 3.5 3.5 0 0 1-1.247-1.284q-.462-.82-.463-1.875 0-1 .447-1.832a3.46 3.46 0 0 1 1.268-1.332q.82-.495 1.929-.48m0 1.172a2.24 2.24 0 0 0-1.21.335 2.4 2.4 0 0 0-.847.895 2.5 2.5 0 0 0-.309 1.241q0 .683.299 1.241.303.554.825.885a2.24 2.24 0 0 0 1.199.325q.506 0 .943-.198.437-.201.761-.548a2.6 2.6 0 0 0 .517-.794q.187-.447.187-.932a2.44 2.44 0 0 0-.309-1.199 2.46 2.46 0 0 0-.842-.905 2.2 2.2 0 0 0-1.214-.346m6.443 9.971a.92.92 0 0 1-.676-.282.92.92 0 0 1-.282-.677q0-.393.282-.676a.92.92 0 0 1 .676-.282q.395 0 .677.282a.92.92 0 0 1 .282.676.997.997 0 0 1-.479.831.9.9 0 0 1-.48.128m6.351.064q-1.097 0-1.939-.389-.836-.394-1.305-1.081a2.7 2.7 0 0 1-.463-1.577 2.9 2.9 0 0 1 .272-1.278q.276-.591.756-.986a2.3 2.3 0 0 1 1.081-.506v-.063a2.1 2.1 0 0 1-1.246-.88 2.66 2.66 0 0 1-.458-1.55 2.62 2.62 0 0 1 .421-1.486 2.96 2.96 0 0 1 1.171-1.033q.751-.378 1.71-.378.948 0 1.694.378t1.172 1.033q.432.656.437 1.487a2.7 2.7 0 0 1-.474 1.55 2.1 2.1 0 0 1-1.231.879v.063q.591.107 1.066.506.474.395.756.986.282.586.288 1.278a2.76 2.76 0 0 1-.48 1.577q-.468.688-1.305 1.081-.831.39-1.923.39m0-1.172q.74 0 1.279-.24.537-.24.831-.676a1.83 1.83 0 0 0 .298-1.023 1.96 1.96 0 0 0-.32-1.092 2.16 2.16 0 0 0-.857-.745 2.7 2.7 0 0 0-1.231-.272q-.697 0-1.246.272-.543.271-.858.745a1.9 1.9 0 0 0-.303 1.092q-.006.587.282 1.023.293.437.836.677t1.289.24m0-5.177q.586 0 1.039-.235.458-.234.719-.655.261-.42.266-.985-.005-.555-.261-.964a1.7 1.7 0 0 0-.708-.64 2.3 2.3 0 0 0-1.055-.229q-.612 0-1.07.23a1.65 1.65 0 0 0-.709.639 1.8 1.8 0 0 0-.245.964q-.005.565.25.985.261.421.72.655t1.054.235m9.989 6.2v-8.182h1.215v1.279h.106a2.06 2.06 0 0 1 .826-1.018q.57-.367 1.369-.367.81 0 1.347.367.544.362.847 1.018h.086q.314-.635.942-1.007.629-.378 1.508-.378 1.097 0 1.795.687.698.681.698 2.125V79h-1.257v-5.476q0-.905-.496-1.294a1.83 1.83 0 0 0-1.166-.39q-.864 0-1.337.523-.474.516-.474 1.31V79h-1.279v-5.604q0-.698-.452-1.124-.453-.43-1.167-.431-.49 0-.916.26a1.97 1.97 0 0 0-.682.725 2.13 2.13 0 0 0-.256 1.06V79zm13.037 0v-8.182h1.215v1.279h.106a2.06 2.06 0 0 1 .826-1.018q.57-.367 1.369-.367.81 0 1.348.367a2.4 2.4 0 0 1 .846 1.018h.086q.314-.635.943-1.007.628-.378 1.507-.378 1.098 0 1.795.687.698.681.698 2.125V79h-1.257v-5.476q0-.905-.496-1.294a1.83 1.83 0 0 0-1.166-.39q-.863 0-1.337.523-.474.516-.474 1.31V79h-1.279v-5.604q0-.698-.452-1.124-.453-.43-1.167-.431-.49 0-.916.26a1.97 1.97 0 0 0-.682.725q-.255.46-.256 1.06V79zM73.376 338.455h2.61v1.035h-2.61zm-2.52-3.585h.975v2.595q0 1.05-.225 2.07-.21 1.02-.63 1.92-.405.9-.99 1.62t-1.32 1.17l-.78-.93q.69-.42 1.245-1.05t.93-1.41q.39-.795.585-1.65.21-.87.21-1.74zm.24 0h.96v2.55q0 .81.18 1.635.195.81.54 1.56.36.735.885 1.35t1.185 1.02l-.705.96q-.735-.45-1.305-1.14a7.1 7.1 0 0 1-.96-1.575 9 9 0 0 1-.585-1.86 10 10 0 0 1-.195-1.95zm7.275-1.275h1.2v13.575h-1.2zm-2.76.285h1.17v12.6h-1.17zm6.224 10.575h12.3v1.035h-12.3zm5.505-2.895h1.23v3.33h-1.23zm-4.005-6.96h9.27v4.11h-8.01v2.715h-1.23v-3.705h8.01v-2.1h-8.04zm.03 6.3h9.555v1.02h-9.555zm13.585 3.704a.92.92 0 0 1-.676-.282.92.92 0 0 1-.283-.676q0-.395.283-.677a.92.92 0 0 1 .676-.282q.394 0 .677.282a.92.92 0 0 1 .282.677.9.9 0 0 1-.133.479 1 1 0 0 1-.346.352.9.9 0 0 1-.48.127m0-5.518a.92.92 0 0 1-.676-.282.93.93 0 0 1-.283-.677q0-.394.283-.676a.92.92 0 0 1 .676-.283.92.92 0 0 1 .677.283.92.92 0 0 1 .282.676.9.9 0 0 1-.133.48 1 1 0 0 1-.346.351.9.9 0 0 1-.48.128m11.247-3.995V346h-1.321v-9.524h-.064l-2.663 1.768v-1.342l2.727-1.811zm2.882 8.672v-1.087l4.794-7.585h.789v1.683h-.533l-3.622 5.732v.085h6.456v1.172zm5.135 2.237v-10.909h1.257V346zm4.489-2.237v-1.087l4.794-7.585h.789v1.683h-.533l-3.622 5.732v.085h6.456v1.172zm5.135 2.237v-10.909h1.257V346zm5.17.085a.92.92 0 0 1-.677-.282.92.92 0 0 1-.282-.677q0-.394.282-.676a.92.92 0 0 1 .677-.282q.394 0 .676.282a.92.92 0 0 1 .282.676.9.9 0 0 1-.133.48 1 1 0 0 1-.346.351.9.9 0 0 1-.479.128m3.314-.085 4.879-9.652v-.085h-5.625v-1.172h6.989v1.236L135.707 346zm12.469 0v-8.182h1.214v1.279h.107q.255-.655.825-1.018.57-.367 1.369-.367.81 0 1.348.367.544.363.847 1.018h.085q.315-.635.943-1.007.629-.378 1.507-.378 1.098 0 1.796.687.697.682.697 2.125V346h-1.257v-5.476q0-.906-.495-1.294a1.84 1.84 0 0 0-1.167-.389q-.863 0-1.337.522-.474.516-.474 1.31V346h-1.278v-5.604q0-.698-.453-1.124-.453-.43-1.166-.431-.49 0-.917.261-.42.26-.682.724-.255.459-.255 1.06V346zm13.037 0v-8.182h1.214v1.279h.107a2.06 2.06 0 0 1 .825-1.018q.57-.367 1.369-.367.81 0 1.348.367.543.363.847 1.018h.085q.315-.635.943-1.007.629-.378 1.508-.378 1.096 0 1.795.687.697.682.697 2.125V346h-1.257v-5.476q0-.906-.495-1.294a1.84 1.84 0 0 0-1.167-.389q-.863 0-1.337.522-.474.516-.474 1.31V346h-1.278v-5.604q0-.698-.453-1.124-.453-.43-1.166-.431-.49 0-.917.261-.42.26-.681.724a2.13 2.13 0 0 0-.256 1.06V346zM930.561 338.455h2.61v1.035h-2.61zm-2.52-3.585h.975v2.595q0 1.05-.225 2.07-.21 1.02-.63 1.92-.405.9-.99 1.62t-1.32 1.17l-.78-.93q.69-.42 1.245-1.05t.93-1.41q.39-.795.585-1.65.21-.87.21-1.74zm.24 0h.96v2.55q0 .81.18 1.635.195.81.54 1.56.36.735.885 1.35t1.185 1.02l-.705.96q-.735-.45-1.305-1.14a7.1 7.1 0 0 1-.96-1.575 9 9 0 0 1-.585-1.86 10 10 0 0 1-.195-1.95zm7.275-1.275h1.2v13.575h-1.2zm-2.76.285h1.17v12.6h-1.17zm6.224 10.575h12.3v1.035h-12.3zm5.505-2.895h1.23v3.33h-1.23zm-4.005-6.96h9.27v4.11h-8.01v2.715h-1.23v-3.705h8.01v-2.1h-8.04zm.03 6.3h9.555v1.02h-9.555zm13.585 3.704a.92.92 0 0 1-.676-.282.92.92 0 0 1-.283-.676.92.92 0 0 1 .283-.677.92.92 0 0 1 .676-.282q.394 0 .677.282a.92.92 0 0 1 .282.677.9.9 0 0 1-.133.479 1 1 0 0 1-.346.352.9.9 0 0 1-.48.127m0-5.518a.92.92 0 0 1-.676-.282.92.92 0 0 1-.283-.677q0-.394.283-.676a.92.92 0 0 1 .676-.283q.394 0 .677.283a.92.92 0 0 1 .282.676.9.9 0 0 1-.133.48 1 1 0 0 1-.346.351.9.9 0 0 1-.48.128m11.247-3.995V346h-1.321v-9.524h-.063l-2.664 1.768v-1.342l2.727-1.811zm6.824 11.058q-1.055 0-1.88-.362-.82-.363-1.305-1.007a2.7 2.7 0 0 1-.522-1.507h1.342q.042.527.362.911a2.1 2.1 0 0 0 .836.586 3.1 3.1 0 0 0 1.146.207q.702 0 1.246-.245.543-.244.852-.682.309-.436.309-1.012a1.9 1.9 0 0 0-.298-1.06q-.298-.463-.874-.724-.575-.261-1.406-.261h-.873v-1.172h.873a2.6 2.6 0 0 0 1.14-.234q.495-.235.772-.661.283-.426.283-1.001 0-.555-.245-.964a1.7 1.7 0 0 0-.693-.64q-.441-.229-1.044-.229-.564 0-1.065.208-.495.202-.81.591a1.55 1.55 0 0 0-.341.927h-1.278a2.6 2.6 0 0 1 .517-1.502 3.25 3.25 0 0 1 1.267-1.012 4.1 4.1 0 0 1 1.732-.362q1.011 0 1.736.41.725.405 1.113 1.071.39.665.389 1.438 0 .921-.485 1.571a2.45 2.45 0 0 1-1.305.9v.086q1.033.17 1.614.879.582.702.581 1.741 0 .89-.485 1.598a3.3 3.3 0 0 1-1.31 1.108q-.83.405-1.891.405m5.865-.149v-.959l3.601-3.942q.633-.692 1.044-1.203.41-.517.607-.97.202-.458.202-.959a1.77 1.77 0 0 0-.277-.996 1.8 1.8 0 0 0-.746-.65 2.4 2.4 0 0 0-1.065-.229q-.629 0-1.097.261-.464.256-.719.719a2.25 2.25 0 0 0-.251 1.087h-1.257q0-.959.442-1.683t1.204-1.129a3.6 3.6 0 0 1 1.721-.405q.958 0 1.699.405.741.404 1.161 1.092.421.687.421 1.528 0 .602-.218 1.178-.213.57-.746 1.273-.528.697-1.465 1.704l-2.45 2.621v.085h5.071V346zm10.019.085a.92.92 0 0 1-.676-.282.92.92 0 0 1-.283-.677.92.92 0 0 1 .283-.676.92.92 0 0 1 .676-.282q.394 0 .677.282a.92.92 0 0 1 .282.676.994.994 0 0 1-.479.831.9.9 0 0 1-.48.128m3.194-.085v-.959l3.6-3.942a24 24 0 0 0 1.044-1.203q.41-.517.608-.97.202-.458.202-.959a1.77 1.77 0 0 0-.277-.996 1.8 1.8 0 0 0-.746-.65 2.4 2.4 0 0 0-1.065-.229q-.629 0-1.097.261-.464.256-.719.719a2.25 2.25 0 0 0-.251 1.087h-1.257q0-.959.442-1.683t1.204-1.129a3.6 3.6 0 0 1 1.721-.405q.958 0 1.699.405.74.404 1.161 1.092.421.687.421 1.528 0 .602-.218 1.178-.214.57-.746 1.273-.528.697-1.465 1.704l-2.45 2.621v.085h5.071V346zm13.326 0v-8.182h1.21v1.279h.11c.17-.437.44-.776.82-1.018.38-.245.84-.367 1.37-.367q.81 0 1.35.367c.36.242.64.581.85 1.018h.08c.21-.423.52-.759.94-1.007.42-.252.93-.378 1.51-.378q1.095 0 1.8.687.69.682.69 2.125V346h-1.25v-5.476c0-.604-.17-1.035-.5-1.294a1.83 1.83 0 0 0-1.16-.389c-.58 0-1.03.174-1.34.522q-.48.516-.48 1.31V346h-1.27v-5.604c0-.465-.16-.84-.46-1.124-.3-.287-.69-.431-1.16-.431-.33 0-.64.087-.92.261s-.51.415-.68.724c-.17.306-.26.659-.26 1.06V346zm13.03 0v-8.182h1.22v1.279h.1c.17-.437.45-.776.83-1.018.38-.245.84-.367 1.37-.367q.81 0 1.35.367.54.363.84 1.018h.09c.21-.423.52-.759.94-1.007.42-.252.92-.378 1.51-.378.73 0 1.33.229 1.79.687.47.454.7 1.163.7 2.125V346h-1.26v-5.476c0-.604-.16-1.035-.49-1.294a1.84 1.84 0 0 0-1.17-.389c-.57 0-1.02.174-1.33.522q-.48.516-.48 1.31V346h-1.28v-5.604q0-.698-.45-1.124-.45-.43-1.17-.431c-.32 0-.63.087-.91.261s-.51.415-.68.724c-.17.306-.26.659-.26 1.06V346zM252.735 588.47h12.3v1.02h-12.3zm5.505.63h1.23v5.055h-1.23zm-3.93-7.755h9.15v5.295h-9.15zm7.92 1.005h-6.705v3.3h6.705zm14.654-1.755h1.2v13.575h-1.2zm-5.895 5.55h3.42v1.005h-3.42zm3.075-5.19h1.17v12.525h-1.17zm-2.91 1.365h1.2q0 1.77-.51 3.405a9.1 9.1 0 0 1-1.62 3.03q-1.125 1.395-2.955 2.49l-.72-.9q1.59-.96 2.61-2.16a8.2 8.2 0 0 0 1.5-2.625q.495-1.425.495-3.015zm-4.02 0h4.485v1.02h-4.485zm14.53 9.284a.92.92 0 0 1-.676-.282.92.92 0 0 1-.282-.676q0-.395.282-.677a.92.92 0 0 1 .676-.282q.395 0 .677.282a.92.92 0 0 1 .282.677.9.9 0 0 1-.133.479 1 1 0 0 1-.346.352.9.9 0 0 1-.48.127m0-5.518a.92.92 0 0 1-.676-.282.93.93 0 0 1-.282-.677q0-.394.282-.676a.92.92 0 0 1 .676-.283.92.92 0 0 1 .677.283.92.92 0 0 1 .282.676.9.9 0 0 1-.133.48 1 1 0 0 1-.346.351.9.9 0 0 1-.48.128m11.248-3.995V593h-1.321v-9.524h-.064l-2.664 1.768v-1.342l2.728-1.811zm2.882 8.672v-1.087l4.794-7.585h.788v1.683h-.533l-3.622 5.732v.085h6.456v1.172zm5.134 2.237v-10.909h1.258V593zm4.49-2.237v-1.087l4.794-7.585H311v1.683h-.533l-3.622 5.732v.085h6.456v1.172zm5.134 2.237v-10.909h1.258V593zm12.288 3.239q-.91 0-1.566-.235a3.3 3.3 0 0 1-1.092-.607 3.3 3.3 0 0 1-.687-.799l1.001-.703q.171.223.432.511.26.294.713.506.459.219 1.199.219.99 0 1.635-.48.645-.479.645-1.502v-1.662h-.107a7 7 0 0 1-.394.554q-.25.325-.724.581-.47.25-1.268.25a3.4 3.4 0 0 1-1.779-.469q-.783-.468-1.241-1.363-.453-.895-.453-2.174 0-1.256.442-2.189.442-.937 1.23-1.449.789-.516 1.822-.516.799 0 1.268.266.474.261.724.597.256.33.394.543h.128v-1.3h1.215v8.416q0 1.055-.48 1.716a2.73 2.73 0 0 1-1.278.974 4.8 4.8 0 0 1-1.779.315m-.043-4.496q.756 0 1.279-.346t.793-.996q.272-.65.272-1.556 0-.884-.266-1.561-.267-.676-.789-1.06-.522-.383-1.289-.383-.798 0-1.331.405a2.46 2.46 0 0 0-.794 1.086 4.2 4.2 0 0 0-.261 1.513q0 .852.266 1.508.272.65.799 1.022.533.368 1.321.368M750.146 102.647a.5.5 0 0 0 0 .707l3.182 3.182a.5.5 0 0 0 .708-.707L751.207 103l2.829-2.828a.5.5 0 0 0-.708-.707zm123.708.707a.5.5 0 0 0 0-.708l-3.182-3.181a.501.501 0 0 0-.708.707l2.829 2.828-2.829 2.828a.502.502 0 0 0 .708.708zM750.5 103v.5h123v-1h-123z"/><path stroke="#000" d="M749.5 99v8.094M874.5 99v8.094"/><path fill="#000" d="M904.354 133.146a.5.5 0 0 0-.708 0l-3.182 3.182a.502.502 0 0 0 .708.708l2.828-2.829 2.828 2.829a.502.502 0 0 0 .708-.708zm-.708 413.708a.5.5 0 0 0 .708 0l3.182-3.182a.502.502 0 0 0-.708-.708L904 545.793l-2.828-2.829a.502.502 0 0 0-.708.708zM904 133.5h-.5v413h1v-413z"/><path stroke="#000" d="M900 132.5h8.109M900 547.5h8.109"/><path stroke="#898989" stroke-linecap="round" stroke-linejoin="round" stroke-width=".5" d="M289.75 157.5c-9.31-.09-18.61.28-27.88 1.1M289.75 163.199c-9.14-.09-18.27.27-27.37 1.08M317.63 158.609c-9.27-.82-18.57-1.19-27.88-1.1M317.12 164.291c-9.1-.81-18.24-1.17-27.37-1.08M240.08 400.33V186.02M240.7 400.31V186.07M245.25 400.31V186.07M245.79 186.02v214.31"/><path stroke="#231815" stroke-linecap="round" stroke-linejoin="round" stroke-width=".5" d="M261.4 162.911v-2.85M318.1 162.911v-2.85"/><path stroke="#898989" stroke-linecap="round" stroke-linejoin="round" stroke-width=".5" d="M333.71 400.33V186.02M334.25 400.31V186.07M338.8 186.07v214.24M339.42 186.02v214.31"/><path stroke="#231815" stroke-linecap="round" stroke-linejoin="round" stroke-width=".5" d="m254.83 165.529.01.02M253.16 161.321v-.02"/><path stroke="#898989" stroke-linecap="round" stroke-linejoin="round" stroke-width=".5" d="M241.16 409.221h-.01"/><path stroke="#231815" stroke-linecap="round" stroke-linejoin="round" stroke-width=".5" d="m261.95 159.241.22-.02M317.33 159.199l.22.02M317.33 159.199l.22.02"/><path stroke="#898989" stroke-linecap="round" stroke-linejoin="round" stroke-width=".5" d="M338.96 409.29c.3-2.98.46-5.97.46-8.96M338.35 409.22c.3-2.96.45-5.93.45-8.9M333.82 408.751c.29-2.8.43-5.62.43-8.44M333.29 408.71c.28-2.79.43-5.58.43-8.38M252.91 425.631a32.2 32.2 0 0 0 8.96 2.12M253.16 425.08c2.82 1.11 5.78 1.82 8.79 2.08M254.83 420.85c2.41.95 4.94 1.55 7.52 1.78M255.01 420.33c2.36.93 4.84 1.52 7.37 1.74M240.54 409.289c.75 7.33 5.52 13.63 12.37 16.34"/><path stroke="#898989" stroke-linecap="round" stroke-linejoin="round" stroke-width=".5" d="M241.15 409.221c.73 7.11 5.36 13.23 12.01 15.86M245.68 408.75c.55 5.42 4.08 10.09 9.15 12.09"/><path stroke="#898989" stroke-linecap="round" stroke-linejoin="round" stroke-width=".5" d="M246.21 408.711c.53 5.21 3.93 9.69 8.8 11.61"/><path stroke="#231815" stroke-linecap="round" stroke-linejoin="round" stroke-width=".5" d="M289.75 158.131c-9.2-.09-18.41.27-27.58 1.08M289.75 162.67c-9.15-.09-18.29.27-27.4 1.08"/><path stroke="#898989" stroke-linecap="round" stroke-linejoin="round" stroke-width=".5" d="M261.87 427.75c9.27.82 18.57 1.19 27.88 1.1M261.95 427.16c9.24.82 18.52 1.19 27.8 1.1M262.35 422.631c9.11.81 18.25 1.17 27.4 1.08M262.38 422.07c9.1.81 18.24 1.17 27.37 1.08M339.42 186.021c0-2.99-.15-5.98-.46-8.96M338.8 186.07c0-2.97-.15-5.94-.45-8.9M334.25 186.071c0-2.82-.14-5.64-.43-8.44M333.71 186.021c0-2.8-.14-5.6-.43-8.38M261.87 158.609c-3.07.27-6.09.99-8.96 2.12M261.95 159.24c-3.01.27-5.97.97-8.79 2.08M262.33 163.75c-2.57.23-5.1.83-7.5 1.78M262.38 164.289c-2.53.22-5.01.81-7.37 1.74M252.91 160.73a19.73 19.73 0 0 0-12.37 16.34"/><path stroke="#898989" stroke-linecap="round" stroke-linejoin="round" stroke-width=".5" d="M253.16 161.301a19.16 19.16 0 0 0-12.01 15.86M254.83 165.529c-5.07 2.01-8.6 6.67-9.15 12.09"/><path stroke="#898989" stroke-linecap="round" stroke-linejoin="round" stroke-width=".5" d="M255.01 166.029c-4.87 1.92-8.26 6.4-8.8 11.61"/><path stroke="#231815" stroke-linecap="round" stroke-linejoin="round" stroke-width=".5" d="M262.17 159.221c-.07 0-.15.02-.22.05M261.96 159.26c-.23.08-.41.26-.5.49M317.33 159.22c-9.17-.81-18.37-1.17-27.58-1.08M317.15 163.75c-9.11-.81-18.25-1.17-27.4-1.08"/><path stroke="#898989" stroke-linecap="round" stroke-linejoin="round" stroke-width=".5" d="M240.08 400.33c0 2.99.15 5.98.46 8.96M240.7 400.311c0 2.97.15 5.94.45 8.9M245.25 400.311c0 2.82.14 5.64.43 8.44M245.79 400.33c0 2.8.14 5.6.43 8.38M317.63 427.751c3.07-.27 6.09-.99 8.96-2.12M317.55 427.16c3.02-.27 5.98-.97 8.79-2.08M317.15 422.63c2.58-.23 5.11-.83 7.52-1.78M317.12 422.07c2.53-.22 5.01-.81 7.37-1.74M326.59 425.629a19.73 19.73 0 0 0 12.37-16.34"/><path stroke="#898989" stroke-linecap="round" stroke-linejoin="round" stroke-width=".5" d="M326.34 425.081a19.16 19.16 0 0 0 12.01-15.86M324.67 420.85c5.07-2.01 8.6-6.67 9.15-12.09"/><path stroke="#898989" stroke-linecap="round" stroke-linejoin="round" stroke-width=".5" d="M324.49 420.331c4.87-1.92 8.26-6.4 8.8-11.61M289.75 428.85c9.31.09 18.61-.28 27.88-1.1M289.75 428.26c9.28.09 18.56-.28 27.8-1.1M289.75 423.711c9.15.09 18.29-.27 27.4-1.08M289.75 423.15c9.14.09 18.27-.27 27.37-1.08M240.54 177.061c-.3 2.98-.46 5.97-.46 8.96M241.15 177.16c-.3 2.96-.45 5.93-.45 8.9M245.68 177.631c-.29 2.8-.43 5.62-.43 8.44M246.21 177.641a84 84 0 0 0-.43 8.38M326.59 160.729a32.2 32.2 0 0 0-8.96-2.12M326.34 161.301a31.3 31.3 0 0 0-8.79-2.08M324.67 165.53c-2.4-.95-4.93-1.55-7.5-1.78M324.49 166.029a26.3 26.3 0 0 0-7.37-1.74M338.96 177.061a19.73 19.73 0 0 0-12.37-16.34"/><path stroke="#898989" stroke-linecap="round" stroke-linejoin="round" stroke-width=".5" d="M338.35 177.161a19.16 19.16 0 0 0-12.01-15.86M333.82 177.629a14.58 14.58 0 0 0-9.15-12.09"/><path stroke="#898989" stroke-linecap="round" stroke-linejoin="round" stroke-width=".5" d="M333.29 177.639c-.53-5.21-3.93-9.69-8.8-11.61"/><path stroke="#231815" stroke-linecap="round" stroke-linejoin="round" d="M357.43 505.13c-.03 1.67-.15 3.34-.32 5-.09.87-.19 1.75-.3 2.62s-.25 1.76-.41 2.64c-.3 1.67-.7 3.33-1.23 4.95a30.14 30.14 0 0 1-1.84 4.41 35 35 0 0 1-2.52 4.16c-1 1.4-2.1 2.72-3.29 3.96s-2.5 2.43-3.88 3.49a36 36 0 0 1-4.35 2.88q-1.14.645-2.31 1.2c-.78.37-1.57.71-2.38 1.02q-1.215.465-2.46.84c-.83.25-1.71.48-2.58.68s-1.8.4-2.71.58c-.95.19-1.91.37-2.87.53-1.01.17-2.02.33-3.04.48-1.07.15-2.14.28-3.21.4-1.13.13-2.25.24-3.38.34s-2.36.21-3.54.3c-2.52.2-5.05.36-7.57.48-2.8.14-5.6.23-8.4.29-3.03.06-6.07.06-9.1.02s-5.86-.13-8.79-.27c-2.56-.12-5.12-.28-7.67-.47-2.29-.17-4.57-.37-6.85-.62-2.05-.22-4.1-.49-6.14-.82-1.84-.3-3.66-.64-5.48-1.05-.85-.19-1.69-.39-2.52-.62s-1.64-.48-2.45-.76-1.63-.61-2.43-.96-1.6-.74-2.37-1.15-1.52-.84-2.26-1.3-1.44-.94-2.14-1.45-1.38-1.06-2.05-1.62-1.31-1.16-1.94-1.78a35 35 0 0 1-3.41-3.89 33 33 0 0 1-2.68-4.16 30 30 0 0 1-2.66-6.6c-.21-.77-.41-1.62-.58-2.44s-.32-1.71-.46-2.57-.25-1.76-.35-2.64q-.285-2.475-.39-4.98-.045-1.11-.06-2.22v-2.06c0-.69.01-1.34.02-2s0-1.36 0-2.04v-14.08c0-3.79 0-7.57-.01-11.36 0-4.42-.01-8.84-.02-13.26 0-5.17 0-10.35-.01-15.52 0-6.07-.01-12.14-.02-18.21 0-7.15-.01-14.29-.01-21.44 0-8.44 0-16.89-.01-25.33v-66c0-12.36 0-24.72.02-37.08 0-9.85.01-19.7.02-29.55 0-7.96.01-15.92.02-23.88 0-3.43 0-6.85.01-10.28 0-3.12 0-6.24.01-9.36 0-2.85 0-5.69.02-8.54 0-2.6.02-5.2 0-7.81-.01-2.37-.05-4.74-.01-7.1.03-2.12.12-4.24.3-6.36"/><path stroke="#231815" stroke-linecap="round" stroke-linejoin="round" d="M289.75 136.02c3.98 0 7.97.09 11.94.26 1.79.08 3.57.18 5.36.29 1.67.11 3.35.23 5.02.37 1.57.13 3.14.27 4.71.44 1.47.16 2.94.33 4.4.54a111 111 0 0 1 7.8 1.42c.6.13 1.18.27 1.77.43s1.17.32 1.75.5c1.19.37 2.35.81 3.49 1.31s2.24 1.04 3.32 1.65 2.1 1.26 3.1 1.97c2.02 1.44 3.9 3.09 5.58 4.91.83.9 1.61 1.83 2.34 2.81a34 34 0 0 1 1.97 2.95 32 32 0 0 1 1.59 3.01c.48 1.03.88 2.07 1.23 3.13s.67 2.24.92 3.38c.27 1.22.49 2.45.67 3.69.2 1.35.34 2.7.45 4.06a85.17 85.17 0 0 1 .29 6.67v2.28c0 .76-.01 1.55-.02 2.32s-.01 1.6-.01 2.4c0 1.68 0 3.37.01 5.05 0 1.79.01 3.58.01 5.36V222c0 4.9 0 9.81.01 14.71 0 5.52.01 11.03.02 16.55 0 6.22 0 12.44.01 18.66 0 7.03 0 14.05.01 21.08v78.43c0 14.32-.01 28.64-.02 42.96 0 5.69 0 11.38-.01 17.07 0 4.96 0 9.91-.01 14.87 0 4.34 0 8.69-.01 13.03 0 3.83 0 7.65-.01 11.48 0 3.38 0 6.77-.01 10.15v20.67c0 1.22 0 2.33-.01 3.49"/><path stroke="#231815" stroke-linecap="round" stroke-linejoin="round" stroke-width=".5" d="M262.33 163.749a.87.87 0 0 1-.54-.13M261.79 163.62a.76.76 0 0 1-.28-.31 1 1 0 0 1-.1-.4M318.1 162.91c0 .14-.04.28-.1.4s-.17.23-.28.31M317.71 163.619a.87.87 0 0 1-.54.13M317.33 159.221c.1 0 .21.04.3.08M317.63 159.301c.09.05.18.11.25.19M317.87 159.49c.07.08.13.17.16.27M318.04 159.75c.04.1.06.2.06.31M261.4 160.06c0-.1.02-.21.06-.31"/><path stroke="#231815" stroke-linecap="round" stroke-linejoin="round" d="M222.34 172.82c.15-1.72.36-3.44.65-5.14.13-.79.29-1.57.46-2.35s.35-1.48.56-2.22.43-1.4.68-2.09.52-1.34.82-2 .62-1.31.97-1.95.73-1.3 1.13-1.94c.82-1.31 1.74-2.57 2.73-3.75a35.8 35.8 0 0 1 5.14-5.01 35.728 35.728 0 0 1 3.92-2.72c.68-.41 1.38-.79 2.09-1.15s1.44-.71 2.18-1.02 1.5-.61 2.26-.88 1.53-.5 2.31-.71 1.58-.4 2.38-.58 1.65-.35 2.48-.52 1.74-.33 2.61-.48c.91-.16 1.83-.3 2.75-.43s1.93-.26 2.9-.37 2.02-.22 3.04-.32 2.11-.2 3.17-.28c2.24-.18 4.49-.34 6.74-.47 2.47-.14 4.93-.25 7.4-.32 2.68-.08 5.36-.12 8.03-.12"/><path stroke="#9fa0a0" stroke-linecap="round" stroke-linejoin="round" stroke-width=".5" d="M289.75 138.039c3.97 0 7.93.09 11.9.26 1.78.08 3.56.18 5.33.29 1.67.11 3.34.23 5.01.37 1.56.13 3.12.27 4.67.43 1.45.15 2.9.32 4.34.53 1.34.19 2.68.42 4.01.66q.93.165 1.86.36c.62.13 1.18.24 1.77.37s1.14.26 1.7.41 1.12.3 1.67.48c1.12.35 2.22.76 3.29 1.23s2.1.98 3.11 1.54 1.97 1.18 2.91 1.85c1.9 1.35 3.66 2.89 5.25 4.6.78.84 1.51 1.72 2.2 2.63s1.28 1.8 1.84 2.75 1.04 1.84 1.48 2.8.82 1.92 1.14 2.9.62 2.09.86 3.15c.26 1.17.47 2.35.64 3.53.19 1.31.33 2.62.44 3.94.12 1.42.2 2.85.24 4.27.02.74.04 1.48.04 2.22v2.27c0 .76-.01 1.55-.02 2.33s-.01 1.6-.01 2.41c0 1.69 0 3.38.01 5.06 0 1.79.01 3.58.01 5.37v24.81c0 4.91 0 9.82.01 14.73 0 5.52.01 11.05.02 16.57 0 6.23 0 12.45.01 18.68 0 7.04 0 14.07.01 21.11v78.53c0 14.34-.01 28.68-.02 43.02 0 5.7 0 11.4-.01 17.09 0 4.96 0 9.92-.01 14.89 0 4.35 0 8.7-.01 13.05 0 3.83 0 7.66-.01 11.49 0 3.39 0 6.77-.01 10.16v20.67c0 1.21 0 2.32-.01 3.47"/><path stroke="#9fa0a0" stroke-linecap="round" stroke-linejoin="round" stroke-width=".5" d="M355.43 505.29c-.01.8-.05 1.6-.1 2.39s-.12 1.62-.21 2.42c-.09.85-.18 1.7-.3 2.54s-.24 1.71-.4 2.55c-.28 1.57-.66 3.13-1.15 4.65q-.345 1.065-.78 2.1c-.29.69-.59 1.35-.93 2-.69 1.35-1.48 2.64-2.36 3.87-.46.65-.95 1.28-1.46 1.89s-1.07 1.24-1.63 1.82a33 33 0 0 1-3.64 3.28c-1.29 1-2.67 1.9-4.09 2.7-.71.4-1.43.77-2.17 1.12s-1.47.67-2.23.96-1.54.56-2.33.79-1.64.45-2.46.65c-.87.2-1.75.39-2.63.56-.94.19-1.87.36-2.81.52a103 103 0 0 1-6.16.87c-1.11.12-2.23.23-3.34.34-1.17.11-2.35.21-3.52.3s-2.46.18-3.69.26-2.57.16-3.86.22c-2.79.14-5.57.23-8.36.29-3.02.06-6.05.06-9.07.02s-5.84-.13-8.75-.27c-2.55-.12-5.1-.28-7.64-.47-2.27-.17-4.54-.36-6.81-.61-2.02-.22-4.04-.48-6.04-.81-.93-.15-1.86-.31-2.78-.49-.87-.17-1.74-.35-2.6-.54-.81-.18-1.61-.37-2.41-.59s-1.55-.45-2.31-.71-1.54-.57-2.29-.9-1.5-.69-2.23-1.08-1.43-.79-2.12-1.22-1.36-.88-2.01-1.36-1.3-.99-1.92-1.52-1.23-1.09-1.82-1.67a33 33 0 0 1-3.2-3.65 31 31 0 0 1-2.5-3.88c-.73-1.35-1.31-2.63-1.81-4-.25-.7-.48-1.42-.67-2.14-.21-.76-.39-1.52-.54-2.29-.17-.81-.31-1.63-.43-2.45a94 94 0 0 1-.34-2.56c-.18-1.6-.31-3.21-.39-4.82q-.045-1.08-.06-2.16v-2.05c0-.69.01-1.34.02-2.01s0-1.36 0-2.04v-14.07c0-3.79 0-7.58-.01-11.37 0-4.43-.01-8.85-.02-13.28 0-5.18 0-10.36-.01-15.54 0-6.08-.01-12.16-.02-18.23-.01-15.61-.02-31.21-.02-46.82v-66.07c0-11.99 0-24.75.02-37.12 0-9.86.01-19.72.02-29.58 0-7.97.01-15.94.02-23.9 0-3.43 0-6.86.01-10.29 0-3.12 0-6.25.01-9.37 0-2.85 0-5.7.02-8.55 0-2.61.02-5.22 0-7.82-.01-2.37-.05-4.74-.01-7.11.03-2.05.12-4.11.3-6.15M224.34 172.831q.21-2.505.63-4.98c.25-1.45.56-2.89.97-4.31.19-.65.4-1.3.64-1.94s.49-1.24.76-1.85.58-1.22.9-1.81.68-1.21 1.06-1.8c.77-1.23 1.63-2.4 2.56-3.51s2-2.23 3.11-3.23 2.29-1.95 3.53-2.81c.61-.42 1.24-.82 1.88-1.2a34 34 0 0 1 4.01-2.04 32.59 32.59 0 0 1 4.32-1.49c.74-.2 1.51-.39 2.27-.56a105.965 105.965 0 0 1 4.98-.97c.9-.15 1.81-.29 2.71-.42s1.9-.25 2.85-.36 2-.22 3-.31 2.1-.19 3.15-.28c2.24-.18 4.48-.34 6.72-.47 2.46-.14 4.91-.25 7.37-.32 2.67-.08 5.33-.12 8-.12"/><path fill="#898989" d="M274.1 483.979h-1.73v5.15c0 .33 0 .84-.28 1.12-.19.2-.51.29-.94.29h-1.37c-.23 0-.62 0-.89-.28-.23-.23-.34-.61-.34-1.14v-5.15h-1.71v5.18c0 .52.12 3.09 2.55 3.09h2.26c.92 0 2.46-.4 2.46-3.09v-5.18zM283.91 486.889c0-2.05-1.33-3.27-3.55-3.27h-.25c-3.13 0-4.3 1.18-4.3 4.36v4.17h1.83v-4.17c0-2.41.54-2.82 2.15-2.82h.41c1.56 0 1.84.57 1.84 1.68 0 .66-.22 1.37-.86 1.37h-2.88v1.21s.05 0 .08.01c.58.1 1.61.17 2.39.17 2.59 0 3.13-1.48 3.13-2.72zM290.11 483.799s-.06 0-.08-.01c-.47-.08-1.5-.17-2.07-.17-1 0-2.69.41-2.69 3.15v5.39h1.79v-5.27c0-1.45.27-1.6 1.4-1.6h1.65v-1.49M298.34 490.229c-1.08.29-1.92.45-3.01.45h-.35c-1.52 0-2.45-.18-2.45-2.7s.54-2.81 2.16-2.81h.41c1.52 0 1.84.25 1.84 1.4 0 .58-.26.82-.86.82h-2.89v1.21s.05 0 .08.01c.57.1 1.6.17 2.39.17 1.17 0 3.13-.28 3.13-2.17 0-2.47-1.93-2.99-3.54-2.99H295c-3.14 0-4.31 1.18-4.31 4.36s1.19 4.29 4.12 4.29h.22c1.85 0 3.42-.49 3.42-1.07v-1l-.12.03zM311.12 486.83c0-2.92-2.15-3.07-2.58-3.07h-1c-1.12 0-1.66.53-1.82.71-.59-.57-1.48-.71-1.79-.71H303c-2.41 0-2.67 2.15-2.67 3.07v5.32h1.63v-5.32c0-.82.17-1.58 1.4-1.58s1.52.58 1.52 1.58v5.32h1.68v-5.32c0-1.09.45-1.6 1.41-1.6 1.04 0 1.5.49 1.5 1.6v5.32h1.64v-5.32zM319.64 491.279c1.24-1.27 1.05-3.26 1.04-3.35 0-3.57-1.68-4.29-4.39-4.29s-3.37.83-3.37 1.05v1l.12-.03c2.7-.6 4.53-.61 5.15-.05.21.19.66.62.66 2.36s-.35 2.12-.49 2.27c-.5.56-1.66.49-2.69.43h-.19c-1.03-.06-1.03-.83-1.03-1.29 0-.4.13-.88.75-.88h3.03v-1.01s-.04-.01-.06-.02c-.38-.14-1.89-.36-2.22-.36-2.93 0-3.37 1.37-3.37 2.19 0 .87.28 1.56.82 2.07 1.11 1.04 2.92.92 2.99.92 1.41.1 2.51-.23 3.25-1zM265.49 489.509c0-1.81-1.35-2.27-2.67-2.48l-1.87-.24c-.45-.07-.85-.18-.85-.66 0-.76.22-.97 1.75-.97h.38c.89 0 1.74.13 2.76.41.04.01.08.02.12.04v-1.18s0-.01-.01-.02c-.15-.3-1.56-.79-2.94-.79h-.38c-2.32 0-3.45.86-3.45 2.64s1.43 2.07 2.77 2.28l.83.12c.61.08.99.13 1.18.21.36.15.55.23.55.84 0 .95-.64 1.04-2 1.04h-.38c-.8 0-1.77-.22-2.81-.65-.05-.02-.09-.04-.14-.06v1.16c0 .47 1.42 1.07 3.01 1.07h.35c2.6 0 3.8-.88 3.8-2.76"/><path stroke="#898989" stroke-linecap="round" stroke-linejoin="round" stroke-width=".25" d="M524.432 160.789c.05.7.07 1.41.08 2.11.01.97 0 1.95-.01 2.92M527.972 136v.02c.01.03.02.04.02.06s.02.06.03.09c.02.04.03.08.04.12.04.1.08.21.12.31l.15.39c.06.16.11.31.17.47l.18.59c.06.24.12.48.17.73.06.27.12.54.17.81.07.36.12.73.16 1.1.06.5.1 1 .13 1.51.04.62.07 1.23.09 1.85q.045 1.11.06 2.22.045 2.7 0 5.4c-.03 2.04-.09 4.09-.17 6.13"/><path stroke="#231815" stroke-linecap="round" stroke-linejoin="round" d="m523.542 162.66-.25.07-.22.23M527.972 136l-2.54 2.02M568.732 540.85l.14-.03.16-.04.19-.03.21-.05.24-.04.26-.05.28-.05.31-.05M570.522 540.511l.69-.12M571.212 540.39l.78-.12M571.992 540.27l.86-.12M572.852 540.15l.92-.13M573.772 540.021l.97-.13M574.742 539.89l16.76-2.13"/><path stroke="#898989" stroke-linecap="round" stroke-linejoin="round" stroke-width=".25" d="M523.952 177.039v.01"/><path stroke="#231815" stroke-linecap="round" stroke-linejoin="round" d="m525.432 544.42 2.54 2.02M523.072 162.961l-.06.17"/><path stroke="#231815" stroke-linecap="round" stroke-linejoin="round" stroke-width=".5" d="m517.232 423.689.34.02"/><circle cx="518.062" cy="400.311" r=".125" fill="#231815"/><path stroke="#898989" stroke-linecap="round" stroke-linejoin="round" stroke-width=".25" d="m523.952 177.051-.47 6.09-.22 2.87"/><path stroke="#231815" stroke-linecap="round" stroke-linejoin="round" stroke-width=".25" d="M522.792 186.011v-.04"/><circle cx="523.002" cy="163.189" r=".25" fill="#231815"/><circle cx="523.002" cy="163.189" r=".25" fill="#231815"/><path stroke="#231815" stroke-linecap="round" stroke-linejoin="round" stroke-width=".5" d="m523.012 163.131-.01.06"/><path stroke="#231815" stroke-linecap="round" stroke-linejoin="round" d="M591.502 537.76v-.01"/><path stroke="#898989" stroke-linecap="round" stroke-linejoin="round" stroke-width=".25" d="m537.162 504.129-.01-.09"/><circle cx="516.692" cy="423.131" r=".25" fill="#231815"/><circle cx="516.692" cy="423.131" r=".25" fill="#231815"/><path stroke="#231815" stroke-linecap="round" stroke-linejoin="round" stroke-width=".25" d="m518.062 400.311.17 6.11.07 2.85"/><path stroke="#898989" stroke-linecap="round" stroke-linejoin="round" stroke-width=".25" d="m518.302 409.27.06 2.7.02 3.04-.02 2.84-.05 2.56M524.512 163.699l-.02 2.18M524.492 165.881l-.06 2.55-.13 2.84-.17 3.04-.18 2.74M522.902 259.391l-.09 2.37M518.312 420.41l-.09 2.19-.11 1.77-.12 1.15M522.892 259.391l-.09 2.37M523.352 248.91l-.1 2.35M523.362 248.91l-.11 2.35M523.262 186.01l-3.46 53.26-2.04 53.8-.58 53.83.88 53.41"/><circle cx="517.992" cy="425.52" r=".25" fill="#231815"/><path stroke="#231815" stroke-linecap="round" stroke-linejoin="round" stroke-width=".5" d="m517.992 425.52-.14 1.01-.14.69-.07.22"/><path stroke="#231815" stroke-linecap="round" stroke-linejoin="round" d="m517.632 427.449-.12.24"/><path stroke="#231815" stroke-linecap="round" stroke-linejoin="round" stroke-width=".5" d="m517.632 427.449.01-.01M517.512 427.689l-.13.24"/><path stroke="#231815" stroke-linecap="round" stroke-linejoin="round" d="m517.382 427.93-.05.1-.05.09-.04.08-.04.07M517.202 428.27l-.03.05-.03.05-.02.04-.02.02-.01.01"/><path stroke="#231815" stroke-linecap="round" stroke-linejoin="round" stroke-width=".25" d="m518.312 409.28-.01-.01"/><path stroke="#231815" stroke-linecap="round" stroke-linejoin="round" d="m516.692 423.189.06.18.22.24.26.08"/><circle cx="516.692" cy="423.131" r=".25" fill="#231815"/><path stroke="#231815" stroke-linecap="round" stroke-linejoin="round" stroke-width=".5" d="m524.332 159.789.1 1.01"/><circle cx="524.432" cy="160.801" r=".25" fill="#231815"/><path stroke="#231815" stroke-linecap="round" stroke-linejoin="round" d="m568.172 541.01-.01.15"/><circle cx="568.162" cy="541.16" r=".5" fill="#231815"/><path stroke="#231815" stroke-linecap="round" stroke-linejoin="round" stroke-width=".5" d="m536.922 545.299.01-.02M536.922 545.291l.06-.15"/><path stroke="#231815" stroke-linecap="round" stroke-linejoin="round" d="M592.242 536.91V145.1"/><circle cx="574.742" cy="539.891" r=".5" fill="#231815"/><path stroke="#231815" stroke-linecap="round" stroke-linejoin="round" stroke-width=".5" d="m536.982 545.139.1-.27"/><path stroke="#231815" stroke-linecap="round" stroke-linejoin="round" d="m524.162 158.891.06.21.11.69M568.432 540.92l.03-.01.07-.01.09-.03.11-.02"/><circle cx="568.432" cy="540.92" r=".5" fill="#231815"/><path stroke="#231815" stroke-linecap="round" stroke-linejoin="round" d="M568.432 540.92h.01M523.762 158.061l.03.06.04.07.04.07.04.09"/><path stroke="#231815" stroke-linecap="round" stroke-linejoin="round" stroke-width=".5" d="m524.342 162.51.05.09M523.912 158.35l.09.2M524.162 158.881v.01M524.392 162.6l.05.12.06.12"/><path stroke="#231815" stroke-linecap="round" stroke-linejoin="round" d="m523.982 158.5.13.28"/><path stroke="#231815" stroke-linecap="round" stroke-linejoin="round" stroke-width=".5" d="m524.062 158.66.1.22M537.152 137.75l-.23-.6"/><path stroke="#231815" stroke-linecap="round" stroke-linejoin="round" d="M524.192 162.23h.01l.01.03.03.04.02.06.04.06.04.09"/><path stroke="#231815" stroke-linecap="round" stroke-linejoin="round" stroke-width=".5" d="m523.672 157.891.01.01.01.03.02.03.02.04.03.06"/><circle cx="523.262" cy="186.01" r=".125" fill="#231815"/><path stroke="#231815" stroke-linecap="round" stroke-linejoin="round" d="m523.912 162.641-.37.02"/><circle cx="523.912" cy="162.641" r=".5" fill="#231815"/><path stroke="#231815" stroke-linecap="round" stroke-linejoin="round" d="m524.422 162.671-.51-.03M523.552 162.66h-.01M536.982 137.301l54.52 6.96M527.972 136l8.95 1.15"/><path stroke="#898989" stroke-linecap="round" stroke-linejoin="round" stroke-width=".25" d="M517.822 408.7c-.07-2.79-.15-5.59-.23-8.38M518.312 409.28c-.08-2.99-.16-5.97-.25-8.96M518.382 414.89c0-1.87-.03-3.74-.08-5.62M522.792 185.969c.22-2.78.43-5.56.64-8.35M523.262 186.011c.23-2.99.46-5.97.68-8.96M523.952 177.04c.04-.51.07-1.02.11-1.53M524.062 175.511l.09-1.37M524.152 174.141c.05-.78.09-1.55.13-2.33M524.282 171.81c.01-.25.03-.49.04-.74M523.432 177.62c.02-.2.03-.41.04-.61M524.322 171.081c.04-.79.07-1.57.1-2.36M524.422 168.721c0-.14 0-.27.01-.41M524.432 168.31c.03-.78.05-1.55.06-2.33M526.702 488.75l.63 8.27M523.252 251.26c-.12 2.71-.24 5.42-.35 8.13M522.792 186.01c-5.6 71.29-7.34 142.83-5.2 214.31"/><path stroke="#898989" stroke-linecap="round" stroke-linejoin="round" stroke-width=".25" d="M523.262 186.01c-5.6 71.29-7.34 142.83-5.21 214.31M521.752 387.83c.78 32.93 2.37 65.83 4.79 98.68M522.802 261.76c-1.69 42-2.04 84.05-1.05 126.07"/><path stroke="#231815" stroke-linecap="round" stroke-linejoin="round" d="M574.362 539.939c-.21.03-.41.05-.62.08M574.742 539.891c-.13.02-.25.03-.38.05M573.742 540.02c-.26.03-.51.07-.77.11M572.972 540.131c-.1.01-.21.03-.31.04M572.662 540.17l-.99.15"/><path stroke="#231815" stroke-linecap="round" stroke-linejoin="round" stroke-width=".5" d="M517.412 428.05c.05-.1.11-.21.16-.31M517.932 426.079l.06-.47M517.282 428.279c.04-.08.08-.16.13-.24M517.992 425.609v-.08M517.192 428.459c.03-.06.06-.12.1-.18"/><path stroke="#231815" stroke-linecap="round" stroke-linejoin="round" d="M568.162 541.159a.82.82 0 0 0 .54-.3M591.502 537.76c.42-.05.74-.42.74-.84M517.122 428.391c-.12.11-.19.28-.19.44"/><path stroke="#898989" stroke-linecap="round" stroke-linejoin="round" stroke-width=".25" d="m527.512 499.221.48 5.89"/><path stroke="#231815" stroke-linecap="round" stroke-linejoin="round" stroke-width=".5" d="M524.112 158.59c-.04-.09-.09-.18-.13-.27M524.432 160.791v-.08"/><path stroke="#231815" stroke-linecap="round" stroke-linejoin="round" d="M592.242 145.1c0-.43-.32-.79-.74-.84M523.522 157.48c-.02.17.05.34.17.46M524.222 162.27s-.07-.06-.09-.11M524.132 162.17s-.03-.1-.03-.15"/><path stroke="#898989" stroke-linecap="round" stroke-linejoin="round" stroke-width=".25" d="M537.082 544.871c.04-.1.08-.21.12-.31.05-.13.1-.25.15-.38.15-.39.27-.78.37-1.18.08-.3.15-.59.21-.89.09-.42.15-.84.21-1.26.08-.6.13-1.2.17-1.81.06-.79.1-1.59.13-2.38.04-.96.06-1.93.07-2.89.02-1.12.02-2.24.02-3.36 0-1.26-.02-2.51-.05-3.77-.03-1.38-.07-2.75-.13-4.13q-.09-2.205-.21-4.41c-.08-1.47-.18-3.07-.29-4.6s-.22-3.11-.33-4.67-.24-3.13-.36-4.7M537.152 504.04l-.04-.55M537.112 503.49c-.14-1.69-.28-3.39-.41-5.08s-.27-3.39-.4-5.08c-.26-3.39-.51-6.78-.76-10.17a1976.505 1976.505 0 0 1-4.7-101.87c-.28-13.6-.41-27.19-.41-40.79s.15-27.2.44-40.79c.14-6.8.32-13.59.53-20.39s.46-13.59.75-20.38c.28-6.79.6-13.59.96-20.38.35-6.79.74-13.58 1.17-20.36.21-3.39.43-6.79.66-10.18s.47-6.78.71-10.17c.12-1.7.25-3.39.38-5.09l.39-5.08c.13-1.69.27-3.39.4-5.08s.28-3.39.41-5.08M537.232 177.49q.36-4.455.66-8.91c.1-1.46.19-2.91.27-4.37s.14-2.8.2-4.2c.05-1.31.09-2.63.12-3.94.03-1.21.05-2.41.06-3.62v-3.26c-.01-.95-.03-1.9-.06-2.84-.03-.79-.06-1.59-.11-2.38-.04-.63-.09-1.26-.15-1.88-.05-.45-.11-.91-.19-1.36-.06-.32-.13-.63-.21-.94-.06-.25-.12-.5-.19-.74-.05-.19-.11-.37-.18-.55-.09-.25-.19-.5-.29-.75M523.482 177.01c.08-1.17.16-2.35.22-3.52.05-1.05.1-2.1.13-3.15.02-.85.04-1.7.04-2.55 0-.59 0-1.19-.05-1.78M517.642 420.309c.07-.62.11-1.25.14-1.87.04-.9.07-1.8.08-2.7.02-1.11.02-2.22.02-3.33 0-1.24-.03-2.47-.06-3.71M517.312 422.051c.04-.07.06-.16.08-.24.03-.12.06-.25.08-.37.03-.17.06-.34.08-.5.03-.21.06-.42.08-.63M525.622 505.279c.13 1.56.24 3.12.36 4.68.12 1.65.24 3.31.35 4.96.1 1.52.2 3.04.28 4.56.07 1.34.14 2.68.19 4.03.05 1.26.09 2.52.11 3.78s.04 2.43.05 3.64c0 1.09 0 2.19-.02 3.28-.02.92-.04 1.83-.09 2.74-.03.72-.08 1.45-.14 2.17-.05.52-.1 1.04-.19 1.55-.06.37-.15.74-.23 1.11q-.105.465-.24.93c-.07.23-.15.45-.24.68-.03.09-.07.19-.11.28-.03.08-.06.16-.09.25-.03.07-.05.14-.08.2-.02.05-.04.1-.06.16 0 .02-.01.04-.02.06 0 .01 0 .03-.02.04 0 .01-.01.02-.01.04M516.692 423.131v.01l.01-.01.02-.02s.02-.02.02-.03.02-.03.03-.04c.02-.04.05-.08.07-.11.03-.05.06-.1.09-.16.04-.07.07-.13.11-.2l.12-.24c.05-.09.1-.19.14-.28M528.002 505.119c.13 1.62.25 3.24.37 4.86.12 1.7.25 3.41.37 5.11s.22 3.24.32 4.85c.09 1.45.16 2.89.22 4.34.06 1.35.1 2.71.14 4.06s.05 2.6.06 3.89v3.5a96 96 0 0 1-.08 2.93l-.06 1.24c-.02.36-.05.72-.07 1.08-.02.3-.05.61-.09.91-.03.25-.06.49-.1.74-.06.39-.15.77-.24 1.15-.07.32-.15.63-.24.94-.07.23-.15.46-.23.69-.03.09-.07.19-.1.28-.03.08-.06.16-.09.25-.03.07-.05.14-.08.21-.02.05-.04.1-.06.16 0 .02-.01.04-.02.06 0 .01-.01.03-.02.04v.03"/><path stroke="#231815" stroke-linecap="round" stroke-linejoin="round" stroke-width=".5" d="m517.192 428.461-.06.12c-.04.08-.09.15-.14.22M516.992 428.801s-.02.02-.02.03c0 0 0 .01-.02.02h-.01v-.01"/><path stroke="#898989" stroke-linecap="round" stroke-linejoin="round" stroke-width=".25" d="M529.292 157.789c-.04.97-.09 1.95-.14 2.92-.08 1.59-.18 3.17-.29 4.76-.12 1.8-.25 3.6-.38 5.39M528.482 170.869l-.07 1.02M528.412 171.891c-.17 2.34-.35 4.69-.54 7.03l-.6 7.41c-.22 2.73-.42 5.46-.62 8.18-.22 2.99-.44 5.98-.65 8.97-.48 6.87-.92 13.74-1.33 20.61-.49 8.27-.93 16.54-1.31 24.82M526.542 486.51c.01.19.03.38.04.57l.12 1.67M527.342 497.01c.01.19.03.37.04.56.04.55.09 1.1.13 1.65M518.182 422.609c-.08.16-.16.32-.25.48-.03.06-.07.13-.1.19-.03.05-.06.1-.08.15-.02.04-.05.08-.07.12-.02.03-.03.06-.05.09-.01.02-.02.03-.04.05 0 0-.01.02-.02.02M518.232 422.5s0 .02-.01.03c0 .03-.02.05-.03.08"/><path stroke="#231815" stroke-linecap="round" stroke-linejoin="round" stroke-width=".5" d="M517.932 426.08c-.01.09-.03.19-.04.28-.04.23-.07.47-.12.7M517.772 427.061l-.03.15-.09.35M517.642 427.551s-.01.03-.02.05c-.02.04-.03.09-.05.13"/><path stroke="#898989" stroke-linecap="round" stroke-linejoin="round" stroke-width=".25" d="M518.382 414.891v.24M518.382 415.131c0 1.11 0 2.22-.03 3.33-.02.97-.04 1.94-.08 2.91-.03.8-.07 1.59-.12 2.39-.04.59-.09 1.18-.16 1.77M524.502 165.82v.16M525.432 138.02v.02c0 .03.01.04.02.05 0 .02.02.05.03.08.01.04.03.07.04.11.02.04.03.09.05.13.02.05.04.1.06.16.05.12.09.24.14.37.05.14.11.29.16.43.06.18.12.35.17.53.06.22.12.44.17.66.06.24.11.48.17.73a17.098 17.098 0 0 1 .28 2.12c.04.51.08 1.03.11 1.54.03.61.06 1.23.08 1.85.05 1.53.06 3.07.06 4.6 0 1.79-.04 3.59-.09 5.38-.06 1.9-.13 3.8-.23 5.7-.12 2.23-.26 4.45-.42 6.68-.19 2.74-.4 5.47-.62 8.21-.24 3.07-.5 6.14-.74 9.22l-.39 5.06c-.13 1.79-.27 3.58-.4 5.37-.28 3.9-.56 7.79-.82 11.69-.29 4.37-.57 8.74-.83 13.11-.3 4.91-.57 9.82-.83 14.73a1970 1970 0 0 0-2.61 80.27 1989 1989 0 0 0 1.2 97.64q.585 15.99 1.44 31.98c.43 8.18.92 16.36 1.45 24.54q.63 9.585 1.35 19.17c.2 2.68.41 5.35.62 8.03.19 2.37.38 4.74.58 7.1"/><path stroke="#231815" stroke-linecap="round" stroke-linejoin="round" stroke-width=".5" d="M524.112 158.59c.03.07.05.14.07.22.03.11.05.21.07.32M524.252 159.131s0 .04.01.06l.03.2M524.292 159.391c.01.09.03.18.04.28.04.35.07.69.1 1.04M523.522 157.481v-.01h.01c.01 0 .02.02.02.03s.02.03.03.05.03.04.04.07c.02.03.03.06.05.08.02.03.04.07.05.1l.06.12M523.792 157.93s.03.06.04.09c.05.1.1.2.14.3"/><path stroke="#231815" stroke-linecap="round" stroke-linejoin="round" stroke-width=".25" d="M523.572 164.27c-.04-.09-.09-.19-.13-.28-.04-.08-.07-.16-.11-.24-.03-.07-.06-.13-.1-.2-.03-.05-.05-.1-.08-.16-.02-.04-.04-.08-.06-.11 0-.01-.02-.03-.02-.04s-.01-.02-.02-.03l-.02-.02-.01-.01v.01"/><path stroke="#898989" stroke-linecap="round" stroke-linejoin="round" stroke-width=".25" d="M523.822 166.01c-.01-.21-.03-.42-.05-.63-.02-.17-.03-.34-.06-.5-.02-.12-.04-.25-.07-.37-.02-.08-.04-.16-.07-.24"/><path stroke="#231815" stroke-linecap="round" stroke-linejoin="round" d="m591.502 537.75-16.76 2.14M571.672 540.32l-.15.02M571.522 540.34c-.56.09-1.12.18-1.68.28-.39.07-.77.14-1.16.23M568.682 540.85c-.07.02-.15.03-.22.05-.05.01-.11.03-.16.04-.03.01-.07.02-.1.04 0 0-.02 0-.02.01v.01M592.242 536.91c0 .1-.02.2-.05.3M591.992 537.51c-.13.13-.31.22-.49.24M568.462 540.92a.75.75 0 0 1-.3.09M527.972 546.441l8.95-1.14M536.982 545.14l31.18-3.98M523.522 157.48l1.91-19.46M523.002 163.189a1984 1984 0 0 0-6.31 259.95M516.932 428.84c1.71 38.6 4.54 77.15 8.5 115.58M517.562 423.689l.15 3.51M524.312 159.689l-.21 2.33M536.982 137.3l-.06-.15"/><path stroke="#000" stroke-linecap="round" stroke-linejoin="round" stroke-width=".5" d="m764.09 144.32-11 12.58M848.39 529.609h-22.96M797.12 529.609h-22.96M749 505.699h6.29M867.26 505.699h6.29"/><path stroke="gray" stroke-linecap="round" stroke-linejoin="round" stroke-width=".5" d="M749 502.561h3.77M869.77 502.561h3.78"/><path stroke="#000" stroke-linecap="round" stroke-linejoin="round" stroke-width=".5" d="m755.29 505.699 11.01 12.59M823.85 470.949h-25.16M798.69 456.801h25.16M853.1 438.08h-83.66M760.95 429.59V301.9M764.09 144.32V133M766.3 518.289v3.46"/><path stroke="gray" stroke-linecap="round" stroke-linejoin="round" stroke-width=".5" d="M767.24 133v3.46"/><path stroke="#000" stroke-linecap="round" stroke-linejoin="round" stroke-width=".5" d="M773.84 136.461v4.4M797.12 548.479v-18.87M798.69 140.861v-4.4"/><path stroke="gray" stroke-linecap="round" stroke-linejoin="round" stroke-width=".5" d="M801.84 548.48v-3.46"/><path stroke="#000" stroke-linecap="round" stroke-linejoin="round" stroke-width=".5" d="M804.2 213.83v-25.16M818.35 188.67v25.16M823.85 136.461v4.4M825.43 548.479v-18.87"/><path stroke="gray" stroke-linecap="round" stroke-linejoin="round" stroke-width=".5" d="M839.58 282.399v-17.62M844.3 264.779v17.62"/><path stroke="#000" stroke-linecap="round" stroke-linejoin="round" stroke-width=".5" d="M848.7 140.861v-4.4"/><path stroke="gray" stroke-linecap="round" stroke-linejoin="round" stroke-width=".5" d="M853.73 282.399v-17.62M855.31 136.46V133"/><path stroke="#000" stroke-linecap="round" stroke-linejoin="round" stroke-width=".5" d="M856.25 521.749v-3.46"/><path stroke="gray" stroke-linecap="round" stroke-linejoin="round" stroke-width=".5" d="M858.45 264.779v17.62"/><path stroke="#000" stroke-linecap="round" stroke-linejoin="round" stroke-width=".5" d="M858.45 144.32V133M861.6 301.9v127.69M769.44 293.4h83.66"/><path stroke="gray" stroke-linecap="round" stroke-linejoin="round" stroke-width=".5" d="M856.25 284.6h-.32M842.1 284.6h-.32M854.19 283.74h-10.35M853.74 282.551h-9.45M853.73 277.92h-9.43M853.73 274.141h-9.43M853.73 273.039h-9.43M853.73 269.25h-9.43M844.29 264.631h9.45M843.84 263.439h10.35M841.78 262.58h.32M855.93 262.58h.32"/><path stroke="#000" stroke-linecap="round" stroke-linejoin="round" stroke-width=".5" d="m856.25 518.289 11.01-12.59M869.46 156.9l-11.01-12.58"/><path stroke="gray" stroke-linecap="round" stroke-linejoin="round" stroke-width=".5" d="M873.55 160.051h-3.78M752.77 160.051H749"/><path stroke="#000" stroke-linecap="round" stroke-linejoin="round" stroke-width=".5" d="M749 156.9h4.09M869.46 156.9h4.09M848.7 140.859h-24.85M798.69 140.859h-24.85M764.09 136.77h9.75M798.69 136.77h25.16M848.7 136.77h9.75M858.45 136.461h-94.36M764.09 133h94.36M853.1 438.08c4.69 0 8.49-3.8 8.49-8.49M760.95 429.59c0 4.69 3.8 8.49 8.49 8.49M769.44 293.4c-4.69 0-8.49 3.8-8.49 8.49M861.6 301.9c0-4.69-3.8-8.49-8.49-8.49M848.39 529.61c4.34 0 7.86-3.52 7.86-7.86M766.3 521.75c0 4.34 3.52 7.86 7.86 7.86M804.2 213.83a7.08 7.08 0 0 0 14.16 0M818.35 188.67a7.08 7.08 0 0 0-14.16 0M823.85 470.949a7.08 7.08 0 0 0 0-14.16M798.69 456.801a7.08 7.08 0 0 0 0 14.16"/><path stroke="gray" stroke-linecap="round" stroke-linejoin="round" stroke-width=".5" d="M858.45 264.78a2.2 2.2 0 0 0-2.2-2.2M855.93 262.58a2.2 2.2 0 0 0-2.2 2.2M844.3 264.78a2.2 2.2 0 0 0-2.2-2.2M841.78 262.58a2.2 2.2 0 0 0-2.2 2.2M856.25 284.6a2.2 2.2 0 0 0 2.2-2.2M853.73 282.4c0 1.22.99 2.2 2.2 2.2M842.1 284.6a2.2 2.2 0 0 0 2.2-2.2M839.58 282.4c0 1.22.99 2.2 2.2 2.2M820.71 548.48v-3.46"/><path stroke="#000" stroke-linecap="round" stroke-linejoin="round" stroke-width=".5" d="M797.12 545.02h28.31M825.43 544.711h-28.31M825.43 548.48h-28.31"/><path stroke="#000" stroke-linecap="round" stroke-linejoin="round" stroke-width=".25" d="M753.09 505.7V156.9M752.77 505.7V156.9"/><path stroke="#000" stroke-linecap="round" stroke-linejoin="round" stroke-width=".5" d="M749 505.7V156.9M873.55 156.9v348.8"/><path stroke="#000" stroke-linecap="round" stroke-linejoin="round" stroke-width=".25" d="M869.46 156.9v348.8M869.77 505.7V156.9"/><path stroke="#000" stroke-linecap="round" stroke-linejoin="round" d="m764.09 144.32-11 12.58M848.39 529.609h-22.96M797.12 529.609h-22.96M749 505.699h6.29M867.26 505.699h6.29M755.29 505.699l11.01 12.59M764.09 144.32V133M766.3 518.289v3.46M797.12 548.479v-18.87M825.43 548.479v-18.87M856.25 521.749v-3.46M858.45 144.32V133M856.25 518.289l11.01-12.59M869.46 156.9l-11.01-12.58M749 156.9h4.09M869.46 156.9h4.09M764.09 133h94.36M848.39 529.61c4.34 0 7.86-3.52 7.86-7.86M766.3 521.75c0 4.34 3.52 7.86 7.86 7.86M825.43 548.48h-28.31M749 505.7V156.9M873.55 156.9v348.8"/></svg>