<svg xmlns="http://www.w3.org/2000/svg" width="1140" height="663" fill="none" viewBox="0 0 1140 663"><path fill="#fff" d="M0 0h1140v663H0z"/><path fill="#000" d="M200.146 104.646a.5.5 0 0 0 0 .708l3.182 3.182a.502.502 0 0 0 .708-.708L201.207 105l2.829-2.828a.502.502 0 0 0-.708-.708zm222.708.708a.5.5 0 0 0 0-.708l-3.182-3.182a.502.502 0 0 0-.708.708l2.829 2.828-2.829 2.828a.502.502 0 0 0 .708.708zM200.5 105v.5h222v-1h-222z"/><path stroke="#000" d="M199.5 101v8M423.5 101v8"/><path fill="#000" d="M169.354 135.646a.5.5 0 0 0-.708 0l-3.182 3.182a.502.502 0 0 0 .708.708l2.828-2.829 2.828 2.829a.502.502 0 0 0 .708-.708zm-.708 364.708a.5.5 0 0 0 .708 0l3.182-3.182a.502.502 0 0 0-.708-.708L169 499.293l-2.828-2.829a.502.502 0 0 0-.708.708zM169 136h-.5v364h1V136z"/><path stroke="#000" d="M165 135h8M165 501h8"/><path fill="#000" d="M541.146 105.646a.5.5 0 0 0 0 .708l3.182 3.182a.502.502 0 0 0 .708-.708L542.207 106l2.829-2.828a.502.502 0 0 0-.708-.708zm69.708.708a.5.5 0 0 0 0-.708l-3.182-3.182a.502.502 0 0 0-.708.708l2.829 2.828-2.829 2.828a.502.502 0 0 0 .708.708zM541.5 106v.5h69v-1h-69z"/><path stroke="#000" d="M540.5 102v8M611.5 102v8"/><path fill="#000" d="M737.81 540.47h12.3v1.02h-12.3zm5.505.63h1.23v5.055h-1.23zm-3.93-7.755h9.15v5.295h-9.15zm7.92 1.005H740.6v3.3h6.705zm14.654-1.755h1.2v13.575h-1.2zm-5.895 5.55h3.42v1.005h-3.42zm3.075-5.19h1.17v12.525h-1.17zm-2.91 1.365h1.2q0 1.77-.51 3.405a9.1 9.1 0 0 1-1.62 3.03q-1.125 1.395-2.955 2.49l-.72-.9q1.59-.96 2.61-2.16a8.2 8.2 0 0 0 1.5-2.625q.495-1.425.495-3.015zm-4.02 0h4.485v1.02h-4.485zm14.53 9.284a.92.92 0 0 1-.676-.282.92.92 0 0 1-.283-.676.92.92 0 0 1 .283-.677.92.92 0 0 1 .676-.282q.394 0 .677.282a.92.92 0 0 1 .282.677.9.9 0 0 1-.133.479 1 1 0 0 1-.346.352.9.9 0 0 1-.48.127m0-5.518a.92.92 0 0 1-.676-.282.92.92 0 0 1-.283-.677q0-.394.283-.676a.92.92 0 0 1 .676-.283q.394 0 .677.283a.92.92 0 0 1 .282.676.9.9 0 0 1-.133.48 1 1 0 0 1-.346.351.9.9 0 0 1-.48.128m10.821 7.063q-.938 0-1.688-.373a3.13 3.13 0 0 1-1.204-1.022 2.8 2.8 0 0 1-.495-1.481h1.278q.074.74.671 1.225.602.479 1.438.479.671 0 1.194-.314.526-.314.825-.863.304-.554.304-1.252 0-.714-.315-1.273a2.3 2.3 0 0 0-.852-.889 2.4 2.4 0 0 0-1.241-.331 3.4 3.4 0 0 0-1.028.155 2.9 2.9 0 0 0-.868.399l-1.236-.149.661-5.369h5.667v1.172h-4.56l-.383 3.217h.064q.336-.266.841-.442a3.2 3.2 0 0 1 1.055-.176q1.002 0 1.785.48.788.474 1.235 1.299.453.826.453 1.886 0 1.044-.469 1.864a3.4 3.4 0 0 1-1.278 1.289q-.814.47-1.854.469m5.717-.149v-.959l3.601-3.942a24 24 0 0 0 1.044-1.203 4.4 4.4 0 0 0 .607-.97q.203-.458.203-.959 0-.575-.277-.996a1.8 1.8 0 0 0-.746-.65 2.4 2.4 0 0 0-1.065-.229q-.628 0-1.098.261-.463.256-.719.719-.25.464-.25 1.087h-1.257q0-.959.442-1.683t1.204-1.129a3.6 3.6 0 0 1 1.72-.405q.96 0 1.7.405.74.404 1.161 1.092.42.687.421 1.528 0 .602-.219 1.178-.213.57-.746 1.273a23 23 0 0 1-1.464 1.704l-2.451 2.621v.085h5.071V545zm16.625 3.239q-.91 0-1.566-.235a3.3 3.3 0 0 1-1.092-.607 3.3 3.3 0 0 1-.687-.799l1.001-.703q.171.223.432.511.261.294.713.506.459.219 1.199.219.99 0 1.635-.48.645-.479.645-1.502v-1.662h-.107a7 7 0 0 1-.394.554q-.25.325-.724.581-.47.25-1.268.25a3.4 3.4 0 0 1-1.779-.469q-.783-.468-1.241-1.363-.453-.895-.453-2.174 0-1.256.442-2.189.442-.937 1.23-1.449.789-.516 1.822-.516.799 0 1.268.266.474.261.724.597.256.33.394.543h.128v-1.3h1.215v8.416q0 1.055-.48 1.716a2.73 2.73 0 0 1-1.278.974 4.8 4.8 0 0 1-1.779.315m-.043-4.496q.757 0 1.279-.346t.793-.996q.272-.65.272-1.556 0-.884-.266-1.561-.267-.676-.789-1.06-.522-.383-1.289-.383-.798 0-1.331.405a2.46 2.46 0 0 0-.794 1.086 4.2 4.2 0 0 0-.261 1.513q0 .852.266 1.508.272.65.799 1.022.533.368 1.321.368m10.547-3.345q0-2.014.522-3.702.528-1.695 1.502-3.116h1.108a7 7 0 0 0-.719 1.299q-.33.767-.58 1.689a16 16 0 0 0-.395 1.896 14 14 0 0 0-.138 1.934q0 1.267.245 2.573.245 1.304.66 2.423t.927 1.822h-1.108a11.6 11.6 0 0 1-1.502-3.111q-.522-1.694-.522-3.707m8.022-.948h1.245v3.225h-1.245zm.615-5.97q1.035 0 1.845.405.81.39 1.275 1.11t.465 1.68q0 .93-.465 1.665a3.17 3.17 0 0 1-1.275 1.125q-.81.39-1.845.39-1.05 0-1.86-.39a3.17 3.17 0 0 1-1.275-1.125 3.05 3.05 0 0 1-.465-1.665q0-.96.465-1.68t1.275-1.11q.81-.405 1.86-.405m0 1.065q-.69 0-1.23.27-.54.255-.855.735-.3.48-.3 1.125 0 .63.3 1.11.315.48.855.75t1.23.27 1.215-.27q.54-.27.84-.75.315-.48.315-1.11a2 2 0 0 0-1.155-1.86q-.525-.27-1.215-.27m5.13-1.95h1.23v13.575h-1.23zm.885 5.595h2.505v1.05h-2.505zm-10.035 5.04-.195-1.035 2.67-.03q1.455-.015 2.94-.105 1.5-.09 2.88-.27l.09.93q-1.425.24-2.91.36-1.485.105-2.895.135-1.395.015-2.58.015m23.684-10.635h1.245v13.59h-1.245zm-2.94 2.955h3.6v1.035h-3.6zm0 3.36h3.6v1.05h-3.6zm-3.48-5.145h1.02v2.43q0 1.125-.285 2.22a9.2 9.2 0 0 1-.795 2.025 7.6 7.6 0 0 1-1.185 1.68q-.675.735-1.485 1.17l-.78-.99q.75-.36 1.38-1.005.645-.645 1.125-1.47.48-.84.735-1.755.27-.93.27-1.875zm.255 0h1.005v2.43q0 .915.255 1.83.27.9.75 1.695t1.11 1.41q.645.615 1.38.975l-.75 1.005a5.8 5.8 0 0 1-1.515-1.125 8.3 8.3 0 0 1-1.185-1.635q-.495-.915-.78-1.98a8.8 8.8 0 0 1-.27-2.175zm14.972-.285h6.33v5.535h-6.33zm5.115.99h-3.9v3.555h3.9zm4.05-1.875h1.245v7.785h-1.245zm-3.69 9.405h1.065v.255q0 .735-.42 1.38-.405.63-1.125 1.155-.72.51-1.65.84a9.6 9.6 0 0 1-1.95.495l-.435-.96a8.7 8.7 0 0 0 2.61-.75q.57-.285.99-.63.435-.345.675-.735a1.5 1.5 0 0 0 .24-.795zm.195 0h1.08v.255q0 .48.36.96t.975.885q.63.39 1.425.675.81.285 1.695.39l-.435.96q-1.035-.15-1.95-.495a6.9 6.9 0 0 1-1.635-.87q-.705-.525-1.11-1.155-.405-.645-.405-1.35zm-4.17-.69h9.225v.96h-9.225zm3.99-1.32h1.26v1.755h-1.26zm13.443-7.185h1.23v1.275h6.57v-1.275h1.23v4.485h-9.03zm1.23 2.22v1.29h6.57v-1.29zm-2.85 3.57h12.255v1.005h-12.255zm5.49-1.77h1.23v2.085h-1.23zm-4.005 3.885h9.195v3.03h-7.95v1.665h-1.215v-2.565h7.95v-1.185h-7.98zm.03 4.335h9.57v.975h-9.57zm13.858-5.13h9.315v1.005H880.2zm-1.575 3.465h12.3v1.035h-12.3zm1.575-9.615h9.18v1.02h-7.92v5.43h-1.26zm.87 3.015h8.01v1.005h-8.01zm15.573 6.66h12.3v1.05h-12.3zm5.49-3.51h1.23v3.975h-1.23zm-4.41-6.03h10.065v1.02h-10.065zm.03 5.46h10.005v.99h-10.005zm2.07-4.65h1.245v4.815h-1.245zm4.62 0h1.23v4.815h-1.23zm15.284-2.115h1.245v8.175h-1.245zm.9 3.6h2.34v1.05h-2.34zm-8.175 5.34h8.52v4.455h-8.52zm7.29 1.005h-6.075v2.43h6.075zm-9.27-8.505h8.01v1.005h-8.01zm4.005 1.68q.975 0 1.695.3.735.3 1.14.855.405.54.405 1.26 0 .735-.405 1.275t-1.14.84q-.72.3-1.695.3t-1.71-.3q-.72-.3-1.14-.84a2.07 2.07 0 0 1-.405-1.275q0-.72.405-1.26.42-.555 1.14-.855.735-.3 1.71-.3m0 .96q-.93 0-1.5.39-.555.39-.555 1.065t.555 1.08q.57.39 1.5.39.915 0 1.485-.39.57-.405.57-1.08t-.57-1.065q-.555-.39-1.485-.39m-.615-4.185h1.245v2.055h-1.245zm13.464 7.908q0 2.013-.527 3.707a11.4 11.4 0 0 1-1.497 3.111h-1.108q.383-.528.714-1.3.335-.767.586-1.683.25-.921.388-1.902a13.4 13.4 0 0 0-.101-4.506 15 15 0 0 0-.66-2.424q-.416-1.118-.927-1.821h1.108q.975 1.421 1.497 3.116.527 1.688.527 3.702M535.706 74.635h9.06v1.02h-9.06zm-1.695 2.79h12.3v1.02h-12.3zm5.505.57h1.23v5.13h-1.23zm-3.81-7.605h8.88v1.02h-7.62v3.72h-1.26zm14.384.84h1.065q0 1.08-.105 2.22-.09 1.125-.345 2.25-.24 1.11-.705 2.19-.45 1.08-1.185 2.07l-.975-.57q.705-.9 1.14-1.875.45-.975.69-1.995.24-1.035.33-2.085.09-1.065.09-2.115zm-1.965 0h2.58v1.02h-2.58zm4.95 0h1.065q0 1.065-.075 2.28-.06 1.215-.285 2.49a13 13 0 0 1-.675 2.505 9.6 9.6 0 0 1-1.275 2.325l-.975-.57q.615-.81 1.02-1.695.42-.9.66-1.83.24-.945.36-1.86.12-.93.15-1.83t.03-1.725zm-1.485 0h2.145v1.02h-2.145zm6.615-1.635h1.2V83.17h-1.2zm-4.695 5.325h2.445v1.035h-2.445zm2.19-4.965h1.17V82.48h-1.17zm7.24 10.65a.92.92 0 0 1-.676-.283.92.92 0 0 1-.283-.676q0-.395.283-.677a.92.92 0 0 1 .676-.282q.395 0 .677.282a.92.92 0 0 1 .282.677.997.997 0 0 1-.479.831.9.9 0 0 1-.48.127m0-5.52a.92.92 0 0 1-.676-.281.92.92 0 0 1-.283-.677q0-.394.283-.676a.92.92 0 0 1 .676-.283q.395 0 .677.283a.92.92 0 0 1 .282.676.997.997 0 0 1-.479.831.9.9 0 0 1-.48.128M570.352 82v-.959l3.601-3.942q.634-.691 1.044-1.203.41-.517.608-.97.202-.458.202-.959 0-.575-.277-.996a1.8 1.8 0 0 0-.746-.65 2.4 2.4 0 0 0-1.065-.229q-.629 0-1.097.261-.463.255-.72.72-.25.462-.25 1.086h-1.257q0-.96.442-1.683.442-.725 1.204-1.13a3.6 3.6 0 0 1 1.72-.404q.96 0 1.7.405t1.161 1.092.421 1.528q0 .603-.219 1.177-.213.57-.745 1.274-.528.697-1.465 1.704l-2.451 2.62v.086h5.072V82zm12.492.15a3.75 3.75 0 0 1-1.689-.374 3.14 3.14 0 0 1-1.204-1.022 2.8 2.8 0 0 1-.495-1.481h1.278q.075.74.671 1.225.602.48 1.439.48.67 0 1.193-.315.526-.314.825-.863.304-.555.304-1.252 0-.714-.314-1.273a2.3 2.3 0 0 0-.853-.89 2.4 2.4 0 0 0-1.241-.33 3.4 3.4 0 0 0-1.028.155 2.9 2.9 0 0 0-.868.4l-1.236-.15.661-5.37h5.667v1.173h-4.559l-.384 3.217h.064q.336-.266.842-.442a3.2 3.2 0 0 1 1.054-.176q1.002 0 1.785.48.788.474 1.236 1.3.452.825.452 1.885 0 1.044-.468 1.864a3.4 3.4 0 0 1-1.279 1.29q-.815.468-1.853.468M592.8 82v-8.182h1.215v1.279h.106a2.06 2.06 0 0 1 .826-1.018q.57-.367 1.369-.367.81 0 1.348.367.543.362.847 1.018h.085q.314-.635.943-1.007.628-.378 1.507-.378 1.098 0 1.795.687.698.681.698 2.125V82h-1.257v-5.476q0-.905-.495-1.294a1.84 1.84 0 0 0-1.167-.39q-.863 0-1.337.523-.474.516-.474 1.31V82h-1.278v-5.604q0-.698-.453-1.124-.453-.43-1.167-.431-.49 0-.916.26-.42.262-.682.725-.255.46-.255 1.06V82zm13.038 0v-8.182h1.214v1.279h.107q.255-.655.825-1.018.57-.367 1.369-.367.81 0 1.348.367.543.362.847 1.018h.085q.315-.635.943-1.007.628-.378 1.507-.378 1.098 0 1.795.687.698.681.698 2.125V82h-1.257v-5.476q0-.905-.495-1.294a1.84 1.84 0 0 0-1.167-.39q-.863 0-1.337.523-.474.516-.474 1.31V82h-1.278v-5.604q0-.698-.453-1.124-.453-.43-1.167-.431-.49 0-.916.26-.42.262-.682.725-.255.46-.255 1.06V82zM279.001 68.595h1.245v13.56h-1.245zm.915 5.505h2.49v1.035h-2.49zm-4.38-4.05h1.215q0 1.935-.63 3.705-.63 1.755-1.98 3.255-1.35 1.485-3.555 2.58l-.69-.96q1.89-.945 3.135-2.205 1.26-1.275 1.875-2.82.63-1.56.63-3.36zm-5.01 0h5.64v1.035h-5.64zm13.094 9.405h12.3v1.035h-12.3zm5.505-2.895h1.23v3.33h-1.23zm-4.005-6.96h9.27v4.11h-8.01v2.715h-1.23V72.72h8.01v-2.1h-8.04zm.03 6.3h9.555v1.02h-9.555zm13.585 3.704a.92.92 0 0 1-.676-.282.92.92 0 0 1-.283-.676q0-.395.283-.677a.92.92 0 0 1 .676-.282q.394 0 .677.282a.92.92 0 0 1 .282.677.997.997 0 0 1-.479.831.9.9 0 0 1-.48.127m0-5.518a.92.92 0 0 1-.676-.282.92.92 0 0 1-.283-.677q0-.394.283-.676a.92.92 0 0 1 .676-.283q.394 0 .677.283a.92.92 0 0 1 .282.676.997.997 0 0 1-.479.831.9.9 0 0 1-.48.128m10.907 7.063q-1.098 0-1.939-.389-.837-.394-1.305-1.081a2.7 2.7 0 0 1-.464-1.577 2.9 2.9 0 0 1 1.028-2.264 2.3 2.3 0 0 1 1.082-.506v-.063a2.1 2.1 0 0 1-1.247-.88 2.67 2.67 0 0 1-.458-1.55 2.64 2.64 0 0 1 .421-1.486 2.96 2.96 0 0 1 1.172-1.033q.75-.378 1.71-.378.948 0 1.694.378.745.378 1.171 1.033.432.656.437 1.487a2.7 2.7 0 0 1-.474 1.55 2.1 2.1 0 0 1-1.23.879v.063q.591.107 1.065.506.474.395.756.986.283.586.288 1.278a2.76 2.76 0 0 1-.479 1.577q-.47.688-1.305 1.081-.831.39-1.923.39m0-1.172q.74 0 1.278-.24a1.9 1.9 0 0 0 .831-.676q.293-.437.298-1.023a1.96 1.96 0 0 0-.319-1.092 2.2 2.2 0 0 0-.858-.745 2.7 2.7 0 0 0-1.23-.272q-.698 0-1.247.272-.543.271-.857.745a1.9 1.9 0 0 0-.304 1.092q-.005.587.282 1.023a1.9 1.9 0 0 0 .837.677q.543.24 1.289.24m0-5.177q.586 0 1.038-.235.459-.234.719-.655.261-.42.267-.985a1.83 1.83 0 0 0-.261-.964 1.7 1.7 0 0 0-.709-.64 2.3 2.3 0 0 0-1.054-.229q-.613 0-1.071.23-.458.223-.708.639a1.8 1.8 0 0 0-.246.964q-.005.565.251.985.261.421.719.655t1.055.235m9.307 6.35q-1.204-.001-2.051-.656-.847-.66-1.294-1.912-.448-1.257-.448-3.036 0-1.77.448-3.02.452-1.258 1.299-1.918.852-.666 2.046-.666t2.04.666q.852.66 1.3 1.917.452 1.252.452 3.02 0 1.78-.447 3.037-.447 1.251-1.294 1.912-.848.655-2.051.655m0-1.173q1.193 0 1.853-1.15.661-1.15.661-3.281 0-1.418-.304-2.414-.298-.996-.863-1.518a1.9 1.9 0 0 0-1.347-.522q-1.183 0-1.849 1.167-.665 1.161-.665 3.287 0 1.416.298 2.407.299.99.857 1.508.565.516 1.359.516M329.006 81v-8.182h1.214v1.279h.107q.255-.655.825-1.018.57-.367 1.369-.367.81 0 1.348.367.543.362.847 1.018h.085q.315-.635.943-1.007.628-.378 1.507-.378 1.098 0 1.795.687.699.681.698 2.125V81h-1.257v-5.476q0-.905-.495-1.294a1.84 1.84 0 0 0-1.167-.39q-.863 0-1.337.523-.474.516-.474 1.31V81h-1.278v-5.604q0-.698-.453-1.124-.453-.43-1.167-.431-.49 0-.916.26-.42.262-.682.725-.255.46-.255 1.06V81zm13.037 0v-8.182h1.214v1.279h.107q.255-.655.825-1.018.57-.367 1.369-.367.81 0 1.348.367.543.362.847 1.018h.085q.315-.635.943-1.007.628-.378 1.507-.378 1.098 0 1.795.687.699.681.698 2.125V81h-1.257v-5.476q0-.905-.495-1.294a1.83 1.83 0 0 0-1.167-.39q-.863 0-1.337.523-.474.516-.474 1.31V81h-1.278v-5.604q0-.698-.453-1.124-.453-.43-1.167-.431-.49 0-.916.26-.42.262-.682.725-.255.46-.255 1.06V81zM794.107 87.595h1.245v13.56h-1.245zm.915 5.505h2.49v1.035h-2.49zm-4.38-4.05h1.215q0 1.935-.63 3.705-.63 1.755-1.98 3.255-1.35 1.485-3.555 2.58l-.69-.96q1.89-.945 3.135-2.205 1.26-1.275 1.875-2.82.63-1.56.63-3.36zm-5.01 0h5.64v1.035h-5.64zm13.094 9.405h12.3v1.035h-12.3zm5.505-2.895h1.23v3.33h-1.23zm-4.005-6.96h9.27v4.11h-8.01v2.715h-1.23V91.72h8.01v-2.1h-8.04zm.03 6.3h9.555v1.02h-9.555zm13.585 3.704a.92.92 0 0 1-.676-.282.92.92 0 0 1-.283-.676.92.92 0 0 1 .283-.677.92.92 0 0 1 .676-.282q.394 0 .677.282a.92.92 0 0 1 .282.677.997.997 0 0 1-.479.831.9.9 0 0 1-.48.127m0-5.518a.92.92 0 0 1-.676-.282.92.92 0 0 1-.283-.677.92.92 0 0 1 .283-.676.92.92 0 0 1 .676-.283q.394 0 .677.283a.92.92 0 0 1 .282.676.997.997 0 0 1-.479.831.9.9 0 0 1-.48.128m7.753 6.914 4.879-9.652v-.085h-5.625V89.09h6.989v1.236L822.979 100zm8.229 0v-.959l3.6-3.942q.634-.691 1.045-1.203.41-.517.607-.97.202-.458.202-.959 0-.575-.277-.996a1.8 1.8 0 0 0-.746-.65 2.4 2.4 0 0 0-1.065-.229q-.629 0-1.097.261-.464.255-.719.72a2.25 2.25 0 0 0-.251 1.086h-1.257q0-.96.442-1.683.442-.725 1.204-1.13a3.6 3.6 0 0 1 1.721-.404q.958 0 1.699.405t1.161 1.092q.421.687.421 1.528 0 .603-.218 1.177-.213.57-.746 1.274-.528.697-1.465 1.704l-2.45 2.62v.086h5.071V100zm10.019.085a.92.92 0 0 1-.676-.282.92.92 0 0 1-.283-.677.92.92 0 0 1 .283-.676.92.92 0 0 1 .676-.282q.394 0 .677.282a.92.92 0 0 1 .282.676.997.997 0 0 1-.479.831.9.9 0 0 1-.48.128m2.938-2.322v-1.087l4.794-7.585h.788v1.683h-.532l-3.623 5.732v.085h6.456v1.172zm5.135 2.237V89.091h1.257V100zm8.985 0v-8.182h1.214v1.279h.107q.255-.655.825-1.018.57-.367 1.369-.367.81 0 1.348.367.543.362.847 1.018h.085q.315-.635.943-1.007.628-.378 1.507-.378 1.098 0 1.795.687.699.681.698 2.125V100h-1.257v-5.476q0-.905-.495-1.294a1.84 1.84 0 0 0-1.167-.39q-.863 0-1.337.523-.474.516-.474 1.31V100h-1.278v-5.604q0-.698-.453-1.124-.453-.43-1.167-.431-.49 0-.916.26-.42.262-.682.725-.255.46-.255 1.06V100zm13.037 0v-8.182h1.214v1.279h.107q.255-.655.825-1.018.57-.367 1.369-.367.81 0 1.348.367.543.362.847 1.018h.085q.315-.635.943-1.007.629-.378 1.507-.378 1.098 0 1.796.687.697.681.697 2.125V100h-1.257v-5.476q0-.905-.495-1.294a1.83 1.83 0 0 0-1.167-.39q-.863 0-1.337.523-.474.516-.474 1.31V100h-1.278v-5.604q0-.698-.453-1.124-.453-.43-1.167-.431-.49 0-.916.26-.42.262-.682.725-.255.46-.255 1.06V100zM62.52 315.455h2.61v1.035h-2.61zM60 311.87h.976v2.595q0 1.05-.225 2.07-.21 1.02-.63 1.92-.405.9-.99 1.62t-1.32 1.17l-.78-.93q.69-.42 1.245-1.05t.93-1.41q.39-.795.585-1.65.21-.87.21-1.74zm.24 0h.96v2.55q0 .81.18 1.635.195.81.54 1.56.36.735.886 1.35.525.615 1.185 1.02l-.705.96q-.735-.45-1.305-1.14a7.1 7.1 0 0 1-.96-1.575 9 9 0 0 1-.585-1.86 10 10 0 0 1-.195-1.95zm7.276-1.275h1.2v13.575h-1.2zm-2.76.285h1.17v12.6h-1.17zm6.224 10.575h12.3v1.035h-12.3zm5.504-2.895h1.23v3.33h-1.23zm-4.004-6.96h9.27v4.11h-8.01v2.715h-1.23v-3.705h8.01v-2.1h-8.04zm.03 6.3h9.554v1.02H72.51zm13.585 3.704a.92.92 0 0 1-.676-.282.92.92 0 0 1-.283-.676q0-.395.283-.677a.92.92 0 0 1 .676-.282q.394 0 .677.282a.92.92 0 0 1 .282.677.9.9 0 0 1-.133.479 1 1 0 0 1-.347.352.9.9 0 0 1-.479.127m0-5.518a.92.92 0 0 1-.676-.282.93.93 0 0 1-.283-.677q0-.394.283-.676a.92.92 0 0 1 .676-.283.92.92 0 0 1 .677.283.92.92 0 0 1 .282.676.9.9 0 0 1-.133.48 1 1 0 0 1-.347.351.9.9 0 0 1-.479.128m11.247-3.995V323h-1.32v-9.524h-.065l-2.663 1.768v-1.342l2.727-1.811zm6.824 11.058q-1.055 0-1.88-.362-.82-.363-1.305-1.007a2.7 2.7 0 0 1-.522-1.507h1.342q.042.527.362.911a2.1 2.1 0 0 0 .836.586 3.1 3.1 0 0 0 1.146.207q.703 0 1.246-.245.543-.244.852-.682.309-.436.309-1.012a1.9 1.9 0 0 0-.298-1.06q-.298-.463-.874-.724-.575-.261-1.406-.261h-.873v-1.172h.873a2.6 2.6 0 0 0 1.14-.234q.495-.235.772-.661.283-.426.283-1.001 0-.555-.245-.964a1.7 1.7 0 0 0-.693-.64q-.441-.229-1.044-.229-.564 0-1.065.208-.495.202-.81.591a1.55 1.55 0 0 0-.341.927h-1.278a2.6 2.6 0 0 1 .517-1.502 3.25 3.25 0 0 1 1.267-1.012 4.1 4.1 0 0 1 1.732-.362q1.011 0 1.736.41.725.405 1.113 1.071.39.665.389 1.438 0 .921-.485 1.571a2.45 2.45 0 0 1-1.305.9v.086q1.033.17 1.614.879.58.702.581 1.741 0 .89-.485 1.598a3.3 3.3 0 0 1-1.31 1.108q-.83.405-1.891.405m9.423 0q-1.204 0-2.051-.655-.847-.66-1.294-1.912-.448-1.257-.448-3.037 0-1.768.448-3.02.453-1.257 1.299-1.917.853-.666 2.046-.666t2.04.666q.852.66 1.3 1.917.453 1.252.452 3.02 0 1.78-.447 3.037-.447 1.251-1.294 1.912-.848.655-2.051.655m0-1.172q1.192 0 1.854-1.15.66-1.15.66-3.282 0-1.416-.304-2.413-.297-.996-.862-1.518a1.9 1.9 0 0 0-1.348-.522q-1.183 0-1.848 1.167-.666 1.162-.666 3.286 0 1.418.298 2.408.299.991.858 1.508.564.516 1.358.516M123.646 323v-8.182h1.214v1.279h.107q.255-.655.825-1.018.57-.367 1.369-.367.81 0 1.348.367.543.363.847 1.018h.085q.315-.635.943-1.007.628-.378 1.507-.378 1.097 0 1.796.687.697.682.697 2.125V323h-1.257v-5.476q0-.906-.495-1.294a1.84 1.84 0 0 0-1.167-.389q-.863 0-1.337.522-.474.516-.474 1.31V323h-1.278v-5.604q0-.698-.453-1.124-.453-.43-1.167-.431-.49 0-.916.261-.42.26-.682.724-.255.459-.255 1.06V323zm13.037 0v-8.182h1.214v1.279h.107q.255-.655.825-1.018.57-.367 1.369-.367.81 0 1.348.367.543.363.847 1.018h.085q.315-.635.943-1.007.629-.378 1.508-.378 1.096 0 1.795.687.697.682.697 2.125V323h-1.257v-5.476q0-.906-.495-1.294a1.84 1.84 0 0 0-1.167-.389q-.863 0-1.337.522-.474.516-.474 1.31V323h-1.278v-5.604q0-.698-.453-1.124-.453-.43-1.166-.431-.49 0-.917.261-.42.26-.681.724a2.13 2.13 0 0 0-.256 1.06V323zM991.173 316.455h2.61v1.035h-2.61zm-2.52-3.585h.975v2.595q0 1.05-.225 2.07-.21 1.02-.63 1.92-.405.9-.99 1.62t-1.32 1.17l-.78-.93q.69-.42 1.245-1.05t.93-1.41q.39-.795.585-1.65.21-.87.21-1.74zm.24 0h.96v2.55q0 .81.18 1.635.195.81.54 1.56.36.735.885 1.35t1.185 1.02l-.705.96q-.735-.45-1.305-1.14a7.1 7.1 0 0 1-.96-1.575 9 9 0 0 1-.585-1.86 10 10 0 0 1-.195-1.95zm7.275-1.275h1.2v13.575h-1.2zm-2.76.285h1.17v12.6h-1.17zm6.224 10.575h12.298v1.035h-12.298zm5.508-2.895h1.23v3.33h-1.23zm-4.01-6.96h9.27v4.11h-8.01v2.715h-1.23v-3.705h8.01v-2.1h-8.04zm.03 6.3h9.56v1.02h-9.56zm13.59 3.704a.94.94 0 0 1-.68-.282.91.91 0 0 1-.28-.676c0-.263.09-.489.28-.677a.94.94 0 0 1 .68-.282.9.9 0 0 1 .67.282c.19.188.29.414.29.677 0 .174-.05.333-.14.479a1 1 0 0 1-.34.352.9.9 0 0 1-.48.127m0-5.518a.94.94 0 0 1-.68-.282.92.92 0 0 1-.28-.677c0-.263.09-.488.28-.676a.94.94 0 0 1 .68-.283c.26 0 .49.094.67.283a.92.92 0 0 1 .15 1.156 1 1 0 0 1-.34.351.9.9 0 0 1-.48.128m11.25-3.995V324h-1.33v-9.524h-.06l-2.66 1.768v-1.342l2.72-1.811zm6.97 0V324h-1.32v-9.524h-.07l-2.66 1.768v-1.342l2.73-1.811zm6.76 11.058c-.45-.007-.9-.092-1.34-.256a3.2 3.2 0 0 1-1.23-.825c-.37-.391-.67-.918-.89-1.582-.22-.668-.34-1.506-.34-2.514 0-.966.1-1.822.28-2.568q.27-1.123.78-1.891c.35-.515.76-.905 1.25-1.172s1.04-.399 1.66-.399c.61 0 1.15.122 1.63.367q.72.363 1.17 1.012c.3.434.5.933.59 1.497h-1.3c-.12-.49-.36-.896-.71-1.22q-.525-.484-1.38-.484c-.85 0-1.51.367-2 1.102-.48.735-.73 1.767-.73 3.095h.09c.19-.302.43-.559.7-.772a3.178 3.178 0 0 1 1.98-.677c.63 0 1.2.156 1.72.469.51.309.93.737 1.24 1.284.31.543.47 1.166.47 1.869q0 1.012-.45 1.854a3.5 3.5 0 0 1-1.27 1.332q-.825.49-1.92.479m0-1.172c.44 0 .85-.112 1.2-.335.36-.224.64-.524.85-.901.21-.376.31-.795.31-1.257q0-.676-.3-1.23c-.2-.373-.48-.669-.83-.89a2.15 2.15 0 0 0-1.19-.33c-.34 0-.65.068-.94.203a2.45 2.45 0 0 0-1.28 1.337c-.13.294-.19.605-.19.932 0 .433.1.838.31 1.214q.3.565.84.911c.36.231.76.346 1.22.346m6.16 1.108a.94.94 0 0 1-.68-.282.954.954 0 0 1 0-1.353.94.94 0 0 1 .68-.282c.26 0 .49.094.68.282s.28.414.28.676a1 1 0 0 1-.13.48c-.09.145-.2.263-.35.351a.9.9 0 0 1-.48.128m5.73-10.994V324h-1.33v-9.524h-.06l-2.66 1.768v-1.342l2.72-1.811zm7.37 10.909v-8.182h1.22v1.279h.1c.17-.437.45-.776.83-1.018.38-.245.84-.367 1.37-.367q.81 0 1.35.367.54.363.84 1.018h.09c.21-.423.52-.759.94-1.007.42-.252.92-.378 1.51-.378.73 0 1.33.229 1.79.687.47.454.7 1.163.7 2.125V324h-1.26v-5.476c0-.604-.16-1.035-.49-1.294a1.84 1.84 0 0 0-1.17-.389c-.57 0-1.02.174-1.33.522q-.48.516-.48 1.31V324h-1.28v-5.604q0-.698-.45-1.124-.45-.43-1.17-.431c-.32 0-.63.087-.91.261s-.51.415-.68.724c-.17.306-.26.659-.26 1.06V324zm13.04 0v-8.182h1.21v1.279h.11c.17-.437.45-.776.83-1.018.38-.245.83-.367 1.37-.367s.98.122 1.34.367c.37.242.65.581.85 1.018h.09c.2-.423.52-.759.94-1.007.42-.252.92-.378 1.51-.378.73 0 1.33.229 1.79.687.47.454.7 1.163.7 2.125V324h-1.26v-5.476c0-.604-.16-1.035-.49-1.294a1.84 1.84 0 0 0-1.17-.389c-.58 0-1.02.174-1.34.522-.31.344-.47.781-.47 1.31V324h-1.28v-5.604q0-.698-.45-1.124-.45-.43-1.17-.431c-.33 0-.63.087-.92.261-.28.174-.5.415-.68.724-.17.306-.25.659-.25 1.06V324zM237.735 542.47h12.3v1.02h-12.3zm5.505.63h1.23v5.055h-1.23zm-3.93-7.755h9.15v5.295h-9.15zm7.92 1.005h-6.705v3.3h6.705zm14.654-1.755h1.2v13.575h-1.2zm-5.895 5.55h3.42v1.005h-3.42zm3.075-5.19h1.17v12.525h-1.17zm-2.91 1.365h1.2q0 1.77-.51 3.405a9.1 9.1 0 0 1-1.62 3.03q-1.125 1.395-2.955 2.49l-.72-.9q1.59-.96 2.61-2.16a8.2 8.2 0 0 0 1.5-2.625q.495-1.425.495-3.015zm-4.02 0h4.485v1.02h-4.485zm-10.915 29.569q-.645 0-1.177-.314a2.44 2.44 0 0 1-.853-.852 2.3 2.3 0 0 1-.314-1.178q0-.65.314-1.177.32-.532.853-.847a2.24 2.24 0 0 1 1.177-.319q.65 0 1.177.319.532.315.847.847.32.528.319 1.177 0 .645-.319 1.178-.315.533-.847.852a2.26 2.26 0 0 1-1.177.314m10.397-7.798 2.813 4.538h.085l2.813-4.538h1.555l-3.43 5.454 3.43 5.455h-1.555l-2.813-4.453h-.085L251.616 569h-1.555l3.516-5.455-3.516-5.454zM260.601 569v-10.909h3.686q1.284 0 2.099.463.82.458 1.215 1.241.394.783.394 1.748 0 .964-.394 1.752a2.93 2.93 0 0 1-1.204 1.257q-.816.464-2.088.464h-2.642v-1.172h2.599q.88 0 1.412-.304a1.8 1.8 0 0 0 .772-.82q.245-.522.245-1.177 0-.656-.245-1.172a1.75 1.75 0 0 0-.778-.81q-.537-.298-1.427-.298h-2.323V569zm12.888 0h-3.366v-10.909h3.515q1.588 0 2.717.655 1.13.65 1.731 1.87.602 1.214.602 2.908 0 1.705-.607 2.935a4.33 4.33 0 0 1-1.769 1.886q-1.161.655-2.823.655m-2.045-1.172h1.96q1.353 0 2.243-.522a3.2 3.2 0 0 0 1.326-1.486q.437-.964.437-2.296 0-1.321-.432-2.274a3.18 3.18 0 0 0-1.289-1.471q-.858-.516-2.136-.516h-2.109zm9.268 1.172v-.959l3.601-3.942a24 24 0 0 0 1.044-1.203 4.4 4.4 0 0 0 .607-.97q.203-.458.203-.959 0-.575-.277-.996a1.8 1.8 0 0 0-.746-.65 2.4 2.4 0 0 0-1.065-.229q-.628 0-1.098.261-.463.256-.719.719-.25.464-.25 1.087h-1.257q0-.959.442-1.683t1.204-1.129a3.6 3.6 0 0 1 1.72-.405q.96 0 1.7.405.74.404 1.161 1.092.42.687.421 1.528 0 .602-.219 1.178-.213.57-.746 1.273a23 23 0 0 1-1.464 1.704l-2.451 2.621v.085h5.071V569zm13.791-6.04v1.171h-4.773v-1.171zm9.84-1.46a3.8 3.8 0 0 0-.464-.964 3 3 0 0 0-.676-.735 2.8 2.8 0 0 0-.884-.464 3.6 3.6 0 0 0-1.087-.159q-.97 0-1.763.5-.794.501-1.263 1.476t-.468 2.391q0 1.417.474 2.392t1.284 1.476 1.821.5q.938 0 1.652-.399.719-.405 1.118-1.14.405-.74.405-1.742l.405.085h-3.281v-1.172h4.154v1.172q0 1.348-.575 2.344a3.97 3.97 0 0 1-1.577 1.545q-1 .543-2.301.543-1.448 0-2.546-.682-1.092-.682-1.704-1.939-.608-1.257-.608-2.983 0-1.293.347-2.327.351-1.039.99-1.769a4.3 4.3 0 0 1 1.513-1.118 4.7 4.7 0 0 1 1.923-.389 4.8 4.8 0 0 1 1.609.261q.75.255 1.337.73.59.469.985 1.123.394.65.543 1.444zm7.056 7.5h-3.366v-10.909h3.516q1.587 0 2.716.655 1.13.65 1.731 1.87.602 1.214.602 2.908 0 1.705-.607 2.935a4.33 4.33 0 0 1-1.768 1.886q-1.162.655-2.824.655m-2.045-1.172h1.96q1.353 0 2.243-.522a3.2 3.2 0 0 0 1.326-1.486q.437-.964.437-2.296 0-1.321-.432-2.274a3.18 3.18 0 0 0-1.289-1.471q-.857-.516-2.136-.516h-2.109zm9.46 1.172v-10.909h3.814q1.14 0 1.88.394.741.389 1.103 1.049.363.655.362 1.455 0 .702-.25 1.161-.245.458-.65.724a3 3 0 0 1-.868.394v.107q.5.031 1.007.352.505.32.847.916.34.596.34 1.459 0 .82-.372 1.476-.373.656-1.178 1.038-.804.384-2.093.384zm1.321-1.172h2.621q1.294 0 1.838-.501.548-.505.548-1.225 0-.554-.282-1.022a2.03 2.03 0 0 0-.804-.757q-.522-.288-1.236-.287h-2.685zm0-4.943h2.45q.597 0 1.076-.234.485-.235.768-.661.287-.426.287-1.001 0-.72-.501-1.22-.5-.506-1.587-.506h-2.493zm9.181 4.719a.93.93 0 0 1-.677-.282.92.92 0 0 1-.282-.676q0-.395.282-.677a.93.93 0 0 1 .677-.282q.394 0 .676.282a.93.93 0 0 1 .283.677.9.9 0 0 1-.134.479 1 1 0 0 1-.346.352.9.9 0 0 1-.479.127m0-5.518a.93.93 0 0 1-.677-.282.93.93 0 0 1-.282-.677q0-.394.282-.676a.92.92 0 0 1 .677-.283q.394 0 .676.283a.92.92 0 0 1 .283.676.9.9 0 0 1-.134.48 1 1 0 0 1-.346.351.9.9 0 0 1-.479.128m11.247-3.995V569h-1.321v-9.524h-.064l-2.663 1.768v-1.342l2.727-1.811zm2.882 8.672v-1.087l4.794-7.585h.788v1.683h-.532l-3.623 5.732v.085h6.456v1.172zM348.58 569v-10.909h1.257V569zm8.303.149q-1.204 0-2.051-.655-.847-.66-1.294-1.912-.448-1.257-.448-3.037 0-1.768.448-3.02.452-1.257 1.299-1.917.853-.666 2.046-.666t2.04.666q.852.66 1.3 1.917.453 1.252.452 3.02 0 1.78-.447 3.037-.448 1.251-1.294 1.912-.848.655-2.051.655m0-1.172q1.193 0 1.854-1.15.66-1.15.66-3.282 0-1.416-.304-2.413-.297-.996-.863-1.518a1.9 1.9 0 0 0-1.347-.522q-1.183 0-1.849 1.167-.665 1.162-.665 3.286 0 1.418.298 2.408.299.991.858 1.508.564.516 1.358.516m13.359 4.262q-.91 0-1.566-.235a3.3 3.3 0 0 1-1.092-.607 3.3 3.3 0 0 1-.687-.799l1.001-.703q.171.223.432.511.261.294.714.506.458.219 1.198.219.992 0 1.635-.48.645-.479.645-1.502v-1.662h-.107a7 7 0 0 1-.394.554q-.25.325-.724.581-.469.25-1.268.25-.99 0-1.779-.469-.783-.468-1.241-1.363-.453-.895-.453-2.174 0-1.256.442-2.189.442-.937 1.231-1.449.788-.516 1.821-.516.8 0 1.268.266.474.261.725.597.255.33.394.543h.128v-1.3h1.214v8.416q0 1.055-.479 1.716a2.73 2.73 0 0 1-1.279.974 4.8 4.8 0 0 1-1.779.315m-.042-4.496q.756 0 1.278-.346t.794-.996.271-1.556q0-.884-.266-1.561-.267-.676-.788-1.06-.522-.383-1.289-.383-.8 0-1.332.405-.527.405-.794 1.086a4.2 4.2 0 0 0-.261 1.513q0 .852.267 1.508.271.65.799 1.022.532.368 1.321.368m-128.981 20.146q-.645 0-1.177-.314a2.44 2.44 0 0 1-.853-.852 2.3 2.3 0 0 1-.314-1.178q0-.65.314-1.177.32-.532.853-.847a2.24 2.24 0 0 1 1.177-.319q.65 0 1.177.319.532.315.847.847.32.528.319 1.177 0 .645-.319 1.178-.315.533-.847.852a2.26 2.26 0 0 1-1.177.314m10.397-7.798 2.813 4.538h.085l2.813-4.538h1.555l-3.43 5.454 3.43 5.455h-1.555l-2.813-4.453h-.085L251.616 591h-1.555l3.516-5.455-3.516-5.454zM260.601 591v-10.909h3.686q1.284 0 2.099.463.82.458 1.215 1.241.394.783.394 1.748 0 .964-.394 1.752a2.93 2.93 0 0 1-1.204 1.257q-.816.464-2.088.464h-2.642v-1.172h2.599q.88 0 1.412-.304a1.8 1.8 0 0 0 .772-.82q.245-.522.245-1.177 0-.656-.245-1.172a1.75 1.75 0 0 0-.778-.81q-.537-.298-1.427-.298h-2.323V591zm12.888 0h-3.366v-10.909h3.515q1.588 0 2.717.655 1.13.65 1.731 1.87.602 1.214.602 2.908 0 1.705-.607 2.935a4.33 4.33 0 0 1-1.769 1.886q-1.161.655-2.823.655m-2.045-1.172h1.96q1.353 0 2.243-.522a3.2 3.2 0 0 0 1.326-1.486q.437-.964.437-2.296 0-1.321-.432-2.274a3.18 3.18 0 0 0-1.289-1.471q-.858-.516-2.136-.516h-2.109zm9.268 1.172v-.959l3.601-3.942a24 24 0 0 0 1.044-1.203 4.4 4.4 0 0 0 .607-.97q.203-.458.203-.959 0-.575-.277-.996a1.8 1.8 0 0 0-.746-.65 2.4 2.4 0 0 0-1.065-.229q-.628 0-1.098.261-.463.256-.719.719-.25.464-.25 1.087h-1.257q0-.959.442-1.683t1.204-1.129a3.6 3.6 0 0 1 1.72-.405q.96 0 1.7.405.74.404 1.161 1.092.42.687.421 1.528 0 .602-.219 1.178-.213.57-.746 1.273a23 23 0 0 1-1.464 1.704l-2.451 2.621v.085h5.071V591zm13.791-6.04v1.171h-4.773v-1.171zm9.84-1.46a3.8 3.8 0 0 0-.464-.964 3 3 0 0 0-.676-.735 2.8 2.8 0 0 0-.884-.464 3.6 3.6 0 0 0-1.087-.159q-.97 0-1.763.5-.794.501-1.263 1.476t-.468 2.391q0 1.417.474 2.392t1.284 1.476 1.821.5q.938 0 1.652-.399.719-.405 1.118-1.14.405-.74.405-1.742l.405.085h-3.281v-1.172h4.154v1.172q0 1.348-.575 2.344a3.97 3.97 0 0 1-1.577 1.545q-1 .543-2.301.543-1.448 0-2.546-.682-1.092-.682-1.704-1.939-.608-1.257-.608-2.983 0-1.293.347-2.327.351-1.039.99-1.769a4.3 4.3 0 0 1 1.513-1.118 4.7 4.7 0 0 1 1.923-.389 4.8 4.8 0 0 1 1.609.261q.75.255 1.337.73.59.469.985 1.123.394.65.543 1.444zm3.69 7.5v-10.909h1.321v5.412h.128l4.9-5.412h1.726l-4.581 4.922 4.581 5.987h-1.598l-3.792-5.071-1.364 1.534V591zm13.152 0h-3.367v-10.909h3.516q1.587 0 2.716.655 1.13.65 1.732 1.87.601 1.214.601 2.908 0 1.705-.607 2.935a4.33 4.33 0 0 1-1.768 1.886q-1.161.655-2.823.655m-2.046-1.172h1.96q1.353 0 2.243-.522a3.2 3.2 0 0 0 1.326-1.486q.437-.964.437-2.296 0-1.321-.431-2.274a3.2 3.2 0 0 0-1.29-1.471q-.856-.516-2.136-.516h-2.109zm9.46 1.172v-10.909h3.814q1.14 0 1.881.394.74.389 1.102 1.049.363.655.362 1.455 0 .702-.25 1.161-.245.458-.65.724a3 3 0 0 1-.868.394v.107q.5.031 1.007.352.505.32.847.916.34.596.341 1.459 0 .82-.373 1.476t-1.178 1.038q-.804.384-2.093.384zm1.321-1.172h2.621q1.295 0 1.838-.501.548-.505.548-1.225 0-.554-.282-1.022a2.03 2.03 0 0 0-.804-.757q-.522-.288-1.236-.287h-2.685zm0-4.943h2.451q.596 0 1.076-.234.484-.235.767-.661.287-.426.287-1.001 0-.72-.5-1.22-.5-.506-1.588-.506h-2.493zm9.181 4.719a.93.93 0 0 1-.677-.282.92.92 0 0 1-.282-.676q0-.395.282-.677a.93.93 0 0 1 .677-.282q.394 0 .676.282a.92.92 0 0 1 .283.677.9.9 0 0 1-.133.479 1 1 0 0 1-.347.352.9.9 0 0 1-.479.127m0-5.518a.93.93 0 0 1-.677-.282.93.93 0 0 1-.282-.677q0-.394.282-.676a.92.92 0 0 1 .677-.283q.394 0 .676.283a.92.92 0 0 1 .283.676.9.9 0 0 1-.133.48 1 1 0 0 1-.347.351.9.9 0 0 1-.479.128m11.247-3.995V591h-1.321v-9.524h-.064l-2.663 1.768v-1.342l2.727-1.811zm2.882 8.672v-1.087l4.794-7.585h.788v1.683h-.532l-3.622 5.732v.085h6.456v1.172zm5.135 2.237v-10.909h1.257V591zm8.154.149q-.937 0-1.689-.373a3.14 3.14 0 0 1-1.204-1.022 2.8 2.8 0 0 1-.495-1.481h1.278q.075.74.672 1.225.601.479 1.438.479.67 0 1.193-.314.528-.314.826-.863.303-.554.303-1.252 0-.714-.314-1.273a2.3 2.3 0 0 0-.852-.889 2.4 2.4 0 0 0-1.241-.331 3.4 3.4 0 0 0-1.028.155 2.9 2.9 0 0 0-.869.399l-1.236-.149.661-5.369h5.668v1.172h-4.56l-.384 3.217h.064q.336-.266.842-.442a3.2 3.2 0 0 1 1.055-.176q1 0 1.784.48.789.474 1.236 1.299.453.826.453 1.886 0 1.044-.469 1.864a3.4 3.4 0 0 1-1.278 1.289q-.816.47-1.854.469m13.259 3.09q-.91 0-1.566-.235a3.3 3.3 0 0 1-1.092-.607 3.4 3.4 0 0 1-.687-.799l1.002-.703q.17.223.431.511.261.294.714.506.458.219 1.198.219.991 0 1.636-.48.644-.479.644-1.502v-1.662h-.106a7 7 0 0 1-.395.554q-.25.325-.724.581-.468.25-1.268.25-.99 0-1.779-.469-.783-.468-1.241-1.363-.453-.895-.453-2.174 0-1.256.442-2.189.442-.937 1.231-1.449.788-.516 1.822-.516.798 0 1.267.266.474.261.725.597.256.33.394.543h.128v-1.3h1.214v8.416q0 1.055-.479 1.716a2.73 2.73 0 0 1-1.279.974 4.8 4.8 0 0 1-1.779.315m-.042-4.496q.756 0 1.278-.346t.794-.996.271-1.556q0-.884-.266-1.561a2.34 2.34 0 0 0-.788-1.06q-.522-.383-1.289-.383-.8 0-1.332.405-.528.405-.794 1.086a4.2 4.2 0 0 0-.261 1.513q0 .852.267 1.508.271.65.799 1.022.532.368 1.321.368M731.146 123.646a.5.5 0 0 0 0 .708l3.182 3.182a.502.502 0 0 0 .708-.708L732.207 124l2.829-2.828a.502.502 0 0 0-.708-.708zm203.708.708a.5.5 0 0 0 0-.708l-3.182-3.182a.502.502 0 0 0-.708.708l2.829 2.828-2.829 2.828a.502.502 0 0 0 .708.708zM731.5 124v.5h203v-1h-203z"/><path stroke="#000" d="M730.5 120v8.094M935.5 120v8.094"/><path fill="#000" d="M965.354 154.146a.5.5 0 0 0-.708 0l-3.182 3.182a.502.502 0 0 0 .708.708l2.828-2.829 2.828 2.829a.502.502 0 0 0 .708-.708zm-.708 327.708a.5.5 0 0 0 .708 0l3.182-3.182a.502.502 0 0 0-.708-.708L965 480.793l-2.828-2.829a.502.502 0 0 0-.708.708zM965 154.5h-.5v327h1v-327z"/><path stroke="#000" d="M961 153.5h8.109M961 482.5h8.109"/><path stroke="#040000" stroke-miterlimit="2" stroke-width=".25" d="m375.45 373.49.01.04M376.23 378.34l-.01-.05M375.99 160.63l.24.03M375.98 160.67l.24.04M375.99 160.62l.24.04M246.2 160.66l.24-.03M246.44 160.67l-.24.04M246.2 160.66l.24-.04M246.2 160.66l-.35.06M246.2 160.71c-.11.02-.22.04-.33.05M246.97 165.51c-.11.02-.22.04-.33.05M376.58 160.72l-.35-.06M376.57 160.76l-.35-.06"/><path stroke="#898989" stroke-miterlimit="2" stroke-width=".5" d="M220.46 336.54V202.46M225.32 336.54V202.46M246.2 378.34v-.05M246.97 373.489l-.01.04M397.1 336.54V202.46M401.97 336.54V202.46M401.18 351.93h-.04M396.3 351.43l.04.01M226.13 351.43l-.05.01M221.24 351.93h.05M401.97 336.54h-.05M225.37 336.54h-.05M220.46 336.54h.04M397.06 336.54h.04"/><path stroke="#040000" stroke-miterlimit="2" stroke-width=".25" d="M221.24 187.069h.05M226.13 187.57l-.05-.01M396.3 187.57l.04-.01M401.18 187.069h-.04"/><path stroke="#898989" stroke-miterlimit="2" stroke-width=".5" d="M397.06 202.46h.04M220.46 202.46h.04M225.37 202.46h-.05M401.97 202.46h-.05M401.18 351.93c.52-5.11.78-10.25.78-15.39M396.34 351.44c.51-4.95.76-9.92.76-14.9M221.24 351.93c1.37 13.44 11.61 24.27 24.95 26.4"/><path stroke="#898989" stroke-miterlimit="2" stroke-width=".5" d="M226.08 351.439c1.15 11.25 9.72 20.31 20.88 22.1M401.97 202.459c0-5.14-.26-10.28-.78-15.39M397.1 202.46c0-4.98-.25-9.95-.76-14.9M245.85 160.72c-13.18 2.27-23.24 13.04-24.6 26.35"/><path stroke="#898989" stroke-miterlimit="2" stroke-width=".5" d="M246.63 165.52c-11.01 1.91-19.41 10.92-20.55 22.04M246.2 378.34c43.07 6.88 86.96 6.88 130.03 0"/><path stroke="#898989" stroke-miterlimit="2" stroke-width=".5" d="M246.96 373.529c42.56 6.8 85.94 6.8 128.5 0M220.46 336.54c0 5.14.26 10.28.78 15.39M225.32 336.54c0 4.98.25 9.95.76 14.9M376.23 378.339c13.34-2.13 23.58-12.97 24.95-26.4"/><path stroke="#898989" stroke-miterlimit="2" stroke-width=".5" d="M375.46 373.53c11.16-1.78 19.73-10.85 20.88-22.1M221.24 187.069c-.52 5.11-.78 10.25-.78 15.39M226.08 187.56c-.51 4.95-.76 9.92-.76 14.9M401.18 187.07c-1.36-13.31-11.42-24.08-24.6-26.35"/><path stroke="#898989" stroke-miterlimit="2" stroke-width=".5" d="M396.34 187.56c-1.14-11.12-9.53-20.13-20.55-22.04"/><path stroke="#040000" stroke-miterlimit="2" stroke-width=".25" d="M375.78 165.56c-.11-.02-.22-.04-.33-.05"/><path stroke="#231815" stroke-linecap="round" stroke-linejoin="round" stroke-width=".5" d="M245.96 164.961v-3.731M376.46 164.961v-3.731M375.98 160.67a412 412 0 0 0-129.54 0"/><path stroke="#231815" stroke-linecap="round" stroke-linejoin="round" stroke-width=".5" d="M375.46 165.46c-42.56-6.8-85.94-6.8-128.5 0M246.74 165.5s-.07.01-.11.02M246.96 165.46c-.07.01-.15.02-.22.04M246.25 160.73c-.18.1-.29.291-.29.491M246.17 165.4c.13.11.3.15.46.12m-.67-.56c0 .17.07.33.2.43M375.8 165.52l-.33-.06M376.46 164.971c0 .16-.07.32-.2.43-.13.1-.3.15-.46.12M246.25 160.73l.02-.01.02-.01h.02l.02-.01.02-.01h.01l.02-.01.02-.01h.04M375.98 160.67h.04l.04.02.04.01.03.01.04.02.03.02.04.03.03.02.03.03.02.03M376.32 160.86l.02.01.01.02.01.02.01.01.01.02.01.02.01.02.01.01.01.02.01.02M376.43 161.03v.02l.01.02v.02l.01.02v.02l.01.02v.08"/><path stroke="#231815" stroke-miterlimit="2" d="m311.21 500.661 11.34-.151.24-.01 10.66-.409 9.67-.601 8.89-.74 8.14-.839 7.48-.911 6.88-.95 6.34-1.019 5.77-1.161 2.67-.62 2.55-.649 2.42-.65 2.31-.66 2.21-.7 2.12-.81 2.87-1.37 1.19-.661 1.2-.729 2.65-1.86 1.07-.861 2.38-2.19 1.58-1.699 1.47-1.801.84-1.139 1.7-2.671 1.44-2.82.58-1.319.81-2.171.65-2.18.52-2.2.37-2.24.27-2.289.21-2.38.2-2.49.18-2.591.25-5.539.09-6.031V348l.01-28.7-.01-31.949V197.87l-.04-6.3-.18-5.82-.33-5.32-.44-4.87-.16-1.32-.54-3.199-.54-2.221-.71-2.219-.5-1.32-1.33-2.93-1.6-2.81-1.88-2.671-1.73-2.079-2.3-2.32-1.01-.901-2.57-2-1.12-.75-1.99-1.2-2.06-1.07-2.11-.92-2.15-.76-2.23-.69-2.33-.659-2.44-.651-2.56-.63-5.55-1.199-6.08-1.061M376.94 139.98l-2.16-.33-.91-.13-2.22-.32-.99-.13-2.21-.3-2.22-.29-1.22-.16-2.22-.27-2.22-.26-1.36-.15-2.22-.24-2.22-.22"/><path stroke="#231815" stroke-miterlimit="2" d="m354.77 137.18-11.71-1.02-11.75-.7-9.19-.32-11.77-.14-11.78.18-2.91.1-11.35.55-10.28.76-9.34.89-8.49 1-3.95.52-3.78.52-7.05 1.14-3.27.63-3.09.67-2.92.7-2.77.72-2.62.73-2.47.76-2.36.85-2.32 1.04-2.27 1.23-2.16 1.38-2.04 1.51-1.94 1.67-2.33 2.39-1.17 1.38-1.09 1.42-1.82 2.78-1.2 2.22-1.05 2.33-.9 2.46-.7 2.47-.5 2.43-.35 2.47-.28 2.59-.22 2.71-.37 5.82-.18 6.42-.02 6.99v24.64l-.01 9.65v167.02l.01 10.12v25.2l-.01 3.58.02 3.43.18 6.42.17 2.99.2 2.84.22 2.71.26 2.59.35 2.5.5 2.44.93 3.16.63 1.7.74 1.72 1.51 2.88 1.77 2.72 1.12 1.48 1.19 1.42 2.29 2.36 1.93 1.68 2.06 1.54 2.16 1.39 2.22 1.22 2.31 1.04 2.4.89 2.53.77 2.66.74 2.8.73 2.96.71 6.41 1.31h.03l3.49.59 3.65.56 7.83 1.05 8.61 1 9.46.9M274.59 499.12l2.64.22 3.59.26 3.56.24 3.54.2 3.53.17 3.52.15 3.57.11 2.48.07 3.1.06 3.57.04 3.52.02"/><path stroke="#898989" stroke-miterlimit="2" stroke-width=".5" d="m311.21 498.65 11.27-.15h.29l10.63-.41 9.65-.6 8.87-.74 8.12-.84 7.47-.9 6.86-.96 6.28-1 5.7-1.15 2.64-.61 2.51-.64 2.39-.64 2.26-.64 2.14-.69 2-.76 2.72-1.3 1.07-.6 1.08-.65 2.54-1.78 2.36-2 .87-.85 2.09-2.32.76-.96.76-1.03 1.63-2.55 1.37-2.69.52-1.19.76-2.03.61-2.03.48-2.05.36-2.13.25-2.23.22-2.34.19-2.45.18-2.57.25-5.48.09-5.98V197.7l-.04-6.27-.18-5.75-.33-5.26-.43-4.83-.16-1.25-.5-3.04-.51-2.06-.67-2.08-.45-1.2-1.27-2.8-1.53-2.67-.67-1.01-.7-.98-1.98-2.42-2.2-2.21-.89-.8-2.49-1.92-.98-.66-1.86-1.13-1.94-1-1.98-.86-2.03-.72-2.14-.66-2.29-.65-2.42-.65-2.53-.62-5.49-1.18-6.01-1.05M354.67 139.18l-11.64-1.01-11.67-.7-9.26-.32-11.7-.14-11.7.18-3 .1-11.33.54-10.26.76-9.31.89-8.47.99-3.95.52-3.77.53-7 1.12-3.22.62-3.05.66-2.88.69-2.76.72-2.58.72-2.37.73-2.23.81-2.18.97-2.13 1.15-2.02 1.29-1.92 1.43-1.81 1.56-2.24 2.3-1.05 1.23-.96 1.26-1.76 2.68-1.13 2.07-.98 2.19-.84 2.3-.67 2.32-.46 2.27-.33 2.34-.27 2.54-.23 2.69-.36 5.77-.18 6.34-.02 6.97v24.68l-.01 9.66v167.25l.01 10.14v25.24l-.01 3.58.02 3.41.18 6.35.17 2.95.2 2.82.22 2.68.25 2.54.34 2.4.47 2.28.63 2.26.83 2.28.98 2.22 1.12 2.09 1.71 2.62 1 1.32 1.07 1.27 2.19 2.27 1.81 1.58 1.94 1.44 2.02 1.3 2.08 1.14 2.15.98 2.29.84 2.45.75 2.6.72 2.78.73 2.92.7 6.31 1.28.04.01 3.45.58 3.64.55 7.82 1.06 8.58.99 9.44.9"/><path stroke="#898989" stroke-miterlimit="2" stroke-width=".5" d="m376.78 141.97-2.14-.33-.92-.13-2.2-.31-.99-.14-2.21-.3-2.21-.28-1.22-.16-2.22-.27-2.21-.26-1.36-.15-2.21-.24-2.22-.22M274.67 497.12l2.63.21 3.58.27 3.56.23 3.53.2 3.52.17 3.52.15 3.56.12 2.47.06 3.1.06 3.56.04 3.51.02"/><path fill="#898989" d="M296.3 437.329h-1.72v5.15c0 .33 0 .84-.28 1.12-.19.2-.51.29-.94.29h-1.37c-.23 0-.62 0-.89-.28-.23-.23-.34-.61-.34-1.14v-5.15h-1.71v5.18c0 .52.12 3.09 2.55 3.09h2.26c.92 0 2.46-.4 2.46-3.09v-5.18zM306.11 440.24c0-2.05-1.33-3.27-3.55-3.27h-.25c-3.14 0-4.3 1.18-4.3 4.36v4.17h1.83v-4.17c0-2.41.54-2.82 2.15-2.82h.41c1.56 0 1.84.57 1.84 1.68 0 .66-.23 1.37-.86 1.37h-2.88v1.21s.05 0 .08.01c.58.1 1.61.17 2.39.17 2.59 0 3.13-1.48 3.13-2.72zM312.31 437.15s-.06 0-.08-.01c-.47-.08-1.5-.17-2.07-.17-1.01 0-2.69.41-2.69 3.15v5.39h1.79v-5.27c0-1.45.27-1.6 1.4-1.6h1.65v-1.49M320.54 443.58c-1.08.29-1.92.45-3.01.45h-.35c-1.52 0-2.45-.18-2.45-2.7s.54-2.81 2.16-2.81h.41c1.52 0 1.84.25 1.84 1.4 0 .58-.26.82-.86.82h-2.89v1.21s.05 0 .08.01c.57.1 1.6.17 2.39.17 1.17 0 3.13-.28 3.13-2.17 0-2.47-1.93-2.99-3.54-2.99h-.25c-3.14 0-4.31 1.18-4.31 4.36s1.19 4.29 4.12 4.29h.22c1.85 0 3.42-.49 3.42-1.07v-1l-.12.03zM333.32 440.179c0-2.92-2.15-3.07-2.58-3.07h-1c-1.12 0-1.66.53-1.82.71-.59-.57-1.48-.71-1.79-.71h-.93c-2.41 0-2.66 2.15-2.66 3.07v5.32h1.63v-5.32c0-.82.17-1.58 1.4-1.58s1.52.58 1.52 1.58v5.32h1.68v-5.32c0-1.09.45-1.6 1.41-1.6 1.04 0 1.5.49 1.5 1.6v5.32h1.64zM341.84 444.629c1.24-1.27 1.05-3.26 1.04-3.35 0-3.57-1.68-4.29-4.39-4.29s-3.37.83-3.37 1.05v1l.12-.03c2.7-.6 4.53-.61 5.15-.05.21.19.66.62.66 2.36s-.35 2.12-.49 2.27c-.5.56-1.66.49-2.69.43h-.19c-1.03-.06-1.03-.83-1.03-1.29 0-.4.13-.88.75-.88h3.03v-1.01s-.04-.01-.06-.02c-.38-.14-1.89-.36-2.22-.36-2.93 0-3.37 1.37-3.37 2.19 0 .87.28 1.56.82 2.07 1.11 1.04 2.92.92 2.99.92 1.41.1 2.51-.23 3.25-1zM287.69 442.86c0-1.82-1.35-2.27-2.67-2.48l-1.87-.24c-.45-.07-.85-.18-.85-.66 0-.76.22-.97 1.75-.97h.38c.88 0 1.74.13 2.76.41.04.01.08.02.12.04v-1.18s0-.01-.01-.02c-.15-.3-1.56-.79-2.94-.79h-.38c-2.32 0-3.45.86-3.45 2.64s1.43 2.07 2.77 2.28l.83.12c.61.08.99.13 1.18.21.36.15.55.23.55.84 0 .95-.64 1.04-2 1.04h-.38c-.8 0-1.77-.22-2.81-.65-.05-.02-.09-.04-.14-.06v1.16c0 .47 1.42 1.07 3.01 1.07h.35c2.6 0 3.8-.88 3.8-2.76"/><path stroke="#040000" stroke-miterlimit="2" stroke-width=".25" d="M258.2 194.38v.15M254.24 198.34h.15"/><path stroke="#040000" stroke-miterlimit="2" stroke-width=".5" d="M284.28 220.45v-22.11M254.24 198.34v22.11M258.2 224.42h22.12M280.32 194.38H258.2M254.24 220.45c0 2.19 1.78 3.97 3.97 3.97M258.2 194.38c-2.19 0-3.97 1.78-3.97 3.97M280.32 224.42c2.19 0 3.97-1.78 3.97-3.97M284.28 198.34c0-2.19-1.78-3.97-3.97-3.97"/><path fill="#231815" d="M268.62 205.92h-.03l-1.92.97-.34-1.5 2.55-1.26h1.66v10.49h-1.92z"/><path stroke="#040000" stroke-miterlimit="2" stroke-width=".5" d="M254.24 282.25v22.11M284.28 304.36v-22.11M258.2 308.33h22.12M280.32 278.28H258.2M258.2 278.28c-2.19 0-3.97 1.78-3.97 3.97M254.24 304.36c0 2.19 1.78 3.97 3.97 3.97M284.28 282.25c0-2.19-1.78-3.97-3.97-3.97M280.32 308.33c2.19 0 3.97-1.78 3.97-3.97"/><path fill="#231815" d="M273.24 288.27v1.279l-4.44 9.211h-2.1l4.42-8.81v-.031h-4.94v-1.649h7.06"/><path stroke="#040000" stroke-miterlimit="2" stroke-width=".5" d="M254.24 240.3v22.11M284.28 262.41V240.3M258.2 266.38h22.12M280.32 236.33H258.2M258.2 236.33c-2.19 0-3.97 1.78-3.97 3.97M254.24 262.41c0 2.19 1.78 3.97 3.97 3.97M284.28 240.3c0-2.19-1.78-3.97-3.97-3.97M280.32 266.38c2.19 0 3.97-1.78 3.97-3.97"/><path fill="#231815" d="M270.02 256.72v-2.66h-4.74v-1.29l4.28-6.53h2.34v6.32h1.35v1.5h-1.35v2.66h-1.88m0-4.16v-2.86c0-.6.02-1.21.06-1.82h-.06c-.32.66-.6 1.2-.92 1.78l-1.92 2.87-.02.03z"/><path stroke="#040000" stroke-miterlimit="2" stroke-width=".5" d="M300.16 350.28h22.11M296.19 324.2v22.11M322.27 320.23h-22.11M326.24 346.31V324.2M296.19 346.31c0 2.19 1.78 3.97 3.97 3.97M300.16 320.23a3.974 3.974 0 0 0-3.97 3.971M322.27 350.28c2.19 0 3.97-1.78 3.97-3.97M326.24 324.201c0-2.19-1.78-3.971-3.97-3.971"/><path fill="#231815" d="M315.2 335.2c0 3.37-1.32 5.49-3.82 5.49s-3.71-2.2-3.73-5.39c0-3.26 1.39-5.45 3.84-5.45s3.71 2.26 3.71 5.36zm-5.56.09c-.02 2.55.7 3.87 1.79 3.87 1.16 0 1.78-1.42 1.78-3.94s-.58-3.87-1.78-3.87c-1.06 0-1.81 1.3-1.79 3.94"/><path stroke="#040000" stroke-miterlimit="2" stroke-width=".5" d="M296.19 198.34v22.11M326.24 220.45v-22.11M300.16 224.42h22.11M322.27 194.38h-22.11M300.16 194.38c-2.19 0-3.97 1.78-3.97 3.97M296.19 220.45c0 2.19 1.78 3.97 3.97 3.97M326.24 198.34c0-2.19-1.78-3.97-3.97-3.97M322.27 224.42c2.19 0 3.97-1.78 3.97-3.97"/><path fill="#231815" d="M307.66 214.7v-1.21l1.25-1.15c2.47-2.29 3.63-3.55 3.64-4.94 0-.94-.5-1.76-1.87-1.76-.92 0-1.71.47-2.24.87l-.58-1.4c.76-.61 1.9-1.08 3.22-1.08 2.32 0 3.45 1.47 3.45 3.18 0 1.84-1.32 3.32-3.14 5.02l-.92.79v.03h4.31v1.64h-7.12z"/><path stroke="#040000" stroke-miterlimit="2" stroke-width=".5" d="M296.19 282.25v22.11M326.24 304.36v-22.11M300.16 308.33h22.11M322.27 278.28h-22.11M300.16 278.28c-2.19 0-3.97 1.78-3.97 3.97M296.19 304.36c0 2.19 1.78 3.97 3.97 3.97M326.24 282.25c0-2.19-1.78-3.97-3.97-3.97M322.27 308.33c2.19 0 3.97-1.78 3.97-3.97"/><path fill="#231815" d="M307.63 296.06c0-1.31.76-2.19 1.97-2.73v-.05c-1.1-.53-1.6-1.4-1.6-2.32 0-1.71 1.51-2.87 3.5-2.87 2.26 0 3.29 1.35 3.29 2.64 0 .89-.46 1.81-1.61 2.37v.05c1.15.44 2 1.34 2 2.65 0 1.87-1.58 3.13-3.82 3.13-2.45 0-3.73-1.4-3.73-2.87m5.54-.1c0-1.06-.79-1.65-1.95-1.97-.98.29-1.55.97-1.55 1.84-.03.89.65 1.69 1.76 1.69 1.05 0 1.74-.66 1.74-1.57zm-3.28-5.08c0 .85.71 1.37 1.71 1.65.71-.21 1.3-.79 1.3-1.58 0-.73-.43-1.48-1.5-1.48-1 0-1.52.66-1.52 1.42z"/><path stroke="#040000" stroke-miterlimit="2" stroke-width=".5" d="M296.19 240.3v22.11M326.24 262.41V240.3M300.16 266.38h22.11M322.27 236.33h-22.11M296.19 240.3c0-1.06.42-2.07 1.16-2.81.75-.74 1.76-1.16 2.81-1.16M296.19 262.41c0 2.19 1.78 3.97 3.97 3.97M325.07 237.49a3.97 3.97 0 0 0-2.81-1.16m3.98 3.97c0-1.05-.42-2.06-1.16-2.81M322.27 266.38c2.19 0 3.97-1.78 3.97-3.97"/><path fill="#231815" d="M314.59 247.79h-4.03l-.31 2.1c.24-.03.45-.05.76-.05.92 0 1.84.21 2.55.68.79.5 1.37 1.39 1.37 2.66 0 2-1.66 3.63-4.24 3.63-1.21 0-2.23-.31-2.77-.62l.4-1.5c.45.24 1.35.55 2.3.55 1.16 0 2.28-.66 2.28-1.92s-.89-1.98-2.99-1.98c-.58 0-1.02.03-1.44.1l.7-5.29h5.42z"/><path stroke="#040000" stroke-miterlimit="2" stroke-width=".5" d="M338.14 198.34v22.11M364.22 194.38v.15M368.19 220.45v-22.11M342.11 224.42h22.11M364.22 194.38h-22.11M342.11 194.38c-2.19 0-3.97 1.78-3.97 3.97M338.14 220.45c0 2.19 1.78 3.97 3.97 3.97M364.22 224.42c2.19 0 3.97-1.78 3.97-3.97M368.19 198.34c0-2.19-1.78-3.97-3.97-3.97"/><path fill="#231815" d="M349.9 212.56c.4.24 1.39.65 2.39.65 1.51 0 2.13-.85 2.11-1.68 0-1.24-1.16-1.77-2.37-1.77h-.92v-1.45h.89c.92 0 2.08-.42 2.08-1.47 0-.71-.53-1.31-1.68-1.31-.86 0-1.71.37-2.14.66l-.45-1.43c.6-.42 1.76-.81 3.02-.81 2.16 0 3.27 1.19 3.27 2.56 0 1.1-.64 2-1.94 2.45v.03c1.28.23 2.31 1.2 2.31 2.61 0 1.78-1.48 3.18-4.08 3.18-1.28 0-2.37-.35-2.94-.72z"/><path stroke="#040000" stroke-miterlimit="2" stroke-width=".5" d="M342.11 308.33h22.11M338.14 282.25v22.11M364.22 278.28h-22.11M368.19 304.36v-22.11M342.11 278.28c-2.19 0-3.97 1.78-3.97 3.97M342.11 308.33c-1.06 0-2.07-.42-2.81-1.16a4 4 0 0 1-1.16-2.81M364.22 308.33c2.19 0 3.97-1.78 3.97-3.97M368.19 282.25c0-2.19-1.78-3.97-3.97-3.97"/><path fill="#231815" d="M350.32 297.35c.31.03.61.02 1.1-.03.77-.06 1.55-.34 2.13-.81.68-.55 1.14-1.34 1.34-2.32h-.03c-.53.58-1.27.92-2.29.92-1.83 0-3.18-1.32-3.18-3.26s1.55-3.75 3.79-3.75c2.44 0 3.74 1.92 3.74 4.47 0 2.24-.74 3.84-1.82 4.87-.92.86-2.18 1.34-3.58 1.44-.45.05-.9.05-1.19.03v-1.56zm1.03-5.62c.02 1.08.63 1.92 1.73 1.92.8 0 1.39-.37 1.69-.87.07-.13.11-.29.11-.56.02-1.42-.51-2.65-1.8-2.65-1 0-1.73.89-1.73 2.16"/><path stroke="#040000" stroke-miterlimit="2" stroke-width=".5" d="M338.14 240.3v22.11M368.19 262.41V240.3M342.11 266.38h22.11M364.22 236.33h-22.11M338.14 240.3c0-1.06.42-2.07 1.16-2.81.75-.74 1.76-1.16 2.81-1.16M339.3 265.21c.74.74 1.75 1.16 2.81 1.16m-3.97-3.96c0 1.05.42 2.06 1.16 2.81M364.22 266.38c2.19 0 3.97-1.78 3.97-3.97M364.22 236.33c1.06 0 2.07.42 2.81 1.16.74.75 1.16 1.76 1.16 2.81"/><path fill="#231815" d="M355.9 247.63c-.29 0-.61 0-1.02.05-2.19.26-3.26 1.61-3.52 3.07h.05c.52-.6 1.31-1.02 2.36-1.02 1.8 0 3.21 1.29 3.21 3.42 0 2-1.47 3.75-3.69 3.75-2.55 0-3.95-1.94-3.95-4.52 0-2.02.72-3.66 1.82-4.71.97-.9 2.23-1.42 3.73-1.55.43-.05.76-.05 1-.03l.02 1.55zm-.93 5.63c0-1.21-.66-2.08-1.82-2.08-.74 0-1.4.45-1.71 1.08-.08.16-.13.36-.13.63.03 1.38.69 2.51 1.97 2.51 1.03 0 1.69-.89 1.69-2.14"/><path stroke="#040000" stroke-miterlimit="2" stroke-width=".5" d="M342.11 350.28h22.11M364.22 320.23h-22.11M338.14 324.2v22.11M368.19 346.31V324.2M338.14 346.311c0 2.19 1.78 3.97 3.97 3.97M342.11 320.23a3.974 3.974 0 0 0-3.97 3.971M364.22 350.281c2.19 0 3.97-1.78 3.97-3.97M368.19 324.201c0-2.19-1.78-3.971-3.97-3.971M254.24 324.2v22.11M284.28 346.31V324.2M258.2 350.28h22.12M280.32 320.23H258.2M258.2 320.23a3.974 3.974 0 0 0-3.97 3.971M254.24 346.311c0 2.19 1.78 3.97 3.97 3.97M280.32 350.281c2.19 0 3.97-1.78 3.97-3.97M284.28 324.201c0-2.19-1.78-3.971-3.97-3.971"/><path fill="#050000" d="m272.74 331.73-3.85 2.22v-4.86h-1.53v4.86l-3.94-2.27-.77 1.33 3.94 2.27-3.94 2.27.77 1.33 3.94-2.27v4.89h1.53v-4.89l3.85 2.22.76-1.33-3.85-2.22 3.85-2.22zM357.68 333.959v-1.55h-1.17l.66-3.22h-1.58l-.66 3.22h-2.08l.66-3.22h-1.58l-.66 3.22h-2.39v1.55h2.07l-.54 2.64h-1.53v1.55h1.21l-.66 3.22h1.58l.66-3.22h2.08l-.66 3.22h1.58l.66-3.22h2.35v-1.55h-2.03l.54-2.64zm-3.62 2.64h-2.08l.54-2.64h2.08z"/><path stroke="#231815" stroke-linecap="round" stroke-miterlimit="2" stroke-width=".25" d="m543.075 238.11-.02.17-.01.2-.02.22-.02.24-.02.27-.02.29-.02.32-.01.33-.02.36-.02.34M541.625 279.83l-.01.12-.01.15"/><path stroke="#231815" stroke-linecap="round" stroke-miterlimit="2" stroke-width=".5" d="m545.585 196.11-.02.17-.02.2-.02.22-.03.25-.02.27-.03.3-.03.32-.03.33-.02.36-.03.35"/><path stroke="#231815" stroke-linecap="round" stroke-miterlimit="2" stroke-width=".25" d="m543.105 237.84-.01.13-.02.14"/><path stroke="#231815" stroke-linecap="round" stroke-miterlimit="2" stroke-width=".5" d="m545.625 195.84-.02.12-.02.15"/><path stroke="#231815" stroke-linecap="round" stroke-miterlimit="2" stroke-width=".25" d="m541.545 350.25.09.16.18.14M541.435 349.51l.01.17.01.15.02.12.01.1.02.09.04.11M541.195 307.64l.01.16.01.13.01.11.02.09.02.1.06.14M541.995 265.69v.16l.01.13.01.1.01.1.02.1.06.14M541.355 347.36l.01.4.01.36.01.34.01.31.01.28.01.24.02.22M541.345 346.9l.01.46"/><path stroke="#231815" stroke-linecap="round" stroke-miterlimit="2" stroke-width=".5" d="M543.815 223.66v.31l.01.11v.1l.02.09.02.11"/><path stroke="#231815" stroke-linecap="round" stroke-miterlimit="2" stroke-width=".25" d="M541.165 304.93v1.49l.01.3v.28l.01.24.01.22v.18M542.025 262.96l-.01.43-.01.38-.01.36v.33l-.01.3v.74l.01.19M541.155 322.19v.2l-.01.22-.01.24v.27l-.01.3v1.36"/><path stroke="#231815" stroke-linecap="round" stroke-miterlimit="2" stroke-width=".5" d="m543.925 221-.03.4-.01.36-.02.35-.01.32-.02.3v.28l-.01.24-.01.22v.19"/><path stroke="#231815" stroke-linecap="round" stroke-miterlimit="2" stroke-width=".25" d="m541.175 321.89-.01.14-.01.16M541.605 280.1l-.02.17-.01.19-.01.22-.01.24-.01.27-.01.29-.02.31-.01.34-.01.35v.33M541.815 350.55l.25.06M543.305 346.89l-.56.01M545.695 346.89h-2.39"/><circle cx="541.345" cy="346.9" r=".125" fill="#231815"/><path stroke="#231815" stroke-linecap="round" stroke-miterlimit="2" stroke-width=".5" d="m545.635 350.67-3.57-.06"/><path stroke="#231815" stroke-linecap="round" stroke-miterlimit="2" stroke-width=".25" d="m542.595 350.07-1.09-.02M541.325 308.37l.13.15.22.11M543.075 324.78h-.55M545.475 324.78h-2.4"/><circle cx="541.125" cy="324.78" r=".125" fill="#231815"/><path stroke="#231815" stroke-linecap="round" stroke-miterlimit="2" stroke-width=".5" d="m541.775 321.06-.13.02-.22.11-.13.15-.06.14-.02.1-.02.09-.01.1-.01.12"/><path stroke="#231815" stroke-linecap="round" stroke-miterlimit="2" stroke-width=".25" d="m541.225 321.63 1.09-.02"/><path stroke="#231815" stroke-linecap="round" stroke-miterlimit="2" stroke-width=".5" d="m541.775 321.06 3.56-.06"/><circle cx="541.165" cy="304.93" r=".125" fill="#231815"/><path stroke="#231815" stroke-linecap="round" stroke-miterlimit="2" stroke-width=".25" d="M545.515 304.94h-2.39M543.125 304.94l-.55-.01"/><path stroke="#231815" stroke-linecap="round" stroke-miterlimit="2" stroke-width=".5" d="m545.365 308.71-3.55-.06"/><path stroke="#231815" stroke-linecap="round" stroke-miterlimit="2" stroke-width=".25" d="m542.345 308.1-1.09-.02M541.675 308.63l.14.02M542.105 266.42l.13.16.21.11"/><path stroke="#231815" stroke-linecap="round" stroke-miterlimit="2" stroke-width=".5" d="m543.865 224.38.07.14.13.15"/><path stroke="#231815" stroke-linecap="round" stroke-miterlimit="2" stroke-width=".25" d="m541.675 279.66 1.09-.02"/><path stroke="#231815" stroke-linecap="round" stroke-miterlimit="2" stroke-width=".5" d="m542.225 279.1 3.57-.06"/><circle cx="541.495" cy="282.81" r=".125" fill="#231815"/><path stroke="#231815" stroke-linecap="round" stroke-miterlimit="2" stroke-width=".25" d="M545.845 282.83h-2.39M543.455 282.83l-.56-.02M542.445 266.69l.15.02M542.225 279.1l-.24.06-.17.13-.1.15-.04.11-.02.09-.02.09-.01.1"/><circle cx="542.025" cy="262.96" r=".125" fill="#231815"/><path stroke="#231815" stroke-linecap="round" stroke-miterlimit="2" stroke-width=".25" d="M546.395 262.98h-2.41"/><path stroke="#231815" stroke-linecap="round" stroke-miterlimit="2" stroke-width=".5" d="m546.145 266.77-3.55-.06"/><path stroke="#231815" stroke-linecap="round" stroke-miterlimit="2" stroke-width=".25" d="m543.125 266.15-1.09-.02M543.985 262.98l-.55-.02"/><circle cx="542.895" cy="240.85" r=".125" fill="#231815"/><path stroke="#231815" stroke-linecap="round" stroke-miterlimit="2" stroke-width=".25" d="M547.265 240.87h-2.41M544.855 240.87l-.55-.02M544.065 224.67l.22.1.12.02M543.715 237.12l-.24.06-.17.13-.1.14-.05.12-.02.08-.01.09-.02.1M543.155 237.66l1.09-.01"/><path stroke="#231815" stroke-linecap="round" stroke-miterlimit="2" stroke-width=".5" d="m543.715 237.12 3.61-.06M547.925 224.85l-3.52-.06"/><path stroke="#231815" stroke-linecap="round" stroke-miterlimit="2" stroke-width=".25" d="m544.945 224.21-1.09-.02M545.885 221.03l-.55-.03"/><circle cx="543.925" cy="221" r=".125" fill="#231815"/><path stroke="#231815" stroke-linecap="round" stroke-miterlimit="2" stroke-width=".25" d="M548.275 221.03h-2.39M545.675 195.65l1.1-.02"/><path stroke="#231815" stroke-linecap="round" stroke-miterlimit="2" stroke-width=".5" d="m546.235 195.13 3.61-.07"/><circle cx="545.335" cy="198.88" r=".25" fill="#231815"/><path stroke="#231815" stroke-linecap="round" stroke-miterlimit="2" stroke-width=".25" d="M549.695 198.92h-2.39M547.305 198.92l-.55-.04"/><path stroke="#231815" stroke-linecap="round" stroke-miterlimit="2" stroke-width=".5" d="m546.235 195.13-.23.05-.17.12-.1.14-.05.12-.02.08-.02.09-.02.11"/><path stroke="#231815" stroke-linecap="round" stroke-miterlimit="2" stroke-width=".25" d="M542.595 350.07c0 .3.25.55.56.56"/><path stroke="#231815" stroke-linecap="round" stroke-miterlimit="2" stroke-width=".5" d="M541.755 350.51s.03.02.04.03M541.575 350.32s0 .02.01.02M541.775 321.06c-.31 0-.56.26-.56.57M542.225 279.1c-.3 0-.55.25-.56.55"/><path stroke="#231815" stroke-linecap="round" stroke-miterlimit="2" stroke-width=".25" d="M543.285 266.55c.1.11.25.17.4.18m-.56-.58c0 .15.05.3.16.41M542.345 308.1c0 .31.25.56.56.57M542.865 321.04c-.31 0-.56.26-.56.57M543.315 279.08c-.3 0-.55.25-.56.55"/><path stroke="#231815" stroke-linecap="round" stroke-miterlimit="2" stroke-width=".5" d="M541.505 308.55s.05.03.08.04"/><path stroke="#231815" stroke-linecap="round" stroke-miterlimit="2" stroke-width=".25" d="M542.275 266.61s.05.03.08.05"/><path stroke="#231815" stroke-linecap="round" stroke-miterlimit="2" stroke-width=".5" d="M544.025 224.63s.06.05.1.08M543.715 237.12c-.3 0-.54.24-.56.54"/><path stroke="#231815" stroke-linecap="round" stroke-miterlimit="2" stroke-width=".25" d="M546.235 195.13c-.29 0-.53.23-.56.53M545.495 224.81c-.15 0-.3-.07-.4-.18a.66.66 0 0 1-.15-.42M544.805 237.11c-.3 0-.54.24-.56.54M547.325 195.11c-.29 0-.53.23-.55.53M543.975 224.58s.03.04.05.05"/><path stroke="#231815" stroke-linecap="round" stroke-miterlimit="2" stroke-width=".5" d="M544.125 224.71s.07.04.11.05M545.335 198.88c-.52 7.37-.99 14.74-1.42 22.12M542.895 240.85c-.34 7.37-.63 14.74-.87 22.12M541.495 282.81c-.16 7.37-.26 14.74-.32 22.12M541.125 324.78c.03 7.37.1 14.75.22 22.12"/><path stroke="#231815" stroke-linecap="round" stroke-miterlimit="2" stroke-width=".25" d="M542.525 324.78c.03 7.37.1 14.75.22 22.12M542.895 282.81c-.16 7.37-.26 14.74-.32 22.12M544.305 240.85c-.34 7.37-.63 14.74-.87 22.12M546.745 198.88c-.52 7.37-.99 14.74-1.42 22.12M543.075 324.78c.03 7.37.1 14.74.22 22.11M543.455 282.83c-.16 7.37-.26 14.74-.32 22.11M544.855 240.87q-.51 11.055-.87 22.11M547.305 198.92c-.52 7.37-.99 14.74-1.42 22.11M543.985 262.98l-.01.36-.01.38-.02.32-.01.38-.02.27-.02.38-.02.23-.02.341-.02.219-.03.24v.02l-.02.18-.02.151-.01.039-.01.08-.01.02-.01.07-.01.03-.01.02-.01.01-.01.01M544.805 237.11h.01l.01.01.01.03v.03l.02.07v.02l.01.08v.04l.01.15.01.18v.02l.01.24.01.23v.84l-.01.38v.33l-.01.38-.01.35-.02.38M543.125 304.94v.35l-.01.38v.32l-.01.38-.01.27-.02.37-.01.23-.02.34-.01.23-.02.23v.02l-.02.18-.02.15v.04l-.02.08v.02l-.02.07-.01.03-.01.02v.01l-.01.01h-.01M543.315 279.08l.01.01.01.01.01.02.01.03v.01l.01.07.01.01.01.08v.05l.02.15.01.17v.02l.01.24.01.23.01.34.01.23v.27l.01.37v.33l-.01.37v.74M543.305 346.89v1.7l-.01.38-.01.23-.01.33-.01.23-.01.24v.02l-.02.17-.01.15-.01.05-.01.08v.01l-.01.08h-.01v.03l-.01.02-.01.01h-.01v.01M542.865 321.04l.01.01h.01v.01l.01.03.01.02v.01l.02.07v.01l.01.08.01.05.02.15.01.17.01.02.01.24.02.23.01.33.01.23.01.27.01.38.01.32.01.38v.73M545.885 221.03l-.02.36-.02.38-.02.33-.03.38-.02.27-.03.38-.02.24-.03.33-.03.23-.02.24-.01.03-.02.17-.03.15v.04l-.02.09-.01.02-.02.07-.01.03-.01.02v.01l-.01.01h-.01M547.325 195.11h.01l.01.01v.01l.01.02.01.02v.02l.01.08.01.08v.05l.01.15.01.18v.84l-.01.23-.01.28-.01.38-.01.33-.02.39-.02.36-.02.38"/><path stroke="#231815" stroke-linecap="round" stroke-miterlimit="2" stroke-width=".5" d="M544.405 224.79h-.05l-.02-.01h-.03l-.02-.01h-.03l-.02-.01M543.975 224.58l-.02-.03-.02-.04-.02-.03-.02-.04-.02-.04-.01-.04-.01-.04v-.13M542.595 266.71h-.08l-.02-.01h-.02l-.03-.01-.02-.01-.02-.01h-.03l-.02-.01M542.275 266.61l-.04-.03-.03-.03-.03-.03-.03-.04-.03-.04-.02-.04-.02-.05-.02-.04-.01-.05v-.04l-.01-.04v-.05M541.815 308.65h-.05l-.03-.01h-.04l-.03-.01-.02-.01h-.02l-.02-.01-.02-.01M541.505 308.55l-.04-.03-.04-.03-.02-.02-.03-.04-.03-.04-.03-.04-.02-.05-.01-.04-.02-.05v-.03l-.01-.05v-.05M542.065 350.61h-.03l-.03-.01h-.03l-.02-.01h-.03l-.03-.01-.02-.01-.03-.01-.02-.01-.03-.01M541.755 350.51l-.02-.01-.02-.02-.02-.01-.01-.02-.02-.02-.02-.01-.01-.02-.02-.02-.01-.02-.01-.02M541.575 350.32l-.01-.03-.01-.02-.01-.03-.01-.03-.01-.02-.01-.03v-.03l-.01-.02v-.06"/><path stroke="#231815" stroke-linecap="round" stroke-miterlimit="2" stroke-width=".25" d="M542.745 346.9v.3l.01.32v.27l-.01.32v.23l-.01.32v.21l-.01.27-.01.18-.02.22v.04l-.01.14-.02.11v.05l-.02.07-.01.06-.01.03-.01.02-.01.01h-.01M542.315 321.61l.01.01.01.01.01.02v.02h.01l.01.06.02.07v.05l.02.12.02.13v.04l.02.22.01.18.02.27.01.21.01.23.01.32.01.27v.32l.01.3v.32"/><path stroke="#231815" stroke-linecap="round" stroke-miterlimit="2" stroke-width=".5" d="M541.125 324.78v-1.43l.01-.32v-.16l.01-.32.01-.12.01-.27.01-.16v-.13l.01-.1.01-.02.01-.06v-.01l.01-.03v-.02h.01M541.505 350.05l-.01-.01-.01-.04v-.01l-.01-.05v-.03l-.02-.1-.01-.13-.01-.16-.02-.27v-.12l-.01-.17-.02-.31v-.23l-.01-.32-.01-.27-.01-.32-.01-.3v-.31"/><path stroke="#231815" stroke-linecap="round" stroke-miterlimit="2" stroke-width=".25" d="m542.575 304.93-.01.3v.32l-.01.28-.01.32-.01.23-.01.31-.01.21-.02.27-.02.18-.02.22v.04l-.02.13-.01.12-.01.05-.02.07-.01.06-.01.03-.01.01-.01.01v.01h-.01M542.765 279.64l.01.01h.01v.02l.01.02v.01l.02.06.01.07.01.05.01.11.01.14.01.04.01.22.01.18.01.27v.21l.01.23v1.21l-.01.32"/><path stroke="#231815" stroke-linecap="round" stroke-miterlimit="2" stroke-width=".5" d="M541.495 282.81v-.3l.01-.31.01-.28.01-.32.01-.22.01-.32.01-.16.02-.32v-.13l.02-.26.01-.16.02-.13.01-.11v-.02l.01-.05v-.01l.01-.04.01-.01h.01M541.255 308.08h-.01v-.02l-.01-.03v-.01l-.01-.06v-.02l-.01-.1-.01-.13-.01-.16-.01-.27v-.12l-.01-.16v-.32l-.01-.23v-1.52"/><path stroke="#231815" stroke-linecap="round" stroke-miterlimit="2" stroke-width=".25" d="m543.435 262.96-.01.31-.02.32-.01.27-.02.32-.01.23-.03.32-.01.2-.03.29-.02.19-.02.2v.02l-.02.15-.03.13v.03l-.02.07v.02l-.02.06-.01.02-.01.02-.01.01-.01.01M544.245 237.65h.02v.01l.01.02.01.02v.01l.01.06.01.07.01.05.01.11.01.13v.05l.01.22v1.22l-.01.28-.01.32-.01.31-.01.32"/><path stroke="#231815" stroke-linecap="round" stroke-miterlimit="2" stroke-width=".5" d="m542.895 240.85.02-.3.01-.32.02-.28.02-.32.01-.23.02-.32.01-.16.03-.32.01-.13.02-.27.02-.16.01-.13.02-.11v-.02l.01-.05.01-.01v-.02l.01-.02v-.01l.01-.01M542.035 266.13v-.01h-.01v-.01l-.01-.03v-.01l-.01-.06v-.02l-.01-.1v-.14l-.01-.16v-.87l.01-.23v-.32l.01-.27v-.32l.01-.3.01-.32"/><path stroke="#231815" stroke-linecap="round" stroke-miterlimit="2" stroke-width=".25" d="m545.335 221-.02.3-.02.33-.03.28-.02.32-.02.23-.03.33-.02.19-.04.29-.02.2-.03.2v.02l-.03.15-.02.13-.01.03-.02.07v.02l-.02.06-.01.03-.01.02h-.01l-.01.01M546.775 195.63l.01.01.01.01.01.02v.03l.02.06v.07l.01.05.01.11v.19l.01.22v.18l-.01.28v.22l-.01.23-.01.33-.02.28-.01.33-.02.3-.02.33"/><path stroke="#231815" stroke-linecap="round" stroke-miterlimit="2" stroke-width=".5" d="m545.335 198.88.02-.31.03-.32.02-.28.03-.32.02-.24.03-.32.01-.17.04-.32.01-.13.03-.27.02-.16.02-.14.02-.11.01-.02.01-.05v-.03l.01-.02.01-.01v-.01M543.855 224.19h-.01v-.01l-.01-.04v-.01l-.01-.06v-.12l-.01-.14v-.16l.01-.26v-.3l.01-.32.01-.23.01-.32.02-.28.01-.32.02-.3.02-.32"/><path stroke="#231815" stroke-linecap="round" stroke-miterlimit="2" stroke-width=".25" d="m548.075 194.12 2.72-32.71"/><path stroke="#231815" stroke-miterlimit="2" d="M543.525 308.68c-.02 4.12-.03 8.23-.03 12.35M544.295 266.74c-.13 4.11-.24 8.22-.33 12.32M546.095 224.85c-.23 4.07-.44 8.15-.63 12.23"/><path stroke="#231815" stroke-linecap="round" stroke-miterlimit="2" stroke-width=".25" d="m546.065 267.39-.02.12-.02.09-.02.07v.01"/><path stroke="#231815" stroke-linecap="round" stroke-miterlimit="2" stroke-width=".5" d="m547.865 225.26-.03.12-.02.09-.02.06v.01M545.755 278.56l.02.15.01.17.02.2.01.22.01.26.01.27.01.3.01.33v1.51l-.01.42M547.285 236.44l.01.14.01.17.01.19.01.21v.24l.01.26v.91l-.01.34-.01.37-.01.38-.01.39-.01.41M545.585 339.65l.11 7.61.01.41v.77l-.01.37v.34l-.01.32-.01.3-.01.28-.01.25-.01.23-.02.2-.01.18-.02.16-.01.13-.02.11-.01.07-.01.05v.01"/><path stroke="#231815" stroke-linecap="round" stroke-miterlimit="2" stroke-width=".5" d="m545.465 324.35.05 7.64.07 7.66M545.595 297.69l-.08 7.64-.01.42-.01.41-.01.39-.01.38-.02.35-.01.33-.02.3-.02.28-.02.25-.02.23-.02.2-.02.17-.02.15"/><path stroke="#231815" stroke-linecap="round" stroke-miterlimit="2" stroke-width=".25" d="m545.845 282.39-.14 7.63-.11 7.67M546.645 255.72l-.27 7.62-.01.42-.02.4-.02.38-.02.36-.03.35-.02.33-.02.3-.03.29-.02.26-.02.24-.03.21-.02.19-.03.17-.02.15"/><path stroke="#231815" stroke-linecap="round" stroke-miterlimit="2" stroke-width=".5" d="m547.285 240.45-.34 7.61-.3 7.66M548.715 213.76l-.46 7.64-.03.43-.03.4-.03.4-.03.37-.03.35-.03.33-.04.3-.03.28-.03.25-.03.23-.03.2-.03.17-.02.15"/><path stroke="#898989" stroke-linecap="round" stroke-miterlimit="2" stroke-width=".25" d="M551.765 203.46v-.04"/><path stroke="#231815" stroke-linecap="round" stroke-miterlimit="2" stroke-width=".5" d="m549.725 198.46-.52 7.64-.49 7.66"/><path stroke="#231815" stroke-linecap="round" stroke-miterlimit="2" stroke-width=".25" d="M547.905 374.55v.02M547.905 374.55v.02"/><path stroke="#231815" stroke-linecap="round" stroke-miterlimit="2" stroke-width=".5" d="m545.305 309.19-.01.12-.02.09-.02.06v.01M545.225 320.23l.01.02.01.06.02.09.02.12.02.15.02.17.01.2.02.23.02.25.02.27.01.31.02.32.01.35.01.371.01.379.01.41v.42"/><path stroke="#231815" stroke-linecap="round" stroke-miterlimit="2" stroke-width=".25" d="m564.845 411.22-.17-3.11"/><path stroke="#231815" stroke-linecap="round" stroke-miterlimit="2" stroke-width=".5" d="m549.825 194.63.01.15.01.17v.95l-.01.3-.01.33-.01.35-.02.37-.02.38-.02.41-.03.42"/><path stroke="#231815" stroke-linecap="round" stroke-miterlimit="2" stroke-width=".25" d="m564.525 405.28-.14-2.82M553.845 166.42v.03"/><path stroke="#898989" stroke-linecap="round" stroke-miterlimit="2" stroke-width=".25" d="M553.845 166.42v.03"/><circle cx="545.695" cy="346.9" r=".125" fill="#231815"/><path stroke="#898989" stroke-linecap="round" stroke-miterlimit="2" stroke-width=".25" d="m545.855 376.71.98-2.22M544.575 379.48l2.26-4.99M547.695 374.53l-.99 2.23M547.695 374.53l-2.26 5.1M544.725 379.26l1.13-2.55M546.705 376.76l-1.13 2.55"/><path stroke="#231815" stroke-linecap="round" stroke-miterlimit="2" stroke-width=".25" d="m547.065 379.33-1.01 2.25"/><path stroke="#898989" stroke-linecap="round" stroke-miterlimit="2" stroke-width=".25" d="m547.065 379.33-2.3 5.16"/><circle cx="545.475" cy="324.78" r=".125" fill="#231815"/><path stroke="#231815" stroke-linecap="round" stroke-miterlimit="2" stroke-width=".5" d="m547.245 236.01.01.05.01.09.01.13.01.16M545.175 309.7h-1.09"/><path stroke="#231815" stroke-linecap="round" stroke-miterlimit="2" stroke-width=".25" d="M543.525 309.89h-.01"/><circle cx="545.515" cy="304.93" r=".125" fill="#231815"/><path stroke="#231815" stroke-linecap="round" stroke-miterlimit="2" stroke-width=".25" d="m551.385 156.82 1.01 2.58.88 2.26"/><path stroke="#898989" stroke-linecap="round" stroke-miterlimit="2" stroke-width=".25" d="m551.255 156.5 2.02 5.16"/><path stroke="#231815" stroke-linecap="round" stroke-miterlimit="2" stroke-width=".25" d="m551.905 164.28-1.11-2.87"/><path stroke="#898989" stroke-linecap="round" stroke-miterlimit="2" stroke-width=".25" d="m553.625 166.46-1.26-3.26-.71-1.84M552.765 166.5l-1.97-5.09M553.625 166.46l-1.97-5.1M552.765 166.5l-.86-2.22"/><path stroke="#231815" stroke-linecap="round" stroke-miterlimit="2" stroke-width=".5" d="M544.545 278.05h1.09"/><circle cx="545.845" cy="282.82" r=".125" fill="#231815"/><path stroke="#231815" stroke-linecap="round" stroke-miterlimit="2" stroke-width=".25" d="m554.015 140.17-.58-1.42-.3-.74M556.555 138.17l-.58-1.43M555.975 136.74l-.3-.74M567.295 143.9l-.02-.06"/><path stroke="#231815" stroke-linecap="round" stroke-miterlimit="2" stroke-width=".5" d="M545.915 267.92h-1.1"/><circle cx="546.395" cy="262.97" r=".125" fill="#231815"/><circle cx="547.265" cy="240.85" r=".125" fill="#231815"/><path stroke="#231815" stroke-linecap="round" stroke-miterlimit="2" stroke-width=".25" d="M553.655 166.52h-.01"/><path stroke="#231815" stroke-linecap="round" stroke-miterlimit="2" stroke-width=".5" d="M546.075 235.9h1.1M547.695 225.78h-1.09"/><circle cx="548.275" cy="221.01" r=".125" fill="#231815"/><path stroke="#231815" stroke-linecap="round" stroke-miterlimit="2" stroke-width=".5" d="M548.635 194.12h1.1"/><circle cx="549.695" cy="198.89" r=".25" fill="#231815"/><path stroke="#231815" stroke-linecap="round" stroke-miterlimit="2" stroke-width=".5" d="M546.385 263.16v-.19M546.355 263.94l.03-.78M545.845 282.82v-.23"/><path stroke="#231815" stroke-linecap="round" stroke-miterlimit="2" stroke-width=".25" d="M545.515 305.14v-.21M545.505 305.83c0-.23 0-.46.01-.69"/><path stroke="#231815" stroke-linecap="round" stroke-miterlimit="2" stroke-width=".5" d="M545.845 282.59v-.66M546.335 264.32c0-.13.01-.26.02-.39"/><path stroke="#231815" stroke-linecap="round" stroke-miterlimit="2" stroke-width=".25" d="M545.495 306.19v-.36M545.855 281.93v-.37"/><path stroke="#231815" stroke-linecap="round" stroke-miterlimit="2" stroke-width=".5" d="M546.295 265.05c.02-.24.03-.49.04-.73"/><path stroke="#231815" stroke-linecap="round" stroke-miterlimit="2" stroke-width=".25" d="M545.855 281.09v.47M545.475 306.8c0-.2.01-.41.02-.61M545.855 281.09v-.5M545.465 307.24c0-.15.01-.29.02-.44"/><path stroke="#231815" stroke-linecap="round" stroke-miterlimit="2" stroke-width=".5" d="M546.265 265.43c0-.12.02-.25.02-.37"/><path stroke="#231815" stroke-linecap="round" stroke-miterlimit="2" stroke-width=".25" d="M545.855 280.59v-.32M545.445 307.64c0-.13.01-.26.02-.4"/><path stroke="#231815" stroke-linecap="round" stroke-miterlimit="2" stroke-width=".5" d="M546.225 266.03c.02-.2.03-.4.05-.6"/><path stroke="#231815" stroke-linecap="round" stroke-miterlimit="2" stroke-width=".25" d="M545.845 280.27c0-.14 0-.29-.01-.43"/><path stroke="#231815" stroke-linecap="round" stroke-miterlimit="2" stroke-width=".5" d="m546.185 266.4.03-.37"/><path stroke="#231815" stroke-linecap="round" stroke-miterlimit="2" stroke-width=".25" d="M545.835 279.84c0-.14 0-.28-.02-.42"/><path stroke="#231815" stroke-linecap="round" stroke-miterlimit="2" stroke-width=".5" d="M546.155 266.78c.01-.13.03-.25.04-.38"/><path stroke="#231815" stroke-linecap="round" stroke-miterlimit="2" stroke-width=".25" d="M545.825 279.42c0-.13-.01-.25-.02-.38"/><path stroke="#231815" stroke-linecap="round" stroke-miterlimit="2" stroke-width=".5" d="M545.805 279.04c0-.09-.01-.18-.02-.26M547.265 240.85c0-.14.01-.27.02-.41"/><path stroke="#231815" stroke-linecap="round" stroke-miterlimit="2" stroke-width=".25" d="M548.265 221.21c0-.07 0-.14.01-.21"/><path stroke="#231815" stroke-linecap="round" stroke-miterlimit="2" stroke-width=".5" d="M548.225 221.9c.02-.23.03-.46.05-.69M548.195 222.27c0-.12.02-.24.03-.36M548.145 222.88c.02-.2.03-.41.05-.61M548.105 223.31c.01-.14.03-.29.04-.43M548.065 223.71c.01-.13.03-.26.04-.4M545.845 282.82c-.16 7.37-.26 14.74-.32 22.12M549.695 198.89c-.52 7.37-.99 14.74-1.42 22.12M547.265 240.85c-.34 7.37-.63 14.74-.87 22.12"/><path stroke="#898989" stroke-linecap="round" stroke-miterlimit="2" stroke-width=".25" d="M551.765 203.46c-3.04 44.62-4.32 89.35-3.82 134.08"/><path stroke="#898989" stroke-linecap="round" stroke-miterlimit="2" stroke-width=".25" d="M552.275 203.46c-3.04 44.62-4.32 89.35-3.83 134.08"/><path stroke="#231815" stroke-linecap="round" stroke-miterlimit="2" stroke-width=".5" d="m548.065 223.71-.01.11-.01.13-.02.13v.02l-.01.13-.02.13-.01.13-.02.13-.02.12-.02.13-.02.13M547.905 225v.02l-.01.08-.01.08-.02.08-.01.08h-.01l-.01.08-.02.08-.02.08-.01.05-.02.05-.02.05-.01.02-.01.01-.01.01h-.01l-.01.01M545.635 278.05h.02l.01.02.01.01.01.03.01.04.01.03.01.06.01.05.01.06v.01l.01.05.01.06.01.05v.06M544.085 309.7h-.01v-.01h-.01l-.01-.03v-.02l-.01-.07-.01-.01-.01-.09v-.06l-.01-.1v-.08l-.01-.1v-.02l-.01-.1v-.1l-.01-.1v-.1"/><path stroke="#231815" stroke-linecap="round" stroke-miterlimit="2" stroke-width=".25" d="m545.445 307.64-.01.11-.01.13-.01.13v.14l-.01.13-.01.13-.01.13-.01.13-.02.13-.01.13"/><path stroke="#231815" stroke-linecap="round" stroke-miterlimit="2" stroke-width=".5" d="M545.345 308.93v.01l-.01.08-.01.08-.01.08-.01.08v.01l-.01.08-.02.08-.01.07-.01.05-.02.05-.02.05v.02l-.01.01-.01.01-.01.01h-.01M545.425 351.69h-1.1M544.415 279.05l.01-.02v-.1l.01-.11.01-.1.01-.1v-.07l.01-.1.01-.04.01-.11v-.02l.01-.09.01-.02.01-.06.01-.02.01-.03v-.01h.01M544.085 320h1.09M543.955 321v-.02l.01-.1.01-.11v-.1l.01-.1.01-.07.01-.1v-.04l.01-.11.01-.02.01-.09v-.02l.02-.06v-.02l.01-.03V320h.02M545.915 237.08v-.03l.01-.12.01-.12.01-.12.01-.11.01-.09.02-.12v-.05l.02-.12v-.02l.02-.11.01-.03.01-.06.01-.02.01-.04v-.01l.01-.01M547.175 235.9h.01l.01.01.01.01v.01l.02.03.01.03v.04l.01.05.01.05.01.05v.01l.01.05v.05l.01.05v.06M547.285 236.4l.02.18.01.2.01.24v.08l.01.33v.99l-.01.41v.4l-.02.41-.01.4-.01.41M544.815 267.92h-.01v-.01l-.01-.04-.01-.02v-.07l-.01-.03-.01-.09v-.08l-.01-.12v-.23l-.01-.12v-.35M546.155 266.78l-.01.06-.01.07-.01.07v.01l-.01.07-.01.07-.01.07-.01.07-.01.07-.01.07-.01.07M546.055 267.48v.01l-.01.05-.01.041-.01.049-.01.04v.01l-.01.04-.01.05-.01.04-.01.03-.01.03-.02.03-.01.01v.01h-.02M549.735 194.12h.01v.01l.01.01.01.01.01.03.01.03.01.03v.05l.01.05.01.05v.06l.01.05v.1M549.825 194.6l.01.18.01.2v.7l-.01.37v.31l-.02.39-.01.42-.03.43-.02.43-.03.43-.03.43"/><path stroke="#231815" stroke-linecap="round" stroke-miterlimit="2" stroke-width=".25" d="M548.465 195.08v-.02l.01-.1.02-.1.01-.1.01-.09.01-.07.02-.1v-.04l.02-.09v-.02l.02-.09v-.02l.02-.06v-.02l.02-.02v-.02h.01"/><path stroke="#231815" stroke-linecap="round" stroke-miterlimit="2" stroke-width=".5" d="m546.605 225.78-.01-.01v-.01l-.01-.02v-.02l-.01-.08-.01-.08v-.04l-.01-.09v-.6"/><path stroke="#898989" stroke-linecap="round" stroke-miterlimit="2" stroke-width=".25" d="m548.605 352.93.02 1.62v2.16l-.01 2.16-.03 2.17-.05 2.09-.06 2.04-.06 1.78-.08 1.75-.1 1.65-.02.4-.1 1.38-.1 1.26-.11 1.16M547.905 374.57l-.03.29-.05.48-.06.47-.05.44-.05.37-.05.35-.06.33-.05.31-.02.11-.05.26-.05.24-.05.22-.05.2-.02.1-.04.14-.04.13-.04.12-.04.1-.04.1M548.455 337.53l.01.78.01 1.54.02 1.54.01.76.01 1.54.02 1.54.02 1.54.01 1.54.02 1.54.01 1.54.01 1.54M553.315 188.06l-.05.76-.1 1.54-.11 1.54-.05.78-.1 1.54-.1 1.54-.11 1.54-.1 1.54-.11 1.54-.1 1.54-.11 1.54M553.275 161.66l.03.09.01.03.03.1.03.1.02.1.02.07.02.1.02.1.02.1.02.1.02.1M553.515 162.65l.04.24.03.24.04.27.03.29.03.32.01.04.02.23.02.32.03.33.02.32.02.33.02.33M553.845 166.45v.03h.01v.03M553.855 166.51l.04 1.16.03 1.26.01 1.38v2.05l-.02 1.75-.03 1.77-.06 2.04-.08 2.09-.06 1.59-.11 2.16-.12 2.15-.14 2.15"/><path stroke="#898989" stroke-linecap="round" stroke-miterlimit="2" stroke-width=".5" d="m564.845 411.219-.17-3.11M564.525 405.28l-.14-2.82M564.635 500.52l.16-.39M567.295 143.9l-.02-.06M565.075 138.21l-.44-1.08M565.525 139.29l-.72-1.74M565.525 139.29l-.45-1.08M566.665 142.1l-.06-.15-.11-.28-.11-.28-.12-.28-.11-.29-.11-.28-.06-.13-.11-.28-.12-.28-.11-.28-.12-.28M564.795 500.13l.1-.24.26-.63.26-.63.26-.63.21-.52.26-.63.26-.64.17-.43.14-.35.12-.31.11-.3.11-.32.11-.35.12-.37v-.02M567.285 493.76l.43-1.49.23-.83v-.02l.22-.92.16-.93.03-.24.16-1.35.01-.1.15-1.81.1-1.84.07-2.59.03-1.96-.01-3.31-.03-1.98-.12-3.8-.08-2.05-.23-4.29-.13-1.94-.22-3.17-.23-3.19-.46-6.38-.46-6.38-.46-6.39-.06-.78-.56-8.27-.51-8.26-.47-8.27M564.675 408.11l-.02-.28-.01-.29-.02-.28-.01-.28-.02-.28-.01-.29-.02-.28-.01-.28-.02-.28-.01-.29M564.385 402.46l-.02-.32-.01-.31-.02-.31-.01-.31-.02-.31-.01-.31-.02-.31-.01-.31-.02-.31-.01-.32M564.235 399.339l-.69-15.86-.61-18.54-.4-18.55-.19-15.88-.04-15.88.15-18.55.36-18.55.46-15.87.67-17.2.85-17.2 1.02-17.19.58-8.58.62-8.59.31-4.29.31-4.29.31-4.28.3-4.27.26-4.22.2-4.1.12-3.9.05-3.65-.02-3.34-.08-2.99-.14-2.58-.21-2.14-.12-.89-.14-.77-.14-.65-.15-.58-.3-1.09-.28-.97M567.275 143.84l-.05-.14-.05-.18-.06-.17-.01-.04-.06-.17-.06-.18-.06-.17-.06-.18-.06-.17-.07-.17-.07-.17"/><path stroke="#231815" stroke-linecap="round" stroke-miterlimit="2" stroke-width=".25" d="M553.665 166.5v.02h-.01"/><path stroke="#898989" stroke-linecap="round" stroke-miterlimit="2" stroke-width=".25" d="m548.025 373.3-.02.11-.03.12-.03.13-.02.12-.03.13-.04.12-.02.08-.03.13-.04.1-.04.1-.03.09M553.885 167.66l-.01-.09-.02-.11-.02-.12-.02-.12-.02-.11-.02-.12-.01-.04-.02-.12-.03-.11-.03-.11-.04-.09M546.835 374.49l.07-.18.07-.22v-.01l.08-.31.06-.25.09-.48.09-.54.08-.58.1-.86.09-.95.04-.38.09-1.16.09-1.29.02-.27.08-1.52.07-1.63v-.03l.06-1.79.04-1.77.03-2.02.02-1.81v-2.17l-.01-1.84M556.555 138.17l-.88-2.17M555.675 501.65v-.01l.01-.03.02-.05.03-.06.07-.18.1-.24.12-.28.13-.33.3-.75.35-.85.37-.91.39-.97.4-1.02.36-1.18.34-1.29.17-.65.15-.67.14-.72.13-.84.11-.97.09-1.12.15-2.54v-.12l.08-3.11v-3.57l-.07-3.88-.15-4.21-.22-4.39-.28-4.49-.33-4.76-.36-5.19-.4-5.65-.45-6.15-.06-.83-.87-12.9-.78-12.9-.17-3-.28-5.31-.62-13.14-.35-8.36-.45-13.14M553.845 370.89l-.46-17.62-.26-17.63-.09-17.63v-.88l.08-13.97.25-17.59.44-17.59.28-8.67.15-4.03.75-17.47.93-17.45.02-.47.96-15.13.91-12.88.41-5.73.37-5.23.33-4.8.29-4.47.09-1.62.3-6.98.05-2.01.04-5.45-.06-3.17-.13-2.71-.19-2.24-.12-.89-.13-.76-.3-1.34-.33-1.26-.19-.68-.54-1.57M557.695 140.97l-.08-.21-.12-.28-.11-.28-.07-.17-.12-.28-.11-.28-.07-.18-.12-.28-.11-.28-.11-.28-.12-.28M552.765 188.56l.01-.05v-.06l.01-.05v-.11l.01-.05v-.11l.01-.05v-.05"/><path stroke="#898989" stroke-linecap="round" stroke-miterlimit="2" stroke-width=".25" d="m552.805 188.03.11-1.8.12-2.12.08-1.78.08-1.97.05-1.72.04-1.74v-.05l.02-1.58v-1.76l-.01-1.24-.03-1.13-.02-.38-.04-.92-.05-.83-.05-.58-.05-.52-.07-.46-.04-.24-.06-.31v-.01l-.06-.21-.06-.18M551.765 203.42l.05-.75.1-1.48.11-1.49.05-.74.1-1.48.1-1.49.1-1.49.1-1.48.1-1.49.1-1.48.09-1.49M548.095 352.43l-.01-.74-.01-1.49-.02-1.49v-.75l-.02-1.49-.01-1.49-.02-1.49-.02-1.49-.01-1.49-.02-1.49-.01-1.49M555.155 142.96l-1.14-2.79M554.745 141.95l-.38-.94-1.23-3M557.205 482.03c0-.36.02-.71.02-1.07M553.135 499.639l.01-.03.02-.04.02-.06.03-.07.04-.09.08-.2.1-.25.12-.28.13-.32.14-.34.31-.76.33-.82.36-.87.13-.31.23-.59.19-.52.17-.47.15-.47.16-.55.02-.09.2-.72.12-.46.03-.1.16-.62.11-.48.1-.49.09-.52.06-.39.08-.55.07-.62.05-.63.08-.91.06-.96.02-.39.05-1.05.03-1.13.02-.46M557.225 480.96l-.01-5.23-.18-5.92-.34-6.26-.23-3.38-.26-3.64-.58-8.07-.67-9.2-.71-10.37-.71-11.59-.34-6.1-1.04-21.38-.5-13.28-.59-21.36-.33-21.37-.05-21.41v-1.36l.02-2.36.26-21.4.53-21.33.8-21.33.56-11.86.23-4.45 1.24-20.77.72-10.4.67-9.16.57-8.01.47-6.89.32-6.3.15-5.8-.02-5.1-.07-2.21-.11-1.96-.14-1.7-.18-1.4-.22-1.09-.23-1-.53-1.9-.57-1.66"/><path stroke="#231815" stroke-linecap="round" stroke-miterlimit="2" stroke-width=".5" d="m545.545 351.44-.12.25M545.175 320l.1.45"/><path stroke="#898989" stroke-linecap="round" stroke-miterlimit="2" stroke-width=".25" d="m553.825 165.91.02.51"/><path stroke="#231815" stroke-linecap="round" stroke-miterlimit="2" d="m551.255 156.5 1.88-18.49M611.615 143.22l-46.92-5.94M564.635 137.13l-8.96-1.13M555.675 136l-2.54 2.01"/><path stroke="#231815" stroke-miterlimit="2" d="M550.795 161.41q-1.56 16.83-2.79 33.69"/><path stroke="#231815" stroke-linecap="round" stroke-miterlimit="2" d="m552.175 158.84-.18 2.43M551.655 161.36l-.86.05M551.255 156.5l.92 2.34M544.765 384.49c1.49 38.47 4.28 76.87 8.37 115.15M564.635 500.52l-8.96 1.13M553.135 499.64l2.54 2.01M611.615 494.21V143.22M594.605 496.36l1.7-.21 1.7-.22 1.7-.21 1.7-.22 1.7-.21 1.7-.22 1.7-.21 1.7-.22 1.71-.21 1.7-.22M564.635 500.52l29.97-4.16"/><path stroke="#231815" stroke-miterlimit="2" d="M543.795 350.67c.18 9.26.44 18.52.79 27.78"/><path stroke="#231815" stroke-linecap="round" stroke-miterlimit="2" d="m544.575 378.61.86 1.02"/><path stroke="#231815" stroke-miterlimit="2" d="m545.485 382.86-.72 1.63"/><path stroke="#231815" stroke-linecap="round" stroke-miterlimit="2" d="M545.435 379.48v3.51"/><path stroke="gray" stroke-miterlimit="2" stroke-width=".5" d="M730 438.88h2.83M932.39 438.88h2.83M824.11 483.1v-2.83M841.11 483.1v-2.83M758.34 154v2.83M732.83 178.38H730M906.88 156.83V154M935.22 178.38h-2.83M761.51 204.24c.95-.78 1.51-1.95 1.51-3.18m-4.93 4.02c1.21.24 2.46-.07 3.42-.85M910.42 201.05a4.11 4.11 0 1 0-8.22 0 4.11 4.11 0 0 0 8.22 0ZM910.42 427.82a4.11 4.11 0 1 0-8.22 0 4.11 4.11 0 0 0 8.22 0Z"/><path stroke="gray" stroke-miterlimit="2" stroke-width=".5" d="M763.02 201.05a4.11 4.11 0 1 0-8.22 0 4.11 4.11 0 0 0 8.22 0ZM763.02 427.82a4.11 4.11 0 1 0-8.22 0 4.11 4.11 0 0 0 8.22 0Z"/><path stroke="#000" stroke-miterlimit="2" d="m754.32 162.22-18.65 13.32M845.37 483.1h-25.52"/><path stroke="#000" stroke-miterlimit="2" stroke-width=".5" d="M819.85 480.27h25.52"/><path stroke="#000" stroke-linecap="round" stroke-miterlimit="2" d="m735.67 441.71 26.46 18.91M770.37 463.26h49.48"/><path stroke="#000" stroke-miterlimit="2" d="M845.37 463.26h49.48M730 441.71V175.54"/><path stroke="#000" stroke-miterlimit="2" stroke-width=".5" d="M732.83 441.71V175.54"/><path stroke="#000" stroke-linecap="round" stroke-miterlimit="2" d="M730 441.71h5.67M929.55 441.71h5.67"/><path stroke="#000" stroke-miterlimit="2" d="M755.51 159.91V154"/><path stroke="#000" stroke-linecap="round" stroke-miterlimit="2" stroke-width=".5" d="M775.92 156.83v4.25"/><path stroke="#000" stroke-miterlimit="2" stroke-width=".5" d="M787.26 380.49V265.4M870.31 388.14h-75.4"/><path stroke="#000" stroke-linecap="round" stroke-miterlimit="2" stroke-width=".5" d="M804.26 161.08v-4.25"/><path stroke="#000" stroke-linecap="round" stroke-miterlimit="2" d="M819.85 483.1v-19.84"/><path stroke="#000" stroke-miterlimit="2" stroke-width=".5" d="M826.23 430.66v-22.68"/><path stroke="gray" stroke-miterlimit="2" stroke-width=".5" d="M892.99 339.07h8.5M892.99 338.04h8.5"/><path stroke="#000" stroke-miterlimit="2" stroke-width=".5" d="M838.99 407.98v22.68"/><path stroke="#000" stroke-linecap="round" stroke-miterlimit="2" d="M845.37 483.1v-19.84"/><path stroke="gray" stroke-miterlimit="2" stroke-width=".5" d="M901.49 333.72h-8.5M901.49 331.66h-8.5M901.49 331.24h-8.5M901.49 329.18h-8.5M901.49 324.86h-8.5M901.49 323.83h-8.5"/><path stroke="#000" stroke-linecap="round" stroke-miterlimit="2" stroke-width=".5" d="M860.96 156.83v4.25"/><path stroke="#000" stroke-miterlimit="2" stroke-width=".5" d="M877.96 265.4v115.09"/><path stroke="gray" stroke-miterlimit="2" stroke-width=".5" d="M888.74 339.24v-15.59"/><path stroke="#000" stroke-linecap="round" stroke-miterlimit="2" stroke-width=".5" d="M889.3 161.08v-4.25"/><path stroke="gray" stroke-miterlimit="2" stroke-width=".5" d="M892.99 339.24v-15.59M901.49 339.24v-15.59M905.74 323.65v15.59"/><path stroke="#000" stroke-linecap="round" stroke-miterlimit="2" d="M909.71 159.91V154"/><path stroke="#000" stroke-miterlimit="2" stroke-width=".5" d="M794.91 257.75h75.4M932.39 441.71V175.54"/><path stroke="#000" stroke-linecap="round" stroke-miterlimit="2" d="M935.22 441.71V175.54M903.09 460.62l26.46-18.91"/><path stroke="#000" stroke-miterlimit="2" stroke-width=".5" d="M843.95 193.26h-22.68M821.27 180.5h22.68"/><path stroke="#000" stroke-linecap="round" stroke-miterlimit="2" d="M730 175.54h5.67M929.55 175.54h5.67"/><path stroke="#000" stroke-miterlimit="2" stroke-width=".5" d="M889.3 161.08h-28.34M804.26 161.08h-28.34M755.51 156.83h154.2"/><path stroke="#000" stroke-linecap="round" stroke-miterlimit="2" d="M755.51 154h154.2"/><path stroke="#000" stroke-miterlimit="2" d="m929.55 175.54-18.65-13.32M894.85 463.26c2.95 0 5.83-.92 8.24-2.64M762.13 460.62c2.4 1.72 5.28 2.64 8.24 2.64"/><path stroke="#000" stroke-miterlimit="2" stroke-width=".5" d="M794.91 257.75a7.65 7.65 0 0 0-7.65 7.65M877.96 265.4a7.65 7.65 0 0 0-7.65-7.65M870.31 388.14a7.65 7.65 0 0 0 7.65-7.65M787.26 380.49a7.65 7.65 0 0 0 7.65 7.65M826.23 407.98c0-3.52 2.86-6.38 6.38-6.38s6.38 2.86 6.38 6.38M838.99 430.66c0 3.52-2.86 6.38-6.38 6.38s-6.38-2.86-6.38-6.38M821.27 193.26c-3.52 0-6.38-2.86-6.38-6.38s2.86-6.38 6.38-6.38M843.95 180.5c3.52 0 6.38 2.86 6.38 6.38s-2.86 6.38-6.38 6.38"/><path stroke="#000" stroke-miterlimit="2" d="M909.71 159.91c0 .92.44 1.77 1.19 2.31M754.32 162.22c.74-.53 1.19-1.39 1.19-2.31"/><path stroke="gray" stroke-miterlimit="2" stroke-width=".5" d="M890.86 321.53c-1.17 0-2.13.95-2.13 2.13m4.26-.01c0-1.17-.95-2.13-2.13-2.13M890.86 341.37c1.17 0 2.13-.95 2.13-2.13m-4.25 0c0 1.17.95 2.13 2.13 2.13M905.75 339.24c0 1.18-.96 2.13-2.13 2.13-1.18 0-2.13-.96-2.13-2.13M903.62 321.53c-1.17 0-2.13.95-2.13 2.13m4.25-.01c0-1.17-.95-2.13-2.13-2.13"/></svg>