<svg xmlns="http://www.w3.org/2000/svg" width="20" height="20" fill="none" viewBox="0 0 20 20"><path stroke="currentColor" stroke-linecap="round" stroke-linejoin="round" d="M4.5 17v-.4a5.6 5.6 0 0 1 .41-2.147 5.5 5.5 0 0 1 1.2-1.813 5.3 5.3 0 0 1 1.705-1.201c.64-.282 1.33-.43 2.028-.439m0 0A3.73 3.73 0 0 1 7.21 9.84a4 4 0 0 1-.852-1.302A4 4 0 0 1 6.072 7a4 4 0 0 1 .288-1.537c.196-.488.485-.93.85-1.303.367-.373.802-.667 1.28-.866.48-.2.993-.3 1.51-.294a3.7 3.7 0 0 1 1.512.286c.48.2.915.497 1.277.874.367.372.656.815.852 1.302a4 4 0 0 1 .287 1.538 4 4 0 0 1-.287 1.537c-.196.487-.486.93-.852 1.302-.333.361-.735.65-1.18.849-.446.2-.926.305-1.413.311m-.353 0h.353m0 0c.694 0 1.38.147 2.015.429a5.05 5.05 0 0 1 1.678 1.211 5.5 5.5 0 0 1 1.201 1.813c.277.68.416 1.41.41 2.147v.4"/></svg>