<svg xmlns="http://www.w3.org/2000/svg" width="28" height="28" fill="none" viewBox="0 0 28 28"><rect width="27" height="27" x=".5" y=".5" fill="#fff" stroke="#ddd" rx="3.5"/><path fill="#3c4968" stroke="#000" d="M22.5 11v2.5a8.5 8.5 0 0 1-17 0V11z"/><path fill="#749eff" d="M7 11.5h14v1H7z"/><path stroke="#000" stroke-width="2" d="M14.002 14.61c.68 0 1.287.256 1.766.735.48.48.734 1.086.734 1.766s-.254 1.286-.734 1.765c-.48.48-1.086.735-1.766.735s-1.286-.255-1.765-.735a2.44 2.44 0 0 1-.735-1.765c0-.68.255-1.286.735-1.766a2.44 2.44 0 0 1 1.765-.734Z"/><path fill="#003cff" stroke="#00dcff" d="M14.002 15.11c.546 0 1.026.202 1.413.589.386.386.587.866.587 1.412s-.2 1.025-.587 1.412a1.94 1.94 0 0 1-1.413.588 1.94 1.94 0 0 1-1.412-.588 1.94 1.94 0 0 1-.588-1.412c0-.546.201-1.026.588-1.412a1.94 1.94 0 0 1 1.412-.588Z"/><path fill="#fff" stroke="#000" d="M23.5 8v2a1 1 0 0 1-1 1h-17a1 1 0 0 1-1-1V8z"/><circle cx="23" cy="9" r="2.5" fill="#00cb21" stroke="#007d14"/></svg>