<svg xmlns="http://www.w3.org/2000/svg" width="52" height="20" fill="none" viewBox="0 0 52 20"><path fill="#000" fill-opacity=".75" stroke="#fff" stroke-linecap="round" stroke-linejoin="round" d="M47.635 13.84Q44.06 18 39 18q-4.26 0-7.425-2.96-.597-.54-1.155-1.2A14.2 14.2 0 0 1 28 10a14.2 14.2 0 0 1 2.42-3.84Q33.94 2 39 2q4.275 0 7.48 2.96.6.555 1.155 1.2A13.2 13.2 0 0 1 50 10a13.2 13.2 0 0 1-2.365 3.84"/><circle cx="39" cy="9.917" r="4.663" stroke="#fff"/><path stroke="#fff" d="M48 19 30 1"/><rect width="17" height="13" x="4.5" y="2.5" fill="#7e7e7e" stroke="#000" rx="2.5"/><path fill="#eee" d="M16.927 5.223V13h-.967V5.223zM9.203 13h-1.01l2.847-7.777h1.02L14.908 13h-1.02l-.78-2.191H9.983zm1.074-3.04h2.536l-1.236-3.48h-.064z"/></svg>