<svg width="93" height="191" viewBox="0 0 93 191" fill="none" xmlns="http://www.w3.org/2000/svg">
<g clip-path="url(#clip0_42_125)">
<path d="M84.446 30.2726H8.01013V165.639H84.446V30.2726Z" fill="url(#paint0_linear_42_125)"/>
<path d="M11.4318 188.601H81.0282" stroke="#231815" stroke-linecap="round" stroke-linejoin="round"/>
<path d="M2.40808 11.4318V179.581" stroke="#231815" stroke-linecap="round" stroke-linejoin="round"/>
<path d="M90.048 179.581V11.4318" stroke="#231815" stroke-linecap="round" stroke-linejoin="round"/>
<path d="M84.446 165.639H8.01013" stroke="#231815" stroke-linecap="round" stroke-linejoin="round"/>
<path d="M8.01013 165.639V30.2726" stroke="#231815" stroke-linecap="round" stroke-linejoin="round"/>
<path d="M84.446 30.2726V165.639" stroke="#231815" stroke-linecap="round" stroke-linejoin="round"/>
<path d="M8.01013 30.2726H84.446" stroke="#231815" stroke-linecap="round" stroke-linejoin="round"/>
<path d="M81.0282 2.41207H11.4318" stroke="#231815" stroke-linecap="round" stroke-linejoin="round"/>
<path d="M2.40808 179.581C2.40808 184.563 6.44653 188.601 11.4278 188.601" stroke="#231815" stroke-linecap="round" stroke-linejoin="round"/>
<path d="M81.0282 188.601C86.0095 188.601 90.0479 184.563 90.0479 179.581" stroke="#231815" stroke-linecap="round" stroke-linejoin="round"/>
<path d="M81.0282 189.477H11.4318" stroke="#898989" stroke-width="0.5" stroke-linecap="round" stroke-linejoin="round"/>
<path d="M1.53601 179.581V11.4318" stroke="#898989" stroke-width="0.5" stroke-linecap="round" stroke-linejoin="round"/>
<path d="M90.924 11.4318V179.581" stroke="#898989" stroke-width="0.5" stroke-linecap="round" stroke-linejoin="round"/>
<path d="M11.4318 1.53602H81.0282" stroke="#898989" stroke-width="0.5" stroke-linecap="round" stroke-linejoin="round"/>
<path d="M1.53601 179.581C1.53601 185.046 5.9673 189.477 11.4318 189.477" stroke="#898989" stroke-width="0.5" stroke-linecap="round" stroke-linejoin="round"/>
<path d="M81.0282 189.477C86.4927 189.477 90.924 185.046 90.924 179.581" stroke="#898989" stroke-width="0.5" stroke-linecap="round" stroke-linejoin="round"/>
<path d="M90.924 11.4318C90.924 5.96731 86.4927 1.53602 81.0282 1.53602" stroke="#898989" stroke-width="0.5" stroke-linecap="round" stroke-linejoin="round"/>
<path d="M11.4318 1.53602C5.9673 1.53602 1.53601 5.96731 1.53601 11.4318" stroke="#898989" stroke-width="0.5" stroke-linecap="round" stroke-linejoin="round"/>
<path d="M11.4318 2.41207C6.45056 2.41207 2.41211 6.45051 2.41211 11.4318" stroke="#231815" stroke-linecap="round" stroke-linejoin="round"/>
<path d="M90.0479 11.4318C90.0479 6.45051 86.0095 2.41207 81.0282 2.41207" stroke="#231815" stroke-linecap="round" stroke-linejoin="round"/>
<path d="M59.0368 19.3123C61.9744 19.3123 64.3559 16.9308 64.3559 13.9931C64.3559 11.0555 61.9744 8.67402 59.0368 8.67402C56.0991 8.67402 53.7177 11.0555 53.7177 13.9931C53.7177 16.9308 56.0991 19.3123 59.0368 19.3123Z" stroke="#231815" stroke-linecap="round" stroke-linejoin="round"/>
<path d="M33.4232 19.3123C36.3609 19.3123 38.7424 16.9308 38.7424 13.9931C38.7424 11.0555 36.3609 8.67402 33.4232 8.67402C30.4856 8.67402 28.1041 11.0555 28.1041 13.9931C28.1041 16.9308 30.4856 19.3123 33.4232 19.3123Z" stroke="#231815" stroke-linecap="round" stroke-linejoin="round"/>
<path d="M45.1105 190.714H78.4041" stroke="#231815" stroke-width="1.5" stroke-linecap="round" stroke-linejoin="round"/>
<path d="M78.4041 190.714H81.0793" stroke="#231815" stroke-width="1.5" stroke-linecap="round" stroke-linejoin="round"/>
<path d="M11.4319 190.714H44.2934" stroke="#231815" stroke-width="1.5" stroke-linecap="round" stroke-linejoin="round"/>
<path d="M0.294678 11.4318V179.581" stroke="#231815" stroke-width="1.5" stroke-linecap="round" stroke-linejoin="round"/>
<path d="M92.1654 179.581V11.4318" stroke="#231815" stroke-width="1.5" stroke-linecap="round" stroke-linejoin="round"/>
<path d="M81.0283 0.294632H11.4319" stroke="#231815" stroke-width="1.5" stroke-linecap="round" stroke-linejoin="round"/>
<path d="M82.1125 190.663C82.3404 190.64 82.5643 190.612 82.7882 190.577" stroke="#231815" stroke-width="1.5" stroke-linecap="round" stroke-linejoin="round"/>
<path d="M82.7882 190.577C82.8471 190.569 82.9021 190.557 82.9611 190.549" stroke="#231815" stroke-width="1.5" stroke-linecap="round" stroke-linejoin="round"/>
<path d="M81.9397 190.679C81.9986 190.675 82.0536 190.667 82.1086 190.663" stroke="#231815" stroke-width="1.5" stroke-linecap="round" stroke-linejoin="round"/>
<path d="M81.48 190.707C81.5625 190.707 81.641 190.699 81.7235 190.695" stroke="#231815" stroke-width="1.5" stroke-linecap="round" stroke-linejoin="round"/>
<path d="M81.7236 190.695C81.7943 190.691 81.869 190.687 81.9397 190.679" stroke="#231815" stroke-width="1.5" stroke-linecap="round" stroke-linejoin="round"/>
<path d="M82.9611 190.546C83.2361 190.498 83.511 190.439 83.7821 190.369" stroke="#231815" stroke-width="1.5" stroke-linecap="round" stroke-linejoin="round"/>
<path d="M81.2836 190.714C81.3268 190.714 81.3739 190.714 81.4171 190.711" stroke="#231815" stroke-width="1.5" stroke-linecap="round" stroke-linejoin="round"/>
<path d="M81.0793 190.714C81.1461 190.714 81.2168 190.714 81.2836 190.714" stroke="#231815" stroke-width="1.5" stroke-linecap="round" stroke-linejoin="round"/>
<path d="M83.7821 190.369C84.1042 190.286 84.4224 190.188 84.7367 190.078" stroke="#231815" stroke-width="1.5" stroke-linecap="round" stroke-linejoin="round"/>
<path d="M44.2933 190.714H45.1105" stroke="#231815" stroke-width="1.5" stroke-linecap="round" stroke-linejoin="round"/>
<path d="M0.294678 179.581C0.294678 180.32 0.369318 181.062 0.514671 181.785C0.660024 182.508 0.87216 183.199 1.15501 183.875C1.70892 185.195 2.51818 186.413 3.53172 187.43C4.54526 188.448 5.76701 189.273 7.0909 189.834C7.77052 190.121 8.47764 190.341 9.20047 190.491C9.92331 190.64 10.6815 190.714 11.4279 190.714" stroke="#231815" stroke-width="1.5" stroke-linecap="round" stroke-linejoin="round"/>
<path d="M84.7367 190.082C85.8092 189.701 86.8306 189.155 87.7459 188.463C88.6612 187.772 89.439 186.967 90.0951 186.047C90.7512 185.128 91.2736 184.095 91.6233 183.011C91.9729 181.927 92.1654 180.736 92.1654 179.581" stroke="#231815" stroke-width="1.5" stroke-linecap="round" stroke-linejoin="round"/>
<path d="M92.1655 11.4318C92.1655 10.6932 92.0908 9.95076 91.9455 9.22793C91.8001 8.50509 91.588 7.81369 91.3051 7.13799C90.7512 5.81803 89.9419 4.60021 88.9284 3.58275C87.9149 2.56528 86.6931 1.7403 85.3692 1.17853C84.6896 0.891757 83.9825 0.671764 83.2597 0.522483C82.5368 0.373202 81.7786 0.298561 81.0322 0.298561" stroke="#231815" stroke-width="1.5" stroke-linecap="round" stroke-linejoin="round"/>
<path d="M11.4318 0.294632C10.6854 0.294632 9.939 0.369273 9.20438 0.518554C8.46976 0.667835 7.77442 0.883899 7.0948 1.1746C5.77091 1.73637 4.5531 2.55742 3.53563 3.57882C2.51816 4.60021 1.7089 5.8141 1.15891 7.13406C0.876066 7.80976 0.660001 8.50902 0.518577 9.224C0.377153 9.93898 0.298584 10.6893 0.298584 11.4279" stroke="#231815" stroke-width="1.5" stroke-linecap="round" stroke-linejoin="round"/>
<path d="M49.0232 175.743L49.0782 175.739L49.1332 175.735L49.1882 175.724L49.2432 175.708L49.2903 175.68L49.3374 175.649L49.3728 175.606L49.4003 175.559L49.4199 175.504L49.4317 175.452L49.4396 175.394V175.339V175.284L49.4357 175.229L49.4317 175.174L49.4239 175.119L49.416 175.064L49.4003 175.009L49.3807 174.957L49.3571 174.906L49.3217 174.863L49.2825 174.824L49.2392 174.792L49.1882 174.765L49.1371 174.745L49.086 174.73L49.031 174.714L48.976 174.706L48.921 174.698L48.866 174.694L48.811 174.69L48.7521 174.686L48.6971 174.682H48.6421H48.5871H48.5321H48.4771H48.4182H48.3632H48.3082L48.2532 174.686L48.1982 174.69L48.1432 174.694L48.0882 174.702L48.0332 174.71L47.9782 174.722L47.9232 174.737L47.8721 174.753L47.8211 174.777L47.77 174.804L47.7229 174.836L47.6796 174.871L47.6443 174.91L47.6089 174.954L47.5775 175.001L47.55 175.048L47.5264 175.099L47.5068 175.15L47.4911 175.205L47.4754 175.26L47.4636 175.311L47.4557 175.366L47.4439 175.421L47.44 175.476L47.4322 175.535L47.4282 175.59L47.4243 175.645L47.4204 175.7L47.4164 175.755V175.81L47.4125 175.865V175.924V175.979V176.034L47.4164 176.089V176.144L47.4204 176.199L47.4243 176.258L47.4282 176.313L47.4361 176.368L47.4439 176.423L47.4557 176.478L47.4636 176.533L47.4793 176.584L47.495 176.639L47.5107 176.69L47.5304 176.745L47.5539 176.792L47.5814 176.843L47.6129 176.89L47.6482 176.933L47.6836 176.973L47.7268 177.012L47.77 177.043L47.8171 177.071L47.8682 177.098L47.9193 177.118L47.9743 177.134L48.0293 177.15L48.0803 177.161L48.1353 177.169L48.1903 177.177L48.2493 177.181L48.3043 177.185L48.3593 177.189H48.4143H48.4693H48.5243H48.5832H48.6382H48.6932H48.7482H48.8032L48.8582 177.185H48.9171L48.9721 177.181L49.0271 177.177L49.0821 177.173L49.1371 177.165L49.1921 177.161L49.2471 177.153L49.3021 177.146L49.3571 177.138L49.4121 177.126L49.4671 177.118L49.5221 177.106L49.5771 177.095L49.6321 177.083L49.6871 177.071L49.7382 177.059L49.7932 177.047L49.8481 177.032L49.9031 177.02L49.9542 177.004L50.0092 176.988L50.0171 177.036V177.091V177.146V177.205V177.26V177.315V177.37L50.0053 177.425L49.9739 177.468L49.9306 177.507L49.8874 177.538L49.8364 177.566L49.7892 177.59L49.7382 177.613L49.6832 177.633L49.6321 177.652L49.581 177.668L49.526 177.684L49.471 177.696L49.416 177.711L49.365 177.723L49.3099 177.731L49.255 177.743L49.2 177.751L49.145 177.758L49.09 177.766L49.031 177.774L48.976 177.778L48.921 177.782L48.866 177.786L48.811 177.79L48.756 177.794H48.701L48.646 177.798H48.5871H48.5321H48.4771H48.4221H48.3671L48.3121 177.794H48.2532L48.1982 177.79L48.1432 177.786L48.0882 177.778L48.0332 177.774L47.9782 177.766L47.9232 177.758L47.8682 177.747L47.8132 177.735L47.7582 177.723L47.7071 177.707L47.6521 177.692L47.6011 177.676L47.5461 177.656L47.495 177.633L47.4439 177.609L47.3968 177.586L47.3457 177.558L47.2986 177.527L47.2554 177.495L47.2122 177.46L47.1689 177.425L47.1257 177.389L47.0904 177.346L47.0511 177.307L47.0197 177.263L46.9843 177.216L46.9568 177.169L46.9254 177.122L46.9018 177.071L46.8782 177.024L46.8547 176.973L46.835 176.918L46.8154 176.867L46.7997 176.812L46.784 176.761L46.7722 176.706L46.7565 176.651L46.7486 176.596L46.7368 176.541L46.729 176.486L46.7211 176.431L46.7172 176.376L46.7093 176.321L46.7054 176.266L46.7015 176.211L46.6975 176.156V176.101V176.042L46.6936 175.987V175.932L46.6975 175.877V175.822V175.767L46.7015 175.708L46.7054 175.653L46.7093 175.598L46.7132 175.543L46.7211 175.488L46.725 175.433L46.7329 175.378L46.7447 175.323L46.7525 175.268L46.7643 175.213L46.7761 175.158L46.7918 175.103L46.8075 175.052L46.8272 174.997L46.8429 174.946L46.8665 174.895L46.89 174.844L46.9136 174.792L46.9411 174.745L46.9686 174.698L47 174.651L47.0354 174.608L47.0707 174.565L47.1061 174.521L47.1454 174.486L47.1886 174.447L47.2318 174.411L47.275 174.38L47.3222 174.349L47.3693 174.321L47.4204 174.294L47.4714 174.27L47.5225 174.25L47.5736 174.227L47.6246 174.211L47.6796 174.191L47.7346 174.18L47.7857 174.164L47.8407 174.152L47.8957 174.14L47.9507 174.132L48.0057 174.125L48.0607 174.117L48.1157 174.109L48.1707 174.105L48.2257 174.101L48.2807 174.097L48.3396 174.093H48.3946L48.4496 174.089H48.5046H48.5596H48.6146H48.6735H48.7285L48.7835 174.093L48.8385 174.097L48.8935 174.101L48.9485 174.105L49.0035 174.113L49.0625 174.117L49.1135 174.129L49.1685 174.136L49.2235 174.152L49.2785 174.164L49.3335 174.18L49.3846 174.195L49.4357 174.215L49.4907 174.235L49.5378 174.258L49.5889 174.286L49.6399 174.309L49.6871 174.341L49.7303 174.372L49.7735 174.407L49.8167 174.443L49.856 174.482L49.8953 174.521L49.9306 174.565L49.966 174.608L49.9935 174.655L50.0249 174.702L50.0485 174.753L50.0721 174.804L50.0917 174.855L50.1074 174.91L50.1231 174.961L50.1389 175.016L50.1467 175.071L50.1546 175.126L50.1624 175.181L50.1664 175.236L50.1703 175.291V175.346V175.405L50.1664 175.46L50.1585 175.515L50.1506 175.57L50.1349 175.621L50.1192 175.676L50.0956 175.727L50.0681 175.775L50.0406 175.822L50.0092 175.869L49.9699 175.912L49.9306 175.951L49.8914 175.987L49.8442 176.022L49.801 176.05L49.7499 176.081L49.7028 176.105L49.6517 176.128L49.6007 176.148L49.5457 176.167L49.4946 176.183L49.4396 176.199L49.3885 176.215L49.3335 176.226L49.2785 176.234L49.2235 176.242L49.1685 176.25L49.1135 176.258L49.0546 176.262L48.9996 176.266H48.9446L48.8896 176.27H48.8346H48.7796H48.7207L48.6657 176.266H48.6107L48.5557 176.262H48.5007L48.4457 176.258H48.3868L48.3318 176.254L48.2768 176.25L48.2218 176.246L48.1668 176.242L48.1118 176.238L48.0568 176.234L47.9978 176.23L47.9429 176.222L47.8879 176.218L47.8329 176.211L47.7779 176.203L47.7268 176.191V176.136V176.081V176.026V175.971V175.912V175.857V175.802V175.747L47.7779 175.743H47.8329H47.8879H47.9468H48.0018H48.0568H48.1118H48.1668H48.2218H48.2807H48.3357H48.3907H48.4457H48.5007H48.5557H48.6146H48.6696H48.7246H48.7796H48.8346H48.8935H48.9485H49.0232Z" stroke="#231815" stroke-linecap="round" stroke-linejoin="round"/>
<path d="M44.4111 175.429V175.374V175.319L44.4151 175.264L44.419 175.209L44.4229 175.154L44.4308 175.099L44.4386 175.044L44.4504 174.989L44.4622 174.934L44.4779 174.879L44.4936 174.828L44.5093 174.773L44.529 174.722L44.5526 174.671L44.5761 174.62L44.6036 174.572L44.6351 174.525L44.6665 174.478L44.7018 174.435L44.7411 174.396L44.7804 174.356L44.8197 174.321L44.8668 174.286L44.91 174.254L44.9611 174.227L45.0083 174.203L45.0593 174.18L45.1143 174.16L45.1654 174.144L45.2204 174.129L45.2754 174.117L45.3265 174.105L45.3854 174.097L45.4404 174.093L45.4954 174.089H45.5504H45.6054L45.6604 174.093H45.7154L45.7743 174.097L45.8293 174.101L45.8843 174.105L45.9393 174.109L45.9943 174.113L46.0493 174.117L46.1043 174.125L46.1632 174.129L46.2182 174.136L46.2732 174.14L46.3282 174.148L46.3832 174.156L46.4382 174.164L46.45 174.211V174.266V174.321V174.376V174.435V174.49V174.545V174.6V174.655V174.71L46.4146 174.734H46.3596H46.3046H46.2496H46.1946H46.1357H46.0807H46.0257H45.9707H45.9157H45.8607H45.8018H45.7468H45.6918L45.6368 174.737H45.5818L45.5268 174.745L45.4718 174.753L45.4168 174.765L45.3618 174.781L45.3147 174.804L45.2675 174.84L45.2282 174.879L45.1968 174.922L45.1733 174.973L45.1536 175.028L45.1418 175.079L45.13 175.134L45.1261 175.189L45.1183 175.244L45.1143 175.303V175.358L45.1104 175.413V175.468V175.523V175.578V175.637V175.692V175.747V175.802V175.857V175.912V175.971V176.026V176.081V176.136V176.191V176.246V176.305V176.36V176.415V176.47V176.525V176.58V176.639V176.694V176.749V176.804V176.859V176.918V176.973V177.028V177.083V177.138V177.193V177.252V177.307V177.362V177.417V177.472V177.527V177.586V177.641V177.696V177.751H45.0554H45.0004H44.9415H44.8865H44.8315H44.7765H44.7215H44.6626H44.6076H44.5526H44.4976H44.4426L44.4111 177.727V177.672V177.613V177.558V177.503V177.448V177.393V177.338V177.279V177.224V177.169V177.114V177.059V177.004V176.945V176.89V176.835V176.78V176.725V176.67V176.611V176.556V176.501V176.446V176.391V176.336V176.277V176.222V176.167V176.112V176.057V175.998V175.943V175.889V175.833V175.779V175.724V175.665V175.61V175.555V175.5V175.429Z" stroke="#231815" stroke-linecap="round" stroke-linejoin="round"/>
<path d="M59.5868 175.936L59.5907 175.995V176.05V176.105V176.16V176.215L59.5868 176.27L59.5789 176.328L59.575 176.383L59.5671 176.438L59.5593 176.493L59.5475 176.548L59.5357 176.603L59.5239 176.655L59.5082 176.71L59.4925 176.765L59.4768 176.816L59.4571 176.867L59.4375 176.922L59.4139 176.973L59.3903 177.02L59.3668 177.071L59.3393 177.118L59.3078 177.165L59.2764 177.212L59.245 177.26L59.2096 177.303L59.1743 177.342L59.135 177.385L59.0957 177.425L59.0525 177.46L59.0132 177.495L58.9661 177.527L58.9189 177.558L58.8718 177.59L58.8246 177.617L58.7775 177.641L58.7264 177.664L58.6754 177.688L58.6204 177.707L58.5693 177.723L58.5143 177.739L58.4632 177.755L58.4082 177.766L58.3532 177.778L58.2982 177.786L58.2432 177.794L58.1882 177.802L58.1332 177.806L58.0743 177.809H58.0193H57.9643H57.9093H57.8543L57.7993 177.806L57.7404 177.802L57.6854 177.806H57.6304L57.5754 177.802H57.5204L57.4654 177.798L57.4104 177.79L57.3554 177.786L57.2965 177.778L57.2415 177.77L57.1904 177.758L57.1354 177.747L57.0804 177.731L57.0254 177.719L56.9743 177.699L56.9193 177.684L56.8683 177.664L56.8172 177.641L56.7661 177.617L56.719 177.593L56.6679 177.566L56.6208 177.538L56.5736 177.507L56.5304 177.472L56.4872 177.436L56.4479 177.401L56.4086 177.358L56.3694 177.318L56.3379 177.275L56.3026 177.228L56.2751 177.181L56.2476 177.134L56.224 177.083L56.2004 177.032L56.1808 176.981L56.1651 176.926L56.1533 176.871L56.1415 176.82L56.1297 176.765L56.1219 176.71L56.1179 176.651L56.114 176.596V176.541V176.486L56.1219 176.431L56.1297 176.376L56.1376 176.321L56.1533 176.266L56.1729 176.215L56.1965 176.163L56.224 176.116L56.2554 176.069L56.2869 176.022L56.3262 175.983L56.3654 175.943L56.4047 175.908L56.4519 175.873L56.499 175.841L56.5461 175.814L56.5933 175.79L56.6444 175.767L56.6954 175.747L56.7504 175.727L56.8015 175.708L56.8565 175.696L56.9115 175.68L56.9665 175.668L57.0176 175.657L57.0726 175.649L57.1276 175.641L57.1865 175.637L57.2415 175.629L57.2965 175.625L57.3515 175.621L57.4065 175.617H57.4615H57.5165H57.5754L57.6304 175.621L57.6854 175.625L57.7404 175.633L57.7954 175.637L57.8504 175.645L57.9054 175.653L57.9604 175.661L58.0154 175.668L58.0704 175.676L58.1254 175.684L58.1804 175.692L58.2354 175.7L58.2904 175.708L58.3454 175.72L58.4004 175.727L58.4554 175.739L58.5104 175.751L58.5654 175.763L58.5929 175.798V175.857V175.912V175.967V176.022V176.077V176.132L58.5418 176.14H58.4868H58.4318H58.3768H58.3179H58.2629H58.2079H58.1529H58.0979H58.039H57.984H57.929H57.874H57.819H57.764H57.705H57.65H57.595H57.54H57.485H57.43H57.3711H57.3161H57.2611H57.2061L57.1511 176.144L57.0961 176.156L57.0451 176.179L56.9979 176.207L56.9547 176.242L56.9193 176.285L56.8958 176.336L56.8761 176.387L56.8604 176.442L56.8526 176.497L56.8486 176.552V176.607L56.8526 176.662L56.8565 176.721L56.8604 176.776L56.8722 176.831L56.8879 176.882L56.9115 176.933L56.939 176.981L56.9743 177.028L57.0136 177.063L57.0568 177.098L57.1079 177.122L57.159 177.146L57.214 177.161L57.2651 177.169L57.324 177.177L57.379 177.181L57.434 177.185L57.489 177.189H57.544L57.599 177.193L57.654 177.197H57.7129L57.7679 177.201H57.8229H57.8779H57.9329H57.9879L58.0468 177.197L58.1018 177.193L58.1568 177.189L58.2118 177.181L58.2668 177.169L58.3218 177.157L58.3729 177.142L58.4279 177.126L58.4789 177.102L58.5261 177.075L58.5732 177.047L58.6164 177.008L58.6518 176.969L58.6871 176.926L58.7186 176.878L58.7421 176.827L58.7618 176.776L58.7814 176.725L58.7971 176.67L58.8089 176.615L58.8207 176.56L58.8325 176.509L58.8404 176.454L58.8482 176.395L58.8521 176.34L58.86 176.285L58.8639 176.23V176.175L58.8679 176.12V176.065L58.8718 176.006V175.951L58.8679 175.896V175.841V175.786L58.8639 175.731L58.86 175.672L58.8561 175.617L58.8482 175.562L58.8404 175.507L58.8325 175.452L58.8246 175.397L58.8129 175.342L58.7971 175.291L58.7814 175.236L58.7657 175.185L58.7421 175.134L58.7186 175.083L58.6911 175.032L58.6597 174.989L58.6243 174.946L58.5889 174.902L58.5457 174.867L58.5025 174.836L58.4514 174.808L58.4004 174.785L58.3493 174.769L58.2943 174.753L58.2393 174.737L58.1843 174.73L58.1293 174.722L58.0743 174.714L58.0193 174.706L57.9643 174.702H57.9093L57.8543 174.698H57.7993H57.7404L57.6854 174.702H57.6304L57.5754 174.706L57.5204 174.71L57.4654 174.714L57.4104 174.718L57.3515 174.722L57.2965 174.73L57.2415 174.734L57.1865 174.741L57.1315 174.749L57.0765 174.757L57.0215 174.765L56.9665 174.773L56.9115 174.781L56.8565 174.789L56.8015 174.8L56.7465 174.808L56.6915 174.82L56.6365 174.828L56.5815 174.84L56.5265 174.851L56.4754 174.859L56.4204 174.871L56.3654 174.883L56.3104 174.895L56.2712 174.891V174.836V174.777V174.722V174.667V174.612V174.557V174.502L56.2987 174.451L56.334 174.407L56.3772 174.372L56.4244 174.341L56.4715 174.309L56.5186 174.286L56.5697 174.262L56.6208 174.242L56.6758 174.223L56.7269 174.207L56.7818 174.191L56.8368 174.18L56.8879 174.164L56.9429 174.156L56.9979 174.144L57.0529 174.136L57.1079 174.129L57.1629 174.121L57.2179 174.117L57.2768 174.109L57.3318 174.105L57.3868 174.101H57.4418L57.4968 174.097H57.5518L57.6108 174.093H57.6658H57.7207H57.7758H57.8308L57.8857 174.097H57.9447L57.9997 174.101L58.0547 174.105L58.1097 174.109L58.1647 174.113L58.2197 174.121L58.2747 174.125L58.3297 174.132L58.3847 174.144L58.4397 174.152L58.4947 174.164L58.5497 174.18L58.6046 174.191L58.6557 174.207L58.7107 174.227L58.7618 174.246L58.8129 174.266L58.8639 174.29L58.9111 174.317L58.9582 174.345L59.0054 174.376L59.0525 174.407L59.0957 174.443L59.1389 174.478L59.1782 174.517L59.2136 174.561L59.2489 174.604L59.2843 174.647L59.3157 174.694L59.3432 174.741L59.3707 174.789L59.3943 174.84L59.4178 174.891L59.4375 174.942L59.4571 174.993L59.4728 175.048L59.4886 175.099L59.5043 175.154L59.5161 175.209L59.5278 175.264L59.5396 175.319L59.5475 175.374L59.5553 175.429L59.5632 175.484L59.5671 175.539L59.575 175.594L59.5789 175.649V175.704L59.5828 175.763V175.818L59.5868 175.873V175.936Z" stroke="#231815" stroke-linecap="round" stroke-linejoin="round"/>
<path d="M53.1599 174.474L53.1952 174.431L53.2384 174.392L53.2816 174.36L53.3248 174.325L53.372 174.297L53.4231 174.27L53.4741 174.246L53.5252 174.223L53.5763 174.207L53.6313 174.191L53.6823 174.176L53.7373 174.168L53.7923 174.16L53.8473 174.152L53.9063 174.148H53.9613H54.0162H54.0712H54.1262H54.1812H54.2402H54.2952H54.3502H54.4052L54.4602 174.152L54.5152 174.156L54.5741 174.164L54.6252 174.172L54.6802 174.187L54.7352 174.199L54.7862 174.219L54.8373 174.239L54.8884 174.262L54.9394 174.29L54.9866 174.317L55.0337 174.349L55.0769 174.38L55.1201 174.419L55.1594 174.459L55.1948 174.498L55.2301 174.541L55.2655 174.588L55.293 174.631L55.3205 174.682L55.348 174.73L55.3716 174.781L55.3912 174.836L55.4069 174.887L55.4266 174.938L55.4383 174.993L55.4501 175.048L55.4619 175.103L55.4698 175.158L55.4776 175.213L55.4816 175.268L55.4855 175.323L55.4894 175.378V175.437V175.492V175.547V175.602V175.657V175.712V175.771V175.826V175.881V175.936V175.991V176.05V176.105V176.16V176.215V176.27V176.325V176.383V176.438V176.493V176.548V176.603V176.658V176.717V176.772V176.827V176.882V176.937V176.992V177.051V177.106V177.161V177.216V177.271V177.33V177.385V177.44V177.495V177.55V177.605V177.664V177.719L55.4658 177.751H55.4109H55.3519H55.2969H55.2419H55.1869H55.1319H55.0769H55.018H54.963H54.908H54.853V177.692V177.637V177.582V177.527V177.472V177.413V177.358V177.303V177.248V177.193V177.138V177.079V177.024V176.969V176.914V176.859V176.804V176.745V176.69V176.635V176.58V176.525V176.47V176.411V176.356V176.301V176.246V176.191V176.132V176.077V176.022V175.967V175.912V175.857V175.798V175.743V175.688V175.633V175.578V175.523V175.464V175.409L54.8491 175.354L54.8452 175.299L54.8373 175.244L54.8255 175.189L54.8137 175.134L54.7941 175.083L54.7744 175.032L54.7469 174.981L54.7155 174.938L54.6802 174.895L54.6409 174.855L54.5977 174.824L54.5466 174.792L54.4955 174.769L54.4444 174.749L54.3895 174.737L54.3384 174.726L54.2834 174.718L54.2245 174.714L54.1695 174.71H54.1145L54.0595 174.714L54.0045 174.722L53.9495 174.73L53.8945 174.745L53.8434 174.761L53.7923 174.785L53.7452 174.812L53.698 174.847L53.6588 174.883L53.6234 174.926L53.592 174.973L53.5684 175.024L53.5448 175.075L53.5291 175.126L53.5173 175.181L53.5055 175.236L53.4977 175.291L53.4938 175.346L53.4898 175.401V175.46V175.515V175.57V175.625V175.68V175.735V175.794V175.849V175.904V175.959V176.014V176.069V176.128V176.183V176.238V176.293V176.348V176.403V176.462V176.517V176.572V176.627V176.682V176.741V176.796V176.851V176.906V176.961V177.016V177.075V177.13V177.185V177.24V177.295V177.35V177.409V177.464V177.519V177.574V177.629V177.684V177.743L53.4427 177.751H53.3877H53.3327H53.2738H53.2188H53.1638H53.1088H53.0538H52.9988H52.9399H52.8849L52.8338 177.743V177.688V177.633V177.578V177.523V177.468V177.409V177.354V177.299V177.244V177.189V177.13V177.075V177.02V176.965V176.91V176.855V176.796V176.741V176.686V176.631V176.576V176.521V176.462V176.407V176.352V176.297V176.242V176.187V176.128V176.073V176.018V175.963V175.908V175.849V175.794V175.739V175.684V175.629V175.574V175.515V175.46V175.405V175.35L52.8299 175.295L52.822 175.24L52.8141 175.185L52.8024 175.13L52.7866 175.075L52.767 175.024L52.7395 174.977L52.7081 174.93L52.6727 174.887L52.6295 174.851L52.5863 174.82L52.5352 174.792L52.4842 174.773L52.4292 174.753L52.3781 174.741L52.3231 174.734L52.2681 174.726L52.2131 174.722H52.1542H52.0992H52.0442L51.9892 174.73L51.9342 174.737L51.8792 174.749L51.8281 174.765L51.7731 174.789L51.726 174.812L51.6788 174.844L51.6395 174.883L51.6003 174.922L51.5688 174.969L51.5413 175.016L51.5217 175.067L51.502 175.122L51.4903 175.174L51.4824 175.229L51.4745 175.284L51.4706 175.342L51.4667 175.397V175.452V175.507V175.562V175.617V175.676V175.731V175.786V175.841V175.896V175.951V176.01V176.065V176.12V176.175V176.23V176.285V176.344V176.399V176.454V176.509V176.564V176.623V176.678V176.733V176.788V176.843V176.898V176.957V177.012V177.067V177.122V177.177V177.232V177.291V177.346V177.401V177.456V177.511V177.566V177.625V177.68V177.735L51.4274 177.751H51.3724H51.3135H51.2585H51.2035H51.1485H51.0935H51.0385H50.9796H50.9246H50.8696L50.8381 177.727V177.672V177.613V177.558V177.503V177.448V177.393V177.338V177.279V177.224V177.169V177.114V177.059V177.004V176.945V176.89V176.835V176.78V176.725V176.666V176.611V176.556V176.501V176.446V176.391V176.332V176.277V176.222V176.167V176.112V176.057V175.998V175.943V175.888V175.833V175.778V175.723V175.665V175.61V175.555V175.5V175.445V175.39L50.8421 175.331L50.846 175.276L50.8499 175.221L50.8578 175.166L50.8656 175.111L50.8774 175.056L50.8892 175.001L50.901 174.95L50.9167 174.895L50.9363 174.84L50.956 174.789L50.9756 174.737L50.9992 174.686L51.0267 174.639L51.0581 174.592L51.0896 174.545L51.121 174.502L51.1603 174.459L51.1956 174.419L51.2388 174.384L51.282 174.349L51.3292 174.317L51.3763 174.286L51.4235 174.262L51.4745 174.239L51.5295 174.219L51.5806 174.199L51.6356 174.187L51.6867 174.176L51.7417 174.164L51.8006 174.156L51.8556 174.152L51.9106 174.148H51.9656H52.0206H52.0756H52.1306H52.1895H52.2445H52.2995H52.3545L52.4095 174.152L52.4645 174.156L52.5195 174.164L52.5745 174.176L52.6295 174.187L52.6845 174.199L52.7356 174.219L52.7906 174.235L52.8416 174.258L52.8927 174.282L52.9399 174.305L52.9909 174.333L53.0341 174.364L53.0813 174.4L53.1599 174.474Z" stroke="#231815" stroke-linecap="round" stroke-linejoin="round"/>
<path d="M38.8013 176.988L38.8367 176.945L38.8681 176.898L38.8917 176.847L38.9074 176.792L38.9231 176.741L38.931 176.686L38.9349 176.631L38.9388 176.572L38.9427 176.517V176.462V176.407V176.352V176.297V176.238V176.183V176.128V176.073V176.018V175.963V175.904V175.849V175.794V175.739V175.684V175.629V175.57V175.515V175.46V175.405V175.35V175.291V175.236V175.181V175.126V175.071V175.016V174.957V174.902V174.847V174.792V174.737V174.682V174.624V174.569V174.514V174.459V174.404V174.349V174.29L38.9506 174.242H39.0056H39.0606H39.1156H39.1706H39.2295H39.2845H39.3395H39.3945H39.4495H39.5084H39.5634L39.6066 174.254V174.313V174.368V174.423V174.478V174.533V174.588V174.647V174.702V174.757V174.812V174.867V174.922V174.981V175.036V175.091V175.146V175.201V175.256V175.315V175.37V175.425V175.48V175.535V175.59V175.649V175.704V175.759V175.814V175.869V175.928V175.983V176.038V176.093V176.148V176.203V176.262V176.317V176.372V176.427V176.482V176.537L39.6027 176.596V176.651L39.5988 176.706L39.5909 176.761L39.5831 176.816L39.5752 176.871L39.5674 176.926L39.5556 176.981L39.5399 177.036L39.5242 177.087L39.5084 177.142L39.4888 177.193L39.4652 177.244L39.4417 177.295L39.4142 177.342L39.3867 177.389L39.3513 177.436L39.3159 177.48L39.2806 177.519L39.2413 177.558L39.1981 177.593L39.151 177.625L39.1038 177.656L39.0567 177.68L39.0056 177.703L38.9545 177.727L38.8995 177.743L38.8485 177.758L38.7935 177.766L38.7385 177.778L38.6835 177.782L38.6245 177.786H38.5695H38.5145H38.4595H38.4045H38.3495H38.2906H38.2356H38.1806H38.1256H38.0706H38.0117H37.9567H37.9017H37.8467H37.7917H37.7367H37.6778H37.6228H37.5678H37.5128L37.4578 177.782L37.4028 177.774L37.3478 177.766L37.2928 177.755L37.2378 177.739L37.1867 177.723L37.1357 177.7L37.0846 177.676L37.0374 177.648L36.9903 177.617L36.9432 177.586L36.8999 177.55L36.8607 177.511L36.8253 177.472L36.786 177.428L36.7546 177.381L36.7232 177.338L36.6957 177.287L36.6682 177.24L36.6446 177.189L36.625 177.138L36.6053 177.087L36.5857 177.032L36.57 176.981L36.5582 176.926L36.5464 176.871L36.5346 176.816L36.5267 176.761L36.5189 176.706L36.511 176.651L36.5071 176.596L36.5032 176.541V176.486V176.431V176.372V176.317V176.262V176.207V176.152V176.093V176.038V175.983V175.928V175.873V175.818V175.759V175.704V175.649V175.594V175.539V175.484V175.425V175.37V175.315V175.26V175.205V175.15V175.091V175.036V174.981V174.926V174.871V174.812V174.757V174.702V174.647V174.592V174.537V174.478V174.423V174.368V174.313V174.258L36.5464 174.242H36.6014H36.6564H36.7114H36.7664H36.8214H36.8803H36.9353H36.9903H37.0453H37.1003H37.1553L37.1671 174.29V174.345V174.4V174.455V174.51V174.569V174.624V174.679V174.734V174.789V174.847V174.902V174.957V175.012V175.067V175.122V175.181V175.236V175.291V175.346V175.401V175.456V175.515V175.57V175.625V175.68V175.735V175.79V175.849V175.904V175.959V176.014V176.069V176.128V176.183V176.238V176.293V176.348V176.403V176.462V176.517L37.171 176.572L37.1789 176.627L37.1867 176.682L37.1985 176.737L37.2142 176.788L37.2339 176.843L37.2574 176.89L37.2849 176.937L37.3203 176.981L37.3635 177.02L37.4067 177.051L37.4578 177.075L37.5089 177.095L37.5639 177.11L37.6189 177.118L37.6739 177.122H37.7289H37.7878H37.8428H37.8978H37.9528H38.0078H38.0628H38.1217H38.1767H38.2317H38.2867H38.3417H38.3967L38.4556 177.118L38.5106 177.114L38.5656 177.102L38.6167 177.091L38.6717 177.071L38.7188 177.047L38.8013 176.988Z" stroke="#231815" stroke-linecap="round" stroke-linejoin="round"/>
<path d="M34.7864 175.586L34.8414 175.598L34.8964 175.606L34.9514 175.617L35.0064 175.629L35.0614 175.641L35.1164 175.657L35.1674 175.669L35.2224 175.688L35.2735 175.704L35.3246 175.724L35.3756 175.747L35.4267 175.771L35.4778 175.798L35.5249 175.826L35.5681 175.857L35.6153 175.892L35.6546 175.928L35.6938 175.967L35.7331 176.01L35.7646 176.053L35.796 176.101L35.8235 176.148L35.847 176.199L35.8667 176.25L35.8824 176.305L35.8981 176.36L35.9099 176.411L35.9178 176.466L35.9217 176.525L35.9256 176.58V176.635V176.69L35.9217 176.745L35.9178 176.8L35.9099 176.855L35.902 176.91L35.8903 176.965L35.8745 177.02L35.8588 177.071L35.8392 177.126L35.8156 177.177L35.7881 177.224L35.7606 177.271L35.7292 177.318L35.6938 177.362L35.6585 177.401L35.6153 177.44L35.576 177.48L35.5288 177.511L35.4856 177.542L35.4385 177.574L35.3874 177.597L35.3363 177.621L35.2853 177.645L35.2342 177.664L35.1831 177.684L35.1281 177.7L35.0771 177.715L35.0221 177.727L34.9671 177.739L34.9121 177.751L34.8571 177.758L34.8021 177.766L34.7471 177.774L34.6921 177.778L34.6371 177.786L34.5821 177.79L34.5232 177.794H34.4682L34.4132 177.798H34.3582H34.3032H34.2482H34.1892H34.1342H34.0792L34.0242 177.794H33.9692L33.9143 177.786L33.8593 177.782L33.8043 177.778L33.7453 177.77L33.6903 177.762L33.6353 177.751L33.5803 177.743L33.5293 177.731L33.4743 177.715L33.4193 177.703L33.3643 177.688L33.3132 177.672L33.2621 177.652L33.2071 177.633L33.1561 177.613L33.105 177.59L33.0578 177.562L33.0068 177.535L32.9636 177.503L32.9204 177.468L32.885 177.425L32.8654 177.373V177.318V177.263V177.208V177.15V177.095V177.04V176.985L32.8693 176.933L32.9204 176.953L32.9714 176.973L33.0264 176.992L33.0775 177.012L33.1286 177.032L33.1836 177.051L33.2346 177.067L33.2896 177.083L33.3407 177.098L33.3957 177.114L33.4507 177.13L33.5018 177.142L33.5568 177.153L33.6118 177.165L33.6668 177.177L33.7218 177.189L33.7768 177.197L33.8318 177.205L33.8868 177.208L33.9418 177.216L33.9967 177.22H34.0517L34.1107 177.224H34.1657H34.2207H34.2757H34.3307L34.3857 177.22H34.4446H34.4996L34.5546 177.216H34.6096L34.6646 177.212L34.7196 177.205L34.7746 177.197L34.8296 177.189L34.8846 177.173L34.9396 177.157L34.9906 177.134L35.0378 177.106L35.081 177.075L35.1203 177.036L35.1517 176.988L35.1753 176.937L35.191 176.886L35.2028 176.831L35.2067 176.776L35.2106 176.717L35.2067 176.662L35.2028 176.607L35.1949 176.552L35.1753 176.501L35.1517 176.45L35.1164 176.407L35.0692 176.376L35.0221 176.348L34.971 176.325L34.9199 176.305L34.8649 176.285L34.8139 176.273L34.7589 176.262L34.7039 176.254L34.6489 176.246L34.5939 176.238L34.5389 176.23L34.4839 176.222L34.4289 176.215L34.37 176.207L34.315 176.199L34.26 176.195L34.205 176.187L34.15 176.179L34.095 176.171L34.04 176.163L33.985 176.156L33.93 176.148L33.875 176.136L33.82 176.124L33.765 176.112L33.7139 176.101L33.6589 176.089L33.6039 176.073L33.5528 176.057L33.4978 176.038L33.4468 176.018L33.3957 175.998L33.3446 175.975L33.2936 175.947L33.2464 175.92L33.1993 175.892L33.1561 175.857L33.1128 175.822L33.0736 175.782L33.0382 175.739L33.0029 175.696L32.9754 175.649L32.9479 175.602L32.9243 175.551L32.9086 175.496L32.8929 175.445L32.8811 175.39L32.8732 175.335L32.8693 175.28L32.8654 175.221V175.166L32.8693 175.111L32.8732 175.056L32.8811 175.001L32.8889 174.946L32.9007 174.891L32.9125 174.836L32.9321 174.785L32.9518 174.734L32.9714 174.682L32.9989 174.631L33.0264 174.584L33.0618 174.537L33.0932 174.494L33.1325 174.455L33.1718 174.415L33.215 174.38L33.2582 174.345L33.3053 174.317L33.3525 174.286L33.4036 174.262L33.4546 174.239L33.5057 174.219L33.5568 174.199L33.6118 174.18L33.6628 174.168L33.7178 174.152L33.7728 174.14L33.8278 174.129L33.8828 174.121L33.9378 174.113L33.9928 174.109L34.0478 174.101L34.1028 174.097L34.1578 174.093H34.2167L34.2717 174.089H34.3267H34.3817H34.4367H34.4917H34.5507L34.6057 174.093H34.6607L34.7157 174.097L34.7707 174.101L34.8257 174.109L34.8807 174.117L34.9356 174.125L34.9906 174.132L35.0456 174.14L35.1006 174.152L35.1556 174.164L35.2106 174.176L35.2656 174.191L35.3167 174.207L35.3717 174.223L35.4228 174.239L35.4778 174.258L35.5288 174.278L35.5799 174.297L35.631 174.321L35.6821 174.345L35.7253 174.376L35.7606 174.419V174.474V174.529V174.584V174.639V174.698V174.753V174.808V174.863L35.7135 174.851L35.6585 174.84L35.6035 174.824L35.5485 174.812L35.4974 174.796L35.4424 174.785L35.3874 174.773L35.3324 174.761L35.2774 174.753L35.2224 174.741L35.1674 174.734L35.1124 174.726L35.0574 174.718L35.0024 174.71L34.9474 174.706L34.8924 174.698L34.8374 174.694L34.7824 174.69L34.7274 174.686H34.6685L34.6135 174.682H34.5585H34.5035H34.4485H34.3935H34.3346H34.2796L34.2246 174.686H34.1696L34.1146 174.69L34.0596 174.694L34.0007 174.698L33.9457 174.706L33.8907 174.714L33.8396 174.726L33.7846 174.745L33.7335 174.765L33.6864 174.792L33.6432 174.832L33.6118 174.875L33.5882 174.926L33.5685 174.977L33.5607 175.032L33.5568 175.087L33.5528 175.146L33.5568 175.201L33.5685 175.256L33.5921 175.303L33.6235 175.35L33.6668 175.386L33.7139 175.417L33.765 175.437L33.816 175.452L33.871 175.468L33.926 175.476L33.981 175.488L34.036 175.496L34.091 175.5L34.146 175.507L34.201 175.515L34.256 175.523L34.311 175.531L34.366 175.535L34.421 175.543L34.4799 175.551L34.5349 175.555L34.5899 175.562L34.6449 175.57L34.6999 175.578L34.7864 175.586Z" stroke="#231815" stroke-linecap="round" stroke-linejoin="round"/>
<path d="M40.3491 175.963V175.908V175.853L40.3531 175.798V175.739L40.357 175.684L40.3609 175.629L40.3648 175.574L40.3688 175.519L40.3766 175.464L40.3845 175.409L40.3923 175.354L40.4002 175.299L40.412 175.244L40.4238 175.189L40.4355 175.134L40.4513 175.083L40.467 175.028L40.4866 174.977L40.5063 174.922L40.5298 174.871L40.5534 174.824L40.577 174.773L40.6045 174.726L40.6359 174.679L40.6673 174.631L40.7027 174.588L40.738 174.545L40.7773 174.506L40.8166 174.466L40.8598 174.431L40.903 174.396L40.9502 174.364L40.9973 174.337L41.0445 174.309L41.0955 174.282L41.1466 174.262L41.1977 174.239L41.2487 174.219L41.2998 174.203L41.3548 174.187L41.4098 174.172L41.4609 174.16L41.5159 174.148L41.5709 174.136L41.6259 174.129L41.6809 174.121L41.7359 174.113L41.7909 174.109L41.8498 174.101L41.9048 174.097H41.9598L42.0148 174.093H42.0698L42.1248 174.089H42.1837H42.2387H42.2937H42.3487L42.4037 174.093H42.4587L42.5137 174.101L42.5726 174.105L42.6276 174.113L42.6826 174.121L42.7376 174.132L42.7887 174.144L42.8437 174.156L42.8987 174.172L42.9498 174.187L43.0048 174.207L43.0558 174.227L43.1069 174.25L43.154 174.278L43.2051 174.305L43.2522 174.333L43.2994 174.364L43.3426 174.396L43.3858 174.431L43.429 174.47L43.4683 174.51L43.5037 174.549L43.539 174.592L43.5744 174.635L43.6058 174.682L43.6333 174.73L43.6608 174.777L43.6844 174.828L43.7079 174.879L43.7276 174.93L43.7472 174.985L43.7629 175.036L43.7787 175.091L43.7904 175.146L43.7983 175.201L43.8062 175.256L43.814 175.311L43.8179 175.366V175.421L43.8219 175.476L43.8179 175.531V175.59L43.814 175.645L43.8062 175.7L43.7983 175.755L43.7865 175.81L43.7747 175.861L43.759 175.916L43.7394 175.967L43.7197 176.022L43.6962 176.069L43.6687 176.12L43.6372 176.167L43.6058 176.211L43.5705 176.254L43.5312 176.297L43.4919 176.332L43.4487 176.372L43.4055 176.403L43.3583 176.435L43.3112 176.462L43.2601 176.49L43.209 176.509L43.158 176.533L43.1069 176.548L43.0519 176.568L43.0008 176.58L42.9458 176.592L42.8908 176.603L42.8358 176.611L42.7808 176.619L42.7258 176.627L42.6708 176.631L42.6158 176.635H42.5569L42.5019 176.639H42.4469L42.3919 176.635H42.3369H42.2819L42.223 176.631H42.168L42.113 176.627L42.058 176.623H42.003L41.948 176.619L41.8891 176.615L41.8341 176.611L41.7791 176.607L41.7241 176.603L41.6691 176.596L41.6141 176.592L41.5591 176.588L41.5041 176.58L41.4491 176.572L41.3941 176.564L41.3705 176.529V176.474V176.419V176.36V176.305V176.25V176.195V176.14L41.398 176.112H41.453H41.5119H41.5669H41.6219H41.6769H41.7319H41.7909H41.8459H41.9009H41.9559H42.0109H42.0659H42.1248H42.1798H42.2348H42.2898H42.3448H42.3998H42.4587H42.5137H42.5687H42.6237H42.6787L42.7337 176.105L42.7887 176.093L42.8398 176.069L42.8869 176.038L42.9262 175.998L42.9615 175.955L42.993 175.908L43.0165 175.861L43.0362 175.806L43.0519 175.755L43.0637 175.7L43.0715 175.645L43.0794 175.59L43.0833 175.535L43.0873 175.48V175.421L43.0833 175.366L43.0794 175.311L43.0755 175.256L43.0676 175.201L43.0598 175.146L43.044 175.091L43.0244 175.04L43.0048 174.989L42.9733 174.942L42.9419 174.899L42.9026 174.855L42.8594 174.824L42.8123 174.792L42.7612 174.769L42.7101 174.745L42.659 174.73L42.6041 174.718L42.5491 174.706L42.4941 174.698L42.4391 174.69L42.3841 174.686H42.3291L42.2701 174.682H42.2151H42.1601H42.1051H42.0501H41.9951L41.9362 174.686H41.8812L41.8262 174.69L41.7712 174.698L41.7162 174.706L41.6612 174.714L41.6062 174.726L41.5552 174.741L41.5002 174.761L41.453 174.785L41.4019 174.812L41.3587 174.847L41.3155 174.883L41.2802 174.926L41.2487 174.969L41.2173 175.016L41.1937 175.067L41.1702 175.119L41.1545 175.17L41.1387 175.225L41.123 175.28L41.1152 175.335L41.1034 175.39L41.0955 175.445L41.0877 175.5L41.0837 175.555L41.0798 175.61L41.0759 175.665L41.072 175.72V175.775L41.068 175.833V175.889V175.943V175.998V176.053V176.108V176.167L41.0641 176.222V176.277V176.332V176.387V176.446V176.501V176.556V176.611V176.666V176.721V176.78V176.835V176.89V176.945V177V177.055V177.114V177.169V177.224V177.279V177.334V177.389V177.448V177.503V177.558V177.613V177.668L41.068 177.723L41.0366 177.751H40.9816H40.9266H40.8677H40.8127H40.7577H40.7027H40.6477H40.5927H40.5338H40.4788H40.4238H40.3688L40.3491 177.711V177.656V177.601V177.546V177.491V177.436V177.377V177.322V177.267V177.212V177.157V177.102V177.043V176.988V176.933V176.878V176.823V176.765V176.71V176.655V176.6V176.545V176.49V176.431V176.376V176.321V176.266V176.211V176.156V176.097V176.042V175.963Z" stroke="#231815" stroke-linecap="round" stroke-linejoin="round"/>
<path fill-rule="evenodd" clip-rule="evenodd" d="M40.3491 175.963V175.908V175.853V175.798V175.743V175.688L40.357 175.633V175.578L40.3648 175.523L40.3727 175.468L40.3805 175.413L40.3884 175.358L40.3963 175.303L40.408 175.248L40.4198 175.193L40.4316 175.138L40.4473 175.083L40.463 175.028L40.4827 174.977L40.5023 174.926L40.5259 174.875L40.5495 174.824L40.577 174.773L40.6045 174.726L40.6359 174.679L40.6673 174.631L40.7027 174.588L40.738 174.545L40.7773 174.506L40.8166 174.466L40.8598 174.431L40.903 174.396L40.9502 174.364L40.9973 174.333L41.0445 174.305L41.0955 174.282L41.1466 174.258L41.1977 174.239L41.2487 174.219L41.2998 174.203L41.3548 174.187L41.4098 174.172L41.4648 174.16L41.5198 174.148L41.5748 174.136L41.6298 174.129L41.6848 174.121L41.7398 174.113H41.7948L41.8498 174.101H41.9048L41.9598 174.093H42.0148L42.0698 174.089H42.1248H42.1798H42.2348H42.2898H42.3448H42.3998H42.4548L42.5098 174.097H42.5648L42.6198 174.109L42.6748 174.117L42.7298 174.129L42.7848 174.14L42.8398 174.152L42.8948 174.168L42.9458 174.184L42.9969 174.203L43.048 174.223L43.099 174.246L43.1501 174.27L43.1972 174.297L43.2444 174.325L43.2915 174.356L43.3347 174.388L43.378 174.423L43.4212 174.459L43.4605 174.498L43.4997 174.537L43.5351 174.58L43.5705 174.624L43.6019 174.671L43.6294 174.718L43.6569 174.765L43.6804 174.816L43.704 174.867L43.7237 174.918L43.7433 174.969L43.759 175.024L43.7747 175.079L43.7865 175.134L43.7944 175.189L43.8022 175.244L43.8101 175.299V175.354L43.8179 175.409V175.464V175.519V175.574L43.8101 175.629L43.8022 175.684L43.7944 175.739L43.7826 175.794L43.7708 175.849L43.7551 175.904L43.7354 175.955L43.7158 176.006L43.6922 176.057L43.6647 176.105L43.6333 176.152L43.6019 176.199L43.5665 176.242L43.5272 176.281L43.488 176.321L43.4447 176.356L43.4015 176.387L43.3544 176.419L43.3072 176.446L43.2562 176.474L43.2051 176.497L43.154 176.517L43.103 176.537L43.048 176.552L42.993 176.568L42.938 176.58L42.883 176.592L42.828 176.6L42.773 176.607L42.718 176.615H42.663L42.608 176.623H42.553H42.498H42.443H42.388H42.333H42.278H42.223L42.168 176.619H42.113L42.058 176.615H42.003L41.948 176.607H41.893L41.838 176.6H41.783L41.728 176.592H41.673L41.618 176.58H41.563L41.508 176.568L41.453 176.56L41.398 176.552L41.3784 176.513V176.124L41.4059 176.097H42.6865L42.7415 176.093L42.7965 176.077L42.8476 176.053L42.8948 176.022L42.934 175.983L42.9694 175.94L42.9969 175.892L43.0205 175.841L43.0401 175.79L43.0558 175.735L43.0676 175.68L43.0755 175.625L43.0833 175.57V175.515L43.0873 175.46V175.405V175.35V175.295L43.0794 175.24L43.0715 175.185L43.0598 175.13L43.044 175.075L43.0244 175.024L43.0008 174.973L42.9733 174.926L42.938 174.883L42.8987 174.844L42.8555 174.808L42.8083 174.777L42.7573 174.753L42.7062 174.734L42.6512 174.718L42.5962 174.706L42.5412 174.694L42.4862 174.686L42.4312 174.679H42.3762L42.3212 174.671H42.2662H42.2112H42.0423H41.9873H41.9323H41.8773H41.8223L41.7673 174.679L41.7123 174.686L41.6573 174.694L41.6023 174.706L41.5473 174.722L41.4962 174.741L41.4452 174.765L41.398 174.792L41.3548 174.824L41.3155 174.863L41.2802 174.906L41.2487 174.95L41.2212 174.997L41.1977 175.048L41.178 175.099L41.1584 175.15L41.1427 175.205L41.1309 175.26L41.1191 175.315L41.1112 175.37L41.1034 175.425L41.0955 175.48V175.535L41.0837 175.59V175.645L41.0759 175.7V175.755V175.81V175.865V175.92V175.975V176.03V176.085V176.14V176.195V176.25V176.305V176.36V176.415V176.47V176.525V176.58V176.635V176.69V176.745V176.8V176.855V176.91V176.965V177.02V177.075V177.13V177.185V177.24V177.295V177.35V177.405V177.46V177.515V177.57V177.625V177.68L41.0445 177.703H40.3766L40.357 177.668V175.92M34.7864 175.586L34.8414 175.594L34.8964 175.602L34.9514 175.614L35.0064 175.625L35.0614 175.637L35.1164 175.653L35.1714 175.669L35.2264 175.684L35.2775 175.704L35.3286 175.723L35.3796 175.747L35.4307 175.771L35.4778 175.798L35.525 175.826L35.5721 175.857L35.6153 175.892L35.6586 175.928L35.6978 175.967L35.7332 176.01L35.7685 176.053L35.8 176.101L35.8275 176.148L35.851 176.199L35.8707 176.25L35.8864 176.305L35.9021 176.36L35.9139 176.415L35.9218 176.47V176.525L35.9296 176.58V176.635V176.69V176.745L35.9218 176.8L35.9139 176.855L35.906 176.91L35.8943 176.965L35.8785 177.02L35.8628 177.071L35.8432 177.122L35.8196 177.173L35.7921 177.224L35.7646 177.271L35.7332 177.318L35.6978 177.362L35.6586 177.401L35.6193 177.44L35.5761 177.476L35.5328 177.511L35.4857 177.542L35.4386 177.57L35.3914 177.597L35.3403 177.621L35.2893 177.645L35.2382 177.664L35.1871 177.684L35.1321 177.7L35.0771 177.715L35.0221 177.727L34.9671 177.739L34.9121 177.751L34.8571 177.758L34.8021 177.766L34.7472 177.774L34.6922 177.782H34.6372L34.5822 177.79H34.5272L34.4722 177.794H34.4172H34.3622H34.3072H34.2522H34.1422H34.0872H34.0322L33.9772 177.79H33.9222L33.8672 177.782L33.8122 177.774L33.7572 177.766L33.7022 177.758L33.6472 177.751L33.5922 177.739L33.5372 177.727L33.4822 177.715L33.4272 177.7L33.3722 177.684L33.3172 177.668L33.2661 177.648L33.2151 177.629L33.164 177.609L33.1129 177.586L33.0618 177.562L33.0147 177.535L32.9676 177.503L32.9243 177.468L32.889 177.425L32.8733 177.373V177.318V177.263V176.933L32.9283 176.953L32.9793 176.973L33.0304 176.992L33.0815 177.012L33.1326 177.032L33.1836 177.051L33.2347 177.067L33.2897 177.083L33.3447 177.098L33.3997 177.114L33.4547 177.13L33.5097 177.142L33.5647 177.153L33.6197 177.165L33.6747 177.177L33.7297 177.185L33.7847 177.193L33.8397 177.201L33.8947 177.208H33.9497L34.0047 177.216H34.0597H34.1147H34.1697H34.2247H34.3347H34.3897H34.4447H34.4997H34.5547L34.6097 177.212H34.6647L34.7197 177.201L34.7746 177.193L34.8297 177.181L34.8846 177.169L34.9357 177.153L34.9868 177.13L35.0339 177.102L35.0771 177.067L35.1164 177.028L35.1479 176.981L35.1714 176.93L35.1871 176.875L35.1989 176.82V176.765L35.2068 176.71V176.655L35.1989 176.6L35.1871 176.545L35.1714 176.493L35.1439 176.446L35.1086 176.403L35.0654 176.368L35.0182 176.34L34.9671 176.317L34.9161 176.293L34.865 176.277L34.81 176.266L34.755 176.254L34.7 176.246L34.645 176.238L34.59 176.23L34.535 176.222L34.48 176.215L34.425 176.207L34.37 176.199L34.315 176.191L34.26 176.183L34.205 176.175L34.15 176.167L34.095 176.16L34.04 176.152L33.985 176.144L33.93 176.136L33.875 176.124L33.82 176.112L33.765 176.101L33.71 176.089L33.655 176.077L33.6 176.061L33.545 176.046L33.494 176.026L33.4429 176.006L33.3918 175.987L33.3408 175.963L33.2897 175.94L33.2426 175.912L33.1954 175.881L33.1522 175.849L33.109 175.814L33.0697 175.775L33.0343 175.731L32.999 175.688L32.9676 175.641L32.9401 175.59L32.9165 175.539L32.8969 175.488L32.8811 175.433L32.8694 175.378L32.8615 175.323V175.268L32.8536 175.213V175.158V175.103V175.048L32.8654 174.993L32.8733 174.938L32.8851 174.883L32.9008 174.828L32.9165 174.773L32.9361 174.722L32.9597 174.671L32.9872 174.62L33.0147 174.572L33.0461 174.525L33.0815 174.482L33.1208 174.443L33.1601 174.404L33.2033 174.368L33.2465 174.337L33.2936 174.305L33.3408 174.278L33.3918 174.25L33.4429 174.227L33.494 174.207L33.545 174.187L33.5961 174.172L33.6511 174.156L33.7061 174.144L33.7611 174.132L33.8161 174.121L33.8711 174.113L33.9261 174.105L33.9811 174.097H34.0361L34.0911 174.089H34.1461L34.2011 174.085H34.2561H34.3111H34.3661H34.4211H34.5311H34.5861H34.6411L34.6961 174.093H34.7511L34.8061 174.105L34.8611 174.113L34.9161 174.121L34.9711 174.129L35.0261 174.136L35.0811 174.148L35.1361 174.16L35.1911 174.172L35.2461 174.184L35.3011 174.199L35.3561 174.215L35.4111 174.231L35.4621 174.25L35.5132 174.27L35.5643 174.29L35.6153 174.313L35.6664 174.341L35.7136 174.372L35.7489 174.415V174.859L35.6978 174.847L35.6428 174.832L35.5878 174.816L35.5328 174.804L35.4778 174.792L35.4228 174.781L35.3678 174.769L35.3128 174.757L35.2579 174.745L35.2029 174.734L35.1479 174.726L35.0929 174.718L35.0379 174.71L34.9829 174.702L34.9279 174.694H34.8729L34.8179 174.682H34.7629L34.7079 174.675H34.6529H34.5979H34.5429H34.4879H34.319H34.264H34.209H34.154H34.099L34.044 174.682H33.989L33.934 174.694L33.879 174.702L33.824 174.714L33.769 174.73L33.7179 174.753L33.6708 174.781L33.6275 174.816L33.5922 174.859L33.5686 174.91L33.5529 174.965L33.545 175.02V175.075L33.5372 175.13V175.185L33.5529 175.24L33.5765 175.291L33.6079 175.335L33.6511 175.37L33.6983 175.397L33.7493 175.421L33.8043 175.437L33.8593 175.449L33.9143 175.46L33.9693 175.468L34.0243 175.476L34.0793 175.484L34.1343 175.492L34.1893 175.5L34.2443 175.507L34.2993 175.515L34.3543 175.523L34.4093 175.531L34.4643 175.539L34.5193 175.547L34.5743 175.555L34.6293 175.562L34.6843 175.57L34.7746 175.582M38.8013 176.988L38.8367 176.945L38.8642 176.898L38.8877 176.847L38.9035 176.796L38.9152 176.741L38.9231 176.686V176.631L38.9309 176.576V176.521V176.466V176.411V176.356V174.297L38.9388 174.25H39.5516L39.5949 174.262V176.49V176.545V176.6L39.5909 176.655V176.71L39.5831 176.765L39.5752 176.82L39.5674 176.875L39.5556 176.93L39.5438 176.985L39.532 177.04L39.5163 177.095L39.5006 177.146L39.4809 177.197L39.4574 177.248L39.4338 177.299L39.4063 177.346L39.3749 177.393L39.3434 177.44L39.3081 177.483L39.2688 177.523L39.2295 177.562L39.1863 177.597L39.1431 177.629L39.0959 177.66L39.0488 177.688L38.9977 177.711L38.9467 177.731L38.8956 177.747L38.8406 177.762L38.7856 177.774L38.7306 177.782H38.6756L38.6206 177.79H38.5656H38.5106H37.5639H37.5089H37.4539L37.3989 177.778L37.3439 177.77L37.2889 177.758L37.2339 177.743L37.1828 177.723L37.1317 177.703L37.0807 177.68L37.0335 177.652L36.9864 177.621L36.9432 177.59L36.8999 177.554L36.8607 177.515L36.8214 177.476L36.786 177.432L36.7546 177.389L36.7232 177.342L36.6957 177.295L36.6682 177.244L36.6446 177.193L36.621 177.142L36.6014 177.091L36.5817 177.04L36.566 176.985L36.5503 176.93L36.5385 176.875L36.5267 176.82L36.5189 176.765L36.511 176.71L36.5032 176.655V176.6L36.4953 176.545V176.49V176.435V174.262L36.5385 174.25H37.1514L37.1631 174.294V176.521L37.1671 176.576V176.631L37.1828 176.686L37.1946 176.741L37.2103 176.796L37.2299 176.847L37.2535 176.898L37.2849 176.945L37.3203 176.988L37.3596 177.028L37.4067 177.059L37.4578 177.083L37.5089 177.102L37.5639 177.114L37.6188 177.122H37.6738L37.7288 177.126H37.7838H37.8388H38.3967H38.4517L38.5067 177.118L38.5617 177.11L38.6167 177.095L38.6677 177.075L38.7188 177.051L38.8013 176.992M53.1598 174.474L53.1952 174.431L53.2344 174.392L53.2776 174.356L53.3248 174.325L53.3719 174.294L53.4191 174.266L53.4701 174.242L53.5212 174.223L53.5723 174.203L53.6273 174.187L53.6823 174.176L53.7373 174.164L53.7923 174.156H53.8473L53.9023 174.148H53.9573H54.0123H54.4012H54.4562H54.5112L54.5662 174.16L54.6212 174.172L54.6762 174.184L54.7312 174.199L54.7822 174.219L54.8333 174.239L54.8844 174.262L54.9355 174.29L54.9826 174.317L55.0297 174.349L55.073 174.384L55.1162 174.419L55.1554 174.459L55.1947 174.498L55.2301 174.541L55.2615 174.584L55.2929 174.631L55.3204 174.679L55.344 174.73L55.3676 174.781L55.3872 174.832L55.4069 174.883L55.4226 174.938L55.4383 174.993L55.4501 175.048L55.4619 175.103L55.4697 175.158L55.4776 175.213V175.268L55.4854 175.323V175.378V175.433V175.488V175.543V177.715L55.4619 177.747H54.849V175.405V175.35V175.295L54.8372 175.24L54.8255 175.185L54.8097 175.13L54.794 175.079L54.7705 175.028L54.743 174.981L54.7115 174.934L54.6762 174.891L54.6369 174.851L54.5937 174.816L54.5465 174.789L54.4955 174.765L54.4444 174.745L54.3894 174.73L54.3344 174.718L54.2794 174.71H54.2244L54.1694 174.702H54.1144H54.0594L54.0044 174.71L53.9494 174.718L53.8944 174.73L53.8433 174.749L53.7923 174.773L53.7451 174.8L53.7019 174.832L53.6626 174.871L53.6273 174.914L53.5959 174.961L53.5684 175.012L53.5487 175.064L53.533 175.115L53.5212 175.17L53.5094 175.225L53.5016 175.28V175.335L53.4937 175.39V175.445V175.5V177.727L53.4466 177.735H52.8416V175.39V175.335V175.28L52.8337 175.225L52.8259 175.17L52.8141 175.115L52.7984 175.06L52.7787 175.009L52.7512 174.957L52.7198 174.91L52.6845 174.867L52.6412 174.832L52.5941 174.8L52.547 174.773L52.4959 174.753L52.4409 174.737L52.3859 174.726L52.3309 174.718L52.2759 174.71H52.2209L52.1659 174.702H52.1109H52.0559H52.0009L51.9459 174.718L51.8909 174.73L51.8359 174.745L51.7848 174.765L51.7377 174.792L51.6906 174.824L51.6473 174.859L51.612 174.902L51.5806 174.95L51.5531 174.997L51.5295 175.048L51.5138 175.099L51.502 175.154L51.4941 175.209L51.4863 175.264V175.319L51.4784 175.374V175.429V175.484V177.711L51.4391 177.727H50.8813L50.8499 177.703V175.421V175.366V175.311L50.8577 175.256V175.201L50.8695 175.146L50.8774 175.091L50.8891 175.036L50.9009 174.981L50.9127 174.926L50.9284 174.871L50.9441 174.82L50.9638 174.769L50.9874 174.718L51.0109 174.667L51.0384 174.62L51.0659 174.572L51.0974 174.525L51.1327 174.482L51.1681 174.439L51.2074 174.4L51.2506 174.364L51.2938 174.329L51.3409 174.297L51.3881 174.27L51.4391 174.242L51.4902 174.219L51.5413 174.199L51.5923 174.184L51.6473 174.168L51.7023 174.156L51.7573 174.148L51.8123 174.14H51.8673L51.9223 174.132H51.9773H52.0323H52.4212L52.4762 174.14L52.5312 174.148L52.5862 174.16L52.6412 174.172L52.6962 174.187L52.7512 174.203L52.8023 174.223L52.8534 174.242L52.9044 174.266L52.9555 174.294L53.0027 174.321L53.0498 174.352L53.093 174.388L53.1716 174.462M59.5867 175.936V175.991L59.5907 176.046V176.101V176.156V176.211L59.5867 176.266V176.321L59.575 176.376L59.5671 176.431L59.5592 176.486L59.5475 176.541L59.5357 176.596L59.5239 176.651L59.5082 176.706L59.4925 176.761L59.4767 176.812L59.4571 176.863L59.4375 176.914L59.4139 176.965L59.3903 177.016L59.3628 177.067L59.3353 177.114L59.3078 177.161L59.2764 177.208L59.245 177.252L59.2096 177.295L59.1743 177.338L59.135 177.377L59.0957 177.417L59.0525 177.452L59.0093 177.487L58.966 177.519L58.9189 177.55L58.8718 177.578L58.8246 177.605L58.7736 177.629L58.7225 177.652L58.6714 177.672L58.6203 177.692L58.5693 177.711L58.5143 177.727L58.4593 177.743L58.4043 177.755L58.3493 177.766L58.2943 177.774L58.2393 177.782L58.1843 177.79H58.1293L58.0743 177.798H58.0193H57.9643H57.9093H57.8543H57.7993L57.7443 177.794H57.6893H57.6343H57.5793L57.5243 177.79H57.4693L57.4143 177.782L57.3593 177.774L57.3043 177.766L57.2493 177.758L57.1943 177.747L57.1393 177.735L57.0843 177.723L57.0293 177.707L56.9743 177.692L56.9232 177.672L56.8722 177.652L56.8211 177.633L56.77 177.609L56.719 177.586L56.6718 177.558L56.6247 177.531L56.5775 177.499L56.5343 177.464L56.4911 177.428L56.4518 177.389L56.4126 177.35L56.3772 177.307L56.3418 177.263L56.3104 177.216L56.279 177.169L56.2515 177.122L56.2279 177.071L56.2043 177.02L56.1847 176.969L56.169 176.914L56.1533 176.859L56.1415 176.804L56.1336 176.749L56.1258 176.694V176.639L56.1179 176.584V176.529V176.474V176.419L56.1297 176.364L56.1415 176.309L56.1572 176.254L56.1768 176.203L56.2004 176.152L56.2279 176.105L56.2593 176.057L56.2947 176.014L56.3301 175.971L56.3693 175.932L56.4126 175.896L56.4558 175.865L56.5029 175.833L56.55 175.806L56.6011 175.779L56.6522 175.755L56.7033 175.735L56.7543 175.716L56.8093 175.7L56.8643 175.684L56.9193 175.672L56.9743 175.661L57.0293 175.649L57.0843 175.641L57.1393 175.633L57.1943 175.625H57.2493L57.3043 175.614H57.3593L57.4143 175.606H57.4693H57.5243H57.5793L57.6343 175.61H57.6893L57.7443 175.621L57.7993 175.629L57.8543 175.637L57.9093 175.645L57.9643 175.653L58.0193 175.661L58.0743 175.669L58.1293 175.676L58.1843 175.684L58.2393 175.692L58.2943 175.7L58.3493 175.708L58.4043 175.72L58.4593 175.731L58.5143 175.743L58.5693 175.755L58.5968 175.79V176.124L58.5457 176.132H57.21L57.155 176.136L57.1 176.148L57.049 176.167L57.0018 176.195L56.9586 176.23L56.9232 176.273L56.8958 176.321L56.8761 176.372L56.8643 176.427L56.8565 176.482V176.537V176.592V176.647L56.8604 176.702L56.8682 176.757L56.88 176.812L56.8958 176.867L56.9193 176.918L56.9468 176.965L56.9822 177.008L57.0215 177.047L57.0647 177.079L57.1118 177.106L57.1629 177.126L57.2179 177.142L57.2729 177.153L57.3279 177.161H57.3829L57.4379 177.169H57.4929L57.5479 177.177H57.6029L57.6579 177.181H57.7129H57.7679H57.8229H57.8779H57.9329H57.9879H58.0429L58.0979 177.173H58.1529L58.2079 177.161L58.2629 177.153L58.3178 177.142L58.3728 177.126L58.4239 177.106L58.475 177.083L58.5221 177.055L58.5693 177.024L58.6125 176.988L58.6518 176.949L58.6871 176.906L58.7186 176.859L58.7421 176.808L58.7618 176.757L58.7814 176.706L58.7971 176.651L58.8089 176.596L58.8207 176.541L58.8285 176.486L58.8364 176.431L58.8443 176.376V176.321L58.8561 176.266V176.211L58.8639 176.156V176.101V176.046V175.991V175.936V175.881V175.826V175.771L58.86 175.716V175.661L58.8521 175.606L58.8443 175.551L58.8364 175.496L58.8285 175.441L58.8168 175.386L58.805 175.331L58.7932 175.276L58.7775 175.221L58.7578 175.17L58.7382 175.119L58.7146 175.067L58.6871 175.02L58.6557 174.973L58.6203 174.93L58.5811 174.891L58.5378 174.855L58.4907 174.824L58.4436 174.796L58.3925 174.773L58.3414 174.753L58.2864 174.737L58.2314 174.726L58.1764 174.714L58.1214 174.706L58.0664 174.698H58.0114L57.9564 174.69H57.9014L57.8464 174.686H57.7914H57.7364H57.6814H57.6264H57.5714L57.5164 174.694H57.4614L57.4065 174.702H57.3515L57.2965 174.714L57.2415 174.722L57.1865 174.73L57.1315 174.737L57.0765 174.745L57.0215 174.753L56.9665 174.761L56.9115 174.769L56.8565 174.777L56.8015 174.785L56.7465 174.792L56.6915 174.804L56.6365 174.816L56.5815 174.828L56.5265 174.84L56.4715 174.851L56.4165 174.863L56.3615 174.875L56.3065 174.887H56.2672V174.49L56.2947 174.443L56.3301 174.4L56.3733 174.364L56.4204 174.333L56.4676 174.305L56.5186 174.278L56.5697 174.254L56.6208 174.235L56.6718 174.215L56.7268 174.199L56.7818 174.184L56.8368 174.172L56.8918 174.16L56.9468 174.148L57.0018 174.14L57.0568 174.132L57.1118 174.125L57.1668 174.117L57.2218 174.109H57.2768L57.3318 174.101H57.3868L57.4418 174.093H57.4968L57.5518 174.089H57.6068H57.6618H57.7168H57.7718H57.8268H57.8818H57.9368L57.9918 174.093H58.0468L58.1018 174.101H58.1568L58.2118 174.113L58.2668 174.121L58.3218 174.129L58.3768 174.136L58.4318 174.148L58.4868 174.16L58.5418 174.172L58.5968 174.187L58.6518 174.203L58.7028 174.223L58.7539 174.242L58.805 174.266L58.8561 174.29L58.9071 174.317L58.9543 174.345L59.0014 174.376L59.0446 174.407L59.0878 174.443L59.131 174.478L59.1703 174.517L59.2096 174.557L59.245 174.6L59.2764 174.643L59.3078 174.69L59.3353 174.737L59.3628 174.785L59.3864 174.836L59.41 174.887L59.4296 174.938L59.4492 174.989L59.465 175.04L59.4807 175.095L59.4964 175.15L59.5082 175.205L59.52 175.26L59.5317 175.315L59.5396 175.37L59.5475 175.425L59.5553 175.48V175.535L59.5671 175.59V175.645L59.575 175.7V175.755L59.5789 175.81V175.865V175.932M44.4111 175.429V175.374V175.319V175.264L44.419 175.209V175.154L44.4308 175.099L44.4386 175.044L44.4504 174.989L44.4622 174.934L44.4779 174.879L44.4936 174.824L44.5133 174.773L44.5329 174.722L44.5565 174.671L44.5801 174.62L44.6076 174.572L44.639 174.525L44.6704 174.478L44.7058 174.435L44.7451 174.396L44.7843 174.356L44.8276 174.321L44.8708 174.286L44.9179 174.254L44.965 174.227L45.0161 174.203L45.0672 174.18L45.1183 174.16L45.1693 174.144L45.2243 174.129L45.2793 174.117L45.3343 174.109L45.3893 174.101H45.4443L45.4993 174.093H45.5543H45.6093H45.6643H45.7193H45.7743L45.8293 174.101H45.8843L45.9393 174.109H45.9943L46.0493 174.117H46.1043L46.1593 174.129L46.2143 174.136L46.2693 174.144L46.3243 174.152L46.3793 174.16L46.4343 174.168L46.4461 174.215V174.718L46.4107 174.741H45.7429H45.6879H45.6329L45.5779 174.745H45.5229L45.4679 174.757L45.4129 174.769L45.3618 174.785L45.3108 174.808L45.2636 174.84L45.2243 174.879L45.1929 174.926L45.1693 174.977L45.1497 175.028L45.1379 175.083L45.1261 175.138L45.1183 175.193V175.248L45.1104 175.303V175.358V175.413V175.468V175.523V177.751H44.4426L44.4111 177.727V175.433M49.0231 175.743H49.0781L49.1331 175.735L49.1881 175.723L49.2392 175.708L49.2903 175.684L49.3335 175.649L49.3688 175.606L49.3963 175.559L49.416 175.507L49.4278 175.452L49.4356 175.397V175.342V175.287V175.232L49.4278 175.177L49.4199 175.122L49.4081 175.067L49.3924 175.012L49.3728 174.961L49.3453 174.91L49.3138 174.867L49.2746 174.828L49.2313 174.796L49.1842 174.769L49.1331 174.749L49.0781 174.734L49.0231 174.722L48.9681 174.714L48.9131 174.706H48.8581L48.8031 174.698H48.7481L48.6931 174.694H48.6381H48.5832H48.5282H48.4732H48.3632H48.3082H48.2532L48.1982 174.698H48.1432L48.0882 174.71L48.0332 174.718L47.9782 174.73L47.9232 174.745L47.8721 174.765L47.821 174.789L47.7739 174.816L47.7267 174.847L47.6835 174.883L47.6443 174.922L47.6089 174.965L47.5775 175.012L47.55 175.06L47.5264 175.111L47.5068 175.162L47.491 175.217L47.4753 175.272L47.4635 175.327L47.4518 175.382L47.4439 175.437L47.436 175.492L47.4282 175.547V175.602L47.4203 175.657V175.712L47.4164 175.767V175.822V175.877V175.932V175.987V176.042V176.097V176.152L47.4203 176.207V176.262L47.4282 176.317L47.436 176.372L47.4439 176.427L47.4518 176.482L47.4635 176.537L47.4753 176.592L47.491 176.647L47.5107 176.698L47.5303 176.749L47.5539 176.8L47.5814 176.847L47.6128 176.894L47.6482 176.937L47.6875 176.977L47.7307 177.012L47.7739 177.043L47.821 177.071L47.8721 177.095L47.9232 177.114L47.9742 177.13L48.0292 177.146L48.0842 177.157L48.1392 177.165L48.1942 177.173H48.2492L48.3042 177.181H48.3592L48.4142 177.185H48.4692H48.5242H48.5792H48.6342H48.6892H48.7442H48.7992H48.8542H48.9092L48.9642 177.181H49.0192L49.0742 177.173H49.1292L49.1842 177.161L49.2392 177.153L49.2942 177.146L49.3492 177.138L49.4042 177.13L49.4592 177.118L49.5142 177.106L49.5692 177.095L49.6242 177.083L49.6792 177.071L49.7342 177.059L49.7892 177.047L49.8442 177.036L49.8992 177.024L49.9542 177.008L50.0092 176.992L50.017 177.04V177.373L50.0053 177.428L49.9738 177.476L49.9345 177.515L49.8874 177.546L49.8403 177.574L49.7892 177.597L49.7381 177.621L49.687 177.641L49.636 177.66L49.581 177.676L49.526 177.692L49.471 177.707L49.416 177.719L49.361 177.731L49.306 177.743L49.251 177.751L49.196 177.758L49.141 177.766L49.086 177.774L49.031 177.782H48.976L48.921 177.794H48.866L48.811 177.802H48.756L48.701 177.806H48.646H48.591H48.536H48.481H48.426H48.371H48.316L48.261 177.802H48.206L48.151 177.794H48.096L48.041 177.782L47.986 177.774L47.931 177.766L47.876 177.755L47.821 177.743L47.766 177.731L47.711 177.715L47.656 177.7L47.605 177.68L47.5539 177.66L47.5028 177.641L47.4518 177.617L47.4007 177.593L47.3535 177.566L47.3064 177.535L47.2593 177.503L47.2161 177.468L47.1728 177.432L47.1336 177.393L47.0943 177.354L47.0589 177.311L47.0236 177.267L46.9921 177.22L46.9607 177.173L46.9332 177.126L46.9057 177.075L46.8821 177.024L46.8586 176.973L46.8389 176.922L46.8193 176.871L46.8036 176.816L46.7878 176.761L46.7761 176.706L46.7643 176.651L46.7525 176.596L46.7446 176.541L46.7368 176.486L46.7289 176.431L46.7211 176.376V176.321L46.7132 176.266V176.211L46.7054 176.156V176.101V176.046V175.991V175.936V175.881V175.826V175.771L46.7093 175.716V175.661L46.7171 175.606V175.551L46.7289 175.496L46.7368 175.441L46.7446 175.386L46.7525 175.331L46.7643 175.276L46.7761 175.221L46.7878 175.166L46.8036 175.111L46.8193 175.056L46.835 175.005L46.8546 174.954L46.8743 174.902L46.8978 174.851L46.9214 174.8L46.9489 174.753L46.9764 174.706L47.0078 174.659L47.0432 174.616L47.0786 174.572L47.1178 174.533L47.1571 174.494L47.2003 174.459L47.2436 174.423L47.2868 174.392L47.3339 174.36L47.381 174.333L47.4321 174.305L47.4832 174.282L47.5343 174.258L47.5853 174.239L47.6364 174.219L47.6914 174.203L47.7464 174.187L47.8014 174.176L47.8564 174.164L47.9114 174.152L47.9664 174.144L48.0214 174.136L48.0764 174.129L48.1314 174.121H48.1864L48.2414 174.113H48.2964L48.3514 174.105H48.4064H48.4614H48.5164H48.5714H48.6814H48.7364H48.7914L48.8464 174.109H48.9014L48.9564 174.117L49.0114 174.125L49.0664 174.132L49.1213 174.14L49.1763 174.152L49.2313 174.164L49.2863 174.176L49.3413 174.191L49.3924 174.207L49.4435 174.227L49.4946 174.246L49.5456 174.27L49.5967 174.294L49.6438 174.321L49.691 174.349L49.7381 174.38L49.7813 174.415L49.8245 174.451L49.8638 174.49L49.9031 174.529L49.9385 174.572L49.9699 174.616L50.0013 174.663L50.0288 174.71L50.0524 174.761L50.076 174.812L50.0956 174.863L50.1113 174.914L50.127 174.969L50.1388 175.024L50.1506 175.079L50.1585 175.134L50.1663 175.189V175.244L50.1742 175.299V175.354V175.409V175.464L50.1624 175.519L50.1506 175.574L50.1349 175.629L50.1152 175.68L50.0917 175.731L50.0642 175.782L50.0367 175.83L50.0053 175.873L49.9699 175.916L49.9306 175.955L49.8874 175.991L49.8442 176.026L49.797 176.057L49.7499 176.085L49.6988 176.112L49.6478 176.136L49.5967 176.156L49.5456 176.175L49.4906 176.191L49.4356 176.207L49.3806 176.218L49.3256 176.23L49.2706 176.242L49.2156 176.25L49.1606 176.258L49.1056 176.266H49.0506L48.9956 176.273H48.9406H48.8856H48.8306H48.7756H48.7206H48.6656H48.6106H48.5557H48.5007L48.4457 176.27H48.3907L48.3357 176.266H48.2807L48.2257 176.258H48.1707L48.1157 176.25H48.0607L48.0057 176.242H47.9507L47.8957 176.23L47.8407 176.222L47.7857 176.215L47.7346 176.203V175.759H47.7857L47.8407 175.755H49.031L49.0231 175.743Z" fill="#898989"/>
<path d="M2.46704 179.577C2.46704 179.829 2.47883 180.076 2.49847 180.328C2.64775 182.095 3.62986 183.69 5.14624 184.614C6.93762 185.71 9.00005 186.287 11.0978 186.287H81.366C83.4678 186.287 85.5263 185.71 87.3176 184.614C88.834 183.686 89.8161 182.095 89.9654 180.328C89.985 180.08 89.9968 179.829 89.9968 179.577" stroke="#231815" stroke-linecap="round" stroke-linejoin="round"/>
<path d="M33.4233 15.0381C34.0004 15.0381 34.4682 14.5703 34.4682 13.9931C34.4682 13.416 34.0004 12.9482 33.4233 12.9482C32.8461 12.9482 32.3783 13.416 32.3783 13.9931C32.3783 14.5703 32.8461 15.0381 33.4233 15.0381Z" fill="#B5B5B6" stroke="#B5B5B6" stroke-width="0.05" stroke-miterlimit="10"/>
<path d="M33.4232 17.1084C35.1438 17.1084 36.5385 15.7136 36.5385 13.9931C36.5385 12.2726 35.1438 10.8779 33.4232 10.8779C31.7027 10.8779 30.308 12.2726 30.308 13.9931C30.308 15.7136 31.7027 17.1084 33.4232 17.1084Z" stroke="#231815" stroke-width="0.56" stroke-miterlimit="10"/>
<path d="M33.4232 17.5366C35.3802 17.5366 36.9667 15.9501 36.9667 13.9931C36.9667 12.0361 35.3802 10.4497 33.4232 10.4497C31.4662 10.4497 29.8798 12.0361 29.8798 13.9931C29.8798 15.9501 31.4662 17.5366 33.4232 17.5366Z" stroke="#B5B5B6" stroke-width="0.64" stroke-miterlimit="10"/>
<path d="M59.0368 15.0381C59.6139 15.0381 60.0818 14.5703 60.0818 13.9931C60.0818 13.416 59.6139 12.9482 59.0368 12.9482C58.4597 12.9482 57.9918 13.416 57.9918 13.9931C57.9918 14.5703 58.4597 15.0381 59.0368 15.0381Z" fill="#B5B5B6" stroke="#B5B5B6" stroke-width="0.05" stroke-miterlimit="10"/>
<path d="M59.0368 17.1084C60.7573 17.1084 62.152 15.7136 62.152 13.9931C62.152 12.2726 60.7573 10.8779 59.0368 10.8779C57.3163 10.8779 55.9215 12.2726 55.9215 13.9931C55.9215 15.7136 57.3163 17.1084 59.0368 17.1084Z" stroke="#231815" stroke-width="0.56" stroke-miterlimit="10"/>
<path d="M59.0367 17.5366C60.9937 17.5366 62.5802 15.9501 62.5802 13.9931C62.5802 12.0361 60.9937 10.4497 59.0367 10.4497C57.0797 10.4497 55.4933 12.0361 55.4933 13.9931C55.4933 15.9501 57.0797 17.5366 59.0367 17.5366Z" stroke="#B5B5B6" stroke-width="0.64" stroke-miterlimit="10"/>
<path d="M19.5047 12.8892C20.954 12.8892 22.1289 11.7144 22.1289 10.265C22.1289 8.81573 20.954 7.64084 19.5047 7.64084C18.0554 7.64084 16.8805 8.81573 16.8805 10.265C16.8805 11.7144 18.0554 12.8892 19.5047 12.8892Z" stroke="#231815" stroke-miterlimit="10"/>
<path d="M19.5047 20.2865C20.954 20.2865 22.1289 19.1116 22.1289 17.6623C22.1289 16.213 20.954 15.0381 19.5047 15.0381C18.0554 15.0381 16.8805 16.213 16.8805 17.6623C16.8805 19.1116 18.0554 20.2865 19.5047 20.2865Z" stroke="#231815" stroke-miterlimit="10"/>
<path d="M72.9553 12.8892C74.4046 12.8892 75.5795 11.7144 75.5795 10.265C75.5795 8.81573 74.4046 7.64084 72.9553 7.64084C71.506 7.64084 70.3311 8.81573 70.3311 10.265C70.3311 11.7144 71.506 12.8892 72.9553 12.8892Z" stroke="#231815" stroke-miterlimit="10"/>
<path d="M72.9553 20.2865C74.4046 20.2865 75.5795 19.1116 75.5795 17.6623C75.5795 16.213 74.4046 15.0381 72.9553 15.0381C71.506 15.0381 70.3311 16.213 70.3311 17.6623C70.3311 19.1116 71.506 20.2865 72.9553 20.2865Z" stroke="#231815" stroke-miterlimit="10"/>
<path d="M8.53652 15.6902C8.82508 15.6902 9.05901 15.4563 9.05901 15.1677C9.05901 14.8792 8.82508 14.6453 8.53652 14.6453C8.24796 14.6453 8.01404 14.8792 8.01404 15.1677C8.01404 15.4563 8.24796 15.6902 8.53652 15.6902Z" fill="#040000"/>
</g>
<defs>
<linearGradient id="paint0_linear_42_125" x1="-6.72155" y1="150.907" x2="99.1816" y2="45.0043" gradientUnits="userSpaceOnUse">
<stop stop-color="#BFBFBF"/>
<stop offset="0.14" stop-color="#C2C2C2"/>
<stop offset="0.27" stop-color="#CECECE"/>
<stop offset="0.4" stop-color="#E0E0E0"/>
<stop offset="0.53" stop-color="#FBFBFB"/>
<stop offset="0.54" stop-color="#E0E0E0"/>
<stop offset="0.55" stop-color="#CDCDCD"/>
<stop offset="0.56" stop-color="#CCCCCC"/>
<stop offset="1" stop-color="white"/>
</linearGradient>
<clipPath id="clip0_42_125">
<rect width="92.46" height="191.009" fill="white"/>
</clipPath>
</defs>
</svg>
