<svg width="134" height="68" viewBox="0 0 134 68" fill="none" xmlns="http://www.w3.org/2000/svg">
<g clip-path="url(#clip0_75_2975)">
<path d="M133.98 12.11H0V16.27H133.98V12.11Z" fill="white"/>
<path d="M133.98 16.27H0" stroke="#231815" stroke-width="0.5" stroke-miterlimit="10"/>
<path d="M0 12.11H133.98" stroke="#231815" stroke-width="0.5" stroke-miterlimit="10"/>
<path d="M102.97 21.5C104.87 17.87 104.6 10.09 102.97 6.87C101.06 3.11 94.79 -0.439999 89.74 0.380001C84.7 1.2 84.9 3.25 80.68 3.25H53.31C49.09 3.25 49.29 1.2 44.25 0.380001C39.2 -0.439999 32.93 3.11 31.02 6.87C29.39 10.09 29.12 17.87 31.02 21.5C32.98 25.24 39.2 28.81 44.25 27.99C49.29 27.17 49.09 25.12 53.31 25.12H80.68C84.9 25.12 84.7 27.17 89.74 27.99C94.79 28.81 101.06 25.26 102.97 21.5Z" fill="white"/>
<path d="M70.22 25.16C69.23 24.6 68.46 19.9 68.46 14.19C68.46 8.48 69.24 3.78 70.22 3.22H65.53C64.54 3.79 63.77 8.48 63.77 14.19C63.77 19.9 64.54 24.6 65.53 25.16H70.22Z" fill="#D71618"/>
<path d="M41.26 27.99C39.9 27.99 38.8 21.8 38.8 14.17C38.8 6.54 39.89 0.350001 41.25 0.350001C42.54 0.250001 43.88 0.220001 45.3 0.600001C44.07 1.3 43.12 7.11 43.12 14.17C43.12 21.23 44.07 27.05 45.3 27.74C43.7 28.26 42.25 28.17 41.26 27.99Z" fill="#B35021"/>
<path d="M92.5 27.99C91.14 27.99 90.04 21.8 90.04 14.17C90.04 6.54 91.14 0.35 92.49 0.35C94.05 0.54 95.19 0.83 96.47 1.39C95.32 2.05 94.42 7.52 94.42 14.17C94.42 20.82 95.32 26.29 96.47 26.95C94.92 27.58 93.67 27.89 92.49 27.99H92.5Z" fill="#AC4E23"/>
<path d="M102.97 21.49C104.87 17.86 104.6 10.08 102.97 6.86C101.06 3.1 94.79 -0.449999 89.74 0.370001C84.7 1.19 84.9 3.24 80.68 3.24H53.31C49.09 3.24 49.29 1.19 44.25 0.370001C39.2 -0.449999 32.93 3.1 31.02 6.86C29.39 10.08 29.12 17.86 31.02 21.49C32.98 25.23 39.2 28.8 44.25 27.98C49.29 27.16 49.09 25.11 53.31 25.11H80.68C84.91 25.11 84.7 27.16 89.74 27.98C94.79 28.8 101.06 25.25 102.97 21.49Z" stroke="black" stroke-width="0.5" stroke-miterlimit="10"/>
<path d="M133.98 51.44H0V55.6H133.98V51.44Z" fill="white"/>
<path d="M133.98 55.61H0" stroke="#231815" stroke-width="0.5" stroke-miterlimit="10"/>
<path d="M0 51.44H133.98" stroke="#231815" stroke-width="0.5" stroke-miterlimit="10"/>
<path d="M102.97 60.84C104.87 57.21 104.6 49.43 102.97 46.21C101.06 42.45 94.79 38.9 89.74 39.72C84.7 40.54 84.9 42.59 80.68 42.59H53.31C49.09 42.59 49.29 40.54 44.25 39.72C39.2 38.9 32.93 42.45 31.02 46.21C29.39 49.43 29.12 57.21 31.02 60.84C32.98 64.58 39.2 68.15 44.25 67.33C49.29 66.51 49.09 64.46 53.31 64.46H80.68C84.9 64.46 84.7 66.51 89.74 67.33C94.79 68.15 101.06 64.6 102.97 60.84Z" fill="white"/>
<path d="M70.22 64.5C69.23 63.94 68.46 59.24 68.46 53.53C68.46 47.82 69.24 43.12 70.22 42.56H65.53C64.54 43.13 63.77 47.82 63.77 53.53C63.77 59.24 64.54 63.94 65.53 64.5H70.22Z" fill="#D71618"/>
<path d="M41.26 67.33C39.9 67.33 38.8 61.14 38.8 53.51C38.8 45.88 39.9 39.69 41.26 39.69C42.55 39.59 43.89 39.56 45.31 39.94C44.08 40.64 43.13 46.45 43.13 53.51C43.13 60.57 44.08 66.39 45.31 67.08C43.71 67.6 42.26 67.51 41.27 67.33H41.26Z" fill="#B35021"/>
<path d="M92.5 67.33C91.14 67.33 90.04 61.14 90.04 53.51C90.04 45.88 91.14 39.69 92.49 39.69C94.05 39.88 95.19 40.17 96.47 40.73C95.32 41.39 94.42 46.86 94.42 53.51C94.42 60.16 95.32 65.63 96.47 66.29C94.92 66.92 93.67 67.23 92.49 67.33H92.5Z" fill="#AC4E23"/>
<path d="M102.97 60.82C104.87 57.19 104.6 49.41 102.97 46.19C101.06 42.43 94.79 38.88 89.74 39.7C84.7 40.52 84.9 42.57 80.68 42.57H53.31C49.09 42.57 49.29 40.52 44.25 39.7C39.2 38.88 32.93 42.43 31.02 46.19C29.39 49.41 29.12 57.19 31.02 60.82C32.98 64.56 39.2 68.13 44.25 67.31C49.29 66.49 49.09 64.44 53.31 64.44H80.68C84.91 64.44 84.7 66.49 89.74 67.31C94.79 68.13 101.06 64.58 102.97 60.82Z" stroke="black" stroke-width="0.5" stroke-miterlimit="10"/>
</g>
<defs>
<clipPath id="clip0_75_2975">
<rect width="133.98" height="67.68" fill="white"/>
</clipPath>
</defs>
</svg>
