<svg width="100" height="100" viewBox="0 0 100 100" fill="none" xmlns="http://www.w3.org/2000/svg">
<rect width="100" height="100" rx="15" fill="#A12944"/>
<path d="M15.6708 37.156C14.7435 37.156 13.9028 36.9567 13.1488 36.558C12.4035 36.1507 11.8141 35.5917 11.3808 34.881C10.9561 34.1617 10.7438 33.3513 10.7438 32.45C10.7438 31.5487 10.9561 30.7427 11.3808 30.032C11.8141 29.3127 12.4035 28.7537 13.1488 28.355C13.9028 27.9477 14.7478 27.744 15.6838 27.744C16.4725 27.744 17.1832 27.8827 17.8158 28.16C18.4571 28.4373 18.9945 28.836 19.4278 29.356L18.0758 30.604C17.4605 29.8933 16.6978 29.538 15.7878 29.538C15.2245 29.538 14.7218 29.6637 14.2798 29.915C13.8378 30.1577 13.4911 30.5 13.2398 30.942C12.9971 31.384 12.8758 31.8867 12.8758 32.45C12.8758 33.0133 12.9971 33.516 13.2398 33.958C13.4911 34.4 13.8378 34.7467 14.2798 34.998C14.7218 35.2407 15.2245 35.362 15.7878 35.362C16.6978 35.362 17.4605 35.0023 18.0758 34.283L19.4278 35.531C18.9945 36.0597 18.4571 36.4627 17.8158 36.74C17.1745 37.0173 16.4595 37.156 15.6708 37.156ZM23.7938 37.104C23.0571 37.104 22.3941 36.9523 21.8048 36.649C21.2241 36.337 20.7691 35.908 20.4398 35.362C20.1105 34.816 19.9458 34.1963 19.9458 33.503C19.9458 32.8097 20.1105 32.19 20.4398 31.644C20.7691 31.098 21.2241 30.6733 21.8048 30.37C22.3941 30.058 23.0571 29.902 23.7938 29.902C24.5305 29.902 25.1891 30.058 25.7698 30.37C26.3505 30.6733 26.8055 31.098 27.1348 31.644C27.4641 32.19 27.6288 32.8097 27.6288 33.503C27.6288 34.1963 27.4641 34.816 27.1348 35.362C26.8055 35.908 26.3505 36.337 25.7698 36.649C25.1891 36.9523 24.5305 37.104 23.7938 37.104ZM23.7938 35.44C24.3138 35.44 24.7385 35.2667 25.0678 34.92C25.4058 34.5647 25.5748 34.0923 25.5748 33.503C25.5748 32.9137 25.4058 32.4457 25.0678 32.099C24.7385 31.7437 24.3138 31.566 23.7938 31.566C23.2738 31.566 22.8448 31.7437 22.5068 32.099C22.1688 32.4457 21.9998 32.9137 21.9998 33.503C21.9998 34.0923 22.1688 34.5647 22.5068 34.92C22.8448 35.2667 23.2738 35.44 23.7938 35.44ZM30.9213 30.929C31.164 30.591 31.489 30.3353 31.8963 30.162C32.3123 29.9887 32.789 29.902 33.3263 29.902V31.774C33.101 31.7567 32.9493 31.748 32.8713 31.748C32.2907 31.748 31.8357 31.9127 31.5063 32.242C31.177 32.5627 31.0123 33.048 31.0123 33.698V37H28.9843V30.006H30.9213V30.929ZM41.3197 33.529C41.3197 33.555 41.3067 33.737 41.2807 34.075H35.9897C36.085 34.5083 36.3104 34.8507 36.6657 35.102C37.021 35.3533 37.463 35.479 37.9917 35.479C38.3557 35.479 38.6764 35.427 38.9537 35.323C39.2397 35.2103 39.504 35.037 39.7467 34.803L40.8257 35.973C40.167 36.727 39.205 37.104 37.9397 37.104C37.151 37.104 36.4534 36.9523 35.8467 36.649C35.24 36.337 34.772 35.908 34.4427 35.362C34.1134 34.816 33.9487 34.1963 33.9487 33.503C33.9487 32.8183 34.109 32.203 34.4297 31.657C34.759 31.1023 35.2054 30.6733 35.7687 30.37C36.3407 30.058 36.9777 29.902 37.6797 29.902C38.3644 29.902 38.984 30.0493 39.5387 30.344C40.0934 30.6387 40.5267 31.0633 40.8387 31.618C41.1594 32.164 41.3197 32.801 41.3197 33.529ZM37.6927 31.436C37.2334 31.436 36.8477 31.566 36.5357 31.826C36.2237 32.086 36.033 32.4413 35.9637 32.892H39.4087C39.3394 32.45 39.1487 32.099 38.8367 31.839C38.5247 31.5703 38.1434 31.436 37.6927 31.436ZM45.8029 37.156C45.0836 37.156 44.3859 37.0607 43.7099 36.87C43.0426 36.6707 42.5052 36.415 42.0979 36.103L42.8129 34.517C43.2029 34.803 43.6666 35.0327 44.2039 35.206C44.7412 35.3793 45.2786 35.466 45.8159 35.466C46.4139 35.466 46.8559 35.3793 47.1419 35.206C47.4279 35.024 47.5709 34.7857 47.5709 34.491C47.5709 34.2743 47.4842 34.0967 47.3109 33.958C47.1462 33.8107 46.9296 33.6937 46.6609 33.607C46.4009 33.5203 46.0456 33.425 45.5949 33.321C44.9016 33.1563 44.3339 32.9917 43.8919 32.827C43.4499 32.6623 43.0686 32.398 42.7479 32.034C42.4359 31.67 42.2799 31.1847 42.2799 30.578C42.2799 30.0493 42.4229 29.5727 42.7089 29.148C42.9949 28.7147 43.4239 28.3723 43.9959 28.121C44.5766 27.8697 45.2829 27.744 46.1149 27.744C46.6956 27.744 47.2632 27.8133 47.8179 27.952C48.3726 28.0907 48.8579 28.29 49.2739 28.55L48.6239 30.149C47.7832 29.6723 46.9426 29.434 46.1019 29.434C45.5126 29.434 45.0749 29.5293 44.7889 29.72C44.5116 29.9107 44.3729 30.162 44.3729 30.474C44.3729 30.786 44.5332 31.02 44.8539 31.176C45.1832 31.3233 45.6816 31.4707 46.3489 31.618C47.0422 31.7827 47.6099 31.9473 48.0519 32.112C48.4939 32.2767 48.8709 32.5367 49.1829 32.892C49.5036 33.2473 49.6639 33.7283 49.6639 34.335C49.6639 34.855 49.5166 35.3317 49.2219 35.765C48.9359 36.1897 48.5026 36.5277 47.9219 36.779C47.3412 37.0303 46.6349 37.156 45.8029 37.156ZM55.4709 36.662C55.2716 36.8093 55.0246 36.922 54.7299 37C54.4439 37.0693 54.1406 37.104 53.8199 37.104C52.9879 37.104 52.3423 36.8917 51.8829 36.467C51.4323 36.0423 51.2069 35.4183 51.2069 34.595V31.722H50.1279V30.162H51.2069V28.459H53.2349V30.162H54.9769V31.722H53.2349V34.569C53.2349 34.8637 53.3086 35.0933 53.4559 35.258C53.6119 35.414 53.8286 35.492 54.1059 35.492C54.4266 35.492 54.6996 35.4053 54.9249 35.232L55.4709 36.662ZM59.4303 29.902C60.5137 29.902 61.3457 30.162 61.9263 30.682C62.507 31.1933 62.7973 31.969 62.7973 33.009V37H60.8993V36.129C60.518 36.779 59.8073 37.104 58.7673 37.104C58.23 37.104 57.762 37.013 57.3633 36.831C56.9733 36.649 56.6743 36.3977 56.4663 36.077C56.2583 35.7563 56.1543 35.3923 56.1543 34.985C56.1543 34.335 56.397 33.8237 56.8823 33.451C57.3763 33.0783 58.1347 32.892 59.1573 32.892H60.7693C60.7693 32.45 60.635 32.112 60.3663 31.878C60.0977 31.6353 59.6947 31.514 59.1573 31.514C58.7847 31.514 58.4163 31.5747 58.0523 31.696C57.697 31.8087 57.3937 31.9647 57.1423 32.164L56.4143 30.747C56.7957 30.4783 57.2507 30.2703 57.7793 30.123C58.3167 29.9757 58.867 29.902 59.4303 29.902ZM59.2743 35.739C59.621 35.739 59.9287 35.661 60.1973 35.505C60.466 35.3403 60.6567 35.102 60.7693 34.79V34.075H59.3783C58.5463 34.075 58.1303 34.348 58.1303 34.894C58.1303 35.154 58.23 35.362 58.4293 35.518C58.6373 35.6653 58.919 35.739 59.2743 35.739ZM69.1438 36.662C68.9444 36.8093 68.6974 36.922 68.4028 37C68.1168 37.0693 67.8134 37.104 67.4928 37.104C66.6608 37.104 66.0151 36.8917 65.5558 36.467C65.1051 36.0423 64.8798 35.4183 64.8798 34.595V31.722H63.8008V30.162H64.8798V28.459H66.9078V30.162H68.6498V31.722H66.9078V34.569C66.9078 34.8637 66.9814 35.0933 67.1288 35.258C67.2848 35.414 67.5014 35.492 67.7788 35.492C68.0994 35.492 68.3724 35.4053 68.5978 35.232L69.1438 36.662ZM70.2822 30.006H72.3102V37H70.2822V30.006ZM71.2962 29.031C70.9235 29.031 70.6202 28.9227 70.3862 28.706C70.1522 28.4893 70.0352 28.2207 70.0352 27.9C70.0352 27.5793 70.1522 27.3107 70.3862 27.094C70.6202 26.8773 70.9235 26.769 71.2962 26.769C71.6689 26.769 71.9722 26.873 72.2062 27.081C72.4402 27.289 72.5572 27.549 72.5572 27.861C72.5572 28.199 72.4402 28.4807 72.2062 28.706C71.9722 28.9227 71.6689 29.031 71.2962 29.031ZM77.5203 37.104C76.7837 37.104 76.1207 36.9523 75.5313 36.649C74.9507 36.337 74.4957 35.908 74.1663 35.362C73.837 34.816 73.6723 34.1963 73.6723 33.503C73.6723 32.8097 73.837 32.19 74.1663 31.644C74.4957 31.098 74.9507 30.6733 75.5313 30.37C76.1207 30.058 76.7837 29.902 77.5203 29.902C78.257 29.902 78.9157 30.058 79.4963 30.37C80.077 30.6733 80.532 31.098 80.8613 31.644C81.1907 32.19 81.3553 32.8097 81.3553 33.503C81.3553 34.1963 81.1907 34.816 80.8613 35.362C80.532 35.908 80.077 36.337 79.4963 36.649C78.9157 36.9523 78.257 37.104 77.5203 37.104ZM77.5203 35.44C78.0403 35.44 78.465 35.2667 78.7943 34.92C79.1323 34.5647 79.3013 34.0923 79.3013 33.503C79.3013 32.9137 79.1323 32.4457 78.7943 32.099C78.465 31.7437 78.0403 31.566 77.5203 31.566C77.0003 31.566 76.5713 31.7437 76.2333 32.099C75.8953 32.4457 75.7263 32.9137 75.7263 33.503C75.7263 34.0923 75.8953 34.5647 76.2333 34.92C76.5713 35.2667 77.0003 35.44 77.5203 35.44ZM86.9619 29.902C87.8286 29.902 88.5262 30.162 89.0549 30.682C89.5922 31.202 89.8609 31.9733 89.8609 32.996V37H87.8329V33.308C87.8329 32.7533 87.7116 32.3417 87.4689 32.073C87.2262 31.7957 86.8752 31.657 86.4159 31.657C85.9046 31.657 85.4972 31.8173 85.1939 32.138C84.8906 32.45 84.7389 32.918 84.7389 33.542V37H82.7109V30.006H84.6479V30.825C84.9166 30.5303 85.2502 30.305 85.6489 30.149C86.0476 29.9843 86.4852 29.902 86.9619 29.902Z" fill="white"/>
<path d="M32.5944 59.18C31.7644 59.18 30.9594 59.07 30.1794 58.85C29.4094 58.62 28.7894 58.325 28.3194 57.965L29.1444 56.135C29.5944 56.465 30.1294 56.73 30.7494 56.93C31.3694 57.13 31.9894 57.23 32.6094 57.23C33.2994 57.23 33.8094 57.13 34.1394 56.93C34.4694 56.72 34.6344 56.445 34.6344 56.105C34.6344 55.855 34.5344 55.65 34.3344 55.49C34.1444 55.32 33.8944 55.185 33.5844 55.085C33.2844 54.985 32.8744 54.875 32.3544 54.755C31.5544 54.565 30.8994 54.375 30.3894 54.185C29.8794 53.995 29.4394 53.69 29.0694 53.27C28.7094 52.85 28.5294 52.29 28.5294 51.59C28.5294 50.98 28.6944 50.43 29.0244 49.94C29.3544 49.44 29.8494 49.045 30.5094 48.755C31.1794 48.465 31.9944 48.32 32.9544 48.32C33.6244 48.32 34.2794 48.4 34.9194 48.56C35.5594 48.72 36.1194 48.95 36.5994 49.25L35.8494 51.095C34.8794 50.545 33.9094 50.27 32.9394 50.27C32.2594 50.27 31.7544 50.38 31.4244 50.6C31.1044 50.82 30.9444 51.11 30.9444 51.47C30.9444 51.83 31.1294 52.1 31.4994 52.28C31.8794 52.45 32.4544 52.62 33.2244 52.79C34.0244 52.98 34.6794 53.17 35.1894 53.36C35.6994 53.55 36.1344 53.85 36.4944 54.26C36.8644 54.67 37.0494 55.225 37.0494 55.925C37.0494 56.525 36.8794 57.075 36.5394 57.575C36.2094 58.065 35.7094 58.455 35.0394 58.745C34.3694 59.035 33.5544 59.18 32.5944 59.18ZM46.4498 54.995C46.4498 55.025 46.4348 55.235 46.4048 55.625H40.2998C40.4098 56.125 40.6698 56.52 41.0798 56.81C41.4898 57.1 41.9998 57.245 42.6098 57.245C43.0298 57.245 43.3998 57.185 43.7198 57.065C44.0498 56.935 44.3548 56.735 44.6348 56.465L45.8798 57.815C45.1198 58.685 44.0098 59.12 42.5498 59.12C41.6398 59.12 40.8348 58.945 40.1348 58.595C39.4348 58.235 38.8948 57.74 38.5148 57.11C38.1348 56.48 37.9448 55.765 37.9448 54.965C37.9448 54.175 38.1298 53.465 38.4998 52.835C38.8798 52.195 39.3948 51.7 40.0448 51.35C40.7048 50.99 41.4398 50.81 42.2498 50.81C43.0398 50.81 43.7548 50.98 44.3948 51.32C45.0348 51.66 45.5348 52.15 45.8948 52.79C46.2648 53.42 46.4498 54.155 46.4498 54.995ZM42.2648 52.58C41.7348 52.58 41.2898 52.73 40.9298 53.03C40.5698 53.33 40.3498 53.74 40.2698 54.26H44.2448C44.1648 53.75 43.9448 53.345 43.5848 53.045C43.2248 52.735 42.7848 52.58 42.2648 52.58ZM53.2127 58.61C52.9827 58.78 52.6977 58.91 52.3577 59C52.0277 59.08 51.6777 59.12 51.3077 59.12C50.3477 59.12 49.6027 58.875 49.0727 58.385C48.5527 57.895 48.2927 57.175 48.2927 56.225V52.91H47.0477V51.11H48.2927V49.145H50.6327V51.11H52.6427V52.91H50.6327V56.195C50.6327 56.535 50.7177 56.8 50.8877 56.99C51.0677 57.17 51.3177 57.26 51.6377 57.26C52.0077 57.26 52.3227 57.16 52.5827 56.96L53.2127 58.61ZM62.6563 50.93V59H60.4363V58.04C60.1263 58.39 59.7563 58.66 59.3263 58.85C58.8963 59.03 58.4313 59.12 57.9313 59.12C56.8713 59.12 56.0313 58.815 55.4113 58.205C54.7913 57.595 54.4813 56.69 54.4813 55.49V50.93H56.8213V55.145C56.8213 56.445 57.3663 57.095 58.4563 57.095C59.0163 57.095 59.4663 56.915 59.8063 56.555C60.1463 56.185 60.3163 55.64 60.3163 54.92V50.93H62.6563ZM69.5941 50.81C70.3441 50.81 71.0241 50.985 71.6341 51.335C72.2541 51.675 72.7391 52.16 73.0891 52.79C73.4391 53.41 73.6141 54.135 73.6141 54.965C73.6141 55.795 73.4391 56.525 73.0891 57.155C72.7391 57.775 72.2541 58.26 71.6341 58.61C71.0241 58.95 70.3441 59.12 69.5941 59.12C68.5641 59.12 67.7541 58.795 67.1641 58.145V61.91H64.8241V50.93H67.0591V51.86C67.6391 51.16 68.4841 50.81 69.5941 50.81ZM69.1891 57.2C69.7891 57.2 70.2791 57 70.6591 56.6C71.0491 56.19 71.2441 55.645 71.2441 54.965C71.2441 54.285 71.0491 53.745 70.6591 53.345C70.2791 52.935 69.7891 52.73 69.1891 52.73C68.5891 52.73 68.0941 52.935 67.7041 53.345C67.3241 53.745 67.1341 54.285 67.1341 54.965C67.1341 55.645 67.3241 56.19 67.7041 56.6C68.0941 57 68.5891 57.2 69.1891 57.2ZM26.9367 74L26.9217 67.7L23.8317 72.89H22.7367L19.6617 67.835V74H17.3817V63.5H19.3917L23.3217 70.025L27.1917 63.5H29.1867L29.2167 74H26.9367ZM34.7979 65.81C36.0479 65.81 37.0079 66.11 37.6779 66.71C38.3479 67.3 38.6829 68.195 38.6829 69.395V74H36.4929V72.995C36.0529 73.745 35.2329 74.12 34.0329 74.12C33.4129 74.12 32.8729 74.015 32.4129 73.805C31.9629 73.595 31.6179 73.305 31.3779 72.935C31.1379 72.565 31.0179 72.145 31.0179 71.675C31.0179 70.925 31.2979 70.335 31.8579 69.905C32.4279 69.475 33.3029 69.26 34.4829 69.26H36.3429C36.3429 68.75 36.1879 68.36 35.8779 68.09C35.5679 67.81 35.1029 67.67 34.4829 67.67C34.0529 67.67 33.6279 67.74 33.2079 67.88C32.7979 68.01 32.4479 68.19 32.1579 68.42L31.3179 66.785C31.7579 66.475 32.2829 66.235 32.8929 66.065C33.5129 65.895 34.1479 65.81 34.7979 65.81ZM34.6179 72.545C35.0179 72.545 35.3729 72.455 35.6829 72.275C35.9929 72.085 36.2129 71.81 36.3429 71.45V70.625H34.7379C33.7779 70.625 33.2979 70.94 33.2979 71.57C33.2979 71.87 33.4129 72.11 33.6429 72.29C33.8829 72.46 34.2079 72.545 34.6179 72.545ZM45.7057 65.81C46.7057 65.81 47.5107 66.11 48.1207 66.71C48.7407 67.31 49.0507 68.2 49.0507 69.38V74H46.7107V69.74C46.7107 69.1 46.5707 68.625 46.2907 68.315C46.0107 67.995 45.6057 67.835 45.0757 67.835C44.4857 67.835 44.0157 68.02 43.6657 68.39C43.3157 68.75 43.1407 69.29 43.1407 70.01V74H40.8007V65.93H43.0357V66.875C43.3457 66.535 43.7307 66.275 44.1907 66.095C44.6507 65.905 45.1557 65.81 45.7057 65.81ZM54.4268 65.81C55.6768 65.81 56.6368 66.11 57.3068 66.71C57.9768 67.3 58.3118 68.195 58.3118 69.395V74H56.1218V72.995C55.6818 73.745 54.8618 74.12 53.6618 74.12C53.0418 74.12 52.5018 74.015 52.0418 73.805C51.5918 73.595 51.2468 73.305 51.0068 72.935C50.7668 72.565 50.6468 72.145 50.6468 71.675C50.6468 70.925 50.9268 70.335 51.4868 69.905C52.0568 69.475 52.9318 69.26 54.1118 69.26H55.9718C55.9718 68.75 55.8168 68.36 55.5068 68.09C55.1968 67.81 54.7318 67.67 54.1118 67.67C53.6818 67.67 53.2568 67.74 52.8368 67.88C52.4268 68.01 52.0768 68.19 51.7868 68.42L50.9468 66.785C51.3868 66.475 51.9118 66.235 52.5218 66.065C53.1418 65.895 53.7768 65.81 54.4268 65.81ZM54.2468 72.545C54.6468 72.545 55.0018 72.455 55.3118 72.275C55.6218 72.085 55.8418 71.81 55.9718 71.45V70.625H54.3668C53.4068 70.625 52.9268 70.94 52.9268 71.57C52.9268 71.87 53.0418 72.11 53.2718 72.29C53.5118 72.46 53.8368 72.545 54.2468 72.545ZM68.8425 65.93V72.65C68.8425 74.13 68.4575 75.23 67.6875 75.95C66.9175 76.67 65.7925 77.03 64.3125 77.03C63.5325 77.03 62.7925 76.935 62.0925 76.745C61.3925 76.555 60.8125 76.28 60.3525 75.92L61.2825 74.24C61.6225 74.52 62.0525 74.74 62.5725 74.9C63.0925 75.07 63.6125 75.155 64.1325 75.155C64.9425 75.155 65.5375 74.97 65.9175 74.6C66.3075 74.24 66.5025 73.69 66.5025 72.95V72.605C65.8925 73.275 65.0425 73.61 63.9525 73.61C63.2125 73.61 62.5325 73.45 61.9125 73.13C61.3025 72.8 60.8175 72.34 60.4575 71.75C60.0975 71.16 59.9175 70.48 59.9175 69.71C59.9175 68.94 60.0975 68.26 60.4575 67.67C60.8175 67.08 61.3025 66.625 61.9125 66.305C62.5325 65.975 63.2125 65.81 63.9525 65.81C65.1225 65.81 66.0125 66.195 66.6225 66.965V65.93H68.8425ZM64.4175 71.69C65.0375 71.69 65.5425 71.51 65.9325 71.15C66.3325 70.78 66.5325 70.3 66.5325 69.71C66.5325 69.12 66.3325 68.645 65.9325 68.285C65.5425 67.915 65.0375 67.73 64.4175 67.73C63.7975 67.73 63.2875 67.915 62.8875 68.285C62.4875 68.645 62.2875 69.12 62.2875 69.71C62.2875 70.3 62.4875 70.78 62.8875 71.15C63.2875 71.51 63.7975 71.69 64.4175 71.69ZM78.9254 69.995C78.9254 70.025 78.9104 70.235 78.8804 70.625H72.7754C72.8854 71.125 73.1454 71.52 73.5554 71.81C73.9654 72.1 74.4754 72.245 75.0854 72.245C75.5054 72.245 75.8754 72.185 76.1954 72.065C76.5254 71.935 76.8304 71.735 77.1104 71.465L78.3554 72.815C77.5954 73.685 76.4854 74.12 75.0254 74.12C74.1154 74.12 73.3104 73.945 72.6104 73.595C71.9104 73.235 71.3704 72.74 70.9904 72.11C70.6104 71.48 70.4204 70.765 70.4204 69.965C70.4204 69.175 70.6054 68.465 70.9754 67.835C71.3554 67.195 71.8704 66.7 72.5204 66.35C73.1804 65.99 73.9154 65.81 74.7254 65.81C75.5154 65.81 76.2304 65.98 76.8704 66.32C77.5104 66.66 78.0104 67.15 78.3704 67.79C78.7404 68.42 78.9254 69.155 78.9254 69.995ZM74.7404 67.58C74.2104 67.58 73.7654 67.73 73.4054 68.03C73.0454 68.33 72.8254 68.74 72.7454 69.26H76.7204C76.6404 68.75 76.4204 68.345 76.0604 68.045C75.7004 67.735 75.2604 67.58 74.7404 67.58ZM82.7183 66.995C82.9983 66.605 83.3733 66.31 83.8433 66.11C84.3233 65.91 84.8733 65.81 85.4933 65.81V67.97C85.2333 67.95 85.0583 67.94 84.9683 67.94C84.2983 67.94 83.7733 68.13 83.3933 68.51C83.0133 68.88 82.8233 69.44 82.8233 70.19V74H80.4833V65.93H82.7183V66.995Z" fill="white"/>
</svg>
