<svg width="26" height="26" viewBox="0 0 26 26" fill="none" xmlns="http://www.w3.org/2000/svg">
<path d="M12.66 25.07C19.5636 25.07 25.16 19.4736 25.16 12.57C25.16 5.66644 19.5636 0.0699997 12.66 0.0699997C5.75644 0.0699997 0.160004 5.66644 0.160004 12.57C0.160004 19.4736 5.75644 25.07 12.66 25.07Z" fill="#A42444"/>
<path d="M9.31 19H7.42001V10.47C7.42001 10.01 7.42 9.6 7.44 9.24C7.45 8.87 7.46999 8.52 7.48999 8.17C7.32999 8.34 7.17 8.49 7 8.64C6.83 8.78 6.64001 8.95 6.42001 9.13L5.01999 10.26L4.05002 9.04L7.72 6.16H9.30002V19.01L9.31 19Z" fill="white"/>
<path d="M20.88 9.12C20.88 10 20.63 10.69 20.14 11.21C19.65 11.73 19 12.07 18.2 12.24V12.31C19.22 12.43 19.99 12.75 20.5 13.28C21.02 13.81 21.27 14.49 21.27 15.33C21.27 16.07 21.09 16.74 20.74 17.32C20.39 17.9 19.84 18.36 19.1 18.69C18.36 19.02 17.42 19.19 16.27 19.19C15.59 19.19 14.95 19.14 14.36 19.03C13.77 18.92 13.21 18.74 12.69 18.49V16.76C13.23 17.04 13.81 17.25 14.44 17.39C15.06 17.53 15.65 17.61 16.2 17.61C17.3 17.61 18.09 17.4 18.57 16.99C19.04 16.58 19.28 16 19.28 15.25C19.28 14.5 18.99 14 18.42 13.67C17.84 13.34 16.98 13.17 15.83 13.17H14.66V11.6H15.85C16.94 11.6 17.73 11.4 18.23 10.99C18.73 10.58 18.97 10.05 18.97 9.39C18.97 8.81 18.78 8.37 18.4 8.05C18.02 7.73 17.48 7.57 16.77 7.57C16.11 7.57 15.54 7.68 15.05 7.89C14.56 8.1 14.11 8.34 13.69 8.62L12.75 7.31C13.23 6.95 13.81 6.64 14.48 6.38C15.15 6.12 15.93 5.99 16.82 5.99C18.15 5.99 19.16 6.28 19.85 6.86C20.54 7.44 20.89 8.2 20.89 9.14L20.88 9.12Z" fill="white"/>
</svg>
