<svg width="26" height="25" viewBox="0 0 26 25" fill="none" xmlns="http://www.w3.org/2000/svg">
<path d="M13.17 25C20.0736 25 25.67 19.4036 25.67 12.5C25.67 5.59644 20.0736 0 13.17 0C6.26645 0 0.670013 5.59644 0.670013 12.5C0.670013 19.4036 6.26645 25 13.17 25Z" fill="#A42444"/>
<path d="M9.76999 18.92H7.87997V10.39C7.87997 9.93 7.87999 9.52 7.89999 9.16C7.90999 8.79 7.92998 8.44 7.94998 8.09C7.78998 8.26 7.62999 8.41 7.45999 8.56C7.28999 8.7 7.09997 8.87 6.87997 9.05L5.48001 10.18L4.50998 8.96L8.18002 6.08H9.75998V18.93L9.76999 18.92Z" fill="white"/>
<path d="M21.82 11.56C21.82 12.29 21.77 13.02 21.67 13.75C21.57 14.48 21.39 15.16 21.13 15.8C20.87 16.44 20.51 17.01 20.06 17.51C19.61 18.01 19.02 18.4 18.31 18.68C17.6 18.96 16.75 19.1 15.75 19.1C15.51 19.1 15.23 19.09 14.9 19.06C14.57 19.03 14.3 18.99 14.1 18.93V17.33C14.33 17.4 14.58 17.46 14.87 17.49C15.15 17.53 15.42 17.54 15.69 17.54C16.52 17.54 17.2 17.42 17.74 17.17C18.28 16.92 18.71 16.58 19.02 16.13C19.33 15.69 19.56 15.17 19.7 14.59C19.84 14.01 19.93 13.38 19.95 12.71H19.84C19.58 13.12 19.21 13.47 18.74 13.76C18.27 14.05 17.64 14.2 16.85 14.2C15.75 14.2 14.86 13.86 14.19 13.16C13.52 12.47 13.18 11.5 13.18 10.25C13.18 8.89 13.56 7.83 14.31 7.05C15.07 6.27 16.08 5.88 17.35 5.88C18.18 5.88 18.93 6.09 19.61 6.49C20.29 6.9 20.82 7.52 21.22 8.35C21.62 9.18 21.81 10.24 21.81 11.53L21.82 11.56ZM17.37 7.47C16.69 7.47 16.13 7.7 15.7 8.15C15.27 8.61 15.05 9.3 15.05 10.24C15.05 11.01 15.24 11.61 15.61 12.06C15.98 12.5 16.55 12.73 17.3 12.73C17.83 12.73 18.29 12.62 18.68 12.41C19.07 12.19 19.37 11.92 19.58 11.58C19.79 11.25 19.9 10.9 19.9 10.54C19.9 10.06 19.81 9.59 19.62 9.12C19.43 8.65 19.15 8.26 18.77 7.95C18.39 7.64 17.93 7.48 17.37 7.48V7.47Z" fill="white"/>
</svg>
