<svg width="26" height="26" viewBox="0 0 26 26" fill="none" xmlns="http://www.w3.org/2000/svg">
<path d="M13 25.03C19.9036 25.03 25.5 19.4336 25.5 12.53C25.5 5.62644 19.9036 0.0299988 13 0.0299988C6.09647 0.0299988 0.500031 5.62644 0.500031 12.53C0.500031 19.4336 6.09647 25.03 13 25.03Z" fill="#A42444"/>
<path d="M9.57999 18.95H7.69003V10.42C7.69003 9.96 7.68999 9.55 7.70999 9.19C7.71999 8.82 7.73998 8.47 7.75998 8.12C7.59998 8.29 7.43999 8.44 7.26999 8.59C7.09999 8.73 6.91003 8.9 6.69003 9.08L5.29001 10.21L4.31998 8.99L7.99002 6.11H9.56998V18.96L9.57999 18.95Z" fill="white"/>
<path d="M14.5 18.95L19.63 7.79H12.88V6.1H21.68V7.47L16.57 18.95H14.5Z" fill="white"/>
</svg>
