<svg width="26" height="26" viewBox="0 0 26 26" fill="none" xmlns="http://www.w3.org/2000/svg">
<path d="M12.92 25.08C19.8236 25.08 25.42 19.4836 25.42 12.58C25.42 5.67644 19.8236 0.0800018 12.92 0.0800018C6.01645 0.0800018 0.420013 5.67644 0.420013 12.58C0.420013 19.4836 6.01645 25.08 12.92 25.08Z" fill="#A42444"/>
<path d="M9.48001 19H7.59V10.47C7.59 10.01 7.59002 9.6 7.61002 9.24C7.62002 8.87 7.64 8.52 7.66 8.17C7.5 8.34 7.34001 8.49 7.17001 8.64C7.00001 8.78 6.81 8.95 6.59 9.13L5.19 10.26L4.22 9.04L7.89001 6.16H9.47V19.01L9.48001 19Z" fill="white"/>
<path d="M12.96 13.52C12.96 12.78 13.01 12.04 13.11 11.32C13.21 10.6 13.39 9.92 13.65 9.28C13.91 8.64 14.26 8.07 14.72 7.57C15.18 7.07 15.75 6.68 16.46 6.4C17.16 6.12 18.01 5.98 19.01 5.98C19.26 5.98 19.55 5.98 19.87 6.01C20.19 6.03 20.45 6.07 20.65 6.13V7.73C20.42 7.66 20.17 7.6 19.9 7.57C19.63 7.53 19.36 7.52 19.1 7.52C18.27 7.52 17.59 7.65 17.05 7.9C16.51 8.15 16.08 8.5 15.77 8.94C15.46 9.38 15.23 9.9 15.09 10.49C14.95 11.08 14.86 11.71 14.82 12.38H14.93C15.19 11.96 15.57 11.6 16.05 11.31C16.53 11.02 17.15 10.87 17.9 10.87C19.02 10.87 19.91 11.22 20.59 11.91C21.27 12.6 21.61 13.58 21.61 14.84C21.61 16.18 21.23 17.25 20.49 18.03C19.74 18.81 18.72 19.2 17.44 19.2C16.61 19.2 15.86 19 15.18 18.59C14.5 18.18 13.97 17.56 13.57 16.73C13.17 15.9 12.98 14.84 12.98 13.55L12.96 13.52ZM17.41 17.59C18.09 17.59 18.65 17.37 19.08 16.92C19.51 16.47 19.73 15.77 19.73 14.82C19.73 14.06 19.54 13.46 19.16 13.02C18.78 12.58 18.21 12.35 17.46 12.35C16.94 12.35 16.49 12.46 16.11 12.67C15.73 12.89 15.43 13.16 15.21 13.5C14.99 13.84 14.89 14.18 14.89 14.53C14.89 15.01 14.99 15.49 15.18 15.96C15.37 16.43 15.65 16.82 16.03 17.13C16.4 17.44 16.86 17.59 17.42 17.59H17.41Z" fill="white"/>
</svg>
