<svg width="25" height="26" viewBox="0 0 25 26" fill="none" xmlns="http://www.w3.org/2000/svg">
<path d="M12.5 25.03C19.4036 25.03 25 19.4336 25 12.53C25 5.62644 19.4036 0.03 12.5 0.03C5.59644 0.03 0 5.62644 0 12.53C0 19.4336 5.59644 25.03 12.5 25.03Z" fill="#A42444"/>
<path d="M13.51 18.95H11.62V10.42C11.62 9.96 11.62 9.55 11.64 9.19C11.65 8.82 11.67 8.47 11.69 8.12C11.53 8.29 11.37 8.44 11.2 8.59C11.03 8.73 10.84 8.9 10.62 9.08L9.22 10.21L8.25 8.99L11.92 6.11H13.5V18.96L13.51 18.95Z" fill="white"/>
</svg>
