<svg width="26" height="26" viewBox="0 0 26 26" fill="none" xmlns="http://www.w3.org/2000/svg">
<path d="M12.75 25.04C19.6536 25.04 25.25 19.4436 25.25 12.54C25.25 5.63644 19.6536 0.0400009 12.75 0.0400009C5.84644 0.0400009 0.25 5.63644 0.25 12.54C0.25 19.4436 5.84644 25.04 12.75 25.04Z" fill="#A42444"/>
<path d="M9.10001 18.99H7.20999V10.46C7.20999 10 7.21001 9.59 7.23001 9.23C7.24001 8.86 7.26 8.51 7.28 8.16C7.12 8.33 6.96001 8.48 6.79001 8.63C6.62001 8.77 6.42999 8.94 6.20999 9.12L4.81 10.25L3.84 9.03L7.51001 6.15H9.09V19L9.10001 18.99Z" fill="white"/>
<path d="M21.65 16.15H19.87V18.99H18.02V16.15H12.06V14.64L17.98 6.09H19.87V14.53H21.65V16.15ZM18.02 14.53V11.04C18.02 10.48 18.02 9.95 18.05 9.45C18.07 8.95 18.09 8.53 18.11 8.2H18.04C17.94 8.44 17.82 8.69 17.68 8.94C17.54 9.19 17.4 9.41 17.27 9.61L13.87 14.54H18.03L18.02 14.53Z" fill="white"/>
</svg>
