<svg width="26" height="26" viewBox="0 0 26 26" fill="none" xmlns="http://www.w3.org/2000/svg">
<path d="M12.83 25.07C19.7336 25.07 25.33 19.4736 25.33 12.57C25.33 5.66644 19.7336 0.0699997 12.83 0.0699997C5.92646 0.0699997 0.330017 5.66644 0.330017 12.57C0.330017 19.4736 5.92646 25.07 12.83 25.07Z" fill="#A42444"/>
<path d="M9.5 18.91H7.61002V10.38C7.61002 9.92 7.61 9.51 7.63 9.15C7.64 8.78 7.65999 8.43 7.67999 8.08C7.51999 8.25 7.36 8.4 7.19 8.55C7.02 8.69 6.83002 8.86 6.61002 9.04L5.20999 10.17L4.23999 8.95L7.91 6.07H9.48999V18.92L9.5 18.91Z" fill="white"/>
<path d="M17.17 10.94C18.44 10.94 19.47 11.27 20.25 11.93C21.03 12.59 21.42 13.53 21.42 14.76C21.42 16.12 20.99 17.18 20.14 17.95C19.29 18.72 18.08 19.1 16.52 19.1C15.85 19.1 15.22 19.04 14.64 18.92C14.06 18.8 13.56 18.63 13.15 18.4V16.65C13.58 16.9 14.11 17.11 14.73 17.26C15.35 17.42 15.94 17.49 16.5 17.49C17.4 17.49 18.12 17.28 18.66 16.87C19.2 16.46 19.47 15.81 19.47 14.94C19.47 14.16 19.23 13.56 18.74 13.15C18.25 12.74 17.49 12.53 16.45 12.53C16.11 12.53 15.74 12.56 15.33 12.62C14.92 12.68 14.58 12.74 14.33 12.8L13.45 12.28L13.94 6.07H20.55V7.76H15.6L15.31 11.13C15.51 11.09 15.77 11.06 16.08 11.01C16.39 10.97 16.76 10.95 17.18 10.95L17.17 10.94Z" fill="white"/>
</svg>
