<svg width="20" height="20" viewBox="0 0 20 20" fill="none" xmlns="http://www.w3.org/2000/svg">
<path d="M18.0445 2.49168C18.0156 2.38064 17.9272 2.29391 17.8141 2.26549C16.0236 1.81582 14.1721 1.9391 12.4598 2.62211C10.973 3.21519 9.71097 4.18275 8.77332 5.44096C7.45545 5.2616 6.12486 5.69636 5.17834 6.62571L3.07452 8.69128C2.99036 8.77393 2.95995 8.89564 2.99563 9.00713C3.03132 9.11861 3.12717 9.20136 3.24433 9.22191L6.07582 9.71762L5.55537 10.5538L3.72443 11.3242C3.51676 11.4116 3.46481 11.6776 3.62436 11.8343L4.18386 12.3837C3.92727 12.5088 3.69136 12.6747 3.48688 12.8754C3.06503 13.2896 2.68978 14.2266 2.3716 15.6604C2.14134 16.698 2.02582 17.6096 2.02099 17.6479C1.99543 17.8513 2.17214 18.0226 2.37713 17.9976C2.41614 17.9929 3.34458 17.8794 4.4014 17.6533C5.86179 17.3409 6.81615 16.9725 7.238 16.5583C7.44248 16.3576 7.61143 16.1259 7.73884 15.874L8.29833 16.4233C8.45814 16.5801 8.72904 16.5288 8.81792 16.3251L9.60263 14.5274L10.4543 14.0165L10.9592 16.7965C10.9801 16.9115 11.0644 17.0056 11.1779 17.0406C11.2923 17.0759 11.4161 17.0452 11.4996 16.9632L13.6034 14.8976C14.55 13.9683 14.9927 12.6619 14.8101 11.368C16.0916 10.4474 17.0771 9.20832 17.6812 7.74851C18.377 6.06748 18.5025 4.24966 18.0445 2.49168ZM17.4706 2.82905C17.7571 4.04617 17.7402 5.27377 17.4559 6.42671C15.7481 5.84771 14.3952 4.51792 13.8063 2.84348C14.9794 2.56443 16.2295 2.54743 17.4706 2.82905ZM3.95928 8.70982L5.63016 7.06935C6.35886 6.35387 7.35542 5.98338 8.3692 6.0331L6.43349 9.14301L3.95928 8.70982ZM9.39722 13.9155L6.1787 10.7555L6.67024 9.96584L10.2015 13.433L9.39722 13.9155ZM6.78624 16.1148C6.18125 16.7088 3.92599 17.1425 2.7118 17.3194C2.89205 16.1273 3.33378 13.913 3.93877 13.3191C4.14641 13.1152 4.39648 12.9589 4.66964 12.8606L7.25321 15.3972C7.15308 15.6654 6.99385 15.9109 6.78624 16.1148ZM8.41658 15.6522L4.40993 11.7183L5.70195 11.1747L8.97032 14.3836L8.41658 15.6522ZM13.1517 14.4541L11.4808 16.0946L11.0396 13.6654L14.2071 11.7649C14.2578 12.7602 13.8804 13.7386 13.1517 14.4541ZM13.8741 11.2294L10.7625 13.0964L7.01302 9.4151L8.9146 6.36005C9.9249 4.73696 11.4514 3.58007 13.1912 3.01585C13.8425 4.90086 15.3632 6.39195 17.2803 7.03061C16.7122 8.71995 15.5445 10.2271 13.8741 11.2294Z" fill="#111111"/>
<path d="M10.9104 6.39675C10.1017 7.19084 10.1017 8.47584 10.9104 9.2699C11.7192 10.0639 13.028 10.0639 13.8368 9.2699C14.6455 8.47581 14.6454 7.19081 13.8368 6.39675C13.0279 5.60272 11.7191 5.60279 10.9104 6.39675ZM13.3849 8.82625C12.8259 9.37511 11.9212 9.37507 11.3622 8.82625C10.8032 8.2774 10.8032 7.38918 11.3622 6.84036C11.9212 6.29151 12.8259 6.29154 13.3849 6.84036C13.9439 7.38921 13.9439 8.27743 13.3849 8.82625Z" fill="#111111"/>
</svg>
