<svg width="20" height="20" viewBox="0 0 20 20" fill="none" xmlns="http://www.w3.org/2000/svg">
<path fill-rule="evenodd" clip-rule="evenodd" d="M13.3407 11.5842C13.2582 11.6667 13.1249 11.6667 13.0424 11.5842C12.9598 11.5017 12.9598 11.3684 13.0424 11.2858L13.7074 10.6208C13.7899 10.5382 13.9232 10.5382 14.0057 10.6208C14.0883 10.7033 14.0883 10.8366 14.0057 10.9192L13.3407 11.5842ZM12.5241 11.0721C12.5241 11.1884 12.4294 11.2832 12.3131 11.2832C12.1967 11.2832 12.102 11.1884 12.102 11.0721V10.131C12.102 10.0146 12.1967 9.91986 12.3131 9.91986C12.4294 9.91986 12.5241 10.0146 12.5241 10.131V11.0721ZM11.5851 11.2865C11.6677 11.3691 11.6677 11.5024 11.5851 11.5849C11.5026 11.6674 11.3693 11.6674 11.2868 11.5849L10.6217 10.9192C10.5392 10.8366 10.5392 10.7033 10.6217 10.6208C10.7043 10.5382 10.8375 10.5382 10.9201 10.6208L11.5851 11.2865ZM11.0723 12.1025C11.1887 12.1025 11.2834 12.1972 11.2834 12.3136C11.2834 12.4299 11.1887 12.5246 11.0723 12.5246H10.1313C10.0149 12.5246 9.92017 12.4299 9.92017 12.3136C9.92017 12.1972 10.0149 12.1025 10.1313 12.1025H11.0723ZM11.2868 13.0422C11.3693 12.9597 11.5026 12.9597 11.5851 13.0422C11.6677 13.1247 11.6677 13.258 11.5851 13.3406L10.9194 14.0056C10.8369 14.0882 10.7036 14.0882 10.6211 14.0056C10.5385 13.9231 10.5385 13.7898 10.6211 13.7073L11.2868 13.0422ZM12.4944 11.9347L16.0963 12.7195C16.4603 12.7986 16.5922 13.2492 16.329 13.5117L15.6843 14.1565L17.7537 16.2261C17.9371 16.4094 17.9371 16.7078 17.7537 16.8918L16.8918 17.7538C16.7092 17.9364 16.4095 17.9371 16.2261 17.7538L14.1573 15.6842L13.5126 16.329C13.2501 16.5915 12.7995 16.4595 12.7204 16.0962L11.9356 12.4942C11.8625 12.1606 12.1609 11.8623 12.4944 11.9347ZM16.0069 13.1315L12.405 12.3467C12.3678 12.3386 12.3387 12.3684 12.3462 12.4056L13.1309 16.0076C13.1397 16.0469 13.1857 16.0597 13.2135 16.0313L14.0077 15.237C14.0903 15.1545 14.2235 15.1545 14.3061 15.237L16.525 17.4561C16.544 17.475 16.5744 17.4757 16.594 17.4561L17.4559 16.5941C17.4749 16.5752 17.4749 16.544 17.4559 16.5251L15.237 14.3061C15.1545 14.2235 15.1545 14.0902 15.237 14.0077L16.0312 13.2134C16.0583 13.1857 16.0461 13.1403 16.0069 13.1315Z" fill="#ffffff"/>
<rect x="2.5" y="2.5" width="6" height="6" rx="1.5" stroke="#ffffff"/>
<rect x="2.5" y="11.5" width="6" height="6" rx="1.5" stroke="#ffffff"/>
<rect x="11.5" y="2.5" width="6" height="6" rx="1.5" stroke="#ffffff"/>
</svg>
