<svg width="11" height="11" viewBox="0 0 11 11" fill="none" xmlns="http://www.w3.org/2000/svg">
<g clip-path="url(#clip0_189_997)">
<path d="M5.5 0.25C8.39949 0.25 10.75 2.60051 10.75 5.5C10.75 8.39949 8.39949 10.75 5.5 10.75C2.60051 10.75 0.25 8.39949 0.25 5.5C0.25 2.60051 2.60051 0.25 5.5 0.25Z" fill="#F6F6F6" stroke="#98907F" stroke-width="0.5"/>
<path d="M5.89816 2.30554H5.08334C4.94016 2.30554 4.82408 2.42162 4.82408 2.5648V3.2685C4.82408 3.41169 4.94016 3.52776 5.08334 3.52776H5.89816C6.04134 3.52776 6.15741 3.41169 6.15741 3.2685V2.5648C6.15741 2.42162 6.04134 2.30554 5.89816 2.30554Z" fill="#968E7C"/>
<path d="M4.85186 4.19446V8.03705C4.85186 8.39816 5.14816 8.69446 5.50927 8.69446C5.87038 8.69446 6.16668 8.39816 6.16668 8.03705V4.19446H4.84261H4.85186Z" fill="#968E7C"/>
</g>
<defs>
<clipPath id="clip0_189_997">
<rect width="11" height="11" fill="white"/>
</clipPath>
</defs>
</svg>
