<svg width="45" height="45" viewBox="0 0 45 45" fill="none" xmlns="http://www.w3.org/2000/svg">
<circle cx="22.5" cy="22.5" r="22.5" fill="#FF5E00"/>
<path d="M28.6387 12.1946C28.5766 12.1264 28.5014 12.0716 28.4175 12.0334C28.3336 11.9953 28.2428 11.9746 28.1506 11.9727H15.8604C15.6134 11.9768 15.3765 12.0715 15.1948 12.2389C15.0542 12.3984 14.9755 12.6031 14.973 12.8157V36.2426C14.9687 36.3488 14.9862 36.4547 15.0244 36.5539C15.0625 36.6531 15.1205 36.7434 15.1948 36.8194C15.279 36.9135 15.3814 36.9896 15.4958 37.043C15.6102 37.0963 15.7342 37.1259 15.8604 37.13H28.1506C28.2428 37.1281 28.3336 37.1074 28.4175 37.0693C28.5014 37.0311 28.5766 36.9763 28.6387 36.9081L28.7274 36.8194C28.8132 36.7503 28.8819 36.6622 28.9281 36.5622C28.9742 36.4621 28.9967 36.3527 28.9936 36.2426V12.8157C28.9907 12.7066 28.9655 12.5992 28.9198 12.5C28.874 12.4008 28.8086 12.312 28.7274 12.2389C28.7163 12.226 28.7028 12.2154 28.6875 12.2078C28.6723 12.2002 28.6557 12.1957 28.6387 12.1946ZM16.7921 24.5292C16.7891 24.406 16.8111 24.2835 16.8569 24.169C16.9026 24.0546 16.9711 23.9507 17.0583 23.8635C17.1454 23.7764 17.2493 23.7079 17.3637 23.6621C17.4782 23.6164 17.6007 23.5944 17.7239 23.5974C17.8471 23.594 17.9697 23.6159 18.0842 23.6617C18.1986 23.7075 18.3025 23.7762 18.3894 23.8636C18.5568 24.0453 18.6516 24.2822 18.6556 24.5292C18.6587 24.6524 18.6367 24.7749 18.5909 24.8893C18.5452 25.0037 18.4766 25.1077 18.3895 25.1948C18.3024 25.2819 18.1984 25.3504 18.084 25.3962C17.9696 25.4419 17.8471 25.464 17.7239 25.4609C17.4769 25.4569 17.24 25.3621 17.0583 25.1947C16.9709 25.1078 16.9022 25.0039 16.8564 24.8895C16.8106 24.775 16.7887 24.6524 16.7921 24.5292ZM31.9663 11.3516C31.9688 11.0501 31.9068 10.7516 31.7843 10.4761C31.6619 10.2006 31.4819 9.95445 31.2564 9.75427C31.0474 9.52489 30.7943 9.33991 30.5123 9.21033C30.2302 9.08075 29.925 9.00922 29.6148 9H14.3518C13.7135 9.02406 13.1092 9.29439 12.6658 9.75427C12.4517 9.96094 12.2821 10.2093 12.1677 10.484C12.0532 10.7587 11.9962 11.054 12.0003 11.3516V36.2426C11.9972 36.3527 12.0197 36.4621 12.0658 36.5622C12.112 36.6622 12.1807 36.7503 12.2665 36.8194C12.34 36.9146 12.434 36.992 12.5415 37.0457C12.6491 37.0995 12.7674 37.1283 12.8877 37.13H12.9764C13.0909 37.131 13.2038 37.1031 13.3047 37.0488C13.4055 36.9945 13.491 36.9156 13.5532 36.8194C13.6494 36.7572 13.7283 36.6717 13.7826 36.5709C13.8369 36.47 13.8648 36.3571 13.8638 36.2426V12.2833C13.8603 12.102 13.894 11.9219 13.9626 11.754C14.0313 11.5862 14.1336 11.4341 14.2631 11.3072C14.3939 11.1675 14.552 11.0561 14.7275 10.9798C14.903 10.9035 15.0922 10.8639 15.2836 10.8635H28.683C28.8683 10.8614 29.0518 10.9 29.2205 10.9767C29.3892 11.0534 29.5389 11.1662 29.6592 11.3072C29.8002 11.4274 29.913 11.5772 29.9897 11.7459C30.0663 11.9145 30.105 12.098 30.1028 12.2833V36.2426C30.0998 36.3527 30.1222 36.4621 30.1684 36.5622C30.2146 36.6622 30.2833 36.7503 30.3691 36.8194C30.4425 36.9146 30.5366 36.992 30.6441 37.0457C30.7517 37.0995 30.87 37.1283 30.9902 37.13H31.079C31.1992 37.1283 31.3175 37.0995 31.4251 37.0457C31.5326 36.992 31.6267 36.9146 31.7001 36.8194C31.7859 36.7503 31.8546 36.6622 31.9008 36.5622C31.947 36.4621 31.9694 36.3527 31.9663 36.2426V11.3516Z" fill="white"/>
</svg>
