<svg xmlns="http://www.w3.org/2000/svg" width="20" height="20" fill="none" viewBox="0 0 20 20"><mask id="a" fill="#fff"><path fill-rule="evenodd" d="M10.649 1.5c.846 0 1.548.647 1.608 1.48l.105 1.087a6.5 6.5 0 0 1 1.655.946l1.007-.454a1.623 1.623 0 0 1 2.101.636l.65 1.11a1.583 1.583 0 0 1-.493 2.117l-.9.632a6.4 6.4 0 0 1 0 1.886l.924.633c.69.473.897 1.389.477 2.107l-.667 1.14a1.624 1.624 0 0 1-2.085.645l-1.019-.475a6.5 6.5 0 0 1-1.646.94l-.092 1.11a1.606 1.606 0 0 1-1.608 1.46H9.333a1.605 1.605 0 0 1-1.607-1.46l-.095-1.11a6.5 6.5 0 0 1-1.644-.94l-1.02.475a1.623 1.623 0 0 1-2.085-.645l-.666-1.14a1.58 1.58 0 0 1 .477-2.107l.924-.635a6.4 6.4 0 0 1 .001-1.882l-.9-.634a1.583 1.583 0 0 1-.493-2.117l.648-1.11a1.623 1.623 0 0 1 2.102-.636l1.007.454a6.5 6.5 0 0 1 1.654-.946l.105-1.087c.06-.834.764-1.48 1.61-1.48z" clip-rule="evenodd"/></mask><path fill="currentColor" d="M10.649 1.5v-1zm1.608 1.48-.997.073v.011l.002.012zm.105 1.087-.996.096.06.613.573.223zm1.655.946-.619.785.477.376.553-.25zm1.007-.454.41.911.012-.005.01-.005zm2.101.636-.863.505zm.65 1.11.863-.505zm-.493 2.117-.556-.831-.01.006-.009.006zm-.9.632-.575-.819-.507.356.092.612zm.07.946h1zm-.07.94-.989-.148-.092.618.515.354zm.924.633-.566.825zm.477 2.107.864.505zm-.667 1.14-.863-.505zm-2.085.645.423-.907zm-1.019-.475.422-.906-.557-.26-.483.38zm-1.646.94-.363-.932-.581.227-.052.621zm-.092 1.11.996.083zm-1.608 1.46v1zm-1.333 0v1zm-1.607-1.46.996-.085v-.001zm-.095-1.11.997-.085-.053-.62-.58-.227zm-1.644-.94.618-.787-.484-.38-.557.26zm-1.02.475.422.906zm-2.085-.645-.863.505zm-.666-1.14.864-.505zm.477-2.107.565.825zm.924-.635.566.825.516-.354-.093-.618zM3.547 10h-1zm.071-.944.99.148.091-.61-.505-.356zm-.9-.634.574-.818-.01-.007-.009-.006zm-.493-2.117L1.362 5.8zm.648-1.11.864.505zm2.102-.636-.433.901.01.005.012.005zm1.007.454-.411.911.553.25.476-.376zm1.654-.946L7.999 5l.573-.223.06-.612zm.105-1.087.996.097.001-.012v-.012zM10.65 1.5v1c.331 0 .589.251.61.553l.998-.073.998-.072A2.605 2.605 0 0 0 10.649.5zm1.608 1.48-.995.096.104 1.087.996-.096.995-.095-.104-1.087zm.105 1.087L11.999 5c.508.198.979.469 1.4.8l.618-.786.619-.786a7.5 7.5 0 0 0-1.912-1.092zm1.655.946.411.911 1.007-.454-.411-.911-.411-.912-1.007.454zm1.007-.454.433.901a.623.623 0 0 1 .805.24l.863-.505.864-.504a2.623 2.623 0 0 0-3.398-1.034zm2.101.636-.863.506.65 1.109.863-.505.863-.506-.65-1.109zm.65 1.11-.864.504a.583.583 0 0 1-.185.782l.556.83.555.832a2.583 2.583 0 0 0 .801-3.453zm-.493 2.117-.575-.819-.9.632.574.819.575.818.9-.632zm-.9.632-.99.149q.06.391.06.797h2a7.4 7.4 0 0 0-.082-1.095zm.07.946h-1q0 .402-.059.792l.99.148.988.147A7.4 7.4 0 0 0 17.452 10zm-.07.94-.566.824.924.634.566-.825.566-.824-.924-.634zm.924.633-.566.825c.261.179.333.516.18.777l.863.505.864.504a2.583 2.583 0 0 0-.775-3.435zm.477 2.107-.863-.505-.667 1.14.863.505.864.505.667-1.14zm-.667 1.14-.863-.504a.624.624 0 0 1-.8.242l-.421.907-.423.906a2.624 2.624 0 0 0 3.37-1.046zm-2.085.645.423-.907-1.02-.474-.422.906-.422.907 1.02.474zm-1.019-.475-.618-.786a5.5 5.5 0 0 1-1.39.794l.363.932.363.931a7.5 7.5 0 0 0 1.9-1.085zm-1.646.94-.996-.084-.093 1.11.997.083.996.083.093-1.109zm-.092 1.11-.997-.085a.606.606 0 0 1-.61.545v2a2.606 2.606 0 0 0 2.603-2.377zm-1.608 1.46v-1H9.333v2h1.333zm-1.333 0v-1a.606.606 0 0 1-.61-.545l-.997.084-.997.084A2.605 2.605 0 0 0 9.333 19.5zm-1.607-1.46.996-.086-.094-1.11-.997.086-.996.085.094 1.11zm-.095-1.11.364-.932a5.5 5.5 0 0 1-1.39-.795l-.618.786-.618.786c.57.449 1.209.817 1.899 1.086zm-1.644-.94-.423-.907-1.02.476.423.906.423.906 1.02-.475zm-1.02.475-.422-.907a.623.623 0 0 1-.8-.242l-.863.504-.863.505a2.623 2.623 0 0 0 3.37 1.046zm-2.085-.645.864-.504-.666-1.14-.864.504-.863.504.666 1.14zm-.666-1.14.863-.505a.58.58 0 0 1 .18-.777l-.566-.825-.566-.824a2.58 2.58 0 0 0-.774 3.435zm.477-2.107.566.825.924-.635-.566-.825-.565-.824-.925.635zm.924-.635.99-.147a5.4 5.4 0 0 1-.06-.791h-2q.001.556.081 1.086zM3.547 10h1q0-.404.06-.796l-.989-.148-.988-.149Q2.548 9.44 2.547 10zm.071-.944.576-.818-.902-.634-.575.818-.575.818.901.634zm-.9-.634.555-.831a.583.583 0 0 1-.185-.782l-.863-.504L1.36 5.8a2.583 2.583 0 0 0 .8 3.453zm-.493-2.117.863.504.649-1.11-.864-.504-.863-.504-.648 1.11zm.648-1.11.864.505a.623.623 0 0 1 .805-.24l.433-.901.433-.902A2.623 2.623 0 0 0 2.01 4.691zm2.102-.636-.411.911 1.007.454.41-.911.412-.912-1.007-.454zm1.007.454.618.785C7.02 5.468 7.49 5.197 8 5l-.363-.932-.363-.931c-.693.27-1.336.64-1.91 1.091zm1.654-.946.995.097.106-1.087-.996-.097-.995-.096-.105 1.087zm.105-1.087.998.073c.022-.301.28-.553.612-.553v-2a2.606 2.606 0 0 0-2.607 2.408zm1.61-1.48v1h1.298v-2H9.35z" mask="url(#a)"/><circle cx="10.001" cy="10" r="2.5" stroke="currentColor"/></svg>