<svg width="13" height="12" viewBox="0 0 13 12" fill="none" xmlns="http://www.w3.org/2000/svg">
<path d="M8.94 1.06006H1.21C0.817878 1.06006 0.5 1.37794 0.5 1.77006V10.6801C0.5 11.0722 0.817878 11.3901 1.21 11.3901H8.94C9.33212 11.3901 9.65 11.0722 9.65 10.6801V1.77006C9.65 1.37794 9.33212 1.06006 8.94 1.06006Z" fill="white"/>
<path d="M8.94 1.06006H1.21C0.817878 1.06006 0.5 1.37794 0.5 1.77006V10.6801C0.5 11.0722 0.817878 11.3901 1.21 11.3901H8.94C9.33212 11.3901 9.65 11.0722 9.65 10.6801V1.77006C9.65 1.37794 9.33212 1.06006 8.94 1.06006Z" stroke="currentColor" stroke-miterlimit="10"/>
<path d="M2.67999 4.36011H7.26999" stroke="currentColor" stroke-miterlimit="10" stroke-linecap="round"/>
<path d="M2.67999 7.01001H7.26999" stroke="currentColor" stroke-miterlimit="10" stroke-linecap="round"/>
<path d="M7.27002 4.5V9.67L9.54002 7.87L11.81 9.67V4.5" fill="white"/>
<path d="M7.27002 4.5V9.67L9.54002 7.87L11.81 9.67V4.5" stroke="currentColor" stroke-miterlimit="10"/>
<path d="M9.62998 5.8C11.0935 5.8 12.28 4.61355 12.28 3.15C12.28 1.68645 11.0935 0.5 9.62998 0.5C8.16643 0.5 6.97998 1.68645 6.97998 3.15C6.97998 4.61355 8.16643 5.8 9.62998 5.8Z" fill="white" stroke="currentColor" stroke-miterlimit="10"/>
</svg>
