<svg xmlns="http://www.w3.org/2000/svg" width="1097" height="663" fill="none" viewBox="0 0 1097 663"><path fill="#fff" d="M0 0h1097v663H0z"/><path fill="#000" d="M222.146 98.647a.5.5 0 0 0 0 .707l3.182 3.182a.5.5 0 0 0 .708-.707L223.207 99l2.829-2.828a.5.5 0 0 0-.708-.707zm134.708.706a.5.5 0 0 0 0-.707l-3.182-3.181a.501.501 0 0 0-.708.707L355.793 99l-2.829 2.828a.502.502 0 0 0 .708.708zM222.5 99v.5h134v-1h-134z"/><path stroke="#000" d="M221.5 95v8M357.5 95v8"/><path fill="#000" d="M191.353 129.646a.5.5 0 0 0-.707 0l-3.182 3.182a.5.5 0 0 0 .707.708l2.829-2.829 2.828 2.829a.5.5 0 0 0 .707-.708zm-.707 406.708a.5.5 0 0 0 .708 0l3.182-3.182a.502.502 0 0 0-.708-.708L191 535.293l-2.828-2.829a.502.502 0 0 0-.708.708zM191 130h-.5v406h1V130z"/><path stroke="#000" d="M187 129h8M187 537h8"/><path fill="#000" d="M770.491 581v-10.909h3.687q1.283 0 2.098.463.82.458 1.215 1.241a3.8 3.8 0 0 1 .394 1.748 3.86 3.86 0 0 1-.394 1.752 2.93 2.93 0 0 1-1.204 1.257q-.814.464-2.088.464h-2.642v-1.172h2.599q.88 0 1.412-.304a1.8 1.8 0 0 0 .772-.82 2.7 2.7 0 0 0 .245-1.177q0-.656-.245-1.172a1.75 1.75 0 0 0-.778-.81q-.537-.298-1.427-.298h-2.323V581zm12.694.17q-1.182 0-2.04-.522a3.5 3.5 0 0 1-1.316-1.47q-.458-.948-.458-2.205t.458-2.216q.464-.964 1.289-1.502.83-.543 1.939-.543.639 0 1.263.213.622.213 1.134.692.512.474.815 1.257.304.783.304 1.929v.532h-6.307v-1.086h5.028q0-.693-.277-1.236a2.1 2.1 0 0 0-.777-.858q-.5-.314-1.183-.314-.751 0-1.3.373a2.45 2.45 0 0 0-.836.959 2.8 2.8 0 0 0-.293 1.267v.725q0 .927.32 1.571.324.639.9.975.575.33 1.337.33.496 0 .895-.138.404-.144.698-.426.293-.288.452-.714l1.215.341a2.7 2.7 0 0 1-.645 1.086 3.1 3.1 0 0 1-1.118.725 4.2 4.2 0 0 1-1.497.255m11.095-6.519-1.129.319a2.1 2.1 0 0 0-.314-.548 1.5 1.5 0 0 0-.554-.448q-.351-.176-.9-.176-.751 0-1.252.347-.495.34-.495.868 0 .468.341.74.34.271 1.065.453l1.214.298q1.098.266 1.636.815.537.543.538 1.401 0 .704-.405 1.257-.4.555-1.119.874-.719.32-1.672.319-1.253 0-2.072-.543-.821-.543-1.039-1.587l1.193-.299q.17.661.645.991.478.33 1.251.33.879 0 1.396-.372.522-.379.522-.906 0-.426-.298-.714-.299-.293-.917-.436l-1.363-.32q-1.124-.267-1.651-.826-.522-.564-.522-1.411 0-.693.388-1.225.394-.533 1.071-.837.682-.303 1.545-.303 1.214 0 1.907.532.697.532.99 1.407m5.366 6.519q-1.109 0-1.944-.527a3.6 3.6 0 0 1-1.3-1.475q-.464-.948-.464-2.216 0-1.28.464-2.232a3.57 3.57 0 0 1 1.3-1.481q.836-.528 1.944-.527 1.108 0 1.939.527.836.528 1.299 1.481.47.952.469 2.232 0 1.268-.469 2.216a3.53 3.53 0 0 1-1.299 1.475q-.832.528-1.939.527m0-1.129q.842 0 1.385-.431.543-.432.804-1.135t.261-1.523-.261-1.529a2.6 2.6 0 0 0-.804-1.145q-.543-.437-1.385-.437t-1.385.437-.804 1.145a4.4 4.4 0 0 0-.261 1.529q0 .82.261 1.523t.804 1.135q.543.43 1.385.431m6.542 1.044a.92.92 0 0 1-.676-.282.92.92 0 0 1-.282-.677q0-.393.282-.676a.92.92 0 0 1 .676-.282q.395 0 .677.282a.92.92 0 0 1 .282.676.994.994 0 0 1-.479.831.9.9 0 0 1-.48.128m0-6.072a.92.92 0 0 1-.676-.283.92.92 0 0 1-.282-.676q0-.394.282-.677a.92.92 0 0 1 .676-.282q.395 0 .677.282a.93.93 0 0 1 .282.677.9.9 0 0 1-.133.479 1 1 0 0 1-.346.352.9.9 0 0 1-.48.128m7.157 3.75v-1.087l4.794-7.585h.788v1.683h-.533l-3.622 5.732v.085h6.456v1.172zM818.48 581v-10.909h1.257V581zm8.303.149q-1.204 0-2.051-.655-.847-.66-1.294-1.912-.448-1.257-.448-3.037 0-1.768.448-3.02.452-1.257 1.299-1.917.852-.666 2.046-.666t2.04.666q.852.66 1.3 1.917.452 1.252.452 3.02 0 1.78-.447 3.037-.447 1.251-1.295 1.912-.847.655-2.05.655m0-1.172q1.193 0 1.853-1.15.661-1.15.661-3.282 0-1.416-.304-2.413-.298-.996-.863-1.518a1.9 1.9 0 0 0-1.347-.522q-1.183 0-1.849 1.167-.665 1.162-.665 3.286 0 1.418.298 2.408.299.991.857 1.508.566.516 1.359.516m13.359 4.262q-.91 0-1.566-.235a3.3 3.3 0 0 1-1.092-.607 3.3 3.3 0 0 1-.687-.799l1.001-.703q.171.223.432.511.261.294.714.506.457.219 1.198.219.992 0 1.635-.48.645-.479.645-1.502v-1.662h-.107a7 7 0 0 1-.394.554q-.25.325-.724.581-.469.25-1.268.25a3.4 3.4 0 0 1-1.779-.469q-.783-.468-1.241-1.363-.453-.895-.453-2.174 0-1.256.442-2.189.442-.937 1.231-1.449.788-.516 1.821-.516.8 0 1.268.266.474.261.725.597.255.33.394.543h.128v-1.3h1.214v8.416q0 1.055-.479 1.716a2.74 2.74 0 0 1-1.279.974 4.8 4.8 0 0 1-1.779.315m-.043-4.496q.757 0 1.279-.346t.794-.996.271-1.556q0-.884-.266-1.561-.267-.676-.788-1.06-.522-.383-1.29-.383-.798 0-1.331.405-.528.405-.794 1.086a4.2 4.2 0 0 0-.261 1.513q0 .852.266 1.508.273.65.799 1.022.534.368 1.321.368m-137.211 13.802q0-2.013.522-3.702a11.5 11.5 0 0 1 1.502-3.116h1.108a6.8 6.8 0 0 0-.719 1.3 12.5 12.5 0 0 0-.581 1.689q-.25.915-.394 1.896a14 14 0 0 0-.139 1.933q0 1.268.245 2.573.246 1.305.661 2.424t.927 1.822h-1.108a11.6 11.6 0 0 1-1.502-3.111q-.522-1.693-.522-3.708m6.478-5.454V599h-1.321v-10.909zm3.736 5.987V599h-1.258v-8.182h1.215v1.279h.106q.288-.624.874-1.002.586-.383 1.513-.383.831 0 1.454.341.623.335.969 1.022.347.682.347 1.726V599h-1.257v-5.114q0-.963-.501-1.502-.501-.543-1.374-.543-.603 0-1.076.261-.47.261-.741.762-.271.5-.271 1.214m10.841 5.092q-1.15 0-1.982-.543a3.54 3.54 0 0 1-1.278-1.497q-.448-.953-.448-2.178 0-1.247.458-2.2.464-.959 1.289-1.497.832-.543 1.939-.543.863 0 1.556.319.692.32 1.134.895.442.576.549 1.342h-1.257q-.144-.559-.639-.99-.49-.437-1.321-.437-.735 0-1.289.383-.549.379-.858 1.071-.303.687-.304 1.614 0 .948.299 1.651.303.703.852 1.092.554.39 1.3.389.49 0 .889-.17.4-.17.677-.49.276-.32.394-.767h1.257a2.9 2.9 0 0 1-.527 1.305 2.95 2.95 0 0 1-1.103.916q-.682.336-1.587.335m6.312-11.079V599h-1.257v-10.909zm7.459 7.564v-4.837h1.257V599h-1.257v-1.385h-.086q-.287.624-.895 1.06-.607.432-1.534.432-.767 0-1.363-.336-.597-.34-.938-1.023-.34-.687-.341-1.731v-5.199h1.257v5.114q0 .894.501 1.427.506.533 1.289.533.47 0 .954-.24.49-.238.82-.735.336-.495.336-1.262m4.369 6.413q-.32 0-.57-.053a1.5 1.5 0 0 1-.346-.096l.319-1.108q.458.117.81.085a.97.97 0 0 0 .623-.314q.277-.277.506-.9l.234-.639-3.025-8.225h1.364l2.258 6.52h.085l2.259-6.52h1.363l-3.473 9.375a3.5 3.5 0 0 1-.58 1.05q-.346.42-.804.623a2.5 2.5 0 0 1-1.023.202m10.677-2.898q-1.182 0-2.04-.522a3.5 3.5 0 0 1-1.316-1.47q-.458-.948-.458-2.205t.458-2.216q.464-.964 1.289-1.502.832-.543 1.939-.543.639 0 1.263.213.622.213 1.134.692.512.474.815 1.257.304.783.304 1.929v.532h-6.307v-1.086h5.029a2.7 2.7 0 0 0-.277-1.236 2.1 2.1 0 0 0-.778-.858q-.5-.314-1.183-.314-.75 0-1.299.373a2.45 2.45 0 0 0-.837.959 2.8 2.8 0 0 0-.293 1.267v.725q0 .927.32 1.571.326.639.9.975.576.33 1.337.33.495 0 .895-.138.405-.144.698-.426a1.95 1.95 0 0 0 .453-.714l1.214.341a2.7 2.7 0 0 1-.644 1.086 3.14 3.14 0 0 1-1.119.725 4.2 4.2 0 0 1-1.497.255m6.557-5.092V599h-1.257v-8.182h1.215v1.279h.106q.288-.624.874-1.002.585-.383 1.513-.383.83 0 1.454.341.623.335.969 1.022.347.682.347 1.726V599h-1.258v-5.114q0-.963-.5-1.502-.5-.543-1.375-.543-.602 0-1.076.261a1.87 1.87 0 0 0-.74.762q-.272.5-.272 1.214m10.607 5.092q-1.023 0-1.806-.516-.783-.522-1.225-1.47-.442-.954-.442-2.254 0-1.289.442-2.237t1.231-1.465q.788-.516 1.821-.516.8 0 1.263.266.468.261.714.597.25.33.389.543h.106v-4.027h1.257V599h-1.214v-1.257h-.149a8 8 0 0 1-.395.565q-.255.335-.729.601-.474.261-1.263.261m.171-1.129q.756 0 1.278-.394.522-.4.794-1.103.271-.708.271-1.635 0-.916-.266-1.603-.267-.693-.788-1.076-.522-.389-1.289-.389-.8 0-1.332.41-.527.404-.794 1.103a4.4 4.4 0 0 0-.261 1.555q0 .874.267 1.587.271.709.799 1.13.532.415 1.321.415m9.38 1.129q-1.108 0-1.944-.527a3.6 3.6 0 0 1-1.3-1.475q-.463-.948-.463-2.216 0-1.28.463-2.232a3.57 3.57 0 0 1 1.3-1.481q.836-.528 1.944-.527 1.108 0 1.939.527.836.528 1.3 1.481.468.952.468 2.232 0 1.268-.468 2.216a3.53 3.53 0 0 1-1.3 1.475q-.83.528-1.939.527m0-1.129q.842 0 1.385-.431.543-.432.804-1.135t.261-1.523-.261-1.529a2.6 2.6 0 0 0-.804-1.145q-.543-.437-1.385-.437t-1.385.437-.804 1.145a4.4 4.4 0 0 0-.261 1.529q0 .82.261 1.523t.804 1.135q.543.43 1.385.431m12.253 1.151q-.778 0-1.412-.293a2.43 2.43 0 0 1-1.007-.858q-.372-.564-.373-1.363 0-.703.277-1.14.277-.442.741-.693a4 4 0 0 1 1.023-.373q.564-.127 1.134-.202.745-.096 1.209-.144.47-.053.682-.176.219-.121.219-.426v-.042q0-.788-.432-1.226-.426-.436-1.294-.436-.9 0-1.412.394t-.719.841l-1.193-.426q.32-.745.852-1.161a3.2 3.2 0 0 1 1.172-.586q.639-.17 1.257-.17.395 0 .906.096.516.09.996.378.485.287.804.868t.32 1.555V599h-1.257v-1.108h-.064a2.2 2.2 0 0 1-.426.57 2.5 2.5 0 0 1-.794.517q-.495.213-1.209.213m.191-1.13q.747 0 1.258-.292a2 2 0 0 0 1.044-1.732v-1.15q-.08.095-.352.176a6 6 0 0 1-.618.133q-.346.052-.676.096-.325.037-.528.064a4.8 4.8 0 0 0-.916.207q-.42.14-.682.421-.255.277-.255.756 0 .656.484.991.49.33 1.241.33m5.853.938v-8.182h1.215v1.236h.085a1.96 1.96 0 0 1 .81-.985q.585-.38 1.321-.379a12 12 0 0 1 .66.022v1.278a3 3 0 0 0-.293-.048 3 3 0 0 0-.474-.037q-.597 0-1.065.25a1.834 1.834 0 0 0-1.002 1.667V599zm7.989.192q-.778 0-1.412-.293a2.4 2.4 0 0 1-1.006-.858q-.373-.564-.373-1.363 0-.703.277-1.14.276-.442.74-.693a4 4 0 0 1 1.023-.373q.564-.127 1.134-.202a52 52 0 0 1 1.21-.144q.468-.053.681-.176.219-.121.219-.426v-.042q0-.788-.432-1.226-.426-.436-1.294-.436-.9 0-1.412.394t-.719.841l-1.193-.426q.32-.745.852-1.161.539-.421 1.172-.586.639-.17 1.257-.17.394 0 .906.096.516.09.996.378.485.287.804.868t.32 1.555V599h-1.257v-1.108h-.064a2.2 2.2 0 0 1-.426.57 2.5 2.5 0 0 1-.794.517q-.495.213-1.209.213m.192-1.13q.745 0 1.257-.292a2 2 0 0 0 1.044-1.732v-1.15q-.08.095-.352.176a6 6 0 0 1-.618.133q-.346.052-.676.096-.326.037-.528.064a4.8 4.8 0 0 0-.916.207q-.42.14-.682.421-.255.277-.255.756 0 .656.485.991.49.33 1.241.33m7.109-3.984V599h-1.257v-8.182h1.215v1.279h.106q.288-.624.874-1.002.586-.383 1.513-.383.83 0 1.454.341.623.335.969 1.022.347.682.347 1.726V599h-1.257v-5.114q0-.963-.501-1.502-.501-.543-1.374-.543-.602 0-1.076.261-.47.261-.741.762-.272.5-.272 1.214m10.607 5.092q-1.023 0-1.805-.516-.784-.522-1.226-1.47-.441-.954-.442-2.254 0-1.289.442-2.237t1.231-1.465q.788-.516 1.822-.516.798 0 1.262.266.468.261.714.597.25.33.389.543h.106v-4.027h1.257V599h-1.214v-1.257h-.149a8 8 0 0 1-.395.565q-.255.335-.729.601-.474.261-1.263.261m.171-1.129q.756 0 1.278-.394.522-.4.794-1.103.271-.708.271-1.635 0-.916-.266-1.603-.266-.693-.788-1.076-.522-.389-1.289-.389-.8 0-1.332.41-.527.404-.794 1.103a4.4 4.4 0 0 0-.261 1.555q0 .874.267 1.587.271.709.799 1.13.532.415 1.321.415m9.487 1.129q-1.183 0-2.041-.522a3.5 3.5 0 0 1-1.315-1.47q-.458-.948-.458-2.205t.458-2.216q.463-.964 1.289-1.502.83-.543 1.939-.543.64 0 1.262.213.624.213 1.135.692.511.474.815 1.257t.303 1.929v.532h-6.306v-1.086h5.028q0-.693-.277-1.236a2.1 2.1 0 0 0-.778-.858q-.501-.314-1.182-.314-.751 0-1.3.373a2.45 2.45 0 0 0-.836.959 2.8 2.8 0 0 0-.293 1.267v.725q0 .927.319 1.571.325.639.901.975.575.33 1.337.33.495 0 .894-.138.405-.144.698-.426.293-.288.453-.714l1.215.341a2.7 2.7 0 0 1-.645 1.086 3.14 3.14 0 0 1-1.119.725q-.665.255-1.496.255m6.557-11.079V599h-1.257v-10.909zm4.71 11.101q-.778 0-1.412-.293a2.4 2.4 0 0 1-1.006-.858q-.373-.564-.373-1.363 0-.703.277-1.14.276-.442.74-.693a4 4 0 0 1 1.023-.373q.564-.127 1.134-.202a52 52 0 0 1 1.21-.144q.468-.053.681-.176.219-.121.219-.426v-.042q0-.788-.432-1.226-.426-.436-1.294-.436-.9 0-1.412.394t-.719.841l-1.193-.426q.32-.745.852-1.161.539-.421 1.172-.586.639-.17 1.257-.17.395 0 .906.096.516.09.996.378.485.287.804.868t.32 1.555V599h-1.257v-1.108h-.064a2.2 2.2 0 0 1-.426.57 2.5 2.5 0 0 1-.794.517q-.495.213-1.209.213m.192-1.13q.745 0 1.257-.292a2 2 0 0 0 1.044-1.732v-1.15q-.08.095-.352.176a6 6 0 0 1-.618.133q-.346.052-.676.096-.325.037-.528.064a4.8 4.8 0 0 0-.916.207q-.42.14-.682.421-.255.277-.255.756 0 .656.485.991.49.33 1.241.33m10.881 4.006q-.32 0-.57-.053a1.5 1.5 0 0 1-.346-.096l.319-1.108q.458.117.81.085a.97.97 0 0 0 .623-.314q.277-.277.506-.9l.234-.639-3.025-8.225h1.364l2.258 6.52h.085l2.259-6.52h1.363l-3.473 9.375a3.5 3.5 0 0 1-.58 1.05 2.2 2.2 0 0 1-.805.623 2.5 2.5 0 0 1-1.022.202m11.758 0v-11.25h1.215v1.3h.149q.138-.213.384-.543.25-.336.713-.597.469-.266 1.268-.266 1.033 0 1.822.516.788.517 1.23 1.465t.442 2.237q0 1.3-.442 2.254-.442.948-1.225 1.47-.783.516-1.806.516-.788 0-1.262-.261a2.35 2.35 0 0 1-.73-.601 8 8 0 0 1-.394-.565h-.106v4.325zm1.236-7.159q0 .927.272 1.635.272.704.794 1.103.522.394 1.278.394.788 0 1.316-.415.532-.421.799-1.13a4.4 4.4 0 0 0 .271-1.587q0-.863-.266-1.555a2.4 2.4 0 0 0-.794-1.103q-.527-.41-1.326-.41-.767 0-1.289.389-.522.383-.788 1.076-.267.687-.267 1.603m11.335 4.261q-1.182 0-2.04-.522a3.5 3.5 0 0 1-1.315-1.47q-.459-.948-.458-2.205 0-1.257.458-2.216.463-.964 1.289-1.502.83-.543 1.939-.543.64 0 1.262.213.624.213 1.135.692.511.474.815 1.257t.303 1.929v.532h-6.307v-1.086h5.029q0-.693-.277-1.236a2.1 2.1 0 0 0-.778-.858q-.501-.314-1.182-.314-.751 0-1.3.373a2.45 2.45 0 0 0-.836.959 2.8 2.8 0 0 0-.293 1.267v.725q0 .927.319 1.571.326.639.9.975.576.33 1.337.33.496 0 .895-.138.405-.144.698-.426a1.95 1.95 0 0 0 .453-.714l1.214.341a2.7 2.7 0 0 1-.644 1.086 3.14 3.14 0 0 1-1.119.725 4.2 4.2 0 0 1-1.497.255m5.301-.17v-8.182h1.214v1.236h.085a1.96 1.96 0 0 1 .81-.985 2.4 2.4 0 0 1 1.321-.379 12 12 0 0 1 .66.022v1.278a3 3 0 0 0-.292-.048 3 3 0 0 0-.475-.037q-.595 0-1.065.25a1.833 1.833 0 0 0-1.001 1.667V599zm6.838-4.922V599h-1.257v-8.182h1.214v1.279h.107q.287-.624.873-1.002.586-.383 1.513-.383.831 0 1.454.341.624.335.97 1.022.346.682.346 1.726V599h-1.257v-5.114q0-.963-.501-1.502-.501-.543-1.374-.543-.602 0-1.076.261-.47.261-.741.762-.271.5-.271 1.214m10.841 5.092q-1.109 0-1.944-.527a3.6 3.6 0 0 1-1.3-1.475q-.463-.948-.463-2.216 0-1.28.463-2.232a3.57 3.57 0 0 1 1.3-1.481q.836-.528 1.944-.527 1.108 0 1.939.527.836.528 1.3 1.481.468.952.468 2.232 0 1.268-.468 2.216a3.53 3.53 0 0 1-1.3 1.475q-.83.528-1.939.527m0-1.129q.842 0 1.385-.431.543-.432.804-1.135t.261-1.523-.261-1.529a2.6 2.6 0 0 0-.804-1.145q-.543-.437-1.385-.437t-1.385.437-.804 1.145a4.4 4.4 0 0 0-.261 1.529q0 .82.261 1.523t.804 1.135q.543.43 1.385.431m8.135-3.643q0 2.013-.527 3.707a11.4 11.4 0 0 1-1.497 3.111h-1.108q.384-.528.714-1.3.336-.767.586-1.683.25-.921.389-1.902.143-.985.143-1.933 0-1.268-.245-2.573a15 15 0 0 0-.66-2.424q-.415-1.118-.927-1.821h1.108q.975 1.421 1.497 3.116.527 1.688.527 3.702"/><path stroke="#000" d="M498.5 95v8"/><path fill="#000" d="M499.146 98.647a.5.5 0 0 0 0 .707l3.182 3.182a.502.502 0 0 0 .708-.708L500.207 99l2.829-2.828a.5.5 0 0 0-.708-.707zm108.208.707a.5.5 0 0 0 0-.707l-3.182-3.183a.501.501 0 0 0-.708.708L606.293 99l-2.829 2.828a.502.502 0 0 0 .708.708zM499.5 99v.5H607v-1H499.5z"/><path stroke="#000" d="M608 95v8"/><path fill="#000" d="M475.754 75V64.09h3.686q1.284 0 2.099.464.82.459 1.214 1.242.395.782.395 1.747 0 .963-.395 1.752-.388.789-1.203 1.257-.816.465-2.088.464h-2.643v-1.172h2.6q.879 0 1.411-.304.534-.303.773-.82.245-.522.245-1.177 0-.656-.245-1.172a1.75 1.75 0 0 0-.778-.81q-.538-.298-1.427-.298h-2.323V75zm9.351 0v-8.182h1.215v1.236h.085q.223-.607.81-.986a2.4 2.4 0 0 1 1.321-.378q.138 0 .346.006a5 5 0 0 1 .314.016v1.278a4 4 0 0 0-.293-.048 3 3 0 0 0-.474-.037q-.597 0-1.065.25-.463.244-.735.682a1.83 1.83 0 0 0-.267.985V75zm8.656.17q-1.108 0-1.944-.527-.83-.528-1.3-1.475-.463-.949-.463-2.216 0-1.279.463-2.232.47-.954 1.3-1.481.836-.528 1.944-.527 1.108 0 1.939.527.837.528 1.3 1.48.468.954.468 2.233 0 1.268-.468 2.216a3.53 3.53 0 0 1-1.3 1.475q-.83.528-1.939.528m0-1.129q.842 0 1.385-.431.543-.432.804-1.135t.261-1.523-.261-1.53a2.6 2.6 0 0 0-.804-1.144q-.543-.437-1.385-.437t-1.385.437-.804 1.145a4.4 4.4 0 0 0-.261 1.529q0 .82.261 1.523t.804 1.135q.543.43 1.385.431m9.27-7.223v1.066h-4.411v-1.066zM499.941 75v-9.311q0-.704.331-1.172.33-.468.857-.703a2.7 2.7 0 0 1 1.113-.234q.464 0 .757.074.293.075.437.139l-.363 1.086a6 6 0 0 0-.266-.08 1.6 1.6 0 0 0-.437-.048q-.622 0-.9.315-.272.314-.272.921V75zm10.008-3.345v-4.837h1.257V75h-1.257v-1.385h-.085q-.288.624-.895 1.06-.607.431-1.534.431-.767 0-1.364-.335-.597-.34-.937-1.023-.341-.687-.341-1.731v-5.199h1.257v5.114q0 .894.5 1.427.507.533 1.29.533.468 0 .953-.24.49-.24.82-.735.336-.495.336-1.262m4.817-1.577V75h-1.258v-8.182h1.215v1.279h.107q.287-.624.873-1.002.586-.383 1.513-.383.831 0 1.454.34.624.336.97 1.023.346.682.346 1.726V75h-1.257v-5.114q0-.963-.501-1.502-.501-.543-1.374-.543-.602 0-1.076.26-.47.262-.741.763-.271.5-.271 1.214m10.606 5.093q-1.022 0-1.805-.517-.783-.522-1.226-1.47-.441-.954-.442-2.254 0-1.289.442-2.237t1.231-1.465 1.822-.516q.798 0 1.262.266.47.261.714.597.25.33.389.543h.106V64.09h1.257V75h-1.214v-1.257h-.149q-.14.223-.394.565a2.35 2.35 0 0 1-.73.601q-.474.261-1.263.261m.171-1.13q.756 0 1.278-.394.522-.4.794-1.103.272-.708.272-1.635 0-.916-.267-1.603-.266-.692-.788-1.076-.522-.39-1.289-.39-.8 0-1.332.411-.527.404-.794 1.103-.261.692-.261 1.555a4.5 4.5 0 0 0 .267 1.587q.271.71.799 1.13.532.415 1.321.415m6.056.959v-8.182h1.257V75zm.64-9.546a.9.9 0 0 1-.634-.25.8.8 0 0 1-.261-.602q0-.351.261-.602a.9.9 0 0 1 .634-.25q.367 0 .628.25a.8.8 0 0 1 .266.602.8.8 0 0 1-.266.602.87.87 0 0 1-.628.25m6.009 9.717q-1.022 0-1.805-.517-.783-.522-1.226-1.47-.442-.954-.442-2.254 0-1.289.442-2.237t1.231-1.465 1.822-.516q.798 0 1.262.266.47.261.714.597.25.33.389.543h.106V64.09h1.257V75h-1.214v-1.257h-.149q-.14.223-.394.565a2.35 2.35 0 0 1-.73.601q-.474.261-1.263.261m.171-1.13q.756 0 1.278-.394.522-.4.794-1.103.272-.708.272-1.635 0-.916-.267-1.603-.266-.692-.788-1.076-.522-.39-1.289-.39-.8 0-1.332.411-.527.404-.794 1.103-.261.692-.261 1.555a4.5 4.5 0 0 0 .267 1.587q.271.71.799 1.13.532.415 1.321.415m8.464 1.15q-.778 0-1.412-.292a2.4 2.4 0 0 1-1.006-.858q-.373-.564-.373-1.363 0-.705.277-1.14.276-.442.74-.693t1.023-.373q.564-.127 1.134-.202.747-.096 1.21-.144.468-.053.681-.176.219-.121.219-.426v-.043q0-.787-.432-1.225-.426-.436-1.294-.436-.9 0-1.412.394-.51.394-.719.841l-1.193-.426q.32-.745.852-1.161.539-.42 1.172-.586.639-.17 1.257-.17.395 0 .906.096.516.09.996.378.485.286.804.868.32.581.32 1.555V75h-1.257v-1.108h-.064a2.2 2.2 0 0 1-.426.57 2.5 2.5 0 0 1-.794.517q-.495.213-1.209.213m.192-1.129q.745 0 1.257-.293a2 2 0 0 0 1.044-1.73v-1.151q-.08.095-.352.176-.266.075-.618.133a28 28 0 0 1-1.203.16 5 5 0 0 0-.917.207 1.6 1.6 0 0 0-.681.421q-.256.277-.256.757 0 .654.485.99.49.33 1.241.33m8.942 1.109q-1.023 0-1.806-.517-.783-.522-1.225-1.47-.442-.954-.442-2.254 0-1.289.442-2.237t1.23-1.465 1.822-.516q.8 0 1.263.266.468.261.713.597.25.33.389.543h.107V64.09h1.257V75h-1.215v-1.257h-.149q-.138.223-.394.565-.255.335-.73.601-.474.261-1.262.261m.17-1.13q.757 0 1.279-.394.522-.4.793-1.103.273-.708.272-1.635 0-.916-.266-1.603-.267-.692-.789-1.076-.522-.39-1.289-.39-.798 0-1.331.411-.527.404-.794 1.103-.261.692-.261 1.555 0 .874.266 1.587a2.6 2.6 0 0 0 .799 1.13q.533.415 1.321.415m6.973 1.044a.92.92 0 0 1-.676-.282.92.92 0 0 1-.283-.677.92.92 0 0 1 .283-.676.92.92 0 0 1 .676-.282q.394 0 .677.282a.92.92 0 0 1 .282.676.9.9 0 0 1-.133.48 1 1 0 0 1-.347.351.9.9 0 0 1-.479.128m0-6.072a.92.92 0 0 1-.676-.282.92.92 0 0 1-.283-.677.92.92 0 0 1 .283-.677.92.92 0 0 1 .676-.282q.394 0 .677.282a.92.92 0 0 1 .282.677.9.9 0 0 1-.133.48 1 1 0 0 1-.347.35.9.9 0 0 1-.479.129m7.156 3.75v-1.087l4.794-7.585h.789v1.683h-.533l-3.622 5.732v.085h6.456v1.172zM575.451 75V64.091h1.257V75zm8.303.15q-1.204-.001-2.05-.656-.847-.66-1.295-1.912-.447-1.257-.447-3.036 0-1.77.447-3.02.453-1.258 1.3-1.918.852-.666 2.045-.666t2.041.666q.852.66 1.299 1.917.453 1.252.453 3.02 0 1.78-.447 3.037-.448 1.251-1.295 1.912-.846.655-2.051.655m0-1.173q1.194 0 1.854-1.15t.661-3.281q0-1.418-.304-2.414-.299-.996-.863-1.518a1.9 1.9 0 0 0-1.348-.522q-1.182 0-1.848 1.167-.666 1.161-.666 3.287 0 1.416.298 2.407.298.99.858 1.508.565.516 1.358.516m6.374 1.108a.93.93 0 0 1-.677-.282.92.92 0 0 1-.282-.677q0-.393.282-.676a.93.93 0 0 1 .677-.282q.394 0 .676.282a.92.92 0 0 1 .283.676.9.9 0 0 1-.134.48 1 1 0 0 1-.346.351.9.9 0 0 1-.479.128m3.193-.085v-.959l3.601-3.942q.634-.691 1.044-1.203.41-.517.607-.97.203-.458.203-.959 0-.575-.277-.996a1.8 1.8 0 0 0-.746-.65 2.4 2.4 0 0 0-1.065-.229q-.628 0-1.098.261a1.8 1.8 0 0 0-.719.72q-.25.462-.25 1.086h-1.257q0-.96.442-1.683.442-.725 1.204-1.13a3.6 3.6 0 0 1 1.72-.404q.959 0 1.699.405t1.162 1.092q.42.687.42 1.528 0 .603-.218 1.177-.213.57-.746 1.274a23 23 0 0 1-1.464 1.704l-2.451 2.62v.086h5.071V75zm13.322 0v-8.182h1.215v1.279h.106a2.06 2.06 0 0 1 .826-1.018q.57-.367 1.369-.367.81 0 1.348.367a2.4 2.4 0 0 1 .846 1.018h.086q.313-.635.943-1.007.628-.378 1.507-.378 1.098 0 1.795.687.698.681.698 2.125V75h-1.257v-5.476q0-.905-.496-1.294a1.83 1.83 0 0 0-1.166-.39q-.863 0-1.337.523-.474.516-.474 1.31V75h-1.279v-5.604q0-.698-.452-1.124-.453-.43-1.167-.431-.49 0-.916.26a1.97 1.97 0 0 0-.682.725q-.255.46-.256 1.06V75zm13.037 0v-8.182h1.215v1.279h.106a2.06 2.06 0 0 1 .826-1.018q.57-.367 1.369-.367.81 0 1.348.367.543.362.847 1.018h.085q.314-.635.943-1.007.628-.378 1.507-.378 1.098 0 1.795.687.698.681.698 2.125V75h-1.257v-5.476q0-.905-.495-1.294a1.84 1.84 0 0 0-1.167-.39q-.863 0-1.337.523-.474.516-.474 1.31V75h-1.279v-5.604q0-.698-.452-1.124-.453-.43-1.167-.431-.49 0-.916.26a1.97 1.97 0 0 0-.682.725q-.255.46-.256 1.06V75zM240.145 75h-1.385l4.006-10.91h1.364L248.135 75h-1.384l-3.26-9.183h-.086zm.512-4.261h5.582v1.171h-5.582zm10.264-.66V75h-1.257v-8.182h1.215v1.279h.106q.288-.624.874-1.002.585-.383 1.513-.383.83 0 1.454.34.623.336.969 1.023.347.682.347 1.726V75h-1.258v-5.114q0-.963-.5-1.502-.5-.543-1.375-.543-.602 0-1.076.26a1.87 1.87 0 0 0-.74.763q-.272.5-.272 1.214m10.842 5.092q-1.151 0-1.982-.544a3.54 3.54 0 0 1-1.278-1.497q-.448-.953-.448-2.178 0-1.247.458-2.2.464-.96 1.289-1.497.832-.543 1.939-.543.863 0 1.556.32.692.318 1.134.894.443.576.549 1.343h-1.257q-.144-.56-.639-.991-.491-.437-1.321-.437-.736 0-1.29.383-.548.38-.857 1.071-.304.687-.304 1.614 0 .949.299 1.651.303.704.852 1.092.553.39 1.3.39.49 0 .889-.171.4-.17.677-.49.276-.32.394-.767h1.257a2.9 2.9 0 0 1-.527 1.305 2.95 2.95 0 0 1-1.103.916q-.682.336-1.587.336m6.312-5.093V75h-1.257V64.09h1.257v4.007h.106q.288-.635.863-1.007.58-.378 1.545-.378.836 0 1.465.335.629.33.974 1.018.352.681.352 1.736V75h-1.257v-5.114q0-.975-.506-1.507-.5-.538-1.39-.538-.618 0-1.108.26a1.9 1.9 0 0 0-.767.763q-.277.5-.277 1.214m10.929 5.093q-1.108 0-1.945-.528a3.6 3.6 0 0 1-1.299-1.475q-.464-.949-.464-2.216 0-1.279.464-2.232.469-.954 1.299-1.481.837-.528 1.945-.527 1.107 0 1.939.527.836.528 1.299 1.48.47.954.469 2.233 0 1.268-.469 2.216a3.54 3.54 0 0 1-1.299 1.475q-.832.528-1.939.528m0-1.13q.841 0 1.385-.431.543-.432.804-1.135t.261-1.523-.261-1.53a2.6 2.6 0 0 0-.804-1.144q-.544-.437-1.385-.437-.842 0-1.385.437a2.6 2.6 0 0 0-.805 1.145 4.4 4.4 0 0 0-.261 1.529q0 .82.261 1.523t.805 1.135q.543.43 1.385.431m6.542 1.044a.92.92 0 0 1-.676-.282.92.92 0 0 1-.283-.677q0-.393.283-.676a.92.92 0 0 1 .676-.282q.395 0 .677.282a.92.92 0 0 1 .282.676.997.997 0 0 1-.479.831.9.9 0 0 1-.48.128m0-6.072a.92.92 0 0 1-.676-.282.92.92 0 0 1-.283-.677q0-.394.283-.677a.92.92 0 0 1 .676-.282q.395 0 .677.282a.92.92 0 0 1 .282.677.996.996 0 0 1-.479.83.9.9 0 0 1-.48.129m10.821 6.136a3.74 3.74 0 0 1-1.688-.373 3.14 3.14 0 0 1-1.204-1.022 2.8 2.8 0 0 1-.495-1.481h1.278q.075.74.671 1.225.603.48 1.438.48a2.27 2.27 0 0 0 1.194-.315q.526-.314.825-.863.304-.555.304-1.252 0-.714-.314-1.273a2.3 2.3 0 0 0-.853-.89 2.4 2.4 0 0 0-1.241-.33 3.4 3.4 0 0 0-1.028.155 2.9 2.9 0 0 0-.868.4l-1.236-.15.661-5.37h5.667v1.173h-4.559l-.384 3.217h.064q.335-.266.842-.442a3.2 3.2 0 0 1 1.054-.176q1.002 0 1.785.48.788.474 1.236 1.3.452.825.452 1.885 0 1.044-.468 1.864a3.43 3.43 0 0 1-1.279 1.29q-.814.468-1.854.468m9.276 0q-1.205 0-2.051-.655-.847-.66-1.295-1.912-.447-1.257-.447-3.036 0-1.77.447-3.02.453-1.258 1.3-1.918.852-.666 2.046-.666t2.04.666q.852.66 1.299 1.917.453 1.252.453 3.02 0 1.78-.447 3.037-.448 1.251-1.295 1.912-.846.655-2.05.655m0-1.172q1.193 0 1.853-1.15.661-1.15.661-3.281 0-1.418-.304-2.414-.298-.996-.863-1.518a1.9 1.9 0 0 0-1.347-.522q-1.183 0-1.849 1.167-.666 1.161-.666 3.287 0 1.416.299 2.407.298.99.857 1.508.565.516 1.359.516M315.699 75v-8.182h1.215v1.279h.106a2.06 2.06 0 0 1 .826-1.018q.57-.367 1.369-.367.81 0 1.348.367.543.362.847 1.018h.085q.314-.635.943-1.007.628-.378 1.507-.378 1.098 0 1.795.687.698.681.698 2.125V75h-1.257v-5.476q0-.905-.495-1.294a1.84 1.84 0 0 0-1.167-.39q-.863 0-1.337.523-.474.516-.474 1.31V75h-1.278v-5.604q0-.698-.453-1.124-.453-.43-1.167-.431-.49 0-.916.26a1.97 1.97 0 0 0-.682.725q-.255.46-.256 1.06V75zm13.038 0v-8.182h1.214v1.279h.107q.255-.655.825-1.018.57-.367 1.369-.367.81 0 1.348.367.543.362.847 1.018h.085q.314-.635.943-1.007.628-.378 1.507-.378 1.098 0 1.795.687.699.681.698 2.125V75h-1.257v-5.476q0-.905-.495-1.294a1.84 1.84 0 0 0-1.167-.39q-.863 0-1.337.523-.474.516-.474 1.31V75h-1.278v-5.604q0-.698-.453-1.124-.453-.43-1.167-.431-.49 0-.916.26-.42.262-.682.725-.255.46-.255 1.06V75zM752.253 88h-1.385l4.006-10.91h1.363L760.243 88h-1.385l-3.26-9.183h-.085zm.511-4.261h5.583v1.171h-5.583zm10.265-.66V88h-1.257v-8.182h1.214v1.279h.107q.287-.624.873-1.002.586-.383 1.513-.383.831 0 1.454.34.624.336.97 1.023.346.682.346 1.726V88h-1.257v-5.114q0-.963-.501-1.502-.501-.543-1.374-.543-.602 0-1.076.26a1.87 1.87 0 0 0-.741.763q-.271.5-.271 1.214m10.841 5.092q-1.15 0-1.982-.544a3.54 3.54 0 0 1-1.278-1.497q-.447-.953-.447-2.178 0-1.247.458-2.2.463-.96 1.289-1.497.83-.543 1.939-.543a3.7 3.7 0 0 1 1.555.32q.693.318 1.135.894.441.576.548 1.343h-1.257q-.144-.56-.639-.991-.49-.437-1.321-.437-.735 0-1.289.383-.549.38-.858 1.071-.303.687-.303 1.614 0 .949.298 1.651.303.704.852 1.092.555.39 1.3.39.49 0 .889-.171.4-.17.677-.49t.394-.767h1.257a2.9 2.9 0 0 1-.527 1.305 2.95 2.95 0 0 1-1.103.916q-.681.336-1.587.336m6.312-5.093V88h-1.257V77.09h1.257v4.007h.107q.287-.635.863-1.007.58-.378 1.544-.378.837 0 1.465.335.629.33.975 1.018.351.681.351 1.736V88h-1.257v-5.114q0-.975-.506-1.507-.5-.538-1.39-.538a2.3 2.3 0 0 0-1.108.26 1.9 1.9 0 0 0-.767.763q-.277.5-.277 1.214m10.929 5.093q-1.108 0-1.944-.528-.83-.528-1.3-1.475-.463-.949-.463-2.216 0-1.279.463-2.232.47-.954 1.3-1.481.836-.528 1.944-.527 1.108 0 1.939.527.837.528 1.3 1.48.469.954.469 2.233 0 1.268-.469 2.216a3.53 3.53 0 0 1-1.3 1.475q-.83.528-1.939.528m0-1.13q.842 0 1.385-.431.543-.432.804-1.135t.261-1.523-.261-1.53a2.6 2.6 0 0 0-.804-1.144q-.543-.437-1.385-.437t-1.385.437-.804 1.145a4.4 4.4 0 0 0-.261 1.529q0 .82.261 1.523t.804 1.135q.543.43 1.385.431m6.543 1.044a.92.92 0 0 1-.677-.282.92.92 0 0 1-.282-.677q0-.393.282-.676a.92.92 0 0 1 .677-.282q.394 0 .676.282a.92.92 0 0 1 .282.676.9.9 0 0 1-.133.48 1 1 0 0 1-.346.351.9.9 0 0 1-.479.128m0-6.072a.92.92 0 0 1-.677-.282.92.92 0 0 1-.282-.677q0-.394.282-.677a.92.92 0 0 1 .677-.282q.394 0 .676.282a.92.92 0 0 1 .282.677.9.9 0 0 1-.133.48 1 1 0 0 1-.346.35.9.9 0 0 1-.479.129m7.156 3.75v-1.087l4.794-7.585h.788v1.683h-.532l-3.622 5.732v.085h6.456v1.172zM809.945 88V77.091h1.257V88zm8.434-10.91V88h-1.321v-9.524h-.064l-2.664 1.768v-1.342l2.728-1.811zm3.43 10.995a.93.93 0 0 1-.677-.282.92.92 0 0 1-.282-.677q0-.393.282-.676a.93.93 0 0 1 .677-.282q.394 0 .676.282a.92.92 0 0 1 .283.676.9.9 0 0 1-.133.48 1 1 0 0 1-.347.351.9.9 0 0 1-.479.128m3.314-.085 4.88-9.652v-.085h-5.625V77.09h6.988v1.236L826.508 88zm12.469 0v-8.182h1.214v1.279h.107q.255-.655.826-1.018.57-.367 1.369-.367.81 0 1.347.367.543.362.847 1.018h.085q.315-.635.943-1.007.629-.378 1.508-.378 1.097 0 1.795.687.698.681.698 2.125V88h-1.257v-5.476q0-.905-.496-1.294a1.83 1.83 0 0 0-1.166-.39q-.864 0-1.337.523-.475.516-.475 1.31V88h-1.278v-5.604q0-.698-.453-1.124-.453-.43-1.166-.431-.49 0-.916.26a1.97 1.97 0 0 0-.682.725 2.13 2.13 0 0 0-.256 1.06V88zm13.037 0v-8.182h1.215v1.279h.106a2.06 2.06 0 0 1 .826-1.018q.57-.367 1.369-.367.81 0 1.347.367.544.362.847 1.018h.086q.313-.635.942-1.007.629-.378 1.508-.378 1.097 0 1.795.687.698.681.698 2.125V88h-1.257v-5.476q0-.905-.496-1.294a1.83 1.83 0 0 0-1.166-.39q-.864 0-1.337.523-.474.516-.474 1.31V88h-1.279v-5.604q0-.698-.453-1.124-.452-.43-1.166-.431-.49 0-.916.26a1.97 1.97 0 0 0-.682.725 2.13 2.13 0 0 0-.256 1.06V88zM66.263 338h-1.385l4.006-10.909h1.364L74.253 338h-1.385l-3.26-9.183h-.085zm.511-4.261h5.583v1.172h-5.582zm10.265-6.648V338h-1.257v-10.909zm5.86 2.727v1.066h-4.24v-1.066zm-3.004-1.96h1.258v7.798q0 .533.154.799a.8.8 0 0 0 .405.352q.25.085.527.085.208 0 .341-.021l.213-.043.256 1.129a3 3 0 0 1-.357.096 2.6 2.6 0 0 1-.58.054q-.534 0-1.045-.23a2.07 2.07 0 0 1-.841-.697q-.33-.47-.33-1.183zm10.052 6.797v-4.837h1.257V338h-1.257v-1.385h-.085q-.288.624-.895 1.06-.607.432-1.534.432a2.73 2.73 0 0 1-1.364-.336q-.597-.34-.937-1.023-.341-.687-.341-1.731v-5.199h1.257v5.114q0 .894.5 1.427.507.533 1.29.533.468 0 .953-.24.49-.238.82-.735.336-.495.336-1.262m3.56 3.345v-8.182h1.214v1.236h.085q.225-.607.81-.985.585-.38 1.32-.379a12 12 0 0 1 .661.022v1.278a3 3 0 0 0-.292-.048 3 3 0 0 0-.475-.037q-.596 0-1.065.25a1.9 1.9 0 0 0-.735.682 1.84 1.84 0 0 0-.266.985V338zm7.988.192q-.777 0-1.411-.293a2.4 2.4 0 0 1-1.007-.858q-.373-.565-.373-1.363 0-.703.277-1.14.277-.442.74-.693a3.9 3.9 0 0 1 1.023-.373 13 13 0 0 1 1.135-.202q.746-.096 1.209-.144.469-.053.682-.176.218-.122.218-.426v-.042q0-.789-.431-1.226-.426-.436-1.295-.436-.9 0-1.411.394-.512.394-.719.841l-1.194-.426q.32-.745.853-1.161.537-.421 1.172-.586.639-.17 1.257-.17.393 0 .905.096.517.09.996.378.485.287.805.868t.319 1.555V338h-1.257v-1.108h-.064a2.2 2.2 0 0 1-.426.57 2.5 2.5 0 0 1-.794.517q-.495.213-1.209.213m.192-1.13q.745 0 1.257-.292a2 2 0 0 0 1.044-1.732v-1.15q-.08.096-.351.176a6 6 0 0 1-.618.133q-.347.053-.677.096a24 24 0 0 0-.527.064 4.7 4.7 0 0 0-.916.207 1.6 1.6 0 0 0-.682.421q-.256.278-.256.756 0 .656.485.991.49.33 1.241.33m6.769 1.023a.93.93 0 0 1-.677-.282.92.92 0 0 1-.282-.677q0-.394.282-.676a.93.93 0 0 1 .677-.282q.394 0 .676.282a.92.92 0 0 1 .283.676.9.9 0 0 1-.133.48 1 1 0 0 1-.347.351.9.9 0 0 1-.479.128m0-6.072a.92.92 0 0 1-.677-.283.92.92 0 0 1-.282-.676q0-.394.282-.677a.93.93 0 0 1 .677-.282q.394 0 .676.282a.92.92 0 0 1 .283.677.9.9 0 0 1-.133.479 1 1 0 0 1-.347.352.9.9 0 0 1-.479.128m11.247-4.922V338h-1.321v-9.524h-.064l-2.663 1.768v-1.342l2.727-1.811zm6.547 11.058q-.937 0-1.689-.373a3.14 3.14 0 0 1-1.204-1.022 2.8 2.8 0 0 1-.495-1.481h1.278q.075.74.672 1.225.601.479 1.438.479.67 0 1.193-.314.528-.314.826-.863.303-.554.303-1.252 0-.714-.314-1.273a2.3 2.3 0 0 0-.852-.889 2.4 2.4 0 0 0-1.241-.331 3.4 3.4 0 0 0-1.029.155 2.9 2.9 0 0 0-.868.399l-1.236-.149.661-5.369h5.668v1.172h-4.56l-.384 3.217h.064q.336-.266.842-.442a3.2 3.2 0 0 1 1.055-.176q1 0 1.784.48.789.474 1.236 1.299.453.826.453 1.886 0 1.044-.469 1.864a3.4 3.4 0 0 1-1.279 1.289q-.815.47-1.853.469m9.275 0q-1.204 0-2.051-.655-.847-.66-1.294-1.912-.448-1.257-.448-3.037 0-1.768.448-3.02.453-1.257 1.299-1.917.853-.666 2.046-.666t2.04.666q.852.66 1.3 1.917.453 1.252.453 3.02 0 1.78-.448 3.037-.447 1.251-1.294 1.912-.848.655-2.051.655m0-1.172q1.192 0 1.854-1.15.66-1.15.66-3.282 0-1.416-.304-2.413-.298-.996-.862-1.518a1.9 1.9 0 0 0-1.348-.522q-1.183 0-1.848 1.167-.666 1.162-.666 3.286 0 1.418.298 2.408.299.991.858 1.508.564.516 1.358.516M145.582 338v-8.182h1.214v1.279h.107q.255-.655.825-1.018.57-.367 1.369-.367.81 0 1.348.367.543.363.847 1.018h.085q.315-.635.943-1.007.629-.378 1.507-.378 1.098 0 1.796.687.697.682.697 2.125V338h-1.257v-5.476q0-.906-.495-1.294a1.84 1.84 0 0 0-1.167-.389q-.863 0-1.337.522-.474.516-.474 1.31V338h-1.278v-5.604q0-.698-.453-1.124-.453-.43-1.166-.431-.49 0-.917.261-.42.26-.681.724a2.13 2.13 0 0 0-.256 1.06V338zm13.037 0v-8.182h1.214v1.279h.107a2.06 2.06 0 0 1 .825-1.018q.57-.367 1.369-.367.81 0 1.348.367.543.363.847 1.018h.085q.315-.635.943-1.007.629-.378 1.508-.378 1.096 0 1.795.687.697.682.697 2.125V338H168.1v-5.476q0-.906-.495-1.294a1.84 1.84 0 0 0-1.167-.389q-.863 0-1.337.522-.474.516-.474 1.31V338h-1.278v-5.604q0-.698-.453-1.124-.453-.43-1.166-.431-.49 0-.917.261-.42.26-.681.724a2.13 2.13 0 0 0-.256 1.06V338zM916.149 338h-1.385l4.006-10.909h1.364L924.139 338h-1.385l-3.26-9.183h-.085zm.512-4.261h5.582v1.172h-5.582zm10.264-6.648V338h-1.257v-10.909zm5.861 2.727v1.066h-4.24v-1.066zm-3.004-1.96h1.257v7.798q0 .533.154.799a.8.8 0 0 0 .405.352q.25.085.527.085.209 0 .341-.021l.213-.043.256 1.129a2.5 2.5 0 0 1-.357.096 2.6 2.6 0 0 1-.58.054 2.5 2.5 0 0 1-1.044-.23 2.07 2.07 0 0 1-.842-.697q-.33-.47-.33-1.183zm10.051 6.797v-4.837h1.257V338h-1.257v-1.385h-.085a2.7 2.7 0 0 1-.895 1.06q-.607.432-1.534.432-.767 0-1.364-.336-.596-.34-.937-1.023-.34-.687-.341-1.731v-5.199h1.257v5.114q0 .894.501 1.427.506.533 1.289.533.468 0 .953-.24.49-.238.821-.735.335-.495.335-1.262m3.56 3.345v-8.182h1.214v1.236h.085q.225-.607.81-.985a2.4 2.4 0 0 1 1.321-.379 12 12 0 0 1 .661.022v1.278a4 4 0 0 0-.293-.048 3 3 0 0 0-.474-.037q-.597 0-1.066.25a1.9 1.9 0 0 0-.735.682 1.84 1.84 0 0 0-.266.985V338zm7.988.192q-.778 0-1.411-.293a2.4 2.4 0 0 1-1.007-.858q-.373-.565-.373-1.363 0-.703.277-1.14.278-.442.741-.693.464-.25 1.022-.373a13 13 0 0 1 1.135-.202q.746-.096 1.209-.144.47-.053.682-.176.219-.122.218-.426v-.042q0-.789-.431-1.226-.427-.436-1.294-.436-.901 0-1.412.394-.512.394-.719.841l-1.193-.426q.32-.745.852-1.161a3.2 3.2 0 0 1 1.172-.586q.639-.17 1.257-.17.395 0 .905.096.517.09.997.378.485.287.804.868t.319 1.555V338h-1.257v-1.108h-.064a2.2 2.2 0 0 1-.426.57 2.5 2.5 0 0 1-.793.517q-.496.213-1.21.213m.192-1.13q.746 0 1.257-.292a2 2 0 0 0 1.044-1.732v-1.15q-.08.096-.351.176a6 6 0 0 1-.618.133 34 34 0 0 1-.677.096 24 24 0 0 0-.527.064 4.7 4.7 0 0 0-.916.207 1.6 1.6 0 0 0-.682.421q-.255.278-.256.756 0 .656.485.991.49.33 1.241.33m6.769 1.023a.92.92 0 0 1-.676-.282.92.92 0 0 1-.283-.677.92.92 0 0 1 .283-.676.92.92 0 0 1 .676-.282q.394 0 .677.282a.92.92 0 0 1 .282.676.994.994 0 0 1-.479.831.9.9 0 0 1-.48.128m0-6.072a.92.92 0 0 1-.676-.283.92.92 0 0 1-.283-.676q0-.394.283-.677a.92.92 0 0 1 .676-.282q.394 0 .677.282a.93.93 0 0 1 .282.677.9.9 0 0 1-.133.479 1 1 0 0 1-.346.352.9.9 0 0 1-.48.128m11.247-4.922V338h-1.321v-9.524h-.063l-2.664 1.768v-1.342l2.727-1.811zm2.882 8.672v-1.087l4.794-7.585h.789v1.683h-.533l-3.622 5.732v.085h6.456v1.172zm5.135 2.237v-10.909h1.257V338zm8.303.149q-1.203 0-2.051-.655-.846-.66-1.294-1.912-.447-1.257-.447-3.037 0-1.768.447-3.02.453-1.257 1.3-1.917.852-.666 2.045-.666t2.04.666q.852.66 1.3 1.917.453 1.252.453 3.02 0 1.78-.448 3.037-.447 1.251-1.294 1.912-.847.655-2.051.655m0-1.172q1.194 0 1.854-1.15t.66-3.282q0-1.416-.303-2.413-.299-.996-.863-1.518a1.9 1.9 0 0 0-1.348-.522q-1.182 0-1.848 1.167-.666 1.162-.666 3.286 0 1.418.298 2.408.299.991.858 1.508.564.516 1.358.516m6.374 1.108a.92.92 0 0 1-.677-.282.92.92 0 0 1-.282-.677q0-.394.282-.676a.92.92 0 0 1 .677-.282q.394 0 .676.282a.92.92 0 0 1 .282.676.9.9 0 0 1-.133.48 1 1 0 0 1-.346.351.9.9 0 0 1-.479.128m6.434.064a4 4 0 0 1-1.342-.256 3.2 3.2 0 0 1-1.225-.825q-.555-.586-.89-1.582-.336-1.002-.335-2.514 0-1.449.271-2.568.272-1.123.789-1.891.517-.772 1.246-1.172a3.4 3.4 0 0 1 1.657-.399q.914 0 1.632.367.72.363 1.17 1.012c.3.434.5.933.59 1.497h-1.3c-.12-.49-.36-.896-.71-1.22q-.519-.484-1.382-.484-1.267 0-1.998 1.102-.724 1.103-.73 3.095h.086a3.2 3.2 0 0 1 1.624-1.273 3.2 3.2 0 0 1 1.06-.176q.939 0 1.72.469c.51.309.93.737 1.24 1.284.31.543.47 1.166.47 1.869q0 1.012-.45 1.854c-.3.558-.73 1.001-1.28 1.332q-.81.49-1.913.479m0-1.172q.672 0 1.204-.335c.359-.224.639-.524.849-.901.21-.376.31-.795.31-1.257q0-.676-.3-1.23a2.37 2.37 0 0 0-.827-.89 2.2 2.2 0 0 0-1.193-.33q-.507 0-.943.203a2.4 2.4 0 0 0-.767.543 2.6 2.6 0 0 0-.511.794 2.517 2.517 0 0 0 .958 3.057q.539.346 1.22.346M1008.7 338v-8.182h1.21v1.279h.11c.17-.437.44-.776.82-1.018.38-.245.84-.367 1.37-.367q.81 0 1.35.367c.36.242.64.581.85 1.018h.08c.21-.423.52-.759.94-1.007.42-.252.93-.378 1.51-.378q1.095 0 1.8.687.69.682.69 2.125V338h-1.25v-5.476c0-.604-.17-1.035-.5-1.294a1.83 1.83 0 0 0-1.16-.389c-.58 0-1.03.174-1.34.522q-.48.516-.48 1.31V338h-1.27v-5.604c0-.465-.16-.84-.46-1.124-.3-.287-.69-.431-1.16-.431-.33 0-.64.087-.92.261s-.51.415-.68.724c-.17.306-.26.659-.26 1.06V338zm13.03 0v-8.182h1.22v1.279h.1c.17-.437.45-.776.83-1.018.38-.245.84-.367 1.37-.367q.81 0 1.35.367.54.363.84 1.018h.09c.21-.423.52-.759.94-1.007.42-.252.92-.378 1.51-.378.73 0 1.33.229 1.79.687.47.454.7 1.163.7 2.125V338h-1.26v-5.476c0-.604-.16-1.035-.49-1.294a1.84 1.84 0 0 0-1.17-.389c-.57 0-1.02.174-1.33.522q-.48.516-.48 1.31V338h-1.28v-5.604q0-.698-.45-1.124-.45-.43-1.17-.431c-.32 0-.63.087-.91.261s-.51.415-.68.724c-.18.306-.26.659-.26 1.06V338zM249.321 583v-10.909h3.686q1.284 0 2.099.463.82.458 1.214 1.241a3.8 3.8 0 0 1 .394 1.748 3.86 3.86 0 0 1-.394 1.752 2.9 2.9 0 0 1-1.204 1.257q-.814.464-2.088.464h-2.642v-1.172h2.6q.879 0 1.411-.304.533-.303.773-.82.245-.522.245-1.177 0-.656-.245-1.172a1.75 1.75 0 0 0-.778-.81q-.538-.298-1.428-.298h-2.322V583zm12.694.17q-1.183 0-2.041-.522a3.5 3.5 0 0 1-1.315-1.47q-.459-.948-.458-2.205 0-1.257.458-2.216.463-.964 1.289-1.502.83-.543 1.939-.543.64 0 1.262.213.624.213 1.135.692.511.474.815 1.257t.303 1.929v.532h-6.306v-1.086h5.028q0-.693-.277-1.236a2.1 2.1 0 0 0-.778-.858q-.501-.314-1.182-.314-.751 0-1.3.373a2.45 2.45 0 0 0-.836.959 2.8 2.8 0 0 0-.293 1.267v.725q0 .927.319 1.571.325.639.901.975.575.33 1.337.33.495 0 .894-.138.405-.144.698-.426.293-.288.453-.714l1.215.341a2.7 2.7 0 0 1-.645 1.086 3.14 3.14 0 0 1-1.119.725q-.666.255-1.496.255m11.095-6.519-1.129.319a2.1 2.1 0 0 0-.314-.548 1.5 1.5 0 0 0-.554-.448q-.352-.176-.901-.176-.75 0-1.251.347-.496.34-.496.868 0 .468.341.74.34.271 1.065.453l1.215.298q1.097.266 1.635.815.538.543.538 1.401 0 .704-.405 1.257-.4.555-1.118.874-.72.32-1.673.319-1.251 0-2.072-.543-.82-.543-1.039-1.587l1.194-.299q.17.661.644.991.48.33 1.252.33.879 0 1.396-.372.522-.379.522-.906 0-.426-.299-.714-.298-.293-.916-.436l-1.364-.32q-1.123-.267-1.651-.826-.522-.564-.522-1.411 0-.693.389-1.225.394-.533 1.071-.837.681-.303 1.544-.303 1.215 0 1.907.532.699.532.991 1.407m5.365 6.519q-1.107 0-1.944-.527-.83-.527-1.3-1.475-.463-.948-.463-2.216 0-1.28.463-2.232.47-.953 1.3-1.481.837-.528 1.944-.527 1.108 0 1.939.527.837.528 1.3 1.481.47.952.469 2.232 0 1.268-.469 2.216a3.53 3.53 0 0 1-1.3 1.475q-.83.528-1.939.527m0-1.129q.842 0 1.385-.431a2.54 2.54 0 0 0 .805-1.135q.261-.703.261-1.523t-.261-1.529a2.57 2.57 0 0 0-.805-1.145q-.543-.437-1.385-.437-.841 0-1.385.437-.543.437-.804 1.145a4.4 4.4 0 0 0-.261 1.529q0 .82.261 1.523t.804 1.135q.544.43 1.385.431m6.543 1.044a.93.93 0 0 1-.677-.282.92.92 0 0 1-.282-.677q0-.393.282-.676a.93.93 0 0 1 .677-.282q.394 0 .676.282a.92.92 0 0 1 .283.676.9.9 0 0 1-.133.48 1 1 0 0 1-.347.351.9.9 0 0 1-.479.128m0-6.072a.92.92 0 0 1-.677-.283.92.92 0 0 1-.282-.676q0-.394.282-.677a.93.93 0 0 1 .677-.282q.394 0 .676.282a.92.92 0 0 1 .283.677.9.9 0 0 1-.133.479 1 1 0 0 1-.347.352.9.9 0 0 1-.479.128M292.43 583v-.959l3.601-3.942q.633-.692 1.044-1.203.41-.517.607-.97.203-.458.203-.959 0-.575-.277-.996a1.8 1.8 0 0 0-.746-.65 2.4 2.4 0 0 0-1.065-.229q-.63 0-1.098.261-.463.256-.719.719-.25.464-.25 1.087h-1.257q0-.959.442-1.683t1.204-1.129a3.6 3.6 0 0 1 1.72-.405q.959 0 1.699.405.74.404 1.162 1.092.42.687.42 1.528 0 .602-.218 1.178-.213.57-.746 1.273-.527.698-1.465 1.704l-2.45 2.621v.085h5.071V583zm12.917-10.909V583h-1.321v-9.524h-.064l-2.663 1.768v-1.342l2.727-1.811zm6.824 11.058q-1.055 0-1.881-.362-.819-.362-1.305-1.007a2.7 2.7 0 0 1-.522-1.507h1.343q.042.527.362.911a2.1 2.1 0 0 0 .836.586q.517.207 1.146.207.703 0 1.246-.245.543-.244.852-.682.309-.436.309-1.012a1.9 1.9 0 0 0-.298-1.06q-.298-.463-.874-.724-.575-.261-1.406-.261h-.874v-1.172h.874a2.6 2.6 0 0 0 1.14-.234q.495-.235.772-.661.283-.426.283-1.001 0-.555-.245-.964a1.7 1.7 0 0 0-.693-.64 2.25 2.25 0 0 0-1.044-.229q-.564 0-1.065.208-.495.202-.81.591a1.55 1.55 0 0 0-.341.927h-1.278a2.6 2.6 0 0 1 .516-1.502 3.26 3.26 0 0 1 1.268-1.012 4.1 4.1 0 0 1 1.731-.362q1.012 0 1.737.41.724.405 1.113 1.071t.389 1.438q0 .921-.485 1.571a2.45 2.45 0 0 1-1.305.9v.086q1.034.17 1.614.879.58.702.581 1.741 0 .89-.485 1.598a3.3 3.3 0 0 1-1.31 1.108q-.832.405-1.891.405m13.407 3.09q-.91 0-1.566-.235a3.3 3.3 0 0 1-1.092-.607 3.3 3.3 0 0 1-.687-.799l1.001-.703q.171.223.432.511.261.294.714.506.458.219 1.198.219.991 0 1.635-.48.645-.479.645-1.502v-1.662h-.107a7 7 0 0 1-.394.554q-.25.325-.724.581-.469.25-1.268.25-.99 0-1.779-.469-.783-.468-1.241-1.363-.453-.895-.453-2.174 0-1.256.442-2.189.442-.937 1.231-1.449.787-.516 1.821-.516.8 0 1.268.266.474.261.725.597.255.33.394.543h.128v-1.3h1.214v8.416q0 1.055-.479 1.716a2.74 2.74 0 0 1-1.279.974 4.8 4.8 0 0 1-1.779.315m-.042-4.496q.756 0 1.278-.346t.794-.996.271-1.556q0-.884-.266-1.561-.267-.676-.788-1.06-.522-.383-1.289-.383-.8 0-1.332.405-.527.405-.794 1.086a4.2 4.2 0 0 0-.261 1.513q0 .852.266 1.508.273.65.799 1.022.534.368 1.322.368M751.146 111.693a.5.5 0 0 0 0 .707l3.182 3.182a.5.5 0 1 0 .708-.707l-2.829-2.828 2.829-2.829a.5.5 0 0 0-.708-.707zm111.708.707a.5.5 0 0 0 0-.707l-3.182-3.182a.5.5 0 0 0-.708.707l2.829 2.829-2.829 2.828a.5.5 0 0 0 .708.707zm-111.354-.353v.5h111v-1h-111z"/><path stroke="#000" d="M750.5 108v8.094M863.5 108v8.094"/><path fill="#000" d="M894.354 142.146a.5.5 0 0 0-.708 0l-3.182 3.182a.502.502 0 0 0 .708.708l2.828-2.829 2.828 2.829a.502.502 0 0 0 .708-.708zm-.708 381.708a.5.5 0 0 0 .708 0l3.182-3.182a.502.502 0 0 0-.708-.708L894 522.793l-2.828-2.829a.502.502 0 0 0-.708.708zM894 142.5h-.5v381h1v-381z"/><path stroke="#000" d="M890 141.5h8.109M890 524.5h8.109"/><path stroke="#231815" stroke-linecap="round" stroke-linejoin="round" stroke-width=".5" d="m562.7 533.961-28 1.61M533.46 535.63l1.24-.06M562.7 533.96c.21-.01.38-.18.38-.39M499.59 132.829l12.74-3.64M514.65 537.19l-2.32-.19M512.33 537l-12.98-8.91M516.96 537l-2.31.19M607.88 531.779l-43.47 2.49M532.95 536.08l-1.01.06M522.7 536.67l-5.74.33M512.33 129.19l2.32-.19M516.96 129.189l90.66 5.21M514.65 129l2.31.19M499 527.419v-393.8M514.65 129v408.19"/><circle cx="531.94" cy="536.141" r=".25" fill="#231815"/><path stroke="#231815" stroke-linecap="round" stroke-linejoin="round" stroke-width=".5" d="M563.83 533.6v.14M608.39 135.211v396.02M523.09 536.54c.1 0 .2-.02.3-.02l1.58-.1M563.21 533.58h-.13M563.83 533.6s-.13-.01-.17-.01M499.59 132.83c-.35.1-.59.42-.59.78M499 527.42c0 .27.13.52.35.67M608.39 135.211c0-.43-.34-.79-.77-.82M532.95 536.081c.26-.01.46-.21.51-.45M531.58 536.029c.1.07.23.11.35.1M564.4 534.27a.53.53 0 0 1-.4-.14c-.1-.1-.17-.24-.17-.39M522.7 536.671c.11 0 .22-.05.31-.12M607.88 531.78c.29-.02.51-.25.51-.54M525.02 536.409l.69-.04.69-.04.69-.04.69-.04.69-.04.7-.04.69-.04.69-.04.69-.04.34-.02M563.21 533.58h.36l.04.01h.05M523.05 536.539l-.04.01.05-.01h.03"/><path stroke="#231815" stroke-linecap="round" stroke-linejoin="round" d="m562.7 533.961-28 1.61M533.46 535.63l1.24-.06M562.7 533.96c.21-.01.38-.18.38-.39M499.59 132.829l12.74-3.64M514.65 537.19l-2.32-.19M512.33 537l-12.98-8.91M516.96 537l-2.31.19M607.88 531.779l-43.47 2.49M532.95 536.08l-1.01.06M522.7 536.67l-5.74.33M512.33 129.19l2.32-.19M516.96 129.189l90.66 5.21M514.65 129l2.31.19M499 527.419v-393.8"/><circle cx="531.94" cy="536.141" r=".5" fill="#231815"/><path stroke="#231815" stroke-linecap="round" stroke-linejoin="round" d="M563.83 533.6v.14M608.39 135.211v396.02M523.09 536.54c.1 0 .2-.02.3-.02l1.58-.1M563.21 533.58h-.13M563.83 533.6s-.13-.01-.17-.01M499.59 132.83c-.35.1-.59.42-.59.78M499 527.42c0 .27.13.52.35.67M608.39 135.211c0-.43-.34-.79-.77-.82M532.95 536.081c.26-.01.46-.21.51-.45M531.58 536.029c.1.07.23.11.35.1M564.4 534.27a.53.53 0 0 1-.4-.14c-.1-.1-.17-.24-.17-.39M522.7 536.671c.11 0 .22-.05.31-.12M607.88 531.78c.29-.02.51-.25.51-.54M525.02 536.409l.69-.04.69-.04.69-.04.69-.04.69-.04.7-.04.69-.04.69-.04.69-.04.34-.02M563.21 533.58h.36l.04.01h.05M523.05 536.539l-.04.01.05-.01h.03"/><path stroke="#231815" stroke-linecap="round" stroke-linejoin="round" stroke-width=".5" d="M797.21 525.012h-24.49M797.21 521.881h-24.49M769.24 519.57h3.48M797.21 519.57h47.02M831.23 499.57h-48.98M854.05 515.391l-.19.2M750 481.881h5.44M863.48 481.881h-5.45M782.25 431.541h48.98M863.48 158.91v18.19M863.48 182.541v299.34M860.35 182.541v299.34M858.03 481.881v23.89M858.03 182.54v-2.72M844.84 445.15v40.81M842.11 152.471v43.95M837.49 196.421v-43.95M755.44 367.861H750M824.97 196.421v-43.95M823.07 144.721v1.36M820.34 196.421v-43.95M820.34 146.08v-3.68M814.9 142.4v5.99M812.86 390.311v21.77M755.44 340.65H750M800.62 412.081v-21.77M797.21 525.01v-5.44M784.97 148.39v-5.99M779.53 142.4v3.68M776.8 145.24v.84M772.72 525.01v-5.44M768.64 485.96v-40.81M768.37 373.982v-140.14M762.93 233.842v140.14M755.44 179.82v2.72M755.44 239.961v27.21M755.44 340.65v27.21M755.44 505.771v-23.89M753.13 481.881v-114.02M753.13 340.652v-73.48M753.13 239.961v-57.42M750 481.881v-114.02M750 340.652v-73.48M750 239.961v-57.42M750 177.1v-18.19M755.44 267.172H750M755.44 239.961H750M837.49 191.131h-12.52M837.49 187.381h-12.52M810.96 184.182h-15.11M837.49 182.91h-12.52M863.48 182.541h-5.45M755.44 182.541H750M759.62 515.591l-.19-.2M752.72 179.82h2.72M860.76 179.82h-2.73M824.97 176.73h12.52M824.97 174.432h12.52M837.49 172.811h-12.52M795.85 171.932h15.11M837.49 170.512h-12.52M837.49 159.641h-12.52M837.49 156.891h-12.52M837.49 153.061h-12.52M814.09 149.211h-28.31M823.07 146.08h-2.73M779.53 146.08h-2.73M779.53 145.531h5.44M814.9 145.531h5.44M814.9 145.131h-29.93M820.34 142.4h-40.81M764.93 143.021c3-.19 6.01-.35 9.02-.5M825.86 142.002c7.57.21 15.13.56 22.68 1.03M750 158.911c0-8.41 6.54-15.37 14.93-15.89M848.54 143.021c8.39.52 14.93 7.48 14.93 15.89M768.64 445.151c0-7.51 6.09-13.61 13.61-13.61M782.25 499.571c-7.51 0-13.61-6.09-13.61-13.61M844.84 485.961c0 7.51-6.09 13.61-13.61 13.61M831.23 431.541c7.51 0 13.61 6.09 13.61 13.61M858.03 505.771c0 3.61-1.43 7.071-3.99 9.621M853.86 515.592a13.6 13.6 0 0 1-9.62 3.99M769.24 519.57c-3.61 0-7.07-1.43-9.62-3.99M759.43 515.392a13.6 13.6 0 0 1-3.99-9.621M810.96 184.182a6.12 6.12 0 0 0 6.12-6.12m0-.01a6.12 6.12 0 0 0-6.12-6.12M789.73 178.052a6.12 6.12 0 0 1 6.12-6.12m0 12.25a6.12 6.12 0 0 1-6.12-6.12M800.62 412.08a6.12 6.12 0 1 0 12.24 0M812.86 390.311a6.12 6.12 0 1 0-12.24 0M752.72 179.822c-1.5 0-2.72-1.22-2.72-2.72M776.8 145.242c0-.74-.31-1.46-.84-1.97-.54-.51-1.27-.78-2.01-.75M825.86 142.001c-.73-.02-1.45.26-1.97.77m0-.01c-.53.51-.82 1.22-.82 1.95M863.48 177.102c0 1.5-1.22 2.72-2.72 2.72M762.93 373.98c0 1.5 1.22 2.72 2.72 2.72m0 .01c1.5 0 2.72-1.22 2.72-2.72M768.37 233.841c0-1.5-1.22-2.72-2.72-2.72s-2.72 1.22-2.72 2.72M824.97 152.47a2.311 2.311 0 0 0-4.62 0M820.34 196.422c0 1.28 1.04 2.31 2.31 2.31m.01.01c1.28 0 2.31-1.04 2.31-2.31M837.49 196.422c0 1.28 1.04 2.31 2.31 2.31m0 .01c1.28 0 2.31-1.04 2.31-2.31M842.11 152.47a2.311 2.311 0 0 0-4.62 0M814.9 148.391c0 .45-.37.82-.82.82M785.78 149.211c-.45 0-.82-.37-.82-.82"/><path stroke="#231815" stroke-linecap="round" stroke-linejoin="round" d="M797.21 525.012h-24.49M769.24 519.57h3.48M797.21 519.57h47.02M831.23 499.57h-48.98M854.05 515.391l-.19.2M750 481.881h5.44M863.48 481.881h-5.45M782.25 431.541h48.98M863.48 158.91v18.19M863.48 182.541v299.34M858.03 481.881v23.89M858.03 182.54v-2.72M844.84 445.15v40.81M755.44 367.861H750M823.07 144.721v1.36M820.34 146.08v-3.68M812.86 390.311v21.77M755.44 340.65H750M800.62 412.081v-21.77M797.21 525.01v-5.44M779.53 142.4v3.68M776.8 145.24v.84M772.72 525.01v-5.44M768.64 485.96v-40.81M768.37 373.982v-140.14M762.93 233.842v140.14M755.44 179.82v2.72M755.44 239.961v27.21M755.44 340.65v27.21M755.44 505.771v-23.89M750 481.881v-114.02M750 340.652v-73.48M750 239.961v-57.42M750 177.1v-18.19M755.44 267.172H750M755.44 239.961H750M863.48 182.541h-5.45M755.44 182.541H750M759.62 515.591l-.19-.2M752.72 179.82h2.72M860.76 179.82h-2.73M823.07 146.08h-2.73M779.53 146.08h-2.73M820.34 142.4h-40.81M764.93 143.021c3-.19 6.01-.35 9.02-.5M825.86 142.002c7.57.21 15.13.56 22.68 1.03M750 158.911c0-8.41 6.54-15.37 14.93-15.89M848.54 143.021c8.39.52 14.93 7.48 14.93 15.89M768.64 445.151c0-7.51 6.09-13.61 13.61-13.61M782.25 499.571c-7.51 0-13.61-6.09-13.61-13.61M844.84 485.961c0 7.51-6.09 13.61-13.61 13.61M831.23 431.541c7.51 0 13.61 6.09 13.61 13.61M858.03 505.771c0 3.61-1.43 7.071-3.99 9.621M853.86 515.592a13.6 13.6 0 0 1-9.62 3.99M769.24 519.57c-3.61 0-7.07-1.43-9.62-3.99M759.43 515.392a13.6 13.6 0 0 1-3.99-9.621M800.62 412.08a6.12 6.12 0 1 0 12.24 0M812.86 390.311a6.12 6.12 0 1 0-12.24 0M752.72 179.822c-1.5 0-2.72-1.22-2.72-2.72M776.8 145.242c0-.74-.31-1.46-.84-1.97-.54-.51-1.27-.78-2.01-.75M825.86 142.001c-.73-.02-1.45.26-1.97.77m0-.01c-.53.51-.82 1.22-.82 1.95M863.48 177.102c0 1.5-1.22 2.72-2.72 2.72M762.93 373.98c0 1.5 1.22 2.72 2.72 2.72m0 .01c1.5 0 2.72-1.22 2.72-2.72M768.37 233.841c0-1.5-1.22-2.72-2.72-2.72s-2.72 1.22-2.72 2.72M810.96 184.182h-15.11M795.85 171.932h15.11M810.96 184.182a6.12 6.12 0 0 0 6.12-6.12m0-.01a6.12 6.12 0 0 0-6.12-6.12M789.73 178.052a6.12 6.12 0 0 1 6.12-6.12m0 12.25a6.12 6.12 0 0 1-6.12-6.12"/><path fill="#fff" d="m356.51 153.55-.45-2.5-.66-2.36-.91-2.37-1.08-2.2-1.38-2.23-1.48-1.96-1.64-1.8-1.81-1.65-2.1-1.58-2.09-1.28-2.19-1.08-2.37-.91-2.37-.66-.87-.19c-1.15-.22-2.32-.38-3.49-.45l-12.52-.66-12.53-.43-12.54-.21-4.18-.02-13.02.11-13.02.36-13.01.6-4.33.26h-.13c-.59.04-1.17.1-1.76.18h-.06c-.6.08-1.2.19-1.79.31l-2.42.62-2.3.82-2.26 1.05-2.11 1.22-2.07 1.47-1.85 1.59-1.69 1.74-1.53 1.9-1.4 2.12-1.15 2.15-.95 2.24-.76 2.37-.53 2.39-.13.84c-.17 1.22-.26 2.48-.26 3.72v350.79l.13 2.69.34 2.43.61 2.62.85 2.53 1.09 2.45 1.21 2.15 1.53 2.21 1.72 2.05 1.5 1.51 2.05 1.73 1.73 1.23 1.83 1.1 2.4 1.18 2.5.94 2.91.77c1.3.27 2.63.45 3.96.54 0 0 .03.03.05.03s.04-.02.06-.02l12.58.63 12.58.4 12.59.18h4.2l12.15-.11 12.14-.33 12.13-.54 4.04-.23c1.24-.07 2.48-.23 3.68-.46l2.61-.63 2.44-.84 2.44-1.1 2.24-1.28 2.12-1.48.44.27-.3-.37 1.97-1.69 1.79-1.84 1.62-2.01.5-.7.5.12-.4-.26 1.36-2.22 1.14-2.31.64-1.6.8-2.55.54-2.53.14-.92c.16-1.23.25-2.47.25-3.7V157.06c0-1.17-.08-2.36-.23-3.52z"/><path stroke="#231815" stroke-linecap="round" stroke-linejoin="round" stroke-width=".5" d="M228.62 503.17v-.19M221 157.48v349.98M225.62 157.48v345.81M228.62 502.98V157.33M349.44 157.48v345.53M352.44 503.29V157.48M357.06 157.48v349.98"/><path fill="#727171" d="M300.25 405.061c0-1.02-.15-1.86-.89-2.56-.48-.45-1.08-.75-1.62-1.12-2.07-1.32-4.16-2.64-6.23-3.96-.04-.33.1-8.74-.09-8.82-.23-.76-.92-1.36-1.69-1.47h-10.69c-.91.07-1.75.81-1.9 1.74-.07.63-.05 18.98 0 19.89.14.88.88 1.62 1.76 1.75h8.82c.16 2 1.37 3.88 3.08 4.86v4.74h1.45v-5.67c-1.9-.41-3.32-2.24-3.51-4.14-.12-1.32.56-2.57 1.46-3.49l-2.55-4.08c-.28-.45-.57-.91-.85-1.36-.11-.19-.26-.37-.3-.59-.13-.71.69-1.25 1.29-.84.11.07.2.17.27.29.46.76.93 1.52 1.39 2.28 1.32 2.16 2.64 4.33 3.96 6.49.41-.25.83-.51 1.24-.76-1.15-1.87-2.29-3.75-3.43-5.62v-3.65c2.02 1.28 4.05 2.58 6.05 3.85.2.13.4.25.59.39.44.34.75.83.87 1.37q.045.195.06.39c.02.09 0 15.06 0 15.15h1.46zm-9.93-3.67c-.24-.39-.47-.78-.71-1.16-.21-.34-.39-.71-.71-.96-1.06-.91-2.81-.4-3.21.94-.15.45-.13.95.05 1.38.27.55.64 1.05.96 1.58.74 1.18 1.48 2.37 2.22 3.55-.59.76-1.03 1.66-1.2 2.61-.81-.02-8.2.05-8.78-.03a.95.95 0 0 1-.5-.31s-.01-.02-.02-.03c0 0-.02-.03-.03-.04-.13-.18-.18-.4-.18-.62v-19.14c0-.16.06-.31.14-.44 0 0 .03-.05.05-.07.17-.23.45-.37.74-.38.18.03 10.3-.05 10.46.03.19.04.37.15.49.3 0 0 .01.02.02.03a.607.607 0 0 0 .05.08q.12.195.15.42c.02.14 0 12.1 0 12.25z"/><path stroke="#898989" stroke-linecap="round" stroke-linejoin="round" stroke-width=".5" d="m340.05 222.799-.01-.03v-.09l-.01-.03v-.03l-.02-.06v-.04l-.01-.03-.01-.06-.01-.03-.01-.03-.01-.03-.01-.03v-.02l-.03-.06-.01-.03-.01-.03-.02-.05-.01-.03-.08-.17-.02-.02-.01-.03-.02-.02-.01-.03-.02-.03-.01-.02-.02-.03-.02-.02-.02-.03-.01-.02-.02-.03-.02-.02-.02-.02-.02-.02-.02-.03-.04-.04-.02-.03-.02-.02-.02-.02-.02-.02-.04-.04-.03-.02-.02-.02-.02-.02-.02-.02-.03-.02-.02-.02-.02-.02-.03-.01-.02-.02-.02-.02-.03-.02-.05-.03-.03-.02-.02-.01-.03-.02-.02-.01-.03-.02-.03-.01-.02-.02-.08-.04-.03-.01-.06-.02-.02-.02-.03-.01-.03-.01-.03-.01-.03-.01-.03-.01-.18-.05-.06-.01-.03-.01h-.03l-.03-.01h-.03l-.03-.01h-.07l-.06-.01h-29.21v6.8h24.44v24.44h6.8v-29.23M238.01 222.799v-.03l.01-.03v-.06l.01-.03v-.03l.01-.06.01-.04.01-.03.01-.06.01-.03.01-.03.01-.03v-.03l.01-.02.02-.06.01-.03.02-.03.02-.05.01-.03.08-.17.01-.02.02-.03.02-.02.01-.03.02-.03.01-.02.02-.03.02-.02.01-.03.02-.02.02-.03.02-.02.02-.02.02-.02.02-.03.03-.04.03-.03.01-.02.03-.02.02-.02.04-.04.02-.02.03-.02.02-.02.02-.02.02-.02.03-.02.02-.02.02-.01.03-.02.02-.02.03-.02.05-.03.02-.02.03-.01.03-.02.02-.01.03-.02.02-.01.03-.02.08-.04.03-.01.05-.02.03-.02.03-.01.03-.01.03-.01.03-.01.03-.01.18-.05.06-.01.03-.01h.03l.03-.01h.03l.03-.01h.06l.07-.01h29.21v6.8h-24.44v24.44h-6.8v-29.23M340.05 316.74l-.01.03v.09l-.01.03v.03l-.02.06v.04l-.01.03-.01.06-.01.03-.01.03-.01.03-.01.03v.02l-.03.06-.01.03-.01.03-.02.05-.01.03-.08.17-.02.02-.01.03-.02.02-.01.03-.02.03-.01.02-.02.03-.02.02-.02.03-.01.02-.02.03-.02.02-.02.02-.02.02-.02.03-.04.04-.02.03-.02.02-.02.02-.02.02-.04.04-.03.02-.02.02-.02.02-.02.02-.03.02-.02.02-.02.02-.03.01-.02.02-.02.02-.03.02-.05.03-.03.02-.02.01-.03.02-.02.01-.03.02-.03.01-.02.02-.08.04-.03.01-.06.02-.02.02-.03.01-.03.01-.03.01-.03.01-.03.01-.18.05-.06.01-.03.01h-.03l-.03.01h-.03l-.03.01h-.07l-.06.01h-29.21v-6.8h24.44v-24.44h6.8v29.23M238.01 316.74v.03l.01.03v.06l.01.03v.03l.01.06.01.04.01.03.01.06.01.03.01.03.01.03v.03l.01.02.02.06.01.03.02.03.02.05.01.03.08.17.01.02.02.03.02.02.01.03.02.03.01.02.02.03.02.02.01.03.02.02.02.03.02.02.02.02.02.02.02.03.03.04.03.03.01.02.03.02.02.02.04.04.02.02.03.02.02.02.02.02.02.02.03.02.02.02.02.01.03.02.02.02.03.02.05.03.02.02.03.01.03.02.02.01.03.02.02.01.03.02.08.04.03.01.05.02.03.02.03.01.03.01.03.01.03.01.03.01.18.05.06.01.03.01h.03l.03.01h.03l.03.01h.06l.07.01h29.21v-6.8h-24.44v-24.44h-6.8v29.23"/><path fill="#c9caca" d="m327.12 269.16-.01-.6-.02-.61-.04-.59-.04-.6-.05-.6-.06-.59-.07-.59-.08-.59-.09-.58-.09-.58-.11-.58-.11-.58-.12-.57-.13-.57-.14-.56-.15-.56-.15-.56-.17-.56-.17-.55-.18-.55-.19-.54-.19-.54-.21-.54-.21-.53-.22-.53-.23-.53-.23-.52-.25-.51-.25-.52-.25-.5-.27-.51-.27-.5-.28-.49-.28-.49-.3-.49-.3-.48-.3-.47-.32-.47-.32-.47-.33-.46-.33-.46-.34-.45-.35-.44-.35-.44-.36-.44-.37-.43-.37-.42-.38-.42-.38-.41-.4-.41-.39-.4-.4-.39-.41-.39-.41-.38-.42-.38-.43-.37-.43-.37-.44-.36-.44-.35-.44-.34-.46-.34-.45-.34-.46-.32-.47-.32-.47-.31-.48-.31-.48-.3-.49-.29-.49-.28-.5-.28-.5-.27-.5-.26-.51-.26-.51-.25-.52-.24-.52-.23-.53-.23-.53-.21-.53-.21-.54-.2-.54-.2-.55-.18-.55-.18-.55-.17-.56-.16-.55-.16-.57-.14-.56-.14-.58-.13-.57-.12-.57-.11-.58-.1-.58-.1-.59-.08-.59-.08-.59-.06-.59-.06-.6-.05-.59-.04-.61-.03-.6-.02-.6-.01-.61-.01-.61.01-.6.02-.61.02-.6.04-.59.04-.6.05-.59.07-.59.07-.58.08-.59.09-.58.1-.57.11-.58.11-.57.13-.57.13-.56.14-.56.15-.56.16-.56.16-.55.18-.55.18-.54.19-.54.2-.53.2-.54.22-.52.22-.53.23-.52.23-.51.25-.51.25-.51.26-.5.26-.5.28-.5.28-.48.29-.49.29-.48.3-.47.31-.47.32-.47.32-.46.33-.45.34-.45.34-.44.35-.44.35-.44.36-.42.37-.43.38-.41.38-.41.38-.41.39-.4.4-.39.4-.39.42-.38.41-.38.42-.37.43-.36.43-.36.44-.35.44-.34.45-.34.45-.33.46-.32.46-.32.47-.31.47-.3.48-.3.49-.29.48-.28.49-.28.5-.27.5-.26.51-.25.51-.25.51-.24.52-.23.53-.22.52-.22.53-.2.54-.2.54-.2.54-.18.54-.18.56-.16.55-.16.56-.16.56-.14.56-.13.57-.13.57-.12.57-.11.58-.1.58-.09.58-.08.59-.08.58-.06.59-.06.6-.04.6-.04.6-.03.6-.02.6-.01.61v.6l.01.61.02.61.03.6.04.6.04.59.06.59.06.6.08.59.08.58.09.58.1.58.11.58.12.57.13.57.13.57.14.56.16.57.16.55.16.56.18.55.18.54.2.54.2.54.2.54.22.53.22.52.23.53.24.52.25.51.25.51.26.51.27.5.28.5.28.49.29.49.3.48.3.48.31.47.32.47.32.46.33.46.34.45.34.45.35.44.36.44.36.43.37.43.38.42.38.42.39.41.39.4.4.4.41.39.41.39.41.38.43.37.42.37.44.36.44.35.44.35.45.34.45.34.46.33.47.32.47.32.47.31.48.3.49.29.48.29.5.28.5.28.5.26.51.26.51.25.51.25.52.23.53.23.52.23.54.21.53.21.54.19.54.19.55.19.55.17.56.17.56.16.56.14.56.14.57.14.57.12.58.12.57.1.58.1.59.09.58.08.59.07.59.07.6.05.59.04.6.04.61.02.6.02.61.01.61-.01.6-.01.6-.02.61-.03.59-.04.6-.05.59-.05.59-.07.59-.08.59-.08.58-.1.58-.1.57-.11.57-.12.58-.13.56-.13.57-.15.55-.15.56-.17.55-.17.55-.17.55-.19.54-.19.54-.21.53-.21.53-.21.53-.23.52-.23.52-.24.51-.25.51-.26.5-.26.5-.27.5-.28.49-.28.49-.29.48-.3.48-.31.47-.31.47-.32.46-.32.45-.34.46-.33.44-.35.44-.35.44-.36.43-.36.43-.37.42-.38.41-.39.41-.39.4-.39.39-.4.4-.41.38-.41.38-.42.37-.42.37-.43.36-.44.35-.44.35-.44.34-.45.33-.46.33-.46.32-.46.32-.48.3-.47.3-.48.3-.49.28-.49.28-.49.27-.5.27-.5.25-.51.25-.51.25-.52.23-.52.23-.53.22-.53.21-.53.21-.54.19-.54.19-.54.18-.55.17-.55.17-.56.15-.55.15-.57.14-.56.13-.57.12-.57.11-.58.11-.58.09-.58.09-.58.08-.59.07-.59.06-.59.05-.6.04-.59.04-.6.02-.61.01-.6.01-.61z"/><path fill="#727171" d="M280.58 218.229v1.82h16.9v-1.82zM282.41 212.519h3.88v-1.83h-3.49l-.07.01h-.1l-.07.01-.16.03-.03.01h-.03l-.1.03-.03.01h-.03l-.06.03h-.03l-.03.02-.06.02-.03.01-.03.01-.03.02-.08.04-.03.02-.03.01-.03.02-.08.04-.02.02-.03.02-.03.02-.02.01-.05.04-.05.04-.05.04-.03.02-.02.02-.02.02-.03.02-.02.02-.02.02-.02.03-.03.02-.02.02-.02.02-.02.03-.02.02-.02.02-.02.03-.02.02-.04.05-.02.03-.02.02-.02.03-.01.03-.02.02-.02.03-.01.03-.02.02-.02.03-.01.03-.02.03-.01.02-.02.03-.01.03-.01.03-.02.03-.01.03-.01.03-.02.03-.01.03-.01.03-.01.03-.01.03-.01.03-.01.03-.01.03-.01.03-.01.03v.03l-.01.04-.01.03v.03l-.01.03-.01.03v.04l-.01.03v.06l-.01.04v.06l-.01.04v3.54h1.83zM297.48 212.889v-.07l-.01-.03v-.07l-.01-.03v-.03l-.02-.13-.01-.03-.01-.03v-.04l-.01-.03-.01-.03-.01-.03-.01-.03-.01-.03-.05-.15-.02-.03-.01-.03-.01-.03-.01-.03-.02-.03-.01-.03-.01-.03-.02-.02-.01-.03-.02-.03-.03-.05-.02-.03-.02-.03-.02-.02-.01-.03-.02-.03-.02-.02-.02-.03-.02-.02-.02-.03-.04-.05-.02-.02-.02-.02-.02-.03-.02-.02-.02-.02-.04-.05-.03-.02-.02-.02-.03-.02-.02-.02-.02-.02-.03-.02-.09-.08-.03-.02-.03-.02-.02-.01-.03-.02-.16-.1-.03-.01-.03-.02-.03-.01-.03-.02-.02-.01-.03-.02-.03-.01-.03-.01-.06-.02-.03-.02h-.03l-.03-.01-.03-.02h-.03l-.03-.01-.03-.01-.04-.01-.03-.01h-.03l-.03-.01-.03-.01-.13-.02-.07-.01h-.1l-.03-.01h-3.53v1.83h3.88v3.88h1.83v-3.51M295.65 225.759h-3.88v1.83h3.6l.03-.01h.03l.07-.01.16-.03h.03l.03-.01.1-.02.03-.01.03-.01.06-.02.03-.01.03-.02.06-.02.03-.01.03-.01.03-.02.08-.04.03-.01.03-.02.03-.01.08-.05.03-.02.02-.01.03-.02.02-.02.06-.04.05-.04.05-.03.02-.03.02-.02.03-.02.02-.02.02-.02.03-.02.02-.02.02-.03.02-.02.02-.02.02-.03.02-.02.02-.02.02-.03.02-.02.04-.05.02-.03.02-.02.02-.03.02-.02.01-.03.02-.03.02-.02.01-.03.02-.03.02-.03.01-.02.01-.03.02-.03.01-.03.02-.03.01-.03.01-.03.02-.03.01-.03.01-.03.01-.03.01-.03.01-.03.01-.03.01-.03.01-.03.01-.03.01-.03.01-.03v-.03l.01-.04.01-.03v-.03l.01-.03v-.03l.01-.04v-.03l.01-.03v-.07l.01-.03v-3.58h-1.83zM282.41 221.879h-1.83v3.54l.01.04v.03l.01.07v.06l.03.13v.03l.01.04.01.03v.03l.01.03.01.03.01.03.01.03.05.15.02.03.01.03.01.03.02.03.01.03.01.03.02.03.01.03.02.02.01.03.04.06.01.02.02.03.02.03.01.02.02.03.02.02.02.03.02.02.02.03.04.05.02.02.02.02.02.03.02.02.02.02.05.05.02.02.02.02.03.02.02.02.02.02.03.03.1.07.02.02.03.02.03.02.02.02.16.09.03.02.03.01.03.02.03.01.02.01.03.02.03.01.03.01.06.02.03.02.03.01.03.01.03.01.03.01.04.01h.03l.03.01.03.01.03.01h.03l.03.01.14.02.06.01h.04l.03.01h3.59v-1.83h-3.88z"/><path stroke="#898989" stroke-linecap="round" stroke-linejoin="round" stroke-width=".5" d="m265.97 159.76.01-.02M266.01 159.69v-.02M265.98 159.739l.01-.02M265.99 159.719l.01-.01M266 159.709l.01-.02M266.01 159.669l.02-.04M266.04 159.61l.01-.02M266.05 159.589l.02-.04M266.08 159.54l.01-.02M266.03 159.629l.01-.02M266.09 159.52l.01-.02M266.12 159.469l.01-.02M266.07 159.549l.01-.01M266.1 159.5l.01-.02M266.11 159.479l.01-.01M266.13 159.45l.02-.02M266.15 159.43l.02-.03M266.17 159.399l.01-.02M266.18 159.379l.02-.01M266.2 159.37l.02-.04M266.22 159.33l.02-.01M266.25 159.3l.03-.03M266.31 159.24l.01-.01M266.24 159.319l.01-.02M266.28 159.27l.03-.03M266.32 159.229l.02-.02M266.34 159.209l.01-.01M266.35 159.199l.02-.01M266.37 159.19l.03-.03M266.4 159.16l.01-.01M266.43 159.129l.02-.01M266.46 159.11l.02-.01M266.41 159.149l.02-.02M266.45 159.119l.01-.01M266.48 159.1l.04-.03M266.52 159.071l.01-.01M266.53 159.059l.02-.01M266.55 159.05l.05-.03M266.6 159.02l.02-.01M266.64 159l.02-.01M265.91 160.009l.01-.04M265.92 159.97l.01-.04M265.93 159.909l.01-.02M265.93 159.93v-.02M265.94 159.87l.01-.03M265.94 159.889v-.02M265.96 159.829v-.03M265.97 159.78v-.02M265.95 159.84l.01-.01M265.96 159.799l.01-.02M311.92 160.98l-.01.02M312.03 160.789l-.01.02M311.95 160.93l-.01.02M312.02 160.82l-.02.02M311.97 160.9l-.01.02M312 160.859l-.01.02M311.99 160.879l-.02.02M311.88 161.039l-.01.01M311.96 160.92l-.01.01M311.94 160.949l-.02.03M311.79 161.15l-.01.01M311.91 161l-.03.04M311.83 161.1l-.03.03M311.87 161.049l-.03.04M311.84 161.09l-.01.01M311.7 161.23l-.01.02M311.8 161.129l-.01.02M311.78 161.16l-.05.05M311.64 161.279l-.04.03M311.73 161.209l-.03.02M311.69 161.25l-.04.02M311.57 161.33l-.02.02M311.41 161.43l-.02.01M311.65 161.27l-.01.01M311.48 161.389l-.01.01M311.52 161.369l-.02.01M311.6 161.311l-.03.02M311.55 161.35l-.01.01M311.54 161.359l-.02.01M311.45 161.41l-.02.01M311.5 161.379l-.02.01M266.62 159.01l.02-.01M266.66 158.99l.02-.01M266.68 158.979l.04-.01M266.72 158.969l.04-.02M266.76 158.949l.01-.01M266.77 158.94l.02-.01M266.81 158.93l.02-.01M266.87 158.91l.03-.01M265.9 160.189v-.05M265.9 160.139v-.02M265.9 160.12v-.02M265.9 160.1l.01-.02M265.91 160.079v-.03M265.91 160.049v-.01M265.91 160.04v-.03M312.08 160.67l-.01.02M312.09 160.629v.02M312.12 160.529v.02M312.11 160.57v.02M312.06 160.73l-.01.02M312.09 160.65l-.01.02M312.1 160.609l-.01.02M312 160.84v.02M312.07 160.689l-.01.04M312.05 160.75l-.02.04M312.02 160.811v.01M311.47 161.4l-.02.01M311.23 161.5l-.01.01M311.43 161.42l-.02.01M311.31 161.469l-.05.03M311.39 161.439l-.06.02M311.33 161.459l-.02.01M311.11 161.539h-.02M311.17 161.52l-.01.01M311.22 161.51l-.02.01M265.91 160.36v-.02M265.91 160.34l-.01-.02M265.9 160.319v-.02M265.9 160.3v-.03M265.9 160.27v-.02M265.9 160.25v-.02M265.9 160.229v-.04M312.13 160.49v.02M312.16 160.289l-.01.05M312.14 160.42v.03M312.15 160.359v.04M312.14 160.449v.02M312.15 160.4l-.01.02M312.14 160.469l-.01.02M312.11 160.59l-.01.02M312.12 160.549l-.01.02M312.13 160.51l-.01.02M265.91 160.379v-.02M312.15 160.34v.02M312.16 160.1v.02M312.16 160.139v.15M265.94 160.529l-.02-.06M265.92 160.469v-.02M265.92 160.45v-.02M265.92 160.429l-.01-.05M265.95 160.59v-.02M265.97 160.659v-.03M265.96 160.61l-.01-.02M265.94 160.549v-.02M265.95 160.569l-.01-.02M312.12 159.879v.02M312.13 159.949l.01.02M312.16 160.119v.02M312.14 159.99l.02.11M266.02 160.77l-.01-.02M266.01 160.75l-.01-.02M265.99 160.709v-.02M265.99 160.69l-.01-.02M265.98 160.67l-.01-.01M266 160.729l-.01-.02M265.97 160.629l-.01-.02M312.09 159.779l.01.02M312.13 159.92v.03M312.12 159.859v.02M266.08 160.879l-.01-.01M266.07 160.87l-.01-.02M266.05 160.831l-.01-.02M266.04 160.809l-.01-.02M266.03 160.79l-.01-.02M312.1 159.82l.01.02M312.06 159.699l.01.02M312.14 159.969v.02M312.12 159.9l.01.02M312.08 159.74v.02M312.1 159.799v.02M312.11 159.84l.01.02M266.11 160.94l-.01-.02M266.09 160.899l-.01-.02M266.15 161.01l-.01-.02M266.06 160.85l-.01-.02M266.12 160.949l-.01-.01M266.1 160.92l-.01-.02M312.01 159.59l.01.02M311.98 159.529l.01.02M312.08 159.76l.01.02M312.07 159.719l.01.02M312.03 159.619l.03.08M266.22 161.091l-.03-.03M266.19 161.059l-.01-.02M266.18 161.04l-.03-.03M266.14 160.989l-.01-.02M266.13 160.969l-.01-.02M312.02 159.609l.01.01M311.99 159.549l.02.04M311.96 159.5l.01.02M266.23 161.1l-.01-.01M266.33 161.209l-.01-.02M266.29 161.16l-.02-.01M266.26 161.129l-.02-.01M266.24 161.12l-.01-.02M311.92 159.439l.02.02M311.86 159.359l.01.02M311.97 159.52l.01.01M311.9 159.41l.02.03M311.94 159.459l.02.04M266.39 161.26l-.03-.02M266.36 161.239l-.03-.03M266.32 161.19l-.02-.01M266.3 161.18l-.01-.02M266.27 161.149l-.01-.02M311.87 159.379l.03.03M311.78 159.27l.03.03M311.82 159.311l.04.05M266.53 161.36l-.02-.01M266.44 161.299l-.01-.01M266.48 161.331l-.02-.02M266.41 161.28l-.02-.02M311.69 159.18l.01.02M311.81 159.299l.01.01M311.72 159.209l.04.04M266.63 161.42l-.01-.01M266.62 161.409l-.04-.02M266.56 161.379l-.02-.01M266.54 161.369l-.01-.01M266.51 161.35l-.03-.02M266.46 161.309l-.02-.01M266.43 161.289l-.02-.01M311.76 159.25l.02.02M311.61 159.119l.03.03M311.7 159.199l.02.01M311.66 159.16l.03.02M266.69 161.449l-.02-.01M311.42 159l.01.01M311.64 159.15l.02.01M311.49 159.039l.02.01M311.58 159.1l.03.02M311.53 159.061l.03.02M311.56 159.08l.02.02M266.83 161.5h-.02M266.81 161.5l-.02-.01M266.77 161.479l-.02-.01M266.75 161.469h-.02M266.71 161.459l-.02-.01M266.73 161.469l-.02-.01M266.67 161.44l-.02-.01M266.65 161.43l-.02-.01M266.58 161.389l-.02-.01M311.36 158.969l.02.01M311.51 159.049l.02.01M311.45 159.02l.04.02M266.91 161.53l-.06-.02M266.85 161.51l-.02-.01M266.79 161.49l-.02-.01M311.2 158.91l.02.01M311.43 159.01l.02.01M311.24 158.92l.04.02M311.38 158.98l.04.02M311.3 158.949l.06.02M311.28 158.939l.02.01M311.01 158.869h.03M311.06 158.879h.02M311.16 158.9l.02.01M311.1 158.879l.04.01M267.06 161.559l-.03-.01M266.99 161.549l-.08-.02M311.22 158.92h.02M311.14 158.889l.02.01M311.18 158.91h.02M310.84 158.85h.02M267.19 161.57h-.05M311.04 158.869l.02.01M310.89 158.85l.02.01M310.99 158.869h.02M310.93 158.859h.04M267.12 161.571l-.06-.01M267.03 161.549h-.04M311.08 158.879h.02M310.97 158.859l.02.01M310.86 161.57h-43.67M310.9 161.57h-.02M310.94 161.57h-.02M267.14 161.57h-.02M267.11 158.859h.02M310.91 158.859h.02M267.17 158.85h.05M310.86 158.85h.03M267.24 158.85h43.6M311.16 161.529l-.05.01M311.2 161.52h-.03M311.07 161.549h-.02M311.26 161.5h-.03M311.01 161.561h-.02M311.05 161.549h-.02M266.94 158.889h.02M267 158.879l.04-.01M267.06 158.869l.05-.01M310.99 161.561l-.05.01M311.03 161.549l-.02.01M310.92 161.57h-.02M310.88 161.57h-.02M311.09 161.539l-.02.01M267.13 158.86l.04-.01M267.22 158.85h.02M266.79 158.93h.02M266.83 158.92l.04-.01M266.96 158.889l.02-.01M266.9 158.899l.04-.01M267.04 158.869h.02M266.98 158.879h.02"/><path stroke="#231815" stroke-linecap="round" stroke-linejoin="round" stroke-width=".5" d="M331.06 137.92c-28-1.74-56.07-1.74-84.07 0M247.76 535.971h.14M243.74 535.43c1.32.28 2.67.46 4.02.54M247.76 535.971h.14M228.62 503.01c0 10.5 8.16 19.18 18.64 19.83M247.26 522.84a677 677 0 0 0 83.55 0M246.53 130.32h-.14M246.38 130.33c-1.24.08-2.46.25-3.68.5M221.27 153.689c-.18 1.26-.27 2.52-.27 3.79"/><path stroke="#231815" stroke-linecap="round" stroke-linejoin="round" stroke-width=".5" d="M246.38 130.33c-1.24.08-2.46.25-3.68.5M246.53 130.32h-.14M246.81 134.93c-11.91.74-21.19 10.62-21.19 22.55"/><path stroke="#231815" stroke-linecap="round" stroke-linejoin="round" stroke-width=".5" d="M247 137.92c-10.33.64-18.38 9.21-18.38 19.56M330.17 535.98c1.25-.07 2.5-.23 3.74-.47M356.81 511.209c.17-1.25.25-2.5.25-3.76M330.8 522.84c10.48-.65 18.64-9.33 18.64-19.83M357.06 157.48c0-1.19-.08-2.39-.24-3.57M335.09 130.78c-1.17-.23-2.36-.38-3.55-.46M352.44 157.48c0-11.93-9.28-21.81-21.19-22.55"/><path stroke="#231815" stroke-linecap="round" stroke-linejoin="round" stroke-width=".5" d="M349.44 157.48c0-10.35-8.05-18.91-18.38-19.56M247.9 535.98l2.1.12 4.18.22 4.19.2 2.08.09 4.18.15 4.19.14 4.19.11 4.19.08 4.19.06 4.19.03 4.19.01M289.77 537.19l2.01-.01 4.04-.02 4.05-.05 2.02-.04 4.04-.08 4.05-.11 4.04-.14 4.04-.15 4.03-.18 4.04-.2 4.04-.23M243.74 535.431l-.32-.07-.89-.21-.88-.24-.87-.27-.85-.29-.85-.32-.83-.34-.83-.37-.81-.4-.81-.43-.78-.45-.3-.18-.77-.48-.75-.51-.28-.2-.73-.54-.71-.56-.69-.59-.68-.6-.65-.63-.25-.25-.62-.65-.61-.68-.58-.69-.56-.71-.54-.73-.51-.75-.49-.77-.18-.29-.46-.78-.17-.3-.42-.81-.4-.82-.37-.82-.34-.84-.31-.85-.29-.85-.26-.87-.24-.88-.21-.88-.17-.89-.06-.34-.06-.33-.13-.9-.1-.91-.07-.9-.05-.9-.01-.9M242.71 130.83l-.81.18-.04.01-.8.2-.8.23-.79.26-.77.27-.77.3-.05.02-.76.33-.75.35-.73.37-.73.39-.71.41-.7.44-.69.46-.68.47-.07.06-.66.5-.64.52-.63.54-.61.56-.59.57-.57.59-.55.61-.54.63-.51.64-.5.66-.48.67-.46.69-.05.08-.43.71-.41.71-.4.73-.36.74-.35.75-.32.76-.3.76-.02.05-.27.78-.25.79-.22.79-.21.8-.18.81-.15.81-.01.04-.12.82M331.54 130.32l-2.1-.13-4.16-.23-4.17-.21-2.07-.09-4.17-.17-4.18-.15-4.17-.12-4.17-.09-4.17-.07-4.18-.04-4.17-.02"/><path stroke="#231815" stroke-linecap="round" stroke-linejoin="round" stroke-width=".5" d="M289.83 129h-2.16l-4.33.02-4.33.05-2.18.04-4.33.09-4.33.12-4.33.14-4.33.18-4.33.2-4.33.22-4.32.26M335.09 130.779l.81.17.07.01.81.2.8.23.8.25.78.27.78.29.08.04.76.32.76.34.74.37.73.39.72.41.71.44.7.46.68.47.13.1.67.51.65.52.63.54.61.56.59.58.58.59.56.61.53.63.53.65.5.66.48.68.46.69.09.15.44.71.41.72.39.73.37.75.34.75.32.77.3.77.27.78.03.09.25.79.22.8.2.81.17.81.15.82.01.07.13.83M221 328.33v179.13M356.81 511.211l-.13.87-.01.08-.16.86-.18.86-.21.85-.23.84-.26.83-.29.82-.03.09-.32.82-.33.8-.37.79-.38.78-.41.77-.44.76-.46.75-.48.73-.05.08-.05.08-.51.71-.53.7-.55.68-.57.66-.58.64-.61.62-.62.6-.65.59-.66.57-.68.55-.08.06-.07.05-.71.53-.71.5-.74.48-.74.45-.76.44-.77.4-.78.39-.79.36-.09.04-.81.33-.82.31-.82.28-.83.26-.85.23-.85.21-.08.02-.86.18M225.62 503.289l.01.76.04.75.04.54.08.75.11.75.13.74.15.74.18.74.2.73.16.51.25.72.26.7.29.7.32.69.23.48.36.67.37.66.4.65.41.63.44.61.46.61.33.41.49.58.51.56.53.54.55.53.39.36.58.49.59.47.61.46.62.43.63.41.65.4.46.26.67.35.68.34.69.31.71.28.49.19.72.25.72.22.73.2.74.17.74.16.75.12.52.08.76.08.75.06M247.12 526.131l6.66.38 6.72.31 6.78.25.79.02.79.03 6.78.17 6.72.1 6.67.03 6.67-.03 6.72-.1 6.78-.17.8-.03.78-.02 6.78-.25 6.72-.31 6.66-.38M330.94 526.129l.76-.06.75-.08.52-.08.75-.12.74-.16.74-.17.73-.2.73-.22.71-.25.5-.19.7-.28.69-.31.68-.34.67-.35.46-.26.65-.4.64-.41.62-.43.6-.46.6-.47.57-.5.39-.35.55-.53.53-.54.51-.56.49-.58.34-.41.45-.61.44-.61.42-.64.39-.64.38-.66.35-.67.24-.48.31-.69.29-.7.27-.7.24-.72.16-.51.2-.73.18-.74.16-.74.13-.74.1-.75.08-.76.04-.53.04-.75.01-.76M331.25 134.929l-6.71-.38-6.76-.32-6.79-.26-.84-.02-.84-.03-6.79-.17-6.76-.1-6.73-.03-6.72.03-6.76.1-6.8.17-.84.03-.83.02-6.8.26-6.76.32-6.71.38"/><path fill="#898989" d="M274.52 493.25v4.4c0 .29 0 .72-.23.96-.17.17-.44.25-.8.25h-1.18c-.2 0-.53 0-.77-.23-.2-.2-.3-.52-.3-.98v-4.41h-1.47v4.43c0 .44.11 2.65 2.19 2.64h1.94c.79 0 2.11-.35 2.1-2.65v-4.43h-1.48zM266.34 495.849l-1.61-.2c-.39-.06-.73-.15-.73-.56 0-.65.19-.83 1.5-.83h.33c.77.04 1.49.11 2.37.35l.11.03v-1.01l-.01-.02c-.13-.26-1.34-.67-2.52-.67h-.33c-1.99 0-2.96.74-2.96 2.26 0 1.46 1.23 1.77 2.37 1.95l.71.1c.52.07.82.11 1.01.18.31.12.48.23.47.72 0 .81-.55.9-1.72.9H265c-.69 0-1.52-.19-2.41-.56l-.12-.05v.99c0 .4 1.22.91 2.58.91h.3c2.22 0 3.26-.75 3.26-2.36 0-1.56-1.16-1.94-2.29-2.12M281.04 492.92h-.22c-2.69 0-3.69 1.02-3.68 3.74v3.67h1.57v-3.67c0-2.06.45-2.41 1.84-2.41h.35c1.34 0 1.58.39 1.58 1.34 0 .59-.19 1.27-.74 1.27l-2.47-.04v1.08l.07.01c.5.08 1.38.14 2.05.14 2.31 0 2.69-1.27 2.69-2.33 0-1.75-1.14-2.8-3.04-2.8M289.36 493.01c-.41-.06-1.36-.1-1.85-.1-.86 0-2.3.35-2.3 2.7v4.72h1.54v-4.62c0-1.24.22-1.37 1.19-1.37h1.41v-1.32zM294.12 498.97h-.3c-1.3 0-2.1-.15-2.1-2.31 0-2.06.46-2.41 1.85-2.41h.35c1.3 0 1.58.21 1.58 1.19 0 .49-.22.7-.74.7h-2.47v1.03h.07c.49.1 1.37.16 2.05.16 1 0 2.68-.19 2.68-2.12s-1.65-2.3-3.04-2.3h-.22c-2.69 0-3.69 1.02-3.69 3.74 0 2.6 1.03 3.67 3.53 3.66h.19c1.59 0 2.93-.42 2.93-.92v-.86l-.11.03c-.92.25-1.64.39-2.58.39M307.48 495.649c0-1.28-.48-1.94-1.01-2.27 0 0-.57-.43-1.57-.43-.49 0-.88.07-1.18.16a1.93 1.93 0 0 0-.88.52s-.53-.69-2.05-.68c-.66 0-1.13.18-1.38.31 0 0-.02 0-.03.01-.01 0-.03.01-.04.02-.99.54-1.12 1.76-1.12 2.37v4.67h1.4v-4.67c0-.7.14-1.35 1.19-1.36 1.09 0 1.3.49 1.3 1.35v4.67h1.44v-4.67c0-.93.38-1.37 1.2-1.37.89 0 1.29.42 1.29 1.37v4.67h1.41v-4.67zM311.6 494.28h.3c1.3 0 2.1.15 2.1 2.31 0 2.06-.46 2.41-1.85 2.41h-.35c-1.3 0-1.58-.21-1.58-1.19 0-.49.22-.7.74-.7h2.47v-1.03h-.07c-.49-.1-1.37-.16-2.05-.16-1 0-2.68.19-2.68 2.12s1.65 2.3 3.04 2.3h.22c2.69 0 3.69-1.02 3.69-3.74 0-2.6-1.03-3.67-3.53-3.66h-.19c-1.59 0-2.93.42-2.93.92v.86l.11-.03c.92-.25 1.64-.39 2.58-.39"/><path stroke="#231815" stroke-linecap="round" stroke-linejoin="round" d="M221 157.48v349.98M357.06 157.48v349.98M247.76 535.971h.14M243.74 535.43c1.32.28 2.67.46 4.02.54M247.76 535.971h.13M246.53 130.32h-.14M246.38 130.33c-1.24.08-2.46.25-3.68.5M221.27 153.689c-.18 1.26-.27 2.52-.27 3.79"/><path stroke="#231815" stroke-linecap="round" stroke-linejoin="round" d="M246.38 130.33c-1.24.08-2.46.25-3.68.5M246.53 130.32h-.14M330.17 535.98c1.25-.07 2.5-.23 3.74-.47M356.81 511.209c.17-1.25.25-2.5.25-3.76M357.06 157.48c0-1.19-.08-2.39-.24-3.57M335.09 130.78c-1.17-.23-2.36-.38-3.55-.46M247.9 535.98l2.1.12 4.18.22 4.19.2 2.08.08 4.18.16 4.19.14 4.19.11 4.19.08 4.19.06 4.19.03 4.19.01M289.77 537.19l2.01-.01 4.04-.02 4.05-.05 2.02-.04 4.04-.09 4.05-.1 4.04-.14 4.04-.15 4.03-.18 4.04-.2 4.04-.23M243.74 535.431l-.32-.07-.89-.21-.88-.24-.87-.27-.85-.29-.85-.32-.83-.34-.83-.38-.81-.39-.81-.43-.78-.45-.3-.18-.77-.48-.75-.51-.28-.2-.73-.54-.71-.56-.69-.59-.68-.6-.65-.63-.25-.25-.62-.65-.61-.68-.58-.69-.56-.71-.54-.73-.51-.75-.49-.77-.18-.29-.46-.78-.17-.3-.42-.81-.4-.82-.37-.82-.34-.84-.31-.85-.29-.85-.26-.87-.24-.88-.21-.88-.17-.89-.06-.34-.06-.33-.13-.9-.1-.91-.07-.9-.05-.9-.01-.9M242.71 130.83l-.81.18-.04.01-.8.21-.8.22-.79.26-.77.27-.77.3-.05.02-.76.33-.75.35-.73.37-.73.39-.71.41-.7.44-.69.46-.68.48-.07.05-.66.5-.64.52-.63.54-.61.56-.59.57-.57.59-.55.61-.53.63-.52.64-.5.66-.48.67-.46.69-.05.08-.43.71-.41.71-.4.73-.36.74-.35.75-.32.76-.3.76-.02.05-.27.78-.25.79-.22.79-.21.8-.18.81-.15.81-.01.04-.12.82M331.54 130.32l-2.1-.13-4.16-.23-4.17-.21-2.07-.09-4.17-.17-4.18-.15-4.17-.12-4.17-.09-4.17-.07-4.18-.04-4.17-.02"/><path stroke="#231815" stroke-linecap="round" stroke-linejoin="round" d="M289.83 129h-2.16l-4.33.02-4.33.05-2.18.04-4.33.09-4.33.12-4.33.14-4.33.18-4.33.2-4.33.22-4.32.26M335.09 130.779l.81.17.07.01.81.2.8.23.8.25.78.27.78.29.08.04.76.32.76.34.74.37.73.39.72.41.71.44.7.46.68.47.13.1.67.51.65.52.63.54.61.56.59.58.58.59.56.61.53.63.53.65.5.66.48.68.46.7.09.14.44.71.41.72.39.73.37.75.34.75.32.77.3.77.27.78.03.09.25.79.22.8.2.81.17.81.15.82.01.07.13.83M221 328.33v179.13M356.81 511.211l-.13.87-.01.08-.16.86-.18.86-.21.84-.23.84-.26.84-.29.82-.03.09-.32.82-.33.8-.37.79-.38.78-.41.77-.44.76-.46.75-.48.73-.05.07-.05.09-.51.71-.53.7-.55.68-.57.66-.58.64-.61.62-.62.6-.65.59-.66.57-.68.55-.08.06-.07.05-.71.53-.71.5-.74.48-.74.45-.76.43-.77.41-.78.39-.79.36-.09.04-.81.33-.82.31-.82.28-.83.26-.85.23-.85.21-.08.02-.86.18"/></svg>