<svg width="531" height="285" viewBox="0 0 531 285" fill="none" xmlns="http://www.w3.org/2000/svg">
<rect width="531" height="285" fill="white"/>
<path d="M499.732 120.44H427.376V231.648H499.732V120.44Z" fill="#A6A7A7" stroke="#1A1311" stroke-width="1.5" stroke-miterlimit="10"/>
<path d="M195.579 120.441H208.545V115.486L218.924 112.461C218.924 112.461 220.894 113.261 219.696 114.461L211.859 116.961V120.441H218.866V127.087C218.866 127.087 219.386 128.757 222.866 128.757H365.48V231.648H195.58L195.579 120.441Z" fill="#A6A7A7"/>
<path d="M195.579 120.44V231.647H365.479V128.76H221.717C221.717 128.76 218.817 128.82 218.866 126.369V120.44H195.876" stroke="#1A1311" stroke-width="1.5" stroke-linecap="round" stroke-linejoin="round"/>
<path d="M195.578 138.263H365.479" stroke="#1A1311" stroke-width="1.5" stroke-miterlimit="10"/>
<path d="M195.578 140.291H365.479" stroke="#1A1311" stroke-width="1.5" stroke-miterlimit="10"/>
<path d="M195.578 229.51H365.479" stroke="#1A1311" stroke-width="1.5" stroke-miterlimit="10"/>
<path d="M427.376 229.51H499.732" stroke="#1A1311" stroke-width="1.5" stroke-miterlimit="10"/>
<path d="M427.376 138.263H499.732" stroke="#1A1311" stroke-width="1.5" stroke-miterlimit="10"/>
<path d="M427.376 140.291H499.732" stroke="#1A1311" stroke-width="1.5" stroke-miterlimit="10"/>
<path d="M211.634 120.066V117.619C211.634 117.384 211.711 117.156 211.852 116.969C211.993 116.781 212.191 116.645 212.416 116.58L219.525 114.535C219.751 114.47 219.949 114.333 220.09 114.146C220.231 113.959 220.307 113.731 220.307 113.496C220.307 113.329 220.268 113.163 220.192 113.014C220.117 112.864 220.008 112.734 219.874 112.633C219.74 112.533 219.584 112.465 219.42 112.435C219.255 112.405 219.085 112.414 218.924 112.461L209.324 115.273C209.1 115.339 208.903 115.475 208.763 115.663C208.623 115.85 208.547 116.077 208.547 116.311V120.069" stroke="#1A1311" stroke-width="1.5" stroke-linecap="round" stroke-linejoin="round"/>
<path d="M40.6132 145.06C49.3677 157.707 61.7317 167.42 76.0913 172.932C90.4509 178.444 106.139 179.498 121.107 175.957C136.075 172.416 149.627 164.445 159.995 153.083C170.363 141.722 177.064 127.498 179.224 112.269L204.685 108.109L179.6 93.6893C178.409 82.081 174.577 70.8991 168.4 60.9994C162.222 51.0996 153.861 42.7444 143.957 36.5731C134.053 30.4018 122.868 26.5781 111.259 25.3945C99.6501 24.2109 87.924 25.6989 76.9784 29.7445C66.0329 33.7901 56.1579 40.2861 48.1091 48.7354C40.0604 57.1847 34.0514 67.3634 30.5418 78.4924C27.0322 89.6215 26.1152 101.406 27.8608 112.944C29.6065 124.482 33.9685 135.468 40.6132 145.06Z" fill="white"/>
<path d="M40.6132 145.06C49.3677 157.707 61.7317 167.42 76.0913 172.932C90.4509 178.444 106.139 179.498 121.107 175.957C136.075 172.416 149.627 164.445 159.995 153.083C170.363 141.722 177.064 127.498 179.224 112.269L204.685 108.109L179.6 93.6893C178.409 82.081 174.577 70.8991 168.4 60.9994C162.222 51.0996 153.861 42.7444 143.957 36.5731C134.053 30.4018 122.868 26.5781 111.259 25.3945C99.6501 24.2109 87.924 25.6989 76.9784 29.7445C66.0329 33.7901 56.1579 40.2861 48.1091 48.7354C40.0604 57.1847 34.0514 67.3634 30.5418 78.4924C27.0322 89.6215 26.1152 101.406 27.8608 112.944C29.6065 124.482 33.9685 135.468 40.6132 145.06Z" stroke="#1A1311" stroke-width="1.799" stroke-miterlimit="10"/>
<path d="M365.479 235.604V257.426" stroke="#8E8E8F" stroke-width="0.7" stroke-miterlimit="10"/>
<path d="M195.578 235.604V257.426" stroke="#8E8E8F" stroke-width="0.7" stroke-miterlimit="10"/>
<path d="M364.737 247.169C364.873 247.033 364.873 246.811 364.737 246.674L362.509 244.447C362.373 244.31 362.151 244.31 362.014 244.447C361.878 244.584 361.878 244.805 362.014 244.942L363.994 246.922L362.014 248.902C361.878 249.038 361.878 249.26 362.014 249.397C362.151 249.533 362.373 249.533 362.509 249.397L364.737 247.169ZM196.242 246.674C196.105 246.811 196.105 247.033 196.242 247.169L198.469 249.397C198.606 249.533 198.827 249.533 198.964 249.397C199.101 249.26 199.101 249.038 198.964 248.902L196.984 246.922L198.964 244.942C199.101 244.805 199.101 244.584 198.964 244.447C198.827 244.31 198.606 244.31 198.469 244.447L196.242 246.674ZM364.489 246.922V246.572H196.489V246.922V247.272H364.489V246.922Z" fill="#8E8E8F"/>
<path d="M223.752 120.44H388.425" stroke="#8E8E8F" stroke-width="0.7" stroke-miterlimit="10"/>
<path d="M223.752 112.457H404.257" stroke="#8E8E8F" stroke-width="0.7" stroke-miterlimit="10"/>
<path d="M370.693 231.648H404.257" stroke="#8E8E8F" stroke-width="0.7" stroke-miterlimit="10"/>
<path d="M382.664 121.251C382.527 121.114 382.305 121.114 382.169 121.251L379.941 123.478C379.804 123.615 379.804 123.836 379.941 123.973C380.078 124.11 380.299 124.11 380.436 123.973L382.416 121.993L384.396 123.973C384.533 124.11 384.754 124.11 384.891 123.973C385.028 123.836 385.028 123.615 384.891 123.478L382.664 121.251ZM382.169 230.746C382.305 230.882 382.527 230.882 382.664 230.746L384.891 228.518C385.028 228.381 385.028 228.16 384.891 228.023C384.754 227.886 384.533 227.886 384.396 228.023L382.416 230.003L380.436 228.023C380.299 227.886 380.078 227.886 379.941 228.023C379.804 228.16 379.804 228.381 379.941 228.518L382.169 230.746ZM382.416 121.498H382.066V230.498H382.416H382.766V121.498H382.416Z" fill="#8E8E8F"/>
<path d="M395.469 113.251C395.332 113.114 395.11 113.114 394.974 113.251L392.746 115.478C392.61 115.615 392.61 115.836 392.746 115.973C392.883 116.11 393.105 116.11 393.241 115.973L395.221 113.993L397.201 115.973C397.338 116.11 397.559 116.11 397.696 115.973C397.833 115.836 397.833 115.615 397.696 115.478L395.469 113.251ZM394.974 230.746C395.11 230.882 395.332 230.882 395.469 230.746L397.696 228.518C397.833 228.381 397.833 228.16 397.696 228.023C397.559 227.886 397.338 227.886 397.201 228.023L395.221 230.003L393.241 228.023C393.105 227.886 392.883 227.886 392.746 228.023C392.61 228.16 392.61 228.381 392.746 228.518L394.974 230.746ZM395.221 113.498H394.871V230.498H395.221H395.571V113.498H395.221Z" fill="#8E8E8F"/>
<path d="M276.994 257.926H276.313V252.783C276.261 252.836 276.183 252.897 276.081 252.966C275.981 253.032 275.868 253.099 275.741 253.165C275.616 253.232 275.483 253.294 275.342 253.352C275.204 253.41 275.068 253.456 274.936 253.489V252.8C275.085 252.759 275.243 252.703 275.409 252.634C275.577 252.562 275.742 252.483 275.903 252.397C276.066 252.309 276.219 252.218 276.363 252.124C276.507 252.027 276.632 251.933 276.737 251.841H276.994V257.926ZM282.593 256.108C282.593 256.398 282.543 256.661 282.444 256.896C282.344 257.132 282.201 257.334 282.016 257.502C281.833 257.671 281.612 257.801 281.352 257.893C281.092 257.984 280.803 258.03 280.485 258.03C279.931 258.03 279.52 257.947 279.252 257.781V257.058C279.656 257.318 280.07 257.448 280.493 257.448C280.709 257.448 280.902 257.417 281.074 257.353C281.248 257.289 281.396 257.201 281.518 257.087C281.64 256.974 281.733 256.837 281.796 256.677C281.863 256.516 281.896 256.34 281.896 256.149C281.896 255.762 281.766 255.459 281.506 255.24C281.246 255.019 280.868 254.908 280.373 254.908C280.292 254.908 280.208 254.91 280.119 254.913C280.031 254.915 279.942 254.92 279.854 254.925C279.765 254.928 279.678 254.932 279.592 254.938C279.509 254.943 279.433 254.95 279.364 254.958L279.567 251.974H282.319V252.588H280.157L280.036 254.336C280.125 254.33 280.219 254.326 280.319 254.323C280.418 254.318 280.507 254.315 280.584 254.315C280.9 254.315 281.182 254.356 281.431 254.439C281.68 254.522 281.89 254.641 282.062 254.796C282.236 254.949 282.368 255.137 282.456 255.361C282.547 255.582 282.593 255.831 282.593 256.108ZM286.158 257.926H285.478V252.783C285.425 252.836 285.347 252.897 285.245 252.966C285.146 253.032 285.032 253.099 284.905 253.165C284.78 253.232 284.647 253.294 284.506 253.352C284.368 253.41 284.232 253.456 284.1 253.489V252.8C284.249 252.759 284.407 252.703 284.573 252.634C284.742 252.562 284.906 252.483 285.067 252.397C285.23 252.309 285.383 252.218 285.527 252.124C285.671 252.027 285.796 251.933 285.901 251.841H286.158V257.926Z" fill="#1A1311"/>
<path d="M499.732 235.604V257.426" stroke="#8E8E8F" stroke-width="0.7" stroke-miterlimit="10"/>
<path d="M427.376 235.604V257.426" stroke="#8E8E8F" stroke-width="0.7" stroke-miterlimit="10"/>
<path d="M499.237 247.169C499.373 247.033 499.373 246.811 499.237 246.674L497.009 244.447C496.873 244.31 496.651 244.31 496.514 244.447C496.378 244.584 496.378 244.805 496.514 244.942L498.494 246.922L496.514 248.902C496.378 249.038 496.378 249.26 496.514 249.397C496.651 249.533 496.873 249.533 497.009 249.397L499.237 247.169ZM428.242 246.674C428.105 246.811 428.105 247.033 428.242 247.169L430.469 249.397C430.606 249.533 430.827 249.533 430.964 249.397C431.101 249.26 431.101 249.038 430.964 248.902L428.984 246.922L430.964 244.942C431.101 244.805 431.101 244.584 430.964 244.447C430.827 244.31 430.606 244.31 430.469 244.447L428.242 246.674ZM498.989 246.922V246.572H428.489V246.922V247.272H498.989V246.922Z" fill="#8E8E8F"/>
<path d="M463.231 256.037C463.231 256.328 463.184 256.595 463.09 256.838C462.996 257.082 462.866 257.292 462.7 257.469C462.534 257.646 462.336 257.785 462.106 257.884C461.877 257.981 461.628 258.03 461.359 258.03C461.06 258.03 460.792 257.967 460.554 257.843C460.319 257.718 460.118 257.54 459.952 257.307C459.789 257.072 459.664 256.786 459.579 256.448C459.493 256.111 459.45 255.73 459.45 255.307C459.45 254.789 459.507 254.32 459.62 253.9C459.736 253.477 459.9 253.115 460.11 252.817C460.323 252.515 460.579 252.283 460.878 252.119C461.177 251.956 461.51 251.875 461.878 251.875C462.287 251.875 462.617 251.931 462.866 252.045V252.688C462.559 252.53 462.235 252.451 461.895 252.451C461.629 252.451 461.39 252.511 461.177 252.63C460.963 252.749 460.781 252.918 460.629 253.136C460.476 253.352 460.359 253.614 460.276 253.921C460.196 254.228 460.156 254.569 460.156 254.946H460.172C460.446 254.451 460.898 254.203 461.529 254.203C461.789 254.203 462.023 254.247 462.231 254.336C462.441 254.424 462.619 254.55 462.766 254.713C462.916 254.874 463.03 255.066 463.111 255.29C463.191 255.514 463.231 255.763 463.231 256.037ZM462.534 256.125C462.534 255.917 462.507 255.73 462.455 255.564C462.402 255.398 462.326 255.257 462.227 255.141C462.13 255.025 462.009 254.936 461.865 254.875C461.722 254.812 461.558 254.78 461.376 254.78C461.207 254.78 461.051 254.812 460.907 254.875C460.763 254.939 460.638 255.026 460.533 255.137C460.428 255.245 460.345 255.372 460.284 255.519C460.226 255.662 460.197 255.816 460.197 255.979C460.197 256.184 460.226 256.376 460.284 256.556C460.342 256.733 460.424 256.888 460.529 257.021C460.634 257.154 460.759 257.259 460.903 257.336C461.049 257.411 461.211 257.448 461.388 257.448C461.56 257.448 461.716 257.417 461.857 257.353C461.998 257.287 462.119 257.195 462.218 257.079C462.318 256.963 462.395 256.825 462.451 256.664C462.506 256.501 462.534 256.321 462.534 256.125ZM467.593 256.108C467.593 256.398 467.543 256.661 467.444 256.896C467.344 257.132 467.201 257.334 467.016 257.502C466.833 257.671 466.612 257.801 466.352 257.893C466.092 257.984 465.803 258.03 465.485 258.03C464.931 258.03 464.52 257.947 464.252 257.781V257.058C464.656 257.318 465.07 257.448 465.493 257.448C465.709 257.448 465.902 257.417 466.074 257.353C466.248 257.289 466.396 257.201 466.518 257.087C466.64 256.974 466.733 256.837 466.796 256.677C466.863 256.516 466.896 256.34 466.896 256.149C466.896 255.762 466.766 255.459 466.506 255.24C466.246 255.019 465.868 254.908 465.373 254.908C465.292 254.908 465.208 254.91 465.119 254.913C465.031 254.915 464.942 254.92 464.854 254.925C464.765 254.928 464.678 254.932 464.592 254.938C464.509 254.943 464.433 254.95 464.364 254.958L464.567 251.974H467.319V252.588H465.157L465.036 254.336C465.125 254.33 465.219 254.326 465.319 254.323C465.418 254.318 465.507 254.315 465.584 254.315C465.9 254.315 466.182 254.356 466.431 254.439C466.68 254.522 466.89 254.641 467.062 254.796C467.236 254.949 467.368 255.137 467.456 255.361C467.547 255.582 467.593 255.831 467.593 256.108Z" fill="#1A1311"/>
<path d="M485.598 89.1367V110.959" stroke="#8E8E8F" stroke-width="0.7" stroke-miterlimit="10"/>
<path d="M441.522 89.1367V110.959" stroke="#8E8E8F" stroke-width="0.7" stroke-miterlimit="10"/>
<path d="M484.737 100.701C484.873 100.564 484.873 100.342 484.737 100.206L482.509 97.9783C482.373 97.8416 482.151 97.8416 482.014 97.9783C481.878 98.1149 481.878 98.3365 482.014 98.4732L483.994 100.453L482.014 102.433C481.878 102.57 481.878 102.791 482.014 102.928C482.151 103.065 482.373 103.065 482.509 102.928L484.737 100.701ZM442.242 100.206C442.105 100.342 442.105 100.564 442.242 100.701L444.469 102.928C444.606 103.065 444.827 103.065 444.964 102.928C445.101 102.791 445.101 102.57 444.964 102.433L442.984 100.453L444.964 98.4732C445.101 98.3365 445.101 98.1149 444.964 97.9783C444.827 97.8416 444.606 97.8416 444.469 97.9783L442.242 100.206ZM484.489 100.453V100.103H442.489V100.453V100.803H484.489V100.453Z" fill="#8E8E8F"/>
<path d="M462.187 92.0464V95.9768H462.951V96.5994H462.187V97.998H461.515V96.5994H458.717V96.01C458.977 95.7167 459.24 95.4041 459.506 95.072C459.771 94.7372 460.025 94.3983 460.265 94.0552C460.509 93.7121 460.733 93.3704 460.938 93.03C461.145 92.6869 461.32 92.359 461.461 92.0464H462.187ZM459.485 95.9768H461.515V93.0632C461.307 93.4257 461.111 93.7494 460.925 94.0344C460.74 94.3194 460.563 94.5781 460.394 94.8105C460.228 95.043 460.069 95.2533 459.917 95.4414C459.765 95.6296 459.621 95.808 459.485 95.9768ZM467.197 96.313C467.197 96.5814 467.145 96.8263 467.043 97.0476C466.943 97.2662 466.801 97.4543 466.615 97.6121C466.433 97.767 466.213 97.8874 465.956 97.9731C465.698 98.0589 465.415 98.1018 465.105 98.1018C464.538 98.1018 464.087 97.9939 463.752 97.7781V97.0476C464.153 97.363 464.612 97.5208 465.13 97.5208C465.337 97.5208 465.524 97.4945 465.69 97.4419C465.859 97.3893 466.003 97.3132 466.122 97.2136C466.243 97.114 466.336 96.9937 466.4 96.8525C466.466 96.7114 466.499 96.5523 466.499 96.3752C466.499 95.5977 465.946 95.209 464.839 95.209H464.345V94.6321H464.814C465.794 94.6321 466.283 94.2668 466.283 93.5364C466.283 92.8612 465.91 92.5237 465.163 92.5237C464.742 92.5237 464.348 92.6648 463.98 92.947V92.2871C464.359 92.0602 464.81 91.9468 465.333 91.9468C465.582 91.9468 465.808 91.9814 466.01 92.0505C466.212 92.1197 466.384 92.2166 466.528 92.3411C466.672 92.4656 466.783 92.615 466.86 92.7893C466.941 92.9636 466.981 93.1559 466.981 93.3662C466.981 94.1493 466.585 94.6528 465.794 94.877V94.8936C465.996 94.9157 466.182 94.9655 466.354 95.043C466.526 95.1177 466.674 95.2159 466.798 95.3376C466.923 95.4594 467.019 95.6033 467.089 95.7693C467.161 95.9325 467.197 96.1138 467.197 96.313Z" fill="#1A1311"/>
<path d="M388.815 173.831C389.36 173.831 389.845 173.885 390.271 173.993C390.695 174.101 391.055 174.259 391.351 174.466C391.644 174.674 391.868 174.927 392.023 175.226C392.175 175.524 392.251 175.865 392.251 176.247C392.251 176.639 392.182 176.985 392.044 177.284H391.392C391.577 176.955 391.67 176.604 391.67 176.23C391.67 175.962 391.615 175.722 391.504 175.512C391.393 175.299 391.233 175.119 391.023 174.972C390.81 174.826 390.548 174.714 390.238 174.636C389.928 174.559 389.573 174.52 389.172 174.52V174.537C389.684 174.791 389.939 175.234 389.939 175.865C389.939 176.119 389.895 176.353 389.807 176.566C389.715 176.779 389.588 176.963 389.425 177.118C389.259 177.273 389.062 177.393 388.835 177.479C388.609 177.565 388.358 177.608 388.084 177.608C387.791 177.608 387.523 177.561 387.279 177.467C387.036 177.37 386.827 177.237 386.652 177.068C386.475 176.897 386.338 176.695 386.241 176.462C386.145 176.227 386.096 175.971 386.096 175.695C386.096 175.396 386.157 175.132 386.279 174.902C386.398 174.669 386.573 174.474 386.806 174.317C387.036 174.159 387.319 174.039 387.657 173.956C387.994 173.873 388.38 173.831 388.815 173.831ZM388.205 174.566C387.975 174.566 387.766 174.596 387.578 174.657C387.39 174.715 387.229 174.797 387.096 174.902C386.961 175.007 386.857 175.133 386.785 175.28C386.71 175.423 386.673 175.581 386.673 175.753C386.673 175.916 386.706 176.068 386.773 176.209C386.836 176.35 386.928 176.473 387.047 176.579C387.163 176.681 387.303 176.763 387.466 176.823C387.626 176.882 387.802 176.911 387.993 176.911C388.203 176.911 388.391 176.883 388.557 176.828C388.723 176.77 388.865 176.688 388.981 176.583C389.094 176.478 389.181 176.352 389.242 176.205C389.303 176.056 389.333 175.891 389.333 175.711C389.333 175.553 389.304 175.405 389.246 175.267C389.185 175.126 389.105 175.004 389.006 174.902C388.903 174.797 388.784 174.715 388.649 174.657C388.51 174.596 388.362 174.566 388.205 174.566ZM386.196 169.888H390.126V169.125H390.749V169.888H392.147V170.561H390.749V173.358H390.159C389.866 173.098 389.553 172.835 389.221 172.569C388.887 172.304 388.548 172.051 388.205 171.81C387.861 171.566 387.52 171.342 387.179 171.137C386.836 170.93 386.508 170.756 386.196 170.615V169.888ZM390.126 172.59V170.561H387.213C387.575 170.768 387.899 170.965 388.184 171.15C388.469 171.335 388.728 171.512 388.96 171.681C389.192 171.847 389.403 172.006 389.591 172.158C389.779 172.311 389.957 172.455 390.126 172.59Z" fill="#1A1311"/>
<path d="M402.481 173.831C403.026 173.831 403.511 173.885 403.938 173.993C404.361 174.101 404.721 174.259 405.017 174.466C405.31 174.674 405.534 174.927 405.689 175.226C405.841 175.524 405.917 175.865 405.917 176.247C405.917 176.639 405.848 176.985 405.71 177.284H405.058C405.243 176.955 405.336 176.604 405.336 176.23C405.336 175.962 405.281 175.722 405.17 175.512C405.059 175.299 404.899 175.119 404.689 174.972C404.476 174.826 404.214 174.714 403.904 174.636C403.594 174.559 403.239 174.52 402.838 174.52V174.537C403.35 174.791 403.605 175.234 403.605 175.865C403.605 176.119 403.561 176.353 403.473 176.566C403.381 176.779 403.254 176.963 403.091 177.118C402.925 177.273 402.728 177.393 402.501 177.479C402.275 177.565 402.024 177.608 401.75 177.608C401.457 177.608 401.189 177.561 400.945 177.467C400.702 177.37 400.493 177.237 400.318 177.068C400.141 176.897 400.004 176.695 399.907 176.462C399.811 176.227 399.762 175.971 399.762 175.695C399.762 175.396 399.823 175.132 399.945 174.902C400.064 174.669 400.24 174.474 400.472 174.317C400.702 174.159 400.985 174.039 401.323 173.956C401.66 173.873 402.046 173.831 402.481 173.831ZM401.871 174.566C401.641 174.566 401.432 174.596 401.244 174.657C401.056 174.715 400.895 174.797 400.762 174.902C400.627 175.007 400.523 175.133 400.451 175.28C400.376 175.423 400.339 175.581 400.339 175.753C400.339 175.916 400.372 176.068 400.439 176.209C400.502 176.35 400.594 176.473 400.713 176.579C400.829 176.681 400.969 176.763 401.132 176.823C401.292 176.882 401.468 176.911 401.659 176.911C401.869 176.911 402.057 176.883 402.223 176.828C402.389 176.77 402.531 176.688 402.647 176.583C402.76 176.478 402.847 176.352 402.908 176.205C402.969 176.056 403 175.891 403 175.711C403 175.553 402.97 175.405 402.912 175.267C402.851 175.126 402.771 175.004 402.672 174.902C402.569 174.797 402.45 174.715 402.315 174.657C402.176 174.596 402.028 174.566 401.871 174.566ZM402.481 169.249C403.026 169.249 403.511 169.303 403.938 169.411C404.361 169.519 404.721 169.677 405.017 169.884C405.31 170.092 405.534 170.345 405.689 170.644C405.841 170.942 405.917 171.283 405.917 171.665C405.917 172.057 405.848 172.403 405.71 172.702H405.058C405.243 172.373 405.336 172.021 405.336 171.648C405.336 171.38 405.281 171.14 405.17 170.93C405.059 170.717 404.899 170.537 404.689 170.39C404.476 170.244 404.214 170.132 403.904 170.054C403.594 169.977 403.239 169.938 402.838 169.938V169.955C403.35 170.209 403.605 170.652 403.605 171.283C403.605 171.537 403.561 171.771 403.473 171.984C403.381 172.197 403.254 172.381 403.091 172.536C402.925 172.691 402.728 172.811 402.501 172.897C402.275 172.983 402.024 173.026 401.75 173.026C401.457 173.026 401.189 172.979 400.945 172.885C400.702 172.788 400.493 172.655 400.318 172.486C400.141 172.315 400.004 172.113 399.907 171.88C399.811 171.645 399.762 171.389 399.762 171.113C399.762 170.814 399.823 170.549 399.945 170.32C400.064 170.087 400.24 169.892 400.472 169.735C400.702 169.577 400.985 169.457 401.323 169.374C401.66 169.291 402.046 169.249 402.481 169.249ZM401.871 169.984C401.641 169.984 401.432 170.014 401.244 170.075C401.056 170.133 400.895 170.215 400.762 170.32C400.627 170.425 400.523 170.551 400.451 170.698C400.376 170.841 400.339 170.999 400.339 171.171C400.339 171.334 400.372 171.486 400.439 171.627C400.502 171.768 400.594 171.891 400.713 171.997C400.829 172.099 400.969 172.181 401.132 172.241C401.292 172.3 401.468 172.329 401.659 172.329C401.869 172.329 402.057 172.301 402.223 172.246C402.389 172.188 402.531 172.106 402.647 172.001C402.76 171.896 402.847 171.77 402.908 171.623C402.969 171.474 403 171.309 403 171.129C403 170.971 402.97 170.823 402.912 170.685C402.851 170.544 402.771 170.422 402.672 170.32C402.569 170.215 402.45 170.133 402.315 170.075C402.176 170.014 402.028 169.984 401.871 169.984Z" fill="#1A1311"/>
<path d="M61.4404 59.5742H74.2724V68.1282H116.687L124.529 77.0392V101.989L116.777 109.741H73.9154V117.553H61.4404" stroke="#1A1311" stroke-width="1.5" stroke-linecap="round" stroke-linejoin="round"/>
<path d="M116.628 68.1289V109.743" stroke="#1A1311" stroke-width="1.5" stroke-linecap="round" stroke-linejoin="round"/>
<path d="M110.985 81.8506H90.8462V95.7516H110.985V81.8506Z" stroke="#1A1311" stroke-width="1.5" stroke-linecap="round" stroke-linejoin="round"/>
<path d="M66.4995 137.652H116.58C116.58 137.652 123.411 137.593 123.53 139.91V144.96H66.4995" stroke="#1A1311" stroke-width="1.5" stroke-linecap="round" stroke-linejoin="round"/>
<path d="M74.0444 137.652V144.959" stroke="#1A1311" stroke-width="1.5" stroke-linecap="round" stroke-linejoin="round"/>
<path d="M116.58 144.959V137.652" stroke="#1A1311" stroke-width="1.5" stroke-linecap="round" stroke-linejoin="round"/>
<path d="M121.697 68.1289H135.776" stroke="#8E8E8F" stroke-width="0.7" stroke-miterlimit="10"/>
<path d="M121.697 109.742H135.776" stroke="#8E8E8F" stroke-width="0.7" stroke-miterlimit="10"/>
<path d="M128.985 68.7506C128.848 68.6139 128.627 68.6139 128.49 68.7506L126.262 70.9779C126.126 71.1146 126.126 71.3362 126.262 71.4729C126.399 71.6096 126.621 71.6096 126.757 71.4729L128.737 69.493L130.717 71.4729C130.854 71.6096 131.075 71.6096 131.212 71.4729C131.349 71.3362 131.349 71.1146 131.212 70.9779L128.985 68.7506ZM128.49 109.246C128.627 109.382 128.848 109.382 128.985 109.246L131.212 107.018C131.349 106.881 131.349 106.66 131.212 106.523C131.075 106.386 130.854 106.386 130.717 106.523L128.737 108.503L126.757 106.523C126.621 106.386 126.399 106.386 126.262 106.523C126.126 106.66 126.126 106.881 126.262 107.018L128.49 109.246ZM128.737 68.998H128.387V108.998H128.737H129.087V68.998H128.737Z" fill="#8E8E8F"/>
<path d="M125.697 137.652H139.776" stroke="#8E8E8F" stroke-width="0.7" stroke-miterlimit="10"/>
<path d="M125.697 144.96H139.776" stroke="#8E8E8F" stroke-width="0.7" stroke-miterlimit="10"/>
<path d="M132.985 138.251C132.848 138.114 132.627 138.114 132.49 138.251L130.262 140.478C130.126 140.615 130.126 140.836 130.262 140.973C130.399 141.11 130.621 141.11 130.757 140.973L132.737 138.993L134.717 140.973C134.854 141.11 135.075 141.11 135.212 140.973C135.349 140.836 135.349 140.615 135.212 140.478L132.985 138.251ZM132.49 144.246C132.627 144.382 132.848 144.382 132.985 144.246L135.212 142.018C135.349 141.881 135.349 141.66 135.212 141.523C135.075 141.386 134.854 141.386 134.717 141.523L132.737 143.503L130.757 141.523C130.621 141.386 130.399 141.386 130.262 141.523C130.126 141.66 130.126 141.881 130.262 142.018L132.49 144.246ZM132.737 138.498H132.387V143.998H132.737H133.087V138.498H132.737Z" fill="#8E8E8F"/>
<path d="M121.697 59.5742H152.915" stroke="#8E8E8F" stroke-width="0.7" stroke-miterlimit="10"/>
<path d="M121.697 117.554H152.915" stroke="#8E8E8F" stroke-width="0.7" stroke-miterlimit="10"/>
<path d="M143.124 60.2506C142.987 60.1139 142.766 60.1139 142.629 60.2506L140.402 62.4779C140.265 62.6146 140.265 62.8362 140.402 62.9729C140.538 63.1096 140.76 63.1096 140.897 62.9729L142.876 60.993L144.856 62.9729C144.993 63.1096 145.215 63.1096 145.351 62.9729C145.488 62.8362 145.488 62.6146 145.351 62.4779L143.124 60.2506ZM142.629 116.746C142.766 116.882 142.987 116.882 143.124 116.746L145.351 114.518C145.488 114.381 145.488 114.16 145.351 114.023C145.215 113.886 144.993 113.886 144.856 114.023L142.876 116.003L140.897 114.023C140.76 113.886 140.538 113.886 140.402 114.023C140.265 114.16 140.265 114.381 140.402 114.518L142.629 116.746ZM142.876 60.498H142.526V116.498H142.876H143.226V60.498H142.876Z" fill="#8E8E8F"/>
<path d="M124.529 106.846V135.133" stroke="#8E8E8F" stroke-width="0.7" stroke-miterlimit="10"/>
<path d="M74.2725 119.523V135.132" stroke="#8E8E8F" stroke-width="0.7" stroke-miterlimit="10"/>
<path d="M123.737 127.576C123.873 127.439 123.873 127.217 123.737 127.081L121.509 124.853C121.373 124.717 121.151 124.717 121.014 124.853C120.878 124.99 120.878 125.212 121.014 125.348L122.994 127.328L121.014 129.308C120.878 129.445 120.878 129.666 121.014 129.803C121.151 129.94 121.373 129.94 121.509 129.803L123.737 127.576ZM74.7418 127.081C74.6051 127.217 74.6051 127.439 74.7418 127.576L76.9692 129.803C77.1058 129.94 77.3274 129.94 77.4641 129.803C77.6008 129.666 77.6008 129.445 77.4641 129.308L75.4842 127.328L77.4641 125.348C77.6008 125.212 77.6008 124.99 77.4641 124.853C77.3274 124.717 77.1058 124.717 76.9692 124.853L74.7418 127.081ZM123.489 127.328V126.978H74.9893V127.328V127.678H123.489V127.328Z" fill="#8E8E8F"/>
<path d="M132.746 93.4702H136.676V92.7065H137.299V93.4702H138.697V94.1426H137.299V96.9399H136.709C136.416 96.6799 136.103 96.417 135.771 96.1514C135.436 95.8857 135.097 95.6326 134.754 95.3918C134.411 95.1484 134.07 94.9242 133.729 94.7195C133.386 94.512 133.058 94.3376 132.746 94.1965V93.4702ZM136.676 96.1721V94.1426H133.762C134.125 94.3501 134.449 94.5465 134.734 94.7319C135.019 94.9173 135.277 95.0944 135.51 95.2632C135.742 95.4292 135.952 95.5883 136.141 95.7405C136.329 95.8927 136.507 96.0365 136.676 96.1721ZM138.789 91.4905C138.789 91.6178 138.743 91.7271 138.652 91.8184C138.56 91.9069 138.451 91.9512 138.324 91.9512C138.196 91.9512 138.087 91.9069 137.996 91.8184C137.902 91.7271 137.855 91.6178 137.855 91.4905C137.855 91.3604 137.902 91.2498 137.996 91.1584C138.087 91.0671 138.196 91.0215 138.324 91.0215C138.451 91.0215 138.56 91.0671 138.652 91.1584C138.743 91.2498 138.789 91.3604 138.789 91.4905ZM133.14 86.3813C133.298 86.4727 133.494 86.5833 133.729 86.7134C133.964 86.8407 134.229 86.9762 134.522 87.1201C134.815 87.264 135.131 87.4106 135.468 87.5601C135.806 87.7095 136.154 87.8492 136.514 87.9792C136.874 88.1093 137.239 88.2241 137.61 88.3237C137.978 88.4206 138.34 88.4911 138.697 88.5354V89.2659C138.343 89.2161 137.982 89.14 137.614 89.0376C137.243 88.9325 136.881 88.8149 136.527 88.6848C136.17 88.552 135.827 88.4123 135.497 88.2656C135.168 88.119 134.865 87.9765 134.588 87.8381C134.312 87.6998 134.068 87.5739 133.858 87.4604C133.645 87.3442 133.479 87.2515 133.36 87.1824V90.1665H132.746V86.3813H133.14ZM136.879 81.9695C137.17 81.9695 137.433 82.0193 137.668 82.1189C137.903 82.2185 138.105 82.361 138.274 82.5464C138.443 82.729 138.573 82.9504 138.664 83.2104C138.755 83.4705 138.801 83.7597 138.801 84.0779C138.801 84.6313 138.718 85.0422 138.552 85.3105H137.83C138.09 84.9066 138.22 84.4929 138.22 84.0696C138.22 83.8538 138.188 83.6601 138.125 83.4885C138.061 83.3142 137.972 83.1662 137.859 83.0444C137.745 82.9227 137.608 82.83 137.448 82.7664C137.288 82.7 137.112 82.6667 136.921 82.6667C136.534 82.6667 136.231 82.7968 136.012 83.0569C135.791 83.317 135.68 83.6947 135.68 84.1899C135.68 84.2702 135.681 84.3546 135.684 84.4431C135.687 84.5317 135.691 84.6202 135.697 84.7087C135.699 84.7973 135.703 84.8844 135.709 84.9702C135.715 85.0532 135.721 85.1293 135.73 85.1985L132.746 84.9951V82.2434H133.36V84.4058L135.107 84.5261C135.102 84.4376 135.097 84.3435 135.095 84.2439C135.089 84.1443 135.086 84.0557 135.086 83.9783C135.086 83.6628 135.128 83.3806 135.211 83.1316C135.294 82.8826 135.413 82.6723 135.568 82.5007C135.72 82.3264 135.908 82.195 136.132 82.1064C136.354 82.0151 136.603 81.9695 136.879 81.9695Z" fill="#1A1311"/>
<path d="M150.978 90.7563C151.268 90.7563 151.535 90.8034 151.779 90.8975C152.022 90.9915 152.233 91.1216 152.41 91.2876C152.587 91.4536 152.725 91.6514 152.825 91.8811C152.922 92.1108 152.97 92.3598 152.97 92.6282C152.97 92.927 152.908 93.1954 152.783 93.4333C152.659 93.6685 152.48 93.8691 152.248 94.0352C152.013 94.1984 151.726 94.3229 151.389 94.4087C151.051 94.4945 150.671 94.5374 150.247 94.5374C149.73 94.5374 149.261 94.4806 148.84 94.3672C148.417 94.251 148.056 94.0877 147.757 93.8774C147.455 93.6644 147.223 93.4084 147.06 93.1096C146.897 92.8108 146.815 92.4774 146.815 92.1094C146.815 91.6999 146.872 91.3706 146.985 91.1216H147.628C147.471 91.4287 147.392 91.7524 147.392 92.0928C147.392 92.3584 147.451 92.5977 147.57 92.8108C147.689 93.0238 147.858 93.2065 148.077 93.3586C148.292 93.5108 148.554 93.6284 148.861 93.7114C149.168 93.7917 149.51 93.8318 149.886 93.8318V93.8152C149.391 93.5413 149.143 93.0889 149.143 92.458C149.143 92.1979 149.188 91.9641 149.276 91.7566C149.365 91.5463 149.491 91.3678 149.654 91.2212C149.814 91.0718 150.007 90.9569 150.231 90.8767C150.455 90.7965 150.704 90.7563 150.978 90.7563ZM151.065 91.4536C150.857 91.4536 150.671 91.4799 150.505 91.5325C150.339 91.585 150.198 91.6611 150.081 91.7607C149.965 91.8576 149.877 91.9779 149.816 92.1218C149.752 92.2657 149.72 92.429 149.72 92.6116C149.72 92.7804 149.752 92.9367 149.816 93.0806C149.879 93.2244 149.966 93.349 150.077 93.4541C150.185 93.5592 150.312 93.6423 150.459 93.7031C150.603 93.7612 150.756 93.7903 150.92 93.7903C151.124 93.7903 151.317 93.7612 151.497 93.7031C151.674 93.645 151.829 93.5634 151.961 93.4583C152.094 93.3531 152.199 93.2286 152.277 93.0847C152.352 92.9381 152.389 92.7762 152.389 92.5991C152.389 92.4276 152.357 92.2712 152.293 92.1301C152.227 91.989 152.136 91.8687 152.02 91.769C151.903 91.6694 151.765 91.592 151.604 91.5366C151.441 91.4813 151.261 91.4536 151.065 91.4536ZM152.958 89.4905C152.958 89.6178 152.912 89.7271 152.821 89.8184C152.729 89.9069 152.62 89.9512 152.493 89.9512C152.365 89.9512 152.256 89.9069 152.165 89.8184C152.071 89.7271 152.024 89.6178 152.024 89.4905C152.024 89.3604 152.071 89.2498 152.165 89.1584C152.256 89.0671 152.365 89.0215 152.493 89.0215C152.62 89.0215 152.729 89.0671 152.821 89.1584C152.912 89.2498 152.958 89.3604 152.958 89.4905ZM150.978 84.3315C151.268 84.3315 151.535 84.3786 151.779 84.4727C152.022 84.5667 152.233 84.6968 152.41 84.8628C152.587 85.0288 152.725 85.2266 152.825 85.4563C152.922 85.686 152.97 85.935 152.97 86.2034C152.97 86.5022 152.908 86.7706 152.783 87.0085C152.659 87.2437 152.48 87.4443 152.248 87.6104C152.013 87.7736 151.726 87.8981 151.389 87.9839C151.051 88.0697 150.671 88.1125 150.247 88.1125C149.73 88.1125 149.261 88.0558 148.84 87.9424C148.417 87.8262 148.056 87.6629 147.757 87.4526C147.455 87.2396 147.223 86.9836 147.06 86.6848C146.897 86.386 146.815 86.0526 146.815 85.6846C146.815 85.2751 146.872 84.9458 146.985 84.6968H147.628C147.471 85.0039 147.392 85.3276 147.392 85.668C147.392 85.9336 147.451 86.1729 147.57 86.386C147.689 86.599 147.858 86.7817 148.077 86.9338C148.292 87.086 148.554 87.2036 148.861 87.2866C149.168 87.3669 149.51 87.407 149.886 87.407V87.3904C149.391 87.1165 149.143 86.6641 149.143 86.0332C149.143 85.7731 149.188 85.5393 149.276 85.3318C149.365 85.1215 149.491 84.943 149.654 84.7964C149.814 84.647 150.007 84.5321 150.231 84.4519C150.455 84.3717 150.704 84.3315 150.978 84.3315ZM151.065 85.0288C150.857 85.0288 150.671 85.0551 150.505 85.1077C150.339 85.1602 150.198 85.2363 150.081 85.3359C149.965 85.4328 149.877 85.5531 149.816 85.697C149.752 85.8409 149.72 86.0042 149.72 86.1868C149.72 86.3556 149.752 86.5119 149.816 86.6558C149.879 86.7996 149.966 86.9242 150.077 87.0293C150.185 87.1344 150.312 87.2174 150.459 87.2783C150.603 87.3364 150.756 87.3655 150.92 87.3655C151.124 87.3655 151.317 87.3364 151.497 87.2783C151.674 87.2202 151.829 87.1386 151.961 87.0334C152.094 86.9283 152.199 86.8038 152.277 86.6599C152.352 86.5133 152.389 86.3514 152.389 86.1743C152.389 86.0028 152.357 85.8464 152.293 85.7053C152.227 85.5642 152.136 85.4438 152.02 85.3442C151.903 85.2446 151.765 85.1672 151.604 85.1118C151.441 85.0565 151.261 85.0288 151.065 85.0288Z" fill="#1A1311"/>
<path d="M146.161 142.765C146.659 142.765 147.1 142.81 147.485 142.902C147.869 142.99 148.195 143.12 148.46 143.292C148.723 143.461 148.924 143.669 149.062 143.918C149.198 144.165 149.265 144.446 149.265 144.761C149.265 145.06 149.2 145.327 149.07 145.562C148.938 145.794 148.745 145.991 148.493 146.151C148.242 146.312 147.933 146.434 147.568 146.517C147.2 146.6 146.779 146.641 146.306 146.641C145.786 146.641 145.327 146.598 144.928 146.512C144.53 146.424 144.196 146.295 143.928 146.126C143.657 145.958 143.453 145.749 143.318 145.5C143.18 145.248 143.11 144.96 143.11 144.636C143.11 143.389 144.127 142.765 146.161 142.765ZM146.227 143.462C144.534 143.462 143.687 143.865 143.687 144.67C143.687 145.519 144.549 145.944 146.273 145.944C147.881 145.944 148.684 145.527 148.684 144.695C148.684 143.873 147.865 143.462 146.227 143.462ZM149.253 141.49C149.253 141.618 149.207 141.727 149.116 141.818C149.025 141.907 148.915 141.951 148.788 141.951C148.661 141.951 148.552 141.907 148.46 141.818C148.366 141.727 148.319 141.618 148.319 141.49C148.319 141.36 148.366 141.25 148.46 141.158C148.552 141.067 148.661 141.021 148.788 141.021C148.915 141.021 149.025 141.067 149.116 141.158C149.207 141.25 149.253 141.36 149.253 141.49ZM147.501 140.2C147.344 140.2 147.186 140.175 147.028 140.125C146.868 140.075 146.718 140.005 146.58 139.913C146.442 139.819 146.316 139.704 146.202 139.569C146.089 139.431 145.999 139.274 145.933 139.1C145.789 139.357 145.605 139.562 145.381 139.714C145.154 139.866 144.903 139.942 144.629 139.942C144.411 139.942 144.209 139.901 144.023 139.818C143.838 139.732 143.678 139.615 143.542 139.465C143.406 139.316 143.301 139.139 143.227 138.934C143.149 138.729 143.11 138.508 143.11 138.27C143.11 138.029 143.149 137.806 143.227 137.602C143.304 137.397 143.411 137.22 143.546 137.07C143.682 136.921 143.842 136.805 144.028 136.722C144.213 136.639 144.414 136.597 144.629 136.597C144.903 136.597 145.154 136.673 145.381 136.825C145.605 136.978 145.789 137.18 145.933 137.431C145.999 137.26 146.089 137.106 146.202 136.971C146.316 136.835 146.442 136.722 146.58 136.63C146.718 136.536 146.868 136.464 147.028 136.415C147.186 136.365 147.344 136.34 147.501 136.34C147.762 136.34 148 136.387 148.215 136.481C148.431 136.575 148.617 136.708 148.771 136.879C148.924 137.048 149.043 137.252 149.128 137.49C149.214 137.725 149.257 137.985 149.257 138.27C149.257 138.552 149.214 138.811 149.128 139.046C149.043 139.281 148.924 139.484 148.771 139.656C148.617 139.828 148.431 139.962 148.215 140.059C148 140.153 147.762 140.2 147.501 140.2ZM147.443 139.461C147.629 139.461 147.796 139.433 147.946 139.378C148.095 139.32 148.222 139.24 148.327 139.137C148.433 139.032 148.514 138.906 148.572 138.76C148.628 138.61 148.655 138.445 148.655 138.266C148.655 138.091 148.626 137.931 148.568 137.784C148.51 137.638 148.428 137.512 148.323 137.406C148.218 137.299 148.091 137.216 147.941 137.157C147.792 137.097 147.626 137.066 147.443 137.066C147.277 137.066 147.122 137.095 146.979 137.153C146.832 137.209 146.703 137.289 146.593 137.394C146.482 137.499 146.395 137.625 146.331 137.772C146.267 137.918 146.236 138.083 146.236 138.266C146.236 138.437 146.266 138.596 146.327 138.743C146.385 138.887 146.468 139.013 146.576 139.121C146.681 139.226 146.808 139.309 146.958 139.37C147.104 139.431 147.266 139.461 147.443 139.461ZM144.683 139.249C144.824 139.249 144.956 139.224 145.078 139.175C145.197 139.122 145.302 139.051 145.393 138.963C145.482 138.872 145.552 138.766 145.605 138.647C145.655 138.528 145.679 138.401 145.679 138.266C145.679 138.13 145.653 138.003 145.601 137.884C145.548 137.762 145.477 137.657 145.389 137.568C145.298 137.48 145.192 137.409 145.073 137.357C144.952 137.304 144.822 137.278 144.683 137.278C144.539 137.278 144.407 137.304 144.285 137.357C144.163 137.406 144.058 137.476 143.969 137.564C143.881 137.653 143.812 137.758 143.762 137.88C143.709 137.999 143.683 138.127 143.683 138.266C143.683 138.412 143.709 138.546 143.762 138.668C143.815 138.787 143.886 138.891 143.978 138.979C144.066 139.065 144.171 139.132 144.293 139.179C144.415 139.226 144.545 139.249 144.683 139.249Z" fill="#1A1311"/>
<path d="M95.231 123.461C95.231 123.752 95.1839 124.019 95.0898 124.262C94.9958 124.506 94.8657 124.716 94.6997 124.893C94.5337 125.07 94.3359 125.208 94.1062 125.308C93.8765 125.405 93.6275 125.453 93.3591 125.453C93.0603 125.453 92.7919 125.391 92.554 125.267C92.3188 125.142 92.1182 124.964 91.9521 124.731C91.7889 124.496 91.6644 124.21 91.5786 123.872C91.4928 123.535 91.45 123.154 91.45 122.731C91.45 122.213 91.5067 121.744 91.6201 121.324C91.7363 120.9 91.8996 120.539 92.1099 120.24C92.3229 119.939 92.5789 119.706 92.8777 119.543C93.1765 119.38 93.5099 119.298 93.8779 119.298C94.2874 119.298 94.6167 119.355 94.8657 119.469V120.112C94.5586 119.954 94.2349 119.875 93.8945 119.875C93.6289 119.875 93.3896 119.935 93.1765 120.054C92.9635 120.173 92.7808 120.341 92.6287 120.56C92.4765 120.776 92.3589 121.037 92.2759 121.344C92.1956 121.652 92.1555 121.993 92.1555 122.37H92.1721C92.446 121.874 92.8984 121.627 93.5293 121.627C93.7894 121.627 94.0232 121.671 94.2307 121.76C94.441 121.848 94.6195 121.974 94.7661 122.137C94.9155 122.298 95.0304 122.49 95.1106 122.714C95.1908 122.938 95.231 123.187 95.231 123.461ZM94.5337 123.548C94.5337 123.341 94.5074 123.154 94.4548 122.988C94.4023 122.822 94.3262 122.681 94.2266 122.565C94.1297 122.448 94.0094 122.36 93.8655 122.299C93.7216 122.235 93.5583 122.204 93.3757 122.204C93.2069 122.204 93.0506 122.235 92.9067 122.299C92.7629 122.363 92.6383 122.45 92.5332 122.561C92.4281 122.668 92.3451 122.796 92.2842 122.942C92.2261 123.086 92.197 123.24 92.197 123.403C92.197 123.608 92.2261 123.8 92.2842 123.98C92.3423 124.157 92.4239 124.312 92.5291 124.445C92.6342 124.578 92.7587 124.683 92.9026 124.76C93.0492 124.835 93.2111 124.872 93.3882 124.872C93.5597 124.872 93.7161 124.84 93.8572 124.777C93.9983 124.71 94.1187 124.619 94.2183 124.503C94.3179 124.387 94.3953 124.248 94.4507 124.088C94.506 123.925 94.5337 123.745 94.5337 123.548ZM96.4968 125.441C96.3695 125.441 96.2603 125.395 96.1689 125.304C96.0804 125.213 96.0361 125.103 96.0361 124.976C96.0361 124.849 96.0804 124.74 96.1689 124.648C96.2603 124.554 96.3695 124.507 96.4968 124.507C96.6269 124.507 96.7375 124.554 96.8289 124.648C96.9202 124.74 96.9658 124.849 96.9658 124.976C96.9658 125.103 96.9202 125.213 96.8289 125.304C96.7375 125.395 96.6269 125.441 96.4968 125.441ZM101.369 123.665C101.369 123.933 101.318 124.178 101.216 124.399C101.116 124.618 100.974 124.806 100.788 124.964C100.606 125.119 100.386 125.239 100.128 125.325C99.8711 125.41 99.5875 125.453 99.2776 125.453C98.7104 125.453 98.2594 125.345 97.9246 125.13V124.399C98.3258 124.715 98.7851 124.872 99.3025 124.872C99.51 124.872 99.6968 124.846 99.8628 124.793C100.032 124.741 100.175 124.665 100.294 124.565C100.416 124.466 100.509 124.345 100.573 124.204C100.639 124.063 100.672 123.904 100.672 123.727C100.672 122.949 100.119 122.561 99.012 122.561H98.5181V121.984H98.9871C99.9666 121.984 100.456 121.618 100.456 120.888C100.456 120.213 100.083 119.875 99.3357 119.875C98.9151 119.875 98.5208 120.016 98.1528 120.299V119.639C98.5319 119.412 98.9829 119.298 99.5059 119.298C99.7549 119.298 99.9804 119.333 100.182 119.402C100.384 119.471 100.557 119.568 100.701 119.693C100.845 119.817 100.956 119.967 101.033 120.141C101.113 120.315 101.154 120.507 101.154 120.718C101.154 121.501 100.758 122.004 99.9666 122.229V122.245C100.169 122.267 100.355 122.317 100.527 122.395C100.698 122.469 100.846 122.567 100.971 122.689C101.095 122.811 101.192 122.955 101.261 123.121C101.333 123.284 101.369 123.465 101.369 123.665ZM106.018 123.532C106.018 123.822 105.968 124.085 105.868 124.32C105.769 124.556 105.626 124.757 105.441 124.926C105.258 125.095 105.037 125.225 104.777 125.316C104.517 125.408 104.228 125.453 103.909 125.453C103.356 125.453 102.945 125.37 102.677 125.204V124.482C103.081 124.742 103.494 124.872 103.918 124.872C104.134 124.872 104.327 124.84 104.499 124.777C104.673 124.713 104.821 124.625 104.943 124.511C105.065 124.398 105.157 124.261 105.221 124.1C105.287 123.94 105.321 123.764 105.321 123.573C105.321 123.186 105.191 122.883 104.93 122.664C104.67 122.443 104.293 122.332 103.797 122.332C103.717 122.332 103.633 122.334 103.544 122.336C103.456 122.339 103.367 122.343 103.279 122.349C103.19 122.352 103.103 122.356 103.017 122.361C102.934 122.367 102.858 122.374 102.789 122.382L102.992 119.398H105.744V120.012H103.582L103.461 121.76C103.55 121.754 103.644 121.75 103.743 121.747C103.843 121.742 103.932 121.739 104.009 121.739C104.324 121.739 104.607 121.78 104.856 121.863C105.105 121.946 105.315 122.065 105.487 122.22C105.661 122.372 105.792 122.561 105.881 122.785C105.972 123.006 106.018 123.255 106.018 123.532Z" fill="#1A1311"/>
<path d="M252.809 186.949V180.84H254.515C255.021 180.84 255.43 180.969 255.74 181.226C256.052 181.48 256.208 181.818 256.208 182.239C256.208 182.576 256.116 182.876 255.93 183.139C255.748 183.399 255.49 183.583 255.158 183.691V183.708C255.571 183.752 255.9 183.908 256.146 184.177C256.392 184.442 256.516 184.783 256.516 185.198C256.516 185.718 256.329 186.14 255.955 186.464C255.582 186.787 255.113 186.949 254.548 186.949H252.809ZM253.478 181.467V183.471H254.22C254.63 183.471 254.947 183.374 255.171 183.181C255.395 182.984 255.507 182.714 255.507 182.371C255.507 181.768 255.113 181.467 254.324 181.467H253.478ZM253.478 184.09V186.327H254.469C254.89 186.327 255.219 186.226 255.457 186.024C255.695 185.819 255.814 185.541 255.814 185.189C255.814 184.456 255.312 184.09 254.308 184.09H253.478ZM257.781 182.898C258.208 182.625 258.697 182.488 259.251 182.488C260.263 182.488 260.77 183.024 260.77 184.098V186.949H260.11V186.264H260.085C259.783 186.79 259.337 187.053 258.744 187.053C258.318 187.053 257.979 186.94 257.728 186.713C257.479 186.483 257.354 186.177 257.354 185.795C257.354 184.985 257.833 184.513 258.79 184.38L260.106 184.189C260.106 183.431 259.804 183.052 259.201 183.052C258.67 183.052 258.197 183.233 257.781 183.596V182.898ZM259.039 184.878C258.699 184.922 258.447 185.005 258.284 185.127C258.12 185.249 258.039 185.456 258.039 185.75C258.039 185.971 258.116 186.15 258.271 186.285C258.429 186.421 258.635 186.489 258.89 186.489C259.241 186.489 259.532 186.364 259.761 186.115C259.991 185.866 260.106 185.553 260.106 185.177V184.737L259.039 184.878ZM265.057 186.746C264.714 186.951 264.32 187.053 263.874 187.053C263.266 187.053 262.769 186.854 262.384 186.455C262 186.057 261.807 185.528 261.807 184.87C261.807 184.148 262.011 183.571 262.417 183.139C262.827 182.705 263.373 182.488 264.057 182.488C264.433 182.488 264.768 182.558 265.061 182.699V183.388C264.735 183.159 264.388 183.044 264.02 183.044C263.574 183.044 263.205 183.206 262.911 183.529C262.621 183.85 262.476 184.278 262.476 184.812C262.476 185.321 262.608 185.729 262.874 186.036C263.142 186.34 263.509 186.493 263.974 186.493C264.358 186.493 264.72 186.365 265.057 186.111V186.746ZM269.693 186.949H268.759L266.796 184.857H266.78V186.949H266.12V180.495H266.78V184.588H266.796L268.66 182.587H269.531L267.481 184.7L269.693 186.949ZM273.91 186.949H273.25V186.26H273.233C272.946 186.789 272.497 187.053 271.889 187.053C270.848 187.053 270.328 186.433 270.328 185.194V182.587H270.98V185.086C270.98 186.024 271.337 186.493 272.051 186.493C272.399 186.493 272.686 186.364 272.91 186.107C273.137 185.847 273.25 185.51 273.25 185.098V182.587H273.91V186.949ZM275.993 186.31V188.958H275.333V182.587H275.993V183.359H276.01C276.356 182.778 276.859 182.488 277.521 182.488C278.074 182.488 278.511 182.683 278.832 183.073C279.153 183.46 279.314 183.983 279.314 184.642C279.314 185.378 279.132 185.964 278.77 186.401C278.41 186.836 277.927 187.053 277.322 187.053C276.754 187.053 276.317 186.805 276.01 186.31H275.993ZM275.993 185.181C275.993 185.544 276.114 185.854 276.354 186.111C276.598 186.365 276.901 186.493 277.263 186.493C277.692 186.493 278.028 186.328 278.272 185.999C278.518 185.67 278.641 185.21 278.641 184.621C278.641 184.137 278.525 183.753 278.293 183.471C278.063 183.186 277.756 183.044 277.371 183.044C276.97 183.044 276.639 183.186 276.379 183.471C276.122 183.756 275.993 184.116 275.993 184.55V185.181ZM283.522 186.949V180.84H285.228C285.734 180.84 286.142 180.969 286.452 181.226C286.765 181.48 286.921 181.818 286.921 182.239C286.921 182.576 286.829 182.876 286.643 183.139C286.461 183.399 286.203 183.583 285.871 183.691V183.708C286.284 183.752 286.613 183.908 286.859 184.177C287.105 184.442 287.229 184.783 287.229 185.198C287.229 185.718 287.042 186.14 286.668 186.464C286.295 186.787 285.826 186.949 285.261 186.949H283.522ZM284.19 181.467V183.471H284.933C285.343 183.471 285.66 183.374 285.884 183.181C286.108 182.984 286.22 182.714 286.22 182.371C286.22 181.768 285.826 181.467 285.037 181.467H284.19ZM284.19 184.09V186.327H285.182C285.603 186.327 285.932 186.226 286.17 186.024C286.408 185.819 286.527 185.541 286.527 185.189C286.527 184.456 286.025 184.09 285.021 184.09H284.19ZM288.494 182.898C288.92 182.625 289.41 182.488 289.964 182.488C290.976 182.488 291.483 183.024 291.483 184.098V186.949H290.823V186.264H290.798C290.496 186.79 290.049 187.053 289.457 187.053C289.031 187.053 288.692 186.94 288.44 186.713C288.191 186.483 288.067 186.177 288.067 185.795C288.067 184.985 288.546 184.513 289.503 184.38L290.819 184.189C290.819 183.431 290.517 183.052 289.914 183.052C289.383 183.052 288.909 183.233 288.494 183.596V182.898ZM289.752 184.878C289.412 184.922 289.16 185.005 288.997 185.127C288.833 185.249 288.752 185.456 288.752 185.75C288.752 185.971 288.829 186.15 288.984 186.285C289.142 186.421 289.348 186.489 289.603 186.489C289.954 186.489 290.244 186.364 290.474 186.115C290.704 185.866 290.819 185.553 290.819 185.177V184.737L289.752 184.878ZM294.799 186.908C294.633 186.999 294.421 187.045 294.164 187.045C293.414 187.045 293.039 186.623 293.039 185.779V183.156H292.284V182.587H293.039V181.516L293.695 181.305V182.587H294.799V183.156H293.695V185.658C293.695 185.966 293.746 186.18 293.848 186.302C293.951 186.424 294.117 186.484 294.346 186.484C294.521 186.484 294.672 186.436 294.799 186.339V186.908ZM297.729 186.908C297.563 186.999 297.351 187.045 297.094 187.045C296.344 187.045 295.969 186.623 295.969 185.779V183.156H295.214V182.587H295.969V181.516L296.625 181.305V182.587H297.729V183.156H296.625V185.658C296.625 185.966 296.676 186.18 296.779 186.302C296.881 186.424 297.047 186.484 297.277 186.484C297.451 186.484 297.602 186.436 297.729 186.339V186.908ZM302.153 184.932H299.061C299.075 185.436 299.209 185.822 299.464 186.09C299.721 186.356 300.066 186.489 300.497 186.489C300.995 186.489 301.449 186.324 301.859 185.995V186.625C301.469 186.91 300.964 187.053 300.344 187.053C299.729 187.053 299.248 186.852 298.899 186.451C298.554 186.047 298.381 185.49 298.381 184.779C298.381 184.117 298.572 183.571 298.953 183.139C299.335 182.705 299.808 182.488 300.373 182.488C300.937 182.488 301.374 182.673 301.684 183.044C301.997 183.412 302.153 183.922 302.153 184.575V184.932ZM301.473 184.351C301.473 183.944 301.374 183.626 301.178 183.396C300.984 183.167 300.713 183.052 300.365 183.052C300.035 183.052 299.752 183.171 299.514 183.409C299.276 183.644 299.128 183.958 299.07 184.351H301.473ZM305.465 183.264C305.341 183.17 305.165 183.123 304.938 183.123C304.639 183.123 304.389 183.268 304.187 183.558C303.985 183.849 303.884 184.235 303.884 184.716V186.949H303.224V182.587H303.884V183.492H303.901C304 183.185 304.151 182.945 304.353 182.774C304.558 182.6 304.786 182.512 305.038 182.512C305.22 182.512 305.363 182.532 305.465 182.571V183.264ZM309.657 182.587L307.636 187.671C307.282 188.56 306.788 189.004 306.154 189.004C306.005 189.004 305.861 188.987 305.723 188.954V188.352C305.864 188.399 305.998 188.423 306.125 188.423C306.479 188.423 306.745 188.21 306.922 187.783L307.279 186.941L305.577 182.587H306.308L307.511 185.99C307.52 186.013 307.55 186.116 307.603 186.302H307.624L307.707 185.999L308.972 182.587H309.657Z" fill="#1A1311"/>
<path d="M90.3745 38.9329H88.6106V44.4238H87.9341V38.9329H86.1785V38.3145H90.3745V38.9329ZM94.7324 42.4067H91.6404C91.6542 42.9103 91.7884 43.2963 92.043 43.5647C92.3003 43.8303 92.6448 43.9631 93.0764 43.9631C93.5745 43.9631 94.0282 43.7985 94.4377 43.4692V44.1001C94.0476 44.3851 93.5426 44.5276 92.9229 44.5276C92.3086 44.5276 91.8271 44.327 91.4785 43.9258C91.1326 43.5218 90.9597 42.9643 90.9597 42.2532C90.9597 41.5919 91.1506 41.0454 91.5325 40.6138C91.9143 40.1794 92.3875 39.9622 92.9519 39.9622C93.5164 39.9622 93.9535 40.1475 94.2634 40.5183C94.5761 40.8863 94.7324 41.3968 94.7324 42.0498V42.4067ZM94.0518 41.8257C94.0518 41.4189 93.9535 41.1007 93.7571 40.8711C93.5634 40.6414 93.2922 40.5266 92.9436 40.5266C92.6143 40.5266 92.3307 40.6456 92.0928 40.8835C91.8548 41.1187 91.7068 41.4328 91.6487 41.8257H94.0518ZM98.0444 40.7383C97.9199 40.6442 97.7442 40.5972 97.5173 40.5972C97.2185 40.5972 96.9681 40.7424 96.7661 41.033C96.5641 41.3235 96.4631 41.7095 96.4631 42.1909V44.4238H95.8032V40.0618H96.4631V40.9666H96.4797C96.5793 40.6594 96.7301 40.4201 96.9321 40.2485C97.1369 40.0742 97.3652 39.9871 97.6169 39.9871C97.7996 39.9871 97.9421 40.0064 98.0444 40.0452V40.7383ZM104.955 44.4238H104.295V41.9211C104.295 41.4093 104.217 41.0482 104.062 40.8379C103.91 40.6248 103.657 40.5183 103.303 40.5183C103.004 40.5183 102.747 40.6594 102.531 40.9417C102.318 41.2211 102.211 41.5518 102.211 41.9336V44.4238H101.556V41.8298C101.556 40.9555 101.218 40.5183 100.543 40.5183C100.236 40.5183 99.9799 40.6511 99.7751 40.9167C99.5704 41.1796 99.468 41.5186 99.468 41.9336V44.4238H98.8081V40.0618H99.468V40.7549H99.4846C99.789 40.2264 100.239 39.9622 100.833 39.9622C101.116 39.9622 101.369 40.0438 101.593 40.207C101.82 40.3675 101.978 40.5889 102.066 40.8711C102.39 40.2651 102.873 39.9622 103.515 39.9622C104.475 39.9622 104.955 40.5543 104.955 41.7385V44.4238ZM106.2 38.4929C106.2 38.3684 106.241 38.2646 106.324 38.1816C106.407 38.0959 106.508 38.053 106.627 38.053C106.752 38.053 106.856 38.0959 106.939 38.1816C107.024 38.2674 107.067 38.3712 107.067 38.4929C107.067 38.6174 107.024 38.7212 106.939 38.8042C106.856 38.8872 106.752 38.9287 106.627 38.9287C106.508 38.9287 106.407 38.8886 106.324 38.8083C106.241 38.7253 106.2 38.6202 106.2 38.4929ZM106.291 44.4238V40.0618H106.947V44.4238H106.291ZM111.965 44.4238H111.305V41.9336C111.305 40.9901 110.96 40.5183 110.271 40.5183C109.917 40.5183 109.623 40.6525 109.387 40.9209C109.155 41.1865 109.039 41.5255 109.039 41.9377V44.4238H108.379V40.0618H109.039V40.7922H109.055C109.382 40.2389 109.859 39.9622 110.487 39.9622C110.966 39.9622 111.331 40.1157 111.583 40.4229C111.838 40.73 111.965 41.1755 111.965 41.7593V44.4238ZM113.397 40.373C113.823 40.0991 114.313 39.9622 114.866 39.9622C115.879 39.9622 116.385 40.4989 116.385 41.5725V44.4238H115.725V43.739H115.7C115.399 44.2647 114.952 44.5276 114.36 44.5276C113.934 44.5276 113.595 44.4141 113.343 44.1873C113.094 43.9576 112.969 43.6519 112.969 43.27C112.969 42.4593 113.448 41.9875 114.405 41.8547L115.721 41.6638C115.721 40.9057 115.419 40.5266 114.816 40.5266C114.285 40.5266 113.812 40.7078 113.397 41.0703V40.373ZM114.654 42.3528C114.314 42.3971 114.062 42.4801 113.899 42.6018C113.736 42.7236 113.654 42.9311 113.654 43.2244C113.654 43.4457 113.732 43.6242 113.886 43.7598C114.044 43.8953 114.25 43.9631 114.505 43.9631C114.856 43.9631 115.147 43.8386 115.376 43.5896C115.606 43.3406 115.721 43.0279 115.721 42.6516V42.2117L114.654 42.3528ZM117.721 44.4238V37.97H118.377V44.4238H117.721Z" fill="#1A1311"/>
<path d="M441.524 119.734V113.946L443.214 112.461H447.949L449.42 113.932V119.804" fill="#A6A7A7"/>
<path d="M441.524 119.734V113.946L443.214 112.461H447.949L449.42 113.932V119.804" stroke="#1A1311" stroke-linecap="round" stroke-linejoin="round"/>
<path d="M441.522 113.957H449.42" stroke="#1A1311" stroke-width="0.5" stroke-linecap="round" stroke-linejoin="round"/>
<path d="M477.701 119.733V113.945L479.392 112.457H484.124L485.595 113.928V119.8" fill="#A6A7A7"/>
<path d="M477.701 119.733V113.945L479.392 112.457H484.124L485.595 113.928V119.8" stroke="#1A1311" stroke-linecap="round" stroke-linejoin="round"/>
<path d="M477.701 113.957H485.599" stroke="#1A1311" stroke-width="0.5" stroke-linecap="round" stroke-linejoin="round"/>
<path d="M466.034 43.4175H465.428C464.57 42.438 464.141 41.2302 464.141 39.7942C464.141 38.3526 464.57 37.1255 465.428 36.1128H466.042C465.173 37.1642 464.739 38.3886 464.739 39.7859C464.739 41.1721 465.17 42.3826 466.034 43.4175ZM471.259 39.6572C471.259 41.3285 470.505 42.1641 468.997 42.1641C467.553 42.1641 466.831 41.3603 466.831 39.7527V36.1128H467.528V39.707C467.528 40.9272 468.042 41.5374 469.072 41.5374C470.065 41.5374 470.562 40.948 470.562 39.7693V36.1128H471.259V39.6572ZM476.186 42.0645H475.505V39.6406C475.505 38.7386 475.176 38.2876 474.517 38.2876C474.177 38.2876 473.895 38.4163 473.67 38.6736C473.449 38.9281 473.338 39.2505 473.338 39.6406V42.0645H472.658V37.8145H473.338V38.52H473.355C473.676 37.9832 474.141 37.7148 474.75 37.7148C475.214 37.7148 475.57 37.8656 475.816 38.1672C476.062 38.4661 476.186 38.8991 476.186 39.4663V42.0645ZM477.821 36.7354C477.699 36.7354 477.595 36.6938 477.51 36.6108C477.424 36.5278 477.381 36.4227 477.381 36.2954C477.381 36.1681 477.424 36.063 477.51 35.98C477.595 35.8942 477.699 35.8513 477.821 35.8513C477.945 35.8513 478.05 35.8942 478.136 35.98C478.225 36.063 478.269 36.1681 478.269 36.2954C478.269 36.4172 478.225 36.5209 478.136 36.6067C478.05 36.6925 477.945 36.7354 477.821 36.7354ZM478.153 42.0645H477.472V37.8145H478.153V42.0645ZM481.502 42.0229C481.342 42.1115 481.13 42.1558 480.867 42.1558C480.123 42.1558 479.751 41.7407 479.751 40.9106V38.3955H479.02V37.8145H479.751V36.7769L480.431 36.5569V37.8145H481.502V38.3955H480.431V40.7903C480.431 41.0753 480.48 41.2786 480.577 41.4004C480.674 41.5221 480.834 41.583 481.058 41.583C481.23 41.583 481.378 41.536 481.502 41.4419V42.0229ZM482.648 38.6445C482.52 38.6445 482.411 38.5989 482.32 38.5076C482.231 38.4163 482.187 38.307 482.187 38.1797C482.187 38.0524 482.231 37.9445 482.32 37.856C482.411 37.7674 482.52 37.7231 482.648 37.7231C482.778 37.7231 482.888 37.7674 482.98 37.856C483.071 37.9445 483.117 38.0524 483.117 38.1797C483.117 38.307 483.071 38.4163 482.98 38.5076C482.888 38.5989 482.778 38.6445 482.648 38.6445ZM482.648 42.1558C482.52 42.1558 482.411 42.1101 482.32 42.0188C482.231 41.9275 482.187 41.8182 482.187 41.6909C482.187 41.5636 482.231 41.4543 482.32 41.363C482.411 41.269 482.52 41.2219 482.648 41.2219C482.778 41.2219 482.888 41.269 482.98 41.363C483.071 41.4543 483.117 41.5636 483.117 41.6909C483.117 41.8182 483.071 41.9275 482.98 42.0188C482.888 42.1101 482.778 42.1558 482.648 42.1558ZM492.621 42.0645H491.94V39.624C491.94 39.1536 491.867 38.8133 491.72 38.603C491.577 38.3927 491.333 38.2876 490.99 38.2876C490.699 38.2876 490.452 38.4204 490.247 38.686C490.045 38.9517 489.944 39.2699 489.944 39.6406V42.0645H489.263V39.541C489.263 38.7054 488.941 38.2876 488.296 38.2876C487.998 38.2876 487.751 38.4135 487.558 38.6653C487.364 38.9143 487.267 39.2394 487.267 39.6406V42.0645H486.586V37.8145H487.267V38.4868H487.284C487.585 37.9722 488.025 37.7148 488.604 37.7148C488.894 37.7148 489.147 37.7965 489.363 37.9597C489.579 38.1202 489.727 38.3319 489.807 38.5947C490.123 38.0081 490.593 37.7148 491.218 37.7148C492.153 37.7148 492.621 38.2917 492.621 39.4456V42.0645ZM499.942 42.0645H499.262V39.624C499.262 39.1536 499.188 38.8133 499.042 38.603C498.898 38.3927 498.654 38.2876 498.311 38.2876C498.021 38.2876 497.773 38.4204 497.568 38.686C497.366 38.9517 497.265 39.2699 497.265 39.6406V42.0645H496.585V39.541C496.585 38.7054 496.262 38.2876 495.618 38.2876C495.319 38.2876 495.073 38.4135 494.879 38.6653C494.685 38.9143 494.588 39.2394 494.588 39.6406V42.0645H493.908V37.8145H494.588V38.4868H494.605C494.907 37.9722 495.347 37.7148 495.925 37.7148C496.215 37.7148 496.469 37.7965 496.684 37.9597C496.9 38.1202 497.048 38.3319 497.128 38.5947C497.444 38.0081 497.914 37.7148 498.54 37.7148C499.475 37.7148 499.942 38.2917 499.942 39.4456V42.0645ZM501.246 43.4175H500.64C501.503 42.3826 501.935 41.1721 501.935 39.7859C501.935 38.3886 501.5 37.1642 500.631 36.1128H501.246C502.109 37.1255 502.541 38.3526 502.541 39.7942C502.541 41.2302 502.109 42.438 501.246 43.4175Z" fill="#1A1311"/>
</svg>
