<svg xmlns="http://www.w3.org/2000/svg" width="1097" height="663" fill="none" viewBox="0 0 1097 663"><path fill="#fff" d="M0 0h1097v663H0z"/><path fill="#000" d="M205.146 99.646a.5.5 0 0 0 0 .708l3.182 3.182a.502.502 0 0 0 .708-.708L206.207 100l2.829-2.828a.5.5 0 0 0-.708-.707zm209.708.708a.5.5 0 0 0 0-.708l-3.182-3.182a.501.501 0 0 0-.708.708l2.829 2.828-2.829 2.828a.502.502 0 0 0 .708.708zM205.5 100v.5h209v-1h-209z"/><path stroke="#000" d="M204.5 96v8M415.5 96v8"/><path fill="#000" d="M175.353 130.646a.5.5 0 0 0-.707 0l-3.182 3.182a.5.5 0 0 0 .707.708l2.829-2.829 2.828 2.829a.5.5 0 0 0 .707-.708zm-.707 404.708a.5.5 0 0 0 .708 0l3.182-3.182a.502.502 0 0 0-.708-.708L175 534.293l-2.828-2.829a.502.502 0 0 0-.708.708zM175 131h-.5v404h1V131z"/><path stroke="#000" d="M171 130h8M171 536h8"/><path fill="#000" d="M525.146 98.647a.5.5 0 0 0 0 .707l3.182 3.182a.502.502 0 0 0 .708-.708L526.207 99l2.829-2.828a.5.5 0 0 0-.708-.707zm64.708.707a.5.5 0 0 0 0-.707l-3.182-3.183a.501.501 0 0 0-.708.708L588.793 99l-2.829 2.828a.502.502 0 0 0 .708.708zM525.5 99v.5h64v-1h-64z"/><path stroke="#000" d="M524.5 95v8M590.5 95v8"/><path fill="#000" d="m748.874 580-2.983-10.909h1.342l2.28 8.885h.107l2.322-8.885h1.492l2.322 8.885h.106l2.28-8.885h1.343L756.502 580h-1.364l-2.408-8.693h-.085L750.237 580zm14.755.17q-1.183 0-2.04-.522a3.5 3.5 0 0 1-1.316-1.47q-.458-.948-.458-2.205t.458-2.216q.464-.964 1.289-1.502.83-.543 1.939-.543.64 0 1.262.213.624.213 1.135.692.512.474.815 1.257t.304 1.929v.532h-6.307v-1.086h5.028q0-.693-.277-1.236a2.1 2.1 0 0 0-.777-.858q-.5-.314-1.183-.314-.751 0-1.3.373a2.45 2.45 0 0 0-.836.959 2.8 2.8 0 0 0-.293 1.267v.725q0 .927.32 1.571.324.639.9.975.575.33 1.337.33.495 0 .895-.138.404-.144.698-.426.293-.288.452-.714l1.215.341a2.7 2.7 0 0 1-.645 1.086 3.1 3.1 0 0 1-1.118.725 4.2 4.2 0 0 1-1.497.255m5.3-.17v-8.182h1.257V580zm.639-9.545a.9.9 0 0 1-.634-.251.8.8 0 0 1-.261-.602q0-.351.261-.602a.9.9 0 0 1 .634-.25q.368 0 .629.25a.8.8 0 0 1 .266.602.8.8 0 0 1-.266.602.88.88 0 0 1-.629.251m6.223 12.784q-.91 0-1.566-.235a3.3 3.3 0 0 1-1.092-.607 3.3 3.3 0 0 1-.687-.799l1.001-.703q.171.223.432.511.261.294.714.506.457.219 1.198.219.991 0 1.635-.48.645-.479.645-1.502v-1.662h-.107a7 7 0 0 1-.394.554q-.25.325-.724.581-.469.25-1.268.25a3.4 3.4 0 0 1-1.779-.469q-.783-.468-1.241-1.363-.453-.895-.453-2.174 0-1.256.442-2.189.442-.937 1.231-1.449.787-.516 1.821-.516.8 0 1.268.266.475.261.724.597.256.33.395.543h.127v-1.3h1.215v8.416q0 1.055-.479 1.716a2.74 2.74 0 0 1-1.279.974 4.8 4.8 0 0 1-1.779.315m-.043-4.496q.757 0 1.279-.346t.793-.996q.273-.65.272-1.556 0-.884-.266-1.561-.267-.676-.789-1.06-.522-.383-1.289-.383-.798 0-1.331.405-.527.405-.794 1.086a4.2 4.2 0 0 0-.261 1.513q0 .852.266 1.508.272.65.799 1.022.533.368 1.321.368m7.138-3.665V580h-1.257v-10.909h1.257v4.006h.107a2.3 2.3 0 0 1 .863-1.007q.58-.378 1.544-.378.837 0 1.465.335.629.33.975 1.018.351.681.352 1.736V580h-1.258v-5.114q0-.974-.506-1.507-.5-.538-1.39-.538a2.3 2.3 0 0 0-1.108.261 1.9 1.9 0 0 0-.767.762q-.277.5-.277 1.214m11.164-3.26v1.066h-4.24v-1.066zm-3.005-1.96h1.257v7.798q0 .533.155.799a.8.8 0 0 0 .405.352q.25.085.527.085.208 0 .341-.021l.213-.043.256 1.129a2.5 2.5 0 0 1-.357.096 2.6 2.6 0 0 1-.581.054q-.533 0-1.044-.23a2.07 2.07 0 0 1-.841-.697q-.331-.47-.331-1.183zm5.812 10.227a.93.93 0 0 1-.677-.282.92.92 0 0 1-.282-.677q0-.393.282-.676a.93.93 0 0 1 .677-.282q.394 0 .676.282a.92.92 0 0 1 .283.676.9.9 0 0 1-.134.48 1 1 0 0 1-.346.351.9.9 0 0 1-.479.128m0-6.072a.92.92 0 0 1-.677-.283.92.92 0 0 1-.282-.676q0-.394.282-.677a.93.93 0 0 1 .677-.282q.394 0 .676.282a.92.92 0 0 1 .283.677.9.9 0 0 1-.134.479 1 1 0 0 1-.346.352.9.9 0 0 1-.479.128m11.034 6.136a4 4 0 0 1-1.342-.256 3.2 3.2 0 0 1-1.225-.825q-.555-.586-.89-1.582-.336-1.002-.336-2.514 0-1.449.272-2.568.272-1.123.788-1.891.517-.772 1.247-1.172a3.4 3.4 0 0 1 1.657-.399q.916 0 1.629.367.72.363 1.172 1.012.454.651.586 1.497h-1.299a2.4 2.4 0 0 0-.704-1.22q-.522-.484-1.384-.484-1.268 0-1.998 1.102-.724 1.103-.73 3.095h.085a3.2 3.2 0 0 1 2.685-1.449q.938 0 1.715.469.778.463 1.247 1.284.469.815.469 1.869 0 1.012-.453 1.854a3.45 3.45 0 0 1-1.273 1.332q-.816.49-1.918.479m0-1.172q.672 0 1.204-.335.538-.336.847-.901.314-.564.314-1.257 0-.676-.303-1.23a2.33 2.33 0 0 0-.826-.89 2.2 2.2 0 0 0-1.193-.33q-.507 0-.943.203a2.4 2.4 0 0 0-.767.543 2.6 2.6 0 0 0-.512.794 2.517 2.517 0 0 0 .959 3.057q.539.346 1.22.346M813.97 580l4.879-9.652v-.085h-5.625v-1.172h6.989v1.236L815.355 580zm15.771 3.239q-.91 0-1.566-.235a3.3 3.3 0 0 1-1.092-.607 3.3 3.3 0 0 1-.687-.799l1.001-.703q.171.223.432.511.261.294.714.506.458.219 1.198.219.991 0 1.636-.48.644-.479.644-1.502v-1.662h-.106a7 7 0 0 1-.395.554q-.25.325-.724.581-.469.25-1.268.25-.99 0-1.779-.469-.783-.468-1.241-1.363-.453-.895-.453-2.174 0-1.256.442-2.189.442-.937 1.231-1.449.788-.516 1.821-.516.8 0 1.268.266.474.261.725.597.255.33.394.543h.128v-1.3h1.214v8.416q0 1.055-.479 1.716a2.73 2.73 0 0 1-1.279.974 4.8 4.8 0 0 1-1.779.315m-.042-4.496q.756 0 1.278-.346t.794-.996.271-1.556q0-.884-.266-1.561t-.788-1.06-1.289-.383q-.8 0-1.332.405-.527.405-.794 1.086a4.2 4.2 0 0 0-.261 1.513q0 .852.267 1.508.271.65.799 1.022.532.368 1.321.368m-134.693 13.802q0-2.013.522-3.702a11.6 11.6 0 0 1 1.502-3.116h1.108a7 7 0 0 0-.719 1.3 13 13 0 0 0-.58 1.689q-.25.915-.395 1.896a14 14 0 0 0-.138 1.933q0 1.268.245 2.573t.66 2.424q.416 1.119.927 1.822h-1.108a11.6 11.6 0 0 1-1.502-3.111q-.522-1.693-.522-3.708m6.479-5.454V598h-1.321v-10.909zm3.735 5.987V598h-1.257v-8.182h1.215v1.279h.106q.288-.624.874-1.002.586-.383 1.512-.383.831 0 1.455.341.622.335.969 1.022.346.682.346 1.726V598h-1.257v-5.114q0-.963-.5-1.502-.5-.543-1.375-.543-.602 0-1.076.261a1.87 1.87 0 0 0-.74.762q-.272.5-.272 1.214m10.841 5.092q-1.15 0-1.981-.543a3.54 3.54 0 0 1-1.279-1.497q-.447-.953-.447-2.178 0-1.247.458-2.2.464-.959 1.289-1.497.83-.543 1.939-.543.863 0 1.555.319.693.32 1.135.895.442.576.549 1.342h-1.257q-.144-.559-.64-.99-.49-.437-1.321-.437-.734 0-1.289.383-.548.379-.857 1.071-.304.687-.304 1.614 0 .948.298 1.651.304.703.853 1.092.554.39 1.299.389.49 0 .89-.17t.676-.49q.277-.32.395-.767h1.257a2.9 2.9 0 0 1-1.63 2.221q-.682.336-1.588.335m6.312-11.079V598h-1.257v-10.909zm7.459 7.564v-4.837h1.257V598h-1.257v-1.385h-.085a2.7 2.7 0 0 1-.895 1.06q-.607.432-1.534.432-.767 0-1.364-.336-.596-.34-.937-1.023-.34-.687-.341-1.731v-5.199h1.257v5.114q0 .894.501 1.427.506.533 1.289.533.468 0 .953-.24.49-.238.821-.735.335-.495.335-1.262m6.649 3.515q-1.023 0-1.805-.516-.784-.522-1.226-1.47-.441-.954-.442-2.254 0-1.289.442-2.237t1.231-1.465q.788-.516 1.822-.516.798 0 1.262.266.469.261.714.597.25.33.389.543h.106v-4.027h1.257V598h-1.214v-1.257h-.149a8 8 0 0 1-.395.565q-.255.335-.729.601-.474.261-1.263.261m.171-1.129q.756 0 1.278-.394.522-.4.794-1.103.271-.708.271-1.635 0-.916-.266-1.603-.266-.693-.788-1.076-.522-.389-1.289-.389-.8 0-1.332.41-.528.404-.794 1.103a4.4 4.4 0 0 0-.261 1.555q0 .874.267 1.587.271.709.799 1.13.532.415 1.321.415m6.056.959v-8.182h1.257V598zm.639-9.545a.9.9 0 0 1-.633-.251.8.8 0 0 1-.261-.602q0-.351.261-.602a.9.9 0 0 1 .633-.25q.368 0 .629.25a.8.8 0 0 1 .266.602.8.8 0 0 1-.266.602.88.88 0 0 1-.629.251m4.178 4.623V598h-1.257v-8.182h1.214v1.279h.107q.288-.624.873-1.002.586-.383 1.513-.383.831 0 1.454.341.624.335.97 1.022.346.682.346 1.726V598h-1.257v-5.114q0-.963-.501-1.502-.501-.543-1.374-.543-.602 0-1.076.261a1.86 1.86 0 0 0-.74.762q-.273.5-.272 1.214m10.82 8.161q-.912 0-1.566-.235a3.3 3.3 0 0 1-1.092-.607 3.3 3.3 0 0 1-.687-.799l1.001-.703q.17.223.431.511.261.294.714.506.458.219 1.199.219.99 0 1.635-.48.645-.479.645-1.502v-1.662h-.107a7 7 0 0 1-.394.554q-.25.325-.725.581-.468.25-1.267.25a3.4 3.4 0 0 1-1.779-.469q-.783-.468-1.242-1.363-.452-.895-.452-2.174 0-1.256.442-2.189.442-.937 1.23-1.449.789-.516 1.822-.516.799 0 1.268.266.474.261.724.597.256.33.394.543h.128v-1.3h1.215v8.416q0 1.055-.48 1.716a2.73 2.73 0 0 1-1.278.974 4.8 4.8 0 0 1-1.779.315m-.043-4.496q.756 0 1.279-.346t.793-.996q.272-.65.272-1.556 0-.884-.266-1.561-.267-.676-.789-1.06-.522-.383-1.289-.383-.799 0-1.332.405-.527.405-.793 1.086a4.2 4.2 0 0 0-.261 1.513q0 .852.266 1.508.272.65.799 1.022.533.368 1.321.368M770.255 598l-2.493-8.182h1.321l1.769 6.264h.085l1.747-6.264h1.343l1.725 6.243h.086l1.768-6.243h1.321L776.434 598h-1.236l-1.789-6.286h-.128l-1.79 6.286zm12.742.192q-.778 0-1.412-.293a2.43 2.43 0 0 1-1.007-.858q-.372-.564-.372-1.363 0-.703.277-1.14.276-.442.74-.693a4 4 0 0 1 1.023-.373q.564-.127 1.134-.202.745-.096 1.209-.144.47-.053.682-.176.219-.121.219-.426v-.042q0-.788-.432-1.226-.426-.436-1.294-.436-.9 0-1.412.394t-.719.841l-1.193-.426q.32-.745.852-1.161a3.2 3.2 0 0 1 1.172-.586q.639-.17 1.257-.17.395 0 .906.096.516.09.996.378.485.287.804.868t.32 1.555V598h-1.257v-1.108h-.064a2.2 2.2 0 0 1-.426.57 2.5 2.5 0 0 1-.794.517q-.495.213-1.209.213m.191-1.13q.747 0 1.258-.292a2 2 0 0 0 1.044-1.732v-1.15q-.08.095-.352.176a6 6 0 0 1-.618.133q-.346.052-.676.096-.325.037-.528.064a4.8 4.8 0 0 0-.916.207q-.42.14-.682.421-.255.277-.255.756 0 .656.484.991.49.33 1.241.33m11.649-5.411-1.13.319a2 2 0 0 0-.314-.548 1.5 1.5 0 0 0-.554-.448q-.351-.176-.9-.176-.751 0-1.252.347-.495.34-.495.868 0 .468.341.74.34.271 1.065.453l1.214.298q1.098.266 1.636.815.538.543.538 1.401 0 .704-.405 1.257-.399.555-1.119.874-.719.32-1.672.319-1.252 0-2.072-.543t-1.039-1.587l1.193-.299q.171.661.645.991.48.33 1.251.33.88 0 1.396-.372.522-.379.522-.906a.95.95 0 0 0-.298-.714q-.298-.293-.916-.436l-1.364-.32q-1.124-.267-1.651-.826-.522-.564-.522-1.411 0-.693.389-1.225a2.64 2.64 0 0 1 1.07-.837q.683-.303 1.545-.303 1.215 0 1.907.532.697.532.991 1.407m3.298 1.427V598h-1.257v-10.909h1.257v4.006h.107q.287-.635.863-1.007.58-.378 1.544-.378.837 0 1.465.335.629.33.975 1.018.352.681.352 1.736V598h-1.257v-5.114q0-.974-.507-1.507-.5-.538-1.39-.538a2.3 2.3 0 0 0-1.108.261 1.9 1.9 0 0 0-.767.762q-.277.5-.277 1.214m11.036 5.092q-1.184 0-2.04-.522a3.5 3.5 0 0 1-1.316-1.47q-.458-.948-.458-2.205t.458-2.216q.464-.964 1.289-1.502.83-.543 1.939-.543.64 0 1.262.213.624.213 1.135.692.512.474.815 1.257t.304 1.929v.532h-6.307v-1.086h5.028q0-.693-.277-1.236a2.1 2.1 0 0 0-.778-.858q-.5-.314-1.182-.314-.751 0-1.3.373a2.45 2.45 0 0 0-.836.959 2.8 2.8 0 0 0-.293 1.267v.725q0 .927.32 1.571.324.639.9.975.575.33 1.337.33.495 0 .895-.138.405-.144.697-.426.294-.288.453-.714l1.215.341a2.7 2.7 0 0 1-.645 1.086 3.1 3.1 0 0 1-1.118.725 4.2 4.2 0 0 1-1.497.255m5.3-.17v-8.182h1.214v1.236h.086q.224-.607.809-.985a2.4 2.4 0 0 1 1.321-.379 12 12 0 0 1 .661.022v1.278a3 3 0 0 0-.293-.048 3 3 0 0 0-.474-.037q-.597 0-1.066.25a1.9 1.9 0 0 0-.735.682 1.84 1.84 0 0 0-.266.985V598zm12.207.192q-.778 0-1.411-.293a2.4 2.4 0 0 1-1.007-.858q-.373-.564-.373-1.363 0-.703.277-1.14.277-.442.741-.693a3.9 3.9 0 0 1 1.022-.373 13 13 0 0 1 1.135-.202q.745-.096 1.209-.144.47-.053.682-.176.218-.121.218-.426v-.042q0-.788-.431-1.226-.426-.436-1.295-.436-.9 0-1.411.394-.512.394-.719.841l-1.193-.426q.32-.745.852-1.161a3.2 3.2 0 0 1 1.172-.586q.639-.17 1.257-.17.394 0 .905.096.517.09.996.378.486.287.805.868t.319 1.555V598h-1.257v-1.108h-.064a2.2 2.2 0 0 1-.426.57 2.5 2.5 0 0 1-.793.517q-.496.213-1.21.213m.192-1.13q.745 0 1.257-.292a2 2 0 0 0 1.044-1.732v-1.15q-.08.095-.351.176a6 6 0 0 1-.618.133q-.347.052-.677.096a24 24 0 0 0-.527.064 4.7 4.7 0 0 0-.916.207 1.6 1.6 0 0 0-.682.421q-.256.277-.256.756 0 .656.485.991.49.33 1.241.33m7.11-3.984V598h-1.257v-8.182h1.214v1.279h.107q.288-.624.873-1.002.586-.383 1.513-.383.831 0 1.454.341.624.335.97 1.022.346.682.346 1.726V598h-1.257v-5.114q0-.963-.501-1.502-.501-.543-1.374-.543-.602 0-1.076.261a1.87 1.87 0 0 0-.74.762q-.273.5-.272 1.214m10.607 5.092q-1.023 0-1.806-.516-.783-.522-1.225-1.47-.442-.954-.442-2.254 0-1.289.442-2.237t1.23-1.465q.789-.516 1.822-.516.8 0 1.262.266.47.261.714.597.25.33.389.543h.107v-4.027h1.257V598h-1.215v-1.257h-.149a8 8 0 0 1-.394.565 2.35 2.35 0 0 1-.73.601q-.474.261-1.262.261m.17-1.129q.756 0 1.279-.394.522-.4.793-1.103.272-.708.272-1.635 0-.916-.266-1.603-.267-.693-.789-1.076-.522-.389-1.289-.389-.798 0-1.331.41-.528.404-.794 1.103a4.4 4.4 0 0 0-.261 1.555q0 .874.266 1.587.272.709.799 1.13.533.415 1.321.415m10.446.959v-10.909h1.257v4.027h.106q.14-.213.384-.543.25-.336.714-.597.468-.266 1.268-.266 1.033 0 1.821.516.789.517 1.231 1.465t.442 2.237q0 1.3-.442 2.254-.442.948-1.225 1.47-.783.516-1.806.516-.789 0-1.263-.261a2.3 2.3 0 0 1-.729-.601 8 8 0 0 1-.395-.565h-.149V598zm1.236-4.091q0 .927.271 1.635.272.704.794 1.103.522.394 1.278.394.79 0 1.316-.415.533-.421.799-1.13a4.4 4.4 0 0 0 .272-1.587q0-.863-.267-1.555-.26-.698-.793-1.103-.528-.41-1.327-.41-.767 0-1.289.389-.521.383-.788 1.076-.267.687-.266 1.603m11.234 4.261q-1.108 0-1.945-.527-.831-.527-1.299-1.475-.464-.948-.464-2.216 0-1.28.464-2.232.468-.953 1.299-1.481.837-.528 1.945-.527 1.108 0 1.939.527.836.528 1.299 1.481.47.952.469 2.232 0 1.268-.469 2.216a3.53 3.53 0 0 1-1.299 1.475q-.832.528-1.939.527m0-1.129q.841 0 1.385-.431.543-.432.804-1.135t.261-1.523-.261-1.529a2.6 2.6 0 0 0-.804-1.145q-.544-.437-1.385-.437-.842 0-1.385.437a2.6 2.6 0 0 0-.805 1.145 4.4 4.4 0 0 0-.261 1.529q0 .82.261 1.523t.805 1.135q.543.43 1.385.431m6.883-9.95V598h-1.257v-10.909zm5.861 2.727v1.066h-4.24v-1.066zm-3.004-1.96h1.257v7.798q0 .533.154.799a.8.8 0 0 0 .405.352q.25.085.527.085.208 0 .341-.021l.213-.043.256 1.129a2.5 2.5 0 0 1-.357.096 2.6 2.6 0 0 1-.581.054q-.533 0-1.044-.23a2.1 2.1 0 0 1-.841-.697q-.33-.47-.33-1.183zm7.579 5.54q0 2.013-.527 3.707a11.4 11.4 0 0 1-1.497 3.111h-1.108q.384-.528.714-1.3.336-.767.586-1.683a15 15 0 0 0 .389-1.902 13.4 13.4 0 0 0-.101-4.506 15 15 0 0 0-.661-2.424q-.416-1.118-.927-1.821h1.108q.975 1.421 1.497 3.116.527 1.688.527 3.702M505.703 75h-3.366V64.09h3.515q1.588.001 2.717.656a4.3 4.3 0 0 1 1.731 1.87q.602 1.215.602 2.908 0 1.704-.607 2.935a4.33 4.33 0 0 1-1.769 1.886q-1.161.655-2.823.655m-2.045-1.172h1.96q1.353 0 2.242-.522a3.2 3.2 0 0 0 1.327-1.486q.437-.964.437-2.296 0-1.32-.432-2.274a3.2 3.2 0 0 0-1.289-1.47q-.858-.517-2.136-.517h-2.109zm12.72 1.343q-1.184 0-2.04-.523a3.5 3.5 0 0 1-1.316-1.47q-.458-.948-.458-2.205t.458-2.216q.464-.964 1.289-1.502.83-.543 1.939-.543.64 0 1.262.213.624.213 1.135.692.512.474.815 1.257t.304 1.929v.532h-6.307V70.25h5.028q0-.693-.277-1.236a2.1 2.1 0 0 0-.777-.858q-.5-.314-1.183-.314-.751 0-1.3.373a2.45 2.45 0 0 0-.836.959 2.8 2.8 0 0 0-.293 1.267v.725q0 .926.32 1.571.324.639.9.975.575.33 1.337.33.495 0 .895-.138.404-.144.698-.426.293-.288.452-.714l1.215.34a2.7 2.7 0 0 1-.645 1.087q-.452.464-1.118.725-.666.255-1.497.255m5.3 2.897v-11.25h1.214v1.3h.15q.138-.213.383-.543a2.25 2.25 0 0 1 .714-.597q.468-.267 1.268-.266 1.034 0 1.821.516.789.517 1.231 1.465t.442 2.237q0 1.3-.442 2.254-.442.948-1.225 1.47-.783.517-1.806.517-.788 0-1.263-.262a2.3 2.3 0 0 1-.729-.602 8 8 0 0 1-.394-.564h-.107v4.325zm1.236-7.159q0 .927.271 1.635.272.704.794 1.103.522.394 1.278.394.79 0 1.316-.415.533-.42.799-1.13a4.4 4.4 0 0 0 .272-1.587q0-.863-.267-1.555-.26-.698-.793-1.103-.528-.41-1.327-.41-.767 0-1.289.389-.521.383-.788 1.076-.266.687-.266 1.603m11.463-4.09v1.064h-4.24v-1.065zm-3.004-1.961h1.257v7.798q0 .533.154.8a.8.8 0 0 0 .405.35q.25.087.527.086.208 0 .341-.021l.213-.043.256 1.13a3 3 0 0 1-.357.095 2.6 2.6 0 0 1-.581.053 2.5 2.5 0 0 1-1.044-.228 2.07 2.07 0 0 1-.841-.698q-.33-.47-.33-1.183zm6.328 5.22V75h-1.257V64.09h1.257v4.007h.106q.288-.635.863-1.007.58-.378 1.545-.378.836 0 1.465.335.629.33.974 1.018.352.681.352 1.736V75h-1.257v-5.114q0-.975-.506-1.507-.5-.538-1.39-.538-.619 0-1.108.26a1.9 1.9 0 0 0-.767.763q-.277.5-.277 1.214m8.521 5.007a.92.92 0 0 1-.676-.282.92.92 0 0 1-.283-.677.92.92 0 0 1 .283-.676.92.92 0 0 1 .676-.282q.394 0 .677.282a.92.92 0 0 1 .282.676.9.9 0 0 1-.133.48 1 1 0 0 1-.347.351.9.9 0 0 1-.479.128m0-6.072a.92.92 0 0 1-.676-.282.92.92 0 0 1-.283-.677.92.92 0 0 1 .283-.677.92.92 0 0 1 .676-.282q.394 0 .677.282a.92.92 0 0 1 .282.677.9.9 0 0 1-.133.48 1 1 0 0 1-.347.35.9.9 0 0 1-.479.129M553.634 75v-.959l3.601-3.942q.635-.691 1.044-1.203.41-.517.607-.97.203-.458.203-.959 0-.575-.277-.996a1.8 1.8 0 0 0-.746-.65 2.4 2.4 0 0 0-1.065-.229q-.628 0-1.098.261a1.8 1.8 0 0 0-.719.72q-.25.462-.25 1.086h-1.257q0-.96.442-1.683.442-.725 1.204-1.13a3.6 3.6 0 0 1 1.72-.404q.959 0 1.699.405t1.162 1.092q.42.687.42 1.528 0 .603-.218 1.177-.213.57-.746 1.274a23 23 0 0 1-1.464 1.704l-2.451 2.62v.086h5.071V75zm12.491.15q-.938 0-1.688-.374a3.14 3.14 0 0 1-1.204-1.022 2.8 2.8 0 0 1-.496-1.481h1.279q.074.74.671 1.225.602.48 1.438.48.672 0 1.193-.315.528-.314.826-.863.304-.555.304-1.252 0-.714-.315-1.273a2.3 2.3 0 0 0-.852-.89 2.4 2.4 0 0 0-1.241-.33 3.4 3.4 0 0 0-1.028.155 2.9 2.9 0 0 0-.868.4l-1.236-.15.66-5.37h5.668v1.173h-4.56l-.383 3.217h.064a2.9 2.9 0 0 1 .841-.442 3.2 3.2 0 0 1 1.055-.176q1.002 0 1.785.48.788.474 1.235 1.3.453.825.453 1.885 0 1.044-.469 1.864a3.43 3.43 0 0 1-1.278 1.29q-.814.468-1.854.468m6.244-.065a.92.92 0 0 1-.676-.282.92.92 0 0 1-.282-.677q0-.393.282-.676a.92.92 0 0 1 .676-.282q.395 0 .677.282a.92.92 0 0 1 .282.676.997.997 0 0 1-.479.831.9.9 0 0 1-.48.128m6.564-11.143a3.9 3.9 0 0 1 1.343.255q.67.25 1.225.831.554.576.889 1.572.336.996.336 2.498 0 1.454-.277 2.584-.272 1.123-.788 1.896a3.5 3.5 0 0 1-1.247 1.172q-.73.4-1.651.4-.916 0-1.635-.363a3.2 3.2 0 0 1-1.172-1.018 3.54 3.54 0 0 1-.581-1.518h1.3q.176.752.698 1.242.527.484 1.39.484 1.262 0 1.992-1.102.735-1.103.735-3.117h-.085a3.3 3.3 0 0 1-.709.773 3.12 3.12 0 0 1-1.976.676 3.3 3.3 0 0 1-1.72-.463 3.5 3.5 0 0 1-1.247-1.284q-.463-.82-.463-1.875 0-1 .447-1.832a3.46 3.46 0 0 1 1.268-1.332q.82-.495 1.928-.48m0 1.172q-.67 0-1.209.335a2.4 2.4 0 0 0-.847.895 2.5 2.5 0 0 0-.309 1.241q0 .683.299 1.241.303.554.825.885a2.24 2.24 0 0 0 1.199.325q.505 0 .943-.198.437-.201.761-.548a2.7 2.7 0 0 0 .517-.794q.186-.447.186-.932a2.44 2.44 0 0 0-.309-1.199 2.45 2.45 0 0 0-.841-.905 2.2 2.2 0 0 0-1.215-.346M589.061 75v-8.182h1.214v1.279h.107q.255-.655.825-1.018.57-.367 1.369-.367.81 0 1.348.367.543.362.847 1.018h.085q.315-.635.943-1.007.629-.378 1.507-.378 1.098 0 1.796.687.697.681.697 2.125V75h-1.257v-5.476q0-.905-.495-1.294a1.83 1.83 0 0 0-1.167-.39q-.863 0-1.337.523-.474.516-.474 1.31V75h-1.278v-5.604q0-.698-.453-1.124-.453-.43-1.166-.431-.49 0-.917.26-.42.262-.681.725a2.13 2.13 0 0 0-.256 1.06V75zm13.037 0v-8.182h1.214v1.279h.107q.256-.655.825-1.018.57-.367 1.369-.367.81 0 1.348.367.543.362.847 1.018h.085q.315-.635.943-1.007.629-.378 1.508-.378 1.096 0 1.795.687.697.681.697 2.125V75h-1.257v-5.476q0-.905-.495-1.294a1.83 1.83 0 0 0-1.167-.39q-.863 0-1.337.523-.474.516-.474 1.31V75h-1.278v-5.604q0-.698-.453-1.124-.453-.43-1.166-.431-.49 0-.917.26-.42.262-.681.725a2.13 2.13 0 0 0-.256 1.06V75zM263.518 76l-2.983-10.91h1.342l2.28 8.886h.107l2.322-8.885h1.492l2.322 8.885h.107l2.279-8.885h1.343L271.146 76h-1.364l-2.408-8.693h-.085L264.882 76zm12.086 0v-8.182h1.257V76zm.639-9.546a.9.9 0 0 1-.633-.25.8.8 0 0 1-.262-.602q0-.351.262-.602a.9.9 0 0 1 .633-.25q.368 0 .629.25a.8.8 0 0 1 .266.602.8.8 0 0 1-.266.602.88.88 0 0 1-.629.25m6.01 9.717q-1.022 0-1.806-.517-.783-.522-1.225-1.47-.442-.954-.442-2.254 0-1.289.442-2.237t1.231-1.465 1.822-.516q.798 0 1.262.266.468.261.714.597.25.33.389.543h.106V65.09h1.257V76h-1.214v-1.257h-.149q-.139.223-.395.565-.255.335-.729.601-.474.261-1.263.261m.171-1.13q.756 0 1.278-.394.522-.4.794-1.103.271-.708.271-1.635 0-.916-.266-1.603-.266-.692-.788-1.076-.522-.39-1.289-.39-.8 0-1.332.411-.527.404-.794 1.103-.261.692-.261 1.555a4.5 4.5 0 0 0 .267 1.587q.271.71.799 1.13.532.415 1.321.415m9.614-7.223v1.066h-4.24v-1.066zm-3.004-1.96h1.257v7.798q0 .533.155.8a.8.8 0 0 0 .405.35q.25.087.527.086.207 0 .341-.021l.213-.043.256 1.13a3 3 0 0 1-.357.095 2.6 2.6 0 0 1-.581.053 2.5 2.5 0 0 1-1.044-.228 2.1 2.1 0 0 1-.842-.698q-.33-.47-.33-1.183zm6.328 5.22V76h-1.257V65.09h1.257v4.007h.107q.287-.635.863-1.007.58-.378 1.544-.378.837 0 1.465.335.629.33.975 1.018.351.681.352 1.736V76h-1.257v-5.114q0-.975-.506-1.507-.501-.538-1.391-.538a2.3 2.3 0 0 0-1.108.26 1.9 1.9 0 0 0-.767.763q-.277.5-.277 1.214m8.522 5.007a.92.92 0 0 1-.677-.282.92.92 0 0 1-.282-.677q0-.393.282-.676a.92.92 0 0 1 .677-.282q.394 0 .676.282a.92.92 0 0 1 .282.676.9.9 0 0 1-.133.48 1 1 0 0 1-.346.351.9.9 0 0 1-.479.128m0-6.072a.92.92 0 0 1-.677-.282.92.92 0 0 1-.282-.677q0-.394.282-.677a.92.92 0 0 1 .677-.282q.394 0 .676.282a.92.92 0 0 1 .282.677.9.9 0 0 1-.133.48 1 1 0 0 1-.346.35.9.9 0 0 1-.479.129m10.906 6.136q-1.097 0-1.939-.389-.836-.394-1.305-1.081a2.7 2.7 0 0 1-.463-1.577 2.9 2.9 0 0 1 .271-1.278q.277-.591.757-.986a2.3 2.3 0 0 1 1.081-.506v-.063a2.1 2.1 0 0 1-1.246-.88 2.66 2.66 0 0 1-.458-1.55 2.63 2.63 0 0 1 .42-1.486 2.96 2.96 0 0 1 1.172-1.033q.752-.378 1.71-.378.948 0 1.694.378t1.172 1.033q.43.656.437 1.487a2.7 2.7 0 0 1-.474 1.55q-.464.675-1.231.879v.063q.591.107 1.065.506.474.395.757.986.282.586.287 1.278a2.75 2.75 0 0 1-.479 1.577q-.468.688-1.305 1.081-.831.39-1.923.39m0-1.172q.741 0 1.278-.24a1.9 1.9 0 0 0 .831-.676q.294-.437.299-1.023a1.96 1.96 0 0 0-.32-1.092 2.16 2.16 0 0 0-.857-.745 2.7 2.7 0 0 0-1.231-.272q-.698 0-1.246.272-.544.271-.858.745-.309.474-.304 1.092-.005.587.283 1.023.293.437.836.677t1.289.24m0-5.177q.586 0 1.039-.235.458-.234.719-.655.261-.42.266-.985-.004-.555-.261-.964a1.7 1.7 0 0 0-.708-.64 2.3 2.3 0 0 0-1.055-.229 2.4 2.4 0 0 0-1.071.23q-.458.223-.708.639a1.78 1.78 0 0 0-.245.964q-.006.565.25.985.261.421.719.655t1.055.235m5.749 6.2v-.959l3.601-3.942q.633-.691 1.044-1.203.41-.517.607-.97.202-.458.202-.959 0-.575-.277-.996a1.8 1.8 0 0 0-.745-.65 2.4 2.4 0 0 0-1.066-.229 2.2 2.2 0 0 0-1.097.261q-.464.255-.719.72-.25.462-.25 1.086h-1.257q0-.96.442-1.683a3.07 3.07 0 0 1 1.203-1.13 3.6 3.6 0 0 1 1.721-.404q.959 0 1.699.405t1.161 1.092.421 1.528q0 .603-.218 1.177-.213.57-.746 1.274a23 23 0 0 1-1.465 1.704l-2.45 2.62v.086h5.071V76zm13.322 0v-8.182h1.215v1.279h.106q.255-.655.826-1.018.57-.367 1.369-.367.81 0 1.347.367.544.362.847 1.018h.085q.315-.635.943-1.007.629-.378 1.508-.378 1.097 0 1.795.687.698.681.698 2.125V76h-1.257v-5.476q0-.905-.496-1.294a1.83 1.83 0 0 0-1.166-.39q-.864 0-1.337.523-.474.516-.474 1.31V76h-1.279v-5.604q0-.698-.453-1.124-.452-.43-1.166-.431-.49 0-.916.26a1.97 1.97 0 0 0-.682.725 2.13 2.13 0 0 0-.256 1.06V76zm13.037 0v-8.182h1.215v1.279h.106a2.06 2.06 0 0 1 .826-1.018q.57-.367 1.369-.367.81 0 1.347.367.544.362.847 1.018h.086q.314-.635.942-1.007.629-.378 1.508-.378 1.097 0 1.795.687.698.681.698 2.125V76h-1.257v-5.476q0-.905-.496-1.294a1.83 1.83 0 0 0-1.166-.39q-.864 0-1.337.523-.474.516-.474 1.31V76h-1.279v-5.604q0-.698-.453-1.124-.452-.43-1.166-.431-.49 0-.916.26a1.97 1.97 0 0 0-.682.725 2.13 2.13 0 0 0-.256 1.06V76zM737.455 84l-2.983-10.91h1.343l2.28 8.886h.106l2.323-8.885h1.491l2.322 8.885h.107l2.28-8.885h1.342L745.083 84h-1.363l-2.408-8.693h-.085L738.819 84zm12.087 0v-8.182h1.257V84zm.639-9.546a.9.9 0 0 1-.634-.25.8.8 0 0 1-.261-.602q0-.351.261-.602a.9.9 0 0 1 .634-.25q.367 0 .628.25a.8.8 0 0 1 .267.602.8.8 0 0 1-.267.602.87.87 0 0 1-.628.25m6.01 9.717q-1.023 0-1.806-.517-.783-.522-1.225-1.47-.442-.954-.442-2.254 0-1.289.442-2.237.443-.948 1.23-1.465.789-.516 1.822-.516.8 0 1.262.266.47.261.714.597.25.33.389.543h.107V73.09h1.257V84h-1.215v-1.257h-.149q-.139.223-.394.565a2.35 2.35 0 0 1-.73.601q-.474.261-1.262.261m.17-1.13q.757 0 1.279-.394.522-.4.793-1.103.272-.708.272-1.635 0-.916-.266-1.603-.267-.692-.789-1.076-.522-.39-1.289-.39-.798 0-1.331.411-.528.404-.794 1.103-.261.692-.261 1.555 0 .874.266 1.587a2.6 2.6 0 0 0 .799 1.13q.533.415 1.321.415m9.615-7.223v1.066h-4.24v-1.066zm-3.004-1.96h1.257v7.798q0 .533.154.8a.8.8 0 0 0 .405.35q.25.087.527.086.209 0 .341-.021l.213-.043.256 1.13a3 3 0 0 1-.357.095 2.6 2.6 0 0 1-.58.053q-.534 0-1.044-.228a2.1 2.1 0 0 1-.842-.698q-.33-.47-.33-1.183zm6.328 5.22V84h-1.257V73.09h1.257v4.007h.106q.288-.635.863-1.007.58-.378 1.545-.378.836 0 1.465.335.629.33.975 1.018.351.681.351 1.736V84h-1.257v-5.114q0-.975-.506-1.507-.5-.538-1.39-.538-.619 0-1.108.26a1.9 1.9 0 0 0-.767.763q-.277.5-.277 1.214m8.521 5.007a.92.92 0 0 1-.676-.282.92.92 0 0 1-.283-.677.92.92 0 0 1 .283-.676.92.92 0 0 1 .676-.282q.394 0 .677.282a.92.92 0 0 1 .282.676.997.997 0 0 1-.479.831.9.9 0 0 1-.48.128m0-6.072a.92.92 0 0 1-.676-.282.92.92 0 0 1-.283-.677.92.92 0 0 1 .283-.677.92.92 0 0 1 .676-.282q.394 0 .677.282a.92.92 0 0 1 .282.677.996.996 0 0 1-.479.83.9.9 0 0 1-.48.129m11.034 6.136a4.1 4.1 0 0 1-1.342-.255 3.2 3.2 0 0 1-1.225-.826q-.554-.585-.89-1.582-.335-1.002-.335-2.514 0-1.449.271-2.568.272-1.125.789-1.89.517-.773 1.246-1.173.735-.4 1.657-.4.916 0 1.63.368.719.364 1.172 1.012.453.651.586 1.497h-1.3a2.4 2.4 0 0 0-.703-1.22q-.522-.484-1.385-.484-1.267 0-1.998 1.102-.725 1.103-.729 3.095h.085a3.2 3.2 0 0 1 1.624-1.273 3.2 3.2 0 0 1 1.06-.176q.938 0 1.716.469a3.46 3.46 0 0 1 1.246 1.284q.47.814.469 1.87 0 1.011-.453 1.853a3.45 3.45 0 0 1-1.273 1.332q-.814.489-1.918.48m0-1.172a2.2 2.2 0 0 0 1.204-.335q.538-.336.847-.9.315-.565.314-1.258 0-.675-.303-1.23a2.3 2.3 0 0 0-.826-.89 2.2 2.2 0 0 0-1.193-.33q-.506 0-.943.203a2.4 2.4 0 0 0-.767.543 2.6 2.6 0 0 0-.511.793 2.4 2.4 0 0 0-.187.933q0 .65.304 1.214.309.565.842.911.538.346 1.219.346m9.212-10.035q.671.005 1.342.255t1.225.831q.554.576.89 1.572t.335 2.498q0 1.454-.277 2.584-.272 1.123-.788 1.896a3.5 3.5 0 0 1-1.247 1.172q-.729.4-1.651.4-.916 0-1.635-.363a3.2 3.2 0 0 1-1.172-1.018 3.55 3.55 0 0 1-.581-1.518h1.3q.176.752.698 1.242.527.484 1.39.484 1.263 0 1.992-1.102.735-1.103.735-3.117h-.085a3.4 3.4 0 0 1-.708.773 3.13 3.13 0 0 1-1.976.676 3.3 3.3 0 0 1-1.721-.463 3.5 3.5 0 0 1-1.246-1.284q-.464-.82-.464-1.875 0-1 .448-1.832a3.45 3.45 0 0 1 1.267-1.332q.82-.495 1.929-.48m0 1.172a2.24 2.24 0 0 0-1.21.335q-.533.33-.846.895a2.5 2.5 0 0 0-.309 1.241q0 .683.298 1.241.303.554.826.885.527.325 1.198.325.506 0 .943-.198a2.5 2.5 0 0 0 .762-.548q.33-.353.516-.794.187-.447.187-.932a2.44 2.44 0 0 0-.309-1.199 2.46 2.46 0 0 0-.842-.905 2.2 2.2 0 0 0-1.214-.346m6.444 9.971a.92.92 0 0 1-.677-.282.92.92 0 0 1-.282-.677q0-.393.282-.676a.92.92 0 0 1 .677-.282q.394 0 .676.282a.92.92 0 0 1 .282.676.9.9 0 0 1-.133.48 1 1 0 0 1-.346.351.9.9 0 0 1-.479.128m6.434.064a4.1 4.1 0 0 1-1.342-.255 3.2 3.2 0 0 1-1.225-.826q-.555-.585-.89-1.582-.335-1.002-.335-2.514 0-1.449.271-2.568.272-1.125.789-1.89.517-.773 1.246-1.173.735-.4 1.657-.4.916 0 1.63.368.719.364 1.172 1.012.452.651.586 1.497h-1.3a2.4 2.4 0 0 0-.703-1.22q-.522-.484-1.385-.484-1.267 0-1.998 1.102-.724 1.103-.73 3.095h.086a3.2 3.2 0 0 1 1.624-1.273 3.2 3.2 0 0 1 1.06-.176q.938 0 1.716.469.777.463 1.246 1.284.469.814.469 1.87 0 1.011-.453 1.853a3.45 3.45 0 0 1-1.273 1.332q-.815.489-1.918.48m0-1.172a2.2 2.2 0 0 0 1.204-.335q.538-.336.847-.9.314-.565.314-1.258 0-.675-.303-1.23a2.3 2.3 0 0 0-.826-.89 2.2 2.2 0 0 0-1.193-.33q-.506 0-.943.203a2.4 2.4 0 0 0-.767.543q-.325.346-.511.793a2.52 2.52 0 0 0 .958 3.058q.539.346 1.22.346M820.924 84v-8.182h1.214v1.279h.107q.255-.655.825-1.018.57-.367 1.369-.367.81 0 1.348.367.543.362.847 1.018h.085q.314-.635.943-1.007.628-.378 1.507-.378 1.098 0 1.795.687.698.681.698 2.125V84h-1.257v-5.476q0-.905-.495-1.294a1.84 1.84 0 0 0-1.167-.39q-.863 0-1.337.523-.474.516-.474 1.31V84h-1.278v-5.604q0-.698-.453-1.124-.453-.43-1.167-.431-.49 0-.916.26-.42.262-.682.725-.255.46-.255 1.06V84zm13.037 0v-8.182h1.214v1.279h.107q.255-.655.825-1.018.57-.367 1.369-.367.81 0 1.348.367.543.362.847 1.018h.085q.315-.635.943-1.007.628-.378 1.507-.378 1.098 0 1.795.687.698.681.698 2.125V84h-1.257v-5.476q0-.905-.495-1.294a1.83 1.83 0 0 0-1.167-.39q-.863 0-1.337.523-.474.516-.474 1.31V84h-1.278v-5.604q0-.698-.453-1.124-.453-.43-1.167-.431-.49 0-.916.26-.42.262-.682.725-.255.46-.255 1.06V84zM45.347 338v-10.909h1.321v4.858h5.817v-4.858h1.321V338h-1.32v-4.879h-5.818V338zm14.364.17q-1.182 0-2.04-.522a3.5 3.5 0 0 1-1.316-1.47q-.458-.948-.458-2.205t.458-2.216q.464-.964 1.29-1.502.83-.543 1.938-.543.64 0 1.262.213.624.213 1.135.692.511.474.815 1.257t.304 1.929v.532h-6.307v-1.086h5.028q0-.693-.277-1.236a2.1 2.1 0 0 0-.777-.858q-.5-.314-1.183-.314-.75 0-1.3.373a2.45 2.45 0 0 0-.836.959 2.8 2.8 0 0 0-.293 1.267v.725q0 .926.32 1.571.324.639.9.975.575.33 1.337.33.495 0 .895-.138a1.9 1.9 0 0 0 .697-.426 1.94 1.94 0 0 0 .453-.714l1.215.341a2.7 2.7 0 0 1-.645 1.086 3.14 3.14 0 0 1-1.118.725q-.666.255-1.497.255m5.3-.17v-8.182h1.257V338zm.64-9.545a.9.9 0 0 1-.635-.251.8.8 0 0 1-.26-.602q0-.351.26-.602a.9.9 0 0 1 .634-.25q.368 0 .629.25a.8.8 0 0 1 .266.602.8.8 0 0 1-.266.602.88.88 0 0 1-.629.251m6.222 12.784q-.911 0-1.566-.235a3.3 3.3 0 0 1-1.092-.607 3.3 3.3 0 0 1-.687-.799l1.001-.703q.171.223.432.511.261.293.713.506.458.219 1.199.219.99 0 1.635-.48.645-.479.645-1.502v-1.662h-.107a7 7 0 0 1-.394.554q-.25.325-.724.581-.469.25-1.268.25a3.4 3.4 0 0 1-1.78-.469q-.782-.468-1.24-1.363-.453-.895-.453-2.174 0-1.257.442-2.189.442-.937 1.23-1.449.789-.516 1.822-.516.8 0 1.268.266.474.261.725.597.255.33.394.543h.127v-1.3h1.215v8.416q0 1.055-.48 1.716a2.73 2.73 0 0 1-1.278.974 4.8 4.8 0 0 1-1.779.315m-.043-4.496q.757 0 1.279-.346t.794-.996q.27-.65.271-1.556 0-.884-.266-1.561-.267-.676-.788-1.06-.523-.383-1.29-.383-.798 0-1.331.405-.528.405-.794 1.086a4.2 4.2 0 0 0-.26 1.513q0 .852.265 1.508.272.65.8 1.022.533.368 1.32.368m7.138-3.665V338h-1.257v-10.909h1.257v4.006h.107q.288-.635.863-1.007.58-.378 1.544-.378.837 0 1.465.335.63.33.975 1.018.352.681.352 1.736V338h-1.258v-5.114q0-.974-.506-1.507-.5-.538-1.39-.538a2.3 2.3 0 0 0-1.108.261 1.9 1.9 0 0 0-.767.762q-.276.5-.277 1.214m11.164-3.26v1.066h-4.24v-1.066zm-3.005-1.96h1.258v7.798q0 .533.154.799a.8.8 0 0 0 .405.352q.25.085.527.085.208 0 .341-.021l.213-.043.256 1.129a3 3 0 0 1-.357.096 2.6 2.6 0 0 1-.58.054q-.534 0-1.045-.23a2.07 2.07 0 0 1-.841-.697q-.33-.47-.33-1.183zm5.812 10.227a.92.92 0 0 1-.677-.282.92.92 0 0 1-.282-.677q0-.394.282-.676a.92.92 0 0 1 .677-.282q.394 0 .676.282a.92.92 0 0 1 .283.676.992.992 0 0 1-.48.831.9.9 0 0 1-.48.128m0-6.072a.92.92 0 0 1-.677-.283.92.92 0 0 1-.282-.676q0-.394.282-.677a.92.92 0 0 1 .677-.282q.394 0 .676.282a.93.93 0 0 1 .283.677.9.9 0 0 1-.133.479 1 1 0 0 1-.347.352.9.9 0 0 1-.48.128m11.247-4.922V338h-1.321v-9.524h-.064l-2.663 1.768v-1.342l2.727-1.811zm6.547 11.058q-.937 0-1.689-.373a3.13 3.13 0 0 1-1.204-1.022 2.8 2.8 0 0 1-.495-1.481h1.278q.075.74.671 1.225.602.479 1.439.479.67 0 1.193-.314.527-.314.826-.863.303-.554.303-1.252 0-.714-.314-1.273a2.3 2.3 0 0 0-.852-.889 2.4 2.4 0 0 0-1.242-.331 3.4 3.4 0 0 0-1.028.155 2.9 2.9 0 0 0-.868.399l-1.236-.149.661-5.369h5.667v1.172h-4.559l-.384 3.217h.064q.336-.266.842-.442a3.2 3.2 0 0 1 1.055-.176q1 0 1.784.48a3.35 3.35 0 0 1 1.236 1.299q.453.826.453 1.886 0 1.044-.469 1.864a3.4 3.4 0 0 1-1.279 1.289q-.815.47-1.853.469m9.19-11.207q.67.005 1.342.255.671.25 1.225.831.554.576.89 1.572t.335 2.498q0 1.454-.277 2.583-.272 1.125-.788 1.897a3.5 3.5 0 0 1-1.247 1.172q-.73.399-1.651.399-.916 0-1.635-.362a3.2 3.2 0 0 1-1.172-1.017 3.55 3.55 0 0 1-.581-1.519h1.3q.176.752.698 1.242.527.484 1.39.484 1.263 0 1.992-1.102.735-1.103.735-3.116h-.085a3.4 3.4 0 0 1-.708.772 3.14 3.14 0 0 1-1.976.676 3.3 3.3 0 0 1-1.721-.463 3.5 3.5 0 0 1-1.246-1.284q-.464-.82-.464-1.875 0-1 .448-1.832a3.45 3.45 0 0 1 1.267-1.332q.82-.495 1.929-.479m0 1.172q-.672 0-1.21.335-.532.33-.847.895a2.54 2.54 0 0 0-.308 1.241q0 .682.298 1.241.303.554.825.885.528.324 1.199.325.506 0 .943-.198.437-.202.762-.548.33-.352.516-.794.186-.447.187-.932 0-.64-.309-1.199a2.46 2.46 0 0 0-.842-.905 2.18 2.18 0 0 0-1.214-.346M130.05 338v-8.182h1.214v1.279h.107q.255-.655.826-1.018.57-.367 1.369-.367.81 0 1.347.367.544.363.847 1.018h.085q.315-.635.943-1.007.629-.378 1.508-.378 1.097 0 1.795.687.698.682.698 2.125V338h-1.257v-5.476q0-.906-.496-1.294a1.83 1.83 0 0 0-1.166-.389q-.863 0-1.337.522-.474.516-.474 1.31V338h-1.279v-5.604q0-.698-.453-1.124-.452-.43-1.166-.431-.49 0-.916.261a1.97 1.97 0 0 0-.682.724 2.13 2.13 0 0 0-.256 1.06V338zm13.037 0v-8.182h1.215v1.279h.106q.256-.655.826-1.018.57-.367 1.369-.367.81 0 1.347.367.544.363.847 1.018h.086q.314-.635.942-1.007.629-.378 1.508-.378 1.097 0 1.795.687.698.682.698 2.125V338h-1.257v-5.476q0-.906-.496-1.294a1.83 1.83 0 0 0-1.166-.389q-.863 0-1.337.522-.474.516-.474 1.31V338h-1.279v-5.604q0-.698-.453-1.124-.452-.43-1.166-.431-.49 0-.916.261a1.97 1.97 0 0 0-.682.724 2.13 2.13 0 0 0-.256 1.06V338zM930.468 338v-10.909h1.321v4.858h5.817v-4.858h1.321V338h-1.321v-4.879h-5.817V338zm14.363.17q-1.182 0-2.04-.522a3.5 3.5 0 0 1-1.315-1.47q-.459-.948-.458-2.205 0-1.257.458-2.216.463-.964 1.289-1.502.83-.543 1.939-.543.64 0 1.262.213.624.213 1.135.692.511.474.815 1.257t.303 1.929v.532h-6.307v-1.086h5.029a2.7 2.7 0 0 0-.277-1.236 2.1 2.1 0 0 0-.778-.858q-.501-.314-1.182-.314-.751 0-1.3.373a2.45 2.45 0 0 0-.836.959 2.8 2.8 0 0 0-.293 1.267v.725q0 .926.319 1.571.326.639.9.975.576.33 1.337.33.496 0 .895-.138.405-.144.698-.426a1.95 1.95 0 0 0 .453-.714l1.214.341a2.7 2.7 0 0 1-.644 1.086 3.14 3.14 0 0 1-1.119.725 4.2 4.2 0 0 1-1.497.255m5.301-.17v-8.182h1.257V338zm.639-9.545a.9.9 0 0 1-.634-.251.8.8 0 0 1-.261-.602q0-.351.261-.602a.9.9 0 0 1 .634-.25q.367 0 .628.25a.8.8 0 0 1 .267.602.8.8 0 0 1-.267.602.87.87 0 0 1-.628.251m6.223 12.784q-.912 0-1.566-.235a3.3 3.3 0 0 1-1.092-.607 3.3 3.3 0 0 1-.688-.799l1.002-.703q.17.223.431.511.261.293.714.506.459.219 1.199.219.99 0 1.635-.48.644-.479.644-1.502v-1.662h-.106a7 7 0 0 1-.394.554q-.25.325-.725.581-.468.25-1.267.25a3.4 3.4 0 0 1-1.78-.469q-.782-.468-1.241-1.363-.453-.895-.452-2.174 0-1.257.442-2.189.442-.937 1.23-1.449.789-.516 1.822-.516.799 0 1.268.266.474.261.724.597.256.33.394.543h.128v-1.3h1.215v8.416q0 1.055-.48 1.716a2.73 2.73 0 0 1-1.278.974 4.8 4.8 0 0 1-1.779.315m-.043-4.496q.756 0 1.278-.346t.794-.996.272-1.556q0-.884-.267-1.561a2.34 2.34 0 0 0-.788-1.06q-.522-.383-1.289-.383-.8 0-1.332.405-.527.405-.793 1.086a4.2 4.2 0 0 0-.261 1.513q0 .852.266 1.508.271.65.799 1.022.532.368 1.321.368m7.138-3.665V338h-1.257v-10.909h1.257v4.006h.106q.288-.635.863-1.007.58-.378 1.545-.378.837 0 1.465.335.629.33.975 1.018.351.681.351 1.736V338h-1.257v-5.114q0-.974-.506-1.507-.5-.538-1.39-.538a2.3 2.3 0 0 0-1.108.261 1.9 1.9 0 0 0-.767.762q-.277.5-.277 1.214m11.163-3.26v1.066h-4.24v-1.066zm-3.004-1.96h1.257v7.798q0 .533.155.799a.8.8 0 0 0 .404.352q.25.085.528.085.207 0 .341-.021l.213-.043.255 1.129a3 3 0 0 1-.356.096 2.6 2.6 0 0 1-.581.054q-.532 0-1.044-.23a2.1 2.1 0 0 1-.842-.697q-.33-.47-.33-1.183zm5.811 10.227a.92.92 0 0 1-.676-.282.92.92 0 0 1-.282-.677q0-.394.282-.676a.92.92 0 0 1 .676-.282q.395 0 .677.282a.92.92 0 0 1 .282.676.994.994 0 0 1-.479.831.9.9 0 0 1-.48.128m0-6.072a.92.92 0 0 1-.676-.283.92.92 0 0 1-.282-.676q0-.394.282-.677a.92.92 0 0 1 .676-.282q.395 0 .677.282a.93.93 0 0 1 .282.677.9.9 0 0 1-.133.479 1 1 0 0 1-.346.352.9.9 0 0 1-.48.128m11.248-4.922V338h-1.321v-9.524h-.064l-2.664 1.768v-1.342l2.728-1.811zm6.546 11.058q-.938 0-1.688-.373a3.13 3.13 0 0 1-1.204-1.022 2.8 2.8 0 0 1-.495-1.481h1.278q.075.74.671 1.225.602.479 1.438.479.672 0 1.193-.314.528-.314.826-.863.304-.554.304-1.252 0-.714-.315-1.273a2.3 2.3 0 0 0-.852-.889 2.4 2.4 0 0 0-1.241-.331 3.4 3.4 0 0 0-1.028.155 2.9 2.9 0 0 0-.868.399l-1.236-.149.66-5.369h5.668v1.172h-4.56l-.383 3.217h.064q.336-.266.841-.442a3.2 3.2 0 0 1 1.055-.176q1.002 0 1.785.48.788.474 1.235 1.299.453.826.453 1.886 0 1.044-.469 1.864a3.4 3.4 0 0 1-1.278 1.289q-.814.47-1.854.469m5.717-.149v-.959l3.6-3.942q.63-.692 1.05-1.203.405-.517.6-.97c.14-.305.2-.625.2-.959q0-.574-.27-.996-.27-.42-.75-.65a2.4 2.4 0 0 0-1.06-.229c-.42 0-.79.087-1.1.261q-.465.256-.72.719c-.17.309-.25.672-.25 1.087h-1.26c0-.639.15-1.2.44-1.683.3-.483.7-.86 1.21-1.129.51-.27 1.08-.405 1.72-.405s1.2.135 1.7.405c.49.269.88.633 1.16 1.092q.42.687.42 1.528c0 .402-.07.794-.22 1.178-.14.38-.39.804-.74 1.273-.36.465-.84 1.033-1.47 1.704l-2.45 2.621v.085h5.07V338zm10.02.085a.94.94 0 0 1-.68-.282.954.954 0 0 1 0-1.353.94.94 0 0 1 .68-.282c.26 0 .49.094.68.282a.95.95 0 0 1 .15 1.156c-.09.145-.21.263-.35.351a.9.9 0 0 1-.48.128m6.38.064a3.76 3.76 0 0 1-1.69-.373q-.75-.372-1.2-1.022c-.3-.434-.47-.927-.5-1.481h1.28c.05.493.28.902.67 1.225.41.319.88.479 1.44.479q.675 0 1.2-.314c.35-.21.62-.497.82-.863q.3-.554.3-1.252c0-.476-.1-.9-.31-1.273a2.34 2.34 0 0 0-.85-.889 2.4 2.4 0 0 0-1.24-.331 3.4 3.4 0 0 0-1.03.155q-.525.155-.87.399l-1.23-.149.66-5.369h5.66v1.172h-4.56l-.38 3.217h.06c.23-.177.51-.325.85-.442a3.1 3.1 0 0 1 1.05-.176c.67 0 1.26.16 1.78.48.53.316.94.749 1.24 1.299q.45.826.45 1.886c0 .696-.15 1.317-.47 1.864-.3.544-.73.973-1.27 1.289q-.825.47-1.86.469m9.96-.149v-8.182h1.21v1.279h.11c.17-.437.45-.776.83-1.018.38-.245.83-.367 1.37-.367.53 0 .98.122 1.34.367.36.242.65.581.85 1.018h.08c.21-.423.53-.759.95-1.007.42-.252.92-.378 1.51-.378.73 0 1.33.229 1.79.687.47.454.7 1.163.7 2.125V338h-1.26v-5.476c0-.604-.16-1.035-.49-1.294a1.84 1.84 0 0 0-1.17-.389c-.58 0-1.02.174-1.34.522-.31.344-.47.781-.47 1.31V338h-1.28v-5.604q0-.698-.45-1.124c-.31-.287-.69-.431-1.17-.431-.33 0-.63.087-.92.261-.28.174-.5.415-.68.724-.17.306-.25.659-.25 1.06V338zm13.04 0v-8.182h1.21v1.279h.11c.17-.437.44-.776.82-1.018.38-.245.84-.367 1.37-.367q.81 0 1.35.367c.36.242.64.581.85 1.018h.08c.21-.423.53-.759.94-1.007.42-.252.93-.378 1.51-.378q1.095 0 1.8.687c.46.454.7 1.163.7 2.125V338h-1.26v-5.476c0-.604-.17-1.035-.5-1.294a1.83 1.83 0 0 0-1.16-.389c-.58 0-1.02.174-1.34.522-.32.344-.47.781-.47 1.31V338h-1.28v-5.604c0-.465-.15-.84-.46-1.124-.3-.287-.69-.431-1.16-.431-.33 0-.63.087-.92.261-.28.174-.51.415-.68.724-.17.306-.26.659-.26 1.06V338zM263.303 582l-2.983-10.909h1.342l2.28 8.885h.106l2.323-8.885h1.491l2.323 8.885h.106l2.28-8.885h1.342L270.93 582h-1.363l-2.408-8.693h-.085L264.666 582zm14.755.17q-1.183 0-2.041-.522a3.5 3.5 0 0 1-1.315-1.47q-.458-.948-.458-2.205t.458-2.216q.463-.964 1.289-1.502.83-.543 1.939-.543.64 0 1.262.213.624.213 1.135.692.511.474.815 1.257t.303 1.929v.532h-6.307v-1.086h5.029q0-.693-.277-1.236a2.1 2.1 0 0 0-.778-.858q-.501-.314-1.182-.314-.751 0-1.3.373a2.45 2.45 0 0 0-.836.959 2.8 2.8 0 0 0-.293 1.267v.725q0 .927.319 1.571.325.639.901.975.575.33 1.337.33.495 0 .894-.138.405-.144.698-.426.293-.288.453-.714l1.214.341a2.7 2.7 0 0 1-.644 1.086 3.14 3.14 0 0 1-1.119.725q-.666.255-1.496.255m5.3-.17v-8.182h1.257V582zm.639-9.545a.9.9 0 0 1-.634-.251.8.8 0 0 1-.261-.602q0-.351.261-.602a.9.9 0 0 1 .634-.25q.367 0 .628.25a.8.8 0 0 1 .267.602.8.8 0 0 1-.267.602.87.87 0 0 1-.628.251m6.223 12.784q-.912 0-1.566-.235a3.3 3.3 0 0 1-1.092-.607 3.3 3.3 0 0 1-.687-.799l1.001-.703q.17.223.431.511.261.294.714.506.459.219 1.199.219.99 0 1.635-.48.645-.479.645-1.502v-1.662h-.107a7 7 0 0 1-.394.554q-.25.325-.725.581-.469.25-1.267.25a3.4 3.4 0 0 1-1.779-.469q-.783-.468-1.242-1.363-.452-.895-.452-2.174 0-1.256.442-2.189.442-.937 1.23-1.449.789-.516 1.822-.516.799 0 1.268.266.474.261.724.597.256.33.394.543h.128v-1.3h1.215v8.416q0 1.055-.48 1.716a2.73 2.73 0 0 1-1.278.974 4.8 4.8 0 0 1-1.779.315m-.043-4.496q.757 0 1.279-.346t.793-.996.272-1.556q0-.884-.266-1.561-.267-.676-.789-1.06-.522-.383-1.289-.383-.799 0-1.332.405-.527.405-.793 1.086a4.2 4.2 0 0 0-.261 1.513q0 .852.266 1.508.272.65.799 1.022.533.368 1.321.368m7.138-3.665V582h-1.257v-10.909h1.257v4.006h.106q.288-.635.863-1.007.58-.378 1.545-.378.837 0 1.465.335.629.33.975 1.018.351.681.351 1.736V582h-1.257v-5.114q0-.974-.506-1.507-.5-.538-1.39-.538a2.3 2.3 0 0 0-1.108.261 1.9 1.9 0 0 0-.767.762q-.277.5-.277 1.214m11.163-3.26v1.066h-4.24v-1.066zm-3.004-1.96h1.257v7.798q0 .533.155.799a.8.8 0 0 0 .404.352q.25.085.528.085.207 0 .341-.021l.213-.043.255 1.129a3 3 0 0 1-.356.096 2.6 2.6 0 0 1-.581.054q-.533 0-1.044-.23a2.1 2.1 0 0 1-.842-.697q-.33-.47-.33-1.183zm5.812 10.227a.92.92 0 0 1-.677-.282.92.92 0 0 1-.282-.677q0-.393.282-.676a.92.92 0 0 1 .677-.282q.393 0 .676.282a.92.92 0 0 1 .282.676.9.9 0 0 1-.133.48 1 1 0 0 1-.346.351.9.9 0 0 1-.479.128m0-6.072a.92.92 0 0 1-.677-.283.92.92 0 0 1-.282-.676q0-.394.282-.677a.92.92 0 0 1 .677-.282q.393 0 .676.282a.93.93 0 0 1 .282.677.9.9 0 0 1-.133.479 1 1 0 0 1-.346.352.9.9 0 0 1-.479.128m7.412 5.987v-.959l3.6-3.942q.634-.692 1.045-1.203.41-.517.607-.97.202-.458.202-.959a1.77 1.77 0 0 0-.277-.996 1.8 1.8 0 0 0-.746-.65 2.4 2.4 0 0 0-1.065-.229q-.629 0-1.097.261-.464.256-.719.719a2.25 2.25 0 0 0-.251 1.087h-1.257q0-.959.442-1.683t1.204-1.129a3.6 3.6 0 0 1 1.721-.405q.958 0 1.699.405.741.404 1.161 1.092.421.687.421 1.528 0 .602-.218 1.178-.213.57-.746 1.273-.528.698-1.465 1.704l-2.45 2.621v.085h5.071V582zm12.576.149q-1.098 0-1.939-.389-.836-.393-1.305-1.081a2.7 2.7 0 0 1-.463-1.577 2.9 2.9 0 0 1 .271-1.278q.277-.591.757-.986a2.3 2.3 0 0 1 1.081-.506v-.064a2.1 2.1 0 0 1-1.246-.878 2.67 2.67 0 0 1-.459-1.551 2.64 2.64 0 0 1 .421-1.486 2.97 2.97 0 0 1 1.172-1.033q.752-.378 1.71-.378.948 0 1.694.378t1.172 1.033q.43.656.437 1.486a2.7 2.7 0 0 1-.475 1.551 2.1 2.1 0 0 1-1.23.878v.064q.591.107 1.065.506.475.395.757.986.282.586.287 1.278a2.75 2.75 0 0 1-.479 1.577q-.47.687-1.305 1.081-.831.39-1.923.389m0-1.172q.741 0 1.278-.239.538-.24.831-.677.294-.437.299-1.023a1.96 1.96 0 0 0-.32-1.092 2.16 2.16 0 0 0-.858-.745 2.7 2.7 0 0 0-1.23-.272 2.8 2.8 0 0 0-1.246.272 2.16 2.16 0 0 0-.858.745q-.309.474-.304 1.092-.005.586.283 1.023.293.437.836.677.543.239 1.289.239m0-5.177q.586 0 1.039-.235a1.8 1.8 0 0 0 .719-.655q.261-.42.266-.985a1.8 1.8 0 0 0-.261-.964 1.7 1.7 0 0 0-.708-.64 2.3 2.3 0 0 0-1.055-.229 2.4 2.4 0 0 0-1.071.229 1.66 1.66 0 0 0-.708.64 1.77 1.77 0 0 0-.245.964q-.005.564.25.985.261.421.719.655.459.235 1.055.235m9.307 6.349q-1.204 0-2.051-.655-.846-.66-1.294-1.912-.447-1.257-.448-3.037 0-1.768.448-3.02.453-1.257 1.3-1.917.852-.666 2.045-.666t2.04.666q.852.66 1.3 1.917.453 1.252.453 3.02 0 1.78-.448 3.037-.447 1.251-1.294 1.912-.847.655-2.051.655m0-1.172q1.193 0 1.854-1.15.66-1.15.66-3.282 0-1.416-.303-2.413-.299-.996-.863-1.518a1.9 1.9 0 0 0-1.348-.522q-1.182 0-1.848 1.167-.666 1.162-.666 3.286 0 1.418.298 2.408.298.991.858 1.508.564.516 1.358.516m13.359 4.262q-.91 0-1.566-.235a3.3 3.3 0 0 1-1.092-.607 3.4 3.4 0 0 1-.687-.799l1.002-.703q.17.223.431.511.261.294.714.506.458.219 1.198.219.991 0 1.636-.48.644-.479.644-1.502v-1.662h-.106a7 7 0 0 1-.394.554q-.25.325-.725.581-.468.25-1.268.25-.99 0-1.779-.469-.782-.468-1.241-1.363-.453-.895-.453-2.174 0-1.256.442-2.189.442-.937 1.231-1.449.789-.516 1.822-.516.798 0 1.267.266.474.261.725.597.255.33.394.543h.128v-1.3h1.214v8.416q0 1.055-.479 1.716a2.73 2.73 0 0 1-1.278.974 4.8 4.8 0 0 1-1.78.315m-.042-4.496q.756 0 1.278-.346t.794-.996.272-1.556q0-.884-.267-1.561a2.34 2.34 0 0 0-.788-1.06q-.522-.383-1.289-.383-.8 0-1.332.405-.527.405-.794 1.086a4.2 4.2 0 0 0-.261 1.513q0 .852.267 1.508.271.65.799 1.022.532.368 1.321.368M702.146 107.693a.5.5 0 0 0 0 .707l3.182 3.182a.5.5 0 1 0 .708-.707l-2.829-2.828 2.829-2.829a.5.5 0 0 0-.708-.707zm176.708.707a.5.5 0 0 0 0-.707l-3.182-3.182a.5.5 0 0 0-.708.707l2.829 2.829-2.829 2.828a.5.5 0 0 0 .708.707zm-176.354-.353v.5h176v-1h-176z"/><path stroke="#000" d="M701.5 104v8.094M879.5 104v8.094"/><path fill="#000" d="M909.354 138.146a.5.5 0 0 0-.708 0l-3.182 3.182a.502.502 0 0 0 .708.708l2.828-2.829 2.828 2.829a.502.502 0 0 0 .708-.708zm-.708 388.208a.5.5 0 0 0 .708 0l3.182-3.182a.502.502 0 0 0-.708-.708L909 525.293l-2.828-2.829a.502.502 0 0 0-.708.708zM909 138.5h-.5V526h1V138.5z"/><path stroke="#000" d="M905 137.5h8.109M905 526.5h8.109"/><path fill="#fff" d="M206.565 134.23c-.15-.12-.3-.24-.44-.37-.04-.04-.13-2.25-.13-2.25s.25-1.76 2.6-1.6h202.16s.81.15 1.22 1.03.25 3 .25 3l1.65.2v396.99l-1.01.78-.31.48v1.87s-.15 1.52-2.92 1.4h-201.81s-1.81-.24-1.82-1.88l-.08-1.98-1.38-.98V134.6l.48-.48z"/><path fill="#898989" d="M310.985 491.86c-.04.15-.14.28-.27.36-1.3.75-2.6 1.49-3.89 2.24-.24.13-.5.2-.77.2-.57 0-1.09-.3-1.37-.8-2.53-4.52-5.06-9.03-7.59-13.55-.2-.36-.25-.79-.14-1.19s.38-.74.74-.95c2.61-1.47 5.22-2.95 7.83-4.42.36-.2.79-.26 1.19-.14.4.11.74.38.94.74l3.48 6.21c.08.14.1.3.05.45-.04.15-.14.28-.28.36-.28.16-.64.06-.8-.23l-3.48-6.21a.39.39 0 0 0-.24-.19.35.35 0 0 0-.3.04c-2.61 1.47-5.22 2.94-7.83 4.42-.09.05-.16.14-.18.24-.03.1-.02.21.04.3 2.53 4.52 5.06 9.03 7.59 13.55.11.19.34.26.53.15 1.3-.74 2.59-1.49 3.89-2.23a.594.594 0 0 1 .86.67z"/><path fill="#898989" d="M315.955 486.281c-.18.27-.55.34-.82.15l-6.3-4.35a1.251 1.251 0 0 0-1.94 1.26c.06.33.24.62.52.8 1.17.81 2.34 1.62 3.52 2.43.16.11.25.28.25.47.01.53.19 1.26.36 1.76.19.57.44 1.12.75 1.64a8.6 8.6 0 0 0 2.44 2.61.6.6 0 0 1 .24.38c.03.15 0 .31-.1.44a.58.58 0 0 1-.82.14 9.7 9.7 0 0 1-2.72-2.88c-.67-1.1-1.17-2.45-1.3-3.75-1.09-.76-2.19-1.51-3.29-2.27-.53-.37-.89-.93-1.01-1.56-.12-.64.02-1.29.39-1.82.76-1.1 2.27-1.38 3.37-.62l6.3 4.35c.13.09.22.22.24.38.03.15 0 .31-.09.44z"/><path fill="#898989" d="M321.475 489.14c-.11 1.43-.42 2.84-.94 4.18-.09.23-.31.38-.55.38-.07 0-.14-.01-.21-.04a.63.63 0 0 1-.33-.31.54.54 0 0 1 0-.45c.89-2.29 1.17-5.16.61-7.56-2.3-2.19-4.6-4.38-6.9-6.56l-2.11.39a.576.576 0 0 1-.68-.47.576.576 0 0 1 .47-.68l2.41-.45c.18-.03.37.02.51.15 2.41 2.3 4.83 4.59 7.24 6.89.08.07.13.16.16.27.35 1.24.42 3 .33 4.27zM279.435 443.23c-.27.52-.68.9-1.19 1.16-.92.48-2.13.58-3.13.58h-.43c-.66 0-1.35-.08-1.99-.25-.32-.08-.66-.2-.96-.35-.15-.07-.3-.16-.43-.26s-.31-.27-.31-.45v-1.42c.06.02.11.05.17.07 1.04.43 2.3.81 3.45.81h.47c.45 0 1.07 0 1.51-.1.27-.06.55-.16.73-.39.18-.22.22-.52.22-.79 0-.21-.02-.47-.13-.65-.12-.2-.35-.29-.55-.37-.28-.13-1.15-.22-1.44-.26l-1.02-.14c-.75-.12-1.62-.29-2.28-.69-.79-.48-1.11-1.2-1.11-2.11 0-1.09.35-2.05 1.34-2.63.84-.49 1.95-.6 2.89-.6h.47c.62 0 1.27.08 1.87.22.31.07 1.55.39 1.73.75 0 0 0 .02.01.03v1.45c-.05-.01-.1-.03-.15-.04-1.14-.31-2.2-.5-3.39-.5h-.47c-.4 0-.96 0-1.35.09-.24.05-.51.14-.65.36-.13.21-.15.5-.15.73 0 .28.11.48.36.62.2.11.47.16.69.19.77.1 1.53.19 2.3.29.77.12 1.65.32 2.29.81.73.56.98 1.35.98 2.22 0 .56-.09 1.13-.34 1.63zM290.335 441.16c0 .87-.13 1.85-.62 2.6-.55.84-1.43 1.19-2.39 1.19h-2.77c-.99 0-1.84-.35-2.42-1.19-.5-.72-.71-1.74-.71-2.6v-6.34h2.1v6.31c0 .46.07 1.04.42 1.4.3.3.7.34 1.1.34h1.68c.39 0 .86-.06 1.15-.36.34-.34.34-.95.34-1.38v-6.31h2.12zM295.495 441.5v-1.48h3.54c.43 0 .7-.26.87-.63.14-.32.19-.71.19-1.05 0-.56-.04-1.27-.55-1.66-.45-.35-1.18-.39-1.71-.39h-.5c-.43 0-.89.01-1.3.14-.46.14-.79.41-1 .84-.32.67-.35 1.75-.35 2.47v5.1h-2.25v-5.11c0-1.35.15-3.06 1.18-4.11 1.04-1.07 2.74-1.23 4.1-1.23h.31c1.1 0 2.25.25 3.11.99.9.77 1.24 1.88 1.24 3.02 0 .99-.28 1.96-1.12 2.6-.77.58-1.81.74-2.73.74-.82 0-2.12-.07-2.93-.21-.03 0-.07-.01-.1-.02zM304.045 444.84v-6.6c0-.92.16-1.95.73-2.71.62-.83 1.58-1.14 2.57-1.14.64 0 1.9.1 2.54.21.03 0 .07.01.1.02v1.82h-2.02c-.43 0-1.19-.03-1.48.44-.23.38-.24 1.11-.24 1.52v6.45h-2.2zM318.285 437.15c-.09-.31-.25-.52-.55-.65-.44-.2-1.16-.21-1.62-.21h-.5c-.43 0-.89 0-1.3.14-.45.14-.79.4-1 .84-.32.67-.35 1.75-.35 2.47 0 .76.06 1.86.54 2.53.57.79 1.65.78 2.46.78h.43c1.36 0 2.39-.21 3.7-.55.05-.01.1-.03.15-.04v1.23c0 .11-.05.21-.12.3-.07.08-.15.16-.24.22-.15.11-.33.19-.5.26-.35.14-.74.25-1.11.32-.72.14-1.5.21-2.24.21h-.27c-1.35 0-2.93-.2-3.92-1.28-.96-1.04-1.13-2.65-1.13-3.97s.15-3.06 1.18-4.12c1.04-1.07 2.75-1.23 4.11-1.23h.31c1.03 0 2.19.17 3.06.79.97.69 1.29 1.75 1.29 2.88 0 .45-.09.9-.33 1.29s-.6.68-1 .88c-.75.37-1.69.48-2.5.48s-2.13-.07-2.94-.21c-.03 0-.07-.01-.1-.02v-1.48h3.54c.26 0 .58-.04.79-.22.22-.2.26-.51.26-.78s-.01-.59-.09-.85zM335.775 444.84h-2.01v-6.52c0-.49-.07-1.06-.42-1.46-.36-.41-.92-.5-1.43-.5s-1.03.11-1.36.54c-.3.39-.37.95-.37 1.42v6.52h-2.06v-6.52c0-.48-.04-1.1-.4-1.49-.37-.39-.98-.45-1.47-.45s-1.04.1-1.37.52c-.31.39-.35.96-.35 1.42v6.52h-2v-6.52c0-.9.19-1.91.75-2.65.62-.82 1.54-1.11 2.52-1.11h1.14c.73 0 1.67.36 2.2.87.55-.63 1.44-.87 2.23-.87h1.23c.93 0 1.87.41 2.44 1.16.56.74.73 1.7.73 2.6zM347.295 441.84c-.2.72-.54 1.38-1.07 1.92-1.06 1.09-2.56 1.33-3.99 1.23-1.2.08-2.76-.27-3.67-1.12-.73-.68-1.01-1.57-1.01-2.54 0-.48.12-.95.4-1.35.27-.4.66-.68 1.1-.88.8-.36 1.78-.46 2.64-.46.45 0 2.3.29 2.72.44.03 0 .05.02.08.03v1.23h-3.72c-.28 0-.55.08-.72.32-.16.22-.2.51-.2.76 0 .37.01.78.24 1.1.24.34.64.45 1.03.47h.23c.8.06 2.63.24 3.3-.51.56-.62.6-2.04.6-2.78 0-.9-.07-2.2-.81-2.89-1.14-1.04-5.19-.19-6.32.06l-.15.03v-1.23c0-.09.07-.2.12-.27q.09-.12.21-.21c.15-.12.33-.22.5-.3.34-.15.72-.26 1.09-.33.71-.14 1.49-.19 2.21-.19 1.36 0 3.06.12 4.13 1.16s1.26 2.73 1.26 4.1c.06.68-.03 1.53-.22 2.19z"/><path fill="url(#a)" d="M376.035 190.19h-133.53v221.7h133.53z"/><path stroke="#231815" stroke-linecap="round" stroke-linejoin="round" stroke-width="1.35" d="m412.225 531.83.95-.08M410.505 535.75h-1.59M209.625 535.75h-1.58M412.545 533.71h-1.61M207.615 533.71h-1.62M206.315 531.83l-.94-.08M395.755 526.55h-172.97M205.375 134.12v-.01M204.675 134.87v.01M205.995 132.19v1.54M205.995 532.13v1.58M215.145 518.91V146.95"/><circle cx="204.675" cy="530.98" r=".675" fill="#231815"/><path stroke="#231815" stroke-linecap="round" stroke-linejoin="round" stroke-width="1.35" d="M242.505 411.89v-221.7M411.685 531.41l-.06-.04M411.675 531.41l-.05-.04M376.035 411.89h-133.53M376.035 190.19v221.7"/><circle cx="413.875" cy="530.98" r=".675" fill="#231815"/><path stroke="#231815" stroke-linecap="round" stroke-linejoin="round" stroke-width="1.35" d="M403.405 146.95v371.96M412.545 533.71v-1.58M412.545 133.73v-1.54M413.875 134.87v.01M413.175 134.11v.01M206.865 134.44l.05.04M206.865 134.44l.05.04M242.505 190.19h133.53M206.315 134.021l-.94.09M222.785 139.3h172.97M410.515 130.16h-202.48M412.225 134.021l.95.09M215.145 518.91a7.64 7.64 0 0 0 7.64 7.64M206.915 531.37c-.12.08-.24.17-.35.26M205.995 533.71c0 1.13.92 2.04 2.04 2.04M204.675 530.98c0 .4.3.73.7.76M207.205 133.12c.13.08.27.16.41.24M222.785 139.3a7.64 7.64 0 0 0-7.64 7.64M206.565 134.23c.1.07.2.15.3.22M303.535 160.47a5.74 5.74 0 1 1 11.48 0 5.74 5.74 0 0 1-11.48 0M208.035 130.16c-1.12 0-2.03.91-2.03 2.03M205.375 134.11c-.4.03-.7.37-.7.76M395.755 526.55a7.64 7.64 0 0 0 7.64-7.64M411.975 531.63c-.1-.07-.2-.15-.3-.22M410.505 535.75c1.13 0 2.04-.91 2.04-2.04M413.175 531.75c.4-.03.7-.37.7-.76M410.935 133.36c.13-.07.27-.15.4-.23M403.405 146.95a7.64 7.64 0 0 0-7.64-7.64M411.625 134.48c.12-.08.24-.17.35-.26M412.545 132.19c0-1.12-.91-2.03-2.03-2.03M413.875 134.87c0-.4-.3-.73-.7-.76M206.565 531.63c-.1.08-.21.16-.31.25M206.255 531.88c-.09.08-.18.16-.26.25M411.975 134.23c.1-.08.21-.16.31-.25M412.285 133.98c.09-.08.18-.16.26-.25M412.545 532.13s-.08-.08-.13-.12a5 5 0 0 0-.44-.37M411.325 133.13c.12-.07.24-.15.36-.23.3-.21.6-.44.86-.7M205.995 132.19c.08.08.16.16.25.23.3.26.62.49.96.7M408.915 535.75h-199.29M410.935 533.71h-2.34M209.945 533.71h-2.33M204.675 134.87v396.11M211.075 137.021v393.62M407.475 530.641v-393.62M413.875 530.98V134.87M408.495 133.971l1.81-.43M208.245 133.541l1.8.43M207.615 133.36s.07.03.11.05c.17.06.34.1.52.13M410.305 133.54c.07-.01.14-.03.2-.04.15-.03.29-.07.43-.14M406.685 535.75c.25 0 .5-.05.73-.16s.45-.26.62-.44.32-.42.42-.66.15-.52.15-.78M211.865 535.75c-.25 0-.5-.05-.73-.16s-.45-.26-.62-.44-.32-.42-.42-.66-.15-.52-.15-.78M210.045 133.97c.16.04.29.16.39.29.16.2.25.43.33.66a6.4 6.4 0 0 1 .31 2.1M211.075 530.64c0 .4-.03.81-.09 1.2-.05.34-.13.67-.25.99-.05.13-.11.25-.17.37-.05.1-.11.19-.19.27-.11.12-.26.22-.42.22M408.595 533.71c-.16 0-.31-.1-.42-.22-.08-.08-.14-.17-.19-.27-.07-.12-.12-.24-.17-.37-.12-.32-.2-.66-.25-.99q-.09-.6-.09-1.2M407.475 137.02c0-.38.02-.76.08-1.14.05-.33.12-.65.23-.96.08-.23.17-.46.33-.66.1-.13.23-.25.39-.29M207.265 528.58v-391.3M411.275 528.58v-391.3M207.265 528.58c0 .34 0 .68-.03 1.02-.02.29-.04.59-.08.88-.01.12-.03.23-.05.35l-.06.27-.06.18c-.02.04-.03.07-.07.09M206.915 134.48s.05.06.07.09q.045.09.06.18l.06.27c.02.12.04.23.05.35.04.29.06.59.08.88q.03.51.03 1.02M411.275 137.28c0-.34 0-.68.03-1.02.02-.29.04-.59.08-.88.01-.12.03-.23.05-.35l.06-.27.06-.18c.02-.04.03-.07.07-.09M411.625 531.37s-.05-.06-.07-.09a.6.6 0 0 1-.06-.18l-.06-.27c-.02-.12-.04-.23-.05-.35-.04-.29-.06-.59-.08-.88q-.03-.51-.03-1.02"/><path stroke="#898989" stroke-linecap="round" stroke-linejoin="round" stroke-width=".9" d="M566.13 133.04v399.37M566.13 133.04c.02-.25.03-.51.02-.77 0-.22-.03-.44-.07-.65-.02-.09-.04-.17-.07-.25a.7.7 0 0 0-.09-.19c-.05-.08-.12-.16-.21-.17M566.13 532.41c.01.26.01.52 0 .77-.02.22-.04.44-.1.66-.02.09-.05.17-.08.25-.02.07-.05.13-.09.19-.05.08-.13.16-.22.16"/><path stroke="#231815" stroke-linecap="round" stroke-linejoin="round" stroke-width="1.35" d="m549.74 531.42-8.93-.78M536.24 535.27h13.21M565.63 534.44l-15.14.8M559.11 530.64l-8.93.78M590.52 139.44v4.93M590.52 148.05v118.77M590.52 270.51v118.77M590.52 392.97v118.77M590.52 515.42v11.05M561.44 136.8v391.3M549.96 531.42v3.34M549.96 133.46v-3.27M538.48 528.1V136.8M550.18 133.47l8.93.79M550.51 129.68l13.69 1.19M540.81 134.26l8.93-.79M536.06 130.84l13.34-1.16M561.44 528.1c0 1.32-1.01 2.43-2.33 2.54M579.56 533.15c-.33.12-.67.23-1.02.32M549.96 534.76c0 .28-.23.51-.51.51"/><path stroke="#231815" stroke-linecap="round" stroke-linejoin="round" stroke-width="1.35" d="M550.49 535.24a.52.52 0 0 1-.54-.48v-.03M540.81 530.64a2.554 2.554 0 0 1-2.33-2.54M550.18 531.42c-.15.01-.3.01-.44 0M589.83 137.25s.07.1.1.15M559.11 134.26c1.32.12 2.33 1.22 2.33 2.54M538.48 136.8c0-1.32 1.01-2.43 2.33-2.54M549.73 133.47c.15-.01.3-.01.44 0M549.4 129.68c.28-.02.53.18.55.46v.04M549.96 130.19c0-.28.23-.51.51-.51h.04M590.5 146.21v-.47c0-.46.02-.92.02-1.38M590.52 148.05v-.45c0-.46-.01-.93-.01-1.39M590.5 268.67v-.47c0-.46.02-.92.02-1.38M590.52 270.51v-.45c0-.46-.01-.93-.01-1.39M590.5 391.12v-.47c0-.46.02-.92.02-1.38M590.52 392.97v-.45c0-.46-.01-.93-.01-1.39M590.5 513.58v-.47c0-.46.02-.92.02-1.38M590.52 515.42v-.45c0-.46-.01-.93-.01-1.39M579.37 132.65l8.65 3.2M529.55 535.27h6.69M575.85 533.91l-11.72.61M588.01 530.06l-8.45 3.09M524.45 136.54v393.62M564.2 130.87l11.86 1.04M536.06 130.84l-6.96.61M590.52 526.47c0 1.61-1 3.04-2.51 3.59M579.56 533.15c-1.19.44-2.45.69-3.71.76M529.55 535.27c-2.82 0-5.1-2.28-5.1-5.1"/><path stroke="#231815" stroke-linecap="round" stroke-linejoin="round" stroke-width="1.35" d="M588.02 135.85c1.5.56 2.5 1.99 2.5 3.59M576.06 131.91c1.13.1 2.24.35 3.31.74M524.45 136.54c0-2.65 2.02-4.85 4.66-5.08M705.13 151.74l9.6-9.61M867.08 504.35h-55.61M768.1 504.35h-55.62M875.88 491.6h-2.42M701 491.6h5.1M876.01 491.6h2.55M777.28 513.2l-5.1-6.81M701 491.6v-72.2M701 402.82V152.03M703.55 491.6v-72.2M703.55 402.82V152.03M705.59 423.23v-19.14M707.38 492.87v6.38M715.03 141.41V138M875.48 165.32l2.34-2.33M703.55 424.5h.77M875.25 424.5h.76M878.56 419.4h-2.55M703.55 419.4H701M778.3 524.51v-8.25M701 402.82h3.32M875.25 402.82h3.31M801.26 516.26v8.25M836.98 138v2.55M836.98 140.68v.73M856.88 153.57v-2.81M872.18 499.25v-6.38M873.97 404.09v19.14M874.74 170.15v-3.03M876.01 491.6v-72.2M876.01 402.82V171.17M878.56 153.44v7.74M878.56 419.4v72.2M878.56 402.82V171.17M878.56 153.31v-2.55M807.38 506.39l-5.1 6.81M848.99 153.84l-11.71-11.71M875.76 171.17h2.8M855.86 154.59h-5.07M878.56 153.31h-21.68M703.55 152.03H701M703.68 152.03h.72M856.88 150.76h21.68M715.03 140.55h121.95M715.03 138h121.95M778.3 516.26c0-1.1-.36-2.18-1.02-3.06M772.18 506.39a5.12 5.12 0 0 0-4.08-2.04M707.38 499.25c0 2.82 2.28 5.1 5.1 5.1M705.59 404.09c0-.7-.57-1.28-1.28-1.28M704.32 424.5c.7 0 1.28-.57 1.28-1.28M707.38 492.87c0-.7-.57-1.28-1.28-1.28"/><path stroke="#231815" stroke-linecap="round" stroke-linejoin="round" stroke-width=".9" d="M717.33 487.77h-4.34M712.99 464.81h4.34M711.97 486.75v-20.92M718.35 465.83v20.92M718.35 465.83c0-.56-.46-1.02-1.02-1.02M717.33 487.77c.56 0 1.02-.46 1.02-1.02M711.97 486.75c0 .56.46 1.02 1.02 1.02M712.99 464.81c-.56 0-1.02.46-1.02 1.02"/><path stroke="#231815" stroke-linecap="round" stroke-linejoin="round" stroke-width="1.35" d="M714.73 142.13c.19-.19.3-.45.3-.72M704.4 152.03c.27 0 .53-.11.72-.3"/><path stroke="#231815" stroke-linecap="round" stroke-linejoin="round" stroke-width=".9" d="M708.14 180.61v20.92M703.55 202.55h3.57M703.55 179.59h3.57M708.14 180.61c0-.56-.46-1.02-1.02-1.02M707.12 202.55c.56 0 1.02-.46 1.02-1.02M732.38 141.57v-1.02M773.2 141.57v-1.02M772.18 142.6H733.4M732.38 141.57c0 .56.46 1.02 1.02 1.02M772.18 142.6c.56 0 1.02-.46 1.02-1.02"/><path stroke="#231815" stroke-linecap="round" stroke-linejoin="round" stroke-width="1.35" d="M811.47 504.35a5.1 5.1 0 0 0-4.08 2.04M802.28 513.2c-.66.88-1.02 1.96-1.02 3.06M867.08 504.35c2.82 0 5.1-2.28 5.1-5.1M873.97 423.23c0 .7.57 1.28 1.28 1.28M875.25 402.82c-.7 0-1.28.57-1.28 1.28"/><path stroke="#231815" stroke-linecap="round" stroke-linejoin="round" stroke-width=".9" d="M872.69 389.29h3.32M872.69 348.48h3.32M871.42 388.02v-38.27M871.42 388.02c0 .7.57 1.28 1.28 1.28M872.69 348.48c-.7 0-1.28.57-1.28 1.28"/><path stroke="#231815" stroke-linecap="round" stroke-linejoin="round" stroke-width="1.35" d="M873.46 491.6c-.7 0-1.28.57-1.28 1.28"/><path stroke="#231815" stroke-linecap="round" stroke-linejoin="round" stroke-width=".9" d="M866.57 487.77h-4.33M862.24 464.81h4.33M861.21 486.75v-20.92M867.59 465.83v20.92M867.59 465.83c0-.56-.46-1.02-1.02-1.02M866.57 487.77c.56 0 1.02-.46 1.02-1.02M861.21 486.75c0 .56.46 1.02 1.02 1.02M862.24 464.81c-.56 0-1.02.46-1.02 1.02M745.14 277.04v80.33M752.79 365.02h73.98M834.43 357.37v-80.33M826.77 269.39h-73.98M745.14 357.37a7.65 7.65 0 0 0 7.65 7.65M752.79 269.39a7.65 7.65 0 0 0-7.65 7.65M826.77 365.02a7.65 7.65 0 0 0 7.65-7.65M834.43 277.04a7.65 7.65 0 0 0-7.65-7.65"/><path stroke="#231815" stroke-linecap="round" stroke-linejoin="round" stroke-width="1.35" d="M848.99 153.84c.48.48 1.13.75 1.8.75M875.48 165.32c-.48.48-.75 1.13-.75 1.8M877.82 162.99c.48-.48.75-1.13.75-1.8M874.74 170.15c0 .56.46 1.02 1.02 1.02M855.86 154.59c.56 0 1.02-.46 1.02-1.02M836.98 141.41c0 .27.11.53.3.72"/><path stroke="#231815" stroke-linecap="round" stroke-linejoin="round" stroke-width=".9" d="M871.42 201.53v-20.92M872.44 202.55h3.57M872.44 179.59h3.57M872.44 179.59c-.56 0-1.02.46-1.02 1.02M871.42 201.53c0 .56.46 1.02 1.02 1.02M861.98 154.33v-1.02M873.46 154.33v-1.02M872.44 155.35H863M872.44 155.35c.56 0 1.02-.46 1.02-1.02M861.98 154.33c0 .56.46 1.02 1.02 1.02"/><path stroke="#231815" stroke-linecap="round" stroke-linejoin="round" stroke-width="1.35" d="M801.26 527.06H778.3M801.26 524.51H778.3M778.3 527.06v-2.55M801.26 527.06v-2.55"/><path stroke="#231815" stroke-linecap="round" stroke-linejoin="round" stroke-width=".9" d="M839.53 447.49h12.76M839.53 403.93h12.76M834.43 449.09v-46.76M839.53 449.09v-9.28M839.53 410.21v-7.88M852.29 402.33v7.88M852.29 439.81v9.28M857.39 402.33v46.76M839.53 402.33c0-1.41-1.14-2.55-2.55-2.55s-2.55 1.14-2.55 2.55M834.43 449.09c0 1.41 1.14 2.55 2.55 2.55s2.55-1.14 2.55-2.55M852.29 449.09c0 1.41 1.14 2.55 2.55 2.55s2.55-1.14 2.55-2.55M857.39 402.33c0-1.41-1.14-2.55-2.55-2.55s-2.55 1.14-2.55 2.55M839.53 437.85h12.76M839.53 428.91h12.76M839.53 421.66h12.76M839.53 412.17h12.76M839.53 410.21v29.6M852.29 410.21v29.6M784.04 412.26v20.4M795.52 432.66v-20.4M795.52 412.26a5.74 5.74 0 0 0-11.48 0M784.04 432.66a5.74 5.74 0 0 0 11.48 0M724.85 463.28c0-2.04 1.66-3.7 3.7-3.7s3.7 1.66 3.7 3.7-1.66 3.7-3.7 3.7-3.7-1.66-3.7-3.7M786.08 391.85c0-2.04 1.66-3.7 3.7-3.7s3.7 1.66 3.7 3.7-1.66 3.7-3.7 3.7-3.7-1.66-3.7-3.7M731.74 226.02c0-2.47 2-4.46 4.46-4.46s4.46 2 4.46 4.46-2 4.46-4.46 4.46-4.46-2-4.46-4.46M732.51 213.26c0-2.04 1.66-3.7 3.7-3.7s3.7 1.66 3.7 3.7-1.66 3.7-3.7 3.7-3.7-1.66-3.7-3.7M847.31 463.28c0-2.04 1.66-3.7 3.7-3.7s3.7 1.66 3.7 3.7-1.66 3.7-3.7 3.7-3.7-1.66-3.7-3.7M779.58 219h20.41M799.99 207.52h-20.41M779.58 207.52a5.74 5.74 0 0 0 0 11.48M799.99 219a5.74 5.74 0 0 0 0-11.48M838.89 226.02c0-2.47 2-4.46 4.46-4.46s4.46 2 4.46 4.46-2 4.46-4.46 4.46-4.46-2-4.46-4.46M839.66 213.26c0-2.04 1.66-3.7 3.7-3.7s3.7 1.66 3.7 3.7-1.66 3.7-3.7 3.7-3.7-1.66-3.7-3.7"/><defs><linearGradient id="a" x1="220.465" x2="398.075" y1="389.84" y2="212.23" gradientUnits="userSpaceOnUse"><stop stop-color="#bfbfbf"/><stop offset=".14" stop-color="#c2c2c2"/><stop offset=".27" stop-color="#cecece"/><stop offset=".4" stop-color="#e0e0e0"/><stop offset=".53" stop-color="#fbfbfb"/><stop offset=".54" stop-color="#e0e0e0"/><stop offset=".55" stop-color="#cdcdcd"/><stop offset=".56" stop-color="#ccc"/><stop offset="1" stop-color="#fff"/></linearGradient></defs></svg>