<svg width="11" height="11" viewBox="0 0 11 11" fill="none" xmlns="http://www.w3.org/2000/svg">
<path d="M3.74 0.5H1.35C0.880558 0.5 0.5 0.880558 0.5 1.35V3.74C0.5 4.20944 0.880558 4.59 1.35 4.59H3.74C4.20944 4.59 4.59 4.20944 4.59 3.74V1.35C4.59 0.880558 4.20944 0.5 3.74 0.5Z" stroke="#ffff" stroke-miterlimit="10"/>
<path d="M9.33998 0.5H6.94998C6.48053 0.5 6.09998 0.880558 6.09998 1.35V3.74C6.09998 4.20944 6.48053 4.59 6.94998 4.59H9.33998C9.80942 4.59 10.19 4.20944 10.19 3.74V1.35C10.19 0.880558 9.80942 0.5 9.33998 0.5Z" stroke="currentColor" stroke-miterlimit="10"/>
<path d="M3.74 6.07007H1.35C0.880558 6.07007 0.5 6.45063 0.5 6.92007V9.31007C0.5 9.77951 0.880558 10.1601 1.35 10.1601H3.74C4.20944 10.1601 4.59 9.77951 4.59 9.31007V6.92007C4.59 6.45063 4.20944 6.07007 3.74 6.07007Z" stroke="currentColor" stroke-miterlimit="10"/>
<path d="M9.33998 6.07007H6.94998C6.48053 6.07007 6.09998 6.45063 6.09998 6.92007V9.31007C6.09998 9.77951 6.48053 10.1601 6.94998 10.1601H9.33998C9.80942 10.1601 10.19 9.77951 10.19 9.31007V6.92007C10.19 6.45063 9.80942 6.07007 9.33998 6.07007Z" stroke="currentColor" stroke-miterlimit="10"/>
</svg>
