<svg xmlns="http://www.w3.org/2000/svg" width="16" height="27" fill="none" viewBox="0 0 16 27"><path fill="#000" d="M14.62 13.84q0 1.66-.42 3.02a6.3 6.3 0 0 1-1.24 2.32q-.82.98-2.1 1.48l3.44 3.74h-3.4l-2.66-3.2H7.9q-1.72 0-3-.52-1.26-.54-2.08-1.5-.82-.98-1.24-2.34-.4-1.36-.4-3.02 0-2.22.72-3.86.74-1.64 2.22-2.54 1.5-.92 3.8-.92 2.26 0 3.74.92 1.48.9 2.22 2.56.74 1.64.74 3.86m-10.74 0q0 1.62.42 2.78.44 1.16 1.32 1.78.9.62 2.28.62 1.42 0 2.3-.62t1.3-1.78.42-2.78q0-2.42-.94-3.8T7.92 8.66q-1.4 0-2.3.62-.88.62-1.32 1.78-.42 1.16-.42 2.78"/></svg>