<svg width="1097" height="663" viewBox="0 0 1097 663" fill="none" xmlns="http://www.w3.org/2000/svg">
<rect width="1097" height="663" fill="white"/>
<path d="M737.146 67.6465C736.951 67.8417 736.951 68.1583 737.146 68.3536L740.328 71.5355C740.524 71.7308 740.84 71.7308 741.036 71.5355C741.231 71.3403 741.231 71.0237 741.036 70.8284L738.207 68L741.036 65.1716C741.231 64.9763 741.231 64.6597 741.036 64.4645C740.84 64.2692 740.524 64.2692 740.328 64.4645L737.146 67.6465ZM823.854 68.3536C824.049 68.1583 824.049 67.8417 823.854 67.6465L820.672 64.4645C820.476 64.2692 820.16 64.2692 819.964 64.4645C819.769 64.6597 819.769 64.9763 819.964 65.1716L822.793 68L819.964 70.8284C819.769 71.0237 819.769 71.3403 819.964 71.5355C820.16 71.7308 820.476 71.7308 820.672 71.5355L823.854 68.3536ZM737.5 68L737.5 68.5L823.5 68.5L823.5 68L823.5 67.5L737.5 67.5L737.5 68Z" fill="black"/>
<line x1="736.5" y1="64" x2="736.5" y2="72" stroke="black"/>
<line x1="824.5" y1="64" x2="824.5" y2="72" stroke="black"/>
<path d="M735.688 44H732.322V33.0909H735.838C736.896 33.0909 737.801 33.3093 738.554 33.7461C739.307 34.1793 739.884 34.8026 740.285 35.6158C740.687 36.4254 740.887 37.3949 740.887 38.5241C740.887 39.6605 740.685 40.6388 740.28 41.4592C739.875 42.2759 739.286 42.9045 738.512 43.3448C737.737 43.7816 736.796 44 735.688 44ZM733.643 42.8281H735.603C736.505 42.8281 737.253 42.6541 737.846 42.3061C738.439 41.9581 738.881 41.4627 739.172 40.82C739.463 40.1772 739.609 39.4119 739.609 38.5241C739.609 37.6435 739.465 36.8853 739.177 36.2496C738.89 35.6104 738.46 35.1204 737.888 34.7795C737.317 34.435 736.605 34.2628 735.752 34.2628H733.643V42.8281ZM746.363 44.1705C745.575 44.1705 744.895 43.9964 744.323 43.6484C743.755 43.2969 743.316 42.8068 743.007 42.1783C742.702 41.5462 742.549 40.8111 742.549 39.973C742.549 39.1349 742.702 38.3963 743.007 37.7571C743.316 37.1143 743.746 36.6136 744.296 36.255C744.85 35.8928 745.497 35.7116 746.235 35.7116C746.661 35.7116 747.082 35.7827 747.498 35.9247C747.913 36.0668 748.291 36.2976 748.632 36.6172C748.973 36.9332 749.245 37.3523 749.447 37.8743C749.65 38.3963 749.751 39.0391 749.751 39.8026V40.3352H743.444V39.2486H748.473C748.473 38.7869 748.38 38.375 748.196 38.0128C748.014 37.6506 747.755 37.3647 747.418 37.1552C747.084 36.9457 746.69 36.8409 746.235 36.8409C745.735 36.8409 745.301 36.9652 744.936 37.2138C744.573 37.4588 744.295 37.7784 744.099 38.1726C743.904 38.5668 743.806 38.9893 743.806 39.4403V40.1648C743.806 40.7827 743.913 41.3065 744.126 41.7362C744.343 42.1623 744.643 42.4872 745.026 42.7109C745.41 42.9311 745.855 43.0412 746.363 43.0412C746.693 43.0412 746.992 42.995 747.258 42.9027C747.528 42.8068 747.761 42.6648 747.956 42.4766C748.151 42.2848 748.302 42.0469 748.409 41.7628L749.623 42.1037C749.495 42.5156 749.28 42.8778 748.979 43.1903C748.677 43.4993 748.304 43.7408 747.86 43.9148C747.416 44.0852 746.917 44.1705 746.363 44.1705ZM751.663 47.0682V35.8182H752.878V37.1179H753.027C753.119 36.9759 753.247 36.7947 753.41 36.5746C753.577 36.3509 753.815 36.152 754.124 35.978C754.437 35.8004 754.859 35.7116 755.392 35.7116C756.081 35.7116 756.688 35.8839 757.214 36.2283C757.739 36.5728 758.149 37.0611 758.444 37.6932C758.739 38.3253 758.886 39.071 758.886 39.9304C758.886 40.7969 758.739 41.5479 758.444 42.1836C758.149 42.8157 757.741 43.3058 757.219 43.6538C756.697 43.9982 756.095 44.1705 755.413 44.1705C754.888 44.1705 754.467 44.0835 754.151 43.9094C753.835 43.7319 753.592 43.5312 753.421 43.3075C753.251 43.0803 753.119 42.892 753.027 42.7429H752.92V47.0682H751.663ZM752.899 39.9091C752.899 40.527 752.99 41.0721 753.171 41.5444C753.352 42.0131 753.616 42.3807 753.964 42.647C754.312 42.9098 754.739 43.0412 755.243 43.0412C755.768 43.0412 756.207 42.9027 756.559 42.6257C756.914 42.3452 757.18 41.9687 757.358 41.4964C757.539 41.0206 757.629 40.4915 757.629 39.9091C757.629 39.3338 757.54 38.8153 757.363 38.3537C757.189 37.8885 756.924 37.521 756.569 37.2511C756.218 36.9776 755.775 36.8409 755.243 36.8409C754.731 36.8409 754.302 36.9705 753.954 37.2298C753.606 37.4854 753.343 37.8441 753.165 38.3058C752.988 38.7638 752.899 39.2983 752.899 39.9091ZM764.362 35.8182V36.8835H760.122V35.8182H764.362ZM761.358 33.858H762.615V41.6562C762.615 42.0114 762.666 42.2777 762.769 42.4553C762.876 42.6293 763.011 42.7464 763.174 42.8068C763.341 42.8636 763.517 42.892 763.702 42.892C763.84 42.892 763.954 42.8849 764.043 42.8707C764.131 42.853 764.202 42.8388 764.256 42.8281L764.511 43.9574C764.426 43.9893 764.307 44.0213 764.154 44.0533C764.002 44.0888 763.808 44.1065 763.574 44.1065C763.219 44.1065 762.871 44.0302 762.53 43.8775C762.192 43.7248 761.912 43.4922 761.688 43.1797C761.468 42.8672 761.358 42.473 761.358 41.9972V33.858ZM767.686 39.0781V44H766.429V33.0909H767.686V37.0966H767.793C767.984 36.674 768.272 36.3384 768.655 36.0898C769.043 35.8377 769.557 35.7116 770.2 35.7116C770.758 35.7116 771.246 35.8235 771.665 36.0472C772.084 36.2674 772.409 36.6065 772.64 37.0646C772.874 37.5192 772.991 38.098 772.991 38.8011V44H771.734V38.8864C771.734 38.2365 771.566 37.734 771.228 37.3789C770.894 37.0202 770.431 36.8409 769.838 36.8409C769.426 36.8409 769.057 36.9279 768.73 37.1019C768.407 37.2759 768.151 37.5298 767.963 37.8636C767.778 38.1974 767.686 38.6023 767.686 39.0781ZM776.207 44.0852C775.945 44.0852 775.719 43.9911 775.531 43.8029C775.343 43.6147 775.249 43.3892 775.249 43.1264C775.249 42.8636 775.343 42.6381 775.531 42.4499C775.719 42.2617 775.945 42.1676 776.207 42.1676C776.47 42.1676 776.696 42.2617 776.884 42.4499C777.072 42.6381 777.166 42.8636 777.166 43.1264C777.166 43.3004 777.122 43.4602 777.033 43.6058C776.948 43.7514 776.832 43.8686 776.687 43.9574C776.545 44.0426 776.385 44.0852 776.207 44.0852ZM776.207 38.0128C775.945 38.0128 775.719 37.9187 775.531 37.7305C775.343 37.5423 775.249 37.3168 775.249 37.054C775.249 36.7912 775.343 36.5657 775.531 36.3775C775.719 36.1893 775.945 36.0952 776.207 36.0952C776.47 36.0952 776.696 36.1893 776.884 36.3775C777.072 36.5657 777.166 36.7912 777.166 37.054C777.166 37.228 777.122 37.3878 777.033 37.5334C776.948 37.679 776.832 37.7962 776.687 37.8849C776.545 37.9702 776.385 38.0128 776.207 38.0128ZM787.455 33.0909V44H786.134V34.4759H786.07L783.406 36.2443V34.902L786.134 33.0909H787.455ZM794.086 44.1491C793.355 44.1491 792.709 44.0195 792.148 43.7603C791.59 43.4975 791.155 43.1371 790.843 42.679C790.53 42.2173 790.376 41.6918 790.379 41.1023C790.376 40.6406 790.466 40.2145 790.651 39.8239C790.835 39.4297 791.088 39.1012 791.407 38.8384C791.73 38.5721 792.091 38.4034 792.488 38.3324V38.2685C791.966 38.1335 791.551 37.8406 791.242 37.3896C790.933 36.935 790.78 36.4183 790.784 35.8395C790.78 35.2855 790.921 34.7901 791.205 34.3533C791.489 33.9165 791.879 33.5721 792.377 33.32C792.877 33.0678 793.447 32.9418 794.086 32.9418C794.719 32.9418 795.283 33.0678 795.78 33.32C796.278 33.5721 796.668 33.9165 796.952 34.3533C797.24 34.7901 797.385 35.2855 797.389 35.8395C797.385 36.4183 797.227 36.935 796.915 37.3896C796.606 37.8406 796.196 38.1335 795.684 38.2685V38.3324C796.079 38.4034 796.434 38.5721 796.75 38.8384C797.066 39.1012 797.318 39.4297 797.506 39.8239C797.694 40.2145 797.79 40.6406 797.794 41.1023C797.79 41.6918 797.631 42.2173 797.314 42.679C797.002 43.1371 796.567 43.4975 796.009 43.7603C795.455 44.0195 794.814 44.1491 794.086 44.1491ZM794.086 42.9773C794.58 42.9773 795.006 42.8974 795.365 42.7376C795.724 42.5778 796.001 42.3523 796.196 42.0611C796.391 41.7699 796.491 41.429 796.494 41.0384C796.491 40.6264 796.384 40.2624 796.175 39.9464C795.965 39.6303 795.679 39.3817 795.317 39.2006C794.958 39.0195 794.548 38.929 794.086 38.929C793.621 38.929 793.206 39.0195 792.84 39.2006C792.478 39.3817 792.192 39.6303 791.982 39.9464C791.776 40.2624 791.675 40.6264 791.679 41.0384C791.675 41.429 791.769 41.7699 791.961 42.0611C792.156 42.3523 792.435 42.5778 792.797 42.7376C793.16 42.8974 793.589 42.9773 794.086 42.9773ZM794.086 37.7997C794.477 37.7997 794.823 37.7216 795.125 37.5653C795.431 37.4091 795.67 37.1907 795.844 36.9102C796.018 36.6296 796.107 36.3011 796.111 35.9247C796.107 35.5554 796.02 35.234 795.85 34.9606C795.679 34.6836 795.443 34.4705 795.141 34.3214C794.839 34.1687 794.488 34.0923 794.086 34.0923C793.678 34.0923 793.321 34.1687 793.016 34.3214C792.71 34.4705 792.474 34.6836 792.307 34.9606C792.14 35.234 792.059 35.5554 792.062 35.9247C792.059 36.3011 792.142 36.6296 792.313 36.9102C792.487 37.1907 792.726 37.4091 793.032 37.5653C793.337 37.7216 793.689 37.7997 794.086 37.7997ZM804.075 44V35.8182H805.29V37.0966H805.396C805.567 36.6598 805.842 36.3207 806.222 36.0792C806.602 35.8342 807.058 35.7116 807.591 35.7116C808.131 35.7116 808.58 35.8342 808.939 36.0792C809.301 36.3207 809.583 36.6598 809.786 37.0966H809.871C810.08 36.674 810.395 36.3384 810.814 36.0898C811.233 35.8377 811.735 35.7116 812.321 35.7116C813.053 35.7116 813.651 35.9407 814.116 36.3988C814.581 36.8533 814.814 37.5618 814.814 38.5241V44H813.557V38.5241C813.557 37.9205 813.392 37.489 813.062 37.2298C812.731 36.9705 812.342 36.8409 811.895 36.8409C811.32 36.8409 810.874 37.0149 810.558 37.3629C810.242 37.7074 810.084 38.1442 810.084 38.6733V44H808.805V38.3963C808.805 37.9311 808.655 37.5565 808.353 37.2724C808.051 36.9847 807.662 36.8409 807.186 36.8409C806.859 36.8409 806.554 36.9279 806.27 37.1019C805.989 37.2759 805.762 37.5174 805.588 37.8263C805.418 38.1317 805.332 38.4851 805.332 38.8864V44H804.075ZM817.112 44V35.8182H818.327V37.0966H818.434C818.604 36.6598 818.879 36.3207 819.259 36.0792C819.639 35.8342 820.095 35.7116 820.628 35.7116C821.168 35.7116 821.617 35.8342 821.976 36.0792C822.338 36.3207 822.62 36.6598 822.823 37.0966H822.908C823.117 36.674 823.432 36.3384 823.851 36.0898C824.27 35.8377 824.772 35.7116 825.358 35.7116C826.09 35.7116 826.688 35.9407 827.153 36.3988C827.619 36.8533 827.851 37.5618 827.851 38.5241V44H826.594V38.5241C826.594 37.9205 826.429 37.489 826.099 37.2298C825.768 36.9705 825.38 36.8409 824.932 36.8409C824.357 36.8409 823.911 37.0149 823.595 37.3629C823.279 37.7074 823.121 38.1442 823.121 38.6733V44H821.843V38.3963C821.843 37.9311 821.692 37.5565 821.39 37.2724C821.088 36.9847 820.699 36.8409 820.223 36.8409C819.897 36.8409 819.591 36.9279 819.307 37.1019C819.027 37.2759 818.799 37.5174 818.625 37.8263C818.455 38.1317 818.37 38.4851 818.37 38.8864V44H817.112Z" fill="black"/>
<path d="M819.5 162.6C819.5 163.9 818.45 164.95 817.15 164.95C815.85 164.95 814.8 163.9 814.8 162.6V100.35C814.8 99.05 815.85 98 817.15 98C818.45 98 819.5 99.05 819.5 100.35V162.6Z" stroke="#231815" stroke-width="1.5" stroke-miterlimit="10"/>
<path d="M819.5 579.7C819.5 581 818.45 582.05 817.15 582.05C815.85 582.05 814.8 581 814.8 579.7V517.45C814.8 516.15 815.85 515.1 817.15 515.1C818.45 515.1 819.5 516.15 819.5 517.45V579.7Z" stroke="#231815" stroke-width="1.5" stroke-miterlimit="10"/>
<path d="M823.98 158.689H780.07L736 169.649V509.679L779.99 520.319H823.98V158.689Z" fill="white" stroke="#231815" stroke-miterlimit="10"/>
<path d="M779.99 158.689V520.319" stroke="#231815" stroke-width="0.7" stroke-miterlimit="10"/>
<path d="M792.36 260.76H767.63V386.63H792.36V260.76Z" fill="white" stroke="#231815" stroke-miterlimit="10"/>
<path d="M823.98 158.689H780.07L736 169.649V509.679L779.99 520.319H823.98V158.689Z" stroke="#231815" stroke-width="1.5" stroke-miterlimit="10"/>
<path d="M790.06 260.76H769.71V280.49H790.06V260.76Z" fill="#A6A6A6" stroke="#231815" stroke-width="0.5" stroke-miterlimit="10"/>
<path d="M787.72 270.619C787.72 274.939 784.22 278.449 779.89 278.449C775.56 278.449 772.06 274.949 772.06 270.619C772.06 266.289 775.56 262.789 779.89 262.789C784.22 262.789 787.72 266.289 787.72 270.619Z" fill="#808080" stroke="#231815" stroke-width="0.2" stroke-miterlimit="10"/>
<path d="M786.34 270.62C786.34 274.18 783.45 277.07 779.89 277.07C776.33 277.07 773.44 274.18 773.44 270.62C773.44 267.06 776.33 264.17 779.89 264.17C783.45 264.17 786.34 267.06 786.34 270.62Z" fill="black" stroke="#231815" stroke-miterlimit="10"/>
<path d="M790.06 281.99H769.71V301.72H790.06V281.99Z" fill="#A6A6A6" stroke="#231815" stroke-width="0.5" stroke-miterlimit="10"/>
<path d="M787.72 291.85C787.72 296.17 784.22 299.68 779.89 299.68C775.56 299.68 772.06 296.18 772.06 291.85C772.06 287.52 775.56 284.02 779.89 284.02C784.22 284.02 787.72 287.52 787.72 291.85Z" fill="#808080" stroke="#231815" stroke-width="0.2" stroke-miterlimit="10"/>
<path d="M786.34 291.85C786.34 295.41 783.45 298.3 779.89 298.3C776.33 298.3 773.44 295.41 773.44 291.85C773.44 288.29 776.33 285.4 779.89 285.4C783.45 285.4 786.34 288.29 786.34 291.85Z" fill="black" stroke="#231815" stroke-miterlimit="10"/>
<path d="M790.06 303.221H769.71V322.951H790.06V303.221Z" fill="#A6A6A6" stroke="#231815" stroke-width="0.5" stroke-miterlimit="10"/>
<path d="M787.72 313.08C787.72 317.4 784.22 320.91 779.89 320.91C775.56 320.91 772.06 317.41 772.06 313.08C772.06 308.75 775.56 305.25 779.89 305.25C784.22 305.25 787.72 308.75 787.72 313.08Z" fill="#808080" stroke="#231815" stroke-width="0.2" stroke-miterlimit="10"/>
<path d="M786.34 313.081C786.34 316.641 783.45 319.531 779.89 319.531C776.33 319.531 773.44 316.641 773.44 313.081C773.44 309.521 776.33 306.631 779.89 306.631C783.45 306.631 786.34 309.521 786.34 313.081Z" fill="black" stroke="#231815" stroke-miterlimit="10"/>
<path d="M790.06 324.439H769.71V344.169H790.06V324.439Z" fill="#A6A6A6" stroke="#231815" stroke-width="0.5" stroke-miterlimit="10"/>
<path d="M787.72 334.309C787.72 338.629 784.22 342.139 779.89 342.139C775.56 342.139 772.06 338.639 772.06 334.309C772.06 329.979 775.56 326.479 779.89 326.479C784.22 326.479 787.72 329.989 787.72 334.309Z" fill="#808080" stroke="#231815" stroke-width="0.2" stroke-miterlimit="10"/>
<path d="M786.34 334.309C786.34 337.869 783.45 340.759 779.89 340.759C776.33 340.759 773.44 337.869 773.44 334.309C773.44 330.749 776.33 327.859 779.89 327.859C783.45 327.859 786.34 330.749 786.34 334.309Z" fill="black" stroke="#231815" stroke-miterlimit="10"/>
<path d="M790.06 345.67H769.71V365.4H790.06V345.67Z" fill="#A6A6A6" stroke="#231815" stroke-width="0.5" stroke-miterlimit="10"/>
<path d="M779.89 363.369C784.214 363.369 787.72 359.863 787.72 355.539C787.72 351.215 784.214 347.709 779.89 347.709C775.566 347.709 772.06 351.215 772.06 355.539C772.06 359.863 775.566 363.369 779.89 363.369Z" fill="#808080" stroke="#231815" stroke-width="0.2" stroke-miterlimit="10"/>
<path d="M786.34 355.54C786.34 359.1 783.45 361.99 779.89 361.99C776.33 361.99 773.44 359.1 773.44 355.54C773.44 351.98 776.33 349.09 779.89 349.09C783.45 349.09 786.34 351.98 786.34 355.54Z" fill="black" stroke="#231815" stroke-miterlimit="10"/>
<path d="M790.06 366.9H769.71V386.63H790.06V366.9Z" fill="#A6A6A6" stroke="#231815" stroke-width="0.5" stroke-miterlimit="10"/>
<path d="M787.72 376.76C787.72 381.08 784.22 384.59 779.89 384.59C775.56 384.59 772.06 381.09 772.06 376.76C772.06 372.43 775.56 368.93 779.89 368.93C784.22 368.93 787.72 372.43 787.72 376.76Z" fill="#808080" stroke="#231815" stroke-width="0.2" stroke-miterlimit="10"/>
<path d="M786.34 376.761C786.34 380.321 783.45 383.211 779.89 383.211C776.33 383.211 773.44 380.321 773.44 376.761C773.44 373.201 776.33 370.311 779.89 370.311C783.45 370.311 786.34 373.201 786.34 376.761Z" fill="black" stroke="#231815" stroke-miterlimit="10"/>
<path d="M792.36 260.76H767.63V386.63H792.36V260.76Z" stroke="#231815" stroke-miterlimit="10"/>
<path d="M285.146 67.6464C284.951 67.8417 284.951 68.1583 285.146 68.3536L288.328 71.5355C288.524 71.7308 288.84 71.7308 289.036 71.5355C289.231 71.3403 289.231 71.0237 289.036 70.8284L286.207 68L289.036 65.1716C289.231 64.9763 289.231 64.6597 289.036 64.4645C288.84 64.2692 288.524 64.2692 288.328 64.4645L285.146 67.6464ZM472.354 68.3536C472.549 68.1583 472.549 67.8417 472.354 67.6464L469.172 64.4645C468.976 64.2692 468.66 64.2692 468.464 64.4645C468.269 64.6597 468.269 64.9763 468.464 65.1716L471.293 68L468.464 70.8284C468.269 71.0237 468.269 71.3403 468.464 71.5355C468.66 71.7308 468.976 71.7308 469.172 71.5355L472.354 68.3536ZM285.5 68V68.5L472 68.5V68V67.5L285.5 67.5V68Z" fill="black"/>
<path d="M284.5 64L284.5 169.5" stroke="black"/>
<path d="M473 64L473 169.5" stroke="black"/>
<path d="M332.725 44L329.742 33.0909H331.084L333.364 41.9759H333.471L335.793 33.0909H337.285L339.607 41.9759H339.714L341.993 33.0909H343.336L340.353 44H338.989L336.581 35.3068H336.496L334.089 44H332.725ZM344.811 44V35.8182H346.068V44H344.811ZM345.45 34.4545C345.205 34.4545 344.994 34.3711 344.817 34.2042C344.643 34.0373 344.556 33.8366 344.556 33.6023C344.556 33.3679 344.643 33.1673 344.817 33.0004C344.994 32.8335 345.205 32.75 345.45 32.75C345.695 32.75 345.905 32.8335 346.079 33.0004C346.257 33.1673 346.345 33.3679 346.345 33.6023C346.345 33.8366 346.257 34.0373 346.079 34.2042C345.905 34.3711 345.695 34.4545 345.45 34.4545ZM351.46 44.1705C350.778 44.1705 350.177 43.9982 349.655 43.6538C349.133 43.3058 348.724 42.8157 348.429 42.1836C348.135 41.5479 347.987 40.7969 347.987 39.9304C347.987 39.071 348.135 38.3253 348.429 37.6932C348.724 37.0611 349.134 36.5728 349.66 36.2283C350.185 35.8839 350.793 35.7116 351.482 35.7116C352.014 35.7116 352.435 35.8004 352.744 35.978C353.057 36.152 353.294 36.3509 353.458 36.5746C353.625 36.7947 353.754 36.9759 353.847 37.1179H353.953V33.0909H355.21V44H353.996V42.7429H353.847C353.754 42.892 353.623 43.0803 353.452 43.3075C353.282 43.5312 353.039 43.7319 352.723 43.9094C352.407 44.0835 351.986 44.1705 351.46 44.1705ZM351.631 43.0412C352.135 43.0412 352.561 42.9098 352.909 42.647C353.257 42.3807 353.522 42.0131 353.703 41.5444C353.884 41.0721 353.974 40.527 353.974 39.9091C353.974 39.2983 353.886 38.7638 353.708 38.3058C353.531 37.8441 353.268 37.4854 352.92 37.2298C352.572 36.9705 352.142 36.8409 351.631 36.8409C351.098 36.8409 350.654 36.9776 350.299 37.2511C349.947 37.521 349.683 37.8885 349.505 38.3537C349.331 38.8153 349.244 39.3338 349.244 39.9091C349.244 40.4915 349.333 41.0206 349.511 41.4964C349.692 41.9687 349.958 42.3452 350.31 42.6257C350.665 42.9027 351.105 43.0412 351.631 43.0412ZM361.245 35.8182V36.8835H357.005V35.8182H361.245ZM358.241 33.858H359.498V41.6562C359.498 42.0114 359.55 42.2777 359.653 42.4553C359.759 42.6293 359.894 42.7464 360.058 42.8068C360.224 42.8636 360.4 42.892 360.585 42.892C360.723 42.892 360.837 42.8849 360.926 42.8707C361.015 42.853 361.086 42.8388 361.139 42.8281L361.395 43.9574C361.309 43.9893 361.19 44.0213 361.038 44.0533C360.885 44.0888 360.691 44.1065 360.457 44.1065C360.102 44.1065 359.754 44.0302 359.413 43.8775C359.076 43.7248 358.795 43.4922 358.571 43.1797C358.351 42.8672 358.241 42.473 358.241 41.9972V33.858ZM364.569 39.0781V44H363.312V33.0909H364.569V37.0966H364.676C364.868 36.674 365.155 36.3384 365.539 36.0898C365.926 35.8377 366.441 35.7116 367.083 35.7116C367.641 35.7116 368.129 35.8235 368.548 36.0472C368.967 36.2674 369.292 36.6065 369.523 37.0646C369.758 37.5192 369.875 38.098 369.875 38.8011V44H368.618V38.8864C368.618 38.2365 368.449 37.734 368.112 37.3789C367.778 37.0202 367.314 36.8409 366.721 36.8409C366.309 36.8409 365.94 36.9279 365.613 37.1019C365.29 37.2759 365.034 37.5298 364.846 37.8636C364.662 38.1974 364.569 38.6023 364.569 39.0781ZM373.091 44.0852C372.828 44.0852 372.602 43.9911 372.414 43.8029C372.226 43.6147 372.132 43.3892 372.132 43.1264C372.132 42.8636 372.226 42.6381 372.414 42.4499C372.602 42.2617 372.828 42.1676 373.091 42.1676C373.353 42.1676 373.579 42.2617 373.767 42.4499C373.955 42.6381 374.049 42.8636 374.049 43.1264C374.049 43.3004 374.005 43.4602 373.916 43.6058C373.831 43.7514 373.716 43.8686 373.57 43.9574C373.428 44.0426 373.268 44.0852 373.091 44.0852ZM373.091 38.0128C372.828 38.0128 372.602 37.9187 372.414 37.7305C372.226 37.5423 372.132 37.3168 372.132 37.054C372.132 36.7912 372.226 36.5657 372.414 36.3775C372.602 36.1893 372.828 36.0952 373.091 36.0952C373.353 36.0952 373.579 36.1893 373.767 36.3775C373.955 36.5657 374.049 36.7912 374.049 37.054C374.049 37.228 374.005 37.3878 373.916 37.5334C373.831 37.679 373.716 37.7962 373.57 37.8849C373.428 37.9702 373.268 38.0128 373.091 38.0128ZM384.189 44.1491C383.486 44.1491 382.859 44.0284 382.309 43.7869C381.762 43.5455 381.327 43.2099 381.004 42.7802C380.684 42.3469 380.51 41.8445 380.481 41.2727H381.824C381.852 41.6243 381.973 41.9279 382.186 42.1836C382.399 42.4357 382.678 42.631 383.022 42.7695C383.367 42.908 383.749 42.9773 384.168 42.9773C384.636 42.9773 385.052 42.8956 385.414 42.7322C385.776 42.5689 386.06 42.3416 386.266 42.0504C386.472 41.7592 386.575 41.4219 386.575 41.0384C386.575 40.6371 386.476 40.2837 386.277 39.9783C386.078 39.6694 385.787 39.4279 385.403 39.2539C385.02 39.0799 384.551 38.9929 383.997 38.9929H383.124V37.821H383.997C384.43 37.821 384.81 37.7429 385.137 37.5866C385.467 37.4304 385.725 37.2102 385.909 36.9261C386.098 36.642 386.192 36.3082 386.192 35.9247C386.192 35.5554 386.11 35.234 385.947 34.9606C385.783 34.6871 385.553 34.4741 385.254 34.3214C384.959 34.1687 384.611 34.0923 384.21 34.0923C383.834 34.0923 383.479 34.1616 383.145 34.3001C382.815 34.435 382.545 34.6321 382.335 34.8913C382.126 35.147 382.012 35.456 381.994 35.8182H380.716C380.737 35.2464 380.909 34.7457 381.233 34.3161C381.556 33.8828 381.978 33.5455 382.5 33.304C383.026 33.0625 383.603 32.9418 384.231 32.9418C384.906 32.9418 385.485 33.0785 385.968 33.3519C386.451 33.6218 386.822 33.9787 387.081 34.4226C387.341 34.8665 387.47 35.3459 387.47 35.8608C387.47 36.4751 387.309 36.9989 386.985 37.4322C386.666 37.8654 386.231 38.1655 385.68 38.3324V38.4176C386.369 38.5312 386.907 38.8242 387.294 39.2965C387.681 39.7653 387.875 40.3459 387.875 41.0384C387.875 41.6314 387.713 42.1641 387.39 42.6364C387.071 43.1051 386.634 43.4744 386.08 43.7443C385.526 44.0142 384.896 44.1491 384.189 44.1491ZM393.676 44.1491C393.228 44.142 392.781 44.0568 392.333 43.8935C391.886 43.7301 391.478 43.4549 391.108 43.0678C390.739 42.6772 390.442 42.1499 390.219 41.4858C389.995 40.8182 389.883 39.9801 389.883 38.9716C389.883 38.0057 389.974 37.1499 390.155 36.4041C390.336 35.6548 390.599 35.0245 390.943 34.5131C391.288 33.9982 391.703 33.6076 392.19 33.3413C392.68 33.0749 393.232 32.9418 393.846 32.9418C394.457 32.9418 395 33.0643 395.476 33.3093C395.956 33.5508 396.346 33.8881 396.648 34.3214C396.95 34.7546 397.145 35.2536 397.234 35.8182H395.934C395.814 35.3281 395.579 34.9215 395.231 34.5984C394.883 34.2752 394.421 34.1136 393.846 34.1136C393.001 34.1136 392.335 34.4812 391.849 35.2163C391.366 35.9513 391.122 36.983 391.119 38.3111H391.204C391.403 38.0092 391.639 37.7518 391.913 37.5387C392.19 37.3221 392.495 37.1552 392.829 37.038C393.163 36.9208 393.516 36.8622 393.889 36.8622C394.514 36.8622 395.086 37.0185 395.604 37.331C396.122 37.6399 396.538 38.0678 396.85 38.6147C397.163 39.158 397.319 39.7812 397.319 40.4844C397.319 41.1591 397.168 41.777 396.866 42.3381C396.565 42.8956 396.14 43.3395 395.593 43.6697C395.05 43.9964 394.411 44.1562 393.676 44.1491ZM393.676 42.9773C394.123 42.9773 394.524 42.8654 394.88 42.6417C395.238 42.418 395.521 42.1179 395.727 41.7415C395.936 41.3651 396.041 40.946 396.041 40.4844C396.041 40.0334 395.94 39.6232 395.737 39.2539C395.538 38.881 395.263 38.5845 394.912 38.3643C394.564 38.1442 394.166 38.0341 393.718 38.0341C393.381 38.0341 393.067 38.1016 392.776 38.2365C392.484 38.3679 392.229 38.549 392.008 38.7798C391.792 39.0107 391.621 39.2752 391.497 39.5735C391.373 39.8683 391.311 40.179 391.311 40.5057C391.311 40.9389 391.412 41.3437 391.614 41.7202C391.82 42.0966 392.101 42.4002 392.456 42.631C392.815 42.8619 393.221 42.9773 393.676 42.9773ZM403.654 44V35.8182H404.868V37.0966H404.975C405.145 36.6598 405.421 36.3207 405.801 36.0792C406.181 35.8342 406.637 35.7116 407.17 35.7116C407.709 35.7116 408.159 35.8342 408.517 36.0792C408.879 36.3207 409.162 36.6598 409.364 37.0966H409.449C409.659 36.674 409.973 36.3384 410.392 36.0898C410.811 35.8377 411.314 35.7116 411.9 35.7116C412.631 35.7116 413.23 35.9407 413.695 36.3988C414.16 36.8533 414.393 37.5618 414.393 38.5241V44H413.136V38.5241C413.136 37.9205 412.97 37.489 412.64 37.2298C412.31 36.9705 411.921 36.8409 411.474 36.8409C410.898 36.8409 410.453 37.0149 410.137 37.3629C409.821 37.7074 409.663 38.1442 409.663 38.6733V44H408.384V38.3963C408.384 37.9311 408.233 37.5565 407.931 37.2724C407.629 36.9847 407.241 36.8409 406.765 36.8409C406.438 36.8409 406.133 36.9279 405.849 37.1019C405.568 37.2759 405.341 37.5174 405.167 37.8263C404.996 38.1317 404.911 38.4851 404.911 38.8864V44H403.654ZM416.691 44V35.8182H417.906V37.0966H418.012C418.183 36.6598 418.458 36.3207 418.838 36.0792C419.218 35.8342 419.674 35.7116 420.207 35.7116C420.746 35.7116 421.196 35.8342 421.554 36.0792C421.917 36.3207 422.199 36.6598 422.401 37.0966H422.487C422.696 36.674 423.01 36.3384 423.429 36.0898C423.848 35.8377 424.351 35.7116 424.937 35.7116C425.668 35.7116 426.267 35.9407 426.732 36.3988C427.197 36.8533 427.43 37.5618 427.43 38.5241V44H426.173V38.5241C426.173 37.9205 426.008 37.489 425.677 37.2298C425.347 36.9705 424.958 36.8409 424.511 36.8409C423.935 36.8409 423.49 37.0149 423.174 37.3629C422.858 37.7074 422.7 38.1442 422.7 38.6733V44H421.421V38.3963C421.421 37.9311 421.27 37.5565 420.968 37.2724C420.667 36.9847 420.278 36.8409 419.802 36.8409C419.475 36.8409 419.17 36.9279 418.886 37.1019C418.605 37.2759 418.378 37.5174 418.204 37.8263C418.033 38.1317 417.948 38.4851 417.948 38.8864V44H416.691Z" fill="black"/>
<path d="M254.354 99.1464C254.158 98.9512 253.842 98.9512 253.646 99.1464L250.464 102.328C250.269 102.524 250.269 102.84 250.464 103.036C250.66 103.231 250.976 103.231 251.172 103.036L254 100.207L256.828 103.036C257.024 103.231 257.34 103.231 257.536 103.036C257.731 102.84 257.731 102.524 257.536 102.328L254.354 99.1464ZM253.646 581.354C253.842 581.549 254.158 581.549 254.353 581.354L257.535 578.172C257.731 577.976 257.731 577.66 257.535 577.464C257.34 577.269 257.024 577.269 256.828 577.464L254 580.293L251.171 577.464C250.976 577.269 250.66 577.269 250.464 577.464C250.269 577.66 250.269 577.976 250.464 578.172L253.646 581.354ZM254 99.5L253.5 99.5L253.5 581L254 581L254.5 581L254.5 99.5L254 99.5Z" fill="black"/>
<path d="M130.585 345V334.091H131.906V338.949H137.722V334.091H139.044V345H137.722V340.121H131.906V345H130.585ZM144.948 345.17C144.16 345.17 143.48 344.996 142.908 344.648C142.34 344.297 141.901 343.807 141.592 343.178C141.287 342.546 141.134 341.811 141.134 340.973C141.134 340.135 141.287 339.396 141.592 338.757C141.901 338.114 142.331 337.614 142.881 337.255C143.435 336.893 144.082 336.712 144.82 336.712C145.246 336.712 145.667 336.783 146.083 336.925C146.498 337.067 146.876 337.298 147.217 337.617C147.558 337.933 147.83 338.352 148.032 338.874C148.235 339.396 148.336 340.039 148.336 340.803V341.335H142.029V340.249H147.058C147.058 339.787 146.965 339.375 146.781 339.013C146.599 338.651 146.34 338.365 146.003 338.155C145.669 337.946 145.275 337.841 144.82 337.841C144.32 337.841 143.886 337.965 143.521 338.214C143.158 338.459 142.88 338.778 142.684 339.173C142.489 339.567 142.391 339.989 142.391 340.44V341.165C142.391 341.783 142.498 342.306 142.711 342.736C142.928 343.162 143.228 343.487 143.611 343.711C143.995 343.931 144.44 344.041 144.948 344.041C145.278 344.041 145.577 343.995 145.843 343.903C146.113 343.807 146.346 343.665 146.541 343.477C146.736 343.285 146.887 343.047 146.994 342.763L148.208 343.104C148.08 343.516 147.865 343.878 147.564 344.19C147.262 344.499 146.889 344.741 146.445 344.915C146.001 345.085 145.502 345.17 144.948 345.17ZM150.248 345V336.818H151.505V345H150.248ZM150.887 335.455C150.642 335.455 150.431 335.371 150.254 335.204C150.08 335.037 149.993 334.837 149.993 334.602C149.993 334.368 150.08 334.167 150.254 334C150.431 333.833 150.642 333.75 150.887 333.75C151.132 333.75 151.342 333.833 151.516 334C151.694 334.167 151.782 334.368 151.782 334.602C151.782 334.837 151.694 335.037 151.516 335.204C151.342 335.371 151.132 335.455 150.887 335.455ZM157.11 348.239C156.503 348.239 155.981 348.161 155.544 348.004C155.108 347.852 154.744 347.649 154.452 347.397C154.165 347.148 153.936 346.882 153.765 346.598L154.767 345.895C154.88 346.044 155.024 346.214 155.198 346.406C155.372 346.602 155.61 346.77 155.912 346.912C156.217 347.058 156.617 347.131 157.11 347.131C157.771 347.131 158.316 346.971 158.746 346.651C159.175 346.332 159.39 345.831 159.39 345.149V343.487H159.284C159.191 343.636 159.06 343.821 158.889 344.041C158.723 344.258 158.481 344.451 158.165 344.622C157.853 344.789 157.43 344.872 156.897 344.872C156.237 344.872 155.644 344.716 155.118 344.403C154.596 344.091 154.182 343.636 153.877 343.04C153.575 342.443 153.424 341.719 153.424 340.866C153.424 340.028 153.572 339.299 153.866 338.677C154.161 338.052 154.571 337.569 155.097 337.228C155.622 336.884 156.23 336.712 156.919 336.712C157.451 336.712 157.874 336.8 158.186 336.978C158.502 337.152 158.744 337.351 158.911 337.575C159.081 337.795 159.213 337.976 159.305 338.118H159.433V336.818H160.647V345.234C160.647 345.938 160.487 346.509 160.168 346.95C159.852 347.393 159.426 347.718 158.889 347.924C158.357 348.134 157.764 348.239 157.11 348.239ZM157.068 343.743C157.572 343.743 157.998 343.627 158.346 343.397C158.694 343.166 158.959 342.834 159.14 342.401C159.321 341.967 159.411 341.449 159.411 340.845C159.411 340.256 159.323 339.735 159.145 339.284C158.968 338.833 158.705 338.48 158.357 338.224C158.009 337.969 157.579 337.841 157.068 337.841C156.535 337.841 156.091 337.976 155.736 338.246C155.384 338.516 155.12 338.878 154.942 339.332C154.768 339.787 154.681 340.291 154.681 340.845C154.681 341.413 154.77 341.916 154.948 342.353C155.129 342.786 155.395 343.127 155.747 343.375C156.102 343.62 156.542 343.743 157.068 343.743ZM164.206 340.078V345H162.948V334.091H164.206V338.097H164.312C164.504 337.674 164.791 337.338 165.175 337.09C165.562 336.838 166.077 336.712 166.72 336.712C167.277 336.712 167.766 336.824 168.185 337.047C168.604 337.267 168.929 337.607 169.159 338.065C169.394 338.519 169.511 339.098 169.511 339.801V345H168.254V339.886C168.254 339.237 168.085 338.734 167.748 338.379C167.414 338.02 166.951 337.841 166.358 337.841C165.946 337.841 165.576 337.928 165.25 338.102C164.926 338.276 164.671 338.53 164.483 338.864C164.298 339.197 164.206 339.602 164.206 340.078ZM175.369 336.818V337.884H171.129V336.818H175.369ZM172.365 334.858H173.622V342.656C173.622 343.011 173.673 343.278 173.776 343.455C173.883 343.629 174.018 343.746 174.181 343.807C174.348 343.864 174.524 343.892 174.708 343.892C174.847 343.892 174.961 343.885 175.049 343.871C175.138 343.853 175.209 343.839 175.262 343.828L175.518 344.957C175.433 344.989 175.314 345.021 175.161 345.053C175.009 345.089 174.815 345.107 174.581 345.107C174.225 345.107 173.877 345.03 173.537 344.877C173.199 344.725 172.919 344.492 172.695 344.18C172.475 343.867 172.365 343.473 172.365 342.997V334.858ZM178.176 345.085C177.913 345.085 177.688 344.991 177.5 344.803C177.311 344.615 177.217 344.389 177.217 344.126C177.217 343.864 177.311 343.638 177.5 343.45C177.688 343.262 177.913 343.168 178.176 343.168C178.439 343.168 178.664 343.262 178.853 343.45C179.041 343.638 179.135 343.864 179.135 344.126C179.135 344.3 179.091 344.46 179.002 344.606C178.917 344.751 178.801 344.869 178.656 344.957C178.513 345.043 178.354 345.085 178.176 345.085ZM178.176 339.013C177.913 339.013 177.688 338.919 177.5 338.73C177.311 338.542 177.217 338.317 177.217 338.054C177.217 337.791 177.311 337.566 177.5 337.377C177.688 337.189 177.913 337.095 178.176 337.095C178.439 337.095 178.664 337.189 178.853 337.377C179.041 337.566 179.135 337.791 179.135 338.054C179.135 338.228 179.091 338.388 179.002 338.533C178.917 338.679 178.801 338.796 178.656 338.885C178.513 338.97 178.354 339.013 178.176 339.013ZM189.061 333.942C189.509 333.945 189.956 334.031 190.404 334.197C190.851 334.364 191.259 334.641 191.629 335.028C191.998 335.412 192.295 335.936 192.518 336.6C192.742 337.264 192.854 338.097 192.854 339.098C192.854 340.067 192.762 340.929 192.577 341.681C192.396 342.431 192.133 343.063 191.789 343.578C191.448 344.093 191.032 344.483 190.542 344.75C190.056 345.016 189.505 345.149 188.891 345.149C188.28 345.149 187.735 345.028 187.256 344.787C186.78 344.542 186.389 344.203 186.084 343.77C185.782 343.333 185.588 342.827 185.503 342.251H186.803C186.92 342.752 187.153 343.166 187.501 343.493C187.852 343.816 188.316 343.977 188.891 343.977C189.732 343.977 190.396 343.61 190.883 342.875C191.373 342.14 191.618 341.101 191.618 339.759H191.533C191.334 340.057 191.098 340.314 190.824 340.531C190.551 340.748 190.247 340.914 189.914 341.032C189.58 341.149 189.225 341.207 188.848 341.207C188.223 341.207 187.65 341.053 187.128 340.744C186.609 340.431 186.194 340.004 185.881 339.46C185.572 338.913 185.418 338.288 185.418 337.585C185.418 336.918 185.567 336.307 185.865 335.753C186.167 335.195 186.59 334.751 187.133 334.421C187.68 334.091 188.323 333.931 189.061 333.942ZM189.061 335.114C188.614 335.114 188.211 335.225 187.852 335.449C187.497 335.669 187.215 335.968 187.005 336.344C186.799 336.717 186.696 337.131 186.696 337.585C186.696 338.04 186.796 338.453 186.994 338.826C187.197 339.196 187.472 339.49 187.82 339.711C188.172 339.927 188.571 340.036 189.019 340.036C189.356 340.036 189.67 339.97 189.961 339.838C190.253 339.703 190.507 339.521 190.723 339.29C190.943 339.055 191.116 338.791 191.24 338.496C191.364 338.198 191.426 337.887 191.426 337.564C191.426 337.138 191.323 336.738 191.117 336.365C190.915 335.993 190.634 335.691 190.276 335.46C189.921 335.229 189.516 335.114 189.061 335.114ZM194.693 342.763V341.676L199.487 334.091H200.275V335.774H199.743L196.12 341.506V341.591H202.576V342.763H194.693ZM199.828 345V342.433V341.926V334.091H201.085V345H199.828ZM208.813 345V336.818H210.027V338.097H210.134C210.304 337.66 210.579 337.321 210.959 337.079C211.339 336.834 211.796 336.712 212.328 336.712C212.868 336.712 213.317 336.834 213.676 337.079C214.038 337.321 214.32 337.66 214.523 338.097H214.608C214.818 337.674 215.132 337.338 215.551 337.09C215.97 336.838 216.472 336.712 217.058 336.712C217.79 336.712 218.388 336.941 218.854 337.399C219.319 337.853 219.551 338.562 219.551 339.524V345H218.294V339.524C218.294 338.92 218.129 338.489 217.799 338.23C217.469 337.971 217.08 337.841 216.632 337.841C216.057 337.841 215.611 338.015 215.295 338.363C214.979 338.707 214.821 339.144 214.821 339.673V345H213.543V339.396C213.543 338.931 213.392 338.556 213.09 338.272C212.788 337.985 212.399 337.841 211.923 337.841C211.597 337.841 211.291 337.928 211.007 338.102C210.727 338.276 210.499 338.517 210.325 338.826C210.155 339.132 210.07 339.485 210.07 339.886V345H208.813ZM221.85 345V336.818H223.064V338.097H223.171C223.341 337.66 223.616 337.321 223.996 337.079C224.376 336.834 224.833 336.712 225.365 336.712C225.905 336.712 226.354 336.834 226.713 337.079C227.075 337.321 227.358 337.66 227.56 338.097H227.645C227.855 337.674 228.169 337.338 228.588 337.09C229.007 336.838 229.51 336.712 230.096 336.712C230.827 336.712 231.425 336.941 231.891 337.399C232.356 337.853 232.588 338.562 232.588 339.524V345H231.331V339.524C231.331 338.92 231.166 338.489 230.836 338.23C230.506 337.971 230.117 337.841 229.669 337.841C229.094 337.841 228.648 338.015 228.332 338.363C228.016 338.707 227.858 339.144 227.858 339.673V345H226.58V339.396C226.58 338.931 226.429 338.556 226.127 338.272C225.825 337.985 225.436 337.841 224.961 337.841C224.634 337.841 224.328 337.928 224.044 338.102C223.764 338.276 223.537 338.517 223.363 338.826C223.192 339.132 223.107 339.485 223.107 339.886V345H221.85Z" fill="black"/>
<path d="M524.334 345V334.091H525.655V338.949H531.472V334.091H532.793V345H531.472V340.121H525.655V345H524.334ZM538.697 345.17C537.909 345.17 537.229 344.996 536.657 344.648C536.089 344.297 535.65 343.807 535.341 343.178C535.036 342.546 534.883 341.811 534.883 340.973C534.883 340.135 535.036 339.396 535.341 338.757C535.65 338.114 536.08 337.614 536.63 337.255C537.184 336.893 537.831 336.712 538.569 336.712C538.995 336.712 539.416 336.783 539.832 336.925C540.247 337.067 540.625 337.298 540.966 337.617C541.307 337.933 541.579 338.352 541.781 338.874C541.984 339.396 542.085 340.039 542.085 340.803V341.335H535.778V340.249H540.807C540.807 339.787 540.714 339.375 540.53 339.013C540.348 338.651 540.089 338.365 539.752 338.155C539.418 337.946 539.024 337.841 538.569 337.841C538.069 337.841 537.635 337.965 537.27 338.214C536.907 338.459 536.629 338.778 536.433 339.173C536.238 339.567 536.14 339.989 536.14 340.44V341.165C536.14 341.783 536.247 342.306 536.46 342.736C536.677 343.162 536.977 343.487 537.36 343.711C537.744 343.931 538.189 344.041 538.697 344.041C539.027 344.041 539.326 343.995 539.592 343.903C539.862 343.807 540.095 343.665 540.29 343.477C540.485 343.285 540.636 343.047 540.743 342.763L541.957 343.104C541.829 343.516 541.614 343.878 541.313 344.19C541.011 344.499 540.638 344.741 540.194 344.915C539.75 345.085 539.251 345.17 538.697 345.17ZM543.997 345V336.818H545.254V345H543.997ZM544.636 335.455C544.391 335.455 544.18 335.371 544.003 335.204C543.829 335.037 543.742 334.837 543.742 334.602C543.742 334.368 543.829 334.167 544.003 334C544.18 333.833 544.391 333.75 544.636 333.75C544.881 333.75 545.091 333.833 545.265 334C545.443 334.167 545.531 334.368 545.531 334.602C545.531 334.837 545.443 335.037 545.265 335.204C545.091 335.371 544.881 335.455 544.636 335.455ZM550.859 348.239C550.252 348.239 549.73 348.161 549.293 348.004C548.857 347.852 548.493 347.649 548.201 347.397C547.914 347.148 547.685 346.882 547.514 346.598L548.516 345.895C548.629 346.044 548.773 346.214 548.947 346.406C549.121 346.602 549.359 346.77 549.661 346.912C549.966 347.058 550.366 347.131 550.859 347.131C551.52 347.131 552.065 346.971 552.495 346.651C552.924 346.332 553.139 345.831 553.139 345.149V343.487H553.033C552.94 343.636 552.809 343.821 552.638 344.041C552.472 344.258 552.23 344.451 551.914 344.622C551.602 344.789 551.179 344.872 550.646 344.872C549.986 344.872 549.393 344.716 548.867 344.403C548.345 344.091 547.931 343.636 547.626 343.04C547.324 342.443 547.173 341.719 547.173 340.866C547.173 340.028 547.321 339.299 547.615 338.677C547.91 338.052 548.32 337.569 548.846 337.228C549.371 336.884 549.979 336.712 550.668 336.712C551.2 336.712 551.623 336.8 551.935 336.978C552.251 337.152 552.493 337.351 552.66 337.575C552.83 337.795 552.962 337.976 553.054 338.118H553.182V336.818H554.396V345.234C554.396 345.938 554.237 346.509 553.917 346.95C553.601 347.393 553.175 347.718 552.638 347.924C552.106 348.134 551.513 348.239 550.859 348.239ZM550.817 343.743C551.321 343.743 551.747 343.627 552.095 343.397C552.443 343.166 552.708 342.834 552.889 342.401C553.07 341.967 553.161 341.449 553.161 340.845C553.161 340.256 553.072 339.735 552.894 339.284C552.717 338.833 552.454 338.48 552.106 338.224C551.758 337.969 551.328 337.841 550.817 337.841C550.284 337.841 549.84 337.976 549.485 338.246C549.134 338.516 548.869 338.878 548.691 339.332C548.517 339.787 548.43 340.291 548.43 340.845C548.43 341.413 548.519 341.916 548.697 342.353C548.878 342.786 549.144 343.127 549.496 343.375C549.851 343.62 550.291 343.743 550.817 343.743ZM557.955 340.078V345H556.697V334.091H557.955V338.097H558.061C558.253 337.674 558.54 337.338 558.924 337.09C559.311 336.838 559.826 336.712 560.469 336.712C561.026 336.712 561.515 336.824 561.934 337.047C562.353 337.267 562.678 337.607 562.908 338.065C563.143 338.519 563.26 339.098 563.26 339.801V345H562.003V339.886C562.003 339.237 561.834 338.734 561.497 338.379C561.163 338.02 560.7 337.841 560.107 337.841C559.695 337.841 559.325 337.928 558.999 338.102C558.675 338.276 558.42 338.53 558.232 338.864C558.047 339.197 557.955 339.602 557.955 340.078ZM569.118 336.818V337.884H564.878V336.818H569.118ZM566.114 334.858H567.371V342.656C567.371 343.011 567.422 343.278 567.525 343.455C567.632 343.629 567.767 343.746 567.93 343.807C568.097 343.864 568.273 343.892 568.457 343.892C568.596 343.892 568.71 343.885 568.798 343.871C568.887 343.853 568.958 343.839 569.011 343.828L569.267 344.957C569.182 344.989 569.063 345.021 568.91 345.053C568.758 345.089 568.564 345.107 568.33 345.107C567.975 345.107 567.627 345.03 567.286 344.877C566.948 344.725 566.668 344.492 566.444 344.18C566.224 343.867 566.114 343.473 566.114 342.997V334.858ZM571.925 345.085C571.662 345.085 571.437 344.991 571.249 344.803C571.06 344.615 570.966 344.389 570.966 344.126C570.966 343.864 571.06 343.638 571.249 343.45C571.437 343.262 571.662 343.168 571.925 343.168C572.188 343.168 572.413 343.262 572.602 343.45C572.79 343.638 572.884 343.864 572.884 344.126C572.884 344.3 572.84 344.46 572.751 344.606C572.666 344.751 572.55 344.869 572.405 344.957C572.263 345.043 572.103 345.085 571.925 345.085ZM571.925 339.013C571.662 339.013 571.437 338.919 571.249 338.73C571.06 338.542 570.966 338.317 570.966 338.054C570.966 337.791 571.06 337.566 571.249 337.377C571.437 337.189 571.662 337.095 571.925 337.095C572.188 337.095 572.413 337.189 572.602 337.377C572.79 337.566 572.884 337.791 572.884 338.054C572.884 338.228 572.84 338.388 572.751 338.533C572.666 338.679 572.55 338.796 572.405 338.885C572.263 338.97 572.103 339.013 571.925 339.013ZM582.959 345.149C582.512 345.142 582.065 345.057 581.617 344.893C581.17 344.73 580.761 344.455 580.392 344.068C580.023 343.677 579.726 343.15 579.502 342.486C579.279 341.818 579.167 340.98 579.167 339.972C579.167 339.006 579.257 338.15 579.438 337.404C579.62 336.655 579.882 336.025 580.227 335.513C580.571 334.998 580.987 334.608 581.473 334.341C581.963 334.075 582.516 333.942 583.13 333.942C583.741 333.942 584.284 334.064 584.76 334.309C585.239 334.551 585.63 334.888 585.932 335.321C586.234 335.755 586.429 336.254 586.518 336.818H585.218C585.097 336.328 584.863 335.922 584.515 335.598C584.167 335.275 583.705 335.114 583.13 335.114C582.285 335.114 581.619 335.481 581.132 336.216C580.649 336.951 580.406 337.983 580.403 339.311H580.488C580.687 339.009 580.923 338.752 581.196 338.539C581.473 338.322 581.779 338.155 582.112 338.038C582.446 337.921 582.8 337.862 583.172 337.862C583.797 337.862 584.369 338.018 584.888 338.331C585.406 338.64 585.822 339.068 586.134 339.615C586.447 340.158 586.603 340.781 586.603 341.484C586.603 342.159 586.452 342.777 586.15 343.338C585.848 343.896 585.424 344.339 584.877 344.67C584.334 344.996 583.695 345.156 582.959 345.149ZM582.959 343.977C583.407 343.977 583.808 343.865 584.163 343.642C584.522 343.418 584.804 343.118 585.01 342.741C585.22 342.365 585.324 341.946 585.324 341.484C585.324 341.033 585.223 340.623 585.021 340.254C584.822 339.881 584.547 339.585 584.195 339.364C583.847 339.144 583.449 339.034 583.002 339.034C582.665 339.034 582.35 339.102 582.059 339.237C581.768 339.368 581.512 339.549 581.292 339.78C581.076 340.011 580.905 340.275 580.781 340.574C580.657 340.868 580.594 341.179 580.594 341.506C580.594 341.939 580.696 342.344 580.898 342.72C581.104 343.097 581.384 343.4 581.74 343.631C582.098 343.862 582.505 343.977 582.959 343.977ZM592.107 345.149C591.482 345.149 590.919 345.025 590.418 344.776C589.917 344.528 589.516 344.187 589.214 343.754C588.912 343.32 588.747 342.827 588.719 342.273H589.997C590.047 342.766 590.271 343.175 590.669 343.498C591.07 343.817 591.549 343.977 592.107 343.977C592.554 343.977 592.952 343.873 593.3 343.663C593.651 343.453 593.927 343.166 594.126 342.8C594.328 342.431 594.429 342.013 594.429 341.548C594.429 341.072 594.324 340.648 594.115 340.275C593.909 339.899 593.625 339.602 593.263 339.386C592.9 339.169 592.487 339.059 592.021 339.055C591.688 339.052 591.345 339.103 590.993 339.21C590.642 339.313 590.352 339.446 590.125 339.609L588.889 339.46L589.55 334.091H595.218V335.263H590.658L590.274 338.48H590.338C590.562 338.303 590.843 338.155 591.18 338.038C591.517 337.921 591.869 337.862 592.235 337.862C592.902 337.862 593.497 338.022 594.019 338.342C594.545 338.658 594.956 339.091 595.255 339.641C595.557 340.192 595.708 340.82 595.708 341.527C595.708 342.223 595.551 342.844 595.239 343.391C594.93 343.935 594.504 344.364 593.96 344.68C593.417 344.993 592.799 345.149 592.107 345.149ZM602.064 345V336.818H603.278V338.097H603.385C603.555 337.66 603.83 337.321 604.21 337.079C604.59 336.834 605.047 336.712 605.579 336.712C606.119 336.712 606.568 336.834 606.927 337.079C607.289 337.321 607.571 337.66 607.774 338.097H607.859C608.069 337.674 608.383 337.338 608.802 337.09C609.221 336.838 609.723 336.712 610.309 336.712C611.041 336.712 611.639 336.941 612.104 337.399C612.57 337.853 612.802 338.562 612.802 339.524V345H611.545V339.524C611.545 338.92 611.38 338.489 611.05 338.23C610.72 337.971 610.331 337.841 609.883 337.841C609.308 337.841 608.862 338.015 608.546 338.363C608.23 338.707 608.072 339.144 608.072 339.673V345H606.794V339.396C606.794 338.931 606.643 338.556 606.341 338.272C606.039 337.985 605.65 337.841 605.174 337.841C604.848 337.841 604.542 337.928 604.258 338.102C603.978 338.276 603.75 338.517 603.576 338.826C603.406 339.132 603.321 339.485 603.321 339.886V345H602.064ZM615.101 345V336.818H616.315V338.097H616.422C616.592 337.66 616.867 337.321 617.247 337.079C617.627 336.834 618.084 336.712 618.616 336.712C619.156 336.712 619.605 336.834 619.964 337.079C620.326 337.321 620.609 337.66 620.811 338.097H620.896C621.106 337.674 621.42 337.338 621.839 337.09C622.258 336.838 622.761 336.712 623.347 336.712C624.078 336.712 624.676 336.941 625.142 337.399C625.607 337.853 625.839 338.562 625.839 339.524V345H624.582V339.524C624.582 338.92 624.417 338.489 624.087 338.23C623.757 337.971 623.368 337.841 622.92 337.841C622.345 337.841 621.899 338.015 621.583 338.363C621.267 338.707 621.109 339.144 621.109 339.673V345H619.831V339.396C619.831 338.931 619.68 338.556 619.378 338.272C619.076 337.985 618.687 337.841 618.212 337.841C617.885 337.841 617.579 337.928 617.295 338.102C617.015 338.276 616.788 338.517 616.614 338.826C616.443 339.132 616.358 339.485 616.358 339.886V345H615.101Z" fill="black"/>
<path d="M336.303 628L333.32 617.091H334.662L336.942 625.976H337.048L339.371 617.091H340.862L343.185 625.976H343.291L345.571 617.091H346.913L343.93 628H342.567L340.159 619.307H340.074L337.666 628H336.303ZM351.058 628.17C350.269 628.17 349.589 627.996 349.017 627.648C348.449 627.297 348.011 626.807 347.702 626.178C347.396 625.546 347.244 624.811 347.244 623.973C347.244 623.135 347.396 622.396 347.702 621.757C348.011 621.114 348.44 620.614 348.991 620.255C349.545 619.893 350.191 619.712 350.93 619.712C351.356 619.712 351.777 619.783 352.192 619.925C352.608 620.067 352.986 620.298 353.327 620.617C353.668 620.933 353.939 621.352 354.142 621.874C354.344 622.396 354.445 623.039 354.445 623.803V624.335H348.138V623.249H353.167C353.167 622.787 353.075 622.375 352.89 622.013C352.709 621.651 352.45 621.365 352.112 621.155C351.778 620.946 351.384 620.841 350.93 620.841C350.429 620.841 349.996 620.965 349.63 621.214C349.268 621.459 348.989 621.778 348.794 622.173C348.598 622.567 348.501 622.989 348.501 623.44V624.165C348.501 624.783 348.607 625.306 348.82 625.736C349.037 626.162 349.337 626.487 349.721 626.711C350.104 626.931 350.55 627.041 351.058 627.041C351.388 627.041 351.686 626.995 351.952 626.903C352.222 626.807 352.455 626.665 352.65 626.477C352.846 626.285 352.996 626.047 353.103 625.763L354.317 626.104C354.19 626.516 353.975 626.878 353.673 627.19C353.371 627.499 352.998 627.741 352.554 627.915C352.11 628.085 351.612 628.17 351.058 628.17ZM356.358 628V619.818H357.615V628H356.358ZM356.997 618.455C356.752 618.455 356.54 618.371 356.363 618.204C356.189 618.037 356.102 617.837 356.102 617.602C356.102 617.368 356.189 617.167 356.363 617C356.54 616.833 356.752 616.75 356.997 616.75C357.242 616.75 357.451 616.833 357.625 617C357.803 617.167 357.892 617.368 357.892 617.602C357.892 617.837 357.803 618.037 357.625 618.204C357.451 618.371 357.242 618.455 356.997 618.455ZM363.22 631.239C362.612 631.239 362.09 631.161 361.654 631.004C361.217 630.852 360.853 630.649 360.562 630.397C360.274 630.148 360.045 629.882 359.875 629.598L360.876 628.895C360.99 629.044 361.133 629.214 361.307 629.406C361.481 629.602 361.719 629.77 362.021 629.912C362.327 630.058 362.726 630.131 363.22 630.131C363.88 630.131 364.425 629.971 364.855 629.651C365.285 629.332 365.5 628.831 365.5 628.149V626.487H365.393C365.301 626.636 365.169 626.821 364.999 627.041C364.832 627.258 364.59 627.451 364.274 627.622C363.962 627.789 363.539 627.872 363.007 627.872C362.346 627.872 361.753 627.716 361.228 627.403C360.706 627.091 360.292 626.636 359.986 626.04C359.685 625.443 359.534 624.719 359.534 623.866C359.534 623.028 359.681 622.299 359.976 621.677C360.271 621.052 360.681 620.569 361.206 620.228C361.732 619.884 362.339 619.712 363.028 619.712C363.561 619.712 363.983 619.8 364.296 619.978C364.612 620.152 364.853 620.351 365.02 620.575C365.191 620.795 365.322 620.976 365.414 621.118H365.542V619.818H366.757V628.234C366.757 628.938 366.597 629.509 366.277 629.95C365.961 630.393 365.535 630.718 364.999 630.924C364.466 631.134 363.873 631.239 363.22 631.239ZM363.177 626.743C363.681 626.743 364.108 626.627 364.456 626.397C364.804 626.166 365.068 625.834 365.249 625.401C365.43 624.967 365.521 624.449 365.521 623.845C365.521 623.256 365.432 622.735 365.255 622.284C365.077 621.833 364.814 621.48 364.466 621.224C364.118 620.969 363.688 620.841 363.177 620.841C362.644 620.841 362.201 620.976 361.845 621.246C361.494 621.516 361.229 621.878 361.052 622.332C360.878 622.787 360.791 623.291 360.791 623.845C360.791 624.413 360.88 624.916 361.057 625.353C361.238 625.786 361.505 626.127 361.856 626.375C362.211 626.62 362.652 626.743 363.177 626.743ZM370.315 623.078V628H369.058V617.091H370.315V621.097H370.421C370.613 620.674 370.901 620.338 371.284 620.09C371.671 619.838 372.186 619.712 372.829 619.712C373.387 619.712 373.875 619.824 374.294 620.047C374.713 620.267 375.038 620.607 375.269 621.065C375.503 621.519 375.62 622.098 375.62 622.801V628H374.363V622.886C374.363 622.237 374.195 621.734 373.857 621.379C373.523 621.02 373.06 620.841 372.467 620.841C372.055 620.841 371.686 620.928 371.359 621.102C371.036 621.276 370.78 621.53 370.592 621.864C370.407 622.197 370.315 622.602 370.315 623.078ZM381.478 619.818V620.884H377.238V619.818H381.478ZM378.474 617.858H379.731V625.656C379.731 626.011 379.783 626.278 379.886 626.455C379.992 626.629 380.127 626.746 380.29 626.807C380.457 626.864 380.633 626.892 380.818 626.892C380.956 626.892 381.07 626.885 381.159 626.871C381.248 626.853 381.319 626.839 381.372 626.828L381.627 627.957C381.542 627.989 381.423 628.021 381.271 628.053C381.118 628.089 380.924 628.107 380.69 628.107C380.335 628.107 379.987 628.03 379.646 627.877C379.309 627.725 379.028 627.492 378.804 627.18C378.584 626.867 378.474 626.473 378.474 625.997V617.858ZM384.286 628.085C384.023 628.085 383.797 627.991 383.609 627.803C383.421 627.615 383.327 627.389 383.327 627.126C383.327 626.864 383.421 626.638 383.609 626.45C383.797 626.262 384.023 626.168 384.286 626.168C384.548 626.168 384.774 626.262 384.962 626.45C385.15 626.638 385.244 626.864 385.244 627.126C385.244 627.3 385.2 627.46 385.111 627.606C385.026 627.751 384.911 627.869 384.765 627.957C384.623 628.043 384.463 628.085 384.286 628.085ZM384.286 622.013C384.023 622.013 383.797 621.919 383.609 621.73C383.421 621.542 383.327 621.317 383.327 621.054C383.327 620.791 383.421 620.566 383.609 620.377C383.797 620.189 384.023 620.095 384.286 620.095C384.548 620.095 384.774 620.189 384.962 620.377C385.15 620.566 385.244 620.791 385.244 621.054C385.244 621.228 385.2 621.388 385.111 621.533C385.026 621.679 384.911 621.796 384.765 621.885C384.623 621.97 384.463 622.013 384.286 622.013ZM395.384 628.149C394.681 628.149 394.054 628.028 393.503 627.787C392.956 627.545 392.521 627.21 392.198 626.78C391.879 626.347 391.705 625.844 391.676 625.273H393.019C393.047 625.624 393.168 625.928 393.381 626.184C393.594 626.436 393.873 626.631 394.217 626.77C394.562 626.908 394.943 626.977 395.362 626.977C395.831 626.977 396.247 626.896 396.609 626.732C396.971 626.569 397.255 626.342 397.461 626.05C397.667 625.759 397.77 625.422 397.77 625.038C397.77 624.637 397.671 624.284 397.472 623.978C397.273 623.669 396.982 623.428 396.598 623.254C396.215 623.08 395.746 622.993 395.192 622.993H394.318V621.821H395.192C395.625 621.821 396.005 621.743 396.332 621.587C396.662 621.43 396.92 621.21 397.104 620.926C397.292 620.642 397.387 620.308 397.387 619.925C397.387 619.555 397.305 619.234 397.142 618.961C396.978 618.687 396.747 618.474 396.449 618.321C396.154 618.169 395.806 618.092 395.405 618.092C395.029 618.092 394.673 618.162 394.34 618.3C394.009 618.435 393.74 618.632 393.53 618.891C393.32 619.147 393.207 619.456 393.189 619.818H391.911C391.932 619.246 392.104 618.746 392.427 618.316C392.751 617.883 393.173 617.545 393.695 617.304C394.221 617.062 394.798 616.942 395.426 616.942C396.101 616.942 396.68 617.078 397.163 617.352C397.646 617.622 398.017 617.979 398.276 618.423C398.535 618.866 398.665 619.346 398.665 619.861C398.665 620.475 398.503 620.999 398.18 621.432C397.861 621.865 397.426 622.165 396.875 622.332V622.418C397.564 622.531 398.102 622.824 398.489 623.297C398.876 623.765 399.07 624.346 399.07 625.038C399.07 625.631 398.908 626.164 398.585 626.636C398.265 627.105 397.829 627.474 397.275 627.744C396.721 628.014 396.09 628.149 395.384 628.149ZM401.589 628L406.469 618.348V618.263H400.844V617.091H407.832V618.327L402.974 628H401.589ZM417.36 631.239C416.753 631.239 416.231 631.161 415.794 631.004C415.358 630.852 414.994 630.649 414.702 630.397C414.415 630.148 414.186 629.882 414.015 629.598L415.017 628.895C415.13 629.044 415.274 629.214 415.448 629.406C415.622 629.602 415.86 629.77 416.162 629.912C416.467 630.058 416.867 630.131 417.36 630.131C418.021 630.131 418.566 629.971 418.996 629.651C419.425 629.332 419.64 628.831 419.64 628.149V626.487H419.534C419.441 626.636 419.31 626.821 419.139 627.041C418.973 627.258 418.731 627.451 418.415 627.622C418.103 627.789 417.68 627.872 417.147 627.872C416.487 627.872 415.894 627.716 415.368 627.403C414.846 627.091 414.432 626.636 414.127 626.04C413.825 625.443 413.674 624.719 413.674 623.866C413.674 623.028 413.822 622.299 414.116 621.677C414.411 621.052 414.821 620.569 415.347 620.228C415.872 619.884 416.48 619.712 417.169 619.712C417.701 619.712 418.124 619.8 418.436 619.978C418.752 620.152 418.994 620.351 419.161 620.575C419.331 620.795 419.463 620.976 419.555 621.118H419.683V619.818H420.897V628.234C420.897 628.938 420.737 629.509 420.418 629.95C420.102 630.393 419.676 630.718 419.139 630.924C418.607 631.134 418.014 631.239 417.36 631.239ZM417.318 626.743C417.822 626.743 418.248 626.627 418.596 626.397C418.944 626.166 419.209 625.834 419.39 625.401C419.571 624.967 419.661 624.449 419.661 623.845C419.661 623.256 419.573 622.735 419.395 622.284C419.218 621.833 418.955 621.48 418.607 621.224C418.259 620.969 417.829 620.841 417.318 620.841C416.785 620.841 416.341 620.976 415.986 621.246C415.634 621.516 415.37 621.878 415.192 622.332C415.018 622.787 414.931 623.291 414.931 623.845C414.931 624.413 415.02 624.916 415.198 625.353C415.379 625.786 415.645 626.127 415.997 626.375C416.352 626.62 416.792 626.743 417.318 626.743Z" fill="black"/>
<path d="M367 98.5L250 98.5" stroke="black"/>
<path d="M367 582L250 582" stroke="black"/>
<path fill-rule="evenodd" clip-rule="evenodd" d="M405.13 215.9V238.65C405.13 241.16 403.09 243.2 400.57 243.2H356.3C353.78 243.2 351.74 241.16 351.74 238.65V215.9V125.3C351.74 110.22 363.69 98 378.44 98C393.19 98 405.14 110.22 405.14 125.3V215.9" fill="white"/>
<path d="M405.13 215.9V238.65C405.13 241.16 403.09 243.2 400.57 243.2H356.3C353.78 243.2 351.74 241.16 351.74 238.65V215.9V125.3C351.74 110.22 363.69 98 378.44 98C393.19 98 405.14 110.22 405.14 125.3V215.9" stroke="black" stroke-width="1.5" stroke-miterlimit="10"/>
<path fill-rule="evenodd" clip-rule="evenodd" d="M378.44 114.131C384.95 114.131 390.24 119.131 390.24 125.301C390.24 131.471 384.96 136.471 378.44 136.471C371.92 136.471 366.64 131.471 366.64 125.301C366.64 119.131 371.92 114.131 378.44 114.131Z" stroke="black" stroke-width="0.6" stroke-miterlimit="10"/>
<path fill-rule="evenodd" clip-rule="evenodd" d="M378.44 223.35C380.15 223.35 381.55 225.02 381.55 227.07C381.55 229.13 380.16 230.79 378.44 230.79C376.72 230.79 375.34 229.12 375.34 227.07C375.34 225.01 376.73 223.35 378.44 223.35Z" stroke="black" stroke-width="0.6" stroke-miterlimit="10"/>
<path fill-rule="evenodd" clip-rule="evenodd" d="M378.44 203.49C381.52 203.49 384.03 205.71 384.03 208.46C384.03 211.2 381.53 213.42 378.44 213.42C375.36 213.42 372.85 211.2 372.85 208.46C372.85 205.72 375.35 203.49 378.44 203.49Z" stroke="black" stroke-width="0.6" stroke-miterlimit="10"/>
<path fill-rule="evenodd" clip-rule="evenodd" d="M351.74 464.15V441.4C351.74 438.89 353.78 436.85 356.3 436.85H400.57C403.09 436.85 405.13 438.89 405.13 441.4V464.15V554.75C405.13 569.83 393.18 582.05 378.43 582.05C363.68 582.05 351.73 569.83 351.73 554.75V464.15" fill="white"/>
<path fill-rule="evenodd" clip-rule="evenodd" d="M351.74 464.15V441.4C351.74 438.89 353.78 436.85 356.3 436.85H400.57C403.09 436.85 405.13 438.89 405.13 441.4V464.15V554.75C405.13 569.83 393.18 582.05 378.43 582.05C363.68 582.05 351.74 569.83 351.74 554.75V464.15Z" stroke="black" stroke-width="1.5" stroke-miterlimit="10"/>
<path fill-rule="evenodd" clip-rule="evenodd" d="M378.44 565.91C371.93 565.91 366.65 560.91 366.65 554.74C366.65 548.57 371.93 543.57 378.44 543.57C384.96 543.57 390.24 548.57 390.24 554.74C390.24 560.91 384.96 565.91 378.44 565.91Z" stroke="black" stroke-width="0.6" stroke-miterlimit="10"/>
<path fill-rule="evenodd" clip-rule="evenodd" d="M378.44 456.7C376.73 456.7 375.34 455.04 375.34 452.98C375.34 450.92 376.73 449.26 378.44 449.26C380.16 449.26 381.55 450.93 381.55 452.98C381.55 455.04 380.16 456.7 378.44 456.7Z" stroke="black" stroke-width="0.6" stroke-miterlimit="10"/>
<path fill-rule="evenodd" clip-rule="evenodd" d="M378.44 476.559C375.36 476.559 372.85 474.339 372.85 471.589C372.85 468.849 375.35 466.629 378.44 466.629C381.53 466.629 384.03 468.849 384.03 471.589C384.03 474.329 381.53 476.559 378.44 476.559Z" stroke="black" stroke-width="0.6" stroke-miterlimit="10"/>
<path d="M334.82 451.878C330.16 451.878 326.37 448.088 326.37 443.428V233.348C326.37 228.688 330.16 224.898 334.82 224.898H420.37C425.04 224.898 428.82 228.688 428.82 233.348V443.428C428.82 448.088 425.03 451.878 420.37 451.878H334.82Z" fill="#E6E6E6"/>
<path d="M428.82 265.84H399.16C397.27 265.84 395.72 267.38 395.72 269.28V324.66H428.81V265.85L428.82 265.84Z" fill="#BFBFBF"/>
<path d="M395.72 324.65V381.66C395.72 383.55 397.26 385.09 399.16 385.09H428.82V324.65H395.73H395.72Z" fill="#A6A6A6"/>
<path d="M472.87 500.179C472.87 507.919 466.6 514.189 458.86 514.189H298.02C290.28 514.189 284 507.919 284 500.179V178.119C284 170.379 290.28 164.109 298.02 164.109H458.86C466.6 164.109 472.87 170.379 472.87 178.119V500.169V500.179Z" fill="white" stroke="black" stroke-width="1.5" stroke-miterlimit="10"/>
<path d="M298.02 508.63C293.36 508.63 289.57 504.84 289.57 500.18V178.12C289.57 173.46 293.36 169.67 298.02 169.67H458.86C463.51 169.67 467.31 173.46 467.31 178.12V500.17C467.31 504.83 463.51 508.62 458.86 508.62H298.02V508.63Z" stroke="#808080" stroke-width="0.7" stroke-miterlimit="10"/>
<path d="M321.3 265.84H299.68V306.5H321.3V265.84Z" stroke="black" stroke-width="0.7" stroke-miterlimit="10"/>
<path d="M317.72 276.81C317.72 280.79 314.48 284.02 310.5 284.02C306.52 284.02 303.28 280.79 303.28 276.81C303.28 272.83 306.51 269.59 310.5 269.59C314.49 269.59 317.72 272.82 317.72 276.81Z" stroke="black" stroke-width="0.2" stroke-miterlimit="10"/>
<path d="M312.974 272.768L306.436 279.283L308.017 280.87L314.555 274.355L312.974 272.768Z" fill="black"/>
<path d="M308.036 272.741L306.451 274.324L312.976 280.853L314.56 279.27L308.036 272.741Z" fill="black"/>
<path d="M317.72 296.009C317.72 299.989 314.48 303.219 310.5 303.219C306.52 303.219 303.28 299.989 303.28 296.009C303.28 292.029 306.51 288.789 310.5 288.789C314.49 288.789 317.72 292.019 317.72 296.009Z" stroke="black" stroke-width="0.2" stroke-miterlimit="10"/>
<path d="M308.03 300.069L306.44 298.479L312.97 291.959L314.56 293.539L308.03 300.069Z" fill="black"/>
<path d="M308.034 291.946L306.449 293.529L312.972 300.059L314.557 298.476L308.034 291.946Z" fill="black"/>
<path d="M321.3 324.648H299.68V385.088H321.3V324.648Z" stroke="black" stroke-width="0.7" stroke-miterlimit="10"/>
<path d="M317.72 355.409C317.72 359.399 314.48 362.619 310.5 362.619C306.52 362.619 303.28 359.389 303.28 355.409C303.28 351.429 306.51 348.189 310.5 348.189C314.49 348.189 317.72 351.419 317.72 355.409Z" stroke="black" stroke-width="0.2" stroke-miterlimit="10"/>
<path d="M312.961 351.368L306.427 357.887L308.009 359.473L314.543 352.954L312.961 351.368Z" fill="black"/>
<path d="M308.015 351.358L306.43 352.941L312.955 359.47L314.539 357.887L308.015 351.358Z" fill="black"/>
<path d="M317.72 374.609C317.72 378.589 314.48 381.819 310.5 381.819C306.52 381.819 303.28 378.589 303.28 374.609C303.28 370.629 306.51 367.389 310.5 367.389C314.49 367.389 317.72 370.619 317.72 374.609Z" stroke="black" stroke-width="0.2" stroke-miterlimit="10"/>
<path d="M312.963 370.544L306.436 377.07L308.02 378.654L314.547 372.128L312.963 370.544Z" fill="black"/>
<path d="M308.017 370.561L306.433 372.145L312.958 378.672L314.542 377.089L308.017 370.561Z" fill="black"/>
<path d="M317.72 336.21C317.72 340.19 314.48 343.42 310.5 343.42C306.52 343.42 303.28 340.19 303.28 336.21C303.28 332.23 306.51 328.99 310.5 328.99C314.49 328.99 317.72 332.22 317.72 336.21Z" stroke="black" stroke-width="0.2" stroke-miterlimit="10"/>
<path d="M312.97 332.143L306.443 338.67L308.027 340.254L314.554 333.727L312.97 332.143Z" fill="black"/>
<path d="M308.029 332.155L306.445 333.738L312.97 340.266L314.554 338.682L308.029 332.155Z" fill="black"/>
<path d="M451.15 276.81C451.15 280.79 447.91 284.02 443.93 284.02C439.95 284.02 436.71 280.79 436.71 276.81C436.71 272.83 439.94 269.59 443.93 269.59C447.92 269.59 451.15 272.82 451.15 276.81Z" stroke="black" stroke-width="0.2" stroke-miterlimit="10"/>
<path d="M446.407 272.784L439.869 279.299L441.457 280.893L447.995 274.377L446.407 272.784Z" fill="black"/>
<path d="M441.465 272.728L439.873 274.318L446.398 280.847L447.989 279.257L441.465 272.728Z" fill="black"/>
<path d="M451.15 296.37C451.15 300.36 447.91 303.58 443.93 303.58C439.95 303.58 436.71 300.36 436.71 296.37C436.71 292.38 439.94 289.16 443.93 289.16C447.92 289.16 451.15 292.39 451.15 296.37Z" stroke="black" stroke-width="0.2" stroke-miterlimit="10"/>
<path d="M446.411 292.321L439.866 298.844L441.454 300.438L447.999 293.915L446.411 292.321Z" fill="black"/>
<path d="M441.461 292.285L439.869 293.875L446.401 300.411L447.992 298.821L441.461 292.285Z" fill="black"/>
<path d="M454.74 265.84H433.12V385.09H454.74V265.84Z" stroke="black" stroke-width="0.7" stroke-miterlimit="10"/>
<path d="M451.15 355.05C451.15 359.03 447.91 362.26 443.93 362.26C439.95 362.26 436.71 359.03 436.71 355.05C436.71 351.07 439.94 347.83 443.93 347.83C447.92 347.83 451.15 351.06 451.15 355.05Z" stroke="black" stroke-width="0.2" stroke-miterlimit="10"/>
<path d="M446.404 351.01L439.874 357.533L441.457 359.118L447.987 352.595L446.404 351.01Z" fill="black"/>
<path d="M441.454 350.996L439.87 352.58L446.395 359.108L447.979 357.524L441.454 350.996Z" fill="black"/>
<path d="M451.15 374.609C451.15 378.589 447.91 381.819 443.93 381.819C439.95 381.819 436.71 378.589 436.71 374.609C436.71 370.629 439.94 367.389 443.93 367.389C447.92 367.389 451.15 370.619 451.15 374.609Z" stroke="black" stroke-width="0.2" stroke-miterlimit="10"/>
<path d="M446.392 370.565L439.865 377.092L441.449 378.676L447.976 372.149L446.392 370.565Z" fill="black"/>
<path d="M441.453 370.557L439.868 372.141L446.394 378.668L447.978 377.085L441.453 370.557Z" fill="black"/>
<path d="M451.15 335.49C451.15 339.47 447.91 342.7 443.93 342.7C439.95 342.7 436.71 339.47 436.71 335.49C436.71 331.51 439.94 328.27 443.93 328.27C447.92 328.27 451.15 331.5 451.15 335.49Z" stroke="black" stroke-width="0.2" stroke-miterlimit="10"/>
<path d="M446.4 331.437L439.863 337.967L441.446 339.552L447.983 333.021L446.4 331.437Z" fill="black"/>
<path d="M441.458 331.421L439.873 333.004L446.403 339.541L447.988 337.958L441.458 331.421Z" fill="black"/>
<path d="M451.15 315.929C451.15 319.919 447.91 323.149 443.93 323.149C439.95 323.149 436.71 319.919 436.71 315.929C436.71 311.939 439.94 308.719 443.93 308.719C447.92 308.719 451.15 311.949 451.15 315.929Z" stroke="black" stroke-width="0.2" stroke-miterlimit="10"/>
<path d="M446.408 311.892L439.866 318.418L441.448 320.004L447.99 313.478L446.408 311.892Z" fill="black"/>
<path d="M441.457 311.866L439.872 313.449L446.401 319.987L447.986 318.405L441.457 311.866Z" fill="black"/>
<path d="M326.37 265.84H356.03C357.92 265.84 359.46 267.38 359.46 269.28V309.24C359.46 311.13 357.92 312.67 356.03 312.67H326.37" stroke="#808080" stroke-width="0.7" stroke-miterlimit="10"/>
<path d="M326.37 324.648H356.03C357.92 324.648 359.46 326.178 359.46 328.078V381.658C359.46 383.548 357.92 385.088 356.03 385.088H326.37" stroke="#808080" stroke-width="0.7" stroke-miterlimit="10"/>
<path d="M428.82 265.84H399.16C397.27 265.84 395.72 267.38 395.72 269.28V324.66H428.81" stroke="#808080" stroke-width="0.7" stroke-miterlimit="10"/>
<path d="M428.82 324.65H395.73V381.66C395.73 383.55 397.27 385.09 399.17 385.09H428.83" stroke="#808080" stroke-width="0.7" stroke-miterlimit="10"/>
<path d="M326.37 265.84H356.03C357.92 265.84 359.46 267.38 359.46 269.28V309.24C359.46 311.13 357.92 312.67 356.03 312.67H326.37" stroke="#808080" stroke-width="0.2" stroke-miterlimit="10"/>
<path d="M326.37 324.648H356.03C357.92 324.648 359.46 326.178 359.46 328.078V381.658C359.46 383.548 357.92 385.088 356.03 385.088H326.37" stroke="#808080" stroke-width="0.2" stroke-miterlimit="10"/>
<path d="M400.33 276.809C400.33 279.349 398.27 281.409 395.72 281.409C393.17 281.409 391.12 279.349 391.12 276.809C391.12 274.269 393.18 272.209 395.72 272.209C398.26 272.209 400.33 274.269 400.33 276.809Z" fill="#808080" stroke="black" stroke-width="0.2" stroke-miterlimit="10"/>
<path d="M364.06 276.809C364.06 279.349 362 281.409 359.46 281.409C356.92 281.409 354.86 279.349 354.86 276.809C354.86 274.269 356.92 272.209 359.46 272.209C362 272.209 364.06 274.269 364.06 276.809Z" fill="#808080" stroke="black" stroke-width="0.2" stroke-miterlimit="10"/>
<path d="M364.06 336.209C364.06 338.749 362 340.809 359.46 340.809C356.92 340.809 354.86 338.749 354.86 336.209C354.86 333.669 356.92 331.609 359.46 331.609C362 331.609 364.06 333.669 364.06 336.209Z" fill="#808080" stroke="black" stroke-width="0.2" stroke-miterlimit="10"/>
<path d="M364.06 374.61C364.06 377.15 362 379.21 359.46 379.21C356.92 379.21 354.86 377.15 354.86 374.61C354.86 372.07 356.92 370.01 359.46 370.01C362 370.01 364.06 372.07 364.06 374.61Z" fill="#808080" stroke="black" stroke-width="0.2" stroke-miterlimit="10"/>
<path d="M400.33 296.369C400.33 298.919 398.27 300.969 395.72 300.969C393.17 300.969 391.12 298.909 391.12 296.369C391.12 293.829 393.18 291.779 395.72 291.779C398.26 291.779 400.33 293.829 400.33 296.369Z" fill="#808080" stroke="black" stroke-width="0.2" stroke-miterlimit="10"/>
<path d="M400.33 355.409C400.33 357.949 398.27 360.009 395.72 360.009C393.17 360.009 391.12 357.949 391.12 355.409C391.12 352.869 393.18 350.809 395.72 350.809C398.26 350.809 400.33 352.869 400.33 355.409Z" fill="#808080" stroke="black" stroke-width="0.2" stroke-miterlimit="10"/>
<path d="M333.96 279.56V276.53H330.96V275.27H333.96V272.27H335.24V275.27H338.24V276.53H335.24V279.56H333.96Z" fill="black"/>
<path d="M334.04 297.559H331.4V296.299H337.79V297.559H334.03H334.04Z" fill="black"/>
<path d="M334.28 356.139V355.359H337.08V357.809C336.65 358.149 336.21 358.409 335.75 358.579C335.29 358.749 334.82 358.839 334.34 358.839C333.69 358.839 333.1 358.699 332.57 358.419C332.04 358.139 331.64 357.739 331.37 357.209C331.1 356.679 330.96 356.089 330.96 355.439C330.96 354.789 331.09 354.189 331.37 353.629C331.64 353.069 332.03 352.659 332.53 352.389C333.03 352.119 333.62 351.979 334.28 351.979C334.76 351.979 335.19 352.059 335.58 352.209C335.97 352.369 336.27 352.579 336.49 352.859C336.71 353.139 336.88 353.499 336.99 353.939L336.2 354.159C336.1 353.819 335.98 353.559 335.83 353.369C335.68 353.179 335.47 353.019 335.2 352.909C334.93 352.789 334.62 352.729 334.29 352.729C333.89 352.729 333.54 352.789 333.25 352.919C332.96 353.039 332.73 353.199 332.54 353.399C332.36 353.599 332.22 353.819 332.12 354.049C331.95 354.459 331.86 354.909 331.86 355.379C331.86 355.969 331.96 356.459 332.17 356.859C332.37 357.259 332.67 357.549 333.05 357.739C333.44 357.929 333.85 358.029 334.29 358.029C334.67 358.029 335.04 357.949 335.4 357.809C335.76 357.659 336.03 357.509 336.22 357.339V356.109H334.27L334.28 356.139Z" fill="black"/>
<path d="M338.36 358.729V352.109H339.26L342.74 357.309V352.109H343.58V358.729H342.68L339.2 353.529V358.729H338.36Z" fill="black"/>
<path d="M345.05 358.729V352.109H347.33C347.84 352.109 348.23 352.139 348.51 352.199C348.89 352.289 349.21 352.449 349.48 352.679C349.83 352.979 350.09 353.349 350.26 353.809C350.43 354.269 350.52 354.789 350.52 355.379C350.52 355.879 350.46 356.329 350.34 356.719C350.22 357.109 350.07 357.429 349.89 357.679C349.71 357.929 349.5 358.139 349.29 358.279C349.07 358.429 348.81 358.539 348.5 358.609C348.19 358.679 347.84 358.719 347.44 358.719H345.05V358.729ZM345.93 357.949H347.34C347.78 357.949 348.12 357.909 348.37 357.829C348.62 357.749 348.81 357.629 348.96 357.479C349.17 357.269 349.33 356.989 349.45 356.639C349.56 356.289 349.62 355.859 349.62 355.359C349.62 354.669 349.51 354.139 349.28 353.769C349.05 353.399 348.78 353.149 348.45 353.019C348.22 352.929 347.84 352.879 347.32 352.879H345.93V357.939V357.949Z" fill="black"/>
<path d="M406.75 316.408V315.628H409.56V318.078C409.13 318.418 408.68 318.678 408.22 318.848C407.76 319.018 407.3 319.108 406.81 319.108C406.16 319.108 405.57 318.968 405.03 318.688C404.5 318.408 404.1 318.008 403.83 317.478C403.56 316.948 403.42 316.358 403.42 315.708C403.42 315.058 403.56 314.458 403.82 313.898C404.09 313.338 404.48 312.928 404.98 312.658C405.49 312.388 406.07 312.248 406.73 312.248C407.21 312.248 407.64 312.328 408.03 312.478C408.42 312.638 408.72 312.848 408.94 313.128C409.16 313.408 409.33 313.768 409.44 314.208L408.65 314.428C408.55 314.088 408.43 313.828 408.28 313.638C408.13 313.448 407.92 313.288 407.65 313.178C407.38 313.058 407.07 312.998 406.74 312.998C406.34 312.998 405.99 313.058 405.7 313.188C405.41 313.308 405.18 313.468 405 313.668C404.82 313.868 404.68 314.088 404.58 314.318C404.41 314.728 404.33 315.178 404.33 315.648C404.33 316.238 404.43 316.728 404.64 317.128C404.84 317.528 405.14 317.818 405.52 318.008C405.91 318.198 406.32 318.298 406.76 318.298C407.14 318.298 407.51 318.218 407.87 318.078C408.23 317.928 408.51 317.778 408.69 317.608V316.378H406.74L406.75 316.408Z" fill="black"/>
<path d="M410.84 318.999V312.379H411.74L415.22 317.579V312.379H416.06V318.999H415.16L411.68 313.799V318.999H410.84Z" fill="black"/>
<path d="M417.53 318.999V312.379H419.81C420.32 312.379 420.72 312.409 420.99 312.469C421.37 312.559 421.69 312.719 421.96 312.949C422.31 313.249 422.57 313.619 422.74 314.079C422.91 314.539 423 315.059 423 315.649C423 316.149 422.94 316.599 422.82 316.989C422.7 317.379 422.55 317.699 422.37 317.949C422.18 318.199 421.98 318.409 421.76 318.549C421.54 318.689 421.28 318.809 420.97 318.879C420.66 318.959 420.31 318.989 419.91 318.989H417.52L417.53 318.999ZM418.4 318.219H419.81C420.25 318.219 420.59 318.179 420.84 318.099C421.09 318.019 421.28 317.899 421.43 317.749C421.64 317.539 421.8 317.259 421.91 316.909C422.03 316.559 422.08 316.129 422.08 315.629C422.08 314.939 421.96 314.409 421.74 314.039C421.51 313.669 421.24 313.419 420.91 313.289C420.68 313.199 420.3 313.149 419.78 313.149H418.39V318.209L418.4 318.219Z" fill="black"/>
<path d="M412.15 281.339V274.719H414.43C414.94 274.719 415.34 274.749 415.6 274.809C415.98 274.899 416.3 275.059 416.57 275.289C416.92 275.589 417.18 275.959 417.35 276.419C417.52 276.879 417.61 277.399 417.61 277.989C417.61 278.489 417.55 278.939 417.43 279.329C417.31 279.719 417.16 280.039 416.98 280.289C416.8 280.549 416.59 280.749 416.37 280.889C416.15 281.039 415.89 281.149 415.58 281.219C415.27 281.299 414.92 281.329 414.52 281.329H412.13L412.15 281.339ZM413.02 280.559H414.43C414.87 280.559 415.21 280.519 415.46 280.439C415.71 280.359 415.9 280.239 416.05 280.099C416.26 279.889 416.42 279.609 416.53 279.259C416.64 278.909 416.7 278.479 416.7 277.979C416.7 277.289 416.58 276.759 416.36 276.389C416.13 276.019 415.86 275.769 415.53 275.639C415.3 275.549 414.92 275.499 414.4 275.499H413.01V280.559H413.02Z" fill="black"/>
<path d="M420.43 280.269V278.449H418.63V277.689H420.43V275.889H421.2V277.689H423V278.449H421.2V280.269H420.43Z" fill="black"/>
<path d="M412.15 300.868V294.248H414.43C414.94 294.248 415.34 294.278 415.61 294.338C415.99 294.428 416.31 294.588 416.58 294.818C416.93 295.118 417.19 295.488 417.36 295.948C417.53 296.408 417.62 296.928 417.62 297.518C417.62 298.018 417.56 298.468 417.44 298.858C417.32 299.248 417.17 299.568 416.99 299.818C416.81 300.078 416.6 300.278 416.39 300.418C416.17 300.568 415.91 300.678 415.6 300.748C415.29 300.828 414.94 300.858 414.54 300.858H412.15V300.868ZM413.02 300.088H414.44C414.87 300.088 415.22 300.048 415.47 299.968C415.72 299.888 415.91 299.768 416.06 299.628C416.27 299.418 416.43 299.138 416.54 298.788C416.66 298.438 416.72 298.008 416.72 297.508C416.72 296.818 416.6 296.288 416.38 295.918C416.15 295.548 415.88 295.298 415.55 295.168C415.32 295.078 414.94 295.028 414.42 295.028H413.03V300.088H413.02Z" fill="black"/>
<path d="M418.4 297.968V297.148H422.78V297.968H418.4Z" fill="black"/>
<path d="M410.71 339.099V332.479H411.61L415.09 337.679V332.479H415.93V339.099H415.03L411.55 333.899V339.099H410.71Z" fill="black"/>
<path d="M422.12 336.779L423 336.999C422.81 337.719 422.49 338.269 422.01 338.649C421.53 339.029 420.95 339.209 420.26 339.209C419.57 339.209 418.97 339.059 418.52 338.779C418.07 338.489 417.73 338.069 417.5 337.519C417.27 336.969 417.15 336.379 417.15 335.739C417.15 335.049 417.28 334.449 417.54 333.939C417.81 333.429 418.18 333.039 418.67 332.769C419.15 332.499 419.69 332.369 420.27 332.369C420.93 332.369 421.49 332.539 421.94 332.869C422.39 333.209 422.71 333.679 422.88 334.289L422.02 334.489C421.87 334.009 421.65 333.659 421.35 333.439C421.06 333.219 420.69 333.109 420.25 333.109C419.74 333.109 419.32 333.229 418.97 333.479C418.63 333.729 418.39 334.049 418.25 334.459C418.11 334.869 418.04 335.289 418.04 335.729C418.04 336.289 418.12 336.779 418.29 337.199C418.45 337.619 418.71 337.929 419.05 338.139C419.4 338.349 419.77 338.449 420.18 338.449C420.67 338.449 421.08 338.309 421.43 338.029C421.77 337.749 422 337.329 422.12 336.769V336.779Z" fill="black"/>
<path d="M407.56 356.408L408.44 356.628C408.26 357.348 407.93 357.898 407.45 358.278C406.97 358.658 406.39 358.838 405.7 358.838C405.01 358.838 404.41 358.698 403.96 358.408C403.51 358.118 403.17 357.698 402.94 357.148C402.71 356.598 402.59 356.008 402.59 355.368C402.59 354.678 402.72 354.078 402.98 353.568C403.24 353.058 403.62 352.668 404.11 352.398C404.59 352.138 405.13 351.998 405.71 351.998C406.37 351.998 406.93 352.168 407.38 352.508C407.83 352.848 408.15 353.318 408.32 353.928L407.46 354.128C407.31 353.648 407.09 353.298 406.79 353.078C406.5 352.858 406.13 352.748 405.69 352.748C405.18 352.748 404.76 352.868 404.41 353.118C404.07 353.368 403.83 353.688 403.69 354.098C403.55 354.508 403.48 354.928 403.48 355.368C403.48 355.928 403.56 356.418 403.73 356.848C403.9 357.268 404.15 357.578 404.49 357.788C404.84 357.998 405.21 358.098 405.62 358.098C406.11 358.098 406.53 357.958 406.86 357.678C407.2 357.398 407.43 356.978 407.55 356.418L407.56 356.408Z" fill="black"/>
<path d="M409.25 355.508C409.25 354.408 409.55 353.548 410.13 352.928C410.72 352.308 411.48 351.998 412.42 351.998C413.03 351.998 413.58 352.148 414.07 352.428C414.56 352.718 414.94 353.128 415.19 353.648C415.45 354.168 415.58 354.758 415.58 355.428C415.58 356.098 415.44 356.698 415.18 357.228C414.91 357.758 414.52 358.158 414.02 358.428C413.52 358.698 412.99 358.838 412.41 358.838C411.79 358.838 411.23 358.688 410.74 358.388C410.25 358.088 409.88 357.678 409.63 357.158C409.37 356.638 409.25 356.088 409.25 355.498V355.508ZM410.15 355.518C410.15 356.318 410.37 356.938 410.8 357.408C411.23 357.868 411.77 358.098 412.41 358.098C413.05 358.098 413.61 357.868 414.04 357.398C414.47 356.938 414.68 356.278 414.68 355.428C414.68 354.888 414.59 354.418 414.4 354.018C414.22 353.618 413.95 353.298 413.6 353.078C413.25 352.858 412.85 352.748 412.42 352.748C411.8 352.748 411.26 352.968 410.82 353.388C410.37 353.818 410.15 354.528 410.15 355.518Z" fill="black"/>
<path d="M416.68 358.727V352.107H418L419.56 356.797C419.71 357.227 419.81 357.557 419.88 357.777C419.96 357.537 420.07 357.187 420.23 356.717L421.81 352.117H422.99V358.737H422.15V353.197L420.22 358.737H419.43L417.52 353.107V358.737H416.68V358.727Z" fill="black"/>
<path d="M410.24 378.358V371.738H411.14L414.61 376.938V371.738H415.45V378.358H414.55L411.08 373.158V378.358H410.24Z" fill="black"/>
<path d="M416.67 375.129C416.67 374.029 416.97 373.169 417.55 372.549C418.14 371.929 418.9 371.619 419.84 371.619C420.45 371.619 421 371.769 421.49 372.059C421.98 372.349 422.36 372.759 422.61 373.279C422.87 373.799 423 374.389 423 375.059C423 375.729 422.87 376.329 422.59 376.859C422.32 377.389 421.93 377.789 421.44 378.059C420.94 378.329 420.41 378.469 419.83 378.469C419.21 378.469 418.65 378.319 418.16 378.019C417.67 377.719 417.3 377.309 417.04 376.789C416.79 376.269 416.66 375.719 416.66 375.139L416.67 375.129ZM417.57 375.149C417.57 375.949 417.78 376.579 418.22 377.039C418.65 377.499 419.19 377.729 419.83 377.729C420.47 377.729 421.04 377.499 421.46 377.029C421.89 376.569 422.1 375.909 422.1 375.059C422.1 374.519 422.01 374.049 421.82 373.649C421.64 373.249 421.37 372.929 421.02 372.709C420.67 372.489 420.28 372.379 419.84 372.379C419.22 372.379 418.69 372.589 418.24 373.019C417.79 373.449 417.57 374.159 417.57 375.149Z" fill="black"/>
<path d="M365.2 271.979H374.14V274.879C374.14 275.979 374.09 276.689 374.01 277.029C373.87 277.539 373.58 277.969 373.14 278.319C372.69 278.669 372.11 278.839 371.4 278.839C370.85 278.839 370.39 278.739 370.02 278.539C369.65 278.339 369.35 278.089 369.14 277.779C368.93 277.469 368.79 277.159 368.72 276.839C368.63 276.409 368.59 275.779 368.59 274.969V273.789H365.22V271.989L365.2 271.979ZM372.63 273.779H370.09V274.769C370.09 275.479 370.14 275.959 370.23 276.199C370.32 276.439 370.47 276.629 370.67 276.759C370.87 276.889 371.1 276.959 371.37 276.959C371.69 276.959 371.96 276.859 372.18 276.669C372.39 276.479 372.52 276.239 372.58 275.939C372.62 275.719 372.64 275.289 372.64 274.639V273.769L372.63 273.779Z" fill="black"/>
<path d="M365.2 281.509L374.14 279.379V281.229L368 282.579L374.14 284.209V286.359L367.89 287.929L374.14 289.299V291.119L365.2 288.949V287.029L371.88 285.249L365.2 283.479V281.519V281.509Z" fill="black"/>
<path d="M365.2 291.969H374.14V295.769C374.14 296.729 374.06 297.419 373.9 297.849C373.74 298.279 373.45 298.629 373.04 298.889C372.63 299.149 372.16 299.279 371.63 299.279C370.96 299.279 370.4 299.079 369.97 298.689C369.53 298.299 369.26 297.709 369.14 296.919C368.91 297.309 368.66 297.629 368.39 297.889C368.12 298.139 367.63 298.479 366.94 298.909L365.2 299.999V297.839L367.14 296.529C367.84 296.069 368.27 295.749 368.46 295.579C368.64 295.409 368.76 295.229 368.83 295.039C368.9 294.849 368.93 294.549 368.93 294.129V293.759H365.2V291.949V291.969ZM370.36 293.779V295.109C370.36 295.979 370.4 296.519 370.47 296.729C370.54 296.949 370.67 297.119 370.85 297.239C371.03 297.359 371.25 297.419 371.52 297.419C371.82 297.419 372.06 297.339 372.25 297.179C372.44 297.019 372.55 296.789 372.6 296.499C372.62 296.359 372.63 295.919 372.63 295.179V293.769H370.36V293.779Z" fill="black"/>
<path d="M388.68 302.441H379.74V299.021C379.74 298.161 379.82 297.541 379.98 297.151C380.14 296.761 380.43 296.451 380.84 296.211C381.25 295.981 381.72 295.861 382.25 295.861C382.92 295.861 383.48 296.041 383.91 296.391C384.35 296.741 384.62 297.271 384.74 297.981C384.97 297.631 385.22 297.341 385.49 297.111C385.77 296.881 386.25 296.571 386.94 296.191L388.68 295.211V297.151L386.73 298.321C386.03 298.731 385.6 299.021 385.42 299.171C385.24 299.321 385.12 299.491 385.05 299.661C384.98 299.831 384.95 300.101 384.95 300.481V300.811H388.68V302.431V302.441ZM383.52 300.821V299.621C383.52 298.841 383.48 298.351 383.41 298.161C383.34 297.971 383.21 297.811 383.03 297.701C382.85 297.591 382.63 297.531 382.36 297.531C382.06 297.531 381.81 297.601 381.63 297.751C381.45 297.891 381.33 298.101 381.28 298.361C381.26 298.491 381.25 298.881 381.25 299.541V300.811H383.52V300.821Z" fill="black"/>
<path d="M385.77 295.081L385.6 293.501C386.19 293.411 386.62 293.211 386.9 292.921C387.18 292.631 387.31 292.241 387.31 291.741C387.31 291.221 387.19 290.821 386.94 290.561C386.69 290.291 386.41 290.161 386.08 290.161C385.87 290.161 385.69 290.211 385.54 290.331C385.39 290.441 385.26 290.641 385.15 290.921C385.08 291.111 384.95 291.541 384.76 292.221C384.52 293.091 384.22 293.701 383.87 294.051C383.38 294.541 382.78 294.791 382.07 294.791C381.61 294.791 381.19 294.671 380.79 294.441C380.39 294.211 380.09 293.871 379.89 293.431C379.68 292.991 379.58 292.471 379.58 291.851C379.58 290.841 379.83 290.081 380.32 289.571C380.81 289.061 381.47 288.791 382.29 288.771L382.37 290.391C381.91 290.461 381.58 290.611 381.38 290.841C381.18 291.071 381.08 291.411 381.08 291.871C381.08 292.331 381.19 292.711 381.4 292.981C381.54 293.151 381.72 293.241 381.95 293.241C382.16 293.241 382.34 293.161 382.49 293.001C382.68 292.791 382.88 292.301 383.09 291.511C383.3 290.721 383.51 290.141 383.73 289.761C383.95 289.381 384.25 289.091 384.64 288.871C385.03 288.661 385.5 288.551 386.07 288.551C386.58 288.551 387.06 288.681 387.51 288.941C387.96 289.191 388.29 289.561 388.51 290.031C388.73 290.501 388.84 291.081 388.84 291.781C388.84 292.801 388.58 293.581 388.06 294.131C387.54 294.671 386.78 295.001 385.78 295.111L385.77 295.081Z" fill="black"/>
<path d="M388.68 284.83H386.88V288.12H385.38L379.7 284.63V283.33H385.37V282.33H386.88V283.33H388.68V284.82V284.83ZM385.37 284.83H382.31L385.37 286.68V284.83Z" fill="black"/>
<path d="M383.85 280.61C383.66 281.01 383.41 281.3 383.08 281.48C382.75 281.66 382.4 281.75 382 281.75C381.33 281.75 380.78 281.54 380.35 281.12C379.92 280.7 379.69 280.11 379.69 279.33C379.69 278.55 379.91 277.97 380.35 277.55C380.78 277.13 381.33 276.92 382 276.92C382.42 276.92 382.79 277.01 383.11 277.21C383.43 277.4 383.68 277.68 383.85 278.03C384.05 277.59 384.34 277.24 384.73 277.01C385.11 276.78 385.55 276.66 386.05 276.66C386.88 276.66 387.55 276.89 388.06 277.37C388.57 277.84 388.83 278.47 388.83 279.26C388.83 279.99 388.62 280.6 388.19 281.09C387.68 281.66 386.99 281.95 386.11 281.95C385.63 281.95 385.18 281.84 384.78 281.63C384.38 281.41 384.06 281.07 383.84 280.61H383.85ZM382.13 280.3C382.47 280.3 382.74 280.21 382.93 280.04C383.12 279.87 383.21 279.63 383.21 279.35C383.21 279.07 383.11 278.82 382.92 278.65C382.73 278.48 382.46 278.39 382.12 278.39C381.8 278.39 381.54 278.47 381.35 278.65C381.16 278.83 381.06 279.06 381.06 279.34C381.06 279.62 381.16 279.87 381.35 280.05C381.54 280.23 381.8 280.32 382.12 280.32L382.13 280.3ZM385.96 280.44C386.43 280.44 386.8 280.33 387.06 280.11C387.32 279.89 387.45 279.62 387.45 279.3C387.45 278.98 387.33 278.72 387.07 278.51C386.81 278.3 386.45 278.2 385.97 278.2C385.55 278.2 385.22 278.31 384.96 278.52C384.71 278.73 384.58 279 384.58 279.33C384.58 279.71 384.72 279.99 385.01 280.17C385.3 280.35 385.61 280.45 385.95 280.45L385.96 280.44Z" fill="black"/>
<path d="M386.38 276L386.2 274.46C386.59 274.42 386.89 274.29 387.12 274.07C387.35 273.85 387.46 273.6 387.46 273.32C387.46 273 387.32 272.73 387.03 272.5C386.74 272.28 386.3 272.17 385.72 272.17C385.17 272.17 384.76 272.28 384.49 272.5C384.22 272.72 384.08 273.01 384.08 273.36C384.08 273.8 384.3 274.2 384.73 274.55L384.53 275.8L379.88 275.01V270.93H381.48V273.84L383 274.08C382.81 273.73 382.71 273.38 382.71 273.02C382.71 272.34 382.99 271.76 383.54 271.28C384.09 270.8 384.81 270.57 385.69 270.57C386.43 270.57 387.08 270.76 387.66 271.15C388.45 271.67 388.85 272.4 388.85 273.33C388.85 274.07 388.63 274.68 388.18 275.15C387.74 275.62 387.14 275.9 386.39 275.99L386.38 276Z" fill="black"/>
<path d="M388.68 372.46H379.74V369.04C379.74 368.18 379.82 367.56 379.98 367.17C380.14 366.78 380.43 366.47 380.84 366.23C381.25 366 381.72 365.88 382.25 365.88C382.92 365.88 383.48 366.06 383.91 366.41C384.35 366.76 384.62 367.29 384.74 368C384.97 367.65 385.22 367.36 385.49 367.13C385.77 366.9 386.25 366.59 386.94 366.21L388.68 365.23V367.17L386.73 368.34C386.03 368.76 385.6 369.04 385.42 369.2C385.24 369.35 385.12 369.52 385.05 369.69C384.98 369.86 384.95 370.13 384.95 370.51V370.84H388.68V372.46ZM383.52 370.84V369.64C383.52 368.86 383.48 368.37 383.41 368.18C383.34 367.99 383.21 367.83 383.03 367.72C382.85 367.61 382.63 367.55 382.36 367.55C382.06 367.55 381.81 367.62 381.63 367.77C381.45 367.91 381.33 368.12 381.28 368.38C381.26 368.51 381.25 368.9 381.25 369.56V370.83H383.52V370.84Z" fill="black"/>
<path d="M388.68 364.69H379.74V358.73H381.25V363.07H383.23V359.03H384.74V363.07H387.17V358.57H388.67V364.69H388.68Z" fill="black"/>
<path d="M388.68 357.49H379.81V355.86H387.17V351.82H388.67V357.49H388.68Z" fill="black"/>
<path d="M388.68 343.75V345.52L386.65 346.22V349.44L388.68 350.1V351.82L379.74 348.69V346.97L388.68 343.75ZM385.14 346.74L381.83 347.85L385.14 348.94V346.75V346.74Z" fill="black"/>
<path d="M388.68 342.14H384.92L379.74 345.09V343.19L383.28 341.3L379.74 339.44V337.57L384.93 340.53H388.68V342.15V342.14Z" fill="black"/>
<path d="M337.05 424.5V414.42H340.9C341.87 414.42 342.57 414.51 343.01 414.69C343.45 414.87 343.8 415.19 344.06 415.66C344.33 416.12 344.46 416.65 344.46 417.25C344.46 418.01 344.26 418.63 343.86 419.12C343.46 419.62 342.86 419.93 342.07 420.05C342.47 420.31 342.79 420.59 343.05 420.89C343.31 421.2 343.66 421.74 344.09 422.53L345.2 424.5H343.01L341.69 422.31C341.22 421.53 340.9 421.03 340.72 420.83C340.55 420.63 340.36 420.49 340.17 420.41C339.97 420.33 339.67 420.3 339.25 420.3H338.88V424.5H337.05ZM338.88 418.68H340.23C341.11 418.68 341.66 418.64 341.88 418.56C342.1 418.48 342.27 418.34 342.39 418.13C342.51 417.93 342.58 417.67 342.58 417.37C342.58 417.03 342.5 416.76 342.34 416.55C342.17 416.34 341.95 416.21 341.65 416.16C341.5 416.13 341.06 416.12 340.32 416.12H338.89V418.68H338.88Z" fill="black"/>
<path d="M345.82 424.5V414.42H352.54V416.12H347.65V418.36H352.2V420.06H347.65V422.8H352.72V424.5H345.83H345.82Z" fill="black"/>
<path d="M353.42 421.22L355.2 421.03C355.31 421.69 355.53 422.18 355.85 422.49C356.18 422.8 356.62 422.96 357.18 422.96C357.77 422.96 358.21 422.82 358.51 422.54C358.81 422.26 358.96 421.94 358.96 421.57C358.96 421.33 358.9 421.13 358.77 420.96C358.64 420.79 358.42 420.65 358.11 420.52C357.89 420.44 357.41 420.29 356.64 420.08C355.66 419.81 354.97 419.48 354.58 419.08C354.02 418.53 353.74 417.85 353.74 417.06C353.74 416.55 353.87 416.07 354.13 415.62C354.39 415.17 354.77 414.83 355.26 414.6C355.75 414.37 356.35 414.25 357.04 414.25C358.18 414.25 359.03 414.53 359.61 415.08C360.18 415.64 360.49 416.38 360.51 417.3L358.68 417.39C358.6 416.87 358.43 416.5 358.18 416.27C357.92 416.04 357.53 415.93 357.02 415.93C356.51 415.93 356.07 416.05 355.77 416.3C355.57 416.46 355.48 416.66 355.48 416.93C355.48 417.17 355.57 417.37 355.75 417.54C355.98 417.75 356.54 417.98 357.43 418.21C358.32 418.44 358.98 418.69 359.41 418.93C359.84 419.18 360.17 419.52 360.41 419.95C360.65 420.38 360.77 420.92 360.77 421.55C360.77 422.13 360.63 422.67 360.34 423.17C360.05 423.68 359.64 424.05 359.12 424.29C358.59 424.54 357.93 424.66 357.15 424.66C356 424.66 355.12 424.37 354.51 423.78C353.9 423.19 353.53 422.33 353.41 421.21L353.42 421.22Z" fill="black"/>
<path d="M361.95 424.5V414.42H368.67V416.12H363.78V418.36H368.33V420.06H363.78V422.8H368.85V424.5H361.96H361.95Z" fill="black"/>
<path d="M372.06 424.5V416.13H369.37V414.43H376.58V416.13H373.9V424.5H372.07H372.06Z" fill="black"/>
<path d="M389.46 424.5V414.42H391.49V424.5H389.46Z" fill="black"/>
<path d="M393.45 424.5V414.42H395.43L399.55 421.15V414.42H401.44V424.5H399.4L395.34 417.93V424.5H393.45Z" fill="black"/>
<path d="M403.53 424.5V414.42H405.56V424.5H403.53Z" fill="black"/>
<path d="M409.77 424.5V416.13H406.78V414.43H414.79V416.13H411.81V424.5H409.77Z" fill="black"/>
<path d="M365.2 338.02H374.14V339.82H365.2V338.02Z" fill="black"/>
<path d="M365.2 341.5H374.14V343.25L368.17 346.91H374.14V348.59H365.2V346.78L371.03 343.18H365.2V341.5Z" fill="black"/>
<path d="M365.2 350.43H374.14V353.33C374.14 354.43 374.09 355.14 374.01 355.48C373.87 355.99 373.58 356.42 373.14 356.77C372.69 357.12 372.11 357.29 371.4 357.29C370.85 357.29 370.39 357.19 370.02 356.99C369.65 356.79 369.35 356.54 369.14 356.23C368.93 355.92 368.79 355.61 368.72 355.29C368.63 354.86 368.59 354.23 368.59 353.42V352.24H365.22V350.44L365.2 350.43ZM372.63 352.24H370.09V353.23C370.09 353.94 370.14 354.42 370.23 354.66C370.32 354.9 370.47 355.09 370.67 355.23C370.87 355.36 371.1 355.43 371.37 355.43C371.69 355.43 371.96 355.33 372.18 355.14C372.39 354.95 372.52 354.71 372.58 354.41C372.62 354.2 372.64 353.76 372.64 353.11V352.24H372.63Z" fill="black"/>
<path d="M374.14 358.689V360.489H369.3C368.53 360.489 368.03 360.509 367.81 360.559C367.44 360.639 367.15 360.819 366.93 361.109C366.71 361.399 366.6 361.799 366.6 362.299C366.6 362.799 366.7 363.199 366.91 363.459C367.12 363.719 367.38 363.869 367.68 363.929C367.98 363.979 368.49 364.009 369.2 364.009H374.15V365.809H369.45C368.38 365.809 367.62 365.759 367.17 365.669C366.73 365.569 366.36 365.389 366.05 365.129C365.75 364.869 365.5 364.519 365.32 364.079C365.14 363.639 365.05 363.069 365.05 362.359C365.05 361.499 365.15 360.859 365.35 360.419C365.55 359.979 365.81 359.629 366.12 359.369C366.44 359.119 366.77 358.949 367.11 358.869C367.62 358.749 368.38 358.689 369.38 358.689H374.15H374.14Z" fill="black"/>
<path d="M365.2 369.67H372.63V367.02H374.14V374.12H372.63V371.47H365.2V369.67Z" fill="black"/>
<path d="M334.82 451.878C330.16 451.878 326.37 448.088 326.37 443.428V233.348C326.37 228.688 330.16 224.898 334.82 224.898H420.37C425.04 224.898 428.82 228.688 428.82 233.348V443.428C428.82 448.088 425.03 451.878 420.37 451.878H334.82Z" stroke="#808080" stroke-width="0.7" stroke-miterlimit="10"/>
<path d="M355.86 480.11C355.86 480.57 355.86 481.32 355.44 481.74C355.15 482.03 354.69 482.18 354.07 482.18H352.2C351.88 482.18 351.3 482.18 350.89 481.77C350.55 481.43 350.38 480.88 350.38 480.13V473.27H348.32V480.16C348.32 481.11 348.62 484.23 351.65 484.23H354.72C355.94 484.23 357.93 483.7 357.93 480.16V473.27H355.86V480.12V480.11Z" fill="#9FA0A0"/>
<path d="M343.02 477.419L340.48 477.099C340 477.019 339.2 476.899 339.2 476.069C339.2 474.889 339.67 474.619 341.71 474.619H342.23C343.46 474.619 344.62 474.789 346.03 475.179V473.779C345.86 473.439 344 472.779 342.15 472.779H341.64C338.57 472.779 337.08 473.909 337.08 476.229C337.08 478.549 338.96 478.919 340.73 479.199L341.86 479.359C342.7 479.459 343.21 479.529 343.49 479.659C343.99 479.869 344.32 480.009 344.32 480.919C344.32 482.379 343.24 482.479 341.46 482.479H340.94C339.79 482.479 338.45 482.149 337.07 481.579V482.949C337.07 483.459 338.88 484.259 341.02 484.259H341.5C344.94 484.259 346.54 483.109 346.54 480.649C346.54 478.189 344.77 477.679 343.02 477.419Z" fill="#9FA0A0"/>
<path d="M366.28 472.779H365.94C361.77 472.779 360.23 474.349 360.23 478.569V484.099H362.45C362.45 482.889 362.45 478.579 362.45 478.569C362.45 475.209 363.24 474.619 365.51 474.619H366.07C368.29 474.619 368.71 475.469 368.71 477.029C368.71 477.999 368.37 479.029 367.4 479.029H363.38V480.419C364.2 480.559 365.84 480.649 366.84 480.649C370.25 480.649 370.97 478.709 370.97 477.089C370.97 474.389 369.21 472.779 366.28 472.779Z" fill="#9FA0A0"/>
<path d="M372.79 476.92V484.1H374.96V477.08C374.96 475.05 375.37 474.77 376.99 474.77H379.1V473C378.48 472.9 377.08 472.77 376.31 472.77C374.99 472.77 372.79 473.31 372.79 476.91V476.92Z" fill="#9FA0A0"/>
<path d="M387.07 477.899H383.05V479.289C383.88 479.429 385.51 479.519 386.51 479.519C388.05 479.519 390.64 479.149 390.64 476.719C390.64 473.469 388.09 472.789 385.95 472.789H385.6C381.43 472.789 379.88 474.359 379.88 478.579C379.88 482.799 381.47 484.259 385.35 484.259H385.65C388.23 484.259 390.17 483.569 390.17 482.949V481.759C388.68 482.149 387.53 482.379 386.04 482.379H385.56C383.47 482.379 382.1 482.109 382.1 478.579C382.1 475.049 382.91 474.629 385.18 474.629H385.73C387.85 474.629 388.37 475.029 388.37 476.659C388.37 477.509 387.96 477.899 387.07 477.899Z" fill="#9FA0A0"/>
<path d="M403.7 472.969H402.35C400.64 472.969 399.89 473.979 399.89 473.979C399.14 473.169 397.87 472.969 397.44 472.969H396.18C392.9 472.969 392.69 476.029 392.69 477.009V484.099H394.64V477.009C394.64 476.099 394.75 474.729 396.67 474.729C398.59 474.729 398.87 475.739 398.87 477.009V484.099H400.89V477.009C400.89 475.589 401.43 474.699 402.94 474.699C404.45 474.699 405.12 475.459 405.12 477.009V484.099H407.08V477.009C407.08 472.979 404.02 472.969 403.7 472.969Z" fill="#9FA0A0"/>
<path d="M419.78 478.499C419.78 473.799 417.69 472.799 413.94 472.799C410.19 472.799 409.49 473.889 409.49 474.099V475.289C415.19 474.039 416.34 474.999 416.61 475.249C416.87 475.499 417.55 476.059 417.55 478.549C417.55 481.039 417.01 481.549 416.84 481.749C416.09 482.579 414.37 482.419 412.84 482.339C411.31 482.249 411.31 481.059 411.31 480.459C411.31 479.859 411.54 479.129 412.46 479.129H416.67V477.989C416.18 477.809 413.92 477.509 413.47 477.509C409.67 477.509 409.01 479.189 409.01 480.349C409.01 484.629 414.06 484.269 414.06 484.269C420.41 484.729 419.77 478.499 419.77 478.499H419.78Z" fill="#9FA0A0"/>
<path d="M361.18 399.279C361.18 402.229 358.79 404.629 355.84 404.629C352.89 404.629 350.49 402.239 350.49 399.279C350.49 396.319 352.89 393.939 355.84 393.939C358.79 393.939 361.18 396.329 361.18 399.279Z" fill="#808080" stroke="black" stroke-width="0.2" stroke-miterlimit="10"/>
<path d="M359.83 399.279C359.83 401.489 358.04 403.279 355.83 403.279C353.62 403.279 351.84 401.489 351.84 399.279C351.84 397.069 353.63 395.279 355.83 395.279C358.03 395.279 359.83 397.069 359.83 399.279Z" fill="black" stroke="#808080" stroke-width="0.2" stroke-miterlimit="10"/>
<path d="M404.69 399.279C404.69 402.229 402.3 404.629 399.35 404.629C396.4 404.629 394 402.239 394 399.279C394 396.319 396.39 393.939 399.35 393.939C402.31 393.939 404.69 396.329 404.69 399.279Z" fill="#808080" stroke="black" stroke-width="0.2" stroke-miterlimit="10"/>
<path d="M403.34 399.279C403.34 401.489 401.55 403.279 399.35 403.279C397.15 403.279 395.35 401.489 395.35 399.279C395.35 397.069 397.14 395.279 399.35 395.279C401.56 395.279 403.34 397.069 403.34 399.279Z" fill="black" stroke="#808080" stroke-width="0.2" stroke-miterlimit="10"/>
<path d="M330.96 378.359V371.629H331.85V378.359H330.96Z" fill="#231815"/>
<path d="M333.41 378.359V371.629H334.32L337.85 376.909V371.629H338.7V378.359H337.79L334.26 373.069V378.359H333.41Z" fill="#231815"/>
<path d="M342.98 378.359H342.15V373.099C341.95 373.289 341.69 373.479 341.37 373.669C341.05 373.859 340.76 373.999 340.5 374.099V373.299C340.96 373.079 341.37 372.819 341.71 372.509C342.06 372.199 342.3 371.899 342.44 371.609H342.97V378.359H342.98Z" fill="#231815"/>
<path d="M330.96 338.99V332.26H331.85V338.99H330.96Z" fill="#231815"/>
<path d="M333.41 338.99V332.26H334.32L337.85 337.54V332.26H338.7V338.99H337.79L334.26 333.7V338.99H333.41Z" fill="#231815"/>
<path d="M339.87 335.67C339.87 334.87 339.95 334.23 340.12 333.75C340.28 333.27 340.53 332.89 340.85 332.63C341.17 332.37 341.58 332.24 342.07 332.24C342.43 332.24 342.75 332.31 343.02 332.46C343.29 332.61 343.52 332.81 343.69 333.09C343.87 333.36 344.01 333.7 344.11 334.09C344.21 334.48 344.26 335.01 344.26 335.68C344.26 336.47 344.18 337.11 344.02 337.59C343.86 338.07 343.62 338.45 343.29 338.71C342.97 338.98 342.56 339.11 342.07 339.11C341.42 339.11 340.91 338.88 340.54 338.41C340.1 337.85 339.87 336.94 339.87 335.68V335.67ZM340.72 335.67C340.72 336.77 340.85 337.51 341.11 337.88C341.37 338.25 341.69 338.43 342.07 338.43C342.45 338.43 342.77 338.25 343.03 337.88C343.29 337.51 343.42 336.78 343.42 335.68C343.42 334.58 343.29 333.84 343.03 333.47C342.77 333.11 342.45 332.92 342.06 332.92C341.67 332.92 341.38 333.08 341.15 333.4C340.87 333.81 340.72 334.57 340.72 335.67Z" fill="#231815"/>
<path d="M503.146 164.646C503.342 164.451 503.658 164.451 503.854 164.646L507.036 167.828C507.231 168.024 507.231 168.34 507.036 168.536C506.84 168.731 506.524 168.731 506.328 168.536L503.5 165.707L500.672 168.536C500.476 168.731 500.16 168.731 499.964 168.536C499.769 168.34 499.769 168.024 499.964 167.828L503.146 164.646ZM503.854 514.354C503.658 514.549 503.342 514.549 503.146 514.354L499.964 511.172C499.769 510.976 499.769 510.66 499.964 510.464C500.16 510.269 500.476 510.269 500.672 510.464L503.5 513.293L506.328 510.464C506.524 510.269 506.84 510.269 507.036 510.464C507.231 510.66 507.231 510.976 507.036 511.172L503.854 514.354ZM503.5 165L504 165L504 514L503.5 514L503 514L503 165L503.5 165Z" fill="black"/>
<path d="M507.5 164H467" stroke="black"/>
<path d="M507.5 515H467" stroke="black"/>
</svg>
