<svg xmlns="http://www.w3.org/2000/svg" width="1097" height="698" fill="none" viewBox="0 0 1097 698"><path fill="#fff" d="M0 0h1097v698H0z"/><path fill="#000" d="M182.146 66.646a.5.5 0 0 0 0 .708l3.182 3.182a.501.501 0 0 0 .708-.708L183.207 67l2.829-2.828a.5.5 0 0 0-.708-.707zm232.708.708a.5.5 0 0 0 0-.708l-3.182-3.181a.501.501 0 0 0-.708.707L413.793 67l-2.829 2.828a.5.5 0 0 0 .708.707zM182.5 67v.5h232v-1h-232z"/><path stroke="#000" d="M181.5 63v8M415.5 63v8"/><path fill="#000" d="M150.647 581.854a.5.5 0 0 0 .707 0l3.182-3.182a.5.5 0 0 0-.707-.708L151 580.793l-2.828-2.829a.5.5 0 0 0-.707.708zm.706-483.708a.5.5 0 0 0-.707 0l-3.182 3.182a.502.502 0 0 0 .708.708L151 99.207l2.828 2.829a.5.5 0 0 0 .707-.708zM151 581.5h.5v-483h-1v483z"/><path stroke="#000" d="M147 582.5h8M147 97.5h8"/><path fill="#000" d="M942.646 576.854a.5.5 0 0 0 .707 0l3.182-3.182a.5.5 0 1 0-.707-.708L943 575.793l-2.828-2.829a.502.502 0 0 0-.708.708zm.708-474.708a.5.5 0 0 0-.707 0l-3.182 3.182a.5.5 0 0 0 .707.708l2.829-2.829 2.828 2.829a.5.5 0 0 0 .707-.708zM943 576.5h.5l.001-474h-1l-.001 474z"/><path stroke="#000" d="M939 577.5h8M939 101.5h8"/><path fill="#000" d="M705.146 71.646a.5.5 0 0 0 0 .708l3.182 3.182a.501.501 0 0 0 .708-.708L706.207 72l2.829-2.828a.5.5 0 0 0-.708-.707zm207.708.708a.5.5 0 0 0 0-.708l-3.182-3.181a.501.501 0 0 0-.708.707L911.793 72l-2.829 2.828a.5.5 0 0 0 .708.707zM705.5 72v.5h207v-1h-207z"/><path stroke="#000" d="M704.5 68v8M913.5 68v8"/><path fill="#000" d="M528.146 66.646a.5.5 0 0 0 0 .708l3.182 3.182a.501.501 0 0 0 .708-.708L529.207 67l2.829-2.828a.5.5 0 0 0-.708-.707zm63.708.708a.5.5 0 0 0 0-.708l-3.182-3.181a.501.501 0 0 0-.708.707L590.793 67l-2.829 2.828a.5.5 0 0 0 .708.707zM528.5 67v.5h63v-1h-63z"/><path stroke="#000" d="M527.5 63v8M592.5 63v8"/><path fill="#000" d="M770.233 616.805h13.455v.915h-13.455zm.09-9.75h13.29v.93h-13.29zm1.035 7.545h11.385v.9h-11.385zm4.98-9.06h1.125v11.7h-1.125zm5.22-1.05.6.87q-1.005.18-2.28.33-1.26.135-2.655.24-1.395.09-2.805.165-1.41.06-2.73.075 0-.195-.09-.45-.075-.27-.15-.435 1.305-.045 2.7-.105 1.41-.075 2.76-.165 1.365-.105 2.55-.24 1.2-.135 2.1-.285m-8.625 7.11v1.14h8.1v-1.14zm0-1.89v1.125h8.1v-1.125zm-1.095-.81h10.335v4.665h-10.335zm20.475-2.535q-.075-.24-.18-.555-.09-.315-.195-.615l1.275-.165q.075.435.21.99a19 19 0 0 0 .675 2.145q.345.975.87 1.95.525.96.99 1.62.165.21.33.405l.33.39-.615.84q-.27-.06-.72-.12-.435-.06-.96-.105-.51-.06-1.02-.105t-.915-.075l.09-1.005q.42.03.885.075.48.045.9.09.435.03.705.06a25 25 0 0 1-.675-1.095q-.36-.63-.705-1.32-.33-.705-.585-1.38-.24-.66-.405-1.17t-.285-.855m-5.49 1.17q1.26.15 2.43.21 1.185.06 2.235.03 1.065-.03 1.92-.12.6-.075 1.26-.18.675-.105 1.335-.27t1.245-.345l.135 1.17q-.525.165-1.155.285t-1.26.225-1.185.165q-1.425.165-3.195.18a41 41 0 0 1-3.735-.15zm2.31 4.785q-.33.54-.525 1.05-.18.495-.18 1.035 0 1.065.93 1.56t2.595.51q1.155.015 2.115-.09.975-.105 1.755-.285l-.06 1.2q-.69.12-1.65.225t-2.22.105q-1.425-.015-2.475-.36-1.035-.345-1.605-1.02-.57-.69-.57-1.71 0-.615.195-1.215.21-.615.525-1.275zm17.82-3.48q-.45 0-.795-.3-.345-.315-.345-.825t.345-.81q.345-.315.795-.315t.795.315q.345.3.345.81t-.345.825q-.345.3-.795.3m0 7.35q-.45 0-.795-.3-.345-.315-.345-.825 0-.525.345-.825.345-.315.795-.315t.795.315q.345.3.345.825 0 .51-.345.825-.345.3-.795.3m12.102-10.248q.671.005 1.342.255.672.25 1.225.831.555.576.89 1.572.336.996.336 2.498 0 1.454-.277 2.583-.272 1.125-.789 1.897a3.5 3.5 0 0 1-1.246 1.172q-.73.399-1.652.399-.915 0-1.635-.362a3.2 3.2 0 0 1-1.172-1.017 3.54 3.54 0 0 1-.58-1.519h1.299q.177.751.698 1.242.528.484 1.39.484 1.263 0 1.993-1.102.735-1.103.735-3.116h-.085a3.4 3.4 0 0 1-.709.772 3.12 3.12 0 0 1-1.976.676 3.3 3.3 0 0 1-1.721-.463 3.5 3.5 0 0 1-1.246-1.284q-.464-.82-.464-1.875 0-1 .448-1.832a3.45 3.45 0 0 1 1.268-1.332q.82-.495 1.928-.479m0 1.172q-.672 0-1.209.335-.533.33-.847.895a2.5 2.5 0 0 0-.309 1.241q0 .682.298 1.241.304.554.826.885.527.324 1.198.325.507 0 .943-.198.437-.202.762-.548.33-.352.517-.794.186-.447.186-.932 0-.64-.309-1.199a2.45 2.45 0 0 0-.842-.905 2.18 2.18 0 0 0-1.214-.346m9.445 10.035q-1.204 0-2.05-.655-.847-.66-1.295-1.912-.447-1.257-.447-3.037 0-1.768.447-3.02.453-1.257 1.3-1.917.852-.666 2.045-.666t2.041.666q.852.66 1.299 1.917.453 1.252.453 3.02 0 1.78-.447 3.037-.448 1.251-1.295 1.912-.846.655-2.051.655m0-1.172q1.194 0 1.854-1.15t.661-3.282q0-1.416-.304-2.413-.298-.996-.863-1.518a1.9 1.9 0 0 0-1.348-.522q-1.182 0-1.848 1.167-.666 1.162-.666 3.286 0 1.418.299 2.408.297.991.857 1.508.565.516 1.358.516m13.36 4.262q-.91 0-1.566-.235a3.3 3.3 0 0 1-1.092-.607 3.3 3.3 0 0 1-.687-.799l1.001-.703q.171.223.432.511.261.294.713.506.459.219 1.199.219.99 0 1.635-.48.645-.479.645-1.502v-1.662h-.107a7 7 0 0 1-.394.554q-.25.325-.724.581-.47.25-1.268.25a3.4 3.4 0 0 1-1.779-.469q-.783-.468-1.241-1.363-.453-.895-.453-2.174 0-1.256.442-2.189.442-.937 1.23-1.449.789-.516 1.822-.516.799 0 1.268.266.474.261.724.597.256.33.394.543h.128v-1.3h1.215v8.416q0 1.055-.48 1.716a2.73 2.73 0 0 1-1.278.974 4.8 4.8 0 0 1-1.779.315m-.043-4.496q.757 0 1.279-.346t.793-.996q.272-.65.272-1.556 0-.884-.266-1.561-.267-.676-.789-1.06-.521-.383-1.289-.383-.798 0-1.331.405a2.46 2.46 0 0 0-.794 1.086 4.2 4.2 0 0 0-.261 1.513q0 .852.266 1.508.272.65.799 1.022.533.368 1.321.368M713.425 629.3q0-1.47.36-2.745.375-1.275 1.05-2.37.675-1.11 1.575-2.025l.9.465q-.855.885-1.485 1.935a9.2 9.2 0 0 0-.975 2.22 9.3 9.3 0 0 0-.33 2.52q0 1.335.33 2.52.345 1.185.975 2.22t1.485 1.935l-.9.465q-.9-.93-1.575-2.025a9.7 9.7 0 0 1-1.05-2.37 10.2 10.2 0 0 1-.36-2.745m17.715-4.305q-.03.075-.075.21t-.075.285l-.045.21q-.135.885-.315 1.86-.18.96-.495 1.92a8.1 8.1 0 0 1-.855 1.815q-.915 1.44-2.4 2.55-1.47 1.095-3.285 1.68l-1.02-1.035q1.11-.3 2.145-.825a9.7 9.7 0 0 0 1.935-1.275q.885-.765 1.5-1.71.435-.675.72-1.5t.45-1.725q.18-.915.255-1.8h-8.28v3.435q.015.255.045.525h-1.365q.03-.27.045-.51t.015-.45v-3.195q0-.255-.015-.495-.015-.255-.045-.51.315.015.705.03.405.015.9.015h7.695q.255 0 .495-.015.255-.03.45-.075zm9.105 1.365q.105.225.27.675.165.435.345.93.195.495.345.945.15.435.225.69l-1.11.39q-.06-.255-.21-.69a21 21 0 0 0-.315-.93q-.18-.51-.36-.945l-.285-.69zm5.43.84q-.075.225-.135.42-.045.18-.09.33-.3 1.23-.81 2.415-.51 1.17-1.32 2.19-1.035 1.32-2.34 2.205-1.29.885-2.55 1.365l-.99-1.005q.87-.27 1.755-.72.9-.45 1.695-1.08a8.6 8.6 0 0 0 1.425-1.395q.54-.66.96-1.485.435-.825.72-1.755t.39-1.89zm-8.91-.09q.12.255.3.69t.375.96q.21.51.39.99.195.465.3.75l-1.14.42q-.09-.285-.27-.765-.165-.495-.375-1.02t-.405-.96q-.18-.435-.285-.63zm15.75-3.63q.33.18.78.465t.93.6.885.6q.42.27.66.45l-.705 1.02q-.27-.195-.675-.48t-.87-.585q-.465-.315-.915-.585-.435-.285-.765-.48zm-2.25 10.725q.825-.15 1.695-.39.87-.255 1.725-.585.855-.345 1.605-.78 1.245-.72 2.31-1.59t1.92-1.86 1.455-2.04l.72 1.23q-.975 1.515-2.475 2.91-1.485 1.395-3.285 2.46-.765.435-1.665.81-.885.36-1.755.63-.855.27-1.56.42zm-.015-7.35q.33.165.795.45.465.27.945.57.48.285.9.555t.66.45l-.69 1.05q-.285-.21-.705-.48-.405-.285-.87-.57-.465-.3-.915-.57t-.78-.435zm18.525-1.035q.045.195.09.435.06.24.12.525.09.315.255.975.18.645.42 1.485t.48 1.74q.255.885.48 1.71.24.825.405 1.44.18.6.255.87.06.135.105.315.06.195.12.375.06.195.105.33l-1.275.33q-.03-.255-.09-.54a4 4 0 0 0-.135-.555l-.255-.885q-.165-.63-.405-1.47l-.465-1.74q-.24-.9-.48-1.74a93 93 0 0 0-.405-1.47q-.165-.645-.255-.915-.075-.285-.165-.51a2.4 2.4 0 0 0-.195-.39zm7.2 2.055q-.225.48-.615 1.08-.375.6-.84 1.215-.45.615-.915 1.17-.45.54-.825.915l-1.065-.525q.48-.405.975-.945.495-.555.93-1.125t.675-1.02q-.135.015-.63.12-.48.105-1.2.255-.705.135-1.545.3t-1.695.345l-1.59.315q-.75.15-1.305.27l-.765.15-.3-1.14.6-.06q.3-.045.645-.105l.615-.12q.48-.09 1.155-.21.69-.135 1.47-.27l1.56-.3q.795-.15 1.485-.285t1.185-.225q.495-.105.675-.15.135-.03.285-.075l.285-.105zm3.555.63q.225.015.555.045l.72.03h9.03q.57 0 .975-.03t.645-.045v1.47l-.675-.045q-.435-.03-.93-.03h-8.235q-.615 0-1.17.03-.555.015-.915.045zm25.68-2.46q-.255.165-.54.315t-.615.315q-.375.21-.93.48a45 45 0 0 0-2.445 1.29q-.63.36-1.185.72-1.05.675-1.65 1.425-.585.75-.585 1.605 0 .93.885 1.485.9.54 2.67.54.825 0 1.71-.06.885-.075 1.695-.195.825-.12 1.395-.255v1.335q-.555.105-1.32.18-.75.09-1.62.135-.87.06-1.8.06-1.065 0-1.95-.18a5.2 5.2 0 0 1-1.545-.525 2.7 2.7 0 0 1-1.005-.945q-.36-.6-.36-1.44 0-.825.345-1.515.345-.705.99-1.335t1.53-1.215q.57-.39 1.215-.75a94 94 0 0 1 2.46-1.35l.93-.48q.315-.195.57-.345.255-.165.495-.36zm-7.59-2.715q.345.96.735 1.875.405.915.81 1.71.42.795.765 1.41l-1.035.615q-.375-.615-.795-1.455t-.84-1.785-.825-1.875zm21.66-.18q.285.39.63.975.345.57.57 1.035l-.81.36q-.225-.465-.555-1.035t-.63-1.005zm1.77-.435q.195.285.42.645.24.36.45.72.225.345.36.63l-.81.36q-.24-.495-.57-1.035-.33-.555-.645-.975zm-4.92.72-.045.3-.03.405q-.015.21-.015.375v9.93q0 .6-.3.9t-.99.3a19 19 0 0 1-1.455-.06q-.375-.03-.675-.045l-.105-1.2q.495.09.96.135t.765.045.435-.135q.135-.15.15-.435v-9.45q0-.24-.045-.57-.03-.33-.06-.495zm-6.75 2.535.615.06q.3.015.66.015H820q.27 0 .6-.015.345-.03.63-.06v1.245q-.3-.015-.63-.015-.315-.015-.585-.015h-9.36q-.33 0-.66.015-.315 0-.615.03zm3.45 3.525q-.24.48-.6 1.05-.345.57-.765 1.155-.405.57-.81 1.065-.39.495-.705.84l-1.035-.69q.375-.345.78-.825.405-.495.795-1.035.405-.54.735-1.065.33-.54.555-1.005zm6.27-.495q.3.36.645.855.36.495.72 1.065.375.555.69 1.08.315.51.54.915l-1.11.615q-.21-.45-.525-.99-.3-.54-.645-1.095t-.705-1.05q-.345-.495-.63-.855zm11.76 5.685q.045-.18.06-.39.03-.225.03-.45v-8.985a7 7 0 0 0-.075-1.11h1.38q0 .09-.03.39t-.03.72v8.655a11.85 11.85 0 0 0 3.045-2.13q.765-.72 1.335-1.56l.705 1.02q-.645.87-1.515 1.665-.855.795-1.785 1.425T832.165 635q-.18.105-.315.195-.12.09-.195.15zm-6.87-.075a6.6 6.6 0 0 0 1.605-1.635q.66-.96 1.005-2.055.165-.51.255-1.275t.135-1.62q.045-.87.045-1.68.015-.825.015-1.455 0-.33-.03-.585-.03-.27-.075-.51h1.38q-.015.09-.03.27-.015.165-.03.375t-.015.435q0 .63-.015 1.485-.015.84-.075 1.77-.045.915-.135 1.74a7.2 7.2 0 0 1-.24 1.38q-.33 1.2-1.035 2.265a8.3 8.3 0 0 1-1.635 1.86zm19.065-.93v-8.73q0-.315-.03-.765t-.09-.795h1.47q-.03.33-.075.78-.03.45-.03.78v4.98q.015.9.015 1.695v2.61q.015.315.045.645.03.315.045.57h-1.455q.06-.36.075-.855.03-.495.03-.915m.99-6.36q.735.225 1.62.54.9.3 1.83.645t1.755.705q.84.345 1.455.66l-.51 1.275q-.645-.36-1.455-.705-.81-.36-1.665-.705-.84-.345-1.635-.615-.78-.285-1.395-.465zm15.855-4.185q-.09.45-.24 1.065-.135.6-.45 1.365-.27.675-.675 1.395-.39.72-.84 1.305.285-.18.645-.3.36-.135.735-.195.39-.06.705-.06.87 0 1.47.495.6.48.6 1.41v1.665l.03.945q.015.465.015.81h-1.155q.015-.3.03-.705t.015-.855q.015-.45 0-.855v-.69q0-.66-.405-.96-.39-.315-.99-.315-.705 0-1.395.315-.675.3-1.185.78-.33.315-.66.72-.315.39-.705.84l-1.02-.75q1.08-1.05 1.8-1.965t1.17-1.695q.45-.795.705-1.425.24-.63.39-1.26.15-.645.18-1.185zm-5.13 1.62q.6.075 1.305.12t1.23.045q1.005 0 2.16-.045 1.155-.06 2.325-.165 1.185-.105 2.25-.3l-.015 1.11q-.78.135-1.665.225-.885.075-1.8.135-.915.045-1.77.075-.84.015-1.56.015h-.735l-.855-.03-.87-.06zm11.46 3.63a4 4 0 0 0-.435.135q-.225.075-.465.165-.225.09-.435.18-.78.3-1.815.735t-2.115 1.005q-.75.375-1.32.795-.57.405-.9.855-.33.435-.33.96 0 .435.195.705.21.27.585.42.375.135.855.18.495.045 1.08.045.87 0 1.98-.09 1.125-.105 2.115-.27l-.03 1.2q-.57.075-1.29.135-.705.06-1.44.09-.72.045-1.38.045-1.065 0-1.95-.195-.87-.195-1.395-.69t-.525-1.41q0-.675.315-1.23.315-.57.84-1.035.54-.465 1.185-.855.645-.405 1.32-.735.72-.39 1.35-.675.645-.285 1.215-.525t1.065-.48l.63-.285q.3-.135.6-.3zm6.42-2.865h5.82v.96h-5.82zm-2.07 2.205h8.535v1.005h-8.535zm.885 6.915h7.995v.99h-7.995zm-.6-3.705h9.375v5.28h-1.14v-4.29h-7.14v4.29h-1.095zm4.575-7.62q-.645.735-1.65 1.5t-2.205 1.44q-1.185.675-2.43 1.185-.06-.135-.165-.3t-.225-.33-.225-.27q1.275-.48 2.475-1.155 1.215-.69 2.205-1.47t1.62-1.545h1.08q.855.87 1.935 1.65 1.095.765 2.295 1.38 1.215.6 2.37.975-.18.18-.36.45t-.315.51q-.825-.315-1.725-.75-.9-.45-1.755-.975-.855-.54-1.62-1.125-.75-.585-1.305-1.17m3.33 4.41h.18l.21-.06.84.3q-.39.795-.915 1.68-.51.885-1.005 1.65l-1.065-.375q.315-.495.645-1.05.33-.57.63-1.11t.48-.9zm9.81-4.62q-.03.24-.06.63-.03.375-.03.795v4.59l-1.11-.6v-3.99q0-.45-.03-.81-.03-.375-.09-.615zm5.25 1.515q.33.225.735.57.42.33.84.72t.795.78q.375.375.63.69l-.84.855q-.36-.48-.9-1.02-.525-.54-1.065-1.02-.54-.495-.96-.795zm-9.45.48q.675.105 1.245.165.57.045 1.125.045 1.08 0 2.28-.165 1.2-.18 2.34-.48v1.155q-.765.165-1.59.285-.81.12-1.575.195a17.4 17.4 0 0 1-2.49.03q-.615-.045-1.275-.12zm3.735 6.765q-.015.15-.03.42l-.03.555q-.015.285-.015.525 0 .3.075.525t.3.36q.24.135.72.21.495.06 1.305.06.42 0 .9-.03.495-.045.93-.105.45-.06.72-.135.585-.165.915-.54.33-.39.33-1.125 0-.45-.03-.855-.015-.405-.06-.84l1.275.39q.015.3.015.555v.51q.015.24-.015.555-.03.705-.24 1.185-.195.465-.615.765-.405.3-1.095.48-.33.09-.87.15-.54.075-1.14.105-.6.045-1.095.045-.9 0-1.515-.09-.615-.075-1.005-.24-.375-.15-.585-.375-.195-.225-.27-.495-.075-.285-.075-.63 0-.405.015-.795.03-.39.045-.75zm.75-1.995q0 .51-.12 1.08-.105.555-.375 1.05t-.735.81-1.185.315q-.42 0-.87-.225-.45-.24-.765-.75-.3-.525-.3-1.395 0-.765.3-1.44.315-.675.87-1.095t1.29-.42q.915 0 1.395.585.495.585.495 1.485m-2.295 2.145q.465 0 .72-.3.27-.315.375-.795.12-.495.12-.99 0-.54-.24-.84a.76.76 0 0 0-.63-.315q-.375 0-.69.255a1.7 1.7 0 0 0-.51.675 2.5 2.5 0 0 0-.18.99q0 .63.315.975t.72.345m16.005-2.715q0 1.455-.375 2.745-.36 1.275-1.035 2.37t-1.575 2.025l-.9-.465q.855-.9 1.485-1.935t.96-2.22q.345-1.185.345-2.52 0-1.35-.345-2.52-.33-1.185-.96-2.22-.63-1.05-1.485-1.935l.9-.465q.9.915 1.575 2.025.675 1.095 1.035 2.37.375 1.275.375 2.745M500.683 31.765h10.29v8.175h-1.08v-7.275h-8.16v7.275h-1.05zm-1.515 7.665h13.305v.99h-13.305zm3.285-4.215h6.675v.78h-6.675zm2.685 3.255h1.185q-.15.915-.42 1.695t-.75 1.425q-.465.63-1.215 1.14-.75.495-1.86.855-1.11.375-2.655.615a2.5 2.5 0 0 0-.135-.315q-.09-.18-.195-.36-.105-.165-.21-.27 1.455-.195 2.475-.495 1.02-.315 1.695-.735t1.08-.945q.42-.54.645-1.185.24-.66.36-1.425m1.56 1.305a4.5 4.5 0 0 0 2.13 2.385q1.515.795 3.975 1.02-.135.12-.27.3t-.255.375q-.105.21-.18.375-1.71-.225-2.985-.735-1.26-.495-2.115-1.365-.84-.87-1.35-2.175zm-1.38-6.72h.9V38.2h-.9zm2.61.135.795.375q-.3.42-.615.84t-.585.735l-.63-.315q.255-.345.555-.81.3-.48.48-.825m-5.085.405.69-.345q.33.33.615.765.285.42.42.75l-.735.405q-.105-.36-.39-.78-.285-.435-.6-.795m2.865 2.685.54-.495q.48.27 1.005.615.54.345 1.02.69t.795.63l-.555.57q-.3-.285-.78-.645-.465-.36-1.005-.72-.525-.36-1.02-.645m-.345-5.895 1.215.15q-.225.495-.42.96-.18.45-.345.78l-1.095-.135q.18-.375.36-.87.195-.51.285-.885m-.345 5.07.705.285q-.33.54-.825 1.08t-1.065 1.005q-.555.45-1.095.735-.105-.165-.285-.36a1.7 1.7 0 0 0-.315-.3q.54-.24 1.08-.63t1.02-.855q.48-.48.78-.96m14.835-4.155h7.38v1.08h-7.38zm4.395 4.47h1.14v6.99q0 .525-.15.795-.15.285-.525.435-.39.12-1.065.135-.66.03-1.77.03a3 3 0 0 0-.135-.54q-.105-.315-.24-.57l1.02.03q.48.015.84 0h.495q.21-.015.3-.075.09-.075.09-.255zm-5.055-.33h8.46v1.08h-8.46zm-2.985 1.17.99-.99.12.06v8.565h-1.11zm1.725-3 1.065.39q-.57.945-1.32 1.89t-1.575 1.77q-.81.81-1.605 1.455-.09-.12-.24-.3-.135-.18-.285-.36t-.27-.285q.78-.555 1.545-1.29.78-.735 1.47-1.575.705-.84 1.215-1.695m-.6-3.225 1.08.45q-.495.645-1.155 1.335-.645.675-1.365 1.305-.705.615-1.38 1.095a5 5 0 0 0-.195-.285q-.105-.18-.24-.345-.12-.18-.225-.27.63-.435 1.275-.99.66-.555 1.23-1.155.585-.6.975-1.14m13.68 2.34q1.575.18 3 .21 1.44.03 2.595-.075.915-.09 1.815-.27.915-.195 1.725-.45l.165 1.08q-.735.21-1.65.39-.9.18-1.8.27-1.14.105-2.655.105-1.5-.015-3.12-.165zm-.285 3.075q1.275.135 2.52.18 1.245.03 2.355-.015t1.98-.15q1.08-.12 1.965-.315t1.485-.39l.18 1.125q-.615.165-1.44.33-.825.15-1.77.27-.93.105-2.115.165-1.185.045-2.505.03-1.305-.03-2.595-.105zm5.13-3.27q-.09-.345-.21-.675-.105-.345-.21-.66l1.275-.165q.075.63.24 1.32a29 29 0 0 0 .735 2.505q.21.585.495 1.245t.63 1.305.735 1.23q.12.165.255.33.15.15.3.315l-.615.915q-.42-.12-.99-.195-.57-.09-1.17-.15-.6-.075-1.125-.135l.105-.915q.6.06 1.245.135t1.005.12q-.63-.975-1.11-2.01-.465-1.035-.795-1.95-.18-.51-.33-.945l-.255-.855q-.105-.405-.21-.765m-2.955 6.495q-.27.39-.45.795t-.18.9q0 .93.84 1.395.855.465 2.625.465 1.05 0 1.905-.075t1.665-.24l-.045 1.2q-.78.12-1.665.18-.885.075-1.845.075-1.47 0-2.505-.3-1.02-.3-1.56-.915-.525-.615-.54-1.575-.015-.645.15-1.14.18-.51.435-1.005zm17.925-4.185q-.45 0-.795-.3-.345-.315-.345-.825t.345-.81q.345-.315.795-.315t.795.315q.345.3.345.81t-.345.825q-.345.3-.795.3m0 7.35q-.45 0-.795-.3-.345-.315-.345-.825 0-.525.345-.825.345-.315.795-.315t.795.315q.345.3.345.825 0 .51-.345.825-.345.3-.795.3m8.629.81v-.959l3.601-3.942q.634-.692 1.044-1.203.41-.517.608-.97.202-.458.202-.959 0-.575-.277-.996a1.8 1.8 0 0 0-.746-.65 2.4 2.4 0 0 0-1.065-.229q-.629 0-1.097.261-.463.255-.72.72-.25.462-.25 1.086H559.5q0-.96.442-1.683.442-.725 1.204-1.13a3.6 3.6 0 0 1 1.72-.404q.96 0 1.7.405.74.404 1.161 1.092.42.687.421 1.528 0 .602-.219 1.178-.213.57-.745 1.273-.528.698-1.465 1.704l-2.451 2.62v.086h5.071V43zm12.768.15q-1.054 0-1.88-.363-.82-.362-1.305-1.007a2.7 2.7 0 0 1-.522-1.507h1.342q.043.527.363.91.319.379.836.587t1.145.207q.703 0 1.247-.245.543-.244.852-.682.309-.435.309-1.012 0-.6-.298-1.06-.298-.463-.874-.724t-1.406-.261h-.874V36.82h.874q.65 0 1.14-.234.495-.236.772-.66.282-.427.282-1.002 0-.555-.245-.964a1.67 1.67 0 0 0-.692-.64q-.442-.228-1.044-.229-.565 0-1.066.208-.495.203-.809.591-.314.384-.341.927h-1.279a2.6 2.6 0 0 1 .517-1.502q.485-.65 1.268-1.012a4.1 4.1 0 0 1 1.731-.362q1.013 0 1.737.41.725.405 1.113 1.07.389.667.389 1.439 0 .921-.485 1.571a2.46 2.46 0 0 1-1.305.9v.086q1.033.17 1.614.879.58.703.581 1.741 0 .89-.485 1.598-.48.704-1.311 1.108-.83.405-1.891.405m6.466-.065a.93.93 0 0 1-.677-.282.92.92 0 0 1-.282-.677q0-.393.282-.676a.93.93 0 0 1 .677-.282q.394 0 .676.282a.92.92 0 0 1 .283.676.9.9 0 0 1-.134.48 1 1 0 0 1-.346.351.9.9 0 0 1-.479.128m2.937-2.322v-1.087l4.794-7.585h.789v1.683h-.533l-3.622 5.732v.085h6.456v1.172zM586.763 43V32.091h1.258V43zm8.985 0v-8.182h1.215v1.279h.106a2.06 2.06 0 0 1 .826-1.018q.57-.367 1.369-.367.81 0 1.348.367a2.4 2.4 0 0 1 .846 1.018h.086q.313-.635.943-1.007.628-.378 1.507-.378 1.097 0 1.795.687.698.681.698 2.125V43h-1.257v-5.476q0-.906-.496-1.294a1.83 1.83 0 0 0-1.166-.39q-.863 0-1.337.523-.474.516-.474 1.31V43h-1.279v-5.604q0-.698-.452-1.124-.453-.43-1.167-.431-.49 0-.916.26a1.97 1.97 0 0 0-.682.725q-.255.46-.256 1.06V43zm13.037 0v-8.182H610v1.279h.106a2.06 2.06 0 0 1 .826-1.018q.57-.367 1.369-.367.81 0 1.348.367.543.362.847 1.018h.085q.314-.635.943-1.007.628-.378 1.507-.378 1.098 0 1.795.687.698.681.698 2.125V43h-1.257v-5.476q0-.906-.496-1.294a1.83 1.83 0 0 0-1.166-.39q-.863 0-1.337.523-.474.516-.474 1.31V43h-1.279v-5.604q0-.698-.452-1.124-.453-.43-1.167-.431-.49 0-.916.26a1.97 1.97 0 0 0-.682.725q-.255.46-.256 1.06V43zM255.127 30.415h.975V44.2h-.975zm-1.965 2.835h4.56v1.005h-3.69v6.855h-.87zm4.11 0h.855v6.615q0 .3-.06.54a.62.62 0 0 1-.255.36 1 1 0 0 1-.465.165q-.27.03-.66.03-.015-.195-.105-.48a2.5 2.5 0 0 0-.21-.495q.285.015.48.015h.285q.135-.015.135-.165zm1.365-2.07h7.815v.945h-7.815zm1.755 2.895v1.74h4.245v-1.74zm-.99-.885h6.24v3.51h-6.24zm-.165 7.125h6.63v.915h-6.63zm-.015 2.46h6.66v.915h-6.66zm-.495-4.92h7.53v6.3h-1.05V38.77h-5.46v5.43h-1.02zm3.165.48h.975v5.07h-.975zm12.78-3.495q-.45 0-.795-.3-.345-.315-.345-.825t.345-.81q.345-.315.795-.315t.795.315q.345.3.345.81t-.345.825q-.345.3-.795.3m0 7.35q-.45 0-.795-.3-.345-.315-.345-.825 0-.525.345-.825.345-.315.795-.315t.795.315q.345.3.345.825 0 .51-.345.825-.345.3-.795.3m12.124.96q-1.098 0-1.939-.39-.837-.394-1.305-1.081a2.7 2.7 0 0 1-.463-1.577 2.9 2.9 0 0 1 .271-1.278q.277-.591.757-.986a2.3 2.3 0 0 1 1.081-.506v-.063a2.1 2.1 0 0 1-1.247-.88 2.67 2.67 0 0 1-.458-1.55 2.64 2.64 0 0 1 .421-1.486 2.96 2.96 0 0 1 1.172-1.033q.752-.378 1.71-.378.948 0 1.694.378t1.172 1.033q.43.655.437 1.486a2.7 2.7 0 0 1-.475 1.55 2.1 2.1 0 0 1-1.23.88v.063q.591.107 1.065.506.474.395.757.986.282.586.287 1.278a2.75 2.75 0 0 1-.479 1.577q-.47.688-1.305 1.081-.831.39-1.923.39m0-1.173q.741 0 1.278-.24a1.9 1.9 0 0 0 .831-.676q.293-.437.299-1.023a1.96 1.96 0 0 0-.32-1.092 2.17 2.17 0 0 0-.858-.745 2.7 2.7 0 0 0-1.23-.272q-.698 0-1.247.272-.543.271-.857.745-.309.474-.304 1.092-.005.586.283 1.023.293.437.836.677t1.289.24m0-5.177q.586 0 1.039-.235.458-.234.719-.655.261-.42.266-.985-.004-.555-.261-.964a1.7 1.7 0 0 0-.708-.64 2.3 2.3 0 0 0-1.055-.229 2.4 2.4 0 0 0-1.071.23q-.457.223-.708.639a1.78 1.78 0 0 0-.245.964q-.006.564.25.985.261.421.719.655t1.055.235m5.749 6.2v-.959l3.601-3.942q.633-.692 1.044-1.203.41-.517.607-.97.202-.458.202-.959 0-.575-.277-.996a1.8 1.8 0 0 0-.745-.65 2.4 2.4 0 0 0-1.066-.229q-.629 0-1.097.261-.464.255-.719.72-.25.462-.25 1.086h-1.258q0-.96.443-1.683a3.07 3.07 0 0 1 1.203-1.13 3.6 3.6 0 0 1 1.721-.404q.958 0 1.699.405.741.404 1.161 1.092.421.687.421 1.528 0 .602-.218 1.178-.213.57-.746 1.273-.528.698-1.465 1.704l-2.45 2.62v.086h5.071V43zm10.019.085a.92.92 0 0 1-.676-.282.92.92 0 0 1-.282-.677q0-.393.282-.676a.92.92 0 0 1 .676-.282q.395 0 .677.282a.92.92 0 0 1 .282.676.997.997 0 0 1-.479.831.9.9 0 0 1-.48.128m6.383.064a3.75 3.75 0 0 1-1.689-.373q-.75-.373-1.203-1.022a2.8 2.8 0 0 1-.496-1.481h1.279q.074.74.671 1.225.602.48 1.438.48.67 0 1.193-.315.528-.315.826-.863.303-.554.303-1.252 0-.714-.314-1.273a2.3 2.3 0 0 0-.852-.89 2.4 2.4 0 0 0-1.241-.33 3.4 3.4 0 0 0-1.028.155 2.9 2.9 0 0 0-.868.4l-1.236-.15.66-5.37h5.668v1.173h-4.56l-.383 3.217h.064q.335-.266.841-.442a3.2 3.2 0 0 1 1.055-.176q1 0 1.784.48.789.474 1.236 1.3.453.825.453 1.885 0 1.044-.469 1.864a3.43 3.43 0 0 1-1.278 1.29q-.815.468-1.854.468m9.957-.149v-8.182h1.214v1.279h.107q.256-.655.826-1.018.57-.367 1.369-.367.81 0 1.347.367.543.362.847 1.018h.085q.315-.635.943-1.007.629-.378 1.508-.378 1.097 0 1.795.687.698.681.698 2.125V43h-1.257v-5.476q0-.906-.496-1.294a1.83 1.83 0 0 0-1.166-.39q-.863 0-1.337.523-.474.516-.474 1.31V43h-1.279v-5.604q0-.698-.453-1.124-.453-.43-1.166-.431-.49 0-.916.26a1.97 1.97 0 0 0-.682.725 2.13 2.13 0 0 0-.256 1.06V43zm13.037 0v-8.182h1.215v1.279h.106a2.06 2.06 0 0 1 .826-1.018q.57-.367 1.369-.367.81 0 1.347.367.544.362.847 1.018h.086q.314-.635.942-1.007.629-.378 1.508-.378 1.097 0 1.795.687.698.681.698 2.125V43h-1.257v-5.476q0-.906-.496-1.294a1.83 1.83 0 0 0-1.166-.39q-.863 0-1.337.523-.474.516-.474 1.31V43h-1.279v-5.604q0-.698-.453-1.124-.452-.43-1.166-.431-.49 0-.916.26a1.97 1.97 0 0 0-.682.725 2.13 2.13 0 0 0-.256 1.06V43zM766.288 35.415h.975V49.2h-.975zm-1.965 2.835h4.56v1.005h-3.69v6.855h-.87zm4.11 0h.855v6.615q0 .3-.06.54a.62.62 0 0 1-.255.36 1 1 0 0 1-.465.165q-.27.03-.66.03-.015-.195-.105-.48a2.5 2.5 0 0 0-.21-.495q.285.015.48.015h.285q.135-.015.135-.165zm1.365-2.07h7.815v.945h-7.815zm1.755 2.895v1.74h4.245v-1.74zm-.99-.885h6.24v3.51h-6.24zm-.165 7.125h6.63v.915h-6.63zm-.015 2.46h6.66v.915h-6.66zm-.495-4.92h7.53v6.3h-1.05V43.77h-5.46v5.43h-1.02zm3.165.48h.975v5.07h-.975zm12.78-3.495q-.45 0-.795-.3-.345-.315-.345-.825t.345-.81q.345-.315.795-.315t.795.315q.345.3.345.81t-.345.825q-.345.3-.795.3m0 7.35q-.45 0-.795-.3-.345-.315-.345-.825 0-.525.345-.825.345-.315.795-.315t.795.315q.345.3.345.825 0 .51-.345.825-.345.3-.795.3m8.971.81 4.879-9.652v-.085h-5.625V37.09h6.989v1.236L796.189 48zm8.228 0v-.959l3.601-3.942q.634-.692 1.044-1.203.41-.517.607-.97.203-.458.203-.959 0-.575-.277-.996a1.8 1.8 0 0 0-.746-.65 2.4 2.4 0 0 0-1.065-.229q-.628 0-1.098.261a1.8 1.8 0 0 0-.719.72q-.25.462-.25 1.086h-1.257q0-.96.442-1.683.442-.725 1.204-1.13a3.6 3.6 0 0 1 1.72-.404q.959 0 1.699.405.74.404 1.162 1.092.42.687.42 1.528 0 .602-.218 1.178-.213.57-.746 1.273a23 23 0 0 1-1.465 1.704l-2.45 2.62v.086h5.071V48zm10.02.085a.92.92 0 0 1-.677-.282.92.92 0 0 1-.282-.677q0-.393.282-.676a.92.92 0 0 1 .677-.282q.394 0 .676.282a.92.92 0 0 1 .282.676.9.9 0 0 1-.133.48 1 1 0 0 1-.346.351.9.9 0 0 1-.479.128m6.563-11.143a3.9 3.9 0 0 1 1.343.255q.671.25 1.225.831.554.576.889 1.572.336.996.336 2.498 0 1.454-.277 2.584-.272 1.123-.788 1.896a3.5 3.5 0 0 1-1.247 1.172q-.73.4-1.651.4-.916 0-1.635-.363a3.2 3.2 0 0 1-1.172-1.017 3.54 3.54 0 0 1-.581-1.519h1.3q.176.752.698 1.242.527.484 1.39.484 1.263 0 1.992-1.102.735-1.102.735-3.117h-.085a3.4 3.4 0 0 1-.708.773 3.13 3.13 0 0 1-1.977.676 3.3 3.3 0 0 1-1.72-.463 3.5 3.5 0 0 1-1.247-1.284q-.463-.82-.463-1.875 0-1 .447-1.832a3.46 3.46 0 0 1 1.268-1.332q.82-.495 1.928-.48m0 1.172q-.67 0-1.209.335a2.4 2.4 0 0 0-.847.895 2.5 2.5 0 0 0-.309 1.241q0 .682.299 1.241.303.554.825.885a2.24 2.24 0 0 0 1.199.325q.505 0 .943-.198.437-.202.761-.548a2.6 2.6 0 0 0 .517-.794q.187-.447.187-.932a2.44 2.44 0 0 0-.309-1.199 2.46 2.46 0 0 0-.842-.905 2.2 2.2 0 0 0-1.215-.346M829.743 48v-8.182h1.214v1.279h.107q.255-.655.826-1.018.57-.367 1.368-.367.81 0 1.348.367.543.362.847 1.018h.085q.315-.635.943-1.007.629-.378 1.508-.378 1.096 0 1.795.687.697.681.697 2.125V48h-1.257v-5.476q0-.906-.495-1.294a1.83 1.83 0 0 0-1.167-.39q-.862 0-1.337.523-.474.516-.474 1.31V48h-1.278v-5.604q0-.698-.453-1.124-.452-.43-1.166-.431-.49 0-.917.26-.42.262-.681.725a2.13 2.13 0 0 0-.256 1.06V48zm13.037 0v-8.182h1.214v1.279h.107q.255-.655.826-1.018.57-.367 1.369-.367.81 0 1.347.367.543.362.847 1.018h.085q.315-.635.943-1.007.629-.378 1.508-.378 1.097 0 1.795.687.698.681.698 2.125V48h-1.258v-5.476q0-.906-.495-1.294a1.83 1.83 0 0 0-1.166-.39q-.863 0-1.337.523-.475.516-.475 1.31V48h-1.278v-5.604q0-.698-.453-1.124-.453-.43-1.166-.431-.49 0-.916.26a1.97 1.97 0 0 0-.682.725 2.13 2.13 0 0 0-.256 1.06V48zM34.071 334.825h13.035v.99H34.071zm5.865-1.44h1.155v1.92h-1.155zm-5.19 7.305h11.145v.96h-10.05v5.55h-1.095zm10.68 0h1.125v5.16q0 .465-.135.735-.12.27-.48.405t-.99.15q-.615.03-1.56.03-.03-.24-.135-.54t-.225-.525q.735.015 1.305.015.585.015.765 0 .195-.015.255-.075.075-.06.075-.21zm-7.68 1.935h.99v3.945h-.99zm.525 0h5.19v3.18h-5.19v-.825h4.185v-1.53h-4.185zm-.63-5.145v1.44h5.88v-1.44zm-1.08-.825h8.085v3.105h-8.085zm19.395-1.29q-.075-.24-.18-.555-.09-.315-.195-.615l1.275-.165q.075.435.21.99a19 19 0 0 0 .675 2.145q.345.975.87 1.95.525.96.99 1.62.165.21.33.405l.33.39-.615.84q-.27-.06-.72-.12-.435-.06-.96-.105-.51-.06-1.02-.105t-.915-.075l.09-1.005q.42.03.885.075.48.045.9.09.435.03.705.06a25 25 0 0 1-.675-1.095q-.36-.63-.705-1.32-.33-.705-.585-1.38-.24-.66-.405-1.17t-.285-.855m-5.49 1.17q1.26.15 2.43.21 1.185.06 2.235.03 1.065-.03 1.92-.12.6-.075 1.26-.18.675-.105 1.335-.27t1.245-.345l.135 1.17q-.525.165-1.155.285t-1.26.225-1.185.165q-1.425.165-3.195.18a41 41 0 0 1-3.735-.15zm2.31 4.785q-.33.54-.525 1.05-.18.495-.18 1.035 0 1.065.93 1.56t2.595.51q1.155.015 2.115-.09.975-.105 1.755-.285l-.06 1.2q-.69.12-1.65.225t-2.22.105q-1.425-.015-2.475-.36-1.035-.345-1.605-1.02-.57-.69-.57-1.71 0-.615.195-1.215.21-.615.525-1.275zm17.82-3.48q-.45 0-.795-.3-.345-.315-.345-.825t.345-.81q.345-.315.795-.315t.795.315q.345.3.345.81t-.345.825q-.345.3-.795.3m0 7.35q-.45 0-.795-.3-.345-.315-.345-.825 0-.525.345-.825.345-.315.795-.315t.795.315q.345.3.345.825 0 .51-.345.825-.345.3-.795.3m12.465-10.099V346H81.74v-9.524h-.064l-2.664 1.768v-1.342l2.728-1.811zM86.539 346l4.88-9.652v-.085h-5.626v-1.172h6.989v1.236L87.924 346zm12.064-10.909V346h-1.321v-9.524h-.064l-2.664 1.768v-1.342l2.728-1.811zM105.98 346v-8.182h1.215v1.279h.106q.256-.655.826-1.018.57-.367 1.369-.367.81 0 1.347.367.544.363.847 1.018h.086q.313-.635.942-1.007.629-.378 1.508-.378 1.097 0 1.795.687.698.682.698 2.125V346h-1.257v-5.476q0-.906-.496-1.294a1.83 1.83 0 0 0-1.166-.389q-.864 0-1.337.522-.474.516-.474 1.31V346h-1.279v-5.604q0-.698-.452-1.124-.453-.43-1.167-.431-.49 0-.916.261a1.97 1.97 0 0 0-.682.724 2.13 2.13 0 0 0-.256 1.06V346zm13.037 0v-8.182h1.215v1.279h.106q.256-.655.826-1.018.57-.367 1.369-.367.81 0 1.348.367.543.363.846 1.018h.086q.314-.635.943-1.007.628-.378 1.507-.378 1.098 0 1.795.687.698.682.698 2.125V346h-1.257v-5.476q0-.906-.496-1.294a1.83 1.83 0 0 0-1.166-.389q-.863 0-1.337.522-.474.516-.474 1.31V346h-1.279v-5.604q0-.698-.452-1.124-.453-.43-1.167-.431-.49 0-.916.261a1.97 1.97 0 0 0-.682.724q-.256.459-.256 1.06V346zM964.35 333.825h13.035v.99H964.35zm5.865-1.44h1.155v1.92h-1.155zm-5.19 7.305h11.145v.96h-10.05v5.55h-1.095zm10.68 0h1.125v5.16q0 .465-.135.735-.12.27-.48.405t-.99.15q-.615.03-1.56.03-.03-.24-.135-.54t-.225-.525q.735.015 1.305.015.585.015.765 0 .195-.015.255-.075.075-.06.075-.21zm-7.68 1.935h.99v3.945h-.99zm.525 0h5.19v3.18h-5.19v-.825h4.185v-1.53h-4.185zm-.63-5.145v1.44h5.88v-1.44zm-1.08-.825h8.085v3.105h-8.085zm19.395-1.29q-.075-.24-.18-.555-.09-.315-.195-.615l1.275-.165q.075.435.21.99a19 19 0 0 0 .675 2.145q.345.975.87 1.95.525.96.99 1.62.165.21.33.405l.33.39-.615.84q-.27-.06-.72-.12-.435-.06-.96-.105-.51-.06-1.02-.105t-.915-.075l.09-1.005q.42.03.885.075.48.045.9.09.435.03.705.06a25 25 0 0 1-.675-1.095q-.36-.63-.705-1.32-.33-.705-.585-1.38-.24-.66-.405-1.17t-.285-.855m-5.49 1.17q1.26.15 2.43.21 1.185.06 2.235.03 1.065-.03 1.92-.12.6-.075 1.26-.18.675-.105 1.335-.27t1.245-.345l.135 1.17q-.525.165-1.155.285t-1.26.225-1.185.165q-1.425.165-3.195.18a41 41 0 0 1-3.735-.15zm2.31 4.785q-.33.54-.525 1.05-.18.495-.18 1.035 0 1.065.93 1.56t2.595.51q1.155.015 2.115-.09.975-.105 1.755-.285l-.06 1.2q-.69.12-1.65.225t-2.22.105q-1.425-.015-2.475-.36-1.035-.345-1.605-1.02-.57-.69-.57-1.71 0-.615.195-1.215.21-.615.525-1.275zm17.825-3.48c-.3 0-.57-.1-.8-.3q-.345-.315-.345-.825t.345-.81c.23-.21.5-.315.8-.315s.56.105.79.315c.23.2.35.47.35.81s-.12.615-.35.825c-.23.2-.49.3-.79.3m0 7.35c-.3 0-.57-.1-.8-.3q-.345-.315-.345-.825 0-.525.345-.825c.23-.21.5-.315.8-.315s.56.105.79.315c.23.2.35.475.35.825 0 .34-.12.615-.35.825-.23.2-.49.3-.79.3m12.46-10.099V345h-1.32v-9.524h-.07l-2.66 1.768v-1.342l2.73-1.811zm6.76 11.058c-.45-.007-.9-.092-1.34-.256a3.2 3.2 0 0 1-1.23-.825c-.37-.391-.66-.918-.89-1.582q-.33-1.002-.33-2.514 0-1.449.27-2.568c.18-.749.44-1.379.79-1.891a3.56 3.56 0 0 1 1.24-1.172 3.44 3.44 0 0 1 1.66-.399c.61 0 1.15.122 1.63.367q.72.363 1.17 1.012c.3.434.5.933.59 1.497h-1.3c-.12-.49-.36-.896-.71-1.22-.34-.323-.81-.484-1.38-.484-.85 0-1.51.367-2 1.102-.48.735-.72 1.767-.73 3.095h.09a3.1 3.1 0 0 1 .71-.772c.27-.217.58-.384.91-.501a3.2 3.2 0 0 1 1.06-.176c.63 0 1.2.156 1.72.469.52.309.93.737 1.24 1.284.32.543.47 1.166.47 1.869q0 1.012-.45 1.854a3.5 3.5 0 0 1-1.27 1.332q-.825.49-1.92.479m0-1.172q.675 0 1.2-.335c.36-.224.64-.524.85-.901.21-.376.31-.795.31-1.257q0-.676-.3-1.23c-.2-.373-.47-.669-.83-.89a2.15 2.15 0 0 0-1.19-.33c-.34 0-.65.068-.94.203-.29.131-.55.312-.77.543a2.7 2.7 0 0 0-.51.794c-.12.294-.19.605-.19.932 0 .433.11.838.31 1.214q.3.565.84.911c.36.231.76.346 1.22.346m5.48-1.214v-1.087l4.8-7.585h.78v1.683h-.53l-3.62 5.732v.085h6.46v1.172zm5.14 2.237v-10.909h1.25V345zm8.98 0v-8.182h1.22v1.279h.1c.17-.437.45-.776.83-1.018.38-.245.83-.367 1.37-.367s.99.122 1.34.367c.37.242.65.581.85 1.018h.09c.21-.423.52-.759.94-1.007.42-.252.92-.378 1.51-.378.73 0 1.33.229 1.79.687.47.454.7 1.163.7 2.125V345h-1.26v-5.476c0-.604-.16-1.035-.49-1.294a1.84 1.84 0 0 0-1.17-.389c-.57 0-1.02.174-1.34.522-.31.344-.47.781-.47 1.31V345h-1.28v-5.604q0-.698-.45-1.124-.45-.43-1.17-.431c-.32 0-.63.087-.91.261q-.42.26-.69.724c-.17.306-.25.659-.25 1.06V345zm13.04 0v-8.182h1.21v1.279h.11c.17-.437.45-.776.83-1.018.38-.245.83-.367 1.36-.367q.81 0 1.35.367c.36.242.65.581.85 1.018h.08c.21-.423.53-.759.95-1.007q.63-.378 1.5-.378c.74 0 1.33.229 1.8.687.46.454.7 1.163.7 2.125V345h-1.26v-5.476c0-.604-.17-1.035-.5-1.294a1.8 1.8 0 0 0-1.16-.389c-.58 0-1.02.174-1.34.522-.31.344-.47.781-.47 1.31V345h-1.28v-5.604q0-.698-.45-1.124c-.31-.287-.69-.431-1.17-.431-.33 0-.63.087-.92.261-.28.174-.5.415-.68.724-.17.306-.25.659-.25 1.06V345zM227.78 618.805h13.455v.915H227.78zm.09-9.75h13.29v.93h-13.29zm1.035 7.545h11.385v.9h-11.385zm4.98-9.06h1.125v11.7h-1.125zm5.22-1.05.6.87q-1.005.18-2.28.33-1.26.135-2.655.24-1.395.09-2.805.165-1.41.06-2.73.075 0-.195-.09-.45-.075-.27-.15-.435 1.305-.045 2.7-.105 1.41-.075 2.76-.165 1.365-.105 2.55-.24 1.2-.135 2.1-.285m-8.625 7.11v1.14h8.1v-1.14zm0-1.89v1.125h8.1v-1.125zm-1.095-.81h10.335v4.665h-10.335zm20.475-2.535q-.075-.24-.18-.555-.09-.315-.195-.615l1.275-.165q.075.435.21.99a19 19 0 0 0 .675 2.145q.345.975.87 1.95.525.96.99 1.62.165.21.33.405l.33.39-.615.84q-.27-.06-.72-.12-.435-.06-.96-.105-.51-.06-1.02-.105t-.915-.075l.09-1.005q.42.03.885.075.48.045.9.09.435.03.705.06a25 25 0 0 1-.675-1.095q-.36-.63-.705-1.32-.33-.705-.585-1.38-.24-.66-.405-1.17t-.285-.855m-5.49 1.17q1.26.15 2.43.21 1.185.06 2.235.03 1.065-.03 1.92-.12.6-.075 1.26-.18.675-.105 1.335-.27t1.245-.345l.135 1.17q-.525.165-1.155.285t-1.26.225-1.185.165q-1.425.165-3.195.18a41 41 0 0 1-3.735-.15zm2.31 4.785q-.33.54-.525 1.05-.18.495-.18 1.035 0 1.065.93 1.56t2.595.51q1.155.015 2.115-.09.975-.105 1.755-.285l-.06 1.2q-.69.12-1.65.225t-2.22.105q-1.425-.015-2.475-.36-1.035-.345-1.605-1.02-.57-.69-.57-1.71 0-.615.195-1.215.21-.615.525-1.275zm-15.461 23.569q-.645 0-1.177-.314a2.44 2.44 0 0 1-.853-.852 2.3 2.3 0 0 1-.314-1.178q0-.65.314-1.177.32-.532.853-.847a2.24 2.24 0 0 1 1.177-.319q.65 0 1.177.319.532.315.847.847.32.528.319 1.177 0 .645-.319 1.178-.315.533-.847.852a2.26 2.26 0 0 1-1.177.314m9.758 3.111v-10.909h3.814q1.14 0 1.881.394.74.389 1.102 1.049.363.655.362 1.455 0 .702-.25 1.161-.245.458-.65.724a3 3 0 0 1-.868.394v.107q.5.031 1.007.352.505.32.847.916.34.596.34 1.459 0 .82-.372 1.476-.373.656-1.178 1.038-.804.384-2.093.384zm1.321-1.172h2.621q1.295 0 1.838-.501.548-.505.548-1.225 0-.554-.282-1.022a2.03 2.03 0 0 0-.804-.757q-.522-.288-1.236-.287h-2.685zm0-4.943h2.451q.596 0 1.076-.234.484-.235.767-.661.287-.426.287-1.001 0-.72-.5-1.22-.5-.506-1.588-.506h-2.493zm14.401-2.067a1.67 1.67 0 0 0-.778-1.257q-.682-.447-1.672-.447-.725 0-1.268.234a2 2 0 0 0-.842.645 1.55 1.55 0 0 0-.298.932q0 .436.208.751.213.309.543.516.33.202.693.336.362.128.665.208l1.108.298q.427.113.949.309.527.197 1.006.538.485.336.799.863.315.528.315 1.294 0 .885-.464 1.598-.458.714-1.342 1.135-.879.42-2.136.421-1.172 0-2.03-.378-.852-.379-1.342-1.055a3 3 0 0 1-.549-1.571h1.364q.053.617.416 1.022.367.4.926.597.566.192 1.215.192a3.6 3.6 0 0 0 1.358-.245q.601-.25.954-.693.351-.447.351-1.044 0-.543-.303-.884a2.2 2.2 0 0 0-.799-.554 8 8 0 0 0-1.071-.373l-1.342-.384q-1.279-.367-2.025-1.049-.745-.681-.745-1.784 0-.917.495-1.598a3.3 3.3 0 0 1 1.342-1.066q.847-.383 1.891-.383 1.054 0 1.875.378.82.373 1.3 1.023.485.65.511 1.475zm7.094 8.331q-1.055 0-1.88-.362-.82-.362-1.305-1.007a2.7 2.7 0 0 1-.523-1.507h1.343q.042.527.362.911a2.1 2.1 0 0 0 .836.586 3.1 3.1 0 0 0 1.146.207q.703 0 1.246-.245.543-.244.852-.682.309-.436.309-1.012a1.9 1.9 0 0 0-.298-1.06q-.298-.463-.874-.724-.575-.261-1.406-.261h-.873v-1.172h.873a2.6 2.6 0 0 0 1.14-.234q.496-.235.772-.661.283-.426.283-1.001 0-.555-.245-.964a1.7 1.7 0 0 0-.693-.64 2.25 2.25 0 0 0-1.044-.229q-.564 0-1.065.208-.495.202-.81.591a1.55 1.55 0 0 0-.341.927h-1.278a2.6 2.6 0 0 1 .517-1.502 3.25 3.25 0 0 1 1.267-1.012 4.1 4.1 0 0 1 1.731-.362q1.012 0 1.737.41.725.405 1.113 1.071.39.665.389 1.438 0 .921-.485 1.571a2.45 2.45 0 0 1-1.305.9v.086q1.034.17 1.614.879.58.702.581 1.741 0 .89-.485 1.598a3.3 3.3 0 0 1-1.31 1.108q-.83.405-1.891.405m10.573-6.189v1.171h-4.772v-1.171zm5.749 6.04h-3.366v-10.909h3.515q1.588 0 2.717.655 1.13.65 1.731 1.87.602 1.214.602 2.908 0 1.705-.607 2.935a4.33 4.33 0 0 1-1.769 1.886q-1.161.655-2.823.655m-2.045-1.172h1.96q1.353 0 2.243-.522a3.2 3.2 0 0 0 1.326-1.486q.437-.964.437-2.296 0-1.321-.432-2.274a3.18 3.18 0 0 0-1.289-1.471q-.858-.516-2.136-.516h-2.109zm9.46 1.172v-10.909h3.814q1.14 0 1.88.394.74.389 1.103 1.049.362.655.362 1.455 0 .702-.25 1.161a1.95 1.95 0 0 1-.65.724 3 3 0 0 1-.868.394v.107q.5.031 1.006.352.507.32.847.916.341.596.341 1.459 0 .82-.373 1.476t-1.177 1.038q-.804.384-2.093.384zm1.321-1.172h2.621q1.294 0 1.837-.501.549-.505.549-1.225 0-.554-.282-1.022a2.04 2.04 0 0 0-.805-.757q-.522-.288-1.235-.287h-2.685zm0-4.943h2.45q.597 0 1.076-.234.485-.235.767-.661.288-.426.288-1.001 0-.72-.501-1.22-.501-.506-1.587-.506h-2.493zm9.181 4.719a.92.92 0 0 1-.677-.282.92.92 0 0 1-.282-.676q0-.395.282-.677a.92.92 0 0 1 .677-.282q.393 0 .676.282a.92.92 0 0 1 .282.677.9.9 0 0 1-.133.479 1 1 0 0 1-.346.352.9.9 0 0 1-.479.127m0-5.518a.92.92 0 0 1-.677-.282.93.93 0 0 1-.282-.677q0-.394.282-.676a.92.92 0 0 1 .677-.283.92.92 0 0 1 .676.283.92.92 0 0 1 .282.676.994.994 0 0 1-.479.831.9.9 0 0 1-.479.128m11.098 7.063q-1.054 0-1.881-.362-.819-.362-1.305-1.007a2.7 2.7 0 0 1-.522-1.507h1.343q.042.527.362.911a2.1 2.1 0 0 0 .836.586q.517.207 1.145.207.704 0 1.247-.245.543-.244.852-.682.309-.436.309-1.012a1.9 1.9 0 0 0-.298-1.06q-.298-.463-.874-.724-.575-.261-1.406-.261h-.874v-1.172h.874a2.6 2.6 0 0 0 1.14-.234q.496-.235.772-.661.283-.426.283-1.001 0-.555-.245-.964a1.7 1.7 0 0 0-.693-.64 2.25 2.25 0 0 0-1.044-.229q-.564 0-1.065.208-.495.202-.81.591a1.55 1.55 0 0 0-.341.927h-1.278a2.6 2.6 0 0 1 .516-1.502 3.26 3.26 0 0 1 1.268-1.012 4.1 4.1 0 0 1 1.731-.362q1.013 0 1.737.41.725.405 1.113 1.071.389.665.389 1.438 0 .921-.485 1.571a2.45 2.45 0 0 1-1.305.9v.086q1.034.17 1.614.879.58.702.581 1.741 0 .89-.485 1.598a3.3 3.3 0 0 1-1.31 1.108q-.831.405-1.891.405m6.205-.149 4.88-9.652v-.085h-5.625v-1.172h6.988v1.236L316.72 641zm11.553.149q-1.204 0-2.051-.655-.847-.66-1.294-1.912-.448-1.257-.448-3.037 0-1.768.448-3.02.452-1.257 1.299-1.917.852-.666 2.046-.666t2.04.666q.852.66 1.3 1.917.452 1.252.452 3.02 0 1.78-.447 3.037-.447 1.251-1.295 1.912-.846.655-2.05.655m0-1.172q1.193 0 1.853-1.15.661-1.15.661-3.282 0-1.416-.304-2.413-.298-.996-.863-1.518a1.9 1.9 0 0 0-1.347-.522q-1.183 0-1.849 1.167-.666 1.162-.666 3.286 0 1.418.299 2.408.299.991.857 1.508.566.516 1.359.516m13.359 4.262q-.91 0-1.566-.235a3.3 3.3 0 0 1-1.092-.607 3.3 3.3 0 0 1-.687-.799l1.001-.703q.171.223.432.511.261.294.714.506.457.219 1.198.219.992 0 1.635-.48.645-.479.645-1.502v-1.662h-.107a7 7 0 0 1-.394.554q-.25.325-.724.581-.469.25-1.268.25a3.4 3.4 0 0 1-1.779-.469q-.783-.468-1.241-1.363-.453-.895-.453-2.174 0-1.256.442-2.189.442-.937 1.231-1.449.787-.516 1.821-.516.8 0 1.268.266.475.261.724.597.256.33.395.543h.128v-1.3h1.214v8.416q0 1.055-.479 1.716a2.74 2.74 0 0 1-1.279.974 4.8 4.8 0 0 1-1.779.315m-.043-4.496q.757 0 1.279-.346t.794-.996.271-1.556q0-.884-.266-1.561-.267-.676-.788-1.06-.522-.383-1.29-.383-.798 0-1.331.405-.527.405-.794 1.086a4.2 4.2 0 0 0-.261 1.513q0 .852.266 1.508.273.65.799 1.022.534.368 1.321.368m-108.985 20.146q-.645 0-1.177-.314a2.44 2.44 0 0 1-.853-.852 2.3 2.3 0 0 1-.314-1.178q0-.65.314-1.177.32-.532.853-.847a2.24 2.24 0 0 1 1.177-.319q.65 0 1.177.319.532.315.847.847.32.528.319 1.177 0 .645-.319 1.178-.315.533-.847.852a2.26 2.26 0 0 1-1.177.314m9.758 3.111v-10.909h3.814q1.14 0 1.881.394.74.389 1.102 1.049.363.655.362 1.455 0 .702-.25 1.161-.245.458-.65.724a3 3 0 0 1-.868.394v.107q.5.031 1.007.352.505.32.847.916.34.596.34 1.459 0 .82-.372 1.476-.373.656-1.178 1.038-.804.384-2.093.384zm1.321-1.172h2.621q1.295 0 1.838-.501.548-.505.548-1.225 0-.554-.282-1.022a2.03 2.03 0 0 0-.804-.757q-.522-.288-1.236-.287h-2.685zm0-4.943h2.451q.596 0 1.076-.234.484-.235.767-.661.287-.426.287-1.001 0-.72-.5-1.22-.5-.506-1.588-.506h-2.493zm14.401-2.067a1.67 1.67 0 0 0-.778-1.257q-.682-.447-1.672-.447-.725 0-1.268.234a2 2 0 0 0-.842.645 1.55 1.55 0 0 0-.298.932q0 .436.208.751.213.309.543.516.33.202.693.336.362.128.665.208l1.108.298q.427.113.949.309.527.197 1.006.538.485.336.799.863.315.528.315 1.294 0 .885-.464 1.598-.458.714-1.342 1.135-.879.42-2.136.421-1.172 0-2.03-.378-.852-.379-1.342-1.055a3 3 0 0 1-.549-1.571h1.364q.053.617.416 1.022.367.4.926.597.566.192 1.215.192a3.6 3.6 0 0 0 1.358-.245q.601-.25.954-.693.351-.447.351-1.044 0-.543-.303-.884a2.2 2.2 0 0 0-.799-.554 8 8 0 0 0-1.071-.373l-1.342-.384q-1.279-.367-2.025-1.049-.745-.681-.745-1.784 0-.917.495-1.598a3.3 3.3 0 0 1 1.342-1.066q.847-.383 1.891-.383 1.054 0 1.875.378.82.373 1.3 1.023.485.65.511 1.475zm7.094 8.331q-1.055 0-1.88-.362-.82-.362-1.305-1.007a2.7 2.7 0 0 1-.523-1.507h1.343q.042.527.362.911a2.1 2.1 0 0 0 .836.586 3.1 3.1 0 0 0 1.146.207q.703 0 1.246-.245.543-.244.852-.682.309-.436.309-1.012a1.9 1.9 0 0 0-.298-1.06q-.298-.463-.874-.724-.575-.261-1.406-.261h-.873v-1.172h.873a2.6 2.6 0 0 0 1.14-.234q.496-.235.772-.661.283-.426.283-1.001 0-.555-.245-.964a1.7 1.7 0 0 0-.693-.64 2.25 2.25 0 0 0-1.044-.229q-.564 0-1.065.208-.495.202-.81.591a1.55 1.55 0 0 0-.341.927h-1.278a2.6 2.6 0 0 1 .517-1.502 3.25 3.25 0 0 1 1.267-1.012 4.1 4.1 0 0 1 1.731-.362q1.012 0 1.737.41.725.405 1.113 1.071.39.665.389 1.438 0 .921-.485 1.571a2.45 2.45 0 0 1-1.305.9v.086q1.034.17 1.614.879.58.702.581 1.741 0 .89-.485 1.598a3.3 3.3 0 0 1-1.31 1.108q-.83.405-1.891.405m10.573-6.189v1.171h-4.772v-1.171zm2.83 6.04h-1.385l4.006-10.909h1.364L285.186 663h-1.385l-3.26-9.183h-.085zm.512-4.261h5.582v1.172h-5.582zm9.177 4.261v-10.909h3.687q1.283 0 2.098.463.82.458 1.215 1.241a3.8 3.8 0 0 1 .394 1.748 3.86 3.86 0 0 1-.394 1.752 2.93 2.93 0 0 1-1.204 1.257q-.815.464-2.088.464h-2.642v-1.172h2.599q.88 0 1.412-.304a1.8 1.8 0 0 0 .772-.82 2.7 2.7 0 0 0 .245-1.177q0-.656-.245-1.172a1.75 1.75 0 0 0-.778-.81q-.537-.298-1.427-.298h-2.323V663zm11.503 0-2.982-10.909h1.342l2.28 8.885h.106l2.323-8.885h1.491l2.323 8.885h.106l2.28-8.885h1.342L306.016 663h-1.363l-2.408-8.693h-.085L299.752 663zm12.257 0v-10.909h3.814q1.14 0 1.88.394.741.389 1.103 1.049.363.655.362 1.455 0 .702-.25 1.161-.245.458-.65.724a3 3 0 0 1-.868.394v.107q.5.031 1.007.352.505.32.847.916.34.596.34 1.459 0 .82-.372 1.476-.373.656-1.178 1.038-.804.384-2.093.384zm1.321-1.172h2.621q1.295 0 1.838-.501.548-.505.548-1.225 0-.554-.282-1.022a2.03 2.03 0 0 0-.804-.757q-.522-.288-1.236-.287h-2.685zm0-4.943h2.451q.596 0 1.076-.234.484-.235.767-.661.287-.426.287-1.001 0-.72-.5-1.22-.5-.506-1.588-.506h-2.493zm9.181 4.719a.93.93 0 0 1-.677-.282.92.92 0 0 1-.282-.676q0-.395.282-.677a.93.93 0 0 1 .677-.282q.394 0 .676.282a.92.92 0 0 1 .283.677.9.9 0 0 1-.134.479 1 1 0 0 1-.346.352.9.9 0 0 1-.479.127m0-5.518a.93.93 0 0 1-.677-.282.93.93 0 0 1-.282-.677q0-.394.282-.676a.92.92 0 0 1 .677-.283q.394 0 .676.283a.92.92 0 0 1 .283.676.9.9 0 0 1-.134.48 1 1 0 0 1-.346.351.9.9 0 0 1-.479.128m11.098 7.063q-1.055 0-1.88-.362-.82-.362-1.305-1.007a2.7 2.7 0 0 1-.522-1.507h1.342q.042.527.362.911a2.1 2.1 0 0 0 .836.586 3.1 3.1 0 0 0 1.146.207q.703 0 1.246-.245.543-.244.852-.682.309-.436.309-1.012a1.9 1.9 0 0 0-.298-1.06q-.299-.463-.873-.724-.576-.261-1.407-.261h-.873v-1.172h.873q.65 0 1.14-.234.495-.235.773-.661.282-.426.282-1.001 0-.555-.245-.964a1.7 1.7 0 0 0-.693-.64q-.441-.229-1.044-.229-.564 0-1.065.208-.495.202-.81.591a1.55 1.55 0 0 0-.341.927h-1.278a2.6 2.6 0 0 1 .517-1.502 3.25 3.25 0 0 1 1.267-1.012 4.1 4.1 0 0 1 1.732-.362q1.011 0 1.736.41.725.405 1.113 1.071.39.665.389 1.438 0 .921-.484 1.571-.48.65-1.305.9v.086q1.032.17 1.613.879.582.702.581 1.741 0 .89-.485 1.598a3.3 3.3 0 0 1-1.31 1.108q-.83.405-1.891.405m9.359 0q-1.097 0-1.939-.389-.835-.393-1.305-1.081a2.7 2.7 0 0 1-.463-1.577 2.9 2.9 0 0 1 .271-1.278q.277-.591.757-.986a2.3 2.3 0 0 1 1.081-.506v-.064a2.1 2.1 0 0 1-1.246-.878 2.67 2.67 0 0 1-.459-1.551 2.64 2.64 0 0 1 .421-1.486 2.97 2.97 0 0 1 1.172-1.033q.752-.378 1.71-.378.948 0 1.694.378t1.172 1.033q.43.656.437 1.486a2.7 2.7 0 0 1-.474 1.551 2.1 2.1 0 0 1-1.231.878v.064q.591.107 1.065.506.474.395.757.986.282.586.287 1.278a2.75 2.75 0 0 1-.479 1.577q-.468.687-1.305 1.081-.831.39-1.923.389m0-1.172q.741 0 1.278-.239.538-.24.831-.677.294-.437.299-1.023a1.96 1.96 0 0 0-.32-1.092 2.16 2.16 0 0 0-.857-.745 2.7 2.7 0 0 0-1.231-.272 2.8 2.8 0 0 0-1.246.272 2.17 2.17 0 0 0-.858.745q-.309.474-.304 1.092-.005.586.283 1.023.293.437.836.677.543.239 1.289.239m0-5.177q.586 0 1.039-.235a1.8 1.8 0 0 0 .719-.655q.261-.42.266-.985a1.8 1.8 0 0 0-.261-.964 1.7 1.7 0 0 0-.708-.64 2.3 2.3 0 0 0-1.055-.229 2.4 2.4 0 0 0-1.071.229 1.66 1.66 0 0 0-.708.64 1.77 1.77 0 0 0-.245.964q-.006.564.25.985.261.421.719.655t1.055.235m9.307 6.349q-1.203 0-2.051-.655-.846-.66-1.294-1.912-.447-1.257-.447-3.037 0-1.768.447-3.02.453-1.257 1.3-1.917.852-.666 2.045-.666t2.04.666q.853.66 1.3 1.917.453 1.252.453 3.02 0 1.78-.448 3.037-.447 1.251-1.294 1.912-.847.655-2.051.655m0-1.172q1.193 0 1.854-1.15.66-1.15.66-3.282 0-1.416-.303-2.413-.299-.996-.863-1.518a1.9 1.9 0 0 0-1.348-.522q-1.182 0-1.848 1.167-.666 1.162-.666 3.286 0 1.418.298 2.408.299.991.858 1.508.564.516 1.358.516m13.36 4.262q-.912 0-1.567-.235a3.3 3.3 0 0 1-1.092-.607 3.4 3.4 0 0 1-.687-.799l1.002-.703q.17.223.431.511.261.294.714.506.458.219 1.199.219.99 0 1.635-.48.644-.479.644-1.502v-1.662h-.106a7 7 0 0 1-.394.554q-.25.325-.725.581-.468.25-1.268.25-.99 0-1.779-.469-.783-.468-1.241-1.363-.453-.895-.453-2.174 0-1.256.443-2.189.441-.937 1.23-1.449.789-.516 1.822-.516.798 0 1.268.266.474.261.724.597.256.33.394.543h.128v-1.3h1.214v8.416q0 1.055-.479 1.716a2.73 2.73 0 0 1-1.278.974 4.8 4.8 0 0 1-1.779.315m-.043-4.496q.756 0 1.278-.346t.794-.996.272-1.556q0-.884-.267-1.561a2.34 2.34 0 0 0-.788-1.06q-.522-.383-1.289-.383-.8 0-1.332.405-.527.405-.793 1.086a4.2 4.2 0 0 0-.261 1.513q0 .852.266 1.508.271.65.799 1.022.532.368 1.321.368"/><path stroke="#231815" stroke-linecap="round" stroke-linejoin="round" stroke-width=".5" d="m559.48 582.22 13.14-1.4M559.41 580.9l13.06-1.39M559.03 573.87l21.67-2.32"/><path stroke="#231815" stroke-linecap="round" stroke-linejoin="round" d="m556.03 573.85.79.01M555.44 573.85l-1.48-.02M553.96 573.83l-1.43-.02M553.05 573.82l.6.01M552.16 573.8l.53.01M552.16 573.8l.53.01M552.16 573.8l-.94-.02M552.16 573.8l-.94-.02M550.23 573.76l.99.02M548.9 573.73l1.33.03M549.41 573.74l.34.01"/><circle cx="581.61" cy="561.48" r=".25" fill="#231815"/><path stroke="#231815" stroke-linecap="round" stroke-linejoin="round" stroke-width=".5" d="m558.76 98.13-.93 1.53M559.07 97.62l-.31.51"/><circle cx="558.09" cy="572.15" r=".25" fill="#231815"/><path stroke="#231815" stroke-linecap="round" stroke-linejoin="round" stroke-width=".5" d="m552.88 110.14-1.64 5.03M551.24 115.17l-1.29 5.47M549.98 550.92l1.41 5.8"/><path stroke="#231815" stroke-linecap="round" stroke-linejoin="round" d="M527 99.66v472.05"/><path stroke="#231815" stroke-linecap="round" stroke-linejoin="round" stroke-width=".5" d="M549.22 125.36v-.02M549.95 120.64l-.73 4.7M549.22 546.02l.76 4.9M549.22 546.01v.01M555 580.9l-.37-7.06M556.39 580.9l-.37-7.05M547.89 157.39v356.58"/><path stroke="#231815" stroke-linecap="round" stroke-linejoin="round" d="m590.64 258.45-1.09.55"/><path stroke="#231815" stroke-linecap="round" stroke-linejoin="round" stroke-width=".5" d="m556.39 580.9-.01 1.32"/><path stroke="#231815" stroke-linecap="round" stroke-linejoin="round" d="m589.55 412.37 1.09.55"/><path stroke="#231815" stroke-linecap="round" stroke-linejoin="round" stroke-width=".5" d="M581.95 565.68v4.49"/><path stroke="#231815" stroke-linecap="round" stroke-linejoin="round" d="M588.01 261.49v.74M588.01 409.14v.73"/><path stroke="#231815" stroke-linecap="round" stroke-linejoin="round" stroke-width=".5" d="m572.47 579.51.38-7.12M573.87 579.51l.38-7.27"/><path stroke="#231815" stroke-linecap="round" stroke-linejoin="round" d="M592.18 109.27v146.69M592.18 562.1V415.41M592.18 403.61V267.76M590.64 406.1l-1.09.55M589.55 264.72l1.09.55M567.29 569.91l24.29-7.01"/><path stroke="#231815" stroke-linecap="round" stroke-linejoin="round" stroke-width=".5" d="m582.95 116.24-.59-.28"/><path stroke="#231815" stroke-linecap="round" stroke-linejoin="round" d="m567.29 101.46 24.29 7.01"/><path stroke="#231815" stroke-linecap="round" stroke-linejoin="round" stroke-width=".5" d="M581.56 109.89h.01"/><path stroke="#231815" stroke-linecap="round" stroke-linejoin="round" d="m564.32 98.07-5.04-.54"/><path stroke="#231815" stroke-linecap="round" stroke-linejoin="round" stroke-width=".5" d="M555.42 581.82q.12.12.27.21M555.69 582.02c.06.03.11.06.17.09"/><path stroke="#231815" stroke-linecap="round" stroke-linejoin="round" stroke-width=".5" d="M555 580.9c.04.74.64 1.31 1.38 1.32"/><path stroke="#231815" stroke-linecap="round" stroke-linejoin="round" d="M527 571.71c0 .43.33.8.76.83M552.88 573.82h.7"/><path stroke="#231815" stroke-linecap="round" stroke-linejoin="round" stroke-width=".5" d="M583.93 554.37c-.32.14-.63.29-.95.44M572.62 580.82c.68-.07 1.21-.63 1.24-1.31M580.7 571.55a1.39 1.39 0 0 0 1.24-1.39"/><path stroke="#231815" stroke-linecap="round" stroke-linejoin="round" d="M591.58 562.9c.36-.1.6-.43.6-.8"/><path stroke="#231815" stroke-linecap="round" stroke-linejoin="round" stroke-width=".5" d="M591.58 552.04c.23-.07.43-.23.53-.45M549.04 544.28c0 .1.02.2.03.29M549.14 545.35c.02.22.05.44.07.66M548.94 543.08c.02.3.05.6.07.9M549.03 544.15s0 .09.01.14M549.08 544.7c.02.17.03.35.05.52M549.01 543.99c0 .05 0 .11.01.16M558.48 97.5c-10.25.02-20.5.46-30.71 1.33"/><path stroke="#231815" stroke-linecap="round" stroke-linejoin="round" d="M558.48 97.5c-10.25.02-20.5.46-30.71 1.33M590.64 406.1c.94-.47 1.54-1.44 1.54-2.49M592.18 415.41c0-1.06-.6-2.02-1.54-2.49M589.55 406.65c-.94.47-1.54 1.44-1.54 2.49M588.01 409.87c0 1.06.6 2.02 1.54 2.49"/><path stroke="#231815" stroke-linecap="round" stroke-linejoin="round" stroke-width=".5" d="M547.9 516.31c.05 8.21.35 16.41.89 24.6M547.89 513.97v2.34M548.79 540.91l.15 2.17M556.38 582.22c1.03 0 2.07.01 3.1 0M556.39 580.9c1.01 0 2.01.01 3.02 0M554.91 573.84c.37 0 .75 0 1.12.01"/><path stroke="#231815" stroke-linecap="round" stroke-linejoin="round" d="M554.93 573.84c.37 0 .73 0 1.1.01M527.76 572.54c7.2.61 14.42 1.01 21.65 1.2M551.22 573.78c.31 0 .63.01.94.02M556.82 573.86h2.22M589.55 259c-.94.47-1.54 1.44-1.54 2.49M588.01 262.23c0 1.06.6 2.02 1.54 2.49M590.64 258.45c.94-.47 1.54-1.44 1.54-2.49M592.18 267.76c0-1.06-.6-2.02-1.54-2.49"/><path stroke="#231815" stroke-linecap="round" stroke-linejoin="round" stroke-width=".5" d="M549.09 126.55c-.01.14-.03.28-.04.42M549 127.58c-.02.23-.04.47-.05.71M549.22 125.36l-.09.79M549.04 127.06c-.02.17-.03.35-.05.52M549.12 126.27c0 .09-.02.18-.03.27"/><path stroke="#231815" stroke-linecap="round" stroke-linejoin="round" d="M527.76 98.83c-.43.04-.76.4-.76.83M558.96 97.78a.56.56 0 0 0-.48-.28M559.28 97.53c-.08 0-.16.03-.21.1"/><path stroke="#231815" stroke-linecap="round" stroke-linejoin="round" stroke-width=".5" d="M592.11 119.78a.82.82 0 0 0-.53-.45"/><path stroke="#231815" stroke-linecap="round" stroke-linejoin="round" d="M592.18 109.27c0-.37-.25-.7-.6-.8"/><path stroke="#231815" stroke-linecap="round" stroke-linejoin="round" stroke-width=".5" d="M548.74 131.22c-.48 7.46-.76 14.93-.83 22.4M547.91 153.61c-.01 1.26-.02 2.52-.02 3.78M548.94 128.28c-.07.98-.14 1.96-.2 2.93"/><path stroke="#231815" stroke-linecap="round" stroke-linejoin="round" d="m553.48 573.83-.28-.01M553.2 573.82h-.14M553.06 573.82h-.17M552.6 573.81l.26.01M552.86 573.82h.02M552.88 573.82h.28M553.16 573.82l.39.01"/><path stroke="#231815" stroke-linecap="round" stroke-linejoin="round" stroke-width=".5" d="M555.42 581.82c-.12-.12-.22-.27-.3-.42M572.47 579.51c.09 0 .18 0 .27.01s.17 0 .26 0h.85M559.41 580.9c0 .09 0 .17.01.26s0 .17.01.25c0 .08 0 .15.01.23 0 .07 0 .13.01.2v.37M572.47 579.51c0 .09.02.17.03.26l.03.25c0 .08.02.15.02.23 0 .07.01.13.02.2 0 .05.01.11.02.16v.2M555 580.9h1.11c.09 0 .18 0 .27-.01"/><path stroke="#231815" stroke-linecap="round" stroke-linejoin="round" d="m548.74 573.72.16.01M552.75 573.81h.08M552.83 573.81l.08.01M553.16 573.82h.01M553.41 573.82l.14.01M553.55 573.83h.29M553.84 573.83l.33.01M548.74 573.72h-.27"/><path stroke="#231815" stroke-linecap="round" stroke-linejoin="round" stroke-width=".5" d="M592.11 119.78c.05.11.08.23.08.35M592.11 551.59c.05-.11.08-.23.08-.35M549.07 544.58l.01.12M549.13 545.22l.01.13M549.13 126.14l-.01.13M549.05 126.96l-.01.1M592.18 120.13s-.02-.1-.05-.14a.53.53 0 0 0-.24-.17 1.2 1.2 0 0 0-.38-.09M591.37 560.42s.05.07.07.11c.08.15.13.31.17.48M591.6 561.02l.03.18c.02.16.04.32.02.48M591.65 561.68s0 .04-.01.06c0 .05-.02.1-.05.14M549.25 546.01h-.03M592.18 551.24s-.02.1-.05.14c-.06.08-.14.13-.23.17-.12.05-.25.08-.37.09M592.18 110.26c0-.17-.06-.34-.16-.48a.8.8 0 0 0-.43-.29M592.18 110.26c0 .09-.02.18-.06.26-.04.09-.1.16-.18.22-.16.13-.37.2-.58.21M591.37 560.42c-1.65.31-3.31.58-4.98.78-.81.1-1.62.17-2.43.22s-1.57.07-2.36.05"/><path stroke="#231815" stroke-linecap="round" stroke-linejoin="round" stroke-width=".5" d="M592.18 561.11c0-.09-.02-.18-.06-.26a.55.55 0 0 0-.18-.22c-.16-.13-.37-.2-.58-.21M582.78 116.56c-.54-.26-1.07-.53-1.59-.82s-1.03-.6-1.52-.93q-.735-.495-1.38-1.08c-.43-.39-.8-.79-1.1-1.26-.14-.21-.26-.44-.35-.68-.08-.22-.13-.44-.15-.68-.01-.21 0-.42.07-.62s.15-.37.26-.53.26-.31.41-.43.33-.24.51-.34c.38-.21.79-.36 1.22-.47.45-.12.91-.2 1.37-.26.49-.06.97-.09 1.46-.1 1.03-.03 2.06.03 3.09.12 1.08.1 2.15.24 3.22.42a82 82 0 0 1 3.29.61M592.18 561.11c0 .17-.06.34-.16.48a.8.8 0 0 1-.43.29M591.52 119.73c-1.49-.42-2.97-.88-4.43-1.4s-2.91-1.09-4.31-1.76M583.93 554.37c1.23-.55 2.49-1.04 3.76-1.49q1.905-.675 3.84-1.23M591.589 561.87c-1.09.22-2.19.43-3.28.61s-2.129.32-3.209.42a25 25 0 0 1-3.071.12c-.49-.01-.97-.04-1.45-.1s-.909-.14-1.359-.26q-.63-.165-1.201-.48c-.18-.1-.34-.22-.5-.35a1.8 1.8 0 0 1-.389-.44q-.166-.255-.241-.54c-.05-.2-.059-.42-.039-.62.02-.23.089-.46.169-.67.1-.24.22-.46.37-.68.31-.46.701-.87 1.111-1.24.44-.39.899-.74 1.389-1.07s1.001-.64 1.521-.93 1.05-.56 1.59-.82"/><path stroke="#231815" stroke-linecap="round" stroke-linejoin="round" stroke-width=".5" d="M581.57 109.89c.79-.02 1.58 0 2.37.05s1.63.13 2.44.22c1.67.2 3.34.47 5 .77M581.61 561.48l-.77-.04M580.84 561.44l-1.11-.14M579.73 561.3l-.95-.24M578.78 561.06l-.74-.34M578.04 560.72l-.44-.39M577.6 560.33l-.15-.4M577.45 559.93l.1-.54M577.55 559.39l.41-.7M577.96 558.69l.69-.74M578.65 557.95l.87-.73M579.52 557.22l1.02-.69M580.54 556.53l1.11-.65M557.83 99.66l-1.43 2.58M556.4 102.24l-1.72 3.53M554.68 105.77l-1.8 4.37M555.12 566.54l1.79 3.53M556.91 570.07l2.19 3.79M551.39 556.72l1.79 5.31M553.18 562.03l1.94 4.51M581.65 555.88l1.17-.6M582.82 555.28l.33-.16M583.15 555.12l2.11-.92M585.26 554.2l3.42-1.25M588.68 552.95l2.9-.91M582.36 115.96l-1.44-.77M580.92 115.19l-1.3-.83M579.62 114.36l-1.09-.87M578.53 113.49l-.8-.89M577.73 112.6l-.4-.82M577.33 111.78l.06-.59M577.39 111.19l.53-.53M577.92 110.66l1.05-.44M578.97 110.22l1.53-.26M580.5 109.96l1.07-.07M591.57 119.33l-2.9-.88M588.67 118.45l-3.48-1.24M585.19 117.21l-2.24-.97"/><path stroke="#231815" stroke-linecap="round" stroke-linejoin="round" d="m564.32 573.3-5.29.57"/><path stroke="#231815" stroke-linecap="round" stroke-linejoin="round" stroke-width=".5" d="M557.48 542.47v-.12M552.63 513.97V157.39M556.46 513.97v-.18M556.46 513.79V157.38"/><circle cx="565.68" cy="99.47" r=".25" fill="#231815"/><circle cx="565.68" cy="571.89" r=".25" fill="#231815"/><path stroke="#231815" stroke-linecap="round" stroke-linejoin="round" d="m565.77 99.95-.09-.48"/><path stroke="#231815" stroke-linecap="round" stroke-linejoin="round" stroke-width=".5" d="M567.29 569.91c-.9.26-1.54 1.05-1.61 1.98"/><path stroke="#231815" stroke-linecap="round" stroke-linejoin="round" d="M567.29 569.91c-.9.26-1.54 1.05-1.6 1.98M564.32 573.3c.73-.08 1.31-.67 1.36-1.41"/><path stroke="#231815" stroke-linecap="round" stroke-linejoin="round" stroke-width=".5" d="M561.02 558.31a54 54 0 0 0 2.8 6.05M560.82 557.79c.07.18.13.35.2.53M559.73 554.6c.33 1.07.69 2.14 1.09 3.19M557.82 545.76c.38 2.99 1.02 5.95 1.91 8.83M553.66 542.74c.08 1.09.19 2.18.32 3.27M553.99 546.01c.89 7.07 2.99 13.94 6.21 20.3M557.48 542.47q.105 1.53.3 3.06M552.63 513.97c0 9.6.35 19.2 1.04 28.77M556.46 513.97c0 9.47.34 18.93 1.02 28.37M557.78 125.86c-.12 1-.22 2.01-.29 3.02M558.94 107.68c-.21.48-.42.96-.62 1.44M560.19 105.06c-.44.86-.85 1.74-1.25 2.62M553.99 125.36c-.14 1.09-.24 2.17-.32 3.27M557.71 110.62a62.4 62.4 0 0 0-3.73 14.74M558.32 109.12q-.315.75-.6 1.5"/><path stroke="#231815" stroke-linecap="round" stroke-linejoin="round" d="M565.77 99.95c.04.13.09.26.16.39M565.92 100.34c.28.54.77.95 1.36 1.12M565.68 99.47c-.05-.74-.62-1.33-1.36-1.41"/><path stroke="#231815" stroke-linecap="round" stroke-linejoin="round" stroke-width=".5" d="M560.43 104.6c-.04.07-.07.14-.11.21M560.32 104.81c-.04.08-.08.16-.13.25M561.25 112.45c-.18.43-.35.87-.51 1.31M563.69 107.24c-.9 1.69-1.72 3.43-2.44 5.21M560.74 113.76c-.22.58-.42 1.16-.62 1.75M559.71 116.77c-.6 1.96-1.09 3.95-1.46 5.96M560.12 115.51c-.14.42-.28.84-.41 1.26M558.01 124.15c-.07.44-.13.88-.19 1.32M558.25 122.73c-.09.47-.17.94-.24 1.42M553.66 128.62c-.69 9.57-1.04 19.17-1.04 28.77M557.49 128.88c-.68 9.49-1.02 18.99-1.02 28.51M560.43 104.6c.25-.49.51-.97.77-1.45.24-.43.48-.86.73-1.29.22-.38.44-.75.67-1.12.19-.31.39-.63.59-.94.08-.13.17-.27.26-.4l.23-.35c.07-.1.13-.2.2-.3.05-.08.11-.17.17-.25.04-.07.09-.13.13-.19.02-.03.03-.05.05-.08.01-.02.03-.04.04-.06s.02-.03.03-.05c0-.01.02-.02.02-.03 0 0 .01-.01.01-.02M563.69 107.24c.23-.43.46-.85.7-1.27.22-.38.44-.76.66-1.13.2-.33.4-.66.61-.99.18-.28.35-.55.54-.83.15-.22.29-.44.44-.66.11-.16.22-.33.34-.49l.12-.18c.03-.04.06-.09.09-.13.02-.03.04-.05.06-.08 0-.01.02-.02.03-.03"/><circle cx="567.29" cy="101.46" r=".25" fill="#231815"/><path stroke="#231815" stroke-linecap="round" stroke-linejoin="round" stroke-width=".5" d="m557.78 125.86.04-.39M557.82 545.76l-.03-.23"/><circle cx="567.29" cy="569.91" r=".25" fill="#231815"/><path stroke="#231815" stroke-linecap="round" stroke-linejoin="round" stroke-width=".5" d="m567.29 569.91-.03-.03c-.02-.03-.04-.05-.06-.08l-.09-.12c-.04-.06-.08-.11-.12-.17-.11-.16-.22-.31-.32-.47-.14-.21-.28-.42-.43-.63-.17-.26-.35-.53-.51-.79-.2-.31-.39-.63-.59-.95q-.69-1.14-1.32-2.31M564.32 573.3c0-.01 0-.02-.02-.02 0-.01-.02-.02-.03-.04s-.02-.04-.04-.05c-.02-.02-.03-.04-.05-.07s-.04-.05-.06-.08c-.05-.07-.09-.14-.14-.21l-.18-.27c-.07-.11-.14-.21-.21-.32-.08-.12-.16-.25-.24-.37-.09-.14-.18-.28-.27-.43-.21-.33-.42-.67-.62-1.01-.24-.4-.48-.8-.71-1.2-.26-.46-.52-.91-.77-1.38-.28-.51-.55-1.02-.81-1.54M801.23 568.34h-8.59M784.33 568.34h-8.87M826.319 562.76h15.75M886.7 561.61h-82.6M772.6 561.61h-42.51M717.05 107.76l-8.49 9.7M912.769 531.55h-10.87M714.88 531.55h-10.87M912.77 530.29h-2.86M706.88 530.29h-2.87M871.96 529.03h13.18M704.01 528.51h2.87M909.91 528.51h2.86M871.96 527.28h13.18M704.01 525.47h2.87M909.91 525.47h2.86M885.14 522.7h-13.18M885.14 520.5h-13.18M779.04 517.51h58.7M706.88 513.5h1.43M908.47 513.5h1.44M885.14 510.97h-13.18M885.14 508.55h-13.18M912.77 507.78h-2.86M706.88 507.78h-2.87M912.77 506.35h-2.86M706.88 506.35h-2.87M871.96 504.94h13.18M871.96 503.98h13.18M885.14 491.93h-13.18M885.14 489.74h-13.18M871.96 487.2h13.18M871.96 485.44h13.18M912.77 484.87h-4.3M704.01 484.87h4.3M912.77 483.61h-2.86M706.88 483.61h-2.87M704.01 478.97h2.87M909.91 478.97h2.86M704.01 475.93h2.87M909.91 475.93h2.86M837.74 445.92h-58.7M841.2 561.61l.87 1.15M724.46 556.96l-3.95-20.76M704.01 531.55v-25.2M704.01 484.87V154.12M704.01 132.64v-14.89M706.88 117.75v14.89M706.88 531.55v-25.2M706.88 484.87V154.12M707.31 484.87V161.28M707.31 132.64v-14.89M709.74 134.07v25.78M709.74 486.3v25.77M725.35 102v2.87M725.35 105.44v-.52M726.779 102v2.87M793.359 352h30.06M745.39 104.87v4.29M823.419 331.95h-30.06M770.45 454.51v54.41M771.88 149.82v14.32M774.029 109.16v-4.29M775.46 568.77v-4.29M791.93 333.38v17.18M801.229 564.48v4.29M844.9 280.12h-14.32M824.859 350.56v-17.18M826.319 562.76v.86M842.069 562.76v.86M842.75 104.87v4.29M844.899 280.12V265.8M846.33 508.92v-54.41M908.47 238.6h1.44M871.39 109.16v-4.29M871.96 529.68v-45.24M885.14 484.44v45.24M890 104.87V102M891.439 105.44v-.52M891.439 104.87V102M907.04 512.07V486.3M907.04 237.16v-54.4M907.04 159.85v-25.78M909.479 161.28v20.04M909.479 238.6v246.27M909.479 513.5v18.05M909.91 531.55v-25.2M909.91 484.87V154.12M909.91 132.64v-14.89M912.77 117.75v14.89M912.77 531.55v-25.2M912.77 484.87V154.12M908.47 181.32h1.44M896.279 536.2l-3.96 20.76M706.88 161.28h1.43M908.47 161.28h1.44M912.77 155.55h-2.86M706.88 155.55h-2.87M912.77 154.12h-2.86M706.88 154.12h-2.87M786.2 149.82h-14.32M827.199 561.61l-.88 1.15M704.01 132.64h4.3M908.47 132.64h4.3M704.01 131.21h2.87M909.91 131.21h2.86M912.77 119.18h-2.86M706.88 119.18h-2.87M912.769 117.75h-3.91M704.01 117.75h3.91M869.959 110.59h-25.77M772.599 110.59h-25.78M896.5 106.3h-4.2M724.489 106.3h-4.21M725.35 105.3h20.04M774.029 105.3h68.72M871.39 105.3h20.05M725.35 104.87h166.09M725.35 102h166.09"/><path stroke="#231815" stroke-linecap="round" stroke-linejoin="round" stroke-width=".25" d="m784.23 127.1-.72.36M779.929 130.94l-.35.18M784.409 128.19l.54-.18M778.499 130.57l.54-.18M779.039 134.23l-.54.18M793.709 130.75l1.08-.36M819.669 130.57l.53-.18M783.869 128.56l.54-.37M792.099 128.01l-.53.37M787.27 133.86l-.541.37M791.209 127.46l.72-.36M786.909 135.32l.72-.36M794.789 134.41l.36-.18M795.499 134.96l-.71.36M820.379 131.3l.72-.36M779.039 130.39l.36-.37M783.509 127.46l-.71.73M779.93 134.78l-.71.54M795.859 130.57l-.71.55M796.039 134.59l-.54.37M849.729 127.46l.721-.36M854.57 134.96l-.72.36M779.399 133.86l-.36.37M790.489 128.19l.72-.73M787.629 134.96l.72-.73M794.789 130.39l.36-.37M795.149 134.23l.35-.37M850.629 128.19l-.54.37M853.669 134.23l.54-.37M787.63 133.31l-.36.55M791.569 128.38l-.36.55M780.47 130.21l-.54.73M780.47 134.04l-.54.74M820.199 130.39l.36-.37M849.02 128.19l.709-.73M788.35 134.23l.35-.73M796.219 130.02l-.36.55M796.399 134.04l-.36.55M821.1 130.94l.54-.73M855.279 134.23l-.71.73M779.399 130.02l.18-.55M780.65 129.66l-.18.55M779.579 133.31l-.18.55M780.65 133.5l-.18.54M783.689 129.11l.18-.55M795.149 130.02l.35-.73M795.499 133.86l.18-.36M850.089 128.56l-.36.55M782.799 128.19l-.18.74M790.31 128.93l.18-.74M796.4 129.29l-.18.73M796.579 133.5l-.18.54M848.659 128.93l.36-.74M820.56 130.02l.18-.55M821.64 130.21l.17-.55M838.46 126.92l-2.86 8.59M834.879 134.41l2.51-7.49M774.029 135.51v-8.59M775.1 128.01v2.56M775.1 134.41v-2.74M779.579 132.76v.55M779.579 129.47v-.36M780.649 128.93v.73M780.649 132.58v.92M782.619 128.93v.73M783.689 129.47v-.36M787.629 132.76v.55M788.699 133.5v-.92M792.999 131.49v-.74M854.209 133.86l.18-.55M795.499 129.29v-.36M795.68 133.5v-.74M796.399 128.93v.36M796.579 132.76v.74M815.189 126.92v8.59M816.27 127.83v2.74M816.27 135.51v-3.84M848.479 129.84l.18-.91M855.459 133.31l-.18.92M849.73 129.11l-.17.73M820.739 129.47v-.54M821.81 129.66v-.73M823.419 135.51v-8.59M824.499 128.01v2.38M824.499 131.49v2.92M829.149 130.39v1.1M829.869 126.92v1.09M829.869 134.41v1.1M779.399 132.22l.18.54M780.47 132.03l.18.55M779.579 129.11l-.18-.55M782.079 133.13l.18.73M782.619 129.66l.18.73M848.479 132.58v-2.74M849.56 129.84v2.74M780.47 128.38l.18.55M783.329 133.68l-.17-.55M783.869 130.02l-.18-.55M788.169 128.93l-.18-.55M790.31 134.04l-.17-.54M796.399 132.03l.18.73M796.22 128.19l.18.74M782.26 133.86l.54.92M788.7 132.58l-.35-.73M786.909 128.56l.18.37M791.029 133.5l.18.36M795.679 132.76l-.35-.73M821.989 135.51l-1.61-4.21M819.31 131.67l1.43 3.84M820.74 128.93l-.18-.55M821.81 128.93l-.17-.55M848.659 133.5l-.18-.92M852.959 134.41l.71-.18M779.039 131.85l.36.37M783.869 134.23l-.54-.55M779.93 131.3l.54.73M779.93 127.65l.54.73M787.989 128.38l-.54-.73M787.27 132.22l.36.54M790.67 134.59l-.36-.55M796.039 131.49l.36.54M795.499 128.93l-.35-.55M832.369 126.92l2.51 7.49M834.159 135.51l-2.86-8.59M854.389 129.11l-.18-.55M849.56 132.58l.17.73M855.279 128.19l.18.92M851.349 128.01l-.72.18M794.789 135.32l-.72.19M786.729 134.23l-.709.18M784.95 126.92l-.721.18M853.849 135.32l-.89.19M850.449 127.1l.9-.18M793.89 134.59l.9-.18M786.02 135.51l.889-.19M779.219 135.32l-.9.19M793 127.83l-.9.18M782.799 134.78l.89.54M784.409 130.39l-.54-.37M791.209 134.96l-.54-.37M786.729 131.85l.541.37M779.22 127.1l.71.55M787.45 127.65l-.721-.55M779.399 128.56l-.36-.37M782.799 130.39l.71.73M788.349 131.85l-.72-.73M791.209 133.86l.36.37M786.56 128.19l.35.37M795.499 127.46l.72.73M821.64 128.38l-.54-.73M849.019 134.23l-.36-.73M791.93 127.1l1.25-.18M852.96 135.51h-1.61M835.599 135.51h-1.44M829.869 135.51h-6.45M794.07 135.51h-1.43M778.319 135.51h-4.29M784.589 135.51h1.43M815.189 135.51h1.08M820.739 135.51h1.25M792.819 134.59h1.07M786.019 134.41h-1.43M778.5 134.41h-3.4M824.499 134.41h5.37M851.35 134.41h1.61M790.14 133.5h.89M854.39 133.31h1.07M783.159 133.13h-1.08M775.1 131.67h3.4M784.949 131.67h1.07M816.27 131.67h3.04M829.149 131.49h-4.65M793.709 131.49h-.71M792.999 130.75h.71M786.019 130.57h-1.07M775.1 130.57h3.4M816.27 130.57h3.399M824.499 130.39h4.65M855.46 129.11h-1.07M791.21 128.93h-.9M787.089 128.93h1.08M852.96 128.01h-1.61M829.869 128.01h-5.37M778.5 128.01h-3.4M784.949 128.01h1.07M819.669 127.83h-3.399M793.709 127.83h-.71M819.489 126.92h-4.3M785.839 126.92h-.89M774.029 126.92h4.29M793.18 126.92h.36M823.419 126.92h6.45M831.299 126.92h1.07M837.39 126.92h1.07M851.35 126.92h1.61M793.539 126.92l1.25.18M794.789 131.67l-1.08-.18M783.689 135.32l.9.19M791.93 134.41l.89.18M786.909 130.75l-.889-.18M778.319 126.92l.9.18M786.729 127.1l-.89-.18M794.609 128.01l-.9-.18M851.349 135.51l-.9-.19M784.589 134.41l-.72-.18M792.64 135.51l-.71-.19M784.229 131.49l.721.18M786.02 131.67l.709.18M778.499 131.67l.54.18M784.949 130.57l-.54-.18M779.039 128.19l-.54-.18M786.02 128.01l.54.18M795.149 131.12l.89.37M779.579 131.12l.35.18M783.51 131.12l.72.37M791.929 135.32l-.72-.36M791.569 134.23l.36.18M787.629 131.12l-.72-.37M794.789 127.1l.71.36M795.329 132.03l-.54-.36M795.149 128.38l-.54-.37M821.099 127.65l-.72-.55M820.559 128.38l-.36-.37M849.729 134.96l-.709-.73M849.729 133.31l.36.55M820.379 127.1l-.89-.18M852.959 126.92l.89.18M850.629 134.23l.72.18M853.669 128.19l-.71-.18M820.199 128.01l-.53-.18M850.45 135.32l-.721-.36M853.85 127.1l.72.36M850.089 133.86l.54.37M854.209 128.56l-.54-.37M854.569 127.46l.71.73"/><path stroke="#231815" stroke-linecap="round" stroke-linejoin="round" stroke-width=".5" d="m908.22 117.46-8.48-9.7M779.04 445.92c-4.74 0-8.59 3.85-8.59 8.59M770.45 508.92c0 4.74 3.85 8.59 8.59 8.59M720.51 536.2a5.73 5.73 0 0 0-5.63-4.66M724.46 556.96c.51 2.7 2.88 4.66 5.63 4.66M804.1 561.61a2.86 2.86 0 0 0-2.86 2.86M775.46 564.48a2.86 2.86 0 0 0-2.86-2.86M791.93 350.56c0 .79.64 1.43 1.43 1.43M709.74 486.3c0-.79-.64-1.43-1.43-1.43M708.31 513.5c.79 0 1.43-.64 1.43-1.43M720.28 106.3c-1.24 0-2.42.53-3.23 1.47M793.36 331.95c-.79 0-1.43.64-1.43 1.43M745.39 109.16c0 .79.64 1.43 1.43 1.43M772.6 110.59c.79 0 1.43-.64 1.43-1.43M708.31 161.28c.79 0 1.43-.64 1.43-1.43M709.74 134.07c0-.79-.64-1.43-1.43-1.43M707.92 117.75c.25 0 .48-.11.65-.29M724.49 106.3c.47 0 .86-.38.86-.86M846.33 454.51c0-4.74-3.85-8.59-8.59-8.59M837.74 517.51c4.74 0 8.59-3.85 8.59-8.59M901.899 531.55a5.73 5.73 0 0 0-5.629 4.66M886.7 561.61c2.75 0 5.11-1.95 5.63-4.66M885.14 529.68c0 1.34 1.09 2.43 2.43 2.43s2.43-1.09 2.43-2.43M890 484.44c0-1.34-1.09-2.43-2.43-2.43s-2.43 1.09-2.43 2.43M871.96 484.44c0-1.34-1.09-2.43-2.43-2.43s-2.43 1.09-2.43 2.43M867.1 529.68c0 1.34 1.09 2.43 2.43 2.43s2.43-1.09 2.43-2.43M823.42 352c.79 0 1.43-.64 1.43-1.43M908.47 484.87c-.79 0-1.43.64-1.43 1.43M907.04 512.07c0 .79.64 1.43 1.43 1.43M899.74 107.76a4.3 4.3 0 0 0-3.23-1.47M824.86 333.38c0-.79-.64-1.43-1.43-1.43M907.04 237.16c0 .79.64 1.43 1.43 1.43M908.47 181.32c-.79 0-1.43.64-1.43 1.43M869.96 110.59c.79 0 1.43-.64 1.43-1.43M842.75 109.16c0 .79.64 1.43 1.43 1.43M908.47 132.64c-.79 0-1.43.64-1.43 1.43M907.04 159.85c0 .79.64 1.43 1.43 1.43M908.22 117.46c.16.19.4.29.65.29M891.439 105.44c0 .47.38.86.86.86M796.36 578.22h-16.03M796.94 577.65h-17.19M779.75 573.35h17.19M780.33 572.78h16.03M779.75 573.35v4.3M796.939 573.35v4.3M796.94 573.35a.57.57 0 0 0-.57-.57M780.33 572.78a.57.57 0 0 0-.57.57M779.75 577.65c0 .32.26.57.57.57M796.359 578.22c.32 0 .57-.26.57-.57M801.23 571.64h-25.77M801.23 568.77h-25.77M802.66 555.17h11.46M814.12 542.28h-11.46M719.62 441.91h2.86M722.48 430.46h-2.86M775.46 571.64v-2.87M778.319 571.64v-2.87M798.37 571.64v-2.87M801.229 571.64v-2.87M801.95 303.89v11.45M814.83 315.34v-11.45M867.1 529.68v-45.24M890 484.44v45.24M802.66 542.28c-3.56 0-6.44 2.88-6.44 6.44s2.88 6.44 6.44 6.44M722.479 441.91a5.73 5.73 0 0 0 5.73-5.73c0-3.17-2.56-5.73-5.73-5.73M719.62 430.46a5.73 5.73 0 0 0-5.73 5.73c0 3.17 2.56 5.73 5.73 5.73M726.779 466.97a5.01 5.01 0 1 0 0-10.02 5.01 5.01 0 0 0 0 10.02M722.48 240.03a5.73 5.73 0 1 0 0-11.46 5.73 5.73 0 1 0 0 11.46M726.779 154.83a5.01 5.01 0 1 0 0-10.02 5.01 5.01 0 0 0 0 10.02M814.12 555.17c3.56 0 6.44-2.88 6.44-6.44s-2.88-6.44-6.44-6.44M894.299 441.92a5.73 5.73 0 1 0 0-11.46 5.73 5.73 0 0 0 0 11.46M890 466.97a5.01 5.01 0 1 0 0-10.02 5.01 5.01 0 0 0 0 10.02M808.39 540.13a5.01 5.01 0 1 0 0-10.02 5.01 5.01 0 0 0 0 10.02M801.95 315.34c0 3.56 2.88 6.44 6.44 6.44s6.44-2.88 6.44-6.44M814.83 303.89c0-3.56-2.88-6.44-6.44-6.44s-6.44 2.88-6.44 6.44M894.299 240.03a5.73 5.73 0 1 0 0-11.46 5.73 5.73 0 0 0 0 11.46M890 154.83a5.01 5.01 0 1 0 0-10.02 5.01 5.01 0 0 0 0 10.02M808.39 144.67a5.01 5.01 0 1 0 0-10.02 5.01 5.01 0 0 0 0 10.02M842.069 563.62h-15.75M784.62 572.78v-1.14M792.069 572.78v-1.14"/><path stroke="#231815" stroke-linecap="round" stroke-linejoin="round" stroke-width=".25" d="m784.54 568.13-.48-.49M784.54 566.7l-.48-.49M784.54 565.26l-.48-.48M784.54 563.83l-.48-.49M784.54 562.4l-.48-.49M784.54 560.97l-.48-.49M792.149 567.41l.48.49M784.219 559.21l-.03-.02M784.54 559.54l-.32-.33M792.149 565.98l.48.49M792.149 564.55l.48.49M792.149 563.12l.48.49M792.149 561.69l.48.48M792.149 560.25l.48.49M784.05 567.63l.01.01M784.06 566.21l-.01-.01M784.06 564.78l-.01-.02M784.06 563.34l-.01-.01M784.05 561.9l.01.01M784.06 560.48l-.01-.01M792.63 567.9l.01.01M792.63 566.47l.01.01M792.63 565.04l.01.01M792.63 563.61l.01.01M792.63 562.17l.01.02M792.63 560.74l.01.01M784.05 560.04v.43M784.05 561.47v.43M784.05 562.9v.43M784.05 564.33v.43M784.05 565.77v.43M784.05 567.2v.43M792.64 560.75v.43M792.64 562.19v.43M792.64 563.62v.43M792.64 565.05v.43M792.64 566.48v.43M792.64 567.91v.43M784.06 561.46l-.01.01M784.06 562.89l-.01.01M784.06 564.32l-.01.01M784.06 565.75l-.01.02M784.06 567.19l-.01.01M792.63 561.2l.01-.02M792.63 562.63l.01-.01M792.63 564.06l.01-.01M792.63 565.49l.01-.01M792.64 566.91l-.01.01M784.06 560.03l.5-.51M784.06 561.46l.5-.5M784.06 562.89l.5-.5M784.06 564.32l.5-.5M784.06 565.75l.5-.5M784.06 567.19l.5-.51M792.63 559.76l-.5.51M784.189 568.49l.37-.38M792.63 561.2l-.5.5M792.63 562.63l-.5.5M792.63 564.06l-.5.5M792.63 565.49l-.5.5M792.63 566.92l-.5.51M792.63 568.36l-.13.13M792.63 566.92s-.01 0-.02.01c-.01 0-.02 0-.04.01-.02 0-.03 0-.05.01-.02 0-.04 0-.06.01-.03 0-.05 0-.08.01-.03 0-.06 0-.09.01l-.23.03M784.63 561.78c.13-.01.26-.03.39-.04.16-.01.32-.03.48-.04.39-.03.77-.05 1.16-.07.22-.01.43-.02.65-.04s.45-.02.68-.04.46-.02.69-.04.45-.02.68-.04.44-.02.65-.04c.2-.01.41-.02.61-.04.18-.01.37-.02.55-.04.16-.01.32-.02.48-.04.07 0 .14-.01.21-.02.06 0 .12-.01.19-.02.05 0 .11-.01.16-.02.05 0 .09-.01.14-.02.04 0 .08-.01.11-.02.03 0 .06-.01.09-.02.02 0 .04-.01.06-.02h.03M784.05 561.9v-.01h.03c.01 0 .03-.01.05-.01s.04-.01.06-.01c.03 0 .05-.01.08-.01s.07-.01.1-.01l.25-.03M784.63 562.78c-.08 0-.15.02-.23.03-.03 0-.06 0-.09.01-.03 0-.05 0-.08.01-.02 0-.04 0-.06.01-.02 0-.03 0-.05.01-.01 0-.02 0-.04.01 0 0-.01 0-.02.01M792.64 562.19s0 .01-.01.02h-.12c-.03 0-.07.01-.1.02-.04 0-.08.01-.13.02-.05 0-.1.01-.15.02-.13.01-.25.03-.38.04-.16.01-.31.03-.47.04-.18.01-.37.03-.55.04-.2.01-.41.03-.61.04-.22.01-.44.03-.66.04s-.46.03-.69.04-.47.02-.7.04-.46.02-.69.04-.45.02-.67.04c-.4.02-.79.05-1.19.07-.16.01-.33.02-.49.04-.13.01-.27.02-.4.04M784.05 563.33v-.01s.02 0 .02-.01c.01 0 .02 0 .03-.01.01 0 .03 0 .04-.01.02 0 .04 0 .05-.01.02 0 .04 0 .06-.01.02 0 .05 0 .07-.01.06 0 .12-.02.17-.02.07 0 .14-.02.21-.02.08 0 .16-.02.24-.02.09 0 .18-.02.27-.02.1 0 .2-.01.3-.02.11 0 .22-.01.33-.02.24-.02.48-.03.72-.04.26-.02.52-.03.79-.04s.55-.03.82-.04.55-.03.83-.04.53-.03.8-.04c.25-.01.5-.03.74-.04.11 0 .23-.01.34-.02.11 0 .21-.01.32-.02.1 0 .19-.01.29-.02.09 0 .17-.01.26-.02.08 0 .15-.01.23-.02.06 0 .13-.01.19-.02.05 0 .11-.01.16-.02.04 0 .08-.01.12-.02.02 0 .03 0 .05-.01.01 0 .02 0 .04-.01 0 0 .02 0 .03-.01 0 0 .01 0 .02-.01M792.64 563.62v.01s-.02 0-.02.01c-.01 0-.02 0-.03.01-.01 0-.03 0-.04.01-.02 0-.04 0-.05.01-.02 0-.04 0-.06.01-.02 0-.05 0-.07.01-.06 0-.12.02-.17.02-.07 0-.14.02-.21.02-.08 0-.16.02-.24.02-.09 0-.18.02-.27.02-.1 0-.2.01-.3.02-.11 0-.22.01-.33.02-.24.02-.48.03-.72.04-.26.02-.52.03-.79.04s-.55.03-.82.04-.55.03-.83.04-.53.03-.8.04c-.25.01-.5.03-.74.04-.11 0-.23.01-.34.02-.11 0-.21.01-.32.02-.1 0-.19.01-.29.02-.09 0-.17.01-.26.02-.08 0-.15.01-.23.02-.06 0-.13.01-.19.02-.05 0-.11.01-.16.02-.04 0-.08.01-.12.02-.02 0-.03 0-.05.01-.01 0-.02 0-.04.01 0 0-.02 0-.03.01 0 0-.01 0-.02.01M792.13 565.99l-.01.01s-.02 0-.02.01c-.02 0-.05.02-.07.02-.03 0-.07.02-.1.02-.05 0-.09.02-.14.02-.06 0-.11.01-.17.02-.07 0-.13.01-.2.02-.07 0-.15.01-.22.02-.08 0-.17.01-.25.02-.19.02-.38.03-.56.04-.21.02-.42.03-.64.04-.23.01-.46.03-.69.04s-.47.03-.71.04-.47.03-.71.04-.46.03-.69.04c-.21.01-.42.03-.64.04-.19.01-.38.03-.56.04-.08 0-.17.01-.25.02-.07 0-.15.01-.22.02-.07 0-.13.01-.2.02-.06 0-.11.01-.17.02-.05 0-.09.01-.14.02-.03 0-.07.01-.1.02-.02 0-.05.01-.07.02 0 0-.02 0-.02.01 0 0-.01 0-.01.01M784.05 564.76v-.01s.02 0 .02-.01c.01 0 .02 0 .03-.01.01 0 .03 0 .04-.01.02 0 .04 0 .05-.01.02 0 .04 0 .06-.01.02 0 .05 0 .07-.01.06 0 .12-.02.17-.02.07 0 .14-.02.21-.02.08 0 .16-.02.24-.02.09 0 .18-.02.27-.02.1 0 .2-.01.3-.02.11 0 .22-.01.33-.02.24-.02.48-.03.72-.04.26-.02.52-.03.79-.04s.55-.03.82-.04.55-.03.83-.04.53-.03.8-.04c.25-.01.5-.03.74-.04.11 0 .23-.01.34-.02.11 0 .21-.01.32-.02.1 0 .19-.01.29-.02.09 0 .17-.01.26-.02.08 0 .15-.01.23-.02.06 0 .13-.01.19-.02.05 0 .11-.01.16-.02.04 0 .08-.01.12-.02.02 0 .03 0 .05-.01.01 0 .02 0 .04-.01 0 0 .02 0 .03-.01 0 0 .01 0 .02-.01M792.64 565.05v.01s-.02 0-.02.01c-.01 0-.02 0-.03.01-.01 0-.03 0-.04.01-.02 0-.04 0-.05.01-.02 0-.04 0-.06.01-.02 0-.05 0-.07.01-.06 0-.12.02-.17.02-.07 0-.14.02-.21.02-.08 0-.16.02-.24.02-.09 0-.18.02-.27.02-.1 0-.2.01-.3.02-.11 0-.22.01-.33.02-.24.02-.48.03-.72.04-.26.02-.52.03-.79.04s-.55.03-.82.04-.55.03-.83.04-.53.03-.8.04c-.25.01-.5.03-.74.04-.11 0-.23.01-.34.02-.11 0-.21.01-.32.02-.1 0-.19.01-.29.02-.09 0-.17.01-.26.02-.08 0-.15.01-.23.02-.06 0-.13.01-.19.02-.05 0-.11.01-.16.02-.04 0-.08.01-.12.02-.02 0-.03 0-.05.01-.01 0-.02 0-.04.01 0 0-.02 0-.03.01 0 0-.01 0-.02.01M784.05 566.2v-.01s.02 0 .02-.01c.01 0 .02 0 .03-.01.01 0 .03 0 .04-.01.02 0 .04 0 .05-.01.02 0 .04 0 .06-.01.02 0 .05 0 .07-.01.06 0 .12-.02.17-.02.07 0 .14-.02.21-.02.08 0 .16-.02.24-.02.09 0 .18-.02.27-.02.1 0 .2-.01.3-.02.11 0 .22-.01.33-.02.24-.02.48-.03.72-.04.26-.02.52-.03.79-.04s.55-.03.82-.04.55-.03.83-.04.53-.03.8-.04c.25-.01.5-.03.74-.04.11 0 .23-.01.34-.02.11 0 .21-.01.32-.02.1 0 .19-.01.29-.02.09 0 .17-.01.26-.02.08 0 .15-.01.23-.02.06 0 .13-.01.19-.02.05 0 .11-.01.16-.02.04 0 .08-.01.12-.02.02 0 .03 0 .05-.01.01 0 .02 0 .04-.01 0 0 .02 0 .03-.01 0 0 .01 0 .02-.01M792.64 566.48v.01s-.02 0-.02.01c-.01 0-.02 0-.03.01-.01 0-.03 0-.04.01-.02 0-.04 0-.05.01-.02 0-.04 0-.06.01-.02 0-.05 0-.07.01-.06 0-.12.02-.17.02-.07 0-.14.02-.21.02-.08 0-.16.02-.24.02-.09 0-.18.02-.27.02-.1 0-.2.01-.3.02-.11 0-.22.01-.33.02-.24.02-.48.03-.72.04-.26.02-.52.03-.79.04s-.55.03-.82.04-.55.03-.83.04-.53.03-.8.04c-.25.01-.5.03-.74.04-.11 0-.23.01-.34.02-.11 0-.21.01-.32.02-.1 0-.19.01-.29.02-.09 0-.17.01-.26.02-.08 0-.15.01-.23.02-.06 0-.13.01-.19.02-.05 0-.11.01-.16.02-.04 0-.08.01-.12.02-.02 0-.03 0-.05.01-.01 0-.02 0-.04.01 0 0-.02 0-.03.01 0 0-.01 0-.02.01M792.07 567.03c-.13.01-.27.03-.4.04-.16.01-.33.03-.49.04-.4.03-.79.05-1.19.07-.22.01-.45.03-.67.04s-.46.02-.69.04-.47.02-.7.04-.46.02-.69.04-.44.02-.66.04c-.2.01-.41.02-.61.04-.18.01-.37.02-.55.04-.16.01-.31.02-.47.04-.13.01-.25.02-.38.04-.05 0-.1.01-.15.02-.04 0-.08.01-.13.02-.03 0-.07.01-.1.02h-.12s-.01.01-.01.02M792.64 567.91v.01h-.03c-.01 0-.03.01-.05.01s-.04.01-.06.01c-.03 0-.05.01-.08.01s-.07.01-.1.01l-.25.03M792.13 564.56l-.01.01s-.02 0-.02.01c-.02 0-.05.02-.07.02-.03 0-.07.02-.1.02-.05 0-.09.02-.14.02-.06 0-.11.01-.17.02-.07 0-.13.01-.2.02-.07 0-.15.01-.22.02-.08 0-.17.01-.25.02l-.88.06-1.01.06-1.07.06-.53.03-.51.03-.48.03-.45.03-.4.03c-.12 0-.23.02-.34.03-.09 0-.19.02-.28.03-.04 0-.08.01-.12.02-.03 0-.07.01-.1.02-.03 0-.05.01-.08.02-.02 0-.04 0-.06.02-.02 0-.03 0-.04.02 0 0-.02 0-.03.02M785.06 562.28c-.07 0-.13.02-.2.03-.03 0-.05 0-.08.01-.02 0-.05 0-.07.01-.02 0-.04 0-.06.01-.02 0-.03 0-.04.01-.01 0-.02 0-.03.01 0 0-.01 0-.02.01M792.13 563.13l-.01.01s-.02 0-.02.01c-.02 0-.05.02-.07.02-.03 0-.07.02-.1.02-.05 0-.09.02-.14.02-.06 0-.11.01-.17.02-.07 0-.13.01-.2.02-.07 0-.15.01-.22.02-.08 0-.17.01-.25.02-.19.02-.38.03-.56.04-.21.02-.42.03-.64.04-.23.01-.46.03-.69.04s-.47.03-.71.04-.47.03-.71.04-.46.03-.69.04c-.21.01-.42.03-.64.04-.19.01-.38.03-.56.04-.08 0-.17.01-.25.02-.07 0-.15.01-.22.02-.07 0-.13.01-.2.02-.06 0-.11.01-.17.02-.05 0-.09.01-.14.02-.03 0-.07.01-.1.02-.02 0-.05.01-.07.02 0 0-.02 0-.02.01 0 0-.01 0-.01.01M792.13 567.43s-.01 0-.02.01c-.01 0-.02 0-.03.01-.01 0-.03 0-.04.01-.02 0-.04 0-.06.01-.02 0-.05 0-.07.01-.03 0-.05 0-.08.01-.07 0-.13.02-.2.03M792.64 560.75v.01s-.02 0-.02.01c-.01 0-.02 0-.03.01-.01 0-.03 0-.04.01-.02 0-.04 0-.05.01-.02 0-.04 0-.06.01-.02 0-.05 0-.07.01-.06 0-.12.02-.17.02-.07 0-.14.02-.21.02-.08 0-.16.02-.24.02-.09 0-.18.02-.27.02-.1 0-.2.01-.3.02-.11 0-.22.01-.33.02-.24.02-.48.03-.72.04-.26.02-.52.03-.79.04s-.55.03-.82.04-.55.03-.83.04-.53.03-.8.04c-.25.01-.5.03-.74.04-.11 0-.23.01-.34.02-.11 0-.21.01-.32.02-.1 0-.19.01-.29.02-.09 0-.17.01-.26.02-.08 0-.15.01-.23.02-.06 0-.13.01-.19.02-.05 0-.11.01-.16.02-.04 0-.08.01-.12.02-.02 0-.03 0-.05.01-.01 0-.02 0-.04.01 0 0-.02 0-.03.01 0 0-.01 0-.02.01M784.189 568.49h8.31M790.35 557.03h-4.01M792.64 559.32l-.5-.5M792.14 558.82l-1.79-1.79M792.14 558.82v.01M784.62 568.77v-.28M792.07 568.77v-.28M792.64 559.32v.43M784.189 559.18v.01M784.06 560.03l-.01.01M792.63 568.36l.01-.02M784.189 559.18l2.15-2.15M792.64 559.75v.01h-.01M791.63 567.53c-.11.01-.23.03-.34.04-.14.01-.28.03-.42.04-.34.03-.68.05-1.02.07-.19.01-.38.02-.57.04s-.4.02-.6.04-.4.02-.61.04-.4.02-.6.04-.38.02-.58.04c-.18.01-.36.02-.54.04-.16.01-.33.02-.49.04-.14.01-.28.02-.43.04-.06 0-.12.01-.19.02-.06 0-.11.01-.17.02-.05 0-.1.01-.15.02-.04 0-.08.01-.12.02-.03 0-.07.01-.1.02-.03 0-.05.01-.08.02-.02 0-.04.01-.05.02h-.03M792.07 568.03l-.3.03-.35.03-.83.06-.97.06-1.05.06-1.06.06-1.01.06-.9.06c-.24.02-.49.03-.73.06M791.82 568.49c.11 0 .22-.02.33-.03.04 0 .09-.01.13-.02.04 0 .08-.01.11-.02.03 0 .06-.01.09-.02.02 0 .05-.01.07-.02.02 0 .03 0 .05-.02h.03M792.64 559.32v.01s-.02 0-.02.01c-.01 0-.02 0-.03.01-.01 0-.03 0-.04.01-.02 0-.04 0-.05.01-.02 0-.04 0-.06.01-.02 0-.05 0-.07.01-.06 0-.12.02-.17.02-.07 0-.14.02-.21.02-.08 0-.16.02-.24.02-.09 0-.18.02-.27.02-.1 0-.2.01-.3.02-.11 0-.22.01-.33.02-.24.02-.48.03-.72.04-.26.02-.52.03-.79.04s-.55.03-.82.04-.55.03-.83.04-.53.03-.8.04c-.25.01-.5.03-.74.04-.11 0-.23.01-.34.02-.11 0-.21.01-.32.02-.1 0-.19.01-.29.02-.09 0-.17.01-.26.02-.08 0-.15.01-.23.02-.06 0-.13.01-.19.02-.05 0-.11.01-.16.02-.04 0-.08.01-.12.02-.02 0-.03 0-.05.01-.01 0-.02 0-.04.01 0 0-.02 0-.03.01 0 0-.01 0-.02.01M792.63 559.76s-.01 0-.02.01c0 0-.02 0-.03.01-.01 0-.02 0-.04.01-.02 0-.03 0-.05.01-.04 0-.08.02-.12.02-.05 0-.11.02-.16.02-.06 0-.13.02-.19.02-.08 0-.15.02-.23.02-.09 0-.17.02-.26.02-.1 0-.19.01-.29.02-.11 0-.21.01-.32.02-.11 0-.23.01-.34.02-.25.02-.5.03-.74.04-.27.02-.53.03-.8.04s-.55.03-.83.04-.55.03-.82.04-.52.03-.79.04c-.24.01-.48.03-.72.04-.11 0-.22.01-.33.02-.1 0-.2.01-.3.02-.09 0-.18.01-.27.02-.08 0-.16.01-.24.02-.07 0-.14.01-.21.02a1 1 0 0 0-.17.02c-.02 0-.05 0-.07.01-.02 0-.04 0-.06.01-.02 0-.04 0-.05.01-.01 0-.03 0-.04.01-.01 0-.02 0-.03.01 0 0-.02 0-.02.01v.01M792.13 561.7h-.03c-.02 0-.04.01-.05.02-.03 0-.05.01-.08.02-.03 0-.07.01-.1.02-.04 0-.08.01-.12.02-.05 0-.1.01-.15.02-.06 0-.11.01-.17.02-.06 0-.12.01-.19.02-.14.01-.28.03-.43.04-.16.01-.33.02-.49.04-.18.01-.36.02-.54.04-.19.01-.38.02-.58.04s-.4.02-.6.04-.4.02-.61.04-.4.02-.6.04-.38.02-.57.04c-.34.02-.68.05-1.02.07-.14.01-.28.02-.42.04-.11.01-.23.02-.34.04M792.13 558.84l-.01.01s-.02 0-.02.01c-.02 0-.05.02-.07.02-.03 0-.07.02-.1.02-.05 0-.09.02-.14.02-.06 0-.11.01-.17.02-.07 0-.13.01-.2.02-.07 0-.15.01-.22.02-.08 0-.17.01-.25.02-.19.02-.38.03-.56.04-.21.02-.42.03-.64.04-.23.01-.46.03-.69.04s-.47.03-.71.04-.47.03-.71.04-.46.03-.69.04c-.21.01-.42.03-.64.04-.19.01-.38.03-.56.04-.08 0-.17.01-.25.02-.07 0-.15.01-.22.02-.07 0-.13.01-.2.02-.06 0-.11.01-.17.02-.05 0-.09.01-.14.02-.03 0-.07.01-.1.02-.02 0-.05.01-.07.02 0 0-.02 0-.02.01 0 0-.01 0-.01.01M792.139 558.83h-.03"/><path stroke="#231815" stroke-linecap="round" stroke-linejoin="round" stroke-width=".25" d="M792.1 558.84s-.05 0-.07.01c-.04 0-.07 0-.11.01-.05 0-.09 0-.14.01-.06 0-.11 0-.17.01-.07 0-.13 0-.2.01-.08 0-.15 0-.23.01-.18 0-.36.02-.54.02-.21 0-.42.01-.62.02-.23 0-.46.01-.69.02-.24 0-.48.01-.72.02s-.49.01-.74.02-.48.01-.73.02-.46.01-.69.02c-.21 0-.42.01-.63.02-.1 0-.19 0-.29.01-.09 0-.18 0-.26.01-.08 0-.16 0-.24.01-.07 0-.14 0-.21.01-.06 0-.12 0-.18.01-.05 0-.1 0-.15.01-.04 0-.08 0-.12.01h-.17M792.13 560.27l-.01.01s-.02 0-.02.01c-.02 0-.05.02-.07.02-.03 0-.07.02-.1.02-.05 0-.09.02-.14.02-.06 0-.11.01-.17.02-.07 0-.13.01-.2.02-.07 0-.15.01-.22.02-.08 0-.17.01-.25.02l-.88.06-1.01.06-1.07.06-.53.03-.51.03-.48.03-.45.03-.4.03c-.12 0-.23.02-.34.03-.09 0-.19.02-.28.03-.04 0-.08.01-.12.02-.03 0-.07.01-.1.02-.03 0-.05.01-.08.02-.02 0-.04 0-.06.02-.02 0-.03 0-.04.02 0 0-.02 0-.03.02"/><path stroke="#231815" stroke-linecap="round" stroke-linejoin="round" d="M891.44 104.92v.52c0 .47.38.86.86.86h4.21c1.24 0 2.42.53 3.23 1.47l8.48 9.69c.16.19.4.29.65.29h3.91v14.89h-4.3c-.79 0-1.43.64-1.43 1.43v25.77c0 .79.64 1.43 1.43 1.43h1.43v-7.16h2.86v330.75h-4.3c-.79 0-1.43.64-1.43 1.43v25.77c0 .79.64 1.43 1.43 1.43h1.43v-7.16h2.86v25.2h-10.87c-2.75 0-5.11 1.95-5.63 4.66l-3.95 20.76a5.73 5.73 0 0 1-5.63 4.66h-45.5l.88 1.15v.86h-15.75v-.86l.88-1.15h-23.1a2.86 2.86 0 0 0-2.86 2.86v7.16h-9.16v1.15h4.3c.32 0 .57.26.57.57v4.3c0 .32-.26.57-.57.57h-16.04a.57.57 0 0 1-.57-.57v-4.3c0-.32.26-.57.57-.57h4.3v-1.15h-9.16v-7.16a2.86 2.86 0 0 0-2.86-2.86H730.1c-2.75 0-5.11-1.95-5.63-4.66l-3.95-20.76a5.73 5.73 0 0 0-5.63-4.66h-10.87v-25.2h2.86v7.16h1.43c.79 0 1.43-.64 1.43-1.43v-25.77c0-.79-.64-1.43-1.43-1.43h-4.3V154.12h2.86v7.16h1.43c.79 0 1.43-.64 1.43-1.43v-25.77c0-.79-.64-1.43-1.43-1.43H704v-14.89h3.91c.25 0 .48-.11.65-.29l8.48-9.69c.82-.93 1.99-1.47 3.23-1.47h4.21c.47 0 .86-.38.86-.86v-3.44h166.09v2.86"/><path fill="url(#a)" d="M395.21 174.31H200.64v344.58h194.57z"/><path stroke="#231815" stroke-linecap="round" stroke-linejoin="round" stroke-width=".5" d="M209.35 577.34h177.16M186.38 126.35v428.03M409.47 554.38V126.35M395.21 518.89H200.64M200.64 518.89V174.31M395.21 174.31v344.58M200.64 174.31h194.57M386.51 103.39H209.35M186.38 554.38c0 12.68 10.28 22.96 22.96 22.96M386.51 577.34c12.68 0 22.96-10.28 22.96-22.96"/><path stroke="#898989" stroke-linecap="round" stroke-linejoin="round" stroke-width=".5" d="M386.51 579.57H209.35M184.16 554.38V126.35M411.7 126.35v428.03M209.35 101.16h177.16M184.16 554.38c0 13.91 11.28 25.19 25.19 25.19M386.51 579.57c13.91 0 25.19-11.28 25.19-25.19M411.7 126.35c0-13.91-11.28-25.19-25.19-25.19M209.35 101.16c-13.91 0-25.19 11.28-25.19 25.19"/><path stroke="#231815" stroke-linecap="round" stroke-linejoin="round" stroke-width=".5" d="M209.35 103.39c-12.68 0-22.96 10.28-22.96 22.96M409.47 126.35c0-12.68-10.28-22.96-22.96-22.96M330.53 146.41c7.478 0 13.54-6.062 13.54-13.54s-6.062-13.54-13.54-13.54-13.54 6.062-13.54 13.54 6.062 13.54 13.54 13.54M265.33 146.41c7.478 0 13.54-6.062 13.54-13.54s-6.062-13.54-13.54-13.54-13.54 6.062-13.54 13.54 6.062 13.54 13.54 13.54"/><path stroke="#231815" stroke-linecap="round" stroke-linejoin="round" d="M295.08 582.72h84.75M379.83 582.72h6.81M209.35 582.72H293M181 126.35v428.03M414.86 554.38V126.35M386.51 98H209.35M389.27 582.59c.58-.06 1.15-.13 1.72-.22M390.99 582.37c.15-.02.29-.05.44-.07M388.83 582.63c.15-.01.29-.03.43-.04M387.66 582.7c.21 0 .41-.02.62-.03M388.28 582.67c.18-.01.37-.02.55-.04M391.43 582.29c.7-.12 1.4-.27 2.09-.45M387.16 582.72c.11 0 .23 0 .34-.01M386.64 582.72h.52M393.52 581.84c.82-.21 1.63-.46 2.43-.74M293 582.72h2.08M181 554.38c0 1.88.19 3.77.56 5.61s.91 3.6 1.63 5.32c1.41 3.36 3.47 6.46 6.05 9.05a28.6 28.6 0 0 0 9.06 6.12c1.73.73 3.53 1.29 5.37 1.67s3.77.57 5.67.57M395.95 581.11c2.73-.97 5.33-2.36 7.66-4.12s4.31-3.81 5.98-6.15 3-4.97 3.89-7.73 1.38-5.79 1.38-8.73M414.86 126.35c0-1.88-.19-3.77-.56-5.61s-.91-3.6-1.63-5.32a28.5 28.5 0 0 0-6.05-9.05 28.7 28.7 0 0 0-9.06-6.12c-1.73-.73-3.53-1.29-5.37-1.67s-3.77-.57-5.67-.57M209.35 98c-1.9 0-3.8.19-5.67.57s-3.64.93-5.37 1.67a28.6 28.6 0 0 0-9.06 6.12 28.3 28.3 0 0 0-6.05 9.05 27.7 27.7 0 0 0-1.63 5.32c-.36 1.82-.56 3.73-.56 5.61"/><path fill="#898989" fill-rule="evenodd" d="M282.96 545.17v-.7l.02-.14v-.14l.02-.14.02-.14.02-.14.02-.14.02-.14.03-.14.03-.14.03-.14.04-.14.04-.14.05-.13.05-.13.06-.13.06-.13.07-.13.07-.12.08-.12.08-.12.09-.11.09-.11.1-.1.1-.1.11-.09.11-.09.12-.08.12-.08.12-.07.13-.06.13-.06.13-.05.13-.05.13-.04.14-.04.14-.04.14-.03.14-.03.14-.03.14-.02.14-.02.14-.02h.14l.14-.03h.14l.14-.02h.14l.14-.01h.98l.14.02h.14l.14.03.14.02.14.03.14.03.14.03.14.04.13.04.13.05.13.05.13.06.13.06.12.07.12.07.12.08.11.08.11.09.11.09.1.1.1.1.09.11.09.11.08.12.07.12.07.12.06.13.06.13.05.13.05.13.04.14.04.14.03.14.02.14.02.14.02.14v.14l.02.14v.42l-.02.14-.02.14-.02.14-.03.14-.03.14-.04.14-.05.13-.05.13-.06.13-.07.12-.08.12-.08.12-.09.11-.1.1-.1.1-.11.09-.11.08-.12.08-.12.07-.13.07-.13.06-.13.05-.13.05-.14.04-.14.04-.14.03-.14.03-.14.02-.14.02-.14.02h-.14l-.14.02h-.98l-.14-.01h-.14l-.14-.01h-.14l-.14-.02h-.14l-.14-.02h-.14l-.14-.02h-.14l-.14-.03h-.14l-.14-.03-.14-.02-.14-.02-.05-.1v-.99l.07-.07h3.26l.14-.01.14-.04.13-.06.12-.08.1-.1.09-.11.07-.12.06-.13.05-.13.04-.14.03-.14.02-.14.02-.14v-.14l.01-.14v-.42l-.02-.14-.02-.14-.03-.14-.04-.14-.05-.13-.06-.13-.07-.12-.09-.11-.1-.1-.11-.09-.12-.08-.13-.06-.13-.05-.14-.04-.14-.03-.14-.03-.14-.02-.14-.02h-.14l-.14-.02h-1.27l-.14.02-.14.02-.14.02-.14.03-.14.04-.13.05-.13.06-.12.07-.11.08-.1.1-.09.11-.08.11-.07.12-.06.13-.05.13-.05.13-.04.14-.03.14-.03.14-.02.14-.02.14-.02.14v.14l-.03.14v.14l-.02.14v5.04l-.08.06h-1.7l-.05-.09v-4.45m-14.18-.85.14.02.14.02.14.03.14.03.14.03.14.04.14.04.14.04.13.05.13.05.13.06.13.06.12.07.12.07.12.08.11.09.11.09.1.1.09.11.09.11.08.12.07.12.06.13.05.13.04.14.04.14.03.14.02.14v.14l.02.14v.42l-.02.14-.02.14-.02.14-.03.14-.04.14-.04.13-.05.13-.06.13-.07.13-.07.12-.08.12-.09.11-.1.1-.1.1-.11.09-.11.09-.12.08-.12.07-.12.07-.13.06-.13.06-.13.05-.13.05-.14.04-.14.04-.14.03-.14.03-.14.03-.14.02-.14.02-.14.02-.14.02h-.14l-.14.02h-.14l-.14.01h-1.12l-.14-.01h-.14l-.14-.02-.14-.02-.14-.02-.14-.02-.14-.02-.14-.03-.14-.03-.14-.03-.14-.04-.14-.04-.14-.04-.13-.05-.13-.05-.13-.05-.13-.06-.13-.06-.12-.07-.12-.08-.11-.09-.09-.11-.04-.13v-1.12l.14.05.13.05.13.05.13.05.13.05.13.05.13.04.14.04.14.04.14.04.14.04.14.03.14.03.14.03.14.03.14.02.14.02.14.02.14.02h.14l.14.02h1.4l.14-.01h.14l.14-.03.14-.02.14-.03.14-.03.13-.04.13-.06.12-.07.11-.09.1-.1.08-.12.06-.13.04-.14.03-.14v-.14l.02-.14v-.14l-.02-.14-.03-.14-.04-.13-.07-.12-.09-.11-.11-.09-.12-.07-.13-.06-.13-.06-.13-.04-.14-.03-.14-.03-.14-.02-.14-.02-.14-.02-.14-.02-.14-.02-.14-.02-.14-.02-.14-.02-.14-.02-.14-.02-.14-.02-.14-.02-.14-.02-.14-.02-.14-.02-.14-.03-.14-.03-.14-.03-.14-.03-.14-.03-.14-.04-.14-.04-.13-.05-.13-.05-.13-.05-.13-.06-.13-.06-.12-.07-.12-.08-.11-.08-.11-.09-.1-.1-.09-.11-.09-.11-.08-.12-.07-.13-.06-.13-.05-.13-.04-.14-.03-.14-.02-.14v-.14l-.02-.14v-.42l.03-.14.02-.14.03-.14.04-.14.04-.14.05-.13.06-.13.07-.13.07-.12.08-.12.09-.11.1-.1.1-.1.11-.09.11-.08.12-.08.12-.07.13-.07.13-.06.13-.05.13-.05.13-.04.14-.04.14-.03.14-.03.14-.03.14-.02.14-.02.14-.02h.14l.14-.02h.14l.14-.01h1.12l.14.02h.14l.14.03.14.02.14.02.14.02.14.02.14.03.14.03.14.03.14.03.14.04.14.04.14.04.13.05.13.05.13.05.13.06.13.07.12.08.09.11v1.13l-.13-.03-.14-.04-.14-.04-.14-.03-.14-.03-.14-.03-.14-.03-.14-.03-.14-.03-.14-.03-.14-.02-.14-.02-.14-.02-.14-.02-.14-.02h-.14l-.14-.03h-.14l-.14-.02h-1.55l-.14.02h-.14l-.14.03-.14.02-.14.03-.14.04-.13.06-.12.07-.11.09-.09.11-.06.13-.04.14-.02.14v.14l-.02.14v.14l.04.14.06.13.08.11.11.09.12.07.13.06.14.04.14.03.14.03.14.02.14.02.14.02.14.02.14.02.14.02.14.02.14.02.14.02.14.02.14.02.14.02.14.02.14.02.23.03m10.25 3.58.09-.11.07-.12.06-.13.04-.13.03-.14.02-.14v-.14l.02-.14v-5.8l.02-.12h1.56l.11.03v5.95l-.01.14v.14l-.02.14-.02.14-.02.14-.03.14-.03.14-.03.14-.04.14-.04.13-.05.13-.06.13-.06.13-.07.12-.08.12-.08.12-.09.11-.1.1-.1.1-.11.09-.11.08-.12.08-.12.07-.13.06-.13.05-.13.04-.14.04-.14.03-.14.02h-.14l-.14.02h-2.97l-.14-.03-.14-.02-.14-.03-.14-.04-.13-.05-.13-.05-.13-.06-.12-.07-.12-.08-.11-.08-.11-.09-.1-.1-.1-.1-.09-.11-.08-.11-.08-.12-.07-.12-.07-.13-.06-.13-.06-.13-.05-.13-.05-.13-.04-.14-.04-.14-.03-.14-.03-.14-.02-.14-.02-.14-.02-.14v-.14l-.02-.14v-5.81l.11-.03h1.56l.03.11v5.67l.01.14v.14l.04.14.03.14.04.14.05.13.06.13.08.12.09.11.1.1.12.08.13.06.13.05.14.03.14.02h.14l.14.01h1.84l.14-.02.14-.02.14-.04.13-.05.13-.06.21-.15m36.55-6.41.09-.11.1-.1.11-.09.12-.08.12-.08.12-.07.13-.06.13-.05.13-.05.14-.04.14-.03.14-.03.14-.02h.14l.14-.02h1.55l.14.03.14.03.14.03.14.04.13.05.13.05.13.06.13.07.12.07.12.08.11.09.11.09.1.1.1.1.09.11.08.11.08.12.07.12.06.13.06.13.05.13.05.13.04.14.04.14.03.14.03.14.02.14.02.14v.14l.02.14v6.09l-.06.08h-1.56v-6.24l-.03-.14-.03-.14-.04-.14-.04-.13-.06-.13-.07-.12-.08-.12-.09-.11-.1-.1-.11-.09-.12-.07-.13-.06-.13-.05-.14-.04-.14-.03-.14-.02h-.14l-.14-.02h-.28l-.14.02-.14.02-.14.03-.13.05-.13.06-.12.07-.11.08-.1.1-.09.11-.08.12-.07.13-.05.13-.04.13-.03.14-.03.14-.02.14v.14l-.02.14v5.95l-.12.02h-1.54v-6.25l-.02-.14-.02-.14-.03-.14-.04-.14-.05-.13-.07-.13-.08-.12-.09-.11-.11-.09-.12-.08-.12-.07-.13-.05-.14-.04-.14-.03-.14-.02-.14-.02h-.14l-.14-.02h-.42l-.14.04-.14.03-.14.04-.13.05-.12.07-.12.08-.11.09-.09.11-.08.12-.07.12-.06.13-.04.13-.03.14-.02.14-.02.14v.14l-.02.14v5.95l-.1.04h-1.42l-.08-.06v-6.09l.02-.14v-.14l.03-.14.02-.14.03-.14.03-.14.03-.14.04-.14.04-.13.05-.13.06-.13.06-.13.07-.12.07-.12.08-.12.09-.11.09-.11.1-.1.11-.09.11-.09.12-.08.12-.07.13-.07.13-.06.13-.05.13-.04.14-.04.14-.03.14-.02.14-.02h.14l.14-.02h1.27l.14.02.14.02.14.03.14.03.14.04.14.04.13.05.13.05.13.06.13.07.12.07.12.08.11.09.2.19m16.33 3.75v.14l.01.14v.42l-.01.14v.14l-.03.14-.02.14-.02.14-.03.14-.03.14-.03.14-.04.14-.04.14-.04.13-.05.13-.05.13-.06.13-.06.13-.07.13-.07.12-.07.12-.08.12-.08.11-.09.11-.09.11-.1.1-.1.1-.11.09-.11.09-.11.08-.12.08-.12.07-.12.07-.13.06-.13.06-.13.05-.13.05-.13.05-.14.04-.14.04-.14.03-.14.03-.14.02-.14.02-.14.02h-.14l-.14.02h-.7l-.14-.01h-.42l-.14-.01h-.14l-.14-.02-.14-.02-.14-.02-.14-.02-.14-.03-.14-.03-.14-.03-.14-.04-.14-.04-.13-.05-.13-.05-.13-.05-.13-.06-.13-.06-.12-.07-.12-.07-.12-.08-.11-.09-.11-.09-.1-.1-.1-.1-.09-.11-.09-.11-.08-.12-.08-.12-.07-.12-.06-.13-.06-.13-.05-.13-.04-.14-.04-.14-.03-.14-.02-.14-.02-.14v-.14l-.02-.14v-.42l.03-.14.03-.14.04-.14.05-.13.06-.13.07-.12.08-.12.09-.11.09-.11.1-.1.11-.09.11-.08.12-.08.12-.07.13-.07.13-.06.13-.05.13-.05.14-.04.14-.04.14-.03.14-.03.14-.03.14-.02.14-.02.14-.02h.14l.14-.03h.14l.14-.02h.42l.14.01h.14l.14.03.14.02.14.02.14.02.14.02.14.02.14.02.14.02.14.02.14.02.14.02.14.02.14.03.14.03.14.03.14.03.07.09v.85l-.13.02h-3.4l-.14.01-.14.03-.13.05-.12.07-.11.09-.09.11-.07.12-.05.13-.03.14-.02.14v.42l.01.14.02.14.03.14.04.14.06.13.07.12.09.11.1.1.11.08.12.07.13.05.14.04.14.03.14.02h.14l.14.02h.14l.14.02h.14l.14.01h.98l.14-.02h.14l.14-.03.14-.02.14-.03.14-.04.13-.05.13-.06.12-.07.12-.08.11-.09.1-.1.09-.11.08-.12.06-.13.05-.13.05-.13.04-.14.03-.14.03-.14.02-.14.02-.14.02-.14v-.14l.03-.14v-.14l.02-.14v-.98l-.01-.14v-.14l-.02-.14-.02-.14-.02-.14-.02-.14-.03-.14-.03-.14-.03-.14-.04-.14-.05-.13-.05-.13-.06-.13-.07-.12-.08-.12-.09-.11-.1-.1-.11-.09-.12-.08-.12-.07-.13-.06-.13-.05-.14-.04-.14-.03-.14-.03-.14-.02-.14-.02h-.14l-.14-.02h-.14l-.14-.01h-.7l-.14.02h-.14l-.14.02h-.14l-.14.03-.14.02-.14.02-.14.02-.14.02-.14.02-.14.02-.14.02-.14.02-.14.02-.14.02-.14.03-.14.03-.14.03-.14.03-.14.03-.14.03-.14.03-.14.03h-.1v-1.01l.07-.12.09-.11.11-.09.12-.08.12-.07.13-.07.13-.06.13-.05.13-.05.14-.04.14-.04.14-.03.14-.03.14-.03.14-.02.14-.02.14-.02.14-.02.14-.02h.14l.14-.02h.14l.14-.02h.14l.14-.01h.98l.14.01h.14l.14.02h.14l.14.03.14.02.14.02.14.02.14.03.14.03.14.03.14.04.14.04.13.05.13.05.13.06.13.06.13.07.12.07.12.08.11.08.11.09.11.09.1.1.1.1.09.11.08.11.08.12.07.12.07.12.06.13.06.13.05.13.05.13.04.13.04.14.04.14.03.14.03.14.03.14.02.14.02.14.02.14v.14l.03.14v.14l.02.14v.14l.01.14v.31m-38.61-1.28v-.42l.02-.14v-.14l.03-.14.02-.14.03-.14.03-.14.04-.14.04-.14.05-.13.05-.13.06-.13.06-.13.07-.12.08-.12.08-.12.09-.11.1-.1.1-.1.11-.09.11-.09.12-.08.12-.07.13-.06.13-.06.13-.05.13-.04.14-.04.14-.03.14-.02.14-.02h.14l.14-.02h.7l.14.02h.14l.14.02h.14l.14.02h.14l.14.03.14.02.14.02.14.02.14.02.14.02.03.12V542l-.09.06h-1.98l-.14.01h-.14l-.14.03-.14.03-.13.04-.13.06-.12.08-.1.1-.08.12-.06.13-.05.13-.03.14-.03.14-.02.14v.14l-.02.14v6.23h-1.7l-.08-.06v-5.84m11.74.79h.14l.14-.02.14-.03.13-.04.13-.06.11-.09.09-.11.07-.12.05-.13.03-.14.02-.14v-.42l-.02-.14-.02-.14-.03-.14-.04-.14-.05-.13-.07-.13-.08-.11-.1-.1-.11-.08-.12-.07-.13-.05-.14-.04-.14-.03-.14-.02-.14-.02h-.14l-.14-.02h-.14l-.14-.01h-1.12l-.14.01h-.14l-.14.03-.14.02-.14.03-.14.04-.13.05-.13.06-.12.07-.12.08-.11.09-.1.1-.09.11-.08.12-.07.12-.06.13-.05.13-.04.14-.04.14-.03.14-.03.14-.02.14-.02.14-.02.14v.14l-.02.14v.14l-.01.14v.98l.01.14v.14l.02.14.02.14.02.14.02.14.03.14.03.14.04.14.05.13.05.13.06.13.07.12.08.12.09.11.1.1.11.09.11.08.12.07.13.06.13.05.13.04.14.04.14.03.14.02.14.02h.14l.14.02h.14l.14.01h1.26l.14-.01h.14l.14-.02h.14l.14-.03.14-.02.14-.02.14-.02.14-.02.14-.03.14-.03.14-.03.14-.03.14-.03.14-.03.14-.03.14-.03.14-.03.14-.04.14-.04.02.12v.85l-.03.14-.08.12-.1.1-.12.08-.12.07-.13.06-.13.06-.13.05-.13.05-.14.04-.14.04-.14.04-.14.03-.14.03-.14.03-.14.02-.14.02-.14.02-.14.02-.14.02h-.14l-.14.03h-.14l-.14.02h-.14l-.14.01h-.98l-.14-.01h-.14l-.14-.02h-.14l-.14-.03-.14-.02-.14-.02-.14-.03-.14-.03-.14-.03-.14-.04-.14-.04-.13-.05-.13-.05-.13-.05-.13-.06-.13-.06-.12-.07-.12-.08-.12-.08-.11-.09-.11-.09-.1-.1-.1-.1-.09-.11-.09-.11-.08-.12-.08-.12-.07-.12-.07-.13-.06-.13-.06-.13-.05-.13-.05-.13-.04-.14-.04-.14-.03-.14-.03-.14-.03-.14-.02-.14-.02-.14-.02-.14-.02-.14v-.14l-.02-.14v-.14l-.02-.14v-.98l.01-.14v-.14l.02-.14v-.14l.03-.14.02-.14.02-.14.02-.14.03-.14.03-.14.03-.14.04-.14.04-.14.04-.13.05-.13.05-.13.06-.13.06-.13.07-.12.07-.12.08-.12.09-.11.09-.11.1-.1.1-.1.11-.09.11-.09.11-.08.12-.08.12-.07.13-.07.13-.06.13-.06.13-.05.13-.05.14-.04.14-.04.14-.03.14-.03.14-.03.14-.02.14-.02.14-.02.14-.02h.14l.14-.02h.14l.14-.02h1.12l.14.01h.14l.14.02.14.02.14.02.14.02.14.03.14.03.14.03.14.04.13.04.13.05.13.05.13.06.13.06.12.07.12.07.12.08.11.09.11.09.1.1.1.1.09.11.08.11.08.12.07.12.06.13.06.13.05.13.04.13.04.14.03.14.03.14.02.14.02.14v.14l.02.14v.42l-.03.14-.03.14-.04.14-.05.13-.06.13-.07.13-.07.12-.08.11-.09.11-.1.1-.11.09-.11.09-.12.08-.12.07-.13.07-.13.06-.13.05-.13.05-.14.04-.14.04-.14.03-.14.03-.14.03-.14.02-.14.02-.14.02h-.14l-.14.02h-1.26l-.14-.01h-.14l-.14-.01h-.14l-.14-.02h-.14l-.14-.02h-.14l-.14-.02h-.14l-.14-.03-.14-.02-.14-.02-.13-.03v-1.13h.13l.14-.01h3.03z" clip-rule="evenodd"/><path stroke="#231815" stroke-linecap="round" stroke-linejoin="round" stroke-width=".5" d="M186.53 554.37c0 .64.03 1.27.08 1.91.38 4.5 2.88 8.56 6.74 10.91a29.04 29.04 0 0 0 15.15 4.26h178.87c5.35 0 10.59-1.47 15.15-4.26 3.86-2.36 6.36-6.41 6.74-10.91.05-.63.08-1.27.08-1.91"/><path fill="#b5b5b6" stroke="#b5b5b6" stroke-miterlimit="10" stroke-width=".05" d="M265.33 135.53a2.66 2.66 0 1 0 0-5.32 2.66 2.66 0 0 0 0 5.32Z"/><path stroke="#231815" stroke-miterlimit="10" stroke-width=".25" d="M265.33 140.8a7.93 7.93 0 0 0 7.93-7.93 7.93 7.93 0 0 0-7.93-7.93 7.93 7.93 0 0 0-7.93 7.93 7.93 7.93 0 0 0 7.93 7.93Z"/><path stroke="#b5b5b6" stroke-miterlimit="10" stroke-width=".25" d="M265.33 141.89a9.02 9.02 0 0 0 9.02-9.02 9.02 9.02 0 0 0-9.02-9.02 9.02 9.02 0 0 0-9.02 9.02 9.02 9.02 0 0 0 9.02 9.02Z"/><path fill="#b5b5b6" stroke="#b5b5b6" stroke-miterlimit="10" stroke-width=".05" d="M330.53 135.53a2.66 2.66 0 1 0 0-5.32 2.66 2.66 0 0 0 0 5.32Z"/><path stroke="#231815" stroke-miterlimit="10" stroke-width=".25" d="M330.53 140.8a7.93 7.93 0 1 0 0-15.86 7.93 7.93 0 0 0 0 15.86Z"/><path stroke="#b5b5b6" stroke-miterlimit="10" stroke-width=".25" d="M330.53 141.89a9.02 9.02 0 1 0 0-18.04 9.02 9.02 0 0 0 0 18.04Z"/><path stroke="#231815" stroke-miterlimit="10" stroke-width=".5" d="M229.9 130.06a6.68 6.68 0 1 0 0-13.36 6.68 6.68 0 0 0 0 13.36ZM229.9 148.89a6.68 6.68 0 1 0 0-13.36 6.68 6.68 0 0 0 0 13.36ZM365.96 130.06a6.68 6.68 0 1 0 0-13.36 6.68 6.68 0 0 0 0 13.36ZM365.96 148.89a6.68 6.68 0 1 0 0-13.36 6.68 6.68 0 0 0 0 13.36Z"/><path fill="#040000" d="M201.98 137.19a1.33 1.33 0 1 0 0-2.66 1.33 1.33 0 0 0 0 2.66"/><defs><linearGradient id="a" x1="163.14" x2="432.72" y1="481.39" y2="211.81" gradientUnits="userSpaceOnUse"><stop stop-color="#bfbfbf"/><stop offset=".14" stop-color="#c2c2c2"/><stop offset=".27" stop-color="#cecece"/><stop offset=".4" stop-color="#e0e0e0"/><stop offset=".53" stop-color="#fbfbfb"/><stop offset=".54" stop-color="#e0e0e0"/><stop offset=".55" stop-color="#cdcdcd"/><stop offset=".56" stop-color="#ccc"/><stop offset="1" stop-color="#fff"/></linearGradient></defs></svg>