<svg xmlns="http://www.w3.org/2000/svg" width="263" height="40" fill="none" viewBox="0 0 263 40"><path fill="#222" d="M31.207 29.554c0 6.097-4.715 9.65-13.754 9.65H0V3.65h16.454c8.43 0 12.942 3.601 12.942 9.24 0 3.65-1.81 6.35-4.512 7.82 3.763 1.215 6.323 4.217 6.323 8.829zM6.526 8.83v9.793h9.226c4.512 0 7.072-1.627 7.072-4.88 0-3.255-2.56-4.929-7.072-4.929H6.526zm18.109 20.06c0-3.554-2.654-5.133-7.572-5.133H6.526v10.251h10.537c4.918 0 7.572-1.58 7.572-5.134zM36.078 3.807C36.078 1.674 37.779 0 40.09 0s4.012 1.58 4.012 3.649c0 2.227-1.655 3.965-4.012 3.965-2.358 0-4.012-1.675-4.012-3.807m.858 8.277h6.276v27.105h-6.276zM48.193 25.636c0-8.119 6.026-13.852 14.253-13.852s14.3 5.733 14.3 13.852-5.963 13.916-14.3 13.916-14.253-5.78-14.253-13.916m22.23 0c0-5.18-3.418-8.482-7.977-8.482-4.558 0-7.93 3.301-7.93 8.482s3.419 8.483 7.93 8.483c4.512 0 7.978-3.302 7.978-8.483M79.555 35.43l2.263-5.134c2.81 2.29 7.275 3.917 11.584 3.917 5.464 0 7.774-1.974 7.774-4.612 0-7.66-20.872-2.638-20.872-15.843 0-5.734 4.512-10.615 14.144-10.615 4.215 0 8.633 1.122 11.693 3.144l-2.061 5.133c-3.153-1.88-6.62-2.796-9.679-2.796-5.417 0-7.634 2.133-7.634 4.818 0 7.566 20.826 2.638 20.826 15.685 0 5.687-4.558 10.567-14.206 10.567-5.465 0-10.944-1.721-13.848-4.264zM128.575 37.72c-1.499 1.216-3.762 1.832-6.026 1.832-5.87 0-9.227-3.143-9.227-9.145V17.359h-4.417v-5.07h4.417V6.097h6.276v6.192h7.181v5.07h-7.181v12.89c0 2.637 1.311 4.06 3.715 4.06 1.312 0 2.56-.364 3.513-1.122l1.749 4.517zM155.114 23.299v15.89h-5.917v-3.301c-1.498 2.337-4.418 3.648-8.43 3.648-6.12 0-9.991-3.395-9.991-8.119 0-4.722 3.013-8.071 11.147-8.071h6.931v-.41c0-3.713-2.201-5.892-6.666-5.892-3.013 0-6.12 1.01-8.134 2.685l-2.451-4.612c2.857-2.228 7.025-3.35 11.334-3.35 7.728 0 12.192 3.713 12.192 11.532zm-6.26 7.408v-3.144h-6.479c-4.262 0-5.416 1.627-5.416 3.602 0 2.29 1.903 3.76 5.12 3.76s5.713-1.422 6.775-4.218M177.439 11.784v6.033c-.546-.094-.999-.157-1.452-.157-4.761 0-7.774 2.843-7.774 8.371v13.142h-6.277v-27.09h5.964v3.965c1.811-2.843 5.074-4.264 9.539-4.264"/><path fill="url(#a)" d="M220.246 30.975h-17.562l-3.466 8.23h-6.729l15.799-35.54h6.416l15.861 35.54h-6.822l-3.513-8.23zm-2.17-5.18-6.62-15.528-6.571 15.527z"/><path fill="url(#b)" d="M233.202 3.807c0-2.133 1.701-3.807 4.012-3.807s4.012 1.58 4.012 3.649c0 2.227-1.655 3.965-4.012 3.965s-4.012-1.675-4.012-3.807m.843 8.277h6.275v27.105h-6.275z"/><path fill="url(#c)" d="M262.802 11.784v6.033c-.546-.094-.999-.157-1.452-.157-4.761 0-7.774 2.843-7.774 8.371v13.142H247.3v-27.09h5.964v3.965c1.81-2.843 5.073-4.264 9.538-4.264"/><defs><linearGradient id="a" x1="189.866" x2="234.273" y1="13.711" y2="38.052" gradientUnits="userSpaceOnUse"><stop stop-color="#009de6"/><stop offset="1" stop-color="#8c71f2"/></linearGradient><linearGradient id="b" x1="198.311" x2="242.717" y1="-1.69" y2="22.651" gradientUnits="userSpaceOnUse"><stop stop-color="#009de6"/><stop offset="1" stop-color="#8c71f2"/></linearGradient><linearGradient id="c" x1="200.278" x2="244.67" y1="-5.26" y2="19.081" gradientUnits="userSpaceOnUse"><stop stop-color="#009de6"/><stop offset="1" stop-color="#8c71f2"/></linearGradient></defs></svg>