<svg xmlns="http://www.w3.org/2000/svg" width="45" height="45" fill="none" viewBox="0 0 45 45"><g clip-path="url(#a)"><path fill="url(#b)" d="M35.438 0H9.561A9.563 9.563 0 0 0 0 9.563v25.874A9.563 9.563 0 0 0 9.563 45h25.874A9.563 9.563 0 0 0 45 35.438V9.561A9.563 9.563 0 0 0 35.438 0"/><path stroke="#fff" stroke-miterlimit="10" stroke-width="2" d="m23.873 7.436 4.32 8.741 9.652 1.407a1.52 1.52 0 0 1 1.238 1.046c.18.551.033 1.159-.383 1.575l-6.986 6.806 1.654 9.608a1.52 1.52 0 0 1-.608 1.496 1.56 1.56 0 0 1-1.62.112l-8.629-4.533-8.628 4.533a1.56 1.56 0 0 1-1.62-.112 1.52 1.52 0 0 1-.608-1.496l1.654-9.608-6.986-6.806a1.51 1.51 0 0 1-.383-1.575c.18-.551.664-.956 1.237-1.046l9.653-1.407 4.32-8.74a1.52 1.52 0 0 1 1.373-.856 1.54 1.54 0 0 1 1.372.855z"/></g><defs><linearGradient id="b" x1="22.5" x2="22.5" y1="45.214" y2=".214" gradientUnits="userSpaceOnUse"><stop stop-color="#8b185f"/><stop offset="1" stop-color="#fc6"/></linearGradient><clipPath id="a"><path fill="#fff" d="M0 0h45v45H0z"/></clipPath></defs></svg>