<svg xmlns="http://www.w3.org/2000/svg" id="_레이어_1" data-name="레이어_1" viewBox="0 0 46.1 40"><defs><clipPath id="clippath"><path d="M0 0h46.1v40H0z" style="fill:none"/></clipPath><style>.st0{fill:#fff}</style></defs><g style="clip-path:url(#clippath)"><path d="M34.6 0H11.5L0 20l11.5 20h23.1l11.5-20z" style="fill:#f4f4f4"/><path d="M15.7 9.8V6.5h1.2c.2 0 .4 0 .6.1.2 0 .3.2.3.3s.1.3.1.4v.4s-.1.2-.2.2c0 0-.2 0-.3.1.1 0 .2 0 .3.1.1 0 .2.2.3.3 0 .1.1.3.1.4s0 .3-.1.4c0 .1-.2.2-.4.3-.2 0-.4.1-.6.1h-1.2Zm.4-.3h.8c.3 0 .4 0 .6-.2.1-.1.2-.2.2-.4v-.3s-.1-.2-.2-.2h-1.2v1.2Zm0-1.5h1s.2-.1.2-.2v-.3c0-.1 0-.3-.2-.4-.1-.1-.3-.2-.5-.2h-.8V8Zm2.5 1.8V7.3h.4v2.5zm.2-2.9h-.2v-.4h.4v.4zm1.9 3c-.2 0-.4 0-.6-.2-.2-.1-.3-.3-.4-.4 0-.2-.1-.4-.1-.7s0-.5.1-.7c0-.2.2-.3.4-.5.2-.1.4-.2.6-.2s.4 0 .6.2c.2.1.3.3.4.5 0 .2.1.4.1.7s0 .5-.1.7c0 .2-.2.3-.4.4s-.4.2-.6.2m0-.3c.2 0 .3 0 .4-.1.1 0 .2-.2.2-.3v-1c0-.1-.1-.3-.2-.3s-.3-.1-.4-.1-.3 0-.4.1c-.1 0-.2.2-.2.3v1c0 .1.1.3.2.3s.3.1.4.1m3.6-2.2c0-.2 0-.3-.2-.4-.1 0-.3-.1-.5-.1h-.4c-.1 0-.2.1-.3.2v.5s0 .1.2.2c0 0 .1 0 .2.1h.5c0 .1.2.1.3.2.1 0 .2 0 .3.2 0 0 .2.2.2.3V9c0 .2 0 .3-.1.5 0 .1-.2.3-.4.3s-.4.1-.7.1-.4 0-.6-.1c-.2 0-.3-.2-.4-.3 0-.1-.2-.3-.2-.5h.4c0 .1 0 .2.1.3 0 0 .2.1.3.2h.8c.1 0 .2-.1.3-.2 0 0 .1-.2.1-.3v-.3l-.2-.2c-.1 0-.2 0-.3-.1h-.4c-.3-.2-.5-.3-.6-.4-.2-.1-.2-.3-.2-.5s0-.3.2-.5c.1-.1.2-.2.4-.3.2 0 .4-.1.6-.1s.4 0 .6.1c.2 0 .3.2.4.3 0 .1.2.3.2.4h-.4Zm2.1 0v.3h-1.3v-.3zm-.9-.6h.4v2.6l.1.1h.3v.3h-.5c-.1 0-.2-.1-.3-.2 0 0-.1-.2-.1-.4V6.7Zm2.2 3.1h-.4q-.15 0-.3-.3c0-.1-.1-.3-.1-.4v-.3s.1-.2.2-.2c0 0 .2 0 .3-.1h.9v-.1c0-.2 0-.3-.1-.4 0 0-.2-.1-.4-.1s-.3 0-.4.1c-.1 0-.2.2-.2.3h-.4c0-.3.2-.4.3-.5.1 0 .2-.1.4-.2h.7c.1 0 .2 0 .3.1 0 0 .2.1.2.3v2.1h-.4v-.3s0 .1-.1.2l-.2.2h-.4Zm.1-.3h.4c.1 0 .2-.1.2-.2v-.7h-1s-.2 0-.2.1V9c0 .1 0 .2.1.3 0 0 .2.1.4.1Zm1.8.2V7.3h.4v.4c0-.1.1-.2.2-.3s.3-.1.4-.1h.1c.1 0 0 0 0 0v.4h-.4s-.2.1-.2.2v1.9h-.4Zm1.7 0v-.3l1.1-1.2c.1-.1.2-.3.3-.4 0-.1.1-.2.2-.3V7s-.1-.2-.2-.2h-.6s-.2.1-.2.2v.3h-.4c0-.2 0-.4.1-.5 0-.1.2-.3.4-.3s.3-.1.5-.1.4 0 .5.1c.2 0 .3.2.4.3 0 .1.1.3.1.5v.4c0 .1-.1.2-.2.4-.1.1-.3.3-.4.5l-.7.8h1.5v.4h-2.1ZM14.2 13.8c0 .4 0 .7-.2.9q-.15.3-.6.6c-.3.1-.6.2-.9.2h-.9v-3.3h1c.3 0 .6 0 .9.2.2.1.4.3.6.5.1.2.2.5.2.9Zm-.6 0c0-.3 0-.5-.1-.6 0-.2-.2-.3-.4-.4-.2 0-.3-.1-.6-.1h-.4V15h.4c.4 0 .7 0 .8-.3q.3-.3.3-.9m2.3-.9c.2 0 .4 0 .6.1.2 0 .3.2.4.4 0 .2.1.4.1.6v.3h-1.6c0 .2 0 .4.2.5.1.1.3.2.5.2h.4c.1 0 .3 0 .4-.1v.5c-.1 0-.2.1-.4.1H16c-.2 0-.5 0-.6-.1-.2 0-.3-.2-.4-.4s-.2-.4-.2-.7 0-.5.1-.7c0-.2.2-.3.4-.4s.4-.2.6-.2Zm0 .4c-.2 0-.3 0-.4.2 0 0-.2.2-.2.4h1.1v-.3s0-.2-.2-.2h-.3Zm2.1 2.1-.9-2.5h.6l.5 1.4v.6-.6l.5-1.4h.6l-.9 2.5h-.6Zm2.5-2.5v2.5h-.6v-2.5zm-.3-.9h.2v.4H20V12zm2 3.5c-.2 0-.4 0-.6-.1-.2 0-.3-.2-.4-.4 0-.2-.1-.4-.1-.7s0-.6.2-.7c.1-.2.2-.3.4-.4.2 0 .4-.1.6-.1h.4c.1 0 .2 0 .3.1l-.2.5h-.9s-.2.2-.2.3v.9c0 .1.1.2.2.3h.7c.1 0 .2 0 .3-.1v.5s-.2 0-.3.1h-.4Zm2.3-2.6c.2 0 .4 0 .6.1.2 0 .3.2.4.4 0 .2.1.4.1.6v.3H24c0 .2 0 .4.2.5.1.1.3.2.5.2h.4c.1 0 .3 0 .4-.1v.5c-.1 0-.2.1-.4.1h-.5c-.2 0-.5 0-.6-.1-.2 0-.3-.2-.4-.4s-.2-.4-.2-.7 0-.5.1-.7c0-.2.2-.3.4-.4s.4-.2.6-.2Zm0 .4c-.2 0-.3 0-.4.2 0 0-.2.2-.2.4H25v-.3s0-.2-.2-.2h-.3Zm4.8 1.2c0 .2 0 .4-.1.5s-.2.2-.4.3c-.2 0-.4.1-.6.1h-.6s-.2 0-.3-.1v-.5c.1 0 .3.1.5.2h.8s.1 0 .2-.1v-.4l-.2-.2c-.1-.1-.2-.1-.4-.2-.1 0-.2 0-.3-.1 0 0-.2-.1-.3-.2 0 0-.1-.2-.2-.3v-.4c0-.2 0-.3.1-.5 0-.1.2-.2.4-.3.2 0 .4-.1.6-.1h.5c.2 0 .3 0 .5.2l-.2.5c-.1 0-.3-.1-.4-.1h-.7s-.1 0-.2.1v.4l.2.2.4.2c.2 0 .3.2.4.2s.2.2.3.3.1.3.1.4Zm3.3-.7c0 .4 0 .7-.2.9q-.15.3-.6.6c-.3.1-.6.2-.9.2H30v-3.3h1c.3 0 .6 0 .9.2.2.1.4.3.6.5.1.2.2.5.2.9Zm-.6 0c0-.3 0-.5-.1-.6 0-.2-.2-.3-.4-.4-.2 0-.3-.1-.6-.1h-.4V15h.4c.4 0 .7 0 .8-.3q.3-.3.3-.9m3.8 1.6h-.7l-1-1.4-.3.2v1.2h-.6v-3.3h.6v1.5s.1-.2.2-.2l.2-.2.9-1.1h.7l-1.2 1.4 1.2 1.8Z"/><path d="M34.4 26.6H16.7l-4.9 8.6h17.7z" style="fill:#c4cd00"/><path d="M34.4 22.3H16.7l-4.9 8.6h17.7z" style="fill:#fb7039"/><path d="M34.4 18H16.7l-4.9 8.6h17.7z" style="fill:#d71a8e"/><path d="M19 23.6c-.2.1-.3.3-.1.5l.7.8c.1.1.4.2.6 0l2.5-1.5-1.1-1.3-2.5 1.5Zm2.9-.4v.2l-1.7 1.1H20v-.2l1.7-1.1zm-.4-.4v.2l-1.7 1.1h-.2v-.2l1.8-1.1h.2ZM26.1 20.6h.4l.7-.6-.3-.3-.9.3-.2.3-2.1 1.3.3.4 2.1-1.3Z" class="st0"/><path d="M25.9 23.6c-.3-.3-.8-.4-1.2-.3l-2.4-2.8c.3-.4.3-.8 0-1.1s-.8-.4-1.2-.3l.4.5c.2.2 0 .5-.2.7-.3.2-.7.2-.9 0l-.4-.5c-.3.4-.3.8 0 1.1s.8.4 1.2.3l2.4 2.8c-.3.4-.3.8 0 1.1s.8.4 1.2.3l-.4-.5c-.2-.2 0-.5.2-.7.3-.2.7-.2.9 0l.4.5c.3-.4.3-.8 0-1.1" class="st0"/></g></svg>