<svg width="60" height="60" viewBox="0 0 60 60" fill="none" xmlns="http://www.w3.org/2000/svg">
<g clip-path="url(#clip0_510_11)">
<g clip-path="url(#clip1_510_11)">
<rect x="-1.00003" width="61" height="61" fill="#F0F0F0"/>
<path d="M-4.19866 62.3169H77.9751C81.323 60.2305 83.5443 56.5177 83.5443 52.2812C83.5443 45.7521 78.2527 40.4526 71.7157 40.4526C70.2083 40.4526 68.7724 40.7382 67.4475 41.2459C65.6942 36.2162 60.9184 32.6144 55.3015 32.6144C53.3261 32.6144 51.4539 33.0587 49.7879 33.852C47.5824 30.3296 43.6792 27.9893 39.2206 27.9893C34.056 27.9893 29.6213 31.1388 27.7331 35.6212C27.4158 35.5974 27.0905 35.5815 26.7652 35.5815C25.6704 35.5815 24.6074 35.7243 23.5919 35.994C21.3388 31.2658 16.5153 27.9893 10.9223 27.9893C3.17936 27.9893 -3.10386 34.2646 -3.10386 42.0155C-3.10386 42.1979 -3.10386 42.3804 -3.08799 42.5629C-7.31647 43.975 -10.3629 47.9576 -10.3629 52.6541C-10.3629 56.9302 -7.84008 60.6113 -4.2066 62.3011L-4.19866 62.3169Z" fill="white"/>
<path d="M17.2213 45.6963C17.2213 47.0529 16.1741 47.8463 14.159 47.8463H10.2717V39.9367H13.9369C15.8092 39.9367 16.8167 40.738 16.8167 41.9915C16.8167 42.8086 16.4121 43.4036 15.8092 43.7289C16.6501 43.9986 17.2134 44.665 17.2134 45.6963H17.2213ZM11.7314 41.0871V43.2687H13.7861C14.7937 43.2687 15.357 42.9038 15.357 42.1819C15.357 41.4599 14.7857 41.0871 13.7861 41.0871H11.7314ZM15.7616 45.5456C15.7616 44.7523 15.1666 44.4032 14.0797 44.4032H11.7314V46.688H14.0797C15.1745 46.688 15.7616 46.3389 15.7616 45.5456Z" fill="black"/>
<path d="M18.2285 39.9683C18.2285 39.4923 18.6093 39.1194 19.125 39.1194C19.6407 39.1194 20.0215 39.4685 20.0215 39.9365C20.0215 40.4363 19.6565 40.8171 19.125 40.8171C18.5935 40.8171 18.2285 40.4443 18.2285 39.9683ZM18.4189 41.8088H19.8152V47.8461H18.4189V41.8088Z" fill="black"/>
<path d="M20.9334 44.8232C20.9334 43.0144 22.2742 41.7372 24.1068 41.7372C25.9394 41.7372 27.2881 43.0144 27.2881 44.8232C27.2881 46.632 25.9632 47.9173 24.1068 47.9173C22.2504 47.9173 20.9334 46.632 20.9334 44.8232ZM25.8759 44.8232C25.8759 43.6729 25.1143 42.9351 24.0989 42.9351C23.0834 42.9351 22.3376 43.6729 22.3376 44.8232C22.3376 45.9736 23.0992 46.7114 24.0989 46.7114C25.0985 46.7114 25.8759 45.9736 25.8759 44.8232Z" fill="black"/>
<path d="M27.8752 47.0049L28.375 45.8625C29.0017 46.3703 29.9934 46.7352 30.9533 46.7352C32.1671 46.7352 32.6828 46.2909 32.6828 45.7039C32.6828 43.9982 28.0418 45.1168 28.0418 42.1814C28.0418 40.9042 29.0493 39.8173 31.1913 39.8173C32.1275 39.8173 33.1112 40.0632 33.7935 40.5154L33.3333 41.6578C32.6273 41.2374 31.8577 41.039 31.1755 41.039C29.9696 41.039 29.4777 41.515 29.4777 42.1101C29.4777 43.7919 34.1108 42.6971 34.1108 45.6007C34.1108 46.8701 33.0953 47.949 30.9533 47.949C29.7395 47.949 28.5178 47.5682 27.8752 46.997V47.0049Z" fill="black"/>
<path d="M38.7837 47.5129C38.4505 47.7826 37.9428 47.9175 37.443 47.9175C36.134 47.9175 35.3882 47.2193 35.3882 45.8865V42.9829H34.4045V41.8564H35.3882V40.476H36.7845V41.8564H38.3791V42.9829H36.7845V45.8548C36.7845 46.4419 37.0781 46.7592 37.6096 46.7592C37.9031 46.7592 38.1808 46.6799 38.395 46.5133L38.7837 47.5208V47.5129Z" fill="black"/>
<path d="M44.7026 44.3076V47.8459H43.3857V47.1081C43.0525 47.6317 42.4019 47.9252 41.5134 47.9252C40.1489 47.9252 39.2921 47.1715 39.2921 46.1164C39.2921 45.0612 39.9585 44.3155 41.7673 44.3155H43.3063V44.2282C43.3063 43.4032 42.8145 42.9192 41.8228 42.9192C41.1564 42.9192 40.4583 43.1414 40.014 43.5142L39.4666 42.4829C40.1013 41.9831 41.0295 41.7372 41.9894 41.7372C43.7109 41.7372 44.7026 42.5622 44.7026 44.2996V44.3076ZM43.3063 45.9577V45.2596H41.8625C40.9105 45.2596 40.6566 45.6245 40.6566 46.0608C40.6566 46.5686 41.0771 46.8939 41.799 46.8939C42.5209 46.8939 43.0683 46.5765 43.3063 45.9577Z" fill="black"/>
<path d="M49.7153 41.7372V43.0858C49.5963 43.062 49.4931 43.0541 49.39 43.0541C48.3269 43.0541 47.6605 43.6888 47.6605 44.9184V47.8459H46.2643V41.8086H47.5891V42.6892C47.9937 42.0545 48.7157 41.7372 49.7073 41.7372H49.7153Z" fill="black"/>
<path d="M19.1889 14.0821L10.2797 33.8838H14.0719L16.0235 29.2983H25.9243L27.9077 33.8838H31.7553L22.8144 14.0821H19.1968H19.1889ZM17.269 26.4185L20.9739 17.7632L24.7105 26.4185H17.269Z" fill="url(#paint0_linear_510_11)"/>
<path d="M35.1511 12.0432C33.85 12.0432 32.89 12.9793 32.89 14.1614C32.89 15.3434 33.85 16.2796 35.1511 16.2796C36.4521 16.2796 37.4121 15.3196 37.4121 14.0741C37.4121 12.9158 36.4521 12.0352 35.1511 12.0352V12.0432Z" fill="url(#paint1_linear_510_11)"/>
<path d="M36.9039 18.7783H33.3657V33.8834H36.9039V18.7783Z" fill="url(#paint2_linear_510_11)"/>
<path d="M44.3454 20.9841V18.7786H40.9817V33.8837H44.52V26.5533C44.52 23.4672 46.2177 21.8885 48.9071 21.8885C49.161 21.8885 49.4149 21.9202 49.7243 21.9758V18.612C47.2094 18.612 45.3688 19.4054 44.3534 20.992L44.3454 20.9841Z" fill="url(#paint3_linear_510_11)"/>
</g>
</g>
<defs>
<linearGradient id="paint0_linear_510_11" x1="7.16191" y1="19.0484" x2="42.3543" y2="37.549" gradientUnits="userSpaceOnUse">
<stop stop-color="#00A0E9"/>
<stop offset="1" stop-color="#8F71F5"/>
</linearGradient>
<linearGradient id="paint1_linear_510_11" x1="15.2304" y1="3.68932" x2="50.4228" y2="22.1899" gradientUnits="userSpaceOnUse">
<stop stop-color="#00A0E9"/>
<stop offset="1" stop-color="#8F71F5"/>
</linearGradient>
<linearGradient id="paint2_linear_510_11" x1="10.2161" y1="13.2329" x2="45.4085" y2="31.7335" gradientUnits="userSpaceOnUse">
<stop stop-color="#00A0E9"/>
<stop offset="1" stop-color="#8F71F5"/>
</linearGradient>
<linearGradient id="paint3_linear_510_11" x1="12.4613" y1="8.95713" x2="47.6536" y2="27.4577" gradientUnits="userSpaceOnUse">
<stop stop-color="#00A0E9"/>
<stop offset="1" stop-color="#8F71F5"/>
</linearGradient>
<clipPath id="clip0_510_11">
<rect width="60" height="60" fill="white"/>
</clipPath>
<clipPath id="clip1_510_11">
<rect width="60" height="60" rx="8" fill="white"/>
</clipPath>
</defs>
</svg>
