<svg xmlns="http://www.w3.org/2000/svg" width="40" height="40" fill="none" viewBox="0 0 40 40"><g clip-path="url(#a)"><path fill="#7a438e" d="M36 0H4a4 4 0 0 0-4 4v32a4 4 0 0 0 4 4h32a4 4 0 0 0 4-4V4a4 4 0 0 0-4-4"/><path fill="#aaa" d="M36 0H4a4 4 0 0 0-4 4v32a4 4 0 0 0 4 4h32a4 4 0 0 0 4-4V4a4 4 0 0 0-4-4"/><path fill="#fff" d="M13.333 26.667q-.687 0-1.177-.49a1.6 1.6 0 0 1-.49-1.177V15q0-.687.49-1.177t1.177-.49h13.334q.687 0 1.177.49t.49 1.177v10q0 .687-.49 1.177t-1.177.49zm0-1.667h13.334v-8.333H13.333zm2.917-.833L15.083 23l2.146-2.167-2.166-2.166L16.25 17.5l3.333 3.333zm3.75 0V22.5h5v1.667z"/></g><defs><clipPath id="a"><path fill="#fff" d="M0 0h40v40H0z"/></clipPath></defs></svg>